<svg width="24" height="24" viewBox="0 0 24 24" fill="none" xmlns="http://www.w3.org/2000/svg">
<g clip-path="url(#clip0_3707_305)">
<path d="M0.011185 8.56787C0.0695197 8.5881 0.108361 8.61763 0.166213 8.64531C0.286333 8.70256 0.407197 8.75818 0.528771 8.81214L2.21598 9.55762L2.74786 9.79425C2.81764 9.82535 2.96411 9.89521 3.03367 9.91777C3.7362 10.2407 4.46487 10.5546 5.17355 10.8682L8.92196 12.5278L10.9653 13.4323L11.5918 13.7109C11.7145 13.7656 11.8618 13.8365 11.9864 13.8787C12.2598 13.7802 12.6755 13.5771 12.9581 13.4518L14.8899 12.5971L20.9333 9.91936C20.9985 9.90305 21.5745 9.64045 21.6657 9.59996L23.3891 8.83757C23.4998 8.78846 23.8862 8.60144 23.9785 8.58513V13.0107C23.9802 13.2024 23.9963 13.3931 23.9979 13.5838C24.0023 14.1212 23.9983 14.6577 23.999 15.1952C23.9993 15.4876 23.9352 15.7667 23.6423 15.8928C22.6184 16.3524 21.592 16.8084 20.567 17.2665L14.4169 20.0121L12.6777 20.79C12.5908 20.8289 12.0494 21.0808 11.9901 21.0869C11.9358 21.0529 11.7024 20.9656 11.6256 20.9298C11.1149 20.6972 10.6031 20.4672 10.0901 20.2399L3.56225 17.3258L1.47859 16.3952L0.760619 16.0745C0.616206 16.0107 0.464642 15.9496 0.32419 15.8792C0.130518 15.782 0.00701081 15.566 0.00510468 15.3473C0.00028104 14.7938 0.00251549 14.2401 0.00254315 13.6867L0.00282455 10.479L0.00209336 9.20069C0.00182277 9.09729 -0.00623346 8.63007 0.011185 8.56787ZM1.40425 13.7056L8.13047 16.6747L10.6989 17.808C11.1188 17.9932 11.5672 18.203 11.9876 18.3769C12.2314 18.2547 12.5497 18.1245 12.8019 18.0136L14.2195 17.3883L19.6382 14.9973L21.4804 14.184C21.8284 14.0307 22.2477 13.8591 22.5845 13.6914C22.5696 13.5607 22.5692 13.4097 22.5717 13.2775C22.58 12.8343 22.5587 12.3812 22.5785 11.939C22.3394 12.0602 22.0455 12.1836 21.7977 12.2937L20.6146 12.8232L16.6383 14.6033L13.4758 16.0185L12.507 16.4532C12.3661 16.5165 12.1245 16.6336 11.9881 16.6817C11.7456 16.5505 11.3258 16.3798 11.0653 16.2632L9.32175 15.4812L3.97901 13.0903L2.24967 12.3171C1.97967 12.1959 1.66481 12.0639 1.40291 11.9347C1.41745 12.1752 1.4105 12.4866 1.40966 12.7309C1.40855 13.0493 1.4153 13.39 1.40425 13.7056Z" fill="#C465FF"/>
<path d="M0.011185 8.56787C0.0695197 8.5881 0.108361 8.61763 0.166213 8.64531C0.286333 8.70256 0.407198 8.75818 0.528771 8.81214L2.21598 9.55762L2.74786 9.79425C2.81764 9.82535 2.96411 9.89521 3.03367 9.91777C3.7362 10.2407 4.46487 10.5546 5.17355 10.8682L8.92196 12.5278L10.9653 13.4323L11.5918 13.7109C11.7145 13.7656 11.8618 13.8365 11.9864 13.8787L11.9881 16.6817C11.7456 16.5505 11.3258 16.3798 11.0653 16.2632L9.32175 15.4812L3.97901 13.0903L2.24967 12.3171C1.97967 12.1959 1.66482 12.0639 1.40291 11.9347C1.41745 12.1752 1.4105 12.4866 1.40966 12.7309C1.40855 13.0493 1.4153 13.39 1.40425 13.7056L8.13047 16.6747L10.6989 17.808C11.1188 17.9932 11.5672 18.203 11.9876 18.3769C11.9827 18.5577 11.9841 18.751 11.9873 18.9324C11.9994 19.6482 11.9725 20.3721 11.9901 21.0869C11.9358 21.0529 11.7024 20.9656 11.6256 20.9298C11.1149 20.6972 10.6031 20.4672 10.0901 20.2399L3.56225 17.3258L1.47859 16.3952L0.760619 16.0745C0.616206 16.0107 0.464642 15.9496 0.32419 15.8792C0.130518 15.782 0.00701081 15.566 0.00510468 15.3473C0.00028104 14.7938 0.00251549 14.2401 0.00254315 13.6867L0.00282455 10.479L0.00209336 9.20069C0.00182277 9.09729 -0.00623346 8.63007 0.011185 8.56787Z" fill="#7C07D3"/>
<path d="M11.9617 6.92493C12.0025 6.93281 12.2687 7.05231 12.3202 7.07465L13.2923 7.50022L18.157 9.61891C18.3598 9.70815 18.6229 9.83316 18.8236 9.90473L17.7659 10.3938C17.5642 10.4847 17.1052 10.6844 16.9322 10.7907C16.7973 10.7189 16.6084 10.6407 16.4669 10.5774L12.3963 8.76097C12.2846 8.71151 12.0824 8.63053 11.9826 8.57074C11.8766 8.59963 11.5707 8.74476 11.4524 8.79796L8.49022 10.1201C8.00827 10.3341 7.4844 10.5586 7.01027 10.7848C6.40372 10.5038 5.70677 10.2037 5.11392 9.90815C6.84887 9.11617 8.62731 8.39509 10.3684 7.61493C10.8931 7.37985 11.431 7.14432 11.9617 6.92493Z" fill="#A400FE"/>
<path d="M11.9308 3.11719H12.03C12.1352 3.18797 12.4946 3.33297 12.6289 3.3962L14.561 4.28223L23.3509 8.30082C23.4876 8.36297 23.8772 8.51499 23.9786 8.58503C23.8862 8.60134 23.4998 8.78836 23.3892 8.83747L21.6657 9.59986C21.5746 9.64036 20.9985 9.90295 20.9333 9.91926C20.8609 9.86619 20.313 9.61604 20.2078 9.56659L14.0526 6.65316C13.3698 6.33141 12.671 5.98644 11.9838 5.67798C11.7433 5.78141 11.4389 5.93439 11.1983 6.04876L3.8108 9.54453L3.30806 9.78044C3.24055 9.81192 3.08961 9.87692 3.03371 9.91767C2.96415 9.89511 2.81769 9.82526 2.7479 9.79416L2.21603 9.55752L0.528816 8.81204C0.407243 8.75809 0.286379 8.70247 0.166258 8.64521C0.108407 8.61754 0.0695651 8.588 0.0112305 8.56778C0.0757826 8.55678 0.529625 8.33855 0.622633 8.29569L11.5009 3.32575C11.5863 3.28678 11.866 3.16641 11.9308 3.11719Z" fill="#A400FE"/>
</g>
<defs>
<clipPath id="clip0_3707_305">
<rect width="24" height="24" fill="white"/>
</clipPath>
</defs>
</svg>
