<svg width="24" height="24" viewBox="0 0 24 24" fill="none" xmlns="http://www.w3.org/2000/svg">
<path d="M4.90101 5.1001L1.80005 18.8804H3.60424L4.48755 14.8841C4.58152 14.4904 4.88222 14.2738 5.16412 14.2738C5.42723 14.2738 5.67155 14.4313 5.76552 14.7857V14.8841H8.22749V14.8054C8.32146 14.4313 8.56578 14.2738 8.82889 14.2738C9.1108 14.2738 9.4115 14.4707 9.50547 14.8644L10.3888 18.8804H12.193L9.1108 5.1001H7.68248C7.66368 5.51351 7.3254 5.73005 7.0059 5.73005C6.66762 5.73005 6.32933 5.51351 6.31054 5.1001H4.90101ZM5.76552 13.073V13.2305C5.72793 13.5061 5.5212 13.6242 5.29568 13.6242C5.05136 13.6242 4.80704 13.447 4.88222 13.132L6.25416 6.97028C6.40451 6.61593 6.7052 6.43876 7.0059 6.43876C7.3066 6.43876 7.58851 6.61593 7.73886 6.9506L9.1108 13.132C9.18597 13.447 8.94166 13.6242 8.69734 13.6242C8.47181 13.6242 8.22749 13.4667 8.22749 13.132V13.1517V13.073H5.76552Z" fill="#5558FA"/>
<path d="M17.4264 6.00567C17.0694 6.00567 16.7687 5.71038 16.7687 5.31666V5.10011H15.9042V5.11979H12.8596V6.93092H15.9981C16.374 6.93092 16.6747 7.2459 16.6747 7.61994V16.4C16.6747 16.774 16.374 17.089 15.9981 17.089H12.8596V18.9001H16.7499V18.6836C16.7499 18.2898 17.0506 17.9945 17.4264 17.9945H17.6332C17.9903 17.9945 18.291 18.3095 18.291 18.7032V18.9001H22.2V17.089H19.0615C18.6856 17.089 18.3849 16.774 18.3849 16.4V7.61994C18.3849 7.2459 18.6856 6.93092 19.0615 6.93092H22.2V5.11979H18.291V5.33634C18.291 5.71038 18.0091 6.00567 17.6332 6.00567H17.4264Z" fill="#5558FA"/>
</svg>
