<svg width="40" height="40" viewBox="0 0 40 40" fill="none" xmlns="http://www.w3.org/2000/svg">
<path d="M8.16827 8.5L3 31.4672H6.00699L7.47917 24.8067C7.63578 24.1505 8.13695 23.7896 8.60679 23.7896C9.04531 23.7896 9.4525 24.0521 9.60912 24.6426V24.8067H13.7124V24.6755C13.869 24.0521 14.2762 23.7896 14.7147 23.7896C15.1846 23.7896 15.6857 24.1177 15.8424 24.7739L17.3145 31.4672H20.3215L15.1846 8.5H12.804C12.7727 9.18902 12.2089 9.54993 11.6764 9.54993C11.1126 9.54993 10.5488 9.18902 10.5175 8.5H8.16827ZM9.60912 21.7881V22.0506C9.54647 22.51 9.20192 22.7068 8.82605 22.7068C8.41885 22.7068 8.01165 22.4115 8.13694 21.8866L10.4235 11.617C10.6741 11.0264 11.1753 10.7311 11.6764 10.7311C12.1776 10.7311 12.6474 11.0264 12.898 11.5842L15.1846 21.8866C15.3099 22.4115 14.9027 22.7068 14.4955 22.7068C14.1196 22.7068 13.7124 22.4444 13.7124 21.8866V21.9194V21.7881H9.60912Z" fill="#5558FA"/>
<path d="M29.044 10.0093C28.4489 10.0093 27.9477 9.51714 27.9477 8.86093V8.50002H26.5069V8.53283H21.4326V11.5514H26.6635C27.2899 11.5514 27.7911 12.0763 27.7911 12.6997V27.3331C27.7911 27.9565 27.2899 28.4815 26.6635 28.4815H21.4326V31.5H27.9164V31.1391C27.9164 30.4829 28.4175 29.9907 29.044 29.9907H29.3886C29.9837 29.9907 30.4849 30.5157 30.4849 31.1719V31.5H37V28.4815H31.7691C31.1426 28.4815 30.6415 27.9565 30.6415 27.3331V12.6997C30.6415 12.0763 31.1426 11.5514 31.7691 11.5514H37V8.53283H30.4849V8.89374C30.4849 9.51714 30.015 10.0093 29.3886 10.0093H29.044Z" fill="#5558FA"/>
</svg>
