<svg width="24" height="24" viewBox="0 0 24 24" fill="none" xmlns="http://www.w3.org/2000/svg">
<g clip-path="url(#clip0_1678_28)">
<path d="M22.0673 13.2651C23.0898 13.1864 23.9157 13.8549 23.9943 14.8774C24.073 15.9392 23.3258 16.8044 22.3033 16.883C21.3201 16.9617 20.455 16.2145 20.3763 15.2314C20.2977 14.1696 21.0055 13.383 22.0673 13.2651Z" fill="#86DA2F"/>
<path d="M9.64014 21.642C9.64014 20.6195 10.4267 19.833 11.3705 19.833C12.3143 19.833 13.2188 20.6982 13.2188 21.6813C13.2188 22.6252 12.4323 23.451 11.5278 23.4903C10.3873 23.4903 9.64014 22.7825 9.64014 21.642Z" fill="#24C2FF"/>
<path d="M12.4325 10.1584C12.2752 10.2371 12.1966 10.1191 12.1573 10.0011C10.7022 7.28765 11.1348 3.86629 13.691 1.82134C14.3595 1.27078 15.6179 1.1528 16.1685 1.70336C16.4045 1.89999 16.4438 2.13595 16.4831 2.41123C16.5618 3.00112 16.6797 3.59101 17.073 4.06292C17.5056 4.57416 18.0562 4.77079 18.6854 4.73146C19.2359 4.73146 19.7865 4.65281 20.1404 5.28203C20.3371 5.63596 20.2584 7.01237 19.9438 7.28765C19.7865 7.40563 19.6685 7.32697 19.5505 7.28765C18.646 6.93372 17.7022 6.93372 16.7584 7.09102C16.4438 7.13035 16.2865 7.05169 16.2865 6.69776C16.2472 6.10787 16.1292 5.55731 15.8146 5.04607C15.2247 3.98427 14.1236 3.94494 13.4157 4.92809C12.8258 5.71461 12.6685 6.65843 12.5112 7.60226C12.3539 8.4281 12.3932 9.29327 12.4325 10.1584Z" fill="#FFCB12"/>
<path d="M13.4154 10.7482C13.3368 10.6302 13.3761 10.5122 13.4941 10.4336C15.7357 8.38861 19.0784 7.99535 21.6739 10.001C22.3424 10.5515 22.775 11.692 22.4211 12.3605C22.2638 12.6358 22.0671 12.7538 21.8312 12.8324C21.2806 13.0684 20.7694 13.3044 20.4154 13.8156C20.0615 14.3268 19.9829 14.9167 20.1402 15.5459C20.2581 16.0572 20.4548 16.6077 19.9435 17.0796C19.6683 17.3549 18.3312 17.5909 17.9772 17.3549C17.8199 17.237 17.8593 17.119 17.8986 16.9617C18.0166 15.9785 17.7806 15.074 17.4267 14.2089C17.3087 13.8942 17.348 13.7369 17.6626 13.6583C18.2132 13.501 18.7244 13.2257 19.1177 12.8324C19.9829 12.0066 19.7862 10.9448 18.6458 10.4729C17.7413 10.0796 16.7975 10.1583 15.893 10.2369C15.0278 10.2763 14.202 10.5122 13.4154 10.7482Z" fill="#86DA2F"/>
<path d="M12.9046 11.7707C13.0225 11.6528 13.1012 11.6921 13.2192 11.7707C15.8147 13.3438 17.1518 16.4505 15.972 19.4786C15.6574 20.2652 14.6349 21.0517 13.8877 20.855C13.5731 20.7764 13.4158 20.6191 13.2585 20.4225C12.9046 19.9505 12.5113 19.518 11.9214 19.3213C11.2922 19.1247 10.7416 19.2427 10.1911 19.5573C9.71915 19.8326 9.24724 20.1865 8.65735 19.8326C8.30342 19.6359 7.71353 18.4168 7.83151 18.0236C7.91016 17.8663 8.06746 17.8663 8.22477 17.8663C9.20792 17.709 9.99443 17.2371 10.7416 16.6078C10.9776 16.4112 11.1742 16.4112 11.3708 16.6865C11.6855 17.1584 12.0787 17.5517 12.5899 17.8269C13.6124 18.4168 14.5956 17.9056 14.7135 16.7258C14.8315 15.7427 14.4776 14.8775 14.163 14.0123C13.8091 13.2258 13.3765 12.4786 12.9046 11.7707Z" fill="#24C2FF"/>
<path d="M11.6458 12.0066C11.4885 12.7932 11.1346 13.5404 10.6627 14.2089C9.24692 16.3325 7.20197 17.1977 4.68511 16.9617C3.78062 16.8831 3.03342 16.1359 2.95477 15.3887C2.91545 15.0741 2.9941 14.8381 3.19073 14.6022C3.46601 14.2482 3.70197 13.9336 3.81994 13.501C4.0559 12.6359 3.74129 11.928 3.11208 11.2988C2.2469 10.4336 2.36488 9.64709 3.38736 9.01787C3.50534 8.93922 3.66264 8.86057 3.81994 8.78192C4.0559 8.66394 4.25253 8.66394 4.33118 8.93922C4.68511 9.84372 5.39298 10.5123 6.1795 11.0628C6.45478 11.2988 6.45478 11.4561 6.21883 11.7314C5.74691 12.2426 5.47163 12.8718 5.43231 13.5797C5.35365 14.4449 5.86489 14.9954 6.73006 14.9954C7.28063 14.9954 7.79186 14.7988 8.26378 14.5628C9.48288 13.9336 10.4267 13.0291 11.3312 12.0853C11.4492 12.046 11.4885 11.9673 11.6458 12.0066Z" fill="#0069DA"/>
<path d="M5.19648 3.74827C5.27514 3.74827 5.47177 3.7876 5.6684 3.82693C7.12346 4.10221 8.02795 3.59097 8.49986 2.21456C8.81447 1.31007 9.48301 1.03478 10.3482 1.5067C10.3875 1.5067 10.3875 1.54602 10.4268 1.54602C11.3313 2.05726 11.3313 2.13591 10.7808 2.92243C10.3089 3.55164 10.0729 4.25951 9.95492 5.0067C9.87627 5.43929 9.71897 5.51794 9.32571 5.36064C8.69649 5.12468 8.02795 5.12468 7.35941 5.36064C6.61222 5.59659 6.29761 6.26513 6.53357 7.01233C6.84817 7.99548 7.71335 8.42806 8.46054 8.9393C9.20773 9.45054 10.0729 9.72582 10.8987 10.0798C11.0167 10.1191 11.2134 10.1191 11.174 10.3157C11.1347 10.4337 10.9774 10.4337 10.8201 10.4337C9.05043 10.5123 7.35941 10.2371 5.983 9.05728C4.68525 7.99548 3.74142 6.69772 3.89873 4.88873C4.01671 4.29884 4.44929 3.86625 5.19648 3.74827Z" fill="#FF4649"/>
<path d="M1.97173 14.7988C1.02791 14.9168 0.0840869 14.1303 0.00543495 13.1471C-0.0732169 12.2033 0.713302 11.2595 1.6178 11.1808C2.64027 11.0629 3.5841 11.7707 3.66275 12.7145C3.70207 13.619 3.11219 14.7202 1.97173 14.7988Z" fill="#0069DA"/>
<path d="M18.4887 0.798396C19.4719 0.719744 20.4157 1.50626 20.4943 2.48941C20.573 3.43323 19.7865 4.33773 18.8426 4.41638C17.8202 4.49504 16.9157 3.74784 16.837 2.76469C16.7584 1.78154 17.4662 0.877048 18.4887 0.798396Z" fill="#FFCB12"/>
<path d="M8.2244 1.54601C8.34238 2.56849 7.63451 3.43366 6.57271 3.59096C5.66822 3.70894 4.72439 2.96175 4.60642 2.09658C4.48844 0.956123 5.11765 0.130278 6.17945 0.0123002C7.1626 -0.105678 8.10642 0.641515 8.2244 1.54601Z" fill="#FF4649"/>
</g>
<defs>
<clipPath id="clip0_1678_28">
<rect width="24" height="24" fill="white"/>
</clipPath>
</defs>
</svg>
