<svg width="24" height="24" viewBox="0 0 24 24" fill="none" xmlns="http://www.w3.org/2000/svg">
<path d="M20.1462 19.523C10.9587 23.8954 5.2569 20.2371 1.60698 18.0151C1.38112 17.8751 0.997243 18.0479 1.33031 18.4304C2.54628 19.9048 6.53128 23.4585 11.7329 23.4585C16.938 23.4585 20.0346 20.6184 20.422 20.1229C20.8067 19.6316 20.5349 19.3607 20.1461 19.523H20.1462ZM22.7265 18.098C22.4797 17.7767 21.2262 17.7168 20.4373 17.8137C19.6472 17.9078 18.4613 18.3907 18.5644 18.6806C18.6173 18.7893 18.7253 18.7405 19.2681 18.6917C19.8123 18.6374 21.337 18.445 21.6547 18.8603C21.9739 19.2785 21.1684 21.2706 21.0213 21.5919C20.8792 21.9132 21.0756 21.996 21.3426 21.782C21.6059 21.5681 22.0826 21.0142 22.4025 20.2303C22.7202 19.4421 22.9139 18.3426 22.7264 18.098H22.7265Z" fill="#FF9900"/>
<path fill-rule="evenodd" clip-rule="evenodd" d="M13.9687 10.6022C13.9687 11.7494 13.9976 12.7062 13.4178 13.725C12.9497 14.5534 12.2083 15.0629 11.38 15.0629C10.2492 15.0629 9.59071 14.2014 9.59071 12.9299C9.59071 10.4199 11.8397 9.96431 13.9687 9.96431V10.6022ZM16.9383 17.7799C16.7436 17.9539 16.462 17.9663 16.2425 17.8503C15.265 17.0386 15.091 16.6617 14.5526 15.8871C12.9373 17.5356 11.7942 18.0284 9.69844 18.0284C7.22162 18.0284 5.2915 16.5001 5.2915 13.4393C5.2915 11.0495 6.58797 9.42171 8.43096 8.62655C10.0298 7.92235 12.2622 7.79812 13.9687 7.60352V7.22243C13.9687 6.52243 14.0224 5.69409 13.6125 5.08942C13.2521 4.54682 12.5645 4.32315 11.9598 4.32315C10.8374 4.32315 9.83507 4.89883 9.59071 6.09167C9.54095 6.35681 9.34634 6.61777 9.08129 6.63016L6.22339 6.32373C5.98321 6.26977 5.71816 6.07517 5.78442 5.70649C6.44296 2.244 9.56993 1.2002 12.3698 1.2002C13.8029 1.2002 15.6749 1.58128 16.8057 2.66647C18.2388 4.00423 18.1021 5.78934 18.1021 7.73185V12.321C18.1021 13.7002 18.6737 14.3049 19.2121 15.0505C19.4026 15.3155 19.444 15.6345 19.2038 15.8332C18.6032 16.3344 17.5346 17.2663 16.9465 17.7882L16.9382 17.7799" fill="black"/>
</svg>
