<svg width="24" height="24" viewBox="0 0 24 24" fill="none" xmlns="http://www.w3.org/2000/svg">
<path d="M20.1464 19.523C10.959 23.8954 5.25714 20.2371 1.60722 18.0151C1.38136 17.8751 0.997487 18.0479 1.33055 18.4304C2.54652 19.9048 6.53152 23.4585 11.7331 23.4585C16.9383 23.4585 20.0349 20.6184 20.4222 20.1229C20.807 19.6316 20.5352 19.3607 20.1463 19.523H20.1464ZM22.7267 18.098C22.48 17.7767 21.2265 17.7168 20.4376 17.8137C19.6475 17.9078 18.4615 18.3907 18.5646 18.6806C18.6176 18.7893 18.7256 18.7405 19.2683 18.6917C19.8126 18.6374 21.3373 18.445 21.655 18.8603C21.9741 19.2785 21.1687 21.2706 21.0216 21.5919C20.8794 21.9132 21.0759 21.996 21.3428 21.782C21.6062 21.5681 22.0828 21.0142 22.4027 20.2303C22.7204 19.4421 22.9141 18.3426 22.7266 18.098H22.7267Z" fill="#FF9900"/>
<path fill-rule="evenodd" clip-rule="evenodd" d="M13.9687 10.6022C13.9687 11.7494 13.9976 12.7062 13.4178 13.725C12.9497 14.5534 12.2083 15.0629 11.38 15.0629C10.2492 15.0629 9.59071 14.2014 9.59071 12.9299C9.59071 10.4199 11.8397 9.96431 13.9687 9.96431V10.6022ZM16.9383 17.7799C16.7436 17.9539 16.462 17.9663 16.2425 17.8503C15.265 17.0386 15.091 16.6617 14.5526 15.8871C12.9373 17.5356 11.7942 18.0284 9.69844 18.0284C7.22162 18.0284 5.2915 16.5001 5.2915 13.4393C5.2915 11.0495 6.58797 9.42171 8.43096 8.62655C10.0298 7.92235 12.2622 7.79812 13.9687 7.60352V7.22243C13.9687 6.52243 14.0224 5.69409 13.6125 5.08942C13.2521 4.54682 12.5646 4.32315 11.9598 4.32315C10.8374 4.32315 9.83507 4.89883 9.59071 6.09167C9.54095 6.35681 9.34634 6.61777 9.08129 6.63016L6.22339 6.32373C5.98321 6.26977 5.71816 6.07517 5.78442 5.70649C6.44296 2.244 9.56993 1.2002 12.3698 1.2002C13.8029 1.2002 15.6749 1.58128 16.8057 2.66647C18.2388 4.00423 18.1021 5.78934 18.1021 7.73185V12.321C18.1021 13.7002 18.6737 14.3049 19.2121 15.0505C19.4026 15.3155 19.444 15.6345 19.2038 15.8332C18.6032 16.3344 17.5346 17.2663 16.9465 17.7882L16.9382 17.7799" fill="white"/>
</svg>
