<svg width="40" height="40" viewBox="0 0 40 40" fill="none" xmlns="http://www.w3.org/2000/svg">
<path d="M33.577 32.5386C18.2646 39.826 8.76158 33.7289 2.67837 30.0256C2.30195 29.7922 1.66215 30.0801 2.21726 30.7178C4.24388 33.1751 10.8855 39.0979 19.5548 39.0979C28.2301 39.0979 33.3911 34.3643 34.0367 33.5385C34.678 32.7198 34.225 32.2681 33.5769 32.5386H33.577ZM37.8775 30.1637C37.4663 29.6282 35.3771 29.5284 34.0623 29.6899C32.7455 29.8467 30.7689 30.6515 30.9408 31.1348C31.0289 31.3158 31.2089 31.2346 32.1135 31.1533C33.0206 31.0627 35.5618 30.7421 36.0913 31.4342C36.6232 32.1312 35.2808 35.4514 35.0356 35.9868C34.7987 36.5223 35.1261 36.6604 35.5711 36.3038C36.0099 35.9473 36.8044 35.024 37.3375 33.7175C37.867 32.4039 38.1899 30.5714 37.8774 30.1637H37.8775Z" fill="#FF9900"/>
<path fill-rule="evenodd" clip-rule="evenodd" d="M23.2813 17.6699C23.2813 19.582 23.3296 21.1766 22.3631 22.8747C21.5831 24.2554 20.3474 25.1045 18.9668 25.1045C17.0822 25.1045 15.9847 23.6686 15.9847 21.5494C15.9847 17.3661 19.7329 16.6069 23.2813 16.6069V17.6699ZM28.2307 29.6329C27.9062 29.9228 27.4368 29.9436 27.071 29.7502C25.4419 28.3973 25.1519 27.7691 24.2546 26.4782C21.5624 29.2256 19.6571 30.047 16.1642 30.047C12.0362 30.047 8.81934 27.4998 8.81934 22.3985C8.81934 18.4155 10.9801 15.7025 14.0518 14.3773C16.7164 13.2036 20.4372 12.9965 23.2813 12.6722V12.0371C23.2813 10.8704 23.3709 9.48982 22.6876 8.48204C22.0869 7.57772 20.9411 7.20493 19.9332 7.20493C18.0625 7.20493 16.392 8.1644 15.9847 10.1525C15.9017 10.5944 15.5774 11.0293 15.1356 11.0499L10.3725 10.5392C9.97219 10.4493 9.53043 10.125 9.64087 9.51048C10.7384 3.73968 15.95 2 20.6165 2C23.0049 2 26.1251 2.63514 28.0097 4.44379C30.3982 6.67339 30.1703 9.64857 30.1703 12.8861V20.5347C30.1703 22.8334 31.1229 23.8412 32.0203 25.0838C32.3378 25.5256 32.4069 26.0572 32.0064 26.3884C31.0055 27.2236 29.2245 28.7769 28.2444 29.6467L28.2305 29.6329" fill="black"/>
</svg>
