<svg width="24" height="24" viewBox="0 0 24 24" fill="none" xmlns="http://www.w3.org/2000/svg">
<g clip-path="url(#clip0_1535_3272)">
<path d="M0.386624 23.8888L11.8703 12.1175C11.9058 12.0825 11.9277 12.0361 11.9324 11.9865C11.9371 11.9369 11.9242 11.8872 11.896 11.8462C11.1977 10.8713 9.909 10.7022 9.43151 10.0471C8.01698 8.10659 7.65807 7.00819 7.05021 7.07623C7.00779 7.08233 6.96879 7.10291 6.93981 7.13449L2.79155 11.3871C0.404939 13.8315 0.0619286 19.2195 2.26729e-06 23.7316C-0.000199121 23.7765 0.0130196 23.8204 0.0379981 23.8577C0.0629765 23.895 0.0985616 23.924 0.140149 23.9409C0.181736 23.9578 0.227417 23.9619 0.271344 23.9526C0.315271 23.9433 0.355431 23.9211 0.386624 23.8888Z" fill="#017CEE"/>
<path d="M23.8885 23.5985L12.1172 12.114C12.0822 12.0785 12.0357 12.0564 11.986 12.0517C11.9363 12.047 11.8865 12.06 11.8455 12.0884C10.8705 12.7871 10.7014 14.0753 10.0463 14.5528C8.10583 15.9673 7.00746 16.3262 7.07549 16.9341C7.08169 16.9764 7.10224 17.0152 7.13373 17.0441L11.3863 21.1923C13.8307 23.579 19.2188 23.922 23.7308 23.9839C23.7755 23.984 23.8192 23.9707 23.8563 23.9458C23.8934 23.9209 23.9222 23.8855 23.9391 23.8442C23.956 23.8028 23.9603 23.7574 23.9512 23.7136C23.9422 23.6699 23.9204 23.6298 23.8885 23.5985Z" fill="#00AD46"/>
<path d="M11.3864 21.1937C10.0501 19.89 9.43081 17.3111 11.9918 11.9932C7.82846 13.8538 6.3695 16.2995 7.08695 16.9998L11.3864 21.1937Z" fill="#04D659"/>
<path d="M23.598 0.0967843L12.1147 11.8681C12.0792 11.9031 12.0571 11.9495 12.0525 11.9991C12.0478 12.0487 12.0607 12.0984 12.0891 12.1394C12.7878 13.1144 14.0756 13.2834 14.5535 13.9385C15.968 15.879 16.3273 16.9774 16.9348 16.9094C16.9772 16.9033 17.0162 16.8827 17.0452 16.8511L21.1934 12.5986C23.58 10.1541 23.9231 4.76611 23.985 0.254039C23.9851 0.209148 23.9718 0.165256 23.9467 0.127992C23.9217 0.0907272 23.8861 0.0617865 23.8445 0.0448882C23.8029 0.0279899 23.7573 0.0239064 23.7133 0.0331513C23.6694 0.0423961 23.6292 0.0645569 23.598 0.0967843Z" fill="#00C7D4"/>
<path d="M21.1956 12.5986C19.8919 13.9349 17.313 14.5541 11.9946 11.9932C13.8553 16.1565 16.3009 17.6154 17.0013 16.898L21.1956 12.5986Z" fill="#11E1EE"/>
<path d="M0.0951979 0.387049L11.8665 11.8703C11.9015 11.9058 11.9479 11.9278 11.9975 11.9325C12.0471 11.9371 12.0968 11.9242 12.1378 11.896C13.1128 11.1973 13.2818 9.90905 13.937 9.43157C15.8775 8.01704 16.9758 7.6581 16.9078 7.05024C16.9016 7.00785 16.881 6.96888 16.8496 6.93983L12.597 2.79158C10.1525 0.404967 4.76452 0.061931 0.252453 4.57386e-06C0.207471 -0.000282259 0.163429 0.0129277 0.126032 0.0379258C0.0886354 0.0629239 0.0596128 0.0985522 0.0426801 0.140226C0.0257474 0.1819 0.0216798 0.227697 0.0310427 0.271694C0.0404055 0.315692 0.0627639 0.355881 0.0951979 0.387049Z" fill="#E43921"/>
<path fill-rule="evenodd" clip-rule="evenodd" d="M12.5989 2.79199C13.9352 4.09571 14.5544 6.67461 11.9934 11.9929C16.1567 10.1323 17.6157 7.68621 16.8982 6.98628L12.5989 2.79199Z" fill="#FF7557"/>
<path d="M2.79102 11.3876C4.09473 10.0513 6.67363 9.432 11.992 11.993C10.1313 7.82966 7.68566 6.37072 6.98532 7.08817L2.79102 11.3876Z" fill="#0CB6FF"/>
<path d="M11.9943 12.5042C12.2778 12.5042 12.5076 12.2744 12.5076 11.9909C12.5076 11.7074 12.2778 11.4775 11.9943 11.4775C11.7108 11.4775 11.481 11.7074 11.481 11.9909C11.481 12.2744 11.7108 12.5042 11.9943 12.5042Z" fill="#4A4848"/>
</g>
<defs>
<clipPath id="clip0_1535_3272">
<rect width="24" height="24" fill="white"/>
</clipPath>
</defs>
</svg>
