<svg width="24" height="24" viewBox="0 0 24 24" fill="none" xmlns="http://www.w3.org/2000/svg">
<g clip-path="url(#clip0_3277_97)">
<path d="M8.68264 0.276367H8.69515C9.6979 0.853481 10.7223 1.40005 11.727 1.97438C11.8806 2.06213 12.0373 2.15062 12.1929 2.23408C12.3754 2.12011 12.5932 2.00478 12.7837 1.89814L13.7925 1.33407L14.6934 0.829467C14.855 0.738796 15.0543 0.620235 15.2184 0.540114C15.9226 0.909461 16.6685 1.34821 17.3694 1.74058L21.4133 4.00321L22.9633 4.87041C23.1757 4.98931 23.5226 5.20003 23.7236 5.29387V13.8039C23.2988 14.0273 22.8473 14.2909 22.426 14.5266L20.2299 15.7565L20.2307 19.1412C19.5141 19.5647 18.7198 19.9903 17.9884 20.3979L14.2074 22.512L12.844 23.2745C12.5944 23.4139 12.289 23.5749 12.0508 23.7241H12.0253C11.8174 23.5925 11.4223 23.397 11.1966 23.2767L9.59267 22.4221L5.8169 20.4098C5.13304 20.0458 4.4344 19.6833 3.75705 19.3103C3.73936 19.2008 3.74505 18.9828 3.74517 18.8665L3.74585 18.1305L3.74611 15.548L1.78474 14.594C1.29664 14.3538 0.767655 14.0855 0.275879 13.8577V4.84953C0.521629 4.70159 0.84471 4.53724 1.09953 4.39883L2.62557 3.56987L6.83869 1.27926C7.44518 0.948354 8.08427 0.615884 8.68264 0.276367ZM5.64122 7.16L12.0243 10.7152C13.235 10.0331 14.4979 9.36737 15.7205 8.70026L17.9764 7.47201C18.407 7.23735 18.852 6.98627 19.2858 6.76069L21.5879 5.50836L19.8336 4.52564L19.2937 4.2256C19.2238 4.18634 19.0879 4.11464 19.0273 4.07082L14.0894 6.83017L12.6024 7.66194C12.3484 7.80415 12.0469 7.98326 11.79 8.11295C11.4158 7.89546 10.927 7.62327 10.5714 7.39091L17.7609 3.37026C17.5371 3.23574 15.2307 1.94704 15.2092 1.9474L8.78748 5.44559C7.74496 6.01294 6.6743 6.58082 5.64122 7.16ZM1.5334 9.15388L6.2495 11.5877L9.28618 13.1583C9.28663 13.5495 9.26586 13.9417 9.26256 14.3331C9.26197 14.4039 9.25876 14.4705 9.25105 14.5407C8.57285 14.201 7.89197 13.8415 7.2174 13.493L3.56115 11.6057C2.9001 11.2648 2.19774 10.8847 1.5348 10.5626L1.53448 13.1545C2.24236 13.5276 2.99771 13.9104 3.6953 14.2962L11.3429 18.3325C11.3255 18.1133 11.3364 17.7555 11.3364 17.5258L11.3366 16.0153C11.3369 14.6119 11.3204 13.1749 11.338 11.7744L4.79291 8.11362L2.60513 6.88897L1.91467 6.50226C1.79882 6.4373 1.6466 6.34572 1.53118 6.29135C1.53949 6.4883 1.53789 6.69814 1.53536 6.89612C1.52579 7.647 1.54763 8.40356 1.5334 9.15388ZM4.38379 6.45806C4.7001 6.27539 5.05998 6.09111 5.38426 5.91672L7.2411 4.91943C8.46812 4.26216 9.70038 3.58213 10.9325 2.93739C10.7478 2.83355 8.72578 1.68929 8.68093 1.68509L4.38532 3.99467C3.6365 4.39724 2.87296 4.79814 2.13034 5.20888C2.87612 5.59424 3.63962 6.05644 4.38379 6.45806ZM18.9543 8.39437L12.6054 11.9454C12.618 12.0936 12.6118 12.3091 12.6116 12.4618L12.6107 13.3271L12.6105 16.1247L12.6106 20.0048L12.611 21.2311C12.6115 21.4794 12.6182 21.7551 12.607 22.0005L14.2336 21.0891C14.5381 20.9186 14.8645 20.7283 15.1723 20.5667C15.1531 20.4466 15.1599 20.2176 15.1599 20.0883L15.1606 19.2887L15.1607 16.4826L15.1599 12.4881L16.009 12.036C16.1084 11.9832 16.3376 11.8695 16.4195 11.8143C16.4404 12.2173 16.4265 12.7371 16.4264 13.1478L16.4261 15.5611L16.4264 18.3248C16.4265 18.8206 16.4396 19.3837 16.4201 19.8724C16.6081 19.7611 16.8008 19.653 16.9923 19.5478C17.6547 19.1835 18.3098 18.8012 18.9748 18.4419C18.9503 18.2391 18.9636 17.7767 18.9638 17.5497L18.9641 15.8832L18.9644 10.3288L18.9631 8.83639C18.9629 8.76464 18.9724 8.44225 18.962 8.39656L18.9543 8.39437ZM20.2303 7.68226L20.231 12.296L20.2309 13.6676C20.2309 13.8136 20.2404 14.2105 20.2251 14.3401L20.2385 14.3455C20.9722 13.9293 21.7357 13.4934 22.4765 13.0927C22.457 12.9915 22.4641 12.7321 22.4641 12.6184L22.4642 11.7682L22.4648 8.21144L22.4649 7.03712C22.4649 6.96835 22.4748 6.45454 22.4518 6.43448C21.7287 6.84159 20.939 7.26261 20.2303 7.68226ZM5.0041 18.6055L9.4716 20.9379L10.7166 21.5882C10.9029 21.6856 11.156 21.8276 11.3399 21.9118C11.3361 21.4722 11.335 21.0324 11.3366 20.5928C11.3367 20.3173 11.3305 20.0109 11.3387 19.7378L6.97765 17.3378C6.33072 16.9821 5.64434 16.6185 5.00718 16.2534L5.00746 17.7428C5.00744 18.0221 5.01316 18.328 5.0041 18.6055Z" fill="black"/>
</g>
<defs>
<clipPath id="clip0_3277_97">
<rect width="24" height="24" fill="white"/>
</clipPath>
</defs>
</svg>
