<svg width="24" height="24" viewBox="0 0 24 24" fill="none" xmlns="http://www.w3.org/2000/svg">
<path d="M5.43 21.8234L0.20925 12.7806C-0.06975 12.2976 -0.06975 11.7021 0.20925 11.2191L5.43 2.17675C5.70862 1.69412 6.22312 1.39675 6.78 1.396H17.2264C17.7814 1.39862 18.2932 1.696 18.5707 2.17675L23.7908 11.2191C24.0697 11.7021 24.0697 12.2976 23.7908 12.7806L18.57 21.8234C18.2914 22.306 17.7769 22.6034 17.22 22.6041H6.77625C6.22012 22.6022 5.7075 22.3049 5.42887 21.8234H5.43Z" fill="#4386FA"/>
<path opacity="0.1" d="M15.2617 9.08838C15.2617 9.08838 16.7129 12.5695 14.7344 14.5428C12.7559 16.516 9.15332 15.253 9.15332 15.253L16.4816 22.6015H17.2256C17.7828 22.6008 18.2973 22.303 18.5756 21.8208L22.0316 15.8365L15.2617 9.08838Z" fill="black"/>
<path d="M16.9748 16.2115L15.3747 14.6076C15.3573 14.5897 15.3373 14.5746 15.3155 14.5626C15.9961 13.6859 16.3169 12.5827 16.2124 11.4777C16.108 10.3727 15.5862 9.34917 14.7534 8.61552C13.9205 7.88187 12.8393 7.49335 11.73 7.52912C10.6207 7.56489 9.56672 8.02225 8.78287 8.80803C7.99903 9.59381 7.54425 10.6489 7.51121 11.7583C7.47817 12.8677 7.86934 13.9479 8.60504 14.779C9.34073 15.61 10.3656 16.1293 11.4708 16.231C12.576 16.3327 13.6784 16.0092 14.5535 15.3265C14.5649 15.3471 14.5792 15.366 14.5958 15.3827L16.1997 16.9866C16.2468 17.0337 16.3107 17.0601 16.3773 17.0601C16.4439 17.0601 16.5077 17.0337 16.5548 16.9866L16.9748 16.5666C17.0219 16.5195 17.0483 16.4556 17.0483 16.389C17.0483 16.3224 17.0219 16.2586 16.9748 16.2115ZM11.8647 15.1742C11.2157 15.1743 10.5813 14.9819 10.0416 14.6214C9.50196 14.2609 9.08134 13.7484 8.83294 13.1488C8.58454 12.5492 8.51953 11.8895 8.64613 11.2529C8.77272 10.6164 9.08524 10.0317 9.54415 9.57277C10.0031 9.11386 10.5878 8.80134 11.2243 8.67475C11.8608 8.54815 12.5206 8.61316 13.1202 8.86156C13.7198 9.10996 14.2322 9.53058 14.5928 10.0702C14.9533 10.6099 15.1457 11.2443 15.1456 11.8933C15.1455 12.7635 14.7998 13.5979 14.1845 14.2132C13.5693 14.8284 12.7348 15.1741 11.8647 15.1742ZM9.76735 11.7182V13.0742C9.97622 13.4428 10.2785 13.7503 10.6441 13.9648V11.71L9.76735 11.7182ZM11.408 10.594V14.2585C11.6978 14.3119 11.9949 14.3119 12.2847 14.2585V10.594H11.408ZM13.9445 13.0712V12.268H13.0685V13.9555C13.4336 13.7415 13.736 13.4353 13.9452 13.0675L13.9445 13.0712Z" fill="white"/>
</svg>
