<svg width="40" height="40" viewBox="0 0 40 40" fill="none" xmlns="http://www.w3.org/2000/svg">
<g clip-path="url(#clip0_630_627)">
<g clip-path="url(#clip1_630_627)">
<path d="M9.05 36.3725L0.34875 21.3013C-0.11625 20.4963 -0.11625 19.5037 0.34875 18.6987L9.05 3.62812C9.51437 2.82375 10.3719 2.32812 11.3 2.32687H28.7106C29.6356 2.33125 30.4888 2.82687 30.9513 3.62812L39.6513 18.6987C40.1162 19.5037 40.1162 20.4963 39.6513 21.3013L30.95 36.3725C30.4856 37.1769 29.6281 37.6725 28.7 37.6737H11.2937C10.3669 37.6706 9.5125 37.175 9.04813 36.3725H9.05Z" fill="#4386FA"/>
<path opacity="0.1" d="M25.4365 15.147C25.4365 15.147 27.8552 20.9488 24.5577 24.2376C21.2602 27.5263 15.2559 25.4213 15.2559 25.4213L27.4696 37.6688H28.7096C29.6384 37.6676 30.4959 37.1713 30.9596 36.3676L36.7196 26.3938L25.4365 15.147Z" fill="black"/>
<path d="M28.2916 27.0188L25.6247 24.3457C25.5957 24.3159 25.5624 24.2906 25.5259 24.2707C26.6603 22.8095 27.1949 20.9708 27.0209 19.1292C26.8468 17.2876 25.9771 15.5816 24.5891 14.3589C23.201 13.1361 21.399 12.4886 19.5501 12.5482C17.7013 12.6078 15.9447 13.3701 14.6383 14.6797C13.3319 15.9893 12.5739 17.7478 12.5188 19.5968C12.4638 21.4458 13.1157 23.2462 14.3419 24.6313C15.568 26.0163 17.2761 26.8818 19.1182 27.0513C20.9602 27.2209 22.7976 26.6818 24.256 25.5438C24.275 25.5782 24.2987 25.6098 24.3266 25.6375L26.9997 28.3107C27.0782 28.3891 27.1847 28.4331 27.2956 28.4331C27.4066 28.4331 27.5131 28.3891 27.5916 28.3107L28.2916 27.6107C28.37 27.5321 28.4141 27.4257 28.4141 27.3147C28.4141 27.2037 28.37 27.0973 28.2916 27.0188ZM19.7747 25.29C18.693 25.2902 17.6356 24.9695 16.7362 24.3686C15.8368 23.7678 15.1357 22.9137 14.7217 21.9144C14.3077 20.9151 14.1994 19.8154 14.4104 18.7545C14.6214 17.6936 15.1422 16.7192 15.9071 15.9543C16.6719 15.1894 17.6464 14.6686 18.7073 14.4576C19.7682 14.2466 20.8679 14.3549 21.8672 14.7689C22.8665 15.1829 23.7206 15.884 24.3214 16.7834C24.9223 17.6828 25.2429 18.7402 25.2428 19.8219C25.2427 21.2721 24.6665 22.6628 23.6411 23.6883C22.6156 24.7137 21.2249 25.2899 19.7747 25.29ZM16.2791 19.53V21.79C16.6272 22.4044 17.131 22.9169 17.7403 23.2744V19.5163L16.2791 19.53ZM19.0135 17.6563V23.7638C19.4965 23.8528 19.9917 23.8528 20.4747 23.7638V17.6563H19.0135ZM23.241 21.785V20.4463H21.7809V23.2588C22.3895 22.9022 22.8934 22.3918 23.2422 21.7788L23.241 21.785Z" fill="white"/>
</g>
</g>
<defs>
<clipPath id="clip0_630_627">
<rect width="40" height="40" fill="white"/>
</clipPath>
<clipPath id="clip1_630_627">
<rect width="40" height="40" fill="white"/>
</clipPath>
</defs>
</svg>
