<svg width="180" height="24" viewBox="0 0 180 24" fill="none" xmlns="http://www.w3.org/2000/svg">
<path d="M30 19.6904V5.04603H36.5943C38.4029 5.04603 39.7176 5.37378 40.5384 6.02929C41.3731 6.6848 41.7905 7.6053 41.7905 8.79079C41.7905 9.57183 41.6305 10.2273 41.3105 10.7573C41.0044 11.2873 40.4966 11.7197 39.7871 12.0544C41.4148 12.431 42.2287 13.5537 42.2287 15.4226C42.2287 16.1757 42.0965 16.8243 41.8322 17.3682C41.5679 17.9121 41.1853 18.3584 40.6844 18.7071C40.1975 19.0418 39.5993 19.2929 38.8898 19.4603C38.1942 19.6137 37.4082 19.6904 36.5317 19.6904H30ZM36.6152 16.5523C37.4499 16.5523 38.0342 16.4268 38.3681 16.1757C38.702 15.9107 38.8689 15.5272 38.8689 15.0251C38.8689 14.5649 38.702 14.2092 38.3681 13.9582C38.0342 13.6932 37.4499 13.5607 36.6152 13.5607H33.3389V16.5523H36.6152ZM36.323 10.9665C37.0743 10.9665 37.6168 10.834 37.9507 10.569C38.2846 10.304 38.4516 9.95537 38.4516 9.52301C38.4516 9.1046 38.2916 8.77685 37.9716 8.53975C37.6655 8.30265 37.1438 8.1841 36.4065 8.1841H33.3389V10.9665H36.323Z" fill="#F2F2F2"/>
<path d="M49.637 8.97908C50.4439 8.97908 51.1812 9.09763 51.849 9.33473C52.5307 9.55788 53.115 9.89958 53.6019 10.3598C54.1028 10.8201 54.4923 11.3919 54.7705 12.0753C55.0488 12.7587 55.1879 13.5607 55.1879 14.4812C55.1879 15.3877 55.0557 16.1827 54.7914 16.8661C54.5271 17.5356 54.1445 18.1004 53.6437 18.5607C53.1567 19.0209 52.5585 19.3696 51.849 19.6067C51.1395 19.8298 50.3396 19.9414 49.4492 19.9414C48.6423 19.9414 47.898 19.8298 47.2163 19.6067C46.5485 19.3696 45.9642 19.0209 45.4634 18.5607C44.9765 18.1004 44.5939 17.5286 44.3156 16.8452C44.0374 16.1618 43.8983 15.3598 43.8983 14.4393C43.8983 12.6402 44.4061 11.2873 45.4217 10.3808C46.4511 9.46025 47.8563 8.99303 49.637 8.97908ZM47.1328 14.4812C47.1328 15.4435 47.3554 16.1339 47.8006 16.5523C48.2458 16.9707 48.8301 17.1799 49.5535 17.1799C50.3187 17.1799 50.91 16.9707 51.3273 16.5523C51.7447 16.1339 51.9534 15.4505 51.9534 14.5021V14.4393C51.9534 13.4909 51.7238 12.8075 51.2647 12.3891C50.8195 11.9568 50.2422 11.7406 49.5327 11.7406C48.7675 11.7406 48.1762 11.9498 47.7589 12.3682C47.3415 12.7866 47.1328 13.47 47.1328 14.4184V14.4812Z" fill="#F2F2F2"/>
<path d="M62.4399 8.97908C63.2468 8.97908 63.9841 9.09763 64.6519 9.33473C65.3336 9.55788 65.9179 9.89958 66.4048 10.3598C66.9056 10.8201 67.2952 11.3919 67.5734 12.0753C67.8517 12.7587 67.9908 13.5607 67.9908 14.4812C67.9908 15.3877 67.8586 16.1827 67.5943 16.8661C67.33 17.5356 66.9474 18.1004 66.4465 18.5607C65.9596 19.0209 65.3614 19.3696 64.6519 19.6067C63.9424 19.8298 63.1424 19.9414 62.2521 19.9414C61.4452 19.9414 60.7009 19.8298 60.0192 19.6067C59.3514 19.3696 58.7671 19.0209 58.2663 18.5607C57.7793 18.1004 57.3968 17.5286 57.1185 16.8452C56.8403 16.1618 56.7012 15.3598 56.7012 14.4393C56.7012 12.6402 57.209 11.2873 58.2245 10.3808C59.254 9.46025 60.6591 8.99303 62.4399 8.97908ZM59.9357 14.4812C59.9357 15.4435 60.1583 16.1339 60.6035 16.5523C61.0487 16.9707 61.633 17.1799 62.3564 17.1799C63.1216 17.1799 63.7128 16.9707 64.1302 16.5523C64.5476 16.1339 64.7562 15.4505 64.7562 14.5021V14.4393C64.7562 13.4909 64.5267 12.8075 64.0676 12.3891C63.6224 11.9568 63.0451 11.7406 62.3355 11.7406C61.5704 11.7406 60.9791 11.9498 60.5618 12.3682C60.1444 12.7866 59.9357 13.47 59.9357 14.4184V14.4812Z" fill="#F2F2F2"/>
<path d="M73.9723 9.23013H77.645V11.9916H73.9723V15.6736C73.9723 16.2594 74.0696 16.6499 74.2644 16.8452C74.4592 17.0404 74.7931 17.1381 75.2661 17.1381C75.7113 17.1381 76.1356 17.0753 76.539 16.9498C76.9564 16.8243 77.3181 16.6639 77.6242 16.4686V19.1883C77.5129 19.2859 77.339 19.3766 77.1025 19.4603C76.8799 19.5439 76.6225 19.6206 76.3303 19.6904C76.0521 19.7462 75.753 19.795 75.433 19.8368C75.113 19.8787 74.8 19.8996 74.494 19.8996C73.3393 19.8996 72.435 19.6555 71.7811 19.1674C71.1412 18.6653 70.8212 17.8215 70.8212 16.636V11.9916H69.1726V9.23013H70.8212V7.32636L73.9723 5.04603V9.23013Z" fill="#F2F2F2"/>
<path d="M88.6218 18.6862C88.5105 18.8117 88.3366 18.9512 88.1001 19.1046C87.8775 19.2441 87.6062 19.3766 87.2862 19.5021C86.9802 19.6276 86.6393 19.7322 86.2637 19.8159C85.8881 19.8996 85.4985 19.9414 85.0951 19.9414C84.2465 19.9414 83.4604 19.8298 82.737 19.6067C82.0136 19.3696 81.3875 19.0209 80.8589 18.5607C80.3441 18.1004 79.9337 17.5286 79.6277 16.8452C79.3355 16.1618 79.1894 15.3598 79.1894 14.4393C79.1894 13.5467 79.3285 12.7587 79.6068 12.0753C79.8989 11.3919 80.3024 10.8201 80.8171 10.3598C81.3458 9.89958 81.9788 9.55091 82.7161 9.31381C83.4535 9.07671 84.2743 8.96513 85.1786 8.97908C85.8881 8.99303 86.535 9.09066 87.1193 9.27197C87.7036 9.43933 88.1696 9.65551 88.5174 9.9205V13.5607C88.1557 13.0307 87.7106 12.5983 87.1819 12.2636C86.6671 11.9149 85.9994 11.7406 85.1786 11.7406C83.3422 11.7406 82.424 12.5565 82.424 14.1883V14.795C82.424 15.59 82.6744 16.1897 83.1752 16.5941C83.6761 16.9847 84.3577 17.1799 85.2203 17.1799C86.0968 17.1799 86.8132 17.0335 87.3697 16.7406C87.9401 16.4477 88.3575 16.0851 88.6218 15.6527V18.6862Z" fill="#F2F2F2"/>
<path d="M91.0162 9.9205C91.364 9.65551 91.851 9.43933 92.477 9.27197C93.1169 9.1046 93.9308 9.02092 94.9186 9.02092C96.6437 9.02092 97.8749 9.32775 98.6122 9.94142C99.3634 10.5411 99.7391 11.4895 99.7391 12.7866V19.6904H96.7758V17.8075C96.5254 18.4212 96.115 18.9163 95.5446 19.2929C94.9742 19.6695 94.2786 19.8577 93.4578 19.8577C92.3727 19.8577 91.5518 19.5649 90.9954 18.9791C90.4389 18.3794 90.1606 17.5914 90.1606 16.6151C90.1606 15.9874 90.265 15.4714 90.4737 15.0669C90.6963 14.6625 90.9954 14.3417 91.371 14.1046C91.7466 13.8675 92.1918 13.7001 92.7065 13.6025C93.2213 13.5049 93.7708 13.4561 94.3551 13.4561H96.6089V13.3724C96.6089 12.7866 96.4906 12.3752 96.2541 12.1381C96.0176 11.887 95.5724 11.7615 94.9186 11.7615C94.3621 11.7615 93.8752 11.8103 93.4578 11.908C93.0543 11.9916 92.6996 12.1172 92.3935 12.2845C92.1014 12.4379 91.844 12.6262 91.6214 12.8494C91.3988 13.0586 91.1971 13.2957 91.0162 13.5607V9.9205ZM94.5429 17.0962C95.1411 17.0962 95.6211 16.9847 95.9828 16.7615C96.3445 16.5384 96.5532 16.2455 96.6089 15.8828V15.2761H94.8768C94.376 15.2761 93.9865 15.3459 93.7082 15.4854C93.4439 15.6248 93.3117 15.8619 93.3117 16.1967C93.3117 16.7964 93.7221 17.0962 94.5429 17.0962Z" fill="#F2F2F2"/>
<path d="M108.832 13.4979C108.832 12.9121 108.721 12.4798 108.498 12.2008C108.289 11.9219 107.921 11.7824 107.392 11.7824C106.794 11.7964 106.335 11.9428 106.015 12.2218C105.709 12.4867 105.57 12.9749 105.597 13.6862V19.6904H102.446V9.23013H105.41V11.2594C105.493 10.9665 105.625 10.6876 105.806 10.4226C106.001 10.1576 106.23 9.9205 106.495 9.7113C106.773 9.50209 107.086 9.33473 107.434 9.2092C107.782 9.08368 108.164 9.02092 108.582 9.02092C109.416 9.02092 110.112 9.21618 110.668 9.6067C111.225 9.98326 111.607 10.5481 111.816 11.3013C111.997 10.6736 112.359 10.1367 112.901 9.69038C113.444 9.24407 114.132 9.02092 114.967 9.02092C116.038 9.02092 116.873 9.32078 117.471 9.9205C118.07 10.5202 118.369 11.4128 118.369 12.5983V19.6904H115.218V13.4979C115.218 12.9121 115.106 12.4867 114.884 12.2218C114.675 11.9428 114.327 11.7964 113.84 11.7824C113.242 11.7824 112.776 11.9358 112.442 12.2427C112.122 12.5356 111.969 13.0167 111.983 13.6862V19.6904H108.832V13.4979Z" fill="#F2F2F2"/>
<path d="M121.078 9.23013H124.02V11.3431C124.104 11.0642 124.229 10.7922 124.396 10.5272C124.577 10.2483 124.806 9.99721 125.084 9.77406C125.363 9.55091 125.696 9.37657 126.086 9.25105C126.489 9.11158 126.955 9.04184 127.484 9.04184C128.11 9.04184 128.694 9.13947 129.237 9.33473C129.794 9.52999 130.273 9.83682 130.677 10.2552C131.08 10.6736 131.393 11.2106 131.616 11.8661C131.853 12.5216 131.971 13.3096 131.971 14.2301C131.971 15.2622 131.853 16.1409 131.616 16.8661C131.393 17.5774 131.073 18.1632 130.656 18.6234C130.239 19.0697 129.738 19.3975 129.154 19.6067C128.583 19.8159 127.957 19.9205 127.275 19.9205C126.482 19.9205 125.836 19.7601 125.335 19.4393C124.834 19.1046 124.458 18.6932 124.208 18.205V24H121.078V9.23013ZM124.208 14.7113C124.208 15.5342 124.403 16.1478 124.792 16.5523C125.182 16.9568 125.738 17.159 126.462 17.159C127.296 17.159 127.895 16.9498 128.256 16.5314C128.632 16.099 128.82 15.3668 128.82 14.3347C128.82 13.4142 128.611 12.7657 128.194 12.3891C127.79 11.9986 127.248 11.8033 126.566 11.8033C125.731 11.8033 125.133 11.9986 124.771 12.3891C124.423 12.7796 124.236 13.3305 124.208 14.0418V14.7113Z" fill="#F2F2F2"/>
<path d="M137.902 16.5523H145.268V19.6904H134.563V5.04603H137.902V16.5523Z" fill="#F2F2F2"/>
<path d="M147.547 9.9205C147.894 9.65551 148.381 9.43933 149.007 9.27197C149.647 9.1046 150.461 9.02092 151.449 9.02092C153.174 9.02092 154.405 9.32775 155.143 9.94142C155.894 10.5411 156.27 11.4895 156.27 12.7866V19.6904H153.306V17.8075C153.056 18.4212 152.645 18.9163 152.075 19.2929C151.505 19.6695 150.809 19.8577 149.988 19.8577C148.903 19.8577 148.082 19.5649 147.526 18.9791C146.969 18.3794 146.691 17.5914 146.691 16.6151C146.691 15.9874 146.795 15.4714 147.004 15.0669C147.227 14.6625 147.526 14.3417 147.901 14.1046C148.277 13.8675 148.722 13.7001 149.237 13.6025C149.752 13.5049 150.301 13.4561 150.886 13.4561H153.139V13.3724C153.139 12.7866 153.021 12.3752 152.785 12.1381C152.548 11.887 152.103 11.7615 151.449 11.7615C150.892 11.7615 150.406 11.8103 149.988 11.908C149.585 11.9916 149.23 12.1172 148.924 12.2845C148.632 12.4379 148.374 12.6262 148.152 12.8494C147.929 13.0586 147.728 13.2957 147.547 13.5607V9.9205ZM151.073 17.0962C151.672 17.0962 152.152 16.9847 152.513 16.7615C152.875 16.5384 153.084 16.2455 153.139 15.8828V15.2761H151.407C150.906 15.2761 150.517 15.3459 150.239 15.4854C149.974 15.6248 149.842 15.8619 149.842 16.1967C149.842 16.7964 150.253 17.0962 151.073 17.0962Z" fill="#F2F2F2"/>
<path d="M162.107 4V10.8619C162.33 10.3877 162.698 9.96932 163.213 9.6067C163.742 9.23013 164.465 9.04184 165.383 9.04184C166.009 9.04184 166.594 9.13947 167.136 9.33473C167.693 9.52999 168.173 9.83682 168.576 10.2552C168.98 10.6736 169.293 11.2106 169.515 11.8661C169.752 12.5216 169.87 13.3096 169.87 14.2301C169.87 15.2622 169.752 16.1409 169.515 16.8661C169.293 17.5774 168.973 18.1632 168.555 18.6234C168.138 19.0697 167.637 19.3975 167.053 19.6067C166.482 19.8159 165.856 19.9205 165.175 19.9205C164.27 19.9205 163.547 19.7043 163.004 19.272C162.462 18.8257 162.093 18.3096 161.898 17.7238V19.6904H158.977V4H162.107ZM162.107 14.7113C162.107 15.5342 162.302 16.1478 162.691 16.5523C163.081 16.9568 163.637 17.159 164.361 17.159C165.182 17.159 165.78 16.9498 166.155 16.5314C166.531 16.099 166.719 15.3668 166.719 14.3347C166.719 13.4142 166.51 12.7657 166.093 12.3891C165.675 11.9986 165.126 11.8033 164.444 11.8033C163.623 11.8033 163.032 11.9986 162.67 12.3891C162.323 12.7796 162.135 13.3305 162.107 14.0418V14.7113Z" fill="#F2F2F2"/>
<path d="M179.578 13.5607C179.216 13.0307 178.778 12.5983 178.263 12.2636C177.749 11.9289 177.074 11.7545 176.239 11.7406H176.197C175.669 11.7406 175.3 11.7964 175.091 11.908C174.883 12.0056 174.778 12.159 174.778 12.3682C174.778 12.5495 174.904 12.689 175.154 12.7866C175.418 12.8703 175.738 12.9609 176.114 13.0586C176.49 13.1423 176.9 13.2469 177.345 13.3724C177.804 13.4979 178.222 13.6862 178.597 13.9372C178.973 14.1743 179.286 14.4951 179.536 14.8996C179.801 15.304 179.933 15.8201 179.933 16.4477C179.933 17.5774 179.564 18.4421 178.827 19.0418C178.103 19.6416 177.067 19.9414 175.717 19.9414C175.258 19.9414 174.813 19.8996 174.382 19.8159C173.951 19.7322 173.554 19.6276 173.192 19.5021C172.831 19.3766 172.518 19.2371 172.253 19.0837C171.989 18.9303 171.794 18.7908 171.669 18.6653V15.6318C171.975 16.0642 172.462 16.4407 173.13 16.7615C173.798 17.0823 174.66 17.2218 175.717 17.1799C176.121 17.152 176.399 17.0823 176.552 16.9707C176.719 16.8591 176.803 16.7197 176.803 16.5523C176.803 16.357 176.67 16.2036 176.406 16.0921C176.156 15.9805 175.836 15.8759 175.446 15.7782C175.07 15.6667 174.66 15.5411 174.215 15.4017C173.77 15.2622 173.352 15.0739 172.963 14.8368C172.587 14.5858 172.267 14.265 172.003 13.8745C171.752 13.47 171.627 12.954 171.627 12.3264C171.627 11.3082 172.017 10.4993 172.796 9.89958C173.575 9.28591 174.723 8.97908 176.239 8.97908C176.949 9.00697 177.596 9.1046 178.18 9.27197C178.764 9.43933 179.23 9.65551 179.578 9.9205V13.5607Z" fill="#F2F2F2"/>
<path d="M12.3551 7.5958L13.1418 10.018C13.1673 10.0981 13.2177 10.168 13.2856 10.2176C13.3535 10.2671 13.4355 10.2938 13.5196 10.2936H16.0662C16.15 10.2929 16.2318 10.3189 16.2999 10.3678C16.3679 10.4166 16.4188 10.4858 16.445 10.5654C16.4712 10.645 16.4714 10.7309 16.4457 10.8106C16.42 10.8904 16.3696 10.9599 16.3018 11.0091L14.2218 12.4847C14.1546 12.5346 14.1047 12.6043 14.0791 12.684C14.0536 12.7638 14.0538 12.8495 14.0796 12.9291L14.8663 15.3514C14.8909 15.4312 14.8899 15.5167 14.8635 15.5959C14.837 15.6752 14.7864 15.7442 14.7187 15.7933C14.6511 15.8423 14.5698 15.8688 14.4862 15.8693C14.4027 15.8697 14.3211 15.8441 14.2529 15.7958L12.1951 14.298C12.1274 14.2485 12.0457 14.2219 11.9618 14.2219C11.8779 14.2219 11.7962 14.2485 11.7285 14.298L9.66625 15.7958C9.59853 15.8454 9.51678 15.8721 9.43285 15.8722C9.34891 15.8722 9.26712 15.8456 9.19933 15.7961C9.13153 15.7466 9.08123 15.6768 9.05571 15.597C9.03019 15.517 9.03076 15.4309 9.05736 15.3514L9.86179 12.9291C9.88758 12.8495 9.88772 12.7638 9.86222 12.684C9.8367 12.6043 9.78681 12.5346 9.71958 12.4847L7.65735 10.9869C7.58592 10.9393 7.53192 10.8696 7.50355 10.7886C7.47515 10.7075 7.47392 10.6194 7.50002 10.5376C7.52612 10.4558 7.57814 10.3847 7.64822 10.3351C7.71829 10.2854 7.80263 10.2599 7.88847 10.2625H10.4351C10.5192 10.2626 10.6012 10.236 10.6691 10.1865C10.737 10.1369 10.7874 10.067 10.8129 9.9869L11.5996 7.5958C11.6246 7.51516 11.6748 7.44464 11.7427 7.39457C11.8107 7.3445 11.8929 7.31749 11.9773 7.31749C12.0618 7.31749 12.144 7.3445 12.212 7.39457C12.2799 7.44464 12.3301 7.51516 12.3551 7.5958Z" fill="url(#paint0_linear_2722_67)"/>
<path d="M12 24C9.62659 24 7.30652 23.2962 5.33314 21.9776C3.35976 20.6591 1.8217 18.7849 0.913449 16.5921C0.00519977 14.3995 -0.23244 11.9867 0.230581 9.65892C0.693603 7.33114 1.83649 5.19295 3.51471 3.51473C5.19293 1.83649 7.33113 0.693604 9.65889 0.230582C11.9867 -0.23244 14.3995 0.00519915 16.5921 0.91345C18.7848 1.8217 20.659 3.35978 21.9776 5.33316C23.2962 7.30655 24 9.62662 24 12C24 15.1827 22.7357 18.2348 20.4853 20.4853C18.2348 22.7357 15.1826 24 12 24ZM12 5.6C10.7307 5.59561 9.48857 5.96772 8.43074 6.66926C7.37292 7.3708 6.54688 8.37027 6.05709 9.54126C5.56729 10.7123 5.43573 12.0022 5.67905 13.248C5.92236 14.4938 6.52963 15.6394 7.42406 16.54C8.31848 17.4407 9.4599 18.0559 10.7039 18.3079C11.948 18.5597 13.2388 18.4372 14.4132 17.9554C15.5876 17.4738 16.5927 16.6547 17.3016 15.6018C18.0104 14.5488 18.3911 13.3093 18.3956 12.04C18.3991 10.3386 17.7278 8.70525 16.5289 7.49801C15.3301 6.2908 13.7013 5.60824 12 5.6Z" fill="url(#paint1_radial_2722_67)"/>
<defs>
<linearGradient id="paint0_linear_2722_67" x1="4.89919" y1="4.20964" x2="20.5638" y2="22.6369" gradientUnits="userSpaceOnUse">
<stop offset="0.03" stop-color="#F8E911"/>
<stop offset="0.53" stop-color="#E52A15"/>
<stop offset="0.77" stop-color="#AE5D8B"/>
<stop offset="1" stop-color="#008AC1"/>
</linearGradient>
<radialGradient id="paint1_radial_2722_67" cx="0" cy="0" r="1" gradientUnits="userSpaceOnUse" gradientTransform="translate(3.27111 0.00445016) scale(27.1199 27.12)">
<stop offset="0.03" stop-color="#F8E911"/>
<stop offset="0.75" stop-color="#E52A15"/>
<stop offset="0.87" stop-color="#AE5D8B"/>
<stop offset="1" stop-color="#008AC1"/>
</radialGradient>
</defs>
</svg>
