<svg width="24" height="24" viewBox="0 0 24 24" fill="none" xmlns="http://www.w3.org/2000/svg">
<g clip-path="url(#clip0_1535_1726)">
<path d="M7.62549 7.63383C7.87688 7.62864 8.12254 7.59139 8.37582 7.60248C9.69096 7.66009 11.0053 8.0211 12.1601 8.65533C12.6937 8.94838 13.1333 9.34456 13.6282 9.68909C13.5675 9.52891 13.4635 9.39026 13.3957 9.23237C13.2356 8.85981 13.155 8.46301 13.1727 8.05793C13.2379 6.57139 14.6415 5.39464 16.1075 5.55162C16.5449 5.59844 16.9941 5.78243 17.3472 6.04048C17.5262 6.17127 17.6674 6.33993 17.8366 6.48142C18.1022 6.70365 18.42 6.88934 18.75 6.99703C19.9536 7.38971 21.3759 6.90451 22.0302 5.80693C22.4068 5.17512 22.4966 4.43389 22.3656 3.71905C22.211 2.87472 21.5783 2.27413 20.9358 1.76178C19.4507 0.577737 17.6334 0 15.7487 0C12.5896 0 9.67256 1.88937 8.35328 4.76299C8.09164 5.33282 7.89222 5.94062 7.77591 6.55726C7.70861 6.91423 7.69152 7.27817 7.62549 7.63383Z" fill="#1E8E3E"/>
<path d="M22.0118 2.83789C22.1725 3.27948 22.4132 3.65585 22.4346 4.14282C22.5002 5.63957 21.3342 7.07294 19.7934 7.14288C19.3456 7.16321 18.892 7.07013 18.4885 6.87475C18.2752 6.7715 18.0875 6.60851 17.8686 6.52431C18.2342 7.11665 18.5023 7.66701 18.4529 8.38384C18.3615 9.71219 17.0466 10.9569 15.6829 10.825C15.2131 10.7796 14.7273 10.6331 14.3453 10.349C14.0044 10.0954 13.7295 9.75078 13.3992 9.48043C12.7401 8.94091 11.9845 8.47502 11.1809 8.18356C10.4303 7.91135 9.63132 7.69245 8.83199 7.63641C5.55806 7.40697 2.34141 9.14781 0.863872 12.1029C0.53629 12.7581 0.257932 13.4641 0.135791 14.1908C-0.249639 16.4839 0.17154 18.8258 1.57757 20.7154C1.79249 21.0043 2.03233 21.2626 2.27052 21.531C2.35162 21.6224 2.40962 21.7349 2.50485 21.8132C3.82465 22.8987 5.92415 22.6873 6.91632 21.27C7.0934 21.017 7.22552 20.7251 7.28937 20.4218C7.41608 19.8196 7.30141 19.2051 7.02891 18.6601C6.91534 18.433 6.67866 18.2139 6.61361 17.9751C6.35256 17.7912 6.13689 17.5223 5.96128 17.2573C5.69113 16.8498 5.51026 16.3151 5.51026 15.8219C5.51026 13.902 7.7503 12.5549 9.41921 13.5208C9.74502 13.7094 10.0193 13.9815 10.2348 14.2886C10.5075 14.3508 10.7904 14.6865 11.0177 14.8553C11.4611 15.1845 11.9517 15.4518 12.4532 15.6814C14.3728 16.5604 16.6746 16.6103 18.6516 15.8854C19.3817 15.6178 20.0838 15.248 20.7068 14.7814C23.4626 12.7178 24.6205 9.13215 23.6756 5.83923C23.4488 5.04896 23.0988 4.30512 22.6425 3.62085C22.4632 3.352 22.2744 3.03118 22.0118 2.83789Z" fill="#5BB974"/>
<path d="M10.268 14.2563C10.3301 14.4201 10.4434 14.555 10.5186 14.7131C10.7063 15.108 10.808 15.5478 10.7887 15.9854C10.7253 17.4197 9.37016 18.5939 7.95177 18.4945C7.4282 18.4578 7.05121 18.1857 6.58159 18.008C6.90851 18.5027 7.26505 18.9934 7.32635 19.6066C7.48085 21.1515 6.14327 22.4052 4.65682 22.5071C4.13808 22.5426 3.62039 22.4221 3.15616 22.19C2.9628 22.0934 2.79733 21.9447 2.60156 21.8576C2.77756 22.1639 3.19759 22.4022 3.48239 22.6032C4.43401 23.2749 5.56476 23.7254 6.71209 23.9154C9.39985 24.3606 12.2341 23.5176 14.1146 21.4987C14.7427 20.8245 15.2573 20.0526 15.6408 19.2151C16.0494 18.3226 16.259 17.351 16.3359 16.3769C15.9595 16.3769 15.5689 16.407 15.1941 16.3713C14.0065 16.2583 12.8849 15.9252 11.8339 15.3555C11.4652 15.1556 11.1217 14.9149 10.79 14.6592C10.6187 14.5272 10.4637 14.3476 10.268 14.2563Z" fill="#34A853"/>
</g>
<defs>
<clipPath id="clip0_1535_1726">
<rect width="24" height="24" fill="white"/>
</clipPath>
</defs>
</svg>
