<svg width="24" height="24" viewBox="0 0 24 24" fill="none" xmlns="http://www.w3.org/2000/svg">
<g clip-path="url(#clip0_3091_23)">
<path d="M0 11.5566L0.00690176 11.5387C0.0467238 11.4335 0.0532437 11.3224 0.0795773 11.2137C0.140368 10.9626 0.209002 10.7136 0.299909 10.4716C0.582115 9.72052 0.967209 9.01194 1.19252 8.23927C1.44641 7.36859 1.5409 6.44461 1.90237 5.60731C2.09085 5.17069 2.35284 4.78395 2.69979 4.45751C3.45729 3.7448 4.4423 3.35865 5.2732 2.7485C6.15361 2.10201 6.88577 1.1915 7.8881 0.726258C8.26845 0.55385 8.67708 0.452365 9.09389 0.426802C10.0515 0.360509 10.9997 0.574475 11.9552 0.575443C12.904 0.576401 13.8441 0.376726 14.7938 0.420772C15.1594 0.437729 15.5131 0.497529 15.8572 0.623998C17.0216 1.05198 17.7762 2.10067 18.7674 2.78958C19.5823 3.356 20.5082 3.75598 21.2564 4.41765C21.5892 4.71493 21.8576 5.07725 22.045 5.48222C22.4713 6.40592 22.5564 7.43865 22.8565 8.40294C23.0629 9.06647 23.395 9.67791 23.6435 10.325C23.8106 10.76 23.8702 11.1289 24 11.5543V12.4767C23.8861 12.781 23.8552 13.1166 23.738 13.425C23.4367 14.2184 23.042 14.9714 22.8002 15.7872C22.5611 16.5938 22.4727 17.4393 22.1639 18.227C21.9778 18.7017 21.7225 19.1449 21.3515 19.4995C20.5956 20.2221 19.5848 20.6182 18.7455 21.2286C18.0394 21.7422 17.4528 22.4012 16.7345 22.8999C16.508 23.0571 16.2704 23.1989 16.0169 23.3084C14.7482 23.8561 13.2937 23.4182 11.9655 23.421C10.6985 23.4237 9.31144 23.8355 8.08847 23.3484C6.99949 22.9147 6.21628 21.9423 5.29514 21.2508C4.46498 20.6277 3.48197 20.2479 2.70949 19.5389C1.60019 18.5207 1.5772 16.9758 1.16301 15.6283C0.929503 14.8686 0.544031 14.1617 0.266442 13.4172C0.190363 13.2132 0.134056 12.9956 0.0839288 12.7837C0.0593538 12.6798 0.0505716 12.569 0.00679083 12.471C0.00458145 12.466 0.00226361 12.4611 0 12.4562V11.5566Z" fill="#326CE6"/>
<path d="M11.5282 1.80426C17.1605 1.54364 21.9367 5.90046 22.1934 11.533C22.45 17.1656 18.0898 21.9387 12.4571 22.1914C6.82997 22.4438 2.06263 18.0889 1.80624 12.462C1.54985 6.83501 5.90138 2.06462 11.5282 1.80426Z" fill="#FEFEFE"/>
<path d="M11.5246 2.71833C16.6439 2.45616 21.0085 6.38928 21.2787 11.5082C21.5489 16.627 17.6226 20.9978 12.5042 21.276C7.37436 21.5548 2.99183 17.6179 2.72106 12.4877C2.45026 7.35746 6.394 2.98112 11.5246 2.71833Z" fill="#326CE6"/>
<path d="M11.9659 7.64512C12.1001 7.6473 12.2275 7.65761 12.3562 7.69815C12.6501 7.78858 12.8944 7.99462 13.0332 8.2689C13.1769 8.54605 13.2017 8.86973 13.102 9.16555C12.9886 9.50762 12.7494 9.71481 12.4382 9.87376L12.4421 10.3217C12.8243 10.3207 13.1558 10.3174 13.5304 10.2343C13.6132 10.2159 13.7047 10.1934 13.7844 10.2363C13.9118 10.3049 13.9816 10.4922 14.0235 10.6228C14.0027 10.6892 13.9789 10.7572 13.9475 10.8194C13.8725 10.9677 13.7364 11.0099 13.5892 11.0571C13.1436 10.881 12.8944 10.955 12.4408 10.9235L12.4441 14.6011C12.7122 14.5983 12.9794 14.5705 13.2423 14.518C13.865 14.3978 14.285 14.142 14.6415 13.6141C14.5566 13.579 14.472 13.5569 14.4237 13.4763C14.4687 13.2766 15.198 12.6585 15.3862 12.526C15.4979 12.7682 15.5545 13.0419 15.6195 13.2996C15.6626 13.4707 15.75 13.6867 15.6542 13.847C15.5683 13.8812 15.4971 13.8524 15.4064 13.8447C15.2609 13.9705 15.147 14.2526 15.0284 14.4139C14.4715 15.1706 13.4931 15.7404 12.5672 15.878C12.4235 16.0114 12.2289 16.2604 12.0499 16.3399C11.9926 16.3653 11.9681 16.352 11.9149 16.3288C11.5198 15.9998 11.5894 15.9116 11.0568 15.7633C9.94569 15.4539 9.16705 14.6503 8.61646 13.674C8.55348 13.6786 8.4884 13.6853 8.42525 13.6839C8.36732 13.6827 8.33753 13.6743 8.29792 13.6334C8.29918 13.3962 8.55282 12.5911 8.69509 12.4073L8.74131 12.4063C8.84359 12.4596 9.469 13.1095 9.53865 13.2111C9.58037 13.272 9.58379 13.3131 9.57264 13.3837C9.52604 13.4461 9.44113 13.462 9.37037 13.4854C9.45292 13.6039 9.53502 13.7237 9.62861 13.8338C10.128 14.4212 10.92 14.521 11.6484 14.5811L11.6514 10.9156C11.2057 10.9087 10.8223 10.8896 10.4009 11.0624C10.3491 11.0414 10.2966 11.0218 10.2457 10.9988C10.0799 10.9238 10.0297 10.7857 9.96972 10.6271C10.005 10.5093 10.0541 10.3887 10.1432 10.3011C10.1998 10.2455 10.2734 10.2206 10.352 10.2191C10.5138 10.216 10.6882 10.2908 10.8522 10.3083C11.1121 10.3361 11.3862 10.3197 11.6477 10.3192L11.6587 9.91595C11.5216 9.85567 11.3819 9.7888 11.2653 9.69367C11.0203 9.49293 10.8663 9.20207 10.838 8.88658C10.8112 8.58805 10.9157 8.27945 11.1095 8.05204C11.3339 7.78869 11.6294 7.67202 11.9659 7.64512Z" fill="#FEFEFE"/>
<path d="M11.9167 8.23312C12.2263 8.18833 12.515 8.39927 12.5663 8.70785C12.6177 9.01643 12.4129 9.30947 12.1055 9.36738C11.9382 9.3989 11.7655 9.35466 11.634 9.24658C11.5025 9.13851 11.4256 8.97773 11.424 8.80751C11.4214 8.51974 11.6319 8.27433 11.9167 8.23312Z" fill="#326CE6"/>
<path d="M7.52695 11.8875C7.63624 11.8681 7.76444 11.8744 7.87582 11.8724C8.79773 11.8564 9.3044 12.356 10.1302 12.494C10.4373 12.5454 10.7699 12.545 11.0778 12.4997C11.1807 12.4845 11.2951 12.4395 11.3974 12.4378C11.4527 12.4368 11.4687 12.4537 11.5068 12.4879C11.506 12.5076 11.5099 12.5344 11.4975 12.55C11.4016 12.6707 11.1293 12.6777 10.9849 12.6863C10.3748 12.7225 9.87595 12.6934 9.3176 12.4358C9.05657 12.3153 8.80635 12.1942 8.52314 12.1342C8.08394 12.041 7.64257 12.0515 7.20107 12.1205C6.93377 12.1808 6.68864 12.2982 6.43905 12.4075C5.85949 12.6613 5.32563 12.7403 4.69249 12.6938C4.36221 12.6696 3.71142 12.5152 3.49068 12.2591C3.47526 12.2036 3.46807 12.2002 3.49556 12.1507C3.59062 12.1279 4.16934 12.3983 4.32918 12.4388C4.62119 12.5115 4.92199 12.5425 5.22267 12.531C6.05737 12.4919 6.70389 11.9571 7.52695 11.8875Z" fill="#FEFEFE"/>
<path d="M6.42828 15.5966C6.52282 15.6046 6.62257 15.7437 6.68246 15.8117C6.63268 16.0417 6.5438 16.2622 6.46116 16.4819C6.66481 16.4313 6.87272 16.3997 7.08221 16.3875C7.18972 16.4601 7.26629 16.5294 7.3519 16.6256C7.06468 16.9283 6.60078 17.2936 6.25057 17.5181C6.17832 17.4412 6.0376 17.3139 6.03767 17.208C6.18854 17.0779 6.34922 16.9573 6.50553 16.8337C6.39326 16.8463 6.25313 16.8767 6.14588 16.8321C6.09811 16.8122 6.06017 16.7838 6.04236 16.7335C5.99698 16.6053 6.09532 16.4478 6.1509 16.3358C5.97596 16.4745 5.80845 16.6182 5.62554 16.747C5.5373 16.6527 5.46104 16.5591 5.3993 16.445C5.72136 16.1431 6.08489 15.8743 6.42828 15.5966Z" fill="#FEFEFE"/>
<path d="M12.9572 4.20559C13.1525 4.22069 13.3754 4.27176 13.5654 4.32266C13.7299 4.36675 13.916 4.43889 14.0031 4.59622C14.0706 4.71817 14.0589 4.87166 14.0171 5.00029C13.9696 5.14665 13.8553 5.21451 13.725 5.281C13.7916 5.46876 13.8405 5.65595 13.8759 5.85191C13.7476 5.84516 13.6303 5.83403 13.5072 5.79482C13.4187 5.64583 13.3852 5.33511 13.25 5.24059C13.2319 5.22794 13.2113 5.2375 13.1902 5.24104C13.1175 5.33301 13.1111 5.46346 13.0734 5.57197C13.061 5.60774 13.0439 5.65213 13.0081 5.66807C12.9068 5.71323 12.7672 5.6499 12.6683 5.61672C12.7389 5.15136 12.8296 4.65847 12.9572 4.20559Z" fill="#FEFEFE"/>
<path d="M13.2697 4.62887C13.3191 4.62725 13.3686 4.63072 13.4173 4.6392C13.5044 4.65408 13.5662 4.68045 13.6183 4.75388C13.6344 4.82808 13.6221 4.853 13.5982 4.9227C13.521 4.92992 13.4311 4.9343 13.3551 4.91846C13.2931 4.90552 13.2758 4.87576 13.2424 4.82736C13.2331 4.7517 13.2474 4.70023 13.2697 4.62887Z" fill="#326CE6"/>
<path d="M17.4858 15.7219C17.6184 15.7143 17.7455 15.7274 17.8569 15.807C18.0071 15.9144 18.0463 16.0831 18.0723 16.2542C18.1951 16.2736 18.4983 16.2881 18.5763 16.3831C18.5736 16.4086 18.57 16.4345 18.5614 16.4588C18.4224 16.8545 18.0397 16.5328 17.8026 16.6478C17.762 16.8072 18.0484 16.8861 18.0934 17.0455C18.0367 17.1469 17.9618 17.2296 17.8855 17.3163C17.5373 17.0884 17.0905 16.7318 16.7862 16.4468C16.9938 16.1929 17.1791 15.8624 17.4858 15.7219Z" fill="#FEFEFE"/>
<path d="M17.5311 16.1145C17.5419 16.115 17.5463 16.1149 17.558 16.1175C17.6202 16.1312 17.6304 16.1408 17.6658 16.1904C17.6727 16.3188 17.5686 16.4222 17.49 16.5127C17.4558 16.4886 17.4186 16.4642 17.3882 16.4355C17.3409 16.3908 17.3374 16.3648 17.3348 16.3036C17.3688 16.2226 17.4626 16.1668 17.5311 16.1145Z" fill="#326CE6"/>
<path d="M9.64984 18.1493C10.2794 18.1769 9.94574 18.6843 10.2479 18.9358L10.2758 18.9277C10.2862 18.8097 10.3027 18.6768 10.3379 18.5636C10.3593 18.4949 10.4004 18.418 10.4699 18.3884C10.5678 18.3468 10.6996 18.4222 10.7909 18.4601C10.6752 18.9053 10.5402 19.3454 10.4338 19.7931C10.3597 19.7865 10.2719 19.7773 10.2052 19.7424C9.99435 19.6321 9.9126 19.1303 9.84965 18.9184L9.6681 19.5857C9.53901 19.554 9.41181 19.5119 9.28462 19.4732C9.41181 19.0335 9.53357 18.5921 9.64984 18.1493Z" fill="#FEFEFE"/>
<path d="M11.1326 4.19884L11.1782 4.22561C11.2098 4.29629 11.2367 4.35885 11.2467 4.43612C11.1539 4.68913 10.7581 4.53205 10.5979 4.6828C10.5835 4.74039 10.5834 4.74383 10.6077 4.7979C10.7024 4.84108 11.0898 4.75227 11.2284 4.74557L11.3039 5.05979C11.1144 5.11262 10.9271 5.15118 10.733 5.18303C10.6893 5.22348 10.6874 5.23021 10.6747 5.28876C10.6798 5.30008 10.6917 5.33741 10.6995 5.34416C10.7822 5.41574 11.2707 5.22238 11.4036 5.32234L11.4411 5.61116C11.0863 5.68478 10.7259 5.72708 10.3719 5.8034C10.2806 5.33448 10.1764 4.85868 10.1358 4.38215C10.4591 4.29967 10.8024 4.2489 11.1326 4.19884Z" fill="#FEFEFE"/>
<path d="M18.7362 13.4104C19.2854 13.3545 19.8401 13.5048 20.3332 13.7333L20.2757 13.9906C20.2545 13.9789 20.233 13.9676 20.2114 13.9567C19.5371 13.6183 18.6899 13.5586 17.9781 13.8163C17.6774 13.9252 17.3961 14.0821 17.0917 14.1824C16.8109 14.2767 16.4937 14.3066 16.1989 14.3083C16.0184 14.3094 15.5141 14.3249 15.3815 14.1937C15.3783 14.1531 15.3735 14.1401 15.4018 14.1068C15.517 13.9713 16.0052 14.0512 16.1718 14.0532C16.9403 14.0625 17.2356 13.8039 17.9174 13.569C18.1859 13.4766 18.4542 13.4347 18.7362 13.4104Z" fill="#FEFEFE"/>
<path d="M14.6709 18.552C14.6991 18.5438 14.7377 18.5291 14.7671 18.5294C14.7932 18.5296 14.8222 18.5373 14.8424 18.554C14.9323 18.6286 14.9679 18.7389 14.9761 18.8529C14.9898 19.0422 14.9449 19.2163 14.8157 19.3588C14.7007 19.4856 14.5394 19.5827 14.3651 19.589C14.2055 19.5947 14.023 19.5247 13.9085 19.4133C13.7466 19.256 13.6344 18.9156 13.6339 18.689C13.6337 18.5563 13.6771 18.4242 13.7746 18.3312C13.9164 18.1959 14.1512 18.1299 14.3438 18.1379C14.4663 18.143 14.6753 18.1897 14.755 18.2934C14.7919 18.3414 14.7893 18.3608 14.7812 18.4166C14.7407 18.4765 14.6619 18.4858 14.596 18.5028C14.4442 18.5056 14.2167 18.4223 14.1058 18.5432C14.0468 18.6076 14.036 18.7074 14.044 18.7904C14.0567 18.9216 14.1187 19.083 14.226 19.1659C14.2708 19.2005 14.3281 19.2211 14.3851 19.2142C14.4562 19.2056 14.5295 19.1538 14.5715 19.097C14.5911 19.0704 14.5986 19.0467 14.6029 19.0144L14.578 18.9871C14.5179 18.9859 14.4148 18.9969 14.3721 18.9511C14.3164 18.8914 14.2927 18.7812 14.2677 18.7037C14.4032 18.6563 14.54 18.6114 14.6709 18.552Z" fill="#FEFEFE"/>
<path d="M16.1815 17.0321C16.2762 17.0531 16.352 17.2071 16.4025 17.2857C16.2814 17.3763 15.9617 17.5576 15.9142 17.6975C15.9029 17.7305 15.9154 17.7409 15.9301 17.7703C16.0565 17.802 16.3524 17.5458 16.4759 17.4723C16.5511 17.5511 16.6115 17.6396 16.6738 17.7285C16.5688 17.819 16.2868 17.9841 16.2239 18.0731C16.1957 18.1131 16.2066 18.1286 16.2176 18.1725C16.3908 18.306 16.6533 17.8983 16.8388 17.8954L16.9333 17.987C16.9675 18.0436 16.9828 18.0626 16.9821 18.1308C16.8418 18.3672 16.3929 18.6016 16.1581 18.7479C15.8855 18.3761 15.6194 17.9995 15.3598 17.6185C15.6186 17.4087 15.9013 17.2123 16.1815 17.0321Z" fill="#FEFEFE"/>
<path d="M8.21375 17.3764C8.37563 17.4146 8.50599 17.5173 8.62993 17.6226C8.57931 17.8574 8.38733 18.7847 8.30361 18.9513C8.27673 19.0047 8.26473 19.0151 8.20942 19.0337C7.98988 18.9501 8.03956 18.7045 7.93063 18.5826C7.81752 18.5 7.69374 18.4276 7.57564 18.352L7.40253 18.4907C7.29374 18.4207 7.19042 18.3415 7.08603 18.2652C7.43042 17.9428 7.83962 17.6644 8.21375 17.3764Z" fill="#FEFEFE"/>
<path d="M12.1179 18.5145C12.188 18.5101 12.2841 18.4991 12.3488 18.5313C12.526 18.6195 12.8618 19.6653 12.9337 19.89C12.8528 19.8997 12.7462 19.9236 12.6661 19.9126C12.5364 19.8948 12.5366 19.8257 12.4714 19.7432C12.4383 19.7012 12.3964 19.7094 12.3465 19.705C12.2289 19.7113 12.1109 19.7231 11.9935 19.7324C11.9691 19.769 11.9431 19.8048 11.9139 19.8378C11.8545 19.9049 11.7767 19.9562 11.6848 19.9594C11.6224 19.9616 11.5956 19.9489 11.5517 19.9074C11.532 19.7731 11.857 18.7287 11.9382 18.5901C11.9749 18.5275 12.0539 18.5278 12.1179 18.5145Z" fill="#FEFEFE"/>
<path d="M8.24596 5.15603C8.4134 5.14131 8.545 5.1816 8.67325 5.29227C8.72305 5.33526 8.74975 5.36847 8.75521 5.43348C8.64779 5.58667 8.29433 5.53206 8.12291 5.59387C8.07777 5.61013 8.01838 5.644 7.99947 5.68984C7.97373 5.75226 8.00012 5.83963 8.02504 5.89933C8.07606 6.02153 8.22885 6.23709 8.35661 6.27923C8.58313 6.35394 8.65344 5.87617 8.8265 5.78934C8.87601 5.76449 8.9185 5.76098 8.97137 5.77717C9.03067 5.82773 9.04279 5.90418 9.06276 5.97618C9.05411 6.06913 9.03205 6.15524 8.98998 6.2391C8.89461 6.42477 8.72997 6.56547 8.53169 6.63072C8.38012 6.68022 8.22088 6.67119 8.07939 6.59587C7.86784 6.48323 7.70601 6.24362 7.6375 6.01837C7.58683 5.8518 7.59409 5.67484 7.68041 5.52137C7.80379 5.30202 8.01716 5.21997 8.24596 5.15603Z" fill="#FEFEFE"/>
<path d="M7.65609 13.411C7.80806 13.3953 7.96825 13.4072 8.12114 13.4103C8.12599 13.4775 8.13625 13.5499 8.12036 13.616C8.11467 13.6398 8.11279 13.6524 8.08858 13.6633C7.97946 13.7123 7.45345 13.6658 7.25493 13.7094C6.89768 13.7879 6.57651 13.9525 6.24203 14.0934C5.54627 14.3867 4.75753 14.3665 4.04153 14.1573L3.7282 14.0202L3.65278 13.7105C4.41082 14.061 5.24193 14.2072 6.04537 13.8984C6.65132 13.6655 6.98228 13.4705 7.65609 13.411Z" fill="#FEFEFE"/>
<path d="M7.73547 10.5984C8.87593 10.5561 9.27592 11.1212 10.2313 11.2394C10.6382 11.2897 11.0755 11.2178 11.4795 11.1645L11.5036 11.2002L11.4743 11.2457C11.3041 11.3475 11.0876 11.3501 10.8944 11.3636C10.2838 11.4066 9.80237 11.3121 9.24557 11.0649C8.98637 10.9499 8.73184 10.8365 8.45265 10.7788C8.01451 10.6882 7.5939 10.7264 7.1567 10.793C6.64492 10.9333 6.19222 11.2308 5.66771 11.3284C5.04226 11.4448 4.1436 11.3876 3.60915 11.0017C3.56975 10.9733 3.56497 10.9659 3.55754 10.9184C3.69939 10.8715 4.14191 11.1278 4.3126 11.168C4.61696 11.2396 4.93457 11.258 5.24636 11.2461C5.93108 11.22 6.27374 10.9501 6.88496 10.7467C7.16394 10.6539 7.44353 10.6203 7.73547 10.5984Z" fill="#FEFEFE"/>
<path d="M18.603 11.8876C18.7347 11.8666 18.8849 11.8728 19.0191 11.8732C19.3658 11.8741 20.2332 12.0354 20.4705 12.288C20.5155 12.336 20.506 12.3623 20.5041 12.4245L20.463 12.4436C20.2687 12.4239 20.0633 12.2848 19.8797 12.2165C19.153 11.9463 18.3339 12.0339 17.6415 12.353C17.0572 12.6233 16.551 12.7349 15.9027 12.6942C15.8461 12.6906 15.6871 12.6957 15.6508 12.6487C15.6179 12.6061 15.6108 12.5909 15.6162 12.5379C15.656 12.5192 16.5924 12.5133 16.8048 12.47C17.443 12.3399 17.8533 11.9506 18.603 11.8876Z" fill="#FEFEFE"/>
<path d="M15.6222 5.09822C15.8357 5.0913 16.4638 5.56287 16.6755 5.70063C16.6215 5.8005 16.5576 5.89291 16.4936 5.98652C16.3728 5.93416 16.261 5.87112 16.1471 5.80535C16.0097 5.98631 15.8931 6.18551 15.7714 6.37737L15.563 6.71126C15.4449 6.64033 15.3327 6.56576 15.2217 6.48422C15.4076 6.17238 15.6023 5.85897 15.8099 5.56115C15.733 5.52276 15.6461 5.48477 15.5764 5.43466C15.53 5.40136 15.5103 5.36215 15.5002 5.30721C15.5062 5.22028 15.5687 5.16176 15.6222 5.09822Z" fill="#FEFEFE"/>
<path d="M18.8132 10.5987C19.2607 10.5793 20.0215 10.6988 20.3912 10.9625C20.4391 10.9967 20.4466 11.0187 20.4571 11.0729C20.3186 11.1285 20.019 10.9053 19.8694 10.862C19.6108 10.787 19.2935 10.7239 19.0235 10.7179C18.0722 10.6965 17.8125 11.0325 16.9928 11.2711C16.5763 11.3922 16.1494 11.3998 15.7209 11.3515C15.57 11.3422 15.4145 11.3029 15.2705 11.2577C15.0836 11.1991 14.2137 10.8694 14.1406 10.7301C14.3314 10.6642 15.0109 11.0414 15.2358 11.1157C15.4387 11.1821 15.6489 11.2238 15.8618 11.24C16.3492 11.2808 16.8284 11.2273 17.2798 11.0338C17.5087 10.9357 17.7362 10.8203 17.9733 10.7438C18.2487 10.655 18.5259 10.6217 18.8132 10.5987Z" fill="#FEFEFE"/>
<path d="M13.0679 11.8877C13.4282 11.8091 14.0179 11.911 14.3669 12.0271C14.5382 12.0841 15.0882 12.2521 15.1704 12.4163C15.143 12.4596 15.1215 12.4735 15.0733 12.4912C14.9865 12.5232 14.8325 12.4307 14.7533 12.394C14.289 12.1691 13.7882 12.027 13.2667 12.0626C13.064 12.0765 12.7849 12.1581 12.5936 12.0951L12.573 12.0533L12.597 12.0051C12.725 11.909 12.9134 11.9014 13.0679 11.8877Z" fill="#FEFEFE"/>
<path d="M13.2004 13.4105C13.4455 13.3866 13.7325 13.4052 13.9739 13.4558C14.1137 13.4851 14.2711 13.5358 14.3527 13.6614C14.3457 13.6879 14.3498 13.697 14.3253 13.7127C14.2018 13.7922 13.9425 13.7114 13.8056 13.6874C13.3801 13.653 13.0182 13.7263 12.6175 13.7125C12.5826 13.6441 12.6071 13.5853 12.6186 13.5105C12.7041 13.4247 13.0767 13.4228 13.2004 13.4105Z" fill="#FEFEFE"/>
<path d="M11.4652 13.9465L11.4887 13.9764C11.4918 14.0311 11.4974 14.0856 11.4837 14.1392C11.4734 14.1798 11.4441 14.2107 11.4069 14.2304C11.1446 14.3688 10.6646 14.2207 10.4048 14.1421C10.3416 14.1168 10.2845 14.1089 10.2481 14.0498C10.3608 14.0123 10.587 14.0607 10.7166 14.0559C10.976 14.0465 11.2146 14.0141 11.4652 13.9465Z" fill="#FEFEFE"/>
</g>
<defs>
<clipPath id="clip0_3091_23">
<rect width="24" height="24" fill="white"/>
</clipPath>
</defs>
</svg>
