<svg width="24" height="24" viewBox="0 0 24 24" fill="none" xmlns="http://www.w3.org/2000/svg">
<g clip-path="url(#clip0_3087_140)">
<path d="M8.26123 11.9983L10.1299 8.6543H13.8673L15.7361 11.9983L13.8673 15.3423H10.1299L8.26123 11.9983Z" fill="#E83030"/>
<path d="M8.26147 20.6565L10.1302 17.3125H13.8676L15.7363 20.6565L13.8676 24.0005H10.1302L8.26147 20.6565Z" fill="#6B91C7"/>
<path d="M8.26123 3.34399L10.1299 0H13.8673L15.7361 3.34399L13.8673 6.68798H10.1299L8.26123 3.34399Z" fill="#F9C31F"/>
<path d="M15.7383 16.3274L17.607 12.9834H21.3444L23.2131 16.3274L21.3444 19.6714H17.607L15.7383 16.3274Z" fill="#795AA5"/>
<path d="M15.7383 7.67016L17.607 4.32617H21.3444L23.2131 7.67016L21.3444 11.0142H17.607L15.7383 7.67016Z" fill="#F17423"/>
<path d="M0.786865 16.3274L2.65556 12.9834H6.39297L8.26169 16.3274L6.39297 19.6714H2.65556L0.786865 16.3274Z" fill="#97C639"/>
<path d="M0.786865 7.67016L2.65556 4.32617H6.39297L8.26169 7.67016L6.39297 11.0142H2.65556L0.786865 7.67016Z" fill="#C9DB70"/>
</g>
<defs>
<clipPath id="clip0_3087_140">
<rect width="24" height="24" fill="white"/>
</clipPath>
</defs>
</svg>
