<svg width="73" height="24" viewBox="0 0 73 24" fill="none" xmlns="http://www.w3.org/2000/svg">
<path d="M22 13V18L13 22V13H22ZM22 11V6L13 2V11H22ZM2 6V18L11 22V2L2 6Z" fill="#26D07C"/>
<path d="M50.0284 12.8514C50.0284 13.6764 49.5774 14.1274 48.8514 14.1274C48.2574 14.1274 48.0044 13.8744 48.0044 13.3794C48.0044 12.7854 48.2574 12.5324 49.0824 12.5324H50.0284V12.8514Z" fill="#FB8E42"/>
<path d="M55.1562 13.7974C55.9702 13.7974 56.4652 13.2914 56.4652 12.2574V11.8174C56.4652 10.8494 56.0142 10.3324 55.1562 10.3324C54.3092 10.3324 53.8912 10.7724 53.8912 12.0044C53.8912 13.3574 54.3202 13.7974 55.1562 13.7974Z" fill="#FB8E42"/>
<path d="M61.6444 10.1784C60.8084 10.1784 60.3904 10.6294 60.3354 11.6854H62.8434C62.8434 10.7064 62.5684 10.1784 61.6444 10.1784Z" fill="#FB8E42"/>
<path fill-rule="evenodd" clip-rule="evenodd" d="M32 4C29.7909 4 28 5.79086 28 8V16C28 18.2091 29.7909 20 32 20H69C71.2091 20 73 18.2091 73 16V8C73 5.79086 71.2091 4 69 4H32ZM44.3692 15.1944C43.1262 15.1944 42.6422 14.6554 42.6422 13.2584V10.4314H41.6962V9.25436H42.6422V8.17636L43.9842 7.71436V9.25436H45.6562V10.4314H43.9842V13.1044C43.9842 13.7314 44.1712 13.9844 44.6772 13.9844C45.0732 13.9844 45.4142 13.8524 45.6562 13.6654V14.9194C45.4582 15.0514 44.9632 15.1944 44.3692 15.1944ZM46.6184 13.5004C46.6184 14.6554 47.2344 15.2714 48.3674 15.2714C49.3134 15.2714 49.8854 14.7764 50.1054 14.1934L50.1604 15.1284H51.3704V11.2564C51.3704 9.68336 50.7764 9.12236 49.0604 9.12236C48.2794 9.12236 47.5424 9.27636 47.1024 9.46336V10.7834C47.4764 10.5414 48.1584 10.3324 48.8404 10.3324C49.7534 10.3324 50.0284 10.5854 50.0284 11.2784V11.6744H48.9284C47.2234 11.6744 46.6184 12.2794 46.6184 13.5004ZM54.9692 17.2514C54.1112 17.2514 53.3742 17.0644 52.9892 16.8774V15.4474C53.2972 15.7004 53.9902 16.0414 54.9912 16.0414C56.0252 16.0414 56.4652 15.6014 56.4652 14.6224V13.9734C56.2232 14.4684 55.6842 15.0074 54.7052 15.0074C53.2202 15.0074 52.5052 14.1384 52.5052 12.1034C52.5052 10.0134 53.2422 9.12236 54.7492 9.12236C55.6072 9.12236 56.1902 9.50736 56.4652 10.1124L56.5202 9.25436H57.8072V14.5344C57.8072 16.4704 56.8942 17.2514 54.9692 17.2514ZM61.7874 15.2714C59.7964 15.2714 58.9934 14.2704 58.9934 12.1144C58.9934 10.0904 59.9724 9.12236 61.6444 9.12236C63.4704 9.12236 64.1854 10.0794 64.1854 11.9054V12.5434H60.3354C60.3794 13.6544 60.8634 14.1274 61.9414 14.1274C62.6894 14.1274 63.4484 13.8524 63.8335 13.5004V14.7434C63.4044 15.0184 62.7994 15.2714 61.7874 15.2714ZM36.8697 14.9084C37.4527 15.1504 38.1237 15.2714 38.6737 15.2714C40.2687 15.2714 40.9067 14.6334 40.9067 13.3794C40.9067 12.0802 39.9724 11.8064 39.2017 11.5807C38.6609 11.4223 38.2007 11.2874 38.2007 10.8384C38.2007 10.4644 38.4097 10.2554 39.0477 10.2554C39.6747 10.2554 40.1697 10.4094 40.6317 10.7394V9.39736C40.2027 9.24336 39.5757 9.12236 39.0037 9.12236C37.4197 9.12236 36.8147 9.71636 36.8147 10.9264C36.8147 12.1561 37.7042 12.4241 38.4632 12.6528C39.0281 12.823 39.5207 12.9715 39.5207 13.4784C39.5207 13.9074 39.3007 14.1274 38.6407 14.1274C37.9367 14.1274 37.2877 13.9184 36.8697 13.5554V14.9084Z" fill="#FB8E42"/>
</svg>
