<svg width="87" height="16" viewBox="0 0 87 16" xmlns="http://www.w3.org/2000/svg">
  <g class="cloud-logo-icon" fill='#26d07c'> 
    <path d="M0 3.66704V13.0982L6.89197 16.0001V0.765195L0 3.66704ZM14.5095 8.05793V3.66704L7.61752 0.765195V8.05793H14.5095ZM7.61752 8.70727H14.5095V13.0982L7.61752 16.0001V8.70727Z"/>
  </g>

  <g class="cloud-logo-text" fill='#222'>
    <path d="M67.0157 13.3072C67.9762 13.3072 68.5875 12.731 68.5875 11.753C68.5875 10.775 67.9762 10.1987 67.0157 10.1987C66.0552 10.1987 65.444 10.775 65.444 11.753C65.444 12.731 66.0552 13.3072 67.0157 13.3072ZM75.3109 3.66741H76.3588V5.76303H74.787C73.3899 5.76303 72.9184 6.40911 72.9184 7.45691V13.0977H70.718V3.6499H72.8136V5.3962C73.2328 4.19126 74.071 3.66741 75.3109 3.66741ZM34.7781 8.4C34.7781 10.4083 35.5115 11.3688 37.4324 11.3688C39.3535 11.3688 40.0869 10.4083 40.0869 8.4V8.34758C40.0869 6.33929 39.3535 5.3962 37.4324 5.3962C35.5115 5.3962 34.7781 6.33929 34.7781 8.34758V8.4ZM37.4324 13.3072C34.4288 13.3072 32.5427 11.4386 32.5427 8.38248C32.5427 5.32639 34.4288 3.45785 37.4324 3.45785C40.4362 3.45785 42.3223 5.32639 42.3223 8.38248C42.3223 11.4386 40.4362 13.3072 37.4324 13.3072ZM28.9453 13.0977H31.1457V3.05176e-05H28.9453V13.0977ZM63.331 3.05176e-05V13.0977H61.2353V11.7006C60.6416 12.6436 59.7334 13.3072 58.1791 13.3072C55.2104 13.3072 53.7259 11.2465 53.7259 8.52223C53.7259 5.53595 55.2104 3.47525 58.1791 3.47525C59.4715 3.47525 60.7114 4.10393 61.1305 4.94218V3.05176e-05H63.331ZM58.5809 11.3688C60.4669 11.3688 61.2004 10.4083 61.2004 8.4V8.34758C61.2004 6.33929 60.4669 5.41372 58.5809 5.41372C56.6948 5.41372 55.9613 6.33929 55.9613 8.34758V8.4C55.9613 10.4083 56.6948 11.3688 58.5809 11.3688ZM79.6593 9.27315C79.6593 10.6703 80.3578 11.3688 81.755 11.3688C83.1521 11.3688 83.8506 10.6703 83.8506 9.27315V3.66741H86.051V13.0977H83.9903V11.7006C83.4139 12.6961 82.471 13.3072 80.8992 13.3072C78.664 13.3072 77.4589 12.0848 77.4589 9.63985V3.66741H79.6593V9.27315ZM45.9023 9.27315C45.9023 10.6703 46.6008 11.3688 47.9979 11.3688C49.3951 11.3688 50.0936 10.6703 50.0936 9.27315V3.66741H52.294V13.0977H50.2333V11.7006C49.6569 12.6961 48.714 13.3072 47.1422 13.3072C44.9068 13.3072 43.7019 12.0848 43.7019 9.63985V3.66741H45.9023V9.27315ZM23.8983 3.45785C20.7549 3.45785 19.0609 5.23906 19.0609 8.38248C19.0609 11.5259 20.7549 13.3072 23.811 13.3072C25.8192 13.3072 27.4433 12.2943 28.0895 10.2336H25.9939C25.5922 10.9322 25.0159 11.3688 23.811 11.3688C22.0122 11.3688 21.2962 10.4083 21.2962 8.4V8.34758C21.2962 6.33929 22.0122 5.3962 23.8983 5.3962C25.0159 5.3962 25.5922 5.78042 25.9939 6.44401H28.0895C27.4433 4.45324 25.9066 3.45785 23.8983 3.45785Z"/>
  </g>
</svg>
