<svg width="74" height="24" viewBox="0 0 74 24" fill="none" xmlns="http://www.w3.org/2000/svg">
<path d="M22.5 13V18L13.5 22V13H22.5ZM22.5 11V6L13.5 2V11H22.5ZM2.5 6V18L11.5 22V2L2.5 6Z" fill="#26D07C"/>
<path d="M50.5284 12.8514C50.5284 13.6764 50.0774 14.1274 49.3514 14.1274C48.7574 14.1274 48.5044 13.8744 48.5044 13.3794C48.5044 12.7854 48.7574 12.5324 49.5824 12.5324H50.5284V12.8514Z" fill="#FB8E42"/>
<path d="M55.6562 13.7974C56.4702 13.7974 56.9652 13.2914 56.9652 12.2574V11.8174C56.9652 10.8494 56.5142 10.3324 55.6562 10.3324C54.8092 10.3324 54.3912 10.7724 54.3912 12.0044C54.3912 13.3574 54.8202 13.7974 55.6562 13.7974Z" fill="#FB8E42"/>
<path d="M62.1444 10.1784C61.3084 10.1784 60.8904 10.6294 60.8354 11.6854H63.3434C63.3434 10.7064 63.0684 10.1784 62.1444 10.1784Z" fill="#FB8E42"/>
<path fill-rule="evenodd" clip-rule="evenodd" d="M32.5 4C30.2909 4 28.5 5.79086 28.5 8V16C28.5 18.2091 30.2909 20 32.5 20H69.5C71.7091 20 73.5 18.2091 73.5 16V8C73.5 5.79086 71.7091 4 69.5 4H32.5ZM44.8692 15.1944C43.6262 15.1944 43.1422 14.6554 43.1422 13.2584V10.4314H42.1962V9.25436H43.1422V8.17636L44.4842 7.71436V9.25436H46.1562V10.4314H44.4842V13.1044C44.4842 13.7314 44.6712 13.9844 45.1772 13.9844C45.5732 13.9844 45.9142 13.8524 46.1562 13.6654V14.9194C45.9582 15.0514 45.4632 15.1944 44.8692 15.1944ZM47.1184 13.5004C47.1184 14.6554 47.7344 15.2714 48.8674 15.2714C49.8134 15.2714 50.3854 14.7764 50.6054 14.1934L50.6604 15.1284H51.8704V11.2564C51.8704 9.68336 51.2764 9.12236 49.5604 9.12236C48.7794 9.12236 48.0424 9.27636 47.6024 9.46336V10.7834C47.9764 10.5414 48.6584 10.3324 49.3404 10.3324C50.2534 10.3324 50.5284 10.5854 50.5284 11.2784V11.6744H49.4284C47.7234 11.6744 47.1184 12.2794 47.1184 13.5004ZM55.4692 17.2514C54.6112 17.2514 53.8742 17.0644 53.4892 16.8774V15.4474C53.7972 15.7004 54.4902 16.0414 55.4912 16.0414C56.5252 16.0414 56.9652 15.6014 56.9652 14.6224V13.9734C56.7232 14.4684 56.1842 15.0074 55.2052 15.0074C53.7202 15.0074 53.0052 14.1384 53.0052 12.1034C53.0052 10.0134 53.7422 9.12236 55.2492 9.12236C56.1072 9.12236 56.6902 9.50736 56.9652 10.1124L57.0202 9.25436H58.3072V14.5344C58.3072 16.4704 57.3942 17.2514 55.4692 17.2514ZM62.2874 15.2714C60.2964 15.2714 59.4934 14.2704 59.4934 12.1144C59.4934 10.0904 60.4724 9.12236 62.1444 9.12236C63.9704 9.12236 64.6854 10.0794 64.6854 11.9054V12.5434H60.8354C60.8794 13.6544 61.3634 14.1274 62.4414 14.1274C63.1894 14.1274 63.9484 13.8524 64.3335 13.5004V14.7434C63.9044 15.0184 63.2994 15.2714 62.2874 15.2714ZM37.3697 14.9084C37.9527 15.1504 38.6237 15.2714 39.1737 15.2714C40.7687 15.2714 41.4067 14.6334 41.4067 13.3794C41.4067 12.0802 40.4724 11.8064 39.7017 11.5807C39.1609 11.4223 38.7007 11.2874 38.7007 10.8384C38.7007 10.4644 38.9097 10.2554 39.5477 10.2554C40.1747 10.2554 40.6697 10.4094 41.1317 10.7394V9.39736C40.7027 9.24336 40.0757 9.12236 39.5037 9.12236C37.9197 9.12236 37.3147 9.71636 37.3147 10.9264C37.3147 12.1561 38.2042 12.4241 38.9632 12.6528C39.5281 12.823 40.0207 12.9715 40.0207 13.4784C40.0207 13.9074 39.8007 14.1274 39.1407 14.1274C38.4367 14.1274 37.7877 13.9184 37.3697 13.5554V14.9084Z" fill="#FB8E42"/>
</svg>
