<svg width="24" height="24" viewBox="0 0 24 24" fill="none" xmlns="http://www.w3.org/2000/svg">
<path d="M5.21194 21.4846L0.290077 12.9594C0.100844 12.6316 0.0012207 12.2598 0.0012207 11.8814C0.0012207 11.5029 0.100844 11.1311 0.290077 10.8033L5.21194 2.27832C5.4012 1.95051 5.67342 1.67829 6.00123 1.48904C6.32905 1.29979 6.70091 1.20017 7.07943 1.2002H16.9231C17.3016 1.2002 17.6735 1.29984 18.0012 1.48909C18.329 1.67834 18.6012 1.95053 18.7905 2.27832L23.7123 10.8033C23.9016 11.1311 24.0012 11.503 24.0012 11.8815C24.0012 12.26 23.9016 12.6318 23.7123 12.9596L18.7905 21.4844C18.6012 21.8122 18.329 22.0844 18.0012 22.2737C17.6735 22.4629 17.3016 22.5625 16.9231 22.5626H7.07943C6.7009 22.5626 6.32904 22.463 6.00122 22.2737C5.6734 22.0845 5.40118 21.8123 5.21194 21.4844V21.4846Z" fill="url(#paint0_linear_1535_604)"/>
<path opacity="0.07" d="M12.3001 9.9001L11.7001 12.6001L9.24806 14.1001L9.0001 15.3001L8.1001 16.2001L16.3138 22.7436L18.3418 22.744L22.3023 15.6308L13.5001 8.1001L12.3001 9.9001Z" fill="black"/>
<path opacity="0.07" d="M11.4001 9.9L11.7001 12.6L9.24805 14.1L9.59961 14.4L11.4001 13.5H12.9001L12.2996 10.5L13.4996 9.6L11.1001 7.5L11.4001 9.9Z" fill="black"/>
<path opacity="0.07" d="M11.4004 9.9001L11.7004 12.6001L9.45019 13.6501L7.19995 14.7001L8.69995 15.9001L10.2002 14.8501L11.4004 13.5001H12.9004L12.3 10.5001L13.5004 9.6001L12 9.9001H11.4004Z" fill="black"/>
<path fill-rule="evenodd" clip-rule="evenodd" d="M12.6703 12.3802V10.2002H11.3303V12.3802L9.44531 13.4702L10.1153 14.6302L12.0003 13.5402L13.8853 14.6302L14.5553 13.4702L12.6703 12.3802Z" fill="white"/>
<path fill-rule="evenodd" clip-rule="evenodd" d="M12.6705 12.3802V10.2002H12.0005V12.7602L9.78052 14.0502L10.1155 14.6302L12.0005 13.5402L13.8855 14.6302L14.5555 13.4702L12.6705 12.3802Z" fill="white"/>
<path fill-rule="evenodd" clip-rule="evenodd" d="M11.3253 7.38477L10.3103 7.99477V9.85977L12.0003 10.7748V9.21977L11.3253 8.90977V7.38477Z" fill="white"/>
<path fill-rule="evenodd" clip-rule="evenodd" d="M12.675 8.90977L12 9.21977V10.7748L13.69 9.85977V7.99477L12.675 7.38477V8.90977Z" fill="white"/>
<path fill-rule="evenodd" clip-rule="evenodd" d="M15.0699 14.54L15.0299 15.235L16.3799 16L15.2899 16.6L13.6699 15.665L13.7249 13.75L15.3599 12.75L16.9999 13.69V14.935L15.6549 14.16L15.0699 14.54Z" fill="white"/>
<path fill-rule="evenodd" clip-rule="evenodd" d="M8.93024 14.5399L8.34524 14.1599L7.00024 14.9349V13.6899L8.61524 12.7549L10.2502 13.7549L10.3052 15.6699L8.71024 16.6149L7.62024 15.9999L8.97024 15.2199L8.93024 14.5399Z" fill="white"/>
<path fill-rule="evenodd" clip-rule="evenodd" d="M17.0001 14.9348L16.9751 13.6898L15.3601 12.7598L13.7251 13.7648L15.0701 14.5398L15.6501 14.1598L17.0001 14.9348Z" fill="white"/>
<path fill-rule="evenodd" clip-rule="evenodd" d="M7.00024 14.9348L8.35024 14.1598L8.93024 14.5398L10.2752 13.7648L8.64024 12.7598L7.02524 13.6898L7.00024 14.9348Z" fill="white"/>
<defs>
<linearGradient id="paint0_linear_1535_604" x1="12.0013" y1="1.20038" x2="12.0013" y2="22.5294" gradientUnits="userSpaceOnUse">
<stop stop-color="#4387FD"/>
<stop offset="1" stop-color="#4683EA"/>
</linearGradient>
</defs>
</svg>
