<svg width="63" height="24" viewBox="0 0 63 24" fill="none" xmlns="http://www.w3.org/2000/svg">
<path d="M22 13V18L13 22V13H22ZM22 11V6L13 2V11H22ZM2 6V18L11 22V2L2 6Z" fill="#26D07C"/>
<path d="M39.3578 13.9651C38.5108 13.9651 38.0818 13.5251 38.0818 12.0401C38.0818 10.6761 38.4998 10.2361 39.3468 10.2361C40.2048 10.2361 40.6558 10.7531 40.6558 11.7761V12.3921C40.6558 13.4701 40.1608 13.9651 39.3578 13.9651Z" fill="#5388D1"/>
<path d="M45.8351 10.0821C44.9991 10.0821 44.5811 10.5331 44.5261 11.5891H47.0341C47.0341 10.6101 46.7591 10.0821 45.8351 10.0821Z" fill="#5388D1"/>
<path fill-rule="evenodd" clip-rule="evenodd" d="M32 4C29.7909 4 28 5.79086 28 8V16C28 18.2091 29.7909 20 32 20H59C61.2091 20 63 18.2091 63 16V8C63 5.79086 61.2091 4 59 4H32ZM40.6558 14.1411L40.7108 15.0321H41.9978V6.70508H40.6558V10.0161C40.3808 9.41108 39.7978 9.02608 38.9398 9.02608C37.4328 9.02608 36.6958 9.92808 36.6958 12.0401C36.6958 14.3171 37.3998 15.1751 38.8958 15.1751C39.8748 15.1751 40.4138 14.6361 40.6558 14.1411ZM45.9781 15.1751C43.9871 15.1751 43.1841 14.1741 43.1841 12.0181C43.1841 9.99408 44.1631 9.02608 45.8351 9.02608C47.6611 9.02608 48.3761 9.98308 48.3761 11.8091V12.4471H44.5261C44.5701 13.5581 45.0541 14.0311 46.1321 14.0311C46.8801 14.0311 47.6391 13.7561 48.0241 13.4041V14.6471C47.5951 14.9221 46.9901 15.1751 45.9781 15.1751ZM50.8282 15.0321L48.9142 9.15808H50.3662L51.6422 13.4921L52.9292 9.15808H54.3042L52.3902 15.0321H50.8282Z" fill="#5388D1"/>
</svg>
