<svg width="40" height="40" viewBox="0 0 40 40" fill="none" xmlns="http://www.w3.org/2000/svg">
<g clip-path="url(#clip0_630_618)">
<path d="M8.68648 35.8074L0.483381 21.5987C0.167992 21.0524 0.00195312 20.4327 0.00195312 19.802C0.00195312 19.1712 0.167992 18.5515 0.483381 18.0053L8.68648 3.79687C9.00191 3.25052 9.45561 2.79683 10.002 2.48141C10.5483 2.166 11.1681 1.99996 11.799 2H28.2052C28.836 2.00002 29.4557 2.16608 30.002 2.48149C30.5483 2.79691 31.0019 3.25056 31.3173 3.79687L39.5204 18.0053C39.8359 18.5516 40.002 19.1713 40.002 19.8021C40.002 20.433 39.8359 21.0527 39.5204 21.599L31.3173 35.8071C31.0019 36.3534 30.5483 36.807 30.002 37.1224C29.4557 37.4379 28.836 37.6039 28.2052 37.6039H11.799C11.1681 37.604 10.5483 37.438 10.0019 37.1226C9.45558 36.8071 9.00189 36.3534 8.68648 35.8071V35.8074Z" fill="url(#paint0_linear_630_618)"/>
<path opacity="0.07" d="M20.5 16.5L19.5 21L15.4133 23.5L15 25.5L13.5 27L27.1895 37.9059L30.5695 37.9065L37.1704 26.0512L22.5 13.5L20.5 16.5Z" fill="black"/>
<path opacity="0.07" d="M18.9998 16.5L19.4998 21L15.4131 23.5L15.999 24L18.9998 22.5H21.4998L20.499 17.5L22.499 16L18.4998 12.5L18.9998 16.5Z" fill="black"/>
<path opacity="0.07" d="M19.0008 16.5L19.5008 21L15.7504 22.75L12 24.5L14.5 26.5L17.0004 24.75L19.0008 22.5H21.5008L20.5 17.5L22.5008 16L20 16.5H19.0008Z" fill="black"/>
<path fill-rule="evenodd" clip-rule="evenodd" d="M21.1172 20.6333V17H18.8839V20.6333L15.7422 22.45L16.8589 24.3833L20.0005 22.5667L23.1422 24.3833L24.2589 22.45L21.1172 20.6333Z" fill="white"/>
<path fill-rule="evenodd" clip-rule="evenodd" d="M21.1174 20.6333V17H20.0008V21.2667L16.3008 23.4167L16.8591 24.3833L20.0008 22.5667L23.1424 24.3833L24.2591 22.45L21.1174 20.6333Z" fill="white"/>
<path fill-rule="evenodd" clip-rule="evenodd" d="M18.8753 12.3083L17.1836 13.325V16.4333L20.0003 17.9583V15.3667L18.8753 14.85V12.3083Z" fill="white"/>
<path fill-rule="evenodd" clip-rule="evenodd" d="M21.125 14.85L20 15.3667V17.9583L22.8167 16.4333V13.325L21.125 12.3083V14.85Z" fill="white"/>
<path fill-rule="evenodd" clip-rule="evenodd" d="M25.1165 24.2333L25.0499 25.3917L27.2999 26.6667L25.4832 27.6667L22.7832 26.1083L22.8749 22.9167L25.5999 21.25L28.3332 22.8167V24.8917L26.0915 23.6L25.1165 24.2333Z" fill="white"/>
<path fill-rule="evenodd" clip-rule="evenodd" d="M14.8837 24.2333L13.9087 23.6L11.667 24.8917V22.8167L14.3587 21.2583L17.0837 22.925L17.1753 26.1167L14.517 27.6917L12.7003 26.6667L14.9503 25.3667L14.8837 24.2333Z" fill="white"/>
<path fill-rule="evenodd" clip-rule="evenodd" d="M28.3333 24.8917L28.2917 22.8167L25.6 21.2667L22.875 22.9417L25.1167 24.2333L26.0833 23.6L28.3333 24.8917Z" fill="white"/>
<path fill-rule="evenodd" clip-rule="evenodd" d="M11.667 24.8917L13.917 23.6L14.8837 24.2333L17.1253 22.9417L14.4003 21.2667L11.7087 22.8167L11.667 24.8917Z" fill="white"/>
</g>
<defs>
<linearGradient id="paint0_linear_630_618" x1="20.0021" y1="2.00031" x2="20.0021" y2="37.5486" gradientUnits="userSpaceOnUse">
<stop stop-color="#4387FD"/>
<stop offset="1" stop-color="#4683EA"/>
</linearGradient>
<clipPath id="clip0_630_618">
<rect width="40" height="40" fill="white"/>
</clipPath>
</defs>
</svg>
