<svg width="77" height="24" viewBox="0 0 77 24" fill="none" xmlns="http://www.w3.org/2000/svg">
<path d="M22 13V18L13 22V13H22ZM22 11V6L13 2V11H22ZM2 6V18L11 22V2L2 6Z" fill="#26D07C"/>
<path d="M65.4946 14.9527C64.6476 14.9527 64.2186 14.5127 64.2186 13.0277C64.2186 11.6637 64.6366 11.2237 65.4836 11.2237C66.3416 11.2237 66.7926 11.7407 66.7926 12.7637V13.3797C66.7926 14.4577 66.2976 14.9527 65.4946 14.9527Z" fill="#AA6CC1"/>
<path d="M52.8882 13.0277C52.8882 14.5237 52.4702 14.9527 51.6122 14.9527C50.8092 14.9527 50.3142 14.4577 50.3142 13.3907V12.7747C50.3142 11.6967 50.7872 11.2237 51.6342 11.2237C52.4702 11.2237 52.8882 11.6527 52.8882 13.0277Z" fill="#AA6CC1"/>
<path fill-rule="evenodd" clip-rule="evenodd" d="M32 4C29.7909 4 28 5.79086 28 8V16C28 18.2091 29.7909 20 32 20H73C75.2091 20 77 18.2091 77 16V8C77 5.79086 75.2091 4 73 4H32ZM60.1372 10.1457V16.0197H61.4792V10.1457H60.1372ZM59.9942 8.3857C59.9942 8.88069 60.2582 9.13369 60.8082 9.13369C61.3582 9.13369 61.6222 8.88069 61.6222 8.3857C61.6222 7.8907 61.3582 7.6377 60.8082 7.6377C60.2582 7.6377 59.9942 7.8907 59.9942 8.3857ZM66.7926 15.1287L66.8476 16.0197H68.1346V7.6927H66.7926V11.0037C66.5176 10.3987 65.9346 10.0137 65.0766 10.0137C63.5696 10.0137 62.8326 10.9157 62.8326 13.0277C62.8326 15.3047 63.5366 16.1627 65.0326 16.1627C66.0116 16.1627 66.5506 15.6237 66.7926 15.1287ZM55.4604 16.0197V10.1457H56.6924L56.7474 11.0807C57.0224 10.3327 57.5504 10.0137 58.2104 10.0137C58.5075 10.0137 58.7384 10.0687 58.7824 10.0797V11.4767C58.6064 11.3447 58.2984 11.2237 57.9244 11.2237C57.2094 11.2237 56.8024 11.6307 56.8024 12.7637V16.0197H55.4604ZM50.3142 15.1617C50.5562 15.6567 51.0182 16.1627 51.9972 16.1627C53.5262 16.1627 54.2742 15.2717 54.2742 13.0277C54.2742 10.8387 53.5922 10.0137 52.1402 10.0137C51.1392 10.0137 50.6222 10.4647 50.3142 11.0257V7.6927H48.9722V16.0197H50.2592L50.3142 15.1617ZM44.4123 18.1427C44.0383 18.1427 43.6753 18.0217 43.6313 17.9997V16.7677C43.7853 16.8667 43.9503 16.9327 44.1813 16.9327C44.4893 16.9327 44.7203 16.7897 44.9183 16.0197L42.6633 10.1457H44.1153L45.5343 14.1717L46.6783 10.1457H48.0533L46.2713 15.9537C45.6883 17.8347 45.2483 18.1427 44.4123 18.1427ZM36.8657 7.6927V16.0197H38.2077V12.6427C38.2077 11.6527 38.6367 11.2237 39.3847 11.2237C40.1657 11.2237 40.4957 11.5427 40.4957 12.6427V16.0197H41.8377V12.1587C41.8377 10.6297 41.1777 10.0137 39.9237 10.0137C39.1097 10.0137 38.5267 10.3437 38.2077 11.0477V7.6927H36.8657Z" fill="#AA6CC1"/>
</svg>
