<svg width="24" height="24" viewBox="0 0 24 24" fill="none" xmlns="http://www.w3.org/2000/svg">
<g clip-path="url(#clip0_3087_139)">
<path d="M6.31735 6.61645C6.49956 6.3248 6.51784 5.01267 6.591 3.95563C6.66388 2.89859 7.35529 2.50208 8.01244 2.5159C8.88714 2.53405 9.83486 4.07715 9.83486 4.07715C9.83486 4.07715 9.57965 2.81365 8.88714 2.08458C8.23013 1.39316 6.89457 1.56222 6.18975 2.29726C5.51201 3.00426 5.71602 4.41134 5.5517 5.79634C5.43696 6.76628 5.01986 8.00362 4.87383 8.41598C5.23282 7.52096 6.31749 6.61645 6.31749 6.61645M15.0288 2.08458C14.3363 2.81365 14.0812 4.07728 14.0812 4.07728C14.0812 4.07728 15.0288 2.53405 15.9036 2.5159C16.5606 2.50222 17.2523 2.89859 17.3252 3.95563C17.3981 5.01267 17.4162 6.32493 17.5984 6.61645C17.5984 6.61645 18.6828 7.52096 19.0418 8.41625C18.8958 8.00362 18.4787 6.76669 18.3638 5.79648C18.1999 4.41134 18.4035 3.00425 17.726 2.29739C17.0212 1.56249 15.6859 1.39302 15.0288 2.08458Z" fill="#DA3B01"/>
<path d="M19.5251 11.0326C19.5238 10.9947 19.5211 10.9578 19.5197 10.9204L19.2538 10.9448L19.2077 10.4195C19.2966 10.4115 19.3856 10.4033 19.4746 10.3948C18.8916 5.70406 13.86 5.52321 13.86 5.52321C13.6622 3.22706 14.9536 1.73247 14.9536 1.73247L11.9855 1.76877L8.99687 1.73247C8.99687 1.73247 10.3332 3.25131 10.0901 5.52321C10.0901 5.52321 5.05305 5.70406 4.47461 10.4026C5.20369 10.4683 5.93331 10.5253 6.6636 10.5716L6.52191 12.7939C6.34725 12.7827 6.17263 12.771 5.99806 12.7587L6.1235 10.9634C5.62182 10.9284 5.12042 10.8888 4.61929 10.8446L4.4845 12.3732C4.53315 12.7907 4.6036 13.2053 4.69555 13.6154C4.69555 13.6154 5.80421 18.6606 11.0286 23.5203C11.0286 23.5203 9.4794 23.8982 11.8213 23.9985L12.0218 23.9995C14.407 23.9101 12.6901 23.5173 12.6901 23.5173C18.5705 18.1715 19.2543 13.6149 19.2543 13.6149C19.2791 13.5039 19.3015 13.395 19.3229 13.2872C18.6764 13.3433 18.0296 13.3919 17.3826 13.4331C17.3355 12.6922 17.2882 11.9515 17.2409 11.2107C17.4125 11.1997 17.584 11.1883 17.7553 11.1763L17.8807 12.9715C18.3874 12.9361 18.8938 12.8962 19.4 12.8518C19.4049 12.8213 19.4091 12.7916 19.4135 12.761L19.2632 11.0551C19.3508 11.0478 19.4379 11.0397 19.5251 11.0325V11.0326ZM7.52015 13.4928C6.64511 13.4475 5.7708 13.389 4.89753 13.3172L5.08028 11.0982C5.25169 11.1123 5.42301 11.1258 5.59424 11.1388L5.45782 12.9337C5.97133 12.9725 6.48519 13.0068 6.99942 13.0367L7.10346 11.2378C7.28056 11.249 7.4577 11.2594 7.63489 11.269L7.52015 13.4928ZM7.64058 11.1563C7.46367 11.1473 7.28675 11.1376 7.10983 11.1272L7.14058 10.6009C7.31632 10.611 7.49207 10.6206 7.66781 10.6296L7.64058 11.1563ZM8.50784 13.5379C8.32583 13.5306 8.14386 13.5227 7.96191 13.5142L7.98643 12.9877C8.16732 12.9958 8.34817 13.0035 8.52897 13.011L8.50784 13.5379ZM8.53344 12.8999C8.353 12.8923 8.17238 12.8838 7.99158 12.8744C8.02608 12.133 8.06039 11.3915 8.09453 10.6501C8.94029 10.6892 9.78636 10.7156 10.6328 10.729L10.5978 12.9553C10.4228 12.9526 10.2478 12.9493 10.0727 12.9454L10.112 11.146C9.60945 11.1352 9.10705 11.1197 8.60483 11.0997L8.53344 12.8999ZM11.6286 13.6057C10.7528 13.6025 9.87714 13.5861 9.00188 13.5562C9.02717 12.8144 9.05259 12.0726 9.07815 11.3309C9.24965 11.3365 9.42128 11.3418 9.59305 11.3469L9.5428 13.1459C10.0574 13.1603 10.5721 13.1701 11.0868 13.1751L11.1047 11.3732C11.2822 11.3759 11.4595 11.3777 11.6367 11.3787C11.6337 12.1213 11.631 12.8636 11.6286 13.6057ZM11.6367 11.2663C11.4597 11.2657 11.2826 11.2645 11.1055 11.2625L11.1107 10.7353C11.2868 10.7371 11.4627 10.7383 11.6385 10.7389C11.6381 10.9148 11.6375 11.0906 11.6367 11.2663ZM15.6854 10.6543C15.6935 10.8299 15.7014 11.0055 15.7092 11.1811C15.5322 11.1892 15.3552 11.1967 15.1782 11.2034L15.1579 10.6765C15.3337 10.6697 15.5096 10.6623 15.6854 10.6543ZM12.1414 10.7389C12.9879 10.7369 13.8343 10.7218 14.6803 10.6935L14.7543 12.919C14.5796 12.9247 14.4043 12.9301 14.2295 12.9347L14.1807 11.1357C13.6783 11.1494 13.1758 11.1584 12.673 11.1627L12.6891 12.9644C12.5085 12.9656 12.3278 12.966 12.1469 12.9654L12.1414 10.7389ZM12.1488 13.6061C12.1484 13.4302 12.1479 13.2545 12.1474 13.0788C12.3284 13.0784 12.5093 13.0773 12.6902 13.0757L12.695 13.6029C12.5128 13.6047 12.3307 13.6057 12.1488 13.6061ZM13.1891 13.5972C13.178 12.8551 13.1671 12.1129 13.1565 11.3707C13.3283 11.3685 13.4999 11.3654 13.6714 11.3617L13.7091 13.1611C14.2238 13.1506 14.7384 13.1352 15.2528 13.115C15.2296 12.5147 15.2062 11.9145 15.1827 11.3144C15.3598 11.3081 15.5371 11.3014 15.7144 11.2941C15.7478 12.0356 15.7814 12.7771 15.8153 13.5187C14.9402 13.5581 14.0648 13.5843 13.1891 13.5972ZM16.3437 13.4929L16.3166 12.9661C16.4975 12.9568 16.6783 12.947 16.859 12.9364L16.8897 13.463C16.7073 13.4736 16.5253 13.4836 16.3437 13.4929ZM18.3901 12.7209L18.2535 10.9263C17.7521 10.9642 17.2504 10.9978 16.7482 11.0272C16.7833 11.6269 16.818 12.2265 16.8524 12.826C16.672 12.8355 16.4913 12.845 16.3105 12.8531C16.2725 12.1119 16.2344 11.3707 16.1962 10.6297C17.0419 10.5861 17.8868 10.5296 18.731 10.4601L18.9137 12.6791C18.7391 12.6935 18.5646 12.7075 18.3901 12.7209ZM8.80342 1.5015H15.3201C15.3201 1.5015 16.7536 1.41047 16.7536 -0.00488281H7.36925C7.36965 1.41047 8.80342 1.5015 8.80342 1.5015Z" fill="#DA3B01"/>
</g>
<defs>
<clipPath id="clip0_3087_139">
<rect width="24" height="24" fill="white"/>
</clipPath>
</defs>
</svg>
