<svg width="24" height="24" viewBox="0 0 24 24" fill="none" xmlns="http://www.w3.org/2000/svg">
<g clip-path="url(#clip0_3707_221)">
<path d="M6.72389 8.46516C7.51898 7.67893 8.81383 7.67893 9.60892 8.46516L10.2109 9.06046L12.0794 7.2128C12.9824 6.31986 14.4589 6.31986 15.3619 7.2128L16.0775 7.92041L17.8721 6.14576L13.9592 2.27636C12.8347 1.16439 10.989 1.16439 9.8588 2.27636L1.78867 10.2679C0.828892 11.2114 0.692591 12.6715 1.36274 13.7723L1.38545 13.7498L6.72389 8.46516Z" fill="url(#paint0_linear_3707_221)"/>
<path d="M17.2709 15.4174C16.4758 16.2036 15.181 16.2036 14.3859 15.4174L13.676 14.7098L11.3191 17.0404C10.4161 17.9333 8.93954 17.9333 8.03655 17.0404L7.42888 16.4395L5.67969 18.1692L9.27461 21.7241C10.3991 22.8361 12.2448 22.8361 13.375 21.7241L21.4565 13.7382C22.297 12.907 22.5128 11.6771 22.0982 10.6494L21.837 10.9077L17.2709 15.4174Z" fill="url(#paint1_linear_3707_221)"/>
<path d="M10.5522 16.2825C10.4329 16.4004 10.2909 16.4903 10.1432 16.552C9.99559 16.6138 9.83657 16.6419 9.67756 16.6419C9.35952 16.6419 9.04149 16.524 8.80296 16.2825L8.19529 15.6816L7.49675 14.9908C7.25254 14.7493 7.13328 14.4404 7.13328 14.1259C7.13328 13.9687 7.16168 13.8114 7.22415 13.6654C7.28662 13.5194 7.37748 13.379 7.49675 13.2611L10.9781 9.81849L12.8465 7.97083C13.0283 7.79112 13.2498 7.6788 13.4883 7.63387C13.5678 7.61702 13.6473 7.61141 13.7268 7.61141C14.0449 7.61141 14.3629 7.72934 14.6014 7.97083L15.317 8.67844L16.0837 7.92029L15.3681 7.21267C14.4651 6.31973 12.9885 6.31973 12.0855 7.21267L10.2114 9.06033L6.73006 12.5029C6.55968 12.6714 6.42338 12.8567 6.31548 13.0589C6.2814 13.1263 6.24733 13.1937 6.21893 13.2611C5.96337 13.8845 5.99744 14.5921 6.31548 15.193C6.42338 15.3952 6.55968 15.5805 6.73006 15.749L7.4286 16.4397L8.03627 17.0406C8.93926 17.9336 10.4159 17.9336 11.3188 17.0406L13.6757 14.71L12.909 13.9518L10.5522 16.2825Z" fill="white"/>
<path d="M12.8861 11.082L15.3168 8.67836L14.6013 7.97075C14.3571 7.72926 14.0447 7.61133 13.7267 7.61133C13.6472 7.61133 13.5676 7.61694 13.4881 7.63379C13.2553 7.67872 13.0281 7.79104 12.8464 7.97075L10.9779 9.81841L11.1086 9.94758C11.9036 10.7338 11.9036 12.0143 11.1086 12.8005L8.18945 15.6871L8.79713 16.288C9.04133 16.5295 9.35369 16.6474 9.67172 16.6474C9.83074 16.6474 9.98976 16.6194 10.1374 16.5576C10.2851 16.4958 10.4271 16.4059 10.5463 16.288L12.9032 13.9574L12.8805 13.9349C12.0911 13.1487 12.0911 11.8682 12.8861 11.082Z" fill="url(#paint2_linear_3707_221)"/>
<path d="M12.8861 11.082L15.3168 8.67836L14.6013 7.97075C14.3571 7.72926 14.0447 7.61133 13.7267 7.61133C13.6472 7.61133 13.5676 7.61694 13.4881 7.63379C13.2553 7.67872 13.0281 7.79104 12.8464 7.97075L10.9779 9.81841L11.1086 9.94758C11.9036 10.7338 11.9036 12.0143 11.1086 12.8005L8.18945 15.6871L8.79713 16.288C9.04133 16.5295 9.35369 16.6474 9.67172 16.6474C9.83074 16.6474 9.98976 16.6194 10.1374 16.5576C10.2851 16.4958 10.4271 16.4059 10.5463 16.288L12.9032 13.9574L12.8805 13.9349C12.0911 13.1487 12.0911 11.8682 12.8861 11.082Z" fill="url(#paint3_linear_3707_221)"/>
<path d="M1.78894 14.3167C1.64129 14.1707 1.51634 14.0135 1.40844 13.8506C1.3914 13.8225 1.37436 13.7944 1.36301 13.772L0.596315 14.5301C-0.198772 15.3164 -0.198772 16.5968 0.596315 17.383L2.08994 18.8657C2.73169 19.5003 3.69715 19.6238 4.46384 19.2363C4.64558 19.1408 4.82163 19.0229 4.97497 18.8657L5.45202 18.3939L5.6224 18.2254L5.67919 18.1693L1.78894 14.3167Z" fill="#2C256C"/>
<path d="M6.72986 15.7491C6.55948 15.5806 6.42318 15.3953 6.31528 15.1931C5.99724 14.5922 5.96317 13.8846 6.21873 13.2612C6.24713 13.1938 6.2812 13.1264 6.31528 13.059C6.42318 12.8569 6.55948 12.6715 6.72986 12.5031L10.2112 9.06046L9.60921 8.46517C8.81412 7.67893 7.51927 7.67893 6.72418 8.46517L1.38574 13.7442C1.39142 13.7779 1.40278 13.8116 1.40846 13.8509C1.51636 14.0138 1.64131 14.171 1.78896 14.317L5.68489 18.1696L7.43408 16.4399L6.72986 15.7491Z" fill="#5B2D82"/>
<path d="M8.19529 15.6875L11.1144 12.8009C11.9095 12.0147 11.9095 10.7343 11.1144 9.94802L10.9838 9.81885L7.50243 13.2614C7.38316 13.3794 7.2923 13.5198 7.22983 13.6658C7.16735 13.8118 7.13896 13.9691 7.13896 14.1263C7.13896 14.4408 7.25822 14.7553 7.50243 14.9912L8.19529 15.6875Z" fill="#5B2D82"/>
<path d="M15.317 8.67822L12.8864 11.0819C12.0913 11.8681 12.0913 13.1485 12.8864 13.9348L12.9091 13.9572L15.902 10.9976C16.0837 10.8179 16.1973 10.5989 16.2428 10.363C16.2598 10.2844 16.2655 10.2058 16.2655 10.1271C16.2655 9.81265 16.1462 9.49816 15.902 9.26228L15.317 8.67822Z" fill="#2C256C"/>
<path d="M17.1794 10.9924C17.2078 10.925 17.2306 10.852 17.2533 10.7846C17.4861 10.004 17.293 9.12231 16.6683 8.51017L16.0777 7.92611L15.311 8.68427L15.9016 9.26833C16.1458 9.50982 16.2651 9.81869 16.2651 10.1332C16.2651 10.2118 16.2594 10.2904 16.2424 10.3691C16.1969 10.5993 16.0834 10.824 15.9016 11.0037L12.9087 13.9633L13.6754 14.7214L16.6683 11.7618C16.8955 11.526 17.0659 11.2676 17.1794 10.9924ZM23.4038 6.49404L21.9045 5.01142C21.1549 4.27011 19.9679 4.22518 19.1672 4.88225C19.116 4.92156 19.0649 4.96649 19.0195 5.01703L18.054 5.97175L17.8837 6.14023L17.878 6.14585L21.4559 9.68391C21.5467 9.77377 21.6319 9.87485 21.7058 9.97594C21.8648 10.1837 21.9954 10.4084 22.0919 10.6499L23.4038 9.35257C24.1989 8.56072 24.1989 7.28589 23.4038 6.49404Z" fill="#623393"/>
<path d="M16.6682 8.50398C17.2929 9.12173 17.486 9.99783 17.2532 10.7784C17.2305 10.8515 17.2077 10.9188 17.1794 10.9862C17.0658 11.2614 16.8954 11.5198 16.6682 11.7444L13.6753 14.7096L14.3852 15.4116C15.1803 16.1979 16.4751 16.1979 17.2702 15.4116L22.0935 10.6606C22.02 10.4034 21.7852 10.0708 21.7057 9.96974C21.6262 9.86866 21.5466 9.77319 21.4558 9.67771L17.8779 6.13965L16.0833 7.9143L16.6682 8.50398Z" fill="#2C256C"/>
</g>
<defs>
<linearGradient id="paint0_linear_3707_221" x1="2.71832" y1="15.2456" x2="14.7571" y2="3.07095" gradientUnits="userSpaceOnUse">
<stop stop-color="#754FA0"/>
<stop offset="0.181" stop-color="#6E4A99"/>
<stop offset="0.457" stop-color="#5C3F8B"/>
<stop offset="0.791" stop-color="#413079"/>
<stop offset="1" stop-color="#2C256C"/>
</linearGradient>
<linearGradient id="paint1_linear_3707_221" x1="8.50426" y1="20.9659" x2="20.543" y2="8.79121" gradientUnits="userSpaceOnUse">
<stop stop-color="#754FA0"/>
<stop offset="0.181" stop-color="#6E4A99"/>
<stop offset="0.457" stop-color="#5C3F8B"/>
<stop offset="0.791" stop-color="#413079"/>
<stop offset="1" stop-color="#2C256C"/>
</linearGradient>
<linearGradient id="paint2_linear_3707_221" x1="5.63433" y1="18.1286" x2="17.6731" y2="5.95386" gradientUnits="userSpaceOnUse">
<stop stop-color="#623393"/>
<stop offset="0.574" stop-color="#452B7C"/>
<stop offset="1" stop-color="#2C256C"/>
</linearGradient>
<linearGradient id="paint3_linear_3707_221" x1="4.48009" y1="19.27" x2="18.9382" y2="4.64866" gradientUnits="userSpaceOnUse">
<stop stop-color="#754FA0"/>
<stop offset="0.181" stop-color="#6E4A99"/>
<stop offset="0.457" stop-color="#5C3F8B"/>
<stop offset="0.791" stop-color="#413079"/>
<stop offset="1" stop-color="#2C256C"/>
</linearGradient>
<clipPath id="clip0_3707_221">
<rect width="24" height="24" fill="white"/>
</clipPath>
</defs>
</svg>
