<svg width="24" height="24" viewBox="0 0 24 24" fill="none" xmlns="http://www.w3.org/2000/svg">
<path d="M22.4708 17.9999C22.6394 17.71 22.7442 17.3834 22.7442 17.0902V6.90968C22.7442 6.61639 22.6395 6.28987 22.4708 6L12 11.9999L22.4708 17.9999Z" fill="#00599C"/>
<path d="M12.9305 23.7799L21.8138 18.6897C22.0697 18.5431 22.3022 18.2899 22.4709 17.9999L12.0001 12L1.5293 18C1.6979 18.2899 1.93055 18.5432 2.18638 18.6897L11.0696 23.7799C11.5813 24.0732 12.4188 24.0732 12.9305 23.7799Z" fill="#004482"/>
<path d="M22.4709 5.99995C22.3022 5.71001 22.0695 5.45681 21.8137 5.31016L12.9305 0.219962C12.4188 -0.0733206 11.5813 -0.0733206 11.0696 0.219962L2.18632 5.31016C1.67453 5.60338 1.25586 6.3232 1.25586 6.90969V17.0902C1.25586 17.3835 1.36056 17.71 1.52924 17.9999L12 12L22.4709 5.99995Z" fill="#659AD2"/>
<path d="M11.9997 19.1097C8.05012 19.1097 4.83691 15.9206 4.83691 12.0006C4.83691 8.0807 8.05012 4.8916 11.9997 4.8916C14.5482 4.8916 16.9251 6.25277 18.2026 8.44388L15.1027 10.2242C14.4633 9.12747 13.2742 8.44611 11.9997 8.44611C10.0249 8.44611 8.4183 10.0406 8.4183 12.0006C8.4183 13.9606 10.0249 15.5551 11.9997 15.5551C13.2744 15.5551 14.4635 14.8738 15.1029 13.7768L18.2028 15.5571C16.9253 17.7484 14.5484 19.1097 11.9997 19.1097Z" fill="white"/>
<path d="M19.1625 11.6057H18.3665V10.8158H17.5708V11.6057H16.7749V12.3955H17.5708V13.1855H18.3665V12.3955H19.1625V11.6057Z" fill="white"/>
<path d="M22.1469 11.6057H21.351V10.8158H20.5553V11.6057H19.7594V12.3955H20.5553V13.1855H21.351V12.3955H22.1469V11.6057Z" fill="white"/>
</svg>
