<svg width="24" height="24" viewBox="0 0 24 24" fill="none" xmlns="http://www.w3.org/2000/svg">
<path d="M22.677 7.05598C22.6768 6.65243 22.5905 6.29584 22.416 5.98988C22.2445 5.68884 21.9877 5.43661 21.6433 5.23717C18.8002 3.598 15.9544 1.96384 13.1122 0.322996C12.346 -0.119319 11.6031 -0.10311 10.8425 0.345555C9.71089 1.01279 4.0452 4.25846 2.3569 5.23625C1.6616 5.6388 1.32327 6.25473 1.32311 7.05523C1.32202 10.3517 1.32311 13.6482 1.32202 16.9447C1.32202 17.3393 1.40483 17.6891 1.57169 17.9904C1.74324 18.3005 2.00361 18.5597 2.35598 18.7636C4.04436 19.7414 9.71081 22.9868 10.8422 23.6543C11.6031 24.1032 12.346 24.1193 13.1125 23.6769C15.9547 22.036 18.8007 20.4018 21.6442 18.7626C21.9966 18.5588 22.257 18.2994 22.4285 17.9896C22.5951 17.6882 22.6781 17.3385 22.6781 16.9437C22.6781 16.9437 22.6781 10.3525 22.677 7.05598Z" fill="#A179DC"/>
<path d="M12.0328 11.9678L1.57178 17.9904C1.74332 18.3005 2.00369 18.5596 2.35606 18.7636C4.04444 19.7414 9.71089 22.9868 10.8423 23.6543C11.6032 24.1032 12.3461 24.1192 13.1126 23.6768C15.9548 22.0359 18.8008 20.4018 21.6443 18.7626C21.9967 18.5587 22.257 18.2994 22.4286 17.9896L12.0328 11.9678Z" fill="#280068"/>
<path d="M22.677 7.05634C22.6768 6.65279 22.5905 6.2962 22.416 5.99023L12.0327 11.9683L22.4285 17.99C22.5951 17.6885 22.6779 17.3389 22.6781 16.9441C22.6781 16.9441 22.6781 10.3529 22.677 7.05634Z" fill="#390091"/>
<path d="M18.1917 9.71618V10.8419H19.3176V9.71618H19.8805V10.8419H21.0064V11.4048H19.8805V12.5305H21.0064V13.0934H19.8805V14.2191H19.3176V13.0934H18.1917V14.2191H17.6288V13.0934H16.503V12.5305H17.6288V11.4048H16.503V10.8419H17.6288V9.71618H18.1917ZM19.3176 11.4047H18.1917V12.5305H19.3176V11.4047Z" fill="white"/>
<path d="M12.0556 4.0625C14.9922 4.0625 17.556 5.65714 18.9293 8.02746L18.9159 8.00465L15.4608 9.99382C14.7801 8.84141 13.5322 8.06364 12.1006 8.0476L12.0555 8.04735C9.87253 8.04735 8.10276 9.81694 8.10276 11.9997C8.10204 12.6877 8.2818 13.3638 8.62408 13.9606C9.30542 15.15 10.5863 15.9521 12.0556 15.9521C13.534 15.9521 14.8221 15.1398 15.5 13.9377L15.4835 13.9665L18.9334 15.9649C17.5751 18.3152 15.0464 19.9049 12.144 19.9366L12.0556 19.9371C9.10972 19.9371 6.53863 18.3326 5.16877 15.9497C4.50005 14.7864 4.11743 13.4378 4.11743 11.9997C4.11743 7.61614 7.67143 4.0625 12.0556 4.0625Z" fill="white"/>
</svg>
