<svg width="24" height="24" viewBox="0 0 24 24" fill="none" xmlns="http://www.w3.org/2000/svg">
<path d="M8.24549 6.86269C8.24549 8.41402 9.53149 9.67162 11.1179 9.67162C11.7592 9.67162 12.3872 9.30093 12.96 9.02728C14.1457 8.46087 15.4425 8.02516 16.7615 8.0787C18.9221 8.16641 20.8082 9.28914 22.1363 10.7723C20.7007 10.5928 19.7269 11.5743 19.4174 12.0925C18.6109 11.4008 17.5541 10.9815 16.397 10.9815C15.3371 10.9815 14.6364 11.4429 13.5849 11.9242C12.7517 12.3056 11.9167 12.5093 11.0332 12.5093C10.5111 12.5093 9.9711 12.4142 9.48916 12.2894C10.7311 13.1921 11.5319 14.2407 11.8806 16.2269C12.2514 18.338 14.1324 19.9444 16.397 19.9444C18.2397 19.9444 19.8284 18.8809 20.5562 17.3472C21.188 17.7546 22.8023 17.9508 23.7918 17.3397C22.9923 20.5864 19.9849 23 16.397 23C12.5241 23 9.32757 20.1876 8.85433 16.5509C8.66412 15.1468 7.4334 14.0958 5.94558 14.0958C4.32594 14.0958 3.01296 15.3798 3.01296 16.9637C3.01296 18.5476 4.32594 19.8315 5.94558 19.8315C6.28683 19.8315 6.69488 19.8022 7.12749 19.6389C7.38797 19.5406 7.56757 19.4861 7.80447 19.4861C8.64723 19.4861 9.31457 20.1132 9.31457 20.9495C9.31457 21.6212 8.79392 22.1343 8.169 22.3889C7.54409 22.6435 6.59839 22.7732 5.94558 22.7732C2.66145 22.7732 0 20.1705 0 16.9589C0 13.7473 2.66145 11.1446 5.94558 11.1446C6.48052 11.1446 6.99893 11.2137 7.49202 11.3431C6.07873 10.2921 5.1486 8.62496 5.1486 6.75463C5.1486 3.57644 7.78322 1 11.0332 1C13.3894 1 15.4596 2.32407 16.362 4.31019C16.4598 4.52533 16.5218 4.66287 16.5371 4.88819C16.5916 5.68976 15.9614 6.38336 15.1296 6.43737C14.485 6.47924 13.9267 6.11601 13.6746 5.58124C13.1983 4.67428 12.2322 4.05377 11.1179 4.05377C9.53149 4.05377 8.24549 5.31137 8.24549 6.86269Z" fill="#F69505"/>
<path d="M22.1773 16.074C23.184 16.074 24 15.2532 24 14.2407C24 13.2282 23.184 12.4074 22.1773 12.4074C21.1707 12.4074 20.3547 13.2282 20.3547 14.2407C20.3547 15.2532 21.1707 16.074 22.1773 16.074Z" fill="#F69505"/>
</svg>
