<svg width="24" height="24" viewBox="0 0 24 24" fill="none" xmlns="http://www.w3.org/2000/svg">
<path d="M8.24549 6.86269C8.24549 8.41402 9.53149 9.67162 11.1179 9.67162C11.7592 9.67162 12.3872 9.30093 12.96 9.02728C14.1457 8.46087 15.4425 8.02516 16.7615 8.0787C18.9221 8.16641 20.8082 9.28914 22.1363 10.7723C20.7007 10.5928 19.7269 11.5743 19.4174 12.0925C18.6109 11.4008 17.5541 10.9815 16.397 10.9815C15.3371 10.9815 14.6364 11.4429 13.5849 11.9242C12.7517 12.3056 11.9167 12.5093 11.0332 12.5093C10.5111 12.5093 9.9711 12.4142 9.48916 12.2894C10.7311 13.1921 11.5319 14.2407 11.8806 16.2269C12.1716 17.8839 13.393 19.2299 15 19.7324C15 19.7324 15 21.9206 15 22.8756C11.7777 22.2944 9.26926 19.7395 8.85433 16.5509C8.66412 15.1468 7.4334 14.0958 5.94558 14.0958C4.32594 14.0958 3.01296 15.3798 3.01296 16.9637C3.01296 18.5476 4.32594 19.8315 5.94558 19.8315C6.28683 19.8315 6.69488 19.8022 7.12749 19.6389C7.38797 19.5406 7.56757 19.4861 7.80447 19.4861C8.64723 19.4861 9.31457 20.1132 9.31457 20.9495C9.31457 21.6212 8.79392 22.1343 8.169 22.3889C7.54409 22.6435 6.59839 22.7732 5.94558 22.7732C2.66145 22.7732 0 20.1705 0 16.9589C0 13.7473 2.66145 11.1446 5.94558 11.1446C6.48052 11.1446 6.99893 11.2137 7.49202 11.3431C6.07873 10.2921 5.1486 8.62495 5.1486 6.75463C5.1486 3.57644 7.78322 1 11.0332 1C13.3894 1 15.4596 2.32407 16.362 4.31019C16.4598 4.52533 16.5218 4.66287 16.5371 4.88819C16.5916 5.68976 15.9614 6.38336 15.1296 6.43737C14.485 6.47924 13.9267 6.116 13.6746 5.58124C13.1983 4.67428 12.2322 4.05377 11.1179 4.05377C9.53149 4.05377 8.24549 5.31137 8.24549 6.86269Z" fill="#26D07C"/>
<path d="M22.1773 16.074C23.184 16.074 24 15.2532 24 14.2407C24 13.2282 23.184 12.4074 22.1773 12.4074C21.1707 12.4074 20.3547 13.2282 20.3547 14.2407C20.3547 15.2532 21.1707 16.074 22.1773 16.074Z" fill="#26D07C"/>
<path d="M20.6045 20.651V19.6142H21.1634C21.9086 19.6142 22.1273 19.4117 22.1273 18.95C22.1273 18.5855 21.9572 18.3911 21.1796 18.3911C20.5883 18.3911 19.9889 18.5936 19.5596 18.869V17.5892C20.078 17.3867 20.8556 17.2328 21.5117 17.2328C23.1155 17.2328 23.5205 17.7998 23.5205 18.6989C23.5205 19.3955 23.1641 19.8491 22.3946 20.0597C23.3099 20.1812 23.7068 20.6591 23.7068 21.38C23.7068 22.433 23.1317 23.0972 21.3821 23.0972C20.6855 23.0972 19.9646 22.9595 19.4786 22.7408V21.4043C19.9079 21.704 20.5559 21.9308 21.212 21.9308C22.1192 21.9308 22.3136 21.6878 22.3136 21.2666C22.3136 20.8697 22.1273 20.651 21.2606 20.651H20.6045Z" fill="#26D07C"/>
<path d="M17.8298 21.8544C17.8298 21.3569 15.8627 21.6924 15.8627 20.0666C15.8627 19.3319 16.3082 18.8574 17.5405 18.8574C18.1075 18.8574 18.5993 18.9442 18.8886 19.0541V20.1476C18.5646 19.9567 18.1133 19.8005 17.6563 19.8005C17.1703 19.8005 17.043 19.9509 17.043 20.084C17.043 20.5584 19.12 20.2691 19.12 21.8197C19.12 22.6239 18.5935 23.0926 17.3323 23.0926C16.771 23.0926 16.233 22.9884 15.9148 22.8438V21.7329C16.0999 21.8486 16.5512 22.1495 17.2513 22.1495C17.662 22.1495 17.8298 22.0106 17.8298 21.8544Z" fill="#26D07C"/>
</svg>
