<svg width="24" height="24" viewBox="0 0 24 24" fill="none" xmlns="http://www.w3.org/2000/svg">
<path d="M13.8743 12.6801C13.4783 12.6856 13.9492 12.885 14.4662 12.9649C14.609 12.8529 14.7386 12.7396 14.8541 12.6294C14.5321 12.7086 14.2044 12.7104 13.8743 12.6801Z" fill="#A80030"/>
<path d="M15.9997 12.1475C16.2355 11.8206 16.4074 11.4628 16.468 11.0928C16.4151 11.3566 16.2726 11.5843 16.1384 11.8246C15.3981 12.2927 16.0687 11.5467 16.1379 11.2632C15.3419 12.2692 16.0286 11.8664 15.9997 12.1475Z" fill="#A80030"/>
<path d="M16.7844 10.0979C16.8323 9.38179 16.6441 9.60818 16.5808 9.88149C16.6546 9.91999 16.713 10.3863 16.7844 10.0979Z" fill="#A80030"/>
<path d="M12.3726 0.30957C12.5839 0.347634 12.8292 0.376846 12.7948 0.427524C13.026 0.376625 13.0784 0.329709 12.3726 0.30957Z" fill="#A80030"/>
<path d="M12.7949 0.427734L12.6455 0.458717L12.7846 0.446324L12.7949 0.427734Z" fill="#A80030"/>
<path d="M19.3849 10.3692C19.4085 11.0123 19.1976 11.3243 19.0074 11.8767L18.6652 12.0484C18.3851 12.5946 18.6923 12.3952 18.4918 12.8296C18.0545 13.22 17.1649 14.0512 16.8802 14.1271C16.6724 14.1225 17.021 13.8808 17.0666 13.7861C16.4813 14.1897 16.597 14.392 15.7018 14.6372L15.6756 14.5788C13.4679 15.6218 10.4012 13.5548 10.4415 10.7345C10.418 10.9136 10.3746 10.8689 10.3256 10.9412C10.2117 9.49015 10.9929 8.03266 12.3105 7.43758C13.5993 6.79691 15.1101 7.05981 16.0333 7.92378C15.5262 7.25677 14.5169 6.54971 13.3207 6.61588C12.149 6.63447 11.0529 7.38225 10.687 8.19399C10.0868 8.57352 10.0171 9.65702 9.75553 9.8553C9.4036 12.4527 10.4175 13.5749 12.1327 14.895C12.4026 15.0778 12.2087 15.1055 12.2453 15.2447C11.6754 14.9767 11.1536 14.5721 10.7245 14.0769C10.9522 14.4115 11.1979 14.7368 11.5154 14.9924C10.9782 14.8096 10.2604 13.6849 10.0508 13.6391C10.9771 15.3044 13.8086 16.5597 15.2913 15.9369C14.6053 15.9624 13.7337 15.9511 12.9628 15.6649C12.6391 15.4976 12.1988 15.1511 12.2775 15.0862C14.3009 15.8453 16.3912 15.6612 18.142 14.2517C18.5874 13.9034 19.074 13.3107 19.2146 13.3025C19.0028 13.6223 19.2507 13.4563 19.0881 13.7387C19.5319 13.0199 18.8953 13.4462 19.5469 12.4974L19.7875 12.8303C19.6981 12.2336 20.5253 11.5091 20.4414 10.5655C20.6311 10.2769 20.6532 10.8759 20.4517 11.5399C20.7312 10.8034 20.5253 10.685 20.5972 10.0773C20.6748 10.2815 20.7766 10.4986 20.8288 10.7142C20.6468 10.0025 21.0157 9.5156 21.1069 9.10199C21.017 9.06193 20.8259 9.41668 20.7823 8.57596C20.7887 8.21081 20.8835 8.38453 20.92 8.29468C20.8486 8.25352 20.6613 7.97357 20.5474 7.43669C20.63 7.31055 20.7682 7.76378 20.8806 7.78237C20.8083 7.35547 20.6838 7.02994 20.6787 6.70241C20.3504 6.01328 20.5626 6.79425 20.2962 6.40653C19.9466 5.31175 20.5862 6.15248 20.6294 5.65499C21.1591 6.42578 21.4613 7.62037 21.5999 8.1152C21.4941 7.51193 21.3231 6.92748 21.1144 6.36205C21.2753 6.42999 20.8552 5.12076 21.3235 5.98783C20.8233 4.13951 19.1826 2.41247 17.6733 1.60206C17.858 1.7718 18.0911 1.98491 18.0074 2.01833C17.2568 1.56953 17.3888 1.53456 17.2812 1.34491C16.6697 1.09506 16.6296 1.36504 16.2246 1.34535C15.072 0.731457 14.8499 0.796741 13.7892 0.412118L13.8375 0.63851C13.0739 0.383127 12.9478 0.73544 12.1226 0.639395C12.0723 0.600003 12.387 0.496877 12.6459 0.459034C11.9077 0.556849 11.9423 0.312974 11.2199 0.486033C11.398 0.360554 11.5862 0.277566 11.7761 0.170898C11.1741 0.207635 10.3389 0.522769 10.5967 0.236183C9.61471 0.676131 7.87069 1.29379 6.89201 2.21529L6.86116 2.00881C6.4127 2.54945 4.90558 3.62343 4.78547 4.32363L4.66559 4.35174C4.43222 4.74853 4.28126 5.19822 4.09615 5.60652C3.79093 6.1288 3.64879 5.80747 3.69221 5.88935C3.09191 7.1116 2.79375 8.13866 2.53613 8.98094C2.7197 9.25646 2.54054 10.6396 2.60996 11.7466C2.30849 17.2136 6.43077 22.5218 10.9367 23.7473C11.5972 23.9846 12.5794 23.9755 13.4148 23.9998C12.4291 23.7168 12.3017 23.8498 11.3415 23.5136C10.6489 23.1861 10.4971 22.8121 10.0065 22.3845L10.2007 22.7291C9.23854 22.3872 9.64116 22.306 8.85839 22.057L9.06576 21.785C8.75394 21.7614 8.23981 21.2572 8.09921 20.9782L7.75808 20.9917C7.34818 20.4838 7.12979 20.1177 7.14566 19.8343L7.03547 20.0314C6.91052 19.8161 5.52747 18.1267 6.245 18.5199C6.11167 18.3976 5.93449 18.3208 5.74233 17.9702L5.88844 17.8025C5.54311 17.3563 5.25288 16.7845 5.27492 16.594C5.45915 16.8438 5.58697 16.8905 5.71346 16.9332C4.84145 14.7605 4.79253 16.8135 4.13207 14.7215L4.27179 14.7102C4.16468 14.5482 4.09967 14.3723 4.01351 14.1997L4.07433 13.5911C3.44649 12.8621 3.89869 10.4915 3.98927 9.1914C4.05207 8.66271 4.51331 8.09993 4.86415 7.21738L4.65038 7.18042C5.05896 6.46473 6.98325 4.30615 7.87443 4.41724C8.30614 3.87262 7.78871 4.41525 7.7043 4.27805C8.65257 3.29259 8.95073 3.58183 9.59069 3.40457C10.2809 2.99317 8.99833 3.56501 9.32558 3.24766C10.5187 2.9416 10.1712 2.55189 11.7276 2.39653C11.8918 2.49037 11.3466 2.54149 11.2098 2.6632C12.2039 2.17479 14.3556 2.28588 15.7532 2.9343C17.3749 3.69536 19.1969 5.94512 19.2688 8.06187L19.3505 8.084C19.3091 8.92539 19.4788 9.89846 19.1848 10.7923L19.3849 10.3692Z" fill="#A80030"/>
<path d="M9.55187 13.2256L9.49634 13.5044C9.7566 13.8594 9.96309 14.244 10.2954 14.5215C10.0563 14.0528 9.87868 13.8592 9.55187 13.2256Z" fill="#A80030"/>
<path d="M10.1672 13.2012C10.0295 13.0482 9.94792 12.8641 9.85669 12.6807C9.94396 13.0031 10.1227 13.2802 10.2891 13.5619L10.1672 13.2012Z" fill="#A80030"/>
<path d="M21.0543 10.8252L20.9961 10.9717C20.8895 11.7325 20.6592 12.4854 20.3062 13.1834C20.6962 12.4469 20.9485 11.6414 21.0543 10.8252Z" fill="#A80030"/>
<path d="M12.451 0.118839C12.7187 0.0203598 13.1092 0.0648415 13.3933 0C13.0231 0.0312036 12.6546 0.049793 12.2908 0.0969304L12.451 0.118839Z" fill="#A80030"/>
<path d="M3.05075 5.13867C3.11246 5.71229 2.62103 5.93492 3.15962 5.55671C3.44831 4.90365 3.04679 5.37635 3.05075 5.13867Z" fill="#A80030"/>
<path d="M2.418 7.79339C2.54207 7.41097 2.56454 7.18126 2.61192 6.95996C2.26903 7.40013 2.45414 7.49396 2.418 7.79339Z" fill="#A80030"/>
</svg>
