<svg width="24" height="24" viewBox="0 0 24 24" fill="none" xmlns="http://www.w3.org/2000/svg">
<g clip-path="url(#clip0_3268_157)">
<path d="M23.7483 5.02705C23.4944 4.90022 23.3852 5.14191 23.2367 5.26459C23.1859 5.30417 23.1429 5.35559 23.1 5.40306C22.7289 5.807 22.2953 6.07236 21.7289 6.04067C20.9009 5.9932 20.1937 6.25848 19.5688 6.90392C19.436 6.10799 18.9946 5.63258 18.3228 5.32784C17.9712 5.16946 17.6158 5.01094 17.3697 4.66643C17.1978 4.421 17.1509 4.14769 17.065 3.87839C17.0104 3.71613 16.9555 3.54973 16.7719 3.52192C16.5727 3.49023 16.4945 3.66044 16.4165 3.80318C16.104 4.38536 15.9829 5.02685 15.9947 5.67623C16.0221 7.13765 16.6275 8.30176 17.8307 9.12957C17.9674 9.22464 18.0025 9.31964 17.9596 9.45824C17.8776 9.74345 17.7799 10.0206 17.694 10.3058C17.6393 10.488 17.5571 10.5275 17.3658 10.4484C16.7057 10.1673 16.1353 9.75134 15.6313 9.2485C14.7759 8.40491 14.0025 7.47427 13.0376 6.74554C12.8143 6.57724 12.585 6.41741 12.3501 6.26637C11.3658 5.29221 12.4791 4.49214 12.7368 4.3972C13.0063 4.29812 12.8306 3.95762 11.9594 3.96156C11.0883 3.96551 10.2914 4.26248 9.2759 4.65854C9.1274 4.71804 8.97123 4.76156 8.811 4.79707C7.88915 4.61883 6.93214 4.57925 5.9321 4.69405C4.04924 4.90779 2.54547 5.81476 1.44003 7.36323C0.111983 9.22483 -0.200611 11.3394 0.182231 13.5453C0.584555 15.8698 1.74857 17.7946 3.53764 19.2995C5.39309 20.8596 7.52985 21.624 9.96721 21.4775C11.4476 21.3904 13.0961 21.1885 14.9555 19.5845C15.4242 19.8221 15.9163 19.9172 16.7328 19.9885C17.3617 20.048 17.9672 19.9568 18.4359 19.8579C19.1703 19.6995 19.1196 19.0064 18.8539 18.8798C16.7017 17.8581 17.1741 18.2739 16.7445 17.9373C17.6963 16.7898 19.0682 15.6032 19.833 12.3888C20.0164 11.6181 20.1312 10.7569 20.1312 9.94962C20.1312 9.78792 20.1663 9.70813 20.3617 9.68828C20.9007 9.62484 21.4241 9.47454 21.9046 9.20511C23.2991 8.42891 23.8617 7.15375 23.9945 5.62514C24.014 5.39154 23.9906 5.14973 23.7483 5.02705ZM11.5962 18.7845C9.51025 17.1134 8.4986 16.5628 8.08066 16.5866C7.69008 16.6104 7.76033 17.0658 7.84625 17.3628C7.93604 17.6559 8.05338 17.8578 8.21735 18.1152C8.33062 18.2856 8.4088 18.5389 8.10414 18.7292C7.43231 19.1528 6.2643 18.5866 6.20954 18.5587C4.85021 17.743 3.71348 16.6658 2.91264 15.1927C2.13928 13.7748 1.68999 12.2543 1.61588 10.6306C1.59633 10.2386 1.70967 10.0998 2.09238 10.0287C2.59624 9.93352 3.11577 9.91366 3.61969 9.98888C5.74852 10.3058 7.56094 11.276 9.08051 12.8125C9.94773 13.6876 10.6039 14.7332 11.2798 15.7549C11.9986 16.8399 12.772 17.8736 13.7563 18.7211C14.104 19.0181 14.3813 19.2438 14.647 19.4102C13.8461 19.5012 12.5102 19.5211 11.5962 18.7845ZM12.6052 12.1543C12.6382 12.0177 12.7588 11.9177 12.9048 11.9177C12.9408 11.9178 12.9765 11.9245 13.0102 11.9374C13.0532 11.9533 13.0923 11.9771 13.1235 12.0126C13.1782 12.0682 13.2095 12.1473 13.2095 12.2304C13.2095 12.4047 13.0728 12.5433 12.9009 12.5433C12.8284 12.5439 12.7581 12.5179 12.7028 12.47C12.6476 12.4221 12.6112 12.3555 12.6003 12.2824C12.5935 12.2398 12.5952 12.1962 12.6052 12.1543ZM15.6009 13.8949C15.4355 13.9593 15.2709 14.0099 15.1118 14.0165C14.8149 14.0323 14.4907 13.9095 14.315 13.7591C14.0417 13.5255 13.8463 13.3949 13.7643 12.9868C13.7291 12.8125 13.7486 12.5433 13.7799 12.3888C13.8502 12.0561 13.772 11.8423 13.5417 11.6483C13.3542 11.4899 13.1158 11.4463 12.8542 11.4463C12.7565 11.4463 12.6667 11.4028 12.6003 11.3672C12.4909 11.3118 12.4011 11.1732 12.487 11.0028C12.5144 10.9475 12.6472 10.8127 12.6785 10.7891C13.0339 10.5831 13.4441 10.6504 13.8229 10.8049C14.1745 10.9514 14.4402 11.2206 14.823 11.6008C15.2135 12.0601 15.2838 12.1869 15.5066 12.5314C15.6824 12.8007 15.8425 13.078 15.9519 13.3947C16.0076 13.5603 15.9564 13.7012 15.8034 13.8006C15.7411 13.8411 15.6695 13.8682 15.6009 13.8949Z" fill="#4D6BFE"/>
</g>
<defs>
<clipPath id="clip0_3268_157">
<rect width="24" height="24" fill="white"/>
</clipPath>
</defs>
</svg>
