<svg width="40" height="40" viewBox="0 0 40 40" fill="none" xmlns="http://www.w3.org/2000/svg">
<g clip-path="url(#clip0_630_610)">
<g clip-path="url(#clip1_630_610)">
<path d="M30.5102 15.6386C32.8577 14.2136 35.9152 14.9615 37.3385 17.309C38.7635 19.6566 38.0156 22.7141 35.6681 24.1374C35.6055 24.1753 35.5429 24.2116 35.4803 24.2462L9.58186 39.1599C7.23434 40.5849 4.17681 39.8369 2.75182 37.4894C1.32684 35.1419 2.07475 32.0844 4.42227 30.6594C4.48487 30.6215 4.54747 30.5853 4.61007 30.5507L30.5102 15.6386Z" fill="#81C995"/>
<path d="M11.9012 5.00312C11.9128 2.26353 9.70034 0.0313303 6.96075 0.0197986C6.60821 0.0181512 6.25732 0.0543936 5.91137 0.126878C3.59021 0.696871 1.96755 2.79234 2.00049 5.18433V34.8058L11.8914 34.9854L11.9012 5.00312Z" fill="#34A853"/>
<path d="M30.6222 24.2643C33.0159 25.5048 35.9614 24.7107 37.4078 22.4341C38.7982 20.0948 38.0289 17.0702 35.6896 15.6798C35.6715 15.6699 35.655 15.66 35.6369 15.6485L9.56545 0.708426C7.2443 -0.693493 4.22465 0.0511219 2.82108 2.37228C2.78649 2.42994 2.75189 2.48924 2.71895 2.54855C1.34174 4.90595 2.13577 7.93548 4.49317 9.31433C4.50965 9.32421 4.52612 9.33245 4.54259 9.34234L30.6222 24.2643Z" fill="#5BB974"/>
<path d="M35.4649 24.2991L11.8926 37.4666V26.1557L30.5969 15.7261C33.0762 14.3522 36.2013 15.2484 37.5752 17.7293C37.7037 17.9599 37.8124 18.2005 37.903 18.4476C38.6048 20.7292 37.5802 23.1887 35.4649 24.2991Z" fill="#81C995"/>
<path d="M6.9552 39.9983C9.68648 39.9983 11.9006 37.7841 11.9006 35.0529C11.9006 32.3216 9.68648 30.1074 6.9552 30.1074C4.22391 30.1074 2.00977 32.3216 2.00977 35.0529C2.00977 37.7841 4.22391 39.9983 6.9552 39.9983Z" fill="#1E8E3E"/>
</g>
</g>
<defs>
<clipPath id="clip0_630_610">
<rect width="40" height="40" fill="white"/>
</clipPath>
<clipPath id="clip1_630_610">
<rect width="36.1221" height="40" fill="white" transform="translate(2)"/>
</clipPath>
</defs>
</svg>
