<svg width="24" height="24" viewBox="0 0 24 24" fill="none" xmlns="http://www.w3.org/2000/svg">
<path d="M18.3063 9.38322C19.7148 8.52823 21.5493 8.97698 22.4033 10.3855C23.2583 11.794 22.8096 13.6285 21.4011 14.4825C21.3635 14.5053 21.3259 14.527 21.2884 14.5478L5.74931 23.496C4.3408 24.351 2.50628 23.9022 1.65129 22.4937C0.7963 21.0852 1.24505 19.2507 2.65355 18.3957C2.69111 18.373 2.72867 18.3512 2.76623 18.3305L18.3063 9.38322Z" fill="#81C995"/>
<path d="M7.14094 3.00174C7.14786 1.35799 5.8204 0.01867 4.17665 0.011751C3.96512 0.0107626 3.75459 0.032508 3.54702 0.0759987C2.15432 0.417994 1.18072 1.67527 1.20049 3.11047V20.8834L7.13501 20.9911L7.14094 3.00174Z" fill="#34A853"/>
<path d="M18.3731 14.5588C19.8093 15.3031 21.5766 14.8267 22.4445 13.4606C23.2787 12.0571 22.8171 10.2423 21.4136 9.4081C21.4027 9.40216 21.3928 9.39623 21.3819 9.38932L5.73908 0.425269C4.34638 -0.415882 2.53459 0.0308868 1.69245 1.42358C1.6717 1.45818 1.65094 1.49376 1.63117 1.52934C0.804847 2.94378 1.28127 4.7615 2.69571 5.58881C2.70559 5.59474 2.71548 5.59968 2.72536 5.60562L18.3731 14.5588Z" fill="#5BB974"/>
<path d="M21.2791 14.5795L7.13574 22.48V15.6935L18.3583 9.43576C19.8459 8.61141 21.721 9.14911 22.5453 10.6377C22.6224 10.7761 22.6877 10.9204 22.742 11.0686C23.1631 12.4376 22.5483 13.9133 21.2791 14.5795Z" fill="#81C995"/>
<path d="M4.17331 23.999C5.81208 23.999 7.14057 22.6705 7.14057 21.0317C7.14057 19.3929 5.81208 18.0645 4.17331 18.0645C2.53454 18.0645 1.20605 19.3929 1.20605 21.0317C1.20605 22.6705 2.53454 23.999 4.17331 23.999Z" fill="#1E8E3E"/>
</svg>
