<svg width="24" height="24" viewBox="0 0 24 24" fill="none" xmlns="http://www.w3.org/2000/svg">
<path d="M2.8296 7.80078H4.14214V13.8761C3.46883 14.0039 2.97448 14.0551 2.43758 14.0551C0.835234 14.055 0 13.3307 0 11.9414C0 10.6033 0.886423 9.73401 2.25856 9.73401C2.47161 9.73401 2.63354 9.751 2.8296 9.80213V7.80078ZM2.8296 10.8589C2.6762 10.8078 2.54837 10.7908 2.38645 10.7908C1.72166 10.7908 1.3381 11.1999 1.3381 11.9158C1.3381 12.6147 1.70461 12.9982 2.37792 12.9982C2.52275 12.9982 2.64211 12.9897 2.8296 12.9642V10.8589Z" fill="#268B65"/>
<path d="M6.23036 9.82755V12.8702C6.23036 13.9185 6.15366 14.4213 5.92356 14.856C5.71045 15.2737 5.42916 15.5378 4.84965 15.8276L3.63086 15.2481C4.21043 14.9754 4.49166 14.7368 4.67063 14.3702C4.85817 13.9952 4.91788 13.5605 4.91788 12.4185V9.82755H6.23036ZM4.91788 7.80762H6.23036V9.15424H4.91788V7.80762Z" fill="#268B65"/>
<path d="M7.02277 10.1254C7.60239 9.85271 8.15633 9.7334 8.76147 9.7334C9.43478 9.7334 9.87794 9.91231 10.074 10.2618C10.1847 10.4578 10.2188 10.7135 10.2188 11.259V13.9266C9.63068 14.0118 8.88925 14.0715 8.34382 14.0715C7.2444 14.0715 6.75 13.6878 6.75 12.8356C6.75 11.9151 7.40627 11.489 9.01714 11.3526V11.0628C9.01714 10.8242 8.89782 10.739 8.5654 10.739C8.07963 10.739 7.53416 10.8754 7.02271 11.1396V10.1254H7.02277ZM9.07679 12.2135C8.20741 12.2987 7.92618 12.4351 7.92618 12.776C7.92618 13.0317 8.08816 13.151 8.44609 13.151C8.64216 13.151 8.82107 13.134 9.07679 13.0914V12.2135Z" fill="#268B65"/>
<path d="M10.8584 10.0316C11.6339 9.82709 12.2731 9.7334 12.9209 9.7334C13.5942 9.7334 14.08 9.88674 14.3699 10.1851C14.6426 10.4663 14.7278 10.7731 14.7278 11.4294V14.0033H13.4152V11.4806C13.4152 10.9778 13.2448 10.7902 12.7761 10.7902C12.5971 10.7902 12.4352 10.8072 12.1709 10.8839V14.0033H10.8584V10.0316Z" fill="#268B65"/>
<path d="M15.2381 14.7196C15.6984 14.9582 16.1586 15.0689 16.6444 15.0689C17.5051 15.0689 17.8717 14.7196 17.8717 13.8843C17.8717 13.8757 17.8717 13.8672 17.8717 13.8587C17.616 13.9865 17.3603 14.0377 17.0194 14.0377C15.8688 14.0377 15.1357 13.2791 15.1357 12.0774C15.1357 10.5858 16.2182 9.74219 18.1358 9.74219C18.6984 9.74219 19.2183 9.80179 19.849 9.92962L19.3996 10.8764C19.0501 10.8082 19.3716 10.8672 19.1075 10.8417V10.9781L19.1245 11.532L19.1329 12.2479C19.1415 12.4269 19.1415 12.6059 19.15 12.7848C19.15 12.9468 19.15 13.0235 19.15 13.1428C19.15 14.2679 19.0563 14.7963 18.7751 15.2309C18.3659 15.8702 17.6585 16.1855 16.6529 16.1855C16.1415 16.1855 15.6984 16.1088 15.2381 15.9298V14.7196H15.2381ZM17.8461 10.799C17.8291 10.799 17.8121 10.799 17.8036 10.799H17.7098C17.4542 10.7905 17.1559 10.8586 16.9513 10.9864C16.636 11.1655 16.474 11.4894 16.474 11.9496C16.474 12.6059 16.7979 12.9809 17.3774 12.9809C17.5564 12.9809 17.7013 12.9467 17.8717 12.8956V12.8018V12.444C17.8717 12.2906 17.8632 12.12 17.8632 11.9411L17.8548 11.336L17.8462 10.9013V10.799H17.8461Z" fill="#268B65"/>
<path d="M21.8863 9.7168C23.1988 9.7168 24 10.5436 24 11.8816C24 13.2539 23.1648 14.1147 21.8351 14.1147C20.5226 14.1147 19.7129 13.2879 19.7129 11.9584C19.7129 10.5775 20.5482 9.7168 21.8863 9.7168ZM21.8606 13.0577C22.3635 13.0577 22.6619 12.6401 22.6619 11.9156C22.6619 11.1998 22.372 10.7736 21.8693 10.7736C21.3493 10.7736 21.0509 11.1913 21.0509 11.9156C21.051 12.6401 21.3493 13.0577 21.8606 13.0577Z" fill="#268B65"/>
</svg>
