<svg width="24" height="24" viewBox="0 0 24 24" fill="none" xmlns="http://www.w3.org/2000/svg">
<path d="M2.8296 7.7998H4.14214V13.8751C3.46883 14.003 2.97448 14.0541 2.43758 14.0541C0.835234 14.054 0 13.3297 0 11.9404C0 10.6023 0.886423 9.73303 2.25856 9.73303C2.47161 9.73303 2.63354 9.75002 2.8296 9.80116V7.7998ZM2.8296 10.8579C2.6762 10.8068 2.54837 10.7898 2.38645 10.7898C1.72166 10.7898 1.3381 11.1989 1.3381 11.9148C1.3381 12.6137 1.70461 12.9972 2.37792 12.9972C2.52275 12.9972 2.64211 12.9887 2.8296 12.9632V10.8579Z" fill="#092E20"/>
<path d="M6.23036 9.82658V12.8692C6.23036 13.9175 6.15366 14.4203 5.92356 14.855C5.71045 15.2727 5.42916 15.5369 4.84965 15.8267L3.63086 15.2471C4.21043 14.9744 4.49166 14.7358 4.67063 14.3692C4.85817 13.9942 4.91788 13.5595 4.91788 12.4175V9.82658H6.23036ZM4.91788 7.80664H6.23036V9.15326H4.91788V7.80664Z" fill="#092E20"/>
<path d="M7.02277 10.1244C7.60239 9.85173 8.15633 9.73242 8.76147 9.73242C9.43478 9.73242 9.87794 9.91133 10.074 10.2608C10.1847 10.4568 10.2188 10.7125 10.2188 11.258V13.9256C9.63068 14.0108 8.88925 14.0705 8.34382 14.0705C7.2444 14.0705 6.75 13.6869 6.75 12.8346C6.75 11.9141 7.40627 11.488 9.01714 11.3516V11.0618C9.01714 10.8232 8.89782 10.738 8.5654 10.738C8.07963 10.738 7.53416 10.8744 7.02271 11.1386V10.1244H7.02277ZM9.07679 12.2125C8.20741 12.2977 7.92618 12.4341 7.92618 12.775C7.92618 13.0307 8.08816 13.15 8.44609 13.15C8.64216 13.15 8.82107 13.133 9.07679 13.0904V12.2125Z" fill="#092E20"/>
<path d="M10.8584 10.0306C11.6339 9.82611 12.2731 9.73242 12.9209 9.73242C13.5942 9.73242 14.08 9.88577 14.3699 10.1841C14.6426 10.4653 14.7278 10.7721 14.7278 11.4285V14.0023H13.4152V11.4796C13.4152 10.9768 13.2448 10.7892 12.7761 10.7892C12.5971 10.7892 12.4352 10.8062 12.1709 10.8829V14.0023H10.8584V10.0306Z" fill="#092E20"/>
<path d="M15.2379 14.7186C15.6982 14.9572 16.1584 15.0679 16.6442 15.0679C17.5049 15.0679 17.8714 14.7186 17.8714 13.8833C17.8714 13.8748 17.8714 13.8662 17.8714 13.8577C17.6157 13.9855 17.36 14.0367 17.0192 14.0367C15.8686 14.0367 15.1355 13.2782 15.1355 12.0765C15.1355 10.5849 16.218 9.74121 18.1355 9.74121C18.6981 9.74121 19.218 9.80081 19.8487 9.92865L19.3993 10.8754C19.0498 10.8072 19.3713 10.8663 19.1072 10.8407V10.9771L19.1242 11.531L19.1327 12.247C19.1412 12.4259 19.1412 12.6049 19.1498 12.7839C19.1498 12.9458 19.1498 13.0225 19.1498 13.1419C19.1498 14.2669 19.0561 14.7953 18.7748 15.2299C18.3657 15.8692 17.6583 16.1845 16.6526 16.1845C16.1412 16.1845 15.6981 16.1078 15.2378 15.9288V14.7186H15.2379ZM17.8459 10.798C17.8289 10.798 17.8119 10.798 17.8033 10.798H17.7095C17.4539 10.7895 17.1557 10.8576 16.951 10.9855C16.6357 11.1645 16.4737 11.4884 16.4737 11.9486C16.4737 12.6049 16.7977 12.9799 17.3772 12.9799C17.5561 12.9799 17.7011 12.9457 17.8715 12.8947V12.8009V12.443C17.8715 12.2896 17.863 12.119 17.863 11.9401L17.8545 11.335L17.846 10.9003V10.798H17.8459Z" fill="#092E20"/>
<path d="M21.8863 9.71582C23.1988 9.71582 24 10.5426 24 11.8806C24 13.2529 23.1648 14.1137 21.8351 14.1137C20.5226 14.1137 19.7129 13.2869 19.7129 11.9574C19.7129 10.5766 20.5482 9.71582 21.8863 9.71582ZM21.8606 13.0568C22.3635 13.0568 22.6619 12.6391 22.6619 11.9147C22.6619 11.1988 22.372 10.7726 21.8693 10.7726C21.3493 10.7726 21.0509 11.1903 21.0509 11.9147C21.051 12.6392 21.3493 13.0568 21.8606 13.0568Z" fill="#092E20"/>
</svg>
