<svg width="24" height="24" viewBox="0 0 24 24" fill="none" xmlns="http://www.w3.org/2000/svg">
<path d="M10.277 9.10897H12.8466V11.6753H10.277L10.277 9.10897Z" fill="#1D63ED"/>
<path d="M10.277 5.8707H12.8466V8.43616H10.277V5.8707Z" fill="#1D63ED"/>
<path d="M0.33206 9.10897H2.89995V11.6753H0.332044L0.33206 9.10897Z" fill="#1D63ED"/>
<path d="M13.5926 9.10897H16.1484V11.6753H13.5926L13.5926 9.10897Z" fill="#1D63ED"/>
<path d="M6.97167 9.10897H9.52618V11.6753H6.97165L6.97167 9.10897Z" fill="#1D63ED"/>
<path d="M3.65212 9.10897H6.20641V11.6753H3.6521L3.65212 9.10897Z" fill="#1D63ED"/>
<path d="M6.97165 5.8707H9.52618V8.43616H6.97165V5.8707Z" fill="#1D63ED"/>
<path d="M3.65359 5.8708L6.20641 5.8707V8.43616H3.6521L3.65359 5.8708Z" fill="#1D63ED"/>
<path d="M18.3242 6.95823C19.3257 7.57336 20.1358 8.50013 20.3522 9.66925C20.3665 9.74661 20.3973 10.0367 20.4136 10.0637C20.5963 10.0418 20.7636 9.98046 20.9495 9.96259C21.9167 9.86953 23.2417 9.89845 24 10.5974C23.6508 11.3256 23.3681 11.8724 22.6657 12.3344C21.7591 12.9306 20.8976 12.9224 19.8772 12.9251C19.676 13.4651 19.3844 14.0861 19.1274 14.5963C17.8679 17.0969 16.0536 19.2686 13.4671 20.4501C12.6889 20.8033 11.8688 21.0557 11.0267 21.201C10.6488 21.2665 10.2964 21.3209 9.91331 21.3353C9.83947 21.338 9.45059 21.3556 9.40374 21.3783H8.62461C8.55995 21.3476 7.97525 21.3328 7.85431 21.3214C6.66366 21.2188 5.51571 20.9155 4.45366 20.3715C2.03556 19.1331 0.659845 16.6516 0.348752 14.013C0.327711 13.8346 0.2787 12.9409 0.25 12.8625V12.4078L10.1095 12.4084C11.2033 12.4234 12.2972 12.4294 13.3911 12.4266C14.4168 12.4299 15.4426 12.4411 16.4624 12.3082C17.0495 12.2317 17.5572 12.0434 18.0742 11.7637C17.4437 10.8966 17.3264 10.0126 17.4724 8.97111C17.5976 8.07788 17.8876 7.6829 18.3242 6.95823Z" fill="#1D63ED"/>
<path d="M10.277 2.62207H12.8466V5.19707H10.277V2.62207Z" fill="#1D63ED"/>
</svg>
