<svg width="24" height="24" viewBox="0 0 24 24" fill="none" xmlns="http://www.w3.org/2000/svg">
<g clip-path="url(#clip0_1535_2742)">
<path d="M15.9632 5.11187C14.2744 3.42389 12.6632 1.81478 12.1837 0C11.7041 1.81478 10.0926 3.42389 8.40411 5.11187C5.87137 7.64302 2.99976 10.5117 2.99976 14.8142C2.99976 19.8794 7.11951 24 12.1837 24C17.2486 24 21.3678 19.8797 21.3681 14.8142C21.3681 10.512 18.4967 7.64302 15.9632 5.11187ZM6.90332 16.9543C6.34018 16.9352 4.26188 13.3529 8.11747 9.5387L10.6689 12.3257C10.6689 12.3257 10.8255 12.473 10.6518 12.6511C10.043 13.2755 7.44804 15.8778 7.1255 16.7776C7.05893 16.9633 6.9617 16.9563 6.90332 16.9543M12.1839 21.6756C11.7691 21.6756 11.3584 21.5939 10.9752 21.4351C10.5919 21.2764 10.2437 21.0437 9.95042 20.7504C9.65711 20.4571 9.42444 20.1089 9.26571 19.7257C9.10697 19.3424 9.02527 18.9317 9.02527 18.5169C9.02527 17.7172 9.34321 17.0045 9.81256 16.4305C10.3821 15.7341 12.1835 13.7752 12.1835 13.7752C12.1835 13.7752 13.9574 15.7628 14.5502 16.4239C15.0667 16.998 15.3494 17.7447 15.3426 18.5169C15.3426 19.3546 15.0098 20.1581 14.4175 20.7504C13.8251 21.3428 13.0217 21.6756 12.184 21.6756M18.2296 16.5533C18.1616 16.7022 18.0071 16.9508 17.7987 16.9584C17.4272 16.9719 17.3875 16.7815 17.1128 16.3751C16.5099 15.4829 11.2484 9.98398 10.2643 8.9205C9.39865 7.98513 10.1424 7.32567 10.4874 6.98009C10.9202 6.54649 12.1836 5.28385 12.1836 5.28385C12.1836 5.28385 15.9508 8.85816 17.5201 11.3004C19.0894 13.7426 18.5485 15.8559 18.2296 16.5533" fill="#009CDE"/>
</g>
<defs>
<clipPath id="clip0_1535_2742">
<rect width="18.3684" height="24" fill="white" transform="translate(3)"/>
</clipPath>
</defs>
</svg>
