<svg width="24" height="24" viewBox="0 0 24 24" fill="none" xmlns="http://www.w3.org/2000/svg">
<g clip-path="url(#clip0_3091_88)">
<path d="M12 24C18.6274 24 24 18.6274 24 12C24 5.37258 18.6274 0 12 0C5.37258 0 0 5.37258 0 12C0 18.6274 5.37258 24 12 24Z" fill="#0A68A3"/>
<path d="M16.7061 9.63379C16.8663 9.63379 16.9961 9.76361 16.9961 9.92383V17.6709C16.9961 17.7483 16.9652 17.8225 16.9102 17.877C16.8551 17.9313 16.7805 17.9617 16.7031 17.9609L13.3447 17.9258L13.3428 18.2148L12.3477 17.6279L13.3545 17.0596L13.3516 17.3457L16.416 17.377V10.2139H7.58398V17.377L11.4883 17.3369C11.6484 17.3353 11.7803 17.464 11.7822 17.624C11.7839 17.7841 11.6551 17.9161 11.4951 17.918L7.29688 17.9609C7.21958 17.9616 7.14479 17.9313 7.08984 17.877C7.03498 17.8225 7.00392 17.7482 7.00391 17.6709V9.92383C7.00391 9.76374 7.1339 9.634 7.29395 9.63379H16.7061Z" fill="white"/>
<path d="M5.80957 13.1592C5.96956 13.1594 6.09961 13.2892 6.09961 13.4492C6.09951 13.6092 5.9695 13.739 5.80957 13.7393C5.29786 13.7394 4.87657 14.1235 4.81641 14.6182C5.33161 14.7498 5.71268 15.2159 5.71289 15.7725C5.71279 15.9323 5.58266 16.0631 5.42285 16.0635C5.2627 16.0635 5.13291 15.9326 5.13281 15.7725C5.13256 15.4341 4.85882 15.1615 4.52051 15.1611C4.18221 15.1611 3.90845 15.4351 3.9082 15.7725C3.9081 15.9324 3.77809 16.0632 3.61816 16.0635C3.45801 16.0635 3.32725 15.9326 3.32715 15.7725C3.32736 15.2136 3.71372 14.7445 4.23438 14.6162C4.29761 13.8019 4.97745 13.1593 5.80957 13.1592Z" fill="white"/>
<path d="M18.1904 13.1592C19.0223 13.1592 19.7009 13.8013 19.7646 14.6152C20.2867 14.7425 20.6736 15.2126 20.6738 15.7725C20.6737 15.9325 20.5438 16.0634 20.3838 16.0635C20.2236 16.0635 20.0939 15.9326 20.0938 15.7725C20.0935 15.4351 19.8197 15.1612 19.4814 15.1611C19.1428 15.1611 18.8694 15.4339 18.8691 15.7725C18.869 15.9326 18.7393 16.0635 18.5791 16.0635C18.419 16.0634 18.2892 15.9326 18.2891 15.7725C18.2893 15.2164 18.6691 14.7513 19.1836 14.6191C19.1238 14.1239 18.7026 13.7393 18.1904 13.7393C18.0303 13.7393 17.9005 13.6094 17.9004 13.4492C17.9004 13.289 18.0302 13.1592 18.1904 13.1592Z" fill="white"/>
<path d="M6.42578 11.9092C6.58585 11.9093 6.71581 12.0391 6.71582 12.1992V14.9189C6.7158 15.079 6.58585 15.2088 6.42578 15.209C6.26558 15.209 6.13576 15.0791 6.13574 14.9189V12.1992C6.13575 12.039 6.26557 11.9092 6.42578 11.9092Z" fill="white"/>
<path d="M17.5752 11.9092C17.7354 11.9092 17.8652 12.039 17.8652 12.1992V14.9189C17.8652 15.0791 17.7354 15.209 17.5752 15.209C17.4151 15.2089 17.2852 15.0791 17.2852 14.9189V12.1992C17.2852 12.0391 17.4151 11.9093 17.5752 11.9092Z" fill="white"/>
<path d="M9.90625 13.1807C9.98893 13.1807 10.0312 13.223 10.0312 13.3057V13.6465L10.3438 13.542C10.371 13.5363 10.3939 13.5332 10.4141 13.5332C10.4344 13.5332 10.4568 13.5476 10.4814 13.5752C10.506 13.6027 10.5186 13.6392 10.5186 13.6855C10.5185 13.7318 10.4884 13.7634 10.4277 13.7822L10.1113 13.8828L10.3477 14.2109C10.3693 14.2355 10.3809 14.2616 10.3809 14.2891C10.3808 14.3166 10.3649 14.3446 10.333 14.3721C10.3012 14.3994 10.2706 14.4141 10.2402 14.4141C10.2099 14.414 10.1797 14.3933 10.1494 14.3516L9.9043 14.0059L9.6582 14.3516L9.65625 14.3525C9.6258 14.3946 9.59343 14.415 9.56152 14.415C9.52962 14.415 9.49772 14.4006 9.46582 14.373C9.43398 14.3455 9.41804 14.318 9.41797 14.292C9.41797 14.2659 9.4314 14.2385 9.45605 14.2109L9.68945 13.8828L9.37695 13.7822C9.31633 13.7634 9.28613 13.7314 9.28613 13.6865C9.28618 13.662 9.29018 13.6403 9.29883 13.6201C9.31479 13.5622 9.34972 13.5332 9.40332 13.5332C9.41486 13.5332 9.43362 13.5363 9.46094 13.542L9.78223 13.6465V13.3057C9.78223 13.2231 9.82389 13.1808 9.90625 13.1807Z" fill="white"/>
<path d="M11.3105 13.1807C11.3932 13.1807 11.4355 13.223 11.4355 13.3057V13.6465L11.7471 13.542C11.7746 13.5362 11.7981 13.5332 11.8184 13.5332C11.8386 13.5332 11.8602 13.5478 11.8848 13.5752C11.9094 13.6028 11.9229 13.6391 11.9229 13.6855C11.9228 13.7319 11.892 13.7634 11.8311 13.7822L11.5156 13.8828L11.752 14.2109C11.7735 14.2355 11.7852 14.2616 11.7852 14.2891C11.7851 14.3166 11.7692 14.3446 11.7373 14.3721C11.7055 14.3995 11.6749 14.414 11.6445 14.4141C11.6141 14.4141 11.5832 14.3936 11.5527 14.3516L11.3076 14.0059L11.0625 14.3516L11.0596 14.3525C11.0292 14.3945 10.9977 14.4149 10.9658 14.415C10.934 14.415 10.902 14.4005 10.8701 14.373C10.8383 14.3455 10.8223 14.318 10.8223 14.292C10.8223 14.266 10.8349 14.2384 10.8594 14.2109L11.0928 13.8828L10.7812 13.7822C10.7205 13.7634 10.6904 13.7314 10.6904 13.6865C10.6905 13.662 10.6945 13.6403 10.7031 13.6201C10.7191 13.5622 10.754 13.5332 10.8076 13.5332C10.8192 13.5332 10.8379 13.5362 10.8652 13.542L11.1865 13.6465V13.3057C11.1865 13.2231 11.228 13.1808 11.3105 13.1807Z" fill="white"/>
<path d="M12.7139 13.1807C12.7963 13.1808 12.8379 13.2231 12.8379 13.3057V13.6465L13.1504 13.542C13.1776 13.5363 13.2006 13.5332 13.2207 13.5332C13.241 13.5332 13.2634 13.5476 13.2881 13.5752C13.3127 13.6027 13.3252 13.6392 13.3252 13.6855C13.3252 13.7319 13.2951 13.7634 13.2344 13.7822L12.918 13.8828L13.1543 14.2109C13.176 14.2356 13.1875 14.2616 13.1875 14.2891C13.1874 14.3166 13.1715 14.3446 13.1396 14.3721C13.1079 14.3994 13.0772 14.4141 13.0469 14.4141C13.0166 14.414 12.9864 14.3933 12.9561 14.3516L12.7109 14.0059L12.4658 14.3516L12.4629 14.3525C12.4324 14.3946 12.4001 14.415 12.3682 14.415C12.3363 14.415 12.3044 14.4006 12.2725 14.373C12.2406 14.3456 12.2247 14.318 12.2246 14.292C12.2246 14.2659 12.238 14.2385 12.2627 14.2109L12.4961 13.8828L12.1836 13.7822C12.123 13.7633 12.0928 13.7314 12.0928 13.6865C12.0928 13.662 12.0968 13.6403 12.1055 13.6201C12.1214 13.5622 12.1564 13.5333 12.21 13.5332C12.2216 13.5332 12.241 13.5362 12.2686 13.542L12.5889 13.6465V13.3057C12.5889 13.223 12.6312 13.1807 12.7139 13.1807Z" fill="white"/>
<path d="M14.1172 13.1807C14.1999 13.1807 14.2422 13.223 14.2422 13.3057V13.6465L14.5537 13.542C14.5812 13.5362 14.6047 13.5332 14.625 13.5332C14.6453 13.5332 14.6677 13.5476 14.6924 13.5752C14.7169 13.6027 14.7295 13.6392 14.7295 13.6855C14.7295 13.7318 14.6992 13.7634 14.6387 13.7822L14.3223 13.8828L14.5586 14.2109C14.5802 14.2355 14.5918 14.2616 14.5918 14.2891C14.5917 14.3166 14.5758 14.3446 14.5439 14.3721C14.5121 14.3995 14.4815 14.4141 14.4512 14.4141C14.4207 14.4141 14.3898 14.3936 14.3594 14.3516L14.1143 14.0059L13.8691 14.3516L13.8662 14.3525C13.8358 14.3945 13.8043 14.415 13.7725 14.415C13.7406 14.415 13.7086 14.4005 13.6768 14.373C13.6449 14.3455 13.629 14.318 13.6289 14.292C13.6289 14.266 13.6416 14.2384 13.666 14.2109L13.9004 13.8828L13.5879 13.7822C13.5272 13.7634 13.4971 13.7314 13.4971 13.6865C13.4971 13.662 13.5011 13.6403 13.5098 13.6201C13.5257 13.5622 13.5606 13.5332 13.6143 13.5332C13.6258 13.5332 13.6445 13.5362 13.6719 13.542L13.9932 13.6465V13.3057C13.9932 13.2231 14.0347 13.1808 14.1172 13.1807Z" fill="white"/>
<path fill-rule="evenodd" clip-rule="evenodd" d="M15.5371 12.499C15.7269 12.499 15.8807 12.653 15.8809 12.8428V14.7559C15.8807 14.9456 15.7269 15.0996 15.5371 15.0996H8.47461C8.28502 15.0994 8.13097 14.9455 8.13086 14.7559V12.8428C8.13098 12.6532 8.28502 12.4993 8.47461 12.499H15.5371ZM8.56641 14.665H15.4463V12.9346H8.56641V14.665Z" fill="white"/>
<path d="M12.0078 2.13086C12.3921 2.13112 12.7041 2.44278 12.7041 2.82715C12.704 3.10788 12.5364 3.34787 12.2969 3.45801V5.53516C14.1577 5.6829 15.6219 7.23897 15.6221 9.1377C15.622 9.29768 15.492 9.42751 15.332 9.42773C15.1719 9.42773 15.0421 9.29782 15.042 9.1377C15.0418 7.48953 13.7274 6.1495 12.0898 6.10547C12.0635 6.11338 12.0358 6.11914 12.0068 6.11914C11.9775 6.11911 11.9496 6.11363 11.9229 6.10547C10.2858 6.15008 8.97283 7.4899 8.97266 9.1377C8.97255 9.29779 8.84272 9.42768 8.68262 9.42773C8.52247 9.42773 8.39269 9.29782 8.39258 9.1377C8.39275 7.23902 9.85614 5.68297 11.7168 5.53516V3.45801C11.478 3.34763 11.3116 3.10744 11.3115 2.82715C11.3115 2.44263 11.6233 2.13086 12.0078 2.13086Z" fill="white"/>
<path d="M12.2744 6.34082C13.1464 6.34105 13.8555 7.04794 13.8555 7.92188C13.8553 8.08179 13.7253 8.21165 13.5654 8.21191C13.4053 8.21191 13.2756 8.08195 13.2754 7.92188C13.2754 7.3688 12.8264 6.92113 12.2744 6.9209C12.1143 6.9209 11.9845 6.79097 11.9844 6.63086C11.9844 6.47064 12.1142 6.34082 12.2744 6.34082Z" fill="white"/>
</g>
<defs>
<clipPath id="clip0_3091_88">
<rect width="24" height="24" fill="white"/>
</clipPath>
</defs>
</svg>
