<svg width="24" height="24" viewBox="0 0 24 24" fill="none" xmlns="http://www.w3.org/2000/svg">
<g clip-path="url(#clip0_3091_17)">
<path d="M11.9427 0.451309C12.0399 0.436069 12.1854 0.463247 12.2769 0.496738C12.4381 0.555802 12.5516 0.674501 12.6242 0.827726C12.8632 1.33193 12.6902 2.10506 12.512 2.6049C12.5918 2.66894 12.6576 2.73299 12.7004 2.8277C12.7719 2.9861 12.731 3.12827 12.6713 3.28046C14.2133 3.40929 15.6869 3.97331 16.9206 4.90683C17.2808 5.18155 17.6063 5.48892 17.9278 5.80741C17.9623 5.74353 17.9983 5.68866 18.0532 5.64017C18.1972 5.51276 18.3626 5.52929 18.5402 5.54376C18.7832 5.10498 19.2447 4.58259 19.7235 4.39817C19.9018 4.32958 20.101 4.31294 20.2775 4.39662C20.4485 4.47765 20.61 4.66025 20.6707 4.83927C20.7255 5.0004 20.7078 5.18991 20.6332 5.34129C20.3961 5.82241 19.6779 6.18316 19.1869 6.34991C19.1726 6.45526 19.1629 6.55539 19.1124 6.65105C19.0425 6.78315 18.9222 6.84689 18.784 6.88641C19.6402 8.17384 20.1084 9.67997 20.133 11.2256C20.144 11.6653 20.1306 12.1193 20.058 12.5539C20.1426 12.5597 20.2351 12.5637 20.3164 12.5887C20.4774 12.6382 20.548 12.7522 20.6221 12.8925C21.0825 12.8051 21.918 12.8697 22.3098 13.1297C22.4594 13.2289 22.5795 13.3647 22.6127 13.5463C22.649 13.7451 22.6018 13.9915 22.4815 14.155C22.3333 14.3564 22.1187 14.3965 21.8877 14.427L21.8755 16.7938C21.4724 16.969 21.0346 17.0881 20.6162 17.2237C20.7458 17.3504 20.9125 17.4418 21.0333 17.5773C21.0652 17.6133 21.0764 17.6357 21.0739 17.6854C21.0556 17.7203 21.0514 17.7251 21.0179 17.7456C20.8535 17.7594 20.4936 17.4172 20.3519 17.3033C20.1695 17.3108 19.984 17.326 19.8021 17.3033C19.5819 17.2758 19.3625 17.1981 19.1516 17.1315C18.8022 17.0212 18.4547 16.8991 18.1018 16.8001C17.922 16.97 17.7584 17.1563 17.5769 17.3253C17.1153 17.7553 16.6111 18.1199 16.0718 18.4461C16.1335 18.5153 16.1867 18.5776 16.2202 18.666C16.2779 18.8183 16.2443 18.948 16.1796 19.0894C16.5504 19.4534 16.9426 19.953 17.0336 20.4775C17.0667 20.6683 17.0509 20.8747 16.9318 21.035C16.8161 21.1908 16.6124 21.2994 16.421 21.3266C16.2439 21.3518 16.0723 21.3032 15.9307 21.1949C15.4753 20.8469 15.3207 20.0721 15.2499 19.5379C15.1761 19.52 15.1065 19.5028 15.0411 19.4624C14.8831 19.3646 14.8452 19.2138 14.8072 19.0447C14.3917 19.1768 13.9797 19.2999 13.5511 19.3835C12.0214 19.6762 10.4399 19.5306 8.98931 18.9635C8.98493 19.0677 8.96921 19.156 8.92713 19.2519C8.8321 19.4039 8.71547 19.452 8.54983 19.4993C8.51965 20.0081 8.34824 20.6401 8.00136 21.0283C7.87173 21.1734 7.71658 21.2727 7.51683 21.283C7.30719 21.2939 7.1106 21.2246 6.95824 21.0801C6.82396 20.9526 6.76763 20.7974 6.76525 20.6149C6.7574 20.0174 7.23506 19.4455 7.6308 19.0431C7.58494 18.9594 7.55909 18.8756 7.55756 18.7792C7.55468 18.5968 7.65742 18.4822 7.77859 18.3619C7.06884 17.926 6.49803 17.4203 5.91799 16.8278C5.75275 16.8806 4.59172 17.2266 4.55773 17.278C4.5564 17.3207 4.55476 17.353 4.5379 17.3926C4.21137 17.6885 3.84139 17.9537 3.49606 18.2284L2.87339 18.7212C2.77503 18.7988 2.67874 18.8851 2.57534 18.9557C2.529 18.9873 2.47873 19.0161 2.42317 19.0273C2.38897 19.0342 2.35316 19.0354 2.32363 19.0141C2.30649 19.0016 2.30927 18.9893 2.30543 18.9699C2.31808 18.9206 2.3414 18.8867 2.37766 18.8508C2.57361 18.6571 2.81782 18.4879 3.0337 18.3157L4.2835 17.3224C4.00912 17.3185 3.76903 17.3008 3.50223 17.2321C3.30377 17.3593 3.13423 17.545 2.92638 17.6531C2.88319 17.6755 2.86559 17.6761 2.81922 17.6623C2.79547 17.6382 2.77686 17.6256 2.77569 17.589C2.77165 17.4626 3.13208 17.231 3.22707 17.1478C2.96642 17.055 2.70412 16.9668 2.44029 16.8834L2.42608 14.2674C2.25902 14.2962 2.08469 14.3253 1.91489 14.3113C1.72528 14.296 1.53933 14.2303 1.41624 14.078C1.29358 13.9264 1.23364 13.6983 1.25473 13.5046C1.27426 13.3252 1.36805 13.177 1.50863 13.067C1.937 12.7317 2.73885 12.726 3.26239 12.7876C3.30773 12.6862 3.36382 12.5955 3.45956 12.5344C3.5985 12.4456 3.77487 12.4647 3.92778 12.4999C3.85987 12.1236 3.85998 11.73 3.85994 11.3491C3.85562 10.0563 4.16629 8.78189 4.76509 7.63594C4.91169 7.35297 5.08428 7.08831 5.24554 6.814C5.12212 6.78807 5.01611 6.76295 4.92347 6.66894C4.8151 6.559 4.79234 6.41918 4.79196 6.27174C4.29928 6.11216 3.68798 5.80963 3.39575 5.36325C3.28864 5.19966 3.23716 5.00583 3.28252 4.81203C3.32593 4.62663 3.45403 4.44859 3.61883 4.35143C3.78152 4.2555 3.97983 4.24406 4.16 4.29051C4.6807 4.42478 5.16956 5.03338 5.43298 5.47336C5.54922 5.43829 5.68345 5.43903 5.79643 5.48614C5.94054 5.54624 6.01078 5.66839 6.06508 5.8065C7.50676 4.30121 9.26091 3.48878 11.3261 3.27832C11.2825 3.16987 11.2474 3.06833 11.2616 2.94872C11.2796 2.79649 11.365 2.69418 11.4822 2.60508C11.3886 2.3363 11.3163 2.068 11.2831 1.78436C11.2428 1.43881 11.2241 0.972423 11.4593 0.685113C11.5855 0.53084 11.7513 0.472332 11.9427 0.451309Z" fill="#2A4250"/>
<path d="M14.223 13.4778C14.7556 13.6351 15.2185 13.457 15.7231 13.2965L16.5828 13.0232C16.7795 12.9608 16.9764 12.8915 17.182 12.8647C17.6212 12.8074 18.0479 12.9854 18.4575 13.1187L19.2403 13.3733C19.4322 13.4355 19.6244 13.5075 19.8256 13.5319C20.5487 13.6196 20.822 13.1864 21.6711 13.5003C21.6509 13.8296 21.6633 14.1654 21.6634 14.4954L21.6756 16.4603C21.6791 16.5346 21.6832 16.6087 21.6837 16.683C21.2585 16.8244 20.4787 17.1201 20.0588 17.1287C19.6727 17.1365 19.3156 16.9934 18.9544 16.8758L18.1512 16.6142C17.9376 16.5448 17.7249 16.4674 17.4998 16.446C17.1704 16.4147 16.8766 16.5171 16.5682 16.615L15.7353 16.88C15.3932 16.989 15.0469 17.1268 14.6834 17.129C14.3088 17.1312 13.9592 16.9896 13.609 16.8738L12.8267 16.6156C12.5675 16.5304 12.3157 16.4408 12.0387 16.4432C11.7705 16.4455 11.5267 16.5321 11.2749 16.6143L10.3924 16.9039C10.1213 16.9927 9.84783 17.099 9.56125 17.1222C9.1281 17.1573 8.73393 16.9975 8.33025 16.8659L7.5359 16.6076C7.30479 16.5325 7.0776 16.4506 6.83222 16.4412C6.52285 16.4292 6.24827 16.5289 5.95818 16.6213L5.02753 16.9178C4.79996 16.9902 4.57004 17.0767 4.33299 17.1116C4.15031 17.1386 3.96445 17.1361 3.7826 17.104C3.40946 17.038 2.99986 16.8738 2.63688 16.7564C2.63913 16.6846 2.6426 16.6127 2.64188 16.5411C2.64515 15.5032 2.64152 14.4654 2.63101 13.4277C2.87378 13.3751 3.10866 13.3649 3.35349 13.4111C3.71063 13.4785 3.92332 13.5802 4.30367 13.5302C4.50626 13.5035 4.69949 13.4348 4.89332 13.373L5.84328 13.0698C6.06693 12.9983 6.29453 12.9131 6.52662 12.8748C6.65256 12.8543 6.78057 12.8496 6.90768 12.8609C7.14455 12.8809 7.36694 12.9573 7.59141 13.0301L8.51587 13.3312C8.74177 13.4048 8.97488 13.4978 9.21125 13.5281C9.38569 13.5502 9.55543 13.5383 9.72916 13.5163C9.80718 13.5913 9.8768 13.6378 9.97891 13.6746C10.0603 13.6911 10.1305 13.6944 10.2131 13.6838C10.6396 14.0572 11.2108 14.1947 11.7665 14.2182C12.4239 14.2462 13.1822 14.1415 13.6841 13.6818C13.8154 13.7009 13.9176 13.689 14.0397 13.6368C14.1104 13.5907 14.1683 13.5431 14.223 13.4778Z" fill="#FEFEFE"/>
<path d="M2.83824 16.5991C3.01945 16.6677 3.21041 16.7208 3.39507 16.78C4.02492 16.9823 4.24496 16.9462 4.86449 16.749L5.90078 16.4186C6.1856 16.3283 6.46213 16.23 6.76511 16.2296C7.13984 16.2293 7.49394 16.3722 7.84526 16.4868L8.64445 16.747C8.8771 16.8226 9.10559 16.9041 9.35232 16.9169C9.64965 16.9324 9.91846 16.8372 10.1964 16.7464L10.9884 16.4868C11.3258 16.3762 11.6666 16.2382 12.0261 16.2334C12.3977 16.2284 12.7395 16.3657 13.0868 16.48L13.8951 16.7465C14.1134 16.8182 14.3282 16.896 14.559 16.9151C14.8822 16.9419 15.174 16.8376 15.4768 16.7416L16.3186 16.4736C16.6386 16.3718 16.9639 16.2435 17.3028 16.2308C17.6948 16.2162 18.058 16.3628 18.4243 16.482L19.2363 16.7462C19.5382 16.8444 19.8286 16.945 20.1517 16.9143C20.5112 16.8799 21.1109 16.6485 21.4748 16.5324L21.6756 16.4603C21.6791 16.5346 21.6832 16.6087 21.6837 16.683C21.2585 16.8244 20.4787 17.1201 20.0588 17.1287C19.6727 17.1365 19.3156 16.9934 18.9544 16.8758L18.1512 16.6142C17.9376 16.5448 17.7249 16.4674 17.4998 16.446C17.1704 16.4147 16.8766 16.5171 16.5682 16.615L15.7353 16.88C15.3932 16.989 15.0469 17.1268 14.6834 17.129C14.3088 17.1312 13.9592 16.9896 13.609 16.8738L12.8267 16.6156C12.5675 16.5304 12.3157 16.4408 12.0387 16.4432C11.7705 16.4455 11.5267 16.5321 11.2749 16.6143L10.3924 16.9039C10.1213 16.9927 9.84783 17.099 9.56125 17.1222C9.1281 17.1573 8.73393 16.9975 8.33025 16.8659L7.5359 16.6076C7.30479 16.5325 7.0776 16.4506 6.83222 16.4412C6.52285 16.4292 6.24827 16.5289 5.95818 16.6213L5.02753 16.9178C4.79996 16.9902 4.57004 17.0767 4.33299 17.1116C4.15031 17.1386 3.96445 17.1361 3.7826 17.104C3.40946 17.038 2.99986 16.8738 2.63688 16.7564C2.63913 16.6846 2.6426 16.6127 2.64188 16.5411C2.70773 16.5589 2.77326 16.5784 2.83824 16.5991Z" fill="#74A9B8"/>
<path d="M14.223 13.4778C14.7556 13.6351 15.2185 13.457 15.7231 13.2965L16.5828 13.0232C16.7795 12.9608 16.9764 12.8915 17.182 12.8647C17.6212 12.8074 18.0479 12.9854 18.4575 13.1187L19.2403 13.3733C19.4322 13.4355 19.6244 13.5075 19.8256 13.5319C20.5487 13.6196 20.822 13.1864 21.6711 13.5003C21.6509 13.8296 21.6633 14.1654 21.6634 14.4954L21.6756 16.4603L21.4748 16.5324L21.4737 13.6596C20.8315 13.472 20.4336 13.8253 19.8193 13.7464C19.569 13.7143 19.3292 13.6237 19.0904 13.5461L18.198 13.2556C17.8938 13.1568 17.6104 13.0561 17.2851 13.0738C17.0485 13.0865 16.8299 13.1662 16.6061 13.2371L15.7046 13.5234C15.1173 13.7103 14.6494 13.8747 14.0397 13.6368C14.1104 13.5907 14.1683 13.5431 14.223 13.4778Z" fill="#B7DEE1"/>
<path d="M2.63101 13.4277C2.87378 13.3751 3.10866 13.3649 3.35349 13.4111C3.71063 13.4785 3.92332 13.5802 4.30367 13.5302C4.50626 13.5035 4.69949 13.4348 4.89332 13.373L5.84328 13.0698C6.06693 12.9983 6.29453 12.9131 6.52662 12.8748C6.65256 12.8543 6.78057 12.8496 6.90768 12.8609C7.14455 12.8809 7.36694 12.9573 7.59141 13.0301L8.51587 13.3312C8.74177 13.4048 8.97488 13.4978 9.21125 13.5281C9.38569 13.5502 9.55543 13.5383 9.72916 13.5163C9.80718 13.5913 9.8768 13.6378 9.97891 13.6746C9.74667 13.7326 9.54178 13.7683 9.30109 13.7517C8.99413 13.7305 8.69632 13.612 8.40562 13.5177L7.55025 13.2398C7.33494 13.1698 7.11894 13.0865 6.89072 13.0748C6.4874 13.0541 6.12074 13.2027 5.74321 13.3231L4.91061 13.5888C4.72041 13.6494 4.52899 13.7173 4.33058 13.7452C3.76748 13.8244 3.37601 13.5358 2.83858 13.6035L2.83824 16.5991C2.77326 16.5784 2.70773 16.5589 2.64188 16.5411C2.64515 15.5032 2.64152 14.4654 2.63101 13.4277Z" fill="#B7DEE1"/>
<path d="M8.44176 13.9012L8.48073 13.8964C8.53314 13.9582 8.50512 14.4573 8.50442 14.5572C8.64311 14.511 8.78312 14.4865 8.92831 14.5191C9.07224 14.5514 9.19341 14.6363 9.27118 14.7617C9.3861 14.9472 9.40793 15.2207 9.35342 15.4298C9.30394 15.6198 9.19517 15.752 9.02819 15.8491C8.73561 15.9707 8.41602 15.9108 8.11783 15.8455C8.10467 15.6259 8.1142 15.4007 8.11417 15.1805L8.11538 13.9546C8.22307 13.9329 8.33323 13.9187 8.44176 13.9012Z" fill="#2A4250"/>
<path d="M8.69688 14.8282C8.72508 14.8308 8.75371 14.8334 8.78156 14.8387C8.84411 14.8509 8.89249 14.8925 8.92658 14.9448C8.99693 15.0526 9.00156 15.211 8.96972 15.3322C8.93982 15.446 8.89022 15.5138 8.78931 15.5722C8.69149 15.5951 8.60336 15.5878 8.5047 15.5781L8.50406 14.882C8.57006 14.8546 8.62662 14.8396 8.69688 14.8282Z" fill="#FEFEFE"/>
<path d="M5.46195 13.9005C5.48596 13.8927 5.48845 13.8928 5.51532 13.8976C5.5401 14.0013 5.52424 14.1432 5.52445 14.2512L5.52495 15.0146C5.66849 14.8559 5.80959 14.695 5.94817 14.532L6.40773 14.5323C6.23319 14.7376 6.05 14.9355 5.85866 15.1253C6.06409 15.3342 6.23807 15.5592 6.38514 15.8124C6.39563 15.83 6.39976 15.8446 6.40541 15.8642C6.34981 15.9161 6.06828 15.8875 5.98047 15.8865C5.84359 15.672 5.70721 15.4735 5.52329 15.2955L5.52264 15.8859L5.13676 15.8863C5.12696 15.2427 5.13631 14.5977 5.13631 13.954C5.24326 13.931 5.35383 13.9178 5.46195 13.9005Z" fill="#2A4250"/>
<path d="M10.2107 14.4976C10.243 14.4957 10.275 14.4965 10.3073 14.4983C10.4676 14.5068 10.6183 14.5627 10.7249 14.6869C10.8823 14.8701 10.8862 15.112 10.8727 15.3393L9.99076 15.3408C10.0066 15.3755 10.0221 15.4139 10.0439 15.4453C10.2417 15.7301 10.6022 15.5095 10.7442 15.5396L10.7573 15.5708C10.7725 15.6613 10.7869 15.752 10.8003 15.8427C10.7167 15.8679 10.6335 15.8895 10.5472 15.9036C10.3119 15.9419 10.0503 15.932 9.85248 15.7834C9.71693 15.6815 9.6394 15.5302 9.61453 15.3645C9.5824 15.1505 9.61642 14.9177 9.75017 14.7423C9.86661 14.5897 10.0246 14.5198 10.2107 14.4976Z" fill="#2A4250"/>
<path d="M10.2294 14.8128C10.2693 14.8129 10.3057 14.8157 10.3431 14.8308C10.4104 14.858 10.478 14.9167 10.5066 14.9836C10.5038 15.0216 10.5001 15.0236 10.4753 15.053C10.4206 15.0823 10.3548 15.0721 10.2943 15.0703L9.99832 15.0691C10.012 15.022 10.0268 14.9725 10.0516 14.9301C10.0928 14.8592 10.1546 14.8357 10.2294 14.8128Z" fill="#FEFEFE"/>
<path d="M16.9239 14.4984C16.9264 14.4983 16.9289 14.4981 16.9314 14.4981C17.1102 14.4975 17.2798 14.5317 17.4078 14.6666C17.5846 14.853 17.5802 15.0998 17.5753 15.3377C17.2821 15.3519 16.9828 15.3395 16.689 15.3385C16.7111 15.3872 16.7325 15.438 16.7695 15.4774C16.9821 15.7037 17.1952 15.5317 17.435 15.5394C17.4623 15.5711 17.4618 15.6032 17.4696 15.6439C17.4795 15.7102 17.4897 15.7764 17.5002 15.8426C17.3941 15.8741 17.2894 15.9005 17.1792 15.9131C16.9523 15.939 16.7081 15.9155 16.5261 15.7634C16.3878 15.6476 16.3246 15.4811 16.3082 15.3058C16.2883 15.0918 16.3331 14.8792 16.4759 14.7124C16.5962 14.5719 16.7446 14.5143 16.9239 14.4984Z" fill="#2A4250"/>
<path d="M16.9334 14.8112C16.982 14.8132 17.034 14.8198 17.0775 14.8428C17.165 14.8889 17.1898 14.9816 17.2174 15.0688L16.9968 15.0704C16.9204 15.0717 16.8389 15.0781 16.7628 15.072C16.7293 15.0693 16.7184 15.058 16.699 15.0324C16.6982 15.0144 16.6989 15.0006 16.7079 14.9843C16.7549 14.8986 16.8426 14.8385 16.9334 14.8112Z" fill="#FEFEFE"/>
<path d="M14.3266 14.4979C14.3299 14.4977 14.3331 14.4976 14.3363 14.4976C14.5176 14.4983 14.688 14.531 14.817 14.6695C14.991 14.8561 14.9873 15.1011 14.9817 15.338C14.8408 15.3408 14.21 15.3091 14.1289 15.3648C14.1229 15.3888 14.1177 15.3921 14.1279 15.4161C14.1466 15.4602 14.1903 15.4951 14.2288 15.5212C14.4716 15.6868 14.7146 15.4968 14.8582 15.5508L14.8672 15.5969L14.9097 15.8381C14.8158 15.8744 14.7138 15.8969 14.6142 15.9106C14.3848 15.9422 14.1346 15.9232 13.9464 15.7745C13.7986 15.6578 13.731 15.4832 13.714 15.3007C13.6945 15.0908 13.7405 14.8773 13.8807 14.7137C14.0008 14.5732 14.147 14.5144 14.3266 14.4979Z" fill="#2A4250"/>
<path d="M14.3265 14.8134C14.3839 14.8124 14.4448 14.8193 14.4948 14.8495C14.5759 14.8987 14.597 14.9841 14.6179 15.0697L14.4087 15.0706L14.1065 15.0694C14.1141 15.0353 14.1221 15.0019 14.1361 14.9698C14.1754 14.8797 14.2379 14.8463 14.3265 14.8134Z" fill="#FEFEFE"/>
<path d="M6.58579 14.5324L6.9742 14.5321C6.96636 14.7685 6.96028 15.0113 6.96945 15.2477C6.97294 15.3377 6.98551 15.4886 7.06427 15.548C7.14181 15.6066 7.27753 15.5826 7.3686 15.5785L7.36956 14.5326L7.75816 14.5322L7.75839 14.871L7.75803 15.8387C7.57423 15.8959 7.35686 15.9188 7.16464 15.9172C7.00615 15.9161 6.85083 15.8866 6.73708 15.7668C6.55314 15.573 6.58405 15.2548 6.5844 15.0085L6.58579 14.5324Z" fill="#2A4250"/>
<path d="M12.6291 14.5113C12.7038 14.4993 12.7869 14.5009 12.8628 14.5008C13.0156 14.5004 13.1745 14.5379 13.283 14.6519C13.3416 14.7134 13.3797 14.7902 13.4013 14.8718C13.4671 15.1202 13.4305 15.6152 13.4285 15.8862L13.0453 15.8863C13.0449 15.6195 13.0874 15.1593 13.003 14.9199C12.9887 14.903 12.9739 14.8854 12.9571 14.871C12.8837 14.8088 12.7352 14.8356 12.647 14.8409C12.6389 15.1887 12.6458 15.5382 12.6456 15.8862L12.2627 15.8863L12.2619 14.5781C12.3809 14.5435 12.5063 14.5265 12.6291 14.5113Z" fill="#2A4250"/>
<path d="M18.3125 14.4984C18.4727 14.4881 18.6259 14.5216 18.7793 14.5634L18.7143 14.8658C18.5921 14.8307 18.4033 14.7725 18.2819 14.8255C18.2423 14.8429 18.2264 14.8636 18.2111 14.9027C18.2405 15.0523 18.5785 15.1013 18.6949 15.1949C18.7804 15.2638 18.8278 15.3501 18.8367 15.4597C18.8454 15.5664 18.8267 15.6789 18.7544 15.7617C18.6347 15.8988 18.4361 15.9101 18.2677 15.926C18.1006 15.9234 17.9505 15.8935 17.7916 15.8426C17.8132 15.7377 17.8359 15.633 17.8596 15.5285L17.8813 15.5357C18.0066 15.5761 18.2752 15.656 18.397 15.5879C18.4287 15.5702 18.4427 15.5519 18.4538 15.5171C18.4285 15.3899 18.0805 15.3108 17.9639 15.2165C17.8873 15.1547 17.8361 15.0733 17.8262 14.9743C17.8158 14.8686 17.8496 14.7327 17.9195 14.651C18.0174 14.5369 18.1711 14.5113 18.3125 14.4984Z" fill="#2A4250"/>
<path d="M15.6226 14.14L15.6361 14.1417C15.6818 14.2152 15.6526 14.4388 15.6508 14.5314L16.1132 14.5323L16.1136 14.8529C15.9597 14.851 15.8055 14.8521 15.6514 14.8521C15.6596 15.033 15.6228 15.2456 15.6627 15.4203C15.6759 15.4782 15.7043 15.5301 15.7566 15.5609C15.862 15.6231 16.0068 15.5768 16.1156 15.5458C16.1276 15.6272 16.1443 15.708 16.16 15.7888L16.1632 15.8388C16.0884 15.906 15.9224 15.9151 15.8235 15.918C15.6782 15.9222 15.5133 15.8944 15.406 15.7887C15.3404 15.7241 15.3059 15.6404 15.2864 15.5519C15.2483 15.3796 15.2658 15.1859 15.2659 15.0101L15.2661 14.1963C15.3843 14.1743 15.5038 14.158 15.6226 14.14Z" fill="#2A4250"/>
<path d="M11.5809 14.511C11.7443 14.4924 11.9004 14.5161 12.0591 14.5534L11.9922 14.8719C11.8399 14.8471 11.7173 14.83 11.5623 14.8493C11.5548 15.1555 11.5618 15.4634 11.5618 15.7697C11.5628 15.8031 11.5673 15.8332 11.5494 15.8632C11.4612 15.9193 11.2778 15.8872 11.174 15.8863L11.1739 14.6015C11.3064 14.5584 11.4427 14.5281 11.5809 14.511Z" fill="#2A4250"/>
<path d="M11.6273 5.9037C12.0557 5.85489 12.617 5.91677 13.0419 6.00293C14.4781 6.29455 15.7384 7.14696 16.5431 8.37098C17.4014 9.67355 17.6118 11.1355 17.2996 12.6478C17.0484 12.6495 16.8091 12.7324 16.5726 12.8076L15.5996 13.1171C15.3552 13.1948 15.1031 13.2931 14.8473 13.3224C14.6623 13.3436 14.4872 13.3264 14.3051 13.2915C14.309 13.2282 14.3135 13.1652 14.3022 13.1022C14.2777 12.9652 14.2045 12.8418 14.0883 12.7633C13.9529 12.6718 13.8073 12.667 13.6523 12.6951C13.2752 12.3754 12.7681 12.2341 12.2816 12.1996C11.5851 12.1284 10.8087 12.2511 10.2477 12.6901C10.1788 12.6772 10.1075 12.6726 10.0382 12.6843C9.90053 12.7076 9.77766 12.7808 9.69875 12.8969C9.60989 13.0275 9.59967 13.1719 9.62741 13.3227C9.22872 13.3516 8.95296 13.2617 8.57951 13.1403L7.71424 12.8588C7.49082 12.7861 7.26476 12.7008 7.03189 12.6653C6.88901 12.6434 6.74932 12.6438 6.60534 12.6512C6.53329 12.3633 6.49074 12.0635 6.47042 11.7675C6.36679 10.3109 6.84982 8.87341 7.81207 7.77459C8.78954 6.65654 10.1502 6.00505 11.6273 5.9037Z" fill="#EA7170"/>
<path d="M9.05404 8.95446C9.34613 8.93759 9.66506 8.94592 9.94066 9.05469C10.1771 9.14801 10.363 9.32112 10.4634 9.55556C10.6504 9.99213 10.6514 10.8548 10.4693 11.2957C10.3558 11.5707 10.1441 11.7324 9.87615 11.8445C9.5466 11.9425 8.88759 11.936 8.53931 11.866C8.49533 11.8571 8.44208 11.8448 8.41546 11.8056C8.35904 11.5353 8.39052 10.986 8.3904 10.6896C8.39019 10.2025 8.36991 9.70552 8.39392 9.21943C8.39575 9.18251 8.39819 9.08642 8.41943 9.05917C8.48473 8.97542 8.93143 8.96358 9.05404 8.95446Z" fill="#FEFEFE"/>
<path d="M9.06852 9.51685C9.27514 9.51993 9.5683 9.49287 9.73725 9.63026C9.84254 9.71589 9.88639 9.87609 9.90166 10.0059C9.94019 10.3334 9.97247 10.9482 9.76522 11.2133C9.57175 11.3835 9.30732 11.3497 9.06852 11.3399V9.51685Z" fill="#EA7170"/>
<path d="M12.097 8.96939C12.3946 8.9473 12.7368 8.97078 12.9807 9.16163C13.194 9.32843 13.2704 9.59003 13.2975 9.8479C13.3316 10.1733 13.31 10.5139 13.3107 10.8412C13.3113 11.141 13.331 11.4543 13.3092 11.7523C13.3061 11.7934 13.3049 11.8246 13.2789 11.8568C13.1589 11.9059 12.8517 11.8939 12.7194 11.8779C12.7009 11.8756 12.6752 11.8719 12.663 11.8549C12.5596 11.7104 12.7545 9.91 12.5436 9.64595C12.4795 9.56575 12.3889 9.54427 12.2919 9.53231L12.2729 9.53009C12.0893 9.52706 11.9056 9.53785 11.7222 9.54582C11.716 9.78879 11.742 11.7406 11.7108 11.8163C11.6994 11.8443 11.6755 11.8698 11.6462 11.8784C11.5717 11.9003 11.1384 11.8937 11.0721 11.8544C11.0222 11.6351 11.052 10.9369 11.0522 10.6761C11.0525 10.2343 11.029 9.73757 11.0544 9.30197C11.0591 9.22116 11.0717 9.13996 11.1066 9.06633C11.2408 8.97638 11.9023 8.97807 12.097 8.96939Z" fill="#FEFEFE"/>
<path d="M14.8169 8.9424C14.9621 8.94958 15.5156 8.99759 15.6093 9.07328C15.6638 9.20919 15.6354 9.41603 15.6198 9.56029C15.3201 9.57 15.0204 9.52376 14.7211 9.52732C14.6322 9.52836 14.5278 9.53631 14.4649 9.6069C14.4337 9.64193 14.4133 9.7014 14.4197 9.74796C14.4474 9.95109 15.218 10.2621 15.4089 10.4182C15.586 10.5631 15.6936 10.7623 15.714 10.9908C15.7323 11.1963 15.6725 11.4131 15.5412 11.5728C15.325 11.8358 15.0352 11.8856 14.7145 11.919C14.5267 11.9222 14.0609 11.9117 13.8946 11.8225C13.8622 11.8053 13.8482 11.7849 13.8386 11.7497C13.8194 11.678 13.818 11.3892 13.8516 11.3279C13.9234 11.2626 14.5908 11.3463 14.7451 11.3352C14.8192 11.3299 14.8972 11.3184 14.9459 11.2562C14.9879 11.2028 15.011 11.1248 15.0021 11.0573C14.9933 10.9911 14.9538 10.9359 14.9058 10.8915C14.6871 10.6889 14.3077 10.553 14.0611 10.3579C13.8868 10.2199 13.7752 10.0464 13.7504 9.82192C13.7279 9.61994 13.7614 9.39237 13.896 9.23325C14.1216 8.96665 14.4981 8.96405 14.8169 8.9424Z" fill="#FEFEFE"/>
<path d="M14.2283 7.64095C14.2994 7.63844 14.3706 7.63679 14.4417 7.63599C14.535 7.63575 14.6567 7.64088 14.7245 7.71352C14.863 7.86174 14.8097 8.5025 14.8075 8.72948C14.7247 8.73435 14.645 8.7348 14.5622 8.72948C14.5562 8.60377 14.5574 8.48035 14.5618 8.35472C14.4616 8.33642 14.3455 8.34812 14.2431 8.34865L14.2426 8.73166C14.1597 8.73602 14.0771 8.73316 13.9942 8.7311C13.992 8.51814 13.9461 7.91598 14.0495 7.75159C14.0928 7.68288 14.1532 7.66081 14.2283 7.64095Z" fill="#FEFEFE"/>
<path d="M14.2606 7.86281C14.3311 7.85841 14.4755 7.83095 14.5274 7.88897C14.5752 7.94248 14.5561 8.0711 14.5549 8.13845L14.2475 8.13799C14.2462 8.04452 14.2478 7.95549 14.2606 7.86281Z" fill="#EA7170"/>
<path d="M12.1752 7.64146C12.2646 7.63577 12.3643 7.62703 12.4527 7.6428C12.5601 7.66196 12.6625 7.71062 12.7226 7.80509C12.7708 7.87971 12.7856 7.97102 12.7633 8.05697C12.7345 8.16811 12.6689 8.23168 12.5743 8.28978C12.6556 8.43489 12.7334 8.58186 12.808 8.73057C12.7199 8.73468 12.6312 8.7339 12.5429 8.73512L12.4913 8.64944C12.4604 8.58873 12.4299 8.52747 12.3963 8.46812C12.3675 8.41701 12.3251 8.33397 12.2654 8.31698L12.2479 8.32851C12.1875 8.42555 12.2087 8.61558 12.2071 8.72873C12.1247 8.73722 12.042 8.73352 11.9593 8.7318C11.9457 8.38084 11.9389 8.00925 11.9627 7.65926C12.0325 7.64885 12.1047 7.64668 12.1752 7.64146Z" fill="#FEFEFE"/>
<path d="M12.2103 7.84692C12.2764 7.84623 12.3476 7.84197 12.4111 7.86326C12.4524 7.87708 12.4916 7.89833 12.5074 7.94191C12.5265 7.99509 12.5053 8.04178 12.4841 8.08977C12.4055 8.13747 12.2993 8.12765 12.2105 8.12957L12.2103 7.84692Z" fill="#EA7170"/>
<path d="M13.1617 7.64024C13.193 7.63785 13.2242 7.63578 13.2554 7.63403C13.4026 7.62599 13.5712 7.61992 13.6858 7.7296C13.7325 7.77433 13.7631 7.83514 13.7781 7.89757C13.8256 8.09478 13.7939 8.51005 13.7923 8.73009C13.7087 8.73642 13.6246 8.73284 13.5409 8.73104C13.5345 8.46801 13.5653 8.18771 13.5295 7.92739C13.5206 7.91512 13.51 7.89846 13.4982 7.88847C13.424 7.82618 13.2938 7.84754 13.2039 7.84933C13.2038 8.14116 13.2178 8.43873 13.1975 8.72966C13.1157 8.73621 13.0334 8.733 12.9513 8.73167C12.9398 8.38054 12.9463 8.02468 12.9519 7.67325C13.0212 7.65778 13.0915 7.64959 13.1617 7.64024Z" fill="#FEFEFE"/>
<path d="M9.1888 7.65025C9.28126 7.64251 9.37632 7.64661 9.46917 7.64668C9.54421 7.74426 9.605 7.85902 9.66969 7.96399L9.84523 7.64641L10.1179 7.64722C10.0248 7.8328 9.90915 8.01003 9.80729 8.1914C9.86971 8.29353 10.1142 8.62852 10.112 8.7281C10.0268 8.73764 9.93848 8.73375 9.85273 8.73376C9.77276 8.63609 9.71009 8.51328 9.64357 8.40555C9.58127 8.51609 9.52013 8.62728 9.45073 8.73359C9.36209 8.7351 9.27314 8.73302 9.18446 8.73243C9.28008 8.54153 9.39699 8.35723 9.5039 8.17217C9.39596 8.00114 9.28204 7.82967 9.1888 7.65025Z" fill="#FEFEFE"/>
<path d="M8.61697 7.63945C8.76695 7.62896 8.91189 7.63542 9.06111 7.65292L9.06073 7.84656C8.98331 7.84833 8.90815 7.84389 8.83095 7.84068C8.77648 7.83841 8.70909 7.84077 8.67046 7.88584C8.62958 7.93353 8.6458 8.0175 8.64967 8.07539C8.78375 8.07398 8.91783 8.075 9.05185 8.07848L9.05209 8.27315L8.64033 8.27347C8.64237 8.35226 8.6399 8.44748 8.66979 8.52121C8.7984 8.53086 8.93038 8.52554 9.05943 8.52608L9.06215 8.71798C8.91262 8.74269 8.70847 8.77556 8.56446 8.71708C8.49444 8.68864 8.44581 8.63721 8.41885 8.56687C8.36829 8.43499 8.36537 7.89635 8.42808 7.76968C8.46616 7.69277 8.54028 7.66529 8.61697 7.63945Z" fill="#FEFEFE"/>
<path d="M11.341 7.63918C11.4876 7.62856 11.629 7.63661 11.7749 7.65344L11.7747 7.84684C11.6749 7.84891 11.4662 7.80977 11.392 7.87906C11.3419 7.92579 11.3558 8.01348 11.3562 8.07596L11.7613 8.07684L11.7621 8.27332L11.3628 8.27361C11.3589 8.36209 11.3393 8.45315 11.3999 8.52433L11.7746 8.52679L11.7749 8.71864C11.6261 8.74422 11.3907 8.78019 11.2513 8.70884C11.1864 8.67559 11.1461 8.61642 11.1261 8.5475C11.0873 8.41426 11.0842 7.86515 11.1567 7.7446C11.196 7.67941 11.2723 7.65787 11.341 7.63918Z" fill="#FEFEFE"/>
<path d="M10.2057 7.64731C10.4664 7.6426 10.7277 7.64648 10.9886 7.64699L10.9882 7.85191C10.901 7.85933 10.8114 7.85662 10.7238 7.85745L10.724 8.48206C10.7241 8.56425 10.7225 8.64651 10.7218 8.72869C10.6379 8.73619 10.5558 8.73351 10.4718 8.73055C10.4644 8.44 10.4708 8.14756 10.4709 7.85683C10.3824 7.85814 10.2945 7.85546 10.2061 7.85196L10.2057 7.64731Z" fill="#FEFEFE"/>
<path d="M15.0082 7.64721L15.2553 7.64607C15.2631 7.79896 15.2261 8.41868 15.2898 8.50546C15.3969 8.54093 15.5174 8.52777 15.629 8.5261C15.633 8.57904 15.6463 8.67442 15.6197 8.72119C15.5296 8.73801 15.4293 8.74785 15.3376 8.7451C15.2461 8.74236 15.1484 8.72441 15.0841 8.65338C15.0456 8.61092 15.0247 8.55698 15.0139 8.50146C14.9786 8.32212 15.0001 7.84731 15.0082 7.64721Z" fill="#FEFEFE"/>
<path d="M4.37344 13.3071C4.34676 13.3131 4.32171 13.3162 4.29444 13.3182C4.26596 13.3042 4.25106 13.2819 4.24173 13.252C4.22183 13.1884 4.21883 13.1172 4.20541 13.0514C4.15944 12.826 4.11755 12.6042 4.08937 12.3756C3.88043 10.6936 4.21549 8.98888 5.04556 7.51087C6.08666 5.66583 7.81879 4.30992 9.8606 3.74167C11.4352 3.30711 13.1051 3.36432 14.6462 3.90563C14.9633 4.01775 15.2886 4.14574 15.5818 4.31139C15.729 4.36262 15.8767 4.45802 16.0109 4.53726C16.6814 4.93187 17.2914 5.42119 17.8219 5.99009C17.8917 6.06523 17.9872 6.15468 18.041 6.24124C18.2483 6.43341 18.4258 6.70599 18.584 6.93962C19.4188 8.17533 19.89 9.62037 19.9438 11.1104C19.9687 11.7613 19.9111 12.4128 19.7722 13.0492C19.757 13.1211 19.7628 13.2189 19.712 13.2758C19.698 13.2913 19.6854 13.2932 19.6646 13.2929C19.6452 13.2925 19.6219 13.2845 19.6029 13.2798C19.1025 13.1099 18.5944 12.9617 18.0947 12.7899C18.4471 11.1036 18.181 9.41809 17.2294 7.96817C16.3188 6.5784 14.8921 5.60792 13.2644 5.27091C11.6403 4.9347 9.94918 5.25658 8.5625 6.16584C7.1722 7.07719 6.20213 8.50416 5.86652 10.1316C5.68378 11.0249 5.69739 11.9473 5.90642 12.8348C5.57059 12.9333 5.23797 13.0441 4.90445 13.15C4.73113 13.2052 4.5521 13.2735 4.37344 13.3071Z" fill="#B7DEE1"/>
<path d="M4.37344 13.3071C4.34676 13.3131 4.32171 13.3162 4.29444 13.3182C4.26596 13.3042 4.25106 13.2819 4.24173 13.252C4.22183 13.1884 4.21883 13.1172 4.20541 13.0514C4.15944 12.826 4.11755 12.6042 4.08937 12.3756C3.88043 10.6936 4.21549 8.98888 5.04556 7.51087C6.08666 5.66583 7.81879 4.30992 9.8606 3.74167C11.4352 3.30711 13.1051 3.36432 14.6462 3.90563C14.9633 4.01775 15.2886 4.14574 15.5818 4.31139C15.5705 4.31489 15.5599 4.32249 15.548 4.32187C15.4951 4.31909 14.898 4.04147 14.7796 3.99925C14.4434 3.87962 14.0999 3.78135 13.7512 3.70503C10.2688 2.94944 6.7102 4.61048 5.05486 7.7642C4.16191 9.46788 3.9197 11.438 4.37344 13.3071Z" fill="#FEFEFE"/>
<path d="M18.041 6.24124C18.2483 6.43341 18.4258 6.70599 18.584 6.93962C19.4188 8.17533 19.89 9.62037 19.9438 11.1104C19.9687 11.7613 19.9111 12.4128 19.7722 13.0492C19.757 13.1211 19.7628 13.2189 19.712 13.2758C19.698 13.2913 19.6854 13.2932 19.6646 13.2929C19.6452 13.2925 19.6219 13.2845 19.6029 13.2798C20.1135 11.2997 19.8402 9.19935 18.8399 7.41562C18.694 7.15865 18.5334 6.91038 18.3587 6.67204C18.2575 6.53532 18.1299 6.3988 18.0467 6.25181C18.0447 6.24839 18.0428 6.24469 18.041 6.24124Z" fill="#74A9B8"/>
<path d="M18.0924 8.35282C17.8206 8.33517 17.6107 8.10719 17.6158 7.8351C17.6208 7.56302 17.839 7.34293 18.1111 7.33532C18.3833 7.3277 18.6135 7.53524 18.6338 7.80661C18.6845 7.89413 18.7101 8.00649 18.6817 8.10595C18.6531 8.20595 18.5804 8.28902 18.4892 8.33774C18.3545 8.40972 18.2323 8.38828 18.0924 8.35282Z" fill="#2A4250"/>
<path d="M18.6338 7.80661C18.6845 7.89413 18.7101 8.00649 18.6817 8.10595C18.6531 8.20595 18.5804 8.28902 18.4892 8.33774C18.3545 8.40972 18.2323 8.38828 18.0924 8.35282C18.2396 8.3624 18.3838 8.30797 18.4876 8.20321C18.5915 8.09847 18.6447 7.95366 18.6338 7.80661Z" fill="#74A9B8"/>
<path d="M18.0572 7.54985C18.2208 7.51223 18.3838 7.6145 18.4209 7.77806C18.4581 7.94162 18.3553 8.10423 18.1915 8.14087C18.0285 8.17735 17.8666 8.07511 17.8295 7.91225C17.7926 7.74941 17.8944 7.58734 18.0572 7.54985Z" fill="#FEFEFE"/>
<path d="M4.85855 11.91C4.59355 11.8831 4.39403 11.6567 4.4007 11.3906C4.40738 11.1245 4.618 10.9084 4.88401 10.8947C5.15002 10.8811 5.38167 11.0745 5.41556 11.3385C5.46822 11.4632 5.49506 11.584 5.44184 11.7153C5.40335 11.8088 5.32747 11.8819 5.2326 11.9169C5.10517 11.9649 4.98587 11.9391 4.85855 11.91Z" fill="#2A4250"/>
<path d="M5.41556 11.3385C5.46822 11.4632 5.49506 11.584 5.44184 11.7153C5.40335 11.8088 5.32747 11.8819 5.2326 11.9169C5.10517 11.9649 4.98587 11.9391 4.85855 11.91C5.01323 11.9257 5.16658 11.8696 5.27507 11.7583C5.38357 11.6471 5.43535 11.4926 5.41556 11.3385Z" fill="#74A9B8"/>
<path d="M4.85915 11.1043C5.02392 11.0763 5.18026 11.1868 5.20877 11.3514C5.23728 11.516 5.12722 11.6726 4.96265 11.7016C4.79731 11.7308 4.6397 11.6202 4.61106 11.4548C4.58241 11.2895 4.69362 11.1324 4.85915 11.1043Z" fill="#FEFEFE"/>
<path d="M15.515 5.76635C15.2435 5.75911 15.0254 5.54038 15.0191 5.26904C15.0127 4.99769 15.2204 4.76903 15.4913 4.74914C15.7622 4.72925 16.0011 4.92511 16.0344 5.19449C16.0867 5.32101 16.1134 5.4409 16.0577 5.57348C16.019 5.66772 15.9416 5.74091 15.8454 5.77464C15.7336 5.81479 15.6257 5.80042 15.515 5.76635Z" fill="#2A4250"/>
<path d="M16.0344 5.19449C16.0867 5.32101 16.1134 5.4409 16.0577 5.57348C16.019 5.66772 15.9416 5.74091 15.8454 5.77464C15.7336 5.81479 15.6257 5.80042 15.515 5.76635C15.6634 5.7703 15.8062 5.70943 15.9061 5.59955C16.0059 5.48969 16.0527 5.34174 16.0344 5.19449Z" fill="#74A9B8"/>
<path d="M15.4563 4.96298C15.6186 4.92314 15.7825 5.02202 15.823 5.18411C15.8635 5.34621 15.765 5.51044 15.603 5.5514C15.4401 5.59254 15.2749 5.49365 15.2343 5.33077C15.1937 5.16789 15.2932 5.00303 15.4563 4.96298Z" fill="#FEFEFE"/>
<path d="M19.0874 11.8931C18.8094 11.8972 18.5792 11.678 18.5702 11.4002C18.561 11.1225 18.7763 10.8886 19.054 10.8746C19.3318 10.8605 19.5696 11.0714 19.5886 11.3487C19.6401 11.436 19.6605 11.5403 19.6326 11.6395C19.6041 11.7414 19.5356 11.8275 19.4427 11.8783C19.3461 11.9316 19.2318 11.9428 19.1267 11.9092C19.113 11.9049 19.1003 11.8996 19.0874 11.8931Z" fill="#2A4250"/>
<path d="M19.5886 11.3487C19.6401 11.436 19.6605 11.5403 19.6326 11.6395C19.6041 11.7414 19.5356 11.8275 19.4427 11.8783C19.3461 11.9316 19.2318 11.9428 19.1267 11.9092C19.113 11.9049 19.1003 11.8996 19.0874 11.8931C19.2274 11.891 19.3602 11.831 19.4549 11.7281C19.5497 11.6252 19.5981 11.4883 19.5886 11.3487Z" fill="#74A9B8"/>
<path d="M19.0005 11.0908C19.1611 11.0476 19.3263 11.1418 19.371 11.3018C19.4158 11.4618 19.3231 11.6279 19.1635 11.674C19.0017 11.7209 18.8327 11.6267 18.7875 11.4646C18.7421 11.3024 18.8379 11.1345 19.0005 11.0908Z" fill="#FEFEFE"/>
<path d="M5.84907 8.376C5.78284 8.36668 5.71614 8.35536 5.65457 8.32819C5.5263 8.27158 5.41831 8.1746 5.37197 8.03979C5.327 7.90773 5.33683 7.76317 5.39925 7.63841C5.46337 7.51089 5.57647 7.41478 5.71272 7.37204C5.8371 7.33362 5.97468 7.34363 6.08936 7.40636C6.24288 7.49033 6.31531 7.62817 6.36444 7.7883C6.41439 7.91841 6.4339 8.03738 6.37632 8.17081C6.33509 8.26635 6.25974 8.34324 6.16205 8.3807C6.06146 8.41927 5.94903 8.41168 5.84907 8.376Z" fill="#2A4250"/>
<path d="M6.36444 7.7883C6.41439 7.91841 6.4339 8.03738 6.37632 8.17081C6.33509 8.26635 6.25974 8.34324 6.16205 8.3807C6.06146 8.41927 5.94903 8.41168 5.84907 8.376C5.98409 8.36025 6.10738 8.32548 6.20902 8.22917C6.33709 8.1078 6.36154 7.95587 6.36444 7.7883Z" fill="#74A9B8"/>
<path d="M5.8061 7.56236C5.96974 7.53619 6.12413 7.64602 6.15296 7.80911C6.18179 7.97221 6.07438 8.12826 5.91167 8.15968C5.80406 8.18048 5.69361 8.14167 5.62268 8.05816C5.55175 7.97466 5.53139 7.85942 5.56939 7.75669C5.6074 7.65395 5.69788 7.57969 5.8061 7.56236Z" fill="#FEFEFE"/>
<path d="M11.988 4.82296C11.7141 4.82457 11.488 4.60967 11.4759 4.33629C11.4637 4.06292 11.6698 3.82878 11.9427 3.80606C12.2156 3.78335 12.4577 3.98019 12.4908 4.25181C12.5438 4.37448 12.5669 4.49056 12.5146 4.61971C12.4761 4.71585 12.3995 4.79173 12.3029 4.82924C12.199 4.86971 12.0908 4.86052 11.988 4.82296Z" fill="#2A4250"/>
<path d="M12.4908 4.25181C12.5438 4.37448 12.5669 4.49056 12.5146 4.61971C12.4761 4.71585 12.3995 4.79173 12.3029 4.82924C12.199 4.86971 12.0908 4.86052 11.988 4.82296C12.1334 4.82209 12.2716 4.75952 12.3677 4.65041C12.4636 4.54132 12.5085 4.39607 12.4908 4.25181Z" fill="#74A9B8"/>
<path d="M11.9066 4.02105C12.0669 3.97823 12.2317 4.07206 12.2767 4.2316C12.3216 4.39115 12.2299 4.55718 12.0709 4.6042C11.9662 4.63516 11.8528 4.6074 11.7742 4.53153C11.6957 4.45564 11.6641 4.34339 11.6914 4.2377C11.7189 4.13202 11.8011 4.04925 11.9066 4.02105Z" fill="#FEFEFE"/>
<path d="M8.45718 5.77652C8.17811 5.78377 7.9451 5.56534 7.93453 5.28655C7.92397 5.00775 8.13976 4.77232 8.41859 4.75847C8.69742 4.74461 8.93553 4.95747 8.95269 5.23594C9.00367 5.32071 9.01861 5.42233 8.99419 5.51819C8.96882 5.61872 8.90421 5.70489 8.81478 5.75746C8.72802 5.80881 8.61863 5.8268 8.52064 5.80062C8.49796 5.79456 8.47811 5.78706 8.45718 5.77652Z" fill="#2A4250"/>
<path d="M8.95269 5.23594C9.00367 5.32071 9.01861 5.42233 8.99419 5.51819C8.96882 5.61872 8.90421 5.70489 8.81478 5.75746C8.72802 5.80881 8.61863 5.8268 8.52064 5.80062C8.49796 5.79456 8.47811 5.78706 8.45718 5.77652C8.59547 5.77292 8.72626 5.7133 8.8197 5.61135C8.91315 5.50942 8.9612 5.37392 8.95269 5.23594Z" fill="#74A9B8"/>
<path d="M8.35885 4.97643C8.52056 4.92934 8.68968 5.02296 8.7355 5.18494C8.78132 5.3469 8.68628 5.51515 8.52386 5.55966C8.43271 5.58462 8.33514 5.56569 8.25996 5.50847C8.18479 5.45126 8.14059 5.36229 8.14044 5.26785C8.14025 5.13295 8.22928 5.01416 8.35885 4.97643Z" fill="#FEFEFE"/>
<path d="M15.7833 17.0654C16.163 16.9463 16.8783 16.6779 17.2392 16.6465C17.4077 16.6319 17.5675 16.6495 17.7322 16.685L17.8892 16.7313C16.4618 18.3034 14.4654 19.2411 12.3431 19.3356C10.2281 19.4273 8.16274 18.6788 6.59811 17.2536C6.51457 17.1773 6.14336 16.8482 6.13452 16.7693L6.13927 16.7602C6.77544 16.5729 7.00267 16.6342 7.61917 16.8354C7.83677 16.9063 8.05947 16.9715 8.27404 17.0506C8.1326 17.1268 8.02135 17.2236 7.97312 17.3833C7.93264 17.5165 7.94868 17.6605 8.0175 17.7815C8.09035 17.9092 8.20942 17.9895 8.35003 18.0255C8.36976 18.0309 8.38972 18.0352 8.40984 18.0387C8.55406 18.0379 8.68718 18.0102 8.79856 17.9121C8.93107 17.7957 8.96616 17.6447 8.97433 17.4764C8.95107 17.3941 8.9271 17.3231 8.88758 17.2468C9.20735 17.3385 9.53884 17.3634 9.86226 17.2712C11.1891 17.7494 12.8479 17.791 14.1666 17.2562C14.4858 17.3423 14.7671 17.3451 15.091 17.2829C15.0341 17.4312 15.0141 17.5799 15.0811 17.7303C15.1366 17.8526 15.2384 17.9478 15.3642 17.9949C15.4004 18.0087 15.4405 18.0184 15.4783 18.027C15.6306 18.0232 15.7602 18.0091 15.8817 17.9041C16.0139 17.7896 16.0476 17.6404 16.06 17.4743C16.0125 17.284 15.9472 17.1752 15.7833 17.0654Z" fill="#B7DEE1"/>
<path d="M17.7322 16.685L17.8892 16.7313C16.4618 18.3034 14.4654 19.2411 12.3431 19.3356C10.2281 19.4273 8.16274 18.6788 6.59811 17.2536C6.51457 17.1773 6.14336 16.8482 6.13452 16.7693L6.13927 16.7602C6.21606 16.8563 6.31522 16.9455 6.40421 17.0312C7.07453 17.6766 7.95692 18.2214 8.80991 18.5879C10.7395 19.4158 12.9195 19.4422 14.8686 18.6609C15.8149 18.2838 16.6795 17.7273 17.4145 17.0222C17.4952 16.9452 17.6908 16.7813 17.7322 16.685Z" fill="#74A9B8"/>
<path d="M16.06 17.4743C16.1064 17.5576 16.1269 17.6689 16.1024 17.7624C16.0746 17.8688 15.9941 17.957 15.8982 18.0081C15.7573 18.0833 15.626 18.0586 15.4783 18.027C15.6306 18.0232 15.7602 18.0091 15.8817 17.9041C16.0139 17.7896 16.0476 17.6404 16.06 17.4743Z" fill="#74A9B8"/>
<path d="M8.97433 17.4764C9.02393 17.5719 9.04268 17.6899 9.00876 17.7938C8.97363 17.9016 8.88833 17.9858 8.78609 18.0319C8.65788 18.0896 8.54034 18.07 8.40984 18.0387C8.55406 18.0379 8.68718 18.0102 8.79856 17.9121C8.93107 17.7957 8.96616 17.6447 8.97433 17.4764Z" fill="#74A9B8"/>
<path d="M11.9578 18.9797C11.6886 18.9547 11.4857 18.7241 11.4954 18.454C11.5052 18.1841 11.7243 17.9687 11.9947 17.9633C12.265 17.958 12.4924 18.1645 12.513 18.4339C12.5633 18.5227 12.5866 18.632 12.5618 18.7327C12.5375 18.831 12.466 18.9116 12.3789 18.9604C12.2382 19.0395 12.1055 19.0142 11.9578 18.9797Z" fill="#2A4250"/>
<path d="M12.513 18.4339C12.5633 18.5227 12.5866 18.632 12.5618 18.7327C12.5375 18.831 12.466 18.9116 12.3789 18.9604C12.2382 19.0395 12.1055 19.0142 11.9578 18.9797C12.1072 18.9935 12.2553 18.9408 12.3622 18.8356C12.4692 18.7304 12.5244 18.5835 12.513 18.4339Z" fill="#74A9B8"/>
<path d="M11.9518 18.1743C12.1166 18.1451 12.274 18.2549 12.3032 18.4197C12.3324 18.5844 12.2224 18.7417 12.0575 18.7709C11.8927 18.7999 11.7354 18.6901 11.7062 18.5254C11.677 18.3608 11.7869 18.2035 11.9518 18.1743Z" fill="#FEFEFE"/>
<path d="M11.9187 5.347C12.3522 5.33734 12.7989 5.38504 13.2231 5.47282C14.8007 5.80068 16.1825 6.74324 17.0628 8.09195C17.9684 9.4767 18.2334 11.1167 17.8974 12.7268C17.7705 12.6869 17.6406 12.6662 17.5094 12.6465C17.5841 12.3155 17.6291 11.9785 17.6436 11.6396C17.7143 10.1217 17.1734 8.6389 16.1416 7.52276C15.062 6.34973 13.6485 5.75443 12.0682 5.68845C11.6217 5.68504 11.1812 5.72246 10.7442 5.81621C9.26516 6.13626 7.97413 7.03096 7.15572 8.30314C6.31009 9.61518 6.07128 11.1654 6.39949 12.6821C6.29952 12.7071 6.20085 12.7394 6.10217 12.7692C6.01656 12.3987 5.96546 12.0211 5.94953 11.6412C5.88224 10.0287 6.46427 8.45656 7.5655 7.27618C8.72873 6.02527 10.2254 5.40809 11.9187 5.347Z" fill="#74A9B8"/>
<path d="M12.0961 12.399C12.5256 12.3872 13.1123 12.54 13.4526 12.807C13.3487 12.9314 13.2781 13.0611 13.2931 13.2293C13.3031 13.342 13.35 13.4333 13.416 13.5231L13.482 13.5867C12.9909 13.9406 12.2269 14.0863 11.6322 13.9946C11.6249 13.9934 11.6176 13.992 11.6103 13.9908C11.1995 13.9723 10.7576 13.8433 10.4272 13.594C10.5256 13.5106 10.5982 13.405 10.6215 13.2762C10.6497 13.1204 10.6016 12.986 10.5139 12.8595L10.4728 12.8136C10.4752 12.7884 10.4747 12.78 10.4946 12.7617C10.5397 12.7202 10.6167 12.6896 10.6716 12.6621C11.1132 12.4413 11.6086 12.3868 12.0961 12.399Z" fill="#B7DEE1"/>
<path d="M10.5139 12.8595L10.4728 12.8136C10.4752 12.7884 10.4747 12.78 10.4946 12.7617C10.5397 12.7202 10.6167 12.6896 10.6716 12.6621C11.1132 12.4413 11.6086 12.3868 12.0961 12.399C12.0263 12.4389 11.9087 12.4418 11.8276 12.4511C11.3494 12.5055 10.8986 12.535 10.5139 12.8595Z" fill="#FEFEFE"/>
<path d="M13.416 13.5231L13.482 13.5867C12.9909 13.9406 12.2269 14.0863 11.6322 13.9946C11.6249 13.9934 11.6176 13.992 11.6103 13.9908C12.2061 13.9786 12.9544 13.9544 13.416 13.5231Z" fill="#74A9B8"/>
<path d="M11.8331 12.8387C11.8928 12.8372 11.9549 12.8387 12.0087 12.8684C12.0802 12.9078 12.1238 12.9842 12.1422 13.0614C12.1704 13.1796 12.1629 13.33 12.0962 13.4346C12.0514 13.5048 11.9952 13.5272 11.9174 13.5468C11.8525 13.5476 11.7876 13.5474 11.7297 13.5137C11.6595 13.4727 11.6152 13.3966 11.5988 13.3187C11.5731 13.1969 11.5795 13.0443 11.6515 12.9384C11.6965 12.8724 11.7582 12.8542 11.8331 12.8387Z" fill="#2A4250"/>
<path d="M11.8252 12.9768C11.863 12.9779 11.904 12.9756 11.9336 13.0032C11.975 13.0414 11.9939 13.111 11.9945 13.1658C11.9955 13.2542 11.9803 13.3401 11.9168 13.4039C11.8788 13.4059 11.8419 13.4096 11.8098 13.3845C11.7677 13.3519 11.7497 13.279 11.7489 13.2279C11.7474 13.1361 11.7601 13.0445 11.8252 12.9768Z" fill="#B7DEE1"/>
<path d="M12.4992 12.8413C12.5134 12.8402 12.5086 12.8402 12.5258 12.8409C12.5995 12.8434 12.6709 12.8561 12.7216 12.9144C12.763 12.9619 12.7759 13.0251 12.7678 13.0865C12.7568 13.1717 12.7203 13.2095 12.6543 13.2599L12.8001 13.5367L12.6255 13.5375L12.5658 13.4276C12.5435 13.3835 12.5216 13.3297 12.4875 13.2936C12.4672 13.2721 12.4779 13.2785 12.4462 13.2767C12.4057 13.3264 12.4148 13.4684 12.409 13.5329C12.3618 13.5449 12.3037 13.5372 12.2547 13.5363C12.2542 13.3096 12.2511 13.0826 12.2576 12.8559C12.3371 12.8466 12.4193 12.8455 12.4992 12.8413Z" fill="#2A4250"/>
<path d="M12.4182 12.9776C12.4413 12.9772 12.4644 12.9772 12.4876 12.9778C12.5342 12.9791 12.5632 12.9843 12.5967 13.0198C12.6123 13.0636 12.6072 13.0886 12.5971 13.1333L12.583 13.1372C12.5281 13.152 12.4857 13.1666 12.4344 13.1373C12.4078 13.0898 12.4168 13.0304 12.4182 12.9776Z" fill="#B7DEE1"/>
<path d="M11.1866 12.8487C11.2597 12.8451 11.3377 12.8365 11.4106 12.8414C11.4532 12.8443 11.4751 12.8574 11.5029 12.8886C11.5063 12.9122 11.5117 12.9324 11.5037 12.9557C11.4859 13.007 11.3056 12.9604 11.2577 12.9874C11.2439 12.9952 11.2413 13.0117 11.2399 13.0264C11.2362 13.0653 11.2458 13.0886 11.2675 13.119C11.3177 13.1388 11.365 13.121 11.4165 13.1182C11.4525 13.1163 11.4641 13.1244 11.4901 13.1479C11.4989 13.1815 11.5004 13.1984 11.4917 13.2321C11.4595 13.2563 11.4321 13.249 11.3926 13.2495C11.3493 13.249 11.3063 13.2507 11.2631 13.2526C11.1944 13.3064 11.2822 13.4566 11.2241 13.5303C11.2058 13.5403 11.1912 13.5534 11.1696 13.5522C11.1377 13.5503 11.1102 13.5332 11.093 13.5063C11.0634 13.4599 11.071 13.032 11.0865 12.9673C11.1007 12.9081 11.1381 12.8808 11.1866 12.8487Z" fill="#2A4250"/>
<path d="M7.15869 20.9837C7.09026 20.9322 7.03816 20.8816 7.00193 20.8026C6.92084 20.6258 6.96505 20.4178 7.03305 20.2438C7.12643 20.0049 7.33748 19.7701 7.57693 19.6714C7.69459 19.6229 7.81977 19.6127 7.93723 19.6669C8.10542 19.7448 8.18453 19.913 8.24845 20.0756C8.17167 20.337 8.07088 20.5776 7.92364 20.8073C7.81731 20.9401 7.69573 21.0722 7.51472 21.088C7.38295 21.0994 7.26994 21.0473 7.15869 20.9837Z" fill="#74A9B8"/>
<path d="M7.15869 20.9837C7.18227 20.8734 7.22215 20.7854 7.31143 20.7123C7.40069 20.6392 7.51626 20.6063 7.63063 20.6216C7.75791 20.638 7.84812 20.7079 7.92364 20.8073C7.81731 20.9401 7.69573 21.0722 7.51472 21.088C7.38295 21.0994 7.26994 21.0473 7.15869 20.9837Z" fill="#FEFEFE"/>
<path d="M11.4821 1.14885C11.5072 1.01377 11.5533 0.86805 11.6557 0.771316C11.7814 0.652444 11.9332 0.652059 12.0948 0.652988C12.2404 0.68884 12.3457 0.749085 12.4237 0.883303C12.5471 1.09584 12.5581 1.39163 12.4919 1.62384C12.4368 1.81665 12.3298 2.03614 12.1453 2.13358C12.0399 2.18927 11.9236 2.19349 11.8118 2.15429C11.6923 2.11243 11.5973 2.03284 11.5081 1.94609C11.4667 1.68389 11.4362 1.41271 11.4821 1.14885Z" fill="#74A9B8"/>
<path d="M11.4821 1.14885C11.5072 1.01377 11.5533 0.86805 11.6557 0.771316C11.7814 0.652444 11.9332 0.652059 12.0948 0.652988C12.123 0.783731 12.1237 0.902337 12.0478 1.01931C11.985 1.11504 11.8849 1.1801 11.772 1.19869C11.6691 1.21598 11.5743 1.19445 11.4821 1.14885Z" fill="#FEFEFE"/>
<path d="M16.4752 21.1152C16.3918 21.1333 16.3213 21.1439 16.2375 21.1231C16.0479 21.0759 15.9103 20.9124 15.8162 20.7499C15.6878 20.5281 15.6346 20.2221 15.7054 19.9731C15.7401 19.8504 15.8118 19.7419 15.9278 19.6833C16.0923 19.6003 16.2716 19.6422 16.4375 19.6938C16.6026 19.9068 16.7235 20.1545 16.8141 20.407C16.8493 20.5716 16.8785 20.7491 16.778 20.8986C16.7053 21.0068 16.5908 21.0638 16.4752 21.1152Z" fill="#74A9B8"/>
<path d="M16.4752 21.1152C16.4028 21.0328 16.3573 20.9372 16.3551 20.8262C16.3526 20.7112 16.3987 20.6004 16.482 20.5211C16.5786 20.4297 16.6861 20.4062 16.8141 20.407C16.8493 20.5716 16.8785 20.7491 16.778 20.8986C16.7053 21.0068 16.5908 21.0638 16.4752 21.1152Z" fill="#FEFEFE"/>
<path d="M3.64699 4.58119C3.75144 4.49531 3.8543 4.44922 3.99205 4.46086C4.22336 4.48041 4.47129 4.64345 4.61365 4.82217C4.74088 4.98192 4.86387 5.21426 4.8422 5.42394C4.83007 5.5413 4.77075 5.64089 4.6773 5.7122C4.56589 5.79721 4.43163 5.82377 4.29714 5.84677C4.0646 5.71324 3.82968 5.56627 3.64973 5.36431C3.56008 5.25752 3.47758 5.13671 3.46526 4.99361C3.45065 4.82382 3.5413 4.70172 3.64699 4.58119Z" fill="#74A9B8"/>
<path d="M3.64699 4.58119C3.76596 4.63698 3.85277 4.70895 3.89794 4.83618C3.93627 4.94514 3.9286 5.06501 3.8767 5.16822C3.82859 5.26254 3.74629 5.3253 3.64973 5.36431C3.56008 5.25752 3.47758 5.13671 3.46526 4.99361C3.45065 4.82382 3.5413 4.70172 3.64699 4.58119Z" fill="#FEFEFE"/>
<path d="M19.6741 4.64406C19.8193 4.5702 19.9785 4.50611 20.1425 4.55939C20.2764 4.60287 20.3604 4.70314 20.4398 4.81273C20.4731 4.87906 20.5002 4.94656 20.5018 5.02187C20.5056 5.21426 20.3892 5.37971 20.2583 5.5096C20.0674 5.69871 19.7803 5.82452 19.5092 5.81721C19.3828 5.8138 19.2598 5.77057 19.1751 5.67363C19.0482 5.52812 19.0523 5.34538 19.0616 5.16473C19.2438 4.96312 19.4376 4.78039 19.6741 4.64406Z" fill="#74A9B8"/>
<path d="M19.6741 4.64406C19.8193 4.5702 19.9785 4.50611 20.1425 4.55939C20.2764 4.60287 20.3604 4.70314 20.4398 4.81273C20.3781 4.89978 20.3005 4.96415 20.1958 4.99247C20.0841 5.02243 19.9651 5.00438 19.8674 4.94268C19.7547 4.87153 19.7021 4.7707 19.6741 4.64406Z" fill="#FEFEFE"/>
<path d="M13.1622 16.9499C13.2676 16.9317 13.7215 17.1101 13.8436 17.1508C12.8847 17.4538 11.8989 17.5091 10.9091 17.3409C10.6682 17.2966 10.4342 17.2356 10.1986 17.1686C10.3842 17.1055 10.6106 16.9996 10.8037 16.9815C10.9776 16.9651 11.284 17.0447 11.4792 17.0605C12.0476 17.1063 12.6038 17.0593 13.1622 16.9499Z" fill="#74A9B8"/>
<path d="M1.45164 13.6548C1.43866 13.5299 1.46311 13.4082 1.54474 13.3104C1.68561 13.1417 1.96496 13.0385 2.18121 13.025C2.40798 13.0093 2.63383 13.0664 2.82588 13.1879C2.68219 13.2169 2.55432 13.244 2.42277 13.3092C2.42288 13.5578 2.41805 13.8074 2.42428 14.0559C2.30596 14.0812 2.18988 14.1045 2.0691 14.1141C1.93669 14.1238 1.78308 14.1068 1.66979 14.0341C1.53037 13.9446 1.48756 13.8066 1.45164 13.6548Z" fill="#74A9B8"/>
<path d="M1.45164 13.6548C1.47722 13.6095 1.51823 13.5878 1.56836 13.5719C1.66485 13.5411 1.78231 13.5713 1.86801 13.6191C1.97067 13.676 2.04544 13.7725 2.07481 13.8861C2.09348 13.9598 2.08732 14.0409 2.0691 14.1141C1.93669 14.1238 1.78308 14.1068 1.66979 14.0341C1.53037 13.9446 1.48756 13.8066 1.45164 13.6548Z" fill="#FEFEFE"/>
<path d="M21.2555 13.0596C21.5236 13.0683 21.7885 13.1199 22.0404 13.2124C22.1903 13.2843 22.3435 13.3717 22.4024 13.5379C22.449 13.6691 22.4199 13.7952 22.3822 13.9235C22.3628 13.9678 22.338 14.0133 22.3068 14.0504C22.199 14.1792 22.0452 14.2065 21.8874 14.2193L21.8878 13.3863C21.6225 13.2642 21.3881 13.1921 21.0949 13.1743C21.146 13.1329 21.2012 13.0967 21.2555 13.0596Z" fill="#74A9B8"/>
<path d="M22.0404 13.2124C22.1903 13.2843 22.3435 13.3717 22.4024 13.5379C22.449 13.6691 22.4199 13.7952 22.3822 13.9235C22.2682 13.9178 22.1728 13.8971 22.0808 13.8255C21.9908 13.7564 21.934 13.6526 21.9239 13.5398C21.9128 13.4123 21.9609 13.3085 22.0404 13.2124Z" fill="#FEFEFE"/>
<path d="M5.48536 5.66733C5.58911 5.7045 5.67871 5.74266 5.72756 5.84963C5.77005 5.94265 5.75391 6.05239 5.71713 6.14444C5.65459 6.30091 5.48491 6.52613 5.32585 6.58934C5.26275 6.61441 5.19607 6.60114 5.13387 6.5808C5.12695 6.57576 5.1199 6.57089 5.11312 6.56566C5.05099 6.51782 4.99907 6.45179 4.99387 6.37095C4.9856 6.24282 5.08601 6.13844 5.16131 6.04694C5.26079 5.92037 5.3604 5.76943 5.48536 5.66733Z" fill="#EA7170"/>
<path d="M5.13387 6.5808C5.12695 6.57576 5.1199 6.57089 5.11312 6.56566C5.05099 6.51782 4.99907 6.45179 4.99387 6.37095C4.9856 6.24282 5.08601 6.13844 5.16131 6.04694C5.22614 6.16039 5.26374 6.27039 5.22839 6.40205C5.21078 6.46768 5.1766 6.52827 5.13387 6.5808Z" fill="#FEFEFE"/>
<path d="M11.8957 2.75061C12.0184 2.7494 12.3225 2.71492 12.4082 2.8036C12.4437 2.84021 12.4469 2.89446 12.4398 2.94201C12.4243 3.04732 12.3671 3.135 12.2795 3.19486C12.1326 3.29532 11.7937 3.24219 11.611 3.25341C11.5277 3.19754 11.493 3.15228 11.4538 3.06056C11.4537 3.05621 11.4535 3.05187 11.4536 3.04754C11.4551 2.96407 11.4713 2.8818 11.5357 2.82291C11.631 2.73577 11.7766 2.74902 11.8957 2.75061Z" fill="#EA7170"/>
<path d="M11.4538 3.06056C11.4537 3.05621 11.4535 3.05187 11.4536 3.04754C11.4551 2.96407 11.4713 2.8818 11.5357 2.82291C11.631 2.73577 11.7766 2.74902 11.8957 2.75061C11.8399 2.87698 11.7726 2.9844 11.6358 3.03452C11.5774 3.05533 11.5155 3.06426 11.4538 3.06056Z" fill="#FEFEFE"/>
<path d="M8.25227 19.1834C8.11845 19.1212 7.95073 19.0639 7.83839 18.9684C7.82209 18.9546 7.81612 18.9392 7.8154 18.9176C7.81293 18.8436 7.85473 18.7497 7.90419 18.696C7.98232 18.6112 8.10146 18.6168 8.20749 18.6127C8.36367 18.6957 8.61729 18.766 8.73619 18.8937C8.78922 18.9508 8.78488 19.0212 8.77998 19.0939C8.74243 19.1705 8.69992 19.2385 8.61572 19.2694C8.49149 19.315 8.35975 19.2379 8.25227 19.1834Z" fill="#EA7170"/>
<path d="M8.25227 19.1834C8.30535 19.1296 8.36603 19.0865 8.43803 19.0617C8.55849 19.02 8.66758 19.0415 8.77998 19.0939C8.74243 19.1705 8.69992 19.2385 8.61572 19.2694C8.49149 19.315 8.35975 19.2379 8.25227 19.1834Z" fill="#FEFEFE"/>
<path d="M18.1582 5.81432C18.2224 5.76217 18.2886 5.71864 18.3752 5.72403C18.4706 5.72999 18.545 5.80272 18.6016 5.87247C18.6257 5.90241 18.6496 5.9326 18.6731 5.96302C18.753 6.06582 18.8731 6.171 18.9274 6.28834C18.946 6.32865 18.9525 6.37205 18.9355 6.41417C18.9103 6.47664 18.8409 6.526 18.7808 6.55124C18.6925 6.5883 18.6199 6.55858 18.5363 6.52705C18.461 6.4261 18.1175 6.04031 18.1019 5.97072C18.0913 5.92309 18.1367 5.85478 18.1582 5.81432Z" fill="#EA7170"/>
<path d="M18.1582 5.81432C18.2224 5.76217 18.2886 5.71864 18.3752 5.72403C18.4706 5.72999 18.545 5.80272 18.6016 5.87247C18.6257 5.90241 18.6496 5.9326 18.6731 5.96302C18.605 5.9851 18.5359 5.99812 18.4639 5.99227C18.3313 5.98147 18.2403 5.91379 18.1582 5.81432Z" fill="#FEFEFE"/>
<path d="M15.2216 18.8814C15.3339 18.8304 15.7833 18.589 15.8628 18.5837C15.917 18.5799 15.9667 18.6355 16.0036 18.6684C16.0417 18.7399 16.071 18.8134 16.0469 18.8948C16.0203 18.9842 15.937 19.0444 15.8578 19.0842C15.8233 19.1012 15.7885 19.1175 15.7534 19.1332C15.6061 19.2064 15.4498 19.2955 15.2912 19.3386C15.2313 19.2809 15.1676 19.2094 15.1507 19.1254C15.1308 19.0267 15.1717 18.9611 15.2216 18.8814Z" fill="#EA7170"/>
<path d="M16.0036 18.6684C16.0417 18.7399 16.071 18.8134 16.0469 18.8948C16.0203 18.9842 15.937 19.0444 15.8578 19.0842C15.8233 19.1012 15.7885 19.1175 15.7534 19.1332C15.7323 19.0666 15.7405 18.9878 15.7632 18.9228C15.8044 18.8038 15.8929 18.7225 16.0036 18.6684Z" fill="#FEFEFE"/>
<path d="M15.5045 17.2189C15.67 17.1962 15.8228 17.3115 15.8463 17.4767C15.8697 17.6421 15.755 17.7952 15.5897 17.8195C15.4234 17.8437 15.269 17.7282 15.2453 17.5619C15.2218 17.3956 15.338 17.2418 15.5045 17.2189Z" fill="#FEFEFE"/>
<path d="M8.40004 17.2318C8.50833 17.2095 8.62011 17.248 8.6918 17.3321C8.76348 17.4162 8.78373 17.5326 8.74463 17.636C8.70553 17.7393 8.6133 17.8132 8.50387 17.8288C8.34155 17.852 8.19017 17.7421 8.16208 17.5807C8.134 17.4192 8.23941 17.2647 8.40004 17.2318Z" fill="#FEFEFE"/>
<path d="M13.7145 12.8945C13.8743 12.8469 14.0424 12.9372 14.091 13.0965C14.1397 13.2558 14.0504 13.4246 13.8913 13.4742C13.7308 13.5242 13.5601 13.434 13.5111 13.2732C13.462 13.1125 13.5533 12.9425 13.7145 12.8945Z" fill="#FEFEFE"/>
<path d="M10.0345 12.8941C10.1396 12.8633 10.2531 12.8915 10.3315 12.9679C10.4099 13.0443 10.4409 13.1571 10.4127 13.2628C10.3846 13.3686 10.3015 13.4509 10.1955 13.4782C10.0352 13.5195 9.87148 13.4247 9.82753 13.2653C9.7836 13.1059 9.87571 12.9406 10.0345 12.8941Z" fill="#FEFEFE"/>
<path d="M3.63496 12.783C3.71104 12.7796 3.75883 12.7839 3.8235 12.8259C3.99453 12.9371 4.0311 13.1567 4.07326 13.3408L3.88719 13.3228C3.76086 13.313 3.63412 13.2696 3.51293 13.2343C3.49118 13.1364 3.41372 12.9617 3.47201 12.868C3.50514 12.8147 3.57866 12.8001 3.63496 12.783Z" fill="#EA7170"/>
<path d="M19.9153 13.3324C19.9538 13.195 19.967 12.9305 20.0397 12.8199C20.0733 12.7688 20.1191 12.7679 20.1747 12.7582C20.2607 12.7762 20.342 12.8047 20.3899 12.8841C20.4564 12.9944 20.4152 13.1309 20.3866 13.246L20.3712 13.2841C20.2487 13.3487 20.0504 13.3336 19.9153 13.3324Z" fill="#EA7170"/>
<path d="M20.1747 12.7582C20.2607 12.7762 20.342 12.8047 20.3899 12.8841C20.4564 12.9944 20.4152 13.1309 20.3866 13.246C20.328 13.2241 20.2768 13.1798 20.2405 13.1292C20.1602 13.0172 20.1556 12.8887 20.1747 12.7582Z" fill="#FEFEFE"/>
<path d="M11.946 16.647C12.2511 16.6292 12.5053 16.7123 12.7914 16.8052C12.5622 16.8503 12.3225 16.8642 12.0893 16.8699C11.804 16.8732 11.5273 16.8582 11.2436 16.8288C11.4762 16.7482 11.6995 16.6723 11.946 16.647Z" fill="#EA7170"/>
<path d="M11.8925 20.8578C11.93 20.8676 11.9556 20.8746 11.986 20.9005C12.0409 21.0144 12.0399 23.3393 12.0043 23.5847C11.9978 23.6298 11.9649 23.65 11.9316 23.6768C11.8884 23.6663 11.8628 23.6587 11.8295 23.6286C11.8085 23.583 11.8083 23.535 11.8059 23.4855C11.7765 22.8931 11.7965 22.2892 11.7986 21.6955C11.7991 21.5332 11.7792 21.0639 11.8158 20.9277C11.8264 20.8883 11.8606 20.8773 11.8925 20.8578Z" fill="#2A4250"/>
<path d="M19.3532 17.2972C19.4576 17.3145 19.5643 17.4059 19.647 17.467C20.0765 17.7843 20.49 18.1297 20.907 18.4635C21.0776 18.6001 21.3617 18.7983 21.5035 18.9487C21.5295 18.9763 21.5353 18.9929 21.5409 19.0299C21.5326 19.0734 21.5059 19.0994 21.4781 19.1319C21.4469 19.1349 21.4268 19.1298 21.4004 19.1137C21.2424 19.0176 21.0948 18.8909 20.9494 18.7765L20.199 18.1802L19.6411 17.7331C19.5434 17.6547 19.4353 17.5782 19.3462 17.4903C19.3282 17.4724 19.3098 17.4544 19.3048 17.4288C19.2947 17.3764 19.3256 17.3382 19.3532 17.2972Z" fill="#2A4250"/>
<path d="M17.2274 0.379038C17.2497 0.377805 17.2732 0.376133 17.2953 0.379157C17.3348 0.384582 17.3603 0.401706 17.385 0.432425C17.393 0.477907 17.3884 0.488678 17.3724 0.532024C17.3196 0.673975 17.2446 0.812968 17.1793 0.949759L16.8232 1.68942L16.4392 2.4762C16.367 2.62205 16.2985 2.77554 16.2121 2.91337C16.1761 2.91822 16.1427 2.92164 16.1083 2.9059C16.0734 2.88989 16.0674 2.87596 16.0534 2.84335C16.06 2.71449 17.0949 0.593556 17.2274 0.379038Z" fill="#2A4250"/>
<path d="M23.7809 8.66013C23.8065 8.65645 23.8348 8.64984 23.86 8.65863C23.9014 8.673 23.9201 8.70794 23.9346 8.74594C23.9322 8.77103 23.9347 8.77983 23.9193 8.80115C23.8909 8.8405 23.8414 8.85827 23.7967 8.87217C23.6748 8.91013 23.5436 8.92649 23.4188 8.95429C23.2472 8.99255 23.0764 9.03801 22.9046 9.07703C22.3844 9.19521 21.8636 9.32422 21.3393 9.42233C21.3145 9.42597 21.2895 9.42781 21.2647 9.422C21.2291 9.41362 21.2074 9.38639 21.1906 9.3561C21.1877 9.31865 21.1873 9.3135 21.2048 9.28057C21.3499 9.17086 23.4319 8.73494 23.7809 8.66013Z" fill="#2A4250"/>
<path d="M0.09076 8.54973C0.4633 8.60284 0.876574 8.72113 1.24707 8.80528C1.70256 8.90874 2.17698 8.99458 2.62543 9.12369C2.66414 9.13485 2.69578 9.14468 2.72752 9.17053C2.74523 9.20427 2.75198 9.21505 2.74476 9.25454C2.73775 9.29298 2.70806 9.31724 2.67856 9.33867C2.38895 9.28365 0.0818144 8.79883 0.0157581 8.70551C-0.000818983 8.68209 -0.00473442 8.65716 0.00600288 8.63017C0.0211864 8.59198 0.0575792 8.57019 0.09076 8.54973Z" fill="#2A4250"/>
<path d="M6.69418 0.322266C6.71905 0.326895 6.74689 0.327638 6.76765 0.342666C6.8542 0.405364 7.91694 2.63212 7.94731 2.79786C7.93488 2.84157 7.90026 2.86394 7.867 2.89208C7.84625 2.88579 7.81918 2.8788 7.80217 2.86434C7.71036 2.7862 6.61924 0.509102 6.61487 0.408243C6.62937 0.36548 6.65952 0.347905 6.69418 0.322266Z" fill="#2A4250"/>
<path d="M11.0974 20.8578C11.1365 20.8668 11.1654 20.8724 11.197 20.8992C11.2525 21.0025 11.2494 22.2253 11.2162 22.3772C11.2068 22.4203 11.1708 22.4379 11.1364 22.4609C11.0968 22.4504 11.0755 22.4416 11.043 22.4167C10.9841 22.3054 10.9921 21.1021 11.0243 20.9379C11.0328 20.8948 11.0643 20.8812 11.0974 20.8578Z" fill="#2A4250"/>
<path d="M4.95007 17.8316C4.97412 17.8414 5.00851 17.8615 5.02376 17.8836C5.04592 17.9154 5.0426 17.9276 5.03792 17.9635C4.9302 18.1288 4.04867 18.7894 3.84531 18.9192C3.82046 18.9042 3.79278 18.8895 3.77515 18.8656C3.75538 18.8388 3.74516 18.8138 3.75429 18.7801C3.7825 18.6762 4.7893 17.9027 4.95007 17.8316Z" fill="#2A4250"/>
<path d="M15.9957 1.1353C16.0387 1.12908 16.0776 1.13256 16.1158 1.15416C16.1353 1.16517 16.153 1.1854 16.1552 1.20844C16.1637 1.29419 15.5996 2.45509 15.5124 2.57696C15.4599 2.58223 15.4266 2.57808 15.3793 2.55402C15.3682 2.53875 15.354 2.52582 15.3522 2.50621C15.3441 2.41283 15.9038 1.26895 15.9957 1.1353Z" fill="#2A4250"/>
<path d="M22.4652 8.1715C22.4871 8.16767 22.507 8.17122 22.5289 8.17336C22.5458 8.18792 22.5562 8.19239 22.5633 8.21459C22.5787 8.26289 22.5662 8.29557 22.5424 8.33653C22.454 8.40874 21.3082 8.63478 21.1196 8.67394C21.1086 8.67308 21.0956 8.67277 21.0854 8.66827C21.0562 8.65541 21.0307 8.62889 21.023 8.59725C21.0144 8.56076 21.02 8.54009 21.038 8.50866C21.1757 8.41473 22.2542 8.19096 22.4652 8.1715Z" fill="#2A4250"/>
<path d="M18.898 17.917C19.0486 17.9634 19.9448 18.6782 20.0737 18.8219C20.0945 18.8451 20.1025 18.8662 20.0974 18.8976C20.0888 18.9497 20.0415 18.9749 20.0007 19.0004C19.861 18.9345 18.9015 18.1839 18.8247 18.0606C18.806 18.0307 18.8092 18.0191 18.8132 17.9861C18.8384 17.949 18.8578 17.9362 18.898 17.917Z" fill="#2A4250"/>
<path d="M6.53459 1.75551C6.57205 1.76679 6.59634 1.77588 6.61938 1.80942C6.7016 1.9292 7.25207 3.03704 7.25153 3.11941C7.25145 3.1322 7.24649 3.14448 7.24397 3.15701C7.21457 3.19235 7.19131 3.20528 7.14923 3.22306C7.11287 3.21059 7.08356 3.19972 7.06058 3.16658C6.97528 3.04354 6.42736 1.91504 6.44384 1.83069C6.46817 1.79345 6.49745 1.77758 6.53459 1.75551Z" fill="#2A4250"/>
<path d="M22.7845 9.69454C22.7994 9.69288 22.8148 9.69045 22.83 9.69235C22.8683 9.69715 22.8889 9.71632 22.9131 9.74382C22.9243 9.78209 22.9239 9.78994 22.9151 9.82899C22.897 9.85335 22.8821 9.86578 22.854 9.87802C22.698 9.94594 22.51 9.9736 22.3437 10.0115C22.0644 10.0751 21.784 10.1422 21.5018 10.1915C21.4746 10.1955 21.4524 10.2003 21.4259 10.1895C21.3946 10.1769 21.3723 10.1497 21.3609 10.1187C21.3545 10.1011 21.3562 10.0884 21.3675 10.0725C21.3971 10.0307 21.4636 10.0033 21.5099 9.98649C21.6564 9.93329 21.8193 9.90607 21.9717 9.87128C22.2416 9.80839 22.5126 9.74946 22.7845 9.69454Z" fill="#2A4250"/>
<path d="M1.41665 8.05643C1.56462 8.048 2.7259 8.32341 2.88906 8.39673C2.9142 8.42721 2.91722 8.43263 2.92304 8.47158C2.90881 8.51659 2.8916 8.53952 2.85949 8.57378C2.71548 8.55821 1.46553 8.28687 1.40599 8.24293C1.37919 8.22316 1.36797 8.19858 1.36733 8.16526C1.36651 8.12247 1.39256 8.08897 1.41665 8.05643Z" fill="#2A4250"/>
<path d="M17.4222 1.8091C17.4682 1.81476 17.5035 1.81718 17.5421 1.84433C17.5529 1.8617 17.5642 1.87892 17.5642 1.90028C17.564 2.01116 16.9891 3.19152 16.9032 3.26852C16.8621 3.26524 16.837 3.2614 16.7999 3.24328C16.7869 3.22532 16.7769 3.21591 16.7726 3.19344C16.753 3.09224 17.3369 1.91602 17.4222 1.8091Z" fill="#2A4250"/>
<path d="M7.92448 1.0763C7.96209 1.08022 7.98183 1.08298 8.01469 1.10384C8.13775 1.27823 8.61245 2.24659 8.65657 2.44609C8.6488 2.49461 8.62112 2.51649 8.58722 2.55003C8.56264 2.54605 8.5286 2.54243 8.50853 2.52672C8.41222 2.45144 7.88515 1.31303 7.86186 1.17202C7.87077 1.12767 7.89414 1.10723 7.92448 1.0763Z" fill="#2A4250"/>
<path d="M1.07662 9.58235C1.28279 9.60805 2.43326 9.84423 2.55046 9.93805C2.578 9.9601 2.5763 9.97005 2.57957 10.0027C2.56601 10.0429 2.54482 10.0646 2.51635 10.0945C2.35492 10.091 1.12719 9.82374 1.03961 9.75048C1.0114 9.72688 1.01303 9.71219 1.00834 9.67814C1.02394 9.63571 1.04465 9.61382 1.07662 9.58235Z" fill="#2A4250"/>
<path d="M12.6215 20.8739C12.6482 20.8711 12.6762 20.8668 12.703 20.8674C12.7372 20.8682 12.7491 20.8765 12.771 20.9013C12.809 21.1177 12.8141 22.1785 12.7749 22.3818C12.7702 22.407 12.7587 22.4255 12.7449 22.4467C12.7199 22.4507 12.6753 22.4552 12.651 22.4451C12.6325 22.4374 12.6169 22.4276 12.6098 22.4086C12.5628 22.2826 12.5684 20.9932 12.6215 20.8739Z" fill="#2A4250"/>
</g>
<defs>
<clipPath id="clip0_3091_17">
<rect width="24" height="24" fill="white"/>
</clipPath>
</defs>
</svg>
