<svg width="24" height="24" viewBox="0 0 24 24" fill="none" xmlns="http://www.w3.org/2000/svg">
<path d="M24 12.0004C24 5.37281 18.6273 0 11.9998 0C5.37525 0 0.0046875 5.36831 0 11.9919V21.2782C0.0035625 22.7822 1.22334 23.9997 2.72822 23.9997H12.0047C18.63 23.9971 24 18.6262 24 12.0004Z" fill="#294172"/>
<path d="M15.5229 2.84131C12.419 2.84131 9.89372 5.36646 9.89372 8.47053V11.4583H6.91828C3.81431 11.4583 1.28906 13.9837 1.28906 17.0877C1.28906 20.1915 3.81431 22.7169 6.91828 22.7169C10.0223 22.7169 12.5475 20.1915 12.5475 17.0877V14.0997H15.5229C18.6269 14.0997 21.1523 11.5745 21.1523 8.47053C21.1523 5.36646 18.6269 2.84131 15.5229 2.84131ZM9.91453 17.0877C9.91453 18.7397 8.57044 20.0838 6.91828 20.0838C5.26612 20.0838 3.92203 18.7397 3.92203 17.0877C3.92203 15.4355 5.26612 14.0914 6.91828 14.0914H9.89372V14.0997H9.91453V17.0877ZM15.5229 11.4668H12.5475V11.4583H12.5268V8.47053C12.5268 6.81837 13.8709 5.47428 15.5229 5.47428C17.175 5.47428 18.5192 6.81837 18.5192 8.47053C18.5192 10.1227 17.175 11.4668 15.5229 11.4668Z" fill="#3C6EB4"/>
<path d="M16.7672 3.01216C16.3303 2.89798 15.9949 2.84473 15.523 2.84473C12.4127 2.84473 9.89101 5.36651 9.89101 8.47666V11.4619H7.53226C6.79679 11.4619 6.20241 12.0398 6.20288 12.774C6.20288 13.5035 6.7907 14.0839 7.51838 14.0839L9.47129 14.0843C9.70313 14.0843 9.8912 14.2718 9.8912 14.5033V17.0864C9.88829 18.7262 8.55816 20.0544 6.91838 20.0544C6.36291 20.0544 6.22538 19.9817 5.84616 19.9817C5.04957 19.9817 4.5166 20.5157 4.5166 21.2499C4.51679 21.8573 5.03729 22.3795 5.67423 22.5462C6.1111 22.6604 6.44654 22.7137 6.91838 22.7137C10.0287 22.7137 12.5504 20.1919 12.5504 17.0817V14.0966H14.9092C15.6446 14.0966 16.239 13.5186 16.2385 12.7845C16.2385 12.0548 15.6507 11.4745 14.923 11.4745L12.9701 11.4741C12.7383 11.4741 12.5502 11.2865 12.5502 11.0551V8.47198C12.5531 6.8322 13.8833 5.50395 15.523 5.50395C16.0785 5.50395 16.216 5.57679 16.5953 5.57679C17.3919 5.57679 17.9248 5.0427 17.9248 4.30854C17.9246 3.70104 17.4041 3.17885 16.7672 3.01216Z" fill="white"/>
</svg>
