<svg width="24" height="24" viewBox="0 0 24 24" fill="none" xmlns="http://www.w3.org/2000/svg">
<g clip-path="url(#clip0_1535_3009)">
<path d="M22.4395 7.79906C21.9502 6.62109 20.9583 5.34937 20.1797 4.94765C20.8134 6.19031 21.18 7.43672 21.3202 8.36672C21.3202 8.36672 21.3202 8.37328 21.3225 8.38547C20.0489 5.21015 17.8889 3.92953 16.125 1.14187C16.0355 1.00125 15.9464 0.860623 15.8592 0.710154C15.81 0.62531 15.7702 0.548435 15.7355 0.475779C15.6624 0.334827 15.6059 0.18586 15.5672 0.0318729C15.5675 0.0245605 15.5651 0.0173947 15.5604 0.0117652C15.5557 0.00613558 15.5491 0.00244326 15.5419 0.00140413C15.535 -0.000468044 15.5277 -0.000468044 15.5208 0.00140413C15.5189 0.00225301 15.5172 0.00335738 15.5156 0.00468538C15.5128 0.00468538 15.51 0.00796663 15.5072 0.00890413L15.5119 0.00281038C12.682 1.66031 11.722 4.7264 11.6339 6.26062C10.5031 6.33795 9.42184 6.75434 8.53125 7.45547C8.43816 7.37675 8.34083 7.30321 8.23969 7.23515C7.98303 6.33669 7.97219 5.38581 8.20828 4.48172C7.05094 5.00906 6.15094 5.84109 5.49656 6.5775H5.49141C5.04469 6.01172 5.07609 4.14562 5.10141 3.75609C5.09625 3.73172 4.76859 3.92625 4.72641 3.95578C4.33222 4.23699 3.96375 4.5526 3.62531 4.8989C3.24019 5.28936 2.88834 5.7113 2.57344 6.16031C1.84894 7.18706 1.33513 8.34723 1.06172 9.57375C1.05656 9.59812 1.05187 9.62344 1.04672 9.64828C1.02562 9.74719 0.949219 10.2436 0.935625 10.3514V10.3762C0.836019 10.8892 0.773979 11.4087 0.75 11.9306V11.9883C0.75 18.2095 5.79375 23.2533 12.015 23.2533C17.587 23.2533 22.2131 19.208 23.1192 13.8942C23.138 13.7503 23.1534 13.605 23.1703 13.4597C23.3944 11.5275 23.1455 9.49687 22.4395 7.79906ZM9.45516 16.6172C9.50766 16.642 9.55734 16.6697 9.61125 16.6941L9.61875 16.6987C9.56484 16.6725 9.51 16.6453 9.45562 16.6172H9.45516ZM21.3234 8.39062V8.37984V8.39203V8.39062Z" fill="url(#paint0_linear_1535_3009)"/>
<path d="M22.4391 7.79916C21.9497 6.62119 20.9579 5.34947 20.1793 4.94775C20.813 6.19041 21.1796 7.43682 21.3197 8.36682V8.38978C22.3829 11.2717 21.8035 14.2023 20.9691 15.9929C19.6782 18.7632 16.553 21.6029 11.6607 21.4646C6.37926 21.3146 1.72316 17.3907 0.853633 12.2556C0.695195 11.4451 0.853633 11.034 0.93332 10.3763C0.836289 10.8831 0.799258 11.0298 0.750977 11.9307V11.9884C0.750977 18.2096 5.79473 23.2534 12.016 23.2534C17.588 23.2534 22.2141 19.2081 23.1202 13.8943C23.1389 13.7504 23.1544 13.6051 23.1713 13.4598C23.3939 11.5276 23.145 9.49697 22.4391 7.79916Z" fill="url(#paint1_radial_1535_3009)"/>
<path d="M22.4391 7.79916C21.9497 6.62119 20.9579 5.34947 20.1793 4.94775C20.813 6.19041 21.1796 7.43682 21.3197 8.36682V8.38978C22.3829 11.2717 21.8035 14.2023 20.9691 15.9929C19.6782 18.7632 16.553 21.6029 11.6607 21.4646C6.37926 21.3146 1.72316 17.3907 0.853633 12.2556C0.695195 11.4451 0.853633 11.034 0.93332 10.3763C0.836289 10.8831 0.799258 11.0298 0.750977 11.9307V11.9884C0.750977 18.2096 5.79473 23.2534 12.016 23.2534C17.588 23.2534 22.2141 19.2081 23.1202 13.8943C23.1389 13.7504 23.1544 13.6051 23.1713 13.4598C23.3939 11.5276 23.145 9.49697 22.4391 7.79916Z" fill="url(#paint2_radial_1535_3009)"/>
<path d="M16.9654 9.12293C16.9902 9.14027 17.0122 9.15762 17.0357 9.17496C16.7529 8.67296 16.4007 8.21342 15.9894 7.80996C12.4879 4.3084 15.0716 0.217148 15.5071 0.00902344L15.5118 0.00292969C12.6819 1.66043 11.7219 4.72652 11.6338 6.26074C11.765 6.25184 11.8958 6.24059 12.0294 6.24059C14.1411 6.24059 15.9805 7.40215 16.9654 9.12293Z" fill="url(#paint3_radial_1535_3009)"/>
<path d="M12.036 9.82238C12.0177 10.1036 11.0277 11.0693 10.6813 11.0693C7.47785 11.0693 6.95801 13.0071 6.95801 13.0071C7.09863 14.6393 8.23582 15.9832 9.6116 16.6943C9.67441 16.7266 9.7377 16.7557 9.7991 16.7847C9.90926 16.8316 10.0199 16.8785 10.13 16.9202C10.6018 17.0866 11.0959 17.1814 11.5958 17.2014C17.2105 17.4649 18.2989 10.488 14.2466 8.46207C15.2839 8.2816 16.3611 8.69926 16.9625 9.1216C15.9782 7.40082 14.1383 6.23926 12.0266 6.23926C11.893 6.23926 11.7622 6.25051 11.631 6.25941C10.501 6.3377 9.42078 6.75456 8.53113 7.45566C8.70316 7.60145 8.89723 7.79551 9.30551 8.1977C10.0714 8.95332 12.0318 9.73098 12.036 9.82238Z" fill="url(#paint4_radial_1535_3009)"/>
<path d="M12.036 9.82238C12.0177 10.1036 11.0277 11.0693 10.6813 11.0693C7.47785 11.0693 6.95801 13.0071 6.95801 13.0071C7.09863 14.6393 8.23582 15.9832 9.6116 16.6943C9.67441 16.7266 9.7377 16.7557 9.7991 16.7847C9.90926 16.8316 10.0199 16.8785 10.13 16.9202C10.6018 17.0866 11.0959 17.1814 11.5958 17.2014C17.2105 17.4649 18.2989 10.488 14.2466 8.46207C15.2839 8.2816 16.3611 8.69926 16.9625 9.1216C15.9782 7.40082 14.1383 6.23926 12.0266 6.23926C11.893 6.23926 11.7622 6.25051 11.631 6.25941C10.501 6.3377 9.42078 6.75456 8.53113 7.45566C8.70316 7.60145 8.89723 7.79551 9.30551 8.1977C10.0714 8.95332 12.0318 9.73098 12.036 9.82238Z" fill="url(#paint5_radial_1535_3009)"/>
<path d="M8.00777 7.08115C8.09918 7.14021 8.17418 7.1899 8.24215 7.23537C7.98549 6.3369 7.97465 5.38602 8.21074 4.48193C7.0534 5.00928 6.1534 5.84131 5.49902 6.57772C5.55199 6.57631 7.18605 6.54678 8.00777 7.08115Z" fill="url(#paint6_radial_1535_3009)"/>
<path d="M0.853616 12.2555C1.72315 17.3907 6.37924 21.3146 11.6644 21.4646C16.5567 21.6028 19.68 18.7632 20.9728 15.9928C21.8072 14.2018 22.3866 11.2716 21.3235 8.38972V8.36816C21.3235 8.37097 21.3235 8.37472 21.3258 8.38691C21.7252 10.9964 20.3981 13.5244 18.3235 15.2339C18.3213 15.2387 18.3193 15.2436 18.3174 15.2485C14.2744 18.5405 10.4058 17.2346 9.62252 16.7016C9.56815 16.6753 9.5133 16.6482 9.45893 16.62C7.10158 15.495 6.12799 13.3458 6.33658 11.5041C4.34674 11.5041 3.66799 9.82504 3.66799 9.82504C3.66799 9.82504 5.45487 8.55097 7.80987 9.6591C9.99096 10.6857 12.0394 9.82551 12.0394 9.82504C12.0352 9.73363 10.0749 8.95363 9.31034 8.20035C8.90205 7.79816 8.70799 7.6041 8.53596 7.45832C8.44287 7.3796 8.34554 7.30606 8.2444 7.23801C8.17737 7.19113 8.10377 7.14426 8.01002 7.08379C7.1883 6.54941 5.55424 6.57894 5.50033 6.58035H5.49518C5.04846 6.01457 5.07987 4.14847 5.10518 3.75894C5.10002 3.73457 4.77237 3.9291 4.73018 3.95863C4.33599 4.23984 3.96752 4.55545 3.62908 4.90176C3.24396 5.29221 2.89211 5.71415 2.57721 6.16316C1.85271 7.18991 1.3389 8.35008 1.06549 9.5766C1.05658 9.59816 0.655803 11.348 0.853616 12.2555Z" fill="url(#paint7_radial_1535_3009)"/>
<path d="M15.9892 7.80984C16.4005 8.2133 16.7527 8.67284 17.0354 9.17484C17.094 9.21884 17.1503 9.26578 17.2042 9.31547C19.7579 11.6667 18.422 14.9953 18.3203 15.2344C20.3949 13.5248 21.722 10.9969 21.3226 8.38734C20.049 5.21015 17.889 3.92953 16.1251 1.14187C16.0356 1.00125 15.9465 0.860623 15.8593 0.710154C15.8101 0.62531 15.7703 0.548435 15.7356 0.475779C15.6625 0.334827 15.606 0.18586 15.5673 0.0318729C15.5676 0.0245605 15.5652 0.0173947 15.5605 0.0117652C15.5558 0.00613558 15.5492 0.00244326 15.542 0.00140413C15.5351 -0.000468044 15.5278 -0.000468044 15.5209 0.00140413C15.519 0.00225301 15.5173 0.00335738 15.5157 0.00468538C15.5129 0.00468538 15.5101 0.00796663 15.5073 0.00890413C15.0713 0.217029 12.4876 4.30828 15.9892 7.80984Z" fill="url(#paint8_radial_1535_3009)"/>
<path d="M17.2033 9.31327C17.1494 9.26358 17.0931 9.21665 17.0345 9.17265C17.0116 9.1553 16.9877 9.13796 16.9642 9.12062C16.3628 8.69874 15.2856 8.28062 14.2483 8.46108C18.3002 10.487 17.2122 17.4639 11.5975 17.2005C11.0976 17.1804 10.6035 17.0856 10.1317 16.9192C10.0216 16.878 9.91094 16.8325 9.80078 16.7837C9.73703 16.7547 9.67375 16.7256 9.61328 16.6933L9.62078 16.698C10.4041 17.2323 14.2727 18.5383 18.3156 15.2448C18.3156 15.2448 18.318 15.2387 18.3217 15.2303C18.422 14.9955 19.758 11.6669 17.2033 9.31327Z" fill="url(#paint9_radial_1535_3009)"/>
<path d="M6.95848 13.0066C6.95848 13.0066 7.47832 11.0688 10.6818 11.0688C11.0282 11.0688 12.0182 10.1023 12.0364 9.82194C12.0547 9.54163 9.98801 10.6826 7.80691 9.656C5.45191 8.54788 3.66504 9.82194 3.66504 9.82194C3.66504 9.82194 4.34379 11.501 6.33363 11.501C6.12504 13.3427 7.09863 15.4901 9.45598 16.6169C9.50848 16.6418 9.55816 16.6694 9.61207 16.6938C8.23629 15.9841 7.10051 14.6388 6.95848 13.0066Z" fill="url(#paint10_radial_1535_3009)"/>
<path d="M22.4395 7.79906C21.9502 6.62109 20.9583 5.34937 20.1797 4.94765C20.8134 6.19031 21.18 7.43672 21.3202 8.36672C21.3202 8.36672 21.3202 8.37328 21.3225 8.38547C20.0489 5.21015 17.8889 3.92953 16.125 1.14187C16.0355 1.00125 15.9464 0.860623 15.8592 0.710154C15.81 0.62531 15.7702 0.548435 15.7355 0.475779C15.6624 0.334827 15.6059 0.18586 15.5672 0.0318729C15.5675 0.0245605 15.5651 0.0173947 15.5604 0.0117652C15.5557 0.00613558 15.5491 0.00244326 15.5419 0.00140413C15.535 -0.000468044 15.5277 -0.000468044 15.5208 0.00140413C15.5189 0.00225301 15.5172 0.00335738 15.5156 0.00468538C15.5128 0.00468538 15.51 0.00796663 15.5072 0.00890413L15.5119 0.00281038C12.682 1.66031 11.722 4.7264 11.6339 6.26062C11.7652 6.25172 11.8959 6.24047 12.0295 6.24047C14.1412 6.24047 15.9806 7.40203 16.9655 9.12281C16.3641 8.70094 15.2869 8.28281 14.2495 8.46328C18.3014 10.4892 17.2134 17.4661 11.5987 17.2027C11.0989 17.1826 10.6048 17.0878 10.133 16.9214C10.0228 16.8802 9.91219 16.8347 9.80203 16.7859C9.73828 16.7569 9.675 16.7278 9.61453 16.6955L9.62203 16.7002C9.56766 16.6739 9.51281 16.6467 9.45844 16.6186C9.51094 16.6434 9.56062 16.6711 9.61453 16.6955C8.23594 15.9844 7.10016 14.6391 6.95812 13.0069C6.95812 13.0069 7.47797 11.0691 10.6814 11.0691C11.0278 11.0691 12.0178 10.1025 12.0361 9.82219C12.0319 9.73078 10.0716 8.95078 9.30703 8.1975C8.89875 7.79531 8.70469 7.60125 8.53266 7.45547C8.43957 7.37675 8.34224 7.30321 8.24109 7.23515C7.98444 6.33669 7.97359 5.38581 8.20969 4.48172C7.05234 5.00906 6.15234 5.84109 5.49797 6.5775H5.49281C5.04609 6.01172 5.0775 4.14562 5.10281 3.75609C5.09766 3.73172 4.77 3.92625 4.72781 3.95578C4.33363 4.23699 3.96515 4.5526 3.62672 4.8989C3.2416 5.28936 2.88975 5.7113 2.57484 6.16031C1.85034 7.18706 1.33654 8.34723 1.06312 9.57375C1.05797 9.59812 1.05328 9.62344 1.04812 9.64828C1.02703 9.74719 0.931406 10.2506 0.918281 10.3584C0.918281 10.3505 0.918281 10.3669 0.918281 10.3584C0.830512 10.8786 0.774315 11.4036 0.75 11.9306V11.9883C0.75 18.2095 5.79375 23.2533 12.015 23.2533C17.587 23.2533 22.2131 19.208 23.1192 13.8942C23.138 13.7503 23.1534 13.605 23.1703 13.4597C23.3944 11.5275 23.1455 9.49687 22.4395 7.79906ZM21.322 8.3775V8.38968V8.3775Z" fill="url(#paint11_linear_1535_3009)"/>
</g>
<defs>
<linearGradient id="paint0_linear_1535_3009" x1="20.9484" y1="3.60234" x2="2.24719" y2="21.6455" gradientUnits="userSpaceOnUse">
<stop offset="0.05" stop-color="#FFF44F"/>
<stop offset="0.11" stop-color="#FFE847"/>
<stop offset="0.22" stop-color="#FFC830"/>
<stop offset="0.37" stop-color="#FF980E"/>
<stop offset="0.4" stop-color="#FF8B16"/>
<stop offset="0.46" stop-color="#FF672A"/>
<stop offset="0.53" stop-color="#FF3647"/>
<stop offset="0.7" stop-color="#E31587"/>
</linearGradient>
<radialGradient id="paint1_radial_1535_3009" cx="0" cy="0" r="1" gradientUnits="userSpaceOnUse" gradientTransform="translate(20.0836 2.58104) scale(23.4848 23.4848)">
<stop offset="0.13" stop-color="#FFBD4F"/>
<stop offset="0.19" stop-color="#FFAC31"/>
<stop offset="0.25" stop-color="#FF9D17"/>
<stop offset="0.28" stop-color="#FF980E"/>
<stop offset="0.4" stop-color="#FF563B"/>
<stop offset="0.47" stop-color="#FF3750"/>
<stop offset="0.71" stop-color="#F5156C"/>
<stop offset="0.78" stop-color="#EB0878"/>
<stop offset="0.86" stop-color="#E50080"/>
</radialGradient>
<radialGradient id="paint2_radial_1535_3009" cx="0" cy="0" r="1" gradientUnits="userSpaceOnUse" gradientTransform="translate(11.5022 12.182) scale(23.4848 23.4848)">
<stop offset="0.3" stop-color="#960E18"/>
<stop offset="0.35" stop-color="#B11927" stop-opacity="0.74"/>
<stop offset="0.43" stop-color="#DB293D" stop-opacity="0.34"/>
<stop offset="0.5" stop-color="#F5334B" stop-opacity="0.09"/>
<stop offset="0.53" stop-color="#FF3750" stop-opacity="0"/>
</radialGradient>
<radialGradient id="paint3_radial_1535_3009" cx="0" cy="0" r="1" gradientUnits="userSpaceOnUse" gradientTransform="translate(14.3347 -2.74863) scale(17.0138)">
<stop offset="0.13" stop-color="#FFF44F"/>
<stop offset="0.25" stop-color="#FFDC3E"/>
<stop offset="0.51" stop-color="#FF9D12"/>
<stop offset="0.53" stop-color="#FF980E"/>
</radialGradient>
<radialGradient id="paint4_radial_1535_3009" cx="0" cy="0" r="1" gradientUnits="userSpaceOnUse" gradientTransform="translate(8.90519 18.3166) scale(11.182 11.182)">
<stop offset="0.35" stop-color="#3A8EE6"/>
<stop offset="0.47" stop-color="#5C79F0"/>
<stop offset="0.67" stop-color="#9059FF"/>
<stop offset="1" stop-color="#C139E6"/>
</radialGradient>
<radialGradient id="paint5_radial_1535_3009" cx="0" cy="0" r="1" gradientUnits="userSpaceOnUse" gradientTransform="translate(11.8398 9.39097) rotate(-13.8972) scale(5.9243 6.95965)">
<stop offset="0.21" stop-color="#9059FF" stop-opacity="0"/>
<stop offset="0.28" stop-color="#8C4FF3" stop-opacity="0.06"/>
<stop offset="0.75" stop-color="#7716A8" stop-opacity="0.45"/>
<stop offset="0.97" stop-color="#6E008B" stop-opacity="0.6"/>
</radialGradient>
<radialGradient id="paint6_radial_1535_3009" cx="0" cy="0" r="1" gradientUnits="userSpaceOnUse" gradientTransform="translate(11.2061 1.62021) scale(8.04469 8.04469)">
<stop stop-color="#FFE226"/>
<stop offset="0.12" stop-color="#FFDB27"/>
<stop offset="0.3" stop-color="#FFC82A"/>
<stop offset="0.5" stop-color="#FFA930"/>
<stop offset="0.73" stop-color="#FF7E37"/>
<stop offset="0.79" stop-color="#FF7139"/>
</radialGradient>
<radialGradient id="paint7_radial_1535_3009" cx="0" cy="0" r="1" gradientUnits="userSpaceOnUse" gradientTransform="translate(17.5289 -3.48231) scale(34.3223 34.3223)">
<stop offset="0.11" stop-color="#FFF44F"/>
<stop offset="0.46" stop-color="#FF980E"/>
<stop offset="0.62" stop-color="#FF5634"/>
<stop offset="0.72" stop-color="#FF3647"/>
<stop offset="0.9" stop-color="#E31587"/>
</radialGradient>
<radialGradient id="paint8_radial_1535_3009" cx="0" cy="0" r="1" gradientUnits="userSpaceOnUse" gradientTransform="translate(14.2118 0.267608) rotate(84.2321) scale(25.0176 16.4367)">
<stop stop-color="#FFF44F"/>
<stop offset="0.06" stop-color="#FFE847"/>
<stop offset="0.17" stop-color="#FFC830"/>
<stop offset="0.3" stop-color="#FF980E"/>
<stop offset="0.36" stop-color="#FF8B16"/>
<stop offset="0.45" stop-color="#FF672A"/>
<stop offset="0.57" stop-color="#FF3647"/>
<stop offset="0.74" stop-color="#E31587"/>
</radialGradient>
<radialGradient id="paint9_radial_1535_3009" cx="0" cy="0" r="1" gradientUnits="userSpaceOnUse" gradientTransform="translate(11.0167 4.59952) scale(21.4275)">
<stop offset="0.14" stop-color="#FFF44F"/>
<stop offset="0.48" stop-color="#FF980E"/>
<stop offset="0.59" stop-color="#FF5634"/>
<stop offset="0.66" stop-color="#FF3647"/>
<stop offset="0.9" stop-color="#E31587"/>
</radialGradient>
<radialGradient id="paint10_radial_1535_3009" cx="0" cy="0" r="1" gradientUnits="userSpaceOnUse" gradientTransform="translate(16.6733 5.8535) scale(23.4525 23.4525)">
<stop offset="0.09" stop-color="#FFF44F"/>
<stop offset="0.23" stop-color="#FFE141"/>
<stop offset="0.51" stop-color="#FFAF1E"/>
<stop offset="0.63" stop-color="#FF980E"/>
</radialGradient>
<linearGradient id="paint11_linear_1535_3009" x1="20.7234" y1="3.50578" x2="4.81125" y2="19.4184" gradientUnits="userSpaceOnUse">
<stop offset="0.17" stop-color="#FFF44F" stop-opacity="0.8"/>
<stop offset="0.27" stop-color="#FFF44F" stop-opacity="0.63"/>
<stop offset="0.49" stop-color="#FFF44F" stop-opacity="0.22"/>
<stop offset="0.6" stop-color="#FFF44F" stop-opacity="0"/>
</linearGradient>
<clipPath id="clip0_1535_3009">
<rect width="24" height="24" fill="white"/>
</clipPath>
</defs>
</svg>
