<svg width="24" height="24" viewBox="0 0 24 24" fill="none" xmlns="http://www.w3.org/2000/svg">
<path d="M23.9117 6.76118C23.3597 6.67286 22.1453 6.65078 19.7387 7.15861C19.4517 7.22484 19.1646 7.269 18.8776 7.24692C18.5685 7.20277 18.2373 7.13653 17.9503 7.04821C16.6255 6.58454 15.5436 6.7391 14.9033 7.07029C14.528 7.269 14.1968 7.57811 13.9539 7.93138C13.5565 8.48337 12.7175 10.1393 11.5914 10.5809C10.9511 11.0004 10.2667 11.4199 9.64843 12.0381C9.27308 12.4356 9.16269 13.385 8.14704 14.3123C7.15347 15.7916 5.89494 17.0722 4.41563 18.0658C2.5168 19.4126 0.905011 19.8321 0.905011 19.8321C0.905011 19.8321 5.14424 21.0244 9.78091 18.7944C13.3136 17.0943 15.1462 13.8045 15.5657 13.0759L17.884 9.12367C18.0827 8.7704 18.4581 8.28465 18.8114 8.10802C18.9218 8.04178 19.0322 7.99762 19.0542 7.97554C19.3192 7.84307 19.5841 7.73267 19.8491 7.64435C21.4609 7.04821 23.1389 7.00405 23.9117 6.91573C24 6.89365 24 6.78326 23.9117 6.76118Z" fill="url(#paint0_linear_3087_168)"/>
<path d="M23.9117 6.76118C23.3597 6.67286 22.1453 6.65078 19.7387 7.15861C19.4517 7.22484 19.1646 7.269 18.8776 7.24692C18.5685 7.20277 18.2373 7.13653 17.9503 7.04821C16.6034 6.58454 15.5657 6.71702 14.9033 7.07029C14.528 7.269 14.1968 7.57811 13.9539 7.93138C13.5565 8.48337 12.7175 10.1393 11.5914 10.5809C10.3108 9.36654 9.18474 8.32866 8.10286 7.42341C7.48463 6.93766 6.88849 6.45192 6.38067 6.12073C5.12215 5.23755 3.81946 4.4427 2.45054 3.75824C1.83232 3.49328 1.2141 3.25041 0.529642 2.98546C0.242611 2.89714 0.065976 3.02962 0.0218174 3.27249C-0.000261975 3.33873 -0.0223413 3.55952 0.110135 3.91279C0.441325 4.84012 0.860832 5.7233 1.34658 6.58439C1.54529 6.93766 1.76609 7.29093 1.98688 7.66628C3.06877 9.38847 4.32729 10.9782 5.74037 12.3913C6.0274 12.6783 6.31443 12.9432 6.62354 13.1861C6.99889 13.4952 7.37424 13.7823 7.77167 14.0472C7.81582 14.0693 7.99246 14.1797 8.12494 14.268C8.38989 14.4005 8.72108 14.5771 8.94187 14.6654C9.82504 15.0849 10.7965 15.2837 11.768 15.2837C13.1811 15.3278 14.3292 14.8641 14.9033 14.0914C15.1462 13.7602 15.367 13.4291 15.5657 13.0759L17.884 9.12367C18.0827 8.7704 18.4581 8.28465 18.8114 8.10802C18.9218 8.04178 19.0322 7.99762 19.0542 7.97554C19.2971 7.86515 19.2971 7.88707 19.562 7.79876C21.1959 7.20261 23.161 7.0039 23.9337 6.91558C23.9558 6.91558 23.9558 6.91558 23.9779 6.8935C24 6.87142 24 6.87142 24 6.84934C24 6.82727 24 6.80519 23.9779 6.80519C23.9558 6.78311 23.9338 6.76118 23.9117 6.76118Z" fill="url(#paint1_linear_3087_168)"/>
<g opacity="0.8">
<path d="M8.98635 10.822C9.84745 10.9545 10.7527 10.8661 11.5696 10.557C10.7969 9.82842 10.0682 9.16603 9.38378 8.56989C9.03051 8.26078 8.69932 7.97375 8.39021 7.7088C8.36813 7.68672 8.34605 7.68672 8.34605 7.66464C8.25774 7.57632 8.16942 7.53216 8.10318 7.46592C8.0811 7.44385 8.05902 7.42177 8.05902 7.42177C7.4408 6.91394 6.84466 6.47235 6.35891 6.11909C5.05623 5.21383 3.75355 4.37482 2.42879 3.7566C2.31839 3.69036 2.19575 3.65532 2.06328 3.58908C2.01912 3.567 1.99704 3.567 1.95288 3.54492C7.05321 6.349 8.69932 8.879 8.98635 10.822Z" fill="url(#paint2_linear_3087_168)"/>
</g>
<path opacity="0.3" d="M0 3.44951C0 3.42871 0 3.42871 0.0208006 3.42871C0.0208006 3.42871 0.0208006 3.42871 0 3.44951Z" fill="url(#paint3_linear_3087_168)"/>
<path d="M3.4003 8.08709C2.03138 6.98312 0.75078 5.41549 0.198796 4.17904C1.4794 7.46887 4.81338 12.1276 7.77201 14.0706C7.81617 14.1147 7.9928 14.2031 8.14736 14.2914C8.52271 13.6952 9.22925 12.4588 8.98637 10.8249C7.15379 10.5821 5.18873 9.5664 3.4003 8.08709Z" fill="url(#paint4_linear_3087_168)"/>
<path d="M3.4003 8.08709C5.18873 9.5664 7.15381 10.56 8.9864 10.8029C8.69936 8.88199 7.06549 6.32078 1.96517 3.56087C1.89511 3.52296 1.73167 3.442 1.67813 3.40631C1.3276 3.23104 0.935998 3.11979 0.574167 2.96472C0.265056 2.87641 0.110501 3.03096 0.0442626 3.25175C0.0442626 3.50603 0.0122839 3.66973 0.0884213 3.93621C0.110501 4.02453 0.154659 4.11285 0.198818 4.20117C0.750802 5.41553 2.05346 6.98312 3.4003 8.08709Z" fill="url(#paint5_linear_3087_168)"/>
<path d="M23.912 6.76312C23.36 6.6748 22.1456 6.65272 19.739 7.16055C19.4519 7.22679 19.1649 7.27094 18.8779 7.24886C18.5688 7.20471 18.2376 7.13847 17.9505 7.05015C17.3323 6.82936 16.6699 6.71896 16.0076 6.74104C15.5439 6.76312 15.1244 6.91767 14.749 7.18263C14.4399 7.38134 14.1971 7.64629 13.9763 7.93332C13.5788 8.48531 12.7398 10.1413 11.6138 10.5828C12.519 11.4439 13.8879 12.1505 15.1906 11.731C16.4271 11.3115 17.1998 10.2075 17.4427 9.83215C17.6856 9.4568 17.9726 9.08145 18.2597 8.75026C18.6792 8.30867 19.2091 7.97748 19.7831 7.77877C21.2404 7.29302 23.4483 6.98391 23.9782 6.93975C24.0003 6.89559 24.0003 6.7852 23.912 6.76312Z" fill="url(#paint6_linear_3087_168)"/>
<path d="M16.7582 8.57345C16.979 8.57345 17.1336 8.39681 17.1336 8.17602C17.1336 7.95523 16.9569 7.77859 16.7582 7.77859C16.5374 7.77859 16.3829 7.95523 16.3829 8.17602C16.3829 8.39681 16.5374 8.57345 16.7582 8.57345Z" fill="#282E38"/>
<defs>
<linearGradient id="paint0_linear_3087_168" x1="24.4523" y1="10.1571" x2="-0.507623" y2="11.7691" gradientUnits="userSpaceOnUse">
<stop offset="0.2986" stop-color="#0097CE"/>
<stop offset="0.3791" stop-color="#0999C5"/>
<stop offset="0.5119" stop-color="#229DAD"/>
<stop offset="0.6469" stop-color="#42A38F"/>
<stop offset="0.7352" stop-color="#5DAD82"/>
<stop offset="0.9239" stop-color="#A1C661"/>
<stop offset="1" stop-color="#BED153"/>
</linearGradient>
<linearGradient id="paint1_linear_3087_168" x1="-0.748133" y1="6.12201" x2="22.4713" y2="12.409" gradientUnits="userSpaceOnUse">
<stop offset="0.08199" stop-color="#3D65AF"/>
<stop offset="0.2305" stop-color="#2372B8"/>
<stop offset="0.5058" stop-color="#00B8BB"/>
</linearGradient>
<linearGradient id="paint2_linear_3087_168" x1="1.27865" y1="6.05331" x2="12.0012" y2="8.9639" gradientUnits="userSpaceOnUse">
<stop offset="0.1297" stop-color="#2483C5"/>
<stop offset="0.1672" stop-color="#2486C7"/>
<stop offset="0.676" stop-color="#29B1DF"/>
<stop offset="0.9352" stop-color="#2BC2E8"/>
</linearGradient>
<linearGradient id="paint3_linear_3087_168" x1="0" y1="3.4382" x2="0.0120534" y2="3.4382" gradientUnits="userSpaceOnUse">
<stop stop-color="#682C90"/>
<stop offset="0.496" stop-color="#817CB9"/>
<stop offset="1" stop-color="white"/>
</linearGradient>
<linearGradient id="paint4_linear_3087_168" x1="-0.990441" y1="7.09845" x2="9.55633" y2="9.68869" gradientUnits="userSpaceOnUse">
<stop offset="0.1297" stop-color="#3B67AD"/>
<stop offset="0.5697" stop-color="#227CAA"/>
<stop offset="0.9352" stop-color="#118AA8"/>
</linearGradient>
<linearGradient id="paint5_linear_3087_168" x1="-0.582563" y1="5.47338" x2="9.68025" y2="8.2522" gradientUnits="userSpaceOnUse">
<stop offset="0.1297" stop-color="#3A67B0"/>
<stop offset="0.5622" stop-color="#357FBD"/>
<stop offset="0.9352" stop-color="#3290C6"/>
</linearGradient>
<linearGradient id="paint6_linear_3087_168" x1="12.3992" y1="7.55045" x2="23.0139" y2="10.4245" gradientUnits="userSpaceOnUse">
<stop offset="0.1724" stop-color="#4E5CA8"/>
<stop offset="0.9937" stop-color="#1FC3F3"/>
</linearGradient>
</defs>
</svg>
