<svg width="24" height="24" viewBox="0 0 24 24" fill="none" xmlns="http://www.w3.org/2000/svg">
<g clip-path="url(#clip0_3087_189)">
<path d="M5.49833 0.00390625C5.49833 0.00390625 4.15904 4.50995 4.25653 5.84999C4.32514 6.78884 6.07124 8.02014 6.07124 8.02014C6.07124 8.02014 5.12076 9.14797 4.75445 9.78349C4.37651 10.4359 3.79835 11.9364 3.79835 11.9364C3.79835 11.9364 0.931548 8.57506 1.17039 6.92607C1.45084 4.93363 5.49833 0.00390625 5.49833 0.00390625ZM18.5013 0.00390625C18.5013 0.00390625 19.8409 4.50995 19.7438 5.84999C19.6752 6.78884 17.9291 8.02014 17.9291 8.02014C17.9291 8.02014 18.8796 9.14797 19.2459 9.78349C19.6239 10.4359 20.202 11.9364 20.202 11.9364C20.202 11.9364 23.0647 8.57543 22.8304 6.92644C22.5499 4.93363 18.5013 0.00390625 18.5013 0.00390625Z" fill="#BFBFBF"/>
<path d="M12.0427 5.28481C8.24697 5.28481 4.89743 7.96999 3.79254 11.9089L12.0427 14.6458V5.28481Z" fill="#7D9199"/>
<path d="M12.0368 5.26816C15.8329 5.26816 19.1821 7.95896 20.287 11.8923L12.0368 14.6292V5.26816Z" fill="#566366"/>
<path d="M3.77173 11.9026V17.6677C3.77173 17.6677 7.10402 18.9732 8.47811 20.0267C9.62124 20.9033 11.8194 24.0002 11.8194 24.0002H12.0294V11.9026H3.77173Z" fill="#7D9199"/>
<path d="M12.03 11.8223H20.2783V17.5878C20.2783 17.5878 16.946 18.8933 15.5719 19.9468C14.3984 20.8459 12.2227 23.9945 12.2227 23.9945H12.0222L12.03 11.8223Z" fill="#566366"/>
<path d="M10.995 11.629C10.995 11.354 11.1043 11.0903 11.2987 10.8958C11.4932 10.7014 11.7569 10.5922 12.0319 10.5922C12.3069 10.5922 12.5706 10.7014 12.765 10.8958C12.9595 11.0903 13.0687 11.354 13.0687 11.629C13.0687 11.904 12.9595 12.1677 12.765 12.3622C12.5706 12.5566 12.3069 12.6659 12.0319 12.6659C11.7569 12.6659 11.4932 12.5566 11.2987 12.3622C11.1043 12.1677 10.995 11.904 10.995 11.629Z" fill="white"/>
</g>
<defs>
<clipPath id="clip0_3087_189">
<rect width="24" height="24" fill="white"/>
</clipPath>
</defs>
</svg>
