<svg width="24" height="24" viewBox="0 0 24 24" fill="none" xmlns="http://www.w3.org/2000/svg">
<g clip-path="url(#clip0_3464_70)">
<path d="M17.5102 0H6.37871C2.85586 0 0 2.85585 0 6.37871V17.5102C0 21.033 2.85586 23.8889 6.37871 23.8889H17.5102C21.033 23.8889 23.8889 21.033 23.8889 17.5102V6.37871C23.8889 2.85585 21.033 0 17.5102 0Z" fill="#FF4AB6"/>
<path d="M3.07715 11.8464C3.07715 11.7052 3.12546 11.5827 3.22207 11.4787C3.3113 11.3821 3.43376 11.3227 3.58976 11.3004C4.80884 11.1295 5.83469 10.9438 6.6673 10.7433C7.49223 10.5501 8.17253 10.2901 8.70761 9.96327C9.24269 9.63644 9.67007 9.20558 9.98976 8.67075C10.3095 8.14333 10.5658 7.46733 10.759 6.64278C10.9599 5.82567 11.1384 4.81539 11.2944 3.61198C11.3091 3.44856 11.3685 3.31856 11.4728 3.22201C11.5768 3.12543 11.7033 3.07715 11.8519 3.07715C11.9931 3.07715 12.1156 3.12543 12.2196 3.22201C12.3239 3.31856 12.3833 3.44856 12.3981 3.61198C12.5319 4.81539 12.6916 5.82936 12.8775 6.65392C13.0633 7.47847 13.3199 8.15816 13.647 8.69303C13.9741 9.22786 14.4088 9.65872 14.9513 9.98555C15.4941 10.3124 16.1818 10.5724 17.0141 10.7655C17.8541 10.9661 18.8873 11.1444 20.1138 11.3004C20.2624 11.3227 20.3815 11.3821 20.4704 11.4787C20.5673 11.5827 20.6156 11.7052 20.6156 11.8464C20.6156 11.9949 20.5673 12.1175 20.4704 12.2141C20.3815 12.3107 20.2624 12.3738 20.1138 12.4035C18.8873 12.5595 17.8541 12.7341 17.0141 12.9272C16.1818 13.1278 15.4941 13.3878 14.9513 13.7072C14.4088 14.034 13.9741 14.4649 13.647 14.9997C13.3199 15.5346 13.0633 16.2143 12.8775 17.0388C12.6916 17.8634 12.5319 18.8811 12.3981 20.0919C12.3833 20.2479 12.3239 20.3742 12.2196 20.4707C12.1156 20.5673 11.9931 20.6156 11.8519 20.6156C11.7033 20.6156 11.5768 20.5673 11.4728 20.4707C11.3685 20.3742 11.3091 20.2479 11.2944 20.0919C11.1605 18.8811 11.0008 17.8634 10.815 17.0388C10.6291 16.2143 10.3725 15.5346 10.0455 14.9997C9.72607 14.4649 9.29469 14.034 8.75223 13.7072C8.20946 13.3878 7.51838 13.1278 6.67838 12.9272C5.83838 12.7341 4.80884 12.5595 3.58976 12.4035C3.43376 12.3738 3.3113 12.3107 3.22207 12.2141C3.12546 12.1175 3.07715 11.9949 3.07715 11.8464Z" fill="white"/>
</g>
<defs>
<clipPath id="clip0_3464_70">
<rect width="24" height="24" fill="white"/>
</clipPath>
</defs>
</svg>
