<svg width="24" height="24" viewBox="0 0 24 24" fill="none" xmlns="http://www.w3.org/2000/svg">
<g clip-path="url(#clip0_3464_47)">
<path fill-rule="evenodd" clip-rule="evenodd" d="M16.6487 13.5449L12.9287 13.5599C12.8987 13.5599 12.8837 13.5449 12.8837 13.4999L12.9437 10.9649C12.9437 10.9049 12.9737 10.8749 13.0037 10.8749H23.8187C23.9837 10.8749 24.0587 12.1499 24.0587 11.1749L23.9837 20.4749C23.9837 20.5499 23.9687 20.6099 23.9237 20.6549C23.8937 20.6999 23.8487 20.7299 23.7887 20.7299H17.9087C17.8187 20.7299 17.7737 20.6699 17.7737 20.5649L17.7437 19.1849C17.7287 19.1099 17.7137 19.0949 17.6687 19.1249C15.4487 20.6999 13.0637 21.0749 10.5737 20.9849C6.47871 20.8199 1.25871 19.8149 0.193711 13.7249C-0.0762891 12.2249 -0.0762891 10.5749 0.193711 8.78989C1.12371 2.68489 6.44871 1.60489 10.4687 1.51489C14.9087 1.40989 23.5037 1.22989 23.9537 9.32989C23.9537 9.37489 23.9387 9.41989 23.9087 9.44989C23.8937 9.47989 23.8637 9.50989 23.8187 9.50989H16.9937C16.9337 9.50989 16.9037 9.47989 16.8887 9.41989C16.4087 7.79989 14.9837 7.34989 13.7987 7.24489C11.9837 7.07989 9.35871 6.89989 7.99371 8.17489C6.52371 9.55489 6.50871 12.9449 8.02371 14.2949C8.99871 15.1649 10.2287 15.2399 11.5787 15.2849H11.5937C13.1237 15.3299 15.6437 15.4049 16.6937 13.6649C16.7537 13.5899 16.7387 13.5449 16.6487 13.5449Z" fill="url(#paint0_linear_3464_47)"/>
</g>
<defs>
<linearGradient id="paint0_linear_3464_47" x1="-0.429618" y1="25.9548" x2="25.5039" y2="1.49989" gradientUnits="userSpaceOnUse">
<stop stop-color="#C08060"/>
<stop offset="0.1" stop-color="#C060A0"/>
<stop offset="0.9" stop-color="#FF2040"/>
<stop offset="1" stop-color="#FF8000"/>
</linearGradient>
<clipPath id="clip0_3464_47">
<rect width="24" height="24" fill="white"/>
</clipPath>
</defs>
</svg>
