<svg width="40" height="40" viewBox="0 0 40 40" fill="none" xmlns="http://www.w3.org/2000/svg">
<path d="M19.9999 2C15.7258 2.00018 11.5912 3.52119 8.33594 6.29089C5.08067 9.0606 2.91714 12.8982 2.23249 17.1172C1.54783 21.3361 2.38672 25.661 4.59905 29.318C6.81138 32.975 10.2528 35.7254 14.3075 37.0772C15.2075 37.2348 15.545 36.6948 15.545 36.2222C15.545 35.7948 15.5225 34.3773 15.5225 32.8698C11 33.7023 9.82999 31.7673 9.47 30.7548C9.07054 29.7701 8.4373 28.8975 7.62501 28.2123C6.99501 27.8748 6.09502 27.0423 7.60249 27.0199C8.1781 27.0823 8.73018 27.2826 9.21193 27.6038C9.69369 27.9249 10.0909 28.3575 10.37 28.8648C10.6162 29.307 10.9472 29.6964 11.3441 30.0105C11.741 30.3246 12.196 30.5573 12.683 30.6952C13.17 30.8332 13.6795 30.8737 14.1821 30.8144C14.6848 30.7551 15.1709 30.5972 15.6124 30.3498C15.6903 29.4347 16.0982 28.5791 16.7599 27.9424C12.755 27.4924 8.57 25.9398 8.57 19.0549C8.54471 17.266 9.20483 15.5352 10.415 14.2175C9.8647 12.6627 9.92909 10.9564 10.595 9.4475C10.595 9.4475 12.1024 8.97499 15.545 11.2925C18.4902 10.4824 21.5996 10.4824 24.5449 11.2925C27.9873 8.9525 29.4949 9.4475 29.4949 9.4475C30.1608 10.9564 30.2252 12.6627 29.6749 14.2175C30.8887 15.5329 31.5494 17.2653 31.5198 19.0549C31.5198 25.9623 27.3123 27.4924 23.3074 27.9424C23.737 28.3778 24.0678 28.9005 24.2775 29.4751C24.4871 30.0497 24.5706 30.6626 24.5224 31.2723C24.5224 33.6799 24.4999 35.6148 24.4999 36.2223C24.4999 36.6948 24.8374 37.2573 25.7374 37.0773C29.7849 35.7145 33.2164 32.9576 35.4194 29.2987C37.6223 25.6398 38.4532 21.3172 37.7638 17.1023C37.0744 12.8875 34.9095 9.05482 31.6557 6.28849C28.4018 3.52216 24.2708 2.00222 19.9999 2Z" fill="black"/>
</svg>
