<svg width="24" height="24" viewBox="0 0 24 24" fill="none" xmlns="http://www.w3.org/2000/svg">
<path d="M11.9999 1.2002C9.43544 1.2003 6.95468 2.11291 5.00152 3.77473C3.04835 5.43655 1.75024 7.73914 1.33944 10.2705C0.928649 12.8018 1.43198 15.3968 2.75938 17.591C4.08678 19.7852 6.15162 21.4355 8.58445 22.2465C9.12445 22.3411 9.32694 22.0171 9.32694 21.7335C9.32694 21.4771 9.31343 20.6265 9.31343 19.7221C6.59994 20.2215 5.89795 19.0606 5.68195 18.4531C5.44227 17.8623 5.06233 17.3387 4.57496 16.9276C4.19696 16.7251 3.65696 16.2256 4.56145 16.2121C4.90681 16.2496 5.23806 16.3698 5.52711 16.5625C5.81616 16.7552 6.05451 17.0147 6.22195 17.3191C6.36966 17.5844 6.56828 17.818 6.80643 18.0065C7.04457 18.1949 7.31757 18.3346 7.60977 18.4173C7.90197 18.5001 8.20763 18.5244 8.50924 18.4888C8.81084 18.4533 9.10247 18.3585 9.3674 18.2101C9.41416 17.661 9.65885 17.1477 10.0559 16.7656C7.65294 16.4956 5.14195 15.5641 5.14195 11.4332C5.12678 10.3598 5.52285 9.32131 6.24895 8.53068C5.91877 7.5978 5.9574 6.57404 6.35694 5.6687C6.35694 5.6687 7.2614 5.38519 9.32692 6.77569C11.0941 6.28966 12.9597 6.28966 14.7269 6.77569C16.7923 5.3717 17.6969 5.6687 17.6969 5.6687C18.0965 6.57402 18.1351 7.59781 17.8049 8.53068C18.5331 9.31996 18.9296 10.3594 18.9119 11.4332C18.9119 15.5776 16.3874 16.4956 13.9844 16.7656C14.2421 17.0268 14.4406 17.3405 14.5664 17.6852C14.6922 18.03 14.7423 18.3978 14.7134 18.7636C14.7134 20.2081 14.6999 21.3691 14.6999 21.7336C14.6999 22.0171 14.9024 22.3546 15.4424 22.2466C17.8709 21.4289 19.9298 19.7747 21.2516 17.5794C22.5733 15.3841 23.0719 12.7905 22.6582 10.2616C22.2446 7.73269 20.9457 5.43309 18.9934 3.77329C17.041 2.11349 14.5624 1.20153 11.9999 1.2002Z" fill="black"/>
</svg>
