<svg width="24" height="24" viewBox="0 0 24 24" fill="none" xmlns="http://www.w3.org/2000/svg">
<path d="M12.0001 1.2002C9.43568 1.2003 6.95492 2.11291 5.00176 3.77473C3.0486 5.43655 1.75048 7.73914 1.33969 10.2705C0.928893 12.8018 1.43223 15.3968 2.75963 17.591C4.08702 19.7852 6.15187 21.4355 8.58469 22.2465C9.12469 22.3411 9.32719 22.0171 9.32719 21.7335C9.32719 21.4771 9.31368 20.6265 9.31368 19.7221C6.60019 20.2215 5.89819 19.0606 5.68219 18.4531C5.44252 17.8623 5.06258 17.3387 4.5752 16.9276C4.1972 16.7251 3.65721 16.2256 4.56169 16.2121C4.90706 16.2496 5.2383 16.3698 5.52736 16.5625C5.81641 16.7552 6.05475 17.0147 6.22219 17.3191C6.3699 17.5844 6.56852 17.818 6.80667 18.0065C7.04482 18.1949 7.31781 18.3346 7.61001 18.4173C7.90221 18.5001 8.20788 18.5244 8.50948 18.4888C8.81109 18.4533 9.10271 18.3585 9.36765 18.2101C9.4144 17.661 9.65909 17.1477 10.0562 16.7656C7.65318 16.4956 5.1422 15.5641 5.1422 11.4332C5.12702 10.3598 5.52309 9.32131 6.24919 8.53068C5.91902 7.5978 5.95765 6.57404 6.35719 5.6687C6.35719 5.6687 7.26165 5.38519 9.32717 6.77569C11.0943 6.28966 12.96 6.28966 14.7271 6.77569C16.7926 5.3717 17.6971 5.6687 17.6971 5.6687C18.0967 6.57402 18.1353 7.59781 17.8051 8.53068C18.5334 9.31996 18.9298 10.3594 18.9121 11.4332C18.9121 15.5776 16.3876 16.4956 13.9846 16.7656C14.2424 17.0268 14.4409 17.3405 14.5667 17.6852C14.6925 18.03 14.7426 18.3978 14.7136 18.7636C14.7136 20.2081 14.7001 21.3691 14.7001 21.7336C14.7001 22.0171 14.9026 22.3546 15.4426 22.2466C17.8712 21.4289 19.9301 19.7747 21.2518 17.5794C22.5736 15.3841 23.0721 12.7905 22.6585 10.2616C22.2448 7.73269 20.9459 5.43309 18.9936 3.77329C17.0413 2.11349 14.5627 1.20153 12.0001 1.2002Z" fill="#C6C6C6"/>
</svg>
