<svg width="24" height="24" viewBox="0 0 24 24" fill="none" xmlns="http://www.w3.org/2000/svg">
<g clip-path="url(#clip0_1535_3436)">
<g clip-path="url(#clip1_1535_3436)">
<path d="M23.603 9.42436L23.57 9.33985L20.3616 0.96847C20.2964 0.804288 20.181 0.664893 20.032 0.570181C19.8817 0.475374 19.7058 0.429525 19.5285 0.438965C19.3511 0.448404 19.181 0.512665 19.0417 0.622878C18.9037 0.733527 18.8042 0.884926 18.7574 1.05548L16.5883 7.69397H7.81247L5.64337 1.05548C5.59654 0.884926 5.49703 0.733527 5.35906 0.622878C5.22036 0.511924 5.0504 0.44718 4.87303 0.437729C4.69566 0.428278 4.51979 0.474596 4.37008 0.570181C4.22035 0.664505 4.10448 0.803985 4.03919 0.96847L0.827171 9.35084L0.794082 9.43417C0.332996 10.6415 0.276319 11.9658 0.632573 13.208C0.988827 14.4503 1.73875 15.5433 2.76958 16.3227L2.78184 16.3313L2.81003 16.3533L7.70343 20.0163L10.1225 21.8485L11.5932 22.9624C11.7659 23.093 11.9765 23.1636 12.1931 23.1636C12.4095 23.1636 12.6202 23.093 12.7929 22.9624L14.2635 21.8485L16.6839 20.0163L21.6055 16.3313L21.6189 16.3215C22.6532 15.5428 23.4062 14.4489 23.7641 13.2046C24.1221 11.9605 24.0655 10.6336 23.603 9.42436Z" fill="#E24329"/>
<path d="M23.6027 9.42436L23.5696 9.33984C22.0049 9.66228 20.5304 10.3254 19.251 11.2822L12.2056 16.6217C14.6075 18.4379 16.6983 20.0163 16.6983 20.0163L21.6198 16.3313L21.6333 16.3215C22.6651 15.5409 23.415 14.446 23.7703 13.202C24.1256 11.9579 24.0667 10.6321 23.6027 9.42436Z" fill="#FC6D26"/>
<path d="M7.70703 20.0157L10.1225 21.8479L11.5931 22.9618C11.7659 23.0924 11.9764 23.163 12.1929 23.163C12.4095 23.163 12.6201 23.0924 12.7928 22.9618L14.2634 21.8479L16.6838 20.0157C16.6838 20.0157 14.5931 18.4373 12.1911 16.6211L7.70703 20.0157Z" fill="#FCA326"/>
<path d="M5.14581 11.2869C3.86671 10.3297 2.39206 9.66696 0.82716 9.3457L0.794072 9.42904C0.331801 10.6369 0.274501 11.9623 0.630798 13.2056C0.987095 14.4488 1.7377 15.5427 2.76957 16.3225L2.78183 16.331L2.81002 16.3531L7.70342 20.0161L12.2059 16.6214L5.14581 11.2869Z" fill="#FC6D26"/>
</g>
</g>
<defs>
<clipPath id="clip0_1535_3436">
<rect width="24" height="24" fill="white"/>
</clipPath>
<clipPath id="clip1_1535_3436">
<rect width="23.6" height="23.6" fill="white" transform="translate(0.399902)"/>
</clipPath>
</defs>
</svg>
