<svg width="199" height="24" viewBox="0 0 199 24" fill="none" xmlns="http://www.w3.org/2000/svg">
<g clip-path="url(#clip0_2714_7)">
<path fill-rule="evenodd" clip-rule="evenodd" d="M173.833 14.4305V14.7263C173.833 16.3127 173.216 17.5012 171.946 18.344C170.29 19.4431 167.453 20 163.507 20H161.081C157.048 20 154.185 19.3386 152.566 18.0357C151.506 17.1804 150.989 15.9969 150.989 14.5573L159.036 14.5747C159.17 15.8353 160.37 16.4743 162.432 16.4743C164.625 16.4743 165.647 15.9919 165.647 15.0446C165.647 14.2266 165.082 13.7368 162.199 13.6572L159.023 13.5726C156.115 13.4856 154.004 12.961 152.748 12.0162C151.74 11.2553 151.248 10.2135 151.248 8.82861V8.63963C151.248 7.1627 151.884 6.07863 153.193 5.33022C154.758 4.43512 157.254 4 160.822 4H163.183C166.956 4 169.695 4.49231 171.323 5.45952C172.621 6.23279 173.253 7.37404 173.253 8.8311L165.329 8.81616C165.176 7.84895 164.137 7.37901 162.152 7.37901H162.045C159.575 7.37901 159.091 7.8067 159.091 8.51283C159.091 9.32837 160.008 9.65408 162.472 9.71126L165.52 9.77342C168.609 9.84554 170.663 10.2384 171.985 11.0092C173.246 11.7427 173.833 12.8292 173.833 14.4305ZM24.3508 11.4099L24.3457 19.7121L18.2 19.6798L18.1652 18.5708C18.1603 18.4515 18.0832 18.3993 18.0085 18.3993C17.9764 18.3993 17.9441 18.4092 17.9092 18.4291C16.1372 19.4187 14.0969 19.8787 11.4852 19.8787C11.234 19.8787 10.9708 19.8737 10.7024 19.8662C8.95522 19.814 6.39059 19.6425 4.27056 18.7623C2.02169 17.8274 0.692035 16.3082 0.204975 14.1202C0.068325 13.5097 0 12.8117 0 12.0903C0 11.3689 0.068325 10.6242 0.204975 9.92059C0.62249 7.7599 1.97947 6.18352 4.23835 5.23125C5.90352 4.53006 8.01086 4.16705 10.685 4.11734C11.0055 4.11237 11.4925 4.10489 12.0121 4.10489C14.1267 4.10489 17.2359 4.21428 19.7979 5.15663C22.6112 6.18851 24.1219 7.95633 24.3035 10.5372H17.283C16.7636 9.18214 15.1806 8.60777 13.9976 8.52324C13.3266 8.47598 12.6084 8.43124 11.8854 8.43124C10.0589 8.43124 8.78367 8.71968 7.98597 9.30894C7.2405 9.85858 6.78297 10.9022 6.78297 12.0407C6.78297 12.0559 6.78305 12.071 6.78321 12.0862C6.79565 13.2076 7.24806 14.1898 7.98841 14.7119C8.98523 15.4156 10.2251 15.4976 11.7285 15.5324C11.9996 15.5374 12.3053 15.5449 12.6284 15.5449C14.0845 15.5449 16.1301 15.4032 17.0715 14.1749C17.1108 14.1226 17.1237 14.0779 17.1237 14.0414C17.1237 14.0154 17.1174 13.9935 17.1091 13.9759C17.0891 13.9337 17.0419 13.8839 16.9278 13.8839H13.1702V11.4099H24.3508ZM41.0882 14.8366H48.9759V19.71H25.9389V14.8342H33.787C33.9187 14.8342 34.0278 14.7272 34.0278 14.593V9.384C34.0278 9.25223 33.9211 9.14281 33.787 9.14281H25.9389V4.27196H48.9759V9.14529H41.0882C40.9565 9.14529 40.8474 9.25223 40.8474 9.38651V14.5955C40.8474 14.7272 40.954 14.8366 41.0882 14.8366ZM73.7656 4.27196V9.14281H65.8778C65.7462 9.14281 65.6367 9.24974 65.6367 9.384V19.7125H58.8176V9.384C58.8176 9.25223 58.7105 9.14281 58.5762 9.14281H50.7282V4.27196H73.7656ZM92.4791 4.27389L99.7035 4.28384L92.5984 19.702H82.6901L75.0581 4.27389H82.9437L87.6205 14.2195C87.6627 14.3065 87.745 14.3613 87.8442 14.3613C87.9436 14.3613 88.0307 14.3041 88.0704 14.2145L92.4791 4.27389ZM150.01 19.702L142.778 19.6921C142.713 19.5951 142.698 19.436 142.698 19.1948V17.3201C142.698 15.4105 141.657 14.5204 139.42 14.5204H133.409C133.272 14.5204 133.162 14.6298 133.162 14.7665V19.702H126.447V4.27389H143.305C145.358 4.27389 146.93 4.57722 147.983 5.17397C149.115 5.81793 149.664 6.78516 149.664 8.1328V8.34413C149.664 10.4253 147.87 11.3154 146.799 11.661C146.687 11.6958 146.615 11.8003 146.615 11.9171C146.617 12.0364 146.697 12.1384 146.811 12.1707C148.693 12.7028 149.729 13.9759 149.729 15.7586V18.1182C149.729 19.0431 149.858 19.4385 150.01 19.702ZM124.683 4.27583V8.73393H108.175C108.038 8.73393 107.929 8.84335 107.929 8.98009V10.1114C107.929 10.2482 108.038 10.3576 108.175 10.3576H122.869V13.6645H108.175C108.038 13.6645 107.929 13.7739 107.929 13.9106V15.0444C107.929 15.1812 108.038 15.2906 108.175 15.2906H124.683V19.7337H101.223V4.27583H124.683ZM198.81 4.27583V8.73393H182.302C182.164 8.73393 182.055 8.84335 182.055 8.98009V10.1114C182.055 10.2482 182.164 10.3576 182.302 10.3576H196.996V13.6645H182.302C182.164 13.6645 182.055 13.7739 182.055 13.9106V15.0444C182.055 15.1812 182.164 15.2906 182.302 15.2906H198.81V19.7337H175.35V4.27583H198.81ZM140.71 10.6366C142.161 10.6366 142.465 9.95035 142.465 9.37599C142.465 8.80162 142.158 8.093 140.71 8.093H133.411C133.275 8.093 133.166 8.20242 133.166 8.33916V10.3904C133.166 10.5272 133.275 10.6366 133.411 10.6366H140.71Z" fill="black"/>
</g>
<defs>
<clipPath id="clip0_2714_7">
<rect width="198.81" height="24" fill="white"/>
</clipPath>
</defs>
</svg>
