<svg width="24" height="24" viewBox="0 0 24 24" fill="none" xmlns="http://www.w3.org/2000/svg">
<path d="M1.8109 10.7126C1.76416 10.7126 1.75248 10.6892 1.77584 10.6542L2.02122 10.3387C2.04459 10.3036 2.10301 10.2803 2.14975 10.2803H6.32112C6.36786 10.2803 6.37955 10.3153 6.35618 10.3504L6.15754 10.6542C6.13417 10.6892 6.07575 10.7243 6.04069 10.7243L1.8109 10.7126Z" fill="#00ACD7"/>
<path d="M0.0467381 11.7878C0 11.7878 -0.0116845 11.7644 0.0116845 11.7294L0.257059 11.4139C0.280428 11.3788 0.338851 11.3555 0.385589 11.3555H5.71373C5.76047 11.3555 5.78384 11.3905 5.77215 11.4256L5.67868 11.706C5.66699 11.7527 5.62025 11.7761 5.57352 11.7761L0.0467381 11.7878Z" fill="#00ACD7"/>
<path d="M2.87437 12.861C2.82764 12.861 2.81595 12.826 2.83932 12.7909L3.0029 12.4988C3.02627 12.4638 3.07301 12.4287 3.11975 12.4287H5.45665C5.50339 12.4287 5.52676 12.4638 5.52676 12.5105L5.50339 12.7909C5.50339 12.8377 5.45665 12.8727 5.4216 12.8727L2.87437 12.861Z" fill="#00ACD7"/>
<path d="M15.0023 10.5025C14.2661 10.6895 13.7637 10.8297 13.0393 11.0167C12.864 11.0634 12.8523 11.0751 12.7004 10.8998C12.5251 10.7012 12.3966 10.5727 12.1512 10.4558C11.4151 10.0936 10.7024 10.1987 10.0363 10.6311C9.24179 11.1452 8.83283 11.9047 8.84451 12.8511C8.8562 13.7859 9.49885 14.5571 10.4219 14.6856C11.2165 14.7908 11.8825 14.5103 12.4083 13.9144C12.5135 13.7859 12.6069 13.6457 12.7238 13.4821C12.3031 13.4821 11.7773 13.4821 10.4687 13.4821C10.2233 13.4821 10.1649 13.3302 10.2467 13.1316C10.3986 12.7693 10.679 12.1617 10.8426 11.8579C10.8776 11.7878 10.9594 11.671 11.1347 11.671C11.7306 11.671 13.9273 11.671 15.3878 11.671C15.3645 11.9865 15.3645 12.302 15.3177 12.6174C15.1892 13.4587 14.8737 14.2299 14.3596 14.9076C13.5183 16.0176 12.42 16.707 11.0295 16.894C9.88444 17.0459 8.82115 16.8239 7.88638 16.1228C7.02173 15.4685 6.53098 14.6038 6.40245 13.5288C6.25055 12.2552 6.62446 11.1101 7.39563 10.1053C8.22523 9.01861 9.32358 8.32922 10.6673 8.08385C11.7656 7.88521 12.8173 8.01374 13.7637 8.65639C14.383 9.06535 14.827 9.62621 15.1191 10.3039C15.1892 10.4091 15.1425 10.4675 15.0023 10.5025Z" fill="#00ACD7"/>
<path d="M18.87 16.9623C17.8067 16.939 16.8369 16.6352 16.019 15.9341C15.3296 15.3382 14.8973 14.5787 14.7571 13.679C14.5468 12.3586 14.909 11.1902 15.7035 10.1503C16.5565 9.02854 17.5847 8.44432 18.9752 8.19894C20.167 7.98862 21.2887 8.10547 22.3053 8.79485C23.2284 9.42582 23.8009 10.2788 23.9528 11.4005C24.1514 12.9779 23.6957 14.2632 22.6091 15.3616C21.8379 16.1444 20.8915 16.6352 19.8048 16.8572C19.4893 16.9156 19.1738 16.9273 18.87 16.9623ZM21.651 12.2418C21.6393 12.0899 21.6393 11.973 21.6159 11.8562C21.4056 10.6994 20.3423 10.0451 19.2323 10.3022C18.1456 10.5475 17.4445 11.2369 17.1875 12.3353C16.9771 13.2467 17.4212 14.1697 18.2624 14.5436C18.9051 14.8241 19.5477 14.789 20.167 14.4735C21.0901 13.9945 21.5925 13.2467 21.651 12.2418Z" fill="#00ACD7"/>
</svg>
