<svg width="24" height="24" viewBox="0 0 24 24" fill="none" xmlns="http://www.w3.org/2000/svg">
<g clip-path="url(#clip0_1535_2734)">
<g clip-path="url(#clip1_1535_2734)">
<rect width="24" height="24" rx="4.8" fill="#343F48"/>
<circle cx="13.0026" cy="13.1895" r="11.0911" transform="rotate(-45 13.0026 13.1895)" fill="#343F48"/>
<g filter="url(#filter0_bii_1535_2734)">
<path fill-rule="evenodd" clip-rule="evenodd" d="M25.0172 23.7354L20.2745 18.9926C21.4468 17.4588 22.0203 15.5485 21.8885 13.6167C21.7567 11.6848 20.9286 9.86267 19.5579 8.48851C19.3621 8.29276 19.097 8.18237 18.821 8.18162C18.5449 8.18087 18.2804 8.28982 18.0857 8.48451C17.8911 8.67919 17.7821 8.94366 17.7828 9.21974C17.7836 9.49582 17.894 9.76089 18.0897 9.95663C19.199 11.0659 19.8245 12.5679 19.8288 14.1324C19.833 15.6968 19.2156 17.1955 18.1124 18.2987C17.0092 19.4019 15.5105 20.0193 13.9461 20.015C12.3816 20.0108 10.8796 19.3852 9.77036 18.276C9.57462 18.0803 9.30955 17.9699 9.03347 17.9691C8.75739 17.9684 8.49292 18.0773 8.29824 18.272C8.10355 18.4667 7.9946 18.7312 7.99535 19.0072C7.9961 19.2833 8.10649 19.5484 8.30224 19.7441C9.67639 21.1148 11.4986 21.943 13.4304 22.0748C15.3623 22.2066 17.2725 21.6331 18.8064 20.4608L23.5491 25.2035C23.7449 25.3992 24.0099 25.5096 24.286 25.5104C24.5621 25.5111 24.8265 25.4022 25.0212 25.2075C25.2159 25.0128 25.3249 24.7483 25.3241 24.4723C25.3234 24.1962 25.213 23.9311 25.0172 23.7354Z" fill="white"/>
<path fill-rule="evenodd" clip-rule="evenodd" d="M17.1283 17.3146C17.9707 16.4703 18.442 15.3245 18.4387 14.1286C18.4355 12.9327 17.958 11.7843 17.111 10.9354L13.6667 7.49109C12.8185 6.64285 11.6698 6.16449 10.4735 6.16124C9.27716 6.15799 8.13112 6.63011 7.28748 7.47375C6.44384 8.31739 5.97172 9.46343 5.97497 10.6598C5.97822 11.8561 6.45658 13.0047 7.30482 13.853L10.7491 17.2973C11.598 18.1442 12.7464 18.6217 13.9423 18.625C15.1382 18.6282 16.284 18.157 17.1283 17.3146ZM8.05687 10.6654C8.05862 11.3096 8.3162 11.9281 8.77294 12.3848L12.2172 15.8291C12.674 16.2859 13.2925 16.5435 13.9367 16.5452C14.5808 16.547 15.1979 16.2927 15.6522 15.8385C16.1065 15.3842 16.3607 14.7671 16.3589 14.1229C16.3572 13.4787 16.0996 12.8602 15.6429 12.4035L12.1986 8.95921C11.7418 8.50247 11.1233 8.24489 10.4792 8.24314C9.83497 8.24139 9.21787 8.49561 8.76361 8.94988C8.30934 9.40414 8.05512 10.0212 8.05687 10.6654Z" fill="white"/>
</g>
<g filter="url(#filter1_bii_1535_2734)">
<path d="M10.9961 2.72526C9.06421 2.59346 7.15399 3.16695 5.6201 4.33924C5.6201 4.33924 5.22446 4.64779 4.84249 5.02976C4.46053 5.41172 4.15198 5.80737 4.15198 5.80737C2.97969 7.34125 2.40619 9.25148 2.53799 11.1833C2.66979 13.1152 3.49793 14.9373 4.86862 16.3115C5.06436 16.5073 5.32943 16.6176 5.60551 16.6184C5.88159 16.6191 6.14606 16.5102 6.34074 16.3155C6.53543 16.1208 6.64438 15.8563 6.64363 15.5803C6.64288 15.3042 6.53249 15.0391 6.33674 14.8434C5.22751 13.7341 4.60196 12.2321 4.59771 10.6677C4.59346 9.10322 5.21085 7.60455 6.31407 6.50133C7.41729 5.39812 8.91596 4.78072 10.4804 4.78498C12.0448 4.78923 13.5469 5.41478 14.6561 6.52401C14.8519 6.71975 15.1169 6.83014 15.393 6.83089C15.6691 6.83164 15.9336 6.72269 16.1282 6.52801C16.3229 6.33332 16.4319 6.06885 16.4311 5.79277C16.4304 5.5167 16.32 5.25163 16.1242 5.05588C14.7501 3.68519 12.9279 2.85706 10.9961 2.72526Z" fill="#07E897"/>
</g>
<rect x="8.86353" y="10.5029" width="2.05392" height="6.98332" rx="1.02696" transform="rotate(-45 8.86353 10.5029)" fill="#07E897"/>
</g>
</g>
<defs>
<filter id="filter0_bii_1535_2734" x="1.55893" y="1.74521" width="28.1812" height="28.1815" filterUnits="userSpaceOnUse" color-interpolation-filters="sRGB">
<feFlood flood-opacity="0" result="BackgroundImageFix"/>
<feGaussianBlur in="BackgroundImageFix" stdDeviation="2.20796"/>
<feComposite in2="SourceAlpha" operator="in" result="effect1_backgroundBlur_1535_2734"/>
<feBlend mode="normal" in="SourceGraphic" in2="effect1_backgroundBlur_1535_2734" result="shape"/>
<feColorMatrix in="SourceAlpha" type="matrix" values="0 0 0 0 0 0 0 0 0 0 0 0 0 0 0 0 0 0 127 0" result="hardAlpha"/>
<feOffset dy="0.205392"/>
<feGaussianBlur stdDeviation="0.102696"/>
<feComposite in2="hardAlpha" operator="arithmetic" k2="-1" k3="1"/>
<feColorMatrix type="matrix" values="0 0 0 0 1 0 0 0 0 1 0 0 0 0 1 0 0 0 0.15 0"/>
<feBlend mode="normal" in2="shape" result="effect2_innerShadow_1535_2734"/>
<feColorMatrix in="SourceAlpha" type="matrix" values="0 0 0 0 0 0 0 0 0 0 0 0 0 0 0 0 0 0 127 0" result="hardAlpha"/>
<feOffset/>
<feGaussianBlur stdDeviation="1.74583"/>
<feComposite in2="hardAlpha" operator="arithmetic" k2="-1" k3="1"/>
<feColorMatrix type="matrix" values="0 0 0 0 1 0 0 0 0 1 0 0 0 0 1 0 0 0 0.05 0"/>
<feBlend mode="normal" in2="effect2_innerShadow_1535_2734" result="effect3_innerShadow_1535_2734"/>
</filter>
<filter id="filter1_bii_1535_2734" x="-1.89639" y="-1.70889" width="22.7435" height="22.743" filterUnits="userSpaceOnUse" color-interpolation-filters="sRGB">
<feFlood flood-opacity="0" result="BackgroundImageFix"/>
<feGaussianBlur in="BackgroundImageFix" stdDeviation="2.20796"/>
<feComposite in2="SourceAlpha" operator="in" result="effect1_backgroundBlur_1535_2734"/>
<feBlend mode="normal" in="SourceGraphic" in2="effect1_backgroundBlur_1535_2734" result="shape"/>
<feColorMatrix in="SourceAlpha" type="matrix" values="0 0 0 0 0 0 0 0 0 0 0 0 0 0 0 0 0 0 127 0" result="hardAlpha"/>
<feOffset dy="0.205392"/>
<feGaussianBlur stdDeviation="0.102696"/>
<feComposite in2="hardAlpha" operator="arithmetic" k2="-1" k3="1"/>
<feColorMatrix type="matrix" values="0 0 0 0 1 0 0 0 0 1 0 0 0 0 1 0 0 0 0.15 0"/>
<feBlend mode="normal" in2="shape" result="effect2_innerShadow_1535_2734"/>
<feColorMatrix in="SourceAlpha" type="matrix" values="0 0 0 0 0 0 0 0 0 0 0 0 0 0 0 0 0 0 127 0" result="hardAlpha"/>
<feOffset/>
<feGaussianBlur stdDeviation="1.74583"/>
<feComposite in2="hardAlpha" operator="arithmetic" k2="-1" k3="1"/>
<feColorMatrix type="matrix" values="0 0 0 0 1 0 0 0 0 1 0 0 0 0 1 0 0 0 0.05 0"/>
<feBlend mode="normal" in2="effect2_innerShadow_1535_2734" result="effect3_innerShadow_1535_2734"/>
</filter>
<clipPath id="clip0_1535_2734">
<rect width="24" height="24" fill="white"/>
</clipPath>
<clipPath id="clip1_1535_2734">
<rect width="24" height="24" rx="4.8" fill="white"/>
</clipPath>
</defs>
</svg>
