<svg width="40" height="40" viewBox="0 0 40 40" fill="none" xmlns="http://www.w3.org/2000/svg">
<path fill-rule="evenodd" clip-rule="evenodd" d="M5.7207 19.867L12.7426 32.0287H12.7427H26.7855L33.8074 19.867L26.7857 7.70508H12.7426L5.7207 19.867ZM14.5273 19.9446C14.5273 22.9626 16.9825 25.4179 20.0005 25.4179C23.0183 25.4179 25.4734 22.9626 25.4734 19.9446C25.4734 16.9268 23.0183 14.4717 20.0005 14.4717C16.9825 14.4717 14.5273 16.9268 14.5273 19.9446Z" fill="#CAC9C2"/>
<path d="M4.17675 12.002L3.9555 12.3852C3.91581 12.951 4.01956 13.542 4.26893 13.9738L7.69143 19.8254L9.51237 16.6799L4.17675 12.002Z" fill="#4D6796"/>
<path fill-rule="evenodd" clip-rule="evenodd" d="M28.6622 2.27246C29.5227 2.27246 30.5789 2.88215 31.0094 3.62746L34.5246 9.71574C34.0802 9.44324 33.5689 9.27027 33.1121 9.27027H13.8011L7.69159 19.8251L4.26909 13.9736C4.01956 13.5417 3.91581 12.9507 3.9555 12.385L9.01159 3.62746C9.44175 2.8823 10.498 2.27246 11.3586 2.27246H28.6622ZM11.0596 6.4619C11.2576 6.65986 11.526 6.77121 11.8059 6.77154C12.0859 6.77125 12.3543 6.65991 12.5523 6.46196C12.7503 6.264 12.8617 5.99558 12.862 5.71561C12.8617 5.43562 12.7504 5.16718 12.5524 4.96921C12.3544 4.77124 12.0859 4.65992 11.8059 4.65967C11.526 4.66 11.2576 4.77136 11.0596 4.96931C10.8617 5.16727 10.7503 5.43566 10.75 5.71561C10.7503 5.99556 10.8617 6.26395 11.0596 6.4619ZM29.0385 6.09358C29.0869 5.97352 29.111 5.84504 29.1094 5.71561C29.1061 5.45844 29.0017 5.2129 28.8187 5.03219C28.6357 4.85148 28.3888 4.75015 28.1316 4.75015C27.8744 4.75015 27.6276 4.85148 27.4446 5.03219C27.2616 5.2129 27.1572 5.45844 27.1539 5.71561C27.1523 5.84504 27.1764 5.97352 27.2248 6.09358C27.2732 6.21364 27.3449 6.32289 27.4359 6.415C27.5268 6.50711 27.6352 6.58024 27.7546 6.63016C27.874 6.68007 28.0022 6.70578 28.1316 6.70578C28.2611 6.70578 28.3892 6.68007 28.5087 6.63016C28.6281 6.58024 28.7365 6.50711 28.8274 6.415C28.9184 6.32289 28.9901 6.21364 29.0385 6.09358Z" fill="#5072AA"/>
<path fill-rule="evenodd" clip-rule="evenodd" d="M34.5247 9.71582L39.6614 18.6133C40.0919 19.3586 40.0919 20.5782 39.6614 21.3235L31.0095 36.3089C30.5792 37.0541 29.523 37.6639 28.6623 37.6639H21.6562C22.0681 37.42 22.4269 37.0896 22.6367 36.7264L32.1698 19.8836L26.1484 9.27051H33.1122C33.5691 9.27051 34.0803 9.44332 34.5247 9.71582ZM27.3838 34.7659C27.5818 34.9639 27.8502 35.0752 28.1302 35.0756C28.4102 35.0753 28.6786 34.9639 28.8766 34.7659C29.0746 34.5679 29.186 34.2995 29.1862 34.0195C29.1859 33.7395 29.0745 33.4711 28.8766 33.2731C28.6786 33.0752 28.4101 32.9638 28.1302 32.9635C27.8502 32.9639 27.5818 33.0752 27.3839 33.2732C27.1859 33.4711 27.0745 33.7395 27.0742 34.0195C27.0745 34.2995 27.1858 34.5679 27.3838 34.7659ZM35.6018 20.6915C35.7998 20.8895 36.0683 21.0009 36.3483 21.0012C36.6283 21.0009 36.8967 20.8895 37.0947 20.6915C37.2926 20.4935 37.404 20.2251 37.4042 19.9451C37.4039 19.6651 37.2925 19.3968 37.0946 19.1988C36.8966 19.0008 36.6282 18.8895 36.3483 18.8892C36.0683 18.8895 35.7999 19.0008 35.6019 19.1987C35.4039 19.3967 35.2925 19.6651 35.2922 19.9451C35.2925 20.2251 35.4038 20.4936 35.6018 20.6915Z" fill="#CC4232"/>
<path d="M34.7566 10.115L34.5263 9.71582C34.0823 9.44332 33.571 9.27051 33.1141 9.27051H26.1504L27.9629 12.4654L34.7566 10.115" fill="#B23F33"/>
<path d="M21.0703 37.6637H21.6692C22.0813 37.4199 22.4398 37.0895 22.6495 36.7262L26.1745 30.4985H22.4208L21.0703 37.6637Z" fill="#C79732"/>
<path fill-rule="evenodd" clip-rule="evenodd" d="M4.26922 13.9734L13.9344 30.4984V30.4982H26.1616L22.6367 36.7259C22.4269 37.0891 22.0681 37.4196 21.6562 37.6634H11.3587C10.4981 37.6634 9.44188 37.0537 9.01172 36.3085L0.359844 21.323C-0.0704687 20.5777 -0.0704687 19.3582 0.359844 18.6129L3.95562 12.3848C3.91609 12.9505 4.01984 13.5415 4.26922 13.9734ZM11.058 34.7654C11.256 34.9634 11.5244 35.0747 11.8044 35.0751C12.0844 35.0748 12.3529 34.9635 12.5509 34.7655C12.7489 34.5675 12.8602 34.299 12.8605 34.019C12.8602 33.739 12.7488 33.4706 12.5508 33.2726C12.3528 33.0746 12.0844 32.9633 11.8044 32.963C11.5244 32.9634 11.256 33.0747 11.0581 33.2727C10.8601 33.4706 10.7488 33.739 10.7484 34.019C10.7487 34.299 10.8601 34.5674 11.058 34.7654ZM2.82527 20.6911C3.02326 20.8891 3.29171 21.0004 3.57172 21.0007C3.8517 21.0004 4.12011 20.889 4.31807 20.691C4.51603 20.493 4.62737 20.2246 4.62766 19.9446C4.62733 19.6647 4.51597 19.3963 4.31801 19.1983C4.12006 19.0004 3.85167 18.889 3.57172 18.8887C3.29174 18.889 3.02331 19.0003 2.82532 19.1983C2.62733 19.3962 2.51596 19.6646 2.51562 19.9446C2.51591 20.2246 2.62727 20.4931 2.82527 20.6911Z" fill="#ECB02A"/>
</svg>
