<svg width="24" height="24" viewBox="0 0 24 24" fill="none" xmlns="http://www.w3.org/2000/svg">
<path d="M8.29325 3.86956C8.51571 3.27846 8.82715 2.73821 9.28478 2.29965C11.1153 0.513629 14.1407 0.964901 15.3865 3.20855C16.3208 4.91194 17.3123 6.57084 18.2721 8.25516C19.8801 11.0518 21.5072 13.842 23.0962 16.645C24.431 18.9903 22.9818 21.9522 20.3314 22.3526C18.7043 22.5942 17.1852 21.8505 16.3399 20.3886C14.9288 17.9289 13.5115 15.4755 12.1005 13.0285C12.075 12.9713 12.0369 12.9268 11.9988 12.8759C11.8462 12.7552 11.7827 12.5772 11.6873 12.4183C11.0644 11.3187 10.4161 10.2255 9.79325 9.13228C9.39283 8.42042 8.97333 7.72126 8.56655 7.0094C8.20427 6.3738 8.03266 5.68101 8.05172 4.95643C8.07715 4.58143 8.12799 4.20643 8.29325 3.86956Z" fill="#3C8BD9"/>
<path d="M8.29276 3.86914C8.21013 4.20601 8.13386 4.54287 8.11479 4.8988C8.08937 5.68058 8.28005 6.41152 8.67412 7.0916C9.70378 8.85855 10.7271 10.6319 11.7504 12.4052C11.8457 12.5641 11.9156 12.723 12.011 12.8691C11.4517 13.8416 10.8923 14.8014 10.3203 15.7738C9.53852 17.1276 8.75039 18.4942 7.95589 19.848C7.91776 19.848 7.9114 19.8289 7.89869 19.8035C7.89234 19.7272 7.91776 19.6636 7.93683 19.5874C8.31818 18.1891 8.00039 16.9433 7.04064 15.8755C6.44954 15.2336 5.70589 14.8649 4.84784 14.7441C3.7292 14.5853 2.73767 14.8776 1.84784 15.5768C1.68894 15.6975 1.58725 15.8755 1.39657 15.9708C1.35843 15.9708 1.33936 15.9518 1.33301 15.9264C1.78428 15.1509 2.22284 14.3755 2.66776 13.6001C4.51733 10.384 6.36691 7.17423 8.2292 3.96448C8.24827 3.93906 8.27369 3.90728 8.29276 3.86914Z" fill="#FABC04"/>
<path d="M1.37149 15.9648C1.54945 15.8059 1.71471 15.6406 1.90539 15.4881C4.17446 13.6957 7.58759 14.9923 8.08336 17.8334C8.20412 18.5135 8.14056 19.1682 7.93081 19.8228C7.92446 19.88 7.91175 19.9245 7.89268 19.9817C7.81005 20.1343 7.73378 20.2932 7.63844 20.4394C6.80581 21.8122 5.58547 22.4923 3.97742 22.3906C2.1342 22.2572 0.691401 20.8779 0.437164 19.0474C0.316401 18.1576 0.494368 17.3313 0.951995 16.5622C1.04733 16.397 1.15538 16.2444 1.26344 16.0792C1.30793 16.0347 1.28886 15.9648 1.37149 15.9648Z" fill="#34A852"/>
<path d="M1.37106 15.9654C1.33293 16.0035 1.33293 16.0671 1.26937 16.0798C1.26301 16.0162 1.29479 15.9781 1.33293 15.9272L1.37106 15.9654Z" fill="#FABC04"/>
<path d="M7.89275 19.9821C7.85461 19.9186 7.89275 19.8677 7.93088 19.8232C7.93724 19.8296 7.95631 19.8487 7.96902 19.8614L7.89275 19.9821Z" fill="#E1C025"/>
</svg>
