<svg width="24" height="24" viewBox="0 0 24 24" fill="none" xmlns="http://www.w3.org/2000/svg">
<path d="M8.293 3.86956C8.51546 3.27846 8.8269 2.73821 9.28453 2.29965C11.115 0.513629 14.1405 0.964901 15.3862 3.20855C16.3206 4.91194 17.3121 6.57084 18.2718 8.25516C19.8799 11.0518 21.507 13.842 23.096 16.645C24.4307 18.9903 22.9816 21.9522 20.3312 22.3526C18.704 22.5942 17.185 21.8505 16.3396 20.3886C14.9286 17.9289 13.5112 15.4755 12.1002 13.0285C12.0748 12.9713 12.0367 12.9268 11.9985 12.8759C11.846 12.7552 11.7824 12.5772 11.6871 12.4183C11.0642 11.3187 10.4159 10.2255 9.79301 9.13228C9.39258 8.42042 8.97309 7.72126 8.56631 7.0094C8.20402 6.3738 8.03241 5.68101 8.05148 4.95643C8.0769 4.58143 8.12775 4.20643 8.293 3.86956Z" fill="#3C8BD9"/>
<path d="M8.29276 3.86914C8.21013 4.20601 8.13386 4.54287 8.11479 4.8988C8.08937 5.68058 8.28005 6.41152 8.67412 7.0916C9.70378 8.85855 10.7271 10.6319 11.7504 12.4052C11.8457 12.5641 11.9156 12.723 12.011 12.8691C11.4517 13.8416 10.8923 14.8014 10.3203 15.7738C9.53852 17.1276 8.75039 18.4942 7.95589 19.848C7.91776 19.848 7.9114 19.8289 7.89869 19.8035C7.89234 19.7272 7.91776 19.6636 7.93683 19.5874C8.31818 18.1891 8.00039 16.9433 7.04064 15.8755C6.44954 15.2336 5.70589 14.8649 4.84784 14.7441C3.7292 14.5853 2.73767 14.8776 1.84784 15.5768C1.68894 15.6975 1.58725 15.8755 1.39657 15.9708C1.35843 15.9708 1.33936 15.9518 1.33301 15.9264C1.78428 15.1509 2.22284 14.3755 2.66776 13.6001C4.51733 10.384 6.36691 7.17423 8.2292 3.96448C8.24827 3.93906 8.27369 3.90728 8.29276 3.86914Z" fill="#FABC04"/>
<path d="M1.37124 15.9653C1.54921 15.8064 1.71446 15.6411 1.90514 15.4886C4.17421 13.6962 7.58735 14.9928 8.08311 17.8339C8.20387 18.514 8.14032 19.1687 7.93057 19.8233C7.92421 19.8805 7.9115 19.925 7.89243 19.9822C7.80981 20.1348 7.73354 20.2937 7.6382 20.4398C6.80557 21.8127 5.58523 22.4928 3.97718 22.3911C2.13395 22.2576 0.691157 20.8784 0.43692 19.0479C0.316157 18.1581 0.494124 17.3318 0.951751 16.5627C1.04709 16.3975 1.15514 16.2449 1.26319 16.0797C1.30768 16.0352 1.28861 15.9653 1.37124 15.9653Z" fill="#34A852"/>
<path d="M1.37106 15.9654C1.33293 16.0035 1.33293 16.0671 1.26937 16.0798C1.26301 16.0162 1.29479 15.9781 1.33293 15.9272L1.37106 15.9654Z" fill="#FABC04"/>
<path d="M7.89251 19.9821C7.85437 19.9186 7.89251 19.8677 7.93064 19.8232C7.937 19.8296 7.95606 19.8487 7.96878 19.8614L7.89251 19.9821Z" fill="#E1C025"/>
</svg>
