<svg width="24" height="24" viewBox="0 0 24 24" fill="none" xmlns="http://www.w3.org/2000/svg">
<g clip-path="url(#clip0_1535_394)">
<path d="M22.6033 6.4009C23.4868 8.07151 23.987 9.97605 23.987 11.9973C23.987 18.6192 18.6189 23.9873 11.9969 23.9873C11.844 23.9873 11.6918 23.9844 11.5405 23.9788L16.7999 14.869C17.3032 14.0295 17.5923 13.0471 17.5923 11.9973C17.5923 8.90708 15.0872 6.40197 11.9969 6.40197H22.6014L22.6033 6.4009Z" fill="#FBCB4F"/>
<path d="M22.6032 6.40097L22.6013 6.40204H11.9968C8.90657 6.40204 6.40146 8.90715 6.40146 11.9974C6.40146 12.9814 6.65536 13.9057 7.10141 14.709L1.84872 5.61123L1.84766 5.6107C3.97069 2.2439 7.72249 0.00736618 11.9968 0.00736618C16.5975 0.00736618 20.5928 2.59854 22.6032 6.40097Z" fill="#DB524A"/>
<path d="M11.9965 17.0591C10.1575 17.0591 8.46025 16.0592 7.5671 14.4497C7.15294 13.7038 6.93408 12.8556 6.93408 11.9966C6.93408 9.20517 9.20507 6.93419 11.9965 6.93419C14.788 6.93419 17.059 9.20517 17.059 11.9966C17.059 12.9141 16.8112 13.8124 16.3424 14.5944C15.9004 15.3322 15.2736 15.9499 14.5296 16.3808C13.7635 16.8245 12.8876 17.0591 11.9965 17.0591Z" fill="#548EF2"/>
<path d="M11.9972 6.4016C8.90697 6.4016 6.40186 8.90672 6.40186 11.9969C6.40186 12.9809 6.65578 13.9052 7.10181 14.7086C8.05621 16.4285 9.89095 17.5923 11.9972 17.5923C14.0376 17.5923 15.8228 16.5001 16.8001 14.8687C17.3034 14.0291 17.5925 13.0467 17.5925 11.9969C17.5925 8.90672 15.0874 6.4016 11.9972 6.4016ZM11.9972 7.46738C13.2071 7.46738 14.3446 7.93854 15.2001 8.79407C16.0556 9.64957 16.5267 10.787 16.5267 11.9969C16.5267 12.8179 16.3052 13.6215 15.8858 14.321C15.4903 14.9814 14.9291 15.5343 14.2632 15.92C13.5781 16.3168 12.7946 16.5265 11.9972 16.5265C11.1737 16.5265 10.3679 16.3037 9.66684 15.882C8.98445 15.4717 8.41972 14.887 8.03359 14.1912C7.66334 13.5243 7.46763 12.7656 7.46763 11.9969C7.46763 10.787 7.93879 9.64957 8.79431 8.79407C9.64981 7.93854 10.7873 7.46738 11.9972 7.46738Z" fill="white"/>
<path d="M16.7998 14.8683L11.5404 23.978C5.13004 23.738 0.00683594 18.4656 0.00683594 11.9966C0.00683594 9.64892 0.681475 7.45901 1.8477 5.60988L1.84877 5.61041L7.10146 14.7081C8.05587 16.4281 9.89061 17.5919 11.9969 17.5919C14.0373 17.5919 15.8225 16.4997 16.7998 14.8683Z" fill="#25A061"/>
<g opacity="0.100006">
<g opacity="0.100006">
<g opacity="0.100006">
<g opacity="0.100006">
<g opacity="0.100006">
<g opacity="0.100006">
<path opacity="0.100006" d="M11.9956 6.40489H22.6001L11.9956 9.06934V6.40489Z" fill="url(#paint0_linear_1535_394)"/>
</g>
</g>
</g>
</g>
</g>
</g>
<g opacity="0.100006">
<g opacity="0.100006">
<g opacity="0.100006">
<g opacity="0.100006">
<g opacity="0.100006">
<g opacity="0.100006">
<path opacity="0.100006" d="M16.8413 14.7918L11.5391 23.9756L14.5338 13.4596L16.8413 14.7918Z" fill="url(#paint1_linear_1535_394)"/>
</g>
</g>
</g>
</g>
</g>
</g>
<g opacity="0.100006">
<g opacity="0.100006">
<g opacity="0.100006">
<g opacity="0.100006">
<g opacity="0.100006">
<g opacity="0.100006">
<path opacity="0.100006" d="M7.15137 14.7969L1.84912 5.61311L9.45883 13.4647L7.15137 14.7969Z" fill="url(#paint2_linear_1535_394)"/>
</g>
</g>
</g>
</g>
</g>
</g>
<path d="M11.9965 17.0591C9.20507 17.0591 6.93408 14.7881 6.93408 11.9966C6.93408 9.20517 9.20507 6.93419 11.9965 6.93419C14.788 6.93419 17.059 9.20517 17.059 11.9966C17.059 14.7881 14.788 17.0591 11.9965 17.0591Z" fill="#548EF2"/>
<path d="M11.9972 6.4016C8.90697 6.4016 6.40186 8.90672 6.40186 11.9969C6.40186 15.0871 8.90697 17.5923 11.9972 17.5923C15.0874 17.5923 17.5925 15.0871 17.5925 11.9969C17.5925 8.90672 15.0874 6.4016 11.9972 6.4016ZM11.9972 7.46738C13.2071 7.46738 14.3446 7.93854 15.2001 8.79407C16.0556 9.64957 16.5267 10.787 16.5267 11.9969C16.5267 13.2068 16.0556 14.3443 15.2001 15.1998C14.3446 16.0553 13.2071 16.5265 11.9972 16.5265C10.7873 16.5265 9.64981 16.0553 8.79431 15.1998C7.93879 14.3443 7.46763 13.2068 7.46763 11.9969C7.46763 10.787 7.93879 9.64957 8.79431 8.79407C9.64981 7.93854 10.7873 7.46738 11.9972 7.46738Z" fill="white"/>
</g>
<defs>
<linearGradient id="paint0_linear_1535_394" x1="11.9956" y1="7.73711" x2="22.6001" y2="7.73711" gradientUnits="userSpaceOnUse">
<stop stop-color="white"/>
<stop offset="0.405149" stop-color="#231F20"/>
<stop offset="1" stop-color="#231F20"/>
</linearGradient>
<linearGradient id="paint1_linear_1535_394" x1="15.6876" y1="14.1257" x2="10.3853" y2="23.3095" gradientUnits="userSpaceOnUse">
<stop stop-color="white"/>
<stop offset="0.405149" stop-color="#231F20"/>
<stop offset="1" stop-color="#231F20"/>
</linearGradient>
<linearGradient id="paint2_linear_1535_394" x1="8.3051" y1="14.1308" x2="3.00285" y2="4.947" gradientUnits="userSpaceOnUse">
<stop stop-color="white"/>
<stop offset="0.405149" stop-color="#231F20"/>
<stop offset="1" stop-color="#231F20"/>
</linearGradient>
<clipPath id="clip0_1535_394">
<rect width="24" height="24" fill="white"/>
</clipPath>
</defs>
</svg>
