<svg width="24" height="24" viewBox="0 0 24 24" fill="none" xmlns="http://www.w3.org/2000/svg">
<g clip-path="url(#clip0_1535_351)">
<path d="M22.6028 6.39993C23.4864 8.07053 23.9865 9.97508 23.9865 11.9963C23.9865 18.6183 18.6184 23.9863 11.9965 23.9863C11.8435 23.9863 11.6914 23.9834 11.54 23.9778L16.7994 14.8681C17.3027 14.0285 17.5918 13.0461 17.5918 11.9963C17.5918 8.9061 15.0867 6.40099 11.9965 6.40099H22.601L22.6028 6.39993Z" fill="#FBCB4F"/>
<path d="M22.6027 6.4L22.6008 6.40106H11.9963C8.90609 6.40106 6.40097 8.90618 6.40097 11.9964C6.40097 12.9804 6.65487 13.9047 7.10092 14.708L1.84823 5.61025L1.84717 5.60972C3.9702 2.24293 7.72201 0.00638962 11.9963 0.00638962C16.597 0.00638962 20.5923 2.59756 22.6027 6.4Z" fill="#DB524A"/>
<path d="M11.9963 17.0591C10.1573 17.0591 8.46001 16.0592 7.56686 14.4497C7.1527 13.7038 6.93384 12.8556 6.93384 11.9966C6.93384 9.20517 9.20483 6.93419 11.9963 6.93419C14.7878 6.93419 17.0587 9.20517 17.0587 11.9966C17.0587 12.9141 16.8109 13.8124 16.3422 14.5944C15.9002 15.3322 15.2733 15.9499 14.5293 16.3808C13.7632 16.8245 12.8873 17.0591 11.9963 17.0591Z" fill="#548EF2"/>
<path d="M11.9967 6.40112C8.90648 6.40112 6.40137 8.90623 6.40137 11.9965C6.40137 12.9804 6.65529 13.9047 7.10132 14.7081C8.05572 16.428 9.89046 17.5918 11.9967 17.5918C14.0371 17.5918 15.8223 16.4996 16.7996 14.8682C17.3029 14.0286 17.592 13.0462 17.592 11.9965C17.592 8.90623 15.0869 6.40112 11.9967 6.40112ZM11.9967 7.4669C13.2066 7.4669 14.3441 7.93805 15.1996 8.79358C16.0551 9.64908 16.5263 10.7866 16.5263 11.9965C16.5263 12.8175 16.3047 13.621 15.8854 14.3205C15.4898 14.9809 14.9286 15.5338 14.2627 15.9195C13.5776 16.3163 12.7941 16.526 11.9967 16.526C11.1732 16.526 10.3674 16.3032 9.66635 15.8815C8.98396 15.4712 8.41923 14.8866 8.0331 14.1907C7.66285 13.5239 7.46715 12.7651 7.46715 11.9965C7.46715 10.7866 7.9383 9.64908 8.79383 8.79358C9.64933 7.93805 10.7868 7.4669 11.9967 7.4669Z" fill="white"/>
<path d="M16.7993 14.8683L11.5399 23.978C5.12955 23.738 0.00634766 18.4656 0.00634766 11.9966C0.00634766 9.64892 0.680987 7.45901 1.84722 5.60988L1.84828 5.61041L7.10098 14.7081C8.05538 16.4281 9.89012 17.5919 11.9964 17.5919C14.0368 17.5919 15.822 16.4997 16.7993 14.8683Z" fill="#25A061"/>
<g opacity="0.100006">
<g opacity="0.100006">
<g opacity="0.100006">
<g opacity="0.100006">
<g opacity="0.100006">
<g opacity="0.100006">
<path opacity="0.100006" d="M11.9963 6.40098H22.6008L11.9963 9.06543V6.40098Z" fill="url(#paint0_linear_1535_351)"/>
</g>
</g>
</g>
</g>
</g>
</g>
<g opacity="0.100006">
<g opacity="0.100006">
<g opacity="0.100006">
<g opacity="0.100006">
<g opacity="0.100006">
<g opacity="0.100006">
<path opacity="0.100006" d="M16.842 14.7943L11.5398 23.978L14.5346 13.462L16.842 14.7943Z" fill="url(#paint1_linear_1535_351)"/>
</g>
</g>
</g>
</g>
</g>
</g>
<g opacity="0.100006">
<g opacity="0.100006">
<g opacity="0.100006">
<g opacity="0.100006">
<g opacity="0.100006">
<g opacity="0.100006">
<path opacity="0.100006" d="M7.15064 14.7939L1.84839 5.61018L9.4581 13.4617L7.15064 14.7939Z" fill="url(#paint2_linear_1535_351)"/>
</g>
</g>
</g>
</g>
</g>
</g>
<path d="M11.9963 17.0591C9.20483 17.0591 6.93384 14.7881 6.93384 11.9966C6.93384 9.20517 9.20483 6.93419 11.9963 6.93419C14.7878 6.93419 17.0587 9.20517 17.0587 11.9966C17.0587 14.7881 14.7878 17.0591 11.9963 17.0591Z" fill="#548EF2"/>
<path d="M11.9967 6.40112C8.90648 6.40112 6.40137 8.90623 6.40137 11.9965C6.40137 15.0867 8.90648 17.5918 11.9967 17.5918C15.0869 17.5918 17.592 15.0867 17.592 11.9965C17.592 8.90623 15.0869 6.40112 11.9967 6.40112ZM11.9967 7.4669C13.2066 7.4669 14.3441 7.93805 15.1996 8.79358C16.0551 9.64908 16.5263 10.7866 16.5263 11.9965C16.5263 13.2063 16.0551 14.3438 15.1996 15.1993C14.3441 16.0548 13.2066 16.526 11.9967 16.526C10.7868 16.526 9.64933 16.0548 8.79383 15.1993C7.9383 14.3438 7.46715 13.2063 7.46715 11.9965C7.46715 10.7866 7.9383 9.64908 8.79383 8.79358C9.64933 7.93805 10.7868 7.4669 11.9967 7.4669Z" fill="white"/>
</g>
<defs>
<linearGradient id="paint0_linear_1535_351" x1="11.9963" y1="7.73321" x2="22.6008" y2="7.73321" gradientUnits="userSpaceOnUse">
<stop stop-color="white"/>
<stop offset="0.405149" stop-color="#231F20"/>
<stop offset="1" stop-color="#231F20"/>
</linearGradient>
<linearGradient id="paint1_linear_1535_351" x1="15.6883" y1="14.1281" x2="10.3861" y2="23.3119" gradientUnits="userSpaceOnUse">
<stop stop-color="white"/>
<stop offset="0.405149" stop-color="#231F20"/>
<stop offset="1" stop-color="#231F20"/>
</linearGradient>
<linearGradient id="paint2_linear_1535_351" x1="8.30437" y1="14.1278" x2="3.00212" y2="4.94407" gradientUnits="userSpaceOnUse">
<stop stop-color="white"/>
<stop offset="0.405149" stop-color="#231F20"/>
<stop offset="1" stop-color="#231F20"/>
</linearGradient>
<clipPath id="clip0_1535_351">
<rect width="24" height="24" fill="white"/>
</clipPath>
</defs>
</svg>
