<svg width="24" height="24" viewBox="0 0 24 24" fill="none" xmlns="http://www.w3.org/2000/svg">
<g clip-path="url(#clip0_1535_711)">
<path d="M23.2165 13.6447L13.6451 23.2162C12.772 24.0893 11.3556 24.0893 10.4824 23.2162C9.60826 22.343 9.60921 20.9266 10.4824 20.0534L20.0548 10.4811C20.9279 9.60788 22.3443 9.60788 23.2175 10.4811C24.0907 11.3552 24.0907 12.7706 23.2165 13.6447Z" fill="#FBBC04"/>
<path d="M13.6457 23.218C14.5193 22.3444 14.5193 20.9281 13.6457 20.0545C12.7721 19.1809 11.3557 19.1809 10.4822 20.0545C9.60857 20.9281 9.60857 22.3444 10.4822 23.218C11.3557 24.0916 12.7721 24.0916 13.6457 23.218Z" fill="#34A853"/>
<path d="M15.3414 5.76937L10.5547 10.5551L13.7174 13.7178L18.5041 8.9321C19.3773 8.05893 19.3773 6.64254 18.5041 5.76937C17.63 4.89524 16.2145 4.89524 15.3414 5.76937Z" fill="#FBBC04"/>
<path d="M8.93188 18.5036L13.7176 13.7179L10.5549 10.5552L5.76914 15.3409C4.89596 16.2141 4.89596 17.6305 5.76914 18.5036C6.64231 19.3768 8.0587 19.3768 8.93188 18.5036Z" fill="#3B80EF"/>
<path d="M13.7287 13.7077C14.6023 12.8342 14.6023 11.4178 13.7287 10.5442C12.8551 9.67064 11.4387 9.67064 10.5652 10.5442C9.69158 11.4178 9.69158 12.8342 10.5652 13.7077C11.4387 14.5813 12.8551 14.5813 13.7287 13.7077Z" fill="#34A853"/>
<path d="M13.7904 4.21752L4.21801 13.7899C3.34484 14.6631 1.92844 14.6631 1.05527 13.7899C0.182097 12.9167 0.182097 11.5003 1.05527 10.6272L10.6277 1.05478C11.5008 0.181609 12.9172 0.181609 13.7904 1.05478C14.6636 1.92795 14.6636 3.34435 13.7904 4.21752Z" fill="#3B80EF"/>
<path d="M12.2086 4.87384C13.4441 4.87384 14.4456 3.87231 14.4456 2.63687C14.4456 1.40143 13.4441 0.399902 12.2086 0.399902C10.9732 0.399902 9.97168 1.40143 9.97168 2.63687C9.97168 3.87231 10.9732 4.87384 12.2086 4.87384Z" fill="#34A853"/>
</g>
<defs>
<clipPath id="clip0_1535_711">
<rect width="24" height="24" fill="white"/>
</clipPath>
</defs>
</svg>
