<svg width="24" height="24" viewBox="0 0 24 24" fill="none" xmlns="http://www.w3.org/2000/svg">
<path fill-rule="evenodd" clip-rule="evenodd" d="M3.43262 11.9202L7.64574 19.2172H7.64584H16.0715L20.2846 11.9202L16.0716 4.62305H7.64574L3.43262 11.9202ZM8.7166 11.9668C8.7166 13.7776 10.1897 15.2508 12.0005 15.2508C13.8112 15.2508 15.2843 13.7776 15.2843 11.9668C15.2843 10.1561 13.8112 8.68301 12.0005 8.68301C10.1897 8.68301 8.7166 10.1561 8.7166 11.9668Z" fill="#CAC9C2"/>
<path d="M2.50585 7.20117L2.3731 7.43114C2.34929 7.77061 2.41154 8.12517 2.56116 8.3843L4.61466 11.8952L5.70723 10.008L2.50585 7.20117Z" fill="#4D6796"/>
<path fill-rule="evenodd" clip-rule="evenodd" d="M17.1971 1.36328C17.7134 1.36328 18.3472 1.72909 18.6054 2.17628L20.7145 5.82925C20.4479 5.66575 20.1412 5.56197 19.867 5.56197H8.28048L4.61476 11.8949L2.56126 8.38394C2.41154 8.12481 2.34929 7.77025 2.3731 7.43078L5.40676 2.17628C5.66485 1.72919 6.2986 1.36328 6.81498 1.36328H17.1971ZM6.63559 3.87696C6.75436 3.99573 6.9154 4.06254 7.08337 4.06274C7.25135 4.06257 7.41241 3.99577 7.5312 3.87699C7.65 3.75821 7.71683 3.59717 7.71702 3.42918C7.71685 3.26119 7.65003 3.10012 7.53123 2.98134C7.41243 2.86256 7.25136 2.79577 7.08337 2.79562C6.9154 2.79582 6.75436 2.86263 6.63559 2.9814C6.51682 3.10018 6.45 3.26121 6.4498 3.42918C6.45 3.59715 6.51682 3.75818 6.63559 3.87696ZM17.4229 3.65596C17.452 3.58393 17.4664 3.50684 17.4654 3.42918C17.4635 3.27488 17.4008 3.12756 17.291 3.01913C17.1812 2.91071 17.0331 2.84991 16.8788 2.84991C16.7245 2.84991 16.5764 2.91071 16.4666 3.01913C16.3568 3.12756 16.2941 3.27488 16.2921 3.42918C16.2912 3.50684 16.3056 3.58393 16.3347 3.65596C16.3637 3.728 16.4068 3.79355 16.4613 3.84882C16.5159 3.90408 16.5809 3.94796 16.6526 3.97791C16.7242 4.00786 16.8011 4.02328 16.8788 4.02328C16.9565 4.02328 17.0334 4.00786 17.105 3.97791C17.1767 3.94796 17.2417 3.90408 17.2963 3.84882C17.3508 3.79355 17.3939 3.728 17.4229 3.65596Z" fill="#5072AA"/>
<path fill-rule="evenodd" clip-rule="evenodd" d="M20.7147 5.82969L23.7967 11.1682C24.055 11.6154 24.055 12.3471 23.7967 12.7943L18.6056 21.7856C18.3474 22.2327 17.7137 22.5986 17.1973 22.5986H12.9937C13.2408 22.4522 13.456 22.2539 13.5819 22.0361L19.3018 11.9304L15.689 5.5625H19.8672C20.1413 5.5625 20.4481 5.66619 20.7147 5.82969ZM16.4302 20.8597C16.549 20.9785 16.71 21.0453 16.878 21.0455C17.046 21.0453 17.2071 20.9785 17.3259 20.8597C17.4447 20.7409 17.5115 20.5799 17.5117 20.4119C17.5115 20.2439 17.4446 20.0828 17.3258 19.9641C17.207 19.8453 17.046 19.7785 16.878 19.7783C16.71 19.7785 16.549 19.8453 16.4302 19.9641C16.3114 20.0829 16.2446 20.2439 16.2444 20.4119C16.2446 20.5799 16.3114 20.7409 16.4302 20.8597ZM21.361 12.4151C21.4798 12.5339 21.6409 12.6007 21.8089 12.6009C21.9769 12.6007 22.1379 12.5339 22.2567 12.4151C22.3755 12.2963 22.4423 12.1352 22.4424 11.9672C22.4422 11.7993 22.3754 11.6382 22.2566 11.5195C22.1379 11.4007 21.9768 11.3339 21.8089 11.3337C21.6409 11.3339 21.4798 11.4007 21.361 11.5194C21.2422 11.6382 21.1754 11.7993 21.1752 11.9672C21.1754 12.1352 21.2422 12.2963 21.361 12.4151Z" fill="#CC4232"/>
<path d="M20.8537 6.06922L20.7155 5.82969C20.4491 5.66619 20.1423 5.5625 19.8682 5.5625H15.6899L16.7774 7.47941L20.8537 6.06922Z" fill="#B23F33"/>
<path d="M12.6426 22.5979H13.0019C13.2491 22.4517 13.4643 22.2534 13.5901 22.0354L15.7051 18.2988H13.4529L12.6426 22.5979Z" fill="#C79732"/>
<path fill-rule="evenodd" clip-rule="evenodd" d="M2.56173 8.38382L8.36082 18.2988V18.2987H15.6971L13.5822 22.0353C13.4563 22.2533 13.2411 22.4516 12.9939 22.5978H6.81545C6.29907 22.5978 5.66532 22.232 5.40723 21.7849L0.216102 12.7936C-0.0420859 12.3464 -0.0420859 11.6147 0.216102 11.1675L2.37357 7.43066C2.34985 7.77013 2.4121 8.1247 2.56173 8.38382ZM6.63501 20.859C6.75379 20.9778 6.91483 21.0447 7.08282 21.0449C7.25083 21.0447 7.41192 20.9779 7.53072 20.8591C7.64952 20.7403 7.71633 20.5792 7.71648 20.4112C7.7163 20.2432 7.64948 20.0822 7.53069 19.9634C7.41189 19.8446 7.25081 19.7778 7.08282 19.7776C6.91485 19.7778 6.75382 19.8447 6.63504 19.9634C6.51627 20.0822 6.44946 20.2432 6.44926 20.4112C6.44943 20.5792 6.51623 20.7403 6.63501 20.859ZM1.69536 12.4145C1.81415 12.5332 1.97522 12.6001 2.14323 12.6002C2.31121 12.6 2.47226 12.5332 2.59104 12.4144C2.70981 12.2956 2.77662 12.1346 2.77679 11.9666C2.77659 11.7986 2.70978 11.6376 2.591 11.5188C2.47223 11.4 2.3112 11.3332 2.14323 11.333C1.97524 11.3332 1.81418 11.4 1.69539 11.5188C1.5766 11.6375 1.50977 11.7986 1.50957 11.9666C1.50974 12.1346 1.57656 12.2957 1.69536 12.4145Z" fill="#ECB02A"/>
</svg>
