<svg width="40" height="40" viewBox="0 0 40 40" fill="none" xmlns="http://www.w3.org/2000/svg">
<mask id="mask0_630_625" style="mask-type:alpha" maskUnits="userSpaceOnUse" x="5" y="0" width="29" height="40">
<path d="M23.1597 0.572266H8.1473C6.69021 0.572266 5.49805 1.76443 5.49805 3.22152V36.7787C5.49805 38.2358 6.69021 39.428 8.1473 39.428H31.1075C32.5646 39.428 33.7568 38.2358 33.7568 36.7787V11.1693L23.1597 0.572266Z" fill="white"/>
</mask>
<g mask="url(#mask0_630_625)">
<path d="M23.1597 0.572266H8.1473C6.69021 0.572266 5.49805 1.76443 5.49805 3.22152V36.7787C5.49805 38.2358 6.69021 39.428 8.1473 39.428H31.1075C32.5646 39.428 33.7568 38.2358 33.7568 36.7787V11.1693L27.5752 6.75386L23.1597 0.572266Z" fill="#0F9D58"/>
</g>
<mask id="mask1_630_625" style="mask-type:alpha" maskUnits="userSpaceOnUse" x="5" y="0" width="29" height="40">
<path d="M23.1597 0.572266H8.1473C6.69021 0.572266 5.49805 1.76443 5.49805 3.22152V36.7787C5.49805 38.2358 6.69021 39.428 8.1473 39.428H31.1075C32.5646 39.428 33.7568 38.2358 33.7568 36.7787V11.1693L23.1597 0.572266Z" fill="white"/>
</mask>
<g mask="url(#mask1_630_625)">
<path d="M12.5625 19.5586V32.3633H26.6919V19.5586H12.5625ZM18.7441 30.5972H14.3287V28.3894H18.7441V30.5972ZM18.7441 27.0648H14.3287V24.8571H18.7441V27.0648ZM18.7441 23.5325H14.3287V21.3248H18.7441V23.5325ZM24.9257 30.5972H20.5103V28.3894H24.9257V30.5972ZM24.9257 27.0648H20.5103V24.8571H24.9257V27.0648ZM24.9257 23.5325H20.5103V21.3248H24.9257V23.5325Z" fill="#F1F1F1"/>
</g>
<mask id="mask2_630_625" style="mask-type:alpha" maskUnits="userSpaceOnUse" x="5" y="0" width="29" height="40">
<path d="M23.1597 0.572266H8.1473C6.69021 0.572266 5.49805 1.76443 5.49805 3.22152V36.7787C5.49805 38.2358 6.69021 39.428 8.1473 39.428H31.1075C32.5646 39.428 33.7568 38.2358 33.7568 36.7787V11.1693L23.1597 0.572266Z" fill="white"/>
</mask>
<g mask="url(#mask2_630_625)">
<path d="M23.9355 10.3945L33.7577 20.2144V11.1694L23.9355 10.3945Z" fill="url(#paint0_linear_630_625)"/>
</g>
<mask id="mask3_630_625" style="mask-type:alpha" maskUnits="userSpaceOnUse" x="5" y="0" width="29" height="40">
<path d="M23.1597 0.572266H8.1473C6.69021 0.572266 5.49805 1.76443 5.49805 3.22152V36.7787C5.49805 38.2358 6.69021 39.428 8.1473 39.428H31.1075C32.5646 39.428 33.7568 38.2358 33.7568 36.7787V11.1693L23.1597 0.572266Z" fill="white"/>
</mask>
<g mask="url(#mask3_630_625)">
<path d="M23.1602 0.572266V8.52003C23.1602 9.98374 24.3457 11.1693 25.8094 11.1693H33.7572L23.1602 0.572266Z" fill="#87CEAC"/>
</g>
<mask id="mask4_630_625" style="mask-type:alpha" maskUnits="userSpaceOnUse" x="5" y="0" width="29" height="40">
<path d="M23.1597 0.572266H8.1473C6.69021 0.572266 5.49805 1.76443 5.49805 3.22152V36.7787C5.49805 38.2358 6.69021 39.428 8.1473 39.428H31.1075C32.5646 39.428 33.7568 38.2358 33.7568 36.7787V11.1693L23.1597 0.572266Z" fill="white"/>
</mask>
<g mask="url(#mask4_630_625)">
<path d="M8.1473 0.572266C6.69021 0.572266 5.49805 1.76443 5.49805 3.22152V3.44229C5.49805 1.9852 6.69021 0.793037 8.1473 0.793037H23.1597V0.572266H8.1473Z" fill="white" fill-opacity="0.2"/>
</g>
<mask id="mask5_630_625" style="mask-type:alpha" maskUnits="userSpaceOnUse" x="5" y="0" width="29" height="40">
<path d="M23.1597 0.572266H8.1473C6.69021 0.572266 5.49805 1.76443 5.49805 3.22152V36.7787C5.49805 38.2358 6.69021 39.428 8.1473 39.428H31.1075C32.5646 39.428 33.7568 38.2358 33.7568 36.7787V11.1693L23.1597 0.572266Z" fill="white"/>
</mask>
<g mask="url(#mask5_630_625)">
<path d="M31.1075 39.2072H8.1473C6.69021 39.2072 5.49805 38.015 5.49805 36.558V36.7787C5.49805 38.2358 6.69021 39.428 8.1473 39.428H31.1075C32.5646 39.428 33.7568 38.2358 33.7568 36.7787V36.558C33.7568 38.015 32.5646 39.2072 31.1075 39.2072Z" fill="#263238" fill-opacity="0.2"/>
</g>
<mask id="mask6_630_625" style="mask-type:alpha" maskUnits="userSpaceOnUse" x="5" y="0" width="29" height="40">
<path d="M23.1597 0.572266H8.1473C6.69021 0.572266 5.49805 1.76443 5.49805 3.22152V36.7787C5.49805 38.2358 6.69021 39.428 8.1473 39.428H31.1075C32.5646 39.428 33.7568 38.2358 33.7568 36.7787V11.1693L23.1597 0.572266Z" fill="white"/>
</mask>
<g mask="url(#mask6_630_625)">
<path d="M25.8094 11.1693C24.3457 11.1693 23.1602 9.98373 23.1602 8.52002V8.74079C23.1602 10.2045 24.3457 11.39 25.8094 11.39H33.7572V11.1693H25.8094Z" fill="#263238" fill-opacity="0.1"/>
</g>
<path d="M23.1597 0.572266H8.1473C6.69021 0.572266 5.49805 1.76443 5.49805 3.22152V36.7787C5.49805 38.2358 6.69021 39.428 8.1473 39.428H31.1075C32.5646 39.428 33.7568 38.2358 33.7568 36.7787V11.1693L23.1597 0.572266Z" fill="url(#paint1_radial_630_625)"/>
<defs>
<linearGradient id="paint0_linear_630_625" x1="28.8471" y1="11.2377" x2="28.8471" y2="20.2158" gradientUnits="userSpaceOnUse">
<stop stop-color="#263238" stop-opacity="0.2"/>
<stop offset="1" stop-color="#263238" stop-opacity="0.02"/>
</linearGradient>
<radialGradient id="paint1_radial_630_625" cx="0" cy="0" r="1" gradientUnits="userSpaceOnUse" gradientTransform="translate(6.3933 1.3446) scale(45.5667 45.5668)">
<stop stop-color="white" stop-opacity="0.1"/>
<stop offset="1" stop-color="white" stop-opacity="0"/>
</radialGradient>
</defs>
</svg>
