<svg width="40" height="40" viewBox="0 0 40 40" fill="none" xmlns="http://www.w3.org/2000/svg">
<g clip-path="url(#clip0_630_619)">
<path d="M38.1336 34.9945C38.1484 37.7408 35.9336 39.977 33.1889 39.9918C32.9849 39.9934 32.7792 39.9819 32.5768 39.9572C30.0296 39.5804 28.1636 37.364 28.2261 34.7904V5.20137C28.1653 2.62455 30.0362 0.408086 32.585 0.0345618C35.3116 -0.284662 37.7814 1.66688 38.1007 4.39344C38.1237 4.59419 38.1352 4.79494 38.1336 4.99733V34.9945Z" fill="#F9AB00"/>
<path d="M6.95454 30.0909C9.69098 30.0909 11.9091 32.309 11.9091 35.0455C11.9091 37.7819 9.69098 40 6.95454 40C4.21811 40 2 37.7819 2 35.0455C2 32.309 4.21811 30.0909 6.95454 30.0909ZM19.99 15.0759C17.2404 15.2273 15.1079 17.5326 15.1721 20.2855V33.5925C15.1721 37.2043 16.7616 39.3961 19.09 39.8634C21.777 40.4081 24.395 38.6721 24.9397 35.985C25.0071 35.6559 25.04 35.3219 25.0384 34.9862V20.0551C25.0433 17.3088 22.8219 15.0792 20.0756 15.0742C20.0476 15.0742 20.018 15.0742 19.99 15.0759Z" fill="#E37400"/>
</g>
<defs>
<clipPath id="clip0_630_619">
<rect width="36.1331" height="40" fill="white" transform="translate(2)"/>
</clipPath>
</defs>
</svg>
