<svg width="40" height="40" viewBox="0 0 40 40" fill="none" xmlns="http://www.w3.org/2000/svg">
<g clip-path="url(#clip0)">
<path d="M38.6946 22.7417L22.7422 38.6941C21.2869 40.1494 18.9263 40.1494 17.471 38.6941C16.0141 37.2388 16.0157 34.8781 17.471 33.4229L33.4249 17.4689C34.8802 16.0136 37.2409 16.0136 38.6962 17.4689C40.1514 18.9258 40.1514 21.2848 38.6946 22.7417Z" fill="#FBBC04"/>
<path d="M22.7428 38.6967C24.1988 37.2407 24.1988 34.8801 22.7428 33.4242C21.2868 31.9682 18.9262 31.9682 17.4703 33.4242C16.0143 34.8801 16.0143 37.2407 17.4703 38.6967C18.9262 40.1527 21.2868 40.1527 22.7428 38.6967Z" fill="#34A853"/>
<path d="M25.5686 9.61564L17.5908 17.5918L22.8621 22.8631L30.8398 14.8869C32.2951 13.4316 32.2951 11.0709 30.8398 9.61564C29.383 8.15876 27.0239 8.15876 25.5686 9.61564Z" fill="#FBBC04"/>
<path d="M14.8861 30.8398L22.8623 22.8636L17.5911 17.5923L9.6149 25.5685C8.15962 27.0238 8.15962 29.3845 9.6149 30.8398C11.0702 32.2951 13.4308 32.2951 14.8861 30.8398Z" fill="#3B80EF"/>
<path d="M22.8814 22.8467C24.3374 21.3908 24.3374 19.0302 22.8814 17.5742C21.4255 16.1182 19.0649 16.1182 17.6089 17.5742C16.153 19.0302 16.153 21.3908 17.6089 22.8467C19.0649 24.3027 21.4255 24.3027 22.8814 22.8467Z" fill="#34A853"/>
<path d="M22.9837 7.02985L7.02969 22.9838C5.57441 24.4391 3.21375 24.4391 1.75846 22.9838C0.30317 21.5285 0.30317 19.1679 1.75846 17.7126L17.7124 1.75861C19.1677 0.303323 21.5284 0.303323 22.9837 1.75861C24.439 3.2139 24.439 5.57456 22.9837 7.02985Z" fill="#3B80EF"/>
<path d="M20.3474 8.12321C22.4065 8.12321 24.0757 6.45401 24.0757 4.39494C24.0757 2.33586 22.4065 0.666656 20.3474 0.666656C18.2883 0.666656 16.6191 2.33586 16.6191 4.39494C16.6191 6.45401 18.2883 8.12321 20.3474 8.12321Z" fill="#34A853"/>
</g>
<defs>
<clipPath id="clip0">
<path d="M0 4C0 1.79086 1.79086 0 4 0H36C38.2091 0 40 1.79086 40 4V36C40 38.2091 38.2091 40 36 40H4C1.79086 40 0 38.2091 0 36V4Z" fill="white"/>
</clipPath>
</defs>
</svg>
