<svg width="24" height="24" viewBox="0 0 24 24" fill="none" xmlns="http://www.w3.org/2000/svg">
<g clip-path="url(#clip0_1535_703)">
<path d="M23.2168 13.6452L13.6454 23.2167C12.7722 24.0898 11.3558 24.0898 10.4826 23.2167C9.6085 22.3435 9.60946 20.9271 10.4826 20.0539L20.055 10.4815C20.9282 9.60837 22.3446 9.60837 23.2177 10.4815C24.0909 11.3557 24.0909 12.7711 23.2168 13.6452Z" fill="#FBBC04"/>
<path d="M13.6457 23.218C14.5193 22.3444 14.5193 20.9281 13.6457 20.0545C12.7721 19.1809 11.3557 19.1809 10.4822 20.0545C9.60857 20.9281 9.60857 22.3444 10.4822 23.218C11.3557 24.0916 12.7721 24.0916 13.6457 23.218Z" fill="#34A853"/>
<path d="M15.3411 5.76937L10.5544 10.5551L13.7172 13.7178L18.5039 8.9321C19.377 8.05893 19.377 6.64254 18.5039 5.76937C17.6297 4.89524 16.2143 4.89524 15.3411 5.76937Z" fill="#FBBC04"/>
<path d="M8.93163 18.5036L13.7173 13.7179L10.5546 10.5552L5.76889 15.3409C4.89572 16.2141 4.89572 17.6305 5.76889 18.5036C6.64207 19.3768 8.05846 19.3768 8.93163 18.5036Z" fill="#3B80EF"/>
<path d="M13.7289 13.7082C14.6025 12.8346 14.6025 11.4183 13.7289 10.5447C12.8553 9.67112 11.439 9.67112 10.5654 10.5447C9.69182 11.4183 9.69182 12.8346 10.5654 13.7082C11.439 14.5818 12.8553 14.5818 13.7289 13.7082Z" fill="#34A853"/>
<path d="M13.7902 4.21801L4.21777 13.7904C3.34459 14.6636 1.9282 14.6636 1.05503 13.7904C0.181853 12.9172 0.181853 11.5008 1.05503 10.6277L10.6274 1.05527C11.5006 0.182097 12.917 0.182097 13.7902 1.05527C14.6633 1.92844 14.6633 3.34484 13.7902 4.21801Z" fill="#3B80EF"/>
<path d="M12.2084 4.87384C13.4439 4.87384 14.4454 3.87231 14.4454 2.63687C14.4454 1.40143 13.4439 0.399902 12.2084 0.399902C10.973 0.399902 9.97144 1.40143 9.97144 2.63687C9.97144 3.87231 10.973 4.87384 12.2084 4.87384Z" fill="#34A853"/>
</g>
<defs>
<clipPath id="clip0_1535_703">
<rect width="24" height="24" fill="white"/>
</clipPath>
</defs>
</svg>
