<svg width="40" height="40" viewBox="0 0 40 40" fill="none" xmlns="http://www.w3.org/2000/svg">
<path d="M13.8219 6.44895C14.1927 5.46378 14.7118 4.56335 15.4745 3.83242C18.5253 0.855723 23.5677 1.60784 25.644 5.34725C27.2012 8.18624 28.8537 10.9511 30.4533 13.7583C33.1334 18.4193 35.8452 23.0697 38.4936 27.7413C40.7181 31.6502 38.3029 36.5867 33.8855 37.2541C31.1736 37.6566 28.6418 36.4172 27.2329 33.9808C24.8813 29.8812 22.519 25.7922 20.1673 21.7138C20.1249 21.6185 20.0613 21.5443 19.9978 21.4596C19.7435 21.2583 19.6376 20.9617 19.4787 20.6968C18.4406 18.8642 17.3601 17.0422 16.3219 15.2201C15.6545 14.0337 14.9554 12.8684 14.2774 11.682C13.6736 10.6227 13.3876 9.46802 13.4194 8.26039C13.4617 7.63539 13.5465 7.01039 13.8219 6.44895Z" fill="#3C8BD9"/>
<path d="M13.8213 6.44836C13.6836 7.00981 13.5564 7.57125 13.5247 8.16447C13.4823 9.46743 13.8001 10.6857 14.4569 11.8191C16.173 14.764 17.8785 17.7196 19.584 20.6751C19.7429 20.9399 19.8594 21.2047 20.0183 21.4484C19.0861 23.0691 18.1539 24.6687 17.2005 26.2895C15.8975 28.5458 14.584 30.8234 13.2598 33.0797C13.1963 33.0797 13.1857 33.048 13.1645 33.0056C13.1539 32.8785 13.1963 32.7725 13.228 32.6454C13.8636 30.3149 13.334 28.2386 11.7344 26.459C10.7492 25.3891 9.50982 24.7747 8.07974 24.5734C6.21533 24.3085 4.56278 24.7958 3.07973 25.9611C2.8149 26.1624 2.64541 26.459 2.32761 26.6179C2.26405 26.6179 2.23227 26.5861 2.22168 26.5437C2.9738 25.2513 3.70473 23.959 4.44626 22.6666C7.52889 17.3064 10.6115 11.9568 13.7153 6.60726C13.7471 6.56489 13.7895 6.51192 13.8213 6.44836Z" fill="#FABC04"/>
<path d="M2.28548 26.6081C2.58209 26.3433 2.85752 26.0678 3.17532 25.8136C6.9571 22.8263 12.6457 24.9873 13.4719 29.7225C13.6732 30.856 13.5673 31.9471 13.2177 33.0382C13.2071 33.1335 13.1859 33.2077 13.1541 33.303C13.0164 33.5573 12.8893 33.8221 12.7304 34.0657C11.3427 36.3539 9.30879 37.4874 6.62871 37.3179C3.55667 37.0954 1.15201 34.7967 0.728281 31.7458C0.52701 30.2628 0.823621 28.8856 1.58633 27.6039C1.74523 27.3284 1.92532 27.0742 2.1054 26.7988C2.17955 26.7246 2.14777 26.6081 2.28548 26.6081Z" fill="#34A852"/>
<path d="M2.2851 26.6082C2.22154 26.6718 2.22155 26.7777 2.11561 26.7989C2.10502 26.693 2.15799 26.6294 2.22155 26.5447L2.2851 26.6082Z" fill="#FABC04"/>
<path d="M13.1543 33.3035C13.0907 33.1976 13.1543 33.1128 13.2178 33.0387C13.2284 33.0493 13.2602 33.0811 13.2814 33.1023L13.1543 33.3035Z" fill="#E1C025"/>
</svg>
