<svg width="24" height="24" viewBox="0 0 24 24" fill="none" xmlns="http://www.w3.org/2000/svg">
<path fill-rule="evenodd" clip-rule="evenodd" d="M3.43237 11.9202L7.6455 19.2172H7.64559H16.0713L20.2844 11.9202L16.0714 4.62305H7.6455L3.43237 11.9202ZM8.71636 11.9668C8.71636 13.7776 10.1895 15.2508 12.0002 15.2508C13.8109 15.2508 15.284 13.7776 15.284 11.9668C15.284 10.1561 13.8109 8.68301 12.0002 8.68301C10.1895 8.68301 8.71636 10.1561 8.71636 11.9668Z" fill="#CAC9C2"/>
<path d="M2.5061 7.20117L2.37335 7.43114C2.34953 7.77061 2.41178 8.12517 2.56141 8.3843L4.61491 11.8952L5.70747 10.008L2.5061 7.20117Z" fill="#4D6796"/>
<path fill-rule="evenodd" clip-rule="evenodd" d="M17.1976 1.36377C17.7139 1.36377 18.3477 1.72958 18.6059 2.17677L20.715 5.82974C20.4484 5.66624 20.1417 5.56246 19.8675 5.56246H8.28097L4.61525 11.8954L2.56175 8.38443C2.41203 8.1253 2.34978 7.77074 2.37359 7.43127L5.40725 2.17677C5.66534 1.72968 6.29909 1.36377 6.81546 1.36377H17.1976ZM6.63608 3.87742C6.75485 3.99619 6.91588 4.06301 7.08386 4.06321C7.25184 4.06303 7.4129 3.99623 7.53169 3.87745C7.65049 3.75868 7.71731 3.59763 7.71751 3.42964C7.71734 3.26165 7.65052 3.10059 7.53172 2.98181C7.41292 2.86303 7.25185 2.79623 7.08386 2.79608C6.91588 2.79628 6.75485 2.86309 6.63608 2.98187C6.5173 3.10064 6.45049 3.26167 6.45029 3.42964C6.45049 3.59761 6.5173 3.75865 6.63608 3.87742ZM17.4234 3.65643C17.4525 3.58439 17.4669 3.50731 17.4659 3.42964C17.464 3.27534 17.4013 3.12802 17.2915 3.0196C17.1817 2.91117 17.0336 2.85037 16.8793 2.85037C16.725 2.85037 16.5769 2.91117 16.4671 3.0196C16.3573 3.12802 16.2946 3.27534 16.2926 3.42964C16.2917 3.50731 16.3061 3.58439 16.3351 3.65643C16.3642 3.72846 16.4072 3.79401 16.4618 3.84928C16.5164 3.90455 16.5814 3.94843 16.6531 3.97838C16.7247 4.00833 16.8016 4.02375 16.8793 4.02375C16.9569 4.02375 17.0338 4.00833 17.1055 3.97838C17.1772 3.94843 17.2422 3.90455 17.2967 3.84928C17.3513 3.79401 17.3944 3.72846 17.4234 3.65643Z" fill="#5072AA"/>
<path fill-rule="evenodd" clip-rule="evenodd" d="M20.7147 5.82969L23.7967 11.1682C24.055 11.6154 24.055 12.3471 23.7967 12.7943L18.6056 21.7856C18.3474 22.2327 17.7137 22.5986 17.1973 22.5986H12.9937C13.2408 22.4522 13.456 22.2539 13.5819 22.0361L19.3018 11.9304L15.689 5.5625H19.8672C20.1413 5.5625 20.4481 5.66619 20.7147 5.82969ZM16.4302 20.8597C16.549 20.9785 16.71 21.0453 16.878 21.0455C17.046 21.0454 17.2071 20.9785 17.3259 20.8597C17.4447 20.7409 17.5115 20.5799 17.5117 20.4119C17.5115 20.2439 17.4446 20.0828 17.3258 19.9641C17.207 19.8453 17.046 19.7785 16.878 19.7783C16.71 19.7785 16.549 19.8453 16.4302 19.9641C16.3114 20.0829 16.2446 20.2439 16.2444 20.4119C16.2446 20.5799 16.3114 20.7409 16.4302 20.8597ZM21.361 12.4151C21.4798 12.5339 21.6409 12.6007 21.8089 12.6009C21.9769 12.6007 22.1379 12.5339 22.2567 12.4151C22.3755 12.2963 22.4423 12.1352 22.4424 11.9672C22.4422 11.7993 22.3754 11.6382 22.2566 11.5195C22.1379 11.4007 21.9768 11.3339 21.8089 11.3337C21.6409 11.3339 21.4798 11.4007 21.361 11.5194C21.2422 11.6382 21.1754 11.7993 21.1752 11.9672C21.1754 12.1353 21.2422 12.2963 21.361 12.4151Z" fill="#CC4232"/>
<path d="M20.8539 6.06922L20.7157 5.82969C20.4493 5.66619 20.1426 5.5625 19.8684 5.5625H15.6902L16.7777 7.47941L20.8539 6.06922Z" fill="#B23F33"/>
<path d="M12.6418 22.5984H13.0012C13.2484 22.4522 13.4636 22.2539 13.5894 22.0359L15.7044 18.2993H13.4521L12.6418 22.5984Z" fill="#C79732"/>
<path fill-rule="evenodd" clip-rule="evenodd" d="M2.56124 8.38431L8.36033 18.2993V18.2992H15.6966L13.5817 22.0358C13.4558 22.2538 13.2406 22.4521 12.9935 22.5983H6.81496C6.29858 22.5983 5.66483 22.2325 5.40674 21.7854L0.215613 12.7941C-0.0425742 12.3469 -0.0425742 11.6152 0.215613 11.168L2.37308 7.43115C2.34936 7.77062 2.41161 8.12518 2.56124 8.38431ZM6.63452 20.8595C6.7533 20.9783 6.91435 21.0451 7.08233 21.0453C7.25034 21.0452 7.41143 20.9784 7.53023 20.8596C7.64903 20.7408 7.71584 20.5797 7.71599 20.4117C7.71581 20.2437 7.649 20.0826 7.5302 19.9638C7.4114 19.8451 7.25033 19.7783 7.08233 19.7781C6.91436 19.7783 6.75333 19.8451 6.63455 19.9639C6.51578 20.0827 6.44897 20.2437 6.44877 20.4117C6.44894 20.5797 6.51575 20.7407 6.63452 20.8595ZM1.69487 12.4149C1.81366 12.5337 1.97474 12.6005 2.14274 12.6007C2.31072 12.6005 2.47177 12.5337 2.59055 12.4149C2.70932 12.2961 2.77613 12.135 2.7763 11.967C2.7761 11.7991 2.70929 11.638 2.59052 11.5193C2.47174 11.4005 2.31071 11.3337 2.14274 11.3335C1.97475 11.3337 1.81369 11.4005 1.6949 11.5192C1.57611 11.638 1.50928 11.7991 1.50908 11.967C1.50926 12.135 1.57607 12.2961 1.69487 12.4149Z" fill="#ECB02A"/>
</svg>
