<svg width="24" height="24" viewBox="0 0 24 24" fill="none" xmlns="http://www.w3.org/2000/svg">
<g clip-path="url(#clip0_1572_65)">
<g clip-path="url(#clip1_1572_65)">
<path fill-rule="evenodd" clip-rule="evenodd" d="M11.6598 3.51007C10.6198 -1.23993 14.0898 -1.11993 13.0198 3.54007C14.4598 3.69007 15.7998 4.19007 16.9398 4.97007C18.8398 0.290068 21.6598 2.61007 17.9598 5.77007C18.2498 6.04007 18.5198 6.32007 18.7798 6.63007H16.8598C14.3698 4.32007 9.91982 4.32007 7.42982 6.63007H5.50982C5.81982 6.25007 6.16982 5.90007 6.53982 5.58007C3.23982 2.42007 5.81982 0.520068 7.70982 4.73007C8.87982 4.02007 10.2398 3.58007 11.6898 3.51007H11.6598ZM1.56982 9.32007H2.92982V11.1701H4.57982V9.32007H5.93982V14.5101H4.57982V12.5301H2.92982V14.5101H1.56982V9.32007ZM7.50982 14.5101V9.32007H10.7398V10.4501H8.87982V11.2901H10.5298V12.4401H8.87982V13.3901H10.7398V14.5001H7.50982V14.5101ZM12.2398 14.5101V9.32007H13.5998V13.1401H15.4698V14.5101H12.2398ZM17.5798 9.32007L19.6998 11.2401L21.8098 9.32007H22.4298V14.5101H21.0598V11.8501L19.6998 13.0901L18.3398 11.8601V14.5201H16.9698V9.33007H17.5898L17.5798 9.32007ZM11.4698 21.7201C11.4698 21.1901 11.5398 20.7001 11.6498 20.3201C10.1998 20.2401 8.83982 19.8101 7.66982 19.1001C5.76982 23.3101 3.19982 21.4101 6.49982 18.2501C6.12982 17.9301 5.78982 17.5801 5.46982 17.2001H7.38982C9.87982 19.5101 14.3298 19.5101 16.8198 17.2001H18.7398C18.4898 17.5001 18.2198 17.7901 17.9198 18.0601C21.6298 21.2301 18.7998 23.5401 16.8998 18.8601C15.7598 19.6301 14.4198 20.1401 12.9798 20.2901C13.9398 22.6901 11.6898 26.3101 11.4398 21.7301L11.4698 21.7201Z" fill="#F1F2F6"/>
</g>
</g>
<defs>
<clipPath id="clip0_1572_65">
<rect width="24" height="24" fill="white"/>
</clipPath>
<clipPath id="clip1_1572_65">
<rect width="24" height="24" fill="white"/>
</clipPath>
</defs>
</svg>
