<svg width="24" height="24" viewBox="0 0 24 24" fill="none" xmlns="http://www.w3.org/2000/svg">
<g clip-path="url(#clip0_1572_62)">
<g clip-path="url(#clip1_1572_62)">
<path fill-rule="evenodd" clip-rule="evenodd" d="M11.6601 3.51007C10.6201 -1.23993 14.0901 -1.11993 13.0201 3.54007C14.4601 3.69007 15.8001 4.19007 16.9401 4.97007C18.8401 0.290068 21.6601 2.61007 17.9601 5.77007C18.2501 6.04007 18.5201 6.32007 18.7801 6.63007H16.8601C14.3701 4.32007 9.92007 4.32007 7.43007 6.63007H5.51007C5.82007 6.25007 6.17007 5.90007 6.54007 5.58007C3.24007 2.42007 5.82007 0.520068 7.71007 4.73007C8.88007 4.02007 10.2401 3.58007 11.6901 3.51007H11.6601ZM1.57007 9.32007H2.93007V11.1701H4.58007V9.32007H5.94007V14.5101H4.58007V12.5301H2.93007V14.5101H1.57007V9.32007ZM7.51007 14.5101V9.32007H10.7401V10.4501H8.88007V11.2901H10.5301V12.4401H8.88007V13.3901H10.7401V14.5001H7.51007V14.5101ZM12.2401 14.5101V9.32007H13.6001V13.1401H15.4701V14.5101H12.2401ZM17.5801 9.32007L19.7001 11.2401L21.8101 9.32007H22.4301V14.5101H21.0601V11.8501L19.7001 13.0901L18.3401 11.8601V14.5201H16.9701V9.33007H17.5901L17.5801 9.32007ZM11.4701 21.7201C11.4701 21.1901 11.5401 20.7001 11.6501 20.3201C10.2001 20.2401 8.84007 19.8101 7.67007 19.1001C5.77007 23.3101 3.20007 21.4101 6.50007 18.2501C6.13007 17.9301 5.79007 17.5801 5.47007 17.2001H7.39007C9.88007 19.5101 14.3301 19.5101 16.8201 17.2001H18.7401C18.4901 17.5001 18.2201 17.7901 17.9201 18.0601C21.6301 21.2301 18.8001 23.5401 16.9001 18.8601C15.7601 19.6301 14.4201 20.1401 12.9801 20.2901C13.9401 22.6901 11.6901 26.3101 11.4401 21.7301L11.4701 21.7201Z" fill="#0F1689"/>
</g>
</g>
<defs>
<clipPath id="clip0_1572_62">
<rect width="24" height="24" fill="white"/>
</clipPath>
<clipPath id="clip1_1572_62">
<rect width="24" height="24" fill="white"/>
</clipPath>
</defs>
</svg>
