<svg width="24" height="24" viewBox="0 0 24 24" fill="none" xmlns="http://www.w3.org/2000/svg">
<g clip-path="url(#clip0_1535_764)">
<path fill-rule="evenodd" clip-rule="evenodd" d="M12.0744 4.07412C11.8894 3.56736 5.52434 1.09284 5.44298 1.36452C4.27418 1.6692 3.7985 3.01634 2.9945 3.86964L1.20907 3.76737C0.422565 4.77878 0.00986138 5.81215 0.290877 6.88617C1.29893 8.25192 2.46912 9.41409 3.19848 11.1296C3.25613 11.9382 6.69816 11.2144 7.43592 11.0543C6.42811 11.7758 5.55045 12.894 5.92761 16.1145C6.27192 17.6268 6.50743 19.3154 9.56121 21.0259C9.96321 21.251 10.795 21.5108 11.3093 21.7002C11.8012 21.9258 12.3764 22.0185 13.999 21.5223C14.938 21.1176 15.9518 20.8738 16.8706 20.4701L15.7662 20.5219C14.2453 20.555 13.0712 20.6684 12.7091 20.2435L11.3094 17.8272L12.1254 16.2422C13.2547 16.358 13.6296 17.2739 14.625 17.6226L15.7982 16.7535C19.206 18.7651 20.5618 15.4786 20.9503 12.919C20.9089 11.8776 18.6955 13.2457 18.8296 12.7587C18.8816 11.6393 17.9691 10.1746 17.3795 9.03343L18.0619 6.39319C18.3715 6.11743 16.6286 3.18055 15.2054 2.81431C13.9567 2.49292 12.0743 4.07412 12.0743 4.07412L12.0744 4.07412Z" fill="#FDEE21"/>
<path fill-rule="evenodd" clip-rule="evenodd" d="M17.6722 9.68508C17.6845 9.96866 17.6831 10.3136 17.7105 10.5287C17.7058 10.6928 17.5828 10.6988 17.481 10.7332L18.1441 10.976C18.2758 11.1976 18.3816 11.4192 18.4884 11.6407C18.6124 12.1857 18.5199 12.2013 18.4374 12.2414C18.1968 12.2439 17.9568 12.2443 17.7328 12.1967C17.8332 12.2497 17.8552 12.2883 17.8659 12.3561C17.8854 12.4812 17.8049 12.652 17.6723 12.8166C17.8684 12.9254 18.226 13.0319 18.4916 13.133L18.7945 12.4587C18.6573 11.4682 18.2414 10.5553 17.6723 9.68506L17.6722 9.68508Z" fill="#C8C037"/>
<path fill-rule="evenodd" clip-rule="evenodd" d="M18.9106 13.0079C19.2784 13.1611 19.7865 13.1162 20.491 12.7531C20.5958 12.6786 20.6933 12.7232 20.5059 12.8457C19.5819 13.6749 19.1396 13.2601 18.9107 13.0078L18.9106 13.0079Z" fill="#C8C037"/>
<path fill-rule="evenodd" clip-rule="evenodd" d="M20.5616 12.644C20.6708 12.8532 20.6046 13.0234 20.5679 13.2001C20.4539 14.0988 20.1738 14.8094 19.6242 15.5519C17.8368 18.4257 16.0322 16.6275 14.5934 15.4572L13.9982 16.9485C13.9666 17.0792 13.8352 17.181 14.7647 17.5902L15.7115 16.9214C19.3226 19.6689 21.8815 13.0756 20.5615 12.6441L20.5616 12.644Z" fill="#C8C037"/>
<path fill-rule="evenodd" clip-rule="evenodd" d="M15.0283 15.2125C14.7847 15.2298 14.0596 15.4764 14.0273 15.6192L14.361 15.1221L15.0283 15.2125Z" fill="#C8C037"/>
<path fill-rule="evenodd" clip-rule="evenodd" d="M14.5547 12.165C14.5993 12.165 14.8136 12.2226 14.7906 12.2098C14.7577 12.1915 14.7869 12.5102 14.8544 12.6763L14.5929 13.2451C15.0937 12.6676 15.8855 12.706 16.6206 12.6316L16.2699 12.4143C16.3308 12.2111 16.2591 12.0503 16.2253 11.8774L14.5547 12.165Z" fill="#C8C037"/>
<path fill-rule="evenodd" clip-rule="evenodd" d="M15.7851 10.4523C15.2478 10.617 14.7335 10.8861 14.3882 11.4597C14.6516 10.5142 14.7053 10.5501 14.7904 10.5034C15.1588 10.3386 15.4605 10.4413 15.7851 10.4523V10.4523Z" fill="#C8C037"/>
<path fill-rule="evenodd" clip-rule="evenodd" d="M12.9168 21.5339C12.2671 22.2508 10.8175 21.4797 9.6137 21.0866C6.55466 19.1414 5.95705 17.3102 5.91553 15.5138C5.75825 12.9405 6.54841 11.4453 7.54787 11.0913C6.88641 12.3664 6.57803 14.6553 6.88473 16.3574C7.13229 17.3043 7.13742 18.9014 8.72181 19.7563C9.49765 20.193 9.28751 20.5331 9.81215 20.9422C10.3871 21.3905 11.9901 21.8167 12.9168 21.534L12.9168 21.5339Z" fill="#FCF6A0"/>
<path fill-rule="evenodd" clip-rule="evenodd" d="M13.8876 9.64215C12.7876 8.08236 11.2406 7.49686 9.49607 7.43287C9.8457 7.3189 10.1953 7.25956 10.545 7.09097C10.6306 7.00101 10.6026 6.84271 10.5705 6.68196C8.89119 6.24348 7.83135 5.70156 6.48975 5.19922L10.1116 6.06838C12.5574 6.16132 12.3474 6.76515 13.8877 9.64222L13.8876 9.64215Z" fill="#FCF6A0"/>
<path fill-rule="evenodd" clip-rule="evenodd" d="M15.065 8.88956C14.2522 7.72916 13.4638 6.32084 12.3936 5.42516C9.81024 4.25914 7.25473 3.39318 4.25977 2.60516L5.21561 1.37598C8.39369 2.10142 11.3788 3.31537 14.0527 5.31654C14.505 6.46038 14.8067 7.60573 15.0648 8.88942L15.065 8.88956Z" fill="#FCF6A0"/>
<path fill-rule="evenodd" clip-rule="evenodd" d="M16.704 6.8389C16.704 6.8389 16.2483 5.81653 16.0264 5.42612C15.5117 4.85574 15.2514 3.79282 14.1973 3.29199C14.5307 3.38203 14.7588 3.27475 15.4395 3.8918L16.5115 5.92542L16.704 6.8389Z" fill="#FCF6A0"/>
<path fill-rule="evenodd" clip-rule="evenodd" d="M17.2702 8.61035C17.3753 7.72456 17.5748 6.30371 17.3458 5.74235C16.7086 4.88737 16.0668 4.00365 15.4248 3.18323C15.3185 3.08428 15.242 2.94998 15.1582 2.84521C16.0608 3.07907 17.0028 3.70667 18.2732 6.18433L17.2702 8.61035Z" fill="#FCF6A0"/>
<path fill-rule="evenodd" clip-rule="evenodd" d="M13.4758 8.71519C13.1162 8.43223 12.7958 7.43143 12.251 7.22335C11.7468 7.18117 11.5619 7.02252 10.8988 7.15763C11.1393 7.03712 11.3663 6.88292 11.622 6.80039C11.7952 6.75951 11.9576 6.8048 12.1228 6.82759C12.1636 6.8083 12.1903 6.78432 12.1804 6.74807C11.5129 6.33558 10.1436 6.3297 9.21924 6.09424C10.292 6.13015 11.479 6.07068 12.2852 6.32923C12.9335 6.90458 13.1442 7.98808 13.4758 8.71519L13.4758 8.71519Z" fill="black"/>
<path fill-rule="evenodd" clip-rule="evenodd" d="M15.4419 3.88867C15.5907 3.90219 16.3917 5.16914 16.4293 5.37996C16.4959 5.84081 16.6602 6.35743 16.7043 6.83962C16.5724 6.37716 16.4287 5.91473 16.249 5.45227C16.1964 5.32492 16.0636 5.03702 15.6944 4.62982C15.5225 4.3428 15.4854 4.1172 15.4419 3.8887L15.4419 3.88867Z" fill="black"/>
<path fill-rule="evenodd" clip-rule="evenodd" d="M18.1552 10.7896H17.8125L18.1912 10.889L18.1552 10.7896Z" fill="black"/>
<path fill-rule="evenodd" clip-rule="evenodd" d="M15.8173 10.4473C15.4727 10.4049 15.1191 10.3993 14.7745 10.4751C14.634 10.6637 14.6244 10.8556 14.563 11.0329C14.9819 10.5713 15.1481 10.5431 15.8173 10.4473V10.4473Z" fill="black"/>
<path fill-rule="evenodd" clip-rule="evenodd" d="M20.5171 12.8296C20.3253 12.9826 20.3061 13.1267 19.7391 13.2993C19.3257 13.3971 19.0921 13.2314 18.8975 13.0085C19.1925 13.0931 19.2397 13.316 20.0309 13.0661L20.5171 12.8296Z" fill="black"/>
<path fill-rule="evenodd" clip-rule="evenodd" d="M18.799 12.9258C18.661 13.3053 18.5122 13.6888 18.3622 14.0442C18.005 14.4631 18.1573 14.2244 17.6226 14.875C17.7937 14.611 18.0162 14.3574 18.1327 14.0825C18.2145 13.9015 18.3164 13.7095 18.3615 13.5487C18.2197 13.4779 17.9295 13.4723 17.8901 13.4977C17.4147 13.7781 17.3289 14.0748 17.0487 14.3637C17.2518 14.039 17.4253 13.6846 17.6608 13.3923C17.6877 13.3544 17.862 13.347 17.9692 13.3246C17.8026 13.2961 17.4943 13.2362 17.4695 13.2389C17.1594 13.3134 16.9856 13.5836 16.7554 13.763C16.9232 13.5206 17.0778 13.2683 17.291 13.06C17.3121 13.0355 17.8882 13.0859 18.1868 13.2051L18.1927 13.3239L18.3622 13.3923L18.4897 13.0728L18.799 12.9258Z" fill="black"/>
<path fill-rule="evenodd" clip-rule="evenodd" d="M15.0374 15.2134C14.9609 15.1873 14.285 15.1003 14.285 15.1207C14.0255 15.3054 13.9861 15.4822 13.9917 15.6352C14.4234 15.2105 14.4073 15.2093 15.0374 15.2134L15.0374 15.2134Z" fill="black"/>
<path fill-rule="evenodd" clip-rule="evenodd" d="M14.523 12.1591C14.523 12.1591 15.0107 12.088 15.0012 12.1335C14.9659 12.3028 15.0609 12.7151 15.0713 12.6576L14.7972 12.8813C15.3714 12.5926 15.9759 12.6506 16.5889 12.6065C16.5889 12.6065 16.0727 12.464 16.1043 12.4595C16.2194 12.4432 16.0736 11.9212 16.0342 11.9099C16.1324 11.8766 16.2283 11.8516 16.3275 11.8268C15.5893 11.6336 15.1625 11.7475 14.5229 12.1591L14.523 12.1591Z" fill="black"/>
<path fill-rule="evenodd" clip-rule="evenodd" d="M18.745 12.523L18.6366 12.5773C18.6213 12.2598 18.2802 12.2831 17.9926 12.2802L17.7567 12.2227C17.8284 12.289 18.0502 12.2838 17.9607 12.4272C17.8855 12.4674 17.8508 12.64 17.8077 12.7851L17.6802 12.7914C17.9055 12.8795 18.1145 12.9566 18.3624 13.0599L18.5091 13.0822L18.8598 12.8937L18.745 12.523Z" fill="black"/>
<path fill-rule="evenodd" clip-rule="evenodd" d="M15.5115 12.309C15.4566 12.2004 15.1804 12.2159 15.1209 12.2861C15.0725 12.3432 15.1179 12.7095 15.1799 12.6477C15.2696 12.5689 15.3868 12.5359 15.5275 12.5423C15.5452 12.4746 15.5389 12.4015 15.5115 12.309L15.5115 12.309Z" fill="white"/>
<path fill-rule="evenodd" clip-rule="evenodd" d="M18.16 12.8546C18.186 12.8356 18.2409 12.6519 18.2231 12.597C18.1869 12.4673 17.9301 12.4946 17.9301 12.4946C17.8674 12.5315 17.8125 12.7336 17.8354 12.8003C17.8463 12.8568 18.1188 12.8748 18.16 12.8545L18.16 12.8546Z" fill="white"/>
<path fill-rule="evenodd" clip-rule="evenodd" d="M7.17773 19.1914L7.33996 19.2073C8.30167 19.6795 9.88516 20.3796 12.1776 20.0034L12.5374 20.5694C11.5277 21.06 10.4419 20.9471 9.42432 20.9815L7.17773 19.1914Z" fill="black"/>
<path fill-rule="evenodd" clip-rule="evenodd" d="M5.79736 15.4582L6.27912 17.4806C7.56888 18.2868 9.77208 19.2103 11.6086 19.1358L11.2027 18.2046C7.3692 17.3905 7.04496 16.3614 5.79744 15.458L5.79736 15.4582Z" fill="black"/>
<path fill-rule="evenodd" clip-rule="evenodd" d="M6.997 11.3159C7.23246 12.8832 7.54677 14.0714 8.90956 15.0666C9.74486 15.6674 10.574 16.2655 11.5824 16.7592C11.5824 16.7592 11.494 17.2193 11.4201 17.2111C8.41893 16.8777 6.22173 14.3892 5.95557 13.2525C6.21335 12.3807 6.58314 11.836 6.9969 11.3159H6.997Z" fill="black"/>
<path fill-rule="evenodd" clip-rule="evenodd" d="M8.43854 10.428C8.83847 12.165 9.79206 13.9243 10.7399 15.5203C11.0873 15.9612 11.1783 16.1557 11.7138 16.4241C12.4376 16.6533 12.9494 16.5948 13.4748 16.5603C13.3309 16.2939 13.2029 16.0154 13.0376 15.765C11.8612 14.8346 12.4049 13.9875 12.7174 13.4512C12.0632 13.286 11.1965 12.9346 11.0771 12.4726C10.8851 10.9781 10.9826 10.504 11.1747 9.73633C10.2889 9.9231 9.3913 10.1082 8.43848 10.428L8.43854 10.428Z" fill="black"/>
<path fill-rule="evenodd" clip-rule="evenodd" d="M5.18917 1.20166C4.89803 1.39186 4.61754 1.6638 4.31579 1.9729C3.81556 2.4907 3.48301 2.9958 2.97383 3.37028C2.87199 3.45809 2.58621 3.5995 2.22693 3.62048C2.05768 3.62892 1.94742 3.65693 1.63643 3.61788C1.36216 3.46937 1.10159 3.56595 0.847287 3.87012C0.568431 4.27114 0.215271 5.03261 0.0684148 5.51196C-0.234249 6.73445 0.537399 7.74168 1.27739 8.51796C1.93569 9.16107 2.31522 9.56297 2.58551 10.1525C2.79016 10.5349 2.94177 11.0597 3.1059 11.4277C3.16509 11.5443 3.15278 11.5437 3.31209 11.5789C3.65609 11.6523 4.13325 11.6528 4.55805 11.6893C4.74185 11.6919 4.99425 11.6851 5.23341 11.6601C5.56296 11.5979 5.95013 11.5369 6.27463 11.4247C6.59174 11.3466 6.87427 11.2385 7.12896 11.1389C7.09611 11.2504 6.85349 11.3577 6.76253 11.499C5.89925 12.7348 5.66277 13.8344 5.81306 15.5694C5.89808 16.3384 6.07457 16.9759 6.34087 17.7053C6.46273 18.0391 6.72204 18.5677 6.97053 18.9189C7.70949 19.963 9.36266 21.3039 11.664 21.82C12.0655 21.8749 12.5211 21.8456 12.9497 21.7315C14.0855 21.3872 16.4004 20.5729 16.4004 20.5729C16.4004 20.5729 14.3455 20.7429 13.4045 20.6498C13.1866 20.6158 12.9465 20.6042 12.7948 20.4557C12.7693 20.4229 12.6768 20.2366 12.7365 20.2349C12.818 20.2326 13.0519 20.1355 13.4131 20.1033C12.642 20.0203 12.653 20.0213 12.5967 19.8808C12.5092 19.6628 12.3752 19.3648 12.2373 19.104C12.5761 19.1326 13.3263 19.1747 13.5809 18.912C13.5809 18.912 13.137 18.9632 12.7447 18.9172C12.6125 18.9017 12.3873 18.8213 12.3196 18.7965C12.1435 18.7279 11.9985 18.7066 11.9647 18.6619C11.9036 18.5062 11.8621 18.4539 11.7883 18.2453C11.6883 17.9692 11.6804 17.6612 11.6614 17.3793C11.918 17.6957 12.245 17.9619 12.6779 18.0979C12.6835 18.0862 13.2395 18.3396 13.6433 18.2093L13.7271 18.1823C13.7271 18.1898 13.4595 18.2058 13.3614 18.1572C12.5401 17.8081 12.4165 17.5026 12.2839 17.3508L11.9292 16.8196C12.0371 16.6046 12.0981 16.5964 12.241 16.5944C12.6732 16.6424 12.8613 16.6793 13.1243 16.6159C13.3021 16.9817 13.3501 17.3496 13.7547 17.6158C15.1027 18.0159 15.3956 17.497 15.7221 17.0384C16.6919 17.7502 18.2709 17.9697 19.3674 17.0508C20.7615 15.4377 21.2028 12.8947 21.0792 12.7495C20.9051 12.4541 20.6767 12.1495 20.4805 12.1916C19.7814 12.3825 19.5236 12.7371 18.8309 12.6562C18.9134 12.6516 19.0521 12.6493 19.0532 12.6415C19.1066 12.0549 19.0489 11.7711 19.0232 11.7223C18.8129 11.2587 18.5369 10.7708 18.3445 10.4052C18.2949 10.3293 18.1492 9.75323 17.9051 9.52564C17.8004 9.43625 17.5442 9.20053 17.5442 9.20053L17.5224 9.45107C17.5224 9.45107 17.6226 9.4662 17.6607 9.6214C17.8053 10.2098 18.5412 11.601 18.5953 11.6677C18.8561 12.0888 18.6218 12.6133 18.8201 12.9076C18.8391 12.945 19.2246 12.9044 19.5234 12.9227C20.0148 12.817 19.9941 12.6005 20.4185 12.5679C20.7044 12.546 20.7331 13.083 20.7293 13.1246C20.676 13.7175 20.4957 14.4069 20.2197 15.0364C19.6458 16.1421 19.0031 17.1351 18.0916 17.2736C16.9797 17.4679 16.402 16.9818 15.7993 16.6723L15.5687 16.8689C14.7854 17.649 13.8554 17.5797 13.475 16.5605C13.2856 16.1652 13.0389 15.9229 12.8276 15.5837L11.707 16.3908C11.6138 16.5821 11.4991 16.8837 11.3598 17.2207C11.2629 17.455 11.1817 17.8573 11.187 18.1916C11.0433 18.4363 11.6845 19.4286 12.0896 20.0322C12.2091 20.2103 12.4323 20.5215 12.4398 20.5409C12.5201 20.7493 12.6961 20.9332 12.7067 20.9557C13.4588 21.9366 11.758 21.7107 11.4067 21.6515C10.7137 21.541 10.0358 21.2516 9.39864 20.8645C9.36167 20.842 9.32483 20.8192 9.28813 20.7961C8.53091 20.3193 7.83419 19.7093 7.2418 19.106C6.88856 18.706 6.55223 17.8861 6.3038 17.3049C5.93149 15.9075 5.39718 13.4853 6.84457 11.6498C6.93632 11.5448 7.03532 11.3702 7.11961 11.3356C7.54964 11.0447 8.01661 10.8465 8.51876 10.7364L8.46807 10.4109C8.21729 10.4679 7.37288 10.7767 7.13413 10.906C6.59117 11.0634 6.14081 11.2277 5.44885 11.401C5.22391 11.4285 5.00264 11.429 4.78695 11.3997C4.28917 11.3321 3.44069 11.3925 3.38657 11.3422C3.04952 10.8722 2.95724 10.03 2.6497 9.57928L2.64607 9.57479L2.64218 9.57051C2.4629 9.32955 2.25393 9.13299 2.04813 8.92851C1.31114 8.19627 0.680346 7.48827 0.503778 6.73803C0.459378 6.51651 0.345042 6.28707 0.40581 5.63163L0.406931 5.62842L0.407998 5.62521C0.58531 5.0129 0.873766 4.51377 1.36334 4.01354C1.87281 4.02176 2.3771 4.03295 2.76991 4.10799C2.95012 4.13814 3.32489 4.18709 3.71196 4.33128C4.69169 4.69625 5.9862 5.2963 5.9862 5.2963C5.01449 4.76264 3.92793 4.06954 3.2418 3.92967C3.13971 3.91522 3.07697 3.86865 3.04665 3.78735C4.07863 3.18101 4.26741 2.46713 4.94618 1.82688C5.25638 1.69186 5.37734 1.62292 5.64091 1.59428C8.07859 1.97972 9.61315 2.95064 10.8271 3.59987C11.3198 3.8678 11.7677 4.07041 12.1954 4.31442C12.5704 4.43776 13.7019 5.29204 14.0331 5.75262C14.3695 6.4629 14.6151 7.23013 14.8391 7.97048C14.9998 8.72348 15.1407 9.02893 15.1407 9.02893C15.1407 9.02893 15.0041 8.3991 15.0269 8.28594C15.1684 8.33883 15.5031 8.44332 15.6418 8.42708C15.6418 8.42708 15.0222 8.10678 14.941 7.8237C14.6804 6.91537 14.4191 5.50134 14.3487 5.42761C14.1501 5.17775 13.322 4.54403 12.8141 4.25089C12.6219 4.14 12.5181 4.07122 12.51 4.02246C12.6722 3.85854 12.8726 3.6417 13.0523 3.50392C13.2246 3.37184 13.3814 3.2229 13.6214 3.13377C14.6765 2.65857 15.2799 3.31659 15.423 3.18334C15.423 3.18334 15.196 2.92316 15.2968 2.96599C15.4001 3.02191 15.7366 3.08787 15.7735 3.12221C16.1581 3.42303 17.1634 4.52247 17.7694 5.68253C17.9149 5.96669 17.9741 6.1538 17.9066 6.49596C17.8389 6.83844 17.7865 7.02677 17.7127 7.25549C17.646 7.4084 17.2688 8.4552 17.2702 8.59584C17.1942 9.17021 17.5166 9.88928 17.5166 9.88928C17.5196 9.69409 17.5046 9.59009 17.5223 9.45051L17.544 9.20108C17.544 9.20108 17.5302 9.13473 17.5327 9.10844C17.5491 8.93596 17.5914 8.79094 17.6038 8.69216C17.7249 7.94204 17.9355 7.40204 18.1744 6.74379C18.2454 6.57767 18.3383 6.48528 18.3335 6.3588C18.3374 6.13436 18.1366 5.83311 17.9915 5.53889C17.8451 5.24153 17.6701 4.91004 17.4404 4.56065C16.9168 3.80763 16.4704 3.21845 15.6529 2.84972C15.4242 2.74935 14.5242 2.65122 14.2134 2.70953C13.8364 2.78808 13.5121 2.86554 13.2536 3.03108C12.8468 3.29157 12.5272 3.69489 12.1523 3.93254C11.3228 3.51777 10.9225 3.20736 10.8479 3.16457C10.3549 2.90042 9.76308 2.59389 9.12636 2.30321C8.82108 2.01852 6.92532 1.33761 5.1894 1.2018L5.18917 1.20166ZM15.7991 16.6718C15.2879 16.2722 14.8576 15.8609 14.5739 15.4373C14.4813 15.9355 14.1452 16.2903 13.8854 16.6393C13.8337 16.7211 13.7964 16.8327 14.051 17.1883C14.1197 17.2831 14.368 17.2993 14.5356 17.2906C14.3651 17.1617 14.1056 17.0253 14.0638 16.9072C14.3638 17.1114 14.6416 17.1701 14.8927 17.1372C14.9501 17.1308 15.0214 17.0699 15.0764 16.9763C15.1884 16.7358 15.276 16.6779 15.3646 16.6132L15.5686 16.8688L15.7991 16.6718Z" fill="black" stroke="black" stroke-width="0.068382"/>
</g>
<defs>
<clipPath id="clip0_1535_764">
<rect width="24" height="24" fill="white"/>
</clipPath>
</defs>
</svg>
