<svg width="24" height="24" viewBox="0 0 24 24" fill="none" xmlns="http://www.w3.org/2000/svg">
<g clip-path="url(#clip0_1535_725)">
<path fill-rule="evenodd" clip-rule="evenodd" d="M12.0744 4.07412C11.8894 3.56736 5.52434 1.09284 5.44298 1.36452C4.27418 1.6692 3.7985 3.01634 2.9945 3.86964L1.20907 3.76737C0.422565 4.77878 0.00986138 5.81215 0.290877 6.88617C1.29893 8.25192 2.46912 9.41409 3.19848 11.1296C3.25613 11.9382 6.69816 11.2144 7.43592 11.0543C6.42811 11.7758 5.55045 12.894 5.92761 16.1145C6.27192 17.6268 6.50743 19.3154 9.56121 21.0259C9.96321 21.251 10.795 21.5108 11.3093 21.7002C11.8012 21.9258 12.3764 22.0186 13.999 21.5223C14.938 21.1176 15.9518 20.8738 16.8706 20.4701L15.7662 20.5219C14.2453 20.555 13.0712 20.6684 12.7091 20.2435L11.3094 17.8272L12.1254 16.2422C13.2547 16.358 13.6296 17.2739 14.625 17.6226L15.7982 16.7535C19.206 18.7651 20.5618 15.4786 20.9503 12.919C20.9089 11.8776 18.6955 13.2457 18.8296 12.7587C18.8816 11.6393 17.9691 10.1746 17.3795 9.03343L18.0619 6.39319C18.3715 6.11743 16.6286 3.18055 15.2054 2.81431C13.9567 2.49292 12.0744 4.07412 12.0744 4.07412L12.0744 4.07412Z" fill="#FDEE21"/>
<path fill-rule="evenodd" clip-rule="evenodd" d="M17.6722 9.68508C17.6845 9.96866 17.6831 10.3136 17.7105 10.5287C17.7058 10.6928 17.5828 10.6988 17.481 10.7332L18.1441 10.976C18.2758 11.1976 18.3816 11.4192 18.4884 11.6407C18.6124 12.1857 18.5199 12.2013 18.4374 12.2414C18.1968 12.2439 17.9568 12.2443 17.7328 12.1967C17.8332 12.2497 17.8552 12.2883 17.8659 12.3561C17.8854 12.4812 17.8049 12.652 17.6723 12.8166C17.8684 12.9254 18.226 13.0319 18.4916 13.133L18.7945 12.4587C18.6573 11.4682 18.2414 10.5553 17.6723 9.68506L17.6722 9.68508Z" fill="#C8C037"/>
<path fill-rule="evenodd" clip-rule="evenodd" d="M18.9104 13.0074C19.2782 13.1607 19.7863 13.1157 20.4908 12.7527C20.5955 12.6781 20.6931 12.7227 20.5056 12.8452C19.5816 13.6744 19.1394 13.2596 18.9104 13.0074L18.9104 13.0074Z" fill="#C8C037"/>
<path fill-rule="evenodd" clip-rule="evenodd" d="M20.5613 12.644C20.6706 12.8532 20.6044 13.0234 20.5677 13.2001C20.4536 14.0988 20.1735 14.8094 19.624 15.5519C17.8365 18.4257 16.0319 16.6275 14.5931 15.4572L13.998 16.9485C13.9664 17.0792 13.835 17.181 14.7644 17.5902L15.7113 16.9214C19.3223 19.6689 21.8812 13.0756 20.5612 12.6441L20.5613 12.644Z" fill="#C8C037"/>
<path fill-rule="evenodd" clip-rule="evenodd" d="M15.0283 15.2125C14.7847 15.2298 14.0596 15.4764 14.0273 15.6192L14.361 15.1221L15.0283 15.2125Z" fill="#C8C037"/>
<path fill-rule="evenodd" clip-rule="evenodd" d="M14.5547 12.165C14.5993 12.165 14.8136 12.2226 14.7906 12.2098C14.7577 12.1915 14.7869 12.5102 14.8544 12.6763L14.5929 13.2451C15.0937 12.6676 15.8855 12.706 16.6206 12.6316L16.2699 12.4143C16.3308 12.2111 16.2591 12.0503 16.2253 11.8774L14.5547 12.165Z" fill="#C8C037"/>
<path fill-rule="evenodd" clip-rule="evenodd" d="M15.7851 10.4523C15.2478 10.617 14.7335 10.8861 14.3882 11.4597C14.6516 10.5142 14.7053 10.5501 14.7904 10.5034C15.1588 10.3386 15.4605 10.4413 15.7851 10.4523V10.4523Z" fill="#C8C037"/>
<path fill-rule="evenodd" clip-rule="evenodd" d="M12.9171 21.5339C12.2674 22.2508 10.8178 21.4797 9.61394 21.0866C6.5549 19.1414 5.9573 17.3102 5.91578 15.5138C5.75849 12.9405 6.54866 11.4453 7.54811 11.0913C6.88665 12.3664 6.57828 14.6553 6.88497 16.3574C7.13253 17.3043 7.13767 18.9014 8.72205 19.7563C9.4979 20.193 9.28776 20.5331 9.8124 20.9422C10.3873 21.3905 11.9903 21.8167 12.917 21.534L12.9171 21.5339Z" fill="#FCF6A0"/>
<path fill-rule="evenodd" clip-rule="evenodd" d="M13.8876 9.64215C12.7876 8.08236 11.2406 7.49686 9.49607 7.43287C9.8457 7.3189 10.1953 7.25956 10.545 7.09097C10.6306 7.00101 10.6026 6.84271 10.5705 6.68196C8.89119 6.24348 7.83135 5.70156 6.48975 5.19922L10.1116 6.06838C12.5574 6.16132 12.3474 6.76515 13.8877 9.64222L13.8876 9.64215Z" fill="#FCF6A0"/>
<path fill-rule="evenodd" clip-rule="evenodd" d="M15.065 8.88956C14.2522 7.72916 13.4638 6.32084 12.3936 5.42516C9.81024 4.25914 7.25473 3.39318 4.25977 2.60516L5.21561 1.37598C8.39369 2.10142 11.3788 3.31537 14.0527 5.31654C14.505 6.46038 14.8067 7.60573 15.0648 8.88942L15.065 8.88956Z" fill="#FCF6A0"/>
<path fill-rule="evenodd" clip-rule="evenodd" d="M16.704 6.8389C16.704 6.8389 16.2483 5.81653 16.0264 5.42612C15.5117 4.85574 15.2514 3.79282 14.1973 3.29199C14.5307 3.38203 14.7588 3.27475 15.4395 3.8918L16.5115 5.92542L16.704 6.8389Z" fill="#FCF6A0"/>
<path fill-rule="evenodd" clip-rule="evenodd" d="M17.2702 8.61035C17.3753 7.72456 17.5748 6.30371 17.3458 5.74235C16.7086 4.88737 16.0668 4.00365 15.4248 3.18323C15.3185 3.08428 15.242 2.94998 15.1582 2.84521C16.0608 3.07907 17.0028 3.70667 18.2732 6.18433L17.2702 8.61035Z" fill="#FCF6A0"/>
<path fill-rule="evenodd" clip-rule="evenodd" d="M13.4758 8.71519C13.1162 8.43223 12.7958 7.43143 12.251 7.22335C11.7468 7.18117 11.5619 7.02252 10.8988 7.15763C11.1393 7.03712 11.3663 6.88292 11.622 6.80039C11.7952 6.75951 11.9576 6.8048 12.1228 6.82759C12.1636 6.8083 12.1903 6.78432 12.1804 6.74807C11.5129 6.33558 10.1436 6.3297 9.21924 6.09424C10.292 6.13015 11.479 6.07068 12.2852 6.32923C12.9335 6.90458 13.1442 7.98808 13.4758 8.71519L13.4758 8.71519Z" fill="black"/>
<path fill-rule="evenodd" clip-rule="evenodd" d="M15.4419 3.88867C15.5907 3.90219 16.3917 5.16914 16.4293 5.37996C16.4959 5.84081 16.6602 6.35743 16.7043 6.83962C16.5724 6.37716 16.4287 5.91473 16.249 5.45227C16.1964 5.32492 16.0636 5.03702 15.6944 4.62982C15.5225 4.3428 15.4854 4.1172 15.4419 3.8887L15.4419 3.88867Z" fill="black"/>
<path fill-rule="evenodd" clip-rule="evenodd" d="M18.1552 10.7896H17.8125L18.1912 10.889L18.1552 10.7896Z" fill="black"/>
<path fill-rule="evenodd" clip-rule="evenodd" d="M15.8173 10.4473C15.4727 10.4049 15.1191 10.3993 14.7745 10.4751C14.634 10.6637 14.6244 10.8556 14.563 11.0329C14.9819 10.5713 15.1481 10.5431 15.8173 10.4473V10.4473Z" fill="black"/>
<path fill-rule="evenodd" clip-rule="evenodd" d="M20.5173 12.8301C20.3255 12.9831 20.3064 13.1272 19.7394 13.2998C19.3259 13.3976 19.0923 13.2319 18.8977 13.009C19.1928 13.0935 19.2399 13.3165 20.0311 13.0665L20.5173 12.8301Z" fill="black"/>
<path fill-rule="evenodd" clip-rule="evenodd" d="M18.799 12.9258C18.661 13.3053 18.5122 13.6888 18.3622 14.0442C18.005 14.4631 18.1573 14.2244 17.6226 14.875C17.7937 14.611 18.0162 14.3574 18.1327 14.0825C18.2145 13.9015 18.3164 13.7095 18.3615 13.5487C18.2197 13.4779 17.9295 13.4723 17.8901 13.4977C17.4147 13.7781 17.3289 14.0748 17.0487 14.3637C17.2518 14.039 17.4253 13.6846 17.6608 13.3923C17.6877 13.3544 17.862 13.347 17.9692 13.3246C17.8026 13.2961 17.4943 13.2362 17.4695 13.2389C17.1594 13.3134 16.9856 13.5836 16.7554 13.763C16.9232 13.5206 17.0778 13.2683 17.291 13.06C17.3121 13.0355 17.8882 13.0859 18.1868 13.2051L18.1927 13.3239L18.3622 13.3923L18.4897 13.0728L18.799 12.9258Z" fill="black"/>
<path fill-rule="evenodd" clip-rule="evenodd" d="M15.0372 15.2134C14.9606 15.1873 14.2848 15.1003 14.2848 15.1207C14.0252 15.3054 13.9859 15.4822 13.9914 15.6352C14.4232 15.2105 14.4071 15.2093 15.0372 15.2134L15.0372 15.2134Z" fill="black"/>
<path fill-rule="evenodd" clip-rule="evenodd" d="M14.523 12.1591C14.523 12.1591 15.0107 12.088 15.0012 12.1335C14.9659 12.3028 15.0609 12.7151 15.0713 12.6576L14.7972 12.8813C15.3714 12.5926 15.9759 12.6506 16.5889 12.6065C16.5889 12.6065 16.0727 12.464 16.1043 12.4595C16.2194 12.4432 16.0736 11.9212 16.0342 11.9099C16.1324 11.8766 16.2283 11.8516 16.3275 11.8268C15.5893 11.6336 15.1625 11.7475 14.5229 12.1591L14.523 12.1591Z" fill="black"/>
<path fill-rule="evenodd" clip-rule="evenodd" d="M18.745 12.523L18.6366 12.5773C18.6213 12.2598 18.2802 12.2831 17.9926 12.2802L17.7567 12.2227C17.8284 12.289 18.0502 12.2838 17.9607 12.4272C17.8855 12.4674 17.8508 12.64 17.8077 12.7851L17.6802 12.7914C17.9055 12.8795 18.1145 12.9566 18.3624 13.0599L18.5091 13.0822L18.8598 12.8937L18.745 12.523Z" fill="black"/>
<path fill-rule="evenodd" clip-rule="evenodd" d="M15.5117 12.309C15.4569 12.2004 15.1807 12.2159 15.1211 12.2861C15.0728 12.3432 15.1181 12.7095 15.1802 12.6477C15.2699 12.5689 15.387 12.5359 15.5277 12.5423C15.5454 12.4746 15.5392 12.4015 15.5118 12.309L15.5117 12.309Z" fill="white"/>
<path fill-rule="evenodd" clip-rule="evenodd" d="M18.16 12.8546C18.186 12.8356 18.2409 12.6519 18.2231 12.597C18.1869 12.4673 17.9301 12.4946 17.9301 12.4946C17.8674 12.5315 17.8125 12.7336 17.8354 12.8003C17.8463 12.8568 18.1188 12.8748 18.16 12.8545L18.16 12.8546Z" fill="white"/>
<path fill-rule="evenodd" clip-rule="evenodd" d="M7.17773 19.1914L7.33996 19.2073C8.30167 19.6795 9.88516 20.3796 12.1776 20.0034L12.5374 20.5694C11.5277 21.06 10.4419 20.9471 9.42432 20.9815L7.17773 19.1914Z" fill="black"/>
<path fill-rule="evenodd" clip-rule="evenodd" d="M5.79736 15.4582L6.27912 17.4806C7.56888 18.2868 9.77208 19.2103 11.6086 19.1358L11.2027 18.2046C7.3692 17.3905 7.04496 16.3614 5.79744 15.458L5.79736 15.4582Z" fill="black"/>
<path fill-rule="evenodd" clip-rule="evenodd" d="M6.997 11.3159C7.23246 12.8832 7.54677 14.0714 8.90956 15.0666C9.74486 15.6674 10.574 16.2655 11.5824 16.7592C11.5824 16.7592 11.494 17.2193 11.4201 17.2111C8.41893 16.8777 6.22173 14.3892 5.95557 13.2525C6.21335 12.3807 6.58314 11.836 6.9969 11.3159H6.997Z" fill="black"/>
<path fill-rule="evenodd" clip-rule="evenodd" d="M8.43878 10.428C8.83872 12.165 9.79231 13.9243 10.7401 15.5203C11.0876 15.9612 11.1785 16.1557 11.714 16.4241C12.4378 16.6533 12.9497 16.5948 13.4751 16.5603C13.3311 16.2939 13.2032 16.0154 13.0379 15.765C11.8614 14.8346 12.4051 13.9875 12.7176 13.4512C12.0635 13.286 11.1967 12.9346 11.0773 12.4726C10.8853 10.9781 10.9828 10.504 11.175 9.73633C10.2891 9.9231 9.39154 10.1082 8.43872 10.428L8.43878 10.428Z" fill="black"/>
<path fill-rule="evenodd" clip-rule="evenodd" d="M5.18942 1.20166C4.89827 1.39186 4.61779 1.6638 4.31603 1.9729C3.8158 2.4907 3.48326 2.9958 2.97407 3.37028C2.87224 3.45809 2.58645 3.5995 2.22717 3.62048C2.05792 3.62892 1.94767 3.65693 1.63667 3.61788C1.3624 3.46937 1.10183 3.56595 0.847531 3.87012C0.568675 4.27114 0.215515 5.03261 0.0686589 5.51196C-0.234005 6.73445 0.537643 7.74168 1.27763 8.51796C1.93593 9.16107 2.31547 9.56297 2.58575 10.1525C2.7904 10.5349 2.94201 11.0597 3.10615 11.4277C3.16533 11.5443 3.15303 11.5437 3.31234 11.5789C3.65633 11.6523 4.1335 11.6528 4.5583 11.6893C4.7421 11.6919 4.9945 11.6851 5.23366 11.6601C5.5632 11.5979 5.95037 11.5369 6.27487 11.4247C6.59199 11.3466 6.87451 11.2385 7.1292 11.1389C7.09636 11.2504 6.85373 11.3577 6.76277 11.499C5.89949 12.7348 5.66302 13.8344 5.81331 15.5694C5.89833 16.3384 6.07481 16.9759 6.34111 17.7053C6.46297 18.0391 6.72228 18.5677 6.97078 18.9189C7.70974 19.963 9.36291 21.3039 11.6642 21.82C12.0657 21.8749 12.5214 21.8456 12.9499 21.7315C14.0857 21.3872 16.4006 20.5729 16.4006 20.5729C16.4006 20.5729 14.3458 20.7429 13.4047 20.6498C13.1869 20.6158 12.9468 20.6042 12.795 20.4557C12.7695 20.4229 12.6771 20.2366 12.7368 20.2349C12.8183 20.2326 13.0522 20.1355 13.4134 20.1033C12.6423 20.0203 12.6533 20.0213 12.597 19.8808C12.5095 19.6628 12.3755 19.3648 12.2375 19.104C12.5764 19.1326 13.3266 19.1747 13.5811 18.912C13.5811 18.912 13.1372 18.9632 12.7449 18.9172C12.6127 18.9017 12.3875 18.8213 12.3199 18.7965C12.1438 18.7279 11.9988 18.7066 11.965 18.6619C11.9038 18.5062 11.8624 18.4539 11.7886 18.2453C11.6886 17.9692 11.6806 17.6612 11.6616 17.3793C11.9182 17.6957 12.2452 17.9619 12.6781 18.0979C12.6837 18.0862 13.2397 18.3396 13.6436 18.2093L13.7273 18.1823C13.7273 18.1898 13.4597 18.2058 13.3616 18.1572C12.5404 17.8081 12.4167 17.5026 12.2841 17.3508L11.9295 16.8196C12.0373 16.6046 12.0983 16.5964 12.2412 16.5944C12.6735 16.6424 12.8616 16.6793 13.1246 16.6159C13.3023 16.9817 13.3503 17.3496 13.7549 17.6158C15.1029 18.0159 15.3958 17.497 15.7223 17.0384C16.6922 17.7502 18.2711 17.9697 19.3677 17.0508C20.7617 15.4377 21.2031 12.8947 21.0795 12.7495C20.9054 12.4541 20.6769 12.1495 20.4808 12.1916C19.7817 12.3825 19.5239 12.7371 18.8311 12.6562C18.9136 12.6516 19.0524 12.6493 19.0534 12.6415C19.1068 12.0549 19.0492 11.7711 19.0234 11.7223C18.8132 11.2587 18.5371 10.7708 18.3447 10.4052C18.2951 10.3293 18.1494 9.75323 17.9053 9.52564C17.8006 9.43625 17.5444 9.20053 17.5444 9.20053L17.5227 9.45107C17.5227 9.45107 17.6229 9.4662 17.661 9.6214C17.8055 10.2098 18.5415 11.601 18.5955 11.6677C18.8563 12.0888 18.622 12.6133 18.8203 12.9076C18.8394 12.945 19.2249 12.9044 19.5237 12.9227C20.015 12.817 19.9943 12.6005 20.4187 12.5679C20.7046 12.546 20.7333 13.083 20.7296 13.1246C20.6763 13.7175 20.4959 14.4069 20.2199 15.0364C19.646 16.1421 19.0033 17.1351 18.0918 17.2736C16.98 17.4679 16.4022 16.9818 15.7995 16.6723L15.569 16.8689C14.7857 17.649 13.8556 17.5797 13.4752 16.5605C13.2859 16.1652 13.0391 15.9229 12.8278 15.5837L11.7073 16.3908C11.614 16.5821 11.4993 16.8837 11.36 17.2207C11.2632 17.455 11.1819 17.8573 11.1872 18.1916C11.0436 18.4363 11.6847 19.4286 12.0898 20.0322C12.2094 20.2103 12.4325 20.5215 12.44 20.5409C12.5203 20.7493 12.6963 20.9332 12.707 20.9557C13.4591 21.9366 11.7582 21.7107 11.407 21.6515C10.7139 21.541 10.0361 21.2516 9.39889 20.8645C9.36191 20.842 9.32507 20.8192 9.28837 20.7961C8.53115 20.3193 7.83443 19.7093 7.24204 19.106C6.88881 18.706 6.55247 17.8861 6.30405 17.3049C5.93174 15.9075 5.39742 13.4853 6.84482 11.6498C6.93656 11.5448 7.03556 11.3702 7.11986 11.3356C7.54989 11.0447 8.01686 10.8465 8.51901 10.7364L8.46831 10.4109C8.21754 10.4679 7.37312 10.7767 7.13437 10.906C6.59142 11.0634 6.14106 11.2277 5.44909 11.401C5.22415 11.4285 5.00288 11.429 4.78719 11.3997C4.28941 11.3321 3.44094 11.3925 3.38682 11.3422C3.04976 10.8722 2.95748 10.03 2.64995 9.57928L2.64632 9.57479L2.64242 9.57051C2.46314 9.32955 2.25417 9.13299 2.04837 8.92851C1.31138 8.19627 0.68059 7.48827 0.504022 6.73803C0.459622 6.51651 0.345286 6.28707 0.406054 5.63163L0.407175 5.62842L0.408242 5.62521C0.585554 5.0129 0.87401 4.51377 1.36359 4.01354C1.87306 4.02176 2.37735 4.03295 2.77015 4.10799C2.95037 4.13814 3.32513 4.18709 3.7122 4.33128C4.69193 4.69625 5.98644 5.2963 5.98644 5.2963C5.01473 4.76264 3.92818 4.06954 3.24204 3.92967C3.13996 3.91522 3.07721 3.86865 3.0469 3.78735C4.07887 3.18101 4.26766 2.46713 4.94642 1.82688C5.25662 1.69186 5.37758 1.62292 5.64115 1.59428C8.07883 1.97972 9.61339 2.95064 10.8273 3.59987C11.32 3.8678 11.7679 4.07041 12.1957 4.31442C12.5706 4.43776 13.7022 5.29204 14.0333 5.75262C14.3697 6.4629 14.6153 7.23013 14.8394 7.97048C15 8.72348 15.1409 9.02893 15.1409 9.02893C15.1409 9.02893 15.0044 8.3991 15.0271 8.28594C15.1687 8.33883 15.5033 8.44332 15.642 8.42708C15.642 8.42708 15.0224 8.10678 14.9412 7.8237C14.6807 6.91537 14.4194 5.50134 14.3489 5.42761C14.1503 5.17775 13.3222 4.54403 12.8143 4.25089C12.6222 4.14 12.5183 4.07122 12.5102 4.02246C12.6725 3.85854 12.8729 3.6417 13.0526 3.50392C13.2248 3.37184 13.3816 3.2229 13.6217 3.13377C14.6768 2.65857 15.2801 3.31659 15.4233 3.18334C15.4233 3.18334 15.1963 2.92316 15.2971 2.96599C15.4003 3.02191 15.7368 3.08787 15.7738 3.12221C16.1583 3.42303 17.1637 4.52247 17.7696 5.68253C17.9152 5.96669 17.9743 6.1538 17.9068 6.49596C17.8392 6.83844 17.7868 7.02677 17.713 7.25549C17.6463 7.4084 17.269 8.4552 17.2705 8.59584C17.1945 9.17021 17.5168 9.88928 17.5168 9.88928C17.5199 9.69409 17.5048 9.59009 17.5225 9.45051L17.5442 9.20108C17.5442 9.20108 17.5304 9.13473 17.5329 9.10844C17.5493 8.93596 17.5916 8.79094 17.604 8.69216C17.7252 7.94204 17.9358 7.40204 18.1746 6.74379C18.2456 6.57767 18.3385 6.48528 18.3338 6.3588C18.3377 6.13436 18.1369 5.83311 17.9917 5.53889C17.8453 5.24153 17.6704 4.91004 17.4407 4.56065C16.917 3.80763 16.4706 3.21845 15.6532 2.84972C15.4244 2.74935 14.5244 2.65122 14.2136 2.70953C13.8366 2.78808 13.5124 2.86554 13.2539 3.03108C12.8471 3.29157 12.5274 3.69489 12.1525 3.93254C11.3231 3.51777 10.9228 3.20736 10.8481 3.16457C10.3552 2.90042 9.76332 2.59389 9.1266 2.30321C8.82132 2.01852 6.92556 1.33761 5.18964 1.2018L5.18942 1.20166ZM15.7993 16.6718C15.2881 16.2722 14.8578 15.8609 14.5741 15.4373C14.4815 15.9355 14.1454 16.2903 13.8856 16.6393C13.8339 16.7211 13.7966 16.8327 14.0513 17.1883C14.1199 17.2831 14.3682 17.2993 14.5359 17.2906C14.3653 17.1617 14.1059 17.0253 14.064 16.9072C14.3641 17.1114 14.6419 17.1701 14.893 17.1372C14.9503 17.1308 15.0216 17.0699 15.0767 16.9763C15.1886 16.7358 15.2763 16.6779 15.3648 16.6132L15.5688 16.8688L15.7993 16.6718Z" fill="black" stroke="black" stroke-width="0.068382"/>
</g>
<defs>
<clipPath id="clip0_1535_725">
<rect width="24" height="24" fill="white"/>
</clipPath>
</defs>
</svg>
