<svg width="40" height="40" viewBox="0 0 40 40" fill="none" xmlns="http://www.w3.org/2000/svg">
<g clip-path="url(#clip0_630_603)">
<g clip-path="url(#clip1_630_603)">
<path fill-rule="evenodd" clip-rule="evenodd" d="M20.1242 6.78987C19.8158 5.94527 9.2074 1.82107 9.0718 2.27387C7.1238 2.78167 6.331 5.02691 4.991 6.44907L2.01528 6.27863C0.704438 7.96431 0.0165984 9.68659 0.484958 11.4766C2.16504 13.7529 4.11536 15.6898 5.33096 18.549C5.42704 19.8967 11.1638 18.6904 12.3934 18.4236C10.7137 19.6259 9.25092 21.4896 9.87952 26.8572C10.4534 29.3777 10.8459 32.192 15.9355 35.0428C16.6055 35.418 17.9918 35.8511 18.849 36.1667C19.6688 36.5427 20.6275 36.6973 23.3318 35.8702C24.8968 35.1957 26.5864 34.7893 28.1178 34.1164L26.2772 34.2028C23.7424 34.258 21.7856 34.4471 21.182 33.7388L18.8492 29.7116L20.2092 27.07C22.0914 27.2631 22.7162 28.7895 24.3752 29.3707L26.3306 27.9221C32.0102 31.2748 34.2698 25.7973 34.9174 21.5313C34.8483 19.7957 31.1593 22.0758 31.3829 21.2642C31.4695 19.3984 29.9487 16.9574 28.9661 15.0554L30.1033 10.655C30.6193 10.1954 27.7145 5.30059 25.3425 4.69019C23.2613 4.15455 20.1241 6.78987 20.1241 6.78987L20.1242 6.78987Z" fill="#FDEE21"/>
<path fill-rule="evenodd" clip-rule="evenodd" d="M29.4536 16.1421C29.474 16.6148 29.4717 17.1896 29.5173 17.5481C29.5095 17.8216 29.3044 17.8317 29.1348 17.889L30.24 18.2937C30.4594 18.663 30.6358 19.0322 30.8139 19.4015C31.0205 20.3098 30.8663 20.3358 30.7289 20.4027C30.3278 20.4068 29.9279 20.4076 29.5546 20.3282C29.7218 20.4164 29.7586 20.4808 29.7763 20.5939C29.8089 20.8023 29.6746 21.087 29.4536 21.3614C29.7805 21.5427 30.3764 21.7202 30.8192 21.8886L31.324 20.7649C31.0954 19.1141 30.4022 17.5925 29.4536 16.1421L29.4536 16.1421Z" fill="#C8C037"/>
<path fill-rule="evenodd" clip-rule="evenodd" d="M31.5176 21.6793C32.1305 21.9348 32.9774 21.8599 34.1515 21.2548C34.3261 21.1306 34.4887 21.2049 34.1763 21.4091C32.6363 22.791 31.8992 22.0997 31.5176 21.6793L31.5176 21.6793Z" fill="#C8C037"/>
<path fill-rule="evenodd" clip-rule="evenodd" d="M34.2689 21.0737C34.451 21.4224 34.3407 21.7059 34.2796 22.0004C34.0894 23.4984 33.6226 24.6826 32.7067 25.9202C29.7276 30.7098 26.7199 27.7128 24.3219 25.7623L23.33 28.2478C23.2774 28.4657 23.0584 28.6353 24.6075 29.3173L26.1856 28.2027C32.204 32.7819 36.4688 21.7931 34.2688 21.0739L34.2689 21.0737Z" fill="#C8C037"/>
<path fill-rule="evenodd" clip-rule="evenodd" d="M25.0471 25.3538C24.6411 25.3827 23.4327 25.7936 23.3789 26.0316L23.935 25.2031L25.0471 25.3538Z" fill="#C8C037"/>
<path fill-rule="evenodd" clip-rule="evenodd" d="M24.2578 20.2747C24.3322 20.2747 24.6893 20.3706 24.651 20.3493C24.5962 20.3188 24.6449 20.85 24.7573 21.1268L24.3216 22.0748C25.1562 21.1123 26.4759 21.1764 27.701 21.0523L27.1165 20.6901C27.2181 20.3515 27.0985 20.0835 27.0421 19.7954L24.2578 20.2747Z" fill="#C8C037"/>
<path fill-rule="evenodd" clip-rule="evenodd" d="M26.3086 17.4205C25.4131 17.695 24.5559 18.1435 23.9805 19.0995C24.4195 17.5237 24.509 17.5835 24.6507 17.5057C25.2648 17.2311 25.7676 17.4022 26.3086 17.4205V17.4205Z" fill="#C8C037"/>
<path fill-rule="evenodd" clip-rule="evenodd" d="M21.5283 35.8902C20.4455 37.085 18.0296 35.7998 16.0232 35.1446C10.9248 31.9026 9.92875 28.8506 9.85955 25.8566C9.59741 21.5678 10.9143 19.0758 12.5801 18.4858C11.4777 20.611 10.9637 24.4258 11.4749 27.2626C11.8875 28.8408 11.896 31.5026 14.5367 32.9274C15.8297 33.6554 15.4795 34.2222 16.3539 34.904C17.3121 35.6511 19.9838 36.3614 21.5283 35.8903L21.5283 35.8902Z" fill="#FCF6A0"/>
<path fill-rule="evenodd" clip-rule="evenodd" d="M23.1461 16.0699C21.3129 13.4703 18.7345 12.4944 15.8269 12.3878C16.4097 12.1978 16.9924 12.0989 17.5751 11.818C17.7178 11.668 17.6711 11.4042 17.6176 11.1363C14.8188 10.4055 13.0524 9.50228 10.8164 8.66504L16.8528 10.1136C20.9292 10.2685 20.5791 11.2749 23.1464 16.07L23.1461 16.0699Z" fill="#FCF6A0"/>
<path fill-rule="evenodd" clip-rule="evenodd" d="M25.1084 14.8161C23.7536 12.8821 22.4396 10.5349 20.656 9.0421C16.3504 7.09874 12.0912 5.65546 7.09961 4.3421L8.69269 2.29346C13.9895 3.50254 18.9647 5.52578 23.4211 8.86106C24.175 10.7675 24.6778 12.6764 25.108 14.8159L25.1084 14.8161Z" fill="#FCF6A0"/>
<path fill-rule="evenodd" clip-rule="evenodd" d="M27.84 11.3983C27.84 11.3983 27.0804 9.69438 26.7106 9.0437C25.8528 8.09306 25.419 6.32154 23.6621 5.48682C24.2178 5.63688 24.5981 5.45808 25.7325 6.4865L27.5192 9.87586L27.84 11.3983Z" fill="#FCF6A0"/>
<path fill-rule="evenodd" clip-rule="evenodd" d="M28.7836 14.3503C28.9588 12.8739 29.2914 10.5059 28.9097 9.57026C27.8477 8.1453 26.7781 6.67242 25.7081 5.30506C25.5309 5.14014 25.4033 4.91632 25.2637 4.7417C26.7681 5.13146 28.3381 6.17746 30.4553 10.3069L28.7836 14.3503Z" fill="#FCF6A0"/>
<path fill-rule="evenodd" clip-rule="evenodd" d="M22.4594 14.5252C21.8602 14.0536 21.3262 12.3856 20.4182 12.0388C19.5778 11.9684 19.2696 11.704 18.1645 11.9292C18.5653 11.7284 18.9437 11.4714 19.3698 11.3338C19.6584 11.2657 19.9291 11.3412 20.2045 11.3791C20.2725 11.347 20.3171 11.307 20.3004 11.2466C19.188 10.5591 16.9058 10.5493 15.3652 10.1569C17.1532 10.2167 19.1315 10.1176 20.4752 10.5485C21.5558 11.5075 21.9068 13.3133 22.4594 14.5251L22.4594 14.5252Z" fill="black"/>
<path fill-rule="evenodd" clip-rule="evenodd" d="M25.7363 6.48145C25.9844 6.50398 27.3193 8.61557 27.382 8.96693C27.493 9.73501 27.7668 10.596 27.8404 11.3997C27.6205 10.6289 27.381 9.8582 27.0814 9.08745C26.9939 8.8752 26.7725 8.39537 26.1572 7.71669C25.8707 7.23833 25.8088 6.86233 25.7364 6.48149L25.7363 6.48145Z" fill="black"/>
<path fill-rule="evenodd" clip-rule="evenodd" d="M30.2586 17.9824H29.6875L30.3187 18.1481L30.2586 17.9824Z" fill="black"/>
<path fill-rule="evenodd" clip-rule="evenodd" d="M26.3619 17.4122C25.7876 17.3416 25.1983 17.3322 24.624 17.4584C24.3899 17.7729 24.3738 18.0927 24.2715 18.3882C24.9696 17.6188 25.2467 17.5718 26.3619 17.4122V17.4122Z" fill="black"/>
<path fill-rule="evenodd" clip-rule="evenodd" d="M34.1954 21.3832C33.8758 21.6383 33.8439 21.8783 32.8989 22.1661C32.2098 22.329 31.8205 22.0528 31.4961 21.6814C31.9879 21.8223 32.0665 22.1938 33.3851 21.7773L34.1954 21.3832Z" fill="black"/>
<path fill-rule="evenodd" clip-rule="evenodd" d="M31.3319 21.543C31.1018 22.1754 30.8539 22.8146 30.6039 23.407C30.0086 24.1051 30.2623 23.7073 29.3711 24.7916C29.6563 24.3517 30.0271 23.929 30.2213 23.4708C30.3577 23.1692 30.5274 22.8491 30.6026 22.5811C30.3663 22.4631 29.8826 22.4538 29.817 22.4961C29.0247 22.9634 28.8817 23.458 28.4147 23.9395C28.7532 23.3983 29.0424 22.8076 29.4349 22.3205C29.4796 22.2573 29.7702 22.245 29.9488 22.2077C29.6712 22.1601 29.1574 22.0604 29.116 22.0649C28.5991 22.1891 28.3095 22.6393 27.9258 22.9383C28.2055 22.5344 28.4632 22.1138 28.8185 21.7666C28.8536 21.7258 29.8138 21.8099 30.3114 22.0085L30.3213 22.2065L30.6038 22.3205L30.8164 21.7879L31.3319 21.543Z" fill="black"/>
<path fill-rule="evenodd" clip-rule="evenodd" d="M25.062 25.3559C24.9345 25.3123 23.808 25.1674 23.808 25.2014C23.3755 25.5092 23.3099 25.8038 23.3192 26.0589C24.0387 25.351 24.0119 25.349 25.062 25.3559L25.062 25.3559Z" fill="black"/>
<path fill-rule="evenodd" clip-rule="evenodd" d="M24.2051 20.2649C24.2051 20.2649 25.018 20.1464 25.0022 20.2223C24.9433 20.5043 25.1017 21.1916 25.1191 21.0957L24.6621 21.4685C25.6191 20.9873 26.6266 21.084 27.6483 21.0105C27.6483 21.0105 26.7881 20.773 26.8407 20.7655C27.0326 20.7383 26.7896 19.8683 26.7238 19.8495C26.8874 19.7941 27.0472 19.7523 27.2126 19.711C25.9824 19.3891 25.271 19.5788 24.2051 20.2649L24.2051 20.2649Z" fill="black"/>
<path fill-rule="evenodd" clip-rule="evenodd" d="M31.2416 20.8717L31.0609 20.9622C31.0353 20.433 30.4668 20.4718 29.9875 20.467L29.5943 20.3711C29.7139 20.4817 30.0835 20.4731 29.9344 20.7119C29.8089 20.779 29.7512 21.0667 29.6793 21.3084L29.4668 21.3191C29.8423 21.4658 30.1906 21.5944 30.6039 21.7664L30.8483 21.8037L31.4328 21.4895L31.2416 20.8717Z" fill="black"/>
<path fill-rule="evenodd" clip-rule="evenodd" d="M25.8528 20.5147C25.7613 20.3337 25.3011 20.3594 25.2018 20.4765C25.1212 20.5717 25.1968 21.1822 25.3002 21.0792C25.4497 20.9479 25.6449 20.8929 25.8794 20.9035C25.909 20.7907 25.8985 20.6689 25.8528 20.5147L25.8528 20.5147Z" fill="white"/>
<path fill-rule="evenodd" clip-rule="evenodd" d="M30.2667 21.4243C30.31 21.3927 30.4015 21.0866 30.3719 20.995C30.3114 20.7789 29.8834 20.8244 29.8834 20.8244C29.779 20.8858 29.6875 21.2228 29.7256 21.3339C29.7439 21.428 30.198 21.458 30.2667 21.4243L30.2667 21.4243Z" fill="white"/>
<path fill-rule="evenodd" clip-rule="evenodd" d="M11.9629 31.9858L12.2333 32.0123C13.8361 32.7993 16.4753 33.9662 20.2961 33.3391L20.8956 34.2825C19.2129 35.1002 17.4031 34.912 15.7072 34.9694L11.9629 31.9858Z" fill="black"/>
<path fill-rule="evenodd" clip-rule="evenodd" d="M9.66211 25.764L10.465 29.1347C12.6146 30.4784 16.2866 32.0175 19.3474 31.8933L18.671 30.3413C12.2818 28.9845 11.7414 27.2693 9.66223 25.7637L9.66211 25.764Z" fill="black"/>
<path fill-rule="evenodd" clip-rule="evenodd" d="M11.6615 18.8599C12.0539 21.4719 12.5778 23.4523 14.8491 25.1111C16.2413 26.1123 17.6231 27.1092 19.3039 27.932C19.3039 27.932 19.1566 28.6989 19.0334 28.6852C14.0314 28.1296 10.3694 23.982 9.92578 22.0876C10.3554 20.6344 10.9717 19.7267 11.6613 18.8599H11.6615Z" fill="black"/>
<path fill-rule="evenodd" clip-rule="evenodd" d="M14.0646 17.3798C14.7311 20.2749 16.3204 23.207 17.9001 25.867C18.4792 26.6018 18.6308 26.926 19.5233 27.3734C20.7296 27.7554 21.5827 27.6579 22.4584 27.6004C22.2184 27.1563 22.0052 26.6922 21.7297 26.2748C19.769 24.7242 20.6751 23.3124 21.1959 22.4186C20.1057 22.1431 18.6611 21.5576 18.4621 20.7875C18.1421 18.2966 18.3046 17.5065 18.6249 16.2271C17.1485 16.5383 15.6525 16.8468 14.0645 17.3799L14.0646 17.3798Z" fill="black"/>
<path fill-rule="evenodd" clip-rule="evenodd" d="M8.64895 2.00244C8.16371 2.31943 7.69623 2.77268 7.19331 3.28784C6.35959 4.15084 5.80535 4.99268 4.95671 5.6168C4.78698 5.76315 4.31067 5.99885 3.71187 6.0338C3.42979 6.04788 3.24603 6.09456 2.72771 6.02948C2.27059 5.78196 1.83631 5.94292 1.41247 6.44988C0.94771 7.11824 0.35911 8.38736 0.11435 9.18628C-0.39009 11.2238 0.89599 12.9025 2.12931 14.1963C3.22647 15.2681 3.85903 15.938 4.30951 16.9206C4.65059 17.5579 4.90327 18.4325 5.17683 19.0458C5.27547 19.2402 5.25497 19.2392 5.52048 19.2978C6.0938 19.4201 6.88908 19.4211 7.59708 19.4819C7.90341 19.4862 8.32408 19.4748 8.72268 19.4333C9.27192 19.3295 9.9172 19.2279 10.458 19.0409C10.9866 18.9107 11.4574 18.7305 11.8819 18.5646C11.8272 18.7503 11.4228 18.9292 11.2712 19.1647C9.8324 21.2243 9.43828 23.057 9.68876 25.9487C9.83046 27.2303 10.1246 28.2929 10.5684 29.5085C10.7715 30.0649 11.2037 30.9459 11.6179 31.5311C12.8495 33.2714 15.6048 35.5061 19.4403 36.3663C20.1094 36.4578 20.8689 36.409 21.5831 36.2188C23.4762 35.645 27.3343 34.2878 27.3343 34.2878C27.3343 34.2878 23.9096 34.5711 22.3411 34.416C21.978 34.3593 21.5779 34.34 21.3249 34.0926C21.2825 34.0378 21.1283 33.7273 21.2279 33.7245C21.3637 33.7207 21.7536 33.5589 22.3555 33.5052C21.0704 33.3668 21.0887 33.3685 20.9949 33.1344C20.849 32.771 20.6257 32.2743 20.3958 31.8397C20.9605 31.8874 22.2108 31.9575 22.6352 31.5196C22.6352 31.5196 21.8953 31.605 21.2414 31.5283C21.0212 31.5025 20.6458 31.3686 20.533 31.3272C20.2395 31.2128 19.9979 31.1773 19.9415 31.1028C19.8396 30.8434 19.7705 30.7561 19.6475 30.4086C19.4809 29.9484 19.4676 29.4351 19.4359 28.9652C19.8636 29.4924 20.4086 29.9362 21.1302 30.1629C21.1394 30.1434 22.0662 30.5658 22.7392 30.3486L22.8787 30.3035C22.8787 30.316 22.4328 30.3426 22.2693 30.2616C20.9005 29.6798 20.6945 29.1706 20.4735 28.9177L19.8824 28.0324C20.0622 27.6739 20.1638 27.6603 20.402 27.657C21.1224 27.737 21.4359 27.7986 21.8742 27.6928C22.1704 28.3024 22.2505 28.9157 22.9248 29.3593C25.1715 30.0262 25.6596 29.1613 26.2037 28.397C27.8202 29.5833 30.4517 29.9491 32.2794 28.4176C34.6028 25.7291 35.3384 21.4908 35.1323 21.2488C34.8422 20.7565 34.4615 20.2489 34.1345 20.319C32.9693 20.6371 32.5397 21.2282 31.3851 21.0934C31.5227 21.0856 31.7539 21.0819 31.7557 21.0688C31.8446 20.0911 31.7485 19.6181 31.7056 19.5369C31.3552 18.7642 30.8951 17.9511 30.5745 17.3417C30.4918 17.2152 30.249 16.2551 29.8421 15.8757C29.6677 15.7268 29.2406 15.3339 29.2406 15.3339L29.2044 15.7515C29.2044 15.7515 29.3714 15.7767 29.4349 16.0353C29.6758 17.016 30.9024 19.3347 30.9924 19.4459C31.4271 20.1477 31.0366 21.0219 31.3671 21.5124C31.3989 21.5747 32.0414 21.5069 32.5394 21.5375C33.3583 21.3614 33.3237 21.0005 34.0311 20.9462C34.5077 20.9097 34.5555 21.8046 34.5492 21.8741C34.4604 22.8622 34.1598 24.0112 33.6997 25.0604C32.7433 26.9032 31.6721 28.5582 30.1529 28.789C28.2999 29.1129 27.337 28.3027 26.3325 27.7868L25.9482 28.1146C24.6427 29.4146 23.0926 29.2991 22.4586 27.6005C22.143 26.9416 21.7318 26.5378 21.3796 25.9725L19.5121 27.3176C19.3566 27.6365 19.1655 28.1392 18.9333 28.7008C18.7718 29.0913 18.6365 29.7618 18.6453 30.3191C18.4059 30.7269 19.4745 32.3807 20.1497 33.3867C20.3489 33.6836 20.7208 34.2021 20.7333 34.2345C20.8672 34.5818 21.1604 34.8884 21.1782 34.9258C22.4317 36.5607 19.597 36.1842 19.0115 36.0855C17.8565 35.9014 16.7267 35.4189 15.6647 34.7738C15.6031 34.7363 15.5417 34.6984 15.4805 34.6599C14.2185 33.8652 13.0573 32.8485 12.07 31.8429C11.4813 31.1763 10.9207 29.8099 10.5067 28.8411C9.88614 26.5121 8.99563 22.4751 11.4079 19.4159C11.5609 19.2411 11.7259 18.9499 11.8663 18.8923C12.5831 18.4076 13.3613 18.0772 14.1983 17.8937L14.1138 17.3512C13.6958 17.4461 12.2885 17.9609 11.8905 18.1763C10.9856 18.4387 10.235 18.7126 9.08174 19.0013C8.70684 19.0472 8.33806 19.048 7.97858 18.9992C7.14894 18.8865 5.73482 18.9872 5.64462 18.9034C5.08286 18.12 4.92906 16.7163 4.4165 15.9651L4.41045 15.9577L4.40396 15.9505C4.10516 15.5489 3.75688 15.2213 3.41388 14.8805C2.18556 13.6601 1.13424 12.4801 0.839956 11.2297C0.765956 10.8605 0.575396 10.4781 0.676676 9.38572L0.678544 9.38037L0.680322 9.37502C0.975842 8.3545 1.4566 7.52262 2.27256 6.6889C3.12168 6.70261 3.96216 6.72126 4.61684 6.84632C4.9172 6.89657 5.5418 6.97816 6.18692 7.21848C7.8198 7.82676 9.97732 8.82684 9.97732 8.82684C8.3578 7.9374 6.54688 6.78224 5.40332 6.54912C5.23318 6.52504 5.12861 6.44742 5.07808 6.31192C6.79804 5.30136 7.11268 4.11156 8.24396 3.04448C8.76096 2.81943 8.96256 2.70455 9.40184 2.65681C13.4646 3.29921 16.0222 4.91741 18.0454 5.99945C18.8666 6.44601 19.6131 6.78369 20.326 7.19037C20.951 7.39594 22.8369 8.81973 23.3888 9.58737C23.9495 10.7712 24.3588 12.0499 24.7322 13.2838C24.9999 14.5388 25.2348 15.0479 25.2348 15.0479C25.2348 15.0479 25.0072 13.9982 25.0451 13.8096C25.281 13.8977 25.8388 14.0719 26.07 14.0448C26.07 14.0448 25.0373 13.511 24.9019 13.0392C24.4677 11.5253 24.0322 9.16857 23.9147 9.04569C23.5838 8.62925 22.2037 7.57305 21.3571 7.08449C21.0369 6.89967 20.8638 6.78503 20.8503 6.70378C21.1207 6.43058 21.4547 6.06918 21.7542 5.83954C22.0413 5.61941 22.3026 5.37118 22.7027 5.22262C24.4612 4.43062 25.4667 5.52732 25.7053 5.30524C25.7053 5.30524 25.327 4.8716 25.4951 4.94299C25.6671 5.0362 26.228 5.14612 26.2895 5.20336C26.9305 5.70472 28.6061 7.53712 29.616 9.47056C29.8585 9.94416 29.9571 10.256 29.8446 10.8263C29.7318 11.3971 29.6446 11.711 29.5215 12.0922C29.4104 12.347 28.7816 14.0917 28.7841 14.3261C28.6574 15.2834 29.1946 16.4818 29.1946 16.4818C29.1997 16.1565 29.1746 15.9832 29.2041 15.7505L29.2402 15.3348C29.2402 15.3348 29.2173 15.2242 29.2215 15.1804C29.2488 14.8929 29.3193 14.6512 29.34 14.4866C29.5419 13.2364 29.8929 12.3364 30.291 11.2393C30.4093 10.9625 30.5641 10.8085 30.5562 10.5977C30.5627 10.2236 30.228 9.72152 29.9861 9.23116C29.7421 8.73556 29.4505 8.18308 29.0677 7.60076C28.1949 6.34572 27.4509 5.36376 26.0885 4.7492C25.7073 4.58192 24.2073 4.41837 23.6893 4.51555C23.0609 4.64647 22.5205 4.77557 22.0897 5.05147C21.4117 5.48563 20.8789 6.15783 20.2541 6.55391C18.8717 5.86263 18.2045 5.34527 18.0801 5.27395C17.2585 4.83371 16.2721 4.32283 15.2109 3.83835C14.7021 3.36387 11.5425 2.22903 8.64932 2.00267L8.64895 2.00244ZM26.3321 27.786C25.4801 27.12 24.7629 26.4344 24.2901 25.7284C24.1358 26.5588 23.5756 27.1501 23.1426 27.7318C23.0564 27.8682 22.9943 28.0542 23.4187 28.6469C23.5331 28.8048 23.947 28.8318 24.2264 28.8173C23.9421 28.6025 23.5097 28.3752 23.44 28.1783C23.94 28.5187 24.403 28.6165 24.8215 28.5617C24.9171 28.551 25.0359 28.4496 25.1277 28.2935C25.3143 27.8927 25.4604 27.7962 25.6079 27.6883L25.948 28.1143L26.3321 27.786Z" fill="black" stroke="black" stroke-width="0.11397"/>
</g>
</g>
<defs>
<clipPath id="clip0_630_603">
<rect width="40" height="40" fill="white"/>
</clipPath>
<clipPath id="clip1_630_603">
<rect width="40" height="36" fill="white" transform="translate(0 2)"/>
</clipPath>
</defs>
</svg>
