<svg width="24" height="24" viewBox="0 0 24 24" fill="none" xmlns="http://www.w3.org/2000/svg">
<g clip-path="url(#clip0_1535_2988)">
<rect width="24" height="24" rx="4.8" fill="white"/>
<path d="M0.533203 11.8199C0.615442 11.6156 0.705548 11.4193 0.886431 11.2757C1.02991 11.1609 1.20478 11.0923 1.38805 11.0787C1.57132 11.0651 1.75442 11.1072 1.91327 11.1996C2.04253 11.2749 2.15132 11.3808 2.23013 11.5079C2.30893 11.6351 2.35534 11.7796 2.36529 11.9288C2.37523 12.078 2.34841 12.2274 2.28717 12.3639C2.22593 12.5003 2.13215 12.6197 2.01403 12.7115C1.89592 12.8033 1.75708 12.8648 1.60967 12.8905C1.46227 12.9162 1.31081 12.9054 1.16855 12.8591C1.02629 12.8127 0.897582 12.7321 0.7937 12.6245C0.689818 12.5169 0.613933 12.3854 0.572693 12.2416C0.561905 12.2066 0.572407 12.1623 0.533203 12.1378V11.8199Z" fill="#3299D4"/>
<path d="M11.9851 23.4096C11.7782 23.3317 11.5838 23.239 11.4407 23.0575C11.3267 22.9136 11.259 22.7385 11.2467 22.5553C11.2343 22.3722 11.2779 22.1896 11.3715 22.0317C11.4661 21.871 11.6073 21.7429 11.7764 21.6644C11.9456 21.586 12.1346 21.5608 12.3184 21.5923C12.4989 21.6262 12.6653 21.7128 12.7965 21.8412C12.9277 21.9696 13.0179 22.134 13.0556 22.3136C13.1005 22.5374 13.0605 22.7698 12.9432 22.9657C12.8259 23.1615 12.6399 23.3067 12.4214 23.3729C12.3909 23.3828 12.3519 23.3734 12.3321 23.4096H11.9851Z" fill="#3299D4"/>
<path d="M19.3906 8.86816C19.83 9.05101 20.2685 9.23629 20.7098 9.41455C20.7478 9.42643 20.782 9.44829 20.8087 9.47784C20.8355 9.5074 20.8538 9.54359 20.8618 9.58262C21.2568 11.1035 21.2552 12.7002 20.857 14.2202C20.8499 14.2547 20.8338 14.2867 20.8103 14.313C20.7867 14.3392 20.7567 14.3586 20.7231 14.3694C20.3261 14.529 19.9314 14.6942 19.5368 14.8597C19.485 14.8814 19.4243 14.8895 19.3873 14.94C19.377 14.9391 19.3667 14.9381 19.3564 14.9372C19.3641 14.8847 19.3534 14.8311 19.3262 14.7854C19.0667 14.1616 18.8073 13.5378 18.5482 12.9138C18.4081 12.5785 18.2641 12.2447 18.1219 11.9102L18.1206 11.8739C18.1372 11.8509 18.152 11.8266 18.1648 11.8012C18.4231 11.1806 18.6843 10.5611 18.9368 9.93807C19.0809 9.58243 19.2455 9.23494 19.366 8.86981C19.3742 8.86954 19.3824 8.86899 19.3906 8.86816Z" fill="#3299D4"/>
<path d="M15.1072 19.2104C14.9257 19.5813 14.7655 19.9623 14.6274 20.3513C14.5423 20.5836 14.4111 20.6793 14.175 20.7329C12.7151 21.0724 11.1946 21.0522 9.74428 20.6741C9.70962 20.6682 9.67722 20.653 9.65044 20.6302C9.62366 20.6074 9.60349 20.5779 9.59204 20.5447C9.40906 20.1003 9.22166 19.6577 9.03575 19.2145C9.03555 19.2057 9.03564 19.1968 9.03601 19.1879C9.09036 19.1703 9.14613 19.1561 9.19884 19.1344C9.57587 18.9796 9.95252 18.8239 10.3288 18.6673C10.8991 18.4293 11.4691 18.1907 12.0388 17.9513L12.0935 17.9385C12.1188 17.9596 12.1463 17.9781 12.1753 17.9936C12.831 18.2653 13.4856 18.5393 14.1438 18.8046C14.4632 18.9333 14.7729 19.087 15.1046 19.1847C15.1059 19.1932 15.1068 19.2018 15.1072 19.2104Z" fill="#3299D4"/>
<path d="M4.72997 14.9137C4.27623 14.728 3.82238 14.5427 3.36841 14.3576C3.30449 14.3317 3.29172 14.2819 3.27653 14.2238C3.01052 13.2123 2.92132 12.1625 3.01287 11.1206C3.05847 10.6034 3.14539 10.0907 3.27279 9.58735C3.28017 9.5482 3.29804 9.51179 3.3245 9.48201C3.35096 9.45222 3.38502 9.43018 3.42303 9.41822C3.86785 9.23613 4.31052 9.04877 4.7539 8.86328C4.75422 8.87289 4.7557 8.88243 4.75831 8.89168C5.15561 9.85265 5.55326 10.8135 5.95127 11.7741C5.96532 11.8081 5.97466 11.8506 6.02556 11.8504L6.02359 11.9362C5.96751 11.9603 5.9576 12.0169 5.93798 12.0641C5.54357 13.0137 5.14991 13.9635 4.75699 14.9137C4.74799 14.9136 4.73898 14.9136 4.72997 14.9137Z" fill="#3299D4"/>
<path d="M9.0293 4.5889C9.21332 4.15056 9.39941 3.71307 9.57962 3.27317C9.59221 3.23304 9.61538 3.19703 9.64669 3.16894C9.67801 3.14084 9.71631 3.12168 9.75758 3.11348C11.2784 2.72002 12.8746 2.72265 14.3941 3.12112C14.4225 3.12402 14.4496 3.13437 14.4726 3.15113C14.4957 3.16788 14.5139 3.19044 14.5254 3.21651C14.7111 3.67493 14.8998 4.1321 15.0875 4.58965C14.1565 4.97617 13.2256 5.36289 12.2948 5.74983C12.2256 5.77864 12.1446 5.78967 12.1001 5.86228C12.0803 5.86111 12.0604 5.85993 12.0404 5.85875C11.8456 5.73309 11.6236 5.66796 11.4122 5.57992C10.6225 5.25099 9.83097 4.92643 9.04013 4.60024C9.03634 4.59663 9.03273 4.59285 9.0293 4.5889Z" fill="#3299D4"/>
<path d="M4.72973 14.9132C4.73874 14.9131 4.74774 14.9131 4.75674 14.9131C4.77906 14.9303 4.80286 14.9455 4.82786 14.9584C5.55358 15.2594 6.27853 15.5622 7.00631 15.8581C7.25834 15.9606 7.50222 16.0848 7.76676 16.1555L7.79282 16.1846C7.95612 16.5839 8.11789 16.9838 8.28307 17.3823C8.5328 17.9847 8.78377 18.5867 9.036 19.1881C9.03562 19.197 9.03553 19.2058 9.03573 19.2147C8.59495 19.3935 8.15291 19.5694 7.71442 19.7537C7.67683 19.7726 7.63483 19.7812 7.5928 19.7785C7.55076 19.7758 7.51023 19.7618 7.47541 19.7382C6.1201 18.9396 4.9922 17.8072 4.19938 16.449C4.18177 16.4215 4.17196 16.3896 4.17098 16.3569C4.17 16.3242 4.1779 16.2919 4.19382 16.2633C4.36007 15.8691 4.52273 15.4735 4.68502 15.0777C4.71576 15.0284 4.73131 14.9712 4.72973 14.9132Z" fill="#2CC9D2"/>
<path d="M19.3905 8.86865C19.3823 8.86948 19.3742 8.87003 19.3659 8.8703C19.3588 8.86386 19.351 8.85825 19.3425 8.85359C18.4233 8.47309 17.5039 8.09297 16.5844 7.71324C16.5147 7.68448 16.4486 7.63605 16.3655 7.65751L16.3271 7.60427C16.3217 7.57146 16.3138 7.53912 16.3034 7.50753C16.1408 7.11269 15.9761 6.71874 15.8137 6.32384C15.5766 5.74723 15.3401 5.17031 15.1045 4.59308C15.5562 4.40361 16.0078 4.21388 16.4593 4.02387C16.4879 4.01183 16.519 4.00739 16.5498 4.01097C16.5805 4.01455 16.6098 4.02604 16.6348 4.04431C18.0007 4.84299 19.1371 5.98066 19.9339 7.34714C19.9507 7.3756 19.9597 7.40803 19.9598 7.4411C19.9599 7.47417 19.9512 7.50667 19.9346 7.53526C19.7665 7.93886 19.5992 8.34277 19.4326 8.74699C19.4163 8.78659 19.4044 8.82805 19.3905 8.86865Z" fill="#2CC9D2"/>
<path d="M15.1076 19.2107C15.1072 19.2021 15.1063 19.1935 15.105 19.185C15.4062 18.4596 15.7106 17.7355 16.0071 17.0082C16.1151 16.7432 16.2489 16.488 16.3214 16.209L16.3199 16.2122L16.3492 16.1811C16.3495 16.16 16.3486 16.1384 16.3721 16.1272C16.422 16.1779 16.4618 16.1262 16.5008 16.1102C17.4531 15.7205 18.405 15.3296 19.3564 14.9375C19.3667 14.9384 19.377 14.9393 19.3872 14.9402C19.5737 15.3879 19.7585 15.8362 19.9483 16.2825C19.9607 16.3107 19.9654 16.3417 19.9619 16.3723C19.9585 16.4029 19.9469 16.432 19.9285 16.4567C19.4004 17.3596 18.7211 18.1653 17.9204 18.8386C17.519 19.176 17.0901 19.4793 16.6381 19.7453C16.6094 19.7652 16.5758 19.7771 16.541 19.7796C16.5061 19.7822 16.4712 19.7753 16.4399 19.7597C15.997 19.5739 15.5519 19.3932 15.1076 19.2107Z" fill="#2CC9D2"/>
<path d="M4.75636 8.85422C4.58669 8.53627 4.49904 8.1804 4.32404 7.86805C4.14307 7.54504 4.20263 7.29682 4.40226 6.99755C5.1953 5.79023 6.25427 4.7803 7.49806 4.04512C7.52498 4.02648 7.55643 4.01543 7.5891 4.01314C7.62177 4.01085 7.65445 4.01741 7.6837 4.03212C8.13084 4.22088 8.58044 4.40385 9.02921 4.58873C9.03263 4.59269 9.03624 4.59646 9.04003 4.60006C9.02257 4.62849 9.00665 4.65784 8.99232 4.68797C8.73099 5.31577 8.46672 5.94239 8.21106 6.57249C8.0709 6.91793 7.90994 7.25517 7.79482 7.61066L7.76926 7.63126C7.16992 7.87648 6.57144 8.12383 5.97094 8.36616C5.56633 8.52945 5.17108 8.71609 4.75636 8.85422Z" fill="#2CC9D2"/>
<path d="M15.1044 4.59252C15.3407 5.16947 15.5771 5.74639 15.8136 6.32328C15.976 6.71818 16.1407 7.11213 16.3033 7.50696C16.3137 7.53855 16.3216 7.57089 16.327 7.6037C16.3126 7.6023 16.2984 7.59948 16.2845 7.59526C14.8896 7.0176 13.4948 6.43969 12.1001 5.86153C12.1446 5.78892 12.2256 5.7779 12.2947 5.74909C13.2253 5.36164 14.1563 4.97492 15.0875 4.58891C15.0933 4.58862 15.0992 4.58987 15.1044 4.59252Z" fill="#054894"/>
<path d="M4.75638 8.85383C5.1711 8.71569 5.56635 8.52906 5.97096 8.36577C6.57147 8.12344 7.16994 7.87609 7.76929 7.63086C7.76765 7.6452 7.76466 7.65936 7.76036 7.67314C7.18233 9.06546 6.60406 10.4577 6.02557 11.8498C5.97467 11.85 5.96533 11.8075 5.95127 11.7736C5.5531 10.813 5.15545 9.85215 4.75831 8.89111C4.75571 8.88186 4.75423 8.87232 4.75391 8.86271L4.75638 8.85383Z" fill="#054894"/>
<path d="M19.4946 5.25356C19.3131 5.25195 19.1362 5.19664 18.9862 5.09461C18.8362 4.99258 18.7197 4.8484 18.6516 4.68029C18.5835 4.51218 18.5667 4.32766 18.6035 4.15004C18.6402 3.97242 18.7288 3.80965 18.858 3.6823C18.9872 3.55494 19.1512 3.4687 19.3294 3.43447C19.5077 3.40023 19.692 3.41954 19.8593 3.48995C20.0265 3.56036 20.1691 3.67872 20.2691 3.83007C20.3691 3.98143 20.422 4.15901 20.4211 4.34038C20.4168 4.58346 20.3175 4.81521 20.1443 4.98592C19.9711 5.15663 19.7379 5.25271 19.4946 5.25356Z" fill="#2CC9D2"/>
<path d="M4.48933 5.37945C4.36885 5.37911 4.24962 5.35497 4.13849 5.30842C4.02737 5.26186 3.92655 5.19382 3.84183 5.10819C3.75711 5.02256 3.69016 4.92104 3.64482 4.80947C3.59949 4.69789 3.57667 4.57846 3.57767 4.45804C3.58127 4.21579 3.68054 3.98479 3.85384 3.81539C4.02715 3.64599 4.26042 3.55194 4.50282 3.55374C4.74522 3.55553 4.97708 3.65303 5.14785 3.82497C5.31862 3.99692 5.41446 4.22937 5.41446 4.47164C5.41372 4.59207 5.38916 4.71116 5.3422 4.82207C5.29524 4.93297 5.2268 5.0335 5.14082 5.11787C5.05484 5.20224 4.95302 5.26878 4.84121 5.31368C4.7294 5.35857 4.60982 5.38092 4.48933 5.37945Z" fill="#2CC9D2"/>
<path d="M12.8843 1.29634C12.8837 1.47688 12.8295 1.65319 12.7286 1.80294C12.6277 1.95268 12.4846 2.06914 12.3174 2.13756C12.1502 2.20599 11.9665 2.2233 11.7895 2.18731C11.6125 2.15132 11.4501 2.06365 11.323 1.93539C11.1958 1.80714 11.1096 1.64406 11.0753 1.46681C11.0409 1.28956 11.0599 1.10611 11.1299 0.939667C11.1999 0.773227 11.3178 0.631288 11.4685 0.531817C11.6193 0.432346 11.7962 0.379816 11.9768 0.380875C12.2178 0.38449 12.4478 0.482365 12.6175 0.653506C12.7871 0.824647 12.8829 1.05542 12.8843 1.29634Z" fill="#3299D4"/>
<path d="M5.54021 19.4555C5.54098 19.6364 5.48791 19.8135 5.38776 19.9642C5.28761 20.1149 5.1449 20.2324 4.97776 20.3019C4.81062 20.3713 4.62659 20.3895 4.44906 20.3542C4.27153 20.3189 4.10851 20.2316 3.98072 20.1035C3.85293 19.9754 3.76614 19.8122 3.73136 19.6346C3.69659 19.4571 3.7154 19.2732 3.78542 19.1064C3.85544 18.9395 3.9735 18.7973 4.1246 18.6977C4.2757 18.598 4.45302 18.5456 4.63403 18.5469C4.75354 18.546 4.87204 18.5688 4.98261 18.6142C5.09317 18.6595 5.19357 18.7265 5.27795 18.8111C5.36232 18.8957 5.42898 18.9962 5.47401 19.1069C5.51904 19.2175 5.54155 19.336 5.54021 19.4555Z" fill="#2CC9D2"/>
<path d="M22.6803 10.8916C22.9221 10.893 23.1536 10.9902 23.3238 11.1619C23.494 11.3336 23.589 11.5658 23.5881 11.8075C23.5872 12.0492 23.4904 12.2807 23.3189 12.4511C23.1474 12.6215 22.9152 12.7169 22.6734 12.7164C22.5533 12.7163 22.4344 12.6925 22.3235 12.6464C22.2126 12.6003 22.1119 12.5328 22.0271 12.4477C21.9424 12.3626 21.8753 12.2617 21.8297 12.1506C21.784 12.0396 21.7608 11.9206 21.7612 11.8005C21.7617 11.6805 21.7858 11.5617 21.8323 11.451C21.8788 11.3403 21.9467 11.2399 22.032 11.1554C22.1174 11.071 22.2186 11.0042 22.3299 10.959C22.4411 10.9137 22.5602 10.8908 22.6803 10.8916Z" fill="#3299D4"/>
<path d="M20.5477 19.3186C20.5482 19.4992 20.4951 19.676 20.3951 19.8265C20.295 19.9769 20.1525 20.0943 19.9856 20.1637C19.8187 20.2331 19.635 20.2515 19.4577 20.2164C19.2803 20.1813 19.1174 20.0944 18.9896 19.9666C18.8618 19.8389 18.7748 19.6761 18.7396 19.4989C18.7044 19.3217 18.7227 19.138 18.7921 18.9712C18.8615 18.8044 18.9789 18.6619 19.1294 18.5619C19.2799 18.4618 19.4568 18.4087 19.6375 18.4092C19.7573 18.4083 19.876 18.4312 19.9868 18.4766C20.0976 18.522 20.1983 18.5889 20.283 18.6736C20.3677 18.7582 20.4347 18.8588 20.4801 18.9695C20.5256 19.0802 20.5485 19.1989 20.5477 19.3186Z" fill="#2CC9D2"/>
<path d="M6.0254 11.85C6.60377 10.4578 7.18204 9.06561 7.76019 7.67334C7.7645 7.65956 7.76749 7.6454 7.76912 7.63106C7.77764 7.62421 7.78615 7.61735 7.79466 7.61048C7.81338 7.60605 7.83185 7.6006 7.84998 7.59415C9.2468 7.01575 10.6435 6.43717 12.0402 5.8584C12.0601 5.85958 12.08 5.86075 12.0999 5.86193C13.4946 6.43994 14.8894 7.01785 16.2843 7.59565C16.2981 7.59987 16.3124 7.60269 16.3268 7.60409C16.3396 7.62184 16.3524 7.63959 16.3652 7.65734C16.6843 8.42707 17.0035 9.19676 17.3228 9.96641C17.5876 10.6028 17.8534 11.2387 18.1202 11.8742C18.1207 11.8863 18.1211 11.8984 18.1215 11.9105C17.5383 13.316 16.955 14.7216 16.3718 16.1272C16.3483 16.1385 16.3492 16.16 16.3489 16.1811C16.3351 16.1876 16.3089 16.1825 16.3196 16.2122L16.321 16.2091C16.2744 16.1832 16.2404 16.2199 16.2036 16.235C15.8668 16.3724 15.5303 16.5107 15.1943 16.6501C14.1606 17.0793 13.127 17.5089 12.0935 17.9388C12.0753 17.9431 12.0571 17.9473 12.0389 17.9516C11.9844 17.9224 11.9318 17.8884 11.875 17.8648C11.1843 17.5783 10.4932 17.2927 9.80171 17.0081C9.13247 16.7327 8.46287 16.4583 7.79291 16.1847C7.78422 16.175 7.77554 16.1653 7.76685 16.1556C7.76564 16.1412 7.76293 16.127 7.75877 16.1132C7.18058 14.7206 6.60214 13.3282 6.02344 11.9358L6.0254 11.85ZM15.7905 11.9348C15.7905 12.0213 15.788 12.1079 15.7911 12.1943C15.7956 12.318 15.7384 12.4793 15.8129 12.555C15.8878 12.6313 16.0499 12.5772 16.1735 12.5773C16.6249 12.5777 16.8128 12.3956 16.8306 11.9476C16.8486 11.4943 16.6546 11.2858 16.2048 11.2769C16.0991 11.2748 15.993 11.281 15.8876 11.2751C15.8115 11.2709 15.7874 11.2973 15.7891 11.3726C15.7934 11.5599 15.7905 11.7474 15.7905 11.9348ZM11.5361 11.9434C11.5417 12.0131 11.5429 12.0907 11.5549 12.1665C11.5984 12.4415 11.7605 12.5883 12.0288 12.6012C12.3649 12.6172 12.55 12.512 12.6147 12.2559C12.6685 12.0448 12.6689 11.8236 12.6158 11.6123C12.575 11.4473 12.478 11.3203 12.3046 11.2859C11.8504 11.1957 11.5652 11.3386 11.5438 11.8063C11.5418 11.8496 11.539 11.8929 11.5361 11.9434ZM9.90432 11.905C9.89556 11.8339 9.88998 11.7373 9.87086 11.6434C9.81987 11.3931 9.66401 11.2737 9.38446 11.2625C9.06695 11.2498 8.89708 11.3504 8.82552 11.6048C8.76401 11.824 8.76581 12.0561 8.83072 12.2744C8.8526 12.359 8.89973 12.435 8.96585 12.4922C9.03197 12.5495 9.11394 12.5852 9.20089 12.5948C9.61321 12.6667 9.83808 12.5017 9.89187 12.0888C9.89869 12.0364 9.89922 11.9832 9.90432 11.905ZM10.9818 12.036C10.9936 12.0254 11.0059 12.0154 11.0188 12.0062C11.0923 11.9646 11.15 11.8998 11.1828 11.8219C11.2155 11.7441 11.2216 11.6576 11.2 11.5759C11.1705 11.4103 11.074 11.324 10.8839 11.2914C10.7262 11.2644 10.5668 11.2873 10.4091 11.2745C10.3074 11.2663 10.2902 11.3086 10.2912 11.3977C10.2953 11.7533 10.2952 12.1088 10.2911 12.4644C10.2902 12.5472 10.304 12.5795 10.3985 12.5827C10.5144 12.5866 10.5503 12.5496 10.5375 12.4385C10.5287 12.3626 10.5437 12.2839 10.534 12.2083C10.5191 12.0926 10.5642 12.0595 10.675 12.0688C10.7008 12.0673 10.7263 12.074 10.748 12.088C10.7696 12.1019 10.7863 12.1223 10.7957 12.1463C10.8326 12.2294 10.8755 12.3098 10.9163 12.3912C11.0236 12.6058 11.0359 12.6114 11.2803 12.5591C11.1805 12.3841 11.081 12.2098 10.9818 12.036ZM15.398 11.9285C15.3999 11.832 15.3894 11.7356 15.3667 11.6418C15.3273 11.4585 15.2268 11.3248 15.0364 11.2811C14.9043 11.2505 14.767 11.2512 14.6353 11.2832C14.5639 11.298 14.4979 11.332 14.4445 11.3816C14.3911 11.4312 14.3523 11.4946 14.3324 11.5647C14.2571 11.8055 14.2583 12.0637 14.3359 12.3039C14.3544 12.3641 14.3868 12.4192 14.4305 12.4647C14.4742 12.5102 14.5279 12.5449 14.5874 12.5659C15.0047 12.7242 15.3352 12.5268 15.389 12.0871C15.3954 12.0347 15.3951 11.9814 15.398 11.9285ZM8.3926 11.9272C8.3926 11.7493 8.38709 11.5711 8.39479 11.3935C8.39903 11.2956 8.36479 11.2714 8.27183 11.2737C8.18573 11.2757 8.14135 11.286 8.14425 11.3898C8.14794 11.5222 8.20599 11.7091 8.12084 11.7739C8.03158 11.8419 7.85482 11.7923 7.71664 11.8001C7.64261 11.8043 7.61404 11.7826 7.61855 11.7046C7.62494 11.5944 7.61436 11.4832 7.62196 11.3731C7.62825 11.2819 7.58429 11.2703 7.51065 11.2756C7.44557 11.2802 7.37885 11.2568 7.38073 11.3698C7.38696 11.7447 7.38412 12.1199 7.38201 12.4949C7.38168 12.5541 7.39424 12.5778 7.46036 12.5809C7.57071 12.5861 7.63627 12.5786 7.62526 12.4331C7.61512 12.2991 7.55557 12.1103 7.65362 12.0391C7.7453 11.9725 7.92254 12.0273 8.06175 12.0207C8.13484 12.0173 8.1513 12.044 8.14868 12.1114C8.14382 12.2362 8.15377 12.3618 8.14526 12.4862C8.13849 12.5854 8.19496 12.5837 8.26112 12.5782C8.32077 12.5733 8.39996 12.6093 8.39475 12.4897C8.3866 12.3025 8.39259 12.1147 8.3926 11.9272ZM13.5038 12.2998L13.4747 12.2964C13.4604 12.2512 13.4458 12.206 13.4319 12.1607C13.3521 11.8993 13.2665 11.6394 13.195 11.3758C13.1534 11.2221 13.034 11.2669 12.9532 11.2836C12.8504 11.3049 12.9374 11.3871 12.951 11.4287C13.0672 11.7839 13.1978 12.1345 13.3122 12.4903C13.3445 12.5908 13.406 12.5799 13.477 12.5785C13.5504 12.577 13.6219 12.5977 13.6559 12.4887C13.7456 12.2005 13.8509 11.9172 13.9492 11.6317C13.9885 11.5173 14.0257 11.4021 14.0652 11.2834C13.8228 11.2696 13.8225 11.2695 13.7561 11.4831C13.6716 11.7552 13.5875 12.0274 13.5038 12.2998Z" fill="#FDFEFE"/>
<path d="M16.3721 16.1269C16.9553 14.7213 17.5386 13.3157 18.1219 11.9102C18.2641 12.2447 18.408 12.5785 18.5481 12.9139C18.8086 13.5373 19.0679 14.1611 19.3262 14.7854C19.3534 14.8311 19.364 14.8847 19.3564 14.9373C18.4047 15.3285 17.4528 15.7194 16.5008 16.1099C16.4618 16.1259 16.422 16.1776 16.3721 16.1269Z" fill="#054894"/>
<path d="M18.1203 11.8736C17.8544 11.2377 17.5886 10.6017 17.3229 9.96577C17.0028 9.19645 16.6836 8.42676 16.3652 7.6567C16.4483 7.63523 16.5144 7.68366 16.5841 7.71242C17.5038 8.09177 18.4232 8.47189 19.3423 8.85277C19.3507 8.85743 19.3585 8.86304 19.3656 8.86948C19.2452 9.23461 19.0806 9.5821 18.9365 9.93774C18.684 10.5608 18.4228 11.1803 18.1645 11.8009C18.1517 11.8263 18.1369 11.8506 18.1203 11.8736Z" fill="#054894"/>
<path d="M7.79297 16.1846C8.4626 16.4589 9.1322 16.7334 9.80177 17.0079C10.4933 17.2924 11.1844 17.578 11.875 17.8647C11.9319 17.8883 11.9844 17.9223 12.039 17.9515C11.469 18.1902 10.899 18.4288 10.3289 18.6674C9.95278 18.8244 9.57613 18.9801 9.19898 19.1346C9.14626 19.1562 9.0905 19.1704 9.03614 19.1881C8.78505 18.5862 8.53407 17.9842 8.28322 17.3822C8.11804 16.9838 7.95627 16.5838 7.79297 16.1846Z" fill="#054894"/>
<path d="M12.0938 17.9389C13.1273 17.5093 14.1609 17.0797 15.1945 16.6502C15.5305 16.5107 15.8669 16.3723 16.2038 16.2351C16.2406 16.22 16.2747 16.1833 16.3213 16.2091C16.2488 16.4882 16.115 16.7434 16.007 17.0083C15.7105 17.7356 15.4061 18.4597 15.1049 19.1851C14.7732 19.0874 14.4635 18.9337 14.1441 18.805C13.4859 18.5397 12.8312 18.2657 12.1756 17.994C12.1465 17.9785 12.1191 17.96 12.0938 17.9389Z" fill="#054894"/>
<path d="M6.02344 11.9355C6.602 13.3279 7.18044 14.7204 7.75877 16.1129C7.76293 16.1267 7.76564 16.141 7.76685 16.1553C7.50232 16.0846 7.25843 15.9604 7.0064 15.8579C6.27862 15.5621 5.55367 15.2592 4.82795 14.9583C4.80295 14.9453 4.77915 14.9302 4.75684 14.913C5.15026 13.9631 5.54393 13.0132 5.93783 12.0635C5.95745 12.0163 5.96736 11.9596 6.02344 11.9355Z" fill="#054894"/>
<path d="M12.0405 5.85814C10.6438 6.4368 9.24702 7.01539 7.85024 7.59389C7.83212 7.60034 7.81365 7.60579 7.79492 7.61022C7.91007 7.25473 8.07103 6.91749 8.21119 6.57204C8.46685 5.94194 8.73112 5.31533 8.99245 4.68752C9.00677 4.65739 9.0227 4.62805 9.04016 4.59961C9.831 4.92582 10.6225 5.25038 11.4122 5.5793C11.6236 5.66735 11.8457 5.73247 12.0405 5.85814Z" fill="#054894"/>
<path d="M16.3199 16.2128C16.3092 16.183 16.3354 16.1881 16.3492 16.1816C16.3394 16.192 16.3297 16.2024 16.3199 16.2128Z" fill="#054894"/>
<path d="M15.7906 11.9345C15.7906 11.7471 15.7935 11.5596 15.7892 11.3723C15.7874 11.297 15.8116 11.2706 15.8876 11.2748C15.9931 11.2807 16.0992 11.2746 16.2049 11.2767C16.6546 11.2855 16.8487 11.494 16.8307 11.9474C16.8128 12.3953 16.5958 12.5895 16.1444 12.5891C16.0208 12.589 15.8879 12.631 15.8129 12.5547C15.7385 12.479 15.7957 12.3177 15.7912 12.194C15.788 12.1076 15.7906 12.021 15.7906 11.9345ZM16.0317 11.9292C16.0317 12.0442 16.0308 12.1593 16.0322 12.2744C16.0326 12.3054 16.0205 12.3415 16.061 12.3618C16.1983 12.4305 16.4913 12.3204 16.5421 12.1739C16.5977 12.0139 16.5998 11.8402 16.5482 11.6789C16.5028 11.5322 16.3272 11.4597 16.0939 11.5042" fill="#080808"/>
<path d="M11.5361 11.9438C11.539 11.8932 11.5418 11.85 11.5438 11.8067C11.5652 11.339 11.8504 11.1961 12.3046 11.2863C12.478 11.3207 12.575 11.4477 12.6158 11.6126C12.6689 11.824 12.6685 12.0452 12.6147 12.2563C12.55 12.5124 12.3649 12.6176 12.0288 12.6015C11.7605 12.5887 11.5984 12.4418 11.5549 12.1669C11.5429 12.0911 11.5417 12.0135 11.5361 11.9438ZM12.3994 11.9235C12.3957 11.8626 12.3964 11.7899 12.3858 11.7189C12.3607 11.5513 12.2735 11.4809 12.0987 11.4792C11.9227 11.4775 11.8401 11.5441 11.8074 11.7124C11.7823 11.84 11.7796 11.971 11.7995 12.0996C11.8331 12.3169 11.9087 12.3861 12.1061 12.3815C12.298 12.377 12.3755 12.2951 12.3918 12.0787C12.3954 12.0308 12.3966 11.9827 12.3994 11.9235Z" fill="#080808"/>
<path d="M9.90441 11.9043C9.90477 11.9658 9.90061 12.0272 9.89195 12.088C9.83817 12.5009 9.6133 12.666 9.20097 12.5941C9.11403 12.5845 9.03205 12.5487 8.96593 12.4915C8.89981 12.4343 8.85268 12.3583 8.83081 12.2736C8.7659 12.0554 8.76409 11.8232 8.8256 11.604C8.89716 11.3496 9.06703 11.2491 9.38454 11.2618C9.66409 11.273 9.81995 11.3924 9.87094 11.6427C9.89007 11.7365 9.89564 11.8332 9.90441 11.9043ZM9.64967 11.9043C9.64944 11.8516 9.64557 11.7991 9.63807 11.747C9.61615 11.5607 9.5379 11.4874 9.36142 11.4786C9.17574 11.4694 9.08795 11.5385 9.05157 11.7247C9.02923 11.848 9.0271 11.9741 9.04526 12.0981C9.0733 12.3114 9.15761 12.3849 9.35317 12.3805C9.54442 12.3761 9.62485 12.2927 9.64114 12.0783" fill="#080808"/>
<path d="M10.9818 12.0359C11.0811 12.2101 11.1806 12.3844 11.2802 12.559C11.0358 12.6113 11.0236 12.6057 10.9162 12.3911C10.8755 12.3097 10.8325 12.2293 10.7956 12.1462C10.7863 12.1222 10.7696 12.1018 10.7479 12.0879C10.7262 12.074 10.7007 12.0672 10.675 12.0687C10.5642 12.0594 10.519 12.0925 10.5339 12.2082C10.5436 12.2838 10.5286 12.3625 10.5374 12.4384C10.5502 12.5495 10.5143 12.5865 10.3985 12.5826C10.3039 12.5794 10.2901 12.5471 10.2911 12.4643C10.2952 12.1088 10.2952 11.7532 10.2912 11.3977C10.2901 11.3085 10.3073 11.2662 10.409 11.2745C10.5667 11.2873 10.7261 11.2643 10.8838 11.2914C11.0739 11.3239 11.1705 11.4102 11.2 11.5758C11.2215 11.6575 11.2155 11.744 11.1827 11.8218C11.1499 11.8997 11.0923 11.9645 11.0188 12.0061C11.0059 12.0154 10.9935 12.0253 10.9818 12.0359ZM10.5353 11.6837C10.5449 11.7752 10.4811 11.8997 10.6731 11.8847C10.9017 11.8667 10.9576 11.8405 10.955 11.6744C10.9525 11.5198 10.8966 11.4946 10.671 11.4794C10.4791 11.4665 10.5474 11.5949 10.5353 11.6837Z" fill="#080808"/>
<path d="M15.398 11.9287C15.3952 11.9816 15.3955 12.0348 15.3891 12.0872C15.3352 12.527 15.0048 12.7244 14.5875 12.566C14.528 12.545 14.4743 12.5104 14.4306 12.4649C14.3869 12.4194 14.3545 12.3643 14.336 12.304C14.2584 12.0639 14.2571 11.8056 14.3325 11.5648C14.3524 11.4947 14.3912 11.4314 14.4446 11.3818C14.498 11.3321 14.5639 11.2981 14.6354 11.2834C14.767 11.2513 14.9044 11.2506 15.0364 11.2812C15.2269 11.3249 15.3274 11.4587 15.3668 11.6419C15.3894 11.7358 15.4 11.8321 15.398 11.9287ZM15.1431 11.9323C15.1403 11.8699 15.1413 11.807 15.134 11.7451C15.1121 11.5612 15.0322 11.4868 14.8549 11.4794C14.669 11.4716 14.5843 11.5403 14.5479 11.7284C14.5251 11.8516 14.5233 11.9778 14.5424 12.1016C14.5734 12.3157 14.6555 12.3868 14.8521 12.3811C15.0433 12.3756 15.1219 12.2923 15.1369 12.0765" fill="#080808"/>
<path d="M8.39277 11.9271C8.39276 12.1146 8.38677 12.3024 8.39492 12.4896C8.40013 12.6093 8.32094 12.5732 8.26129 12.5781C8.19513 12.5836 8.13866 12.5853 8.14543 12.4861C8.15394 12.3617 8.14398 12.2361 8.14884 12.1113C8.15147 12.0439 8.13501 12.0172 8.06192 12.0206C7.92271 12.0272 7.74547 11.9724 7.65379 12.039C7.55574 12.1102 7.61529 12.299 7.62543 12.433C7.63644 12.5785 7.57088 12.586 7.46053 12.5808C7.39441 12.5777 7.38185 12.554 7.38218 12.4948C7.38429 12.1198 7.38713 11.7447 7.3809 11.3697C7.37902 11.2568 7.44573 11.2801 7.51082 11.2755C7.58445 11.2702 7.62842 11.2818 7.62212 11.373C7.61452 11.4831 7.62511 11.5943 7.61872 11.7046C7.61421 11.7825 7.64278 11.8042 7.7168 11.8C7.85499 11.7923 8.03176 11.8418 8.121 11.7739C8.20615 11.709 8.14811 11.5221 8.14441 11.3897C8.14152 11.2859 8.1859 11.2756 8.272 11.2736C8.36495 11.2714 8.3992 11.2955 8.39496 11.3934C8.38726 11.571 8.39278 11.7492 8.39277 11.9271Z" fill="#080808"/>
<path d="M13.5039 12.2999C13.588 12.0277 13.6721 11.7555 13.7562 11.4833C13.8226 11.2696 13.8229 11.2697 14.0653 11.2835C14.0258 11.4023 13.9886 11.5174 13.9493 11.6318C13.851 11.9174 13.7457 12.2007 13.656 12.4889C13.622 12.5978 13.5505 12.5772 13.4771 12.5786C13.4061 12.58 13.3446 12.591 13.3123 12.4905C13.198 12.1347 13.0673 11.7841 12.9511 11.4288C12.9376 11.3873 12.8505 11.3051 12.9533 11.2838C13.0341 11.2671 13.1535 11.2222 13.1951 11.376C13.2666 11.6396 13.3522 11.8994 13.432 12.1608C13.4459 12.2062 13.4605 12.2514 13.4748 12.2966L13.5039 12.2999Z" fill="#080808"/>
<path d="M16.0308 11.5042C16.264 11.4597 16.5028 11.5327 16.5481 11.6793C16.5998 11.8406 16.5977 12.0144 16.5421 12.1744C16.4913 12.3208 16.1983 12.4309 16.061 12.3623C16.0204 12.342 16.0325 12.3059 16.0322 12.2748C16.0308 12.1597 16.0316 12.0447 16.0316 11.9296" fill="#FDFEFE"/>
<path d="M12.3997 11.9229C12.3968 11.9821 12.3956 12.0301 12.392 12.078C12.3758 12.2945 12.2983 12.3763 12.1064 12.3808C11.909 12.3855 11.8333 12.3163 11.7997 12.0989C11.7799 11.9704 11.7826 11.8394 11.8077 11.7118C11.8404 11.5434 11.923 11.4768 12.0989 11.4785C12.2737 11.4803 12.361 11.5507 12.3861 11.7183C12.3967 11.7893 12.396 11.862 12.3997 11.9229Z" fill="#FDFEFE"/>
<path d="M9.58621 11.9299C9.58621 11.978 9.64491 12.0312 9.64128 12.079C9.62499 12.2933 9.54456 12.3768 9.35331 12.3812C9.15775 12.3856 9.07344 12.3121 9.0454 12.0988C9.02724 11.9748 9.02937 11.8487 9.05171 11.7254C9.08809 11.5392 9.17588 11.4701 9.36156 11.4793C9.53804 11.4881 9.61629 11.5614 9.63821 11.7477" fill="#FDFEFE"/>
<path d="M10.5356 11.6837C10.5477 11.595 10.4793 11.4665 10.6713 11.4794C10.8968 11.4946 10.9528 11.5199 10.9552 11.6744C10.9578 11.8405 10.9019 11.8668 10.6733 11.8847C10.4813 11.8998 10.5451 11.7753 10.5356 11.6837Z" fill="#FDFEFE"/>
<path d="M15.1373 11.9321C15.1373 11.9801 15.1402 12.0284 15.1369 12.0762C15.1219 12.292 15.0433 12.3753 14.8521 12.3809C14.6555 12.3865 14.5734 12.3155 14.5424 12.1013C14.5232 11.9775 14.5251 11.8514 14.5479 11.7282C14.5842 11.5401 14.669 11.4713 14.8549 11.4791C15.0322 11.4866 15.112 11.561 15.134 11.7449C15.1413 11.8067 15.1403 11.8696 15.1431 11.932L15.1373 11.9321Z" fill="#FDFEFE"/>
</g>
<defs>
<clipPath id="clip0_1535_2988">
<rect width="24" height="24" rx="4.8" fill="white"/>
</clipPath>
</defs>
</svg>
