<svg width="40" height="40" viewBox="0 0 40 40" fill="none" xmlns="http://www.w3.org/2000/svg">
<path d="M19.4216 34.1819C27.5024 34.1819 34.0532 27.5815 34.0532 19.4395C34.0532 11.2975 27.5024 4.69708 19.4216 4.69708C11.3408 4.69708 4.79004 11.2975 4.79004 19.4395C4.79004 27.5815 11.3408 34.1819 19.4216 34.1819Z" fill="#FFD21E"/>
<path d="M34.0529 19.4395C34.0529 11.2974 27.502 4.69703 19.4213 4.69703C11.3405 4.69703 4.7897 11.2974 4.7897 19.4395C4.7897 27.5815 11.3405 34.1819 19.4213 34.1819C27.502 34.1819 34.0529 27.5815 34.0529 19.4395ZM3.10547 19.4395C3.10547 10.3602 10.4103 3.00006 19.4213 3.00006C28.4322 3.00006 35.7371 10.3602 35.7371 19.4395C35.7371 28.5187 28.4322 35.8789 19.4213 35.8789C10.4103 35.8789 3.10547 28.5187 3.10547 19.4395Z" fill="#FF9D0B"/>
<path d="M24.1759 15.4268C24.7125 15.6177 24.926 16.7292 25.4681 16.4388C26.4947 15.8888 26.8844 14.6044 26.3386 13.57C25.7927 12.5357 24.518 12.143 23.4913 12.693C22.4647 13.243 22.075 14.5274 22.6209 15.5618C22.8785 16.05 23.6962 15.2561 24.1759 15.4268Z" fill="#3A3B45"/>
<path d="M14.2571 15.4268C13.7205 15.6177 13.507 16.7292 12.965 16.4388C11.9384 15.8888 11.5486 14.6044 12.0945 13.57C12.6403 12.5357 13.9151 12.143 14.9417 12.693C15.9683 13.243 16.358 14.5274 15.8122 15.5618C15.5545 16.05 14.7368 15.2561 14.2571 15.4268Z" fill="#3A3B45"/>
<path d="M19.3165 25.6076C23.4547 25.6076 24.7901 21.89 24.7901 19.9809C24.7901 18.9887 24.1282 19.301 23.068 19.8299C22.0882 20.3186 20.7684 20.9923 19.3165 20.9923C16.2934 20.9923 13.8428 18.0719 13.8428 19.9809C13.8428 21.89 15.1781 25.6076 19.3165 25.6076Z" fill="#3A3B45"/>
<path d="M6.92082 22.091C6.23913 22.091 5.62987 22.3731 5.20503 22.8848C4.94229 23.2017 4.66777 23.7125 4.64545 24.4774C4.35956 24.3946 4.08461 24.3484 3.82777 24.3484C3.17513 24.3484 2.58566 24.6004 2.16882 25.0582C1.63324 25.6457 1.39535 26.3678 1.49892 27.0903C1.54819 27.4343 1.66229 27.7428 1.83282 28.0283C1.47324 28.3214 1.2084 28.7296 1.0804 29.2204C0.980188 29.6052 0.877451 30.4066 1.41387 31.2322C1.37977 31.286 1.34777 31.342 1.31787 31.3993C0.995346 32.0162 0.974714 32.7132 1.25935 33.3623C1.69092 34.3461 2.76335 35.1212 4.84587 35.9531C6.14145 36.4707 7.32671 36.8016 7.33724 36.8046C9.05008 37.2522 10.5991 37.4796 11.9402 37.4796C14.405 37.4796 16.1697 36.7189 17.1852 35.2188C18.8198 32.8031 18.5861 30.5937 16.4711 28.464C15.3006 27.2854 14.5225 25.5477 14.3604 25.1663C14.0337 24.037 13.1697 22.7817 11.7334 22.7817H11.733C11.6122 22.7817 11.4901 22.7914 11.3697 22.8105C10.7406 22.9102 10.1907 23.2751 9.79787 23.824C9.37387 23.2929 8.96208 22.8703 8.58945 22.6319C8.02777 22.273 7.4665 22.091 6.92082 22.091ZM6.92082 23.788C7.13555 23.788 7.39787 23.88 7.68713 24.065C8.58524 24.639 10.3183 27.6405 10.9528 28.808C11.1654 29.1992 11.5288 29.3646 11.856 29.3646C12.5052 29.3646 13.0122 28.7143 11.9153 27.8879C10.2661 26.6444 10.8446 24.6119 11.632 24.4867C11.6665 24.4812 11.7006 24.4786 11.7334 24.4786C12.4492 24.4786 12.765 25.7217 12.765 25.7217C12.765 25.7217 13.6905 28.0635 15.2804 29.6642C16.8703 31.2652 16.9524 32.5503 15.7937 34.2625C15.0033 35.43 13.4905 35.7826 11.9402 35.7826C10.3322 35.7826 8.68377 35.4033 7.75998 35.1619C7.7145 35.15 2.0964 33.5511 2.80798 32.1901C2.92756 31.9614 3.12461 31.8698 3.37261 31.8698C4.37471 31.8698 6.19745 33.3725 6.98103 33.3725C7.15619 33.3725 7.27955 33.2974 7.33008 33.1141C7.66398 31.9071 2.25345 31.3997 2.70945 29.6514C2.78987 29.3422 3.00798 29.2166 3.3145 29.217C4.63871 29.217 7.60966 31.5635 8.2324 31.5635C8.27998 31.5635 8.31408 31.5495 8.33261 31.5198C8.64461 31.0124 8.47366 30.6582 6.2745 29.3171C4.07534 27.9757 2.53177 27.1688 3.40966 26.2057C3.51071 26.0946 3.65387 26.0454 3.82777 26.0454C5.16292 26.0458 8.31745 28.9383 8.31745 28.9383C8.31745 28.9383 9.16882 29.8305 9.68377 29.8305C9.80208 29.8305 9.90271 29.7834 9.97092 29.6671C10.336 29.0469 6.58019 26.179 6.3684 24.9958C6.22482 24.194 6.46903 23.788 6.92082 23.788Z" fill="#FF9D0B"/>
<path d="M15.7941 34.2625C16.9528 32.5503 16.8707 31.2653 15.2808 29.6642C13.691 28.0635 12.7655 25.7217 12.7655 25.7217C12.7655 25.7217 12.4198 24.3616 11.6324 24.4867C10.8451 24.6119 10.267 26.6444 11.9162 27.8879C13.5655 29.1309 11.5878 29.9756 10.9533 28.808C10.3187 27.6405 8.58611 24.639 7.68758 24.065C6.78948 23.491 6.15706 23.8126 6.36885 24.9958C6.58064 26.179 10.3368 29.0469 9.97137 29.6676C9.6059 30.2878 8.3179 28.9383 8.3179 28.9383C8.3179 28.9383 4.28758 25.2427 3.41009 26.2057C2.53261 27.1688 4.07579 27.9757 6.27495 29.3171C8.47453 30.6582 8.64506 31.0124 8.33306 31.5198C8.02064 32.0272 3.16588 27.9031 2.70988 29.6514C2.2543 31.3997 7.66443 31.9071 7.33053 33.1141C6.99664 34.3215 3.51956 30.8296 2.8084 32.1901C2.09683 33.5511 7.71495 35.15 7.76043 35.1619C9.57516 35.6362 14.184 36.6413 15.7941 34.2625Z" fill="#FFD21E"/>
<path d="M32.1318 22.091C32.8135 22.091 33.4227 22.3731 33.8476 22.8848C34.1103 23.2017 34.3848 23.7125 34.4072 24.4774C34.693 24.3946 34.968 24.3484 35.2248 24.3484C35.8775 24.3484 36.4669 24.6004 36.8838 25.0582C37.4194 25.6457 37.6573 26.3678 37.5537 27.0903C37.5044 27.4343 37.3903 27.7428 37.2198 28.0283C37.5794 28.3214 37.8442 28.7296 37.9722 29.2204C38.0724 29.6052 38.1752 30.4066 37.6387 31.2322C37.6728 31.286 37.7048 31.342 37.7347 31.3993C38.0573 32.0162 38.0779 32.7132 37.7933 33.3623C37.3617 34.3461 36.2893 35.1212 34.2067 35.9531C32.9112 36.4707 31.7259 36.8016 31.7154 36.8046C30.0025 37.2522 28.4535 37.4796 27.1124 37.4796C24.6476 37.4796 22.8829 36.7189 21.8674 35.2188C20.2328 32.8031 20.4665 30.5937 22.5815 28.464C23.752 27.2854 24.5301 25.5477 24.6922 25.1663C25.0189 24.037 25.8829 22.7817 27.3192 22.7817H27.3196C27.4404 22.7817 27.5625 22.7914 27.6829 22.8105C28.312 22.9102 28.8619 23.2751 29.2547 23.824C29.6787 23.2929 30.0905 22.8703 30.4632 22.6319C31.0248 22.273 31.5861 22.091 32.1318 22.091ZM32.1318 23.788C31.917 23.788 31.6547 23.88 31.3655 24.065C30.4674 24.639 28.7343 27.6405 28.0998 28.808C27.8872 29.1992 27.5238 29.3646 27.1966 29.3646C26.5474 29.3646 26.0404 28.7143 27.1373 27.8879C28.7865 26.6444 28.208 24.6119 27.4206 24.4867C27.3861 24.4812 27.352 24.4786 27.3192 24.4786C26.6034 24.4786 26.2876 25.7217 26.2876 25.7217C26.2876 25.7217 25.3621 28.0635 23.7722 29.6642C22.1823 31.2652 22.1002 32.5503 23.2589 34.2625C24.0493 35.43 25.5621 35.7826 27.1124 35.7826C28.7204 35.7826 30.3688 35.4033 31.2926 35.1619C31.3381 35.15 36.9562 33.5511 36.2446 32.1901C36.125 31.9614 35.928 31.8698 35.68 31.8698C34.6779 31.8698 32.8552 33.3725 32.0716 33.3725C31.8964 33.3725 31.773 33.2974 31.7225 33.1141C31.3886 31.9071 36.7992 31.3997 36.3432 29.6514C36.2627 29.3422 36.0446 29.2166 35.7381 29.217C34.4139 29.217 31.4429 31.5635 30.8202 31.5635C30.7726 31.5635 30.7385 31.5495 30.72 31.5198C30.408 31.0124 30.5789 30.6582 32.7781 29.3171C34.9773 27.9757 36.5208 27.1688 35.6429 26.2057C35.5419 26.0946 35.3987 26.0454 35.2248 26.0454C33.8897 26.0458 30.7352 28.9383 30.7352 28.9383C30.7352 28.9383 29.8838 29.8305 29.3688 29.8305C29.2505 29.8305 29.1499 29.7834 29.0817 29.6671C28.7166 29.0469 32.4724 26.179 32.6842 24.9958C32.8278 24.194 32.5836 23.788 32.1318 23.788Z" fill="#FF9D0B"/>
<path d="M23.2589 34.2625C22.1002 32.5503 22.1823 31.2653 23.7722 29.6642C25.3621 28.0635 26.2875 25.7217 26.2875 25.7217C26.2875 25.7217 26.6332 24.3616 27.4206 24.4867C28.2079 24.6119 28.7861 26.6444 27.1368 27.8879C25.4875 29.1309 27.4652 29.9756 28.0997 28.808C28.7343 27.6405 30.4669 24.639 31.3654 24.065C32.2635 23.491 32.8959 23.8126 32.6842 24.9958C32.4724 26.179 28.7162 29.0469 29.0816 29.6676C29.4471 30.2878 30.7351 28.9383 30.7351 28.9383C30.7351 28.9383 34.7654 25.2427 35.6429 26.2057C36.5204 27.1688 34.9772 27.9757 32.778 29.3171C30.5785 30.6582 30.4079 31.0124 30.7199 31.5198C31.0324 32.0272 35.8871 27.9031 36.3431 29.6514C36.7987 31.3997 31.3886 31.9071 31.7225 33.1141C32.0564 34.3215 35.5334 30.8296 36.2446 32.1901C36.9562 33.5511 31.338 35.15 31.2926 35.1619C29.4778 35.6362 24.869 36.6413 23.2589 34.2625Z" fill="#FFD21E"/>
<path d="M29.3157 17.4243C30.0714 17.4243 30.6841 16.807 30.6841 16.0455C30.6841 15.2841 30.0714 14.6667 29.3157 14.6667C28.5599 14.6667 27.9473 15.2841 27.9473 16.0455C27.9473 16.807 28.5599 17.4243 29.3157 17.4243Z" fill="#FF9D0B"/>
<path d="M9.73659 17.4243C10.4923 17.4243 11.105 16.807 11.105 16.0455C11.105 15.2841 10.4923 14.6667 9.73659 14.6667C8.9808 14.6667 8.36816 15.2841 8.36816 16.0455C8.36816 16.807 8.9808 17.4243 9.73659 17.4243Z" fill="#FF9D0B"/>
<mask id="mask0_9522_124125" style="mask-type:alpha" maskUnits="userSpaceOnUse" x="13" y="19" width="12" height="7">
<path d="M19.3165 25.6076C23.4547 25.6076 24.7901 21.89 24.7901 19.9809C24.7901 18.9887 24.1282 19.301 23.068 19.8299C22.0882 20.3186 20.7684 20.9923 19.3165 20.9923C16.2934 20.9923 13.8428 18.0719 13.8428 19.9809C13.8428 21.89 15.1781 25.6076 19.3165 25.6076Z" fill="white"/>
</mask>
<g mask="url(#mask0_9522_124125)">
<path d="M19.4213 29.9395C21.4381 29.9395 23.0731 28.2921 23.0731 26.2601C23.0731 24.6773 22.0812 23.3279 20.6896 22.8086C20.6383 22.7895 20.5866 22.7715 20.5343 22.7546C20.1834 22.6416 19.8094 23.8568 19.4213 23.8568C19.0587 23.8568 18.7084 22.6339 18.3777 22.7331C16.8694 23.1855 15.7695 24.5933 15.7695 26.2601C15.7695 28.2921 17.4045 29.9395 19.4213 29.9395Z" fill="#F94040"/>
</g>
</svg>
