<svg width="24" height="24" viewBox="0 0 24 24" fill="none" xmlns="http://www.w3.org/2000/svg">
<path d="M11.9324 20.7974C17.1665 20.7974 21.4096 16.5221 21.4096 11.2483C21.4096 5.97449 17.1665 1.69922 11.9324 1.69922C6.6982 1.69922 2.45508 5.97449 2.45508 11.2483C2.45508 16.5221 6.6982 20.7974 11.9324 20.7974Z" fill="#FFD21E"/>
<path d="M21.4097 11.2484C21.4097 5.97454 17.1666 1.69927 11.9325 1.69927C6.6983 1.69927 2.45518 5.97454 2.45518 11.2484C2.45518 16.5222 6.6983 20.7974 11.9325 20.7974C17.1666 20.7974 21.4097 16.5222 21.4097 11.2484ZM1.36426 11.2484C1.36426 5.36749 6.09579 0.600098 11.9325 0.600098C17.7691 0.600098 22.5007 5.36749 22.5007 11.2484C22.5007 17.1292 17.7691 21.8966 11.9325 21.8966C6.09579 21.8966 1.36426 17.1292 1.36426 11.2484Z" fill="#FF9D0B"/>
<path d="M15.0118 8.64915C15.3594 8.77281 15.4977 9.49277 15.8488 9.30464C16.5138 8.9484 16.7662 8.11647 16.4127 7.44646C16.0591 6.77649 15.2334 6.52214 14.5684 6.87838C13.9035 7.23463 13.651 8.06656 14.0046 8.73656C14.1715 9.0528 14.7012 8.5386 15.0118 8.64915Z" fill="#3A3B45"/>
<path d="M8.58704 8.64915C8.23947 8.77281 8.1012 9.49277 7.75009 9.30464C7.08513 8.9484 6.83269 8.11647 7.18625 7.44646C7.53982 6.77649 8.3655 6.52214 9.03046 6.87838C9.69543 7.23463 9.94786 8.06656 9.5943 8.73656C9.42742 9.0528 8.89773 8.5386 8.58704 8.64915Z" fill="#3A3B45"/>
<path d="M11.8648 15.2436C14.5453 15.2436 15.4102 12.8356 15.4102 11.5991C15.4102 10.9564 14.9815 11.1587 14.2948 11.5013C13.6602 11.8178 12.8052 12.2542 11.8648 12.2542C9.90669 12.2542 8.31934 10.3625 8.31934 11.5991C8.31934 12.8356 9.18429 15.2436 11.8648 15.2436Z" fill="#3A3B45"/>
<path d="M3.83508 12.9658C3.39353 12.9658 2.9989 13.1486 2.72371 13.48C2.55353 13.6852 2.37571 14.0161 2.36126 14.5115C2.17608 14.458 1.99799 14.428 1.83162 14.428C1.4089 14.428 1.02708 14.5912 0.757077 14.8877C0.410167 15.2683 0.256076 15.736 0.323167 16.204C0.355076 16.4268 0.428985 16.6266 0.53944 16.8116C0.306531 17.0014 0.134985 17.2658 0.0520761 17.5837C-0.0128331 17.833 -0.0793786 18.3521 0.268076 18.8868C0.245985 18.9217 0.225258 18.958 0.205894 18.9951C-0.00301484 19.3946 -0.0163786 19.8461 0.167985 20.2665C0.447531 20.9038 1.14217 21.4058 2.49108 21.9447C3.33026 22.28 4.09799 22.4943 4.10481 22.4962C5.21426 22.7861 6.21763 22.9334 7.08626 22.9334C8.68281 22.9334 9.82581 22.4407 10.4836 21.469C11.5424 19.9044 11.391 18.4732 10.0211 17.0938C9.2629 16.3304 8.7589 15.2048 8.6539 14.9578C8.44226 14.2263 7.88263 13.4132 6.95235 13.4132H6.95208C6.87381 13.4132 6.79472 13.4195 6.71672 13.4319C6.30926 13.4964 5.95308 13.7328 5.69863 14.0884C5.42399 13.7443 5.15726 13.4706 4.9159 13.3162C4.55208 13.0837 4.18853 12.9658 3.83508 12.9658ZM3.83508 14.065C3.97417 14.065 4.14408 14.1246 4.33144 14.2444C4.91317 14.6162 6.03572 16.5604 6.44672 17.3166C6.58444 17.57 6.81981 17.6772 7.03172 17.6772C7.45226 17.6772 7.78063 17.2559 7.07017 16.7206C6.0019 15.9152 6.37663 14.5986 6.88663 14.5176C6.90899 14.514 6.93108 14.5124 6.95235 14.5124C7.41599 14.5124 7.62054 15.3175 7.62054 15.3175C7.62054 15.3175 8.21999 16.8344 9.24981 17.8712C10.2796 18.9082 10.3328 19.7406 9.58226 20.8497C9.07036 21.6059 8.09044 21.8342 7.08626 21.8342C6.04472 21.8342 4.97699 21.5886 4.37862 21.4322C4.34917 21.4245 0.710167 20.3888 1.17108 19.5073C1.24853 19.3592 1.37617 19.2998 1.5368 19.2998C2.1859 19.2998 3.36653 20.2731 3.87408 20.2731C3.98753 20.2731 4.06744 20.2245 4.10017 20.1058C4.31644 19.324 0.811895 18.9953 1.10726 17.8629C1.15935 17.6626 1.30062 17.5813 1.49917 17.5815C2.3569 17.5815 4.28126 19.1014 4.68462 19.1014C4.71544 19.1014 4.73753 19.0923 4.74953 19.0731C4.95162 18.7445 4.8409 18.515 3.41644 17.6464C1.99199 16.7775 0.992168 16.2548 1.5608 15.631C1.62626 15.559 1.71899 15.5272 1.83162 15.5272C2.69644 15.5274 4.73972 17.401 4.73972 17.401C4.73972 17.401 5.29117 17.9789 5.62472 17.9789C5.70135 17.9789 5.76653 17.9484 5.81072 17.8731C6.04717 17.4713 3.61444 15.6137 3.47726 14.8473C3.38426 14.328 3.54244 14.065 3.83508 14.065Z" fill="#FF9D0B"/>
<path d="M9.58252 20.8496C10.3331 19.7405 10.2799 18.9082 9.25007 17.8711C8.22025 16.8343 7.62079 15.3175 7.62079 15.3175C7.62079 15.3175 7.39688 14.4365 6.88688 14.5175C6.37688 14.5986 6.00243 15.9151 7.0707 16.7206C8.13898 17.5257 6.85798 18.0728 6.44697 17.3166C6.03597 16.5604 4.9137 14.6162 4.3317 14.2444C3.74997 13.8726 3.34034 14.0809 3.47752 14.8473C3.6147 15.6137 6.0477 17.4713 5.81097 17.8733C5.57425 18.2751 4.73997 17.4009 4.73997 17.4009C4.73997 17.4009 2.12942 15.0072 1.56105 15.631C0.992683 16.2548 1.99224 16.7774 3.4167 17.6463C4.84143 18.515 4.95188 18.7444 4.74979 19.0731C4.54743 19.4017 1.40286 16.7305 1.1075 17.8629C0.81241 18.9953 4.3167 19.324 4.10043 20.1057C3.88415 20.8878 1.63196 18.626 1.17132 19.5072C0.71041 20.3888 4.34943 21.4245 4.37888 21.4322C5.55434 21.7394 8.53961 22.3904 9.58252 20.8496Z" fill="#FFD21E"/>
<path d="M20.1648 12.9658C20.6064 12.9658 21.001 13.1486 21.2762 13.48C21.4464 13.6852 21.6242 14.0161 21.6387 14.5115C21.8238 14.458 22.0019 14.428 22.1683 14.428C22.591 14.428 22.9728 14.5912 23.2428 14.8877C23.5897 15.2683 23.7438 15.736 23.6767 16.204C23.6448 16.4268 23.5709 16.6266 23.4605 16.8116C23.6934 17.0014 23.8649 17.2658 23.9478 17.5837C24.0127 17.833 24.0793 18.3521 23.7318 18.8868C23.7539 18.9217 23.7747 18.958 23.794 18.9951C24.0029 19.3946 24.0163 19.8461 23.8319 20.2665C23.5524 20.9038 22.8577 21.4058 21.5088 21.9447C20.6697 22.28 19.9019 22.4943 19.8951 22.4962C18.7857 22.7861 17.7823 22.9334 16.9136 22.9334C15.3171 22.9334 14.1741 22.4407 13.5163 21.469C12.4576 19.9044 12.6089 18.4732 13.9788 17.0938C14.737 16.3304 15.241 15.2048 15.346 14.9578C15.5576 14.2263 16.1173 13.4132 17.0476 13.4132H17.0478C17.1261 13.4132 17.2052 13.4195 17.2832 13.4319C17.6907 13.4964 18.0468 13.7328 18.3013 14.0884C18.5759 13.7443 18.8427 13.4706 19.084 13.3162C19.4478 13.0837 19.8114 12.9658 20.1648 12.9658ZM20.1648 14.065C20.0257 14.065 19.8558 14.1246 19.6685 14.2444C19.0867 14.6162 17.9642 16.5604 17.5532 17.3166C17.4155 17.57 17.1801 17.6772 16.9682 17.6772C16.5476 17.6772 16.2193 17.2559 16.9297 16.7206C17.998 15.9152 17.6233 14.5986 17.1133 14.5176C17.0909 14.514 17.0688 14.5124 17.0476 14.5124C16.5839 14.5124 16.3794 15.3175 16.3794 15.3175C16.3794 15.3175 15.7799 16.8344 14.7501 17.8712C13.7203 18.9082 13.6671 19.7406 14.4176 20.8497C14.9296 21.6059 15.9095 21.8342 16.9136 21.8342C17.9552 21.8342 19.0229 21.5886 19.6213 21.4322C19.6507 21.4245 23.2897 20.3888 22.8288 19.5073C22.7514 19.3592 22.6237 19.2998 22.4631 19.2998C21.814 19.2998 20.6334 20.2731 20.1258 20.2731C20.0124 20.2731 19.9325 20.2245 19.8997 20.1058C19.6835 19.324 23.188 18.9953 22.8927 17.8629C22.8406 17.6626 22.6993 17.5813 22.5007 17.5815C21.643 17.5815 19.7187 19.1014 19.3153 19.1014C19.2845 19.1014 19.2624 19.0923 19.2504 19.0731C19.0483 18.7445 19.159 18.515 20.5835 17.6464C22.0079 16.7775 23.0077 16.2548 22.4391 15.631C22.3737 15.559 22.2809 15.5272 22.1683 15.5272C21.3035 15.5274 19.2602 17.401 19.2602 17.401C19.2602 17.401 18.7087 17.9789 18.3752 17.9789C18.2986 17.9789 18.2334 17.9484 18.1892 17.8731C17.9527 17.4713 20.3855 15.6137 20.5227 14.8473C20.6157 14.328 20.4575 14.065 20.1648 14.065Z" fill="#FF9D0B"/>
<path d="M14.418 20.8496C13.6674 19.7405 13.7206 18.9082 14.7504 17.8711C15.7802 16.8343 16.3797 15.3175 16.3797 15.3175C16.3797 15.3175 16.6036 14.4365 17.1136 14.5175C17.6236 14.5986 17.9981 15.9151 16.9298 16.7206C15.8615 17.5257 17.1425 18.0728 17.5535 17.3166C17.9645 16.5604 19.0868 14.6162 19.6688 14.2444C20.2505 13.8726 20.6601 14.0809 20.523 14.8473C20.3858 15.6137 17.9528 17.4713 18.1895 17.8733C18.4262 18.2751 19.2605 17.4009 19.2605 17.4009C19.2605 17.4009 21.8711 15.0072 22.4394 15.631C23.0078 16.2548 22.0082 16.7774 20.5838 17.6463C19.1591 18.515 19.0486 18.7444 19.2507 19.0731C19.4531 19.4017 22.5976 16.7305 22.893 17.8629C23.1881 18.9953 19.6838 19.324 19.9001 20.1057C20.1163 20.8878 22.3685 18.626 22.8291 19.5072C23.2901 20.3888 19.6511 21.4245 19.6216 21.4322C18.4461 21.7394 15.4609 22.3904 14.418 20.8496Z" fill="#FFD21E"/>
<path d="M18.341 9.9429C18.8305 9.9429 19.2273 9.54304 19.2273 9.04982C19.2273 8.55659 18.8305 8.15674 18.341 8.15674C17.8514 8.15674 17.4546 8.55659 17.4546 9.04982C17.4546 9.54304 17.8514 9.9429 18.341 9.9429Z" fill="#FF9D0B"/>
<path d="M5.65883 9.9429C6.14834 9.9429 6.54519 9.54304 6.54519 9.04982C6.54519 8.55659 6.14834 8.15674 5.65883 8.15674C5.16928 8.15674 4.77246 8.55659 4.77246 9.04982C4.77246 9.54304 5.16928 9.9429 5.65883 9.9429Z" fill="#FF9D0B"/>
<mask id="mask0_1535_455" style="mask-type:alpha" maskUnits="userSpaceOnUse" x="8" y="11" width="8" height="5">
<path d="M11.8633 15.2436C14.5438 15.2436 15.4088 12.8356 15.4088 11.5991C15.4088 10.9564 14.98 11.1587 14.2933 11.5013C13.6587 11.8178 12.8038 12.2542 11.8633 12.2542C9.90523 12.2542 8.31787 10.3625 8.31787 11.5991C8.31787 12.8356 9.18283 15.2436 11.8633 15.2436Z" fill="white"/>
</mask>
<g mask="url(#mask0_1535_455)">
<path d="M11.9313 18.0494C13.2376 18.0494 14.2966 16.9824 14.2966 15.6662C14.2966 14.6409 13.6542 13.7669 12.7528 13.4306C12.7196 13.4182 12.6861 13.4065 12.6522 13.3956C12.4249 13.3224 12.1827 14.1095 11.9313 14.1095C11.6964 14.1095 11.4695 13.3174 11.2553 13.3816C10.2783 13.6747 9.56592 14.5866 9.56592 15.6662C9.56592 16.9824 10.6249 18.0494 11.9313 18.0494Z" fill="#F94040"/>
</g>
</svg>
