<svg width="24" height="24" viewBox="0 0 24 24" fill="none" xmlns="http://www.w3.org/2000/svg">
<path d="M11.9324 20.7974C17.1665 20.7974 21.4096 16.5221 21.4096 11.2483C21.4096 5.97449 17.1665 1.69922 11.9324 1.69922C6.6982 1.69922 2.45508 5.97449 2.45508 11.2483C2.45508 16.5221 6.6982 20.7974 11.9324 20.7974Z" fill="#FFD21E"/>
<path d="M21.4095 11.2484C21.4095 5.97454 17.1664 1.69927 11.9322 1.69927C6.69806 1.69927 2.45494 5.97454 2.45494 11.2484C2.45494 16.5222 6.69806 20.7974 11.9322 20.7974C17.1664 20.7974 21.4095 16.5222 21.4095 11.2484ZM1.36401 11.2484C1.36401 5.36749 6.09555 0.600098 11.9322 0.600098C17.7689 0.600098 22.5004 5.36749 22.5004 11.2484C22.5004 17.1292 17.7689 21.8966 11.9322 21.8966C6.09555 21.8966 1.36401 17.1292 1.36401 11.2484Z" fill="#FF9D0B"/>
<path d="M15.0116 8.64915C15.3592 8.77281 15.4975 9.49277 15.8486 9.30464C16.5135 8.9484 16.766 8.11647 16.4124 7.44646C16.0589 6.77649 15.2332 6.52214 14.5682 6.87838C13.9032 7.23463 13.6508 8.06656 14.0044 8.73656C14.1713 9.0528 14.7009 8.5386 15.0116 8.64915Z" fill="#3A3B45"/>
<path d="M8.58728 8.64915C8.23972 8.77281 8.10144 9.49277 7.75033 9.30464C7.08537 8.9484 6.83293 8.11647 7.1865 7.44646C7.54006 6.77649 8.36574 6.52214 9.03071 6.87838C9.69567 7.23463 9.94811 8.06656 9.59454 8.73656C9.42766 9.0528 8.89797 8.5386 8.58728 8.64915Z" fill="#3A3B45"/>
<path d="M11.8645 15.2436C14.545 15.2436 15.41 12.8356 15.41 11.5991C15.41 10.9564 14.9813 11.1587 14.2945 11.5013C13.6599 11.8178 12.805 12.2542 11.8645 12.2542C9.90645 12.2542 8.31909 10.3625 8.31909 11.5991C8.31909 12.8356 9.18405 15.2436 11.8645 15.2436Z" fill="#3A3B45"/>
<path d="M3.83508 12.9658C3.39353 12.9658 2.9989 13.1486 2.72371 13.48C2.55353 13.6852 2.37571 14.0161 2.36126 14.5115C2.17608 14.458 1.99799 14.428 1.83162 14.428C1.4089 14.428 1.02708 14.5912 0.757077 14.8877C0.410167 15.2683 0.256076 15.736 0.323167 16.204C0.355076 16.4268 0.428985 16.6266 0.53944 16.8116C0.306531 17.0014 0.134985 17.2658 0.0520761 17.5837C-0.0128331 17.833 -0.0793786 18.3521 0.268076 18.8868C0.245985 18.9217 0.225258 18.958 0.205894 18.9951C-0.00301484 19.3946 -0.0163786 19.8461 0.167985 20.2665C0.447531 20.9038 1.14217 21.4058 2.49108 21.9447C3.33026 22.28 4.09799 22.4943 4.10481 22.4962C5.21426 22.7861 6.21763 22.9334 7.08626 22.9334C8.68281 22.9334 9.82581 22.4407 10.4836 21.469C11.5424 19.9044 11.391 18.4732 10.0211 17.0938C9.2629 16.3304 8.7589 15.2048 8.6539 14.9578C8.44226 14.2263 7.88263 13.4132 6.95235 13.4132H6.95208C6.87381 13.4132 6.79472 13.4195 6.71672 13.4319C6.30926 13.4964 5.95308 13.7328 5.69863 14.0884C5.42399 13.7443 5.15726 13.4706 4.9159 13.3162C4.55208 13.0837 4.18853 12.9658 3.83508 12.9658ZM3.83508 14.065C3.97417 14.065 4.14408 14.1246 4.33144 14.2444C4.91317 14.6162 6.03572 16.5604 6.44672 17.3166C6.58444 17.57 6.81981 17.6772 7.03172 17.6772C7.45226 17.6772 7.78063 17.2559 7.07017 16.7206C6.0019 15.9152 6.37663 14.5986 6.88663 14.5176C6.90899 14.514 6.93108 14.5124 6.95235 14.5124C7.41599 14.5124 7.62054 15.3175 7.62054 15.3175C7.62054 15.3175 8.21999 16.8344 9.24981 17.8712C10.2796 18.9082 10.3328 19.7406 9.58226 20.8497C9.07036 21.6059 8.09044 21.8342 7.08626 21.8342C6.04472 21.8342 4.97699 21.5886 4.37862 21.4322C4.34917 21.4245 0.710167 20.3888 1.17108 19.5073C1.24853 19.3592 1.37617 19.2998 1.5368 19.2998C2.1859 19.2998 3.36653 20.2731 3.87408 20.2731C3.98753 20.2731 4.06744 20.2245 4.10017 20.1058C4.31644 19.324 0.811895 18.9953 1.10726 17.8629C1.15935 17.6626 1.30062 17.5813 1.49917 17.5815C2.3569 17.5815 4.28126 19.1014 4.68462 19.1014C4.71544 19.1014 4.73753 19.0923 4.74953 19.0731C4.95162 18.7445 4.8409 18.515 3.41644 17.6464C1.99199 16.7775 0.992168 16.2548 1.5608 15.631C1.62626 15.559 1.71899 15.5272 1.83162 15.5272C2.69644 15.5274 4.73972 17.401 4.73972 17.401C4.73972 17.401 5.29117 17.9789 5.62472 17.9789C5.70135 17.9789 5.76653 17.9484 5.81072 17.8731C6.04717 17.4713 3.61444 15.6137 3.47726 14.8473C3.38426 14.328 3.54244 14.065 3.83508 14.065Z" fill="#FF9D0B"/>
<path d="M9.58252 20.8496C10.3331 19.7405 10.2799 18.9082 9.25007 17.8711C8.22025 16.8343 7.62079 15.3175 7.62079 15.3175C7.62079 15.3175 7.39688 14.4365 6.88688 14.5175C6.37688 14.5986 6.00243 15.9151 7.0707 16.7206C8.13898 17.5257 6.85798 18.0728 6.44697 17.3166C6.03597 16.5604 4.9137 14.6162 4.3317 14.2444C3.74997 13.8726 3.34034 14.0809 3.47752 14.8473C3.6147 15.6137 6.0477 17.4713 5.81097 17.8733C5.57425 18.2751 4.73997 17.4009 4.73997 17.4009C4.73997 17.4009 2.12942 15.0072 1.56105 15.631C0.992683 16.2548 1.99224 16.7774 3.4167 17.6463C4.84143 18.515 4.95188 18.7444 4.74979 19.0731C4.54743 19.4017 1.40286 16.7305 1.1075 17.8629C0.81241 18.9953 4.3167 19.324 4.10043 20.1057C3.88415 20.8878 1.63196 18.626 1.17132 19.5072C0.71041 20.3888 4.34943 21.4245 4.37888 21.4322C5.55434 21.7394 8.53961 22.3904 9.58252 20.8496Z" fill="#FFD21E"/>
<path d="M20.1646 12.9658C20.6061 12.9658 21.0008 13.1486 21.276 13.48C21.4461 13.6852 21.624 14.0161 21.6384 14.5115C21.8236 14.458 22.0017 14.428 22.168 14.428C22.5908 14.428 22.9726 14.5912 23.2426 14.8877C23.5895 15.2683 23.7436 15.736 23.6765 16.204C23.6446 16.4268 23.5707 16.6266 23.4602 16.8116C23.6931 17.0014 23.8647 17.2658 23.9476 17.5837C24.0125 17.833 24.079 18.3521 23.7316 18.8868C23.7537 18.9217 23.7744 18.958 23.7938 18.9951C24.0027 19.3946 24.016 19.8461 23.8317 20.2665C23.5521 20.9038 22.8575 21.4058 21.5086 21.9447C20.6694 22.28 19.9017 22.4943 19.8949 22.4962C18.7854 22.7861 17.782 22.9334 16.9134 22.9334C15.3169 22.9334 14.1739 22.4407 13.516 21.469C12.4573 19.9044 12.6087 18.4732 13.9786 17.0938C14.7368 16.3304 15.2408 15.2048 15.3458 14.9578C15.5574 14.2263 16.117 13.4132 17.0473 13.4132H17.0476C17.1259 13.4132 17.205 13.4195 17.283 13.4319C17.6904 13.4964 18.0466 13.7328 18.301 14.0884C18.5757 13.7443 18.8424 13.4706 19.0838 13.3162C19.4476 13.0837 19.8111 12.9658 20.1646 12.9658ZM20.1646 14.065C20.0255 14.065 19.8556 14.1246 19.6682 14.2444C19.0865 14.6162 17.964 16.5604 17.553 17.3166C17.4152 17.57 17.1799 17.6772 16.968 17.6772C16.5474 17.6772 16.219 17.2559 16.9295 16.7206C17.9978 15.9152 17.623 14.5986 17.113 14.5176C17.0907 14.514 17.0686 14.5124 17.0473 14.5124C16.5837 14.5124 16.3791 15.3175 16.3791 15.3175C16.3791 15.3175 15.7797 16.8344 14.7499 17.8712C13.72 18.9082 13.6669 19.7406 14.4174 20.8497C14.9293 21.6059 15.9092 21.8342 16.9134 21.8342C17.955 21.8342 19.0227 21.5886 19.621 21.4322C19.6505 21.4245 23.2895 20.3888 22.8286 19.5073C22.7511 19.3592 22.6235 19.2998 22.4629 19.2998C21.8138 19.2998 20.6331 20.2731 20.1256 20.2731C20.0121 20.2731 19.9322 20.2245 19.8995 20.1058C19.6832 19.324 23.1878 18.9953 22.8924 17.8629C22.8403 17.6626 22.699 17.5813 22.5005 17.5815C21.6428 17.5815 19.7184 19.1014 19.315 19.1014C19.2842 19.1014 19.2621 19.0923 19.2501 19.0731C19.048 18.7445 19.1588 18.515 20.5832 17.6464C22.0077 16.7775 23.0075 16.2548 22.4389 15.631C22.3734 15.559 22.2807 15.5272 22.168 15.5272C21.3032 15.5274 19.26 17.401 19.26 17.401C19.26 17.401 18.7085 17.9789 18.375 17.9789C18.2983 17.9789 18.2331 17.9484 18.189 17.8731C17.9525 17.4713 20.3852 15.6137 20.5224 14.8473C20.6154 14.328 20.4572 14.065 20.1646 14.065Z" fill="#FF9D0B"/>
<path d="M14.4177 20.8496C13.6672 19.7405 13.7204 18.9082 14.7502 17.8711C15.78 16.8343 16.3794 15.3175 16.3794 15.3175C16.3794 15.3175 16.6034 14.4365 17.1134 14.5175C17.6234 14.5986 17.9978 15.9151 16.9295 16.7206C15.8613 17.5257 17.1423 18.0728 17.5533 17.3166C17.9643 16.5604 19.0865 14.6162 19.6685 14.2444C20.2503 13.8726 20.6599 14.0809 20.5227 14.8473C20.3855 15.6137 17.9525 17.4713 18.1893 17.8733C18.426 18.2751 19.2603 17.4009 19.2603 17.4009C19.2603 17.4009 21.8708 15.0072 22.4392 15.631C23.0075 16.2548 22.008 16.7774 20.5835 17.6463C19.1588 18.515 19.0484 18.7444 19.2504 19.0731C19.4528 19.4017 22.5974 16.7305 22.8927 17.8629C23.1878 18.9953 19.6835 19.324 19.8998 20.1057C20.1161 20.8878 22.3683 18.626 22.8289 19.5072C23.2898 20.3888 19.6508 21.4245 19.6214 21.4322C18.4459 21.7394 15.4606 22.3904 14.4177 20.8496Z" fill="#FFD21E"/>
<path d="M18.341 9.9429C18.8305 9.9429 19.2273 9.54304 19.2273 9.04982C19.2273 8.55659 18.8305 8.15674 18.341 8.15674C17.8514 8.15674 17.4546 8.55659 17.4546 9.04982C17.4546 9.54304 17.8514 9.9429 18.341 9.9429Z" fill="#FF9D0B"/>
<path d="M5.65883 9.9429C6.14834 9.9429 6.54519 9.54304 6.54519 9.04982C6.54519 8.55659 6.14834 8.15674 5.65883 8.15674C5.16928 8.15674 4.77246 8.55659 4.77246 9.04982C4.77246 9.54304 5.16928 9.9429 5.65883 9.9429Z" fill="#FF9D0B"/>
<mask id="mask0_1535_438" style="mask-type:alpha" maskUnits="userSpaceOnUse" x="8" y="11" width="8" height="5">
<path d="M11.8636 15.2436C14.544 15.2436 15.409 12.8356 15.409 11.5991C15.409 10.9564 14.9803 11.1587 14.2935 11.5013C13.6589 11.8178 12.804 12.2542 11.8636 12.2542C9.90547 12.2542 8.31812 10.3625 8.31812 11.5991C8.31812 12.8356 9.18307 15.2436 11.8636 15.2436Z" fill="white"/>
</mask>
<g mask="url(#mask0_1535_438)">
<path d="M11.9315 18.0494C13.2379 18.0494 14.2969 16.9824 14.2969 15.6662C14.2969 14.6409 13.6544 13.7669 12.753 13.4306C12.7198 13.4182 12.6863 13.4065 12.6525 13.3956C12.4252 13.3224 12.1829 14.1095 11.9315 14.1095C11.6966 14.1095 11.4697 13.3174 11.2555 13.3816C10.2786 13.6747 9.56616 14.5866 9.56616 15.6662C9.56616 16.9824 10.6252 18.0494 11.9315 18.0494Z" fill="#F94040"/>
</g>
</svg>
