<svg width="24" height="24" viewBox="0 0 24 24" fill="none" xmlns="http://www.w3.org/2000/svg">
<g clip-path="url(#clip0_3087_183)">
<path d="M10.0025 19.0483C10.0026 19.0539 10.0006 19.0594 9.99705 19.0637C9.99345 19.068 9.98841 19.0709 9.98289 19.0719L3.98848 20.0994C3.98425 20.1 3.97994 20.0995 3.97597 20.0979C3.97201 20.0963 3.96854 20.0937 3.96593 20.0903C3.96332 20.0869 3.96166 20.0829 3.96113 20.0786C3.96059 20.0744 3.9612 20.0701 3.96288 20.0662L9.95729 6.67912C9.95961 6.67424 9.96353 6.67032 9.96841 6.66796C9.97325 6.6656 9.97877 6.66496 9.98401 6.66612C9.98929 6.66728 9.99401 6.67016 9.99745 6.67432C10.0008 6.67852 10.0028 6.68372 10.0029 6.68912L10.0025 19.0483Z" fill="#7BA3FF"/>
<path d="M11.0128 19.0743C11.0128 19.0801 11.015 19.0857 11.0189 19.0901C11.0228 19.0944 11.0282 19.0972 11.034 19.0979L20.013 20.1006C20.0171 20.101 20.0214 20.1004 20.0252 20.0986C20.0291 20.0969 20.0324 20.0942 20.0349 20.0908C20.0373 20.0874 20.0389 20.0835 20.0393 20.0793C20.0397 20.0751 20.0391 20.0709 20.0374 20.067L11.0584 0.0135676C11.056 0.00873705 11.0522 0.0048268 11.0474 0.00246089C11.0426 9.49869e-05 11.0371 -0.000590166 11.0318 0.000514796C11.0266 0.00161976 11.0218 0.00445114 11.0184 0.00855698C11.015 0.0126629 11.013 0.0178065 11.0128 0.0231669V19.0743Z" fill="#7BA3FF"/>
<path d="M19.9444 21.0188L10.0118 23.9986C10.0063 24.0006 10.0002 24.0006 9.99465 23.9986L3.99265 21.0188C3.98761 21.0166 3.9835 21.0127 3.98103 21.0078C3.97856 21.0029 3.97788 20.9972 3.97912 20.9919C3.98035 20.9865 3.98342 20.9817 3.98778 20.9784C3.99216 20.9751 3.99755 20.9734 4.00305 20.9736H19.9376C19.9426 20.9744 19.9472 20.9768 19.9508 20.9804C19.9544 20.984 19.9567 20.9887 19.9574 20.9937C19.9582 20.9987 19.9573 21.0039 19.955 21.0084C19.9526 21.0129 19.9489 21.0165 19.9444 21.0188Z" fill="#7BA3FF"/>
</g>
<defs>
<clipPath id="clip0_3087_183">
<rect width="24" height="24" fill="white"/>
</clipPath>
</defs>
</svg>
