<svg width="24" height="24" viewBox="0 0 24 24" fill="none" xmlns="http://www.w3.org/2000/svg">
<g clip-path="url(#clip0_3087_182)">
<path d="M10.0022 19.0483C10.0023 19.0539 10.0004 19.0594 9.9968 19.0637C9.9932 19.068 9.98816 19.0709 9.98264 19.0719L3.98824 20.0994C3.98401 20.1 3.97969 20.0995 3.97573 20.0979C3.97176 20.0963 3.9683 20.0937 3.96569 20.0903C3.96308 20.0869 3.96142 20.0829 3.96088 20.0786C3.96035 20.0744 3.96095 20.0701 3.96264 20.0662L9.95705 6.67912C9.95936 6.67424 9.96328 6.67032 9.96816 6.66796C9.973 6.6656 9.97852 6.66496 9.98376 6.66612C9.98904 6.66728 9.99376 6.67016 9.9972 6.67432C10.0006 6.67852 10.0025 6.68372 10.0026 6.68912L10.0022 19.0483Z" fill="#4E6AAB"/>
<path d="M11.0126 19.0743C11.0126 19.0801 11.0148 19.0857 11.0187 19.0901C11.0226 19.0944 11.028 19.0972 11.0338 19.0979L20.0127 20.1006C20.0169 20.101 20.0211 20.1004 20.025 20.0986C20.0288 20.0969 20.0321 20.0942 20.0346 20.0908C20.0371 20.0874 20.0386 20.0835 20.0391 20.0793C20.0395 20.0751 20.0388 20.0709 20.0371 20.067L11.0582 0.0135676C11.0558 0.00873705 11.0519 0.0048268 11.0471 0.00246089C11.0423 9.49869e-05 11.0368 -0.000590166 11.0316 0.000514796C11.0263 0.00161976 11.0216 0.00445114 11.0182 0.00855698C11.0147 0.0126629 11.0127 0.0178065 11.0126 0.0231669V19.0743Z" fill="#4E6AAB"/>
<path d="M19.9441 21.0188L10.0116 23.9986C10.006 24.0006 9.99996 24.0006 9.9944 23.9986L3.9924 21.0188C3.98737 21.0166 3.98326 21.0127 3.98079 21.0078C3.97832 21.0029 3.97764 20.9972 3.97887 20.9919C3.9801 20.9865 3.98317 20.9817 3.98754 20.9784C3.99191 20.9751 3.99731 20.9734 4.0028 20.9736H19.9373C19.9423 20.9744 19.947 20.9768 19.9505 20.9804C19.9541 20.984 19.9564 20.9887 19.9572 20.9937C19.958 20.9987 19.9571 21.0039 19.9548 21.0084C19.9524 21.0129 19.9487 21.0165 19.9441 21.0188Z" fill="#4E6AAB"/>
</g>
<defs>
<clipPath id="clip0_3087_182">
<rect width="24" height="24" fill="white"/>
</clipPath>
</defs>
</svg>
