<svg width="24" height="24" viewBox="0 0 24 24" fill="none" xmlns="http://www.w3.org/2000/svg">
<g clip-path="url(#clip0_2156_203)">
<path d="M12.7466 7.87117C13.5473 8.78536 12.5362 9.60803 12.5362 9.60803C12.5362 9.60803 14.5692 8.5672 13.6356 7.26383C12.7636 6.04837 12.0948 5.44445 15.715 3.36222C15.715 3.36222 10.0325 4.76972 12.7466 7.87117Z" fill="#F8981D"/>
<path d="M13.6356 0C13.6356 0 15.3603 1.71103 11.9998 4.34212C9.30498 6.4527 11.3853 7.6561 11.9987 9.03103C10.4257 7.62353 9.27129 6.38451 10.0457 5.23133C11.1824 3.53858 14.3315 2.71787 13.6356 0Z" fill="#F8981D"/>
<path d="M17.9575 18.926H17.8663V18.8754H18.1118V18.926H18.0212V19.1784H17.9575V18.926ZM18.4471 18.9392H18.4456L18.3553 19.1784H18.314L18.2242 18.9392H18.2231V19.1784H18.163V18.8754H18.2514L18.3346 19.09L18.4176 18.8754H18.5056V19.1784H18.447L18.4471 18.9392Z" fill="#5382A1"/>
<path d="M9.79598 12.7313C9.79598 12.7313 9.16166 13.0971 10.2474 13.2209C11.5627 13.3697 12.235 13.3484 13.6845 13.0763C13.6845 13.0763 14.0656 13.3133 14.5978 13.5185C11.3484 14.8997 7.24372 13.4385 9.79598 12.7313Z" fill="#5382A1"/>
<path d="M9.39892 10.9288C9.39892 10.9288 8.68747 11.4511 9.77401 11.5625C11.1791 11.7063 12.2887 11.7181 14.2088 11.3514C14.2088 11.3514 14.4744 11.6184 14.892 11.7644C10.9632 12.9038 6.5873 11.8543 9.39892 10.9288Z" fill="#5382A1"/>
<path d="M17.044 14.0641C17.044 14.0641 17.5134 14.4476 16.527 14.7444C14.6514 15.3079 8.72047 15.478 7.07289 14.7668C6.48063 14.5113 7.59129 14.1567 7.94066 14.0823C8.30502 14.0039 8.51324 14.0185 8.51324 14.0185C7.85458 13.5584 4.25595 14.9221 6.68531 15.3126C13.3105 16.3782 18.7624 14.8328 17.044 14.0641Z" fill="#5382A1"/>
<path d="M10.1011 9.06152C10.1011 9.06152 7.08424 9.77214 9.03274 10.0302C9.85545 10.1394 11.4955 10.1147 13.0232 9.98778C14.2717 9.88333 15.5253 9.66126 15.5253 9.66126C15.5253 9.66126 15.0851 9.84824 14.7666 10.0639C11.7031 10.863 5.78487 10.4912 7.48864 9.67391C8.92952 8.98316 10.1011 9.06152 10.1011 9.06152Z" fill="#5382A1"/>
<path d="M15.5129 12.0614C18.6271 10.4565 17.1872 8.91421 16.1822 9.12199C15.9359 9.17284 15.826 9.2169 15.826 9.2169C15.826 9.2169 15.9175 9.07483 16.0922 9.01333C18.0804 8.3201 19.6095 11.0579 15.4503 12.1423C15.4503 12.1423 15.4985 12.0996 15.5129 12.0614Z" fill="#5382A1"/>
<path d="M10.407 16.4103C13.3963 16.6001 17.9867 16.3051 18.0954 14.9023C18.0954 14.9023 17.8864 15.4341 15.6249 15.8564C13.0735 16.3326 9.92669 16.277 8.06029 15.9718C8.06029 15.9718 8.44237 16.2854 10.407 16.4103Z" fill="#5382A1"/>
<path d="M9.91717 21.7703C9.63517 22.0129 9.33734 22.1491 9.07007 22.1491C8.68857 22.1491 8.48246 21.9222 8.48246 21.5583C8.48246 21.1647 8.70329 20.877 9.58927 20.877H9.91712L9.91717 21.7703ZM10.6953 22.641V19.9459C10.6953 19.2574 10.2993 18.8031 9.34468 18.8031C8.78736 18.8031 8.29916 18.9396 7.90237 19.1137L8.0169 19.5907C8.32932 19.477 8.73372 19.3711 9.13065 19.3711C9.68058 19.3711 9.91717 19.5907 9.91717 20.0447V20.3853H9.64269C8.30654 20.3853 7.70381 20.8997 7.70381 21.6718C7.70381 22.3381 8.10101 22.7168 8.84888 22.7168C9.3296 22.7168 9.68846 22.52 10.0239 22.232L10.0848 22.6411L10.6953 22.641Z" fill="#5382A1"/>
<path d="M13.2922 22.6411H12.3217L11.1537 18.8714H12.0012L12.7259 21.1875L12.8871 21.8841C13.2537 20.877 13.513 19.8552 13.6427 18.8714H14.4671C14.2462 20.1128 13.8488 21.4753 13.2922 22.6411Z" fill="#5382A1"/>
<path d="M17.0151 21.7703C16.7325 22.0129 16.4342 22.1491 16.1669 22.1491C15.7861 22.1491 15.5794 21.9222 15.5794 21.5583C15.5794 21.1647 15.8008 20.877 16.6867 20.877H17.0151V21.7703ZM17.7931 22.641V19.9459C17.7931 19.2574 17.3961 18.8031 16.4426 18.8031C15.8849 18.8031 15.3965 18.9396 14.9999 19.1137L15.1142 19.5907C15.4268 19.477 15.832 19.3711 16.2286 19.3711C16.7781 19.3711 17.0151 19.5907 17.0151 20.0447V20.3853H16.7401C15.4036 20.3853 14.8011 20.8997 14.8011 21.6718C14.8011 22.3381 15.198 22.7168 15.9457 22.7168C16.4267 22.7168 16.7854 22.52 17.1215 22.232L17.1826 22.6411L17.7931 22.641Z" fill="#5382A1"/>
<path d="M6.85064 23.281C6.62883 23.6022 6.27055 23.8563 5.87832 24L5.49414 23.5517C5.79269 23.3998 6.04873 23.1544 6.16769 22.9258C6.2706 22.7226 6.31319 22.4606 6.31319 21.8342V17.5305H7.13989V21.7752C7.13984 22.6127 7.07233 22.951 6.85064 23.281Z" fill="#5382A1"/>
</g>
<defs>
<clipPath id="clip0_2156_203">
<rect width="24" height="24" fill="white"/>
</clipPath>
</defs>
</svg>
