<svg width="24" height="24" viewBox="0 0 24 24" fill="none" xmlns="http://www.w3.org/2000/svg">
<g clip-path="url(#clip0_1535_3118)">
<path fill-rule="evenodd" clip-rule="evenodd" d="M20.6887 11.5701C20.6887 16.3229 16.9218 20.1758 12.2752 20.1758C7.62865 20.1758 3.86182 16.3229 3.86182 11.5701C3.86182 6.8172 7.62865 2.96422 12.2752 2.96422C16.9218 2.96422 20.6887 6.8172 20.6887 11.5701Z" fill="#D33833"/>
<path d="M4.20438 13.7021C4.20438 13.7021 3.59531 4.72782 11.8646 4.47138L11.2877 3.50984L6.80054 5.01628L5.51846 6.49061L4.39669 8.63811L3.75562 11.1381L3.94792 12.8047" fill="#EF3D3A"/>
<path d="M6.51243 5.70002C5.03628 7.21041 4.12282 9.29579 4.12282 11.6028C4.12282 13.9094 5.03628 15.995 6.51243 17.5051C7.9893 19.0152 10.0246 19.947 12.2748 19.947C14.525 19.947 16.5605 19.0152 18.0372 17.5051C19.5133 15.995 20.4269 13.9094 20.4269 11.6028C20.4269 9.29579 19.5133 7.21041 18.0372 5.70002C16.5605 4.19021 14.525 3.25839 12.2748 3.2582C10.0246 3.25839 7.9893 4.19021 6.51243 5.70002ZM6.13878 17.8704C4.56997 16.266 3.6001 14.0487 3.6001 11.6028C3.6001 9.15656 4.56997 6.93945 6.13878 5.33493C7.70722 3.73012 9.87835 2.73541 12.2748 2.7357C14.6713 2.73541 16.8426 3.73012 18.4108 5.33493C19.9797 6.93945 20.9497 9.15675 20.9495 11.6028C20.9497 14.0487 19.9797 16.266 18.4108 17.8704C16.8426 19.4751 14.6713 20.4697 12.2748 20.4697C9.87835 20.4697 7.70722 19.4751 6.13878 17.8704Z" fill="#231F20"/>
<path fill-rule="evenodd" clip-rule="evenodd" d="M15.8164 11.6185L14.5343 11.8108L12.8035 12.0031L11.6817 12.0352L10.592 12.0031L9.7586 11.7467L9.02141 10.9454L8.44449 9.31083L8.31629 8.95823L7.54706 8.70189L7.09833 7.96467L6.77783 6.90698L7.13045 5.97746L7.96372 5.689L8.63679 6.00958L8.95737 6.71467L9.34199 6.65054L9.47014 6.49035L9.34199 5.75314L9.30987 4.82362L9.50218 3.5416L9.49467 2.80929L10.0791 1.87496L11.1048 1.13775L12.8997 0.368521L14.8868 0.656982L16.6176 1.90698L17.4189 3.189L17.9317 4.11852L18.0599 6.42621L17.6753 8.41343L16.9702 10.1762L16.2971 11.1057" fill="#F0D6B7"/>
<path fill-rule="evenodd" clip-rule="evenodd" d="M14.7267 17.1637L10.1433 17.356V18.1253L10.5279 20.8176L10.3356 21.042L7.13054 19.9522L6.90612 19.5676L6.58562 15.9458L5.84854 13.7663L5.68823 13.2535L8.25227 11.4907L9.05362 11.1702L9.75869 12.0356L10.3677 12.5805L11.0728 12.8048L11.3933 12.9009L11.7779 14.5676L12.0664 14.9201L12.8036 14.6637L12.2907 15.6574L15.0792 16.9714L14.7267 17.1637Z" fill="#335061"/>
<path fill-rule="evenodd" clip-rule="evenodd" d="M7.13071 5.97763L7.96398 5.68917L8.63706 6.00975L8.95763 6.71484L9.34225 6.65071L9.4384 6.26609L9.2461 5.52898L9.4384 3.76609L9.2781 2.80456L9.85502 2.13148L11.105 1.13792L10.7524 0.657151L8.98963 1.52254L8.25244 2.09946L7.83579 2.99686L7.19475 3.86225L7.00244 4.88792L7.13071 5.97763Z" fill="#6D6B6D"/>
<path fill-rule="evenodd" clip-rule="evenodd" d="M8.44463 2.96418C8.44463 2.96418 8.9254 1.77832 10.8485 1.2014C12.7716 0.624474 10.9446 0.784667 10.9446 0.784667L8.86137 1.58601L8.06002 2.38726L7.70752 3.02832L8.44463 2.96418Z" fill="#DCD9D8"/>
<path fill-rule="evenodd" clip-rule="evenodd" d="M7.48321 5.75321C7.48321 5.75321 6.81013 3.50956 9.37425 3.18908L9.2781 2.80446L7.51533 3.22119L7.00244 4.88783L7.13071 5.97754L7.48321 5.75321Z" fill="#DCD9D8"/>
<path fill-rule="evenodd" clip-rule="evenodd" d="M8.50879 8.73384L8.92845 8.32721C8.92845 8.32721 9.11787 8.34923 9.14987 8.57356C9.18187 8.79798 9.27802 10.8172 10.6562 11.907C10.7819 12.0064 9.63064 11.7466 9.63064 11.7466L8.60494 10.1441" fill="#F7E4CD"/>
<path fill-rule="evenodd" clip-rule="evenodd" d="M14.4064 8.125C14.4064 8.125 14.4811 7.15346 14.7427 7.22817C15.0044 7.30288 15.0044 7.56452 15.0044 7.56452C15.0044 7.56452 14.369 7.97558 14.4064 8.125Z" fill="#F7E4CD"/>
<path d="M17.0664 4.56768C17.0664 4.56768 16.5382 4.67922 16.4895 5.1446C16.4409 5.61008 17.0664 5.24076 17.1626 5.20874" fill="#F7E4CD"/>
<path d="M13.1881 4.59996C13.1881 4.59996 12.4829 4.69611 12.4829 5.14476C12.4829 5.59351 13.2843 5.56149 13.5086 5.36919" fill="#F7E4CD"/>
<path fill-rule="evenodd" clip-rule="evenodd" d="M8.82912 6.68239C8.82912 6.68239 7.61112 5.94518 7.48297 6.65037C7.35477 7.35547 7.06623 7.86835 7.67527 8.60547L7.25862 8.47729L6.874 7.48374L6.74585 6.5222L7.48297 5.75287L8.31631 5.81701L8.79708 6.20162L8.82912 6.68239Z" fill="#F7E4CD"/>
<path fill-rule="evenodd" clip-rule="evenodd" d="M9.40611 4.66309C9.40611 4.66309 9.95099 1.84261 12.7075 1.2977C14.9768 0.849144 16.1689 1.39385 16.6177 1.90664C16.6177 1.90664 14.5984 -0.497107 12.6753 0.240009C10.7523 0.977221 9.34207 2.32337 9.37407 3.18866C9.42865 4.66251 9.40611 4.66309 9.40611 4.66309Z" fill="#F7E4CD"/>
<path fill-rule="evenodd" clip-rule="evenodd" d="M16.8419 2.22746C16.8419 2.22746 15.9125 2.19544 15.8804 3.02881C15.8804 3.02881 15.8803 3.15698 15.9444 3.28516C15.9444 3.28516 16.6817 2.45179 17.1304 2.90054" fill="#F7E4CD"/>
<path fill-rule="evenodd" clip-rule="evenodd" d="M12.7724 3.37175C12.7724 3.37175 12.6124 2.09262 11.5219 2.83627C10.8167 3.31704 10.8809 3.99012 11.009 4.11829C11.1372 4.24656 11.1024 4.50473 11.2 4.32752C11.2975 4.15031 11.2654 3.57339 11.618 3.41319C11.9706 3.25291 12.5486 3.07387 12.7724 3.37175Z" fill="#F7E4CD"/>
<path fill-rule="evenodd" clip-rule="evenodd" d="M9.75894 12.0351L6.74617 13.3813C6.74617 13.3813 7.99617 18.3492 7.35509 19.8877L6.90636 19.7275L6.87432 17.8364L6.04109 14.2467L5.68848 13.2531L8.82944 11.1378L9.75894 12.0351Z" fill="#49728B"/>
<path fill-rule="evenodd" clip-rule="evenodd" d="M10.0687 14.7829L10.4961 15.3045V17.2275H9.98323C9.98323 17.2275 9.91919 15.8814 9.91919 15.7211C9.91919 15.5608 9.98323 14.9839 9.98323 14.9839" fill="#49728B"/>
<path fill-rule="evenodd" clip-rule="evenodd" d="M10.0793 17.5156L8.63696 17.5796L9.05369 17.8681L10.0793 18.0283" fill="#49728B"/>
<path fill-rule="evenodd" clip-rule="evenodd" d="M15.0154 17.1955L16.2012 17.1635L16.4897 20.1123L15.2717 20.2725L15.0154 17.1955Z" fill="#335061"/>
<path fill-rule="evenodd" clip-rule="evenodd" d="M15.3354 17.1953L17.1304 17.0992C17.1304 17.0992 17.8675 15.2402 17.8675 15.144C17.8675 15.0479 18.5085 12.4518 18.5085 12.4518L17.0662 10.9454L16.7778 10.689L16.0085 11.4582V14.439L15.3354 17.1953Z" fill="#335061"/>
<path fill-rule="evenodd" clip-rule="evenodd" d="M16.1371 16.9708L15.0154 17.1951L15.1756 18.0926C15.5922 18.2849 16.2974 17.772 16.2974 17.772" fill="#49728B"/>
<path fill-rule="evenodd" clip-rule="evenodd" d="M16.1687 11.3627L18.4123 13.0293L18.4764 12.2601L16.7776 10.6896L16.1687 11.3627Z" fill="#49728B"/>
<path fill-rule="evenodd" clip-rule="evenodd" d="M11.1913 23.5096L10.5277 20.8169L10.1976 18.8301L10.1431 17.3554L13.1464 17.1955L15.0149 17.1952L14.845 20.5609L15.1335 23.157L15.1015 23.6378L12.6656 23.8301L11.1913 23.5096Z" fill="white"/>
<path fill-rule="evenodd" clip-rule="evenodd" d="M14.5984 17.1633C14.5984 17.1633 14.4382 20.4967 14.919 22.8685C14.919 22.8685 13.9574 23.4775 12.5471 23.6377L15.2395 23.5415L15.5599 23.3492L15.1753 18.0929L15.0792 16.971" fill="#DCD9D8"/>
<path fill-rule="evenodd" clip-rule="evenodd" d="M16.544 19.8564L17.794 19.5039L20.1657 19.3757L20.5183 18.286L19.8773 16.3949L19.1402 16.2988L18.1145 16.6193L17.1304 17.0997L16.608 17.0039L16.2009 17.1638" fill="white"/>
<path fill-rule="evenodd" clip-rule="evenodd" d="M16.5217 19.2146C16.5217 19.2146 17.355 18.8301 17.4833 18.8621L17.1308 17.0992L17.5474 16.939C17.5474 16.939 17.8359 18.6057 17.8359 18.798C17.8359 18.798 19.6307 18.8941 19.791 18.8941C19.791 18.8941 20.1756 18.1569 20.0794 17.3877L20.432 18.4133L20.464 18.9903L19.9512 19.7595L19.3743 19.8877L18.4128 19.8557L18.0923 19.439L16.9705 19.5992L16.6179 19.7275" fill="#DCD9D8"/>
<path d="M15.2619 16.9395L14.5568 15.1445L13.8196 14.0868C13.8196 14.0868 13.9798 13.6381 14.2042 13.6381C14.4286 13.6381 14.9414 13.6381 14.9414 13.6381L15.6465 13.8945L15.5825 15.0804L15.2619 16.9395Z" fill="white"/>
<path fill-rule="evenodd" clip-rule="evenodd" d="M15.4 16.3298C15.4 16.3298 14.5025 14.5991 14.5025 14.3427C14.5025 14.3427 14.6627 13.9581 14.8871 14.0542C15.1115 14.1504 15.5923 14.4067 15.5923 14.4067V13.7978L14.5025 13.5734L13.7654 13.6695L15.0154 16.6183L15.2717 16.6504" fill="#DCD9D8"/>
<path d="M11.4801 12.0991L10.5922 12.0026L9.75879 11.7461V12.0346L10.166 12.4836L11.448 13.0605" fill="white"/>
<path fill-rule="evenodd" clip-rule="evenodd" d="M10.0473 12.1956C10.0473 12.1956 11.041 12.6123 11.3615 12.5162L11.3934 12.9004L10.4961 12.7085L9.95117 12.3239L10.0473 12.1956Z" fill="#DCD9D8"/>
<path fill-rule="evenodd" clip-rule="evenodd" d="M16.5406 13.7471C15.9967 13.7311 15.5054 13.6665 15.0752 13.5451C15.1044 13.3688 15.0497 13.1957 15.0936 13.0687C15.2135 12.9824 15.4145 12.9837 15.5957 12.9634C15.439 12.8864 15.2188 12.8559 15.038 12.9004C15.0337 12.778 14.9788 12.7022 14.9456 12.6064C15.2513 12.4973 15.9732 11.7818 16.3792 12.0187C16.5727 12.1314 16.6549 12.7751 16.6699 13.088C16.6824 13.3476 16.6463 13.6096 16.5406 13.7471Z" fill="#D33833"/>
<path fill-rule="evenodd" clip-rule="evenodd" d="M13.94 12.8579C13.9386 12.8991 13.9369 12.9405 13.9352 12.9821C13.7654 13.0936 13.4913 13.0922 13.3049 13.186C13.5797 13.198 13.7959 13.2642 13.983 13.3574C13.9789 13.4611 13.9749 13.5647 13.9709 13.6683C13.6597 13.8814 13.3753 14.1987 13.0089 14.3985C12.8356 14.493 12.2275 14.7362 12.0432 14.6932C11.9389 14.669 11.9295 14.5395 11.8878 14.4175C11.7989 14.1563 11.5944 13.7404 11.5766 13.3472C11.5539 12.8504 11.5037 12.0179 12.039 12.1202C12.4709 12.2026 12.9732 12.4016 13.3075 12.5843C13.5119 12.696 13.63 12.8341 13.94 12.8579Z" fill="#D33833"/>
<path fill-rule="evenodd" clip-rule="evenodd" d="M14.2492 13.4511C14.2017 13.1806 14.1468 13.1033 14.168 12.8673C14.8897 12.3861 15.0252 13.6937 14.2492 13.4511Z" fill="#D33833"/>
<path fill-rule="evenodd" clip-rule="evenodd" d="M15.294 13.6699C15.294 13.6699 15.0695 13.3493 15.2298 13.2532C15.3901 13.157 15.5504 13.2533 15.6466 13.093C15.7427 12.9327 15.6466 12.8366 15.6786 12.6442C15.7106 12.4519 15.871 12.4198 16.0312 12.3878C16.1914 12.3558 16.6402 12.2917 16.7043 12.4519L16.5119 11.875L16.1273 11.7468L14.9093 12.4519L14.8452 12.8045V13.5096" fill="#EF3D3A"/>
<path fill-rule="evenodd" clip-rule="evenodd" d="M11.929 14.7275C11.8905 14.2273 11.8497 13.7278 11.8044 13.2281C11.7365 12.482 11.9836 12.6121 12.6304 12.6121C12.7292 12.6121 13.2387 12.7299 13.2751 12.8045C13.4499 13.1615 12.9828 13.0821 13.4765 13.3514C13.8932 13.5786 14.6293 13.2134 14.461 12.7083C14.3667 12.596 13.97 12.6733 13.8278 12.5995C13.5774 12.4697 13.327 12.3399 13.0766 12.2101C12.758 12.0448 12.0217 11.8039 11.6821 12.0348C10.8215 12.6201 11.7364 14.0825 12.0434 14.6931" fill="#EF3D3A"/>
<path fill-rule="evenodd" clip-rule="evenodd" d="M12.7722 3.37236C11.8987 3.16889 11.4646 3.73793 11.1998 4.32812C10.9633 4.27082 11.0574 3.94928 11.1171 3.78543C11.2735 3.35543 11.9037 2.78303 12.4185 2.86062C12.6401 2.89399 12.9399 3.09659 12.7722 3.37236Z" fill="#231F20"/>
<path fill-rule="evenodd" clip-rule="evenodd" d="M17.0285 4.36609C17.0422 4.36667 17.0562 4.36715 17.0699 4.36773C17.2673 4.77782 17.4382 5.21225 17.6872 5.57426C17.5204 5.96282 16.4239 6.30667 16.4409 5.60898C16.678 5.50532 17.0873 5.58782 17.2975 5.45542C17.176 5.12186 17.0006 4.83792 17.0285 4.36609Z" fill="#231F20"/>
<path fill-rule="evenodd" clip-rule="evenodd" d="M13.2191 4.37736C13.4064 4.72073 13.4673 5.08149 13.7336 5.34101C13.8535 5.45784 14.0866 5.60024 13.9711 5.92515C13.9441 6.00178 13.7466 6.17265 13.6327 6.20621C13.2165 6.32909 12.2465 6.23159 12.575 5.71265C12.9192 5.72871 13.3819 5.93621 13.6392 5.6863C13.4416 5.37044 13.0894 4.74553 13.2191 4.37736Z" fill="#231F20"/>
<path fill-rule="evenodd" clip-rule="evenodd" d="M16.872 7.86739C16.2452 8.26999 15.5464 8.70778 14.5195 8.60624C14.3 8.41547 14.2164 7.99095 14.4296 7.71056C14.5405 7.90133 14.4708 8.2522 14.78 8.30499C15.3627 8.4047 16.0409 7.94854 16.46 7.78912C16.7199 7.35095 16.4376 7.18979 16.2035 6.90778C15.7242 6.32999 15.0812 5.61383 15.1046 4.74883C15.2983 4.60835 15.315 4.96326 15.3428 5.02787C15.5931 5.61364 16.223 6.36278 16.6827 6.86412C16.7956 6.98758 16.9815 7.10604 17.0022 7.18768C17.0618 7.42508 16.8471 7.70951 16.872 7.86739Z" fill="#231F20"/>
<path fill-rule="evenodd" clip-rule="evenodd" d="M8.60966 7.44357C8.41322 7.33145 8.36646 6.83761 8.13584 6.82357C7.80625 6.80357 7.86635 7.46424 7.86766 7.85059C7.6408 7.64462 7.6009 7.01049 7.76757 6.68482C7.57762 6.59155 7.49281 6.7877 7.38745 6.85684C7.52286 5.87318 8.82638 6.40059 8.60966 7.44357Z" fill="#231F20"/>
<path fill-rule="evenodd" clip-rule="evenodd" d="M17.2711 8.2773C16.9794 8.83259 16.5667 9.44413 15.7106 9.46191C15.6932 9.28259 15.6798 9.0097 15.7116 8.90172C16.366 8.83884 16.77 8.50576 17.2711 8.2773Z" fill="#231F20"/>
<path fill-rule="evenodd" clip-rule="evenodd" d="M13.1697 8.63612C13.7157 8.92323 14.7191 8.9541 15.4613 8.93237C15.5011 9.09496 15.5001 9.29583 15.5016 9.4941C14.5477 9.54169 13.4198 9.30564 13.1697 8.63612Z" fill="#231F20"/>
<path fill-rule="evenodd" clip-rule="evenodd" d="M13.0661 9.17237C13.4436 10.1203 14.7413 10.0112 15.8357 9.98506C15.7875 10.1081 15.6831 10.2535 15.5533 10.3061C15.2026 10.4488 14.2354 10.5571 13.7485 10.2985C13.4398 10.1344 13.2414 9.76352 13.0723 9.54611C12.9906 9.44111 12.5838 9.17294 13.0661 9.17237Z" fill="#231F20"/>
<path fill-rule="evenodd" clip-rule="evenodd" d="M16.8268 14.4017C16.3837 15.1606 15.9598 15.94 15.4341 16.6094C15.6545 15.9614 15.7488 14.8768 15.7821 14.05C16.2431 13.8343 16.6379 14.0986 16.8268 14.4017Z" fill="#81B0C4"/>
<path fill-rule="evenodd" clip-rule="evenodd" d="M19.2106 17.1288C18.7146 17.2281 18.366 17.7102 17.8821 17.6792C18.148 17.3043 18.6141 17.1463 19.2106 17.1288Z" fill="#231F20"/>
<path fill-rule="evenodd" clip-rule="evenodd" d="M19.4297 17.9055C19.0254 17.9482 18.5505 18.0137 18.1404 17.9799C18.3345 17.6834 19.0825 17.7857 19.4297 17.9055Z" fill="#231F20"/>
<path fill-rule="evenodd" clip-rule="evenodd" d="M19.5698 18.5744C19.1154 18.5843 18.5506 18.5752 18.1187 18.539C18.3741 18.2645 19.2751 18.4371 19.5698 18.5744Z" fill="#231F20"/>
<path fill-rule="evenodd" clip-rule="evenodd" d="M15.9717 20.4056C16.0368 20.9763 16.2631 21.5545 16.2347 22.1795C15.9835 22.2642 15.8392 22.3383 15.5025 22.3379C15.4788 21.8067 15.4077 20.9947 15.429 20.4884C15.5945 20.4993 15.8387 20.3701 15.9717 20.4056Z" fill="#DCD9D8"/>
<path fill-rule="evenodd" clip-rule="evenodd" d="M15.2391 11.9953C15.0109 12.1442 14.8166 12.3302 14.5974 12.4892C14.1115 12.5133 13.8463 12.4556 13.4893 12.1765C13.4951 12.1541 13.531 12.1641 13.5323 12.1366C14.0525 12.3684 14.7138 12.0422 15.2391 11.9953Z" fill="#F0D6B7"/>
<path fill-rule="evenodd" clip-rule="evenodd" d="M12.5078 15.5409C12.6507 14.9216 13.2108 14.6008 13.7193 14.2598C14.2442 14.9259 14.5634 15.7826 14.915 16.6094C14.0844 16.359 13.2357 15.9528 12.5078 15.5409Z" fill="#81B0C4"/>
<path fill-rule="evenodd" clip-rule="evenodd" d="M15.4292 20.4888C15.4079 20.9952 15.479 21.8072 15.5027 22.3384C15.8394 22.3388 15.9837 22.2647 16.2349 22.18C16.2633 21.555 16.037 20.9767 15.9719 20.406C15.8389 20.3706 15.5947 20.4998 15.4292 20.4888ZM10.1874 17.6091C10.4094 19.6498 10.7309 21.3653 11.3206 23.1723C12.6294 23.5697 14.2071 23.6043 15.364 23.2457C15.1516 22.2258 15.2444 20.9841 15.1202 19.8958C15.0267 19.0777 15.0744 18.2546 14.9461 17.42C13.5444 17.1284 11.5631 17.3518 10.1874 17.6091ZM15.2775 17.4328C15.2657 18.3092 15.3168 19.1737 15.3837 20.0513C15.7202 20.0007 15.9486 19.967 16.2613 19.8985C16.1597 19.0537 16.1722 18.1031 15.9654 17.3558C15.7264 17.358 15.5159 17.353 15.2775 17.4328ZM16.9847 17.2915C16.825 17.2549 16.6391 17.2901 16.4865 17.2931C16.5582 18.0075 16.7322 18.7958 16.7935 19.5458C17.0336 19.5532 17.1618 19.44 17.3594 19.4019C17.3699 18.7436 17.3019 17.8367 16.9847 17.2915ZM19.5697 19.6533C20.0702 19.5318 20.3849 18.9188 20.2449 18.2893C20.151 17.8662 19.9837 17.0696 19.8046 16.7989C19.6723 16.5987 19.3136 16.3366 19.0271 16.5201C18.5612 16.8185 17.7403 16.9051 17.4005 17.2662C17.5709 17.8336 17.6238 18.6128 17.6941 19.3316C18.2762 19.3679 18.9924 19.1714 19.4766 19.3799C19.1386 19.4894 18.7 19.4903 18.408 19.6498C18.6467 19.7651 19.2054 19.7418 19.5697 19.6533ZM14.9156 16.6097C14.5641 15.783 14.2448 14.9263 13.7199 14.2601C13.2114 14.6011 12.6514 14.9219 12.5084 15.5412C13.2364 15.9531 14.085 16.3593 14.9156 16.6097ZM15.7821 14.0496C15.7489 14.8764 15.6545 15.961 15.4342 16.6089C15.9598 15.9396 16.3838 15.1602 16.8269 14.4013C16.638 14.0982 16.2432 13.8338 15.7821 14.0496ZM14.7998 13.7006C14.6007 13.6791 14.4317 13.9295 14.1727 13.8212C14.1134 13.8868 14.0594 13.9579 13.999 14.0219C14.5709 14.7111 14.8308 15.689 15.2725 16.499C15.5095 15.7209 15.4822 14.8685 15.5344 14.0193C15.2088 14.04 15.0281 13.7248 14.7998 13.7006ZM14.1682 12.8669C14.1469 13.103 14.2019 13.1802 14.2494 13.4508C15.0253 13.6933 14.8898 12.3858 14.1682 12.8669ZM13.3077 12.5844C12.9734 12.4017 12.4711 12.2028 12.0392 12.1204C11.5039 12.018 11.554 12.8506 11.5768 13.3473C11.5946 13.7406 11.7991 14.1564 11.8879 14.4177C11.9296 14.5397 11.939 14.6691 12.0433 14.6933C12.2277 14.7363 12.8358 14.4931 13.009 14.3986C13.3755 14.1988 13.6598 13.8815 13.9711 13.6684C13.9751 13.5648 13.9791 13.4612 13.9832 13.3576C13.7961 13.2643 13.5798 13.1982 13.3051 13.1861C13.4915 13.0924 13.7656 13.0937 13.9354 12.9822C13.937 12.9407 13.9388 12.8992 13.9402 12.8581C13.6302 12.8342 13.512 12.6961 13.3077 12.5844ZM10.1141 12.0043C9.8366 12.286 10.8924 12.6701 11.2286 12.6908C11.2267 12.5125 11.3302 12.3444 11.3093 12.2165C10.9101 12.1464 10.3854 12.1927 10.1141 12.0043ZM13.5325 12.1366C13.5312 12.1641 13.4953 12.1541 13.4894 12.1765C13.8465 12.4556 14.1117 12.5133 14.5976 12.4892C14.8168 12.3302 15.0111 12.1442 15.2393 11.9953C14.714 12.0422 14.0527 12.3684 13.5325 12.1366ZM16.6702 13.0881C16.6552 12.7751 16.573 12.1314 16.3795 12.0187C15.9735 11.7817 15.2517 12.4973 14.9459 12.6064C14.9792 12.7022 15.0341 12.7781 15.0383 12.9005C15.2192 12.8559 15.4394 12.8864 15.5961 12.9634C15.4148 12.9837 15.2139 12.9824 15.094 13.0687C15.05 13.1958 15.1047 13.3688 15.0755 13.5452C15.5057 13.6665 15.997 13.7311 16.5409 13.7471C16.6467 13.6096 16.6827 13.3477 16.6702 13.0881ZM9.64693 12.2768C9.55978 12.2147 8.97028 11.4477 8.88952 11.4795C7.82282 11.9002 6.82541 12.6276 5.93411 13.3156C6.78391 15.139 7.12695 17.3731 7.18756 19.5263C8.16104 19.9816 9.0161 20.638 10.3371 20.7065C10.1842 19.625 10.0447 18.6601 9.95792 17.6418C9.626 17.5019 9.14981 17.6482 8.8392 17.5984C8.83656 17.2241 9.31358 17.4345 9.35331 17.1828C9.38325 16.9924 9.09085 16.978 9.18606 16.6782C9.42889 16.7664 9.55641 16.9614 9.81538 17.0346C10.052 16.5169 9.81207 15.6009 9.84618 15.1683C9.85264 15.087 9.88674 14.7182 10.0687 14.7829C10.2298 14.8402 10.0595 15.7638 10.0772 16.1734C10.0933 16.5507 10.0316 16.9157 10.1844 17.1526C11.4609 16.9788 12.758 16.8665 14.1392 16.8286C13.8353 16.6983 13.4744 16.5749 13.0786 16.3518C12.8641 16.2309 12.1878 15.9792 12.1259 15.7754C12.0271 15.4507 12.3851 15.2778 12.4463 14.9994C11.8019 15.3508 11.6762 14.6626 11.5238 14.175C11.3857 13.7333 11.3071 13.4034 11.2732 13.1487C10.7181 12.8841 10.1247 12.6161 9.64693 12.2768ZM16.1065 11.5723C16.9952 11.1413 17.1554 13.183 16.807 13.8407C16.8609 14.0368 17.0461 14.1119 17.1217 14.2883C16.6257 15.1767 16.0748 16.006 15.5688 16.884C15.9452 16.6497 16.4829 16.8421 16.9259 16.6667C17.0878 16.6027 17.205 16.232 17.3276 15.9355C17.6648 15.1196 18.0189 14.091 18.1764 13.3125C18.2119 13.1351 18.3089 12.7485 18.2871 12.5907C18.2484 12.308 17.8648 12.0983 17.6697 11.9235C17.3103 11.6007 17.084 11.3165 16.7091 11.0146C16.557 11.239 16.2308 11.3898 16.1065 11.5723ZM7.61436 3.69075C7.19087 4.15671 7.27951 5.02979 7.33078 5.65095C8.09625 5.16941 9.11225 5.68902 9.10268 6.50806C9.46814 6.49835 9.23921 6.05162 9.1731 5.76383C8.95706 4.82383 9.53706 3.80258 9.1994 2.94296C8.54378 2.99268 8.00517 3.26046 7.61436 3.69075ZM10.6445 0.98633C9.6858 1.25806 8.45709 1.95469 8.06313 2.81594C8.36819 2.77162 8.57996 2.61777 8.88089 2.59873C8.99462 2.59133 9.14362 2.64643 9.27433 2.61393C9.53481 2.54931 9.75465 1.96527 9.95116 1.74796C10.1427 1.53575 10.373 1.44508 10.5305 1.25162C10.6318 1.20277 10.7814 1.20614 10.7872 1.05412C10.7433 1.0072 10.6971 0.971426 10.6445 0.98633ZM15.6352 1.24191C14.6401 0.680464 12.9558 0.258156 11.8973 0.785849C11.0431 1.21171 9.88862 1.91633 9.49499 2.80921C9.86271 3.67085 9.38607 4.46037 9.35565 5.33518C9.33949 5.80066 9.57481 6.207 9.59284 6.71373C9.46701 6.92133 9.08258 6.94691 8.81647 6.93268C8.72689 6.48441 8.57007 5.98056 8.10847 5.92999C7.45529 5.85854 6.97772 6.39912 6.94804 6.96402C6.91293 7.62835 7.45829 8.72941 8.23128 8.65296C8.52989 8.62345 8.60324 8.32412 8.92859 8.3272C9.10493 8.67902 8.65658 8.7895 8.61046 9.04114C8.59844 9.10614 8.64764 9.36018 8.67625 9.47931C8.81666 10.0594 9.12965 10.8102 9.43772 11.2518C9.82872 11.812 10.5969 11.8964 11.4233 11.9513C11.5709 11.6333 12.1147 11.6595 12.469 11.7427C12.0444 11.5745 11.6496 11.1668 11.3225 10.8059C10.9467 10.3919 10.566 9.94777 10.5468 9.40662C11.2569 10.3918 11.8436 11.2522 13.1349 11.6856C14.112 12.0133 15.2532 11.5354 16.004 11.0082C16.3155 10.789 16.5015 10.4413 16.7229 10.1231C17.5515 8.93123 17.9381 7.23008 17.8531 5.58123C17.8181 4.90123 17.8196 4.22354 17.5915 3.76604C17.353 3.28768 16.5465 2.8597 16.0744 3.29239C15.9869 2.8272 16.4669 2.5395 17.0309 2.70691C16.6288 2.18797 16.2068 1.56441 15.6352 1.24191ZM17.4892 16.5849C18.2668 16.1983 19.7196 15.5444 20.2071 16.5863C20.387 16.9704 20.5981 17.6196 20.6913 18.0161C20.8229 18.5754 20.5486 19.751 19.9737 19.9386C19.4659 20.1044 18.8734 20.0943 18.2618 19.9714C18.1897 19.9115 18.1095 19.8071 18.0535 19.6983C17.6168 19.6813 17.2078 19.7217 16.8628 19.9012C16.8955 20.2242 16.677 20.2761 16.4722 20.3426C16.3204 20.9446 16.776 21.7308 16.6669 22.2797C16.5892 22.6708 16.108 22.7312 15.7544 22.8044C15.7428 23.0217 15.7698 23.2031 15.794 23.387C15.7131 23.685 15.3504 23.8546 15.0068 23.8961C13.8761 24.0321 12.1593 24.0932 11.0718 23.7021C10.7683 22.9577 10.5292 22.0523 10.2764 21.2023C9.21574 21.3156 8.35786 20.7446 7.54912 20.3706C7.26911 20.2407 6.88175 20.1692 6.77715 19.9463C6.67574 19.7306 6.71724 19.317 6.69207 18.9263C6.62803 17.9285 6.5732 16.9661 6.30971 15.9445C6.1914 15.4861 5.98519 15.0815 5.84133 14.6398C5.70837 14.2304 5.47606 13.7244 5.41548 13.3161C5.32564 12.711 5.89542 12.6774 6.25975 12.4152C6.82297 12.0097 7.26505 11.7855 7.87502 11.4195C8.05569 11.3111 8.6005 11.0368 8.66248 10.9105C8.78567 10.66 8.45101 10.3068 8.36154 10.1105C8.22001 9.79998 8.14621 9.53623 8.12593 9.22989C7.61424 9.14902 7.22636 8.8445 6.99206 8.50114C6.60449 7.93287 6.3357 6.88152 6.67103 6.08181C6.69733 6.01883 6.82849 5.89498 6.84783 5.79825C6.88599 5.60777 6.77601 5.3545 6.76918 5.15191C6.73395 4.11248 6.94504 3.21691 7.64478 2.90344C7.92885 1.77181 8.94556 1.39556 9.90346 0.833157C10.2615 0.622965 10.6562 0.488638 11.0639 0.338636C12.5262 -0.199535 14.7698 -0.0981884 15.9835 0.819695C16.4981 1.20893 17.3207 2.03075 17.6149 2.62575C18.392 4.19662 18.3369 6.82191 17.7933 8.73277C17.7202 8.98931 17.6143 9.36643 17.4663 9.6746C17.3631 9.88979 17.0424 10.3204 17.0814 10.5104C17.1215 10.7068 17.8125 11.2315 17.9607 11.3744C18.2275 11.6318 18.7344 11.9734 18.7755 12.2983C18.8196 12.6439 18.6232 13.1168 18.5237 13.4504C18.191 14.5635 17.8664 15.5925 17.4892 16.5849Z" fill="#231F20"/>
<path fill-rule="evenodd" clip-rule="evenodd" d="M12.3011 8.87942C12.3433 8.82326 12.5752 8.73797 12.8997 8.89422C12.8997 8.89422 12.5151 8.95836 12.5471 9.59961L12.3868 9.56749C12.3868 9.56749 12.2212 8.98605 12.3011 8.87942Z" fill="#F7E4CD"/>
<path fill-rule="evenodd" clip-rule="evenodd" d="M15.1114 14.3912C15.1114 14.4885 15.0324 14.5674 14.935 14.5674C14.8377 14.5674 14.7588 14.4885 14.7588 14.3912C14.7588 14.2938 14.8377 14.2148 14.935 14.2148C15.0324 14.2148 15.1114 14.2938 15.1114 14.3912Z" fill="#1D1919"/>
<path fill-rule="evenodd" clip-rule="evenodd" d="M15.2874 15.2085C15.2874 15.3059 15.2085 15.3848 15.1111 15.3848C15.0138 15.3848 14.9348 15.3059 14.9348 15.2085C14.9348 15.1112 15.0138 15.0322 15.1111 15.0322C15.2085 15.0322 15.2874 15.1112 15.2874 15.2085Z" fill="#1D1919"/>
</g>
<defs>
<clipPath id="clip0_1535_3118">
<rect width="17.3846" height="24" fill="white" transform="translate(3.6001)"/>
</clipPath>
</defs>
</svg>
