<svg width="24" height="24" viewBox="0 0 24 24" fill="none" xmlns="http://www.w3.org/2000/svg">
<g clip-path="url(#clip0_1535_2784)">
<path d="M4.288 12.0796L3.84 11.6316C2.4 10.1916 1.984 8.17562 2.496 6.35162C1.056 6.03162 0 4.75163 0 3.21562C0 1.45562 1.44 0.015625 3.2 0.015625C4.8 0.015625 6.112 1.16763 6.368 2.70363C8.096 2.28763 9.984 2.76762 11.328 4.11162L11.52 4.30363L9.152 6.67162L8.96 6.47963C8.192 5.71163 6.944 5.71163 6.176 6.47963C5.408 7.24763 5.408 8.49563 6.176 9.26363L11.488 14.5756L9.12 16.9436L6.624 14.4476L4.288 12.0796Z" fill="#7AC143"/>
<path d="M6.94434 9.45585L12.2563 4.14385C13.6643 2.73585 15.7123 2.28785 17.5043 2.79985C17.7283 1.23185 19.0723 0.0478516 20.6723 0.0478516C22.4323 0.0478516 23.8723 1.48785 23.8723 3.24785C23.8723 4.87985 22.6563 6.22385 21.0883 6.41585C21.6003 8.20785 21.1523 10.2239 19.7443 11.6319L19.5523 11.8239L17.2483 9.45585L17.4403 9.26385C18.2083 8.49585 18.2083 7.24785 17.4403 6.47985C16.6723 5.71185 15.4243 5.71185 14.6563 6.47985L9.34434 11.7919L6.94434 9.45585Z" fill="#F9A541"/>
<path d="M17.6002 21.392C15.7762 21.936 13.7282 21.52 12.2882 20.08L12.0962 19.888L14.4642 17.52L14.6562 17.712C15.4242 18.48 16.6722 18.48 17.4402 17.712C18.2082 16.944 18.2082 15.696 17.4402 14.928L12.1282 9.61605L14.4962 7.24805L19.8402 12.592C21.1842 13.936 21.6642 15.856 21.2482 17.616C22.8162 17.84 24.0002 19.184 24.0002 20.784C24.0002 22.544 22.5602 23.984 20.8002 23.984C19.2002 23.952 17.8882 22.832 17.6002 21.392Z" fill="#F44321"/>
<path d="M16.672 14.7362L11.36 20.0482C9.984 21.4242 8.064 21.8722 6.336 21.4562C6.016 22.8962 4.736 23.9522 3.2 23.9522C1.44 23.9522 0 22.5122 0 20.7522C0 19.2482 1.056 17.9682 2.464 17.6482C2.016 15.8562 2.464 13.9362 3.84 12.5602L4.032 12.3682L6.4 14.7362L6.208 14.9282C5.44 15.6962 5.44 16.9442 6.208 17.7122C6.976 18.4802 8.224 18.4802 8.992 17.7122L14.304 12.4002L16.672 14.7362Z" fill="#5091CD"/>
</g>
<defs>
<clipPath id="clip0_1535_2784">
<rect width="24" height="24" fill="white"/>
</clipPath>
</defs>
</svg>
