<svg width="24" height="24" viewBox="0 0 24 24" fill="none" xmlns="http://www.w3.org/2000/svg">
<g clip-path="url(#clip0_1535_2849)">
<path d="M2.63483 12.5507C2.63483 13.2985 2.57525 13.5421 2.42206 13.7216C2.25156 13.8757 2.03022 13.961 1.80078 13.9608L1.86036 14.3881C2.21606 14.393 2.56121 14.2668 2.83057 14.0335C2.97551 13.856 3.08336 13.651 3.1477 13.4308C3.21204 13.2105 3.23154 12.9796 3.20504 12.7516V9.92285H2.63483V12.5337V12.5507Z" fill="#D6D6D6"/>
<path d="M6.88762 12.2138C6.88762 12.5343 6.88762 12.8206 6.91314 13.0684H6.40676L6.37272 12.5599C6.2668 12.7398 6.11533 12.8884 5.9337 12.9904C5.75208 13.0925 5.54677 13.1445 5.33867 13.141C4.84505 13.141 4.25781 12.8718 4.25781 11.7737V9.9491H4.82803V11.6583C4.82803 12.2522 5.01101 12.6496 5.52591 12.6496C5.63184 12.6508 5.73693 12.6307 5.83502 12.5905C5.93312 12.5503 6.02223 12.4909 6.09714 12.4156C6.17205 12.3404 6.23125 12.2509 6.27127 12.1524C6.31128 12.0539 6.3313 11.9484 6.33017 11.842V9.92773H6.90038V12.1967L6.88762 12.2138Z" fill="#D6D6D6"/>
<path d="M7.9684 10.9653C7.9684 10.5679 7.9684 10.2431 7.94287 9.9483H8.45351L8.47904 10.4824C8.59281 10.2894 8.7566 10.1311 8.95294 10.0242C9.14928 9.91738 9.37082 9.86603 9.59394 9.87565C10.3514 9.87565 10.9216 10.5123 10.9216 11.4609C10.9216 12.5805 10.2365 13.136 9.49607 13.136C9.30656 13.1444 9.11807 13.1037 8.94885 13.0176C8.77962 12.9315 8.63539 12.803 8.53011 12.6446V14.3538H7.9684V10.9781V10.9653ZM8.53011 11.7985C8.53165 11.876 8.5402 11.9533 8.55564 12.0292C8.60392 12.219 8.71383 12.3871 8.86797 12.5071C9.02211 12.627 9.21169 12.692 9.40671 12.6916C10.0067 12.6916 10.3599 12.2002 10.3599 11.4866C10.3599 10.8627 10.028 10.3286 9.42799 10.3286C9.19054 10.3481 8.96834 10.4539 8.80305 10.6262C8.63775 10.7985 8.54071 11.0254 8.53011 11.2644V11.7985Z" fill="#D6D6D6"/>
<path d="M11.9374 9.94507L12.6225 11.7867C12.6949 11.9918 12.7715 12.2397 12.8225 12.4234C12.8821 12.2354 12.9459 11.9961 13.0225 11.7739L13.6438 9.94507H14.2438L13.3927 12.167C12.9672 13.2353 12.7076 13.7865 12.3161 14.1198C12.1189 14.3006 11.8785 14.4272 11.6183 14.4873L11.4778 14.0087C11.6598 13.9486 11.8288 13.8544 11.9757 13.7309C12.1833 13.5611 12.348 13.3444 12.4566 13.0985C12.4798 13.056 12.4956 13.0097 12.5034 12.9618C12.4985 12.9102 12.4856 12.8598 12.4651 12.8123L11.3076 9.93652H11.9289L11.9374 9.94507Z" fill="#D6D6D6"/>
<path d="M15.7573 9.05029V9.94762H16.5743V10.3749H15.7573V12.0585C15.7573 12.4431 15.8679 12.6653 16.1828 12.6653C16.2946 12.6671 16.4062 12.6542 16.5147 12.6268L16.5402 13.0541C16.3776 13.1107 16.2059 13.1368 16.0339 13.131C15.9199 13.1382 15.8058 13.1205 15.6993 13.0792C15.5928 13.0379 15.4964 12.9739 15.4168 12.8917C15.2435 12.6589 15.1644 12.3688 15.1956 12.0799V10.3707H14.7104V9.94335H15.2041V9.18276L15.7573 9.05029Z" fill="#D6D6D6"/>
<path d="M17.6247 11.6074C17.6131 11.7523 17.633 11.898 17.6831 12.0344C17.7331 12.1709 17.812 12.2948 17.9144 12.3976C18.0167 12.5004 18.1401 12.5796 18.276 12.6298C18.4118 12.6801 18.5569 12.7001 18.7013 12.6885C18.9932 12.695 19.2832 12.6397 19.5523 12.5261L19.6502 12.9534C19.3199 13.09 18.9647 13.1555 18.6076 13.1457C18.3995 13.16 18.1907 13.1289 17.9956 13.0546C17.8005 12.9803 17.6237 12.8644 17.4774 12.7151C17.3311 12.5657 17.2187 12.3863 17.1479 12.1892C17.077 11.9921 17.0495 11.782 17.0672 11.5732C17.0672 10.6332 17.6247 9.88965 18.5353 9.88965C19.5566 9.88965 19.8119 10.787 19.8119 11.3596C19.8174 11.4478 19.8174 11.5363 19.8119 11.6245H17.6119L17.6247 11.6074ZM19.2928 11.1801C19.3092 11.0659 19.301 10.9494 19.2688 10.8386C19.2367 10.7278 19.1812 10.6252 19.1062 10.5377C19.0312 10.4503 18.9384 10.38 18.834 10.3316C18.7297 10.2832 18.6162 10.2578 18.5013 10.2571C18.2675 10.2741 18.0484 10.3782 17.887 10.5489C17.7257 10.7197 17.6336 10.9448 17.6289 11.1801H19.2928Z" fill="#D6D6D6"/>
<path d="M20.6769 10.9164C20.6769 10.549 20.6769 10.2328 20.6514 9.9422H21.162V10.5532H21.1875C21.2411 10.3647 21.3519 10.1975 21.5044 10.075C21.6569 9.95246 21.8436 9.88067 22.0386 9.86956C22.0923 9.86249 22.1466 9.86249 22.2003 9.86956V10.4037C22.1353 10.3961 22.0696 10.3961 22.0046 10.4037C21.8114 10.4112 21.6276 10.4891 21.4874 10.6228C21.3472 10.7564 21.2603 10.9368 21.2429 11.1301C21.2269 11.2175 21.2184 11.3062 21.2173 11.395V13.0572H20.6556V10.9207L20.6769 10.9164Z" fill="#D6D6D6"/>
<path d="M20.4274 1.36391C20.4448 1.65097 20.3768 1.93676 20.232 2.18487C20.0871 2.43298 19.872 2.63217 19.614 2.75708C19.356 2.88199 19.0669 2.92696 18.7833 2.88626C18.4998 2.84555 18.2348 2.72102 18.022 2.52853C17.8092 2.33604 17.6582 2.0843 17.5884 1.80537C17.5186 1.52645 17.5331 1.23297 17.63 0.962321C17.7268 0.691676 17.9017 0.456111 18.1324 0.285639C18.3631 0.115168 18.6391 0.0175052 18.9252 0.00509208C19.1128 -0.00527423 19.3006 0.0217027 19.4778 0.0844717C19.655 0.14724 19.8181 0.244563 19.9577 0.370842C20.0973 0.497122 20.2106 0.649867 20.2912 0.820293C20.3718 0.99072 20.4181 1.17547 20.4274 1.36391Z" fill="#D6D6D6"/>
<path d="M12.0133 18.0976C8.18357 18.0976 4.81758 16.7174 3.07715 14.6792C3.75244 16.5128 4.97093 18.0947 6.56861 19.2119C8.16627 20.3291 10.0665 20.928 12.0133 20.928C13.9603 20.928 15.8604 20.3291 17.4581 19.2119C19.0558 18.0947 20.2743 16.5128 20.9496 14.6792C19.2134 16.7174 15.8602 18.0976 12.0133 18.0976Z" fill="#D6D6D6"/>
<path d="M12.0129 4.84261C15.8427 4.84261 19.2087 6.22278 20.9491 8.26099C20.2738 6.42739 19.0553 4.84552 17.4576 3.72832C15.8599 2.61112 13.9598 2.01221 12.0129 2.01221C10.066 2.01221 8.16578 2.61112 6.56812 3.72832C4.97044 4.84552 3.75195 6.42739 3.07666 8.26099C4.81709 6.21851 8.16607 4.84261 12.0129 4.84261Z" fill="#D6D6D6"/>
<path d="M6.74089 22.0643C6.76335 22.4259 6.67811 22.786 6.49603 23.0988C6.31394 23.4115 6.04326 23.6628 5.71846 23.8205C5.39367 23.9782 5.02947 24.0353 4.67226 23.9844C4.31505 23.9335 3.98101 23.777 3.71269 23.5349C3.44437 23.2927 3.25393 22.9758 3.16562 22.6245C3.07731 22.2732 3.09514 21.9035 3.21683 21.5625C3.33852 21.2214 3.55857 20.9245 3.84893 20.7095C4.13929 20.4945 4.48683 20.3711 4.84726 20.3551C5.08337 20.3424 5.31966 20.3766 5.54263 20.4556C5.76559 20.5347 5.97087 20.6571 6.14671 20.8158C6.32256 20.9745 6.46555 21.1665 6.5675 21.3807C6.66945 21.5949 6.72837 21.8272 6.74089 22.0643Z" fill="#D6D6D6"/>
<path d="M3.51224 4.37926C3.30588 4.38498 3.10244 4.32931 2.9275 4.21924C2.75257 4.10917 2.61395 3.94961 2.52908 3.76065C2.44421 3.57167 2.41688 3.36172 2.45052 3.1572C2.48416 2.95267 2.57728 2.7627 2.71816 2.61117C2.85904 2.45964 3.04139 2.35333 3.24229 2.30559C3.44318 2.25786 3.65364 2.27083 3.84721 2.34289C4.04078 2.41495 4.20881 2.54287 4.33017 2.71057C4.45153 2.87826 4.5208 3.07825 4.52927 3.28537C4.53733 3.56544 4.43506 3.8374 4.24465 4.0422C4.05423 4.24701 3.79105 4.36813 3.51224 4.37926Z" fill="#D6D6D6"/>
</g>
<defs>
<clipPath id="clip0_1535_2849">
<rect width="24" height="24" fill="white"/>
</clipPath>
</defs>
</svg>
