<svg width="40" height="40" viewBox="0 0 40 40" fill="none" xmlns="http://www.w3.org/2000/svg">
<path d="M4.39008 20.9143C4.39008 22.1605 4.29079 22.5665 4.03546 22.8656C3.7513 23.1225 3.38239 23.2646 3 23.2644L3.09929 23.9766C3.69213 23.9846 4.26737 23.7743 4.71632 23.3855C4.95788 23.0897 5.13764 22.7481 5.24486 22.381C5.35209 22.0139 5.38459 21.6289 5.34044 21.249V16.5344H4.39008V20.8858V20.9143Z" fill="#4E4E4E"/>
<path d="M11.4777 20.3526C11.4777 20.8867 11.4777 21.3639 11.5203 21.7769H10.6763L10.6196 20.9294C10.443 21.2293 10.1906 21.4769 9.88788 21.647C9.58517 21.8171 9.243 21.9037 8.89615 21.898C8.07345 21.898 7.09473 21.4493 7.09473 19.619V16.5781H8.04509V19.4268C8.04509 20.4167 8.35006 21.079 9.20822 21.079C9.38477 21.0809 9.55992 21.0474 9.72341 20.9804C9.8869 20.9134 10.0354 20.8144 10.1603 20.689C10.2851 20.5636 10.3838 20.4145 10.4505 20.2503C10.5172 20.0862 10.5505 19.9103 10.5486 19.733V16.5425H11.499V20.3241L11.4777 20.3526Z" fill="#4E4E4E"/>
<path d="M13.2789 18.2723C13.2789 17.61 13.2789 17.0687 13.2363 16.5773H14.0874L14.1299 17.4675C14.3196 17.1459 14.5925 16.882 14.9198 16.7039C15.247 16.5258 15.6162 16.4402 15.9881 16.4563C17.2505 16.4563 18.2009 17.5174 18.2009 19.0984C18.2009 20.9643 17.059 21.8901 15.825 21.8901C15.5091 21.9042 15.195 21.8363 14.913 21.6928C14.6309 21.5493 14.3905 21.3352 14.2151 21.0711V23.9198H13.2789V18.2936V18.2723ZM14.2151 19.661C14.2176 19.7902 14.2319 19.9189 14.2576 20.0456C14.3381 20.3618 14.5213 20.642 14.7782 20.842C15.0351 21.0419 15.351 21.1501 15.6761 21.1494C16.6761 21.1494 17.2647 20.3304 17.2647 19.1411C17.2647 18.1014 16.7115 17.2111 15.7115 17.2111C15.3158 17.2437 14.9454 17.4201 14.67 17.7072C14.3945 17.9943 14.2327 18.3725 14.2151 18.7708V19.661Z" fill="#4E4E4E"/>
<path d="M19.8944 16.5725L21.0362 19.6419C21.1568 19.9838 21.2845 20.3968 21.3696 20.703C21.4689 20.3897 21.5752 19.9909 21.7029 19.6205L22.7384 16.5725H23.7384L22.3199 20.2757C21.6107 22.0562 21.1781 22.9749 20.5256 23.5303C20.1969 23.8318 19.7963 24.0427 19.3625 24.1428L19.1284 23.3452C19.4317 23.2451 19.7133 23.088 19.9582 22.8823C20.3042 22.5991 20.5788 22.238 20.7596 21.8283C20.7983 21.7573 20.8247 21.6802 20.8376 21.6004C20.8296 21.5144 20.808 21.4303 20.7738 21.3511L18.8447 16.5582H19.8802L19.8944 16.5725Z" fill="#4E4E4E"/>
<path d="M26.2613 15.0786V16.5741H27.623V17.2863H26.2613V20.0922C26.2613 20.7332 26.4457 21.1035 26.9705 21.1035C27.1569 21.1065 27.3429 21.085 27.5237 21.0394L27.5663 21.7516C27.2951 21.8459 27.0091 21.8893 26.7223 21.8797C26.5324 21.8917 26.3421 21.8622 26.1646 21.7934C25.9871 21.7245 25.8265 21.618 25.6939 21.4809C25.405 21.0929 25.2732 20.6095 25.3251 20.1278V17.2791H24.5166V16.567H25.3393V15.2993L26.2613 15.0786Z" fill="#4E4E4E"/>
<path d="M29.3733 19.3414C29.354 19.5829 29.3872 19.8257 29.4706 20.0531C29.554 20.2805 29.6855 20.487 29.8561 20.6583C30.0268 20.8296 30.2324 20.9617 30.4588 21.0454C30.6853 21.1291 30.9271 21.1625 31.1676 21.1432C31.6541 21.1541 32.1375 21.0619 32.5861 20.8725L32.7492 21.5847C32.1987 21.8124 31.6068 21.9216 31.0116 21.9052C30.6646 21.929 30.3167 21.8772 29.9915 21.7533C29.6664 21.6295 29.3717 21.4364 29.1279 21.1875C28.884 20.9385 28.6966 20.6396 28.5786 20.3111C28.4606 19.9826 28.4148 19.6323 28.4442 19.2844C28.4442 17.7176 29.3733 16.4785 30.891 16.4785C32.5932 16.4785 33.0187 17.974 33.0187 18.9283C33.0278 19.0753 33.0278 19.2228 33.0187 19.3699H29.352L29.3733 19.3414ZM32.1535 18.6292C32.1808 18.4388 32.1672 18.2447 32.1136 18.06C32.06 17.8754 31.9675 17.7044 31.8425 17.5586C31.7175 17.4128 31.5628 17.2957 31.3889 17.215C31.215 17.1343 31.0259 17.092 30.8343 17.0909C30.4446 17.1192 30.0795 17.2927 29.8106 17.5772C29.5416 17.8618 29.3882 18.237 29.3804 18.6292H32.1535Z" fill="#4E4E4E"/>
<path d="M34.4605 18.192C34.4605 17.5795 34.4605 17.0525 34.418 16.5683H35.269V17.5867H35.3116C35.4009 17.2723 35.5855 16.9938 35.8397 16.7896C36.0939 16.5854 36.405 16.4657 36.73 16.4472C36.8195 16.4354 36.9101 16.4354 36.9995 16.4472V17.3374C36.8912 17.3248 36.7817 17.3248 36.6733 17.3374C36.3514 17.3499 36.045 17.4797 35.8113 17.7025C35.5777 17.9253 35.4328 18.2259 35.4038 18.5481C35.3773 18.6938 35.363 18.8415 35.3612 18.9896V21.76H34.4251V18.1991L34.4605 18.192Z" fill="#4E4E4E"/>
<path d="M34.0443 2.26829C34.0734 2.74674 33.9601 3.22305 33.7186 3.63656C33.4772 4.05008 33.1187 4.38207 32.6887 4.59026C32.2587 4.79844 31.7768 4.87338 31.3042 4.80555C30.8317 4.73771 30.39 4.53016 30.0353 4.20933C29.6806 3.88852 29.4291 3.46894 29.3128 3.00407C29.1964 2.5392 29.2205 2.05006 29.3819 1.59899C29.5434 1.14791 29.8349 0.755302 30.2194 0.471183C30.6038 0.187064 31.0638 0.0242925 31.5407 0.00360399C31.8534 -0.0136732 32.1664 0.0312884 32.4617 0.135903C32.757 0.240518 33.0288 0.402722 33.2615 0.613188C33.4942 0.823654 33.6831 1.07823 33.8174 1.36227C33.9518 1.64632 34.0289 1.95423 34.0443 2.26829Z" fill="#767677"/>
<path d="M20.0206 30.1589C13.6377 30.1589 8.02767 27.8586 5.12695 24.4616C6.25244 27.5176 8.28326 30.1541 10.9461 32.0161C13.6088 33.8781 16.7758 34.8763 20.0206 34.8763C23.2655 34.8763 26.4324 33.8781 29.0953 32.0161C31.758 30.1541 33.7888 27.5176 34.9144 24.4616C32.0207 27.8586 26.432 30.1589 20.0206 30.1589Z" fill="#F37726"/>
<path d="M20.0206 8.06895C26.4036 8.06895 32.0136 10.3693 34.9144 13.7663C33.7888 10.7103 31.758 8.07382 29.0953 6.21181C26.4324 4.3498 23.2655 3.35162 20.0206 3.35162C16.7758 3.35162 13.6088 4.3498 10.9461 6.21181C8.28326 8.07382 6.25244 10.7103 5.12695 13.7663C8.02767 10.3621 13.6093 8.06895 20.0206 8.06895Z" fill="#F37726"/>
<path d="M11.2335 36.7697C11.271 37.3723 11.1289 37.9725 10.8254 38.4938C10.5219 39.015 10.0708 39.4338 9.52947 39.6967C8.98815 39.9595 8.38114 40.0546 7.7858 39.9699C7.19045 39.8851 6.63371 39.6243 6.18652 39.2206C5.73932 38.817 5.42192 38.2888 5.27474 37.7034C5.12756 37.1179 5.15727 36.5018 5.36008 35.9333C5.5629 35.3649 5.92964 34.87 6.41358 34.5116C6.89752 34.1533 7.47675 33.9477 8.07747 33.921C8.47099 33.8999 8.8648 33.9568 9.23641 34.0886C9.60802 34.2203 9.95014 34.4243 10.2432 34.6888C10.5363 34.9534 10.7746 35.2733 10.9445 35.6303C11.1144 35.9874 11.2126 36.3746 11.2335 36.7697Z" fill="#9E9E9E"/>
<path d="M5.85244 7.29482C5.5085 7.30436 5.16943 7.21157 4.87787 7.02812C4.58631 6.84467 4.35528 6.57874 4.21383 6.2638C4.07238 5.94884 4.02682 5.59893 4.0829 5.25805C4.13897 4.91717 4.29416 4.60055 4.52896 4.348C4.76376 4.09546 5.06769 3.91827 5.40251 3.83871C5.73733 3.75915 6.0881 3.78078 6.41072 3.90087C6.73334 4.02097 7.01338 4.23417 7.21565 4.51366C7.41791 4.79316 7.53337 5.12647 7.54748 5.47168C7.56092 5.93845 7.39046 6.39172 7.07311 6.73305C6.75575 7.0744 6.31711 7.27626 5.85244 7.29482Z" fill="#616262"/>
</svg>
