<svg width="24" height="24" viewBox="0 0 24 24" fill="none" xmlns="http://www.w3.org/2000/svg">
<g clip-path="url(#clip0_3090_8)">
<path d="M16.9171 1.50055C16.8654 1.53654 16.3805 1.16879 16.2869 1.1112C13.6361 -0.511624 10.3152 -0.351958 7.85869 1.55748C7.62574 1.41941 7.80961 1.24208 7.81289 1.0438C7.82532 0.325965 7.01652 -0.161538 6.38964 0.188548C5.4624 0.706806 5.92831 2.11566 6.97334 1.97039L7.14478 2.20661C6.16977 3.19601 5.45128 4.51783 5.18364 5.88677C5.00631 6.79568 5.04557 7.69674 5.05277 8.6194L5.33088 8.68614C5.3263 7.73208 5.30732 6.77212 5.50952 5.83638C5.8066 4.4609 6.54014 3.19536 7.55834 2.23344L7.11599 1.62881C6.53164 1.87092 5.93289 1.19954 6.30392 0.668198C6.69719 0.106098 7.59826 0.465999 7.48963 1.13149C7.47065 1.24862 7.35221 1.36575 7.38428 1.46914C7.39344 1.49793 7.71473 1.92262 7.74876 1.95468C7.77101 1.97562 7.78344 2.00834 7.82336 1.99983C10.3616 -0.24137 14.3762 -0.242679 16.9328 1.97039L17.3208 1.44493C17.207 1.20609 17.1435 1.01698 17.2567 0.756537C17.5047 0.184622 18.4319 0.317458 18.4882 0.948921C18.5366 1.48681 18.0675 1.77473 17.5767 1.63928L17.1736 2.17455C18.1905 3.14366 18.9469 4.3863 19.2564 5.76702C19.4861 6.79044 19.4259 7.80013 19.4292 8.84254C19.5548 8.81505 19.7269 8.81767 19.7446 8.67175C19.8074 8.16461 19.759 7.18895 19.7112 6.66219C19.5568 4.96476 18.7866 3.33539 17.578 2.14314C17.7174 1.89317 17.8358 1.99787 18.0603 1.96777C18.7303 1.87877 19.0124 0.963317 18.5975 0.431972C18.0504 -0.267545 16.8955 0.126383 16.8831 1.0137C16.8804 1.18384 16.9871 1.33696 16.9171 1.50055Z" fill="#43AFFF"/>
<path d="M4.69743 8.9788C2.79192 9.10967 2.95486 12.0968 5.02985 11.8534C6.73382 11.6538 6.55779 8.85054 4.69743 8.9788Z" fill="#43AFFF"/>
<path d="M20.1143 9.07168C18.3312 9.15216 18.3037 11.7808 19.9789 11.9502C22.1056 12.1649 22.1043 8.98268 20.1143 9.07168Z" fill="#43AFFF"/>
<path d="M5.33143 12.171C4.83346 12.2927 4.31128 12.256 3.86631 11.9878L3.44817 11.6998L2.85204 14.8061C3.31402 14.5967 3.8722 14.7688 4.18629 15.151L5.0494 12.9235C5.15148 13.9201 5.84053 14.7086 6.79132 14.9952C8.53914 19.6818 15.0769 20.2472 17.5831 15.8629C17.6702 15.7098 17.9456 15.0502 18.0026 14.9952C18.0667 14.9324 18.3428 14.8643 18.4469 14.8113C18.9521 14.5561 19.4016 14.0549 19.5881 13.5196L19.6477 13.6008L19.9336 15.2766C20.3406 14.9769 20.8615 14.8794 21.3143 15.151L21.2515 11.9812C20.7182 12.383 20.0082 12.4275 19.3996 12.1697C19.63 13.3541 18.9403 14.4527 17.767 14.7269C16.8228 17.3614 14.2079 18.9253 11.419 18.4673C9.40159 18.1355 7.66883 16.6508 7.02166 14.7191C6.33916 14.5731 5.75612 14.1164 5.4983 13.4647C5.3334 13.0485 5.3262 12.6133 5.3334 12.1697L5.33143 12.171Z" fill="#43AFFF"/>
<path d="M13.9659 15.1511C11.6959 15.2643 9.42069 15.1309 7.18407 14.7435C7.8476 16.6169 9.61307 18.0892 11.6004 18.3464C11.8687 18.3811 12.1298 18.3745 12.3961 18.4145V16.2963L12.4432 16.2492H13.9659V15.1511Z" fill="#43AFFF"/>
<path d="M14.1228 15.1509V16.3588L14.0757 16.4059H12.553V18.3828C14.772 18.3658 16.8757 16.8372 17.5766 14.7425C16.4347 14.9454 15.2797 15.0645 14.1228 15.1509Z" fill="#43AFFF"/>
<path d="M3.15771 14.9079C1.87646 15.0643 2.03089 17.0739 3.42861 16.9044C4.66995 16.7545 4.45793 14.7489 3.15771 14.9079Z" fill="#43AFFF"/>
<path d="M20.5836 15.191C19.3305 15.3605 19.5314 17.3328 20.8552 17.1875C22.1391 17.0468 21.9408 15.0072 20.5836 15.191Z" fill="#43AFFF"/>
<path d="M5.36297 17.3472L4.40498 16.2806C4.26822 16.6725 3.93515 17.0069 3.51046 17.0651L4.43639 18.1311C4.63205 17.766 4.93109 17.4159 5.36297 17.3472Z" fill="#43AFFF"/>
<path d="M20.3086 17.2851C19.9069 17.1503 19.6 16.7669 19.5548 16.3435L18.4561 17.2066L18.7388 17.4258C18.9548 17.6175 19.1308 17.8734 19.1779 18.1633L20.3086 17.2851Z" fill="#43AFFF"/>
<path d="M17.6957 17.2946C16.3418 17.4491 16.349 19.5044 17.6872 19.6392C19.488 19.8205 19.4055 17.0996 17.6957 17.2946Z" fill="#43AFFF"/>
<path d="M16.0067 18.7284C16.0028 18.5314 16.1971 18.2873 16.3542 18.1813C16.4196 18.1375 16.557 18.1048 16.5871 18.0688C16.6231 18.0256 16.6303 17.896 16.6604 17.828C16.6814 17.7802 16.807 17.5858 16.7913 17.5669C16.1886 17.6454 15.5945 18.0969 15.5356 18.7277L16.0067 18.7284Z" fill="#43AFFF"/>
<path d="M12.239 20.4861H11.1403V20.3918C11.9321 20.3369 12.9902 20.2813 12.8358 19.1989C12.1042 19.5235 11.2934 19.6524 10.5199 19.3959C10.2 19.2892 9.95458 19.1008 9.65619 18.9837L7.11398 22.2221L7.095 22.2856C7.77816 23.0381 8.84608 23.5766 9.88652 23.3273C10.1699 23.2593 10.3498 22.9635 10.5252 22.7417C10.6266 22.6134 10.7457 22.4655 10.8393 22.334C10.8589 22.3065 10.9459 22.2025 10.9211 22.1802C10.4473 22.2502 10.0272 22.3785 9.54625 22.2522C9.52073 22.2457 9.24983 22.1743 9.3205 22.1174C9.76481 22.0893 10.2405 22.0336 10.6809 21.9551C11.0094 21.8969 11.1606 21.8962 11.3916 21.6299L12.2403 20.4854L12.239 20.4861Z" fill="#43AFFF"/>
<path d="M18.4562 19.7018C18.1853 19.8235 17.9261 19.8457 17.6304 19.8267C17.3582 20.2612 16.9243 20.5695 16.3877 20.5217L16.2405 21.2716C16.2771 21.3233 16.6312 21.2755 16.7057 21.2631C17.4884 21.1289 18.2579 20.4778 18.4562 19.7018Z" fill="#43AFFF"/>
<path d="M15.0023 20.3914L14.0757 20.7919L13.5267 19.9831L13.8113 20.9345L13.087 21.4266L13.9147 21.1505L14.5311 21.8349L14.2151 21.0091L15.0023 20.3914Z" fill="#43AFFF"/>
<path d="M13.9717 22.8965L13.6838 22.5261L13.8676 23.0057L13.4953 23.3414L13.9507 23.1307L14.3113 23.4671L14.1274 23.0502L14.4683 22.6831C14.3545 22.6995 14.0626 22.9495 13.9717 22.8965Z" fill="#43AFFF"/>
<path d="M12.5217 22.9964L12.0355 23.3648L11.5173 22.9656L11.8948 23.514L11.5173 24.0002L12.0355 23.656L12.5531 23.9688L12.1867 23.514L12.5217 22.9964Z" fill="#43AFFF"/>
<path d="M19.2656 12.0813C19.3605 12.9909 19.1622 13.8671 18.3279 14.3474C17.8443 14.6255 16.815 14.7263 16.2378 14.8002C13.6106 15.1379 10.927 15.1274 8.30299 14.7688C7.22787 14.6216 6.07946 14.5588 5.63056 13.392C5.52259 13.1126 5.43425 12.4399 5.48856 12.1527C5.50165 12.0826 5.83407 11.9164 5.92895 11.8392C6.68213 11.2228 6.83132 10.1647 6.26857 9.36506C6.06244 9.07255 5.79742 8.90569 5.4938 8.72705L5.48725 7.31885C5.54549 0.679003 14.1766 -2.13608 18.0419 3.40313C19.2159 5.0855 19.4082 6.94717 19.2433 8.95411C18.0622 9.65298 18.0602 11.4158 19.2656 12.0813ZM12.1389 1.25812C10.1535 1.35038 8.33767 2.36727 7.20366 3.98224C5.74377 6.06116 5.22354 9.82049 8.58175 10.1922C11.0971 10.0796 13.744 10.3427 16.2437 10.1935C17.9202 10.0934 18.8631 8.82389 18.7715 7.19387C18.5785 3.77415 15.5501 1.10041 12.1389 1.25812Z" fill="#43AFFF"/>
<path d="M5.33143 12.171C5.32424 12.6146 5.33155 13.0497 5.49645 13.4665C5.75492 14.1183 6.33731 14.5757 7.01981 14.7209C7.66698 16.6526 9.39908 18.1374 11.4171 18.4691C14.2061 18.9278 16.8216 17.3639 17.7652 14.7288C18.9384 14.4546 19.6281 13.3559 19.3978 12.1715C20.0064 12.4293 20.7163 12.3848 21.2497 11.9831L21.3125 15.1528C20.8596 14.8812 20.3388 14.9787 19.9318 15.2784L19.6458 13.6026L19.5863 13.5215C19.4004 14.0574 18.9509 14.5586 18.445 14.8132C18.341 14.8655 18.0655 14.9342 18.0007 14.9971C17.9444 15.052 17.669 15.7116 17.5813 15.8648C15.0757 20.249 8.53794 19.6836 6.78947 14.9971C5.83868 14.7105 5.14898 13.9219 5.04755 12.9253L4.18444 15.1528C3.87035 14.7707 3.31217 14.5986 2.85019 14.808L3.44632 11.7017L3.86446 11.9896C4.30943 12.2572 4.83161 12.2945 5.32958 12.1728L5.33143 12.171Z" fill="#43AFFF"/>
<path d="M13.9659 15.1511V16.2492H12.4432L12.3961 16.2963V18.4145C12.1298 18.3745 11.8687 18.3811 11.6004 18.3464C9.61307 18.0892 7.8476 16.6169 7.18407 14.7435C9.42069 15.1309 11.6959 15.2643 13.9659 15.1511Z" fill="#43AFFF"/>
<path d="M12.239 20.4861L11.3902 21.6308C11.1592 21.8972 11.0074 21.8972 10.6795 21.9561C10.2391 22.0346 9.76342 22.0902 9.31911 22.1183C9.24909 22.1746 9.51935 22.2466 9.54487 22.2531C10.0265 22.3794 10.4459 22.2512 10.9197 22.1812C10.9446 22.2034 10.8582 22.3068 10.8379 22.3349C10.7443 22.4665 10.6252 22.6143 10.5238 22.7426C10.3484 22.9644 10.1678 23.2602 9.88514 23.3283C8.84469 23.5776 7.77677 23.039 7.09361 22.2865L7.11259 22.223L9.6548 18.9846C9.95384 19.1017 10.1986 19.2908 10.5186 19.3968C11.292 19.654 12.1034 19.5244 12.8344 19.1999C12.9888 20.2822 11.9307 20.3378 11.1389 20.3928V20.487H12.2382L12.239 20.4861Z" fill="#43AFFF"/>
<path d="M16.9171 1.50055C16.9871 1.33696 16.8804 1.18384 16.8831 1.0137C16.8955 0.126383 18.0504 -0.267545 18.5975 0.431972C19.0124 0.963317 18.7303 1.87877 18.0603 1.96777C17.8358 1.99787 17.7174 1.89317 17.578 2.14314C18.7866 3.33539 19.5568 4.96476 19.7112 6.66219C19.759 7.18895 19.8074 8.16461 19.7446 8.67175C19.7269 8.81767 19.5548 8.81505 19.4292 8.84254C19.4259 7.80013 19.4861 6.79044 19.2564 5.76702C18.9469 4.3863 18.1905 3.14366 17.1736 2.17455L17.5767 1.63928C18.0675 1.77473 18.5366 1.48681 18.4882 0.948921C18.4319 0.317458 17.5047 0.184622 17.2567 0.756537C17.1435 1.01698 17.207 1.20609 17.3208 1.44493L16.9328 1.97039C14.3762 -0.242679 10.3623 -0.240445 7.82397 2.00076C7.78405 2.00926 7.77162 1.97655 7.74937 1.95561C7.71469 1.92354 7.39405 1.49886 7.38489 1.47007C7.35283 1.36733 7.47127 1.24955 7.49024 1.13241C7.59887 0.466924 6.69715 0.107023 6.30453 0.669123C5.93285 1.20047 6.53225 1.87185 7.1166 1.62973L7.55895 2.23437C6.54076 3.19694 5.80722 4.46183 5.51013 5.83731C5.30793 6.77305 5.32691 7.733 5.33149 8.68707L5.05339 8.62032C5.04619 7.69767 5.00627 6.79726 5.18426 5.88769C5.45189 4.5181 6.17039 3.19694 7.14539 2.20754L6.97395 1.97131C5.92827 2.11593 5.46236 0.707077 6.39026 0.189473C7.01714 -0.160612 7.82593 0.32689 7.8135 1.04473C7.81023 1.243 7.62635 1.42034 7.85931 1.55841C10.3158 -0.351033 13.6367 -0.510698 16.2875 1.11213C16.3811 1.16971 16.8667 1.53747 16.9177 1.50148L16.9171 1.50055Z" fill="#43AFFF"/>
<path d="M14.1228 15.1509C15.2797 15.0645 16.4347 14.9454 17.5766 14.7425C16.8757 16.8372 14.772 18.3658 12.553 18.3828V16.4059H14.0757L14.1228 16.3588V15.1509Z" fill="#43AFFF"/>
<path d="M5.54412 17.4813C6.33328 17.3746 6.94708 18.0211 6.91763 18.7913C7.0629 18.8587 7.43196 19.3043 7.55237 19.3207C7.57854 19.3246 7.60145 19.3298 7.62369 19.3102C7.80888 19.1335 8.40501 18.1932 8.58823 18.1382C8.62684 18.1265 8.66544 18.1271 8.70471 18.133C8.81726 18.1487 9.38263 18.5806 9.40684 18.6886C9.45003 18.8796 9.33879 18.9627 9.23736 19.1021C8.50447 20.1151 7.67277 21.062 6.93203 22.0703C6.86201 22.1515 6.78938 22.2261 6.67421 22.2071C6.57671 22.1907 6.02115 21.7615 5.98385 21.6712C5.91842 21.5128 5.97927 21.4474 6.05976 21.3237C6.15464 21.1771 6.88491 20.3192 6.86986 20.2538L6.15661 19.7709C4.46311 20.348 3.90035 17.7037 5.54412 17.4813ZM5.67041 17.9504C4.61623 18.0545 4.97286 19.6878 6.00021 19.2867C6.72198 19.0046 6.43602 17.8745 5.67041 17.9504Z" fill="#43AFFF"/>
<path d="M5.02985 11.8534C6.73382 11.6538 6.55779 8.85054 4.69743 8.9788C2.79192 9.10967 2.95486 12.0968 5.02985 11.8534Z" fill="#43AFFF"/>
<path d="M19.9789 11.9502C22.1056 12.1649 22.1043 8.98268 20.1143 9.07168C18.3312 9.15216 18.3037 11.7808 19.9789 11.9502Z" fill="#43AFFF"/>
<path d="M17.6872 19.6392C19.488 19.8205 19.4055 17.0996 17.6957 17.2946C16.3418 17.4491 16.349 19.5044 17.6872 19.6392Z" fill="#43AFFF"/>
<path d="M20.8552 17.1875C22.1391 17.0468 21.9408 15.0072 20.5836 15.191C19.3305 15.3605 19.5314 17.3328 20.8552 17.1875Z" fill="#43AFFF"/>
<path d="M3.42861 16.9044C4.66995 16.7545 4.45793 14.7489 3.15771 14.9079C1.87646 15.0643 2.03089 17.0739 3.42861 16.9044Z" fill="#43AFFF"/>
<path d="M18.4562 19.7018C18.2579 20.4778 17.4884 21.1289 16.7057 21.2631C16.6312 21.2755 16.2771 21.3233 16.2405 21.2716L16.3877 20.5217C16.9243 20.5695 17.3582 20.2612 17.6304 19.8267C17.9261 19.8457 18.1853 19.8235 18.4562 19.7018Z" fill="#43AFFF"/>
<path d="M20.3086 17.2851L19.1779 18.1633C19.1308 17.8734 18.9548 17.6175 18.7388 17.4258L18.4561 17.2066L19.5548 16.3435C19.6 16.7669 19.9069 17.1503 20.3086 17.2851Z" fill="#43AFFF"/>
<path d="M5.36297 17.3472C4.93044 17.4159 4.63274 17.7662 4.43709 18.132L3.51116 17.0661C3.93584 17.0078 4.26891 16.6734 4.40568 16.2815L5.36367 17.3481L5.36297 17.3472Z" fill="#43AFFF"/>
<path d="M15.0023 20.3914L14.2151 21.0091L14.5311 21.8349L13.9147 21.1505L13.087 21.4266L13.8113 20.9345L13.5267 19.9831L14.0757 20.7919L15.0023 20.3914Z" fill="#43AFFF"/>
<path d="M16.0067 18.7284L15.5356 18.7277C15.5945 18.0969 16.1886 17.6454 16.7913 17.5669C16.807 17.5858 16.6814 17.7802 16.6604 17.828C16.6303 17.896 16.6231 18.0256 16.5871 18.0688C16.557 18.1048 16.4196 18.1375 16.3542 18.1813C16.1971 18.2873 16.0028 18.5314 16.0067 18.7284Z" fill="#43AFFF"/>
<path d="M12.5217 22.9964L12.1867 23.514L12.5531 23.9688L12.0355 23.656L11.5173 24.0002L11.8948 23.514L11.5173 22.9656L12.0355 23.3648L12.5217 22.9964Z" fill="#43AFFF"/>
<path d="M13.9717 22.8965C14.0626 22.9495 14.3545 22.6995 14.4683 22.6831L14.1274 23.0502L14.3113 23.4671L13.9507 23.1307L13.4953 23.3414L13.8676 23.0057L13.6838 22.5261L13.9717 22.8965Z" fill="#43AFFF"/>
<path d="M15.1373 4.05124C15.1255 4.06629 15.0346 4.26587 15.0346 4.2783C15.0346 4.30709 15.2649 4.70691 15.3002 4.79656C15.3945 5.03409 15.4874 5.37306 15.5064 5.6263C15.5155 5.75193 15.4795 6.2715 15.5122 6.32712C15.5253 6.34872 15.7112 6.46323 15.755 6.47632C15.9893 6.54764 16.6194 6.4508 16.5723 6.81659C16.5206 7.2164 15.8715 6.80481 15.6699 6.77863C15.5718 6.76555 15.4815 6.80546 15.3853 6.80939C15.2217 7.30278 14.9227 7.79159 14.5327 8.13841C14.4666 8.1973 14.0746 8.45839 14.0681 8.48653C14.0569 8.53299 14.0857 8.72537 14.1086 8.78099C14.193 8.98974 14.676 9.45237 14.3521 9.62185C13.9954 9.809 13.9293 9.05125 13.8063 8.86344C13.7847 8.83007 13.6277 8.69854 13.6015 8.69331C13.5635 8.68546 12.9956 8.85821 12.8483 8.8713C12.3883 8.91187 11.9388 8.83269 11.5043 8.69004C11.4709 8.78427 11.3642 8.78819 11.3269 8.834C11.1731 9.02704 11.1221 9.78872 10.772 9.63625C10.3892 9.46873 10.9853 8.93477 11.0331 8.71817C11.0508 8.639 11.0056 8.53233 11.0442 8.43811C10.4147 8.11289 9.96388 7.47946 9.72765 6.81659C9.62426 6.848 9.55359 6.77405 9.46852 6.77863C9.25782 6.79041 8.65122 7.18761 8.54718 6.86828C8.41434 6.46127 9.13611 6.54503 9.35924 6.48352C9.39785 6.47305 9.5706 6.35788 9.58566 6.33301C9.63212 6.2571 9.59089 5.74016 9.60201 5.59619C9.62753 5.27228 9.76364 4.87116 9.9004 4.57604C9.99594 4.37057 10.1478 4.34243 9.99071 4.10882C9.82515 3.86343 9.12694 3.68152 9.31737 3.36546C9.57126 2.94405 10.0116 3.9256 10.3951 3.84773C10.4599 3.83464 10.7655 3.54083 10.8662 3.47081C11.0966 3.30984 11.3976 3.15934 11.6672 3.07885C11.783 3.04417 12.2365 2.98135 12.2712 2.96106C12.3013 2.94274 12.3909 2.75952 12.3975 2.7111C12.4276 2.49712 12.1704 1.75899 12.5663 1.78386C12.9347 1.80676 12.6756 2.4788 12.7083 2.7111C12.7155 2.76017 12.8045 2.9434 12.8346 2.96106C12.8647 2.97873 13.2396 3.02846 13.3371 3.05464C13.6643 3.14298 14.0353 3.32816 14.3082 3.52774C14.5503 3.70508 14.6269 3.95374 14.9554 3.79276C15.1746 3.68479 15.5018 3.08801 15.7544 3.30657C16.0959 3.60234 15.2557 3.90204 15.1373 4.05124ZM12.2705 3.54083C11.7516 3.62655 11.2497 3.82155 10.8898 4.21548L11.8714 4.92809C12.2129 5.04456 12.2188 4.75337 12.2391 4.49751C12.2633 4.18996 12.2568 3.851 12.2705 3.54083ZM12.8359 3.54083C12.8666 3.93607 12.8359 4.39151 12.9007 4.77824C12.9288 4.94903 13.0872 4.9896 13.2364 4.92874L14.2173 4.21548C13.8462 3.84249 13.3541 3.62066 12.8359 3.54083ZM10.1674 5.65901C10.1536 5.80952 10.1772 5.97638 10.1674 6.1295L10.2322 6.16418C10.4782 6.03593 11.3027 5.93777 11.4552 5.7539C11.4853 5.71725 11.5121 5.67734 11.5154 5.6276C11.5154 5.53076 11.2962 5.34099 11.2203 5.26574C11.0063 5.05569 10.7563 4.86789 10.5293 4.67027C10.3513 4.94314 10.1975 5.33314 10.1674 5.65901ZM14.9397 6.14521V5.65901C14.9397 5.5373 14.8252 5.16824 14.7754 5.03867C14.7532 4.98174 14.6112 4.67812 14.5778 4.67027L13.6833 5.43849C13.5511 5.589 13.5707 5.75063 13.7605 5.83308C13.9614 5.92076 14.5857 6.09875 14.8062 6.13736C14.8507 6.14521 14.8945 6.14848 14.9397 6.14521ZM12.387 5.52421C12.3523 5.53468 12.1593 5.76175 12.1508 5.7912C12.122 5.88608 12.1776 6.13801 12.2594 6.2041C12.317 6.25056 12.5198 6.34086 12.5925 6.32908C12.6383 6.32123 12.8706 6.19821 12.8961 6.15895C12.9282 6.10856 12.972 5.87757 12.9622 5.81868C12.9543 5.77091 12.7848 5.55497 12.741 5.53534C12.6795 5.50786 12.4518 5.50655 12.387 5.52552V5.52421ZM14.782 6.71123C14.4175 6.67982 13.9477 6.50773 13.5936 6.50904C13.4098 6.50904 13.3326 6.59214 13.3509 6.7734L13.8109 7.90087C13.8881 7.95453 14.2742 7.58547 14.3422 7.50956C14.4293 7.41206 14.8513 6.80939 14.782 6.71123ZM11.6979 6.56138C11.5488 6.42004 10.5665 6.70665 10.3244 6.71058C10.3709 7.03842 10.9539 7.8145 11.2556 7.89891C11.3158 7.91592 11.2896 7.8904 11.3053 7.86292C11.3747 7.73924 11.7719 6.77863 11.7627 6.70207C11.7601 6.68048 11.713 6.57513 11.6979 6.56138ZM13.307 8.18487C13.3149 8.14168 13.2972 8.107 13.2828 8.06773C13.2213 7.90218 12.8765 7.28773 12.7678 7.13854C12.6376 6.95924 12.4937 6.93765 12.351 7.11956L11.8 8.13841C11.7915 8.20646 11.8098 8.1744 11.8439 8.18748C12.2725 8.35108 12.8699 8.29022 13.307 8.18487Z" fill="#43AFFF"/>
</g>
<defs>
<clipPath id="clip0_3090_8">
<rect width="24" height="24" fill="white"/>
</clipPath>
</defs>
</svg>
