<svg width="40" height="40" viewBox="0 0 40 40" fill="none" xmlns="http://www.w3.org/2000/svg">
<path d="M31.3756 39.7642C31.3361 39.9209 31.1793 39.9993 30.9059 39.9993H25.6771C25.3629 39.9993 25.0908 39.8623 24.8549 39.5876L16.2209 28.6044L13.8131 30.8949V39.413C13.8131 39.805 13.6168 40.0007 13.2254 40.0007H9.17259C8.78062 40.0007 8.58496 39.805 8.58496 39.413V0.587599C8.58496 0.19694 8.78062 0.00128174 9.17259 0.00128174H13.2261C13.6174 0.00128174 13.8137 0.197599 13.8137 0.587599V24.4935L24.1514 14.0386C24.4254 13.7652 24.6995 13.6276 24.9735 13.6276H30.3782C30.6127 13.6276 30.7688 13.7264 30.8479 13.9207C30.927 14.1559 30.9072 14.3318 30.7886 14.4497L19.8627 25.0206L31.2577 39.1765C31.4138 39.3333 31.4533 39.529 31.3762 39.7642" fill="#20BEFF"/>
</svg>
