<svg width="24" height="24" viewBox="0 0 24 24" fill="none" xmlns="http://www.w3.org/2000/svg">
<path d="M17.9796 22.6725C17.9588 22.7572 17.8764 22.7995 17.7327 22.7995H14.9842C14.8191 22.7995 14.6761 22.7255 14.5521 22.5771L10.0137 16.6461L8.74808 17.883V22.4829C8.74808 22.6945 8.64489 22.8002 8.4392 22.8002H6.30888C6.10284 22.8002 6 22.6945 6 22.4829V1.51681C6 1.30585 6.10284 1.2002 6.30888 1.2002H8.43954C8.64523 1.2002 8.74843 1.30621 8.74843 1.51681V14.4262L14.1823 8.78049C14.3263 8.63285 14.4704 8.5585 14.6144 8.5585H17.4553C17.5786 8.5585 17.6606 8.61187 17.7022 8.71681C17.7438 8.84381 17.7334 8.9388 17.671 9.00248L11.928 14.7108L17.9176 22.3552C17.9997 22.4398 18.0204 22.5455 17.9799 22.6725" fill="#20BEFF"/>
</svg>
