<svg width="24" height="24" viewBox="0 0 24 24" fill="none" xmlns="http://www.w3.org/2000/svg">
<path d="M20.1985 14.2477L11.9999 22.4137L3.8343 14.2477L5.2893 12.7927L11.9999 19.5037L18.7105 12.7935L20.1985 14.2477ZM15.835 14.1154L13.723 12L15.8388 9.88425L17.9504 12L15.835 14.1154ZM12.5624 12.4294L15.0419 14.9089L12.5624 17.3884V12.4294ZM11.4382 17.355L6.0828 12L11.4378 6.645L11.4382 17.355ZM12.562 6.64425L15.0082 9.09037L12.562 11.5365V6.64425ZM3.8343 9.75225L11.9999 1.58625L20.1982 9.7515L18.7432 11.2065L11.9999 4.49625L5.28555 11.2065L3.8343 9.75225ZM21.7518 9.75225L11.9999 0L2.24805 9.75225L4.4958 12L2.24805 14.2477L11.9999 24L21.7518 14.2477L19.5374 12L21.7518 9.75225Z" fill="#F15B3E"/>
</svg>
