<svg width="24" height="24" viewBox="0 0 24 24" fill="none" xmlns="http://www.w3.org/2000/svg">
<g clip-path="url(#clip0_3707_296)">
<path d="M12.0363 10.5976C12.8768 10.6288 13.6473 10.4491 14.3278 11.0496C15.1285 11.7562 15.1259 12.8605 14.3889 13.6019C14.2852 13.7048 14.1491 13.7915 14.0214 13.8658C13.4065 14.2235 12.7238 14.0725 12.0394 14.113C12.0301 13.5664 12.0374 13.0027 12.0374 12.4549L12.0363 10.5976ZM12.7881 13.3921C13.2467 13.3874 13.502 13.3948 13.8603 13.0783C14.3665 12.5343 14.256 11.8097 13.6041 11.4388C13.3156 11.2746 13.0957 11.3343 12.7931 11.314L12.7919 12.6141C12.7919 12.848 12.8017 13.1634 12.7881 13.3921Z" fill="white"/>
<path d="M16.9844 10.5973C17.0448 10.5976 17.1297 10.5959 17.1879 10.5999C17.2817 10.7137 17.5427 11.2789 17.6318 11.4511C18.083 12.3243 18.5023 13.2375 18.9541 14.1082L17.9438 14.1071C17.8086 14.1069 17.5342 14.0986 17.4118 14.1125C17.3878 14.1358 17.3829 14.1415 17.3633 14.1684C17.338 14.2294 17.1097 14.6254 17.0658 14.6962C16.8698 15.0119 16.6358 15.4915 16.4164 15.7823C16.42 15.626 16.4602 15.3801 16.4828 15.2184L16.6222 14.2487C16.325 14.2584 16.1205 14.2631 15.8246 14.2501L15.9231 14.1116C15.6574 14.0963 15.3461 14.1111 15.0757 14.1078C15.5436 13.2622 15.9939 12.4012 16.4564 11.5505L16.7516 10.9975C16.8161 10.8761 16.9018 10.7028 16.9844 10.5973Z" fill="white"/>
<path d="M5.23162 10.5983C5.45976 10.6066 5.76153 10.6011 5.99034 10.5969C5.97989 10.9596 5.98772 11.3573 5.98669 11.7231C6.08617 11.5862 6.93847 10.685 7.06506 10.6019C7.34123 10.5904 7.79877 10.5946 8.07686 10.6016L7.24061 11.4885C7.08362 11.6542 6.94255 11.813 6.77457 11.9704C6.97331 12.264 7.17475 12.6035 7.36053 12.9072L7.83234 13.666C7.92854 13.8084 8.01839 13.9616 8.10625 14.1089C7.81356 14.1149 7.49423 14.1079 7.19959 14.1064C6.87624 13.6213 6.57923 12.9983 6.25053 12.5163C6.17872 12.6042 6.07177 12.7059 5.9895 12.7885C5.98726 13.1402 5.96985 13.7575 5.9953 14.0965C5.73774 14.0946 5.48019 14.0954 5.22266 14.0988L5.22392 14.0852C5.24519 13.8704 5.22826 13.4112 5.22817 13.1781L5.22935 11.3739C5.22941 11.2021 5.21305 10.7337 5.23162 10.5983Z" fill="white"/>
<path d="M8.82557 10.5987C9.62594 10.6075 10.5061 10.6105 11.3047 10.5957C11.3007 10.8362 11.3064 11.0797 11.303 11.321C10.9418 11.3112 10.5631 11.3159 10.2003 11.3159C9.73887 11.3143 9.27746 11.3158 8.81608 11.3206C8.81848 11.2274 8.80879 10.6467 8.82557 10.5987Z" fill="white"/>
<path d="M8.81689 13.3872C9.60271 13.4093 10.4859 13.3859 11.2816 13.3886C11.2909 13.6138 11.2679 13.8851 11.2886 14.1028C11.2163 14.1166 10.6874 14.1079 10.5796 14.1078L8.82047 14.1105C8.8232 13.8695 8.822 13.6283 8.81689 13.3872Z" fill="white"/>
<path d="M8.81905 11.9452C9.50505 11.9367 10.1972 11.9478 10.8851 11.9422C10.8825 12.0528 10.8969 12.6069 10.8737 12.6605C10.5791 12.6437 10.1531 12.6558 9.85113 12.6555C9.54978 12.6553 9.10843 12.6434 8.81641 12.6641C8.82435 12.4205 8.81562 12.187 8.81905 11.9452Z" fill="white"/>
<path d="M15.5246 21.0536C15.6675 20.3355 16.2448 19.8238 17.0229 19.7845C17.0948 19.781 17.4135 19.8079 17.4451 19.7963C17.5985 19.8782 17.7608 19.8886 17.9384 19.9987C18.1756 20.1459 18.2844 20.2581 18.4634 20.4599L18.4723 20.4798C18.5201 20.5847 18.5853 20.6726 18.6298 20.7942C18.7524 21.1287 18.7466 21.526 18.6127 21.8547C18.4617 22.2334 18.1545 22.5374 17.7618 22.6969C17.1997 22.927 16.4942 22.8338 16.049 22.4405C16.0136 22.4091 15.8358 22.2328 15.8128 22.2227C15.8027 22.1722 15.7062 22.032 15.675 21.9721C15.51 21.6559 15.5097 21.3954 15.5246 21.0536Z" fill="white"/>
<path d="M2.34804 7.50023C1.87256 7.17762 1.61965 6.63574 1.6877 6.08545C1.75575 5.53516 2.13401 5.06334 2.67532 4.85357C3.21662 4.6438 3.83549 4.72923 4.29112 5.07659C4.62142 5.32842 4.8333 5.69371 4.88057 6.09287C4.97623 6.90081 4.38488 7.63739 3.53748 7.7658C3.11956 7.82913 2.69214 7.73369 2.34804 7.50023Z" fill="white"/>
<path d="M21.6329 13.4091C22.0073 13.2187 22.4461 13.1765 22.8532 13.2918C23.6739 13.5244 24.1579 14.326 23.9532 15.114C23.7485 15.9021 22.9272 16.3994 22.0862 16.2445C21.6687 16.1676 21.3005 15.937 21.0622 15.6032C20.8073 15.2466 20.724 14.8042 20.8328 14.3861C20.9417 13.9678 21.2323 13.6128 21.6329 13.4091Z" fill="white"/>
<path d="M10.1678 2.40143C10.2214 2.28692 10.2304 2.16831 10.3218 1.99837C10.5109 1.64106 10.8442 1.37118 11.2463 1.2499C11.8201 1.07557 12.4919 1.21956 12.9087 1.63248C13.1564 1.8779 13.2297 2.06727 13.3315 2.38001C13.3513 2.72156 13.3732 2.9637 13.23 3.28926C13.2004 3.35679 13.1046 3.50086 13.0875 3.55059C13.0233 3.61061 12.9559 3.71169 12.8787 3.78556C12.6073 4.04437 12.2425 4.19612 11.8577 4.21023C11.4157 4.22794 11.0529 4.12693 10.7045 3.85129C10.6145 3.78006 10.4799 3.61226 10.4298 3.57278C10.4176 3.52899 10.3074 3.35772 10.2785 3.29242C10.1418 2.98272 10.1471 2.7273 10.1678 2.40143Z" fill="white"/>
<path d="M6.45556 19.9587C6.91404 19.7267 7.46262 19.7194 7.92791 19.9387C8.3932 20.1581 8.71772 20.5772 8.79891 21.0635C8.86676 21.47 8.75797 21.8851 8.49737 22.2144C8.02948 22.8053 7.18111 22.9927 6.4856 22.6585C5.79007 22.3245 5.44831 21.5653 5.67515 20.8585C5.79906 20.4724 6.07978 20.1488 6.45556 19.9587Z" fill="white"/>
<path d="M0.934805 13.3671C1.32819 13.1954 1.77804 13.1816 2.18236 13.3286C2.6707 13.5063 3.0372 13.8979 3.16468 14.3786C3.29214 14.8592 3.16464 15.3686 2.82292 15.7437C2.54145 16.0527 2.14077 16.2418 1.71084 16.2681C0.938177 16.3158 0.239632 15.8344 0.0494232 15.1234C-0.140785 14.4122 0.231472 13.6739 0.934805 13.3671Z" fill="white"/>
<path d="M19.3623 5.08568C19.7907 4.79874 20.1464 4.68062 20.6906 4.76999C21.1009 4.83959 21.4653 5.06047 21.7039 5.38418C21.9514 5.72627 22.0448 6.14773 21.9636 6.55527C21.8964 6.90757 21.7107 7.19629 21.4248 7.42626C21.4097 7.43843 21.4148 7.43345 21.4041 7.44964C21.3376 7.47371 21.2677 7.52632 21.2054 7.56207C21.0731 7.63929 20.9292 7.69737 20.7788 7.73436C20.6243 7.77351 20.2901 7.76801 20.242 7.79068L20.2364 7.81212C20.2258 7.76816 20.1013 7.75414 20.0526 7.74574C19.3073 7.61752 18.7361 6.93098 18.7893 6.21282C18.7921 6.17464 18.7984 6.13784 18.7725 6.11107C18.8043 6.0804 18.8684 5.72523 18.9375 5.60513C19.0757 5.3654 19.1591 5.27177 19.3623 5.08568Z" fill="white"/>
<path d="M17.1345 12.0591C17.0876 12.3395 17.0433 12.6205 17.0017 12.9017C16.966 13.1342 16.9217 13.3878 16.8985 13.6202C17.1047 13.62 17.4631 13.6298 17.6589 13.6148C17.5717 13.7622 17.4081 14.0216 17.3634 14.1686C17.3381 14.2296 17.1099 14.6256 17.0659 14.6964C16.8699 15.0121 16.6359 15.4917 16.4165 15.7825C16.4202 15.6262 16.4604 15.3803 16.483 15.2186L16.6223 14.2489C16.3251 14.2586 16.1206 14.2633 15.8247 14.2503L15.9232 14.1118C16.0221 13.9993 16.2031 13.6518 16.2914 13.5088C16.5788 13.0438 16.8477 12.5205 17.1345 12.0591Z" fill="#6288E5"/>
<path d="M8.7991 21.0639C8.90769 21.0473 9.32206 21.0542 9.44738 21.054L15.5246 21.0538C15.5096 21.3957 15.51 21.6561 15.6749 21.9723C15.7062 22.0323 15.8027 22.1724 15.8128 22.2229L11.35 22.2214C10.4107 22.2208 9.43466 22.2318 8.49756 22.2148C8.75816 21.8855 8.86695 21.4704 8.7991 21.0639Z" fill="#6288E5"/>
<path d="M13.3319 2.38037C13.6195 2.48699 14.042 2.69067 14.3297 2.8196L18.2608 4.58621C18.5792 4.729 19.0662 4.92836 19.3623 5.08612C19.1592 5.27222 19.0758 5.36584 18.9376 5.60557C18.8684 5.72568 18.8043 6.08084 18.7725 6.11151L14.9413 4.39319L13.7405 3.8563C13.5487 3.76992 13.2579 3.64836 13.0879 3.55095C13.105 3.50122 13.2008 3.35715 13.2304 3.28962C13.3736 2.96406 13.3517 2.72192 13.3319 2.38037Z" fill="#6288E5"/>
<path d="M10.1679 2.40137C10.1472 2.72723 10.1419 2.98266 10.2786 3.29235C10.3075 3.35766 10.4177 3.52892 10.4299 3.57271C10.3203 3.64509 10.0229 3.77281 9.89687 3.82919L8.97028 4.2454L6.0825 5.54915C5.68042 5.72739 5.27973 5.90843 4.88047 6.09224C4.83319 5.69308 4.62132 5.32779 4.29102 5.07596C4.43986 4.98682 4.7598 4.84972 4.9278 4.77402C5.28119 4.61632 5.63367 4.45674 5.98518 4.29532L10.1679 2.40137Z" fill="#6288E5"/>
<path d="M20.2358 7.81219L20.2415 7.79075C20.2895 7.76808 20.6238 7.77358 20.7782 7.73443C20.9287 7.69744 21.0725 7.63937 21.2049 7.56214C21.2672 7.52639 21.3371 7.47378 21.4035 7.44971C21.4506 7.56615 21.501 7.79633 21.5329 7.92357C21.6096 8.23076 21.6847 8.53834 21.758 8.84628L22.7141 12.7104C22.7388 12.8095 22.8461 13.2137 22.8525 13.2916C22.4453 13.1762 22.0066 13.2185 21.6321 13.4089C21.5568 13.1636 21.4903 12.8679 21.4273 12.6154L20.2358 7.81219Z" fill="#6288E5"/>
<path d="M2.34811 7.5C2.69221 7.73346 3.11963 7.82889 3.53755 7.76556C3.44975 8.21802 3.30749 8.74443 3.1971 9.1964L2.34271 12.7175C2.31178 12.8457 2.22715 13.2276 2.18262 13.3287C1.77829 13.1817 1.32845 13.1955 0.935059 13.3671C0.962078 13.1665 1.07214 12.7538 1.12459 12.5394L2.0226 8.8293C2.12564 8.4015 2.2293 7.91962 2.34811 7.5Z" fill="#6288E5"/>
<path d="M1.71143 16.2681C2.14136 16.2418 2.54204 16.0527 2.8235 15.7437C2.94887 15.8548 3.17555 16.1327 3.2949 16.2724L4.09804 17.2089L5.6483 19.009C5.88269 19.282 6.25259 19.6827 6.4562 19.9588C6.08042 20.1488 5.7997 20.4725 5.6758 20.8586C5.54317 20.7318 5.29325 20.424 5.16688 20.2775L2.56707 17.2639C2.28529 16.9375 1.98269 16.6003 1.71143 16.2681Z" fill="#6288E5"/>
<path d="M21.062 15.6035C21.3004 15.9373 21.6686 16.1679 22.0861 16.2447C21.9661 16.4273 21.5767 16.857 21.4189 17.0401L20.1734 18.4885L19.049 19.7933C18.9003 19.9661 18.6205 20.3157 18.4636 20.4601C18.2846 20.2583 18.1759 20.146 17.9386 19.9989C17.7611 19.8888 17.5988 19.8784 17.4453 19.7965C18.1283 18.9654 18.8892 18.121 19.5919 17.2976L20.5489 16.1875C20.6866 16.0282 20.9172 15.7424 21.062 15.6035Z" fill="#6288E5"/>
</g>
<defs>
<clipPath id="clip0_3707_296">
<rect width="24" height="24" fill="white"/>
</clipPath>
</defs>
</svg>
