<svg width="24" height="24" viewBox="0 0 24 24" fill="none" xmlns="http://www.w3.org/2000/svg">
<path fill-rule="evenodd" clip-rule="evenodd" d="M20.8459 1C21.3559 1 21.845 1.2026 22.2056 1.56323C22.5663 1.92387 22.7689 2.41299 22.7689 2.923C22.7689 3.43301 22.5663 3.92213 22.2056 4.28277C21.845 4.6434 21.3559 4.846 20.8459 4.846H19.1499C19.1201 4.84613 19.0906 4.84038 19.0631 4.82908C19.0355 4.81779 19.0105 4.80116 18.9894 4.78016C18.9683 4.75916 18.9516 4.7342 18.9402 4.70672C18.9288 4.67923 18.9229 4.64976 18.9229 4.62V2.923C18.9229 1.861 19.7839 1 20.8459 1Z" fill="white"/>
<path fill-rule="evenodd" clip-rule="evenodd" d="M10.065 12.1989L17.322 4.99887C17.459 4.86287 17.382 4.58887 17.206 4.58887H13.3C13.2781 4.58912 13.2564 4.59376 13.2363 4.60252C13.2162 4.61128 13.1981 4.62398 13.183 4.63987L5.363 12.3959C5.241 12.5159 5.061 12.4089 5.061 12.2169V4.81987C5.061 4.69287 4.978 4.58987 4.876 4.58987H2.186C2.083 4.58987 2 4.69287 2 4.81987V20.7699C2 20.8979 2.083 20.9999 2.186 20.9999H4.876C4.979 20.9999 5.062 20.8979 5.062 20.7699V17.5199C5.062 17.4509 5.087 17.3849 5.131 17.3419L7.555 14.9359C7.58075 14.9081 7.6156 14.8905 7.65323 14.8863C7.69085 14.8821 7.72874 14.8915 7.76 14.9129L14.244 19.6849C15.2738 20.3864 16.4589 20.8268 17.697 20.9679C17.805 20.9799 17.897 20.8729 17.897 20.7379V17.6779C17.897 17.5609 17.827 17.4659 17.733 17.4509C17.0064 17.3335 16.3145 17.058 15.706 16.6439L10.093 12.5799C9.976 12.5019 9.961 12.3009 10.065 12.1989Z" fill="white"/>
</svg>
