<svg width="24" height="24" viewBox="0 0 24 24" fill="none" xmlns="http://www.w3.org/2000/svg">
<path d="M0 23.3889V8.45944C0.000119911 8.30698 0.0561891 8.16007 0.1572 8.04756L1.0212 7.08689C1.07748 7.0244 1.14591 6.97453 1.22215 6.94044C1.29838 6.90635 1.38074 6.8888 1.464 6.88889H4.536C4.61926 6.8888 4.70162 6.90635 4.77785 6.94044C4.85409 6.97453 4.92252 7.0244 4.9788 7.08689L5.8428 8.04756C5.94381 8.16007 5.99988 8.30698 6 8.45944V23.3889C6 23.551 5.93679 23.7064 5.82426 23.821C5.71174 23.9356 5.55913 24 5.4 24H0.6C0.44087 24 0.288258 23.9356 0.175736 23.821C0.0632141 23.7064 0 23.551 0 23.3889ZM18 23.3889V3.57056C18.0001 3.41809 18.0562 3.27118 18.1572 3.15867L19.0212 2.198C19.0775 2.13551 19.1459 2.08564 19.2221 2.05155C19.2984 2.01746 19.3807 1.99991 19.464 2H22.536C22.6193 1.99991 22.7016 2.01746 22.7779 2.05155C22.8541 2.08564 22.9225 2.13551 22.9788 2.198L23.8428 3.15867C23.9438 3.27118 23.9999 3.41809 24 3.57056V23.3889C24 23.551 23.9368 23.7064 23.8243 23.821C23.7117 23.9356 23.5591 24 23.4 24H18.6C18.4409 24 18.2883 23.9356 18.1757 23.821C18.0632 23.7064 18 23.551 18 23.3889ZM9 23.3889V12.1261C9.00012 11.9736 9.05619 11.8267 9.1572 11.7142L10.0212 10.7536C10.0775 10.6911 10.1459 10.6412 10.2221 10.6071C10.2984 10.573 10.3807 10.5555 10.464 10.5556H13.536C13.6193 10.5555 13.7016 10.573 13.7779 10.6071C13.8541 10.6412 13.9225 10.6911 13.9788 10.7536L14.8428 11.7142C14.9438 11.8267 14.9999 11.9736 15 12.1261V23.3889C15 23.551 14.9368 23.7064 14.8243 23.821C14.7117 23.9356 14.5591 24 14.4 24H9.6C9.44087 24 9.28826 23.9356 9.17574 23.821C9.06321 23.7064 9 23.551 9 23.3889Z" fill="#83F4CB"/>
</svg>
