<svg width="24" height="24" viewBox="0 0 24 24" fill="none" xmlns="http://www.w3.org/2000/svg">
<path d="M11.9168 1.002C11.7046 1.01244 11.4968 1.0638 11.3054 1.15308L2.96178 5.04553C2.74583 5.14622 2.55608 5.29274 2.40663 5.47419C2.25718 5.65564 2.15186 5.86737 2.0985 6.09365L0.0400853 14.8371C-0.00744661 15.0385 -0.0127661 15.2472 0.0244417 15.4506C0.0616495 15.6541 0.140628 15.8483 0.256705 16.0217C0.28485 16.0641 0.315121 16.1051 0.347407 16.1446L6.1225 23.1554C6.27199 23.3368 6.46175 23.4833 6.67771 23.5839C6.89367 23.6846 7.13026 23.7368 7.36993 23.7368L16.6312 23.7347C16.8708 23.7349 17.1073 23.6828 17.3233 23.5823C17.5392 23.4819 17.729 23.3356 17.8786 23.1544L23.6516 16.1425C23.8012 15.9611 23.9066 15.7492 23.9599 15.5229C24.0133 15.2965 24.0133 15.0614 23.96 14.835L21.8984 6.09157C21.845 5.86529 21.7397 5.65356 21.5902 5.47211C21.4408 5.29065 21.251 5.14414 21.0351 5.04344L12.6904 1.15308C12.4497 1.04078 12.1837 0.988829 11.9168 1.002Z" fill="#326CE5"/>
<path d="M11.9996 3.97754C11.7238 3.97757 11.5002 4.22012 11.5002 4.51931C11.5002 4.52391 11.5012 4.52829 11.5013 4.53286C11.5009 4.57351 11.4989 4.62249 11.5002 4.65788C11.5068 4.83045 11.5453 4.96253 11.5685 5.12152C11.6105 5.46181 11.6457 5.74389 11.624 6.00607C11.6029 6.10494 11.5283 6.19536 11.4618 6.25821L11.4501 6.4645C11.1504 6.48874 10.8487 6.53314 10.5473 6.59994C9.25061 6.8874 8.13416 7.53957 7.28416 8.4201C7.22901 8.38336 7.13251 8.31577 7.10382 8.29507C7.01466 8.30683 6.92454 8.33369 6.80717 8.26694C6.58368 8.12006 6.38013 7.91731 6.13384 7.67307C6.02098 7.55624 5.93926 7.44499 5.80517 7.33238C5.77472 7.30681 5.72825 7.27222 5.69419 7.2459C5.58937 7.1643 5.46573 7.12175 5.34632 7.11775C5.1928 7.11262 5.04501 7.17123 4.9483 7.28966C4.77636 7.50022 4.83141 7.82204 5.07101 8.00856C5.07344 8.01045 5.07603 8.01192 5.07848 8.01377C5.11141 8.03983 5.15173 8.07322 5.18199 8.09503C5.32428 8.19761 5.45425 8.25011 5.59602 8.33154C5.89471 8.51164 6.14232 8.66097 6.33872 8.84102C6.41541 8.92084 6.42882 9.06149 6.43902 9.12232L6.59909 9.26193C5.74222 10.521 5.34566 12.0761 5.58002 13.6607L5.37087 13.7201C5.31574 13.7896 5.23785 13.899 5.15638 13.9316C4.89942 14.0106 4.61023 14.0397 4.26109 14.0754C4.09718 14.0887 3.95574 14.0808 3.78197 14.1129C3.74372 14.12 3.69043 14.1335 3.64858 14.1431C3.64713 14.1434 3.64577 14.1438 3.64431 14.1442C3.64203 14.1447 3.63904 14.1458 3.63684 14.1462C3.34249 14.2157 3.1534 14.4798 3.21428 14.7401C3.27517 15.0004 3.56268 15.1588 3.8588 15.0964C3.86094 15.096 3.86404 15.0959 3.86627 15.0954C3.86961 15.0947 3.87255 15.0931 3.87587 15.0923C3.91715 15.0834 3.96888 15.0736 4.00499 15.0641C4.17584 15.0195 4.29957 14.9539 4.45317 14.8964C4.78361 14.7807 5.05729 14.684 5.32391 14.6464C5.43527 14.6378 5.5526 14.7134 5.61096 14.7453L5.82865 14.7089C6.32959 16.2253 7.3794 17.4509 8.70873 18.22L8.61802 18.4325C8.65072 18.5151 8.68678 18.6267 8.66242 18.7082C8.56549 18.9537 8.39946 19.2127 8.21039 19.5015C8.11885 19.6349 8.02516 19.7385 7.94255 19.8912C7.92279 19.9277 7.89761 19.9838 7.87853 20.0224C7.75018 20.2906 7.84433 20.5994 8.09088 20.7153C8.33898 20.8319 8.64694 20.7089 8.78022 20.4402C8.78043 20.4398 8.7811 20.4396 8.78129 20.4392C8.78142 20.4389 8.78115 20.4384 8.78129 20.4381C8.80027 20.4 8.82716 20.35 8.84318 20.3142C8.91393 20.1559 8.93748 20.0203 8.98723 19.8672C9.11937 19.5431 9.19197 19.2031 9.37387 18.9912C9.42368 18.9332 9.50488 18.9109 9.58907 18.8889L9.70219 18.6888C10.8611 19.1231 12.1583 19.2397 13.4541 18.9524C13.7497 18.8869 14.0351 18.8021 14.3109 18.7003C14.3427 18.7553 14.4018 18.8612 14.4177 18.8878C14.5032 18.915 14.5966 18.929 14.6727 19.0389C14.8088 19.2659 14.9018 19.5345 15.0152 19.8589C15.065 20.0119 15.0896 20.1476 15.1604 20.3058C15.1765 20.3419 15.2032 20.3927 15.2222 20.4308C15.3552 20.7004 15.6642 20.8238 15.9127 20.7069C16.1592 20.591 16.2534 20.2822 16.125 20.0141C16.1059 19.9755 16.0797 19.9194 16.0599 19.8828C15.9773 19.7301 15.8836 19.6276 15.7921 19.4942C15.603 19.2054 15.4462 18.9655 15.3492 18.7201C15.3087 18.5935 15.3561 18.5148 15.3876 18.4325C15.3687 18.4114 15.3283 18.2918 15.3044 18.2356C16.6859 17.4392 17.7049 16.1678 18.1834 14.6995C18.248 14.7094 18.3604 14.7288 18.3968 14.736C18.4719 14.6876 18.541 14.6245 18.6764 14.6349C18.943 14.6725 19.2167 14.7692 19.5472 14.8849C19.7008 14.9424 19.8245 15.0091 19.9953 15.0537C20.0315 15.0632 20.0832 15.072 20.1245 15.0808C20.1278 15.0816 20.1307 15.0832 20.1341 15.0839C20.1363 15.0844 20.1394 15.0845 20.1415 15.085C20.4377 15.1472 20.7252 14.989 20.7861 14.7287C20.8469 14.4684 20.6579 14.2042 20.3635 14.1348C20.3207 14.1253 20.2599 14.1091 20.2184 14.1015C20.0446 14.0693 19.9032 14.0772 19.7392 14.0639C19.3901 14.0282 19.1009 13.9992 18.844 13.9202C18.7392 13.8805 18.6646 13.7588 18.6284 13.7087L18.4267 13.6514C18.5313 12.9127 18.5031 12.144 18.3221 11.3749C18.1395 10.5985 17.8168 9.88853 17.3863 9.26298C17.438 9.21706 17.5357 9.13259 17.5634 9.10774C17.5715 9.02025 17.5646 8.92852 17.6573 8.83164C17.8537 8.65158 18.1014 8.50227 18.4 8.32216C18.5418 8.24073 18.6729 8.18824 18.8151 8.08566C18.8473 8.06246 18.8912 8.02573 18.925 7.99918C19.1646 7.8126 19.2198 7.4908 19.0478 7.28029C18.8758 7.06978 18.5425 7.04995 18.3029 7.23653C18.2688 7.2629 18.2226 7.29729 18.192 7.323C18.0579 7.43563 17.9751 7.54686 17.8622 7.6637C17.6159 7.90794 17.4124 8.11171 17.1889 8.25861C17.0921 8.31365 16.9502 8.29461 16.8858 8.29091L16.6959 8.42322C15.6128 7.31432 14.1381 6.60535 12.5503 6.46762C12.5458 6.40265 12.54 6.28521 12.5385 6.24987C12.4735 6.18914 12.395 6.13729 12.3753 6.00607C12.3535 5.74389 12.3898 5.46181 12.4318 5.12152C12.455 4.96253 12.4935 4.83045 12.5001 4.65788C12.5016 4.61866 12.4992 4.56173 12.499 4.51931C12.499 4.22012 12.2754 3.97751 11.9996 3.97754ZM11.3743 7.75955L11.226 10.3174L11.2153 10.3226C11.2054 10.5514 11.0125 10.7341 10.7757 10.7341C10.6787 10.7341 10.5891 10.7037 10.5164 10.6518L10.5121 10.6539L8.36406 9.16712C9.02424 8.53329 9.86867 8.06489 10.8418 7.84915C11.0196 7.80974 11.1973 7.7805 11.3743 7.75955ZM12.626 7.75955C13.7622 7.89599 14.813 8.3983 15.6181 9.16817L13.484 10.6455L13.4765 10.6424C13.2871 10.7775 13.0202 10.744 12.8725 10.5632C12.812 10.4892 12.7803 10.4021 12.7765 10.3142L12.7743 10.3132L12.626 7.75955ZM7.58508 10.1225L9.54639 11.8354L9.54426 11.8458C9.72129 11.996 9.7474 12.2568 9.59975 12.4376C9.53927 12.5116 9.45831 12.5613 9.37139 12.5845L9.36926 12.5928L6.85519 13.3013C6.72723 12.1589 7.003 11.0484 7.58508 10.1225ZM16.4003 10.1236C16.6917 10.5847 16.9124 11.0998 17.0438 11.6582C17.1736 12.21 17.2061 12.7607 17.1526 13.293L14.6257 12.5824L14.6236 12.572C14.3973 12.5116 14.2583 12.2869 14.311 12.0615C14.3325 11.9691 14.3827 11.891 14.4507 11.8333L14.4497 11.8281L16.4003 10.1236ZM11.5973 11.9677H12.4009L12.9003 12.5772L12.721 13.3378L11.9996 13.6764L11.2761 13.3367L11.0969 12.5761L11.5973 11.9677ZM14.1733 14.0535C14.2074 14.0518 14.2414 14.0548 14.2747 14.0608L14.2789 14.0556L16.8794 14.4849C16.4989 15.5288 15.7706 16.4333 14.7975 17.0385L13.7881 14.6578L13.7913 14.6536C13.6985 14.4433 13.7913 14.1966 14.0047 14.0962C14.0593 14.0706 14.1164 14.0563 14.1733 14.0535ZM9.8057 14.0639C10.0041 14.0667 10.1822 14.2011 10.2283 14.3984C10.2499 14.4907 10.2393 14.5822 10.2037 14.663L10.2112 14.6724L9.21239 17.0291C8.27857 16.444 7.53478 15.568 7.1369 14.4932L9.71499 14.066L9.71926 14.0712C9.7481 14.0661 9.77735 14.0636 9.8057 14.0639ZM11.9836 15.0964C12.0528 15.094 12.1229 15.1078 12.1896 15.1392C12.277 15.1802 12.3445 15.245 12.387 15.3225H12.3966L13.6675 17.5646C13.5026 17.6186 13.333 17.6648 13.1596 17.7032C12.1876 17.9187 11.2187 17.8534 10.3414 17.5615L11.6091 15.3236H11.6112C11.6873 15.1847 11.8315 15.1019 11.9836 15.0964Z" fill="white" stroke="white" stroke-width="0.25"/>
</svg>
