<svg width="24" height="24" viewBox="0 0 24 24" fill="none" xmlns="http://www.w3.org/2000/svg">
<path d="M11.9168 1.002C11.7046 1.01244 11.4968 1.0638 11.3054 1.15308L2.96178 5.04553C2.74583 5.14622 2.55608 5.29274 2.40663 5.47419C2.25718 5.65564 2.15186 5.86737 2.0985 6.09365L0.0400853 14.8371C-0.00744661 15.0385 -0.0127661 15.2472 0.0244417 15.4506C0.0616495 15.6541 0.140628 15.8483 0.256705 16.0217C0.28485 16.0641 0.315121 16.1051 0.347407 16.1446L6.1225 23.1554C6.27199 23.3368 6.46175 23.4833 6.67771 23.5839C6.89367 23.6846 7.13026 23.7368 7.36993 23.7368L16.6312 23.7347C16.8708 23.7349 17.1073 23.6828 17.3233 23.5823C17.5392 23.4819 17.729 23.3356 17.8786 23.1544L23.6516 16.1425C23.8012 15.9611 23.9066 15.7492 23.9599 15.5229C24.0133 15.2965 24.0133 15.0614 23.96 14.835L21.8984 6.09157C21.845 5.86529 21.7397 5.65356 21.5902 5.47211C21.4408 5.29065 21.251 5.14414 21.0351 5.04344L12.6904 1.15308C12.4497 1.04078 12.1837 0.988829 11.9168 1.002Z" fill="#326CE5"/>
<path d="M11.9994 3.97754C11.7236 3.97757 11.5 4.22012 11.5 4.51931C11.5 4.52391 11.501 4.52829 11.5011 4.53286C11.5007 4.57351 11.4986 4.62249 11.5 4.65788C11.5066 4.83045 11.5451 4.96253 11.5683 5.12152C11.6103 5.46181 11.6455 5.74389 11.6238 6.00607C11.6026 6.10494 11.5281 6.19536 11.4616 6.25821L11.4498 6.4645C11.1501 6.48874 10.8484 6.53314 10.5471 6.59994C9.25037 6.8874 8.13392 7.53957 7.28392 8.4201C7.22876 8.38336 7.13227 8.31577 7.10358 8.29507C7.01441 8.30683 6.9243 8.33369 6.80693 8.26694C6.58344 8.12006 6.37989 7.91731 6.13359 7.67307C6.02074 7.55624 5.93901 7.44499 5.80493 7.33238C5.77448 7.30681 5.72801 7.27222 5.69395 7.2459C5.58912 7.1643 5.46548 7.12175 5.34608 7.11775C5.19256 7.11262 5.04477 7.17123 4.94805 7.28966C4.77612 7.50022 4.83116 7.82204 5.07077 8.00856C5.0732 8.01045 5.07579 8.01192 5.07824 8.01377C5.11116 8.03983 5.15148 8.07322 5.18175 8.09503C5.32403 8.19761 5.45401 8.25011 5.59578 8.33154C5.89446 8.51164 6.14207 8.66097 6.33847 8.84102C6.41517 8.92084 6.42857 9.06149 6.43878 9.12232L6.59884 9.26193C5.74198 10.521 5.34542 12.0761 5.57977 13.6607L5.37062 13.7201C5.3155 13.7896 5.23761 13.899 5.15614 13.9316C4.89918 14.0106 4.60998 14.0397 4.26085 14.0754C4.09693 14.0887 3.9555 14.0808 3.78172 14.1129C3.74348 14.12 3.69019 14.1335 3.64834 14.1431C3.64688 14.1434 3.64552 14.1438 3.64407 14.1442C3.64179 14.1447 3.63879 14.1458 3.6366 14.1462C3.34225 14.2157 3.15316 14.4798 3.21403 14.7401C3.27492 15.0004 3.56244 15.1588 3.85855 15.0964C3.86069 15.096 3.8638 15.0959 3.86602 15.0954C3.86937 15.0947 3.87231 15.0931 3.87563 15.0923C3.91691 15.0834 3.96864 15.0736 4.00475 15.0641C4.17559 15.0195 4.29933 14.9539 4.45292 14.8964C4.78336 14.7807 5.05704 14.684 5.32367 14.6464C5.43503 14.6378 5.55236 14.7134 5.61072 14.7453L5.8284 14.7089C6.32934 16.2253 7.37916 17.4509 8.70848 18.22L8.61778 18.4325C8.65047 18.5151 8.68653 18.6267 8.66218 18.7082C8.56525 18.9537 8.39921 19.2127 8.21015 19.5015C8.11861 19.6349 8.02492 19.7385 7.94231 19.8912C7.92254 19.9277 7.89737 19.9838 7.87828 20.0224C7.74993 20.2906 7.84408 20.5994 8.09064 20.7153C8.33874 20.8319 8.6467 20.7089 8.77998 20.4402C8.78018 20.4398 8.78085 20.4396 8.78104 20.4392C8.78118 20.4389 8.78091 20.4384 8.78104 20.4381C8.80002 20.4 8.82692 20.35 8.84293 20.3142C8.91369 20.1559 8.93723 20.0203 8.98699 19.8672C9.11913 19.5431 9.19172 19.2031 9.37362 18.9912C9.42343 18.9332 9.50464 18.9109 9.58883 18.8889L9.70194 18.6888C10.8608 19.1231 12.158 19.2397 13.4538 18.9524C13.7494 18.8869 14.0348 18.8021 14.3107 18.7003C14.3425 18.7553 14.4016 18.8612 14.4174 18.8878C14.503 18.915 14.5964 18.929 14.6724 19.0389C14.8085 19.2659 14.9016 19.5345 15.015 19.8589C15.0648 20.0119 15.0893 20.1476 15.1601 20.3058C15.1762 20.3419 15.203 20.3927 15.222 20.4308C15.355 20.7004 15.6639 20.8238 15.9124 20.7069C16.1589 20.591 16.2532 20.2822 16.1248 20.0141C16.1057 19.9755 16.0794 19.9194 16.0597 19.8828C15.977 19.7301 15.8834 19.6276 15.7918 19.4942C15.6027 19.2054 15.4459 18.9655 15.349 18.7201C15.3084 18.5935 15.3558 18.5148 15.3874 18.4325C15.3685 18.4114 15.328 18.2918 15.3042 18.2356C16.6857 17.4392 17.7046 16.1678 18.1832 14.6995C18.2478 14.7094 18.3601 14.7288 18.3966 14.736C18.4717 14.6876 18.5408 14.6245 18.6762 14.6349C18.9428 14.6725 19.2165 14.7692 19.5469 14.8849C19.7005 14.9424 19.8242 15.0091 19.9951 15.0537C20.0312 15.0632 20.0829 15.072 20.1242 15.0808C20.1275 15.0816 20.1305 15.0832 20.1338 15.0839C20.136 15.0844 20.1392 15.0845 20.1413 15.085C20.4374 15.1472 20.725 14.989 20.7858 14.7287C20.8466 14.4684 20.6576 14.2042 20.3632 14.1348C20.3204 14.1253 20.2597 14.1091 20.2181 14.1015C20.0443 14.0693 19.9029 14.0772 19.739 14.0639C19.3899 14.0282 19.1007 13.9992 18.8437 13.9202C18.7389 13.8805 18.6644 13.7588 18.6282 13.7087L18.4265 13.6514C18.531 12.9127 18.5028 12.144 18.3219 11.3749C18.1393 10.5985 17.8165 9.88853 17.3861 9.26298C17.4378 9.21706 17.5355 9.13259 17.5632 9.10774C17.5713 9.02025 17.5643 8.92852 17.6571 8.83164C17.8535 8.65158 18.1011 8.50227 18.3998 8.32216C18.5416 8.24073 18.6726 8.18824 18.8149 8.08566C18.8471 8.06246 18.891 8.02573 18.9248 7.99918C19.1644 7.8126 19.2195 7.4908 19.0475 7.28029C18.8755 7.06978 18.5422 7.04995 18.3027 7.23653C18.2686 7.2629 18.2223 7.29729 18.1917 7.323C18.0576 7.43563 17.9748 7.54686 17.862 7.6637C17.6157 7.90794 17.4121 8.11171 17.1886 8.25861C17.0918 8.31365 16.95 8.29461 16.8856 8.29091L16.6957 8.42322C15.6126 7.31432 14.1379 6.60535 12.55 6.46762C12.5456 6.40265 12.5398 6.28521 12.5383 6.24987C12.4733 6.18914 12.3947 6.13729 12.375 6.00607C12.3533 5.74389 12.3896 5.46181 12.4316 5.12152C12.4548 4.96253 12.4933 4.83045 12.4999 4.65788C12.5014 4.61866 12.499 4.56173 12.4988 4.51931C12.4988 4.22012 12.2752 3.97751 11.9994 3.97754ZM11.3741 7.75955L11.2258 10.3174L11.2151 10.3226C11.2051 10.5514 11.0122 10.7341 10.7754 10.7341C10.6784 10.7341 10.5889 10.7037 10.5161 10.6518L10.5119 10.6539L8.36381 9.16712C9.024 8.53329 9.86843 8.06489 10.8416 7.84915C11.0194 7.80974 11.1971 7.7805 11.3741 7.75955ZM12.6258 7.75955C13.762 7.89599 14.8127 8.3983 15.6179 9.16817L13.4837 10.6455L13.4762 10.6424C13.2868 10.7775 13.0199 10.744 12.8723 10.5632C12.8118 10.4892 12.7801 10.4021 12.7762 10.3142L12.7741 10.3132L12.6258 7.75955ZM7.58484 10.1225L9.54615 11.8354L9.54402 11.8458C9.72105 11.996 9.74715 12.2568 9.5995 12.4376C9.53902 12.5116 9.45807 12.5613 9.37115 12.5845L9.36901 12.5928L6.85495 13.3013C6.72699 12.1589 7.00275 11.0484 7.58484 10.1225ZM16.4001 10.1236C16.6915 10.5847 16.9122 11.0998 17.0435 11.6582C17.1733 12.21 17.2059 12.7607 17.1524 13.293L14.6255 12.5824L14.6234 12.572C14.3971 12.5116 14.258 12.2869 14.3107 12.0615C14.3323 11.9691 14.3825 11.891 14.4505 11.8333L14.4494 11.8281L16.4001 10.1236ZM11.5971 11.9677H12.4006L12.9 12.5772L12.7207 13.3378L11.9994 13.6764L11.2759 13.3367L11.0966 12.5761L11.5971 11.9677ZM14.1731 14.0535C14.2072 14.0518 14.2412 14.0548 14.2744 14.0608L14.2787 14.0556L16.8792 14.4849C16.4986 15.5288 15.7704 16.4333 14.7973 17.0385L13.7878 14.6578L13.791 14.6536C13.6983 14.4433 13.7911 14.1966 14.0045 14.0962C14.0591 14.0706 14.1161 14.0563 14.1731 14.0535ZM9.80545 14.0639C10.0039 14.0667 10.1819 14.2011 10.228 14.3984C10.2496 14.4907 10.2391 14.5822 10.2035 14.663L10.2109 14.6724L9.21215 17.0291C8.27833 16.444 7.53454 15.568 7.13666 14.4932L9.71475 14.066L9.71902 14.0712C9.74786 14.0661 9.7771 14.0636 9.80545 14.0639ZM11.9834 15.0964C12.0525 15.094 12.1227 15.1078 12.1893 15.1392C12.2767 15.1802 12.3442 15.245 12.3867 15.3225H12.3963L13.6673 17.5646C13.5023 17.6186 13.3327 17.6648 13.1593 17.7032C12.1873 17.9187 11.2185 17.8534 10.3411 17.5615L11.6088 15.3236H11.611C11.687 15.1847 11.8313 15.1019 11.9834 15.0964Z" fill="white" stroke="white" stroke-width="0.25"/>
</svg>
