<svg width="24" height="24" viewBox="0 0 24 24" fill="none" xmlns="http://www.w3.org/2000/svg">
<g clip-path="url(#clip0_1535_3245)">
<path d="M9.49766 6.79785L9.56205 8.31767L8.53181 10.3001L6.92205 13.5379L6.6001 16.2472L7.75912 20.0798L10.3991 21.5996H14.3913L18.126 18.6921L19.8001 14.1326L15.9367 9.30886L14.842 6.59961L9.49766 6.79785Z" fill="#ECEFF1"/>
<path d="M18.6151 10.6613C17.5811 9.12734 16.741 8.1936 16.2887 6.25942C15.8363 4.32524 16.1594 4.72538 16.0302 3.19141C15.8363 2.32436 15.5132 1.7241 15.1901 1.25723C14.8024 0.790354 14.35 0.523571 14.0915 0.456875C13.5099 0.123396 12.1529 -0.410172 10.4727 0.523571C8.72791 1.45731 8.92177 3.45819 9.24488 7.52664C9.24488 7.79342 9.18026 8.1269 9.05102 8.39369C8.79253 8.99395 8.34017 9.52752 7.95244 9.99439C7.50009 10.6613 7.04773 11.3283 6.72462 12.062C5.94916 13.596 5.23831 15.5301 5.43218 16.2638C5.75529 16.1971 9.82648 22.5999 9.82648 22.7333C10.085 22.6666 11.1835 22.6666 12.1529 22.6666C13.5099 22.5999 14.2854 22.5332 15.384 22.8C15.384 22.5999 15.3194 22.3998 15.3194 22.1997C15.3194 21.7996 15.384 21.4661 15.4486 20.9992C15.5132 20.6657 15.5778 20.3323 15.6425 19.9321C14.9962 20.5323 13.8331 21.1993 12.7345 21.3994C11.7651 21.5995 10.1496 21.266 9.37413 20.2656C9.43875 20.2656 9.56799 20.2656 9.63261 20.1989C9.82648 20.1322 10.0203 20.0655 10.085 19.9321C10.2788 19.5986 10.1496 19.2651 10.0203 19.065C9.8911 18.8649 8.92177 18.1313 8.46942 17.7311C8.01706 17.3309 7.75857 17.1308 7.50009 16.8641C7.50009 16.8641 7.11235 16.4639 6.98311 16.3305C6.85386 16.1971 6.78924 16.0637 6.72462 15.997C6.59538 15.6635 6.53075 15.2634 6.59538 14.7298C6.66 13.9961 6.91849 13.3959 7.2416 12.7289C7.37084 12.4621 7.69395 11.9286 7.69395 11.9286C7.69395 11.9286 6.59538 14.7298 7.17698 15.5968C7.17698 15.5968 7.2416 14.7298 7.50009 13.8628C7.69395 13.2625 8.01706 12.3954 8.4048 11.9286C8.79253 11.4617 9.76186 9.7276 9.82648 8.66047C9.82648 8.1936 9.8911 7.72673 9.8911 7.39325C9.63261 7.12646 14.1562 6.45951 14.4146 7.19316C14.4793 7.45994 15.384 9.861 15.901 11.1282C16.1594 11.7285 16.4826 12.262 16.6764 12.929C16.8703 13.6627 16.9995 14.6631 16.9995 15.6635C16.9995 15.8636 16.9995 16.1971 16.9349 16.5306C17.0642 16.5306 19.5844 13.7294 16.6118 11.395C16.6118 11.395 18.4212 12.262 18.4858 13.9961C18.5505 15.3968 17.9689 16.5306 17.8396 16.7307C17.9042 16.7307 19.1967 17.3309 19.2613 17.3309C19.5198 17.3309 20.0368 17.1308 20.0368 17.1308C20.1014 16.9308 20.2953 16.3972 20.2953 16.1971C20.7476 14.6631 19.649 12.1954 18.6151 10.6613Z" fill="#202020"/>
<path d="M10.393 6.26579C10.8659 6.26579 11.2493 5.67594 11.2493 4.94832C11.2493 4.22071 10.8659 3.63086 10.393 3.63086C9.92002 3.63086 9.53662 4.22071 9.53662 4.94832C9.53662 5.67594 9.92002 6.26579 10.393 6.26579Z" fill="#ECEFF1"/>
<path d="M13.3576 6.39736C13.9761 6.39736 14.4775 5.71903 14.4775 4.88227C14.4775 4.04551 13.9761 3.36719 13.3576 3.36719C12.7392 3.36719 12.2378 4.04551 12.2378 4.88227C12.2378 5.71903 12.7392 6.39736 13.3576 6.39736Z" fill="#ECEFF1"/>
<path d="M10.8715 5.0386C10.8167 4.60548 10.5675 4.28025 10.3149 4.31219C10.0622 4.34412 9.90179 4.72112 9.95654 5.15424C10.0113 5.58736 10.2605 5.91259 10.5131 5.88065C10.7658 5.84872 10.9262 5.47172 10.8715 5.0386Z" fill="#212121"/>
<path d="M13.2915 6.00274C13.6554 6.00274 13.9503 5.61934 13.9503 5.14639C13.9503 4.67344 13.6554 4.29004 13.2915 4.29004C12.9277 4.29004 12.6328 4.67344 12.6328 5.14639C12.6328 5.61934 12.9277 6.00274 13.2915 6.00274Z" fill="#212121"/>
<path d="M22.0525 19.6366C21.789 19.5049 21.3279 19.3072 20.9327 18.7144C20.7351 18.385 20.8009 17.4628 20.4716 17.0676C20.2739 16.8041 20.0104 16.9358 19.9446 16.9358C19.3517 17.0676 17.9684 17.9898 17.0462 16.9358C16.9144 16.8041 16.7168 16.6064 16.3874 16.6064C16.0581 16.6064 15.9263 16.7382 15.7946 17.0017C15.6628 17.2652 15.6628 17.4628 15.6628 18.1215C15.6628 18.6485 15.6628 19.2414 15.5969 19.7025C15.4652 20.8223 15.2676 21.4811 15.2676 22.1398C15.2676 22.8644 15.4652 23.3255 15.7287 23.5231C15.9263 23.7208 16.2557 23.8525 16.9803 23.8525C17.7049 23.8525 18.166 23.589 18.6271 23.1279C18.9565 22.7985 19.22 22.6668 20.1422 22.008C20.8668 21.5469 21.9866 20.9541 22.1843 20.7565C22.316 20.6247 22.5136 20.5588 22.5136 20.1636C22.5136 19.8342 22.2501 19.7025 22.0525 19.6366Z" fill="#FFC107"/>
<path d="M8.81222 19.8343C8.15349 18.7803 8.08761 18.5827 7.6265 17.924C7.23126 17.2653 6.37491 16.0137 5.84793 16.0137C5.45269 16.0137 5.25507 16.2113 4.99157 16.4748C4.72808 16.7383 4.46459 17.3311 4.00348 17.6605C3.60824 17.9899 2.48839 17.924 2.2249 18.3192C1.96141 18.7145 2.48839 19.3073 2.48839 20.2954C2.48839 20.6907 2.15903 20.9542 2.09315 21.2177C2.02728 21.547 1.96141 21.7446 2.09315 22.0081C2.35665 22.4034 2.68601 22.5351 4.9257 22.9962C6.11142 23.2597 7.23126 23.9185 7.95587 23.9843C8.68047 24.0502 9.93206 23.9843 9.93206 22.2058C9.99794 21.1518 9.40508 20.8883 8.81222 19.8343Z" fill="#FFC107"/>
<path d="M10.064 7.91138C9.66872 7.64789 9.33936 7.3844 9.33936 6.98916C9.33936 6.59392 9.60285 6.46217 9.99809 6.13281C10.064 6.06694 10.7886 5.4082 11.5132 5.4082C12.2378 5.4082 13.0941 5.86932 13.4235 6.00106C14.0164 6.13281 14.6092 6.26455 14.5433 6.72567C14.4775 7.3844 14.4116 7.51615 13.7529 7.84551C13.2917 7.97726 12.4354 8.70186 11.8425 8.70186C11.579 8.70186 11.1838 8.70186 10.9203 8.63599C10.7227 8.57012 10.3933 8.24075 10.064 7.91138Z" fill="#FFC107"/>
<path d="M9.93175 7.38499C10.0635 7.51674 10.2611 7.64849 10.4587 7.71436C10.5905 7.78023 10.7881 7.84611 10.7881 7.84611C11.0516 7.84611 11.2492 7.84611 11.381 7.84611C11.7103 7.84611 12.1714 7.71436 12.6326 7.45087C13.0937 7.25325 13.1595 7.1215 13.4889 6.98975C13.8183 6.79213 14.1476 6.59452 14.0159 6.52864C13.8841 6.46277 13.7524 6.52864 13.2913 6.79213C12.896 7.05563 12.5667 7.18737 12.1714 7.38499C11.9738 7.45087 11.7103 7.58261 11.5127 7.58261C11.3151 7.58261 11.1175 7.58261 10.9198 7.58261C10.7222 7.58261 10.5905 7.51674 10.3929 7.45087C10.2611 7.38499 10.1952 7.31912 10.1294 7.31912C9.99762 7.25325 9.73413 6.98975 9.60238 6.92388C9.60238 6.92388 9.47064 6.92388 9.53651 6.98975C9.73413 7.18737 9.8 7.25325 9.93175 7.38499Z" fill="#202020"/>
<path d="M11.9082 5.93585C11.9741 6.06759 12.1058 6.06759 12.1717 6.13347C12.2376 6.19934 12.3034 6.19934 12.3034 6.19934C12.3693 6.13347 12.3034 6.00172 12.2376 6.00172C12.2376 5.86997 11.9082 5.86997 11.9082 5.93585Z" fill="#202020"/>
<path d="M10.854 6.06774C10.854 6.13361 10.9858 6.19948 10.9858 6.13361C11.0516 6.06774 11.1175 6.00186 11.1834 6.00186C11.3151 5.93599 11.2492 5.87012 11.0516 5.87012C10.9199 5.93599 10.9199 6.00186 10.854 6.06774Z" fill="#202020"/>
<path d="M17.0665 17.6333C17.0665 17.6791 17.0665 17.725 17.0665 17.7708C17.1998 17.954 17.5331 17.9998 17.7998 17.9998C18.1998 17.9998 18.5998 17.8166 18.7998 17.6333C18.7998 17.5875 18.8665 17.5417 18.9331 17.4959C19.0665 17.3585 19.1331 17.2669 19.1998 17.2211C19.1998 17.2211 19.1331 17.1753 19.1331 17.1294C19.0665 17.0378 18.8665 16.9462 18.5998 16.9004C18.3998 16.8546 18.0665 16.8088 17.9331 16.8088C17.3331 16.763 16.9998 16.9004 16.7998 17.0378C16.7998 17.0378 16.8665 17.0378 16.8665 17.0836C16.9998 17.1753 17.0665 17.2669 17.0665 17.4043C17.1331 17.4959 17.0665 17.5417 17.0665 17.6333Z" fill="#202020"/>
</g>
<defs>
<clipPath id="clip0_1535_3245">
<rect width="24" height="24" fill="white"/>
</clipPath>
</defs>
</svg>
