<svg width="24" height="24" viewBox="0 0 24 24" fill="none" xmlns="http://www.w3.org/2000/svg">
<g clip-path="url(#clip0_1535_3243)">
<path d="M9.49766 6.79785L9.56205 8.31767L8.53181 10.3001L6.92205 13.5379L6.6001 16.2472L7.75912 20.0798L10.3991 21.5996H14.3913L18.126 18.6921L19.8001 14.1326L15.9367 9.30886L14.842 6.59961L9.49766 6.79785Z" fill="#ECEFF1"/>
<path d="M18.6151 10.6613C17.5811 9.12734 16.741 8.1936 16.2887 6.25942C15.8363 4.32524 16.1594 4.72538 16.0302 3.19141C15.8363 2.32436 15.5132 1.7241 15.1901 1.25723C14.8024 0.790354 14.35 0.523571 14.0915 0.456875C13.5099 0.123396 12.1529 -0.410172 10.4727 0.523571C8.72791 1.45731 8.92177 3.45819 9.24488 7.52664C9.24488 7.79342 9.18026 8.1269 9.05102 8.39369C8.79253 8.99395 8.34017 9.52752 7.95244 9.99439C7.50009 10.6613 7.04773 11.3283 6.72462 12.062C5.94916 13.596 5.23831 15.5301 5.43218 16.2638C5.75529 16.1971 9.82648 22.5999 9.82648 22.7333C10.085 22.6666 11.1835 22.6666 12.1529 22.6666C13.5099 22.5999 14.2854 22.5332 15.384 22.8C15.384 22.5999 15.3194 22.3998 15.3194 22.1997C15.3194 21.7996 15.384 21.4661 15.4486 20.9992C15.5132 20.6657 15.5778 20.3323 15.6425 19.9321C14.9962 20.5323 13.8331 21.1993 12.7345 21.3994C11.7651 21.5995 10.1496 21.266 9.37413 20.2656C9.43875 20.2656 9.56799 20.2656 9.63261 20.1989C9.82648 20.1322 10.0203 20.0655 10.085 19.9321C10.2788 19.5986 10.1496 19.2651 10.0203 19.065C9.8911 18.8649 8.92177 18.1313 8.46942 17.7311C8.01706 17.3309 7.75857 17.1308 7.50009 16.8641C7.50009 16.8641 7.11235 16.4639 6.98311 16.3305C6.85386 16.1971 6.78924 16.0637 6.72462 15.997C6.59538 15.6635 6.53075 15.2634 6.59538 14.7298C6.66 13.9961 6.91849 13.3959 7.2416 12.7289C7.37084 12.4621 7.69395 11.9286 7.69395 11.9286C7.69395 11.9286 6.59538 14.7298 7.17698 15.5968C7.17698 15.5968 7.2416 14.7298 7.50009 13.8628C7.69395 13.2625 8.01706 12.3954 8.4048 11.9286C8.79253 11.4617 9.76186 9.7276 9.82648 8.66047C9.82648 8.1936 9.8911 7.72673 9.8911 7.39325C9.63261 7.12646 14.1562 6.45951 14.4146 7.19316C14.4793 7.45994 15.384 9.861 15.901 11.1282C16.1594 11.7285 16.4826 12.262 16.6764 12.929C16.8703 13.6627 16.9995 14.6631 16.9995 15.6635C16.9995 15.8636 16.9995 16.1971 16.9349 16.5306C17.0642 16.5306 19.5844 13.7294 16.6118 11.395C16.6118 11.395 18.4212 12.262 18.4858 13.9961C18.5505 15.3968 17.9689 16.5306 17.8396 16.7307C17.9042 16.7307 19.1967 17.3309 19.2613 17.3309C19.5198 17.3309 20.0368 17.1308 20.0368 17.1308C20.1014 16.9308 20.2953 16.3972 20.2953 16.1971C20.7476 14.6631 19.649 12.1954 18.6151 10.6613Z" fill="#202020"/>
<path d="M10.3932 6.26481C10.8662 6.26481 11.2496 5.67496 11.2496 4.94735C11.2496 4.21973 10.8662 3.62988 10.3932 3.62988C9.92027 3.62988 9.53687 4.21973 9.53687 4.94735C9.53687 5.67496 9.92027 6.26481 10.3932 6.26481Z" fill="#ECEFF1"/>
<path d="M13.3576 6.39638C13.9761 6.39638 14.4775 5.71805 14.4775 4.88129C14.4775 4.04454 13.9761 3.36621 13.3576 3.36621C12.7392 3.36621 12.2378 4.04454 12.2378 4.88129C12.2378 5.71805 12.7392 6.39638 13.3576 6.39638Z" fill="#ECEFF1"/>
<path d="M10.8717 5.0386C10.817 4.60548 10.5678 4.28025 10.3151 4.31219C10.0625 4.34412 9.90204 4.72112 9.95678 5.15424C10.0115 5.58736 10.2607 5.91259 10.5134 5.88065C10.766 5.84872 10.9265 5.47172 10.8717 5.0386Z" fill="#212121"/>
<path d="M13.2918 6.00274C13.6556 6.00274 13.9505 5.61934 13.9505 5.14639C13.9505 4.67344 13.6556 4.29004 13.2918 4.29004C12.928 4.29004 12.6331 4.67344 12.6331 5.14639C12.6331 5.61934 12.928 6.00274 13.2918 6.00274Z" fill="#212121"/>
<path d="M22.0528 19.6366C21.7893 19.5049 21.3282 19.3072 20.9329 18.7144C20.7353 18.385 20.8012 17.4628 20.4718 17.0676C20.2742 16.8041 20.0107 16.9358 19.9448 16.9358C19.352 17.0676 17.9686 17.9898 17.0464 16.9358C16.9147 16.8041 16.717 16.6064 16.3877 16.6064C16.0583 16.6064 15.9266 16.7382 15.7948 17.0017C15.6631 17.2652 15.6631 17.4628 15.6631 18.1215C15.6631 18.6485 15.6631 19.2414 15.5972 19.7025C15.4654 20.8223 15.2678 21.4811 15.2678 22.1398C15.2678 22.8644 15.4654 23.3255 15.7289 23.5231C15.9266 23.7208 16.2559 23.8525 16.9805 23.8525C17.7051 23.8525 18.1662 23.589 18.6274 23.1279C18.9567 22.7985 19.2202 22.6668 20.1424 22.008C20.867 21.5469 21.9869 20.9541 22.1845 20.7565C22.3163 20.6247 22.5139 20.5588 22.5139 20.1636C22.5139 19.8342 22.2504 19.7025 22.0528 19.6366Z" fill="#FFC107"/>
<path d="M8.81222 19.8343C8.15349 18.7803 8.08761 18.5827 7.6265 17.924C7.23126 17.2653 6.37491 16.0137 5.84793 16.0137C5.45269 16.0137 5.25507 16.2113 4.99157 16.4748C4.72808 16.7383 4.46459 17.3311 4.00348 17.6605C3.60824 17.9899 2.48839 17.924 2.2249 18.3192C1.96141 18.7145 2.48839 19.3073 2.48839 20.2954C2.48839 20.6907 2.15903 20.9542 2.09315 21.2177C2.02728 21.547 1.96141 21.7446 2.09315 22.0081C2.35665 22.4034 2.68601 22.5351 4.9257 22.9962C6.11142 23.2597 7.23126 23.9185 7.95587 23.9843C8.68047 24.0502 9.93206 23.9843 9.93206 22.2058C9.99794 21.1518 9.40508 20.8883 8.81222 19.8343Z" fill="#FFC107"/>
<path d="M10.064 7.91138C9.66872 7.64789 9.33936 7.3844 9.33936 6.98916C9.33936 6.59392 9.60285 6.46217 9.99809 6.13281C10.064 6.06694 10.7886 5.4082 11.5132 5.4082C12.2378 5.4082 13.0941 5.86932 13.4235 6.00106C14.0164 6.13281 14.6092 6.26455 14.5433 6.72567C14.4775 7.3844 14.4116 7.51615 13.7529 7.84551C13.2917 7.97726 12.4354 8.70186 11.8425 8.70186C11.579 8.70186 11.1838 8.70186 10.9203 8.63599C10.7227 8.57012 10.3933 8.24075 10.064 7.91138Z" fill="#FFC107"/>
<path d="M9.93199 7.38499C10.0637 7.51674 10.2614 7.64849 10.459 7.71436C10.5907 7.78023 10.7883 7.84611 10.7883 7.84611C11.0518 7.84611 11.2495 7.84611 11.3812 7.84611C11.7106 7.84611 12.1717 7.71436 12.6328 7.45087C13.0939 7.25325 13.1598 7.1215 13.4891 6.98975C13.8185 6.79213 14.1479 6.59452 14.0161 6.52864C13.8844 6.46277 13.7526 6.52864 13.2915 6.79213C12.8963 7.05563 12.5669 7.18737 12.1717 7.38499C11.9741 7.45087 11.7106 7.58261 11.513 7.58261C11.3153 7.58261 11.1177 7.58261 10.9201 7.58261C10.7225 7.58261 10.5907 7.51674 10.3931 7.45087C10.2614 7.38499 10.1955 7.31912 10.1296 7.31912C9.99787 7.25325 9.73437 6.98975 9.60263 6.92388C9.60263 6.92388 9.47088 6.92388 9.53676 6.98975C9.73437 7.18737 9.80025 7.25325 9.93199 7.38499Z" fill="#202020"/>
<path d="M11.9084 5.93585C11.9743 6.06759 12.1061 6.06759 12.1719 6.13347C12.2378 6.19934 12.3037 6.19934 12.3037 6.19934C12.3696 6.13347 12.3037 6.00172 12.2378 6.00172C12.2378 5.86997 11.9084 5.86997 11.9084 5.93585Z" fill="#202020"/>
<path d="M10.8542 6.06774C10.8542 6.13361 10.986 6.19948 10.986 6.13361C11.0519 6.06774 11.1177 6.00186 11.1836 6.00186C11.3154 5.93599 11.2495 5.87012 11.0519 5.87012C10.9201 5.93599 10.9201 6.00186 10.8542 6.06774Z" fill="#202020"/>
<path d="M17.0667 17.6333C17.0667 17.6791 17.0667 17.725 17.0667 17.7708C17.2 17.954 17.5334 17.9998 17.8 17.9998C18.2 17.9998 18.6 17.8166 18.8 17.6333C18.8 17.5875 18.8667 17.5417 18.9334 17.4959C19.0667 17.3585 19.1334 17.2669 19.2 17.2211C19.2 17.2211 19.1334 17.1753 19.1334 17.1294C19.0667 17.0378 18.8667 16.9462 18.6 16.9004C18.4 16.8546 18.0667 16.8088 17.9334 16.8088C17.3334 16.763 17 16.9004 16.8 17.0378C16.8 17.0378 16.8667 17.0378 16.8667 17.0836C17 17.1753 17.0667 17.2669 17.0667 17.4043C17.1334 17.4959 17.0667 17.5417 17.0667 17.6333Z" fill="#202020"/>
</g>
<defs>
<clipPath id="clip0_1535_3243">
<rect width="24" height="24" fill="white"/>
</clipPath>
</defs>
</svg>
