<svg width="24" height="24" viewBox="0 0 24 24" fill="none" xmlns="http://www.w3.org/2000/svg">
<g clip-path="url(#clip0_1572_56)">
<g clip-path="url(#clip1_1572_56)">
<path d="M0.909766 6.6V6.62L11.0198 11.23H11.0298C11.3298 11.37 11.6598 11.44 11.9898 11.44C12.3198 11.44 12.6498 11.37 12.9498 11.23H12.9598L23.0698 6.62V6.6C23.2598 6.54 23.4198 6.42 23.5398 6.26C23.6598 6.1 23.7198 5.91 23.7298 5.72C23.7298 5.52 23.6598 5.33 23.5398 5.17C23.4198 5.01 23.2598 4.9 23.0698 4.84L12.9698 0.21H12.9498C12.6498 0.07 12.3198 0 11.9898 0C11.6598 0 11.3298 0.07 11.0298 0.21H11.0098L0.919766 4.84C0.729766 4.9 0.569766 5.02 0.449766 5.17C0.329766 5.33 0.259766 5.52 0.259766 5.72C0.259766 5.92 0.329766 6.11 0.449766 6.26C0.569766 6.42 0.729766 6.53 0.919766 6.6H0.909766Z" fill="#F1F2F6"/>
<path d="M23.07 11.12L21.09 10.21C17.99 11.63 13.76 13.56 13.71 13.57C12.61 14.01 11.38 14.01 10.28 13.57C10.23 13.55 6.01 11.63 2.91 10.21L0.92 11.12C0.73 11.17 0.56 11.29 0.44 11.45C0.32 11.61 0.25 11.8 0.25 12C0.25 12.2 0.31 12.39 0.43 12.55C0.55 12.71 0.72 12.83 0.91 12.88V12.9L11.02 17.51H11.03C11.33 17.65 11.66 17.72 11.99 17.72C12.32 17.72 12.65 17.65 12.95 17.51H12.96L23.07 12.9V12.88C23.26 12.83 23.43 12.71 23.55 12.55C23.67 12.39 23.73 12.2 23.73 12C23.73 11.8 23.67 11.61 23.55 11.45C23.43 11.29 23.26 11.18 23.07 11.12Z" fill="#F1F2F6"/>
<path d="M23.07 17.3905L21.09 16.4805C17.99 17.9005 13.76 19.8305 13.71 19.8405C12.61 20.2805 11.38 20.2805 10.28 19.8405C10.23 19.8205 6.01 17.9005 2.91 16.4805L0.92 17.3905C0.73 17.4405 0.56 17.5605 0.44 17.7205C0.32 17.8805 0.25 18.0705 0.25 18.2705C0.25 18.4705 0.31 18.6605 0.43 18.8205C0.55 18.9805 0.72 19.1005 0.91 19.1505V19.1705L11.02 23.7805H11.03C11.33 23.9205 11.66 23.9905 11.99 23.9905C12.32 23.9905 12.65 23.9205 12.95 23.7805H12.96L23.07 19.1705V19.1505C23.26 19.0905 23.43 18.9805 23.55 18.8205C23.67 18.6605 23.73 18.4705 23.73 18.2705C23.73 18.0705 23.67 17.8805 23.55 17.7205C23.43 17.5605 23.26 17.4505 23.07 17.3905Z" fill="#F1F2F6"/>
</g>
</g>
<defs>
<clipPath id="clip0_1572_56">
<rect width="24" height="24" fill="white"/>
</clipPath>
<clipPath id="clip1_1572_56">
<rect width="24" height="24" fill="white"/>
</clipPath>
</defs>
</svg>
