<svg width="24" height="24" viewBox="0 0 24 24" fill="none" xmlns="http://www.w3.org/2000/svg">
<g clip-path="url(#clip0_3277_78)">
<path d="M24 17.4004H13.7139V20.9999H24V17.4004Z" fill="#E10500"/>
<path d="M10.2861 17.4004H0V20.9999H10.2861V17.4004Z" fill="#E10500"/>
<path d="M20.5696 13.7988H17.1416V17.3983H20.5696V13.7988Z" fill="#FA500F"/>
<path d="M13.7127 13.7988H10.2847V17.3983H13.7127V13.7988Z" fill="#FA500F"/>
<path d="M6.85572 13.7988H3.42773V17.3983H6.85572V13.7988Z" fill="#FA500F"/>
<path d="M20.5696 3H17.1416V6.59948H20.5696V3Z" fill="#FFD800"/>
<path d="M6.85572 3H3.42773V6.59948H6.85572V3Z" fill="#FFD800"/>
<path d="M20.5697 6.59912H13.7137V10.1986H20.5697V6.59912Z" fill="#FFAF00"/>
<path d="M10.2838 6.59912H3.42773V10.1986H10.2838V6.59912Z" fill="#FFAF00"/>
<path d="M20.5699 10.1982H3.42773V13.7977H20.5699V10.1982Z" fill="#FF8205"/>
</g>
<defs>
<clipPath id="clip0_3277_78">
<rect width="24" height="24" fill="white"/>
</clipPath>
</defs>
</svg>
