<svg width="24" height="24" viewBox="0 0 24 24" fill="none" xmlns="http://www.w3.org/2000/svg">
<g clip-path="url(#clip0_1535_2753)">
<path d="M0 14.6323V11.213H0.780018V11.6462C0.976813 11.2952 1.40538 11.1123 1.79139 11.1123C2.24103 11.1123 2.63419 11.3163 2.81709 11.7166C3.08468 11.267 3.48502 11.1123 3.92748 11.1123C4.54611 11.1123 5.13607 11.5059 5.13607 12.4123V14.6323H4.34931V12.5455C4.34931 12.1452 4.14535 11.843 3.68856 11.843C3.25997 11.843 2.97891 12.1801 2.97891 12.6015V14.6319H2.17824V12.5455C2.17824 12.1523 1.9806 11.8451 1.51705 11.8451C1.08174 11.8451 0.807411 12.1683 0.807411 12.6037V14.634L0 14.6323Z" fill="#333333"/>
<path d="M6.13354 14.6327V9.5459H6.94895V14.6327H6.13354Z" fill="#333333"/>
<path d="M6.62109 16.4942C6.8044 16.5452 6.96918 16.5785 7.31894 16.5785C7.96917 16.5785 8.73611 16.2119 8.93797 15.1828L9.7715 11.0569H11.0108L11.1621 10.3704H9.91015L10.0787 9.55035C10.2077 8.91361 10.56 8.59081 11.1255 8.59081C11.2726 8.59081 11.2313 8.60346 11.3623 8.62832L11.5435 7.92542C11.369 7.87316 11.2127 7.84198 10.8722 7.84198C10.5127 7.83657 10.1618 7.95153 9.87516 8.16857C9.55786 8.41382 9.34842 8.77412 9.25277 9.23935L9.01803 10.3704H7.90974L7.81913 11.0573H8.88108L8.11581 14.8723C8.03152 15.305 7.78542 15.8225 7.07916 15.8225C6.91902 15.8225 6.97717 15.8103 6.83223 15.7867L6.62109 16.4942Z" fill="#0194E2"/>
<path d="M15.8103 11.4281C15.099 10.9304 14.1306 11.0282 13.5332 11.6582C12.9359 12.2881 12.8896 13.2604 13.4243 13.9443L13.9583 13.5524C13.6932 13.2236 13.6394 12.7723 13.8197 12.3904C13.9999 12.0085 14.3826 11.7632 14.8049 11.7589L14.7922 12.1761L15.8103 11.4281Z" fill="#43C9ED"/>
<path d="M11.7452 14.604H10.9302L12.0473 9.47168H12.8623L11.7452 14.604Z" fill="#0194E2"/>
<path d="M16.2054 11.8168C16.1877 11.7923 16.1691 11.7683 16.1502 11.7451L15.636 12.1244C15.9263 12.4456 16.0016 12.9069 15.8285 13.3037C15.6555 13.7005 15.2661 13.9592 14.8333 13.9651L14.8459 13.5483L13.8164 14.3068C14.5219 14.7819 15.4668 14.6812 16.0564 14.0682C16.646 13.4551 16.7097 12.507 16.2075 11.8206L16.2054 11.8168Z" fill="#0194E2"/>
<path d="M17.1948 11.2109H18.0852L18.2664 13.5476L19.5344 11.2109L20.3798 11.2232L20.7119 13.5476L21.829 11.2109L22.6439 11.2232L20.9533 14.6344H20.1383L19.7456 12.189L18.4476 14.6344H17.6023L17.1948 11.2109Z" fill="#0194E2"/>
<path d="M23.135 11.2715H22.9663V11.2129H23.3725V11.2727H23.2041V11.7666H23.135V11.2715Z" fill="#0194E2"/>
<path d="M23.4751 11.2139H23.5594L23.6656 11.5088C23.6792 11.5468 23.6918 11.5855 23.7047 11.6243H23.7087C23.7217 11.5855 23.7336 11.5468 23.7466 11.5088L23.8518 11.2139H23.9362V11.7676H23.8705V11.4621C23.8705 11.4136 23.8758 11.347 23.8794 11.2977H23.8758L23.8338 11.4241L23.7292 11.7111H23.6834L23.5775 11.4246L23.5354 11.2982H23.5321C23.5359 11.3475 23.5414 11.414 23.5414 11.4625V11.768H23.4773L23.4751 11.2139Z" fill="#0194E2"/>
</g>
<defs>
<clipPath id="clip0_1535_2753">
<rect width="24" height="8.80734" fill="white" transform="translate(0 7.7998)"/>
</clipPath>
</defs>
</svg>
