<svg width="24" height="24" viewBox="0 0 24 24" fill="none" xmlns="http://www.w3.org/2000/svg">
<g clip-path="url(#clip0_1535_2765)">
<path d="M0 14.6328V11.2135H0.780018V11.6467C0.976813 11.2957 1.40538 11.1128 1.79139 11.1128C2.24103 11.1128 2.63419 11.3167 2.81709 11.7171C3.08468 11.2674 3.48502 11.1128 3.92748 11.1128C4.54611 11.1128 5.13607 11.5064 5.13607 12.4128V14.6328H4.34931V12.546C4.34931 12.1457 4.14535 11.8435 3.68856 11.8435C3.25997 11.8435 2.97891 12.1806 2.97891 12.602V14.6324H2.17824V12.546C2.17824 12.1528 1.9806 11.8456 1.51705 11.8456C1.08174 11.8456 0.807411 12.1688 0.807411 12.6041V14.6345L0 14.6328Z" fill="white"/>
<path d="M6.13379 14.6327V9.5459H6.94919V14.6327H6.13379Z" fill="white"/>
<path d="M6.62109 16.4942C6.8044 16.5452 6.96918 16.5785 7.31894 16.5785C7.96917 16.5785 8.73611 16.2119 8.93797 15.1828L9.7715 11.0569H11.0108L11.1621 10.3704H9.91015L10.0787 9.55035C10.2077 8.91361 10.56 8.59081 11.1255 8.59081C11.2726 8.59081 11.2313 8.60346 11.3623 8.62832L11.5435 7.92542C11.369 7.87316 11.2127 7.84198 10.8722 7.84198C10.5127 7.83657 10.1618 7.95153 9.87516 8.16857C9.55786 8.41382 9.34842 8.77412 9.25277 9.23935L9.01803 10.3704H7.90974L7.81913 11.0573H8.88108L8.11581 14.8723C8.03152 15.305 7.78542 15.8225 7.07916 15.8225C6.91902 15.8225 6.97717 15.8103 6.83223 15.7867L6.62109 16.4942Z" fill="#0194E2"/>
<path d="M15.8103 11.4276C15.099 10.9299 14.1306 11.0277 13.5332 11.6577C12.9359 12.2876 12.8896 13.2599 13.4243 13.9438L13.9583 13.5519C13.6932 13.2231 13.6394 12.7718 13.8197 12.3899C13.9999 12.008 14.3826 11.7627 14.8049 11.7584L14.7922 12.1756L15.8103 11.4276Z" fill="#43C9ED"/>
<path d="M11.7452 14.6045H10.9302L12.0473 9.47217H12.8623L11.7452 14.6045Z" fill="#0194E2"/>
<path d="M16.2054 11.8173C16.1877 11.7928 16.1691 11.7688 16.1502 11.7456L15.636 12.1249C15.9263 12.4461 16.0016 12.9074 15.8285 13.3042C15.6555 13.701 15.2661 13.9597 14.8333 13.9656L14.8459 13.5488L13.8164 14.3073C14.5219 14.7824 15.4668 14.6817 16.0564 14.0687C16.646 13.4556 16.7097 12.5075 16.2075 11.821L16.2054 11.8173Z" fill="#0194E2"/>
<path d="M17.1948 11.2109H18.0852L18.2664 13.5476L19.5344 11.2109L20.3798 11.2232L20.7119 13.5476L21.829 11.2109L22.6439 11.2232L20.9533 14.6344H20.1383L19.7456 12.189L18.4476 14.6344H17.6023L17.1948 11.2109Z" fill="#0194E2"/>
<path d="M23.135 11.2715H22.9663V11.2129H23.3725V11.2727H23.2041V11.7666H23.135V11.2715Z" fill="#0194E2"/>
<path d="M23.4751 11.2134H23.5594L23.6656 11.5084C23.6792 11.5463 23.6918 11.585 23.7047 11.6238H23.7087C23.7217 11.585 23.7336 11.5463 23.7466 11.5084L23.8518 11.2134H23.9362V11.7671H23.8705V11.4616C23.8705 11.4131 23.8758 11.3465 23.8794 11.2972H23.8758L23.8338 11.4237L23.7292 11.7106H23.6834L23.5775 11.4241L23.5354 11.2977H23.5321C23.5359 11.347 23.5414 11.4135 23.5414 11.462V11.7675H23.4773L23.4751 11.2134Z" fill="#0194E2"/>
</g>
<defs>
<clipPath id="clip0_1535_2765">
<rect width="24" height="8.80734" fill="white" transform="translate(0 7.7998)"/>
</clipPath>
</defs>
</svg>
