<svg width="24" height="24" viewBox="0 0 24 24" fill="none" xmlns="http://www.w3.org/2000/svg">
<path d="M1.80005 18.5999H3.44461V6.90847H3.64124C3.87363 6.90847 3.96301 6.9839 4.05239 7.15362L6.25109 13.3765H7.50239L9.7011 7.15362C9.79048 6.9839 9.87986 6.90847 10.1301 6.90847H10.3089V18.5999H11.9356V6.90847H11.9534V5.3999H10.3089V5.70162C10.2552 6.02219 10.005 6.26733 9.7011 6.26733H8.39618L6.87674 10.6422L5.35731 6.26733H4.07026C3.71275 6.26733 3.44461 5.96562 3.44461 5.58847V5.3999H1.80005V18.5999Z" fill="#5558FA"/>
<path d="M16.7658 7.13476H18.5713V5.3999H13.3158V7.13476H15.1213V16.865H13.3158V18.5999H21.3956V18.3925C21.3956 18.0342 21.6638 17.7325 22.0213 17.7325H22.2V13.037H20.5555V16.2616C20.5376 16.601 20.2695 16.865 19.9477 16.865H16.7658V7.13476Z" fill="#5558FA"/>
</svg>
