<svg width="24" height="24" viewBox="0 0 24 24" fill="none" xmlns="http://www.w3.org/2000/svg">
<path d="M1.7998 18.5999H3.44437V6.90847H3.641C3.87338 6.90847 3.96276 6.9839 4.05214 7.15362L6.25085 13.3765H7.50215L9.70086 7.15362C9.79024 6.9839 9.87961 6.90847 10.1299 6.90847H10.3086V18.5999H11.9353V6.90847H11.9532V5.3999H10.3086V5.70162C10.255 6.02219 10.0047 6.26733 9.70086 6.26733H8.39593L6.8765 10.6422L5.35707 6.26733H4.07002C3.7125 6.26733 3.44437 5.96562 3.44437 5.58847V5.3999H1.7998V18.5999Z" fill="#7686EE"/>
<path d="M16.7656 7.13476H18.571V5.3999H13.3156V7.13476H15.121V16.865H13.3156V18.5999H21.3954V18.3925C21.3954 18.0342 21.6635 17.7325 22.021 17.7325H22.1998V13.037H20.5552V16.2616C20.5374 16.601 20.2692 16.865 19.9475 16.865H16.7656V7.13476Z" fill="#7686EE"/>
</svg>
