<svg width="24" height="24" viewBox="0 0 24 24" fill="none" xmlns="http://www.w3.org/2000/svg">
<path d="M13.7818 11.2041L10.8719 12.7735L8.34022 14.619L7.63195 14.9278C7.45157 15.2112 7.26244 15.4983 7.05788 15.7889C6.83353 16.1085 6.62458 16.3992 6.46398 16.6099C6.28584 16.8424 6.02189 17.2783 5.88773 17.5544C5.68756 17.9685 5.5292 18.4081 5.46101 18.746C5.34003 19.3564 5.39944 19.9739 5.63258 20.5443C5.93172 21.2709 6.5278 22.012 7.22283 22.5169C7.57698 22.7749 8.17304 23.1055 8.62173 23.2907C9.36735 23.6032 10.8103 23.941 11.6043 23.9919C11.7648 24.0028 11.9804 24.0028 11.9892 23.9919C12.0068 23.9737 12.13 23.585 12.273 23.1019C12.7613 21.4562 13.1132 19.9122 13.3045 18.5935C13.4189 17.7943 13.5091 16.7298 13.5684 15.4692C13.5838 15.1168 13.5904 13.9361 13.5772 13.5365C13.5574 12.8826 13.5222 12.3522 13.4673 11.8327C13.4585 11.7564 13.4562 11.6874 13.4607 11.6837C13.4694 11.6729 13.4958 11.6583 13.8544 11.4875L13.7818 11.2042V11.2041H13.7818V11.2041ZM13.1176 11.8472C13.144 11.8472 13.2143 12.9624 13.2319 13.6673C13.2364 13.8162 13.2341 13.9143 13.2297 13.9143C13.2122 13.9143 12.858 13.5692 12.6051 13.3076C12.3851 13.0787 11.9672 12.621 11.9013 12.5338C11.8792 12.5084 11.8814 12.5048 12.0618 12.403C12.3675 12.2322 13.0934 11.8472 13.1176 11.8472ZM11.6351 12.6537C11.6549 12.6537 11.7055 12.7009 11.8264 12.8244C12.2795 13.293 12.8954 13.8598 13.1594 14.0487C13.2407 14.1069 13.2495 14.085 13.0626 14.2958C12.6623 14.7462 12.1629 15.1894 11.5515 15.6363C11.4437 15.7162 11.3535 15.7779 11.3514 15.7779C11.347 15.7779 11.3601 15.6872 11.3777 15.5782C11.5251 14.6735 11.6087 13.758 11.6131 13.0242C11.6153 12.6609 11.6153 12.6609 11.6351 12.65C11.6307 12.6537 11.6329 12.6537 11.6351 12.6537ZM11.3294 12.8462C11.3425 12.868 11.3338 13.6818 11.3161 13.9034C11.2766 14.4338 11.215 14.9278 11.1138 15.4837C11.0896 15.618 11.0676 15.7307 11.0632 15.738C11.0544 15.7561 10.7531 15.2693 10.6541 15.0804C10.4825 14.7534 10.3484 14.4265 10.2494 14.1068C10.1988 13.9433 10.1196 13.6237 10.1262 13.6127C10.1614 13.5728 11.3206 12.8317 11.3294 12.8462ZM9.89086 13.7798C9.89305 13.7798 9.89524 13.7798 9.89747 13.7835C9.90185 13.7907 9.91728 13.8489 9.93047 13.9142C10.0008 14.2303 10.1592 14.6953 10.2956 14.9932C10.4452 15.3202 10.6409 15.6689 10.8037 15.8978C10.8565 15.9705 10.9048 16.0395 10.9114 16.0504C10.9246 16.0722 10.929 16.0685 10.5705 16.2938C10.1548 16.5554 9.70169 16.8169 9.18259 17.093C9.05859 17.159 8.9347 17.2256 8.81093 17.2928C8.7911 17.3037 8.79771 17.2856 8.8549 17.1366C9.11223 16.4718 9.50373 15.1676 9.7237 14.2448C9.7611 14.085 9.79848 13.9252 9.8051 13.8888C9.8139 13.8379 9.82488 13.8198 9.85346 13.7943C9.86886 13.7871 9.88427 13.7798 9.89086 13.7798ZM9.45099 14.0814C9.45757 14.0887 9.34539 14.4774 9.23542 14.8334C9.02205 15.52 8.78891 16.1957 8.47658 17.0168C8.42379 17.1584 8.37322 17.2892 8.36661 17.3038C8.35562 17.3292 8.3512 17.3219 8.31602 17.2093C8.24123 16.9659 8.17963 16.6534 8.14664 16.3664C8.11364 16.0831 8.12025 15.589 8.15766 15.2839C8.18622 15.0586 8.18405 15.0623 8.25003 15.0078C8.53156 14.7716 9.44219 14.0668 9.45099 14.0814ZM13.2452 14.3357V14.4883C13.2452 15.2984 13.1924 16.4101 13.1154 17.2202C13.1022 17.3619 13.0911 17.4781 13.089 17.4818C13.089 17.4818 13.0252 17.4528 12.9504 17.4164C12.6205 17.2456 12.262 16.9949 11.9386 16.7007C11.7252 16.5082 11.4151 16.1921 11.4239 16.1775C11.4261 16.1739 11.5185 16.094 11.6263 15.9995C12.0574 15.629 12.4709 15.2294 12.8294 14.8334C12.9636 14.6844 13.1659 14.4447 13.21 14.3793L13.2452 14.3357ZM7.79031 15.411C7.79911 15.411 7.79691 15.44 7.78371 15.5708C7.77491 15.6653 7.76392 15.8397 7.75955 15.9595C7.74191 16.4899 7.79474 16.8823 7.9531 17.42C7.99709 17.5689 8.0323 17.6924 8.03007 17.696C8.01466 17.7179 6.55861 18.4227 6.10107 18.6297C5.96471 18.6915 5.84596 18.746 5.83712 18.7496C5.82175 18.7569 5.81954 18.7532 5.82613 18.6914C5.87671 18.1574 6.12307 17.4599 6.46619 16.8714C6.69495 16.479 6.87752 16.2502 7.18985 15.9559C7.4142 15.7452 7.75952 15.4292 7.78591 15.4146C7.78593 15.411 7.78812 15.411 7.79031 15.411ZM11.2216 16.4246C11.2238 16.4209 11.2766 16.4682 11.3403 16.5299C11.811 16.9804 12.4665 17.3982 13.0251 17.6125L13.0758 17.6307L13.0054 17.696C12.7128 17.9649 11.7517 18.6261 10.7685 19.2328C10.6255 19.3199 10.4847 19.4072 10.4583 19.4253C10.4319 19.4434 10.4077 19.4544 10.4077 19.4508C10.4077 19.4471 10.4473 19.3199 10.4979 19.1637C10.7728 18.3137 11.05 17.2783 11.1908 16.559C11.2084 16.49 11.2194 16.4282 11.2216 16.4246ZM10.8719 16.6135C10.8741 16.6172 10.8565 16.6934 10.8345 16.7806C10.6431 17.5471 10.3923 18.3827 10.0712 19.32C9.98986 19.5598 9.92166 19.7524 9.91943 19.7524C9.91727 19.7524 9.85126 19.6869 9.77208 19.607C9.30576 19.1347 8.89226 18.5535 8.62174 17.9904L8.58213 17.9104L8.78227 17.8196C9.49933 17.4963 10.1086 17.1476 10.7135 16.7189C10.7993 16.6607 10.8697 16.6135 10.8719 16.6135ZM13.045 17.8668C13.045 17.8668 13.0472 17.8705 13.045 17.8668C13.0472 17.9504 12.935 18.6988 12.8426 19.24C12.7656 19.6941 12.6996 20.0502 12.5787 20.6786C12.5259 20.9548 12.4797 21.1836 12.4775 21.1836C12.4753 21.1836 12.4621 21.18 12.4489 21.1728C11.7957 20.9765 11.2106 20.7041 10.6607 20.3408C10.5067 20.2391 10.2868 20.0756 10.2736 20.0574C10.2692 20.0501 10.4012 19.9484 10.5683 19.8285C11.5691 19.1056 12.6073 18.2846 12.9636 17.9322C13.0054 17.8886 13.0384 17.8668 13.045 17.8668ZM8.02788 18.1502C8.03228 18.1575 7.75294 18.8223 7.3614 19.7269C7.22504 20.0429 7.06668 20.4135 7.00731 20.5515C6.94791 20.6896 6.85774 20.9076 6.80715 21.0383L6.71473 21.2745L6.61574 21.1364C6.49916 20.9766 6.29683 20.6351 6.20665 20.4462C6.01748 20.0575 5.88993 19.647 5.83934 19.2728C5.81514 19.0984 5.81514 19.0112 5.83711 19.0003C5.87009 18.9858 6.45737 18.7569 7.00729 18.5462C7.31302 18.43 7.66712 18.2919 7.79469 18.2411C7.92228 18.1901 8.02569 18.1502 8.02788 18.1502ZM8.3094 18.3282L8.37976 18.459C8.69654 19.0439 9.01986 19.4763 9.41137 19.854C9.48177 19.9195 9.53455 19.9775 9.53013 19.9812C9.51477 19.9994 8.17082 20.7876 7.54837 21.1437C7.19866 21.3471 6.9105 21.5106 6.90833 21.5106C6.90614 21.5106 6.88633 21.4888 6.8643 21.4634L6.82473 21.4161L6.88851 21.2636C7.09525 20.7695 7.35484 20.2282 7.92011 19.102L8.3094 18.3282ZM10.0647 20.4026C10.0668 20.399 10.1636 20.457 10.2824 20.5298C10.5683 20.7078 10.7948 20.8204 11.0984 20.9475C11.4723 21.1038 12.0134 21.2563 12.3324 21.2999C12.3808 21.3072 12.4071 21.3145 12.3983 21.3254C12.3829 21.3399 12.0596 21.5179 11.8221 21.6414C11.4437 21.8376 10.289 22.4007 9.3476 22.8475C9.17383 22.9311 9.02425 23.0001 9.01546 23.0037C8.99349 23.011 8.92088 22.9783 8.92088 22.9638C8.92088 22.9565 8.97366 22.8439 9.03746 22.7204C9.35417 22.0955 9.66873 21.398 9.93047 20.7368C10.003 20.5551 10.0647 20.4062 10.0647 20.4026ZM9.6775 20.4208C9.67969 20.4244 9.52354 20.8385 9.25083 21.5506C9.13423 21.8521 9.00445 22.1936 8.95825 22.3135C8.91426 22.4297 8.84828 22.6114 8.81091 22.7131L8.74711 22.8984L8.71412 22.8838C8.63492 22.8475 8.07845 22.5241 7.93108 22.4261C7.7485 22.3062 7.55935 22.1609 7.41857 22.0374C7.24263 21.8812 7.02269 21.6486 7.04027 21.6414C7.04466 21.6378 7.34601 21.5033 7.70891 21.3399C8.67231 20.9075 9.20678 20.6569 9.55654 20.4752C9.62034 20.4425 9.67531 20.4171 9.6775 20.4208ZM12.4159 21.4815H12.4181C12.4269 21.5179 12.0706 23.1527 11.9408 23.6685C11.9122 23.7848 11.9013 23.8139 11.8858 23.8102C11.8484 23.8066 11.3316 23.6867 11.017 23.6104C10.4694 23.4724 9.54993 23.2071 9.319 23.12L9.26622 23.1018L9.5939 22.9782C10.2978 22.7167 10.6365 22.575 10.9796 22.4006C11.4129 22.1827 11.8419 21.9102 12.2751 21.576C12.3433 21.5251 12.4005 21.4852 12.4159 21.4815Z" fill="url(#paint0_linear_1535_2914)"/>
<path d="M10.7821 0.000186071C10.7337 -0.0106528 9.95283 0.454348 9.44916 0.792164C8.76948 1.24996 8.24163 1.68593 7.91608 2.06367C7.79513 2.20541 7.64333 2.45605 7.61917 2.55412C7.61038 2.59045 7.60596 2.63404 7.60596 2.67763L7.90071 3.13901L8.60234 3.50956L10.2718 4.00365L12.181 4.54496L12.2008 4.27249C12.1942 4.27249 12.1898 4.26887 12.1832 4.26887L11.9324 4.20345L11.8819 4.05452C11.6223 3.29887 11.3364 2.36158 11.1692 1.72945C11.0395 1.239 10.9163 0.672332 10.8481 0.265429C10.8107 0.018396 10.8063 0.0038716 10.7821 0.000253045V0.0001692H10.7821V0.000186071ZM10.7468 0.18552H10.7491C10.7513 0.189105 10.7601 0.290893 10.7689 0.410708C10.8062 0.919383 10.8745 1.40975 10.9822 1.94017C11.0636 2.3398 11.0636 2.31802 10.969 2.27076C10.7447 2.16907 9.73952 1.88207 9.01147 1.71496C8.89489 1.68951 8.79591 1.6641 8.79591 1.66048C8.78711 1.64596 9.32158 1.18454 9.55693 1.00294C9.85827 0.774021 10.6853 0.203663 10.7468 0.18552ZM8.62651 1.81303L8.71233 1.86021C9.17859 2.12181 10.3509 2.49238 10.9976 2.57956C11.0702 2.59047 11.1318 2.60139 11.134 2.60139C11.1361 2.60501 11.0746 2.65951 10.9954 2.72124C10.6831 2.97918 10.34 3.29525 10.1024 3.53866C10.032 3.61129 9.96822 3.66945 9.95944 3.66945C9.95064 3.66945 9.90447 3.65491 9.85608 3.644L9.7681 3.62217L9.54817 3.26613C9.16105 2.64495 8.8575 2.16542 8.74092 1.98374L8.62651 1.81303ZM8.53856 1.92563L8.84869 2.56504C9.01803 2.91743 9.1896 3.26253 9.22703 3.33879C9.26438 3.41513 9.2952 3.47691 9.29301 3.48053C9.2842 3.49142 8.84433 3.34971 8.61114 3.26256C8.3714 3.17172 8.27242 3.12812 8.12506 3.05187L8.00407 2.98645V2.93555C8.00626 2.69214 8.19325 2.32888 8.50997 1.95836L8.53856 1.92563ZM11.1736 2.79753C11.1824 2.79753 11.1934 2.83021 11.2198 2.9283C11.2945 3.20075 11.5277 3.93463 11.5849 4.07629C11.6025 4.12356 11.6333 4.12718 11.3232 4.04362C10.5775 3.84376 10.3378 3.77844 10.3378 3.77117C10.3378 3.76755 10.3598 3.74211 10.3884 3.71666C10.6193 3.506 10.8524 3.23713 11.0592 2.95013C11.1098 2.88109 11.156 2.81571 11.1648 2.80478C11.167 2.79753 11.1714 2.79391 11.1736 2.79753Z" fill="url(#paint1_linear_1535_2914)"/>
<path d="M7.63352 2.50342C7.63352 2.50342 7.58516 2.63062 7.63134 2.81954C7.65996 2.93575 7.74353 3.07741 7.83809 3.22276C7.83809 3.22276 8.81688 4.79941 8.93566 5.02468C9.47672 6.05639 9.71208 7.0736 9.73408 8.47591C9.74728 9.37686 9.64387 10.1688 9.38655 11.088C8.92905 12.7373 7.96344 14.5574 6.47437 16.5773L6.69215 16.4574C6.83291 16.283 7.02428 16.0977 7.47297 15.6908C8.50893 14.7535 9.67469 13.8925 11.1044 13.0061C13.1631 11.7273 16.5482 10.2305 18.475 9.74378L18.6751 9.69288L18.6443 9.61296C18.4684 9.16246 18.3474 8.88276 18.2022 8.58487C17.7799 7.72023 17.2675 7.01912 16.6406 6.43784C15.7784 5.64228 14.6632 5.02106 13.2511 4.55968C12.985 4.47245 12.3999 4.30536 11.9248 4.18548C10.9174 3.9276 10.2663 3.74956 9.54931 3.54611C9.29199 3.47343 8.90704 3.36447 8.65189 3.27367C8.51992 3.22639 8.267 3.12832 8.06904 3.01571C7.91068 2.91394 7.68191 2.81222 7.63352 2.50342ZM8.20103 3.41168C8.2032 3.40809 8.23839 3.42982 8.28461 3.45527C8.36819 3.50244 8.47595 3.55695 8.60356 3.61512C8.7001 3.65898 8.79688 3.70136 8.89389 3.74225C9.02586 3.79672 9.13582 3.84759 9.13801 3.84759C9.15344 3.87304 9.37559 5.04637 9.45038 5.49687C9.47893 5.66766 9.50097 5.81294 9.49877 5.81294C9.49651 5.81662 9.47235 5.75482 9.44376 5.67128C9.18641 4.92289 8.7795 4.16363 8.30879 3.55328C8.24723 3.4807 8.20103 3.41529 8.20103 3.41168ZM9.28319 3.90574C9.2942 3.90574 9.34259 3.91665 9.40195 3.93843C9.77587 4.07647 10.4467 4.28718 10.8756 4.40708C10.9482 4.42522 11.0054 4.44707 11.0054 4.45429C11.0054 4.46159 10.979 4.48697 10.946 4.51607C10.8734 4.5778 10.5809 4.86478 10.4841 4.97379C10.24 5.24261 10.02 5.53324 9.86166 5.7948C9.79788 5.90017 9.74287 5.98735 9.74287 5.98735C9.74287 5.98735 9.72971 5.92562 9.71867 5.84927C9.63953 5.3443 9.47454 4.59591 9.32497 4.06918C9.30077 3.98565 9.28096 3.90934 9.28096 3.90211C9.28096 3.90936 9.28096 3.90574 9.28319 3.90574ZM11.188 4.50517C11.2012 4.5124 11.2232 4.63594 11.2671 4.90838C11.3485 5.43518 11.3859 6.0237 11.3727 6.57226C11.3683 6.72485 11.3639 6.86651 11.3595 6.88472L11.3529 6.921L11.2386 6.85927C11.0032 6.73575 10.6205 6.55044 10.2928 6.39789C10.1058 6.31433 9.95407 6.23803 9.95407 6.23078C9.95407 6.20895 10.2268 5.75849 10.3434 5.58777C10.5655 5.26439 11.1682 4.49424 11.188 4.50517ZM11.3397 4.54145C11.3463 4.53061 12.2504 4.78848 12.6617 4.91929C12.9674 5.01736 13.4117 5.16996 13.4381 5.18815C13.4513 5.19539 13.4051 5.23898 13.2577 5.34795C12.6771 5.7803 12.2459 6.16896 11.8171 6.64129C11.7049 6.7648 11.6103 6.86651 11.6081 6.86651C11.6059 6.86651 11.6037 6.76118 11.6037 6.63402C11.6037 5.94379 11.5201 5.24627 11.3661 4.65775C11.3507 4.59962 11.3375 4.54514 11.3397 4.54145ZM13.6778 5.3044C13.6844 5.31529 13.6558 5.60958 13.6294 5.78392C13.5503 6.32523 13.3369 7.12815 13.0752 7.88374C13.029 8.01816 12.9872 8.12715 12.9828 8.13077C12.9784 8.13439 12.919 8.07988 12.8508 8.01449C12.5957 7.76746 12.3053 7.53497 11.9886 7.31697C11.9006 7.25523 11.8236 7.20434 11.8214 7.19714C11.806 7.17531 12.5143 6.40151 12.8882 6.03096C13.1851 5.73308 13.669 5.28984 13.6778 5.3044ZM13.845 5.34797C13.8648 5.34797 14.2651 5.52964 14.474 5.63136C14.9909 5.88568 15.5848 6.24531 15.9719 6.53593L16.1325 6.65586L16.0203 6.69942C15.0745 7.05904 14.2651 7.47325 13.4843 7.99637C13.4205 8.03996 13.3633 8.07629 13.3589 8.07629C13.3545 8.07629 13.3765 7.99275 13.4051 7.89099C13.6404 7.06635 13.7922 6.20535 13.8296 5.47147C13.8318 5.40243 13.8384 5.34797 13.845 5.34797ZM9.85947 6.85927C9.86605 6.84835 10.1718 6.96826 10.3368 7.04449C10.5875 7.16078 11.1198 7.45501 11.1198 7.47684C11.1198 7.48046 11.0604 7.56402 10.99 7.66577C10.7019 8.06175 10.4247 8.47948 10.0926 9.0099C9.99361 9.16617 9.91005 9.2933 9.90567 9.2933C9.90125 9.2933 9.89909 9.27145 9.90125 9.24241C9.95183 8.63206 9.94087 7.84739 9.87047 7.05179C9.86385 6.95004 9.85727 6.86289 9.85947 6.85927ZM16.2843 6.87019C16.2886 6.87741 16.1435 7.25523 16.0511 7.46955C15.9192 7.78197 15.7256 8.19619 15.2878 9.1044C15.0569 9.58389 14.7974 10.1252 14.7116 10.3069C14.6236 10.4885 14.551 10.641 14.5488 10.641C14.5466 10.641 14.5181 10.5757 14.4873 10.4958C14.2409 9.88544 13.9461 9.3514 13.5964 8.87187C13.5304 8.78102 13.4579 8.68294 13.4337 8.65387C13.4095 8.62482 13.3897 8.59576 13.3897 8.59214C13.3897 8.58127 13.7636 8.31601 14.0473 8.12714C14.5444 7.79289 15.2218 7.39329 15.73 7.13534C15.9961 6.99731 16.2799 6.86289 16.2843 6.87019ZM16.4536 6.9428C16.4624 6.9392 16.5152 6.98279 16.579 7.04449C17.1135 7.54946 17.637 8.19978 18.0505 8.86824C18.1671 9.05717 18.4552 9.55124 18.4508 9.55486C18.4508 9.55486 18.3496 9.56938 18.2308 9.58389C17.3048 9.70019 16.1193 10.0235 14.98 10.4776C14.903 10.5066 14.8348 10.532 14.8304 10.532C14.826 10.532 14.9118 10.3904 15.0196 10.2197C15.6882 9.15523 15.994 8.48315 16.3547 7.28427C16.4052 7.1063 16.4492 6.95372 16.4536 6.9428C16.4514 6.9428 16.4514 6.9428 16.4536 6.9428ZM11.5553 7.77115C11.5861 7.78198 11.872 8.00367 12.0876 8.18163C12.2855 8.34506 12.5825 8.60668 12.5979 8.62844C12.6001 8.63206 12.4945 8.72289 12.3648 8.82827C11.9512 9.16975 11.5971 9.49304 11.2276 9.86361C11.122 9.96898 11.034 10.0562 11.0318 10.0562C11.023 10.0562 11.0252 10.0416 11.0846 9.86361C11.2826 9.26787 11.4409 8.55582 11.5311 7.86191C11.5399 7.80743 11.5487 7.77115 11.5553 7.77115ZM11.2693 7.85829C11.2759 7.86922 11.2012 8.31602 11.155 8.55944C11.0648 9.02082 10.913 9.59843 10.7657 10.0344C10.7304 10.1361 10.6777 10.285 10.6491 10.3686L10.5941 10.5139L10.4709 10.3178C10.328 10.0889 10.2114 9.94719 10.0618 9.82C10.0024 9.76919 9.95624 9.72555 9.95624 9.71833C9.95624 9.68926 10.3324 9.12618 10.6205 8.71929C10.8272 8.42501 11.2628 7.8474 11.2693 7.85829ZM13.018 9.04627L13.1258 9.16248C13.3721 9.42772 13.6624 9.78008 13.8846 10.0889C14.0099 10.2596 14.2519 10.6193 14.3003 10.7065L14.3267 10.7537L14.1485 10.8373C13.1411 11.2986 12.3625 11.7091 11.4541 12.2614C11.3529 12.3231 11.2671 12.3739 11.2605 12.3739C11.2474 12.3739 11.2363 12.3921 11.4629 12.047C12.0436 11.1642 12.5583 10.1906 12.941 9.24239L13.018 9.04627ZM12.5583 9.23517C12.5627 9.24241 12.2613 9.94353 12.081 10.3395C11.8654 10.8118 11.4827 11.6038 11.2188 12.1196C11.1088 12.334 11.0142 12.512 11.0098 12.5156C11.0032 12.5192 11.001 12.4648 11.001 12.3812C11.001 11.9416 10.9328 11.4729 10.8141 11.0734C10.7635 10.9063 10.7547 10.8663 10.7657 10.8481C10.8075 10.7864 11.4475 10.1833 11.8522 9.82367C12.125 9.58391 12.5516 9.2279 12.5583 9.23517ZM9.77806 10.3614C9.78468 10.3614 9.83527 10.4049 9.89246 10.4558C10.0332 10.5829 10.1586 10.7246 10.2708 10.8772C10.2752 10.8845 10.218 10.9608 10.1432 11.0516C9.93424 11.2986 9.61752 11.6946 9.43279 11.938C9.23918 12.1923 9.23263 12.1996 9.2546 12.1451C9.39979 11.7782 9.47234 11.5711 9.54935 11.3059C9.61752 11.0698 9.68569 10.7901 9.73408 10.5466C9.75167 10.4413 9.77368 10.3614 9.77806 10.3614ZM10.5193 11.3204C10.5303 11.3168 10.5435 11.3495 10.6029 11.4948C10.7283 11.8036 10.825 12.2178 10.8493 12.552L10.8536 12.6247L10.5523 12.8172C10.0134 13.1623 9.51636 13.5038 9.17979 13.7581C9.08524 13.8308 8.92026 13.9615 8.8125 14.0488C8.70472 14.1395 8.61674 14.2086 8.61674 14.205C8.61674 14.2013 8.68491 14.1178 8.76848 14.016C9.42619 13.2277 9.99584 12.3631 10.4225 11.4985C10.4687 11.4076 10.5105 11.324 10.5149 11.3204L10.5193 11.3204ZM10.1784 11.4585C10.1872 11.473 9.93647 11.9416 9.76491 12.2286C9.3404 12.9443 8.92028 13.5038 8.39898 14.0488C8.333 14.1178 8.27363 14.1795 8.26701 14.1868C8.2516 14.2013 8.27139 14.165 8.50016 13.7545C8.64534 13.4965 8.7553 13.2786 8.88067 13.0098C8.96425 12.8318 8.97966 12.8063 9.10065 12.6646C9.42399 12.2795 10.1696 11.4439 10.1784 11.4585Z" fill="url(#paint2_radial_1535_2914)"/>
<defs>
<linearGradient id="paint0_linear_1535_2914" x1="7.58919" y1="21.626" x2="8.84775" y2="21.1758" gradientUnits="userSpaceOnUse">
<stop stop-color="#909CA9"/>
<stop offset="1" stop-color="#EDEDEE"/>
</linearGradient>
<linearGradient id="paint1_linear_1535_2914" x1="7.61367" y1="2.26547" x2="8.46034" y2="2.26547" gradientUnits="userSpaceOnUse">
<stop stop-color="#939FAB"/>
<stop offset="1" stop-color="#DCDEE1"/>
</linearGradient>
<radialGradient id="paint2_radial_1535_2914" cx="0" cy="0" r="1" gradientUnits="userSpaceOnUse" gradientTransform="translate(11.8849 8.67915) rotate(-166.066) scale(1.1122 3.5399)">
<stop stop-color="#EE352C"/>
<stop offset="1" stop-color="#A91D22"/>
</radialGradient>
</defs>
</svg>
