<svg width="24" height="24" viewBox="0 0 24 24" fill="none" xmlns="http://www.w3.org/2000/svg">
<g clip-path="url(#clip0_1535_668)">
<path d="M1.24121 15.2285H1.95063V12.5173L3.0489 14.8809C3.17849 15.167 3.35587 15.2682 3.70373 15.2682C4.05164 15.2682 4.22217 15.167 4.35181 14.8809L5.45003 12.5173V15.2285H6.15951V12.5217C6.15951 12.2576 6.05032 12.13 5.82524 12.064C5.28636 11.9011 4.9248 12.042 4.76106 12.3941L3.68328 14.7268L2.6396 12.3941C2.48272 12.042 2.11436 11.9011 1.57547 12.064C1.35035 12.13 1.24121 12.2576 1.24121 12.5217V15.2285Z" fill="#DCE0DF"/>
<path d="M6.74902 13.0209H7.45823V14.5147C7.4516 14.5958 7.48514 14.7863 7.87377 14.7922C8.07204 14.7952 9.404 14.7922 9.41643 14.7922V13.0137H10.1273C10.1306 13.0137 10.1266 15.4391 10.1266 15.4494C10.1306 16.0476 9.35975 16.1775 9.00448 16.1875H6.76444V15.7256C6.76836 15.7256 9.00282 15.7261 9.00846 15.7255C9.46504 15.6789 9.41113 15.4592 9.41107 15.3853V15.2052H7.90321C7.20168 15.199 6.75493 14.9027 6.74941 14.5618C6.74891 14.5302 6.76455 13.0359 6.74902 13.0209Z" fill="#DCE0DF"/>
<path d="M10.6738 15.2285H12.7134C12.9522 15.2285 13.1841 15.1801 13.3683 15.0965C13.6752 14.9601 13.8253 14.7752 13.8253 14.5331V14.0314C13.8253 13.8333 13.6548 13.6484 13.3205 13.5252C13.1431 13.4591 12.9249 13.424 12.7134 13.424H11.8539C11.5674 13.424 11.431 13.3403 11.3969 13.1555C11.3901 13.1335 11.3901 13.1158 11.3901 13.0939V12.7814C11.3901 12.7638 11.3901 12.7461 11.3969 12.7241C11.431 12.5833 11.5061 12.5436 11.7584 12.5217C11.7789 12.5217 11.8061 12.5172 11.8266 12.5172H13.8526V12.0596H11.8607C11.5742 12.0596 11.4241 12.0772 11.2877 12.1167C10.8648 12.2444 10.6806 12.4469 10.6806 12.799V13.1995C10.6806 13.5076 11.0422 13.7717 11.6493 13.8333C11.7175 13.8377 11.7857 13.8421 11.8539 13.8421H12.5906C12.6179 13.8421 12.6452 13.8421 12.6657 13.8465C12.8908 13.8641 12.9862 13.9037 13.0545 13.9829C13.0954 14.0225 13.109 14.0622 13.109 14.1062V14.5067C13.109 14.5551 13.075 14.6168 13.0068 14.6695C12.9454 14.7224 12.8431 14.7576 12.7066 14.7664C12.6793 14.7664 12.6589 14.7708 12.6316 14.7708H10.6738V15.2285Z" fill="#DCE0DF"/>
<path d="M18.2515 14.4319C18.2515 14.9028 18.613 15.1669 19.3429 15.2197C19.4111 15.2241 19.4793 15.2285 19.5475 15.2285H21.3962V14.7708H19.5339C19.1178 14.7708 18.9609 14.6695 18.9609 14.4275V12.0596H18.2515V14.4319Z" fill="#DCE0DF"/>
<path d="M14.2783 14.4554V12.8236C14.2783 12.409 14.5791 12.1575 15.1738 12.0781C15.2353 12.0694 15.3037 12.0649 15.3652 12.0649H16.7118C16.7801 12.0649 16.8417 12.0694 16.91 12.0781C17.5047 12.1575 17.8055 12.409 17.8055 12.8236V14.4554C17.8055 14.7918 17.6778 14.9718 17.3834 15.0891L18.0822 15.6996H17.2585L16.6931 15.2057L16.1239 15.2406H15.3652C15.2353 15.2406 15.0986 15.2229 14.9482 15.1832C14.4971 15.0641 14.2783 14.8348 14.2783 14.4554ZM15.044 14.4158C15.044 14.4378 15.0508 14.4599 15.0577 14.4863C15.0987 14.676 15.2832 14.7818 15.5635 14.7818H16.208L15.616 14.2646H16.4397L16.9561 14.7157C17.0512 14.6666 17.1138 14.5916 17.1357 14.4952C17.1425 14.4731 17.1425 14.451 17.1425 14.429V12.8633C17.1425 12.8456 17.1425 12.8236 17.1357 12.8015C17.0947 12.6251 16.9101 12.5237 16.6367 12.5237H15.5635C15.2491 12.5237 15.044 12.656 15.044 12.8633V14.4158Z" fill="#DCE0DF"/>
<path d="M22.0198 11.3006C21.5838 11.2891 21.2506 11.3284 20.9659 11.4446C20.8849 11.4776 20.7559 11.4785 20.7427 11.5767C20.7872 11.6218 20.7941 11.6892 20.8294 11.7447C20.8974 11.8512 21.0122 11.9939 21.1146 12.0687C21.2266 12.1505 21.3419 12.2379 21.4619 12.3087C21.6753 12.4347 21.9136 12.5066 22.1191 12.6328C22.2402 12.7071 22.3605 12.8008 22.4786 12.8847C22.537 12.9262 22.5763 12.9908 22.6522 13.0168C22.6522 13.0128 22.6522 13.0088 22.6522 13.0048C22.6123 12.9556 22.6021 12.8881 22.5654 12.8367C22.5117 12.7848 22.458 12.7327 22.4042 12.6807C22.2466 12.4783 22.0465 12.3004 21.8338 12.1527C21.6642 12.0349 21.2846 11.8757 21.2139 11.6847C21.2097 11.6807 21.2056 11.6766 21.2014 11.6726C21.3217 11.6595 21.4625 11.6174 21.5735 11.5886C21.7599 11.5403 21.9265 11.5528 22.1191 11.5046C22.2059 11.4806 22.2926 11.4566 22.3795 11.4326C22.3795 11.4166 22.3795 11.4007 22.3795 11.3846C22.2821 11.288 22.2128 11.1601 22.1066 11.0726C21.829 10.8438 21.5259 10.6151 21.2139 10.4245C21.0408 10.3188 20.8269 10.2501 20.6435 10.1605C20.5818 10.1303 20.4734 10.1147 20.4326 10.0645C20.3363 9.94556 20.2838 9.79488 20.2095 9.65641C20.0538 9.36632 19.9009 9.0495 19.7631 8.74432C19.669 8.5362 19.6076 8.33095 19.4903 8.14424C18.9272 7.24833 18.3212 6.70757 17.3823 6.17605C17.1826 6.06301 16.942 6.01837 16.6879 5.96005C16.5515 5.95206 16.4151 5.94402 16.2787 5.93603C16.1954 5.90235 16.1088 5.80377 16.0307 5.756C15.7197 5.56584 14.9219 5.15222 14.6915 5.69601C14.5461 6.03925 14.9089 6.37419 15.0387 6.54811C15.1298 6.67013 15.2464 6.80693 15.3115 6.94414C15.3543 7.03431 15.3617 7.12475 15.3983 7.22019C15.4885 7.45525 15.5669 7.71098 15.6835 7.92824C15.7424 8.03815 15.8074 8.15395 15.8819 8.25227C15.9276 8.31257 16.0059 8.33915 16.0183 8.43229C15.9417 8.53599 15.9373 8.69696 15.8943 8.82833C15.7005 9.41973 15.7736 10.1548 16.0555 10.5925C16.142 10.7269 16.3457 11.0151 16.6259 10.9046C16.8709 10.8079 16.8162 10.5086 16.8863 10.2445C16.9021 10.1846 16.8924 10.1406 16.9235 10.1005C16.9235 10.1044 16.9235 10.1085 16.9235 10.1125C16.9979 10.2565 17.0723 10.4005 17.1467 10.5445C17.3119 10.802 17.6051 11.071 17.8535 11.2526C17.9823 11.3468 18.0837 11.5096 18.2503 11.5646C18.2503 11.5606 18.2503 11.5567 18.2503 11.5526C18.2461 11.5526 18.242 11.5526 18.2379 11.5526C18.2056 11.5039 18.1551 11.4837 18.1139 11.4446C18.0168 11.3525 17.9089 11.2381 17.8287 11.1326C17.6027 10.8357 17.403 10.5107 17.2211 10.1725C17.1342 10.011 17.0587 9.83279 16.9854 9.66842C16.9572 9.60504 16.9576 9.50922 16.8987 9.47639C16.8185 9.59684 16.7003 9.69421 16.6383 9.83644C16.5391 10.0638 16.5263 10.341 16.4895 10.6285C16.4678 10.6361 16.4774 10.6309 16.4647 10.6405C16.292 10.6002 16.2313 10.4281 16.1671 10.2805C16.0048 9.90719 15.9746 9.30607 16.1175 8.87636C16.1544 8.7652 16.3215 8.41501 16.2539 8.31231C16.2216 8.20982 16.1151 8.15056 16.0555 8.07224C15.9817 7.97544 15.9081 7.84799 15.8571 7.7362C15.7242 7.44512 15.6622 7.11837 15.5223 6.82416C15.4554 6.6835 15.3424 6.54117 15.2495 6.41612C15.1467 6.2776 15.0316 6.17557 14.9519 6.00803C14.9236 5.94851 14.8851 5.85322 14.9271 5.79202C14.9405 5.75072 14.9593 5.7335 15.0015 5.72002C15.0734 5.66635 15.2737 5.73788 15.3487 5.76801C15.5475 5.84794 15.7135 5.92407 15.8819 6.03205C15.9628 6.08395 16.0445 6.18429 16.1423 6.21208C16.1795 6.21208 16.2167 6.21208 16.2539 6.21208C16.4284 6.25092 16.624 6.22414 16.7871 6.27206C17.0753 6.35686 17.3336 6.48875 17.5683 6.63212C18.283 7.06888 18.8674 7.69062 19.2671 8.43229C19.3314 8.5517 19.3592 8.66569 19.4159 8.79235C19.5302 9.04778 19.6741 9.31061 19.7878 9.56039C19.9013 9.8096 20.0119 10.0611 20.1722 10.2685C20.2566 10.3775 20.5823 10.436 20.7303 10.4965C20.834 10.539 21.004 10.5832 21.1023 10.6405C21.29 10.7501 21.4718 10.8805 21.6479 11.0006C21.7359 11.0606 22.0064 11.1921 22.0198 11.3006Z" fill="#DCE0DF"/>
<path fill-rule="evenodd" clip-rule="evenodd" d="M16.4771 6.72721C16.3862 6.72559 16.3219 6.73681 16.2539 6.75118C16.2539 6.75519 16.2539 6.75921 16.2539 6.76318C16.258 6.76318 16.2622 6.76318 16.2663 6.76318C16.3097 6.84943 16.3863 6.90494 16.4399 6.97924C16.4812 7.06325 16.5226 7.14726 16.5639 7.23121C16.568 7.22724 16.5722 7.22323 16.5763 7.21925C16.6531 7.16688 16.6883 7.08309 16.6879 6.95522C16.6571 6.92389 16.6526 6.88458 16.6259 6.84719C16.5904 6.79738 16.5218 6.76908 16.4771 6.72721Z" fill="#DCE0DF"/>
<path fill-rule="evenodd" clip-rule="evenodd" d="M21.729 14.7569C21.729 15.0592 21.9758 15.2629 22.2518 15.2629C22.5279 15.2629 22.7746 15.0592 22.7746 14.7569C22.7746 14.4547 22.5279 14.251 22.2518 14.251C21.9758 14.251 21.729 14.4547 21.729 14.7569ZM22.6575 14.7569C22.6575 14.9863 22.4763 15.1577 22.2518 15.1577C22.0246 15.1577 21.8461 14.9863 21.8461 14.7569C21.8461 14.5276 22.0246 14.3561 22.2518 14.3561C22.4763 14.3561 22.6575 14.5276 22.6575 14.7569ZM22.3927 15.0457H22.5098L22.3383 14.792C22.4303 14.7826 22.5 14.7394 22.5 14.6342C22.5 14.5168 22.4234 14.4682 22.2756 14.4682H22.0427V15.0457H22.1431V14.7961H22.2365L22.3927 15.0457ZM22.1431 14.7151V14.5492H22.2588C22.3188 14.5492 22.3913 14.56 22.3913 14.6274C22.3913 14.7083 22.3257 14.7151 22.2504 14.7151H22.1431Z" fill="#DCE0DF"/>
</g>
<defs>
<clipPath id="clip0_1535_668">
<rect width="21.6" height="10.8" fill="white" transform="translate(1.2002 5.3999)"/>
</clipPath>
</defs>
</svg>
