<svg width="24" height="24" viewBox="0 0 24 24" fill="none" xmlns="http://www.w3.org/2000/svg">
<g clip-path="url(#clip0_1535_650)">
<path d="M1.24072 15.229H1.95014V12.5178L3.04842 14.8813C3.178 15.1674 3.35538 15.2686 3.70324 15.2686C4.05115 15.2686 4.22168 15.1674 4.35132 14.8813L5.44955 12.5178V15.229H6.15902V12.5222C6.15902 12.2581 6.04983 12.1304 5.82476 12.0645C5.28587 11.9016 4.92431 12.0424 4.76057 12.3946L3.68279 14.7273L2.63912 12.3946C2.48223 12.0424 2.11387 11.9016 1.57499 12.0645C1.34986 12.1304 1.24072 12.2581 1.24072 12.5222V15.229Z" fill="#00618A"/>
<path d="M6.74878 13.0209H7.45799V14.5147C7.45136 14.5958 7.48489 14.7863 7.87353 14.7922C8.07179 14.7952 9.40375 14.7922 9.41618 14.7922V13.0137H10.1271C10.1303 13.0137 10.1263 15.4391 10.1264 15.4494C10.1303 16.0476 9.35951 16.1775 9.00424 16.1875H6.76419V15.7256C6.76811 15.7256 9.00258 15.7261 9.00822 15.7255C9.4648 15.6789 9.41088 15.4592 9.41083 15.3853V15.2052H7.90297C7.20144 15.199 6.75469 14.9027 6.74917 14.5618C6.74867 14.5302 6.7643 13.0359 6.74878 13.0209Z" fill="#00618A"/>
<path d="M10.6738 15.229H12.7134C12.9522 15.229 13.1841 15.1806 13.3683 15.0969C13.6752 14.9606 13.8253 14.7757 13.8253 14.5336V14.0319C13.8253 13.8338 13.6548 13.6489 13.3205 13.5257C13.1431 13.4596 12.9249 13.4244 12.7134 13.4244H11.8539C11.5674 13.4244 11.431 13.3408 11.3969 13.156C11.3901 13.134 11.3901 13.1163 11.3901 13.0943V12.7819C11.3901 12.7643 11.3901 12.7466 11.3969 12.7246C11.431 12.5838 11.5061 12.5441 11.7584 12.5222C11.7789 12.5222 11.8061 12.5177 11.8266 12.5177H13.8526V12.0601H11.8607C11.5742 12.0601 11.4241 12.0776 11.2877 12.1172C10.8648 12.2449 10.6806 12.4474 10.6806 12.7995V13.2C10.6806 13.5081 11.0422 13.7722 11.6493 13.8338C11.7175 13.8382 11.7857 13.8425 11.8539 13.8425H12.5906C12.6179 13.8425 12.6452 13.8425 12.6657 13.847C12.8908 13.8646 12.9862 13.9042 13.0545 13.9834C13.0954 14.023 13.109 14.0627 13.109 14.1067V14.5072C13.109 14.5556 13.075 14.6173 13.0068 14.67C12.9454 14.7228 12.8431 14.7581 12.7066 14.7669C12.6793 14.7669 12.6589 14.7713 12.6316 14.7713H10.6738V15.229Z" fill="#E48E00"/>
<path d="M18.2512 14.4319C18.2512 14.9028 18.6127 15.1669 19.3427 15.2197C19.4108 15.2241 19.4791 15.2285 19.5473 15.2285H21.3959V14.7708H19.5336C19.1175 14.7708 18.9607 14.6695 18.9607 14.4275V12.0596H18.2512V14.4319Z" fill="#E48E00"/>
<path d="M14.2778 14.4554V12.8236C14.2778 12.409 14.5786 12.1575 15.1733 12.0781C15.2348 12.0694 15.3032 12.0649 15.3647 12.0649H16.7113C16.7796 12.0649 16.8412 12.0694 16.9096 12.0781C17.5042 12.1575 17.805 12.409 17.805 12.8236V14.4554C17.805 14.7918 17.6773 14.9718 17.3829 15.0891L18.0817 15.6996H17.258L16.6926 15.2057L16.1234 15.2406H15.3647C15.2348 15.2406 15.0981 15.2229 14.9477 15.1832C14.4966 15.0641 14.2778 14.8348 14.2778 14.4554ZM15.0436 14.4158C15.0436 14.4378 15.0504 14.4599 15.0572 14.4863C15.0982 14.676 15.2828 14.7818 15.563 14.7818H16.2075L15.6155 14.2646H16.4392L16.9556 14.7157C17.0507 14.6666 17.1133 14.5916 17.1352 14.4952C17.142 14.4731 17.142 14.451 17.142 14.429V12.8633C17.142 12.8456 17.142 12.8236 17.1352 12.8015C17.0942 12.6251 16.9096 12.5237 16.6362 12.5237H15.563C15.2486 12.5237 15.0436 12.656 15.0436 12.8633V14.4158Z" fill="#E48E00"/>
<path d="M22.0196 11.3006C21.5835 11.2891 21.2504 11.3284 20.9656 11.4446C20.8847 11.4776 20.7556 11.4785 20.7424 11.5767C20.7869 11.6218 20.7938 11.6892 20.8292 11.7447C20.8972 11.8512 21.012 11.9939 21.1144 12.0687C21.2263 12.1505 21.3417 12.2379 21.4617 12.3087C21.6751 12.4347 21.9133 12.5066 22.1188 12.6328C22.2399 12.7071 22.3602 12.8008 22.4784 12.8847C22.5368 12.9262 22.5761 12.9908 22.652 13.0168C22.652 13.0128 22.652 13.0088 22.652 13.0048C22.6121 12.9556 22.6018 12.8881 22.5652 12.8367C22.5115 12.7848 22.4577 12.7327 22.404 12.6807C22.2464 12.4783 22.0463 12.3004 21.8336 12.1527C21.664 12.0349 21.2844 11.8757 21.2136 11.6847C21.2095 11.6807 21.2054 11.6766 21.2012 11.6726C21.3214 11.6595 21.4623 11.6174 21.5732 11.5886C21.7597 11.5403 21.9263 11.5528 22.1188 11.5046C22.2056 11.4806 22.2924 11.4566 22.3792 11.4326C22.3792 11.4166 22.3792 11.4007 22.3792 11.3846C22.2819 11.288 22.2125 11.1601 22.1064 11.0726C21.8287 10.8438 21.5257 10.6151 21.2136 10.4245C21.0405 10.3188 20.8266 10.2501 20.6432 10.1605C20.5815 10.1303 20.4731 10.1147 20.4324 10.0645C20.336 9.94556 20.2835 9.79488 20.2092 9.65641C20.0536 9.36632 19.9007 9.0495 19.7628 8.74432C19.6687 8.5362 19.6073 8.33095 19.49 8.14424C18.927 7.24833 18.3209 6.70757 17.3821 6.17605C17.1823 6.06301 16.9418 6.01837 16.6876 5.96005C16.5513 5.95206 16.4148 5.94402 16.2784 5.93603C16.1952 5.90235 16.1086 5.80377 16.0304 5.756C15.7194 5.56584 14.9217 5.15222 14.6913 5.69601C14.5458 6.03925 14.9087 6.37419 15.0384 6.54811C15.1295 6.67013 15.2462 6.80693 15.3112 6.94414C15.354 7.03431 15.3614 7.12475 15.3981 7.22019C15.4882 7.45525 15.5666 7.71098 15.6832 7.92824C15.7422 8.03815 15.8071 8.15395 15.8817 8.25227C15.9274 8.31257 16.0056 8.33915 16.018 8.43229C15.9414 8.53599 15.9371 8.69696 15.894 8.82833C15.7003 9.41973 15.7733 10.1548 16.0552 10.5925C16.1418 10.7269 16.3455 11.0151 16.6256 10.9046C16.8707 10.8079 16.8159 10.5086 16.886 10.2445C16.9019 10.1846 16.8922 10.1406 16.9232 10.1005C16.9232 10.1044 16.9232 10.1085 16.9232 10.1125C16.9976 10.2565 17.072 10.4005 17.1465 10.5445C17.3116 10.802 17.6048 11.071 17.8532 11.2526C17.9821 11.3468 18.0835 11.5096 18.25 11.5646C18.25 11.5606 18.25 11.5567 18.25 11.5526C18.2458 11.5526 18.2418 11.5526 18.2376 11.5526C18.2054 11.5039 18.1549 11.4837 18.1137 11.4446C18.0166 11.3525 17.9087 11.2381 17.8284 11.1326C17.6025 10.8357 17.4028 10.5107 17.2209 10.1725C17.134 10.011 17.0585 9.83279 16.9852 9.66842C16.957 9.60504 16.9573 9.50922 16.8985 9.47639C16.8183 9.59684 16.7001 9.69421 16.6381 9.83644C16.5388 10.0638 16.526 10.341 16.4893 10.6285C16.4675 10.6361 16.4772 10.6309 16.4644 10.6405C16.2917 10.6002 16.231 10.4281 16.1669 10.2805C16.0045 9.90719 15.9744 9.30607 16.1172 8.87636C16.1542 8.7652 16.3212 8.41501 16.2536 8.31231C16.2214 8.20982 16.1149 8.15056 16.0552 8.07224C15.9815 7.97544 15.9079 7.84799 15.8568 7.7362C15.724 7.44512 15.6619 7.11837 15.522 6.82416C15.4552 6.6835 15.3421 6.54117 15.2492 6.41612C15.1464 6.2776 15.0313 6.17557 14.9517 6.00803C14.9233 5.94851 14.8848 5.85322 14.9269 5.79202C14.9402 5.75072 14.9591 5.7335 15.0013 5.72002C15.0732 5.66635 15.2735 5.73788 15.3484 5.76801C15.5473 5.84794 15.7132 5.92407 15.8817 6.03205C15.9625 6.08395 16.0443 6.18429 16.142 6.21208C16.1792 6.21208 16.2164 6.21208 16.2536 6.21208C16.4282 6.25092 16.6237 6.22414 16.7868 6.27206C17.0751 6.35686 17.3334 6.48875 17.568 6.63212C18.2828 7.06888 18.8671 7.69062 19.2668 8.43229C19.3312 8.5517 19.359 8.66569 19.4156 8.79235C19.5299 9.04778 19.6739 9.31061 19.7876 9.56039C19.901 9.8096 20.0116 10.0611 20.172 10.2685C20.2564 10.3775 20.582 10.436 20.73 10.4965C20.8338 10.539 21.0037 10.5832 21.102 10.6405C21.2897 10.7501 21.4716 10.8805 21.6477 11.0006C21.7357 11.0606 22.0061 11.1921 22.0196 11.3006Z" fill="#00618A"/>
<path fill-rule="evenodd" clip-rule="evenodd" d="M16.4771 6.72721C16.3862 6.72559 16.3219 6.73681 16.2539 6.75118C16.2539 6.75519 16.2539 6.75921 16.2539 6.76318C16.258 6.76318 16.2622 6.76318 16.2663 6.76318C16.3097 6.84943 16.3863 6.90494 16.4399 6.97924C16.4812 7.06325 16.5226 7.14726 16.5639 7.23121C16.568 7.22724 16.5722 7.22323 16.5763 7.21925C16.6531 7.16688 16.6883 7.08309 16.6879 6.95522C16.6571 6.92389 16.6526 6.88458 16.6259 6.84719C16.5904 6.79738 16.5218 6.76908 16.4771 6.72721Z" fill="#00618A"/>
<path fill-rule="evenodd" clip-rule="evenodd" d="M21.7288 14.7569C21.7288 15.0592 21.9755 15.2629 22.2516 15.2629C22.5276 15.2629 22.7744 15.0592 22.7744 14.7569C22.7744 14.4547 22.5276 14.251 22.2516 14.251C21.9755 14.251 21.7288 14.4547 21.7288 14.7569ZM22.6573 14.7569C22.6573 14.9863 22.4761 15.1577 22.2516 15.1577C22.0244 15.1577 21.8459 14.9863 21.8459 14.7569C21.8459 14.5276 22.0244 14.3561 22.2516 14.3561C22.4761 14.3561 22.6573 14.5276 22.6573 14.7569ZM22.3924 15.0457H22.5095L22.3381 14.792C22.4301 14.7826 22.4997 14.7394 22.4997 14.6342C22.4997 14.5168 22.4231 14.4682 22.2753 14.4682H22.0425V15.0457H22.1429V14.7961H22.2363L22.3924 15.0457ZM22.1429 14.7151V14.5492H22.2585C22.3185 14.5492 22.391 14.56 22.391 14.6274C22.391 14.7083 22.3255 14.7151 22.2502 14.7151H22.1429Z" fill="#E48E00"/>
</g>
<defs>
<clipPath id="clip0_1535_650">
<rect width="21.6" height="10.8" fill="white" transform="translate(1.19995 5.3999)"/>
</clipPath>
</defs>
</svg>
