<svg width="40" height="40" viewBox="0 0 40 40" fill="none" xmlns="http://www.w3.org/2000/svg">
<path d="M2.06836 25.3814H3.25072V20.8626L5.08118 24.8019C5.29715 25.2788 5.5928 25.4474 6.17256 25.4474C6.75241 25.4474 7.03663 25.2788 7.25269 24.8019L9.08307 20.8626V25.3814H10.2655V20.87C10.2655 20.4299 10.0835 20.2171 9.70842 20.1071C8.81027 19.8357 8.20767 20.0704 7.93478 20.6573L6.13848 24.5451L4.39901 20.6573C4.13754 20.0704 3.52361 19.8357 2.62546 20.1071C2.25026 20.2171 2.06836 20.4299 2.06836 20.87V25.3814Z" fill="#00618A"/>
<path d="M11.248 21.7018H12.4301V24.1913C12.419 24.3266 12.4749 24.644 13.1226 24.6539C13.4531 24.6589 15.673 24.6539 15.6937 24.6539V21.6897H16.8785C16.8839 21.6897 16.8773 25.732 16.8774 25.7492C16.8839 26.7462 15.5993 26.9627 15.0071 26.9795H11.2737V26.2097C11.2803 26.2097 15.0044 26.2104 15.0138 26.2095C15.7747 26.1317 15.6849 25.7656 15.6848 25.6424V25.3423H13.1717C12.0025 25.3318 11.2579 24.838 11.2487 24.2698C11.2479 24.2172 11.2739 21.7267 11.248 21.7018Z" fill="#00618A"/>
<path d="M17.79 25.3812H21.1893C21.5873 25.3812 21.9739 25.3005 22.2808 25.1611C22.7924 24.9337 23.0425 24.6257 23.0425 24.2221V23.3859C23.0425 23.0558 22.7583 22.7476 22.2012 22.5423C21.9055 22.4322 21.5418 22.3735 21.1893 22.3735H19.7568C19.2794 22.3735 19.052 22.2342 18.9952 21.9261C18.9837 21.8894 18.9837 21.86 18.9837 21.8234V21.3026C18.9837 21.2732 18.9837 21.2438 18.9952 21.2072C19.052 20.9725 19.1771 20.9064 19.5977 20.8697C19.6318 20.8697 19.6772 20.8624 19.7114 20.8624H23.088V20.0996H19.7682C19.2907 20.0996 19.0406 20.1289 18.8132 20.1948C18.1083 20.4076 17.8014 20.7451 17.8014 21.332V21.9995C17.8014 22.513 18.404 22.9531 19.4157 23.0558C19.5295 23.0631 19.6432 23.0704 19.7568 23.0704H20.9846C21.0302 23.0704 21.0757 23.0704 21.1098 23.0778C21.485 23.1072 21.6441 23.1731 21.7579 23.3052C21.826 23.3711 21.8487 23.4372 21.8487 23.5106V24.1781C21.8487 24.2588 21.7919 24.3616 21.6783 24.4495C21.5759 24.5376 21.4054 24.5963 21.178 24.611C21.1325 24.611 21.0984 24.6183 21.053 24.6183H17.79V25.3812Z" fill="#E48E00"/>
<path d="M30.4189 24.0534C30.4189 24.8383 31.0215 25.2785 32.238 25.3665C32.3516 25.3738 32.4654 25.3812 32.579 25.3812H35.6601V24.6183H32.5563C31.8628 24.6183 31.6013 24.4495 31.6013 24.0461V20.0996H30.4189V24.0534Z" fill="#E48E00"/>
<path d="M23.7969 24.092V21.3722C23.7969 20.6813 24.2982 20.2622 25.2893 20.1299C25.3918 20.1153 25.5058 20.1079 25.6083 20.1079H27.8526C27.9665 20.1079 28.0692 20.1153 28.1831 20.1299C29.1742 20.2622 29.6755 20.6813 29.6755 21.3722V24.092C29.6755 24.6526 29.4626 24.9526 28.972 25.1481L30.1367 26.1656H28.7638L27.8215 25.3424L26.8729 25.4006H25.6083C25.3918 25.4006 25.164 25.3711 24.9133 25.305C24.1615 25.1065 23.7969 24.7243 23.7969 24.092ZM25.0731 24.0259C25.0731 24.0627 25.0844 24.0994 25.0958 24.1435C25.1641 24.4596 25.4718 24.636 25.9388 24.636H27.013L26.0263 23.7739H27.3992L28.2598 24.5258C28.4183 24.444 28.5227 24.3189 28.5592 24.1582C28.5705 24.1215 28.5705 24.0847 28.5705 24.048V21.4385C28.5705 21.409 28.5705 21.3722 28.5592 21.3354C28.4908 21.0415 28.1832 20.8724 27.7275 20.8724H25.9388C25.4149 20.8724 25.0731 21.093 25.0731 21.4385V24.0259Z" fill="#E48E00"/>
<path d="M36.6999 18.8343C35.9731 18.8152 35.4179 18.8806 34.9433 19.0743C34.8084 19.1294 34.5933 19.1308 34.5713 19.2944C34.6454 19.3696 34.6569 19.4819 34.7159 19.5744C34.8292 19.7519 35.0205 19.9897 35.1912 20.1145C35.3778 20.2507 35.57 20.3965 35.77 20.5145C36.1257 20.7244 36.5228 20.8443 36.8653 21.0546C37.0671 21.1785 37.2676 21.3347 37.4646 21.4746C37.5619 21.5437 37.6273 21.6513 37.7539 21.6946C37.7539 21.688 37.7539 21.6813 37.7539 21.6746C37.6874 21.5927 37.6703 21.4801 37.6092 21.3945C37.5197 21.3079 37.4301 21.2212 37.3405 21.1345C37.0779 20.7971 36.7444 20.5007 36.3899 20.2545C36.1072 20.0581 35.4745 19.7928 35.3566 19.4744C35.3497 19.4677 35.3429 19.461 35.3359 19.4544C35.5363 19.4325 35.771 19.3623 35.956 19.3144C36.2667 19.2337 36.5444 19.2546 36.8653 19.1744C37.0099 19.1344 37.1546 19.0943 37.2993 19.0544C37.2993 19.0276 37.2993 19.0011 37.2993 18.9743C37.1371 18.8132 37.0214 18.6001 36.8446 18.4543C36.3818 18.0729 35.8767 17.6919 35.3566 17.3742C35.0681 17.1979 34.7116 17.0834 34.4059 16.9341C34.3031 16.8839 34.1225 16.8578 34.0545 16.7741C33.8939 16.5759 33.8065 16.3248 33.6826 16.094C33.4232 15.6105 33.1684 15.0825 32.9386 14.5738C32.7818 14.227 32.6794 13.8849 32.484 13.5737C31.5456 12.0805 30.5354 11.1792 28.9707 10.2934C28.6378 10.105 28.2369 10.0306 27.8133 9.93338C27.586 9.92007 27.3586 9.90666 27.1313 9.89335C26.9925 9.83722 26.8482 9.67292 26.718 9.5933C26.1996 9.27637 24.87 8.587 24.4861 9.49331C24.2436 10.0654 24.8484 10.6236 25.0646 10.9135C25.2165 11.1169 25.4108 11.3448 25.5193 11.5735C25.5906 11.7238 25.603 11.8745 25.664 12.0336C25.8143 12.4254 25.9449 12.8516 26.1393 13.2137C26.2375 13.3969 26.3458 13.5899 26.47 13.7537C26.5462 13.8543 26.6766 13.8985 26.6973 14.0538C26.5696 14.2266 26.5624 14.4949 26.4906 14.7138C26.1677 15.6995 26.2895 16.9247 26.7593 17.6542C26.9035 17.8781 27.2431 18.3584 27.7099 18.1742C28.1184 18.0132 28.0271 17.5143 28.144 17.0741C28.1704 16.9743 28.1542 16.9009 28.2059 16.8341C28.2059 16.8407 28.2059 16.8474 28.2059 16.8541C28.33 17.0941 28.454 17.3341 28.578 17.5741C28.8533 18.0032 29.3419 18.4517 29.756 18.7543C29.9707 18.9112 30.1397 19.1826 30.4173 19.2744C30.4173 19.2677 30.4173 19.2611 30.4173 19.2543C30.4103 19.2543 30.4035 19.2543 30.3966 19.2543C30.3428 19.1731 30.2587 19.1395 30.19 19.0743C30.0282 18.9209 29.8484 18.7301 29.7146 18.5543C29.3381 18.0595 29.0052 17.5178 28.702 16.9541C28.5572 16.6849 28.4313 16.3879 28.3092 16.114C28.2622 16.0084 28.2627 15.8487 28.1647 15.7939C28.031 15.9947 27.8341 16.157 27.7307 16.394C27.5653 16.7729 27.5439 17.235 27.4827 17.7142C27.4464 17.7267 27.4626 17.7181 27.4413 17.7341C27.1535 17.6669 27.0523 17.3801 26.9454 17.1341C26.6748 16.512 26.6245 15.5101 26.8626 14.7939C26.9242 14.6086 27.2026 14.025 27.0899 13.8538C27.0362 13.683 26.8587 13.5842 26.7593 13.4537C26.6364 13.2924 26.5137 13.0799 26.4286 12.8936C26.2072 12.4085 26.1038 11.8639 25.8706 11.3736C25.7592 11.1391 25.5708 10.9019 25.416 10.6935C25.2446 10.4626 25.0528 10.2926 24.92 10.0134C24.8728 9.91415 24.8086 9.75533 24.8787 9.65334C24.9009 9.58451 24.9323 9.5558 25.0027 9.53334C25.1226 9.44389 25.4564 9.5631 25.5813 9.61332C25.9127 9.74654 26.1893 9.87342 26.47 10.0534C26.6048 10.1399 26.7411 10.3071 26.904 10.3534C26.9659 10.3534 27.028 10.3534 27.0899 10.3534C27.3809 10.4182 27.7068 10.3735 27.9786 10.4534C28.459 10.5947 28.8896 10.8145 29.2806 11.0535C30.4718 11.7814 31.4458 12.8177 32.112 14.0538C32.2192 14.2528 32.2656 14.4428 32.3599 14.6539C32.5504 15.0796 32.7904 15.5177 32.9798 15.934C33.169 16.3493 33.3533 16.7685 33.6206 17.1141C33.7612 17.2958 34.3039 17.3933 34.5506 17.4941C34.7235 17.5649 35.0068 17.6386 35.1706 17.7341C35.4835 17.9168 35.7866 18.1342 36.08 18.3343C36.2267 18.4342 36.6774 18.6535 36.6999 18.8343Z" fill="#00618A"/>
<path fill-rule="evenodd" clip-rule="evenodd" d="M27.4619 11.2121C27.3104 11.2094 27.2032 11.2281 27.0898 11.252C27.0898 11.2587 27.0898 11.2654 27.0898 11.272C27.0967 11.272 27.1037 11.272 27.1106 11.272C27.1828 11.4158 27.3104 11.5083 27.3998 11.6321C27.4687 11.7721 27.5376 11.9122 27.6066 12.0521C27.6134 12.0455 27.6204 12.0388 27.6272 12.0322C27.7552 11.9449 27.8138 11.8052 27.8132 11.5921C27.7619 11.5399 27.7543 11.4744 27.7099 11.4121C27.6507 11.329 27.5364 11.2819 27.4619 11.2121Z" fill="#00618A"/>
<path fill-rule="evenodd" clip-rule="evenodd" d="M36.2148 24.5952C36.2148 25.099 36.6261 25.4385 37.0862 25.4385C37.5463 25.4385 37.9576 25.099 37.9576 24.5952C37.9576 24.0915 37.5463 23.752 37.0862 23.752C36.6261 23.752 36.2148 24.0915 36.2148 24.5952ZM37.7624 24.5952C37.7624 24.9775 37.4604 25.2632 37.0862 25.2632C36.7075 25.2632 36.41 24.9775 36.41 24.5952C36.41 24.2129 36.7075 23.9273 37.0862 23.9273C37.4604 23.9273 37.7624 24.2129 37.7624 24.5952ZM37.321 25.0765H37.5161L37.2304 24.6538C37.3837 24.638 37.4998 24.566 37.4998 24.3906C37.4998 24.1949 37.3721 24.114 37.1258 24.114H36.7377V25.0765H36.905V24.6604H37.0607L37.321 25.0765ZM36.905 24.5255V24.2489H37.0978C37.1978 24.2489 37.3186 24.2669 37.3186 24.3794C37.3186 24.5142 37.2094 24.5255 37.0839 24.5255H36.905Z" fill="#E48E00"/>
</svg>
