<svg width="24" height="24" viewBox="0 0 24 24" fill="none" xmlns="http://www.w3.org/2000/svg">
<g clip-path="url(#clip0_3277_81)">
<circle cx="11.9998" cy="11.9998" r="11.3176" fill="white" stroke="#EA4B71" stroke-width="0.85787"/>
<path fill-rule="evenodd" clip-rule="evenodd" d="M18.1417 9.02348C17.3109 9.02348 16.6128 8.45523 16.4149 7.68625H14.3713C13.9355 7.68625 13.5636 8.00131 13.492 8.43116L13.4186 8.87089C13.3491 9.28833 13.1379 9.65161 12.8392 9.91497C13.1379 10.1783 13.3491 10.5416 13.4186 10.9591L13.492 11.3988C13.5636 11.8286 13.9355 12.1437 14.3713 12.1437H14.6319C14.8298 11.3747 15.5279 10.8065 16.3587 10.8065C17.3434 10.8065 18.1417 11.6047 18.1417 12.5894C18.1417 13.5742 17.3434 14.3724 16.3587 14.3724C15.5279 14.3724 14.8298 13.8042 14.6319 13.0352H14.3713C13.4997 13.0352 12.7559 12.4051 12.6126 11.5454L12.5392 11.1056C12.4676 10.6758 12.0957 10.3607 11.6599 10.3607H10.9536C10.7557 11.1297 10.0576 11.698 9.22676 11.698C8.39597 11.698 7.69786 11.1297 7.49995 10.3607H6.49613C6.29822 11.1297 5.6001 11.698 4.76931 11.698C3.7846 11.698 2.98633 10.8997 2.98633 9.91497C2.98633 8.93025 3.7846 8.13199 4.76931 8.13199C5.6001 8.13199 6.29822 8.70024 6.49613 9.46923H7.49995C7.69786 8.70024 8.39597 8.13199 9.22676 8.13199C10.0576 8.13199 10.7557 8.70024 10.9536 9.46923H11.6599C12.0957 9.46923 12.4676 9.15416 12.5392 8.72431L12.6126 8.28459C12.7559 7.42489 13.4997 6.79476 14.3713 6.79476H16.4149C16.6128 6.02577 17.3109 5.45752 18.1417 5.45752C19.1264 5.45752 19.9247 6.25578 19.9247 7.2405C19.9247 8.22523 19.1264 9.02348 18.1417 9.02348ZM18.1417 8.13199C18.634 8.13199 19.0332 7.73283 19.0332 7.2405C19.0332 6.74818 18.634 6.34901 18.1417 6.34901C17.6493 6.34901 17.2502 6.74818 17.2502 7.2405C17.2502 7.73283 17.6493 8.13199 18.1417 8.13199ZM4.76931 10.8065C5.26164 10.8065 5.6608 10.4073 5.6608 9.91497C5.6608 9.42265 5.26164 9.02348 4.76931 9.02348C4.27695 9.02348 3.87782 9.42265 3.87782 9.91497C3.87782 10.4073 4.27695 10.8065 4.76931 10.8065ZM10.1183 9.91497C10.1183 10.4073 9.71909 10.8065 9.22676 10.8065C8.73444 10.8065 8.33527 10.4073 8.33527 9.91497C8.33527 9.42265 8.73444 9.02348 9.22676 9.02348C9.71909 9.02348 10.1183 9.42265 10.1183 9.91497ZM17.2502 12.5894C17.2502 13.0818 16.851 13.4809 16.3587 13.4809C15.8664 13.4809 15.4672 13.0818 15.4672 12.5894C15.4672 12.0971 15.8664 11.698 16.3587 11.698C16.851 11.698 17.2502 12.0971 17.2502 12.5894Z" fill="#EA4B71"/>
<path fill-rule="evenodd" clip-rule="evenodd" d="M12.4152 16.446V16.4136C12.6576 16.2947 12.9 16.0891 12.9 15.6836C12.9 15.0995 12.4097 14.748 11.7322 14.748C11.0381 14.748 10.5424 15.1212 10.5424 15.6944C10.5424 16.0838 10.7737 16.2947 11.0271 16.4136V16.446C10.7462 16.5434 10.4102 16.8354 10.4102 17.3221C10.4102 17.9115 10.9059 18.3225 11.7267 18.3225C12.5474 18.3225 13.0267 17.9115 13.0267 17.3221C13.0267 16.8354 12.6961 16.5488 12.4152 16.446ZM11.7267 15.2456C12.0021 15.2456 12.2059 15.4186 12.2059 15.7106C12.2059 16.0026 11.9966 16.1757 11.7267 16.1757C11.4568 16.1757 11.2309 16.0026 11.2309 15.7106C11.2309 15.4132 11.4458 15.2456 11.7267 15.2456ZM11.7267 17.8034C11.4072 17.8034 11.1483 17.6033 11.1483 17.2626C11.1483 16.9544 11.3631 16.7218 11.7211 16.7218C12.0737 16.7218 12.2886 16.9489 12.2886 17.2734C12.2886 17.6033 12.0407 17.8034 11.7267 17.8034Z" fill="#101330"/>
<path d="M13.8765 18.2681H14.5815V16.8027C14.5815 16.3214 14.879 16.1105 15.215 16.1105C15.5455 16.1105 15.8044 16.3268 15.8044 16.7702V18.2681H16.5095V16.6296C16.5095 15.9212 16.0908 15.5103 15.4354 15.5103C15.0222 15.5103 14.7909 15.6725 14.6256 15.8834H14.5815L14.5209 15.5643H13.8765V18.2681Z" fill="#101330"/>
<path d="M7.63476 18.2681H6.92969V15.5643H7.57415L7.63476 15.8834H7.67881C7.84408 15.6725 8.07546 15.5103 8.4886 15.5103C9.14407 15.5103 9.56271 15.9212 9.56271 16.6296V18.2681H8.85764V16.7702C8.85764 16.3268 8.59876 16.1105 8.26822 16.1105C7.93224 16.1105 7.63476 16.3214 7.63476 16.8027V18.2681Z" fill="#101330"/>
</g>
<defs>
<clipPath id="clip0_3277_81">
<rect width="24" height="24" fill="white"/>
</clipPath>
</defs>
</svg>
