<svg width="24" height="24" viewBox="0 0 24 24" fill="none" xmlns="http://www.w3.org/2000/svg">
<g clip-path="url(#clip0_3277_82)">
<circle cx="11.9998" cy="12.0002" r="11.3176" fill="white" stroke="#EA4B71" stroke-width="0.85787"/>
<path fill-rule="evenodd" clip-rule="evenodd" d="M18.1412 9.02348C17.3104 9.02348 16.6123 8.45523 16.4144 7.68625H14.3708C13.935 7.68625 13.5631 8.00131 13.4915 8.43116L13.4181 8.87089C13.3486 9.28833 13.1374 9.65161 12.8387 9.91497C13.1374 10.1783 13.3486 10.5416 13.4181 10.9591L13.4915 11.3988C13.5631 11.8286 13.935 12.1437 14.3708 12.1437H14.6314C14.8293 11.3747 15.5274 10.8065 16.3582 10.8065C17.3429 10.8065 18.1412 11.6047 18.1412 12.5894C18.1412 13.5742 17.3429 14.3724 16.3582 14.3724C15.5274 14.3724 14.8293 13.8042 14.6314 13.0352H14.3708C13.4992 13.0352 12.7554 12.4051 12.6121 11.5454L12.5388 11.1056C12.4671 10.6758 12.0952 10.3607 11.6594 10.3607H10.9531C10.7552 11.1297 10.0571 11.698 9.22627 11.698C8.39548 11.698 7.69737 11.1297 7.49946 10.3607H6.49564C6.29773 11.1297 5.59962 11.698 4.76882 11.698C3.78411 11.698 2.98584 10.8997 2.98584 9.91497C2.98584 8.93025 3.78411 8.13199 4.76882 8.13199C5.59962 8.13199 6.29773 8.70024 6.49564 9.46923H7.49946C7.69737 8.70024 8.39548 8.13199 9.22627 8.13199C10.0571 8.13199 10.7552 8.70024 10.9531 9.46923H11.6594C12.0952 9.46923 12.4671 9.15416 12.5388 8.72431L12.6121 8.28459C12.7554 7.42489 13.4992 6.79476 14.3708 6.79476H16.4144C16.6123 6.02577 17.3104 5.45752 18.1412 5.45752C19.1259 5.45752 19.9242 6.25578 19.9242 7.2405C19.9242 8.22523 19.1259 9.02348 18.1412 9.02348ZM18.1412 8.13199C18.6335 8.13199 19.0327 7.73283 19.0327 7.2405C19.0327 6.74818 18.6335 6.34901 18.1412 6.34901C17.6489 6.34901 17.2497 6.74818 17.2497 7.2405C17.2497 7.73283 17.6489 8.13199 18.1412 8.13199ZM4.76882 10.8065C5.26115 10.8065 5.66031 10.4073 5.66031 9.91497C5.66031 9.42265 5.26115 9.02348 4.76882 9.02348C4.27647 9.02348 3.87733 9.42265 3.87733 9.91497C3.87733 10.4073 4.27647 10.8065 4.76882 10.8065ZM10.1178 9.91497C10.1178 10.4073 9.7186 10.8065 9.22627 10.8065C8.73395 10.8065 8.33478 10.4073 8.33478 9.91497C8.33478 9.42265 8.73395 9.02348 9.22627 9.02348C9.7186 9.02348 10.1178 9.42265 10.1178 9.91497ZM17.2497 12.5894C17.2497 13.0818 16.8505 13.4809 16.3582 13.4809C15.8659 13.4809 15.4667 13.0818 15.4667 12.5894C15.4667 12.0971 15.8659 11.698 16.3582 11.698C16.8505 11.698 17.2497 12.0971 17.2497 12.5894Z" fill="#EA4B71"/>
<path fill-rule="evenodd" clip-rule="evenodd" d="M12.4152 16.446V16.4136C12.6576 16.2947 12.9 16.0891 12.9 15.6836C12.9 15.0995 12.4097 14.748 11.7322 14.748C11.0381 14.748 10.5424 15.1212 10.5424 15.6944C10.5424 16.0838 10.7737 16.2947 11.0271 16.4136V16.446C10.7462 16.5434 10.4102 16.8354 10.4102 17.3221C10.4102 17.9115 10.9059 18.3225 11.7267 18.3225C12.5474 18.3225 13.0267 17.9115 13.0267 17.3221C13.0267 16.8354 12.6961 16.5488 12.4152 16.446ZM11.7267 15.2456C12.0021 15.2456 12.2059 15.4186 12.2059 15.7106C12.2059 16.0026 11.9966 16.1757 11.7267 16.1757C11.4568 16.1757 11.2309 16.0026 11.2309 15.7106C11.2309 15.4132 11.4458 15.2456 11.7267 15.2456ZM11.7267 17.8034C11.4072 17.8034 11.1483 17.6033 11.1483 17.2626C11.1483 16.9544 11.3631 16.7218 11.7211 16.7218C12.0737 16.7218 12.2886 16.9489 12.2886 17.2734C12.2886 17.6033 12.0407 17.8034 11.7267 17.8034Z" fill="#101330"/>
<path d="M13.8765 18.2686H14.5815V16.8032C14.5815 16.3219 14.879 16.111 15.215 16.111C15.5455 16.111 15.8044 16.3273 15.8044 16.7707V18.2686H16.5095V16.6301C16.5095 15.9217 16.0908 15.5107 15.4354 15.5107C15.0222 15.5107 14.7909 15.673 14.6256 15.8838H14.5815L14.5209 15.5648H13.8765V18.2686Z" fill="#101330"/>
<path d="M7.63476 18.2686H6.92969V15.5648H7.57415L7.63476 15.8838H7.67881C7.84408 15.673 8.07546 15.5107 8.4886 15.5107C9.14407 15.5107 9.56271 15.9217 9.56271 16.6301V18.2686H8.85764V16.7707C8.85764 16.3273 8.59876 16.111 8.26822 16.111C7.93224 16.111 7.63476 16.3219 7.63476 16.8032V18.2686Z" fill="#101330"/>
</g>
<defs>
<clipPath id="clip0_3277_82">
<rect width="24" height="24" fill="white"/>
</clipPath>
</defs>
</svg>
