<svg width="24" height="24" viewBox="0 0 24 24" fill="none" xmlns="http://www.w3.org/2000/svg">
<g clip-path="url(#clip0_3592_25)">
<rect width="24" height="24" rx="2" fill="#77B900"/>
<path d="M4.0434 11.0964C4.0434 11.0964 5.85168 8.47565 9.46222 8.20452V7.25371C5.46309 7.5692 2 10.8963 2 10.8963C2 10.8963 3.96144 16.4662 9.46222 16.9761V15.9655C5.42549 15.4667 4.0434 11.0964 4.0434 11.0964ZM9.46222 13.9556V14.8811C6.41135 14.3468 5.5645 11.2316 5.5645 11.2316C5.5645 11.2316 7.02935 9.63753 9.46222 9.37903V10.3946L9.45756 10.3941C8.18066 10.2436 7.18315 11.4153 7.18315 11.4153C7.18315 11.4153 7.74225 13.3879 9.46222 13.9556ZM9.46222 5.5V7.25371C9.57962 7.24487 9.69702 7.23737 9.81506 7.23342C14.3616 7.0829 17.324 10.8963 17.324 10.8963C17.324 10.8963 13.9216 14.9604 10.3769 14.9604C10.052 14.9604 9.74788 14.9309 9.46222 14.8811V15.9655C9.7065 15.996 9.95977 16.0139 10.2241 16.0139C13.5227 16.0139 15.9081 14.3591 18.218 12.4005C18.601 12.7018 20.1688 13.4348 20.4911 13.7556C18.2949 15.5618 13.1764 17.0178 10.2746 17.0178C9.99489 17.0178 9.72627 17.0012 9.46222 16.9761V18.5H22V5.5H9.46222ZM9.46222 9.37903V8.20452C9.57842 8.19655 9.69549 8.19047 9.81506 8.18676C13.0845 8.08589 15.2295 10.9466 15.2295 10.9466C15.2295 10.9466 12.9127 14.1073 10.4286 14.1073C10.0711 14.1073 9.75069 14.0508 9.46222 13.9556V10.3946C10.735 10.5457 10.9911 11.098 11.7563 12.351L13.4582 10.9414C13.4582 10.9414 12.2159 9.3409 10.1216 9.3409C9.89397 9.34082 9.67613 9.35653 9.46222 9.37903Z" fill="white"/>
</g>
<defs>
<clipPath id="clip0_3592_25">
<rect width="24" height="24" fill="white"/>
</clipPath>
</defs>
</svg>
