<svg width="24" height="24" viewBox="0 0 24 24" fill="none" xmlns="http://www.w3.org/2000/svg">
<g clip-path="url(#clip0_3087_237)">
<path d="M1.33177 18.0004L1.64264 17.8211L1.64263 17.8211L1.33177 18.0004ZM1.78725 18.4523L1.96667 18.1416L1.96357 18.1398L1.78725 18.4523ZM11.1049 23.8319L11.287 23.5227L11.2843 23.5211L11.1049 23.8319ZM12.3436 23.8316L12.1642 23.5208L12.1614 23.5225L12.3436 23.8316ZM21.6616 18.4521L21.4853 18.1395L21.4822 18.1413L21.6616 18.4521ZM22.2805 17.38H21.9217L21.9217 17.3835L22.2805 17.38ZM22.2805 6.62089L21.9217 6.61792V6.62089H22.2805ZM22.1165 6.00022L22.4273 5.821L22.4271 5.82065L22.1165 6.00022ZM21.661 5.54824L21.4816 5.859L21.4841 5.86042L21.661 5.54824ZM12.343 0.168693L12.1607 0.477783L12.1636 0.479447L12.343 0.168693ZM11.1055 0.1684L11.2849 0.47916L11.2877 0.47748L11.1055 0.1684ZM1.78783 5.54824L1.96452 5.86056L1.96724 5.85899L1.78783 5.54824ZM1.33207 6.00022L1.0214 5.82065L1.0212 5.821L1.33207 6.00022ZM1.16832 6.6206L1.52715 6.62061L1.52713 6.61762L1.16832 6.6206ZM1.16803 17.38L1.52685 17.3834L1.52685 17.38L1.16803 17.38ZM5.24722 7.93573V7.5769C5.04905 7.5769 4.8884 7.73755 4.8884 7.93573H5.24722ZM13.4343 7.93573H13.7932C13.7932 7.73755 13.6325 7.5769 13.4343 7.5769V7.93573ZM13.4343 16.1228V16.4817C13.6325 16.4817 13.7932 16.321 13.7932 16.1228H13.4343ZM5.24722 16.1228H4.8884C4.8884 16.321 5.04905 16.4817 5.24722 16.4817V16.1228ZM15.8378 6.98646V6.62764C15.6396 6.62764 15.4789 6.78829 15.4789 6.98646H15.8378ZM18.2014 6.98646H18.5602C18.5602 6.78829 18.3996 6.62764 18.2014 6.62764V6.98646ZM18.2014 9.35012V9.70894C18.3996 9.70894 18.5602 9.54829 18.5602 9.35012H18.2014ZM15.8378 9.35012H15.4789C15.4789 9.54829 15.6396 9.70894 15.8378 9.70894V9.35012ZM15.8378 10.8184V10.4596C15.6396 10.4596 15.4789 10.6202 15.4789 10.8184H15.8378ZM18.2014 10.8184H18.5602C18.5602 10.6202 18.3996 10.4596 18.2014 10.4596V10.8184ZM18.2014 13.1821V13.5409C18.3996 13.5409 18.5602 13.3802 18.5602 13.1821H18.2014ZM15.8378 13.1821H15.4789C15.4789 13.3802 15.6396 13.5409 15.8378 13.5409V13.1821ZM15.8378 14.6496V14.2908C15.6396 14.2908 15.4789 14.4514 15.4789 14.6496H15.8378ZM18.2014 14.6496H18.5602C18.5602 14.4514 18.3996 14.2908 18.2014 14.2908V14.6496ZM18.2014 17.0133V17.3721C18.3996 17.3721 18.5602 17.2114 18.5602 17.0133H18.2014ZM15.8378 17.0133H15.4789C15.4789 17.2114 15.6396 17.3721 15.8378 17.3721V17.0133ZM13.6201 11.6705C13.422 11.6705 13.2613 11.8312 13.2613 12.0293C13.2613 12.2275 13.422 12.3882 13.6201 12.3882V12.0293V11.6705ZM15.699 12.3882C15.8972 12.3882 16.0578 12.2275 16.0578 12.0293C16.0578 11.8312 15.8972 11.6705 15.699 11.6705V12.0293V12.3882ZM13.7267 12.7222C13.569 12.6021 13.3439 12.6326 13.2238 12.7903C13.1038 12.9479 13.1342 13.1731 13.2919 13.2931L13.5093 13.0077L13.7267 12.7222ZM15.6526 15.091C15.8103 15.2111 16.0354 15.1806 16.1555 15.0229C16.2755 14.8653 16.2451 14.6401 16.0874 14.5201L15.87 14.8055L15.6526 15.091ZM13.2919 10.7659C13.1342 10.886 13.1038 11.1111 13.2238 11.2688C13.3439 11.4264 13.5691 11.4569 13.7267 11.3368L13.5093 11.0514L13.2919 10.7659ZM16.0874 9.53897C16.2451 9.4189 16.2755 9.19376 16.1555 9.0361C16.0354 8.87844 15.8103 8.84797 15.6526 8.96804L15.87 9.2535L16.0874 9.53897ZM1.33177 18.0004L1.02091 18.1796C1.16671 18.4325 1.37293 18.6306 1.61092 18.7649L1.78725 18.4523L1.96357 18.1398C1.8345 18.067 1.72253 17.9597 1.64264 17.8211L1.33177 18.0004ZM1.78725 18.4523L1.60783 18.7631L10.9255 24.1426L11.1049 23.8319L11.2843 23.5211L1.96666 18.1416L1.78725 18.4523ZM11.1049 23.8319L10.9228 24.1411C11.1585 24.2799 11.4329 24.3588 11.7244 24.3588V24V23.6412C11.5639 23.6412 11.4148 23.598 11.287 23.5227L11.1049 23.8319ZM11.7244 24V24.3588C12.0162 24.3588 12.2906 24.2794 12.5259 24.1407L12.3436 23.8316L12.1614 23.5225C12.0336 23.5978 11.8846 23.6412 11.7244 23.6412V24ZM12.3436 23.8316L12.523 24.1424L21.841 18.7628L21.6616 18.4521L21.4822 18.1413L12.1642 23.5208L12.3436 23.8316ZM21.6616 18.4521L21.8379 18.7646C22.0761 18.6302 22.2815 18.4323 22.4274 18.1799L22.1168 18.0004L21.8061 17.8208C21.7257 17.9599 21.6141 18.0669 21.4853 18.1395L21.6616 18.4521ZM22.1168 18.0004L22.4274 18.1799C22.5735 17.9271 22.642 17.6499 22.6393 17.3765L22.2805 17.38L21.9217 17.3835C21.9231 17.5318 21.8863 17.6821 21.8061 17.8208L22.1168 18.0004ZM22.2805 17.38H22.6393V6.62089H22.2805H21.9217V17.38H22.2805ZM22.2805 6.62089L22.6393 6.62387C22.6416 6.35093 22.5729 6.07345 22.4273 5.821L22.1165 6.00022L21.8056 6.17944C21.8857 6.31847 21.9229 6.46971 21.9217 6.61792L22.2805 6.62089ZM22.1165 6.00022L22.4271 5.82065C22.281 5.56785 22.075 5.37039 21.8379 5.23606L21.661 5.54824L21.4841 5.86042C21.6135 5.93375 21.7256 6.04111 21.8058 6.17979L22.1165 6.00022ZM21.661 5.54824L21.8404 5.23749L12.5224 -0.14206L12.343 0.168693L12.1636 0.479447L21.4816 5.85899L21.661 5.54824ZM12.343 0.168693L12.5253 -0.140383C12.2904 -0.278926 12.0163 -0.358824 11.7241 -0.358824V0V0.358824C11.8839 0.358824 12.0327 0.402246 12.1608 0.47777L12.343 0.168693ZM11.7241 0V-0.358824C11.4325 -0.358824 11.1584 -0.279363 10.9232 -0.14068L11.1055 0.1684L11.2877 0.47748C11.4156 0.402096 11.5643 0.358824 11.7241 0.358824V0ZM11.1055 0.1684L10.9261 -0.142347L1.60841 5.23749L1.78783 5.54824L1.96724 5.85899L11.2849 0.479146L11.1055 0.1684ZM1.78783 5.54824L1.61113 5.23593C1.37364 5.3703 1.16754 5.56782 1.0214 5.82065L1.33207 6.00022L1.64273 6.17979C1.72287 6.04114 1.83496 5.93385 1.96452 5.86055L1.78783 5.54824ZM1.33207 6.00022L1.0212 5.821C0.875544 6.07366 0.807245 6.35088 0.809507 6.62358L1.16832 6.6206L1.52713 6.61762C1.5259 6.46917 1.56289 6.31826 1.64293 6.17944L1.33207 6.00022ZM1.16832 6.6206L0.809494 6.62059L0.809201 17.38L1.16803 17.38L1.52685 17.38L1.52714 6.62061L1.16832 6.6206ZM1.16803 17.38L0.809218 17.3765C0.806579 17.6502 0.875423 17.9272 1.02091 18.1796L1.33177 18.0004L1.64263 17.8211C1.56241 17.682 1.5254 17.5315 1.52683 17.3834L1.16803 17.38ZM5.24722 7.93573V8.29455H13.4343V7.93573V7.5769H5.24722V7.93573ZM13.4343 7.93573H13.0755V16.1228H13.4343H13.7932V7.93573H13.4343ZM13.4343 16.1228V15.764H5.24722V16.1228V16.4817H13.4343V16.1228ZM5.24722 16.1228H5.60605V7.93573H5.24722H4.8884V16.1228H5.24722ZM15.8378 6.98646V7.34529H18.2014V6.98646V6.62764H15.8378V6.98646ZM18.2014 6.98646H17.8426V9.35012H18.2014H18.5602V6.98646H18.2014ZM18.2014 9.35012V8.99129H15.8378V9.35012V9.70894H18.2014V9.35012ZM15.8378 9.35012H16.1966V6.98646H15.8378H15.4789V9.35012H15.8378ZM15.8378 10.8184V11.1772H18.2014V10.8184V10.4596H15.8378V10.8184ZM18.2014 10.8184H17.8426V13.1821H18.2014H18.5602V10.8184H18.2014ZM18.2014 13.1821V12.8232H15.8378V13.1821V13.5409H18.2014V13.1821ZM15.8378 13.1821H16.1966V10.8184H15.8378H15.4789V13.1821H15.8378ZM15.8378 14.6496V15.0084H18.2014V14.6496V14.2908H15.8378V14.6496ZM18.2014 14.6496H17.8426V17.0133H18.2014H18.5602V14.6496H18.2014ZM18.2014 17.0133V16.6545H15.8378V17.0133V17.3721H18.2014V17.0133ZM15.8378 17.0133H16.1966V14.6496H15.8378H15.4789V17.0133H15.8378ZM13.6201 12.0293V12.3882H15.699V12.0293V11.6705H13.6201V12.0293ZM13.5093 13.0077L13.2919 13.2931L15.6526 15.091L15.87 14.8055L16.0874 14.5201L13.7267 12.7222L13.5093 13.0077ZM13.5093 11.0514L13.7267 11.3368L16.0874 9.53897L15.87 9.2535L15.6526 8.96804L13.2919 10.7659L13.5093 11.0514Z" fill="white"/>
</g>
<defs>
<clipPath id="clip0_3087_237">
<rect width="24" height="24" fill="white"/>
</clipPath>
</defs>
</svg>
