<svg width="24" height="24" viewBox="0 0 24 24" fill="none" xmlns="http://www.w3.org/2000/svg">
<path d="M11.954 0H12.0097C12.295 0.136011 12.5728 0.287096 12.8421 0.452618C15.9418 2.2368 19.0414 4.02155 22.1411 5.80688C22.261 5.87095 22.359 5.9696 22.4222 6.09005C22.4854 6.2105 22.511 6.34718 22.4957 6.48238C22.4888 10.2448 22.4957 14.0063 22.4914 17.767C22.4511 17.9464 22.3415 18.1026 22.1865 18.2016C18.8904 20.1012 15.5941 21.9997 12.2974 23.897C12.2175 23.958 12.1212 23.9936 12.0209 23.9992C11.9207 24.0049 11.821 23.9803 11.7348 23.9287C8.43468 22.0348 5.13775 20.1375 1.84396 18.2367C1.73691 18.1861 1.64725 18.1048 1.58629 18.0032C1.52532 17.9016 1.49578 17.7842 1.50139 17.6658C1.50139 13.9043 1.50139 10.143 1.50139 6.38208C1.49331 6.26421 1.52053 6.1466 1.57957 6.0443C1.63861 5.94199 1.72678 5.85963 1.83283 5.80773C4.9285 4.02584 8.02417 2.2428 11.1198 0.458618C11.3956 0.300888 11.6662 0.133728 11.954 0Z" fill="#019639"/>
<path d="M5.50034 7.32927C5.50034 10.4385 5.50034 13.5481 5.50034 16.6579C5.49644 16.8301 5.52632 17.0014 5.58824 17.1617C5.65016 17.322 5.74288 17.4682 5.86097 17.5917C6.08733 17.8191 6.38352 17.9608 6.70012 17.993C7.01673 18.0252 7.33463 17.946 7.60079 17.7686C7.77895 17.6455 7.9248 17.4799 8.02564 17.2863C8.12647 17.0927 8.17923 16.877 8.17932 16.6579C8.17932 14.4071 8.17509 12.1564 8.17932 9.90561C10.1967 12.3625 12.2183 14.816 14.2442 17.2661C14.5256 17.5561 14.8742 17.7696 15.2578 17.887C15.6415 18.0044 16.048 18.0219 16.4401 17.9379C16.7169 17.8824 16.9689 17.7381 17.1591 17.5261C17.3493 17.3141 17.4676 17.0456 17.4966 16.7601C17.5011 13.5867 17.5011 10.4136 17.4966 7.24079C17.4675 6.90211 17.3147 6.58682 17.0683 6.35712C16.8219 6.12742 16.4998 6 16.1656 6C15.8313 6 15.5092 6.12742 15.2628 6.35712C15.0164 6.58682 14.8636 6.90211 14.8345 7.24079C14.8345 9.52763 14.821 11.8119 14.8345 14.0979C12.8532 11.7217 10.8963 9.32489 8.92254 6.94012C8.66232 6.60072 8.31783 6.33806 7.92457 6.1792C7.5313 6.02034 7.10351 5.97104 6.68527 6.03638C6.36844 6.07225 6.07473 6.22238 5.85735 6.45956C5.63998 6.69675 5.51332 7.00529 5.50034 7.32927Z" fill="white"/>
</svg>
