<svg width="24" height="24" viewBox="0 0 24 24" fill="none" xmlns="http://www.w3.org/2000/svg">
<path d="M11.3506 0.383908C11.7527 0.152092 12.2484 0.151865 12.6504 0.383908L21.7344 5.62902C22.1364 5.86123 22.3847 6.29076 22.3848 6.755V17.2443C22.3848 17.7085 22.1363 18.1379 21.7344 18.3702L12.6504 23.6154C12.2483 23.8475 11.7527 23.8473 11.3506 23.6154L2.26562 18.3702C1.86361 18.138 1.61621 17.7086 1.61621 17.2443V6.755C1.61631 6.2908 1.86368 5.86124 2.26562 5.62902L11.3506 0.383908Z" fill="#009639"/>
<path fill-rule="evenodd" clip-rule="evenodd" d="M18.8789 6.56654C19.1547 6.56681 19.3788 6.79067 19.3789 7.06654V9.19935C19.3787 9.47515 19.1547 9.69909 18.8789 9.69935H16.7471C16.7103 9.69935 16.6742 9.69324 16.6396 9.68568L13.3008 11.1847V11.6994H16.2471V10.9337C16.2472 10.6577 16.471 10.4337 16.7471 10.4337H18.8789C19.1548 10.434 19.3788 10.6578 19.3789 10.9337V13.0656C19.3789 13.3415 19.1548 13.5653 18.8789 13.5656H16.7471C16.4709 13.5656 16.2471 13.3417 16.2471 13.0656V12.2999H13.3008V12.8204L16.6387 14.3126C16.6734 14.305 16.71 14.2999 16.7471 14.2999H18.8789C19.1546 14.3002 19.3786 14.5242 19.3789 14.7999V16.9328C19.3789 17.2087 19.1548 17.4325 18.8789 17.4328H16.7471C16.4709 17.4328 16.2471 17.2089 16.2471 16.9328V14.7941L13.3008 13.4777V15.5001C13.3005 15.9416 12.9414 16.2997 12.5 16.2999H5.5C5.05852 16.2997 4.70045 15.9416 4.7002 15.5001V8.50014C4.70028 8.05852 5.05842 7.69958 5.5 7.69935H12.5C12.9416 7.69962 13.3007 8.05854 13.3008 8.50014V10.5265L16.2471 9.20424V7.06654C16.2472 6.7905 16.471 6.56654 16.7471 6.56654H18.8789ZM16.8467 16.8331H18.7793V14.9005H16.8467V16.8331ZM5.5 8.29994C5.38979 8.30017 5.30086 8.38989 5.30078 8.50014V15.5001C5.30103 15.6102 5.38989 15.6991 5.5 15.6994H12.5C12.6101 15.6991 12.6999 15.6102 12.7002 15.5001V8.50014C12.7001 8.38991 12.6102 8.3002 12.5 8.29994H5.5ZM16.8467 12.966H18.7793V11.0333H16.8467V12.966ZM16.8467 9.09877H18.7793V7.16615H16.8467V9.09877Z" fill="white"/>
<path fill-rule="evenodd" clip-rule="evenodd" d="M11.3506 0.383925C11.7527 0.152075 12.2484 0.151871 12.6504 0.383925L21.7344 5.62904C22.1364 5.86128 22.3847 6.29075 22.3848 6.75502V17.2443C22.3848 17.7086 22.1363 18.138 21.7344 18.3703L12.6504 23.6154C12.2483 23.8475 11.7527 23.8473 11.3506 23.6154L2.26562 18.3703C1.86361 18.138 1.61523 17.7086 1.61523 17.2443V6.75502C1.61529 6.29076 1.86364 5.86128 2.26562 5.62904L11.3506 0.383925ZM12.3506 0.903456C12.1342 0.778511 11.8669 0.778706 11.6504 0.903456L2.56641 6.14857C2.34987 6.27359 2.21588 6.50499 2.21582 6.75502V17.2443C2.21582 17.4944 2.34982 17.7257 2.56641 17.8507L11.6504 23.0958C11.8669 23.2207 12.1341 23.2208 12.3506 23.0958L21.4346 17.8507C21.6509 17.7256 21.7852 17.4942 21.7852 17.2443V6.75502C21.7851 6.50511 21.6509 6.27363 21.4346 6.14857L12.3506 0.903456Z" fill="white"/>
</svg>
