<svg width="24" height="24" viewBox="0 0 24 24" fill="none" xmlns="http://www.w3.org/2000/svg">
<path d="M11.9978 24C11.6667 24 11.3576 23.9118 11.0703 23.7574L8.13283 22.0158C7.69114 21.7732 7.91198 21.6849 8.04431 21.6408C8.64069 21.4423 8.75126 21.3982 9.36969 21.0454C9.43586 21.0013 9.52407 21.0233 9.59023 21.0674L11.8434 22.4124C11.9316 22.4565 12.0422 22.4565 12.1084 22.4124L20.9208 17.3192C21.0093 17.2751 21.0534 17.1871 21.0534 17.0769V6.91241C21.0534 6.80214 21.0093 6.71392 20.9211 6.66982L12.1084 1.59861C12.0202 1.5545 11.9093 1.5545 11.8434 1.59861L3.03069 6.66982C2.94186 6.71392 2.89775 6.82419 2.89775 6.91241V17.0769C2.89775 17.1648 2.94217 17.2751 3.03038 17.3192L5.43795 18.7083C6.74098 19.3699 7.5582 18.598 7.5582 17.8264V7.79427C7.5582 7.66194 7.66847 7.52962 7.82316 7.52962H8.94975C9.08207 7.52962 9.2147 7.63989 9.2147 7.79427V17.8264C9.2147 19.5684 8.26516 20.5825 6.60835 20.5825C6.10049 20.5825 5.7029 20.5825 4.57662 20.0312L2.25727 18.7083C1.97526 18.5448 1.74117 18.31 1.57845 18.0276C1.41572 17.7451 1.33007 17.4249 1.33008 17.0989V6.93446C1.33005 6.60841 1.41572 6.28808 1.5785 6.00557C1.74129 5.72307 1.97547 5.48831 2.25757 5.32483L11.07 0.231567C11.6226 -0.0771891 12.3733 -0.0771891 12.9256 0.231567L21.738 5.32483C22.0202 5.48827 22.2544 5.72301 22.4173 6.00552C22.5801 6.28803 22.6658 6.60838 22.6658 6.93446V17.0989C22.6658 17.425 22.58 17.7452 22.4172 18.0277C22.2544 18.3101 22.0201 18.5448 21.738 18.7083L12.9256 23.8015C12.6606 23.9118 12.3292 24 11.9978 24Z" fill="#5FA04E"/>
<path d="M14.7366 17.0112C10.871 17.0112 10.0762 15.2472 10.0762 13.7478C10.0762 13.6155 10.1864 13.4832 10.3411 13.4832H11.4898C11.6224 13.4832 11.7327 13.5714 11.7327 13.7037C11.9094 14.8723 12.4173 15.4457 14.7587 15.4457C16.614 15.4457 17.4088 15.0267 17.4088 14.0345C17.4088 13.4614 17.1883 13.0421 14.2946 12.7557C11.8871 12.5131 10.3855 11.9838 10.3855 10.0657C10.3855 8.27997 11.8874 7.22168 14.4052 7.22168C17.2324 7.22168 18.6236 8.19175 18.8007 10.3083C18.8007 10.3745 18.7783 10.4406 18.7342 10.5068C18.6901 10.5509 18.624 10.595 18.5575 10.595H17.3868C17.3301 10.5931 17.2757 10.5727 17.2318 10.5368C17.1879 10.501 17.157 10.4517 17.1439 10.3965C16.8789 9.18357 16.1943 8.7869 14.3831 8.7869C12.3511 8.7869 12.1082 9.49263 12.1082 10.0216C12.1082 10.6612 12.3952 10.8597 15.1342 11.2122C17.8508 11.5651 19.1315 12.0723 19.1315 13.9684C19.1315 15.9088 17.5194 17.0112 14.7366 17.0112Z" fill="#5FA04E"/>
</svg>
