<svg width="24" height="24" viewBox="0 0 24 24" fill="none" xmlns="http://www.w3.org/2000/svg">
<g clip-path="url(#clip0_3087_206)">
<path d="M12.0001 0C5.37291 0 0 5.37228 0 11.9997C0 18.6269 5.37291 23.9996 12.0001 23.9996C18.6273 23.9996 24 18.6269 24 11.9997C24 5.37228 18.6271 0 12.0001 0ZM12.0001 22.4588C10.1145 22.4588 8.58581 21.1992 8.58581 19.6459H15.4144C15.4144 21.199 13.8857 22.4588 12.0001 22.4588ZM17.6394 18.7143H6.36016V16.6691H17.6396L17.6394 18.7143ZM17.599 15.6164H6.39235C6.35508 15.5734 6.31696 15.5311 6.28096 15.4875C5.12642 14.0856 4.85451 13.3537 4.59044 12.6079C4.58599 12.5833 5.99042 12.8948 6.98635 13.1189C6.98635 13.1189 7.49882 13.2375 8.24805 13.374C7.52868 12.5308 7.10155 11.4588 7.10155 10.3632C7.10155 7.95773 8.94645 5.85574 8.28087 4.15675C8.92866 4.20948 9.62156 5.52391 9.66836 7.57909C10.357 6.62742 10.6452 4.88946 10.6452 3.82386C10.6452 2.72056 11.3722 1.43895 12.0994 1.39511C11.4512 2.46347 12.2674 3.37936 12.9929 5.65139C13.265 6.50481 13.2303 7.941 13.4403 8.8518C13.51 6.9601 13.8353 4.19995 15.0353 3.24701C14.5059 4.44708 15.1137 5.94871 15.5294 6.67062C16.2 7.83533 16.6066 8.71775 16.6066 10.3867C16.6066 11.5056 16.1935 12.5592 15.4966 13.3827C16.289 13.2341 16.8362 13.1 16.8362 13.1L19.4096 12.5979C19.4096 12.5979 19.0358 14.1356 17.599 15.6164Z" fill="#E6522C"/>
</g>
<defs>
<clipPath id="clip0_3087_206">
<rect width="24" height="24" fill="white"/>
</clipPath>
</defs>
</svg>
