<svg width="24" height="24" viewBox="0 0 24 24" fill="none" xmlns="http://www.w3.org/2000/svg">
<g clip-path="url(#clip0_2067_97)">
<path d="M0 8H24V16H12V17.3333H6.66667V16H0V8ZM1.33333 14.6667H4V10.6667H5.33333V14.6667H6.66667V9.33333H1.33333V14.6667ZM8 9.33333V16H10.6667V14.6667H13.3333V9.33333H8ZM10.6667 10.6667H12V13.3333H10.6667V10.6667ZM14.6667 9.33333V14.6667H17.3333V10.6667H18.6667V14.6667H20V10.6667H21.3333V14.6667H22.6667V9.33333H14.6667Z" fill="#CB3837"/>
<path d="M1.33325 14.6663H3.99992V10.6663H5.33325V14.6663H6.66659V9.33301H1.33325V14.6663Z" fill="white"/>
<path d="M8 9.33301V15.9997H10.6667V14.6663H13.3333V9.33301H8ZM12 13.333H10.6667V10.6663H12V13.333Z" fill="white"/>
<path d="M14.6667 9.33301V14.6663H17.3334V10.6663H18.6667V14.6663H20.0001V10.6663H21.3334V14.6663H22.6667V9.33301H14.6667Z" fill="white"/>
</g>
<defs>
<clipPath id="clip0_2067_97">
<rect width="24" height="24" fill="white"/>
</clipPath>
</defs>
</svg>
