<svg width="24" height="24" viewBox="0 0 24 24" fill="none" xmlns="http://www.w3.org/2000/svg">
<path d="M23.8325 20.2764C23.8325 20.534 23.6434 20.7068 23.4196 20.7068V20.7052C23.1894 20.7068 23.0038 20.534 23.0038 20.2765C23.0038 20.0191 23.1894 19.8468 23.4196 19.8468C23.6435 19.8467 23.8325 20.0191 23.8325 20.2764ZM24 20.2764C24 19.9231 23.7255 19.7179 23.4196 19.7179C23.1115 19.7179 22.837 19.9231 22.837 20.2764C22.837 20.6296 23.1116 20.8356 23.4196 20.8356C23.7256 20.8356 24 20.6296 24 20.2764ZM23.3233 20.3237H23.3854L23.5294 20.5766H23.6876L23.5281 20.313C23.6105 20.3072 23.6783 20.2679 23.6783 20.1569C23.6783 20.0191 23.5832 19.9748 23.4222 19.9748H23.1893V20.5766H23.3232L23.3233 20.3237ZM23.3233 20.2218V20.0769H23.4164C23.4671 20.0769 23.5361 20.081 23.5361 20.1428C23.5361 20.2101 23.5004 20.2218 23.4407 20.2218H23.3233Z" fill="white"/>
<path d="M20.0911 17.1979L20.8148 19.1777H19.345L20.0911 17.1979ZM19.3161 16.427L17.6483 20.6526H18.826L19.0898 19.906H21.0635L21.3131 20.6526H22.5916L20.9114 16.4265L19.3161 16.427ZM15.9678 20.6542H17.1626V16.4257L15.9676 16.4255L15.9678 20.6542ZM7.67322 16.4255L6.67637 19.7768L5.72145 16.4257L4.43227 16.4255L5.79609 20.6542H7.51739L8.8922 16.4255H7.67322ZM12.5028 17.3462H13.0163C13.7613 17.3462 14.2431 17.6807 14.2431 18.5487C14.2431 19.4169 13.7613 19.7514 13.0163 19.7514H12.5028V17.3462ZM11.318 16.4255V20.6542H13.255C14.287 20.6542 14.624 20.4826 14.9884 20.0978C15.2458 19.8276 15.4123 19.2346 15.4123 18.5863C15.4123 17.9917 15.2714 17.4618 15.0258 17.1315C14.5832 16.5409 13.9457 16.4255 12.9942 16.4255H11.318ZM0 16.4196V20.6542H1.20492V17.4388L2.13853 17.4391C2.44766 17.4391 2.66802 17.5161 2.81689 17.6752C3.0057 17.8763 3.0828 18.2009 3.0828 18.7947V20.6542H4.25036V18.3145C4.25036 16.6447 3.18604 16.4196 2.14468 16.4196H0ZM9.39506 16.4255L9.39554 20.6542H10.5898V16.4255H9.39506Z" fill="white"/>
<path d="M3.21102 8.00571C3.21102 8.00571 4.74774 5.7384 7.81606 5.50383V4.68125C4.41751 4.95419 1.4745 7.83261 1.4745 7.83261C1.4745 7.83261 3.14137 12.6512 7.81606 13.0924V12.2181C4.38555 11.7865 3.21102 8.00571 3.21102 8.00571ZM7.81606 10.4793V11.28C5.22336 10.8178 4.50369 8.12262 4.50369 8.12262C4.50369 8.12262 5.74855 6.74357 7.81606 6.51994V7.39858L7.8121 7.3981C6.72696 7.26788 5.87925 8.28159 5.87925 8.28159C5.87925 8.28159 6.35439 9.98814 7.81606 10.4793ZM7.81606 3.16406V4.68125C7.91583 4.6736 8.0156 4.66712 8.11591 4.6637C11.9797 4.53348 14.4972 7.83261 14.4972 7.83261C14.4972 7.83261 11.6058 11.3485 8.59337 11.3485C8.31729 11.3485 8.05882 11.323 7.81606 11.28V12.2181C8.02365 12.2445 8.23889 12.26 8.46349 12.26C11.2667 12.26 13.2939 10.8283 15.2569 9.13394C15.5824 9.39459 16.9148 10.0287 17.1887 10.3063C15.3223 11.8689 10.9725 13.1285 8.50644 13.1285C8.26873 13.1285 8.04045 13.1141 7.81606 13.0924V14.4108H18.4709V3.16406H7.81606ZM7.81606 6.51994V5.50383C7.9148 5.49693 8.0143 5.49168 8.11591 5.48847C10.8944 5.4012 12.7172 7.87611 12.7172 7.87611C12.7172 7.87611 10.7484 10.6105 8.63734 10.6105C8.33354 10.6105 8.06121 10.5617 7.81606 10.4793V7.39858C8.89772 7.52928 9.11535 8.00708 9.76564 9.09113L11.212 7.8716C11.212 7.8716 10.1562 6.48695 8.37642 6.48695C8.18297 6.48688 7.99784 6.50047 7.81606 6.51994Z" fill="#77B900"/>
</svg>
