<svg width="24" height="24" viewBox="0 0 24 24" fill="none" xmlns="http://www.w3.org/2000/svg">
<g clip-path="url(#clip0_1535_3330)">
<g clip-path="url(#clip1_1535_3330)">
<rect width="24" height="24" fill="#FAFAFA"/>
<g clip-path="url(#clip2_1535_3330)">
<path d="M18.7106 14.9026C18.7106 15.0395 18.6098 15.1315 18.4904 15.1315V15.1306C18.3676 15.1315 18.2686 15.0395 18.2686 14.9026C18.2686 14.7657 18.3676 14.674 18.4904 14.674C18.6098 14.674 18.7106 14.7657 18.7106 14.9026ZM18.7999 14.9026C18.7999 14.7146 18.6535 14.6055 18.4904 14.6055C18.3261 14.6055 18.1797 14.7146 18.1797 14.9026C18.1797 15.0904 18.3261 15.2 18.4904 15.2C18.6536 15.2 18.7999 15.0904 18.7999 14.9026ZM18.439 14.9277H18.4722L18.549 15.0622H18.6333L18.5483 14.922C18.5922 14.9189 18.6284 14.898 18.6284 14.839C18.6284 14.7657 18.5777 14.7421 18.4918 14.7421H18.3676V15.0622H18.439V14.9277H18.439ZM18.439 14.8735V14.7964H18.4887C18.5157 14.7964 18.5526 14.7986 18.5526 14.8315C18.5526 14.8673 18.5335 14.8735 18.5016 14.8735H18.439Z" fill="black"/>
<path d="M16.7153 13.2656L17.1012 14.3187H16.3174L16.7153 13.2656ZM16.3019 12.8555L15.4124 15.1032H16.0405L16.1812 14.7061H17.2339L17.367 15.1032H18.0489L17.1527 12.8552L16.3019 12.8555ZM14.5162 15.1041H15.1534V12.8548L14.516 12.8547L14.5162 15.1041ZM10.0924 12.8547L9.56074 14.6374L9.05145 12.8548L8.36388 12.8547L9.09125 15.1041H10.0093L10.7425 12.8547H10.0924ZM12.6682 13.3445H12.942C13.3394 13.3445 13.5963 13.5224 13.5963 13.9841C13.5963 14.4459 13.3394 14.6239 12.942 14.6239H12.6682V13.3445ZM12.0363 12.8547V15.1041H13.0694C13.6198 15.1041 13.7995 15.0128 13.9938 14.8081C14.1311 14.6644 14.2199 14.3489 14.2199 14.0041C14.2199 13.6878 14.1447 13.4059 14.0137 13.2303C13.7777 12.9161 13.4377 12.8547 12.9303 12.8547H12.0363ZM6 12.8516V15.1041H6.64262V13.3937L7.14055 13.3939C7.30542 13.3939 7.42295 13.4348 7.50234 13.5194C7.60304 13.6264 7.64416 13.7991 7.64416 14.115V15.1041H8.26686V13.8595C8.26686 12.9713 7.69923 12.8516 7.14383 12.8516H6ZM11.0107 12.8547L11.011 15.1041H11.6479V12.8547H11.0107Z" fill="black"/>
<path d="M7.71228 8.37522C7.71228 8.37522 8.53187 7.16917 10.1683 7.0444V6.60684C8.35574 6.75203 6.78613 8.28314 6.78613 8.28314C6.78613 8.28314 7.67513 10.8463 10.1683 11.081V10.6159C8.3387 10.3863 7.71228 8.37522 7.71228 8.37522ZM10.1683 9.69097V10.1169C8.78553 9.87103 8.4017 8.43741 8.4017 8.43741C8.4017 8.43741 9.06563 7.70385 10.1683 7.58489V8.05227C10.1675 8.05227 10.1669 8.05201 10.1662 8.05201C9.58745 7.98274 9.13534 8.52197 9.13534 8.52197C9.13534 8.52197 9.38874 9.42973 10.1683 9.69097ZM10.1683 5.7998V6.60684C10.2215 6.60277 10.2747 6.59932 10.3282 6.59751C12.3889 6.52824 13.7316 8.28314 13.7316 8.28314C13.7316 8.28314 12.1895 10.1534 10.5829 10.1534C10.4356 10.1534 10.2978 10.1397 10.1683 10.1169V10.6159C10.279 10.6299 10.3938 10.6382 10.5136 10.6382C12.0087 10.6382 13.0898 9.87666 14.1368 8.97536C14.3103 9.11401 15.0209 9.45131 15.167 9.59896C14.1716 10.4302 11.8517 11.1002 10.5365 11.1002C10.4097 11.1002 10.288 11.0925 10.1683 11.081V11.7823H15.8509V5.7998H10.1683ZM10.1683 7.58489V7.04443C10.221 7.04076 10.274 7.03793 10.3282 7.03622C11.8101 6.9898 12.7822 8.30628 12.7822 8.30628C12.7822 8.30628 11.7322 9.76078 10.6063 9.76078C10.4443 9.76078 10.299 9.73481 10.1683 9.69097V8.05227C10.7452 8.12179 10.8613 8.37595 11.2081 8.95258L11.9794 8.30388C11.9794 8.30388 11.4164 7.56735 10.4672 7.56735C10.364 7.56731 10.2653 7.57454 10.1683 7.58489Z" fill="#77B900"/>
</g>
<path d="M14.4023 17.9378C14.4023 17.6911 14.4096 17.5261 14.4242 17.4425C14.4397 17.359 14.4635 17.2915 14.4956 17.2401C14.547 17.142 14.6296 17.0546 14.7432 16.9778C14.8549 16.9002 14.9943 16.8603 15.1613 16.8584C15.3303 16.8603 15.4711 16.9002 15.5837 16.9778C15.6954 17.0546 15.776 17.142 15.8255 17.2401C15.8615 17.2915 15.8862 17.359 15.8998 17.4425C15.9125 17.5261 15.9188 17.6911 15.9188 17.9378C15.9188 18.1806 15.9125 18.3447 15.8998 18.4302C15.8862 18.5156 15.8615 18.5841 15.8255 18.6356C15.776 18.7337 15.6954 18.8201 15.5837 18.8949C15.4711 18.9726 15.3303 19.0134 15.1613 19.0172C14.9943 19.0134 14.8549 18.9726 14.7432 18.8949C14.6296 18.8201 14.547 18.7337 14.4956 18.6356C14.48 18.6035 14.466 18.5729 14.4533 18.5438C14.4417 18.5137 14.432 18.4758 14.4242 18.4302C14.4096 18.3447 14.4023 18.1806 14.4023 17.9378ZM14.7257 17.9378C14.7257 18.1466 14.7335 18.2879 14.749 18.3617C14.7626 18.4355 14.7903 18.4953 14.8321 18.5409C14.8661 18.5846 14.9107 18.62 14.9661 18.6472C15.0205 18.6793 15.0855 18.6953 15.1613 18.6953C15.238 18.6953 15.3045 18.6793 15.3609 18.6472C15.4143 18.62 15.457 18.5846 15.489 18.5409C15.5308 18.4953 15.5595 18.4355 15.575 18.3617C15.5896 18.2879 15.5968 18.1466 15.5968 17.9378C15.5968 17.729 15.5896 17.5868 15.575 17.511C15.5595 17.4391 15.5308 17.3804 15.489 17.3347C15.457 17.291 15.4143 17.2546 15.3609 17.2255C15.3045 17.1973 15.238 17.1823 15.1613 17.1803C15.0855 17.1823 15.0205 17.1973 14.9661 17.2255C14.9107 17.2546 14.8661 17.291 14.8321 17.3347C14.7903 17.3804 14.7626 17.4391 14.749 17.511C14.7335 17.5868 14.7257 17.729 14.7257 17.9378Z" fill="black"/>
<path d="M12.0947 18.9999V16.876H12.3977L13.0066 18.2598L13.6039 16.876H13.9083V18.9999H13.5864V17.6757H13.5791L13.1348 18.6954H12.8668L12.4225 17.6757H12.4167V18.9999H12.0947Z" fill="black"/>
<path d="M10.3149 18.9999V16.876H11.6711V17.1804H10.6369V17.7864H11.5196V18.0719H10.6369V18.6954H11.6711V18.9999H10.3149Z" fill="black"/>
<path d="M8.15332 18.9999V16.876H8.45632L9.41774 18.3851H9.42357V16.876H9.7455V18.9999H9.44105L8.48108 17.4907H8.47525V18.9999H8.15332Z" fill="black"/>
</g>
</g>
<defs>
<clipPath id="clip0_1535_3330">
<rect width="24" height="24" fill="white"/>
</clipPath>
<clipPath id="clip1_1535_3330">
<rect width="24" height="24" rx="4.8" fill="white"/>
</clipPath>
<clipPath id="clip2_1535_3330">
<rect width="12.8" height="9.4" fill="white" transform="translate(6 5.7998)"/>
</clipPath>
</defs>
</svg>
