<svg width="24" height="24" viewBox="0 0 24 24" fill="none" xmlns="http://www.w3.org/2000/svg">
<g clip-path="url(#clip0_1535_3328)">
<g clip-path="url(#clip1_1535_3328)">
<rect width="24" height="24" fill="#FAFAFA"/>
<g clip-path="url(#clip2_1535_3328)">
<path d="M18.7109 14.9026C18.7109 15.0395 18.61 15.1315 18.4906 15.1315V15.1306C18.3679 15.1315 18.2689 15.0395 18.2689 14.9026C18.2689 14.7657 18.3679 14.674 18.4906 14.674C18.61 14.674 18.7109 14.7657 18.7109 14.9026ZM18.8002 14.9026C18.8002 14.7146 18.6538 14.6055 18.4906 14.6055C18.3263 14.6055 18.1799 14.7146 18.1799 14.9026C18.1799 15.0904 18.3264 15.2 18.4906 15.2C18.6538 15.2 18.8002 15.0904 18.8002 14.9026ZM18.4393 14.9277H18.4724L18.5492 15.0622H18.6336L18.5485 14.922C18.5925 14.9189 18.6286 14.898 18.6286 14.839C18.6286 14.7657 18.5779 14.7421 18.492 14.7421H18.3678V15.0622H18.4392V14.9277H18.4393ZM18.4393 14.8735V14.7964H18.489C18.516 14.7964 18.5528 14.7986 18.5528 14.8315C18.5528 14.8673 18.5337 14.8735 18.5019 14.8735H18.4393Z" fill="black"/>
<path d="M16.7153 13.2646L17.1012 14.3177H16.3174L16.7153 13.2646ZM16.3019 12.8545L15.4124 15.1023H16.0405L16.1812 14.7051H17.2339L17.367 15.1023H18.0489L17.1527 12.8543L16.3019 12.8545ZM14.5162 15.1031H15.1534V12.8539L14.516 12.8537L14.5162 15.1031ZM10.0924 12.8537L9.56074 14.6364L9.05145 12.8539L8.36388 12.8537L9.09125 15.1031H10.0093L10.7425 12.8537H10.0924ZM12.6682 13.3435H12.942C13.3394 13.3435 13.5963 13.5214 13.5963 13.9831C13.5963 14.4449 13.3394 14.6229 12.942 14.6229H12.6682V13.3435ZM12.0363 12.8537V15.1031H13.0694C13.6198 15.1031 13.7995 15.0118 13.9938 14.8071C14.1311 14.6634 14.2199 14.348 14.2199 14.0031C14.2199 13.6869 14.1447 13.405 14.0137 13.2293C13.7777 12.9151 13.4377 12.8537 12.9303 12.8537H12.0363ZM6 12.8506V15.1031H6.64262V13.3928L7.14055 13.3929C7.30542 13.3929 7.42295 13.4339 7.50234 13.5185C7.60304 13.6254 7.64416 13.7981 7.64416 14.114V15.1031H8.26686V13.8586C8.26686 12.9703 7.69923 12.8506 7.14383 12.8506H6ZM11.0107 12.8537L11.011 15.1031H11.6479V12.8537H11.0107Z" fill="black"/>
<path d="M7.71253 8.37522C7.71253 8.37522 8.53211 7.16917 10.1685 7.0444V6.60684C8.35599 6.75203 6.78638 8.28314 6.78638 8.28314C6.78638 8.28314 7.67538 10.8463 10.1685 11.081V10.6159C8.33894 10.3863 7.71253 8.37522 7.71253 8.37522ZM10.1685 9.69097V10.1169C8.78577 9.87103 8.40195 8.43741 8.40195 8.43741C8.40195 8.43741 9.06587 7.70385 10.1685 7.58489V8.05227C10.1677 8.05227 10.1671 8.05201 10.1664 8.05201C9.58769 7.98274 9.13558 8.52197 9.13558 8.52197C9.13558 8.52197 9.38899 9.42973 10.1685 9.69097ZM10.1685 5.7998V6.60684C10.2218 6.60277 10.275 6.59932 10.3285 6.59751C12.3892 6.52824 13.7318 8.28314 13.7318 8.28314C13.7318 8.28314 12.1897 10.1534 10.5831 10.1534C10.4359 10.1534 10.298 10.1398 10.1685 10.1169V10.6159C10.2793 10.6299 10.3941 10.6382 10.5138 10.6382C12.0089 10.6382 13.0901 9.87666 14.137 8.97536C14.3106 9.11401 15.0212 9.45131 15.1673 9.59896C14.1719 10.4302 11.852 11.1002 10.5367 11.1002C10.41 11.1002 10.2882 11.0925 10.1685 11.081V11.7823H15.8512V5.7998H10.1685ZM10.1685 7.58489V7.0444C10.2212 7.04073 10.2743 7.03793 10.3285 7.03622C11.8103 6.9898 12.7825 8.30628 12.7825 8.30628C12.7825 8.30628 11.7324 9.76078 10.6066 9.76078C10.4445 9.76078 10.2993 9.73481 10.1685 9.69097V8.05227C10.7454 8.12179 10.8615 8.37595 11.2083 8.95258L11.9797 8.30388C11.9797 8.30388 11.4166 7.56735 10.4674 7.56735C10.3642 7.56731 10.2655 7.57454 10.1685 7.58489Z" fill="#77B900"/>
</g>
<path d="M14.4021 17.9378C14.4021 17.6911 14.4094 17.5261 14.424 17.4425C14.4395 17.359 14.4633 17.2915 14.4953 17.2401C14.5468 17.142 14.6293 17.0546 14.743 16.9778C14.8546 16.9002 14.994 16.8603 15.161 16.8584C15.33 16.8603 15.4708 16.9002 15.5835 16.9778C15.6952 17.0546 15.7758 17.142 15.8253 17.2401C15.8612 17.2915 15.886 17.359 15.8996 17.4425C15.9122 17.5261 15.9185 17.6911 15.9185 17.9378C15.9185 18.1806 15.9122 18.3447 15.8996 18.4302C15.886 18.5156 15.8612 18.5841 15.8253 18.6356C15.7758 18.7337 15.6952 18.8201 15.5835 18.8949C15.4708 18.9726 15.33 19.0134 15.161 19.0172C14.994 19.0134 14.8546 18.9726 14.743 18.8949C14.6293 18.8201 14.5468 18.7337 14.4953 18.6356C14.4798 18.6035 14.4657 18.5729 14.4531 18.5438C14.4414 18.5137 14.4317 18.4758 14.424 18.4302C14.4094 18.3447 14.4021 18.1806 14.4021 17.9378ZM14.7255 17.9378C14.7255 18.1466 14.7333 18.2879 14.7488 18.3617C14.7624 18.4355 14.7901 18.4953 14.8318 18.5409C14.8658 18.5846 14.9105 18.62 14.9658 18.6472C15.0202 18.6793 15.0853 18.6953 15.161 18.6953C15.2378 18.6953 15.3043 18.6793 15.3606 18.6472C15.414 18.62 15.4568 18.5846 15.4888 18.5409C15.5306 18.4953 15.5592 18.4355 15.5747 18.3617C15.5893 18.2879 15.5966 18.1466 15.5966 17.9378C15.5966 17.729 15.5893 17.5868 15.5747 17.511C15.5592 17.4391 15.5306 17.3804 15.4888 17.3347C15.4568 17.291 15.414 17.2546 15.3606 17.2255C15.3043 17.1973 15.2378 17.1823 15.161 17.1803C15.0853 17.1823 15.0202 17.1973 14.9658 17.2255C14.9105 17.2546 14.8658 17.291 14.8318 17.3347C14.7901 17.3804 14.7624 17.4391 14.7488 17.511C14.7333 17.5868 14.7255 17.729 14.7255 17.9378Z" fill="black"/>
<path d="M12.0947 18.9999V16.876H12.3977L13.0066 18.2598L13.6039 16.876H13.9083V18.9999H13.5864V17.6757H13.5791L13.1348 18.6954H12.8668L12.4225 17.6757H12.4167V18.9999H12.0947Z" fill="black"/>
<path d="M10.3147 18.9999V16.876H11.6709V17.1804H10.6366V17.7864H11.5194V18.0719H10.6366V18.6954H11.6709V18.9999H10.3147Z" fill="black"/>
<path d="M8.15308 18.9999V16.876H8.45607L9.4175 18.3851H9.42332V16.876H9.74526V18.9999H9.4408L8.48083 17.4907H8.47501V18.9999H8.15308Z" fill="black"/>
</g>
</g>
<defs>
<clipPath id="clip0_1535_3328">
<rect width="24" height="24" fill="white"/>
</clipPath>
<clipPath id="clip1_1535_3328">
<rect width="24" height="24" rx="4.8" fill="white"/>
</clipPath>
<clipPath id="clip2_1535_3328">
<rect width="12.8" height="9.4" fill="white" transform="translate(6 5.7998)"/>
</clipPath>
</defs>
</svg>
