<svg width="24" height="24" viewBox="0 0 24 24" fill="none" xmlns="http://www.w3.org/2000/svg">
<path d="M23.8391 8.75162C23.8302 7.74924 21.976 7.29425 17.1763 7.29425C5.91459 7.29425 3.05742 6.8137 0 3.59961C1.28628 5.52949 1.99003 9.14926 13.8934 8.96914C26.3126 8.77801 18.7361 12.1681 16.5316 15.9982C20.5073 12.4536 23.8271 10.1172 23.8391 8.76612V8.75162ZM8.01385 19.0446C8.01341 19.9763 7.24616 20.7429 6.31331 20.7431C5.37113 20.7431 4.60921 19.982 4.60921 19.0446V19.0433C4.60921 18.11 5.37778 17.342 6.31242 17.342H6.31331C7.25238 17.342 8.01385 18.1032 8.01385 19.0446ZM15.7693 19.0446C15.7688 19.9763 15.0016 20.7429 14.0687 20.7431C13.1275 20.7431 12.3651 19.982 12.3651 19.0446V19.0433C12.3651 18.11 13.1337 17.342 14.0679 17.342H14.0687C15.0078 17.342 15.7693 18.1032 15.7693 19.0446Z" fill="url(#paint0_linear_1535_2993)"/>
<defs>
<linearGradient id="paint0_linear_1535_2993" x1="-31.6295" y1="70.5135" x2="-31.6295" y2="53.4708" gradientUnits="userSpaceOnUse">
<stop stop-color="#04B6F0"/>
<stop offset="1" stop-color="#3ECAF0"/>
</linearGradient>
</defs>
</svg>
