<svg width="24" height="24" viewBox="0 0 24 24" fill="none" xmlns="http://www.w3.org/2000/svg">
<path d="M12 24C18.6274 24 24 18.6274 24 12C24 5.37258 18.6274 0 12 0C8.12998 0 4.68783 1.83198 2.49349 4.67604C3.52063 4.94389 4.53984 5.2434 5.54959 5.57428V3.68704C5.54291 3.66701 5.54291 3.6454 5.54959 3.62537C5.93735 3.67471 14.2303 4.89586 17.6826 6.86945C18.024 7.08775 18.3315 7.35366 18.5956 7.65888C19.5588 8.65801 20.8346 12.7409 20.9722 13.592C21.0347 13.666 20.9722 13.666 20.9722 13.666V13.7153L20.6595 13.9497C19.1799 15.0748 17.3483 15.6551 15.4811 15.5902C13.2797 15.3805 10.4153 14.1347 6.95051 11.8898L7.96367 14.2457C8.03124 14.274 8.17772 14.3435 8.38646 14.4425C9.7235 15.0767 13.6148 16.9224 15.6812 16.9224C17.3942 16.7947 19.0526 16.2707 20.5219 15.3929C20.5219 15.3929 20.7846 15.3312 20.7846 15.3929V15.6519C20.7218 15.9439 20.6425 16.2322 20.5469 16.5154L20.4719 16.6757C20.4069 16.9096 20.2869 17.1252 20.1216 17.3048C19.3526 17.833 18.51 18.2485 17.62 18.5383C15.1501 19.4512 12.5272 19.8949 9.88993 19.8458C8.87677 19.8211 7.90113 19.7101 7.05058 19.6114C5.27708 19.4115 3.83429 19.251 2.96092 19.893C5.16062 22.41 8.39463 24 12 24Z" fill="#73BA25"/>
<path d="M15.2059 10.7549C14.593 10.7549 14.1052 10.4342 14.1052 10.0395C14.1052 9.6448 14.593 9.31176 15.2059 9.31176C15.8188 9.31176 16.2941 9.63247 16.2941 10.0395C16.2941 10.4466 15.8063 10.7549 15.2059 10.7549Z" fill="#73BA25"/>
<path fill-rule="evenodd" clip-rule="evenodd" d="M11.1282 10.4589C11.1393 9.9944 11.2446 9.53679 11.438 9.11307C11.6313 8.68936 11.9088 8.30815 12.254 7.99193C12.8536 7.43935 13.6288 7.10857 14.4478 7.05582C15.2668 7.00307 16.079 7.23159 16.7464 7.70255C17.4139 8.17351 17.8954 8.85785 18.1091 9.63927C18.3228 10.4207 18.2556 11.251 17.9188 11.989C17.582 12.7271 16.9964 13.3274 16.2616 13.6879C15.5268 14.0484 14.6881 14.1469 13.888 13.9666C13.0879 13.7863 12.3758 13.3384 11.8727 12.6989C11.3696 12.0595 11.1066 11.268 11.1282 10.4589ZM13.0629 8.79816C13.5289 8.35925 14.1487 8.11463 14.7932 8.11527C15.2788 8.14055 15.7465 8.3049 16.139 8.5882C16.5314 8.8715 16.8316 9.26148 17.0028 9.7104C17.174 10.1593 17.2088 10.6477 17.103 11.1159C16.9971 11.584 16.7551 12.0115 16.4067 12.3462C15.9246 12.7854 15.2866 13.0202 14.6305 12.9999C13.9847 12.9587 13.3802 12.6722 12.944 12.2006C12.5079 11.7291 12.274 11.1092 12.2915 10.4712C12.3205 9.83639 12.5968 9.23706 13.0629 8.79816Z" fill="#73BA25"/>
</svg>
