<svg width="24" height="24" viewBox="0 0 24 24" fill="none" xmlns="http://www.w3.org/2000/svg">
<g clip-path="url(#clip0_3360_79)">
<path fill-rule="evenodd" clip-rule="evenodd" d="M21.4757 0.717285H2.44026C1.24502 0.717285 0.26709 1.68147 0.26709 2.85992V7.89907H5.53905V7.07376C5.53905 6.43295 6.06625 5.91515 6.71418 5.91515H17.1977C17.8477 5.91515 18.3729 6.43494 18.3729 7.07376V7.89907H23.6448V2.85992C23.6448 1.68147 22.6669 0.717285 21.4717 0.717285H21.4757Z" fill="#ED1844"/>
<path fill-rule="evenodd" clip-rule="evenodd" d="M18.4572 16.9259C18.4572 17.5667 17.93 18.0845 17.282 18.0845H6.79847C6.14853 18.0845 5.62335 17.5647 5.62335 16.9259V16.1006H0.351384V21.1397C0.351384 22.3182 1.32931 23.2823 2.52456 23.2823H21.56C22.7552 23.2823 23.7331 22.3182 23.7331 21.1397V16.1006H18.4612L18.4572 16.9259Z" fill="#ED1844"/>
<path fill-rule="evenodd" clip-rule="evenodd" d="M0.347719 9.40689V14.6048H5.57944V9.40689H0.347719Z" fill="#ED1844"/>
<path fill-rule="evenodd" clip-rule="evenodd" d="M18.457 9.40689V14.6048H23.6887V9.40689H18.457Z" fill="#ED1844"/>
</g>
<defs>
<clipPath id="clip0_3360_79">
<rect width="24" height="24" fill="white"/>
</clipPath>
</defs>
</svg>
