<svg width="24" height="24" viewBox="0 0 24 24" fill="none" xmlns="http://www.w3.org/2000/svg">
<g clip-path="url(#clip0_3556_51)">
<path d="M11.9997 2.13672C5.66712 2.13672 2.50342 7.41527 2.50342 11.6371C2.50342 15.8589 5.66712 20.0807 8.83597 21.1374V23.2509H10.9485V21.1374C10.9485 21.1374 12.0048 21.5601 13.0611 21.1374V23.2509H15.1737V21.1374C18.3374 20.0807 21.5062 15.8589 21.5062 11.6371C21.5062 7.41527 18.3322 2.13672 11.9997 2.13672Z" fill="url(#paint0_linear_3556_51)"/>
<path d="M3.55988 9.52916C0.396187 8.47242 -0.660097 10.5859 0.396187 12.6942C1.45247 14.8026 3.55988 13.751 4.61617 11.6375C5.24479 10.158 4.61617 9.52916 3.55988 9.52916Z" fill="url(#paint1_linear_3556_51)"/>
<path d="M20.4402 9.52916C23.6039 8.47242 24.6602 10.5859 23.6039 12.6942C22.5476 14.8077 20.4402 13.751 19.3839 11.6375C18.7553 10.158 19.3839 9.52916 20.4402 9.52916Z" fill="url(#paint2_linear_3556_51)"/>
<path d="M5.24928 1.01264C5.92374 0.605812 6.6754 0.716124 7.33676 1.02553C7.9907 1.33148 8.68571 1.8842 9.41565 2.61445C9.73552 2.93449 9.73542 3.45327 9.41539 3.77316C9.09536 4.09304 8.57657 4.09292 8.25667 3.7729C7.57995 3.09589 7.04342 2.69739 6.64236 2.50976C6.24878 2.32564 6.12191 2.3999 6.09562 2.41575C5.70816 2.64948 5.20462 2.52484 4.9709 2.13737C4.73719 1.7499 4.86182 1.24636 5.24928 1.01264Z" fill="#FF4D4D"/>
<path d="M16.6628 1.02554C17.3241 0.71612 18.0759 0.605807 18.7504 1.01265C19.1378 1.24638 19.2624 1.74994 19.0288 2.13738C18.795 2.52485 18.2914 2.64949 17.9039 2.41577C17.8775 2.39986 17.7506 2.32572 17.3572 2.50977C16.9561 2.69741 16.4196 3.0959 15.7428 3.77292C15.423 4.09289 14.9043 4.09301 14.5843 3.77318C14.2642 3.45328 14.2641 2.9345 14.584 2.61446C15.3139 1.88422 16.0088 1.33149 16.6628 1.02554Z" fill="#FF4D4D"/>
<path d="M8.83639 8.68364C9.53643 8.68364 10.1039 8.1159 10.1039 7.41555C10.1039 6.7152 9.53643 6.14746 8.83639 6.14746C8.13635 6.14746 7.56885 6.7152 7.56885 7.41555C7.56885 8.1159 8.13635 8.68364 8.83639 8.68364Z" fill="#050810"/>
<path d="M15.1631 8.68364C15.8632 8.68364 16.4307 8.1159 16.4307 7.41555C16.4307 6.7152 15.8632 6.14746 15.1631 6.14746C14.4631 6.14746 13.8956 6.7152 13.8956 7.41555C13.8956 8.1159 14.4631 8.68364 15.1631 8.68364Z" fill="#050810"/>
<path d="M9.04754 7.7303C9.3378 7.7303 9.5731 7.49489 9.5731 7.2045C9.5731 6.91412 9.3378 6.67871 9.04754 6.67871C8.75728 6.67871 8.52197 6.91412 8.52197 7.2045C8.52197 7.49489 8.75728 7.7303 9.04754 7.7303Z" fill="#00E5CC"/>
<path d="M15.3748 7.7303C15.665 7.7303 15.9004 7.49489 15.9004 7.2045C15.9004 6.91412 15.665 6.67871 15.3748 6.67871C15.0845 6.67871 14.8492 6.91412 14.8492 7.2045C14.8492 7.49489 15.0845 7.7303 15.3748 7.7303Z" fill="#00E5CC"/>
</g>
<defs>
<linearGradient id="paint0_linear_3556_51" x1="2.77048" y1="1.85117" x2="23.7822" y2="20.7074" gradientUnits="userSpaceOnUse">
<stop stop-color="#FF4D4D"/>
<stop offset="1" stop-color="#991B1B"/>
</linearGradient>
<linearGradient id="paint1_linear_3556_51" x1="0.112873" y1="9.14014" x2="4.69685" y2="14.0056" gradientUnits="userSpaceOnUse">
<stop stop-color="#FF4D4D"/>
<stop offset="1" stop-color="#991B1B"/>
</linearGradient>
<linearGradient id="paint2_linear_3556_51" x1="19.3842" y1="9.00541" x2="23.9801" y2="13.8716" gradientUnits="userSpaceOnUse">
<stop stop-color="#FF4D4D"/>
<stop offset="1" stop-color="#991B1B"/>
</linearGradient>
<clipPath id="clip0_3556_51">
<rect width="24" height="24" fill="white"/>
</clipPath>
</defs>
</svg>
