<svg width="40" height="40" viewBox="0 0 40 40" fill="none" xmlns="http://www.w3.org/2000/svg">
<g clip-path="url(#clip0_630_616)">
<path d="M17.5981 21.2536H20.1381L18.7965 19.0869L16.3298 23.0003H15.2081L18.2081 18.3053C18.2735 18.2116 18.3604 18.1349 18.4615 18.0817C18.5627 18.0285 18.6751 18.0003 18.7893 17.9995C18.9036 17.9987 19.0163 18.0253 19.1182 18.077C19.2201 18.1288 19.3081 18.2042 19.3748 18.2969L22.3831 23.0003H21.2615L20.7331 22.1253H18.1631L17.6031 21.2536M29.2581 22.1253V18.0469H28.3048V22.5269C28.3046 22.5892 28.3171 22.6508 28.3414 22.7081C28.3658 22.7654 28.4015 22.8172 28.4465 22.8603C28.4916 22.9064 28.5455 22.943 28.6051 22.968C28.6646 22.9929 28.7286 23.0055 28.7931 23.0053H33.1265L33.6915 22.1303H29.2531M13.4965 21.3969C13.9407 21.3969 14.3667 21.2204 14.6809 20.9063C14.995 20.5922 15.1715 20.1662 15.1715 19.7219C15.1715 19.2777 14.995 18.8516 14.6809 18.5375C14.3667 18.2234 13.9407 18.0469 13.4965 18.0469H9.32979V23.0003H10.2815V18.9236H13.4381C13.6507 18.9236 13.8546 19.008 14.005 19.1584C14.1553 19.3087 14.2398 19.5126 14.2398 19.7253C14.2398 19.9379 14.1553 20.1418 14.005 20.2921C13.8546 20.4425 13.6507 20.5269 13.4381 20.5269H10.7531L13.5965 23.0003H14.9781L13.0681 21.3969H13.4965ZM3.47646 23.0003H6.35479C7.0003 22.9835 7.61375 22.7153 8.06438 22.2528C8.51502 21.7903 8.76721 21.1701 8.76721 20.5244C8.76721 19.8787 8.51502 19.2585 8.06438 18.796C7.61375 18.3335 7.0003 18.0653 6.35479 18.0486H3.47646C3.14592 18.04 2.81701 18.0977 2.50913 18.2183C2.20125 18.3388 1.92062 18.5198 1.68381 18.7506C1.44699 18.9813 1.25878 19.2572 1.13027 19.5618C1.00175 19.8665 0.935547 20.1938 0.935547 20.5244C0.935547 20.8551 1.00175 21.1824 1.13027 21.487C1.25878 21.7917 1.44699 22.0675 1.68381 22.2983C1.92062 22.529 2.20125 22.71 2.50913 22.8306C2.81701 22.9511 3.14592 23.0088 3.47646 23.0003ZM6.28979 22.1286H3.53979C3.12373 22.1152 2.72919 21.9405 2.43962 21.6414C2.15005 21.3423 1.98814 20.9424 1.98814 20.5261C1.98814 20.1098 2.15005 19.7098 2.43962 19.4108C2.72919 19.1117 3.12373 18.937 3.53979 18.9236H6.28979C6.50458 18.9167 6.71857 18.953 6.91905 19.0304C7.11952 19.1078 7.30239 19.2247 7.45678 19.3742C7.61117 19.5237 7.73393 19.7027 7.81777 19.9006C7.90161 20.0985 7.94481 20.3112 7.94481 20.5261C7.94481 20.741 7.90161 20.9537 7.81777 21.1516C7.73393 21.3495 7.61117 21.5285 7.45678 21.6779C7.30239 21.8274 7.11952 21.9444 6.91905 22.0218C6.71857 22.0992 6.50458 22.1355 6.28979 22.1286ZM24.3715 23.0003H27.3098L27.8665 22.1286H24.4365C24.2217 22.1355 24.0077 22.0992 23.8072 22.0218C23.6067 21.9444 23.4239 21.8274 23.2695 21.6779C23.1151 21.5285 22.9923 21.3495 22.9085 21.1516C22.8246 20.9537 22.7814 20.741 22.7814 20.5261C22.7814 20.3112 22.8246 20.0985 22.9085 19.9006C22.9923 19.7027 23.1151 19.5237 23.2695 19.3742C23.4239 19.2247 23.6067 19.1078 23.8072 19.0304C24.0077 18.953 24.2217 18.9167 24.4365 18.9236H27.2281L27.7915 18.0486H24.3715C24.0409 18.04 23.712 18.0977 23.4041 18.2183C23.0962 18.3388 22.8156 18.5198 22.5788 18.7506C22.342 18.9813 22.1538 19.2572 22.0253 19.5618C21.8968 19.8665 21.8305 20.1938 21.8305 20.5244C21.8305 20.8551 21.8968 21.1824 22.0253 21.487C22.1538 21.7917 22.342 22.0675 22.5788 22.2983C22.8156 22.529 23.0962 22.71 23.4041 22.8306C23.712 22.9511 24.0409 23.0088 24.3715 23.0003ZM36.0165 22.1286C35.6673 22.1287 35.3276 22.0148 35.049 21.8043C34.7704 21.5937 34.5682 21.2979 34.4731 20.9619H38.5431L39.1031 20.0886H34.4731C34.568 19.7524 34.7701 19.4565 35.0487 19.2459C35.3274 19.0353 35.6672 18.9215 36.0165 18.9219H38.8098L39.3681 18.0469H35.9515C35.3059 18.0637 34.6925 18.3319 34.2419 18.7943C33.7912 19.2568 33.539 19.877 33.539 20.5228C33.539 21.1685 33.7912 21.7887 34.2419 22.2512C34.6925 22.7136 35.3059 22.9818 35.9515 22.9986H38.8898L39.4481 22.1269H36.0148" fill="#C74634"/>
</g>
<defs>
<clipPath id="clip0_630_616">
<rect width="38.5" height="5" fill="white" transform="translate(1 18)"/>
</clipPath>
</defs>
</svg>
