<svg width="24" height="24" viewBox="0 0 24 24" fill="none" xmlns="http://www.w3.org/2000/svg">
<g clip-path="url(#clip0_1535_3082)">
<path d="M10.5588 12.7522H12.0828L11.2778 11.4522L9.79783 13.8002H9.12483L10.9248 10.9832C10.9641 10.927 11.0162 10.881 11.0769 10.8491C11.1375 10.8172 11.205 10.8003 11.2735 10.7998C11.3421 10.7993 11.4098 10.8153 11.4709 10.8463C11.532 10.8774 11.5848 10.9226 11.6248 10.9782L13.4298 13.8002H12.7568L12.4398 13.2752H10.8978L10.5618 12.7522M17.5548 13.2752V10.8282H16.9828V13.5162C16.9827 13.5536 16.9902 13.5906 17.0048 13.625C17.0194 13.6593 17.0409 13.6904 17.0678 13.7162C17.0949 13.7439 17.1273 13.7659 17.163 13.7809C17.1987 13.7958 17.2371 13.8034 17.2758 13.8032H19.8758L20.2148 13.2782H17.5518M8.09783 12.8382C8.36437 12.8382 8.61999 12.7324 8.80847 12.5439C8.99694 12.3554 9.10283 12.0998 9.10283 11.8332C9.10283 11.5667 8.99694 11.3111 8.80847 11.1226C8.61999 10.9341 8.36437 10.8282 8.09783 10.8282H5.59783V13.8002H6.16883V11.3542H8.06283C8.19039 11.3542 8.31274 11.4049 8.40294 11.4951C8.49315 11.5853 8.54383 11.7077 8.54383 11.8352C8.54383 11.9628 8.49315 12.0852 8.40294 12.1754C8.31274 12.2656 8.19039 12.3162 8.06283 12.3162H6.45183L8.15783 13.8002H8.98683L7.84083 12.8382H8.09783ZM2.08582 13.8002H3.81283C4.20013 13.7902 4.5682 13.6293 4.83858 13.3518C5.10896 13.0743 5.26028 12.7022 5.26028 12.3147C5.26028 11.9273 5.10896 11.5552 4.83858 11.2777C4.5682 11.0002 4.20013 10.8393 3.81283 10.8292H2.08582C1.8875 10.8241 1.69016 10.8587 1.50543 10.9311C1.3207 11.0034 1.15233 11.112 1.01024 11.2504C0.868146 11.3889 0.755218 11.5544 0.678111 11.7372C0.601004 11.92 0.561279 12.1164 0.561279 12.3147C0.561279 12.5131 0.601004 12.7095 0.678111 12.8923C0.755218 13.0751 0.868146 13.2406 1.01024 13.3791C1.15233 13.5175 1.3207 13.6261 1.50543 13.6984C1.69016 13.7708 1.8875 13.8054 2.08582 13.8002ZM3.77382 13.2772H2.12382C1.87419 13.2692 1.63747 13.1644 1.46372 12.9849C1.28998 12.8055 1.19284 12.5655 1.19284 12.3157C1.19284 12.066 1.28998 11.826 1.46372 11.6466C1.63747 11.4671 1.87419 11.3623 2.12382 11.3542H3.77382C3.9027 11.3501 4.0311 11.3719 4.15138 11.4183C4.27167 11.4648 4.38139 11.5349 4.47402 11.6246C4.56665 11.7143 4.64031 11.8217 4.69061 11.9405C4.74092 12.0592 4.76684 12.1868 4.76684 12.3157C4.76684 12.4447 4.74092 12.5723 4.69061 12.691C4.64031 12.8098 4.56665 12.9172 4.47402 13.0069C4.38139 13.0966 4.27167 13.1667 4.15138 13.2132C4.0311 13.2596 3.9027 13.2814 3.77382 13.2772ZM14.6228 13.8002H16.3858L16.7198 13.2772H14.6618C14.533 13.2814 14.4046 13.2596 14.2843 13.2132C14.164 13.1667 14.0543 13.0966 13.9616 13.0069C13.869 12.9172 13.7953 12.8098 13.745 12.691C13.6947 12.5723 13.6688 12.4447 13.6688 12.3157C13.6688 12.1868 13.6947 12.0592 13.745 11.9405C13.7953 11.8217 13.869 11.7143 13.9616 11.6246C14.0543 11.5349 14.164 11.4648 14.2843 11.4183C14.4046 11.3719 14.533 11.3501 14.6618 11.3542H16.3368L16.6748 10.8292H14.6228C14.4245 10.8241 14.2272 10.8587 14.0424 10.9311C13.8577 11.0034 13.6893 11.112 13.5472 11.2504C13.4051 11.3889 13.2922 11.5544 13.2151 11.7372C13.138 11.92 13.0983 12.1164 13.0983 12.3147C13.0983 12.5131 13.138 12.7095 13.2151 12.8923C13.2922 13.0751 13.4051 13.2406 13.5472 13.3791C13.6893 13.5175 13.8577 13.6261 14.0424 13.6984C14.2272 13.7708 14.4245 13.8054 14.6228 13.8002ZM21.6098 13.2772C21.4003 13.2773 21.1965 13.209 21.0293 13.0827C20.8622 12.9563 20.7409 12.7788 20.6838 12.5772H23.1258L23.4618 12.0532H20.6838C20.7407 11.8516 20.862 11.674 21.0292 11.5476C21.1964 11.4213 21.4003 11.353 21.6098 11.3532H23.2858L23.6208 10.8282H21.5708C21.1835 10.8383 20.8155 10.9992 20.5451 11.2767C20.2747 11.5542 20.1234 11.9263 20.1234 12.3137C20.1234 12.7012 20.2747 13.0733 20.5451 13.3508C20.8155 13.6283 21.1835 13.7892 21.5708 13.7992H23.3338L23.6688 13.2762H21.6088" fill="#C74634"/>
</g>
<defs>
<clipPath id="clip0_1535_3082">
<rect width="23.1" height="3" fill="white" transform="translate(0.600098 10.7998)"/>
</clipPath>
</defs>
</svg>
