<svg width="24" height="24" viewBox="0 0 24 24" fill="none" xmlns="http://www.w3.org/2000/svg">
<path d="M19.825 11.7103C19.8918 11.7371 19.9523 11.7776 20.0028 11.8294C20.0532 11.8812 20.0926 11.943 20.1183 12.0111C20.0485 11.9901 19.9849 11.9516 19.9336 11.899C19.8823 11.8464 19.845 11.7815 19.825 11.7103Z" fill="#837CC6"/>
<path d="M21.2604 14.7386C20.6645 14.7689 20.0693 14.6636 19.5186 14.4304C19.3256 14.3575 19.2082 14.2655 19.3443 14.0224C19.4688 13.7861 19.5725 13.5392 19.6544 13.2844C19.716 13.1074 19.7896 13.1105 19.9275 13.2C20.3166 13.4705 20.7475 13.6728 21.2025 13.7985C21.3631 13.8415 21.5312 13.8469 21.6942 13.8144C21.8572 13.7819 22.0108 13.7123 22.1435 13.6109C22.4706 13.3722 22.4801 12.8297 22.186 12.4315C21.9084 12.0556 21.4876 11.9104 21.096 11.7141C20.7416 11.5366 20.3629 11.4092 20.0346 11.1775C19.8505 11.0513 19.6994 10.8815 19.5946 10.6827C19.4897 10.4839 19.4342 10.2621 19.4329 10.0365C19.4315 9.81102 19.4843 9.58855 19.5868 9.38846C19.6893 9.18836 19.8382 9.01666 20.0208 8.88826C20.4086 8.61689 20.8251 8.39038 21.2624 8.21295C21.6895 8.03529 22.0898 8.20163 22.4905 8.33358C22.5219 8.3439 22.5504 8.36252 22.5815 8.37409C23.1086 8.5705 23.1062 8.57294 22.8594 9.08905C22.7908 9.2326 22.741 9.29607 22.5643 9.21584C22.1676 9.0357 21.7386 9.04573 21.3174 9.09234C20.8595 9.14303 20.623 9.5966 20.8042 10.0352C20.9265 10.3236 21.1446 10.5593 21.4205 10.7011C21.7329 10.8732 22.0454 11.0458 22.3644 11.2047C23.0386 11.5403 23.3337 12.0993 23.3532 12.8448C23.3789 13.2148 23.3004 13.5846 23.1269 13.9109C22.817 14.4546 22.3307 14.6947 21.7339 14.7369C21.5689 14.7485 21.4024 14.7386 21.2604 14.7386Z" fill="#CCF575"/>
<path d="M13.6831 12.0624C13.6667 12.0791 13.6503 12.0957 13.6339 12.1124C13.5472 12.1334 13.5487 12.2051 13.5493 12.2718C13.5544 12.7832 13.5374 13.2965 13.5769 13.8051C13.5978 14.074 13.5619 14.2473 13.3062 14.3647C12.8302 14.5833 12.4056 14.9372 11.8426 14.9178L11.8343 14.9081C11.9348 14.4921 12.0277 14.074 12.137 13.6604C12.5358 12.1509 12.8956 10.6319 13.2164 9.1035C13.2329 8.97097 13.2934 8.84811 13.3879 8.75527C13.4825 8.66242 13.6055 8.60516 13.7365 8.59296C14.1671 8.50991 14.5989 8.42814 15.0225 8.31606C15.2247 8.26258 15.3164 8.30129 15.4023 8.49579C16.0388 9.93773 16.6822 11.3765 17.3325 12.8122C17.4191 13.004 17.3776 13.1132 17.1885 13.1785C16.7186 13.3407 16.2482 13.5017 15.7792 13.6667C15.6645 13.7071 15.6341 13.6525 15.6161 13.5521C15.5761 13.329 15.53 13.1069 15.4843 12.8848C15.4235 12.5116 15.3307 12.1445 15.2071 11.7877C15.0827 11.4709 14.9511 11.4136 14.6512 11.5357C14.604 11.5513 14.5577 11.5697 14.5126 11.5909C14.235 11.7461 13.8947 11.788 13.6831 12.0624ZM13.6509 10.4166C13.6274 10.9071 13.7244 10.9775 14.1119 10.8389C14.1586 10.8222 14.2082 10.8144 14.255 10.7979C14.8793 10.5787 14.9128 10.4843 14.7321 9.82788C14.5765 9.26277 14.4733 9.36869 14.0486 9.50085C13.9869 9.52587 13.9317 9.56494 13.8873 9.61506C13.8428 9.66517 13.8103 9.72499 13.7923 9.78988C13.7098 9.98891 13.662 10.201 13.6509 10.4166Z" fill="#FCFCFD"/>
<path d="M0.841547 11.8162C0.854765 10.6012 0.983373 9.81637 1.34404 9.08064C1.92093 7.90383 3.33927 7.79032 4.08844 8.85868C4.5707 9.54637 4.83865 10.3223 5.03698 11.1317C5.20382 11.7307 5.23459 12.3604 5.12698 12.9732C4.98611 13.6683 4.50984 14.635 3.55416 14.8247C3.01736 14.9312 2.54087 14.6959 2.13687 14.3589C1.22738 13.6004 0.827036 12.5995 0.841547 11.8162ZM2.10536 10.5898C2.09992 11.0514 2.14988 11.5119 2.25415 11.9611C2.31488 12.3016 2.47281 12.6165 2.70831 12.8666C2.8015 12.9626 2.91565 13.0349 3.0415 13.0777C3.16737 13.1206 3.30139 13.1327 3.43273 13.1131C3.56404 13.0935 3.68899 13.0427 3.79738 12.9649C3.9058 12.8871 3.99461 12.7845 4.05668 12.6653C4.34679 12.1282 4.32109 11.5723 4.15249 11.0064C3.96901 10.3904 3.7233 9.80504 3.28472 9.32984C2.92109 8.93582 2.40209 9.06583 2.23198 9.57214C2.13333 9.90164 2.09051 10.2458 2.10536 10.5898Z" fill="#D04485"/>
<path d="M6.3244 15.0509C6.45469 14.6128 6.43247 14.1544 6.49167 13.706C6.57934 13.0421 6.64249 12.3749 6.72773 11.7106C6.80224 11.1295 6.89026 10.5503 6.97709 9.97094C7.05391 9.45832 7.12069 8.94439 7.21398 8.43388C7.27381 8.10658 7.41691 7.98146 7.74737 8.04419C8.37097 8.16257 8.99476 8.28018 9.62015 8.38828C10.1744 8.48408 10.8367 9.16057 10.8914 9.72573C10.8934 9.93593 10.8454 10.1435 10.7515 10.3309C10.5127 10.9266 10.0813 11.3821 9.65787 11.842C9.57613 11.9373 9.48846 12.0271 9.39541 12.111C9.3628 12.1336 9.3352 12.163 9.3144 12.1971C9.29359 12.2312 9.28001 12.2693 9.27454 12.309C9.2691 12.3488 9.27186 12.3892 9.28268 12.4278C9.29351 12.4664 9.31215 12.5022 9.33742 12.5331C9.57475 12.9351 9.81976 13.333 10.0412 13.7439C10.1744 14.0028 10.2916 14.2698 10.3923 14.5435C10.4077 14.5712 10.4173 14.602 10.4203 14.6338C10.4234 14.6656 10.4198 14.6977 10.4098 14.728C10.3999 14.7583 10.3838 14.7861 10.3626 14.8097C10.3413 14.8332 10.3155 14.852 10.2867 14.8648C10.1173 14.9514 9.95496 15.0515 9.80119 15.1643C9.631 15.2927 9.53524 15.2698 9.44062 15.0732C9.17375 14.5185 8.89527 13.9695 8.61528 13.4214C8.45242 13.1026 8.27852 12.7897 8.10794 12.475C8.07271 12.41 8.03583 12.323 7.94738 12.3471C7.85828 12.3714 7.876 12.4667 7.86992 12.5406C7.80379 13.3425 7.74358 14.1451 7.66831 14.9462C7.62737 15.3818 7.61547 15.3844 7.19661 15.3517C6.96627 15.3337 6.73687 15.3022 6.50742 15.2737C6.47985 15.2747 6.45241 15.2693 6.42722 15.2579C6.40203 15.2465 6.37974 15.2294 6.36207 15.2079C6.3444 15.1864 6.33182 15.1611 6.32529 15.1338C6.31877 15.1066 6.31848 15.0783 6.3244 15.0509ZM7.81542 10.5261C7.81542 10.6751 7.81545 10.7675 7.81542 10.8599C7.81537 11.2135 7.86845 11.2681 8.21801 11.259C8.48765 11.2544 8.75243 11.1857 8.99114 11.0583C9.22984 10.9309 9.43578 10.7485 9.59242 10.5255C9.93989 10.0631 9.94795 9.22665 9.35712 8.95682C8.94646 8.76926 8.52082 8.80762 8.09988 8.90883C8.04617 8.92213 7.99877 8.95413 7.96589 8.99927C7.93302 9.04441 7.91678 9.09982 7.92 9.15586C7.94995 9.6367 7.79115 10.1028 7.81542 10.5261Z" fill="#5EBAB4"/>
<path d="M9.33013 15.6514C9.11991 15.4266 9.03812 15.1599 8.91414 14.9195C8.70866 14.521 8.5083 14.1197 8.31305 13.7158C8.27482 13.6365 8.14873 13.5302 8.26908 13.4555C8.40264 13.3725 8.42309 13.5407 8.46203 13.6166C8.79111 14.208 9.08309 14.8199 9.33621 15.4487C9.35096 15.4806 9.3581 15.5156 9.35705 15.5508C9.35597 15.586 9.34677 15.6205 9.33013 15.6514Z" fill="#837CC6"/>
<path d="M14.0765 10.2013C14.1031 10.1404 14.0433 10.0175 14.1554 10.0257C14.2059 10.0318 14.2523 10.0569 14.2855 10.0959C14.3188 10.1349 14.3365 10.1851 14.3352 10.2367C14.3349 10.2582 14.3304 10.2793 14.322 10.2989C14.3135 10.3185 14.3013 10.3362 14.286 10.3509C14.2708 10.3657 14.2527 10.3772 14.2331 10.3848C14.2134 10.3924 14.1924 10.3959 14.1713 10.3951C14.0405 10.3936 14.0934 10.2758 14.0765 10.2013Z" fill="#837CC6"/>
<path d="M3.43343 11.062C3.43857 11.0938 3.44369 11.1256 3.4488 11.1573C3.43841 11.2043 3.44109 11.2533 3.45646 11.2988C3.47185 11.3443 3.49937 11.3846 3.53598 11.4152C3.53971 11.4642 3.54345 11.5132 3.54715 11.5622C3.52169 11.6643 3.52142 11.7712 3.54642 11.8735L3.53744 12.0715L3.23537 12.6747L3.14269 12.7332C3.05132 12.7216 2.96503 12.6841 2.89374 12.625C2.81416 12.4393 2.78256 12.232 2.64943 12.0707L2.63544 11.9741C2.64778 11.9275 2.64621 11.8782 2.6309 11.8324C2.61561 11.7867 2.58731 11.7466 2.54953 11.7172C2.54377 11.6687 2.538 11.6201 2.53224 11.5716C2.54209 11.517 2.53958 11.4608 2.52485 11.4073C2.51014 11.3538 2.48362 11.3044 2.44732 11.2629C2.47055 10.9115 2.38378 10.5548 2.49672 10.2077C2.70163 10.1025 2.86635 10.2187 3.03587 10.3085C3.03969 10.3939 3.10081 10.4359 3.16017 10.4797C3.1648 10.4921 3.17338 10.5027 3.18453 10.5096C3.26021 10.6971 3.29947 10.9015 3.43343 11.062Z" fill="#FCFCFD"/>
<path d="M3.43343 11.062C3.29947 10.9015 3.26021 10.6971 3.18453 10.5096C3.27509 10.5664 3.34716 10.6489 3.39145 10.7472C3.43578 10.8455 3.45029 10.9552 3.43343 11.062Z" fill="#837CC6"/>
<path d="M2.89374 12.625C2.81416 12.4393 2.78256 12.232 2.64943 12.0707C2.64213 12.2958 2.68461 12.4981 2.89374 12.625Z" fill="#837CC6"/>
<path d="M2.44732 11.2629C2.48362 11.3044 2.51014 11.3538 2.52485 11.4073C2.53958 11.4608 2.54209 11.517 2.53224 11.5716C2.37473 11.5053 2.37079 11.3955 2.44732 11.2629Z" fill="#837CC6"/>
<path d="M3.53598 11.4152C3.49937 11.3846 3.47185 11.3443 3.45646 11.2988C3.44109 11.2533 3.43841 11.2043 3.4488 11.1573C3.57649 11.2089 3.62519 11.2881 3.53598 11.4152Z" fill="#837CC6"/>
<path d="M3.54715 11.5622C3.52169 11.6643 3.52142 11.7712 3.54642 11.8735C3.67535 11.77 3.67479 11.6663 3.54715 11.5622Z" fill="#837CC6"/>
<path d="M2.54953 11.7172C2.58731 11.7466 2.61561 11.7867 2.6309 11.8324C2.64621 11.8782 2.64778 11.9275 2.63544 11.9741C2.53336 11.9138 2.46217 11.8428 2.54953 11.7172Z" fill="#837CC6"/>
<path d="M3.14269 12.7332C3.05132 12.7216 2.96503 12.6841 2.89374 12.625C2.94333 12.7985 3.02056 12.8321 3.14269 12.7332Z" fill="#837CC6"/>
<path d="M3.03587 10.3085C3.03969 10.3939 3.10081 10.4359 3.16017 10.4797C3.1957 10.3649 3.14462 10.3154 3.03587 10.3085Z" fill="#837CC6"/>
<path d="M3.49356 12.5313C3.47782 12.5576 3.46774 12.5938 3.44472 12.6075C3.43922 12.6101 3.43307 12.6109 3.42712 12.6098C3.42116 12.6086 3.41569 12.6057 3.41146 12.6013C3.40725 12.5969 3.40447 12.5912 3.40359 12.5851C3.40267 12.5791 3.40364 12.5728 3.40636 12.5673C3.41979 12.5437 3.45413 12.5324 3.47917 12.5155L3.49356 12.5313Z" fill="#4035A7"/>
<path d="M9.02576 9.69679C9.41942 9.70401 9.5401 9.90837 9.36216 10.2343C9.25596 10.4435 9.09494 10.6187 8.89688 10.7408C8.78407 10.8071 8.72734 10.7778 8.72671 10.6436C8.72566 10.4092 8.71765 10.1747 8.7249 9.94057C8.73137 9.73138 8.86522 9.6753 9.02576 9.69679Z" fill="#FCFCFD"/>
<path d="M11.236 10.2103C11.2814 10.8967 11.0721 11.5754 10.6493 12.113C10.4781 12.3073 10.2782 12.4736 10.0569 12.6058C9.89294 12.7174 9.88412 12.8009 9.98529 12.9699C10.2838 13.4431 10.5473 13.9381 10.7735 14.451C10.9802 14.9507 10.9881 15.4338 10.3896 15.7495C10.1402 15.881 9.90071 16.0307 9.64231 16.1462C9.44779 16.2331 9.31031 16.217 9.17637 16.0248C8.90236 15.6316 8.70732 15.1952 8.47206 14.7811C8.43588 14.7175 8.42608 14.5843 8.3217 14.6189C8.23278 14.6483 8.25841 14.7685 8.27018 14.8461C8.31753 15.2129 8.3103 15.5849 8.24875 15.9496C8.19923 16.2946 8.03066 16.414 7.70215 16.3228C7.45246 16.2596 7.19449 16.2369 6.93785 16.2558C6.81357 16.2643 6.68933 16.239 6.57796 16.1824C6.46656 16.1259 6.37207 16.0401 6.30427 15.934C6.16035 15.7522 6.05604 15.5416 5.99822 15.3158C5.94039 15.0901 5.93038 14.8545 5.96883 14.6246C6.07279 13.9138 6.13342 13.1924 6.22488 12.4777C6.36515 11.3813 6.49865 10.2837 6.67758 9.19212C6.72204 8.92089 6.77748 8.64927 6.8067 8.3735C6.85868 7.88257 7.10972 7.67406 7.61405 7.64746C7.84575 7.64913 8.07604 7.68459 8.2978 7.75277C8.85078 7.88527 9.42936 7.90109 9.96275 8.11876C10.8539 8.48242 11.2226 9.03466 11.2357 10.0086C11.2366 10.0759 11.2358 10.1432 11.236 10.2103ZM8.17272 15.2186H8.17515C8.17515 15.0757 8.16471 14.9316 8.1781 14.7899C8.19157 14.6473 8.09768 14.4164 8.25267 14.3833C8.42468 14.3466 8.48418 14.5851 8.5558 14.7276C8.75868 15.1572 8.99175 15.5714 9.25324 15.9669C9.34968 16.1054 9.44013 16.16 9.60242 16.0615C9.77083 15.9593 9.95969 15.8925 10.1324 15.7967C10.86 15.3932 10.9517 15.1441 10.6345 14.3602C10.4209 13.8708 10.1653 13.4015 9.87067 12.9577C9.76331 12.7862 9.78739 12.6906 9.93185 12.5869C10.0194 12.524 10.1057 12.4593 10.1906 12.3926C10.4189 12.2265 10.6148 12.0188 10.7683 11.7801C11.0913 11.2178 11.2268 10.5646 11.1549 9.91779C11.0805 8.93619 10.6402 8.35524 9.6814 8.12861C9.08838 7.98844 8.48353 7.90006 7.89002 7.7618C7.61676 7.69815 7.3813 7.78762 7.14923 7.87793C6.87462 7.98478 6.91631 8.28736 6.87816 8.50829C6.74317 9.29002 6.64235 10.0779 6.53101 10.8638C6.44307 11.4846 6.34834 12.1047 6.27529 12.7274C6.18467 13.4998 6.11527 14.2748 6.03242 15.0482C6.00679 15.2873 6.37616 15.9968 6.59311 16.0968C6.63892 16.1164 6.68868 16.1243 6.73819 16.1201C7.0766 16.1102 7.41485 16.1453 7.74431 16.2246C8.03288 16.2786 8.15453 16.1793 8.1705 15.8747C8.18191 15.6566 8.17272 15.4374 8.17272 15.2186Z" fill="#837CC6"/>
<path d="M1.0584 15.0975C1.19435 15.1008 1.27664 15.2077 1.38145 15.2707C1.97425 15.6273 2.63045 15.8098 3.27954 15.5896C3.7188 15.4469 4.1192 15.202 4.4489 14.8745C4.77857 14.547 5.02845 14.1459 5.17865 13.7031C5.3963 13.1062 5.55994 12.4957 5.47569 11.861C5.37652 11.0719 5.16339 10.3018 4.84313 9.57576C4.657 9.14589 4.40409 8.74915 4.09409 8.4007C3.60223 7.85817 3.01892 7.79238 2.35048 7.96077C1.50302 8.17426 0.996623 8.78765 0.549942 9.47564C0.399563 9.70724 0.363874 9.99689 0.316644 10.2614C0.209853 10.8597 0.0852131 11.4537 0.0858725 12.0739C0.0866429 12.7978 0.299054 13.4515 0.536843 14.1127C0.656461 14.4453 0.886233 14.7144 1.0054 15.0434C0.749212 14.871 0.662714 14.5823 0.533299 14.325C0.0509441 13.3659 -0.072254 12.3365 0.037018 11.2852C0.0926432 10.7343 0.205467 10.1909 0.373604 9.66411C0.545215 9.13332 0.958737 8.78133 1.33455 8.39995C1.7618 7.96637 2.31059 7.84392 2.86488 7.76399C3.30481 7.70056 3.69041 7.90578 4.01743 8.199C4.55404 8.68017 4.86337 9.31161 5.10175 9.97853C5.38139 10.761 5.63506 11.5598 5.55583 12.4055C5.43258 13.7213 4.94273 14.7932 3.72946 15.4948C2.92684 15.9588 1.72354 15.6709 1.16267 15.23C1.1198 15.1963 1.06085 15.1675 1.0584 15.0975Z" fill="#837CC6"/>
<path d="M13.1266 8.42013C13.0441 8.80303 12.8677 9.15517 12.7843 9.53967C12.6142 10.3236 12.4267 11.1037 12.2396 11.8836C12.0853 12.5265 11.9202 13.1665 11.7082 13.7931C11.6071 14.1026 11.5396 14.4224 11.5068 14.7467C11.4939 14.8301 11.5015 14.9154 11.529 14.995C11.5564 15.0747 11.6029 15.1462 11.6641 15.2032C11.94 15.4574 12.2431 15.6794 12.5678 15.8649C12.6446 15.9075 12.7306 15.9305 12.8182 15.9318C12.9058 15.933 12.9923 15.9126 13.0704 15.8723C13.3421 15.753 13.6095 15.6238 13.8788 15.4988C13.5949 15.7993 13.2195 15.9292 12.8415 16.0289C12.6391 16.0823 12.4734 15.9081 12.309 15.7997C12.0538 15.6432 11.8142 15.4616 11.5939 15.2575C11.5186 15.1847 11.4629 15.0937 11.4318 14.9929C11.4008 14.8922 11.3955 14.7851 11.4166 14.6817C11.5074 14.1623 11.6407 13.6515 11.8151 13.1546C11.9666 12.6758 12.0644 12.1844 12.1773 11.6962C12.292 11.2001 12.4345 10.7104 12.5442 10.2133C12.6251 9.7776 12.7357 9.34813 12.8752 8.92799C12.9406 8.75134 12.9728 8.55336 13.1266 8.42013Z" fill="#837CC6"/>
<path d="M15.9268 14.9552C16.2683 15.1685 16.5282 14.8999 16.795 14.7778C17.3196 14.5377 17.8125 14.229 18.3714 14.0623C18.5569 14.007 18.6454 13.8902 18.5438 13.6603C18.2533 13.0028 17.892 12.3816 17.6007 11.7253C17.0821 10.5572 16.5668 9.3875 16.0547 8.21638C16.0467 8.18454 16.0438 8.1516 16.0462 8.11883C16.2113 8.18799 16.2081 8.3644 16.267 8.4951C17.0097 10.1432 17.6903 11.8204 18.5245 13.4253C18.5592 13.4921 18.5897 13.5612 18.6195 13.6305C18.7301 13.8876 18.6802 14.062 18.4131 14.1428C17.7171 14.3535 17.1048 14.7423 16.454 15.049C16.2632 15.139 16.0615 15.2226 15.9268 14.9552Z" fill="#837CC6"/>
<path d="M20.1514 12.0305C20.5519 12.223 20.9539 12.4123 21.352 12.6098C21.4986 12.6855 21.6517 12.7473 21.8094 12.7945C22.0607 12.8657 22.1237 13.0546 21.986 13.279C21.8197 13.5499 21.5651 13.627 21.2321 13.5516C20.7101 13.4334 20.2898 13.1137 19.8408 12.8533C19.6677 12.753 19.6017 12.7919 19.5195 12.9511C19.3309 13.3039 19.1697 13.671 19.0374 14.0493C18.9222 14.3941 19.1472 14.6584 19.2507 14.9506C19.3054 15.1049 19.4241 15.2376 19.3999 15.4178C19.1944 15.1065 19.0407 14.7631 18.9448 14.4012C18.8558 14.0645 19.0504 13.7668 19.1692 13.4669C19.2491 13.2655 19.361 13.0774 19.4535 12.8808C19.5453 12.6858 19.6692 12.6635 19.8556 12.7605C20.2081 12.9438 20.5129 13.2151 20.8961 13.3402C21.0605 13.3938 21.2252 13.4468 21.3916 13.4936C21.4691 13.5093 21.5492 13.5043 21.6243 13.4792C21.6993 13.4541 21.7666 13.4097 21.8197 13.3503C21.8684 13.3173 21.9069 13.271 21.9307 13.2167C21.9545 13.1624 21.9627 13.1024 21.9542 13.0436C21.9287 12.9194 21.8152 12.8961 21.7126 12.8575C21.2005 12.6466 20.7018 12.4032 20.2196 12.1289C20.1885 12.1124 20.1738 12.064 20.1514 12.0305Z" fill="#837CC6"/>
<path d="M13.9823 15.3891C13.9873 15.3734 13.9877 15.3491 13.9982 15.3431C14.6132 14.9882 14.4674 14.4084 14.4019 13.8695C14.3566 13.4958 14.3618 13.1146 14.259 12.7479C14.2279 12.6373 14.3021 12.5674 14.3892 12.532C14.519 12.4775 14.6534 12.435 14.7908 12.405C14.9536 12.3715 14.9799 12.5116 15.0065 12.6226C15.1135 12.9922 15.1919 13.3696 15.241 13.7516C15.2548 14.0225 15.3607 14.2801 15.5406 14.4807C15.5857 14.529 15.6383 14.5749 15.6306 14.6524C15.3144 14.4308 15.1966 14.1133 15.1511 13.7359C15.0969 13.3725 15.024 13.0121 14.9328 12.6564C14.8881 12.4593 14.7451 12.5211 14.6155 12.551C14.4694 12.5847 14.3527 12.6178 14.372 12.8233C14.4189 13.3239 14.5329 13.8179 14.5191 14.3245C14.5164 14.4254 14.5196 14.5264 14.5194 14.6273C14.5186 15.0372 14.3797 15.2341 13.9823 15.3891Z" fill="#837CC6"/>
<path d="M19.4035 15.4225C20.0916 15.5889 20.7996 15.6539 21.5059 15.6154C22.1943 15.5935 22.8226 15.419 23.322 14.9023C23.3476 14.8829 23.3759 14.8675 23.406 14.8566C23.3341 15.1208 23.104 15.2319 22.9009 15.3413C22.2421 15.6963 21.5315 15.7784 20.7942 15.7088C20.4406 15.6908 20.0884 15.6507 19.7396 15.5887C19.6119 15.5602 19.472 15.5696 19.4035 15.4225Z" fill="#837CC6"/>
<path d="M23.3357 8.3406C23.0668 8.25976 22.8323 8.1012 22.5729 7.9942C21.8924 7.71348 21.2691 7.81339 20.6541 8.16394C20.3994 8.30167 20.1537 8.45594 19.9185 8.62579C19.8478 8.67926 19.7813 8.75246 19.679 8.74528C19.6762 8.68414 19.7257 8.65789 19.7629 8.6304C20.1918 8.30484 20.6629 8.04097 21.1628 7.84626C21.6496 7.66304 22.1191 7.73749 22.5823 7.91012C22.8536 8.01126 23.1504 8.07899 23.3357 8.3406Z" fill="#837CC6"/>
<path d="M23.406 14.8566C23.4976 14.5735 23.6265 14.3042 23.7426 14.0332C23.9915 13.4519 23.8996 12.9146 23.6729 12.3642C23.5369 12.034 23.3556 11.7287 23.2052 11.4069C23.2379 11.4132 23.2686 11.4276 23.2946 11.4488C23.3205 11.4699 23.341 11.4972 23.3543 11.5283C23.6784 12.13 24.0484 12.7322 23.9644 13.4501C23.9051 13.9561 23.7743 14.4627 23.406 14.8566Z" fill="#837CC6"/>
<path d="M16.0436 8.11633C16.0355 8.11795 16.0243 8.12391 16.0197 8.12056C15.4987 7.73865 14.9617 7.95557 14.4166 8.0533C13.9736 8.13274 13.5344 8.20215 13.1309 8.41579C13.2958 8.17559 13.5609 8.10271 13.8121 8.06361C14.2919 7.98892 14.7641 7.88573 15.2382 7.78435C15.5574 7.71612 15.8138 7.90734 16.0436 8.11633Z" fill="#837CC6"/>
<path d="M19.4252 9.00278C19.3844 9.20768 19.2519 9.37459 19.2092 9.58293C19.0707 10.2588 19.3381 10.8242 19.6527 11.3812C19.7131 11.488 19.819 11.5707 19.8217 11.7082C19.4993 11.4311 19.3839 11.0344 19.2242 10.6604C19.1242 10.4343 19.0743 10.1885 19.078 9.94063C19.0818 9.69273 19.1391 9.44869 19.2459 9.22573C19.2859 9.1358 19.3143 9.03468 19.4252 9.00278Z" fill="#837CC6"/>
<path d="M23.0568 11.2579C22.59 10.9712 22.0498 10.8034 21.6646 10.3863C21.5822 10.2971 21.429 10.1973 21.5855 10.04C21.6227 10.3094 21.826 10.4491 22.0221 10.5785C22.261 10.7361 22.5212 10.8603 22.7668 11.0081C22.8755 11.0735 23.0105 11.1149 23.0568 11.2579Z" fill="#837CC6"/>
<path d="M23.3921 10.1914C23.3935 10.1749 23.389 10.1542 23.3971 10.1426C23.797 9.57589 23.6911 9.00976 23.3979 8.44295C23.3933 8.42704 23.3915 8.41043 23.3926 8.39388C23.6792 8.54422 23.6684 8.84331 23.72 9.10115C23.7922 9.46189 23.7714 9.81496 23.5061 10.1072C23.4742 10.1423 23.4509 10.1926 23.3921 10.1914Z" fill="#837CC6"/>
<path d="M21.5958 10.0296C21.7365 9.88245 21.9068 9.94468 22.0557 9.98746C22.3136 10.0451 22.5635 10.1345 22.8001 10.2537C22.9865 10.3619 23.1595 10.3143 23.3377 10.2462C23.2288 10.439 23.0798 10.4608 22.8831 10.3822C22.4677 10.2162 22.0618 10.0074 21.5958 10.0296Z" fill="#837CC6"/>
<path d="M19.6203 8.79596C19.6116 8.84487 19.5889 8.8901 19.5551 8.92601C19.5213 8.96191 19.4778 8.98691 19.43 8.99788C19.4337 8.94702 19.4547 8.89904 19.4894 8.86219C19.5242 8.82534 19.5704 8.80192 19.6203 8.79596Z" fill="#837CC6"/>
<path d="M21.0797 15.4078C20.6601 15.3606 20.1845 15.3091 19.7094 15.2525C19.5956 15.2389 19.3451 14.8618 19.3782 14.7634C19.4103 14.6677 19.4737 14.7323 19.5215 14.7421C19.7957 14.7986 20.058 14.8989 20.3309 14.9652C20.7349 15.0635 21.1367 15.0404 21.5408 15.0507C21.6398 15.0368 21.7407 15.0511 21.8322 15.0919C21.8899 15.1286 22.0021 15.1268 21.9816 15.2275C21.9659 15.3049 21.8753 15.3369 21.8029 15.3452C21.5814 15.3708 21.3587 15.3847 21.0797 15.4078Z" fill="#837CC6"/>
<path d="M22.4008 9.54028C22.4537 9.55295 22.5056 9.56982 22.556 9.59075C22.6805 9.65579 22.8992 9.69623 22.8297 9.87315C22.7574 10.057 22.5932 9.8854 22.4761 9.85263C22.3917 9.82201 22.3038 9.80228 22.2146 9.79393C22.1459 9.79239 22.0766 9.7756 22.0657 9.69359C22.0523 9.59237 22.1386 9.60313 22.1987 9.5883C22.2697 9.57076 22.3411 9.55442 22.4008 9.54028Z" fill="#837CC6"/>
<path d="M13.6831 12.0624C13.8947 11.788 14.235 11.7461 14.5126 11.5909C14.5577 11.5697 14.604 11.5513 14.6512 11.5357C14.9511 11.4136 15.0827 11.4709 15.2071 11.7877C15.3307 12.1445 15.4235 12.5116 15.4843 12.8848C15.53 13.1069 15.5761 13.329 15.6161 13.5521C15.6341 13.6525 15.6645 13.7071 15.7792 13.6667C16.2482 13.5017 16.7186 13.3407 17.1885 13.1785C17.3776 13.1132 17.4191 13.004 17.3325 12.8122C16.6837 11.3758 16.0403 9.93705 15.4023 8.49579C15.3164 8.30129 15.2247 8.26258 15.0225 8.31606C14.5989 8.42814 14.1671 8.50991 13.7365 8.59296C13.6055 8.60516 13.4825 8.66242 13.3879 8.75527C13.2934 8.84811 13.2329 8.97097 13.2164 9.1035C12.8984 10.6324 12.5386 12.1513 12.137 13.6604C12.0277 14.074 11.9348 14.4921 11.8343 14.9081C11.7327 14.872 11.7557 14.7909 11.774 14.7194C11.9575 14.0005 12.1559 13.2852 12.3252 12.5629C12.5025 11.8062 12.7146 11.0583 12.8612 10.2934C12.9386 9.81455 13.048 9.34161 13.1886 8.87783C13.3151 8.49976 13.6648 8.51954 13.944 8.45267C14.3195 8.36271 14.7114 8.33371 15.0789 8.20942C15.3049 8.13299 15.391 8.22785 15.4723 8.4135C15.8855 9.35674 16.3052 10.2971 16.7229 11.2383C16.9642 11.7818 17.1947 12.3308 17.4541 12.8652C17.5443 13.0509 17.4842 13.117 17.3406 13.1992C17.021 13.3572 16.6874 13.4838 16.3442 13.5774C16.1728 13.6357 15.9975 13.6825 15.8272 13.7438C15.6687 13.8009 15.5806 13.8034 15.5311 13.5897C15.4009 13.0284 15.3468 12.449 15.1461 11.9042C15.0086 11.5306 14.9748 11.518 14.6091 11.6473C14.2886 11.7607 14.0146 11.9766 13.6831 12.0624Z" fill="#837CC6"/>
<path d="M17.9737 13.7261C17.9838 13.8269 17.903 13.8515 17.839 13.8829C17.3389 14.1288 16.8379 14.3728 16.3359 14.6149C16.1877 14.686 15.736 14.3685 15.7464 14.202C15.7525 14.1058 15.8323 14.0734 15.9108 14.0374C16.2344 13.8893 16.5989 13.8895 16.9228 13.7438C17.1319 13.6497 17.3417 13.5569 17.5533 13.4688C17.5975 13.4562 17.6439 13.4529 17.6894 13.4592C17.735 13.4655 17.7788 13.4811 17.8182 13.5052C17.8576 13.5293 17.8917 13.5613 17.9184 13.5993C17.9452 13.6373 17.964 13.6804 17.9737 13.7261Z" fill="#837CC6"/>
<path d="M12.8095 15.6036C12.648 15.56 12.5074 15.459 12.4132 15.3189C12.3612 15.2392 12.4284 15.1789 12.5122 15.1581C12.8276 15.0671 13.1311 14.9378 13.416 14.773C13.4657 14.7348 13.5245 14.7108 13.5864 14.7035C13.6483 14.6963 13.711 14.7059 13.7679 14.7316C13.979 14.8474 13.9947 14.98 13.8012 15.1186C13.6211 15.2478 12.9167 15.5999 12.8095 15.6036Z" fill="#837CC6"/>
<path d="M11.8426 14.9178C12.4056 14.9372 12.8302 14.5833 13.3062 14.3647C13.5619 14.2473 13.5978 14.074 13.5769 13.8051C13.5374 13.2965 13.5544 12.7832 13.5493 12.2718C13.5487 12.2051 13.5472 12.1334 13.6339 12.1124C13.6347 12.5827 13.6354 13.053 13.6364 13.5234C13.6319 13.5989 13.6342 13.6747 13.643 13.7498C13.7507 14.3375 13.6989 14.2015 13.296 14.4654C13.0019 14.6518 12.6899 14.8075 12.3649 14.93C12.1974 14.996 12.0124 15.0843 11.8426 14.9178Z" fill="#837CC6"/>
<path d="M0.743568 9.77649C0.754938 10.0645 0.639347 10.2756 0.606272 10.5018C0.520528 11.057 0.52147 11.6224 0.609069 12.1773C0.7001 12.7736 0.918729 13.3423 1.24957 13.8435C1.40849 14.1091 1.61314 14.3435 1.85373 14.5355C1.98308 14.6292 2.04932 14.7104 1.82335 14.7927C1.4715 14.9208 1.29531 14.8807 1.08964 14.5621C0.783016 14.0577 0.566756 13.5021 0.450868 12.9212C0.383023 12.6273 0.357773 12.3266 0.29285 12.0339C0.186916 11.5562 0.325788 11.1045 0.408923 10.6468C0.443002 10.4591 0.512384 10.2781 0.54564 10.0904C0.56878 9.96353 0.639807 9.8509 0.743568 9.77649Z" fill="#837CC6"/>
<path d="M6.73154 15.5526C7.02293 15.5892 7.3194 15.6685 7.62653 15.68C7.65635 15.6782 7.68614 15.6837 7.71336 15.6962C7.74058 15.7087 7.76442 15.7277 7.78285 15.7515C7.80127 15.7754 7.81372 15.8035 7.81913 15.8333C7.82452 15.8631 7.82273 15.8938 7.81388 15.9228C7.77454 16.0745 7.65925 15.9911 7.56809 15.9859C7.33693 15.9727 7.10545 15.9648 6.87406 15.9563C6.79156 15.9629 6.70906 15.9439 6.63736 15.9019C6.53454 15.8307 6.43569 15.7282 6.45834 15.6209C6.48321 15.5033 6.62967 15.5852 6.73154 15.5526Z" fill="#837CC6"/>
<path d="M3.23537 12.6747L3.53744 12.0715C3.67376 12.2405 3.4066 12.3549 3.47917 12.5155C3.45413 12.5324 3.41979 12.5437 3.40636 12.5673C3.40364 12.5728 3.40267 12.5791 3.40359 12.5851C3.40447 12.5912 3.40725 12.5969 3.41146 12.6013C3.41569 12.6057 3.42116 12.6086 3.42712 12.6098C3.43307 12.6109 3.43922 12.6101 3.44472 12.6075C3.46774 12.5938 3.47782 12.5576 3.49356 12.5313C3.63164 12.4795 3.68041 12.3249 3.80187 12.255C3.86383 12.2194 3.93313 12.149 4.00207 12.213C4.06325 12.2698 4.03384 12.3505 3.99939 12.4222C3.83258 12.77 3.74461 12.8082 3.38031 12.6922C3.33261 12.6817 3.28415 12.6759 3.23537 12.6747Z" fill="#837CC6"/>
<path d="M4.30564 9.67768C4.13612 9.58788 3.9714 9.47166 3.76649 9.57687C3.78069 9.42441 3.89672 9.40575 3.99756 9.43587C4.12338 9.47343 4.29574 9.47752 4.30564 9.67768Z" fill="#837CC6"/>
<path d="M20.1514 12.0315C20.1387 12.0285 20.1271 12.0217 20.1182 12.0121C20.0924 11.9441 20.053 11.8822 20.0026 11.8304C19.9521 11.7787 19.8916 11.7381 19.8248 11.7113L19.8217 11.7082C19.819 11.5707 19.7131 11.488 19.6527 11.3812C19.3381 10.8242 19.0707 10.2588 19.2092 9.58293C19.2519 9.37459 19.3844 9.20768 19.4252 9.00278L19.43 8.99899C19.4777 8.98802 19.5212 8.96303 19.555 8.92712C19.5888 8.89121 19.6115 8.84598 19.6202 8.79707C19.6398 8.77999 19.6593 8.76238 19.679 8.74528C19.7813 8.75246 19.8478 8.67926 19.9185 8.62579C20.1537 8.45594 20.3994 8.30167 20.6541 8.16394C21.2691 7.81339 21.8924 7.71348 22.5729 7.9942C22.8323 8.1012 23.0668 8.25976 23.3357 8.3406C23.3545 8.35825 23.3737 8.37624 23.3926 8.39388C23.3915 8.41043 23.3933 8.42704 23.3979 8.44295C23.6911 9.00976 23.797 9.57589 23.3971 10.1426C23.389 10.1542 23.3935 10.1749 23.3921 10.1914C23.374 10.2098 23.3558 10.2278 23.3377 10.2462C23.1595 10.3143 22.9865 10.3619 22.8001 10.2537C22.5635 10.1345 22.3136 10.0451 22.0557 9.98746C21.9068 9.94468 21.7365 9.88245 21.5958 10.0296L21.5855 10.04C21.429 10.1973 21.5822 10.2971 21.6646 10.3863C22.0498 10.8034 22.59 10.9712 23.0568 11.2579C23.1062 11.3077 23.1558 11.3571 23.2052 11.4069C23.3556 11.7287 23.5369 12.034 23.6729 12.3642C23.8996 12.9146 23.9915 13.4519 23.7426 14.0332C23.6265 14.3042 23.497 14.5743 23.4054 14.8574C23.3754 14.8684 23.3476 14.8829 23.322 14.9023C22.8226 15.419 22.1943 15.5935 21.5059 15.6154C20.7996 15.6539 20.0916 15.5889 19.4035 15.4225L19.3998 15.4189C19.4241 15.2386 19.3054 15.1059 19.2507 14.9516C19.1472 14.6594 18.9222 14.3951 19.0374 14.0504C19.1697 13.6721 19.3309 13.305 19.5195 12.9522C19.6017 12.793 19.6677 12.7541 19.8408 12.8544C20.2898 13.1147 20.7101 13.4345 21.2321 13.5527C21.5651 13.6281 21.8198 13.551 21.986 13.2801C22.1237 13.0557 22.0607 12.8668 21.8093 12.7955C21.6516 12.7484 21.4986 12.6865 21.3521 12.6109C20.9539 12.4134 20.5519 12.2241 20.1514 12.0315ZM21.2603 14.7398C21.4022 14.7398 21.5687 14.7496 21.7337 14.738C22.3305 14.6958 22.8169 14.4557 23.1267 13.912C23.3003 13.5857 23.3787 13.2159 23.353 12.8459C23.3335 12.1004 23.0384 11.5415 22.3642 11.2058C22.0452 11.0469 21.7328 10.8743 21.4204 10.7022C21.1445 10.5604 20.9264 10.3247 20.8041 10.0363C20.6228 9.59771 20.8593 9.14414 21.3173 9.09345C21.7384 9.04684 22.1674 9.03682 22.5642 9.21695C22.7409 9.29718 22.7906 9.23371 22.8592 9.09016C23.106 8.57406 23.1084 8.57161 22.5813 8.3752C22.5503 8.36364 22.5217 8.34501 22.4904 8.33469C22.0897 8.20274 21.6893 8.03641 21.2623 8.21406C20.8249 8.39149 20.4084 8.618 20.0207 8.88937C19.8381 9.01777 19.6891 9.18947 19.5866 9.38957C19.4842 9.58967 19.4313 9.81213 19.4327 10.0377C19.434 10.2632 19.4896 10.485 19.5944 10.6838C19.6993 10.8826 19.8503 11.0524 20.0344 11.1786C20.3627 11.4103 20.7414 11.5377 21.0958 11.7153C21.4874 11.9115 21.9083 12.0567 22.1858 12.4326C22.4799 12.8308 22.4705 13.3733 22.1433 13.612C22.0106 13.7134 21.857 13.783 21.694 13.8155C21.531 13.848 21.363 13.8426 21.2024 13.7996C20.7474 13.674 20.3164 13.4716 19.9274 13.2011C19.7894 13.1116 19.7158 13.1085 19.6542 13.2855C19.5724 13.5403 19.4686 13.7872 19.3441 14.0235C19.208 14.2666 19.3254 14.3586 19.5184 14.4315C20.0692 14.6647 20.6643 14.77 21.2603 14.7398ZM21.0797 15.4078C21.3587 15.3847 21.5814 15.3708 21.8029 15.3452C21.8753 15.3369 21.9659 15.3049 21.9816 15.2275C22.0021 15.1268 21.8899 15.1286 21.8322 15.0919C21.7407 15.0511 21.6398 15.0368 21.5408 15.0507C21.1367 15.0404 20.7349 15.0635 20.3309 14.9652C20.058 14.8989 19.7957 14.7986 19.5215 14.7421C19.4737 14.7323 19.4103 14.6677 19.3782 14.7634C19.3451 14.8618 19.5956 15.2389 19.7094 15.2525C20.1845 15.3091 20.6601 15.3606 21.0797 15.4078ZM22.4008 9.54028C22.3411 9.55442 22.2697 9.57076 22.1987 9.5883C22.1386 9.60313 22.0523 9.59237 22.0657 9.69359C22.0766 9.7756 22.1459 9.79239 22.2146 9.79393C22.3038 9.80228 22.3917 9.82201 22.4761 9.85263C22.5932 9.8854 22.7574 10.057 22.8297 9.87315C22.8992 9.69623 22.6805 9.65579 22.556 9.59075C22.5056 9.56982 22.4537 9.55295 22.4008 9.54028Z" fill="#4035A7"/>
<path d="M13.9823 15.3891C13.9478 15.4259 13.9132 15.4621 13.8788 15.4988C13.6095 15.6238 13.3421 15.753 13.0704 15.8723C12.9923 15.9126 12.9058 15.933 12.8182 15.9318C12.7306 15.9305 12.6446 15.9075 12.5678 15.8649C12.2431 15.6794 11.94 15.4574 11.6641 15.2032C11.6029 15.1462 11.5564 15.0747 11.529 14.995C11.5015 14.9154 11.4939 14.8301 11.5068 14.7467C11.5396 14.4224 11.6071 14.1026 11.7082 13.7931C11.9202 13.1665 12.0853 12.5265 12.2396 11.8836C12.4267 11.1037 12.6142 10.3236 12.7843 9.53967C12.8677 9.15517 13.0441 8.80303 13.1266 8.42013L13.1309 8.41579C13.5344 8.20215 13.9736 8.13274 14.4166 8.0533C14.9617 7.95557 15.4987 7.73865 16.0197 8.12056C16.0243 8.12391 16.0355 8.11795 16.0436 8.11633L16.0462 8.11883C16.0438 8.1516 16.0467 8.18454 16.0547 8.21638C16.5687 9.38664 17.084 10.5563 17.6007 11.7253C17.892 12.3816 18.2533 13.0028 18.5438 13.6603C18.6454 13.8902 18.5569 14.007 18.3714 14.0623C17.8125 14.229 17.3196 14.5377 16.795 14.7778C16.5282 14.8999 16.2683 15.1685 15.9268 14.9552C15.828 14.8541 15.7293 14.7534 15.6306 14.6524C15.6383 14.5749 15.5857 14.529 15.5406 14.4807C15.3607 14.2801 15.2548 14.0225 15.241 13.7516C15.1919 13.3696 15.1135 12.9922 15.0065 12.6226C14.9799 12.5116 14.9536 12.3715 14.7908 12.405C14.6534 12.435 14.519 12.4775 14.3892 12.532C14.3021 12.5674 14.2279 12.6373 14.259 12.7479C14.3618 13.1146 14.3566 13.4958 14.4019 13.8695C14.4674 14.4084 14.6132 14.9882 13.9982 15.3431C13.9877 15.3491 13.9873 15.3734 13.9823 15.3891ZM11.8426 14.9178C12.0124 15.0843 12.1974 14.996 12.3649 14.93C12.6899 14.8075 13.0019 14.6518 13.296 14.4654C13.6989 14.2015 13.7507 14.3375 13.643 13.7498C13.6342 13.6747 13.6319 13.5989 13.6364 13.5234C13.6354 13.053 13.6347 12.5827 13.6339 12.1124L13.6831 12.0624C14.0146 11.9766 14.2886 11.7607 14.6091 11.6473C14.9748 11.518 15.0086 11.5306 15.1461 11.9042C15.3468 12.449 15.4009 13.0284 15.5311 13.5897C15.5806 13.8034 15.6687 13.8009 15.8272 13.7438C15.9975 13.6825 16.1728 13.6357 16.3442 13.5774C16.6874 13.4838 17.021 13.3572 17.3406 13.1992C17.4842 13.117 17.5443 13.0509 17.4541 12.8652C17.1947 12.3308 16.9642 11.7818 16.7229 11.2383C16.3052 10.2971 15.8855 9.35674 15.4723 8.4135C15.391 8.22785 15.3049 8.13299 15.0789 8.20942C14.7114 8.33371 14.3195 8.36271 13.944 8.45267C13.6648 8.51954 13.3151 8.49976 13.1886 8.87783C13.048 9.34161 12.9386 9.81455 12.8612 10.2934C12.7146 11.0583 12.5025 11.8062 12.3252 12.5629C12.1559 13.2852 11.9575 14.0005 11.774 14.7194C11.7557 14.7909 11.7327 14.872 11.8343 14.9081L11.8426 14.9178ZM17.9737 13.7261C17.964 13.6804 17.9452 13.6373 17.9184 13.5993C17.8917 13.5613 17.8576 13.5293 17.8182 13.5052C17.7788 13.4811 17.735 13.4655 17.6894 13.4592C17.6439 13.4529 17.5975 13.4562 17.5533 13.4688C17.3417 13.5569 17.1319 13.6497 16.9228 13.7438C16.5989 13.8895 16.2344 13.8893 15.9108 14.0374C15.8323 14.0734 15.7525 14.1058 15.7464 14.202C15.736 14.3685 16.1877 14.686 16.3359 14.6149C16.8384 14.3741 17.3394 14.1301 17.839 13.8829C17.903 13.8515 17.9838 13.8269 17.9737 13.7261ZM12.8095 15.6036C12.9167 15.5999 13.6211 15.2478 13.8012 15.1186C13.9947 14.98 13.979 14.8474 13.7679 14.7316C13.711 14.7059 13.6483 14.6963 13.5864 14.7035C13.5245 14.7108 13.4657 14.7348 13.416 14.773C13.1311 14.9378 12.8276 15.0671 12.5122 15.1581C12.4284 15.1789 12.3612 15.2392 12.4132 15.3189C12.5074 15.459 12.648 15.56 12.8095 15.6036Z" fill="#4035A7"/>
<path d="M1.0584 15.0975C1.04073 15.0794 1.02306 15.0614 1.0054 15.0434C0.886233 14.7144 0.656461 14.4453 0.536843 14.1127C0.299054 13.4515 0.0866429 12.7978 0.0858725 12.0739C0.0852131 11.4537 0.209853 10.8597 0.316644 10.2614C0.363874 9.99689 0.399563 9.70724 0.549942 9.47564C0.996623 8.78765 1.50302 8.17426 2.35048 7.96077C3.01892 7.79238 3.60223 7.85817 4.09409 8.4007C4.40409 8.74915 4.657 9.14589 4.84313 9.57576C5.16339 10.3018 5.37652 11.0719 5.47569 11.861C5.55994 12.4957 5.3963 13.1062 5.17865 13.7031C5.02845 14.1459 4.77857 14.547 4.4489 14.8745C4.1192 15.202 3.7188 15.4469 3.27954 15.5896C2.63045 15.8098 1.97425 15.6273 1.38145 15.2707C1.27664 15.2077 1.19435 15.1008 1.0584 15.0975ZM0.841547 11.8162C0.827036 12.5995 1.22738 13.6004 2.13687 14.3589C2.54087 14.6959 3.01736 14.9312 3.55416 14.8247C4.50984 14.635 4.98611 13.6683 5.12698 12.9732C5.23459 12.3604 5.20382 11.7307 5.03698 11.1317C4.83865 10.3223 4.5707 9.54637 4.08844 8.85868C3.33927 7.79032 1.92093 7.90383 1.34404 9.08064C0.983373 9.81637 0.854765 10.6012 0.841547 11.8162ZM0.743568 9.77649C0.639807 9.8509 0.56878 9.96353 0.54564 10.0904C0.512384 10.2781 0.443002 10.4591 0.408923 10.6468C0.325788 11.1045 0.186916 11.5562 0.29285 12.0339C0.357773 12.3266 0.383023 12.6273 0.450868 12.9212C0.566756 13.5021 0.783016 14.0577 1.08964 14.5621C1.29531 14.8807 1.4715 14.9208 1.82335 14.7927C2.04932 14.7104 1.98308 14.6292 1.85373 14.5355C1.61314 14.3435 1.40849 14.1091 1.24957 13.8435C0.918729 13.3423 0.7001 12.7736 0.609069 12.1773C0.52147 11.6224 0.520528 11.057 0.606272 10.5018C0.639347 10.2756 0.754938 10.0645 0.743568 9.77649Z" fill="#4035A7"/>
<path d="M8.17272 15.2186C8.17272 15.4374 8.18191 15.6566 8.1705 15.8747C8.15453 16.1793 8.03288 16.2786 7.74431 16.2246C7.41485 16.1453 7.0766 16.1102 6.73819 16.1201C6.68868 16.1243 6.63892 16.1164 6.59311 16.0968C6.37616 15.9968 6.00679 15.2873 6.03242 15.0482C6.11527 14.2748 6.18467 13.4998 6.27529 12.7274C6.34834 12.1047 6.44307 11.4846 6.53101 10.8638C6.64235 10.0779 6.74317 9.29002 6.87816 8.50829C6.91631 8.28736 6.87462 7.98478 7.14923 7.87793C7.3813 7.78762 7.61676 7.69815 7.89002 7.7618C8.48353 7.90006 9.08838 7.98844 9.6814 8.12861C10.6402 8.35524 11.0805 8.93619 11.1549 9.91779C11.2268 10.5646 11.0913 11.2178 10.7683 11.7801C10.6148 12.0188 10.4189 12.2265 10.1906 12.3926C10.1057 12.4593 10.0194 12.524 9.93185 12.5869C9.78739 12.6906 9.76331 12.7862 9.87067 12.9577C10.1653 13.4015 10.4209 13.8708 10.6345 14.3602C10.9517 15.1441 10.86 15.3932 10.1324 15.7967C9.95969 15.8925 9.77083 15.9593 9.60242 16.0615C9.44013 16.16 9.34968 16.1054 9.25324 15.9669C8.99175 15.5714 8.75868 15.1572 8.5558 14.7276C8.48418 14.5851 8.42468 14.3466 8.25267 14.3833C8.09768 14.4164 8.19157 14.6473 8.1781 14.7899C8.16471 14.9316 8.17515 15.0757 8.17515 15.2186H8.17272ZM6.3244 15.0509C6.31848 15.0783 6.31877 15.1066 6.32529 15.1338C6.33182 15.1611 6.3444 15.1864 6.36207 15.2079C6.37974 15.2294 6.40203 15.2465 6.42722 15.2579C6.45241 15.2693 6.47985 15.2747 6.50742 15.2737C6.73687 15.3022 6.96627 15.3337 7.19661 15.3517C7.61547 15.3844 7.62737 15.3818 7.66831 14.9462C7.74358 14.1451 7.80379 13.3425 7.86992 12.5406C7.876 12.4667 7.85828 12.3714 7.94738 12.3471C8.03583 12.323 8.07271 12.41 8.10794 12.475C8.27852 12.7897 8.45242 13.1026 8.61528 13.4214C8.89527 13.9695 9.17375 14.5185 9.44062 15.0732C9.53524 15.2698 9.631 15.2927 9.80119 15.1643C9.95496 15.0515 10.1173 14.9514 10.2867 14.8648C10.3155 14.852 10.3413 14.8332 10.3626 14.8097C10.3838 14.7861 10.3999 14.7583 10.4098 14.728C10.4198 14.6977 10.4234 14.6656 10.4203 14.6338C10.4173 14.602 10.4077 14.5712 10.3923 14.5435C10.2916 14.2698 10.1744 14.0028 10.0412 13.7439C9.81976 13.333 9.57475 12.9351 9.33742 12.5331C9.31215 12.5022 9.29351 12.4664 9.28268 12.4278C9.27186 12.3892 9.2691 12.3488 9.27454 12.309C9.28001 12.2693 9.29359 12.2312 9.3144 12.1971C9.3352 12.163 9.3628 12.1336 9.39541 12.111C9.48846 12.0271 9.57613 11.9373 9.65787 11.842C10.0813 11.3821 10.5127 10.9266 10.7515 10.3309C10.8454 10.1435 10.8934 9.93593 10.8914 9.72573C10.8367 9.16057 10.1744 8.48408 9.62015 8.38828C8.99476 8.28018 8.37097 8.16257 7.74737 8.04419C7.41691 7.98146 7.27381 8.10658 7.21398 8.43388C7.12069 8.94439 7.05391 9.45832 6.97709 9.97094C6.89026 10.5503 6.80224 11.1295 6.72773 11.7106C6.64249 12.3749 6.57934 13.0421 6.49167 13.706C6.43247 14.1544 6.45469 14.6128 6.3244 15.0509ZM6.7317 15.5515C6.62986 15.584 6.48339 15.5022 6.45853 15.6198C6.43585 15.727 6.53469 15.8296 6.63754 15.9008C6.70922 15.9427 6.79174 15.9617 6.87421 15.9552C7.10561 15.9637 7.33709 15.9715 7.56825 15.9848C7.65941 15.99 7.7747 16.0734 7.81407 15.9217C7.82289 15.8927 7.8247 15.862 7.81929 15.8322C7.81388 15.8023 7.80143 15.7743 7.78303 15.7504C7.76461 15.7265 7.74077 15.7075 7.71355 15.6951C7.6863 15.6826 7.65651 15.677 7.62669 15.6788C7.31956 15.6674 7.02311 15.5881 6.7317 15.5515ZM9.33013 15.6514C9.34677 15.6205 9.35597 15.586 9.35705 15.5508C9.3581 15.5156 9.35096 15.4806 9.33621 15.4487C9.08309 14.8199 8.79111 14.208 8.46203 13.6166C8.42309 13.5407 8.40264 13.3725 8.26908 13.4555C8.14873 13.5302 8.27482 13.6365 8.31305 13.7158C8.5083 14.1197 8.70866 14.521 8.91414 14.9195C9.03812 15.1599 9.11991 15.4266 9.33013 15.6514Z" fill="#4035A7"/>
<path d="M13.6509 10.4166C13.662 10.201 13.7098 9.98891 13.7923 9.78988C13.8103 9.72499 13.8428 9.66517 13.8873 9.61506C13.9317 9.56494 13.9869 9.52587 14.0486 9.50085C14.4733 9.36869 14.5765 9.26277 14.7321 9.82788C14.9128 10.4843 14.8793 10.5787 14.255 10.7979C14.2082 10.8144 14.1586 10.8222 14.1119 10.8389C13.7244 10.9775 13.6274 10.9071 13.6509 10.4166ZM14.0765 10.2013C14.0934 10.2758 14.0405 10.3936 14.1713 10.3951C14.1924 10.3959 14.2134 10.3924 14.2331 10.3848C14.2527 10.3772 14.2708 10.3657 14.286 10.3509C14.3013 10.3362 14.3135 10.3185 14.322 10.2989C14.3304 10.2793 14.3349 10.2582 14.3352 10.2367C14.3365 10.1851 14.3188 10.1349 14.2855 10.0959C14.2523 10.0569 14.2059 10.0318 14.1554 10.0257C14.0433 10.0175 14.1031 10.1404 14.0765 10.2013Z" fill="#4035A7"/>
<path d="M2.10536 10.5898C2.09051 10.2458 2.13333 9.90164 2.23198 9.57214C2.40209 9.06583 2.92109 8.93582 3.28472 9.32984C3.7233 9.80504 3.96901 10.3904 4.15249 11.0064C4.32109 11.5723 4.34679 12.1282 4.05668 12.6653C3.99461 12.7845 3.9058 12.8871 3.79738 12.9649C3.68899 13.0427 3.56404 13.0935 3.43273 13.1131C3.30139 13.1327 3.16737 13.1206 3.0415 13.0777C2.91565 13.0349 2.8015 12.9626 2.70831 12.8666C2.47281 12.6165 2.31488 12.3016 2.25415 11.9611C2.14988 11.5119 2.09992 11.0514 2.10536 10.5898ZM2.89374 12.625C2.94333 12.7985 3.02056 12.8321 3.14269 12.7332L3.23537 12.6747C3.28415 12.6759 3.33261 12.6817 3.38031 12.6922C3.74461 12.8082 3.83258 12.77 3.99939 12.4222C4.03384 12.3505 4.06325 12.2698 4.00207 12.213C3.93313 12.149 3.86383 12.2194 3.80187 12.255C3.68041 12.3249 3.63164 12.4795 3.49356 12.5313L3.47917 12.5155C3.4066 12.3549 3.67376 12.2405 3.53744 12.0715L3.54642 11.8735C3.67535 11.77 3.67479 11.6663 3.54715 11.5622L3.53598 11.4152C3.62519 11.2881 3.57649 11.2089 3.4488 11.1573L3.43343 11.062C3.45029 10.9552 3.43578 10.8455 3.39145 10.7472C3.34716 10.6489 3.27509 10.5664 3.18453 10.5096C3.17338 10.5027 3.1648 10.4921 3.16017 10.4797C3.1957 10.3649 3.14462 10.3154 3.03587 10.3085C3.02597 10.1084 2.85361 10.1041 2.72782 10.0665C2.62698 10.0364 2.51092 10.0552 2.49672 10.2077C2.38378 10.5548 2.47055 10.9115 2.44732 11.2629C2.37079 11.3955 2.37473 11.5053 2.53224 11.5716L2.54953 11.7172C2.46217 11.8428 2.53336 11.9138 2.63544 11.9741L2.64943 12.0707C2.64213 12.2958 2.68461 12.4981 2.89374 12.625Z" fill="#4035A7"/>
<path d="M7.81542 10.5261C7.79115 10.1028 7.94995 9.6367 7.92 9.15586C7.91678 9.09982 7.93302 9.04441 7.96589 8.99927C7.99877 8.95413 8.04617 8.92213 8.09988 8.90883C8.52082 8.80762 8.94646 8.76926 9.35712 8.95682C9.94795 9.22665 9.93989 10.0631 9.59242 10.5255C9.43578 10.7485 9.22984 10.9309 8.99114 11.0583C8.75243 11.1857 8.48765 11.2544 8.21801 11.259C7.86845 11.2681 7.81537 11.2135 7.81542 10.8599C7.81545 10.7675 7.81542 10.6751 7.81542 10.5261ZM9.02576 9.69679C8.86522 9.6753 8.73137 9.73138 8.7249 9.94057C8.71765 10.1747 8.72566 10.4092 8.72671 10.6436C8.72734 10.7778 8.78407 10.8071 8.89688 10.7408C9.09494 10.6187 9.25596 10.4435 9.36216 10.2343C9.5401 9.90837 9.41942 9.70401 9.02576 9.69679ZM8.11887 10.1691H8.11649C8.11649 10.3541 8.11479 10.5392 8.11719 10.7242C8.11846 10.823 8.10193 10.9522 8.24685 10.9483C8.37922 10.9447 8.41561 10.8348 8.41556 10.713C8.41542 10.4859 8.40828 10.2583 8.42102 10.0319C8.42617 9.88131 8.38885 9.73238 8.31352 9.6026C8.2813 9.54115 8.24501 9.46401 8.17802 9.47233C8.08659 9.48367 8.12233 9.57916 8.12063 9.63928C8.1157 9.81576 8.11887 9.99248 8.11887 10.1691Z" fill="#4035A7"/>
<path d="M8.11887 10.1691C8.11887 9.99248 8.1157 9.81576 8.12063 9.63928C8.12233 9.57916 8.08659 9.48367 8.17802 9.47233C8.24501 9.46401 8.2813 9.54115 8.31352 9.6026C8.38885 9.73238 8.42617 9.88131 8.42102 10.0319C8.40828 10.2583 8.41542 10.4859 8.41556 10.713C8.41561 10.8348 8.37922 10.9447 8.24685 10.9483C8.10193 10.9522 8.11846 10.823 8.11719 10.7242C8.11479 10.5392 8.11649 10.3541 8.11649 10.1691H8.11887Z" fill="#837CC6"/>
</svg>
