<svg width="24" height="24" viewBox="0 0 24 24" fill="none" xmlns="http://www.w3.org/2000/svg">
<g clip-path="url(#clip0_3464_11)">
<path d="M23.9883 0.0117188H0.0117188V23.9883H23.9883V0.0117188Z" fill="#020830"/>
<path d="M23.9883 0.0117188H0.0117188V23.9883H23.9883V0.0117188Z" fill="url(#paint0_radial_3464_11)"/>
<path d="M12.6573 18.0827C15.7687 17.7598 18.1946 15.1297 18.1946 11.9329C18.1946 8.518 15.4264 5.74959 12.0115 5.74956C8.59661 5.74956 5.8282 8.518 5.82818 11.9329C5.82818 14.0126 6.85511 15.8523 8.42939 16.9731C8.64379 17.1258 8.78261 17.3673 8.78261 17.6305C8.78261 18.3295 8.06193 18.7858 7.48987 18.3841C5.46058 16.9591 4.13428 14.6009 4.13428 11.9329C4.13428 7.5824 7.66101 4.05566 12.0115 4.05566C16.362 4.05569 19.8888 7.58242 19.8888 11.9329C19.8888 16.066 16.7057 19.4554 12.6573 19.7839V18.0827Z" fill="white"/>
<path d="M13.4279 20.6017L10.5952 19.6574V17.769L13.4279 16.8247L14.2072 18.0189V19.4396L13.4279 20.6017Z" fill="white"/>
<path d="M12.0647 19.3285C12.0647 19.3285 12.3422 19.1096 12.5941 19.1771C12.846 19.2446 12.9768 19.573 12.9768 19.573C12.9768 19.573 12.6993 19.7919 12.4475 19.7244C12.1956 19.6569 12.0647 19.3285 12.0647 19.3285Z" fill="#020830"/>
<path d="M12.0649 18.0619C12.0649 18.0619 12.3424 18.2808 12.5942 18.2133C12.8461 18.1458 12.9769 17.8175 12.9769 17.8175C12.9769 17.8175 12.6995 17.5986 12.4476 17.6661C12.1957 17.7335 12.0649 18.0619 12.0649 18.0619Z" fill="#020830"/>
</g>
<defs>
<radialGradient id="paint0_radial_3464_11" cx="0" cy="0" r="1" gradientUnits="userSpaceOnUse" gradientTransform="translate(12) rotate(90) scale(24 16.0109)">
<stop stop-color="#362CF3"/>
<stop offset="1" stop-color="#362CF3" stop-opacity="0"/>
</radialGradient>
<clipPath id="clip0_3464_11">
<rect width="24" height="24" fill="white"/>
</clipPath>
</defs>
</svg>
