<svg width="24" height="24" viewBox="0 0 24 24" fill="none" xmlns="http://www.w3.org/2000/svg">
<path d="M12.0257 19.4523L13.874 17.6086L20.6034 20.5559L18.755 22.3996L12.0257 19.4523Z" fill="black"/>
<path d="M19.4972 12L17.6489 13.8437L20.6034 20.5559L22.4519 18.7126L19.4972 12Z" fill="black"/>
<path d="M12.0253 4.54693L10.1769 6.39065L3.44756 3.44331L5.29586 1.59961L12.0253 4.54693Z" fill="black"/>
<path d="M4.55478 11.9993L6.4031 10.1556L3.44756 3.44331L1.6001 5.28665L4.55478 11.9993Z" fill="black"/>
<path d="M19.4972 11.9981L17.6489 10.1545L20.6036 3.4418L22.4519 5.28549L19.4972 11.9981Z" fill="black"/>
<path d="M12.0253 4.54693L13.874 6.39065L20.6034 3.44331L18.755 1.59961L12.0253 4.54693Z" fill="black"/>
<path d="M4.55478 11.9993L6.4031 13.8425L3.4484 20.5552L1.6001 18.7115L4.55478 11.9993Z" fill="black"/>
<path d="M12.0257 19.4523L10.1783 17.6086L3.4484 20.5552L5.29722 22.3996L12.0257 19.4523Z" fill="black"/>
</svg>
