<svg width="24" height="24" viewBox="0 0 24 24" fill="none" xmlns="http://www.w3.org/2000/svg">
<g clip-path="url(#clip0_1535_2699)">
<path d="M23.5461 14.3715C23.4066 13.9489 23.0411 13.6545 22.5683 13.5839C22.3454 13.5506 22.0901 13.5648 21.7881 13.6271C21.2615 13.7357 20.8709 13.7771 20.5858 13.7851C21.6619 11.9683 22.5369 9.89643 23.0406 7.94616C23.8551 4.79261 23.4199 3.35598 22.9112 2.70616C21.5651 0.98616 19.6012 0.0621604 17.232 0.0338876C15.9681 0.0184331 14.8585 0.267979 14.2797 0.447433C13.7408 0.352342 13.1613 0.299251 12.5533 0.289433C11.4136 0.271251 10.4066 0.519706 9.54615 1.03034C9.06978 0.869251 8.30524 0.64216 7.42233 0.497251C5.34578 0.156342 3.67215 0.421979 2.44797 1.2868C0.965602 2.33389 0.27842 4.15316 0.405511 6.69407C0.445875 7.5008 0.897148 9.95534 1.60769 12.2832C2.01606 13.6212 2.45151 14.7323 2.90197 15.5859C3.54078 16.7963 4.22433 17.5092 4.99169 17.7652C5.42178 17.9084 6.20324 18.0088 7.02515 17.3243C7.12933 17.4504 7.26833 17.5758 7.45278 17.6923C7.68706 17.84 7.97351 17.9607 8.2596 18.0323C9.2906 18.29 10.2563 18.2255 11.0802 17.8643C11.0853 18.0108 11.0892 18.1508 11.0925 18.2717C11.098 18.4678 11.1034 18.6601 11.1106 18.8399C11.1594 20.0557 11.2421 21.0011 11.4872 21.6625C11.5007 21.6989 11.5188 21.7543 11.5379 21.8132C11.6601 22.1875 11.8646 22.8143 12.3848 23.3051C12.9234 23.8135 13.575 23.9694 14.1717 23.9694C14.471 23.9694 14.7565 23.9302 15.007 23.8765C15.8997 23.6852 16.9136 23.3937 17.6471 22.3493C18.3405 21.3621 18.6776 19.8751 18.7386 17.5321C18.7465 17.4658 18.7538 17.4025 18.7608 17.3423L18.7753 17.2184L18.9387 17.2328L18.9808 17.2356C19.8901 17.2771 21.0019 17.0843 21.6847 16.7671C22.2242 16.5167 23.9532 15.6039 23.5461 14.3715Z" fill="black"/>
<path d="M21.9914 14.6112C19.2878 15.1689 19.1019 14.2535 19.1019 14.2535C21.9564 10.0178 23.1498 4.64116 22.1201 3.32525C19.3106 -0.264294 14.4474 1.43334 14.3662 1.47734L14.3401 1.48207C13.806 1.37116 13.2082 1.30516 12.5363 1.29416C11.3131 1.27416 10.3851 1.61489 9.68087 2.14889C9.68087 2.14889 1.00542 -1.42511 1.40897 6.6438C1.49478 8.36034 3.86933 19.6323 6.70151 16.2276C7.73669 14.9826 8.73697 13.93 8.73697 13.93C9.23369 14.26 9.82842 14.4283 10.4519 14.3679L10.5003 14.3268C10.4852 14.4813 10.4921 14.6325 10.5197 14.8115C9.79006 15.6267 10.0045 15.7698 8.54597 16.0701C7.07006 16.3743 7.93706 16.9157 8.50315 17.0573C9.18942 17.2289 10.7771 17.472 11.8498 15.9703L11.8071 16.1416C12.0929 16.3706 12.2936 17.631 12.26 18.7736C12.2263 19.9162 12.2039 20.7006 12.4291 21.3133C12.6544 21.9261 12.8789 23.3047 14.7963 22.8939C16.3984 22.5505 17.2287 21.6608 17.3442 20.1766C17.4261 19.1215 17.6117 19.2775 17.6233 18.3342L17.7721 17.8876C17.9437 16.4573 17.7994 15.9959 18.7864 16.2105L19.0264 16.2316C19.7528 16.2646 20.7037 16.1147 21.2618 15.8553C22.4634 15.2977 23.1763 14.3665 21.9914 14.6112Z" fill="#336791"/>
<path d="M10.1887 7.41143C9.94506 7.37752 9.72442 7.40889 9.61278 7.49343C9.55006 7.54098 9.5306 7.59607 9.52533 7.63398C9.51133 7.73443 9.58169 7.84552 9.62496 7.9028C9.74733 8.06498 9.92606 8.17643 10.103 8.20098C10.1286 8.20461 10.1541 8.20625 10.1795 8.20625C10.4745 8.20625 10.7428 7.97652 10.7664 7.80698C10.796 7.59461 10.4877 7.45298 10.1887 7.41143ZM18.26 7.41816C18.2367 7.25171 17.9405 7.20425 17.6594 7.24334C17.3787 7.28243 17.1065 7.40916 17.1292 7.57598C17.1474 7.70571 17.3817 7.92716 17.659 7.92716C17.6824 7.92716 17.7061 7.92561 17.7299 7.92225C17.915 7.89661 18.0508 7.77907 18.1153 7.71134C18.2135 7.60807 18.2704 7.49298 18.26 7.41816Z" fill="white"/>
<path d="M22.8911 14.5478C22.788 14.2361 22.4561 14.1358 21.9049 14.2496C20.2681 14.5874 19.6819 14.3534 19.4894 14.2117C20.7617 12.2735 21.8083 9.93061 22.373 7.74471C22.6404 6.70925 22.7881 5.74762 22.8002 4.9638C22.8136 4.10352 22.6671 3.47134 22.3649 3.08516C21.1465 1.52834 19.3583 0.693251 17.1938 0.670342C15.7057 0.653615 14.4484 1.03443 14.2047 1.14152C13.6914 1.01389 13.1319 0.935524 12.5227 0.925524C11.4056 0.907433 10.44 1.17489 9.64051 1.72007C9.29324 1.5908 8.39578 1.28271 7.29824 1.10589C5.40078 0.800433 3.89297 1.03189 2.81697 1.79416C1.53306 2.7038 0.940329 4.3298 1.05515 6.62689C1.09378 7.39971 1.53415 9.77716 2.22906 12.054C3.14378 15.0507 4.13815 16.7472 5.18433 17.0962C5.30678 17.137 5.44797 17.1655 5.60369 17.1655C5.98533 17.1655 6.45324 16.9935 6.94006 16.4083C7.53383 15.6959 8.14806 15.0009 8.78196 14.3241C9.19324 14.5448 9.64506 14.6681 10.1071 14.6804C10.1081 14.6925 10.1092 14.7046 10.1103 14.7166C10.0308 14.8115 9.95289 14.9077 9.87669 15.0053C9.55651 15.4117 9.48987 15.4963 8.45924 15.7085C8.16606 15.7691 7.38742 15.9295 7.37597 16.4753C7.3636 17.0717 8.29642 17.3222 8.40269 17.3487C8.77306 17.4414 9.12987 17.4872 9.47015 17.4872C10.2977 17.4872 11.026 17.2152 11.608 16.6889C11.5901 18.8149 11.6787 20.9098 11.934 21.5481C12.1431 22.0706 12.6538 23.3476 14.2671 23.3475C14.5038 23.3475 14.7643 23.32 15.051 23.2585C16.7347 22.8976 17.4659 22.1534 17.7487 20.5128C17.9001 19.636 18.1598 17.5423 18.282 16.4192C18.5398 16.4996 18.8717 16.5364 19.2305 16.5363C19.9789 16.5363 20.8424 16.3773 21.384 16.126C21.9923 15.8434 23.0901 15.1502 22.8911 14.5478ZM18.8814 6.95871C18.8759 7.29025 18.8302 7.59125 18.7819 7.90543C18.7298 8.24334 18.676 8.59271 18.6624 9.0168C18.6491 9.42952 18.7006 9.85862 18.7504 10.2736C18.8511 11.1118 18.9545 11.9747 18.5544 12.8262C18.488 12.7084 18.4288 12.5867 18.3771 12.4617C18.3274 12.3412 18.2194 12.1475 18.0699 11.8795C17.4881 10.8363 16.1259 8.39316 16.8232 7.39625C17.031 7.09952 17.5581 6.79443 18.8814 6.95871ZM17.2774 1.34171C19.2169 1.38452 20.7511 2.11007 21.8372 3.49807C22.6703 4.56271 21.753 9.40698 19.0972 13.5862C19.0705 13.5522 19.0437 13.5184 19.0167 13.4846L18.9831 13.4426C19.6693 12.3093 19.5351 11.1879 19.4157 10.1937C19.3666 9.78571 19.3202 9.40034 19.3321 9.03834C19.3442 8.65471 19.395 8.32561 19.4441 8.00743C19.5043 7.61534 19.5657 7.20961 19.5488 6.73134C19.5614 6.68116 19.5665 6.62189 19.5599 6.55152C19.5167 6.09289 18.9931 4.72025 17.9258 3.47789C17.342 2.79834 16.4906 2.03789 15.3281 1.52498C15.8281 1.42134 16.5119 1.32471 17.2774 1.34171ZM6.42487 15.9799C5.88851 16.6248 5.51815 16.5012 5.39633 16.4606C4.60269 16.1959 3.68178 14.5184 2.86987 11.8584C2.16733 9.5568 1.75678 7.24234 1.72424 6.59334C1.62169 4.5408 2.11924 3.11034 3.20315 2.34162C4.96715 1.09071 7.86733 1.83943 9.03269 2.21916C9.01596 2.23571 8.99851 2.25116 8.98196 2.26798C7.0696 4.19925 7.11496 7.49889 7.11969 7.70061C7.11951 7.77843 7.12606 7.88862 7.13496 8.04016C7.16787 8.59516 7.22915 9.62807 7.06551 10.7978C6.91351 11.8848 7.2486 12.9487 7.98469 13.7168C8.06024 13.7955 8.13964 13.8704 8.2226 13.9412C7.89496 14.2921 7.18287 15.0681 6.42487 15.9799ZM8.46842 13.2533C7.87515 12.6342 7.60569 11.7731 7.72905 10.8905C7.90178 9.65489 7.83806 8.57871 7.80378 8.00052C7.79897 7.91961 7.79469 7.84871 7.79224 7.7928C8.0716 7.54507 9.36624 6.85143 10.2895 7.06298C10.7108 7.15943 10.9675 7.44634 11.0742 7.9398C11.6266 10.4946 11.1473 11.5594 10.7622 12.4152C10.6829 12.5914 10.6079 12.7581 10.5439 12.9304L10.4942 13.0637C10.3686 13.4006 10.2517 13.7139 10.1792 14.0113C9.54851 14.0095 8.93496 13.7402 8.46842 13.2533ZM8.56524 16.6987C8.38106 16.6527 8.21542 16.5728 8.11824 16.5065C8.19942 16.4683 8.34387 16.4163 8.59442 16.3647C9.80687 16.1152 9.99415 15.939 10.4031 15.4198C10.4968 15.3007 10.6031 15.1658 10.7502 15.0014C10.9694 14.756 11.0699 14.7974 11.2517 14.8729C11.3991 14.9338 11.5426 15.1185 11.6008 15.3218C11.6283 15.4178 11.6592 15.6 11.5581 15.7418C10.7039 16.9378 9.45915 16.9224 8.56524 16.6987ZM14.9106 22.6034C13.4273 22.9213 12.9021 22.1644 12.5561 21.2993C12.3327 20.7407 12.2229 18.222 12.3008 15.4404C12.3018 15.4034 12.2965 15.3677 12.2863 15.3341C12.2772 15.2676 12.2634 15.202 12.2449 15.1375C12.1291 14.7328 11.8468 14.3943 11.5081 14.2539C11.3736 14.1982 11.1267 14.0959 10.83 14.1718C10.8932 13.9111 11.003 13.6166 11.122 13.2978L11.1719 13.1637C11.2281 13.0125 11.2986 12.8559 11.3731 12.6901C11.7761 11.7948 12.3281 10.5685 11.7291 7.79825C11.5047 6.76061 10.7554 6.25389 9.6196 6.37161C8.93869 6.44207 8.31569 6.7168 8.00496 6.87434C7.93815 6.90816 7.87706 6.94089 7.81996 6.97271C7.90669 5.92725 8.23433 3.97343 9.45996 2.73725C10.2317 1.95907 11.2594 1.57471 12.5116 1.59543C14.9789 1.6358 16.5611 2.90198 17.454 3.95716C18.2234 4.86634 18.6401 5.78225 18.8063 6.27625C17.5559 6.14907 16.7054 6.39589 16.2743 7.01225C15.3364 8.35298 16.7874 10.9552 17.4848 12.2058C17.6127 12.435 17.7231 12.6331 17.7578 12.7173C17.9849 13.2676 18.2789 13.6351 18.4935 13.9033C18.5593 13.9854 18.6231 14.0652 18.6717 14.1348C18.293 14.244 17.6127 14.4963 17.6747 15.7573C17.6247 16.39 17.2691 19.3523 17.0885 20.399C16.8501 21.7817 16.3412 22.2966 14.9106 22.6034ZM21.1019 15.5183C20.7146 15.6981 20.0665 15.8329 19.4509 15.8619C18.7709 15.8937 18.4247 15.7857 18.3432 15.7193C18.3051 14.9334 18.5975 14.8513 18.9071 14.7644C18.9557 14.7508 19.0031 14.7374 19.049 14.7214C19.0774 14.7446 19.1086 14.7676 19.1428 14.7902C19.6893 15.1509 20.6641 15.1898 22.0404 14.9057L22.0555 14.9027C21.8699 15.0763 21.5522 15.3092 21.1019 15.5183Z" fill="white"/>
</g>
<defs>
<clipPath id="clip0_1535_2699">
<rect width="24" height="24" fill="white"/>
</clipPath>
</defs>
</svg>
