<svg width="40" height="40" viewBox="0 0 40 40" fill="none" xmlns="http://www.w3.org/2000/svg">
<g clip-path="url(#clip0_630_613)">
<g clip-path="url(#clip1_630_613)">
<path d="M39.2439 23.9524C39.0113 23.248 38.4021 22.7574 37.6142 22.6397C37.2427 22.5843 36.8172 22.6079 36.3138 22.7117C35.4362 22.8927 34.7851 22.9617 34.31 22.975C36.1035 19.947 37.5618 16.494 38.4013 13.2435C39.7589 7.98759 39.0335 5.5932 38.1857 4.51017C35.9422 1.6435 32.6691 0.103499 28.7203 0.0563777C26.6138 0.0306201 24.7645 0.446529 23.7998 0.74562C22.9016 0.587135 21.9359 0.49865 20.9225 0.482287C19.023 0.451984 17.3447 0.866075 15.9106 1.71714C15.1166 1.44865 13.8424 1.07017 12.3709 0.82865C8.90997 0.260469 6.12057 0.703196 4.08027 2.14456C1.60966 3.88971 0.464359 6.92183 0.676178 11.1567C0.74345 12.5012 1.49557 16.5921 2.67981 20.4718C3.36042 22.7018 4.08618 24.5537 4.83694 25.9764C5.90163 27.9938 7.04087 29.1818 8.31981 29.6085C9.03663 29.8473 10.3391 30.0146 11.7089 28.8737C11.8825 29.084 12.1142 29.2929 12.4216 29.487C12.8121 29.7332 13.2895 29.9344 13.7663 30.0537C15.4847 30.4832 17.0942 30.3758 18.4674 29.7737C18.4759 30.0179 18.4824 30.2512 18.4878 30.4527C18.4969 30.7796 18.506 31.1 18.518 31.3997C18.5994 33.4261 18.7372 35.0017 19.1457 36.1041C19.1681 36.1647 19.1983 36.2571 19.2301 36.3552C19.4339 36.9791 19.7747 38.0237 20.6416 38.8417C21.5394 39.6891 22.6253 39.949 23.6198 39.949C24.1186 39.949 24.5945 39.8835 25.0119 39.7941C26.4998 39.4752 28.1897 38.9894 29.4121 37.2488C30.5678 35.6033 31.1297 33.125 31.2313 29.22C31.2445 29.1096 31.2566 29.0041 31.2683 28.9037L31.2925 28.6973L31.5648 28.7212L31.635 28.7259C33.1504 28.795 35.0035 28.4737 36.1415 27.945C37.0407 27.5277 39.9224 26.0064 39.2439 23.9524" fill="black"/>
<path d="M36.652 24.3518C32.146 25.2814 31.8361 23.7558 31.8361 23.7558C36.5937 16.6962 38.5827 7.73516 36.8664 5.54198C32.184 -0.440599 24.0787 2.3888 23.9434 2.46213L23.8999 2.47001C23.0096 2.28516 22.0134 2.17516 20.8936 2.15683C18.8548 2.12349 17.3081 2.69137 16.1345 3.58137C16.1345 3.58137 1.67538 -2.3753 2.34795 11.0729C2.49098 13.9338 6.44856 32.7203 11.1689 27.0459C12.8942 24.9709 14.5613 23.2165 14.5613 23.2165C15.3892 23.7665 16.3804 24.0471 17.4195 23.9464L17.5002 23.8779C17.4751 24.1355 17.4866 24.3874 17.5325 24.6858C16.3164 26.0444 16.6739 26.2829 14.243 26.7833C11.7831 27.2903 13.2281 28.1927 14.1716 28.4288C15.3154 28.7147 17.9614 29.1199 19.7493 26.617L19.6781 26.9026C20.1545 27.2843 20.489 29.3849 20.433 31.2893C20.3769 33.1935 20.3395 34.5009 20.7148 35.5221C21.0904 36.5433 21.4645 38.8411 24.6602 38.1564C27.3304 37.5841 28.7142 36.1012 28.9067 33.6276C29.0433 31.8691 29.3525 32.1291 29.3719 30.5568L29.6199 29.8126C29.9058 27.4288 29.6654 26.6597 31.3104 27.0174L31.7104 27.0526C32.921 27.1076 34.5058 26.8577 35.436 26.4255C37.4387 25.4961 38.6266 23.9441 36.6517 24.3518H36.652Z" fill="#336791"/>
<path d="M16.9817 12.3523C16.5756 12.2957 16.2079 12.348 16.0218 12.4889C15.9173 12.5682 15.8849 12.66 15.8761 12.7232C15.8527 12.8906 15.97 13.0757 16.0421 13.1712C16.2461 13.4415 16.5439 13.6273 16.8388 13.6682C16.8815 13.6742 16.9241 13.677 16.9664 13.677C17.458 13.677 17.9052 13.2941 17.9446 13.0115C17.9938 12.6576 17.48 12.4217 16.9817 12.3524M30.4338 12.3635C30.395 12.0861 29.9014 12.007 29.4329 12.0721C28.965 12.1373 28.5114 12.3485 28.5492 12.6265C28.5796 12.8427 28.97 13.2118 29.4321 13.2118C29.4712 13.2118 29.5106 13.2092 29.5503 13.2036C29.8588 13.1609 30.0852 12.965 30.1927 12.8521C30.3564 12.68 30.4512 12.4882 30.4338 12.3635" fill="white"/>
<path d="M38.1518 24.2462C37.98 23.7267 37.427 23.5596 36.5082 23.7493C33.7802 24.3123 32.8032 23.9223 32.4824 23.6861C34.6029 20.4558 36.3473 16.5509 37.2883 12.9077C37.7341 11.182 37.9803 9.57925 38.0005 8.27289C38.0227 6.8391 37.7785 5.78547 37.2749 5.14183C35.2443 2.54713 32.264 1.15531 28.6564 1.11713C26.1762 1.08925 24.0808 1.72395 23.6746 1.90243C22.8191 1.68971 21.8865 1.5591 20.8712 1.54244C19.0094 1.51228 17.4 1.95804 16.0676 2.86668C15.4888 2.65122 13.993 2.13774 12.1638 1.84304C9.00138 1.33395 6.48835 1.71971 4.69502 2.99016C2.55517 4.50622 1.56729 7.21622 1.75866 11.0447C1.82305 12.3327 2.55699 16.2952 3.71517 20.0899C5.23972 25.0844 6.89699 27.9118 8.64063 28.4935C8.84472 28.5615 9.08002 28.6091 9.33957 28.6091C9.97563 28.6091 10.7555 28.3224 11.5668 27.347C12.5565 26.1598 13.5802 25.0014 14.6367 23.8733C15.3221 24.2412 16.0752 24.4467 16.8453 24.4673C16.8468 24.4874 16.8488 24.5076 16.8506 24.5276C16.7181 24.6857 16.5882 24.8461 16.4612 25.0086C15.9276 25.6861 15.8165 25.8271 14.0988 26.1808C13.6102 26.2817 12.3124 26.5491 12.2934 27.4588C12.2727 28.4527 13.8274 28.8702 14.0046 28.9144C14.6218 29.069 15.2165 29.1452 15.7837 29.1452C17.1629 29.1452 18.3767 28.6918 19.3467 27.8147C19.3168 31.358 19.4646 34.8496 19.89 35.9133C20.2385 36.7843 21.0897 38.9126 23.7785 38.9124C24.173 38.9124 24.6073 38.8665 25.085 38.7641C27.8912 38.1626 29.1099 36.9223 29.5812 34.1879C29.8335 32.7265 30.2664 29.237 30.47 27.3652C30.8997 27.4993 31.4529 27.5606 32.0509 27.5605C33.2982 27.5605 34.7374 27.2955 35.64 26.8765C36.654 26.4056 38.4837 25.2502 38.1518 24.2462ZM31.4691 11.5977C31.4599 12.1503 31.3838 12.652 31.3032 13.1756C31.2164 13.7388 31.1267 14.3211 31.1041 15.0279C31.0818 15.7158 31.1677 16.4309 31.2508 17.1226C31.4187 18.5196 31.5909 19.9577 30.9241 21.3768C30.8133 21.1806 30.7147 20.9777 30.6287 20.7694C30.5458 20.5685 30.3658 20.2458 30.1165 19.7991C29.147 18.0603 26.8765 13.9885 28.0388 12.327C28.385 11.8324 29.2637 11.3239 31.4691 11.5977ZM28.7958 2.23607C32.0282 2.30743 34.5852 3.51668 36.3955 5.83001C37.784 7.6044 36.255 15.6782 31.8288 22.6435C31.7843 22.5869 31.7395 22.5305 31.6946 22.4743L31.6385 22.4043C32.7823 20.5153 32.5587 18.6464 32.3596 16.9894C32.2777 16.3094 32.2005 15.6671 32.2202 15.0638C32.2405 14.4244 32.325 13.8759 32.4068 13.3456C32.5073 12.6921 32.6096 12.0159 32.5814 11.2188C32.6024 11.1352 32.6109 11.0364 32.5999 10.9191C32.5279 10.1547 31.6552 7.86698 29.8764 5.79637C28.9034 4.6638 27.4844 3.39637 25.547 2.54153C26.3803 2.3688 27.5199 2.20774 28.7958 2.23607ZM10.7082 26.633C9.81426 27.7079 9.19699 27.5018 8.99396 27.4343C7.67123 26.993 6.13638 24.1973 4.7832 19.764C3.61229 15.9279 2.92805 12.0705 2.87381 10.9888C2.7029 7.56789 3.53214 5.1838 5.33866 3.90259C8.27866 1.81774 13.1123 3.06562 15.0546 3.6985C15.0267 3.72607 14.9976 3.75183 14.97 3.77986C11.7827 6.99865 11.8584 12.498 11.8662 12.8343C11.8659 12.964 11.8768 13.1476 11.8917 13.4002C11.9465 14.3252 12.0487 16.0467 11.7759 17.9962C11.5226 19.8079 12.0811 21.5811 13.3079 22.8612C13.4338 22.9924 13.5661 23.1172 13.7044 23.2352C13.1584 23.82 11.9715 25.1133 10.7082 26.633ZM14.1141 22.0886C13.1253 21.0568 12.6762 19.6217 12.8818 18.1508C13.1697 16.0914 13.0635 14.2977 13.0064 13.3341C12.9984 13.1993 12.9912 13.0811 12.9871 12.9879C13.4527 12.575 15.6105 11.4189 17.1493 11.7715C17.8514 11.9323 18.2793 12.4105 18.4571 13.2329C19.3777 17.4909 18.579 19.2656 17.9371 20.6918C17.8049 20.9856 17.6799 21.2633 17.5732 21.5506L17.4905 21.7727C17.2811 22.3343 17.0862 22.8564 16.9655 23.3521C15.9143 23.3491 14.8917 22.9002 14.1141 22.0886ZM14.2755 27.8311C13.9685 27.7544 13.6924 27.6212 13.5305 27.5108C13.6658 27.4471 13.9065 27.3605 14.3241 27.2744C16.3449 26.8585 16.657 26.5649 17.3385 25.6996C17.4947 25.5011 17.6718 25.2762 17.9171 25.0023C18.2824 24.5932 18.4499 24.6623 18.7529 24.788C18.9985 24.8896 19.2377 25.1974 19.3347 25.5362C19.3806 25.6962 19.4321 25.9999 19.2635 26.2362C17.8399 28.2296 15.7653 28.204 14.2755 27.8311ZM24.8511 37.6723C22.379 38.202 21.5037 36.9406 20.9268 35.4986C20.5546 34.5677 20.3715 30.3699 20.5014 25.7339C20.503 25.6723 20.4943 25.6127 20.4773 25.5567C20.4621 25.446 20.439 25.3365 20.4082 25.2291C20.2152 24.5546 19.7447 23.9903 19.1803 23.7564C18.9561 23.6635 18.5446 23.493 18.05 23.6196C18.1555 23.185 18.3384 22.6943 18.5367 22.1629L18.6199 21.9394C18.7135 21.6874 18.8311 21.4264 18.9553 21.15C19.627 19.6579 20.5468 17.6141 19.5485 12.997C19.1746 11.2676 17.9258 10.423 16.0327 10.6193C14.8979 10.7367 13.8596 11.1946 13.3417 11.4571C13.2303 11.5135 13.1285 11.568 13.0334 11.6211C13.1779 9.87865 13.724 6.62228 15.7667 4.56198C17.0529 3.26501 18.7658 2.6244 20.8527 2.65895C24.9649 2.72622 27.6018 4.83653 29.09 6.59516C30.3724 8.11047 31.0668 9.63698 31.344 10.4603C29.2599 10.2483 27.8424 10.6597 27.124 11.687C25.5608 13.9215 27.9791 18.2585 29.1414 20.3429C29.3546 20.7249 29.5385 21.055 29.5964 21.1953C29.9749 22.1126 30.4649 22.725 30.8226 23.172C30.9323 23.3089 31.0387 23.4418 31.1196 23.5579C30.4884 23.7399 29.3546 24.1603 29.4579 26.262C29.3746 27.3165 28.782 32.2538 28.4809 33.9982C28.0835 36.3027 27.2355 37.1609 24.8511 37.6723ZM35.1699 25.8638C34.5244 26.1633 33.4443 26.388 32.4182 26.4364C31.2849 26.4894 30.7079 26.3094 30.5721 26.1986C30.5085 24.8889 30.9959 24.7521 31.5118 24.6073C31.5929 24.5846 31.672 24.5623 31.7484 24.5356C31.7958 24.5743 31.8477 24.6126 31.9047 24.6502C32.8156 25.2514 34.4403 25.3162 36.7341 24.8427L36.7593 24.8377C36.4499 25.127 35.9205 25.5152 35.1699 25.8638Z" fill="white"/>
</g>
</g>
<defs>
<clipPath id="clip0_630_613">
<rect width="40" height="40" fill="white"/>
</clipPath>
<clipPath id="clip1_630_613">
<rect width="40" height="40" fill="white"/>
</clipPath>
</defs>
</svg>
