<svg width="24" height="24" viewBox="0 0 24 24" fill="none" xmlns="http://www.w3.org/2000/svg">
<path d="M17.8858 11.9891L24 18.6842C23.3281 19.376 22.3874 19.8002 21.3569 19.8002C20.2596 19.8002 19.2966 19.3315 18.6247 18.595L15.2429 14.8905L12.6 11.9891L15.2429 9.11008L18.6247 5.40541C19.2966 4.66911 20.2596 4.2002 21.3569 4.2002C22.3874 4.2002 23.3281 4.62425 24 5.2938L17.8858 11.9891Z" fill="#E57000"/>
<path d="M6.11422 11.9891L0 18.6842C0.671925 19.376 1.61256 19.8002 2.64306 19.8002C3.74038 19.8002 4.70335 19.3315 5.37529 18.595L8.75711 14.8905L11.4 11.9891L8.75711 9.11008L5.37529 5.40541C4.70335 4.6691 3.74038 4.2002 2.64306 4.2002C1.61256 4.2002 0.671925 4.62425 0 5.2938L6.11422 11.9891Z" fill="#E57000"/>
<path d="M14.3541 15.2053L12.0001 12.5998L9.646 15.2053L4.19995 21.2178C4.79839 21.819 5.63644 22.1998 6.55376 22.1998C7.53133 22.1998 8.34939 21.7989 8.96767 21.1176L12.0001 17.7907L15.0122 21.1176C15.6107 21.7787 16.4684 22.1998 17.4458 22.1998C18.3636 22.1998 19.2015 21.819 19.8 21.2178L14.3541 15.2053Z" fill="black"/>
<path d="M14.3541 8.79432L12.0001 11.3998L9.646 8.79432L4.19995 2.78182C4.7984 2.18058 5.63644 1.7998 6.55377 1.7998C7.53134 1.7998 8.34939 2.20073 8.96767 2.88205L12.0001 6.2089L15.0122 2.88205C15.6107 2.22088 16.4684 1.7998 17.4458 1.7998C18.3636 1.7998 19.2015 2.18058 19.8 2.78182L14.3541 8.79432Z" fill="black"/>
</svg>
