<svg width="24" height="24" viewBox="0 0 24 24" fill="none" xmlns="http://www.w3.org/2000/svg">
<path d="M17.8858 11.9881L24 18.6832C23.3281 19.375 22.3874 19.7992 21.3569 19.7992C20.2596 19.7992 19.2966 19.3305 18.6247 18.594L15.2429 14.8895L12.6 11.9881L15.2429 9.1091L18.6247 5.40444C19.2966 4.66814 20.2596 4.19922 21.3569 4.19922C22.3874 4.19922 23.3281 4.62327 24 5.29282L17.8858 11.9881Z" fill="#E57000"/>
<path d="M6.11422 11.9881L0 18.6832C0.671925 19.375 1.61256 19.7992 2.64306 19.7992C3.74038 19.7992 4.70335 19.3305 5.37529 18.594L8.75711 14.8895L11.4 11.9881L8.75711 9.1091L5.37529 5.40443C4.70335 4.66813 3.74038 4.19922 2.64306 4.19922C1.61256 4.19922 0.671925 4.62327 0 5.29282L6.11422 11.9881Z" fill="#E57000"/>
<path d="M14.3543 15.2053L12.0003 12.5998L9.64625 15.2053L4.2002 21.2178C4.79863 21.819 5.63668 22.1998 6.554 22.1998C7.53158 22.1998 8.34964 21.7989 8.96792 21.1176L12.0003 17.7907L15.0124 21.1176C15.611 21.7787 16.4686 22.1998 17.4461 22.1998C18.3639 22.1998 19.2018 21.819 19.8002 21.2178L14.3543 15.2053Z" fill="white"/>
<path d="M14.3543 8.79432L12.0003 11.3998L9.64625 8.79432L4.2002 2.78182C4.79864 2.18058 5.63669 1.7998 6.55401 1.7998C7.53159 1.7998 8.34964 2.20073 8.96792 2.88205L12.0003 6.2089L15.0124 2.88205C15.611 2.22088 16.4686 1.7998 17.4461 1.7998C18.3639 1.7998 19.2018 2.18058 19.8002 2.78182L14.3543 8.79432Z" fill="white"/>
</svg>
