<svg width="24" height="24" viewBox="0 0 24 24" fill="none" xmlns="http://www.w3.org/2000/svg">
<path d="M12.211 1.19989C11.3421 1.20404 10.5123 1.28025 9.78216 1.41312C7.63132 1.80392 7.24081 2.62188 7.24081 4.13035V6.12258H12.3235V6.78666H7.24081H5.33331C3.85614 6.78666 2.56268 7.69979 2.1581 9.43688C1.69143 11.428 1.67073 12.6705 2.1581 14.7495C2.5194 16.297 3.38223 17.3997 4.8594 17.3997H6.60695V15.0115C6.60695 13.2861 8.05848 11.7642 9.78216 11.7642H14.8589C16.2721 11.7642 17.4003 10.5675 17.4003 9.10789V4.13035C17.4003 2.71372 16.2383 1.64955 14.8589 1.41312C13.9858 1.26364 13.0799 1.19573 12.211 1.19989ZM9.46227 2.8022C9.98728 2.8022 10.416 3.25034 10.416 3.80136C10.416 4.35043 9.98728 4.79443 9.46227 4.79443C8.93538 4.79443 8.50852 4.35043 8.50852 3.80136C8.50852 3.25034 8.93538 2.8022 9.46227 2.8022Z" fill="url(#paint0_linear_1535_3333)"/>
<path d="M17.9716 6.59961V8.90317C17.9716 10.6891 16.4911 12.1922 14.8029 12.1922H9.73638C8.34859 12.1922 7.2002 13.407 7.2002 14.8283V19.768C7.2002 21.1738 8.39554 22.0008 9.73638 22.4041C11.342 22.8869 12.8817 22.9742 14.8029 22.4041C16.0798 22.026 17.339 21.265 17.339 19.768V17.7909H12.2726V17.1319H17.339H19.8752C21.3494 17.1319 21.8987 16.0803 22.4114 14.5018C22.941 12.8769 22.9185 11.3142 22.4114 9.22966C22.0471 7.72879 21.3513 6.59961 19.8752 6.59961H17.9716ZM15.1221 19.109C15.6479 19.109 16.0739 19.5496 16.0739 20.0945C16.0739 20.6413 15.6479 21.086 15.1221 21.086C14.5981 21.086 14.1703 20.6413 14.1703 20.0945C14.1703 19.5496 14.5981 19.109 15.1221 19.109Z" fill="url(#paint1_linear_1535_3333)"/>
<defs>
<linearGradient id="paint0_linear_1535_3333" x1="1.80029" y1="1.19971" x2="13.7958" y2="11.1388" gradientUnits="userSpaceOnUse">
<stop stop-color="#5A9FD4"/>
<stop offset="1" stop-color="#306998"/>
</linearGradient>
<linearGradient id="paint1_linear_1535_3333" x1="15.0002" y1="19.9283" x2="10.6783" y2="14.0064" gradientUnits="userSpaceOnUse">
<stop stop-color="#FFD43B"/>
<stop offset="1" stop-color="#FFE873"/>
</linearGradient>
</defs>
</svg>
