<svg width="24" height="24" viewBox="0 0 24 24" fill="none" xmlns="http://www.w3.org/2000/svg">
<path d="M17.9826 7.40486L16.4497 8.93778C19.0045 11.4926 19.0045 15.6534 16.4497 18.2083C13.8948 20.7631 9.73404 20.7631 7.17918 18.2083C4.62432 15.6534 4.62432 11.4926 7.17918 8.93778L11.267 4.85L11.7779 4.26603V1.2002L5.57327 7.40486C4.75799 8.21192 4.1108 9.17259 3.66911 10.2313C3.22742 11.2901 3 12.4259 3 13.573C3 14.7202 3.22742 15.856 3.66911 16.9147C4.1108 17.9735 4.75799 18.9341 5.57327 19.7412C6.38032 20.5565 7.34099 21.2037 8.39973 21.6454C9.45847 22.087 10.5943 22.3145 11.7414 22.3145C12.8886 22.3145 14.0244 22.087 15.0831 21.6454C16.1419 21.2037 17.1025 20.5565 17.9096 19.7412C21.4134 16.3104 21.4134 10.7627 17.9826 7.40486Z" fill="#EE4C2C"/>
<path d="M14.9165 6.96673C15.5615 6.96673 16.0844 6.44383 16.0844 5.7988C16.0844 5.15376 15.5615 4.63086 14.9165 4.63086C14.2714 4.63086 13.7485 5.15376 13.7485 5.7988C13.7485 6.44383 14.2714 6.96673 14.9165 6.96673Z" fill="#EE4C2C"/>
</svg>
