<svg width="24" height="24" viewBox="0 0 24 24" fill="none" xmlns="http://www.w3.org/2000/svg">
<g clip-path="url(#clip0_3277_75)">
<path d="M23.139 14.2325L20.5994 9.57234L22.2279 6.8343C22.3581 6.60574 22.3581 6.3232 22.2279 6.09464L20.5994 3.3566C20.5169 3.20899 20.3597 3.11693 20.1867 3.11693H14.171L12.7837 0.688408C12.7012 0.540792 12.544 0.44873 12.371 0.44873H9.1584C8.98538 0.44873 8.82824 0.540792 8.74571 0.688408L5.66006 6.04384H2.44743C2.27442 6.04384 2.11728 6.1359 2.03475 6.28352L0.406211 9.02155C0.276055 9.25012 0.276055 9.53266 0.406211 9.76122L3.1617 14.731L1.77443 17.1595C1.64428 17.388 1.64428 17.6706 1.77443 17.8991L3.40297 20.6372C3.48551 20.7848 3.64265 20.8768 3.81566 20.8768H9.8314L11.2187 23.3054C11.3012 23.453 11.4583 23.545 11.6314 23.545H14.844C15.017 23.545 15.1741 23.453 15.2567 23.3054L18.3423 17.9499H21.0978C21.2708 17.9499 21.428 17.8579 21.5105 17.7103L23.139 14.9722C23.2692 14.7436 23.2692 14.4611 23.139 14.2325Z" fill="url(#paint0_radial_3277_75)"/>
<path d="M14.8439 23.5451L11.5132 23.4063L9.83132 20.6372H3.81558L5.65998 17.7294H8.74563L2.03467 6.4439H5.65998L9.15832 0.688477L10.7869 3.59635L9.15832 6.4439H21.5834L19.9549 9.18194L23.0405 14.5374H19.9549L18.3422 11.6898L12.0977 23.4307L14.8439 23.5451Z" fill="white"/>
<path d="M16.2318 10.3389H8.02246L11.997 17.0498L16.2318 10.3389Z" fill="url(#paint1_radial_3277_75)"/>
</g>
<defs>
<radialGradient id="paint0_radial_3277_75" cx="0" cy="0" r="1" gradientUnits="userSpaceOnUse" gradientTransform="translate(11.8091 13.5405) rotate(90) scale(15.8727 15.8727)">
<stop stop-color="#665CEE"/>
<stop offset="1" stop-color="#332E91"/>
</radialGradient>
<radialGradient id="paint1_radial_3277_75" cx="0" cy="0" r="1" gradientUnits="userSpaceOnUse" gradientTransform="translate(11.8097 13.5404) rotate(90) scale(15.8727)">
<stop stop-color="#665CEE"/>
<stop offset="1" stop-color="#332E91"/>
</radialGradient>
<clipPath id="clip0_3277_75">
<rect width="24" height="24" fill="white"/>
</clipPath>
</defs>
</svg>
