<svg width="24" height="24" viewBox="0 0 24 24" fill="none" xmlns="http://www.w3.org/2000/svg">
<path d="M11.9999 14.1385C13.1814 14.1385 14.1391 13.1807 14.1391 11.9993C14.1391 10.8179 13.1814 9.86019 11.9999 9.86019C10.8185 9.86019 9.86082 10.8179 9.86082 11.9993C9.86082 13.1807 10.8185 14.1385 11.9999 14.1385Z" fill="#61DAFB"/>
<path fill-rule="evenodd" clip-rule="evenodd" d="M1.77336 10.6813C1.25703 11.1474 1.04348 11.5939 1.04348 11.9999C1.04348 12.406 1.25703 12.8525 1.77336 13.3186C2.28964 13.7846 3.066 14.2282 4.06975 14.6115C6.07366 15.3766 8.87728 15.8608 12 15.8608C15.1227 15.8608 17.9263 15.3766 19.9303 14.6115C20.934 14.2282 21.7104 13.7846 22.2266 13.3186C22.743 12.8525 22.9565 12.406 22.9565 11.9999C22.9565 11.5939 22.743 11.1474 22.2266 10.6813C21.7104 10.2153 20.934 9.77163 19.9303 9.38838C17.9263 8.62325 15.1227 8.13906 12 8.13906C8.87728 8.13906 6.07366 8.62325 4.06975 9.38838C3.066 9.77163 2.28964 10.2153 1.77336 10.6813ZM3.69754 8.41354C5.84794 7.59248 8.78345 7.09559 12 7.09559C15.2166 7.09559 18.1521 7.59248 20.3025 8.41354C21.3759 8.82339 22.2805 9.32414 22.9258 9.90674C23.5712 10.4893 24 11.1958 24 11.9999C24 12.8041 23.5712 13.5106 22.9258 14.0931C22.2805 14.6757 21.3759 15.1765 20.3025 15.5863C18.1521 16.4074 15.2166 16.9043 12 16.9043C8.78345 16.9043 5.84794 16.4074 3.69754 15.5863C2.62413 15.1765 1.71954 14.6757 1.07415 14.0931C0.428819 13.5106 0 12.8041 0 11.9999C0 11.1958 0.428819 10.4893 1.07415 9.90674C1.71954 9.32414 2.62413 8.82339 3.69754 8.41354Z" fill="#61DAFB"/>
<path fill-rule="evenodd" clip-rule="evenodd" d="M8.02864 2.48401C7.36682 2.2699 6.87338 2.3082 6.52173 2.51122C6.17008 2.71425 5.8902 3.12243 5.74471 3.80263C5.59924 4.48277 5.60322 5.37693 5.7732 6.43783C6.11253 8.55583 7.09502 11.2259 8.65638 13.9303C10.2177 16.6346 12.0389 18.8205 13.7034 20.1734C14.5372 20.8511 15.3096 21.3016 15.9713 21.5157C16.6332 21.7298 17.1266 21.6915 17.4783 21.4885C17.8299 21.2854 18.1098 20.8773 18.2553 20.1971C18.4007 19.5169 18.3968 18.6228 18.2268 17.5619C17.8875 15.4439 16.905 12.7738 15.3436 10.0694C13.7822 7.36506 11.9611 5.17915 10.2965 3.82627C9.46276 3.14862 8.69039 2.69809 8.02864 2.48401ZM10.9547 3.01651C12.7409 4.46828 14.639 6.76206 16.2473 9.54767C17.8556 12.3333 18.893 15.124 19.2571 17.3968C19.4389 18.5313 19.4575 19.5651 19.2757 20.4153C19.0938 21.2655 18.6964 21.9901 18 22.3922C17.3036 22.7942 16.4773 22.7761 15.6502 22.5085C14.8229 22.2409 13.937 21.7079 13.0453 20.9832C11.2591 19.5314 9.36098 17.2376 7.7527 14.452C6.14443 11.6664 5.107 8.87573 4.74286 6.6029C4.56109 5.46838 4.54246 4.4346 4.72431 3.58438C4.90615 2.73423 5.30356 2.00963 5.99999 1.60754C6.69643 1.20545 7.52265 1.22359 8.34982 1.49119C9.17707 1.75881 10.063 2.29184 10.9547 3.01651Z" fill="#61DAFB"/>
<path fill-rule="evenodd" clip-rule="evenodd" d="M18.2553 3.80284C18.1098 3.12263 17.8299 2.71445 17.4783 2.51142C17.1266 2.3084 16.6332 2.27011 15.9713 2.48421C15.3096 2.69829 14.5372 3.14883 13.7034 3.82648C12.0389 5.17935 10.2177 7.36526 8.65638 10.0696C7.09502 12.774 6.11253 15.4441 5.7732 17.5621C5.60322 18.623 5.59924 19.5171 5.74471 20.1973C5.8902 20.8775 6.17008 21.2857 6.52173 21.4887C6.87338 21.6917 7.36682 21.73 8.02864 21.5159C8.69039 21.3018 9.46276 20.8513 10.2965 20.1736C11.9611 18.8208 13.7822 16.6348 15.3436 13.9305C16.905 11.2261 17.8875 8.55604 18.2268 6.43803C18.3968 5.37713 18.4007 4.48297 18.2553 3.80284ZM19.2571 6.6031C18.893 8.87593 17.8556 11.6666 16.2473 14.4522C14.639 17.2378 12.7409 19.5316 10.9547 20.9834C10.063 21.7081 9.17707 22.2411 8.34982 22.5087C7.52265 22.7763 6.69643 22.7944 5.99999 22.3924C5.30356 21.9903 4.90615 21.2657 4.72431 20.4155C4.54246 19.5653 4.56109 18.5315 4.74286 17.397C5.107 15.1242 6.14443 12.3335 7.7527 9.54788C9.36098 6.76226 11.2591 4.46848 13.0453 3.01671C13.937 2.29204 14.8229 1.75901 15.6502 1.49139C16.4773 1.2238 17.3036 1.20566 18 1.60775C18.6964 2.00983 19.0938 2.73443 19.2757 3.58458C19.4575 4.43481 19.4389 5.46858 19.2571 6.6031Z" fill="#61DAFB"/>
</svg>
