<svg width="24" height="24" viewBox="0 0 24 24" fill="none" xmlns="http://www.w3.org/2000/svg">
<path d="M0 20.4002H5.04L5.4 16.08L0.71976 15.0002L0 20.4002Z" fill="#9C0000"/>
<path d="M1.2 14.3626L5.55484 15.6002L6.6 11.2688L2.94194 9.0002L1.2 14.3626Z" fill="#B50808"/>
<path d="M3.6 8.67877L6.93321 10.8002L9.6 8.67877L7.10009 5.4002L3.6 8.67877Z" fill="#C61818"/>
<path d="M24 20.4002H18.9602L18.6 16.08L23.2802 15.0002L24 20.4002Z" fill="#9C0000"/>
<path d="M22.8 14.3626L18.445 15.6002L17.4 11.2688L21.058 9.0002L22.8 14.3626Z" fill="#B50808"/>
<path d="M20.4 8.67877L16.7332 10.8002L13.8 8.67877L16.5501 5.4002L20.4 8.67877Z" fill="#C61818"/>
<path d="M7.8 4.96383L10.5857 8.4002H13.1855L15.6 4.96383L13.1855 4.2002H10.5203L7.8 4.96383Z" fill="#CE3129"/>
</svg>
