<svg width="24" height="24" viewBox="0 0 24 24" fill="none" xmlns="http://www.w3.org/2000/svg">
<g clip-path="url(#clip0_3707_189)">
<path d="M12.0005 0.308106C12.0708 0.307213 13.5083 1.03746 13.6806 1.12117L19.223 3.80121C19.7107 4.03594 20.2004 4.26648 20.692 4.49283C20.9792 4.62657 21.3752 4.80107 21.6409 4.96131C21.8533 6.15394 22.2098 7.55461 22.4799 8.74866C22.9593 10.953 23.466 13.1514 24 15.3432C23.7452 15.6819 23.4193 16.0512 23.1494 16.3885L20.6055 19.5412C19.5157 20.8971 18.4277 22.3674 17.3164 23.6917C15.578 23.6631 13.8394 23.648 12.1008 23.6471L6.66688 23.6674C6.14583 23.0492 5.65587 22.3916 5.15283 21.7583C3.98627 20.2618 2.80336 18.7782 1.60432 17.3077L0.540213 15.976C0.374668 15.7715 0.178218 15.5159 0 15.3277C0.0752505 15.1104 0.189767 14.5711 0.246404 14.3351L0.7204 12.3447L2.40911 4.91957C2.91016 4.66908 3.45505 4.43094 3.96483 4.19014C5.04592 3.66636 6.13147 3.15182 7.22135 2.6466C8.81969 1.87802 10.4128 1.0985 12.0005 0.308106Z" fill="url(#paint0_linear_3707_189)"/>
<path d="M3.90075 12.4418C4.27266 12.8415 4.98135 13.4408 5.40379 13.8185L4.56752 13.8217C4.5629 15.2367 4.86611 16.4722 5.59407 17.6992C6.57558 19.3209 8.1615 20.4868 10.0024 20.9387C11.9954 21.4417 13.8607 21.0449 15.5989 20.0065C15.7848 19.8955 15.9344 19.7626 16.0738 19.6436C16.021 19.7242 15.8583 19.8975 15.7348 20.0001L15.6292 20.0737C14.2427 21.1464 12.5374 21.7243 10.7843 21.7174C8.75927 21.6945 6.82445 20.871 5.40539 19.4261C3.9098 17.8921 3.16155 15.9606 3.18921 13.8217L2.34814 13.8185C2.57608 13.6536 2.81388 13.4192 3.02451 13.2269C3.31459 12.9632 3.60631 12.7006 3.90075 12.4418Z" fill="white"/>
<path fill-rule="evenodd" clip-rule="evenodd" d="M11.9036 6.49838C12.0447 6.4954 12.1823 6.53719 12.2202 6.69026C12.298 7.00743 12.231 7.36406 12.2666 7.67683C12.3041 8.00412 12.3706 8.27885 12.3865 8.61543C13.2614 8.65658 13.975 9.07334 14.6091 9.64037C14.8751 9.43176 15.0603 9.38144 15.4022 9.18786C15.5458 9.1053 16.3844 8.15701 16.5407 8.87126C16.5498 8.93036 16.4053 9.09013 16.3568 9.1223C15.8896 9.42967 15.5433 9.92945 15.14 10.2624C15.5971 11.0329 15.8343 11.7691 15.7444 12.6784C16.0888 12.7622 16.2092 12.843 16.5279 12.9535C16.8085 13.018 17.0543 13.0486 17.3418 13.1102C17.5544 13.1559 17.8113 13.4128 17.5864 13.5803C17.2879 13.8016 16.7009 13.4935 16.3808 13.4939C16.0736 13.4944 15.9272 13.5284 15.6021 13.4747C15.3402 14.3741 14.8342 14.9119 14.1374 15.4878C14.1943 15.5881 14.3895 15.9588 14.4204 16.0906C14.4108 16.1017 14.3503 16.1975 14.3517 16.209C14.5001 16.5167 14.7201 16.819 14.8058 17.1508C14.8448 17.3025 14.7627 17.5072 14.5867 17.5073C14.221 17.3566 14.21 17.1242 14.0335 16.7942C13.9533 16.6697 13.9473 16.523 13.7872 16.4856C13.6298 16.4488 13.44 15.9994 13.3779 15.8764C12.9905 16.0481 12.5347 16.1236 12.1131 16.137C11.5094 16.1454 11.2731 16.1075 10.6916 15.9275C10.5085 16.2589 10.3731 16.389 10.0872 16.6983C10.0009 16.7933 9.47113 18.0348 9.16138 17.3474C9.05218 17.1025 9.53003 16.5996 9.58991 16.3769C9.68057 16.0362 9.71413 15.8625 9.90811 15.5342C9.19195 15.0726 8.62346 14.3107 8.36669 13.4987C8.20357 13.536 7.82507 13.6579 7.70312 13.601C7.69627 13.5841 7.65478 13.4861 7.64076 13.4827C7.3531 13.4687 6.48088 13.8638 6.35518 13.4363C6.24181 13.044 7.12843 13.0309 7.35454 12.9487C7.50463 12.8942 7.52399 12.9602 7.61677 12.784C7.66387 12.6973 8.11688 12.6435 8.20999 12.6305C8.13658 11.7569 8.37815 10.9955 8.824 10.2576C8.55365 10.0186 8.53355 9.93652 8.30114 9.67715C8.04756 9.41483 7.60825 9.22836 7.45368 8.89045C7.41741 8.8087 7.47372 8.60589 7.59759 8.60104C8.04791 8.56395 8.35629 9.07173 8.68809 9.24702C8.98355 9.40292 9.07733 9.40983 9.36765 9.62758C9.99015 9.06055 10.698 8.68428 11.5503 8.61223C11.5471 8.30545 11.6449 8.0234 11.6846 7.7216C11.7422 7.28068 11.5174 6.81772 11.9036 6.49838ZM12.0076 13.9256C11.7253 14.1072 11.4272 14.8236 11.1665 15.1456C11.5221 15.2236 11.7532 15.2669 12.1195 15.256C12.4314 15.2272 12.6226 15.1871 12.927 15.1105C12.7234 14.7591 12.5069 14.3472 12.2602 14.0232C12.1898 13.9309 12.1167 13.9229 12.0076 13.9256ZM10.1879 13.2157C9.87578 13.2527 9.56422 13.297 9.25413 13.3484C9.45845 13.8281 9.65265 14.1566 10.0392 14.5173C10.1086 14.5786 10.189 14.6474 10.2551 14.7107C10.3592 14.4755 10.4693 14.232 10.5701 13.996C10.7997 13.4585 10.9177 13.1626 10.1879 13.2157ZM13.4179 13.2317C13.358 13.2555 13.2959 13.2894 13.2772 13.3532C13.2096 13.591 13.6004 14.3205 13.7121 14.538C13.7331 14.5789 13.7541 14.6208 13.776 14.6612C13.9074 14.5317 14.0435 14.4002 14.1662 14.263C14.4129 13.9559 14.5574 13.7319 14.6922 13.358C14.3569 13.3319 13.6975 13.2204 13.4179 13.2317ZM9.50996 10.8636C9.20854 11.3848 9.08648 11.8449 9.07984 12.4498C9.34557 12.3932 9.58882 12.3415 9.85054 12.2659C11.008 11.9074 10.2219 11.5806 9.72742 11.0651C9.67416 11.0095 9.56815 10.906 9.50996 10.8636ZM14.446 10.8876C14.2473 11.0779 13.3464 11.7666 13.5921 12.042C13.6818 12.1409 14.0347 12.2236 14.1806 12.2675C14.4122 12.3296 14.6489 12.3978 14.8841 12.4418C14.8514 12.0603 14.7522 11.1387 14.446 10.8876ZM12.4601 9.50126C12.438 9.67539 12.4583 9.86047 12.4681 10.0353C12.5272 11.0997 12.7007 10.9769 13.4179 10.4654C13.5657 10.3665 13.7127 10.2657 13.8592 10.1648C13.4002 9.79281 13.0352 9.63603 12.4601 9.50126ZM11.4191 9.52365C10.9245 9.63709 10.5071 9.82768 10.1064 10.1456C10.2655 10.25 10.4237 10.3571 10.5813 10.4638C10.7338 10.569 11.2732 11.0088 11.3776 10.7261C11.4622 10.494 11.4977 9.81369 11.4911 9.56202L11.4703 9.52365H11.4191Z" fill="white"/>
<path d="M8.53778 4.81146C10.127 3.66248 12.0206 3.13126 13.9903 3.35479C16.0176 3.59143 17.8674 4.62693 19.131 6.22975C20.2795 7.6768 20.7893 9.3668 20.7843 11.1994H21.611C21.1793 11.5785 20.4781 12.1837 20.084 12.5857C19.6192 12.1061 19.0578 11.6606 18.573 11.1994L19.4076 11.1978C19.3992 9.17531 18.7512 7.38923 17.297 5.94993C15.9489 4.60485 14.1149 3.85878 12.2106 3.87926C11.0852 3.88576 9.91925 4.1729 8.91834 4.69154C8.78125 4.76259 8.38047 5.00325 8.26276 5.10514C8.14505 5.20702 7.94459 5.33469 7.84223 5.39669C7.97728 5.26391 8.07775 5.16732 8.22438 5.04811L8.53778 4.81146Z" fill="white"/>
</g>
<defs>
<linearGradient id="paint0_linear_3707_189" x1="0.00762351" y1="12.1691" x2="23.8882" y2="11.8869" gradientUnits="userSpaceOnUse">
<stop stop-color="#FC8400"/>
<stop offset="1" stop-color="#F6A801"/>
</linearGradient>
<clipPath id="clip0_3707_189">
<rect width="24" height="24" fill="white"/>
</clipPath>
</defs>
</svg>
