<svg width="24" height="24" viewBox="0 0 24 24" fill="none" xmlns="http://www.w3.org/2000/svg">
<path d="M9.4154 5.6425C9.87935 5.57119 10.3477 5.51907 10.8169 5.49434C10.9002 5.47448 10.9864 5.47854 11.0716 5.4755C11.7374 5.45427 12.404 5.45522 13.0695 5.4852C14.2705 5.57013 15.4657 5.76967 16.6243 6.10233L16.6194 6.10884C16.4495 6.33857 16.2791 6.568 16.1126 6.80016C16.0627 6.80937 16.019 6.7778 15.9745 6.76192C15.0954 6.39921 14.1597 6.18871 13.2181 6.07466C11.669 5.91602 10.083 6.04348 8.59704 6.52016C7.50304 6.87405 6.44631 7.41965 5.63024 8.24273C5.05187 8.83403 4.60821 9.59879 4.54768 10.437C4.49161 10.8364 4.58725 11.235 4.67184 11.6229L1.00229 12.2699C0.993417 11.6226 1.16236 10.9818 1.43118 10.396C1.966 9.25554 2.89354 8.34424 3.92664 7.64664C4.62534 7.17752 5.38051 6.79477 6.16521 6.49137C7.21049 6.08278 8.30523 5.80374 9.41547 5.64282L9.4154 5.6425Z" fill="white"/>
<path d="M16.114 6.80069C16.2806 6.56861 16.4509 6.33932 16.6208 6.10938C18.1765 6.56484 19.6787 7.28458 20.906 8.35644C21.4076 8.80563 21.8616 9.31387 22.21 9.89225C22.6226 10.5729 22.8843 11.3524 22.9124 12.1507C21.6921 11.9375 20.4726 11.7226 19.2524 11.5085C19.4026 11.0309 19.4039 10.5112 19.301 10.0236C19.1105 9.18137 18.5706 8.45831 17.9191 7.90946C17.3762 7.45252 16.7568 7.08637 16.1006 6.81841L16.114 6.80069Z" fill="#D72123"/>
<path d="M11.6148 10.1628C11.6866 10.0458 11.8131 9.95254 11.9569 9.96985C12.1195 9.97401 12.2448 10.1083 12.2785 10.2604L23.75 12.3008L23.7117 12.4929L12.2438 10.4821C12.1524 10.6412 11.9401 10.7234 11.7736 10.6295C11.658 10.5789 11.6186 10.4552 11.5664 10.3515L10.8604 10.2384L10.8927 10.0398L11.6148 10.1628Z" fill="white"/>
<path d="M6.2408 15.7321L6.24724 12.8771L7.46156 12.8794C8.74159 12.8818 9.02948 12.9002 9.59716 13.0159C10.989 13.2995 11.9129 13.9667 12.0941 14.8189C12.2779 15.683 11.5936 16.4721 10.2102 16.9922C9.71268 17.1792 9.03761 17.3259 8.50094 17.3638L8.27095 17.38L8.26407 17.8388L8.25719 18.2976L8.17554 18.3122C8.13062 18.3202 7.7127 18.3788 7.24653 18.4424C6.78036 18.5059 6.36217 18.5644 6.31677 18.5724L6.23446 18.587L6.2408 15.7321ZM8.45575 16.8335C8.52104 16.8181 8.68828 16.751 8.82743 16.6843C9.35081 16.4335 9.73282 16.0772 9.93841 15.6475C10.0975 15.3157 10.1093 15.0042 9.97632 14.6488C9.82407 14.2416 9.38908 13.7991 8.89892 13.5518C8.73748 13.4704 8.41615 13.3706 8.31575 13.3706H8.25832V15.1161C8.25832 16.6792 8.26244 16.8616 8.2977 16.8616C8.31937 16.8616 8.39049 16.849 8.45579 16.8337L8.45575 16.8335ZM1 15.1035V12.8649H3.02376V12.9187C3.02376 12.9659 3.0337 12.9704 3.10595 12.9555C3.58098 12.8578 4.29703 12.8137 4.60412 12.8633C4.71075 12.8805 4.87544 12.9209 4.97011 12.9531C5.17057 13.0212 5.52708 13.1754 5.52671 13.1938C5.5266 13.2007 5.43292 13.2624 5.3185 13.3309C5.20408 13.3993 4.95993 13.5507 4.77593 13.6674L4.44138 13.8794L4.34667 13.815C4.15611 13.6856 3.95211 13.6364 3.60553 13.6364C3.42257 13.6364 3.23348 13.6508 3.1567 13.6706L3.0239 13.7047V17.3422H1.00015L1 15.1035ZM13.4459 15.1018V12.8614L17.41 12.8725C21.4332 12.8837 21.555 12.8865 22.068 12.9805C22.4523 13.051 22.6781 13.1363 22.7985 13.2566L22.906 13.364V17.3429H20.8822V13.4268L20.7747 13.3806C20.6806 13.3401 20.5748 13.3332 19.9273 13.3252L19.1872 13.3161V17.343H17.1638L17.1509 13.4158L17.0497 13.3768C16.9694 13.3459 16.7961 13.3359 16.2085 13.328L15.4685 13.3181V17.345H13.4448L13.4459 15.1018Z" fill="white"/>
</svg>
