<svg width="24" height="24" viewBox="0 0 24 24" fill="none" xmlns="http://www.w3.org/2000/svg">
<path d="M20.0518 2.4209C20.5179 3.07808 20.9917 3.72762 21.4579 4.37717L23.7504 7.63252C23.7504 7.63252 23.7504 7.72422 23.8497 7.7395H16.3838C16.5047 7.53334 16.6373 7.33432 16.7812 7.14345L19.4557 3.23092C19.6468 2.97874 19.8302 2.68836 20.0518 2.4209Z" fill="#DF0000"/>
<path d="M3.82083 2.42077C3.82083 2.37492 3.90489 2.42077 3.9431 2.42077H11.8599L11.3097 3.09323L8.253 6.91407C8.01611 7.21209 7.77157 7.48719 7.55761 7.8005C7.55761 7.85399 7.55761 7.89984 7.55761 7.94569L8.65801 11.3386L11.5542 20.2182C11.6613 20.4962 11.7456 20.7824 11.8064 21.0741C11.4778 20.7455 11.1798 20.3863 10.8665 20.0348L8.4364 17.238C6.90807 15.5262 5.37973 13.817 3.8514 12.1104L0.87115 8.77099L0.04585 7.85399L0 7.77758H7.35128C7.40477 7.77758 7.47355 7.77758 7.5194 7.77758L4.47802 3.33013C4.29462 3.0321 4.06537 2.71115 3.82083 2.42077Z" fill="#FF676F"/>
<path d="M11.8603 21.0431C11.7969 20.7513 11.71 20.465 11.6005 20.1872C10.6453 17.2223 9.67477 14.2649 8.71192 11.3076C8.34512 10.1767 7.94775 9.01512 7.60387 7.91472C7.60387 7.86887 7.55802 7.82302 7.60387 7.76953H16.3307C16.3297 7.83501 16.3168 7.89977 16.2924 7.96057L12.0284 20.7451C11.9868 20.8311 11.9634 20.9247 11.9596 21.0202C11.9367 21.0737 11.9367 21.1272 11.8603 21.0431Z" fill="#DF0000"/>
<path d="M11.9365 21.0278C11.9395 20.9298 11.9629 20.8335 12.0053 20.7451C13.4266 16.4912 14.848 12.2323 16.2693 7.96821C16.2938 7.90478 16.3067 7.8375 16.3076 7.76953H23.827C23.5366 8.13633 23.208 8.47256 22.8947 8.82408C19.298 12.864 15.6835 16.8911 12.0511 20.9056L11.9365 21.0278Z" fill="#870000"/>
<path d="M16.3839 7.77007H16.3457L15.5357 6.80722L14.0379 5.01142L12.7006 3.42196L11.8677 2.4209H19.8838C19.9449 2.4209 20.0061 2.4209 20.0519 2.4209C19.8379 2.68836 19.6545 2.97874 19.4559 3.26148L16.7813 7.15109C16.6367 7.34939 16.504 7.55607 16.3839 7.77007Z" fill="#FF0000"/>
<path d="M3.82083 2.4209C4.06537 2.71128 4.26405 3.03223 4.47802 3.3379C5.48672 4.79746 6.49542 6.24937 7.49648 7.70893C7.45062 7.75478 7.38185 7.70893 7.32836 7.70893H0C0 7.65544 -4.27011e-08 7.63252 0.04585 7.60195L3.80555 2.44382L3.82083 2.4209Z" fill="#FF0000"/>
<path d="M11.8683 2.4209C12.1511 2.75713 12.4338 3.08572 12.7089 3.42196L14.0386 5.01142L15.5134 6.77665C15.7809 7.0976 16.056 7.41855 16.3234 7.74714H7.57373C7.7877 7.44147 8.03987 7.15873 8.26912 6.86071L11.3258 3.03987L11.8683 2.4209Z" fill="#9C0000"/>
</svg>
