<svg width="24" height="24" viewBox="0 0 24 24" fill="none" xmlns="http://www.w3.org/2000/svg">
<g clip-path="url(#clip0_1535_210)">
<path d="M12 23.999C18.6274 23.999 24 18.6264 24 11.999C24 5.37161 18.6274 -0.000976562 12 -0.000976562C5.37258 -0.000976562 0 5.37161 0 11.999C0 18.6264 5.37258 23.999 12 23.999Z" fill="#EFEFF0"/>
<path d="M11.9999 23.0989C18.1303 23.0989 23.0999 18.1293 23.0999 11.9989C23.0999 5.86856 18.1303 0.898926 11.9999 0.898926C5.86954 0.898926 0.899902 5.86856 0.899902 11.9989C0.899902 18.1293 5.86954 23.0989 11.9999 23.0989Z" fill="#398DE9"/>
<path d="M12.0186 3.59834C11.9436 3.59834 11.8779 3.54209 11.8779 3.46709V1.50771C11.8779 1.43271 11.9436 1.37646 12.0186 1.37646C12.0936 1.37646 12.1592 1.43271 12.1592 1.50771V3.46709C12.1498 3.54209 12.0936 3.59834 12.0186 3.59834Z" fill="#F3F3F3"/>
<path d="M12.0177 3.60781C11.9333 3.60781 11.8677 3.54219 11.8677 3.46719V1.50781C11.8677 1.43281 11.9333 1.36719 12.0177 1.36719C12.1021 1.36719 12.1677 1.43281 12.1677 1.50781V3.46719C12.1677 3.54219 12.0927 3.60781 12.0177 3.60781ZM12.0177 1.38594C11.9521 1.38594 11.8864 1.44219 11.8864 1.50781V3.46719C11.8864 3.53281 11.9427 3.58906 12.0177 3.58906C12.0833 3.58906 12.1489 3.53281 12.1489 3.46719V1.50781C12.1396 1.44219 12.0833 1.38594 12.0177 1.38594Z" fill="white"/>
<path d="M12.9564 2.54848C12.8814 2.53911 12.8252 2.48286 12.8252 2.40786L12.8908 1.53598C12.9002 1.46098 12.9658 1.40473 13.0408 1.41411C13.1158 1.42348 13.1721 1.47973 13.1721 1.55473L13.1064 2.42661C13.0971 2.50161 13.0314 2.55786 12.9564 2.54848Z" fill="#F3F3F3"/>
<path d="M12.9561 2.55783C12.8717 2.54845 12.8154 2.48283 12.8154 2.40783L12.8811 1.53595C12.8904 1.46095 12.9561 1.39533 13.0404 1.4047C13.1248 1.41408 13.1811 1.4797 13.1811 1.5547L13.1154 2.42658C13.1061 2.51095 13.0404 2.5672 12.9561 2.55783ZM13.0404 1.42345C12.9748 1.42345 12.9092 1.47033 12.9092 1.53595L12.8436 2.40783C12.8436 2.47345 12.8904 2.5297 12.9654 2.53908C13.0311 2.53908 13.0967 2.4922 13.0967 2.42658L13.1623 1.5547C13.1623 1.48908 13.1061 1.43283 13.0404 1.42345Z" fill="white"/>
<path d="M13.6591 3.76712C13.5841 3.74837 13.5372 3.68275 13.5466 3.60775L13.931 1.68587C13.9497 1.61087 14.0153 1.564 14.0903 1.58275C14.1653 1.6015 14.2122 1.66712 14.2028 1.74212L13.8185 3.664C13.8091 3.72962 13.7341 3.7765 13.6591 3.76712Z" fill="#F3F3F3"/>
<path d="M13.6592 3.77658C13.5748 3.75783 13.5279 3.68283 13.5373 3.60783L13.9217 1.68596C13.9404 1.61096 14.0154 1.55471 14.0998 1.57346C14.1842 1.59221 14.2311 1.66721 14.2217 1.74221L13.8373 3.66408C13.8186 3.73908 13.7436 3.78596 13.6592 3.77658ZM14.0998 1.59221C14.0342 1.58283 13.9686 1.62033 13.9498 1.68596L13.5654 3.60783C13.5561 3.67346 13.5936 3.73908 13.6686 3.75783C13.7342 3.76721 13.7998 3.72971 13.8186 3.66408L14.2029 1.74221C14.2123 1.66721 14.1654 1.61096 14.0998 1.59221Z" fill="white"/>
<path d="M14.784 2.92353C14.709 2.90478 14.6621 2.82978 14.6809 2.75478L14.9153 1.91103C14.934 1.83603 15.009 1.79853 15.084 1.81728C15.159 1.83603 15.2059 1.91103 15.1871 1.98603L14.9528 2.82978C14.934 2.90478 14.859 2.94228 14.784 2.92353Z" fill="#F3F3F3"/>
<path d="M14.7838 2.93285C14.7088 2.9141 14.6526 2.82972 14.6807 2.75472L14.9151 1.91097C14.9338 1.83597 15.0182 1.7891 15.0932 1.80785C15.1682 1.8266 15.2245 1.91097 15.1963 1.98597L14.962 2.82972C14.9432 2.90472 14.8682 2.9516 14.7838 2.93285ZM15.0932 1.83597C15.0276 1.81722 14.9526 1.85472 14.9338 1.92035L14.6995 2.7641C14.6807 2.82972 14.7182 2.89535 14.7932 2.9141C14.8588 2.93285 14.9338 2.89535 14.9526 2.82972L15.187 1.98597C15.1963 1.92035 15.1588 1.85472 15.0932 1.83597Z" fill="white"/>
<path d="M15.2434 4.24576C15.1684 4.21763 15.1403 4.13326 15.1684 4.06763L15.9184 2.25826C15.9465 2.19263 16.0309 2.15513 16.0965 2.19263C16.1715 2.22076 16.1997 2.30513 16.1715 2.37076L15.4215 4.18013C15.3934 4.24576 15.309 4.28326 15.2434 4.24576Z" fill="#F3F3F3"/>
<path d="M15.2441 4.25494C15.1691 4.22681 15.1316 4.14244 15.1597 4.06744L15.9097 2.25806C15.9379 2.18306 16.0222 2.15494 16.1066 2.18306C16.1816 2.21119 16.2191 2.29556 16.191 2.37056L15.441 4.17994C15.4035 4.25494 15.3191 4.29244 15.2441 4.25494ZM16.0972 2.20181C16.0316 2.17369 15.9566 2.20181 15.9285 2.26744L15.1785 4.07681C15.1504 4.14244 15.1879 4.20806 15.2535 4.23619C15.3191 4.26431 15.3941 4.23619 15.4222 4.17056L16.1722 2.36119C16.191 2.30494 16.1629 2.22994 16.0972 2.20181Z" fill="white"/>
<path d="M16.5096 3.64502C16.444 3.60752 16.4158 3.53252 16.444 3.46689L16.8377 2.68877C16.8752 2.62314 16.9502 2.59502 17.0252 2.63252C17.0908 2.67002 17.119 2.74502 17.0908 2.81064L16.6971 3.58877C16.6596 3.65439 16.5846 3.68252 16.5096 3.64502Z" fill="#F3F3F3"/>
<path d="M16.5094 3.65482C16.4344 3.61732 16.4063 3.53294 16.4438 3.45794L16.8375 2.67982C16.875 2.60482 16.9594 2.57669 17.0344 2.61419C17.1094 2.65169 17.1375 2.73607 17.1 2.81107L16.7063 3.58919C16.6688 3.66419 16.5844 3.69232 16.5094 3.65482ZM17.025 2.63294C16.9594 2.60482 16.8844 2.62357 16.8563 2.68919L16.4625 3.46732C16.4344 3.52357 16.4625 3.59857 16.5188 3.63607C16.5844 3.66419 16.6594 3.64544 16.6875 3.57982L17.0813 2.80169C17.1094 2.74544 17.0813 2.67044 17.025 2.63294Z" fill="white"/>
<path d="M16.6968 5.03336C16.6312 4.98648 16.6125 4.90211 16.6593 4.84586L17.7468 3.22398C17.7843 3.15836 17.8687 3.14898 17.9343 3.18648C18 3.23336 18.0187 3.31773 17.9718 3.37398L16.8843 4.99586C16.8468 5.06148 16.7625 5.08023 16.6968 5.03336Z" fill="#F3F3F3"/>
<path d="M16.6964 5.04254C16.6307 4.99567 16.612 4.90192 16.6495 4.83629L17.737 3.21442C17.7839 3.14879 17.8682 3.13004 17.9432 3.17692C18.0089 3.22379 18.0276 3.31754 17.9901 3.38317L16.9026 5.00504C16.8557 5.07067 16.762 5.08942 16.6964 5.04254ZM17.9339 3.19567C17.8776 3.15817 17.7932 3.16754 17.7557 3.22379L16.6682 4.84567C16.6307 4.90192 16.6495 4.97692 16.7057 5.01442C16.762 5.05192 16.8464 5.04254 16.8839 4.98629L17.9714 3.37379C18.0089 3.31754 17.9901 3.23317 17.9339 3.19567Z" fill="white"/>
<path d="M18.0654 4.68626C18.0092 4.63939 17.9904 4.55501 18.0373 4.49876L18.5811 3.81439C18.6279 3.75814 18.7123 3.74876 18.7686 3.79564C18.8248 3.84251 18.8436 3.92689 18.7967 3.98314L18.2529 4.66751C18.2061 4.72376 18.1217 4.73314 18.0654 4.68626Z" fill="#F3F3F3"/>
<path d="M18.056 4.69533C17.9903 4.64846 17.981 4.55471 18.0278 4.48908L18.5716 3.80471C18.6185 3.73908 18.7122 3.72971 18.7778 3.78596C18.8435 3.83283 18.8528 3.92658 18.806 3.99221L18.2622 4.67658C18.2153 4.74221 18.1216 4.75158 18.056 4.69533ZM18.7591 3.80471C18.7028 3.75783 18.6278 3.76721 18.581 3.82346L18.0372 4.50783C17.9997 4.56408 18.0091 4.63908 18.0653 4.68596C18.1216 4.73283 18.1966 4.72346 18.2435 4.66721L18.7872 3.98283C18.8247 3.92658 18.8153 3.84221 18.7591 3.80471Z" fill="white"/>
<path d="M17.9714 6.09217C17.9151 6.03592 17.9151 5.95154 17.9714 5.90467L19.3589 4.52654C19.4151 4.47029 19.4995 4.47967 19.5464 4.52654C19.5933 4.57342 19.6026 4.66717 19.5464 4.71404L18.1683 6.09217C18.112 6.14842 18.0276 6.14842 17.9714 6.09217Z" fill="#F3F3F3"/>
<path d="M17.9621 6.10166C17.9059 6.04541 17.9059 5.95166 17.9621 5.89541L19.3496 4.51729C19.4059 4.46104 19.4996 4.46104 19.5559 4.51729C19.6121 4.57354 19.6121 4.66729 19.5559 4.72354L18.1684 6.10166C18.1121 6.15791 18.0184 6.15791 17.9621 6.10166ZM19.5465 4.52666C19.4996 4.47979 19.4152 4.47979 19.3684 4.52666L17.9809 5.90479C17.934 5.95166 17.934 6.03604 17.9809 6.08291C18.0277 6.12979 18.1121 6.12979 18.159 6.08291L19.5465 4.70479C19.5934 4.65791 19.5934 4.58291 19.5465 4.52666Z" fill="white"/>
<path d="M19.3778 6.01732C19.3309 5.96107 19.3309 5.87669 19.3872 5.82982L20.0528 5.26732C20.1091 5.22044 20.1934 5.22982 20.2403 5.28607C20.2872 5.34232 20.2872 5.42669 20.2309 5.47357L19.5653 6.03607C19.5091 6.08294 19.4247 6.07357 19.3778 6.01732Z" fill="#F3F3F3"/>
<path d="M19.3684 6.02688C19.3121 5.96125 19.3215 5.8675 19.3777 5.82063L20.0434 5.25813C20.0996 5.20188 20.1934 5.21125 20.2496 5.27688C20.3059 5.3425 20.2965 5.43625 20.2402 5.48313L19.5746 6.04563C19.5184 6.10188 19.4246 6.0925 19.3684 6.02688ZM20.2309 5.28625C20.184 5.23 20.109 5.23 20.0527 5.2675L19.3871 5.83C19.3402 5.87688 19.3309 5.95188 19.3777 6.00813C19.4246 6.06438 19.4996 6.06438 19.5559 6.02688L20.2215 5.46438C20.2777 5.4175 20.2777 5.3425 20.2309 5.28625Z" fill="white"/>
<path d="M19.0031 7.36726C18.9562 7.30164 18.975 7.21726 19.0406 7.17976L20.6718 6.09226C20.7375 6.05476 20.8218 6.07351 20.8593 6.12976C20.9062 6.19539 20.8875 6.27976 20.8218 6.31726L19.1906 7.40476C19.1343 7.44226 19.05 7.42351 19.0031 7.36726Z" fill="#F3F3F3"/>
<path d="M18.9933 7.36716C18.9464 7.30153 18.9652 7.20778 19.0308 7.16091L20.6621 6.07341C20.7277 6.02653 20.8214 6.04528 20.8683 6.12028C20.9152 6.18591 20.8964 6.27966 20.8308 6.32653L19.1996 7.41403C19.1339 7.46091 19.0402 7.44216 18.9933 7.36716ZM20.8496 6.13903C20.8121 6.08278 20.7371 6.06403 20.6808 6.10153L19.0496 7.18903C18.9933 7.22653 18.9746 7.30153 19.0214 7.36716C19.0589 7.42341 19.1339 7.44216 19.1902 7.40466L20.8214 6.31716C20.8777 6.27028 20.8871 6.19528 20.8496 6.13903Z" fill="white"/>
<path d="M20.3995 7.56377C20.362 7.49814 20.3807 7.41377 20.4464 7.37627L21.2057 6.94502C21.2714 6.90752 21.3557 6.93564 21.3932 7.00127C21.4307 7.06689 21.412 7.15127 21.3464 7.18877L20.587 7.62002C20.5214 7.65752 20.437 7.62939 20.3995 7.56377Z" fill="#F3F3F3"/>
<path d="M20.3902 7.57314C20.3527 7.49814 20.3715 7.41377 20.4371 7.37627L21.1965 6.94502C21.2621 6.90752 21.3558 6.93564 21.3933 7.00127C21.4308 7.07627 21.4121 7.16064 21.3465 7.19814L20.5871 7.62939C20.5215 7.66689 20.4277 7.63877 20.3902 7.57314ZM21.384 7.01064C21.3465 6.94502 21.2715 6.92627 21.2152 6.96377L20.4558 7.39502C20.3996 7.43252 20.3808 7.50752 20.409 7.56377C20.4465 7.62939 20.5215 7.64814 20.5777 7.61064L21.3371 7.17939C21.3933 7.15127 21.4121 7.07627 21.384 7.01064Z" fill="white"/>
<path d="M19.771 8.81111C19.7428 8.73611 19.771 8.66111 19.846 8.63298L21.6553 7.88298C21.7209 7.85486 21.8053 7.89236 21.8334 7.95798C21.8616 8.03298 21.8334 8.10798 21.7584 8.13611L19.9491 8.88611C19.8835 8.91423 19.7991 8.88611 19.771 8.81111Z" fill="#F3F3F3"/>
<path d="M19.7622 8.82047C19.734 8.74547 19.7622 8.6611 19.8372 8.6236L21.6465 7.8736C21.7215 7.84547 21.8059 7.88297 21.834 7.95797C21.8622 8.03297 21.834 8.11735 21.759 8.15485L19.9497 8.90485C19.8747 8.93297 19.7903 8.89547 19.7622 8.82047ZM21.8153 7.96735C21.7872 7.90172 21.7122 7.8736 21.6559 7.89235L19.8465 8.64235C19.7809 8.67047 19.7528 8.74547 19.7809 8.8111C19.809 8.87672 19.884 8.90485 19.9403 8.8861L21.7497 8.1361C21.8153 8.10797 21.8434 8.03297 21.8153 7.96735Z" fill="white"/>
<path d="M21.0933 9.27962C21.0652 9.20462 21.1027 9.12962 21.1777 9.10149L22.0027 8.82962C22.0683 8.80149 22.1527 8.84837 22.1714 8.91399C22.1996 8.98899 22.1621 9.06399 22.0871 9.09212L21.2621 9.36399C21.1964 9.39212 21.1214 9.35462 21.0933 9.27962Z" fill="#F3F3F3"/>
<path d="M21.0844 9.2894C21.0563 9.2144 21.0938 9.13003 21.1782 9.1019L22.0032 8.83003C22.0782 8.8019 22.1626 8.84878 22.1907 8.92378C22.2188 8.99878 22.1813 9.08315 22.0969 9.11128L21.2719 9.38315C21.1969 9.4019 21.1126 9.3644 21.0844 9.2894ZM22.1719 8.93315C22.1532 8.86753 22.0782 8.83003 22.0126 8.84878L21.1876 9.12065C21.1219 9.1394 21.0938 9.2144 21.1126 9.28003C21.1313 9.34565 21.2063 9.38315 21.2719 9.3644L22.0969 9.09253C22.1626 9.0644 22.1907 8.99878 22.1719 8.93315Z" fill="white"/>
<path d="M20.2497 10.3954C20.231 10.3204 20.2779 10.2454 20.3529 10.2361L22.2747 9.86106C22.3497 9.84231 22.4154 9.89856 22.4341 9.97356C22.4529 10.0486 22.406 10.1236 22.331 10.1329L20.4091 10.5079C20.3341 10.5173 20.2591 10.4704 20.2497 10.3954Z" fill="#F3F3F3"/>
<path d="M20.2307 10.3956C20.2119 10.3112 20.2682 10.2362 20.3432 10.2175L22.2651 9.84248C22.3401 9.82373 22.4151 9.87998 22.4338 9.96436C22.4526 10.0487 22.3963 10.1237 22.3213 10.1425L20.3994 10.5175C20.3244 10.5362 20.2494 10.48 20.2307 10.3956ZM22.4151 9.97373C22.4057 9.9081 22.3401 9.86123 22.2744 9.87061L20.3526 10.2456C20.2869 10.255 20.2401 10.33 20.2588 10.3956C20.2682 10.4612 20.3338 10.5081 20.3994 10.4987L22.3213 10.1237C22.3869 10.105 22.4338 10.0394 22.4151 9.97373Z" fill="white"/>
<path d="M21.4499 11.1169C21.4405 11.0419 21.4874 10.9763 21.5624 10.9669L22.4249 10.8638C22.4999 10.8544 22.5655 10.9107 22.5749 10.9857C22.5843 11.0607 22.5374 11.1263 22.4624 11.1357L21.5999 11.2388C21.5343 11.2482 21.4593 11.1919 21.4499 11.1169Z" fill="#F3F3F3"/>
<path d="M21.44 11.1171C21.4306 11.0328 21.4869 10.9578 21.5619 10.9484L22.4244 10.8453C22.4994 10.8359 22.5744 10.8921 22.5837 10.9765C22.5931 11.0609 22.5369 11.1359 22.4619 11.1453L21.5994 11.2484C21.5244 11.2578 21.4494 11.2015 21.44 11.1171ZM22.5744 10.9859C22.565 10.9203 22.4994 10.864 22.4337 10.8734L21.5712 10.9765C21.5056 10.9859 21.4587 11.0515 21.4681 11.1171C21.4775 11.1828 21.5431 11.239 21.6087 11.2296L22.4712 11.1265C22.5369 11.1171 22.5837 11.0515 22.5744 10.9859Z" fill="white"/>
<path d="M20.4004 12.0269C20.4004 11.9519 20.4566 11.8862 20.5316 11.8862H22.491C22.566 11.8862 22.6223 11.9519 22.6223 12.0269C22.6223 12.1019 22.566 12.1675 22.491 12.1675H20.5316C20.4566 12.1675 20.4004 12.1019 20.4004 12.0269Z" fill="#F3F3F3"/>
<path d="M20.3901 12.0265C20.3901 11.9421 20.4558 11.8765 20.5308 11.8765H22.4901C22.5651 11.8765 22.6308 11.9421 22.6308 12.0265C22.6308 12.1108 22.5651 12.1765 22.4901 12.1765H20.5308C20.4558 12.1765 20.3901 12.1108 20.3901 12.0265ZM22.612 12.0358C22.612 11.9702 22.5558 11.9046 22.4901 11.9046H20.5308C20.4651 11.9046 20.4089 11.9608 20.4089 12.0358C20.4089 12.1015 20.4651 12.1671 20.5308 12.1671H22.4901C22.5558 12.1577 22.612 12.1015 22.612 12.0358Z" fill="white"/>
<path d="M21.4404 12.9735C21.4498 12.8985 21.5061 12.8423 21.5811 12.8423L22.4529 12.9079C22.5279 12.9173 22.5842 12.9829 22.5748 13.0579C22.5654 13.1329 22.5092 13.1892 22.4342 13.1892L21.5623 13.1235C21.4967 13.1142 21.4404 13.0485 21.4404 12.9735Z" fill="#F3F3F3"/>
<path d="M21.4316 12.9736C21.441 12.8893 21.5066 12.833 21.5816 12.833L22.4535 12.8986C22.5285 12.908 22.5941 12.9736 22.5848 13.058C22.5754 13.1424 22.5098 13.1986 22.4348 13.1986L21.5629 13.133C21.4879 13.1236 21.4316 13.0486 21.4316 12.9736ZM22.5754 13.058C22.5848 12.9924 22.5285 12.9268 22.4629 12.9268L21.591 12.8611C21.5254 12.8611 21.4691 12.908 21.4598 12.983C21.4504 13.0486 21.5066 13.1143 21.5723 13.1143L22.4441 13.1799C22.5098 13.1799 22.566 13.1236 22.5754 13.058Z" fill="white"/>
<path d="M20.2312 13.6581C20.2499 13.5831 20.3156 13.5362 20.3906 13.5456L22.3124 13.93C22.3874 13.9487 22.4343 14.0144 22.4155 14.0894C22.3968 14.1644 22.3312 14.2112 22.2562 14.2019L20.3343 13.8175C20.2687 13.8081 20.2218 13.7331 20.2312 13.6581Z" fill="#F3F3F3"/>
<path d="M20.2214 13.6577C20.2402 13.5734 20.3152 13.5265 20.3902 13.5359L22.312 13.9202C22.387 13.939 22.4433 14.014 22.4245 14.0984C22.4058 14.1827 22.3308 14.2296 22.2558 14.2202L20.3339 13.8359C20.2589 13.8171 20.212 13.7421 20.2214 13.6577ZM22.4058 14.0984C22.4152 14.0327 22.3777 13.9671 22.312 13.9484L20.3902 13.564C20.3245 13.5546 20.2589 13.5921 20.2402 13.6671C20.2308 13.7327 20.2683 13.7984 20.3339 13.8171L22.2558 14.2015C22.3308 14.2109 22.387 14.164 22.4058 14.0984Z" fill="white"/>
<path d="M21.0746 14.783C21.0934 14.708 21.1684 14.6612 21.2434 14.6799L22.0871 14.9143C22.1621 14.933 22.1996 15.008 22.1809 15.083C22.1621 15.158 22.0871 15.2049 22.0121 15.1862L21.1684 14.9518C21.0934 14.933 21.0559 14.858 21.0746 14.783Z" fill="#F3F3F3"/>
<path d="M21.0652 14.7829C21.0839 14.7079 21.1683 14.6516 21.2433 14.6797L22.087 14.9141C22.162 14.9329 22.2089 15.0172 22.1902 15.0922C22.1714 15.1672 22.087 15.2235 22.012 15.1954L21.1683 14.961C21.0933 14.9422 21.0464 14.8672 21.0652 14.7829ZM22.162 15.0922C22.1808 15.0266 22.1433 14.9516 22.0777 14.9329L21.2339 14.6985C21.1683 14.6797 21.1027 14.7172 21.0839 14.7922C21.0652 14.8579 21.1027 14.9329 21.1683 14.9516L22.012 15.186C22.0777 15.1954 22.1433 15.1579 22.162 15.0922Z" fill="white"/>
<path d="M19.7524 15.2332C19.7805 15.1582 19.8649 15.13 19.9305 15.1582L21.7399 15.9082C21.8055 15.9363 21.843 16.0207 21.8149 16.0863C21.7868 16.1613 21.7024 16.1894 21.6368 16.1613L19.8274 15.4113C19.7524 15.3832 19.7243 15.2988 19.7524 15.2332Z" fill="#F3F3F3"/>
<path d="M19.7436 15.2236C19.7717 15.1486 19.8561 15.1111 19.9311 15.1392L21.7405 15.8892C21.8155 15.9173 21.8436 16.0017 21.8155 16.0861C21.7874 16.1611 21.703 16.1986 21.628 16.1705L19.8186 15.4205C19.7436 15.383 19.7155 15.2986 19.7436 15.2236ZM21.7967 16.0767C21.8249 16.0111 21.7967 15.9361 21.7311 15.908L19.9217 15.158C19.8561 15.1298 19.7905 15.1673 19.7624 15.233C19.7342 15.2986 19.7624 15.3736 19.828 15.4017L21.6374 16.1517C21.703 16.1705 21.778 16.1423 21.7967 16.0767Z" fill="white"/>
<path d="M20.3625 16.4988C20.4 16.4332 20.475 16.4051 20.5406 16.4332L21.3187 16.827C21.3844 16.8551 21.4125 16.9395 21.375 17.0145C21.3375 17.0801 21.2625 17.1082 21.1969 17.0801L20.4187 16.6863C20.3531 16.6488 20.325 16.5645 20.3625 16.4988Z" fill="#F3F3F3"/>
<path d="M20.353 16.4894C20.3905 16.4144 20.4748 16.3863 20.5498 16.4238L21.328 16.8175C21.403 16.855 21.4311 16.9394 21.3936 17.0144C21.3561 17.0894 21.2717 17.1175 21.1967 17.08L20.4186 16.6863C20.3436 16.6581 20.3155 16.5644 20.353 16.4894ZM21.3655 17.005C21.3936 16.9394 21.3748 16.8644 21.3092 16.8363L20.5311 16.4425C20.4748 16.4144 20.3998 16.4425 20.3623 16.4988C20.3342 16.5644 20.353 16.6394 20.4186 16.6675L21.1967 17.0613C21.2623 17.0894 21.3373 17.0706 21.3655 17.005Z" fill="white"/>
<path d="M18.9845 16.6768C19.0314 16.6112 19.1064 16.5924 19.172 16.6393L20.8033 17.7268C20.8689 17.7643 20.8783 17.8487 20.8408 17.9143C20.7939 17.9799 20.7189 17.9987 20.6533 17.9518L19.022 16.8643C18.9564 16.8174 18.9377 16.7331 18.9845 16.6768Z" fill="#F3F3F3"/>
<path d="M18.9745 16.6671C19.0213 16.6014 19.1151 16.5827 19.1807 16.6202L20.8119 17.7077C20.8776 17.7546 20.8963 17.8389 20.8494 17.9139C20.8026 17.9796 20.7088 17.9983 20.6432 17.9608L19.012 16.8733C18.937 16.8264 18.9276 16.7327 18.9745 16.6671ZM20.8213 17.9046C20.8588 17.8483 20.8494 17.7639 20.7932 17.7264L19.162 16.6389C19.1057 16.6014 19.0307 16.6202 18.9932 16.6764C18.9557 16.7327 18.9651 16.8171 19.0213 16.8546L20.6526 17.9421C20.7088 17.9796 20.7838 17.9608 20.8213 17.9046Z" fill="white"/>
<path d="M19.3313 18.0361C19.3782 17.9799 19.4625 17.9611 19.5188 18.008L20.2031 18.5424C20.2594 18.5893 20.2688 18.6736 20.2219 18.7299C20.175 18.7861 20.0907 18.8049 20.0344 18.758L19.35 18.2236C19.2938 18.1768 19.2844 18.0924 19.3313 18.0361Z" fill="#F3F3F3"/>
<path d="M19.3218 18.0267C19.3687 17.961 19.4624 17.9517 19.528 17.9985L20.2124 18.5329C20.278 18.5798 20.2874 18.6735 20.2405 18.7392C20.1936 18.8048 20.0999 18.8142 20.0343 18.7673L19.3499 18.2329C19.2843 18.186 19.2749 18.0923 19.3218 18.0267ZM20.2218 18.7298C20.2686 18.6735 20.2593 18.5985 20.203 18.5517L19.5187 18.0173C19.4624 17.9798 19.3874 17.9892 19.3405 18.0454C19.2937 18.1017 19.303 18.1767 19.3593 18.2235L20.0436 18.7579C20.0999 18.7954 20.1749 18.786 20.2218 18.7298Z" fill="white"/>
<path d="M17.9341 17.9421C17.9903 17.8858 18.0747 17.8858 18.1216 17.9421L19.5091 19.3202C19.5653 19.3765 19.556 19.4608 19.5091 19.5077C19.4528 19.564 19.3685 19.564 19.3216 19.5077L17.9341 18.1296C17.8872 18.0827 17.8872 17.989 17.9341 17.9421Z" fill="#F3F3F3"/>
<path d="M17.934 17.9328C17.9902 17.8766 18.084 17.8766 18.1402 17.9328L19.5277 19.3109C19.584 19.3672 19.584 19.4609 19.5277 19.5172C19.4715 19.5734 19.3777 19.5734 19.3215 19.5172L17.934 18.1391C17.8684 18.0828 17.8684 17.9891 17.934 17.9328ZM19.509 19.4984C19.5559 19.4516 19.5559 19.3672 19.509 19.3203L18.1215 17.9422C18.0746 17.8953 17.9902 17.8953 17.9434 17.9422C17.8965 17.9891 17.8965 18.0734 17.9434 18.1203L19.3309 19.4984C19.3777 19.5547 19.4527 19.5547 19.509 19.4984Z" fill="white"/>
<path d="M18.0185 19.3392C18.0747 19.2924 18.1591 19.2924 18.206 19.3486L18.7779 20.0049C18.8247 20.0611 18.8154 20.1455 18.7591 20.1924C18.7029 20.2392 18.6185 20.2392 18.5716 20.183L17.9997 19.5267C17.9529 19.4799 17.9622 19.3955 18.0185 19.3392Z" fill="#F3F3F3"/>
<path d="M18.0089 19.3391C18.0745 19.2828 18.1589 19.2922 18.2151 19.3484L18.787 20.0047C18.8433 20.0609 18.8339 20.1547 18.7683 20.2109C18.7026 20.2672 18.6183 20.2578 18.562 20.2016L17.9901 19.5453C17.9433 19.4797 17.9433 19.3859 18.0089 19.3391ZM18.7589 20.1922C18.8151 20.1453 18.8151 20.0703 18.7776 20.0141L18.2058 19.3578C18.1589 19.3109 18.0839 19.3016 18.0276 19.3484C17.9714 19.3953 17.9714 19.4703 18.0089 19.5266L18.5808 20.1828C18.6276 20.2391 18.7026 20.2391 18.7589 20.1922Z" fill="white"/>
<path d="M16.6678 18.9831C16.7335 18.9362 16.8178 18.9549 16.8553 19.0206L17.9428 20.6424C17.9803 20.7081 17.9616 20.7925 17.9053 20.83C17.8397 20.8768 17.7553 20.8581 17.7178 20.7924L16.6303 19.1706C16.5928 19.1049 16.6116 19.0206 16.6678 18.9831Z" fill="#F3F3F3"/>
<path d="M16.6686 18.9738C16.7342 18.9269 16.828 18.9457 16.8749 19.0113L17.9624 20.6332C18.0092 20.6988 17.9905 20.7925 17.9155 20.8394C17.8499 20.8863 17.7561 20.8675 17.7092 20.8019L16.6217 19.18C16.5749 19.105 16.5936 19.0207 16.6686 18.9738ZM17.9061 20.8207C17.9624 20.7832 17.9811 20.7082 17.9436 20.6519L16.8561 19.03C16.8186 18.9738 16.7436 18.9644 16.678 19.0019C16.6217 19.0394 16.603 19.1144 16.6405 19.1707L17.728 20.7925C17.7655 20.8394 17.8499 20.8582 17.9061 20.8207Z" fill="white"/>
<path d="M16.4713 20.3702C16.5369 20.3327 16.6213 20.3514 16.6588 20.4171L17.09 21.1764C17.1275 21.2421 17.0994 21.3264 17.0338 21.3639C16.9681 21.4014 16.8838 21.3827 16.8463 21.3171L16.415 20.5577C16.3869 20.4921 16.4056 20.4077 16.4713 20.3702Z" fill="#F3F3F3"/>
<path d="M16.4715 20.3609C16.5465 20.3234 16.6309 20.3422 16.6684 20.4078L17.0996 21.1672C17.1371 21.2328 17.1184 21.3265 17.0434 21.364C16.9684 21.4015 16.884 21.3828 16.8465 21.3172L16.4152 20.5578C16.3777 20.4922 16.3965 20.4078 16.4715 20.3609ZM17.034 21.3547C17.0902 21.3172 17.1184 21.2422 17.0809 21.1859L16.6496 20.4265C16.6121 20.3703 16.5371 20.3515 16.4809 20.3797C16.4246 20.4172 16.3965 20.4922 16.434 20.5484L16.8652 21.3078C16.8934 21.364 16.9777 21.3922 17.034 21.3547Z" fill="white"/>
<path d="M15.2246 19.7516C15.2996 19.7235 15.3746 19.7516 15.4027 19.8172L16.1621 21.6266C16.1902 21.6922 16.1527 21.7766 16.0871 21.8047C16.0215 21.8328 15.9371 21.8047 15.909 21.7391L15.1496 19.9297C15.1215 19.8641 15.159 19.7797 15.2246 19.7516Z" fill="#F3F3F3"/>
<path d="M15.2251 19.7426C15.3001 19.7145 15.3844 19.7426 15.4219 19.8176L16.1813 21.627C16.2094 21.702 16.1719 21.7864 16.0969 21.8145C16.0219 21.8426 15.9376 21.8145 15.9001 21.7395L15.1407 19.9301C15.1126 19.8645 15.1501 19.7801 15.2251 19.7426ZM16.0782 21.7958C16.1438 21.7676 16.1719 21.6926 16.1438 21.6364L15.3844 19.827C15.3563 19.7614 15.2813 19.7333 15.2157 19.7614C15.1501 19.7895 15.1219 19.8645 15.1501 19.9208L15.9094 21.7301C15.9469 21.7958 16.0126 21.8239 16.0782 21.7958Z" fill="white"/>
<path d="M14.7651 21.0831C14.8401 21.0549 14.9151 21.0924 14.9432 21.1674L15.2151 21.9924C15.2432 22.0581 15.1963 22.1424 15.1307 22.1612C15.0557 22.1893 14.9807 22.1518 14.9526 22.0768L14.6807 21.2518C14.6526 21.1862 14.6901 21.1112 14.7651 21.0831Z" fill="#F3F3F3"/>
<path d="M14.7562 21.0738C14.8312 21.0457 14.9156 21.0832 14.9437 21.1582L15.2156 21.9832C15.2437 22.0582 15.1969 22.1425 15.1219 22.1707C15.0469 22.1988 14.9625 22.1613 14.9344 22.0863L14.6625 21.2613C14.6437 21.1863 14.6812 21.1019 14.7562 21.0738ZM15.1219 22.1519C15.1875 22.1332 15.225 22.0582 15.2062 21.9925L14.9344 21.1675C14.9156 21.1019 14.8406 21.0738 14.775 21.0925C14.7094 21.1113 14.6719 21.1863 14.6906 21.2519L14.9625 22.0769C14.9812 22.1425 15.0562 22.18 15.1219 22.1519Z" fill="white"/>
<path d="M13.6591 20.2297C13.7341 20.211 13.8091 20.2578 13.8185 20.3328L14.2122 22.2547C14.231 22.3297 14.1747 22.3953 14.0997 22.4141C14.0247 22.4328 13.9497 22.386 13.9403 22.311L13.5466 20.3891C13.5372 20.3235 13.5841 20.2485 13.6591 20.2297Z" fill="#F3F3F3"/>
<path d="M13.6591 20.2204C13.7435 20.2017 13.8185 20.2579 13.8372 20.3329L14.231 22.2548C14.2497 22.3298 14.1935 22.4142 14.1185 22.4236C14.0341 22.4423 13.9591 22.3861 13.9403 22.3111L13.5466 20.3892C13.5278 20.3142 13.5747 20.2392 13.6591 20.2204ZM14.0997 22.4048C14.1653 22.3954 14.2122 22.3298 14.2028 22.2548L13.8091 20.3329C13.7997 20.2673 13.7247 20.2204 13.6591 20.2392C13.5935 20.2486 13.5466 20.3142 13.556 20.3892L13.9497 22.3111C13.9685 22.3767 14.0341 22.4142 14.0997 22.4048Z" fill="white"/>
<path d="M12.9466 21.4485C13.0216 21.4391 13.0873 21.486 13.106 21.561L13.2185 22.4235C13.2279 22.4985 13.1716 22.5641 13.0966 22.5735C13.0216 22.5828 12.956 22.536 12.9373 22.461L12.8248 21.5985C12.8154 21.5235 12.8716 21.4578 12.9466 21.4485Z" fill="#F3F3F3"/>
<path d="M12.9462 21.439C13.0306 21.4296 13.1056 21.4859 13.115 21.5609L13.2275 22.4234C13.2369 22.4984 13.1806 22.5734 13.0962 22.5828C13.0119 22.5921 12.9369 22.5359 12.9275 22.4609L12.815 21.5984C12.8056 21.5234 12.8619 21.4484 12.9462 21.439ZM13.0869 22.564C13.1525 22.5546 13.2087 22.489 13.1994 22.4234L13.0869 21.5609C13.0775 21.4953 13.0119 21.4484 12.9462 21.4578C12.8806 21.4671 12.8244 21.5328 12.8337 21.5984L12.9462 22.4609C12.9556 22.5265 13.0212 22.5734 13.0869 22.564Z" fill="white"/>
<path d="M11.981 20.3984C12.056 20.3984 12.1216 20.4547 12.1216 20.5297V22.4891C12.1216 22.5641 12.056 22.6203 11.981 22.6203C11.906 22.6203 11.8403 22.5641 11.8403 22.4891V20.5297C11.8497 20.4547 11.906 20.3984 11.981 20.3984Z" fill="#F3F3F3"/>
<path d="M11.9806 20.3892C12.0649 20.3892 12.1306 20.4548 12.1306 20.5298V22.4892C12.1306 22.5642 12.0649 22.6298 11.9806 22.6298C11.8962 22.6298 11.8306 22.5642 11.8306 22.4892V20.5298C11.8306 20.4548 11.9056 20.3892 11.9806 20.3892ZM11.9806 22.611C12.0462 22.611 12.1118 22.5548 12.1118 22.4892V20.5298C12.1118 20.4642 12.0556 20.4079 11.9806 20.4079C11.9149 20.4079 11.8493 20.4642 11.8493 20.5298V22.4892C11.8587 22.5548 11.9149 22.611 11.9806 22.611Z" fill="white"/>
<path d="M11.0433 21.4483C11.1183 21.4577 11.1745 21.5139 11.1745 21.5889L11.1089 22.4608C11.0995 22.5358 11.0339 22.592 10.9589 22.5827C10.8839 22.5733 10.8276 22.517 10.8276 22.442L10.8933 21.5702C10.9026 21.4952 10.9683 21.4389 11.0433 21.4483Z" fill="#F3F3F3"/>
<path d="M11.0429 21.439C11.1272 21.4484 11.1835 21.514 11.1835 21.589L11.1179 22.4609C11.1085 22.5359 11.0429 22.6015 10.9585 22.5921C10.8741 22.5828 10.8179 22.5171 10.8179 22.4421L10.8835 21.5703C10.8929 21.4859 10.9585 21.4296 11.0429 21.439ZM10.9585 22.5734C11.0241 22.5734 11.0897 22.5265 11.0897 22.4609L11.1554 21.589C11.1554 21.5234 11.1085 21.4671 11.0335 21.4578C10.9679 21.4578 10.9022 21.5046 10.9022 21.5703L10.8366 22.4421C10.8366 22.5078 10.8929 22.564 10.9585 22.5734Z" fill="white"/>
<path d="M10.3403 20.2297C10.4153 20.2485 10.4622 20.3141 10.4528 20.3891L10.0685 22.311C10.0497 22.386 9.9841 22.4328 9.9091 22.4141C9.8341 22.3953 9.78722 22.3297 9.7966 22.2547L10.181 20.3328C10.1903 20.2672 10.2653 20.2203 10.3403 20.2297Z" fill="#F3F3F3"/>
<path d="M10.3405 20.2204C10.4249 20.2392 10.4718 20.3142 10.4624 20.3892L10.078 22.3111C10.0593 22.3861 9.98429 22.4423 9.89991 22.4236C9.81554 22.4048 9.76866 22.3298 9.77804 22.2548L10.1624 20.3329C10.1812 20.2579 10.2562 20.2111 10.3405 20.2204ZM9.89991 22.4048C9.96554 22.4142 10.0312 22.3767 10.0499 22.3111L10.4343 20.3892C10.4437 20.3236 10.4062 20.2579 10.3312 20.2392C10.2655 20.2298 10.1999 20.2673 10.1812 20.3329L9.79679 22.2548C9.78741 22.3298 9.83429 22.3861 9.89991 22.4048Z" fill="white"/>
<path d="M9.21537 21.0736C9.29037 21.0924 9.33724 21.1674 9.31849 21.2424L9.08412 22.0861C9.06537 22.1611 8.99037 22.1986 8.91537 22.1799C8.84037 22.1611 8.79349 22.0861 8.81224 22.0111L9.04662 21.1674C9.06537 21.0924 9.14037 21.0549 9.21537 21.0736Z" fill="#F3F3F3"/>
<path d="M9.21577 21.0642C9.29077 21.0829 9.34702 21.1673 9.31889 21.2423L9.08452 22.0861C9.06577 22.1611 8.98139 22.2079 8.90639 22.1892C8.83139 22.1704 8.77514 22.0861 8.80327 22.0111L9.03764 21.1673C9.05639 21.0923 9.13139 21.0454 9.21577 21.0642ZM8.90639 22.1611C8.97202 22.1798 9.04702 22.1423 9.06577 22.0767L9.30014 21.2329C9.31889 21.1673 9.28139 21.1017 9.20639 21.0829C9.14077 21.0642 9.06577 21.1017 9.04702 21.1673L8.81264 22.0111C8.80327 22.0767 8.84077 22.1423 8.90639 22.1611Z" fill="white"/>
<path d="M8.75544 19.7517C8.83044 19.7798 8.85857 19.8642 8.83044 19.9298L8.08044 21.7392C8.05232 21.8048 7.96794 21.8423 7.90232 21.8048C7.83669 21.7673 7.79919 21.6923 7.82732 21.6267L8.57732 19.8173C8.60544 19.7517 8.68982 19.7142 8.75544 19.7517Z" fill="#F3F3F3"/>
<path d="M8.75651 19.7423C8.83151 19.7704 8.86901 19.8548 8.84088 19.9298L8.09088 21.7391C8.06276 21.8141 7.97838 21.8423 7.89401 21.8141C7.81901 21.786 7.78151 21.7016 7.80963 21.6266L8.55963 19.8173C8.59713 19.7423 8.68151 19.7048 8.75651 19.7423ZM7.90338 21.7954C7.96901 21.8235 8.04401 21.7954 8.07213 21.7298L8.82213 19.9204C8.85026 19.8548 8.81276 19.7891 8.74713 19.761C8.68151 19.7329 8.60651 19.761 8.57838 19.8266L7.82838 21.636C7.80963 21.6923 7.83776 21.7673 7.90338 21.7954Z" fill="white"/>
<path d="M7.49006 20.3513C7.55568 20.3888 7.58381 20.4638 7.55568 20.5294L7.16193 21.3075C7.12443 21.3731 7.04943 21.4013 6.97443 21.3638C6.90881 21.3263 6.88068 21.2513 6.90881 21.1856L7.30256 20.4075C7.34006 20.3419 7.41506 20.3138 7.49006 20.3513Z" fill="#F3F3F3"/>
<path d="M7.49046 20.3422C7.56546 20.3797 7.59359 20.4641 7.55609 20.5391L7.16234 21.3172C7.12484 21.3922 7.04046 21.4203 6.96546 21.3828C6.89046 21.3453 6.86234 21.261 6.89984 21.186L7.29359 20.4078C7.33109 20.3328 7.41546 20.3047 7.49046 20.3422ZM6.97484 21.3641C7.04046 21.3922 7.11546 21.3735 7.14359 21.3078L7.53734 20.5297C7.56546 20.4735 7.53734 20.3985 7.48109 20.361C7.41546 20.3328 7.34046 20.3516 7.31234 20.4172L6.91859 21.1953C6.89046 21.2516 6.91859 21.3266 6.97484 21.3641Z" fill="white"/>
<path d="M7.30299 18.9645C7.36862 19.0114 7.38737 19.0958 7.34049 19.152L6.25299 20.7739C6.21549 20.8395 6.13112 20.8489 6.06549 20.8114C5.99987 20.7645 5.98112 20.6801 6.02799 20.6239L7.11549 19.002C7.15299 18.9364 7.23737 18.9176 7.30299 18.9645Z" fill="#F3F3F3"/>
<path d="M7.30261 18.9552C7.36823 19.0021 7.38698 19.0959 7.34948 19.1615L6.26198 20.7834C6.21511 20.849 6.13073 20.8677 6.05573 20.8209C5.99011 20.774 5.97136 20.6802 6.00886 20.6146L7.09636 18.9927C7.14323 18.9271 7.23698 18.9084 7.30261 18.9552ZM6.06511 20.8021C6.12136 20.8396 6.20573 20.8302 6.24323 20.774L7.33073 19.1521C7.36823 19.0959 7.34948 19.0209 7.29323 18.9834C7.23698 18.9459 7.15261 18.9552 7.11511 19.0115L6.02761 20.624C5.99011 20.6802 6.00886 20.7646 6.06511 20.8021Z" fill="white"/>
<path d="M5.93409 19.3113C5.99034 19.3581 6.00909 19.4425 5.96221 19.4988L5.41846 20.1831C5.37159 20.2394 5.28721 20.2488 5.23096 20.2019C5.17471 20.155 5.15596 20.0706 5.20284 20.0144L5.74659 19.33C5.79346 19.2738 5.87784 19.2644 5.93409 19.3113Z" fill="#F3F3F3"/>
<path d="M5.94336 19.3016C6.00898 19.3485 6.01836 19.4422 5.97148 19.5078L5.42773 20.1922C5.38086 20.2578 5.28711 20.2672 5.22148 20.211C5.15586 20.1641 5.14648 20.0703 5.19336 20.0047L5.73711 19.3203C5.78398 19.2547 5.87773 19.2453 5.94336 19.3016ZM5.24023 20.1922C5.29648 20.2391 5.37148 20.2297 5.41836 20.1735L5.96211 19.4891C5.99961 19.4328 5.99023 19.3578 5.93398 19.311C5.87773 19.2641 5.80273 19.2735 5.75586 19.3297L5.21211 20.0141C5.17461 20.0703 5.18398 20.1547 5.24023 20.1922Z" fill="white"/>
<path d="M6.02781 17.905C6.08406 17.9612 6.08406 18.0456 6.02781 18.0925L4.64031 19.4706C4.58406 19.5269 4.49969 19.5175 4.45281 19.4706C4.40594 19.4237 4.39656 19.33 4.45281 19.2831L5.83094 17.905C5.88719 17.8487 5.97156 17.8487 6.02781 17.905Z" fill="#F3F3F3"/>
<path d="M6.0373 17.8952C6.09355 17.9515 6.09355 18.0452 6.0373 18.1015L4.6498 19.4796C4.59355 19.5358 4.4998 19.5358 4.44355 19.4796C4.3873 19.4233 4.3873 19.3296 4.44355 19.2733L5.83105 17.8952C5.8873 17.839 5.98105 17.839 6.0373 17.8952ZM4.45293 19.4702C4.4998 19.5171 4.58418 19.5171 4.63105 19.4702L6.01855 18.0921C6.06543 18.0452 6.06543 17.9608 6.01855 17.914C5.97168 17.8671 5.8873 17.8671 5.84043 17.914L4.45293 19.2921C4.40605 19.339 4.40605 19.414 4.45293 19.4702Z" fill="white"/>
<path d="M4.62166 17.9799C4.66854 18.0362 4.66854 18.1205 4.61229 18.1674L3.94666 18.7299C3.89041 18.7768 3.80604 18.7674 3.75916 18.7112C3.71229 18.6549 3.71229 18.5705 3.76854 18.5237L4.43416 17.9612C4.49041 17.9143 4.57479 17.9237 4.62166 17.9799Z" fill="#F3F3F3"/>
<path d="M4.63047 17.9702C4.68672 18.0359 4.67734 18.1296 4.62109 18.1765L3.95547 18.739C3.89922 18.7952 3.80547 18.7859 3.74922 18.7202C3.69297 18.6546 3.70234 18.5609 3.75859 18.514L4.42422 17.9515C4.48047 17.8952 4.57422 17.9046 4.63047 17.9702ZM3.76797 18.7109C3.81484 18.7671 3.88984 18.7671 3.94609 18.7296L4.61172 18.1671C4.65859 18.1202 4.66797 18.0452 4.62109 17.989C4.57422 17.9327 4.49922 17.9327 4.44297 17.9702L3.77734 18.5327C3.72109 18.5796 3.72109 18.6546 3.76797 18.7109Z" fill="white"/>
<path d="M4.99704 16.6298C5.04391 16.6954 5.02516 16.7798 4.95954 16.8173L3.32828 17.9048C3.26266 17.9423 3.17828 17.9235 3.14078 17.8673C3.09391 17.8016 3.11266 17.7173 3.17828 17.6798L4.80954 16.5923C4.86579 16.5548 4.95016 16.5735 4.99704 16.6298Z" fill="#F3F3F3"/>
<path d="M5.00553 16.6296C5.05241 16.6952 5.03366 16.7889 4.96803 16.8358L3.33678 17.9233C3.27116 17.9702 3.17741 17.9514 3.13053 17.8764C3.08366 17.8108 3.10241 17.7171 3.16803 17.6702L4.79928 16.5827C4.86491 16.5358 4.95866 16.5546 5.00553 16.6296ZM3.14928 17.8577C3.18678 17.9139 3.26178 17.9327 3.31803 17.8952L4.94928 16.8077C5.00553 16.7702 5.02428 16.6952 4.97741 16.6296C4.93991 16.5733 4.86491 16.5546 4.80866 16.5921L3.17741 17.6796C3.12116 17.7264 3.11178 17.8014 3.14928 17.8577Z" fill="white"/>
<path d="M3.59929 16.4329C3.63679 16.4985 3.61804 16.5829 3.55241 16.6204L2.79304 17.0517C2.72741 17.0892 2.64304 17.061 2.60554 16.9954C2.56804 16.9298 2.58679 16.8454 2.65241 16.8079L3.41179 16.3767C3.47741 16.3392 3.56179 16.3673 3.59929 16.4329Z" fill="#F3F3F3"/>
<path d="M3.60866 16.4231C3.64616 16.4981 3.62741 16.5825 3.56179 16.62L2.80241 17.0513C2.73679 17.0888 2.64304 17.0606 2.60554 16.995C2.56804 16.92 2.58679 16.8356 2.65241 16.7981L3.41179 16.3669C3.47741 16.3294 3.57116 16.3575 3.60866 16.4231ZM2.61491 16.9856C2.65241 17.0513 2.72741 17.07 2.78366 17.0325L3.54304 16.6013C3.59929 16.5638 3.61804 16.4888 3.58991 16.4325C3.55241 16.3669 3.47741 16.3481 3.42116 16.3856L2.66179 16.8169C2.60554 16.845 2.58679 16.92 2.61491 16.9856Z" fill="white"/>
<path d="M4.2275 15.1863C4.25562 15.2613 4.2275 15.3363 4.1525 15.3644L2.34312 16.1144C2.2775 16.1425 2.19312 16.105 2.165 16.0394C2.13687 15.9644 2.16499 15.8894 2.24 15.8613L4.04937 15.1113C4.115 15.0832 4.19937 15.1113 4.2275 15.1863Z" fill="#F3F3F3"/>
<path d="M4.23687 15.1767C4.26499 15.2517 4.23687 15.3361 4.16187 15.3736L2.35249 16.1236C2.27749 16.1517 2.19312 16.1142 2.165 16.0392C2.13687 15.9642 2.16499 15.8798 2.23999 15.8423L4.04937 15.0923C4.12437 15.0642 4.20874 15.1017 4.23687 15.1767ZM2.18374 16.0298C2.21187 16.0955 2.28687 16.1236 2.34312 16.1048L4.15249 15.3548C4.21812 15.3267 4.24624 15.2517 4.21812 15.1861C4.18999 15.1205 4.11499 15.0923 4.05874 15.1111L2.24937 15.8611C2.18374 15.8892 2.15562 15.9642 2.18374 16.0298Z" fill="white"/>
<path d="M2.90631 14.7172C2.93444 14.7922 2.89694 14.8672 2.82194 14.8954L1.99694 15.1672C1.93131 15.1954 1.84694 15.1485 1.82819 15.0829C1.80006 15.0079 1.83756 14.9329 1.91256 14.9047L2.73756 14.6329C2.80319 14.6047 2.87819 14.6422 2.90631 14.7172Z" fill="#F3F3F3"/>
<path d="M2.91578 14.7079C2.9439 14.7829 2.9064 14.8673 2.82203 14.8954L1.99703 15.1673C1.92203 15.1954 1.83765 15.1485 1.80953 15.0735C1.7814 14.9985 1.8189 14.9142 1.90328 14.886L2.72828 14.6142C2.80328 14.5954 2.88765 14.6329 2.91578 14.7079ZM1.82828 15.0642C1.84703 15.1298 1.92203 15.1673 1.98765 15.1485L2.81265 14.8767C2.87828 14.8579 2.9064 14.7829 2.88765 14.7173C2.8689 14.6517 2.7939 14.6142 2.72828 14.6329L1.90328 14.9048C1.83765 14.9329 1.80953 14.9985 1.82828 15.0642Z" fill="white"/>
<path d="M3.74954 13.6015C3.76829 13.6765 3.72142 13.7515 3.64642 13.7609L1.72454 14.1359C1.64954 14.1546 1.58392 14.0984 1.56517 14.0234C1.54642 13.9484 1.59329 13.8734 1.66829 13.864L3.59017 13.489C3.66517 13.4796 3.74017 13.5265 3.74954 13.6015Z" fill="#F3F3F3"/>
<path d="M3.76828 13.6016C3.78703 13.6859 3.73078 13.7609 3.65578 13.7797L1.73391 14.1547C1.65891 14.1734 1.58391 14.1172 1.56516 14.0328C1.54641 13.9484 1.60266 13.8734 1.67766 13.8547L3.59953 13.4797C3.67453 13.4609 3.74953 13.5172 3.76828 13.6016ZM1.58391 14.0234C1.59328 14.0891 1.65891 14.1359 1.72453 14.1266L3.64641 13.7516C3.71203 13.7422 3.75891 13.6672 3.74016 13.6016C3.73078 13.5359 3.66516 13.4891 3.59953 13.4984L1.67766 13.8734C1.61203 13.8922 1.56516 13.9578 1.58391 14.0234Z" fill="white"/>
<path d="M2.54953 12.8797C2.5589 12.9547 2.51203 13.0204 2.43703 13.0297L1.57453 13.1329C1.49953 13.1422 1.4339 13.086 1.42453 13.011C1.41515 12.936 1.46203 12.8704 1.53703 12.861L2.39953 12.7579C2.46515 12.7485 2.54015 12.8047 2.54953 12.8797Z" fill="#F3F3F3"/>
<path d="M2.55883 12.8798C2.56821 12.9642 2.51196 13.0392 2.43696 13.0486L1.57446 13.1517C1.49946 13.1611 1.42446 13.1048 1.41508 13.0205C1.40571 12.9361 1.46196 12.8611 1.53696 12.8517L2.39946 12.7486C2.47446 12.7392 2.54946 12.7955 2.55883 12.8798ZM1.42446 13.0111C1.43383 13.0767 1.49946 13.133 1.56508 13.1236L2.42758 13.0205C2.49321 13.0111 2.54008 12.9455 2.53071 12.8798C2.52133 12.8142 2.45571 12.758 2.39008 12.7673L1.52758 12.8705C1.46196 12.8798 1.41508 12.9455 1.42446 13.0111Z" fill="white"/>
<path d="M3.5998 11.9702C3.5998 12.0452 3.54355 12.1108 3.46855 12.1108H1.50918C1.43418 12.1108 1.37793 12.0452 1.37793 11.9702C1.37793 11.8952 1.43418 11.8296 1.50918 11.8296H3.46855C3.54355 11.8296 3.5998 11.8952 3.5998 11.9702Z" fill="#F3F3F3"/>
<path d="M3.60977 11.9703C3.60977 12.0547 3.54414 12.1203 3.46914 12.1203H1.50977C1.43477 12.1203 1.36914 12.0547 1.36914 11.9703C1.36914 11.8859 1.43477 11.8203 1.50977 11.8203H3.46914C3.54414 11.8203 3.60977 11.8859 3.60977 11.9703ZM1.38789 11.9609C1.38789 12.0266 1.44414 12.0922 1.50977 12.0922H3.46914C3.53477 12.0922 3.59102 12.0359 3.59102 11.9609C3.59102 11.8953 3.53477 11.8297 3.46914 11.8297H1.50977C1.44414 11.8391 1.38789 11.8953 1.38789 11.9609Z" fill="white"/>
<path d="M2.55874 11.0237C2.54936 11.0987 2.49311 11.155 2.41811 11.155L1.54624 11.0894C1.47124 11.08 1.41499 11.0144 1.42436 10.9394C1.43374 10.8644 1.48999 10.8081 1.56499 10.8081L2.43686 10.8737C2.50249 10.8831 2.55874 10.9487 2.55874 11.0237Z" fill="#E2E2E2"/>
<path d="M2.56857 11.0233C2.5592 11.1077 2.49357 11.164 2.41857 11.164L1.5467 11.0983C1.4717 11.089 1.40607 11.0233 1.41545 10.939C1.42482 10.8546 1.49045 10.7983 1.56545 10.7983L2.43732 10.864C2.51232 10.8733 2.56857 10.9483 2.56857 11.0233ZM1.42482 10.939C1.41545 11.0046 1.4717 11.0702 1.53732 11.0702L2.4092 11.1358C2.47482 11.1358 2.53107 11.089 2.54045 11.014C2.54982 10.9483 2.49357 10.8827 2.42795 10.8827L1.55607 10.8171C1.49045 10.8171 1.4342 10.8733 1.42482 10.939Z" fill="white"/>
<path d="M3.76859 10.339C3.74984 10.414 3.68421 10.4609 3.60921 10.4515L1.68734 10.0577C1.61234 10.039 1.56546 9.97336 1.58421 9.89836C1.60296 9.82336 1.66859 9.77648 1.74359 9.78586L3.66546 10.1702C3.73109 10.189 3.77796 10.264 3.76859 10.339Z" fill="#F3F3F3"/>
<path d="M3.77756 10.3391C3.75881 10.4234 3.68381 10.4703 3.60881 10.4609L1.68693 10.0766C1.61193 10.0578 1.55568 9.98282 1.57443 9.89845C1.59318 9.81407 1.66818 9.7672 1.74318 9.77657L3.66506 10.1609C3.74006 10.1797 3.78693 10.2547 3.77756 10.3391ZM1.59318 9.89845C1.58381 9.96407 1.62131 10.0297 1.68693 10.0484L3.60881 10.4328C3.67443 10.4422 3.74006 10.4047 3.75881 10.3297C3.76818 10.2641 3.73068 10.1984 3.66506 10.1797L1.74318 9.79532C1.66818 9.78595 1.61193 9.83282 1.59318 9.89845Z" fill="white"/>
<path d="M2.92499 9.21439C2.90624 9.28939 2.83124 9.33626 2.75624 9.31751L1.91249 9.08314C1.83749 9.06439 1.79999 8.98939 1.81874 8.91439C1.83749 8.83939 1.91249 8.79251 1.98749 8.81126L2.83124 9.04564C2.90624 9.06439 2.94374 9.13939 2.92499 9.21439Z" fill="#F3F3F3"/>
<path d="M2.93431 9.21381C2.91556 9.28881 2.83119 9.34506 2.75619 9.31694L1.91244 9.08256C1.83744 9.06381 1.79056 8.97944 1.80931 8.90444C1.82806 8.82944 1.91244 8.77319 1.98744 8.80131L2.83119 9.03569C2.90619 9.05444 2.95306 9.12944 2.93431 9.21381ZM1.83744 8.90444C1.81869 8.97006 1.85619 9.04506 1.92181 9.06381L2.76556 9.29819C2.83119 9.31694 2.89681 9.27944 2.91556 9.20444C2.93431 9.13881 2.89681 9.06381 2.83119 9.04506L1.98744 8.81069C1.92181 8.80131 1.85619 8.83881 1.83744 8.90444Z" fill="white"/>
<path d="M4.24626 8.76451C4.21814 8.83951 4.13376 8.86763 4.06814 8.83951L2.25876 8.08951C2.19314 8.06138 2.15564 7.97701 2.18376 7.91138C2.21189 7.83638 2.29626 7.80826 2.36189 7.83638L4.17126 8.58638C4.24626 8.61451 4.27439 8.69888 4.24626 8.76451Z" fill="#F3F3F3"/>
<path d="M4.25542 8.7736C4.2273 8.8486 4.14292 8.8861 4.06792 8.85797L2.25855 8.10797C2.18355 8.07985 2.15542 7.99547 2.18355 7.9111C2.21167 7.8361 2.29605 7.7986 2.37105 7.82672L4.18042 8.57672C4.25542 8.61422 4.28355 8.6986 4.25542 8.7736ZM2.2023 7.92047C2.17417 7.9861 2.2023 8.0611 2.26792 8.08922L4.0773 8.83922C4.14292 8.86735 4.20855 8.82985 4.23667 8.76422C4.2648 8.6986 4.23667 8.6236 4.17105 8.59547L2.36167 7.84547C2.29605 7.82672 2.22105 7.85485 2.2023 7.92047Z" fill="white"/>
<path d="M3.63769 7.49885C3.60019 7.56447 3.52519 7.5926 3.45957 7.56447L2.68144 7.17072C2.61582 7.1426 2.58769 7.05822 2.62519 6.98322C2.66269 6.9176 2.73769 6.88947 2.80332 6.9176L3.58144 7.31135C3.64707 7.34885 3.67519 7.43322 3.63769 7.49885Z" fill="#F3F3F3"/>
<path d="M3.64652 7.50804C3.60902 7.58304 3.52464 7.61117 3.44964 7.57367L2.67152 7.17992C2.59652 7.14242 2.56839 7.05804 2.60589 6.98304C2.64339 6.90804 2.72777 6.87992 2.80277 6.91742L3.58089 7.31117C3.65589 7.33929 3.68402 7.43304 3.64652 7.50804ZM2.63402 6.99242C2.60589 7.05804 2.62464 7.13304 2.69027 7.16117L3.46839 7.55492C3.52464 7.58304 3.59964 7.55492 3.63714 7.49867C3.66527 7.43304 3.64652 7.35804 3.58089 7.32992L2.79339 6.93617C2.73714 6.90804 2.66214 6.92679 2.63402 6.99242Z" fill="white"/>
<path d="M5.0148 7.32047C4.96793 7.3861 4.89293 7.40485 4.8273 7.35797L3.20543 6.27985C3.1398 6.24235 3.13043 6.15797 3.16793 6.09235C3.20543 6.02672 3.2898 6.00797 3.35543 6.05485L4.98668 7.14235C5.04293 7.17985 5.06168 7.26422 5.0148 7.32047Z" fill="#F3F3F3"/>
<path d="M5.02496 7.32946C4.97809 7.39509 4.88434 7.41384 4.81871 7.37634L3.19684 6.28884C3.13121 6.24196 3.11246 6.15759 3.15934 6.08259C3.20621 6.01696 3.29996 5.99821 3.36559 6.03571L4.98746 7.12321C5.06246 7.17009 5.07184 7.26384 5.02496 7.32946ZM3.17809 6.09196C3.14059 6.14821 3.14996 6.23259 3.20621 6.27009L4.83746 7.35759C4.89371 7.39509 4.96871 7.37634 5.00621 7.32009C5.04371 7.26384 5.03434 7.17946 4.97809 7.14196L3.34684 6.05446C3.29059 6.01696 3.21559 6.03571 3.17809 6.09196Z" fill="white"/>
<path d="M4.6682 5.96133C4.62132 6.01758 4.53695 6.03633 4.4807 5.98946L3.79632 5.45508C3.74007 5.40821 3.7307 5.32383 3.77757 5.26758C3.82445 5.21133 3.90882 5.19258 3.96507 5.23946L4.64945 5.77383C4.7057 5.82071 4.71507 5.90508 4.6682 5.96133Z" fill="#F3F3F3"/>
<path d="M4.67803 5.9706C4.63115 6.03623 4.5374 6.04561 4.47178 5.99873L3.7874 5.46436C3.72178 5.41748 3.7124 5.32373 3.75928 5.25811C3.80615 5.19248 3.8999 5.18311 3.96553 5.22998L4.6499 5.76436C4.71553 5.81123 4.7249 5.90498 4.67803 5.9706ZM3.77803 5.26748C3.73115 5.32373 3.74053 5.39873 3.79678 5.44561L4.48115 5.97998C4.5374 6.01748 4.6124 6.00811 4.65928 5.95186C4.70615 5.89561 4.69678 5.82061 4.64053 5.77373L3.95615 5.23936C3.8999 5.20186 3.8249 5.21123 3.77803 5.26748Z" fill="white"/>
<path d="M6.06502 6.05459C6.00877 6.11084 5.9244 6.11084 5.87752 6.05459L4.48065 4.67646C4.4244 4.62021 4.43377 4.53584 4.48065 4.48896C4.5369 4.43271 4.62127 4.43271 4.66815 4.48896L6.05565 5.86709C6.1119 5.91397 6.1119 6.00772 6.06502 6.05459Z" fill="#F3F3F3"/>
<path d="M6.06514 6.06406C6.00889 6.12031 5.91514 6.12031 5.85889 6.06406L4.47139 4.68594C4.41514 4.62969 4.41514 4.53594 4.47139 4.47969C4.52764 4.42344 4.62139 4.42344 4.67764 4.47969L6.06514 5.85781C6.13076 5.91406 6.13076 6.00781 6.06514 6.06406ZM4.49014 4.49844C4.44326 4.54531 4.44326 4.62969 4.49014 4.67656L5.87764 6.05469C5.92451 6.10156 6.00889 6.10156 6.05576 6.05469C6.10264 6.00781 6.10264 5.92344 6.05576 5.87656L4.66826 4.48906C4.62139 4.44219 4.54639 4.44219 4.49014 4.49844Z" fill="white"/>
<path d="M5.98031 4.6577C5.92406 4.70457 5.83968 4.70457 5.79281 4.64832L5.22093 3.99207C5.17406 3.93582 5.18343 3.85145 5.23968 3.80457C5.29593 3.7577 5.38031 3.7577 5.42718 3.81395L5.99905 4.4702C6.04593 4.51707 6.03655 4.60145 5.98031 4.6577Z" fill="#F3F3F3"/>
<path d="M5.99035 4.6582C5.92473 4.71445 5.84035 4.70508 5.7841 4.64883L5.21223 3.99258C5.15598 3.93633 5.16535 3.84258 5.23098 3.78633C5.2966 3.73008 5.38098 3.73945 5.43723 3.7957L6.0091 4.45195C6.05598 4.51758 6.05598 4.61133 5.99035 4.6582ZM5.24035 3.80508C5.1841 3.85195 5.1841 3.92695 5.2216 3.9832L5.79348 4.63945C5.84035 4.68633 5.91535 4.6957 5.9716 4.64883C6.02785 4.60195 6.02785 4.52695 5.99035 4.4707L5.41848 3.81445C5.3716 3.7582 5.2966 3.7582 5.24035 3.80508Z" fill="white"/>
<path d="M7.33123 5.01451C7.2656 5.06139 7.18123 5.04264 7.14373 4.97701L6.04685 3.35514C6.00935 3.28952 6.0281 3.20514 6.08435 3.16764C6.14998 3.12077 6.23435 3.13952 6.27185 3.20514L7.35935 4.82701C7.40623 4.89264 7.38748 4.97701 7.33123 5.01451Z" fill="#F3F3F3"/>
<path d="M7.33054 5.02399C7.26491 5.07086 7.17116 5.05211 7.12429 4.98649L6.03679 3.36461C5.98991 3.29899 6.00866 3.20524 6.08366 3.15836C6.14929 3.11149 6.24304 3.13024 6.28991 3.19586L7.37741 4.81774C7.42429 4.89274 7.40554 4.97711 7.33054 5.02399ZM6.09304 3.17711C6.03679 3.21461 6.01804 3.28961 6.05554 3.34586L7.14304 4.96774C7.18054 5.02399 7.25554 5.03336 7.32116 4.99586C7.37741 4.95836 7.39616 4.88336 7.35866 4.82711L6.27116 3.21461C6.23366 3.15836 6.14929 3.13961 6.09304 3.17711Z" fill="white"/>
<path d="M7.52764 3.62663C7.46201 3.66413 7.37764 3.64538 7.34014 3.57976L6.90889 2.82038C6.87139 2.75476 6.89951 2.67038 6.96514 2.63288C7.03076 2.59538 7.11514 2.61413 7.15264 2.67976L7.58389 3.43913C7.61201 3.50476 7.59326 3.58913 7.52764 3.62663Z" fill="#F3F3F3"/>
<path d="M7.52725 3.63601C7.45225 3.67351 7.36787 3.65476 7.33037 3.58913L6.89912 2.82976C6.86162 2.76413 6.88037 2.67038 6.95537 2.63288C7.03037 2.59538 7.11475 2.61413 7.15225 2.67976L7.5835 3.43913C7.621 3.50476 7.60225 3.58913 7.52725 3.63601ZM6.96475 2.64226C6.9085 2.67976 6.88037 2.75476 6.91787 2.81101L7.34912 3.57038C7.38662 3.62663 7.46162 3.64538 7.51787 3.61726C7.57412 3.57976 7.60225 3.50476 7.56475 3.44851L7.1335 2.68913C7.10537 2.63288 7.021 2.60476 6.96475 2.64226Z" fill="white"/>
<path d="M8.77459 4.24514C8.69959 4.27326 8.62459 4.24514 8.59646 4.17951L7.83708 2.37014C7.80896 2.30451 7.84646 2.22014 7.91208 2.19201C7.98708 2.16389 8.06208 2.19201 8.09021 2.25764L8.84959 4.06701C8.87771 4.13264 8.84021 4.21701 8.77459 4.24514Z" fill="#F3F3F3"/>
<path d="M8.77467 4.25494C8.69967 4.28306 8.6153 4.25494 8.5778 4.17994L7.81842 2.37056C7.79029 2.29556 7.8278 2.21119 7.9028 2.18306C7.9778 2.15494 8.06217 2.18306 8.09967 2.25806L8.85905 4.06744C8.88717 4.13306 8.84967 4.21744 8.77467 4.25494ZM7.92155 2.20181C7.85592 2.22994 7.8278 2.30494 7.85592 2.36119L8.6153 4.17056C8.64342 4.23619 8.71842 4.26431 8.78405 4.23619C8.84967 4.20806 8.8778 4.13306 8.84967 4.07681L8.0903 2.26744C8.0528 2.20181 7.98717 2.17369 7.92155 2.20181Z" fill="white"/>
<path d="M9.23421 2.91383C9.15921 2.94195 9.08421 2.90445 9.05608 2.82945L8.78421 2.00445C8.75608 1.93883 8.80296 1.85445 8.86858 1.8357C8.93421 1.81695 9.01858 1.84508 9.04671 1.92008L9.31858 2.74508C9.34671 2.8107 9.30921 2.8857 9.23421 2.91383Z" fill="#F3F3F3"/>
<path d="M9.2435 2.9236C9.1685 2.95172 9.08413 2.91422 9.056 2.83922L8.78413 2.01422C8.756 1.93922 8.80288 1.85485 8.87788 1.82672C8.95288 1.7986 9.03725 1.8361 9.06538 1.9111L9.33725 2.7361C9.356 2.8111 9.3185 2.89547 9.2435 2.9236ZM8.87788 1.84547C8.81225 1.86422 8.77475 1.93922 8.7935 2.00485L9.06538 2.82985C9.08413 2.89547 9.15913 2.9236 9.22475 2.90485C9.29038 2.8861 9.32788 2.8111 9.30913 2.74547L9.03725 1.92047C9.0185 1.85485 8.9435 1.81735 8.87788 1.84547Z" fill="white"/>
<path d="M10.34 3.76712C10.265 3.78587 10.19 3.739 10.1806 3.664L9.78684 1.74212C9.76809 1.66712 9.82434 1.6015 9.89934 1.58275C9.97434 1.564 10.0493 1.61087 10.0587 1.68587L10.4525 3.60775C10.4618 3.67337 10.415 3.74837 10.34 3.76712Z" fill="#F3F3F3"/>
<path d="M10.3397 3.77658C10.2553 3.79533 10.1803 3.73908 10.1615 3.66408L9.76779 1.74221C9.74904 1.66721 9.80529 1.58283 9.88029 1.57346C9.96467 1.55471 10.0397 1.61096 10.0584 1.68596L10.4522 3.60783C10.4709 3.68283 10.424 3.75783 10.3397 3.77658ZM9.89905 1.59221C9.83342 1.60158 9.78654 1.66721 9.79592 1.74221L10.1897 3.66408C10.199 3.72971 10.274 3.77658 10.3397 3.75783C10.4053 3.74846 10.4522 3.68283 10.4428 3.60783L10.049 1.68596C10.0303 1.62033 9.96467 1.58283 9.89905 1.59221Z" fill="white"/>
<path d="M11.0527 2.54855C10.9777 2.55793 10.9121 2.51105 10.8933 2.43605L10.7808 1.57355C10.7714 1.49855 10.8277 1.43293 10.9027 1.42355C10.9777 1.41418 11.0433 1.46105 11.0621 1.53605L11.1746 2.39855C11.1839 2.47355 11.1277 2.53918 11.0527 2.54855Z" fill="#F3F3F3"/>
<path d="M11.0528 2.55786C10.9684 2.56723 10.8934 2.51098 10.884 2.43598L10.7715 1.57348C10.7622 1.49848 10.8184 1.42348 10.9028 1.41411C10.9872 1.40473 11.0622 1.46098 11.0715 1.53598L11.184 2.39848C11.1934 2.47348 11.1372 2.54848 11.0528 2.55786ZM10.9122 1.43286C10.8465 1.44223 10.7903 1.50786 10.7997 1.57348L10.9122 2.43598C10.9215 2.50161 10.9872 2.54848 11.0528 2.53911C11.1184 2.52973 11.1747 2.46411 11.1653 2.39848L11.0528 1.53598C11.0434 1.47036 10.9778 1.42348 10.9122 1.43286Z" fill="white"/>
<path d="M19.7532 4.94922L10.8001 10.6867H10.7907V10.6961L10.7813 10.7055L5.19385 19.9211L13.4063 13.3117L13.4157 13.3023V13.293L19.7532 4.94922Z" fill="black" fill-opacity="0.05"/>
<path d="M19.5849 4.41455L10.7349 10.7052L13.3599 13.3114L19.5849 4.41455Z" fill="#CD151E"/>
<path d="M10.7437 10.6864L12.0655 11.9895L19.5843 4.41455L10.7437 10.6864Z" fill="#FA5153"/>
<path d="M10.7436 10.6865L13.3686 13.2928L4.51855 19.5834L10.7436 10.6865Z" fill="#ACACAC"/>
<path d="M4.51855 19.5834L12.0654 11.9896L10.7436 10.6865L4.51855 19.5834Z" fill="#EEEEEE"/>
</g>
<defs>
<clipPath id="clip0_1535_210">
<rect width="24" height="24" fill="white"/>
</clipPath>
</defs>
</svg>
