<svg width="24" height="24" viewBox="0 0 24 24" fill="none" xmlns="http://www.w3.org/2000/svg">
<g clip-path="url(#clip0_1873_82)">
<path d="M12 24C18.6274 24 24 18.6274 24 12C24 5.37258 18.6274 0 12 0C5.37258 0 0 5.37258 0 12C0 18.6274 5.37258 24 12 24Z" fill="#107F8C"/>
<path d="M17.8542 12.0004C17.8542 15.3062 15.2127 17.949 11.9999 17.949C8.78705 17.949 6.1456 15.3062 6.1456 12.0004C6.1456 8.69459 8.78705 6.05185 11.9999 6.05185C13.227 6.05185 14.3706 6.43733 15.3156 7.09801L16.7841 5.99576C15.4762 4.92644 13.8119 4.28613 11.9999 4.28613C7.79147 4.28613 4.37988 7.73994 4.37988 12.0004C4.37988 16.2609 7.79147 19.7147 11.9999 19.7147C16.2083 19.7147 19.6199 16.2609 19.6199 12.0004C19.6199 11.5274 19.5779 11.0644 19.4973 10.6149L17.8524 11.8496C17.8536 11.8997 17.8542 11.95 17.8542 12.0004Z" fill="white"/>
<path d="M18.0237 7.2832C18.3853 7.757 18.6914 8.27174 18.9359 8.81709L12.0019 13.9972L9.104 12.1563V9.9414L12.0019 11.7825L18.0237 7.2832Z" fill="white"/>
</g>
<defs>
<clipPath id="clip0_1873_82">
<rect width="24" height="24" fill="white"/>
</clipPath>
</defs>
</svg>
