<svg width="24" height="24" viewBox="0 0 24 24" fill="none" xmlns="http://www.w3.org/2000/svg">
<g clip-path="url(#clip0_1873_63)">
<path d="M12 24C18.6274 24 24 18.6274 24 12C24 5.37258 18.6274 0 12 0C5.37258 0 0 5.37258 0 12C0 18.6274 5.37258 24 12 24Z" fill="#21A038"/>
<path d="M17.8544 12.0004C17.8544 15.3062 15.2129 17.949 12.0001 17.949C8.78729 17.949 6.14584 15.3062 6.14584 12.0004C6.14584 8.69459 8.78729 6.05185 12.0001 6.05185C13.2272 6.05185 14.3709 6.43733 15.3159 7.09801L16.7843 5.99576C15.4764 4.92644 13.8121 4.28613 12.0001 4.28613C7.79172 4.28613 4.38013 7.73994 4.38013 12.0004C4.38013 16.2609 7.79172 19.7147 12.0001 19.7147C16.2085 19.7147 19.6201 16.2609 19.6201 12.0004C19.6201 11.5274 19.5781 11.0644 19.4975 10.6149L17.8526 11.8496C17.8538 11.8997 17.8544 11.95 17.8544 12.0004Z" fill="white"/>
<path d="M18.0237 7.2832C18.3853 7.757 18.6914 8.27174 18.9359 8.81709L12.0019 13.9972L9.104 12.1563V9.9414L12.0019 11.7825L18.0237 7.2832Z" fill="white"/>
</g>
<defs>
<clipPath id="clip0_1873_63">
<rect width="24" height="24" fill="white"/>
</clipPath>
</defs>
</svg>
