<svg width="40" height="40" viewBox="0 0 40 40" fill="none" xmlns="http://www.w3.org/2000/svg">
<g clip-path="url(#clip0_630_606)">
<path fill-rule="evenodd" clip-rule="evenodd" d="M36.474 20.6554C36.4386 20.5824 36.424 20.5449 36.4052 20.5094C35.9049 19.5588 35.4066 18.6102 34.9021 17.6617C34.8521 17.5658 34.8584 17.5095 34.9272 17.4282C35.7214 16.5005 36.5116 15.5686 37.3038 14.6367C37.3309 14.6033 37.3559 14.57 37.3663 14.5116L36.6721 14.693C35.711 14.9473 34.752 15.2017 33.7931 15.4581C33.7034 15.481 33.6638 15.456 33.6179 15.381C33.0717 14.4699 32.5255 13.561 31.9772 12.652C31.9481 12.6041 31.9189 12.5582 31.8584 12.5186C31.8146 12.7604 31.7688 13.0043 31.7271 13.2462L31.2705 15.8167C31.2538 15.9084 31.2309 16.0022 31.2226 16.0939C31.2142 16.1815 31.1704 16.2149 31.0891 16.2399C29.9571 16.5943 28.8272 16.9529 27.6973 17.3114C27.6472 17.3281 27.5993 17.3469 27.5451 17.3948C28.4707 17.7617 29.3942 18.1307 30.3345 18.5039C30.3011 18.531 30.2782 18.5519 30.2532 18.5685C29.6757 18.9417 29.0961 19.3149 28.5186 19.6922C28.4499 19.7381 28.3956 19.7443 28.3164 19.7089C27.6264 19.3983 26.9322 19.0939 26.24 18.7833C25.9294 18.6457 25.65 18.4601 25.4332 18.1954C24.9412 17.5929 25.0392 16.9091 25.6938 16.4921C25.9085 16.3545 26.1525 16.2524 26.3943 16.1732C27.5034 15.8125 28.6145 15.4643 29.7257 15.1141C29.8195 15.0849 29.8612 15.0432 29.88 14.9432C30.028 14.0863 30.1823 13.2295 30.3365 12.3727C30.4199 11.914 30.4637 11.445 30.6868 11.0259C30.7723 10.8654 30.8744 10.707 30.9974 10.5714C31.4394 10.0815 32.0544 10.0628 32.5214 10.5298C32.6798 10.6882 32.8153 10.8737 32.9321 11.0634C33.447 11.9015 33.9515 12.7458 34.456 13.5902C34.5144 13.6902 34.5686 13.7111 34.6791 13.6798C35.9195 13.3483 37.1599 13.021 38.4003 12.6916C38.6568 12.6249 38.9153 12.5999 39.1779 12.6479C39.7492 12.7542 39.9993 13.1899 39.8075 13.7423C39.72 13.9946 39.5678 14.2072 39.3968 14.4074C38.5317 15.4268 37.6665 16.4463 36.7972 17.4615C36.7263 17.5449 36.7242 17.6054 36.7742 17.6971C37.2933 18.6749 37.8062 19.6526 38.3211 20.6324C38.4441 20.8659 38.5379 21.1098 38.5421 21.3788C38.5484 21.9896 38.1001 22.4899 37.4935 22.5796C37.1537 22.6296 36.8368 22.5566 36.5178 22.4587C35.7402 22.2189 34.9626 21.9813 34.1829 21.7478C34.1099 21.7269 34.0828 21.6977 34.0703 21.6206C33.9807 21.0723 33.8827 20.5261 33.7889 19.9778C33.7868 19.9632 33.791 19.9465 33.7931 19.9132C34.6791 20.1592 35.5588 20.401 36.474 20.6554Z" fill="#E25C26"/>
<path fill-rule="evenodd" clip-rule="evenodd" d="M34.9591 28.6401C34.2586 28.638 33.5561 28.6359 32.8556 28.638C32.7639 28.638 32.7117 28.6109 32.6596 28.5316C31.8299 27.2683 30.996 26.0049 30.1621 24.7437C30.135 24.7041 30.1079 24.6644 30.0599 24.5977C29.8806 25.9612 29.7055 27.2933 29.5304 28.6296H27.6938C27.7146 28.4503 27.7334 28.2773 27.7563 28.1064C27.9356 26.7367 28.1149 25.3691 28.2962 23.9994C28.4672 22.6923 28.6402 21.3831 28.8133 20.0759C28.8174 20.0363 28.8445 19.9884 28.8758 19.9675C29.5075 19.5547 30.1412 19.1482 30.775 18.7375C30.7833 18.7313 30.7979 18.7313 30.8292 18.7208C30.6374 20.1822 30.4477 21.6332 30.2559 23.0842C30.2642 23.0884 30.2705 23.0946 30.2788 23.1009C31.2733 21.9981 32.2677 20.8952 33.285 19.7695L33.3643 20.2281C33.4351 20.643 33.5039 21.0599 33.5811 21.4748C33.5957 21.5582 33.5748 21.6103 33.5185 21.6687C32.8764 22.342 32.2343 23.0175 31.5943 23.6909C31.5672 23.7201 31.5401 23.7513 31.5068 23.7847C31.5276 23.818 31.5443 23.8493 31.5651 23.8785L34.884 28.5358C34.9049 28.5629 34.932 28.5859 34.957 28.6109C34.9591 28.6234 34.9591 28.6317 34.9591 28.6401ZM13.1964 24.604C13.1693 24.4601 13.1485 24.2517 13.0859 24.0557C12.7774 23.1071 11.8059 22.586 10.7969 22.8215C9.69198 23.078 8.90186 23.9473 8.7872 25.0751C8.70173 25.909 9.15203 26.7138 9.98801 27.014C10.6614 27.2579 11.3077 27.1557 11.9101 26.7951C12.7065 26.3176 13.1401 25.6068 13.1964 24.604ZM8.34315 28.1314C8.28895 28.54 8.23683 28.9236 8.18679 29.3093C8.12008 29.82 8.05337 30.3329 7.98874 30.8436C7.9804 30.9041 7.96373 30.9291 7.8991 30.9291C7.39459 30.927 6.89008 30.927 6.38557 30.927C6.37515 30.927 6.36264 30.9208 6.33554 30.9124C6.36681 30.6706 6.396 30.4288 6.42727 30.1869C6.53776 29.3384 6.65034 28.49 6.76291 27.6415C6.89217 26.6721 6.99432 25.6964 7.15901 24.7332C7.45088 23.0258 8.89978 21.5561 10.5988 21.1892C11.5828 20.9765 12.5272 21.0745 13.3861 21.6291C14.243 22.1815 14.735 22.9841 14.8476 23.9932C15.006 25.4191 14.4806 26.6033 13.4675 27.5831C12.8024 28.2273 12.006 28.6359 11.0867 28.7735C10.1402 28.9152 9.25001 28.7589 8.45364 28.2002C8.42445 28.1793 8.39318 28.1626 8.34315 28.1314ZM7.52176 20.0196C6.95679 20.4408 6.41059 20.8473 5.86439 21.2538C5.77683 21.1141 5.69761 20.9765 5.60379 20.8473C5.36613 20.5158 5.0701 20.2677 4.64273 20.2364C4.28624 20.2114 3.97978 20.3282 3.73795 20.5929C3.52113 20.8285 3.49195 21.1621 3.69417 21.4289C3.91724 21.7208 4.16324 21.9981 4.41132 22.2691C4.82618 22.7173 5.25773 23.1488 5.67051 23.6012C6.04576 24.0119 6.34388 24.4727 6.43561 25.0334C6.5461 25.7006 6.41268 26.3364 6.09579 26.9243C5.51207 28.0105 4.59061 28.6401 3.37729 28.836C2.84151 28.9236 2.30573 28.9048 1.78246 28.7526C1.08824 28.5483 0.604576 28.0918 0.293949 27.4497C0.183458 27.2224 0.100068 26.9827 0 26.7388C0.608746 26.4135 1.19873 26.0967 1.79913 25.7756C1.81998 25.8256 1.83458 25.8673 1.85334 25.907C1.95549 26.1113 2.03888 26.3281 2.16605 26.5178C2.5413 27.0765 3.14796 27.2454 3.76296 26.9702C3.9214 26.8993 4.07359 26.7992 4.20285 26.6846C4.59895 26.3322 4.674 25.8423 4.38005 25.4004C4.21118 25.146 4.00063 24.9188 3.79424 24.6895C3.30432 24.1453 2.79356 23.6179 2.31407 23.0634C1.98468 22.6798 1.75952 22.2336 1.68864 21.7208C1.61151 21.1621 1.722 20.6346 2.01386 20.1635C2.73727 18.9939 3.78798 18.3852 5.17851 18.4352C5.97071 18.4644 6.60239 18.8355 7.0923 19.4505C7.23823 19.6319 7.37374 19.8216 7.52176 20.0196ZM20.9517 26.301C20.86 27.0056 20.7724 27.6748 20.6828 28.344C20.6786 28.3774 20.6515 28.4232 20.6223 28.4378C19.2547 29.0716 17.4514 28.984 16.3277 27.7061C15.7231 27.0202 15.4709 26.2072 15.5084 25.3024C15.596 23.2072 17.3326 21.3768 19.4111 21.1225C20.6244 20.9724 21.6897 21.3018 22.5132 22.2441C23.074 22.8862 23.3325 23.6533 23.2949 24.4998C23.2699 25.0585 23.1824 25.6151 23.1115 26.1717C23.0135 26.9598 22.9051 27.7478 22.8009 28.5358C22.7967 28.5629 22.7925 28.5921 22.7842 28.6275H21.1477C21.1685 28.4462 21.1893 28.269 21.2123 28.0918C21.3311 27.1807 21.4604 26.2739 21.5646 25.3608C21.6292 24.7937 21.5896 24.2287 21.329 23.7034C21.0538 23.1447 20.5889 22.8486 19.9802 22.784C18.7189 22.6506 17.5202 23.5262 17.2513 24.7666C17.0741 25.5859 17.3534 26.3698 18.0059 26.8055C18.6418 27.2287 19.3235 27.2287 20.0156 26.9556C20.368 26.818 20.6661 26.597 20.9517 26.301ZM27.8439 21.2809C27.7688 21.848 27.6958 22.4067 27.6208 22.9779C27.2747 22.9779 26.9349 22.9758 26.5951 22.9779C26.3199 22.98 26.0697 23.1572 25.9863 23.4136C25.953 23.5137 25.9426 23.6221 25.928 23.7263C25.7549 25.0293 25.584 26.3322 25.413 27.6373C25.3693 27.9667 25.3276 28.294 25.2838 28.6275H23.5805C23.6118 28.3774 23.6431 28.1335 23.6744 27.8916C23.7849 27.0473 23.8953 26.203 24.0079 25.3587C24.1059 24.629 24.1914 23.8952 24.306 23.1676C24.4582 22.1919 25.4297 21.3247 26.4158 21.283C26.887 21.2642 27.3581 21.2809 27.8439 21.2809Z" fill="#3D3B3E"/>
<path d="M36.9694 28.6296V27.9104H36.9652L36.6838 28.6296H36.5942L36.3127 27.9104H36.3086V28.6296H36.1668V27.7686H36.3857L36.6421 28.4233L36.8944 27.7686H37.1112V28.6296H36.9694ZM35.7186 27.8833V28.6296H35.5768V27.8833H35.3079V27.7686H35.9896V27.8833H35.7186ZM9.80519 18.8105H10.2284L10.1283 18.1705L9.80519 18.8105ZM10.293 19.2233H9.59046L9.36739 19.6611H8.86914L9.9678 17.6097H10.4473L10.8205 19.6611H10.3597L10.293 19.2233ZM12.8093 18.0225H12.5591L12.4757 18.4957H12.7259C12.876 18.4957 12.9969 18.3956 12.9969 18.2101C12.9969 18.085 12.9198 18.0225 12.8093 18.0225ZM12.2026 17.6097H12.8593C13.2033 17.6097 13.4452 17.814 13.4452 18.1684C13.4452 18.6124 13.1324 18.9106 12.6842 18.9106H12.4007L12.2673 19.6611H11.8399L12.2026 17.6097ZM14.9003 18.8105H15.3235L15.2234 18.1705L14.9003 18.8105ZM15.3902 19.2233H14.6877L14.4646 19.6611H13.9663L15.065 17.6097H15.5445L15.9177 19.6611H15.4569L15.3902 19.2233ZM18.1671 19.5881C18.0233 19.6548 17.8627 19.6944 17.7022 19.6944C17.1602 19.6944 16.8183 19.2879 16.8183 18.7771C16.8183 18.1246 17.3666 17.5763 18.0191 17.5763C18.1817 17.5763 18.3297 17.6159 18.4506 17.6826L18.3902 18.1746C18.3005 18.0746 18.1546 18.0058 17.9732 18.0058C17.6001 18.0058 17.2665 18.3435 17.2665 18.7354C17.2665 19.0336 17.4541 19.2671 17.7502 19.2671C17.9315 19.2671 18.1066 19.1983 18.2234 19.1003L18.1671 19.5881ZM20.7855 18.8334H19.8933L19.7473 19.659H19.32L19.6827 17.6076H20.1101L19.9662 18.4186H20.8585L21.0024 17.6076H21.4318L21.0691 19.659H20.6417L20.7855 18.8334ZM22.3574 19.6611L22.7181 17.6097H23.8564L23.7834 18.0225H23.0746L23.0016 18.4206H23.6521L23.5791 18.8334H22.9266L22.8536 19.2462H23.5624L23.4895 19.659L22.3574 19.6611Z" fill="#3D3B3E"/>
</g>
<defs>
<clipPath id="clip0_630_606">
<rect width="40" height="20.992" fill="white" transform="translate(0 10)"/>
</clipPath>
</defs>
</svg>
