<svg width="24" height="24" viewBox="0 0 24 24" fill="none" xmlns="http://www.w3.org/2000/svg">
<g clip-path="url(#clip0_1535_2661)">
<path fill-rule="evenodd" clip-rule="evenodd" d="M21.8843 12.3931C21.8631 12.3493 21.8543 12.3268 21.843 12.3056C21.5428 11.7352 21.2439 11.166 20.9412 10.5969C20.9112 10.5394 20.9149 10.5056 20.9562 10.4568C21.4328 9.90018 21.9068 9.34105 22.3822 8.78192C22.3984 8.76191 22.4134 8.7419 22.4197 8.70687L22.0032 8.8157C21.4265 8.9683 20.8511 9.1209 20.2757 9.27476C20.2219 9.28852 20.1982 9.27351 20.1707 9.22848C19.8429 8.68186 19.5152 8.13649 19.1862 7.59112C19.1687 7.56235 19.1512 7.53483 19.1149 7.51106C19.0887 7.65616 19.0612 7.80251 19.0361 7.94761L18.7622 9.4899C18.7522 9.54494 18.7384 9.60123 18.7334 9.65627C18.7284 9.7088 18.7022 9.72881 18.6534 9.74382C17.9742 9.95647 17.2962 10.1716 16.6183 10.3868C16.5882 10.3968 16.5595 10.408 16.5269 10.4368C17.0823 10.6569 17.6364 10.8783 18.2006 11.1022C18.1806 11.1185 18.1668 11.131 18.1518 11.141C17.8053 11.3649 17.4576 11.5888 17.1111 11.8152C17.0698 11.8427 17.0373 11.8465 16.9898 11.8252C16.5757 11.6389 16.1592 11.4562 15.7439 11.2699C15.5575 11.1873 15.3899 11.076 15.2598 10.9171C14.9646 10.5556 15.0234 10.1453 15.4162 9.89518C15.545 9.81262 15.6914 9.75133 15.8365 9.7038C16.5019 9.4874 17.1686 9.27851 17.8353 9.06837C17.8916 9.05086 17.9166 9.02584 17.9279 8.9658C18.0167 8.4517 18.1093 7.9376 18.2018 7.4235C18.2519 7.14832 18.2781 6.86688 18.412 6.61546C18.4633 6.51914 18.5245 6.42408 18.5983 6.34277C18.8635 6.04882 19.2325 6.03756 19.5127 6.31775C19.6078 6.41282 19.6891 6.52414 19.7591 6.63797C20.0681 7.14081 20.3708 7.6474 20.6735 8.154C20.7085 8.21404 20.741 8.22655 20.8073 8.20778C21.5516 8.0089 22.2959 7.81252 23.0401 7.61488C23.194 7.57486 23.3491 7.55985 23.5067 7.58862C23.8494 7.65241 23.9995 7.91384 23.8844 8.24531C23.8319 8.39666 23.7406 8.52425 23.638 8.64433C23.1189 9.25599 22.5998 9.86766 22.0782 10.4768C22.0357 10.5269 22.0344 10.5631 22.0644 10.6182C22.3759 11.2048 22.6836 11.7915 22.9926 12.3794C23.0664 12.5195 23.1227 12.6658 23.1252 12.8272C23.1289 13.1937 22.86 13.4939 22.496 13.5476C22.2921 13.5777 22.102 13.5339 21.9106 13.4751C21.444 13.3313 20.9775 13.1887 20.5096 13.0486C20.4659 13.0361 20.4496 13.0185 20.4421 12.9723C20.3883 12.6433 20.3295 12.3156 20.2732 11.9866C20.272 11.9778 20.2745 11.9678 20.2757 11.9478C20.8073 12.0954 21.3352 12.2405 21.8843 12.3931Z" fill="#E25C26"/>
<path fill-rule="evenodd" clip-rule="evenodd" d="M20.9755 17.1837C20.5552 17.1824 20.1336 17.1812 19.7133 17.1824C19.6583 17.1824 19.627 17.1662 19.5958 17.1186C19.0979 16.3606 18.5976 15.6026 18.0973 14.8459C18.081 14.8221 18.0647 14.7983 18.036 14.7583C17.9284 15.5764 17.8233 16.3756 17.7182 17.1774H16.6163C16.6288 17.0699 16.64 16.966 16.6538 16.8635C16.7613 16.0417 16.8689 15.2211 16.9777 14.3993C17.0803 13.615 17.1841 12.8295 17.288 12.0452C17.2905 12.0214 17.3067 11.9927 17.3255 11.9802C17.7045 11.7325 18.0847 11.4886 18.465 11.2422C18.47 11.2384 18.4788 11.2384 18.4975 11.2322C18.3824 12.109 18.2686 12.9796 18.1535 13.8502C18.1585 13.8527 18.1623 13.8564 18.1673 13.8602C18.764 13.1985 19.3606 12.5368 19.971 11.8613L20.0186 12.1365C20.0611 12.3854 20.1024 12.6356 20.1486 12.8845C20.1574 12.9346 20.1449 12.9658 20.1111 13.0009C19.7259 13.4049 19.3406 13.8102 18.9566 14.2142C18.9403 14.2317 18.9241 14.2505 18.9041 14.2705C18.9166 14.2905 18.9266 14.3092 18.9391 14.3268L20.9304 17.1211C20.9429 17.1374 20.9592 17.1512 20.9742 17.1662C20.9755 17.1737 20.9755 17.1787 20.9755 17.1837ZM7.91786 14.7621C7.9016 14.6757 7.88909 14.5507 7.85157 14.4331C7.66644 13.8639 7.08355 13.5512 6.47814 13.6926C5.81519 13.8464 5.34112 14.368 5.27232 15.0447C5.22104 15.5451 5.49122 16.0279 5.99281 16.208C6.39683 16.3544 6.78459 16.2931 7.14609 16.0767C7.62391 15.7902 7.88409 15.3637 7.91786 14.7621ZM5.00589 16.8785C4.97337 17.1237 4.9421 17.3538 4.91208 17.5852C4.87205 17.8917 4.83202 18.1994 4.79325 18.5058C4.78824 18.5421 4.77824 18.5571 4.73946 18.5571C4.43675 18.5559 4.13405 18.5559 3.83134 18.5559C3.82509 18.5559 3.81758 18.5521 3.80132 18.5471C3.82009 18.402 3.8376 18.2569 3.85636 18.1118C3.92266 17.6027 3.9902 17.0936 4.05775 16.5845C4.1353 16.0029 4.19659 15.4175 4.29541 14.8396C4.47053 13.8152 5.33987 12.9333 6.35931 12.7132C6.94971 12.5856 7.51634 12.6444 8.03169 12.9771C8.54579 13.3086 8.84099 13.7901 8.90853 14.3956C9.0036 15.2511 8.68838 15.9616 8.08047 16.5495C7.68145 16.936 7.20363 17.1812 6.652 17.2637C6.08412 17.3488 5.55001 17.255 5.07218 16.9198C5.05467 16.9073 5.03591 16.8972 5.00589 16.8785ZM4.51306 12.0114C4.17408 12.2641 3.84635 12.508 3.51863 12.7519C3.4661 12.6681 3.41856 12.5856 3.36228 12.508C3.21968 12.3091 3.04206 12.1603 2.78564 12.1415C2.57174 12.1265 2.38787 12.1966 2.24277 12.3554C2.11268 12.4968 2.09517 12.6969 2.2165 12.857C2.35034 13.0321 2.49794 13.1985 2.64679 13.3611C2.89571 13.63 3.15464 13.889 3.4023 14.1604C3.62746 14.4068 3.80633 14.6832 3.86136 15.0197C3.92766 15.42 3.84761 15.8015 3.65748 16.1542C3.30724 16.8059 2.75437 17.1837 2.02637 17.3013C1.7049 17.3538 1.38344 17.3425 1.06947 17.2512C0.652942 17.1287 0.362746 16.8547 0.176369 16.4695C0.110075 16.3331 0.0600407 16.1893 0 16.0429C0.365247 15.8478 0.719237 15.6577 1.07948 15.465C1.09199 15.495 1.10075 15.5201 1.112 15.5438C1.17329 15.6664 1.22333 15.7965 1.29963 15.9103C1.52478 16.2456 1.88878 16.3469 2.25778 16.1818C2.35284 16.1392 2.44415 16.0792 2.52171 16.0104C2.75937 15.799 2.8044 15.5051 2.62803 15.2399C2.52671 15.0873 2.40038 14.9509 2.27654 14.8133C1.98259 14.4869 1.67613 14.1704 1.38844 13.8377C1.19081 13.6075 1.05571 13.3398 1.01319 13.0321C0.966905 12.6969 1.0332 12.3804 1.20832 12.0977C1.64236 11.396 2.27279 11.0308 3.1071 11.0608C3.58243 11.0783 3.96143 11.301 4.25538 11.67C4.34294 11.7788 4.42425 11.8926 4.51306 12.0114ZM12.571 15.7802C12.516 16.203 12.4634 16.6045 12.4097 17.0061C12.4072 17.0261 12.3909 17.0536 12.3734 17.0624C11.5528 17.4426 10.4708 17.3901 9.79663 16.6233C9.43389 16.2118 9.28254 15.724 9.30505 15.1811C9.35759 13.924 10.3995 12.8257 11.6466 12.6731C12.3746 12.5831 13.0138 12.7807 13.5079 13.3461C13.8444 13.7314 13.9995 14.1917 13.977 14.6995C13.962 15.0347 13.9094 15.3687 13.8669 15.7027C13.8081 16.1755 13.7431 16.6483 13.6805 17.1211C13.678 17.1374 13.6755 17.1549 13.6705 17.1762H12.6886C12.7011 17.0674 12.7136 16.961 12.7274 16.8547C12.7987 16.3081 12.8762 15.764 12.9388 15.2161C12.9775 14.8759 12.9538 14.5369 12.7974 14.2217C12.6323 13.8865 12.3534 13.7088 11.9881 13.6701C11.2314 13.59 10.5121 14.1154 10.3508 14.8596C10.2444 15.3512 10.4121 15.8215 10.8036 16.0829C11.1851 16.3369 11.5941 16.3369 12.0094 16.173C12.2208 16.0905 12.3996 15.9579 12.571 15.7802ZM16.7063 12.7682C16.6613 13.1084 16.6175 13.4437 16.5725 13.7864C16.3648 13.7864 16.1609 13.7851 15.9571 13.7864C15.7919 13.7876 15.6418 13.894 15.5918 14.0478C15.5718 14.1079 15.5655 14.1729 15.5568 14.2354C15.453 15.0172 15.3504 15.799 15.2478 16.582C15.2216 16.7797 15.1965 16.9761 15.1703 17.1762H14.1483C14.1671 17.0261 14.1859 16.8797 14.2046 16.7346C14.2709 16.228 14.3372 15.7215 14.4048 15.2149C14.4635 14.7771 14.5148 14.3368 14.5836 13.9002C14.6749 13.3148 15.2578 12.7945 15.8495 12.7695C16.1322 12.7582 16.4149 12.7682 16.7063 12.7682Z" fill="#3D3B3E"/>
<path d="M22.1817 17.1774V16.7459H22.1792L22.0103 17.1774H21.9565L21.7877 16.7459H21.7852V17.1774H21.7001V16.6608H21.8315L21.9853 17.0536L22.1367 16.6608H22.2668V17.1774H22.1817ZM21.4312 16.7296V17.1774H21.3461V16.7296H21.1848V16.6608H21.5938V16.7296H21.4312ZM5.88316 11.2859H6.13709L6.07704 10.9019L5.88316 11.2859ZM6.17586 11.5336H5.75433L5.62049 11.7963H5.32153L5.98073 10.5654H6.26842L6.49233 11.7963H6.21589L6.17586 11.5336ZM7.68563 10.8131H7.53553L7.4855 11.097H7.6356C7.72566 11.097 7.79821 11.037 7.79821 10.9257C7.79821 10.8506 7.75193 10.8131 7.68563 10.8131ZM7.32164 10.5654H7.71565C7.92204 10.5654 8.06714 10.688 8.06714 10.9007C8.06714 11.1671 7.87951 11.346 7.61058 11.346H7.44047L7.36041 11.7963H7.10399L7.32164 10.5654ZM8.94023 11.2859H9.19415L9.13411 10.9019L8.94023 11.2859ZM9.23418 11.5336H8.81265L8.67881 11.7963H8.37985L9.03905 10.5654H9.32674L9.55065 11.7963H9.27421L9.23418 11.5336ZM10.9003 11.7525C10.814 11.7925 10.7177 11.8163 10.6214 11.8163C10.2962 11.8163 10.091 11.5724 10.091 11.2659C10.091 10.8744 10.42 10.5454 10.8115 10.5454C10.9091 10.5454 10.9979 10.5692 11.0704 10.6092L11.0342 10.9044C10.9804 10.8444 10.8928 10.8031 10.784 10.8031C10.5601 10.8031 10.3599 11.0057 10.3599 11.2409C10.3599 11.4198 10.4725 11.5598 10.6501 11.5598C10.759 11.5598 10.864 11.5186 10.9341 11.4598L10.9003 11.7525ZM12.4714 11.2997H11.936L11.8485 11.795H11.592L11.8097 10.5642H12.0661L11.9798 11.0508H12.5152L12.6015 10.5642H12.8591L12.6415 11.795H12.3851L12.4714 11.2997ZM13.4145 11.7963L13.6309 10.5654H14.3139L14.2701 10.8131H13.8448L13.801 11.052H14.1913L14.1475 11.2997H13.756L13.7122 11.5473H14.1375L14.0937 11.795L13.4145 11.7963Z" fill="#3D3B3E"/>
</g>
<defs>
<clipPath id="clip0_1535_2661">
<rect width="24" height="12.5952" fill="white" transform="translate(0 6)"/>
</clipPath>
</defs>
</svg>
