<svg width="24" height="24" viewBox="0 0 24 24" fill="none" xmlns="http://www.w3.org/2000/svg">
<g clip-path="url(#clip0_3707_367)">
<path d="M11.7832 0.00202419C18.4039 -0.11914 23.8702 5.21439 23.9977 11.92C24.1253 18.6255 18.866 24.1684 12.2456 24.3056C5.61396 24.4432 0.130065 19.1053 0.00227297 12.3883C-0.125519 5.67132 5.15127 0.123396 11.7832 0.00202419Z" fill="#FAEAD4"/>
<path d="M4.03722 10.3153C5.5114 10.2855 6.48942 10.5536 7.64618 11.5407C7.78658 11.6626 8.00539 11.8885 8.00443 12.0939C8.00257 12.4895 7.46099 12.8383 7.19278 13.0508C6.2884 13.7673 5.28835 13.8867 4.17653 13.9136C2.9235 13.9139 1.68801 13.7143 0.723045 12.8393C0.557595 12.6893 0.20083 12.3733 0.194498 12.1454C0.189658 11.9714 0.294215 11.8356 0.402685 11.7144C1.40262 10.5971 2.60348 10.373 4.03722 10.3153Z" fill="#164678"/>
<path d="M19.0908 10.3299C19.3421 10.2983 19.6788 10.3257 19.9337 10.3319C21.1775 10.3617 22.4717 10.6673 23.3558 11.6137C23.6141 11.8707 23.8033 12.1004 23.521 12.4422C22.6764 13.4648 21.6382 13.7594 20.3837 13.8844C18.776 14.0215 17.5062 13.827 16.2609 12.7372C16.1038 12.6032 15.8637 12.3835 15.8569 12.1564C15.8455 11.7785 16.3383 11.4367 16.5983 11.2312C17.3458 10.6405 18.154 10.3922 19.0908 10.3299Z" fill="#164678"/>
<path d="M11.9004 0.410645C12.2643 0.438696 12.465 0.700577 12.6912 0.958807C13.4096 1.77884 13.6326 2.73962 13.7079 3.80325C13.7931 5.00679 13.6956 6.19985 12.9763 7.21338C12.7237 7.56779 12.4276 8.10179 11.9732 8.19041C11.6051 8.19591 11.2974 7.7704 11.0918 7.51029C10.6598 6.9638 10.3576 6.37665 10.244 5.68076C10.1604 5.2691 10.1582 4.82952 10.1476 4.4164C10.1143 3.11835 10.3645 1.79809 11.2773 0.8288C11.4689 0.625415 11.6096 0.46357 11.9004 0.410645Z" fill="#164678"/>
<path d="M11.9079 16.043C12.0164 16.0545 12.1151 16.0838 12.203 16.1527C12.9221 16.7149 13.4425 17.6146 13.5973 18.5276C13.8348 19.9953 13.8243 21.6561 12.9551 22.9255C12.7283 23.2568 12.3822 23.7395 11.9776 23.8202C11.6368 23.821 11.42 23.5777 11.2102 23.3347C10.7387 22.7879 10.4134 22.1281 10.2652 21.4178C10.15 20.8729 10.1478 20.5491 10.1449 20.005C10.1394 18.9815 10.2727 17.944 10.8338 17.0669C11.0421 16.7411 11.5272 16.1243 11.9079 16.043Z" fill="#164678"/>
<path d="M8.17198 14.7706C8.41565 14.7384 8.92785 14.7333 9.13019 14.8898C9.25386 14.9855 9.28067 15.1927 9.29077 15.3403C9.37454 16.564 8.76951 17.7123 7.99041 18.6046C7.20661 19.5106 5.847 20.4632 4.61517 20.5301C4.38061 20.5445 3.83365 20.5801 3.65149 20.4233C3.53962 20.3258 3.51124 20.1552 3.49993 20.0137C3.30814 17.6103 5.90263 14.9625 8.17198 14.7706Z" fill="#164678"/>
<path d="M19.1294 3.71245C19.3035 3.69305 19.5042 3.70906 19.6805 3.70367C20.0518 3.69234 20.3074 3.74071 20.3533 4.16991C20.6076 6.54022 18.012 9.20768 15.7956 9.45966C15.5171 9.50234 14.9807 9.5199 14.7436 9.35865C14.6452 9.29182 14.5999 9.112 14.5882 8.99527C14.3489 6.59794 16.8813 3.98417 19.1294 3.71245Z" fill="#164678"/>
<path d="M3.93977 3.71043C4.13976 3.69625 4.66029 3.69003 4.85911 3.72736C6.86362 4.10379 8.77299 5.97587 9.23378 7.98354C9.30634 8.29962 9.36284 8.98016 9.19313 9.26625C9.11841 9.39223 8.96259 9.43962 8.82417 9.46489C6.54805 9.73688 4.09705 7.40703 3.57939 5.26796C3.49544 4.92106 3.41241 4.23489 3.58755 3.90635C3.65407 3.7816 3.80832 3.73513 3.93977 3.71043Z" fill="#164678"/>
<path d="M15.0737 14.7695C15.1688 14.7574 15.3757 14.7595 15.476 14.7608C16.4553 14.7736 17.3628 15.2316 18.1334 15.8283C19.1664 16.6283 20.1192 17.8822 20.3313 19.2139C20.3746 19.4857 20.4212 20.1571 20.2476 20.3731C20.1583 20.4843 20.0433 20.5107 19.9119 20.5277C18.7671 20.6186 17.8737 20.2812 16.9491 19.6021C15.8584 18.801 14.8346 17.4707 14.6134 16.0947C14.5711 15.8313 14.5186 15.1527 14.6857 14.9344C14.7832 14.807 14.9284 14.7872 15.0737 14.7695Z" fill="#164678"/>
<path d="M11.9916 21.4869C12.0139 21.4914 12.0375 21.4974 12.0596 21.5015C12.4508 21.5725 12.5234 22.0716 12.4073 22.3884C12.3312 22.5959 12.2118 22.6998 12.0228 22.7872C11.469 22.817 11.3497 21.7563 11.9916 21.4869Z" fill="#9CC1E3"/>
<path d="M2.04981 11.5365C2.09745 11.5564 2.14216 11.5585 2.18479 11.5748C2.51012 11.6995 2.57172 12.1347 2.47207 12.4289C2.40046 12.6403 2.27963 12.7481 2.09564 12.8413C1.54008 12.8943 1.38088 11.8706 2.04981 11.5365Z" fill="#9CC1E3"/>
<path d="M22.1365 11.5472C22.1727 11.5446 22.254 11.5919 22.2861 11.6143C22.6901 11.8968 22.7148 12.7491 22.1525 12.8552C22.086 12.8428 22.0377 12.8114 21.9788 12.7756C21.5986 12.5447 21.5587 11.7975 21.9773 11.5862C22.0115 11.569 22.0943 11.5551 22.1365 11.5472Z" fill="#9CC1E3"/>
<path d="M11.9992 1.47217C12.0357 1.48035 12.1188 1.49979 12.149 1.51364C12.564 1.70354 12.5379 2.41034 12.2085 2.67061C12.1472 2.7191 12.095 2.74501 12.0257 2.77718C11.4363 2.78144 11.3696 1.74446 11.9992 1.47217Z" fill="#9CC1E3"/>
<path d="M4.89771 18.2435C5.33467 18.255 5.44196 18.7818 5.33067 19.1229C5.26331 19.3293 5.15665 19.4373 4.97119 19.5353C4.43435 19.6495 4.21602 18.5814 4.89771 18.2435Z" fill="#9CC1E3"/>
<path d="M18.7438 4.84317C18.7822 4.83807 18.8478 4.85475 18.8857 4.86641C19.2187 4.96857 19.2771 5.43072 19.1854 5.71849C19.1198 5.92412 19.0021 6.03904 18.8205 6.1345C18.2552 6.20968 18.0876 5.18967 18.7438 4.84317Z" fill="#9CC1E3"/>
<path d="M4.91668 4.52109C4.96092 4.53502 5.024 4.54234 5.06374 4.56042C5.38758 4.70774 5.43102 5.16246 5.31276 5.4594C5.23814 5.64675 5.11245 5.75406 4.93341 5.82765C4.3729 5.85898 4.27158 4.76613 4.91668 4.52109Z" fill="#9CC1E3"/>
<path d="M18.9468 18.2528C18.9922 18.2435 19.0652 18.2826 19.1033 18.3095C19.5075 18.5965 19.5481 19.4385 18.9794 19.5527C18.4947 19.4511 18.3494 18.7155 18.6734 18.3784C18.764 18.2841 18.8265 18.2723 18.9468 18.2528Z" fill="#9CC1E3"/>
<path d="M2.00885 11.9378C2.01803 11.9379 2.0272 11.9385 2.03633 11.9395C2.27899 11.9649 2.24465 12.3222 2.03945 12.4663C1.82109 12.4582 1.78145 12.095 2.00885 11.9378Z" fill="#FAEAD4"/>
<path d="M22.146 11.9302C22.3391 12.0115 22.3407 12.1008 22.3382 12.2975C22.2876 12.3881 22.2653 12.4176 22.1791 12.4732C21.9525 12.3458 21.9046 12.0849 22.146 11.9302Z" fill="#FAEAD4"/>
<path d="M11.9693 1.85449C12.2444 1.92442 12.2046 2.25515 11.9906 2.408C11.7149 2.35379 11.7253 1.99739 11.9693 1.85449Z" fill="#FAEAD4"/>
<path d="M11.9592 21.8872C12.1043 21.926 12.1103 21.9899 12.1515 22.1256C12.1079 22.2579 12.0981 22.2876 11.9992 22.3835L11.9483 22.3833C11.8879 22.355 11.8661 22.3154 11.8247 22.2615C11.8182 22.1844 11.8216 22.1049 11.8228 22.0273C11.877 21.955 11.8895 21.9436 11.9592 21.8872Z" fill="#FAEAD4"/>
<path d="M4.88543 18.6321C5.01562 18.6437 5.09049 18.803 5.061 18.9219C5.02779 19.0558 5.00265 19.0926 4.89818 19.1691C4.64363 19.1198 4.65123 18.7757 4.88543 18.6321Z" fill="#FAEAD4"/>
<path d="M18.7208 5.23271C18.9941 5.24276 18.9633 5.6059 18.7556 5.76881C18.5176 5.76392 18.4949 5.39576 18.7208 5.23271Z" fill="#FAEAD4"/>
<path d="M4.83753 4.89471C5.06444 4.88962 5.06611 4.96416 5.11996 5.17336C5.08616 5.29592 5.0558 5.39426 4.95039 5.46715C4.79611 5.4877 4.7831 5.46533 4.69829 5.34329C4.67007 5.15172 4.65683 5.0019 4.83753 4.89471Z" fill="#FAEAD4"/>
<path d="M18.9635 18.6313C19.0172 18.6427 19.0653 18.6831 19.1121 18.7155C19.2062 18.9181 19.1792 19.0247 19.0232 19.1688C18.8581 19.1469 18.7874 18.9667 18.8224 18.8171C18.8468 18.7125 18.883 18.6878 18.9635 18.6313Z" fill="#FAEAD4"/>
<path d="M3.51027 7.78777C3.96156 7.77027 3.75375 8.22373 3.61728 8.44721C3.44 8.73749 3.38223 8.63398 3.16304 8.7904L3.16918 8.80436C3.35293 8.80067 3.47639 8.79212 3.65579 8.84987C3.81009 8.89955 4.05576 9.01439 4.12886 9.1693C4.15326 9.22033 4.1547 9.27955 4.13282 9.33175C3.96554 9.73013 3.64147 9.35446 3.42814 9.2553C3.13539 9.11922 3.02204 9.4379 2.93298 9.65496C2.78279 9.9086 2.5412 9.90168 2.41956 9.62532C2.47991 9.32727 2.61067 9.27175 2.68515 9.0373C2.78784 8.71406 2.21324 8.69868 2.13322 8.48433C2.10676 8.43464 2.08064 8.34318 2.11037 8.28549C2.30824 7.90168 2.66139 8.31481 2.83006 8.36148C3.25017 8.47773 3.16496 7.94925 3.51027 7.78777Z" fill="#FBA93C"/>
<path d="M21.495 7.81865C22.033 7.79482 21.639 8.51892 21.4329 8.67997C21.3783 8.7227 21.1684 8.77488 21.1336 8.83791C21.3087 8.84603 21.4147 8.81422 21.6009 8.87091C21.7889 8.92884 21.9993 9.01949 22.1083 9.19398C22.1797 9.30828 22.0726 9.49626 21.9621 9.52731C21.6907 9.60357 21.4648 9.16773 21.1863 9.277C21.0441 9.33284 20.9785 9.53424 20.9248 9.66699C20.8287 9.86074 20.5684 9.96917 20.4441 9.74437C20.3197 9.5196 20.6024 9.29854 20.6604 9.09673C20.7742 8.70174 20.2147 8.76974 20.1021 8.50126C20.0424 8.3628 20.1022 8.23065 20.2406 8.17652C20.4553 8.09256 20.6141 8.3201 20.8 8.38786C21.1379 8.51103 21.187 8.13077 21.3343 7.9328C21.3784 7.87419 21.4321 7.84767 21.495 7.81865Z" fill="#FBA93C"/>
<path d="M21.5068 14.6783C21.7523 14.674 21.8019 14.824 21.7403 15.0462C21.6866 15.2396 21.5364 15.4812 21.3656 15.5859C21.3172 15.6156 21.2053 15.6199 21.1289 15.6635L21.1268 15.6875C21.1739 15.7151 21.3892 15.6989 21.4745 15.7089C21.5533 15.7187 21.6309 15.7373 21.7057 15.7646C21.9257 15.8443 22.3799 16.1173 21.9645 16.3811C21.7582 16.5122 21.4203 16.0037 21.1859 16.1334C21.0331 16.218 20.9818 16.3863 20.9227 16.5314C20.8479 16.668 20.6872 16.7844 20.5482 16.711C20.222 16.5388 20.5841 16.1496 20.6519 15.979C20.8104 15.5805 20.1857 15.6202 20.0788 15.3206C20.0183 15.2226 20.161 15.0542 20.2539 15.0256C20.5438 14.9368 20.8346 15.4906 21.1114 15.179C21.2727 14.9977 21.2253 14.7923 21.5068 14.6783Z" fill="#FBA93C"/>
<path d="M8.53451 1.94028C8.76279 1.96123 8.81193 2.08979 8.74913 2.30816C8.68328 2.5111 8.5437 2.74207 8.36333 2.85793C8.30787 2.89355 8.15764 2.8568 8.13584 2.95595C8.16327 2.97424 8.38541 2.9586 8.46797 2.96763C8.55472 2.97761 8.63988 2.99865 8.72143 3.03026C8.92184 3.10789 9.39115 3.406 8.9696 3.64615C8.77351 3.75785 8.41374 3.29356 8.19755 3.38745C8.0483 3.45227 7.97216 3.68845 7.91587 3.82067C7.77972 4.01499 7.53017 4.0935 7.42731 3.81628C7.36891 3.6589 7.55418 3.4473 7.62625 3.31416C7.71663 3.14717 7.70407 2.98931 7.51894 2.89745C7.39368 2.83218 7.12932 2.75059 7.09088 2.59647C7.04493 2.41225 7.22691 2.23147 7.41544 2.29396C7.60482 2.35308 7.76987 2.57959 7.98637 2.52921C8.14341 2.49266 8.21224 2.267 8.28696 2.14211C8.35915 2.02148 8.39732 1.97688 8.53451 1.94028Z" fill="#FBA93C"/>
<path d="M16.1625 1.93896C16.4512 1.96078 16.4214 2.19029 16.338 2.40677C16.2762 2.56708 16.1506 2.73392 16.0177 2.83985C15.9404 2.9015 15.8229 2.85146 15.7591 2.94234L15.7662 2.95811C15.8712 2.98063 15.9853 2.94915 16.0884 2.96218C16.2854 2.97103 16.8996 3.22915 16.7343 3.51868C16.4888 3.94908 16.1059 3.26974 15.8232 3.39676C15.669 3.46609 15.5975 3.68464 15.5416 3.8161C15.4187 4.03391 15.123 4.07655 15.0504 3.80257C14.9842 3.5525 15.3775 3.31471 15.2944 3.05838C15.216 2.81648 14.7904 2.84726 14.7144 2.58981C14.6782 2.45691 14.7941 2.29697 14.9263 2.28323C15.1783 2.25703 15.355 2.59314 15.613 2.52939C15.7637 2.48929 15.8343 2.27437 15.9072 2.15205C15.981 2.02717 16.016 1.97751 16.1625 1.93896Z" fill="#FBA93C"/>
<path d="M8.73883 20.2118C9.25106 20.1859 8.96294 20.7127 8.81532 20.9364C8.71421 21.0897 8.44589 21.156 8.41284 21.2136C8.51329 21.2483 8.76154 21.1958 8.94758 21.2816C9.09745 21.3506 9.29007 21.432 9.37615 21.6043C9.39428 21.6467 9.3985 21.7044 9.37788 21.7464C9.12419 22.2642 8.77733 21.5118 8.44102 21.6669C8.29958 21.7322 8.23348 21.9322 8.17824 22.0654C8.07841 22.2369 7.84265 22.3494 7.71204 22.1485C7.56333 21.9199 7.87798 21.6731 7.92684 21.4627C8.00234 21.0861 7.50066 21.1551 7.372 20.901C7.32128 20.8007 7.33938 20.6131 7.45038 20.5703C7.68965 20.4735 7.89592 20.7245 8.09072 20.78C8.48229 20.8915 8.41712 20.3692 8.73883 20.2118Z" fill="#FBA93C"/>
<path d="M3.59798 14.5569C4.15402 14.5331 3.75145 15.2314 3.55749 15.4054C3.50625 15.4515 3.3325 15.4951 3.25304 15.5601C3.27512 15.5793 3.46771 15.5694 3.51939 15.5721C3.61124 15.5776 3.70192 15.5957 3.78898 15.6258C3.97565 15.6899 4.51013 15.9679 4.08109 16.2624C3.91798 16.3743 3.49905 15.8873 3.28972 16.005C3.1478 16.0846 3.09279 16.2669 3.0374 16.3985C2.89782 16.669 2.64003 16.6756 2.51398 16.3898C2.57251 16.1079 2.6917 16.0593 2.77538 15.8033C2.88377 15.4716 2.31169 15.4774 2.19746 15.2072C2.1804 15.1743 2.15988 15.1158 2.18072 15.0774C2.40602 14.6636 2.74728 15.0768 2.93442 15.1283C3.33724 15.2387 3.27405 14.7124 3.59798 14.5569Z" fill="#FBA93C"/>
<path d="M15.9732 20.1823C16.5462 20.1249 16.1487 20.8483 15.9448 21.0269C15.8349 21.1231 15.7129 21.0923 15.6328 21.1669L15.6346 21.1897C15.72 21.221 15.9451 21.1663 16.1208 21.2294C16.2921 21.2911 16.4957 21.3615 16.6031 21.5409C16.6312 21.5928 16.6423 21.6747 16.6157 21.7295C16.4404 22.09 16.0837 21.7268 15.8852 21.6345C15.6189 21.5109 15.5141 21.8123 15.4367 22.0044C15.3164 22.2386 15.0311 22.3411 14.9234 22.0377C14.8474 21.8125 15.2662 21.4999 15.1653 21.2912C15.014 20.9781 14.709 21.1534 14.5674 20.7523C14.7524 20.2332 15.0921 20.6939 15.355 20.7558C15.7039 20.8378 15.6809 20.3555 15.9563 20.1922L15.9732 20.1823Z" fill="#FBA93C"/>
<path d="M12.0571 10.055C12.2015 10.0659 12.3069 10.1243 12.3671 10.2654C12.4791 10.5276 12.4937 11.2119 12.1942 11.3505C12.1222 11.3508 11.9981 11.3533 11.9399 11.3111C11.7516 11.1705 11.7623 10.8552 11.7671 10.6423C11.7724 10.4071 11.791 10.1216 12.0571 10.055Z" fill="#FBA93C"/>
<path d="M12.0138 12.9943C12.4156 12.9683 12.4415 13.3464 12.4403 13.6599C12.4393 13.91 12.4214 14.1619 12.1725 14.2832C11.8446 14.3199 11.7783 14.013 11.7661 13.7515C11.7537 13.4848 11.7679 13.1451 12.0138 12.9943Z" fill="#FBA93C"/>
<path d="M10.3588 11.8578C10.5484 11.8413 10.9787 11.8313 11.1234 11.9362C11.5155 12.2204 11.1782 12.4371 10.886 12.4948C10.6136 12.5278 10.0492 12.5511 9.97247 12.1979C9.92606 11.9843 10.2037 11.8845 10.3588 11.8578Z" fill="#FBA93C"/>
<path d="M13.3515 11.8586C13.5787 11.848 13.8564 11.8196 14.0614 11.937C14.1813 12.0056 14.2867 12.1646 14.1891 12.2968C14.0901 12.4307 13.9573 12.4646 13.8038 12.4942C13.5748 12.5309 13.2686 12.53 13.0605 12.411C12.9383 12.3411 12.8392 12.1654 12.9419 12.0362C13.047 11.9039 13.1954 11.8796 13.3515 11.8586Z" fill="#FBA93C"/>
<path d="M12.7791 12.667C13.2265 12.6606 14.0258 13.5347 13.4886 13.7508C12.9997 13.7461 12.2359 12.8504 12.7791 12.667Z" fill="#FBA93C"/>
<path d="M13.3314 10.6143C13.6962 10.5761 13.7471 10.7743 13.5988 11.0666C13.4576 11.3448 13.2137 11.5552 12.9202 11.6523C12.6224 11.7157 12.5119 11.5474 12.6401 11.2754C12.7794 10.9798 13.033 10.7377 13.3314 10.6143Z" fill="#FBA93C"/>
<path d="M10.6769 10.6103C11.0361 10.5923 11.3352 10.906 11.5176 11.1923C11.6257 11.3619 11.6419 11.561 11.4355 11.6618C11.0922 11.6989 10.7886 11.389 10.6193 11.1154C10.5116 10.9412 10.4665 10.7279 10.6769 10.6103Z" fill="#FBA93C"/>
<path d="M11.42 12.6698C11.8731 12.7169 11.316 13.7108 10.7155 13.7522C10.3608 13.627 10.5951 13.2496 10.7449 13.0497C10.8889 12.8575 11.1821 12.6937 11.42 12.6698Z" fill="#FBA93C"/>
</g>
<defs>
<clipPath id="clip0_3707_367">
<rect width="24" height="24" fill="white"/>
</clipPath>
</defs>
</svg>
