<svg width="24" height="24" viewBox="0 0 24 24" fill="none" xmlns="http://www.w3.org/2000/svg">
<path d="M11.6689 15.7V12.0334C8.19203 12.0334 6.13908 10.5 6.13908 7.99997C6.13908 5.43333 8.22514 3.66667 11.8013 3.66667C14.8808 3.66667 17.1656 5.03333 18.4901 6.46669L21.1722 4C19.5828 1.96667 16.702 0 11.8344 0C5.70861 0 2.16556 3.4 2.16556 7.96662C2.16556 12.2333 5.11258 15.7 11.6689 15.7ZM12.0332 24C18.159 24 22 20.9334 22 15.9667C22 11.0334 18.1259 8.36661 11.6689 8.36661V12.0334C14.5497 12.0334 18.0265 12.8667 18.0265 16.0667C18.0265 18.7667 15.8411 20.3333 12 20.3333C8.98681 20.3333 6.27156 19.1 4.54967 17.2667L2 19.8667C4.08609 22.4333 7.72844 24 12.0332 24Z" fill="#7572FF"/>
</svg>
