<svg width="24" height="24" viewBox="0 0 24 24" fill="none" xmlns="http://www.w3.org/2000/svg">
<path d="M2 5.95937V17.9778L11.9828 24L21.9998 17.9811V5.95898L12.0001 0L2 5.95937Z" fill="white"/>
<path d="M19.0929 7.99355L16.932 9.29163C17.2256 10.8791 16.9541 12.5224 16.1674 13.9201C15.3874 15.2766 14.034 16.3416 12.2515 17.0025V20.0376C17.3069 18.0388 20.286 12.7941 19.0929 7.99355ZM15.7561 13.6684C16.4543 12.4266 16.7133 10.9735 16.4889 9.55676L14.1482 10.9483C14.1366 12.1411 13.4491 13.2082 12.2515 13.8907V16.4899C13.842 15.8656 15.0522 14.892 15.7561 13.6684ZM19.5215 7.73599C20.8837 12.8922 17.7057 18.5025 12.2515 20.5638V23.8395L22.0001 17.9814V6.24707L19.5215 7.73599Z" fill="#08B1D5"/>
<path d="M9.87839 10.9333L7.53547 9.5381C7.39371 10.943 7.69984 12.3572 8.40748 13.5665C9.16323 14.8934 10.3278 15.9214 11.7157 16.4868V13.8949C11.1659 13.6354 10.7002 13.2181 10.3744 12.6929C10.0486 12.1677 9.87636 11.5568 9.87839 10.9333ZM7.99706 13.82C7.19732 12.4558 6.87583 10.8499 7.0863 9.27065L4.91116 7.97567C3.66183 12.9401 6.56433 18.0864 11.7157 20.0391V17.0304C10.1523 16.4378 8.83764 15.3028 7.99706 13.82ZM4.48211 7.72025L2 6.24219V17.9776L11.7157 23.8387V20.5643C6.25057 18.5808 3.08775 12.9636 4.48211 7.72025Z" fill="#1904DA"/>
<path d="M15.6001 4.37757C11.9055 2.52033 7.31882 3.90415 5.10945 7.52531L7.22119 8.78227C8.80251 6.24856 11.9621 5.24469 14.4567 6.49895C15.4408 6.99425 16.2534 7.7898 16.784 8.77761L18.8876 7.52511C18.8735 7.50475 18.8602 7.48419 18.8479 7.46383C18.0748 6.13522 16.9473 5.06389 15.6001 4.37757ZM14.2469 6.94231C11.9751 5.80035 9.09143 6.71733 7.63594 9.02915L9.99165 10.4312C10.2161 10.0756 10.5218 9.78229 10.8818 9.57699C11.2419 9.3717 11.6454 9.26069 12.0568 9.25374C12.3945 9.25317 12.7279 9.33232 13.0315 9.48512C13.4413 9.69184 13.7801 10.0231 14.0018 10.4343L16.3696 9.0243C15.8865 8.12179 15.1453 7.39478 14.2469 6.94231ZM11.9999 0.00292969L2.23779 5.81606L4.69451 7.27841C7.02915 3.43499 11.8922 1.9645 15.8094 3.93421C17.2382 4.66082 18.4342 5.79586 19.2546 7.20394C19.2685 7.22721 19.2854 7.25145 19.3041 7.27686L21.7598 5.81471L11.9999 0.00292969Z" fill="#FFC900"/>
<path d="M13.6517 10.779C13.4708 10.4129 13.182 10.1154 12.8269 9.92898C12.6136 9.81866 12.3804 9.75544 12.1421 9.74335C11.9039 9.73126 11.6658 9.77057 11.443 9.85878C10.9736 10.0251 10.5781 10.3606 10.3293 10.8035C10.3237 10.8792 10.3223 10.9551 10.3252 11.031C10.3543 11.5275 10.5069 12.0079 10.7681 12.4261C11.0294 12.8442 11.3906 13.186 11.817 13.4186L11.9678 13.4929L12.0987 13.4208C13.0509 12.8713 13.618 12.0005 13.6545 11.0314C13.6547 11.0287 13.6586 10.9328 13.6517 10.779Z" fill="#FF445F"/>
</svg>
