<svg width="24" height="24" viewBox="0 0 24 24" fill="none" xmlns="http://www.w3.org/2000/svg">
<g clip-path="url(#clip0_3277_12)">
<path d="M23.4402 0.316895H0.560304H0.47168V13.5412C0.47168 15.0346 1.33344 16.8654 2.85805 17.9161L12.0056 23.683L21.1424 17.9161C22.667 16.8654 23.5288 15.0346 23.5288 13.5412V0.316895H23.4402Z" fill="#FADE55"/>
<path d="M9.43024 16.3192H11.9551H14.667C14.4681 15.9847 14.0324 15.1151 13.8805 14.3124V9.07873H16.077C16.3934 9.13296 17.1237 9.38787 17.5142 9.97361V6.28564H11.9551H6.58301V9.97361C6.9735 9.38787 7.70384 9.13296 8.02019 9.07873H10.2167V14.3124C10.0648 15.1151 9.62912 15.9847 9.43024 16.3192Z" fill="#333333"/>
</g>
<defs>
<clipPath id="clip0_3277_12">
<rect width="24" height="24" fill="white"/>
</clipPath>
</defs>
</svg>
