<svg width="24" height="24" viewBox="0 0 24 24" fill="none" xmlns="http://www.w3.org/2000/svg">
<path d="M12 24C18.6274 24 24 18.6274 24 12C24 5.37258 18.6274 0 12 0C5.37258 0 0 5.37258 0 12C0 18.6274 5.37258 24 12 24Z" fill="#E95420"/>
<path d="M5.8125 12C5.8125 12.9375 5.0625 13.5 4.3125 13.5C3.375 13.5 2.8125 12.75 2.8125 12C2.8125 11.0625 3.5625 10.5 4.3125 10.5C5.0625 10.5 5.8125 11.0625 5.8125 12ZM14.625 19.5C15 20.0625 15.9375 20.4375 16.6875 20.0625C17.4375 19.6875 17.625 18.75 17.25 18C16.6875 17.0625 15.75 16.875 15.1875 17.25C14.4375 17.8125 14.0625 18.75 14.625 19.5ZM17.25 6C17.625 5.25 17.4375 4.3125 16.6875 3.9375C15.9375 3.5625 15 3.75 14.625 4.5C14.0625 5.25 14.4375 6.1875 15.1875 6.5625C15.75 6.9375 16.6875 6.75 17.25 6ZM12 7.5C14.25 7.5 16.125 9.1875 16.3125 11.4375H18.5625C18.5625 9.9375 17.8125 8.4375 16.6875 7.3125C16.125 7.5 15.375 7.5 14.8125 7.125C14.25 6.75 13.875 6.1875 13.6875 5.625C13.125 5.4375 12.5625 5.4375 12 5.4375C10.875 5.4375 9.9375 5.625 9 6L10.125 7.875C10.6875 7.6875 11.4375 7.5 12 7.5ZM7.6875 12C7.6875 10.5 8.4375 9.1875 9.5625 8.4375L8.4375 6.5625C6.9375 7.3125 6 8.625 5.625 10.3125C6.1875 10.6875 6.375 11.25 6.375 12C6.375 12.75 6 13.3125 5.625 13.6875C6 15.1875 6.9375 16.6875 8.25 17.4375L9.375 15.5625C8.4375 14.8125 7.6875 13.5 7.6875 12ZM12 16.3125C11.25 16.3125 10.6875 16.125 10.125 15.9375L9 17.8125C9.9375 18.1875 10.875 18.5625 12 18.5625C12.5625 18.5625 13.125 18.5625 13.6875 18.375C13.875 17.625 14.25 17.0625 14.8125 16.6875C15.375 16.3125 16.125 16.3125 16.6875 16.5C17.8125 15.375 18.5625 13.875 18.5625 12.1875H16.3125C16.125 14.625 14.25 16.3125 12 16.3125Z" fill="white"/>
</svg>
