<svg width="24" height="24" viewBox="0 0 24 24" fill="none" xmlns="http://www.w3.org/2000/svg">
<g clip-path="url(#clip0_3360_80)">
<path d="M2.68461 8.16552C2.41347 7.52156 1.64523 7.26397 0.967374 7.52156C0.289516 7.77914 0.0183733 8.55189 0.379897 9.15292L3.27209 15.1203C3.72399 16.0648 4.22109 16.5799 5.1249 16.5799C6.0739 16.5799 6.48061 16.0218 6.97771 15.1203C6.97771 15.1203 9.50838 9.88274 9.55357 9.83981C9.59876 9.79688 9.64395 9.62516 9.91509 9.62516C10.141 9.62516 10.2766 9.79688 10.2766 10.0115V15.0773C10.2766 15.8501 10.7285 16.537 11.5871 16.537C12.4909 16.537 12.9429 15.893 12.9429 15.0773V10.956C12.9429 10.1403 13.5755 9.62516 14.3438 9.62516C15.1572 9.62516 15.6995 10.1833 15.6995 10.956V15.1203C15.6995 15.893 16.1514 16.5799 17.01 16.5799C17.9138 16.5799 18.3657 15.936 18.3657 15.1203V10.956C18.3657 10.1403 18.9984 9.62516 19.7666 9.62516C20.58 9.62516 21.1223 10.1833 21.1223 10.956V15.1203C21.1223 15.893 21.5742 16.5799 22.4329 16.5799C23.3367 16.5799 23.7886 15.936 23.7886 15.1203V10.3979C23.7886 8.63775 22.3425 7.4357 20.5349 7.4357C18.7272 7.4357 17.6427 8.59482 17.6427 8.59482C17.01 7.865 16.2418 7.4357 14.8409 7.4357C13.3948 7.4357 12.0842 8.59482 12.0842 8.59482C11.4968 7.865 10.4574 7.4357 9.68914 7.4357C8.4238 7.4357 7.38442 7.9938 6.75176 9.32464L4.89895 13.446L2.68461 8.16552Z" fill="white"/>
</g>
<defs>
<clipPath id="clip0_3360_80">
<rect width="24" height="24" fill="white"/>
</clipPath>
</defs>
</svg>
