<svg width="24" height="24" viewBox="0 0 24 24" fill="none" xmlns="http://www.w3.org/2000/svg">
<g clip-path="url(#clip0_3330_68)">
<path d="M23.7588 11.9998C23.7588 5.50569 18.4943 0.241211 12.0002 0.241211C5.50618 0.241211 0.241699 5.50569 0.241699 11.9998C0.241699 18.4938 5.50618 23.7583 12.0002 23.7583C18.4943 23.7583 23.7588 18.4938 23.7588 11.9998Z" fill="#26D367"/>
<path d="M4.65088 19.3496L5.7045 15.4319C4.85478 13.9058 4.58482 12.125 4.94415 10.4162C5.30348 8.70738 6.268 7.18527 7.66072 6.12913C9.05344 5.07301 10.781 4.55372 12.5263 4.66654C14.2715 4.77937 15.9175 5.51675 17.1622 6.74337C18.4068 7.96999 19.1667 9.60358 19.3022 11.3443C19.4378 13.0852 18.9401 14.8163 17.9003 16.2203C16.8606 17.6243 15.3485 18.6068 13.6417 18.9877C11.9348 19.3685 10.1477 19.122 8.60819 18.2935L4.65088 19.3496ZM8.79901 16.8275L9.04374 16.9725C10.1589 17.6323 11.4612 17.9054 12.748 17.7491C14.0348 17.5928 15.2337 17.016 16.1578 16.1084C17.0819 15.2009 17.6793 14.0137 17.857 12.7317C18.0347 11.4499 17.7826 10.1453 17.1401 9.02133C16.4975 7.89738 15.5007 7.0172 14.3047 6.51794C13.1088 6.01868 11.7811 5.9284 10.5284 6.26114C9.2757 6.5939 8.16846 7.331 7.3792 8.35759C6.58995 9.38418 6.16302 10.6425 6.16495 11.9367C6.1639 13.0097 6.46115 14.062 7.02361 14.9764L7.17708 15.229L6.58805 17.4156L8.79901 16.8275Z" fill="white"/>
<path fill-rule="evenodd" clip-rule="evenodd" d="M14.739 12.9427C14.5955 12.8273 14.4275 12.746 14.2478 12.705C14.0681 12.6642 13.8814 12.6647 13.7019 12.7068C13.4324 12.8186 13.2581 13.2409 13.0839 13.4522C13.0472 13.5028 12.9932 13.5383 12.932 13.552C12.871 13.5657 12.8069 13.5567 12.752 13.5267C11.7649 13.1407 10.9375 12.4329 10.4041 11.5182C10.3587 11.4612 10.3372 11.3886 10.3442 11.316C10.3511 11.2434 10.386 11.1763 10.4415 11.1289C10.6359 10.9368 10.7785 10.699 10.8564 10.4373C10.8736 10.1487 10.8074 9.86117 10.6655 9.60907C10.5558 9.25564 10.3471 8.94093 10.064 8.70214C9.91802 8.63657 9.75612 8.6146 9.59787 8.63884C9.43963 8.66309 9.29179 8.73253 9.17219 8.8388C8.96457 9.01763 8.79976 9.24069 8.68993 9.49154C8.58008 9.74239 8.52801 10.0146 8.53753 10.2882C8.53816 10.4419 8.55767 10.5948 8.5956 10.7438C8.69193 11.1015 8.84005 11.4433 9.03531 11.7584C9.17617 11.9997 9.32987 12.2333 9.49574 12.4583C10.0348 13.197 10.7124 13.8243 11.491 14.3053C11.8817 14.5496 12.2992 14.7484 12.7355 14.8975C13.1886 15.1025 13.6888 15.1812 14.1831 15.1252C14.4648 15.0827 14.7316 14.9717 14.9602 14.802C15.1888 14.6322 15.372 14.409 15.4939 14.152C15.5656 13.9968 15.5873 13.8232 15.5561 13.6551C15.4815 13.3114 15.021 13.1084 14.739 12.9427Z" fill="white"/>
</g>
<defs>
<clipPath id="clip0_3330_68">
<rect width="24" height="24" fill="white"/>
</clipPath>
</defs>
</svg>
