<svg width="24" height="24" viewBox="0 0 24 24" fill="none" xmlns="http://www.w3.org/2000/svg">
<g clip-path="url(#clip0_1535_3073)">
<g clip-path="url(#clip1_1535_3073)">
<path d="M12 0.720001C14.256 0.720001 16.452 1.39201 18.312 2.65201C20.124 3.87601 21.552 5.60401 22.404 7.62001C23.892 11.136 23.496 15.156 21.36 18.312C20.136 20.124 18.408 21.552 16.392 22.404C12.876 23.892 8.85599 23.496 5.7 21.36C3.888 20.136 2.46 18.408 1.608 16.392C0.12 12.876 0.516 8.85599 2.652 5.70001C3.876 3.88801 5.60401 2.46001 7.62 1.60801C8.99999 1.02001 10.5 0.720001 12 0.720001ZM12 0C5.376 0 0 5.37601 0 12C0 18.624 5.376 24 12 24C18.624 24 24 18.624 24 12C24 5.37601 18.624 0 12 0Z" fill="black"/>
<path d="M1.80005 12.0063C1.80005 15.9105 4.02809 19.4842 7.55378 21.1855L2.68147 7.85728C2.09386 9.16682 1.80005 10.5743 1.80005 12.0063ZM18.8898 11.4922C18.8898 10.2316 18.4369 9.36264 18.0452 8.67729C17.6534 7.99191 17.0413 7.12295 17.0413 6.2907C17.0413 5.45845 17.7513 4.47933 18.7552 4.47933H18.8898C14.7398 0.673022 8.2883 0.954517 4.48104 5.11576C4.11378 5.51964 3.77101 5.94801 3.4772 6.40085H4.13827C5.20332 6.40085 6.85599 6.26622 6.85599 6.26622C7.40688 6.2295 7.46809 7.03727 6.9172 7.11071C6.9172 7.11071 6.36631 7.1719 5.75421 7.20862L9.46352 18.2604L11.6916 11.5656L10.1001 7.20862C9.54921 7.1719 9.03505 7.11071 9.03505 7.11071C8.48417 7.07399 8.54538 6.24174 9.09626 6.26622C9.09626 6.26622 10.7857 6.40085 11.7773 6.40085C12.7689 6.40085 14.495 6.26622 14.495 6.26622C15.0459 6.2295 15.1071 7.03727 14.5562 7.11071C14.5562 7.11071 14.0053 7.1719 13.3932 7.20862L17.078 18.1747L18.1308 14.8457C18.596 13.3893 18.8776 12.3612 18.8776 11.48L18.8898 11.4922ZM12.169 12.8875L9.1085 21.7852C11.1652 22.3849 13.3565 22.3359 15.3764 21.6261L15.3029 21.4914L12.169 12.8875ZM20.9465 7.11071C20.9955 7.4534 21.02 7.80833 21.02 8.16326C21.02 9.20353 20.8241 10.3662 20.2487 11.8104L17.127 20.8183C21.9014 18.0401 23.603 11.9573 20.9465 7.11071Z" fill="black"/>
</g>
</g>
<defs>
<clipPath id="clip0_1535_3073">
<rect width="24" height="24" fill="white"/>
</clipPath>
<clipPath id="clip1_1535_3073">
<rect width="24" height="24" fill="white"/>
</clipPath>
</defs>
</svg>
