<svg width="24" height="24" viewBox="0 0 24 24" fill="none" xmlns="http://www.w3.org/2000/svg">
<g clip-path="url(#clip0_1535_687)">
<path fill-rule="evenodd" clip-rule="evenodd" d="M23.9852 12.0002C23.9852 18.6193 18.6193 23.9852 12.0002 23.9852C5.38105 23.9852 0.0151367 18.6193 0.0151367 12.0002C0.0151367 5.38105 5.38105 0.0151367 12.0002 0.0151367C18.6193 0.0151367 23.9852 5.38105 23.9852 12.0002Z" fill="url(#paint0_linear_1535_687)"/>
<path fill-rule="evenodd" clip-rule="evenodd" d="M23.4047 12.0002C23.4047 18.2987 18.2987 23.4047 12.0002 23.4047C5.70168 23.4047 0.595703 18.2987 0.595703 12.0002C0.595703 5.70168 5.70168 0.595703 12.0002 0.595703C18.2987 0.595703 23.4047 5.70168 23.4047 12.0002Z" fill="white"/>
<path fill-rule="evenodd" clip-rule="evenodd" d="M19.7158 7.05621L13.3019 13.3296V21.1292C13.3019 21.2697 12.6933 21.3821 12.0004 21.3914C11.3356 21.3821 10.6989 21.2697 10.6989 21.1292V13.3296L4.28505 7.05621C4.18204 6.9532 4.50977 6.46631 5.01538 5.96069C5.521 5.45507 6.01724 5.12737 6.11087 5.23035L11.991 10.9701L17.8712 5.23035C17.9742 5.12737 18.4611 5.45507 18.9667 5.96069C19.4723 6.46631 19.8094 6.9532 19.7158 7.05621Z" fill="#EC1C24"/>
</g>
<defs>
<linearGradient id="paint0_linear_1535_687" x1="12.0002" y1="0.0151367" x2="12.0002" y2="23.9852" gradientUnits="userSpaceOnUse">
<stop stop-color="#F5F5F6"/>
<stop offset="1" stop-color="#EDEDEE"/>
</linearGradient>
<clipPath id="clip0_1535_687">
<rect width="24" height="24" fill="white"/>
</clipPath>
</defs>
</svg>
