<svg width="40" height="40" viewBox="0 0 40 40" fill="none" xmlns="http://www.w3.org/2000/svg">
<path fill-rule="evenodd" clip-rule="evenodd" d="M39.9754 20C39.9754 31.0318 31.0323 39.975 20.0004 39.975C8.96859 39.975 0.0253906 31.0318 0.0253906 20C0.0253906 8.96816 8.96859 0.0249634 20.0004 0.0249634C31.0323 0.0249634 39.9754 8.96816 39.9754 20Z" fill="url(#paint0_linear_9621_124586)"/>
<path fill-rule="evenodd" clip-rule="evenodd" d="M39.0081 20C39.0081 30.4975 30.4981 39.0075 20.0007 39.0075C9.50313 39.0075 0.993164 30.4975 0.993164 20C0.993164 9.50246 9.50313 0.992493 20.0007 0.992493C30.4981 0.992493 39.0081 9.50246 39.0081 20Z" fill="white"/>
<path fill-rule="evenodd" clip-rule="evenodd" d="M32.8598 11.7603L22.17 22.216V35.2153C22.17 35.4494 21.1556 35.6367 20.0008 35.6523C18.8928 35.6367 17.8316 35.4494 17.8316 35.2153V22.216L7.14191 11.7603C6.97022 11.5886 7.51644 10.7771 8.35914 9.93444C9.20183 9.09174 10.0289 8.54557 10.185 8.71721L19.9852 18.2834L29.7855 8.71721C29.9571 8.54557 30.7686 9.09174 31.6113 9.93444C32.454 10.7771 33.0158 11.5886 32.8598 11.7603Z" fill="#EC1C24"/>
<defs>
<linearGradient id="paint0_linear_9621_124586" x1="20.0004" y1="0.0249634" x2="20.0004" y2="39.975" gradientUnits="userSpaceOnUse">
<stop stop-color="#F5F5F6"/>
<stop offset="1" stop-color="#EDEDEE"/>
</linearGradient>
</defs>
</svg>
