<svg width="16" height="16" viewBox="0 0 16 16" fill="none" xmlns="http://www.w3.org/2000/svg">
<path d="M8.66665 2.99998C8.66665 3.36817 8.36817 3.66665 7.99998 3.66665C7.63179 3.66665 7.33331 3.36817 7.33331 2.99998C7.33331 2.63179 7.63179 2.33331 7.99998 2.33331C8.36817 2.33331 8.66665 2.63179 8.66665 2.99998Z" fill="black"/>
<path d="M8.66665 7.99998C8.66665 8.36817 8.36817 8.66665 7.99998 8.66665C7.63179 8.66665 7.33331 8.36817 7.33331 7.99998C7.33331 7.63179 7.63179 7.33331 7.99998 7.33331C8.36817 7.33331 8.66665 7.63179 8.66665 7.99998Z" fill="black"/>
<path d="M8.66665 13C8.66665 13.3682 8.36817 13.6666 7.99998 13.6666C7.63179 13.6666 7.33331 13.3682 7.33331 13C7.33331 12.6318 7.63179 12.3333 7.99998 12.3333C8.36817 12.3333 8.66665 12.6318 8.66665 13Z" fill="black"/>
<path d="M8.66665 2.99998C8.66665 3.36817 8.36817 3.66665 7.99998 3.66665C7.63179 3.66665 7.33331 3.36817 7.33331 2.99998C7.33331 2.63179 7.63179 2.33331 7.99998 2.33331C8.36817 2.33331 8.66665 2.63179 8.66665 2.99998Z" stroke="black" stroke-width="1.5"/>
<path d="M8.66665 7.99998C8.66665 8.36817 8.36817 8.66665 7.99998 8.66665C7.63179 8.66665 7.33331 8.36817 7.33331 7.99998C7.33331 7.63179 7.63179 7.33331 7.99998 7.33331C8.36817 7.33331 8.66665 7.63179 8.66665 7.99998Z" stroke="black" stroke-width="1.5"/>
<path d="M8.66665 13C8.66665 13.3682 8.36817 13.6666 7.99998 13.6666C7.63179 13.6666 7.33331 13.3682 7.33331 13C7.33331 12.6318 7.63179 12.3333 7.99998 12.3333C8.36817 12.3333 8.66665 12.6318 8.66665 13Z" stroke="black" stroke-width="1.5"/>
</svg>
