<svg width="24" height="24" viewBox="0 0 24 24" fill="none" xmlns="http://www.w3.org/2000/svg">
<path d="M4.76529 7.11005C4.42793 7.30171 4.42793 7.78789 4.76529 7.97954L11.753 11.9493C11.9062 12.0363 12.0938 12.0363 12.247 11.9493L19.2348 7.97954C19.5721 7.78789 19.5721 7.30171 19.2348 7.11005L12.247 3.14033C12.0938 3.05332 11.9062 3.05332 11.753 3.14033L4.76529 7.11005Z" fill="black"/>
<path d="M11.1796 13.8254C11.1796 13.6455 11.083 13.4795 10.9266 13.3906L5.06949 10.0632C4.73617 9.87383 4.32251 10.1146 4.32251 10.4979V16.8135C4.32251 16.9933 4.41913 17.1594 4.57553 17.2482L10.4324 20.5755C10.7658 20.7649 11.1794 20.5241 11.1794 20.1408L11.1796 13.8254Z" fill="black"/>
<path d="M12.7905 13.8255C12.7905 13.6456 12.8871 13.4796 13.0435 13.3907L18.9006 10.0633C19.234 9.87394 19.6476 10.1147 19.6476 10.498L19.6476 16.8138C19.6476 16.9937 19.551 17.1597 19.3946 17.2486L13.538 20.5757C13.2047 20.7651 12.791 20.5243 12.791 20.141L12.7905 13.8255Z" fill="black"/>
</svg>
