<svg width="24" height="24" viewBox="0 0 24 24" fill="none" xmlns="http://www.w3.org/2000/svg">
<path d="M2 20L3.88889 16.25H11.1111L13 20M22 17L20.1111 13.25H12.8889L12.0556 15.1105M10.0278 10.625C10.0278 9.17525 8.89605 8 7.5 8C6.10395 8 4.97222 9.17525 4.97222 10.625C4.97222 12.0747 6.10395 13.25 7.5 13.25C8.89605 13.25 10.0278 12.0747 10.0278 10.625ZM19.0278 7.625C19.0278 6.17525 17.8961 5 16.5 5C15.1039 5 13.9722 6.17525 13.9722 7.625C13.9722 9.07475 15.1039 10.25 16.5 10.25C17.8961 10.25 19.0278 9.07475 19.0278 7.625Z" stroke="black" stroke-width="1.5"/>
</svg>
