<svg width="20" height="20" viewBox="0 0 20 20" fill="none" xmlns="http://www.w3.org/2000/svg">
<path fill-rule="evenodd" clip-rule="evenodd" d="M8 9.58824C9.76731 9.58824 11.2 8.11341 11.2 6.29412C11.2 4.47483 9.76731 3 8 3C6.23269 3 4.8 4.47483 4.8 6.29412C4.8 8.11341 6.23269 9.58824 8 9.58824ZM16 5.47059H14.4V7.52941L12.4 7.52941V9.17647H14.4V11.2353H16V9.17647H18V7.52941H16V5.47059ZM4.16569 11.4765L2.23431 13.4647C2.08429 13.6191 2 13.8286 2 14.047V16.5882C2 16.8156 2.17909 17 2.4 17H13.6C13.8209 17 14 16.8156 14 16.5882V14.047C14 13.8286 13.9157 13.6191 13.7657 13.4647L11.8343 11.4765C11.6843 11.3221 11.4808 11.2353 11.2686 11.2353H4.73137C4.5192 11.2353 4.31571 11.3221 4.16569 11.4765Z" fill="#D2D2D2"/>
</svg>
