<svg width="20" height="20" viewBox="0 0 20 20" fill="none" xmlns="http://www.w3.org/2000/svg">
<path fill-rule="evenodd" clip-rule="evenodd" d="M6.11101 4.17971C7.26215 3.41054 8.61553 3 10 3C11.8565 3 13.637 3.7375 14.9497 5.05025C16.2625 6.36301 17 8.14348 17 10C17 11.3845 16.5895 12.7378 15.8203 13.889C15.0511 15.0401 13.9579 15.9373 12.6788 16.4672C11.3997 16.997 9.99224 17.1356 8.63437 16.8655C7.2765 16.5954 6.02922 15.9287 5.05026 14.9497C4.07129 13.9708 3.4046 12.7235 3.13451 11.3656C2.86441 10.0078 3.00303 8.6003 3.53285 7.32122C4.06266 6.04213 4.95987 4.94888 6.11101 4.17971ZM10.5 6C10.7761 6 11 6.22386 11 6.5V8.5C11 8.77614 11.2239 9 11.5 9H13.5C13.7761 9 14 9.22386 14 9.5V10.5C14 10.7761 13.7761 11 13.5 11H11.5C11.2239 11 11 11.2239 11 11.5V13.5C11 13.7761 10.7761 14 10.5 14H9.5C9.22386 14 9 13.7761 9 13.5V11.5C9 11.2239 8.77614 11 8.5 11H6.5C6.22386 11 6 10.7761 6 10.5V9.5C6 9.22386 6.22386 9 6.5 9H8.5C8.77614 9 9 8.77614 9 8.5V6.5C9 6.22386 9.22386 6 9.5 6H10.5Z" fill="#D2D2D2"/>
</svg>
