<svg width="20" height="20" viewBox="0 0 20 20" fill="none" xmlns="http://www.w3.org/2000/svg">
<path d="M2.64645 2.85355L4.35355 1.14645C4.44732 1.05268 4.5745 1 4.70711 1H15.2929C15.4255 1 15.5527 1.05268 15.6464 1.14645L17.3536 2.85355C17.4473 2.94732 17.5 3.0745 17.5 3.20711V18.5C17.5 18.7761 17.2761 19 17 19H15.7071C15.5745 19 15.4473 18.9473 15.3536 18.8536L10.3536 13.8536C10.1583 13.6583 9.84171 13.6583 9.64645 13.8536L4.64645 18.8536C4.55268 18.9473 4.4255 19 4.29289 19H3C2.72386 19 2.5 18.7761 2.5 18.5V3.20711C2.5 3.0745 2.55268 2.94732 2.64645 2.85355Z" fill="#D2D2D2"/>
</svg>
