<svg width="20" height="20" viewBox="0 0 20 20" fill="none" xmlns="http://www.w3.org/2000/svg">
<path d="M3.14916 6.29755L4.3207 5.14376C4.41424 5.05164 4.54025 5 4.67154 5H12.3285C12.4597 5 12.5858 5.05164 12.6793 5.14376L13.8508 6.29755C13.9463 6.39153 14 6.51986 14 6.65379V17.5C14 17.7761 13.7761 18 13.5 18H12.7382C12.6069 18 12.4809 17.9484 12.3874 17.8562L8.85084 14.3733C8.65622 14.1816 8.34378 14.1816 8.14916 14.3733L4.61264 17.8562C4.5191 17.9484 4.39308 18 4.26179 18H3.5C3.22386 18 3 17.7761 3 17.5V6.65379C3 6.51986 3.05373 6.39153 3.14916 6.29755Z" fill="#D2D2D2"/>
<path fill-rule="evenodd" clip-rule="evenodd" d="M7.3207 2.14376L6.14916 3.29755C6.05373 3.39153 6 3.51986 6 3.65379V4H13.3285C13.4597 4 13.5858 4.05164 13.6793 4.14376L14.8508 5.29755C14.9463 5.39153 15 5.51986 15 5.65379V14.4747L15.3874 14.8562C15.4809 14.9484 15.6069 15 15.7382 15H16.5C16.7761 15 17 14.7761 17 14.5V3.65379C17 3.51986 16.9463 3.39153 16.8508 3.29755L15.6793 2.14376C15.5858 2.05164 15.4597 2 15.3285 2H7.67154C7.54025 2 7.41424 2.05164 7.3207 2.14376Z" fill="#D2D2D2"/>
</svg>
