<svg width="20" height="20" viewBox="0 0 20 20" fill="none" xmlns="http://www.w3.org/2000/svg">
<path fill-rule="evenodd" clip-rule="evenodd" d="M3.95454 4.07828C3.95338 4.07817 3.9557 4.07838 3.95454 4.07828V4.07828ZM5.32497 4.34252C4.78995 4.19453 4.78995 3.61401 5.32497 3.46603C6.47958 3.14667 8.13278 2.93618 10 2.93618C11.8672 2.93618 13.5204 3.14667 14.675 3.46603C15.21 3.61401 15.21 4.19453 14.675 4.34252C13.5204 4.66188 11.8672 4.87236 10 4.87236C8.13278 4.87236 6.47958 4.66188 5.32497 4.34252ZM16.0455 4.07828C16.0443 4.07838 16.0466 4.07817 16.0455 4.07828V4.07828ZM16.0455 3.73027C16.0466 3.73037 16.0443 3.73016 16.0455 3.73027V3.73027ZM3.95454 3.73027C3.9557 3.73016 3.95338 3.73037 3.95454 3.73027V3.73027ZM4.77553 1.60434C6.15442 1.22295 8.00123 1 10 1C11.9988 1 13.8456 1.22295 15.2245 1.60434C15.9071 1.79316 16.5322 2.0362 17.0097 2.34841C17.4522 2.6378 18 3.14564 18 3.90427C18 4.20142 17.9132 4.49224 17.8698 4.7864L16.106 16.7394C16.0396 17.1892 15.7495 17.5788 15.3298 17.782C11.9746 19.406 8.02539 19.406 4.67021 17.782C4.25047 17.5788 3.9604 17.1892 3.89403 16.7394L2.13017 4.7864C2.08676 4.49224 2 4.20142 2 3.90427C2 3.14564 2.54781 2.6378 2.99033 2.34841C3.46776 2.0362 4.09289 1.79316 4.77553 1.60434ZM8.3125 7.51387C8.3125 7.39166 8.41324 7.29259 8.5375 7.29259H11.4625C11.5868 7.29259 11.6875 7.39166 11.6875 7.51387V10.3905C11.6875 10.5127 11.5868 10.6118 11.4625 10.6118H8.5375C8.41324 10.6118 8.3125 10.5127 8.3125 10.3905V7.51387ZM5.5 13.1011C5.5 12.0318 6.38144 11.165 7.46875 11.165C8.55606 11.165 9.4375 12.0318 9.4375 13.1011C9.4375 14.1705 8.55606 15.0373 7.46875 15.0373C6.38144 15.0373 5.5 14.1705 5.5 13.1011ZM12.6003 11.3647C12.4385 11.0984 12.0615 11.0984 11.8997 11.3647L10.0634 14.3872C9.8915 14.6702 10.0893 15.0373 10.4137 15.0373H14.0863C14.4107 15.0373 14.6085 14.6702 14.4366 14.3872L12.6003 11.3647Z" fill="#D2D2D2"/>
</svg>
