<svg width="20" height="20" viewBox="0 0 20 20" fill="none" xmlns="http://www.w3.org/2000/svg">
<path fill-rule="evenodd" clip-rule="evenodd" d="M5 2.5C5 2.22386 5.22386 2 5.5 2H6.5C6.77614 2 7 2.22386 7 2.5V3.5C7 3.77614 7.22386 4 7.5 4H12.5C12.7761 4 13 3.77614 13 3.5V2.5C13 2.22386 13.2239 2 13.5 2H14.5C14.7761 2 15 2.22386 15 2.5V3.5C15 3.77614 15.2239 4 15.5 4H15.7929C15.9255 4 16.0527 4.05268 16.1464 4.14645L17.8536 5.85355C17.9473 5.94732 18 6.0745 18 6.20711V15.7929C18 15.9255 17.9473 16.0527 17.8536 16.1464L16.1464 17.8536C16.0527 17.9473 15.9255 18 15.7929 18H4.20711C4.0745 18 3.94732 17.9473 3.85355 17.8536L2.14645 16.1464C2.05268 16.0527 2 15.9255 2 15.7929V6.20711C2 6.0745 2.05268 5.94732 2.14645 5.85355L3.85355 4.14645C3.94732 4.05268 4.0745 4 4.20711 4H4.5C4.77614 4 5 3.77614 5 3.5V2.5ZM4.5 9C4.22386 9 4 9.22386 4 9.5V15.5C4 15.7761 4.22386 16 4.5 16H15.5C15.7761 16 16 15.7761 16 15.5V9.5C16 9.22386 15.7761 9 15.5 9H4.5Z" fill="#D2D2D2"/>
</svg>
