<svg width="20" height="20" viewBox="0 0 20 20" fill="none" xmlns="http://www.w3.org/2000/svg">
<path d="M2.14645 5.35355L3.85355 3.64645C3.94732 3.55268 4.0745 3.5 4.20711 3.5H15.7929C15.9255 3.5 16.0527 3.55268 16.1464 3.64645L17.8536 5.35355C17.9473 5.44732 18 5.5745 18 5.70711V17C18 17.2761 17.7761 17.5 17.5 17.5H17.3784C17.2746 17.5 17.1733 17.4677 17.0886 17.4075L13.1294 14.592C13.0452 14.5321 12.9445 14.4998 12.8412 14.4995L4.20405 14.4718C4.07325 14.4714 3.94783 14.4198 3.85467 14.328L2.14902 12.6469C2.05368 12.5529 2 12.4246 2 12.2908V5.70711C2 5.5745 2.05268 5.44732 2.14645 5.35355Z" fill="#D2D2D2"/>
</svg>
