<svg width="20" height="20" viewBox="0 0 20 20" fill="none" xmlns="http://www.w3.org/2000/svg">
<path d="M12.149 3H7.849C6.56336 3.00185 5.33092 3.51346 4.42193 4.42264C3.51294 5.33182 3.00159 6.56436 3 7.85V12.15C3.00159 13.436 3.51322 14.6688 4.42264 15.5781C5.33206 16.4873 6.56501 16.9987 7.851 17H12.151C13.4366 16.9981 14.6691 16.4865 15.5781 15.5774C16.4871 14.6682 16.9984 13.4356 17 12.15V7.85C16.9984 6.56401 16.4868 5.33117 15.5774 4.42193C14.6679 3.5127 13.435 3.00132 12.149 3ZM14.037 8.534L9.562 13.009C9.45278 13.1183 9.32309 13.2051 9.18033 13.2642C9.03756 13.3234 8.88454 13.3539 8.73 13.3539C8.57546 13.3539 8.42244 13.3234 8.27968 13.2642C8.13691 13.2051 8.00722 13.1183 7.898 13.009L5.963 11.074C5.75983 10.8657 5.64691 10.5858 5.64872 10.2948C5.65052 10.0039 5.7669 9.72537 5.97264 9.51964C6.17837 9.3139 6.45689 9.19752 6.74784 9.19572C7.03879 9.19391 7.31873 9.30683 7.527 9.51L8.627 10.61C8.64094 10.6241 8.65753 10.6352 8.67581 10.6428C8.69409 10.6504 8.7137 10.6544 8.7335 10.6544C8.7533 10.6544 8.77291 10.6504 8.79119 10.6428C8.80947 10.6352 8.82606 10.6241 8.84 10.61L12.473 6.97C12.5752 6.86521 12.6972 6.78175 12.832 6.72447C12.9667 6.6672 13.1114 6.63723 13.2578 6.63633C13.4042 6.63542 13.5493 6.66358 13.6848 6.71919C13.8202 6.77479 13.9432 6.85673 14.0468 6.96024C14.1503 7.06376 14.2322 7.1868 14.2878 7.32223C14.3434 7.45765 14.3716 7.60277 14.3707 7.74916C14.3698 7.89555 14.3398 8.04031 14.2825 8.17503C14.2252 8.30976 14.1418 8.43177 14.037 8.534Z" fill="#D2D2D2"/>
</svg>
