<svg width="20" height="20" viewBox="0 0 20 20" fill="none" xmlns="http://www.w3.org/2000/svg">
<path fill-rule="evenodd" clip-rule="evenodd" d="M4 10C4 6.68857 6.68857 4 10 4C13.3114 4 16 6.68857 16 10C16 13.3114 13.3114 16 10 16C6.68857 16 4 13.3114 4 10ZM10 2C5.584 2 2 5.584 2 10C2 14.416 5.584 18 10 18C14.416 18 18 14.416 18 10C18 5.584 14.416 2 10 2ZM12.6019 6.98151C12.7535 6.80101 13.0186 6.76797 13.2097 6.90575L13.9715 7.45473C14.1837 7.60768 14.2212 7.90874 14.053 8.10911L9.8728 13.0893C9.7873 13.1911 9.66112 13.25 9.52813 13.25H8.83279C8.71937 13.25 8.61013 13.2071 8.52693 13.13L5.98838 10.7778C5.79619 10.5997 5.79619 10.2957 5.98838 10.1176L6.66798 9.4879C6.84053 9.328 7.10713 9.328 7.27969 9.4879L9.09007 11.1654L12.6019 6.98151Z" fill="#D2D2D2"/>
</svg>
