<svg width="20" height="20" viewBox="0 0 20 20" fill="none" xmlns="http://www.w3.org/2000/svg">
<path d="M6.11095 4.69647C5.91569 4.50121 5.5991 4.50121 5.40384 4.69647L4.69673 5.40358C4.50147 5.59884 4.50147 5.91542 4.69673 6.11068L13.8891 15.3031C14.0844 15.4983 14.401 15.4983 14.5962 15.3031L15.3033 14.596C15.4986 14.4007 15.4986 14.0841 15.3033 13.8889L6.11095 4.69647Z" fill="#D2D2D2"/>
<path d="M15.3034 6.11083C15.4987 5.91557 15.4987 5.59899 15.3034 5.40373L14.5963 4.69662C14.401 4.50136 14.0845 4.50136 13.8892 4.69662L4.69681 13.889C4.50155 14.0843 4.50155 14.4009 4.69682 14.5961L5.40392 15.3032C5.59918 15.4985 5.91577 15.4985 6.11103 15.3032L15.3034 6.11083Z" fill="#D2D2D2"/>
</svg>
