<svg width="20" height="20" viewBox="0 0 20 20" fill="none" xmlns="http://www.w3.org/2000/svg">
<path fill-rule="evenodd" clip-rule="evenodd" d="M2.14645 3.85355C2.05268 3.94732 2 4.0745 2 4.20711V12.7929C2 12.9255 2.05268 13.0527 2.14645 13.1464L2.85355 13.8536C2.94732 13.9473 3.0745 14 3.20711 14L1 14C0.723858 14 0.5 14.2239 0.5 14.5V15.5C0.5 15.7761 0.723858 16 1 16H19C19.2761 16 19.5 15.7761 19.5 15.5V14.5C19.5 14.2239 19.2761 14 19 14L16.7929 14C16.9255 14 17.0527 13.9473 17.1464 13.8536L17.8536 13.1464C17.9473 13.0527 18 12.9255 18 12.7929V4.20711C18 4.0745 17.9473 3.94732 17.8536 3.85355L17.1464 3.14645C17.0527 3.05268 16.9255 3 16.7929 3H3.20711C3.0745 3 2.94732 3.05268 2.85355 3.14645L2.14645 3.85355ZM4 11.5V5.5C4 5.22386 4.22386 5 4.5 5H15.5C15.7761 5 16 5.22386 16 5.5V11.5C16 11.7761 15.7761 12 15.5 12H4.5C4.22386 12 4 11.7761 4 11.5Z" fill="#D2D2D2"/>
</svg>
