<svg width="20" height="20" viewBox="0 0 20 20" fill="none" xmlns="http://www.w3.org/2000/svg">
<path fill-rule="evenodd" clip-rule="evenodd" d="M12.5 17.5C12.5 18.8807 11.3807 20 10 20C8.61929 20 7.5 18.8807 7.5 17.5C7.5 16.1193 8.61929 15 10 15C11.3807 15 12.5 16.1193 12.5 17.5ZM10 5C11.3807 5 12.5 3.88071 12.5 2.5C12.5 1.11929 11.3807 1.15383e-06 10 1.03312e-06C8.61929 9.12415e-07 7.5 1.11929 7.5 2.5C7.5 3.88071 8.61929 5 10 5ZM16.5 18C17.3284 18 18 17.3284 18 16.5C18 15.6716 17.3284 15 16.5 15C15.6716 15 15 15.6716 15 16.5C15 17.3284 15.6716 18 16.5 18ZM5 3.5C5 4.32843 4.32843 5 3.5 5C2.67157 5 2 4.32843 2 3.5C2 2.67157 2.67157 2 3.5 2C4.32843 2 5 2.67157 5 3.5ZM2 16.5C2 17.3284 2.67157 18 3.5 18C4.32843 18 5 17.3284 5 16.5C5 15.6716 4.32843 15 3.5 15C2.67157 15 2 15.6716 2 16.5ZM16.5 5C15.6716 5 15 4.32843 15 3.5C15 2.67157 15.6716 2 16.5 2C17.3284 2 18 2.67157 18 3.5C18 4.32843 17.3284 5 16.5 5ZM15 10C15 11.3807 16.1193 12.5 17.5 12.5C18.8807 12.5 20 11.3807 20 10C20 8.61929 18.8807 7.5 17.5 7.5C16.1193 7.5 15 8.61929 15 10ZM2.5 12.5C1.11929 12.5 7.53522e-07 11.3807 8.74228e-07 10C9.94934e-07 8.61929 1.11929 7.5 2.5 7.5C3.88071 7.5 5 8.61929 5 10C5 11.3807 3.88071 12.5 2.5 12.5ZM9 8C9 7.44772 9.44771 7 10 7C10.5523 7 11 7.44771 11 8L11 9L12 9C12.5523 9 13 9.44772 13 10C13 10.5523 12.5523 11 12 11L11 11L11 12C11 12.5523 10.5523 13 10 13C9.44772 13 9 12.5523 9 12L9 11L8 11C7.44772 11 7 10.5523 7 10C7 9.44771 7.44771 9 8 9L9 9L9 8Z" fill="#C4C4C4"/>
</svg>
