<svg width="20" height="20" viewBox="0 0 20 20" fill="none" xmlns="http://www.w3.org/2000/svg">
<path fill-rule="evenodd" clip-rule="evenodd" d="M8.87146 13.1285C8.95505 13.4043 9 13.6969 9 14C9 15.6569 7.65685 17 6 17C4.34315 17 3 15.6569 3 14C3 12.3431 4.34315 11 6 11C6.4402 11 6.85826 11.0948 7.23487 11.2651L9 9.5L10.75 11.25L8.87146 13.1285ZM12.5 9.5L17 5V4H14.5L10.75 7.75L12.5 9.5ZM7 14C7 14.5523 6.55228 15 6 15C5.44772 15 5 14.5523 5 14C5 13.4477 5.44772 13 6 13C6.55228 13 7 13.4477 7 14Z" fill="#D2D2D2"/>
<path fill-rule="evenodd" clip-rule="evenodd" d="M9 6C9 6.30309 8.95505 6.59568 8.87146 6.87146L17 15V16H14.5L7.23487 8.73487C6.85826 8.90519 6.4402 9 6 9C4.34315 9 3 7.65685 3 6C3 4.34315 4.34315 3 6 3C7.65685 3 9 4.34315 9 6ZM6 5C6.55228 5 7 5.44771 7 6C7 6.55229 6.55228 7 6 7C5.44772 7 5 6.55229 5 6C5 5.44771 5.44772 5 6 5Z" fill="#D2D2D2"/>
</svg>
