<svg width="20" height="20" viewBox="0 0 20 20" fill="none" xmlns="http://www.w3.org/2000/svg">
<path fill-rule="evenodd" clip-rule="evenodd" d="M5.20921 4.32775L6.21936 3.22781C6.35332 3.08194 6.535 3 6.72444 3H13.2756C13.465 3 13.6467 3.08194 13.7806 3.22781L14.7908 4.32775C14.9247 4.47361 15 4.67144 15 4.87772V15.2834C15 15.3865 14.9624 15.4854 14.8954 15.5583L13.676 16.8861C13.6091 16.959 13.5182 17 13.4235 17H6.5765C6.48178 17 6.39094 16.959 6.32397 16.8861L5.1046 15.5583C5.03763 15.4854 5 15.3865 5 15.2834V4.87772C5 4.67144 5.07525 4.47361 5.20921 4.32775ZM7.14286 6.11111V7.66667L12.8571 7.66667V6.11111H7.14286ZM7.14286 9.22222V10.7778H12.8571V9.22222H7.14286ZM7.14286 13.8889V12.3333H12.8571V13.8889H7.14286Z" fill="#D2D2D2"/>
</svg>
