<svg width="20" height="20" viewBox="0 0 20 20" fill="none" xmlns="http://www.w3.org/2000/svg">
<path fill-rule="evenodd" clip-rule="evenodd" d="M11.25 3.49998L5.26004 3.49998L5 3.71212L5 16.3787L5.12132 16.5L14.8787 16.5L15 16.3787L15 7.74998H12.5C11.8096 7.74998 11.25 7.19034 11.25 6.49998V3.49998ZM14.597 6.24998L12.75 4.47156V6.24998H14.597ZM4.58783 2.11255L3.68394 2.84993C3.56754 2.94489 3.5 3.08715 3.5 3.23736V16.7929C3.5 16.9255 3.55268 17.0527 3.64645 17.1464L4.35355 17.8535C4.44732 17.9473 4.5745 18 4.70711 18L15.2929 18C15.4255 18 15.5527 17.9473 15.6464 17.8535L16.3535 17.1464C16.4473 17.0527 16.5 16.9255 16.5 16.7929L16.5 6.21265C16.5 6.07677 16.4447 5.94673 16.3468 5.85248L12.4909 2.13981C12.3978 2.0501 12.2735 1.99998 12.1441 1.99998H4.90389C4.78871 1.99998 4.67707 2.03975 4.58783 2.11255Z" fill="#D2D2D2"/>
<path d="M10.8434 11.2289L12.032 12.4175C12.2272 12.6128 12.5438 12.6128 12.7391 12.4175L13.2247 11.9318C13.42 11.7366 13.42 11.42 13.2247 11.2247L10.3535 8.35353C10.1583 8.15827 9.84169 8.15827 9.64643 8.35353L6.77522 11.2247C6.57996 11.42 6.57996 11.7366 6.77522 11.9318L7.26088 12.4175C7.45615 12.6128 7.77273 12.6128 7.96799 12.4175L9.15656 11.2289L9.15656 14.6566C9.15656 14.9327 9.38042 15.1566 9.65656 15.1566L10.3434 15.1566C10.6195 15.1566 10.8434 14.9327 10.8434 14.6566L10.8434 11.2289Z" fill="#D2D2D2"/>
</svg>
