<svg width="20" height="20" viewBox="0 0 20 20" fill="none" xmlns="http://www.w3.org/2000/svg">
<path fill-rule="evenodd" clip-rule="evenodd" d="M16.2404 5.75L13.25 2.87071V5.75H16.2404ZM11.75 2H4.90389C4.78871 2 4.67707 2.03976 4.58783 2.11257L3.68394 2.84995C3.56754 2.9449 3.5 3.08716 3.5 3.23738V16.7929C3.5 16.9255 3.55268 17.0527 3.64645 17.1464L4.35355 17.8536C4.44732 17.9473 4.5745 18 4.70711 18L15.2929 18C15.4255 18 15.5527 17.9473 15.6464 17.8536L16.3535 17.1464C16.4473 17.0527 16.5 16.9255 16.5 16.7929L16.5 7.25H13C12.3096 7.25 11.75 6.69036 11.75 6V2ZM10.8435 11.2289L12.032 12.4175C12.2273 12.6128 12.5439 12.6128 12.7391 12.4175L13.2248 11.9318C13.4201 11.7366 13.4201 11.42 13.2248 11.2247L10.3536 8.35353C10.1583 8.15827 9.84175 8.15827 9.64649 8.35353L6.77528 11.2247C6.58002 11.42 6.58002 11.7366 6.77528 11.9318L7.26095 12.4175C7.45621 12.6128 7.77279 12.6128 7.96805 12.4175L9.15662 11.2289V14.6566C9.15662 14.9327 9.38048 15.1566 9.65662 15.1566H10.3435C10.6196 15.1566 10.8435 14.9327 10.8435 14.6566L10.8435 11.2289Z" fill="#D2D2D2"/>
</svg>
