<svg width="20" height="20" viewBox="0 0 20 20" fill="none" xmlns="http://www.w3.org/2000/svg">
<path fill-rule="evenodd" clip-rule="evenodd" d="M6.35134 7.84896L8.90606 10.4037L8.9061 3C8.9061 2.72386 9.12996 2.5 9.4061 2.5H10.4934C10.7696 2.5 10.9934 2.72386 10.9934 3L10.9934 10.4037L13.5481 7.84896C13.7434 7.65369 14.06 7.6537 14.2552 7.84896L15.0241 8.61782C15.2193 8.81309 15.2193 9.12967 15.0241 9.32493L10.3033 14.0457C10.108 14.241 9.79144 14.241 9.59618 14.0457L4.87537 9.32493C4.68011 9.12967 4.68011 8.81309 4.87537 8.61782L5.64423 7.84896C5.8395 7.6537 6.15608 7.6537 6.35134 7.84896ZM18 15.9995C18 15.7234 17.7761 15.4995 17.5 15.4995L2.5 15.4995C2.22386 15.4995 2 15.7234 2 15.9995V16.9995C2 17.2757 2.22386 17.4995 2.5 17.4995L17.5 17.4995C17.7761 17.4995 18 17.2757 18 16.9995V15.9995Z" fill="#D2D2D2"/>
</svg>
