<svg width="20" height="20" viewBox="0 0 20 20" fill="none" xmlns="http://www.w3.org/2000/svg">
<path fill-rule="evenodd" clip-rule="evenodd" d="M14.9129 8.76205V6.56334L11.8298 9.64648C11.6345 9.84174 11.3179 9.84174 11.1227 9.64648L10.3538 8.87762C10.1585 8.68235 10.1585 8.36577 10.3538 8.17051L13.4369 5.08737H11.2382C10.9621 5.08737 10.7382 4.86352 10.7382 4.58737V3.50003C10.7382 3.22389 10.9621 3.00003 11.2382 3.00003H16.5002C16.7764 3.00003 17.0002 3.22389 17.0002 3.50003V8.76205C17.0002 9.03819 16.7764 9.26205 16.5002 9.26205H15.4129C15.1368 9.26205 14.9129 9.03819 14.9129 8.76205ZM5.08734 11.238V13.4367L8.17048 10.3536C8.36574 10.1583 8.68232 10.1583 8.87758 10.3536L9.64645 11.1225C9.84171 11.3177 9.84171 11.6343 9.64645 11.8296L6.56331 14.9127H8.76201C9.03816 14.9127 9.26201 15.1366 9.26201 15.4127V16.5C9.26201 16.7762 9.03816 17 8.76201 17H3.5C3.22386 17 3 16.7762 3 16.5V11.238C3 10.9619 3.22386 10.738 3.5 10.738H4.58734C4.86348 10.738 5.08734 10.9619 5.08734 11.238Z" fill="#D2D2D2"/>
</svg>
