<svg width="20" height="20" viewBox="0 0 20 20" fill="none" xmlns="http://www.w3.org/2000/svg">
<path fill-rule="evenodd" clip-rule="evenodd" d="M5.84576 5.03881L2.16552 8.35103C2.06016 8.44586 2 8.58094 2 8.72268V10V10.1597V11.2825C2 11.4212 2.05763 11.5537 2.15911 11.6483L6.85598 16.0255C6.94854 16.1117 7.07035 16.1597 7.19687 16.1597H10H12.8031C12.9297 16.1597 13.0515 16.1117 13.144 16.0255L15.0532 14.2462L12.8628 12.0558C12.2378 12.9401 11.205 13.5 10 13.5C8.01667 13.5 6.5 11.9833 6.5 9.99999C6.5 8.79495 7.05989 7.76218 7.94416 7.1372L5.84576 5.03881ZM13.4972 9.86188C13.4264 8.09674 12.0047 6.57443 10.138 6.50264L7.63532 4H10H12.8081C12.9317 4 13.0508 4.04572 13.1426 4.12835L17.8345 8.35103C17.9398 8.44586 18 8.58094 18 8.72268V10V10.1597V11.2825C18 11.4212 17.9424 11.5537 17.8409 11.6483L16.5172 12.8819L13.4972 9.86188ZM9.03957 8.2326C8.4121 8.56378 8 9.21849 8 10C8 11.1333 8.86667 12 10 12C10.7815 12 11.4362 11.5879 11.7674 10.9604L9.03957 8.2326Z" fill="#D2D2D2"/>
<path d="M3 4.5L4.41422 3.0859L17.4142 16.0858L16 17.4999L3 4.5Z" fill="#D2D2D2"/>
</svg>
