<svg width="20" height="20" viewBox="0 0 20 20" fill="none" xmlns="http://www.w3.org/2000/svg">
<path fill-rule="evenodd" clip-rule="evenodd" d="M2.16552 8.35103C2.06016 8.44586 2 8.58094 2 8.72268V10V10.1597V11.2825C2 11.4212 2.05763 11.5537 2.15911 11.6483L6.85598 16.0255C6.94854 16.1117 7.07035 16.1597 7.19687 16.1597H10H12.8031C12.9297 16.1597 13.0515 16.1117 13.144 16.0255L17.8409 11.6483C17.9424 11.5537 18 11.4212 18 11.2825V10.1597V10V8.72268C18 8.58094 17.9398 8.44586 17.8345 8.35103L13.1426 4.12835C13.0508 4.04572 12.9317 4 12.8081 4H10H7.19187C7.06835 4 6.9492 4.04572 6.85739 4.12835L2.16552 8.35103ZM10 6.49999C8.01667 6.49999 6.5 8.01666 6.5 9.99999C6.5 11.9833 8.01667 13.5 10 13.5C11.9833 13.5 13.5 11.9833 13.5 9.99999C13.5 8.13332 11.9833 6.49999 10 6.49999ZM8 10C8 8.86666 8.86667 7.99999 10 7.99999C11.1333 7.99999 12 8.93333 12 10C12 11.1333 11.1333 12 10 12C8.86667 12 8 11.1333 8 10Z" fill="#D2D2D2"/>
</svg>
