<svg width="20" height="20" viewBox="0 0 20 20" fill="none" xmlns="http://www.w3.org/2000/svg">
<path fill-rule="evenodd" clip-rule="evenodd" d="M3 2.20711V17.7929C3 17.9255 3.05268 18.0527 3.14645 18.1464L3.85355 18.8536C3.94732 18.9473 4.0745 19 4.20711 19H15.7929C15.9255 19 16.0527 18.9473 16.1464 18.8536L16.7071 18.2929C16.8946 18.1054 17 17.851 17 17.5858L17 6.41421C17 6.149 16.8946 5.89464 16.7071 5.70711L12.1464 1.14645C12.0527 1.05268 11.9255 1 11.7929 1H4.20711C4.0745 1 3.94732 1.05268 3.85355 1.14645L3.14645 1.85355C3.05268 1.94732 3 2.0745 3 2.20711ZM5.2 7C5.08954 7 5 7.08954 5 7.2V8.8C5 8.91046 5.08954 9 5.2 9H12.8C12.9105 9 13 8.91046 13 8.8V7.2C13 7.08954 12.9105 7 12.8 7H5.2ZM5.2 10.5C5.08954 10.5 5 10.5895 5 10.7V12.3C5 12.4105 5.08954 12.5 5.2 12.5H10.8C10.9105 12.5 11 12.4105 11 12.3V10.7C11 10.5895 10.9105 10.5 10.8 10.5H5.2ZM5 14.2C5 14.0895 5.08954 14 5.2 14H11.8C11.9105 14 12 14.0895 12 14.2V15.8C12 15.9105 11.9105 16 11.8 16H5.2C5.08954 16 5 15.9105 5 15.8V14.2Z" fill="#D2D2D2"/>
</svg>
