<svg width="20" height="20" viewBox="0 0 20 20" fill="none" xmlns="http://www.w3.org/2000/svg">
<path d="M7.5 14.5C7.5 14.7761 7.72386 15 8 15H12C12.2761 15 12.5 14.7761 12.5 14.5V13.5C12.5 13.2239 12.2761 13 12 13H8C7.72386 13 7.5 13.2239 7.5 13.5V14.5ZM3 5C2.72386 5 2.5 5.22386 2.5 5.5V6.5C2.5 6.77614 2.72386 7 3 7H17C17.2761 7 17.5 6.77614 17.5 6.5V5.5C17.5 5.22386 17.2761 5 17 5H3ZM4.5 10.5C4.5 10.7761 4.72386 11 5 11H15C15.2761 11 15.5 10.7761 15.5 10.5V9.5C15.5 9.22386 15.2761 9 15 9H5C4.72386 9 4.5 9.22386 4.5 9.5V10.5Z" fill="#D2D2D2"/>
</svg>
