<svg width="20" height="20" viewBox="0 0 20 20" fill="none" xmlns="http://www.w3.org/2000/svg">
<path d="M11.9759 11.0718L9.42123 13.6265C9.22596 13.8218 9.22596 14.1384 9.42122 14.3336L10.1901 15.1025C10.3854 15.2978 10.7019 15.2978 10.8972 15.1025L15.618 10.3817C15.8133 10.1864 15.8133 9.86984 15.618 9.67458L10.8972 4.95377C10.7019 4.75851 10.3854 4.75851 10.1901 4.95377L9.42122 5.72264C9.22596 5.9179 9.22596 6.23448 9.42122 6.42975L11.9759 8.98447L4.57227 8.98442C4.29613 8.98442 4.07227 9.20828 4.07227 9.48442L4.07227 10.5718C4.07227 10.8479 4.29612 11.0718 4.57226 11.0718L11.9759 11.0718Z" fill="#D2D2D2"/>
</svg>
