<svg width="20" height="20" viewBox="0 0 20 20" fill="none" xmlns="http://www.w3.org/2000/svg">
<path d="M10.75 3.60889C10.75 3.33274 10.5261 3.10889 10.25 3.10889H9.75C9.47386 3.10889 9.25 3.33274 9.25 3.60889V6.60889C9.25 6.88503 9.47386 7.10889 9.75 7.10889H10.25C10.5261 7.10889 10.75 6.88503 10.75 6.60889V3.60889Z" fill="#D2D2D2"/>
<path d="M6.02426 4.89952C5.829 4.70426 5.51242 4.70426 5.31716 4.89952L4.9636 5.25308C4.76834 5.44834 4.76834 5.76492 4.9636 5.96018L7.08492 8.08151C7.28019 8.27677 7.59677 8.27677 7.79203 8.08151L8.14558 7.72795C8.34085 7.53269 8.34085 7.21611 8.14558 7.02085L6.02426 4.89952Z" fill="#D2D2D2"/>
<path d="M4.83068 13.9137C4.63542 14.109 4.63542 14.4256 4.83068 14.6208L5.18423 14.9744C5.37949 15.1696 5.69608 15.1696 5.89134 14.9744L8.01266 12.8531C8.20792 12.6578 8.20792 12.3412 8.01266 12.146L7.6591 11.7924C7.46384 11.5971 7.14726 11.5971 6.952 11.7924L4.83068 13.9137Z" fill="#D2D2D2"/>
<path d="M14.1085 14.9867C14.3038 15.182 14.6204 15.182 14.8157 14.9867L15.1692 14.6332C15.3645 14.4379 15.3645 14.1213 15.1692 13.926L13.0479 11.8047C12.8526 11.6095 12.536 11.6095 12.3408 11.8047L11.9872 12.1583C11.792 12.3535 11.792 12.6701 11.9872 12.8654L14.1085 14.9867Z" fill="#D2D2D2"/>
<path d="M15.0365 5.94809C15.2318 5.75283 15.2318 5.43625 15.0365 5.24098L14.683 4.88743C14.4877 4.69217 14.1711 4.69217 13.9759 4.88743L11.8545 7.00875C11.6593 7.20401 11.6593 7.5206 11.8545 7.71586L12.2081 8.06941C12.4033 8.26467 12.7199 8.26467 12.9152 8.06941L15.0365 5.94809Z" fill="#D2D2D2"/>
<path d="M10.75 13.3911C10.75 13.115 10.5261 12.8911 10.25 12.8911H9.75C9.47386 12.8911 9.25 13.115 9.25 13.3911V16.3911C9.25 16.6673 9.47386 16.8911 9.75 16.8911H10.25C10.5261 16.8911 10.75 16.6673 10.75 16.3911V13.3911Z" fill="#D2D2D2"/>
<path d="M3.60889 9.18701C3.33274 9.18701 3.10889 9.41087 3.10889 9.68701V10.187C3.10889 10.4632 3.33274 10.687 3.60889 10.687H6.60889C6.88503 10.687 7.10889 10.4632 7.10889 10.187V9.68701C7.10889 9.41087 6.88503 9.18701 6.60889 9.18701H3.60889Z" fill="#D2D2D2"/>
<path d="M13.3911 9.18701C13.115 9.18701 12.8911 9.41087 12.8911 9.68701V10.187C12.8911 10.4632 13.115 10.687 13.3911 10.687H16.3911C16.6673 10.687 16.8911 10.4632 16.8911 10.187V9.68701C16.8911 9.41087 16.6673 9.18701 16.3911 9.18701H13.3911Z" fill="#D2D2D2"/>
</svg>
