<svg width="20" height="20" viewBox="0 0 20 20" fill="none" xmlns="http://www.w3.org/2000/svg">
<path fill-rule="evenodd" clip-rule="evenodd" d="M2.26499 15.168C1.70139 15.7308 1.70139 16.647 2.26499 17.2102C2.82819 17.7737 3.74423 17.7737 4.30359 17.2102L4.71067 16.807L6.40819 18.5041C6.69846 18.7948 7.1637 18.7948 7.45438 18.5041L9.98415 15.9744C10.2749 15.6842 10.2749 15.2188 9.98415 14.9281L8.28698 13.231L11.3104 10.2037C11.9574 10.538 12.6948 10.7267 13.4728 10.7267C16.0821 10.7267 18.1972 8.61196 18.1972 6.00236C18.1972 3.39308 16.0821 1.27792 13.4728 1.27792C10.8633 1.27792 8.74838 3.39308 8.74838 6.00236C8.74838 6.78032 8.93722 7.5178 9.27146 8.16476L2.26499 15.168ZM11.6557 6.00236C11.6557 4.99936 12.4698 4.1852 13.4727 4.1852C14.4758 4.1852 15.2898 4.99936 15.2898 6.00236C15.2898 7.00536 14.4758 7.8194 13.4727 7.8194C12.4699 7.8194 11.6557 7.00532 11.6557 6.00236Z" fill="#D2D2D2"/>
</svg>
