<svg width="20" height="20" viewBox="0 0 20 20" fill="none" xmlns="http://www.w3.org/2000/svg">
<path d="M4.85355 16.8536L4.14645 16.1464C4.05268 16.0527 4 15.9255 4 15.7929V10.2071C4 10.0745 4.05268 9.94732 4.14645 9.85355L4.85355 9.14645C4.94732 9.05268 5.0745 9 5.20711 9H14.7929C14.9255 9 15.0527 9.05268 15.1464 9.14645L15.8536 9.85355C15.9473 9.94732 16 10.0745 16 10.2071V15.7929C16 15.9255 15.9473 16.0527 15.8536 16.1464L15.1464 16.8536C15.0527 16.9473 14.9255 17 14.7929 17H5.20711C5.0745 17 4.94732 16.9473 4.85355 16.8536Z" fill="#D2D2D2"/>
<path d="M7 9V6.25C7 6.09262 7.0741 5.94443 7.2 5.85L8.86667 4.6C8.95321 4.53509 9.05848 4.5 9.16667 4.5H10.8333C10.9415 4.5 11.0468 4.53509 11.1333 4.6L12.8 5.85C12.9259 5.94443 13 6.09262 13 6.25V9" stroke="#D2D2D2" stroke-width="2"/>
</svg>
