<svg width="20" height="20" viewBox="0 0 20 20" fill="none" xmlns="http://www.w3.org/2000/svg">
<path fill-rule="evenodd" clip-rule="evenodd" d="M5.5 5C5.77614 5 6 5.22386 6 5.5V15.5C6 15.7761 5.77614 16 5.5 16H4.5C4.22386 16 4 15.7761 4 15.5V5.5C4 5.22386 4.22386 5 4.5 5H5.5ZM13.8673 5C13.7275 5 13.5941 5.0585 13.4994 5.16131L8.88492 10.1727C8.70446 10.3686 8.70935 10.6717 8.89603 10.8617L13.7962 15.8504C13.8902 15.9461 14.0187 16 14.1529 16H16.1506C16.3722 16 16.4843 15.7329 16.3289 15.5748L11.3225 10.478L15.9806 5.41935C16.1281 5.25913 16.0145 5 15.7967 5H13.8673Z" fill="#D2D2D2"/>
</svg>
