<svg width="20" height="20" viewBox="0 0 20 20" fill="none" xmlns="http://www.w3.org/2000/svg">
<path d="M16.625 7.375C16.625 9.79125 14.6663 11.75 12.25 11.75C9.83376 11.75 7.875 9.79125 7.875 7.375C7.875 4.95876 9.83376 3 12.25 3C14.6663 3 16.625 4.95876 16.625 7.375Z" fill="#D2D2D2"/>
<path fill-rule="evenodd" clip-rule="evenodd" d="M6.24062 8.56555C4.63397 9.21301 3.5 10.7866 3.5 12.6251C3.5 15.0413 5.45876 17.0001 7.875 17.0001C9.9918 17.0001 11.7575 15.4967 12.1626 13.4995C9.22614 13.4584 6.78928 11.3509 6.24062 8.56555ZM7.96269 8.25091C8.36276 10.2198 10.0851 11.7084 12.1623 11.7492C11.7622 9.78031 10.0399 8.29175 7.96269 8.25091Z" fill="#D2D2D2"/>
</svg>
