<svg width="20" height="20" viewBox="0 0 20 20" fill="none" xmlns="http://www.w3.org/2000/svg">
<path fill-rule="evenodd" clip-rule="evenodd" d="M2 15V13C2 12.7239 2.22386 12.5 2.5 12.5H3.5C3.77614 12.5 4 12.2761 4 12V3.70711C4 3.5745 4.05268 3.44732 4.14645 3.35355L6.85355 0.646446C6.94732 0.552678 7.0745 0.5 7.20711 0.5H12.7929C12.9255 0.5 13.0527 0.552678 13.1464 0.646447L15.8536 3.35355C15.9473 3.44732 16 3.5745 16 3.70711V12C16 12.2761 16.2239 12.5 16.5 12.5H17.5C17.7761 12.5 18 12.7239 18 13V15C18 15.2761 17.7761 15.5 17.5 15.5H2.5C2.22386 15.5 2 15.2761 2 15ZM12 16.5H8V19.5H12V16.5Z" fill="#D2D2D2"/>
</svg>
