<svg width="20" height="20" viewBox="0 0 20 20" fill="none" xmlns="http://www.w3.org/2000/svg">
<path d="M3.4971 17H8.1031C8.37758 17 8.6001 16.7775 8.6001 16.503V13.388C8.6001 13.1135 8.37758 12.891 8.1031 12.891H3.4971C3.22261 12.891 3.0001 13.1135 3.0001 13.388V16.503C3.0001 16.7775 3.22261 17 3.4971 17Z" fill="#D2D2D2"/>
<path d="M3.4971 10.091H8.1031C8.37758 10.091 8.6001 9.86849 8.6001 9.594V3.497C8.6001 3.22252 8.37758 3 8.1031 3L3.4971 3C3.22261 3 3.0001 3.22252 3.0001 3.497L3.0001 9.594C3.0001 9.86849 3.22261 10.091 3.4971 10.091Z" fill="#D2D2D2"/>
<path d="M16.5029 3H11.8969C11.6224 3 11.3999 3.22251 11.3999 3.497V6.612C11.3999 6.88649 11.6224 7.109 11.8969 7.109H16.5029C16.7774 7.109 16.9999 6.88649 16.9999 6.612V3.497C16.9999 3.22251 16.7774 3 16.5029 3Z" fill="#D2D2D2"/>
<path d="M16.5029 9.909H11.8969C11.6224 9.909 11.3999 10.1315 11.3999 10.406V16.503C11.3999 16.7775 11.6224 17 11.8969 17H16.5029C16.7774 17 16.9999 16.7775 16.9999 16.503V10.406C16.9999 10.1315 16.7774 9.909 16.5029 9.909Z" fill="#D2D2D2"/>
</svg>
