<svg width="20" height="20" viewBox="0 0 20 20" fill="none" xmlns="http://www.w3.org/2000/svg">
<path fill-rule="evenodd" clip-rule="evenodd" d="M4 10C4 6.68857 6.68857 4 10 4C13.3114 4 16 6.68857 16 10C16 13.3114 13.3114 16 10 16C6.68857 16 4 13.3114 4 10ZM10 2C5.584 2 2 5.584 2 10C2 14.416 5.584 18 10 18C14.416 18 18 14.416 18 10C18 5.584 14.416 2 10 2ZM7.75 13.5C7.61193 13.5 7.5 13.3881 7.5 13.25V6.75C7.5 6.61193 7.61193 6.5 7.75 6.5H8.27524C8.32009 6.5 8.36411 6.51206 8.40269 6.53493L13.3775 9.48293C13.4534 9.52795 13.5 9.6097 13.5 9.69801V10.302C13.5 10.3903 13.4534 10.472 13.3775 10.5171L8.40269 13.4651C8.36411 13.4879 8.32009 13.5 8.27524 13.5H7.75Z" fill="#D2D2D2"/>
</svg>
