<svg width="20" height="20" viewBox="0 0 20 20" fill="none" xmlns="http://www.w3.org/2000/svg">
<path fill-rule="evenodd" clip-rule="evenodd" d="M0 4.00065C0 3.79096 0.130852 3.60354 0.327707 3.53128L9.77562 0.0632437C9.88685 0.0224132 10.009 0.0224132 10.1202 0.0632438L19.5681 3.53128C19.765 3.60354 19.8958 3.79096 19.8958 4.00065V15.9091C19.8958 16.1188 19.765 16.3062 19.5681 16.3785L10.1202 19.8465C10.009 19.8874 9.88685 19.8874 9.77562 19.8465L0.327707 16.3785C0.130851 16.3062 0 16.1188 0 15.9091V4.00065ZM8.9956 6.39351C8.99563 6.11739 9.21948 5.89355 9.4956 5.89355H10.5073C10.7834 5.89355 11.0073 6.11741 11.0073 6.39356V13.5059C11.0073 13.782 10.7834 14.0059 10.5073 14.0059H9.49552C9.21943 14.0059 8.99559 13.7821 8.99552 13.506L8.99514 11.9297L8.9956 6.39351ZM12.966 8.39357C12.966 8.11746 13.1898 7.89366 13.466 7.89366H14.4778C14.754 7.89366 14.9778 8.11752 14.9778 8.39366V11.4606C14.9778 11.7367 14.754 11.9606 14.4778 11.9606H13.4659C13.1898 11.9606 12.966 11.7368 12.9659 11.4607L12.9656 10.3031L12.966 8.39357ZM4.97174 8.39358C4.97179 8.11747 5.19563 7.89366 5.47174 7.89366H6.48354C6.75968 7.89366 6.98354 8.11752 6.98354 8.39366V11.4606C6.98354 11.7367 6.75968 11.9606 6.48354 11.9606H5.4717C5.19561 11.9606 4.97177 11.7368 4.9717 11.4607L4.97144 10.3031L4.97174 8.39358Z" fill="#D2D2D2"/>
</svg>
