<svg width="20" height="20" viewBox="0 0 20 20" fill="none" xmlns="http://www.w3.org/2000/svg">
<path fill-rule="evenodd" clip-rule="evenodd" d="M15.1224 7.1722C15.191 7.33006 15.0708 7.5 14.8986 7.5H13.5512C13.3438 7.5 13.2266 7.73811 13.3531 7.9025L16.0474 11.4025C16.0947 11.464 16.1679 11.5 16.2455 11.5H16.7692C16.8468 11.5 16.92 11.464 16.9673 11.4025L19.6616 7.9025C19.7882 7.73811 19.671 7.5 19.4635 7.5H17.533C17.4169 7.5 17.3165 7.41972 17.2867 7.30749C16.4757 4.25922 13.5242 2 10.0074 2C6.9488 2 4.31786 3.70878 3.15066 6.15927C3.07422 6.31976 3.19468 6.5 3.37245 6.5H5.11246C5.19799 6.5 5.27719 6.45604 5.32502 6.38514C6.27163 4.98212 7.96527 4 10.0074 4C12.4134 4 14.3357 5.36338 15.1224 7.1722ZM4.93342 12C4.77297 12 4.65386 12.1492 4.7 12.3029C5.31936 14.3663 7.37353 16 10.0073 16C12.2727 16 14.1093 14.7913 14.9729 13.1402C15.0174 13.0552 15.1044 13 15.2003 13H16.8546C17.0239 13 17.1441 13.1648 17.0844 13.3232C16.0579 16.0473 13.2769 18 10.0073 18C6.308 18 3.23421 15.5002 2.61931 12.2118C2.59662 12.0905 2.49213 12 2.36868 12H0.50046C0.293 12 0.17581 11.7619 0.302359 11.5975L2.99666 8.0975C3.04399 8.03602 3.11718 8 3.19476 8H3.71847C3.79606 8 3.86925 8.03602 3.91658 8.0975L6.61088 11.5975C6.73742 11.7619 6.62023 12 6.41277 12H4.93342Z" fill="#D2D2D2"/>
</svg>
