<svg width="20" height="20" viewBox="0 0 20 20" fill="none" xmlns="http://www.w3.org/2000/svg">
<path d="M13.2554 2.15045C13.1614 2.0543 13.0325 2.00011 12.898 2.00011H7.20711C7.0745 2.00011 6.94732 2.05279 6.85355 2.14655L2.14645 6.85366C2.05268 6.94743 2 7.07461 2 7.20721V12.8981C2 13.0326 2.05419 13.1615 2.15034 13.2555L6.85425 17.8575C6.94768 17.9489 7.07319 18.0001 7.20391 18.0001H12.9012C13.0338 18.0001 13.161 17.9474 13.2548 17.8537L17.8536 13.2549C17.9473 13.1611 18 13.0339 18 12.9013V7.20401C18 7.0733 17.9488 6.94779 17.8574 6.85435L13.2554 2.15045ZM10.3536 14.6466C10.1583 14.8418 9.84171 14.8418 9.64645 14.6466L8.85355 13.8537C8.65829 13.6584 8.65829 13.3418 8.85355 13.1466L9.64645 12.3537C9.84171 12.1584 10.1583 12.1584 10.3536 12.3537L11.1464 13.1466C11.3417 13.3418 11.3417 13.6584 11.1464 13.8537L10.3536 14.6466ZM11 10.0001C11 10.2762 10.7761 10.5001 10.5 10.5001H9.5C9.22386 10.5001 9 10.2762 9 10.0001V6.00011C9 5.72396 9.22386 5.50011 9.5 5.50011H10.5C10.7761 5.50011 11 5.72396 11 6.00011V10.0001Z" fill="#D2D2D2"/>
</svg>
