<svg width="20" height="20" viewBox="0 0 20 20" fill="none" xmlns="http://www.w3.org/2000/svg">
<path fill-rule="evenodd" clip-rule="evenodd" d="M9.99984 2.66667C5.94975 2.66667 2.6665 5.94991 2.6665 10C2.6665 14.0501 5.94975 17.3333 9.99984 17.3333C14.0499 17.3333 17.3332 14.0501 17.3332 10C17.3332 5.94991 14.0499 2.66667 9.99984 2.66667ZM0.666504 10C0.666504 4.84534 4.84518 0.666666 9.99984 0.666666C15.1545 0.666666 19.3332 4.84534 19.3332 10C19.3332 15.1547 15.1545 19.3333 9.99984 19.3333C4.84518 19.3333 0.666504 15.1547 0.666504 10Z" fill="#D2D2D2"/>
<path fill-rule="evenodd" clip-rule="evenodd" d="M9.29234 5.96012C9.29404 5.95842 9.29574 5.95672 9.29745 5.95503C9.39227 5.8614 9.50114 5.79057 9.61722 5.74255C9.73512 5.69365 9.86441 5.66667 10 5.66667C10.2559 5.66667 10.5118 5.7643 10.7071 5.95956L14.0404 9.29289C14.431 9.68342 14.431 10.3166 14.0404 10.7071C13.6499 11.0976 13.0168 11.0976 12.6262 10.7071L11 9.08088V13.3333C11 13.8856 10.5523 14.3333 10 14.3333C9.44772 14.3333 9 13.8856 9 13.3333V9.08088L7.37377 10.7071C6.98325 11.0976 6.35008 11.0976 5.95956 10.7071C5.56904 10.3166 5.56904 9.68342 5.95956 9.29289L9.29234 5.96012Z" fill="#D2D2D2"/>
</svg>
