<svg width="20" height="20" viewBox="0 0 20 20" fill="none" xmlns="http://www.w3.org/2000/svg">
<path d="M7.81104 5.08661L9.99973 2.89791L12.1884 5.08661" stroke="#D2D2D2" stroke-width="1.8" stroke-linecap="round" stroke-linejoin="round"/>
<path d="M12.1885 14.9138L9.99978 17.1025L7.81108 14.9138" stroke="#D2D2D2" stroke-width="1.8" stroke-linecap="round" stroke-linejoin="round"/>
<path fill-rule="evenodd" clip-rule="evenodd" d="M15.9995 8.4866C15.9995 8.93989 15.632 9.30736 15.1787 9.30736L4.81955 9.30736C4.36626 9.30736 3.99879 8.93989 3.99879 8.4866C3.99879 8.0333 4.36626 7.66583 4.81955 7.66583L15.1787 7.66583C15.632 7.66583 15.9995 8.0333 15.9995 8.4866Z" fill="#D2D2D2"/>
<path fill-rule="evenodd" clip-rule="evenodd" d="M15.9995 11.5137C15.9995 11.967 15.632 12.3345 15.1787 12.3345L4.81955 12.3345C4.36626 12.3345 3.99879 11.967 3.99879 11.5137C3.99879 11.0604 4.36626 10.6929 4.81955 10.6929L15.1787 10.6929C15.632 10.6929 15.9995 11.0604 15.9995 11.5137Z" fill="#D2D2D2"/>
</svg>
