<svg width="20" height="20" viewBox="0 0 20 20" fill="none" xmlns="http://www.w3.org/2000/svg">
<path fill-rule="evenodd" clip-rule="evenodd" d="M12.5635 1.81438C12.7525 1.61375 13.0159 1.5 13.2915 1.5H14.9211C15.1403 1.5 15.2534 1.76188 15.1031 1.92141L10.9389 6.34281C10.8444 6.44312 10.7127 6.5 10.5749 6.5L9.42514 6.5C9.28733 6.5 9.15564 6.44313 9.06116 6.34281L4.8969 1.92141C4.74665 1.76188 4.85975 1.5 5.07889 1.5H6.70855C6.98416 1.5 7.24754 1.61375 7.43651 1.81438L10 4.53619L12.5635 1.81438ZM6.5 10C6.5 10.8284 5.82843 11.5 5 11.5C4.17157 11.5 3.5 10.8284 3.5 10C3.5 9.17157 4.17157 8.5 5 8.5C5.82843 8.5 6.5 9.17157 6.5 10ZM11.5 10C11.5 10.8284 10.8284 11.5 10 11.5C9.17157 11.5 8.5 10.8284 8.5 10C8.5 9.17157 9.17157 8.5 10 8.5C10.8284 8.5 11.5 9.17157 11.5 10ZM15 11.5C15.8284 11.5 16.5 10.8284 16.5 10C16.5 9.17157 15.8284 8.5 15 8.5C14.1716 8.5 13.5 9.17157 13.5 10C13.5 10.8284 14.1716 11.5 15 11.5ZM13.2915 18.5C13.0159 18.5 12.7525 18.3862 12.5635 18.1856L10 15.4638L7.43651 18.1856C7.24754 18.3863 6.98416 18.5 6.70855 18.5H5.07889C4.85975 18.5 4.74665 18.2381 4.8969 18.0786L9.06116 13.6572C9.15564 13.5569 9.28733 13.5 9.42514 13.5L10.5749 13.5C10.7127 13.5 10.8444 13.5569 10.9389 13.6572L15.1031 18.0786C15.2534 18.2381 15.1403 18.5 14.9211 18.5H13.2915Z" fill="#D2D2D2"/>
</svg>
