<svg width="20" height="20" viewBox="0 0 20 20" fill="none" xmlns="http://www.w3.org/2000/svg">
<path fill-rule="evenodd" clip-rule="evenodd" d="M7.67049 4.46906C7.86574 4.38672 8.00018 4.19972 8.00018 3.98782V2.5C8.00018 2.22386 8.22403 2 8.50018 2H11.5002C11.7763 2 12.0002 2.22386 12.0002 2.5V3.98783C12.0002 4.19974 12.1346 4.38673 12.3299 4.46907C12.7939 4.66477 13.2282 4.91715 13.624 5.21755C13.7929 5.34571 14.0221 5.36867 14.2057 5.26268L15.4954 4.51807C15.7345 4.38 16.0403 4.46193 16.1784 4.70108L17.6784 7.29916C17.8165 7.5383 17.7345 7.8441 17.4954 7.98217L16.206 8.72661C16.0226 8.83246 15.9279 9.04207 15.954 9.25214C15.9845 9.49715 16.0002 9.74674 16.0002 10C16.0002 10.2533 15.9845 10.5029 15.954 10.7479C15.9279 10.958 16.0226 11.1676 16.206 11.2734L17.4953 12.0178C17.7345 12.1559 17.8164 12.4617 17.6784 12.7008L16.1784 15.2989C16.0403 15.5381 15.7345 15.62 15.4953 15.4819L14.2057 14.7373C14.0221 14.6313 13.7928 14.6543 13.624 14.7825C13.2282 15.0829 12.7939 15.3352 12.3299 15.5309C12.1346 15.6133 12.0002 15.8003 12.0002 16.0122V17.5C12.0002 17.7761 11.7763 18 11.5002 18H8.50018C8.22403 18 8.00018 17.7761 8.00018 17.5V16.0122C8.00018 15.8003 7.86574 15.6133 7.67049 15.5309C7.20652 15.3353 6.7723 15.0829 6.37652 14.7826C6.20766 14.6545 5.97842 14.6315 5.79484 14.7375L4.505 15.4822C4.26586 15.6202 3.96006 15.5383 3.82199 15.2992L2.32199 12.7011C2.18392 12.4619 2.26586 12.1561 2.505 12.0181L3.79438 11.2736C3.97772 11.1678 4.07247 10.9582 4.04634 10.7481C4.01586 10.503 4.00016 10.2533 4.00016 10C4.00016 9.74667 4.01586 9.497 4.04634 9.25192C4.07247 9.04184 3.97771 8.83222 3.79438 8.72638L2.50497 7.98193C2.26582 7.84386 2.18388 7.53807 2.32195 7.29892L3.82195 4.70084C3.96002 4.4617 4.26582 4.37976 4.50497 4.51783L5.79482 5.26253C5.9784 5.36852 6.20764 5.34556 6.3765 5.21742C6.77229 4.91707 7.20651 4.66473 7.67049 4.46906ZM12.5002 10C12.5002 11.3807 11.3809 12.5 10.0002 12.5C8.61945 12.5 7.50016 11.3807 7.50016 10C7.50016 8.61929 8.61945 7.5 10.0002 7.5C11.3809 7.5 12.5002 8.61929 12.5002 10Z" fill="#D2D2D2"/>
</svg>
