<svg width="20" height="20" viewBox="0 0 20 20" fill="none" xmlns="http://www.w3.org/2000/svg">
<path fill-rule="evenodd" clip-rule="evenodd" d="M10 18C14.4183 18 18 14.4183 18 10C18 5.58172 14.4183 2 10 2C5.58172 2 2 5.58172 2 10C2 14.4183 5.58172 18 10 18ZM6.5 6C6.22386 6 6 6.22386 6 6.5V9.5C6 9.77614 6.22386 10 6.5 10H7.5C7.77614 10 8 9.77614 8 9.5V6.5C8 6.22386 7.77614 6 7.5 6H6.5ZM14 6.5C14 6.22386 13.7761 6 13.5 6H12.5C12.2239 6 12 6.22386 12 6.5V9.5C12 9.77614 12.2239 10 12.5 10H13.5C13.7761 10 14 9.77614 14 9.5V6.5ZM14 12.5C14 12.2238 13.7761 12 13.5 12H10H6.5C6.22386 12 6 12.2238 6 12.5V12.7929C6 12.9255 6.05268 13.0527 6.14645 13.1464L7.85356 14.8535C7.94732 14.9473 8.0745 15 8.20711 15L10 15H11.7929C11.9255 15 12.0527 14.9473 12.1464 14.8535L13.8536 13.1464C13.9473 13.0527 14 12.9255 14 12.7929V12.5Z" fill="#D2D2D2"/>
</svg>
