<svg width="24" height="24" viewBox="0 0 24 24" fill="none" xmlns="http://www.w3.org/2000/svg">
<path d="M15.244 6.29702L15.2336 6.3154M15.2336 6.3154L8.76644 17.6846M15.2336 6.3154L18.5 5.42704M15.2336 6.3154L14.3583 3M8.76644 17.6846L8.75539 17.704M8.76644 17.6846L5.5 18.573M8.76644 17.6846L9.64171 21M8.75599 6.29702L8.76644 6.3154M8.76644 6.3154L15.2336 17.6846M8.76644 6.3154L5.5 5.42704M8.76644 6.3154L9.64171 3M15.2336 17.6846L15.2446 17.704M15.2336 17.6846L18.5 18.573M15.2336 17.6846L14.3583 21M18.5918 12H18.5706M18.5706 12H5.42944M18.5706 12L21 14.5M18.5706 12L21 9.5M5.42944 12H5.40699M5.42944 12L3 9.50004M5.42944 12L3 14.5" stroke="black" stroke-width="1.5"/>
</svg>
