<svg width="24" height="24" viewBox="0 0 24 24" fill="none" xmlns="http://www.w3.org/2000/svg">
<path fill-rule="evenodd" clip-rule="evenodd" d="M12 5.71429C8.5285 5.71429 5.71429 8.5285 5.71429 12C5.71429 15.4715 8.5285 18.2857 12 18.2857C15.4715 18.2857 18.2857 15.4715 18.2857 12C18.2857 8.5285 15.4715 5.71429 12 5.71429ZM4 12C4 7.58172 7.58172 4 12 4C16.4183 4 20 7.58172 20 12C20 16.4183 16.4183 20 12 20C7.58172 20 4 16.4183 4 12Z" fill="black"/>
<path fill-rule="evenodd" clip-rule="evenodd" d="M11.0001 12V8.50002L11.5001 8.00002H12.5001L13.0001 8.50002V11.382L16.025 12.8944L16.2501 13.5L15.7501 14.5L15.1419 14.689L11.5529 12.8944L11.0001 12Z" fill="black"/>
</svg>
