<svg width="24" height="24" viewBox="0 0 24 24" fill="none" xmlns="http://www.w3.org/2000/svg">
<path d="M5 9V4H15L19 8V9M5 18V20H19V18M17.5 13.7727H19.5V14.8636C19.5 15.9545 18.286 16.5 17.5 16.5C16 16.5 15.5 15.2273 15.5 14.8636V12.1364C15.5 11.2636 16 10.5 17.5 10.5C18.5 10.5 19.5 11.0455 19.5 12.1364M4.5 10V16.5H8.5M9.5 14.7V12.3C9.5 11.7 10 10.5 11.5 10.5C13 10.5 13.5 11.7 13.5 12.3V14.7C13.5 15.9 12.4143 16.5 11.5 16.5C10.5857 16.5 9.5 15.9 9.5 14.7Z" stroke="black" stroke-width="1.5"/>
</svg>
