<svg width="24" height="24" viewBox="0 0 24 24" fill="none" xmlns="http://www.w3.org/2000/svg">
<path d="M6 20L6 11M6 11C7.10457 11 8 10.1046 8 9C8 7.89543 7.10457 7 6 7M6 11C4.89543 11 4 10.1046 4 9C4 7.89543 4.89543 7 6 7M6 7L6 4M12 20L12 17M12 17C13.1046 17 14 16.1046 14 15C14 13.8954 13.1046 13 12 13M12 17C10.8954 17 10 16.1046 10 15C10 13.8954 10.8954 13 12 13M12 13V4M18 20V11M18 11C19.1046 11 20 10.1046 20 9C20 7.89543 19.1046 7 18 7M18 11C16.8954 11 16 10.1046 16 9C16 7.89543 16.8954 7 18 7M18 7V4" stroke="black" stroke-width="1.5"/>
</svg>
