<svg width="24" height="24" viewBox="0 0 24 24" fill="none" xmlns="http://www.w3.org/2000/svg">
<path fill-rule="evenodd" clip-rule="evenodd" d="M5.94211 3.07904C6.31183 3.07904 6.49699 3.52605 6.23556 3.78748L5.48535 4.5377L8.03574 7.04584L7.16279 7.9335L4.60498 5.41806L3.85193 6.17111C3.5905 6.43254 3.14349 6.24738 3.14349 5.87766V3.49404C3.14349 3.26484 3.32929 3.07904 3.55849 3.07904L5.94211 3.07904Z" fill="black"/>
<path fill-rule="evenodd" clip-rule="evenodd" d="M4.60498 18.5361L7.16279 16.0206L8.03574 16.9083L5.48535 19.4165L6.23556 20.1667C6.49699 20.4281 6.31183 20.8751 5.94211 20.8751H3.55849C3.32929 20.8751 3.14349 20.6893 3.14349 20.4601V18.0765C3.14349 17.7068 3.5905 17.5216 3.85193 17.783L4.60498 18.5361Z" fill="black"/>
<path fill-rule="evenodd" clip-rule="evenodd" d="M18.0579 3.07904C17.6882 3.07904 17.503 3.52605 17.7645 3.78749L18.5146 4.53767L15.9642 7.04584L16.8372 7.9335L19.395 5.41804L20.1481 6.17111C20.4095 6.43254 20.8565 6.24738 20.8565 5.87767V3.49404C20.8565 3.26484 20.6707 3.07904 20.4415 3.07904L18.0579 3.07904Z" fill="black"/>
<path fill-rule="evenodd" clip-rule="evenodd" d="M19.395 18.5361L16.8372 16.0206L15.9642 16.9083L18.5147 19.4165L17.7645 20.1667C17.503 20.4281 17.6882 20.8751 18.0579 20.8751H20.4415C20.6707 20.8751 20.8565 20.6893 20.8565 20.4601V18.0765C20.8565 17.7068 20.4095 17.5216 20.148 17.783L19.395 18.5361Z" fill="black"/>
<path fill-rule="evenodd" clip-rule="evenodd" d="M4.31783 10.4945C4.57926 10.233 5.02627 10.4182 5.02627 10.788V11.1746H6.67733V12.4196H5.02627V12.8063C5.02627 13.1761 4.57926 13.3613 4.31783 13.0998L3.30862 12.0906C3.14656 11.9285 3.14656 11.6658 3.30862 11.5037L4.31783 10.4945Z" fill="black"/>
<path fill-rule="evenodd" clip-rule="evenodd" d="M13.3148 4.31633C13.5763 4.57776 13.3911 5.02477 13.0214 5.02477H12.6348V6.67587H11.3898V5.02477H11.003C10.6333 5.02477 10.4481 4.57776 10.7096 4.31633L11.7188 3.30713C11.8809 3.14506 12.1436 3.14506 12.3056 3.30713L13.3148 4.31633Z" fill="black"/>
<path fill-rule="evenodd" clip-rule="evenodd" d="M11.3898 19.0818V17.3477H12.6348V19.0818H13.0214C13.3911 19.0818 13.5763 19.5288 13.3148 19.7903L12.3056 20.7995C12.1436 20.9615 11.8809 20.9615 11.7188 20.7995L10.7096 19.7903C10.4481 19.5288 10.6333 19.0818 11.003 19.0818H11.3898Z" fill="black"/>
<path fill-rule="evenodd" clip-rule="evenodd" d="M19.6822 10.4945C19.4207 10.233 18.9737 10.4182 18.9737 10.788V11.1746H17.4057V12.4196H18.9737V12.8063C18.9737 13.1761 19.4207 13.3613 19.6822 13.0998L20.6914 12.0906C20.8535 11.9285 20.8535 11.6658 20.6914 11.5037L19.6822 10.4945Z" fill="black"/>
<path fill-rule="evenodd" clip-rule="evenodd" d="M15.1557 13.3127V10.9428L15.113 10.9656C14.8378 11.1123 14.4665 11.3085 14.0832 11.5052C13.7013 11.7012 13.3016 11.9007 12.9716 12.0527C12.8373 12.1146 12.7092 12.1711 12.5953 12.217V14.8761C13.3626 14.4955 14.2779 14.0199 14.9428 13.6708C15.0715 13.6032 15.1557 13.4678 15.1557 13.3127ZM11.3503 14.9059C10.6046 14.5229 9.70505 14.039 9.05208 13.684C8.92622 13.6156 8.84423 13.4816 8.84423 13.3287V10.9178C8.87566 10.9342 8.90871 10.9515 8.9432 10.9696C9.2256 11.1171 9.60669 11.3143 9.99977 11.5116C10.3914 11.7083 10.8011 11.9081 11.1387 12.0597C11.2114 12.0923 11.2824 12.1234 11.3503 12.1522V14.9059ZM12.0384 8.84557C12.6575 9.11109 13.6006 9.55302 14.4006 9.93442C14.1471 10.0691 13.8347 10.2334 13.5148 10.3975C13.1381 10.5908 12.7567 10.781 12.4507 10.9219C12.2969 10.9928 12.1701 11.0475 12.0764 11.0834C12.0682 11.0866 12.0605 11.0895 12.0532 11.0922C12.046 11.0897 12.0385 11.0868 12.0303 11.0839C11.9351 11.0487 11.8058 10.9945 11.6484 10.9238C11.3356 10.7834 10.9448 10.593 10.5584 10.399C10.2164 10.2273 9.88255 10.0552 9.61679 9.91674C10.396 9.54223 11.3116 9.11262 11.9497 8.84526C11.9803 8.83248 12.0082 8.83267 12.0384 8.84557ZM8.52079 9.06386C7.95464 9.33931 7.59925 9.91459 7.59925 10.5442V13.3287C7.59925 13.933 7.92652 14.4891 8.45744 14.7778C9.26284 15.2156 10.4643 15.8611 11.2923 16.2715C11.6898 16.4686 12.1504 16.4729 12.5511 16.2823C13.4123 15.8727 14.6794 15.2154 15.5217 14.773C16.0642 14.4881 16.4007 13.9255 16.4007 13.3127V10.5529C16.4007 9.91876 16.0406 9.3404 15.4691 9.06567C14.5996 8.64771 13.3207 8.04085 12.5291 7.70136C12.1889 7.55545 11.8101 7.55393 11.4687 7.69697C10.6346 8.04639 9.3745 8.64851 8.52079 9.06386Z" fill="black"/>
</svg>
