<svg width="20" height="20" viewBox="0 0 20 20" fill="none" xmlns="http://www.w3.org/2000/svg">
<path d="M13.2554 2.15034C13.1614 2.05419 13.0325 2 12.898 2H7.20711C7.0745 2 6.94732 2.05268 6.85355 2.14645L2.14645 6.85355C2.05268 6.94732 2 7.0745 2 7.20711V12.898C2 13.0325 2.05419 13.1614 2.15034 13.2554L6.85425 17.8574C6.94768 17.9488 7.07319 18 7.20391 18H12.9012C13.0338 18 13.161 17.9473 13.2548 17.8536L17.8536 13.2548C17.9473 13.161 18 13.0338 18 12.9012V7.20391C18 7.07319 17.9488 6.94768 17.8574 6.85425L13.2554 2.15034ZM10.3536 14.6464C10.1583 14.8417 9.84171 14.8417 9.64645 14.6464L8.85355 13.8536C8.65829 13.6583 8.65829 13.3417 8.85355 13.1464L9.64645 12.3536C9.84171 12.1583 10.1583 12.1583 10.3536 12.3536L11.1464 13.1464C11.3417 13.3417 11.3417 13.6583 11.1464 13.8536L10.3536 14.6464ZM11 10C11 10.2761 10.7761 10.5 10.5 10.5H9.5C9.22386 10.5 9 10.2761 9 10V6C9 5.72386 9.22386 5.5 9.5 5.5H10.5C10.7761 5.5 11 5.72386 11 6V10Z" fill="#D2D2D2"/>
</svg>
