<svg width="20" height="20" viewBox="0 0 20 20" fill="none" xmlns="http://www.w3.org/2000/svg">
<path d="M5.40385 4.69643C5.59911 4.50117 5.91569 4.50117 6.11095 4.69643L10.0002 8.58564L13.8892 4.69659C14.0845 4.50132 14.4011 4.50132 14.5963 4.69659L15.3034 5.40369C15.4987 5.59895 15.4987 5.91554 15.3034 6.1108L11.4144 9.99985L15.3033 13.8888C15.4986 14.0841 15.4986 14.4007 15.3033 14.5959L14.5962 15.303C14.401 15.4983 14.0844 15.4983 13.8891 15.303L10.0002 11.4141L6.11103 15.3032C5.91577 15.4984 5.59919 15.4984 5.40393 15.3032L4.69682 14.5961C4.50156 14.4008 4.50156 14.0842 4.69682 13.889L8.58594 9.99985L4.69674 6.11065C4.50148 5.91539 4.50148 5.5988 4.69674 5.40354L5.40385 4.69643Z" fill="#D2D2D2"/>
</svg>
