<svg width="20" height="20" viewBox="0 0 20 20" fill="none" xmlns="http://www.w3.org/2000/svg">
<path d="M13.151 3.06231V5.32805L16.3281 2.15091C16.5293 1.9497 16.8556 1.9497 17.0568 2.15091L17.8491 2.94322C18.0503 3.14443 18.0503 3.47067 17.8491 3.67188L14.6719 6.84902H16.9377C17.2223 6.84902 17.4529 7.0797 17.4529 7.36426V8.48476C17.4529 8.76932 17.2223 9 16.9377 9H11.5152C11.2307 9 11 8.76932 11 8.48476V3.06231C11 2.77775 11.2307 2.54706 11.5152 2.54706H12.6357C12.9203 2.54706 13.151 2.77775 13.151 3.06231Z" fill="#CCCCCC"/>
<path d="M6.84902 16.9377V14.672L3.67188 17.8491C3.47067 18.0503 3.14443 18.0503 2.94322 17.8491L2.15091 17.0568C1.9497 16.8556 1.9497 16.5293 2.15091 16.3281L5.32805 13.151H3.06231C2.77775 13.151 2.54706 12.9203 2.54706 12.6357L2.54706 11.5152C2.54706 11.2307 2.77775 11 3.06231 11L8.48475 11C8.76932 11 9 11.2307 9 11.5152L9 16.9377C9 17.2223 8.76932 17.4529 8.48476 17.4529H7.36427C7.0797 17.4529 6.84902 17.2223 6.84902 16.9377Z" fill="#CCCCCC"/>
</svg>
