<svg width="20" height="20" viewBox="0 0 20 20" fill="none" xmlns="http://www.w3.org/2000/svg">
<path d="M0 16.5625C0 16.8041 0.223858 17 0.5 17H1C1.27614 17 1.5 16.8041 1.5 16.5625L1.5 3.4375C1.5 3.19588 1.27614 3 1 3H0.5C0.223858 3 0 3.19588 0 3.4375V16.5625Z" fill="#D2D2D2"/>
<path d="M18.5 16.5625C18.5 16.8041 18.7239 17 19 17H19.5C19.7761 17 20 16.8041 20 16.5625V3.4375C20 3.19588 19.7761 3 19.5 3H19C18.7239 3 18.5 3.19588 18.5 3.4375V16.5625Z" fill="#D2D2D2"/>
<path d="M6.97104 7.2767L6.98163 7.28099V8.6281C6.70661 8.42975 6.334 8.18182 5.74847 8.18182C4.92341 8.18182 4.55967 8.66942 4.55967 10.0744C4.55967 11.3967 4.92341 11.8099 5.81944 11.8099C6.36948 11.8099 6.83968 11.5455 7.07922 11.3471V12.6446C6.83968 12.7934 6.31626 13 5.71298 13C3.8943 13 3.21118 12.1074 3.21118 10.1488C3.21118 7.99173 3.8943 7 5.70411 7C6.28846 7 6.76134 7.19169 6.97104 7.2767Z" fill="#D2D2D2"/>
<path fill-rule="evenodd" clip-rule="evenodd" d="M8.07922 12.9132H9.35673V11.2603C9.40216 11.2627 9.4404 11.265 9.47555 11.2672C9.56398 11.2726 9.63282 11.2769 9.74708 11.2769C11.2819 11.2769 11.9739 10.6074 11.9739 9.11983C11.9739 7.64876 11.3795 7.08678 9.76483 7.08678C9.26649 7.08678 8.99524 7.10088 8.67421 7.11757C8.50374 7.12643 8.31921 7.13603 8.07922 7.14463V12.9132ZM9.35673 10.1694V8.19421C9.51642 8.16942 9.56965 8.16942 9.72934 8.16942C10.51 8.16942 10.6697 8.49173 10.6697 9.18595C10.6697 9.8719 10.4568 10.1942 9.74708 10.1942C9.59974 10.1942 9.54416 10.1885 9.43302 10.1771L9.35673 10.1694Z" fill="#D2D2D2"/>
<path d="M14.8813 12.9421C13.6392 12.9421 12.9739 12.4298 12.9739 10.7851V7.05785H14.2425V10.6529C14.2425 11.6033 14.3578 11.8099 14.8813 11.8099C15.4313 11.8099 15.52 11.6198 15.52 10.6942V7.05785H16.7887V10.7769C16.7887 12.4711 16.1499 12.9421 14.8813 12.9421Z" fill="#D2D2D2"/>
</svg>
