<svg width="20" height="20" viewBox="0 0 20 20" fill="none" xmlns="http://www.w3.org/2000/svg">
    <path fill-rule="evenodd" clip-rule="evenodd" d="M16.0389 1.92998C15.836 1.75575 15.5761 1.66211 15.3086 1.66684L15.2939 1.66697H13.9022V9.16699H15.2939L15.3086 9.16712C15.5761 9.17185 15.836 9.07821 16.0389 8.90397C16.2297 8.74023 16.3577 8.51603 16.4022 8.2696V2.56435C16.3577 2.31792 16.2297 2.09372 16.0389 1.92998ZM12.2355 9.82347V1.66697H3.65945C3.45848 1.6647 3.26346 1.73508 3.11033 1.86525C2.95719 1.99541 2.85626 2.17654 2.82612 2.37525L2.82592 2.37661L1.67611 9.87537C1.67608 9.87555 1.67613 9.8752 1.67611 9.87537C1.65808 9.99464 1.66608 10.1169 1.69971 10.2328C1.7334 10.3488 1.7919 10.4561 1.87116 10.5472C1.95043 10.6384 2.04857 10.7112 2.15878 10.7607C2.26899 10.8102 2.38864 10.8351 2.50944 10.8337L2.51887 10.8336L7.23554 10.8337C7.69578 10.8337 8.06887 11.2068 8.06887 11.667V15.0003C8.06887 15.4424 8.24447 15.8663 8.55703 16.1788C8.7469 16.3687 8.97786 16.508 9.22901 16.5882L12.2355 9.82347ZM13.6104 10.8337L10.4971 17.8388C10.3633 18.1397 10.0649 18.3337 9.73554 18.3337C8.85149 18.3337 8.00364 17.9825 7.37852 17.3574C6.7534 16.7322 6.40221 15.8844 6.40221 15.0003V12.5003H2.52312C2.1625 12.5037 1.8054 12.4289 1.47634 12.2812C1.14571 12.1329 0.851291 11.9144 0.613486 11.6409C0.375681 11.3674 0.200178 11.0455 0.0991348 10.6975C-0.00190818 10.3494 -0.0260751 9.98357 0.0283094 9.62527L1.17829 2.12536C1.17826 2.12561 1.17833 2.12511 1.17829 2.12536C1.26884 1.52952 1.57169 0.985684 2.03091 0.595348C2.489 0.205968 3.07203 -0.00524867 3.67311 0.000301361H15.2872C15.9601 -0.00964308 16.6136 0.226824 17.1245 0.665321C17.6374 1.10556 17.9708 1.71879 18.0614 2.3886C18.0664 2.42563 18.0689 2.46294 18.0689 2.50031V8.33365C18.0689 8.37101 18.0664 8.40833 18.0614 8.44535C17.9708 9.11516 17.6374 9.72839 17.1245 10.1686C16.6137 10.6071 15.9602 10.8436 15.2872 10.8337H13.6104Z" fill="#CCCCCC"/>
</svg>
