<svg width="20" height="20" viewBox="0 0 20 20" fill="none" xmlns="http://www.w3.org/2000/svg">
    <path d="M10.497 17.8389L13.6104 10.8337L13.6144 10.8337L13.6144 0.000370415L3.67308 0.000373192C3.072 -0.00517714 2.48898 0.206039 2.03088 0.59542C1.57167 0.985755 1.26881 1.52959 1.17827 2.12543L0.0282833 9.62534C-0.0261009 9.98364 -0.00193475 10.3495 0.099109 10.6975C0.200151 11.0456 0.375656 11.3675 0.61346 11.6409C0.851264 11.9144 1.14568 12.1329 1.47632 12.2813C1.80537 12.429 2.16247 12.5037 2.52309 12.5004L6.40218 12.5004L6.40218 15.0004C6.40218 15.8845 6.75337 16.7323 7.37849 17.3574C8.00361 17.9825 8.85146 18.3337 9.73552 18.3337C10.0648 18.3337 10.3633 18.1398 10.497 17.8389Z" fill="#CCCCCC"/>
    <path d="M15.1144 0.000370284L15.1144 10.8337L15.2872 10.8337C15.9601 10.8437 16.6136 10.6072 17.1245 10.1687C17.6373 9.72846 17.9707 9.11523 18.0613 8.44542C18.0663 8.4084 18.0688 8.37108 18.0688 8.33372L18.0688 2.50037C18.0688 2.46301 18.0663 2.4257 18.0613 2.38867C17.9707 1.71886 17.6373 1.10563 17.1245 0.66539C16.6136 0.226895 15.9601 -0.0095728 15.2871 0.000370269L15.1144 0.000370284Z" fill="#CCCCCC"/>
</svg>
