<svg width="20" height="20" viewBox="0 0 20 20" fill="none" xmlns="http://www.w3.org/2000/svg">
<path d="M14.9127 8.76208V6.56337L11.8295 9.64651C11.6343 9.84177 11.3177 9.84177 11.1224 9.64651L10.3536 8.87764C10.1583 8.68238 10.1583 8.3658 10.3536 8.17054L13.4367 5.0874H11.238C10.9618 5.0874 10.738 4.86354 10.738 4.5874V3.50006C10.738 3.22392 10.9618 3.00006 11.238 3.00006H16.5C16.7761 3.00006 17 3.22392 17 3.50006V8.76208C17 9.03822 16.7761 9.26208 16.5 9.26208H15.4127C15.1365 9.26208 14.9127 9.03822 14.9127 8.76208Z" fill="#D2D2D2"/>
<path d="M5.08709 11.238V13.4368L8.17023 10.3536C8.36549 10.1584 8.68208 10.1584 8.87734 10.3536L9.6462 11.1225C9.84146 11.3177 9.84146 11.6343 9.6462 11.8296L6.56306 14.9127H8.76177C9.03791 14.9127 9.26177 15.1366 9.26177 15.4127V16.5001C9.26177 16.7762 9.03791 17.0001 8.76177 17.0001H3.49976C3.22361 17.0001 2.99976 16.7762 2.99976 16.5001V11.238C2.99976 10.9619 3.22361 10.738 3.49976 10.738H4.58709C4.86324 10.738 5.08709 10.9619 5.08709 11.238Z" fill="#D2D2D2"/>
</svg>
