<svg width="20" height="20" viewBox="0 0 20 20" fill="none" xmlns="http://www.w3.org/2000/svg">
<path fill-rule="evenodd" clip-rule="evenodd" d="M10.1173 1.21327C9.81744 0.978002 9.40992 0.933637 9.06647 1.09887C8.72302 1.2641 8.50335 1.6102 8.50004 1.99132C8.49778 2.25117 8.35064 2.81183 7.96928 3.55261C7.60451 4.26117 7.08069 5.02662 6.4557 5.68046C5.97793 6.18027 5.57453 6.54425 5.17797 6.90205C5.0185 7.04593 4.86013 7.18881 4.69849 7.33913C4.141 7.85755 3.61145 8.4083 3.08525 9.23403C2.00434 10.9302 2 12.196 2 13.1714C2 17.0307 5.32565 20 9.5 20C9.59768 20 9.69489 19.9984 9.7916 19.9952C9.86065 19.9984 9.93013 20 10 20C10.4289 20 10.8431 19.9386 11.2318 19.8239C14.5576 19.1324 17 16.4787 17 13.1714C17 10.1653 15.7195 7.53374 14.2574 5.50709C12.7922 3.47611 11.0915 1.97768 10.1173 1.21327ZM13.9939 15.9944C14.6379 15.1893 15 14.2069 15 13.1714C15 10.7376 13.9591 8.51199 12.6354 6.67721C11.7932 5.5098 10.858 4.53078 10.0619 3.795C9.96747 4.02093 9.86142 4.24672 9.74748 4.46805C9.3019 5.33356 8.66931 6.25911 7.90144 7.06242C7.36873 7.61972 6.88268 8.05831 6.47131 8.4295C6.32442 8.56205 6.18701 8.68604 6.06044 8.80374C5.57328 9.25676 5.17427 9.67743 4.77189 10.3088C3.99995 11.5202 3.99998 12.3248 4 13.1575L4 13.1714C4 14.6856 4.77417 16.0862 6.07209 16.9847C6.02479 16.7506 6 16.5076 6 16.2572C6 15.7638 6.00381 15.05 6.58057 14.1272C6.85552 13.6872 7.13404 13.3933 7.41017 13.1315C7.49497 13.0511 7.57341 12.9789 7.64968 12.9088C7.82704 12.7457 7.99262 12.5934 8.19903 12.3732C8.44988 12.1056 8.66349 11.7879 8.8112 11.4953C8.88446 11.3502 8.93561 11.223 8.96694 11.1228C8.99187 11.0432 8.99812 11.0002 8.99961 10.9899C8.99985 10.9883 8.99997 10.9875 9.00003 10.9875L9.00004 10.9915C9.0033 10.6086 9.22487 10.2612 9.57066 10.0969C9.91644 9.93249 10.3257 9.97997 10.6247 10.2191C11.099 10.5986 11.9238 11.3391 12.6378 12.3481C13.3088 13.2965 13.9261 14.5456 13.9939 15.9944ZM10.7459 17.8844C10.4456 17.9418 10.1331 17.9787 9.80991 17.9931C8.6868 17.9108 8 17.1025 8 16.2572C8 16.0401 8.00241 15.9051 8.03314 15.7554C8.06163 15.6166 8.12227 15.434 8.27657 15.1872C8.43019 14.9414 8.58025 14.7782 8.78626 14.5828C8.8362 14.5355 8.89387 14.4824 8.95769 14.4237C9.14959 14.2472 9.39722 14.0194 9.65811 13.7411C9.94796 13.4319 10.1985 13.09 10.4009 12.7516C10.6039 12.9764 10.8105 13.2282 11.0051 13.5033C11.5796 14.3152 12 15.2578 12 16.2572C12 16.9523 11.5355 17.6225 10.7459 17.8844Z" fill="#CCCCCC"/>
</svg>
