<svg width="20" height="20" viewBox="0 0 20 20" fill="none" xmlns="http://www.w3.org/2000/svg">
<path fill-rule="evenodd" clip-rule="evenodd" d="M2.1374 4.96181L3.85214 3.15573C3.94654 3.0563 4.07764 3 4.21474 3H7.29289C7.4255 3 7.55268 3.05268 7.64645 3.14645L9.35355 4.85355C9.44732 4.94732 9.5745 5 9.70711 5H16.7929C16.9255 5 17.0527 5.05268 17.1464 5.14645L17.8536 5.85355C17.9473 5.94732 18 6.0745 18 6.20711V15.7929C18 15.9255 17.9473 16.0527 17.8536 16.1464L17.1464 16.8536C17.0527 16.9473 16.9255 17 16.7929 17H3.23738C3.08716 17 2.9449 16.9325 2.84995 16.8161L2.11257 15.9122C2.03976 15.8229 2 15.7113 2 15.5961V5.30607C2 5.17795 2.04918 5.05472 2.1374 4.96181ZM9.25 8H10.75V10.25H13V11.75H10.75V14H9.25V11.75H7V10.25H9.25V8Z" fill="#D2D2D2"/>
</svg>
