<svg width="20" height="20" viewBox="0 0 20 20" fill="none" xmlns="http://www.w3.org/2000/svg">
<path d="M10.45 14.0422C10.6157 14.0422 10.75 13.9079 10.75 13.7422V8.67891C10.75 8.51322 10.6157 8.37891 10.45 8.37891H9.54999C9.38431 8.37891 9.24999 8.51322 9.24999 8.67891V13.7422C9.24999 13.9079 9.38431 14.0422 9.54999 14.0422H10.45Z" fill="#CCCCCC"/>
<path d="M10.2121 7.60499C10.095 7.72215 9.90502 7.72215 9.78786 7.60499L9.15147 6.9686C9.03431 6.85144 9.03431 6.66149 9.15147 6.54433L9.78786 5.90794C9.90502 5.79078 10.095 5.79078 10.2121 5.90794L10.8485 6.54433C10.9657 6.66149 10.9657 6.85144 10.8485 6.9686L10.2121 7.60499Z" fill="#CCCCCC"/>
<path fill-rule="evenodd" clip-rule="evenodd" d="M10 18C14.4183 18 18 14.4183 18 10C18 5.58172 14.4183 2 10 2C5.58172 2 2 5.58172 2 10C2 14.4183 5.58172 18 10 18ZM16.5 10C16.5 13.5899 13.5899 16.5 10 16.5C6.41015 16.5 3.5 13.5899 3.5 10C3.5 6.41015 6.41015 3.5 10 3.5C13.5899 3.5 16.5 6.41015 16.5 10Z" fill="#CCCCCC"/>
</svg>
