<svg width="20" height="20" viewBox="0 0 20 20" fill="none" xmlns="http://www.w3.org/2000/svg">
<path d="M4 6.5C4 6.77614 3.77614 7 3.5 7H2.5C2.22386 7 2 6.77614 2 6.5V5.5C2 5.22386 2.22386 5 2.5 5H3.5C3.77614 5 4 5.22386 4 5.5V6.5Z" fill="#D2D2D2"/>
<path d="M18 6.5C18 6.77614 17.7761 7 17.5 7H6.5C6.22386 7 6 6.77614 6 6.5V5.5C6 5.22386 6.22386 5 6.5 5H17.5C17.7761 5 18 5.22386 18 5.5V6.5Z" fill="#D2D2D2"/>
<path d="M2 10.5C2 10.7761 2.22386 11 2.5 11H3.5C3.77614 11 4 10.7761 4 10.5V9.5C4 9.22386 3.77614 9 3.5 9H2.5C2.22386 9 2 9.22386 2 9.5V10.5Z" fill="#D2D2D2"/>
<path d="M6 10.5C6 10.7761 6.22386 11 6.5 11H17.5C17.7761 11 18 10.7761 18 10.5V9.5C18 9.22386 17.7761 9 17.5 9H6.5C6.22386 9 6 9.22386 6 9.5V10.5Z" fill="#D2D2D2"/>
<path d="M2 14.5C2 14.7761 2.22386 15 2.5 15H3.5C3.77614 15 4 14.7761 4 14.5V13.5C4 13.2239 3.77614 13 3.5 13H2.5C2.22386 13 2 13.2239 2 13.5V14.5Z" fill="#D2D2D2"/>
<path d="M6 14.5C6 14.7761 6.22386 15 6.5 15H17.5C17.7761 15 18 14.7761 18 14.5V13.5C18 13.2239 17.7761 13 17.5 13H6.5C6.22386 13 6 13.2239 6 13.5V14.5Z" fill="#D2D2D2"/>
</svg>
