<svg width="20" height="20" viewBox="0 0 20 20" fill="none" xmlns="http://www.w3.org/2000/svg">
<path fill-rule="evenodd" clip-rule="evenodd" d="M15.1223 7.1722C15.1909 7.33006 15.0706 7.5 14.8985 7.5H13.5511C13.3436 7.5 13.2264 7.73811 13.353 7.9025L16.0473 11.4025C16.0946 11.464 16.1678 11.5 16.2454 11.5H16.7691C16.8467 11.5 16.9199 11.464 16.9672 11.4025L19.6615 7.9025C19.7881 7.73811 19.6709 7.5 19.4634 7.5H17.5329C17.4168 7.5 17.3164 7.41972 17.2865 7.30749C16.4756 4.25922 13.5241 2 10.0072 2C6.94868 2 4.31773 3.70878 3.15054 6.15927C3.0741 6.31976 3.19456 6.5 3.37232 6.5H5.11234C5.19786 6.5 5.27707 6.45604 5.3249 6.38514C6.27151 4.98212 7.96515 4 10.0072 4C12.4133 4 14.3356 5.36338 15.1223 7.1722ZM4.9333 12C4.77284 12 4.65374 12.1492 4.69987 12.3029C5.31924 14.3663 7.37341 16 10.0072 16C12.2726 16 14.1092 14.7913 14.9728 13.1402C15.0173 13.0552 15.1042 13 15.2002 13H16.8545C17.0238 13 17.144 13.1648 17.0843 13.3232C16.0578 16.0473 13.2768 18 10.0072 18C6.30787 18 3.23409 15.5002 2.61919 12.2118C2.5965 12.0905 2.49201 12 2.36856 12H0.500338C0.292878 12 0.175688 11.7619 0.302237 11.5975L2.99654 8.0975C3.04386 8.03602 3.11705 8 3.19464 8H3.71835C3.79594 8 3.86913 8.03602 3.91645 8.0975L6.61075 11.5975C6.7373 11.7619 6.62011 12 6.41265 12H4.9333Z" fill="#D2D2D2"/>
</svg>
