<svg width="20" height="20" viewBox="0 0 20 20" fill="none" xmlns="http://www.w3.org/2000/svg">
<g clip-path="url(#clip0_57031_349010)">
<path d="M14.3705 15.7845C14.5657 15.9797 14.8823 15.9797 15.0776 15.7845L15.7847 15.0773C15.9799 14.8821 15.9799 14.5655 15.7847 14.3702C15.5894 14.175 15.2728 14.175 15.0776 14.3702L14.3705 15.0773C14.1752 15.2726 14.1752 15.5892 14.3705 15.7845ZM5.05668 15.0774C4.86142 15.2726 4.86142 15.5892 5.05668 15.7845C5.25194 15.9797 5.56852 15.9797 5.76379 15.7845L15.7847 5.76363C15.9799 5.56836 15.9799 5.25178 15.7847 5.05652C15.5894 4.86126 15.2728 4.86126 15.0775 5.05652L5.05668 15.0774ZM9.7136 15.7845C9.90886 15.9797 10.2254 15.9797 10.4207 15.7845L15.7847 10.4205C15.9799 10.2252 15.9799 9.90865 15.7847 9.71339C15.5894 9.51813 15.2728 9.51813 15.0776 9.71339L9.7136 15.0773C9.51834 15.2726 9.51834 15.5892 9.7136 15.7845Z" fill="#CCCCCC"/>
</g>
<defs>
<clipPath id="clip0_57031_349010">
<rect width="20" height="20" fill="white"/>
</clipPath>
</defs>
</svg>
