<svg width="20" height="20" viewBox="0 0 20 20" fill="none" xmlns="http://www.w3.org/2000/svg">
<path fill-rule="evenodd" clip-rule="evenodd" d="M7.67036 4.46906C7.86562 4.38672 8.00005 4.19972 8.00005 3.98782V2.5C8.00005 2.22386 8.22391 2 8.50005 2H11.5001C11.7762 2 12.0001 2.22386 12.0001 2.5V3.98783C12.0001 4.19974 12.1345 4.38673 12.3297 4.46907C12.7938 4.66477 13.228 4.91715 13.6239 5.21755C13.7927 5.34571 14.022 5.36867 14.2056 5.26268L15.4953 4.51807C15.7344 4.38 16.0402 4.46193 16.1783 4.70108L17.6783 7.29916C17.8163 7.5383 17.7344 7.8441 17.4953 7.98217L16.2058 8.72661C16.0225 8.83246 15.9278 9.04207 15.9539 9.25214C15.9843 9.49715 16 9.74674 16 10C16 10.2533 15.9843 10.5029 15.9539 10.7479C15.9278 10.958 16.0225 11.1676 16.2058 11.2734L17.4952 12.0178C17.7344 12.1559 17.8163 12.4617 17.6782 12.7008L16.1782 15.2989C16.0402 15.5381 15.7344 15.62 15.4952 15.4819L14.2055 14.7373C14.022 14.6313 13.7927 14.6543 13.6239 14.7825C13.228 15.0829 12.7938 15.3352 12.3297 15.5309C12.1345 15.6133 12.0001 15.8003 12.0001 16.0122V17.5C12.0001 17.7761 11.7762 18 11.5001 18H8.50005C8.22391 18 8.00005 17.7761 8.00005 17.5V16.0122C8.00005 15.8003 7.86562 15.6133 7.67036 15.5309C7.2064 15.3353 6.77218 15.0829 6.37639 14.7826C6.20753 14.6545 5.97829 14.6315 5.79472 14.7375L4.50488 15.4822C4.26574 15.6202 3.95994 15.5383 3.82187 15.2992L2.32187 12.7011C2.1838 12.4619 2.26574 12.1561 2.50488 12.0181L3.79426 11.2736C3.97759 11.1678 4.07235 10.9582 4.04622 10.7481C4.01574 10.503 4.00004 10.2533 4.00004 10C4.00004 9.74667 4.01574 9.497 4.04622 9.25192C4.07235 9.04184 3.97759 8.83222 3.79426 8.72638L2.50484 7.98193C2.2657 7.84386 2.18376 7.53807 2.32183 7.29892L3.82183 4.70084C3.9599 4.4617 4.2657 4.37976 4.50484 4.51783L5.7947 5.26253C5.97828 5.36852 6.20752 5.34556 6.37638 5.21742C6.77217 4.91707 7.20639 4.66473 7.67036 4.46906ZM12.5 10C12.5 11.3807 11.3807 12.5 10 12.5C8.61932 12.5 7.50004 11.3807 7.50004 10C7.50004 8.61929 8.61932 7.5 10 7.5C11.3807 7.5 12.5 8.61929 12.5 10Z" fill="#D2D2D2"/>
</svg>
