<svg width="20" height="20" viewBox="0 0 20 20" fill="none" xmlns="http://www.w3.org/2000/svg">
<path fill-rule="evenodd" clip-rule="evenodd" d="M11.7429 0.566549C12.2763 0.423607 12.8247 0.74019 12.9676 1.27366L13.6239 3.72279L16.073 3.06655C16.6065 2.92361 17.1548 3.24019 17.2977 3.77366C17.4407 4.30712 17.1241 4.85546 16.5906 4.9984L13.5757 5.80626L11.7321 8.99935H15.4192L17.6263 6.79225C18.0168 6.40172 18.65 6.40172 19.0405 6.79225C19.431 7.18277 19.431 7.81594 19.0405 8.20646L17.2476 9.99935L19.0405 11.7922C19.431 12.1828 19.431 12.8159 19.0405 13.2065C18.65 13.597 18.0168 13.597 17.6263 13.2065L15.4192 10.9994H11.7322L13.5757 14.1923L16.5907 15.0002C17.1242 15.1432 17.4407 15.6915 17.2978 16.225C17.1548 16.7584 16.6065 17.075 16.073 16.9321L13.6239 16.2758L12.9677 18.725C12.8247 19.2584 12.2764 19.575 11.7429 19.4321C11.2095 19.2892 10.8929 18.7408 11.0358 18.2073L11.8436 15.1923L10.0001 11.9993L8.15655 15.1924L8.9644 18.2074C9.10734 18.7409 8.79076 19.2892 8.2573 19.4322C7.72383 19.5751 7.17549 19.2585 7.03255 18.725L6.37631 16.2759L3.92717 16.9322C3.3937 17.0751 2.84537 16.7585 2.70243 16.225C2.55948 15.6916 2.87607 15.1432 3.40953 15.0003L6.4245 14.1924L8.26803 10.9994H4.58096L2.37385 13.2065C1.98333 13.597 1.35017 13.597 0.959641 13.2065C0.569117 12.8159 0.569117 12.1828 0.959641 11.7922L2.75253 9.99935L0.959641 8.20646C0.569117 7.81594 0.569117 7.18277 0.959641 6.79225C1.35017 6.40172 1.98333 6.40172 2.37385 6.79225L4.58096 8.99935H8.26811L6.42452 5.80616L3.40966 4.99856C2.87618 4.85565 2.55956 4.30734 2.70246 3.77386C2.84537 3.24039 3.39368 2.92376 3.92716 3.06667L6.37632 3.72273L7.03262 1.27376C7.17558 0.740298 7.72393 0.423736 8.25739 0.566697C8.79085 0.709658 9.10741 1.25801 8.96445 1.79147L8.15656 4.80614L10.0001 7.99928L11.8436 4.80626L11.0358 1.79129C10.8928 1.25783 11.2094 0.709491 11.7429 0.566549Z" fill="#CCCCCC"/>
</svg>
