<svg width="20" height="20" viewBox="0 0 20 20" fill="none" xmlns="http://www.w3.org/2000/svg">
<path fill-rule="evenodd" clip-rule="evenodd" d="M15.25 17C15.5961 17 15.9345 16.8974 16.2222 16.7051C16.51 16.5128 16.7343 16.2395 16.8668 15.9197C16.9992 15.5999 17.0339 15.2481 16.9664 14.9086C16.8989 14.5691 16.7322 14.2573 16.4874 14.0126C16.2427 13.7678 15.9309 13.6012 15.5914 13.5336C15.2519 13.4661 14.9001 13.5008 14.5803 13.6332C14.2605 13.7657 13.9872 13.99 13.7949 14.2778C13.6026 14.5655 13.5 14.9039 13.5 15.25C13.4999 15.4799 13.545 15.7075 13.6329 15.9199C13.7208 16.1322 13.8497 16.3252 14.0123 16.4877C14.1748 16.6503 14.3678 16.7792 14.5801 16.8671C14.7925 16.955 15.0202 17.0001 15.25 17ZM15.25 11.75C15.5961 11.75 15.9345 11.6474 16.2222 11.4551C16.51 11.2628 16.7343 10.9895 16.8668 10.6697C16.9992 10.3499 17.0339 9.99806 16.9664 9.65859C16.8989 9.31913 16.7322 9.00731 16.4874 8.76256C16.2427 8.51782 15.9309 8.35115 15.5914 8.28363C15.2519 8.2161 14.9001 8.25076 14.5803 8.38321C14.2605 8.51567 13.9872 8.73997 13.7949 9.02775C13.6026 9.31554 13.5 9.65388 13.5 10C13.4999 10.2299 13.545 10.4575 13.6329 10.6699C13.7208 10.8822 13.8497 11.0752 14.0123 11.2377C14.1748 11.4003 14.3678 11.5292 14.5801 11.6171C14.7925 11.705 15.0202 11.7501 15.25 11.75ZM15.25 6.5C15.5961 6.5 15.9345 6.39737 16.2222 6.20507C16.51 6.01278 16.7343 5.73947 16.8668 5.4197C16.9992 5.09993 17.0339 4.74806 16.9664 4.40859C16.8989 4.06913 16.7322 3.75731 16.4874 3.51256C16.2427 3.26782 15.9309 3.10115 15.5914 3.03363C15.2519 2.9661 14.9001 3.00076 14.5803 3.13321C14.2605 3.26566 13.9872 3.48997 13.7949 3.77775C13.6026 4.06554 13.5 4.40388 13.5 4.75C13.4999 4.97985 13.545 5.20747 13.6329 5.41985C13.7208 5.63223 13.8497 5.8252 14.0123 5.98773C14.1748 6.15026 14.3678 6.27916 14.5801 6.36706C14.7925 6.45496 15.0202 6.50013 15.25 6.5ZM10 17C10.3461 17 10.6845 16.8974 10.9722 16.7051C11.26 16.5128 11.4843 16.2395 11.6168 15.9197C11.7492 15.5999 11.7839 15.2481 11.7164 14.9086C11.6489 14.5691 11.4822 14.2573 11.2374 14.0126C10.9927 13.7678 10.6809 13.6012 10.3414 13.5336C10.0019 13.4661 9.65008 13.5008 9.3303 13.6332C9.01053 13.7657 8.73722 13.99 8.54493 14.2778C8.35264 14.5655 8.25 14.9039 8.25 15.25C8.24987 15.4799 8.29504 15.7075 8.38294 15.9199C8.47084 16.1322 8.59974 16.3252 8.76227 16.4877C8.9248 16.6503 9.11777 16.7792 9.33015 16.8671C9.54253 16.955 9.77015 17.0001 10 17ZM10 11.75C10.3461 11.75 10.6845 11.6474 10.9722 11.4551C11.26 11.2628 11.4843 10.9895 11.6168 10.6697C11.7492 10.3499 11.7839 9.99806 11.7164 9.65859C11.6489 9.31913 11.4822 9.00731 11.2374 8.76256C10.9927 8.51782 10.6809 8.35115 10.3414 8.28363C10.0019 8.2161 9.65008 8.25076 9.3303 8.38321C9.01053 8.51567 8.73722 8.73997 8.54493 9.02775C8.35264 9.31554 8.25 9.65388 8.25 10C8.24987 10.2299 8.29504 10.4575 8.38294 10.6699C8.47084 10.8822 8.59974 11.0752 8.76227 11.2377C8.9248 11.4003 9.11777 11.5292 9.33015 11.6171C9.54253 11.705 9.77015 11.7501 10 11.75ZM10 6.5C10.3461 6.5 10.6845 6.39737 10.9722 6.20507C11.26 6.01278 11.4843 5.73947 11.6168 5.4197C11.7492 5.09993 11.7839 4.74806 11.7164 4.40859C11.6489 4.06913 11.4822 3.75731 11.2374 3.51256C10.9927 3.26782 10.6809 3.10115 10.3414 3.03363C10.0019 2.9661 9.65008 3.00076 9.3303 3.13321C9.01053 3.26566 8.73722 3.48997 8.54493 3.77775C8.35264 4.06554 8.25 4.40388 8.25 4.75C8.24987 4.97985 8.29504 5.20747 8.38294 5.41985C8.47084 5.63223 8.59974 5.8252 8.76227 5.98773C8.9248 6.15026 9.11777 6.27916 9.33015 6.36706C9.54253 6.45496 9.77015 6.50013 10 6.5ZM4.75 17C5.09612 17 5.43446 16.8974 5.72225 16.7051C6.01003 16.5128 6.23434 16.2395 6.36679 15.9197C6.49924 15.5999 6.5339 15.2481 6.46637 14.9086C6.39885 14.5691 6.23218 14.2573 5.98744 14.0126C5.7427 13.7678 5.43088 13.6012 5.09141 13.5336C4.75194 13.4661 4.40007 13.5008 4.0803 13.6332C3.76053 13.7657 3.48722 13.99 3.29493 14.2778C3.10264 14.5655 3 14.9039 3 15.25C2.99987 15.4799 3.04504 15.7075 3.13294 15.9199C3.22084 16.1322 3.34974 16.3252 3.51227 16.4877C3.6748 16.6503 3.86777 16.7792 4.08015 16.8671C4.29253 16.955 4.52015 17.0001 4.75 17ZM4.75 11.75C5.09612 11.75 5.43446 11.6474 5.72225 11.4551C6.01003 11.2628 6.23434 10.9895 6.36679 10.6697C6.49924 10.3499 6.5339 9.99806 6.46637 9.65859C6.39885 9.31913 6.23218 9.00731 5.98744 8.76256C5.7427 8.51782 5.43088 8.35115 5.09141 8.28363C4.75194 8.2161 4.40007 8.25076 4.0803 8.38321C3.76053 8.51567 3.48722 8.73997 3.29493 9.02775C3.10264 9.31554 3 9.65388 3 10C2.99987 10.2299 3.04504 10.4575 3.13294 10.6699C3.22084 10.8822 3.34974 11.0752 3.51227 11.2377C3.6748 11.4003 3.86777 11.5292 4.08015 11.6171C4.29253 11.705 4.52015 11.7501 4.75 11.75ZM4.75 6.5C5.09612 6.5 5.43446 6.39737 5.72225 6.20507C6.01003 6.01278 6.23434 5.73947 6.36679 5.4197C6.49924 5.09993 6.5339 4.74806 6.46637 4.40859C6.39885 4.06913 6.23218 3.75731 5.98744 3.51256C5.7427 3.26782 5.43088 3.10115 5.09141 3.03363C4.75194 2.9661 4.40007 3.00076 4.0803 3.13321C3.76053 3.26566 3.48722 3.48997 3.29493 3.77775C3.10264 4.06554 3 4.40388 3 4.75C2.99987 4.97985 3.04504 5.20747 3.13294 5.41985C3.22084 5.63223 3.34974 5.8252 3.51227 5.98773C3.6748 6.15026 3.86777 6.27916 4.08015 6.36706C4.29253 6.45496 4.52015 6.50013 4.75 6.5Z" fill="#D2D2D2"/>
</svg>
