<svg width="20" height="20" viewBox="0 0 20 20" fill="none" xmlns="http://www.w3.org/2000/svg">
    <path fill-rule="evenodd" clip-rule="evenodd" d="M15 5.16669C14.1716 5.16669 13.5 5.83826 13.5 6.66669C13.5 7.49511 14.1716 8.16669 15 8.16669C15.8284 8.16669 16.5 7.49511 16.5 6.66669C16.5 5.83826 15.8284 5.16669 15 5.16669ZM11.6449 5.66669C12.0752 4.22094 13.4145 3.16669 15 3.16669C16.933 3.16669 18.5 4.73369 18.5 6.66669C18.5 8.59968 16.933 10.1667 15 10.1667C13.4145 10.1667 12.0752 9.11243 11.6449 7.66669L2.5 7.66669C1.94772 7.66669 1.5 7.21897 1.5 6.66669C1.5 6.1144 1.94772 5.66669 2.5 5.66669L11.6449 5.66669ZM5 11.8334C4.17157 11.8334 3.5 12.5049 3.5 13.3334C3.5 14.1618 4.17157 14.8334 5 14.8334C5.82843 14.8334 6.5 14.1618 6.5 13.3334C6.5 12.5049 5.82843 11.8334 5 11.8334ZM1.5 13.3334C1.5 11.4004 3.067 9.83335 5 9.83335C6.58551 9.83335 7.92479 10.8876 8.35506 12.3334L17.5 12.3334C18.0523 12.3334 18.5 12.7811 18.5 13.3334C18.5 13.8856 18.0523 14.3334 17.5 14.3334L8.35506 14.3334C7.92479 15.7791 6.58551 16.8334 5 16.8334C3.067 16.8334 1.5 15.2663 1.5 13.3334Z" fill="#CCCCCC"/>
</svg>
