<svg width="20" height="20" viewBox="0 0 20 20" fill="none" xmlns="http://www.w3.org/2000/svg">
<path fill-rule="evenodd" clip-rule="evenodd" d="M10 9.58824C11.7673 9.58824 13.2 8.11341 13.2 6.29412C13.2 4.47483 11.7673 3 10 3C8.23269 3 6.8 4.47483 6.8 6.29412C6.8 8.11341 8.23269 9.58824 10 9.58824ZM6.16569 11.4765L4.23431 13.4647C4.08429 13.6191 4 13.8286 4 14.047V16.5882C4 16.8156 4.17909 17 4.4 17H15.6C15.8209 17 16 16.8156 16 16.5882V14.047C16 13.8286 15.9157 13.6191 15.7657 13.4647L13.8343 11.4765C13.6843 11.3221 13.4808 11.2353 13.2686 11.2353H6.73137C6.5192 11.2353 6.31571 11.3221 6.16569 11.4765Z" fill="#D2D2D2"/>
</svg>
