<svg width="24" height="24" viewBox="0 0 24 24" fill="none" xmlns="http://www.w3.org/2000/svg">
<path d="M11 4V3.25C10.5858 3.25 10.25 3.58579 10.25 4H11ZM10.25 11.5C10.25 11.9142 10.5858 12.25 11 12.25C11.4142 12.25 11.75 11.9142 11.75 11.5H10.25ZM11 9.08295H13V7.58295H11V9.08295ZM13 9.08295C13.4159 9.08295 14.0665 8.97277 14.6386 8.60387C15.2522 8.20819 15.75 7.52404 15.75 6.5H14.25C14.25 6.96153 14.0573 7.19385 13.8257 7.34326C13.5524 7.51944 13.2031 7.58295 13 7.58295V9.08295ZM15.75 6.5V5.88098H14.25V6.5H15.75ZM15.75 5.88098C15.75 5.10381 15.5058 4.41209 14.9702 3.9226C14.4452 3.44284 13.7411 3.25 13 3.25V4.75C13.4969 4.75 13.7928 4.87866 13.9583 5.0299C14.1132 5.17141 14.25 5.42017 14.25 5.88098H15.75ZM13 3.25H11V4.75H13V3.25ZM10.25 4V8.33295H11.75V4H10.25ZM10.25 8.33295V11.5H11.75V8.33295H10.25Z" fill="black"/>
<path d="M21 17C21 19.2091 16.9706 21 12 21C7.02944 21 3 19.2091 3 17M21 12C21 14.2091 16.9706 16 12 16C7.02944 16 3 14.2091 3 12" stroke="black" stroke-width="1.5"/>
</svg>
