<svg width="24" height="24" viewBox="0 0 24 24" fill="none" xmlns="http://www.w3.org/2000/svg">
<path d="M17.7275 9.13698C17.7275 11.07 16.1605 12.637 14.2275 12.637C12.2945 12.637 10.7275 11.07 10.7275 9.13698C10.7275 7.20399 12.2945 5.63698 14.2275 5.63698C16.1605 5.63698 17.7275 7.20399 17.7275 9.13698Z" fill="black"/>
<path d="M6.27246 14.863C6.27246 16.796 7.83946 18.363 9.77246 18.363C11.5357 18.363 12.9944 17.0592 13.237 15.363C13.237 15.363 11.4995 15.0501 10.2725 14.137C8.86475 13.0894 8.41267 11.637 8.41267 11.637C7.1551 12.1677 6.27246 13.4123 6.27246 14.863Z" fill="black"/>
<path d="M17.7275 9.13698C17.7275 11.07 16.1605 12.637 14.2275 12.637C12.2945 12.637 10.7275 11.07 10.7275 9.13698C10.7275 7.20399 12.2945 5.63698 14.2275 5.63698C16.1605 5.63698 17.7275 7.20399 17.7275 9.13698Z" stroke="black" stroke-width="1.5"/>
<path d="M6.27246 14.863C6.27246 16.796 7.83946 18.363 9.77246 18.363C11.5357 18.363 12.9944 17.0592 13.237 15.363C13.237 15.363 11.4995 15.0501 10.2725 14.137C8.86475 13.0894 8.41267 11.637 8.41267 11.637C7.1551 12.1677 6.27246 13.4123 6.27246 14.863Z" stroke="black" stroke-width="1.5"/>
</svg>
