<svg width="24" height="24" viewBox="0 0 24 24" fill="none" xmlns="http://www.w3.org/2000/svg">
<path fill-rule="evenodd" clip-rule="evenodd" d="M2.5 4.5C2.22386 4.5 2 4.72386 2 5V7C2 7.27614 2.22386 7.5 2.5 7.5H4.5C4.77614 7.5 5 7.27614 5 7V5C5 4.72386 4.77614 4.5 4.5 4.5H2.5ZM8.5 4.5C8.22386 4.5 8 4.72386 8 5V7C8 7.27614 8.22386 7.5 8.5 7.5H21.5C21.7761 7.5 22 7.27614 22 7V5C22 4.72386 21.7761 4.5 21.5 4.5H8.5ZM8.5 10.5C8.22386 10.5 8 10.7239 8 11V13C8 13.2761 8.22386 13.5 8.5 13.5H21.5C21.7761 13.5 22 13.2761 22 13V11C22 10.7239 21.7761 10.5 21.5 10.5H8.5ZM8 17C8 16.7239 8.22386 16.5 8.5 16.5H21.5C21.7761 16.5 22 16.7239 22 17V19C22 19.2761 21.7761 19.5 21.5 19.5H8.5C8.22386 19.5 8 19.2761 8 19V17ZM2 11C2 10.7239 2.22386 10.5 2.5 10.5H4.5C4.77614 10.5 5 10.7239 5 11V13C5 13.2761 4.77614 13.5 4.5 13.5H2.5C2.22386 13.5 2 13.2761 2 13V11ZM2.5 16.5C2.22386 16.5 2 16.7239 2 17V19C2 19.2761 2.22386 19.5 2.5 19.5H4.5C4.77614 19.5 5 19.2761 5 19V17C5 16.7239 4.77614 16.5 4.5 16.5H2.5Z" fill="black"/>
</svg>
