<svg width="24" height="24" viewBox="0 0 24 24" fill="none" xmlns="http://www.w3.org/2000/svg">
<path d="M18 4H20V12H18V4Z" fill="black"/>
<path d="M6.82353 4H15V13L12.4706 20C10.7765 20 10.3529 18.6667 10.3529 18V14.6667H5.41176C4.28235 14.6667 4 13.7778 4 13.3333L4.70588 6C4.70588 4.4 6.11765 4 6.82353 4Z" fill="black"/>
<path d="M18 4H20V12H18V4Z" stroke="black" stroke-width="1.5"/>
<path d="M6.82353 4H15V13L12.4706 20C10.7765 20 10.3529 18.6667 10.3529 18V14.6667H5.41176C4.28235 14.6667 4 13.7778 4 13.3333L4.70588 6C4.70588 4.4 6.11765 4 6.82353 4Z" stroke="black" stroke-width="1.5"/>
</svg>
