<svg width="24" height="24" viewBox="0 0 24 24" fill="none" xmlns="http://www.w3.org/2000/svg">
<path d="M6.6 7.50533C6.6 7.40587 6.63951 7.31049 6.70983 7.24016L7.24017 6.70983C7.31049 6.63951 7.40587 6.6 7.50533 6.6H10.1947C10.2941 6.6 10.3895 6.63951 10.4598 6.70983L10.9902 7.24016C11.0605 7.31049 11.1 7.40587 11.1 7.50533V10.1947C11.1 10.2941 11.0605 10.3895 10.9902 10.4598L10.4598 10.9902C10.3895 11.0605 10.2941 11.1 10.1947 11.1H7.50533C7.40587 11.1 7.31049 11.0605 7.24017 10.9902L6.70983 10.4598C6.63951 10.3895 6.6 10.2941 6.6 10.1947V7.50533Z" fill="#389F74"/>
<path d="M6.70983 13.5402C6.63951 13.6105 6.6 13.7059 6.6 13.8053V16.4947C6.6 16.5941 6.63951 16.6895 6.70983 16.7598L7.24017 17.2902C7.31049 17.3605 7.40587 17.4 7.50533 17.4H10.1947C10.2941 17.4 10.3895 17.3605 10.4598 17.2902L10.9902 16.7598C11.0605 16.6895 11.1 16.5941 11.1 16.4947V13.8053C11.1 13.7059 11.0605 13.6105 10.9902 13.5402L10.4598 13.0098C10.3895 12.9395 10.2941 12.9 10.1947 12.9H7.50533C7.40587 12.9 7.31049 12.9395 7.24017 13.0098L6.70983 13.5402Z" fill="#389F74"/>
<path d="M12.9 7.50533C12.9 7.40587 12.9395 7.31049 13.0098 7.24016L13.5402 6.70983C13.6105 6.63951 13.7059 6.6 13.8053 6.6H16.4947C16.5941 6.6 16.6895 6.63951 16.7598 6.70983L17.2902 7.24016C17.3605 7.31049 17.4 7.40587 17.4 7.50533V10.1947C17.4 10.2941 17.3605 10.3895 17.2902 10.4598L16.7598 10.9902C16.6895 11.0605 16.5941 11.1 16.4947 11.1H13.8053C13.7059 11.1 13.6105 11.0605 13.5402 10.9902L13.0098 10.4598C12.9395 10.3895 12.9 10.2941 12.9 10.1947V7.50533Z" fill="#389F74"/>
<path d="M13.0098 13.5402C12.9395 13.6105 12.9 13.7059 12.9 13.8053V16.4947C12.9 16.5941 12.9395 16.6895 13.0098 16.7598L13.5402 17.2902C13.6105 17.3605 13.7059 17.4 13.8053 17.4H16.4947C16.5941 17.4 16.6895 17.3605 16.7598 17.2902L17.2902 16.7598C17.3605 16.6895 17.4 16.5941 17.4 16.4947V13.8053C17.4 13.7059 17.3605 13.6105 17.2902 13.5402L16.7598 13.0098C16.6895 12.9395 16.5941 12.9 16.4947 12.9H13.8053C13.7059 12.9 13.6105 12.9395 13.5402 13.0098L13.0098 13.5402Z" fill="#389F74"/>
<path fill-rule="evenodd" clip-rule="evenodd" d="M4.6682 3.1318L3.1318 4.6682C3.04741 4.75259 3 4.86705 3 4.9864V19.0136C3 19.1329 3.04741 19.2474 3.1318 19.3318L4.6682 20.8682C4.75259 20.9526 4.86705 21 4.9864 21L19.0136 21C19.1329 21 19.2474 20.9526 19.3318 20.8682L20.8682 19.3318L21 19.0136V4.9864C21 4.86705 20.9526 4.75259 20.8682 4.6682L19.3318 3.1318C19.2474 3.04741 19.1329 3 19.0136 3H4.9864C4.86705 3 4.75259 3.04741 4.6682 3.1318ZM19.2 18.4544V5.54558L18.4544 4.8H5.54559L4.8 5.54558V18.4544L5.54558 19.2L18.4544 19.2L19.2 18.4544Z" fill="#389F74"/>
</svg>
