<svg width="24" height="24" viewBox="0 0 24 24" fill="none" xmlns="http://www.w3.org/2000/svg">
<path fill-rule="evenodd" clip-rule="evenodd" d="M1.99991 2.49967C1.99991 2.22353 2.22377 1.99967 2.49991 1.99967H5.86438C6.30983 1.99967 6.53291 2.53824 6.21793 2.85323L5.88892 3.18223C5.69366 3.37749 5.69366 3.69408 5.88892 3.88934L7.52506 5.52548C7.72033 5.72074 7.72032 6.03732 7.52506 6.23258L6.33033 7.42732C6.13507 7.62258 5.81848 7.62258 5.62322 7.42732L3.98708 5.79118C3.79182 5.59592 3.47524 5.59592 3.27998 5.79118L2.85346 6.21769C2.53848 6.53268 1.99991 6.30959 1.99991 5.86414V2.49967ZM2.49991 22.0003C2.22377 22.0003 1.99991 21.7765 1.99991 21.5003V18.1359C1.99991 17.6904 2.53848 17.4673 2.85346 17.7823L3.28009 18.2089C3.47535 18.4042 3.79194 18.4042 3.9872 18.2089L5.62344 16.5727C5.8187 16.3774 6.13528 16.3774 6.33055 16.5727L7.52528 17.7674C7.72054 17.9627 7.72054 18.2793 7.52528 18.4745L5.88904 20.1108C5.69378 20.306 5.69378 20.6226 5.88904 20.8179L6.21793 21.1468C6.53291 21.4618 6.30983 22.0003 5.86438 22.0003H2.49991ZM21.4156 22.0003C21.6918 22.0003 21.9156 21.7765 21.9156 21.5003V18.1359C21.9156 17.6904 21.377 17.4673 21.0621 17.7823L20.6354 18.2089C20.4402 18.4042 20.1236 18.4042 19.9283 18.2089L18.2921 16.5727C18.0968 16.3774 17.7802 16.3774 17.585 16.5727L16.3902 17.7674C16.195 17.9627 16.195 18.2793 16.3902 18.4745L18.0265 20.1108C18.2217 20.306 18.2217 20.6226 18.0265 20.8179L17.6976 21.1468C17.3826 21.4618 17.6057 22.0003 18.0511 22.0003H21.4156ZM21.4156 1.99967C21.6918 1.99967 21.9156 2.22353 21.9156 2.49967L21.9156 5.86414C21.9156 6.30959 21.377 6.53268 21.0621 6.21769L20.6355 5.79118C20.4403 5.59592 20.1237 5.59592 19.9284 5.79118L18.2923 7.42732C18.097 7.62258 17.7805 7.62258 17.5852 7.42732L16.3905 6.23258C16.1952 6.03732 16.1952 5.72074 16.3905 5.52548L18.0266 3.88934C18.2219 3.69408 18.2219 3.37749 18.0266 3.18223L17.6976 2.85323C17.3826 2.53824 17.6057 1.99967 18.0511 1.99967H21.4156ZM7.14644 9.18688C7.05267 9.28065 7 9.40783 7 9.54044V14.4596C7 14.5922 7.05267 14.7193 7.14644 14.8131L9.18688 16.8536C9.28065 16.9473 9.40783 17 9.54044 17H14.4596C14.5922 17 14.7193 16.9473 14.8131 16.8536L16.8535 14.8131C16.9473 14.7193 17 14.5922 17 14.4596V9.54044C17 9.40783 16.9473 9.28065 16.8535 9.18688L14.8131 7.14644C14.7193 7.05268 14.5922 7 14.4596 7H9.54044C9.40783 7 9.28065 7.05268 9.18688 7.14644L7.14644 9.18688ZM9.47994 10.5202C9.38617 10.614 9.33349 10.7412 9.33349 10.8738V13.1262C9.33349 13.2588 9.38617 13.386 9.47994 13.4798L10.3537 14.3536C10.4475 14.4473 10.5747 14.5 10.7073 14.5H13.2929C13.4255 14.5 13.5527 14.4473 13.6464 14.3536L14.5202 13.4798C14.614 13.386 14.6667 13.2588 14.6667 13.1262V10.8738C14.6667 10.7412 14.614 10.614 14.5202 10.5202L13.6464 9.64644C13.5527 9.55268 13.4255 9.5 13.2929 9.5H10.7073C10.5747 9.5 10.4475 9.55268 10.3537 9.64644L9.47994 10.5202Z" fill="#389F74"/>
</svg>
