<svg width="24" height="24" viewBox="0 0 24 24" fill="none" xmlns="http://www.w3.org/2000/svg">
<path fill-rule="evenodd" clip-rule="evenodd" d="M9.50001 5C9.77615 5 10 5.22386 10 5.5V8.86151C10 8.95213 9.97538 9.04105 9.92876 9.11876L4.16281 18.7287C4.06339 18.8944 4.06835 19.1025 4.17553 19.2633L5.85158 21.7773C5.94431 21.9164 6.10043 22 6.2676 22H17.7324C17.8996 22 18.0557 21.9164 18.1484 21.7773L19.8245 19.2633C19.9317 19.1025 19.9366 18.8944 19.8372 18.7287L14.0713 9.11876C14.0246 9.04105 14 8.95213 14 8.86151V5.5C14 5.22386 14.2239 5 14.5 5H15C15.2762 5 15.5 4.77614 15.5 4.5V3.5C15.5 3.22386 15.2762 3 15 3H9.00001C8.72387 3 8.50001 3.22386 8.50001 3.5V4.5C8.50001 4.77614 8.72387 5 9.00001 5H9.50001ZM9.0217 15.9484C9.01237 15.9643 9.00508 15.9817 9.00001 16H15C14.9949 15.9817 14.9877 15.9643 14.9783 15.9484L12.6988 12.0516C12.6894 12.0357 12.6822 12.0183 12.6771 12H11.3229C11.3179 12.0183 11.3106 12.0357 11.3012 12.0516L9.0217 15.9484Z" fill="#389F74"/>
</svg>
