<svg width="24" height="24" viewBox="0 0 24 24" fill="none" xmlns="http://www.w3.org/2000/svg">
<path fill-rule="evenodd" clip-rule="evenodd" d="M6.35057 6.03131L7.72249 10.2426C7.85659 10.6543 8.24036 10.9329 8.67331 10.9329H15.2928C15.726 10.9329 16.11 10.6539 16.2439 10.2419L17.6111 6.03386L18.9836 10.2582L19.9417 13.0952L11.9831 18.8793L4.05455 13.1172L6.35057 6.03131ZM16.9875 4.11454C16.9862 4.11049 16.985 4.10643 16.9837 4.10236L16.9875 4.11454ZM5.68307 2.75025C5.88552 2.63484 6.11596 2.57286 6.35239 2.57286C6.68968 2.57286 7.01477 2.69899 7.26381 2.92646C7.27075 2.9328 7.27761 2.93924 7.28437 2.94578C7.44548 3.1015 7.56502 3.295 7.6322 3.5086L9.39926 8.9329H14.5662L16.3358 3.48656C16.3414 3.46916 16.3475 3.45192 16.3541 3.43485C16.4298 3.23914 16.5503 3.06389 16.7059 2.92314C16.9545 2.69776 17.2781 2.57286 17.6137 2.57286C17.951 2.57286 18.2761 2.69899 18.5251 2.92646C18.5321 2.9328 18.5389 2.93924 18.5457 2.94578C18.7069 3.10162 18.8265 3.29529 18.8937 3.5091L20.8839 9.63479L21.9199 12.702C21.9244 12.7154 21.9287 12.7288 21.9326 12.7424C22.034 13.0907 22.0205 13.4624 21.8939 13.8024C21.7711 14.1321 21.5485 14.4149 21.2574 14.6115L12.571 20.9244C12.2204 21.1792 11.7457 21.1792 11.3952 20.9244L2.69174 14.5991L2.68718 14.5958C2.40053 14.385 2.1879 14.0889 2.07972 13.7499C1.97194 13.4122 1.97332 13.0492 2.08362 12.7123L5.07444 3.48656C5.0801 3.46916 5.08623 3.45192 5.09283 3.43485C5.13343 3.32987 5.18692 3.23078 5.25181 3.13974C5.30789 3.06106 5.37248 2.98839 5.44463 2.92314C5.44427 2.92347 5.6746 2.75508 5.68307 2.75025Z" fill="#389F74"/>
</svg>
