<svg width="24" height="24" viewBox="0 0 24 24" fill="none" xmlns="http://www.w3.org/2000/svg">
<path d="M2 21.5V9.2854C2 9.16031 2.04689 9.03975 2.13142 8.94754L2.85137 8.16214C2.94608 8.05882 3.0798 8 3.21995 8H5.78005C5.9202 8 6.05392 8.05882 6.14863 8.16214L6.86858 8.94754C6.95311 9.03975 7 9.16031 7 9.2854V21.5C7 21.7761 6.77614 22 6.5 22H2.5C2.22386 22 2 21.7761 2 21.5Z" fill="#389F74"/>
<path d="M17 21.5V5.2854C17 5.16031 17.0469 5.03975 17.1314 4.94754L17.8514 4.16214C17.9461 4.05882 18.0798 4 18.22 4H20.78C20.9202 4 21.0539 4.05882 21.1486 4.16214L21.8686 4.94754C21.9531 5.03975 22 5.16031 22 5.2854V21.5C22 21.7761 21.7761 22 21.5 22H17.5C17.2239 22 17 21.7761 17 21.5Z" fill="#389F74"/>
<path d="M9.5 21.5V12.2854C9.5 12.1603 9.54689 12.0398 9.63142 11.9475L10.3514 11.1621C10.4461 11.0588 10.5798 11 10.72 11H13.28C13.4202 11 13.5539 11.0588 13.6486 11.1621L14.3686 11.9475C14.4531 12.0398 14.5 12.1603 14.5 12.2854V21.5C14.5 21.7761 14.2761 22 14 22H10C9.72386 22 9.5 21.7761 9.5 21.5Z" fill="#389F74"/>
</svg>
