<svg width="24" height="24" viewBox="0 0 24 24" fill="none" xmlns="http://www.w3.org/2000/svg">
<path fill-rule="evenodd" clip-rule="evenodd" d="M4.2071 3H19.7929C19.9255 3 20.0527 3.05268 20.1464 3.14645L21.5095 4.50947C21.7508 4.75079 21.6848 5.15761 21.3795 5.31024L20.2368 5.88159C20.0887 5.95566 19.9868 6.09827 19.9648 6.26243L18.1496 19.816C18.1337 19.9347 18.0758 20.0438 17.9862 20.1233L17.1421 20.8737C17.0506 20.9551 16.9324 21 16.8099 21H7.19009C7.06764 21 6.94944 20.9551 6.85791 20.8737L6.01374 20.1233C5.92423 20.0438 5.86625 19.9347 5.85035 19.816L4.03514 6.26243C4.01316 6.09827 3.91131 5.95566 3.76317 5.88159L2.62047 5.31024C2.31522 5.15761 2.2492 4.75079 2.49052 4.50947L3.85355 3.14645C3.94732 3.05268 4.07449 3 4.2071 3ZM10.0001 7.25982C10.0001 7.11637 10.1047 7.00009 10.2337 7.00009L13.7665 7C13.8955 7 14.0001 7.11629 14.0001 7.25974V10.7402C14.0001 10.8836 13.8955 10.9999 13.7665 10.9999L10.2337 11C10.1047 11 10.0001 10.8837 10.0001 10.7403V7.25982ZM6.76708 14.7274C6.76708 13.4722 7.91525 12.4547 9.04415 12.4547C10.1731 12.4547 11.2796 13.4722 11.2796 14.7274C11.2796 15.9826 10.1731 17.0001 9.04415 17.0001C7.91525 17.0001 6.76708 15.9826 6.76708 14.7274ZM15.0277 12.4547C14.8597 12.1421 14.4683 12.1421 14.3003 12.4547L12.3938 16.0025C12.2153 16.3348 12.4206 16.7657 12.7575 16.7657H16.5705C16.9074 16.7657 17.1127 16.3348 16.9342 16.0025L15.0277 12.4547Z" fill="#389F74"/>
</svg>
