<svg width="20" height="20" viewBox="0 0 20 20" fill="none" xmlns="http://www.w3.org/2000/svg">
<path fill-rule="evenodd" clip-rule="evenodd" d="M14.2667 8.23111C14.2667 10.5679 12.3565 12.4622 10.0001 12.4622C7.64365 12.4622 5.7334 10.5679 5.7334 8.23111C5.7334 5.89433 7.64365 4 10.0001 4C12.3565 4 14.2667 5.89433 14.2667 8.23111Z" fill="#CCCCCC"/>
<path d="M2 18.2513V18.2206C2 17.92 2.12041 17.6317 2.33474 17.4192L4.6979 15.0757C5.01939 14.7569 5.45542 14.5778 5.91008 14.5778H14.0899C14.5446 14.5778 14.9806 14.7569 15.3021 15.0757L17.6653 17.4192C17.8796 17.6317 18 17.92 18 18.2206V18.2513V20H10H2V18.2513Z" fill="#CCCCCC"/>
</svg>
