<svg width="112" height="16" viewBox="0 0 112 16" fill="none" xmlns="http://www.w3.org/2000/svg">
    <g clip-path="url(#clip0_12934_225233)">
        <g class="sbercloud-logo-cloud-text" fill="#07E897">
            <path d="M71.4208 11.6955C71.3033 11.8385 71.1391 11.9797 70.9264 12.119C70.7138 12.2583 70.4639 12.3846 70.1765 12.4961C69.8874 12.6075 69.5666 12.7004 69.2103 12.7728C68.854 12.8453 68.4736 12.8806 68.0669 12.8806C67.2909 12.8806 66.5876 12.7691 65.9571 12.5444C65.3267 12.3196 64.7875 11.9982 64.3418 11.5822C63.896 11.1661 63.5489 10.6553 63.3009 10.0534C63.0527 9.45159 62.9297 8.76987 62.9297 8.00643C62.9297 7.29685 63.0509 6.64672 63.2953 6.05417C63.5396 5.46163 63.8847 4.9508 64.3361 4.51986C64.7875 4.08891 65.3303 3.75456 65.9646 3.51679C66.6007 3.27903 67.3095 3.16016 68.0949 3.16016C68.8429 3.16016 69.4826 3.25302 70.0142 3.43693C70.546 3.62082 70.9525 3.81215 71.2305 4.00904V6.35138C71.0869 6.1452 70.9078 5.94272 70.697 5.74582C70.4844 5.54893 70.2456 5.37432 69.9807 5.22015C69.714 5.06783 69.4211 4.94338 69.1022 4.85049C68.7813 4.75577 68.4456 4.70933 68.0949 4.70933C67.5819 4.70933 67.1173 4.79106 66.7014 4.9508C66.2872 5.1124 65.9348 5.33717 65.6475 5.62323C65.3583 5.91114 65.1383 6.25849 64.9852 6.66715C64.8323 7.07581 64.7558 7.52719 64.7558 8.02128C64.7558 8.47824 64.8249 8.90733 64.9647 9.3067C65.1047 9.70606 65.3117 10.0534 65.5859 10.3506C65.8602 10.646 66.2053 10.8819 66.6212 11.0583C67.0354 11.2329 67.5129 11.3258 68.0538 11.3351C68.4678 11.3351 68.8484 11.2905 69.1954 11.1995C69.5423 11.1104 69.8576 10.9896 70.1412 10.8354C70.4247 10.6831 70.6747 10.5029 70.8911 10.2968C71.1075 10.0906 71.2828 9.86581 71.4189 9.62433V11.6955H71.4208Z"
                  />
            <path d="M75.1274 11.1848H80.2665V12.7339H73.4375V3.30701H75.1274V11.1848Z" />
            <path d="M80.6846 8.00643C80.6846 7.29685 80.8039 6.64672 81.0427 6.05417C81.2815 5.46163 81.6209 4.9508 82.0631 4.51986C82.5052 4.08891 83.0368 3.75456 83.658 3.51679C84.2792 3.27903 84.9786 3.16016 85.7546 3.16016C86.512 3.16016 87.2041 3.27161 87.8308 3.49636C88.4576 3.72113 88.9911 4.04248 89.4332 4.45856C89.8752 4.8765 90.2167 5.38547 90.4609 5.9873C90.7034 6.58913 90.8266 7.27086 90.8266 8.03429C90.8266 8.74387 90.7072 9.394 90.4684 9.98655C90.2297 10.5791 89.8883 11.0899 89.448 11.5209C89.006 11.9518 88.4725 12.2862 87.8458 12.5239C87.2189 12.7617 86.5233 12.8806 85.7565 12.8806C84.9992 12.8806 84.3072 12.771 83.6804 12.5499C83.0536 12.3307 82.5201 12.0112 82.078 11.5933C81.6359 11.1754 81.2946 10.6645 81.0502 10.059C80.8058 9.45343 80.6846 8.76987 80.6846 8.00643ZM82.4698 8.01944C82.4698 8.47638 82.5388 8.90733 82.6787 9.31227C82.8185 9.71536 83.0275 10.0664 83.3073 10.3618C83.5871 10.6571 83.9322 10.893 84.3425 11.0695C84.753 11.2441 85.2286 11.3314 85.7696 11.3314C86.2751 11.3314 86.7265 11.2497 87.1276 11.0881C87.5287 10.9265 87.8719 10.7017 88.1554 10.4156C88.4389 10.1277 88.6571 9.78037 88.812 9.37171C88.965 8.96306 89.0415 8.51168 89.0415 8.01758C89.0415 7.56062 88.9705 7.12967 88.8324 6.72474C88.6926 6.32166 88.4837 5.97059 88.2039 5.67523C87.9241 5.37989 87.579 5.14399 87.1686 4.96753C86.7583 4.79291 86.2825 4.70561 85.7416 4.70561C85.2361 4.70561 84.781 4.78734 84.3761 4.94708C83.9713 5.1087 83.6263 5.33531 83.3409 5.62695C83.0574 5.91857 82.841 6.26593 82.6917 6.67087C82.5444 7.07767 82.4698 7.52533 82.4698 8.01944Z"
                  />
            <path d="M94.4897 8.88137C94.4897 9.31232 94.5513 9.68198 94.6725 9.99217C94.7938 10.3024 94.9635 10.5569 95.1799 10.7593C95.3963 10.9618 95.6538 11.1085 95.9503 11.2033C96.2469 11.298 96.5715 11.3445 96.9241 11.3445C97.6366 11.3445 98.1888 11.1643 98.5806 10.8058C98.9723 10.4473 99.1682 9.85844 99.1682 9.04113V3.30695H100.858V8.86838C100.858 9.55938 100.765 10.1594 100.58 10.6665C100.396 11.1736 100.129 11.5934 99.7819 11.9259C99.4348 12.2584 99.0151 12.5036 98.5246 12.6596C98.034 12.8175 97.4762 12.8955 96.855 12.8955C96.1612 12.8955 95.5605 12.8026 95.0568 12.6187C94.5513 12.4348 94.1298 12.1729 93.7922 11.8311C93.4545 11.4893 93.2046 11.0788 93.0423 10.5996C92.88 10.1203 92.7998 9.57795 92.7998 8.97798V3.30695H94.4897V8.88137Z"
                  />
            <path d="M106.794 3.30695C108.551 3.30695 109.859 3.69703 110.715 4.47905C111.571 5.25921 112 6.37744 112 7.83188C112 8.69376 111.871 9.43492 111.614 10.0535C111.357 10.672 110.997 11.181 110.532 11.5748C110.068 11.9704 109.514 12.2621 108.868 12.4497C108.223 12.6391 107.518 12.732 106.753 12.732H103.535V3.30695H106.794ZM106.753 11.1847C107.934 11.1847 108.809 10.9116 109.376 10.3637C109.943 9.81572 110.228 9.02626 110.228 7.99348C110.228 6.94398 109.95 6.15825 109.396 5.63629C108.842 5.11618 107.965 4.85613 106.766 4.85613H105.225V11.1847H106.753Z"
                  />
        </g>
        <g class="sbercloud-logo-text" fill="#373E45">
            <path d="M24.8633 7.19379C23.7514 6.93187 22.7907 6.70712 22.7907 5.93624C22.7907 4.90161 24.0685 4.79015 24.6189 4.79015C25.3818 4.79015 25.8146 4.89417 26.3817 5.15051C26.6577 4.94803 27.9131 4.02671 27.9131 4.02671C27.0849 3.50103 25.8407 3.09052 24.6319 3.09052C21.7481 3.09052 20.7221 4.61739 20.7221 6.04584C20.7221 8.10397 22.5185 8.5312 24.104 8.91014C25.2176 9.17576 26.1783 9.40424 26.1783 10.19C26.1783 10.593 25.9376 11.2673 24.3223 11.2673C23.2515 11.2673 22.0763 10.8921 21.2445 10.2866L20.543 11.8822C21.3918 12.5416 22.8653 12.9651 24.3092 12.9651C26.7005 12.9651 28.2469 11.8097 28.2469 10.0228C28.2488 7.9888 26.4488 7.56715 24.8633 7.19379Z"
                  />
            <path d="M37.0066 7.8776L36.9078 7.84416L36.9992 7.794C37.7882 7.36863 38.2229 6.62934 38.2229 5.71358C38.2229 4.17369 36.9115 3.25421 34.7142 3.25421H30.1738V12.8H34.9828C37.3742 12.8 38.6911 11.8824 38.6911 10.2162C38.6911 9.08312 38.0773 8.23053 37.0066 7.8776ZM32.2426 4.84426H34.4455C35.8353 4.84426 36.1261 5.48138 36.1261 6.01078C36.1261 6.77793 35.5443 7.1773 34.4455 7.1773H32.2426V4.84426ZM32.2426 7.17916H34.4455H32.2426ZM34.8205 11.2118H32.2407V8.76735H34.8205C35.9976 8.76735 36.5944 9.17414 36.5944 9.9896C36.5963 10.8069 36.0162 11.2118 34.8205 11.2118Z"
                  />
            <path d="M45.6994 4.84404L47.8651 3.25586H40.6162V12.7998H47.8651V11.2116H42.685V8.76714H47.1022V7.17895H42.685V4.84404H45.6994Z"
                  />
            <path d="M57.9661 12.7998L55.8601 9.69961C57.1024 9.15907 57.8187 8.09657 57.8187 6.67185C57.8187 4.56541 56.2536 3.25586 53.7373 3.25586H49.792V12.8017H51.8607V10.0971H53.7392C53.7988 10.0971 53.8566 10.0953 53.9145 10.0934L55.7519 12.7998H57.9661ZM51.8588 4.84404H53.6926C55.017 4.84404 55.7481 5.49418 55.7481 6.67557C55.7481 7.85694 55.0187 8.50707 53.6926 8.50707H51.8588V4.84404Z"
                  />
        </g>
        <g class="sbercloud-logo-prefix-icon" fill="#373E45">
            <path fill-rule="evenodd" clip-rule="evenodd"
                  d="M14.1012 8.02798C14.1012 11.4018 11.3546 14.1368 7.96658 14.1368C4.57857 14.1368 1.83202 11.4018 1.83202 8.02798C1.83202 4.65419 4.57857 1.91921 7.96658 1.91921C9.26522 1.91921 10.4696 2.32102 11.4612 3.00663L12.959 1.888C11.5956 0.787362 9.85845 0.12793 7.96658 0.12793C3.5851 0.12793 0.0332031 3.6649 0.0332031 8.02798C0.0332031 12.3911 3.5851 15.928 7.96658 15.928C12.3481 15.928 15.9 12.3911 15.9 8.02798C15.9 7.53501 15.8546 7.05261 15.7679 6.58465L14.0922 7.69701C14.0982 7.80659 14.1012 7.91693 14.1012 8.02798Z"
                  />
            <path fill-rule="evenodd" clip-rule="evenodd"
                  d="M14.1012 8.02798C14.1012 11.4018 11.3546 14.1368 7.96658 14.1368C4.57857 14.1368 1.83202 11.4018 1.83202 8.02798C1.83202 4.65419 4.57857 1.91921 7.96658 1.91921C9.26522 1.91921 10.4696 2.32102 11.4612 3.00663L12.959 1.888C11.5956 0.787362 9.85845 0.12793 7.96658 0.12793C3.5851 0.12793 0.0332031 3.6649 0.0332031 8.02798C0.0332031 12.3911 3.5851 15.928 7.96658 15.928C12.3481 15.928 15.9 12.3911 15.9 8.02798C15.9 7.53501 15.8546 7.05261 15.7679 6.58465L14.0922 7.69701C14.0982 7.80659 14.1012 7.91693 14.1012 8.02798Z"
                  />
            <path fill-rule="evenodd" clip-rule="evenodd"
                  d="M14.1012 8.02798C14.1012 11.4018 11.3546 14.1368 7.96658 14.1368C4.57857 14.1368 1.83202 11.4018 1.83202 8.02798C1.83202 4.65419 4.57857 1.91921 7.96658 1.91921C9.26522 1.91921 10.4696 2.32102 11.4612 3.00663L12.959 1.888C11.5956 0.787362 9.85845 0.12793 7.96658 0.12793C3.5851 0.12793 0.0332031 3.6649 0.0332031 8.02798C0.0332031 12.3911 3.5851 15.928 7.96658 15.928C12.3481 15.928 15.9 12.3911 15.9 8.02798C15.9 7.53501 15.8546 7.05261 15.7679 6.58465L14.0922 7.69701C14.0982 7.80659 14.1012 7.91693 14.1012 8.02798Z"
                  />
            <path d="M14.2579 3.29559C14.6291 3.77325 14.9453 4.29299 15.1989 4.84936L8.04788 10.0981L5.05957 8.2314V5.98951L8.04788 7.8544L14.2579 3.29559Z"
                  />
        </g>
    </g>
    <defs>
        <clipPath id="clip0_12934_225233">
            <rect width="112" height="16" fill="white"/>
        </clipPath>
    </defs>
</svg>
