<svg width="24" height="24" viewBox="0 0 24 24" fill="none" xmlns="http://www.w3.org/2000/svg">
<path d="M12 7C13.6356 7 15.0878 7.31414 16 7.7998L19.2021 4.5977M12 7C10.3644 7 8.91222 7.31414 7.99999 7.7998L4.80084 4.60066M12 7L12 3" stroke="black" stroke-width="1.5"/>
<path d="M21 7C21 9.20914 16.9706 11 12 11C7.02944 11 3 9.20914 3 7M21 7C21 4.79086 16.9706 3 12 3C7.02944 3 3 4.79086 3 7M21 7V17C21 19.2091 16.9706 21 12 21C7.02944 21 3 19.2091 3 17V7M21 12C21 14.2091 16.9706 16 12 16C7.02944 16 3 14.2091 3 12" stroke="black" stroke-width="1.5"/>
</svg>
