<svg width="20" height="20" viewBox="0 0 20 20" fill="none" xmlns="http://www.w3.org/2000/svg">
<path fill-rule="evenodd" clip-rule="evenodd" d="M18.8333 20H15.1667C15.0585 20 14.9532 19.9649 14.8667 19.9L14.2 19.4C14.0741 19.3056 14 19.1574 14 19L14 17.75H12.5C10.9812 17.75 9.75 16.5188 9.75 15L9.75 10.75H6.91946C6.57612 12.3226 5.17556 13.5 3.5 13.5C1.567 13.5 0 11.933 0 10C0 8.067 1.567 6.5 3.5 6.5C5.17556 6.5 6.57612 7.67741 6.91946 9.25H9.75V5C9.75 3.48122 10.9812 2.25 12.5 2.25H14V1C14 0.842621 14.0741 0.694427 14.2 0.6L14.8667 0.1C14.9532 0.0350895 15.0585 0 15.1667 0H18.8333C18.9415 0 19.0468 0.0350895 19.1333 0.1L19.8 0.6C19.9259 0.694427 20 0.842621 20 1V5C20 5.15738 19.9259 5.30557 19.8 5.4L19.1333 5.9C19.0468 5.96491 18.9415 6 18.8333 6L15.1667 6C15.0585 6 14.9532 5.96491 14.8667 5.9L14.2 5.4C14.0741 5.30557 14 5.15738 14 5V3.75H12.5C11.8096 3.75 11.25 4.30964 11.25 5L11.25 15C11.25 15.6904 11.8096 16.25 12.5 16.25H14L14 15C14 14.8426 14.0741 14.6944 14.2 14.6L14.8667 14.1C14.9532 14.0351 15.0585 14 15.1667 14H18.8333C18.9415 14 19.0468 14.0351 19.1333 14.1L19.8 14.6C19.9259 14.6944 20 14.8426 20 15V19C20 19.1574 19.9259 19.3056 19.8 19.4L19.1333 19.9C19.0468 19.9649 18.9415 20 18.8333 20Z" fill="#D2D2D2"/>
</svg>
