<svg width="20" height="20" viewBox="0 0 20 20" fill="none" xmlns="http://www.w3.org/2000/svg">
<path fill-rule="evenodd" clip-rule="evenodd" d="M14.5002 6.86667C16.1202 6.86667 17.4335 5.55337 17.4335 3.93333C17.4335 2.3133 16.1202 1 14.5002 1C12.8802 1 11.5669 2.3133 11.5669 3.93333C11.5669 5.55337 12.8802 6.86667 14.5002 6.86667ZM9.20837 10.3367C9.08592 10.4953 9.01359 10.6876 9.00171 10.8887H10.2524C10.7829 10.8887 11.2916 11.0994 11.6666 11.4745L13.7475 13.5553C13.934 13.7418 14.0799 13.9614 14.1794 14.2002H19.5C19.7761 14.2002 20 13.9763 20 13.7002V10.9477C20 10.6825 19.8946 10.4281 19.7071 10.2406L18.0929 8.62639C17.9053 8.43885 17.651 8.3335 17.3858 8.3335H11.6142C11.349 8.3335 11.0946 8.43885 10.9071 8.62639L10.4709 9.06259C10.1384 9.56609 9.70864 9.9997 9.20837 10.3367ZM10.2222 6.55556C10.2222 8.51923 8.63032 10.1111 6.66664 10.1111C4.70296 10.1111 3.11108 8.51923 3.11108 6.55556C3.11108 4.59188 4.70296 3 6.66664 3C8.63032 3 10.2222 4.59188 10.2222 6.55556ZM2.37377 12.1816L0.292893 14.2624C0.105357 14.45 0 14.7043 0 14.9696V18.4998C0 18.7759 0.223857 18.9998 0.5 18.9998H12.8333C13.1095 18.9998 13.3333 18.7759 13.3333 18.4998V14.9696C13.3333 14.7043 13.228 14.45 13.0404 14.2624L10.9596 12.1816C10.772 11.994 10.5177 11.8887 10.2525 11.8887H3.08088C2.81566 11.8887 2.56131 11.994 2.37377 12.1816Z" fill="#D2D2D2"/>
</svg>
