<svg width="20" height="20" viewBox="0 0 20 20" fill="none" xmlns="http://www.w3.org/2000/svg">
<path fill-rule="evenodd" clip-rule="evenodd" d="M11.7471 17.3238C11.9576 16.5855 12.129 15.7373 12.2599 14.812C12.3035 14.5039 12.0518 14.2368 11.741 14.2498C11.1675 14.2738 10.5855 14.2857 10 14.2857C9.41454 14.2857 8.83251 14.2738 8.25899 14.2498C7.94817 14.2368 7.69655 14.5039 7.74011 14.812C7.87099 15.7373 8.04237 16.5855 8.25287 17.3238C8.52515 18.2788 8.84674 18.9912 9.18685 19.4468C9.52263 19.8966 9.79666 20 10 20C10.2033 20 10.4774 19.8966 10.8132 19.4468C11.1533 18.9912 11.4749 18.2788 11.7471 17.3238ZM13.3957 17.7938C13.6742 16.817 13.8857 15.6917 14.0324 14.4784C14.0607 14.2449 14.245 14.0607 14.4784 14.0324C15.6917 13.8857 16.817 13.6742 17.7938 13.3957C18.1819 13.2851 18.5546 13.1616 18.9053 13.0238C19.3173 12.8619 19.7778 13.2321 19.6208 13.646C18.5789 16.3937 16.3937 18.5789 13.646 19.6208C13.2321 19.7778 12.8619 19.3173 13.0238 18.9053C13.1616 18.5546 13.2851 18.1819 13.3957 17.7938ZM6.35397 19.6208C6.76792 19.7778 7.13811 19.3173 6.97618 18.9053C6.83838 18.5546 6.71493 18.1819 6.60428 17.7938C6.32578 16.817 6.11433 15.6917 5.96756 14.4784C5.93933 14.2449 5.75505 14.0607 5.52164 14.0324C4.30829 13.8857 3.18295 13.6742 2.20617 13.3957C1.81808 13.2851 1.44538 13.1616 1.09474 13.0238C0.682704 12.8619 0.222249 13.2321 0.37921 13.646C1.42108 16.3937 3.60626 18.5789 6.35397 19.6208ZM0.379211 6.35397C0.222249 6.76792 0.682704 7.13811 1.09474 6.97618C1.44538 6.83837 1.81808 6.71493 2.20617 6.60428C3.18295 6.32578 4.30829 6.11433 5.52164 5.96756C5.75505 5.93933 5.93933 5.75505 5.96756 5.52164C6.11433 4.30829 6.32578 3.18295 6.60428 2.20617C6.71493 1.81808 6.83838 1.44539 6.97618 1.09474C7.13811 0.682708 6.76792 0.222253 6.35397 0.379214C3.60626 1.42108 1.42108 3.60626 0.379211 6.35397ZM13.646 0.379217C13.2321 0.222253 12.8619 0.68271 13.0238 1.09475C13.1616 1.44539 13.2851 1.81808 13.3957 2.20617C13.6742 3.18295 13.8857 4.30829 14.0324 5.52164C14.0607 5.75505 14.245 5.93933 14.4784 5.96756C15.6917 6.11433 16.817 6.32578 17.7938 6.60428C18.1819 6.71493 18.5546 6.83837 18.9053 6.97618C19.3173 7.13811 19.7777 6.76792 19.6208 6.35396C18.5789 3.60626 16.3937 1.42109 13.646 0.379217ZM17.3238 8.25286C16.5855 8.04237 15.7373 7.87099 14.812 7.74012C14.5039 7.69655 14.2368 7.94817 14.2498 8.259C14.2738 8.83251 14.2857 9.41454 14.2857 10C14.2857 10.5855 14.2738 11.1675 14.2498 11.741C14.2368 12.0518 14.5039 12.3035 14.812 12.2599C15.7373 12.129 16.5855 11.9576 17.3238 11.7471C18.2788 11.4749 18.9912 11.1533 19.4468 10.8132C19.8966 10.4774 20 10.2033 20 10C20 9.79666 19.8966 9.52263 19.4468 9.18684C18.9912 8.84674 18.2788 8.52515 17.3238 8.25286ZM12.5714 10C12.5714 9.30169 12.5538 8.61392 12.5189 7.94539C12.5058 7.69437 12.3056 7.49417 12.0546 7.48108C11.3861 7.44619 10.6983 7.42857 10 7.42857C9.3017 7.42857 8.61392 7.44619 7.94539 7.48107C7.69437 7.49417 7.49418 7.69437 7.48108 7.94539C7.4462 8.61392 7.42857 9.30169 7.42857 10C7.42857 10.6983 7.4462 11.3861 7.48108 12.0546C7.49417 12.3056 7.69437 12.5058 7.94539 12.5189C8.61392 12.5538 9.3017 12.5714 10 12.5714C10.6983 12.5714 11.3861 12.5538 12.0546 12.5189C12.3056 12.5058 12.5058 12.3056 12.5189 12.0546C12.5538 11.3861 12.5714 10.6983 12.5714 10ZM11.7471 2.6762C11.9576 3.41449 12.129 4.26269 12.2599 5.18802C12.3035 5.49605 12.0518 5.76319 11.741 5.75018C11.1675 5.72619 10.5855 5.71429 10 5.71428C9.41454 5.71428 8.83251 5.72618 8.25899 5.75018C7.94817 5.76319 7.69655 5.49605 7.74011 5.18802C7.87099 4.26269 8.04237 3.41449 8.25287 2.6762C8.52515 1.7212 8.84674 1.00878 9.18685 0.55322C9.52263 0.103444 9.79667 1.01534e-06 10 1.03312e-06C10.2033 1.0509e-06 10.4774 0.103444 10.8132 0.55322C11.1533 1.00878 11.4749 1.72121 11.7471 2.6762ZM2.6762 8.25286C3.41449 8.04237 4.26269 7.87099 5.18802 7.74011C5.49605 7.69655 5.76319 7.94817 5.75018 8.25899C5.72619 8.83251 5.71429 9.41454 5.71429 10C5.71429 10.5855 5.72619 11.1675 5.75018 11.741C5.76319 12.0518 5.49605 12.3035 5.18802 12.2599C4.26269 12.129 3.41449 11.9576 2.6762 11.7471C1.72121 11.4749 1.00878 11.1533 0.55322 10.8132C0.103444 10.4774 8.56452e-07 10.2033 8.74228e-07 10C8.92004e-07 9.79666 0.103444 9.52263 0.55322 9.18684C1.00878 8.84674 1.72121 8.52515 2.6762 8.25286Z" fill="#D2D2D2"/>
</svg>
