<svg width="20" height="20" viewBox="0 0 20 20" fill="none" xmlns="http://www.w3.org/2000/svg">
<path fill-rule="evenodd" clip-rule="evenodd" d="M0.337822 16.7452C0.149762 16.5512 0.149762 16.243 0.337822 16.049L3.14136 13.1578C3.45404 12.8354 4.00031 13.0567 4.00031 13.5059V14.3502C4.00031 14.6263 4.22417 14.8502 4.50031 14.8502H5.99982H7.49982C7.77596 14.8502 7.99982 15.0741 7.99982 15.3502V17.444C7.99982 17.7202 7.77596 17.944 7.49982 17.944H5.99982H4.50031C4.22417 17.944 4.00031 18.1679 4.00031 18.444V19.2883C4.00031 19.7375 3.45404 19.9589 3.14136 19.6364L0.337822 16.7452Z" fill="#D2D2D2"/>
<path fill-rule="evenodd" clip-rule="evenodd" d="M19.6622 16.7452C19.8502 16.5512 19.8502 16.243 19.6622 16.049L16.8586 13.1578C16.546 12.8354 15.9997 13.0567 15.9997 13.5059V14.3502C15.9997 14.6263 15.7758 14.8502 15.4997 14.8502H13.9997H12.4997C12.2235 14.8502 11.9997 15.0741 11.9997 15.3502V17.444C11.9997 17.7202 12.2235 17.944 12.4997 17.944H13.9997H15.4997C15.7758 17.944 15.9997 18.1679 15.9997 18.444V19.2883C15.9997 19.7375 16.546 19.9589 16.8586 19.6364L19.6622 16.7452Z" fill="#D2D2D2"/>
<path d="M3.88889 11C1.74112 11 0 9.433 0 7.5C0 5.567 1.74112 4 3.88889 4C4.08651 4 4.28068 4.01327 4.47038 4.03886C4.72696 1.77021 6.856 0 9.44444 0C11.6963 0 13.6004 1.33975 14.2265 3.1819C14.6462 3.0637 15.0926 3 15.5556 3C18.0102 3 20 4.79086 20 7C20 9.20914 18.0102 11 15.5556 11H3.88889Z" fill="#D2D2D2"/>
</svg>
