<svg width="20" height="20" viewBox="0 0 20 20" fill="none" xmlns="http://www.w3.org/2000/svg">
<path fill-rule="evenodd" clip-rule="evenodd" d="M1 7.29289V3.70711C1 3.5745 1.05268 3.44732 1.14645 3.35355L2.85355 1.64645C2.94732 1.55268 3.0745 1.5 3.20711 1.5H16.7929C16.9255 1.5 17.0527 1.55268 17.1464 1.64645L18.8536 3.35355C18.9473 3.44732 19 3.5745 19 3.70711V7.29289C19 7.4255 18.9473 7.55268 18.8536 7.64645L17.1464 9.35355C17.0527 9.44732 16.9255 9.5 16.7929 9.5H3.20711C3.0745 9.5 2.94732 9.44732 2.85355 9.35355L1.14645 7.64645C1.05268 7.55268 1 7.4255 1 7.29289ZM6 5.5C6 6.05228 5.55228 6.5 5 6.5C4.44772 6.5 4 6.05228 4 5.5C4 4.94772 4.44772 4.5 5 4.5C5.55228 4.5 6 4.94772 6 5.5ZM9 6.5C9.55229 6.5 10 6.05228 10 5.5C10 4.94772 9.55229 4.5 9 4.5C8.44772 4.5 8 4.94772 8 5.5C8 6.05228 8.44772 6.5 9 6.5Z" fill="#D2D2D2"/>
<path fill-rule="evenodd" clip-rule="evenodd" d="M1 16.2929V12.7071C1 12.5745 1.05268 12.4473 1.14645 12.3536L2.85355 10.6464C2.94732 10.5527 3.0745 10.5 3.20711 10.5H16.7929C16.9255 10.5 17.0527 10.5527 17.1464 10.6464L18.8536 12.3536C18.9473 12.4473 19 12.5745 19 12.7071V16.2929C19 16.4255 18.9473 16.5527 18.8536 16.6464L17.1464 18.3536C17.0527 18.4473 16.9255 18.5 16.7929 18.5H3.20711C3.0745 18.5 2.94732 18.4473 2.85355 18.3536L1.14645 16.6464C1.05268 16.5527 1 16.4255 1 16.2929ZM6 14.5C6 15.0523 5.55228 15.5 5 15.5C4.44772 15.5 4 15.0523 4 14.5C4 13.9477 4.44772 13.5 5 13.5C5.55228 13.5 6 13.9477 6 14.5ZM9 15.5C9.55229 15.5 10 15.0523 10 14.5C10 13.9477 9.55229 13.5 9 13.5C8.44772 13.5 8 13.9477 8 14.5C8 15.0523 8.44772 15.5 9 15.5Z" fill="#D2D2D2"/>
</svg>
