<svg width="20" height="20" viewBox="0 0 20 20" fill="none" xmlns="http://www.w3.org/2000/svg">
<path fill-rule="evenodd" clip-rule="evenodd" d="M4.85076 2H15.1492C15.2671 2 15.3802 2.04683 15.4635 2.13017L17.8698 4.53649C17.9532 4.61984 18 4.73289 18 4.85076V15.1492C18 15.2671 17.9532 15.3802 17.8698 15.4635L15.4635 17.8698C15.3802 17.9532 15.2671 18 15.1492 18H4.85076C4.73289 18 4.61984 17.9532 4.53649 17.8698L2.13017 15.4635C2.04683 15.3802 2 15.2671 2 15.1492V4.85076C2 4.73289 2.04683 4.61984 2.13017 4.53649L4.53649 2.13017C4.61984 2.04683 4.73289 2 4.85076 2ZM9.31754 10.3366L13.0888 6.56541C13.2623 6.39184 13.5437 6.39184 13.7173 6.56541L14.6601 7.50822C14.8337 7.68178 14.8337 7.96319 14.6601 8.13675L10.5746 12.2223L9.31754 13.4793C9.14397 13.6529 8.86257 13.6529 8.689 13.4793L5.23203 10.0224C5.05847 9.84881 5.05847 9.5674 5.23203 9.39383L6.17484 8.45102C6.34841 8.27746 6.62982 8.27746 6.80338 8.45102L8.689 10.3366C8.86257 10.5102 9.14397 10.5102 9.31754 10.3366Z" fill="#D2D2D2"/>
</svg>
