<svg width="20" height="20" viewBox="0 0 20 20" fill="none" xmlns="http://www.w3.org/2000/svg">
<path d="M0 19.5V7.2854C0 7.16031 0.0468926 7.03975 0.131423 6.94754L0.851374 6.16214C0.946079 6.05882 1.0798 6 1.21995 6H3.78005C3.9202 6 4.05392 6.05882 4.14863 6.16214L4.86858 6.94754C4.95311 7.03975 5 7.16031 5 7.2854V19.5C5 19.7761 4.77614 20 4.5 20H2.5H0.5C0.223858 20 0 19.7761 0 19.5Z" fill="#D2D2D2"/>
<path d="M15 19.5V3.2854C15 3.16031 15.0469 3.03975 15.1314 2.94754L15.8514 2.16214C15.9461 2.05882 16.0798 2 16.22 2H18.78C18.9202 2 19.0539 2.05882 19.1486 2.16214L19.8686 2.94754C19.9531 3.03975 20 3.16031 20 3.2854V19.5C20 19.7761 19.7761 20 19.5 20H17.5H15.5C15.2239 20 15 19.7761 15 19.5Z" fill="#D2D2D2"/>
<path d="M7.5 19.5V10.2854C7.5 10.1603 7.54689 10.0398 7.63142 9.94754L8.35137 9.16214C8.44608 9.05882 8.5798 9 8.71995 9H11.28C11.4202 9 11.5539 9.05882 11.6486 9.16214L12.3686 9.94754C12.4531 10.0398 12.5 10.1603 12.5 10.2854V19.5C12.5 19.7761 12.2761 20 12 20H10H8C7.72386 20 7.5 19.7761 7.5 19.5Z" fill="#D2D2D2"/>
</svg>
