<svg width="20" height="20" viewBox="0 0 20 20" fill="none" xmlns="http://www.w3.org/2000/svg">
<path d="M10 1C5.94367 1 2.4795 3.56109 1.10569 7.16984C1.0381 7.34738 1.08443 7.54706 1.21789 7.68226L1.25678 7.72165C1.4182 7.88517 1.66968 7.91688 1.87053 7.80528C4.12092 6.55493 6.94012 5.81137 10 5.81137C13.0599 5.81137 15.8791 6.55493 18.1295 7.80528C18.3303 7.91688 18.5818 7.88517 18.7432 7.72165L18.7821 7.68226C18.9156 7.54706 18.9619 7.34738 18.8943 7.16983C17.5205 3.56109 14.0563 1 10 1Z" fill="#D2D2D2"/>
<path d="M10 19C5.94367 19 2.4795 16.4389 1.10569 12.8302C1.0381 12.6526 1.08443 12.4529 1.21789 12.3177L1.25678 12.2784C1.4182 12.1148 1.66968 12.0831 1.87053 12.1947C4.12092 13.4451 6.94012 14.1886 10 14.1886C13.0599 14.1886 15.8791 13.4451 18.1295 12.1947C18.3303 12.0831 18.5818 12.1148 18.7432 12.2784L18.7821 12.3177C18.9156 12.4529 18.9619 12.6526 18.8943 12.8302C17.5205 16.4389 14.0563 19 10 19Z" fill="#D2D2D2"/>
</svg>
