<svg width="20" height="20" viewBox="0 0 20 20" fill="none" xmlns="http://www.w3.org/2000/svg">
<path fill-rule="evenodd" clip-rule="evenodd" d="M0 4.79289V1.20711C0 1.0745 0.0526783 0.947322 0.146446 0.853554L0.853553 0.146447C0.947322 0.0526784 1.0745 0 1.20711 0H3.79289C3.9255 0 4.05268 0.0526783 4.14645 0.146446L4.85355 0.853553C4.94732 0.947322 5 1.0745 5 1.20711V4.79289C5 4.9255 4.94732 5.05268 4.85355 5.14645L4.14645 5.85355C4.05268 5.94732 3.9255 6 3.79289 6H3.25V6.5C3.25 7.19036 3.80964 7.75 4.5 7.75H7.00011C8.22674 7.75 9.31582 8.33895 10 9.24949C10.6842 8.33895 11.7733 7.75 12.9999 7.75H15.5C16.1904 7.75 16.75 7.19036 16.75 6.5V6H16.2071C16.0745 6 15.9473 5.94732 15.8536 5.85355L15.1464 5.14645C15.0527 5.05268 15 4.9255 15 4.79289V1.20711C15 1.0745 15.0527 0.947322 15.1464 0.853554L15.8536 0.146447C15.9473 0.0526784 16.0745 0 16.2071 0H18.7929C18.9255 0 19.0527 0.0526783 19.1464 0.146446L19.8536 0.853553C19.9473 0.947322 20 1.0745 20 1.20711V4.79289C20 4.9255 19.9473 5.05268 19.8536 5.14645L19.1464 5.85355C19.0527 5.94732 18.9255 6 18.7929 6H18.25V6.5C18.25 8.01878 17.0188 9.25 15.5 9.25H12.9999C12.1175 9.25 11.3537 9.75798 10.985 10.4975L14.1161 12.0786C14.4822 12.2635 14.4822 12.7863 14.1161 12.9712L10.2253 14.9359C10.0836 15.0075 9.91626 15.0075 9.77452 14.9359L5.88376 12.9712C5.5176 12.7863 5.5176 12.2635 5.88376 12.0786L9.01493 10.4974C8.64626 9.75795 7.8825 9.25 7.00011 9.25H4.5C2.98122 9.25 1.75 8.01878 1.75 6.5V6H1.20711C1.0745 6 0.947322 5.94732 0.853554 5.85355L0.146447 5.14645C0.0526784 5.05268 0 4.9255 0 4.79289ZM7.5 4.79289V1.20711C7.5 1.0745 7.55268 0.947322 7.64645 0.853554L8.35355 0.146447C8.44732 0.0526784 8.5745 0 8.70711 0H11.2929C11.4255 0 11.5527 0.0526783 11.6464 0.146446L12.3536 0.853553C12.4473 0.947322 12.5 1.0745 12.5 1.20711V4.79289C12.5 4.9255 12.4473 5.05268 12.3536 5.14645L11.6464 5.85355C11.5527 5.94732 11.4255 6 11.2929 6H10.75V7C10.75 7.41421 10.4142 7.75 10 7.75C9.58579 7.75 9.25 7.41421 9.25 7V6H8.70711C8.5745 6 8.44732 5.94732 8.35355 5.85355L7.64645 5.14645C7.55268 5.05268 7.5 4.9255 7.5 4.79289ZM9.37506 16.1601C9.37506 15.9714 9.26886 15.7988 9.10044 15.7137L5.81474 14.0545C5.48217 13.8866 5.08936 14.1283 5.08936 14.5008V17.5282C5.08936 17.7168 5.19556 17.8894 5.36397 17.9745L8.64956 19.6336C8.98211 19.8016 9.37492 19.5599 9.37494 19.1873L9.37506 16.1601ZM10.9888 15.7138C10.8204 15.7988 10.7142 15.9715 10.7142 16.1601L10.7145 19.1875C10.7145 19.56 11.1073 19.8017 11.4399 19.6337L14.7253 17.9747C14.8937 17.8896 14.9999 17.717 14.9999 17.5284L14.9999 14.5009C14.9999 14.1284 14.6071 13.8867 14.2745 14.0546L10.9888 15.7138Z" fill="#D2D2D2"/>
</svg>
