<svg width="20" height="20" viewBox="0 0 20 20" fill="none" xmlns="http://www.w3.org/2000/svg">
<mask id="path-1-inside-1" fill="white">
<path fill-rule="evenodd" clip-rule="evenodd" d="M18.8537 11.3672L11.3672 18.8537C11.172 19.049 10.8554 19.049 10.6601 18.8537L1.14645 9.34001C1.05268 9.24625 1 9.11907 1 8.98646L1 4.68948C1 4.55688 1.05268 4.4297 1.14645 4.33593L4.33593 1.14645C4.4297 1.05268 4.55688 1 4.68948 1L8.98646 1C9.11907 1 9.24625 1.05268 9.34001 1.14645L18.8537 10.6601C19.049 10.8554 19.049 11.172 18.8537 11.3672ZM5.30075 6.83793C6.14922 6.83793 6.83704 6.15011 6.83704 5.30164C6.83704 4.45317 6.14922 3.76535 5.30075 3.76535C4.45228 3.76535 3.76445 4.45317 3.76445 5.30164C3.76445 6.15011 4.45228 6.83793 5.30075 6.83793Z"/>
</mask>
<path fill-rule="evenodd" clip-rule="evenodd" d="M18.8537 11.3672L11.3672 18.8537C11.172 19.049 10.8554 19.049 10.6601 18.8537L1.14645 9.34001C1.05268 9.24625 1 9.11907 1 8.98646L1 4.68948C1 4.55688 1.05268 4.4297 1.14645 4.33593L4.33593 1.14645C4.4297 1.05268 4.55688 1 4.68948 1L8.98646 1C9.11907 1 9.24625 1.05268 9.34001 1.14645L18.8537 10.6601C19.049 10.8554 19.049 11.172 18.8537 11.3672ZM5.30075 6.83793C6.14922 6.83793 6.83704 6.15011 6.83704 5.30164C6.83704 4.45317 6.14922 3.76535 5.30075 3.76535C4.45228 3.76535 3.76445 4.45317 3.76445 5.30164C3.76445 6.15011 4.45228 6.83793 5.30075 6.83793Z" fill="#D2D2D2"/>
<path d="M11.3672 18.8537L9.95302 17.4395L9.95301 17.4395L11.3672 18.8537ZM18.8537 11.3672L17.4395 9.95301L17.4395 9.95302L18.8537 11.3672ZM10.6601 18.8537L9.24591 20.2679L9.24591 20.2679L10.6601 18.8537ZM1.14645 9.34001L2.56066 7.9258H2.56066L1.14645 9.34001ZM1 8.98646L3 8.98646V8.98646H1ZM1 4.68948H3V4.68948L1 4.68948ZM1.14645 4.33593L2.56066 5.75014H2.56066L1.14645 4.33593ZM4.33593 1.14645L2.92172 -0.267767H2.92172L4.33593 1.14645ZM4.68948 1L4.68948 3H4.68948L4.68948 1ZM8.98646 1V3V1ZM9.34001 1.14645L7.9258 2.56066V2.56066L9.34001 1.14645ZM18.8537 10.6601L17.4395 12.0743L17.4395 12.0743L18.8537 10.6601ZM12.7814 20.2679L20.2679 12.7814L17.4395 9.95302L9.95302 17.4395L12.7814 20.2679ZM9.24591 20.2679C10.2222 21.2442 11.8051 21.2442 12.7814 20.2679L9.95301 17.4395C10.5388 16.8537 11.4886 16.8537 12.0743 17.4395L9.24591 20.2679ZM-0.267767 10.7542L9.24591 20.2679L12.0743 17.4395L2.56066 7.9258L-0.267767 10.7542ZM-1 8.98646C-1 9.6495 -0.736606 10.2854 -0.267767 10.7542L2.56066 7.9258C2.84196 8.2071 3 8.58863 3 8.98646L-1 8.98646ZM-1 4.68948L-1 8.98646H3L3 4.68948L-1 4.68948ZM-0.267767 2.92172C-0.736606 3.39056 -1 4.02644 -1 4.68948L3 4.68948C3 5.08731 2.84196 5.46884 2.56066 5.75014L-0.267767 2.92172ZM2.92172 -0.267767L-0.267767 2.92172L2.56066 5.75014L5.75014 2.56066L2.92172 -0.267767ZM4.68948 -1C4.02644 -1 3.39056 -0.736605 2.92172 -0.267767L5.75014 2.56066C5.46884 2.84196 5.08731 3 4.68948 3L4.68948 -1ZM8.98646 -1L4.68948 -1L4.68948 3H8.98646V-1ZM10.7542 -0.267766C10.2854 -0.736604 9.64951 -1 8.98646 -1V3C8.58863 3 8.2071 2.84196 7.9258 2.56066L10.7542 -0.267766ZM20.2679 9.24591L10.7542 -0.267767L7.9258 2.56066L17.4395 12.0743L20.2679 9.24591ZM20.2679 12.7814C21.2442 11.8051 21.2442 10.2222 20.2679 9.2459L17.4395 12.0743C16.8537 11.4886 16.8537 10.5388 17.4395 9.95301L20.2679 12.7814ZM4.83704 5.30164C4.83704 5.04554 5.04465 4.83793 5.30075 4.83793V8.83793C7.25379 8.83793 8.83704 7.25468 8.83704 5.30164H4.83704ZM5.30075 5.76535C5.04465 5.76535 4.83704 5.55774 4.83704 5.30164H8.83704C8.83704 3.3486 7.25379 1.76535 5.30075 1.76535V5.76535ZM5.76445 5.30164C5.76445 5.55774 5.55684 5.76535 5.30075 5.76535V1.76535C3.34771 1.76535 1.76445 3.3486 1.76445 5.30164H5.76445ZM5.30075 4.83793C5.55684 4.83793 5.76445 5.04554 5.76445 5.30164H1.76445C1.76445 7.25468 3.34771 8.83793 5.30075 8.83793V4.83793Z" fill="#D2D2D2" mask="url(#path-1-inside-1)"/>
</svg>
