<svg width="20" height="20" viewBox="0 0 20 20" fill="none" xmlns="http://www.w3.org/2000/svg">
<path fill-rule="evenodd" clip-rule="evenodd" d="M14.8038 0.766919C13.1127 0.920649 11.5659 1.78377 10.547 3.14227L3.9223 11.9752C3.77299 12.1743 3.7928 12.4528 3.96874 12.6287L7.5981 16.2581C7.77405 16.4341 8.05258 16.4538 8.25167 16.3046L17.0846 9.67988C18.443 8.661 19.3062 7.11422 19.4599 5.42308L19.8712 0.898812C19.8995 0.587855 19.639 0.327351 19.328 0.35562L14.8038 0.766919ZM13.2077 7.01845C13.9887 7.79949 15.2551 7.79951 16.0361 7.01845C16.8172 6.23739 16.8172 4.97106 16.0361 4.19003C15.2551 3.40899 13.9888 3.40897 13.2077 4.19003C12.4266 4.97108 12.4267 6.23742 13.2077 7.01845ZM0.499947 9.15995L2.59675 11.2568C2.8119 11.4719 3.16772 11.4466 3.35028 11.2033L7.39853 5.80669C7.64699 5.4755 7.40826 5.00311 6.99422 5.00667L4.51322 5.02807C4.39171 5.02913 4.27471 5.07441 4.18414 5.15544L0.520123 8.43379C0.306209 8.62517 0.296994 8.957 0.499947 9.15995ZM11.0665 19.7265L8.96976 17.6298C8.75461 17.4146 8.77986 17.0588 9.02325 16.8762L14.4198 12.828C14.751 12.5795 15.2234 12.8182 15.2198 13.2322L15.1984 15.7132C15.1974 15.8348 15.1521 15.9518 15.071 16.0423L11.7927 19.7064C11.6013 19.9203 11.2695 19.9295 11.0665 19.7265ZM2.24784 17.9783C2.24784 17.9783 4.72256 17.6249 5.54751 16.8C6.06822 16.2792 6.01546 15.3823 5.42967 14.7965C4.84388 14.2107 3.9469 14.1579 3.42619 14.6786C2.60124 15.5036 2.24784 17.9783 2.24784 17.9783Z" fill="#D2D2D2"/>
</svg>
