<svg width="20" height="20" viewBox="0 0 20 20" fill="none" xmlns="http://www.w3.org/2000/svg">
<path fill-rule="evenodd" clip-rule="evenodd" d="M0.5 2.5C0.223858 2.5 0 2.72386 0 3V5C0 5.27614 0.223858 5.5 0.5 5.5H2.5C2.77614 5.5 3 5.27614 3 5V3C3 2.72386 2.77614 2.5 2.5 2.5H0.5ZM6.5 2.5C6.22386 2.5 6 2.72386 6 3V5C6 5.27614 6.22386 5.5 6.5 5.5H19.5C19.7761 5.5 20 5.27614 20 5V3C20 2.72386 19.7761 2.5 19.5 2.5H6.5ZM6.5 8.5C6.22386 8.5 6 8.72386 6 9V11C6 11.2761 6.22386 11.5 6.5 11.5H19.5C19.7761 11.5 20 11.2761 20 11V9C20 8.72386 19.7761 8.5 19.5 8.5H6.5ZM6 15C6 14.7239 6.22386 14.5 6.5 14.5H19.5C19.7761 14.5 20 14.7239 20 15V17C20 17.2761 19.7761 17.5 19.5 17.5H6.5C6.22386 17.5 6 17.2761 6 17V15ZM0 9C0 8.72386 0.223858 8.5 0.5 8.5H2.5C2.77614 8.5 3 8.72386 3 9V11C3 11.2761 2.77614 11.5 2.5 11.5H0.5C0.223858 11.5 0 11.2761 0 11V9ZM0.5 14.5C0.223858 14.5 0 14.7239 0 15V17C0 17.2761 0.223858 17.5 0.5 17.5H2.5C2.77614 17.5 3 17.2761 3 17V15C3 14.7239 2.77614 14.5 2.5 14.5H0.5Z" fill="#D2D2D2"/>
</svg>
