<svg width="20" height="20" viewBox="0 0 20 20" fill="none" xmlns="http://www.w3.org/2000/svg">
<path fill-rule="evenodd" clip-rule="evenodd" d="M0 0.499756C0 0.223614 0.223858 -0.000244141 0.5 -0.000244141H3.86447C4.30992 -0.000244141 4.533 0.538327 4.21802 0.853309L3.88902 1.18232C3.69375 1.37758 3.69375 1.69416 3.88902 1.88942L5.52515 3.52556C5.72042 3.72082 5.72042 4.03741 5.52515 4.23267L4.33042 5.4274C4.13516 5.62266 3.81858 5.62266 3.62331 5.4274L1.98717 3.79126C1.79191 3.596 1.47533 3.596 1.28007 3.79126L0.853554 4.21778C0.538572 4.53276 0 4.30968 0 3.86422V0.499756ZM0.5 20.0004C0.223858 20.0004 0 19.7766 0 19.5004V16.1359C0 15.6905 0.538572 15.4674 0.853554 15.7824L1.28018 16.209C1.47545 16.4043 1.79203 16.4043 1.98729 16.209L3.62353 14.5728C3.81879 14.3775 4.13538 14.3775 4.33064 14.5728L5.52537 15.7675C5.72063 15.9628 5.72063 16.2794 5.52537 16.4746L3.88913 18.1109C3.69387 18.3061 3.69387 18.6227 3.88913 18.818L4.21802 19.1469C4.533 19.4618 4.30992 20.0004 3.86447 20.0004H0.5ZM19.4157 20.0004C19.6918 20.0004 19.9157 19.7766 19.9157 19.5004V16.1359C19.9157 15.6905 19.3771 15.4674 19.0621 15.7824L18.6355 16.209C18.4403 16.4043 18.1237 16.4043 17.9284 16.209L16.2922 14.5728C16.0969 14.3775 15.7803 14.3775 15.5851 14.5728L14.3903 15.7675C14.1951 15.9628 14.1951 16.2794 14.3903 16.4746L16.0266 18.1109C16.2218 18.3061 16.2218 18.6227 16.0266 18.818L15.6977 19.1469C15.3827 19.4618 15.6058 20.0004 16.0512 20.0004H19.4157ZM19.4157 -0.000244141C19.6918 -0.000244141 19.9157 0.223614 19.9157 0.499756L19.9157 3.86422C19.9157 4.30968 19.3771 4.53276 19.0621 4.21778L18.6356 3.79126C18.4404 3.596 18.1238 3.596 17.9285 3.79126L16.2924 5.4274C16.0971 5.62266 15.7805 5.62266 15.5853 5.4274L14.3905 4.23267C14.1953 4.03741 14.1953 3.72082 14.3905 3.52556L16.0267 1.88942C16.2219 1.69416 16.2219 1.37758 16.0267 1.18232L15.6977 0.853309C15.3827 0.538327 15.6058 -0.000244141 16.0512 -0.000244141H19.4157ZM5.14653 7.18697C5.05277 7.28074 5.00009 7.40791 5.00009 7.54052V12.4596C5.00009 12.5922 5.05277 12.7194 5.14653 12.8132L7.18697 14.8536C7.28074 14.9474 7.40792 15.0001 7.54053 15.0001H12.4596C12.5923 15.0001 12.7194 14.9474 12.8132 14.8536L14.8536 12.8132C14.9474 12.7194 15.0001 12.5922 15.0001 12.4596V7.54052C15.0001 7.40791 14.9474 7.28074 14.8536 7.18697L12.8132 5.14653C12.7194 5.05276 12.5923 5.00008 12.4596 5.00008H7.54053C7.40792 5.00008 7.28074 5.05276 7.18697 5.14653L5.14653 7.18697ZM7.48003 8.5203C7.38626 8.61407 7.33358 8.74125 7.33358 8.87386V11.1263C7.33358 11.2589 7.38626 11.3861 7.48003 11.4799L8.3538 12.3536C8.44757 12.4474 8.57475 12.5001 8.70736 12.5001H11.293C11.4256 12.5001 11.5528 12.4474 11.6465 12.3536L12.5203 11.4799C12.6141 11.3861 12.6668 11.2589 12.6668 11.1263V8.87386C12.6668 8.74125 12.6141 8.61407 12.5203 8.5203L11.6465 7.64653C11.5528 7.55276 11.4256 7.50008 11.293 7.50008H8.70736C8.57475 7.50008 8.44757 7.55276 8.3538 7.64653L7.48003 8.5203Z" fill="#D2D2D2"/>
</svg>
