<svg width="20" height="20" viewBox="0 0 20 20" fill="none" xmlns="http://www.w3.org/2000/svg">
<path fill-rule="evenodd" clip-rule="evenodd" d="M14.4438 6.78866C13.257 6.89655 12.1714 7.5023 11.4564 8.4557L6.80712 14.6547C6.70233 14.7944 6.61757 14.8912 6.61757 14.8912L9.38681 17.6604C9.5103 17.7839 9.70577 17.7978 9.84549 17.6931L16.0445 13.0438C16.9978 12.3288 17.6036 11.2432 17.7115 10.0564L18.0001 6.88123C18.02 6.663 17.8372 6.48017 17.6189 6.50001L14.4438 6.78866ZM13.3237 11.176C13.8718 11.7242 14.7605 11.7242 15.3087 11.176C15.8568 10.6279 15.8568 9.73915 15.3087 9.19102C14.7605 8.64288 13.8718 8.64287 13.3237 9.19102C12.7755 9.73917 12.7755 10.6279 13.3237 11.176ZM4.86717 13.1405L6.61757 14.8912C6.61757 14.8912 6.73942 14.7453 6.86755 14.5745L9.70863 10.7872C9.883 10.5547 10.017 10.3748 10.017 10.3748L7.68371 10.2407C7.59843 10.2415 7.51632 10.2733 7.45275 10.3301L4.88133 12.6309C4.7312 12.7652 4.72474 12.9981 4.86717 13.1405ZM11.3598 19.6331L9.39204 17.6654C9.56217 17.8355 9.75502 17.7609 9.92583 17.6328L13.7132 14.7917C13.9456 14.6173 14.1691 14.4503 14.1691 14.4503L14.2596 16.8166C14.2588 16.9019 14.2271 16.984 14.1702 17.0476L11.8695 19.619C11.7351 19.7692 11.5023 19.7756 11.3598 19.6331Z" fill="#D2D2D2"/>
<path fill-rule="evenodd" clip-rule="evenodd" d="M8.8498 0.175339C8.13253 0.240541 7.47647 0.606622 7.04432 1.18281L4.23453 4.92915C4.1712 5.01359 4.11997 5.0721 4.11997 5.0721L5.79358 6.74568C5.86821 6.82031 5.98635 6.82871 6.07079 6.76539L9.81719 3.95563C10.3934 3.52349 10.7595 2.86745 10.8247 2.15018L10.9991 0.231279C11.0111 0.0993916 10.9006 -0.0110972 10.7687 0.000892509L8.8498 0.175339ZM8.17284 2.82683C8.50411 3.15809 9.04121 3.1581 9.37249 2.82683C9.70377 2.49556 9.70376 1.95846 9.37249 1.6272C9.04122 1.29593 8.50412 1.29592 8.17284 1.6272C7.84156 1.95847 7.84157 2.49557 8.17284 2.82683ZM3.06211 4.01407L4.11997 5.0721C4.11997 5.0721 4.19362 4.98393 4.27105 4.8807L5.98808 2.59183C6.09346 2.45136 6.17446 2.34261 6.17446 2.34261L4.7643 2.26159C4.71276 2.26204 4.66314 2.28124 4.62472 2.31561L3.07067 3.70608C2.97994 3.78725 2.97603 3.92799 3.06211 4.01407ZM6.98597 7.93788L5.79674 6.74866C5.89956 6.85148 6.01611 6.80639 6.11934 6.72897L8.40824 5.01196C8.54872 4.90659 8.6838 4.80566 8.6838 4.80566L8.73847 6.23571C8.73803 6.28726 8.71883 6.33688 8.68445 6.37528L7.29399 7.92934C7.2128 8.02008 7.07206 8.02397 6.98597 7.93788Z" fill="#D2D2D2"/>
<path d="M7.79967 18.8216C6.97472 19.6465 4.5 19.9999 4.5 19.9999C4.5 19.9999 4.8534 17.5252 5.67835 16.7003C6.19906 16.1796 7.09604 16.2323 7.68183 16.8181C8.26762 17.4039 8.32038 18.3009 7.79967 18.8216Z" fill="#D2D2D2"/>
<path d="M4.65997 7.65972C4.20895 8.11074 2.85596 8.30396 2.85596 8.30396C2.85596 8.30396 3.04917 6.95096 3.50019 6.49994C3.78487 6.21526 4.27528 6.24411 4.59554 6.56437C4.91581 6.88464 4.94465 7.37504 4.65997 7.65972Z" fill="#D2D2D2"/>
</svg>
