<svg width="20" height="20" viewBox="0 0 20 20" fill="none" xmlns="http://www.w3.org/2000/svg">
<path d="M1.97678 1.15859L1.1347 2.0596C1.04815 2.15221 1 2.27424 1 2.401V8.12363C1 8.23748 1.03886 8.34792 1.11014 8.43669L1.41239 8.81307C1.50729 8.93125 1.65068 9 1.80224 9H9.22808C9.36206 9 9.49043 8.94623 9.58441 8.85076L9.85633 8.57453C9.9484 8.48099 10 8.35501 10 8.22377V2.91909C10 2.78785 9.9484 2.66186 9.85633 2.56833L9.58441 2.2921C9.49043 2.19662 9.36206 2.14286 9.22808 2.14286H5.42817C5.29419 2.14286 5.16582 2.08909 5.07184 1.99362L4.24066 1.14924C4.14668 1.05377 4.01831 1 3.88433 1H2.34208C2.2036 1 2.07133 1.05743 1.97678 1.15859Z" fill="#D2D2D2"/>
<path d="M10.9768 11.1586L10.1347 12.0596C10.0481 12.1522 10 12.2742 10 12.401V18.1236C10 18.2375 10.0389 18.3479 10.1101 18.4367L10.4124 18.8131C10.5073 18.9312 10.6507 19 10.8022 19H18.2281C18.3621 19 18.4904 18.9462 18.5844 18.8508L18.8563 18.5745C18.9484 18.481 19 18.355 19 18.2238V12.9191C19 12.7878 18.9484 12.6619 18.8563 12.5683L18.5844 12.2921C18.4904 12.1966 18.3621 12.1429 18.2281 12.1429H14.4282C14.2942 12.1429 14.1658 12.0891 14.0718 11.9936L13.2407 11.1492C13.1467 11.0538 13.0183 11 12.8843 11H11.3421C11.2036 11 11.0713 11.0574 10.9768 11.1586Z" fill="#D2D2D2"/>
<path fill-rule="evenodd" clip-rule="evenodd" d="M17.3499 8.14985H18.6499V2.99985C18.6499 2.08858 17.9112 1.34985 16.9999 1.34985H12.3499V2.64985H16.9999C17.1932 2.64985 17.3499 2.80655 17.3499 2.99985V8.14985ZM2.6501 10.85H1.3501V16C1.3501 16.9113 2.08883 17.65 3.0001 17.65H7.6501V16.35H3.0001C2.8068 16.35 2.6501 16.1933 2.6501 16V10.85Z" fill="#D2D2D2"/>
<path d="M7.89505 16.55L5.76323 15.23C5.43014 15.0237 5 15.2633 5 15.6551V18.1526C5 18.5333 5.4085 18.7744 5.74175 18.5903L7.87357 17.4128C8.20818 17.228 8.22005 16.7513 7.89505 16.55Z" fill="#D2D2D2"/>
<path d="M11.7263 2.44974L13.8581 3.76981C14.1912 3.97606 14.6214 3.73649 14.6214 3.34471L14.6214 0.847145C14.6214 0.466446 14.2129 0.225406 13.8796 0.40947L11.7478 1.58697C11.4132 1.77179 11.4013 2.24849 11.7263 2.44974Z" fill="#D2D2D2"/>
</svg>
