<svg width="20" height="20" viewBox="0 0 20 20" fill="none" xmlns="http://www.w3.org/2000/svg">
<path fill-rule="evenodd" clip-rule="evenodd" d="M5.28844 0.277614C5.35229 0.124726 5.52799 0.0525554 5.68088 0.116411L6.78819 0.578896C6.94108 0.642752 7.01325 0.818446 6.94939 0.971335L6.76407 1.41505C6.71133 1.54132 6.75168 1.68631 6.85522 1.77584C6.99333 1.89522 7.12113 2.02412 7.23801 2.16119C7.32685 2.26535 7.47167 2.30656 7.59833 2.25453L8.04328 2.07173C8.19652 2.00879 8.3718 2.082 8.43475 2.23524L8.89069 3.34526C8.95367 3.49851 8.88045 3.67383 8.72718 3.73676L8.28219 3.91955C8.15557 3.97159 8.08155 4.10267 8.09156 4.23923C8.10474 4.41879 8.10448 4.60025 8.09016 4.78216C8.07942 4.91861 8.15264 5.0501 8.27895 5.10285L8.72266 5.28817C8.87555 5.35203 8.94772 5.52772 8.88386 5.68061L8.42136 6.78796C8.35751 6.94085 8.18181 7.01302 8.02892 6.94916L7.58521 6.76384C7.4589 6.71108 7.31391 6.75143 7.22441 6.85499C7.10504 6.9931 6.97613 7.1209 6.83907 7.23778C6.7349 7.32665 6.6937 7.47144 6.74572 7.59809L6.92848 8.04299C6.99145 8.19624 6.91823 8.37156 6.76496 8.43449L5.65495 8.89048C5.50171 8.95342 5.32643 8.88021 5.26348 8.72697L5.08072 8.28193C5.02867 8.15534 4.89756 8.0813 4.76103 8.09133C4.58144 8.1045 4.39998 8.10424 4.21808 8.08988C4.08162 8.07917 3.95013 8.15239 3.89736 8.27873L3.71207 8.72238C3.64821 8.87527 3.47249 8.9475 3.3196 8.88365L2.21229 8.42116C2.0594 8.35731 1.98725 8.18155 2.05111 8.02866L2.23641 7.58501C2.28917 7.45867 2.24883 7.31368 2.14525 7.22414C2.00721 7.10487 1.87944 6.97597 1.7626 6.83899C1.67372 6.73483 1.52894 6.69363 1.40231 6.74559L0.957177 6.92846C0.803939 6.99141 0.628652 6.9182 0.565706 6.76496L0.109733 5.65492C0.0467869 5.50168 0.119984 5.32643 0.273255 5.2635L0.718298 5.08066C0.844949 5.02863 0.91897 4.89755 0.908929 4.76098C0.895739 4.58134 0.895994 4.39981 0.910346 4.21784C0.921089 4.08138 0.847835 3.94988 0.721527 3.89713L0.277815 3.71181C0.124958 3.64797 0.0527562 3.47226 0.116612 3.31937L0.57911 2.21202C0.642966 2.05913 0.818692 1.98698 0.971548 2.05082L1.41526 2.23614C1.54157 2.2889 1.68659 2.24856 1.77609 2.14501C1.8954 2.00695 2.02429 1.87921 2.16126 1.76237C2.26543 1.67349 2.30663 1.5287 2.25464 1.40207L2.07181 0.956913C2.00883 0.803661 2.08203 0.628407 2.2353 0.565474L3.3453 0.109488C3.49854 0.0465413 3.67383 0.119752 3.73677 0.272991L3.9196 0.718066C3.97162 0.844717 4.10271 0.918738 4.23927 0.908728C4.41891 0.895507 4.60044 0.895793 4.78239 0.9101C4.91889 0.920825 5.05037 0.847603 5.10312 0.721326L5.28844 0.277614ZM6.05736 5.15038C5.69818 6.01037 4.70985 6.41635 3.84986 6.05716C2.98987 5.69798 2.5839 4.70965 2.94308 3.84966C3.30227 2.98967 4.2906 2.5837 5.15058 2.94288C6.01057 3.30207 6.41655 4.29039 6.05736 5.15038ZM12.6334 7.00003C12.3941 7.00003 12.2001 7.19406 12.2001 7.43338V8.12789C12.2001 8.32565 12.0656 8.49649 11.8777 8.55813C11.6272 8.64028 11.3851 8.74099 11.153 8.85861C10.9766 8.94796 10.7607 8.92233 10.6208 8.7825L10.1294 8.29104C9.96016 8.12179 9.68581 8.12179 9.51659 8.29104L8.29091 9.51669C8.12169 9.68594 8.12169 9.96029 8.29091 10.1295L8.78243 10.621C8.92226 10.7608 8.94793 10.9768 8.85857 11.1532C8.74102 11.3852 8.64034 11.6272 8.55819 11.8777C8.49657 12.0655 8.32573 12.2 8.12801 12.2H7.43343C7.19411 12.2 7.00011 12.394 7.00011 12.6334V14.3667C7.00011 14.606 7.19411 14.8 7.43343 14.8H8.12801C8.32573 14.8 8.49657 14.9345 8.55819 15.1224C8.64037 15.3729 8.74108 15.615 8.85869 15.8471C8.94808 16.0235 8.92238 16.2395 8.78255 16.3793L8.29113 16.8708C8.12191 17.0399 8.12191 17.3144 8.29113 17.4835L9.51677 18.7092C9.68599 18.8784 9.96038 18.8784 10.1296 18.7092L10.6211 18.2177C10.7609 18.0779 10.9769 18.0522 11.1533 18.1416C11.3853 18.2591 11.6273 18.3598 11.8777 18.4419C12.0656 18.5036 12.2001 18.6744 12.2001 18.8722V19.5667C12.2001 19.806 12.3941 20 12.6334 20H14.3668C14.6061 20 14.8001 19.806 14.8001 19.5667V18.8722C14.8001 18.6744 14.9346 18.5036 15.1225 18.4419C15.3729 18.3598 15.6149 18.2591 15.8469 18.1416C16.0234 18.0522 16.2393 18.0779 16.3791 18.2177L16.8705 18.7091C17.0397 18.8783 17.3141 18.8783 17.4833 18.7091L18.709 17.4834C18.8782 17.3142 18.8782 17.0398 18.709 16.8706L18.2177 16.3793C18.0778 16.2395 18.0521 16.0235 18.1415 15.8471C18.2591 15.615 18.3599 15.3729 18.442 15.1224C18.5037 14.9345 18.6745 14.8 18.8722 14.8H19.5668C19.8061 14.8 20.0001 14.606 20.0001 14.3667V12.6334C20.0001 12.394 19.8061 12.2 19.5668 12.2H18.8722C18.6745 12.2 18.5037 12.0655 18.442 11.8777C18.3599 11.6272 18.2592 11.3852 18.1417 11.1532C18.0523 10.9768 18.078 10.7608 18.2178 10.621L18.7092 10.1297C18.8784 9.96041 18.8784 9.68606 18.7092 9.51681L17.4835 8.29116C17.3143 8.12197 17.0399 8.12197 16.8707 8.29116L16.3794 8.7825C16.2396 8.92233 16.0236 8.94796 15.8472 8.85861C15.6151 8.74099 15.373 8.64028 15.1225 8.55813C14.9346 8.49649 14.8001 8.32565 14.8001 8.12789V7.43338C14.8001 7.19406 14.6061 7.00003 14.3668 7.00003H12.6334ZM16.0001 13.5C16.0001 14.8808 14.8808 16 13.5001 16C12.1194 16 11.0001 14.8808 11.0001 13.5C11.0001 12.1193 12.1194 11 13.5001 11C14.8808 11 16.0001 12.1193 16.0001 13.5Z" fill="#D2D2D2"/>
</svg>
