<svg width="20" height="20" viewBox="0 0 20 20" fill="none" xmlns="http://www.w3.org/2000/svg">
<path fill-rule="evenodd" clip-rule="evenodd" d="M13.5 19C14.8807 19 16 17.8807 16 16.5C16 15.1193 14.8807 14 13.5 14C12.1193 14 11 15.1193 11 16.5C11 17.8807 12.1193 19 13.5 19ZM9 13C9 15.2091 7.20914 17 5 17C2.79086 17 1 15.2091 1 13C1 10.7909 2.79086 9 5 9C7.20914 9 9 10.7909 9 13ZM19 6C19 8.76142 16.7614 11 14 11C11.2386 11 9 8.76142 9 6C9 3.23858 11.2386 1 14 1C16.7614 1 19 3.23858 19 6Z" fill="#D2D2D2"/>
</svg>
