<svg width="20" height="20" viewBox="0 0 20 20" fill="none" xmlns="http://www.w3.org/2000/svg">
<path d="M18.8536 1.85355L18.1464 1.14645C18.0527 1.05268 17.9255 1 17.7929 1H15.2071C15.0745 1 14.9473 1.05268 14.8536 1.14645L14.1464 1.85355C14.0527 1.94732 14 2.0745 14 2.20711V4.79289C14 4.9255 14.0527 5.05268 14.1464 5.14645L14.8536 5.85355C14.9473 5.94732 15.0745 6 15.2071 6H17.7929C17.9255 6 18.0527 5.94732 18.1464 5.85355L18.8536 5.14645C18.9473 5.05268 19 4.9255 19 4.79289V2.20711C19 2.0745 18.9473 1.94732 18.8536 1.85355Z" fill="#D2D2D2"/>
<path d="M5.85355 1.85355L5.14645 1.14645C5.05268 1.05268 4.9255 1 4.79289 1H2.20711C2.0745 1 1.94732 1.05268 1.85355 1.14645L1.14645 1.85355C1.05268 1.94732 1 2.0745 1 2.20711V4.79289C1 4.9255 1.05268 5.05268 1.14645 5.14645L1.85355 5.85355C1.94732 5.94732 2.0745 6 2.20711 6H4.79289C4.9255 6 5.05268 5.94732 5.14645 5.85355L5.85355 5.14645C5.94732 5.05268 6 4.9255 6 4.79289V2.20711C6 2.0745 5.94732 1.94732 5.85355 1.85355Z" fill="#D2D2D2"/>
<path d="M18.8536 14.8536L18.1464 14.1464C18.0527 14.0527 17.9255 14 17.7929 14H15.2071C15.0745 14 14.9473 14.0527 14.8536 14.1464L14.1464 14.8536C14.0527 14.9473 14 15.0745 14 15.2071V17.7929C14 17.9255 14.0527 18.0527 14.1464 18.1464L14.8536 18.8536C14.9473 18.9473 15.0745 19 15.2071 19H17.7929C17.9255 19 18.0527 18.9473 18.1464 18.8536L18.8536 18.1464C18.9473 18.0527 19 17.9255 19 17.7929V15.2071C19 15.0745 18.9473 14.9473 18.8536 14.8536Z" fill="#D2D2D2"/>
<path d="M5.85355 14.8536L5.14645 14.1464C5.05268 14.0527 4.9255 14 4.79289 14H2.20711C2.0745 14 1.94732 14.0527 1.85355 14.1464L1.14645 14.8536C1.05268 14.9473 1 15.0745 1 15.2071V17.7929C1 17.9255 1.05268 18.0527 1.14645 18.1464L1.85355 18.8536C1.94732 18.9473 2.0745 19 2.20711 19H4.79289C4.9255 19 5.05268 18.9473 5.14645 18.8536L5.85355 18.1464C5.94732 18.0527 6 17.9255 6 17.7929V15.2071C6 15.0745 5.94732 14.9473 5.85355 14.8536Z" fill="#D2D2D2"/>
<mask id="path-5-inside-1" fill="white">
<rect x="3" y="3" width="14" height="14" rx="0.5"/>
</mask>
<rect x="3" y="3" width="14" height="14" rx="0.5" stroke="#D2D2D2" stroke-width="4" mask="url(#path-5-inside-1)"/>
</svg>
