<svg width="20" height="20" viewBox="0 0 20 20" fill="none" xmlns="http://www.w3.org/2000/svg">
<path fill-rule="evenodd" clip-rule="evenodd" d="M0.289712 7.36235C0.370369 7.12401 0.600064 6.95839 0.865099 6.94747L6.45422 6.71715C6.70797 6.70669 6.93051 6.5542 7.01947 6.32984L8.97728 1.39209C9.06935 1.15989 9.304 1.00552 9.56686 1.00423L10.4209 1.00001C10.6862 0.998698 10.9242 1.15353 11.0171 1.38787L12.9766 6.32984C13.0656 6.5542 13.2881 6.70669 13.5419 6.71715L19.1264 6.94728C19.3891 6.9581 19.6173 7.12086 19.6998 7.35622L19.968 8.12092C20.0513 8.35846 19.9687 8.61977 19.761 8.77552L15.3827 12.0602C15.1839 12.2093 15.0989 12.456 15.1668 12.6868L16.6604 17.7666C16.7306 18.0055 16.637 18.2605 16.4252 18.4072L15.7367 18.8841C15.5229 19.0323 15.2339 19.0389 15.0126 18.9009L10.3474 15.989C10.1356 15.8568 9.86049 15.8568 9.64869 15.989L4.98754 18.8983C4.76834 19.0351 4.48228 19.0299 4.26882 18.8853L3.57504 18.4151C3.3596 18.2691 3.26356 18.0119 3.33444 17.7708L4.82927 12.6868C4.89714 12.456 4.81213 12.2093 4.61336 12.0602L0.238958 8.77847C0.0332461 8.62414 -0.0499207 8.36598 0.029998 8.12981L0.289712 7.36235Z" fill="#D2D2D2"/>
</svg>
