<svg width="20" height="20" viewBox="0 0 20 20" fill="none" xmlns="http://www.w3.org/2000/svg">
<path fill-rule="evenodd" clip-rule="evenodd" d="M7.02105 18.8575C7.11749 18.9487 7.2483 19 7.3847 19L8.71453 19C8.99857 19 9.22882 18.7822 9.22882 18.5135L9.22882 12.8772C9.22882 12.7482 9.17464 12.6244 9.07819 12.5332L7.83659 11.3587C7.74014 11.2675 7.60933 11.2162 7.47294 11.2162L7.17168 11.2162C6.88764 11.2162 6.65739 10.9984 6.65739 10.7297L6.65739 10.2432C6.65739 9.97456 6.88764 9.75676 7.17167 9.75676L7.98722 9.75676C8.12362 9.75676 8.25443 9.80801 8.35088 9.89924L9.05323 10.5636C9.11803 10.6249 9.22882 10.5815 9.22882 10.4948L9.22882 6.83784C9.22882 6.56916 8.99856 6.35135 8.71453 6.35135L7.3847 6.35135C7.2483 6.35135 7.11749 6.3001 7.02104 6.20886L6.29373 5.52087C6.19729 5.42963 6.1431 5.30589 6.1431 5.17687L6.1431 4.89189C6.1431 4.62321 6.37336 4.4054 6.65739 4.4054L6.95865 4.4054C7.09505 4.4054 7.22586 4.45666 7.3223 4.54789L7.53533 4.7494C7.63178 4.84064 7.76259 4.89189 7.89898 4.89189L8.71453 4.89189C8.99856 4.89189 9.22882 4.67408 9.22882 4.4054L9.22882 1.48648C9.22882 1.21781 8.99856 0.999999 8.71453 0.999999L5.92 0.999999C5.73935 0.999999 5.57195 1.08966 5.479 1.23619L4.23577 3.19624C4.14283 3.34277 3.97542 3.43243 3.79478 3.43243L2.80024 3.43243C2.63837 3.43243 2.48594 3.50453 2.38882 3.62703L1.1031 5.24865C1.03634 5.33286 1.00024 5.43528 1.00024 5.54054L1.00025 8.2973C1.00025 8.56598 1.2305 8.78378 1.51453 8.78378L2.5431 8.78378C2.82714 8.78378 3.05739 8.56598 3.05739 8.2973L3.05739 7.32432C3.05739 7.05565 3.28764 6.83784 3.57167 6.83784L4.08596 6.83784C4.36999 6.83784 4.60025 7.05565 4.60025 7.32432L4.60025 8.09579C4.60025 8.22481 4.54606 8.34855 4.44961 8.43979L2.69373 10.1008C2.59729 10.192 2.46648 10.2432 2.33008 10.2432L1.51453 10.2432C1.2305 10.2432 1.00025 10.4611 1.00025 10.7297L1.00025 12.4324C1.00025 12.5856 1.07646 12.7297 1.20596 12.8216L2.74882 13.9162C2.93168 14.0459 3.1831 14.0459 3.36596 13.9162L4.7577 12.9288C4.96245 12.7836 5.24896 12.8028 5.42993 12.974L5.73681 13.2643C5.95355 13.4693 5.93377 13.8071 5.69442 13.9882L3.76469 15.4485C3.64269 15.5409 3.57168 15.6806 3.57168 15.8284L3.57168 17.0541C3.57168 17.3227 3.80193 17.5405 4.08596 17.5405L5.4158 17.5405C5.55219 17.5405 5.683 17.5918 5.77945 17.683L7.02105 18.8575ZM8.50882 9.18505C8.347 9.11368 8.16918 9.07567 7.98722 9.07567L7.17167 9.07567C6.49 9.07568 5.93739 9.59841 5.93739 10.2432L5.93739 10.7297C5.93739 11.3746 6.49 11.8973 7.17168 11.8973L7.38773 11.8973L8.50882 12.9578L8.50882 18.3189L7.46991 18.3189L6.28857 17.2014C6.0571 16.9825 5.74315 16.8595 5.4158 16.8595L4.29168 16.8595L4.29168 15.9219L6.1442 14.52C6.71865 14.0853 6.7661 13.2748 6.24592 12.7827L5.93905 12.4924C5.50471 12.0816 4.8171 12.0353 4.3257 12.384L3.05739 13.2838L1.72025 12.3351L1.72025 10.9243L2.33008 10.9243C2.65743 10.9243 2.97138 10.8013 3.20285 10.5824L4.95873 8.92138C5.19021 8.70242 5.32025 8.40545 5.32025 8.09579L5.32025 7.32432C5.32025 6.6795 4.76764 6.15676 4.08596 6.15676L3.57167 6.15676C2.89 6.15676 2.33739 6.67949 2.33739 7.32432L2.33739 8.1027L1.72025 8.1027L1.72024 5.60541L2.9031 4.11351L3.79478 4.11351C4.22833 4.11351 4.6301 3.89833 4.85317 3.54665L6.03647 1.68108L8.50882 1.68108L8.50882 4.21081L7.98419 4.21081L7.83142 4.0663C7.59995 3.84733 7.286 3.72432 6.95865 3.72432L6.65739 3.72432C5.97571 3.72432 5.4231 4.24706 5.4231 4.89189L5.4231 5.17687C5.4231 5.48653 5.55314 5.7835 5.78462 6.00246L6.51193 6.69046C6.7434 6.90942 7.05735 7.03243 7.3847 7.03243L8.50882 7.03243L8.50882 9.18505ZM4.21447 15.9804C4.21438 15.9804 4.21456 15.9803 4.21447 15.9804V15.9804ZM8.56907 13.0148C8.56898 13.0147 8.56916 13.0149 8.56907 13.0148V13.0148Z" fill="#D2D2D2"/>
<path d="M10.7717 12.8772L10.7717 18.5135C10.7717 18.7822 11.0019 19 11.286 19L12.6158 19C12.7522 19 12.883 18.9487 12.9795 18.8575L14.221 17.683C14.3175 17.5918 14.4483 17.5405 14.5847 17.5405L15.9145 17.5405C16.1986 17.5405 16.4288 17.3227 16.4288 17.0541L16.4288 15.8284C16.4288 15.6806 16.3578 15.5408 16.2358 15.4485L14.3061 13.9882C14.0667 13.8071 14.0469 13.4693 14.2637 13.2643L14.5706 12.974C14.7515 12.8028 15.038 12.7836 15.2428 12.9288L16.6345 13.9162C16.8174 14.0459 17.0688 14.0459 17.2517 13.9162L18.7945 12.8216C18.924 12.7297 19.0002 12.5856 19.0002 12.4324L19.0002 10.7297C19.0002 10.461 18.77 10.2432 18.486 10.2432L17.6704 10.2432C17.534 10.2432 17.4032 10.192 17.3068 10.1008L15.5509 8.43978C15.4544 8.34855 15.4002 8.22481 15.4002 8.09579L15.4002 7.32432C15.4002 7.05564 15.6305 6.83784 15.9145 6.83784L16.4288 6.83784C16.7128 6.83784 16.9431 7.05564 16.9431 7.32432L16.9431 8.2973C16.9431 8.56597 17.1734 8.78378 17.4574 8.78378L18.486 8.78378C18.77 8.78378 19.0002 8.56597 19.0002 8.29729L19.0002 5.54054C19.0002 5.43528 18.9642 5.33285 18.8974 5.24865L17.6117 3.62702C17.5145 3.50452 17.3621 3.43243 17.2002 3.43243L16.2057 3.43243C16.0251 3.43243 15.8577 3.34277 15.7647 3.19624L14.5215 1.23619C14.4285 1.08966 14.2611 0.999999 14.0805 0.999999L11.286 1C11.0019 1 10.7717 1.21781 10.7717 1.48649L10.7717 4.40541C10.7717 4.67408 11.0019 4.89189 11.286 4.89189L12.1015 4.89189C12.2379 4.89189 12.3687 4.84064 12.4652 4.7494L12.6782 4.54789C12.7746 4.45666 12.9054 4.4054 13.0418 4.4054L13.3431 4.4054C13.6271 4.4054 13.8574 4.62321 13.8574 4.89189L13.8574 5.17687C13.8574 5.30589 13.8032 5.42963 13.7068 5.52087L12.9794 6.20886C12.883 6.3001 12.7522 6.35135 12.6158 6.35135L11.286 6.35135C11.0019 6.35135 10.7717 6.56916 10.7717 6.83784L10.7717 10.4948C10.7717 10.5815 10.8825 10.6249 10.9473 10.5636L11.6496 9.89924C11.7461 9.80801 11.8769 9.75676 12.0133 9.75676L12.8288 9.75676C13.1128 9.75676 13.3431 9.97456 13.3431 10.2432L13.3431 10.7297C13.3431 10.9984 13.1129 11.2162 12.8288 11.2162L12.5276 11.2162C12.3912 11.2162 12.2603 11.2675 12.1639 11.3587L10.9223 12.5332C10.8259 12.6244 10.7717 12.7482 10.7717 12.8772Z" fill="#D2D2D2"/>
</svg>
