<svg width="20" height="20" viewBox="0 0 20 20" fill="none" xmlns="http://www.w3.org/2000/svg">
<path fill-rule="evenodd" clip-rule="evenodd" d="M14.9429 5.547C15.1241 5.12416 15.5399 4.85001 15.9999 4.85001H17.9999C18.635 4.85001 19.1499 5.36488 19.1499 6.00001C19.1499 6.63513 18.635 7.15001 17.9999 7.15001H16.8901C16.8101 7.15001 16.7378 7.19769 16.7063 7.27122L14.5764 12.2408C14.0801 13.399 12.9412 14.15 11.6811 14.15H6.29308C5.05353 14.15 3.9292 13.423 3.42053 12.2926L1.70119 8.4719C1.44055 7.89271 1.69878 7.2119 2.27797 6.95127C2.85716 6.69063 3.53797 6.94887 3.7986 7.52805L5.51795 11.3488C5.65521 11.6538 5.9586 11.85 6.29308 11.85H11.6811C12.0211 11.85 12.3285 11.6473 12.4624 11.3348L14.9429 5.547Z" fill="#D2D2D2"/>
<circle cx="5.5" cy="17.5" r="1.5" fill="#D2D2D2"/>
<circle cx="12.5" cy="17.5" r="1.5" fill="#D2D2D2"/>
<rect x="5.25732" y="6.24265" width="5.29289" height="5.29289" rx="1" transform="rotate(-45 5.25732 6.24265)" fill="#D2D2D2"/>
</svg>
