<svg width="20" height="20" viewBox="0 0 20 20" fill="none" xmlns="http://www.w3.org/2000/svg">
<path d="M2.92924 17.071C3.16105 17.3048 3.43675 17.4905 3.74052 17.6174C4.04428 17.7443 4.37013 17.81 4.69936 17.8107C5.02858 17.8114 5.3547 17.747 5.65898 17.6213C5.96327 17.4956 6.23973 17.3111 6.47249 17.0782C6.70526 16.8454 6.88974 16.5689 7.01535 16.2646C7.14097 15.9603 7.20524 15.6341 7.20447 15.3049C7.2037 14.9757 7.13791 14.6498 7.01088 14.3461C6.88385 14.0424 6.69808 13.7667 6.46424 13.535C5.99463 13.0696 5.35979 12.8092 4.69865 12.8107C4.03751 12.8123 3.40389 13.0756 2.93646 13.5432C2.46902 14.0108 2.20583 14.6445 2.20448 15.3056C2.20313 15.9667 2.46372 16.6015 2.92924 17.071ZM11.4142 11.414C11.2297 11.605 11.0091 11.7574 10.765 11.8622C10.521 11.967 10.2586 12.0222 9.99304 12.0245C9.72748 12.0268 9.46412 11.9762 9.21833 11.8756C8.97254 11.7751 8.74923 11.6266 8.56145 11.4388C8.37366 11.251 8.22515 11.0277 8.12459 10.7819C8.02403 10.5361 7.97343 10.2727 7.97574 10.0072C7.97804 9.74162 8.03322 9.47918 8.13803 9.23518C8.24285 8.99117 8.39522 8.77048 8.58624 8.58599C8.96344 8.22167 9.46865 8.02008 9.99304 8.02464C10.5174 8.02919 11.0191 8.23953 11.3899 8.61035C11.7607 8.98116 11.971 9.48279 11.9756 10.0072C11.9801 10.5316 11.7786 11.0368 11.4142 11.414ZM17.0712 6.46398C16.8395 6.69783 16.5638 6.8836 16.2601 7.01063C15.9564 7.13766 15.6305 7.20345 15.3013 7.20422C14.9721 7.20498 14.646 7.14072 14.3416 7.0151C14.0373 6.88949 13.7608 6.70501 13.528 6.47224C13.2952 6.23948 13.1106 5.96302 12.9849 5.65873C12.8592 5.35445 12.7948 5.02833 12.7955 4.69911C12.7962 4.36988 12.8619 4.04403 12.9888 3.74026C13.1158 3.4365 13.3015 3.16079 13.5352 2.92898C14.0047 2.46347 14.6395 2.20288 15.3006 2.20423C15.9618 2.20558 16.5955 2.46877 17.063 2.93621C17.5306 3.40364 17.794 4.03726 17.7955 4.6984C17.797 5.35954 17.5366 5.99438 17.0712 6.46398ZM13.5362 17.071C13.3024 16.8392 13.1166 16.5636 12.9896 16.2599C12.8626 15.9561 12.7968 15.6303 12.796 15.3011C12.7952 14.9718 12.8595 14.6457 12.9851 14.3414C13.1107 14.0371 13.2952 13.7606 13.528 13.5277C13.7607 13.2949 14.0372 13.1103 14.3415 12.9846C14.6458 12.8589 14.9719 12.7946 15.3011 12.7953C15.6303 12.7959 15.9562 12.8616 16.26 12.9886C16.5637 13.1155 16.8394 13.3012 17.0712 13.535C17.5401 14.0039 17.8036 14.6399 17.8036 15.303C17.8036 15.9661 17.5401 16.6021 17.0712 17.071C16.6023 17.5399 15.9664 17.8033 15.3032 17.8033C14.6401 17.8033 14.0041 17.5399 13.5352 17.071H13.5362ZM2.92924 2.92898C2.69046 3.1596 2.50001 3.43546 2.36898 3.74047C2.23796 4.04548 2.16899 4.37353 2.16611 4.70548C2.16323 5.03743 2.22648 5.36663 2.35218 5.67387C2.47788 5.98111 2.66352 6.26024 2.89825 6.49497C3.13298 6.7297 3.41211 6.91534 3.71935 7.04104C4.02659 7.16674 4.35579 7.23 4.68774 7.22711C5.01969 7.22423 5.34774 7.15526 5.65275 7.02424C5.95776 6.89322 6.23362 6.70276 6.46424 6.46398C6.91032 5.99082 7.15448 5.36245 7.1449 4.71223C7.13532 4.06201 6.87276 3.44111 6.41294 2.98129C5.95311 2.52146 5.33221 2.2589 4.68199 2.24932C4.03177 2.23975 3.40341 2.4839 2.93024 2.92998L2.92924 2.92898Z" fill="#D2D2D2"/>
</svg>
