<svg width="20" height="20" viewBox="0 0 20 20" fill="none" xmlns="http://www.w3.org/2000/svg">
<path d="M12.5002 0.8H12.5L7.5 0.8L7.49978 0.8C5.85605 0.801797 4.28015 1.45556 3.11786 2.61786C1.95556 3.78015 1.3018 5.35605 1.3 6.99978V7L1.3 13L1.3 13.0002C1.3018 14.644 1.95556 16.2198 3.11786 17.3821C4.28015 18.5444 5.85605 19.1982 7.49978 19.2H7.5H12.5C13.9712 19.1998 15.3945 18.6768 16.5157 17.7242L16.6682 17.5946L16.5386 17.4422L15.5669 16.2996L15.4374 16.1474L15.2851 16.2768C14.5074 16.9373 13.5203 17.2999 12.5 17.3H7.50022C6.36011 17.2988 5.26705 16.8453 4.46088 16.0391C3.65472 15.233 3.20127 14.14 3.2 12.9999C3.2 12.9999 3.2 12.9998 3.2 12.9998V7.00022C3.2 7.00018 3.2 7.00015 3.2 7.00011C3.20127 5.86004 3.65472 4.76703 4.46088 3.96088C5.26703 3.15472 6.36004 2.70127 7.50011 2.7C7.50015 2.7 7.50018 2.7 7.50022 2.7H12.4998C12.4998 2.7 12.4999 2.7 12.4999 2.7C13.64 2.70127 14.733 3.15472 15.5391 3.96088C16.3453 4.76705 16.7988 5.86011 16.8 7.00022V11.9998C16.7999 12.0794 16.7682 12.1557 16.712 12.212C16.6557 12.2682 16.5794 12.2999 16.4998 12.3H14.0002C13.9206 12.2999 13.8443 12.2682 13.788 12.212C13.7318 12.1557 13.7001 12.0794 13.7 11.9998V7V6.91716L13.6414 6.85858L13.5 7L13.6414 6.85858L13.6414 6.85856L13.6413 6.85849L13.6411 6.85821L13.6399 6.85708L13.6353 6.85248L13.616 6.8332L13.5321 6.74923L13.1414 6.35858L12.7508 5.96793L12.6668 5.88396L12.6475 5.86468L12.6429 5.86007L12.6418 5.85895L12.6415 5.85867L12.6414 5.8586L12.6414 5.85858L12.5 6L12.6414 5.85858L12.5828 5.8H12.5H7.5H7.41716L7.35858 5.85858L7.5 6L7.35858 5.85858L7.35856 5.85859L7.35855 5.85861L7.35852 5.85863L7.35849 5.85866L7.35845 5.8587L7.35841 5.85875L7.35836 5.8588L7.3583 5.85886L7.35824 5.85892L7.35816 5.85899L7.35809 5.85907L7.358 5.85916L7.35791 5.85925L7.35781 5.85935L7.35771 5.85945L7.35759 5.85956L7.35748 5.85968L7.35735 5.85981L7.35722 5.85994L7.35708 5.86007L7.35694 5.86022L7.35679 5.86037L7.35663 5.86053L7.35647 5.86069L7.3563 5.86086L7.35612 5.86104L7.35594 5.86122L7.35575 5.86141L7.35555 5.86161L7.35535 5.86181L7.35514 5.86202L7.35493 5.86223L7.3547 5.86245L7.35448 5.86268L7.35424 5.86292L7.354 5.86316L7.35376 5.8634L7.3535 5.86365L7.35324 5.86391L7.35298 5.86418L7.35271 5.86445L7.35243 5.86473L7.35215 5.86501L7.35186 5.8653L7.35156 5.86559L7.35126 5.8659L7.35095 5.8662L7.35064 5.86652L7.35032 5.86684L7.34999 5.86716L7.34966 5.8675L7.34932 5.86783L7.34898 5.86818L7.34863 5.86853L7.34828 5.86888L7.34791 5.86924L7.34755 5.86961L7.34717 5.86998L7.34679 5.87036L7.34641 5.87075L7.34602 5.87114L7.34562 5.87153L7.34522 5.87194L7.34481 5.87234L7.3444 5.87276L7.34398 5.87318L7.34355 5.8736L7.34312 5.87403L7.34269 5.87447L7.34224 5.87491L7.3418 5.87536L7.34134 5.87581L7.34088 5.87627L7.34042 5.87674L7.33995 5.87721L7.33948 5.87768L7.33899 5.87816L7.33851 5.87865L7.33802 5.87914L7.33752 5.87964L7.33702 5.88014L7.33651 5.88065L7.33599 5.88116L7.33547 5.88168L7.33495 5.88221L7.33442 5.88274L7.33388 5.88327L7.33334 5.88381L7.3328 5.88436L7.33225 5.88491L7.33169 5.88547L7.33113 5.88603L7.33056 5.88659L7.32999 5.88717L7.32941 5.88774L7.32883 5.88833L7.32824 5.88891L7.32765 5.88951L7.32705 5.8901L7.32645 5.89071L7.32584 5.89131L7.32523 5.89193L7.32461 5.89255L7.32399 5.89317L7.32336 5.8938L7.32273 5.89443L7.32209 5.89507L7.32145 5.89571L7.3208 5.89636L7.32015 5.89701L7.31949 5.89767L7.31883 5.89833L7.31816 5.899L7.31749 5.89967L7.31681 5.90035L7.31613 5.90103L7.31544 5.90172L7.31475 5.90241L7.31405 5.90311L7.31335 5.90381L7.31265 5.90451L7.31194 5.90522L7.31122 5.90594L7.3105 5.90666L7.30978 5.90738L7.30905 5.90811L7.30831 5.90884L7.30758 5.90958L7.30683 5.91032L7.30609 5.91107L7.30533 5.91182L7.30458 5.91258L7.30382 5.91334L7.30305 5.91411L7.30228 5.91488L7.30151 5.91565L7.30073 5.91643L7.29995 5.91721L7.29916 5.918L7.29837 5.91879L7.29757 5.91959L7.29677 5.92039L7.29596 5.92119L7.29516 5.922L7.29434 5.92281L7.29352 5.92363L7.2927 5.92445L7.29188 5.92528L7.29105 5.92611L7.29021 5.92695L7.28937 5.92778L7.28853 5.92863L7.28768 5.92947L7.28683 5.93033L7.28598 5.93118L7.28512 5.93204L7.28425 5.9329L7.28339 5.93377L7.28252 5.93464L7.28164 5.93552L7.28076 5.9364L7.27988 5.93728L7.27899 5.93817L7.2781 5.93906L7.2772 5.93995L7.2763 5.94085L7.2754 5.94176L7.27449 5.94266L7.27358 5.94357L7.27267 5.94449L7.27175 5.94541L7.27083 5.94633L7.2699 5.94725L7.26897 5.94818L7.26804 5.94912L7.2671 5.95005L7.26616 5.95099L7.26522 5.95194L7.26427 5.95289L7.26332 5.95384L7.26236 5.95479L7.2614 5.95575L7.26044 5.95672L7.25947 5.95768L7.2585 5.95865L7.25753 5.95963L7.25656 5.9606L7.25557 5.96158L7.25459 5.96257L7.2536 5.96355L7.25261 5.96454L7.25162 5.96554L7.25062 5.96654L7.24962 5.96754L7.24862 5.96854L7.24761 5.96955L7.2466 5.97056L7.24558 5.97157L7.24457 5.97259L7.24354 5.97361L7.24252 5.97464L7.24149 5.97566L7.24046 5.97669L7.23943 5.97773L7.23839 5.97877L7.23735 5.97981L7.23631 5.98085L7.23526 5.9819L7.23421 5.98294L7.23316 5.984L7.2321 5.98505L7.23104 5.98611L7.22998 5.98717L7.22892 5.98824L7.22785 5.98931L7.22678 5.99038L7.22571 5.99145L7.22463 5.99253L7.22355 5.99361L7.22247 5.99469L7.22138 5.99578L7.22029 5.99687L7.2192 5.99796L7.21811 5.99905L7.21701 6.00015L7.21591 6.00125L7.21481 6.00235L7.2137 6.00346L7.21259 6.00456L7.21148 6.00568L7.21037 6.00679L7.20925 6.00791L7.20813 6.00902L7.20701 6.01015L7.20589 6.01127L7.20476 6.0124L7.20363 6.01353L7.2025 6.01466L7.20136 6.01579L7.20023 6.01693L7.19909 6.01807L7.19794 6.01921L7.1968 6.02036L7.19565 6.02151L7.1945 6.02266L7.19335 6.02381L7.19219 6.02496L7.19104 6.02612L7.18988 6.02728L7.18872 6.02844L7.18755 6.02961L7.18639 6.03077L7.18522 6.03194L7.18405 6.03311L7.18287 6.03429L7.1817 6.03546L7.18052 6.03664L7.17934 6.03782L7.17816 6.039L7.17697 6.04019L7.17578 6.04137L7.17459 6.04256L7.1734 6.04375L7.17221 6.04495L7.17102 6.04614L7.16982 6.04734L7.16862 6.04854L7.16742 6.04974L7.16621 6.05094L7.16501 6.05215L7.1638 6.05336L7.16259 6.05457L7.16138 6.05578L7.16017 6.05699L7.15895 6.05821L7.15773 6.05942L7.15651 6.06064L7.15529 6.06186L7.15407 6.06309L7.15284 6.06431L7.15162 6.06554L7.15039 6.06677L7.14916 6.068L7.14793 6.06923L7.14669 6.07046L7.14546 6.0717L7.14422 6.07294L7.14298 6.07417L7.14174 6.07541L7.1405 6.07666L7.13926 6.0779L7.13801 6.07915L7.13676 6.08039L7.13552 6.08164L7.13427 6.08289L7.13301 6.08414L7.13176 6.0854L7.13051 6.08665L7.12925 6.08791L7.12799 6.08916L7.12673 6.09042L7.12547 6.09168L7.12421 6.09295L7.12295 6.09421L7.12168 6.09547L7.12042 6.09674L7.11915 6.09801L7.11788 6.09928L7.11661 6.10055L7.11534 6.10182L7.11407 6.10309L7.11279 6.10436L7.11152 6.10564L7.11024 6.10691L7.10897 6.10819L7.10769 6.10947L7.10641 6.11075L7.10513 6.11203L7.10384 6.11331L7.10256 6.1146L7.10128 6.11588L7.09999 6.11717L7.09871 6.11845L7.09742 6.11974L7.09613 6.12103L7.09484 6.12232L7.09355 6.12361L7.09226 6.1249L7.09097 6.12619L7.08967 6.12748L7.08838 6.12878L7.08708 6.13007L7.08579 6.13137L7.08449 6.13267L7.08319 6.13396L7.08189 6.13526L7.0806 6.13656L7.0793 6.13786L7.07799 6.13916L7.07669 6.14046L7.07539 6.14177L7.07409 6.14307L7.07278 6.14437L7.07148 6.14568L7.07018 6.14698L7.06887 6.14829L7.06756 6.14959L7.06626 6.1509L7.06495 6.15221L7.06364 6.15352L7.06233 6.15482L7.06102 6.15613L7.05971 6.15744L7.0584 6.15875L7.05709 6.16006L7.05578 6.16137L7.05447 6.16268L7.05316 6.164L7.05185 6.16531L7.05054 6.16662L7.04922 6.16793L7.04791 6.16925L7.0466 6.17056L7.04528 6.17188L7.04397 6.17319L7.04265 6.1745L7.04134 6.17582L7.04002 6.17713L7.03871 6.17845L7.03739 6.17976L7.03608 6.18108L7.03476 6.1824L7.03345 6.18371L7.03213 6.18503L7.03081 6.18634L7.0295 6.18766L7.02818 6.18898L7.02687 6.19029L7.02555 6.19161L7.02423 6.19292L7.02292 6.19424L7.0216 6.19556L7.02028 6.19687L7.01897 6.19819L7.01765 6.19951L7.01634 6.20082L7.01502 6.20214L7.0137 6.20345L7.01239 6.20477L7.01107 6.20609L7.00976 6.2074L7.00844 6.20872L7.00713 6.21003L7.00581 6.21135L7.0045 6.21266L7.00318 6.21397L7.00187 6.21529L7.00056 6.2166L6.99924 6.21792L6.99793 6.21923L6.99662 6.22054L6.9953 6.22185L6.99399 6.22316L6.99268 6.22448L6.99137 6.22579L6.99006 6.2271L6.98875 6.22841L6.98744 6.22972L6.98613 6.23103L6.98482 6.23233L6.98351 6.23364L6.98221 6.23495L6.9809 6.23626L6.97959 6.23756L6.97829 6.23887L6.97698 6.24017L6.97568 6.24148L6.97438 6.24278L6.97307 6.24408L6.97177 6.24539L6.97047 6.24669L6.96917 6.24799L6.96787 6.24929L6.96657 6.25059L6.96527 6.25189L6.96397 6.25318L6.96268 6.25448L6.96138 6.25578L6.96009 6.25707L6.95879 6.25837L6.9575 6.25966L6.95621 6.26095L6.95491 6.26224L6.95362 6.26353L6.95233 6.26482L6.95105 6.26611L6.94976 6.2674L6.94847 6.26869L6.94719 6.26997L6.9459 6.27126L6.94462 6.27254L6.94334 6.27382L6.94206 6.2751L6.94078 6.27638L6.9395 6.27766L6.93822 6.27894L6.93694 6.28021L6.93567 6.28149L6.93439 6.28276L6.93312 6.28404L6.93185 6.28531L6.93058 6.28658L6.92931 6.28785L6.92804 6.28911L6.92678 6.29038L6.92551 6.29164L6.92425 6.29291L6.92299 6.29417L6.92173 6.29543L6.92047 6.29669L6.91921 6.29795L6.91795 6.2992L6.9167 6.30046L6.91545 6.30171L6.9142 6.30296L6.91295 6.30421L6.9117 6.30546L6.91045 6.30671L6.9092 6.30795L6.90796 6.3092L6.90672 6.31044L6.90548 6.31168L6.90424 6.31292L6.903 6.31416L6.90177 6.31539L6.90053 6.31662L6.8993 6.31786L6.89807 6.31909L6.89684 6.32031L6.89562 6.32154L6.89439 6.32277L6.89317 6.32399L6.89195 6.32521L6.89073 6.32643L6.88951 6.32765L6.88829 6.32886L6.88708 6.33008L6.88587 6.33129L6.88466 6.3325L6.88345 6.33371L6.88225 6.33491L6.88104 6.33611L6.87984 6.33732L6.87864 6.33852L6.87744 6.33971L6.87625 6.34091L6.87505 6.3421L6.87386 6.34329L6.87267 6.34448L6.87149 6.34567L6.8703 6.34685L6.86912 6.34804L6.86794 6.34922L6.86676 6.3504L6.86559 6.35157L6.86441 6.35275L6.86324 6.35392L6.86207 6.35509L6.86091 6.35625L6.85974 6.35742L6.85858 6.35858L6.85742 6.35974L6.85625 6.36091L6.85509 6.36207L6.85392 6.36324L6.85275 6.36441L6.85157 6.36559L6.8504 6.36676L6.84922 6.36794L6.84804 6.36912L6.84685 6.3703L6.84567 6.37149L6.84448 6.37267L6.84329 6.37386L6.8421 6.37505L6.84091 6.37625L6.83971 6.37744L6.83852 6.37864L6.83732 6.37984L6.83611 6.38104L6.83491 6.38225L6.83371 6.38345L6.8325 6.38466L6.83129 6.38587L6.83008 6.38708L6.82886 6.38829L6.82765 6.38951L6.82643 6.39073L6.82521 6.39195L6.82399 6.39317L6.82277 6.39439L6.82154 6.39562L6.82031 6.39684L6.81909 6.39807L6.81786 6.3993L6.81662 6.40053L6.81539 6.40177L6.81416 6.403L6.81292 6.40424L6.81168 6.40548L6.81044 6.40672L6.8092 6.40796L6.80795 6.4092L6.80671 6.41045L6.80546 6.4117L6.80421 6.41295L6.80296 6.4142L6.80171 6.41545L6.80046 6.4167L6.7992 6.41795L6.79795 6.41921L6.79669 6.42047L6.79543 6.42173L6.79417 6.42299L6.79291 6.42425L6.79164 6.42551L6.79038 6.42678L6.78911 6.42804L6.78785 6.42931L6.78658 6.43058L6.78531 6.43185L6.78404 6.43312L6.78276 6.43439L6.78149 6.43567L6.78021 6.43694L6.77894 6.43822L6.77766 6.4395L6.77638 6.44078L6.7751 6.44206L6.77382 6.44334L6.77254 6.44462L6.77126 6.4459L6.76997 6.44719L6.76869 6.44847L6.7674 6.44976L6.76611 6.45105L6.76482 6.45233L6.76353 6.45362L6.76224 6.45491L6.76095 6.45621L6.75966 6.4575L6.75837 6.45879L6.75707 6.46009L6.75578 6.46138L6.75448 6.46268L6.75318 6.46397L6.75189 6.46527L6.75059 6.46657L6.74929 6.46787L6.74799 6.46917L6.74669 6.47047L6.74539 6.47177L6.74408 6.47307L6.74278 6.47438L6.74148 6.47568L6.74017 6.47698L6.73887 6.47829L6.73756 6.47959L6.73626 6.4809L6.73495 6.48221L6.73364 6.48351L6.73233 6.48482L6.73103 6.48613L6.72972 6.48744L6.72841 6.48875L6.7271 6.49006L6.72579 6.49137L6.72448 6.49268L6.72316 6.49399L6.72185 6.4953L6.72054 6.49662L6.71923 6.49793L6.71792 6.49924L6.7166 6.50056L6.71529 6.50187L6.71397 6.50318L6.71266 6.5045L6.71135 6.50581L6.71003 6.50713L6.70872 6.50844L6.7074 6.50976L6.70609 6.51107L6.70477 6.51239L6.70345 6.5137L6.70214 6.51502L6.70082 6.51634L6.69951 6.51765L6.69819 6.51897L6.69687 6.52028L6.69556 6.5216L6.69424 6.52292L6.69292 6.52423L6.69161 6.52555L6.69029 6.52687L6.68898 6.52818L6.68766 6.5295L6.68634 6.53081L6.68503 6.53213L6.68371 6.53345L6.6824 6.53476L6.68108 6.53608L6.67976 6.53739L6.67845 6.53871L6.67713 6.54002L6.67582 6.54134L6.6745 6.54265L6.67319 6.54397L6.67188 6.54528L6.67056 6.5466L6.66925 6.54791L6.66793 6.54922L6.66662 6.55054L6.66531 6.55185L6.664 6.55316L6.66268 6.55447L6.66137 6.55578L6.66006 6.55709L6.65875 6.5584L6.65744 6.55971L6.65613 6.56102L6.65482 6.56233L6.65352 6.56364L6.65221 6.56495L6.6509 6.56626L6.64959 6.56756L6.64829 6.56887L6.64698 6.57018L6.64568 6.57148L6.64437 6.57278L6.64307 6.57409L6.64177 6.57539L6.64046 6.57669L6.63916 6.57799L6.63786 6.5793L6.63656 6.5806L6.63526 6.58189L6.63396 6.58319L6.63267 6.58449L6.63137 6.58579L6.63007 6.58708L6.62878 6.58838L6.62748 6.58967L6.62619 6.59097L6.6249 6.59226L6.62361 6.59355L6.62232 6.59484L6.62103 6.59613L6.61974 6.59742L6.61845 6.59871L6.61717 6.59999L6.61588 6.60128L6.6146 6.60256L6.61331 6.60384L6.61203 6.60513L6.61075 6.60641L6.60947 6.60769L6.60819 6.60897L6.60691 6.61024L6.60564 6.61152L6.60436 6.61279L6.60309 6.61407L6.60182 6.61534L6.60055 6.61661L6.59928 6.61788L6.59801 6.61915L6.59674 6.62042L6.59547 6.62168L6.59421 6.62295L6.59295 6.62421L6.59168 6.62547L6.59042 6.62673L6.58916 6.62799L6.58791 6.62925L6.58665 6.63051L6.5854 6.63176L6.58414 6.63301L6.58289 6.63427L6.58164 6.63552L6.58039 6.63676L6.57915 6.63801L6.5779 6.63926L6.57666 6.6405L6.57541 6.64174L6.57417 6.64298L6.57294 6.64422L6.5717 6.64546L6.57046 6.64669L6.56923 6.64793L6.568 6.64916L6.56677 6.65039L6.56554 6.65162L6.56431 6.65284L6.56309 6.65407L6.56186 6.65529L6.56064 6.65651L6.55942 6.65773L6.55821 6.65895L6.55699 6.66017L6.55578 6.66138L6.55457 6.66259L6.55336 6.6638L6.55215 6.66501L6.55094 6.66621L6.54974 6.66742L6.54854 6.66862L6.54734 6.66982L6.54614 6.67102L6.54495 6.67221L6.54375 6.6734L6.54256 6.67459L6.54137 6.67578L6.54019 6.67697L6.539 6.67816L6.53782 6.67934L6.53664 6.68052L6.53546 6.6817L6.53429 6.68287L6.53311 6.68405L6.53194 6.68522L6.53077 6.68639L6.52961 6.68755L6.52844 6.68872L6.52728 6.68988L6.52612 6.69104L6.52496 6.69219L6.52381 6.69335L6.52266 6.6945L6.52151 6.69565L6.52036 6.6968L6.51921 6.69794L6.51807 6.69909L6.51693 6.70023L6.51579 6.70136L6.51466 6.7025L6.51353 6.70363L6.5124 6.70476L6.51127 6.70589L6.51015 6.70701L6.50902 6.70813L6.50791 6.70925L6.50679 6.71037L6.50568 6.71148L6.50456 6.71259L6.50346 6.7137L6.50235 6.71481L6.50125 6.71591L6.50015 6.71701L6.49905 6.71811L6.49796 6.7192L6.49687 6.72029L6.49578 6.72138L6.49469 6.72247L6.49361 6.72355L6.49253 6.72463L6.49145 6.72571L6.49038 6.72678L6.48931 6.72785L6.48824 6.72892L6.48717 6.72998L6.48611 6.73104L6.48505 6.7321L6.484 6.73316L6.48294 6.73421L6.4819 6.73526L6.48085 6.73631L6.47981 6.73735L6.47877 6.73839L6.47773 6.73943L6.47669 6.74046L6.47566 6.74149L6.47464 6.74252L6.47361 6.74354L6.47259 6.74457L6.47157 6.74558L6.47056 6.7466L6.46955 6.74761L6.46854 6.74862L6.46754 6.74962L6.46654 6.75062L6.46554 6.75162L6.46454 6.75261L6.46355 6.7536L6.46257 6.75459L6.46158 6.75557L6.4606 6.75656L6.45963 6.75753L6.45865 6.7585L6.45768 6.75947L6.45672 6.76044L6.45575 6.7614L6.45479 6.76236L6.45384 6.76332L6.45289 6.76427L6.45194 6.76522L6.45099 6.76616L6.45005 6.7671L6.44912 6.76804L6.44818 6.76897L6.44725 6.7699L6.44633 6.77083L6.44541 6.77175L6.44449 6.77267L6.44357 6.77358L6.44266 6.77449L6.44176 6.7754L6.44085 6.7763L6.43995 6.7772L6.43906 6.7781L6.43817 6.77899L6.43728 6.77988L6.4364 6.78076L6.43552 6.78164L6.43464 6.78252L6.43377 6.78339L6.4329 6.78425L6.43204 6.78512L6.43118 6.78598L6.43033 6.78683L6.42947 6.78768L6.42863 6.78853L6.42778 6.78937L6.42695 6.79021L6.42611 6.79105L6.42528 6.79188L6.42445 6.7927L6.42363 6.79352L6.42281 6.79434L6.422 6.79516L6.42119 6.79596L6.42039 6.79677L6.41959 6.79757L6.41879 6.79837L6.418 6.79916L6.41721 6.79995L6.41643 6.80073L6.41565 6.80151L6.41488 6.80228L6.41411 6.80305L6.41334 6.80382L6.41258 6.80458L6.41182 6.80533L6.41107 6.80609L6.41032 6.80683L6.40958 6.80758L6.40884 6.80831L6.40811 6.80905L6.40738 6.80978L6.40666 6.8105L6.40594 6.81122L6.40522 6.81194L6.40451 6.81265L6.40381 6.81335L6.40311 6.81405L6.40241 6.81475L6.40172 6.81544L6.40103 6.81613L6.40035 6.81681L6.39967 6.81749L6.399 6.81816L6.39833 6.81883L6.39767 6.81949L6.39701 6.82015L6.39636 6.8208L6.39571 6.82145L6.39507 6.82209L6.39443 6.82273L6.3938 6.82336L6.39317 6.82399L6.39255 6.82461L6.39193 6.82523L6.39131 6.82584L6.39071 6.82645L6.3901 6.82705L6.38951 6.82765L6.38891 6.82824L6.38833 6.82883L6.38774 6.82941L6.38717 6.82999L6.38659 6.83056L6.38603 6.83113L6.38547 6.83169L6.38491 6.83225L6.38436 6.8328L6.38381 6.83334L6.38327 6.83388L6.38274 6.83442L6.38221 6.83495L6.38168 6.83547L6.38116 6.83599L6.38065 6.83651L6.38014 6.83702L6.37964 6.83752L6.37914 6.83802L6.37865 6.83851L6.37816 6.83899L6.37768 6.83948L6.37721 6.83995L6.37674 6.84042L6.37627 6.84088L6.37581 6.84134L6.37536 6.8418L6.37491 6.84224L6.37447 6.84269L6.37403 6.84312L6.3736 6.84355L6.37318 6.84398L6.37276 6.8444L6.37234 6.84481L6.37194 6.84522L6.37153 6.84562L6.37114 6.84602L6.37075 6.84641L6.37036 6.84679L6.36998 6.84717L6.36961 6.84755L6.36924 6.84791L6.36888 6.84828L6.36853 6.84863L6.36818 6.84898L6.36783 6.84932L6.3675 6.84966L6.36716 6.84999L6.36684 6.85032L6.36652 6.85064L6.3662 6.85095L6.3659 6.85126L6.36559 6.85156L6.3653 6.85186L6.36501 6.85215L6.36473 6.85243L6.36445 6.85271L6.36418 6.85298L6.36391 6.85324L6.36365 6.8535L6.3634 6.85376L6.36316 6.854L6.36292 6.85424L6.36268 6.85448L6.36245 6.8547L6.36223 6.85493L6.36202 6.85514L6.36181 6.85535L6.36161 6.85555L6.36141 6.85575L6.36122 6.85594L6.36104 6.85612L6.36086 6.8563L6.36069 6.85647L6.36053 6.85663L6.36037 6.85679L6.36022 6.85694L6.36007 6.85708L6.35994 6.85722L6.35981 6.85735L6.35968 6.85748L6.35956 6.85759L6.35945 6.85771L6.35935 6.85781L6.35925 6.85791L6.35916 6.858L6.35907 6.85809L6.35899 6.85816L6.35892 6.85824L6.35886 6.8583L6.3588 6.85836L6.35875 6.85841L6.3587 6.85845L6.35866 6.85849L6.35863 6.85852L6.35861 6.85855L6.35859 6.85856L6.35858 6.85858L6.5 7L6.35858 6.85858L6.3 6.91716V7V13V13.0828L6.35858 13.1414L6.3615 13.1443L6.36442 13.1473L6.36732 13.1502L6.37021 13.153L6.37309 13.1559L6.37595 13.1588L6.37881 13.1617L6.38165 13.1645L6.38449 13.1673L6.38731 13.1702L6.39012 13.173L6.39292 13.1758L6.39571 13.1786L6.39849 13.1813L6.40126 13.1841L6.40402 13.1869L6.40677 13.1896L6.4095 13.1923L6.41223 13.1951L6.41494 13.1978L6.41765 13.2005L6.42034 13.2032L6.42303 13.2059L6.4257 13.2085L6.42836 13.2112L6.43101 13.2139L6.43366 13.2165L6.43629 13.2191L6.43891 13.2218L6.44152 13.2244L6.44412 13.227L6.44671 13.2296L6.44929 13.2321L6.45187 13.2347L6.45443 13.2373L6.45698 13.2398L6.45952 13.2424L6.46205 13.2449L6.46458 13.2474L6.46709 13.2499L6.46959 13.2524L6.47208 13.2549L6.47457 13.2574L6.47704 13.2599L6.47951 13.2623L6.48196 13.2648L6.48441 13.2673L6.48684 13.2697L6.48927 13.2721L6.49169 13.2745L6.4941 13.2769L6.4965 13.2793L6.49889 13.2817L6.50127 13.2841L6.50364 13.2865L6.50601 13.2888L6.50836 13.2912L6.51071 13.2935L6.51304 13.2959L6.51537 13.2982L6.51769 13.3005L6.52 13.3028L6.5223 13.3051L6.52459 13.3074L6.52688 13.3097L6.52915 13.312L6.53142 13.3143L6.53368 13.3165L6.53593 13.3188L6.53817 13.321L6.54041 13.3233L6.54263 13.3255L6.54485 13.3277L6.54706 13.3299L6.54926 13.3321L6.55146 13.3343L6.55364 13.3365L6.55582 13.3387L6.55799 13.3408L6.56015 13.343L6.5623 13.3451L6.56445 13.3473L6.56658 13.3494L6.56871 13.3516L6.57084 13.3537L6.57295 13.3558L6.57506 13.3579L6.57716 13.36L6.57925 13.3621L6.58133 13.3642L6.58341 13.3663L6.58548 13.3683L6.58754 13.3704L6.5896 13.3724L6.59165 13.3745L6.59369 13.3765L6.59572 13.3786L6.59775 13.3806L6.59977 13.3826L6.60178 13.3846L6.60378 13.3866L6.60578 13.3886L6.60777 13.3906L6.60976 13.3926L6.61174 13.3946L6.61371 13.3965L6.61567 13.3985L6.61763 13.4005L6.61958 13.4024L6.62152 13.4044L6.62346 13.4063L6.62539 13.4082L6.62732 13.4102L6.62924 13.4121L6.63115 13.414L6.63306 13.4159L6.63496 13.4178L6.63685 13.4197L6.63874 13.4216L6.64062 13.4235L6.64249 13.4253L6.64436 13.4272L6.64623 13.4291L6.64808 13.4309L6.64993 13.4328L6.65178 13.4346L6.65362 13.4365L6.65545 13.4383L6.65728 13.4401L6.6591 13.4419L6.66092 13.4438L6.66273 13.4456L6.66454 13.4474L6.66634 13.4492L6.66813 13.451L6.66992 13.4528L6.67171 13.4545L6.67349 13.4563L6.67526 13.4581L6.67703 13.4599L6.67879 13.4616L6.68055 13.4634L6.6823 13.4651L6.68405 13.4669L6.68579 13.4686L6.68753 13.4704L6.68926 13.4721L6.69099 13.4738L6.69271 13.4756L6.69443 13.4773L6.69615 13.479L6.69785 13.4807L6.69956 13.4824L6.70126 13.4841L6.70295 13.4858L6.70464 13.4875L6.70633 13.4892L6.70801 13.4909L6.70969 13.4925L6.71136 13.4942L6.71303 13.4959L6.71469 13.4975L6.71636 13.4992L6.71801 13.5009L6.71966 13.5025L6.72131 13.5042L6.72296 13.5058L6.7246 13.5074L6.72623 13.5091L6.72786 13.5107L6.72949 13.5123L6.73112 13.514L6.73274 13.5156L6.73435 13.5172L6.73597 13.5188L6.73758 13.5204L6.73918 13.522L6.74079 13.5236L6.74238 13.5252L6.74398 13.5268L6.74557 13.5284L6.74716 13.53L6.74875 13.5316L6.75033 13.5332L6.75191 13.5348L6.75348 13.5363L6.75506 13.5379L6.75663 13.5395L6.75819 13.541L6.75976 13.5426L6.76132 13.5442L6.76288 13.5457L6.76443 13.5473L6.76598 13.5488L6.76753 13.5504L6.76908 13.5519L6.77062 13.5535L6.77216 13.555L6.7737 13.5565L6.77524 13.5581L6.77677 13.5596L6.7783 13.5611L6.77983 13.5627L6.78136 13.5642L6.78288 13.5657L6.78441 13.5672L6.78592 13.5688L6.78744 13.5703L6.78896 13.5718L6.79047 13.5733L6.79198 13.5748L6.79349 13.5763L6.795 13.5778L6.7965 13.5793L6.79801 13.5808L6.79951 13.5824L6.80101 13.5839L6.80251 13.5853L6.804 13.5868L6.8055 13.5883L6.80699 13.5898L6.80848 13.5913L6.80997 13.5928L6.81146 13.5943L6.81295 13.5958L6.81443 13.5973L6.81592 13.5988L6.8174 13.6002L6.81888 13.6017L6.82036 13.6032L6.82184 13.6047L6.82332 13.6062L6.8248 13.6076L6.82627 13.6091L6.82775 13.6106L6.82922 13.6121L6.8307 13.6135L6.83217 13.615L6.83364 13.6165L6.83511 13.618L6.83658 13.6194L6.83805 13.6209L6.83952 13.6224L6.84099 13.6238L6.84246 13.6253L6.84392 13.6268L6.84539 13.6282L6.84686 13.6297L6.84832 13.6312L6.84979 13.6326L6.85125 13.6341L6.85272 13.6356L6.85418 13.637L6.85565 13.6385L6.85711 13.64L6.85858 13.6414L6.86004 13.6429L6.86151 13.6444L6.86297 13.6458L6.86444 13.6473L6.8659 13.6487L6.86737 13.6502L6.86883 13.6517L6.8703 13.6531L6.87177 13.6546L6.87323 13.6561L6.8747 13.6575L6.87617 13.659L6.87764 13.6605L6.87911 13.6619L6.88058 13.6634L6.88205 13.6649L6.88352 13.6664L6.88499 13.6678L6.88646 13.6693L6.88794 13.6708L6.88941 13.6723L6.89088 13.6737L6.89236 13.6752L6.89384 13.6767L6.89532 13.6782L6.8968 13.6796L6.89828 13.6811L6.89976 13.6826L6.90124 13.6841L6.90273 13.6856L6.90421 13.6871L6.9057 13.6885L6.90719 13.69L6.90868 13.6915L6.91017 13.693L6.91166 13.6945L6.91316 13.696L6.91465 13.6975L6.91615 13.699L6.91765 13.7005L6.91915 13.702L6.92065 13.7035L6.92216 13.705L6.92367 13.7065L6.92518 13.708L6.92669 13.7095L6.9282 13.711L6.92972 13.7126L6.93123 13.7141L6.93275 13.7156L6.93427 13.7171L6.9358 13.7186L6.93732 13.7202L6.93885 13.7217L6.94038 13.7232L6.94192 13.7248L6.94345 13.7263L6.94499 13.7278L6.94653 13.7294L6.94808 13.7309L6.94963 13.7325L6.95117 13.734L6.95273 13.7356L6.95428 13.7371L6.95584 13.7387L6.9574 13.7402L6.95896 13.7418L6.96053 13.7434L6.9621 13.7449L6.96367 13.7465L6.96525 13.7481L6.96683 13.7497L6.96841 13.7513L6.97 13.7528L6.97159 13.7544L6.97318 13.756L6.97477 13.7576L6.97637 13.7592L6.97797 13.7608L6.97958 13.7624L6.98119 13.764L6.9828 13.7656L6.98442 13.7673L6.98604 13.7689L6.98767 13.7705L6.98929 13.7721L6.99093 13.7738L6.99256 13.7754L6.9942 13.777L6.99585 13.7787L6.99749 13.7803L6.99915 13.782L7.0008 13.7836L7.00246 13.7853L7.00413 13.787L7.0058 13.7886L7.00747 13.7903L7.00915 13.792L7.01083 13.7937L7.01251 13.7954L7.0142 13.797L7.0159 13.7987L7.0176 13.8004L7.0193 13.8021L7.02101 13.8039L7.02273 13.8056L7.02444 13.8073L7.02617 13.809L7.0279 13.8107L7.02963 13.8125L7.03137 13.8142L7.03311 13.816L7.03486 13.8177L7.03661 13.8195L7.03837 13.8212L7.04013 13.823L7.0419 13.8247L7.04367 13.8265L7.04545 13.8283L7.04723 13.8301L7.04902 13.8319L7.05082 13.8337L7.05262 13.8355L7.05442 13.8373L7.05624 13.8391L7.05805 13.8409L7.05988 13.8427L7.0617 13.8445L7.06354 13.8464L7.06538 13.8482L7.06722 13.8501L7.06907 13.8519L7.07093 13.8538L7.07279 13.8556L7.07466 13.8575L7.07654 13.8594L7.07842 13.8613L7.08031 13.8632L7.0822 13.865L7.0841 13.8669L7.08601 13.8688L7.08792 13.8708L7.08984 13.8727L7.09176 13.8746L7.0937 13.8765L7.09563 13.8785L7.09758 13.8804L7.09953 13.8824L7.10149 13.8843L7.10345 13.8863L7.10542 13.8883L7.1074 13.8902L7.10938 13.8922L7.11138 13.8942L7.11337 13.8962L7.11538 13.8982L7.11739 13.9002L7.11941 13.9023L7.12144 13.9043L7.12347 13.9063L7.12551 13.9084L7.12756 13.9104L7.12961 13.9125L7.13168 13.9145L7.13375 13.9166L7.13582 13.9187L7.13791 13.9208L7.14 13.9228L7.1421 13.9249L7.14421 13.927L7.14632 13.9292L7.14844 13.9313L7.15057 13.9334L7.15271 13.9356L7.15486 13.9377L7.15701 13.9399L7.15917 13.942L7.16134 13.9442L7.16352 13.9464L7.1657 13.9485L7.1679 13.9507L7.1701 13.9529L7.17231 13.9551L7.17452 13.9574L7.17675 13.9596L7.17898 13.9618L7.18123 13.9641L7.18348 13.9663L7.18573 13.9686L7.188 13.9708L7.19028 13.9731L7.19256 13.9754L7.19486 13.9777L7.19716 13.98L7.19947 13.9823L7.20179 13.9846L7.20412 13.987L7.20645 13.9893L7.2088 13.9916L7.21115 13.994L7.21352 13.9964L7.21589 13.9987L7.21827 14.0011L7.22066 14.0035L7.22306 14.0059L7.22547 14.0083L7.22789 14.0107L7.23031 14.0132L7.23275 14.0156L7.2352 14.018L7.23765 14.0205L7.24012 14.023L7.24259 14.0254L7.24507 14.0279L7.24757 14.0304L7.25007 14.0329L7.25258 14.0354L7.2551 14.0379L7.25764 14.0405L7.26018 14.043L7.26273 14.0456L7.26529 14.0481L7.26786 14.0507L7.27044 14.0533L7.27304 14.0559L7.27564 14.0585L7.27825 14.0611L7.28087 14.0637L7.2835 14.0663L7.28614 14.069L7.2888 14.0716L7.29146 14.0743L7.29413 14.077L7.29682 14.0797L7.29951 14.0824L7.30221 14.0851L7.30493 14.0878L7.30765 14.0905L7.31039 14.0932L7.31314 14.096L7.3159 14.0987L7.31866 14.1015L7.32144 14.1043L7.32423 14.1071L7.32703 14.1099L7.32985 14.1127L7.33267 14.1155L7.3355 14.1183L7.33835 14.1212L7.34121 14.124L7.34407 14.1269L7.34695 14.1298L7.34984 14.1327L7.35274 14.1356L7.35565 14.1385L7.35858 14.1414L7.41716 14.2H7.5L11.5 14.2L11.5008 14.2C11.9495 14.1983 12.3855 14.0583 12.75 13.801C13.1145 14.0583 13.5505 14.1983 13.9992 14.2H14H16.5C17.0835 14.2 17.6431 13.9682 18.0556 13.5556C18.4682 13.1431 18.7 12.5835 18.7 12V7V6.99978C18.6982 5.35605 18.0444 3.78015 16.8821 2.61786C15.7198 1.45556 14.144 0.801797 12.5002 0.8ZM11.4998 12.3H8.50023C8.42063 12.2999 8.34432 12.2682 8.28803 12.212C8.23175 12.1557 8.20009 12.0794 8.2 11.9998V8.00023C8.20009 7.92063 8.23175 7.84432 8.28803 7.78803C8.34432 7.73175 8.42063 7.70009 8.50023 7.7H11.4998C11.5794 7.70009 11.6557 7.73175 11.712 7.78803C11.7682 7.84432 11.7999 7.92063 11.8 8.00023V11.9998C11.7999 12.0794 11.7682 12.1557 11.712 12.212C11.6557 12.2682 11.5794 12.2999 11.4998 12.3Z" fill="#D2D2D2" stroke="#D2D2D2" stroke-width="0.4"/>
</svg>
