<svg width="20" height="20" viewBox="0 0 20 20" fill="none" xmlns="http://www.w3.org/2000/svg">
<path d="M4.6 5.50533C4.6 5.40587 4.63951 5.31049 4.70983 5.24016L5.24017 4.70983C5.31049 4.63951 5.40587 4.6 5.50533 4.6H8.19467C8.29413 4.6 8.38951 4.63951 8.45984 4.70983L8.99017 5.24016C9.06049 5.31049 9.1 5.40587 9.1 5.50533V8.19467C9.1 8.29413 9.06049 8.38951 8.99016 8.45983L8.45983 8.99017C8.38951 9.06049 8.29413 9.1 8.19467 9.1H5.50533C5.40587 9.1 5.31049 9.06049 5.24017 8.99016L4.70983 8.45983C4.63951 8.38951 4.6 8.29413 4.6 8.19467V5.50533Z" fill="#CCCCCC"/>
<path d="M4.70983 11.5402C4.63951 11.6105 4.6 11.7059 4.6 11.8053V14.4947C4.6 14.5941 4.63951 14.6895 4.70983 14.7598L5.24017 15.2902C5.31049 15.3605 5.40587 15.4 5.50533 15.4H8.19467C8.29413 15.4 8.38951 15.3605 8.45983 15.2902L8.99016 14.7598C9.06049 14.6895 9.1 14.5941 9.1 14.4947V11.8053C9.1 11.7059 9.06049 11.6105 8.99017 11.5402L8.45984 11.0098C8.38951 10.9395 8.29413 10.9 8.19467 10.9H5.50533C5.40587 10.9 5.31049 10.9395 5.24017 11.0098L4.70983 11.5402Z" fill="#CCCCCC"/>
<path d="M10.9 5.50533C10.9 5.40587 10.9395 5.31049 11.0098 5.24016L11.5402 4.70983C11.6105 4.63951 11.7059 4.6 11.8053 4.6H14.4947C14.5941 4.6 14.6895 4.63951 14.7598 4.70983L15.2902 5.24016C15.3605 5.31049 15.4 5.40587 15.4 5.50533V8.19467C15.4 8.29413 15.3605 8.38951 15.2902 8.45983L14.7598 8.99017C14.6895 9.06049 14.5941 9.1 14.4947 9.1H11.8053C11.7059 9.1 11.6105 9.06049 11.5402 8.99016L11.0098 8.45983C10.9395 8.38951 10.9 8.29413 10.9 8.19467V5.50533Z" fill="#CCCCCC"/>
<path d="M11.0098 11.5402C10.9395 11.6105 10.9 11.7059 10.9 11.8053V14.4947C10.9 14.5941 10.9395 14.6895 11.0098 14.7598L11.5402 15.2902C11.6105 15.3605 11.7059 15.4 11.8053 15.4H14.4947C14.5941 15.4 14.6895 15.3605 14.7598 15.2902L15.2902 14.7598C15.3605 14.6895 15.4 14.5941 15.4 14.4947V11.8053C15.4 11.7059 15.3605 11.6105 15.2902 11.5402L14.7598 11.0098C14.6895 10.9395 14.5941 10.9 14.4947 10.9H11.8053C11.7059 10.9 11.6105 10.9395 11.5402 11.0098L11.0098 11.5402Z" fill="#CCCCCC"/>
<path fill-rule="evenodd" clip-rule="evenodd" d="M2.6682 1.1318L1.1318 2.6682C1.04741 2.75259 1 2.86705 1 2.9864V17.0136C1 17.1329 1.04741 17.2474 1.1318 17.3318L2.6682 18.8682C2.75259 18.9526 2.86705 19 2.9864 19L17.0136 19C17.1329 19 17.2474 18.9526 17.3318 18.8682L18.8682 17.3318L19 17.0136V2.9864C19 2.86705 18.9526 2.75259 18.8682 2.6682L17.3318 1.1318C17.2474 1.04741 17.1329 1 17.0136 1H2.9864C2.86705 1 2.75259 1.04741 2.6682 1.1318ZM17.2 16.4544V3.54558L16.4544 2.8H3.54559L2.8 3.54558V16.4544L3.54558 17.2L16.4544 17.2L17.2 16.4544Z" fill="#CCCCCC"/>
</svg>
