<svg width="20" height="20" viewBox="0 0 20 20" fill="none" xmlns="http://www.w3.org/2000/svg">
<path d="M4 5.00592C4 4.89541 4.0439 4.78943 4.12204 4.71129L4.71129 4.12204C4.78943 4.0439 4.89542 4 5.00592 4H7.99408C8.10458 4 8.21057 4.0439 8.28871 4.12204L8.87796 4.71129C8.9561 4.78943 9 4.89541 9 5.00592V7.99408C9 8.10458 8.9561 8.21056 8.87796 8.2887L8.2887 8.87796C8.21056 8.9561 8.10458 9 7.99408 9H5.00592C4.89542 9 4.78943 8.9561 4.71129 8.87796L4.12204 8.2887C4.0439 8.21056 4 8.10458 4 7.99408V5.00592Z" fill="#CCCCCC"/>
<path d="M4.12204 11.7113C4.0439 11.7894 4 11.8954 4 12.0059V14.9941C4 15.1046 4.0439 15.2106 4.12204 15.2887L4.71129 15.878C4.78943 15.9561 4.89542 16 5.00592 16H7.99408C8.10458 16 8.21056 15.9561 8.2887 15.878L8.87796 15.2887C8.9561 15.2106 9 15.1046 9 14.9941V12.0059C9 11.8954 8.9561 11.7894 8.87796 11.7113L8.28871 11.122C8.21057 11.0439 8.10458 11 7.99408 11H5.00592C4.89542 11 4.78943 11.0439 4.71129 11.122L4.12204 11.7113Z" fill="#CCCCCC"/>
<path d="M11 5.00592C11 4.89541 11.0439 4.78943 11.122 4.71129L11.7113 4.12204C11.7894 4.0439 11.8954 4 12.0059 4H14.9941C15.1046 4 15.2106 4.0439 15.2887 4.12204L15.878 4.71129C15.9561 4.78943 16 4.89541 16 5.00592V7.99408C16 8.10458 15.9561 8.21056 15.878 8.2887L15.2887 8.87796C15.2106 8.9561 15.1046 9 14.9941 9H12.0059C11.8954 9 11.7894 8.9561 11.7113 8.87796L11.122 8.2887C11.0439 8.21056 11 8.10458 11 7.99408V5.00592Z" fill="#CCCCCC"/>
<path d="M11.122 11.7113C11.0439 11.7894 11 11.8954 11 12.0059V14.9941C11 15.1046 11.0439 15.2106 11.122 15.2887L11.7113 15.878C11.7894 15.9561 11.8954 16 12.0059 16H14.9941C15.1046 16 15.2106 15.9561 15.2887 15.878L15.878 15.2887C15.9561 15.2106 16 15.1046 16 14.9941V12.0059C16 11.8954 15.9561 11.7894 15.878 11.7113L15.2887 11.122C15.2106 11.0439 15.1046 11 14.9941 11H12.0059C11.8954 11 11.7894 11.0439 11.7113 11.122L11.122 11.7113Z" fill="#CCCCCC"/>
<path fill-rule="evenodd" clip-rule="evenodd" d="M1.85355 0.146447L0.146446 1.85355C0.052678 1.94732 0 2.0745 0 2.20711V17.7929C0 17.9255 0.0526773 18.0527 0.146445 18.1464L1.85355 19.8536C1.94732 19.9473 2.0745 20 2.20711 20L17.7929 20C17.9255 20 18.0527 19.9473 18.1464 19.8536L19.8536 18.1464L20 17.7929V2.20711C20 2.0745 19.9473 1.94732 19.8536 1.85355L18.1464 0.146447C18.0527 0.0526783 17.9255 0 17.7929 0H2.20711C2.0745 0 1.94732 0.052679 1.85355 0.146447ZM18 17.1716V2.82843L17.1716 2H2.82843L2 2.82843V17.1716L2.82843 18L17.1716 18L18 17.1716Z" fill="#CCCCCC"/>
</svg>
