<svg width="20" height="20" viewBox="0 0 20 20" fill="none" xmlns="http://www.w3.org/2000/svg">
<mask id="path-1-inside-1_6553_94006" fill="white">
<path fill-rule="evenodd" clip-rule="evenodd" d="M12.5515 1.5C12.7106 1.5 12.8632 1.56321 12.9757 1.67574L13.8243 2.52426C13.9368 2.63679 14 2.7894 14 2.94853V3.75H19C19.4142 3.75 19.75 4.08579 19.75 4.5C19.75 4.91421 19.4142 5.25 19 5.25H18.273C17.8588 5.25 17.523 5.58579 17.523 6V14C17.523 15.2426 16.5156 16.25 15.273 16.25H14V17.0515C14 17.2106 13.9368 17.3632 13.8243 17.4757L12.9757 18.3243C12.8632 18.4368 12.7106 18.5 12.5515 18.5H7.44853C7.2894 18.5 7.13679 18.4368 7.02426 18.3243L6.17574 17.4757C6.06321 17.3632 6 17.2106 6 17.0515V16.25H4.75328C3.51064 16.25 2.50328 15.2426 2.50328 14V6C2.50328 5.58579 2.1675 5.25 1.75328 5.25H1C0.585786 5.25 0.25 4.91421 0.25 4.5C0.25 4.08579 0.585786 3.75 1 3.75H6V2.94853C6 2.7894 6.06321 2.63679 6.17574 2.52426L7.02426 1.67574C7.13679 1.56321 7.2894 1.5 7.44853 1.5H12.5515ZM14 14.75V13.9485C14 13.7894 13.9368 13.6368 13.8243 13.5243L12.9757 12.6757C12.8632 12.5632 12.7106 12.5 12.5515 12.5H7.44853C7.2894 12.5 7.13679 12.5632 7.02426 12.6757L6.17574 13.5243C6.06321 13.6368 6 13.7894 6 13.9485V14.75H4.75328C4.33907 14.75 4.00328 14.4142 4.00328 14V6C4.00328 5.73702 3.95817 5.48458 3.87526 5.25H6V6.05147C6 6.2106 6.06321 6.36321 6.17574 6.47574L7.02426 7.32426C7.13679 7.43679 7.2894 7.5 7.44853 7.5H12.5515C12.7106 7.5 12.8632 7.43679 12.9757 7.32426L13.8243 6.47574C13.9368 6.36321 14 6.2106 14 6.05147V5.25H16.151C16.0681 5.48458 16.023 5.73702 16.023 6V14C16.023 14.4142 15.6872 14.75 15.273 14.75H14Z"/>
</mask>
<path fill-rule="evenodd" clip-rule="evenodd" d="M12.5515 1.5C12.7106 1.5 12.8632 1.56321 12.9757 1.67574L13.8243 2.52426C13.9368 2.63679 14 2.7894 14 2.94853V3.75H19C19.4142 3.75 19.75 4.08579 19.75 4.5C19.75 4.91421 19.4142 5.25 19 5.25H18.273C17.8588 5.25 17.523 5.58579 17.523 6V14C17.523 15.2426 16.5156 16.25 15.273 16.25H14V17.0515C14 17.2106 13.9368 17.3632 13.8243 17.4757L12.9757 18.3243C12.8632 18.4368 12.7106 18.5 12.5515 18.5H7.44853C7.2894 18.5 7.13679 18.4368 7.02426 18.3243L6.17574 17.4757C6.06321 17.3632 6 17.2106 6 17.0515V16.25H4.75328C3.51064 16.25 2.50328 15.2426 2.50328 14V6C2.50328 5.58579 2.1675 5.25 1.75328 5.25H1C0.585786 5.25 0.25 4.91421 0.25 4.5C0.25 4.08579 0.585786 3.75 1 3.75H6V2.94853C6 2.7894 6.06321 2.63679 6.17574 2.52426L7.02426 1.67574C7.13679 1.56321 7.2894 1.5 7.44853 1.5H12.5515ZM14 14.75V13.9485C14 13.7894 13.9368 13.6368 13.8243 13.5243L12.9757 12.6757C12.8632 12.5632 12.7106 12.5 12.5515 12.5H7.44853C7.2894 12.5 7.13679 12.5632 7.02426 12.6757L6.17574 13.5243C6.06321 13.6368 6 13.7894 6 13.9485V14.75H4.75328C4.33907 14.75 4.00328 14.4142 4.00328 14V6C4.00328 5.73702 3.95817 5.48458 3.87526 5.25H6V6.05147C6 6.2106 6.06321 6.36321 6.17574 6.47574L7.02426 7.32426C7.13679 7.43679 7.2894 7.5 7.44853 7.5H12.5515C12.7106 7.5 12.8632 7.43679 12.9757 7.32426L13.8243 6.47574C13.9368 6.36321 14 6.2106 14 6.05147V5.25H16.151C16.0681 5.48458 16.023 5.73702 16.023 6V14C16.023 14.4142 15.6872 14.75 15.273 14.75H14Z" fill="#CCCCCC" stroke="#CCCCCC" stroke-width="3" stroke-linecap="round" stroke-linejoin="round" mask="url(#path-1-inside-1_6553_94006)"/>
</svg>
