<svg width="24" height="24" viewBox="0 0 24 24" fill="none" xmlns="http://www.w3.org/2000/svg">
<path fill-rule="evenodd" clip-rule="evenodd" d="M12 5.74976C10.1331 5.74976 8.60734 6.84488 7.98261 8.97687C7.84434 9.44874 7.41076 9.74048 6.95646 9.74048C6.20679 9.74048 5.41722 10.2007 4.78205 11.0582C4.15309 11.9073 3.75 13.0575 3.75 14.215C3.75 16.6023 5.28397 18.2498 6.85714 18.2498H17.1429C18.716 18.2498 20.25 16.6023 20.25 14.215C20.25 13.0375 19.8848 11.8816 19.3026 11.0377C18.7169 10.1887 17.9809 9.74048 17.2422 9.74048C16.7871 9.74048 16.3558 9.44844 16.2164 8.98012C15.5903 6.87716 13.8995 5.74976 12 5.74976ZM6.63767 8.25531C7.49644 5.71686 9.51397 4.24976 12 4.24976C14.4566 4.24976 16.6674 5.6892 17.5584 8.25514C18.807 8.37149 19.835 9.1679 20.5373 10.1859C21.3014 11.2936 21.75 12.7499 21.75 14.215C21.75 17.1127 19.8302 19.7498 17.1429 19.7498H6.85714C4.16982 19.7498 2.25 17.1127 2.25 14.215C2.25 12.7299 2.76001 11.2679 3.57672 10.1653C4.32413 9.15636 5.39313 8.37139 6.63767 8.25531ZM6.45508 11.9657C6.04086 11.9657 5.70508 12.3015 5.70508 12.7157C5.70508 13.1299 6.04086 13.4657 6.45508 13.4657H12.4551C12.8693 13.4657 13.2051 13.1299 13.2051 12.7157C13.2051 12.3015 12.8693 11.9657 12.4551 11.9657H6.45508ZM6.45508 14.567C6.04086 14.567 5.70508 14.9028 5.70508 15.317C5.70508 15.7312 6.04086 16.067 6.45508 16.067H12.4551C12.8693 16.067 13.2051 15.7312 13.2051 15.317C13.2051 14.9028 12.8693 14.567 12.4551 14.567H6.45508ZM16.3003 16.0833C17.4418 16.0833 18.3672 15.1579 18.3672 14.0164C18.3672 12.8748 17.4418 11.9495 16.3003 11.9495C15.1588 11.9495 14.2334 12.8748 14.2334 14.0164C14.2334 15.1579 15.1588 16.0833 16.3003 16.0833Z" fill="#B3B3B3"/>
</svg>
