<svg width="20" height="20" viewBox="0 0 20 20" fill="none" xmlns="http://www.w3.org/2000/svg">
    <path fill-rule="evenodd" clip-rule="evenodd" d="M2 2H4.73171V4.73171H2V2ZM11.3657 2H8.63403V4.73171H11.3657V2ZM18.0003 2H15.2686V4.73171H18.0003V2ZM18.0003 8.63428H15.2686V11.366H18.0003V8.63428ZM8.63403 8.63428H11.3657V11.366H8.63403V8.63428ZM4.73171 8.63428H2V11.366H4.73171V8.63428ZM2 15.2682H4.73171V17.9999H2V15.2682ZM8.63403 15.2682H11.3657V17.9999H8.63403V15.2682ZM15 16.9669C15 19.1488 15.843 20 17.7107 20C18.5289 20 19.1405 19.7603 19.4628 19.5868V16.7603H17.5455V17.6446H18.4711V18.9091C18.2645 18.9669 18.0331 19.0165 17.7107 19.0165C16.6116 19.0165 16.0909 18.4959 16.0909 16.9587C16.0909 15.5207 16.6198 14.9835 17.7107 14.9835C18.3058 14.9835 18.8182 15.157 19.1322 15.3306V14.2645C19.1322 14.2645 18.5785 14 17.7107 14C15.8926 14 15 14.8926 15 16.9669Z" fill="#CCCCCC"/>
</svg>
