<svg width="20" height="20" viewBox="0 0 20 20" fill="none" xmlns="http://www.w3.org/2000/svg">
<g clip-path="url(#clip0_73652_496305)">
<path fill-rule="evenodd" clip-rule="evenodd" d="M6.89998 2.22225C6.89998 3.44957 5.82547 4.4445 4.49998 4.4445C3.1745 4.4445 2.09998 3.44957 2.09998 2.22225C2.09998 0.994936 3.1745 0 4.49998 0C5.82547 0 6.89998 0.994936 6.89998 2.22225ZM1.6023 5.73856L0.197703 7.03912C0.0711159 7.15634 0 7.31531 0 7.48107V9.6875C0 9.86009 0.151104 10 0.3375 10H8.6625C8.8489 10 9 9.86009 9 9.6875V7.48107C9 7.31531 8.92888 7.15634 8.8023 7.03912L7.3977 5.73856C7.27112 5.62135 7.09943 5.5555 6.92041 5.5555H2.07959C1.90057 5.5555 1.72888 5.62135 1.6023 5.73856Z" fill="#CCCCCC"/>
<path fill-rule="evenodd" clip-rule="evenodd" d="M17.9 12.2223C17.9 13.4496 16.8255 14.4445 15.5 14.4445C14.1745 14.4445 13.1 13.4496 13.1 12.2223C13.1 10.9949 14.1745 10 15.5 10C16.8255 10 17.9 10.9949 17.9 12.2223ZM12.6023 15.7386L11.1977 17.0391C11.0711 17.1563 11 17.3153 11 17.4811V19.6875C11 19.8601 11.1511 20 11.3375 20H19.6625C19.8489 20 20 19.8601 20 19.6875V17.4811C20 17.3153 19.9289 17.1563 19.8023 17.0391L18.3977 15.7386C18.2711 15.6213 18.0994 15.5555 17.9204 15.5555H13.0796C12.9006 15.5555 12.7289 15.6213 12.6023 15.7386Z" fill="#CCCCCC"/>
<path d="M16.5 3.21809C16.5 3.08483 16.4504 2.95702 16.3622 2.86278L14.7561 1.14718C14.6679 1.05294 14.5482 1 14.4235 1L9 1.00007V3.01001L13.8389 3.00996L14.6183 3.84251V8.49995H16.5V3.21809Z" fill="#CCCCCC"/>
<path d="M3.5 16.7719C3.5 16.9052 3.54956 17.033 3.63778 17.1272L5.24389 18.8428C5.33211 18.9371 5.45176 18.99 5.57652 18.99L9.31161 18.99V16.98L6.16109 16.98L5.38167 16.1475V11.5H3.5V16.7719Z" fill="#CCCCCC"/>
</g>
<defs>
<clipPath id="clip0_73652_496305">
<rect width="20" height="20" fill="white"/>
</clipPath>
</defs>
</svg>
