<svg width="20" height="20" viewBox="0 0 20 20" fill="none" xmlns="http://www.w3.org/2000/svg">
<path d="M11.3658 13.5186C11.6331 13.6049 11.9478 13.648 12.3099 13.648C12.4781 13.648 12.6311 13.635 12.769 13.6092C12.9113 13.5833 13.032 13.5531 13.1312 13.5186C13.2223 13.4882 13.3056 13.4552 13.3809 13.4195C13.4186 13.4017 13.4416 13.3632 13.4416 13.3215V12.6046C13.4416 12.5123 13.3327 12.455 13.2502 12.4965C13.1793 12.5321 13.0987 12.5668 13.0083 12.6004C12.8229 12.6694 12.6009 12.7038 12.3423 12.7038C12.1569 12.7038 11.9952 12.6801 11.8573 12.6327C11.7236 12.5853 11.6115 12.5055 11.521 12.3935C11.4305 12.2814 11.3637 12.1326 11.3205 11.9473C11.2774 11.7619 11.2559 11.5334 11.2559 11.2618C11.2559 11.0031 11.2774 10.7876 11.3205 10.6152C11.3637 10.4384 11.4305 10.2961 11.521 10.1884C11.6115 10.0806 11.7236 10.003 11.8573 9.95556C11.9952 9.90814 12.1569 9.88443 12.3423 9.88443C12.6009 9.88443 12.8165 9.91461 12.9889 9.97496C13.0889 10.0067 13.1807 10.0418 13.2641 10.0804C13.3438 10.1173 13.4416 10.0619 13.4416 9.97401V9.24429C13.4416 9.19758 13.4127 9.15564 13.3686 9.14014C13.2859 9.11105 13.1982 9.08324 13.1053 9.05671C13.0018 9.02653 12.8811 9.00067 12.7432 8.97911C12.6052 8.95325 12.4608 8.94031 12.3099 8.94031C11.9521 8.94031 11.6417 8.98558 11.3787 9.07611C11.1158 9.16233 10.8981 9.30028 10.7256 9.48997C10.5532 9.67534 10.4238 9.91461 10.3376 10.2078C10.2514 10.5009 10.2083 10.8523 10.2083 11.2618C10.2083 11.6972 10.2492 12.0658 10.3312 12.3676C10.4131 12.6694 10.5402 12.9151 10.7127 13.1048C10.8851 13.2945 11.1028 13.4324 11.3658 13.5186Z" fill="#CCCCCC"/>
<path d="M6.79859 12.7168C6.73671 12.7168 6.68654 12.7669 6.68654 12.8288V13.4454C6.68654 13.5073 6.73671 13.5574 6.79859 13.5574H9.54912C9.611 13.5574 9.66116 13.5073 9.66116 13.4454V12.8288C9.66116 12.7669 9.611 12.7168 9.54912 12.7168H8.93255C8.87067 12.7168 8.82051 12.6666 8.82051 12.6047V9.14289C8.82051 9.08101 8.77034 9.03084 8.70846 9.03084H8.14298C8.12094 9.03084 8.09939 9.03734 8.08103 9.04953L6.73663 9.94172C6.70535 9.96248 6.68654 9.99753 6.68654 10.0351V10.6968C6.68654 10.7863 6.78628 10.8397 6.86074 10.79L7.63753 10.2722C7.71199 10.2225 7.81172 10.2759 7.81172 10.3654V12.6047C7.81172 12.6666 7.76156 12.7168 7.69968 12.7168H6.79859Z" fill="#CCCCCC"/>
<path fill-rule="evenodd" clip-rule="evenodd" d="M19.845 12.2889C19.845 14.8062 17.8165 16.8497 15.3049 16.874L15.2597 16.8742H4.77033C4.77004 16.8742 4.77033 16.8745 4.77033 16.8742C4.77033 16.8739 4.76957 16.8732 4.76929 16.8732C2.2827 16.8204 0.283203 14.7881 0.283203 12.2889C0.283203 9.75648 2.33613 7.70356 4.86854 7.70356C4.91208 7.70356 4.94957 7.6723 4.95754 7.6295C5.41243 5.18443 7.55698 3.33325 10.1339 3.33325C12.3019 3.33325 14.1639 4.64355 14.9711 6.51543C15.2562 7.17661 15.8578 7.68519 16.5489 7.88728C18.4537 8.44426 19.845 10.2041 19.845 12.2889ZM6.49967 7.91641C6.81888 6.20068 8.32637 4.90185 10.1339 4.90185C11.6536 4.90185 12.9626 5.81912 13.5307 7.13657C14.0118 8.25227 14.9964 9.0676 16.1086 9.39283C17.3628 9.75957 18.2764 10.9196 18.2764 12.2889C18.2764 13.9439 16.9436 15.2877 15.2931 15.3055L15.2558 15.3056H4.82678L4.80259 15.3049C3.16733 15.2702 1.8518 13.933 1.8518 12.2889C1.8518 10.6228 3.20244 9.27215 4.86854 9.27215C5.67001 9.27215 6.35391 8.69989 6.49967 7.91641Z" fill="#CCCCCC"/>
</svg>
