<svg width="20" height="20" viewBox="0 0 20 20" fill="none" xmlns="http://www.w3.org/2000/svg">
    <path d="M4.73171 2H2V4.73171H4.73171V2Z" fill="#CCCCCC"/>
    <path d="M8.63403 2H11.3657V4.73171H8.63403V2Z" fill="#CCCCCC"/>
    <path d="M18.0003 2H15.2686V4.73171H18.0003V2Z" fill="#CCCCCC"/>
    <path d="M15.2686 8.63428H18.0003V11.366H15.2686V8.63428Z" fill="#CCCCCC"/>
    <path d="M8.63403 8.63428H11.3657V11.366H8.63403V8.63428Z" fill="#CCCCCC"/>
    <path d="M2 8.63428H4.73171V11.366H2V8.63428Z" fill="#CCCCCC"/>
    <path d="M2 15.2682H4.73171V17.9999H2V15.2682Z" fill="#CCCCCC"/>
    <path d="M11.3657 15.2682H8.63403V17.9999H11.3657V15.2682Z" fill="#CCCCCC"/>
    <path d="M16.503 19.8293C16.8446 19.9431 17.246 20 17.7072 20C17.9235 20 18.1228 19.983 18.305 19.9488C18.4871 19.9203 18.6437 19.8833 18.7747 19.8378C18.9227 19.7866 19.0593 19.7296 19.1846 19.667V18.5653C19.0479 18.6621 18.8544 18.7561 18.6039 18.8472C18.359 18.9382 18.0687 18.9838 17.7328 18.9838C17.4652 18.9838 17.2318 18.9468 17.0325 18.8728C16.8332 18.7988 16.6653 18.6792 16.5287 18.5141C16.3977 18.349 16.2981 18.1298 16.2298 17.8565C16.1614 17.5832 16.1273 17.2502 16.1273 16.8573C16.1273 16.4816 16.1586 16.1656 16.2212 15.9094C16.2895 15.6475 16.3892 15.4369 16.5201 15.2775C16.6567 15.1124 16.8247 14.9956 17.024 14.9273C17.2232 14.8533 17.4567 14.8163 17.7242 14.8163C18.0545 14.8163 18.3334 14.8533 18.5612 14.9273C18.7946 14.9956 18.9938 15.0782 19.159 15.175V14.0733C19.028 14.0221 18.8857 13.9765 18.732 13.9367C18.601 13.9025 18.4444 13.8712 18.2623 13.8427C18.0858 13.8143 17.895 13.8 17.6901 13.8C16.7962 13.8 16.1244 14.042 15.6747 14.5259C15.2249 15.0042 15 15.7813 15 16.8573C15 17.4267 15.0541 17.9106 15.1623 18.3091C15.2704 18.7077 15.4355 19.0322 15.6576 19.2827C15.8853 19.5332 16.1671 19.7154 16.503 19.8293Z" fill="#CCCCCC"/>
</svg>
