<svg width="20" height="20" viewBox="0 0 20 20" fill="none" xmlns="http://www.w3.org/2000/svg">
<path fill-rule="evenodd" clip-rule="evenodd" d="M6 4.79289V2.20711C6 2.0745 6.05268 1.94732 6.14645 1.85355L6.85355 1.14645C6.94732 1.05268 7.0745 1 7.20711 1H12.7929C12.9255 1 13.0527 1.05268 13.1464 1.14645L13.8536 1.85355C13.9473 1.94732 14 2.0745 14 2.20711V4.79289C14 4.9255 13.9473 5.05268 13.8536 5.14645L13.1464 5.85355C13.0527 5.94732 12.9255 6 12.7929 6H10.75V7.5C10.75 8.74264 11.7574 9.75 13 9.75C15.0711 9.75 16.75 11.4289 16.75 13.5V14H18.7929C18.9255 14 19.0527 14.0527 19.1464 14.1464L19.8536 14.8536C19.9473 14.9473 20 15.0745 20 15.2071V17.7929C20 17.9255 19.9473 18.0527 19.8536 18.1464L19.1464 18.8536C19.0527 18.9473 18.9255 19 18.7929 19H13.2071C13.0745 19 12.9473 18.9473 12.8536 18.8536L12.1464 18.1464C12.0527 18.0527 12 17.9255 12 17.7929V15.2071C12 15.0745 12.0527 14.9473 12.1464 14.8536L12.8536 14.1464C12.9473 14.0527 13.0745 14 13.2071 14H15.25V13.5C15.25 12.2574 14.2426 11.25 13 11.25C11.7733 11.25 10.6842 10.661 10 9.75036C9.31583 10.661 8.2267 11.25 7 11.25C5.75736 11.25 4.75 12.2574 4.75 13.5V14H6.79289C6.9255 14 7.05268 14.0527 7.14645 14.1464L7.85355 14.8536C7.94732 14.9473 8 15.0745 8 15.2071V17.7929C8 17.9255 7.94732 18.0527 7.85355 18.1464L7.14645 18.8536C7.05268 18.9473 6.9255 19 6.79289 19H1.20711C1.0745 19 0.947322 18.9473 0.853554 18.8536L0.146447 18.1464C0.0526784 18.0527 0 17.9255 0 17.7929V15.2071C0 15.0745 0.0526783 14.9473 0.146446 14.8536L0.853553 14.1464C0.947322 14.0527 1.0745 14 1.20711 14H3.25V13.5C3.25 11.4289 4.92893 9.75 7 9.75C8.24264 9.75 9.25 8.74264 9.25 7.5V6H7.20711C7.0745 6 6.94732 5.94732 6.85355 5.85355L6.14645 5.14645C6.05268 5.05268 6 4.9255 6 4.79289Z" fill="#D2D2D2"/>
</svg>
