<svg width="100" height="100" viewBox="0 0 100 100" fill="none" xmlns="http://www.w3.org/2000/svg">
    <path fill-rule="evenodd" clip-rule="evenodd" d="M76.25 85C77.9806 85 79.6723 84.4868 81.1112 83.5254C82.5502 82.5639 83.6717 81.1973 84.3339 79.5985C84.9962 77.9996 85.1695 76.2403 84.8319 74.543C84.4943 72.8456 83.6609 71.2865 82.4372 70.0628C81.2135 68.8391 79.6544 68.0058 77.957 67.6681C76.2597 67.3305 74.5004 67.5038 72.9015 68.1661C71.3027 68.8283 69.9361 69.9498 68.9746 71.3888C68.0132 72.8277 67.5 74.5194 67.5 76.25C67.4993 77.3993 67.7252 78.5374 68.1647 79.5993C68.6042 80.6612 69.2487 81.626 70.0613 82.4387C70.874 83.2513 71.8388 83.8958 72.9007 84.3353C73.9626 84.7748 75.1007 85.0007 76.25 85ZM76.25 58.75C77.9806 58.75 79.6723 58.2368 81.1112 57.2754C82.5502 56.3139 83.6717 54.9473 84.3339 53.3485C84.9962 51.7496 85.1695 49.9903 84.8319 48.293C84.4943 46.5956 83.6609 45.0365 82.4372 43.8128C81.2135 42.5891 79.6544 41.7558 77.957 41.4181C76.2597 41.0805 74.5004 41.2538 72.9015 41.9161C71.3027 42.5783 69.9361 43.6998 68.9746 45.1388C68.0132 46.5777 67.5 48.2694 67.5 50C67.4993 51.1493 67.7252 52.2874 68.1647 53.3493C68.6042 54.4112 69.2487 55.376 70.0613 56.1887C70.874 57.0013 71.8388 57.6458 72.9007 58.0853C73.9626 58.5248 75.1007 58.7507 76.25 58.75ZM76.25 32.5C77.9806 32.5 79.6723 31.9868 81.1112 31.0254C82.5502 30.0639 83.6717 28.6973 84.3339 27.0985C84.9962 25.4996 85.1695 23.7403 84.8319 22.043C84.4943 20.3456 83.6609 18.7865 82.4372 17.5628C81.2135 16.3391 79.6544 15.5058 77.957 15.1681C76.2597 14.8305 74.5004 15.0038 72.9015 15.6661C71.3027 16.3283 69.9361 17.4498 68.9746 18.8888C68.0132 20.3277 67.5 22.0194 67.5 23.75C67.4993 24.8993 67.7252 26.0374 68.1647 27.0993C68.6042 28.1612 69.2487 29.126 70.0613 29.9387C70.874 30.7513 71.8388 31.3958 72.9007 31.8353C73.9626 32.2748 75.1007 32.5007 76.25 32.5ZM50 85C51.7306 85 53.4223 84.4868 54.8612 83.5254C56.3002 82.5639 57.4217 81.1973 58.0839 79.5985C58.7462 77.9996 58.9195 76.2403 58.5819 74.543C58.2443 72.8456 57.4109 71.2865 56.1872 70.0628C54.9635 68.8391 53.4044 68.0058 51.707 67.6681C50.0097 67.3305 48.2504 67.5038 46.6515 68.1661C45.0527 68.8283 43.6861 69.9498 42.7246 71.3888C41.7632 72.8277 41.25 74.5194 41.25 76.25C41.2493 77.3993 41.4752 78.5374 41.9147 79.5993C42.3542 80.6612 42.9987 81.626 43.8114 82.4387C44.624 83.2513 45.5889 83.8958 46.6507 84.3353C47.7126 84.7748 48.8507 85.0007 50 85ZM50 58.75C51.7306 58.75 53.4223 58.2368 54.8612 57.2754C56.3002 56.3139 57.4217 54.9473 58.0839 53.3485C58.7462 51.7496 58.9195 49.9903 58.5819 48.293C58.2443 46.5956 57.4109 45.0365 56.1872 43.8128C54.9635 42.5891 53.4044 41.7558 51.707 41.4181C50.0097 41.0805 48.2504 41.2538 46.6515 41.9161C45.0527 42.5783 43.6861 43.6998 42.7246 45.1388C41.7632 46.5777 41.25 48.2694 41.25 50C41.2493 51.1493 41.4752 52.2874 41.9147 53.3493C42.3542 54.4112 42.9987 55.376 43.8114 56.1887C44.624 57.0013 45.5889 57.6458 46.6507 58.0853C47.7126 58.5248 48.8507 58.7507 50 58.75ZM50 32.5C51.7306 32.5 53.4223 31.9868 54.8612 31.0254C56.3002 30.0639 57.4217 28.6973 58.0839 27.0985C58.7462 25.4996 58.9195 23.7403 58.5819 22.043C58.2443 20.3456 57.4109 18.7865 56.1872 17.5628C54.9635 16.3391 53.4044 15.5058 51.707 15.1681C50.0097 14.8305 48.2504 15.0038 46.6515 15.6661C45.0527 16.3283 43.6861 17.4498 42.7246 18.8888C41.7632 20.3277 41.25 22.0194 41.25 23.75C41.2493 24.8993 41.4752 26.0374 41.9147 27.0993C42.3542 28.1612 42.9987 29.126 43.8114 29.9387C44.624 30.7513 45.5889 31.3958 46.6507 31.8353C47.7126 32.2748 48.8507 32.5007 50 32.5ZM23.75 85C25.4806 85 27.1723 84.4868 28.6112 83.5254C30.0502 82.5639 31.1717 81.1973 31.8339 79.5985C32.4962 77.9996 32.6695 76.2403 32.3319 74.543C31.9943 72.8456 31.1609 71.2865 29.9372 70.0628C28.7135 68.8391 27.1544 68.0058 25.457 67.6681C23.7597 67.3305 22.0004 67.5038 20.4015 68.1661C18.8027 68.8283 17.4361 69.9498 16.4746 71.3888C15.5132 72.8277 15 74.5194 15 76.25C14.9993 77.3993 15.2252 78.5374 15.6647 79.5993C16.1042 80.6612 16.7487 81.626 17.5614 82.4387C18.374 83.2513 19.3388 83.8958 20.4007 84.3353C21.4626 84.7748 22.6007 85.0007 23.75 85ZM23.75 58.75C25.4806 58.75 27.1723 58.2368 28.6112 57.2754C30.0502 56.3139 31.1717 54.9473 31.8339 53.3485C32.4962 51.7496 32.6695 49.9903 32.3319 48.293C31.9943 46.5956 31.1609 45.0365 29.9372 43.8128C28.7135 42.5891 27.1544 41.7558 25.457 41.4181C23.7597 41.0805 22.0004 41.2538 20.4015 41.9161C18.8027 42.5783 17.4361 43.6998 16.4746 45.1388C15.5132 46.5777 15 48.2694 15 50C14.9993 51.1493 15.2252 52.2874 15.6647 53.3493C16.1042 54.4112 16.7487 55.376 17.5614 56.1887C18.374 57.0013 19.3388 57.6458 20.4007 58.0853C21.4626 58.5248 22.6007 58.7507 23.75 58.75ZM23.75 32.5C25.4806 32.5 27.1723 31.9868 28.6112 31.0254C30.0502 30.0639 31.1717 28.6973 31.8339 27.0985C32.4962 25.4996 32.6695 23.7403 32.3319 22.043C31.9943 20.3456 31.1609 18.7865 29.9372 17.5628C28.7135 16.3391 27.1544 15.5058 25.457 15.1681C23.7597 14.8305 22.0004 15.0038 20.4015 15.6661C18.8027 16.3283 17.4361 17.4498 16.4746 18.8888C15.5132 20.3277 15 22.0194 15 23.75C14.9993 24.8993 15.2252 26.0374 15.6647 27.0993C16.1042 28.1612 16.7487 29.126 17.5614 29.9387C18.374 30.7513 19.3388 31.3958 20.4007 31.8353C21.4626 32.2748 22.6007 32.5007 23.75 32.5Z" fill="#CCCCCC"/>
</svg>
