<svg width="24" height="24" viewBox="0 0 24 24" fill="none" xmlns="http://www.w3.org/2000/svg">
<path fill-rule="evenodd" clip-rule="evenodd" d="M10.4676 5.41161C10.3296 5.41161 10.2176 5.52353 10.2176 5.66159V8.8039H13.7819V5.66159C13.7819 5.52353 13.67 5.41161 13.532 5.41161H10.4676ZM8.71778 5.66159C8.71778 4.69518 9.50121 3.91174 10.4676 3.91174H13.532C14.4984 3.91174 15.2818 4.69517 15.2818 5.66159V8.82167C15.3636 8.80996 15.4471 8.8039 15.5321 8.8039H18.5965C19.5629 8.8039 20.3463 9.58733 20.3463 10.5537V14.4458V19.338C20.3463 19.7521 20.0106 20.0879 19.5964 20.0879H14.5415C14.5383 20.0879 14.5351 20.088 14.5319 20.088H9.46771H4.40355C3.98937 20.088 3.65362 19.7522 3.65362 19.338V15.4458C3.65362 14.4794 4.43705 13.6959 5.40346 13.6959H8.4678C8.55267 13.6959 8.62891 13.6959 8.71778 13.6959V9.55389V5.66159ZM18.8465 13.6959H15.5321C15.5234 13.6959 15.5147 13.6959 15.506 13.6961H15.2822V10.5537C15.2822 10.4157 15.3941 10.3038 15.5321 10.3038H18.5965C18.7345 10.3038 18.8465 10.4157 18.8465 10.5537V13.6959ZM15.5222 15.1959C15.3888 15.2011 15.2822 15.311 15.2822 15.4457V18.588H18.8465V15.1959H15.5222ZM13.5419 15.196H10.4577C10.3243 15.2012 10.2176 15.311 10.2176 15.4458V18.5881H13.7819V15.4458C13.7819 15.311 13.6753 15.2012 13.5419 15.196ZM13.7819 13.6961H13.5581L13.532 13.6959H10.4676L10.4415 13.6961H10.2176V10.3038H13.532C13.67 10.3038 13.7819 10.4157 13.7819 10.5538V13.6961ZM5.15349 15.4458C5.15349 15.3077 5.2654 15.1958 5.40346 15.1958H8.4678C8.60586 15.1958 8.71778 15.3077 8.71778 15.4458V18.5881H5.15349V15.4458Z" fill="#B3B3B3"/>
</svg>
