<svg width="24" height="24" viewBox="0 0 24 24" fill="none" xmlns="http://www.w3.org/2000/svg">
<path fill-rule="evenodd" clip-rule="evenodd" d="M13.0523 4.53811C11.7097 4.39396 10.3062 4.60189 9.16217 5.07038C7.7916 5.63164 6.61825 6.58672 5.79049 7.81484C4.96273 9.04296 4.51773 10.489 4.51178 11.97C4.50583 13.451 4.93918 14.9005 5.75704 16.1353C6.57491 17.37 7.74055 18.3345 9.10655 18.9068C10.2615 19.3906 11.6697 19.605 13.0188 19.4633C14.3683 19.3215 15.6015 18.8307 16.4718 17.9674C16.7658 17.6757 17.2407 17.6776 17.5324 17.9717C17.8241 18.2657 17.8222 18.7406 17.5282 19.0323C16.3555 20.1955 14.7703 20.7875 13.1755 20.9551C11.5802 21.1227 9.91835 20.8732 8.52696 20.2903C6.88732 19.6034 5.48819 18.4457 4.5065 16.9636C3.52481 15.4815 3.00465 13.7416 3.01179 11.964C3.01894 10.1863 3.55307 8.4506 4.54665 6.97648C5.54022 5.50235 6.94861 4.35595 8.59372 3.68226C9.97194 3.11786 11.6262 2.87637 13.2125 3.04668C14.7977 3.21688 16.3764 3.80653 17.5324 4.97189C17.8242 5.26596 17.8222 5.74083 17.5282 6.03254C17.2341 6.32425 16.7592 6.32234 16.4675 6.02828C15.6172 5.17104 14.3959 4.68236 13.0523 4.53811ZM16.997 11.98C16.997 12.6704 17.5567 13.2301 18.2471 13.2301C18.9375 13.2301 19.4972 12.6704 19.4972 11.98C19.4972 11.2896 18.9375 10.73 18.2471 10.73C17.5567 10.73 16.997 11.2896 16.997 11.98ZM15.5951 11.25H9C8.58578 11.25 8.25 11.5858 8.25 12C8.25 12.4142 8.58578 12.75 9 12.75H15.6064C15.9394 13.894 16.9956 14.7299 18.2471 14.7299C19.7658 14.7299 20.997 13.4988 20.997 11.98C20.997 10.4613 19.7658 9.23012 18.2471 9.23012C16.9811 9.23012 15.9149 10.0856 15.5951 11.25Z" fill="#B3B3B3"/>
</svg>
