<svg width="24" height="24" viewBox="0 0 24 24" fill="none" xmlns="http://www.w3.org/2000/svg">
<path fill-rule="evenodd" clip-rule="evenodd" d="M8.40306 7.86295C8.99713 5.83758 10.3133 4.74989 12.0006 4.74989C13.773 4.74989 15.5042 5.9274 16.0995 7.87179C16.2391 8.32773 16.6604 8.61387 17.1078 8.61387C18.6313 8.61387 20.2505 10.189 20.2505 12.3069C20.2505 14.4247 18.6313 15.9999 17.1078 15.9999H13.7506C13.3364 15.9999 13.0006 16.3357 13.0006 16.7499C13.0006 17.1641 13.3364 17.4999 13.7506 17.4999H17.1078C19.608 17.4999 21.7505 15.0967 21.7505 12.3069C21.7505 9.63833 19.7902 7.32346 17.4315 7.12732C16.5585 4.72833 14.3313 3.24989 12.0006 3.24989C9.59345 3.24989 7.84787 4.80458 7.06158 7.13042C6.17461 7.21853 5.34489 7.65057 4.67635 8.23505C3.9212 8.89525 3.3153 9.79655 3.01359 10.7799C2.89209 11.1759 3.11461 11.5954 3.51061 11.7169C3.9066 11.8384 4.32611 11.6159 4.44761 11.2199C4.66315 10.5174 5.10733 9.85068 5.66363 9.36433C6.22376 8.87463 6.8417 8.61387 7.39351 8.61387C7.83883 8.61387 8.26649 8.32858 8.40306 7.86295ZM2.99998 13.25C2.58577 13.25 2.24998 13.5858 2.24998 14C2.24998 14.4142 2.58577 14.75 2.99998 14.75L11 14.75C11.4142 14.75 11.75 14.4142 11.75 14C11.75 13.5858 11.4142 13.25 11 13.25L2.99998 13.25ZM2.99998 16.2498C2.58577 16.2498 2.24998 16.5856 2.24998 16.9998C2.24998 17.4141 2.58577 17.7498 2.99998 17.7498H11C11.4142 17.7498 11.75 17.4141 11.75 16.9998C11.75 16.5856 11.4142 16.2498 11 16.2498L2.99998 16.2498ZM2.99998 19.25C2.58577 19.25 2.24998 19.5858 2.24998 20C2.24998 20.4142 2.58577 20.75 2.99998 20.75H11C11.4142 20.75 11.75 20.4142 11.75 20C11.75 19.5858 11.4142 19.25 11 19.25L2.99998 19.25Z" fill="#B3B3B3"/>
</svg>
