<svg width="24" height="24" viewBox="0 0 24 24" fill="none" xmlns="http://www.w3.org/2000/svg">
<path fill-rule="evenodd" clip-rule="evenodd" d="M19.2888 4.3551C19.5322 4.14598 19.6156 3.80522 19.4962 3.50736C19.3769 3.2095 19.0813 3.02055 18.7609 3.03728C18.3084 3.06092 17.4988 3.24663 16.6937 3.56276C15.8934 3.87699 14.9575 4.37343 14.3588 5.10038C13.4527 6.20054 12.9428 7.18334 12.7579 8.09812C12.569 9.03263 12.7325 9.83151 13.0553 10.5231C13.3661 11.1888 13.8288 11.7598 14.2164 12.2377C14.6293 12.7467 14.9501 13.1433 15.1402 13.5516C15.4693 14.2585 15.6454 14.6549 15.7553 14.9867C15.8577 15.2957 15.9063 15.5606 15.9501 16.0044C15.978 16.2879 16.1642 16.5311 16.4305 16.6321C16.6969 16.7331 16.9975 16.6745 17.2064 16.4808C17.361 16.3375 17.8349 15.8836 18.0168 15.6905C18.842 14.8146 19.3695 13.7143 19.3404 12.3257C19.3255 11.6132 19.033 10.7703 18.7694 10.0101L18.7524 9.96134L18.7468 9.94514C18.4611 9.12106 18.1763 8.29991 18.0539 7.4886C17.9798 6.99747 18.163 6.30605 18.4904 5.61553C18.6463 5.28654 18.8204 4.98842 18.977 4.75557C19.0552 4.63928 19.1261 4.54352 19.1851 4.47093C19.2145 4.43476 19.2391 4.40656 19.2585 4.38571C19.2681 4.37541 19.2757 4.3677 19.2812 4.36227C19.2864 4.35725 19.2889 4.35503 19.2889 4.35503L19.2888 4.3551ZM15.5167 6.05395C15.8514 5.64749 16.448 5.28574 17.1181 5.00886C16.7619 5.76961 16.4304 6.78206 16.5707 7.71234C16.714 8.66241 17.038 9.59606 17.3108 10.3825L17.3352 10.4528C17.6326 11.3104 17.8315 11.9193 17.8407 12.3571C17.8579 13.177 17.6019 13.8374 17.1436 14.4107C17.0019 14.0083 16.7961 13.5545 16.5 12.9184C16.2289 12.3362 15.8016 11.8102 15.4346 11.3584L15.4346 11.3584L15.3813 11.2927C14.9778 10.7953 14.6352 10.3613 14.4146 9.88866C14.206 9.44191 14.1122 8.96916 14.2282 8.39526C14.3481 7.80162 14.7052 7.03923 15.5167 6.05395ZM9.10258 7.33326C9.18996 7.02452 9.07126 6.6944 8.80729 6.51199C8.54331 6.32958 8.19254 6.33531 7.93466 6.52623C7.53225 6.82415 6.88857 7.49945 6.3275 8.2996C5.7694 9.09551 5.20578 10.1368 5.09749 11.1761C4.93053 12.7784 5.06477 14.0123 5.45568 14.9751C5.85417 15.9565 6.49473 16.5953 7.21949 17.0386C7.91987 17.467 8.70532 17.7146 9.37475 17.9247C10.0825 18.1468 10.6493 18.325 11.0992 18.6008C11.8545 19.0638 12.2758 19.3321 12.594 19.582C12.8934 19.8171 13.1112 20.044 13.4343 20.4408C13.6142 20.6617 13.9037 20.7616 14.1815 20.6987C14.4593 20.6358 14.6776 20.4209 14.7447 20.1441C14.8012 19.9114 14.9648 19.1861 15.0154 18.8923C15.2437 17.5661 15.056 16.2195 14.1734 14.9462C13.7211 14.2935 12.9253 13.6862 12.1914 13.1262L12.1527 13.0967L12.1332 13.0818C11.3473 12.482 10.555 11.8774 9.92286 11.1778C9.52289 10.7352 9.25859 9.93894 9.13441 9.07288C9.07488 8.65767 9.05237 8.26045 9.05456 7.93634C9.05689 7.59173 9.08688 7.38871 9.10258 7.33326ZM6.58941 11.3315C6.65801 10.6731 7.0472 9.8859 7.55565 9.16079C7.57741 9.12976 7.59922 9.09906 7.62107 9.06872C7.62966 9.14053 7.63915 9.21294 7.6496 9.28579C7.78542 10.233 8.10223 11.4003 8.80994 12.1835C9.53621 12.9872 10.4233 13.664 11.1778 14.2396L11.2426 14.2891C12.0585 14.9118 12.6455 15.3749 12.9406 15.8006C13.5268 16.6465 13.6875 17.5184 13.5672 18.4394L13.5205 18.4024C13.1219 18.0893 12.624 17.776 11.8832 17.3219C11.2715 16.947 10.5471 16.7201 9.9124 16.5212L9.91238 16.5212L9.82396 16.4935C9.13051 16.2759 8.52085 16.0763 8.00221 15.759C7.50794 15.4567 7.10556 15.0513 6.84548 14.4108C6.57783 13.7516 6.43788 12.7858 6.58941 11.3315Z" fill="#B3B3B3"/>
</svg>
