<svg width="20" height="20" viewBox="0 0 20 20" fill="none" xmlns="http://www.w3.org/2000/svg">
<path fill-rule="evenodd" clip-rule="evenodd" d="M14.9431 5.54704C15.1243 5.12421 15.5401 4.85005 16.0001 4.85005H18.0001C18.6353 4.85005 19.1501 5.36492 19.1501 6.00005C19.1501 6.63518 18.6353 7.15005 18.0001 7.15005H16.8903C16.8103 7.15005 16.738 7.19773 16.7065 7.27127L14.5767 12.2409C14.0803 13.3991 12.9415 14.15 11.6814 14.15H6.29332C5.05377 14.15 3.92945 13.423 3.42078 12.2927L1.70143 8.47194C1.44079 7.89276 1.69903 7.21195 2.27821 6.95131C2.8574 6.69068 3.53821 6.94891 3.79885 7.5281L5.51819 11.3488C5.65545 11.6538 5.95884 11.85 6.29332 11.85H11.6814C12.0214 11.85 12.3287 11.6474 12.4626 11.3348L14.9431 5.54704Z" fill="#D2D2D2"/>
<path d="M7.00015 17.5C7.00015 18.3284 6.32858 19 5.50015 19C4.67172 19 4.00015 18.3284 4.00015 17.5C4.00015 16.6716 4.67172 16 5.50015 16C6.32858 16 7.00015 16.6716 7.00015 17.5Z" fill="#D2D2D2"/>
<path d="M14.0001 17.5C14.0001 18.3285 13.3285 19 12.5001 19C11.6717 19 11.0001 18.3285 11.0001 17.5C11.0001 16.6716 11.6717 16 12.5001 16C13.3285 16 14.0001 16.6716 14.0001 17.5Z" fill="#D2D2D2"/>
<path d="M5.9646 6.94978C5.57407 6.55926 5.57407 5.92609 5.9646 5.53557L8.29302 3.20714C8.68355 2.81661 9.31671 2.81661 9.70724 3.20714L12.0357 5.53557C12.4262 5.92609 12.4262 6.55926 12.0357 6.94978L9.70724 9.27821C9.31671 9.66873 8.68355 9.66873 8.29302 9.27821L5.9646 6.94978Z" fill="#D2D2D2"/>
</svg>
