<svg width="24" height="24" viewBox="0 0 24 24" fill="none" xmlns="http://www.w3.org/2000/svg">
<path fill-rule="evenodd" clip-rule="evenodd" d="M3.75 12C3.75 7.69647 7.04513 4.16255 11.25 3.78363V5.99991C10.9464 6.22796 10.75 6.59105 10.75 7C10.75 7.69036 11.3096 8.25 12 8.25C12.6904 8.25 13.25 7.69036 13.25 7C13.25 6.59105 13.0536 6.22796 12.75 5.99991V3.78363C16.7079 4.14029 19.8597 7.29215 20.2164 11.25H10.0001C9.77204 10.9464 9.40895 10.75 9 10.75C8.30964 10.75 7.75 11.3096 7.75 12C7.75 12.6904 8.30964 13.25 9 13.25C9.40895 13.25 9.77204 13.0536 10.0001 12.75H20.2164C19.8374 16.9549 16.3035 20.25 12 20.25C9.67958 20.25 7.58291 19.292 6.08391 17.75H10.9999C11.228 18.0536 11.591 18.25 12 18.25C12.6904 18.25 13.25 17.6904 13.25 17C13.25 16.3096 12.6904 15.75 12 15.75C11.591 15.75 11.228 15.9464 10.9999 16.25H4.92749C4.17998 15.0087 3.75 13.5546 3.75 12ZM2.25 12C2.25 6.61522 6.61522 2.25 12 2.25C17.3848 2.25 21.75 6.61522 21.75 12C21.75 17.3848 17.3848 21.75 12 21.75C6.61522 21.75 2.25 17.3848 2.25 12Z" fill="#B3B3B3"/>
</svg>
