<svg width="24" height="24" viewBox="0 0 24 24" fill="none" xmlns="http://www.w3.org/2000/svg">
<path fill-rule="evenodd" clip-rule="evenodd" d="M3.75 5.00024C3.75 4.86217 3.86193 4.75024 4 4.75024H20C20.1381 4.75024 20.25 4.86217 20.25 5.00024V7.24976H3.75V5.00024ZM2.25 7.99976V5.00024C2.25 4.03375 3.0335 3.25024 4 3.25024H20C20.9665 3.25024 21.75 4.03375 21.75 5.00024V7.99976V19.0002C21.75 19.9667 20.9665 20.7502 20 20.7502H4C3.0335 20.7502 2.25 19.9667 2.25 19.0002V7.99976ZM20.25 8.74976V19.0002C20.25 19.1383 20.1381 19.2502 20 19.2502H4C3.86193 19.2502 3.75 19.1383 3.75 19.0002V8.74976H20.25ZM7.46979 16.53C7.76269 16.8229 8.23756 16.8229 8.53045 16.53C8.82335 16.2371 8.82335 15.7622 8.53045 15.4693L7.06078 13.9996L8.53045 12.53C8.82335 12.2371 8.82335 11.7622 8.53045 11.4693C8.23756 11.1764 7.76269 11.1764 7.46979 11.4693L5.46979 13.4693C5.32914 13.61 5.25012 13.8007 5.25012 13.9996C5.25012 14.1985 5.32914 14.3893 5.46979 14.53L7.46979 16.53ZM16.5303 11.4697C16.2374 11.1768 15.7626 11.1768 15.4697 11.4697C15.1768 11.7626 15.1768 12.2374 15.4697 12.5303L16.9393 14L15.4697 15.4697C15.1768 15.7626 15.1768 16.2374 15.4697 16.5303C15.7626 16.8232 16.2374 16.8232 16.5303 16.5303L18.5303 14.5303C18.671 14.3897 18.75 14.1989 18.75 14C18.75 13.8011 18.671 13.6103 18.5303 13.4697L16.5303 11.4697ZM13.4649 11.4228C13.8296 11.6192 13.966 12.074 13.7696 12.4387L11.6599 16.3557C11.4635 16.7203 11.0087 16.8568 10.644 16.6603C10.2793 16.4639 10.1429 16.0091 10.3393 15.6444L12.449 11.7274C12.6454 11.3627 13.1003 11.2263 13.4649 11.4228Z" fill="#B3B3B3"/>
</svg>
