<svg width="20" height="20" viewBox="0 0 20 20" fill="none" xmlns="http://www.w3.org/2000/svg">
<path fill-rule="evenodd" clip-rule="evenodd" d="M1.14645 3.85355L3.85355 1.14645C3.94732 1.05268 4.0745 1 4.20711 1H15.7929C15.9255 1 16.0527 1.05268 16.1464 1.14645L18.8536 3.85355C18.9473 3.94732 19 4.0745 19 4.20711V15.7929C19 15.9255 18.9473 16.0527 18.8536 16.1464L16.1464 18.8536C16.0527 18.9473 15.9255 19 15.7929 19H4.20711C4.0745 19 3.94732 18.9473 3.85355 18.8536L1.14645 16.1464C1.05268 16.0527 1 15.9255 1 15.7929V4.20711C1 4.0745 1.05268 3.94732 1.14645 3.85355ZM3.75546 12.551C3.42217 12.7491 3 12.5089 3 12.1212V10.5204C3 10.3441 3.09292 10.1807 3.24454 10.0906L8.14074 7.18051C8.32278 7.07231 8.55324 7.09053 8.71602 7.22598L12.0778 10.0233C12.2326 10.1521 12.4496 10.1755 12.6283 10.0826L16.2693 8.189C16.6022 8.01589 17 8.25742 17 8.6326V10.2695C17 10.456 16.8962 10.627 16.7307 10.7131L12.6283 12.8466C12.4496 12.9395 12.2326 12.9162 12.0778 12.7874L8.71602 9.99002C8.55324 9.85457 8.32278 9.83636 8.14074 9.94455L3.75546 12.551Z" fill="#D2D2D2"/>
</svg>
