<svg width="24" height="24" viewBox="0 0 24 24" fill="none" xmlns="http://www.w3.org/2000/svg">
<path fill-rule="evenodd" clip-rule="evenodd" d="M20.75 6C20.75 4.48122 19.5188 3.25 18 3.25H6C4.48122 3.25 3.25 4.48122 3.25 6V12C3.25 12.4142 3.58579 12.75 4 12.75C4.41421 12.75 4.75 12.4142 4.75 12V6C4.75 5.30964 5.30964 4.75 6 4.75H18C18.6904 4.75 19.25 5.30964 19.25 6V18C19.25 18.6904 18.6904 19.25 18 19.25H12C11.5858 19.25 11.25 19.5858 11.25 20C11.25 20.4142 11.5858 20.75 12 20.75H18C19.5188 20.75 20.75 19.5188 20.75 18V6ZM7.67082 10.6646C7.56937 10.4617 7.38152 10.3156 7.15988 10.2672C6.93824 10.2189 6.70662 10.2734 6.52986 10.4157C6.09296 10.7672 5.78316 11.2579 5.55851 11.7521C5.33087 12.2529 5.16819 12.8072 5.05137 13.3391C4.99868 13.579 4.95441 13.8186 4.91745 14.052C4.91342 14.0391 4.91007 14.0279 4.90736 14.0187C4.90354 14.0057 4.90104 13.9965 4.89977 13.9918L4.89886 13.9884C4.8331 13.7273 4.63231 13.5213 4.37272 13.449C4.11207 13.3765 3.83255 13.4499 3.64124 13.6412C2.71389 14.5686 2.25 15.7855 2.25 17C2.25 18.2145 2.7139 19.4314 3.64124 20.3588C5.49623 22.2138 8.50377 22.2138 10.3588 20.3588C11.2861 19.4314 11.75 18.2145 11.75 17C11.75 15.7855 11.2861 14.5686 10.3588 13.6412C10.2049 13.4874 10.0357 13.3233 9.85635 13.1495L9.8563 13.1495C9.54195 12.8448 9.1967 12.5101 8.84942 12.1481C8.3018 11.5771 7.86461 11.0522 7.67082 10.6646ZM3.75 17C3.75 16.5397 3.84686 16.0802 4.04064 15.654C4.29365 16.0247 4.65691 16.417 5.16459 16.6708C5.39708 16.7871 5.67319 16.7746 5.8943 16.638C6.11541 16.5013 6.25 16.2599 6.25 16C6.25 15.5447 6.31027 14.5996 6.51644 13.6609C6.61925 13.1928 6.75389 12.7471 6.92403 12.3729C6.93759 12.3431 6.95124 12.314 6.96498 12.2856C7.21615 12.5977 7.49639 12.9044 7.76688 13.1864C8.12777 13.5626 8.52151 13.9447 8.85093 14.2644L8.85101 14.2644C9.02186 14.4302 9.17541 14.5792 9.2981 14.7019C9.93285 15.3367 10.25 16.1671 10.25 17C10.25 17.8329 9.93284 18.6634 9.2981 19.2981C8.02889 20.5673 5.97111 20.5673 4.7019 19.2981C4.06716 18.6634 3.75 17.8329 3.75 17Z" fill="#B3B3B3"/>
</svg>
