<svg width="20" height="20" viewBox="0 0 20 20" fill="none" xmlns="http://www.w3.org/2000/svg">
    <path fill-rule="evenodd" clip-rule="evenodd" d="M4.35057 4.03169L5.72249 8.24303C5.85659 8.65468 6.24036 8.93328 6.67331 8.93328H13.2928C13.726 8.93328 14.11 8.65431 14.2439 8.24228L15.6111 4.03424L16.9836 8.25863L17.9417 11.0956L9.98306 16.8797L2.05455 11.1176L4.35057 4.03169ZM14.9875 2.11492C14.9862 2.11087 14.985 2.10681 14.9837 2.10274L14.9875 2.11492ZM3.68307 0.750631C3.88552 0.635217 4.11596 0.573242 4.35239 0.573242C4.68968 0.573242 5.01477 0.699368 5.26381 0.926839C5.27075 0.933183 5.27761 0.939625 5.28437 0.946163C5.44548 1.10188 5.56502 1.29538 5.6322 1.50899L7.39926 6.93328H12.5662L14.3358 1.48694C14.3414 1.46954 14.3475 1.4523 14.3541 1.43523C14.4298 1.23952 14.5503 1.06427 14.7059 0.923525C14.9545 0.698146 15.2781 0.573242 15.6137 0.573242C15.951 0.573242 16.2761 0.699367 16.5251 0.926839C16.5321 0.933183 16.5389 0.939625 16.5457 0.946163C16.7069 1.102 16.8265 1.29568 16.8937 1.50948L18.8839 7.63517L19.9199 10.7024C19.9244 10.7158 19.9287 10.7292 19.9326 10.7428C20.034 11.0911 20.0205 11.4628 19.8939 11.8028C19.7711 12.1325 19.5485 12.4152 19.2574 12.6118L10.571 18.9248C10.2204 19.1796 9.74569 19.1796 9.39515 18.9248L0.691738 12.5995L0.687177 12.5962C0.400526 12.3854 0.1879 12.0893 0.0797166 11.7503C-0.0280621 11.4126 -0.0266766 11.0496 0.083619 10.7127L3.07444 1.48694C3.0801 1.46954 3.08623 1.4523 3.09283 1.43523C3.13343 1.33025 3.18692 1.23116 3.25181 1.14012C3.30789 1.06144 3.37248 0.988775 3.44463 0.923525C3.44427 0.923851 3.6746 0.755464 3.68307 0.750631Z" fill="#CCCCCC"/>
</svg>
