<svg width="20" height="20" viewBox="0 0 20 20" fill="none" xmlns="http://www.w3.org/2000/svg">
<path d="M5.23541 16.7526L5.73395 16.2625H13.9774L14.4729 16.7603V17.3596L13.9774 17.8462H5.73395L5.23541 17.3596V16.7526Z" fill="#CCCCCC"/>
<path fill-rule="evenodd" clip-rule="evenodd" d="M3.54965 2.2784L2.19799 3.72222C2.12374 3.80153 2.08203 3.90909 2.08203 4.02125V13.3848C2.08203 13.4969 2.12374 13.6045 2.19799 13.6838L3.54965 15.1276C3.6239 15.2069 3.7246 15.2515 3.82959 15.2515L16.1702 15.2515C16.2752 15.2515 16.3759 15.2069 16.4502 15.1276L17.8019 13.6838L17.9178 13.3848V4.02125C17.9178 3.90909 17.8761 3.80153 17.8019 3.72222L16.4502 2.2784C16.3759 2.19909 16.2752 2.15454 16.1702 2.15454H3.82959C3.7246 2.15454 3.6239 2.1991 3.54965 2.2784ZM16.3342 12.8593L16.3342 4.54674L15.6783 3.84608H4.32155L3.66561 4.54674L3.66561 12.8593L4.32155 13.5599L15.6783 13.5599L16.3342 12.8593Z" fill="#CCCCCC"/>
<path d="M4.84973 11.0519H7.22624L7.61676 11.4424V12.3819H7.61091L7.21869 12.7742H4.85143L4.45921 12.3819V11.4424L4.84973 11.0519Z" fill="#CCCCCC"/>
<path d="M8.79212 11.0519H11.1686L11.5592 11.4424V12.3819H11.5533L11.1611 12.7742H8.79382L8.4016 12.3819V11.4424L8.79212 11.0519Z" fill="#CCCCCC"/>
<path d="M8.79212 8.52655H11.1686L11.5592 8.91707V9.85663H11.5533L11.1611 10.2489H8.79382L8.4016 9.85663V8.91707L8.79212 8.52655Z" fill="#CCCCCC"/>
<path d="M12.7345 8.52655H15.111L15.5015 8.91707V9.85663H15.4957L15.1035 10.2489H12.7362L12.344 9.85663V8.91707L12.7345 8.52655Z" fill="#CCCCCC"/>
<path d="M12.7345 6.00124H15.111L15.5015 6.39175V7.33132H15.4957L15.1035 7.72354H12.7362L12.344 7.33132V6.39175L12.7345 6.00124Z" fill="#CCCCCC"/>
<path d="M12.7425 11.0519H15.119L15.5095 11.4424V12.3819H15.5037L15.1114 12.7742H12.7442L12.352 12.3819V11.4424L12.7425 11.0519Z" fill="#CCCCCC"/>
</svg>
