<svg width="24" height="24" viewBox="0 0 24 24" fill="none" xmlns="http://www.w3.org/2000/svg">
<path fill-rule="evenodd" clip-rule="evenodd" d="M14.6966 11.1013C16.4231 11.0702 17.49 9.21211 16.6596 7.7043C16.5299 7.46886 16.5283 7.18221 16.6553 6.9456C17.4468 5.47063 16.4474 3.66601 14.7729 3.56256L14.6041 3.55212C14.327 3.535 14.0749 3.3863 13.9258 3.15212L13.8795 3.07931C12.9664 1.64445 10.8741 1.66302 9.97059 3.09031C9.82789 3.31575 9.58122 3.45527 9.31714 3.4615L9.27211 3.46256C7.55631 3.50303 6.50598 5.36143 7.35633 6.85224C7.48483 7.07753 7.48952 7.36172 7.365 7.59675C6.5783 9.08173 7.58414 10.9228 9.29062 11.0026L9.38513 11.007C9.66208 11.02 9.91632 11.164 10.0697 11.395L10.1657 11.5393C10.4383 11.9496 10.8084 12.236 11.2177 12.3999V13.7361H6.09453C5.01758 13.7361 4.14453 14.6092 4.14453 15.6861V17.6487H3.09473C2.68051 17.6487 2.34473 17.9845 2.34473 18.3987V21.3987C2.34473 21.8129 2.68051 22.1487 3.09473 22.1487H6.69473C7.10894 22.1487 7.44473 21.8129 7.44473 21.3987V18.3987C7.44473 17.9845 7.10894 17.6487 6.69473 17.6487H5.64453V15.6861C5.64453 15.4376 5.846 15.2361 6.09453 15.2361H11.2177V17.6487H10.2596C9.84543 17.6487 9.50964 17.9845 9.50964 18.3987V21.3987C9.50964 21.8129 9.84543 22.1487 10.2596 22.1487H13.8596C14.2739 22.1487 14.6096 21.8129 14.6096 21.3987V18.3987C14.6096 17.9845 14.2739 17.6487 13.8596 17.6487H12.7177V15.2361H18.0243C18.2728 15.2361 18.4743 15.4376 18.4743 15.6861V17.6487H17.4248C17.0106 17.6487 16.6748 17.9845 16.6748 18.3987V21.3987C16.6748 21.8129 17.0106 22.1487 17.4248 22.1487H21.0248C21.439 22.1487 21.7748 21.8129 21.7748 21.3987V18.3987C21.7748 17.9845 21.439 17.6487 21.0248 17.6487H19.9743V15.6861C19.9743 14.6092 19.1012 13.7361 18.0243 13.7361H12.7177V12.4761C13.2402 12.3275 13.7179 11.9931 14.039 11.4757C14.1808 11.2472 14.4294 11.1061 14.6966 11.1013ZM15.3456 8.42791C15.6338 8.95116 15.2615 9.59086 14.6696 9.60152C13.8916 9.61554 13.1741 10.0249 12.7645 10.6847C12.4552 11.183 11.7358 11.1921 11.4151 10.7093L11.3191 10.5649C10.9014 9.93613 10.2092 9.5439 9.45517 9.50866L9.36066 9.50424C8.78066 9.47713 8.40564 8.83664 8.69049 8.29896C9.05235 7.6159 9.04553 6.78623 8.65927 6.10904C8.37156 5.60463 8.72694 4.97584 9.30748 4.96215L9.35251 4.96108C10.1207 4.94297 10.8285 4.53958 11.238 3.89259C11.5596 3.38449 12.2974 3.38708 12.614 3.88464L12.6604 3.95745C13.0672 4.59666 13.7553 5.00254 14.5116 5.04927L14.6804 5.0597C15.2596 5.09548 15.6098 5.7217 15.3336 6.23633C14.9661 6.92124 14.9708 7.74727 15.3456 8.42791ZM12 6.83969C11.7595 6.83969 11.5646 7.03462 11.5646 7.27509C11.5646 7.51555 11.7595 7.71049 12 7.71049C12.2404 7.71049 12.4354 7.51555 12.4354 7.27509C12.4354 7.03462 12.2404 6.83969 12 6.83969ZM10.0646 7.27509C10.0646 6.2062 10.9311 5.33969 12 5.33969C13.0689 5.33969 13.9354 6.2062 13.9354 7.27509C13.9354 8.34398 13.0689 9.21049 12 9.21049C10.9311 9.21049 10.0646 8.34398 10.0646 7.27509ZM18.1748 19.1487V20.6487H20.2748V19.1487H18.1748ZM3.84473 19.1487V20.6487H5.94473V19.1487H3.84473ZM11.0096 19.1487V20.6487H13.1096V19.1487H11.0096Z" fill="#B3B3B3"/>
</svg>
