<svg width="24" height="24" viewBox="0 0 24 24" fill="none" xmlns="http://www.w3.org/2000/svg">
<path fill-rule="evenodd" clip-rule="evenodd" d="M12.0002 4.0105C10.8109 4.0105 9.69051 4.29629 8.7019 4.80229C8.33318 4.99102 7.88128 4.8451 7.69255 4.47638C7.50383 4.10766 7.64975 3.65576 8.01847 3.46703C9.2137 2.85527 10.5678 2.5105 12.0002 2.5105C13.4327 2.5105 14.7868 2.85527 15.982 3.46703C16.3507 3.65576 16.4967 4.10766 16.3079 4.47638C16.1192 4.8451 15.6673 4.99102 15.2986 4.80229C14.31 4.29629 13.1896 4.0105 12.0002 4.0105ZM4.06279 10.0041C4.47619 10.03 4.79032 10.3861 4.76441 10.7995C4.75485 10.9519 4.75 11.1057 4.75 11.2607C4.75 13.9396 6.20241 16.28 8.36632 17.5361C8.42847 17.5721 8.49119 17.6073 8.55448 17.6416C8.91876 17.8388 9.05422 18.2939 8.85705 18.6582C8.65987 19.0224 8.20473 19.1579 7.84046 18.9607C7.76404 18.9194 7.68831 18.8769 7.61329 18.8334C5.00602 17.3199 3.25 14.4958 3.25 11.2607C3.25 11.0744 3.25584 10.8893 3.26734 10.7057C3.29325 10.2923 3.64939 9.97818 4.06279 10.0041ZM19.9377 10.0041C20.3511 9.97818 20.7072 10.2923 20.7331 10.7057C20.7447 10.8893 20.7505 11.0744 20.7505 11.2607C20.7505 14.4958 18.9945 17.3199 16.3872 18.8334C16.3122 18.8769 16.2364 18.9194 16.16 18.9607C15.7958 19.1579 15.3406 19.0224 15.1434 18.6582C14.9463 18.2939 15.0817 17.8388 15.446 17.6416C15.5093 17.6073 15.572 17.5721 15.6342 17.5361C17.7981 16.28 19.2505 13.9396 19.2505 11.2607C19.2505 11.1057 19.2456 10.9519 19.2361 10.7995C19.2102 10.3861 19.5243 10.03 19.9377 10.0041ZM16.9558 9.04252C17.3489 9.32379 17.8304 9.48932 18.3506 9.48932C19.6758 9.48932 20.7501 8.41505 20.7501 7.08988C20.7501 5.7647 19.6758 4.69043 18.3506 4.69043C17.0254 4.69043 15.9512 5.7647 15.9512 7.08988C15.9512 7.34783 15.9919 7.59629 16.0672 7.82916L13.6201 9.90996C13.1932 9.51905 12.6245 9.28052 12 9.28052C11.3328 9.28052 10.7292 9.55285 10.2943 9.99242L7.84035 8.06975C7.97436 7.77057 8.04889 7.43892 8.04889 7.08988C8.04889 5.7647 6.97462 4.69043 5.64945 4.69043C4.32427 4.69043 3.25 5.7647 3.25 7.08988C3.25 8.41505 4.32427 9.48932 5.64945 9.48932C6.07725 9.48932 6.47891 9.37736 6.82672 9.18115L9.62042 11.37C9.60733 11.4715 9.60059 11.5749 9.60059 11.68C9.60059 12.741 10.2893 13.6412 11.2441 13.9579V16.8138C10.2918 17.1319 9.60547 18.0309 9.60547 19.0901C9.60547 20.4153 10.6797 21.4896 12.0049 21.4896C13.3301 21.4896 14.4044 20.4153 14.4044 19.0901C14.4044 18.0229 13.7076 17.1183 12.7441 16.8067V13.9618C13.705 13.6487 14.3995 12.7454 14.3995 11.68C14.3995 11.5328 14.3862 11.3888 14.3609 11.249L16.9558 9.04252ZM4.75 7.08988C4.75 6.59313 5.1527 6.19043 5.64945 6.19043C6.1462 6.19043 6.54889 6.59313 6.54889 7.08988C6.54889 7.58663 6.1462 7.98932 5.64945 7.98932C5.1527 7.98932 4.75 7.58663 4.75 7.08988ZM18.3506 6.19043C17.8539 6.19043 17.4512 6.59313 17.4512 7.08988C17.4512 7.58663 17.8539 7.98932 18.3506 7.98932C18.8474 7.98932 19.2501 7.58663 19.2501 7.08988C19.2501 6.59313 18.8474 6.19043 18.3506 6.19043ZM12.0049 18.1907C11.5082 18.1907 11.1055 18.5934 11.1055 19.0901C11.1055 19.5869 11.5082 19.9896 12.0049 19.9896C12.5017 19.9896 12.9044 19.5869 12.9044 19.0901C12.9044 18.5934 12.5017 18.1907 12.0049 18.1907ZM12 10.7805C11.5033 10.7805 11.1006 11.1832 11.1006 11.68C11.1006 12.1767 11.5033 12.5794 12 12.5794C12.4968 12.5794 12.8995 12.1767 12.8995 11.68C12.8995 11.1832 12.4968 10.7805 12 10.7805Z" fill="#B3B3B3"/>
</svg>
