<svg width="20" height="20" viewBox="0 0 20 20" fill="none" xmlns="http://www.w3.org/2000/svg">
    <path d="M1.5 15.5H2.87047V5.75714H3.03433C3.22798 5.75714 3.30246 5.82 3.37695 5.96143L5.2092 11.1471H6.25195L8.08421 5.96143C8.15869 5.82 8.23317 5.75714 8.44172 5.75714H8.59069V15.5H9.94626V5.75714H9.96116V4.5H8.59069V4.75143C8.546 5.01857 8.33745 5.22286 8.08421 5.22286H6.99677L5.73058 8.86857L4.46438 5.22286H3.39184C3.09392 5.22286 2.87047 4.97143 2.87047 4.65714V4.5H1.5V15.5Z" fill="#CCCCCC"/>
    <path d="M13.9715 5.94571H15.476V4.5H11.0965V5.94571H12.601V14.0543H11.0965V15.5H17.8297V15.3271C17.8297 15.0286 18.0531 14.7771 18.351 14.7771H18.5V10.8643H17.1295V13.5514C17.1146 13.8343 16.8912 14.0543 16.6231 14.0543H13.9715V5.94571Z" fill="#CCCCCC"/>
</svg>
