<svg width="20" height="20" viewBox="0 0 20 20" fill="none" xmlns="http://www.w3.org/2000/svg">
<path fill-rule="evenodd" clip-rule="evenodd" d="M15 2.5C15 2.9445 14.884 3.3619 14.6806 3.72359C14.5641 3.9308 14.5616 4.19301 14.7138 4.37563L16.054 5.98389C16.2062 6.16655 16.4646 6.21132 16.6896 6.13428C16.9437 6.04724 17.2164 6 17.5 6C18.8807 6 20 7.11929 20 8.5C20 9.88071 18.8807 11 17.5 11C17.3247 11 17.1598 11.1015 17.1044 11.2678L15.878 14.9469C15.8029 15.1722 15.9004 15.4152 16.084 15.5658C16.6432 16.0243 17 16.7205 17 17.5C17 18.8807 15.8807 20 14.5 20C13.2891 20 12.2793 19.1391 12.0492 17.9959C12.0023 17.7629 11.8331 17.5624 11.5987 17.5234L5.23726 16.4631C5.00292 16.4241 4.77796 16.5585 4.65772 16.7634C4.22358 17.5033 3.4198 18 2.5 18C1.11929 18 0 16.8807 0 15.5C0 14.3365 0.794804 13.3587 1.87108 13.0798C2.10129 13.0201 2.29236 12.8403 2.31862 12.6039L2.6873 9.2858C2.71355 9.04961 2.56693 8.83226 2.35572 8.72334C1.55056 8.30811 1 7.46835 1 6.5C1 5.11929 2.11929 4 3.5 4C4.19275 4 4.81969 4.28177 5.27247 4.73694C5.43992 4.90528 5.69124 4.97893 5.90821 4.8825L9.68535 3.20377C9.90231 3.10735 10.0161 2.87147 10.0035 2.63438C10.0012 2.58988 10 2.54508 10 2.5C10 1.11929 11.1193 0 12.5 0C13.8807 0 15 1.11929 15 2.5ZM5.99645 6.36559C5.98389 6.12849 6.09769 5.89261 6.31465 5.79618L10.357 3.99956C10.4196 3.97176 10.4928 3.99212 10.5351 4.04589C10.5775 4.09971 10.5801 4.1756 10.5383 4.22991L7.14581 8.64014C6.96179 8.87937 6.60937 8.90226 6.39595 8.68884L5.87476 8.16765C5.70662 7.99952 5.68542 7.7381 5.78264 7.5211C5.92232 7.20934 6 6.86374 6 6.5C6 6.45491 5.99881 6.41009 5.99645 6.36559ZM5.91606 10.2388C6.06919 10.0398 6.05089 9.75799 5.8733 9.58041L5.16765 8.87476C4.99952 8.70662 4.7381 8.68542 4.5211 8.78264C4.39544 8.83894 4.26429 8.88517 4.12867 8.92029C3.89844 8.97992 3.70746 9.15978 3.6812 9.39614L3.28709 12.9431C3.27565 13.046 3.33923 13.1421 3.43529 13.1808C3.53138 13.2196 3.64278 13.1941 3.70596 13.1119L5.91606 10.2388ZM4.45046 13.936C4.4159 13.8929 4.4139 13.8318 4.44755 13.788L6.54963 11.0553C6.73365 10.8161 7.08607 10.7932 7.2995 11.0066L7.95507 11.6622C8.20043 11.9075 8.12739 12.3221 7.81296 12.4688L4.59421 13.9709C4.54425 13.9942 4.48498 13.979 4.45046 13.936ZM7.82214 10.115C7.64455 9.93745 7.62626 9.65569 7.77938 9.45662L11.1532 5.07064C11.2982 4.88219 11.5546 4.82736 11.7824 4.89549C11.8292 4.90947 11.8765 4.92212 11.9243 4.9334C12.1558 4.98794 12.3505 5.16354 12.382 5.39923L12.9532 9.68349C12.9821 9.90004 12.867 10.1103 12.669 10.2027L9.74144 11.5689C9.55091 11.6578 9.32511 11.618 9.17644 11.4693L7.82214 10.115ZM13.2302 11.7613C13.1856 11.4267 12.8291 11.2315 12.5232 11.3743L10.8234 12.1675C10.5089 12.3142 10.4359 12.7288 10.6813 12.9741L12.9001 15.193C13.0288 15.3217 13.228 15.3396 13.3911 15.2588C13.5541 15.178 13.6631 15.0079 13.6391 14.8276L13.2302 11.7613ZM14.7363 15.011C14.6988 15.0075 14.6681 14.979 14.6632 14.9417L14.1385 11.007C14.1096 10.7904 14.2247 10.5802 14.4227 10.4878L15.1219 10.1615C15.3371 10.0611 15.5898 10.1301 15.7603 10.2954C15.8102 10.3437 15.8621 10.39 15.9159 10.4341C16.0995 10.5847 16.197 10.8277 16.1219 11.053L14.8206 14.9567C14.8088 14.9923 14.7737 15.0145 14.7363 15.011ZM14.5685 9.31622C14.2626 9.45898 13.9061 9.26382 13.8615 8.92921L13.3456 5.0604C13.3303 4.94532 13.3992 4.8363 13.5055 4.78956C13.6118 4.7428 13.7377 4.76638 13.8121 4.85562L15.2861 6.62451C15.4383 6.80713 15.4358 7.06932 15.3193 7.27653C15.116 7.63819 15 8.05555 15 8.5C15 8.56061 15.0022 8.62072 15.0064 8.68026C15.0233 8.91711 14.9139 9.15508 14.6987 9.25549L14.5685 9.31622ZM12.277 16.3552C12.3496 16.2144 12.3337 16.0408 12.2217 15.9288L9.45989 13.167C9.31122 13.0183 9.08542 12.9785 8.89489 13.0675L5.15707 14.8118C5.02586 14.873 4.95742 15.0158 4.97697 15.1593C4.99655 15.3029 5.10113 15.4267 5.24413 15.4505L11.8971 16.5593C12.0532 16.5853 12.2044 16.4958 12.277 16.3552Z" fill="#D2D2D2"/>
</svg>
