<svg width="20" height="20" viewBox="0 0 20 20" fill="none" xmlns="http://www.w3.org/2000/svg">
<path fill-rule="evenodd" clip-rule="evenodd" d="M0.146446 4.18689C0.0526781 4.28065 0 4.40783 0 4.54044V15.4596C0 15.5922 0.0526776 15.7193 0.146446 15.8131L4.18689 19.8536C4.28065 19.9473 4.40783 20 4.54044 20H15.4596C15.5922 20 15.7193 19.9473 15.8131 19.8536L19.8536 15.8131C19.9473 15.7193 20 15.5922 20 15.4596V4.54044C20 4.40783 19.9473 4.28065 19.8536 4.18689L15.8131 0.146447C15.7193 0.0526786 15.5922 0 15.4596 0H4.54044C4.40783 0 4.28065 0.0526781 4.18689 0.146447L0.146446 4.18689ZM2.47994 5.52022C2.38617 5.61399 2.3335 5.74117 2.3335 5.87377V14.1262C2.3335 14.2588 2.38617 14.386 2.47994 14.4798L5.35372 17.3536C5.44748 17.4473 5.57466 17.5 5.70727 17.5H14.2929C14.4255 17.5 14.5527 17.4473 14.6464 17.3536L17.5202 14.4798C17.614 14.386 17.6667 14.2588 17.6667 14.1262V5.87377C17.6667 5.74117 17.614 5.61399 17.5202 5.52022L14.6464 2.64645C14.5527 2.55268 14.4255 2.5 14.2929 2.5H5.70727C5.57466 2.5 5.44748 2.55268 5.35372 2.64645L2.47994 5.52022Z" fill="#D2D2D2"/>
<path fill-rule="evenodd" clip-rule="evenodd" d="M5.14645 7.18689C5.05268 7.28065 5 7.40783 5 7.54044V12.4596C5 12.5922 5.05268 12.7193 5.14645 12.8131L7.18689 14.8536C7.28065 14.9473 7.40783 15 7.54044 15H12.4596C12.5922 15 12.7193 14.9473 12.8131 14.8536L14.8536 12.8131C14.9473 12.7193 15 12.5922 15 12.4596V7.54044C15 7.40783 14.9473 7.28065 14.8536 7.18689L12.8131 5.14645C12.7193 5.05268 12.5922 5 12.4596 5H7.54044C7.40783 5 7.28065 5.05268 7.18689 5.14645L5.14645 7.18689ZM7.47994 8.52022C7.38617 8.61399 7.3335 8.74117 7.3335 8.87377V11.1262C7.3335 11.2588 7.38617 11.386 7.47994 11.4798L8.35372 12.3536C8.44748 12.4473 8.57466 12.5 8.70727 12.5H11.2929C11.4255 12.5 11.5527 12.4473 11.6464 12.3536L12.5202 11.4798C12.614 11.386 12.6667 11.2588 12.6667 11.1262V8.87377C12.6667 8.74117 12.614 8.61399 12.5202 8.52022L11.6464 7.64645C11.5527 7.55268 11.4255 7.5 11.2929 7.5H8.70727C8.57466 7.5 8.44748 7.55268 8.35372 7.64645L7.47994 8.52022Z" fill="#D2D2D2"/>
</svg>

