<svg width="20" height="20" viewBox="0 0 20 20" fill="none" xmlns="http://www.w3.org/2000/svg">
<path fill-rule="evenodd" clip-rule="evenodd" d="M3.49442 5H12.5056C12.6087 5 12.7076 5.04097 12.7806 5.1139L14.8861 7.21943C14.959 7.29236 15 7.39128 15 7.49442V16.5056C15 16.6087 14.959 16.7076 14.8861 16.7806L12.7806 18.8861C12.7076 18.959 12.6087 19 12.5056 19H3.49442C3.39128 19 3.29236 18.959 3.21943 18.8861L1.1139 16.7806C1.04097 16.7076 1 16.6087 1 16.5056V7.49442C1 7.39128 1.04097 7.29236 1.1139 7.21943L3.21943 5.1139C3.29236 5.04097 3.39128 5 3.49442 5ZM7.50041 8C7.22427 8 7.00041 8.22386 7.00041 8.5V11H4.5C4.22386 11 4 11.2238 4 11.5V12.5C4 12.7761 4.22386 13 4.5 13H7.00041V15.5C7.00041 15.7761 7.22427 16 7.50041 16H8.50041C8.77655 16 9.00041 15.7761 9.00041 15.5V13H11.5C11.7761 13 12 12.7761 12 12.5V11.5C12 11.2238 11.7761 11 11.5 11H9.00041V8.5C9.00041 8.22386 8.77655 8 8.50041 8H7.50041Z" fill="#CCCCCC"/>
<path d="M16.5056 1H7.49442C7.39128 1 7.29236 1.04097 7.21943 1.1139L5.44724 2.8861C5.4052 2.92813 5.43497 3 5.49442 3H14.5056C14.6087 3 14.7076 3.04097 14.7806 3.1139L16.8861 5.21943C16.959 5.29236 17 5.39128 17 5.49442C17 8.47057 17 11.4467 17 14.4229C17 14.5119 17.1076 14.5566 17.1707 14.4936L18.8861 12.7806C18.959 12.7076 19 12.6087 19 12.5056V3.49442C19 3.39128 18.959 3.29236 18.8861 3.21943L16.7806 1.1139C16.7076 1.04097 16.6087 1 16.5056 1Z" fill="#CCCCCC"/>
</svg>
