<svg width="24" height="24" viewBox="0 0 24 24" fill="none" xmlns="http://www.w3.org/2000/svg">
<path fill-rule="evenodd" clip-rule="evenodd" d="M11.4853 5.75679C11.4853 5.47206 11.7161 5.24126 12.0008 5.24126C12.2855 5.24126 12.5163 5.47206 12.5163 5.75679C12.5163 6.02923 12.305 6.25231 12.0373 6.27104C12.0337 6.27099 12.0301 6.27097 12.0264 6.27097C12.0126 6.27097 11.9988 6.27134 11.9851 6.27208C11.7077 6.2638 11.4853 6.03627 11.4853 5.75679ZM11.2765 7.63808C10.5213 7.34714 9.98544 6.61454 9.98544 5.75679C9.98544 4.64374 10.8877 3.74142 12.0008 3.74142C13.1139 3.74142 14.0162 4.64374 14.0162 5.75679C14.0162 6.595 13.5044 7.3137 12.7764 7.61752V11.2421H18.0007C18.1387 11.2421 18.2506 11.1302 18.2506 10.9922V7.6283C17.5086 7.33097 16.9845 6.60508 16.9845 5.75679C16.9845 4.64374 17.8868 3.74142 18.9998 3.74142C20.1129 3.74142 21.0152 4.64374 21.0152 5.75679C21.0152 6.60452 20.4918 7.33 19.7505 7.62771V10.9922C19.7505 11.9586 18.9671 12.742 18.0007 12.742H16.2559V16.4009C16.9829 16.7052 17.4937 17.4234 17.4937 18.2608C17.4937 19.3739 16.5914 20.2762 15.4783 20.2762C14.3653 20.2762 13.463 19.3739 13.463 18.2608C13.463 17.4023 13.9998 16.6692 14.7561 16.3787V12.742H9.23257V16.3969C9.96471 16.6989 10.48 17.4197 10.48 18.2608C10.48 19.3739 9.57772 20.2762 8.46466 20.2762C7.35161 20.2762 6.44931 19.3739 6.44931 18.2608C6.44931 17.406 6.98155 16.6754 7.73272 16.3825V12.742H6.01261C5.04621 12.742 4.26279 11.9586 4.26279 10.9922V7.62815C3.52096 7.33071 2.99707 6.60494 2.99707 5.75682C2.99707 4.64377 3.89937 3.74146 5.01242 3.74146C6.12548 3.74146 7.02778 4.64377 7.02778 5.75682C7.02778 6.60472 6.50416 7.33033 5.76263 7.62792V10.9922C5.76263 11.1302 5.87455 11.2421 6.01261 11.2421H11.2765V7.63808ZM5.04185 6.27152C5.31287 6.25627 5.52795 6.03166 5.52795 5.75682C5.52795 5.47209 5.29714 5.24129 5.01242 5.24129C4.72771 5.24129 4.4969 5.47209 4.4969 5.75682C4.4969 6.03174 4.7121 6.2564 4.98323 6.27153C4.99301 6.27116 5.00284 6.27097 5.01271 6.27097C5.02247 6.27097 5.03218 6.27115 5.04185 6.27152ZM19.0291 6.2715C19.3002 6.25632 19.5153 6.03168 19.5153 5.75679C19.5153 5.47206 19.2845 5.24126 18.9998 5.24126C18.7151 5.24126 18.4843 5.47206 18.4843 5.75679C18.4843 6.03188 18.6998 6.25665 18.9711 6.27153C18.9809 6.27116 18.9907 6.27097 19.0006 6.27097C19.0101 6.27097 19.0196 6.27114 19.0291 6.2715ZM7.94914 18.2608C7.94914 17.9761 8.17995 17.7453 8.46466 17.7453C8.74938 17.7453 8.98019 17.9761 8.98019 18.2608C8.98019 18.5455 8.74938 18.7763 8.46466 18.7763C8.17995 18.7763 7.94914 18.5455 7.94914 18.2608ZM15.4783 17.7453C15.1936 17.7453 14.9628 17.9761 14.9628 18.2608C14.9628 18.5455 15.1936 18.7763 15.4783 18.7763C15.763 18.7763 15.9939 18.5455 15.9939 18.2608C15.9939 17.9761 15.763 17.7453 15.4783 17.7453Z" fill="#B3B3B3"/>
</svg>
