<svg width="20" height="20" viewBox="0 0 20 20" fill="none" xmlns="http://www.w3.org/2000/svg">
<path fill-rule="evenodd" clip-rule="evenodd" d="M1.6682 0.131802L0.131802 1.6682C0.0474106 1.75259 0 1.86705 0 1.9864V6.1136C0 6.23295 0.0474105 6.34741 0.131802 6.4318L1.6682 7.9682C1.75259 8.05259 1.86705 8.1 1.9864 8.1H6.1136C6.23295 8.1 6.34741 8.05259 6.4318 7.9682L7.9682 6.4318C8.05259 6.34741 8.1 6.23295 8.1 6.1136V1.9864C8.1 1.86705 8.05259 1.75259 7.9682 1.6682L6.4318 0.131802C6.34741 0.0474106 6.23295 0 6.1136 0H1.9864C1.86705 0 1.75259 0.0474105 1.6682 0.131802ZM10.0318 11.5682L11.5682 10.0318C11.6526 9.94741 11.767 9.9 11.8864 9.9H16.0136C16.133 9.9 16.2474 9.94741 16.3318 10.0318L17.8682 11.5682C17.9526 11.6526 18 11.767 18 11.8864V16.0136C18 16.133 17.9526 16.2474 17.8682 16.3318L16.3318 17.8682C16.2474 17.9526 16.1329 18 16.0136 18H11.8864C11.767 18 11.6526 17.9526 11.5682 17.8682L10.0318 16.3318C9.94741 16.2474 9.9 16.1329 9.9 16.0136V11.8864C9.9 11.767 9.94741 11.6526 10.0318 11.5682Z" fill="#CCCCCC"/>
<path d="M0 10H1.72522V15.2598C1.72522 15.5323 1.93318 15.7532 2.18971 15.7532H4.84377V14.7734C4.84377 14.2211 5.4146 13.8834 5.85665 14.1742L8.25731 15.7532H8.3607V15.8212L8.68578 16.035C9.11709 16.3187 9.10134 16.9907 8.65727 17.2512L8.3607 17.4252V17.5858H8.0871L5.82814 18.9111C5.38589 19.1706 4.84377 18.8308 4.84377 18.2942V17.5858H2.18971C0.980366 17.5858 0 16.5444 0 15.2598V10Z" fill="#CCCCCC"/>
<path d="M10 0V1.72522H15.2598C15.5323 1.72522 15.7532 1.93318 15.7532 2.18971V4.84377H14.7734C14.2211 4.84377 13.8834 5.4146 14.1742 5.85665L15.7532 8.25731V8.3607H15.8212L16.035 8.68578C16.3187 9.11709 16.9907 9.10134 17.2512 8.65727L17.4252 8.3607H17.5858V8.0871L18.9111 5.82814C19.1706 5.38589 18.8308 4.84377 18.2942 4.84377H17.5858V2.18971C17.5858 0.980366 16.5444 0 15.2598 0H10Z" fill="#CCCCCC"/>
</svg>
