<svg width="24" height="24" viewBox="0 0 24 24" fill="none" xmlns="http://www.w3.org/2000/svg">
<path fill-rule="evenodd" clip-rule="evenodd" d="M11 3.25C10.5858 3.25 10.25 3.58579 10.25 4V8V10.6667C10.25 11.0809 10.5858 11.4167 11 11.4167C11.4142 11.4167 11.75 11.0809 11.75 10.6667V8.75H13C14.5188 8.75 15.75 7.51878 15.75 6C15.75 4.48122 14.5188 3.25 13 3.25H11ZM11.75 4.75V7.25H13C13.6904 7.25 14.25 6.69036 14.25 6C14.25 5.30964 13.6904 4.75 13 4.75H11.75ZM4.71288 11.2492C5.12706 11.2492 5.46281 11.585 5.46281 11.9991C5.46281 12.0754 5.50209 12.2411 5.7791 12.4833C6.05455 12.7241 6.49643 12.9751 7.10722 13.201C8.323 13.6505 10.0526 13.9436 11.9997 13.9436C13.9468 13.9436 15.6764 13.6505 16.8922 13.201C17.503 12.9751 17.9448 12.7241 18.2203 12.4833C18.4973 12.2411 18.5366 12.0754 18.5366 11.9991C18.5366 11.585 18.8723 11.2492 19.2865 11.2492C19.7007 11.2492 20.0364 11.585 20.0364 11.9991C20.0364 12.6669 19.6679 13.21 19.2075 13.6125C18.7454 14.0164 18.1202 14.346 17.4123 14.6077C15.9908 15.1334 14.077 15.4434 11.9997 15.4434C9.92239 15.4434 8.00859 15.1334 6.58706 14.6077C5.8792 14.346 5.25395 14.0164 4.79194 13.6125C4.33148 13.21 3.96295 12.6669 3.96295 11.9991C3.96295 11.585 4.29871 11.2492 4.71288 11.2492ZM4.71288 16.1121C5.12706 16.1121 5.46281 16.4479 5.46281 16.8621C5.46281 16.9383 5.50209 17.1041 5.7791 17.3462C6.05455 17.587 6.49643 17.838 7.10722 18.0639C8.323 18.5134 10.0526 18.8065 11.9997 18.8065C13.9468 18.8065 15.6764 18.5134 16.8922 18.0639C17.503 17.838 17.9448 17.587 18.2203 17.3462C18.4973 17.1041 18.5366 16.9383 18.5366 16.8621C18.5366 16.4479 18.8723 16.1121 19.2865 16.1121C19.7007 16.1121 20.0364 16.4479 20.0364 16.8621C20.0364 17.5298 19.6679 18.0729 19.2075 18.4754C18.7454 18.8793 18.1202 19.2089 17.4123 19.4706C15.9908 19.9963 14.077 20.3063 11.9997 20.3063C9.92239 20.3063 8.00859 19.9963 6.58706 19.4706C5.8792 19.2089 5.25395 18.8793 4.79194 18.4754C4.33148 18.0729 3.96295 17.5298 3.96295 16.8621C3.96295 16.4479 4.29871 16.1121 4.71288 16.1121Z" fill="#B3B3B3"/>
</svg>
