<svg width="20" height="20" viewBox="0 0 20 20" fill="none" xmlns="http://www.w3.org/2000/svg">
<g clip-path="url(#clip0)">
<path fill-rule="evenodd" clip-rule="evenodd" d="M8.84976 0.175339C8.13249 0.240541 7.47643 0.606622 7.04428 1.18281L6.12736 2.33991L4.76426 2.26159C4.71272 2.26204 4.6631 2.28124 4.62468 2.31561L3.07062 3.70608C2.97989 3.78725 2.97599 3.92799 3.06207 4.01407L6.98593 7.93788C7.07202 8.02397 7.21276 8.02008 7.29395 7.92934L8.68441 6.37528C8.71879 6.33688 8.73799 6.28726 8.73843 6.23571L8.6867 4.88242C8.91574 4.69541 9.12705 4.52042 9.3058 4.3724C9.54894 4.17107 9.73183 4.01962 9.81715 3.95563C10.3933 3.52349 10.7594 2.86745 10.8246 2.15018L10.9991 0.231279C11.0111 0.0993916 10.9006 -0.0110972 10.7687 0.000892509L8.84976 0.175339ZM8.17273 2.82681C8.504 3.15807 9.0411 3.15808 9.37238 2.82681C9.70366 2.49553 9.70365 1.95844 9.37238 1.62718C9.04111 1.29591 8.50401 1.2959 8.17273 1.62718C7.84145 1.95845 7.84146 2.49554 8.17273 2.82681Z" fill="#D2D2D2"/>
<path d="M4.65997 7.65977C4.20895 8.11079 2.85596 8.30401 2.85596 8.30401C2.85596 8.30401 3.04917 6.95101 3.50019 6.49999C3.78487 6.21531 4.27528 6.24416 4.59554 6.56442C4.91581 6.88469 4.94465 7.37509 4.65997 7.65977Z" fill="#D2D2D2"/>
<path d="M7.79963 18.8216C6.97468 19.6466 4.49996 20 4.49996 20C4.49996 20 4.85336 17.5253 5.67831 16.7003C6.19902 16.1796 7.096 16.2324 7.68179 16.8182C8.26758 17.404 8.32034 18.3009 7.79963 18.8216Z" fill="#D2D2D2"/>
<path fill-rule="evenodd" clip-rule="evenodd" d="M14.3982 6.8917C13.1968 7.00092 12.0978 7.61413 11.3739 8.57928L9.83803 10.5175L7.55474 10.3863C7.46841 10.3871 7.38528 10.4192 7.32094 10.4768L4.71779 12.8059C4.56581 12.9419 4.55926 13.1776 4.70345 13.3218L11.2762 19.8945C11.4204 20.0387 11.6562 20.0322 11.7921 19.8802L14.1213 17.277C14.1788 17.2127 14.211 17.1296 14.2117 17.0432L14.1251 14.7764C14.5087 14.4631 14.8627 14.17 15.1621 13.9221C15.5694 13.5848 15.8758 13.3311 16.0187 13.2239C16.9838 12.5001 17.597 11.4012 17.7063 10.1997L17.9985 6.9854C18.0185 6.76448 17.8335 6.5794 17.6125 6.59949L14.3982 6.8917ZM13.2643 11.3331C13.8192 11.888 14.7189 11.888 15.2738 11.3331C15.8287 10.7782 15.8287 9.87849 15.2738 9.3236C14.7189 8.76871 13.8192 8.76869 13.2643 9.3236C12.7094 9.8785 12.7094 10.7782 13.2643 11.3331Z" fill="#D2D2D2"/>
</g>
<defs>
<clipPath id="clip0">
<rect width="20" height="20" fill="white"/>
</clipPath>
</defs>
</svg>
