<svg width="20" height="20" viewBox="0 0 20 20" fill="none" xmlns="http://www.w3.org/2000/svg">
<path fill-rule="evenodd" clip-rule="evenodd" d="M10 19C14.9706 19 19 14.9706 19 10C19 5.02944 14.9706 1 10 1C5.02944 1 1 5.02944 1 10C1 14.9706 5.02944 19 10 19ZM9.00046 6.50005C9.00046 6.22391 9.22432 6.00005 9.50046 6.00005H10.5005C10.7766 6.00005 11.0005 6.22391 11.0005 6.50005V9.00001H13.5001C13.7762 9.00001 14.0001 9.22387 14.0001 9.50001V10.5C14.0001 10.7762 13.7762 11 13.5001 11H11.0005V13.5001C11.0005 13.7762 10.7766 14.0001 10.5005 14.0001H9.50046C9.22432 14.0001 9.00046 13.7762 9.00046 13.5001V11H6.50005C6.22391 11 6.00005 10.7762 6.00005 10.5V9.50001C6.00005 9.22387 6.22391 9.00001 6.50005 9.00001H9.00046V6.50005Z" fill="#CCCCCC"/>
</svg>
