<svg width="24" height="24" viewBox="0 0 24 24" fill="none" xmlns="http://www.w3.org/2000/svg">
<path fill-rule="evenodd" clip-rule="evenodd" d="M7 3.75C6.30964 3.75 5.75 4.30964 5.75 5V19C5.75 19.6904 6.30964 20.25 7 20.25H12.875C13.2892 20.25 13.625 20.5858 13.625 21C13.625 21.4142 13.2892 21.75 12.875 21.75H7C5.48122 21.75 4.25 20.5188 4.25 19V5C4.25 3.48122 5.48122 2.25 7 2.25H17C18.5188 2.25 19.75 3.48122 19.75 5V13.125C19.75 13.5392 19.4142 13.875 19 13.875C18.5858 13.875 18.25 13.5392 18.25 13.125V5C18.25 4.30964 17.6904 3.75 17 3.75H7ZM7.25 10C7.25 9.58579 7.58579 9.25 8 9.25H16C16.4142 9.25 16.75 9.58579 16.75 10C16.75 10.4142 16.4142 10.75 16 10.75H8C7.58579 10.75 7.25 10.4142 7.25 10ZM8 13.25C7.58579 13.25 7.25 13.5858 7.25 14C7.25 14.4142 7.58579 14.75 8 14.75H16C16.4142 14.75 16.75 14.4142 16.75 14C16.75 13.5858 16.4142 13.25 16 13.25H8Z" fill="#B3B3B3"/>
<path fill-rule="evenodd" clip-rule="evenodd" d="M21.4685 15.4143C21.792 15.6731 21.8444 16.1451 21.5857 16.4685L17.5857 21.4685C17.4362 21.6554 17.2065 21.7597 16.9675 21.7493C16.7285 21.7389 16.5087 21.6151 16.376 21.416L14.376 18.416C14.1462 18.0714 14.2393 17.6057 14.584 17.376C14.9286 17.1462 15.3943 17.2393 15.6241 17.584L17.0551 19.7305L20.4144 15.5315C20.6731 15.208 21.1451 15.1556 21.4685 15.4143Z" fill="#B3B3B3"/>
</svg>
