<svg width="24" height="24" viewBox="0 0 24 24" fill="none" xmlns="http://www.w3.org/2000/svg">
<path fill-rule="evenodd" clip-rule="evenodd" d="M11.6025 3.364C11.8457 3.212 12.1543 3.212 12.3975 3.364L20.3975 8.364C20.6168 8.50106 20.75 8.74141 20.75 9C20.75 9.25859 20.6168 9.49894 20.3975 9.636L12.3975 14.636C12.1543 14.788 11.8457 14.788 11.6025 14.636L3.6025 9.636C3.38321 9.49894 3.25 9.25859 3.25 9C3.25 8.74141 3.38321 8.50106 3.6025 8.364L11.6025 3.364ZM5.4151 9L12 13.1156L18.5849 9L12 4.88444L5.4151 9Z" fill="#B3B3B3"/>
<path fill-rule="evenodd" clip-rule="evenodd" d="M3.36398 11.6025C3.58351 11.2512 4.04623 11.1444 4.39748 11.364L12 16.1155L19.6025 11.364C19.9537 11.1444 20.4164 11.2512 20.636 11.6025C20.8555 11.9537 20.7487 12.4164 20.3975 12.636L12.3975 17.636C12.1543 17.788 11.8457 17.788 11.6025 17.636L3.60248 12.636C3.25123 12.4164 3.14445 11.9537 3.36398 11.6025Z" fill="#B3B3B3"/>
<path fill-rule="evenodd" clip-rule="evenodd" d="M3.36398 14.6025C3.58351 14.2512 4.04623 14.1444 4.39748 14.364L12 19.1155L19.6025 14.364C19.9537 14.1444 20.4164 14.2512 20.636 14.6025C20.8555 14.9537 20.7487 15.4164 20.3975 15.636L12.3975 20.636C12.1543 20.788 11.8457 20.788 11.6025 20.636L3.60248 15.636C3.25123 15.4164 3.14445 14.9537 3.36398 14.6025Z" fill="#B3B3B3"/>
</svg>
