<svg width="32" height="33" viewBox="0 0 32 33" fill="none" xmlns="http://www.w3.org/2000/svg">
<path fill-rule="evenodd" clip-rule="evenodd" d="M21.453 14.0075V7.14541C21.453 6.83411 21.2619 6.5547 20.9719 6.44164L16.2738 4.61065C16.0974 4.54188 15.9016 4.54188 15.7251 4.61065L11.0271 6.44164C10.737 6.5547 10.546 6.83411 10.546 7.14541V14.0075C10.546 14.2431 10.6554 14.4605 10.8345 14.6013L14.1005 15.8749C14.6253 15.4159 15.3123 15.1377 16.0644 15.1377C16.7972 15.1377 17.4683 15.4018 17.9877 15.8401L21.1645 14.6013C21.3436 14.4605 21.453 14.2431 21.453 14.0075ZM19.0417 17.9194C19.0462 17.9863 19.0485 18.0538 19.0485 18.1218C19.0485 19.3394 18.3192 20.3867 17.2737 20.8507V25.8524C17.2737 26.1593 17.4606 26.4351 17.7455 26.5487L22.4041 28.4054C22.5821 28.4764 22.7805 28.4764 22.9585 28.4054L27.6171 26.5487C27.902 26.4351 28.0889 26.1593 28.0889 25.8524V19.0439C28.0889 18.7351 27.8995 18.4578 27.6119 18.3457L22.9533 16.529C22.7784 16.4607 22.5842 16.4607 22.4093 16.529L22.2898 16.5756C22.1408 16.6678 21.9825 16.748 21.8158 16.8144L19.0417 17.9194ZM14.7253 20.7893C13.7497 20.2986 13.0803 19.2884 13.0803 18.1218C13.0803 18.0708 13.0815 18.0202 13.0841 17.9699L10.1831 16.8144C10.0165 16.748 9.85816 16.6678 9.70923 16.5756L9.58973 16.529C9.41478 16.4607 9.22059 16.4607 9.04564 16.529L4.38709 18.3457C4.09945 18.4578 3.91005 18.7351 3.91005 19.0439V25.8524C3.91005 26.1593 4.097 26.4351 4.38191 26.5487L9.04046 28.4054C9.21847 28.4764 9.4169 28.4764 9.59491 28.4054L14.2535 26.5487C14.5384 26.4351 14.7253 26.1593 14.7253 25.8524V20.7893ZM23.693 14.4055C23.7103 14.2748 23.7192 14.1419 23.7192 14.0075V7.14541C23.7192 5.90022 22.9552 4.78256 21.7949 4.33034L17.0969 2.49934C16.3911 2.22429 15.6078 2.22429 14.9021 2.49934L10.2041 4.33034C9.04374 4.78256 8.27974 5.90022 8.27974 7.14541V14.0075C8.27974 14.1419 8.28863 14.2748 8.30597 14.4055C8.28039 14.4147 8.25489 14.4243 8.22951 14.4342L3.57095 16.2509C2.42039 16.6995 1.6628 17.8085 1.6628 19.0439V25.8524C1.6628 27.0798 2.41058 28.1831 3.55022 28.6373L8.20877 30.4941C8.92083 30.7779 9.71454 30.7779 10.4266 30.4941L15.0852 28.6373C15.4288 28.5004 15.7369 28.3044 15.9995 28.0637C16.2621 28.3044 16.5702 28.5004 16.9138 28.6373L21.5724 30.4941C22.2844 30.7779 23.0781 30.7779 23.7902 30.4941L28.4488 28.6373C29.5884 28.1831 30.3362 27.0798 30.3362 25.8524V19.0439C30.3362 17.8085 29.5786 16.6995 28.428 16.2509L23.7695 14.4342C23.7441 14.4243 23.7186 14.4147 23.693 14.4055ZM16.0482 19.6467C16.9171 19.6467 17.6215 18.9423 17.6215 18.0734C17.6215 17.2045 16.9171 16.5001 16.0482 16.5001C15.1793 16.5001 14.4749 17.2045 14.4749 18.0734C14.4749 18.9423 15.1793 19.6467 16.0482 19.6467Z" fill="#B3B3B3"/>
<path fill-rule="evenodd" clip-rule="evenodd" d="M9.04564 16.529L4.38709 18.3457C4.09945 18.4578 3.91005 18.7351 3.91005 19.0439V25.8524C3.91005 26.1593 4.097 26.4351 4.38191 26.5487L9.04046 28.4054C9.21847 28.4764 9.4169 28.4764 9.59491 28.4054L14.2535 26.5487C14.5384 26.4351 14.7253 26.1593 14.7253 25.8524V20.7893C13.7497 20.2986 13.0803 19.2884 13.0803 18.1218C13.0803 18.0708 13.0815 18.0202 13.0841 17.9699L10.1831 16.8144C10.0165 16.748 9.85816 16.6678 9.70923 16.5756L9.58973 16.529C9.41478 16.4607 9.22059 16.4607 9.04564 16.529ZM9.53378 16.9293L9.44685 16.8954C9.36378 16.863 9.27159 16.863 9.18852 16.8954L4.52997 18.7121C4.3934 18.7653 4.30332 18.897 4.30332 19.0439V25.8524C4.30332 25.9984 4.39223 26.1294 4.52751 26.1833L9.18606 28.0401C9.27058 28.0738 9.36478 28.0738 9.44931 28.0401L14.1079 26.1833C14.2431 26.1294 14.332 25.9984 14.332 25.8524V21.0216C13.3778 20.4503 12.7282 19.4206 12.6889 18.2358L10.0376 17.1797C9.86118 17.1094 9.69288 17.0255 9.53378 16.9293ZM22.5497 28.0401C22.6342 28.0738 22.7284 28.0738 22.8129 28.0401L27.4715 26.1833C27.6067 26.1294 27.6957 25.9984 27.6957 25.8524V19.0439C27.6957 18.897 27.6056 18.7653 27.469 18.7121L22.8105 16.8954C22.7274 16.863 22.6352 16.863 22.5521 16.8954L22.4652 16.9293C22.3061 17.0255 22.1378 17.1094 21.9614 17.1797L19.4412 18.1836C19.4186 19.4434 18.7062 20.5342 17.6669 21.0954V25.8524C17.6669 25.9984 17.7558 26.1294 17.8911 26.1833L22.5497 28.0401ZM17.2737 20.8507V25.8524C17.2737 26.1593 17.4606 26.4351 17.7455 26.5487L22.4041 28.4054C22.5821 28.4764 22.7805 28.4764 22.9585 28.4054L27.6171 26.5487C27.902 26.4351 28.0889 26.1593 28.0889 25.8524V19.0439C28.0889 18.7351 27.8995 18.4578 27.6119 18.3457L22.9533 16.529C22.7784 16.4607 22.5842 16.4607 22.4093 16.529L22.2898 16.5756C22.1408 16.6678 21.9825 16.748 21.8158 16.8144L19.0417 17.9194C19.0462 17.9863 19.0485 18.0538 19.0485 18.1218C19.0485 19.3394 18.3192 20.3867 17.2737 20.8507ZM21.0597 14.0075V7.14541C21.0597 6.99622 20.9681 6.86228 20.8291 6.80807L16.131 4.97707C16.0464 4.9441 15.9525 4.9441 15.8679 4.97707L11.1699 6.80807C11.0308 6.86227 10.9393 6.99622 10.9393 7.14541V14.0075C10.9393 14.1037 10.9774 14.1937 11.0419 14.2601L14.0303 15.4254C14.596 14.9981 15.3009 14.7444 16.0644 14.7444C16.8078 14.7444 17.4958 14.985 18.0538 15.3923L20.9571 14.2601C21.0216 14.1937 21.0597 14.1037 21.0597 14.0075ZM21.1645 14.6013L17.9877 15.8401C17.4683 15.4018 16.7972 15.1377 16.0644 15.1377C15.3123 15.1377 14.6253 15.4159 14.1005 15.8749L10.8345 14.6013C10.6554 14.4605 10.546 14.2431 10.546 14.0075V7.14541C10.546 6.83411 10.737 6.5547 11.0271 6.44164L15.7251 4.61065C15.9016 4.54188 16.0974 4.54188 16.2738 4.61065L20.9719 6.44164C21.2619 6.5547 21.453 6.83411 21.453 7.14541V14.0075C21.453 14.2431 21.3436 14.4605 21.1645 14.6013ZM24.1098 14.1447C24.1116 14.0992 24.1125 14.0534 24.1125 14.0075V7.14541C24.1125 5.73811 23.249 4.47498 21.9377 3.96392L17.2397 2.13292C16.4421 1.82207 15.5569 1.82207 14.7593 2.13292L10.0612 3.96391C8.74993 4.47498 7.88646 5.73811 7.88646 7.14541V14.0075C7.88646 14.0534 7.88738 14.0992 7.88921 14.1447L3.42807 15.8845C2.12644 16.3921 1.26953 17.6465 1.26953 19.0439V25.8524C1.26953 27.2407 2.11535 28.4888 3.40462 29.0027L8.06316 30.8594C8.86872 31.1805 9.76665 31.1805 10.5722 30.8594L15.2308 29.0027C15.5089 28.8918 15.7665 28.7467 15.9995 28.5733C16.2325 28.7467 16.4901 28.8918 16.7682 29.0027L21.4268 30.8594C22.2323 31.1805 23.1303 31.1805 23.9358 30.8594L28.5944 29.0027C29.8836 28.4888 30.7294 27.2407 30.7294 25.8524V19.0439C30.7294 17.6465 29.8725 16.3921 28.5709 15.8845L24.1098 14.1447ZM15.9995 28.0637C15.7369 28.3044 15.4288 28.5004 15.0852 28.6373L10.4266 30.4941C9.71454 30.7779 8.92083 30.7779 8.20877 30.4941L3.55022 28.6373C2.41058 28.1831 1.6628 27.0798 1.6628 25.8524V19.0439C1.6628 17.8085 2.42039 16.6995 3.57095 16.2509L8.22951 14.4342C8.25489 14.4243 8.28039 14.4147 8.30597 14.4055C8.28863 14.2748 8.27974 14.1419 8.27974 14.0075V7.14541C8.27974 5.90022 9.04374 4.78256 10.2041 4.33034L14.9021 2.49934C15.6078 2.22429 16.3911 2.22429 17.0969 2.49934L21.7949 4.33034C22.9552 4.78256 23.7192 5.90022 23.7192 7.14541V14.0075C23.7192 14.1419 23.7103 14.2748 23.693 14.4055C23.7186 14.4147 23.7441 14.4243 23.7695 14.4342L28.428 16.2509C29.5786 16.6995 30.3362 17.8085 30.3362 19.0439V25.8524C30.3362 27.0798 29.5884 28.1831 28.4488 28.6373L23.7902 30.4941C23.0781 30.7779 22.2844 30.7779 21.5724 30.4941L16.9138 28.6373C16.5702 28.5004 16.2621 28.3044 15.9995 28.0637ZM16.0482 19.2534C16.6999 19.2534 17.2282 18.7251 17.2282 18.0734C17.2282 17.4217 16.6999 16.8933 16.0482 16.8933C15.3965 16.8933 14.8682 17.4217 14.8682 18.0734C14.8682 18.7251 15.3965 19.2534 16.0482 19.2534ZM17.6215 18.0734C17.6215 18.9423 16.9171 19.6467 16.0482 19.6467C15.1793 19.6467 14.4749 18.9423 14.4749 18.0734C14.4749 17.2045 15.1793 16.5001 16.0482 16.5001C16.9171 16.5001 17.6215 17.2045 17.6215 18.0734Z" fill="#B3B3B3"/>
</svg>
