<svg width="20" height="20" viewBox="0 0 20 20" fill="none" xmlns="http://www.w3.org/2000/svg">
<path fill-rule="evenodd" clip-rule="evenodd" d="M1.1318 2.6682L2.6682 1.1318C2.75259 1.04741 2.86705 1 2.9864 1H17.0136C17.1329 1 17.2474 1.04741 17.3318 1.1318L18.8682 2.6682C18.9526 2.75259 19 2.86705 19 2.9864V17.0136L18.8682 17.3318L17.3318 18.8682C17.2474 18.9526 17.1329 19 17.0136 19H2.9864C2.86705 19 2.75259 18.9526 2.6682 18.8682L1.1318 17.3318C1.04741 17.2474 1 17.1329 1 17.0136V2.9864C1 2.86705 1.04741 2.75259 1.1318 2.6682ZM13.3458 6.90887C13.1895 6.75267 12.9363 6.75267 12.7801 6.90887L9.38596 10.303C9.22975 10.4592 8.97648 10.4592 8.82027 10.303L7.12322 8.60593C6.96701 8.44972 6.71374 8.44972 6.55753 8.60593L5.709 9.45446C5.55279 9.61067 5.55279 9.86393 5.709 10.0201L8.82027 13.1314C8.97648 13.2876 9.22975 13.2876 9.38596 13.1314L14.1943 8.32309C14.3505 8.16688 14.3505 7.91361 14.1943 7.7574L13.3458 6.90887Z" fill="#CCCCCC"/>
</svg>
