<svg width="24" height="24" viewBox="0 0 24 24" fill="none" xmlns="http://www.w3.org/2000/svg">
<path fill-rule="evenodd" clip-rule="evenodd" d="M7.88318 8.11706C8.52598 6.09146 10.1722 4.75 12 4.75C13.8278 4.75 15.474 6.09146 16.1168 8.11706C16.2627 8.57679 16.6898 8.86398 17.1429 8.86398C18.7628 8.86398 20.25 10.4143 20.25 12.557C20.25 14.6997 18.7628 16.25 17.1429 16.25H16C15.5858 16.25 15.25 16.5858 15.25 17C15.25 17.4142 15.5858 17.75 16 17.75H17.1429C19.7834 17.75 21.75 15.3219 21.75 12.557C21.75 9.89971 19.9336 7.55359 17.4482 7.3749C16.583 5.00524 14.5113 3.25 12 3.25C9.48867 3.25 7.41704 5.00524 6.55182 7.3749C4.06644 7.55359 2.25 9.89971 2.25 12.557C2.25 12.9712 2.58579 13.307 3 13.307C3.41421 13.307 3.75 12.9712 3.75 12.557C3.75 10.4143 5.23717 8.86398 6.85714 8.86398C7.31018 8.86398 7.7373 8.57679 7.88318 8.11706ZM6 12.25C5.58579 12.25 5.25 12.5858 5.25 13V20C5.25 20.4142 5.58579 20.75 6 20.75H13C13.4142 20.75 13.75 20.4142 13.75 20V13C13.75 12.5858 13.4142 12.25 13 12.25H6ZM6.75 19.25V13.75H12.25V19.25H6.75Z" fill="#B3B3B3"/>
</svg>
