<svg width="20" height="20" viewBox="0 0 20 20" fill="none" xmlns="http://www.w3.org/2000/svg">
<path fill-rule="evenodd" clip-rule="evenodd" d="M6.5914 0H14.3963C16.2821 0 17.8109 1.52878 17.8109 3.41463V16.0976C17.8109 18.2528 16.0637 20 13.9085 20H5.12799C3.78095 20 2.68896 18.908 2.68896 17.561V3.90244C2.68896 1.74718 4.43615 0 6.5914 0ZM14.739 18.3915C14.8329 18.1323 14.8841 17.8526 14.8841 17.561V5.36585C14.8841 4.01882 13.7921 2.92683 12.4451 2.92683H5.19567C4.98571 2.92683 4.81549 2.75662 4.81549 2.54664V2.45128C4.81549 2.32516 4.86559 2.2042 4.95477 2.11502L5.0883 1.98149C5.50252 1.65692 6.02436 1.46341 6.5914 1.46341H14.3963C15.4739 1.46341 16.3475 2.33701 16.3475 3.41463V16.0976C16.3475 17.153 15.6772 18.0518 14.739 18.3915ZM6.44468 15.7908C6.44468 15.3698 6.78593 15.0286 7.20688 15.0286H10.3674C10.7884 15.0286 11.1296 15.3698 11.1296 15.7908C11.1296 16.2117 10.7884 16.553 10.3674 16.553H7.20688C6.78593 16.553 6.44468 16.2117 6.44468 15.7908ZM7.20688 10.8136C6.78593 10.8136 6.44468 11.1549 6.44468 11.5758C6.44468 11.9968 6.78593 12.338 7.20688 12.338H10.3674C10.7884 12.338 11.1296 11.9968 11.1296 11.5758C11.1296 11.1549 10.7884 10.8136 10.3674 10.8136H7.20688ZM6.44468 7.37043C6.44468 6.94948 6.78593 6.60823 7.20688 6.60823H10.3674C10.7884 6.60823 11.1296 6.94948 11.1296 7.37043C11.1296 7.79138 10.7884 8.13262 10.3674 8.13262H7.20688C6.78593 8.13262 6.44468 7.79138 6.44468 7.37043Z" fill="#CCCCCC"/>
</svg>
