<svg width="24" height="24" viewBox="0 0 24 24" fill="none" xmlns="http://www.w3.org/2000/svg">
<path fill-rule="evenodd" clip-rule="evenodd" d="M4.32922 4.6646C4.51446 4.29412 4.96497 4.14395 5.33545 4.32919L9.33545 6.32919C9.58954 6.45624 9.75004 6.71593 9.75004 7.00001C9.75004 7.28409 9.58954 7.54379 9.33545 7.67083L5.33545 9.67083C4.96497 9.85607 4.51446 9.70591 4.32922 9.33542C4.14398 8.96494 4.29415 8.51443 4.66463 8.32919L7.32299 7.00001L4.66463 5.67083C4.29415 5.48559 4.14398 5.03509 4.32922 4.6646ZM10.2501 9C10.2501 8.58579 10.5858 8.25 11.0001 8.25H19.0001C19.4143 8.25 19.7501 8.58579 19.7501 9C19.7501 9.41421 19.4143 9.75 19.0001 9.75H11.0001C10.5858 9.75 10.2501 9.41421 10.2501 9ZM11.5891 11.0927C10.488 10.9942 9.44246 11.8985 9.30573 13.0676C9.21201 13.8689 9.57563 14.6059 10.2337 14.9485L12.2799 16.0138C12.4566 16.1058 12.5669 16.2908 12.5723 16.5043C12.5824 16.9023 12.2357 17.2452 11.8581 17.2107L10.0106 17.0421C9.6124 17.0058 9.22902 17.318 9.15433 17.7395C9.07965 18.161 9.34194 18.5321 9.74018 18.5685L11.5877 18.7371C12.8838 18.8554 14.0738 17.6782 14.0391 16.3122C14.0204 15.5793 13.642 14.9445 13.0356 14.6288L10.9893 13.5635C10.8281 13.4796 10.7391 13.2991 10.762 13.1029C10.7955 12.8166 11.0516 12.5952 11.3212 12.6193L13.009 12.7702C13.4073 12.8058 13.7902 12.493 13.8642 12.0714C13.9382 11.6498 13.6753 11.2792 13.2769 11.2436L11.5891 11.0927ZM4.24708 13.1397C4.36786 11.9467 5.44262 11.0207 6.56152 11.1457L8.04275 11.3112C8.4395 11.3556 8.69448 11.7326 8.61226 12.1533C8.53004 12.574 8.14176 12.8792 7.74501 12.8348L6.26379 12.6693C5.9942 12.6392 5.73524 12.8623 5.70614 13.1497C5.68755 13.3334 5.76905 13.502 5.91683 13.5857L7.87645 14.696C8.44375 15.0174 8.79586 15.6257 8.819 16.3242C8.86483 17.7076 7.64614 18.8991 6.33765 18.7503L4.72521 18.5669C4.32862 18.5218 4.07434 18.1443 4.15728 17.7236C4.24022 17.303 4.62897 16.9986 5.02557 17.0437L6.638 17.227C7.01482 17.2699 7.36578 16.9267 7.35258 16.5283C7.34592 16.3272 7.24452 16.152 7.08115 16.0594L5.12153 14.9492C4.50816 14.6017 4.16993 13.9018 4.24708 13.1397ZM16.5524 11.9875C16.5524 11.5733 16.2166 11.2375 15.8024 11.2375C15.3882 11.2375 15.0524 11.5733 15.0524 11.9875V18.1029C15.0524 18.5171 15.3882 18.8529 15.8024 18.8529C16.2166 18.8529 16.5524 18.5171 16.5524 18.1029V15.7952H18.3337V18.1029C18.3337 18.5171 18.6695 18.8529 19.0837 18.8529C19.498 18.8529 19.8337 18.5171 19.8337 18.1029V11.9875C19.8337 11.5733 19.498 11.2375 19.0837 11.2375C18.6695 11.2375 18.3337 11.5733 18.3337 11.9875V14.2952H16.5524V11.9875Z" fill="#B3B3B3"/>
</svg>
