<svg width="24" height="24" viewBox="0 0 24 24" fill="none" xmlns="http://www.w3.org/2000/svg">
<path fill-rule="evenodd" clip-rule="evenodd" d="M11.2208 5.43359C11.2208 4.99895 11.5731 4.64661 12.0078 4.64661C12.4424 4.64661 12.7948 4.99895 12.7948 5.43359C12.7948 5.86824 12.4424 6.22058 12.0078 6.22058C11.5731 6.22058 11.2208 5.86824 11.2208 5.43359ZM12.0078 3.35349C10.859 3.35349 9.92767 4.28479 9.92767 5.43359C9.92767 6.5824 10.859 7.5137 12.0078 7.5137C13.1566 7.5137 14.0879 6.5824 14.0879 5.43359C14.0879 4.28479 13.1566 3.35349 12.0078 3.35349ZM18.2187 18.5742C18.2187 18.1395 18.571 17.7872 19.0056 17.7872C19.4403 17.7872 19.7926 18.1395 19.7926 18.5742C19.7926 19.0088 19.4403 19.3611 19.0056 19.3611C18.571 19.3611 18.2187 19.0088 18.2187 18.5742ZM19.0056 16.494C17.8568 16.494 16.9255 17.4253 16.9255 18.5742C16.9255 19.723 17.8568 20.6543 19.0056 20.6543C20.1544 20.6543 21.0857 19.723 21.0857 18.5742C21.0857 17.4253 20.1544 16.494 19.0056 16.494ZM4.99514 17.7874C4.56051 17.7874 4.20816 18.1397 4.20816 18.5744C4.20816 19.009 4.56051 19.3614 4.99514 19.3614C5.42977 19.3614 5.78212 19.009 5.78212 18.5744C5.78212 18.1397 5.42977 17.7874 4.99514 17.7874ZM2.91504 18.5744C2.91504 17.4256 3.84633 16.4943 4.99514 16.4943C6.14395 16.4943 7.07524 17.4256 7.07524 18.5744C7.07524 19.7232 6.14395 20.6545 4.99514 20.6545C3.84633 20.6545 2.91504 19.7232 2.91504 18.5744ZM10.5269 8.80755C10.7413 8.41606 10.5978 7.92488 10.2063 7.71047C9.81483 7.49605 9.32365 7.6396 9.10924 8.03108L5.47084 14.6742C5.25643 15.0657 5.39997 15.5568 5.79146 15.7713C6.18294 15.9857 6.67412 15.8421 6.88854 15.4506L10.5269 8.80755ZM14.8553 8.02858C14.6395 7.63785 14.1478 7.49605 13.7571 7.71184C13.3663 7.92764 13.2245 8.41932 13.4403 8.81005L17.1093 15.4531C17.3251 15.8439 17.8168 15.9857 18.2075 15.7699C18.5982 15.5541 18.74 15.0624 18.5242 14.6717L14.8553 8.02858ZM8.60993 18.0045C8.16357 18.0045 7.80172 18.3664 7.80172 18.8127C7.80172 19.2591 8.16357 19.6209 8.60993 19.6209H15.3674C15.8137 19.6209 16.1756 19.2591 16.1756 18.8127C16.1756 18.3664 15.8137 18.0045 15.3674 18.0045H8.60993Z" fill="#B3B3B3"/>
</svg>
