<svg width="20" height="20" viewBox="0 0 20 20" fill="none" xmlns="http://www.w3.org/2000/svg">
<path fill-rule="evenodd" clip-rule="evenodd" d="M1 15.5C1 15.7761 1.22386 16 1.5 16H3.5C3.77614 16 4 15.7761 4 15.5V4.5C4 4.22386 3.77614 4 3.5 4H1.5C1.22386 4 1 4.22386 1 4.5V15.5ZM6 8.5C6 8.77614 6.22386 9 6.5 9H8.5C8.77614 9 9 8.77614 9 8.5V4.5C9 4.22386 8.77614 4 8.5 4H6.5C6.22386 4 6 4.22386 6 4.5V8.5ZM9 15.5C9 15.7761 8.77614 16 8.5 16H6.5C6.22386 16 6 15.7761 6 15.5V11.5C6 11.2239 6.22386 11 6.5 11H8.5C8.77614 11 9 11.2239 9 11.5V15.5ZM16 8.5C16 8.77614 16.2239 9 16.5 9H18.5C18.7761 9 19 8.77614 19 8.5V4.5C19 4.22386 18.7761 4 18.5 4H16.5C16.2239 4 16 4.22386 16 4.5V8.5ZM19 15.5C19 15.7761 18.7761 16 18.5 16H16.5C16.2239 16 16 15.7761 16 15.5V11.5C16 11.2239 16.2239 11 16.5 11H18.5C18.7761 11 19 11.2239 19 11.5V15.5ZM11 15.5C11 15.7761 11.2239 16 11.5 16H13.5C13.7761 16 14 15.7761 14 15.5V4.5C14 4.22386 13.7761 4 13.5 4H11.5C11.2239 4 11 4.22386 11 4.5V15.5Z" fill="#D2D2D2"/>
</svg>
