<svg width="24" height="24" viewBox="0 0 24 24" fill="none" xmlns="http://www.w3.org/2000/svg">
<path d="M10 4H7.5L6.21487 6.28468M14 4H16.5L17.787 6.28802M10 20H7.5L6.21205 17.7103M14 20H16.5L17.7884 17.7096M19.747 9.77244L21 12L19.7484 14.2251M4.25634 9.76651L3 12L4.25185 14.2255M10 5.50098H14M16.4922 7.0083L18.446 10.4987M16.4922 16.9858L18.446 13.4955M7.50781 7.0083L5.55402 10.4987M7.50781 16.9858L5.55402 13.4955M10 18.5118H14M12 15V9H11.5L10 10.5M12 15H10M12 15H14" stroke="black" stroke-width="1.5"/>
</svg>
