<svg width="24" height="18" viewBox="0 0 24 18" fill="none" xmlns="http://www.w3.org/2000/svg">
<g clip-path="url(#clip0_1256_548)">
<g clip-path="url(#clip1_1256_548)">
<path d="M24 0H0V18H24V0Z" fill="#00993E"/>
<path d="M24 2.57159H0V5.14319H24V2.57159Z" fill="white"/>
<path d="M24 7.71429H0V10.2859H24V7.71429Z" fill="white"/>
<path d="M24 12.8575H0V15.4291H24V12.8575Z" fill="white"/>
<path d="M13.68 0H0V7.71429L13.68 7.7142V0Z" fill="#C8312A"/>
<path d="M5.78119 4.3093C5.78119 4.3093 5.66359 4.3585 5.74399 5.2999C5.80999 6.0745 6.08599 6.3271 6.08599 6.3271L6.20659 6.8065L7.35019 6.8113C7.35019 6.8113 7.37119 6.5143 7.41499 6.4207C7.52359 6.1897 7.95499 5.9263 8.13979 5.5279C8.33839 5.2855 8.23879 4.7899 8.63779 4.3117C8.83579 4.0741 8.40559 4.1749 8.40559 4.1749C8.16979 4.3315 8.05459 4.5151 7.99519 4.6435C7.95499 4.8907 7.77019 5.0971 7.75279 4.9177C7.75279 4.9177 7.68559 4.6075 7.48399 4.0039C7.46419 3.8251 7.37779 3.2065 7.35919 2.7349C7.34599 2.4277 7.07719 2.4091 7.05499 2.7211L7.02259 3.9565L6.95839 2.5291C6.93079 2.1253 6.62539 2.1853 6.61219 2.5201L6.59899 4.0063L6.54319 2.5657C6.46039 2.2903 6.24259 2.4535 6.23899 2.7517L6.20179 4.1533C6.20179 4.1533 6.15499 3.3859 6.14419 3.0619C6.13399 2.8669 5.90599 2.8813 5.88439 3.1603C5.85319 3.5635 5.80399 3.8917 5.78119 4.3093Z" fill="white"/>
<path d="M6.4929 1.67828L6.8403 0.608482L7.1877 1.67828L6.2775 1.01708H7.4025L6.4929 1.67828Z" fill="white"/>
<path d="M9.19583 2.1049L8.28563 1.4437H9.41063L8.50043 2.1049L8.84783 1.0351L9.19583 2.1049Z" fill="white"/>
<path d="M10.9143 3.37629L10.0041 2.71509H11.1291L10.2189 3.37629L10.5663 2.30649L10.9143 3.37629Z" fill="white"/>
<path d="M11.909 5.17207L10.9988 4.51087H12.1238L11.2136 5.17207L11.561 4.10227L11.909 5.17207Z" fill="white"/>
<path d="M4.4847 2.1049L5.39491 1.4437H4.26991L5.1801 2.1049L4.83271 1.0351L4.4847 2.1049Z" fill="white"/>
<path d="M2.76626 3.37629L3.67646 2.71509H2.55146L3.46166 3.37629L3.11426 2.30649L2.76626 3.37629Z" fill="white"/>
<path d="M1.77142 5.17207L2.68162 4.51087H1.55602L2.46622 5.17207L2.11882 4.10227L1.77142 5.17207Z" fill="white"/>
</g>
</g>
<rect x="0.25" y="0.25" width="23.5" height="17.5" rx="1.75" stroke="#DDE0EA" stroke-width="0.5" style="fill-opacity:0"/>
<defs>
<clipPath id="clip0_1256_548">
<rect width="24" height="18" rx="2" fill="white"/>
</clipPath>
<clipPath id="clip1_1256_548">
<rect width="24" height="18" fill="white"/>
</clipPath>
</defs>
</svg>
