<svg width="24" height="18" viewBox="0 0 24 18" fill="none" xmlns="http://www.w3.org/2000/svg">
<g clip-path="url(#clip0_1_31)">
<mask id="mask0_1_31" style="mask-type:luminance" maskUnits="userSpaceOnUse" x="0" y="0" width="24" height="18">
<path d="M22 0H2C0.89543 0 0 0.89543 0 2V16C0 17.1046 0.89543 18 2 18H22C23.1046 18 24 17.1046 24 16V2C24 0.89543 23.1046 0 22 0Z" fill="white"/>
</mask>
<g mask="url(#mask0_1_31)">
<path d="M0 0H23.9999V18H0V0Z" fill="#D32011"/>
<path d="M0 0H7.49998V18H0V0Z" fill="black"/>
<path d="M16.5 0H23.9999V18H16.5V0Z" fill="#007A36"/>
</g>
<path d="M22 0.25H2C1.0335 0.25 0.25 1.0335 0.25 2V16C0.25 16.9665 1.0335 17.75 2 17.75H22C22.9665 17.75 23.75 16.9665 23.75 16V2C23.75 1.0335 22.9665 0.25 22 0.25Z" stroke="#DDE0EA" stroke-width="0.5" style="fill-opacity:0"/>
<path d="M13.8235 11.5176H13.2706C13.2706 11.7471 13.2235 11.9823 13.0882 12.1176H14.2C13.9647 11.9294 13.8235 11.7 13.8235 11.5176Z" fill="white"/>
<path d="M13.8706 8.37057L14.1941 8.04704H13.1765L12.6706 7.67645L11.1412 7.62939L10.6824 8.04704H9.6647L9.98823 8.37057H13.8706Z" fill="white"/>
<path d="M11.2353 7.58234H12.5765C12.7588 7.48822 12.8059 7.11763 12.8059 6.98234C12.8059 6.4294 12.4353 6.1941 12.1118 6.1941C12.0647 6.1941 12.0176 6.14705 11.9706 6.09999C11.9235 5.95881 11.9235 5.87057 11.9235 5.87057C11.8765 5.87057 11.9235 5.91763 11.8765 6.05293C11.8765 6.09999 11.8294 6.14705 11.7353 6.14705C11.2706 6.14705 10.9941 6.51763 11.0412 6.93528C11.0529 7.30587 11.0941 7.48822 11.2353 7.58234Z" fill="white"/>
<path d="M13.1765 11.7L12.9471 11.5588V11.2353L12.8059 11.1412V10.8647L12.5765 10.7706V10.5412L12.3941 10.4941V10.2647L12.1177 10.1706L11.9765 10.0765V9.89411H10.9588V9.75881C10.9588 9.24705 11.6059 8.78823 12.0236 8.78823C12.5353 8.78823 13.0883 9.25293 13.0883 9.75881V10.2706H13.1353V9.75881C13.1353 9.29411 12.5824 8.74117 12.0706 8.74117H13.7824V8.69411H9.98826V8.74117H11.7941C11.4706 8.74117 10.7294 9.11175 10.7294 9.75881V11.5647H11.1471V11.7941H10.6353C10.5883 11.7941 10.5412 11.7 10.5412 11.6118H10.0294C10.0294 11.8412 9.88826 12.0765 9.65884 12.2588H11.1883V11.8412H11.6059L11.7 12.2588H12.0706L11.9294 11.8412H12.3L12.5294 12.2588H13.0412L12.6706 11.8412C12.6236 11.7 13.1765 11.7 13.1765 11.7ZM11.1883 11.0529H11.4647L11.5118 11.4235H11.1412V11.0529M11.8824 11.7H11.5588L11.5118 11.3294H11.7412L11.6471 10.9588H11.6941H11.7412H11.7883L11.9706 11.3294H11.7412L11.8824 11.7ZM12.253 11.7L12.0236 11.3294H12.3471L12.6706 11.7H12.253Z" fill="white"/>
<path d="M13.0412 10.3588H12.9941V10.8706H13.0412V10.3588Z" fill="white"/>
<path d="M10.0765 10.9118H10.6294V10.2647H10.0765V10.4059L8.96471 8.51175L9.01177 8.41763C9.01177 8.32352 8.96471 8.27646 8.87059 8.27646C8.77648 8.27646 8.72942 8.32352 8.72942 8.41763C8.72942 8.51175 8.77648 8.55881 8.87059 8.55881H8.91765L8.96471 8.60587C8.8706 8.60587 8.78236 8.83528 8.50001 9.07058C8.35883 9.16469 8.27059 9.53528 8.17648 9.71763C8.17648 9.76469 8.17648 9.81175 8.17648 9.85881V9.90587C8.17648 9.99999 8.17648 10.047 8.17648 10.1353C8.17648 10.2235 8.08236 10.4588 8.12942 10.5059C8.27059 10.6 8.50001 10.9235 8.59412 11.0176C8.64118 11.0647 8.7353 10.6941 8.77648 10.4647V10.4059C8.82354 10.2235 8.82354 9.94116 8.95883 9.80587L9.00589 9.75881C9.10001 9.66469 9.32942 9.57646 9.42354 9.43528L10.0706 10.5941V10.9118" fill="white"/>
<path d="M10.5882 6.65881H10.0765V6.75293H10.5882V6.65881Z" fill="white"/>
<path d="M10.5882 6.84117H10.0765V7.85882H10.5882V6.84117Z" fill="white"/>
<path d="M10.3118 6.09999C10.2177 6.09999 10.0353 6.28234 10.0824 6.51764H10.6353C10.6353 6.28823 10.4471 6.09999 10.3118 6.09999Z" fill="white"/>
<path d="M10.5882 8.69411H10.0353V9.48234H10.5882V8.69411Z" fill="white"/>
<path d="M10.6294 9.94116H10.0765V10.0823H10.6294V9.94116Z" fill="white"/>
<path d="M10.6353 11.0059H10.0353V11.3765H10.6353V11.0059Z" fill="white"/>
<path d="M10.0765 9.80588H10.5882L10.6823 9.6647H10.0353L10.0765 9.80588Z" fill="white"/>
<path d="M11.0941 8.74117H10.7235V9.20587C10.8176 8.97058 10.9117 8.8294 11.0941 8.74117Z" fill="white"/>
<path d="M15.6765 9.89411C15.6765 9.8 15.6765 9.75294 15.6765 9.71176C15.6765 9.52941 15.5823 9.2 15.3529 9.0647C15.1235 8.88235 14.9353 8.6 14.8882 8.6L14.9353 8.55294H14.9823C15.0764 8.55294 15.1235 8.50588 15.1235 8.41176C15.1235 8.31764 15.0764 8.27058 14.9823 8.27058C14.8882 8.27058 14.8412 8.31764 14.8412 8.41176L14.8882 8.50588L13.8706 10.4059V10.2647H13.3176V10.9118H13.8706V10.5412L14.5176 9.38235C14.5647 9.42941 14.7941 9.52353 14.9353 9.70588L14.9823 9.75294C15.1235 9.93529 15.0764 10.1706 15.1235 10.3529V10.4C15.1706 10.5823 15.2176 11 15.3059 10.9529C15.4 10.8588 15.6294 10.5823 15.7706 10.4412C15.8176 10.3941 15.7235 10.2118 15.7235 10.0706C15.6294 10.0353 15.6765 9.98823 15.6765 9.89411Z" fill="white"/>
<path d="M13.8294 6.65881H13.3176V6.75293H13.8294V6.65881Z" fill="white"/>
<path d="M13.8294 6.84117H13.3176V7.85882H13.8294V6.84117Z" fill="white"/>
<path d="M13.8235 6.47058C13.8235 6.28823 13.6824 6.05293 13.5941 6.05293C13.5059 6.05293 13.3176 6.23529 13.3647 6.47058H13.8235Z" fill="white"/>
<path d="M13.8235 8.69411H13.2706V9.48234H13.8235V8.69411Z" fill="white"/>
<path d="M13.8235 9.94116H13.2706V10.0823H13.8235V9.94116Z" fill="white"/>
<path d="M13.8706 11.0059H13.2706V11.3765H13.8706V11.0059Z" fill="white"/>
<path d="M13.1765 9.6647L13.2706 9.80588H13.7823L13.8706 9.6647H13.1765Z" fill="white"/>
<path d="M13.1294 9.2V8.73529H12.7588C12.9471 8.82941 13.0412 8.97058 13.1294 9.2Z" fill="white"/>
<path d="M17.2471 9.57059C17.4294 9.47647 17.7118 9.34118 17.8471 9.15294C17.9882 8.92353 17.9412 8.45882 17.9412 8.45882C17.9412 8.45882 17.5706 8.6 17.2941 8.78235C17.2941 8.6 17.2 8.31765 17.1118 8.13529C17.2529 7.99412 17.5294 7.76471 17.5765 7.62353C17.7176 7.3 17.5294 6.92941 17.5294 6.92941C17.5294 6.92941 17.2059 7.11176 16.9765 7.39412C16.9294 7.21176 16.7941 6.97647 16.6059 6.79412C16.7 6.61176 16.9294 6.32941 16.9294 6.19412C16.9765 5.82353 16.7 5.5 16.7 5.5C16.7 5.5 16.4706 5.82353 16.2824 6.1C16.1412 5.91765 15.8647 5.63529 15.6824 5.5C15.7765 5.35882 15.7765 5.17647 15.7765 4.98823C15.7765 3.87647 14.0647 3 11.9353 3C9.85294 3 8.09412 3.87647 8.09412 4.98823C8.09412 5.12941 8.14118 5.35882 8.18823 5.5C8.00588 5.64118 7.72353 5.87059 7.58823 6.1C7.44706 5.82353 7.17059 5.5 7.17059 5.5C7.17059 5.5 6.84706 5.87059 6.94118 6.19412C6.98823 6.37647 7.12353 6.65882 7.26471 6.79412C7.12353 6.97647 6.94118 7.21176 6.89412 7.39412C6.71176 7.16471 6.34118 6.92941 6.34118 6.92941C6.34118 6.92941 6.15882 7.34706 6.29412 7.62353C6.38823 7.80588 6.61765 8.04118 6.75882 8.13529C6.66471 8.31765 6.61765 8.6 6.57647 8.78235C6.43529 8.64118 6.02353 8.45882 6.02353 8.45882C6.02353 8.45882 5.92941 8.92353 6.11765 9.15294C6.21176 9.29412 6.53529 9.47647 6.71765 9.57059C6.67059 9.75294 6.67059 10.0824 6.71765 10.2647C6.39412 10.1706 6.02353 10.1235 6.02353 10.1235C6.02353 10.1235 6.07059 10.5882 6.34706 10.7706C6.48824 10.8647 6.81176 10.9529 6.99412 10.9529C7.04118 11.1353 7.08824 11.4647 7.17647 11.6C6.9 11.5529 6.48235 11.6471 6.48235 11.6471C6.48235 11.6471 6.62353 12.1118 6.94706 12.2C7.12941 12.2471 7.45882 12.2471 7.64118 12.2471C7.73529 12.4294 7.82353 12.7118 8.01176 12.8471C7.68823 12.8941 7.36471 13.0294 7.36471 13.0294C7.36471 13.0294 7.59412 13.4471 7.96471 13.4471C8.14706 13.4471 8.47647 13.4 8.65882 13.3059C8.8 13.4882 8.93529 13.6765 9.17059 13.8176C8.84706 13.9588 8.57059 14.2353 8.57059 14.2353C8.57059 14.2353 8.94118 14.5118 9.26471 14.4647C9.35882 14.4647 9.40588 14.4176 9.49412 14.3706L9.02941 14.9706H15.0412L14.6235 14.5059C14.7176 14.5529 14.7647 14.5529 14.8529 14.6C15.2235 14.6471 15.5471 14.3706 15.5471 14.3706C15.5471 14.3706 15.2235 14.1412 14.9471 13.9529C15.1294 13.8588 15.3176 13.6294 15.4588 13.4412C15.6412 13.5353 15.9706 13.5824 16.1529 13.5824C16.5235 13.5353 16.7529 13.1647 16.7529 13.1647C16.7529 13.1647 16.3824 13.0235 16.1059 12.9824C16.2471 12.8412 16.3353 12.5647 16.4765 12.3824C16.6588 12.3824 16.9882 12.4294 17.1706 12.3353C17.4471 12.1941 17.6353 11.7824 17.6353 11.7824C17.6353 11.7824 17.1706 11.7824 16.8471 11.7824C16.9412 11.6 16.9882 11.3176 17.0294 11.1353C17.2118 11.0882 17.5412 11.0412 17.6765 10.9529C17.9059 10.7706 18 10.3059 18 10.3059C18 10.3059 17.5824 10.3529 17.3059 10.4471C17.2941 10.0824 17.2471 9.84706 17.2471 9.57059ZM9.38235 13.4118C9.24118 13.3176 9.01176 13.2294 8.82941 13.1824C8.87647 13.0412 8.97059 12.8588 9.01176 12.7176H9.47647C9.47647 12.8588 9.38235 13.1353 9.38235 13.4118ZM13.8235 13.1824C13.7765 13.3235 13.7765 13.5529 13.8235 13.7353L13.5471 13.3647H10.3059L9.98235 13.7353C10.0294 13.5529 10.0294 13.3176 9.98235 13.1824C9.93529 12.9529 9.65882 12.7647 9.51765 12.7176H14.2353C14.1529 12.8118 13.9176 12.9471 13.8235 13.1824ZM14.4765 13.4118C14.4765 13.1824 14.3824 12.8588 14.3824 12.7176H14.8471C14.8941 12.8588 14.9882 13.0882 15.0294 13.1824C14.8412 13.2706 14.6588 13.3176 14.4765 13.4118ZM16.5529 10.1765C16.3235 9.99412 15.9529 9.71176 15.9529 9.71176C15.9529 9.71176 15.8118 10.1765 15.9529 10.4529C16.0471 10.6353 16.3706 10.8706 16.5059 10.9647C16.3647 11.1059 16.2765 11.2412 16.1353 11.4294C15.9941 11.1059 15.6706 10.8294 15.6706 10.8294C15.6706 10.8294 15.4412 11.2471 15.4882 11.5235C15.5353 11.7059 15.7176 11.9882 15.9059 12.1706C15.7647 12.2647 15.5353 12.3529 15.4412 12.5412C15.3471 12.2647 15.1176 11.8471 15.1176 11.8471C15.1176 11.8471 14.7471 12.1706 14.7471 12.4941C14.7471 12.5412 14.7471 12.6353 14.7941 12.7235L14.2824 12.2588H9.56471L9.05294 12.7235C9.05294 12.6294 9.1 12.5824 9.1 12.4941C9.1 12.1235 8.72941 11.8471 8.72941 11.8471C8.72941 11.8471 8.54706 12.2176 8.40588 12.5412C8.31176 12.4 8.08235 12.3118 7.94118 12.1706C8.08235 12.0294 8.31176 11.7529 8.35882 11.5235C8.5 11.2 8.21765 10.8765 8.21765 10.8765C8.21765 10.8765 7.89412 11.2 7.75294 11.4765C7.65882 11.3353 7.57059 11.1529 7.38235 11.0118C7.56471 10.9176 7.84706 10.6882 7.93529 10.5C8.07647 10.1765 7.93529 9.75882 7.93529 9.75882C7.93529 9.75882 7.51765 9.94118 7.33529 10.2235C7.28823 10.0824 7.24118 9.85294 7.15294 9.71176C7.33529 9.66471 7.66471 9.52941 7.8 9.34118C8.02941 9.11176 7.98235 8.64706 7.98235 8.64706C7.98235 8.64706 7.56471 8.74118 7.28824 8.87647C7.28824 8.73529 7.28824 8.50588 7.24118 8.32353C7.42353 8.32353 7.79412 8.27647 7.98235 8.18235C8.25882 8 8.35294 7.53529 8.35294 7.53529C8.35294 7.53529 7.88824 7.53529 7.61176 7.62941C7.65882 7.48823 7.65882 7.25882 7.70588 7.07647C7.88823 7.12353 8.25882 7.17059 8.44706 7.12353C8.81765 7.02941 8.95882 6.61176 8.95882 6.61176C8.95882 6.61176 8.54118 6.51765 8.21765 6.51765C8.44706 6.1 8.58823 5.35882 8.58823 5.35882C8.58823 5.35882 8.54118 5.35882 8.49412 5.40588C9.09412 4.71176 10.4353 4.20588 12.0118 4.20588C13.5824 4.20588 14.9235 4.71765 15.5294 5.40588C15.4824 5.35882 15.4353 5.35882 15.4353 5.35882C15.4353 5.35882 15.5294 6.1 15.8059 6.51765C15.4353 6.51765 15.0647 6.61176 15.0647 6.61176C15.0647 6.61176 15.2471 7.02941 15.5765 7.12353C15.7588 7.17059 16.1294 7.12353 16.3176 7.07647C16.3176 7.25882 16.3176 7.49412 16.4118 7.62941C16.1353 7.53529 15.6706 7.53529 15.6706 7.53529C15.6706 7.53529 15.7647 8 16.0412 8.18235C16.2235 8.27647 16.5529 8.32353 16.7824 8.32353C16.7353 8.50588 16.6882 8.74118 16.7353 8.87647C16.4118 8.73529 16.0412 8.64706 16.0412 8.64706C16.0412 8.64706 15.9941 9.11176 16.2235 9.34118C16.3647 9.48235 16.6882 9.57059 16.8706 9.71176C16.6941 9.84706 16.6 9.98823 16.5529 10.1765Z" fill="white"/>
</g>
<defs>
<clipPath id="clip0_1_31">
<rect width="24" height="18" fill="white"/>
</clipPath>
</defs>
</svg>
