<svg width="24" height="18" viewBox="0 0 24 18" fill="none" xmlns="http://www.w3.org/2000/svg">
<g clip-path="url(#clip0_1223_3904)">
<g clip-path="url(#clip1_1223_3904)">
<path d="M0 0H24V18H0V0Z" fill="#FF0000"/>
<path fill-rule="evenodd" clip-rule="evenodd" d="M9.74297 3.68628C9.73922 3.55503 10.028 3.49878 10.2005 3.49878H10.2042C10.3603 3.51579 10.5124 3.55889 10.6542 3.62628C10.8917 3.70177 11.137 3.74959 11.3855 3.76878C11.2808 3.85599 11.2325 3.88857 11.1656 3.93361C11.1318 3.95636 11.0933 3.98228 11.0405 4.02003C11.2422 4.09669 11.4179 4.2294 11.5467 4.40253C11.4767 4.40503 11.4226 4.40503 11.3788 4.40503C11.2913 4.40503 11.2455 4.40503 11.198 4.42503C11.4867 4.50753 11.6217 4.55628 11.7717 4.71003C11.7155 4.71753 11.6367 4.73253 11.603 4.74753C11.5692 4.76253 11.5805 4.77753 11.6067 4.80003C11.6427 4.82541 11.7395 4.93192 11.8305 5.03208C11.9009 5.10949 11.9678 5.1831 12.0005 5.21253C12.0332 5.1831 12.1001 5.10949 12.1705 5.03208C12.2615 4.93192 12.3583 4.82541 12.3943 4.80003C12.4205 4.77753 12.4318 4.76253 12.398 4.74753C12.3643 4.73253 12.2855 4.71753 12.2293 4.71003C12.3793 4.55628 12.5143 4.50753 12.803 4.42503C12.7555 4.40503 12.7097 4.40503 12.6222 4.40503C12.5784 4.40503 12.5243 4.40503 12.4543 4.40253C12.5831 4.2294 12.7588 4.09669 12.9605 4.02003C12.9077 3.98228 12.8692 3.95636 12.8354 3.93361C12.7685 3.88857 12.7202 3.85599 12.6155 3.76878C12.8639 3.74959 13.1093 3.70177 13.3468 3.62628C13.4886 3.55889 13.6407 3.51579 13.7968 3.49878H13.8005C13.973 3.49878 14.2618 3.55503 14.258 3.68628C14.7455 3.60753 14.7943 3.80628 14.7643 3.98628C14.7193 3.91503 14.663 3.87378 14.618 3.87003C14.5543 3.85878 14.4868 3.88128 14.4155 3.92253C14.3483 3.96469 14.2877 4.01649 14.2355 4.07628C14.3997 4.11553 14.5299 4.09366 14.6584 4.07206C14.665 4.07096 14.6715 4.06987 14.678 4.06878C14.7543 4.05252 14.8268 4.02198 14.8918 3.97878C14.926 3.95594 14.9464 3.9331 14.9765 3.89924C14.9959 3.87751 15.0193 3.85125 15.053 3.81753C15.1543 3.71253 15.263 3.74253 15.2293 3.90378C15.1505 4.05378 15.0193 4.12128 14.8543 4.15128C14.8368 4.15377 14.8174 4.15699 14.7962 4.1605C14.7217 4.17286 14.6256 4.18878 14.5205 4.18878C14.474 4.18878 14.4258 4.18656 14.3791 4.18441C14.2902 4.18031 14.2071 4.17649 14.153 4.18878C14.1634 4.19518 14.1741 4.20277 14.1857 4.21094C14.2283 4.24107 14.282 4.27903 14.3705 4.29378C14.4463 4.30893 14.5475 4.27308 14.6376 4.24117C14.6813 4.22569 14.7225 4.21113 14.7568 4.20378C14.7455 4.29003 14.633 4.37253 14.4155 4.41753L14.3893 4.42299C14.0411 4.49549 13.7544 4.55518 13.5605 4.66128C13.4033 4.74891 13.2645 4.86606 13.1518 5.00628C12.9918 5.19345 12.9678 5.34356 12.9591 5.39776C12.9582 5.40328 12.9575 5.40781 12.9568 5.41128C12.9193 5.74128 13.0355 5.92878 13.253 5.98878C13.358 6.01503 13.553 5.96253 13.6205 5.88003C13.6955 5.79753 13.7593 5.65503 13.7405 5.43003C13.7365 5.41251 13.729 5.38839 13.7204 5.36083C13.6885 5.25865 13.6418 5.10922 13.7068 5.07378C14.0978 4.8589 14.5024 4.66975 14.918 4.50753C15.0118 4.47003 15.0868 4.59753 15.1168 4.65003C15.3937 4.61143 15.6585 4.51164 15.892 4.35791C16.1255 4.20418 16.3219 4.00037 16.4668 3.76128C16.6243 3.47628 16.8905 3.76128 16.8455 4.03503C16.7743 4.33503 16.5455 4.55253 16.268 4.71003C15.9868 4.86378 15.6305 5.01753 15.2743 5.01003C15.0793 5.04753 15.083 5.29503 15.3118 5.34378C15.7655 5.34378 16.1293 5.33628 16.4705 5.00628C16.7293 4.77003 16.8718 5.05128 16.8005 5.20878C16.673 5.70003 15.9718 5.83878 15.263 5.68128C14.9855 5.63628 15.1505 5.92878 15.2255 5.93253C15.5255 6.14628 16.0543 6.35253 16.523 5.93253C16.7368 5.76753 16.883 5.90253 16.8005 6.13878C16.5943 6.75753 15.7993 6.62628 15.2555 6.32628C15.1168 6.24753 14.9893 6.42753 15.158 6.56628C15.8368 7.03878 16.1743 7.04628 16.4818 6.86628C16.8643 6.71253 16.8943 7.13628 16.6693 7.27878C16.418 7.42878 15.7768 7.31628 15.3043 7.01628C15.1018 6.86628 15.0943 7.10253 15.2218 7.19628C15.7805 7.68003 16.0018 7.80753 16.583 7.72878C16.8718 7.70628 16.868 8.06253 16.643 8.20128C16.3318 8.39253 15.7243 8.07753 15.2555 7.68378C15.0568 7.57878 15.023 7.75128 15.1205 7.95753C15.3281 8.25126 15.6103 8.48427 15.938 8.63253C16.2005 8.73378 16.448 8.71878 16.6243 8.65878C16.8418 8.58378 16.868 8.80878 16.748 9.01128C16.6768 9.13503 16.3805 9.17253 16.058 9.06003C15.7355 8.94753 15.3905 8.67753 15.1543 8.36628C14.948 8.18253 14.9705 8.42628 15.068 8.59878C15.5405 9.34878 15.9755 9.62628 16.5493 9.58128C16.8005 9.53628 16.8605 9.73128 16.6993 9.91878C16.4143 10.1513 16.0618 10.1438 15.7468 9.91128C15.473 9.64878 14.9443 9.07128 14.6668 8.76378C14.4718 8.61003 14.408 8.76378 14.468 9.07878C14.5205 9.25878 14.648 9.45378 15.0043 9.58878C15.248 9.72753 15.0643 9.91878 14.8843 9.92628C14.783 9.92628 14.5805 9.80628 14.423 9.63378C14.2577 9.44393 14.2173 9.30659 14.1468 9.06658C14.131 9.01267 14.1136 8.95357 14.093 8.88753C13.988 8.71503 13.7968 8.79753 13.7968 8.97753C13.8905 9.33753 13.9655 9.40128 14.153 9.54753C14.3293 9.71628 14.0293 9.77253 13.928 9.70128C13.6381 9.50804 13.5324 9.25587 13.4356 9.02507L13.433 9.01878C13.358 8.85378 13.1555 8.93253 13.253 9.20628C13.478 9.85878 13.853 10.1138 14.5018 10.2488C14.5655 10.26 14.6068 10.2975 14.5843 10.3725L14.3218 10.635C14.5511 10.7036 14.756 10.7551 14.9651 10.8076C15.1218 10.8469 15.2808 10.8868 15.4543 10.935L16.0093 10.5675C16.0146 10.5544 16.0197 10.5404 16.0249 10.5262C16.067 10.4103 16.1163 10.2744 16.3768 10.3913C16.5718 10.3013 16.6655 10.335 16.7743 10.4288C16.6168 10.4288 16.5493 10.4738 16.4855 10.545C16.403 10.7588 16.2155 10.7813 16.0243 10.7213C15.9623 10.772 15.9154 10.8179 15.868 10.8644C15.8207 10.9107 15.7729 10.9576 15.7093 11.01L16.3355 10.9913C16.5605 10.755 16.733 10.7663 16.8905 10.9538C16.8968 10.9547 16.903 10.9557 16.9089 10.9565C17.0193 10.9729 17.0672 10.98 17.1455 11.1188C17.018 11.0663 16.9355 11.0513 16.8793 11.1075C16.643 11.2463 16.4893 11.2163 16.373 11.1075L15.7168 11.1488C15.762 11.1899 15.8163 11.2198 15.8703 11.2495C15.9148 11.2739 15.9591 11.2983 15.998 11.3288C16.3355 11.2313 16.5155 11.3663 16.5755 11.64C16.6229 11.7498 16.6385 11.8706 16.6205 11.9888C16.5905 11.8763 16.5343 11.7825 16.4368 11.7263C16.1368 11.8013 16.0243 11.6775 16.0055 11.4975C15.931 11.4379 15.8398 11.4014 15.7489 11.3651C15.6569 11.3283 15.5653 11.2916 15.4918 11.2313C15.3902 11.2622 15.3199 11.2866 15.244 11.3129C15.191 11.3313 15.1352 11.3506 15.0643 11.3738C15.0043 11.5613 14.8655 11.6325 14.6405 11.5838C14.4255 11.5899 14.4168 11.6665 14.4083 11.7415C14.4064 11.758 14.4046 11.7744 14.4005 11.79C14.3255 11.6663 14.3293 11.5425 14.4943 11.43C14.5543 11.2688 14.6893 11.1938 14.8618 11.2875C14.946 11.2646 14.998 11.2357 15.0506 11.2065C15.1011 11.1785 15.1522 11.1501 15.233 11.1263C15.0268 11.0607 14.8505 11.0203 14.6743 10.98C14.498 10.9397 14.3218 10.8994 14.1155 10.8338L13.8268 11.0888C13.7705 11.1225 13.718 11.13 13.6843 11.0888C13.5777 10.9344 13.4954 10.7883 13.4189 10.6526C13.3095 10.4585 13.212 10.2856 13.073 10.14C13.0693 10.1358 13.0655 10.1316 13.0616 10.1273C12.9699 10.0244 12.8579 9.89868 12.7355 9.86628C12.6718 9.84753 12.593 9.85878 12.5405 9.91503C12.4918 9.96753 12.4505 10.0688 12.4655 10.2225C12.4872 10.399 12.5267 10.4783 12.5737 10.5724C12.5836 10.5923 12.5938 10.6128 12.6043 10.635C12.6569 10.7434 12.7146 10.816 12.7775 10.895C12.7908 10.9117 12.8043 10.9286 12.818 10.9463C12.9504 11.1218 13.1238 11.2329 13.2452 11.3108C13.2613 11.3211 13.2765 11.3308 13.2905 11.34C13.4772 11.4596 13.5776 11.4454 13.7013 11.4278C13.7366 11.4228 13.7738 11.4175 13.8155 11.415C14.0555 11.4413 14.1155 11.5575 13.9205 11.7188C13.7405 11.8163 13.5755 11.8275 13.4405 11.8013C13.3558 11.7843 13.2583 11.6972 13.1737 11.6216C13.1459 11.5968 13.1196 11.5732 13.0955 11.5538C12.9905 11.43 12.8105 11.5763 12.9343 11.7225C13.1555 11.985 13.373 12.1575 13.6468 12.1538C13.9355 12.1913 13.8793 12.3525 13.6918 12.4313C13.3468 12.57 13.0393 12.3075 12.8818 12.1313C12.7618 12 12.6755 11.9963 12.6943 12.2025C12.818 12.5738 12.9793 12.7163 13.2493 12.735C13.4668 12.7125 13.4705 12.885 13.3093 12.9975C12.9493 13.245 12.6868 12.8175 12.563 12.5625C12.4768 12.33 12.3418 12.4388 12.3268 12.63C12.3268 12.8888 12.4393 13.095 12.7505 13.3575C12.6324 13.5469 12.5039 13.7382 12.3755 13.9294C12.2471 14.1207 12.1186 14.3119 12.0005 14.5013C11.8824 14.3119 11.7539 14.1207 11.6255 13.9294C11.497 13.7382 11.3686 13.5469 11.2505 13.3575C11.5617 13.095 11.6742 12.8888 11.6742 12.63C11.6592 12.4388 11.5242 12.33 11.438 12.5625C11.3142 12.8175 11.0517 13.245 10.6917 12.9975C10.5305 12.885 10.5342 12.7125 10.7517 12.735C11.0217 12.7163 11.183 12.5738 11.3067 12.2025C11.3255 11.9963 11.2392 12 11.1192 12.1313C10.9617 12.3075 10.6542 12.57 10.3092 12.4313C10.1217 12.3525 10.0655 12.1913 10.3542 12.1538C10.628 12.1575 10.8455 11.985 11.0667 11.7225C11.1905 11.5763 11.0105 11.43 10.9055 11.5538C10.8814 11.5732 10.855 11.5968 10.8273 11.6216C10.7427 11.6972 10.6452 11.7843 10.5605 11.8013C10.4255 11.8275 10.2605 11.8163 10.0805 11.7188C9.88547 11.5575 9.94547 11.4413 10.1855 11.415C10.2271 11.4175 10.2644 11.4228 10.2997 11.4278C10.4234 11.4454 10.5238 11.4596 10.7105 11.34C10.7245 11.3308 10.7397 11.3211 10.7558 11.3108C10.8772 11.2329 11.0505 11.1218 11.183 10.9463C11.1967 10.9286 11.2102 10.9117 11.2235 10.895C11.2863 10.816 11.3441 10.7434 11.3967 10.635C11.4072 10.6128 11.4174 10.5923 11.4273 10.5724C11.4742 10.4783 11.5138 10.399 11.5355 10.2225C11.5505 10.0688 11.5092 9.96753 11.4605 9.91503C11.408 9.85878 11.3292 9.84753 11.2655 9.86628C11.1431 9.89868 11.0311 10.0244 10.9393 10.1273C10.9355 10.1316 10.9317 10.1358 10.928 10.14C10.789 10.2856 10.6915 10.4585 10.5821 10.6526C10.5056 10.7883 10.4232 10.9344 10.3167 11.0888C10.283 11.13 10.2305 11.1225 10.1742 11.0888L9.88547 10.8338C9.67922 10.8994 9.50297 10.9397 9.32672 10.98C9.15047 11.0203 8.97422 11.0607 8.76797 11.1263C8.84874 11.1501 8.89985 11.1785 8.95034 11.2065C9.003 11.2357 9.05499 11.2646 9.13922 11.2875C9.31172 11.1938 9.44672 11.2688 9.50672 11.43C9.67172 11.5425 9.67547 11.6663 9.60047 11.79C9.5964 11.7744 9.59454 11.758 9.59267 11.7415C9.58419 11.6665 9.57552 11.5899 9.36047 11.5838C9.13547 11.6325 8.99672 11.5613 8.93672 11.3738C8.86574 11.3506 8.81 11.3313 8.75695 11.3129C8.68109 11.2866 8.61074 11.2622 8.50922 11.2313C8.43564 11.2916 8.34403 11.3283 8.25206 11.3651C8.16121 11.4014 8.07001 11.4379 7.99547 11.4975C7.97672 11.6775 7.86422 11.8013 7.56422 11.7263C7.46672 11.7825 7.41047 11.8763 7.38047 11.9888C7.36248 11.8706 7.37807 11.7498 7.42547 11.64C7.48547 11.3663 7.66547 11.2313 8.00297 11.3288C8.0419 11.2983 8.08619 11.2739 8.13065 11.2495C8.18468 11.2198 8.23896 11.1899 8.28422 11.1488L7.62797 11.1075C7.51172 11.2163 7.35797 11.2463 7.12172 11.1075C7.06547 11.0513 6.98297 11.0663 6.85547 11.1188C6.93374 10.98 6.98164 10.9729 7.09203 10.9565C7.09799 10.9557 7.10413 10.9547 7.11047 10.9538C7.26797 10.7663 7.44047 10.755 7.66547 10.9913L8.29172 11.01C8.22803 10.9576 8.18025 10.9107 8.13295 10.8644C8.08556 10.8179 8.03865 10.772 7.97672 10.7213C7.78547 10.7813 7.59797 10.7588 7.51547 10.545C7.45172 10.4738 7.38422 10.4288 7.22672 10.4288C7.33547 10.335 7.42922 10.3013 7.62422 10.3913C7.88466 10.2744 7.93402 10.4103 7.97612 10.5262C7.9813 10.5404 7.98638 10.5544 7.99172 10.5675L8.54672 10.935C8.72019 10.8868 8.87922 10.8469 9.03588 10.8076C9.24496 10.7551 9.44984 10.7036 9.67922 10.635L9.41672 10.3725C9.39422 10.2975 9.43547 10.26 9.49922 10.2488C10.148 10.1138 10.523 9.85878 10.748 9.20628C10.8455 8.93253 10.643 8.85378 10.568 9.01878L10.5653 9.02507C10.4686 9.25587 10.3628 9.50804 10.073 9.70128C9.97172 9.77253 9.67172 9.71628 9.84797 9.54753C10.0355 9.40128 10.1105 9.33753 10.2042 8.97753C10.2042 8.79753 10.013 8.71503 9.90797 8.88753C9.88733 8.95357 9.86998 9.01267 9.85414 9.06658C9.78366 9.30659 9.74332 9.44393 9.57797 9.63378C9.42047 9.80628 9.21797 9.92628 9.11672 9.92628C8.93672 9.91878 8.75297 9.72753 8.99672 9.58878C9.35297 9.45378 9.48047 9.25878 9.53297 9.07878C9.59297 8.76378 9.52922 8.61003 9.33422 8.76378C9.05672 9.07128 8.52797 9.64878 8.25422 9.91128C7.93922 10.1438 7.58672 10.1513 7.30172 9.91878C7.14047 9.73128 7.20047 9.53628 7.45172 9.58128C8.02547 9.62628 8.46047 9.34878 8.93297 8.59878C9.03047 8.42628 9.05297 8.18253 8.84672 8.36628C8.61047 8.67753 8.26547 8.94753 7.94297 9.06003C7.62047 9.17253 7.32422 9.13503 7.25297 9.01128C7.13297 8.80878 7.15922 8.58378 7.37672 8.65878C7.55297 8.71878 7.80047 8.73378 8.06297 8.63253C8.39067 8.48427 8.67288 8.25126 8.88047 7.95753C8.97797 7.75128 8.94422 7.57878 8.74547 7.68378C8.27672 8.07753 7.66922 8.39253 7.35797 8.20128C7.13297 8.06253 7.12922 7.70628 7.41797 7.72878C7.99922 7.80753 8.22047 7.68003 8.77922 7.19628C8.90672 7.10253 8.89922 6.86628 8.69672 7.01628C8.22422 7.31628 7.58297 7.42878 7.33172 7.27878C7.10672 7.13628 7.13672 6.71253 7.51922 6.86628C7.82672 7.04628 8.16422 7.03878 8.84297 6.56628C9.01172 6.42753 8.88422 6.24753 8.74547 6.32628C8.20172 6.62628 7.40672 6.75753 7.20047 6.13878C7.11797 5.90253 7.26422 5.76753 7.47797 5.93253C7.94672 6.35253 8.47547 6.14628 8.77547 5.93253C8.85047 5.92878 9.01547 5.63628 8.73797 5.68128C8.02922 5.83878 7.32797 5.70003 7.20047 5.20878C7.12922 5.05128 7.27172 4.77003 7.53047 5.00628C7.87172 5.33628 8.23547 5.34378 8.68922 5.34378C8.91797 5.29503 8.92172 5.04753 8.72672 5.01003C8.37047 5.01753 8.01422 4.86378 7.73297 4.71003C7.45547 4.55253 7.22672 4.33503 7.15547 4.03503C7.11047 3.76128 7.37672 3.47628 7.53422 3.76128C7.67913 4.00037 7.87547 4.20418 8.10898 4.35791C8.3425 4.51164 8.60732 4.61143 8.88422 4.65003C8.91422 4.59753 8.98922 4.47003 9.08297 4.50753C9.4986 4.66975 9.9032 4.8589 10.2942 5.07378C10.3592 5.10922 10.3125 5.25865 10.2806 5.36083C10.272 5.38839 10.2645 5.41251 10.2605 5.43003C10.2417 5.65503 10.3055 5.79753 10.3805 5.88003C10.448 5.96253 10.643 6.01503 10.748 5.98878C10.9655 5.92878 11.0817 5.74128 11.0442 5.41128C11.0435 5.40781 11.0428 5.40328 11.0419 5.39776C11.0332 5.34356 11.0092 5.19345 10.8492 5.00628C10.7364 4.86606 10.5976 4.74891 10.4405 4.66128C10.2466 4.55518 9.95986 4.49549 9.6117 4.42299L9.58547 4.41753C9.36797 4.37253 9.25547 4.29003 9.24422 4.20378C9.27852 4.21113 9.31963 4.22569 9.36337 4.24117C9.45348 4.27308 9.55472 4.30893 9.63047 4.29378C9.71898 4.27903 9.77267 4.24107 9.81528 4.21094C9.82683 4.20277 9.83757 4.19518 9.84797 4.18878C9.79387 4.17649 9.71076 4.18031 9.62188 4.18441C9.57521 4.18656 9.52695 4.18878 9.48047 4.18878C9.37533 4.18878 9.27929 4.17286 9.20474 4.1605C9.18357 4.15699 9.16414 4.15377 9.14672 4.15128C8.98172 4.12128 8.85047 4.05378 8.77172 3.90378C8.73797 3.74253 8.84672 3.71253 8.94797 3.81753C8.98169 3.85125 9.00509 3.87751 9.02445 3.89924C9.05461 3.9331 9.07496 3.95594 9.10922 3.97878C9.17416 4.02198 9.24668 4.05252 9.32297 4.06878C9.3295 4.06987 9.33602 4.07096 9.34256 4.07206C9.47111 4.09366 9.60131 4.11553 9.76547 4.07628C9.71332 4.01649 9.65267 3.96469 9.58547 3.92253C9.51422 3.88128 9.44672 3.85878 9.38297 3.87003C9.33797 3.87378 9.28172 3.91503 9.23672 3.98628C9.20672 3.80628 9.25547 3.60753 9.74297 3.68628ZM10.4592 3.92253C10.4592 3.86253 10.373 3.81378 10.2305 3.81378C10.088 3.81378 9.99797 3.85878 9.99797 3.91878C9.99797 3.97503 10.088 4.03128 10.2305 4.03128C10.373 4.03128 10.4592 3.98253 10.4592 3.92253ZM13.5418 3.92253C13.5418 3.86253 13.628 3.81378 13.7705 3.81378C13.913 3.81378 14.003 3.85878 14.003 3.91878C14.003 3.97503 13.913 4.03128 13.7705 4.03128C13.628 4.03128 13.5418 3.98253 13.5418 3.92253Z" fill="black"/>
</g>
</g>
<rect x="0.25" y="0.25" width="23.5" height="17.5" rx="1.75" stroke="#DDE0EA" stroke-width="0.5" style="fill-opacity:0"/>
<defs>
<clipPath id="clip0_1223_3904">
<rect width="24" height="18" rx="2" fill="white"/>
</clipPath>
<clipPath id="clip1_1223_3904">
<rect width="24" height="18" fill="white"/>
</clipPath>
</defs>
</svg>
