<svg width="24" height="18" viewBox="0 0 24 18" fill="none" xmlns="http://www.w3.org/2000/svg">
<g clip-path="url(#clip0_1224_140)">
<g clip-path="url(#clip1_1224_140)">
<path d="M12 0H24V18H12V0Z" fill="white"/>
<path d="M0 0H12V18H0V0Z" fill="#006233"/>
<path d="M15.9 6.75C15.4047 5.89211 14.6402 5.22163 13.725 4.84254C12.8098 4.46346 11.7951 4.39695 10.8382 4.65334C9.88139 4.90972 9.03588 5.47468 8.43284 6.26058C7.8298 7.04647 7.50293 8.0094 7.50293 9C7.50293 9.99061 7.8298 10.9535 8.43284 11.7394C9.03588 12.5253 9.88139 13.0903 10.8382 13.3467C11.7951 13.6031 12.8098 13.5365 13.725 13.1575C14.6402 12.7784 15.4047 12.1079 15.9 11.25C15.4339 11.8322 14.7984 12.2553 14.0814 12.4607C13.3644 12.6662 12.6013 12.6439 11.8975 12.3968C11.1937 12.1498 10.5841 11.6903 10.1528 11.0818C9.72146 10.4733 9.4898 9.74586 9.4898 9C9.4898 8.25415 9.72146 7.5267 10.1528 6.9182C10.5841 6.3097 11.1937 5.85019 11.8975 5.60317C12.6013 5.35615 13.3644 5.33382 14.0814 5.53926C14.7984 5.7447 15.4339 6.16777 15.9 6.75ZM16.05 9L12 7.68L14.52 11.13V6.87L12 10.32L16.05 9Z" fill="#D21034"/>
</g>
</g>
<rect x="0.25" y="0.25" width="23.5" height="17.5" rx="1.75" stroke="#DDE0EA" stroke-width="0.5" style="fill-opacity:0"/>
<defs>
<clipPath id="clip0_1224_140">
<rect width="24" height="18" rx="2" fill="white"/>
</clipPath>
<clipPath id="clip1_1224_140">
<rect width="24" height="18" fill="white"/>
</clipPath>
</defs>
</svg>
