<svg width="24" height="18" viewBox="0 0 24 18" fill="none" xmlns="http://www.w3.org/2000/svg">
<g clip-path="url(#clip0_1223_3942)">
<g clip-path="url(#clip1_1223_3942)">
<path d="M0 0H24V18H0V0Z" fill="#D50032"/>
<path d="M0 0H16.62V18H0V0Z" fill="#FEDD00"/>
<path d="M0 0H7.37V18H0V0Z" fill="#10069F"/>
<path d="M11.21 4.84C11.52 4.84 11.65 5.11 11.95 5.11C12.14 5.11 12.26 5.05 12.42 4.95C12.54 4.88 12.61 4.85 12.75 4.85C12.88 4.85 12.97 4.89 13.04 5.01C13.08 5.08 13.11 5.20 13.09 5.28C13.07 5.40 13.03 5.51 12.98 5.61C12.96 5.68 12.93 5.71 12.93 5.78C12.93 5.95 13.15 6.00 13.31 6.01C13.34 6.01 13.62 6.01 13.79 5.84C13.70 5.83 13.59 5.76 13.59 5.67C13.59 5.56 13.67 5.49 13.77 5.46C13.78 5.45 13.82 5.47 13.84 5.46C13.86 5.45 13.85 5.42 13.87 5.41C13.92 5.36 13.95 5.34 14.02 5.34C14.05 5.34 14.09 5.35 14.12 5.37C14.14 5.38 14.14 5.40 14.17 5.40C14.21 5.40 14.23 5.37 14.28 5.37C14.31 5.37 14.35 5.38 14.37 5.39C14.40 5.41 14.40 5.45 14.43 5.45C14.45 5.45 14.53 5.42 14.57 5.42C14.66 5.42 14.71 5.45 14.76 5.52C14.78 5.54 14.79 5.57 14.80 5.57C14.86 5.58 14.91 5.60 14.95 5.64C14.97 5.65 14.98 5.67 15.00 5.69C15.01 5.71 15.02 5.75 15.04 5.76C15.06 5.76 15.09 5.77 15.11 5.78C15.18 5.82 15.22 5.90 15.22 5.98C15.22 6.00 15.21 6.03 15.20 6.06C15.13 6.33 14.95 6.41 14.76 6.64C14.69 6.73 14.63 6.81 14.63 6.94C14.63 6.97 14.66 7.02 14.68 7.05C14.67 6.99 14.69 6.91 14.76 6.91C14.84 6.91 14.91 6.97 14.92 7.06C14.92 7.08 14.91 7.11 14.91 7.13C14.95 7.10 15.01 7.08 15.07 7.07C15.09 7.07 15.12 7.07 15.14 7.07C15.28 7.07 15.43 7.15 15.52 7.23C15.79 7.46 15.82 7.81 15.81 7.90C15.78 8.11 15.80 8.50 15.26 8.65C15.36 8.69 15.42 8.77 15.42 8.86C15.43 8.96 15.35 9.05 15.25 9.05C15.19 9.05 15.14 9.03 15.11 9.00C14.99 9.11 14.97 9.22 14.97 9.38C14.97 9.47 14.99 9.55 15.03 9.62C15.07 9.72 15.10 9.77 15.18 9.83C15.22 9.77 15.26 9.73 15.34 9.73C15.41 9.73 15.47 9.75 15.50 9.82C15.50 9.84 15.50 9.85 15.51 9.87C15.52 9.90 15.54 9.90 15.55 9.92C15.57 9.96 15.55 9.99 15.57 10.03C15.58 10.06 15.61 10.06 15.62 10.09C15.63 10.12 15.64 10.16 15.64 10.19C15.64 10.31 15.53 10.40 15.41 10.40C15.37 10.40 15.35 10.39 15.31 10.39C15.38 10.46 15.44 10.49 15.49 10.57C15.57 10.69 15.58 10.78 15.60 10.92C15.61 10.94 15.61 10.96 15.61 10.99C15.61 11.17 15.58 11.28 15.50 11.44C15.42 11.59 15.35 11.68 15.21 11.78C15.00 11.94 14.84 11.98 14.57 12.03C14.43 12.07 14.28 12.08 14.13 12.09L13.56 12.12C13.28 12.14 13.07 12.18 12.87 12.39C12.97 12.46 13.03 12.53 13.03 12.65C13.03 12.77 12.96 12.86 12.84 12.90C12.81 12.91 12.79 12.90 12.77 12.91C12.74 12.93 12.74 12.96 12.71 12.98C12.66 13.01 12.61 13.02 12.56 13.02C12.45 13.02 12.38 13.00 12.30 12.92C12.21 12.99 12.18 13.06 12.08 13.11C12.05 13.13 12.03 13.16 11.99 13.16C11.94 13.16 11.91 13.12 11.86 13.09C11.79 13.04 11.74 12.99 11.68 12.92C11.59 12.98 11.54 13.02 11.43 13.02C11.38 13.02 11.32 13.01 11.27 12.98C11.24 12.96 11.24 12.93 11.21 12.91C11.18 12.90 11.16 12.90 11.12 12.89C11.00 12.84 10.92 12.75 10.92 12.61C10.92 12.50 10.99 12.42 11.10 12.37C10.90 12.17 10.70 12.14 10.42 12.12L9.85 12.09C9.70 12.08 9.56 12.06 9.41 12.03C9.28 12.01 9.20 12.00 9.08 11.95C8.67 11.75 8.41 11.49 8.36 11.04C8.35 11.01 8.35 10.98 8.35 10.94C8.35 10.71 8.45 10.56 8.61 10.40C8.57 10.39 8.54 10.40 8.50 10.39C8.39 10.35 8.32 10.28 8.32 10.17C8.32 10.13 8.33 10.10 8.34 10.06C8.35 10.04 8.38 10.03 8.39 10.01C8.39 9.97 8.38 9.94 8.40 9.91C8.41 9.88 8.44 9.88 8.45 9.86C8.48 9.78 8.53 9.72 8.61 9.72C8.68 9.72 8.73 9.76 8.76 9.82C8.83 9.79 8.85 9.74 8.89 9.67C8.95 9.56 8.98 9.49 8.98 9.36C8.99 9.28 8.97 9.21 8.95 9.14C8.93 9.08 8.92 9.04 8.88 8.99C8.84 9.03 8.79 9.05 8.74 9.04C8.62 9.04 8.53 8.94 8.53 8.83C8.53 8.75 8.58 8.68 8.65 8.65C8.59 8.59 8.54 8.59 8.47 8.54C8.36 8.48 8.33 8.41 8.26 8.30C8.21 8.24 8.20 8.19 8.18 8.11C8.15 8.03 8.14 7.95 8.14 7.86C8.14 7.84 8.14 7.82 8.14 7.80C8.16 7.60 8.20 7.48 8.32 7.32C8.40 7.23 8.45 7.17 8.55 7.13C8.65 7.09 8.70 7.06 8.80 7.06C8.83 7.06 8.86 7.06 8.88 7.06C8.92 7.06 8.96 7.07 9.00 7.09C9.01 7.10 9.04 7.13 9.04 7.11C9.04 7.09 9.03 7.08 9.03 7.06C9.03 6.98 9.09 6.90 9.17 6.90C9.24 6.90 9.26 6.95 9.29 7.00C9.31 6.98 9.32 6.95 9.32 6.91C9.32 6.78 9.24 6.71 9.16 6.60C8.97 6.36 8.74 6.25 8.74 5.96C8.74 5.87 8.78 5.81 8.86 5.76C8.88 5.75 8.91 5.76 8.93 5.75C8.95 5.73 8.95 5.71 8.96 5.69C8.98 5.67 9.00 5.65 9.02 5.63C9.07 5.59 9.10 5.60 9.15 5.57C9.17 5.55 9.18 5.53 9.20 5.51C9.25 5.45 9.30 5.42 9.38 5.42C9.42 5.41 9.45 5.42 9.48 5.43C9.50 5.44 9.52 5.46 9.52 5.45C9.54 5.43 9.56 5.42 9.58 5.41C9.61 5.39 9.64 5.38 9.67 5.38C9.71 5.38 9.74 5.41 9.79 5.41C9.80 5.41 9.81 5.39 9.82 5.38C9.86 5.36 9.88 5.34 9.93 5.34C9.97 5.34 10.01 5.36 10.04 5.38C10.08 5.41 10.08 5.44 10.12 5.46C10.14 5.47 10.16 5.47 10.18 5.47C10.28 5.51 10.36 5.58 10.36 5.69C10.37 5.74 10.35 5.79 10.31 5.83C10.27 5.86 10.24 5.85 10.19 5.87C10.34 5.98 10.46 6.01 10.65 6.01C10.82 6.01 11.02 5.94 11.02 5.77C11.02 5.69 10.98 5.65 10.95 5.58C10.89 5.45 10.86 5.38 10.86 5.24C10.86 5.13 10.88 5.06 10.94 4.97C11.01 4.86 11.09 4.84 11.21 4.84Z" fill="#C6AA76"/>
<path d="M9.75 6.40H11.86V8.51H9.75V6.40Z" fill="#D52B1E"/>
<path d="M10.87 6.74L11.30 7.30C11.30 7.30 11.24 7.57 11.06 7.98C11.00 7.96 10.93 7.95 10.87 7.94V6.74ZM10.75 6.74L10.31 7.30C10.31 7.30 10.37 7.57 10.55 7.98C10.61 7.96 10.68 7.95 10.75 7.94V6.74ZM12.09 6.40H14.20V8.51H12.09V6.40Z" fill="#FEDD00"/>
<path d="M12.38 6.40H12.70V8.51H12.38V6.40ZM12.99 6.40H13.30V8.51H12.99V6.40ZM13.59 6.40H13.91V8.51H13.59V6.40Z" fill="#D52B1E"/>
<path d="M9.76 10.34C9.77 10.40 9.79 10.46 9.81 10.51C9.85 10.57 9.84 10.57 9.93 10.67C9.97 10.71 10.03 10.75 10.08 10.78C10.14 10.81 10.20 10.83 10.26 10.85C10.40 10.88 10.54 10.90 10.69 10.89C10.77 10.88 10.86 10.87 10.95 10.86C11.04 10.85 11.14 10.84 11.23 10.83C11.29 10.83 11.34 10.83 11.39 10.83C11.46 10.84 11.52 10.85 11.58 10.86C11.67 10.88 11.77 10.91 11.86 10.94V8.74H9.75V10.24C9.75 10.24 9.75 10.32 9.76 10.34Z" fill="#FEDD00"/>
<path d="M10.00 10.73L10.10 10.78L10.24 10.83V8.74H10.01L10.00 10.73ZM11.18 10.82V8.74H10.94V10.86L11.18 10.83L11.18 10.82ZM11.65 8.74H11.41V10.83C11.49 10.84 11.57 10.85 11.65 10.87V8.74ZM10.71 8.74V10.88C10.63 10.88 10.55 10.88 10.47 10.88V8.74H10.71Z" fill="#D52B1E"/>
<path d="M14.19 10.34C14.19 10.40 14.17 10.46 14.14 10.51C14.10 10.57 14.11 10.57 14.03 10.67C13.98 10.71 13.93 10.75 13.87 10.78C13.81 10.81 13.75 10.83 13.69 10.85C13.55 10.88 13.41 10.90 13.27 10.89C13.18 10.88 13.09 10.87 13.00 10.86C12.91 10.85 12.81 10.84 12.72 10.83C12.66 10.83 12.61 10.83 12.56 10.83C12.50 10.84 12.43 10.85 12.37 10.86C12.28 10.88 12.18 10.91 12.09 10.94L12.09 8.74H14.21V10.24C14.20 10.24 14.20 10.32 14.19 10.34Z" fill="#FEDD00"/>
</g>
</g>
<rect x="0.25" y="0.25" width="23.5" height="17.5" rx="1.75" stroke="#DDE0EA" stroke-width="0.5" style="fill-opacity:0"/>
<defs>
<clipPath id="clip0_1223_3942">
<rect width="24" height="18" rx="2" fill="white"/>
</clipPath>
<clipPath id="clip1_1223_3942">
<rect width="24" height="18" fill="white"/>
</clipPath>
</defs>
</svg>
