<svg width="24" height="18" viewBox="0 0 24 18" fill="none" xmlns="http://www.w3.org/2000/svg">
<g clip-path="url(#clip0_1222_5)">
<path fill-rule="evenodd" clip-rule="evenodd" d="M0 0H24V9.13672H0V0Z" fill="#FF0000"/>
<path fill-rule="evenodd" clip-rule="evenodd" d="M0 8.86328H24V18H0V8.86328Z" fill="black"/>
<path fill-rule="evenodd" clip-rule="evenodd" d="M6.22055 12.7361C6.00616 12.6226 5.79075 12.4897 5.5752 12.3359L5.90332 11.8281C7.30035 12.7751 8.62331 12.8007 9.65572 12.3165L10.3217 12.7012C10.2855 12.7229 10.2489 12.744 10.2119 12.7646L10.4111 13.2266L9.58691 13.5781L9.3868 13.1119C9.14979 13.1819 8.90335 13.2305 8.64941 13.2548V13.7539H7.74707V13.2373C7.51781 13.2067 7.28469 13.1559 7.04892 13.0828L6.80566 13.6016L5.99316 13.2188L6.22055 12.7361ZM10.9837 12.9593C11.382 13.1891 11.7778 13.4169 12.169 13.6406V13.6367C12.2409 13.5203 12.3026 13.3947 12.3638 13.2699C12.4156 13.1644 12.4672 13.0594 12.5244 12.9609C12.2071 12.7479 11.8892 12.5357 11.5706 12.3244L11.58 12.3139L10.5886 11.6725C10.5876 11.6734 10.5867 11.6743 10.5857 11.6752C9.59269 11.0249 8.59338 10.3832 7.58693 9.75001C7.3838 9.5547 7.21583 9.2422 7.16114 8.94532C7.13771 8.89454 7.07911 8.87501 7.03224 8.96095C6.55958 9.58204 6.59474 10.3945 7.29396 10.832C7.97794 11.2224 8.67546 11.6249 9.37464 12.0291L9.37677 12.0255L10.9862 12.9551L10.9837 12.9593ZM10.6704 11.5915L11.6563 12.2292L11.8135 12.0547L11.4464 11.7263C11.6072 11.5284 11.7487 11.318 11.8684 11.0991L12.3486 11.293L12.6885 10.457L12.2073 10.2659C12.2702 10.041 12.3142 9.80932 12.3392 9.57422H12.8643V8.67188H12.3424C12.3175 8.41835 12.2708 8.166 12.2023 7.91905L12.6885 7.73047L12.3604 6.89063L11.8711 7.08039C11.7595 6.86788 11.6288 6.66432 11.4789 6.47307L11.8252 6.12891L11.1924 5.48828L10.8432 5.83327C10.6539 5.68328 10.4467 5.54851 10.2216 5.43197L10.4072 4.94531L9.56738 4.63281L9.3854 5.10997C9.14681 5.04606 8.8937 4.99956 8.62598 4.97266L8.5791 5.55859C12.3463 6.54496 12.3477 9.87846 10.6704 11.5915ZM9.29635 8.5028L9.29785 8.50391V8.50781L9.29635 8.5028ZM9.03613 7.63281L9.29635 8.5028L8.53613 7.94141L7.77441 8.48828L8.0752 7.62891L7.31348 7.06641H8.23145L8.55176 6.21875L8.84473 7.07031L9.77051 7.05859L9.03613 7.63281ZM12.6025 12.9883C12.5767 12.9969 12.5081 13.1374 12.4295 13.2983C12.3655 13.4293 12.2949 13.5738 12.2354 13.6719L12.376 13.7109C12.8877 13.8906 13.1416 14.0547 13.3604 14.3672C13.4619 14.4688 13.626 14.4805 13.7393 14.3906C13.7393 14.3906 13.8447 14.3555 13.9814 14.2031C14.0947 14.0352 14.0635 13.9062 13.9268 13.7891C13.6385 13.5777 13.3328 13.4049 13.0139 13.2245C12.8791 13.1483 12.7418 13.0707 12.6025 12.9883ZM7.77223 10.2018L12.4597 13.0299L12.4016 13.1262L7.71411 10.2981L7.77223 10.2018ZM13.7002 13.9805C13.7002 14.0703 13.626 14.1445 13.5361 14.1445C13.4463 14.1445 13.3721 14.0703 13.3721 13.9805C13.3721 13.8906 13.4463 13.8203 13.5361 13.8203C13.6221 13.8203 13.6963 13.8906 13.6963 13.9805H13.7002ZM12.8955 13.4688C12.8955 13.5586 12.8252 13.6328 12.7354 13.6328C12.6455 13.6328 12.5713 13.5586 12.5713 13.4688C12.5713 13.3789 12.6455 13.3086 12.7354 13.3086C12.8252 13.3086 12.8955 13.3789 12.8955 13.4688ZM13.3057 13.7344C13.3057 13.8242 13.2314 13.8945 13.1416 13.8945C13.0518 13.8945 12.9814 13.8242 12.9814 13.7344C12.9814 13.6406 13.0518 13.5703 13.1416 13.5703C13.2314 13.5703 13.3057 13.6406 13.3057 13.7344Z" fill="#FFEC00"/>
</g>
<rect x="0.25" y="0.25" width="23.5" height="17.5" rx="1.75" stroke="#DDE0EA" stroke-width="0.5" style="fill-opacity:0"/>
<defs>
<clipPath id="clip0_1222_5">
<rect width="24" height="18" rx="2" fill="white"/>
</clipPath>
</defs>
</svg>
