<svg width="24" height="18" viewBox="0 0 24 18" fill="none" xmlns="http://www.w3.org/2000/svg">
<g clip-path="url(#clip0_1002_21)">
<g clip-path="url(#clip1_1002_21)">
<path d="M0 0H24V18H0V0Z" fill="#3F9C35"/>
<path d="M0 0H24V12H0V0Z" fill="#ED2939"/>
<path d="M0 0H24V6H0V0Z" fill="#00B9E4"/>
<path d="M11.3968 11.7C12.8879 11.7 14.0968 10.4912 14.0968 9.00005C14.0968 7.50888 12.8879 6.30005 11.3968 6.30005C9.90561 6.30005 8.69678 7.50888 8.69678 9.00005C8.69678 10.4912 9.90561 11.7 11.3968 11.7Z" fill="white"/>
<path d="M11.9956 11.25C13.2382 11.25 14.2456 10.2426 14.2456 9C14.2456 7.75736 13.2382 6.75 11.9956 6.75C10.753 6.75 9.74561 7.75736 9.74561 9C9.74561 10.2426 10.753 11.25 11.9956 11.25Z" fill="#ED2939"/>
<path d="M14.3965 7.5L14.6852 8.30625L15.4577 7.93875L15.0902 8.715L15.8965 9L15.0902 9.28875L15.4577 10.0612L14.6852 9.69375L14.3965 10.5L14.1077 9.69375L13.3352 10.0612L13.7027 9.28875L12.8965 9L13.7027 8.71125L13.3352 7.93875L14.1077 8.30625L14.3965 7.5Z" fill="white"/>
</g>
</g>
<rect x="0.25" y="0.25" width="23.5" height="17.5" rx="1.75" stroke="#DDE0EA" stroke-width="0.5" style="fill-opacity:0"/>
<defs>
<clipPath id="clip0_1002_21">
<rect width="24" height="18" rx="2" fill="white"/>
</clipPath>
<clipPath id="clip1_1002_21">
<rect width="24" height="18" fill="white"/>
</clipPath>
</defs>
</svg>
