<svg width="24" height="18" viewBox="0 0 24 18" fill="none" xmlns="http://www.w3.org/2000/svg">
<g clip-path="url(#clip0_1223_3866)">
<g clip-path="url(#clip1_1223_3866)">
<path d="M0 0H24V18H0V0Z" fill="#00267F"/>
<path d="M7.99805 0H16.0005V18H7.99805V0Z" fill="#FFC726"/>
<path fill-rule="evenodd" clip-rule="evenodd" d="M11.9899 5.08629L11.9917 5.0813L11.9923 5.093C11.9967 5.10473 12.001 5.11645 12.0053 5.12819C12.2622 5.82594 12.5255 6.54121 13.083 7.09505C12.9068 7.03505 12.5955 6.98255 12.4005 6.99005V9.9713L13.2405 10.095C13.2705 10.095 13.278 10.0463 13.278 9.98255C13.3605 9.0563 13.578 8.2763 13.833 7.47005C13.8388 7.43665 13.8729 7.37423 13.9101 7.30595C13.9942 7.15194 14.0945 6.96809 13.923 7.02005C13.9134 7.02005 13.8735 7.03388 13.8252 7.05059C13.7226 7.0861 13.5824 7.13465 13.6155 7.0913C14.0867 6.61609 14.6954 6.30121 15.3555 6.1913C15.4118 6.18005 15.4455 6.21005 15.393 6.2738C14.553 7.5713 13.8443 9.10505 13.8518 10.9238C13.6863 10.9238 13.4039 10.8748 13.1223 10.8259C12.8424 10.7773 12.5632 10.7288 12.4005 10.7288V12.8325H11.5792V10.7288C11.4165 10.7288 11.1374 10.7773 10.8574 10.8259C10.5758 10.8748 10.2934 10.9238 10.128 10.9238C10.1355 9.10505 9.42671 7.5713 8.58671 6.2738C8.53421 6.21005 8.56796 6.18005 8.62421 6.1913C9.2843 6.30121 9.89306 6.61609 10.3642 7.0913C10.3974 7.13465 10.2571 7.0861 10.1545 7.05059C10.1063 7.03388 10.0663 7.02005 10.0567 7.02005C9.88523 6.96809 9.98557 7.15194 10.0696 7.30595C10.1069 7.37423 10.1409 7.43665 10.1467 7.47005C10.4017 8.2763 10.6192 9.0563 10.7017 9.98255C10.7017 10.0463 10.7092 10.095 10.7392 10.095L11.5792 9.9713V6.99005C11.3842 6.98255 11.073 7.03505 10.8967 7.09505C11.4542 6.54121 11.7176 5.82594 11.9744 5.12819C11.9788 5.11645 11.9831 5.10473 11.9874 5.093L11.988 5.0813L11.9899 5.08629Z" fill="black"/>
</g>
</g>
<rect x="0.25" y="0.25" width="23.5" height="17.5" rx="1.75" stroke="#DDE0EA" stroke-width="0.5" style="fill-opacity:0"/>
<defs>
<clipPath id="clip0_1223_3866">
<rect width="24" height="18" rx="2" fill="white"/>
</clipPath>
<clipPath id="clip1_1223_3866">
<rect width="24" height="18" fill="white"/>
</clipPath>
</defs>
</svg>
