<svg width="24" height="18" viewBox="0 0 24 18" fill="none" xmlns="http://www.w3.org/2000/svg">
<g clip-path="url(#clip0_1002_6)">
<g clip-path="url(#clip1_1002_6)">
<rect width="24.00" height="18" fill="#F93939"/>
<path fill-rule="evenodd" clip-rule="evenodd" d="M0.00 0H24.00V12H0.00V0Z" fill="#B20000"/>
<path fill-rule="evenodd" clip-rule="evenodd" d="M0.00 12H24.00V18H0.00V12Z" fill="#429F00"/>
<path fill-rule="evenodd" clip-rule="evenodd" d="M0 0H3.98V18H0V0Z" fill="white"/>
<path fill-rule="evenodd" clip-rule="evenodd" d="M0.37 0.30H0.18V0.61H0.37V0.30ZM0.94 0.30H0.75V0.61H0.56V0.91H0.37V1.21H0.18V1.52H0.56V1.21H0.75V0.91H0.94V0.61H1.13V0.91H1.32V1.21H1.51V1.52H1.89V1.21H1.70V0.91H1.51V0.61H1.32V0.30H1.13V0H0.94V0.30ZM2.08 0H1.89V0.30H2.08V0ZM2.84 0.30H2.65V0.61H2.46V0.91H2.27V1.21H2.65V0.91H2.84V0.61H3.03V0.91H3.22V1.21H3.41V1.52H3.79V1.21H3.60V0.91H3.41V0.61H3.22V0.30H3.03V0H2.84V0.30ZM3.79 0.30H3.60V0.61H3.79V0.30ZM0.75 2.43V2.13H0.56V1.83H0.37V1.52H0V1.83H0.18V2.13H0.37V2.43H0.56V2.74H0.75V3.05H0.94V3.35H1.13V3.05H1.32V2.74H1.51V2.43H1.70V2.13H1.32V2.43H1.13V2.74H0.94V2.43H0.75ZM2.65 2.13H2.27V2.43H2.46V2.74H2.65V3.05H2.84V3.35H3.03V3.05H3.22V2.74H3.41V2.43H3.60V2.13H3.22V2.43H3.03V2.74H2.84V2.43H2.65V2.13ZM2.08 2.74H1.89V3.04H2.08V2.74ZM0.18 2.74H0V3.04H0.18V2.74ZM3.98 2.74H3.79V3.04H3.98V2.74ZM1.13 4.26H0.94V4.57H1.13V4.26ZM1.32 4.57H0.75V4.87H0.56V5.18H0.37V5.49H0.18V5.79H0.94V5.49H1.13V5.79H1.89V5.49H1.70V5.18H1.51V4.87H1.32V4.57ZM3.03 4.27H2.84V4.57H2.65V4.87H2.46V5.18H2.27V5.49H2.08V5.79H2.84V5.49H3.03V5.79H3.79V5.49H3.60V5.18H3.41V4.87H3.22V4.57H3.03V4.27ZM2.84 6.40H2.65V6.71H3.60V6.40H3.79V6.10H3.98V5.80H3.03V6.10H2.84V6.40ZM1.13 7.01V6.71H1.32V6.40H1.13V6.10H0.94V5.79L0 5.79V6.10H0.18V6.40H0.37V6.71H0.56V7.01H1.13ZM3.41 6.71H2.84V7.02H3.03V7.32H3.22V7.02H3.41V6.71ZM0.75 7.01H0.94V7.32H0.75V7.01ZM1.70 6.40H2.27V6.71H1.70V6.40ZM1.89 6.71H2.08V7.01H1.89V6.71ZM1.89 7.01H1.70V7.31H1.51V7.62H1.32V7.92H1.13V8.23H1.51V7.92H1.70V7.62H1.89V7.31H2.08V7.62H2.27V7.92H2.46V8.23H2.84V7.92H2.65V7.62H2.46V7.31H2.27V7.01H2.08V7.02H1.89V7.01ZM1.32 5.80H2.65V6.10H2.46V6.40H1.51V6.10H1.32V5.80ZM2.08 1.21H2.46V1.52H2.27V1.83H2.46V2.13H2.08V1.83H1.89V2.13H1.51V1.83H1.70V1.52H2.08V1.21ZM3.60 1.52H3.98V1.82H3.79V2.13H3.41V1.82H3.60V1.52ZM0 4.57H0.18V4.87H0V4.57ZM3.79 4.57H3.98V4.87H3.79V4.57ZM0.94 8.54V8.23H1.32V8.54H1.13V8.84H0.94V9.15H1.13V9.45H1.32V9.76H0.94V9.45H0.75V9.76H0.56V10.06H0.37V10.06H0.18V9.76H0.37V9.45H0.56V9.15H0.75V8.84H0.56V8.54H0.37V8.23H0.18V7.93H0.37V7.93H0.56V8.23H0.75V8.54H0.94ZM0.37 7.93V7.62H0V7.93H0.18V7.93H0.37ZM0 10.06H0.18V10.06H0.37V10.37H0.18V10.68H0V10.06ZM3.03 8.23V8.54H3.22V8.23H3.41V7.93H3.60V7.62H3.98V7.93H3.79V8.23H3.60V8.54H3.41V8.84H2.84V8.54H2.65V8.23H3.03ZM3.03 8.85H3.22V9.15H3.41V9.45H3.60V9.76H3.79V10.06H3.98V10.68H3.79V10.37H3.60V10.06H3.41V9.76H3.22V9.45H3.03V9.76H2.65V9.45H2.84V9.15H3.03V8.85ZM1.89 7.93H2.08V8.24H1.89V7.93ZM1.32 8.85H1.51V9.15H1.32V8.85ZM2.46 8.85H2.65V9.15H2.46V8.85ZM1.89 8.85H2.08V9.15H2.27V9.45H2.08V9.15H1.89V9.45H1.70V9.15H1.89V8.85ZM0 8.85H0.18V9.15H0V8.85ZM3.79 8.85H3.98V9.15H3.79V8.85ZM1.89 4.57H2.08V4.87H1.89V4.57ZM0.94 1.52H1.13V1.83H0.94V1.52ZM2.84 1.52H3.03V1.83H2.84V1.52ZM1.89 3.65H2.08V3.35H2.27V3.05H2.46V3.35H2.65V3.65H2.84V3.96H2.65V4.27H2.46V4.57H2.27V4.27H2.08V3.96H1.89V4.27H1.70V4.57H1.51V4.27H1.32V3.96H1.13V3.65H1.32V3.35H1.51V3.05H1.70V3.35H1.89V3.65ZM2.27 3.65V3.96H2.46V3.65H2.27ZM1.70 3.96V3.65H1.51V3.96H1.70ZM3.03 3.65H3.22V3.35H3.41V3.05H3.60V3.35H3.79V3.65H3.98V3.96H3.79V4.27H3.60V4.57H3.41V4.27H3.22V3.96H3.03V3.65ZM3.41 3.65V3.96H3.60V3.65H3.41ZM0 3.65H0.18V3.35H0.37V3.05H0.56V3.35H0.75V3.65H0.94V3.96H0.75V4.26H0.18V3.96H0V3.65ZM0.37 3.65V3.96H0.56V3.65H0.37ZM0.56 4.27H0.37V4.57H0.56V4.27ZM3.98 7.32H3.79V7.62L3.98 7.62V7.32ZM0.18 7.32H0V7.62H0.18V7.32ZM0.37 17.69H0.18V17.39H0.37V17.69ZM0.94 17.69H0.75V17.39H1.32V17.69H1.13V18H0.94V17.69ZM2.08 18H1.89V17.69H2.08V18ZM2.84 17.69H2.65V17.38H2.46V17.08H2.27V16.78H2.65V17.08H2.84V17.38H3.03V17.08H3.22V16.78H3.41V16.47H3.60V16.17H3.98V16.47H3.79V16.78H3.60V17.08H3.41V17.38H3.22V17.69H3.03V18H2.84V17.69ZM0.94 17.38H0.56V17.08H0.37V16.78H0.75V17.08H0.94V17.38ZM1.51 17.08V17.38H1.13V17.08H1.32V16.78H1.51V16.47H1.89V16.78H1.70V17.08H1.51ZM3.79 17.69H3.60V17.38H3.79V17.69ZM0.56 16.78H0.18V16.47H0V16.17H0.37V16.47H0.56V16.78ZM0.75 15.86H0.37V15.56H0.56V15.25H0.75V14.94H0.94V14.64H1.13V14.94H1.32V15.25H1.51V15.56H1.70V15.85H1.89V16.16H1.51V15.86H1.32V15.56H1.13V15.25H0.94V15.56H0.75V15.86ZM2.65 15.86H2.46V16.16H2.08V15.85H2.27V15.56H2.46V15.25H2.65V14.94H2.84V14.64H3.03V14.94H3.22V15.25H3.41V15.56H3.60V15.86H3.22V15.56H3.03V15.25H2.84V15.56H2.65V15.86ZM2.08 15.25H1.89V14.95H2.08V15.25ZM0.18 15.25H0V14.95H0.18V15.25ZM3.98 15.25H3.79V14.95H3.98V15.25ZM1.13 13.73H0.94V13.42H1.13V13.73ZM1.32 13.42H0.75V13.12H0.56V12.81H0.37V12.50H1.70V12.81H1.51V13.12H1.32V13.42ZM3.03 13.72H2.84V13.42H2.65V13.12H2.46V12.81H2.27V12.50H3.60V12.81H3.41V13.12H3.22V13.42H3.03V13.72ZM2.84 11.59H2.65V11.28H2.84V10.97H3.03V10.67H3.22V10.97H3.41V11.28H3.60V11.59H3.79V11.89H3.98V12.19H3.03V11.89H2.84V11.59ZM0.56 11.28H1.13V11.28H1.32V11.59H1.13V11.89H0.94V12.19H0V11.89H0.18V11.59H0.37V11.28H0.56V11.28ZM0.56 11.28V10.98H1.13V11.28H0.56ZM1.70 11.59H2.27V11.28H2.08V10.98H2.27V10.68H2.46V10.37H2.65V10.07H2.84V9.76H2.46V10.07H2.27V10.37H2.08V10.67H1.89V10.37H1.70V10.07H1.51V9.76H1.13V10.07H1.32V10.37H1.51V10.68H1.70V10.98H1.89V11.28H1.70V11.59ZM1.32 12.19H2.65V11.89H2.46V11.59H1.51V11.89H1.32V12.19ZM2.08 16.77H2.46V16.47H2.27V16.17H1.70V16.47H2.08V16.77ZM0.18 16.16H0.56V15.86H0.18V16.16ZM3.41 16.16H3.79V15.86H3.41V16.16ZM0 13.42H0.18V13.12H0V13.42ZM3.79 13.42H3.98V13.12H3.79V13.42ZM1.89 10.06H2.08V9.75H1.89V10.06ZM1.89 13.41H2.08V13.11H1.89V13.41ZM0.94 16.47H1.13V16.17H0.94V16.47ZM2.84 16.47H3.03V16.17H2.84V16.47ZM1.89 14.34H2.08V14.64H2.65V14.34H2.27V14.03H1.89V13.73H1.70V13.42H1.51V13.73H1.32V14.03H1.13V14.34H1.32V14.64H1.89V14.34ZM1.70 14.03V14.34H1.51V14.03H1.70ZM1.51 14.94H1.70V14.64H1.51V14.94ZM2.27 14.94H2.46V14.64H2.27V14.94ZM2.46 14.34H2.84V14.03H2.65V13.72H2.46V13.42H2.27V13.72H2.08V14.03H2.46V14.34ZM3.03 14.34H3.22V14.64H3.79V14.34H3.41V14.03H3.03V14.34ZM3.60 14.34H3.98V14.03H3.79V13.72H3.60V13.42H3.41V13.72H3.22V14.03H3.60V14.34ZM3.41 14.94H3.60V14.64H3.41V14.94ZM0 14.34H0.18V14.64H0.75V14.34H0.37V14.03H0V14.34ZM0.94 14.34H0.56V14.03H0.18V13.72H0.37V13.42H0.56V13.72H0.75V14.03H0.94V14.34ZM0.56 14.94H0.37V14.64H0.56V14.94ZM0.94 12.50H0.18V12.20H0.94V12.50ZM1.89 12.50H1.13V12.20H1.89V12.50ZM2.84 12.50H2.08V12.20H2.84V12.50ZM3.79 12.50H3.03V12.20H3.79V12.50ZM2.27 8.54H2.08V8.84H2.27V8.54ZM1.89 8.54H1.70V8.84H1.89V8.54ZM0.94 10.98H0.75V10.67H0.94V10.98Z" fill="#B20000"/>
</g>
</g>
<rect x="0.25" y="0.25" width="23.50" height="17.5" rx="1.75" stroke="#DDE0EA" stroke-width="0.5" style="fill-opacity:0"/>
<defs>
<clipPath id="clip0_1002_6">
<rect width="24.00" height="18" rx="2" fill="white"/>
</clipPath>
<clipPath id="clip1_1002_6">
<rect width="24.00" height="18" fill="white"/>
</clipPath>
</defs>
</svg>
