<svg width="24" height="18" viewBox="0 0 24 18" fill="none" xmlns="http://www.w3.org/2000/svg">
<g clip-path="url(#clip0_1002_6)">
<g clip-path="url(#clip1_1002_6)">
<rect width="24.0001" height="18" fill="#F93939"/>
<path fill-rule="evenodd" clip-rule="evenodd" d="M0.00292969 0H24.0027V12H0.00292969V0Z" fill="#B20000"/>
<path fill-rule="evenodd" clip-rule="evenodd" d="M0.00292969 12H24.0027V18H0.00292969V12Z" fill="#429F00"/>
<path fill-rule="evenodd" clip-rule="evenodd" d="M0 0H3.9871V18H0V0Z" fill="white"/>
<path fill-rule="evenodd" clip-rule="evenodd" d="M0.379802 0.305859H0.189939V0.611719H0.379802V0.305859ZM0.949388 0.305859H0.759526V0.611719H0.569664V0.914062H0.379802V1.21992H0.189939V1.52578H0.569664V1.21992H0.759526V0.914062H0.949388V0.611719H1.13925V0.914062H1.32911V1.21992H1.51897V1.52578H1.8987V1.21992H1.70884V0.914062H1.51897V0.611719H1.32911V0.305859H1.13925V0H0.949388V0.305859ZM2.08856 0H1.8987V0.305859H2.08856V0ZM2.84801 0.305859H2.65815V0.611719H2.46828V0.914062H2.27842V1.21992H2.65815V0.914062H2.84801V0.611719H3.03787V0.914062H3.22773V1.21992H3.41759V1.52578H3.79732V1.21992H3.60746V0.914062H3.41759V0.611719H3.22773V0.305859H3.03787V0H2.84801V0.305859ZM3.79732 0.305859H3.60746V0.611719H3.79732V0.305859ZM0.759526 2.43984V2.13398H0.569586V1.83169H0.379724V1.52583H0V1.83169H0.189862V2.13403H0.379802V2.43984H0.569664V2.7457H0.759526V3.05156H0.94931V3.35737H1.13917V3.05156H1.32911V2.7457H1.51897V2.43984H1.70884V2.1375H1.32911V2.43984H1.13925V2.7457H0.949388V2.43984H0.759526ZM2.65807 2.13745H2.27835V2.4398H2.46821V2.74565H2.65807V3.05151H2.84793V3.35737H3.03779V3.05151H3.22766V2.74565H3.41752V2.4398H3.60738V2.13745H3.22766V2.4398H3.03779V2.74565H2.84793V2.4398H2.65807V2.13745ZM2.08848 2.74214H1.89862V3.048H2.08848V2.74214ZM0.189862 2.74214H0V3.048H0.189862V2.74214ZM3.9871 2.74214H3.79724V3.048H3.9871V2.74214ZM1.13917 4.26792H0.94931V4.57378H1.13917V4.26792ZM1.32903 4.57729H0.759448V4.87964H0.569586V5.1855H0.379724V5.49136H0.189862V5.79722H0.94931V5.49136H1.13917V5.79722H1.89862V5.49136H1.70876V5.1855H1.5189V4.87964H1.32903V4.57729ZM3.03779 4.27144H2.84793V4.57729H2.65807V4.87964H2.46821V5.1855H2.27835V5.49136H2.08848V5.79722H2.84793V5.49136H3.03779V5.79722H3.79724V5.49136H3.60738V5.1855H3.41752V4.87964H3.22766V4.57729H3.03779V4.27144ZM2.84793 6.40542H2.65807V6.71128H3.60738V6.40542H3.79724V6.10659H3.9871V5.80073H3.03779V6.10308H2.84793V6.40542ZM1.13917 7.01714V6.71128H1.32903V6.40542H1.13917V6.10308H0.94931V5.79722L0 5.79731V6.10317H0.189862V6.40542H0.379724V6.71128H0.569586V7.01714H1.13917ZM3.41752 6.71479H2.84793V7.02065H3.03779V7.3231H3.22766V7.02065H3.41752V6.71479ZM0.759448 7.01724H0.94931V7.3231H0.759448V7.01724ZM1.70876 6.40552H2.27835V6.71138H1.70876V6.40552ZM1.89862 6.71489H2.08848V7.01372H1.89862V6.71489ZM1.89862 7.01372H1.70876V7.31958H1.5189V7.62192H1.32903V7.92778H1.13917V8.23364H1.5189V7.92778H1.70876V7.62192H1.89862V7.31958H2.08848V7.62192H2.27835V7.92778H2.46821V8.23364H2.84793V7.92778H2.65807V7.62192H2.46821V7.31958H2.27835V7.01372H2.08848V7.02075H1.89862V7.01372ZM1.32903 5.80083H2.65807V6.10669H2.46821V6.40542H1.5189V6.10669H1.32903V5.80083ZM2.08848 1.21997H2.46821V1.52583H2.27835V1.83169H2.46821V2.13403H2.08848V1.83169H1.89862V2.13403H1.5189V1.83169H1.70876V1.52583H2.08848V1.21997ZM3.60738 1.52583H3.9871V1.82817H3.79724V2.13052H3.41752V1.82817H3.60738V1.52583ZM0 4.57036H0.189862V4.87622H0V4.57036ZM3.79724 4.57036H3.9871V4.87622H3.79724V4.57036ZM0.94931 8.54302V8.23716H1.32903V8.54302H1.13917V8.84888H0.94931V9.1512H1.13917V9.45706H1.32903V9.76292H0.94931V9.45706H0.759448V9.76292H0.569586V10.0688H0.379724V10.0653H0.189862V9.76292H0.379724V9.45706H0.569586V9.1512H0.759448V8.84888H0.569586V8.54302H0.379724V8.23716H0.189862V7.93482H0.379724V7.9313H0.569586V8.23716H0.759448V8.54302H0.94931ZM0.379724 7.9313V7.62896H0V7.93482H0.189862V7.9313H0.379724ZM0 10.0653H0.189862V10.0688H0.379724V10.3711H0.189862V10.6805H0V10.0653ZM3.03779 8.23716V8.54302H3.22766V8.23716H3.41752V7.9313H3.60738V7.62544H3.9871V7.9313H3.79724V8.23716H3.60738V8.54302H3.41752V8.84888H2.84793V8.54302H2.65807V8.23716H3.03779ZM3.03779 8.85239H3.22766V9.1512H3.41752V9.45706H3.60738V9.76292H3.79724V10.0688H3.9871V10.6805H3.79724V10.3746H3.60738V10.0688H3.41752V9.76292H3.22766V9.45706H3.03779V9.76292H2.65807V9.45706H2.84793V9.1512H3.03779V8.85239ZM1.89862 7.93833H2.08848V8.24067H1.89862V7.93833ZM1.32903 8.85239H1.5189V9.15474H1.32903V8.85239ZM2.46821 8.85239H2.65807V9.15474H2.46821V8.85239ZM1.89862 8.85239H2.08848V9.15117H2.27835V9.45703H2.08848V9.15474H1.89862V9.45703H1.70876V9.15117H1.89862V8.85239ZM0 8.85239H0.189862V9.15474H0V8.85239ZM3.79724 8.85239H3.9871V9.15474H3.79724V8.85239ZM1.89862 4.57739H2.08848V4.87974H1.89862V4.57739ZM0.94931 1.52583H1.13917V1.83169H0.94931V1.52583ZM2.84793 1.52583H3.03779V1.83169H2.84793V1.52583ZM1.89862 3.65981H2.08848V3.35747H2.27835V3.05161H2.46821V3.35747H2.65807V3.65981H2.84793V3.96567H2.65807V4.27153H2.46821V4.57739H2.27835V4.27153H2.08848V3.96567H1.89862V4.27153H1.70876V4.57739H1.5189V4.27153H1.32903V3.96567H1.13917V3.65981H1.32903V3.35747H1.5189V3.05161H1.70876V3.35747H1.89862V3.65981ZM2.27835 3.65981V3.96567H2.46821V3.65981H2.27835ZM1.70876 3.96567V3.65981H1.5189V3.96567H1.70876ZM3.03779 3.65981H3.22766V3.35747H3.41752V3.05161H3.60738V3.35747H3.79724V3.65981H3.9871V3.96567H3.79724V4.27153H3.60738V4.57739H3.41752V4.27153H3.22766V3.96567H3.03779V3.65981ZM3.41752 3.65981V3.96567H3.60738V3.65981H3.41752ZM0 3.6563H0.189862V3.35396H0.379724V3.05151H0.569586V3.35396H0.759448V3.6563H0.94931V3.96216H0.759448V4.26802H0.189862V3.96216H0V3.6563ZM0.379724 3.6563V3.96216H0.569586V3.6563H0.379724ZM0.569586 4.27144H0.379724V4.57729H0.569586V4.27144ZM3.9871 7.323H3.79724V7.62534L3.9871 7.62544V7.323ZM0.189862 7.323H0V7.62534H0.189862V7.323ZM0.379724 17.6941H0.189862V17.3917H0.379724V17.6941ZM0.94931 17.6941H0.759448V17.3917H1.32903V17.6941H1.13917V18H0.94931V17.6941ZM2.08848 18H1.89862V17.6941H2.08848V18ZM2.84793 17.6941H2.65807V17.3882H2.46821V17.0859H2.27835V16.78H2.65807V17.0859H2.84793V17.3882H3.03779V17.0859H3.22766V16.78H3.41752V16.4742H3.60738V16.1719H3.9871V16.4742H3.79724V16.78H3.60738V17.0859H3.41752V17.3882H3.22766V17.6941H3.03779V18H2.84793V17.6941ZM0.94931 17.3882H0.569586V17.0859H0.379724V16.7801H0.759448V17.0859H0.94931V17.3882ZM1.5189 17.0859V17.3882H1.13917V17.0859H1.32903V16.78H1.5189V16.4742H1.89862V16.78H1.70876V17.0859H1.5189ZM3.79724 17.6941H3.60738V17.3882H3.79724V17.6941ZM0.569586 16.78H0.189862V16.4742H0V16.1719H0.379724V16.4742H0.569586V16.78ZM0.759448 15.866H0.379724V15.5601H0.569586V15.2542H0.759448V14.9484H0.94931V14.646H1.13917V14.9484H1.32903V15.2542H1.5189V15.5601H1.70876V15.859H1.89862V16.1649H1.5189V15.866H1.32903V15.5601H1.13917V15.2542H0.94931V15.5601H0.759448V15.866ZM2.65807 15.8625H2.46821V16.1649H2.08848V15.859H2.27835V15.5601H2.46821V15.2542H2.65807V14.9484H2.84793V14.646H3.03779V14.9484H3.22766V15.2542H3.41752V15.5601H3.60738V15.866H3.22766V15.5601H3.03779V15.2542H2.84793V15.5601H2.65807V15.8625ZM2.08848 15.2578H1.89862V14.9519H2.08848V15.2578ZM0.189862 15.2578H0V14.9519H0.189862V15.2578ZM3.9871 15.2578H3.79724V14.9519H3.9871V15.2578ZM1.13917 13.732H0.94931V13.4261H1.13917V13.732ZM1.32903 13.4226H0.759448V13.1203H0.569586V12.8145H0.379724V12.5086H1.70876V12.8145H1.5189V13.1203H1.32903V13.4226ZM3.03779 13.7285H2.84793V13.4227H2.65807V13.1203H2.46821V12.8145H2.27835V12.5086H3.60738V12.8145H3.41752V13.1203H3.22766V13.4227H3.03779V13.7285ZM2.84793 11.5946H2.65807V11.2852H2.84793V10.9793H3.03779V10.677H3.22766V10.9793H3.41752V11.2852H3.60738V11.5945H3.79724V11.8934H3.9871V12.1992H3.03779V11.8969H2.84793V11.5946ZM0.569586 11.2887H1.13917V11.2852H1.32903V11.5946H1.13917V11.8969H0.94931V12.1992H0V11.8934H0.189862V11.5945H0.379724V11.2852H0.569586V11.2887ZM0.569586 11.2852V10.9828H1.13917V11.2852H0.569586ZM1.70876 11.591H2.27835V11.2852H2.08848V10.9828H2.27835V10.6805H2.46821V10.3781H2.65807V10.0723H2.84793V9.76643H2.46821V10.0723H2.27835V10.3781H2.08848V10.677H1.89862V10.3781H1.70876V10.0723H1.5189V9.76643H1.13917V10.0723H1.32903V10.3781H1.5189V10.6805H1.70876V10.9828H1.89862V11.2852H1.70876V11.591ZM1.32903 12.1992H2.65807V11.8934H2.46821V11.5945H1.5189V11.8934H1.32903V12.1992ZM2.08848 16.7766H2.46821V16.4707H2.27835V16.1719H1.70876V16.4707H2.08848V16.7766ZM0.189862 16.1684H0.569586V15.866H0.189862V16.1684ZM3.41752 16.1684H3.79724V15.866H3.41752V16.1684ZM0 13.4297H0.189862V13.1239H0V13.4297ZM3.79724 13.4297H3.9871V13.1239H3.79724V13.4297ZM1.89862 10.0617H2.08848V9.7594H1.89862V10.0617ZM1.89862 13.4192H2.08848V13.1168H1.89862V13.4192ZM0.94931 16.4707H1.13917V16.1719H0.94931V16.4707ZM2.84793 16.4707H3.03779V16.1719H2.84793V16.4707ZM1.89862 14.3438H2.08848V14.6426H2.65807V14.3438H2.27835V14.0379H1.89862V13.7321H1.70876V13.4262H1.5189V13.7321H1.32903V14.0379H1.13917V14.3438H1.32903V14.6426H1.89862V14.3438ZM1.70876 14.0379V14.3438H1.5189V14.0379H1.70876ZM1.5189 14.9485H1.70876V14.6461H1.5189V14.9485ZM2.27835 14.9485H2.46821V14.6461H2.27835V14.9485ZM2.46821 14.3403H2.84793V14.0344H2.65807V13.7285H2.46821V13.4227H2.27835V13.7285H2.08848V14.0344H2.46821V14.3403ZM3.03779 14.3438H3.22766V14.6426H3.79724V14.3438H3.41752V14.0379H3.03779V14.3438ZM3.60738 14.3403H3.9871V14.0344H3.79724V13.7285H3.60738V13.4227H3.41752V13.7285H3.22766V14.0344H3.60738V14.3403ZM3.41752 14.9485H3.60738V14.6461H3.41752V14.9485ZM0 14.3438H0.189862V14.6426H0.759448V14.3438H0.379724V14.0379H0V14.3438ZM0.94931 14.3402H0.569586V14.0344H0.189862V13.7285H0.379724V13.4227H0.569586V13.7285H0.759448V14.0344H0.94931V14.3402ZM0.569586 14.9484H0.379724V14.6461H0.569586V14.9484ZM0.94931 12.5086H0.189862V12.2027H0.94931V12.5086ZM1.89862 12.5086H1.13917V12.2027H1.89862V12.5086ZM2.84793 12.5086H2.08848V12.2027H2.84793V12.5086ZM3.79724 12.5086H3.03779V12.2027H3.79724V12.5086ZM2.27835 8.54297H2.08848V8.84883H2.27835V8.54297ZM1.89862 8.54297H1.70876V8.84883H1.89862V8.54297ZM0.94931 10.9828H0.759448V10.677H0.94931V10.9828Z" fill="#B20000"/>
</g>
</g>
<rect x="0.25" y="0.25" width="23.5001" height="17.5" rx="1.75" stroke="#DDE0EA" stroke-width="0.5" style="fill-opacity:0"/>
<defs>
<clipPath id="clip0_1002_6">
<rect width="24.0001" height="18" rx="2" fill="white"/>
</clipPath>
<clipPath id="clip1_1002_6">
<rect width="24.0001" height="18" fill="white"/>
</clipPath>
</defs>
</svg>
