<svg width="24" height="18" viewBox="0 0 24 18" fill="none" xmlns="http://www.w3.org/2000/svg">
<g clip-path="url(#clip0_1223_3893)">
<g clip-path="url(#clip1_1223_3893)">
<path fill-rule="evenodd" clip-rule="evenodd" d="M0 0H24V18H0V0Z" fill="#D90F19"/>
<path fill-rule="evenodd" clip-rule="evenodd" d="M0 1.8H24V16.2H0V1.8Z" fill="#171696"/>
<path d="M12 14.25C14.89 14.25 17.25 11.89 17.25 9C17.25 6.10 14.89 3.75 12 3.75C9.10 3.75 6.75 6.10 6.75 9C6.75 11.89 9.10 14.25 12 14.25Z" fill="white"/>
<path d="M12.20 6.06L12.24 6.08L12.28 6.09C12.28 6.09 12.32 6.13 12.37 6.17C12.41 6.20 12.41 6.16 12.41 6.16L12.43 6.25H12.46L12.45 6.34L12.50 6.30L12.57 6.35C12.57 6.35 12.61 6.31 12.64 6.31C12.66 6.31 12.67 6.29 12.67 6.29H12.67C12.52 6.21 12.45 6.14 12.50 6.06C12.57 5.94 12.70 6.02 12.74 6.04L13.29 6.33C13.29 6.33 13.32 6.31 13.30 6.29C13.27 6.27 13.26 6.21 13.27 6.19C13.28 6.17 13.34 6.26 13.37 6.27C13.40 6.28 13.47 6.29 13.47 6.29L13.47 6.26C13.47 6.26 13.56 6.33 13.56 6.36C13.56 6.36 13.63 6.32 13.60 6.30C13.58 6.28 13.70 6.35 13.71 6.39L13.74 6.36C13.73 6.36 13.75 6.27 13.78 6.22C13.81 6.18 13.84 6.17 13.84 6.17C13.84 6.17 13.87 6.12 13.89 6.12C13.89 6.12 13.86 6.10 13.85 6.08C13.84 6.06 13.81 6.05 13.81 6.05C13.81 6.05 13.85 6.02 13.86 6.00C13.87 5.98 13.88 5.98 13.88 5.98C13.88 5.98 13.82 5.93 13.77 5.92C13.77 5.92 13.77 5.84 13.71 5.84H13.74C13.74 5.84 13.70 5.76 13.66 5.75C13.66 5.75 13.68 5.73 13.70 5.72C13.70 5.72 13.66 5.66 13.59 5.68L13.63 5.67C13.63 5.67 13.60 5.63 13.50 5.65C13.50 5.65 13.51 5.61 13.47 5.58C13.47 5.58 13.43 5.58 13.43 5.61C13.43 5.61 13.40 5.58 13.36 5.58C13.31 5.58 13.37 5.62 13.37 5.62C13.37 5.62 13.31 5.58 13.28 5.59C13.28 5.59 13.30 5.53 13.26 5.49C13.26 5.49 13.22 5.52 13.20 5.55L13.19 5.52C13.19 5.52 13.13 5.59 13.12 5.57C13.11 5.55 13.10 5.51 13.10 5.51L13.07 5.56L13.08 5.49C13.08 5.49 13.04 5.51 13.01 5.58C13.01 5.58 12.97 5.62 12.97 5.65C12.97 5.65 12.94 5.62 12.91 5.65C12.88 5.69 12.91 5.68 12.91 5.68C12.91 5.68 12.89 5.70 12.87 5.70L12.87 5.73C12.87 5.73 12.84 5.71 12.81 5.72L12.82 5.75C12.82 5.75 12.75 5.76 12.74 5.70C12.74 5.70 12.68 5.67 12.67 5.70L12.63 5.73C12.63 5.73 12.61 5.70 12.59 5.69C12.56 5.68 12.58 5.73 12.58 5.73C12.58 5.73 12.57 5.70 12.54 5.68C12.51 5.66 12.53 5.71 12.53 5.71C12.53 5.71 12.49 5.67 12.51 5.64C12.51 5.64 12.47 5.68 12.49 5.72L12.46 5.74C12.46 5.74 12.44 5.73 12.44 5.71C12.45 5.70 12.40 5.75 12.40 5.75C12.40 5.75 12.37 5.67 12.40 5.67C12.40 5.67 12.34 5.67 12.33 5.73C12.33 5.73 12.30 5.74 12.26 5.75C12.23 5.76 12.29 5.79 12.29 5.79C12.29 5.79 12.23 5.77 12.20 5.79L12.22 5.82C12.22 5.82 12.20 5.80 12.15 5.82C12.10 5.83 12.17 5.84 12.17 5.84C12.17 5.84 12.11 5.83 12.09 5.84C12.06 5.85 12.10 5.87 12.10 5.87C12.10 5.87 12.00 5.84 11.99 5.85C11.97 5.86 12.02 5.90 12.02 5.90C12.02 5.90 11.96 5.92 11.95 5.96L12.00 5.98C12.00 5.98 11.98 5.99 11.97 6.01C11.96 6.04 12.00 6.03 12.00 6.03C12.00 6.03 11.94 6.07 11.94 6.11C11.94 6.11 11.98 6.12 12.02 6.09C12.05 6.05 12.03 6.06 12.03 6.06L12.03 6.09C12.03 6.09 12.10 6.06 12.10 6.04C12.10 6.03 12.09 6.06 12.09 6.06L12.15 6.03L12.20 6.06ZM12.15 5.17L12.14 5.10L12.28 5.12L12.31 5.06C12.31 5.06 12.38 5.09 12.40 5.12C12.40 5.12 12.53 5.08 12.57 5.10L12.55 5.16C12.55 5.16 12.68 5.17 12.71 5.18C12.75 5.20 12.70 5.23 12.70 5.23C12.70 5.23 12.84 5.25 12.89 5.28C12.96 5.32 12.96 5.35 12.92 5.36L13.00 5.48C13.00 5.48 12.88 5.50 12.86 5.53C12.84 5.56 12.81 5.50 12.81 5.50L12.79 5.58C12.79 5.58 12.71 5.54 12.68 5.51C12.68 5.51 12.65 5.56 12.67 5.58L12.53 5.49C12.53 5.49 12.47 5.48 12.47 5.54L12.38 5.44L12.30 5.46C12.30 5.46 12.28 5.43 12.25 5.42C12.22 5.42 12.24 5.46 12.24 5.46L12.15 5.35C12.15 5.35 12.11 5.41 12.08 5.41C12.05 5.41 12.05 5.37 12.06 5.34C12.07 5.32 11.97 5.32 11.96 5.34C11.96 5.34 11.93 5.23 12.04 5.20L12.15 5.17ZM11.60 5.56L11.55 5.61L11.52 5.59L11.46 5.65L11.45 5.62L11.42 5.67L11.37 5.65L11.35 5.69L11.31 5.68C11.31 5.68 11.27 5.71 11.25 5.72C11.22 5.73 11.25 5.67 11.25 5.67C11.25 5.67 11.21 5.73 11.19 5.73C11.16 5.73 11.17 5.70 11.17 5.70C11.17 5.70 11.16 5.74 11.13 5.74C11.10 5.75 11.12 5.72 11.12 5.72L11.07 5.75V5.73L11.05 5.72C11.05 5.72 11.06 5.67 11.08 5.65C11.10 5.64 11.06 5.61 11.06 5.61L11.08 5.58C11.08 5.58 11.02 5.57 11.02 5.58C11.02 5.58 11.05 5.50 11.09 5.49L11.09 5.41C11.09 5.41 11.13 5.37 11.17 5.37C11.21 5.37 11.16 5.31 11.16 5.31L11.25 5.25L11.26 5.19L11.40 5.20L11.43 5.14L11.54 5.16L11.64 5.12L11.71 5.20L11.81 5.21L11.81 5.30L11.94 5.34L11.92 5.43C11.92 5.43 12.01 5.41 12.03 5.41L12.04 5.51C12.04 5.51 12.19 5.56 12.20 5.58C12.20 5.58 12.17 5.61 12.15 5.63L12.17 5.75L12.15 5.76C12.15 5.76 12.11 5.73 12.08 5.72L12.05 5.78L11.99 5.75L11.96 5.75C11.96 5.75 11.94 5.72 11.92 5.72L11.92 5.70L11.88 5.72C11.88 5.72 11.81 5.69 11.81 5.67C11.81 5.65 11.82 5.63 11.82 5.63L11.75 5.67C11.75 5.67 11.74 5.64 11.74 5.62C11.74 5.61 11.71 5.66 11.71 5.66C11.71 5.66 11.68 5.60 11.68 5.58L11.67 5.63C11.67 5.63 11.61 5.61 11.60 5.56ZM10.69 5.84C10.69 5.84 10.81 5.90 10.81 5.93C10.81 5.93 10.84 5.86 10.82 5.84L10.87 5.87C10.87 5.87 10.88 5.81 10.86 5.79C10.85 5.78 10.97 5.73 10.99 5.81C10.99 5.81 11.06 5.73 10.93 5.67C10.93 5.67 10.91 5.63 11.00 5.64C11.00 5.64 10.99 5.61 10.97 5.60H11.05C11.05 5.60 11.00 5.56 10.93 5.55C10.86 5.54 10.91 5.53 10.90 5.52C10.90 5.50 10.90 5.45 10.90 5.45C10.90 5.45 10.86 5.43 10.83 5.45L10.84 5.44C10.84 5.44 10.77 5.42 10.74 5.43C10.74 5.43 10.70 5.42 10.70 5.37C10.70 5.37 10.66 5.37 10.64 5.41C10.64 5.41 10.60 5.46 10.55 5.46C10.54 5.46 10.50 5.43 10.50 5.43L10.46 5.52L10.41 5.51L10.43 5.54C10.43 5.54 10.34 5.52 10.32 5.54C10.32 5.54 10.35 5.59 10.34 5.63C10.34 5.63 10.28 5.64 10.26 5.65C10.25 5.66 10.29 5.67 10.29 5.67C10.29 5.67 10.21 5.70 10.20 5.72L10.23 5.74L10.19 5.79L10.22 5.79L10.15 5.82C10.12 5.82 10.19 5.83 10.19 5.83L10.16 5.86L10.22 5.87C10.22 5.87 10.17 5.98 10.17 6.04C10.17 6.04 10.24 5.96 10.25 5.95L10.20 6.04C10.20 6.04 10.30 6.01 10.31 5.99L10.33 5.96L10.33 6.01C10.33 6.01 10.37 5.96 10.37 5.94C10.37 5.92 10.43 5.96 10.43 5.96V5.93L10.50 5.95C10.52 5.95 10.52 5.94 10.52 5.94L10.57 5.94L10.56 5.97C10.56 5.97 10.60 5.95 10.61 5.93C10.61 5.91 10.63 5.93 10.63 5.93L10.65 5.84H10.69ZM10.30 6.24L10.34 6.33C10.31 6.34 10.25 6.38 10.25 6.38C10.26 6.54 10.22 6.53 10.22 6.53C10.23 6.55 10.22 6.61 10.22 6.61L10.44 6.47L10.45 6.46L10.71 6.33L10.72 6.35L10.80 6.30L10.85 6.45L10.80 6.48C10.80 6.52 10.86 6.61 10.86 6.61L10.93 6.59L11.01 6.56L11.01 6.59C11.01 6.58 11.10 6.55 11.10 6.55L11.13 6.59C11.16 6.59 11.21 6.52 11.21 6.52L11.27 6.54C11.27 6.54 11.30 6.51 11.30 6.48C11.30 6.46 11.37 6.46 11.37 6.46L11.42 6.49L11.49 6.44C11.49 6.44 11.51 6.48 11.53 6.48C11.56 6.49 11.63 6.54 11.63 6.53C11.63 6.52 11.66 6.45 11.66 6.45L11.78 6.50C11.76 6.45 11.72 6.38 11.72 6.38C11.72 6.38 11.78 6.34 11.77 6.33C11.76 6.31 11.72 6.33 11.72 6.33L11.76 6.26H11.71L11.73 6.24L11.65 6.21L11.69 6.13C11.67 6.11 11.48 6.07 11.48 6.07L11.52 6.03C11.52 6.03 11.50 5.99 11.48 5.99C11.46 5.99 11.34 6.00 11.33 5.98C11.33 5.97 11.28 5.93 11.28 5.93L11.21 5.98L11.17 5.97L11.10 6.00C11.10 6.00 11.10 6.03 11.09 6.01C11.09 5.99 11.03 5.93 11.03 5.93C11.01 5.95 10.94 6.04 10.94 6.04C10.94 6.04 10.93 6.09 10.90 6.05C10.87 6.02 10.82 5.98 10.81 6.01C10.80 6.04 10.74 6.07 10.73 6.06C10.72 6.05 10.66 6.06 10.65 6.08C10.65 6.10 10.58 6.15 10.58 6.15C10.54 6.13 10.47 6.14 10.47 6.14C10.47 6.14 10.45 6.17 10.44 6.20L10.30 6.24ZM11.58 7.40V7.34L11.65 7.38L11.69 7.34L11.74 7.39L11.77 7.34V7.42L11.85 7.35L11.90 7.37V7.31C11.90 7.31 11.95 7.22 11.93 7.20L11.97 7.18L11.87 7.09C11.85 7.08 11.82 7.08 11.82 7.08C11.82 7.08 11.76 7.02 11.72 7.00C11.68 6.98 11.66 7.02 11.66 7.02C11.66 7.02 11.63 6.97 11.60 6.96C11.56 6.95 11.56 6.99 11.56 6.99C11.56 6.99 11.53 6.96 11.49 6.95C11.46 6.93 11.48 6.98 11.48 6.98L11.35 6.94L11.37 6.98L11.24 6.95L11.26 7.00L11.18 6.98L11.17 7.02L11.05 7.04L11.07 7.08L10.99 7.05V7.11L10.91 7.14L10.94 7.17L10.80 7.24C10.77 7.25 10.84 7.28 10.84 7.28L10.72 7.26L10.76 7.30L10.66 7.40L10.73 7.46L10.69 7.53L10.80 7.55L10.85 7.63L10.94 7.61V7.69L11.08 7.59C11.08 7.59 11.18 7.67 11.19 7.65C11.19 7.62 11.19 7.55 11.19 7.55H11.24V7.47L11.28 7.50L11.34 7.41L11.42 7.53L11.49 7.38L11.58 7.40ZM12.14 7.05L12.13 6.92L12.09 6.96L12.11 6.84L12.04 6.82L12.07 6.70L12.02 6.68L12.03 6.62L12.08 6.59L12.16 6.51L12.35 6.51L12.38 6.45L12.52 6.47C12.54 6.50 12.61 6.42 12.61 6.42H12.64L12.67 6.48C12.67 6.48 12.77 6.47 12.81 6.50L12.76 6.57L12.86 6.58L12.93 6.60L13.00 6.57L13.09 6.57L13.11 6.60H13.20L13.17 6.64L13.28 6.69L13.25 6.72C13.25 6.72 13.32 6.74 13.36 6.74H13.39C13.39 6.74 13.41 6.79 13.38 6.82C13.38 6.82 13.41 6.90 13.48 6.91C13.55 6.92 13.55 6.92 13.55 6.94C13.56 6.95 13.55 7.03 13.48 7.03V7.11C13.48 7.11 13.42 7.16 13.41 7.18L13.36 7.15C13.36 7.15 13.32 7.20 13.32 7.23C13.32 7.23 13.22 7.10 13.19 7.09C13.15 7.08 13.16 7.17 13.16 7.17L13.05 7.08L13.03 7.14L12.94 7.06L12.89 7.10L12.79 7.00L12.70 7.01L12.74 6.96H12.62L12.60 6.87L12.58 6.95L12.51 6.90L12.42 7.00C12.42 7.00 12.41 6.99 12.40 6.94C12.38 6.90 12.34 7.00 12.34 7.00L12.31 6.93L12.28 7.00C12.28 7.00 12.25 6.94 12.21 6.93C12.18 6.91 12.15 7.01 12.14 7.05ZM12.16 7.35L12.17 7.31L12.33 7.24L12.47 7.19L12.53 7.16L12.56 7.22L12.60 7.14L12.67 7.22L12.70 7.18L12.75 7.22H12.80L12.81 7.28C12.81 7.28 12.92 7.29 12.93 7.26C12.94 7.24 12.95 7.34 12.95 7.34L13.06 7.35L13.09 7.48C13.09 7.48 13.14 7.59 13.12 7.64C13.11 7.68 13.06 7.58 13.06 7.58C13.06 7.58 13.05 7.66 13.04 7.68C13.04 7.71 12.90 7.66 12.90 7.66L12.84 7.77C12.84 7.77 12.78 7.68 12.75 7.68C12.72 7.68 12.72 7.77 12.72 7.77L12.59 7.62C12.55 7.58 12.54 7.67 12.54 7.67C12.54 7.67 12.48 7.57 12.48 7.54C12.48 7.51 12.43 7.47 12.43 7.47C12.43 7.47 12.34 7.58 12.27 7.61C12.27 7.61 12.28 7.54 12.25 7.52C12.23 7.50 12.16 7.57 12.16 7.57C12.16 7.57 12.11 7.46 12.16 7.35Z" fill="#338A00"/>
<path d="M12.00 12.58C12.64 12.58 13.02 12.35 13.22 12.21C13.71 11.88 13.82 11.87 13.89 11.88C13.98 11.88 14.12 11.91 14.12 12C14.13 12.12 13.93 12.17 13.82 12.17C13.70 12.17 13.40 12.09 13.40 12.09L13.31 12.15C13.37 12.18 13.99 12.38 14.11 12.18C14.24 11.99 14.36 11.66 14.36 11.66C14.36 11.66 14.22 11.42 13.92 11.42C13.61 11.42 13.31 11.61 13.11 11.76C12.91 11.90 12.66 12.10 11.99 12.10C11.33 12.10 11.07 11.90 10.88 11.76C10.68 11.61 10.38 11.42 10.07 11.42C9.76 11.42 9.63 11.66 9.63 11.66C9.63 11.66 9.75 11.98 9.87 12.18C9.99 12.38 10.62 12.17 10.67 12.15L10.59 12.09C10.59 12.09 10.28 12.17 10.17 12.17C10.05 12.17 9.86 12.12 9.86 12C9.87 11.91 10.00 11.88 10.09 11.88C10.17 11.87 10.28 11.88 10.76 12.21C10.97 12.35 11.35 12.57 12.00 12.58Z" fill="#FFE682"/>
<path d="M10.59 12.09C10.59 12.09 10.29 12.17 10.17 12.17C10.06 12.17 9.86 12.12 9.87 11.99C9.87 11.91 10.01 11.88 10.10 11.87C10.17 11.87 10.25 11.88 10.59 12.09ZM13.40 12.09C13.40 12.09 13.71 12.17 13.82 12.17C13.94 12.17 14.13 12.12 14.13 11.99C14.12 11.91 13.99 11.88 13.90 11.87C13.83 11.87 13.74 11.88 13.40 12.09ZM10.97 11.82C10.94 11.80 10.91 11.78 10.88 11.76C10.83 11.73 10.79 11.69 10.74 11.66C10.74 11.66 10.81 11.58 10.84 11.58C10.89 11.56 10.95 11.59 10.96 11.69C10.97 11.77 10.97 11.82 10.97 11.82ZM10.76 12.63C10.81 12.66 10.87 12.66 10.91 12.65C11.01 12.65 11.10 12.59 11.10 12.40C11.10 12.40 11.23 12.46 11.44 12.51C11.44 12.51 11.48 12.56 11.48 12.64C11.49 12.71 11.44 12.79 11.39 12.79L10.91 12.70C10.80 12.68 10.76 12.63 10.76 12.63ZM13.03 11.82L13.12 11.75C13.16 11.72 13.20 11.69 13.25 11.66C13.25 11.66 13.19 11.58 13.16 11.58C13.11 11.56 13.05 11.59 13.04 11.69C13.03 11.73 13.03 11.78 13.03 11.82ZM13.23 12.63C13.18 12.66 13.12 12.66 13.08 12.65C12.98 12.65 12.90 12.59 12.90 12.40C12.90 12.40 12.76 12.46 12.55 12.51C12.55 12.51 12.52 12.56 12.51 12.64C12.51 12.71 12.55 12.79 12.61 12.79L13.09 12.70C13.20 12.68 13.23 12.63 13.23 12.63Z" fill="#171696"/>
<path d="M10.94 10.71C10.87 10.59 10.81 10.47 10.76 10.34L12.00 9.25L13.23 10.33C13.19 10.46 13.13 10.59 13.05 10.72L13.04 10.74L12.95 10.70C12.95 10.70 12.91 10.74 12.88 10.74C12.83 10.74 12.80 10.70 12.80 10.70C12.80 10.70 12.74 10.75 12.69 10.74C12.63 10.73 12.61 10.70 12.61 10.70C12.61 10.70 12.55 10.74 12.51 10.74C12.48 10.73 12.45 10.70 12.45 10.70C12.45 10.70 12.42 10.74 12.37 10.74C12.32 10.73 12.28 10.70 12.28 10.70C12.28 10.70 12.21 10.73 12.16 10.74C12.12 10.75 12.08 10.70 12.08 10.70C12.08 10.70 12.02 10.74 11.99 10.74C11.97 10.74 11.88 10.70 11.88 10.70C11.88 10.70 11.80 10.73 11.76 10.73C11.73 10.73 11.65 10.69 11.65 10.69C11.65 10.69 11.56 10.72 11.53 10.72C11.49 10.72 11.43 10.69 11.43 10.69C11.43 10.69 11.36 10.72 11.33 10.72C11.30 10.71 11.28 10.71 11.25 10.69C11.25 10.69 11.18 10.72 11.13 10.72C11.09 10.71 11.03 10.68 11.03 10.68C11.03 10.68 11.02 10.70 10.94 10.72L10.94 10.71Z" fill="#9DC9E2"/>
<path d="M12.00 8.00L12.00 9.25L13.23 10.34C13.35 9.99 13.36 9.68 13.36 9.55V8.00H12.00Z" fill="#FFE682"/>
<path d="M11.28 10.43L11.58 10.14L11.56 10.31C11.56 10.31 11.41 10.41 11.41 10.48L11.28 10.43ZM11.44 10.49C11.44 10.49 11.47 10.40 11.55 10.35L11.54 10.53L11.44 10.49ZM11.87 9.98C11.87 9.98 11.99 9.96 12.08 9.98C12.08 9.98 12.07 10.10 12.08 10.12C12.08 10.12 11.91 10.08 11.84 10.15C11.84 10.15 11.82 10.03 11.87 9.98ZM11.61 10.01C11.61 10.01 11.73 9.99 11.82 10.01C11.82 10.01 11.80 10.15 11.81 10.17C11.81 10.17 11.67 10.09 11.61 10.16C11.61 10.16 11.56 10.06 11.61 10.01Z" fill="white"/>
<path d="M11.60 10.17C11.60 10.17 11.72 10.16 11.81 10.17C11.81 10.17 11.80 10.29 11.81 10.32C11.81 10.32 11.65 10.28 11.58 10.34C11.59 10.34 11.55 10.23 11.60 10.17ZM11.84 10.15C11.84 10.15 12.02 10.12 12.11 10.14C12.11 10.14 12.08 10.24 12.12 10.31C12.12 10.31 11.93 10.26 11.86 10.32C11.86 10.32 11.80 10.20 11.84 10.15ZM11.59 10.34L11.82 10.36C11.82 10.36 11.80 10.53 11.81 10.56C11.81 10.56 11.62 10.51 11.59 10.57C11.59 10.57 11.52 10.41 11.59 10.34ZM11.85 10.34C11.85 10.34 12.06 10.32 12.15 10.34C12.15 10.34 12.10 10.47 12.16 10.59C12.16 10.59 11.89 10.51 11.85 10.57C11.85 10.57 11.79 10.41 11.85 10.34ZM12.17 9.98C12.17 9.98 12.29 9.96 12.38 9.98C12.38 9.98 12.36 10.10 12.38 10.12C12.38 10.12 12.21 10.08 12.14 10.15C12.14 10.15 12.12 10.03 12.17 9.98ZM12.17 10.15C12.17 10.15 12.29 10.13 12.38 10.15C12.38 10.15 12.36 10.27 12.38 10.29C12.38 10.29 12.21 10.26 12.14 10.32C12.14 10.32 12.12 10.20 12.17 10.15ZM12.18 10.32C12.18 10.32 12.30 10.31 12.40 10.32C12.40 10.32 12.37 10.52 12.38 10.54C12.38 10.54 12.24 10.47 12.17 10.53C12.17 10.53 12.14 10.38 12.18 10.32Z" fill="white"/>
<path d="M13.05 10.73C12.85 11.06 12.53 11.37 12.00 11.56C11.46 11.36 11.13 11.04 10.94 10.72L10.94 10.71C11.03 10.70 11.04 10.68 11.04 10.68C11.04 10.68 11.09 10.71 11.14 10.71C11.19 10.72 11.26 10.69 11.26 10.69C11.26 10.69 11.29 10.71 11.33 10.71C11.37 10.72 11.44 10.69 11.44 10.69C11.44 10.69 11.50 10.71 11.53 10.71C11.57 10.71 11.65 10.69 11.65 10.69C11.65 10.69 11.74 10.73 11.77 10.73C11.80 10.73 11.89 10.70 11.89 10.70C11.89 10.70 11.98 10.74 12.00 10.74C12.02 10.74 12.08 10.70 12.08 10.70C12.08 10.70 12.12 10.75 12.17 10.74C12.21 10.73 12.28 10.70 12.28 10.70C12.28 10.70 12.33 10.73 12.37 10.74C12.42 10.74 12.46 10.70 12.46 10.70C12.46 10.70 12.48 10.73 12.52 10.74C12.56 10.74 12.61 10.70 12.61 10.70C12.61 10.70 12.64 10.73 12.69 10.74C12.75 10.75 12.80 10.70 12.80 10.70C12.80 10.70 12.84 10.74 12.88 10.74C12.91 10.74 12.95 10.70 12.95 10.70L13.05 10.73Z" fill="#006AC8"/>
<path d="M13.26 9.41C13.23 9.43 13.19 9.43 13.19 9.43L12.29 8.33L12.37 8.25L13.04 9.03C13.06 9.05 13.17 9.18 13.28 9.32C13.28 9.32 13.29 9.38 13.26 9.41Z" fill="#D67C59"/>
<path d="M12.23 9.09L13.07 8.26L13.28 8.48C13.28 8.48 13.23 8.46 13.22 8.47C13.20 8.48 13.23 8.53 13.23 8.53C13.23 8.53 13.20 8.51 13.18 8.52C13.16 8.54 13.18 8.58 13.18 8.58C13.18 8.58 13.14 8.56 13.13 8.57C13.11 8.58 13.13 8.63 13.13 8.63C13.13 8.63 13.08 8.62 13.07 8.63C13.06 8.64 13.07 8.69 13.07 8.69C13.07 8.69 13.02 8.67 13.00 8.69C12.98 8.72 13.01 8.75 13.01 8.75C13.01 8.75 12.96 8.72 12.93 8.76C12.91 8.79 12.93 8.82 12.93 8.82C12.93 8.82 12.89 8.80 12.88 8.81C12.87 8.82 12.88 8.88 12.88 8.88C12.88 8.88 12.84 8.85 12.81 8.88C12.78 8.91 12.81 8.94 12.81 8.94C12.81 8.94 12.78 8.92 12.76 8.93C12.74 8.94 12.76 8.99 12.76 8.99C12.76 8.99 12.73 8.97 12.70 8.99C12.67 9.02 12.70 9.05 12.70 9.05C12.70 9.05 12.67 9.02 12.64 9.05C12.61 9.08 12.64 9.11 12.64 9.11C12.64 9.11 12.59 9.09 12.57 9.11C12.55 9.14 12.58 9.17 12.58 9.17C12.58 9.17 12.55 9.15 12.52 9.16C12.50 9.17 12.52 9.22 12.52 9.22C12.52 9.22 12.49 9.19 12.48 9.20C12.46 9.23 12.48 9.27 12.48 9.27C12.48 9.27 12.45 9.24 12.43 9.26C12.41 9.27 12.44 9.32 12.44 9.32C12.44 9.32 12.39 9.29 12.40 9.29L12.23 9.09Z" fill="#E8E8E6"/>
<path d="M10.85 8.11C10.83 8.11 10.81 8.12 10.77 8.15C10.71 8.21 10.69 8.26 10.76 8.33L11.14 8.66C11.19 8.72 11.27 8.73 11.30 8.75L11.68 9.14C11.73 9.19 11.75 9.22 11.73 9.25C11.70 9.31 11.73 9.32 11.74 9.32C11.79 9.33 11.76 9.30 11.77 9.28C11.77 9.24 11.81 9.21 11.84 9.20C11.86 9.19 11.87 9.20 11.87 9.20C11.89 9.21 11.91 9.19 11.88 9.16C11.86 9.13 11.83 9.18 11.79 9.17C11.79 9.17 11.74 9.13 11.72 9.11L11.62 9.01C11.60 8.98 11.50 8.85 11.36 8.71C11.32 8.68 11.32 8.58 11.29 8.54C11.29 8.52 11.00 8.24 10.90 8.13C10.88 8.12 10.87 8.11 10.85 8.11Z" fill="#D67C59"/>
<path d="M11.77 8.64C11.76 8.64 11.76 8.64 11.76 8.64C11.70 8.61 11.40 8.49 11.39 8.45C11.39 8.44 11.39 8.44 11.39 8.43C11.40 8.42 11.41 8.40 11.42 8.36C11.43 8.35 11.53 8.18 11.59 8.17H11.60L11.93 8.42V8.42C11.93 8.44 11.80 8.63 11.77 8.64C11.77 8.64 11.77 8.64 11.77 8.64ZM11.40 8.44C11.41 8.46 11.60 8.55 11.77 8.62C11.79 8.61 11.90 8.45 11.91 8.42L11.59 8.18C11.54 8.19 11.44 8.35 11.44 8.36C11.43 8.39 11.41 8.42 11.40 8.44Z" fill="black"/>
<path d="M10.76 9.40L11.51 8.48C11.52 8.46 11.59 8.46 11.60 8.53L10.89 9.49C10.89 9.50 10.81 9.49 10.76 9.40Z" fill="#D67C59"/>
<path d="M12.62 5.96C12.58 5.97 12.55 5.99 12.51 6.06C12.44 6.19 12.46 6.26 12.66 6.35L13.43 6.72C13.58 6.79 13.63 6.72 13.72 6.76L15.22 7.53C15.35 7.58 15.42 7.60 15.41 7.67C15.40 7.75 15.43 7.77 15.45 7.77C15.49 7.78 15.51 7.79 15.52 7.75C15.52 7.75 15.51 7.74 15.50 7.72C15.49 7.70 15.48 7.68 15.48 7.66C15.49 7.64 15.49 7.63 15.50 7.62C15.50 7.60 15.52 7.59 15.54 7.56C15.55 7.55 15.56 7.54 15.58 7.54C15.59 7.54 15.60 7.55 15.61 7.55C15.62 7.56 15.64 7.57 15.65 7.58C15.70 7.58 15.65 7.50 15.62 7.48C15.54 7.44 15.53 7.52 15.45 7.51C15.45 7.51 15.31 7.46 15.26 7.42C15.17 7.37 15.03 7.31 15.00 7.28C14.91 7.26 14.18 6.85 13.78 6.65C13.73 6.61 13.71 6.48 13.62 6.43C13.60 6.39 13.04 6.14 12.75 6.00C12.70 5.97 12.66 5.96 12.62 5.96Z" fill="#D67C59"/>
<path d="M13.81 6.64C13.83 6.63 13.82 6.66 13.83 6.67C13.84 6.71 13.84 6.75 13.85 6.78C13.87 6.81 13.88 6.82 13.90 6.84C13.95 6.87 14.08 6.94 14.18 6.88C14.18 6.87 14.19 6.87 14.20 6.86C14.20 6.86 14.16 6.98 14.28 7.04L14.72 7.27C14.72 7.27 14.76 7.35 14.74 7.45C14.73 7.47 14.72 7.48 14.74 7.49C14.77 7.51 14.82 7.57 14.85 7.66C14.85 7.66 14.93 7.62 14.93 7.57C14.93 7.52 14.90 7.49 14.89 7.45C14.88 7.41 14.86 7.32 14.87 7.29C14.88 7.26 14.93 7.25 14.95 7.23C14.97 7.22 14.99 7.25 14.99 7.27C14.99 7.30 14.96 7.29 14.94 7.30C14.94 7.30 14.97 7.35 14.97 7.39L15.23 7.53C15.23 7.53 15.20 7.57 15.18 7.59C15.17 7.62 15.14 7.88 15.07 8.01C14.99 8.13 14.96 8.10 14.95 8.11C14.93 8.13 14.91 8.15 14.89 8.17C14.87 8.18 14.78 8.19 14.76 8.14C14.74 8.10 14.73 8.07 14.68 8.02C14.62 7.98 14.51 7.87 14.51 7.83C14.51 7.83 14.45 8.01 14.45 8.17C14.45 8.17 14.22 8.22 14.00 8.22C13.79 8.23 13.68 8.18 13.68 8.18C13.68 8.18 13.65 8.00 13.66 7.97C13.66 7.97 13.63 8.09 13.61 8.13C13.58 8.17 13.54 8.27 13.48 8.28C13.42 8.28 13.37 8.22 13.36 8.19V8.01H13.12C13.12 8.00 13.01 8.04 12.98 8.04C12.95 8.04 12.93 8.01 12.95 7.99L12.97 7.98C12.94 7.98 12.89 8.01 12.89 8.01H12.77C12.77 8.00 12.78 7.99 12.78 7.99C12.79 7.96 12.85 7.93 12.90 7.91C12.94 7.89 12.99 7.87 13.03 7.87C13.08 7.86 13.12 7.86 13.20 7.88C13.22 7.88 13.31 7.89 13.36 7.92C13.38 7.92 13.39 7.93 13.39 7.89C13.38 7.85 13.35 7.73 13.40 7.65C13.43 7.60 13.42 7.56 13.42 7.51C13.41 7.46 13.39 7.35 13.39 7.31C13.39 7.15 13.51 7.08 13.62 7.05C13.74 7.01 13.82 6.97 13.82 6.90C13.80 6.82 13.82 6.70 13.81 6.64Z" fill="#653024"/>
<path d="M14.29 6.32C14.32 6.42 14.32 6.44 14.32 6.47C14.32 6.50 14.30 6.51 14.32 6.55C14.34 6.62 14.30 6.69 14.25 6.77C14.22 6.81 14.21 6.85 14.17 6.88C14.08 6.94 13.96 6.87 13.90 6.84C13.87 6.83 13.85 6.81 13.85 6.78C13.83 6.75 13.83 6.72 13.82 6.67C13.82 6.66 13.82 6.64 13.80 6.64C13.77 6.60 13.78 6.59 13.76 6.56C13.75 6.53 13.79 6.50 13.82 6.51C13.80 6.45 13.79 6.39 13.81 6.34C13.82 6.32 13.79 6.28 13.82 6.29C13.95 6.34 14.10 6.33 14.24 6.33C14.25 6.33 14.26 6.30 14.28 6.31C14.28 6.31 14.29 6.32 14.29 6.32Z" fill="#653024"/>
<path d="M14.30 6.37C14.32 6.36 14.31 6.30 14.29 6.25C14.29 6.22 14.26 6.21 14.23 6.18C14.20 6.14 14.19 6.15 14.17 6.14C14.15 6.13 14.11 6.13 14.09 6.12C14.08 6.11 14.03 6.12 13.99 6.12C13.93 6.13 13.90 6.13 13.86 6.15C13.81 6.17 13.78 6.20 13.77 6.24C13.75 6.27 13.74 6.31 13.74 6.43C13.75 6.55 13.77 6.53 13.77 6.53C13.77 6.53 13.80 6.48 13.82 6.51L13.81 6.41C13.81 6.38 13.81 6.33 13.83 6.28C13.83 6.28 13.96 6.33 14.08 6.33C14.17 6.33 14.28 6.32 14.28 6.30L14.30 6.37Z" fill="black"/>
<path d="M14.63 8.73C14.59 8.51 14.49 8.33 14.49 8.31C14.49 8.31 14.38 8.33 14.19 8.35C14.00 8.37 13.95 8.36 13.87 8.35L13.68 8.33C13.68 8.33 13.64 8.40 13.64 8.47L13.57 9.41C13.57 9.41 13.55 9.51 13.55 9.75C13.55 10.02 13.47 10.57 13.47 10.86L13.55 10.87C13.55 10.87 13.95 10.90 13.95 10.85C13.95 10.79 13.98 10.09 13.92 9.67C13.92 9.67 13.93 9.59 13.95 9.52C13.98 9.45 14.07 9.23 14.07 9.19C14.07 9.19 14.23 9.64 14.24 9.72C14.25 9.79 14.27 10.79 14.29 10.88C14.29 10.88 14.52 11.05 14.55 11.07C14.58 11.09 14.80 10.98 14.81 10.95C14.82 10.92 14.78 10.58 14.68 10.02C14.64 9.82 14.66 9.78 14.66 9.73C14.66 9.67 14.66 8.96 14.63 8.73Z" fill="#E8E8E6"/>
<path d="M14.73 11.00C14.74 11.04 14.75 11.09 14.76 11.16C14.76 11.17 14.78 11.25 14.73 11.25C14.70 11.25 14.69 11.17 14.69 11.17C14.69 11.17 14.72 11.26 14.68 11.27C14.63 11.28 14.63 11.17 14.63 11.17C14.63 11.20 14.66 11.28 14.62 11.29C14.57 11.30 14.55 11.18 14.55 11.18C14.55 11.18 14.59 11.30 14.54 11.30C14.49 11.31 14.49 11.19 14.49 11.19C14.49 11.19 14.52 11.33 14.45 11.32C14.42 11.31 14.41 11.26 14.40 11.23C14.39 11.19 14.36 11.14 14.39 11.05C14.42 10.98 14.41 10.96 14.41 10.96L14.55 11.06C14.57 11.09 14.73 11.00 14.73 11.00ZM13.90 10.88C13.91 10.87 13.91 10.93 13.91 10.96C13.92 10.99 13.91 11.05 13.81 11.05C13.72 11.04 13.62 11.02 13.56 11.04C13.50 11.05 13.42 11.06 13.37 11.06C13.31 11.06 13.28 11.05 13.26 11.04C13.24 11.03 13.20 11.05 13.18 11.05C13.16 11.05 13.13 11.02 13.13 11.00C13.13 10.97 13.17 10.97 13.22 10.96C13.26 10.96 13.32 10.95 13.36 10.94C13.39 10.92 13.44 10.89 13.52 10.88L13.68 10.89L13.90 10.88ZM15.28 7.44C15.29 7.44 15.33 7.38 15.29 7.35C15.29 7.35 15.28 7.30 15.23 7.30C15.23 7.30 15.20 7.24 15.14 7.25C15.14 7.25 15.08 7.21 15.06 7.21C15.03 7.22 14.98 7.28 14.98 7.30C14.97 7.32 14.98 7.35 14.99 7.37C15.01 7.38 15.02 7.36 15.02 7.34C15.02 7.34 15.01 7.38 15.05 7.40C15.08 7.42 15.08 7.40 15.08 7.38C15.08 7.38 15.09 7.42 15.11 7.43C15.13 7.44 15.14 7.42 15.16 7.42C15.16 7.42 15.13 7.44 15.15 7.46C15.17 7.47 15.20 7.47 15.21 7.45C15.23 7.44 15.22 7.41 15.28 7.44Z" fill="#653024"/>
<path d="M14.47 5.09C14.21 4.92 13.94 4.78 13.65 4.68C13.69 4.42 13.51 3.94 13.01 4.18C13.32 4.20 13.36 4.45 13.43 4.60C13.05 4.48 12.65 4.41 12.25 4.38C12.21 4.21 12.04 3.98 11.82 3.98C11.72 3.98 11.60 4.03 11.49 4.16C11.77 4.08 11.89 4.26 12.01 4.38C11.67 4.38 11.33 4.42 11.00 4.49C10.89 4.25 10.51 3.96 10.22 4.40C10.49 4.27 10.64 4.45 10.77 4.55C10.50 4.62 10.23 4.73 9.97 4.85C9.97 4.85 9.97 4.85 9.97 4.85C9.86 4.63 9.28 4.38 9.14 4.96C9.42 4.66 9.71 4.99 9.88 4.90C9.62 5.03 9.37 5.19 9.14 5.37C9.14 5.37 9.14 5.37 9.14 5.37C8.99 5.19 8.36 5.05 8.36 5.66C8.57 5.31 8.91 5.55 9.06 5.44C8.81 5.65 8.59 5.88 8.39 6.12C8.39 6.12 8.39 6.12 8.38 6.11C8.21 5.94 7.58 5.88 7.63 6.48C7.81 6.11 8.19 6.33 8.32 6.19C8.30 6.21 8.29 6.24 8.28 6.27C8.10 6.52 7.94 6.79 7.81 7.07C7.60 6.96 6.98 7.06 7.19 7.62C7.26 7.21 7.69 7.33 7.77 7.16C7.77 7.16 7.77 7.16 7.77 7.16C7.64 7.46 7.54 7.78 7.48 8.10C7.22 8.10 6.79 8.35 7.10 8.79C7.07 8.50 7.30 8.42 7.44 8.33C7.40 8.55 7.39 8.77 7.39 8.99C7.39 9.06 7.39 9.12 7.39 9.19C7.16 9.29 6.84 9.72 7.34 9.99C7.20 9.76 7.32 9.60 7.41 9.46C7.44 9.75 7.50 10.04 7.58 10.31C7.36 10.46 7.13 10.86 7.60 11.09C7.45 10.86 7.57 10.69 7.66 10.55C7.76 10.83 7.88 11.10 8.03 11.35C7.86 11.55 7.74 12.02 8.27 12.11C8.05 11.92 8.13 11.73 8.17 11.57C8.34 11.82 8.54 12.07 8.77 12.28C8.60 12.48 8.51 12.97 9.05 13.02C8.79 12.83 8.91 12.60 8.92 12.43C9.18 12.66 9.47 12.87 9.78 13.04C9.73 13.29 9.87 13.74 10.37 13.56C10.10 13.51 10.06 13.31 10.01 13.16C10.32 13.30 10.64 13.41 10.98 13.49C10.97 13.75 11.15 14.12 11.60 13.92C11.33 13.89 11.27 13.69 11.22 13.54C11.48 13.58 11.74 13.60 12.00 13.60C12.05 13.60 12.10 13.60 12.15 13.60C12.21 13.86 12.51 14.21 12.89 13.85C12.60 13.92 12.50 13.71 12.38 13.59C12.73 13.56 13.07 13.49 13.39 13.39C13.55 13.60 13.94 13.79 14.16 13.34C13.94 13.48 13.78 13.38 13.64 13.30C13.91 13.20 14.17 13.07 14.41 12.92C14.61 13.08 15.16 13.15 15.15 12.58C15.01 12.83 14.79 12.78 14.63 12.78C14.89 12.60 15.14 12.38 15.36 12.15C15.59 12.27 16.07 12.27 16.04 11.75C15.91 12.00 15.69 11.96 15.52 11.97C15.73 11.72 15.91 11.45 16.07 11.17C16.32 11.21 16.79 11.05 16.57 10.56C16.54 10.83 16.34 10.88 16.18 10.94C16.33 10.63 16.43 10.31 16.51 9.98C16.76 9.92 17.12 9.62 16.76 9.24C16.82 9.48 16.68 9.60 16.56 9.69C16.60 9.46 16.61 9.22 16.61 8.99V8.89C16.87 8.81 17.19 8.47 16.80 8.13C16.88 8.39 16.72 8.52 16.60 8.64C16.58 8.37 16.54 8.12 16.48 7.86C16.70 7.73 16.95 7.27 16.43 7.06C16.61 7.29 16.48 7.47 16.41 7.62C16.33 7.35 16.22 7.09 16.09 6.84C16.28 6.66 16.42 6.18 15.89 6.08C16.10 6.27 16.01 6.47 15.97 6.63C15.83 6.39 15.66 6.17 15.48 5.96C15.58 5.72 15.54 5.26 15.02 5.33C15.24 5.42 15.26 5.58 15.27 5.73C15.09 5.55 14.89 5.38 14.68 5.23C14.75 4.98 14.62 4.47 14.10 4.67C14.39 4.72 14.42 4.93 14.47 5.09ZM12.01 4.49H12.08C11.93 4.59 11.79 4.89 11.46 4.81C11.82 5.21 12.21 4.75 12.26 4.50C12.65 4.52 13.04 4.59 13.41 4.71C13.24 4.77 13.02 4.96 12.76 4.78C12.95 5.28 13.47 5.00 13.61 4.78C13.92 4.90 14.22 5.06 14.50 5.24C14.32 5.25 14.06 5.47 13.79 5.25C13.93 5.76 14.47 5.54 14.64 5.34C14.88 5.51 15.11 5.71 15.31 5.93C15.32 5.96 15.34 5.99 15.36 6.00C15.20 5.88 14.84 6.15 14.60 5.83C14.62 6.39 15.27 6.25 15.44 6.07C15.62 6.29 15.79 6.52 15.93 6.77C15.77 6.68 15.43 6.74 15.32 6.40C15.16 6.92 15.77 7.01 16.01 6.92C16.14 7.18 16.25 7.46 16.34 7.74C16.19 7.64 15.86 7.62 15.82 7.29C15.58 7.75 16.12 7.95 16.38 7.92C16.45 8.20 16.49 8.49 16.51 8.79C16.45 8.61 16.07 8.50 16.15 8.13C15.74 8.52 16.27 8.91 16.51 8.92V9.00C16.51 9.28 16.49 9.57 16.43 9.84C16.43 9.86 16.42 9.88 16.42 9.90C16.43 9.71 16.00 9.56 16.13 9.18C15.68 9.52 16.16 9.96 16.40 10.00C16.32 10.35 16.20 10.68 16.04 11.01C16.03 10.83 15.78 10.58 15.99 10.29C15.47 10.47 15.76 11.01 15.97 11.15C15.81 11.45 15.62 11.73 15.39 11.98C15.45 11.81 15.29 11.48 15.60 11.29C15.04 11.27 15.12 11.91 15.28 12.09C15.05 12.34 14.79 12.56 14.50 12.75C14.54 12.57 14.44 12.27 14.73 12.11C14.21 12.07 14.22 12.62 14.35 12.85C14.09 13.01 13.80 13.14 13.51 13.25C13.48 13.24 13.46 13.24 13.43 13.25C13.62 13.19 13.61 12.74 14.01 12.72C13.52 12.42 13.28 13.05 13.34 13.28C13.34 13.29 13.34 13.29 13.34 13.30C13.01 13.41 12.68 13.47 12.33 13.49C12.49 13.41 12.65 13.11 12.98 13.22C12.63 12.78 12.19 13.26 12.15 13.50L12.01 13.50C11.72 13.50 11.44 13.48 11.16 13.43C11.15 13.41 11.13 13.40 11.11 13.39C11.29 13.46 11.57 13.11 11.89 13.35C11.72 12.81 11.12 13.14 11.02 13.35C11.01 13.36 11.01 13.38 11.00 13.39C10.63 13.31 10.26 13.17 9.92 12.99C9.92 12.99 9.92 12.99 9.92 12.99C10.09 13.08 10.40 12.74 10.70 13.01C10.56 12.46 9.95 12.74 9.83 12.95C9.55 12.79 9.28 12.60 9.04 12.39C9.21 12.42 9.48 12.39 9.60 12.67C9.71 12.14 9.09 12.11 8.87 12.23C8.62 11.99 8.40 11.72 8.22 11.43C8.37 11.53 8.73 11.45 8.84 11.79C8.99 11.26 8.36 11.19 8.13 11.30C7.96 11.01 7.82 10.70 7.72 10.38C7.78 10.56 8.23 10.56 8.24 10.95C8.55 10.48 7.93 10.23 7.69 10.28C7.60 9.98 7.54 9.66 7.52 9.35C7.64 9.48 7.98 9.53 7.98 9.87C8.28 9.44 7.77 9.18 7.51 9.18C7.51 9.12 7.51 9.06 7.51 9.00C7.51 8.77 7.52 8.54 7.56 8.31C7.63 8.48 7.88 8.67 7.73 8.97C8.21 8.71 7.83 8.22 7.59 8.13C7.64 7.89 7.71 7.64 7.80 7.41C7.86 7.57 7.94 7.76 7.77 7.95C8.24 7.82 8.09 7.36 7.90 7.16C8.01 6.92 8.14 6.69 8.28 6.48C8.29 6.64 8.29 6.82 8.10 6.95C8.58 6.95 8.57 6.49 8.45 6.24C8.62 6.03 8.81 5.83 9.01 5.65C9.00 5.82 9.02 6.05 8.78 6.17C9.26 6.23 9.29 5.75 9.20 5.49C9.38 5.34 9.57 5.21 9.77 5.10C9.73 5.26 9.70 5.48 9.44 5.55C9.90 5.71 10.03 5.25 9.99 4.98C10.27 4.84 10.55 4.73 10.84 4.65C10.71 4.77 10.62 5.09 10.28 5.06C10.71 5.41 11.03 4.86 11.02 4.61C11.35 4.53 11.68 4.49 12.01 4.49Z" fill="#338A00"/>
<path d="M8.77 7.53L10.85 6.45C10.85 6.40 10.82 6.35 10.79 6.31C10.20 6.60 9.66 6.95 9.00 7.17C8.96 7.18 8.63 7.32 8.47 7.52C8.41 7.58 8.41 7.65 8.41 7.65C8.41 7.65 8.41 7.74 8.43 7.77C8.43 7.77 8.44 7.79 8.47 7.81C8.47 7.81 8.49 7.82 8.50 7.82C8.52 7.82 8.54 7.82 8.58 7.76C8.61 7.70 8.72 7.57 8.77 7.53Z" fill="#D67C59"/>
<path d="M10.19 6.64C10.18 6.66 10.16 6.65 10.16 6.65C10.15 6.71 10.16 6.74 10.14 6.78C10.12 6.82 10.05 6.86 10.05 6.86C10.00 6.87 9.93 6.94 9.82 6.88C9.81 6.88 9.80 6.87 9.80 6.86C9.80 6.86 9.83 6.98 9.71 7.04C9.68 7.06 9.27 7.27 9.27 7.27C9.27 7.27 9.23 7.35 9.26 7.45C9.26 7.47 9.27 7.48 9.25 7.49C9.22 7.52 9.17 7.57 9.15 7.66C9.15 7.66 9.06 7.63 9.06 7.57C9.06 7.52 9.09 7.49 9.10 7.45C9.11 7.41 9.13 7.32 9.12 7.29C9.11 7.26 9.06 7.25 9.04 7.24C9.02 7.22 9.00 7.25 9.00 7.27C9.01 7.30 9.03 7.30 9.05 7.30C9.05 7.30 9.02 7.36 9.02 7.40L8.77 7.53C8.77 7.53 8.80 7.58 8.81 7.60C8.82 7.62 8.85 7.88 8.93 8.01C9.00 8.13 9.03 8.10 9.05 8.12C9.06 8.13 9.08 8.15 9.10 8.17C9.12 8.18 9.21 8.19 9.23 8.14C9.25 8.10 9.26 8.07 9.32 8.03C9.37 7.98 9.48 7.88 9.48 7.83C9.48 7.83 9.55 8.02 9.54 8.17C9.54 8.17 9.78 8.22 9.99 8.23C10.20 8.23 10.31 8.18 10.31 8.18C10.31 8.18 10.34 8.00 10.33 7.97C10.33 7.97 10.36 8.09 10.39 8.13C10.42 8.18 10.45 8.27 10.51 8.28C10.57 8.28 10.62 8.22 10.63 8.20V8.01H10.87C10.87 8.00 10.98 8.05 11.01 8.04C11.05 8.04 11.07 8.01 11.04 8.00L11.03 7.99C11.06 7.99 11.10 8.01 11.10 8.01H11.22C11.22 8.00 11.22 8.00 11.21 7.99C11.21 7.96 11.14 7.93 11.10 7.91C11.05 7.89 11.00 7.87 10.97 7.87C10.91 7.86 10.88 7.87 10.79 7.88C10.77 7.88 10.68 7.89 10.63 7.92C10.61 7.93 10.60 7.93 10.61 7.89C10.61 7.85 10.61 7.67 10.57 7.59C10.54 7.54 10.54 7.49 10.55 7.45C10.55 7.40 10.55 7.25 10.55 7.20C10.54 7.16 10.47 7.09 10.36 7.08C10.25 7.06 10.16 6.98 10.16 6.90C10.15 6.83 10.17 6.70 10.19 6.64Z" fill="#AD7C59"/>
<path d="M9.70 6.32C9.68 6.41 9.68 6.49 9.68 6.58C9.68 6.64 9.71 6.71 9.74 6.77C9.76 6.81 9.78 6.85 9.82 6.88C9.92 6.94 10.01 6.87 10.07 6.85C10.09 6.84 10.13 6.81 10.14 6.78C10.16 6.75 10.15 6.72 10.17 6.65C10.17 6.66 10.19 6.64 10.19 6.64C10.22 6.60 10.21 6.59 10.22 6.56C10.23 6.53 10.20 6.50 10.17 6.50C10.19 6.45 10.20 6.39 10.18 6.34C10.18 6.32 10.20 6.27 10.17 6.29C10.04 6.34 9.89 6.32 9.75 6.32C9.74 6.32 9.73 6.30 9.71 6.30C9.71 6.31 9.70 6.32 9.70 6.32Z" fill="#AD7D5A"/>
<path d="M9.69 6.37C9.68 6.36 9.67 6.33 9.69 6.28C9.71 6.23 9.69 6.22 9.72 6.19C9.75 6.16 9.74 6.15 9.76 6.14C9.78 6.13 9.84 6.13 9.86 6.12C9.89 6.11 9.92 6.10 9.95 6.10C9.99 6.09 10.07 6.09 10.11 6.11C10.16 6.14 10.19 6.20 10.21 6.21C10.24 6.23 10.25 6.32 10.25 6.44C10.24 6.56 10.22 6.53 10.22 6.53C10.22 6.53 10.19 6.47 10.16 6.52C10.16 6.52 10.16 6.48 10.16 6.44C10.16 6.41 10.14 6.35 10.16 6.30C10.16 6.30 10.00 6.35 9.92 6.35C9.83 6.34 9.71 6.32 9.71 6.30L9.69 6.37Z" fill="black"/>
<path d="M9.37 8.73C9.40 8.51 9.51 8.33 9.51 8.31C9.51 8.31 9.62 8.33 9.80 8.35C9.99 8.37 10.04 8.36 10.13 8.35C10.21 8.34 10.32 8.33 10.32 8.33C10.32 8.33 10.35 8.40 10.35 8.47L10.42 9.41C10.42 9.41 10.45 9.51 10.45 9.75C10.45 10.02 10.52 10.57 10.52 10.86L10.45 10.87C10.45 10.87 10.04 10.90 10.04 10.85C10.04 10.79 10.02 10.09 10.08 9.67C10.08 9.67 10.06 9.59 10.04 9.52C10.02 9.45 9.92 9.23 9.92 9.19C9.92 9.19 9.76 9.64 9.75 9.72C9.74 9.79 9.72 10.79 9.71 10.88C9.71 10.88 9.47 11.05 9.44 11.07C9.41 11.09 9.19 10.98 9.19 10.95C9.18 10.92 9.21 10.58 9.32 10.02C9.35 9.82 9.33 9.78 9.33 9.73C9.33 9.67 9.33 8.96 9.37 8.73Z" fill="#E8E8E6"/>
<path d="M10.03 8.37C9.90 8.37 9.75 8.36 9.69 8.35C9.60 8.34 9.53 8.32 9.49 8.31L9.48 8.31V8.31C9.48 8.30 9.48 8.21 9.52 8.16L9.52 8.16H9.53C9.53 8.16 9.63 8.18 9.76 8.19H9.76C9.90 8.21 10.01 8.22 10.11 8.21C10.22 8.20 10.32 8.17 10.32 8.17L10.33 8.17L10.33 8.18C10.34 8.20 10.36 8.31 10.34 8.34L10.34 8.34H10.34C10.34 8.34 10.22 8.36 10.10 8.37C10.08 8.37 10.05 8.37 10.03 8.37ZM9.50 8.30C9.53 8.31 9.61 8.32 9.70 8.33C9.78 8.34 9.98 8.36 10.10 8.36C10.21 8.35 10.31 8.33 10.33 8.33C10.33 8.31 10.32 8.25 10.31 8.19C10.29 8.20 10.20 8.22 10.11 8.23C10.01 8.24 9.90 8.23 9.76 8.21H9.75C9.63 8.20 9.54 8.18 9.52 8.18C9.50 8.22 9.50 8.28 9.50 8.30Z" fill="black"/>
<path d="M9.26 11.00C9.25 11.04 9.24 11.09 9.23 11.16C9.23 11.17 9.22 11.25 9.26 11.25C9.29 11.25 9.30 11.17 9.30 11.17C9.30 11.17 9.27 11.26 9.31 11.27C9.36 11.28 9.37 11.17 9.37 11.17C9.36 11.20 9.33 11.28 9.38 11.29C9.43 11.30 9.44 11.18 9.44 11.18C9.44 11.18 9.40 11.30 9.45 11.30C9.50 11.31 9.50 11.19 9.50 11.19C9.50 11.19 9.47 11.33 9.54 11.32C9.58 11.31 9.59 11.26 9.59 11.23C9.61 11.19 9.63 11.14 9.60 11.05C9.58 10.98 9.59 10.96 9.59 10.96L9.44 11.06C9.41 11.09 9.26 11.00 9.26 11.00ZM10.09 10.88C10.08 10.87 10.08 10.93 10.07 10.96C10.07 10.99 10.08 11.05 10.18 11.05C10.27 11.04 10.37 11.02 10.43 11.04C10.49 11.05 10.57 11.06 10.62 11.06C10.67 11.06 10.70 11.05 10.73 11.04C10.75 11.03 10.79 11.05 10.81 11.05C10.83 11.05 10.86 11.02 10.86 11.00C10.85 10.97 10.82 10.97 10.77 10.96C10.73 10.96 10.66 10.95 10.63 10.94C10.60 10.92 10.55 10.89 10.47 10.88L10.31 10.89H10.09V10.88Z" fill="#AD7D5A"/>
<path d="M9.64 11.08L9.63 10.95L9.68 11.00L9.70 10.90C9.72 10.89 9.76 10.94 9.76 10.94L9.75 10.84L9.84 10.93C9.84 10.93 9.83 10.85 9.86 10.80C9.86 10.80 9.92 10.86 9.92 10.92C9.92 10.98 9.98 10.84 9.98 10.84L10.02 10.99L10.06 10.93L10.09 11.05L10.16 10.95L10.21 11.07L10.34 11.06L10.35 11.13L10.40 11.07L10.48 11.11C10.48 11.11 10.54 11.09 10.57 11.09C10.60 11.09 10.64 11.13 10.64 11.13C10.64 11.13 10.66 11.09 10.68 11.08C10.70 11.06 10.73 11.10 10.74 11.12L10.79 11.04C10.79 11.04 10.85 11.10 10.86 11.12C10.86 11.12 10.87 11.05 10.88 11.03C10.90 11.01 10.92 11.04 10.94 11.07L10.97 10.95C10.97 10.95 11.01 10.95 11.04 11.00C11.07 11.04 11.07 10.93 11.07 10.93C11.07 10.93 11.14 11.02 11.15 11.08C11.15 11.08 10.68 11.25 10.35 11.20C9.96 11.16 9.63 11.08 9.64 11.08ZM12.87 11.07C12.87 11.07 12.89 11.01 12.92 10.98C12.92 10.98 12.98 11.05 12.98 11.07C12.98 11.07 13.00 11.06 13.03 11.04L13.07 11.08L13.13 11.05L13.18 11.09L13.27 11.05L13.31 11.09L13.45 11.07L13.51 11.10L13.56 11.03L13.61 11.08L13.68 11.01C13.68 11.01 13.72 11.04 13.73 11.06C13.73 11.06 13.79 11.03 13.81 11.01C13.81 11.01 13.87 10.98 13.88 11.02C13.88 11.02 13.91 10.99 13.91 10.96C13.91 10.93 13.95 10.95 13.97 10.99C13.97 10.99 13.98 10.93 14.03 10.92C14.03 10.92 14.06 10.96 14.05 11.03C14.05 11.03 14.12 10.97 14.15 10.97C14.15 10.97 14.17 11.04 14.14 11.11C14.14 11.11 14.21 10.99 14.23 11.03C14.23 11.06 14.25 11.13 14.23 11.19L14.30 11.15L14.32 11.22L14.39 11.21C14.39 11.21 13.98 11.27 13.60 11.24C13.22 11.20 12.87 11.07 12.87 11.07ZM12.59 11.35C12.60 11.34 12.46 11.65 12.11 11.67C11.61 11.69 11.19 11.45 11.19 11.45C11.19 11.45 11.24 11.36 11.28 11.34C11.28 11.34 11.35 11.39 11.37 11.46C11.37 11.46 11.38 11.42 11.40 11.38C11.40 11.38 11.48 11.42 11.50 11.47C11.50 11.47 11.53 11.42 11.55 11.40C11.57 11.38 11.60 11.46 11.60 11.51C11.60 11.51 11.65 11.45 11.68 11.45C11.68 11.45 11.74 11.48 11.76 11.58C11.76 11.58 11.81 11.52 11.84 11.53C11.84 11.53 11.90 11.58 11.89 11.64C11.88 11.67 11.96 11.60 12.05 11.58L12.13 11.64L12.23 11.50C12.23 11.50 12.29 11.52 12.29 11.56C12.29 11.56 12.32 11.45 12.35 11.44C12.37 11.43 12.40 11.47 12.40 11.51C12.40 11.51 12.41 11.42 12.45 11.41C12.45 11.41 12.50 11.44 12.50 11.47C12.50 11.47 12.55 11.37 12.59 11.35Z" fill="#5AC800"/>
</g>
</g>
<rect x="0.25" y="0.25" width="23.5" height="17.5" rx="1.75" stroke="#DDE0EA" stroke-width="0.5" style="fill-opacity:0"/>
<defs>
<clipPath id="clip0_1223_3893">
<rect width="24" height="18" rx="2" fill="white"/>
</clipPath>
<clipPath id="clip1_1223_3893">
<rect width="24" height="18" fill="white"/>
</clipPath>
</defs>
</svg>
