<svg width="24" height="18" viewBox="0 0 24 18" fill="none" xmlns="http://www.w3.org/2000/svg">
<g clip-path="url(#clip0_1223_3946)">
<g clip-path="url(#clip1_1223_3946)">
<path d="M0 0H24V18H0V0Z" fill="#FFCD00"/>
<path d="M0 18H24V0L0 18Z" fill="#FF671F"/>
<path d="M8.44 9.92C7.94 9.73 7.67 10.52 7.18 10.38C7.36 10.66 7.78 10.38 7.94 10.41C8.22 10.46 8.80 10.35 8.44 9.92ZM8.12 11.00C7.87 10.89 7.61 11.27 7.65 11.43C7.71 11.64 8.28 11.47 8.12 11.00ZM6.97 12.62C7.10 12.66 7.27 12.74 7.24 13.00C7.21 13.26 6.72 13.79 6.27 13.82C5.83 13.85 5.67 14.38 5.29 14.23C5.64 14.17 5.64 13.76 5.92 13.63C5.72 13.56 5.61 14.02 5.35 14.02C5.09 14.02 4.97 14.43 4.65 14.41C4.33 14.38 4.30 14.91 3.66 14.92C3.17 14.93 2.57 15.50 2.35 15.25C2.82 15.18 3.01 14.92 3.30 14.63C3.75 14.16 4.26 14.37 4.44 13.96C4.23 14.10 3.99 14.17 3.75 14.17C3.45 14.16 3.13 14.64 2.79 14.43C2.99 14.40 3.11 14.32 3.32 14.11C3.52 13.89 3.83 14.03 4.07 13.81C4.45 13.46 4.77 13.75 5.13 13.32C5.03 13.27 4.81 13.30 4.61 13.41C4.41 13.52 4.14 13.34 3.91 13.47C3.94 13.18 4.48 13.34 4.82 13.15C5.20 12.93 5.52 12.99 5.82 13.02C5.40 13.02 5.24 12.62 4.66 12.73C4.41 12.78 4.20 12.39 3.95 12.59C3.96 12.44 4.22 12.32 4.49 12.46C4.76 12.61 4.87 12.34 5.41 12.68C5.63 12.82 6.01 12.59 6.26 12.74C6.23 12.65 6.09 12.59 5.93 12.60C6.03 12.39 6.69 12.41 6.97 12.62Z" fill="white"/>
<path d="M7.17 12.98C7.11 13.15 6.81 13.18 6.48 13.72C6.14 14.26 5.82 14.04 5.73 14.41C6.14 14.08 6.45 14.30 6.70 13.97C7.06 13.48 7.37 13.55 7.51 13.22C7.71 12.75 8.60 12.75 8.65 12.01C8.35 11.95 7.40 12.76 7.17 12.98ZM14.79 5.68C15.18 5.80 15.19 6.30 15.63 6.47C16.08 6.63 16.12 7.03 16.48 6.93C16.14 6.84 16.17 6.45 15.81 6.36C15.40 6.24 15.24 5.61 14.92 5.52M16.56 8.30C16.63 8.46 16.62 8.73 16.38 8.80C16.51 8.88 16.71 8.81 16.81 8.63C16.65 8.98 16.76 9.30 17.01 9.36C16.89 9.12 17.16 9.00 17.07 8.84C17.23 8.91 17.37 9.12 17.37 9.26C17.57 9.03 17.21 8.72 17.28 8.50L16.56 8.30ZM14.06 10.78C13.83 10.57 13.72 10.83 13.61 10.74C13.50 10.66 13.35 10.65 13.30 10.73C13.50 10.74 13.41 10.90 13.80 10.94C13.41 10.96 13.48 11.40 13.21 11.38C13.49 11.65 13.64 11.14 13.86 11.23C13.80 11.25 13.97 11.41 13.85 11.62C14.04 11.61 14.13 11.34 14.15 11.20L14.06 10.78ZM8.85 13.04C8.76 12.96 8.51 12.93 8.42 12.99C8.32 13.05 8.35 13.06 8.47 13.07C8.59 13.08 8.74 13.27 8.49 13.28C8.37 13.28 8.41 13.56 8.17 13.58C8.27 13.70 8.55 13.62 8.65 13.49C8.63 13.59 8.78 13.69 8.72 13.83C8.90 13.84 8.79 13.46 9.08 13.48C8.96 13.50 9.01 13.76 9.21 13.69C9.09 13.75 9.15 13.89 9.29 13.86C9.20 13.89 9.17 14.00 9.30 14.06C9.41 13.90 9.28 13.33 8.85 13.04ZM19.37 7.71C19.74 7.71 20.04 7.41 20.04 7.04C20.04 6.67 19.74 6.37 19.37 6.37C19.00 6.37 18.70 6.67 18.70 7.04C18.70 7.41 19.00 7.71 19.37 7.71Z" fill="white"/>
<path d="M15.87 8.51C16.08 8.32 16.39 8.22 16.60 8.37C16.81 8.52 17.52 8.69 17.86 8.45C18.21 8.21 18.38 8.08 18.53 8.11C18.65 8.28 18.78 8.36 18.96 8.38C19.01 8.44 19.20 8.48 19.31 8.47C19.46 8.51 19.65 8.46 19.80 8.30C20.03 8.33 20.25 8.16 20.33 7.90C20.58 7.87 20.59 7.59 20.43 7.41C20.29 7.38 20.40 6.89 19.87 6.99C20.10 7.12 19.93 7.39 20.11 7.52C19.98 7.52 19.82 7.57 19.78 7.76C19.83 7.63 19.78 7.54 19.74 7.51C19.75 7.40 19.50 7.13 19.27 7.23C19.44 7.26 19.34 7.53 19.46 7.63C19.37 7.64 19.28 7.68 19.23 7.76C19.17 7.65 18.94 7.53 18.81 7.52C18.81 7.48 18.80 7.40 18.78 7.37C18.72 7.25 18.67 7.11 18.70 6.94C18.58 7.07 18.48 7.24 18.43 7.37C18.24 7.24 17.79 7.42 17.58 7.47C17.37 7.52 16.65 7.40 16.49 7.23C16.32 7.06 16.00 6.95 15.70 6.86C15.29 6.74 15.29 6.29 14.83 5.99C14.83 6.54 15.68 8.32 15.87 8.51ZM11.14 12.78C11.50 12.78 11.79 12.49 11.79 12.14C11.79 11.78 11.50 11.49 11.14 11.49C10.78 11.49 10.49 11.78 10.49 12.14C10.49 12.49 10.78 12.78 11.14 12.78Z" fill="white"/>
<path d="M9.59 12.29C9.72 12.45 9.95 12.45 10.04 12.43C10.12 12.63 10.36 12.63 10.47 12.74C10.57 12.85 10.94 12.84 11.04 12.78C10.95 12.77 10.82 12.71 10.70 12.61C10.55 12.49 10.62 12.24 10.51 12.16C10.60 12.06 10.61 11.90 10.59 11.84C10.68 11.79 10.75 11.70 10.76 11.66C10.92 11.65 11.06 11.56 11.12 11.50C11.20 11.58 11.41 11.48 11.52 11.61C11.54 11.29 11.24 11.12 11.03 11.23C10.95 11.19 10.73 11.21 10.70 11.27C10.63 11.24 10.44 11.34 10.35 11.40C10.45 11.35 10.46 11.19 10.43 11.13C10.51 11.10 10.60 10.99 10.61 10.90C10.73 10.92 10.90 10.85 10.97 10.86C10.85 10.70 10.64 10.64 10.43 10.66C10.21 10.67 10.11 10.83 10.09 10.99C9.96 11.07 9.91 11.33 9.96 11.42C9.89 11.42 9.82 11.49 9.79 11.53C9.68 11.49 9.54 11.46 9.44 11.46M9.48 11.19C9.44 11.07 9.50 10.95 9.53 10.85C9.60 10.60 9.56 10.53 9.33 10.57C9.31 10.69 9.43 11.09 9.48 11.19Z" fill="white"/>
<path d="M15.15 5.31C15.09 5.37 14.97 5.54 14.95 5.61C14.70 6.36 15.37 6.93 15.76 7.73C16.07 8.37 16.03 9.37 15.54 10.01C15.38 10.23 15.43 10.29 15.22 10.51C15.14 10.60 15.04 10.71 15.07 11.01C15.21 10.97 15.40 11.09 15.44 11.20C15.54 11.15 15.67 11.17 15.72 11.23C15.88 11.15 16.02 11.19 16.16 11.34C16.29 11.33 16.42 11.34 16.55 11.48C16.62 11.34 16.75 11.30 16.85 11.32C16.84 11.15 17.01 11.02 17.17 11.09C17.12 10.86 17.33 10.69 17.53 10.75C17.71 10.62 18.06 10.61 18.23 10.81C17.92 10.72 17.93 11.05 17.67 11.02C17.74 11.22 17.56 11.33 17.39 11.39C17.50 11.34 17.62 11.27 17.66 11.34C17.76 11.26 17.95 11.29 18.00 11.33C18.13 11.29 18.25 11.32 18.31 11.48C18.48 11.58 18.60 11.85 18.47 12.06C18.43 11.84 18.29 11.85 18.23 11.76C18.10 11.81 17.96 11.81 17.92 11.73C17.85 11.80 17.58 11.87 17.47 11.76C17.43 11.93 17.28 12.07 17.10 12.07C17.15 12.21 17.02 12.44 16.91 12.56C17.08 12.64 17.03 12.84 16.99 12.95C17.24 12.99 17.03 13.21 17.46 13.36C17.25 13.43 16.84 13.36 16.78 13.10C16.56 13.09 16.42 12.87 16.43 12.65C16.26 12.50 16.24 12.27 16.47 12.12C16.28 12.18 16.17 11.87 15.89 12C15.75 12.06 15.38 11.95 15.39 11.82C15.33 11.92 14.98 11.88 14.93 11.72C14.81 11.78 14.54 11.67 14.55 11.51C14.40 11.58 14.19 11.46 14.21 11.31C14.07 11.29 14.05 11.16 14.06 11.05C13.94 11.00 13.97 10.87 14.02 10.73C13.93 10.63 13.97 10.50 14.04 10.37C13.94 10.28 13.96 10.16 13.99 10.02C13.52 9.99 12.94 9.87 11.61 9.46C9.60 8.85 9.06 10.29 9.51 11.20C10.02 12.25 9.45 12.48 9.62 13.26C9.81 13.30 9.90 13.45 9.89 13.62C10.00 13.62 10.08 13.72 10.04 13.92C10.13 13.90 10.25 13.93 10.33 14.01C10.40 13.88 10.62 13.85 10.73 14.00C10.98 13.98 11.11 14.18 11.10 14.43C11.23 14.67 11.19 14.97 11.04 15.15C11.06 15.05 11.04 14.91 11.04 14.82C11.03 14.66 10.80 14.63 10.83 14.50C10.71 14.51 10.60 14.44 10.56 14.36C10.49 14.41 10.40 14.43 10.32 14.40C10.44 14.46 10.55 14.7 10.51 14.85C10.58 14.97 10.56 15.18 10.48 15.27C10.44 15.46 10.29 15.52 10.11 15.44C10.21 15.38 10.25 15.25 10.25 15.15C10.18 15.09 10.14 14.98 10.14 14.91C9.95 14.94 9.69 14.79 9.64 14.72C9.23 14.72 8.89 15.06 8.89 15.47C8.88 15.32 8.68 15.17 8.70 15.03C8.58 14.68 8.75 14.34 9.22 14.28C9.17 14.14 9.37 14.00 9.29 13.85C9.19 13.65 9.01 13.39 8.74 13.09C8.91 12.81 8.86 12.44 8.76 12.21C8.62 11.87 8.49 11.95 8.00 12.50C7.19 13.38 6.12 13.13 5.18 13.71C4.92 13.87 4.68 13.93 4.95 13.66C5.22 13.39 5.93 13.12 6.39 12.88C7.26 12.45 8.00 11.73 8.29 10.32C8.97 7.00 11.47 8.10 13.06 8.71C14.55 9.29 14.28 7.98 13.52 7.19C12.62 6.24 12.80 5.49 13.22 4.89C13.98 4.79 15.45 5.05 15.15 5.31Z" fill="white"/>
<path d="M17.84 13.45C18.29 13.45 18.67 13.08 18.67 12.63C18.67 12.17 18.30 11.80 17.84 11.80C17.38 11.80 17.01 12.17 17.01 12.63C17.01 13.08 17.38 13.45 17.84 13.45Z" fill="white"/>
<path d="M15.11 3.84C14.66 3.32 14.40 3.43 14.08 3.26C13.77 3.09 13.29 3.05 13.20 3.32C13.64 3.11 14.05 3.44 14.29 3.48C14.64 3.53 14.83 3.80 14.93 3.92L15.11 3.84ZM16.79 3.77C16.56 3.24 16.06 3.38 15.84 3.15C15.52 2.83 14.72 2.52 14.38 2.75C15.12 2.71 15.43 3.26 15.82 3.45C16.10 3.58 16.40 3.87 16.79 3.77ZM15.92 3.72C15.52 3.22 14.92 2.79 14.64 2.95C15.00 2.97 15.12 3.23 15.38 3.39C15.64 3.55 15.52 3.79 15.92 3.72ZM14.04 4.59C13.62 4.43 12.81 4.35 12.43 4.83C13.06 4.93 14.01 4.87 14.04 4.59Z" fill="white"/>
<path d="M13.96 4.77C13.55 4.58 13.22 4.85 12.83 4.81C12.09 4.74 11.55 4.78 11.49 5.13C11.91 4.75 12.63 5.07 12.91 4.99C13.20 4.92 14.28 4.98 14.61 5.13C14.44 4.91 14.17 4.86 13.96 4.77ZM15.27 3.66C15.17 3.34 15.17 3.00 15.65 3.03C15.53 2.88 15.09 2.80 15.02 3.36C14.49 2.97 13.92 2.91 13.81 3.24C14.08 3.01 14.50 3.18 15.00 3.75C15.04 3.72 15.16 3.68 15.27 3.66ZM14.54 4.10C14.24 3.91 13.84 3.60 14.55 3.47C14.25 3.30 13.80 3.38 13.85 3.94C13.04 3.61 12.45 3.72 12.33 4.04C12.20 4.40 12.70 4.60 12.79 4.37C12.69 4.41 12.38 4.30 12.55 4.10C12.71 3.90 13.55 4.05 14.35 4.47C14.57 4.59 15.33 4.56 14.54 4.10ZM14.33 4.63C14.10 4.16 13.35 4.59 13.20 4.13C12.99 4.80 14.26 4.43 14.33 4.63ZM19.10 5.14C19.25 5.22 19.39 5.10 19.15 5.00C19.31 5.08 19.44 4.96 19.20 4.86C19.36 4.94 19.50 4.82 19.26 4.73C19.19 4.79 19.10 5.03 19.10 5.14ZM19.18 4.24C19.53 3.87 19.15 3.75 19.57 3.37C19.92 3.06 19.64 2.85 19.97 2.61C20.07 2.54 20.31 2.38 20.33 2.23C20.47 2.58 19.89 2.62 19.93 3.18C19.95 3.54 19.71 3.51 19.62 4.11C19.60 4.24 19.52 4.52 19.18 4.24Z" fill="white"/>
<path d="M19.33 4.40C19.53 3.99 19.75 3.99 19.86 3.83C20.06 3.52 20.49 3.89 20.85 3.61C20.79 4.00 20.30 3.86 20.09 4.11C19.88 4.36 19.70 4.48 19.33 4.40Z" fill="white"/>
<path d="M19.38 4.54C19.72 4.27 19.97 4.45 20.20 4.31C20.79 3.95 21.03 4.38 21.56 4.21C21.41 4.55 20.64 4.26 20.30 4.51C19.96 4.76 18.77 5.00 19.38 4.54ZM18.39 6.46C18.39 6.31 18.24 6.11 18.04 6.09C17.84 6.06 17.75 5.85 17.60 5.84C17.44 5.83 17.34 5.52 17.13 5.52C16.91 5.53 16.83 5.80 17.33 6.06C17.82 6.31 18.38 6.60 18.39 6.46ZM17.77 6.60C17.55 6.60 17.53 6.91 17.32 6.92C17.60 7.07 17.81 6.85 17.95 6.66L17.77 6.60Z" fill="white"/>
<path d="M17.94 6.63C17.76 6.79 17.70 7.11 17.97 7.20C17.81 6.98 18.25 6.88 18.11 6.68L17.94 6.63Z" fill="white"/>
<path d="M18.13 6.64C17.98 6.92 18.35 6.96 18.25 7.17C18.47 7.12 18.50 6.72 18.31 6.61L18.13 6.64Z" fill="white"/>
<path d="M16.71 6.04C17.05 6.03 17.37 6.21 17.58 6.52C17.72 6.71 18.17 6.79 18.33 6.63C18.48 6.48 18.40 6.15 18.01 6.26C17.91 6.09 17.63 6.15 17.50 6.02C17.36 5.88 16.84 5.49 16.71 6.04Z" fill="white"/>
<path d="M17.14 5.62C17.76 5.77 18.24 5.91 18.55 6.08C18.85 6.26 19.32 6.30 19.73 6.19C20.14 6.07 20.94 5.96 20.90 6.48C21.11 6.22 20.84 5.95 20.29 5.90C20.30 5.65 20.03 5.42 19.84 5.57C20.02 5.55 20.17 5.88 19.82 6.02C19.89 5.76 19.64 5.54 19.38 5.65C19.54 5.70 19.71 5.98 19.34 6.08C19.10 6.15 18.76 6.07 18.50 5.91C18.25 5.75 16.83 5.19 17.14 5.62Z" fill="white"/>
<path d="M18.69 5.37C18.50 5.45 18.63 5.66 18.33 5.77C18.03 5.89 17.82 6.15 17.89 6.38C18.09 5.94 18.45 5.96 18.57 5.78C18.70 5.61 18.88 5.35 18.69 5.37Z" fill="white"/>
<path d="M18.75 5.39C18.74 5.75 18.46 5.62 18.57 6.11C18.60 6.27 18.66 6.52 18.56 6.77C18.87 6.54 18.67 6.07 18.81 5.89C18.88 5.80 18.97 5.66 19.00 5.55C18.93 5.75 18.93 6.13 19.13 6.22C18.97 5.84 19.56 5.54 19.15 5.10C19.10 5.21 18.91 5.40 18.75 5.39ZM17.76 5.04C17.81 5.12 17.86 5.30 17.81 5.40C17.91 5.34 18.05 5.19 18.09 5.09C18.29 5.12 18.37 5.37 18.18 5.47C18.30 5.47 18.50 5.47 18.61 5.34C18.47 5.19 18.05 4.96 17.76 5.04Z" fill="white"/>
<path d="M14.76 4.35C14.73 4.32 14.68 4.29 14.58 4.28C14.29 4.22 14.44 3.95 14.69 3.96C15.22 3.38 15.52 3.82 16.16 3.64C16.39 3.58 16.54 3.60 16.67 3.65C16.96 3.46 17.30 3.51 17.54 3.74C17.57 3.69 17.61 3.66 17.66 3.65C17.89 3.58 18.07 3.78 18.13 4.03C18.31 3.99 18.51 4.08 18.65 4.20C18.83 4.11 18.96 4.11 19.00 4.20C19.17 4.12 19.38 4.08 19.49 4.34C19.59 4.60 19.24 4.52 19.18 5.07C19.14 5.41 18.76 5.55 18.46 5.34C17.98 5.02 17.52 4.96 17.29 5.46C17.05 5.95 16.87 6.24 16.31 6.08C16.11 6.02 15.85 6.09 15.68 6.32C15.52 6.54 15.27 6.33 14.97 6.36C15.35 6.30 15.20 6.20 15.53 6.18C15.83 6.16 15.75 5.88 15.94 5.84C15.19 6.03 15.22 5.76 14.60 5.95C14.87 5.60 15.30 5.79 15.51 5.59C14.95 5.58 14.70 5.22 14.45 5.37C14.05 5.61 14.23 6.30 13.19 6.24C12.69 6.21 12.37 6.28 12.07 6.58C12.59 5.49 13.30 6.09 13.65 5.75C13.85 5.54 14.00 5.39 14.11 5.19C14.15 5.13 14.20 5.09 14.26 5.07C13.40 4.80 13.92 4.38 14.76 4.35Z" fill="white"/>
<path d="M18.61 5.09C18.60 5.09 18.59 5.09 18.57 5.09V5.07C18.76 5.09 18.87 4.98 18.88 4.87C18.89 4.79 18.84 4.71 18.72 4.70V4.68C18.85 4.70 18.90 4.79 18.90 4.87C18.89 4.98 18.79 5.09 18.61 5.09ZM17.74 4.15H17.72C17.73 4.02 17.77 3.93 17.85 3.90C17.94 3.87 18.07 3.92 18.15 4.02L18.13 4.03C18.06 3.93 17.94 3.89 17.85 3.92C17.80 3.93 17.74 3.99 17.74 4.15Z" fill="black"/>
<path d="M18.14 4.02C18.03 3.91 17.80 4.00 17.87 4.23C17.92 4.12 18.03 4.03 18.14 4.02ZM17.48 4.64C17.55 4.59 17.63 4.55 17.70 4.52C17.66 4.44 17.61 4.37 17.55 4.33C17.50 4.29 17.34 4.51 17.48 4.64Z" fill="black"/>
</g>
</g>
<rect x="0.25" y="0.25" width="23.5" height="17.5" rx="1.75" stroke="#DDE0EA" stroke-width="0.5" style="fill-opacity:0"/>
<defs>
<clipPath id="clip0_1223_3946">
<rect width="24" height="18" rx="2" fill="white"/>
</clipPath>
<clipPath id="clip1_1223_3946">
<rect width="24" height="18" fill="white"/>
</clipPath>
</defs>
</svg>