<svg width="24" height="18" viewBox="0 0 24 18" fill="none" xmlns="http://www.w3.org/2000/svg">
<g clip-path="url(#clip0_1257_44)">
<path d="M24 0H0V17.9883H24V0Z" fill="#000099"/>
<path fill-rule="evenodd" clip-rule="evenodd" d="M4.98779 0L22.9487 18V0H4.98779Z" fill="#FFCC00"/>
<path fill-rule="evenodd" clip-rule="evenodd" d="M17.4849 16.2043L18.4653 16.9148L18.0981 15.7593L19.0825 15.0293H17.856L17.4771 13.8621L17.0981 15.0254H15.8677L16.8599 15.7476L16.481 16.9148L17.4849 16.2043ZM20.0942 17.2778L21.3247 17.2817L20.3668 17.9883H19.0874L18.106 17.2739H19.3364L19.7153 16.1106L20.0942 17.2778ZM1.11377 0L0.730957 1.16721L1.73877 0.456734L2.71533 1.17502L2.35205 0.0156148L2.37302 4.76527e-07L1.11377 0ZM16.8364 12.7885L15.852 13.5146L16.2231 14.674L15.2388 13.9597L14.231 14.6701L14.6138 13.5029L13.6216 12.7807L14.852 12.7846L15.231 11.6174L15.606 12.7846L16.8364 12.7885ZM14.5786 10.5244L13.5942 11.2505L13.9575 12.4099L12.977 11.6955L11.9731 12.406L12.352 11.2388L11.3599 10.5205H12.5864L12.9692 9.35329L13.3481 10.5205L14.5786 10.5244ZM12.3364 8.28757L11.352 9.01366H11.356L11.727 10.1692L10.7427 9.45478L9.73486 10.1692L10.1177 8.99805L9.12549 8.27977H10.356L10.7349 7.11646L11.106 8.28757H12.3364ZM10.0747 6.03123L9.09033 6.75732H9.09424L9.45752 7.91672L8.47705 7.20234L7.47314 7.91282L7.85205 6.74561L6.85596 6.02342H8.08252L8.46533 4.86012L8.84424 6.02733L10.0747 6.03123ZM7.83252 3.78269L6.85205 4.51269L7.21533 5.67209L6.23877 4.95381L5.23096 5.66428L5.61768 4.49707L4.61768 3.77879H5.84814L6.23096 2.61158L6.60596 3.78269H7.83252ZM5.58252 1.53416L4.60205 2.26415L4.96533 3.42355L3.98877 2.70527L2.98096 3.41965L3.36768 2.24854L2.36768 1.53025H3.59814L3.98096 0.363045L4.35596 1.53416H5.58252Z" fill="white"/>
</g>
<rect x="0.25" y="0.25" width="23.5" height="17.5" rx="1.75" stroke="#DDE0EA" stroke-width="0.5" style="fill-opacity:0"/>
<defs>
<clipPath id="clip0_1257_44">
<rect width="24" height="18" rx="2" fill="white"/>
</clipPath>
</defs>
</svg>
