<svg width="24" height="18" viewBox="0 0 24 18" fill="none" xmlns="http://www.w3.org/2000/svg">
<g clip-path="url(#clip0_1051_47)">
<rect width="24" height="18" fill="#249F58"/>
<path d="M24 0H0V18H24V0Z" fill="#229E45"/>
<path fill-rule="evenodd" clip-rule="evenodd" d="M12.0503 16.3516L23.3589 9.01172L11.9839 1.64844L0.640137 9.02734L12.0503 16.3516Z" fill="#F8E509"/>
<path fill-rule="evenodd" clip-rule="evenodd" d="M16.9806 8.99998C16.9806 11.6367 14.8399 13.7734 12.1954 13.7734C11.2501 13.7734 10.3282 13.4922 9.54307 12.9648C8.75791 12.4375 8.14854 11.6914 7.78525 10.8203C7.42588 9.94529 7.33213 8.98436 7.51963 8.05857C7.70322 7.13279 8.16026 6.28123 8.82822 5.61326C9.49619 4.94529 10.3478 4.49217 11.2774 4.30858C12.2032 4.12498 13.1642 4.22264 14.0353 4.58592C14.9063 4.94529 15.6524 5.55857 16.1759 6.34373C16.7032 7.13279 16.9806 8.05467 16.9806 8.99998Z" fill="#2B49A3"/>
<path fill-rule="evenodd" clip-rule="evenodd" d="M10.6245 11.8594L10.4722 11.7734L10.3237 11.8516L10.3589 11.6797L10.2378 11.5547L10.4058 11.5352L10.4878 11.3867L10.5581 11.543L10.7261 11.5742L10.6011 11.6836L10.6245 11.8594ZM13.8276 12.6719L13.6792 12.5859L13.5308 12.6602L13.5581 12.4922L13.4448 12.3672L13.6128 12.3477L13.6909 12.1953L13.7651 12.3516L13.9292 12.3828L13.8042 12.5L13.8276 12.6719ZM12.4448 11.375L12.3198 11.2969L12.187 11.3672L12.2183 11.2188L12.1128 11.1094L12.2612 11.0977L12.3276 10.9609L12.3901 11.1016L12.5347 11.125L12.4214 11.2266L12.4448 11.375ZM15.687 10.9102L15.5581 10.832L15.4253 10.9023L15.4565 10.7539L15.355 10.6484L15.5034 10.6367L15.5698 10.5039L15.6284 10.6406L15.7729 10.6641L15.6636 10.7617L15.687 10.9102ZM12.3901 9.9375L12.2378 9.85547L12.0894 9.92969L12.1206 9.75781L12.0034 9.63281L12.1714 9.61328L12.2495 9.46094L12.3276 9.61719L12.4917 9.64844L12.3628 9.76953L12.3901 9.9375ZM8.44092 8.45703L8.29248 8.375L8.14014 8.44922L8.1792 8.27734L8.0542 8.15234L8.22607 8.13281L8.30029 7.98047L8.37842 8.13672L8.54248 8.16797L8.41748 8.28516L8.44092 8.45703ZM8.91748 10.4297L8.76514 10.3438L8.6167 10.418L8.65186 10.25L8.53076 10.125L8.69873 10.1016L8.77686 9.95312L8.85498 10.1094L9.01904 10.1406L8.89404 10.2578L8.91748 10.4297ZM13.8433 7.73437L13.7104 7.65625L13.5737 7.72656L13.605 7.57422L13.4995 7.46094L13.6479 7.44531L13.7222 7.30859L13.7847 7.45312L13.9331 7.47656L13.8237 7.57812L13.8433 7.73437ZM13.5698 9.01562L13.4683 8.95312L13.3589 9.00781L13.3823 8.88672L13.3003 8.80078L13.4214 8.78516L13.4761 8.67969L13.5269 8.79297L13.6401 8.8125L13.5542 8.89453L13.5698 9.01562ZM8.22217 10.7852L8.12061 10.7305L8.01904 10.7773L8.04248 10.6641L7.96436 10.582L8.07764 10.5664L8.12842 10.4648L8.1792 10.5703L8.29248 10.5938L8.20264 10.668L8.22217 10.7852ZM15.7104 11.2422L15.6284 11.2031L15.5464 11.2383L15.5659 11.1523L15.5034 11.0938L15.5933 11.082L15.6362 11.0078L15.6753 11.082L15.769 11.1016L15.6987 11.1562L15.7104 11.2422ZM9.69482 10.7305L9.79248 10.7812L9.77686 10.668L9.86279 10.5898L9.74951 10.5703L9.70264 10.4648L9.64795 10.5664L9.53467 10.582L9.61279 10.6641L9.59326 10.7773L9.69482 10.7305ZM9.49951 11.25L9.59717 11.3047L9.58154 11.1914L9.66748 11.1133L9.5542 11.0938L9.50732 10.9883L9.45264 11.0898L9.33936 11.1055L9.42139 11.1914L9.39795 11.3008L9.49951 11.25ZM12.7612 10.2969L12.8589 10.3594L12.8433 10.2422L12.9253 10.1641L12.812 10.1445L12.769 10.0391L12.7144 10.1406L12.605 10.1523L12.6792 10.2383L12.6558 10.3516L12.7612 10.2969ZM11.8003 10.2969L11.9019 10.3555L11.8862 10.2422L11.9683 10.1641L11.8589 10.1445L11.812 10.0352L11.7612 10.1406L11.6479 10.1523L11.7222 10.2383L11.6987 10.3516L11.8003 10.2969ZM9.2417 9.98438L9.30811 10.0234L9.29639 9.94922L9.34717 9.89844L9.27686 9.89062L9.24561 9.82031L9.21826 9.88672L9.14404 9.89062L9.19482 9.94531L9.1792 10.0156L9.2417 9.98438ZM15.4917 11.5938L15.5894 11.6523L15.5737 11.5352L15.6597 11.4609L15.5464 11.4375L15.4995 11.332L15.4448 11.4336L15.3315 11.4492L15.4136 11.5352L15.3901 11.6484L15.4917 11.5938ZM14.7104 11.707L14.7925 11.7617L14.7769 11.6641L14.8511 11.5938L14.7573 11.5781L14.7183 11.4883L14.6714 11.5781L14.5776 11.5859L14.644 11.6562L14.6245 11.7539L14.7104 11.707ZM15.0933 11.7031L15.1675 11.75L15.1558 11.6602L15.2222 11.5977L15.1362 11.5781L15.0972 11.5039L15.0542 11.5781L14.9683 11.5898L15.0308 11.6562L15.0151 11.7422L15.0933 11.7031ZM16.1714 10.7656L16.2495 10.8047L16.2378 10.7227L16.2964 10.6602L16.2183 10.6445L16.1792 10.5664L16.144 10.6406L16.0581 10.6523L16.1167 10.7188L16.0972 10.8047L16.1714 10.7656ZM14.687 12.2344L14.7808 12.2891L14.7651 12.1836L14.855 12.1133L14.7417 12.0938L14.6948 11.9961L14.6479 12.0898L14.5347 12.1016L14.6089 12.1758L14.5854 12.2812L14.687 12.2344ZM14.6987 12.6641L14.7886 12.7148L14.7729 12.6133L14.8511 12.5391L14.7495 12.5195L14.7065 12.4219L14.6636 12.5156L14.562 12.5312L14.6323 12.6094L14.6089 12.7109L14.6987 12.6641ZM13.9917 11.7031L14.062 11.75L14.0542 11.6641L14.1128 11.6016L14.0308 11.5859L13.9956 11.5117L13.9565 11.5859L13.8745 11.5938L13.9292 11.6602L13.9175 11.7422L13.9917 11.7031ZM13.312 11.7031L13.3862 11.75L13.3745 11.6641L13.437 11.6016L13.3589 11.5859L13.3198 11.5117L13.2808 11.5859L13.1948 11.5938L13.2573 11.6602L13.2378 11.7422L13.312 11.7031ZM12.1597 10.6992L12.2339 10.7383L12.2261 10.6523L12.2847 10.5977L12.2026 10.5781L12.1636 10.5039L12.1284 10.5781L12.0464 10.5898L12.105 10.6484L12.0854 10.7344L12.1597 10.6992ZM12.3042 12.7578L12.3628 12.793L12.355 12.7188L12.4097 12.6719L12.3354 12.6602L12.3081 12.5938L12.2729 12.6562L12.2026 12.6641L12.2495 12.7148L12.2339 12.793L12.3042 12.7578ZM10.4722 9.38672L10.6245 9.47266L10.6011 9.30078L10.7261 9.18359L10.5581 9.15234L10.4878 8.99609L10.4058 9.14453L10.2378 9.16797L10.3589 9.29297L10.3237 9.46094L10.4722 9.38672Z" fill="#FFFFEF"/>
<path fill-rule="evenodd" clip-rule="evenodd" d="M16.6636 10.7187C16.7573 10.4765 16.8315 10.2265 16.8823 9.97655C14.3394 7.74218 11.5073 6.60155 7.9292 6.83593C7.80029 7.08593 7.69482 7.35155 7.61279 7.62108C11.8511 7.21483 14.9605 9.08983 16.6636 10.7187Z" fill="white"/>
<path fill-rule="evenodd" clip-rule="evenodd" d="M8.11712 7.17187C8.11712 7.11719 8.12884 7.07812 8.14446 7.03906C8.15618 7.01172 8.17571 6.98828 8.19915 6.96875C8.21478 6.94922 8.23821 6.93359 8.26556 6.92187C8.30071 6.91016 8.33978 6.90234 8.37884 6.90234C8.45696 6.90234 8.51556 6.93359 8.56634 6.98047C8.58978 7.00781 8.6054 7.03906 8.61712 7.07422C8.62493 7.10937 8.62884 7.14844 8.62493 7.18359C8.62493 7.26562 8.59759 7.33594 8.55071 7.38281C8.52337 7.40625 8.49603 7.42578 8.46478 7.43359C8.42962 7.44531 8.39446 7.44922 8.36321 7.44922C8.32806 7.44922 8.29681 7.44141 8.26556 7.42969C8.23431 7.41406 8.20696 7.39844 8.18353 7.37109C8.13665 7.31641 8.11321 7.24609 8.11712 7.17187ZM15.5234 9.46484L15.6094 9.51562C15.5977 9.53906 15.5938 9.56641 15.6016 9.59766C15.6094 9.625 15.6289 9.64453 15.6523 9.66016C15.6797 9.67969 15.7031 9.69141 15.7266 9.6875C15.75 9.6875 15.7656 9.67578 15.7773 9.66016C15.7812 9.64844 15.7852 9.63672 15.7852 9.625C15.7812 9.61328 15.7734 9.59766 15.7656 9.58984C15.7578 9.57812 15.7383 9.55078 15.707 9.51953C15.6797 9.48828 15.6562 9.44922 15.6406 9.41016C15.6328 9.375 15.6328 9.34375 15.6484 9.3125C15.6602 9.28125 15.6875 9.25781 15.7148 9.24219C15.7422 9.23047 15.7734 9.23047 15.8008 9.23438C15.8359 9.24609 15.8711 9.25781 15.8984 9.28125C15.9531 9.32031 15.9844 9.35547 15.9961 9.40234C16.0039 9.42188 16.0039 9.44531 16 9.46484C15.9961 9.48828 15.9883 9.50781 15.9766 9.52344L15.8867 9.46875C15.8945 9.44531 15.8984 9.42188 15.8906 9.40625C15.8906 9.38672 15.875 9.36719 15.8477 9.35156C15.8281 9.33594 15.8047 9.32812 15.7812 9.32812C15.7734 9.32422 15.7656 9.32813 15.7617 9.33203C15.7539 9.33594 15.75 9.33984 15.7461 9.34375C15.7383 9.35547 15.7383 9.36719 15.7422 9.38281C15.7461 9.39844 15.7656 9.42578 15.8008 9.46484C15.8398 9.50391 15.8633 9.53516 15.8789 9.55859C15.8906 9.58203 15.8984 9.60938 15.8945 9.64062C15.8945 9.66797 15.8828 9.69531 15.8672 9.71484C15.8477 9.74219 15.8242 9.76172 15.7969 9.77344C15.7656 9.78516 15.7344 9.78906 15.7031 9.78516C15.6719 9.77734 15.6367 9.76172 15.6016 9.73438C15.543 9.69922 15.5117 9.65625 15.5 9.60938C15.4883 9.55859 15.4961 9.50781 15.5195 9.46094L15.5234 9.46484ZM15.0898 9.17969L15.1836 9.23047C15.1719 9.25391 15.168 9.28516 15.1758 9.3125C15.1875 9.33594 15.2031 9.35938 15.2305 9.37109C15.2578 9.39062 15.2812 9.39844 15.3047 9.39453C15.3281 9.39453 15.3398 9.38281 15.3516 9.36328C15.3594 9.35547 15.3594 9.34375 15.3594 9.33203C15.3594 9.32422 15.3516 9.30859 15.3398 9.29688C15.3204 9.27349 15.3007 9.24995 15.2812 9.23047C15.2383 9.1875 15.2148 9.15234 15.207 9.125C15.1992 9.10547 15.1992 9.08594 15.1992 9.0625C15.2031 9.04297 15.2109 9.02344 15.2227 9.00781C15.2344 8.98438 15.2578 8.96484 15.2812 8.95312C15.3086 8.94141 15.3359 8.9375 15.3633 8.94531C15.3984 8.94922 15.4297 8.96094 15.4609 8.98047C15.5156 9.01953 15.5508 9.05469 15.5625 9.09766C15.5703 9.11719 15.5703 9.14062 15.5703 9.16405C15.5664 9.18359 15.5586 9.20703 15.5469 9.22656L15.4531 9.17188C15.4648 9.14453 15.4688 9.12891 15.4609 9.10938C15.4531 9.08984 15.4375 9.07031 15.4141 9.05469C15.3906 9.04297 15.3672 9.03516 15.3398 9.03516C15.3359 9.03516 15.3281 9.03516 15.3242 9.03906L15.322 9.04098L15.3194 9.04297C15.316 9.04557 15.3125 9.04818 15.3125 9.05078C15.3047 9.0625 15.3047 9.07422 15.3086 9.08984C15.3125 9.10547 15.332 9.13672 15.3711 9.17188C15.4102 9.21094 15.4336 9.23828 15.4453 9.26172C15.4609 9.28516 15.4688 9.3125 15.4688 9.33984C15.4688 9.37109 15.4609 9.39844 15.4453 9.42188C15.4297 9.44531 15.4062 9.46875 15.3789 9.48047C15.3516 9.49219 15.3203 9.49609 15.2891 9.49219C15.25 9.48438 15.2148 9.46875 15.1797 9.44922C15.1328 9.42578 15.0938 9.38281 15.0742 9.32812C15.0586 9.28125 15.0664 9.22656 15.0898 9.17969ZM14.5586 9.03906L14.832 8.58594L15.1602 8.79297L15.1172 8.86719L14.875 8.71875L14.8164 8.82031L15.043 8.95703L14.9922 9.03516L14.7656 8.89453L14.6914 9.01953L14.9453 9.16797L14.8984 9.24219L14.5625 9.03906H14.5586ZM13.7812 8.39844L13.8242 8.32422L14.0234 8.42578L13.9297 8.61328C13.9023 8.62109 13.8633 8.625 13.8203 8.62109C13.7773 8.61719 13.7344 8.60547 13.6953 8.58203C13.6484 8.5625 13.6094 8.52734 13.582 8.48438C13.5586 8.44922 13.543 8.40234 13.5469 8.35547C13.5469 8.30469 13.5586 8.25781 13.582 8.21484C13.6055 8.17188 13.6367 8.13281 13.6797 8.10547C13.7188 8.07812 13.7656 8.0625 13.8164 8.0625C13.8516 8.0625 13.8906 8.07422 13.9336 8.10156C13.9961 8.125 14.0312 8.16406 14.0508 8.20312C14.0703 8.24609 14.0742 8.29297 14.0625 8.33594L13.9609 8.30469C13.9688 8.28125 13.9648 8.25391 13.9531 8.23047C13.9414 8.20703 13.9219 8.19531 13.8945 8.17969C13.875 8.16797 13.8555 8.16406 13.8359 8.16016C13.8164 8.16016 13.7969 8.16016 13.7773 8.16797C13.7383 8.17969 13.707 8.21094 13.6797 8.26562C13.6523 8.31641 13.6406 8.36719 13.6523 8.40625C13.6602 8.42578 13.668 8.44531 13.6797 8.46094C13.6953 8.47656 13.7109 8.48828 13.7305 8.49609C13.7461 8.50781 13.7695 8.51562 13.793 8.51562C13.8164 8.51953 13.8359 8.51953 13.8594 8.51562L13.8906 8.45703L13.7812 8.39844ZM10.3984 7.5625L10.4727 7.03906L10.6328 7.06641L10.6719 7.43359L10.8203 7.09375L10.9766 7.11719L10.9023 7.63672L10.8008 7.62109L10.8633 7.21094L10.6992 7.60547L10.5977 7.58984L10.5547 7.16797L10.4961 7.57813L10.3984 7.5625ZM9.87109 7.5L9.91797 6.97656L10.3047 7.01172L10.2969 7.10156L10.0156 7.07813L10.0039 7.1875L10.2656 7.21484L10.2578 7.30469L9.99219 7.27734L9.98438 7.42188L10.2734 7.44922L10.2656 7.53906L9.87109 7.5ZM8.74609 6.91797L8.73828 7.44531H8.84766V7.22656H8.86719C8.88386 7.22656 8.89769 7.22941 8.91353 7.23267L8.92188 7.23437C8.93359 7.23828 8.94531 7.24609 8.95312 7.25781L9.00781 7.33203L9.08203 7.45312H9.21094L9.14453 7.34766C9.125 7.30469 9.10547 7.27344 9.08984 7.26172L9.03516 7.21484C9.07031 7.21094 9.10547 7.19531 9.13672 7.17187C9.16015 7.14453 9.17188 7.10937 9.17188 7.07422C9.17188 7.03906 9.16406 7.00781 9.14844 6.98437C9.13672 6.96484 9.11719 6.94531 9.08984 6.9375C9.0625 6.92578 9.02734 6.91797 8.96875 6.91797H8.74609ZM9.33594 6.94531L9.53125 6.95703C9.57422 6.95703 9.60938 6.96094 9.62891 6.96875C9.66016 6.97656 9.68359 6.99609 9.70312 7.01953C9.72656 7.04688 9.74219 7.07813 9.75 7.10938C9.76172 7.14453 9.76562 7.18359 9.76172 7.23438C9.76172 7.27344 9.75391 7.30859 9.74219 7.34766C9.72656 7.38281 9.70312 7.41406 9.67969 7.4375C9.65625 7.45313 9.63281 7.46875 9.60547 7.47266C9.58203 7.48047 9.54688 7.48047 9.51172 7.48047L9.3125 7.46875L9.33594 6.94531ZM12.0352 7.37109L11.9102 7.88281L12.0156 7.91016L12.0586 7.71484L12.125 7.73437L12.1532 7.73919C12.1875 7.74511 12.2158 7.75 12.2344 7.75C12.2578 7.75 12.2773 7.74609 12.2969 7.73828C12.3164 7.72656 12.3359 7.71484 12.3477 7.69922C12.3672 7.67969 12.3789 7.65234 12.3867 7.625C12.3945 7.58203 12.3945 7.54687 12.3789 7.51953C12.3672 7.48437 12.3438 7.46094 12.3203 7.44922L12.1992 7.41016L12.0352 7.37109ZM12.3984 8.02734L12.5742 7.53516L12.7812 7.60938C12.8359 7.62891 12.8711 7.64453 12.8906 7.66016C12.9102 7.67969 12.9258 7.69922 12.9297 7.73047C12.9336 7.75781 12.9375 7.78516 12.9297 7.81641C12.9141 7.85156 12.8906 7.87891 12.8633 7.89844C12.832 7.91406 12.7969 7.91797 12.75 7.91016C12.7656 7.92578 12.7812 7.94531 12.7891 7.96875L12.8164 8.07031L12.8398 8.1875L12.7227 8.14453L12.6875 8.01172C12.6797 7.98047 12.6719 7.94922 12.6602 7.92188C12.6562 7.91016 12.6484 7.89844 12.6367 7.89063C12.6289 7.87891 12.6133 7.87109 12.5898 7.86328L12.5703 7.85547L12.4961 8.06641L12.3984 8.02734ZM13.0782 7.89062C13.0469 7.92578 13.0274 7.96484 13.0118 8.01172C13 8.04297 12.9922 8.07812 12.9961 8.11719C12.9961 8.15234 13.0039 8.1875 13.0196 8.21875C13.0352 8.25 13.0586 8.27734 13.086 8.29688C13.1133 8.32031 13.1446 8.33594 13.1758 8.34375C13.25 8.36719 13.3164 8.36328 13.3711 8.32812C13.4375 8.29297 13.4805 8.23047 13.5 8.16016C13.5235 8.07812 13.5235 8.00781 13.4922 7.94531C13.4766 7.91406 13.4532 7.89062 13.4258 7.86719C13.3985 7.84766 13.3672 7.83203 13.336 7.82422C13.293 7.80859 13.2579 7.80859 13.2188 7.80859C13.1914 7.8125 13.168 7.82031 13.1446 7.83203C13.1172 7.84766 13.0938 7.86719 13.0782 7.89062ZM14.0352 8.74219L14.2773 8.27734L14.4766 8.37891C14.5117 8.39453 14.5469 8.41797 14.5781 8.44922C14.5938 8.46875 14.6055 8.48828 14.6055 8.51953C14.6055 8.55078 14.6055 8.57812 14.5898 8.60156C14.5781 8.63672 14.5508 8.66406 14.5156 8.67578C14.4805 8.68359 14.4414 8.68359 14.3984 8.67188C14.4119 8.68866 14.4195 8.70834 14.4264 8.72594L14.4297 8.73438C14.4375 8.75781 14.4414 8.78906 14.4453 8.83984L14.4531 8.95703L14.3398 8.90234L14.3242 8.76562C14.3242 8.73047 14.3203 8.69922 14.3125 8.67188C14.3125 8.65625 14.3047 8.64453 14.2969 8.63281L14.25 8.60547L14.2305 8.59375L14.1289 8.78906L14.0352 8.74219ZM16.0741 9.60547C16.0351 9.62891 16.0038 9.66406 15.9804 9.70313C15.9335 9.76953 15.914 9.83594 15.9257 9.90234C15.9335 9.9375 15.9452 9.96875 15.9647 10C15.9843 10.0273 16.0077 10.0508 16.039 10.0703C16.0663 10.0898 16.0976 10.1016 16.1327 10.1094C16.164 10.1172 16.1991 10.1172 16.2343 10.1094C16.3046 10.0938 16.3632 10.0469 16.4022 9.98438C16.4491 9.91406 16.4647 9.84375 16.453 9.78125C16.4491 9.74609 16.4335 9.71484 16.4179 9.6875C16.3983 9.65625 16.371 9.63281 16.3437 9.61328C16.3085 9.59375 16.2733 9.57812 16.2382 9.57031C16.2108 9.5625 16.1835 9.5625 16.1562 9.57031C16.1249 9.57422 16.0976 9.58594 16.0741 9.60547ZM11.3164 7.66797L11.4023 7.30078L11.6719 7.36328L11.6641 7.42578L11.4648 7.37891L11.4453 7.46094L11.6289 7.50391L11.6133 7.56641L11.4297 7.52344L11.4062 7.625L11.6133 7.67188L11.5977 7.73438L11.3164 7.66797ZM8.22656 7.17187C8.22656 7.23047 8.23828 7.27344 8.26563 7.30859C8.29297 7.33984 8.32422 7.35937 8.37109 7.35937C8.39063 7.35937 8.41016 7.35547 8.42578 7.34766C8.44531 7.33984 8.46094 7.33203 8.47656 7.31641C8.5 7.28516 8.51172 7.24219 8.51563 7.17578C8.51563 7.11719 8.50781 7.07422 8.48047 7.04297C8.46484 7.02734 8.44922 7.01562 8.43359 7.00781C8.41797 7 8.39844 6.99219 8.37891 6.99219C8.35938 6.99219 8.33984 6.99609 8.32031 7.00391C8.30078 7.01172 8.28516 7.02344 8.27344 7.03906C8.24219 7.07031 8.23047 7.11328 8.22656 7.17187ZM8.85156 7.14453H8.92578C8.97656 7.14453 9.01172 7.14453 9.02344 7.13672C9.03516 7.13672 9.04688 7.125 9.05078 7.11719C9.0586 7.10938 9.0625 7.08984 9.0625 7.07813C9.0625 7.05859 9.05859 7.04297 9.04688 7.03516C9.04297 7.02344 9.02734 7.01563 9.01172 7.01172H8.9375L8.85156 7.00781V7.14453ZM9.42188 7.38672L9.4375 7.03906H9.48828C9.51562 7.03906 9.54688 7.04297 9.57422 7.05078C9.58984 7.05469 9.60547 7.0625 9.61719 7.07813C9.63281 7.08984 9.64453 7.10938 9.64844 7.12891L9.65234 7.22266C9.65234 7.26563 9.64453 7.29688 9.63672 7.32031C9.62891 7.34375 9.61719 7.35938 9.60938 7.36719C9.59766 7.37891 9.58203 7.38672 9.5625 7.38672H9.42188ZM12.1133 7.48438L12.082 7.62891L12.1406 7.64062L12.1507 7.64288C12.1817 7.64984 12.2085 7.65587 12.2227 7.65234C12.2344 7.65234 12.25 7.64452 12.2617 7.63671C12.2695 7.62499 12.2773 7.61328 12.2812 7.59766C12.2812 7.57812 12.2812 7.5625 12.2734 7.54688C12.2656 7.53516 12.2539 7.52344 12.2344 7.51562L12.1641 7.49609L12.1172 7.48438H12.1133ZM12.6719 7.80469L12.6016 7.77734H12.5977L12.6406 7.65234L12.7148 7.67969L12.793 7.70703C12.8047 7.71484 12.8164 7.72656 12.8203 7.73828C12.8281 7.75391 12.8281 7.76953 12.8203 7.78516C12.8164 7.80078 12.8086 7.8125 12.7969 7.82031C12.7891 7.82812 12.7773 7.82812 12.7656 7.82812C12.75 7.82812 12.7188 7.82422 12.6719 7.80469ZM13.1172 8.03913C13.1016 8.09772 13.0977 8.1446 13.1172 8.18366C13.1368 8.21882 13.1641 8.24225 13.2032 8.25788C13.2422 8.2696 13.2774 8.26569 13.3164 8.24226C13.3555 8.22272 13.375 8.18366 13.3946 8.12116C13.4141 8.06647 13.4141 8.0196 13.3946 7.98444C13.3868 7.96491 13.375 7.94929 13.3633 7.93757C13.3477 7.92585 13.3321 7.91413 13.3125 7.91022C13.293 7.90241 13.2735 7.89851 13.2539 7.90241C13.2344 7.90241 13.2188 7.91022 13.1993 7.92194C13.1641 7.94147 13.1368 7.98054 13.1172 8.03913ZM14.3398 8.55859L14.2695 8.51953L14.3281 8.39844L14.4024 8.43751C14.4258 8.44923 14.4492 8.46094 14.4727 8.47656C14.4844 8.48437 14.4922 8.49609 14.4961 8.51172C14.5 8.52734 14.4961 8.54297 14.4883 8.55859C14.4844 8.57422 14.4766 8.58203 14.4648 8.58594C14.4531 8.59375 14.4375 8.59375 14.4258 8.59375C14.4184 8.59375 14.4048 8.58755 14.3841 8.57809C14.3719 8.57255 14.3571 8.56579 14.3398 8.55859ZM16.0741 9.76172C16.035 9.8086 16.0233 9.85547 16.0311 9.89454C16.035 9.91407 16.0389 9.9336 16.0506 9.94922C16.0623 9.96485 16.0741 9.98047 16.0897 9.98829C16.1287 10.0156 16.1678 10.0234 16.203 10.0117C16.242 10 16.2772 9.97657 16.3123 9.92188C16.3475 9.8711 16.3592 9.82422 16.3553 9.78907C16.3514 9.75 16.328 9.71485 16.2928 9.69141C16.2616 9.66407 16.2186 9.66016 16.1795 9.67188C16.1444 9.67969 16.1053 9.70703 16.0702 9.76172H16.0741Z" fill="#309E3A"/>
</g>
<rect x="0.25" y="0.25" width="23.5" height="17.5" rx="1.75" stroke="#DDE0EA" stroke-width="0.5" style="fill-opacity:0"/>
<defs>
<clipPath id="clip0_1051_47">
<rect width="24" height="18" rx="2" fill="white"/>
</clipPath>
</defs>
</svg>
