<svg width="24" height="18" viewBox="0 0 24 18" fill="none" xmlns="http://www.w3.org/2000/svg">
  <g clip-path="url(#clip0_1051_47)">
    <rect width="24" height="18" fill="#249F58" />
    <path fill-rule="evenodd" clip-rule="evenodd" d="M11.7999 2.71424L20.3714 8.99996L11.7999 15.2857L3.22851 8.99996" fill="#FFDA2C" />
    <path d="M11.8 13C14.0091 13 15.8 11.2091 15.8 8.99997C15.8 6.79083 14.0091 4.99997 11.8 4.99997C9.59082 4.99997 7.79996 6.79083 7.79996 8.99997C7.79996 11.2091 9.59082 13 11.8 13Z" fill="#1A47B8" />
    <path fill-rule="evenodd" clip-rule="evenodd" d="M10.0856 10.7143V11.8571H11.2285V10.7143H10.0856ZM12.3713 10.7143V11.8571H13.5142V10.7143H12.3713Z" fill="white" />
    <path fill-rule="evenodd" clip-rule="evenodd" d="M8.84331 7.84839C8.84331 7.84839 8.84337 7.84841 8.94279 7.28569C9.04221 6.72298 9.04234 6.723 9.04234 6.723L9.04487 6.72345L9.05127 6.72459C9.05675 6.72558 9.06468 6.72701 9.07494 6.72888C9.09545 6.73263 9.12532 6.73815 9.16372 6.7454C9.24051 6.75991 9.35151 6.7814 9.49023 6.80965C9.76748 6.8661 10.1564 6.94971 10.6047 7.05873C11.4955 7.27537 12.6444 7.59785 13.6201 8.01516L16.0251 9.04621L15.5748 10.0966L13.1707 9.06594L13.1704 9.06584C12.281 8.68548 11.2037 8.38057 10.3346 8.16922C9.90294 8.06425 9.52839 7.98372 9.26222 7.92953C9.12922 7.90245 9.0235 7.88199 8.95151 7.86838C8.91552 7.86158 8.88797 7.8565 8.86968 7.85316C8.86053 7.85149 8.8537 7.85025 8.84928 7.84946L8.84448 7.8486L8.84331 7.84839Z" fill="white" />
  </g>
  <rect x="0.25" y="0.25" width="23.5" height="17.5" rx="1.75" stroke="#DDE0EA" stroke-width="0.5" style="fill-opacity:0" />
  <defs>
    <clipPath id="clip0_1051_47">
      <rect width="24" height="18" rx="2" fill="white" />
    </clipPath>
  </defs>
</svg>