<svg xmlns="http://www.w3.org/2000/svg" width="24" height="18" fill="none">
    <g clip-path="url(#a)">
        <path fill="#032EA1" d="M24 0H0v18h24V0Z" />
        <path fill="#E00025" d="M24 4.5H0v9h24v-9Z" />
        <path fill="#fff" d="M14.622 8.43h-5.28v1.971h5.28v-1.97Z" />
        <path fill="#fff"
            d="M14.643 8.841h-5.28v.202h5.28v-.202Zm0 .31h-5.28v.23h5.28v-.23Zm-.074.368v.742h-.167v-.742h.167Zm-.327 0v.742h-.166v-.742h.166Zm-.348 0v.742h-.166v-.742h.167Zm-.348 0v.742h-.166v-.742h.166Zm-.326 0v.742h-.166v-.742h.166Zm-2.273 0v.742h-.166v-.742h.166Zm-.315 0v.742h-.167v-.742h.167Zm-.348 0v.742h-.167v-.742h.167Zm-.348 0v.742h-.167v-.742h.167Zm-.333 0v.742h-.167v-.742h.167Z" />
        <path fill="#fff" d="M14.643 8.531h-5.28v.196h5.28v-.196Z" />
        <path fill="#fff" d="M16.688 10.505a.424.424 0 0 1-.206-.24H7.524a.424.424 0 0 1-.206.24h9.37Z" />
        <path fill="#fff"
            d="M12.113 5.431s.006-.185-.105-.187c-.11.002-.104.187-.104.187h.209Zm.58 2.454v-.249c.003-.124.127-.133.131-.224 0 0 .016-.136-.021-.199-.05.183-.142.15-.142.074 0-.065.052-.126.158-.285.034-.05.013-.21-.034-.266-.019.138-.04.204-.101.204-.037 0-.068-.023-.068-.093 0-.088.062-.132.092-.212a.221.221 0 0 0-.048-.242c-.025.136-.017.19-.08.19-.126-.038 0-.215.027-.26.031-.052-.042-.155-.042-.155-.04.12-.053.13-.096.12-.054-.015-.047-.093.02-.157.041-.04.037-.1-.008-.147-.045.086-.103.08-.109.03l.037-.198h-.801l.04.191c.011.055-.065.067-.112-.023-.046.048-.05.108-.008.148.066.063.073.141.019.155-.043.012-.056.002-.096-.12 0 0-.065.071-.042.156.027.045.153.222.027.26-.062 0-.055-.054-.08-.19a.221.221 0 0 0-.047.242c.03.08.091.124.091.212 0 .07-.03.093-.068.093-.06 0-.082-.066-.1-.204-.048.057-.069.216-.035.266.106.159.158.22.158.285 0 .075-.091.109-.142-.074-.037.063-.02.199-.02.199.003.09.127.1.131.224v.25h1.368Zm-.336-2.07.019-.141h-.735l.018.14h.698Zm-.049-.144.016-.116h-.631l.016.116h.6Zm-.1-.12.01-.116h-.42l.01.116h.4Zm-1.532 4.954c.094-.035.23-.132.23-.228V9.183l-.122-.15h2.449l-.117.15v1.094c0 .096.094.193.188.228h-2.628Z" />
        <path fill="#fff" d="M12.788 9.519h-.166v.742h.166v-.742Zm-1.407 0h-.166v.742h.166v-.742Z" />
        <path fill="#fff"
            d="M13.257 7.788v1.244H10.75v-.268l-.003-.977c.102.04.12.13.12.13v.53h2.262v-.53s.025-.09.128-.13Z" />
        <path fill="#fff"
            d="M12.864 8.902c-.08.04-.168.074-.2.151v1.224c0 .095.139.19.221.227h.003-1.773.003c.082-.037.22-.132.22-.227V9.053c-.031-.077-.12-.11-.198-.151h1.723Z" />
        <path fill="#fff"
            d="M10.873 8.915v-.882h.228v-.086h1.802v.086h.228v.882h-2.258Zm.582 1.59c.08-.036.198-.132.198-.229V9.232l-.066-.095h.82l-.066.095v1.045c0 .096.117.193.198.228h-1.084Z" />
        <path fill="#fff" d="M12.21 9.137h-.415v1.367h.416V9.137Z" />
        <path fill="#fff"
            d="M11.582 8.837c0-.09-.27-.095-.41-.171h1.669c-.14.076-.403.083-.403.17l-.056.175-.69.027-.11-.201Z" />
        <path fill="#fff"
            d="M11.25 7.885c0-.22-.01-.305-.079-.305v.701c.171.06.293.272.293.272h1.077s.123-.212.294-.272V7.58c-.086 0-.087.089-.087.305H11.25Zm-.079-.09c0-.253-.225-.281-.225-.281v.225c.086-.004.127.07.127.182 0 .11-.07.112-.07.112v.639h.168v-.877Z" />
        <path fill="#fff"
            d="M12.833 7.795c0-.253.225-.281.225-.281v.225c-.086-.004-.127.07-.127.182 0 .11.069.112.069.112v.639h-.167v-.877Z" />
        <path fill="#fff"
            d="M12.533 8.016c-.138.161-.126.435-.124.597h-.805c.002-.162.015-.436-.124-.597h1.053Zm-.452-1.851.11-.055v-.158c-.045.013-.096.019-.1.089-.016-.1-.044-.095-.089-.134-.044.039-.073.034-.088.134-.005-.07-.056-.075-.101-.089v.158l.11.055h.158Z" />
        <path fill="#fff"
            d="m12.086 6.423.184-.122v-.145c-.065.014-.137.02-.144.097-.022-.11-.062-.166-.126-.208-.063.042-.103.099-.126.208-.007-.077-.079-.083-.143-.097v.145l.183.122h.172Z" />
        <path fill="#fff"
            d="m12.101 6.826.21-.18v-.213c-.073.022-.156.03-.164.142-.026-.16-.072-.243-.145-.305-.073.062-.12.145-.145.305-.008-.112-.09-.12-.164-.142v.213l.21.18h.198Zm-.388.238.19.255h.216l.19-.255h-.596Zm.706.429c-.095.05-.13.15-.14.34h-.537c-.01-.19-.045-.29-.14-.34h.817Z" />
        <path fill="#fff"
            d="M11.585 7.064v-.257c.09.024.15.076.176.147 0-.085.115-.282.241-.38.127.11.244.288.242.38.021-.067.085-.122.175-.147v.257h-.834Z" />
        <path fill="#fff"
            d="M11.546 7.493v-.257c.1.024.164.076.192.147 0-.085.127-.282.265-.38.139.11.268.288.265.38.023-.067.093-.123.192-.147v.257h-.914Z" />
        <path fill="#fff"
            d="M11.434 8.02v-.297c.124.031.2.12.24.171 0-.16.186-.404.329-.484.146.082.33.334.33.484a.445.445 0 0 1 .238-.17v.295h-1.136Z" />
        <path fill="#fff"
            d="M11.5 8.676v-.304c.11.041.142.143.176.212-.013-.308.18-.64.326-.724.147.084.343.423.326.724.035-.068.067-.17.176-.212v.304H11.5Z" />
        <path fill="#fff"
            d="M11.577 9.137v-.304c.114.026.121.067.158.135-.014-.184.12-.395.268-.479.146.084.28.295.267.48.037-.07.041-.11.158-.136v.304h-.85Z" />
        <path fill="#fff" d="M16.477 10.265v-.92c.03-.117.133-.22.21-.241v-.81l-.173.091-.198.847v1.033h.16Z" />
        <path fill="#fff"
            d="M16.477 10.269v-.923c.03-.118.133-.221.21-.242v-.866c-.116 0-.173.147-.173.147l-.198.847v1.03l.16.007Z" />
        <path fill="#fff"
            d="M16.6 10.505c-.08-.036-.198-.132-.198-.229v-1.15l.055-.094h-2.019l.079.095v1.15c0 .096-.08.193-.16.228H16.6Z" />
        <path fill="#fff"
            d="M14.764 10.505c.08-.035.197-.132.197-.229V9.184l-.168-.151h1.373l-.168.151v1.094c0 .096.117.193.197.228h-1.431Z" />
        <path fill="#fff"
            d="M14.95 10.505c.08-.036.197-.132.197-.229v-.988l-.11-.151h.872l-.11.151v.989c0 .096.117.193.197.228H14.95Z" />
        <path fill="#fff" d="M15.68 9.137h-.417v1.368h.417V9.137Z" />
        <path fill="#fff" d="M14.748 8.43h-.286v.588h.286v-.587Z" />
        <path fill="#fff"
            d="M16.2 9.022V7.72c-.056 0-.065.19-.197.19-.068 0-.06-.079-.022-.143.034-.057.076-.136.019-.283-.04.113-.145.148-.125.078.033-.121.13-.14.057-.329-.025.157-.128.15-.103.059.028-.103.087-.145.014-.29-.04.165-.095.155-.095.053 0-.15.006-.313-.195-.373 0 0-.011-.138-.084-.138-.072 0-.084.138-.084.138-.201.06-.195.223-.195.373 0 .102-.055.112-.095-.052-.072.144-.014.186.014.29.026.09-.078.097-.103-.06-.072.188.024.208.057.329.02.07-.085.035-.125-.078-.057.147-.015.226.02.283.038.064.045.143-.023.143-.132 0-.14-.19-.197-.19v1.302H16.2Zm.315-.984v.994h-.117v-.996c.042-.02.082-.024.117.002Z" />
        <path fill="#fff"
            d="M16.509 8.681c-.145.072-.288.155-.324.351h.324v-.35Zm-2.003-.297v.648h-.095v-.65c.03-.013.07-.015.095.002Z" />
        <path fill="#fff"
            d="M14.413 8.676c.144.072.287.155.323.351h-.323v-.35Zm.955-1.514-.084-.069v-.087c.03.002.047.013.07.042a.228.228 0 0 1 .119-.132c.057.028.1.071.119.13.022-.03.04-.038.07-.04v.087l-.084.069h-.21Z" />
        <path fill="#fff"
            d="m15.323 7.382-.04-.082v-.114c.031.003.048.013.071.042a.23.23 0 0 1 .119-.133c.057.028.1.072.119.131.022-.029.04-.037.07-.04V7.3l-.04.082h-.3Z" />
        <path fill="#fff"
            d="m15.316 7.68-.125-.148v-.145c.046.005.07.022.104.072.03-.1.092-.122.177-.17.085.048.148.066.177.166.033-.05.058-.063.104-.068v.145l-.125.148h-.312Z" />
        <path fill="#fff"
            d="M15.28 7.973s-.145-.123-.154-.19v-.157c.057.007.11.021.152.085.035-.13.09-.165.195-.228.105.063.16.099.196.228.041-.064.095-.078.151-.085v.156c-.018.068-.154.191-.154.191h-.385Z" />
        <path fill="#fff"
            d="M15.218 8.514s-.2-.214-.204-.297v-.244c.075.01.145.06.2.16.047-.201.12-.342.259-.44.138.098.211.239.258.44.055-.1.126-.15.2-.16v.244c-.014.083-.204.297-.204.297h-.509Z" />
        <path fill="#fff"
            d="M15.218 8.834s-.17-.168-.204-.241v-.244c.075.01.145.06.2.16.047-.201.12-.316.259-.414.138.098.211.213.258.414.055-.1.126-.15.2-.16v.244a2.272 2.272 0 0 1-.204.241h-.509Z" />
        <path fill="#fff" d="M15.14 9.02c.05-.21.093-.366.333-.524.24.158.283.314.333.524h-.665Z" />
        <path fill="#fff"
            d="M15.02 9.137v-.304c.109.041.207.102.243.17.04-.168.119-.243.216-.345a.661.661 0 0 1 .203.346c.037-.069.135-.13.244-.171v.304h-.906Z" />
        <path fill="#fff" d="M7.526 10.265v-.92c-.031-.117-.134-.22-.21-.241v-.81l.173.091.198.847v1.033h-.16Z" />
        <path fill="#fff"
            d="M7.526 10.269v-.923c-.031-.118-.134-.221-.21-.242v-.866c.116 0 .173.147.173.147l.198.847v1.03l-.16.007Z" />
        <path fill="#fff"
            d="M7.403 10.505c.08-.036.198-.132.198-.229v-1.15l-.056-.094h2.02l-.079.095v1.15c0 .096.08.193.16.228H7.404Z" />
        <path fill="#fff"
            d="M9.239 10.505c-.08-.035-.197-.132-.197-.229V9.184l.168-.151H7.837l.168.151v1.094c0 .096-.117.193-.197.228h1.431Z" />
        <path fill="#fff"
            d="M9.054 10.505c-.08-.036-.198-.132-.198-.229v-.988l.11-.151h-.872l.11.151v.989c0 .096-.117.193-.197.228h1.047Z" />
        <path fill="#fff" d="M8.323 9.137h.417v1.368h-.417V9.137Z" />
        <path fill="#fff"
            d="M7.747 9.519h.167v.742h-.167v-.742Zm1.385 0H9.3v.742h-.167v-.742ZM7.605 8.267h.2v.76h-.2v-.76Zm0-.143h.2v.141h-.2v-.141Z" />
        <path fill="#fff" d="M9.255 8.43h.286v.588h-.286v-.587Z" />
        <path fill="#fff"
            d="M7.802 9.022V7.72c.057 0 .066.19.197.19.069 0 .061-.079.023-.143-.034-.057-.076-.136-.019-.283.04.113.145.148.125.078-.033-.121-.13-.14-.057-.329.025.157.128.15.103.059-.028-.103-.087-.145-.014-.29.04.165.095.155.095.053 0-.15-.006-.313.195-.373 0 0 .011-.138.084-.138.072 0 .084.138.084.138.2.06.195.223.195.373 0 .102.055.112.095-.052.072.144.014.186-.014.29-.026.09.078.097.103-.06.072.188-.024.208-.058.329-.019.07.086.035.125-.078.058.147.016.226-.018.283-.039.064-.046.143.022.143.131 0 .14-.19.197-.19v1.302H7.802Zm-.314-.984v.994h.117v-.996c-.042-.02-.082-.024-.117.002Z" />
        <path fill="#fff"
            d="M7.494 8.681c.145.072.288.155.324.351h-.324v-.35Zm2.003-.297v.648h.095v-.65c-.03-.013-.07-.015-.095.002Z" />
        <path fill="#fff"
            d="M9.59 8.676c-.144.072-.287.155-.324.351h.324v-.35Zm-.955-1.514.084-.069v-.087c-.03.002-.047.013-.07.042a.228.228 0 0 0-.119-.132.224.224 0 0 0-.119.13c-.023-.03-.04-.038-.07-.04v.087l.084.069h.21Z" />
        <path fill="#fff"
            d="m8.68 7.382.04-.082v-.114c-.032.003-.048.013-.071.042a.23.23 0 0 0-.119-.133.226.226 0 0 0-.119.131c-.023-.029-.04-.037-.07-.04V7.3l.039.082h.3Z" />
        <path fill="#fff"
            d="m8.687 7.68.125-.148v-.145c-.046.005-.07.022-.104.072-.03-.1-.092-.122-.177-.17-.085.048-.148.066-.177.166-.033-.05-.058-.063-.104-.068v.145l.125.148h.312Z" />
        <path fill="#fff"
            d="M8.722 7.973s.146-.123.155-.19v-.157c-.057.007-.11.021-.152.085-.035-.13-.09-.165-.195-.228-.105.063-.16.099-.196.228-.042-.064-.095-.078-.151-.085v.156c.018.068.154.191.154.191h.385Z" />
        <path fill="#fff"
            d="M8.785 8.514s.2-.214.204-.297v-.244c-.075.01-.145.06-.2.16-.047-.201-.12-.342-.259-.44-.138.098-.211.239-.258.44-.055-.1-.126-.15-.2-.16v.244c.014.083.203.297.203.297h.51Z" />
        <path fill="#fff"
            d="M8.785 8.834s.17-.168.204-.241v-.244c-.075.01-.145.06-.2.16-.047-.201-.12-.316-.259-.414-.138.098-.211.213-.258.414-.055-.1-.126-.15-.2-.16v.244c.043.073.203.241.203.241h.51Z" />
        <path fill="#fff" d="M8.862 9.02c-.05-.21-.093-.366-.332-.524-.24.158-.283.314-.333.524h.665Z" />
        <path fill="#fff"
            d="M8.983 9.137v-.304c-.109.041-.207.102-.243.17-.04-.168-.119-.243-.216-.345a.661.661 0 0 0-.203.346c-.037-.069-.135-.13-.244-.171v.304h.906Z" />
        <path fill="#fff"
            d="M16.918 10.492v.278H7.087v-.278h9.831Zm.178.28v.363H6.91v-.362h10.187Zm-10.187.363 10.187.003.298-.003v.478H6.611v-.478h.298Zm10.785.481v.563H6.311v-.563h11.383Zm-11.383.563h11.683v.563H6.011v-.563h.3Z" />
        <path fill="#fff" d="M15.85 10.494h-.743v2.247h.743v-2.247Z" />
        <path fill="#fff" d="M15.685 10.494h-.413v2.247h.413v-2.247Z" />
        <path fill="#fff" d="M12.372 10.494h-.743v2.247h.743v-2.247Z" />
        <path fill="#fff" d="M12.208 10.494h-.414v2.247h.414v-2.247Z" />
        <path fill="#fff" d="M8.9 10.494h-.742v2.247H8.9v-2.247Z" />
        <path fill="#fff" d="M8.736 10.494h-.413v2.247h.413v-2.247Z" />
    </g>
    <rect width="23.5" height="17.5" x=".25" y=".25" stroke="#DDE0EA" stroke-width=".5" rx="1.75"
        style="fill-opacity:0" />
    <defs>
        <clipPath id="a">
            <rect width="24" height="18" fill="#fff" rx="2" />
        </clipPath>
    </defs>
</svg>