<svg width="24" height="18" viewBox="0 0 24 18" fill="none" xmlns="http://www.w3.org/2000/svg">
<g clip-path="url(#clip0_1262_10120)">
<path d="M0 0H24V18H0V0Z" fill="#012169"/>
<path d="M0 9H12V0H24V18H0V9Z" fill="#012169"/>
<path d="M19.7945 10.4824V12.3515C19.7945 13.9713 19.0277 14.5272 18.0021 14.9681C16.9766 14.5272 16.2002 13.9713 16.2002 12.3515V10.4824H19.7945Z" fill="white"/>
<path d="M15.0883 14.8147C15.1458 14.9681 15.558 15.1693 16.0372 14.9106C16.3631 14.7284 16.574 14.4697 16.7753 14.0096C16.8328 13.8946 16.8615 13.7508 16.7273 13.6645C16.6219 13.5879 16.4494 13.5016 16.3727 13.4249C16.3344 13.3866 16.296 13.3578 16.2673 13.3291C16.2864 13.3483 16.3056 13.3674 16.3248 13.3962C16.5165 13.6262 16.3152 13.9617 16.1043 14.163C15.951 14.3067 15.673 14.6614 15.2705 14.3259C15.1842 14.2492 14.9829 14.5655 15.0883 14.8147Z" fill="#FCEA83"/>
<path d="M20.9159 14.8147C20.8488 14.9681 20.4366 15.1694 19.967 14.9106C19.6411 14.7285 19.4302 14.4697 19.2194 14.0096C19.1714 13.8946 19.1427 13.7508 19.2769 13.6646C19.3823 13.5879 19.5548 13.5016 19.6315 13.4249C19.6699 13.3866 19.6986 13.3578 19.7369 13.3291C19.7178 13.3483 19.6986 13.3674 19.6794 13.3962C19.4877 13.6262 19.689 13.9617 19.8903 14.163C20.0437 14.3067 20.3312 14.6614 20.7338 14.3259C20.82 14.2492 21.0117 14.5655 20.9159 14.8147Z" fill="#FCEA83"/>
<path d="M18.0021 15.639C18.7689 15.639 19.9478 15.294 20.5804 14.0863C20.6858 13.885 20.5804 13.7796 20.4558 13.7125C20.3216 13.655 20.1587 13.5208 20.0724 13.4345C20.2258 13.5879 20.197 13.6933 20.0916 13.8659C19.6028 14.6806 18.9318 15.0927 18.0021 15.0927C17.0724 15.0927 16.4015 14.6806 15.9127 13.8659C15.8072 13.6933 15.7785 13.5879 15.9222 13.4345C15.8456 13.5208 15.673 13.655 15.5389 13.7125C15.4143 13.7796 15.3088 13.885 15.4143 14.0863C16.0468 15.294 17.2353 15.639 18.0021 15.639Z" fill="#FCEA83"/>
<path d="M16.2289 14.0192C16.2098 13.9233 16.0852 13.9617 16.0468 14.0767C15.9989 14.0096 15.951 13.9425 15.9127 13.8659C15.7976 13.6933 15.7785 13.5783 15.9414 13.4154C16.0181 13.3387 16.1714 13.2524 16.2769 13.3483C16.4973 13.5304 16.3823 13.8275 16.2289 14.0192Z" fill="#C8102E"/>
<path d="M19.7657 14.0192C19.7848 13.9233 19.919 13.9617 19.9574 14.0767C20.0053 14.0096 20.0532 13.9425 20.0916 13.8659C20.2066 13.6933 20.2257 13.5783 20.0532 13.4154C19.9861 13.3387 19.8328 13.2524 19.7178 13.3483C19.5069 13.5304 19.6123 13.8275 19.7657 14.0192Z" fill="#C8102E"/>
<path d="M15.0883 14.8147C14.9925 14.6709 14.9158 14.2972 14.8967 14.2013C14.8679 14.115 14.8583 14.0384 14.9638 14C15.0692 13.9617 15.165 14.0959 15.213 14.2109C15.2609 14.3259 15.3376 14.4984 15.4238 14.7093C15.213 14.5847 15.0404 14.6709 15.0883 14.8147Z" fill="#C8102E"/>
<path d="M20.9159 14.8147C21.0021 14.671 21.0787 14.2972 21.1075 14.2013C21.1267 14.115 21.1458 14.0384 21.0404 14C20.935 13.9617 20.8391 14.0959 20.7912 14.2109C20.7433 14.3259 20.6666 14.4984 20.5803 14.7093C20.7912 14.5847 20.9542 14.671 20.9159 14.8147Z" fill="#C8102E"/>
<path d="M17.2641 10.4729C17.1395 10.5016 17.0532 10.5112 16.9382 10.4058C16.8615 10.3291 16.8807 10.1949 16.9574 10.147C17.0436 10.0895 17.1203 10.0511 17.2258 10.0799C17.3312 10.1086 17.6091 10.3674 17.5421 10.377C17.475 10.377 17.3695 10.4441 17.2641 10.4729Z" fill="white"/>
<path d="M17.5612 10.0128C17.5995 9.98401 17.6475 9.96484 17.7721 9.95525C17.8871 9.94567 17.9733 9.94567 18.0021 10.0319C18.0404 10.1374 18.0692 10.262 18.1459 10.3195C18.0979 10.3482 17.8583 10.377 17.7721 10.3291C17.657 10.2715 17.6283 10.0511 17.5612 10.0128Z" fill="white"/>
<path d="M18.3855 10.0224C18.4238 9.99361 18.4718 9.99362 18.5964 10.0032C18.721 10.0128 18.7689 10.0224 18.7976 10.1086C18.8264 10.2045 18.7976 10.3291 18.8552 10.4153C18.7976 10.4345 18.6059 10.4345 18.5389 10.3674C18.4334 10.2907 18.443 10.0703 18.3855 10.0224Z" fill="white"/>
<path d="M18.9606 10.0799C18.8743 10.0607 18.8168 10.0511 18.7785 10.0799C18.8264 10.1374 18.7881 10.3674 18.8839 10.4441C18.951 10.492 19.1235 10.5016 19.1619 10.3962C19.2098 10.3003 19.2098 10.1565 18.9606 10.0799Z" fill="#073163"/>
<path d="M17.9733 9.98403C18.0021 9.95527 18.0596 9.94569 18.1746 9.94569C18.2992 9.94569 18.3759 9.96486 18.4142 10.0415C18.4525 10.1374 18.443 10.262 18.5101 10.3387C18.4813 10.377 18.2225 10.377 18.1459 10.3195C18.0404 10.2524 18.0308 10.0319 17.9733 9.98403Z" fill="#073163"/>
<path d="M17.1586 10.0703C17.1586 10.0224 17.2257 10.0128 17.3982 10.0032C17.5708 9.98403 17.5803 9.99361 17.6378 10.1182C17.6666 10.1853 17.7049 10.3003 17.7816 10.3387C17.5708 10.3866 17.5037 10.4153 17.3886 10.3482C17.3024 10.3003 17.2065 10.1853 17.1874 10.1374C17.1778 10.1086 17.1778 10.0799 17.1586 10.0703Z" fill="#073163"/>
<path d="M17.1778 9.21726C17.1108 9.21726 17.0532 9.18851 17.0149 9.14058C16.9478 9.05432 16.7657 9.01598 16.689 9.09266C16.6603 9.11183 16.6219 9.11183 16.5932 9.12141C16.5453 9.12141 16.4877 9.16934 16.5069 9.26518C16.5453 9.23643 16.5548 9.26518 16.5836 9.26518C16.6028 9.2556 16.5932 9.27477 16.5932 9.29394C16.5932 9.34186 16.6986 9.43771 16.7945 9.42812C16.8999 9.42812 16.9478 9.46646 16.967 9.48563C16.9957 9.51439 16.9766 9.5048 16.9957 9.55273C17.0245 9.58148 17.0341 9.59106 16.9862 9.6294C16.9191 9.68691 16.8711 9.8211 16.9862 9.92653C17.1108 10.0224 17.427 10.1661 17.7817 9.88819C18.1267 9.61982 18.6635 9.77317 18.7018 9.86902C18.7497 9.96487 18.7689 10.0224 18.7785 10.0703C18.7881 10.1086 18.836 10.147 18.9031 10.1374C18.9702 10.1374 19.0469 10.1661 19.0852 10.1949C19.1331 10.2237 19.2002 10.2141 19.181 10.1278C19.1427 9.85944 18.9798 9.8211 18.9606 9.6965C19.0564 9.70608 19.1235 9.70608 19.1619 9.66774C19.1906 9.6294 19.229 9.56231 19.2673 9.54314C19.2961 9.52397 19.2961 9.5048 19.2577 9.51439C19.2098 9.52397 19.181 9.54314 19.0948 9.53356C18.6539 9.48563 17.4175 9.15017 17.1778 9.21726Z" fill="#059334"/>
<path d="M19.1331 9.54313C19.0852 9.57189 19.0373 9.61981 18.951 9.73483C18.8552 9.85943 18.5676 9.98403 18.213 9.98403C17.8679 9.98403 17.6571 9.92652 17.5037 9.80192C17.4175 9.73483 17.3504 9.69649 17.2929 9.66773C17.1874 9.61981 17.1683 9.51438 17.197 9.42811C17.1683 9.47604 17.1491 9.52396 17.0916 9.51438C17.0532 9.51438 16.9766 9.51439 16.9957 9.55273C16.9862 9.53356 16.9862 9.50479 16.9766 9.49521C16.967 9.48562 16.9574 9.47604 16.9574 9.47604C16.9862 9.49521 17.0532 9.4377 17.1012 9.4377C17.1395 9.44728 17.1874 9.39936 17.1778 9.34185C17.1683 9.29393 17.1587 9.25559 17.1491 9.21725C17.2258 9.17891 18.2322 9.36102 18.4334 9.38019C18.6347 9.38978 19.2098 9.47604 19.1331 9.54313Z" fill="black"/>
<path d="M17.3121 9.17891C17.4079 9.08306 17.5229 9.03514 17.6379 9.06389H17.6667C17.7242 9.01597 17.8584 9.00639 17.9351 9.04472H17.9734C18.0884 9.00639 18.3089 9.04472 18.3856 9.1214L18.4143 9.14057C18.6731 9.1214 18.8265 9.23642 19.0086 9.41853C19.0277 9.4377 19.0565 9.47604 19.1044 9.48562C19.1619 9.4952 19.1715 9.52396 19.1236 9.55271C19.0661 9.58147 19.0181 9.62939 18.9223 9.73482C18.836 9.84984 18.5581 9.96485 18.213 9.96485C17.8776 9.96485 17.6763 9.90735 17.5229 9.79233C17.4367 9.72524 17.3696 9.6869 17.3217 9.65814C17.2641 9.63897 17.1875 9.5623 17.2162 9.48562C17.2354 9.40894 17.1874 9.3131 17.1491 9.21725C17.1778 9.19808 17.2546 9.16932 17.2929 9.18849L17.3121 9.17891Z" fill="#059334"/>
<path d="M19.0086 9.41853C18.8265 9.23642 18.6731 9.1214 18.4143 9.14057C18.4143 9.15016 18.4142 9.17891 18.4046 9.19808C18.558 9.25558 18.7784 9.42811 18.8743 9.55271C18.9126 9.51437 18.9798 9.46645 19.0086 9.41853Z" fill="#00493D"/>
<path d="M18.3856 9.1214C18.3089 9.04472 18.0884 9.00639 17.9734 9.04472C17.9734 9.08306 17.9734 9.14057 17.9542 9.17891C18.0213 9.20766 18.0788 9.27476 18.1363 9.34185C18.1746 9.33227 18.2705 9.30351 18.3184 9.29393C18.3376 9.25559 18.376 9.16932 18.3856 9.1214Z" fill="#00493D"/>
<path d="M17.9351 9.04472C17.8584 9.00639 17.7242 9.01597 17.6667 9.06389C17.6475 9.10223 17.6379 9.1789 17.6379 9.21724C17.6762 9.21724 17.7337 9.24599 17.7529 9.26516C17.8104 9.24599 17.8871 9.20765 17.9158 9.1789C17.9254 9.14056 17.9447 9.08306 17.9351 9.04472Z" fill="#00493D"/>
<path d="M17.3121 9.17891C17.4079 9.08306 17.5229 9.03514 17.6379 9.06389C17.6188 9.09265 17.6091 9.15015 17.6091 9.20766C17.5037 9.19808 17.3695 9.22683 17.312 9.26517L17.3121 9.17891Z" fill="#00493D"/>
<path d="M18.8359 9.57187C18.7497 9.44727 18.5388 9.3035 18.395 9.23641C18.395 9.24599 18.3759 9.28433 18.3663 9.31309C18.4238 9.39935 18.5388 9.59104 18.5867 9.69648C18.6347 9.67731 18.7688 9.6198 18.8359 9.57187Z" fill="#00493D"/>
<path d="M18.1075 9.78273C18.1267 9.64855 18.1363 9.45685 18.1363 9.38976C18.1842 9.38018 18.28 9.35142 18.3184 9.34184C18.3663 9.41852 18.4813 9.61979 18.5292 9.71564C18.4142 9.7444 18.2225 9.79232 18.1075 9.78273Z" fill="#00493D"/>
<path d="M17.7721 9.32265C17.82 9.30348 17.8871 9.26515 17.935 9.22681C17.9733 9.25556 18.05 9.32265 18.0788 9.36099C18.0788 9.44726 18.05 9.69646 18.0404 9.78272C17.9637 9.78272 17.8391 9.76355 17.7721 9.72521C17.7816 9.58144 17.7912 9.4185 17.7721 9.32265Z" fill="#00493D"/>
<path d="M17.2928 9.43768C17.3024 9.41851 17.312 9.35142 17.312 9.32267C17.3887 9.27474 17.5803 9.22682 17.7241 9.3035C17.7337 9.39934 17.7241 9.63896 17.7145 9.69647C17.5899 9.60062 17.3887 9.46644 17.2928 9.43768Z" fill="#00493D"/>
<path d="M16.8136 9.26518C16.7944 9.26518 16.7848 9.20767 16.7465 9.20767C16.7369 9.20767 16.7082 9.21726 16.6986 9.20767C16.6986 9.22684 16.7082 9.24601 16.7177 9.2556C16.7273 9.28435 16.7752 9.26518 16.8136 9.26518Z" fill="black"/>
<path d="M17.6187 9.09265C17.4174 8.9393 17.1778 8.79553 16.9574 8.76677C17.1011 8.85304 17.5037 9.16933 17.6091 9.27477" fill="black"/>
<path d="M17.7337 8.94886C17.4941 8.78592 17.2161 8.60381 16.9478 8.58465C17.149 8.69008 17.4462 8.93928 17.6091 9.14056" fill="black"/>
<path d="M18.0404 8.68052C18.1746 8.38339 18.3184 8.22045 18.5101 8.03834C18.4142 8.23962 18.3088 8.65176 18.2609 8.8147" fill="black"/>
<path d="M18.2513 8.63259C18.3472 8.42173 18.4909 8.23962 18.7401 8.1246C18.6155 8.2492 18.4238 8.62301 18.3759 8.82429" fill="black"/>
<path d="M18.3376 8.82427C18.4526 8.66133 18.6826 8.35462 19.0948 8.19168C18.8551 8.4313 18.5005 8.87219 18.4142 9.04472" fill="black"/>
<path d="M18.4718 9.03513C18.6443 8.93928 18.9893 8.78593 19.2385 8.83385C19.0852 8.89136 18.6251 9.10222 18.4238 9.29392" fill="black"/>
<path d="M18.4334 8.96805C18.5964 8.79552 18.8935 8.53674 19.2098 8.4313C18.9797 8.65175 18.4909 9.15016 18.4238 9.22683" fill="black"/>
<path d="M17.9733 8.86262C17.8583 8.50798 17.6858 8.17252 17.427 8.06709C17.5708 8.27795 17.7529 8.58466 17.8487 9.04473" fill="black"/>
<path d="M17.7529 8.85303C17.5612 8.623 17.3024 8.39297 17.0053 8.34504C17.2066 8.46006 17.542 8.79552 17.6666 9.1214" fill="black"/>
<path d="M17.8583 8.84345C17.6187 8.41214 17.4366 8.33546 17.3311 8.2492C17.4174 8.41214 17.6283 8.84345 17.7529 9.02556" fill="black"/>
<path d="M17.3791 9.01598C17.4366 9.0639 17.542 9.12141 17.6379 9.20767L17.3791 9.01598Z" fill="black"/>
<path d="M18.5197 9.15973C18.6155 9.08306 18.8264 8.95846 18.9318 8.92012L18.5197 9.15973Z" fill="black"/>
<path d="M18.4526 9.09266C18.5484 8.96806 18.7401 8.79554 18.8072 8.73803L18.4526 9.09266Z" fill="black"/>
<path d="M18.7209 8.49838C18.6346 8.59423 18.4334 8.83385 18.3567 8.94886L18.7209 8.49838Z" fill="black"/>
<path d="M18.4717 8.41214C18.4046 8.4984 18.2704 8.7476 18.2321 8.83387L18.4717 8.41214Z" fill="black"/>
<path d="M17.7145 8.4313C17.772 8.58466 17.8775 8.84345 17.9158 8.94888L17.7145 8.4313Z" fill="black"/>
<path d="M17.6283 8.59425C17.6666 8.65176 17.7433 8.78594 17.772 8.88179L17.6283 8.59425Z" fill="black"/>
<path d="M17.9542 8.54633C17.9542 8.46006 18.0117 8.36422 18.0692 8.36422C18.1363 8.36422 18.1843 8.47923 18.1843 8.54633C18.1843 8.623 18.1267 8.6901 18.0692 8.6901C18.0117 8.6901 17.9542 8.63259 17.9542 8.54633Z" fill="black"/>
<path d="M17.8296 8.623C17.8391 8.52715 17.9062 8.45047 17.9637 8.46006C18.0213 8.46964 18.05 8.58466 18.0404 8.65175C18.0308 8.72843 17.9637 8.78594 17.9158 8.77635C17.8679 8.77635 17.82 8.70926 17.8296 8.623Z" fill="black"/>
<path d="M18.0884 8.65177C18.0692 8.56551 18.1075 8.46966 18.165 8.46008C18.2225 8.45049 18.2801 8.54634 18.2896 8.62302C18.3088 8.69969 18.2609 8.77637 18.213 8.77637C18.165 8.78596 18.0979 8.73803 18.0884 8.65177Z" fill="black"/>
<path d="M17.9446 8.72844C17.9446 8.63259 18.0021 8.54633 18.0596 8.54633C18.1267 8.54633 18.1747 8.65176 18.1747 8.72844C18.1747 8.80511 18.1171 8.87221 18.0596 8.87221C18.0021 8.87221 17.9446 8.8147 17.9446 8.72844Z" fill="black"/>
<path d="M17.7721 8.77637C17.7721 8.69011 17.8392 8.59426 17.8967 8.59426C17.9542 8.59426 18.0117 8.70928 18.0117 8.77637C18.0117 8.85305 17.9446 8.92014 17.8967 8.92014C17.8392 8.92014 17.7721 8.86263 17.7721 8.77637Z" fill="black"/>
<path d="M18.1267 8.73802C18.1267 8.65176 18.1843 8.55591 18.2418 8.55591C18.3089 8.55591 18.3568 8.67093 18.3568 8.73802C18.3568 8.8147 18.2993 8.88179 18.2418 8.88179C18.1843 8.88179 18.1267 8.82428 18.1267 8.73802Z" fill="black"/>
<path d="M18.0884 8.8147C18.0884 8.71885 18.1555 8.63259 18.213 8.63259C18.2705 8.63259 18.328 8.73802 18.328 8.8147C18.328 8.89138 18.2705 8.95847 18.213 8.95847C18.1555 8.95847 18.0884 8.90096 18.0884 8.8147Z" fill="black"/>
<path d="M17.935 8.90096C17.935 8.80511 17.9925 8.71885 18.05 8.71885C18.1171 8.71885 18.1651 8.83387 18.1651 8.90096C18.1651 8.97764 18.1075 9.04473 18.05 9.04473C17.9925 9.04473 17.935 8.98722 17.935 8.90096Z" fill="black"/>
<path d="M17.6954 8.90096C17.6954 8.80511 17.7434 8.71885 17.7913 8.71885C17.8392 8.71885 17.8775 8.83387 17.8775 8.90096C17.8775 8.97764 17.8296 9.04473 17.7913 9.04473C17.7434 9.04473 17.6954 8.98722 17.6954 8.90096Z" fill="black"/>
<path d="M18.2321 8.88179C18.2321 8.79553 18.2801 8.70927 18.328 8.70927C18.3759 8.70927 18.4238 8.8147 18.4238 8.88179C18.4238 8.96806 18.3663 9.02556 18.328 9.02556C18.2801 9.02556 18.2321 8.96806 18.2321 8.88179Z" fill="black"/>
<path d="M18.2897 9.04473C18.3089 8.94888 18.3664 8.87221 18.4047 8.88179C18.4431 8.89138 18.4526 9.00639 18.4335 9.07349C18.4239 9.15975 18.3664 9.20767 18.328 9.19809C18.2897 9.1885 18.2705 9.12141 18.2897 9.04473Z" fill="black"/>
<path d="M18.1076 9.01599C18.1171 8.92972 18.1747 8.84346 18.2226 8.85305C18.2801 8.85305 18.3088 8.96806 18.2993 9.03516C18.2897 9.12142 18.2417 9.17893 18.1938 9.16934C18.1459 9.16934 18.098 9.10225 18.1076 9.01599Z" fill="black"/>
<path d="M17.8392 9.04475C17.8104 8.9489 17.7529 8.88181 17.7146 8.89139C17.6762 8.90098 17.6666 9.016 17.6858 9.08309C17.705 9.15977 17.7625 9.20769 17.8008 9.1981C17.8296 9.18852 17.8583 9.12143 17.8392 9.04475Z" fill="black"/>
<path d="M17.7721 9.02555C17.7721 8.93929 17.82 8.85303 17.8679 8.85303C17.9254 8.85303 17.9638 8.95846 17.9638 9.02555C17.9638 9.11181 17.9159 9.16932 17.8679 9.16932C17.8296 9.16932 17.7721 9.11181 17.7721 9.02555Z" fill="black"/>
<path d="M17.9159 9.0639C17.9159 8.96806 17.9734 8.88179 18.0309 8.88179C18.098 8.88179 18.1459 8.98723 18.1459 9.0639C18.1459 9.14058 18.0884 9.20767 18.0309 9.20767C17.9734 9.20767 17.9159 9.15017 17.9159 9.0639Z" fill="black"/>
<path d="M17.9638 8.00958C17.9446 8.08626 17.8775 8.15336 17.9255 8.25879C17.8392 8.23003 17.7625 8.22045 17.6954 8.29713C17.7817 8.28754 17.8584 8.31629 17.8967 8.3738C17.82 8.36422 17.7817 8.40256 17.7625 8.45048C17.8296 8.43131 17.8967 8.41214 17.9255 8.42173C17.8967 8.45048 17.8488 8.4984 17.8392 8.53674C17.8967 8.48882 17.9638 8.4984 18.0021 8.46965C17.9734 8.53674 18.0309 8.60384 18.0788 8.67093C18.0692 8.57508 18.1267 8.50799 18.098 8.46007C18.1843 8.47924 18.1938 8.55591 18.3184 8.55591C18.2705 8.52716 18.2418 8.43131 18.1843 8.43131C18.213 8.42173 18.328 8.41214 18.3472 8.43131C18.328 8.39297 18.2609 8.35463 18.2226 8.35463C18.2609 8.3163 18.328 8.23962 18.3759 8.22045C18.3089 8.23003 18.2034 8.23962 18.1651 8.29713C18.2609 8.22045 18.2418 8.07668 18.3472 8.05751C18.2897 8.04792 18.2034 8.08626 18.1363 8.15336C18.1651 8.09585 18.1651 8.01917 18.2034 8C18.1267 8.01917 18.0405 8.11502 18.0117 8.16294C18.0117 8.11502 17.983 8.03834 17.9638 8.00958Z" fill="black"/>
<path d="M18.0117 8.16294C18.0117 8.19169 18.0117 8.24921 18.0022 8.26838L18.0117 8.16294Z" fill="black"/>
<path d="M18.1363 8.15336C18.1172 8.17253 18.0788 8.23962 18.0788 8.29713L18.1363 8.15336Z" fill="black"/>
<path d="M15.0883 14.8147C15.1458 14.9681 15.558 15.1693 16.0372 14.9106C16.3631 14.7284 16.574 14.4697 16.7753 14.0096C16.8328 13.8946 16.8615 13.7508 16.7273 13.6645C16.6219 13.5879 16.4494 13.5016 16.3727 13.4249C16.3344 13.3866 16.296 13.3578 16.2673 13.3291C16.2864 13.3483 16.3056 13.3674 16.3248 13.3962C16.5165 13.6262 16.3152 13.9617 16.1043 14.163C15.951 14.3067 15.673 14.6614 15.2705 14.3259C15.1842 14.2492 14.9829 14.5655 15.0883 14.8147Z" fill="#FCEA83"/>
<path d="M20.9159 14.8147C20.8488 14.9681 20.4366 15.1694 19.967 14.9106C19.6411 14.7285 19.4302 14.4697 19.2194 14.0096C19.1714 13.8946 19.1427 13.7508 19.2769 13.6646C19.3823 13.5879 19.5548 13.5016 19.6315 13.4249C19.6699 13.3866 19.6986 13.3578 19.7369 13.3291C19.7178 13.3483 19.6986 13.3674 19.6794 13.3962C19.4877 13.6262 19.689 13.9617 19.8903 14.163C20.0437 14.3067 20.3312 14.6614 20.7338 14.3259C20.82 14.2492 21.0117 14.5655 20.9159 14.8147Z" fill="#FCEA83"/>
<path d="M18.0021 15.639C18.7689 15.639 19.9478 15.294 20.5804 14.0863C20.6858 13.885 20.5804 13.7796 20.4558 13.7125C20.3216 13.655 20.1587 13.5208 20.0724 13.4345C20.2258 13.5879 20.197 13.6933 20.0916 13.8659C19.6028 14.6806 18.9318 15.0927 18.0021 15.0927C17.0724 15.0927 16.4015 14.6806 15.9127 13.8659C15.8072 13.6933 15.7785 13.5879 15.9222 13.4345C15.8456 13.5208 15.673 13.655 15.5389 13.7125C15.4143 13.7796 15.3088 13.885 15.4143 14.0863C16.0468 15.294 17.2353 15.639 18.0021 15.639Z" fill="#FCEA83"/>
<path d="M16.2289 14.0192C16.2098 13.9233 16.0852 13.9617 16.0468 14.0767C15.9989 14.0096 15.951 13.9425 15.9127 13.8659C15.7976 13.6933 15.7785 13.5783 15.9414 13.4154C16.0181 13.3387 16.1714 13.2524 16.2769 13.3483C16.4973 13.5304 16.3823 13.8275 16.2289 14.0192Z" fill="#C8102E"/>
<path d="M19.7657 14.0192C19.7848 13.9233 19.919 13.9617 19.9574 14.0767C20.0053 14.0096 20.0532 13.9425 20.0916 13.8659C20.2066 13.6933 20.2257 13.5783 20.0532 13.4154C19.9861 13.3387 19.8328 13.2524 19.7178 13.3483C19.5069 13.5304 19.6123 13.8275 19.7657 14.0192Z" fill="#C8102E"/>
<path d="M15.0883 14.8147C14.9925 14.6709 14.9158 14.2972 14.8967 14.2013C14.8679 14.115 14.8583 14.0384 14.9638 14C15.0692 13.9617 15.165 14.0959 15.213 14.2109C15.2609 14.3259 15.3376 14.4984 15.4238 14.7093C15.213 14.5847 15.0404 14.6709 15.0883 14.8147Z" fill="#C8102E"/>
<path d="M20.9159 14.8147C21.0021 14.671 21.0787 14.2972 21.1075 14.2013C21.1267 14.115 21.1458 14.0384 21.0404 14C20.935 13.9617 20.8391 14.0959 20.7912 14.2109C20.7433 14.3259 20.6666 14.4984 20.5803 14.7093C20.7912 14.5847 20.9542 14.671 20.9159 14.8147Z" fill="#C8102E"/>
<path d="M17.2641 10.4729C17.1395 10.5016 17.0532 10.5112 16.9382 10.4058C16.8615 10.3291 16.8807 10.1949 16.9574 10.147C17.0436 10.0895 17.1203 10.0511 17.2258 10.0799C17.3312 10.1086 17.6091 10.3674 17.5421 10.377C17.475 10.377 17.3695 10.4441 17.2641 10.4729Z" fill="white"/>
<path d="M17.5612 10.0128C17.5995 9.98401 17.6475 9.96484 17.7721 9.95525C17.8871 9.94567 17.9733 9.94567 18.0021 10.0319C18.0404 10.1374 18.0692 10.262 18.1459 10.3195C18.0979 10.3482 17.8583 10.377 17.7721 10.3291C17.657 10.2715 17.6283 10.0511 17.5612 10.0128Z" fill="white"/>
<path d="M18.3855 10.0224C18.4238 9.99361 18.4718 9.99362 18.5964 10.0032C18.721 10.0128 18.7689 10.0224 18.7976 10.1086C18.8264 10.2045 18.7976 10.3291 18.8552 10.4153C18.7976 10.4345 18.6059 10.4345 18.5389 10.3674C18.4334 10.2907 18.443 10.0703 18.3855 10.0224Z" fill="white"/>
<path d="M18.9606 10.0799C18.8743 10.0607 18.8168 10.0511 18.7785 10.0799C18.8264 10.1374 18.7881 10.3674 18.8839 10.4441C18.951 10.492 19.1235 10.5016 19.1619 10.3962C19.2098 10.3003 19.2098 10.1565 18.9606 10.0799Z" fill="#073163"/>
<path d="M17.9733 9.98403C18.0021 9.95527 18.0596 9.94569 18.1746 9.94569C18.2992 9.94569 18.3759 9.96486 18.4142 10.0415C18.4525 10.1374 18.443 10.262 18.5101 10.3387C18.4813 10.377 18.2225 10.377 18.1459 10.3195C18.0404 10.2524 18.0308 10.0319 17.9733 9.98403Z" fill="#073163"/>
<path d="M17.1586 10.0703C17.1586 10.0224 17.2257 10.0128 17.3982 10.0032C17.5708 9.98403 17.5803 9.99361 17.6378 10.1182C17.6666 10.1853 17.7049 10.3003 17.7816 10.3387C17.5708 10.3866 17.5037 10.4153 17.3886 10.3482C17.3024 10.3003 17.2065 10.1853 17.1874 10.1374C17.1778 10.1086 17.1778 10.0799 17.1586 10.0703Z" fill="#073163"/>
<path d="M17.6187 9.09265C17.4174 8.9393 17.1778 8.79553 16.9574 8.76677C17.1011 8.85304 17.5037 9.16933 17.6091 9.27477" fill="#F9D050"/>
<path d="M17.7337 8.94886C17.4941 8.78592 17.2161 8.60381 16.9478 8.58465C17.149 8.69008 17.4462 8.93928 17.6091 9.14056" fill="#F9D050"/>
<path d="M18.0404 8.68052C18.1746 8.38339 18.3184 8.22045 18.5101 8.03834C18.4142 8.23962 18.3088 8.65176 18.2609 8.8147" fill="#F9D050"/>
<path d="M18.2513 8.63259C18.3472 8.42173 18.4909 8.23962 18.7401 8.1246C18.6155 8.2492 18.4238 8.62301 18.3759 8.82429" fill="#F9D050"/>
<path d="M18.3376 8.82427C18.4526 8.66133 18.6826 8.35462 19.0948 8.19168C18.8551 8.4313 18.5005 8.87219 18.4142 9.04472" fill="#F9D050"/>
<path d="M18.4718 9.03513C18.6443 8.93928 18.9893 8.78593 19.2385 8.83385C19.0852 8.89136 18.6251 9.10222 18.4238 9.29392" fill="#F9D050"/>
<path d="M18.4334 8.96805C18.5964 8.79552 18.8935 8.53674 19.2098 8.4313C18.9797 8.65175 18.4909 9.15016 18.4238 9.22683" fill="#F9D050"/>
<path d="M17.9733 8.86262C17.8583 8.50798 17.6858 8.17252 17.427 8.06709C17.5708 8.27795 17.7529 8.58466 17.8487 9.04473" fill="#F9D050"/>
<path d="M17.7529 8.85303C17.5612 8.623 17.3024 8.39297 17.0053 8.34504C17.2066 8.46006 17.542 8.79552 17.6666 9.1214" fill="#F9D050"/>
<path d="M17.8583 8.84345C17.6187 8.41214 17.4366 8.33546 17.3311 8.2492C17.4174 8.41214 17.6283 8.84345 17.7529 9.02556" fill="#F9D050"/>
<path d="M17.3791 9.01598C17.4366 9.0639 17.542 9.12141 17.6379 9.20767L17.3791 9.01598Z" fill="#F9D050"/>
<path d="M18.5197 9.15973C18.6155 9.08306 18.8264 8.95846 18.9318 8.92012L18.5197 9.15973Z" fill="#F9D050"/>
<path d="M18.4526 9.09266C18.5484 8.96806 18.7401 8.79554 18.8072 8.73803L18.4526 9.09266Z" fill="#F9D050"/>
<path d="M18.7209 8.49838C18.6346 8.59423 18.4334 8.83385 18.3567 8.94886L18.7209 8.49838Z" fill="#F9D050"/>
<path d="M18.4717 8.41214C18.4046 8.4984 18.2704 8.7476 18.2321 8.83387L18.4717 8.41214Z" fill="#F9D050"/>
<path d="M17.7145 8.4313C17.772 8.58466 17.8775 8.84345 17.9158 8.94888L17.7145 8.4313Z" fill="#F9D050"/>
<path d="M17.6283 8.59425C17.6666 8.65176 17.7433 8.78594 17.772 8.88179L17.6283 8.59425Z" fill="#F9D050"/>
<path d="M17.9542 8.54633C17.9542 8.46006 18.0117 8.36422 18.0692 8.36422C18.1363 8.36422 18.1843 8.47923 18.1843 8.54633C18.1843 8.623 18.1267 8.6901 18.0692 8.6901C18.0117 8.6901 17.9542 8.63259 17.9542 8.54633Z" fill="#F9D050"/>
<path d="M17.8296 8.623C17.8391 8.52715 17.9062 8.45047 17.9637 8.46006C18.0213 8.46964 18.05 8.58466 18.0404 8.65175C18.0308 8.72843 17.9637 8.78594 17.9158 8.77635C17.8679 8.77635 17.82 8.70926 17.8296 8.623Z" fill="#F9D050"/>
<path d="M18.0884 8.65177C18.0692 8.56551 18.1075 8.46966 18.165 8.46008C18.2225 8.45049 18.2801 8.54634 18.2896 8.62302C18.3088 8.69969 18.2609 8.77637 18.213 8.77637C18.165 8.78596 18.0979 8.73803 18.0884 8.65177Z" fill="#F9D050"/>
<path d="M17.9446 8.72844C17.9446 8.63259 18.0021 8.54633 18.0596 8.54633C18.1267 8.54633 18.1747 8.65176 18.1747 8.72844C18.1747 8.80511 18.1171 8.87221 18.0596 8.87221C18.0021 8.87221 17.9446 8.8147 17.9446 8.72844Z" fill="#F9D050"/>
<path d="M17.7721 8.77637C17.7721 8.69011 17.8392 8.59426 17.8967 8.59426C17.9542 8.59426 18.0117 8.70928 18.0117 8.77637C18.0117 8.85305 17.9446 8.92014 17.8967 8.92014C17.8392 8.92014 17.7721 8.86263 17.7721 8.77637Z" fill="#F9D050"/>
<path d="M18.1267 8.73802C18.1267 8.65176 18.1843 8.55591 18.2418 8.55591C18.3089 8.55591 18.3568 8.67093 18.3568 8.73802C18.3568 8.8147 18.2993 8.88179 18.2418 8.88179C18.1843 8.88179 18.1267 8.82428 18.1267 8.73802Z" fill="#F9D050"/>
<path d="M18.0884 8.8147C18.0884 8.71885 18.1555 8.63259 18.213 8.63259C18.2705 8.63259 18.328 8.73802 18.328 8.8147C18.328 8.89138 18.2705 8.95847 18.213 8.95847C18.1555 8.95847 18.0884 8.90096 18.0884 8.8147Z" fill="#F9D050"/>
<path d="M17.935 8.90096C17.935 8.80511 17.9925 8.71885 18.05 8.71885C18.1171 8.71885 18.1651 8.83387 18.1651 8.90096C18.1651 8.97764 18.1075 9.04473 18.05 9.04473C17.9925 9.04473 17.935 8.98722 17.935 8.90096Z" fill="#F9D050"/>
<path d="M17.6954 8.90096C17.6954 8.80511 17.7434 8.71885 17.7913 8.71885C17.8392 8.71885 17.8775 8.83387 17.8775 8.90096C17.8775 8.97764 17.8296 9.04473 17.7913 9.04473C17.7434 9.04473 17.6954 8.98722 17.6954 8.90096Z" fill="#F9D050"/>
<path d="M18.2321 8.88179C18.2321 8.79553 18.2801 8.70927 18.328 8.70927C18.3759 8.70927 18.4238 8.8147 18.4238 8.88179C18.4238 8.96806 18.3663 9.02556 18.328 9.02556C18.2801 9.02556 18.2321 8.96806 18.2321 8.88179Z" fill="#F9D050"/>
<path d="M18.2897 9.04473C18.3089 8.94888 18.3664 8.87221 18.4047 8.88179C18.4431 8.89138 18.4526 9.00639 18.4335 9.07349C18.4239 9.15975 18.3664 9.20767 18.328 9.19809C18.2897 9.1885 18.2705 9.12141 18.2897 9.04473Z" fill="#F9D050"/>
<path d="M18.1076 9.01599C18.1171 8.92972 18.1747 8.84346 18.2226 8.85305C18.2801 8.85305 18.3088 8.96806 18.2993 9.03516C18.2897 9.12142 18.2417 9.17893 18.1938 9.16934C18.1459 9.16934 18.098 9.10225 18.1076 9.01599Z" fill="#F9D050"/>
<path d="M17.8392 9.04475C17.8104 8.9489 17.7529 8.88181 17.7146 8.89139C17.6762 8.90098 17.6666 9.016 17.6858 9.08309C17.705 9.15977 17.7625 9.20769 17.8008 9.1981C17.8296 9.18852 17.8583 9.12143 17.8392 9.04475Z" fill="#F9D050"/>
<path d="M17.7721 9.02555C17.7721 8.93929 17.82 8.85303 17.8679 8.85303C17.9254 8.85303 17.9638 8.95846 17.9638 9.02555C17.9638 9.11181 17.9159 9.16932 17.8679 9.16932C17.8296 9.16932 17.7721 9.11181 17.7721 9.02555Z" fill="#F9D050"/>
<path d="M17.9159 9.0639C17.9159 8.96806 17.9734 8.88179 18.0309 8.88179C18.098 8.88179 18.1459 8.98723 18.1459 9.0639C18.1459 9.14058 18.0884 9.20767 18.0309 9.20767C17.9734 9.20767 17.9159 9.15017 17.9159 9.0639Z" fill="#F9D050"/>
<path d="M17.9638 8.00958C17.9446 8.08626 17.8775 8.15336 17.9255 8.25879C17.8392 8.23003 17.7625 8.22045 17.6954 8.29713C17.7817 8.28754 17.8584 8.31629 17.8967 8.3738C17.82 8.36422 17.7817 8.40256 17.7625 8.45048C17.8296 8.43131 17.8967 8.41214 17.9255 8.42173C17.8967 8.45048 17.8488 8.4984 17.8392 8.53674C17.8967 8.48882 17.9638 8.4984 18.0021 8.46965C17.9734 8.53674 18.0309 8.60384 18.0788 8.67093C18.0692 8.57508 18.1267 8.50799 18.098 8.46007C18.1843 8.47924 18.1938 8.55591 18.3184 8.55591C18.2705 8.52716 18.2418 8.43131 18.1843 8.43131C18.213 8.42173 18.328 8.41214 18.3472 8.43131C18.328 8.39297 18.2609 8.35463 18.2226 8.35463C18.2609 8.3163 18.328 8.23962 18.3759 8.22045C18.3089 8.23003 18.2034 8.23962 18.1651 8.29713C18.2609 8.22045 18.2418 8.07668 18.3472 8.05751C18.2897 8.04792 18.2034 8.08626 18.1363 8.15336C18.1651 8.09585 18.1651 8.01917 18.2034 8C18.1267 8.01917 18.0405 8.11502 18.0117 8.16294C18.0117 8.11502 17.983 8.03834 17.9638 8.00958Z" fill="#F9D050"/>
<path d="M18.0117 8.16294C18.0117 8.19169 18.0117 8.24921 18.0022 8.26838L18.0117 8.16294Z" fill="#F9D050"/>
<path d="M18.1363 8.15336C18.1172 8.17253 18.0788 8.23962 18.0788 8.29713L18.1363 8.15336Z" fill="#F9D050"/>
<path d="M17.1778 9.21726C17.1108 9.21726 17.0532 9.18851 17.0149 9.14058C16.9478 9.05432 16.7657 9.01598 16.689 9.09266C16.6603 9.11183 16.6219 9.11183 16.5932 9.12141C16.5453 9.12141 16.4877 9.16934 16.5069 9.26518C16.5453 9.23643 16.5548 9.26518 16.5836 9.26518C16.6028 9.2556 16.5932 9.27477 16.5932 9.29394C16.5932 9.34186 16.6986 9.43771 16.7945 9.42812C16.8999 9.42812 16.9478 9.46646 16.967 9.48563C16.9957 9.51439 16.9766 9.5048 16.9957 9.55273C17.0245 9.58148 17.0341 9.59106 16.9862 9.6294C16.9191 9.68691 16.8711 9.8211 16.9862 9.92653C17.1108 10.0224 17.427 10.1661 17.7817 9.88819C18.1267 9.61982 18.6635 9.77317 18.7018 9.86902C18.7497 9.96487 18.7689 10.0224 18.7785 10.0703C18.7881 10.1086 18.836 10.147 18.9031 10.1374C18.9702 10.1374 19.0469 10.1661 19.0852 10.1949C19.1331 10.2237 19.2002 10.2141 19.181 10.1278C19.1427 9.85944 18.9798 9.8211 18.9606 9.6965C19.0564 9.70608 19.1235 9.70608 19.1619 9.66774C19.1906 9.6294 19.229 9.56231 19.2673 9.54314C19.2961 9.52397 19.2961 9.5048 19.2577 9.51439C19.2098 9.52397 19.181 9.54314 19.0948 9.53356C18.6539 9.48563 17.4175 9.15017 17.1778 9.21726Z" fill="#059334"/>
<path d="M19.1331 9.54313C19.0852 9.57189 19.0373 9.61981 18.951 9.73483C18.8552 9.85943 18.5676 9.98403 18.213 9.98403C17.8679 9.98403 17.6571 9.92652 17.5037 9.80192C17.4175 9.73483 17.3504 9.69649 17.2929 9.66773C17.1874 9.61981 17.1683 9.51438 17.197 9.42811C17.1683 9.47604 17.1491 9.52396 17.0916 9.51438C17.0532 9.51438 16.9766 9.51439 16.9957 9.55273C16.9862 9.53356 16.9862 9.50479 16.9766 9.49521C16.967 9.48562 16.9574 9.47604 16.9574 9.47604C16.9862 9.49521 17.0532 9.4377 17.1012 9.4377C17.1395 9.44728 17.1874 9.39936 17.1778 9.34185C17.1683 9.29393 17.1587 9.25559 17.1491 9.21725C17.2258 9.17891 18.2322 9.36102 18.4334 9.38019C18.6347 9.38978 19.2098 9.47604 19.1331 9.54313Z" fill="black"/>
<path d="M17.3121 9.17891C17.4079 9.08306 17.5229 9.03514 17.6379 9.06389H17.6667C17.7242 9.01597 17.8584 9.00639 17.9351 9.04472H17.9734C18.0884 9.00639 18.3089 9.04472 18.3856 9.1214L18.4143 9.14057C18.6731 9.1214 18.8265 9.23642 19.0086 9.41853C19.0277 9.4377 19.0565 9.47604 19.1044 9.48562C19.1619 9.4952 19.1715 9.52396 19.1236 9.55271C19.0661 9.58147 19.0181 9.62939 18.9223 9.73482C18.836 9.84984 18.5581 9.96485 18.213 9.96485C17.8776 9.96485 17.6763 9.90735 17.5229 9.79233C17.4367 9.72524 17.3696 9.6869 17.3217 9.65814C17.2641 9.63897 17.1875 9.5623 17.2162 9.48562C17.2354 9.40894 17.1874 9.3131 17.1491 9.21725C17.1778 9.19808 17.2546 9.16932 17.2929 9.18849L17.3121 9.17891Z" fill="#059334"/>
<path d="M19.0086 9.41853C18.8265 9.23642 18.6731 9.1214 18.4143 9.14057C18.4143 9.15016 18.4142 9.17891 18.4046 9.19808C18.558 9.25558 18.7784 9.42811 18.8743 9.55271C18.9126 9.51437 18.9798 9.46645 19.0086 9.41853Z" fill="#00493D"/>
<path d="M18.3856 9.1214C18.3089 9.04472 18.0884 9.00639 17.9734 9.04472C17.9734 9.08306 17.9734 9.14057 17.9542 9.17891C18.0213 9.20766 18.0788 9.27476 18.1363 9.34185C18.1746 9.33227 18.2705 9.30351 18.3184 9.29393C18.3376 9.25559 18.376 9.16932 18.3856 9.1214Z" fill="#00493D"/>
<path d="M17.9351 9.04472C17.8584 9.00639 17.7242 9.01597 17.6667 9.06389C17.6475 9.10223 17.6379 9.1789 17.6379 9.21724C17.6762 9.21724 17.7337 9.24599 17.7529 9.26516C17.8104 9.24599 17.8871 9.20765 17.9158 9.1789C17.9254 9.14056 17.9447 9.08306 17.9351 9.04472Z" fill="#00493D"/>
<path d="M17.3121 9.17891C17.4079 9.08306 17.5229 9.03514 17.6379 9.06389C17.6188 9.09265 17.6091 9.15015 17.6091 9.20766C17.5037 9.19808 17.3695 9.22683 17.312 9.26517L17.3121 9.17891Z" fill="#00493D"/>
<path d="M18.8359 9.57187C18.7497 9.44727 18.5388 9.3035 18.395 9.23641C18.395 9.24599 18.3759 9.28433 18.3663 9.31309C18.4238 9.39935 18.5388 9.59104 18.5867 9.69648C18.6347 9.67731 18.7688 9.6198 18.8359 9.57187Z" fill="#00493D"/>
<path d="M18.1075 9.78273C18.1267 9.64855 18.1363 9.45685 18.1363 9.38976C18.1842 9.38018 18.28 9.35142 18.3184 9.34184C18.3663 9.41852 18.4813 9.61979 18.5292 9.71564C18.4142 9.7444 18.2225 9.79232 18.1075 9.78273Z" fill="#00493D"/>
<path d="M17.7721 9.32265C17.82 9.30348 17.8871 9.26515 17.935 9.22681C17.9733 9.25556 18.05 9.32265 18.0788 9.36099C18.0788 9.44726 18.05 9.69646 18.0404 9.78272C17.9637 9.78272 17.8391 9.76355 17.7721 9.72521C17.7816 9.58144 17.7912 9.4185 17.7721 9.32265Z" fill="#00493D"/>
<path d="M17.2928 9.43768C17.3024 9.41851 17.312 9.35142 17.312 9.32267C17.3887 9.27474 17.5803 9.22682 17.7241 9.3035C17.7337 9.39934 17.7241 9.63896 17.7145 9.69647C17.5899 9.60062 17.3887 9.46644 17.2928 9.43768Z" fill="#00493D"/>
<path d="M16.8136 9.26518C16.7944 9.26518 16.7848 9.20767 16.7465 9.20767C16.7369 9.20767 16.7082 9.21726 16.6986 9.20767C16.6986 9.22684 16.7082 9.24601 16.7177 9.2556C16.7273 9.28435 16.7752 9.26518 16.8136 9.26518Z" fill="black"/>
<path d="M19.7945 10.4824V12.3515C19.7945 13.9713 19.0277 14.5272 18.0021 14.9681C16.9766 14.5272 16.2002 13.9713 16.2002 12.3515V10.4824H19.7945Z" fill="white"/>
<path d="M18.0021 12.0639C18.0884 12.0639 18.2225 11.9872 18.3376 11.8722C18.4622 11.738 18.673 11.6901 18.8935 11.8722C19.1139 12.0543 19.2481 11.9777 19.3631 11.8722C19.4781 11.7668 19.574 11.7285 19.7944 11.7285L19.7945 10.4824H16.2002L16.2002 11.7285C16.4206 11.7285 16.5165 11.7668 16.6315 11.8722C16.7465 11.9777 16.8807 12.0543 17.1011 11.8722C17.3312 11.6901 17.5324 11.738 17.6666 11.8722C17.7721 11.9872 17.9062 12.0639 18.0021 12.0639Z" fill="#C8102E"/>
<path d="M18.0021 13.0224C18.1171 13.0224 18.3472 12.8978 18.4047 12.869C18.6155 12.7444 18.7689 12.8594 18.8935 12.9169C19.0277 12.9745 19.2769 13.0415 19.4302 12.9169C19.5836 12.7923 19.6699 12.8019 19.7753 12.8019C19.7945 12.6582 19.7945 12.5144 19.7945 12.3515V12.2364C19.6603 12.2077 19.5932 12.246 19.4494 12.3706C19.3056 12.4952 19.1427 12.4665 18.9318 12.3898C18.7306 12.3035 18.5293 12.1502 18.328 12.3898C18.2705 12.4569 18.1363 12.5527 18.0021 12.5527C17.8583 12.5527 17.7337 12.4569 17.6762 12.3898C17.4654 12.1502 17.2737 12.3035 17.0724 12.3898C16.8615 12.4665 16.689 12.4952 16.5452 12.3706C16.4111 12.246 16.344 12.2077 16.2002 12.2364V12.3515C16.2002 12.5144 16.2098 12.6582 16.229 12.8019C16.3344 12.8019 16.4111 12.7923 16.5644 12.9169C16.7178 13.0415 16.9766 12.9745 17.1012 12.9169C17.2353 12.8594 17.3887 12.7444 17.5996 12.869C17.6571 12.8978 17.8775 13.0224 18.0021 13.0224Z" fill="#0B50A0"/>
<path d="M18.0021 13.4345C18.1458 13.4345 18.3184 13.377 18.4717 13.2907C18.6634 13.1853 18.7976 13.2332 18.9893 13.3291C19.1906 13.4249 19.3535 13.3962 19.4685 13.3291C19.526 13.2907 19.574 13.2141 19.6986 13.2428C19.6411 13.4824 19.5548 13.6933 19.4494 13.8658C19.2577 13.9137 19.1522 13.9137 18.951 13.8275C18.7497 13.7316 18.5005 13.6741 18.3663 13.7604C18.2417 13.8371 18.1075 13.8754 18.0021 13.8754C17.8966 13.8754 17.7625 13.8371 17.6379 13.7604C17.5037 13.6741 17.2545 13.7316 17.0532 13.8275C16.8519 13.9137 16.7465 13.9137 16.5548 13.8658C16.4494 13.6933 16.3631 13.4824 16.3056 13.2428C16.4302 13.2141 16.4781 13.2907 16.5356 13.3291C16.641 13.3962 16.8136 13.4249 17.0053 13.3291C17.2065 13.2332 17.3407 13.1853 17.5324 13.2907C17.6858 13.377 17.8583 13.4345 18.0021 13.4345Z" fill="#0B50A0"/>
<path d="M18.0021 14.9681C18.3855 14.8051 18.7401 14.623 19.0277 14.3738C18.951 14.3451 18.9031 14.3642 18.836 14.3163C18.7689 14.2684 18.5676 14.2492 18.3951 14.3451C18.213 14.4313 18.1363 14.4505 18.0021 14.4505C17.8679 14.4505 17.7913 14.4313 17.6092 14.3451C17.4366 14.2492 17.2353 14.2684 17.1683 14.3163C17.1012 14.3642 17.0532 14.3451 16.9766 14.3738C17.2641 14.623 17.6091 14.8051 18.0021 14.9681Z" fill="#0B50A0"/>
<path d="M17.7529 10.9521C17.7625 10.9713 17.7433 11.0192 17.7529 11.0384C17.772 11.0767 17.772 11.0959 17.8008 11.115H17.8679C18.0788 11.115 18.328 11.0288 18.5388 11.0288C18.7401 11.0288 18.8647 11.0959 18.9797 11.0959C19.0468 11.0959 19.1043 11.0479 19.1043 11C19.1043 10.9521 19.0276 10.9233 18.8647 10.9233C18.6347 10.9233 18.5101 10.9809 18.3184 10.9809C18.0308 10.9809 17.9829 10.8754 17.9829 10.8275C17.9829 10.7796 18.0308 10.7125 18.1842 10.7125C18.2321 10.7125 18.2705 10.7029 18.2896 10.6837C18.2992 10.6646 18.328 10.6262 18.3855 10.5975C18.4526 10.5591 18.5867 10.5975 18.6538 10.5495C18.6538 10.5879 18.5963 10.6454 18.5484 10.6646C18.6443 10.6358 18.7497 10.6358 18.7689 10.7125C18.7209 10.6837 18.6443 10.7029 18.6155 10.7125C18.5772 10.7221 18.558 10.7317 18.5197 10.7412C18.558 10.7317 18.5772 10.8083 18.6347 10.8083C18.5772 10.8563 18.4813 10.8563 18.3855 10.8179C18.3567 10.8083 18.28 10.7796 18.2321 10.7796C18.1363 10.7796 18.0788 10.7987 18.0788 10.8371C18.0788 10.885 18.1363 10.9138 18.3088 10.9138C18.4813 10.9138 18.5772 10.8658 18.836 10.8658C18.8168 10.8371 18.8455 10.8083 18.8072 10.7796C18.903 10.7796 19.0085 10.8083 19.0468 10.8754C19.0372 10.8083 19.0947 10.7508 19.0756 10.6933C19.1331 10.7029 19.181 10.7604 19.1906 10.8083C19.1906 10.7796 19.2289 10.7796 19.2289 10.7508C19.2864 10.7796 19.3152 10.8467 19.3056 10.9042C19.3344 10.8562 19.3631 10.8754 19.3823 10.8179C19.4014 10.8563 19.3919 10.9713 19.3248 11.0096C19.3823 10.9713 19.4685 10.9713 19.5261 11.0384C19.4685 11.0288 19.4398 11.0575 19.411 11.0671C19.296 11.1342 19.1043 11.1725 18.9606 11.163C18.8072 11.1534 18.788 11.1246 18.6922 11.1246C18.7497 11.1342 18.8647 11.2492 18.9701 11.2492C19.0372 11.2492 19.0852 11.2492 19.1139 11.2396C19.1427 11.2301 19.1906 11.2396 19.2289 11.2588C19.2577 11.2876 19.3152 11.3163 19.3535 11.3067C19.3439 11.3451 19.3248 11.3642 19.296 11.3738C19.3439 11.4026 19.3152 11.4217 19.3631 11.4601C19.3439 11.4601 19.3248 11.4793 19.296 11.4697C19.3248 11.4984 19.3248 11.5368 19.3535 11.5559C19.3439 11.5559 19.3152 11.5655 19.296 11.5559C19.3248 11.5943 19.296 11.6422 19.3248 11.6614C19.3535 11.6997 19.296 11.7476 19.2481 11.7093C19.2577 11.738 19.2289 11.7668 19.2002 11.7572C19.1714 11.7476 19.1522 11.7189 19.1618 11.7093C19.1618 11.6997 19.1618 11.6997 19.1714 11.6901C19.1522 11.7189 19.1139 11.7189 19.0947 11.7093C19.0852 11.6997 19.0756 11.6901 19.0756 11.6805C19.0085 11.6997 18.9797 11.6422 18.9893 11.6134C18.9989 11.5847 19.0564 11.5751 19.0756 11.5847C19.0947 11.5943 19.1139 11.6039 19.1331 11.5847C19.1522 11.5751 19.1618 11.5559 19.1618 11.5368C19.1618 11.508 19.1331 11.4217 19.0085 11.4313C18.8647 11.4409 18.6347 11.4026 18.5197 11.3642C18.5101 11.3547 18.5005 11.3547 18.4909 11.3451C18.4909 11.3834 18.4526 11.4026 18.4526 11.4409C18.4526 11.4888 18.4717 11.5272 18.5292 11.5463C18.5005 11.5943 18.4526 11.5847 18.4334 11.5559C18.4334 11.5847 18.3951 11.6039 18.3951 11.6422C18.3855 11.623 18.3759 11.6134 18.3663 11.5943C18.3375 11.6614 18.2609 11.6997 18.2225 11.6805C18.1746 11.7189 18.1171 11.7093 18.0979 11.671C18.0692 11.6901 18.0308 11.6901 18.0117 11.671C18.0117 11.6997 17.9925 11.6901 17.9829 11.7285C17.9829 11.7476 17.9446 11.7572 17.9254 11.7476C17.9062 11.738 17.8967 11.6997 17.9158 11.6805C17.8871 11.6997 17.8583 11.6997 17.8391 11.6805C17.8391 11.6614 17.8391 11.6326 17.8583 11.623H17.8775C17.8583 11.6134 17.8296 11.623 17.8104 11.6134C17.7912 11.5943 17.7912 11.5751 17.8008 11.5559C17.8104 11.5464 17.8391 11.5272 17.8583 11.5463L17.8679 11.5559C17.8679 11.5368 17.8775 11.5176 17.8871 11.5176C17.9062 11.508 17.935 11.508 17.9637 11.5368C17.9829 11.5655 18.0021 11.5655 18.0596 11.5559C18.1075 11.5559 18.1842 11.508 18.2417 11.4601C18.0788 11.4313 18.1746 11.3259 18.2225 11.2876C18.1842 11.278 18.1267 11.278 18.0883 11.2971C17.8871 11.4026 17.6762 11.5272 17.542 11.4888C17.542 11.508 17.5516 11.5272 17.5612 11.5463C17.5324 11.5463 17.4749 11.5463 17.4558 11.5176C17.4462 11.5368 17.427 11.5847 17.4462 11.623C17.427 11.6039 17.3695 11.5847 17.3407 11.5751C17.3599 11.5943 17.3407 11.6326 17.3503 11.6614C17.3216 11.6326 17.2736 11.6134 17.2545 11.6326C17.2353 11.6518 17.197 11.6614 17.1682 11.6518C17.149 11.6805 17.1203 11.6997 17.0915 11.7093C17.0915 11.6901 17.0915 11.6614 17.082 11.6518C17.0724 11.6805 17.0436 11.7189 17.0053 11.738C17.0053 11.7189 17.0053 11.6901 16.9957 11.671C16.9957 11.7093 16.919 11.7285 16.9094 11.7572C16.919 11.7285 16.919 11.6997 16.919 11.6805C16.8998 11.7093 16.8711 11.738 16.8232 11.7476C16.8327 11.7285 16.8423 11.7093 16.8327 11.6901C16.8232 11.7285 16.7657 11.7476 16.7177 11.738C16.7177 11.7572 16.6794 11.786 16.6315 11.7572C16.6027 11.7476 16.5835 11.7189 16.6027 11.6997C16.5644 11.6997 16.526 11.6614 16.5452 11.6326C16.5452 11.623 16.5548 11.6134 16.5548 11.6039C16.526 11.5847 16.5165 11.5463 16.5452 11.5176C16.5548 11.508 16.5835 11.508 16.6027 11.508C16.6027 11.4313 16.6698 11.4313 16.6986 11.4888C16.7177 11.5176 16.7752 11.5655 16.8232 11.5559C16.8423 11.5559 16.8519 11.5463 16.8711 11.5463C16.9286 11.5272 17.0436 11.4793 17.1107 11.4217C17.1203 11.393 17.1203 11.3738 17.1203 11.3547C17.0819 11.3738 17.0436 11.393 17.0244 11.4217V11.393C16.9957 11.393 16.9478 11.3834 16.9286 11.3834C16.9382 11.3738 16.9478 11.3259 16.9669 11.3163C16.919 11.3259 16.8711 11.3163 16.8327 11.3067C16.8519 11.2876 16.8519 11.2588 16.8615 11.2301C16.8423 11.2396 16.7944 11.2205 16.7561 11.2301C16.7657 11.2013 16.7752 11.163 16.804 11.1534C16.7657 11.163 16.7177 11.1534 16.6698 11.1342C16.7081 11.1342 16.7273 11.0863 16.7561 11.0863C16.6794 11.0863 16.6602 11.0479 16.6219 11.0288C16.6506 11.0384 16.6698 11.0096 16.6986 11.0096C16.6698 11 16.6219 10.9521 16.6411 10.9233C16.6315 10.9329 16.6219 10.9521 16.6027 10.9617C16.5835 10.9713 16.5452 10.9617 16.5165 10.9329C16.4973 10.8946 16.5069 10.8467 16.5452 10.8371C16.4973 10.8275 16.4973 10.7796 16.5165 10.7604C16.526 10.7412 16.5644 10.7125 16.5835 10.7412C16.5931 10.7508 16.6027 10.77 16.6123 10.7796C16.6027 10.7604 16.6027 10.7221 16.6027 10.6933C16.6123 10.6646 16.6315 10.6646 16.6602 10.655C16.689 10.655 16.7081 10.6837 16.7081 10.7125C16.7081 10.7412 16.7177 10.7604 16.7273 10.7987C16.7273 10.7892 16.7369 10.77 16.7369 10.7604C16.7369 10.7221 16.7848 10.7317 16.8136 10.7412C16.8423 10.7508 16.8519 10.8083 16.8136 10.8371C16.7944 10.8563 16.804 10.885 16.8232 10.9042C16.8903 11.0096 17.0053 11.0959 17.1011 11.1055C17.1011 11.0671 17.1203 11.0288 17.149 11C17.149 10.9809 17.1586 10.9521 17.1682 10.9329C17.1778 10.8754 17.2066 10.8467 17.2449 10.8658C17.2353 10.8562 17.2257 10.8467 17.2257 10.8371C17.197 10.8083 17.1682 10.7604 17.1874 10.7221C17.2066 10.6837 17.2641 10.6933 17.2832 10.7125C17.2736 10.655 17.3407 10.607 17.3407 10.5783C17.3503 10.607 17.3695 10.6454 17.3599 10.6741C17.3695 10.6358 17.4366 10.5879 17.4845 10.5687C17.4653 10.5975 17.5228 10.6454 17.5133 10.6741C17.5324 10.6262 17.6091 10.5975 17.6666 10.5975C17.6474 10.6166 17.6474 10.655 17.6474 10.6741C17.6762 10.6741 17.7241 10.6646 17.7433 10.6358C17.7433 10.6741 17.7241 10.7125 17.705 10.7316C17.7145 10.7221 17.7529 10.7221 17.7816 10.7221C17.7529 10.7508 17.7625 10.7796 17.7337 10.7987C17.772 10.7796 17.82 10.7796 17.8296 10.8179C17.8487 10.8467 17.82 10.8946 17.8008 10.9233C17.7816 10.9329 17.7625 10.9521 17.7529 10.9521Z" fill="#F9D050"/>
<path d="M18.3663 11.3163C18.3375 11.3355 18.3088 11.3163 18.28 11.3451C18.2608 11.3642 18.2896 11.3738 18.3088 11.3738C18.2992 11.4026 18.2992 11.4122 18.3471 11.4122C18.3279 11.4409 18.3854 11.4505 18.3759 11.4888C18.4046 11.4601 18.4046 11.4217 18.395 11.393C18.3854 11.3642 18.3375 11.3451 18.3663 11.3163Z" fill="black"/>
<path d="M17.4941 11.0096C17.4557 10.9904 17.4461 10.9617 17.4557 10.9329C17.4461 10.9521 17.427 10.9617 17.4078 10.9617C17.3695 11.0479 17.3216 11.1246 17.2641 11.1246C17.197 11.1342 17.2066 11.2013 17.2545 11.2013C17.3599 11.2205 17.4078 11.1821 17.4941 11.0096Z" fill="#073163"/>
<path d="M16.5453 10.7796C16.574 10.7508 16.5548 10.7221 16.5357 10.7125C16.5069 10.7029 16.4494 10.7125 16.4207 10.7604C16.4494 10.7508 16.4782 10.7508 16.4877 10.77C16.4973 10.7892 16.5165 10.8083 16.5453 10.7796Z" fill="#073163"/>
<path d="M16.5931 10.607C16.6602 10.607 16.6794 10.6166 16.6889 10.6454C16.6985 10.6646 16.6794 10.6933 16.6602 10.6933C16.6314 10.6933 16.6027 10.6741 16.6123 10.6646C16.6219 10.6454 16.6219 10.6166 16.5931 10.607Z" fill="#073163"/>
<path d="M16.7848 10.7604C16.8327 10.77 16.8519 10.7412 16.8232 10.7029C16.8136 10.6742 16.7848 10.655 16.7369 10.6646C16.7848 10.6933 16.7369 10.7412 16.7848 10.7604Z" fill="#073163"/>
<path d="M16.4302 10.9234C16.4589 10.9713 16.5069 10.9713 16.526 10.9617C16.5548 10.9521 16.5644 10.9234 16.5548 10.9042C16.5356 10.8754 16.5069 10.8658 16.4973 10.9042C16.4781 10.9425 16.4493 10.9329 16.4302 10.9234Z" fill="#073163"/>
<path d="M16.574 11.508C16.5548 11.4697 16.4973 11.4697 16.4494 11.508C16.4685 11.4984 16.5069 11.508 16.5165 11.5272C16.5261 11.5464 16.5452 11.5464 16.5548 11.5464C16.5644 11.5368 16.5836 11.5272 16.574 11.508Z" fill="#073163"/>
<path d="M16.6507 11.4505C16.6507 11.4026 16.5836 11.393 16.5452 11.4122C16.5644 11.4122 16.5932 11.4313 16.5932 11.4505C16.6028 11.4697 16.6219 11.4793 16.6315 11.4793C16.6507 11.4697 16.6603 11.4601 16.6507 11.4505Z" fill="#073163"/>
<path d="M16.5548 11.623C16.4973 11.6134 16.4685 11.6805 16.4685 11.7285C16.4781 11.6997 16.5068 11.6805 16.5356 11.6901C16.5644 11.6901 16.5739 11.6805 16.5739 11.6614C16.5835 11.6422 16.5739 11.6326 16.5548 11.623Z" fill="#073163"/>
<path d="M16.5644 11.786C16.5835 11.7956 16.6027 11.7764 16.6123 11.7476C16.6123 11.7285 16.6506 11.7285 16.6602 11.7381C16.6794 11.7476 16.6794 11.786 16.6506 11.8051C16.6315 11.8147 16.5835 11.8243 16.5644 11.786Z" fill="#073163"/>
<path d="M17.8967 11.4984C17.8775 11.4888 17.8296 11.4697 17.7913 11.4984C17.82 11.4888 17.8392 11.508 17.8488 11.5272C17.8488 11.5464 17.8775 11.5559 17.8871 11.5368C17.8967 11.5272 17.9063 11.508 17.8967 11.4984Z" fill="#073163"/>
<path d="M17.8104 11.5655C17.772 11.5464 17.7241 11.5943 17.7145 11.6326C17.7241 11.623 17.7624 11.6039 17.7816 11.6039C17.8008 11.6135 17.8199 11.6039 17.8199 11.5847C17.8295 11.5751 17.8295 11.5655 17.8104 11.5655Z" fill="#073163"/>
<path d="M17.8584 11.6422C17.8296 11.6422 17.7913 11.6805 17.7913 11.7189C17.8008 11.6997 17.82 11.6901 17.8392 11.6997C17.8584 11.6997 17.8871 11.6901 17.8871 11.671C17.8871 11.6518 17.8775 11.6422 17.8584 11.6422Z" fill="#073163"/>
<path d="M17.9446 11.7189C17.9254 11.7093 17.8966 11.7189 17.8966 11.7476C17.8966 11.7764 17.8966 11.8051 17.887 11.8147C17.9062 11.7956 17.9254 11.786 17.9446 11.7764C17.9541 11.7668 17.9637 11.738 17.9446 11.7189Z" fill="#073163"/>
<path d="M19.0276 11.6326C19.0085 11.6134 18.9797 11.623 18.9701 11.6422C18.9605 11.6614 18.951 11.7093 18.9701 11.7476C18.9701 11.7285 18.9893 11.6997 19.0085 11.6997C19.0372 11.6901 19.0468 11.6518 19.0276 11.6326Z" fill="#073163"/>
<path d="M19.0852 11.6709C19.0468 11.6901 19.0468 11.7572 19.0756 11.7955C19.0756 11.7764 19.0852 11.7476 19.1043 11.738C19.1331 11.738 19.1427 11.6997 19.1331 11.6805C19.1139 11.6614 19.0948 11.6709 19.0852 11.6709Z" fill="#073163"/>
<path d="M19.2002 11.7093C19.181 11.6997 19.1618 11.7189 19.1618 11.738C19.1523 11.7668 19.1714 11.8051 19.2002 11.8243C19.2002 11.8051 19.2098 11.786 19.2193 11.7764C19.2481 11.7572 19.2385 11.7189 19.2002 11.7093Z" fill="#073163"/>
<path d="M19.2865 11.6997C19.2673 11.6997 19.2481 11.7285 19.2673 11.7572C19.2769 11.7764 19.2961 11.786 19.3344 11.7764C19.3248 11.7764 19.3056 11.7476 19.3152 11.7381C19.3248 11.7189 19.3152 11.6997 19.2865 11.6997Z" fill="#073163"/>
<path d="M16.6219 13.492L17.1011 12.016L17.5804 13.492L16.3248 12.5815H17.8775L16.6219 13.492Z" fill="#F9D050"/>
<path d="M16.7177 13.3578L17.7145 12.6294H16.4877L17.4749 13.3578L17.1011 12.1885L16.7177 13.3578Z" fill="#024919"/>
<path d="M18.4238 13.492L18.9031 12.016L19.3823 13.492L18.1267 12.5815H19.6794L18.4238 13.492Z" fill="#F9D050"/>
<path d="M18.5197 13.3578L19.5165 12.6294H18.2896L19.2769 13.3578L18.9031 12.1885L18.5197 13.3578Z" fill="#024919"/>
<path d="M17.5229 14.5368L18.0021 13.0607L18.4813 14.5368L17.2257 13.6262H18.7785L17.5229 14.5368Z" fill="#F9D050"/>
<path d="M17.6187 14.4026L18.6156 13.6742H17.3887L18.3759 14.4026L18.0021 13.2333L17.6187 14.4026Z" fill="#024919"/>
<path d="M15.6636 14.008L15.5893 14.0474C15.5735 14.0558 15.5665 14.0535 15.5532 14.0347L15.5451 14.039L15.5949 14.1329L15.603 14.1286C15.5953 14.1072 15.5972 14.1005 15.613 14.0921L15.7694 14.0092C15.7856 14.0006 15.7937 14.0034 15.8053 14.0213L15.8133 14.017L15.7635 13.9231L15.7555 13.9274C15.7641 13.9476 15.7619 13.9559 15.7457 13.9645L15.6788 13.9999L15.6435 13.9334L15.7104 13.8979C15.7266 13.8893 15.7347 13.8921 15.7465 13.9106L15.7546 13.9063L15.7052 13.8133L15.6972 13.8175C15.705 13.8371 15.7028 13.8446 15.6867 13.8532L15.5303 13.9361C15.5145 13.9445 15.5081 13.9426 15.4949 13.9248L15.4868 13.9291L15.5362 14.0222L15.5443 14.0179C15.5361 13.9964 15.5382 13.9893 15.554 13.9809L15.6283 13.9414L15.6636 14.008Z" fill="#00493D"/>
<path d="M15.686 14.2595C15.675 14.2428 15.6756 14.2352 15.6888 14.2266L15.7626 14.1778C15.7814 14.2062 15.7766 14.2247 15.7432 14.2513L15.7477 14.258L15.8509 14.1899L15.8464 14.1831C15.8096 14.2018 15.7918 14.1993 15.7737 14.172L15.773 14.1709L15.8438 14.1241C15.8554 14.1165 15.8604 14.118 15.8693 14.1316C15.8974 14.1741 15.8955 14.1937 15.8592 14.2271L15.8635 14.2336L15.9249 14.1931L15.8254 14.0426L15.8178 14.0476C15.8285 14.0664 15.8269 14.0746 15.8113 14.0849L15.6636 14.1825C15.6477 14.193 15.642 14.1916 15.6268 14.1739L15.6191 14.1789L15.7199 14.3315L15.7903 14.3L15.7855 14.2927C15.7458 14.3009 15.7132 14.3007 15.686 14.2595Z" fill="#00493D"/>
<path d="M16.0079 14.4971L15.9457 14.5538C15.9325 14.5659 15.9251 14.5655 15.9076 14.5506L15.9008 14.5567L15.9725 14.6352L15.9792 14.6291C15.9665 14.6102 15.9666 14.6033 15.9799 14.5912L16.1106 14.4719C16.1241 14.4596 16.1327 14.4603 16.1483 14.4747L16.1551 14.4686L16.0835 14.3901L16.0767 14.3962C16.0901 14.4136 16.09 14.4222 16.0765 14.4345L16.0206 14.4856L15.9698 14.4299L16.0257 14.3789C16.0392 14.3665 16.0478 14.3672 16.0639 14.3821L16.0706 14.376L15.9996 14.2982L15.9929 14.3043C16.0054 14.3213 16.0051 14.3291 15.9916 14.3415L15.8608 14.4608C15.8476 14.4729 15.8409 14.4726 15.8237 14.4587L15.817 14.4648L15.888 14.5427L15.8947 14.5365C15.8815 14.5177 15.8817 14.5103 15.895 14.4982L15.9571 14.4415L16.0079 14.4971Z" fill="#00493D"/>
<path d="M16.1551 14.7954L16.1542 14.7946C16.1454 14.7862 16.1471 14.7772 16.1654 14.7351L16.2472 14.5475L16.2409 14.5415L16.0526 14.6392C16.0206 14.6557 16.0141 14.6571 16.0009 14.6492L15.9946 14.6558L16.0407 14.6995L16.047 14.6928C16.0346 14.6791 16.0321 14.6712 16.0387 14.6643C16.042 14.6609 16.0501 14.656 16.0684 14.6461L16.0816 14.639L16.1327 14.6874C16.1207 14.7154 16.1144 14.7276 16.1089 14.7334C16.1036 14.739 16.0981 14.7388 16.0897 14.7318C16.0885 14.7308 16.0853 14.7282 16.0817 14.7257L16.0754 14.7324L16.1489 14.8021L16.1551 14.7954ZM16.0948 14.6319L16.1773 14.5876L16.1391 14.6738L16.0948 14.6319Z" fill="#00493D"/>
<path d="M16.223 14.803C16.2058 14.8239 16.2005 14.8248 16.1782 14.8097L16.1724 14.8167L16.2584 14.8878L16.2642 14.8807C16.2447 14.8617 16.2443 14.8567 16.262 14.8353L16.3848 14.6866C16.4135 14.7123 16.4153 14.7356 16.3917 14.7725L16.3987 14.7783L16.445 14.7212L16.3004 14.6018L16.2529 14.6579L16.2599 14.6636C16.2917 14.6335 16.3149 14.6308 16.3457 14.6544L16.223 14.803Z" fill="#00493D"/>
<path d="M16.5018 14.926L16.4531 14.9945C16.4427 15.0091 16.4354 15.0102 16.4151 14.9994L16.4098 15.0069L16.4964 15.0684L16.5017 15.061C16.4853 15.0453 16.484 15.0385 16.4944 15.0239L16.5969 14.8796C16.6075 14.8647 16.616 14.8635 16.6344 14.8744L16.6397 14.8669L16.5531 14.8053L16.5478 14.8128C16.5646 14.827 16.5663 14.8353 16.5557 14.8502L16.5118 14.912L16.4504 14.8683L16.4943 14.8066C16.5049 14.7917 16.5133 14.7906 16.5322 14.8017L16.5375 14.7943L16.4517 14.7333L16.4464 14.7407C16.4622 14.7546 16.4636 14.7624 16.453 14.7773L16.3504 14.9216C16.34 14.9362 16.3335 14.9373 16.3137 14.9273L16.3084 14.9348L16.3943 14.9958L16.3996 14.9884C16.3827 14.9728 16.3813 14.9655 16.3917 14.9509L16.4404 14.8823L16.5018 14.926Z" fill="#00493D"/>
<path d="M16.8518 15.0663L16.8584 15.0698L16.893 15.0049L16.7365 14.9216L16.7322 14.9297C16.7506 14.9411 16.7532 14.9488 16.7443 14.9656L16.6611 15.1218C16.6522 15.1386 16.6465 15.1401 16.6247 15.1318L16.6204 15.1399L16.7197 15.1928L16.724 15.1847C16.6993 15.1699 16.6964 15.1634 16.7058 15.1456L16.7459 15.0704C16.7737 15.086 16.7775 15.1034 16.7615 15.1429L16.7684 15.1466L16.8264 15.0374L16.8195 15.0338C16.795 15.0679 16.7793 15.0741 16.7517 15.0594L16.7916 14.9845C16.7979 14.9725 16.8033 14.9712 16.8173 14.9787C16.8711 15.0074 16.8619 15.0339 16.8518 15.0663Z" fill="#00493D"/>
<path d="M16.9907 15.0405C16.93 15.0163 16.8667 15.0494 16.8387 15.1202C16.8107 15.1905 16.8336 15.2574 16.8937 15.2813C16.9538 15.3052 17.0165 15.2719 17.0445 15.2015C17.072 15.1322 17.0491 15.0636 16.9907 15.0405ZM16.986 15.0516C17.0179 15.0642 17.0202 15.1128 16.9921 15.1835C16.9644 15.2532 16.9315 15.2834 16.8981 15.2701C16.8647 15.2568 16.8616 15.2123 16.8889 15.1436C16.918 15.0702 16.952 15.0381 16.986 15.0516Z" fill="#00493D"/>
<path d="M17.1691 15.1316L17.1723 15.1231L17.073 15.0867L17.0699 15.0953C17.0896 15.1052 17.0915 15.111 17.0824 15.1357L17.0404 15.2504C17.0281 15.2841 17.0281 15.3032 17.0405 15.3249C17.0501 15.342 17.0667 15.3551 17.0881 15.3629C17.1447 15.3837 17.1782 15.3515 17.1973 15.2993L17.2374 15.1897C17.2448 15.1695 17.2509 15.1655 17.271 15.1689L17.2741 15.1603L17.2095 15.1367L17.2064 15.1453C17.2285 15.1557 17.2319 15.1647 17.2227 15.1898L17.1844 15.2946C17.1657 15.3454 17.1406 15.3631 17.1057 15.3503C17.0758 15.3393 17.07 15.3142 17.0871 15.2675L17.1291 15.1528C17.139 15.1257 17.1461 15.1244 17.1691 15.1316Z" fill="#00493D"/>
<path d="M17.3414 15.1773L17.2775 15.1611L17.2753 15.1699C17.2813 15.1715 17.2851 15.1781 17.2945 15.202L17.2518 15.37C17.2466 15.3902 17.2408 15.394 17.2179 15.3916L17.2157 15.4005L17.2844 15.418L17.2867 15.4091C17.2642 15.4 17.2604 15.3919 17.2668 15.3667L17.3031 15.2242L17.3894 15.4515L17.3979 15.4536L17.451 15.2448C17.4562 15.2246 17.4613 15.221 17.4819 15.2225L17.4841 15.2136L17.419 15.1971L17.4167 15.2059C17.4385 15.2141 17.4424 15.223 17.436 15.2482L17.4085 15.3563L17.3414 15.1773Z" fill="#00493D"/>
<path d="M17.4732 15.4333C17.4704 15.4492 17.4614 15.455 17.4434 15.4526L17.4418 15.4616L17.5391 15.4788C17.6055 15.4906 17.6587 15.4488 17.6719 15.3742C17.685 15.3 17.6499 15.2474 17.5788 15.2347L17.485 15.2181L17.4834 15.2271C17.5027 15.2328 17.5076 15.2392 17.5047 15.2558L17.4732 15.4333ZM17.6174 15.3701C17.6026 15.4537 17.5693 15.4712 17.5373 15.4655C17.5234 15.463 17.5203 15.4576 17.5232 15.4414L17.556 15.2563C17.5574 15.248 17.5644 15.2448 17.5764 15.2469C17.6041 15.2518 17.6331 15.2815 17.6174 15.3701Z" fill="#00493D"/>
<path d="M17.7552 15.4929C17.7353 15.4913 17.7297 15.4861 17.731 15.4704L17.7381 15.3822C17.772 15.3849 17.7837 15.4002 17.784 15.4428L17.7921 15.4434L17.802 15.3202L17.7939 15.3195C17.786 15.36 17.773 15.3725 17.7403 15.3699L17.7391 15.3698L17.7459 15.2852C17.747 15.2714 17.7513 15.2684 17.7675 15.2697C17.8183 15.2738 17.8326 15.2874 17.8365 15.3365L17.8442 15.3372L17.8501 15.2639L17.6704 15.2494L17.6696 15.2585C17.691 15.2617 17.6965 15.268 17.695 15.2866L17.6808 15.4631C17.6793 15.4821 17.6746 15.4857 17.6513 15.4868L17.6506 15.4959L17.8328 15.5105L17.8514 15.4357L17.8426 15.435C17.8247 15.4714 17.8044 15.4969 17.7552 15.4929Z" fill="#00493D"/>
<path d="M17.8768 15.4841C17.876 15.5002 17.8678 15.5071 17.8497 15.5069L17.8492 15.5161L17.9478 15.5211C18.0153 15.5245 18.0628 15.4764 18.0667 15.4008C18.0705 15.3256 18.0291 15.2777 17.957 15.274L17.8618 15.2691L17.8614 15.2783C17.8812 15.2815 17.8869 15.2873 17.886 15.3041L17.8768 15.4841ZM18.0121 15.4035C18.0077 15.4883 17.9769 15.5098 17.9444 15.5081C17.9304 15.5074 17.9266 15.5024 17.9274 15.486L17.937 15.2982C17.9374 15.2898 17.9439 15.2858 17.9561 15.2864C17.9842 15.2878 18.0167 15.3137 18.0121 15.4035Z" fill="#00493D"/>
<path d="M18.2385 15.482C18.2408 15.5002 18.2359 15.5059 18.2129 15.5114L18.2141 15.5205L18.3226 15.5069L18.3215 15.4978C18.2977 15.4989 18.2912 15.4946 18.2888 15.4757L18.2668 15.3001C18.2644 15.2812 18.2702 15.2746 18.293 15.2706L18.2919 15.2615L18.1833 15.2751L18.1845 15.2842C18.207 15.2832 18.2142 15.2878 18.2166 15.3064L18.2385 15.482Z" fill="#00493D"/>
<path d="M18.4072 15.4504C18.4118 15.4771 18.4091 15.4817 18.383 15.4888L18.3846 15.4978L18.4945 15.4787L18.493 15.4697C18.4658 15.4722 18.4618 15.4692 18.4571 15.4418L18.4242 15.2519C18.4623 15.2467 18.4812 15.2606 18.4939 15.3025L18.5028 15.301L18.4896 15.2287L18.3048 15.2606L18.3165 15.3332L18.3254 15.3317C18.3232 15.2879 18.3364 15.2685 18.3743 15.2605L18.4072 15.4504Z" fill="#00493D"/>
<path d="M18.6677 15.1906L18.6651 15.1818L18.5637 15.2114L18.5663 15.2202C18.588 15.2165 18.5929 15.2201 18.6003 15.2453L18.6346 15.3626C18.6446 15.397 18.6559 15.4124 18.6788 15.4225C18.6967 15.4306 18.7178 15.4313 18.7397 15.4249C18.7976 15.408 18.8054 15.3623 18.7898 15.3089L18.7571 15.1969C18.7511 15.1762 18.7536 15.1693 18.7718 15.1602L18.7692 15.1514L18.7032 15.1707L18.7058 15.1795C18.7298 15.1748 18.7379 15.18 18.7454 15.2057L18.7766 15.3127C18.7918 15.3647 18.7821 15.3938 18.7464 15.4043C18.7158 15.4132 18.6962 15.3964 18.6823 15.3487L18.648 15.2314C18.6399 15.2037 18.6449 15.1984 18.6677 15.1906Z" fill="#00493D"/>
<path d="M18.9024 15.2452C18.9417 15.2298 18.9512 15.225 18.9618 15.214C18.9814 15.1944 18.9863 15.1687 18.9763 15.1423C18.9613 15.1027 18.925 15.0906 18.8762 15.1092L18.7821 15.1449L18.7853 15.1535C18.8065 15.1477 18.8127 15.1517 18.8218 15.1756L18.8792 15.3267C18.8872 15.3479 18.886 15.3562 18.8731 15.3635C18.8722 15.3638 18.8696 15.3656 18.8666 15.3675L18.8698 15.3761L18.9674 15.339L18.9642 15.3305C18.9398 15.3358 18.936 15.3337 18.9265 15.3088L18.9024 15.2452ZM18.8978 15.2332L18.863 15.1415C18.86 15.1337 18.8635 15.1277 18.8731 15.124C18.8974 15.1148 18.9127 15.1262 18.9267 15.1631C18.9427 15.2052 18.9352 15.219 18.8978 15.2332Z" fill="#00493D"/>
<path d="M19.0585 15.032C18.9975 15.0554 18.9734 15.1226 19.0006 15.1936C19.0278 15.2643 19.0899 15.2981 19.1503 15.2749C19.2107 15.2517 19.2342 15.1847 19.2071 15.114C19.1804 15.0443 19.1171 15.0095 19.0585 15.032ZM19.0625 15.0434C19.0946 15.031 19.1291 15.0652 19.1564 15.1362C19.1832 15.2062 19.1796 15.2507 19.146 15.2636C19.1125 15.2765 19.0799 15.2459 19.0535 15.1769C19.0252 15.1031 19.0283 15.0565 19.0625 15.0434Z" fill="#00493D"/>
<path d="M19.1968 14.9694L19.1379 14.999L19.142 15.0071C19.1475 15.0043 19.1547 15.0069 19.1775 15.0188L19.2552 15.1738C19.2645 15.1924 19.2626 15.1991 19.2437 15.2123L19.2478 15.2204L19.3112 15.1887L19.3071 15.1805C19.2841 15.1883 19.276 15.1846 19.2643 15.1614L19.1985 15.03L19.4125 15.1453L19.4203 15.1414L19.3239 14.9487C19.3145 14.9301 19.316 14.924 19.3325 14.9117L19.3284 14.9035L19.2684 14.9336L19.2725 14.9418C19.2943 14.9337 19.303 14.9379 19.3147 14.9611L19.3646 15.0609L19.1968 14.9694Z" fill="#00493D"/>
<path d="M19.5827 14.9762C19.5988 14.9979 19.5985 15.0032 19.5784 15.0213L19.5839 15.0287L19.6734 14.9621L19.668 14.9547C19.6449 14.9692 19.6399 14.9683 19.6233 14.946L19.5083 14.7913C19.54 14.7696 19.5631 14.7734 19.5934 14.8051L19.6006 14.7997L19.5563 14.7411L19.4058 14.853L19.4489 14.9125L19.4561 14.9071C19.4344 14.869 19.4374 14.8458 19.4677 14.8215L19.5827 14.9762Z" fill="#00493D"/>
<path d="M19.7654 14.737L19.8188 14.802C19.8302 14.8158 19.8294 14.8232 19.8136 14.8399L19.8194 14.847L19.9015 14.7795L19.8957 14.7724C19.8762 14.7842 19.8693 14.7837 19.8579 14.7698L19.7454 14.6331C19.7338 14.619 19.7349 14.6105 19.7502 14.5956L19.7444 14.5885L19.6623 14.6561L19.6681 14.6631C19.6862 14.6506 19.6947 14.6512 19.7063 14.6653L19.7544 14.7238L19.6963 14.7716L19.6482 14.7132C19.6366 14.699 19.6377 14.6906 19.6534 14.6752L19.6476 14.6682L19.5662 14.7351L19.5721 14.7422C19.5896 14.7306 19.5975 14.7312 19.6091 14.7453L19.7216 14.882C19.7329 14.8959 19.7323 14.9025 19.7175 14.919L19.7233 14.926L19.8047 14.8591L19.7989 14.852C19.7794 14.8643 19.772 14.8637 19.7607 14.8499L19.7072 14.7849L19.7654 14.737Z" fill="#00493D"/>
<path d="M19.9911 14.6802C19.9766 14.694 19.969 14.6946 19.9581 14.6832L19.8972 14.6191C19.9219 14.5956 19.941 14.5971 19.9729 14.6253L19.9788 14.6197L19.8937 14.5301L19.8878 14.5357C19.9126 14.5686 19.9133 14.5866 19.8895 14.6092L19.8886 14.6101L19.8301 14.5485C19.8206 14.5385 19.8213 14.5333 19.833 14.5221C19.87 14.487 19.8896 14.4855 19.9288 14.5153L19.9345 14.51L19.8838 14.4567L19.7531 14.5809L19.7594 14.5875C19.776 14.5737 19.7844 14.5739 19.7972 14.5874L19.9192 14.7158C19.9323 14.7295 19.9319 14.7355 19.9171 14.7535L19.9234 14.7602L20.056 14.6342L20.0126 14.5704L20.0063 14.5765C20.0213 14.6141 20.0269 14.6462 19.9911 14.6802Z" fill="#00493D"/>
<path d="M19.9996 14.3137C19.9725 14.3464 19.9776 14.3843 20.0131 14.4137C20.0379 14.4343 20.066 14.4365 20.1058 14.4211L20.1282 14.4124C20.1575 14.4011 20.1696 14.4014 20.1843 14.4135C20.2037 14.4296 20.2066 14.4519 20.1913 14.4704C20.1608 14.5072 20.1081 14.4791 20.0903 14.4696L20.0845 14.4766L20.1541 14.5342L20.1599 14.5272C20.1541 14.5199 20.1531 14.5159 20.1563 14.5121C20.1631 14.5039 20.1814 14.5012 20.2 14.4788C20.2295 14.4432 20.2255 14.3993 20.19 14.3699C20.1689 14.3524 20.1386 14.346 20.1168 14.3539L20.0669 14.3723C20.0395 14.3824 20.0281 14.3819 20.0145 14.3707C19.9971 14.3562 19.9948 14.3373 20.0083 14.3209C20.0235 14.3026 20.053 14.2962 20.0989 14.3176L20.1045 14.3109L20.0434 14.2602L20.0374 14.2675C20.0433 14.2752 20.044 14.279 20.0406 14.2831C20.035 14.2898 20.0161 14.2937 19.9996 14.3137Z" fill="#00493D"/>
<path d="M20.3115 14.2959C20.2999 14.3121 20.2926 14.3142 20.2798 14.305L20.2079 14.2534C20.2277 14.2258 20.2468 14.2237 20.2834 14.2453L20.2882 14.2387L20.1877 14.1667L20.183 14.1733C20.2135 14.201 20.2176 14.2185 20.1985 14.2452L20.1977 14.2462L20.1288 14.1967C20.1175 14.1886 20.1172 14.1834 20.1267 14.1702C20.1564 14.1288 20.1754 14.1236 20.2195 14.1456L20.224 14.1393L20.1643 14.0964L20.0592 14.243L20.0666 14.2483C20.0804 14.2316 20.0886 14.2302 20.1037 14.2411L20.2476 14.3443C20.263 14.3553 20.2638 14.3612 20.2526 14.3817L20.2601 14.3871L20.3667 14.2385L20.3121 14.184L20.307 14.1911C20.3289 14.2253 20.3403 14.2558 20.3115 14.2959Z" fill="#00493D"/>
<path d="M20.4665 14.0254L20.466 14.0265C20.4603 14.0373 20.4512 14.0382 20.4057 14.0319L20.203 14.0041L20.1989 14.0119L20.344 14.1665C20.3686 14.1929 20.3717 14.1988 20.3677 14.2136L20.3758 14.2178L20.4053 14.1617L20.3972 14.1574C20.3873 14.173 20.3804 14.1775 20.372 14.1731C20.3678 14.1709 20.3609 14.1644 20.3464 14.1494L20.336 14.1386L20.3687 14.0764C20.3989 14.0803 20.4123 14.0831 20.4194 14.0868C20.4262 14.0904 20.4276 14.0957 20.4231 14.1057C20.4224 14.1071 20.4208 14.1109 20.4194 14.1151L20.4275 14.1193L20.4746 14.0297L20.4665 14.0254ZM20.3255 14.1279L20.2605 14.0605L20.3539 14.0739L20.3255 14.1279Z" fill="#00493D"/>
<path d="M20.2771 13.854C20.261 13.8934 20.2771 13.928 20.3199 13.9455C20.3496 13.9578 20.3771 13.9515 20.4105 13.925L20.4293 13.91C20.454 13.8904 20.4656 13.8871 20.4832 13.8943C20.5065 13.9039 20.516 13.9243 20.5068 13.9466C20.4887 13.9908 20.43 13.9796 20.4102 13.9758L20.4068 13.9842L20.4904 14.0185L20.4938 14.0101C20.486 14.0049 20.4839 14.0014 20.4858 13.9967C20.4899 13.9869 20.5066 13.9789 20.5176 13.952C20.5352 13.9092 20.5183 13.8685 20.4757 13.851C20.4503 13.8406 20.4194 13.8435 20.401 13.8575L20.3589 13.8899C20.3357 13.9078 20.3247 13.9107 20.3084 13.904C20.2874 13.8954 20.2796 13.878 20.2876 13.8583C20.2966 13.8364 20.3229 13.8215 20.3731 13.8282L20.3764 13.8201L20.303 13.79L20.2995 13.7987C20.3074 13.8043 20.3092 13.8077 20.3072 13.8126C20.3038 13.8207 20.287 13.83 20.2771 13.854Z" fill="#00493D"/>
<path d="M0 0H12V8H0V0Z" fill="#012169"/>
<path d="M1.40625 0L5.98125 3.01667L10.5375 0H12V1.03333L7.5 4.01667L12 6.98333V8H10.5L6 5.01667L1.51875 8H0V7L4.48125 4.03333L0 1.06667V0H1.40625Z" fill="white"/>
<path d="M7.95 4.68333L12 7.33333V8L6.91875 4.68333H7.95ZM4.5 5.01667L4.6125 5.6L1.0125 8H0L4.5 5.01667ZM12 0V0.05L7.33125 3.18333L7.36875 2.45L11.0625 0H12ZM0 0L4.48125 2.93333H3.35625L0 0.7V0Z" fill="#C8102E"/>
<path d="M4.51875 0V8H7.51875V0H4.51875ZM0 2.66667V5.33333H12V2.66667H0Z" fill="white"/>
<path d="M0 3.21667V4.81667H12V3.21667H0ZM5.11875 0V8H6.91875V0H5.11875Z" fill="#C8102E"/>
</g>
<rect x="0.25" y="0.25" width="23.5" height="17.5" rx="1.75" stroke="#DDE0EA" stroke-width="0.5" style="fill-opacity:0"/>
<defs>
<clipPath id="clip0_1262_10120">
<rect width="24" height="18" rx="2" fill="white"/>
</clipPath>
</defs>
</svg>
