<svg width="24" height="18" viewBox="0 0 24 18" fill="none" xmlns="http://www.w3.org/2000/svg">
<g clip-path="url(#clip0_1262_10120)">
<path d="M0 0H24V18H0V0Z" fill="#012169"/>
<path d="M0 9H12V0H24V18H0V9Z" fill="#012169"/>
<path d="M15.08 14.81C15.14 14.96 15.55 15.16 16.03 14.91C16.36 14.72 16.57 14.46 16.77 14.00C16.83 13.89 16.86 13.75 16.72 13.66C16.62 13.58 16.44 13.50 16.37 13.42C16.33 13.38 16.29 13.35 16.26 13.32C16.28 13.34 16.30 13.36 16.32 13.39C16.51 13.62 16.31 13.96 16.10 14.16C15.95 14.30 15.67 14.66 15.27 14.32C15.18 14.24 14.98 14.56 15.08 14.81Z" fill="#FCEA83"/>
<path d="M20.91 14.81C20.84 14.96 20.43 15.16 19.96 14.91C19.64 14.72 19.43 14.46 19.21 14.00C19.17 13.89 19.14 13.75 19.27 13.66C19.38 13.58 19.55 13.50 19.63 13.42C19.66 13.38 19.69 13.35 19.73 13.32C19.71 13.34 19.69 13.36 19.67 13.39C19.48 13.62 19.68 13.96 19.89 14.16C20.04 14.30 20.33 14.66 20.73 14.32C20.82 14.24 21.01 14.56 20.91 14.81Z" fill="#FCEA83"/>
<path d="M18.00 15.63C18.76 15.63 19.94 15.29 20.58 14.08C20.68 13.88 20.58 13.77 20.45 13.71C20.32 13.65 20.15 13.52 20.07 13.43C20.22 13.58 20.19 13.69 20.09 13.86C19.60 14.68 18.93 15.09 18.00 15.09C17.07 15.09 16.40 14.68 15.91 13.86C15.80 13.69 15.77 13.58 15.92 13.43C15.84 13.52 15.67 13.65 15.53 13.71C15.41 13.77 15.30 13.88 15.41 14.08C16.04 15.29 17.23 15.63 18.00 15.63Z" fill="#FCEA83"/>
<path d="M17.61 9.09C17.41 8.93 17.17 8.79 16.95 8.76C17.10 8.85 17.50 9.16 17.60 9.27" fill="#F9D050"/>
<path d="M18.04 8.68C18.17 8.38 18.31 8.22 18.51 8.03C18.41 8.23 18.30 8.65 18.26 8.81" fill="#F9D050"/>
<path d="M18.25 8.63C18.34 8.42 18.49 8.23 18.74 8.12C18.61 8.24 18.42 8.62 18.37 8.82" fill="#F9D050"/>
<path d="M18.47 9.03C18.64 8.93 18.98 8.78 19.23 8.83C19.08 8.89 18.62 9.10 18.42 9.29" fill="#F9D050"/>
<path d="M18.43 8.96C18.59 8.79 18.89 8.53 19.20 8.43C18.97 8.65 18.49 9.15 18.42 9.22" fill="#F9D050"/>
<path d="M17.75 8.85C17.56 8.62 17.30 8.39 17.00 8.34C17.20 8.46 17.54 8.79 17.66 9.12" fill="#F9D050"/>
<path d="M17.85 8.84C17.61 8.41 17.43 8.33 17.33 8.24C17.41 8.41 17.62 8.84 17.75 9.02" fill="#F9D050"/>
<path d="M17.82 8.62C17.83 8.52 17.90 8.45 17.96 8.46C18.02 8.46 18.05 8.58 18.04 8.65C18.03 8.72 17.96 8.78 17.91 8.77C17.86 8.77 17.82 8.70 17.82 8.62Z" fill="#F9D050"/>
<path d="M17.94 8.72C17.94 8.63 18.00 8.54 18.05 8.54C18.12 8.54 18.17 8.65 18.17 8.72C18.17 8.80 18.11 8.87 18.05 8.87C18.00 8.87 17.94 8.81 17.94 8.72Z" fill="#F9D050"/>
<path d="M18.08 8.81C18.08 8.71 18.15 8.63 18.21 8.63C18.27 8.63 18.32 8.73 18.32 8.81C18.32 8.89 18.27 8.95 18.21 8.95C18.15 8.95 18.08 8.90 18.08 8.81Z" fill="#F9D050"/>
<path d="M17.93 8.90C17.93 8.80 17.99 8.71 18.05 8.71C18.11 8.71 18.16 8.83 18.16 8.90C18.16 8.97 18.10 9.04 18.05 9.04C17.99 9.04 17.93 8.98 17.93 8.90Z" fill="#F9D050"/>
<path d="M17.83 9.04C17.81 8.94 17.75 8.88 17.71 8.89C17.67 8.90 17.66 9.01 17.68 9.08C17.70 9.15 17.76 9.20 17.80 9.19C17.82 9.18 17.85 9.12 17.83 9.04Z" fill="#F9D050"/>
<path d="M17.96 8.00C17.94 8.08 17.87 8.15 17.92 8.25C17.83 8.23 17.76 8.22 17.69 8.29C17.78 8.28 17.85 8.31 17.89 8.37C17.82 8.36 17.78 8.40 17.76 8.45C17.82 8.43 17.89 8.41 17.92 8.42C17.89 8.45 17.84 8.49 17.83 8.53C17.89 8.48 17.96 8.49 18.00 8.46C17.97 8.53 18.03 8.60 18.07 8.67C18.06 8.57 18.12 8.50 18.09 8.46C18.18 8.47 18.19 8.55 18.31 8.55C18.27 8.52 18.24 8.43 18.18 8.43C18.21 8.42 18.32 8.41 18.34 8.43C18.32 8.39 18.26 8.35 18.22 8.35C18.26 8.31 18.32 8.23 18.37 8.22C18.30 8.23 18.20 8.23 18.16 8.29C18.26 8.22 18.24 8.07 18.34 8.05C18.28 8.04 18.20 8.08 18.13 8.15C18.16 8.09 18.16 8.01 18.20 8C18.12 8.01 18.04 8.11 18.01 8.16C18.01 8.11 17.98 8.03 17.96 8.00Z" fill="#F9D050"/>
<path d="M18.01 8.16C18.01 8.19 18.01 8.24 18.00 8.26L18.01 8.16Z" fill="#F9D050"/>
<path d="M17.17 9.21C17.11 9.21 17.05 9.18 17.01 9.14C16.94 9.05 16.76 9.01 16.68 9.09C16.66 9.11 16.62 9.11 16.59 9.12C16.54 9.12 16.48 9.16 16.50 9.26C16.54 9.23 16.55 9.26 16.58 9.26C16.60 9.25 16.59 9.27 16.59 9.29C16.59 9.34 16.69 9.43 16.79 9.42C16.89 9.42 16.94 9.46 16.96 9.48C16.99 9.51 16.97 9.50 16.99 9.55C17.02 9.58 17.03 9.59 16.98 9.62C16.91 9.68 16.87 9.82 16.98 9.92C17.11 10.02 17.42 10.16 17.78 9.88C18.12 9.61 18.66 9.77 18.70 9.86C18.74 9.96 18.76 10.02 18.77 10.07C18.78 10.10 18.83 10.14 18.90 10.13C18.97 10.13 19.04 10.16 19.08 10.19C19.13 10.22 19.20 10.21 19.18 10.12C19.14 9.85 18.97 9.82 18.96 9.69C19.05 9.70 19.12 9.70 19.16 9.66C19.19 9.62 19.22 9.56 19.26 9.54C19.29 9.52 19.29 9.50 19.25 9.51C19.20 9.52 19.18 9.54 19.09 9.53C18.65 9.48 17.41 9.15 17.17 9.21Z" fill="#059334"/>
<path d="M17.31 9.17C17.40 9.08 17.52 9.03 17.63 9.06H17.66C17.72 9.01 17.85 9.00 17.93 9.04H17.97C18.08 9.00 18.30 9.04 18.38 9.12L18.41 9.14C18.67 9.12 18.82 9.23 19.00 9.41C19.02 9.43 19.05 9.47 19.10 9.48C19.16 9.49 19.17 9.52 19.12 9.55C19.06 9.58 19.01 9.62 18.92 9.73C18.83 9.84 18.55 9.96 18.21 9.96C17.87 9.96 17.67 9.90 17.52 9.79C17.43 9.72 17.36 9.68 17.32 9.65C17.26 9.63 17.18 9.56 17.21 9.48C17.23 9.40 17.18 9.31 17.14 9.21C17.17 9.19 17.25 9.16 17.29 9.18L17.31 9.17Z" fill="#059334"/>
<path d="M19.79 10.48V12.35C19.79 13.97 19.02 14.52 18.00 14.96C16.97 14.52 16.20 13.97 16.20 12.35V10.48H19.79Z" fill="white"/>
<path d="M18.00 12.06C18.08 12.06 18.22 11.98 18.33 11.87C18.46 11.73 18.67 11.69 18.89 11.87C19.11 12.05 19.24 11.97 19.36 11.87C19.47 11.76 19.57 11.72 19.79 11.72L19.79 10.48H16.20L16.20 11.72C16.42 11.72 16.51 11.76 16.63 11.87C16.74 11.97 16.88 12.05 17.10 11.87C17.33 11.69 17.53 11.73 17.66 11.87C17.77 11.98 17.90 12.06 18.00 12.06Z" fill="#C8102E"/>
<path d="M18.00 13.02C18.11 13.02 18.34 12.89 18.40 12.86C18.61 12.74 18.76 12.85 18.89 12.91C19.02 12.97 19.27 13.04 19.43 12.91C19.58 12.79 19.66 12.80 19.77 12.80C19.79 12.65 19.79 12.51 19.79 12.35V12.23C19.66 12.20 19.59 12.24 19.44 12.37C19.30 12.49 19.14 12.46 18.93 12.38C18.73 12.30 18.52 12.15 18.32 12.38C18.27 12.45 18.13 12.55 18.00 12.55C17.85 12.55 17.73 12.45 17.67 12.38C17.46 12.15 17.27 12.30 17.07 12.38C16.86 12.46 16.68 12.49 16.54 12.37C16.41 12.24 16.34 12.20 16.20 12.23V12.35C16.20 12.51 16.20 12.65 16.22 12.80C16.33 12.80 16.41 12.79 16.56 12.91C16.71 13.04 16.97 12.97 17.10 12.91C17.23 12.85 17.38 12.74 17.59 12.86C17.65 12.89 17.87 13.02 18.00 13.02Z" fill="#0B50A0"/>
<path d="M18.00 13.43C18.14 13.43 18.31 13.37 18.47 13.29C18.66 13.18 18.79 13.23 18.98 13.32C19.19 13.42 19.35 13.39 19.46 13.32C19.52 13.29 19.57 13.21 19.69 13.24C19.64 13.48 19.55 13.69 19.44 13.86C19.25 13.91 19.15 13.91 18.95 13.82C18.74 13.73 18.50 13.67 18.36 13.76C18.24 13.83 18.10 13.87 18.00 13.87C17.89 13.87 17.76 13.83 17.63 13.76C17.50 13.67 17.25 13.73 17.05 13.82C16.85 13.91 16.74 13.91 16.55 13.86C16.44 13.69 16.36 13.48 16.30 13.24C16.43 13.21 16.47 13.29 16.53 13.32C16.64 13.39 16.81 13.42 17.00 13.32C17.20 13.23 17.34 13.18 17.53 13.29C17.68 13.37 17.85 13.43 18.00 13.43Z" fill="#0B50A0"/>
<path d="M18.00 14.96C18.38 14.80 18.74 14.62 19.02 14.37C18.95 14.34 18.90 14.36 18.83 14.31C18.76 14.26 18.56 14.24 18.39 14.34C18.21 14.43 18.13 14.45 18.00 14.45C17.86 14.45 17.79 14.43 17.60 14.34C17.43 14.24 17.23 14.26 17.16 14.31C17.10 14.36 17.05 14.34 16.97 14.37C17.26 14.62 17.60 14.80 18.00 14.96Z" fill="#0B50A0"/>
<path d="M17.75 10.95C17.76 10.97 17.74 11.01 17.75 11.03C17.77 11.07 17.77 11.09 17.80 11.11H17.86C18.07 11.11 18.32 11.02 18.53 11.02C18.74 11.02 18.86 11.09 18.97 11.09C19.04 11.09 19.10 11.04 19.10 11C19.10 10.95 19.02 10.92 18.86 10.92C18.63 10.92 18.51 10.98 18.31 10.98C18.03 10.98 17.98 10.87 17.98 10.82C17.98 10.77 18.03 10.71 18.18 10.71C18.23 10.71 18.27 10.70 18.28 10.68C18.29 10.66 18.32 10.62 18.38 10.59C18.45 10.55 18.58 10.59 18.65 10.54C18.65 10.58 18.59 10.64 18.54 10.66C18.64 10.63 18.74 10.63 18.76 10.71C18.72 10.68 18.64 10.70 18.61 10.71C18.57 10.72 18.55 10.73 18.51 10.74C18.55 10.73 18.57 10.80 18.63 10.80C18.57 10.85 18.48 10.85 18.38 10.81C18.35 10.80 18.28 10.77 18.23 10.77C18.13 10.77 18.07 10.79 18.07 10.83C18.07 10.88 18.13 10.91 18.30 10.91C18.48 10.91 18.57 10.86 18.83 10.86C18.81 10.83 18.84 10.80 18.80 10.77C18.90 10.77 19.00 10.80 19.04 10.87C19.03 10.80 19.09 10.75 19.07 10.69C19.13 10.70 19.18 10.76 19.19 10.80C19.19 10.77 19.22 10.77 19.22 10.75C19.28 10.77 19.31 10.84 19.30 10.90C19.33 10.85 19.36 10.87 19.38 10.81C19.40 10.85 19.39 10.97 19.32 11.00C19.38 10.97 19.46 10.97 19.52 11.03C19.46 11.02 19.43 11.05 19.41 11.06C19.29 11.13 19.10 11.17 18.96 11.16C18.80 11.15 18.78 11.12 18.69 11.12C18.74 11.13 18.86 11.24 18.97 11.24C19.03 11.24 19.08 11.24 19.11 11.23C19.14 11.23 19.19 11.23 19.22 11.25C19.25 11.28 19.31 11.31 19.35 11.30C19.34 11.34 19.32 11.36 19.29 11.37C19.34 11.40 19.31 11.42 19.36 11.46C19.34 11.46 19.32 11.47 19.29 11.46C19.32 11.49 19.32 11.53 19.35 11.55C19.34 11.55 19.31 11.56 19.29 11.55C19.32 11.59 19.29 11.64 19.32 11.66C19.35 11.69 19.29 11.74 19.24 11.70C19.25 11.73 19.22 11.76 19.20 11.75C19.17 11.74 19.15 11.71 19.16 11.70C19.16 11.69 19.16 11.69 19.17 11.69C19.15 11.71 19.11 11.71 19.09 11.70C19.08 11.69 19.07 11.69 19.07 11.68C19.00 11.69 18.97 11.64 18.98 11.61C18.99 11.58 19.05 11.57 19.07 11.58C19.09 11.59 19.11 11.60 19.13 11.58C19.15 11.57 19.16 11.55 19.16 11.53C19.16 11.50 19.13 11.42 19.00 11.43C18.86 11.44 18.63 11.40 18.51 11.36C18.51 11.35 18.50 11.35 18.49 11.34C18.49 11.38 18.45 11.40 18.45 11.44C18.45 11.48 18.47 11.52 18.52 11.54C18.50 11.59 18.45 11.58 18.43 11.55C18.43 11.58 18.39 11.60 18.39 11.64C18.38 11.62 18.37 11.61 18.36 11.59C18.33 11.66 18.26 11.69 18.22 11.68C18.17 11.71 18.11 11.70 18.09 11.67C18.06 11.69 18.03 11.69 18.01 11.67C18.01 11.69 17.99 11.69 17.98 11.72C17.98 11.74 17.94 11.75 17.92 11.74C17.90 11.73 17.89 11.69 17.91 11.68C17.88 11.69 17.85 11.69 17.83 11.68C17.83 11.66 17.83 11.63 17.85 11.62H17.87C17.85 11.61 17.82 11.62 17.81 11.61C17.79 11.59 17.79 11.57 17.80 11.55C17.81 11.54 17.83 11.52 17.85 11.54L17.86 11.55C17.86 11.53 17.87 11.51 17.88 11.51C17.90 11.50 17.93 11.50 17.96 11.53C17.98 11.56 18.00 11.56 18.05 11.55C18.10 11.55 18.18 11.50 18.24 11.46C18.07 11.43 18.17 11.32 18.22 11.28C18.18 11.27 18.12 11.27 18.08 11.29C17.88 11.40 17.67 11.52 17.54 11.48C17.54 11.50 17.55 11.52 17.56 11.54C17.53 11.54 17.47 11.54 17.45 11.51C17.44 11.53 17.42 11.58 17.44 11.62C17.42 11.60 17.36 11.58 17.34 11.57C17.35 11.59 17.34 11.63 17.35 11.66C17.32 11.63 17.27 11.61 17.25 11.63C17.23 11.65 17.19 11.66 17.16 11.65C17.14 11.68 17.12 11.69 17.09 11.70C17.09 11.69 17.09 11.66 17.08 11.65C17.07 11.68 17.04 11.71 17.00 11.73C17.00 11.71 17.00 11.69 16.99 11.67C16.99 11.70 16.91 11.72 16.90 11.75C16.91 11.72 16.91 11.69 16.91 11.68C16.89 11.70 16.87 11.73 16.82 11.74C16.83 11.72 16.84 11.70 16.83 11.69C16.82 11.72 16.76 11.74 16.71 11.73C16.71 11.75 16.67 11.78 16.63 11.75C16.60 11.74 16.58 11.71 16.60 11.69C16.56 11.69 16.52 11.66 16.54 11.63C16.54 11.62 16.55 11.61 16.55 11.60C16.52 11.58 16.51 11.54 16.54 11.51C16.55 11.50 16.58 11.50 16.60 11.50C16.60 11.43 16.66 11.43 16.69 11.48C16.71 11.51 16.77 11.56 16.82 11.55C16.84 11.55 16.85 11.54 16.87 11.54C16.92 11.52 17.04 11.47 17.11 11.42C17.12 11.39 17.12 11.37 17.12 11.35C17.08 11.37 17.04 11.39 17.02 11.42V11.39C16.99 11.39 16.94 11.38 16.92 11.38C16.93 11.37 16.94 11.32 16.96 11.31C16.91 11.32 16.87 11.31 16.83 11.30C16.85 11.28 16.85 11.25 16.86 11.23C16.84 11.23 16.79 11.22 16.75 11.23C16.76 11.20 16.77 11.16 16.80 11.15C16.76 11.16 16.71 11.15 16.66 11.13C16.70 11.13 16.72 11.08 16.75 11.08C16.67 11.08 16.66 11.04 16.62 11.02C16.65 11.03 16.66 11.00 16.69 11.00C16.66 11 16.62 10.95 16.64 10.92C16.63 10.93 16.62 10.95 16.60 10.96C16.58 10.97 16.54 10.96 16.51 10.93C16.49 10.89 16.50 10.84 16.54 10.83C16.49 10.82 16.49 10.77 16.51 10.76C16.52 10.74 16.56 10.71 16.58 10.74C16.59 10.75 16.60 10.77 16.61 10.77C16.60 10.76 16.60 10.72 16.60 10.69C16.61 10.66 16.63 10.66 16.66 10.65C16.68 10.65 16.70 10.68 16.70 10.71C16.70 10.74 16.71 10.76 16.72 10.79C16.72 10.78 16.73 10.77 16.73 10.76C16.73 10.72 16.78 10.73 16.81 10.74C16.84 10.75 16.85 10.80 16.81 10.83C16.79 10.85 16.80 10.88 16.82 10.90C16.89 11.00 17.00 11.09 17.10 11.10C17.10 11.06 17.12 11.02 17.14 11C17.14 10.98 17.15 10.95 17.16 10.93C17.17 10.87 17.20 10.84 17.24 10.86C17.23 10.85 17.22 10.84 17.22 10.83C17.19 10.80 17.16 10.76 17.18 10.72C17.20 10.68 17.26 10.69 17.28 10.71C17.27 10.65 17.34 10.60 17.34 10.57C17.35 10.60 17.36 10.64 17.35 10.67C17.36 10.63 17.43 10.58 17.48 10.56C17.46 10.59 17.52 10.64 17.51 10.67C17.53 10.62 17.60 10.59 17.66 10.59C17.64 10.61 17.64 10.65 17.64 10.67C17.67 10.67 17.72 10.66 17.74 10.63C17.74 10.67 17.72 10.71 17.70 10.73C17.71 10.72 17.75 10.72 17.78 10.72C17.75 10.75 17.76 10.77 17.73 10.79C17.77 10.77 17.82 10.77 17.82 10.81C17.84 10.84 17.82 10.89 17.80 10.92C17.78 10.93 17.76 10.95 17.75 10.95Z" fill="#F9D050"/>
<path d="M17.61 14.40L18.61 13.67H17.38L18.37 14.40L18.00 13.23L17.61 14.40Z" fill="#024919"/>
<path d="M1.40 0L5.98 3.01L10.53 0H12V1.03L7.5 4.01L12 6.98V8H10.5L6 5.01L1.51 8H0V7L4.48 4.03L0 1.06V0H1.40Z" fill="white"/>
<path d="M7.95 4.68L12 7.33V8L6.91 4.68H7.95ZM4.5 5.01L4.61 5.6L1.01 8H0L4.5 5.01ZM12 0V0.05L7.33 3.18L7.36 2.45L11.06 0H12ZM0 0L4.48 2.93H3.35L0 0.7V0Z" fill="#C8102E"/>
<path d="M4.51 0V8H7.51V0H4.51ZM0 2.66V5.33H12V2.66H0Z" fill="white"/>
<path d="M0 3.21V4.81H12V3.21H0ZM5.11 0V8H6.91V0H5.11Z" fill="#C8102E"/>
</g>
<rect x="0.25" y="0.25" width="23.5" height="17.5" rx="1.75" stroke="#DDE0EA" stroke-width="0.5" style="fill-opacity:0"/>
<defs>
<clipPath id="clip0_1262_10120">
<rect width="24" height="18" rx="2" fill="white"/>
</clipPath>
</defs>
</svg>
