<svg width="24" height="18" viewBox="0 0 24 18" fill="none" xmlns="http://www.w3.org/2000/svg">
<g clip-path="url(#clip0_1221_3904)">
<path d="M24 0H0V18H24V0Z" fill="#171796"/>
<path d="M0 0H24V12H0V0Z" fill="white"/>
<path d="M0 0H24V6H0V0ZM12 13.65C13.92 13.65 15.5 12.07 15.5 10.15V6H8.5V10.15C8.5 12.08 10.07 13.65 12 13.65V13.65Z" fill="#FF0000"/>
<path d="M12.00 13.59C12.91 13.59 13.78 13.23 14.42 12.58C15.07 11.94 15.43 11.07 15.43 10.16V6.06H8.57V10.16C8.57 11.07 8.93 11.94 9.57 12.58C10.21 13.22 11.09 13.58 12.00 13.59V13.59Z" fill="white"/>
<path d="M10.01 6.19H8.69V7.64H10.02L10.01 6.19ZM10.01 9.09H11.34V7.64H10.01L10.01 9.09ZM8.69 10.16C8.69 10.28 8.70 10.42 8.72 10.54H10.02V9.09H8.69V10.16ZM12.66 9.09H11.34V10.54H12.66V9.09ZM12.66 12H13.98V10.54H12.66V12ZM13.98 12.79C14.27 12.57 14.53 12.30 14.73 12H13.98V12.79H13.98ZM10.01 12H11.34V10.54H10.01L10.01 12ZM9.26 12C9.46 12.30 9.72 12.57 10.01 12.79V12H9.26ZM12.23 13.45C12.37 13.44 12.51 13.42 12.66 13.39V12H11.34V13.39C11.48 13.42 11.62 13.44 11.76 13.45C11.92 13.46 12.07 13.45 12.23 13.45Z" fill="#FF0000"/>
<path d="M15.27 10.54C15.29 10.42 15.30 10.28 15.30 10.16V9.09H13.98V10.54H15.27ZM12.65 9.09H13.98V7.64H12.65V9.09ZM12.65 6.19H11.33L11.34 7.64H12.65V6.19ZM15.30 7.64V6.19H13.98V7.64H15.30Z" fill="#FF0000"/>
<path d="M9.48 3.55L8.46 3.17L7.88 4.10L8.10 4.60L8.66 5.86C9.08 5.68 9.51 5.53 9.96 5.41L9.48 3.55Z" fill="#0093DD"/>
<path d="M11.15 3.27L10.20 2.73L9.48 3.55L9.96 5.41C10.40 5.30 10.85 5.23 11.31 5.19L11.15 3.27Z" fill="#171796"/>
<path d="M9.84 4.95C10.31 4.83 10.79 4.75 11.27 4.71L11.23 4.23C10.72 4.27 10.22 4.35 9.72 4.48L9.84 4.95ZM9.60 4.01C10.12 3.88 10.65 3.80 11.19 3.75L11.15 3.28C10.59 3.32 10.03 3.42 9.48 3.55L9.60 4.01Z" fill="#FF0000"/>
<path d="M12.85 3.27L12.84 3.28L12.00 2.58L11.16 3.27L11.31 5.19C11.54 5.17 11.77 5.16 12.00 5.16C12.23 5.16 12.46 5.17 12.69 5.19L12.85 3.27Z" fill="#0093DD"/>
<path d="M14.51 3.55L13.79 2.73L12.85 3.27L12.69 5.19C13.14 5.23 13.60 5.30 14.04 5.41L14.51 3.56V3.55Z" fill="#171796"/>
<path d="M15.33 5.86L16.11 4.10L15.54 3.17L14.52 3.55L14.04 5.42C14.48 5.53 14.91 5.68 15.33 5.86Z" fill="#0093DD"/>
<path d="M14.34 4.23C14.85 4.36 15.35 4.53 15.83 4.75L15.53 5.43C15.08 5.23 14.63 5.07 14.16 4.95L14.34 4.23Z" fill="white"/>
</g>
<rect x="0.25" y="0.25" width="23.5" height="17.5" rx="1.75" stroke="#DDE0EA" stroke-width="0.5" style="fill-opacity:0"/>
<defs>
<clipPath id="clip0_1221_3904">
<rect width="24" height="18" rx="2" fill="white"/>
</clipPath>
</defs>
</svg>
