<svg width="24" height="18" viewBox="0 0 24 18" fill="none" xmlns="http://www.w3.org/2000/svg">
<g clip-path="url(#clip0_1002_33)">
<g clip-path="url(#clip1_1002_33)">
<path d="M24 0H0V18H24V0Z" fill="white"/>
<path d="M11.5445 14.9492C11.5406 14.9453 11.5367 14.9414 11.5367 14.9414H11.5328L11.4859 14.8867L11.3414 14.7188L11.1578 14.4844L11.1343 14.4492L10.9039 14.3789L10.732 14.2969L10.8218 14.1992L11.1343 14.3281L11.3687 14.3789L11.7984 14.6953L11.6734 14.8047C11.6304 14.8477 11.5914 14.8906 11.5523 14.9375L11.5796 14.918L11.607 14.9414L11.5484 14.9492H11.5445ZM9.94683 14.4688C9.73589 14.4648 9.52886 14.4062 9.34527 14.2969C9.34527 14.2969 9.37261 14.25 9.43121 14.207C9.49371 14.1641 9.59917 14.1133 9.77105 14.1094C9.97417 14.1094 10.2203 14.1836 10.5015 14.3125C10.3335 14.4141 10.1421 14.4648 9.94683 14.4648V14.4688ZM9.06402 14.2734C9.02886 14.2734 8.9898 14.2578 8.96636 14.2344C8.94683 14.2109 8.93121 14.1797 8.9273 14.1445C8.91558 14.1016 8.91167 14.0586 8.91558 14.0156C8.93121 14.0117 8.94683 14.0078 8.96246 14.0117C9.04058 14.0117 9.09917 14.0742 9.12652 14.1367C9.14214 14.1758 9.14214 14.2031 9.13433 14.2305C9.12652 14.2539 9.09527 14.2695 9.06402 14.2695V14.2734ZM10.6148 14.0938C10.0914 14.0156 9.87261 13.8281 9.77886 13.6836C9.68121 13.5312 9.70464 13.3828 9.70464 13.3828C9.70464 13.3828 9.73199 13.375 9.77886 13.375C9.91949 13.375 10.271 13.4492 10.6148 14.0898V14.0938ZM9.54449 13.9883C9.32574 13.9883 9.15386 13.9492 9.04449 13.875C8.99371 13.8438 8.95465 13.8008 8.93121 13.75C8.9234 13.7305 8.91558 13.7109 8.91558 13.6914C9.00152 13.6562 9.09136 13.6367 9.18511 13.6406C9.31792 13.6445 9.45074 13.6758 9.57183 13.7305C9.69292 13.7852 9.8023 13.8672 9.89214 13.9648C9.76714 13.9805 9.64996 13.9883 9.54449 13.9883ZM8.47027 13.9492C8.23589 13.9492 7.91558 13.875 7.71246 13.6758C7.71246 13.6758 7.93121 13.6211 8.1773 13.6133H8.22027C8.44292 13.6133 8.61089 13.6523 8.72417 13.7383C8.76324 13.7695 8.78277 13.7969 8.78667 13.8242C8.79058 13.8438 8.77886 13.8672 8.75933 13.8867C8.70464 13.9219 8.6148 13.9453 8.48589 13.9453H8.47027V13.9492ZM7.70855 13.5547C7.69292 13.5547 7.6773 13.5508 7.66558 13.5469C7.65386 13.5391 7.64214 13.5312 7.63433 13.5195C7.61871 13.4961 7.60699 13.4727 7.60308 13.4453C7.59136 13.3906 7.59527 13.3398 7.59527 13.3359C7.60699 13.3281 7.61871 13.3281 7.63433 13.3281C7.66558 13.3281 7.69292 13.3477 7.70855 13.3633C7.73199 13.3867 7.74761 13.4102 7.75933 13.4414C7.76714 13.4727 7.77105 13.5 7.75933 13.5234C7.75933 13.5391 7.73589 13.5586 7.71246 13.5586L7.70855 13.5547ZM9.46636 13.5195C9.4273 13.5195 9.39215 13.5039 9.36871 13.4805C9.34918 13.457 9.33355 13.4258 9.32964 13.3906C9.31792 13.3477 9.31402 13.3047 9.31792 13.2656C9.33355 13.2578 9.34917 13.2539 9.3648 13.2578C9.43902 13.2578 9.50543 13.3203 9.52496 13.3828C9.54058 13.4219 9.54449 13.4531 9.53667 13.4766C9.52496 13.5 9.50152 13.5156 9.46246 13.5156L9.46636 13.5195ZM8.61089 13.4805C8.13824 13.4648 7.89214 13.332 7.77105 13.2188C7.72027 13.1719 7.6773 13.1172 7.64214 13.0586C7.62652 13.0195 7.61871 12.9883 7.61871 12.9844C7.61871 12.9766 7.66167 12.9688 7.73199 12.9688H7.74371C7.90386 12.9688 8.22808 13.0352 8.60699 13.4805H8.61089ZM9.12261 13.4375C8.85308 13.4062 8.59917 13.2852 8.41167 13.0859C8.34527 13.0117 8.29058 12.9219 8.25933 12.8242C8.25933 12.8242 8.3023 12.8125 8.37261 12.8086C8.38433 12.8086 8.39605 12.8086 8.40777 12.8086C8.59527 12.8125 8.94683 12.8984 9.12261 13.4375ZM7.17339 13.25C7.0523 13.25 6.93121 13.2383 6.81402 13.2109C6.6148 13.1602 6.52886 13.082 6.49371 13.0273C6.47808 13.0039 6.46636 12.9805 6.46246 12.9531C6.46246 12.9414 6.46246 12.9336 6.46246 12.9219C6.46246 12.9219 6.59527 12.8867 6.77886 12.8828C6.87261 12.8789 6.96246 12.8867 7.05621 12.9023C7.24761 12.9453 7.41558 13.0508 7.53667 13.207C7.53667 13.207 7.38433 13.2539 7.17339 13.2539V13.25ZM8.0523 12.9336C8.03667 12.9336 8.01714 12.9297 8.00152 12.9258C7.98589 12.918 7.97027 12.9102 7.95855 12.8945C7.93902 12.8711 7.92339 12.8398 7.91949 12.8047C7.90386 12.7461 7.90777 12.6875 7.90777 12.6797C7.91949 12.6719 7.93511 12.668 7.95074 12.668H7.95464C8.02886 12.668 8.09136 12.7344 8.1148 12.7969C8.13042 12.8359 8.13042 12.8672 8.12261 12.8906C8.11089 12.9141 8.08746 12.9297 8.0523 12.9297V12.9336ZM7.39214 12.8398C7.26714 12.8047 7.14605 12.75 7.03277 12.6836C6.86871 12.582 6.66167 12.4023 6.63824 12.1211L6.6773 12.1172H6.68902C6.73589 12.1172 6.83746 12.1289 6.96246 12.2227C7.11871 12.3398 7.26324 12.5508 7.39214 12.8398ZM7.82574 12.8242C7.72027 12.7773 7.62652 12.7148 7.54058 12.6406C7.31792 12.4531 7.14996 12.2109 7.04058 11.9453C7.04058 11.9453 7.07574 11.9258 7.12652 11.9219C7.13042 11.9219 7.13042 11.9219 7.13433 11.9219H7.14996C7.22417 11.9219 7.33355 11.9531 7.45464 12.0859C7.59527 12.2344 7.72027 12.4844 7.82964 12.8242H7.82574ZM6.70464 12.793C6.55621 12.793 6.50933 12.7148 6.49371 12.6797C6.47808 12.6445 6.47417 12.6055 6.47808 12.5664C6.50152 12.5625 6.52886 12.5586 6.5523 12.5586C6.59917 12.5586 6.64605 12.5664 6.68902 12.5859C6.73199 12.6055 6.76714 12.6367 6.79839 12.6719C6.8023 12.6875 6.82574 12.7227 6.80621 12.7578C6.79449 12.7812 6.75933 12.7969 6.70464 12.7969V12.793ZM6.38433 12.3867C6.27105 12.3867 6.15777 12.3789 6.04839 12.3594C5.91949 12.3359 5.84917 12.2305 5.80621 12.1406C5.76714 12.0469 5.75542 11.9531 5.75542 11.9531C6.14996 11.9609 6.34136 12.0781 6.4273 12.1758C6.48199 12.2305 6.51714 12.3047 6.52496 12.3828C6.52496 12.3828 6.46636 12.3906 6.38433 12.3906V12.3867ZM6.79839 11.9727C6.76324 11.9336 6.73589 11.8906 6.70464 11.8477C6.65777 11.7695 6.6148 11.6953 6.6148 11.6367C6.6148 11.5742 6.60308 11.4492 6.59527 11.375L6.57183 11.2031C6.58355 11.2031 6.81792 11.2969 6.81792 11.5195C6.81792 11.7461 6.79839 11.9688 6.79839 11.9688V11.9727ZM6.4898 11.9531H6.48199C6.22417 11.875 5.9898 11.7344 5.79839 11.5469C5.73589 11.4727 5.69292 11.3516 5.68121 11.1953C5.67339 11.082 5.68121 10.9883 5.68121 10.9766C5.69683 10.9727 5.70855 10.9727 5.72417 10.9727C5.77496 10.9727 5.83746 10.9961 5.91167 11.0469C5.98199 11.0977 6.04449 11.1523 6.10699 11.2109C6.22808 11.332 6.32183 11.4531 6.32183 11.4531C6.32964 11.4688 6.39605 11.5898 6.45074 11.7109C6.47808 11.7656 6.49761 11.8242 6.51324 11.8828C6.51714 11.9062 6.51714 11.9219 6.51324 11.9375C6.50933 11.9414 6.50542 11.9492 6.50152 11.9531C6.49371 11.9531 6.4898 11.9531 6.48589 11.9531H6.4898Z" fill="#435125"/>
<path d="M10.7227 14.9492C10.7227 14.9453 10.7266 14.9414 10.7305 14.9414H10.7344L10.7812 14.8867L10.9219 14.7188L11.1094 14.4844L11.1289 14.4492L11.3633 14.3789L11.5352 14.2969L11.4453 14.1992L11.1289 14.3281L10.8984 14.3789L10.4648 14.6953L10.5898 14.8047C10.6328 14.8477 10.6758 14.8906 10.7148 14.9375L10.6875 14.918L10.6562 14.9414L10.7188 14.9492H10.7227ZM12.3203 14.4688C12.5312 14.4648 12.7383 14.4062 12.918 14.2969C12.918 14.2969 12.8906 14.25 12.832 14.207C12.7734 14.1641 12.668 14.1133 12.4961 14.1094C12.293 14.1094 12.0469 14.1836 11.7656 14.3125C11.9336 14.4141 12.125 14.4648 12.3203 14.4648V14.4688ZM13.1992 14.2734C13.2383 14.2734 13.2734 14.2578 13.2969 14.2344C13.3203 14.2109 13.332 14.1797 13.3398 14.1445C13.3477 14.1016 13.3516 14.0586 13.3516 14.0156C13.3359 14.0117 13.3164 14.0078 13.3008 14.0117C13.2266 14.0117 13.168 14.0742 13.1406 14.1367C13.125 14.1758 13.1211 14.2031 13.1328 14.2305C13.1406 14.2539 13.1719 14.2695 13.1992 14.2695V14.2734ZM11.6523 14.0938C12.1719 14.0156 12.3945 13.8281 12.4883 13.6836C12.5859 13.5312 12.5625 13.3828 12.5625 13.3828C12.5625 13.3828 12.5312 13.375 12.4883 13.375C12.3438 13.375 11.9922 13.4492 11.6523 14.0898V14.0938ZM12.7188 13.9883C12.9414 13.9883 13.1094 13.9492 13.2227 13.875C13.2695 13.8438 13.3086 13.8008 13.3359 13.75C13.3438 13.7305 13.3477 13.7109 13.3516 13.6914C13.2656 13.6562 13.1719 13.6367 13.0781 13.6406C12.9453 13.6445 12.8164 13.6758 12.6914 13.7305C12.5703 13.7852 12.4609 13.8672 12.3711 13.9648C12.5 13.9805 12.6133 13.9883 12.7188 13.9883ZM13.7969 13.9492C14.0273 13.9492 14.3516 13.875 14.5547 13.6758C14.5547 13.6758 14.332 13.6211 14.0898 13.6133H14.043C13.8242 13.6133 13.6523 13.6523 13.543 13.7383C13.5039 13.7695 13.4805 13.7969 13.4766 13.8242C13.4727 13.8438 13.4844 13.8672 13.5078 13.8867C13.5586 13.9219 13.6484 13.9453 13.7773 13.9453H13.7969V13.9492ZM14.5586 13.5547C14.5703 13.5547 14.5859 13.5508 14.5977 13.5469C14.6133 13.5391 14.625 13.5312 14.6328 13.5195C14.6484 13.4961 14.6602 13.4727 14.6641 13.4453C14.6719 13.3906 14.6719 13.3398 14.6719 13.3359C14.6562 13.3281 14.6445 13.3281 14.6328 13.3281C14.5977 13.3281 14.5742 13.3477 14.5586 13.3633C14.5352 13.3867 14.5156 13.4102 14.5039 13.4414C14.4961 13.4727 14.4922 13.5 14.5039 13.5234C14.5039 13.5391 14.5273 13.5586 14.5547 13.5586L14.5586 13.5547ZM12.7969 13.5195C12.8359 13.5195 12.875 13.5039 12.8945 13.4805C12.918 13.457 12.9336 13.4258 12.9375 13.3906C12.9492 13.3477 12.9531 13.3047 12.9492 13.2656C12.9336 13.2578 12.918 13.2539 12.8984 13.2578C12.8242 13.2578 12.7617 13.3203 12.7383 13.3828C12.7227 13.4219 12.7188 13.4531 12.7266 13.4766C12.7383 13.5 12.7656 13.5156 12.8008 13.5156L12.7969 13.5195ZM13.6523 13.4805C14.125 13.4648 14.375 13.332 14.4922 13.2188C14.5469 13.1719 14.5898 13.1172 14.6211 13.0586C14.6406 13.0195 14.6484 12.9883 14.6484 12.9844C14.6484 12.9766 14.6016 12.9688 14.5352 12.9688H14.5195C14.3633 12.9688 14.0352 13.0352 13.6562 13.4805H13.6523ZM13.1445 13.4375C13.4141 13.4062 13.6641 13.2852 13.8516 13.0859C13.9219 13.0117 13.9727 12.9219 14.0078 12.8242C14.0078 12.8242 13.9609 12.8125 13.8945 12.8086C13.8828 12.8086 13.8672 12.8086 13.8555 12.8086C13.668 12.8125 13.3203 12.8984 13.1445 13.4375ZM15.0938 13.25C15.2148 13.25 15.332 13.2383 15.4492 13.2109C15.6484 13.1602 15.7344 13.082 15.7734 13.0273C15.7891 13.0039 15.7969 12.9805 15.8008 12.9531C15.8047 12.9414 15.8047 12.9336 15.8008 12.9219C15.8008 12.9219 15.6719 12.8867 15.4883 12.8828C15.3945 12.8789 15.3008 12.8867 15.2109 12.9023C15.0195 12.9453 14.8477 13.0508 14.7305 13.207C14.7305 13.207 14.8789 13.2539 15.0938 13.2539V13.25ZM14.2109 12.9336C14.2305 12.9336 14.2461 12.9297 14.2617 12.9258C14.2812 12.918 14.293 12.9102 14.3047 12.8945C14.3281 12.8711 14.3398 12.8398 14.3477 12.8047C14.3633 12.7461 14.3594 12.6875 14.3594 12.6797C14.3438 12.6719 14.3281 12.668 14.3125 12.668H14.3086C14.2344 12.668 14.1758 12.7344 14.1484 12.7969C14.1328 12.8359 14.1328 12.8672 14.1406 12.8906C14.1523 12.9141 14.1797 12.9297 14.2109 12.9297V12.9336ZM14.8711 12.8398C15 12.8047 15.1211 12.75 15.2344 12.6836C15.3984 12.582 15.6055 12.4023 15.625 12.1211L15.5898 12.1172H15.5781C15.5273 12.1172 15.4258 12.1289 15.3047 12.2227C15.1445 12.3398 15.0039 12.5508 14.8711 12.8398ZM14.4414 12.8242C14.543 12.7773 14.6406 12.7148 14.7266 12.6406C14.9453 12.4531 15.1172 12.2109 15.2266 11.9453C15.2266 11.9453 15.1914 11.9258 15.1406 11.9219C15.1367 11.9219 15.1328 11.9219 15.1328 11.9219H15.1172C15.043 11.9219 14.9336 11.9531 14.8125 12.0859C14.6719 12.2344 14.5469 12.4844 14.4375 12.8242H14.4414ZM15.5625 12.793C15.707 12.793 15.7578 12.7148 15.7734 12.6797C15.7852 12.6445 15.793 12.6055 15.7891 12.5664C15.7617 12.5625 15.7383 12.5586 15.7109 12.5586C15.6641 12.5586 15.6211 12.5664 15.5781 12.5859C15.5352 12.6055 15.4961 12.6367 15.4688 12.6719C15.4609 12.6875 15.4375 12.7227 15.457 12.7578C15.4727 12.7812 15.5078 12.7969 15.5625 12.7969V12.793ZM15.8828 12.3867C15.9961 12.3867 16.1055 12.3789 16.2188 12.3594C16.3477 12.3359 16.418 12.2305 16.457 12.1406C16.4961 12.0469 16.5117 11.9531 16.5117 11.9531C16.1133 11.9609 15.9219 12.0781 15.8359 12.1758C15.7812 12.2305 15.7461 12.3047 15.7383 12.3828C15.7383 12.3828 15.7969 12.3906 15.8828 12.3906V12.3867ZM15.4688 11.9727C15.5 11.9336 15.5312 11.8906 15.5586 11.8477C15.6094 11.7695 15.6484 11.6953 15.6484 11.6367C15.6484 11.5742 15.6641 11.4492 15.6719 11.375L15.6953 11.2031C15.6836 11.2031 15.4453 11.2969 15.4453 11.5195C15.4453 11.7461 15.4688 11.9688 15.4688 11.9688V11.9727ZM15.7773 11.9531H15.7852C16.0391 11.875 16.2734 11.7344 16.4648 11.5469C16.5312 11.4727 16.5703 11.3516 16.582 11.1953C16.5898 11.082 16.582 10.9883 16.582 10.9766C16.5703 10.9727 16.5547 10.9727 16.543 10.9727C16.4883 10.9727 16.4297 10.9961 16.3555 11.0469C16.2852 11.0977 16.2188 11.1523 16.1602 11.2109C16.0391 11.332 15.9453 11.4531 15.9453 11.4531C15.9336 11.4688 15.8711 11.5898 15.8125 11.7109C15.7891 11.7656 15.7656 11.8242 15.7539 11.8828C15.75 11.9062 15.7461 11.9219 15.7539 11.9375C15.7539 11.9414 15.7578 11.9492 15.7656 11.9531C15.7695 11.9531 15.7734 11.9531 15.7812 11.9531H15.7773Z" fill="#435125"/>
<path d="M19.4619 2.86328L19.3955 2.89063L19.3643 2.90234L19.2822 2.89844L19.2002 2.9375L19.0596 3.03516L19.0557 3.03906L18.9971 3.05078L18.9502 3.03125L18.9229 3.04688L18.9111 3.10156L18.8877 3.14063L18.8525 3.16406L18.7393 3.17578L18.6455 3.23047L18.5166 3.19141L18.4619 3.21875L18.3369 3.32813L18.2744 3.35547H18.2549L18.1689 3.35156L18.1377 3.36328L18.083 3.41406L17.9854 3.42188L17.9541 3.44141L17.9033 3.53906L17.8525 3.60156L17.8213 3.60547L17.79 3.59375L17.7666 3.59766L17.7549 3.66016L17.7314 3.6875L17.665 3.70703L17.6104 3.75391L17.5635 3.77734H17.4854L17.4229 3.8125L17.3057 3.82031L17.2471 3.87891L17.2236 3.89063L17.1885 3.91016L17.1807 3.91797L17.1338 3.91016L17.083 3.92969L17.0596 3.89844L17.0205 3.91797L16.9775 3.92188L16.9189 3.89453L16.8682 3.875L16.833 3.88281L16.8252 3.9375V3.94531L16.7861 3.98828L16.7236 4.03125L16.7158 4.04297L16.6416 4.14062L16.4971 4.28906L16.376 4.35156L16.2549 4.38672L16.1689 4.45703L15.9424 4.57031L15.5791 4.75L15.5049 4.77344L15.3994 4.78906L15.2119 4.85938L15.0479 4.91016L15.0361 4.91406L15.0049 4.92188L14.7666 4.99609L14.6611 4.98047L14.5947 5.00781L14.4268 4.98828H14.3096L14.2354 5.00391L14.0986 5.07031L13.8604 5.18359L13.7861 5.25781L13.665 5.31641L13.5244 5.36328V5.30078L13.4736 5.31641L13.4385 5.32812L13.3252 5.34375H13.2627L13.2197 5.33203H13.2119L12.9814 5.41016L12.7158 5.4375L12.5869 5.48047H12.4893L12.4268 5.49609L12.3096 5.51172L12.2627 5.5L12.2549 5.49609L11.9033 5.51172L11.7432 5.49219L11.6689 5.51172L11.5361 5.46875L11.3486 5.44531L11.3018 5.43359L11.2041 5.40234L11.1611 5.42969L11.1221 5.43359L11.0479 5.40234H11.0166L10.9502 5.42578L10.915 5.41797L10.876 5.39062L10.7979 5.37891L10.7432 5.33594L10.4619 5.375L10.3877 5.35156L10.1299 5.27734H10.0908L10.04 5.3125L9.96582 5.34375L9.8916 5.35938L9.80176 5.36328L9.7002 5.33594L9.59473 5.28516L9.55176 5.27344L9.46192 5.28516H9.43457L9.27051 5.19922L9.05957 5.06641L8.91895 4.99609L8.86035 4.98828L8.85645 5.01562L8.87988 5.09766L8.8916 5.18359V5.25781L8.8877 5.30469L8.89942 5.34766L8.9541 5.40625L8.97363 5.46484L8.98926 5.62109V5.78125L8.96192 6.03906L8.9541 6.07422L8.92676 6.21094L8.89942 6.33203L8.79004 6.66016L8.7666 6.69922L8.68848 6.74609L8.52832 6.85938L8.40723 6.92578L8.37207 6.94141L8.27442 6.94922H8.21192L8.1377 6.90625L8.06348 6.89062L7.96582 6.81641L7.86035 6.79688L7.73926 6.72656L7.71191 6.69141L7.64551 6.68359L7.55566 6.65625L7.52441 6.64453L7.50098 6.64062L7.3877 6.63672L7.27832 6.58984L7.22363 6.57422H7.14941L7.07129 6.60938L7.02832 6.625L6.97754 6.60938H6.93848L6.89941 6.67188L6.8916 6.68359L6.86426 6.69922H6.79785L6.77051 6.70703L6.72754 6.72656L6.69238 6.74219L6.67285 6.75H6.66113L6.6416 6.75781H6.61816L6.5752 6.73438L6.55176 6.72266L6.5166 6.71484L6.49707 6.72656L6.49316 6.79688L6.47363 6.83984L6.41504 6.89062L6.35254 6.94531L6.31738 7.00391L6.2041 7.25781L6.13379 7.35938L6.11426 7.38281L6.04004 7.46094L5.97363 7.51172L5.8291 7.625L5.68848 7.67969L5.57129 7.70312H5.50879L5.39551 7.6875L5.29785 7.65625L5.18848 7.58984L5.07129 7.49219L4.89551 7.32422L4.87207 7.30859L4.86426 7.30469L4.81348 7.26562H4.77051L4.75488 7.29688L4.74316 7.33594L4.73535 7.36719L4.71973 7.55469V7.56641L4.73145 7.64453L4.86426 7.83203L4.90332 7.92969L4.91113 7.94141L4.93457 7.98828L4.95801 8.02344L5.00879 8.16016L4.97363 8.23438L4.98926 8.28906L4.9502 8.31641L4.94238 8.36328L5.05957 8.51172L5.08691 8.57812L5.05957 8.66797L5.0127 8.71875L5.00098 8.73047L5.00879 8.76562L5.05957 8.82031L5.15332 8.90234L5.2041 9.02344L5.23926 9.05859L5.28613 9.04688L5.30566 9.06641H5.34473L5.38379 9.10547L5.40332 9.11328L5.44238 9.13281L5.47363 9.16797L5.47754 9.28906L5.53223 9.42969V9.52344L5.57129 9.58203L5.5791 9.625L5.55957 9.75L5.60254 9.78906L5.64941 9.78125L5.67676 9.78516L5.72754 9.82422L5.78613 9.91406L5.84863 9.90625L5.88379 9.92188L6.05957 10.082L6.09863 10.1055L6.13379 10.1211L6.16895 10.1602L6.22363 10.1211H6.23145L6.29004 10.1133L6.31738 10.1328L6.36816 10.168H6.43066L6.58301 10.2109L6.6416 10.2266L6.77051 10.3047L6.8252 10.3398L6.85645 10.3633L6.89941 10.4023L6.98535 10.4414L7.05957 10.4531L7.09473 10.4609L7.12988 10.4727L7.28613 10.5391L7.37207 10.5547L7.4502 10.5859L7.50879 10.6055H7.55176L7.61426 10.5547H7.66895L7.71973 10.5625L7.7666 10.5547L7.84082 10.5117L7.85254 10.4883L7.90723 10.4648L8.08692 10.4453L8.1377 10.457L8.27442 10.4023L8.36426 10.4258L8.43848 10.3984L8.61426 10.4375L8.66113 10.4688L8.71192 10.5273H8.77442L8.75098 10.5664L8.8252 10.6484L8.89551 10.75L8.89942 10.7656L8.9502 10.9141L8.98535 10.9648L9.0127 11.0352V11.082L8.97363 11.1133L8.96582 11.1289V11.1367L8.97363 11.1562L8.98926 11.1484L9.0166 11.1328L9.05176 11.125L9.11426 11.1328L9.15332 11.1367L9.21973 11.1094L9.2627 11.0859L9.3291 11.1133H9.40723L9.43848 11.125L9.52832 11.168L9.5752 11.1719L9.59082 11.1602L9.60254 11.1367L9.59863 11.1094L9.55957 11.0664L9.48535 10.9766L9.4541 10.9297L9.43067 10.8672L9.42285 10.7852L9.41895 10.7305L9.42676 10.6523L9.44629 10.6289L9.46582 10.5508L9.5127 10.4961L9.62207 10.4219L9.74317 10.3164L9.83692 10.2539L9.93457 10.2109V10.1992L9.9502 10.2031L10.1963 10.1172L10.3096 10.0977L11.0596 10.1523L11.0869 10.1445L11.1104 10.0742L11.1221 10.0625L11.1338 10.0547L11.2158 10.0156L11.2549 10.0078L11.3604 10.0352L11.4033 10.0469L11.4775 10.0078H11.5244L11.626 9.95312H11.6885L11.7158 9.94531L11.8408 9.85547L11.9541 9.82031L11.9854 9.80469L11.9971 9.79688L12.1221 9.73438L12.1963 9.67578L12.2627 9.63672L12.3369 9.62109L12.5244 9.60938L12.5674 9.54297L12.6494 9.53125L12.7002 9.47656L12.7549 9.45312L12.7979 9.39453L12.833 9.34375L12.8799 9.32031L13.0322 9.30859L13.2119 9.32812L13.2393 9.31641L13.2744 9.16797L13.3213 9.14062L13.4346 8.97266V8.91406L13.4385 8.85938L13.4541 8.78516L13.4463 8.66016L13.458 8.52344L13.5322 8.35547L13.5947 8.28906L13.6963 8.21484L13.7471 8.19531L13.8252 8.18359H13.8291L13.8486 8.17578H14.1963L14.2822 8.17188L14.4932 8.20703H14.5088L14.5791 8.23438L14.665 8.29688L14.7666 8.39844L14.8252 8.42578L14.8447 8.43359L14.8877 8.42578L14.9541 8.39062L15.0088 8.35156L15.0752 8.3125V8.30469L15.1182 8.25L15.1338 8.22266L15.2666 8.17188L15.4229 8.16406L15.4424 8.15234H15.4502L15.4932 8.10156H15.5283L15.626 8.13672L15.6924 8.12109L15.7432 8.14062L15.7861 8.13672L15.8604 8.125L15.9463 8.1875L15.9932 8.19531L16.165 8.29297H16.1768L16.1846 8.29688L16.2041 8.28906L16.2354 8.28125H16.2393L16.2666 8.30859L16.29 8.3125L16.3213 8.27734L16.3057 8.24609L16.2432 8.23438L16.1885 8.14062L16.2432 8.08594L16.1611 7.98828L16.1455 7.96875V7.96484L16.1143 7.92188L15.9736 7.70312L15.7861 7.55078L15.7197 7.50391L15.5986 7.38281L15.5244 7.28906L15.5166 7.26953L15.5049 7.23828L15.4619 7.14844L15.3877 7.08984L15.3291 7.02344L15.2002 6.85156L15.1807 6.82422L15.1494 6.80469H15.0869L15.083 6.79688H15.0791L15.1104 6.76562L15.1455 6.75781L15.1572 6.72266L15.0947 6.53906V6.53125L15.0908 6.47656L15.1416 6.21094L15.1455 6.17578L15.2354 6L15.29 5.95312L15.3486 5.83984L15.4033 5.76562L15.4502 5.71484L15.458 5.71094L15.5439 5.66016L15.6924 5.63672L15.8135 5.67188H15.9541L16.0049 5.66406L16.0908 5.63672L16.1338 5.60938L16.1572 5.57812L16.2002 5.42969L16.2158 5.38281L16.2432 5.32812L16.4033 5.14453L16.5244 5.03125L16.7939 4.83594L16.9229 4.75781L16.9932 4.71875L17.5947 4.44922L17.8369 4.20703L17.9775 4.10938L18.1455 4.03906L18.2979 3.92578L18.3291 3.88672L18.3643 3.75391L18.4033 3.74609L18.4268 3.68359L18.4385 3.66406L18.5557 3.58203L18.5713 3.57422L19.0322 3.33984L19.0986 3.35156L19.1377 3.29688L19.2666 3.27344H19.2939L19.3291 3.25391L19.3564 3.20703V3.19531L19.3604 3.06641L19.3877 3.03516L19.4033 2.95313L19.4189 2.92969L19.4346 2.91016L19.4697 2.88281L19.4619 2.86719V2.86328Z" fill="#D47600"/>
</g>
</g>
<rect x="0.25" y="0.25" width="23.5" height="17.5" rx="1.75" stroke="#DDE0EA" stroke-width="0.5" style="fill-opacity:0"/>
<defs>
<clipPath id="clip0_1002_33">
<rect width="24" height="18" rx="2" fill="white"/>
</clipPath>
<clipPath id="clip1_1002_33">
<rect width="24" height="18" fill="white"/>
</clipPath>
</defs>
</svg>
