<svg width="24" height="18" viewBox="0 0 24 18" fill="none" xmlns="http://www.w3.org/2000/svg">
<g clip-path="url(#clip0_1224_131)">
<g clip-path="url(#clip1_1224_131)">
<path d="M0 0H24V18H0V0Z" fill="white"/>
<path d="M0 0H10.2V7.2H0V0Z" fill="#002D62"/>
<path d="M0 10.8H10.2V18L0 18V10.8Z" fill="#CE1126"/>
<path d="M13.79 10.79H23.99V17.99H13.79V10.79Z" fill="#002D62"/>
<path d="M13.79 0H23.99V7.2H13.79V0Z" fill="#CE1126"/>
<path d="M11.57 7.50C11.60 7.48 11.60 7.47 11.65 7.45C11.74 7.42 11.89 7.42 12.00 7.42C12.08 7.42 12.16 7.42 12.24 7.43C12.32 7.44 12.37 7.45 12.42 7.50C12.43 7.44 12.44 7.39 12.45 7.33C12.45 7.26 12.41 7.24 12.35 7.23C12.25 7.21 12.09 7.21 11.98 7.21C11.91 7.21 11.66 7.21 11.61 7.23C11.57 7.25 11.53 7.28 11.53 7.35C11.54 7.38 11.56 7.48 11.57 7.50Z" fill="#002D62"/>
<path d="M10.84 7.82C10.86 7.81 10.85 7.79 10.93 7.75C11.03 7.69 11.17 7.64 11.28 7.62C11.37 7.60 11.48 7.60 11.58 7.61C11.62 7.61 11.68 7.62 11.73 7.61C11.73 7.61 11.78 7.60 11.79 7.59C11.81 7.57 11.80 7.54 11.80 7.54C11.77 7.51 11.68 7.60 11.59 7.57C11.57 7.56 11.56 7.52 11.55 7.49L11.52 7.38C11.37 7.36 11.10 7.43 10.95 7.49C10.89 7.52 10.78 7.57 10.74 7.62C10.71 7.65 10.74 7.71 10.76 7.73C10.79 7.76 10.83 7.80 10.84 7.82ZM12.18 7.54C12.17 7.59 12.21 7.61 12.26 7.62C12.36 7.63 12.51 7.58 12.71 7.62C12.79 7.64 12.88 7.67 12.95 7.70C12.98 7.71 13.09 7.76 13.11 7.78L13.14 7.82C13.16 7.82 13.21 7.75 13.22 7.73C13.24 7.71 13.28 7.65 13.24 7.62C13.21 7.58 13.09 7.52 13.03 7.49C12.95 7.46 12.83 7.43 12.74 7.41C12.64 7.40 12.45 7.38 12.45 7.38C12.45 7.38 12.44 7.56 12.39 7.57C12.30 7.60 12.25 7.52 12.18 7.54Z" fill="#002D62"/>
<path d="M12.93 7.75C12.93 7.78 12.91 7.78 12.97 7.83C13.08 7.92 13.28 7.93 13.40 7.98C13.47 8.01 13.50 8.03 13.56 8.07C13.55 8.05 13.48 7.95 13.46 7.92C13.52 7.92 13.59 7.92 13.65 7.93C13.64 7.92 13.64 7.92 13.64 7.92C13.56 7.85 13.34 7.78 13.24 7.74C13.21 7.78 13.18 7.81 13.14 7.85C13.13 7.86 13.12 7.87 13.10 7.86C13.06 7.85 13.04 7.83 13.02 7.81C13.00 7.79 12.96 7.76 12.93 7.75ZM12.18 7.52C12.25 7.52 12.25 7.53 12.30 7.55C12.31 7.56 12.34 7.57 12.36 7.56C12.39 7.56 12.40 7.56 12.41 7.53C12.42 7.49 12.36 7.47 12.33 7.46L12.20 7.45L12.18 7.52ZM11.80 7.52L11.79 7.45C11.75 7.44 11.57 7.47 11.58 7.53C11.59 7.56 11.59 7.56 11.62 7.56C11.70 7.57 11.72 7.52 11.80 7.52ZM10.86 7.83C10.89 7.88 10.96 7.80 11.00 7.77C11.02 7.75 11.02 7.75 11.05 7.74L11.04 7.72C11.02 7.72 10.96 7.75 10.94 7.76C10.90 7.78 10.87 7.80 10.86 7.83Z" fill="#002D62"/>
<path d="M12.94 7.74C12.95 7.74 12.96 7.74 12.96 7.75C13.03 7.78 13.1 7.88 13.13 7.84C13.14 7.82 13.08 7.77 13.06 7.76L12.95 7.71C12.95 7.72 12.94 7.73 12.94 7.74ZM11.05 7.76C11.06 7.78 11.07 7.79 11.02 7.83C10.90 7.93 10.71 7.93 10.58 7.98C10.52 8.01 10.49 8.03 10.43 8.07C10.44 8.05 10.51 7.95 10.52 7.92C10.47 7.92 10.40 7.92 10.34 7.93C10.34 7.93 10.34 7.92 10.35 7.92C10.43 7.85 10.64 7.78 10.75 7.75C10.76 7.76 10.77 7.77 10.78 7.78C10.79 7.80 10.83 7.84 10.84 7.85C10.85 7.86 10.86 7.87 10.89 7.87C10.92 7.86 10.95 7.83 10.97 7.81C10.99 7.79 11.03 7.76 11.05 7.76Z" fill="#002D62"/>
<path d="M12.96 8.09C12.96 8.10 12.96 8.10 12.96 8.10C13.02 8.22 13.00 8.17 13.05 8.33C13.04 8.32 13.03 8.30 13.02 8.29C12.99 8.25 12.97 8.21 12.94 8.17C12.94 8.16 12.94 8.16 12.93 8.15C12.92 8.16 12.94 8.23 12.95 8.25C12.97 8.32 13.03 8.41 13.07 8.48C13.06 8.48 13.05 8.47 13.04 8.46C13.00 8.43 13.01 8.43 12.99 8.39C12.97 8.36 12.95 8.32 12.94 8.28C12.93 8.25 12.92 8.22 12.91 8.19C12.90 8.20 12.91 8.19 12.90 8.20C12.90 8.21 12.90 8.22 12.91 8.23C12.91 8.28 12.92 8.32 12.93 8.37C12.90 8.36 12.90 8.35 12.88 8.33C12.87 8.33 12.86 8.31 12.86 8.31L12.83 8.28C12.83 8.29 12.87 8.37 12.88 8.38C12.89 8.40 12.94 8.44 12.95 8.45C12.97 8.51 13.00 8.55 13.03 8.59L13.06 8.63L13.00 8.56C12.94 8.52 12.93 8.50 12.87 8.45C12.87 8.47 12.89 8.48 12.90 8.49L12.99 8.59C13.02 8.62 13.05 8.66 13.07 8.69L13.13 8.79C13.12 8.77 13.11 8.76 13.10 8.74L13.01 8.64C12.98 8.60 12.95 8.58 12.91 8.55C12.88 8.52 12.84 8.49 12.84 8.49C12.84 8.51 12.91 8.60 12.96 8.62C12.98 8.64 12.99 8.65 13.01 8.67C13.02 8.69 13.03 8.70 13.05 8.72C13.07 8.75 13.10 8.79 13.12 8.83L13.15 8.89C13.13 8.88 13.01 8.74 12.98 8.71C12.95 8.69 12.94 8.67 12.91 8.66C12.91 8.67 13.00 8.77 13.02 8.79C13.03 8.80 13.03 8.80 13.03 8.81L13.07 8.85C13.09 8.88 13.14 8.93 13.15 8.97L13.18 9.02C13.18 9.01 13.13 8.95 13.12 8.94C13.11 8.93 13.10 8.91 13.09 8.90C13.06 8.87 13.02 8.82 12.98 8.80L12.90 8.75C12.90 8.76 12.91 8.77 12.92 8.78L12.96 8.81C13.00 8.84 13.05 8.90 13.08 8.94C13.10 8.96 13.11 8.98 13.13 9.01C13.12 9.00 13.11 8.99 13.10 8.98C13.09 8.97 13.08 8.97 13.07 8.96C13.06 8.94 13.04 8.93 13.02 8.91L12.88 8.85C12.88 8.86 12.93 8.89 12.94 8.89C12.97 8.91 13.01 8.94 13.03 8.96C13.05 8.97 13.05 8.98 13.06 8.99C13.08 9.01 13.09 9.03 13.11 9.05C13.12 9.07 13.14 9.09 13.15 9.11C13.17 9.14 13.18 9.16 13.19 9.18L13.24 9.36C13.22 9.30 13.20 9.24 13.18 9.18C13.16 9.14 13.12 9.04 13.07 9.06C13.05 9.06 13.04 9.09 13.03 9.10C13.02 9.12 13.00 9.09 12.96 9.18C12.94 9.23 12.92 9.28 12.91 9.34C12.91 9.35 12.91 9.36 12.91 9.36C12.92 9.36 12.93 9.33 12.93 9.32C12.95 9.27 12.97 9.24 13.00 9.18L12.97 9.37C12.98 9.36 12.98 9.34 12.99 9.33C13.01 9.28 13.02 9.24 13.04 9.19C13.10 9.24 13.12 9.46 13.13 9.54C13.12 9.51 13.10 9.45 13.09 9.43L13.03 9.33C12.99 9.33 12.99 9.37 12.98 9.40C12.97 9.39 12.96 9.36 12.93 9.37C12.91 9.37 12.90 9.39 12.90 9.42C12.90 9.45 12.90 9.47 12.90 9.50C12.90 9.51 12.91 9.56 12.91 9.56L12.92 9.57L12.93 9.41C12.95 9.42 13.00 9.52 12.99 9.57C12.97 9.72 12.95 9.76 12.87 9.89C12.86 9.91 12.85 9.93 12.83 9.95C12.82 9.96 12.81 9.97 12.80 9.98L12.78 10.01C12.82 9.94 12.84 9.91 12.86 9.83C12.88 9.77 12.90 9.70 12.91 9.64C12.91 9.63 12.91 9.62 12.91 9.61C12.90 9.61 12.90 9.62 12.89 9.63C12.82 9.85 12.82 9.85 12.70 10.05L12.72 9.92C12.71 9.92 12.71 9.93 12.71 9.94C12.71 9.95 12.70 9.96 12.70 9.96C12.69 10.01 12.67 10.06 12.64 10.10C12.65 10.09 12.65 10.07 12.66 10.06C12.67 10.02 12.68 9.97 12.68 9.93V9.91C12.67 9.91 12.67 9.93 12.67 9.95C12.65 9.99 12.63 10.03 12.61 10.07V10.06C12.61 10.03 12.62 9.99 12.62 9.96C12.62 9.96 12.62 9.97 12.61 9.95C12.60 9.96 12.60 9.98 12.60 9.99C12.60 10.00 12.59 10.01 12.59 10.02C12.56 10.10 12.53 10.14 12.49 10.21C12.47 10.21 12.49 10.21 12.50 10.21C12.49 10.21 12.49 10.21 12.49 10.21C12.51 10.21 12.50 10.21 12.50 10.21C12.53 10.22 12.71 10.26 12.71 10.26C12.81 10.25 12.88 10.24 12.98 10.25C13.00 10.25 13.06 10.26 13.07 10.26C13.04 10.24 13.01 10.23 12.98 10.22L12.88 10.20L13.16 10.19L13.14 10.18C13.09 10.16 12.97 10.15 12.92 10.15C13.01 10.14 13.08 10.13 13.17 10.13C13.20 10.12 13.28 10.15 13.24 10.11C13.21 10.09 13.10 10.08 13.07 10.09L13.23 10.08C13.26 10.08 13.43 10.11 13.37 10.08C13.32 10.05 13.22 10.03 13.17 10.02C13.20 10.00 13.23 9.99 13.26 9.97C13.32 9.95 13.39 9.93 13.46 9.91C13.53 9.90 13.59 9.86 13.49 9.88C13.43 9.88 13.36 9.90 13.30 9.91L13.35 9.88C13.40 9.86 13.45 9.85 13.50 9.83C13.51 9.83 13.51 9.83 13.51 9.82L13.50 9.82C13.49 9.82 13.48 9.82 13.48 9.82C13.51 9.80 13.59 9.78 13.62 9.78C13.66 9.77 13.70 9.76 13.74 9.75C13.75 9.75 13.76 9.75 13.77 9.74L13.76 9.73C13.75 9.73 13.55 9.76 13.53 9.76C13.51 9.77 13.47 9.78 13.45 9.78C13.51 9.75 13.57 9.72 13.64 9.70C13.65 9.70 13.70 9.69 13.71 9.68C13.69 9.67 13.68 9.68 13.66 9.68C13.60 9.69 13.54 9.71 13.49 9.72C13.47 9.73 13.44 9.74 13.42 9.75C13.63 9.66 13.55 9.69 13.75 9.65C13.77 9.65 13.78 9.65 13.79 9.63L13.68 9.63C13.64 9.63 13.60 9.63 13.57 9.64L13.66 9.57C13.68 9.55 13.67 9.54 13.71 9.54C13.72 9.54 13.77 9.54 13.78 9.54C13.76 9.51 13.75 9.52 13.72 9.51L13.75 9.47C13.76 9.45 13.77 9.45 13.78 9.43C13.78 9.43 13.78 9.43 13.78 9.42L13.76 9.43L13.68 9.50C13.66 9.51 13.66 9.51 13.64 9.51C13.60 9.51 13.57 9.53 13.54 9.53C13.58 9.50 13.60 9.48 13.65 9.45C13.67 9.44 13.69 9.43 13.71 9.42C13.73 9.41 13.77 9.39 13.78 9.39L13.64 9.42C13.61 9.43 13.54 9.46 13.53 9.48C13.59 9.41 13.68 9.33 13.75 9.28C13.75 9.27 13.78 9.26 13.78 9.25C13.77 9.25 13.77 9.25 13.77 9.25C13.73 9.26 13.65 9.31 13.62 9.33C13.57 9.36 13.52 9.40 13.48 9.43C13.50 9.41 13.53 9.38 13.56 9.36C13.56 9.35 13.57 9.34 13.58 9.34C13.58 9.33 13.59 9.33 13.60 9.32C13.61 9.31 13.63 9.30 13.64 9.29C13.67 9.26 13.70 9.24 13.72 9.21L13.76 9.18C13.77 9.17 13.80 9.15 13.80 9.13C13.74 9.17 13.69 9.20 13.63 9.24C13.61 9.26 13.58 9.28 13.56 9.30C13.54 9.31 13.50 9.35 13.48 9.35C13.51 9.30 13.54 9.24 13.59 9.20C13.64 9.14 13.70 9.08 13.76 9.03C13.78 9.02 13.79 9.00 13.81 9.00V9.00C13.79 9.00 13.75 9.03 13.74 9.04C13.68 9.09 13.61 9.14 13.56 9.19C13.55 9.20 13.54 9.21 13.54 9.22C13.51 9.25 13.48 9.28 13.46 9.31C13.43 9.35 13.40 9.40 13.37 9.44C13.39 9.36 13.45 9.30 13.49 9.25L13.60 9.14C13.60 9.13 13.61 9.12 13.61 9.12C13.68 9.04 13.71 8.98 13.73 8.90C13.72 8.91 13.70 8.93 13.67 8.97C13.66 8.97 13.66 8.98 13.65 8.99L13.45 9.23C13.45 9.20 13.49 9.12 13.51 9.10C13.54 9.06 13.57 9.02 13.60 8.98C13.62 8.95 13.70 8.84 13.73 8.82L13.74 8.81C13.74 8.79 13.75 8.79 13.77 8.77C13.78 8.76 13.79 8.75 13.81 8.74C13.79 8.72 13.72 8.76 13.70 8.77C13.61 8.83 13.55 8.92 13.48 9.00C13.49 8.96 13.55 8.82 13.57 8.79C13.59 8.76 13.61 8.72 13.63 8.70L13.69 8.60C13.68 8.60 13.66 8.62 13.65 8.63L13.63 8.65C13.56 8.73 13.51 8.83 13.45 8.93C13.46 8.88 13.51 8.79 13.53 8.75C13.56 8.70 13.60 8.65 13.63 8.60C13.61 8.59 13.56 8.66 13.55 8.67C13.52 8.70 13.50 8.73 13.48 8.77C13.44 8.83 13.40 8.90 13.38 8.97L13.37 8.99C13.38 8.92 13.45 8.76 13.48 8.71C13.49 8.68 13.51 8.65 13.53 8.62C13.54 8.61 13.55 8.61 13.55 8.60C13.57 8.58 13.58 8.56 13.60 8.54L13.64 8.49C13.61 8.48 13.52 8.59 13.50 8.61C13.48 8.64 13.45 8.67 13.44 8.70C13.45 8.65 13.48 8.58 13.51 8.53C13.54 8.49 13.57 8.46 13.60 8.43C13.60 8.42 13.61 8.41 13.62 8.39C13.59 8.39 13.47 8.53 13.45 8.56C13.43 8.58 13.43 8.59 13.42 8.60L13.38 8.67C13.37 8.67 13.37 8.67 13.37 8.68L13.36 8.69C13.37 8.64 13.40 8.54 13.41 8.49C13.43 8.43 13.46 8.38 13.49 8.32C13.47 8.32 13.43 8.37 13.42 8.39L13.37 8.48C13.38 8.44 13.44 8.29 13.46 8.24C13.45 8.24 13.44 8.26 13.43 8.28C13.40 8.32 13.37 8.37 13.35 8.42C13.35 8.37 13.38 8.32 13.40 8.28C13.36 8.30 13.30 8.43 13.28 8.48C13.28 8.50 13.27 8.52 13.26 8.54L13.25 8.56C13.25 8.45 13.27 8.34 13.29 8.24C13.28 8.24 13.28 8.25 13.27 8.26L13.26 8.29C13.26 8.31 13.25 8.33 13.24 8.35L13.21 8.48C13.17 8.41 13.15 8.30 13.06 8.16C13.01 8.13 13.00 8.12 12.96 8.09ZM13.01 9.36C13.04 9.47 13.06 9.50 13.09 9.61C13.08 9.61 13.08 9.62 13.07 9.62C13.07 9.63 13.06 9.65 13.06 9.67L13.03 9.57C13.02 9.54 13.03 9.47 13.03 9.45C13.01 9.47 13.02 9.48 13.02 9.51C13.01 9.50 13.00 9.48 13.00 9.47C12.98 9.41 12.97 9.43 12.99 9.39C12.99 9.39 13.00 9.37 13.01 9.36Z" fill="#006300"/>
<path d="M11.18 10.19C11.15 10.08 11.15 10.05 11.15 10.05L11.18 10.19ZM10.91 9.99C10.91 9.99 10.89 9.94 10.92 9.92C10.94 9.90 11.02 9.95 11.06 9.77C11.06 9.77 11.03 9.77 10.98 9.79V9.78C10.98 9.78 10.96 9.74 10.97 9.69C10.97 9.69 11.00 9.65 11.00 9.63C11.00 9.63 10.95 9.62 10.85 9.74C10.85 9.74 10.84 9.72 10.77 9.67C10.77 9.67 10.73 9.78 10.75 9.84C10.76 9.89 10.76 9.91 10.82 9.94C10.82 9.94 10.86 9.96 10.86 10.02C10.88 10.02 10.91 10.01 10.91 10.01C10.91 10.01 10.91 10.01 10.91 9.99ZM10.84 10.12C10.82 10.13 10.81 10.14 10.79 10.14C10.66 10.15 10.59 9.99 10.59 9.99C10.59 9.96 10.60 9.97 10.62 9.98C10.66 9.99 10.67 9.99 10.71 9.98C10.76 9.97 10.82 10.02 10.82 10.02C10.85 10.05 10.85 10.11 10.85 10.11C10.85 10.12 10.84 10.12 10.84 10.12ZM10.69 9.81C10.56 9.76 10.48 9.82 10.48 9.82C10.47 9.83 10.49 9.83 10.49 9.83C10.57 9.84 10.54 9.84 10.58 9.89C10.64 9.97 10.74 9.95 10.74 9.95C10.76 9.96 10.78 9.98 10.78 9.98C10.77 9.91 10.69 9.81 10.69 9.81ZM10.46 9.29C10.43 9.27 10.44 9.31 10.44 9.31C10.38 9.21 10.24 9.21 10.24 9.21C10.23 9.21 10.22 9.20 10.22 9.20C10.20 9.20 10.23 9.24 10.23 9.24C10.27 9.36 10.31 9.37 10.31 9.37C10.26 9.40 10.18 9.34 10.20 9.39C10.28 9.47 10.33 9.48 10.33 9.48C10.42 9.50 10.47 9.48 10.47 9.48C10.49 9.52 10.50 9.52 10.50 9.52C10.59 9.55 10.61 9.60 10.61 9.60C10.61 9.51 10.58 9.39 10.58 9.39C10.55 9.34 10.46 9.29 10.46 9.29Z" fill="#006300"/>
<path d="M11.40 10.01C11.38 10.01 11.33 10.09 11.33 10.09C11.27 9.98 11.20 9.96 11.20 9.96C11.18 9.96 11.20 9.99 11.20 9.99C11.22 10.05 11.20 10.10 11.20 10.10C11.19 10.14 11.20 10.15 11.20 10.15C11.10 10.10 11.10 10.11 11.10 10.11C11.10 10.17 11.17 10.28 11.17 10.28C11.32 10.24 11.33 10.24 11.33 10.24C11.39 10.23 11.39 10.23 11.39 10.23C11.44 10.10 11.40 10.01 11.40 10.01ZM10.64 9.40C10.70 9.43 10.71 9.47 10.71 9.47C10.72 9.52 10.86 9.53 10.86 9.53C10.97 9.52 10.96 9.50 10.96 9.50C10.90 9.44 10.91 9.44 10.89 9.42C10.84 9.37 10.77 9.36 10.77 9.36C10.69 9.38 10.67 9.36 10.67 9.36C10.64 9.38 10.64 9.40 10.64 9.40ZM10.51 9.20C10.48 9.10 10.57 8.97 10.57 8.97C10.65 9.12 10.64 9.15 10.64 9.15C10.61 9.25 10.57 9.32 10.57 9.32C10.56 9.25 10.52 9.24 10.51 9.20Z" fill="#006300"/>
<path d="M10.38 9.10C10.32 9.11 10.27 9.05 10.27 9.05C10.18 8.94 10.21 8.90 10.21 8.90C10.22 8.90 10.23 8.91 10.23 8.91C10.26 8.94 10.30 8.94 10.30 8.94C10.17 8.86 10.26 8.67 10.26 8.67C10.28 8.66 10.28 8.70 10.28 8.70C10.30 8.75 10.35 8.78 10.35 8.78C10.38 8.82 10.38 8.83 10.38 8.83C10.39 8.77 10.41 8.79 10.41 8.79C10.43 8.84 10.48 8.87 10.49 8.91C10.50 9.00 10.49 9.01 10.49 9.01C10.48 9.07 10.48 9.11 10.48 9.11C10.43 9.09 10.38 9.10 10.38 9.10ZM10.70 9.32C10.73 9.28 10.70 9.20 10.70 9.20C10.69 9.11 10.82 9.03 10.82 9.03C10.85 9.10 10.85 9.14 10.85 9.14C10.95 9.12 10.97 9.11 10.97 9.11C10.97 9.17 10.92 9.25 10.92 9.25C11.00 9.27 11.03 9.23 11.03 9.23C10.99 9.41 10.82 9.38 10.82 9.38C10.75 9.33 10.70 9.32 10.70 9.32Z" fill="#006300"/>
<path d="M10.43 8.60C10.45 8.48 10.47 8.47 10.47 8.47C10.48 8.48 10.49 8.53 10.51 8.54C10.58 8.58 10.58 8.66 10.58 8.66C10.58 8.76 10.57 8.76 10.57 8.76C10.46 8.75 10.43 8.65 10.43 8.60ZM10.78 8.63C10.82 8.51 10.80 8.50 10.80 8.50C10.78 8.50 10.76 8.55 10.74 8.55C10.65 8.55 10.62 8.63 10.62 8.63C10.59 8.73 10.60 8.72 10.60 8.72C10.71 8.76 10.77 8.67 10.78 8.63ZM10.93 8.97C11.03 8.89 11.02 8.87 11.02 8.87C11.01 8.86 10.96 8.89 10.94 8.88C10.87 8.83 10.80 8.88 10.80 8.88C10.72 8.94 10.73 8.94 10.73 8.94C10.79 9.03 10.89 9.00 10.93 8.97Z" fill="#006300"/>
<path d="M10.93 9.04C11.02 8.99 11.02 8.97 11.02 8.97C11.01 8.97 10.97 8.98 10.95 8.97C10.90 8.92 10.84 8.94 10.84 8.94C10.76 8.97 10.77 8.98 10.77 8.98C10.80 9.06 10.89 9.05 10.93 9.04ZM10.60 8.46C10.56 8.34 10.67 8.20 10.67 8.20C10.69 8.24 10.70 8.28 10.71 8.32C10.80 8.23 10.88 8.22 10.88 8.22L10.88 8.29C10.94 8.28 10.97 8.27 10.97 8.27C10.95 8.36 10.84 8.45 10.84 8.45C10.80 8.48 10.74 8.47 10.74 8.47C10.66 8.49 10.64 8.55 10.64 8.55C10.63 8.50 10.63 8.55 10.60 8.46ZM10.76 8.84C10.82 8.77 10.90 8.80 10.90 8.80C10.97 8.80 11.03 8.73 11.03 8.73C11.06 8.67 11.09 8.66 11.09 8.66C11.08 8.64 11.06 8.64 11.06 8.64C11.02 8.65 11.02 8.66 11.02 8.66C11.05 8.53 11.03 8.53 11.03 8.53C11.02 8.53 11.02 8.54 11.02 8.54C11.00 8.59 10.92 8.59 10.92 8.59C10.91 8.51 10.90 8.52 10.90 8.52C10.88 8.54 10.86 8.55 10.86 8.55C10.78 8.63 10.78 8.66 10.78 8.66C10.79 8.76 10.76 8.84 10.76 8.84Z" fill="#006300"/>
<path d="M10.98 10.70C11.00 10.65 11.02 10.64 11.06 10.62C11.20 10.56 11.27 10.53 11.42 10.49C11.51 10.47 11.60 10.46 11.69 10.44C11.74 10.43 11.75 10.43 11.83 10.43C11.95 10.42 12.03 10.42 12.15 10.43C12.20 10.43 12.25 10.44 12.29 10.44C12.38 10.46 12.48 10.47 12.56 10.49C12.70 10.53 12.80 10.56 12.92 10.62C12.98 10.65 12.97 10.65 13.00 10.70C13.05 10.67 13.08 10.61 13.10 10.57C13.11 10.55 13.13 10.53 13.13 10.50C13.15 10.46 13.12 10.45 13.10 10.43C13.03 10.37 12.91 10.32 12.79 10.29C12.32 10.16 11.66 10.15 11.19 10.29C11.07 10.32 10.96 10.37 10.88 10.43C10.87 10.44 10.86 10.44 10.85 10.46C10.82 10.49 10.87 10.55 10.88 10.57C10.89 10.60 10.91 10.63 10.92 10.64C10.95 10.67 10.97 10.69 10.98 10.70Z" fill="#CE1126"/>
<path d="M10.52 10.28C10.57 10.29 10.59 10.30 10.62 10.35C10.70 10.46 10.70 10.53 10.83 10.68C10.87 10.71 10.89 10.74 10.93 10.76C10.98 10.78 11.03 10.78 11.09 10.78C11.14 10.77 11.18 10.76 11.22 10.73C11.22 10.73 11.27 10.70 11.28 10.69C11.29 10.67 11.30 10.63 11.30 10.63C11.26 10.62 11.19 10.69 11.14 10.72C11.06 10.78 11.03 10.76 10.97 10.71C10.91 10.66 10.90 10.62 10.86 10.56C10.85 10.53 10.83 10.50 10.83 10.46L10.90 10.40C10.87 10.36 10.84 10.32 10.82 10.28C10.79 10.23 10.77 10.20 10.73 10.17C10.70 10.15 10.66 10.12 10.63 10.14C10.60 10.16 10.58 10.19 10.55 10.22C10.54 10.23 10.52 10.25 10.52 10.28Z" fill="#CE1126"/>
<path d="M10.42 10.07C10.41 10.07 10.36 10.03 10.34 10.02L10.25 9.99C10.26 10.01 10.27 10.02 10.30 10.05C10.36 10.13 10.36 10.19 10.41 10.29C10.43 10.32 10.46 10.36 10.48 10.39C10.50 10.42 10.56 10.47 10.57 10.48C10.60 10.51 10.64 10.52 10.66 10.49C10.67 10.47 10.62 10.45 10.60 10.43C10.57 10.42 10.54 10.40 10.52 10.38C10.46 10.32 10.51 10.25 10.55 10.20L10.58 10.16C10.59 10.14 10.54 10.07 10.51 10.03C10.49 10.00 10.42 9.92 10.39 9.89C10.39 9.92 10.40 9.96 10.41 9.98C10.41 10.01 10.42 10.06 10.42 10.07ZM11.29 10.61L11.27 10.56C11.23 10.56 11.08 10.63 11.04 10.65C11.03 10.66 10.99 10.70 11.01 10.72C11.07 10.78 11.16 10.69 11.22 10.64C11.23 10.63 11.26 10.61 11.29 10.61Z" fill="#CE1126"/>
<path d="M10.68 10.48C10.67 10.48 10.67 10.46 10.63 10.43C10.62 10.42 10.54 10.38 10.53 10.36C10.53 10.36 10.50 10.35 10.50 10.32C10.50 10.30 10.52 10.29 10.52 10.29C10.60 10.30 10.68 10.47 10.68 10.48ZM13.48 10.28C13.42 10.29 13.41 10.31 13.37 10.35C13.30 10.46 13.29 10.54 13.16 10.68C13.13 10.71 13.11 10.74 13.06 10.76C13.01 10.78 12.96 10.79 12.91 10.78C12.85 10.77 12.81 10.76 12.77 10.73C12.77 10.73 12.72 10.71 12.71 10.69C12.70 10.67 12.70 10.63 12.70 10.63C12.74 10.62 12.81 10.70 12.85 10.73C12.94 10.78 12.97 10.76 13.03 10.71C13.08 10.67 13.10 10.62 13.13 10.56C13.14 10.54 13.17 10.50 13.16 10.47L13.10 10.40C13.12 10.36 13.15 10.32 13.18 10.28C13.21 10.23 13.23 10.20 13.27 10.17C13.29 10.15 13.34 10.13 13.37 10.14C13.40 10.17 13.42 10.19 13.44 10.22C13.45 10.24 13.47 10.26 13.48 10.28Z" fill="#CE1126"/>
<path d="M13.57 10.08C13.58 10.07 13.63 10.04 13.65 10.03L13.74 10.00C13.73 10.01 13.72 10.02 13.69 10.06C13.63 10.14 13.63 10.20 13.58 10.30C13.56 10.33 13.53 10.37 13.51 10.40C13.49 10.42 13.43 10.48 13.42 10.49C13.39 10.52 13.34 10.52 13.33 10.50C13.32 10.48 13.37 10.45 13.39 10.44C13.42 10.42 13.45 10.41 13.47 10.39C13.53 10.33 13.48 10.25 13.44 10.20L13.41 10.17C13.42 10.12 13.45 10.07 13.48 10.04C13.50 10.01 13.57 9.93 13.60 9.90C13.60 9.92 13.59 9.96 13.58 9.99C13.58 10.02 13.57 10.05 13.57 10.08ZM12.70 10.62L12.72 10.56C12.76 10.56 12.91 10.63 12.95 10.66C12.96 10.67 13.01 10.70 12.98 10.72C12.92 10.79 12.83 10.69 12.77 10.65C12.76 10.63 12.73 10.61 12.70 10.62Z" fill="#CE1126"/>
<path d="M11.82 8.78V7.95H10.96L11.18 8.18L11.18 8.78H11.82Z" fill="#002D62"/>
<path d="M12.16 8.78V7.95H13.03L12.81 8.19V8.78H12.16ZM11.82 9.12H11.17L11.17 9.65C11.20 9.87 11.37 9.95 11.52 9.95C11.62 9.95 11.66 9.95 11.82 9.95V9.12Z" fill="#CE1126"/>
<path d="M12.16 9.12H12.81L12.81 9.65C12.79 9.87 12.61 9.95 12.46 9.95L12.16 9.95V9.12Z" fill="#002D62"/>
</g>
</g>
<rect x="0.25" y="0.25" width="23.5" height="17.5" rx="1.75" stroke="#DDE0EA" stroke-width="0.5" style="fill-opacity:0"/>
<defs>
<clipPath id="clip0_1224_131">
<rect width="24" height="18" rx="2" fill="white"/>
</clipPath>
<clipPath id="clip1_1224_131">
<rect width="24" height="18" fill="white"/>
</clipPath>
</defs>
</svg>
