<svg xmlns="http://www.w3.org/2000/svg" width="24" height="18" fill="none">
    <g clip-path="url(#a)">
        <path fill="#ED1C24" d="M24 0H.001v18h24V0Z" />
        <path fill="#034EA2" d="M24 0H0v13.5h24V0Z" />
        <path fill="#FD0" d="M24 0H0v9h24V0Z" />


        <path fill="#FFDF00" fill-rule="evenodd"
            d="M8.41 6.83s-.548 5.50 1.09 5.50c1.36 0 1.36-.868 1.64-.868l-.274-2.02-2.46-2.60h.002Z"
            clip-rule="evenodd" />
        <path fill="#0000C4" fill-rule="evenodd"
            d="M8.96 7.41c0 .29-.547 3.47.823 4.34.548.29 1.37-.289 1.37 0l-.275-2.31-1.91-2.02Z"
            clip-rule="evenodd" />
        <path fill="#E10000" fill-rule="evenodd"
            d="M9.50 7.99c0 .289-.274 2.60.549 3.18.547.57 1.91.421 1.91.421l-1.09-2.16-1.37-1.44Z"
            clip-rule="evenodd" />
        <path fill="#FFDF00" fill-rule="evenodd"
            d="M15.56 6.83s.547 5.50-1.09 5.50c-1.37 0-1.37-.868-1.64-.868l.274-2.02 2.46-2.60h-.001Z"
            clip-rule="evenodd" />
        <path fill="#0000C4" fill-rule="evenodd"
            d="M15.01 7.41c0 .29.54 3.47-.823 4.34-.547.29-1.36-.289-1.36 0l.274-2.31 1.91-2.02Z"
            clip-rule="evenodd" />
        <path fill="#E10000" fill-rule="evenodd"
            d="M14.47 7.99c0 .289.27 2.60-.549 3.18-.547.57-1.91.421-1.91.421L13.1 9.44l1.37-1.44Z"
            clip-rule="evenodd" />
        <path fill="#E10000" fill-rule="evenodd"
            d="M11.15 13.78a.79.79 0 0 0 .82 0v-2.31h-.547c.274.86.274 1.73-.275 2.31h.002Z"
            clip-rule="evenodd" />
        <path fill="#0000C4" fill-rule="evenodd"
            d="M11.23 11.48c-.008.95-.417 1.83-.34 2.03.088.17.34-.4.67-.074.16-.326.18-1.98.165-1.95h-.495v.002Z"
            clip-rule="evenodd" />
        <path fill="#FFDF00" fill-rule="evenodd"
            d="M10.94 11.49c-.008.63-.408 1.17-.33 1.30.088.11.33-.219.66 0 .165-.219.18-1.32.165-1.30h-.495Z"
            clip-rule="evenodd" />
        <path fill="#E10000" fill-rule="evenodd"
            d="M12.82 13.78a.79.79 0 0 1-.822 0v-2.31h.548c-.274.86-.274 1.73.275 2.31h-.001Z"
            clip-rule="evenodd" />
        <path fill="#0000C4" fill-rule="evenodd"
            d="M12.74 11.48c.009.95.418 1.83.34 2.03-.087.17-.34-.4-.67-.074-.164-.326-.18-1.98-.164-1.95h.494v.002Z"
            clip-rule="evenodd" />
        <path fill="#FFDF00" fill-rule="evenodd"
            d="M13.04 11.49c.008.63.408 1.17.33 1.30-.088.11-.33-.219-.66 0-.165-.219-.18-1.32-.165-1.30h.495Z"
            clip-rule="evenodd" />
        <path fill="#FFDF00" fill-rule="evenodd"
            d="M13.89 8.86c0 1.43-.86 2.60-1.91 2.60-1.05 0-1.91-1.16-1.91-2.60 0-1.43.858-2.60 1.91-2.60s1.91 1.16 1.91 2.60v.001Zm-.274 0c0 1.27-.736 2.31-1.64 2.31-.908 0-1.64-1.03-1.64-2.31 0-1.28.736-2.31 1.64-2.31.908 0 1.64 1.03 1.64 2.31Z"
            clip-rule="evenodd" />
        <path fill="#A7CFFF" fill-rule="evenodd"
            d="M13.62 8.86c0 1.28-.739 2.31-1.64 2.31-.91 0-1.64-1.03-1.64-2.31 0-1.28.738-2.31 1.64-2.31S13.62 7.58 13.62 8.86h.004Z"
            clip-rule="evenodd" />
        <path fill="#fff" fill-rule="evenodd"
            d="M13.62 8.86c-.123 0-.253.05-.386.05-.135 0-.271-.057-.41-.057-.14 0-.299.07-.441.07-.144 0-.27-.074-.413-.074-.144 0-.288.05-.43.05-.142 0-.283-.057-.42-.057-.139 0-.275.05-.406.05-.132 0-.26-.058-.382-.058 0-.319.04-.622.13-.9.41.033.17-.257.41-.257a.486.48 0 0 1 .392.16c.037 0 .222-.186.43-.16.20.026.13.446.40.468.13.11.22.181.41.227.27.026 1.05-.04 1.06-.003.02.154.03.31.03.467Z"
            clip-rule="evenodd" />
        <path fill="#000" fill-rule="evenodd"
            d="M11.98 6.79h.02l.036.19.101-.164.02.007-.037.19.153-.11.01.014-.105.16.184-.04.00.019-.157.11.184.03v.021l-.184.03.157.11-.008.02-.184-.041.10.163-.015.01-.153-.11.03.195-.019.00-.103-.165-.035.19h-.021l-.034-.193-.103.16-.02-.007.03-.195-.153.11-.015-.014.10-.163-.182.04-.008-.019.15-.11-.184-.036v-.02l.184-.038-.157-.11.00-.02.18.04-.105-.162.01-.015.15.11-.039-.194.02-.007.10.164.03-.193Zm.01.06-.033.19-.102-.163.03.19-.153-.11.10.16-.18-.04.15.109-.181.03.181.03-.155.10.18-.04-.101.16.152-.11-.038.19.102-.162.03.19.03-.19.10.162-.037-.19.15.108-.103-.159.18.04-.154-.108.18-.035-.18-.037.15-.108-.183.04.103-.16-.15.10.035-.19-.1.16-.035-.19Z"
            clip-rule="evenodd" />
        <path fill="#FFDF00" fill-rule="evenodd"
            d="M12.25 7.22c0 .126-.1.22-.224.22a.226.22 0 0 1-.224-.23c0-.126.1-.23.22-.23s.224.10.224.23v-.001Z"
            clip-rule="evenodd" />
        <path fill="#984000" fill-rule="evenodd"
            d="M8.34 5.01s.56-.306 1.19-.538a8.05 8.05 0 0 1 1.43-.38c.19 0 .51.47.562.47.057 0 .271-.13.53-.13.26 0 .43.21.485.21h.482c.053 0-.162-.527 0-.5.08.015.76.12 1.40.324.63.211 1.54.573 1.54.573s-1.47.197-1.87.14c-.053.02 0 .345-.078.20a6.81 6.81 0 0 0-.657-.099c-.081 0-.229.09-.443.14-.163.04-.325.08-.486.13l.352.54-.432.21S12.1 5.7 11.99 5.7c-.109 0-.158.44-.295.42-.133-.028-.186-.421-.292-.527-.109-.105-.675-.14-.89-.193-.214-.053-.562-.095-.748-.148-.186-.053-.376.13-.457.13-.08 0 .105-.158.02-.187-.077-.028-.133.08-.19.08-.052 0-.615-.105-.668-.133-.056-.025.13-.13.08-.13h-.218Z"
            clip-rule="evenodd" />
        <path fill="gray" fill-rule="evenodd"
            d="M12.32 4.74c0 .149-.12.27-.267.27a.268.26 0 0 1-.265-.27c0-.15.11-.27.26-.27.14 0 .267.12.267.27Z"
            clip-rule="evenodd" />
        <path fill="#812E00" fill-rule="evenodd"
            d="M11.66 5.97s-.01.13-.094.21-.26.19-.26.19.235-.11.26-.088c.025.02-.151.22-.151.22s.228-.207.26-.207.09.2.12.197c.024-.004-.053-.253-.043-.292.01-.039 0-.246 0-.246l-.091.00Zm.546-.018s-.01.14-.099.23c-.087.09-.26.20-.26.20s.24-.12.26-.091c.025.02-.15.23-.15.23s.231-.218.26-.218c.027 0 .098.21.122.21.025-.006-.056-.273-.042-.316.01-.038 0-.263 0-.263l-.091.01Zm-.763-1.27c0 .028-.025.05-.056.05-.032 0-.057-.022-.057-.05 0-.028.02-.046.05-.046.03 0 .056.02.056.04Z"
            clip-rule="evenodd" />
    </g>
    <rect width="23.5" height="17.5" x=".25" y=".25" stroke="#DDE0EA" stroke-width=".5" rx="1.75"
        style="fill-opacity:0" />
    <defs>
        <clipPath id="a">
            <rect width="24" height="18" fill="#fff" rx="2" />
        </clipPath>
    </defs>
</svg>