<svg width="24" height="18" viewBox="0 0 24 18" fill="none" xmlns="http://www.w3.org/2000/svg">
<g clip-path="url(#clip0_1059_5)">
<path fill-rule="evenodd" clip-rule="evenodd" d="M5.67436e-05 6.34375H24.0001V12.0703H5.67436e-05V6.34375Z" fill="#FFC621"/>
<path fill-rule="evenodd" clip-rule="evenodd" d="M0.000300407 12.0731H24.0003V18.048H0.000300407V12.0731Z" fill="#EF2118"/>
<path fill-rule="evenodd" clip-rule="evenodd" d="M0 0H24V6.345H0V0Z" fill="#298C08"/>
<path d="M11.42 13.1291C13.5194 13.1291 15.2213 11.4272 15.2213 9.32786C15.2213 7.22846 13.5194 5.52657 11.42 5.52657C9.32064 5.52657 7.61874 7.22846 7.61874 9.32786C7.61874 11.4272 9.32064 13.1291 11.42 13.1291Z" fill="#006BC6"/>
<path fill-rule="evenodd" clip-rule="evenodd" d="M9.71506 6.63405L9.48593 6.79267L10.3143 7.95592L10.5364 7.81492L9.71153 6.63405H9.71506ZM10.7514 9.38355L10.4095 9.14385L10.5505 8.69617L8.85496 8.72085L8.36146 8.34367L10.6774 8.319L11.1074 7.01828L11.3401 7.54702L10.7514 9.38002V9.38355ZM13.448 6.89137L13.226 6.72217L12.3694 7.86427L12.5668 8.02995L13.448 6.89137ZM11.1427 8.70675L11.2661 8.31195H11.7349L11.1991 6.6975L11.4106 6.11587L12.1332 8.31547L13.5009 8.3331L13.0709 8.71027L11.1427 8.70322V8.70675ZM14.3363 10.5116L14.4315 10.2507L13.0814 9.78187L12.9827 10.0286L14.3363 10.5116ZM11.9006 8.87595L12.313 8.87243L12.4575 9.31657L13.8252 8.31195L14.4456 8.3331L12.5738 9.69728L12.9792 11.0086L12.4857 10.7125L11.9006 8.87595ZM11.2026 12.4714L11.4811 12.4785L11.4917 11.0509L11.2308 11.0332L11.2026 12.475V12.4714ZM11.9781 9.64087L12.1121 10.0322L11.7349 10.3141L13.1237 11.2906L13.3 11.8828L11.4106 10.5433L10.3002 11.3434L10.4236 10.7794L11.9746 9.64087H11.9781ZM8.33678 10.0991L8.41786 10.3635L9.78203 9.93345L9.71153 9.67965L8.33678 10.0991ZM11.2696 9.95813L10.9382 10.2084L10.5575 9.93697L10.057 11.5585L9.54938 11.911L10.2368 9.7008L9.12991 8.89005L9.70448 8.83365L11.2696 9.95813Z" fill="#FFC621"/>
</g>
<rect x="0.25" y="0.25" width="23.5" height="17.5" rx="1.75" stroke="#DDE0EA" stroke-width="0.5" style="fill-opacity:0"/>
<defs>
<clipPath id="clip0_1059_5">
<rect width="24" height="18" rx="2" fill="white"/>
</clipPath>
</defs>
</svg>
