<svg width="24" height="18" viewBox="0 0 24 18" fill="none" xmlns="http://www.w3.org/2000/svg">
<g clip-path="url(#clip0_1224_52)">
<g clip-path="url(#clip1_1224_52)">
<path d="M9.72e-05 6.00H12.00V0H24.00L24 18H0L9.72e-05 6.00Z" fill="#62B5E5"/>
<path d="M15.57 9.04V13.14C15.57 14.48 18 15.28 18 15.28C18 15.28 20.42 14.48 20.42 13.14V9.04H15.57Z" fill="white"/>
<path d="M17.66 10.48V12.32H15.57V13.00H17.66V15.15L18 15.28L18.33 15.15V13.00H20.42V12.32H18.33V10.48H17.66Z" fill="#C8102E"/>
<path d="M15.57 9.04H20.42V10.62H15.57V9.04Z" fill="#C8102E"/>
<path d="M20.30 10.31L20.26 10.20C20.26 10.20 20.15 10.15 20.14 10.09C20.12 9.94 20.07 9.88 19.99 9.86C19.90 9.84 19.85 9.87 19.85 9.87C19.82 9.91 19.70 9.91 19.63 9.91C19.56 9.91 19.56 9.88 19.56 9.88C19.51 9.88 19.48 9.84 19.48 9.84C19.45 9.77 19.42 9.75 19.41 9.74C19.50 9.74 19.56 9.70 19.66 9.59C19.77 9.48 19.85 9.52 19.85 9.52C19.80 9.63 19.87 9.62 19.87 9.62C20.01 9.55 19.89 9.36 19.84 9.37C19.80 9.38 19.79 9.35 19.79 9.35C19.79 9.38 19.74 9.39 19.74 9.39C19.78 9.18 19.65 9.12 19.65 9.12C19.63 9.14 19.62 9.18 19.62 9.18C19.58 9.31 19.47 9.29 19.33 9.23C19.20 9.16 18.85 9.29 18.74 9.34C18.63 9.38 18.43 9.45 18.25 9.35C18.07 9.25 18.02 9.27 17.95 9.29C17.88 9.30 17.75 9.34 17.71 9.31C17.66 9.28 17.61 9.28 17.61 9.28C17.62 9.28 17.60 9.25 17.60 9.25C17.55 9.17 17.61 9.13 17.61 9.13C17.61 9.13 17.51 9.16 17.55 9.33L17.56 9.36C17.56 9.36 17.58 9.41 17.61 9.43L17.61 9.44C17.61 9.44 17.63 9.43 17.64 9.47C17.65 9.50 17.69 9.47 17.70 9.44C17.70 9.44 17.68 9.60 17.87 9.64C17.87 9.64 17.85 9.61 17.86 9.59C17.87 9.58 17.84 9.56 17.84 9.54C17.84 9.52 17.79 9.50 17.83 9.49C17.87 9.47 17.89 9.43 17.98 9.48C18.07 9.53 18.13 9.52 18.13 9.52C18.13 9.52 18.08 9.41 18.11 9.41C18.14 9.41 18.27 9.58 18.34 9.57C18.40 9.56 18.53 9.49 18.59 9.51C18.59 9.51 18.60 9.48 18.84 9.44C19.08 9.40 19.38 9.28 19.49 9.38C19.49 9.38 19.51 9.47 19.55 9.49C19.55 9.49 19.55 9.66 19.25 9.57L19.14 9.54C19.14 9.54 19.12 9.49 18.55 9.63C18.55 9.63 18.52 9.64 18.50 9.66C18.47 9.68 18.44 9.65 18.33 9.69C18.22 9.73 17.80 9.87 17.54 9.82C17.48 9.80 17.43 9.81 17.43 9.80C17.43 9.79 17.46 9.81 17.46 9.81C17.44 9.78 17.43 9.78 17.43 9.78C17.21 9.76 17.25 9.66 17.25 9.66L17.26 9.69C17.30 9.64 17.25 9.53 17.25 9.53H17.25C17.25 9.53 17.25 9.53 17.25 9.52L17.26 9.51C17.37 9.42 17.49 9.41 17.49 9.41C17.42 9.32 17.27 9.37 17.27 9.37C17.27 9.26 17.23 9.14 17.23 9.14C17.08 9.15 16.99 9.28 16.99 9.28C16.99 9.17 16.85 9.10 16.85 9.10C16.90 9.17 16.87 9.32 16.87 9.32L16.87 9.32C16.86 9.32 16.86 9.32 16.86 9.32L16.85 9.35L16.85 9.35C16.85 9.35 16.80 9.37 16.74 9.50C16.74 9.50 16.73 9.54 16.71 9.57C16.71 9.56 16.71 9.56 16.71 9.55C16.71 9.55 16.64 9.64 16.48 9.55C16.48 9.55 16.27 9.43 16.20 9.43C16.12 9.44 16.07 9.47 16.08 9.49C16.08 9.49 15.91 9.48 15.85 9.58C15.85 9.58 15.72 9.62 15.83 9.73C15.83 9.73 15.85 9.77 15.88 9.80C15.88 9.80 15.87 9.70 15.90 9.73C15.90 9.73 15.90 9.74 15.91 9.75C15.92 9.76 15.93 9.80 15.95 9.82L15.97 9.81C15.97 9.79 15.97 9.76 15.98 9.74H15.98L15.98 9.75L16.01 9.79L16.05 9.77C16.06 9.77 16.08 9.79 16.08 9.79L16.12 9.76C16.16 9.76 16.17 9.69 16.17 9.69C16.21 9.70 16.24 9.68 16.27 9.67C16.29 9.73 16.43 9.80 16.43 9.80H16.43C16.42 9.81 16.41 9.81 16.41 9.81C16.48 9.86 16.60 9.85 16.60 9.85C16.55 9.87 16.55 9.96 16.55 9.96C16.53 9.97 16.52 10.00 16.52 10.00C16.62 10.03 16.68 10.00 16.68 10.00C16.69 10.03 16.68 10.04 16.68 10.04C16.64 10.12 16.63 10.20 16.63 10.20H16.63C16.63 10.20 16.63 10.20 16.63 10.20C16.63 10.20 16.46 10.26 16.38 10.34C16.38 10.34 16.38 10.32 16.36 10.32C16.33 10.32 16.27 10.27 16.24 10.26C16.21 10.25 16.17 10.27 16.15 10.25C16.14 10.24 16.15 10.15 16.13 10.13L16.11 10.07C16.09 10.10 16.04 10.10 16.04 10.10C16.03 10.10 16.02 10.10 16.01 10.11C16.00 10.11 15.99 10.11 15.99 10.11C15.98 10.11 15.98 10.13 15.97 10.14L15.96 10.15V10.14C15.95 10.15 15.93 10.13 15.92 10.13C15.92 10.13 15.91 10.15 15.91 10.16C15.88 10.17 15.85 10.17 15.85 10.17C15.84 10.17 15.85 10.24 15.85 10.24C15.78 10.28 15.81 10.34 15.81 10.34C15.85 10.52 16.16 10.44 16.18 10.46C16.21 10.49 16.26 10.49 16.29 10.49C16.32 10.49 16.35 10.56 16.39 10.56C16.43 10.57 16.39 10.51 16.57 10.47C16.76 10.42 16.82 10.35 16.82 10.35C16.88 10.33 16.89 10.27 16.90 10.24C16.90 10.25 16.90 10.26 16.90 10.28C16.91 10.34 16.86 10.37 16.86 10.37L17.02 10.32C17.09 10.30 17.08 10.25 17.08 10.25C17.14 10.42 17.25 10.43 17.25 10.43C17.27 10.36 17.27 10.34 17.27 10.34L17.32 10.34C17.32 10.30 17.29 10.28 17.27 10.26L17.35 10.31L17.38 10.30C17.38 10.33 17.42 10.36 17.42 10.36L17.42 10.32C17.46 10.37 17.53 10.35 17.53 10.35C17.52 10.34 17.52 10.33 17.52 10.32C17.66 10.41 17.89 10.30 17.89 10.30C17.95 10.31 17.95 10.28 17.95 10.28C18.02 10.29 18.04 10.24 18.04 10.24C18.20 10.23 18.31 10.11 18.31 10.11C18.39 10.11 18.40 10.05 18.40 10.05C18.40 10.05 18.48 10.07 18.55 9.97C18.73 9.71 19.00 9.85 19.00 9.85L18.84 9.86C18.44 9.86 18.61 10.13 18.61 10.13L18.63 10.13C18.67 10.14 18.80 10.24 18.75 10.32L18.75 10.32C18.67 10.43 18.52 10.33 18.47 10.23C18.43 10.14 18.34 10.16 18.34 10.16C18.34 10.16 18.11 10.20 18.21 10.38H18.21C18.21 10.42 18.24 10.47 18.32 10.52C18.37 10.59 18.52 10.59 18.63 10.57C18.68 10.56 18.95 10.44 18.95 10.44C18.97 10.38 19.04 10.40 19.10 10.31C19.16 10.23 19.01 10.20 18.98 10.15C18.95 10.10 18.99 10.11 18.99 10.11C19.12 10.18 19.13 9.96 19.13 9.96C19.14 10.09 19.26 10.12 19.26 10.12C19.33 10.05 19.28 9.91 19.28 9.91C19.45 10.21 19.55 10.16 19.55 10.16C19.46 10.11 19.51 10.03 19.51 10.03C19.59 10.35 19.93 10.07 19.93 10.07C19.91 10.12 19.93 10.15 19.96 10.18C19.99 10.21 20.02 10.22 20.01 10.27C19.99 10.33 19.83 10.32 19.83 10.32C19.83 10.32 19.68 10.31 19.69 10.44C19.70 10.47 19.80 10.48 19.84 10.47C19.84 10.47 19.83 10.47 19.88 10.48C19.90 10.48 19.93 10.48 19.95 10.48C20.02 10.48 20.09 10.47 20.09 10.47C20.17 10.45 20.16 10.42 20.16 10.42C20.28 10.40 20.30 10.31 20.30 10.31Z" fill="#FEDD00"/>
<path d="M16.12 11.20C16.12 11.20 16.32 10.78 16.57 10.92C16.57 10.92 16.31 10.97 16.22 11.16L16.12 11.30L16.12 11.20Z" fill="#00AD50"/>
<path d="M16.12 11.32L16.11 11.19V11.19C16.12 11.18 16.24 10.94 16.40 10.89C16.46 10.87 16.52 10.88 16.58 10.91L16.59 10.92L16.57 10.93C16.57 10.93 16.32 10.98 16.23 11.16L16.12 11.32ZM16.13 11.20L16.13 11.27L16.21 11.15C16.29 11.00 16.49 10.93 16.55 10.92C16.50 10.90 16.45 10.89 16.41 10.91C16.25 10.95 16.14 11.18 16.13 11.20Z" fill="black"/>
<path d="M16.01 11.35C16.01 11.35 15.95 11.07 15.91 11.03C15.88 10.99 15.81 10.95 15.73 11.01C15.73 11.01 15.87 10.90 16.01 11.00C16.15 11.09 16.12 11.25 16.12 11.25L16.10 11.44L16.01 11.36" fill="#00AD50"/>
<path d="M16.23 11.69C16.23 11.69 15.98 11.22 15.82 11.55C15.82 11.55 15.79 11.64 15.82 11.67C15.82 11.67 15.73 11.60 15.77 11.44C15.82 11.27 16.09 11.35 16.17 11.48C16.25 11.62 16.27 11.69 16.26 11.7C16.25 11.70 16.23 11.69 16.23 11.69ZM16.93 11.82C16.93 11.82 17.11 11.45 17.22 11.62C17.22 11.62 17.25 11.70 17.20 11.74C17.20 11.74 17.13 11.65 17.06 11.75C17.00 11.86 17.03 11.85 17.03 11.85C17.03 11.85 16.96 11.87 16.93 11.82Z" fill="#00AD50"/>
<path d="M17.32 11.17C17.42 10.97 17.55 11.23 17.55 11.23C17.55 11.23 17.6 11.02 17.47 10.98C17.34 10.95 17.26 11.42 17.26 11.42L17.11 11.46C17.11 11.46 17.15 11.04 17.37 11.00L17.40 11.01" fill="#00AD50"/>
<path d="M17.09 11.47L17.10 11.46C17.10 11.44 17.14 11.04 17.37 11.00H17.37L17.40 11.00C17.41 10.99 17.41 10.99 17.42 10.99C17.43 10.98 17.45 10.97 17.47 10.98C17.60 11.02 17.56 11.22 17.56 11.23L17.55 11.25L17.54 11.23C17.54 11.23 17.48 11.10 17.41 11.10C17.38 11.10 17.35 11.12 17.33 11.16C17.29 11.28 17.26 11.43 17.26 11.43V11.43L17.09 11.47ZM17.37 11.01C17.17 11.05 17.12 11.38 17.11 11.45L17.25 11.42C17.25 11.39 17.27 11.27 17.31 11.16H17.31C17.31 11.16 17.31 11.16 17.31 11.15C17.33 11.10 17.36 11.05 17.38 11.01L17.37 11.01ZM17.40 11.08C17.47 11.08 17.52 11.17 17.54 11.21C17.55 11.15 17.56 11.02 17.46 10.99C17.45 10.99 17.44 10.99 17.42 11.00C17.40 11.02 17.37 11.06 17.35 11.11C17.37 11.09 17.38 11.08 17.40 11.08Z" fill="black"/>
<path d="M19.43 11.09C19.43 11.09 19.85 10.51 20.30 11.11C20.30 11.11 20.30 11.17 20.26 11.24L20.25 11.19L20.22 11.20L20.21 11.17L20.16 11.16L20.18 11.10L20.13 11.14L20.14 11.09L20.08 11.15L20.08 11.03L20.02 11.14L20.03 11.06L20.01 11.09L19.99 11.05L19.97 11.09L19.94 11.07V11.10L19.89 11.06L19.87 11.12L19.85 11.05L19.84 11.10L19.81 11.05L19.81 11.10L19.72 11.06L19.74 11.12L19.70 11.09L19.71 11.12L19.65 11.10L19.65 11.14L19.59 11.13L19.61 11.16L19.52 11.14L19.55 11.18L19.55 11.19C19.55 11.19 20.00 11.04 20.03 11.61L19.95 11.65L19.97 11.60L19.95 11.59L19.88 11.54L19.90 11.46L19.88 11.47L19.87 11.43L19.86 11.44L19.83 11.40L19.83 11.41L19.81 11.36L19.79 11.40L19.78 11.31L19.75 11.37L19.74 11.34L19.72 11.36L19.69 11.31L19.67 11.34L19.66 11.32L19.65 11.34L19.60 11.31V11.34L19.58 11.31L19.57 11.33L19.50 11.30L19.50 11.33L19.46 11.30L19.45 11.33C19.45 11.33 19.86 11.56 19.73 11.94L19.71 11.99L19.70 11.86L19.67 11.93L19.69 11.78L19.67 11.81L19.66 11.75L19.63 11.81L19.62 11.74L19.60 11.76L19.58 11.66L19.56 11.70L19.54 11.60L19.51 11.64L19.50 11.55L19.48 11.61L19.44 11.52L19.43 11.56L19.40 11.49L19.39 11.51C19.39 11.51 19.31 11.51 19.29 11.49C19.27 11.47 19.20 11.60 19.20 11.60L19.21 11.52L19.18 11.58V11.52L19.13 11.68L19.12 11.57L19.1 11.67L19.08 11.64L19.08 11.68L19.06 11.66L19.05 11.71L19.02 11.69V11.75L19.00 11.72L18.98 11.81L18.97 11.77V11.81L18.95 11.79L18.93 11.88L18.91 11.84L18.90 11.91L18.92 11.96L18.89 11.94L18.90 12.02C18.90 12.02 18.78 11.80 18.92 11.59C19.06 11.38 19.25 11.32 19.25 11.32L19.23 11.30L19.23 11.29L19.11 11.34L19.12 11.31L19.09 11.33L19.08 11.30L19.06 11.33L19.06 11.31L19.03 11.36L19.01 11.30L19 11.37L18.98 11.32L18.94 11.42V11.34L18.91 11.43L18.90 11.34L18.88 11.44V11.35L18.84 11.44L18.82 11.35L18.80 11.44L18.78 11.37L18.76 11.47L18.73 11.38L18.71 11.52L18.69 11.47L18.68 11.56L18.66 11.50L18.68 11.63L18.65 11.58L18.66 11.66L18.61 11.58L18.62 11.68L18.59 11.65L18.58 11.68C18.58 11.68 18.57 11.29 18.83 11.22C19.10 11.14 19.28 11.24 19.28 11.24L19.17 11.16L19.19 11.13H19.15L19.16 11.10L19.08 11.10L19.11 11.07L19.05 11.08V11.06L19.01 11.09L19.02 11.06L18.97 11.09L18.97 11.04L18.94 11.09L18.93 11.04L18.81 11.16L18.84 11.04L18.82 11.06L18.82 11.04L18.78 11.09L18.77 11.05L18.76 11.10L18.75 11.04L18.72 11.10L18.69 11.05L18.68 11.11L18.66 11.08L18.64 11.13L18.61 11.10L18.61 11.13L18.55 11.10L18.56 11.15L18.52 11.11L18.51 11.17L18.48 11.14L18.46 11.21L18.44 11.14L18.42 11.19C18.42 11.19 18.65 10.59 19.25 10.98C19.25 10.98 19.31 11.05 19.33 11.09C19.35 11.14 19.33 11.10 19.33 11.10L19.32 10.68L19.34 10.86L19.36 10.80L19.36 10.89L19.42 10.76C19.42 10.76 19.34 10.98 19.37 11.06C19.37 11.06 19.4 10.81 19.49 10.78L19.40 10.96L19.43 10.95L19.41 10.99H19.43L19.39 11.08L19.41 11.11L19.43 11.09Z" fill="#00AD50"/>
<path d="M16.98 14.33C16.96 14.33 16.59 14.26 16.49 14.13C16.37 13.99 16.40 13.75 16.42 13.62C16.42 13.59 16.43 13.56 16.43 13.55C16.43 13.48 16.35 13.45 16.33 13.44L16.15 13.44L16.33 13.35C16.34 13.33 16.39 13.24 16.49 13.25C16.59 13.26 16.63 13.31 16.65 13.41C16.66 13.50 16.71 13.59 16.75 13.63C16.73 13.57 16.71 13.42 16.83 13.36C16.87 13.33 16.92 13.31 16.97 13.29C17.07 13.24 17.17 13.19 17.20 13.15C17.20 13.14 17.20 13.13 17.20 13.13L17.22 13.14C17.22 13.15 17.22 13.15 17.22 13.16C17.20 13.20 17.14 13.31 17.08 13.38C17.11 13.37 17.14 13.35 17.15 13.33L17.17 13.33C17.17 13.34 17.15 13.46 17.09 13.49L17.08 13.48C17.11 13.46 17.13 13.41 17.14 13.37C17.10 13.40 17.04 13.43 17.03 13.43L17.03 13.41C17.08 13.38 17.14 13.27 17.17 13.20C17.13 13.24 17.05 13.27 16.98 13.31C16.93 13.33 16.88 13.35 16.84 13.38C16.71 13.45 16.78 13.66 16.78 13.67L16.79 13.69L16.76 13.68C16.72 13.65 16.65 13.53 16.63 13.42C16.62 13.32 16.58 13.28 16.49 13.27C16.40 13.26 16.35 13.36 16.35 13.36L16.35 13.36L16.24 13.42L16.35 13.42C16.35 13.42 16.45 13.46 16.45 13.55C16.45 13.56 16.45 13.59 16.45 13.62C16.43 13.75 16.40 13.98 16.51 14.12C16.61 14.24 16.98 14.31 16.99 14.31L16.98 14.33Z" fill="black"/>
<path d="M17.00 13.96C16.98 13.96 16.95 13.95 16.92 13.93C16.89 13.91 16.86 13.90 16.85 13.91C16.83 13.91 16.83 13.94 16.83 13.94H16.81C16.81 13.94 16.81 13.90 16.84 13.89C16.86 13.88 16.9 13.89 16.94 13.91C17.01 13.97 17.08 13.92 17.11 13.89L17.10 13.89L17.10 13.87C17.16 13.86 17.20 13.83 17.24 13.81C17.18 13.81 17.10 13.78 17.09 13.78L17.06 13.76L17.1 13.76C17.18 13.75 17.24 13.71 17.29 13.67C17.22 13.70 17.12 13.70 17.11 13.70L17.11 13.68C17.26 13.66 17.35 13.56 17.39 13.50C17.33 13.54 17.21 13.58 17.20 13.58L17.19 13.57C17.35 13.50 17.42 13.39 17.45 13.31C17.37 13.40 17.19 13.45 17.12 13.47L17.11 13.48C17.09 13.48 17.08 13.50 17.06 13.52C17.03 13.56 16.99 13.60 16.93 13.60C16.84 13.60 16.82 13.73 16.82 13.73L16.8 13.73C16.80 13.72 16.83 13.57 16.93 13.58C16.98 13.58 17.01 13.55 17.04 13.51C17.06 13.49 17.08 13.46 17.10 13.46L17.12 13.45C17.33 13.39 17.45 13.31 17.47 13.23L17.49 13.24C17.49 13.24 17.49 13.30 17.45 13.37C17.42 13.41 17.38 13.47 17.31 13.52C17.36 13.50 17.41 13.47 17.42 13.45L17.44 13.46C17.44 13.46 17.38 13.59 17.24 13.66C17.28 13.65 17.31 13.64 17.33 13.63C17.34 13.62 17.34 13.61 17.34 13.61L17.36 13.62C17.36 13.63 17.35 13.63 17.35 13.64C17.32 13.67 17.25 13.74 17.13 13.77C17.18 13.78 17.24 13.80 17.27 13.77C17.27 13.77 17.27 13.77 17.27 13.77L17.29 13.78C17.29 13.78 17.29 13.79 17.29 13.79C17.27 13.80 17.22 13.86 17.15 13.88L17.14 13.89C17.14 13.89 17.08 13.96 17.00 13.96Z" fill="black"/>
<path d="M17.17 14.62L16.97 14.25L16.99 14.24L17.19 14.61L17.17 14.62ZM17.33 14.59L17.00 14.22L17.02 14.21L17.35 14.58L17.33 14.59ZM17.41 14.56L17.03 14.21L17.05 14.19L17.43 14.54L17.41 14.56ZM16.46 13.37C16.46 13.37 16.44 13.33 16.42 13.35C16.4 13.36 16.38 13.37 16.38 13.36C16.38 13.36 16.40 13.37 16.41 13.35C16.43 13.34 16.45 13.35 16.46 13.37ZM16.33 13.35L16.35 13.38C16.34 13.38 16.33 13.43 16.33 13.43L16.34 13.43L16.36 13.38C16.36 13.38 16.34 13.35 16.34 13.35L16.33 13.35Z" fill="black"/>
<path d="M18.97 13.49C18.97 13.49 18.97 13.17 19.23 13.18C19.28 13.19 19.26 13.25 19.26 13.25C19.26 13.25 19.31 13.21 19.34 13.27C19.34 13.27 19.42 13.23 19.43 13.31C19.43 13.31 19.52 13.30 19.51 13.37C19.51 13.37 19.57 13.36 19.57 13.41C19.57 13.41 19.64 13.38 19.63 13.46C19.63 13.46 19.71 13.40 19.70 13.50C19.70 13.50 19.78 13.44 19.81 13.54C19.83 13.63 19.73 13.83 19.62 13.88" fill="#FEDD00"/>
<path d="M18.81 13.88C18.81 13.88 18.77 13.58 18.94 13.49C18.94 13.49 18.98 13.48 19.00 13.52C19.00 13.52 19.09 13.48 19.09 13.56C19.09 13.56 19.14 13.53 19.15 13.58C19.15 13.58 19.25 13.56 19.23 13.63C19.23 13.63 19.32 13.61 19.31 13.68C19.31 13.68 19.39 13.65 19.38 13.71C19.38 13.71 19.47 13.69 19.45 13.76C19.45 13.76 19.56 13.75 19.52 13.83C19.52 13.83 19.60 13.81 19.58 13.87C19.58 13.87 19.69 13.89 19.64 13.96C19.59 14.03 19.47 14.13 19.35 14.17M18.72 14.18C18.72 14.18 18.65 13.93 18.78 13.87C18.78 13.87 18.81 13.86 18.81 13.89C18.81 13.89 18.84 13.85 18.87 13.88C18.87 13.88 18.94 13.85 18.95 13.90C18.95 13.90 19.00 13.86 19.02 13.92C19.02 13.92 19.07 13.90 19.07 13.95C19.07 13.95 19.13 13.92 19.13 13.98C19.13 13.98 19.19 13.95 19.17 14.02C19.17 14.02 19.26 14.03 19.24 14.07C19.24 14.07 19.32 14.09 19.29 14.13C19.29 14.13 19.37 14.12 19.33 14.17C19.33 14.17 19.39 14.15 19.35 14.23C19.32 14.30 19.20 14.38 19.12 14.39M18.80 14.37C18.80 14.37 18.65 14.22 18.72 14.18C18.72 14.18 18.75 14.19 18.77 14.22C18.77 14.22 18.80 14.17 18.82 14.22C18.82 14.22 18.88 14.21 18.88 14.24L18.92 14.27C18.92 14.27 18.98 14.27 18.97 14.30C18.97 14.30 19.02 14.29 19.02 14.33C19.02 14.33 19.07 14.33 19.06 14.36C19.06 14.36 19.15 14.37 19.11 14.42C19.11 14.42 18.96 14.45 18.86 14.40C18.86 14.41 18.81 14.39 18.80 14.37Z" fill="#00AD50"/>
<path d="M0 0H12.00V6.00H9.72e-05L0 0Z" fill="#012169"/>
<path d="M1.40 0L5.98 2.26L10.53 0H12.00L12 0.77L7.5 3.01L12 5.23L12.00 6.00L10.5 6L6 3.76L1.51 6L9.72e-05 6.00L0 5.25L4.48 3.02L0 0.8V0H1.40Z" fill="white"/>
<path d="M7.95 3.51L12 5.5L12.00 6.00L6.91 3.51H7.95ZM4.5 3.76L4.61 4.2L1.01 6L9.72e-05 6.00L4.5 3.76ZM12.00 0L12 0.03L7.33 2.38L7.36 1.83L11.06 0H12.00ZM0 0L4.48 2.2H3.35L0 0.52V0Z" fill="#C8102E"/>
<path d="M4.51 0V6H7.51V0H4.51ZM0 2V4H12V2H0Z" fill="white"/>
<path d="M0 2.41V3.61H12V2.41H0ZM5.11 0V6H6.91V0H5.11Z" fill="#C8102E"/>
</g>
</g>
<rect x="0.25" y="0.25" width="23.5" height="17.5" rx="1.75" stroke="#DDE0EA" stroke-width="0.5" style="fill-opacity:0"/>
<defs>
<clipPath id="clip0_1224_52">
<rect width="24" height="18" rx="2" fill="white"/>
</clipPath>
<clipPath id="clip1_1224_52">
<rect width="24" height="18" fill="white"/>
</clipPath>
</defs>
</svg>
