<svg width="24" height="18" viewBox="0 0 24 18" fill="none" xmlns="http://www.w3.org/2000/svg">
<g clip-path="url(#clip0_1259_7267)">
<path d="M0 0H24V18H0V0Z" fill="#CE1126"/>
<path d="M0 4.5H24V13.5H0V4.5Z" fill="white"/>
<path d="M10.19 8.16V7.72C10.19 7.72 10.11 7.73 10.12 7.65C10.12 7.47 10.60 7.98 10.85 8.14L10.84 8.49L10.19 8.16Z" fill="#FF9C10"/>
<path d="M9.39 9.63V8.77L8.01 8.72L8.04 9.63H9.39Z" fill="#FF9C10"/>
<path d="M9.41 8.58L9.40 7.97L8.27 7.54L8.04 8.43L9.41 8.58Z" fill="#FF9C10"/>
<path d="M9.36 7.77L9.52 7.60C9.52 7.60 9.42 7.53 9.43 7.46C9.43 7.40 9.53 7.39 9.53 7.32C9.53 7.25 9.42 7.24 9.42 7.18C9.41 7.11 9.51 7.03 9.51 7.03L8.85 6.51L8.39 7.30L9.36 7.77Z" fill="#FF9C10"/>
<path d="M14.18 9.63L14.17 8.79L15.67 8.72L15.64 9.63L14.18 9.63Z" fill="#FF9C10"/>
<path d="M15.67 8.42C15.66 8.29 15.64 8.15 15.61 8.02C15.56 7.84 15.51 7.67 15.44 7.50C15.44 7.49 15.43 7.47 15.43 7.46L14.18 7.98L14.19 8.60L15.67 8.42Z" fill="#FF9C10"/>
<path d="M14.80 6.44C14.55 6.62 14.33 6.80 14.08 6.98C14.08 7.04 14.13 7.08 14.15 7.13C14.18 7.20 14.11 7.27 14.07 7.32C14.04 7.37 14.11 7.39 14.14 7.42C14.19 7.47 14.14 7.56 14.08 7.59C14.15 7.63 14.19 7.71 14.20 7.79C14.58 7.59 14.95 7.40 15.32 7.21C15.19 6.93 15.00 6.68 14.80 6.44Z" fill="#FF9C10"/>
<path d="M12.74 8.17C12.74 8.17 13.34 7.64 13.46 7.54C13.46 7.65 13.39 7.73 13.39 7.73V8.14L12.75 8.45L12.74 8.17Z" fill="#FF9C10"/>
<path d="M9.09 6.26L9.58 6.81C9.60 6.74 9.75 6.73 9.90 6.74C10.05 6.75 10.18 6.73 10.18 6.84C10.18 6.94 10.10 6.93 10.10 7.00C10.10 7.08 10.21 7.07 10.21 7.17C10.21 7.27 10.13 7.25 10.13 7.32C10.13 7.39 10.22 7.39 10.22 7.39L10.84 7.99L10.84 7.35L9.77 5.69L9.09 6.26Z" fill="#FF9C10"/>
<path d="M10.04 5.48L10.81 7.08C10.81 7.08 10.82 5.46 10.96 5.37L10.91 5.19L10.04 5.48Z" fill="#FF9C10"/>
<path d="M12.74 5.14C12.63 5.51 12.52 5.89 12.42 6.26C12.52 6.27 12.62 6.27 12.72 6.27C12.81 6.28 12.74 6.36 12.75 6.41C12.75 6.64 12.75 6.87 12.75 7.10C13.05 6.56 13.36 6.02 13.66 5.48C13.45 5.37 13.23 5.29 13.00 5.22C12.92 5.19 12.83 5.16 12.74 5.14Z" fill="#FF9C10"/>
<path d="M13.88 5.61L12.75 7.35L12.75 8.02C13.00 7.78 13.25 7.54 13.50 7.30C13.55 7.23 13.35 7.20 13.45 7.12C13.54 7.09 13.56 6.94 13.46 6.91C13.38 6.80 13.53 6.74 13.63 6.75C13.76 6.76 13.89 6.72 14.02 6.76C14.09 6.83 14.16 6.66 14.22 6.62C14.36 6.48 14.48 6.40 14.61 6.26C14.39 6.03 14.16 5.77 13.88 5.61Z" fill="#FF9C10"/>
<path d="M10.96 12.37C10.68 12.38 10.40 12.57 10.27 12.67C10.51 12.77 10.76 12.85 11.02 12.91C11.44 12.98 11.87 12.98 12.29 12.98C12.36 12.97 12.43 12.96 12.49 12.95L13.38 12.65C13.38 12.65 12.95 12.37 12.61 12.38C12.28 12.39 12.05 12.72 11.77 12.70C11.50 12.67 11.39 12.37 10.99 12.37C10.98 12.37 10.97 12.37 10.96 12.37Z" fill="#083D9C"/>
<path d="M14.40 12.16C14.40 12.16 13.97 11.69 13.45 11.68C12.94 11.67 13.08 11.90 12.68 11.93C12.29 11.96 12.19 11.69 11.83 11.70C11.47 11.72 11.26 11.93 10.99 11.94C10.71 11.95 10.36 11.67 10.15 11.68C9.95 11.69 9.20 12.01 9.20 12.01L9.34 12.14L14.40 12.16Z" fill="#083D9C"/>
<path d="M8.70 11.54L14.94 11.56C15.04 11.42 14.63 11.09 14.26 11.06C13.95 11.07 13.73 11.37 13.48 11.38C13.23 11.39 12.95 11.07 12.66 11.08C12.38 11.09 12.08 11.38 11.80 11.38C11.51 11.38 11.30 11.07 10.94 11.07C10.58 11.07 10.42 11.41 10.14 11.39C9.87 11.37 9.63 11.04 9.37 11.04C9.10 11.04 8.66 11.43 8.58 11.41C8.49 11.39 8.70 11.54 8.70 11.54Z" fill="#083D9C"/>
<path d="M11.11 10.95L12.50 10.94C12.50 10.94 12.19 10.47 11.81 10.50C11.38 10.51 11.11 10.95 11.11 10.95Z" fill="#083D9C"/>
<path d="M15.55 10.91H13.65C13.65 10.91 13.89 10.77 13.96 10.63C14.08 10.70 14.05 10.77 14.30 10.78C14.54 10.79 14.78 10.50 15.02 10.51C15.25 10.52 15.55 10.91 15.55 10.91Z" fill="#083D9C"/>
<path d="M8.04 10.91H9.95C9.95 10.91 9.70 10.77 9.63 10.63C9.51 10.70 9.54 10.77 9.30 10.78C9.05 10.79 8.81 10.50 8.58 10.51C8.34 10.52 8.04 10.91 8.04 10.91Z" fill="#083D9C"/>
<path d="M9.54 10.33C9.54 10.33 9.45 10.15 9.44 9.92C9.09 9.80 8.81 10.18 8.55 10.19C8.30 10.20 8.04 9.92 8.04 9.92L8.18 10.32L9.54 10.33Z" fill="#083D9C"/>
<path d="M15.43 10.32L14.07 10.33C14.07 10.33 14.16 10.15 14.17 9.92C14.52 9.80 14.81 10.18 15.06 10.19C15.31 10.20 15.57 9.92 15.57 9.92L15.43 10.32Z" fill="#083D9C"/>
<path d="M11.46 10.33H12.15C12.15 10.33 12.16 10.10 11.79 10.10C11.43 10.10 11.46 10.33 11.46 10.33Z" fill="#083D9C"/>
<path d="M11.09 8.11L12.53 8.49V6.47C11.87 6.50 11.32 5.23 12.48 5.15C11.35 4.98 11.21 5.28 11.08 5.59L11.09 8.11Z" fill="#CE1126"/>
<path d="M11.41 9.94C11.10 10.45 10.27 10.30 10.07 9.94C10.01 9.93 10.05 7.74 10.05 7.74C10.05 7.74 9.95 7.70 9.95 7.64C9.95 7.57 10.08 7.56 10.08 7.47C10.08 7.39 9.94 7.42 9.94 7.33C9.94 7.25 10.08 7.26 10.08 7.19C10.07 7.10 9.92 7.11 9.91 7.03C9.91 6.97 10.02 6.91 10.05 6.88L9.95 6.88L9.71 6.89C9.54 6.89 9.71 6.92 9.71 7.02C9.71 7.08 9.62 7.13 9.61 7.18C9.61 7.24 9.73 7.28 9.74 7.34C9.74 7.40 9.61 7.41 9.62 7.47C9.63 7.56 9.73 7.58 9.73 7.64C9.72 7.70 9.59 7.72 9.59 7.76C9.59 7.85 9.61 10.01 9.61 10.01C9.82 11.11 11.06 11.39 11.41 9.94Z" fill="#CE1126"/>
<path d="M12.23 9.94C12.54 10.45 13.37 10.30 13.57 9.94C13.63 9.93 13.59 7.74 13.59 7.74C13.59 7.74 13.69 7.70 13.69 7.64C13.69 7.57 13.57 7.56 13.57 7.47C13.57 7.39 13.70 7.42 13.70 7.33C13.70 7.25 13.57 7.26 13.58 7.18C13.58 7.09 13.69 7.10 13.69 7.02C13.70 6.95 13.63 6.91 13.60 6.88L13.70 6.88L13.93 6.89C14.10 6.89 13.93 6.92 13.93 7.02C13.94 7.08 14.02 7.13 14.03 7.18C14.03 7.24 13.91 7.28 13.91 7.34C13.90 7.40 14.03 7.41 14.02 7.47C14.02 7.56 13.91 7.58 13.92 7.64C13.92 7.70 14.05 7.72 14.05 7.76C14.05 7.85 14.03 10.01 14.03 10.01C13.82 11.11 12.58 11.39 12.23 9.94Z" fill="#CE1126"/>
<path d="M11.04 10.04C11.16 9.97 11.27 9.91 11.35 9.76L10.87 9.77C10.87 9.77 10.66 9.90 10.55 10.04H11.04Z" fill="#630810"/>
<path d="M12.56 10.04C12.44 9.97 12.33 9.91 12.25 9.76L12.73 9.77C12.73 9.77 12.94 9.90 13.05 10.04H12.56Z" fill="#630810"/>
<path d="M10.18 9.58L13.42 9.59L10.18 9.58Z" fill="#630810"/>
<path d="M10.34 8.82L10.72 9.32L10.34 8.82Z" fill="#630810"/>
<path d="M10.72 9.39C10.70 9.39 10.68 9.38 10.67 9.36L10.29 8.85C10.27 8.83 10.27 8.79 10.30 8.77C10.33 8.75 10.37 8.75 10.39 8.78L10.77 9.29C10.79 9.31 10.79 9.35 10.76 9.37C10.75 9.38 10.73 9.39 10.72 9.39Z" fill="#630810"/>
<path d="M10.34 9.39C10.32 9.39 10.31 9.38 10.30 9.37C10.27 9.35 10.27 9.31 10.29 9.28L10.71 8.79C10.73 8.76 10.77 8.76 10.8 8.78C10.82 8.80 10.83 8.84 10.80 8.87L10.39 9.36C10.37 9.38 10.36 9.39 10.34 9.39Z" fill="#630810"/>
<path d="M10.55 9.16H10.54C10.51 9.16 10.48 9.13 10.48 9.10L10.49 8.78C10.50 8.75 10.52 8.72 10.56 8.72C10.59 8.72 10.62 8.75 10.62 8.79L10.61 9.10C10.61 9.13 10.58 9.16 10.55 9.16Z" fill="#630810"/>
<path d="M11.33 9.39C11.31 9.39 11.30 9.38 11.28 9.36L10.90 8.85C10.88 8.83 10.88 8.79 10.91 8.77C10.94 8.75 10.98 8.75 11.00 8.78L11.38 9.29C11.40 9.31 11.40 9.35 11.37 9.37C11.36 9.38 11.35 9.39 11.33 9.39Z" fill="#630810"/>
<path d="M10.95 9.39C10.94 9.39 10.92 9.38 10.91 9.37C10.88 9.35 10.88 9.31 10.90 9.28L11.32 8.79C11.34 8.76 11.38 8.76 11.41 8.78C11.43 8.80 11.44 8.84 11.42 8.87L11.00 9.36C10.99 9.38 10.97 9.39 10.95 9.39Z" fill="#630810"/>
<path d="M11.96 9.39C11.94 9.39 11.92 9.38 11.91 9.36L11.52 8.85C11.50 8.83 11.51 8.79 11.54 8.77C11.56 8.75 11.60 8.75 11.62 8.78L12.01 9.29C12.03 9.31 12.02 9.35 12.00 9.37C11.98 9.38 11.97 9.39 11.96 9.39Z" fill="#630810"/>
<path d="M11.57 9.39C11.56 9.39 11.55 9.38 11.53 9.37C11.51 9.35 11.50 9.31 11.53 9.28L11.94 8.79C11.97 8.76 12.01 8.76 12.03 8.78C12.06 8.80 12.06 8.84 12.04 8.87L11.62 9.36C11.61 9.38 11.59 9.39 11.57 9.39Z" fill="#630810"/>
<path d="M11.78 9.16H11.78C11.75 9.16 11.72 9.13 11.72 9.10L11.73 8.78C11.73 8.75 11.76 8.72 11.79 8.72C11.83 8.72 11.86 8.75 11.86 8.79L11.84 9.10C11.84 9.13 11.82 9.16 11.78 9.16Z" fill="#630810"/>
<path d="M12.60 9.39C12.58 9.39 12.57 9.38 12.55 9.36L12.17 8.85C12.15 8.83 12.15 8.79 12.18 8.77C12.21 8.75 12.25 8.75 12.27 8.78L12.65 9.29C12.67 9.31 12.67 9.35 12.64 9.37C12.63 9.38 12.62 9.39 12.60 9.39Z" fill="#630810"/>
<path d="M12.22 9.39C12.21 9.39 12.19 9.38 12.18 9.37C12.15 9.35 12.15 9.31 12.17 9.28L12.59 8.79C12.61 8.76 12.65 8.76 12.68 8.78C12.70 8.80 12.71 8.84 12.68 8.87L12.27 9.36C12.26 9.38 12.24 9.39 12.22 9.39Z" fill="#630810"/>
<path d="M12.43 9.16H12.43C12.39 9.16 12.36 9.13 12.37 9.10L12.38 8.78C12.38 8.75 12.41 8.72 12.44 8.72C12.48 8.72 12.50 8.75 12.50 8.79L12.49 9.10C12.49 9.13 12.46 9.16 12.43 9.16Z" fill="#630810"/>
<path d="M13.23 9.39C13.21 9.39 13.19 9.38 13.18 9.36L12.79 8.85C12.77 8.83 12.78 8.79 12.81 8.77C12.83 8.75 12.87 8.75 12.89 8.78L13.28 9.29C13.30 9.31 13.29 9.35 13.26 9.37C13.25 9.38 13.24 9.39 13.23 9.39Z" fill="#630810"/>
<path d="M12.84 9.39C12.83 9.39 12.82 9.38 12.80 9.37C12.78 9.35 12.77 9.31 12.80 9.28L13.21 8.79C13.23 8.76 13.27 8.76 13.30 8.78C13.33 8.80 13.33 8.84 13.31 8.87L12.89 9.36C12.88 9.38 12.86 9.39 12.84 9.39Z" fill="#630810"/>
<path d="M13.05 9.16H13.05C13.02 9.16 12.99 9.13 12.99 9.10L13.00 8.78C13.00 8.75 13.03 8.72 13.07 8.72C13.10 8.72 13.13 8.75 13.13 8.79L13.12 9.10C13.11 9.13 13.09 9.16 13.05 9.16Z" fill="#630810"/>
</g>
<rect x="0.25" y="0.25" width="23.5" height="17.5" rx="1.75" stroke="#DDE0EA" stroke-width="0.5" style="fill-opacity:0"/>
<defs>
<clipPath id="clip0_1259_7267">
<rect width="24" height="18" rx="2" fill="white"/>
</clipPath>
</defs>
</svg>
