<svg width="24" height="18" viewBox="0 0 24 18" fill="none" xmlns="http://www.w3.org/2000/svg">
<g clip-path="url(#clip0_1259_7267)">
<path d="M0 0H24V18H0V0Z" fill="#CE1126"/>
<path d="M0 4.5H24V13.5H0V4.5Z" fill="white"/>
<path d="M10.1903 8.54985V8.2902L10.8473 8.56875L10.1903 8.54985Z" fill="#FF9C10"/>
<path d="M10.1904 8.16015V7.72725C10.1904 7.72725 10.1139 7.73805 10.1247 7.65165C10.1283 7.4712 10.6058 7.98105 10.8501 8.14665L10.8447 8.49315L10.1904 8.16015Z" fill="#FF9C10"/>
<path d="M9.39077 9.63211V8.77711L8.01094 8.72563L8.04498 9.63211H9.39077Z" fill="#FF9C10"/>
<path d="M9.41288 8.58225L9.40209 7.9761L8.27946 7.54554L8.04492 8.43939L9.41288 8.58225Z" fill="#FF9C10"/>
<path d="M9.36875 7.77088L9.52985 7.60483C9.52985 7.60483 9.4259 7.53418 9.4313 7.46938C9.4331 7.40368 9.5357 7.39378 9.5375 7.32223C9.5393 7.25653 9.4214 7.24843 9.42005 7.18273C9.4124 7.11163 9.51095 7.03513 9.51095 7.03513L8.85261 6.51564L8.39186 7.30427L9.36875 7.77088Z" fill="#FF9C10"/>
<path d="M14.1868 9.63211L14.176 8.79871L15.6791 8.72564L15.6434 9.63166L14.1868 9.63211Z" fill="#FF9C10"/>
<path d="M15.6791 8.42836C15.6606 8.2929 15.6413 8.15791 15.6102 8.02561C15.5684 7.84786 15.5148 7.67326 15.4496 7.50316C15.4446 7.49056 15.4374 7.47886 15.4325 7.46671L14.1873 7.98781L14.1986 8.60476L15.6791 8.42836Z" fill="#FF9C10"/>
<path d="M14.8046 6.44049C14.5562 6.62814 14.3312 6.80068 14.0828 6.98833C14.0842 7.04233 14.1377 7.08373 14.1526 7.13548C14.1868 7.20793 14.1184 7.27183 14.0761 7.32313C14.0419 7.37038 14.1157 7.39423 14.1404 7.42213C14.1944 7.47748 14.1476 7.56478 14.0896 7.59718C14.1589 7.63858 14.194 7.71643 14.2093 7.79293C14.581 7.59943 14.9531 7.40593 15.3248 7.21243C15.1912 6.93118 15.0021 6.68124 14.8046 6.44049Z" fill="#FF9C10"/>
<path d="M13.3768 8.56068L13.3876 8.31183L12.7527 8.58768L13.3768 8.56068Z" fill="#FF9C10"/>
<path d="M12.7496 8.17095C12.7496 8.17095 13.3409 7.64355 13.4669 7.5459C13.4669 7.65435 13.3985 7.73805 13.3985 7.73805V8.14935L12.7523 8.4522L12.7496 8.17095Z" fill="#FF9C10"/>
<path d="M9.09035 6.26431L9.58331 6.81016C9.60176 6.74221 9.75206 6.73186 9.90551 6.74266C10.059 6.75346 10.1809 6.73231 10.1809 6.84076C10.1809 6.94921 10.1031 6.93346 10.1031 7.00951C10.1031 7.08556 10.2196 7.07881 10.2196 7.17601C10.2196 7.27321 10.135 7.25341 10.1346 7.32901C10.1346 7.39156 10.2228 7.39471 10.2228 7.39471L10.8442 7.99006L10.8469 7.35421L9.77308 5.69417L9.09035 6.26431Z" fill="#FF9C10"/>
<path d="M10.0453 5.48896L10.8127 7.08421C10.8127 7.08421 10.8226 5.46511 10.9689 5.37871L10.9153 5.19489L10.0453 5.48896Z" fill="#FF9C10"/>
<path d="M12.7458 5.14426C12.6378 5.51776 12.5298 5.89081 12.4218 6.26431C12.5226 6.27646 12.6248 6.27961 12.7265 6.27376C12.8178 6.28141 12.7467 6.36736 12.7517 6.41776C12.7512 6.64726 12.7508 6.87676 12.7503 7.10626C13.0554 6.56716 13.361 6.02806 13.6661 5.48896C13.4555 5.37916 13.2323 5.29726 13.0073 5.22256C12.9213 5.19241 12.834 5.16631 12.7458 5.14426Z" fill="#FF9C10"/>
<path d="M13.8858 5.61227L12.7531 7.35332L12.7518 8.02382C13.0038 7.78397 13.2576 7.54502 13.5087 7.30427C13.5564 7.23677 13.357 7.20347 13.4569 7.12112C13.5469 7.09277 13.5622 6.94697 13.4673 6.91907C13.389 6.80432 13.5379 6.74312 13.632 6.75572C13.7629 6.76157 13.8975 6.72737 14.0253 6.76337C14.0955 6.83087 14.1607 6.66167 14.2296 6.62387C14.3664 6.48662 14.4821 6.40336 14.6171 6.26431C14.3943 6.03256 14.1616 5.77742 13.8858 5.61227Z" fill="#FF9C10"/>
<path d="M10.9637 12.373C10.6852 12.3887 10.4075 12.5768 10.2775 12.6772C10.511 12.7793 10.7603 12.859 11.0254 12.9139C11.4479 12.985 11.8705 12.9845 12.293 12.9845C12.3619 12.976 12.4303 12.9661 12.4973 12.9548L13.3874 12.6547C13.3874 12.6547 12.959 12.3721 12.6197 12.3842C12.2804 12.3964 12.0509 12.7285 11.7773 12.7042C11.5037 12.6799 11.3939 12.373 10.9997 12.373C10.9876 12.373 10.9759 12.3721 10.9637 12.373Z" fill="#083D9C"/>
<path d="M12.2759 13.0305C11.8641 13.0305 11.4384 13.03 11.0181 12.9594C10.7531 12.9049 10.4984 12.8244 10.259 12.7195L10.1874 12.688L10.2491 12.6403C10.3917 12.5301 10.6734 12.3429 10.961 12.3262C10.9704 12.3258 10.9794 12.3262 10.9889 12.3262H11.0001C11.2368 12.3262 11.3777 12.4297 11.5019 12.5211C11.5946 12.589 11.6747 12.648 11.7818 12.6574C11.9028 12.6682 12.0221 12.5958 12.1485 12.5188C12.2831 12.4369 12.4361 12.3438 12.6183 12.3375C12.9684 12.324 13.395 12.6039 13.413 12.6156L13.4922 12.6678L12.5049 12.9999C12.4392 13.0107 12.3699 13.0206 12.2988 13.0296H12.284C12.2808 13.0296 12.2781 13.0296 12.275 13.0296L12.2759 13.0305ZM10.3701 12.666C10.5816 12.7528 10.8053 12.8208 11.0348 12.8685C11.4488 12.9378 11.8731 12.9378 12.2844 12.9378H12.2903C12.3578 12.9292 12.4239 12.9198 12.486 12.9094L13.278 12.6426C13.1394 12.5638 12.8546 12.4216 12.6215 12.4302C12.4631 12.436 12.3276 12.5184 12.1962 12.598C12.0567 12.6831 11.9244 12.7632 11.7732 12.7497C11.6405 12.738 11.5464 12.6687 11.4465 12.5958C11.3282 12.5089 11.2058 12.4189 10.9997 12.4189H10.9866C10.9799 12.4189 10.9727 12.4189 10.9659 12.4189C10.7409 12.4315 10.5146 12.5634 10.3701 12.666Z" fill="#083D9C"/>
<path d="M14.4079 12.1642C14.4079 12.1642 13.97 11.6989 13.4552 11.6881C12.9404 11.6773 13.0831 11.9046 12.6889 11.937C12.2947 11.9694 12.1961 11.6989 11.8348 11.7097C11.4734 11.7205 11.2655 11.937 10.9915 11.9478C10.7179 11.9586 10.3673 11.6773 10.1594 11.6881C9.95154 11.6989 9.20679 12.0126 9.20679 12.0126L9.34899 12.1426L14.4079 12.1642Z" fill="#083D9C"/>
<path d="M14.5085 12.2079L9.33128 12.1858L9.12653 11.9991L9.18908 11.9725C9.21968 11.9595 9.94328 11.6557 10.1566 11.6445C10.2646 11.6386 10.3991 11.7003 10.5409 11.7655C10.6948 11.8362 10.8541 11.91 10.9891 11.9041C11.1074 11.8996 11.2168 11.8519 11.3324 11.8015C11.4719 11.7408 11.6299 11.6719 11.8324 11.6661C12.0169 11.6607 12.1366 11.7237 12.2527 11.7844C12.3751 11.8488 12.4912 11.9095 12.6842 11.8933C12.8485 11.8798 12.9101 11.8312 12.9758 11.7799C13.0645 11.7102 13.1563 11.6382 13.4551 11.6445C13.982 11.6557 14.4203 12.1147 14.4383 12.1345L14.5076 12.2083L14.5085 12.2079ZM9.36503 12.099L14.2975 12.1201C14.1517 11.9914 13.82 11.739 13.4537 11.7313C13.186 11.7255 13.1104 11.7853 13.0298 11.8483C12.9569 11.9055 12.8818 11.9644 12.6919 11.9802C12.4736 11.9982 12.3409 11.9289 12.2131 11.8614C12.1019 11.8033 11.9971 11.7484 11.8355 11.7529C11.6497 11.7583 11.5061 11.8209 11.3675 11.8812C11.2442 11.9347 11.1272 11.9856 10.9927 11.991C10.8374 11.9968 10.6678 11.9194 10.5044 11.8447C10.3726 11.784 10.2479 11.7268 10.1606 11.7313C9.99683 11.7399 9.46853 11.9514 9.28538 12.0265L9.36503 12.099Z" fill="#083D9C"/>
<path d="M8.70223 11.5469L14.9437 11.5685C15.0423 11.4276 14.6373 11.0924 14.2647 11.06C13.9578 11.0708 13.7391 11.3736 13.4871 11.3849C13.2351 11.3957 12.9507 11.0708 12.6658 11.082C12.381 11.0928 12.0853 11.3849 11.8009 11.3849C11.5165 11.3849 11.3082 11.0708 10.9468 11.0708C10.5855 11.0708 10.4212 11.4173 10.1476 11.3957C9.87403 11.3741 9.63283 11.0492 9.37003 11.0492C9.10723 11.0492 8.66938 11.4389 8.58163 11.4173C8.49388 11.3957 8.70223 11.5469 8.70223 11.5469Z" fill="#083D9C"/>
<path d="M14.9662 11.6121H14.9437L8.68776 11.5901L8.67651 11.582C8.49696 11.4515 8.50866 11.4263 8.52126 11.3993C8.52801 11.3853 8.54601 11.3633 8.59236 11.3745C8.61756 11.3745 8.72016 11.3093 8.80296 11.2571C8.98071 11.145 9.20166 11.0055 9.37041 11.0055C9.51756 11.0055 9.65481 11.096 9.78711 11.1833C9.90591 11.2616 10.0283 11.3426 10.1512 11.352C10.2668 11.361 10.3631 11.294 10.4743 11.2161C10.6012 11.1275 10.7452 11.0271 10.9472 11.0271C11.1493 11.0271 11.309 11.1212 11.449 11.204C11.5678 11.2742 11.6794 11.3408 11.8013 11.3408C11.9359 11.3408 12.0817 11.2661 12.2225 11.1936C12.3665 11.1198 12.5155 11.0433 12.6649 11.0375C12.8242 11.0316 12.9758 11.118 13.123 11.2013C13.253 11.2751 13.3768 11.3453 13.4861 11.3403C13.5937 11.3358 13.7003 11.2683 13.8133 11.1968C13.9496 11.1104 14.0909 11.0213 14.2637 11.0154H14.2691C14.5729 11.042 14.9018 11.2629 14.9824 11.4357C15.0179 11.5118 15.0004 11.5631 14.9797 11.5923L14.9666 11.6108L14.9662 11.6121ZM8.71611 11.5032L14.9149 11.5248C14.9167 11.5109 14.9126 11.4938 14.9032 11.4735C14.8343 11.3255 14.5342 11.1284 14.2637 11.1036C14.1152 11.1099 13.9852 11.1918 13.8592 11.2715C13.7363 11.3493 13.6202 11.4227 13.4893 11.4281C13.3552 11.4339 13.2211 11.3579 13.0798 11.2778C12.9434 11.2004 12.8021 11.1198 12.668 11.1252C12.538 11.1302 12.3976 11.2022 12.2621 11.2719C12.1123 11.3489 11.957 11.4285 11.8013 11.4285C11.6555 11.4285 11.5336 11.3561 11.4044 11.2796C11.2681 11.1986 11.1268 11.1149 10.9472 11.1149C10.7677 11.1149 10.6462 11.2031 10.5242 11.2881C10.4041 11.3718 10.2911 11.451 10.1444 11.4393C9.99951 11.4281 9.86721 11.3408 9.73941 11.2566C9.61206 11.1725 9.49146 11.0933 9.37041 11.0933C9.22686 11.0933 9.00861 11.231 8.84931 11.3318C8.75571 11.3907 8.69271 11.4299 8.64636 11.4488C8.66751 11.4663 8.69271 11.4861 8.71701 11.5041L8.71611 11.5032Z" fill="#083D9C"/>
<path d="M11.1144 10.9504L12.5076 10.9495C12.5076 10.9495 12.1958 10.4739 11.811 10.5067C11.3826 10.518 11.1144 10.9504 11.1144 10.9504Z" fill="#083D9C"/>
<path d="M11.0361 10.994L11.0775 10.9274C11.0888 10.909 11.3637 10.4747 11.8101 10.4635C12.2138 10.4297 12.5306 10.9058 12.5441 10.9261L12.5882 10.9931L11.0361 10.994ZM11.8493 10.5485C11.838 10.5485 11.8263 10.549 11.8151 10.5499C11.5136 10.5575 11.2926 10.7893 11.1999 10.9067L12.4217 10.9058C12.3263 10.7861 12.104 10.5485 11.8493 10.5485Z" fill="#083D9C"/>
<path d="M15.5582 10.917H13.6516C13.6516 10.917 13.8981 10.773 13.9656 10.6398C14.0889 10.7064 14.0552 10.773 14.3022 10.7838C14.5489 10.7951 14.7847 10.5066 15.02 10.5179C15.2554 10.5291 15.5582 10.917 15.5582 10.917Z" fill="#083D9C"/>
<path d="M15.6473 10.9607H13.4914L13.63 10.8797C13.6957 10.8414 13.8766 10.7199 13.927 10.6205L13.9472 10.5809L13.9864 10.602C14.0296 10.6254 14.0557 10.6484 14.0782 10.6691C14.12 10.7069 14.1506 10.7343 14.3041 10.7411C14.4161 10.7465 14.5336 10.6776 14.647 10.6119C14.7676 10.5417 14.8922 10.4693 15.0218 10.4751C15.2743 10.4868 15.5794 10.8743 15.5924 10.8909L15.6473 10.9607ZM13.7956 10.8738H15.4651C15.3553 10.751 15.1627 10.5687 15.0182 10.5615C14.9138 10.5566 14.8058 10.6196 14.6911 10.6866C14.5664 10.7591 14.4377 10.8338 14.3005 10.8275C14.1281 10.8198 14.0795 10.787 14.0201 10.7334C14.008 10.7226 13.9954 10.7114 13.9796 10.7001C13.9337 10.7645 13.8595 10.827 13.7956 10.8738Z" fill="#083D9C"/>
<path d="M8.04498 10.9169H9.95163C9.95163 10.9169 9.70503 10.7729 9.63753 10.6397C9.51423 10.7063 9.54798 10.7729 9.30093 10.7837C9.05433 10.7949 8.81853 10.5065 8.58318 10.5177C8.34783 10.529 8.04498 10.9169 8.04498 10.9169Z" fill="#083D9C"/>
<path d="M9.95168 10.9606H7.95593L8.01083 10.8904C8.02388 10.8737 8.32898 10.4867 8.58143 10.4746C8.71193 10.4683 8.83568 10.5412 8.95628 10.6114C9.06968 10.6775 9.18713 10.7455 9.29918 10.7405C9.45263 10.7338 9.48323 10.7063 9.52508 10.6685C9.54758 10.6483 9.57368 10.6249 9.61688 10.6015L9.65603 10.5803L9.67628 10.6199C9.72668 10.7194 9.90803 10.8409 9.97328 10.8791L10.1119 10.9601L9.95168 10.9606ZM8.13863 10.8737H9.80813C9.74423 10.8269 9.66998 10.7644 9.62408 10.7C9.60833 10.7113 9.59618 10.7225 9.58358 10.7333C9.52418 10.7869 9.47558 10.8197 9.30323 10.8274C9.16508 10.8337 9.03728 10.7585 8.91263 10.6865C8.79788 10.6199 8.68943 10.5569 8.58548 10.5614C8.44103 10.5682 8.24798 10.7509 8.13863 10.8737Z" fill="#083D9C"/>
<path d="M9.54522 10.3355C9.54522 10.3355 9.45747 10.1514 9.44667 9.92419C9.09612 9.80539 8.81172 10.1838 8.55972 10.1946C8.30772 10.2054 8.04492 9.92419 8.04492 9.92419L8.18712 10.3247L9.54522 10.3355Z" fill="#083D9C"/>
<path d="M9.61401 10.3791L8.15646 10.3674L8.00391 9.93815L8.07681 9.89404C8.07951 9.89674 8.32971 10.1622 8.55786 10.151C8.64606 10.1474 8.74641 10.0884 8.85261 10.0259C9.02901 9.92195 9.22926 9.80405 9.46056 9.8828L9.48846 9.89225L9.48981 9.92195C9.50016 10.137 9.58341 10.3148 9.58431 10.3166L9.61401 10.3791ZM8.21811 10.281L9.47991 10.2909C9.45381 10.2212 9.41601 10.0988 9.40476 9.95659C9.22206 9.90889 9.05646 10.0061 8.89626 10.1006C8.78061 10.1685 8.67126 10.2329 8.56101 10.2378C8.40441 10.2446 8.24781 10.151 8.14251 10.0691L8.21811 10.281Z" fill="#083D9C"/>
<path d="M15.4365 10.3247L14.0789 10.3355C14.0789 10.3355 14.1666 10.1514 14.1774 9.92419C14.528 9.80539 14.8124 10.1838 15.0644 10.1946C15.3164 10.2054 15.5792 9.92419 15.5792 9.92419L15.4365 10.3247Z" fill="#083D9C"/>
<path d="M14.0096 10.3791L14.0393 10.3166C14.0393 10.3166 14.1234 10.137 14.1338 9.92195L14.1351 9.89225L14.163 9.8828C14.3943 9.80405 14.5946 9.92195 14.771 10.0259C14.8772 10.0884 14.9775 10.1474 15.0657 10.151C15.2939 10.1618 15.5441 9.89674 15.5468 9.89404L15.6197 9.93815L15.4671 10.367L14.0096 10.3791ZM14.2188 9.95705C14.208 10.0992 14.1698 10.2216 14.1437 10.2914L15.4055 10.2815L15.4806 10.0695C15.3753 10.151 15.2192 10.2441 15.0621 10.2383C14.9519 10.2333 14.8425 10.1694 14.7269 10.101C14.5667 10.0065 14.4015 9.90935 14.2188 9.95705Z" fill="#083D9C"/>
<path d="M11.4605 10.3357H12.1503C12.1503 10.3357 12.1611 10.1085 11.7998 10.1085C11.4384 10.1085 11.4605 10.3357 11.4605 10.3357Z" fill="#083D9C"/>
<path d="M12.1917 10.3794H11.4209L11.4173 10.3398C11.4173 10.3362 11.4092 10.2489 11.4785 10.1728C11.5437 10.1013 11.6517 10.0648 11.8002 10.0648C11.9487 10.0648 12.0576 10.1008 12.126 10.1724C12.1976 10.2475 12.1944 10.3344 12.1944 10.338L12.1917 10.3794ZM11.5091 10.2921H12.0995C12.0932 10.2741 12.0819 10.252 12.0617 10.2309C12.0113 10.1791 11.9208 10.1517 11.8002 10.1517C11.6796 10.1517 11.5919 10.1787 11.5442 10.23C11.5244 10.2511 11.5145 10.2736 11.5091 10.2921Z" fill="#083D9C"/>
<path d="M11.0983 8.11721L12.5329 8.49611V6.47246C11.8759 6.50486 11.3282 5.23856 12.4892 5.15216C11.3503 4.98971 11.2189 5.28221 11.0875 5.59586L11.0983 8.11721Z" fill="#CE1126"/>
<path d="M12.5331 8.53929C12.5295 8.53929 12.5254 8.53884 12.5218 8.53794L11.0872 8.15904C11.0683 8.15409 11.0548 8.13699 11.0548 8.11719L11.044 5.59539C11.044 5.58954 11.0449 5.58369 11.0472 5.57829C11.1786 5.26464 11.3145 4.94019 12.4948 5.10849C12.5169 5.11164 12.5331 5.13099 12.5322 5.15304C12.5313 5.17509 12.5142 5.19309 12.4921 5.19489C12.0687 5.22639 11.8369 5.42664 11.8563 5.74389C11.8765 6.06789 12.1821 6.44679 12.5304 6.42834C12.5425 6.42789 12.5538 6.43194 12.5623 6.44049C12.5709 6.44904 12.5758 6.46029 12.5758 6.47199V8.49564C12.5758 8.50914 12.5695 8.52174 12.5587 8.53029C12.5511 8.53614 12.5425 8.53929 12.5331 8.53929ZM11.1417 8.08344L12.4894 8.43939V6.51564C12.1069 6.50394 11.7919 6.10569 11.7699 5.74929C11.7523 5.46489 11.9094 5.25699 12.201 5.16159C11.3559 5.08779 11.2425 5.33754 11.1309 5.60394L11.1417 8.08344Z" fill="#630810"/>
<path d="M11.4176 9.94643C11.1057 10.4572 10.2714 10.3055 10.0766 9.94913C10.0181 9.93293 10.0527 7.74908 10.0527 7.74908C10.0527 7.74908 9.95956 7.70723 9.95506 7.64018C9.951 7.57223 10.082 7.56638 10.082 7.47953C10.082 7.39268 9.9483 7.42688 9.9456 7.33958C9.94605 7.25633 10.0883 7.26758 10.082 7.19063C10.0743 7.10378 9.92265 7.11638 9.91635 7.03628C9.9114 6.97283 10.0248 6.91703 10.0563 6.88868L9.95055 6.88733L9.7116 6.89228C9.54195 6.89228 9.71475 6.92873 9.71205 7.02548C9.7107 7.08893 9.6261 7.13078 9.61845 7.18568C9.61575 7.24193 9.7395 7.28198 9.74085 7.34948C9.7422 7.40978 9.61935 7.41383 9.62385 7.47008C9.6315 7.56503 9.73275 7.58618 9.73095 7.64378C9.7296 7.70138 9.5946 7.72298 9.5946 7.76888C9.5991 7.85753 9.61395 10.0139 9.61395 10.0139C9.8286 11.1124 11.0661 11.3918 11.4176 9.94643Z" fill="#CE1126"/>
<path d="M10.5124 10.979C10.5066 10.979 10.5007 10.979 10.4953 10.979C10.0593 10.9691 9.67903 10.5758 9.57103 10.0223C9.57058 10.0196 9.57013 10.0169 9.57013 10.0142C9.57013 9.99264 9.55528 7.85784 9.55078 7.77099C9.55078 7.72104 9.59623 7.69674 9.63583 7.67514C9.65248 7.66614 9.68308 7.64949 9.68758 7.64004C9.68758 7.63599 9.67003 7.62024 9.65878 7.60989C9.62773 7.58154 9.58543 7.54284 9.58003 7.47354C9.57553 7.41684 9.62638 7.39074 9.65968 7.37319C9.67183 7.36689 9.69388 7.35519 9.69748 7.34889C9.69658 7.33494 9.66823 7.31154 9.64708 7.29399C9.61198 7.26519 9.57238 7.23234 9.57463 7.18329C9.58048 7.14099 9.60658 7.11084 9.62998 7.08474C9.64843 7.06359 9.66778 7.04199 9.66823 7.02399C9.66868 7.00059 9.64573 6.97899 9.62728 6.96189C9.60838 6.94434 9.58273 6.92004 9.59623 6.88674C9.61153 6.84849 9.65968 6.84849 9.71098 6.84849L9.94903 6.84354L10.0566 6.84489C10.0746 6.84489 10.0903 6.85614 10.0966 6.87279C10.1029 6.88944 10.0984 6.90834 10.0854 6.92049C10.0755 6.92949 10.0615 6.93894 10.0453 6.94974C10.0215 6.96594 9.95758 7.00959 9.95938 7.03254C9.96028 7.04514 9.98143 7.05549 10.0138 7.06989C10.0584 7.08969 10.1191 7.11669 10.125 7.18644C10.1304 7.25439 10.0737 7.28229 10.0363 7.30074C10.0008 7.31829 9.98908 7.32639 9.98863 7.33944C9.98863 7.34979 9.99313 7.35429 10.03 7.36869C10.0656 7.38264 10.125 7.40604 10.125 7.47894C10.125 7.55184 10.071 7.58289 10.035 7.60629C10.021 7.61529 9.99763 7.63014 9.99808 7.63689C9.99988 7.66749 10.0485 7.69944 10.0701 7.70889C10.0858 7.71609 10.0962 7.73184 10.0957 7.74939C10.0836 8.53059 10.0768 9.79824 10.1106 9.92199C10.1119 9.92379 10.1133 9.92559 10.1142 9.92784C10.2082 10.0997 10.4692 10.2244 10.7487 10.2311C11.0263 10.237 11.2567 10.1254 11.38 9.92334C11.3913 9.90489 11.4138 9.89769 11.4336 9.90579C11.4534 9.91389 11.4642 9.93549 11.4592 9.95619C11.3035 10.5979 10.9507 10.979 10.5124 10.979ZM9.65698 10.0093C9.75823 10.5205 10.1034 10.8832 10.4971 10.8922C10.8535 10.8998 11.1537 10.619 11.3193 10.1294C11.1739 10.2568 10.9741 10.3238 10.7469 10.3184C10.4422 10.3112 10.1551 10.1717 10.0431 9.97869C10.0129 9.94089 9.99673 9.77169 9.99898 8.84289C10.0003 8.36904 10.0066 7.89069 10.0084 7.77504C9.97333 7.75389 9.91573 7.70934 9.91123 7.64274C9.90763 7.58514 9.95398 7.55499 9.98773 7.53339C10.0219 7.51134 10.0377 7.49919 10.0377 7.47939C10.0377 7.46904 10.0359 7.46499 9.99808 7.45014C9.96253 7.43619 9.90358 7.41324 9.90133 7.34079C9.90178 7.27014 9.95938 7.24179 9.99718 7.22289C10.026 7.20894 10.0386 7.20129 10.0377 7.19364C10.0363 7.17744 10.0188 7.16754 9.97783 7.14909C9.93553 7.13019 9.87703 7.10454 9.87208 7.03929C9.86893 6.99564 9.89368 6.96009 9.92608 6.93039L9.72088 6.93444C9.73933 6.95784 9.75508 6.98754 9.75418 7.02579C9.75283 7.07529 9.72043 7.11219 9.69388 7.14189C9.67993 7.15719 9.66463 7.17474 9.66103 7.18734C9.66553 7.19679 9.68803 7.21524 9.70153 7.22694C9.73708 7.25664 9.78163 7.29309 9.78298 7.34799C9.78433 7.40559 9.73303 7.43259 9.69883 7.45014C9.68848 7.45554 9.67183 7.46409 9.66598 7.46994C9.67003 7.50324 9.69163 7.52304 9.71638 7.54599C9.74203 7.56939 9.77398 7.59909 9.77308 7.64454C9.77173 7.69989 9.71863 7.72869 9.67633 7.75164C9.66418 7.75839 9.64483 7.76874 9.63718 7.77549C9.64213 7.92534 9.65608 9.87744 9.65698 10.0093Z" fill="#630810"/>
<path d="M12.2332 9.94643C12.5451 10.4572 13.3794 10.3055 13.5742 9.94913C13.6327 9.93293 13.5981 7.74908 13.5981 7.74908C13.5981 7.74908 13.6912 7.70723 13.6957 7.64018C13.6998 7.57223 13.5774 7.56638 13.5774 7.47953C13.5774 7.39268 13.7029 7.42688 13.7056 7.33958C13.7052 7.25633 13.5738 7.26218 13.5801 7.18523C13.5877 7.09838 13.6908 7.10828 13.6966 7.02818C13.7016 6.95933 13.6318 6.91703 13.6003 6.88868L13.7007 6.88733L13.9396 6.89228C14.1093 6.89228 13.9365 6.92873 13.9396 7.02548C13.941 7.08893 14.0256 7.13078 14.0332 7.18568C14.0359 7.24193 13.9122 7.28198 13.9108 7.34948C13.9095 7.40978 14.0323 7.41383 14.0278 7.47008C14.0202 7.56503 13.9189 7.58618 13.9207 7.64378C13.9221 7.70138 14.0571 7.72298 14.0571 7.76888C14.0526 7.85753 14.0377 10.0139 14.0377 10.0139C13.8231 11.1124 12.5847 11.3918 12.2332 9.94643Z" fill="#CE1126"/>
<path d="M13.1385 10.979C12.7007 10.979 12.3474 10.5983 12.1913 9.95664C12.1863 9.93594 12.1971 9.91434 12.2169 9.90624C12.2367 9.89814 12.2597 9.90534 12.2705 9.92379C12.3942 10.1263 12.6237 10.2374 12.9018 10.2316C13.1813 10.2248 13.4423 10.1002 13.5363 9.92829C13.5372 9.92649 13.5386 9.92424 13.5399 9.92244C13.5737 9.79869 13.5669 8.53104 13.5548 7.74984C13.5548 7.73229 13.5647 7.71654 13.5804 7.70934C13.6029 7.69899 13.6506 7.66749 13.6524 7.63734C13.6529 7.62969 13.6344 7.61709 13.6182 7.60584C13.5845 7.58289 13.5341 7.54779 13.5341 7.47939C13.5341 7.40694 13.5903 7.38354 13.6241 7.36959C13.6587 7.35519 13.6619 7.35114 13.6623 7.33809C13.6623 7.32504 13.6515 7.31649 13.6178 7.29714C13.5831 7.27734 13.5314 7.24719 13.5368 7.18149C13.5422 7.11624 13.5849 7.08789 13.6164 7.06674C13.6434 7.04874 13.652 7.04154 13.6533 7.02489C13.6556 6.99249 13.6281 6.96729 13.5917 6.93759C13.584 6.93129 13.5773 6.92589 13.5714 6.92049C13.5584 6.90834 13.5539 6.88944 13.5602 6.87279C13.5665 6.85614 13.5822 6.84489 13.6002 6.84489L13.7006 6.84354L13.9409 6.84849C13.9913 6.84849 14.0399 6.84849 14.0547 6.88674C14.0682 6.92049 14.0426 6.94434 14.0237 6.96189C14.0052 6.97899 13.9823 7.00059 13.9827 7.02399C13.9827 7.04199 14.0025 7.06359 14.021 7.08474C14.0444 7.11084 14.0705 7.14054 14.0759 7.17924C14.0786 7.23234 14.039 7.26519 14.0039 7.29399C13.9832 7.31109 13.9544 7.33494 13.9539 7.35024C13.9571 7.35519 13.9791 7.36689 13.9913 7.37319C14.0246 7.39074 14.0754 7.41684 14.0709 7.47354C14.0655 7.54284 14.0232 7.58154 13.9922 7.60989C13.9809 7.62024 13.9638 7.63599 13.9638 7.64229C13.9679 7.64949 13.9985 7.66614 14.0151 7.67514C14.0547 7.69674 14.0997 7.72104 14.1002 7.76829C14.0957 7.85739 14.0808 9.99264 14.0808 10.0142C14.0808 10.0169 14.0808 10.0196 14.0799 10.0223C13.9719 10.5758 13.5917 10.9691 13.1556 10.9795C13.1498 10.9795 13.1439 10.979 13.1385 10.979ZM12.3317 10.1294C12.4973 10.619 12.7965 10.8994 13.1538 10.8922C13.5476 10.8832 13.8927 10.5205 13.994 10.0093C13.9949 9.87834 14.0084 7.94469 14.0133 7.77504C14.0057 7.76829 13.9868 7.75839 13.9742 7.75119C13.9314 7.72824 13.8788 7.69944 13.8774 7.64409C13.8761 7.59864 13.908 7.56894 13.9341 7.54554C13.9589 7.52259 13.9809 7.50279 13.9845 7.46949C13.9787 7.46364 13.962 7.45509 13.9517 7.44969C13.9175 7.43214 13.8662 7.40514 13.8675 7.34754C13.8689 7.29264 13.9134 7.25619 13.949 7.22649C13.9629 7.21524 13.9854 7.19634 13.9895 7.18734C13.9854 7.17474 13.9701 7.15764 13.9566 7.14189C13.9305 7.11219 13.8977 7.07529 13.8963 7.02579C13.8954 6.98799 13.9112 6.95784 13.9296 6.93444L13.7082 6.92994C13.7285 6.95649 13.7429 6.98979 13.7402 7.03074C13.7357 7.09149 13.6947 7.11894 13.665 7.13874C13.6362 7.15809 13.6259 7.16664 13.6241 7.18824C13.6232 7.19679 13.6304 7.20309 13.6619 7.22154C13.6965 7.24179 13.7492 7.27194 13.7496 7.33899C13.7474 7.41234 13.6916 7.43574 13.6578 7.44969C13.6227 7.46454 13.6214 7.46814 13.6214 7.47939C13.6214 7.50009 13.6358 7.51179 13.6682 7.53429C13.7001 7.55634 13.7438 7.58604 13.7402 7.64274C13.7361 7.70889 13.6785 7.75344 13.643 7.77504C13.6448 7.89114 13.6515 8.36904 13.6524 8.84289C13.6547 9.77169 13.6385 9.94089 13.6083 9.97869C13.4963 10.1722 13.2092 10.3112 12.9045 10.3184C12.6768 10.3238 12.477 10.2563 12.3317 10.1294Z" fill="#630810"/>
<path d="M11.0441 10.0435C11.1647 9.97869 11.2741 9.91345 11.3506 9.76225L10.8799 9.77305C10.8799 9.77305 10.6612 9.9031 10.5514 10.0435H11.0441Z" fill="#630810"/>
<path d="M11.0599 10.1061H10.4227L10.5015 10.0048C10.6171 9.85631 10.8381 9.72446 10.8475 9.71861L10.8615 9.71006L11.4537 9.69656L11.4064 9.79016C11.3236 9.95397 11.2066 10.0269 11.0734 10.0984L11.0599 10.1061ZM10.6999 9.98051H11.0284C11.1103 9.93596 11.1783 9.89366 11.2336 9.82751L10.8984 9.83516C10.8655 9.85586 10.7787 9.91211 10.6999 9.98051Z" fill="#630810"/>
<path d="M12.5658 10.0435C12.4452 9.97869 12.3359 9.91345 12.2594 9.76225L12.7301 9.77305C12.7301 9.77305 12.9492 9.9031 13.0586 10.0435H12.5658Z" fill="#630810"/>
<path d="M13.187 10.1061H12.5498L12.5359 10.0984C12.4027 10.0269 12.2861 9.95397 12.2029 9.79016L12.1556 9.69656L12.7478 9.71006L12.7618 9.71861C12.7712 9.72401 12.9922 9.85631 13.1078 10.0048L13.187 10.1061ZM12.5818 9.98051H12.9103C12.8315 9.91166 12.7447 9.85586 12.7118 9.83516L12.3766 9.82751C12.4319 9.89366 12.4999 9.93596 12.5818 9.98051Z" fill="#630810"/>
<path d="M10.1885 9.58911L13.4299 9.59991L10.1885 9.58911Z" fill="#630810"/>
<path d="M13.4298 9.66247L10.1885 9.65167C10.1538 9.65167 10.1259 9.62332 10.1259 9.58867C10.1259 9.55402 10.1543 9.52612 10.1889 9.52612L13.4303 9.53692C13.4649 9.53692 13.4928 9.56527 13.4928 9.59992C13.4928 9.63457 13.4645 9.66247 13.4298 9.66247Z" fill="#630810"/>
<path d="M10.343 8.82104L10.7264 9.32955L10.343 8.82104Z" fill="#630810"/>
<path d="M10.7262 9.39251C10.7073 9.39251 10.6884 9.38396 10.6758 9.36731L10.2924 8.85881C10.2717 8.83091 10.2771 8.79176 10.3045 8.77106C10.3324 8.75036 10.3716 8.75576 10.3923 8.78321L10.7757 9.29171C10.7964 9.31961 10.791 9.35876 10.7635 9.37946C10.7523 9.38801 10.7392 9.39251 10.7262 9.39251Z" fill="#630810"/>
<path d="M10.3433 9.3294L10.7595 8.8317L10.3433 9.3294Z" fill="#630810"/>
<path d="M10.3433 9.39195C10.3289 9.39195 10.3149 9.387 10.3032 9.3771C10.2767 9.35505 10.2731 9.31545 10.2951 9.28845L10.7114 8.79075C10.7334 8.7642 10.773 8.7606 10.8 8.78265C10.8266 8.8047 10.8302 8.8443 10.8081 8.8713L10.3919 9.369C10.3793 9.38385 10.3613 9.39195 10.3433 9.39195Z" fill="#630810"/>
<path d="M10.5625 8.7882L10.5517 9.10185L10.5625 8.7882Z" fill="#630810"/>
<path d="M10.5515 9.16484H10.5493C10.5146 9.16349 10.4876 9.13469 10.4885 9.10004L10.4993 8.78639C10.5007 8.75174 10.5295 8.72474 10.5641 8.72564C10.5988 8.72699 10.6258 8.75579 10.6249 8.79044L10.6141 9.10409C10.6127 9.13784 10.5848 9.16484 10.5515 9.16484Z" fill="#630810"/>
<path d="M10.955 8.82108L11.3384 9.32958L10.955 8.82108Z" fill="#630810"/>
<path d="M11.3384 9.39257C11.3195 9.39257 11.3006 9.38402 11.288 9.36737L10.9046 8.85887C10.8839 8.83097 10.8893 8.79182 10.9168 8.77112C10.9442 8.75042 10.9838 8.75582 11.0045 8.78327L11.3879 9.29177C11.4086 9.31967 11.4032 9.35882 11.3758 9.37952C11.3645 9.38807 11.3515 9.39257 11.3384 9.39257Z" fill="#630810"/>
<path d="M10.9554 9.32945L11.3716 8.83175L10.9554 9.32945Z" fill="#630810"/>
<path d="M10.9553 9.39205C10.941 9.39205 10.927 9.3871 10.9153 9.3772C10.8888 9.35515 10.8851 9.31555 10.9072 9.28855L11.3234 8.79085C11.3455 8.7643 11.3851 8.7607 11.4121 8.78275C11.4387 8.8048 11.4423 8.8444 11.4202 8.8714L11.004 9.3691C10.9914 9.38395 10.9733 9.39205 10.9553 9.39205Z" fill="#630810"/>
<path d="M11.1739 8.78818L11.1631 9.10183L11.1739 8.78818Z" fill="#630810"/>
<path d="M11.1627 9.16483H11.1604C11.1258 9.16348 11.0988 9.13468 11.0997 9.10003L11.1105 8.78638C11.1118 8.75173 11.1411 8.72472 11.1753 8.72563C11.2099 8.72698 11.2369 8.75578 11.236 8.79043L11.2252 9.10408C11.2239 9.13783 11.196 9.16483 11.1627 9.16483Z" fill="#630810"/>
<path d="M11.5795 8.82106L11.9629 9.32956L11.5795 8.82106Z" fill="#630810"/>
<path d="M11.963 9.39255C11.9441 9.39255 11.9252 9.384 11.9126 9.36735L11.5292 8.85885C11.5085 8.83095 11.5139 8.7918 11.5413 8.7711C11.5692 8.7504 11.6084 8.7558 11.6291 8.78325L12.0125 9.29175C12.0332 9.31965 12.0278 9.3588 12.0003 9.3795C11.9891 9.38805 11.976 9.39255 11.963 9.39255Z" fill="#630810"/>
<path d="M11.58 9.32945L11.9963 8.83175L11.58 9.32945Z" fill="#630810"/>
<path d="M11.5799 9.39199C11.5655 9.39199 11.5516 9.38704 11.5399 9.37714C11.5133 9.35509 11.5097 9.31549 11.5318 9.28849L11.948 8.79079C11.9701 8.76424 12.0101 8.76064 12.0367 8.78269C12.0632 8.80474 12.0668 8.84434 12.0448 8.87134L11.6285 9.36904C11.6159 9.38389 11.5979 9.39199 11.5799 9.39199Z" fill="#630810"/>
<path d="M11.7984 8.78825L11.7876 9.1019L11.7984 8.78825Z" fill="#630810"/>
<path d="M11.7871 9.16488H11.7848C11.7502 9.16353 11.7232 9.13473 11.7241 9.10008L11.7349 8.78643C11.7362 8.75178 11.7664 8.72478 11.7997 8.72568C11.8343 8.72703 11.8613 8.75583 11.8604 8.79048L11.8496 9.10413C11.8483 9.13788 11.8204 9.16488 11.7871 9.16488Z" fill="#630810"/>
<path d="M12.2249 8.82109L12.6083 9.32959L12.2249 8.82109Z" fill="#630810"/>
<path d="M12.6078 9.39258C12.5889 9.39258 12.57 9.38403 12.5574 9.36738L12.174 8.85888C12.1533 8.83098 12.1587 8.79183 12.1862 8.77113C12.2136 8.75043 12.2532 8.75583 12.2739 8.78328L12.6573 9.29178C12.678 9.31968 12.6726 9.35883 12.6452 9.37953C12.6339 9.38808 12.6209 9.39258 12.6078 9.39258Z" fill="#630810"/>
<path d="M12.2251 9.32946L12.6413 8.83176L12.2251 9.32946Z" fill="#630810"/>
<path d="M12.2248 9.39207C12.2104 9.39207 12.1964 9.38711 12.1847 9.37721C12.1582 9.35516 12.1546 9.31557 12.1766 9.28856L12.5929 8.79086C12.6149 8.76431 12.6545 8.76071 12.6815 8.78276C12.7081 8.80481 12.7117 8.84441 12.6896 8.87141L12.2734 9.36911C12.2608 9.38396 12.2428 9.39207 12.2248 9.39207Z" fill="#630810"/>
<path d="M12.4439 8.78826L12.4331 9.10191L12.4439 8.78826Z" fill="#630810"/>
<path d="M12.4332 9.16484H12.431C12.3963 9.16349 12.3693 9.13469 12.3702 9.10004L12.381 8.78639C12.3823 8.75174 12.4111 8.72474 12.4458 8.72564C12.4804 8.72699 12.5075 8.75579 12.5065 8.79044L12.4958 9.10409C12.4944 9.13784 12.4665 9.16484 12.4332 9.16484Z" fill="#630810"/>
<path d="M12.8496 8.82109L13.233 9.32959L12.8496 8.82109Z" fill="#630810"/>
<path d="M13.2325 9.39258C13.2136 9.39258 13.1947 9.38403 13.1821 9.36738L12.7986 8.85888C12.7779 8.83098 12.7834 8.79183 12.8108 8.77113C12.8387 8.75043 12.8778 8.75583 12.8986 8.78328L13.2819 9.29178C13.3027 9.31968 13.2972 9.35883 13.2698 9.37953C13.2585 9.38808 13.2455 9.39258 13.2325 9.39258Z" fill="#630810"/>
<path d="M12.85 9.32946L13.2662 8.83176L12.85 9.32946Z" fill="#630810"/>
<path d="M12.8494 9.39207C12.835 9.39207 12.821 9.38711 12.8093 9.37721C12.7828 9.35516 12.7792 9.31557 12.8012 9.28856L13.2175 8.79086C13.2395 8.76431 13.2791 8.76071 13.3061 8.78276C13.3327 8.80481 13.3363 8.84441 13.3142 8.87141L12.898 9.36911C12.8854 9.38396 12.8674 9.39207 12.8494 9.39207Z" fill="#630810"/>
<path d="M13.0687 8.78826L13.0579 9.10191L13.0687 8.78826Z" fill="#630810"/>
<path d="M13.0577 9.16484H13.0554C13.0208 9.16349 12.9938 9.13469 12.9947 9.10004L13.0055 8.78639C13.0068 8.75174 13.0374 8.72474 13.0703 8.72564C13.1049 8.72699 13.1319 8.75579 13.131 8.79044L13.1202 9.10409C13.1189 9.13784 13.091 9.16484 13.0577 9.16484Z" fill="#630810"/>
</g>
<rect x="0.25" y="0.25" width="23.5" height="17.5" rx="1.75" stroke="#DDE0EA" stroke-width="0.5" style="fill-opacity:0"/>
<defs>
<clipPath id="clip0_1259_7267">
<rect width="24" height="18" rx="2" fill="white"/>
</clipPath>
</defs>
</svg>
