<svg width="24" height="18" viewBox="0 0 24 18" fill="none" xmlns="http://www.w3.org/2000/svg">
<g clip-path="url(#clip0_1002_27)">
<g clip-path="url(#clip1_1002_27)">
<rect width="24" height="18" fill="white"/>
<path d="M0 0H24V18H0V0Z" fill="white"/>
<path fill-rule="evenodd" clip-rule="evenodd" d="M10.2 0H13.8V7.20001H24V10.8H13.8V18H10.2V10.8H0V7.20001H10.2V0ZM5.6549 12.825C5.6549 12.825 5.5424 13.3613 5.5049 13.9913L5.50865 13.995C6.13865 13.9575 6.6749 13.845 6.6749 13.845C6.6749 13.845 6.6374 14.2163 6.6374 14.4C6.6374 14.5875 6.6749 14.955 6.6749 14.955C6.6749 14.955 6.13865 14.8425 5.5049 14.805C5.5424 15.4388 5.6549 15.975 5.6549 15.975C5.6549 15.975 5.3774 15.9375 5.0999 15.9375C4.8224 15.9375 4.5449 15.975 4.5449 15.975C4.5449 15.975 4.6574 15.4388 4.6949 14.805C4.06115 14.8425 3.5249 14.955 3.5249 14.955C3.5249 14.955 3.5624 14.6775 3.5624 14.4C3.5624 14.1225 3.5249 13.845 3.5249 13.845C3.5249 13.845 4.06115 13.9575 4.6949 13.995C4.6574 13.3613 4.5449 12.825 4.5449 12.825C4.5449 12.825 4.91615 12.8625 5.0999 12.8625C5.2874 12.8625 5.6549 12.825 5.6549 12.825ZM19.4549 2.02502C19.4549 2.02502 19.3424 2.56127 19.3049 3.19127V3.19502C19.9387 3.15752 20.4749 3.04502 20.4749 3.04502C20.4749 3.04502 20.4374 3.41627 20.4374 3.60002C20.4374 3.78377 20.4749 4.15877 20.4749 4.15877C20.4749 4.15877 19.9387 4.04627 19.3049 4.00877C19.3424 4.63877 19.4549 5.17502 19.4549 5.17502C19.4549 5.17502 19.1774 5.13752 18.8999 5.13752C18.6224 5.13752 18.3449 5.17502 18.3449 5.17502C18.3449 5.17502 18.4574 4.63877 18.4949 4.00502C17.8612 4.04252 17.3249 4.15502 17.3249 4.15502C17.3249 4.15502 17.3624 3.87752 17.3624 3.60002C17.3624 3.32252 17.3249 3.04502 17.3249 3.04502C17.3249 3.04502 17.8612 3.15377 18.4949 3.19127C18.4574 2.56127 18.3449 2.02502 18.3449 2.02502C18.3449 2.02502 18.7162 2.06252 18.8999 2.06252C19.0874 2.06252 19.4549 2.02502 19.4549 2.02502ZM5.6549 2.02502C5.6549 2.02502 5.5424 2.56127 5.5049 3.19127L5.50865 3.19502C6.13865 3.15752 6.6749 3.04502 6.6749 3.04502C6.6749 3.04502 6.6374 3.41627 6.6374 3.60002C6.6374 3.78752 6.6749 4.15502 6.6749 4.15502C6.6749 4.15502 6.13865 4.04252 5.5049 4.00502C5.5424 4.63877 5.6549 5.17502 5.6549 5.17502C5.6549 5.17502 5.3774 5.13752 5.0999 5.13752C4.8224 5.13752 4.5449 5.17502 4.5449 5.17502C4.5449 5.17502 4.6574 4.63877 4.6949 4.00502C4.06115 4.04252 3.5249 4.15502 3.5249 4.15502C3.5249 4.15502 3.5624 3.87752 3.5624 3.60002C3.5624 3.32252 3.5249 3.04502 3.5249 3.04502C3.5249 3.04502 4.06115 3.15752 4.6949 3.19502C4.6574 2.56127 4.5449 2.02502 4.5449 2.02502C4.5449 2.02502 4.91615 2.06252 5.0999 2.06252C5.2874 2.06252 5.6549 2.02502 5.6549 2.02502ZM19.4549 12.825C19.4549 12.825 19.3424 13.3613 19.3049 13.9913V13.995C19.9387 13.9575 20.4749 13.845 20.4749 13.845C20.4749 13.845 20.4374 14.2163 20.4374 14.4C20.4374 14.5875 20.4749 14.955 20.4749 14.955C20.4749 14.955 19.9387 14.8425 19.3049 14.805C19.3424 15.4388 19.4549 15.975 19.4549 15.975C19.4549 15.975 19.1774 15.9375 18.8999 15.9375C18.6224 15.9375 18.3449 15.975 18.3449 15.975C18.3449 15.975 18.4574 15.4388 18.4949 14.805C17.8612 14.8425 17.3249 14.955 17.3249 14.955C17.3249 14.955 17.3624 14.6775 17.3624 14.4C17.3624 14.1225 17.3249 13.845 17.3249 13.845C17.3249 13.845 17.8612 13.9575 18.4949 13.995C18.4574 13.3613 18.3449 12.825 18.3449 12.825C18.3449 12.825 18.7162 12.8625 18.8999 12.8625C19.0874 12.8625 19.4549 12.825 19.4549 12.825Z" fill="#FF0000"/>
</g>
</g>
<rect x="0.25" y="0.25" width="23.5" height="17.5" rx="1.75" stroke="#DDE0EA" stroke-width="0.5" style="fill-opacity:0"/>
<defs>
<clipPath id="clip0_1002_27">
<rect width="24" height="18" rx="2" fill="white"/>
</clipPath>
<clipPath id="clip1_1002_27">
<rect width="24" height="18" fill="white"/>
</clipPath>
</defs>
</svg>
