<svg width="24" height="18" viewBox="0 0 24 18" fill="none" xmlns="http://www.w3.org/2000/svg">
<g clip-path="url(#clip0_1257_29599)">
<path d="M24 0H0V18H24V0Z" fill="#DA000C"/>
<path d="M24 0H0V12H24V0Z" fill="white"/>
<path d="M12.5583 8.1776H8.05833V11.2706H12.5583V8.1776Z" fill="black"/>
<path d="M10.3967 10.8182H7.64957L7.04066 11.219V11.6437H10.3967" fill="#DA000C"/>
<path d="M10.4318 11.6788H7.00552V11.2L7.63903 10.7831H10.4318V10.8534H7.66013L7.07583 11.238V11.6085H10.4318V11.6788Z" fill="black"/>
<path d="M9.24661 9.04147C9.64176 9.04147 9.9652 9.37123 9.9652 9.77764V10.8169H10.4813V6.87936H7.64911V10.8169H8.52802V9.77764C8.52802 9.3874 8.84512 9.04147 9.24661 9.04147Z" fill="#DA000C"/>
<path d="M10.5165 10.852H9.93005V9.77764C9.93005 9.39092 9.62348 9.07662 9.24661 9.07662C8.86973 9.07662 8.56317 9.39725 8.56317 9.77764V10.852H7.61395V6.8442H10.5165V10.852ZM10.0004 10.7817H10.4461V6.91451H7.68427V10.7817H8.49286V9.77764C8.49286 9.35928 8.83809 9.00631 9.24661 9.00631C9.65512 9.00631 10.0004 9.35225 10.0004 9.77764V10.7817Z" fill="black"/>
<path d="M9.9202 4.21618H8.61801V6.60399H9.9202V4.21618Z" fill="black"/>
<path d="M9.91587 6.23445H8.7761V5.83015H7.94079V6.23445H7.37407V5.83015H7.03587V6.56422H9.91657M7.37337 6.5614H9.83219V6.88062H7.37337V6.5614Z" fill="#DA000C"/>
<path d="M9.86734 6.91508H7.3382V6.59867H7V5.7943H7.40852V6.19859H7.90492V5.7943H8.81055V6.19859H9.95031V6.26891H8.74023V5.86461H7.97523V6.26891H7.3382V5.86461H7.07031V6.52836H9.95102V6.59867H9.86734V6.91508ZM7.40852 6.84476H9.79703V6.59867H7.40852V6.84476Z" fill="black"/>
<path d="M8.3487 3.34886V5.82949L8.7761 5.83015L8.7755 5.14816C8.7755 4.89292 8.9555 4.6841 9.20792 4.67144C9.21636 4.67144 9.22409 4.67144 9.23183 4.67144C9.4955 4.67144 9.70854 4.88449 9.70854 5.14816V5.82949H10.115V3.34886H8.3487Z" fill="#DA000C"/>
<path d="M10.1501 5.86537H9.6734V5.14888C9.6734 4.9056 9.47512 4.70732 9.23184 4.70732H9.2234C9.21918 4.70732 9.21426 4.70732 9.21004 4.70732C8.98293 4.71857 8.81137 4.90841 8.81137 5.14888V5.86537H8.31426V3.31443H10.1508L10.1501 5.86537ZM9.74372 5.79506H10.0798V3.38474H8.38387V5.79506H8.74036V5.14888C8.74036 4.87045 8.94075 4.65037 9.20583 4.63701C9.21215 4.63701 9.21778 4.63701 9.22411 4.63701H9.23184C9.51379 4.63701 9.74372 4.86693 9.74372 5.14888V5.79506Z" fill="black"/>
<path d="M8.19531 3.01217V3.34826H10.252V3.01217H8.19531Z" fill="#DA000C"/>
<path d="M10.2871 3.38342H8.16016V2.97701H10.2871V3.38342ZM8.23047 3.31311H10.2168V3.04733H8.23047V3.31311Z" fill="black"/>
<path d="M7.93234 2.36928V3.01334H10.3996V2.36928H10.0192V2.69693H9.56007V2.36928H8.85905V2.69693H8.39991V2.36928H7.93234Z" fill="#DA000C"/>
<path d="M10.4355 3.04779H7.89788V2.33342H8.43647V2.66108H8.8253V2.33342H9.59663V2.66108H9.98546V2.33342H10.4362L10.4355 3.04779ZM7.96749 2.97748H10.3644V2.40373H10.0544V2.73139H9.52491V2.40373H8.89421V2.73139H8.36476V2.40373H7.96679L7.96749 2.97748Z" fill="black"/>
<path d="M10.444 11.1841H7.00504V11.2545H10.444V11.1841Z" fill="black"/>
<path d="M12.5877 11.0258H10.3068L9.61914 11.3577V11.852H12.5877" fill="#DA000C"/>
<path d="M12.6229 11.8871H9.58398V11.3359L10.3068 10.9906H12.6229V11.0609H10.3152L9.6543 11.3802V11.8168H12.6229V11.8871Z" fill="black"/>
<path d="M12.6589 11.322H9.61926V11.3923H12.6589V11.322Z" fill="black"/>
<path d="M16.4165 8.1776H11.9165V11.2706H16.4165V8.1776Z" fill="black"/>
<path d="M14.0796 10.8182H16.8267L17.4356 11.219V11.6437H14.0796" fill="#DA000C"/>
<path d="M17.4707 11.6788H14.0444V11.6085H17.4004V11.238L16.8161 10.8534H14.0444V10.7831H16.8372L17.4707 11.2V11.6788Z" fill="black"/>
<path d="M15.229 9.04147C14.8339 9.04147 14.5104 9.37123 14.5104 9.77764V10.8169H13.9944V6.87936H16.8265V10.8169H15.9476V9.77764C15.9476 9.3874 15.6305 9.04147 15.229 9.04147Z" fill="#DA000C"/>
<path d="M16.8617 10.852H15.9125V9.77764C15.9125 9.39795 15.5996 9.07662 15.229 9.07662C14.8585 9.07662 14.5456 9.39092 14.5456 9.77764V10.852H13.9592V6.8442H16.8617V10.852ZM15.9828 10.7817H16.7914V6.91451H14.0295V10.7817H14.4753V9.77764C14.4753 9.35225 14.8135 9.00631 15.229 9.00631C15.6446 9.00631 15.9828 9.35928 15.9828 9.77764V10.7817Z" fill="black"/>
<path d="M15.8568 4.21618H14.5546V6.60399H15.8568V4.21618Z" fill="black"/>
<path d="M14.5581 6.23434H15.6979V5.83005H16.5332V6.23434H17.0999V5.83005H17.4381V6.56411H14.5574M17.1006 6.5613H14.6418V6.88052H17.1006V6.5613Z" fill="#DA000C"/>
<path d="M17.1358 6.91496H14.6067V6.59856H14.523V6.52824H17.4037V5.86449H17.1358V6.26879H16.4988V5.86449H15.7338V6.26879H14.5237V6.19848H15.6634V5.79418H16.5691V6.19848H17.0655V5.79418H17.474V6.59856H17.1358V6.91496ZM14.677 6.84465H17.0655V6.59856H14.677V6.84465Z" fill="black"/>
<path d="M16.1249 3.34886V5.82949L15.6979 5.83005L15.6981 5.14816C15.6981 4.89292 15.5181 4.6841 15.2657 4.67144C15.2573 4.67144 15.2495 4.67144 15.2418 4.67144C14.9781 4.67144 14.7651 4.88449 14.7651 5.14816V5.82949H14.3587V3.34886H16.1249Z" fill="#DA000C"/>
<path d="M16.1601 5.86537H15.663V5.14888C15.663 4.90841 15.4914 4.71857 15.2643 4.70732C15.2601 4.70732 15.2552 4.70732 15.2509 4.70732H15.2425C14.9992 4.70732 14.8009 4.9056 14.8009 5.14888V5.86537H14.3242V3.31443H16.1608L16.1601 5.86537ZM15.7333 5.79506H16.0898V3.38474H14.3938V5.79506H14.7299V5.14888C14.7299 4.86623 14.9598 4.63701 15.2418 4.63701H15.2495C15.2559 4.63701 15.2615 4.63701 15.2678 4.63701C15.5329 4.65037 15.7333 4.87045 15.7333 5.14888V5.79506Z" fill="black"/>
<path d="M16.2795 3.01217V3.34826H14.2229V3.01217H16.2795Z" fill="#DA000C"/>
<path d="M16.3147 3.38342H14.1877V2.97701H16.3147V3.38342ZM14.258 3.31311H16.2444V3.04733H14.258V3.31311Z" fill="black"/>
<path d="M16.5427 2.36928V3.01334H14.0755V2.36928H14.4558V2.69693H14.915V2.36928H15.616V2.69693H16.0751V2.36928H16.5427Z" fill="#DA000C"/>
<path d="M16.5779 3.04779H14.0403V2.33342H14.491V2.66108H14.8798V2.33342H15.6512V2.66108H16.04V2.33342H16.5786L16.5779 3.04779ZM14.1106 2.97748H16.5076V2.40373H16.1096V2.73139H15.5801V2.40373H14.9494V2.73139H14.42V2.40373H14.1099L14.1106 2.97748Z" fill="black"/>
<path d="M17.4698 11.1841H14.0308V11.2545H17.4698V11.1841Z" fill="black"/>
<path d="M11.8863 11.0258H14.1672L14.8549 11.3576V11.8519H11.8863" fill="#DA000C"/>
<path d="M14.89 11.8873H11.8511V11.817H14.8197V11.3803L14.1588 11.0611H11.8511V10.9908L14.182 10.9943L14.89 11.336V11.8873Z" fill="black"/>
<path d="M14.8556 11.322H11.8159V11.3923H14.8556V11.322Z" fill="black"/>
<path d="M13.4521 10.5487C13.2658 10.6106 13.097 10.7154 12.9268 10.8124C12.7089 10.9411 12.4972 11.0817 12.3011 11.2413C12.2322 11.287 12.1654 11.3369 12.1119 11.4009C12.0395 11.4628 11.9671 11.5451 11.9804 11.6477C11.984 11.6927 12.0416 11.5943 12.0796 11.5901C12.1457 11.5521 12.2258 11.5394 12.3004 11.557C12.3897 11.4628 12.505 11.3995 12.6041 11.3172C12.815 11.1597 13.0429 11.024 13.2742 10.8982C13.355 10.8567 13.4359 10.8145 13.5224 10.7857L13.4521 10.5487Z" fill="#F8D80E"/>
<path d="M11.9875 11.6871C11.9839 11.6871 11.9797 11.6871 11.9755 11.685C11.9678 11.6822 11.9544 11.6737 11.953 11.6505C11.9368 11.531 12.0254 11.4389 12.0936 11.3805C12.1506 11.3116 12.2258 11.2575 12.2856 11.2188C12.4635 11.074 12.6695 10.9326 12.9128 10.7892L12.9789 10.7512C13.1258 10.6661 13.2784 10.5783 13.4429 10.5234L13.4696 10.5143L13.5554 10.8033L13.5308 10.8117C13.4493 10.8391 13.3698 10.8799 13.2939 10.9193L13.2868 10.9228C13.0147 11.0711 12.8031 11.2033 12.621 11.3397C12.5837 11.3707 12.5422 11.4002 12.5021 11.4283C12.436 11.4754 12.3735 11.5197 12.32 11.576L12.3095 11.5872L12.2947 11.5837C12.2272 11.5683 12.1541 11.5795 12.0936 11.614L12.0838 11.6175C12.0753 11.6189 12.0535 11.6414 12.043 11.6519C12.0233 11.6716 12.0071 11.6878 11.9889 11.6878L11.9875 11.6871ZM13.4338 10.5839C13.284 10.6373 13.1427 10.7196 13.0056 10.7983L12.9395 10.8363C12.699 10.9783 12.4951 11.1183 12.3172 11.2624C12.2553 11.3032 12.1871 11.3524 12.1316 11.4185C12.05 11.4888 12.01 11.55 12.005 11.6111C12.0254 11.5908 12.0458 11.5704 12.069 11.5647C12.1358 11.5275 12.216 11.5148 12.2905 11.5282C12.3453 11.4733 12.4086 11.4283 12.4698 11.3847C12.5092 11.3566 12.5492 11.3285 12.5865 11.2975C12.7714 11.159 12.9859 11.0254 13.2608 10.8757L13.2685 10.8715C13.3396 10.8349 13.412 10.7976 13.4886 10.7695L13.4338 10.5839Z" fill="black"/>
<path d="M12.5458 11.3764C12.5261 11.3764 12.5106 11.3609 12.5106 11.3413V11.0663C12.5106 11.0466 12.5261 11.0312 12.5458 11.0312C12.5655 11.0312 12.5809 11.0466 12.5809 11.0663V11.3413C12.5809 11.3609 12.5655 11.3764 12.5458 11.3764Z" fill="black"/>
<path d="M12.7159 11.2548C12.6963 11.2548 12.6808 11.2393 12.6808 11.2196V10.9468C12.6808 10.9271 12.6963 10.9117 12.7159 10.9117C12.7356 10.9117 12.7511 10.9271 12.7511 10.9468V11.2196C12.7511 11.2393 12.7356 11.2548 12.7159 11.2548Z" fill="black"/>
<path d="M12.8854 11.1472C12.8657 11.1472 12.8503 11.1317 12.8503 11.112V10.8406C12.8503 10.8209 12.8657 10.8055 12.8854 10.8055C12.9051 10.8055 12.9206 10.8209 12.9206 10.8406V11.112C12.9206 11.1317 12.9051 11.1472 12.8854 11.1472Z" fill="black"/>
<path d="M13.0556 11.0516C13.0359 11.0516 13.0204 11.0361 13.0204 11.0164V10.7366C13.0204 10.7169 13.0359 10.7014 13.0556 10.7014C13.0752 10.7014 13.0907 10.7169 13.0907 10.7366V11.0164C13.0907 11.0361 13.0752 11.0516 13.0556 11.0516Z" fill="black"/>
<path d="M11.0328 10.5582C11.0047 10.6355 10.9772 10.7136 10.9491 10.7909C11.3387 10.9386 11.7092 11.1341 12.0601 11.3577C12.1789 11.4385 12.304 11.5173 12.3976 11.6284C12.4179 11.6853 12.3617 11.7331 12.3054 11.7155C12.2541 11.698 12.2035 11.6783 12.1487 11.7155C12.0706 11.7507 12.0003 11.866 12.1184 11.9047C12.2815 12.0137 12.5459 11.9666 12.624 11.7746C12.6647 11.6762 12.6676 11.5496 12.5881 11.4695C12.4433 11.3035 12.2506 11.1875 12.0664 11.0708C11.7366 10.8725 11.3942 10.6932 11.0328 10.5582Z" fill="#F8D80E"/>
<path d="M12.3174 11.9891C12.2415 11.9891 12.1669 11.9687 12.1065 11.9286C12.0418 11.9061 12.0298 11.8632 12.0284 11.84C12.0249 11.7788 12.0811 11.7163 12.1367 11.6902C12.1958 11.6495 12.2548 11.6699 12.3061 11.6874L12.3125 11.6895C12.33 11.6952 12.3504 11.6895 12.3631 11.6769C12.3687 11.6713 12.3772 11.6586 12.3722 11.641C12.2921 11.5468 12.1852 11.4751 12.0826 11.4062L12.0439 11.3802C11.6726 11.1432 11.3007 10.9534 10.9386 10.8163L10.914 10.8071L11.0159 10.5238L11.0412 10.5336C11.3654 10.6545 11.705 10.8226 12.0797 11.0483L12.1212 11.0743C12.2935 11.1833 12.4714 11.2958 12.6085 11.4526C12.7006 11.5468 12.6879 11.6917 12.6486 11.7859C12.612 11.8752 12.5361 11.9413 12.4355 11.9722C12.3968 11.9842 12.3575 11.9891 12.3174 11.9891ZM12.214 11.7212C12.1965 11.7212 12.1803 11.7261 12.1634 11.7374C12.1163 11.7592 12.0804 11.8049 12.0826 11.8372C12.0833 11.8555 12.0987 11.8695 12.1268 11.8787L12.1332 11.8822C12.2126 11.9356 12.3223 11.9497 12.42 11.9202C12.5051 11.8942 12.5691 11.8393 12.5993 11.7648C12.6324 11.6853 12.6443 11.5651 12.5691 11.4885C12.4362 11.3359 12.2618 11.2262 12.0931 11.1193L12.0523 11.0933C11.6909 10.876 11.3618 10.7122 11.049 10.5927L10.9836 10.7748C11.3415 10.9126 11.7078 11.101 12.0748 11.3345L12.1142 11.3612C12.2218 11.4336 12.3322 11.5081 12.4179 11.6101L12.4229 11.6185C12.4355 11.653 12.4278 11.6881 12.4032 11.7142C12.3765 11.7423 12.335 11.7521 12.297 11.7409L12.2893 11.7381C12.2597 11.7282 12.2358 11.7212 12.214 11.7212Z" fill="black"/>
<path d="M12.0984 11.1117L12.0766 11.3465L12.0984 11.1117Z" fill="#F8D80E"/>
<path d="M12.0764 11.381C12.0764 11.381 12.0743 11.381 12.0729 11.381C12.0539 11.3789 12.0392 11.362 12.0413 11.343L12.0631 11.1082C12.0652 11.0885 12.0827 11.0745 12.101 11.0766C12.12 11.0787 12.1348 11.0955 12.1327 11.1145L12.1109 11.3494C12.1095 11.3677 12.0947 11.381 12.0764 11.381Z" fill="black"/>
<path d="M12.2952 11.2314L12.2348 11.4613L12.2952 11.2314Z" fill="#F8D80E"/>
<path d="M12.2349 11.4964C12.2349 11.4964 12.2285 11.4964 12.2257 11.495C12.2067 11.49 12.1955 11.4711 12.2004 11.4521L12.2609 11.2222C12.2658 11.2032 12.2855 11.1926 12.3038 11.1968C12.3228 11.2018 12.334 11.2208 12.3291 11.2397L12.2686 11.4697C12.2644 11.4851 12.2503 11.4964 12.2349 11.4964Z" fill="black"/>
<path d="M12.5033 11.3909L12.376 11.5695L12.5033 11.3909Z" fill="#F8D80E"/>
<path d="M12.3765 11.6046C12.3695 11.6046 12.3625 11.6025 12.3562 11.5983C12.34 11.587 12.3365 11.5652 12.3477 11.5491L12.475 11.3705C12.4862 11.3543 12.508 11.3508 12.5242 11.362C12.5404 11.3733 12.5439 11.3951 12.5326 11.4112L12.4054 11.5898C12.3983 11.5997 12.3878 11.6046 12.3765 11.6046Z" fill="black"/>
<path d="M12.5695 11.8249L12.386 11.7265L12.5695 11.8249Z" fill="#F8D80E"/>
<path d="M12.5687 11.8601C12.5631 11.8601 12.5575 11.8587 12.5519 11.8558L12.3683 11.7574C12.3515 11.7483 12.3451 11.7272 12.3543 11.7096C12.3634 11.6927 12.3845 11.6864 12.4021 11.6955L12.5856 11.794C12.6025 11.8031 12.6088 11.8242 12.5997 11.8418C12.5933 11.8537 12.5814 11.8601 12.5687 11.8601Z" fill="black"/>
<path d="M12.6241 11.6316L12.4131 11.6513L12.6241 11.6316Z" fill="#F8D80E"/>
<path d="M12.413 11.6865C12.3947 11.6865 12.3799 11.6732 12.3778 11.6549C12.3757 11.6359 12.3905 11.6183 12.4095 11.6169L12.6204 11.5972C12.6394 11.5951 12.657 11.6099 12.6584 11.6289C12.6605 11.6478 12.6457 11.6654 12.6267 11.6668L12.4158 11.6865C12.4158 11.6865 12.4144 11.6865 12.413 11.6865Z" fill="black"/>
<path d="M12.3526 11.9363L12.3378 11.7514L12.3526 11.9363Z" fill="#F8D80E"/>
<path d="M12.3526 11.9715C12.3344 11.9715 12.3189 11.9574 12.3175 11.9391L12.3027 11.7542C12.3013 11.7345 12.3154 11.7176 12.3351 11.7162C12.3548 11.7141 12.3716 11.7289 12.373 11.7486L12.3878 11.9335C12.3892 11.9532 12.3751 11.9701 12.3555 11.9715C12.3548 11.9715 12.3533 11.9715 12.3526 11.9715Z" fill="black"/>
<path d="M12.2758 11.7251L12.1014 11.8536L12.2758 11.7251Z" fill="#F8D80E"/>
<path d="M12.1015 11.8882C12.091 11.8882 12.0797 11.8832 12.0734 11.8741C12.0622 11.8586 12.065 11.8361 12.0811 11.8249L12.2548 11.6969C12.2703 11.6849 12.2928 11.6885 12.304 11.7046C12.3153 11.7201 12.3125 11.7426 12.2963 11.7539L12.1226 11.8818C12.1163 11.8867 12.1093 11.8882 12.1015 11.8882Z" fill="black"/>
<path d="M11.4405 11.0073C11.4208 11.0073 11.4053 10.9918 11.4053 10.9721V10.7534C11.4053 10.7338 11.4208 10.7183 11.4405 10.7183C11.4602 10.7183 11.4756 10.7338 11.4756 10.7534V10.9721C11.4756 10.9918 11.4602 11.0073 11.4405 11.0073Z" fill="black"/>
<path d="M11.882 11.2695C11.8623 11.2695 11.8469 11.2541 11.8469 11.2344V10.9862C11.8469 10.9665 11.8623 10.951 11.882 10.951C11.9017 10.951 11.9172 10.9665 11.9172 10.9862V11.2344C11.9172 11.2541 11.9017 11.2695 11.882 11.2695Z" fill="black"/>
<path d="M11.6613 11.1381C11.6416 11.1381 11.6261 11.1226 11.6261 11.1029V10.8695C11.6261 10.8498 11.6416 10.8343 11.6613 10.8343C11.6809 10.8343 11.6964 10.8498 11.6964 10.8695V11.1029C11.6964 11.1226 11.6809 11.1381 11.6613 11.1381Z" fill="black"/>
<path d="M10.8145 16.0001V16.5647H11.1681V16.2814H11.6491V16.5647H12.0295V16.0001H10.8145ZM10.8145 16.7778V17.3445H12.0295V16.7778H11.6491V17.0611H11.1681V16.7778H10.8145Z" fill="#F8D80E"/>
<path d="M12.0646 17.3803H10.7793V16.7433H11.2033V17.0267H11.6139V16.7433H12.0646V17.3803ZM10.8496 17.31H11.9943V16.8136H11.6842V17.097H11.133V16.8136H10.8496V17.31ZM12.0646 16.5999H11.6139V16.3165H11.2033V16.5999H10.7793V15.9649H12.0646V16.5999ZM11.6849 16.5295H11.995V16.0352H10.8503V16.5295H11.1337V16.2462H11.6849V16.5295Z" fill="black"/>
<path d="M12.381 13.6163H12.0302V17.7028H12.381V13.6163Z" fill="#F8D80E"/>
<path d="M12.4162 17.738H11.995V13.5811H12.4162V17.738ZM12.0653 17.6677H12.3459V13.6514H12.0653V17.6677Z" fill="black"/>
<path d="M12.381 13.9698H12.0302V17.4897H12.381V13.9698Z" fill="#F8D80E"/>
<path d="M12.4162 17.5248H11.995V13.9347H12.4162V17.5248ZM12.0653 17.4545H12.3459V14.005H12.0653V17.4545Z" fill="black"/>
<path d="M12.2045 12.6147L12.9512 13.0499L12.2045 13.483L11.4578 13.0499L12.2045 12.6147ZM11.2047 12.8938H11.0092V13.206H11.2047L12.2045 13.7861L13.2044 13.206H13.3998V12.8938H13.2044L12.2045 12.3137L11.2047 12.8938Z" fill="#F8D80E"/>
<path d="M12.2045 13.8268L11.1948 13.2411H10.9727V12.8572H11.1948L12.2045 12.2715L13.2142 12.8572H13.4364V13.2411H13.2142L12.2045 13.8268ZM11.0451 13.1694H11.2145L12.2045 13.7439L13.1945 13.1694H13.364V12.9296H13.1945L12.2045 12.3552L11.2145 12.9296H11.0451V13.1694ZM12.2045 13.5238L11.3861 13.0492L12.2045 12.5725L13.023 13.0492L12.2045 13.5238ZM11.5288 13.0492L12.2045 13.4408L12.8802 13.0492L12.2045 12.6561L11.5288 13.0492Z" fill="black"/>
<path d="M12.1912 11.5505C12.0211 11.5744 11.8938 11.7424 11.9036 11.9112C11.9036 12.1742 11.9022 12.4371 11.9044 12.6994C11.9135 12.8689 12.0611 13.0207 12.2327 13.0221C12.3719 13.0355 12.5126 12.9539 12.5709 12.8267C12.5308 12.8028 12.4901 12.7782 12.45 12.7542C12.419 12.8372 12.329 12.8892 12.2411 12.8794C12.1258 12.8829 12.033 12.7711 12.0436 12.6593C12.0436 12.3985 12.0422 12.1369 12.0443 11.876C12.0506 11.7692 12.1519 11.6827 12.2587 11.6932C12.303 11.6806 12.3635 11.741 12.3902 11.689C12.431 11.6307 12.3614 11.5849 12.322 11.5526C12.2791 11.547 12.2348 11.5526 12.1912 11.5505ZM12.5983 11.8254C12.5702 11.8782 12.5126 11.9091 12.4661 11.9365V12.4646C12.5133 12.492 12.5597 12.5187 12.6068 12.5461C12.6068 12.3211 12.6082 12.0954 12.6061 11.8704C12.604 11.8564 12.6061 11.8353 12.5983 11.8254Z" fill="#F8D80E"/>
<path d="M12.2637 13.0601C12.2524 13.0601 12.2412 13.0601 12.2299 13.0587C12.0457 13.0573 11.879 12.8942 11.8685 12.7022C11.8671 12.5377 11.8671 12.3746 11.8671 12.2114C11.8671 12.1116 11.8671 12.0118 11.8671 11.9119C11.8565 11.7235 12.0028 11.5407 12.1856 11.5154H12.1926C12.2088 11.5154 12.225 11.5154 12.2412 11.5154C12.2693 11.5154 12.2988 11.5139 12.3283 11.5182L12.3389 11.5196L12.3593 11.5364C12.398 11.5674 12.4774 11.6314 12.4212 11.7108C12.393 11.765 12.3347 11.746 12.3065 11.7368C12.2932 11.7326 12.277 11.727 12.27 11.7291L12.2637 11.7312H12.2566C12.2158 11.7263 12.173 11.7404 12.1392 11.7692C12.1055 11.798 12.0844 11.8381 12.0815 11.8796C12.0801 12.0378 12.0801 12.1981 12.0808 12.3584C12.0808 12.4589 12.0808 12.5602 12.0808 12.6607C12.0766 12.71 12.0942 12.7585 12.128 12.795C12.1596 12.8288 12.199 12.8457 12.2419 12.845C12.3192 12.8527 12.393 12.8091 12.4176 12.743L12.4331 12.7022L12.6187 12.8133L12.6054 12.8429C12.5449 12.9743 12.4071 13.0601 12.2637 13.0601ZM12.1933 11.5864C12.0471 11.6089 11.9311 11.7558 11.9395 11.9091C11.9395 12.0111 11.9395 12.1109 11.9395 12.2107C11.9395 12.3739 11.9395 12.5363 11.9402 12.6994C11.9487 12.8527 12.083 12.9849 12.2334 12.9863C12.3487 12.9975 12.4647 12.9371 12.5238 12.84L12.4655 12.8049C12.419 12.8801 12.329 12.9251 12.2376 12.9153C12.18 12.9174 12.1195 12.8907 12.0745 12.8429C12.0267 12.7922 12.0021 12.7219 12.0084 12.6558C12.0084 12.5581 12.0084 12.4575 12.0084 12.357C12.0084 12.1967 12.0084 12.0357 12.0091 11.8754C12.0126 11.8128 12.0429 11.7544 12.0921 11.7122C12.1392 11.6722 12.199 11.6525 12.2573 11.656C12.2833 11.6511 12.308 11.6595 12.3283 11.6658C12.3382 11.6693 12.3544 11.6743 12.3593 11.6729C12.374 11.6497 12.3705 11.6349 12.3143 11.5899L12.3094 11.5857C12.2883 11.5836 12.2665 11.5843 12.2433 11.585C12.2264 11.585 12.2102 11.5857 12.194 11.585L12.1933 11.5864ZM12.6426 12.6087L12.4296 12.4857V11.9161L12.4577 11.9C12.4985 11.8761 12.5449 11.8486 12.566 11.8093L12.5927 11.7593L12.6265 11.8043C12.6384 11.8198 12.6391 11.8388 12.6405 11.8543C12.6405 11.8585 12.6405 11.862 12.6412 11.8648C12.6426 12.0097 12.6426 12.1496 12.6426 12.2888C12.6426 12.3746 12.6426 12.4604 12.6426 12.5461V12.6087ZM12.502 12.4442L12.5702 12.4836C12.5702 12.4189 12.5702 12.3535 12.5702 12.2888C12.5702 12.1629 12.5702 12.0378 12.5702 11.9119C12.5477 11.9295 12.5238 11.9443 12.502 11.9576V12.4442Z" fill="black"/>
<path d="M13.2305 2.69627H11.1682V6.44041H13.2305V2.69627Z" fill="black"/>
<path d="M11.0241 2.69876V5.83189H11.6787V4.90235C11.6787 4.6879 11.8158 4.39048 12.237 4.39048C12.6582 4.39048 12.7953 4.6879 12.7953 4.90235V5.83189H13.4499V2.69876H11.0241ZM12.1357 3.05032H12.3382V4.12259H12.1357V3.05032ZM11.5557 3.26126H11.7603V4.04595H11.5557V3.26126ZM12.7137 3.26126H12.9183V4.04595H12.7137V3.26126Z" fill="#DA000C"/>
<path d="M13.485 5.86703H12.7601V4.90234C12.7601 4.72515 12.6497 4.42562 12.237 4.42562C11.8243 4.42562 11.7139 4.72515 11.7139 4.90234V5.86703H10.989V2.66359H13.485V5.86703ZM12.8304 5.79671H13.4147V2.7339H11.0593V5.79671H11.6436V4.90234C11.6436 4.69914 11.7687 4.35531 12.237 4.35531C12.7053 4.35531 12.8304 4.69914 12.8304 4.90234V5.79671ZM12.3734 4.15703H12.1006V3.01445H12.3734V4.15703ZM12.1709 4.08671H12.3031V3.08476H12.1709V4.08671ZM12.9535 4.08039H12.6786V3.22539H12.9535V4.08039ZM12.7489 4.01007H12.8832V3.2957H12.7489V4.01007ZM11.7954 4.08039H11.5205V3.22539H11.7954V4.08039ZM11.5908 4.01007H11.7251V3.2957H11.5908V4.01007Z" fill="black"/>
<path d="M10.8031 2.24779V2.69357H13.6725V2.24779H10.8031Z" fill="#DA000C"/>
<path d="M13.7084 2.72872H10.7686V2.21262H13.7084V2.72872ZM10.8382 2.65841H13.6374V2.28294H10.8382V2.65841Z" fill="black"/>
<path d="M10.5319 1.72852V2.24742H13.9421V1.72852H13.5139V2.01398H13.0301V1.72852H12.4789V2.01398H11.9951V1.72852H11.4439V2.01398H10.9601V1.72852H10.5319Z" fill="#DA000C"/>
<path d="M13.9772 2.28258H10.4968V1.69336H10.9953V1.97883H11.4087V1.69336H12.0303V1.97883H12.4437V1.69336H13.0653V1.97883H13.4787V1.69336H13.9772V2.28258ZM10.5671 2.21227H13.9069V1.76367H13.549V2.04914H12.995V1.76367H12.514V2.04914H11.96V1.76367H11.479V2.04914H10.925V1.76367H10.5671V2.21227Z" fill="black"/>
<path d="M9.89911 6.87885V7.20159H14.5749V6.87885H9.89911Z" fill="#DA000C"/>
<path d="M14.61 7.23746H9.86395V6.84441H14.61V7.23746ZM9.93427 7.16715H14.5397V6.91473H9.93427V7.16715Z" fill="black"/>
<path d="M9.70703 5.8297V6.88017H14.7653L14.7651 5.82949L14.2865 5.8297V6.234H13.6495V5.8297H12.7945V6.234H11.6779V5.8297H10.8229V6.234H10.1859V5.8297H9.70703Z" fill="#DA000C"/>
<path d="M14.8005 6.91463H9.67188V5.79385H10.221V6.19814H10.7877V5.79385H11.713V6.19814H12.7593V5.79385H13.6846V6.19814H14.2513V5.79385H14.8005V6.91463ZM9.74219 6.84431H14.7302V5.86416H14.3216V6.26846H13.6143V5.86416H12.8296V6.26846H11.6427V5.86416H10.858V6.26846H10.1507V5.86416H9.74219V6.84431Z" fill="black"/>
<path d="M10.3155 7.20279V11.0236H11.2183V9.59341C11.2183 8.91982 11.6683 8.60271 12.2357 8.60271C12.8031 8.60271 13.2531 8.91982 13.2531 9.59341V11.0236H14.1559V7.20279H10.3155Z" fill="#DA000C"/>
<path d="M14.1559 11.0587H13.2531C13.2334 11.0587 13.218 11.0432 13.218 11.0236V9.5934C13.218 9.13145 12.9599 8.63785 12.2357 8.63785C11.6205 8.63785 11.2534 8.99504 11.2534 9.5934V11.0236C11.2534 11.0432 11.238 11.0587 11.2183 11.0587H10.3155C10.2958 11.0587 10.2803 11.0432 10.2803 11.0236V7.20277C10.2803 7.18309 10.2958 7.16762 10.3155 7.16762H14.1559C14.1756 7.16762 14.1911 7.18309 14.1911 7.20277V11.0236C14.1911 11.0432 14.1756 11.0587 14.1559 11.0587ZM13.2883 10.9884H14.1208V7.23793H10.3506V10.9884H11.1831V9.5934C11.1831 8.96059 11.5867 8.56754 12.2357 8.56754C12.8847 8.56754 13.2883 8.97043 13.2883 9.5934V10.9884Z" fill="black"/>
</g>
<rect x="0.25" y="0.25" width="23.5" height="17.5" rx="1.75" stroke="#DDE0EA" stroke-width="0.5" style="fill-opacity:0"/>
<defs>
<clipPath id="clip0_1257_29599">
<rect width="24" height="18" rx="2" fill="white"/>
</clipPath>
</defs>
</svg>
