<svg width="24" height="18" viewBox="0 0 24 18" fill="none" xmlns="http://www.w3.org/2000/svg">
<g clip-path="url(#clip0_1257_29599)">
<path d="M24 0H0V18H24V0Z" fill="#DA000C"/>
<path d="M24 0H0V12H24V0Z" fill="white"/>
<path d="M12.55 8.17H8.05V11.27H12.55V8.17Z" fill="black"/>
<path d="M10.39 10.81H7.64L7.04 11.21V11.64H10.39" fill="#DA000C"/>
<path d="M9.24 9.04C9.64 9.04 9.96 9.37 9.96 9.77V10.81H10.48V6.87H7.64V10.81H8.52V9.77C8.52 9.38 8.84 9.04 9.24 9.04Z" fill="#DA000C"/>
<path d="M9.92 4.21H8.61V6.60H9.92V4.21Z" fill="black"/>
<path d="M9.91 6.23H8.77V5.83H7.94V6.23H7.37V5.83H7.03V6.56H9.91M7.37 6.56H9.83V6.88H7.37V6.56Z" fill="#DA000C"/>
<path d="M8.34 3.34V5.82L8.77 5.83L8.77 5.14C8.77 4.89 8.95 4.68 9.20 4.67C9.21 4.67 9.22 4.67 9.23 4.67C9.49 4.67 9.70 4.88 9.70 5.14V5.82H10.11V3.34H8.34Z" fill="#DA000C"/>
<path d="M8.19 3.01V3.34H10.25V3.01H8.19Z" fill="#DA000C"/>
<path d="M7.93 2.36V3.01H10.39V2.36H10.01V2.69H9.56V2.36H8.85V2.69H8.39V2.36H7.93Z" fill="#DA000C"/>
<path d="M12.58 11.02H10.30L9.61 11.35V11.85H12.58" fill="#DA000C"/>
<path d="M16.41 8.17H11.91V11.27H16.41V8.17Z" fill="black"/>
<path d="M14.07 10.81H16.82L17.43 11.21V11.64H14.07" fill="#DA000C"/>
<path d="M15.22 9.04C14.83 9.04 14.51 9.37 14.51 9.77V10.81H13.99V6.87H16.82V10.81H15.94V9.77C15.94 9.38 15.63 9.04 15.22 9.04Z" fill="#DA000C"/>
<path d="M15.85 4.21H14.55V6.60H15.85V4.21Z" fill="black"/>
<path d="M14.55 6.23H15.69V5.83H16.53V6.23H17.09V5.83H17.43V6.56H14.55M17.10 6.56H14.64V6.88H17.10V6.56Z" fill="#DA000C"/>
<path d="M16.12 3.34V5.82L15.69 5.83L15.69 5.14C15.69 4.89 15.51 4.68 15.26 4.67C15.25 4.67 15.24 4.67 15.24 4.67C14.97 4.67 14.76 4.88 14.76 5.14V5.82H14.35V3.34H16.12Z" fill="#DA000C"/>
<path d="M16.27 3.01V3.34H14.22V3.01H16.27Z" fill="#DA000C"/>
<path d="M16.54 2.36V3.01H14.07V2.36H14.45V2.69H14.91V2.36H15.61V2.69H16.07V2.36H16.54Z" fill="#DA000C"/>
<path d="M11.88 11.02H14.16L14.85 11.35V11.85H11.88" fill="#DA000C"/>
<path d="M13.45 10.54C13.26 10.61 13.09 10.71 12.92 10.81C12.70 10.94 12.49 11.08 12.30 11.24C12.23 11.28 12.16 11.33 12.11 11.40C12.03 11.46 11.96 11.54 11.98 11.64C11.98 11.69 12.04 11.59 12.07 11.59C12.14 11.55 12.22 11.53 12.30 11.55C12.38 11.46 12.50 11.39 12.60 11.31C12.81 11.15 13.04 11.02 13.27 10.89C13.35 10.85 13.43 10.81 13.52 10.78L13.45 10.54Z" fill="#F8D80E"/>
<path d="M11.03 10.55C11.00 10.63 10.97 10.71 10.94 10.79C11.33 10.93 11.70 11.13 12.06 11.35C12.17 11.43 12.30 11.51 12.39 11.62C12.41 11.68 12.36 11.73 12.30 11.71C12.25 11.69 12.20 11.67 12.14 11.71C12.07 11.75 12.00 11.86 12.11 11.90C12.28 12.01 12.54 11.96 12.62 11.77C12.66 11.67 12.66 11.54 12.58 11.46C12.44 11.30 12.25 11.18 12.06 11.07C11.73 10.87 11.39 10.69 11.03 10.55Z" fill="#F8D80E"/>
<path d="M10.81 16.00V16.56H11.16V16.28H11.64V16.56H12.02V16.00H10.81ZM10.81 16.77V17.34H12.02V16.77H11.64V17.06H11.16V16.77H10.81Z" fill="#F8D80E"/>
<path d="M12.38 13.96H12.03V17.48H12.38V13.96Z" fill="#F8D80E"/>
<path d="M12.20 12.61L12.95 13.04L12.20 13.48L11.45 13.04L12.20 12.61ZM11.20 12.89H11.00V13.20H11.20L12.20 13.78L13.20 13.20H13.39V12.89H13.20L12.20 12.31L11.20 12.89Z" fill="#F8D80E"/>
<path d="M12.19 11.55C12.02 11.57 11.89 11.74 11.90 11.91C11.90 12.17 11.90 12.43 11.90 12.69C11.91 12.86 12.06 13.02 12.23 13.02C12.37 13.03 12.51 12.95 12.57 12.82C12.53 12.80 12.49 12.77 12.45 12.75C12.41 12.83 12.32 12.88 12.24 12.87C12.12 12.88 12.03 12.77 12.04 12.65C12.04 12.39 12.04 12.13 12.04 11.87C12.05 11.76 12.15 11.68 12.25 11.69C12.30 11.68 12.36 11.74 12.39 11.68C12.43 11.63 12.36 11.58 12.32 11.55C12.27 11.54 12.23 11.55 12.19 11.55ZM12.59 11.82C12.57 11.87 12.51 11.90 12.46 11.93V12.46C12.51 12.49 12.55 12.51 12.60 12.54C12.60 12.32 12.60 12.09 12.60 11.87C12.60 11.85 12.60 11.83 12.59 11.82Z" fill="#F8D80E"/>
<path d="M13.23 2.69H11.16V6.44H13.23V2.69Z" fill="black"/>
<path d="M11.02 2.69V5.83H11.67V4.90C11.67 4.68 11.81 4.39 12.23 4.39C12.65 4.39 12.79 4.68 12.79 4.90V5.83H13.44V2.69H11.02ZM12.13 3.05H12.33V4.12H12.13V3.05ZM11.55 3.26H11.76V4.04H11.55V3.26ZM12.71 3.26H12.91V4.04H12.71V3.26Z" fill="#DA000C"/>
<path d="M10.80 2.24V2.69H13.67V2.24H10.80Z" fill="#DA000C"/>
<path d="M10.53 1.72V2.24H13.94V1.72H13.51V2.01H13.03V1.72H12.47V2.01H11.99V1.72H11.44V2.01H10.96V1.72H10.53Z" fill="#DA000C"/>
<path d="M9.89 6.87V7.20H14.57V6.87H9.89Z" fill="#DA000C"/>
<path d="M9.70 5.82V6.88H14.76L14.76 5.82L14.28 5.82V6.23H13.64V5.82H12.79V6.23H11.67V5.82H10.82V6.23H10.18V5.82H9.70Z" fill="#DA000C"/>
<path d="M10.31 7.20V11.02H11.21V9.59C11.21 8.91 11.66 8.60 12.23 8.60C12.80 8.60 13.25 8.91 13.25 9.59V11.02H14.15V7.20H10.31Z" fill="#DA000C"/>
</g>
<rect x="0.25" y="0.25" width="23.5" height="17.5" rx="1.75" stroke="#DDE0EA" stroke-width="0.5" style="fill-opacity:0"/>
<defs>
<clipPath id="clip0_1257_29599">
<rect width="24" height="18" rx="2" fill="white"/>
</clipPath>
</defs>
</svg>
