<svg width="24" height="18" viewBox="0 0 24 18" fill="none" xmlns="http://www.w3.org/2000/svg">
<g clip-path="url(#clip0_1257_4732)">
<path d="M24 0H0V18H24V0Z" fill="#D21034"/>
<path d="M24 0H0V9H24V0Z" fill="#00209F"/>
<path d="M14.75 6.67H9.24V11.32H14.75V6.67Z" fill="white"/>
<path d="M12.01 9.96V9.96C12.12 9.97 13.39 10.12 13.74 10.38C14.10 10.66 14.75 10.96 14.75 10.96V11.32H9.24V10.96C9.24 10.96 9.89 10.66 10.25 10.38C10.60 10.12 11.87 9.97 11.98 9.96V9.96C11.98 9.96 11.99 9.96 12 9.96C12.00 9.96 12.01 9.96 12.01 9.96Z" fill="#016A16"/>
<path d="M13.70 9.27C13.70 9.27 13.67 9.90 13.48 10.22L12.70 10.10L12.72 9.72L13.70 9.04V9.27Z" fill="#0A328C"/>
<path d="M12.06 9.82L12.66 9.28C12.79 9.34 12.78 9.44 12.69 9.58L12.70 9.71L12.21 10.06L12.07 10.02L12.06 9.82ZM12.08 9.47L12.45 9.00L12.54 9.20L12.51 9.40L12.07 9.81L12.08 9.47Z" fill="#D20014"/>
<path d="M12.45 9.00C12.45 9.00 12.52 9.18 12.51 9.40L12.96 8.98L13.17 8.78L13.17 8.79L13.14 8.65L13.13 8.58L13.09 8.58V8.54L13.09 8.50L13.05 8.44L13.03 8.38L13.02 8.33L13.04 8.26L13.02 8.27L12.45 9.00Z" fill="#0A328C"/>
<path d="M13.49 9.16C13.51 8.88 13.46 8.56 13.46 8.56L13.46 8.51L12.64 9.30C12.64 9.30 12.70 9.38 12.69 9.72L12.75 9.67L13.49 9.16Z" fill="#0A328C"/>
<path d="M13.72 9.68C13.75 9.68 13.79 9.72 13.80 9.80C13.81 9.88 13.80 9.94 13.77 9.95C13.77 9.95 13.76 9.94 13.75 9.92L12.54 10.09L12.51 9.86L13.71 9.71C13.72 9.68 13.71 9.68 13.72 9.68Z" fill="#F1B517"/>
<path d="M10.29 9.27C10.29 9.27 10.32 9.90 10.51 10.22L11.29 10.10L11.27 9.72L10.29 9.04V9.27Z" fill="#0A328C"/>
<path d="M11.93 9.82L11.33 9.28L11.24 9.48L11.29 9.71L11.78 10.06L11.92 10.02L11.93 9.82ZM11.91 9.47L11.54 9.00L11.45 9.20L11.48 9.40L11.92 9.81L11.91 9.47Z" fill="#D20014"/>
<path d="M11.54 9.00C11.54 9.00 11.47 9.18 11.48 9.40L11.03 8.98L10.82 8.78L10.82 8.79L10.85 8.65L10.86 8.58L10.90 8.58V8.54L10.90 8.50L10.94 8.44L10.96 8.38L10.97 8.33L10.95 8.26L10.97 8.27L11.54 9.00Z" fill="#0A328C"/>
<path d="M10.50 9.16C10.48 8.88 10.53 8.56 10.53 8.56L10.53 8.51L11.35 9.30C11.35 9.30 11.29 9.24 11.31 9.56L11.24 9.67L10.50 9.16Z" fill="#0A328C"/>
<path d="M10.27 9.68C10.24 9.68 10.20 9.72 10.19 9.80C10.18 9.88 10.19 9.94 10.22 9.95C10.22 9.95 10.23 9.94 10.24 9.92L11.45 10.09L11.48 9.86L10.28 9.71C10.27 9.68 10.28 9.68 10.27 9.68Z" fill="#F1B517"/>
<path d="M12.07 7.36C12.44 7.31 12.55 7.35 12.57 7.35C12.59 7.36 12.83 7.42 12.92 7.58C13.01 7.74 12.94 7.80 12.94 7.80C12.96 7.77 12.90 7.63 12.90 7.63C12.93 7.69 12.89 7.78 12.89 7.78C12.90 7.75 12.87 7.67 12.87 7.67L12.85 7.74C12.85 7.70 12.83 7.60 12.83 7.60C12.83 7.72 12.81 7.75 12.81 7.75C12.83 7.72 12.79 7.53 12.79 7.53C12.81 7.64 12.78 7.66 12.78 7.66C12.78 7.54 12.72 7.47 12.72 7.47C12.78 7.54 12.74 7.65 12.74 7.65C12.73 7.53 12.63 7.43 12.63 7.43C12.72 7.52 12.67 7.59 12.67 7.59C12.67 7.51 12.53 7.39 12.53 7.39C12.59 7.45 12.59 7.52 12.59 7.52C12.56 7.47 12.47 7.38 12.47 7.38C12.50 7.41 12.52 7.49 12.52 7.49L12.49 7.48L12.41 7.38L12.46 7.46L12.41 7.43L12.36 7.38L12.38 7.42L12.34 7.41L12.30 7.36L12.33 7.39H12.27L12.25 7.37L12.26 7.40L12.22 7.40L12.21 7.37L12.21 7.40H12.19L12.17 7.36L12.18 7.40C12.18 7.40 12.13 7.40 12.13 7.41C12.12 7.42 12.40 7.50 12.40 7.50C12.40 7.50 12.34 7.50 12.33 7.51C12.33 7.53 12.47 7.55 12.47 7.55L12.40 7.58L12.54 7.60L12.44 7.62L12.62 7.66H12.46L12.63 7.69L12.52 7.71L12.66 7.73L12.52 7.74L12.67 7.80L12.59 7.79C12.75 7.94 12.69 8.05 12.69 8.05C12.68 8.00 12.61 7.89 12.61 7.89C12.63 8.03 12.59 8.08 12.59 8.08C12.59 8.04 12.54 7.85 12.54 7.85C12.53 7.89 12.52 8.02 12.52 8.02C12.49 7.99 12.50 7.84 12.50 7.84L12.45 7.89C12.47 7.85 12.47 7.74 12.47 7.74C12.45 7.76 12.43 7.83 12.43 7.83C12.43 7.82 12.41 7.69 12.41 7.69C12.41 7.73 12.38 7.82 12.38 7.82L12.36 7.67C12.36 7.71 12.32 7.78 12.32 7.78V7.62L12.29 7.69L12.29 7.58L12.28 7.71L12.25 7.68L12.27 7.68L12.26 7.68L12.24 7.55L12.20 7.61L12.19 7.57L12.20 7.50C12.19 7.51 12.17 7.55 12.17 7.55V7.47L12.13 7.48L12.08 7.41L12.11 7.47L12.06 7.44L12.12 7.48L12.09 7.50L12.17 7.51V7.53L12.09 7.53C12.20 7.55 12.20 7.58 12.20 7.58L12.10 7.58C12.18 7.58 12.23 7.63 12.23 7.63L12.12 7.63C12.22 7.64 12.27 7.68 12.27 7.68L12.13 7.69C12.20 7.68 12.27 7.76 12.27 7.76L12.19 7.76C12.27 7.77 12.29 7.81 12.29 7.81L12.22 7.82C12.29 7.86 12.29 7.93 12.29 7.93L12.21 7.86C12.30 7.94 12.27 8.01 12.27 8.01L12.22 7.94C12.29 8.02 12.27 8.07 12.27 8.07L12.22 8.01C12.25 8.19 12.21 8.19 12.21 8.19L12.19 8.01C12.15 8.03 12.12 8.14 12.12 8.14L12.16 7.97C12.11 8.00 12.10 8.07 12.10 8.07C12.08 7.99 12.15 7.89 12.15 7.89L12.07 8.00L12.13 7.83L12.06 7.95C12.05 7.84 12.12 7.77 12.12 7.77L12.02 7.85C12.03 7.82 12.07 7.73 12.07 7.73C12.06 7.74 12.02 7.79 12.02 7.79C12.03 7.74 12.08 7.67 12.08 7.67C12.06 7.68 12.02 7.73 12.02 7.73C12.02 7.70 12.05 7.59 12.05 7.59L12.01 7.66L12.03 7.55L12.00 7.59L12.01 7.52L11.99 7.52L11.97 7.43L11.98 7.52L12.00 7.51L12.00 7.59L11.93 7.52L11.97 7.65L11.90 7.58L11.96 7.70L11.88 7.61L11.94 7.76L11.87 7.70L11.93 7.81C11.90 7.81 11.84 7.74 11.84 7.74C11.87 7.76 11.92 7.88 11.92 7.88C11.87 7.88 11.85 7.80 11.85 7.80L11.91 7.92C11.87 7.91 11.83 7.83 11.83 7.83C11.82 7.88 11.90 8.02 11.90 8.02C11.87 8.02 11.83 7.98 11.83 7.98C11.83 7.98 11.83 7.95 11.85 8.01C11.88 8.06 11.94 8.12 11.94 8.12C11.89 8.12 11.84 8.05 11.84 8.05C11.83 8.08 11.90 8.22 11.90 8.22C11.85 8.21 11.80 8.06 11.80 8.06C11.79 8.08 11.78 8.26 11.77 8.23C11.77 8.21 11.77 8.00 11.77 8.00C11.76 8.01 11.72 8.11 11.72 8.11C11.71 8.06 11.76 7.88 11.76 7.88L11.70 7.99L11.78 7.78L11.69 7.88L11.80 7.67L11.74 7.75C11.76 7.61 11.86 7.61 11.86 7.61C11.74 7.59 11.73 7.73 11.73 7.73C11.71 7.73 11.71 7.65 11.71 7.65L11.70 7.69L11.68 7.81L11.67 7.71V7.84C11.67 7.85 11.63 7.76 11.63 7.76C11.62 7.78 11.62 7.88 11.62 7.88L11.59 7.80C11.57 7.85 11.59 7.94 11.59 7.94C11.55 7.94 11.54 7.86 11.54 7.86L11.51 7.97L11.51 7.89C11.51 7.80 11.62 7.64 11.65 7.63C11.68 7.61 11.79 7.57 11.79 7.57C11.78 7.56 11.80 7.48 11.80 7.48L11.72 7.59C11.70 7.55 11.74 7.49 11.74 7.49C11.72 7.51 11.64 7.62 11.64 7.62C11.63 7.58 11.66 7.5 11.66 7.5C11.64 7.52 11.56 7.65 11.56 7.65C11.56 7.64 11.61 7.50 11.61 7.50C11.55 7.55 11.50 7.71 11.50 7.71C11.48 7.65 11.52 7.52 11.52 7.52L11.43 7.74C11.42 7.70 11.44 7.61 11.44 7.61C11.41 7.63 11.36 7.75 11.36 7.75C11.37 7.68 11.39 7.60 11.39 7.60L11.30 7.75L11.32 7.65L11.27 7.76L11.29 7.66L11.22 7.76L11.28 7.66L11.20 7.74C11.20 7.74 11.32 7.59 11.35 7.57C11.37 7.54 11.60 7.46 11.65 7.43C11.70 7.41 11.92 7.42 11.92 7.42L11.85 7.42L11.87 7.39L11.85 7.42H11.81L11.83 7.39L11.81 7.42H11.74L11.79 7.37C11.76 7.39 11.74 7.42 11.74 7.42L11.70 7.42L11.73 7.36L11.69 7.42L11.62 7.44C11.63 7.41 11.67 7.36 11.67 7.36C11.65 7.39 11.61 7.44 11.61 7.44L11.56 7.46C11.56 7.43 11.60 7.37 11.60 7.37C11.57 7.40 11.54 7.47 11.54 7.47C11.53 7.44 11.55 7.36 11.55 7.36C11.53 7.38 11.49 7.48 11.49 7.48C11.48 7.45 11.49 7.36 11.50 7.37C11.48 7.39 11.44 7.50 11.44 7.50V7.39C11.42 7.39 11.39 7.51 11.39 7.51C11.37 7.47 11.39 7.38 11.39 7.38C11.38 7.41 11.34 7.51 11.34 7.51L11.34 7.47L11.33 7.55L11.32 7.48L11.29 7.56C11.29 7.51 11.33 7.39 11.33 7.39C11.30 7.42 11.23 7.57 11.23 7.57V7.51L11.21 7.60C11.19 7.51 11.25 7.42 11.25 7.42C11.20 7.48 11.19 7.56 11.19 7.56L11.17 7.52C11.15 7.55 11.15 7.63 11.15 7.63C11.12 7.54 11.17 7.46 11.17 7.46C11.12 7.50 11.09 7.67 11.09 7.67L11.08 7.54C11.06 7.57 11.03 7.67 11.03 7.67C11.02 7.62 11.05 7.53 11.08 7.48C11.11 7.44 11.13 7.40 11.32 7.36C11.52 7.32 11.98 7.36 11.98 7.36L11.90 7.34C11.86 7.30 11.75 7.33 11.75 7.33L11.72 7.34C11.72 7.34 11.72 7.30 11.72 7.29C11.73 7.28 11.67 7.33 11.67 7.33L11.65 7.33V7.28L11.57 7.33L11.55 7.34L11.60 7.27C11.57 7.30 11.48 7.33 11.48 7.33C11.49 7.31 11.55 7.26 11.55 7.26C11.53 7.26 11.44 7.34 11.44 7.34L11.49 7.28L11.37 7.34C11.37 7.32 11.42 7.28 11.42 7.28C11.37 7.32 11.26 7.35 11.26 7.35L11.39 7.25L11.23 7.37C11.26 7.30 11.33 7.23 11.33 7.23C11.29 7.23 11.15 7.38 11.15 7.38C11.15 7.32 11.20 7.25 11.20 7.25C11.17 7.27 11.07 7.40 11.07 7.40C11.07 7.36 11.12 7.27 11.12 7.27C11.09 7.29 11.02 7.40 11.02 7.40C11.00 7.33 11.07 7.28 11.07 7.28L10.92 7.36C11.00 7.24 11.16 7.20 11.18 7.19C11.19 7.19 11.33 7.19 11.45 7.19C11.57 7.20 11.72 7.26 11.73 7.27C11.74 7.27 11.86 7.31 11.86 7.31L11.89 7.29L11.85 7.30L11.79 7.29L11.85 7.25L11.77 7.28L11.74 7.26L11.79 7.23L11.73 7.26L11.64 7.23L11.74 7.19L11.58 7.19L11.71 7.14L11.51 7.18C11.53 7.16 11.58 7.14 11.58 7.14C11.54 7.14 11.45 7.16 11.45 7.16C11.47 7.14 11.55 7.10 11.55 7.10C11.50 7.11 11.39 7.15 11.39 7.15L11.47 7.09C11.46 7.09 11.39 7.12 11.39 7.12C11.41 7.09 11.45 7.07 11.45 7.07C11.43 7.07 11.29 7.14 11.29 7.14C11.33 7.09 11.39 7.02 11.39 7.02L11.31 7.07L11.36 7.02L11.23 7.08C11.27 7.02 11.37 6.98 11.40 6.98C11.43 6.97 11.63 7.00 11.79 7.11C11.95 7.22 11.96 7.33 11.96 7.33C11.96 7.33 12.13 6.97 12.41 6.95C12.41 6.95 12.37 7.00 12.28 7.01C12.28 7.01 12.38 7.04 12.40 7.07C12.40 7.07 12.29 7.06 12.22 7.08C12.22 7.08 12.34 7.11 12.35 7.14C12.35 7.14 12.23 7.12 12.17 7.13C12.17 7.13 12.28 7.15 12.28 7.17C12.28 7.17 12.11 7.17 12.11 7.21C12.11 7.21 12.22 7.20 12.25 7.22C12.25 7.22 12.10 7.24 12.07 7.26L12.17 7.28C12.17 7.28 12.04 7.30 12.03 7.34C12.03 7.34 12.30 7.22 12.52 7.20C12.74 7.17 12.80 7.23 12.84 7.26C12.88 7.30 12.97 7.38 12.95 7.45C12.95 7.45 12.90 7.36 12.79 7.28L12.89 7.41L12.78 7.31C12.78 7.31 12.85 7.41 12.85 7.44C12.85 7.44 12.74 7.26 12.69 7.23C12.69 7.23 12.77 7.33 12.77 7.37C12.77 7.37 12.62 7.22 12.60 7.22C12.60 7.22 12.72 7.33 12.72 7.40C12.72 7.40 12.58 7.26 12.54 7.24C12.54 7.24 12.64 7.30 12.62 7.35L12.52 7.25L12.58 7.36L12.55 7.35C12.55 7.35 12.50 7.26 12.44 7.26L12.52 7.34L12.48 7.34C12.48 7.34 12.43 7.27 12.37 7.25C12.37 7.25 12.46 7.32 12.46 7.34L12.43 7.34C12.43 7.34 12.38 7.28 12.34 7.27L12.38 7.33H12.36L12.31 7.29L12.34 7.33L12.30 7.34L12.26 7.31L12.29 7.34H12.26L12.24 7.32L12.24 7.35L12.18 7.35L12.17 7.32L12.17 7.34L12.07 7.36L12.07 7.36Z" fill="#016A16"/>
<path d="M12.30 7.36L12.34 7.41L12.35 7.41V7.41C12.35 7.41 12.50 7.47 12.61 7.56C12.72 7.66 12.79 7.77 12.80 7.82C12.81 7.87 12.81 8.01 12.81 8.01C12.81 8.01 12.79 7.89 12.78 7.88C12.78 7.88 12.78 7.95 12.77 7.97C12.77 7.97 12.76 7.84 12.76 7.82C12.75 7.80 12.75 7.93 12.73 7.94C12.73 7.94 12.73 7.80 12.72 7.76C12.72 7.76 12.72 7.83 12.71 7.85C12.71 7.85 12.69 7.68 12.65 7.64C12.65 7.64 12.70 7.73 12.67 7.85L12.66 7.80L12.67 7.80L12.66 7.80L12.64 7.73L12.62 7.78L12.61 7.78L12.61 7.73L12.66 7.73L12.59 7.72L12.59 7.70L12.63 7.69L12.59 7.69L12.59 7.66L12.62 7.66L12.59 7.65L12.59 7.63L12.59 7.65L12.55 7.64L12.55 7.62L12.54 7.64L12.54 7.64L12.54 7.60L12.54 7.60L12.54 7.60L12.53 7.57L12.53 7.60L12.51 7.60L12.50 7.55L12.49 7.59C12.49 7.59 12.46 7.50 12.44 7.49L12.44 7.55C12.44 7.55 12.43 7.55 12.43 7.55L12.38 7.47L12.38 7.49C12.38 7.49 12.38 7.49 12.37 7.49L12.35 7.44L12.33 7.48L12.31 7.45L12.30 7.47C12.22 7.45 12.12 7.41 12.13 7.41C12.13 7.40 12.18 7.40 12.18 7.40L12.17 7.36L12.19 7.40H12.21L12.21 7.37L12.22 7.40L12.26 7.40L12.25 7.37L12.27 7.39H12.33L12.30 7.36ZM12.38 7.50L12.39 7.53L12.37 7.50C12.38 7.50 12.38 7.50 12.38 7.50ZM12.53 7.61L12.52 7.64L12.52 7.63L12.51 7.61L12.53 7.61ZM12.59 7.66L12.59 7.68L12.56 7.68L12.56 7.66H12.59ZM12.58 7.70L12.58 7.72L12.57 7.72L12.57 7.70L12.58 7.70ZM12.60 7.73L12.60 7.76L12.60 7.74L12.60 7.73ZM12.58 7.74L12.58 7.75L12.57 7.74L12.58 7.74ZM12.61 7.8H12.61L12.61 7.80L12.61 7.8Z" fill="#016A16"/>
</g>
<rect x="0.25" y="0.25" width="23.5" height="17.5" rx="1.75" stroke="#DDE0EA" stroke-width="0.5"  style="fill-opacity:0"/>
<defs>
<clipPath id="clip0_1257_4732">
<rect width="24" height="18" rx="2" fill="white"/>
</clipPath>
</defs>
</svg>
