<svg width="24" height="18" viewBox="0 0 24 18" fill="none" xmlns="http://www.w3.org/2000/svg">
<g clip-path="url(#clip0_1257_29633)">
<path d="M0 0H24V18H0V0Z" fill="#18C3DF"/>
<path d="M0 6H24V12H0V6Z" fill="white"/>
<path fill-rule="evenodd" clip-rule="evenodd" d="M7.00127 6.39874L7.21359 7.10647L7.95232 7.0897L7.34483 7.51031L7.58891 8.20729L7.00134 7.75996L6.41388 8.2075L6.65781 7.51045L6.05031 7.0898L6.78885 7.10647L7.00127 6.39874ZM16.9988 6.39874L17.2111 7.10647L17.9499 7.0897L17.3422 7.51045L17.5862 8.20728L16.9987 7.75996L16.4112 8.2075L16.6552 7.51031L16.0479 7.0898L16.7864 7.10647L16.9988 6.39874ZM12.5876 9.80876L12.0001 9.36122L11.4127 9.80876L11.6566 9.1117L11.0491 8.69106L11.7876 8.70773L12 8L12.2124 8.70773L12.9511 8.69096L12.3436 9.11157L12.5876 9.80876ZM16.9988 9.39874L17.2111 10.1065L17.9499 10.0897L17.3422 10.5104L17.5862 11.2073L16.9987 10.76L16.4112 11.2075L16.6552 10.5103L16.0479 10.0898L16.7864 10.1065L16.9988 9.39874ZM7.00127 9.39874L7.21359 10.1065L7.95232 10.0897L7.34483 10.5103L7.58891 11.2073L7.00134 10.76L6.41388 11.2075L6.65781 10.5104L6.05031 10.0898L6.78885 10.1065L7.00127 9.39874Z" fill="#18C3DF"/>
</g>
<rect x="0.25" y="0.25" width="23.5" height="17.5" rx="1.75" stroke="#DDE0EA" stroke-width="0.5" style="fill-opacity:0"/>
<defs>
<clipPath id="clip0_1257_29633">
<rect width="24" height="18" rx="2" fill="white"/>
</clipPath>
</defs>
</svg>
