<svg width="24" height="18" viewBox="0 0 24 18" fill="none" xmlns="http://www.w3.org/2000/svg">
  <g clip-path="url(#clip0_1051_61)">
    <rect width="24" height="18" fill="white" />
    <path fill-rule="evenodd" clip-rule="evenodd" d="M0 12H24V18H0V12Z" fill="#249F58" />
    <path fill-rule="evenodd" clip-rule="evenodd" d="M11.9999 12C13.6559 12 14.9999 10.656 14.9999 9C14.9999 7.344 13.6559 6 11.9999 6C10.3439 6 8.99993 7.344 8.99993 9C8.99993 10.656 10.3439 12 11.9999 12ZM11.9999 10.8C12.9935 10.8 13.7999 9.9936 13.7999 9C13.7999 8.0064 12.9935 7.2 11.9999 7.2C11.0063 7.2 10.1999 8.0064 10.1999 9C10.1999 9.9936 11.0063 10.8 11.9999 10.8Z" fill="#1A47B8" />
    <path d="M11.9999 9.60001C12.3313 9.60001 12.5999 9.33138 12.5999 9.00001C12.5999 8.66864 12.3313 8.40001 11.9999 8.40001C11.6685 8.40001 11.3999 8.66864 11.3999 9.00001C11.3999 9.33138 11.6685 9.60001 11.9999 9.60001Z" fill="#1A47B8" />
    <path fill-rule="evenodd" clip-rule="evenodd" d="M0 0H24V3V6H0V0Z" fill="#FF6C2D" />
  </g>
  <rect x="0.25" y="0.25" width="23.5" height="17.5" rx="1.75" stroke="#DDE0EA" stroke-width="0.5" style="fill-opacity:0" />
  <defs>
    <clipPath id="clip0_1051_61">
      <rect width="24" height="18" rx="2" fill="white" />
    </clipPath>
  </defs>
</svg>