<svg width="24" height="18" viewBox="0 0 24 18" fill="none" xmlns="http://www.w3.org/2000/svg">
  <g clip-path="url(#clip0_1059_3)">
    <rect width="24" height="18" fill="white" />
    <path fill-rule="evenodd" clip-rule="evenodd" d="M0 12H24V18H0V12Z" fill="#F93939" />
    <path fill-rule="evenodd" clip-rule="evenodd" d="M12.1 10.8C13.756 10.8 15.1 9.99358 15.1 8.99998C15.1 8.00638 13.756 7.19998 12.1 7.19998C10.444 7.19998 9.10005 8.00638 9.10005 8.99998C9.10005 9.99358 10.444 10.8 12.1 10.8ZM12.1 9.89998C13.0936 9.89998 13.9 9.29518 13.9 8.54998C13.9 7.80598 13.0936 7.19998 12.1 7.19998C11.1064 7.19998 10.3 7.80478 10.3 8.54998C10.3 9.29398 11.1064 9.89998 12.1 9.89998Z" fill="#F93939" />
    <path d="M12.1 9.59998C12.4314 9.59998 12.7 9.06272 12.7 8.39998C12.7 7.73724 12.4314 7.19998 12.1 7.19998C11.7687 7.19998 11.5 7.73724 11.5 8.39998C11.5 9.06272 11.7686 9.59998 12.1 9.59998Z" fill="#AF010D" />
    <path fill-rule="evenodd" clip-rule="evenodd" d="M5.96046e-07 0H24V6H5.96046e-07V0Z" fill="#00B731" />
  </g>
  <rect x="0.25" y="0.25" width="23.5" height="17.5" rx="1.75" stroke="#DDE0EA" stroke-width="0.5" style="fill-opacity:0" />
  <defs>
    <clipPath id="clip0_1059_3">
      <rect width="24" height="18" rx="2" fill="white" />
    </clipPath>
  </defs>
</svg>