<svg width="24" height="18" viewBox="0 0 24 18" fill="none" xmlns="http://www.w3.org/2000/svg">
<g clip-path="url(#clip0_1059_3)">
<rect width="24" height="18" fill="white"/>
<path d="M24 0H0V18H24V0Z" fill="white"/>
<path fill-rule="evenodd" clip-rule="evenodd" d="M0 12.08H24V18H0V12.08Z" fill="#DA0000"/>
<path fill-rule="evenodd" clip-rule="evenodd" d="M0 0H24V5.91H0V0Z" fill="#239F40"/>
<path fill-rule="evenodd" clip-rule="evenodd" d="M12.83 6.94C13.13 7.30 14.05 9.32 12.28 10.64C11.45 11.26 11.96 11.29 11.99 11.40C13.32 10.69 13.76 9.73 13.75 8.87C13.74 8.01 13.28 7.25 12.83 6.94Z" fill="#DA0000"/>
<path fill-rule="evenodd" clip-rule="evenodd" d="M13.01 6.84C13.33 7.04 13.61 7.31 13.82 7.63C14.03 7.95 14.17 8.31 14.22 8.69C14.27 9.07 14.24 9.45 14.13 9.82C14.01 10.18 13.82 10.51 13.56 10.80C14.51 10.58 15.74 7.76 13.01 6.84ZM10.98 6.84C10.66 7.04 10.38 7.31 10.17 7.63C9.96 7.95 9.82 8.31 9.77 8.69C9.72 9.07 9.75 9.45 9.87 9.82C9.98 10.18 10.17 10.51 10.43 10.80C9.48 10.58 8.25 7.76 10.98 6.84Z" fill="#DA0000"/>
<path fill-rule="evenodd" clip-rule="evenodd" d="M11.16 6.94C10.86 7.30 9.94 9.32 11.71 10.64C12.54 11.26 12.03 11.29 12.00 11.40C10.67 10.69 10.23 9.73 10.25 8.87C10.25 8.01 10.71 7.25 11.16 6.94Z" fill="#DA0000"/>
<path fill-rule="evenodd" clip-rule="evenodd" d="M13.69 11.21C13.17 11.22 12.51 11.14 12.02 10.89C12.10 11.05 12.17 11.14 12.25 11.30C12.71 11.34 13.35 11.40 13.69 11.21ZM10.35 11.21C10.87 11.22 11.53 11.14 12.02 10.89C11.94 11.05 11.87 11.14 11.79 11.30C11.33 11.34 10.68 11.40 10.35 11.21ZM11.31 6.34C11.41 6.62 11.69 6.66 11.99 6.5C12.21 6.62 12.54 6.63 12.66 6.35C12.75 7.05 12.01 6.88 11.99 6.75C11.71 7.01 11.21 6.86 11.31 6.34Z" fill="#DA0000"/>
<path fill-rule="evenodd" clip-rule="evenodd" d="M12.01 11.65L12.28 11.33L12.32 7.12L12 6.83L11.67 7.10L11.73 11.35L12.01 11.65Z" fill="#DA0000"/>
</g>
<rect x="0.25" y="0.25" width="23.5" height="17.5" rx="1.75" stroke="#DDE0EA" stroke-width="0.5" style="fill-opacity:0"/>
<defs>
<clipPath id="clip0_1059_3">
<rect width="24" height="18" rx="2" fill="white"/>
</clipPath>
</defs>
</svg>
