<svg width="24" height="18" viewBox="0 0 24 18" fill="none" xmlns="http://www.w3.org/2000/svg">
<g clip-path="url(#clip0_1257_31192)">
<path d="M0 6H24V12H0V6Z" fill="white"/>
<path d="M0 0H24V6H0V0Z" fill="#CE1126"/>
<path d="M0 12H24V18H0V12Z" fill="black"/>
<path d="M14.6602 7.89844C14.625 7.88282 14.5938 7.85938 14.5664 7.83204C14.5469 7.80079 14.5625 7.80079 14.6445 7.82032C14.7969 7.86329 14.8945 7.84376 14.9961 7.76563L15.0781 7.69532L15.1797 7.74219C15.2383 7.77344 15.2969 7.79298 15.3086 7.78516C15.3555 7.77344 15.4492 7.65626 15.4414 7.61719C15.4414 7.57032 15.4805 7.58204 15.5078 7.63673C15.5469 7.7422 15.4883 7.86329 15.375 7.89063C15.3281 7.90626 15.2852 7.89845 15.2031 7.8711C15.1133 7.83985 15.0938 7.83985 15.0469 7.8711C14.9922 7.91407 14.9258 7.93751 14.8555 7.94141C14.7891 7.94923 14.7188 7.9336 14.6602 7.89844ZM15.0391 7.55079C14.9961 7.46876 14.9727 7.37891 14.9766 7.28907C14.9805 7.2461 14.9961 7.23438 15.0273 7.2461C15.0938 7.26563 15.1055 7.31251 15.0938 7.44532C15.0938 7.56251 15.0742 7.59766 15.0391 7.55079ZM10.5977 7.42579C10.5938 7.51173 10.7578 7.72657 10.8281 7.76563C10.7773 7.78516 10.7188 7.78126 10.6719 7.80079C10.4102 8.06251 9.46484 8.98048 9.29297 9.20704C9.80469 9.21876 10.3711 9.19923 10.8477 9.1797C10.8477 8.83204 11.1758 8.81251 11.4023 8.68751C11.5117 8.86329 11.7969 8.85157 11.8359 9.1211V10.2774H7.46484C7.44922 10.3633 7.41406 10.4453 7.36328 10.5195C7.3125 10.5938 7.24609 10.6563 7.17188 10.7031C7.09375 10.75 7.01172 10.7774 6.92188 10.7891C6.83203 10.8008 6.74219 10.793 6.65625 10.7695C6.78906 10.6367 7.01172 10.5859 7.08984 10.3945C7.15625 9.97266 6.96094 9.71876 6.82812 9.47657C6.99219 9.42188 7.14844 9.34376 7.28906 9.23829C7.13672 9.69923 7.69531 9.65235 8.10156 9.64063C8.11719 9.48048 8.10938 9.29688 7.99219 9.26954C8.14453 9.21095 8.16797 9.19141 8.42578 8.98048V9.61329L11.4531 9.60548C11.4531 9.41016 11.5078 9.08595 11.3477 9.08595C11.2031 9.08595 11.3477 9.4961 11.2305 9.4961H8.88672V9.10157C8.98438 8.9961 8.96875 9.00001 9.64844 8.32423C9.71094 8.25782 10.1914 7.82423 10.6055 7.42579H10.5977ZM16.4531 7.40626C16.6172 7.4961 16.75 7.6172 16.9453 7.66798C16.9258 7.75391 16.8477 7.78516 16.8281 7.8711V9.64454C17.0508 9.69141 17.1016 9.5586 17.207 9.4961C17.2344 9.77735 17.418 10.0547 17.4062 10.2813H16.4531V7.40626ZM15.1797 8.35938C15.1797 8.35938 15.5273 8.06251 15.5273 8.05079V9.59376H15.7773L15.7695 7.86329C15.8672 7.76173 16.0703 7.6172 16.1172 7.51173V10.2695H13.9219C13.8906 9.69923 13.8828 9.10548 14.5547 9.23048V9.00001C14.5352 8.96095 14.4961 9.00782 14.4883 8.95704C14.5938 8.85157 14.625 8.82423 14.9141 8.57423L14.9219 9.59376H15.1797V8.35938ZM14.3516 9.57813C14.3984 9.64454 14.5625 9.64454 14.5469 9.52735C14.5273 9.42969 14.3164 9.46095 14.3516 9.57813Z" fill="#007A3D"/>
<path d="M7.99219 10.7344C8.0625 10.7344 8.12109 10.6758 8.12109 10.6055C8.12109 10.5312 8.0625 10.4727 7.99219 10.4727C7.91797 10.4727 7.85938 10.5312 7.85938 10.6055C7.85938 10.6758 7.91797 10.7344 7.99219 10.7344Z" fill="#007A3D"/>
<path d="M12.1289 7.41016C12.293 7.49609 12.4258 7.62109 12.6289 7.67578C12.6016 7.75391 12.5312 7.78516 12.5117 7.87109V9.64453C12.7344 9.69141 12.7812 9.56641 12.8867 9.49609C12.918 9.77734 13.0977 10.0586 13.0898 10.2812H12.1289V7.41016Z" fill="#007A3D"/>
</g>
<rect x="0.25" y="0.25" width="23.5" height="17.5" rx="1.75" stroke="#DDE0EA" stroke-width="0.5" style="fill-opacity:0"/>
<defs>
<clipPath id="clip0_1257_31192">
<rect width="24" height="18" rx="2" fill="white"/>
</clipPath>
</defs>
</svg>
