<svg width="24" height="18" viewBox="0 0 24 18" fill="none" xmlns="http://www.w3.org/2000/svg">
<g clip-path="url(#clip0_1262_1571)">
<path d="M24 0H0V18H24V0Z" fill="#CF142B"/>
<path d="M7.39236 6.41419C7.40556 6.42739 7.56396 6.52339 7.56636 6.51799C7.56936 6.51259 7.98036 6.41779 7.97796 6.42319C7.97496 6.42859 7.74756 6.69919 7.75776 6.70459C7.76856 6.70999 7.99596 6.98239 8.00136 6.98539C8.00676 6.98839 7.57056 6.94939 7.57056 6.94939L7.28196 7.18219L7.21716 6.88039C7.21716 6.88039 6.85416 6.75259 6.84876 6.74959C6.84336 6.74659 7.15956 6.64279 7.15956 6.64279L7.25376 6.39679C7.25376 6.39679 7.37676 6.41959 7.39236 6.41419Z" fill="#F9DD16"/>
<path d="M7.26258 7.23559L7.19118 6.90259C6.84198 6.77959 6.83718 6.77719 6.83478 6.77599L6.81738 6.76699L6.81918 6.74719C6.82038 6.73119 6.92618 6.68839 7.13658 6.61879L7.23498 6.36259L7.25958 6.36739C7.31058 6.37699 7.37358 6.38659 7.38618 6.38539L7.40358 6.37999L7.41318 6.39379C7.42878 6.40699 7.53498 6.47119 7.56618 6.48679C7.59198 6.47839 7.64538 6.46579 7.76358 6.43879C7.97718 6.38959 7.97898 6.39079 7.99098 6.39679L8.01738 6.41059L8.00358 6.43759C8.00198 6.44039 7.98878 6.45679 7.96398 6.48679C7.92378 6.53599 7.82538 6.65539 7.79358 6.69979C7.81278 6.72079 7.85118 6.76579 7.93278 6.86179C7.96758 6.90319 8.00718 6.94879 8.01798 6.96079L8.03538 6.96979L8.02878 6.99379C8.02578 7.00519 8.02398 7.01119 7.98618 7.01179C7.93758 7.01359 7.82778 7.00279 7.57878 6.98059L7.26258 7.23559ZM6.93618 6.74839C7.01358 6.77599 7.13538 6.81919 7.22718 6.85099L7.24278 6.85639L7.30038 7.12699L7.56018 6.91759L7.57218 6.91879C7.68558 6.92899 7.84098 6.94219 7.92978 6.94939C7.91838 6.93619 7.90458 6.91939 7.88718 6.89959C7.83258 6.83479 7.74918 6.73759 7.73778 6.72739L7.72518 6.72079L7.72698 6.70939C7.72338 6.69079 7.72218 6.68539 7.90098 6.46759C7.79898 6.48979 7.62978 6.52939 7.58658 6.54139L7.58538 6.54439L7.56978 6.54679C7.54578 6.55099 7.42458 6.47179 7.38378 6.44359C7.36758 6.44359 7.33698 6.44059 7.27218 6.42919L7.18158 6.66559L7.16778 6.66979C7.09878 6.69259 7.00158 6.72499 6.93498 6.74779L6.93618 6.74839Z" fill="black"/>
<path d="M12.7023 7.00489C12.7029 6.75049 12.2025 5.59969 12.1197 5.42269C11.9661 5.23069 11.8041 4.92649 11.7339 4.66369C11.6889 4.39849 11.5467 4.19029 11.3469 4.12009C11.1159 3.99769 10.8909 4.04569 10.6743 4.06429C10.5681 4.08709 10.4769 4.14409 10.4259 4.22869C10.3089 4.39609 10.2453 4.38349 10.1643 4.45549C9.49766 4.55929 8.86706 4.90369 8.38706 5.13829C8.13326 5.31469 7.91726 5.41729 7.81766 5.43889C7.54706 5.44009 7.34966 5.31169 7.25546 5.24329C6.94886 4.96429 6.64226 4.68529 6.33506 4.40629C6.06926 4.20769 6.00326 4.49449 6.05426 4.53829C6.14306 4.72909 5.95106 4.84489 6.68066 5.53249C6.77306 5.72149 6.86486 5.91109 6.95726 6.10009C6.95726 6.10009 6.94166 6.25549 6.95486 6.26209C7.08806 6.57949 7.29986 6.50029 7.39946 6.41149C7.47146 6.34549 7.54406 6.28009 7.61606 6.21409C7.61606 6.21409 8.04566 6.07789 8.05226 6.06529C8.51306 6.13369 9.69986 5.90749 9.89606 5.81509C10.0725 5.71609 10.0839 5.80009 10.2369 5.67529C10.3647 5.59069 10.2945 5.65789 10.5303 5.44249C10.6029 5.38009 10.6605 5.48149 10.6737 5.55169C10.6869 6.22189 10.7691 6.65029 10.8303 7.31809L11.8341 7.83229L12.7023 7.00489Z" fill="white"/>
<path d="M11.8405 7.88032L10.7929 7.34332L10.7911 7.32172C10.7707 7.09852 10.7479 6.90292 10.7263 6.71392C10.6837 6.34792 10.6435 6.00172 10.6351 5.55592C10.6261 5.51272 10.6009 5.46952 10.5805 5.46232C10.5781 5.46112 10.5703 5.45872 10.5559 5.47132C10.3825 5.62972 10.3729 5.63692 10.3237 5.66632C10.3087 5.67532 10.2895 5.68672 10.2583 5.70712C10.1701 5.77912 10.1215 5.78632 10.0699 5.79412C10.0303 5.80012 9.99014 5.80612 9.91514 5.84812C9.71234 5.94412 8.52914 6.16852 8.05814 6.10492C8.01794 6.12412 7.91534 6.15952 7.63574 6.24832L7.42514 6.44032C7.39454 6.46732 7.28654 6.55252 7.15754 6.52372C7.06034 6.50152 6.98114 6.42232 6.92294 6.28732C6.91034 6.27292 6.90494 6.23752 6.91754 6.10732L6.64934 5.55592C6.09074 5.02852 6.06614 4.82572 6.04814 4.67752C6.04334 4.63552 6.03854 4.59892 6.02174 4.56052C5.98574 4.51732 5.99534 4.42072 6.04394 4.35952C6.07694 4.31812 6.17354 4.23772 6.35834 4.37572L7.28114 5.21512C7.45214 5.33872 7.62674 5.40052 7.81274 5.40052C7.90694 5.37892 8.11754 5.27872 8.36414 5.10712C8.42594 5.07652 8.48474 5.04712 8.54534 5.01712C8.99594 4.79272 9.55694 4.51432 10.1467 4.41952C10.1731 4.39732 10.1983 4.38292 10.2223 4.36852C10.2727 4.33912 10.3207 4.31152 10.3939 4.20652C10.4485 4.11652 10.5457 4.05172 10.6663 4.02592C10.7017 4.02232 10.7323 4.01932 10.7629 4.01632C10.9567 3.99592 11.1571 3.97492 11.3653 4.08532C11.5693 4.15672 11.7235 4.37152 11.7721 4.65652C11.8357 4.89592 11.9881 5.19532 12.1495 5.39752L12.1543 5.40532C12.2239 5.55472 12.7417 6.73672 12.7405 7.00432V7.02112L11.8405 7.87912V7.88032ZM10.8667 7.29352L11.8267 7.78552L12.6619 6.98872C12.6439 6.72292 12.1897 5.66752 12.0853 5.44312C11.9185 5.23312 11.7619 4.92472 11.6953 4.67392C11.6509 4.41352 11.5159 4.22152 11.3329 4.15732C11.1403 4.05532 10.9519 4.07512 10.7701 4.09432C10.7389 4.09792 10.7077 4.10092 10.6765 4.10332C10.5817 4.12372 10.5025 4.17592 10.4575 4.24912C10.3735 4.36972 10.3129 4.40452 10.2601 4.43572C10.2355 4.45012 10.2127 4.46332 10.1881 4.48492L10.1797 4.49272L10.1683 4.49452C9.58634 4.58512 9.02774 4.86292 8.57894 5.08612C8.51834 5.11612 8.45954 5.14552 8.40254 5.17312C8.14694 5.35072 7.92674 5.45452 7.82414 5.47672H7.81634C7.61234 5.47732 7.42094 5.41192 7.23134 5.27452L6.30794 4.43512C6.26114 4.40032 6.16874 4.34512 6.11294 4.39792C6.07454 4.43392 6.07214 4.49812 6.08054 4.51012L6.08714 4.51552L6.08954 4.52152C6.11354 4.57312 6.11894 4.61932 6.12494 4.66792C6.14174 4.80472 6.16394 4.99252 6.70694 5.50432L6.71534 5.51572L6.99674 6.09352L6.99554 6.10432C6.99014 6.15772 6.98654 6.22252 6.98834 6.24352L6.99014 6.24712C7.03874 6.36352 7.10114 6.43072 7.17434 6.44752C7.26734 6.46852 7.34954 6.40312 7.37294 6.38272L7.59554 6.17992L7.60394 6.17752C7.78034 6.12172 7.97834 6.05632 8.02274 6.03712L8.02994 6.02272L8.05754 6.02692C8.50994 6.09412 9.68174 5.87332 9.87854 5.77972C9.96314 5.73232 10.0153 5.72452 10.0573 5.71792C10.1035 5.71072 10.1365 5.70592 10.2115 5.64532C10.2475 5.62132 10.2679 5.60932 10.2835 5.59972C10.3249 5.57512 10.3303 5.57212 10.5037 5.41372C10.5469 5.37652 10.5865 5.38252 10.6057 5.38912C10.6705 5.41192 10.7029 5.49772 10.7119 5.54452V5.55112C10.7215 5.99512 10.7611 6.34012 10.8037 6.70552C10.8247 6.88912 10.8469 7.07812 10.8667 7.29352Z" fill="black"/>
<path d="M6.90533 4.96986C6.91433 4.97826 6.73974 5.54767 6.73974 5.54767C6.73974 5.54767 6.57834 5.38686 6.57954 5.38386L6.69233 4.78506L6.90533 4.96986Z" fill="#F9DD16"/>
<path d="M6.78097 5.67055L6.71557 5.65375C6.72697 5.60995 6.73777 5.56195 6.74377 5.51095L6.74497 5.50495C6.75517 5.47195 6.76177 5.44615 6.76837 5.41975C6.77377 5.39935 6.77917 5.37775 6.78577 5.35315C6.79297 5.30875 6.80437 5.25715 6.81937 5.19775C6.83317 5.15695 6.86017 5.02195 6.87217 4.96435L6.87697 4.94215L6.94357 4.95595L6.93877 4.97815C6.92557 5.04175 6.89917 5.17435 6.88477 5.21695C6.87097 5.27215 6.86017 5.32195 6.85237 5.36815C6.84457 5.39575 6.83977 5.41615 6.83437 5.43655C6.82777 5.46355 6.82117 5.48935 6.81097 5.52235C6.80437 5.57635 6.79237 5.62495 6.78097 5.67055ZM6.57757 5.40295L6.51157 5.38795C6.52057 5.34835 6.52957 5.30515 6.53257 5.25895L6.53377 5.25235C6.54217 5.22295 6.54757 5.19955 6.55297 5.17555C6.55717 5.15695 6.56137 5.13775 6.56737 5.11555C6.57217 5.07595 6.58117 5.02855 6.59317 4.97455C6.60157 4.94695 6.60937 4.88215 6.61417 4.83475C6.61657 4.81135 6.61897 4.79095 6.62137 4.77835C6.61897 4.75075 6.60877 4.70875 6.60577 4.70095L6.66757 4.67275C6.67417 4.68595 6.68737 4.74355 6.68917 4.77835V4.78555C6.68737 4.79695 6.68497 4.81795 6.68197 4.84255C6.67417 4.90975 6.66817 4.96375 6.65857 4.99255C6.64777 5.04175 6.63937 5.08735 6.63397 5.12875C6.62737 5.15455 6.62317 5.17315 6.61957 5.19115C6.61417 5.21515 6.60877 5.23915 6.60037 5.26855C6.59617 5.31775 6.58657 5.36155 6.57757 5.40295Z" fill="black"/>
<path d="M9.84017 5.48096L9.78137 5.47016C9.81617 5.27696 9.76577 4.89536 9.54617 4.65056L9.59057 4.61036C9.80237 4.84556 9.88337 5.23796 9.84017 5.48096Z" fill="black"/>
<path d="M8.73527 6.08035C8.73527 6.08035 8.73287 6.08035 8.73167 6.08035C8.71004 6.07795 8.70463 6.05812 8.70283 6.04971C8.70103 6.0425 8.69742 6.03049 8.69021 6.01247C8.65898 5.96861 8.64456 5.83165 8.68541 5.75295C8.69862 5.71871 8.72326 5.66164 8.74188 5.62559C8.74668 5.61658 8.75329 5.60937 8.7599 5.60337C8.7623 5.60096 8.76591 5.59736 8.76711 5.59556L8.82057 5.62319C8.81577 5.6322 8.80856 5.63941 8.80255 5.64542C8.80015 5.64782 8.79654 5.65143 8.79534 5.65323C8.77792 5.68687 8.75449 5.74154 8.74008 5.77698C8.70583 5.84366 8.72386 5.9584 8.73827 5.97582L8.74368 5.98363C8.75389 6.00706 8.7587 6.02388 8.7611 6.03289C8.7599 6.03049 8.75209 6.02028 8.73827 6.01907L8.73647 6.03529L8.76831 6.05211C8.76831 6.05211 8.76591 6.05692 8.76471 6.05932C8.7593 6.06894 8.75089 6.07915 8.73587 6.07915L8.73527 6.08035Z" fill="black"/>
<path d="M6.86891 5.83738L6.81671 5.80798C6.82931 5.78398 6.84011 5.76778 6.85091 5.75157C6.85331 5.74858 6.85511 5.74498 6.85751 5.74198L6.87491 5.71378C6.88811 5.68858 6.90251 5.66698 6.91691 5.64598C6.92771 5.62978 6.93911 5.61357 6.94931 5.59497C6.96371 5.57457 6.97511 5.55478 6.98651 5.53498C6.99851 5.51398 7.01111 5.49298 7.02371 5.47498C7.03211 5.45818 7.04531 5.43958 7.05791 5.42158C7.06991 5.40478 7.08131 5.38858 7.09031 5.37178C7.09931 5.35498 7.11011 5.33817 7.12151 5.32078C7.13351 5.30218 7.14551 5.28358 7.15631 5.26318L7.16771 5.24098C7.16771 5.24098 7.17011 5.23678 7.17191 5.23378C7.17911 5.22298 7.19231 5.20798 7.21331 5.21878L7.23971 5.23258L7.20911 5.29138C7.19771 5.31297 7.18451 5.33398 7.17131 5.35378C7.16111 5.36938 7.15091 5.38498 7.14311 5.39998C7.13291 5.41978 7.11971 5.43837 7.10651 5.45638C7.09451 5.47318 7.08311 5.48938 7.07411 5.50618C7.06031 5.52658 7.04891 5.54578 7.03811 5.56498C7.02551 5.58658 7.01291 5.60818 6.99971 5.62738C6.99011 5.64477 6.97811 5.66278 6.96611 5.68018C6.95231 5.70058 6.93911 5.71978 6.92711 5.74318C6.92711 5.74318 6.92711 5.74378 6.92711 5.74438C6.92051 5.75638 6.91391 5.76597 6.90791 5.77558L6.86831 5.83858L6.86891 5.83738ZM7.21751 5.24938L7.22891 5.25358L7.20251 5.23978L7.21751 5.24938Z" fill="black"/>
<path d="M6.38543 5.17614L6.32663 5.16414C6.33383 5.12754 6.34103 5.08794 6.34283 5.04474L6.34403 5.03814C6.35123 5.01114 6.35543 4.98894 6.36023 4.96674C6.36383 4.94934 6.36743 4.93194 6.37223 4.91094C6.37583 4.87374 6.38303 4.82994 6.39263 4.78074C6.40043 4.75494 6.40523 4.69254 6.40883 4.65114C6.41063 4.62954 6.41243 4.61034 6.41363 4.59834C6.41063 4.57194 6.39863 4.53234 6.39563 4.52514L6.44903 4.49754C6.45503 4.50894 6.47063 4.56174 6.47363 4.59534V4.60254C6.47183 4.61274 6.47063 4.63254 6.46883 4.65534C6.46403 4.71774 6.45923 4.76754 6.45143 4.79454C6.44243 4.83954 6.43583 4.88154 6.43163 4.92054C6.42623 4.94454 6.42263 4.96134 6.41963 4.97814C6.41483 5.00094 6.41063 5.02254 6.40343 5.04954C6.40103 5.09514 6.39383 5.13654 6.38603 5.17494L6.38543 5.17614Z" fill="black"/>
<path d="M6.97945 6.09508L6.9404 6.04943L6.94641 6.04402C6.95842 6.03381 6.96683 6.0272 6.97644 6.01098L6.98185 6.00497C7.01549 5.97554 7.03411 5.95691 7.05634 5.93288C7.12723 5.8614 7.19811 5.82836 7.24077 5.82055H7.24797C7.25398 5.82055 7.25939 5.82055 7.2654 5.81995C7.29303 5.81754 7.33088 5.81454 7.38014 5.8656L7.33688 5.90705C7.30805 5.87642 7.29303 5.87762 7.2708 5.87942C7.26359 5.87942 7.25578 5.88062 7.24858 5.88002C7.22094 5.88603 7.16207 5.91186 7.10019 5.97373C7.07797 5.99776 7.05814 6.01759 7.0251 6.04642C7.01129 6.06745 6.99867 6.07766 6.98545 6.08907L6.97945 6.09388V6.09508Z" fill="black"/>
<path d="M11.1583 4.26561C11.1487 4.24338 11.1439 4.22476 11.1391 4.20674C11.1355 4.19292 11.1319 4.1785 11.1253 4.16228C11.1193 4.13285 11.1175 4.11602 11.1169 4.10641L11.1307 4.10221L11.1121 4.0926C11.1121 4.0926 11.1127 4.09079 11.1133 4.09019L11.1163 4.08479C11.1229 4.07397 11.1331 4.06196 11.1511 4.06556C11.174 4.07037 11.1758 4.0932 11.1764 4.10161C11.1764 4.11002 11.1782 4.12444 11.1824 4.14546C11.1878 4.15928 11.1926 4.1755 11.1962 4.19112C11.2004 4.20794 11.2046 4.22356 11.2124 4.24158L11.1571 4.26561H11.1583Z" fill="black"/>
<path d="M10.5691 5.43236C10.5511 5.41676 10.5259 5.38856 10.5031 5.36396L10.4779 5.33456C10.4731 5.32436 10.4659 5.31776 10.4575 5.31056C10.4449 5.29916 10.4293 5.28536 10.4215 5.25896C10.4107 5.24156 10.4047 5.22356 10.3987 5.20616C10.3939 5.19116 10.3891 5.17736 10.3819 5.16356L10.3783 5.15156C10.3771 5.13955 10.3759 5.12756 10.3741 5.11616C10.3711 5.09816 10.3687 5.07956 10.3687 5.05856C10.3657 5.03276 10.3603 5.00816 10.3549 4.98476C10.3507 4.96556 10.3471 4.94756 10.3441 4.92716C10.3279 4.87856 10.3183 4.32236 10.3339 4.29176L10.3603 4.30556L10.3897 4.30976C10.3855 4.35236 10.3831 4.85456 10.4017 4.91336C10.4053 4.93676 10.4095 4.95356 10.4131 4.97156C10.4185 4.99676 10.4239 5.02255 10.4281 5.05496C10.4281 5.07536 10.4305 5.09096 10.4329 5.10656C10.4347 5.11736 10.4365 5.12876 10.4371 5.14016C10.4449 5.15636 10.4503 5.17196 10.4551 5.18576C10.4605 5.20256 10.4659 5.21696 10.4737 5.22896L10.4779 5.23856C10.4803 5.24936 10.4857 5.25416 10.4965 5.26436C10.5067 5.27336 10.5199 5.28476 10.5295 5.30396L10.5469 5.32316C10.5667 5.34536 10.5919 5.37296 10.6075 5.38616L10.5691 5.43236Z" fill="black"/>
<path d="M9.9736 5.81917C9.96219 5.81556 9.94957 5.80715 9.92735 5.79273C9.90992 5.78132 9.8907 5.7687 9.87328 5.75969C9.82042 5.73026 9.71409 5.5993 9.70868 5.50438L9.76875 5.50078C9.77296 5.57467 9.86727 5.68761 9.90151 5.70683C9.92074 5.71644 9.94176 5.73026 9.96039 5.74227C9.9718 5.75008 9.98802 5.7603 9.99282 5.7621L9.9736 5.81917Z" fill="black"/>
<path d="M7.51636 6.09896C7.48936 6.09896 7.46176 6.09476 7.43656 6.08396C7.39996 6.06836 7.37416 6.04016 7.36036 6.00176C7.35556 5.98076 7.34956 5.96336 7.34416 5.94596C7.33516 5.91716 7.32616 5.88956 7.32436 5.86436C7.31296 5.82536 7.31596 5.78576 7.31896 5.75096L7.32076 5.72756C7.35556 5.54696 7.41016 5.45756 7.43656 5.41436C7.44136 5.40656 7.44496 5.40056 7.44796 5.39516L7.46716 5.35796L7.52056 5.38556L7.50136 5.42276C7.49836 5.42876 7.49356 5.43656 7.48816 5.44556C7.46176 5.48876 7.41316 5.56856 7.38076 5.73476L7.37956 5.75516C7.37716 5.78696 7.37416 5.82056 7.38376 5.84996L7.38496 5.85776C7.38556 5.87576 7.39336 5.90096 7.40176 5.92736C7.40776 5.94596 7.41376 5.96516 7.41796 5.98436C7.42516 6.00356 7.43956 6.01916 7.46056 6.02816C7.51216 6.05036 7.59676 6.02996 7.63816 6.01196C7.66276 5.99876 8.10976 5.73716 8.13976 5.71256L8.14636 5.70836C8.15896 5.70296 8.17036 5.69516 8.18296 5.68736C8.20156 5.67536 8.22316 5.66216 8.25076 5.65076C8.27356 5.63576 8.30176 5.62436 8.32636 5.61356C8.34076 5.60756 8.35396 5.60156 8.36476 5.59616L8.37496 5.59316C8.38516 5.59196 8.39476 5.59016 8.40376 5.58896C8.42836 5.58476 8.45416 5.58056 8.49076 5.58356C8.49976 5.58296 8.51236 5.58236 8.52436 5.58236C8.54596 5.58236 8.56456 5.58236 8.57956 5.57816L8.58436 5.57696H8.58916C8.61676 5.57996 8.65876 5.58236 8.68816 5.58236H8.69416C8.73376 5.58956 9.29956 5.60516 9.39916 5.56196L9.40936 5.55956C9.44296 5.55776 9.48196 5.54936 9.52636 5.54036C9.53836 5.53736 9.54856 5.53556 9.55876 5.53316C9.58756 5.52716 9.61696 5.52056 9.64516 5.50916L9.65176 5.50736C9.66736 5.50496 9.69196 5.48936 9.71296 5.47616C9.72976 5.46536 9.74596 5.45516 9.76096 5.44856C9.79456 5.43536 10.1066 5.25416 10.2212 5.14796C10.2638 5.10476 10.2992 5.06876 10.3244 5.04356C10.3478 5.02016 10.3616 5.00576 10.3652 5.00216L10.3844 5.01896L10.4156 5.03456C10.4136 5.03816 10.3976 5.05516 10.3676 5.08556C10.3424 5.11076 10.307 5.14616 10.2638 5.19056C10.1456 5.29976 9.82756 5.48696 9.78556 5.50316C9.77416 5.50856 9.76036 5.51756 9.74596 5.52656C9.71956 5.54336 9.69256 5.56076 9.66556 5.56616C9.63376 5.57876 9.60256 5.58536 9.57256 5.59196C9.56296 5.59436 9.55276 5.59616 9.54316 5.59856C9.49456 5.60876 9.45556 5.61716 9.41836 5.61956C9.29056 5.66816 8.74936 5.64896 8.68696 5.64296C8.65696 5.64296 8.61736 5.64056 8.58856 5.63816C8.56876 5.64236 8.54776 5.64236 8.52556 5.64296C8.51416 5.64296 8.50276 5.64296 8.49076 5.64416C8.45776 5.64176 8.43796 5.64536 8.41456 5.64896C8.40616 5.65016 8.39776 5.65196 8.38876 5.65316C8.37796 5.65856 8.36476 5.66456 8.35096 5.66996C8.32756 5.68016 8.30116 5.69096 8.28256 5.70356L8.27716 5.70656C8.25316 5.71616 8.23396 5.72816 8.21596 5.73956C8.20216 5.74856 8.18896 5.75636 8.17516 5.76296C8.11756 5.80496 7.66936 6.06536 7.66516 6.06716C7.65976 6.06956 7.59076 6.09956 7.51756 6.09956L7.51636 6.09896Z" fill="black"/>
<path d="M11.0079 5.33754L10.9545 5.30994L11.0091 5.20554C11.0247 5.17554 11.0409 5.14974 11.0571 5.12454C11.0649 5.11254 11.0721 5.10054 11.0799 5.08794C11.0967 5.05854 11.1153 5.03814 11.1339 5.01774C11.1435 5.00754 11.1531 4.99674 11.1627 4.98474L11.1717 4.97694C11.1915 4.96554 11.2077 4.95474 11.2245 4.94394C11.2467 4.92894 11.2695 4.91454 11.2977 4.89954C11.3349 4.87674 11.3673 4.86114 11.4153 4.84314C11.4189 4.84134 11.4255 4.83774 11.4321 4.83474C11.4561 4.82334 11.4747 4.81374 11.4897 4.79454L11.4945 4.78794L11.5017 4.78494C11.5119 4.78074 11.5281 4.76154 11.5419 4.74654C11.5509 4.73634 11.5599 4.72614 11.5689 4.71714C11.5785 4.70814 11.5887 4.69854 11.5995 4.68774C11.6193 4.66854 11.6415 4.64754 11.6601 4.63194C11.6703 4.61934 11.6769 4.61034 11.6811 4.60494C11.6985 4.58154 11.7153 4.58454 11.7261 4.59174C11.7363 4.59834 11.7459 4.61034 11.7357 4.63314L11.7339 4.63614C11.7339 4.63614 11.7339 4.63674 11.7333 4.63734H11.7321C11.7249 4.64754 11.7171 4.65714 11.7057 4.67154L11.7009 4.67634C11.6823 4.69134 11.6613 4.71174 11.6415 4.73094C11.6307 4.74174 11.6199 4.75194 11.6109 4.76034C11.6037 4.76754 11.5953 4.77654 11.5875 4.78554C11.5695 4.80594 11.5527 4.82514 11.5335 4.83594C11.5107 4.86294 11.4849 4.87554 11.4591 4.88814C11.4531 4.89114 11.4471 4.89414 11.4405 4.89774C11.3925 4.91574 11.3643 4.92954 11.3283 4.95174C11.3001 4.96674 11.2791 4.98054 11.2581 4.99434C11.2419 5.00514 11.2257 5.01534 11.2071 5.02674C11.1975 5.03814 11.1885 5.04894 11.1789 5.05854C11.1615 5.07774 11.1459 5.09454 11.1327 5.11854C11.1243 5.13234 11.1165 5.14434 11.1087 5.15694C11.0931 5.18154 11.0781 5.20494 11.0637 5.23314L11.0091 5.33754H11.0079Z" fill="black"/>
<path d="M11.3289 7.51796C11.3253 7.51796 11.3211 7.51736 11.3169 7.51556C11.2911 7.50476 11.2995 7.47836 11.3025 7.46996C11.3043 7.46396 11.3073 7.45436 11.3115 7.44116C11.3115 7.41116 11.3157 7.37936 11.3187 7.34876C11.3217 7.32056 11.3247 7.29416 11.3253 7.27256C11.3343 7.21376 11.3421 7.16096 11.3427 7.11116L11.3409 7.06736C11.3391 7.02356 11.3373 6.98216 11.3307 6.93836C11.3301 6.90476 11.3277 6.87476 11.3259 6.84476C11.3241 6.81896 11.3223 6.79376 11.3217 6.76916C11.3205 6.71156 11.3163 6.66956 11.3061 6.62396C11.3043 6.57896 11.3019 6.52856 11.2929 6.48356L11.2917 6.47876V6.47396C11.2959 6.44576 11.2887 6.41816 11.2815 6.39176L11.2797 6.38396C11.2725 6.35516 11.2677 6.33296 11.2623 6.31016C11.2569 6.28676 11.2521 6.26276 11.2443 6.23216C11.2401 6.21836 11.2365 6.20216 11.2317 6.18416C11.2263 6.16256 11.2203 6.13856 11.2125 6.11216C11.2089 6.08036 11.1975 6.04616 11.1879 6.01616C11.1819 5.99816 11.1765 5.98136 11.1729 5.96756C11.1585 5.93876 11.1459 5.89916 11.1405 5.86676L11.1345 5.85356C11.1213 5.82536 11.1069 5.79356 11.1009 5.76176C11.0895 5.73956 11.0781 5.71136 11.0661 5.68136L11.0547 5.65316C11.0481 5.63756 11.0421 5.62016 11.0361 5.60276C11.0295 5.58416 11.0235 5.56496 11.0157 5.54876C11.0097 5.53376 11.0049 5.52116 10.9995 5.50856C10.9893 5.48456 10.9791 5.46056 10.9719 5.43296C10.9623 5.42216 10.9575 5.41136 10.9533 5.40296C10.9515 5.39936 10.9503 5.39636 10.9479 5.39276L10.9983 5.36036C11.0019 5.36576 11.0043 5.37116 11.0073 5.37716C11.0109 5.38496 11.0139 5.39156 11.0199 5.39696L11.0265 5.40296L11.0283 5.41136C11.0343 5.43656 11.0439 5.45996 11.0547 5.48516C11.0601 5.49836 11.0655 5.51156 11.0709 5.52536C11.0787 5.54156 11.0859 5.56256 11.0931 5.58356C11.0985 5.59976 11.1039 5.61536 11.1105 5.63036L11.1219 5.65916C11.1339 5.68976 11.1459 5.71796 11.1561 5.73776L11.1597 5.74736C11.1639 5.77256 11.1771 5.80256 11.1891 5.82836L11.1993 5.85356C11.2041 5.88656 11.2179 5.92376 11.2293 5.94776C11.2347 5.96636 11.2395 5.98196 11.2449 5.99816C11.2557 6.03116 11.2677 6.06836 11.2713 6.10076C11.2779 6.12296 11.2845 6.14756 11.2899 6.16976C11.2941 6.18716 11.2983 6.20276 11.3025 6.21656C11.3109 6.24896 11.3163 6.27296 11.3211 6.29696C11.3259 6.31916 11.3307 6.34136 11.3379 6.36836L11.3397 6.37556C11.3475 6.40376 11.3565 6.43796 11.3523 6.47636C11.3613 6.52436 11.3637 6.57596 11.3649 6.61616C11.3751 6.65936 11.3805 6.70616 11.3817 6.76736C11.3823 6.79076 11.3841 6.81596 11.3859 6.84056C11.3883 6.87176 11.3901 6.90296 11.3907 6.93356C11.3973 6.97616 11.3991 7.01936 11.4009 7.06496L11.4027 7.10936C11.4027 7.16516 11.3937 7.22036 11.3847 7.27736C11.3847 7.29776 11.3817 7.32596 11.3781 7.35536C11.3745 7.38596 11.3709 7.41776 11.3709 7.44536L11.3697 7.45376C11.3661 7.46696 11.3625 7.47716 11.3607 7.48436L11.3637 7.48556L11.3595 7.49336C11.3559 7.49996 11.3469 7.51796 11.3289 7.51796Z" fill="black"/>
<path d="M11.2292 4.3374C11.1782 4.4532 11.048 4.6224 11.0462 4.6266L10.922 4.875C10.8674 5.0112 10.9022 5.0652 10.9262 5.1048C10.9754 5.1924 10.9844 5.2392 11.021 5.3058C11.0348 5.3886 10.8878 5.4168 10.8854 5.4204C10.5788 5.5266 10.4234 5.2326 10.4216 5.2176C10.3802 5.0634 10.3856 5.0376 10.4792 5.0058C10.5872 4.9812 10.6304 4.98 10.6838 4.941C10.7846 4.8654 10.856 4.6368 10.8578 4.6332C10.8596 4.6296 10.8728 4.5036 10.8728 4.5036C10.8806 4.443 10.8524 4.3872 10.8836 4.2912C10.9238 4.1982 10.9484 4.173 11.0438 4.1658C11.168 4.1544 11.2646 4.242 11.2292 4.3374Z" fill="#F9DD16"/>
<path d="M10.7559 5.47322C10.6863 5.47322 10.6197 5.45402 10.5591 5.41562C10.4511 5.34722 10.3941 5.24042 10.3917 5.22062C10.3509 5.07122 10.3479 5.01842 10.4697 4.97702C10.4967 4.97042 10.5177 4.96622 10.5357 4.96262C10.5981 4.94942 10.6293 4.94282 10.6659 4.91642C10.7193 4.87622 10.7787 4.77122 10.8273 4.62842C10.8273 4.62662 10.8285 4.62542 10.8291 4.62422C10.8309 4.61282 10.8375 4.55342 10.8435 4.49942C10.8459 4.47962 10.8441 4.46042 10.8423 4.43822C10.8387 4.39802 10.8339 4.34762 10.8555 4.28102C10.8999 4.17782 10.9329 4.14302 11.0415 4.13462C11.1207 4.12742 11.1951 4.15622 11.2365 4.21022C11.2671 4.25042 11.2749 4.30022 11.2575 4.34762V4.34942C11.2269 4.41842 11.1663 4.51442 11.0775 4.63442L11.0715 4.64282L10.9491 4.88822C10.9017 5.00642 10.9293 5.05142 10.9509 5.08742C10.9803 5.13902 10.9959 5.17682 11.0097 5.20982C11.0211 5.23682 11.0313 5.26202 11.0475 5.29082L11.0511 5.30042C11.0619 5.36402 11.0133 5.41202 10.9065 5.44442L10.8957 5.44802C10.8483 5.46422 10.8015 5.47322 10.7559 5.47322ZM11.0643 4.19402C11.0583 4.19402 11.0523 4.19402 11.0463 4.19462C10.9665 4.20062 10.9491 4.21502 10.9113 4.30202C10.8945 4.35422 10.8981 4.39442 10.9017 4.43282C10.9041 4.45742 10.9059 4.48082 10.9029 4.50662C10.8891 4.63742 10.8879 4.63982 10.8849 4.64642C10.8537 4.73822 10.7889 4.89962 10.7019 4.96442C10.6551 4.99862 10.6149 5.00702 10.5483 5.02082C10.5303 5.02442 10.5099 5.02862 10.4859 5.03402C10.4175 5.05742 10.4103 5.05982 10.4505 5.20862C10.4517 5.21162 10.5885 5.48882 10.8735 5.39162C10.8777 5.38982 10.8825 5.38862 10.8873 5.38682C10.9575 5.36582 10.9923 5.34122 10.9911 5.31362C10.9755 5.28422 10.9647 5.25902 10.9539 5.23202C10.9401 5.19902 10.9257 5.16422 10.8999 5.11802C10.8735 5.07482 10.8345 5.01062 10.8939 4.86242L11.0193 4.61162C11.0193 4.61162 11.0229 4.60562 11.0289 4.59722C11.1357 4.45262 11.1819 4.36922 11.2011 4.32482C11.2137 4.29002 11.2011 4.26242 11.1885 4.24562C11.1633 4.21262 11.1159 4.19282 11.0643 4.19282V4.19402Z" fill="black"/>
<path d="M15.2847 4.69664C15.2667 4.70144 15.1046 4.79084 15.1076 4.79564C15.1107 4.80044 14.9871 5.20424 14.984 5.19944C14.981 5.19464 14.8605 4.86164 14.8503 4.86824C14.8401 4.87484 14.4908 4.93544 14.4854 4.93844C14.4806 4.94144 14.7321 4.58324 14.7321 4.58324L14.675 4.21724L14.9685 4.31204C14.9685 4.31204 15.2606 4.06184 15.2654 4.05884C15.2702 4.05584 15.2031 4.38104 15.2031 4.38104L15.3693 4.58564C15.3693 4.58564 15.2883 4.68044 15.2847 4.69664Z" fill="#F9DD16"/>
<path d="M14.9684 5.23002L14.9588 5.21562C14.9572 5.21282 14.9494 5.19302 14.9354 5.15622C14.9132 5.09682 14.8586 4.95162 14.8358 4.90242C14.8076 4.90842 14.75 4.91922 14.6252 4.94202C14.5724 4.95162 14.513 4.96242 14.4974 4.96602L14.4806 4.97682L14.4638 4.95882C14.456 4.95042 14.4512 4.94562 14.4698 4.91322C14.4938 4.87062 14.5568 4.78002 14.7002 4.57602L14.6372 4.17402L14.9612 4.27902C15.2426 4.03842 15.2468 4.03542 15.2492 4.03422L15.266 4.02342L15.2822 4.03482C15.2954 4.04402 15.2796 4.15722 15.2348 4.37442L15.4076 4.58742L15.3914 4.60662C15.3572 4.64622 15.3176 4.69542 15.3122 4.70742L15.308 4.72542L15.2912 4.72662C15.2708 4.73382 15.1532 4.79862 15.1304 4.81482C15.1118 4.91862 15.0122 5.21022 15.0104 5.21322L15.0026 5.22882L14.9672 5.23122L14.9684 5.23002ZM14.8514 4.83222L14.8604 4.83942C14.8784 4.84542 14.8838 4.84722 14.9828 5.11062C15.014 5.01162 15.065 4.84482 15.0758 4.80102L15.074 4.79802L15.08 4.78302C15.0896 4.75902 15.2174 4.69542 15.2624 4.67382C15.2702 4.66002 15.2882 4.63482 15.3308 4.58442L15.1712 4.38822L15.1742 4.37442C15.1892 4.30302 15.2096 4.20282 15.2228 4.13382C15.1604 4.18662 15.062 4.27122 14.9882 4.33422L14.9756 4.34502L14.7122 4.25982L14.7638 4.58982L14.7566 4.60002C14.6912 4.69302 14.6018 4.82082 14.5508 4.89462C14.5682 4.89162 14.5886 4.88742 14.6144 4.88322C14.6978 4.86822 14.8244 4.84482 14.8388 4.84002L14.8514 4.83222Z" fill="black"/>
<path d="M12.1158 8.99926C12.3354 9.12706 13.5828 9.26866 13.7778 9.28606C14.0208 9.24946 14.3652 9.26086 14.628 9.33166C14.88 9.42526 15.1314 9.40606 15.2922 9.26866C15.5136 9.13006 15.5844 8.91106 15.6768 8.71366C15.7104 8.61046 15.7062 8.50306 15.6588 8.41606C15.5724 8.23066 15.615 8.18206 15.5934 8.07586C15.837 7.44646 15.8544 6.72826 15.891 6.19546C15.8652 5.88706 15.8844 5.64946 15.9156 5.55226C16.05 5.31706 16.26 5.21086 16.3662 5.16346C16.761 5.03746 17.1558 4.91086 17.5512 4.78486C17.856 4.65406 17.6406 4.45366 17.5776 4.47586C17.3682 4.45726 17.3634 4.23286 16.4034 4.52086C16.1934 4.50586 15.9834 4.49086 15.7734 4.47646C15.7734 4.47646 15.6468 4.38526 15.6342 4.39306C15.2928 4.34986 15.2556 4.57246 15.2826 4.70386C15.3036 4.79926 15.3246 4.89466 15.345 4.99066C15.345 4.99066 15.2478 5.43046 15.2556 5.44306C14.9658 5.80786 14.568 6.94906 14.5506 7.16506C14.5482 7.36726 14.4696 7.33486 14.5014 7.52986C14.511 7.68286 14.4876 7.58806 14.5566 7.90066C14.5746 7.99486 14.4582 7.99426 14.3898 7.97026C13.803 7.64686 13.3908 7.50346 12.7818 7.22266L11.8344 7.83466L12.117 9.00046L12.1158 8.99926Z" fill="white"/>
<path d="M14.9335 9.42825C14.8327 9.42825 14.7241 9.40845 14.6143 9.36765C14.3749 9.30345 14.0401 9.28545 13.7839 9.32385H13.7743C13.6099 9.30945 12.3277 9.16665 12.0961 9.03225L12.0817 9.02385L11.7883 7.81545L12.7771 7.17645L12.7963 7.18545C12.9997 7.27965 13.1803 7.35765 13.3549 7.43325C13.6933 7.57965 14.0131 7.71765 14.4037 7.93305C14.4457 7.94685 14.4955 7.94685 14.5117 7.93245C14.5141 7.93065 14.5195 7.92585 14.5159 7.90665C14.4655 7.67745 14.4637 7.66545 14.4631 7.60845C14.4631 7.59105 14.4631 7.56885 14.4601 7.53105C14.4415 7.41885 14.4601 7.37265 14.4787 7.32405C14.4931 7.28685 14.5081 7.24845 14.5093 7.16325C14.5273 6.93945 14.9251 5.80305 15.2155 5.42685C15.2191 5.38245 15.2395 5.27565 15.3025 4.98945L15.2419 4.71105C15.2335 4.67085 15.2137 4.53465 15.3037 4.43745C15.3715 4.36425 15.4795 4.33545 15.6253 4.35225C15.6439 4.34865 15.6775 4.36125 15.7837 4.43745L16.3957 4.48065C17.1313 4.26045 17.3197 4.34085 17.4571 4.39965C17.4961 4.41645 17.5297 4.43085 17.5717 4.43565C17.6269 4.42605 17.7061 4.48245 17.7349 4.55565C17.7541 4.60485 17.7757 4.72845 17.5639 4.81965L16.3759 5.19945C16.1833 5.28585 16.0423 5.40645 15.9499 5.56665C15.9217 5.65905 15.9031 5.89185 15.9283 6.19125C15.9241 6.26025 15.9199 6.32505 15.9157 6.39285C15.8845 6.89565 15.8455 7.52025 15.6325 8.07825C15.6385 8.11245 15.6385 8.14125 15.6385 8.16885C15.6385 8.22765 15.6385 8.28285 15.6931 8.39805C15.7435 8.49045 15.7513 8.60685 15.7129 8.72445C15.6979 8.75685 15.6859 8.78505 15.6733 8.81325C15.5941 8.99145 15.5125 9.17505 15.3121 9.30045C15.2143 9.38445 15.0823 9.42825 14.9335 9.42825ZM14.0755 9.22605C14.2711 9.22605 14.4745 9.24945 14.6377 9.29325C14.8855 9.38505 15.1195 9.36405 15.2665 9.23805C15.4513 9.12225 15.5281 8.94885 15.6025 8.78205C15.6151 8.75325 15.6283 8.72445 15.6415 8.69625C15.6709 8.60385 15.6655 8.50905 15.6241 8.43405C15.5617 8.30085 15.5617 8.23125 15.5611 8.17005C15.5611 8.14185 15.5611 8.11485 15.5545 8.08305L15.5521 8.07165L15.5563 8.06085C15.7687 7.51125 15.8077 6.88845 15.8389 6.38805C15.8431 6.32025 15.8473 6.25485 15.8515 6.19185C15.8251 5.88165 15.8455 5.63925 15.8779 5.53905L15.8809 5.53185C15.9823 5.35485 16.1353 5.22225 16.3495 5.12685L17.5381 4.74705C17.5921 4.72365 17.6857 4.67145 17.6677 4.59705C17.6557 4.54545 17.6017 4.51185 17.5867 4.51245L17.5789 4.51545L17.5723 4.51425C17.5153 4.50945 17.4727 4.49085 17.4277 4.47165C17.3005 4.41765 17.1271 4.34325 16.4125 4.55805L16.4059 4.55985L15.7579 4.51425L15.7489 4.50765C15.7057 4.47645 15.6511 4.44045 15.6319 4.43205H15.6277C15.5023 4.41585 15.4135 4.43565 15.3619 4.49085C15.2971 4.56105 15.3127 4.66485 15.3187 4.69545L15.3829 4.99005L15.3811 4.99845C15.3415 5.17905 15.2989 5.38305 15.2929 5.43105L15.3013 5.44485L15.2839 5.46645C14.9995 5.82405 14.6047 6.94965 14.5873 7.16745C14.5861 7.26465 14.5669 7.31385 14.5513 7.35285C14.5345 7.39605 14.5219 7.42725 14.5375 7.52265C14.5405 7.56585 14.5405 7.58925 14.5411 7.60785C14.5417 7.65585 14.5417 7.66185 14.5921 7.89165C14.6029 7.94805 14.5777 7.97865 14.5621 7.99245C14.5105 8.03745 14.4199 8.02245 14.3743 8.00685L14.3683 8.00445C13.9795 7.79025 13.6609 7.65225 13.3231 7.50585C13.1539 7.43265 12.9787 7.35705 12.7825 7.26645L11.8765 7.85205L12.1489 8.97345C12.3883 9.09045 13.5295 9.22485 13.7755 9.24705C13.8679 9.23325 13.9699 9.22665 14.0743 9.22665L14.0755 9.22605Z" fill="black"/>
<path d="M16.7791 4.99592C16.7677 4.99952 16.3615 4.56332 16.3615 4.56332C16.3615 4.56332 16.5817 4.50392 16.5829 4.50632L17.0449 4.90352L16.7791 4.99592Z" fill="#F9DD16"/>
<path d="M16.7719 5.03604L16.7557 5.02164C16.6813 4.95564 16.6015 4.88424 16.5751 4.85484C16.5349 4.81584 16.4965 4.78104 16.4605 4.75104C16.4407 4.73064 16.4257 4.71624 16.4107 4.70184C16.3909 4.68264 16.3711 4.66344 16.3477 4.63824C16.3039 4.60584 16.2673 4.57104 16.2337 4.53804L16.2811 4.48944C16.3135 4.52123 16.3495 4.55484 16.3909 4.58544L16.3957 4.58964C16.4191 4.61484 16.4383 4.63344 16.4581 4.65264C16.4731 4.66764 16.4887 4.68264 16.5067 4.70064C16.5415 4.72944 16.5811 4.76484 16.6249 4.80744C16.6537 4.83984 16.7569 4.93164 16.8013 4.97064L16.8175 4.98504L16.7719 5.03604ZM17.1547 4.93884C17.1397 4.93764 17.0839 4.92084 17.0527 4.90524L17.0461 4.90104C17.0371 4.89384 17.0203 4.88124 17.0005 4.86624C16.9459 4.82604 16.9027 4.79364 16.8823 4.77144C16.8457 4.73724 16.8103 4.70784 16.7767 4.68204C16.7575 4.66344 16.7437 4.65084 16.7299 4.63824C16.7119 4.62144 16.6939 4.60464 16.6723 4.58304C16.6321 4.55484 16.5973 4.52484 16.5667 4.49604L16.6129 4.44624C16.6429 4.47384 16.6759 4.50324 16.7137 4.52904L16.7191 4.53324C16.7401 4.55544 16.7581 4.57164 16.7761 4.58844C16.7905 4.60163 16.8049 4.61484 16.8211 4.63104C16.8529 4.65504 16.8895 4.68624 16.9303 4.72404C16.9501 4.74564 17.0023 4.78404 17.0407 4.81224C17.0599 4.82604 17.0761 4.83864 17.0863 4.84644C17.1115 4.85844 17.1529 4.87044 17.1607 4.87164L17.1547 4.93884Z" fill="black"/>
<path d="M15.5685 7.51821C15.3027 7.51821 15.0219 7.41081 14.8683 7.28181L14.9067 7.23621C15.0567 7.36281 15.4125 7.51041 15.7341 7.44201L15.7467 7.50081C15.6891 7.51281 15.6291 7.51821 15.5685 7.51821Z" fill="black"/>
<path d="M15.2549 6.327C15.2495 6.31859 15.2471 6.30898 15.2447 6.30056C15.2435 6.29696 15.2423 6.29215 15.2417 6.29035C15.2212 6.25851 15.1852 6.20985 15.1618 6.18042C15.1209 6.11734 15.0134 6.07649 14.9906 6.07949H14.9809C14.9551 6.07649 14.9389 6.07229 14.9299 6.06988C14.9323 6.06988 14.9449 6.06808 14.9533 6.05727L14.9401 6.04766L14.9095 6.06688C14.9095 6.06688 14.9076 6.06448 14.907 6.06328L14.9046 6.05967C14.8986 6.04886 14.8938 6.03564 14.904 6.02122C14.9167 6.0038 14.9365 6.00921 14.9449 6.01101C14.9521 6.01281 14.9641 6.01642 14.9833 6.01822C15.0362 6.01281 15.1624 6.06868 15.2104 6.14377C15.2332 6.17261 15.2705 6.22187 15.2921 6.25671C15.2975 6.26512 15.2999 6.27473 15.3023 6.28314C15.3035 6.28675 15.3047 6.29155 15.3053 6.29336L15.2543 6.32519L15.2549 6.327Z" fill="black"/>
<path d="M16.3842 5.1542L16.3488 5.0984C16.3356 5.078 16.3242 5.0558 16.3134 5.0348C16.305 5.018 16.2966 5.0018 16.2876 4.9874C16.2756 4.9682 16.266 4.9478 16.257 4.9274C16.2486 4.9088 16.2402 4.8908 16.23 4.8746C16.2198 4.8524 16.2084 4.8332 16.197 4.814C16.1844 4.7924 16.1718 4.7708 16.1622 4.7498C16.152 4.7324 16.1424 4.7138 16.1334 4.6946C16.1226 4.6724 16.1124 4.6514 16.0986 4.6298C16.0986 4.6298 16.0986 4.6292 16.0986 4.6286C16.0914 4.6166 16.086 4.6064 16.0812 4.5962L16.0464 4.5308L16.098 4.5008C16.1124 4.5236 16.1208 4.541 16.1298 4.559C16.1316 4.5626 16.1334 4.5656 16.1346 4.5692L16.1508 4.5992C16.1664 4.6232 16.1772 4.6466 16.1886 4.6694C16.197 4.6868 16.2054 4.7048 16.2168 4.7234C16.227 4.7456 16.239 4.766 16.2504 4.7858C16.2624 4.8068 16.2744 4.8278 16.284 4.8482C16.2942 4.8638 16.3038 4.8848 16.3128 4.9046C16.3212 4.9238 16.3296 4.9412 16.3398 4.9574C16.35 4.9736 16.359 4.9916 16.368 5.0096C16.3782 5.0294 16.3884 5.0492 16.4004 5.0684C16.4076 5.0798 16.4136 5.0888 16.4178 5.0972C16.4286 5.117 16.4286 5.1284 16.4106 5.1404L16.3854 5.1566L16.3842 5.1542Z" fill="black"/>
<path d="M17.4158 4.83736C17.4014 4.83736 17.348 4.82294 17.3185 4.80972L17.3125 4.80612C17.3041 4.79951 17.2879 4.7887 17.2693 4.77548C17.2176 4.74004 17.1768 4.7106 17.1575 4.69018C17.1227 4.65954 17.0896 4.63311 17.0584 4.61028C17.0404 4.59346 17.0272 4.58205 17.0146 4.57063C16.9971 4.55561 16.9809 4.5406 16.9605 4.52077C16.922 4.49614 16.8896 4.46851 16.8602 4.44268L16.8998 4.39762C16.9281 4.42225 16.9587 4.44868 16.9953 4.47151L17.0001 4.47572C17.02 4.49554 17.0368 4.50996 17.0536 4.52498C17.0668 4.53699 17.0806 4.54901 17.0963 4.56342C17.1263 4.58505 17.1611 4.61328 17.199 4.64632C17.2176 4.66555 17.2693 4.70159 17.3035 4.72502C17.3215 4.73764 17.3371 4.74845 17.3468 4.75566C17.3714 4.76587 17.411 4.77608 17.4195 4.77668L17.4158 4.83736Z" fill="black"/>
<path d="M15.7656 4.9598L15.7517 4.90153C15.7926 4.89192 15.7992 4.8781 15.8088 4.85768C15.8118 4.85107 15.8154 4.84446 15.819 4.83786C15.8274 4.81142 15.8346 4.74775 15.8118 4.66244C15.8022 4.6312 15.795 4.60417 15.786 4.56092C15.7752 4.53869 15.7722 4.52247 15.7692 4.50565L15.768 4.49784L15.8268 4.48643L15.828 4.49484C15.831 4.51046 15.8328 4.52067 15.8412 4.53749L15.8443 4.5453C15.8533 4.58915 15.8599 4.61438 15.8695 4.64562C15.8959 4.74294 15.8893 4.82043 15.8743 4.86128L15.8707 4.86789C15.8671 4.8727 15.8653 4.87811 15.8623 4.88351C15.8503 4.90874 15.8346 4.94298 15.7656 4.9598Z" fill="black"/>
<path d="M15.4166 9.13593C15.407 9.13593 15.3985 9.13172 15.3943 9.12992C15.3871 9.12631 15.3739 9.11971 15.3535 9.1131C15.3385 9.11129 15.3229 9.10709 15.3066 9.10228C15.2898 9.09748 15.2742 9.09327 15.255 9.09147L15.2622 9.032C15.2862 9.035 15.3048 9.03981 15.3229 9.04461C15.3367 9.04822 15.3511 9.05242 15.3679 9.05483C15.3967 9.06444 15.4118 9.07165 15.4208 9.07585L15.4172 9.09027L15.4352 9.07885C15.4358 9.08006 15.4364 9.08126 15.437 9.08186L15.4394 9.08546C15.4454 9.09628 15.4508 9.11129 15.4382 9.12571C15.4316 9.13352 15.4238 9.13593 15.4166 9.13593Z" fill="black"/>
<path d="M15.6078 8.34323C15.573 8.31863 15.1392 8.06483 15.0786 8.05223C15.0564 8.04383 15.0396 8.03843 15.0222 8.03303C14.9976 8.02523 14.9724 8.01683 14.943 8.00423C14.925 7.99403 14.91 7.98863 14.8956 7.98263C14.8854 7.97843 14.8746 7.97423 14.8644 7.96943C14.8464 7.96823 14.8302 7.96522 14.8158 7.96222C14.7984 7.95862 14.7834 7.95563 14.769 7.95683H14.7636L14.7582 7.95563C14.7474 7.95263 14.7408 7.95443 14.7264 7.95923C14.7132 7.96403 14.697 7.96943 14.6754 7.96823L14.6502 7.97363C14.6208 7.97963 14.5842 7.98803 14.565 7.99463L14.5452 7.93823C14.568 7.93043 14.6046 7.92263 14.6376 7.91543L14.6712 7.90823H14.676C14.6874 7.91003 14.6964 7.90703 14.7072 7.90283C14.7234 7.89743 14.7432 7.89083 14.7696 7.89743C14.79 7.89743 14.8086 7.90042 14.8266 7.90403C14.8422 7.90702 14.8566 7.91003 14.8716 7.91062L14.8836 7.91363C14.8944 7.91903 14.9052 7.92323 14.916 7.92743C14.9328 7.93403 14.9502 7.94063 14.9688 7.95143C14.9928 7.96163 15.0168 7.96943 15.0396 7.97663C15.0582 7.98263 15.0762 7.98863 15.0948 7.99583C15.1452 8.00603 15.6318 8.27603 15.6498 8.30423L15.5994 8.33663L15.6246 8.32043L15.606 8.34443L15.6078 8.34323Z" fill="black"/>
<path d="M14.5489 7.27421L14.5093 7.22916C14.5183 7.22135 14.5321 7.21414 14.5555 7.20272C14.5742 7.19371 14.5946 7.1829 14.6108 7.17269C14.6631 7.14205 14.8289 7.11502 14.9142 7.15767L14.8871 7.21113C14.8211 7.17809 14.6763 7.20332 14.6426 7.22315C14.6252 7.23516 14.6024 7.24598 14.5826 7.25619C14.57 7.2622 14.5531 7.27061 14.5489 7.27421Z" fill="black"/>
<path d="M14.9676 8.0036C14.9656 8 14.9588 7.9772 14.9472 7.9352C14.9382 7.901 14.925 7.853 14.9088 7.7936C14.8734 7.637 14.8704 7.268 14.877 7.223C14.8782 7.2104 14.877 7.1942 14.877 7.1774C14.8758 7.1462 14.874 7.1138 14.883 7.088C14.8884 7.0538 14.898 7.0238 14.9076 6.9944C14.9106 6.9848 14.9136 6.9752 14.9166 6.9662C14.9322 6.9188 14.9442 6.8804 14.9604 6.8474C14.9826 6.7124 15.2694 6.2534 15.306 6.2024C15.321 6.1766 15.3426 6.1436 15.3594 6.1196C15.366 6.1004 15.3762 6.0818 15.387 6.0626C15.3924 6.053 15.3984 6.0428 15.4038 6.032C15.4224 6.0044 15.4296 5.9858 15.438 5.9636C15.441 5.9558 15.444 5.9474 15.4476 5.939C15.4482 5.927 15.45 5.9126 15.4518 5.8976C15.4548 5.8724 15.4584 5.8442 15.4566 5.8214V5.8154C15.4602 5.7896 15.4596 5.7674 15.4584 5.7458C15.4578 5.729 15.4572 5.7134 15.4584 5.6984C15.4506 5.6282 15.4494 5.1092 15.45 5.1044C15.4506 5.096 15.4668 4.9598 15.5484 4.8986C15.5808 4.8746 15.6174 4.8662 15.6576 4.874C15.678 4.88 15.696 4.8842 15.7134 4.8878C15.7428 4.8944 15.771 4.9004 15.7938 4.9118C15.8334 4.9214 15.8658 4.9442 15.8946 4.964L15.9138 4.9772C16.053 5.0978 16.1034 5.1896 16.1274 5.234C16.1316 5.2418 16.1352 5.2484 16.1382 5.2532L16.161 5.2886L16.1106 5.321L16.0878 5.2856C16.0842 5.2796 16.08 5.2718 16.0746 5.2628C16.0506 5.2184 16.0056 5.1362 15.8778 5.0252C15.8742 5.0234 15.8676 5.0186 15.8604 5.0138C15.834 4.9958 15.8064 4.9766 15.7764 4.97L15.7686 4.967C15.7524 4.9586 15.7266 4.9526 15.6996 4.9466C15.6804 4.9424 15.6612 4.9382 15.6426 4.9322C15.6222 4.9286 15.6018 4.9334 15.5832 4.9472C15.5382 4.9808 15.5136 5.0642 15.5088 5.1092C15.5082 5.1368 15.5112 5.6552 15.5172 5.693V5.7014C15.516 5.7146 15.5166 5.729 15.5172 5.744C15.5178 5.7662 15.519 5.7914 15.5154 5.8214C15.5166 5.8484 15.513 5.8784 15.51 5.9054C15.5082 5.921 15.5064 5.9354 15.5058 5.9474L15.5034 5.9582C15.4992 5.9678 15.4962 5.9768 15.4926 5.9852C15.4836 6.0086 15.4746 6.0332 15.4542 6.0632C15.4506 6.0716 15.444 6.0824 15.4386 6.0926C15.4284 6.1112 15.4194 6.1274 15.4146 6.1424L15.4104 6.1514C15.3942 6.1742 15.3714 6.209 15.3564 6.2342L15.3528 6.239C15.327 6.2696 15.0306 6.752 15.0186 6.86L15.0156 6.8702C15.0006 6.9002 14.988 6.9374 14.9742 6.9806C14.9706 6.9932 14.967 7.0028 14.964 7.013C14.955 7.0406 14.946 7.0694 14.9412 7.1L14.9394 7.1066C14.9334 7.1216 14.9346 7.1498 14.9358 7.175C14.9364 7.1948 14.9376 7.2146 14.9358 7.2308C14.9304 7.2662 14.9316 7.6274 14.9664 7.7792C14.9826 7.8374 14.9952 7.8854 15.0048 7.9196C15.0138 7.952 15.0186 7.9718 15.0204 7.9766L14.9964 7.985L14.9676 8.0036Z" fill="black"/>
<path d="M14.6828 9.36263C14.6744 9.36263 14.6654 9.35843 14.6564 9.34643L14.6546 9.34342C14.6546 9.34342 14.6546 9.34282 14.654 9.34223L14.6522 9.33923L14.654 9.33803C14.6492 9.32722 14.645 9.31643 14.639 9.30083L14.6372 9.29483C14.6336 9.27143 14.6264 9.24263 14.6198 9.21623C14.6162 9.20123 14.6126 9.18683 14.6096 9.17423C14.6072 9.16403 14.603 9.15263 14.5994 9.14123C14.5904 9.11543 14.5826 9.09142 14.5826 9.06923C14.5706 9.03623 14.5724 9.00683 14.5742 8.97863C14.5742 8.97202 14.5754 8.96483 14.5754 8.95763C14.5838 8.90723 14.5862 8.87543 14.585 8.83403C14.5862 8.80223 14.585 8.77703 14.5832 8.75183C14.582 8.73263 14.5808 8.71283 14.5808 8.69123C14.5754 8.67743 14.5712 8.66423 14.567 8.65103C14.5592 8.62643 14.552 8.60483 14.5382 8.58083C14.5304 8.56703 14.5238 8.55383 14.5172 8.54123C14.504 8.51543 14.4908 8.49022 14.4734 8.46383L14.4098 8.36423L14.4602 8.33183L14.5238 8.43143C14.5424 8.46023 14.5562 8.48723 14.57 8.51363C14.5766 8.52623 14.5832 8.53883 14.5904 8.55143C14.6072 8.58023 14.6162 8.60723 14.624 8.63303C14.6282 8.64622 14.6324 8.66003 14.6384 8.67443L14.6408 8.67983V8.68583C14.6408 8.70863 14.642 8.72843 14.6432 8.74823C14.645 8.77523 14.6462 8.80163 14.645 8.83403C14.6462 8.87783 14.6438 8.91323 14.6354 8.96362C14.6354 8.96782 14.6354 8.97503 14.6342 8.98223C14.6324 9.00863 14.6312 9.02962 14.6402 9.05243L14.6432 9.05963L14.642 9.06743C14.6408 9.07823 14.6486 9.10223 14.6552 9.12143C14.6594 9.13403 14.6636 9.14723 14.6672 9.15923C14.6702 9.17243 14.6738 9.18623 14.6774 9.20063C14.684 9.22763 14.6912 9.25703 14.6954 9.28103C14.7014 9.29603 14.7056 9.30623 14.7086 9.31223C14.72 9.33923 14.7086 9.35183 14.6978 9.35783C14.6936 9.36023 14.6888 9.36143 14.6834 9.36143L14.6828 9.36263Z" fill="black"/>
<path d="M14.3437 8.34801L14.3353 8.3456C14.3107 8.3378 14.2855 8.33481 14.2585 8.33121C14.2447 8.32941 14.2303 8.32761 14.2153 8.3252C14.1973 8.32401 14.1757 8.31981 14.1541 8.31501C14.1373 8.31201 14.1211 8.3084 14.1055 8.30661L14.0749 8.30241C14.0425 8.29761 14.0119 8.29341 13.9897 8.29281L13.9795 8.29101C13.9555 8.28141 13.9231 8.27901 13.8943 8.27601L13.8673 8.27241C13.8361 8.26041 13.7971 8.25381 13.7713 8.25141C13.7527 8.24661 13.7371 8.24361 13.7197 8.24001C13.6861 8.23281 13.6477 8.22441 13.6177 8.21121C13.5949 8.20581 13.5703 8.19921 13.5481 8.19261C13.5313 8.18781 13.5157 8.18361 13.5013 8.18001C13.4695 8.17101 13.4455 8.16381 13.4221 8.15601C13.4005 8.14941 13.3789 8.14221 13.3519 8.13441L13.3447 8.13261C13.3165 8.12541 13.2817 8.11581 13.2505 8.09301C13.2043 8.07681 13.1587 8.05281 13.1233 8.03421C13.0807 8.02161 13.0375 8.00241 12.9841 7.97301C12.9631 7.96161 12.9409 7.95081 12.9187 7.94001C12.8905 7.92621 12.8623 7.91241 12.8359 7.89741C12.7957 7.88241 12.7573 7.86201 12.7171 7.84101L12.6775 7.82061C12.6295 7.79241 12.5839 7.75581 12.5407 7.72101C12.5227 7.71081 12.5005 7.69401 12.4765 7.67661C12.4513 7.65801 12.4261 7.63941 12.4015 7.62501L12.3949 7.61961C12.3853 7.61001 12.3781 7.60221 12.3733 7.59681L12.3709 7.59861L12.3661 7.59081C12.3661 7.59081 12.3649 7.58901 12.3643 7.58781L12.3619 7.58421C12.3565 7.57341 12.3505 7.55661 12.3679 7.54281C12.3901 7.52601 12.4087 7.54641 12.4147 7.55301C12.4189 7.55781 12.4261 7.56501 12.4351 7.57521C12.4609 7.59021 12.4867 7.60941 12.5119 7.62801C12.5347 7.64481 12.5557 7.66041 12.5749 7.67181C12.6193 7.70781 12.6631 7.74201 12.7063 7.76781L12.7453 7.78821C12.7843 7.80861 12.8209 7.82781 12.8617 7.84401C12.8911 7.86021 12.9187 7.87341 12.9457 7.88661C12.9685 7.89801 12.9913 7.90881 13.0135 7.92081C13.0639 7.94841 13.1029 7.96581 13.1473 7.97961C13.1869 8.00061 13.2319 8.02401 13.2751 8.03841L13.2835 8.04321C13.3063 8.06061 13.3339 8.06781 13.3603 8.07501L13.3681 8.07681C13.3963 8.08461 13.4185 8.0918 13.4401 8.099C13.4635 8.1062 13.4863 8.11341 13.5169 8.12241C13.5307 8.12601 13.5469 8.13021 13.5643 8.1356C13.5859 8.1416 13.6099 8.1482 13.6369 8.15541C13.6663 8.168 13.7011 8.17521 13.7323 8.18181C13.7503 8.18541 13.7677 8.18961 13.7821 8.19321C13.8145 8.19561 13.8547 8.20401 13.8853 8.21541L13.8997 8.21661C13.9303 8.21961 13.9651 8.2226 13.9957 8.23341C14.0203 8.2346 14.0509 8.23881 14.0827 8.24361L14.1127 8.24781C14.1295 8.24961 14.1475 8.25321 14.1655 8.25681C14.1847 8.26041 14.2045 8.26461 14.2225 8.26641C14.2387 8.26881 14.2519 8.27061 14.2651 8.27241C14.2909 8.27541 14.3167 8.27901 14.3437 8.28621C14.3581 8.2838 14.3701 8.28441 14.3791 8.28561C14.3827 8.28561 14.3869 8.28621 14.3905 8.28561L14.3935 8.3456C14.3875 8.3456 14.3809 8.3456 14.3743 8.34501C14.3653 8.34441 14.3587 8.34381 14.3509 8.34621L14.3425 8.34861L14.3437 8.34801Z" fill="black"/>
<path d="M15.1646 9.05608C15.0896 8.95408 15.008 8.75668 15.0062 8.75308L14.8532 8.52148C14.7626 8.40628 14.6984 8.40928 14.6522 8.40988C14.552 8.40928 14.5064 8.39308 14.4308 8.39128C14.3522 8.36188 14.4014 8.22028 14.399 8.21668C14.4602 7.89808 14.7926 7.91008 14.8064 7.91668C14.9606 7.95808 14.9804 7.97548 14.9612 8.07268C14.9288 8.17828 14.9084 8.21668 14.915 8.28208C14.93 8.40748 15.0926 8.58328 15.0944 8.58688C15.0968 8.59048 15.1994 8.66488 15.1994 8.66488C15.248 8.70208 15.3104 8.70568 15.3782 8.78068C15.4388 8.86228 15.4484 8.89588 15.407 8.98228C15.3548 9.09568 15.2294 9.13468 15.1646 9.05608Z" fill="#F9DD16"/>
<path d="M15.251 9.12691C15.2084 9.12691 15.1694 9.10892 15.1418 9.07532L15.1406 9.07411C15.0962 9.01351 15.0434 8.91332 14.9834 8.77592L14.9792 8.76632C14.969 8.75072 14.9366 8.70152 14.828 8.53772C14.7494 8.43752 14.6966 8.43872 14.6546 8.43992C14.5952 8.43992 14.5544 8.43452 14.519 8.42972C14.4902 8.42612 14.4626 8.42251 14.4302 8.42192L14.42 8.42012C14.36 8.39732 14.342 8.33132 14.3672 8.22272L14.3696 8.21192C14.3936 8.08712 14.4614 7.99232 14.5658 7.93772C14.6792 7.87832 14.8004 7.88192 14.8184 7.89032C14.9678 7.92991 15.0158 7.95392 14.9906 8.07992C14.9828 8.10631 14.9762 8.12672 14.9702 8.14472C14.9504 8.20532 14.9402 8.23592 14.945 8.28032C14.9528 8.34692 15.0146 8.45012 15.1136 8.56412C15.1148 8.56532 15.116 8.56652 15.1166 8.56772C15.1256 8.57492 15.1736 8.61092 15.2174 8.64212C15.233 8.65412 15.251 8.66252 15.2708 8.67152C15.3074 8.68832 15.3536 8.70992 15.4004 8.76152C15.4676 8.85152 15.4814 8.89772 15.434 8.99612C15.401 9.06812 15.338 9.11852 15.2714 9.12752C15.2648 9.12812 15.2582 9.12872 15.2516 9.12872L15.251 9.12691ZM15.188 9.03752C15.212 9.06572 15.242 9.06872 15.263 9.06632C15.3092 9.06032 15.3548 9.02192 15.3794 8.96912C15.4142 8.89712 15.4106 8.87492 15.3536 8.79812C15.3164 8.75732 15.2804 8.74052 15.245 8.72432C15.2222 8.71412 15.2012 8.70392 15.1808 8.68832C15.0746 8.61092 15.0728 8.60852 15.0692 8.60252C15.005 8.52932 14.8976 8.39252 14.885 8.28512C14.879 8.22752 14.8916 8.18852 14.9126 8.12432C14.9186 8.10692 14.9252 8.08712 14.9318 8.06371C14.9456 7.99292 14.9474 7.98512 14.798 7.94552C14.795 7.94552 14.486 7.92451 14.4278 8.22031C14.4278 8.22451 14.426 8.22932 14.4248 8.23472C14.408 8.30612 14.4116 8.34872 14.4362 8.36132C14.4692 8.36252 14.4968 8.36612 14.5256 8.36972C14.5616 8.37452 14.5982 8.37932 14.6516 8.37992C14.702 8.37872 14.7776 8.37691 14.876 8.50292C14.8772 8.50471 15.0284 8.73392 15.0302 8.73692C15.0308 8.73812 15.0338 8.74352 15.0374 8.75252C15.1088 8.91752 15.1592 8.99852 15.188 9.03752Z" fill="black"/>
<path d="M12.8293 12.3897C12.8347 12.3717 12.8383 12.1869 12.8323 12.1869C12.8263 12.1869 12.5383 11.8785 12.5443 11.8779C12.5503 11.8779 12.8989 11.9397 12.8983 11.9277C12.8983 11.9157 13.0201 11.5827 13.0195 11.5767C13.0195 11.5707 13.2037 11.9679 13.2037 11.9679L13.5493 12.1017L13.3201 12.3087C13.3201 12.3087 13.3909 12.6867 13.3909 12.6927C13.3909 12.6987 13.1431 12.4773 13.1431 12.4773L12.8827 12.5187C12.8827 12.5187 12.8419 12.4005 12.8293 12.3897Z" fill="#F9DD16"/>
<path d="M13.3927 12.7227C13.3741 12.7227 13.3375 12.6903 13.1335 12.5085L12.8623 12.5517L12.8539 12.5283C12.8365 12.4791 12.8137 12.4197 12.8065 12.4095L12.7927 12.3969L12.7999 12.3819C12.8035 12.3615 12.8059 12.2379 12.8041 12.2025C12.7843 12.1845 12.7465 12.1443 12.6637 12.0555C12.5143 11.8953 12.5143 11.8929 12.5137 11.8791L12.5125 11.8491L12.5425 11.8479C12.5453 11.8479 12.5661 11.8511 12.6049 11.8575C12.6673 11.8677 12.8203 11.8935 12.8749 11.8983C12.8839 11.8707 12.9031 11.8155 12.9457 11.6961C12.9637 11.6457 12.9841 11.5887 12.9889 11.5731V11.5533L13.0117 11.5473C13.0231 11.5443 13.0297 11.5431 13.0483 11.5749C13.0729 11.6169 13.1191 11.7171 13.2247 11.9433L13.6045 12.0903L13.3519 12.3183C13.4197 12.6819 13.4203 12.6873 13.4203 12.6903V12.7101L13.4029 12.7185C13.3993 12.7203 13.3957 12.7221 13.3915 12.7221L13.3927 12.7227ZM13.1521 12.4449L13.1629 12.4545C13.2175 12.5031 13.2943 12.5709 13.3471 12.6171C13.3321 12.5367 13.3087 12.4089 13.2907 12.3141L13.2877 12.2973L13.4929 12.1119L13.1815 11.9919L13.1767 11.9811C13.1287 11.8779 13.0627 11.7363 13.0243 11.6559C13.0183 11.6721 13.0111 11.6925 13.0027 11.7171C12.9739 11.7969 12.9313 11.9181 12.9277 11.9331V11.9475L12.9175 11.9517C12.9031 11.9643 12.8995 11.9679 12.6211 11.9217C12.6913 11.9985 12.8107 12.1257 12.8425 12.1569H12.8455L12.8551 12.1689C12.8707 12.1887 12.8623 12.3321 12.8587 12.3813C12.8665 12.3951 12.8797 12.4233 12.9019 12.4851L13.1521 12.4449Z" fill="black"/>
<path d="M10.6867 7.49559C10.4659 7.62219 9.71946 8.63139 9.60726 8.79159C9.51786 9.02079 9.33547 9.31299 9.14287 9.50499C8.93587 9.67659 8.82667 9.90339 8.86567 10.1116C8.87467 10.3726 9.02947 10.5436 9.15367 10.7224C9.22627 10.8034 9.32167 10.8532 9.42067 10.8556C9.62407 10.873 9.64507 10.9348 9.74827 10.969C10.1719 11.4946 10.7851 11.8684 11.2279 12.1666C11.5075 12.2986 11.7043 12.4342 11.7727 12.5098C11.9089 12.7438 11.8963 12.9784 11.8843 13.0942C11.7961 13.4992 11.7079 13.9042 11.6197 14.3092C11.5807 14.6386 11.8615 14.5522 11.8741 14.4862C11.9947 14.314 12.1915 14.4226 12.4219 13.447C12.5395 13.2724 12.6577 13.0984 12.7753 12.9238C12.7753 12.9238 12.9175 12.8596 12.9169 12.8452C13.1251 12.571 12.9511 12.4276 12.8239 12.3856C12.7309 12.3562 12.6379 12.3262 12.5443 12.2968C12.5443 12.2968 12.2119 11.9926 12.1975 11.9932C12.0265 11.56 11.2369 10.645 11.0587 10.522C10.8847 10.4188 10.9519 10.3672 10.7677 10.297C10.6303 10.2286 10.7239 10.2556 10.4191 10.159C10.3285 10.1272 10.3873 10.027 10.4419 9.97959C11.0155 9.63339 11.3455 9.34779 11.8939 8.96079L11.8375 7.83399L10.6867 7.49559Z" fill="white"/>
<path d="M11.7522 14.587C11.7426 14.587 11.7336 14.5864 11.724 14.5852C11.6718 14.5774 11.5536 14.5342 11.5806 14.305L11.8458 13.0858C11.8674 12.8758 11.8332 12.694 11.7408 12.5332C11.6748 12.4624 11.4828 12.3304 11.211 12.202C11.1534 12.1642 11.0988 12.1276 11.0424 12.0904C10.623 11.812 10.101 11.4658 9.72424 11.002C9.69184 10.99 9.66664 10.9756 9.64264 10.9618C9.59164 10.933 9.54364 10.9054 9.41704 10.894C9.31204 10.8916 9.20704 10.84 9.12424 10.7482C9.10384 10.7194 9.08524 10.6942 9.06724 10.669C8.95264 10.5118 8.83444 10.3486 8.82604 10.1128C8.78584 9.90042 8.89444 9.65923 9.11764 9.47443C9.29284 9.29983 9.47584 9.01843 9.57064 8.77723L9.57484 8.76883C9.58264 8.75743 10.413 7.60663 10.6662 7.46143L10.6806 7.45303L11.874 7.80343L11.9328 8.97943L11.9154 8.99203C11.7324 9.12162 11.5746 9.23862 11.4216 9.35203C11.1258 9.57222 10.8462 9.77983 10.464 10.0102C10.431 10.0396 10.4064 10.0828 10.4106 10.1044C10.4106 10.1074 10.4124 10.1146 10.431 10.1212C10.6548 10.192 10.6662 10.1968 10.716 10.2244C10.731 10.2328 10.7502 10.2436 10.7844 10.2604C10.8906 10.3006 10.9218 10.339 10.9542 10.3798C10.9788 10.411 11.0046 10.4428 11.0784 10.4866C11.2632 10.6138 12.0486 11.527 12.2292 11.9662C12.2658 11.9914 12.348 12.0628 12.564 12.2602L12.8352 12.3466C12.8742 12.3592 13.002 12.4102 13.041 12.5368C13.0704 12.6322 13.041 12.7402 12.954 12.8584C12.948 12.8764 12.9204 12.8986 12.801 12.9532L12.4578 13.4614C12.2802 14.2084 12.117 14.3314 11.9976 14.4214C11.964 14.4466 11.934 14.4688 11.9094 14.5024C11.8926 14.5492 11.8218 14.5858 11.7522 14.5858V14.587ZM9.64204 8.81023C9.54364 9.05983 9.35464 9.34963 9.17044 9.53263C8.96704 9.70123 8.86864 9.91423 8.90404 10.105C8.91244 10.3228 9.02344 10.4758 9.13084 10.624C9.14944 10.6492 9.16804 10.675 9.18544 10.7002C9.25024 10.7722 9.33544 10.8148 9.42124 10.8166C9.56764 10.8292 9.62824 10.864 9.68164 10.894C9.70624 10.9078 9.72964 10.9216 9.76024 10.9312L9.77104 10.9348L9.77824 10.9438C10.1478 11.4028 10.668 11.7472 11.0856 12.0244C11.142 12.0616 11.1966 12.0982 11.2494 12.1336C11.5314 12.2656 11.7306 12.4048 11.8014 12.4828L11.8062 12.4894C11.9088 12.6658 11.9472 12.865 11.9226 13.0972L11.6574 14.317C11.6508 14.3752 11.6496 14.4826 11.7222 14.5042C11.7726 14.5192 11.829 14.4892 11.8356 14.4766L11.8374 14.4682L11.8416 14.4634C11.8746 14.4166 11.9112 14.389 11.9502 14.3596C12.0606 14.2768 12.2118 14.1634 12.3834 13.4374L12.3888 13.4248L12.7488 12.8926L12.759 12.8878C12.8076 12.8656 12.8658 12.8362 12.8832 12.8242L12.8856 12.8212C12.9618 12.721 12.9894 12.6334 12.9666 12.5614C12.9384 12.4702 12.8406 12.4318 12.8112 12.4222L12.5238 12.331L12.5172 12.325C12.381 12.2002 12.225 12.0616 12.1866 12.0322H12.1704L12.1602 12.007C11.9922 11.5816 11.2152 10.6774 11.0358 10.5532C10.9524 10.5034 10.9194 10.4626 10.893 10.4296C10.8642 10.393 10.8432 10.3672 10.7532 10.3324C10.7142 10.3132 10.6938 10.3018 10.6782 10.2928C10.6362 10.2694 10.6308 10.2664 10.407 10.1956C10.353 10.1764 10.3386 10.1398 10.3344 10.1194C10.3218 10.0522 10.3794 9.98083 10.416 9.94963L10.4214 9.94603C10.8012 9.71683 11.0802 9.50922 11.3754 9.29023C11.5236 9.18042 11.6766 9.06643 11.853 8.94163L11.799 7.86403L10.6914 7.53883C10.47 7.68763 9.78304 8.60863 9.64084 8.81083L9.64204 8.81023Z" fill="black"/>
<path d="M11.8219 13.5339C11.8243 13.5219 12.4051 13.3887 12.4051 13.3887C12.4051 13.3887 12.3463 13.6089 12.3433 13.6089L11.7685 13.8105L11.8219 13.5339Z" fill="#F9DD16"/>
<path d="M11.7395 13.9276L11.6843 13.8886C11.6927 13.876 11.7359 13.8364 11.7647 13.8172L11.7719 13.8136C11.7827 13.8094 11.8019 13.801 11.8247 13.7914C11.8865 13.7644 11.9363 13.7428 11.9663 13.7368C12.0143 13.7218 12.0581 13.7062 12.0965 13.6906C12.1217 13.6834 12.1403 13.678 12.1577 13.672C12.1817 13.6648 12.2045 13.6576 12.2339 13.6498C12.2783 13.6288 12.3215 13.6144 12.3623 13.6018L12.3821 13.6666C12.3431 13.6786 12.3017 13.6924 12.2603 13.7128L12.2537 13.7152C12.2237 13.7224 12.2009 13.7296 12.1775 13.7374C12.1589 13.7434 12.1403 13.7488 12.1181 13.7548C12.0815 13.7704 12.0359 13.7866 11.9831 13.8028C11.9549 13.8094 11.8949 13.8352 11.8517 13.8544C11.8301 13.864 11.8109 13.8718 11.7989 13.8766C11.7761 13.8922 11.7449 13.9222 11.7395 13.9288V13.9276ZM11.8127 13.573L11.7917 13.5088L11.8139 13.5016C11.8757 13.4812 12.0035 13.438 12.0473 13.429C12.1013 13.4134 12.1505 13.3978 12.1943 13.3816C12.2219 13.3744 12.2423 13.3684 12.2621 13.363C12.2891 13.3552 12.3149 13.348 12.3485 13.3402C12.3983 13.3186 12.4469 13.3042 12.4919 13.2916L12.5105 13.357C12.4667 13.3696 12.4199 13.3834 12.3725 13.4038L12.3665 13.4056C12.3329 13.4134 12.3071 13.4206 12.2807 13.4278C12.2603 13.4338 12.2393 13.4392 12.2147 13.4458C12.1727 13.462 12.1217 13.4782 12.0635 13.4944C12.0215 13.5028 11.8913 13.5466 11.8355 13.5652L11.8127 13.573Z" fill="black"/>
<path d="M10.2265 11.4064L10.1695 11.3878C10.2679 11.0872 10.5661 10.8202 10.7983 10.7368L10.8187 10.7932C10.6339 10.8598 10.3285 11.0944 10.2265 11.4064Z" fill="black"/>
<path d="M11.4703 11.6155C11.4613 11.6155 11.4523 11.6131 11.4445 11.6113C11.4409 11.6101 11.4361 11.6089 11.4343 11.6089L11.4319 11.5488C11.4421 11.5488 11.4517 11.5512 11.4601 11.553C11.4637 11.5542 11.4685 11.5554 11.4703 11.5554C11.5082 11.5536 11.5683 11.547 11.6055 11.541C11.6806 11.5374 11.7707 11.4641 11.7785 11.4431L11.7827 11.4347C11.7977 11.4137 11.8103 11.4016 11.817 11.395C11.8152 11.3968 11.8109 11.4089 11.8164 11.4215L11.8308 11.4149L11.829 11.3788C11.829 11.3788 11.8314 11.3788 11.8326 11.3788H11.8374C11.8494 11.3788 11.8638 11.3812 11.8704 11.3974C11.8794 11.4173 11.865 11.4317 11.8584 11.4377C11.853 11.4431 11.844 11.4521 11.8326 11.4671C11.8103 11.5164 11.6992 11.5969 11.6103 11.6011C11.5743 11.6071 11.5124 11.6137 11.4715 11.6155C11.4709 11.6155 11.4697 11.6155 11.4691 11.6155H11.4703Z" fill="black"/>
<path d="M12.5723 13.192C12.5549 13.192 12.5411 13.1908 12.5267 13.1902C12.5231 13.1902 12.5189 13.1902 12.5153 13.1896L12.4817 13.1884C12.4529 13.1896 12.4271 13.1884 12.4025 13.186C12.3827 13.1848 12.3635 13.183 12.3419 13.1836C12.3173 13.1812 12.2945 13.1812 12.2711 13.1812C12.2471 13.1812 12.2225 13.1812 12.2009 13.1788C12.1823 13.18 12.1595 13.1776 12.1379 13.1758C12.1175 13.174 12.0977 13.1722 12.0785 13.1728C12.0593 13.1734 12.0395 13.1728 12.0191 13.1716C11.9969 13.1704 11.9747 13.1692 11.9519 13.1704L11.8883 13.1734L11.8847 13.1434C11.8841 13.1242 11.8961 13.117 11.9075 13.114L11.9087 13.1428L11.9099 13.1272L11.9075 13.114C11.9075 13.114 11.9099 13.1146 11.9111 13.114C11.9117 13.114 11.9123 13.114 11.9135 13.114C11.9177 13.1134 11.9213 13.1134 11.9243 13.1128L11.9495 13.1116C11.9741 13.1104 11.9987 13.1116 12.0227 13.1128C12.0413 13.114 12.0599 13.1146 12.0767 13.114C12.0995 13.1128 12.1217 13.1152 12.1439 13.117C12.1643 13.1188 12.1841 13.1212 12.2027 13.12C12.2273 13.1218 12.2489 13.1218 12.2717 13.1218C12.2963 13.1218 12.3215 13.1218 12.3449 13.1242C12.3653 13.1242 12.3863 13.1254 12.4073 13.1266C12.4319 13.1284 12.4547 13.1302 12.4811 13.129H12.4823C12.4961 13.129 12.5081 13.129 12.5189 13.1302L12.5927 13.1326V13.1926C12.5861 13.1926 12.5783 13.192 12.5723 13.192Z" fill="black"/>
<path d="M11.6929 14.197L11.6425 14.1646C11.6491 14.1538 11.6875 14.1142 11.7151 14.0944L11.7217 14.0908C11.7313 14.0872 11.7493 14.0782 11.7703 14.0686C11.8267 14.0416 11.8723 14.0206 11.8999 14.0146C11.9437 13.9996 11.9833 13.9846 12.0187 13.9684C12.0421 13.9612 12.0583 13.9558 12.0745 13.9504C12.0961 13.9432 12.1171 13.936 12.1441 13.9288C12.1849 13.9078 12.2245 13.8934 12.2611 13.8814L12.2803 13.9384C12.2449 13.9504 12.2071 13.9636 12.1687 13.984L12.1627 13.9864C12.1357 13.9936 12.1147 14.0008 12.0931 14.008C12.0763 14.0134 12.0589 14.0194 12.0385 14.0254C12.0049 14.041 11.9635 14.0566 11.9155 14.0728C11.8897 14.0788 11.8327 14.1058 11.7955 14.1238C11.7757 14.1334 11.7583 14.1412 11.7469 14.146C11.7259 14.1622 11.6971 14.1916 11.6923 14.1982L11.6929 14.197Z" fill="black"/>
<path d="M12.7401 12.9644L12.7323 12.9614C12.7173 12.9559 12.7077 12.9523 12.6891 12.9517L12.6813 12.9505C12.6386 12.9367 12.614 12.9295 12.5815 12.9223C12.4842 12.8965 12.4199 12.852 12.3923 12.819L12.3881 12.813C12.3857 12.8076 12.3821 12.8028 12.3791 12.798C12.3635 12.7751 12.3419 12.7439 12.3617 12.676L12.4193 12.6928C12.4073 12.7331 12.4157 12.7457 12.429 12.7637C12.4332 12.7697 12.4374 12.7763 12.441 12.7823C12.4596 12.8034 12.5113 12.8412 12.5966 12.864C12.6284 12.8712 12.6554 12.8784 12.6969 12.8923C12.7221 12.8941 12.7371 12.8995 12.7534 12.9055L12.7606 12.9079L12.7401 12.9644Z" fill="black"/>
<path d="M8.95084 10.3296C8.93822 10.3296 8.922 10.3266 8.916 10.3086C8.90879 10.2864 8.92741 10.2731 8.93462 10.2683C8.94123 10.2635 8.95324 10.2557 8.97006 10.2413C8.97907 10.2293 8.99109 10.2179 9.0025 10.2065C9.01452 10.1945 9.02653 10.183 9.03795 10.1668L9.086 10.2029C9.07159 10.2221 9.05777 10.2359 9.04455 10.2491C9.03434 10.2593 9.02413 10.2695 9.01272 10.2834C8.99049 10.3038 8.97607 10.3134 8.96826 10.3188L8.95805 10.3086L8.95925 10.3296C8.95925 10.3296 8.95745 10.3296 8.95625 10.3296H8.95084Z" fill="black"/>
<path d="M9.52202 10.9042L9.51902 10.8442L9.52022 10.8742L9.50882 10.8466C9.54782 10.8286 9.98402 10.5802 10.0254 10.534C10.0434 10.519 10.0566 10.507 10.0704 10.495C10.0896 10.4776 10.1094 10.4596 10.1352 10.4404C10.1532 10.4296 10.1652 10.42 10.1778 10.4098C10.1868 10.4026 10.1952 10.396 10.2048 10.3894C10.215 10.3744 10.2258 10.3624 10.2354 10.351C10.2474 10.3378 10.257 10.3264 10.2636 10.3132L10.2702 10.3048C10.2786 10.297 10.2798 10.2904 10.2828 10.2754C10.2858 10.2616 10.2888 10.2448 10.3008 10.2268L10.3086 10.2022C10.3176 10.1734 10.329 10.138 10.3332 10.1182L10.392 10.1296C10.3872 10.153 10.3758 10.189 10.3656 10.2208L10.3524 10.2574C10.3458 10.267 10.344 10.276 10.3416 10.2874C10.338 10.3042 10.3344 10.3246 10.3152 10.3444C10.3056 10.3624 10.293 10.3768 10.2804 10.3906C10.2702 10.4026 10.2606 10.4134 10.2522 10.4266L10.2438 10.4356C10.2336 10.4422 10.2246 10.45 10.2156 10.4572C10.2012 10.4686 10.1868 10.48 10.1688 10.4908C10.1478 10.5064 10.1292 10.5232 10.1118 10.5394C10.0974 10.5526 10.0836 10.5652 10.068 10.5778C10.0338 10.6162 9.55742 10.903 9.52322 10.9042H9.52202Z" fill="black"/>
<path d="M10.8835 10.8387L10.8504 10.7882C10.9123 10.7474 10.9628 10.6098 10.9622 10.5701C10.961 10.5491 10.9622 10.5239 10.9634 10.5011C10.964 10.4872 10.9652 10.4686 10.9646 10.4632L11.0234 10.4518C11.0258 10.4632 11.0252 10.4788 11.0234 10.5047C11.0222 10.5251 11.021 10.5485 11.0222 10.5677C11.0228 10.6284 10.9634 10.7864 10.8835 10.8387Z" fill="black"/>
<path d="M11.8783 12.853L11.8753 12.793L11.9173 12.7912C11.9245 12.7912 11.9329 12.7912 11.9437 12.7912C11.9941 12.7924 12.0877 12.7948 12.2479 12.7396C12.2515 12.7378 12.2587 12.7342 12.2665 12.7306C12.2953 12.7168 12.3253 12.7024 12.3463 12.6796L12.3523 12.6742C12.3679 12.6646 12.3853 12.6454 12.4045 12.6244C12.4177 12.61 12.4309 12.595 12.4453 12.5818C12.4585 12.5656 12.4651 12.5458 12.4621 12.523C12.4555 12.4672 12.3955 12.4042 12.3595 12.3778C12.3355 12.3634 11.8861 12.1066 11.8495 12.0934L11.8423 12.0898C11.8315 12.082 11.8189 12.0754 11.8057 12.0688C11.7859 12.0586 11.7637 12.0466 11.7397 12.0286C11.7157 12.016 11.6911 11.998 11.6695 11.9818C11.6569 11.9722 11.6455 11.9638 11.6353 11.9572L11.6275 11.95C11.6215 11.9416 11.6155 11.9344 11.6095 11.9272C11.5933 11.908 11.5771 11.8876 11.5615 11.8546C11.5561 11.8474 11.5501 11.8366 11.5435 11.8258C11.5327 11.8072 11.5231 11.7916 11.5123 11.7802L11.5069 11.7718C11.4955 11.7466 11.4763 11.7094 11.4619 11.6836L11.4595 11.6782C11.4457 11.641 11.1763 11.143 11.0887 11.0782L11.0815 11.0704C11.0629 11.0422 11.0371 11.0128 11.0065 10.9792C10.9975 10.9696 10.9909 10.9624 10.9837 10.9546C10.9639 10.933 10.9435 10.9108 10.9195 10.8916L10.9147 10.8868C10.9045 10.8742 10.8793 10.861 10.8571 10.8496C10.8397 10.8406 10.8223 10.831 10.8091 10.8214C10.7809 10.7992 10.4677 10.6192 10.3189 10.5736C10.2595 10.558 10.2109 10.5454 10.1761 10.5364C10.1443 10.528 10.1257 10.5226 10.1209 10.522L10.1257 10.4974L10.1245 10.4626C10.1305 10.4626 10.1305 10.4626 10.1917 10.4788C10.2259 10.4878 10.2751 10.501 10.3357 10.5166C10.4893 10.564 10.8103 10.7464 10.8457 10.7746C10.8559 10.7818 10.8703 10.7896 10.8853 10.7974C10.9129 10.8118 10.9417 10.8268 10.9597 10.8478C10.9867 10.8694 11.0077 10.8928 11.0287 10.9156C11.0353 10.9228 11.0419 10.9306 11.0485 10.9372C11.0821 10.9744 11.1085 11.0044 11.1295 11.035C11.2351 11.1214 11.4895 11.5996 11.5153 11.6566C11.5297 11.6824 11.5477 11.7178 11.5603 11.7442C11.5741 11.7592 11.5843 11.7772 11.5957 11.7964C11.6017 11.806 11.6077 11.8162 11.6143 11.8264C11.6287 11.8564 11.6419 11.872 11.6563 11.89C11.6617 11.8966 11.6671 11.9032 11.6725 11.9104C11.6827 11.917 11.6941 11.926 11.7061 11.935C11.7265 11.95 11.7493 11.9674 11.7691 11.977L11.7745 11.98C11.7949 11.9962 11.8147 12.0064 11.8339 12.0166C11.8483 12.0244 11.8621 12.0316 11.8747 12.04C11.9395 12.0688 12.3895 12.3268 12.3931 12.3292C12.3997 12.334 12.5101 12.4156 12.5221 12.5176C12.5269 12.5572 12.5155 12.5932 12.4891 12.625C12.4735 12.6394 12.4615 12.6532 12.4489 12.6664C12.4285 12.6886 12.4093 12.7102 12.3883 12.724C12.3601 12.7534 12.3241 12.7708 12.2929 12.7858L12.2719 12.796C12.0979 12.856 11.9929 12.8536 11.9431 12.8524C11.9341 12.8524 11.9269 12.8524 11.9209 12.8524L11.8789 12.8542L11.8783 12.853Z" fill="black"/>
<path d="M9.94201 9.86259C9.92101 9.86259 9.90121 9.86199 9.88081 9.86079C9.86641 9.86079 9.85261 9.85959 9.83761 9.85959C9.80521 9.85959 9.7764 9.85359 9.75 9.84819C9.73621 9.84519 9.7224 9.84219 9.7068 9.83979L9.696 9.83619C9.6768 9.82479 9.6588 9.81579 9.64081 9.80679C9.61681 9.79479 9.59281 9.78279 9.56581 9.76539C9.52741 9.74439 9.49741 9.72459 9.45841 9.69219C9.45481 9.69039 9.4488 9.68619 9.4428 9.68199C9.4206 9.66699 9.4038 9.65559 9.3792 9.65259L9.3714 9.65139L9.36481 9.64659C9.35641 9.63999 9.3312 9.63519 9.3114 9.63099C9.2982 9.62859 9.285 9.62559 9.2724 9.62259C9.2598 9.61839 9.24601 9.61479 9.23161 9.61059C9.20461 9.60279 9.17581 9.59439 9.153 9.58599C9.1374 9.58359 9.12601 9.58239 9.1194 9.58119C9.0906 9.57759 9.08521 9.56199 9.08521 9.54939C9.08521 9.53739 9.09181 9.52299 9.11701 9.52059H9.1212V9.52179C9.1338 9.52299 9.14701 9.52479 9.165 9.52779L9.171 9.52959C9.1932 9.53799 9.22141 9.54639 9.2478 9.55359C9.2628 9.55779 9.2766 9.56199 9.2892 9.56559C9.2994 9.56799 9.3108 9.57039 9.3228 9.57279C9.3492 9.57819 9.3744 9.58299 9.3936 9.59439C9.4284 9.60039 9.4524 9.61659 9.47581 9.63279C9.4812 9.63639 9.4872 9.64059 9.4932 9.64419C9.5328 9.67659 9.55861 9.69459 9.59581 9.71439C9.62281 9.73119 9.64561 9.74259 9.6678 9.75399C9.6852 9.76299 9.70261 9.77139 9.72121 9.78219C9.73621 9.78459 9.7494 9.78759 9.7632 9.79059C9.7884 9.79599 9.8118 9.80139 9.8382 9.80079C9.8544 9.80079 9.8688 9.80139 9.8832 9.80199C9.912 9.80319 9.9402 9.80439 9.972 9.80319L10.0896 9.79779L10.092 9.85779L9.97441 9.86319C9.96301 9.86319 9.9522 9.86379 9.94201 9.86379V9.86259Z" fill="black"/>
<path d="M10.1669 9.82181L10.1135 9.79421C10.1165 9.78881 10.1195 9.78341 10.1237 9.77801C10.1285 9.77081 10.1327 9.76481 10.1345 9.75701L10.1369 9.74861L10.1435 9.74261C10.1627 9.72521 10.1777 9.70481 10.1939 9.68321C10.2023 9.67181 10.2113 9.66041 10.2203 9.64901C10.2305 9.63401 10.2449 9.61781 10.2593 9.60101C10.2707 9.58841 10.2815 9.57521 10.2911 9.56261L10.3097 9.53861C10.3301 9.51281 10.3493 9.48821 10.3607 9.46901L10.3673 9.46121C10.3871 9.44501 10.4063 9.41861 10.4225 9.39521L10.4393 9.37361C10.4651 9.35261 10.4909 9.32201 10.5059 9.30101C10.5191 9.28721 10.5299 9.27521 10.5419 9.26261C10.5653 9.23681 10.5911 9.20801 10.6181 9.18821C10.6337 9.17141 10.6523 9.15341 10.6691 9.13721C10.6817 9.12461 10.6931 9.11381 10.7033 9.10361C10.7273 9.08021 10.7453 9.06401 10.7633 9.04721C10.7801 9.03221 10.7969 9.01661 10.8173 8.99681L10.8221 8.99201C10.8425 8.97161 10.8683 8.94581 10.9031 8.93021C10.9397 8.89841 10.9835 8.87021 11.0177 8.84921C11.0501 8.81861 11.0879 8.79041 11.1401 8.75921C11.1599 8.74661 11.1803 8.73281 11.2013 8.71901C11.2271 8.70161 11.2535 8.68421 11.2799 8.66861C11.3135 8.64161 11.3501 8.61821 11.3891 8.59361L11.4263 8.56961C11.4755 8.54201 11.5295 8.52041 11.5805 8.50121C11.5979 8.49101 11.6237 8.47961 11.6513 8.46761C11.6795 8.45501 11.7089 8.44241 11.7329 8.42861L11.7407 8.42561C11.7539 8.42261 11.7641 8.42021 11.7713 8.41841V8.41541H11.7803C11.7815 8.41541 11.7827 8.41541 11.7839 8.41541H11.7881C11.8001 8.41541 11.8175 8.41961 11.8205 8.44121C11.8241 8.46881 11.7971 8.47481 11.7881 8.47661C11.7815 8.47781 11.7719 8.48021 11.7587 8.48321C11.7329 8.49761 11.7035 8.51081 11.6747 8.52281C11.6489 8.53421 11.6243 8.54441 11.6057 8.55521C11.5523 8.57561 11.5007 8.59601 11.4569 8.62061L11.4203 8.64401C11.3831 8.66741 11.3477 8.68961 11.3135 8.71721C11.2847 8.73461 11.2595 8.75141 11.2343 8.76821C11.2133 8.78261 11.1923 8.79641 11.1713 8.80961C11.1221 8.83961 11.0879 8.86421 11.0537 8.89601C11.0159 8.92001 10.9733 8.94761 10.9385 8.97761L10.9301 8.98301C10.9037 8.99381 10.8833 9.01421 10.8641 9.03341L10.8587 9.03881C10.8377 9.05921 10.8203 9.07481 10.8035 9.09041C10.7855 9.10661 10.7681 9.12281 10.7453 9.14501C10.7357 9.15521 10.7237 9.16661 10.7105 9.17981C10.6943 9.19541 10.6763 9.21281 10.6571 9.23261C10.6319 9.25181 10.6079 9.27821 10.5863 9.30221C10.5737 9.31601 10.5623 9.32921 10.5515 9.33941C10.5335 9.36641 10.5059 9.39641 10.4801 9.41741L10.4717 9.42941C10.4537 9.45461 10.4339 9.48341 10.4087 9.50441C10.3955 9.52541 10.3763 9.55001 10.3559 9.57521L10.3379 9.59861C10.3277 9.61181 10.3157 9.62621 10.3037 9.64001C10.2905 9.65501 10.2773 9.67001 10.2671 9.68501C10.2569 9.69761 10.2485 9.70841 10.2407 9.71921C10.2251 9.73961 10.2089 9.76061 10.1891 9.78041C10.1843 9.79421 10.1771 9.80381 10.1723 9.81161C10.1699 9.81461 10.1687 9.81821 10.1669 9.82181Z" fill="black"/>
<path d="M9.11201 10.1068C9.23801 10.093 9.44981 10.1212 9.45401 10.1212L9.73121 10.1044C9.87641 10.084 9.90581 10.0264 9.92801 9.98622C9.97901 9.89982 10.0156 9.86862 10.0546 9.80382C10.1194 9.75042 10.2172 9.86382 10.2214 9.86382C10.4668 10.0762 10.2898 10.3582 10.2778 10.3666C10.165 10.48 10.1398 10.4878 10.0654 10.4224C9.99041 10.3414 9.96761 10.3048 9.90701 10.2778C9.79121 10.228 9.55721 10.2808 9.55301 10.2808C9.54881 10.2808 9.43301 10.3324 9.43301 10.3324C9.37661 10.3558 9.34241 10.408 9.24341 10.4296C9.14261 10.441 9.10901 10.4326 9.05441 10.354C8.98241 10.252 9.01061 10.1242 9.11081 10.1068H9.11201Z" fill="#F9DD16"/>
<path d="M10.1427 10.4938C10.1139 10.4938 10.0839 10.4782 10.0455 10.4446C10.0263 10.4242 10.0125 10.4086 9.99986 10.3942C9.95726 10.3468 9.93626 10.3228 9.89486 10.3048C9.83366 10.2784 9.71306 10.2802 9.56486 10.309C9.56306 10.309 9.56186 10.3096 9.56006 10.3096C9.54926 10.3138 9.49406 10.3378 9.44486 10.3594C9.42626 10.3672 9.41066 10.378 9.39266 10.3912C9.35966 10.4146 9.31826 10.4434 9.24986 10.4584C9.13826 10.4716 9.09146 10.4602 9.03026 10.3702C8.98466 10.3054 8.97206 10.2262 8.99786 10.1638C9.01706 10.117 9.05666 10.0852 9.10586 10.0768H9.10766C9.18206 10.0684 9.29546 10.0726 9.44426 10.0894L9.45506 10.0906L9.72866 10.0738C9.85466 10.0558 9.87986 10.0096 9.90026 9.97243C9.93026 9.92143 9.95546 9.88843 9.97706 9.86023C9.99506 9.83683 10.0113 9.81523 10.0287 9.78703L10.0353 9.77923C10.0845 9.73843 10.1511 9.75643 10.2321 9.83203L10.2411 9.83983C10.3371 9.92263 10.3851 10.0294 10.3803 10.147C10.3749 10.2748 10.3113 10.378 10.2951 10.3894C10.2291 10.456 10.1871 10.4926 10.1421 10.4926L10.1427 10.4938ZM9.77126 10.2262C9.82586 10.2262 9.87866 10.2322 9.91886 10.2496C9.97226 10.273 9.99926 10.3036 10.0443 10.354C10.0569 10.3678 10.0707 10.3834 10.0869 10.4014C10.1415 10.4488 10.1469 10.4542 10.2561 10.345C10.2579 10.3426 10.4301 10.0852 10.2033 9.88723C10.1997 9.88483 10.1961 9.88123 10.1919 9.87763C10.1385 9.82783 10.0995 9.80923 10.0767 9.82423C10.0593 9.85243 10.0425 9.87463 10.0245 9.89743C10.0029 9.92623 9.98006 9.95563 9.95306 10.0012C9.92906 10.0456 9.89246 10.1116 9.73466 10.1338C9.45506 10.1506 9.45386 10.1506 9.45326 10.1506C9.45386 10.1506 9.44786 10.1506 9.43766 10.1494C9.29366 10.1332 9.18566 10.129 9.11546 10.1362C9.07886 10.1428 9.06146 10.1674 9.05306 10.1866C9.03506 10.2298 9.04526 10.288 9.07886 10.336C9.12386 10.402 9.14486 10.4104 9.23966 10.399C9.29306 10.3876 9.32606 10.3642 9.35786 10.342C9.37826 10.3276 9.39746 10.3144 9.42086 10.3042C9.54086 10.2508 9.54386 10.2502 9.55106 10.2502C9.60746 10.2388 9.69086 10.2256 9.77006 10.2256L9.77126 10.2262Z" fill="black"/>
<path d="M12.1133 8.99548C12.0071 8.94148 11.9255 8.93068 11.8871 8.95648C11.8253 8.61148 11.7713 8.26648 11.6921 7.92268C11.0381 7.65028 10.9001 7.58848 10.6859 7.49488C10.7861 7.43008 10.8359 7.36468 10.8329 7.31788C11.1623 7.43668 11.4881 7.56268 11.8259 7.66588C12.3887 7.23568 12.5117 7.14748 12.6995 7.00828C12.7055 7.12768 12.7373 7.20328 12.7793 7.22368C12.5117 7.44928 12.2399 7.66888 11.9819 7.90948C12.0731 8.61148 12.0881 8.76268 12.1145 8.99488L12.1133 8.99548Z" fill="#F9DD16"/>
<path d="M12.16 9.06325L12.0952 9.03025C11.9836 8.97325 11.9254 8.97745 11.9086 8.98885L11.8588 9.02245L11.848 8.96365C11.8342 8.88505 11.8204 8.80585 11.8066 8.72725C11.7622 8.47225 11.7166 8.20945 11.6578 7.95145C11.1028 7.72045 10.9234 7.64185 10.75 7.56625L10.603 7.50205L10.6636 7.46245C10.7686 7.39405 10.7944 7.34185 10.7926 7.32145L10.7884 7.26145L10.8448 7.28185C10.9204 7.30885 10.9954 7.33645 11.0704 7.36405C11.3128 7.45285 11.5636 7.54465 11.8162 7.62325C12.295 7.25725 12.4522 7.14145 12.6046 7.02865L12.7324 6.93385L12.736 7.00645C12.7426 7.13125 12.7756 7.17985 12.7936 7.18885L12.8476 7.21525L12.802 7.25365C12.7408 7.30525 12.6796 7.35685 12.6178 7.40785C12.4192 7.57345 12.2146 7.74445 12.0202 7.92445C12.0976 8.52145 12.1198 8.71585 12.1408 8.90425L12.1588 9.06265L12.16 9.06325ZM11.941 8.90425C11.977 8.90425 12.019 8.91325 12.0664 8.93185L12.0646 8.91325C12.043 8.72365 12.0208 8.52685 11.9416 7.91485L11.9392 7.89505L11.9536 7.88125C12.1534 7.69525 12.3646 7.51885 12.5686 7.34845C12.6184 7.30705 12.6682 7.26505 12.718 7.22365C12.6934 7.19125 12.6754 7.14325 12.6658 7.08085L12.6514 7.09165C12.4978 7.20505 12.3388 7.32265 11.848 7.69765L11.8318 7.70965L11.8126 7.70365C11.5516 7.62385 11.293 7.52905 11.0434 7.43725C10.9822 7.41505 10.921 7.39225 10.8604 7.37005C10.8448 7.40785 10.8118 7.44685 10.7632 7.48645L10.7812 7.49425C10.9564 7.57045 11.1376 7.64965 11.7064 7.88665L11.725 7.89445L11.7292 7.91425C11.7904 8.18065 11.8378 8.45185 11.8834 8.71345C11.8948 8.77765 11.9056 8.84125 11.917 8.90545C11.9248 8.90425 11.9326 8.90425 11.941 8.90425Z" fill="black"/>
</g>
<rect x="0.25" y="0.25" width="23.5" height="17.5" rx="1.75" stroke="#DDE0EA" stroke-width="0.5" style="fill-opacity:0"/>
<defs>
<clipPath id="clip0_1262_1571">
<rect width="24" height="18" rx="2" fill="white"/>
</clipPath>
</defs>
</svg>
