<svg width="24" height="18" viewBox="0 0 24 18" fill="none" xmlns="http://www.w3.org/2000/svg">
<g clip-path="url(#clip0_1262_1571)">
<path d="M24 0H0V18H24V0Z" fill="#CF142B"/>
<path d="M12.70 7.00C12.70 6.75 12.20 5.59 12.11 5.42C11.96 5.23 11.80 4.92 11.73 4.66C11.68 4.39 11.54 4.19 11.34 4.12C11.11 3.99 10.89 4.04 10.67 4.06C10.56 4.08 10.47 4.14 10.42 4.22C10.30 4.39 10.24 4.38 10.16 4.45C9.49 4.55 8.86 4.90 8.38 5.13C8.13 5.31 7.91 5.41 7.81 5.43C7.54 5.44 7.34 5.31 7.25 5.24C6.94 4.96 6.64 4.68 6.33 4.40C6.06 4.20 6.00 4.49 6.05 4.53C6.14 4.72 5.95 4.84 6.68 5.53C6.77 5.72 6.86 5.91 6.95 6.10C6.95 6.10 6.94 6.25 6.95 6.26C7.08 6.57 7.29 6.50 7.39 6.41C7.47 6.34 7.54 6.28 7.61 6.21C7.61 6.21 8.04 6.07 8.05 6.06C8.51 6.13 9.69 5.90 9.89 5.81C10.07 5.71 10.08 5.80 10.23 5.67C10.36 5.59 10.29 5.65 10.53 5.44C10.60 5.38 10.66 5.48 10.67 5.55C10.68 6.22 10.76 6.65 10.83 7.31L11.83 7.83L12.70 7.00Z" fill="white"/>
<path d="M6.90 4.96C6.91 4.97 6.73 5.54 6.73 5.54C6.73 5.54 6.57 5.38 6.57 5.38L6.69 4.78L6.90 4.96Z" fill="#F9DD16"/>
<path d="M12.11 8.99C12.33 9.12 13.58 9.26 13.77 9.28C14.02 9.24 14.36 9.26 14.62 9.33C14.88 9.42 15.13 9.40 15.29 9.26C15.51 9.13 15.58 8.91 15.67 8.71C15.71 8.61 15.70 8.50 15.65 8.41C15.57 8.23 15.61 8.18 15.59 8.07C15.83 7.44 15.85 6.72 15.89 6.19C15.86 5.88 15.88 5.64 15.91 5.55C16.05 5.31 16.26 5.21 16.36 5.16C16.76 5.03 17.15 4.91 17.55 4.78C17.85 4.65 17.64 4.45 17.57 4.47C17.36 4.45 17.36 4.23 16.40 4.52C16.19 4.50 15.98 4.49 15.77 4.47C15.77 4.47 15.64 4.38 15.63 4.39C15.29 4.34 15.25 4.57 15.28 4.70C15.30 4.79 15.32 4.89 15.34 4.99C15.34 4.99 15.24 5.43 15.25 5.44C14.96 5.80 14.56 6.94 14.55 7.16C14.54 7.36 14.46 7.33 14.50 7.52C14.51 7.68 14.48 7.58 14.55 7.90C14.57 7.99 14.45 7.99 14.38 7.97C13.80 7.64 13.39 7.50 12.78 7.22L11.83 7.83L12.11 9.00L12.11 8.99Z" fill="white"/>
<path d="M10.68 7.49C10.46 7.62 9.71 8.63 9.60 8.79C9.51 9.02 9.33 9.31 9.14 9.50C8.93 9.67 8.82 9.90 8.86 10.11C8.87 10.37 9.02 10.54 9.15 10.72C9.22 10.80 9.32 10.85 9.42 10.85C9.62 10.87 9.64 10.93 9.74 10.96C10.17 11.49 10.78 11.86 11.22 12.16C11.50 12.29 11.70 12.43 11.77 12.50C11.90 12.74 11.89 12.97 11.88 13.09C11.79 13.49 11.70 13.90 11.61 14.30C11.58 14.63 11.86 14.55 11.87 14.48C11.99 14.31 12.19 14.42 12.42 13.44C12.53 13.27 12.65 13.09 12.77 12.92C12.77 12.92 12.91 12.85 12.91 12.84C13.12 12.57 12.95 12.42 12.82 12.38C12.73 12.35 12.63 12.32 12.54 12.29C12.54 12.29 12.21 11.99 12.19 11.99C12.02 11.56 11.23 10.64 11.05 10.52C10.88 10.41 10.95 10.36 10.76 10.29C10.63 10.22 10.72 10.25 10.41 10.15C10.32 10.12 10.38 10.02 10.44 9.97C11.01 9.63 11.34 9.34 11.89 8.96L11.83 7.83L10.68 7.49Z" fill="white"/>
<path d="M12.11 8.99C12.00 8.94 11.92 8.93 11.88 8.95C11.82 8.61 11.77 8.26 11.69 7.92C11.03 7.65 10.90 7.58 10.68 7.49C10.78 7.43 10.83 7.36 10.83 7.31C11.16 7.43 11.48 7.56 11.82 7.66C12.38 7.23 12.51 7.14 12.69 7.00C12.70 7.12 12.73 7.20 12.77 7.22C12.51 7.44 12.23 7.66 11.98 7.90C12.07 8.61 12.08 8.76 12.11 8.99L12.11 8.99Z" fill="#F9DD16"/>
</g>
<rect x="0.25" y="0.25" width="23.5" height="17.5" rx="1.75" stroke="#DDE0EA" stroke-width="0.5" style="fill-opacity:0"/>
<defs>
<clipPath id="clip0_1262_1571">
<rect width="24" height="18" rx="2" fill="white"/>
</clipPath>
</defs>
</svg>
