<svg width="24" height="18" viewBox="0 0 24 18" fill="none" xmlns="http://www.w3.org/2000/svg">
<g clip-path="url(#clip0_1002_9)">
<g clip-path="url(#clip1_1002_9)">
<rect width="24" height="18" fill="#03BCDB"/>
<path d="M24 0H0V18H24V0Z" fill="#00ABC2"/>
<path d="M15.7188 7.55859C15.7227 7.70313 15.8125 7.75781 15.918 7.75781C16.0625 7.75781 16.75 7.55859 16.75 7.55859C16.75 7.55859 16.0625 7.36328 15.918 7.36328C15.8125 7.36328 15.7188 7.41406 15.7188 7.55859Z" fill="#FFEC2D"/>
<path d="M15.5118 8.61328C15.4571 8.7461 15.5196 8.83203 15.6173 8.87109C15.754 8.92578 16.461 9.00781 16.461 9.00781C16.461 9.00781 15.9024 8.5625 15.7696 8.50781C15.6719 8.46484 15.5665 8.48047 15.5118 8.61328Z" fill="#FFEC2D"/>
<path d="M15.5118 6.50781C15.5665 6.64063 15.6719 6.65625 15.7696 6.61328C15.9024 6.55859 16.461 6.11328 16.461 6.11328C16.461 6.11328 15.754 6.19141 15.6173 6.24609C15.5196 6.28906 15.4571 6.375 15.5118 6.50781Z" fill="#FFEC2D"/>
<path d="M15.6679 8.09767C15.6405 8.2422 15.7186 8.31251 15.8241 8.33204C15.9647 8.35939 16.6757 8.30079 16.6757 8.30079C16.6757 8.30079 16.0429 7.97267 15.9022 7.94532C15.7968 7.92189 15.6952 7.95704 15.6679 8.09767Z" fill="#FFEC2D"/>
<path d="M15.2539 9.08985C15.1758 9.21094 15.2187 9.30469 15.3086 9.36719C15.4297 9.44532 16.1094 9.66407 16.1094 9.66407C16.1094 9.66407 15.6484 9.11719 15.5312 9.03907C15.4414 8.97657 15.3359 8.97266 15.2539 9.08985Z" fill="#FFEC2D"/>
<path d="M15.2578 6.03125C15.3398 6.15234 15.4453 6.14844 15.5352 6.08594C15.6524 6.00781 16.1133 5.46094 16.1133 5.46094C16.1133 5.46094 15.4336 5.67578 15.3125 5.75781C15.2227 5.81641 15.1758 5.91406 15.2578 6.03125Z" fill="#FFEC2D"/>
<path d="M15.6679 7.02735C15.6952 7.16798 15.7968 7.20313 15.9022 7.17969C16.0429 7.15235 16.6757 6.82423 16.6757 6.82423C16.6757 6.82423 15.9647 6.76563 15.8241 6.79298C15.7186 6.81251 15.6405 6.88282 15.6679 7.02735Z" fill="#FFEC2D"/>
<path fill-rule="evenodd" clip-rule="evenodd" d="M2.16016 1.3125C2.16016 1.3125 1.98828 1.16797 1.92969 1.23828C1.87758 1.30341 1.97269 1.51335 2.06747 1.72255C2.10048 1.79542 2.13346 1.86821 2.16016 1.93476C2.18685 1.86821 2.21983 1.79542 2.25284 1.72255C2.34762 1.51335 2.44273 1.30341 2.39062 1.23828C2.33203 1.16797 2.16016 1.3125 2.16016 1.3125ZM2.16016 1.10234C2.10517 1.06211 2.03185 1.02344 1.95312 1.02344C1.82031 1.02344 1.69141 1.10547 1.69141 1.25391C1.69141 1.34642 1.76532 1.51101 1.84169 1.6811C1.92334 1.86293 2.00781 2.05104 2.00781 2.16406C2.00781 2.32813 1.88672 2.41406 1.72656 2.40625C1.55078 2.40234 1.41797 2.32031 1.41797 2.15625C1.41797 1.97266 1.50781 1.90234 1.62109 1.89844C1.73438 1.89063 1.78125 1.96875 1.78125 2.02344C1.78125 2.08984 1.74219 2.10156 1.69922 2.10156C1.60547 2.10156 1.64062 1.95313 1.64062 1.95313C1.58203 1.98438 1.53906 2.02734 1.57812 2.10156C1.52734 2.10156 1.48828 2.12109 1.46094 2.15625C1.48828 2.1875 1.52734 2.20703 1.57812 2.21094C1.54688 2.29297 1.58984 2.33203 1.65234 2.34766C1.63672 2.3125 1.62891 2.26563 1.64453 2.22656C1.66797 2.24609 1.71094 2.25781 1.74219 2.25781C1.83203 2.25781 1.92188 2.16406 1.92188 2.03516C1.92188 1.85938 1.77734 1.69922 1.53906 1.75781C1.62109 1.70313 1.65234 1.64063 1.65625 1.58594C1.64746 1.58797 1.63949 1.59 1.63215 1.59186C1.59712 1.60078 1.57662 1.60599 1.55078 1.58984C1.58984 1.53906 1.62109 1.47266 1.60156 1.42188C1.58594 1.43359 1.57031 1.44531 1.55078 1.45313C1.53125 1.45703 1.50781 1.45703 1.48828 1.45313C1.5625 1.26172 1.43359 1.01563 1.17188 0.988281C1.17188 0.988281 1.31641 1.22266 1.31641 1.40234C1.31641 1.5716 1.28522 1.68577 1.25503 1.79633C1.22669 1.90009 1.19922 2.00067 1.19922 2.14063C1.19922 2.32813 1.30859 2.45313 1.41406 2.50391C1.32231 2.51155 1.28294 2.53417 1.22637 2.60837L1.22266 2.60936L1.224 2.6115L1.22266 2.61328L1.22538 2.61366C1.24436 2.64311 1.26688 2.66886 1.29297 2.68749C1.323 2.71001 1.35302 2.72171 1.38651 2.72952C1.33359 2.76817 1.28818 2.81787 1.25391 2.87499C1.22266 2.93358 1.20312 3.00389 1.20312 3.0703C1.20312 3.20573 1.22751 3.29401 1.25404 3.39003C1.28566 3.50449 1.32031 3.62994 1.32031 3.85936C1.32031 3.99218 1.26953 4.12108 1.16406 4.24218C1.44922 4.18358 1.5625 3.94139 1.46875 3.76171C1.5187 3.74173 1.5573 3.76433 1.59422 3.78595C1.6006 3.78969 1.60695 3.79341 1.61328 3.79686C1.61675 3.70666 1.58633 3.66268 1.55758 3.62113L1.54688 3.60546C1.54688 3.60546 1.59766 3.60546 1.64062 3.62499C1.63281 3.55858 1.60547 3.50389 1.54688 3.47655C1.78906 3.51561 1.92188 3.35936 1.92188 3.17186C1.92188 2.98436 1.75391 2.93358 1.64453 2.96483C1.64062 2.93749 1.64062 2.90624 1.65234 2.87889C1.58594 2.89843 1.55469 2.93749 1.57812 3.01561C1.53906 3.02343 1.50391 3.04296 1.47656 3.0703C1.50391 3.09764 1.53906 3.12108 1.57812 3.12889C1.57031 3.14061 1.57031 3.15624 1.57031 3.16796C1.57031 3.18358 1.57422 3.1953 1.58203 3.20702C1.58984 3.21874 1.59766 3.23046 1.60938 3.23827C1.62109 3.24608 1.63281 3.24999 1.64844 3.25389C1.64844 3.25389 1.61719 3.11718 1.71875 3.11718C1.76172 3.11718 1.78906 3.14452 1.78906 3.19921C1.78906 3.28514 1.74219 3.33202 1.62109 3.33202C1.52344 3.33202 1.42969 3.25389 1.42969 3.0703C1.42969 2.92186 1.58203 2.78905 1.71875 2.79686C1.86719 2.79686 2.01172 2.91796 2.01172 3.06639C2.01562 3.14061 2.00391 3.21483 1.97266 3.28514L1.17969 4.93749C1.10938 5.08202 1.07812 5.17968 1.07812 5.33202C1.07812 5.57999 1.23683 5.77506 1.5299 5.80468C1.23683 5.8343 1.07812 6.02937 1.07812 6.27734C1.07812 6.42969 1.10938 6.52734 1.17969 6.67578L1.97266 8.32422C2.00391 8.39453 2.01562 8.46875 2.01172 8.54297C2.01172 8.69141 1.86719 8.8125 1.71875 8.81641C1.58203 8.82031 1.42969 8.6875 1.42969 8.53906C1.42969 8.35547 1.52344 8.27734 1.62109 8.27734C1.74219 8.27734 1.78906 8.32422 1.78906 8.41016C1.78906 8.46875 1.76172 8.49219 1.71875 8.49219C1.61719 8.49219 1.64844 8.35547 1.64844 8.35547C1.63281 8.35938 1.62109 8.36328 1.60938 8.37109C1.59766 8.37891 1.58984 8.39062 1.58203 8.40234C1.57422 8.41406 1.57031 8.42578 1.57031 8.44141C1.57031 8.45313 1.57031 8.46875 1.57812 8.48047C1.53906 8.48828 1.50391 8.51172 1.47656 8.53906C1.50391 8.56641 1.53906 8.58594 1.57812 8.59375C1.55469 8.67578 1.58594 8.71094 1.65234 8.73047C1.64062 8.70312 1.64062 8.67188 1.64453 8.64453C1.75391 8.67578 1.92188 8.625 1.92188 8.4375C1.92188 8.25 1.78906 8.09375 1.54688 8.13281C1.60547 8.10547 1.63281 8.05078 1.64062 7.98828C1.59766 8.00391 1.54688 8.00391 1.54688 8.00391L1.55758 7.98824C1.58632 7.94669 1.61675 7.9027 1.61328 7.8125C1.60563 7.81667 1.59799 7.82134 1.59025 7.82606C1.55453 7.84786 1.5169 7.87082 1.46875 7.85156C1.5625 7.66797 1.44922 7.42578 1.16406 7.36719C1.26953 7.48828 1.32031 7.62109 1.32031 7.75C1.32031 7.97942 1.28566 8.10487 1.25404 8.21933C1.22751 8.31535 1.20312 8.40363 1.20312 8.53906C1.20312 8.60938 1.22266 8.67578 1.25391 8.73438C1.28733 8.79009 1.33135 8.84226 1.38261 8.88084C1.35068 8.88914 1.32182 8.90384 1.29297 8.92188C1.26562 8.94141 1.24219 8.96875 1.22266 9.00001C1.24219 9.03126 1.26562 9.05861 1.29297 9.07814C1.32182 9.09617 1.35068 9.11088 1.38261 9.11917C1.33135 9.15775 1.28733 9.20993 1.25391 9.26564C1.22266 9.32423 1.20312 9.39064 1.20312 9.46095C1.20312 9.59638 1.22751 9.68466 1.25404 9.78068C1.28566 9.89514 1.32031 10.0206 1.32031 10.25C1.32031 10.3789 1.26953 10.5117 1.16406 10.6328C1.44922 10.5742 1.5625 10.332 1.46875 10.1485C1.5169 10.1292 1.5545 10.1521 1.59022 10.1739C1.59795 10.1787 1.60563 10.1833 1.61328 10.1875C1.61675 10.0973 1.58633 10.0533 1.55758 10.0118L1.54688 9.99611C1.54688 9.99611 1.59766 9.99611 1.64062 10.0117C1.63281 9.94923 1.60547 9.89454 1.54688 9.8672C1.78906 9.90626 1.92188 9.75001 1.92188 9.56251C1.92188 9.37501 1.75391 9.32423 1.64453 9.35548C1.64062 9.32814 1.64062 9.29689 1.65234 9.26954C1.58594 9.28907 1.55469 9.32423 1.57812 9.40626C1.53906 9.41407 1.50391 9.43361 1.47656 9.46095C1.50391 9.48829 1.53906 9.51173 1.57812 9.51954C1.57031 9.53126 1.57031 9.54689 1.57031 9.55861C1.57031 9.57423 1.57422 9.58595 1.58203 9.59767C1.58984 9.60939 1.59766 9.62111 1.60938 9.62892C1.62109 9.63673 1.63281 9.64064 1.64844 9.64454C1.64844 9.64454 1.61719 9.50782 1.71875 9.50782C1.76172 9.50782 1.78906 9.53126 1.78906 9.58986C1.78906 9.67579 1.74219 9.72267 1.62109 9.72267C1.52344 9.72267 1.42969 9.64454 1.42969 9.46095C1.42969 9.31251 1.58203 9.1797 1.71875 9.18361C1.86719 9.18751 2.01172 9.30861 2.01172 9.45704C2.01562 9.53126 2.00391 9.60548 1.97266 9.67579L1.17969 11.3242C1.10938 11.4727 1.07812 11.5703 1.07812 11.7227C1.07812 11.9706 1.2368 12.1657 1.52981 12.1953C1.2368 12.225 1.07812 12.42 1.07812 12.668C1.07812 12.8203 1.10938 12.918 1.17969 13.0625L1.97266 14.7148C2.00391 14.7852 2.01562 14.8594 2.01172 14.9336C2.01172 15.082 1.86719 15.2031 1.71875 15.2031C1.58203 15.2109 1.42969 15.0781 1.42969 14.9297C1.42969 14.7461 1.52344 14.668 1.62109 14.668C1.74219 14.668 1.78906 14.7148 1.78906 14.8008C1.78906 14.8555 1.76172 14.8828 1.71875 14.8828C1.61719 14.8828 1.64844 14.7461 1.64844 14.7461C1.63281 14.75 1.62109 14.7539 1.60938 14.7617C1.59766 14.7695 1.58985 14.7812 1.58204 14.793C1.57422 14.8047 1.57031 14.8164 1.57031 14.832C1.57031 14.8438 1.57031 14.8594 1.57812 14.8711C1.53906 14.8789 1.50391 14.9023 1.47656 14.9297C1.50391 14.957 1.53906 14.9766 1.57812 14.9844C1.55469 15.0625 1.58594 15.1016 1.65234 15.1211C1.64062 15.0938 1.64062 15.0625 1.64453 15.0352C1.75391 15.0664 1.92188 15.0156 1.92188 14.8281C1.92188 14.6406 1.78906 14.4844 1.54688 14.5234C1.60547 14.4961 1.63281 14.4414 1.64062 14.375C1.59766 14.3945 1.54688 14.3945 1.54688 14.3945L1.55758 14.3789C1.58633 14.3373 1.61675 14.2933 1.61328 14.2031C1.60694 14.2066 1.6006 14.2103 1.59422 14.214C1.5573 14.2357 1.5187 14.2583 1.46875 14.2383C1.5625 14.0586 1.44922 13.8164 1.16406 13.7578C1.26953 13.8789 1.32031 14.0078 1.32031 14.1406C1.32031 14.37 1.28566 14.4955 1.25404 14.61C1.22751 14.706 1.20312 14.7943 1.20312 14.9297C1.20312 14.9961 1.22266 15.0664 1.25391 15.125C1.28818 15.1821 1.33359 15.2318 1.38652 15.2705C1.35302 15.2783 1.323 15.29 1.29297 15.3125C1.26687 15.3311 1.24433 15.3569 1.22534 15.3864L1.22266 15.3868L1.22398 15.3885L1.22266 15.3906L1.22632 15.3916C1.28292 15.4659 1.32228 15.4885 1.41406 15.4961C1.30859 15.5469 1.19922 15.6719 1.19922 15.8594C1.19922 15.9994 1.22669 16.0999 1.25503 16.2037C1.28522 16.3143 1.31641 16.4284 1.31641 16.5977C1.31641 16.7774 1.17188 17.0118 1.17188 17.0118C1.43359 16.9844 1.5625 16.7383 1.48828 16.5469C1.50781 16.543 1.53125 16.543 1.55078 16.5469C1.57031 16.5547 1.58594 16.5664 1.60156 16.5782C1.62109 16.5274 1.58984 16.461 1.55078 16.4102C1.57662 16.394 1.59712 16.3993 1.63215 16.4082C1.63943 16.41 1.64754 16.4121 1.65625 16.4141C1.65234 16.3594 1.62109 16.2969 1.53906 16.2422C1.77734 16.3008 1.92188 16.1407 1.92188 15.9649C1.92188 15.836 1.83203 15.7422 1.74219 15.7422C1.71094 15.7422 1.66797 15.7539 1.64453 15.7735C1.62891 15.7344 1.63672 15.6875 1.65234 15.6524C1.58984 15.668 1.54688 15.7071 1.57812 15.7891C1.52734 15.793 1.48828 15.8125 1.46094 15.8438C1.48828 15.8789 1.52734 15.8985 1.57812 15.8985C1.53906 15.9727 1.58203 16.0157 1.64062 16.0469C1.64062 16.0469 1.60547 15.8985 1.69922 15.8985C1.74219 15.8985 1.78125 15.9102 1.78125 15.9766C1.78125 16.0313 1.73438 16.1094 1.62109 16.1016C1.50781 16.0977 1.41797 16.0274 1.41797 15.8438C1.41797 15.6797 1.55078 15.5977 1.72656 15.5938C1.88672 15.586 2.00781 15.6719 2.00781 15.836C2.00781 15.949 1.92334 16.1371 1.84169 16.3189C1.76532 16.489 1.69141 16.6536 1.69141 16.7461C1.69141 16.8946 1.82031 16.9766 1.95312 16.9766C2.03185 16.9766 2.10517 16.9379 2.16016 16.8977C2.21514 16.9379 2.28847 16.9766 2.36719 16.9766C2.5 16.9766 2.62891 16.8946 2.62891 16.7461C2.62891 16.6536 2.555 16.489 2.47862 16.3189C2.39697 16.1371 2.3125 15.949 2.3125 15.836C2.3125 15.6719 2.43359 15.586 2.59375 15.5938C2.76953 15.5977 2.90234 15.6797 2.90234 15.8438C2.90234 16.0274 2.8125 16.0977 2.69922 16.1016C2.58594 16.1094 2.53906 16.0313 2.53906 15.9766C2.53906 15.9102 2.57812 15.8985 2.62109 15.8985C2.71484 15.8985 2.67969 16.0469 2.67969 16.0469C2.73828 16.0157 2.77734 15.9727 2.74219 15.8985C2.79297 15.8985 2.83203 15.8789 2.85938 15.8438C2.83203 15.8125 2.79297 15.793 2.74219 15.7891C2.77344 15.7071 2.73047 15.668 2.66406 15.6524C2.68359 15.6875 2.69141 15.7344 2.67578 15.7735C2.65234 15.7539 2.60938 15.7422 2.57812 15.7422C2.48828 15.7422 2.39844 15.836 2.39844 15.9649C2.39844 16.1407 2.54297 16.3008 2.78125 16.2422C2.69922 16.2969 2.66406 16.3594 2.66406 16.4141L2.68245 16.4093C2.71858 16.3997 2.7426 16.3934 2.76953 16.4102C2.73047 16.461 2.69922 16.5274 2.71875 16.5782C2.73438 16.5664 2.75 16.5547 2.76953 16.5469C2.78906 16.543 2.8125 16.543 2.83203 16.5469C2.75781 16.7383 2.88672 16.9844 3.14844 17.0118C3.14844 17.0118 3.00391 16.7774 3.00391 16.5977C3.00391 16.4284 3.03509 16.3143 3.06528 16.2037C3.09362 16.0999 3.12109 15.9994 3.12109 15.8594C3.12109 15.6719 3.01172 15.5469 2.90625 15.4961C2.99803 15.4885 3.0374 15.4659 3.09399 15.3916L3.09766 15.3906L3.09633 15.3885L3.09766 15.3868L3.09497 15.3864C3.07598 15.3569 3.05327 15.3311 3.02344 15.3125C2.99716 15.29 2.96729 15.2783 2.9338 15.2705C2.98672 15.2318 3.03213 15.1821 3.06641 15.125C3.09766 15.0664 3.11719 14.9961 3.11719 14.9297C3.11719 14.7943 3.0928 14.706 3.06628 14.61C3.03466 14.4955 3 14.37 3 14.1406C3 14.0078 3.05078 13.8789 3.15625 13.7578C2.87109 13.8164 2.75781 14.0586 2.84766 14.2383C2.80127 14.2582 2.76332 14.2359 2.72665 14.2144C2.72009 14.2105 2.71355 14.2067 2.70703 14.2031C2.70356 14.2933 2.73399 14.3373 2.76273 14.3789L2.77344 14.3945C2.77344 14.3945 2.72266 14.3945 2.67969 14.375C2.6875 14.4414 2.71484 14.4961 2.77344 14.5234C2.52734 14.4844 2.39844 14.6406 2.39844 14.8281C2.39844 15.0156 2.56641 15.0664 2.67578 15.0352C2.67969 15.0625 2.67969 15.0938 2.66406 15.1211C2.73437 15.1016 2.76562 15.0625 2.74219 14.9844C2.78125 14.9766 2.81641 14.957 2.84375 14.9297C2.81641 14.9023 2.78125 14.8789 2.74219 14.8711C2.75 14.8594 2.75 14.8438 2.75 14.832C2.75 14.8164 2.74609 14.8047 2.73828 14.793C2.73047 14.7812 2.72266 14.7695 2.71094 14.7617C2.69922 14.7539 2.6875 14.75 2.67187 14.7461C2.67187 14.7461 2.70312 14.8828 2.60156 14.8828C2.55859 14.8828 2.53125 14.8555 2.53125 14.8008C2.53125 14.7148 2.57812 14.668 2.69922 14.668C2.79687 14.668 2.89062 14.7461 2.89062 14.9297C2.89062 15.0781 2.73828 15.2109 2.60156 15.2031C2.45312 15.2031 2.30859 15.082 2.30859 14.9336C2.30469 14.8594 2.31641 14.7852 2.34375 14.7148L3.14062 13.0625C3.21094 12.918 3.23828 12.8203 3.23828 12.668C3.23828 12.42 3.08292 12.225 2.79043 12.1953C3.08292 12.1657 3.23828 11.9706 3.23828 11.7227C3.23828 11.5703 3.21094 11.4727 3.14062 11.3242L2.34375 9.67579C2.31641 9.60548 2.30469 9.53126 2.30859 9.45704C2.30859 9.30861 2.45312 9.18751 2.60156 9.18361C2.73828 9.1797 2.89062 9.31251 2.89062 9.46095C2.89062 9.64454 2.79687 9.72267 2.69922 9.72267C2.57812 9.72267 2.53125 9.67579 2.53125 9.58986C2.53125 9.53126 2.55859 9.50782 2.60156 9.50782C2.70312 9.50782 2.67187 9.64454 2.67187 9.64454C2.6875 9.64064 2.69922 9.63673 2.71094 9.62892C2.72266 9.62111 2.73047 9.60939 2.73828 9.59767C2.74609 9.58595 2.75 9.57423 2.75 9.55861C2.75 9.54689 2.75 9.53126 2.74219 9.51954C2.78125 9.51173 2.81641 9.48829 2.84375 9.46095C2.81641 9.43361 2.78125 9.41407 2.74219 9.40626C2.76562 9.32423 2.73437 9.28907 2.66406 9.26954C2.67969 9.29689 2.67969 9.32814 2.67578 9.35548C2.56641 9.32423 2.39844 9.37501 2.39844 9.56251C2.39844 9.75001 2.52734 9.90626 2.77344 9.8672C2.71484 9.89454 2.6875 9.94923 2.67969 10.0117C2.72266 9.99611 2.77344 9.99611 2.77344 9.99611C2.76994 10.0013 2.76635 10.0065 2.76273 10.0118C2.73399 10.0533 2.70356 10.0973 2.70703 10.1875C2.7149 10.1832 2.72277 10.1784 2.73071 10.1735C2.76613 10.1519 2.80299 10.1293 2.84766 10.1485C2.75781 10.332 2.87109 10.5742 3.15625 10.6328C3.05078 10.5117 3 10.3789 3 10.25C3 10.0206 3.03466 9.89514 3.06628 9.78068C3.0928 9.68466 3.11719 9.59638 3.11719 9.46095C3.11719 9.39064 3.09766 9.32423 3.06641 9.26564C3.03298 9.20993 2.98896 9.15775 2.9377 9.11917C2.96961 9.11088 2.99819 9.09617 3.02344 9.07814C3.05469 9.05861 3.07812 9.03126 3.09766 9.00001C3.07812 8.96876 3.05469 8.94141 3.02344 8.92188C2.99819 8.90384 2.96961 8.88914 2.9377 8.88084C2.98896 8.84226 3.03298 8.79009 3.06641 8.73438C3.09766 8.67578 3.11719 8.60938 3.11719 8.53906C3.11719 8.40363 3.0928 8.31535 3.06628 8.21933C3.03466 8.10487 3 7.97942 3 7.75C3 7.62109 3.05078 7.48828 3.15625 7.36719C2.87109 7.42578 2.75781 7.66797 2.84766 7.85156C2.80299 7.87071 2.76613 7.84815 2.73072 7.82647C2.72277 7.82161 2.7149 7.81679 2.70703 7.8125C2.70356 7.9027 2.73399 7.94669 2.76273 7.98824L2.77344 8.00391C2.77344 8.00391 2.72266 8.00391 2.67969 7.98828C2.6875 8.05078 2.71484 8.10547 2.77344 8.13281C2.52734 8.09375 2.39844 8.25 2.39844 8.4375C2.39844 8.625 2.56641 8.67578 2.67578 8.64453C2.67969 8.67188 2.67969 8.70312 2.66406 8.73047C2.73437 8.71094 2.76562 8.67578 2.74219 8.59375C2.78125 8.58594 2.81641 8.56641 2.84375 8.53906C2.81641 8.51172 2.78125 8.48828 2.74219 8.48047C2.75 8.46875 2.75 8.45313 2.75 8.44141C2.75 8.42578 2.74609 8.41406 2.73828 8.40234C2.73047 8.39062 2.72266 8.37891 2.71094 8.37109C2.69922 8.36328 2.6875 8.35938 2.67187 8.35547C2.67187 8.35547 2.70312 8.49219 2.60156 8.49219C2.55859 8.49219 2.53125 8.46875 2.53125 8.41016C2.53125 8.32422 2.57812 8.27734 2.69922 8.27734C2.79687 8.27734 2.89062 8.35547 2.89062 8.53906C2.89062 8.6875 2.73828 8.82031 2.60156 8.81641C2.45312 8.8125 2.30859 8.69141 2.30859 8.54297C2.30469 8.46875 2.31641 8.39453 2.34375 8.32422L3.14062 6.67578C3.21094 6.52734 3.23828 6.42969 3.23828 6.27734C3.23828 6.02937 3.08288 5.8343 2.79034 5.80468C3.08288 5.77506 3.23828 5.57999 3.23828 5.33202C3.23828 5.17968 3.21094 5.08202 3.14062 4.93749L2.34375 3.28514C2.31641 3.21483 2.30469 3.14061 2.30859 3.06639C2.30859 2.91796 2.45312 2.79686 2.60156 2.79686C2.73828 2.78905 2.89062 2.92186 2.89062 3.0703C2.89062 3.25389 2.79687 3.33202 2.69922 3.33202C2.57812 3.33202 2.53125 3.28514 2.53125 3.19921C2.53125 3.14452 2.55859 3.11718 2.60156 3.11718C2.70312 3.11718 2.67187 3.25389 2.67187 3.25389C2.6875 3.24999 2.69922 3.24608 2.71094 3.23827C2.72266 3.23046 2.73047 3.21874 2.73828 3.20702C2.74609 3.1953 2.75 3.18358 2.75 3.16796C2.75 3.15624 2.75 3.14061 2.74219 3.12889C2.78125 3.12108 2.81641 3.09764 2.84375 3.0703C2.81641 3.04296 2.78125 3.02343 2.74219 3.01561C2.76562 2.93749 2.73437 2.89843 2.66406 2.87889C2.67969 2.90624 2.67969 2.93749 2.67578 2.96483C2.56641 2.93358 2.39844 2.98436 2.39844 3.17186C2.39844 3.35936 2.52734 3.51561 2.77344 3.47655C2.71484 3.50389 2.6875 3.55858 2.67969 3.62499C2.72266 3.60546 2.77344 3.60546 2.77344 3.60546L2.76273 3.62113C2.73399 3.66268 2.70356 3.70666 2.70703 3.79686C2.71353 3.79332 2.72002 3.78951 2.72655 3.78567C2.76323 3.76415 2.80127 3.74183 2.84766 3.76171C2.75781 3.94139 2.87109 4.18358 3.15625 4.24218C3.05078 4.12108 3 3.99218 3 3.85936C3 3.62994 3.03466 3.50449 3.06628 3.39003C3.0928 3.29401 3.11719 3.20573 3.11719 3.0703C3.11719 3.00389 3.09766 2.93358 3.06641 2.87499C3.03213 2.81787 2.98673 2.76817 2.9338 2.72952C2.96729 2.72171 2.99716 2.71001 3.02344 2.68749C3.05325 2.66886 3.07595 2.64312 3.09493 2.61366L3.09766 2.61328L3.09631 2.6115L3.09766 2.60936L3.09394 2.60837C3.03738 2.53417 2.99801 2.51155 2.90625 2.50391C3.01172 2.45313 3.12109 2.32813 3.12109 2.14063C3.12109 2.00067 3.09362 1.90009 3.06528 1.79633C3.03509 1.68578 3.00391 1.5716 3.00391 1.40234C3.00391 1.22266 3.14844 0.988281 3.14844 0.988281C2.88672 1.01563 2.75781 1.26172 2.83203 1.45313C2.8125 1.45703 2.78906 1.45703 2.76953 1.45313C2.75 1.44531 2.73438 1.43359 2.71875 1.42188C2.69922 1.47266 2.73047 1.53906 2.76953 1.58984C2.7426 1.60667 2.71858 1.6003 2.68245 1.59072L2.66406 1.58594C2.66406 1.64063 2.69922 1.70313 2.78125 1.75781C2.54297 1.69922 2.39844 1.85938 2.39844 2.03516C2.39844 2.16406 2.48828 2.25781 2.57812 2.25781C2.60938 2.25781 2.65234 2.24609 2.67578 2.22656C2.69141 2.26563 2.68359 2.3125 2.66406 2.34766C2.73047 2.33203 2.77344 2.29297 2.74219 2.21094C2.79297 2.20703 2.83203 2.1875 2.85938 2.15625C2.83203 2.12109 2.79297 2.10156 2.74219 2.10156C2.77734 2.02734 2.73828 1.98438 2.67969 1.95313C2.67969 1.95313 2.71484 2.10156 2.62109 2.10156C2.57812 2.10156 2.53906 2.08984 2.53906 2.02344C2.53906 1.96875 2.58594 1.89063 2.69922 1.89844C2.8125 1.90234 2.90234 1.97266 2.90234 2.15625C2.90234 2.32031 2.76953 2.40234 2.59375 2.40625C2.43359 2.41406 2.3125 2.32813 2.3125 2.16406C2.3125 2.05104 2.39697 1.86293 2.47862 1.6811C2.55499 1.51101 2.62891 1.34642 2.62891 1.25391C2.62891 1.10547 2.5 1.02344 2.36719 1.02344C2.28847 1.02344 2.21514 1.06211 2.16016 1.10234ZM2.49801 9.00001C2.49346 8.99873 2.48891 8.99743 2.48437 8.99609C2.41797 8.98438 2.35156 8.96094 2.29687 8.92188C2.24219 8.88672 2.19531 8.83594 2.16016 8.77734C2.125 8.83594 2.07812 8.88672 2.02344 8.92188C1.96484 8.96094 1.90234 8.98438 1.83594 8.99609L1.8223 9.00001L1.83594 9.00392C1.90234 9.01564 1.96484 9.03907 2.02344 9.07814C2.07812 9.11329 2.125 9.16407 2.16016 9.22267C2.19531 9.16407 2.24219 9.11329 2.29687 9.07814C2.35156 9.03907 2.41797 9.01564 2.48437 9.00392C2.48891 9.00258 2.49346 9.00128 2.49801 9.00001ZM2.16016 9.7422C2.04688 9.97658 1.51562 11.1016 1.35156 11.457C1.31641 11.5313 1.29688 11.6094 1.29688 11.6953C1.29688 11.9141 1.49219 11.9883 1.60547 11.9883C1.74219 11.9883 1.87891 11.8867 1.87891 11.7578C1.87891 11.6758 1.83594 11.625 1.76953 11.625C1.61719 11.625 1.62891 11.7539 1.65625 11.8399C1.5625 11.7969 1.50781 11.7188 1.52344 11.6406C1.46484 11.6289 1.41016 11.6016 1.37109 11.5547C1.40625 11.5078 1.45312 11.4727 1.52344 11.4688C1.49219 11.3438 1.57812 11.293 1.65625 11.2656C1.63281 11.3555 1.61328 11.461 1.76953 11.461C1.88281 11.461 1.97266 11.4805 2.02344 11.5547L2.03906 11.0664C2.04297 10.9219 1.84375 10.9258 1.71484 10.9688C1.76172 10.8008 1.85938 10.711 2.08984 10.7344C2.05469 10.7188 2.02734 10.6953 2.00391 10.6641C1.98438 10.6328 1.97656 10.5938 1.97656 10.5586C1.97656 10.4219 2.08984 10.2695 2.16016 10.2227C2.23047 10.2695 2.34375 10.4219 2.34375 10.5586C2.34375 10.5938 2.33594 10.6328 2.31641 10.6641C2.29297 10.6953 2.26562 10.7188 2.22656 10.7344C2.45703 10.711 2.55859 10.8008 2.60547 10.9688C2.47656 10.9258 2.27344 10.9219 2.28125 11.0664L2.29687 11.5547C2.34766 11.4805 2.43359 11.461 2.54687 11.461C2.70703 11.461 2.6875 11.3555 2.66406 11.2656C2.74219 11.293 2.82812 11.3438 2.79687 11.4688C2.86719 11.4727 2.91406 11.5078 2.94922 11.5547C2.91016 11.6016 2.85547 11.6289 2.79687 11.6406C2.8125 11.7188 2.75781 11.7969 2.66406 11.8399C2.69141 11.7539 2.70312 11.625 2.54687 11.625C2.48437 11.625 2.44141 11.6758 2.44141 11.7578C2.44141 11.8867 2.57812 11.9883 2.71484 11.9883C2.82422 11.9883 3.02344 11.9141 3.02344 11.6953C3.02344 11.6094 3.00391 11.5313 2.96875 11.457C2.91126 11.3354 2.81166 11.1235 2.70098 10.8881C2.48829 10.4358 2.23466 9.89635 2.16016 9.7422ZM2.16016 11.8426C2.0783 12.0537 1.86734 12.1727 1.67547 12.1953C1.86734 12.2174 2.0783 12.3345 2.16016 12.5466C2.242 12.3345 2.45295 12.2174 2.64481 12.1953C2.45295 12.1727 2.242 12.0537 2.16016 11.8426ZM2.48437 15.3828C2.49508 15.3862 2.50581 15.3893 2.51658 15.3923C2.36212 15.4271 2.23161 15.4852 2.16016 15.6057C2.08871 15.4852 1.95819 15.4271 1.80374 15.3923C1.8145 15.3893 1.82524 15.3862 1.83594 15.3828C1.90234 15.375 1.96484 15.3516 2.02344 15.3125C2.07812 15.2773 2.125 15.2266 2.16016 15.168C2.19531 15.2266 2.24219 15.2773 2.29687 15.3125C2.35156 15.3516 2.41797 15.375 2.48437 15.3828ZM2.70082 13.5028C2.48817 13.9551 2.23465 14.4943 2.16016 14.6484C2.04688 14.4141 1.51562 13.2891 1.35156 12.9336C1.31641 12.8594 1.29688 12.7812 1.29688 12.6953C1.29688 12.4766 1.49219 12.4023 1.60547 12.4023C1.74219 12.4023 1.87891 12.5039 1.87891 12.6328C1.87891 12.7148 1.83594 12.7656 1.76953 12.7656C1.61719 12.7656 1.62891 12.6328 1.65625 12.5508C1.5625 12.5938 1.50781 12.6719 1.52344 12.75C1.46484 12.7578 1.41016 12.7891 1.37109 12.8359C1.40625 12.8828 1.45312 12.918 1.52344 12.9219C1.49219 13.043 1.57812 13.0977 1.65625 13.125C1.63281 13.0352 1.61328 12.9297 1.76953 12.9297C1.88281 12.9297 1.97266 12.9102 2.02344 12.8359L2.03906 13.3203C2.04297 13.4688 1.84375 13.4648 1.71484 13.4219C1.76172 13.5898 1.85938 13.6797 2.08984 13.6562C2.05469 13.6719 2.02734 13.6953 2.00391 13.7266C1.98438 13.7578 1.97656 13.7969 1.97656 13.832C1.97656 13.9688 2.08984 14.1211 2.16016 14.1641C2.23047 14.1211 2.34375 13.9688 2.34375 13.832C2.34375 13.7969 2.33594 13.7578 2.31641 13.7266C2.29297 13.6953 2.26562 13.6719 2.22656 13.6562C2.45703 13.6797 2.55859 13.5898 2.60547 13.4219C2.47656 13.4648 2.27344 13.4688 2.28125 13.3203L2.29687 12.8359C2.34766 12.9102 2.43359 12.9297 2.54687 12.9297C2.70703 12.9297 2.6875 13.0352 2.66406 13.125C2.74219 13.0977 2.82812 13.043 2.79687 12.9219C2.86719 12.918 2.91406 12.8828 2.94922 12.8359C2.91016 12.7891 2.85547 12.7578 2.79687 12.75C2.8125 12.6719 2.75781 12.5938 2.66406 12.5508C2.69141 12.6328 2.70312 12.7656 2.54687 12.7656C2.48437 12.7656 2.44141 12.7148 2.44141 12.6328C2.44141 12.5039 2.57812 12.4023 2.71484 12.4023C2.82422 12.4023 3.02344 12.4766 3.02344 12.6953C3.02344 12.7812 3.00391 12.8594 2.96875 12.9336C2.91131 13.0552 2.81183 13.2667 2.70126 13.5019L2.70082 13.5028ZM2.06749 16.2774C1.97271 16.4866 1.87758 16.6966 1.92969 16.7618C1.98828 16.8321 2.16016 16.6875 2.16016 16.6875C2.16016 16.6875 2.33203 16.8321 2.39062 16.7618C2.44273 16.6966 2.34762 16.4867 2.25284 16.2775C2.21983 16.2046 2.18685 16.1318 2.16016 16.0653C2.13347 16.1318 2.1005 16.2046 2.06749 16.2774ZM2.64492 5.80472C2.45303 5.7826 2.24202 5.66551 2.16016 5.45343C2.07829 5.66551 1.86728 5.7826 1.67539 5.80472C1.86728 5.82725 2.07829 5.94627 2.16016 6.15742C2.24202 5.94627 2.45303 5.82725 2.64492 5.80472ZM2.16016 7.77734C2.08984 7.73047 1.97656 7.57813 1.97656 7.44141C1.97656 7.40625 1.98438 7.36719 2.00391 7.33594C2.02734 7.30469 2.05469 7.28125 2.08984 7.26563C1.85938 7.28906 1.76172 7.19922 1.71484 7.03125C1.84375 7.07422 2.04297 7.07813 2.03906 6.93359L2.02344 6.44531C1.97266 6.51953 1.88281 6.53906 1.76953 6.53906C1.61328 6.53906 1.63281 6.64453 1.65625 6.73438C1.57812 6.70703 1.49219 6.65625 1.52344 6.53125C1.45312 6.52734 1.40625 6.49219 1.37109 6.44531C1.41016 6.39844 1.46484 6.37109 1.52344 6.35938C1.50781 6.28125 1.5625 6.20313 1.65625 6.16016C1.62891 6.24609 1.61719 6.375 1.76953 6.375C1.83594 6.375 1.87891 6.32422 1.87891 6.24219C1.87891 6.11328 1.74219 6.01172 1.60547 6.01172C1.49219 6.01172 1.29688 6.08594 1.29688 6.30469C1.29688 6.39063 1.31641 6.46875 1.35156 6.54297C1.51562 6.89844 2.04688 8.02344 2.16016 8.25781C2.23466 8.10367 2.48825 7.56433 2.70092 7.112L2.70138 7.11102C2.8119 6.87595 2.91133 6.66449 2.96875 6.54297C3.00391 6.46875 3.02344 6.39063 3.02344 6.30469C3.02344 6.08594 2.82422 6.01172 2.71484 6.01172C2.57812 6.01172 2.44141 6.11328 2.44141 6.24219C2.44141 6.32422 2.48437 6.375 2.54687 6.375C2.70312 6.375 2.69141 6.24609 2.66406 6.16016C2.75781 6.20313 2.8125 6.28125 2.79687 6.35938C2.85547 6.37109 2.91016 6.39844 2.94922 6.44531C2.91406 6.49219 2.86719 6.52734 2.79687 6.53125C2.82812 6.65625 2.74219 6.70703 2.66406 6.73438C2.6875 6.64453 2.70703 6.53906 2.54687 6.53906C2.43359 6.53906 2.34766 6.51953 2.29687 6.44531L2.28125 6.93359C2.27344 7.07813 2.47656 7.07422 2.60547 7.03125C2.55859 7.19922 2.45703 7.28906 2.22656 7.26563C2.26562 7.28125 2.29297 7.30469 2.31641 7.33594C2.33594 7.36719 2.34375 7.40625 2.34375 7.44141C2.34375 7.57813 2.23047 7.73047 2.16016 7.77734ZM2.34375 4.16796C2.34375 4.03124 2.23047 3.87889 2.16016 3.83593C2.08984 3.87889 1.97656 4.03124 1.97656 4.16796C1.97656 4.20311 1.98438 4.24218 2.00391 4.27343C2.02734 4.30468 2.05469 4.32811 2.08984 4.34374C1.85938 4.3203 1.76172 4.41014 1.71484 4.57811C1.84375 4.53514 2.04297 4.53124 2.03906 4.67968L2.02344 5.16405C1.97266 5.08983 1.88281 5.0703 1.76953 5.0703C1.61328 5.0703 1.63281 4.96483 1.65625 4.87499C1.57812 4.90233 1.49219 4.95702 1.52344 5.07811C1.45312 5.08202 1.40625 5.11718 1.37109 5.16405C1.41016 5.21093 1.46484 5.24218 1.52344 5.24999C1.50781 5.32811 1.5625 5.40624 1.65625 5.44921C1.62891 5.36718 1.61719 5.23436 1.76953 5.23436C1.83594 5.23436 1.87891 5.28514 1.87891 5.36718C1.87891 5.49608 1.74219 5.59764 1.60547 5.59764C1.49219 5.59764 1.29688 5.52343 1.29688 5.30468C1.29688 5.21874 1.31641 5.14061 1.35156 5.06639C1.51562 4.71093 2.04688 3.58593 2.16016 3.35155C2.23465 3.50567 2.48818 4.0449 2.70084 4.49719C2.81158 4.73272 2.91123 4.94467 2.96875 5.06639C3.00391 5.14061 3.02344 5.21874 3.02344 5.30468C3.02344 5.52343 2.82422 5.59764 2.71484 5.59764C2.57812 5.59764 2.44141 5.49608 2.44141 5.36718C2.44141 5.28514 2.48437 5.23436 2.54687 5.23436C2.70312 5.23436 2.69141 5.36718 2.66406 5.44921C2.75781 5.40624 2.8125 5.32811 2.79687 5.24999C2.85547 5.24218 2.91016 5.21093 2.94922 5.16405C2.91406 5.11718 2.86719 5.08202 2.79687 5.07811C2.82812 4.95702 2.74219 4.90233 2.66406 4.87499C2.6875 4.96483 2.70703 5.0703 2.54687 5.0703C2.43359 5.0703 2.34766 5.08983 2.29687 5.16405L2.28125 4.67968C2.27344 4.53124 2.47656 4.53514 2.60547 4.57811C2.55859 4.41014 2.45703 4.3203 2.22656 4.34374C2.26562 4.32811 2.29297 4.30468 2.31641 4.27343C2.33594 4.24218 2.34375 4.20311 2.34375 4.16796ZM2.29687 2.68749C2.24219 2.72264 2.19531 2.77343 2.16016 2.83202C2.125 2.77343 2.07812 2.72264 2.02344 2.68749C1.96484 2.64843 1.90234 2.62499 1.83594 2.61718C1.82527 2.61383 1.81457 2.61066 1.80384 2.60767C1.95825 2.5729 2.08873 2.51481 2.16016 2.39437C2.23159 2.51481 2.36207 2.5729 2.51647 2.60767C2.50574 2.61066 2.49504 2.61383 2.48437 2.61718C2.41797 2.62499 2.35156 2.64843 2.29687 2.68749ZM13.1641 4.60938C13.1641 4.71484 13.1133 4.80469 12.9688 4.80859C12.8242 4.80859 12.7695 4.71484 12.7695 4.60938C12.7695 4.46484 12.9688 3.77734 12.9688 3.77734C12.9688 3.77734 13.1641 4.46484 13.1641 4.60938ZM15.3906 7.55859C15.3906 8.89844 14.3047 9.98438 12.9688 9.98438C11.6289 9.98438 10.543 8.89844 10.543 7.55859C10.543 6.22266 11.6289 5.13672 12.9688 5.13672C14.3047 5.13672 15.3906 6.22266 15.3906 7.55859ZM12.9688 10.3125C12.8242 10.3125 12.7695 10.4023 12.7695 10.5117C12.7695 10.6562 12.9688 11.3438 12.9688 11.3438C12.9688 11.3438 13.1641 10.6562 13.1641 10.5117C13.1641 10.4023 13.1133 10.3125 12.9688 10.3125ZM10.0156 7.36328C10.125 7.36328 10.2148 7.41406 10.2148 7.55859C10.2148 7.70313 10.125 7.75781 10.0156 7.75781C9.87109 7.75781 9.1875 7.55859 9.1875 7.55859C9.1875 7.55859 9.87109 7.36328 10.0156 7.36328ZM14.0196 5.01563C14.1563 5.07031 14.2384 5.00781 14.2813 4.91016C14.336 4.77734 14.4142 4.06641 14.4142 4.06641C14.4142 4.06641 13.9688 4.625 13.9142 4.75781C13.8712 4.85547 13.8868 4.96094 14.0196 5.01563ZM11.6562 10.2109C11.6953 10.1133 11.7812 10.0508 11.9141 10.1016C12.0469 10.1563 12.0625 10.2617 12.0195 10.3633C11.9648 10.4961 11.5195 11.0547 11.5195 11.0547C11.5195 11.0547 11.6016 10.3438 11.6562 10.2109ZM10.4258 6.50781C10.4766 6.375 10.4141 6.28906 10.3164 6.24609C10.1836 6.19141 9.47266 6.11328 9.47266 6.11328C9.47266 6.11328 10.0312 6.55859 10.1641 6.61328C10.2656 6.65625 10.3711 6.64063 10.4258 6.50781ZM15.1952 5.61328C15.1171 5.6875 15.0155 5.71484 14.914 5.61328C14.8124 5.51172 14.8398 5.41016 14.914 5.33203C15.0155 5.23047 15.6405 4.88672 15.6405 4.88672C15.6405 4.88672 15.2968 5.51172 15.1952 5.61328ZM14.914 9.50782C14.8124 9.60939 14.8398 9.71095 14.914 9.78907C15.0155 9.89064 15.6405 10.2344 15.6405 10.2344C15.6405 10.2344 15.2968 9.60939 15.1952 9.50782C15.1171 9.4297 15.0155 9.40236 14.914 9.50782ZM10.7383 9.50785C10.8164 9.42973 10.918 9.40629 11.0195 9.50785C11.125 9.60942 11.0977 9.71098 11.0195 9.7891C10.918 9.89067 10.293 10.2344 10.293 10.2344C10.293 10.2344 10.6367 9.60942 10.7383 9.50785ZM11.0195 5.61328C11.1211 5.51172 11.0977 5.41016 11.0195 5.33203C10.918 5.23047 10.293 4.88672 10.293 4.88672C10.293 4.88672 10.6367 5.51172 10.7383 5.61328C10.8164 5.6875 10.918 5.71484 11.0195 5.61328ZM13.9142 10.3633C13.8712 10.2617 13.8868 10.1602 14.0196 10.1016C14.1524 10.0469 14.2384 10.1133 14.2813 10.2109C14.336 10.3438 14.4142 11.0547 14.4142 11.0547C14.4142 11.0547 13.9688 10.4961 13.9142 10.3633ZM10.4258 8.61325C10.3672 8.48044 10.2656 8.46481 10.1641 8.50778C10.0312 8.56247 9.47266 9.00778 9.47266 9.00778C9.47266 9.00778 10.1836 8.92966 10.3164 8.87106C10.4141 8.832 10.4805 8.74607 10.4258 8.61325ZM12.0195 4.75781C12.0625 4.85547 12.0469 4.96094 11.9141 5.01563C11.7812 5.07422 11.6953 5.00781 11.6562 4.91016C11.6016 4.77734 11.5195 4.06641 11.5195 4.06641C11.5195 4.06641 11.9648 4.625 12.0195 4.75781ZM13.5079 4.85938C13.6485 4.88672 13.7188 4.80859 13.7384 4.70313C13.7696 4.5625 13.7071 3.85156 13.7071 3.85156C13.7071 3.85156 13.379 4.48438 13.3517 4.625C13.3321 4.73047 13.3673 4.83203 13.5079 4.85938ZM12.1953 10.4141C12.2148 10.3086 12.2851 10.2305 12.4296 10.2578C12.5703 10.2852 12.6054 10.3867 12.582 10.4922C12.5546 10.6367 12.2265 11.2695 12.2265 11.2695C12.2265 11.2695 12.1679 10.5586 12.1953 10.4141ZM10.2695 7.01949C10.2969 6.87887 10.2188 6.80856 10.1133 6.78902C9.96875 6.75777 9.25781 6.82027 9.25781 6.82027C9.25781 6.82027 9.89453 7.1484 10.0352 7.17574C10.1406 7.19527 10.2422 7.16012 10.2695 7.01949ZM14.7734 5.21875C14.7148 5.30859 14.621 5.35156 14.4999 5.27344C14.3789 5.19141 14.3867 5.08594 14.4453 4.99609C14.5234 4.87891 15.0703 4.41797 15.0703 4.41797C15.0703 4.41797 14.8554 5.09766 14.7734 5.21875ZM11.4375 9.84764C11.3164 9.76952 11.2227 9.81249 11.1602 9.90233C11.082 10.0234 10.8633 10.7031 10.8633 10.7031C10.8633 10.7031 11.4102 10.2422 11.4883 10.125C11.5508 10.0351 11.5547 9.92577 11.4375 9.84764ZM10.625 5.75391C10.7148 5.8125 10.7578 5.91016 10.6797 6.02734C10.6016 6.14844 10.4922 6.14063 10.4062 6.08203C10.2852 6.00391 9.82422 5.45703 9.82422 5.45703C9.82422 5.45703 10.5039 5.67188 10.625 5.75391ZM14.4962 9.85157C14.3751 9.92969 14.379 10.0352 14.4415 10.125C14.5197 10.2461 15.0665 10.707 15.0665 10.707C15.0665 10.707 14.8517 10.0273 14.7697 9.90626C14.7111 9.81641 14.6134 9.76954 14.4962 9.85157ZM10.4023 9.03125C10.4922 8.97265 10.5977 8.96875 10.6797 9.08594C10.7578 9.20703 10.7109 9.30078 10.6211 9.36328C10.5 9.4414 9.82031 9.66015 9.82031 9.66015C9.82031 9.66015 10.2813 9.11328 10.4023 9.03125ZM11.4414 5.26953C11.5586 5.1875 11.5547 5.08594 11.4961 4.99609C11.4141 4.875 10.8711 4.41406 10.8711 4.41406C10.8711 4.41406 11.0859 5.09375 11.1641 5.21484C11.2266 5.30469 11.3203 5.35156 11.4414 5.26953ZM13.3477 10.4961C13.3243 10.3867 13.3595 10.2891 13.504 10.2617C13.6446 10.2305 13.7149 10.3125 13.7345 10.418C13.7618 10.5586 13.7032 11.2695 13.7032 11.2695C13.7032 11.2695 13.3751 10.6367 13.3477 10.4961ZM10.2695 8.09372C10.2383 7.95309 10.1406 7.91794 10.0352 7.93747C9.89063 7.96872 9.25781 8.29294 9.25781 8.29294C9.25781 8.29294 9.96875 8.35544 10.1094 8.32809C10.2148 8.30466 10.2969 8.23434 10.2695 8.09372ZM12.5899 4.625C12.6095 4.73047 12.5743 4.83203 12.4337 4.85938C12.2931 4.88672 12.2227 4.80859 12.1993 4.70313C12.172 4.5625 12.2345 3.85156 12.2345 3.85156C12.2345 3.85156 12.5587 4.48438 12.5899 4.625ZM12.8829 11.7891C12.8596 11.8313 12.8401 11.8761 12.8206 11.9211C12.7877 11.9969 12.7547 12.073 12.7032 12.1368C12.481 11.9325 12.1634 11.9222 11.8742 11.9128L11.7969 11.9102C11.543 11.8946 11.2657 11.8711 11.0665 11.6875C10.9871 11.6231 10.9129 11.5507 10.8386 11.4782C10.719 11.3615 10.5992 11.2445 10.4571 11.1602C10.2422 11.1133 10.0391 11.0196 9.86333 10.8829C9.67563 10.7295 9.52859 10.5385 9.38128 10.3472C9.24349 10.1683 9.10544 9.98903 8.93364 9.83988C8.88237 9.79162 8.82177 9.74802 8.76266 9.70548C8.74522 9.69293 8.72789 9.68046 8.71099 9.66801C8.679 9.67642 8.66733 9.7095 8.65722 9.73818C8.64386 9.77604 8.63321 9.80622 8.58208 9.76176C8.5352 9.7266 8.41411 9.7227 8.40239 9.77348C8.51177 9.91801 8.62114 10.0782 8.63677 10.2618C8.60846 10.2647 8.57162 10.2632 8.53493 10.2616C8.47543 10.2591 8.41633 10.2566 8.39458 10.2735C8.49224 10.4219 8.61724 10.5508 8.76177 10.6563C8.73651 10.6605 8.7032 10.6622 8.6696 10.6639C8.60966 10.6669 8.54882 10.67 8.5313 10.6875C8.66411 10.8164 8.83208 10.9102 9.01177 10.9532C9.02665 10.9747 9.01913 11.0046 9.01144 11.0352C9.00096 11.0768 8.99015 11.1198 9.0352 11.1446L9.05415 11.1505C9.11203 11.1682 9.21921 11.201 9.12895 11.2461C9.05474 11.293 9.08208 11.4063 9.17583 11.4024C9.19573 11.4138 9.22597 11.4215 9.25677 11.4294C9.31061 11.4432 9.36617 11.4574 9.37114 11.4922C9.35854 11.5048 9.33921 11.5182 9.31934 11.5318C9.25916 11.5733 9.19413 11.6181 9.29692 11.6563C9.42583 11.7266 9.56645 11.7696 9.71099 11.7774C9.67465 11.8077 9.63309 11.8317 9.59118 11.8559C9.55198 11.8786 9.51247 11.9014 9.47661 11.9297C9.80864 12.125 10.1797 12.2539 10.5469 12.3789C10.6915 12.4258 10.8399 12.4688 10.9922 12.5C10.5508 12.4727 10.125 12.3438 9.72661 12.168C9.51969 12.0782 9.31244 11.9883 9.10161 11.9102C9.15362 11.8831 9.21217 11.8664 9.27121 11.8496C9.31415 11.8374 9.35737 11.8251 9.39849 11.8086C9.35703 11.8007 9.31493 11.7937 9.27271 11.7866C9.10803 11.7593 8.94153 11.7316 8.80474 11.6446C8.82053 11.6103 8.87182 11.5992 8.92152 11.5884C8.94556 11.5831 8.96923 11.578 8.98833 11.5704C9.0938 11.543 9.1602 11.5157 9.01177 11.5039C8.95641 11.4883 8.89847 11.481 8.84058 11.4736C8.73915 11.4607 8.63787 11.4479 8.55083 11.3907C8.5582 11.3563 8.61653 11.3512 8.67242 11.3464C8.70541 11.3436 8.73756 11.3408 8.75786 11.3321L8.76416 11.331C8.83281 11.3196 8.90804 11.3071 8.96489 11.2579C8.87835 11.2232 8.78222 11.2105 8.68613 11.1977C8.52201 11.1759 8.35804 11.1541 8.24224 11.0235C8.21377 10.9717 8.28131 10.9817 8.34378 10.9909C8.3756 10.9956 8.4061 11.0001 8.42192 10.9961C8.45945 10.9961 8.49803 10.9997 8.53693 11.0032C8.62757 11.0115 8.72004 11.0199 8.80474 10.9844C8.77096 10.9698 8.73699 10.9554 8.70295 10.9409C8.39058 10.8078 8.07199 10.672 7.83599 10.4219C7.83262 10.4161 7.82836 10.4092 7.82362 10.4016C7.78985 10.3468 7.73136 10.252 7.79302 10.2383C7.87875 10.2501 7.95507 10.2973 8.03133 10.3445C8.13228 10.4069 8.23312 10.4693 8.35552 10.4493C8.37329 10.4293 8.33042 10.4004 8.28295 10.3685C8.24696 10.3443 8.2083 10.3183 8.19145 10.293C7.86724 10.0313 7.58208 9.7227 7.3477 9.37504C7.33599 9.25395 7.51958 9.23832 7.57036 9.32816C7.62321 9.38015 7.6751 9.43386 7.72714 9.48773C7.90972 9.67672 8.09411 9.86759 8.32817 9.99223C8.39075 10.0213 8.36126 9.99663 8.32092 9.9629C8.29074 9.93768 8.2545 9.90738 8.24614 9.89066C7.96099 9.57035 7.71099 9.2227 7.50786 8.8477C7.4727 8.77738 7.41802 8.65629 7.52349 8.61723C7.62505 8.56645 7.73052 8.63676 7.7813 8.7266C7.84974 8.81347 7.91242 8.90566 7.97516 8.99794C8.09862 9.17954 8.22232 9.36149 8.39067 9.50395C8.17192 9.08598 7.94145 8.64066 7.93755 8.15629L7.93772 8.15216C7.9416 8.05847 7.94724 7.92197 8.07427 7.92582C8.15037 7.91495 8.16407 7.97784 8.1772 8.03816C8.18294 8.06453 8.18857 8.0904 8.19927 8.10941C8.22689 8.20354 8.2505 8.29928 8.27408 8.39494C8.34055 8.6645 8.40686 8.93345 8.56255 9.1641C8.55516 9.12284 8.54718 9.08138 8.53918 9.03976C8.49642 8.81739 8.45275 8.59036 8.49224 8.36332C8.50395 8.27348 8.60161 8.24613 8.66802 8.30082C8.69527 8.3679 8.71127 8.44512 8.7275 8.52339C8.7415 8.59097 8.75567 8.65935 8.77739 8.7227C9.05864 9.65629 9.64849 10.4649 10.4493 11.0157C11.1094 11.4649 11.875 11.7266 12.6719 11.7774L12.8829 11.7891ZM15.3399 13.4297C15.25 13.4842 15.1734 13.4323 15.0982 13.3813C15.0655 13.3592 15.0331 13.3373 15 13.3243C14.9573 13.3478 14.9356 13.4005 14.9132 13.455C14.8947 13.5001 14.8756 13.5463 14.8438 13.5782C14.7579 13.6758 14.6485 13.5469 14.6563 13.4532C14.6241 13.4804 14.5966 13.5191 14.5687 13.5583C14.5087 13.6427 14.4468 13.7296 14.3321 13.711C14.3139 13.6955 14.2965 13.6762 14.2799 13.6577C14.225 13.5968 14.1778 13.5443 14.1329 13.6641C14.0821 13.7422 13.9532 13.8477 13.8829 13.7344C13.8594 13.6329 13.8086 13.5157 13.754 13.6758C13.7149 13.7891 13.5938 13.8711 13.4766 13.8204C13.4456 13.7952 13.4579 13.7344 13.4686 13.6814C13.4794 13.6277 13.4886 13.582 13.4493 13.5899C13.4053 13.6187 13.3681 13.6621 13.3308 13.7055C13.2622 13.7855 13.1935 13.8656 13.0821 13.8555C13.0499 13.8195 13.059 13.7715 13.0685 13.7218C13.0786 13.6692 13.089 13.6146 13.0508 13.5704C13.0391 13.5858 13.0273 13.6021 13.0152 13.6187C12.9383 13.7245 12.8504 13.8454 12.7188 13.8555C12.6799 13.8231 12.6852 13.7571 12.6898 13.7007C12.6936 13.6552 12.6968 13.616 12.6758 13.6055C12.6442 13.6247 12.6119 13.6472 12.5787 13.6703C12.4562 13.7555 12.3225 13.8486 12.1719 13.8086C12.2461 13.5235 12.5586 13.4219 12.8204 13.4024C12.9918 13.3802 13.1666 13.3815 13.3412 13.3828C13.628 13.385 13.9141 13.3872 14.1836 13.2852C14.1958 13.2778 14.2108 13.2698 14.227 13.2612C14.3051 13.2196 14.4118 13.1629 14.3633 13.0821C14.3355 13.0423 14.3724 13.0309 14.4173 13.0169C14.4608 13.0034 14.5119 12.9875 14.5196 12.9414C14.5129 12.8451 14.5826 12.842 14.6637 12.8384C14.6779 12.8378 14.6925 12.8371 14.7071 12.836C14.9721 12.8219 15.2342 12.8501 15.4961 12.8782C15.6705 12.897 15.8448 12.9157 16.0196 12.9219C16.0508 13.1329 15.8165 13.2852 15.6211 13.2188C15.5809 13.2258 15.5319 13.1849 15.4927 13.1521C15.4444 13.1117 15.4107 13.0836 15.4258 13.1719C15.4207 13.1946 15.4177 13.2191 15.4147 13.2441C15.4062 13.3138 15.3974 13.3866 15.3399 13.4297ZM11.6055 12.9922C11.6777 13.0589 11.7342 13.0209 11.7959 12.9793C11.813 12.9677 11.8306 12.9559 11.849 12.946C11.841 12.9538 11.8359 12.9647 11.8359 12.9766C11.8359 13 11.8555 13.0195 11.8789 13.0195C11.9023 13.0195 11.9219 13 11.9219 12.9766C11.9219 12.9531 11.9023 12.9336 11.8789 12.9336L11.8746 12.9338C12.1871 12.8127 12.4805 12.6446 12.7422 12.4414C12.7818 12.4093 12.8201 12.3747 12.8583 12.34C12.9825 12.2278 13.1074 12.1149 13.2774 12.0821C13.5029 12.013 13.7368 11.9841 13.9704 11.9552C14.186 11.9285 14.4013 11.9019 14.6094 11.8438C14.8576 11.5091 15.2293 11.3321 15.5972 11.157C15.7273 11.095 15.857 11.0333 15.9805 10.9649C16.086 10.9336 16.129 10.8438 16.1602 10.75C16.3399 10.4649 16.586 10.211 16.879 10.0391C17.0157 9.95707 17.1797 9.92973 17.336 9.95707C17.3125 10.1407 17.2266 10.3086 17.0899 10.4336C17.1402 10.4318 17.1878 10.4157 17.2348 10.3998C17.2865 10.3824 17.3375 10.3652 17.3907 10.3672C17.4167 10.5092 17.3118 10.5996 17.2112 10.6862C17.1761 10.7164 17.1416 10.7461 17.1133 10.7774C17.1227 10.7793 17.1366 10.7813 17.1529 10.7838C17.2378 10.7965 17.3863 10.8187 17.2813 10.8711C17.2208 10.9115 17.1576 10.9476 17.0943 10.9837C16.986 11.0456 16.8774 11.1076 16.7813 11.1914C16.9219 11.2149 16.9375 11.2461 16.7969 11.2969C16.7745 11.3104 16.7465 11.3216 16.7177 11.3332C16.6463 11.3618 16.5698 11.3925 16.5586 11.4649C16.6641 11.5274 16.5118 11.5899 16.4532 11.6133C16.3438 11.6407 16.2227 11.6875 16.3711 11.7735C16.3165 11.8594 16.1954 11.875 16.0938 11.8672L16.0988 11.8827C16.1291 11.9762 16.1616 12.0765 16.0469 12.1172C15.7657 12.336 15.4336 12.4766 15.0821 12.5196C15.5196 12.5508 15.9766 12.4688 16.3516 12.2305C16.3692 12.2102 16.4123 12.1889 16.455 12.1678C16.5352 12.1281 16.6139 12.0892 16.5196 12.0586C16.5038 12.0525 16.484 12.0459 16.4627 12.0389C16.3896 12.0147 16.2991 11.9847 16.293 11.9454C16.4126 11.8717 16.5512 11.8564 16.6896 11.841C16.7862 11.8303 16.8828 11.8196 16.9727 11.7891C16.9782 11.7394 16.892 11.7346 16.8189 11.7305C16.7886 11.7288 16.7605 11.7273 16.7422 11.7227C16.5899 11.711 16.5977 11.668 16.7461 11.6563C16.7976 11.6423 16.8509 11.6313 16.9044 11.6203C17.0457 11.5911 17.1886 11.5616 17.3047 11.4766C17.2355 11.443 17.1561 11.4421 17.0763 11.4412C17.0075 11.4405 16.9383 11.4397 16.875 11.418C16.9659 11.3786 17.0627 11.3528 17.1591 11.327C17.3115 11.2862 17.4631 11.2457 17.5899 11.1524C17.6708 11.065 17.5344 11.0742 17.4497 11.0799C17.4323 11.081 17.417 11.0821 17.4063 11.0821C17.2774 11.1055 17.2188 11.043 17.3633 10.9922C17.4436 10.932 17.5308 10.879 17.6179 10.8261C17.8021 10.7141 17.9862 10.6022 18.1055 10.4219C18.1485 10.3594 18.2032 10.1797 18.0704 10.2422C18.013 10.2631 17.9579 10.2983 17.9023 10.3337C17.7912 10.4046 17.6784 10.4766 17.543 10.4375C17.9375 10.1329 18.3086 9.7891 18.5743 9.37113C18.5899 9.25004 18.3985 9.23441 18.3516 9.33207C18.2915 9.38941 18.2329 9.44915 18.1743 9.50898C17.9852 9.70184 17.7953 9.89548 17.5508 10.0118C17.8555 9.70707 18.1172 9.36723 18.336 8.99613C18.3484 8.96709 18.3667 8.93667 18.3854 8.90539C18.4373 8.81885 18.4931 8.7257 18.4415 8.63676C18.3282 8.54301 18.1875 8.62895 18.1329 8.73832C18.0676 8.82281 18.0082 8.9115 17.949 8.99985C17.8277 9.18098 17.7071 9.36092 17.5391 9.50004C17.754 9.08207 17.9844 8.63285 17.9883 8.15238C17.9883 8.05082 17.9688 7.90238 17.8321 7.92191C17.7601 7.93476 17.7474 8.00843 17.7348 8.08069C17.7283 8.11831 17.7218 8.15555 17.7071 8.18363C17.6826 8.267 17.6612 8.35185 17.6399 8.43675C17.5763 8.68999 17.5125 8.94371 17.3633 9.1602C17.3714 9.11364 17.3805 9.06674 17.3895 9.01961C17.433 8.794 17.4775 8.56272 17.4258 8.33988C17.3985 8.21879 17.2032 8.26957 17.2305 8.39066C16.9961 9.57816 16.1993 10.6133 15.1602 11.2149C14.6836 11.4844 14.1524 11.6563 13.6094 11.7344C13.5497 11.7473 13.4873 11.7522 13.4249 11.7571C13.3365 11.7641 13.2482 11.771 13.168 11.8008C13.0394 11.8969 12.9303 12.0188 12.8213 12.1406C12.6425 12.3405 12.4638 12.5401 12.1993 12.625C12.1379 12.6551 12.0705 12.6779 12.0027 12.7009C11.8593 12.7494 11.714 12.7987 11.6211 12.918C11.6094 12.9414 11.6055 12.9649 11.6055 12.9922ZM12.5352 12.8086C12.4727 12.8125 12.4102 12.8164 12.3477 12.836C12.3093 12.843 12.2716 12.8523 12.2344 12.8615C12.1885 12.8729 12.143 12.8842 12.0977 12.8907L12.0625 12.8985L12.0079 12.9024C12.0157 12.9336 12.0157 12.9649 12.0079 12.9961C12.0053 13 12.0027 13.0043 12.0001 13.0087C11.9949 13.0174 11.9896 13.0261 11.9844 13.0313C11.9727 13.0469 11.961 13.0586 11.9415 13.0625C11.9297 13.0704 11.9141 13.0743 11.8946 13.0782C11.879 13.0782 11.8633 13.0782 11.8477 13.0704C11.8321 13.0625 11.8165 13.0547 11.8008 13.043L11.754 13.0508H11.7071L11.6563 13.0352L11.6094 13.0118L11.6002 13.0169C11.5405 13.0504 11.4786 13.0851 11.4415 13.1446C11.4219 13.1719 11.4141 13.2071 11.4102 13.2383C11.4102 13.2813 11.418 13.3243 11.4375 13.3633C11.4411 13.3687 11.4439 13.3609 11.4477 13.3502C11.4522 13.3375 11.4582 13.3207 11.4688 13.3164C11.504 13.2891 11.5469 13.2696 11.5899 13.2579C11.625 13.2383 11.6211 13.2579 11.6055 13.2852L11.6031 13.2939C11.5971 13.3155 11.5859 13.355 11.6094 13.3282C11.7344 13.2813 11.8672 13.2579 12 13.2539C12.1915 13.2344 12.379 13.2305 12.5704 13.2266L13.1094 13.2383C13.1377 13.2396 13.1657 13.2423 13.1932 13.2451C13.2531 13.251 13.3111 13.2568 13.3672 13.2461C13.3719 13.2452 13.3775 13.2445 13.3835 13.2437C13.4023 13.2413 13.4247 13.2385 13.4336 13.2266C13.3963 13.208 13.3519 13.2035 13.314 13.1998L13.3086 13.1993H12.9649L12.9329 13.1968C12.846 13.1902 12.7598 13.1837 12.6797 13.1524C12.6719 13.1502 12.6648 13.1467 12.658 13.1433C12.6409 13.135 12.6262 13.1278 12.6094 13.1446C12.5743 13.1563 12.5391 13.1641 12.504 13.168C12.4415 13.1719 12.375 13.1602 12.3204 13.1368C12.3483 13.0948 12.3824 13.0568 12.4166 13.0185C12.4302 13.0034 12.4438 12.9882 12.4571 12.9727L12.3477 12.9493C12.3919 12.9207 12.4326 12.8886 12.4733 12.8566C12.4937 12.8405 12.5144 12.8243 12.5352 12.8086Z" fill="#FFEC2D"/>
</g>
</g>
<rect x="0.25" y="0.25" width="23.5" height="17.5" rx="1.75" stroke="#DDE0EA" stroke-width="0.5" style="fill-opacity:0"/>
<defs>
<clipPath id="clip0_1002_9">
<rect width="24" height="18" rx="2" fill="white"/>
</clipPath>
<clipPath id="clip1_1002_9">
<rect width="24" height="18" fill="white"/>
</clipPath>
</defs>
</svg>
