<svg width="24" height="18" viewBox="0 0 24 18" fill="none" xmlns="http://www.w3.org/2000/svg">
<g clip-path="url(#clip0_1257_40282)">
<path d="M24.0078 0H0.0078125V18H24.0078V0Z" fill="white"/>
<path d="M0.0078125 0H24.0078V5.39844H0.0078125V0Z" fill="black"/>
<path d="M0.0078125 12.6016H24.0078V18H0.0078125V12.6016Z" fill="#006600"/>
<path d="M8.78906 14.3438L8.99219 14.457L14.2461 5.34375C14.5508 5.27734 14.7188 4.98438 14.8867 4.69141C15 4.48828 15.4492 3.71094 15.6406 2.69922C15.1094 3.17578 14.6562 3.73438 14.3047 4.35547C14.1328 4.64453 13.9648 4.9375 14.043 5.24219L8.78906 14.3438Z" fill="black"/>
<path fill-rule="evenodd" clip-rule="evenodd" d="M15.7268 2.54636L15.6959 2.70968C15.5095 3.69475 15.0813 4.45921 14.9492 4.6949C14.9443 4.70359 14.9399 4.71157 14.9358 4.7188L14.934 4.72201C14.8511 4.86663 14.7649 5.01692 14.6604 5.1391C14.5597 5.25685 14.439 5.35218 14.2827 5.39282L9.01322 14.5332L8.71181 14.3651L13.9831 5.23344C13.9481 5.07467 13.9736 4.92084 14.0272 4.77372C14.083 4.62071 14.1706 4.471 14.256 4.32724C14.6106 3.70091 15.0675 3.13774 15.6031 2.65735L15.7268 2.54636ZM15.5503 2.85882C15.0785 3.30482 14.6736 3.81795 14.3536 4.38318L14.353 4.38422C14.2667 4.52937 14.1846 4.67049 14.1329 4.81222C14.0817 4.95301 14.0621 5.09035 14.0975 5.22822L14.1032 5.25044L8.86632 14.3224L8.97115 14.3809L14.2098 5.29409L14.2341 5.28879C14.3705 5.25906 14.4787 5.17843 14.5749 5.06598C14.6719 4.95264 14.7532 4.81115 14.8378 4.66371C14.8417 4.65666 14.846 4.64892 14.8507 4.64051C14.9739 4.42065 15.3535 3.74302 15.5503 2.85882Z" fill="black"/>
<path d="M8.78906 14.3438L8.99219 14.457L14.2461 5.34375C14.5508 5.27734 14.7188 4.98438 14.8867 4.69141C15 4.48828 15.4492 3.71094 15.6406 2.69922C15.1094 3.17578 14.6562 3.73438 14.3047 4.35547C14.1328 4.64453 13.9648 4.9375 14.043 5.24219L8.78906 14.3438Z" fill="white"/>
<path d="M15.2266 14.3438L15.0234 14.457L9.76953 5.34375C9.46484 5.27734 9.29688 4.98438 9.12891 4.69141C9.01562 4.48828 8.56641 3.71094 8.375 2.69922C8.90625 3.17578 9.35938 3.73438 9.71094 4.35547C9.88281 4.64453 10.0508 4.9375 9.97266 5.24219L15.2266 14.3438Z" fill="black"/>
<path fill-rule="evenodd" clip-rule="evenodd" d="M8.28883 2.54636L8.41256 2.65735C8.94808 3.13774 9.40499 3.70091 9.75959 4.32724C9.84507 4.47099 9.93267 4.62071 9.9884 4.77372C10.042 4.92084 10.0675 5.07467 10.0326 5.23344L15.3038 14.3651L15.0024 14.5332L9.73289 5.39282C9.57667 5.35218 9.45592 5.25685 9.3552 5.1391C9.25069 5.01692 9.16453 4.86663 9.08161 4.72201L9.08011 4.71938C9.07607 4.71215 9.07128 4.70359 9.06641 4.6949C8.93437 4.45921 8.50609 3.69475 8.31973 2.70968L8.28883 2.54636ZM8.4653 2.85882C8.66218 3.74302 9.04174 4.42065 9.16489 4.64051C9.16966 4.64904 9.17405 4.65687 9.17803 4.66401C9.26263 4.81155 9.34369 4.95257 9.44069 5.06598C9.53688 5.17843 9.64509 5.25906 9.78151 5.28879L9.80583 5.29409L15.0445 14.3809L15.1493 14.3224L9.91247 5.25044L9.91817 5.22822C9.95352 5.09035 9.93398 4.95301 9.88269 4.81222C9.83107 4.67049 9.74889 4.52937 9.66259 4.38422L9.66197 4.38318C9.34203 3.81795 8.93717 3.30482 8.4653 2.85882Z" fill="black"/>
<path d="M15.2266 14.3438L15.0234 14.457L9.76953 5.34375C9.46484 5.27734 9.29688 4.98438 9.12891 4.69141C9.01562 4.48828 8.56641 3.71094 8.375 2.69922C8.90625 3.17578 9.35938 3.73438 9.71094 4.35547C9.88281 4.64453 10.0508 4.9375 9.97266 5.24219L15.2266 14.3438Z" fill="white"/>
<path d="M24.0273 6.30078H14.1445C13.8086 5.39844 12.6836 3.60156 12.0078 3.60156C11.332 3.60156 10.207 5.39844 9.87109 6.30078H0V11.6992H9.87109C10.207 12.6016 11.332 14.3984 12.0078 14.3984C12.6836 14.3984 13.8086 12.6016 14.1445 11.6992H24.0273V6.30078Z" fill="#BB0000"/>
<path d="M14.1445 11.6992C14.4844 10.8008 14.707 9.89844 14.707 9C14.707 8.10156 14.4844 7.19922 14.1445 6.30078C13.8086 7.19922 13.582 8.10156 13.582 9C13.582 9.89844 13.8086 10.8008 14.1445 11.6992Z" fill="black"/>
<path d="M9.87109 11.6992C9.53125 10.8008 9.30859 9.89844 9.30859 9C9.30859 8.10156 9.53125 7.19922 9.87109 6.30078C10.207 7.19922 10.4336 8.10156 10.4336 9C10.4336 9.89844 10.207 10.8008 9.87109 11.6992Z" fill="black"/>
<path d="M12.0078 9.67578C12.2578 9.67578 12.457 9.37109 12.457 9C12.457 8.62891 12.2578 8.32422 12.0078 8.32422C11.7578 8.32422 11.5586 8.62891 11.5586 9C11.5586 9.37109 11.7578 9.67578 12.0078 9.67578Z" fill="white"/>
<path d="M12.1211 9.65234C12.1211 9.65234 12.5703 10.5508 12.5703 12.0156C12.5703 13.4766 12.1211 14.3789 12.1211 14.3789V9.65234Z" fill="white"/>
<path d="M11.8945 8.34766C11.8945 8.34766 11.4453 7.44922 11.4453 5.98438C11.4453 4.52344 11.8945 3.62109 11.8945 3.62109V8.34766Z" fill="white"/>
<path d="M11.8945 9.65234C11.8945 9.65234 11.4453 10.5508 11.4453 12.0156C11.4453 13.4766 11.8945 14.3789 11.8945 14.3789V9.65234Z" fill="white"/>
<path d="M12.1211 8.34766C12.1211 8.34766 12.5703 7.44922 12.5703 5.98438C12.5703 4.52344 12.1211 3.62109 12.1211 3.62109V8.34766Z" fill="white"/>
</g>
<rect x="0.25" y="0.25" width="23.5" height="17.5" rx="1.75" stroke="#DDE0EA" stroke-width="0.5"  style="fill-opacity:0"/>
<defs>
<clipPath id="clip0_1257_40282">
<rect width="24" height="18" rx="2" fill="white"/>
</clipPath>
</defs>
</svg>
