<svg width="24" height="18" viewBox="0 0 24 18" fill="none" xmlns="http://www.w3.org/2000/svg">
<g clip-path="url(#clip0_1257_40601)">
<path fill-rule="evenodd" clip-rule="evenodd" d="M0.0039053 0H24.0039V10.7773H0.0039053V0Z" fill="#E73E2D"/>
<path fill-rule="evenodd" clip-rule="evenodd" d="M10.2227 9.91797C9.54297 9.38281 8.26953 9.56641 8.05859 8.11328C9.03125 8.87109 8.85547 8.07031 10.3086 8.79297L10.2227 9.91797Z" fill="#FEC74A"/>
<path fill-rule="evenodd" clip-rule="evenodd" d="M8.01835 8.04404L8.07696 8.08971C8.31872 8.27806 8.48673 8.36765 8.62471 8.40893C8.76217 8.45006 8.87203 8.44405 9.00168 8.43648L9.00368 8.43636C9.13327 8.42879 9.28053 8.42019 9.48632 8.4591C9.6928 8.49814 9.95692 8.5847 10.3219 8.76621L10.3399 8.77518L10.2482 9.9761L10.2042 9.94145C10.0382 9.81073 9.8349 9.72318 9.61707 9.64259C9.56041 9.62163 9.50268 9.60111 9.44443 9.58041C9.28017 9.52204 9.11185 9.46223 8.9521 9.38689C8.73484 9.28444 8.53042 9.15205 8.36699 8.95195C8.20341 8.75165 8.08241 8.4854 8.02902 8.11757L8.01835 8.04404ZM8.10001 8.18257C8.15679 8.50309 8.2684 8.73674 8.41328 8.91414C8.56919 9.10503 8.76516 9.23265 8.97759 9.33284C9.13443 9.4068 9.29859 9.46514 9.46201 9.52321C9.52083 9.54412 9.57956 9.56499 9.63781 9.58654C9.83832 9.66072 10.0322 9.74269 10.197 9.86129L10.2773 8.8108C9.92508 8.6371 9.67154 8.55494 9.47522 8.51783C9.27667 8.48029 9.13538 8.48854 9.00656 8.49606L9.00516 8.49614C8.87553 8.50371 8.75614 8.51064 8.60758 8.46619C8.47191 8.4256 8.31377 8.34282 8.10001 8.18257Z" fill="#D8AA3F"/>
<path fill-rule="evenodd" clip-rule="evenodd" d="M10.4062 9.26172C9.91797 8.54297 8.64844 8.32422 8.89453 6.87891C9.59375 7.89453 9.66797 7.08203 10.8359 8.21094L10.4062 9.26172Z" fill="#FEC74A"/>
<path fill-rule="evenodd" clip-rule="evenodd" d="M8.87742 6.80136L8.91914 6.86196C9.09294 7.1144 9.22622 7.25071 9.34546 7.33207C9.46424 7.41311 9.57093 7.44103 9.69691 7.4735L9.69891 7.47402C9.82482 7.50647 9.96787 7.54334 10.1524 7.64308C10.3376 7.74317 10.5634 7.90591 10.8567 8.18945L10.8713 8.20352L10.4128 9.32458L10.3815 9.27851C10.2622 9.10289 10.0945 8.95683 9.911 8.81294C9.8638 8.77593 9.81548 8.73901 9.76675 8.70177C9.62724 8.59516 9.48435 8.48598 9.35459 8.3646C9.17881 8.20018 9.02464 8.01132 8.93043 7.77079C8.83612 7.53002 8.80278 7.23976 8.86507 6.87389L8.87742 6.80136ZM8.91272 6.95685C8.86808 7.27908 8.90251 7.53563 8.98608 7.74899C9.07594 7.97843 9.22353 8.16017 9.39541 8.32095C9.52282 8.44012 9.66221 8.54664 9.80103 8.65273C9.85024 8.69033 9.89938 8.72788 9.94788 8.76591C10.1169 8.89846 10.2774 9.03636 10.3991 9.20017L10.8006 8.21839C10.5171 7.94619 10.3001 7.79085 10.124 7.69566C9.94589 7.5994 9.80858 7.56401 9.68341 7.53174L9.68199 7.53138C9.55603 7.49891 9.44006 7.46897 9.31177 7.38143C9.19449 7.30141 9.06849 7.17446 8.91272 6.95685Z" fill="#D8AA3F"/>
<path fill-rule="evenodd" clip-rule="evenodd" d="M10.6289 8.78906C10.4531 7.94141 9.36328 7.25781 10.1445 6.01172C10.3945 7.22266 10.7773 6.49609 11.4219 7.98828L10.6289 8.78906Z" fill="#FEC74A"/>
<path fill-rule="evenodd" clip-rule="evenodd" d="M10.1587 5.93279L10.1738 6.00568C10.2359 6.30668 10.3058 6.48427 10.384 6.60536C10.462 6.72596 10.5495 6.79255 10.6532 6.87066L10.6559 6.87266C10.7593 6.95054 10.877 7.03914 11.0087 7.20138C11.1413 7.36471 11.2874 7.60164 11.4493 7.97643L11.4573 7.99496L10.611 8.84966L10.5996 8.79513C10.5567 8.58806 10.4577 8.38981 10.3432 8.18744C10.3139 8.13568 10.2836 8.08359 10.253 8.03104C10.1647 7.8794 10.0742 7.724 10.0006 7.56218C9.90113 7.34343 9.83097 7.11011 9.83603 6.85159C9.84109 6.59283 9.92147 6.31125 10.1192 5.99585L10.1587 5.93279ZM10.6459 8.72948L11.3864 7.98162C11.2293 7.62109 11.0884 7.39436 10.9623 7.23905C10.8352 7.0825 10.7223 6.99748 10.6195 6.92005L10.6173 6.9184C10.5135 6.84026 10.4181 6.76818 10.3339 6.6378C10.2569 6.51874 10.1902 6.35279 10.1312 6.09145C9.96666 6.37295 9.90027 6.62358 9.89578 6.85276C9.89095 7.09936 9.95776 7.32357 10.055 7.53743C10.1273 7.69628 10.2155 7.84788 10.3034 7.99878C10.3343 8.05185 10.3651 8.10483 10.3952 8.15802C10.5006 8.34437 10.5961 8.53235 10.6459 8.72948Z" fill="#D8AA3F"/>
<path fill-rule="evenodd" clip-rule="evenodd" d="M11.1367 8.35156C11.2344 7.49219 10.4062 6.50391 11.5273 5.5625C11.4023 6.78906 11.9844 6.21875 12.1445 7.83203L11.1367 8.35156Z" fill="#FEC74A"/>
<path fill-rule="evenodd" clip-rule="evenodd" d="M11.5645 5.49224L11.5571 5.56553C11.526 5.8704 11.5392 6.0606 11.5773 6.19981C11.6153 6.33848 11.6785 6.42882 11.7534 6.53502L11.755 6.53724C11.8298 6.64324 11.9148 6.76367 11.9908 6.95844C12.0672 7.15422 12.134 7.42388 12.1743 7.82908L12.1763 7.84929L11.1007 8.40374L11.107 8.34819C11.1309 8.1383 11.0983 7.9193 11.052 7.69156C11.0399 7.63172 11.0267 7.57117 11.0135 7.51009C10.9766 7.3402 10.9388 7.16612 10.9186 6.99123C10.8909 6.75252 10.8953 6.50903 10.9788 6.26493C11.0624 6.02059 11.2243 5.77794 11.5081 5.53962L11.5645 5.49224ZM11.1714 8.30005L12.1128 7.81479C12.0727 7.42466 12.0077 7.16632 11.9351 6.98016C11.8618 6.79219 11.7802 6.6766 11.7058 6.57121L11.7046 6.56948C11.6296 6.46327 11.5607 6.36538 11.5197 6.21559C11.4822 6.07869 11.4685 5.90037 11.4907 5.63377C11.2487 5.85021 11.1094 6.06781 11.0354 6.28427C10.9557 6.5171 10.9509 6.7509 10.9779 6.98435C10.9978 7.15608 11.0347 7.32585 11.0713 7.49485C11.0847 7.55654 11.0981 7.61812 11.1106 7.67966C11.1532 7.88935 11.1856 8.09746 11.1714 8.30005Z" fill="#D8AA3F"/>
<path fill-rule="evenodd" clip-rule="evenodd" d="M11.5938 8.00391C12.0312 7.25781 11.6836 6.01953 13.0938 5.61719C12.4727 6.68359 13.2422 6.40234 12.7227 7.9375L11.5938 8.00391Z" fill="#FEC74A"/>
<path fill-rule="evenodd" clip-rule="evenodd" d="M13.1569 5.56809L13.1196 5.63223C12.9652 5.89729 12.8988 6.07599 12.8763 6.21841C12.8539 6.36026 12.8745 6.4684 12.8994 6.59583L12.9 6.59844C12.9248 6.72566 12.9531 6.87021 12.9423 7.07881C12.9315 7.28845 12.8815 7.56149 12.751 7.94708L12.7445 7.96615L11.5397 8.03702L11.568 7.98879C11.6749 7.80653 11.7344 7.59312 11.7852 7.36626C11.7983 7.30806 11.8108 7.24888 11.8234 7.18919C11.8596 7.01767 11.8967 6.84188 11.9505 6.67259C12.0234 6.44349 12.1276 6.22317 12.3042 6.03451C12.4809 5.84567 12.7286 5.6903 13.0856 5.58845L13.1569 5.56809ZM11.6464 7.97088L12.7008 7.90885C12.8252 7.537 12.8724 7.27505 12.8826 7.07573C12.893 6.87447 12.8659 6.73579 12.8412 6.6093L12.8408 6.60729C12.8159 6.47984 12.7931 6.36239 12.8173 6.20908C12.8394 6.06905 12.9004 5.90104 13.0307 5.66745C12.721 5.76637 12.5044 5.90809 12.3478 6.07535C12.1793 6.25534 12.0787 6.46667 12.0075 6.69069C11.9546 6.8569 11.9184 7.02839 11.8824 7.19907C11.8697 7.25935 11.857 7.31953 11.8436 7.37934C11.7967 7.58816 11.7415 7.79146 11.6464 7.97088Z" fill="#D8AA3F"/>
<path fill-rule="evenodd" clip-rule="evenodd" d="M12.2539 8.09766C12.9062 7.52734 12.9688 6.23828 14.4336 6.30859C13.5078 7.12109 14.3281 7.09766 13.3438 8.39453L12.2539 8.09766Z" fill="#FEC74A"/>
<path fill-rule="evenodd" clip-rule="evenodd" d="M12.3142 8.0831L13.3321 8.36039C13.5693 8.04578 13.6979 7.81127 13.7713 7.62479C13.8457 7.4359 13.8642 7.2951 13.8809 7.16686L13.8811 7.16577C13.8979 7.03701 13.9134 6.91853 13.9846 6.78116C14.0498 6.65555 14.1606 6.51587 14.3581 6.33603C14.0329 6.33058 13.7825 6.39577 13.581 6.50457C13.3642 6.62161 13.2018 6.79026 13.0632 6.98048C12.9604 7.12157 12.8717 7.27304 12.7834 7.42382C12.7522 7.47715 12.721 7.53039 12.6893 7.58305C12.5786 7.76683 12.4615 7.9427 12.3142 8.0831ZM13.5526 6.45198C13.7801 6.32915 14.0642 6.26095 14.435 6.27875L14.5089 6.28229L14.4533 6.33105C14.2232 6.533 14.1039 6.68102 14.0377 6.80869C13.9717 6.93586 13.9571 7.04485 13.9403 7.17379L13.9401 7.1752C13.9232 7.30422 13.9041 7.45095 13.8269 7.6467C13.7497 7.84279 13.6148 8.08687 13.3676 8.4126L13.3554 8.42867L12.1923 8.11184L12.2342 8.07516C12.3936 7.93583 12.5178 7.75177 12.6381 7.5522C12.669 7.50095 12.6996 7.4486 12.7306 7.3958C12.8193 7.24427 12.9102 7.089 13.0149 6.9453C13.1566 6.75076 13.3253 6.57468 13.5526 6.45198Z" fill="#D8AA3F"/>
<path fill-rule="evenodd" clip-rule="evenodd" d="M12.8359 8.43359C13.625 8.07812 14.0625 6.87109 15.4414 7.36328C14.3164 7.87109 15.1055 8.08984 13.7891 9.03906L12.8359 8.43359Z" fill="#FEC74A"/>
<path fill-rule="evenodd" clip-rule="evenodd" d="M12.8975 8.43733L13.788 9.00297C14.1057 8.77226 14.2966 8.58612 14.421 8.42959C14.5467 8.27142 14.6055 8.14249 14.6591 8.02492L14.6598 8.02325C14.7138 7.90484 14.7636 7.79582 14.8724 7.68494C14.9719 7.58363 15.1192 7.48213 15.361 7.36753C15.052 7.268 14.7938 7.25727 14.5694 7.30219C14.328 7.35052 14.1234 7.46376 13.9354 7.60449C13.7953 7.70931 13.6658 7.82826 13.5368 7.94668C13.4919 7.98787 13.4471 8.02899 13.402 8.06944C13.2424 8.21237 13.0792 8.34606 12.8975 8.43733ZM14.5577 7.24359C14.811 7.19287 15.1024 7.21055 15.4515 7.33514L15.5212 7.36004L15.4537 7.39052C15.1741 7.51674 15.0162 7.62379 14.9151 7.72681C14.8143 7.82943 14.7682 7.92963 14.7142 8.04804L14.7132 8.05025C14.6593 8.16851 14.5981 8.30286 14.4678 8.46678C14.3369 8.63142 14.1372 8.82489 13.8065 9.0633L13.7901 9.07514L12.7731 8.42911L12.8237 8.40635C13.0165 8.31949 13.1889 8.18009 13.3621 8.02492C13.406 7.98555 13.4501 7.94511 13.4945 7.90432C13.6241 7.78534 13.7569 7.66342 13.8996 7.55664C14.0919 7.41271 14.3046 7.29425 14.5577 7.24359Z" fill="#D8AA3F"/>
<path fill-rule="evenodd" clip-rule="evenodd" d="M13.3242 8.96484C14.1836 8.84375 14.9414 7.80469 16.125 8.66797C14.9062 8.83984 15.5977 9.26953 14.0703 9.8125L13.3242 8.96094V8.96484Z" fill="#FEC74A"/>
<path fill-rule="evenodd" clip-rule="evenodd" d="M13.3154 8.99626L14.0612 9.84745L14.0803 9.84066C14.4639 9.70428 14.7097 9.5745 14.8816 9.45318C15.0525 9.33247 15.1492 9.22086 15.2342 9.12264L15.236 9.12064C15.3212 9.02225 15.3938 8.93916 15.5192 8.86904C15.645 8.79865 15.8263 8.74028 16.1292 8.69756L16.2022 8.68726L16.1426 8.64383C15.843 8.4253 15.5686 8.326 15.3115 8.30336C15.0547 8.28074 14.8174 8.33485 14.5925 8.41929C14.4257 8.48191 14.2641 8.56192 14.1062 8.64004C14.0521 8.66685 13.9983 8.69344 13.945 8.71903C13.7413 8.81676 13.5424 8.90049 13.339 8.93243L13.2943 8.88148V8.99923L13.3154 8.99626ZM13.9709 8.77291C13.7783 8.86532 13.5847 8.94794 13.3851 8.98513L14.0794 9.77752C14.4484 9.64494 14.6837 9.51972 14.8471 9.40436C15.0121 9.28785 15.1049 9.18071 15.1895 9.08305L15.1908 9.08151C15.276 8.98312 15.3545 8.89262 15.49 8.81687C15.6138 8.74765 15.7833 8.69162 16.047 8.64947C15.7787 8.46624 15.534 8.38295 15.3063 8.3629C15.0613 8.34133 14.8334 8.39269 14.6135 8.47524C14.4498 8.53671 14.2921 8.61477 14.135 8.69251C14.0803 8.71959 14.0257 8.74663 13.9709 8.77291Z" fill="#D8AA3F"/>
<path fill-rule="evenodd" clip-rule="evenodd" d="M16.3828 9.125L12.4414 9.21484L12.6094 10.2773L16.3828 9.125Z" fill="#FEC74A"/>
<path fill-rule="evenodd" clip-rule="evenodd" d="M16.3821 9.09513L16.3915 9.15358L12.5852 10.316L12.4066 9.18575L16.3821 9.09513ZM12.4763 9.24394L12.6335 10.2387L16.1665 9.15982L12.4763 9.24394Z" fill="#D8AA3F"/>
<path fill-rule="evenodd" clip-rule="evenodd" d="M15.8047 7.67969L12.1523 9.08203L12.7617 10.25L15.8047 7.67969Z" fill="#FEC74A"/>
<path fill-rule="evenodd" clip-rule="evenodd" d="M15.794 7.65179L15.824 7.70252L12.7525 10.2969L12.1103 9.06614L15.794 7.65179ZM12.1943 9.09792L12.7709 10.2031L15.6503 7.77097L12.1943 9.09792Z" fill="#D8AA3F"/>
<path fill-rule="evenodd" clip-rule="evenodd" d="M12.9062 9.86719L14.793 6.4375L11.8984 9.13281L12.9062 9.86719Z" fill="#FEC74A"/>
<path fill-rule="evenodd" clip-rule="evenodd" d="M14.7726 6.41563L14.8192 6.4519L12.9161 9.91132L11.8516 9.13563L14.7726 6.41563ZM11.9453 9.13L12.8964 9.82305L14.677 6.58633L11.9453 9.13Z" fill="#D8AA3F"/>
<path fill-rule="evenodd" clip-rule="evenodd" d="M12.8672 9.58203L13.4727 5.73828L11.582 9.15625L12.8672 9.58203Z" fill="#FEC74A"/>
<path fill-rule="evenodd" clip-rule="evenodd" d="M13.4465 5.72382L13.5022 5.74293L12.8912 9.62148L11.5385 9.17329L13.4465 5.72382ZM11.6256 9.13921L12.8431 9.54259L13.4168 5.90107L11.6256 9.13921Z" fill="#D8AA3F"/>
<path fill-rule="evenodd" clip-rule="evenodd" d="M12.6406 9.26953L12.0078 5.39453L11.3047 9.28906L12.6406 9.26953Z" fill="#FEC74A"/>
<path fill-rule="evenodd" clip-rule="evenodd" d="M11.9784 5.38922L12.0373 5.38972L12.6757 9.2989L11.2688 9.31947L11.9784 5.38922ZM11.3405 9.25865L12.6055 9.24016L12.0063 5.5709L11.3405 9.25865Z" fill="#D8AA3F"/>
<path fill-rule="evenodd" clip-rule="evenodd" d="M12.3125 8.94141L10.4727 5.70703L11.1758 9.63672L12.3125 8.94141Z" fill="#FEC74A"/>
<path fill-rule="evenodd" clip-rule="evenodd" d="M10.4432 5.71229L10.4986 5.69226L12.3528 8.95179L11.1541 9.68503L10.4432 5.71229ZM10.5327 5.87306L11.1975 9.58841L12.2722 8.93102L10.5327 5.87306Z" fill="#D8AA3F"/>
<path fill-rule="evenodd" clip-rule="evenodd" d="M12.0273 8.91406L9.17578 6.50781L11.2031 9.95312L12.0273 8.91406Z" fill="#FEC74A"/>
<path fill-rule="evenodd" clip-rule="evenodd" d="M9.15003 6.52297L9.19505 6.48497L12.0688 8.90992L11.1995 10.0058L9.15003 6.52297ZM9.29035 6.64359L11.2068 9.90042L11.9859 8.9182L9.29035 6.64359Z" fill="#D8AA3F"/>
<path fill-rule="evenodd" clip-rule="evenodd" d="M8.17578 7.69531L11.2344 10.2227L11.7031 8.90234L8.17578 7.69531Z" fill="#FEC74A"/>
<path fill-rule="evenodd" clip-rule="evenodd" d="M8.15675 7.71835L8.18546 7.66704L11.7414 8.88386L11.2483 10.2729L8.15675 7.71835ZM8.3211 7.77662L11.2205 10.1724L11.6649 8.92083L8.3211 7.77662Z" fill="#D8AA3F"/>
<path fill-rule="evenodd" clip-rule="evenodd" d="M11.2031 9.17188L7.60547 9.12109L11.1875 10.3164L11.2031 9.17188Z" fill="#FEC74A"/>
<path fill-rule="evenodd" clip-rule="evenodd" d="M7.59601 9.14944L7.60589 9.09121L11.2334 9.14242L11.2168 10.3577L7.59601 9.14944ZM7.79756 9.15369L11.1582 10.2751L11.1728 9.20133L7.79756 9.15369Z" fill="#D8AA3F"/>
<path fill-rule="evenodd" clip-rule="evenodd" d="M14.1172 9.81641C14.1328 10.1055 14.082 10.3945 13.9805 10.668C13.8789 10.9414 13.7187 11.1875 13.5195 11.3984C13.3164 11.6094 13.0742 11.7734 12.8086 11.8867C12.5391 12.0039 12.2539 12.0625 11.9609 12.0625C11.6719 12.0625 11.3828 12.0039 11.1172 11.8867C10.8477 11.7734 10.6055 11.6094 10.4062 11.3984C10.2031 11.1875 10.0469 10.9414 9.94531 10.668C9.83984 10.3945 9.79297 10.1055 9.80469 9.81641C9.82812 9.25781 10.0664 8.73047 10.4688 8.34766C10.8672 7.96094 11.4062 7.74219 11.9609 7.74219C12.5195 7.74219 13.0547 7.96094 13.457 8.34766C13.8594 8.73047 14.0977 9.25781 14.1172 9.81641Z" fill="#FEC74A"/>
<path fill-rule="evenodd" clip-rule="evenodd" d="M11.9609 7.77207C11.414 7.77207 10.8824 7.98779 10.4896 8.3691C10.0929 8.74653 9.85766 9.26674 9.83454 9.81766C9.82299 10.1027 9.86921 10.3876 9.97319 10.6572C10.0733 10.9267 10.2274 11.1697 10.4278 11.3777C10.624 11.5855 10.8629 11.7474 11.1288 11.8592C11.3905 11.9746 11.6759 12.0326 11.9609 12.0326C12.2498 12.0326 12.5309 11.9748 12.7967 11.8593C13.0587 11.7476 13.2977 11.5857 13.4979 11.3778C13.6946 11.1695 13.8524 10.9268 13.9525 10.6576C14.0528 10.3875 14.1027 10.1025 14.0873 9.81802C14.0681 9.26726 13.8331 8.74674 13.4364 8.36931C13.0396 7.98786 12.5117 7.77207 11.9609 7.77207ZM10.448 8.32611C10.852 7.93405 11.3985 7.7123 11.9609 7.7123C12.5273 7.7123 13.0699 7.9341 13.4777 8.32605C13.8856 8.71418 14.1272 9.24878 14.147 9.81508C14.1629 10.1086 14.1113 10.4017 14.0085 10.6784C13.9054 10.9559 13.7429 11.2054 13.5413 11.419C13.3353 11.6329 13.0896 11.7994 12.8204 11.9142C12.5471 12.033 12.2579 12.0924 11.9609 12.0924C11.668 12.0924 11.3748 12.033 11.1053 11.9142C10.8323 11.7994 10.5868 11.6331 10.3846 11.4191C10.1788 11.2053 10.0204 10.9558 9.91736 10.6785C9.81046 10.4013 9.76295 10.1082 9.77483 9.8152C9.79859 9.24898 10.0401 8.7143 10.448 8.32611Z" fill="#D8AA3F"/>
<path fill-rule="evenodd" clip-rule="evenodd" d="M0.00390601 10.668H24.0039V18H0L0.00390601 10.668Z" fill="#005989"/>
<path d="M2.26953 13.3672C3.69922 13.4023 3.4375 14.4102 5.36719 14.4023C6.96484 14.4023 7.47656 13.1875 8.85547 13.332C9.875 13.2773 10.2891 14.4805 11.8555 14.4961C13.4805 14.5312 14.0742 13.1875 15.0898 13.3008C16.1797 13.3008 16.5312 14.3828 18.0547 14.3906C19.9922 14.3984 20.3359 13.2656 21.543 13.3359C22.3263 13.3183 22.9566 14.0114 24.0039 14.16V12.8181C22.9583 12.6912 22.246 11.9935 21.457 12.0039C20.3867 12.0117 19.9609 13.1016 18.1523 13.1016C16.4922 13.1016 16.1133 12.0039 15.043 12.0039C14 12.0078 13.6797 13.1992 11.8672 13.1758C10.3906 13.1602 9.82031 12.043 8.77344 12.0508C7.66797 12.0508 6.52344 13.1328 5.29687 13.082C3.60937 13.0117 3.23828 12.0469 2.13281 12.0469C1.47149 12.0469 0.767825 12.6248 0.00390506 12.8636V14.2127C0.855805 13.9854 1.07989 13.3314 2.26953 13.3672Z" fill="#D9A43E"/>
<path d="M2.26953 15.9336C3.69922 15.9688 3.4375 16.9727 5.36719 16.9688C6.96484 16.9648 7.47656 15.75 8.85547 15.8945C9.875 15.8398 10.2891 17.043 11.8555 17.0625C13.4805 17.0977 14.0742 15.75 15.0898 15.8633C16.1797 15.8633 16.5312 16.9453 18.0547 16.9531C19.9922 16.9648 20.3359 15.8281 21.543 15.8984C22.3263 15.8808 22.9566 16.5739 24.0039 16.7254V15.3816C22.9583 15.2567 22.246 14.556 21.457 14.5664C20.3867 14.5742 19.9609 15.6641 18.1523 15.6641C16.4922 15.6641 16.1133 14.5664 15.043 14.5664C14 14.5742 13.6797 15.7617 11.8672 15.7383C10.3906 15.7227 9.82031 14.6055 8.77344 14.6133C7.66797 14.6133 6.52344 15.6992 5.29687 15.6484C3.60937 15.5781 3.23828 14.6133 2.13281 14.6133C1.47149 14.6133 0.767825 15.1887 0.00390506 15.4265V16.7752C0.855805 16.548 1.07989 15.8946 2.26953 15.9336Z" fill="#D9A43E"/>
<path d="M2.26562 10.832C3.6914 10.8672 3.42969 11.8711 5.36328 11.8672C6.95312 11.8633 7.47266 10.6484 8.84375 10.7969C9.86328 10.7422 10.2773 11.9453 11.8398 11.9609C13.4609 11.9961 14.0547 10.6484 15.0742 10.7617C16.1562 10.7617 16.5156 11.8437 18.0352 11.8516C19.9687 11.8633 20.3086 10.7266 21.5234 10.7969C22.3062 10.7791 22.9431 11.484 24.0039 11.6275V10.2832C22.9466 10.1677 22.2287 9.45786 21.4297 9.46484C20.3672 9.47266 19.9414 10.5664 18.125 10.5664C16.4766 10.5664 16.0938 9.46484 15.0273 9.46484C13.9805 9.47266 13.6641 10.6602 11.8594 10.6367C10.3828 10.6211 9.80859 9.50781 8.76562 9.51172C7.65625 9.51172 6.51562 10.5977 5.29297 10.5469C3.60156 10.4766 3.23437 9.51172 2.12891 9.51172C1.46771 9.51172 0.766662 10.087 0.00390506 10.3248V11.674C0.852587 11.4471 1.0778 10.7931 2.26562 10.832Z" fill="white"/>
<path fill-rule="evenodd" clip-rule="evenodd" d="M7.85156 2.67188C9.99609 2.52344 9.60938 2.33984 10.4688 2.19922C11.5586 2.35156 11.6836 3.00781 12.2891 3.41406C12.2891 3.41406 12.0625 4.1875 11.3164 4.07812C11.2148 3.76953 11.6758 3.67188 10.3516 2.86328C9.57812 2.81641 8.19531 3 7.85547 2.67188H7.85156ZM14.5078 3.86328L12.9609 3.92578V4.30859C14.0039 4.34375 14.1875 4.20312 14.5078 3.86328Z" fill="#FFC84B"/>
<path fill-rule="evenodd" clip-rule="evenodd" d="M10.4733 2.16641L10.4731 2.16788C11.0255 2.2451 11.3352 2.45077 11.5825 2.68862C11.6648 2.76783 11.7409 2.85128 11.8161 2.93382C11.8526 2.97382 11.8888 3.0136 11.9255 3.0526C12.0387 3.17292 12.1582 3.28815 12.3067 3.38779L12.3259 3.40071L12.3194 3.42296L12.3186 3.42562L12.3164 3.43255C12.3145 3.43851 12.3115 3.44711 12.3076 3.45795C12.2997 3.4796 12.2876 3.51022 12.2707 3.54654C12.237 3.61905 12.184 3.71485 12.1068 3.80738C11.9518 3.99316 11.6985 4.16611 11.3118 4.10943L11.2925 4.10659L11.2864 4.08802C11.2598 4.00729 11.2685 3.9392 11.2764 3.87742C11.2768 3.87422 11.2772 3.87103 11.2776 3.86786C11.2858 3.80355 11.2915 3.74383 11.2629 3.66954C11.234 3.59424 11.1685 3.50061 11.0257 3.37455C10.8841 3.24947 10.6684 3.09413 10.3418 2.8944C10.1067 2.88069 9.81757 2.88791 9.51764 2.89539C9.32604 2.90018 9.13002 2.90507 8.94085 2.90469C8.69798 2.9042 8.46715 2.89492 8.2752 2.86488C8.0848 2.83508 7.92599 2.78395 7.83349 2.69464L7.85064 2.67687L7.84938 2.64031C8.92103 2.56613 9.35772 2.4833 9.63316 2.40226C9.71866 2.37711 9.78969 2.35167 9.8602 2.32641C10.0149 2.27102 10.167 2.21653 10.4636 2.16799L10.4733 2.16641ZM7.94175 2.69723C8.02333 2.74562 8.14029 2.77971 8.28498 2.80236C8.47205 2.83164 8.699 2.84092 8.94098 2.84141C9.12593 2.84178 9.32014 2.83696 9.51118 2.83222C9.81712 2.82463 10.1149 2.81724 10.3535 2.8317L10.3613 2.83217L10.3681 2.83628C10.6998 3.03886 10.9211 3.19768 11.0676 3.32711C11.2141 3.45642 11.2879 3.5581 11.322 3.64686C11.3565 3.73664 11.3488 3.80973 11.3404 3.87579C11.3401 3.87819 11.3398 3.88058 11.3395 3.88296C11.3322 3.94005 11.3258 3.99083 11.341 4.04955C11.6891 4.09357 11.9161 3.93719 12.0582 3.76684C12.1309 3.67968 12.1812 3.58895 12.2133 3.51987C12.2293 3.48538 12.2408 3.45643 12.2482 3.43622C12.2494 3.43282 12.2505 3.42967 12.2515 3.42678C12.1065 3.32651 11.989 3.21242 11.8794 3.09596C11.8412 3.05539 11.8042 3.01479 11.7675 2.97441C11.6931 2.89278 11.6195 2.81204 11.5386 2.73423C11.3003 2.50499 11.0036 2.30685 10.4691 2.23122C10.1813 2.27863 10.0378 2.3301 9.88641 2.3844C9.81502 2.41 9.74188 2.43624 9.65102 2.46297C9.37669 2.54369 8.95109 2.62455 7.94175 2.69723ZM14.584 3.82854L14.5308 3.88498C14.3701 4.05553 14.2396 4.18065 14.0155 4.25653C13.7934 4.33174 13.4818 4.35781 12.9599 4.34022L12.9293 4.33919V3.89539L14.584 3.82854ZM12.9926 3.95617V4.27796C13.4949 4.29346 13.7889 4.26646 13.9952 4.19659C14.1797 4.13414 14.296 4.03686 14.4309 3.89806L12.9926 3.95617Z" fill="#D8AA3F"/>
<path fill-rule="evenodd" clip-rule="evenodd" d="M9.1875 3.79687C9.45703 3.66016 9.58984 3.71484 9.82812 3.71094C9.98438 4 10.1367 4.02734 10.4883 4.05859C10.6445 4.29297 10.8516 4.48047 11.0938 4.61328C11.3398 4.74609 11.6133 4.82031 11.8906 4.82812C12.9414 4.80078 13.2734 4.0625 13.9805 3.98437H14.7266C14.6055 3.77344 14.5078 3.64844 14.2344 3.63672C13.6797 3.60547 12.9609 3.62109 12.3359 3.76172L11.4531 3.98437C11.1953 3.85547 10.5664 3.19531 10.1602 3.21094C9.92578 3.27344 9.92578 3.35547 9.80859 3.44531C9.58203 3.54297 9.35156 3.49609 9.1875 3.79687Z" fill="#FFC84B"/>
<path fill-rule="evenodd" clip-rule="evenodd" d="M10.159 3.18108C10.2682 3.17688 10.3892 3.21794 10.511 3.28049C10.6333 3.34332 10.7596 3.42954 10.8802 3.5195C10.9663 3.58378 11.0503 3.65053 11.1281 3.71235C11.1591 3.73699 11.1891 3.76084 11.2179 3.78345C11.3148 3.8595 11.3964 3.92042 11.4568 3.95263L12.3286 3.73274C12.9573 3.5913 13.6797 3.57555 14.2359 3.60687C14.3773 3.61296 14.4766 3.64864 14.5563 3.71252C14.6348 3.77548 14.6919 3.86399 14.7525 3.9695C14.7578 3.97874 14.7578 3.99012 14.7524 3.99935C14.7471 4.00858 14.7372 4.01426 14.7266 4.01426H13.9821C13.6844 4.04762 13.4554 4.20062 13.2009 4.37064C13.1616 4.39692 13.1217 4.4236 13.0808 4.45031C12.7762 4.6493 12.4249 4.84412 11.8914 4.858L11.8898 4.858C11.6077 4.85005 11.3297 4.77457 11.0796 4.63958C10.8373 4.50675 10.6294 4.31998 10.4714 4.08709C10.3038 4.07199 10.1766 4.05666 10.0724 4.00858C9.96707 3.95995 9.88779 3.8793 9.81055 3.74101C9.75693 3.7413 9.70924 3.739 9.66449 3.73683C9.51433 3.72957 9.39741 3.72391 9.20102 3.82353C9.18934 3.82945 9.17517 3.82708 9.16606 3.81769C9.15694 3.80829 9.155 3.79406 9.16127 3.78257C9.24725 3.62494 9.35211 3.55701 9.46454 3.51679C9.51174 3.4999 9.56048 3.48783 9.60825 3.47601C9.61612 3.47406 9.62397 3.47211 9.63178 3.47016C9.68643 3.45647 9.74018 3.44189 9.79334 3.41934C9.81937 3.39905 9.83932 3.37911 9.85829 3.35905C9.86229 3.35482 9.8663 3.35052 9.87036 3.34617C9.88591 3.32951 9.90207 3.31219 9.92044 3.29566C9.96853 3.25237 10.0316 3.21429 10.1525 3.18206L10.159 3.18108ZM10.1646 3.24069C10.0533 3.27074 9.99983 3.30461 9.96042 3.34008C9.94418 3.3547 9.93027 3.36959 9.91497 3.38598C9.91069 3.39056 9.9063 3.39526 9.90172 3.40011C9.88112 3.4219 9.8579 3.44517 9.82678 3.46903L9.82079 3.47361C9.76179 3.49905 9.70254 3.51404 9.6463 3.52813C9.63819 3.53016 9.63015 3.53216 9.62219 3.53413C9.57427 3.546 9.5288 3.55727 9.48468 3.57306C9.40641 3.60106 9.33303 3.64308 9.2675 3.72799C9.42782 3.66503 9.544 3.67073 9.67417 3.67713C9.72241 3.6795 9.77258 3.68196 9.82763 3.68106C9.83879 3.68088 9.84911 3.68692 9.85441 3.69673C9.93064 3.83775 10.0037 3.91102 10.0975 3.95431C10.1935 3.99863 10.3141 4.01311 10.4909 4.02883C10.5 4.02963 10.5081 4.03448 10.5131 4.04202C10.6667 4.27229 10.87 4.4565 11.108 4.58704C11.3498 4.71751 11.6184 4.79043 11.8907 4.79823C12.4075 4.78459 12.7474 4.59669 13.0481 4.40027C13.088 4.3742 13.1274 4.34786 13.1665 4.32171C13.4205 4.15169 13.6631 3.98938 13.9772 3.95467L13.9805 3.95431L14.6744 3.95449C14.6244 3.87102 14.5777 3.80626 14.5189 3.75916C14.4512 3.70491 14.365 3.67223 14.2331 3.66657C13.68 3.63541 12.9641 3.65108 12.3429 3.79079L11.4604 4.01335C11.4535 4.0151 11.4462 4.0143 11.4398 4.0111C11.3721 3.97727 11.282 3.90978 11.181 3.83045C11.1517 3.80743 11.1214 3.78333 11.0902 3.75855C11.0127 3.69693 10.9298 3.6311 10.8444 3.56741C10.7248 3.47817 10.6016 3.39423 10.4837 3.33365C10.3666 3.27349 10.2578 3.23802 10.1646 3.24069Z" fill="#D8AA3F"/>
<path fill-rule="evenodd" clip-rule="evenodd" d="M10.25 3.48047C10.2539 3.49609 10.2539 3.51172 10.25 3.52734C10.2461 3.54688 10.2383 3.55859 10.2266 3.57422C10.2187 3.58594 10.2031 3.59375 10.1875 3.60156C10.1758 3.60938 10.1562 3.61328 10.1406 3.61328C10.125 3.61328 10.1094 3.60938 10.0938 3.60156C10.0781 3.59375 10.0664 3.58594 10.0547 3.57422C10.043 3.55859 10.0352 3.54688 10.0312 3.52734C10.0273 3.51172 10.0273 3.49609 10.0312 3.48047C10.0352 3.45312 10.0469 3.42969 10.0703 3.41406C10.0898 3.39844 10.1133 3.38672 10.1406 3.38672C10.168 3.38672 10.1914 3.39844 10.2148 3.41406C10.2344 3.42969 10.2461 3.45312 10.25 3.48047Z" fill="#FFC84B"/>
<path fill-rule="evenodd" clip-rule="evenodd" d="M10.1406 3.4166C10.1223 3.4166 10.1053 3.42437 10.089 3.4374L10.087 3.43902C10.0722 3.44883 10.0638 3.46359 10.0608 3.48469L10.0604 3.48775C10.0577 3.49862 10.0575 3.50923 10.0602 3.5201L10.0606 3.52148C10.063 3.53375 10.0672 3.541 10.0773 3.55451C10.0857 3.56268 10.0944 3.56846 10.1071 3.57483C10.1191 3.58082 10.1302 3.5834 10.1406 3.5834C10.1532 3.5834 10.1661 3.57994 10.1709 3.5767L10.174 3.57463C10.1822 3.57056 10.1886 3.56758 10.1938 3.56422C10.1991 3.56084 10.201 3.55861 10.2017 3.55764L10.2026 3.55626C10.2136 3.54159 10.2181 3.53428 10.2207 3.52148L10.221 3.52009C10.2237 3.50922 10.2237 3.49858 10.221 3.48772L10.2203 3.48472C10.2173 3.46374 10.209 3.4481 10.1971 3.43815C10.1757 3.42402 10.1587 3.4166 10.1406 3.4166ZM10.0526 3.38994C10.0753 3.37206 10.1048 3.35684 10.1406 3.35684C10.177 3.35684 10.2065 3.37258 10.2314 3.3892L10.2336 3.39064C10.2599 3.41166 10.2744 3.44213 10.2794 3.47474C10.284 3.4944 10.284 3.51425 10.2792 3.5339C10.2739 3.55945 10.263 3.57535 10.2509 3.59158C10.2438 3.60191 10.2343 3.60921 10.2261 3.61449C10.2182 3.61958 10.2095 3.62396 10.2023 3.62758C10.1838 3.63908 10.1587 3.64316 10.1406 3.64316C10.1198 3.64316 10.0997 3.63793 10.0804 3.62829C10.0626 3.6194 10.0481 3.60985 10.0336 3.59535L10.0305 3.59233C10.0182 3.5759 10.0074 3.55975 10.0021 3.5339" fill="#D8AA3F"/>
<path fill-rule="evenodd" clip-rule="evenodd" d="M10.9727 3.78906C12.5508 1.88672 13.9297 2.12109 15.7305 1.98828C15.7891 2.21094 15.7656 2.54297 14.9102 2.83203C13.7344 3.00781 11.6367 4.24609 11.625 4.24609C11.2344 4.22656 10.9609 3.81641 10.9727 3.78906Z" fill="#FFC84B"/>
<path fill-rule="evenodd" clip-rule="evenodd" d="M15.7544 1.95479L15.7611 1.98023C15.7918 2.0971 15.8016 2.2465 15.6888 2.4037C15.5776 2.55865 15.3504 2.71668 14.9203 2.86201L14.9149 2.86382C14.3325 2.9509 13.5181 3.30171 12.845 3.63336C12.5092 3.79887 12.2095 3.95892 11.9931 4.07761C11.8849 4.13695 11.7975 4.18594 11.7368 4.22012L11.6664 4.25976L11.6472 4.27038L11.6412 4.27349L11.6383 4.27488L11.6355 4.27595L11.6326 4.27682C11.6312 4.27713 11.6274 4.27764 11.625 4.27773H11.6234C11.4176 4.26744 11.2447 4.15453 11.1263 4.0436C11.0668 3.98789 11.0202 3.93181 10.9889 3.88752C10.9733 3.86543 10.9612 3.84579 10.9532 3.8302C10.9492 3.8225 10.9458 3.81499 10.9436 3.8082C10.9426 3.80483 10.9415 3.80077 10.941 3.79642C10.9405 3.79284 10.94 3.78502 10.9436 3.7766L10.9473 3.768L10.9483 3.76886C11.7412 2.81304 12.4861 2.39205 13.2602 2.19444C13.8153 2.05277 14.3862 2.02613 14.9968 1.99764C15.2341 1.98657 15.4774 1.97522 15.7281 1.95673L15.7544 1.95479ZM11.0073 3.79691C11.0079 3.79824 11.0086 3.7997 11.0095 3.8013C11.0157 3.81345 11.0261 3.83049 11.0406 3.85101C11.0694 3.89192 11.1133 3.94473 11.1696 3.99742C11.2809 4.1017 11.4371 4.20221 11.6183 4.21402L11.6355 4.20453L11.7058 4.16497C11.7666 4.13074 11.8542 4.08162 11.9627 4.02212C12.1796 3.90314 12.4801 3.74263 12.8171 3.5766C13.4886 3.24568 14.3095 2.89056 14.9027 2.80116C15.3263 2.65768 15.5378 2.50552 15.6374 2.36681C15.7278 2.24086 15.7283 2.12237 15.706 2.02179C15.4606 2.03945 15.2237 2.0505 14.9935 2.06124C14.3855 2.0896 13.8242 2.11579 13.2759 2.25576C12.5192 2.4489 11.7886 2.85914 11.0073 3.79691Z" fill="#D8AA3F"/>
<path fill-rule="evenodd" clip-rule="evenodd" d="M14.1871 2.5494C14.1879 2.53194 14.2027 2.51841 14.2201 2.51917L15.3842 2.56995C15.4016 2.57071 15.4152 2.58548 15.4144 2.60294C15.4137 2.6204 15.3989 2.63393 15.3814 2.63317L14.2174 2.58239C14.1999 2.58163 14.1864 2.56686 14.1871 2.5494ZM14.0583 2.73957C14.0598 2.72216 14.075 2.70921 14.0925 2.71065L14.9401 2.78097C14.9575 2.78241 14.9705 2.7977 14.969 2.81512C14.9676 2.83253 14.9523 2.84548 14.9349 2.84403L14.0872 2.77372C14.0698 2.77228 14.0569 2.75699 14.0583 2.73957Z" fill="#D9A43E"/>
</g>
<rect x="0.25" y="0.25" width="23.5" height="17.5" rx="1.75" stroke="#DDE0EA" stroke-width="0.5" style="fill-opacity:0"/>
<defs>
<clipPath id="clip0_1257_40601">
<rect width="24" height="18" rx="2" fill="white"/>
</clipPath>
</defs>
</svg>
