<svg width="24" height="18" viewBox="0 0 24 18" fill="none" xmlns="http://www.w3.org/2000/svg">
<g clip-path="url(#clip0_1257_40672)">
<path d="M0 0H24V18H0V0Z" fill="#244AA5"/>
<path d="M9.48 8.42C9.48 8.42 9.53 8.39 9.54 8.39C9.56 8.39 9.62 8.37 9.62 8.37C9.62 8.37 9.65 8.35 9.67 8.35C9.70 8.35 9.73 8.37 9.75 8.39C9.76 8.41 9.82 8.44 9.82 8.44C9.82 8.44 9.87 8.46 9.88 8.44C9.89 8.43 9.91 8.42 9.93 8.42C9.95 8.42 9.95 8.40 9.95 8.38C9.95 8.37 9.96 8.35 9.97 8.33C9.99 8.31 10.02 8.30 10.02 8.30C10.02 8.30 10.07 8.28 10.07 8.26C10.08 8.23 10.12 8.21 10.15 8.21C10.17 8.21 10.15 8.19 10.21 8.20C10.28 8.21 10.29 8.18 10.29 8.17C10.29 8.15 10.29 8.13 10.33 8.13C10.37 8.14 10.39 8.14 10.39 8.11C10.39 8.09 10.43 8.08 10.36 8.06C10.30 8.04 10.30 8.06 10.30 8.02C10.30 8.00 10.30 8.00 10.26 8.00C10.21 7.99 10.23 7.97 10.23 7.95C10.23 7.93 10.21 7.91 10.21 7.90C10.2 7.88 10.17 7.88 10.17 7.86C10.17 7.84 10.17 7.82 10.15 7.82C10.12 7.82 10.11 7.82 10.11 7.81C10.11 7.78 10.12 7.77 10.14 7.77C10.17 7.77 10.18 7.75 10.18 7.72C10.17 7.70 10.17 7.65 10.17 7.65L10.20 7.61C10.20 7.61 10.30 7.54 10.31 7.52C10.32 7.51 10.35 7.49 10.36 7.52C10.38 7.55 10.39 7.56 10.40 7.58C10.41 7.59 10.45 7.58 10.46 7.57C10.47 7.55 10.47 7.49 10.49 7.46C10.51 7.44 10.53 7.42 10.53 7.40C10.54 7.37 10.55 7.35 10.58 7.35C10.60 7.35 10.62 7.32 10.62 7.30C10.62 7.28 10.63 7.26 10.66 7.25C10.69 7.25 10.71 7.23 10.72 7.26C10.73 7.29 10.74 7.29 10.76 7.30C10.78 7.31 10.81 7.32 10.83 7.31C10.85 7.30 10.86 7.27 10.88 7.28C10.90 7.30 10.92 7.28 10.92 7.26L10.93 7.19C10.93 7.19 10.94 7.17 10.98 7.17C11.01 7.17 10.99 7.15 11.01 7.13C11.03 7.12 11.03 7.10 11.05 7.11C11.08 7.12 11.12 7.10 11.10 7.07C11.08 7.05 11.04 7.01 11.06 6.98C11.09 6.95 11.10 6.91 11.07 6.90C11.05 6.89 11.01 6.90 11.00 6.88C11.00 6.85 10.99 6.82 11.02 6.82C11.05 6.82 11.10 6.82 11.12 6.80C11.14 6.79 11.19 6.77 11.19 6.73C11.19 6.69 11.20 6.68 11.21 6.66C11.22 6.64 11.22 6.58 11.19 6.56C11.17 6.53 11.14 6.50 11.14 6.49C11.13 6.47 11.11 6.45 11.08 6.44C11.05 6.43 11.02 6.42 11.02 6.40C11.02 6.37 11.04 6.40 11.04 6.34C11.04 6.28 11.00 6.26 11.00 6.26L10.93 6.23C10.93 6.23 10.82 6.20 10.79 6.20C10.76 6.20 10.72 6.17 10.76 6.14C10.8 6.13 10.80 6.09 10.79 6.06C10.78 6.04 10.77 6.01 10.72 6.00C10.67 5.99 10.66 5.98 10.68 5.95C10.70 5.92 10.71 5.90 10.74 5.92C10.76 5.94 10.80 5.95 10.84 5.93C10.87 5.92 10.89 5.90 10.90 5.92C10.92 5.94 10.94 5.95 10.97 5.93C10.99 5.90 11.04 5.90 11.07 5.91C11.08 5.93 11.14 5.92 11.16 5.91C11.17 5.90 11.21 5.87 11.21 5.86C11.21 5.85 11.23 5.82 11.25 5.81C11.27 5.79 11.30 5.75 11.32 5.75C11.34 5.75 11.35 5.73 11.35 5.72C11.35 5.70 11.37 5.66 11.37 5.65C11.37 5.64 11.42 5.62 11.45 5.65C11.48 5.67 11.52 5.68 11.52 5.68C11.52 5.68 11.56 5.69 11.59 5.68C11.60 5.68 11.61 5.67 11.63 5.67C11.64 5.67 11.65 5.68 11.67 5.68C11.70 5.71 11.74 5.71 11.74 5.71L11.75 5.66C11.75 5.64 11.76 5.61 11.74 5.60C11.73 5.59 11.70 5.57 11.74 5.55C11.77 5.53 11.77 5.53 11.81 5.53L11.89 5.53C11.92 5.53 11.96 5.56 11.96 5.58C11.96 5.60 11.98 5.62 12 5.63C12.02 5.65 12.04 5.66 12.03 5.68C12.03 5.70 12.03 5.72 12.06 5.71C12.08 5.71 12.09 5.72 12.09 5.74C12.09 5.76 12.10 5.77 12.13 5.78C12.15 5.79 12.16 5.81 12.16 5.83C12.16 5.84 12.16 5.86 12.16 5.88L12.20 5.93C12.20 5.93 12.25 5.99 12.19 5.96C12.13 5.93 12.11 5.92 12.09 5.92L12.06 5.94L12.01 5.95C11.98 5.95 11.96 5.99 12.00 6.00C12.03 6.01 12.04 6.01 12.04 6.04C12.04 6.07 12.03 6.06 12.01 6.08C12.00 6.10 11.98 6.09 11.95 6.09C11.92 6.09 11.92 6.11 11.92 6.14C11.92 6.16 11.93 6.16 11.94 6.17C11.95 6.20 11.98 6.20 12.00 6.18C12.02 6.16 12.04 6.15 12.05 6.19C12.06 6.22 12.08 6.22 12.10 6.22C12.13 6.22 12.14 6.22 12.16 6.21C12.18 6.20 12.21 6.21 12.21 6.24C12.22 6.27 12.24 6.28 12.26 6.29C12.28 6.30 12.30 6.31 12.30 6.33C12.31 6.35 12.32 6.36 12.34 6.35C12.36 6.33 12.40 6.32 12.41 6.34L12.45 6.39V6.43L12.53 6.46L12.54 6.50C12.54 6.51 12.55 6.52 12.58 6.51H12.64C12.64 6.51 12.67 6.50 12.67 6.47C12.67 6.45 12.68 6.44 12.70 6.44C12.72 6.44 12.77 6.46 12.78 6.44C12.80 6.41 12.84 6.41 12.87 6.42L12.98 6.46C12.98 6.46 12.97 6.46 12.99 6.50C13.02 6.55 13.07 6.55 13.07 6.55C13.07 6.55 13.07 6.58 13.08 6.60C13.09 6.61 13.13 6.62 13.15 6.61C13.17 6.59 13.20 6.57 13.23 6.57C13.25 6.57 13.27 6.57 13.27 6.55C13.27 6.54 13.24 6.53 13.24 6.50C13.24 6.47 13.27 6.48 13.27 6.45C13.28 6.43 13.30 6.45 13.32 6.47C13.34 6.48 13.36 6.50 13.36 6.51C13.36 6.53 13.40 6.59 13.42 6.59C13.44 6.60 13.5 6.61 13.51 6.59C13.53 6.56 13.57 6.56 13.57 6.61C13.57 6.65 13.56 6.66 13.59 6.67C13.62 6.69 13.62 6.75 13.60 6.76C13.57 6.78 13.56 6.78 13.56 6.81C13.56 6.83 13.55 6.87 13.57 6.88C13.60 6.90 13.61 6.91 13.61 6.93C13.61 6.95 13.63 7.02 13.63 7.02C13.63 7.02 13.65 7.09 13.64 7.10C13.64 7.12 13.63 7.15 13.67 7.15C13.71 7.14 13.72 7.14 13.72 7.17C13.72 7.20 13.73 7.22 13.71 7.23C13.69 7.24 13.67 7.28 13.69 7.29C13.72 7.30 13.73 7.31 13.74 7.33C13.74 7.34 13.78 7.37 13.80 7.35C13.82 7.34 13.83 7.33 13.84 7.33C13.86 7.32 13.87 7.31 13.86 7.29C13.84 7.27 13.83 7.25 13.85 7.24C13.87 7.22 13.88 7.19 13.88 7.19C13.88 7.19 13.90 7.15 13.93 7.19C13.96 7.22 13.97 7.21 13.99 7.21C14.01 7.21 14.02 7.23 14.02 7.25C14.02 7.27 14.07 7.27 14.07 7.30L14.07 7.41C14.07 7.41 14.07 7.45 14.10 7.46C14.13 7.48 14.12 7.49 14.11 7.50C14.1 7.52 14.10 7.56 14.10 7.58C14.10 7.60 14.11 7.60 14.09 7.61C14.07 7.63 14.05 7.65 14.07 7.67C14.08 7.70 14.08 7.71 14.11 7.74C14.15 7.77 14.14 7.78 14.14 7.80C14.14 7.82 14.18 7.85 14.18 7.87C14.18 7.89 14.20 7.91 14.23 7.92C14.25 7.92 14.27 7.96 14.27 7.98L14.28 8.05C14.28 8.05 14.28 8.06 14.30 8.06C14.32 8.06 14.34 8.09 14.35 8.06C14.36 8.02 14.39 8.02 14.40 8.01C14.42 8.00 14.46 7.99 14.47 8.00C14.49 8.01 14.51 8.01 14.53 8.01L14.63 8.02C14.63 8.02 14.65 8.02 14.67 8.05C14.68 8.08 14.71 8.11 14.7 8.13C14.67 8.15 14.67 8.18 14.7 8.18C14.72 8.18 14.75 8.18 14.75 8.20C14.75 8.22 14.75 8.23 14.78 8.22C14.80 8.21 14.81 8.21 14.82 8.22C14.83 8.24 14.85 8.24 14.87 8.25C14.89 8.26 14.90 8.25 14.91 8.24C14.92 8.22 14.98 8.21 14.98 8.21C14.98 8.21 15.04 8.19 15.07 8.20L15.13 8.22C15.13 8.22 15.15 8.26 15.14 8.29C15.13 8.31 15.12 8.30 15.13 8.34C15.14 8.38 15.12 8.38 15.11 8.38C15.09 8.37 15.07 8.37 15.07 8.41C15.07 8.44 15.06 8.44 15.06 8.47C15.06 8.50 15.06 8.50 15.04 8.51C15.02 8.52 15.01 8.54 15.04 8.55C15.07 8.55 15.06 8.58 15.06 8.59L15.06 8.65C15.06 8.65 15.06 8.66 15.03 8.66C15.00 8.66 14.97 8.66 14.97 8.68C14.96 8.70 14.93 8.73 14.96 8.75C14.99 8.77 14.98 8.78 14.96 8.79C14.95 8.80 14.93 8.84 14.97 8.85C15.00 8.87 15.00 8.88 14.98 8.89C14.95 8.91 14.91 8.92 14.91 8.95C14.91 8.97 14.90 8.97 14.88 8.97C14.85 8.98 14.84 9.01 14.87 9.05C14.90 9.09 14.91 9.08 14.93 9.08C14.95 9.08 14.95 9.05 14.95 9.05L15.04 9.05C15.07 9.05 15.10 9.05 15.12 9.04C15.13 9.03 15.18 9.01 15.18 9.04C15.18 9.08 15.19 9.08 15.21 9.09C15.23 9.11 15.24 9.10 15.25 9.12C15.27 9.14 15.28 9.12 15.29 9.10C15.30 9.07 15.33 9.04 15.35 9.07C15.37 9.11 15.37 9.10 15.40 9.10C15.42 9.10 15.43 9.11 15.43 9.13C15.43 9.15 15.46 9.15 15.49 9.14C15.52 9.14 15.52 9.16 15.54 9.18C15.55 9.20 15.55 9.20 15.57 9.20C15.59 9.20 15.61 9.20 15.62 9.18C15.63 9.17 15.65 9.14 15.67 9.17C15.69 9.19 15.72 9.19 15.73 9.16C15.74 9.13 15.78 9.11 15.80 9.14C15.82 9.17 15.84 9.17 15.86 9.18C15.88 9.18 15.91 9.18 15.92 9.20C15.94 9.22 15.98 9.25 15.95 9.28C15.92 9.30 15.88 9.33 15.91 9.34C15.93 9.35 15.95 9.36 15.97 9.38C15.99 9.40 16.05 9.41 16.07 9.41C16.10 9.41 16.12 9.42 16.15 9.39C16.18 9.37 16.21 9.37 16.21 9.40C16.20 9.43 16.22 9.47 16.22 9.47C16.22 9.47 16.24 9.52 16.24 9.54C16.24 9.56 16.24 9.56 16.28 9.59C16.32 9.61 16.31 9.63 16.34 9.61C16.37 9.58 16.38 9.57 16.38 9.55V9.49C16.38 9.49 16.42 9.48 16.44 9.47C16.46 9.45 16.53 9.42 16.54 9.43C16.56 9.45 16.58 9.44 16.60 9.44C16.62 9.43 16.65 9.43 16.67 9.43C16.69 9.43 16.72 9.43 16.75 9.41C16.79 9.38 16.79 9.38 16.81 9.41C16.83 9.43 16.83 9.45 16.82 9.47C16.80 9.48 16.82 9.52 16.85 9.52C16.88 9.52 16.89 9.53 16.89 9.55L16.90 9.62C16.90 9.63 16.90 9.64 16.95 9.65C16.99 9.67 16.99 9.69 16.99 9.71C17.01 9.73 17.01 9.75 16.98 9.75C16.95 9.75 16.94 9.76 16.94 9.78C16.93 9.80 16.90 9.81 16.90 9.81L16.86 9.80C16.86 9.80 16.83 9.80 16.82 9.82C16.80 9.83 16.78 9.86 16.8 9.89C16.81 9.92 16.81 9.94 16.8 9.95C16.78 9.96 16.77 10.02 16.75 10.01C16.74 10.00 16.72 10.01 16.70 10.02C16.68 10.03 16.68 10.09 16.72 10.11C16.75 10.13 16.76 10.15 16.76 10.15L16.80 10.21C16.80 10.21 16.79 10.23 16.78 10.25C16.77 10.27 16.74 10.31 16.77 10.32C16.8 10.32 16.78 10.37 16.76 10.37C16.73 10.37 16.70 10.35 16.70 10.39C16.69 10.42 16.68 10.41 16.65 10.41C16.63 10.41 16.56 10.39 16.54 10.42C16.53 10.45 16.52 10.46 16.49 10.46C16.46 10.46 16.47 10.51 16.48 10.53L16.52 10.57C16.52 10.57 16.55 10.59 16.55 10.63C16.55 10.67 16.53 10.67 16.51 10.64C16.5 10.62 16.46 10.62 16.46 10.65C16.45 10.68 16.45 10.73 16.42 10.73C16.39 10.73 16.38 10.74 16.36 10.75C16.35 10.77 16.33 10.80 16.33 10.81C16.33 10.83 16.32 10.85 16.30 10.85C16.28 10.86 16.27 10.90 16.27 10.90C16.27 10.90 16.22 10.91 16.22 10.93C16.21 10.95 16.22 10.98 16.18 10.98C16.16 10.98 16.15 10.99 16.13 11.00C16.12 11.01 16.11 11.02 16.10 11.04C16.08 11.05 16.08 11.07 16.10 11.09C16.12 11.11 16.13 11.17 16.15 11.19C16.17 11.20 16.19 11.20 16.18 11.23C16.18 11.27 16.15 11.29 16.19 11.29C16.23 11.29 16.24 11.30 16.23 11.33C16.22 11.35 16.22 11.36 16.2 11.37C16.17 11.38 16.15 11.38 16.15 11.41C16.15 11.44 16.16 11.45 16.14 11.46C16.12 11.47 16.12 11.49 16.12 11.51C16.12 11.54 16.11 11.53 16.08 11.55C16.06 11.58 16.02 11.58 16.00 11.58C15.98 11.57 15.97 11.57 15.97 11.54C15.97 11.52 15.93 11.52 15.91 11.52C15.88 11.52 15.85 11.55 15.85 11.55C15.85 11.55 15.82 11.58 15.83 11.59C15.85 11.61 15.84 11.65 15.81 11.64C15.78 11.64 15.71 11.67 15.69 11.64C15.67 11.60 15.61 11.58 15.6 11.63C15.59 11.67 15.62 11.67 15.62 11.72C15.62 11.77 15.61 11.77 15.59 11.78C15.57 11.80 15.57 11.81 15.57 11.83C15.57 11.85 15.56 11.89 15.59 11.91C15.62 11.93 15.63 11.97 15.63 12C15.63 12.02 15.63 12.04 15.66 12.04C15.69 12.04 15.72 12.04 15.72 12.01C15.73 11.98 15.79 11.97 15.79 12.02C15.79 12.08 15.79 12.11 15.82 12.13C15.84 12.15 15.86 12.19 15.88 12.20C15.89 12.21 15.92 12.31 15.92 12.31C15.88 12.32 15.87 12.38 15.84 12.39C15.83 12.39 15.81 12.39 15.79 12.40C15.79 12.41 15.79 12.42 15.77 12.43C15.74 12.44 15.75 12.39 15.70 12.41C15.67 12.43 15.67 12.47 15.62 12.45C15.59 12.44 15.58 12.34 15.57 12.31L15.53 12.25C15.50 12.20 15.44 12.25 15.42 12.23C15.39 12.21 15.40 12.18 15.36 12.18C15.27 12.17 15.33 12.23 15.3 12.24C15.22 12.27 15.22 12.18 15.17 12.22C15.15 12.24 15.21 12.25 15.19 12.27C15.18 12.3 15.13 12.33 15.13 12.36C15.13 12.40 15.17 12.41 15.18 12.43C15.22 12.52 15.16 12.58 15.08 12.51C15.04 12.48 15.03 12.41 14.96 12.42C14.94 12.42 14.94 12.43 14.92 12.43C14.90 12.43 14.89 12.42 14.87 12.42C14.85 12.43 14.87 12.45 14.86 12.47C14.86 12.47 14.83 12.49 14.83 12.51C14.80 12.53 14.81 12.55 14.78 12.57C14.76 12.59 14.74 12.58 14.71 12.61C14.69 12.64 14.68 12.68 14.65 12.71C14.63 12.72 14.62 12.67 14.60 12.70L14.59 12.72C14.58 12.73 14.58 12.73 14.59 12.75C14.64 12.84 14.54 12.87 14.51 12.93C14.50 12.96 14.53 12.98 14.52 13.00L14.46 13.06C14.46 13.07 14.46 13.09 14.45 13.10C14.44 13.11 14.41 13.10 14.41 13.12C14.41 13.13 14.44 13.14 14.45 13.15C14.46 13.16 14.44 13.18 14.45 13.18C14.49 13.23 14.47 13.21 14.49 13.26C14.49 13.26 14.51 13.25 14.52 13.27C14.52 13.28 14.50 13.28 14.51 13.30C14.51 13.30 14.55 13.35 14.55 13.35C14.55 13.36 14.48 13.39 14.46 13.39C14.42 13.39 14.50 13.31 14.43 13.31C14.40 13.31 14.40 13.38 14.4 13.39H14.36C14.31 13.39 14.28 13.44 14.27 13.44C14.26 13.45 14.23 13.44 14.21 13.44C14.20 13.44 14.17 13.46 14.16 13.46C14.15 13.46 14.14 13.45 14.13 13.45C14.11 13.44 14.08 13.43 14.06 13.42C14.04 13.42 14.02 13.44 14.01 13.44C14.00 13.43 14.02 13.40 13.99 13.38L13.96 13.32C13.98 13.28 13.99 13.24 13.98 13.20C13.98 13.16 13.91 13.13 13.89 13.09C13.88 13.07 13.87 13.00 13.84 12.99C13.82 12.96 13.79 12.93 13.78 12.90C13.78 12.9 13.79 12.88 13.78 12.87C13.77 12.85 13.75 12.85 13.74 12.83C13.74 12.81 13.74 12.76 13.72 12.75C13.70 12.74 13.57 12.72 13.53 12.72C13.52 12.72 13.51 12.72 13.5 12.70L13.47 12.68L13.44 12.69C13.42 12.69 13.41 12.68 13.40 12.69C13.36 12.71 13.35 12.75 13.30 12.78C13.26 12.81 13.22 12.81 13.18 12.85C13.15 12.87 13.13 12.93 13.11 12.95C13.09 12.96 13.08 12.95 13.08 12.96C13.05 12.98 13.02 13.00 13.00 13.02C13.00 13.03 13.00 13.04 12.99 13.04L12.94 13.06H12.90C12.88 13.06 12.88 13.09 12.81 13.10L12.79 13.11L12.76 13.13H12.73C12.71 13.13 12.70 13.15 12.69 13.15C12.65 13.16 12.58 13.13 12.55 13.15C12.53 13.15 12.48 13.21 12.46 13.21C12.45 13.22 12.44 13.21 12.43 13.21L12.40 13.29L12.31 13.37C12.30 13.38 12.30 13.40 12.28 13.41C12.28 13.42 12.26 13.43 12.25 13.43C12.23 13.43 12.21 13.41 12.19 13.41C12.16 13.41 12.06 13.40 12.04 13.41C12.00 13.41 12.01 13.50 11.94 13.51L11.82 13.52C11.81 13.52 11.79 13.51 11.76 13.51C11.75 13.51 11.72 13.55 11.72 13.56V13.57L11.73 13.59C11.71 13.61 11.67 13.64 11.66 13.66L11.65 13.68C11.64 13.69 11.59 13.71 11.58 13.71C11.57 13.74 11.62 13.77 11.61 13.78C11.60 13.82 11.55 13.86 11.53 13.90C11.53 13.91 11.55 13.96 11.55 13.98C11.54 14.02 11.53 14.08 11.53 14.13L11.54 14.19L11.56 14.21L11.63 14.35C11.64 14.43 11.52 14.40 11.59 14.48C11.60 14.50 11.61 14.51 11.62 14.52L11.73 14.61C11.73 14.62 11.65 14.63 11.64 14.64C11.61 14.68 11.58 14.74 11.55 14.78C11.52 14.80 11.51 14.77 11.48 14.83C11.47 14.85 11.48 14.89 11.47 14.90C11.45 14.92 11.44 14.89 11.42 14.90C11.41 14.90 11.41 14.93 11.40 14.93C11.38 14.95 11.20 15.04 11.19 15.03C11.18 15.03 11.17 15.00 11.17 14.99C11.17 14.98 11.16 14.96 11.15 14.95C11.10 14.92 11.04 14.91 10.99 14.95C10.98 14.97 10.98 14.98 10.96 14.99L10.89 15.05L10.87 15.07C10.85 15.07 10.81 15.02 10.8 15.01C10.78 14.98 10.72 14.93 10.72 14.91C10.72 14.82 10.65 14.72 10.62 14.64H10.66C10.71 14.60 10.70 14.52 10.78 14.55C10.8 14.54 10.8 14.52 10.81 14.52C10.82 14.51 10.84 14.50 10.84 14.50C10.87 14.45 10.90 14.28 10.87 14.23C10.85 14.20 10.82 14.20 10.80 14.13C10.79 14.11 10.80 14.1 10.80 14.07L10.76 13.96C10.75 13.95 10.74 13.94 10.74 13.93L10.73 13.81C10.70 13.73 10.60 13.68 10.60 13.67L10.56 13.61C10.54 13.58 10.54 13.57 10.54 13.55C10.53 13.54 10.51 13.53 10.51 13.51C10.51 13.49 10.57 13.45 10.57 13.41C10.57 13.40 10.53 13.36 10.54 13.35C10.55 13.32 10.59 13.28 10.59 13.25C10.59 13.22 10.53 13.15 10.52 13.12C10.51 13.11 10.54 13.09 10.53 13.08C10.53 13.07 10.47 13.01 10.46 13.00C10.45 12.99 10.48 12.97 10.46 12.95C10.44 12.93 10.45 12.93 10.45 12.92C10.44 12.90 10.42 12.88 10.41 12.86C10.40 12.84 10.35 12.66 10.35 12.64C10.34 12.63 10.33 12.62 10.32 12.61L10.30 12.56C10.30 12.56 10.24 12.54 10.23 12.52C10.23 12.51 10.22 12.46 10.21 12.44C10.20 12.43 10.19 12.43 10.18 12.43C10.17 12.42 10.17 12.41 10.17 12.40C10.15 12.38 10.12 12.40 10.09 12.31C10.06 12.29 10.03 12.27 10.00 12.24L9.99 12.23C9.97 12.22 9.93 12.22 9.91 12.20C9.90 12.20 9.85 12.20 9.84 12.19L9.82 12.16C9.79 12.16 9.74 12.16 9.71 12.14C9.70 12.12 9.69 12.04 9.65 12.05C9.65 12.05 9.64 12.05 9.64 12.05C9.61 12.01 9.53 12.01 9.50 11.99C9.49 11.98 9.46 11.99 9.46 11.98L9.46 11.93L9.42 11.88C9.39 11.87 9.40 11.87 9.38 11.86C9.33 11.86 9.32 11.86 9.29 11.89C9.28 11.90 9.26 11.91 9.25 11.91C9.23 11.92 9.23 11.95 9.20 11.94L9.18 11.92C9.16 11.91 9.16 11.91 9.15 11.89C9.10 11.86 8.98 11.95 8.95 11.89C8.93 11.88 8.92 11.89 8.90 11.88C8.89 11.87 8.92 11.76 8.83 11.73L8.89 11.68C8.90 11.67 8.89 11.65 8.89 11.65C8.89 11.63 8.90 11.59 8.90 11.58C8.90 11.57 8.89 11.56 8.88 11.55C8.87 11.53 8.88 11.52 8.87 11.50L8.84 11.49C8.82 11.47 8.80 11.46 8.78 11.43L8.77 11.41C8.75 11.40 8.70 11.38 8.70 11.36C8.70 11.35 8.71 11.35 8.71 11.34C8.72 11.33 8.71 11.32 8.72 11.31C8.75 11.28 8.80 11.29 8.80 11.23C8.79 11.20 8.77 11.18 8.77 11.15C8.75 11.14 8.75 11.13 8.75 11.12C8.69 11.12 8.70 11.06 8.68 11.05C8.62 11.01 8.58 11.03 8.64 10.96C8.65 10.93 8.59 10.89 8.57 10.88C8.55 10.86 8.56 10.81 8.55 10.78C8.55 10.77 8.51 10.75 8.50 10.74L8.48 10.70V10.69C8.49 10.68 8.49 10.66 8.48 10.66C8.48 10.65 8.46 10.65 8.45 10.64C8.40 10.60 8.34 10.57 8.27 10.55C8.25 10.54 8.26 10.53 8.24 10.52L8.13 10.47C8.12 10.47 8.11 10.43 8.11 10.42L8.07 10.38C8.07 10.34 8.05 10.34 8.02 10.32V10.30L8.04 10.22C8.05 10.20 8.06 10.19 8.06 10.17L8.05 10.09C8.02 10.01 7.98 10.02 8.00 9.92C8.00 9.89 8.00 9.88 8.01 9.86L8.02 9.85L8.06 9.82C8.08 9.80 8.09 9.75 8.11 9.73L8.18 9.69C8.18 9.68 8.19 9.65 8.19 9.64C8.17 9.64 8.16 9.64 8.14 9.64C8.14 9.64 8.12 9.62 8.10 9.62C8.10 9.61 8.09 9.61 8.09 9.60L8.08 9.59C8.06 9.59 8.05 9.58 8.03 9.58C8.01 9.57 7.99 9.57 7.97 9.56C7.93 9.54 7.89 9.48 7.86 9.47C7.81 9.46 7.78 9.48 7.74 9.48C7.71 9.48 7.71 9.47 7.69 9.46C7.66 9.45 7.68 9.47 7.61 9.45C7.60 9.44 7.61 9.42 7.61 9.41H7.58C7.52 9.40 7.54 9.35 7.53 9.31C7.52 9.31 7.50 9.31 7.49 9.31C7.48 9.31 7.48 9.30 7.48 9.30L7.49 9.29C7.50 9.28 7.46 9.24 7.46 9.23C7.47 9.22 7.54 9.21 7.55 9.21C7.55 9.20 7.54 9.19 7.54 9.19C7.54 9.17 7.55 9.14 7.56 9.12V9.11C7.54 9.10 7.53 9.09 7.51 9.08C7.51 9.07 7.52 9.06 7.53 9.05C7.56 8.96 7.61 9.03 7.66 8.95C7.66 8.94 7.68 8.92 7.68 8.90H7.69C7.70 8.90 7.71 8.91 7.72 8.90C7.73 8.90 7.74 8.90 7.75 8.89H7.77C7.85 8.88 7.83 8.85 7.88 8.81C7.90 8.80 7.93 8.80 7.95 8.79C7.97 8.80 7.99 8.83 8.03 8.84C8.05 8.85 8.14 8.87 8.15 8.88C8.17 8.89 8.18 8.91 8.19 8.92C8.24 8.95 8.21 8.90 8.26 8.91C8.31 8.92 8.35 8.96 8.39 8.98L8.43 8.98C8.44 8.98 8.51 8.96 8.52 8.96L8.55 8.98C8.56 8.98 8.57 8.96 8.58 8.96C8.61 8.96 8.61 8.98 8.66 8.97C8.66 8.97 8.68 8.85 8.70 8.84C8.71 8.84 8.75 8.87 8.75 8.87C8.77 8.88 8.75 8.85 8.75 8.85C8.75 8.84 8.72 8.76 8.73 8.75C8.73 8.75 8.75 8.76 8.76 8.76C8.78 8.75 8.81 8.74 8.83 8.72L8.87 8.67C8.87 8.66 8.86 8.64 8.87 8.63L8.90 8.61C8.92 8.59 8.92 8.57 8.94 8.56C9.02 8.55 9.04 8.49 9.11 8.48H9.14L9.15 8.51C9.15 8.51 9.20 8.54 9.21 8.54C9.22 8.54 9.22 8.53 9.23 8.52C9.24 8.53 9.28 8.50 9.28 8.49C9.28 8.49 9.28 8.48 9.28 8.47C9.30 8.45 9.32 8.43 9.34 8.42H9.39C9.40 8.43 9.40 8.44 9.41 8.44H9.46C9.46 8.44 9.47 8.42 9.48 8.42Z" fill="#D0A650"/>
<path fill-rule="evenodd" clip-rule="evenodd" d="M10.57 3.46L10.80 2.75H10.80L11.03 3.46H11.78L11.17 3.90L11.40 4.61L10.80 4.17L10.2 4.61L10.43 3.90L9.82 3.46H10.57ZM8.22 3.87L8.44 3.16L8.68 3.87H9.42L8.82 4.31L9.05 5.02L8.45 4.58L7.84 5.02L8.07 4.31L7.47 3.87H8.22ZM6.44 4.69L6.21 3.98L5.98 4.69H5.23L5.84 5.13L5.61 5.84L6.21 5.40L6.82 5.84L6.58 5.13L7.19 4.69H6.44ZM13.42 3.46L13.19 2.75H13.19L12.96 3.46H12.21L12.82 3.90L12.59 4.61L13.19 4.17L13.8 4.61L13.56 3.90L14.17 3.46H13.42ZM15.77 3.87L15.55 3.16L15.31 3.87H14.57L15.17 4.31L14.94 5.02L15.54 4.58L16.15 5.02L15.92 4.31L16.52 3.87H15.77ZM18.02 4.69L17.79 3.98V3.99L17.56 4.69H16.81L17.42 5.13L17.19 5.85L17.79 5.40L18.39 5.84L18.16 5.13L18.77 4.69H18.02Z" fill="white"/>
</g>
<rect x="0.25" y="0.25" width="23.5" height="17.5" rx="1.75" stroke="#DDE0EA" stroke-width="0.5" style="fill-opacity:0"/>
<defs>
<clipPath id="clip0_1257_40672">
<rect width="24" height="18" rx="2" fill="white"/>
</clipPath>
</defs>
</svg>
