<svg width="24" height="18" viewBox="0 0 24 18" fill="none" xmlns="http://www.w3.org/2000/svg">
<g clip-path="url(#clip0_1002_15)">
<g clip-path="url(#clip1_1002_15)">
<rect width="24" height="18" fill="#F93939"/>
<path d="M24 0H0V18H24V0Z" fill="#FF0000"/>
<path fill-rule="evenodd" clip-rule="evenodd" d="M6.69531 9.17969C7.17188 8.59766 8.16797 9.16406 8.98047 8.74609C8.01562 8.80078 7.49219 8.28125 6.73438 8.35547C7.51953 7.87109 8.19141 8.51562 9.07031 8.25781C7.90625 8.16016 7.95703 7.63672 6.89453 7.5625C7.83594 7.16016 8.30078 7.97656 9.22656 7.78906C8.13672 7.54297 7.99609 6.90234 7.1875 6.76562C8.36719 6.58984 8.28906 7.28516 9.44531 7.36719C8.27344 6.86719 8.57812 6.42578 7.59766 6.04297C8.69922 6.01953 8.625 6.78125 9.74219 6.98047C8.78516 6.375 8.90234 5.82031 8.11719 5.39062C9.05078 5.40625 9.13672 6.35938 10.0898 6.65625C9.24219 5.98438 9.46484 5.41406 8.73438 4.8125C9.66016 5.03125 9.52344 5.85547 10.4922 6.37891C9.77344 5.58594 10.0469 5.01562 9.42578 4.36719C10.3203 4.65234 9.97656 5.43359 10.9023 6.17969C10.375 5.30469 10.7031 4.74609 10.1797 4.01172C11.0078 4.4375 10.6055 5.23828 11.375 6.03125C11.0117 5.13672 11.375 4.58203 11.0039 3.78516C11.7148 4.3125 11.293 5.16797 11.8672 5.98438C11.6562 4.85938 12.1406 4.67578 11.9883 3.69141C12.5273 4.35156 11.9258 5.01172 12.3398 5.98828C12.2891 4.87891 12.8789 4.62109 12.7773 3.73828C13.3086 4.53125 12.4766 5.22266 12.8242 6.07422C12.9141 5.02734 13.6016 4.75391 13.6133 3.9375C14.0352 4.6875 13.1211 5.22656 13.2695 6.22266C13.5664 5.125 14.3008 4.99219 14.3945 4.25391C14.6445 5.11719 13.6406 5.51953 13.6992 6.48438C14 5.50781 14.918 5.39453 15.1055 4.67578C15.2227 5.58984 14.3203 5.75391 14.0625 6.76953C14.5391 5.94141 15.3711 5.875 15.7422 5.22266C15.7148 6.12891 14.6953 6.24609 14.3828 7.09375C14.9688 6.375 15.707 6.49609 16.2969 5.85938C16.2305 6.67969 15.1953 6.63281 14.6445 7.48047C15.2773 6.89453 16.2383 7.07031 16.7266 6.5625C16.7031 7.28906 15.4297 7.23047 14.8281 7.88281C15.5664 7.47266 16.5078 7.71484 17.0508 7.33594C16.9531 7.96875 15.6094 7.82422 14.9648 8.32031C15.8516 8.07422 16.5391 8.45312 17.25 8.17969C16.9023 8.79688 15.6836 8.40625 15.0352 8.80859C15.8086 8.67578 16.625 9.14453 17.3242 8.99219C17.0977 9.52734 15.7578 8.95703 15.0391 9.29297C15.8984 9.28516 16.457 9.83594 17.2539 9.79688C16.8242 10.2852 15.6484 9.61719 14.9609 9.73047C15.8008 9.90625 16.4375 10.5977 17.0703 10.6328C16.5469 11.0273 15.5781 10.1211 14.7852 10.2344C15.6016 10.4531 16.2852 11.375 16.75 11.3984C16.2461 11.7422 15.2539 10.6055 14.5742 10.6484C15.4023 11.0195 15.7773 11.9688 16.3242 12.1016C15.6523 12.3164 14.9922 11.0742 14.2695 11.0273C15.1055 11.5547 15.1523 12.3633 15.7969 12.7227C15.1172 12.8867 14.6367 11.4844 13.9219 11.3672C14.6094 11.8672 14.7148 12.9492 15.168 13.2852C14.4766 13.3203 14.2266 11.8555 13.5195 11.6445C14.125 12.1484 13.9805 13.2461 14.4531 13.7188C13.7344 13.5664 13.8281 12.2891 13.0781 11.8594C13.6172 12.5391 13.3438 13.5078 13.6953 14.0508C12.9922 13.7695 13.2969 12.625 12.6328 11.9766C12.9922 12.7031 12.6055 13.5469 12.8906 14.2461C12.2539 13.9336 12.6797 12.5781 12.1914 12.043C12.418 12.8789 12.0039 13.5703 12.1719 14.3203C11.5156 13.5625 12.2695 12.8008 11.7031 12.0312C11.8516 12.9141 11.2344 13.5312 11.332 14.2695C10.8125 13.6641 11.6133 12.6992 11.207 11.9336C11.293 12.8047 10.4961 13.5664 10.5508 14.1133C10.1289 13.4102 11.0195 12.582 10.7773 11.7852C10.7305 12.6133 9.92188 13.0625 9.76953 13.8203C9.5 12.9883 10.4609 12.3867 10.375 11.5664C10.1016 12.3438 9.32031 12.6562 9.04688 13.4102C8.82031 12.5781 9.96094 12.1406 9.98828 11.2695C9.63672 12.082 8.70312 12.2656 8.39453 12.8906C8.28125 12.0664 9.58203 11.6953 9.63281 10.9141C9.21094 11.6641 8.19141 11.6953 7.83984 12.293C7.78906 11.4727 9.16016 11.3711 9.375 10.5078C8.95703 11.1484 7.83984 11.0664 7.37109 11.5859C7.44531 10.8242 8.93359 10.7773 9.17188 10.0898C8.61719 10.625 7.58984 10.4062 7.01172 10.8281C7.33203 10.0742 8.73047 10.2344 9.04297 9.69141C8.42578 10.0117 7.33203 9.69922 6.79297 10.0234C7.28516 9.3125 8.36719 9.73828 8.98438 9.25C7.98438 9.39453 7.38281 8.99609 6.69141 9.17969H6.69531Z" fill="#FFFF00"/>
<path fill-rule="evenodd" clip-rule="evenodd" d="M15.5 9.00391C15.5 9.92969 15.1328 10.8164 14.4805 11.4727C13.8242 12.125 12.9375 12.4922 12.0117 12.4922C11.0859 12.4922 10.1992 12.125 9.54297 11.4727C8.89062 10.8164 8.52344 9.92969 8.52344 9.00391C8.52344 8.07812 8.89062 7.19141 9.54297 6.53906C10.1992 5.88281 11.0859 5.51562 12.0078 5.51562C12.9336 5.51562 13.8203 5.88281 14.4766 6.53906C15.1289 7.19141 15.4961 8.07812 15.4961 9.00391H15.5Z" fill="#FFFF00"/>
<path fill-rule="evenodd" clip-rule="evenodd" d="M15.0508 9.01172C15.0508 9.81641 14.7305 10.5859 14.1602 11.1562C13.5938 11.7266 12.8203 12.043 12.0156 12.043C11.2109 12.043 10.4414 11.7266 9.87109 11.1562C9.30078 10.5859 8.98438 9.81641 8.98438 9.01172C8.98438 8.20703 9.30078 7.43359 9.87109 6.86328C10.4414 6.29688 11.2109 5.97656 12.0156 5.97656C12.8203 5.97656 13.5938 6.29688 14.1602 6.86328C14.7305 7.43359 15.0508 8.20703 15.0508 9.01172Z" fill="#FF0000"/>
<path fill-rule="evenodd" clip-rule="evenodd" d="M14.6289 9.01953C14.6289 9.70703 14.3555 10.3711 13.8672 10.8594C13.3789 11.3477 12.7148 11.6211 12.0234 11.6211C11.332 11.6211 10.6719 11.3477 10.1797 10.8594C9.69141 10.3711 9.41797 9.70703 9.41797 9.01953C9.41797 8.32812 9.69141 7.66406 10.1797 7.17578C10.6719 6.6875 11.332 6.41406 12.0234 6.41406C12.7148 6.41406 13.3789 6.6875 13.8672 7.17578C14.3555 7.66406 14.6289 8.32812 14.6289 9.01953Z" fill="#FFFF00"/>
<path fill-rule="evenodd" clip-rule="evenodd" d="M9.80469 7.3125C10.5273 7.29297 11.4219 7.36328 12.0156 7.83203C12.6523 7.4375 13.3984 7.26172 14.1445 7.33203L14.5312 8.03516C13.9297 7.98047 13.3242 8.08203 12.7734 8.32422C13.168 8.61719 13.4844 9 13.6953 9.44141C13.9102 9.88281 14.0078 10.3711 13.9883 10.8594C13.8945 10.9805 13.7422 11.1094 13.6484 11.2305C13.7891 10.2266 13.2617 9.10938 12.4922 8.52344C13.1172 9.42188 13.4844 10.2305 13.3828 11.3477L13.0312 11.5742C13.1953 10.5898 12.9609 9.42969 12.2344 8.76172C12.6562 9.375 13.0703 10.4844 12.8125 11.6094C12.6992 11.6445 12.5234 11.7383 12.4102 11.7695C12.5469 11.3086 12.5859 10.8242 12.5195 10.3477C12.4531 9.86719 12.2891 9.41016 12.0312 9.00391C11.5469 9.69922 11.3867 10.7617 11.6602 11.7461C11.5273 11.7109 11.4258 11.668 11.2891 11.6367C11.0898 10.582 11.3672 9.38672 11.8477 8.76562C11.3555 9.05078 10.8945 10.2656 11.0234 11.5078L10.6992 11.3555C10.5391 10.4297 10.957 9.22656 11.5586 8.52734C10.8789 8.95703 10.3203 10.0156 10.418 11.1523C10.3125 11.0586 10.2148 11.0156 10.1094 10.918C9.99219 9.92969 10.5664 8.92969 11.2383 8.33203C10.6719 8.07422 10.1836 8.02734 9.48047 8.03516C9.58984 7.80859 9.69141 7.54297 9.80469 7.30859V7.3125Z" fill="#FF0000"/>
</g>
</g>
<rect x="0.25" y="0.25" width="23.5" height="17.5" rx="1.75" stroke="#DDE0EA" stroke-width="0.5" style="fill-opacity:0"/>
<defs>
<clipPath id="clip0_1002_15">
<rect width="24" height="18" rx="2" fill="white"/>
</clipPath>
<clipPath id="clip1_1002_15">
<rect width="24" height="18" fill="white"/>
</clipPath>
</defs>
</svg>
