<svg width="24" height="18" viewBox="0 0 24 18" fill="none" xmlns="http://www.w3.org/2000/svg">
<g clip-path="url(#clip0_1257_40753)">
<path fill-rule="evenodd" clip-rule="evenodd" d="M0 13.5H24V18H0V13.5ZM0 0H24V4.5H0V0Z" fill="#EE161F"/>
<path fill-rule="evenodd" clip-rule="evenodd" d="M0 4.5H24V13.5H0V4.5Z" fill="white"/>
<path d="M11.8633 4.57031C11.5898 5.11328 11.4062 5.11328 10.9492 5.48438C10.7656 5.66406 10.4922 5.75391 10.8555 5.94141C10.4883 6.12109 10.3047 6.21094 10.1211 6.57812L10.2148 6.66797C10.2148 6.66797 10.5664 6.5 10.5781 6.57812C10.6445 6.65234 10.1211 6.92969 10.0547 6.97656L9.66797 7.22266C9.20703 7.58203 8.92969 7.49219 8.66016 8.03906L9.57422 7.94922C9.75781 8.58984 9.11719 8.67969 8.66016 8.95312L7.92578 9.41016C8.11328 10.0508 8.66016 9.68359 9.11719 9.50391L9.20703 9.59375V9.77734L8.29297 10.2344C8.29297 10.2344 7.21094 10.8516 7.19531 10.875C7.1875 10.9102 7.19531 11.0586 7.19531 11.0586C7.55859 11.1484 8.10938 11.2383 8.47656 11.0586C8.93359 10.875 9.02734 10.6914 9.57422 10.6914C9.04688 11.1016 8.41406 11.3555 7.74609 11.4219V11.7891C8.29297 11.7891 8.66016 11.7891 9.11719 11.6953L10.3047 11.332C10.5781 11.332 10.8555 11.6055 10.7617 11.8789C10.4922 12.8867 9.39062 12.7031 9.02734 13.5234L10.4883 12.9727C10.8555 12.7891 11.2188 12.6094 11.6758 12.7031C12.2266 12.8867 12.2266 13.25 12.957 13.4336L12.7734 12.9766C12.957 13.0664 13.1406 13.0664 13.3242 13.1602C13.7812 13.3398 13.875 13.5234 14.4219 13.4336C13.9648 12.8867 13.875 12.9766 13.5078 12.6094C13.1445 12.0625 12.957 11.2383 13.5078 11.1484L14.1484 11.332C14.7891 11.4219 14.7891 11.2383 15.7031 11.6055C16.2539 11.7891 16.4375 12.0625 17.0742 11.8789C16.8008 11.2383 15.7969 10.7812 15.1523 10.5977C15.8867 10.1445 15.7031 10.7812 16.7109 10.5078V10.3242C15.9844 9.77344 15.707 9.31641 14.6992 9.31641L16.2578 9.13281V8.94922C16.2578 8.94922 14.7227 8.55078 14.6875 8.53125C14.6953 8.48828 14.7344 8.41797 14.8359 8.375C15.1289 8.5625 16.0078 8.54297 16.0586 8.53906C16.0312 8.31641 15.6133 8.12891 15.2539 7.94531C15.2539 7.94531 13.6797 6.98047 13.6719 6.89453C13.707 6.64844 14.3164 6.93359 14.9727 7.12109C14.793 6.75781 14.4258 6.57422 14.0586 6.48438L14.6094 6.39062C14.2422 5.57031 13.3281 5.66016 12.7812 5.29297C12.4102 5.01953 12.4102 4.83594 11.8633 4.56641V4.57031Z" fill="#00A850"/>
<path fill-rule="evenodd" clip-rule="evenodd" d="M10.875 10.6523C10.9414 10.4375 11.0312 10.2461 10.6211 10.0586C10.2148 9.87109 10.8242 10.8008 10.875 10.6562V10.6523ZM11.3555 10.2188C11.2773 10.2305 11.2305 10.5273 11.3945 10.6133C11.5781 10.6406 11.4297 10.2227 11.3555 10.2188ZM11.832 10.1836C11.7461 10.2148 11.7422 10.6367 12.043 10.5586C12.3438 10.4844 12.043 10.1523 11.832 10.1875V10.1836ZM12.3867 9.10547C12.4492 9 12.3828 8.57812 12.125 8.75391C11.8672 8.93359 12.3008 9.13281 12.3867 9.10547ZM11.8242 8.75391C11.9062 8.72266 11.9102 8.46094 11.6836 8.53125C11.4609 8.59766 11.7656 8.80859 11.8242 8.75391ZM11.3164 8.85547C11.3164 8.85547 11.1602 8.63672 11.0352 8.68359C10.8867 8.83203 11.3281 8.85938 11.3164 8.85547ZM9.57422 9.55078C9.64062 9.55859 10.1367 9.47266 10.3086 9.27734C10.4805 9.08594 9.42578 9.35938 9.42578 9.36328C9.42578 9.36719 9.52344 9.53516 9.57422 9.55078ZM14.5352 8.32031C14.5586 8.27734 14.2695 8.07031 14.0977 8.15234C14.0547 8.30469 14.5352 8.35156 14.5352 8.32031ZM13.5586 7.82813C13.6133 7.75391 13.4336 7.43359 13.0742 7.61328C12.7188 7.78516 13.4531 7.95703 13.5586 7.83203V7.82813ZM12.4297 7.64453C12.4297 7.64453 12.5156 7.35547 12.7305 7.41016C12.9766 7.59766 12.4414 7.65234 12.4297 7.64453ZM12.2188 7.42578C12.1836 7.34375 11.9609 7.39063 11.7031 7.5625C11.4453 7.72656 12.2969 7.61328 12.2188 7.42188V7.42578ZM12.875 6.64844C12.875 6.64844 13.1055 6.54297 13.1758 6.64844C13.2695 6.80078 12.8711 6.64844 12.875 6.64844ZM12.6836 6.54688C12.6367 6.45312 12.3828 6.44531 12.3906 6.58203C12.3477 6.6875 12.7227 6.66406 12.6836 6.54688ZM12.0781 6.54688C12.0508 6.49219 11.6914 6.54688 11.5859 6.76563C11.7617 6.84766 12.1602 6.68359 12.0781 6.54688ZM11.3047 6.76953C11.3047 6.76953 10.832 7.05859 10.8008 7.26953C10.8164 7.45313 11.3906 6.94141 11.3906 6.94141C11.3906 6.94141 11.4414 6.73438 11.3086 6.76953H11.3047ZM10.7812 6.50391C10.793 6.44531 11.0156 6.30859 11.0352 6.31641C11.0508 6.37891 10.8555 6.53906 10.7812 6.50391ZM10.9297 7.61328C10.9414 7.52734 10.3672 7.53516 10.582 7.79688C10.7656 8.01953 10.9688 7.65234 10.9297 7.61328ZM10.4023 7.99219C10.375 7.93359 10.332 7.78125 10.2578 7.76562C10.1914 7.76562 9.84375 7.83594 9.81641 7.89453C9.80078 7.9375 9.96094 8.22266 10.0117 8.23047C10.0781 8.25391 10.3984 8.01953 10.4062 7.99219H10.4023ZM13.5117 9.93359C13.5273 9.86719 14.1211 9.66797 14.3203 9.86328C14.5586 10.1875 13.4961 10.0352 13.5117 9.93359ZM15.1289 10.3164C15.2578 10.0977 14.7305 9.83594 14.5117 10.0859C14.5859 10.3867 15.0234 10.4961 15.1289 10.3164Z" fill="white"/>
</g>
<rect x="0.25" y="0.25" width="23.5" height="17.5" rx="1.75" stroke="#DDE0EA" stroke-width="0.5" style="fill-opacity:0"/>
<defs>
<clipPath id="clip0_1257_40753">
<rect width="24" height="18" rx="2" fill="white"/>
</clipPath>
</defs>
</svg>
