<svg width="24" height="18" viewBox="0 0 24 18" fill="none" xmlns="http://www.w3.org/2000/svg">
<g clip-path="url(#clip0_1257_40762)">
<path d="M0 0H24V18H0V0Z" fill="#239E46"/>
<path d="M0 0H24V13.5H0V0Z" fill="black"/>
<path d="M0 0H24V4.5H0V0Z" fill="#E70013"/>
<path d="M13.59 7.4088C13.2977 7.20021 12.9536 7.07617 12.5954 7.05029C12.2372 7.0244 11.8789 7.09767 11.5596 7.26206C11.2404 7.42644 10.9726 7.6756 10.7856 7.98217C10.5986 8.28875 10.4997 8.64091 10.4997 9C10.4997 9.35909 10.5986 9.71125 10.7856 10.0178C10.9726 10.3244 11.2404 10.5736 11.5596 10.7379C11.8789 10.9023 12.2372 10.9756 12.5954 10.9497C12.9536 10.9238 13.2977 10.7998 13.59 10.5912C13.2753 10.9058 12.8744 11.12 12.4379 11.2068C12.0015 11.2936 11.5491 11.249 11.138 11.0787C10.7269 10.9084 10.3756 10.62 10.1284 10.25C9.88114 9.87997 9.7492 9.44498 9.7492 9C9.7492 8.55502 9.88114 8.12003 10.1284 7.75003C10.3756 7.38003 10.7269 7.09164 11.138 6.92133C11.5491 6.75101 12.0015 6.70642 12.4379 6.79319C12.8744 6.87996 13.2753 7.09419 13.59 7.4088ZM13.0932 9L16.1208 8.0172L14.2488 10.5912V7.4088L16.1208 9.9828L13.0932 9Z" fill="white"/>
</g>
<rect x="0.25" y="0.25" width="23.5" height="17.5" rx="1.75" stroke="#DDE0EA" stroke-width="0.5"  style="fill-opacity:0"/>
<defs>
<clipPath id="clip0_1257_40762">
<rect width="24" height="18" rx="2" fill="white"/>
</clipPath>
</defs>
</svg>
