<svg width="24" height="18" viewBox="0 0 24 18" fill="none" xmlns="http://www.w3.org/2000/svg">
<g clip-path="url(#clip0_1217_3894)">
<g clip-path="url(#clip1_1217_3894)">
<path d="M0 0H24V9H0V0Z" fill="#002B7F"/>
<path d="M0 9H24V18H0V9Z" fill="#CE1126"/>
<path d="M6.49 3.66L6.43 5.54H4.53C4.30 5.08 4.10 4.70 4.10 4.17C4.10 3.74 4.45 3.39 4.94 3.39C5.47 3.39 6.05 3.57 6.49 3.66Z" fill="#FFD83D"/>
<path d="M6.82 3.66L6.88 5.54H8.78C9.01 5.08 9.21 4.70 9.21 4.17C9.21 3.74 8.86 3.39 8.37 3.39C7.84 3.39 7.26 3.57 6.82 3.66Z" fill="#FFD83D"/>
<path d="M6.66 1.59L6.50 1.88L6.66 2.17L6.81 1.88L6.66 1.58V1.59ZM6.66 2.32L6.50 2.61L6.66 2.90L6.80 2.60L6.65 2.32L6.66 2.32ZM6.10 2.25L6.35 2.40L6.59 2.25L6.35 2.09L6.10 2.25ZM6.72 2.25L6.96 2.40L7.21 2.25L6.96 2.09L6.72 2.25H6.72Z" fill="#FFD83D"/>
<path d="M6.66 3.31C6.83 3.31 6.97 3.17 6.97 3C6.97 2.82 6.83 2.68 6.66 2.68C6.48 2.68 6.34 2.82 6.34 3C6.34 3.17 6.48 3.31 6.66 3.31Z" fill="#FFD83D"/>
<path d="M6.66 4.64C6.26 4.64 5.98 4.82 5.96 5.28C5.87 5.12 5.47 4.59 5.10 4.66C4.87 4.71 4.67 5.01 4.71 5.37C4.53 4.84 3.99 4.75 3.59 5.07C3.94 5.35 4.10 6.20 4.39 6.57H8.91C9.21 6.20 9.36 5.35 9.71 5.07C9.32 4.75 8.78 4.84 8.60 5.37C8.63 5.01 8.43 4.71 8.21 4.66C7.84 4.59 7.44 5.12 7.34 5.28C7.33 4.82 7.04 4.64 6.65 4.64H6.66Z" fill="#FFD83D"/>
<path fill-rule="evenodd" clip-rule="evenodd" d="M6.65 4.61C6.65 4.61 6.65 4.61 6.65 4.61L6.66 4.61C6.67 4.61 6.69 4.62 6.69 4.64C6.69 4.65 6.67 4.67 6.66 4.67C6.65 4.67 6.65 4.67 6.65 4.67C6.46 4.67 6.30 4.71 6.19 4.81C6.07 4.90 6.00 5.06 5.99 5.29C5.99 5.30 5.98 5.31 5.97 5.31C5.96 5.32 5.94 5.31 5.94 5.30C5.89 5.22 5.77 5.05 5.62 4.91C5.46 4.76 5.27 4.66 5.10 4.69C5.00 4.71 4.90 4.79 4.83 4.91C4.76 5.03 4.72 5.19 4.74 5.36C4.74 5.38 4.73 5.39 4.72 5.40C4.70 5.40 4.69 5.39 4.68 5.38C4.59 5.12 4.42 4.97 4.22 4.93C4.04 4.88 3.82 4.93 3.64 5.07C3.72 5.14 3.79 5.24 3.85 5.35C3.92 5.48 3.98 5.63 4.04 5.77C4.06 5.81 4.07 5.85 4.09 5.88C4.13 5.99 4.18 6.10 4.22 6.20C4.28 6.33 4.34 6.45 4.41 6.54H8.90C8.97 6.45 9.03 6.33 9.09 6.20C9.13 6.10 9.18 5.99 9.22 5.88C9.24 5.84 9.25 5.81 9.27 5.77C9.32 5.63 9.39 5.48 9.46 5.35C9.52 5.24 9.59 5.14 9.67 5.07C9.48 4.93 9.27 4.88 9.08 4.93C8.89 4.97 8.72 5.12 8.63 5.38C8.62 5.39 8.61 5.40 8.59 5.40C8.58 5.39 8.57 5.38 8.57 5.36C8.58 5.19 8.54 5.04 8.47 4.91C8.40 4.79 8.30 4.71 8.20 4.69C8.03 4.66 7.85 4.76 7.69 4.91C7.54 5.05 7.41 5.22 7.37 5.30C7.36 5.31 7.35 5.32 7.34 5.31C7.32 5.31 7.31 5.30 7.31 5.29C7.31 5.06 7.23 4.91 7.12 4.81C7.00 4.71 6.84 4.67 6.65 4.67M6.66 4.61C6.85 4.61 7.03 4.65 7.16 4.76C7.27 4.86 7.34 5.00 7.37 5.19C7.43 5.10 7.53 4.97 7.65 4.86C7.81 4.72 8.01 4.60 8.22 4.63C8.34 4.66 8.45 4.75 8.52 4.88C8.58 4.98 8.62 5.10 8.63 5.22C8.73 5.03 8.89 4.91 9.07 4.87C9.29 4.82 9.53 4.88 9.73 5.04C9.74 5.05 9.74 5.06 9.74 5.07C9.74 5.07 9.74 5.08 9.73 5.09C9.65 5.16 9.58 5.26 9.51 5.38C9.44 5.51 9.38 5.65 9.32 5.80C9.31 5.83 9.29 5.86 9.28 5.90C9.23 6.01 9.19 6.12 9.14 6.23C9.08 6.36 9.01 6.49 8.94 6.58C8.93 6.59 8.92 6.60 8.91 6.60H4.39C4.38 6.60 4.38 6.59 4.37 6.58C4.29 6.49 4.23 6.36 4.17 6.23C4.12 6.13 4.08 6.01 4.03 5.90C4.02 5.87 4.00 5.83 3.99 5.80C3.93 5.65 3.87 5.51 3.80 5.38C3.73 5.26 3.66 5.16 3.57 5.09C3.57 5.08 3.56 5.07 3.56 5.07C3.56 5.06 3.57 5.05 3.57 5.04C3.78 4.88 4.02 4.82 4.24 4.87C4.42 4.91 4.57 5.03 4.68 5.22C4.69 5.09 4.73 4.98 4.78 4.88C4.86 4.75 4.97 4.66 5.09 4.63C5.29 4.60 5.50 4.72 5.66 4.86C5.78 4.97 5.88 5.10 5.94 5.19C5.96 5.00 6.04 4.86 6.15 4.76C6.28 4.65 6.45 4.61 6.65 4.61" fill="black"/>
<path d="M6.66 3.53C6.71 3.53 6.76 3.48 6.76 3.43C6.76 3.37 6.71 3.32 6.66 3.32C6.60 3.32 6.55 3.37 6.55 3.43C6.55 3.48 6.60 3.53 6.66 3.53Z" fill="#FFD83D"/>
<path d="M6.66 3.76C6.72 3.76 6.76 3.72 6.76 3.66C6.76 3.59 6.72 3.55 6.66 3.55C6.59 3.55 6.55 3.59 6.55 3.66C6.55 3.72 6.59 3.76 6.66 3.76Z" fill="#FFD83D"/>
<path d="M6.66 4.02C6.72 4.02 6.78 3.97 6.78 3.90C6.78 3.83 6.72 3.78 6.66 3.78C6.59 3.78 6.53 3.83 6.53 3.90C6.53 3.97 6.59 4.02 6.66 4.02Z" fill="#FFD83D"/>
<path d="M6.66 4.32C6.73 4.32 6.80 4.25 6.80 4.17C6.80 4.10 6.73 4.03 6.66 4.03C6.58 4.03 6.51 4.10 6.51 4.17C6.51 4.25 6.58 4.32 6.66 4.32Z" fill="#FFD83D"/>
<path d="M6.66 4.63C6.74 4.63 6.81 4.56 6.81 4.48C6.81 4.39 6.74 4.32 6.66 4.32C6.57 4.32 6.50 4.39 6.50 4.48C6.50 4.56 6.57 4.63 6.66 4.63Z" fill="#FFD83D"/>
</g>
</g>
<rect x="0.25" y="0.25" width="23.5" height="17.5" rx="1.75" stroke="#DDE0EA" stroke-width="0.5" style="fill-opacity:0"/>
<defs>
<clipPath id="clip0_1217_3894">
<rect width="24" height="18" rx="2" fill="white"/>
</clipPath>
<clipPath id="clip1_1217_3894">
<rect width="24" height="18" fill="white"/>
</clipPath>
</defs>
</svg>
