<svg width="24" height="18" viewBox="0 0 24 18" fill="none" xmlns="http://www.w3.org/2000/svg">
<g clip-path="url(#clip0_1259_79)">
<path d="M0 0H24V18H0V0Z" fill="#CC0000"/>
<path d="M0 0H24V1.28625H0V0Z" fill="#CC0000"/>
<path d="M0 1.28625H24V2.5725H0V1.28625Z" fill="white"/>
<path d="M0 2.5725H24V3.85875H0V2.5725Z" fill="#CC0000"/>
<path d="M0 3.85875H24V5.1375H0V3.85875Z" fill="white"/>
<path d="M0 5.14125H24V6.4275H0V5.14125Z" fill="#CC0000"/>
<path d="M0 6.4275H24V7.71375H0V6.4275Z" fill="white"/>
<path d="M0 7.71375H24V9H0V7.71375Z" fill="#CC0000"/>
<path d="M0 9H24V10.2862H0V9Z" fill="white"/>
<path d="M0 10.2862H24V11.5725H0V10.2862Z" fill="#CC0000"/>
<path d="M0 11.5725H24V12.8587H0V11.5725Z" fill="white"/>
<path d="M0 12.8587H24V14.1375H0V12.8587Z" fill="#CC0000"/>
<path d="M0 14.1413H24V15.4275H0V14.1413Z" fill="white"/>
<path d="M0 15.4275H24V16.7138H0V15.4275Z" fill="#CC0000"/>
<path d="M0 16.7138H24V18H0V16.7138Z" fill="white"/>
<path d="M0 0.01875H12V10.305H0V0.01875Z" fill="#000066"/>
<path d="M7.78125 2.7675L8.00625 4.29375L8.86875 3.01875L8.40375 4.48875L9.735 3.70875L8.68125 4.83375L10.2188 4.71375L8.7825 5.26875L10.2188 5.82375L8.68125 5.70375L9.735 6.82875L8.40375 6.04875L8.865 7.5225L8.0025 6.24375L7.7775 7.77L7.55625 6.24375L6.69375 7.51875L7.15875 6.04875L5.8275 6.82875L6.8775 5.70375L5.34 5.82375L6.78 5.26875L5.34375 4.71375L6.88125 4.83375L5.8275 3.70875L7.15875 4.48875L6.69375 3.015L7.55625 4.29375L7.78125 2.7675ZM6.5325 2.83125C6.12644 2.6506 5.68166 2.57432 5.23862 2.60935C4.79557 2.64438 4.3683 2.7896 3.99567 3.03181C3.62304 3.27402 3.31687 3.60553 3.10499 3.9962C2.89312 4.38688 2.78226 4.82432 2.7825 5.26875C2.78226 5.71318 2.89312 6.15062 3.10499 6.5413C3.31687 6.93197 3.62304 7.26348 3.99567 7.50569C4.3683 7.7479 4.79557 7.89312 5.23862 7.92815C5.68166 7.96317 6.12644 7.8869 6.5325 7.70625C6.08417 8.02829 5.55569 8.2204 5.00521 8.26142C4.45473 8.30244 3.90361 8.19079 3.4125 7.93875C2.92196 7.68636 2.5105 7.30361 2.22338 6.83256C1.93625 6.36151 1.78456 5.82041 1.785 5.26875C1.78518 4.71723 1.9374 4.17643 2.22492 3.70578C2.51244 3.23513 2.92413 2.85285 3.41477 2.60095C3.9054 2.34904 4.45598 2.23726 5.006 2.27789C5.55603 2.31852 6.08421 2.50999 6.5325 2.83125Z" fill="#FFCC00"/>
</g>
<rect x="0.25" y="0.25" width="23.5" height="17.5" rx="1.75" stroke="#DDE0EA" stroke-width="0.5"  style="fill-opacity:0"/>
<defs>
<clipPath id="clip0_1259_79">
<rect width="24" height="18" rx="2" fill="white"/>
</clipPath>
</defs>
</svg>
