<svg xmlns="http://www.w3.org/2000/svg" width="24" height="18" fill="none"><g clip-path="url(#a)"><g clip-path="url(#b)"><path fill="#FFDA2C" d="M0 0h24v18H0z"/><path fill="#1A47B8" fill-rule="evenodd" d="M0 0h8v18H0V0Z" clip-rule="evenodd"/><path fill="#AE6A3E" fill-rule="evenodd" d="M9.143 6h5.714v6H9.143V6Zm0 6L12 14.4l2.857-2.4H9.143Zm2.286-7.2h1.142V6H11.43V4.8Z" clip-rule="evenodd"/><path fill="#AF010D" fill-rule="evenodd" d="M10.286 7.2h3.428v2.4h-3.428V7.2Z" clip-rule="evenodd"/><path fill="#1A47B8" fill-rule="evenodd" d="M10.286 9.6h3.428v1.8h-3.428V9.6Zm0 1.8L12 12.6l1.714-1.2h-3.428Z" clip-rule="evenodd"/><path fill="#FFDA2C" fill-rule="evenodd" d="M12 8.4c.315 0 .571.257.571.606v1.188c0 .336-.265.606-.571.606-.315 0-.571-.257-.571-.606V9.006c0-.336.265-.606.571-.606Z" clip-rule="evenodd"/><path fill="#AF010D" fill-rule="evenodd" d="M16 0h8v18h-8V0Z" clip-rule="evenodd"/></g></g><rect width="23.5" height="17.5" x=".25" y=".25" stroke="#DDE0EA" stroke-width=".5" rx="1.75"/><defs><clipPath id="a"><rect width="24" height="18" fill="#fff" rx="2"/></clipPath><clipPath id="b"><path fill="#fff" d="M0 0h24v18H0z"/></clipPath></defs></svg>