<svg width="24" height="18" viewBox="0 0 24 18" fill="none" xmlns="http://www.w3.org/2000/svg">
<g clip-path="url(#clip0_1221_3879)">
<g clip-path="url(#clip1_1221_3879)">
<path d="M0 0H24V18H0V0Z" fill="black"/>
<path d="M0 0H24V6.1875H0V0Z" fill="white"/>
<path d="M0 0H24V5.625H0V0Z" fill="#007168"/>
<path d="M0 11.805H24V18H0V11.805Z" fill="white"/>
<path d="M0 12.375H24V18H0V12.375Z" fill="#FCE100"/>
<path d="M0 0V18L11.8125 9L0 0Z" fill="#D21034"/>
<path d="M6.13109 12.3746L3.93647 10.7678L1.7448 12.375L2.59475 9.7913L0.388916 8.20358L3.10883 8.21354L3.93722 5.62502L4.76822 8.21492L7.48604 8.20283L5.27972 9.79352L6.13109 12.3746Z" fill="#FCE100"/>
<path fill-rule="evenodd" clip-rule="evenodd" d="M2.03172 10.5728H3.61269C3.73989 10.7155 4.02369 10.7737 4.29402 10.5712C4.78956 10.2998 5.74821 10.5728 5.74821 10.5728L5.93697 10.3723L5.47683 8.86209L5.31165 8.68512C5.31165 8.68512 4.95774 8.47278 4.2852 8.54355C3.61266 8.61432 3.37671 8.51997 3.37671 8.51997C3.37671 8.51997 2.78682 8.59077 2.62161 8.67333C2.60349 8.68803 2.43285 8.86209 2.43285 8.86209L2.03172 10.5728Z" fill="white"/>
<path fill-rule="evenodd" clip-rule="evenodd" d="M3.38547 8.49806L3.37671 8.51997C3.38548 8.49803 3.38547 8.49806 3.38547 8.49806L3.38749 8.4988C3.38749 8.4988 3.39169 8.50026 3.39529 8.5014C3.4025 8.50366 3.4138 8.50692 3.42958 8.51067C3.46114 8.51815 3.51064 8.52757 3.58122 8.53484C3.72239 8.54939 3.94785 8.55534 4.28277 8.5201C4.62198 8.48441 4.88142 8.52006 5.05654 8.56496C5.14407 8.5874 5.21049 8.61214 5.25523 8.63139C5.27759 8.64102 5.29454 8.64927 5.306 8.65518C5.31173 8.65814 5.31609 8.66051 5.31907 8.66217L5.3225 8.66411L5.32343 8.66466C5.32343 8.66466 5.3238 8.66486 5.31165 8.68512L5.29442 8.70129L5.29684 8.70388C5.2943 8.70246 5.28961 8.69989 5.28434 8.69718C5.27382 8.69175 5.25787 8.68397 5.23655 8.6748C5.19391 8.65645 5.12981 8.63252 5.0448 8.61073C4.87483 8.56715 4.62104 8.53202 4.28772 8.56709C3.95009 8.60262 3.72131 8.59678 3.57638 8.58185C3.5039 8.57438 3.45237 8.56463 3.41868 8.55664C3.40183 8.55264 3.38944 8.54909 3.38112 8.54647C3.37829 8.54558 3.37594 8.5448 3.37404 8.54415L3.37791 8.54367L3.37955 8.54348C3.37955 8.54348 3.37952 8.54343 3.37671 8.51997L3.37394 8.49656C3.37785 8.49609 3.38181 8.49661 3.38547 8.49806ZM2.63478 8.69325C2.67365 8.67439 2.73792 8.65543 2.81468 8.6376C2.89254 8.61951 2.98122 8.60301 3.06504 8.58904C3.14881 8.57508 3.22747 8.56368 3.28521 8.55578C3.31407 8.55182 3.33768 8.54874 3.35407 8.54665C3.36227 8.54561 3.36865 8.54481 3.37299 8.54428L3.37404 8.54415M2.63478 8.69325C2.62975 8.69776 2.61777 8.70937 2.60115 8.72585C2.58268 8.74416 2.55971 8.76723 2.53726 8.7899C2.51483 8.81255 2.49295 8.83474 2.47668 8.85128C2.46855 8.85955 2.46182 8.8664 2.45712 8.87118L2.45439 8.87397L2.06157 10.5493H3.61273C3.61947 10.5493 3.62589 10.5521 3.63037 10.5572C3.74826 10.6894 4.01794 10.7486 4.2799 10.5523L4.28272 10.5505C4.53749 10.411 4.90767 10.4124 5.20966 10.4468C5.36146 10.4641 5.4976 10.4899 5.59577 10.5114C5.64487 10.5221 5.68452 10.5318 5.71194 10.5388C5.724 10.5419 5.7337 10.5444 5.74079 10.5463L5.91042 10.3661L5.45587 8.87426L5.29684 8.70388L5.29882 8.705C5.29882 8.705 5.29949 8.70538 5.31165 8.68512L5.32343 8.66466C5.32532 8.66579 5.32746 8.66743 5.32896 8.66905L5.49414 8.84602C5.4966 8.84865 5.49842 8.85181 5.49947 8.85525L5.95961 10.3654C5.96208 10.3736 5.96002 10.3824 5.95422 10.3885L5.76546 10.5891C5.75941 10.5955 5.75027 10.598 5.74178 10.5956L5.73916 10.5949C5.73916 10.5949 5.73471 10.5936 5.73119 10.5927C5.72416 10.5908 5.71373 10.588 5.70025 10.5846C5.6733 10.5777 5.63419 10.5682 5.58567 10.5575C5.48861 10.5363 5.35411 10.5108 5.20431 10.4938C4.9037 10.4595 4.54761 10.4601 4.30686 10.5911C4.0334 10.7952 3.74174 10.7434 3.60237 10.5965H2.03176C2.02455 10.5965 2.01773 10.5932 2.01325 10.5876C2.00877 10.5819 2.00712 10.5745 2.00876 10.5675L2.40989 8.85674C2.41088 8.85254 2.413 8.84868 2.41602 8.8456L2.43285 8.86209C2.41598 8.84555 2.41602 8.8456 2.41602 8.8456L2.4234 8.83808C2.42811 8.83328 2.43485 8.82642 2.443 8.81814C2.45929 8.80158 2.48121 8.77935 2.5037 8.75664C2.52617 8.73395 2.54926 8.71076 2.56788 8.69229C2.58591 8.67443 2.60107 8.65965 2.60677 8.65503L2.61109 8.65224C2.65512 8.63024 2.72539 8.60983 2.80399 8.59157C2.8832 8.57317 2.97297 8.55648 3.05727 8.54243C3.14163 8.52837 3.22076 8.51691 3.2788 8.50896C3.30782 8.50499 3.33158 8.50189 3.3481 8.49978C3.35636 8.49873 3.3628 8.49793 3.36719 8.49739L3.3722 8.49677L3.37394 8.49656C3.37394 8.49656 3.37389 8.49651 3.37671 8.51997" fill="black"/>
<path fill-rule="evenodd" clip-rule="evenodd" d="M3.63435 10.5797C3.74024 10.6528 3.84139 10.6853 3.94288 10.6825C4.04469 10.6796 4.14953 10.6411 4.26247 10.5674C4.18785 10.477 4.08428 10.4063 3.96269 10.3515C3.86532 10.398 3.79037 10.4463 3.7356 10.4881C3.68441 10.5271 3.65154 10.5598 3.63435 10.5797ZM3.90515 10.3272C3.82255 10.3694 3.75697 10.4123 3.70695 10.4505C3.63338 10.5066 3.59205 10.5533 3.5805 10.5726C3.57423 10.583 3.57695 10.5965 3.58678 10.6038C3.70623 10.6915 3.82366 10.7331 3.94421 10.7297C4.06439 10.7263 4.18465 10.6783 4.31019 10.5924C4.31552 10.5887 4.31913 10.5831 4.32017 10.5767C4.32121 10.5703 4.3196 10.5638 4.31571 10.5586C4.24176 10.4607 4.13878 10.3847 4.01915 10.3258C4.031 10.3207 4.04315 10.3157 4.05558 10.3106C4.34322 10.1947 4.78695 10.1072 5.42628 10.1952C5.43921 10.197 5.45113 10.1879 5.45291 10.175C5.45469 10.1621 5.44565 10.1501 5.43272 10.1484C4.78601 10.0594 4.33389 10.1475 4.03792 10.2668C4.01138 10.2775 3.98611 10.2885 3.96207 10.2996C3.91511 10.2793 3.86606 10.2614 3.81558 10.2456C3.61007 10.1812 3.37826 10.1504 3.16117 10.1378C2.94394 10.1252 2.74056 10.1308 2.59156 10.1395C2.51703 10.1439 2.45604 10.149 2.41365 10.1531C2.39244 10.1551 2.37589 10.1568 2.36461 10.1581C2.35897 10.1587 2.35465 10.1592 2.35172 10.1596L2.3484 10.16L2.34725 10.1601C2.34725 10.1601 2.34722 10.1601 2.35015 10.1836L2.34725 10.1601C2.3343 10.1617 2.32509 10.1735 2.32671 10.1865C2.32833 10.1994 2.34014 10.2086 2.35308 10.207L2.35015 10.1836C2.35308 10.207 2.35308 10.207 2.35308 10.207L2.3541 10.2069L2.35727 10.2065C2.36009 10.2062 2.3643 10.2057 2.36983 10.2051C2.38088 10.2038 2.3972 10.2021 2.41815 10.2001C2.46004 10.1961 2.52044 10.191 2.59432 10.1867C2.74211 10.1781 2.94356 10.1726 3.15844 10.185C3.37346 10.1975 3.60104 10.2279 3.80146 10.2907C3.83702 10.3018 3.87166 10.314 3.90515 10.3272Z" fill="black"/>
<path fill-rule="evenodd" clip-rule="evenodd" d="M3.96669 8.64969C3.97974 8.64978 3.99024 8.66043 3.99015 8.67348L3.97836 10.3371C3.97827 10.3501 3.96761 10.3606 3.95457 10.3605C3.94152 10.3604 3.93102 10.3498 3.93111 10.3367L3.9429 8.67315C3.94299 8.6601 3.95364 8.6496 3.96669 8.64969ZM2.64241 8.65311C2.65513 8.65604 2.66306 8.66873 2.66012 8.68144L2.50298 9.36292C2.50005 9.37564 2.48737 9.38356 2.47466 9.38063C2.46194 9.3777 2.45401 9.36502 2.45694 9.3523L2.61408 8.67083C2.61701 8.65811 2.6297 8.65018 2.64241 8.65311ZM5.30659 8.67379C5.31935 8.67106 5.33191 8.67918 5.33464 8.69194L5.61781 10.0134C5.62055 10.0261 5.61242 10.0387 5.59966 10.0414C5.58691 10.0442 5.57435 10.036 5.57161 10.0233L5.28844 8.70184C5.28571 8.68909 5.29383 8.67653 5.30659 8.67379Z" fill="black"/>
<path fill-rule="evenodd" clip-rule="evenodd" d="M6.86938 6.41887C6.8783 6.41031 6.87911 6.39633 6.87125 6.38679C6.86338 6.37726 6.84949 6.3754 6.8394 6.38253L5.59782 7.25947L5.57938 7.24564L5.58081 7.24264L5.58302 7.23856C5.58579 7.23351 5.58997 7.2259 5.59248 7.21932C5.59668 7.20834 5.59886 7.19545 5.5957 7.17993C5.59268 7.16512 5.5851 7.14943 5.57262 7.1318L5.57149 7.13032C5.56323 7.1204 5.55352 7.11304 5.54238 7.10887C5.53122 7.10469 5.52001 7.10424 5.50957 7.10607C5.48962 7.10956 5.47177 7.12147 5.45804 7.13279C5.44389 7.14445 5.4313 7.15792 5.42231 7.16755C5.41966 7.17039 5.41743 7.17276 5.41555 7.17473C5.41046 7.17311 5.40376 7.17079 5.39584 7.1678C5.37838 7.16121 5.35562 7.15161 5.33211 7.13973C5.30852 7.12781 5.2847 7.11385 5.26481 7.09863C5.24458 7.08315 5.23021 7.06773 5.2232 7.0534C5.21848 7.04376 5.20786 7.03851 5.19734 7.04061C5.18682 7.04272 5.17904 7.05164 5.17839 7.06235L5.16666 7.25578L4.86125 7.54016L4.62873 7.52957C4.62223 7.52927 4.61589 7.53167 4.61122 7.5362L4.25854 7.87784C4.25581 7.88048 4.25376 7.88374 4.25256 7.88734L4.23514 7.93962L4.20817 7.89752C4.20466 7.89204 4.19904 7.88825 4.19265 7.88704C4.18626 7.88584 4.17965 7.88732 4.17438 7.89115C4.17065 7.89386 4.16419 7.90003 4.15762 7.90639C4.15031 7.91347 4.14081 7.92285 4.12996 7.93357L4.12617 7.93733C4.10505 7.95821 4.0792 7.98377 4.05351 8.00838C4.02616 8.03459 3.99948 8.05924 3.97916 8.07588C3.97276 8.08111 3.96738 8.08523 3.96305 8.08827L3.38646 7.43688L3.41613 7.32799C3.41826 7.32016 3.41623 7.31178 3.41073 7.3058L3.03606 6.89801C3.03341 6.89512 3.03008 6.89294 3.02638 6.89166C2.95581 6.86729 2.86128 6.8517 2.77716 6.88389C2.69156 6.91666 2.62295 6.99637 2.59928 7.14818C2.59756 7.15022 2.59437 7.15282 2.58849 7.15551C2.58031 7.15926 2.56886 7.16226 2.55431 7.16425C2.52523 7.16822 2.48833 7.16756 2.45112 7.16462C2.41417 7.16169 2.37812 7.15662 2.35122 7.15225C2.3378 7.15007 2.32671 7.14808 2.319 7.14663C2.31515 7.14591 2.31214 7.14533 2.31012 7.14493L2.30783 7.14447C2.30462 7.14381 2.30058 7.14367 2.29738 7.14436L2.14309 7.17742C2.13728 7.17866 2.13215 7.18205 2.12873 7.1869L1.25813 8.42119C1.25198 8.42992 1.25244 8.44169 1.25926 8.4499L1.74415 9.03397C1.7487 9.03946 1.75549 9.04259 1.76262 9.0425C1.76974 9.04242 1.77645 9.03911 1.78087 9.03352L2.7727 7.77721C2.77558 7.77356 2.77732 7.76915 2.7777 7.76452L2.80263 7.46335L2.97412 7.65511C2.9779 7.65934 2.98308 7.66207 2.98872 7.66279C3.05381 7.67115 3.11995 7.67311 3.18414 7.64607L3.74502 8.2721L3.66337 8.35178C3.65423 8.3607 3.65383 8.37525 3.66246 8.38466L3.75135 8.48156C3.75922 8.49014 3.77216 8.49171 3.78185 8.48525C3.79903 8.47381 3.81571 8.4613 3.83177 8.44925C3.84159 8.44188 3.85118 8.43468 3.86074 8.4278C3.86283 8.43082 3.865 8.43396 3.8672 8.43716L3.87275 8.4452C3.85613 8.45582 3.84108 8.46705 3.82671 8.47776C3.80944 8.49064 3.79266 8.50312 3.77474 8.51395C3.70127 8.46441 3.64366 8.40867 3.64834 8.32596C3.64887 8.31656 3.64378 8.30775 3.63538 8.30352C3.62697 8.29929 3.61686 8.30045 3.60963 8.30647L3.27903 8.58196C3.27488 8.58542 3.27205 8.59019 3.27099 8.59548L3.26162 8.6424L2.29253 9.44813L2.21122 9.45831C2.20017 9.45969 2.19158 9.46861 2.19062 9.47971L2.1686 9.73318C2.16778 9.74266 2.17273 9.75172 2.18116 9.75614C2.1896 9.76057 2.19986 9.75949 2.2072 9.75342L2.84638 9.22446C2.8518 9.21997 2.85494 9.2133 2.85494 9.20626V9.17952L2.88231 9.20233C2.89093 9.20952 2.90343 9.20964 2.91219 9.20263L3.38829 8.82178C3.38523 8.82428 3.38186 8.82735 3.37805 8.83058C3.36502 8.84161 3.34716 8.85726 3.32621 8.87589C3.28425 8.91318 3.2294 8.96285 3.17496 9.01246C3.12051 9.06208 3.0664 9.11169 3.02592 9.1489C3.00567 9.1675 2.98883 9.183 2.97705 9.19386L2.95854 9.21092C2.95516 9.21404 2.95276 9.21809 2.95165 9.22255L2.94246 9.25932L2.88544 9.3082L2.8565 9.28651C2.84751 9.27977 2.83502 9.28029 2.82663 9.28775L2.23823 9.81075H2.15908C2.15281 9.81075 2.1468 9.81323 2.14237 9.81767L1.81785 10.1422C1.73572 10.1496 1.65889 10.16 1.58365 10.2116L1.58139 10.2134L0.98919 10.7362C0.979528 10.7448 0.978487 10.7595 0.986851 10.7693L1.35864 11.2052C1.36032 11.2072 1.3623 11.2089 1.36452 11.2102C1.38924 11.2249 1.41407 11.2327 1.43931 11.2324C1.46456 11.2322 1.48816 11.2239 1.51042 11.2099C1.51252 11.2086 1.51441 11.2069 1.516 11.205L2.06701 10.5438L2.29836 10.2574C2.33505 10.2138 2.34921 10.165 2.34848 10.1201L2.77481 9.74127L2.85849 9.74932C2.87076 9.7505 2.88187 9.74204 2.88401 9.7299C2.88615 9.71776 2.8786 9.70602 2.86667 9.70293C2.85689 9.7004 2.84867 9.69753 2.84228 9.69431C2.83577 9.69103 2.8325 9.68806 2.83103 9.68603C2.83103 9.68603 2.82948 9.68329 2.82983 9.68058C2.83024 9.67744 2.832 9.67187 2.83762 9.66349L2.91531 9.60307L2.96617 9.66845L2.86443 9.78872H2.75419C2.74833 9.78872 2.74268 9.7909 2.73834 9.79483L2.50689 10.0042C2.5019 10.0087 2.49907 10.0152 2.49911 10.0219C2.49915 10.0286 2.50205 10.035 2.50709 10.0395L2.60376 10.1249L2.75401 10.5368C2.75653 10.5437 2.76213 10.549 2.76915 10.5512C2.77618 10.5534 2.78382 10.5522 2.78983 10.548L2.97718 10.4157C2.98536 10.4099 2.98901 10.3996 2.98629 10.39L2.86868 9.97298L3.1242 9.69613C3.1315 9.68823 3.13253 9.67638 3.12671 9.66733L3.03638 9.52686L3.07972 9.46909C3.08569 9.47274 3.09303 9.47719 3.10163 9.48236C3.1275 9.49791 3.16482 9.51993 3.21069 9.54585C3.30239 9.59768 3.42846 9.66524 3.56573 9.728C3.70285 9.7907 3.8519 9.84896 3.98942 9.8818C4.12503 9.91419 4.2541 9.92303 4.3495 9.88211C4.35363 9.88068 4.35685 9.87833 4.35879 9.87643C4.36217 9.87313 4.36432 9.86837 4.36432 9.86837C4.36565 9.86537 4.36673 9.8606 4.36673 9.8606C4.36759 9.85655 4.36831 9.85131 4.36895 9.84565C4.37025 9.83406 4.37152 9.81769 4.37275 9.79843C4.37521 9.75977 4.37758 9.70806 4.37965 9.65643C4.38172 9.60475 4.38349 9.55299 4.38474 9.51416C4.38537 9.49473 4.38587 9.47854 4.38621 9.4672L4.38673 9.44937C4.38708 9.43702 4.37786 9.42648 4.36557 9.42519L4.36312 9.44869C4.36557 9.42519 4.36557 9.42519 4.36557 9.42519L4.36293 9.42491C4.36293 9.42491 4.35852 9.42443 4.35508 9.42405C4.34818 9.42328 4.33805 9.42213 4.32513 9.4206C4.2993 9.41754 4.26233 9.41295 4.2179 9.40686C4.12899 9.39467 4.01036 9.3765 3.89116 9.35252C3.77173 9.32849 3.65276 9.29885 3.56272 9.26394C3.5176 9.24645 3.48096 9.2281 3.45536 9.20924C3.42916 9.18994 3.41841 9.17304 3.4168 9.15939C3.4119 9.11781 3.42108 9.08691 3.43651 9.06334C3.45223 9.03932 3.47547 9.02139 3.50074 9.00812C3.52596 8.99488 3.55216 8.98685 3.57229 8.98214C3.5823 8.9798 3.59065 8.97831 3.59643 8.97742C3.59932 8.97698 3.60302 8.9765 3.60302 8.9765L3.60423 8.97636C3.61257 8.97555 3.62063 8.97031 3.62416 8.96272C3.62769 8.95511 3.62693 8.9462 3.62216 8.93931L3.52932 8.80525L3.53563 8.78318L3.67236 8.95639C3.67634 8.96143 3.6822 8.96463 3.68859 8.96526C3.69498 8.96589 3.70135 8.96389 3.70624 8.95972L4.06321 8.65523L6.25188 11.1504C6.25851 11.1579 6.2692 11.1605 6.27852 11.1567C6.33847 11.1324 6.38056 11.1109 6.40736 11.077C6.43463 11.0425 6.44335 10.9987 6.44753 10.938C6.44798 10.9316 6.44575 10.9252 6.4414 10.9205L6.44002 10.9189L6.417 10.8925C6.40103 10.8742 6.3777 10.8475 6.34807 10.8135C6.28879 10.7455 6.20428 10.6485 6.10296 10.5322C5.90032 10.2996 5.63041 9.98974 5.36061 9.67998C5.09081 9.37022 4.8211 9.06055 4.61884 8.82833L4.2958 8.45742L4.4465 8.29671C4.46249 8.27867 4.47647 8.2625 4.48512 8.2429C4.4929 8.22528 4.49614 8.20607 4.49684 8.1812L4.73178 7.9769C4.79482 8.00157 4.83649 8.04163 4.87249 8.09529C4.87623 8.10088 4.88218 8.1046 4.88884 8.10553C4.89551 8.10646 4.90225 8.1045 4.90738 8.10015L5.59009 7.52157C5.60254 7.52873 5.61766 7.53426 5.63289 7.53739C5.65697 7.54233 5.68667 7.54236 5.71227 7.5284C5.71411 7.5274 5.71581 7.52616 5.71732 7.5247L6.86938 6.41887ZM4.23568 8.11072C4.23842 8.10825 4.24053 8.10519 4.24186 8.10179L4.25674 8.13154C4.25238 8.13536 4.24713 8.13996 4.24121 8.14512C4.22368 8.16042 4.20033 8.18067 4.177 8.20056C4.15361 8.2205 4.13045 8.23991 4.11323 8.25358C4.11096 8.25538 4.10884 8.25705 4.10685 8.25859C4.10382 8.25468 4.10058 8.25077 4.09752 8.24716C4.09563 8.24492 4.09364 8.24262 4.09172 8.24041L4.23568 8.11072Z" fill="black"/>
</g>
</g>
<rect x="0.25" y="0.25" width="23.5" height="17.5" rx="1.75" stroke="#DDE0EA" stroke-width="0.5" style="fill-opacity:0"/>
<defs>
<clipPath id="clip0_1221_3879">
<rect width="24" height="18" rx="2" fill="white"/>
</clipPath>
<clipPath id="clip1_1221_3879">
<rect width="24" height="18" fill="white"/>
</clipPath>
</defs>
</svg>
