<svg width="24" height="18" viewBox="0 0 24 18" fill="none" xmlns="http://www.w3.org/2000/svg">
<g clip-path="url(#clip0_1262_207)">
<path fill-rule="evenodd" clip-rule="evenodd" d="M9.77516e-06 0H24V18H9.77516e-06V0Z" fill="white"/>
<path d="M0 0.00713259L19.2188 0L0 12.3506V0.00713259Z" fill="#3662A2"/>
<path d="M24.0001 5.13223L4.58626 17.9925L24.0001 17.9854V5.13223Z" fill="#38A100"/>
<path d="M24.0001 4.21603L3.44626 17.9963L9.77516e-06 18L0.000107408 13.3086L20.5763 0.01125L24 0L24.0001 4.21603Z" fill="#C70000"/>
<path fill-rule="evenodd" clip-rule="evenodd" d="M8.23501 6.45L7.41751 5.955L6.94501 6.78375L6.48751 5.95125L5.66251 6.435L5.68501 5.4825L4.73251 5.49L5.22751 4.6725L4.39876 4.20375L5.23126 3.7425L4.75126 2.9175L5.70376 2.94L5.70001 1.98375L6.51376 2.47875L6.98626 1.65L7.44376 2.4825L8.26876 1.99875L8.24626 2.95125L9.19876 2.94375L8.70376 3.76125L9.53251 4.23L8.70001 4.69125L9.18001 5.51625L8.22751 5.49375L8.23501 6.45Z" fill="#FFE700"/>
<path fill-rule="evenodd" clip-rule="evenodd" d="M8.71501 4.215C8.71501 5.175 7.93126 5.95125 6.96751 5.95125C6.00376 5.95125 5.22001 5.175 5.22001 4.215C5.22001 3.255 6.00001 2.4825 6.96751 2.4825C7.93501 2.4825 8.71501 3.25875 8.71501 4.215Z" fill="#3662A2"/>
<path fill-rule="evenodd" clip-rule="evenodd" d="M8.33626 4.215C8.33626 4.57802 8.19205 4.92616 7.93536 5.18285C7.67867 5.43954 7.33052 5.58375 6.96751 5.58375C6.60449 5.58375 6.25635 5.43954 5.99966 5.18285C5.74297 4.92616 5.59876 4.57802 5.59876 4.215C5.59876 3.85198 5.74297 3.50384 5.99966 3.24715C6.25635 2.99046 6.60449 2.84625 6.96751 2.84625C7.33052 2.84625 7.67867 2.99046 7.93536 3.24715C8.19205 3.50384 8.33626 3.85198 8.33626 4.215Z" fill="#FFE700"/>
</g>
<rect x="0.25" y="0.25" width="23.5" height="17.5" rx="1.75" stroke="#DDE0EA" stroke-width="0.5" style="fill-opacity:0"/>
<defs>
<clipPath id="clip0_1262_207">
<rect width="24" height="18" rx="2" fill="white"/>
</clipPath>
</defs>
</svg>
