<svg width="24" height="18" viewBox="0 0 24 18" fill="none" xmlns="http://www.w3.org/2000/svg">
<g clip-path="url(#clip0_1262_933)">
<path d="M0 18H24V0H0V18Z" fill="#009543"/>
<path d="M0 12H24V0H0V12Z" fill="#ED4135"/>
<path d="M0 6H24V0H0V6Z" fill="#0035AD"/>
<path d="M8.76908 3.10062C12.0269 3.10062 14.6682 5.74185 14.6682 8.9997C14.6682 12.2575 12.0269 14.8988 8.76908 14.8988C5.51123 14.8988 2.87 12.2575 2.87 8.9997C2.87 5.74185 5.51123 3.10062 8.76908 3.10062Z" fill="#FAE600"/>
<path d="M8.76928 15.0816C5.41557 15.0816 2.68726 12.3533 2.68726 8.99962C2.68726 5.64592 5.41557 2.9176 8.76928 2.9176C12.123 2.9176 14.8513 5.64592 14.8513 8.99962C14.8513 12.3533 12.123 15.0816 8.76928 15.0816ZM8.76928 3.28348C5.61722 3.28348 3.05255 5.84815 3.05255 9.00021C3.05255 12.1523 5.61722 14.7169 8.76928 14.7169C11.9213 14.7169 14.486 12.1523 14.486 9.00021C14.486 5.84815 11.9213 3.28348 8.76928 3.28348Z" fill="black"/>
<path d="M6.56689 14.2756C8.97433 15.2587 10.8846 14.3113 10.8846 14.3113C10.8846 14.3113 10.2063 13.5551 9.76913 13.195C9.34305 12.8438 8.08936 12.8578 7.66211 13.195C7.305 13.4767 6.45467 14.3727 6.56689 14.2756Z" fill="black"/>
<path d="M8.76906 10.7601C9.13377 10.7601 9.42893 11.1897 9.42893 11.7204C9.42893 12.2511 9.13319 12.6807 8.76906 12.6807C8.40493 12.6807 8.10919 12.2506 8.10919 11.7204C8.10919 11.1903 8.40493 10.7601 8.76906 10.7601Z" fill="black"/>
<path d="M8.76908 8.63322C9.21094 8.63322 9.56922 8.85999 9.56922 9.13995C9.56922 9.41992 9.21094 9.64611 8.76908 9.64611C8.32722 9.64611 7.96893 9.41933 7.96893 9.13995C7.96893 8.86058 8.32722 8.63322 8.76908 8.63322Z" fill="black"/>
<path d="M8.76908 6.00018C9.21094 6.00018 9.56922 6.35846 9.56922 6.80033C9.56922 7.24219 9.21094 7.60047 8.76908 7.60047C8.32722 7.60047 7.96893 7.24219 7.96893 6.80033C7.96893 6.35846 8.32722 6.00018 8.76908 6.00018Z" fill="black"/>
<path d="M8.98828 12.948L8.54993 12.942V10.0991H7.76907V9.66074H8.54993V8.61921H7.76907V8.18086H8.54993C8.54993 6.20444 8.54993 5.09633 8.54993 3.11991H8.98828V8.18086H9.76914V8.61921H8.98828V9.66074H9.76914V10.0991H8.98828V12.948Z" fill="black"/>
<path d="M9.72936 3.8201C9.72936 3.8201 9.79891 3.93465 9.65279 4.19767C8.95552 5.45311 8.25649 5.48 8.12381 5.58813C7.9777 5.70736 7.91574 5.69918 7.91574 5.69918C7.92626 5.59163 7.93561 5.15211 7.94379 5.10944C8.04958 4.52322 8.93565 4.53081 9.62883 3.93056C9.73696 3.83705 9.72936 3.8201 9.72936 3.8201Z" fill="black"/>
<path d="M7.38913 6.51979C7.38913 6.51979 7.54577 6.96867 7.56914 7.41988C7.60655 8.13995 8.29623 8.15982 8.76907 8.15982V7.76004C8.41488 7.76004 8.10686 7.70744 7.84911 7.18024C7.72169 6.92015 7.38913 6.51979 7.38913 6.51979Z" fill="black"/>
<path d="M7.36926 12.3201C7.36926 12.3201 7.62117 12.0091 7.91575 11.2809C8.06946 10.901 8.43359 10.68 8.76908 10.68L8.76906 10.0991C8.00808 10.0991 7.6428 10.4024 7.60481 10.8145C7.5259 11.6614 7.36926 12.3201 7.36926 12.3201Z" fill="black"/>
<path d="M10.149 6.51979C10.149 6.51979 9.99241 6.96867 9.96903 7.41988C9.93162 8.13995 9.24191 8.15982 8.76907 8.15982V7.76004C9.12326 7.76004 9.43131 7.70744 9.68906 7.18024C9.81648 6.92015 10.149 6.51979 10.149 6.51979Z" fill="black"/>
<path d="M10.1689 12.3201C10.1689 12.3201 9.91701 12.0091 9.62243 11.2809C9.46872 10.901 9.10456 10.68 8.76908 10.68L8.76906 10.0991C9.53004 10.0991 9.8948 10.4024 9.93337 10.8145C10.0123 11.6614 10.1689 12.3201 10.1689 12.3201Z" fill="black"/>
</g>
<rect x="0.25" y="0.25" width="23.5" height="17.5" rx="1.75" stroke="#DDE0EA" stroke-width="0.5" style="fill-opacity:0"/>
<defs>
<clipPath id="clip0_1262_933">
<rect width="24" height="18" rx="2" fill="white"/>
</clipPath>
</defs>
</svg>
