<svg width="24" height="18" viewBox="0 0 24 18" fill="none" xmlns="http://www.w3.org/2000/svg">
<g clip-path="url(#clip0_1224_124)">
<g clip-path="url(#clip1_1224_124)">
<path d="M0 0H24V18H0V0Z" fill="#1A47B8"/>
<path fill-rule="evenodd" clip-rule="evenodd" d="M18 4.8V6H19.2V4.8H18ZM20.4 7.2V8.4H21.6V7.2H20.4ZM15.6 8.4V9.6H16.8V8.4H15.6ZM18 13.2V14.4H19.2V13.2H18Z" fill="#F93939"/>
<path d="M10.8 1.2H2.4C1.73726 1.2 1.2 1.73726 1.2 2.4V8.4C1.2 9.06274 1.73726 9.6 2.4 9.6H10.8C11.4627 9.6 12 9.06274 12 8.4V2.4C12 1.73726 11.4627 1.2 10.8 1.2Z" fill="white"/>
<path fill-rule="evenodd" clip-rule="evenodd" d="M6 6H2.4V4.8H6V2.4H7.2V4.8H10.8V6H7.2V8.4H6V6ZM9 7.2V8.4H10.8V7.2H9ZM9 2.4V3.6H10.8V2.4H9ZM2.4 7.2V8.4H4.2V7.2H2.4ZM2.4 2.4V3.6H4.2V2.4H2.4Z" fill="#F93939"/>
</g>
</g>
<rect x="0.25" y="0.25" width="23.5" height="17.5" rx="1.75" stroke="#DDE0EA" stroke-width="0.5" style="fill-opacity:0"/>
<defs>
<clipPath id="clip0_1224_124">
<rect width="24" height="18" rx="2" fill="white"/>
</clipPath>
<clipPath id="clip1_1224_124">
<rect width="24" height="18" fill="white"/>
</clipPath>
</defs>
</svg>
