<svg width="24" height="18" viewBox="0 0 24 18" fill="none" xmlns="http://www.w3.org/2000/svg">
<g clip-path="url(#clip0_1262_1600)">
<path d="M24 0H0V18H24V0Z" fill="#007934"/>
<path d="M17.56 0H7V18H17.56V0Z" fill="white"/>
<path d="M12.45 2.67C12.42 2.95 12.40 3.23 12.37 3.50C12.28 3.52 12.18 3.53 12.09 3.54C12.09 3.54 12.29 3.65 12.32 3.76C12.32 3.78 12.32 3.80 12.31 3.81C12.31 3.81 12.31 3.81 12.30 3.82C12.25 3.86 12.08 3.84 12.08 3.84C12.08 3.84 12.30 4.03 12.32 4.09C12.32 4.09 12.32 4.10 12.32 4.10C12.32 4.10 12.32 4.10 12.32 4.10C12.32 4.10 12.32 4.10 12.32 4.11C12.32 4.11 12.31 4.11 12.31 4.12C12.26 4.16 12.01 4.18 12.01 4.18C12.01 4.18 12.29 4.37 12.30 4.48C12.32 4.58 12.30 4.64 12.30 4.65C12.28 4.63 11.85 4.26 11.56 4.37C11.55 4.38 11.54 4.39 11.54 4.39C11.54 4.40 11.54 4.40 11.54 4.40C11.56 4.47 11.96 4.53 12.23 4.77C12.23 4.83 11.44 4.58 11.41 4.74C11.44 4.78 12.26 4.90 12.32 5.01C12.02 5.02 11.39 4.94 11.41 5.04C11.35 5.15 12.00 5.09 12.28 5.18C12.36 5.27 12.35 5.35 12.21 5.36C11.94 5.23 11.35 5.14 11.35 5.30C11.35 5.30 11.35 5.30 11.35 5.30C11.35 5.30 11.35 5.30 11.35 5.30C11.35 5.31 11.36 5.31 11.36 5.31C11.42 5.34 11.98 5.32 12.18 5.46C11.89 5.53 10.89 5.33 10.88 5.42C10.91 5.47 11.07 5.67 11.34 5.66C11.61 5.66 12.24 5.77 12.29 5.86C12.29 5.86 12.29 5.86 12.29 5.87C12.27 5.92 11.46 5.69 11.15 5.83C10.83 5.98 12.07 5.89 12.28 6.08C12.48 6.26 11.87 6.06 11.87 6.06C11.87 6.06 11.02 5.94 10.89 6.00C10.77 6.06 10.62 6.20 10.62 6.20C10.62 6.20 10.71 6.36 10.79 6.33C10.80 6.33 10.81 6.32 10.82 6.33L10.82 6.33C10.82 6.33 10.82 6.33 10.82 6.33C10.82 6.33 10.82 6.33 10.82 6.33L10.82 6.33C10.82 6.33 10.82 6.33 10.82 6.33C10.83 6.36 10.77 6.43 10.77 6.43C10.77 6.43 11.95 6.72 12.22 6.97C12.48 7.23 10.71 6.58 10.71 6.58C10.71 6.58 9.99 6.84 10.75 6.85C10.66 6.98 10.78 7.05 10.79 7.06C10.79 7.06 12.05 7.32 12.18 7.52C12.30 7.72 11.32 7.33 11.10 7.22C10.88 7.11 10.29 7.27 10.26 7.32C10.26 7.32 10.26 7.32 10.26 7.32C10.26 7.33 10.26 7.33 10.26 7.33C10.26 7.33 10.26 7.33 10.26 7.33C10.26 7.33 10.26 7.33 10.26 7.33C10.26 7.33 10.26 7.33 10.26 7.33C10.26 7.33 10.26 7.34 10.26 7.34C10.30 7.38 10.56 7.43 10.57 7.51C10.57 7.51 10.57 7.52 10.57 7.52C10.53 7.58 10.22 7.61 10.21 7.67C10.21 7.67 10.20 7.67 10.20 7.67C10.20 7.74 11.79 8.07 12.22 8.43C12.64 8.78 10.97 8.00 10.97 8.00C10.97 8.00 11.06 8.13 10.97 8.16C10.88 8.20 10.54 7.69 10.00 8.00C9.90 8.13 10.48 8.23 10.62 8.25C10.57 8.38 10.53 8.42 10.73 8.54C10.75 8.56 10.77 8.57 10.77 8.57C10.77 8.57 10.77 8.57 10.77 8.57L10.77 8.57V8.57C10.77 8.57 10.77 8.57 10.77 8.57C10.74 8.57 10.37 8.38 10.34 8.38C10.34 8.38 10.33 8.38 10.33 8.38C10.33 8.39 10.38 8.60 10.38 8.60C10.19 8.44 9.96 8.40 9.75 8.55C9.75 8.56 9.74 8.71 9.96 8.80C9.84 9.04 10.09 8.97 10.50 9.19C9.90 9.04 9.85 9.33 10.28 9.40C10.71 9.46 11.90 9.51 12.18 9.87C12.24 9.95 12.26 9.99 12.25 10.00C12.20 10.04 11.77 9.73 11.71 9.72C11.71 9.72 11.71 9.72 11.71 9.72C11.71 9.72 11.70 9.72 11.70 9.72C11.69 9.76 11.67 9.90 11.67 9.90C11.49 9.80 11.33 9.71 11.11 9.66C11.09 9.70 11.10 9.74 11.08 9.78C10.88 9.64 10.71 9.54 10.43 9.52C10.41 9.57 10.40 9.61 10.39 9.66C10.39 9.66 10.15 9.36 9.69 9.66C9.43 9.84 10.67 9.73 10.88 9.95C11.08 10.17 10.92 10.20 10.92 10.20C10.75 10.14 10.58 10.08 10.41 10.01C10.41 10.01 9.81 9.90 9.64 10.04C9.47 10.17 12.12 10.50 12.19 10.87C12.24 11.06 11.57 10.66 10.99 10.49C10.96 10.55 10.94 10.62 10.92 10.68C10.90 10.67 10.68 10.45 10.43 10.41C10.43 10.41 10.43 10.41 10.43 10.41C10.43 10.41 10.43 10.41 10.43 10.41C10.43 10.44 10.48 10.64 10.48 10.64C10.48 10.64 9.82 10.33 9.49 10.5C9.16 10.66 10.65 10.74 10.78 10.89C10.80 10.91 10.80 10.92 10.80 10.93C10.80 10.93 10.80 10.93 10.80 10.93C10.77 10.98 10.33 10.80 10.28 10.89C10.23 10.99 9.51 10.71 9.52 10.84C9.53 10.98 9.62 11.05 9.62 11.05C9.62 11.05 11.12 11.20 11.17 11.37C11.23 11.55 10.34 11.27 10.34 11.27C10.34 11.27 10.26 11.40 10.32 11.46C10.33 11.46 10.33 11.46 10.33 11.46L10.33 11.46C10.30 11.45 9.82 11.14 9.87 11.38C9.68 11.31 9.20 11.08 9.26 11.25C9.33 11.43 10.59 11.68 10.63 11.69C10.60 11.69 10.06 11.73 10.09 11.87C9.37 11.44 9.37 11.70 9.39 11.72C9.35 11.71 8.47 11.50 9.17 11.87C9.54 12.07 9.64 12.15 9.64 12.18C9.64 12.18 9.64 12.18 9.64 12.19C9.64 12.19 9.64 12.19 9.64 12.19C9.64 12.19 9.64 12.19 9.64 12.19C9.64 12.19 9.64 12.19 9.64 12.19C9.64 12.19 9.63 12.19 9.63 12.19C9.63 12.19 9.63 12.19 9.63 12.19C9.63 12.19 9.63 12.19 9.63 12.19C9.63 12.19 9.63 12.19 9.63 12.19C9.62 12.20 9.58 12.20 9.57 12.20C9.57 12.20 9.57 12.20 9.57 12.20L9.57 12.20L9.57 12.20C9.58 12.22 9.63 12.37 9.63 12.39C9.63 12.39 9.63 12.39 9.63 12.39L9.63 12.40C9.60 12.39 9.13 12.14 8.98 12.13C8.81 12.11 8.05 12.34 8.86 12.69C9.68 13.05 10.18 12.61 10.63 12.66C11.08 12.71 11.29 12.78 11.25 12.93C11.21 13.07 10.79 12.46 10.35 12.99C9.85 12.89 9.51 12.83 9.77 13.20C8.95 12.89 8.46 13.29 9.48 13.45C10.49 13.48 11.11 13.21 11.11 13.21C11.11 13.21 11.29 13.52 11.53 13.30C11.77 13.09 11.78 13.36 11.79 13.38C11.79 13.38 11.79 13.38 11.79 13.38L11.80 13.38C11.81 13.38 12.03 13.28 12.03 13.28C12.05 13.28 12.07 13.28 12.09 13.28V15.31C12.37 15.31 12.64 15.31 12.92 15.32C12.92 15.32 12.65 13.55 12.80 13.32C12.94 13.09 13.07 13.11 13.08 13.11C13.08 13.11 13.61 13.27 13.67 13.25C13.67 13.25 13.67 13.25 13.67 13.25C13.67 13.25 13.68 13.25 13.68 13.25C13.68 13.25 13.68 13.24 13.68 13.24C13.68 13.24 13.68 13.24 13.68 13.24C13.72 13.20 13.68 13.05 13.95 13.07C14.04 13.04 14.00 12.91 14.06 12.87C14.06 12.87 14.06 12.87 14.06 12.87C14.06 12.87 14.07 12.87 14.07 12.87C14.07 12.87 14.08 12.87 14.08 12.87C14.16 12.86 15.80 13.32 16.16 12.88C16.07 12.64 15.74 12.87 15.66 12.88C15.58 12.88 15.26 12.72 15.07 12.88C14.90 12.75 14.13 12.67 14.13 12.67C14.03 12.56 15.97 12.72 16.08 12.64C16.31 12.41 15.66 12.44 15.56 12.51C15.38 12.40 15.15 12.41 15.01 12.49C14.94 12.33 14.31 12.40 13.96 12.35C13.85 12.29 13.87 12.25 13.94 12.21C14.68 12.24 15.41 12.33 16.14 12.30C16.34 12.04 15.89 11.95 15.62 12.17C15.45 11.90 15.12 12.16 14.90 12.13C14.68 12.11 14.78 11.84 15.06 11.88C15.34 11.92 15.85 11.86 15.94 11.74C16.03 11.61 15.88 11.48 15.42 11.60C15.26 11.45 14.92 11.60 14.76 11.65C14.54 11.53 14.05 11.64 13.88 11.68C13.71 11.57 14.75 11.41 14.75 11.41C15.15 11.40 15.38 11.33 15.51 11.30C16.11 10.97 15.50 10.94 15.18 11.17C14.98 11.02 14.79 11.19 14.61 11.25C14.45 11.30 14.14 11.34 14.10 11.33C14.10 11.33 14.10 11.33 14.10 11.33L14.10 11.32L14.10 11.32V11.32C14.10 11.32 14.10 11.32 14.10 11.32C14.12 11.28 14.58 11.00 14.58 11.00C14.58 11.00 15.17 10.96 15.29 10.94C15.37 10.93 15.62 10.81 15.62 10.77C15.62 10.74 15.51 10.74 15.19 10.82C14.90 10.85 14.73 10.83 14.62 10.84C14.44 10.82 14.37 10.80 14.36 10.79C14.35 10.79 14.35 10.79 14.35 10.78C14.35 10.78 14.35 10.78 14.36 10.78C14.36 10.77 14.36 10.77 14.36 10.77C14.40 10.74 14.68 10.71 14.68 10.71C14.68 10.71 15.54 10.63 15.60 10.59C15.60 10.59 15.60 10.59 15.60 10.59C15.60 10.59 15.60 10.59 15.60 10.59C15.60 10.59 15.60 10.59 15.60 10.59C15.62 10.24 14.87 10.40 14.85 10.40C14.85 10.16 14.18 10.40 14.15 10.40C14.12 10.38 14.11 10.37 14.10 10.35C14.10 10.34 14.10 10.34 14.10 10.33C14.12 10.28 14.22 10.24 14.22 10.24C14.41 10.20 14.69 10.18 14.76 10.12C14.76 10.12 15.29 10.12 15.35 9.98C15.22 9.62 14.24 10.04 14.10 10.11C14.08 10.11 14.06 10.10 14.05 10.09C14.01 10.02 14.22 9.82 14.23 9.81C14.23 9.81 14.23 9.81 14.23 9.81C14.27 9.80 15.05 9.76 15.43 9.25C15.46 8.94 14.98 9.43 14.98 9.43C14.94 9.02 14.46 9.46 14.18 9.49C13.90 9.52 13.89 9.36 14.09 9.34C14.28 9.31 14.50 9.33 14.61 9.03C14.72 8.74 15.06 9.05 15.12 8.94C15.17 8.83 15.01 8.74 15.00 8.74C15.00 8.74 15.24 8.48 14.84 8.49C14.45 8.50 13.94 8.44 13.93 8.44C13.95 8.43 14.35 8.28 14.73 8.29C15.12 8.30 14.91 8.01 14.54 8.01C14.16 8.01 13.97 7.88 13.97 7.88C14.18 7.81 14.39 7.73 14.61 7.65C14.59 7.59 14.58 7.53 14.56 7.47C14.56 7.47 14.94 7.18 14.41 7.24C13.88 7.31 13.82 7.32 13.82 7.32C13.82 7.32 12.79 7.48 12.76 7.48C12.75 7.48 12.65 7.45 12.63 7.41C12.63 7.41 12.63 7.40 12.63 7.40C12.63 7.40 12.63 7.40 12.63 7.40C12.63 7.40 12.63 7.39 12.63 7.39C12.63 7.37 12.66 7.35 12.74 7.33C13.02 7.26 13.98 7.07 14.12 7.12C14.14 7.12 14.15 7.12 14.16 7.11C14.22 7.07 14.04 6.76 13.59 6.71C13.08 6.66 12.77 6.84 12.77 6.84C12.77 6.84 12.44 6.72 12.74 6.62C13.05 6.52 13.53 6.65 13.53 6.65C13.53 6.65 14.08 6.49 13.63 6.42C13.18 6.36 13.04 6.48 12.83 6.49C12.75 6.39 13.54 6.36 13.59 6.28C13.50 6.13 13.01 6.28 12.73 6.28C12.61 6.23 12.60 6.15 12.74 6.09C13.03 6.08 13.30 6.10 13.59 6.09C13.59 5.93 13.59 5.75 13.59 5.60C13.22 5.53 12.78 5.65 12.57 5.64C12.63 5.47 13.43 5.42 13.52 5.38C13.70 5.15 12.75 5.37 12.73 5.38C12.56 5.35 12.57 5.25 12.68 5.18C12.92 5.15 13.48 5.22 13.43 5.05C13.40 4.90 13.05 4.98 12.91 5.01C12.76 5.05 12.55 5.02 12.55 5.02C12.46 4.90 13.38 4.95 13.37 4.85C13.36 4.74 12.79 4.82 12.59 4.83C12.44 4.72 13.30 4.66 13.34 4.64L13.34 4.64C13.37 4.36 12.74 4.64 12.63 4.64C12.61 4.64 12.59 4.64 12.58 4.63C12.58 4.63 12.57 4.62 12.57 4.62C12.53 4.57 12.57 4.46 12.57 4.46C12.57 4.46 12.79 4.36 12.80 4.34C12.80 4.34 12.80 4.34 12.80 4.34V4.34C12.80 4.34 12.80 4.34 12.80 4.34C12.80 4.34 12.80 4.34 12.80 4.33C12.77 4.31 12.62 4.26 12.60 4.26L12.60 4.26C12.60 4.26 12.60 4.26 12.60 4.26C12.60 4.26 12.60 4.26 12.60 4.26C12.59 4.24 12.60 4.07 12.60 4.07C12.60 4.07 12.78 3.94 12.79 3.88C12.79 3.88 12.79 3.88 12.79 3.88C12.79 3.88 12.79 3.88 12.79 3.88C12.79 3.88 12.79 3.88 12.79 3.88C12.79 3.88 12.79 3.88 12.79 3.88C12.79 3.88 12.79 3.87 12.79 3.87C12.79 3.87 12.79 3.87 12.79 3.87C12.79 3.87 12.79 3.87 12.78 3.87C12.78 3.87 12.78 3.87 12.78 3.87C12.78 3.87 12.78 3.87 12.78 3.87C12.78 3.87 12.78 3.87 12.78 3.87C12.78 3.87 12.78 3.87 12.78 3.86C12.73 3.84 12.55 3.91 12.55 3.91C12.55 3.85 12.55 3.79 12.55 3.74C12.55 3.74 12.71 3.72 12.73 3.64C12.73 3.64 12.73 3.64 12.73 3.63C12.73 3.63 12.73 3.63 12.73 3.63C12.73 3.62 12.72 3.62 12.72 3.62C12.72 3.62 12.72 3.62 12.72 3.61C12.68 3.57 12.53 3.56 12.53 3.56C12.50 3.26 12.48 2.97 12.45 2.67ZM12.30 5.57V5.69C12.30 5.69 12.11 5.68 12.07 5.65C12.07 5.65 12.07 5.65 12.07 5.65C12.07 5.65 12.07 5.64 12.07 5.64C12.07 5.64 12.07 5.64 12.07 5.64C12.07 5.64 12.07 5.64 12.07 5.64C12.07 5.64 12.07 5.64 12.07 5.64C12.07 5.64 12.06 5.64 12.06 5.64C12.06 5.64 12.06 5.64 12.06 5.64C12.06 5.64 12.06 5.63 12.06 5.63C12.06 5.63 12.07 5.63 12.07 5.63C12.07 5.63 12.07 5.63 12.07 5.63C12.07 5.63 12.07 5.63 12.07 5.63C12.07 5.63 12.07 5.63 12.07 5.63C12.07 5.63 12.07 5.62 12.07 5.62C12.07 5.62 12.07 5.62 12.08 5.62C12.14 5.58 12.27 5.58 12.29 5.57C12.29 5.57 12.29 5.57 12.29 5.57H12.30ZM12.57 5.72C12.57 5.72 12.95 5.73 12.98 5.77C12.98 5.78 12.98 5.78 12.98 5.78C12.98 5.78 12.98 5.78 12.98 5.78C12.98 5.78 12.98 5.78 12.98 5.78C12.98 5.78 12.98 5.78 12.98 5.78C12.98 5.79 12.98 5.79 12.98 5.79C12.95 5.85 12.57 5.88 12.57 5.88L12.57 5.72ZM12.55 5.95C12.55 5.95 12.55 5.95 12.55 5.95C12.57 5.96 12.72 5.96 12.74 5.99C12.74 5.99 12.74 5.99 12.74 5.99C12.74 5.99 12.74 5.99 12.74 5.99C12.74 5.99 12.74 5.99 12.74 6.00C12.74 6.00 12.74 6.00 12.74 6.00C12.74 6.00 12.74 6.00 12.74 6.00C12.74 6.00 12.74 6.00 12.74 6.00C12.74 6.00 12.74 6.00 12.74 6.00C12.71 6.04 12.57 6.05 12.56 6.05L12.56 6.05C12.56 6.05 12.56 6.05 12.56 6.05C12.55 6.04 12.55 5.95 12.55 5.95ZM11.41 6.26C11.53 6.25 11.77 6.28 12.23 6.41C12.23 6.42 12.23 6.53 12.23 6.55C12.23 6.55 12.23 6.55 12.23 6.55L12.23 6.56C12.22 6.55 11.40 6.32 11.33 6.32C11.33 6.32 11.32 6.32 11.32 6.32C11.32 6.32 11.32 6.32 11.32 6.32C11.32 6.32 11.31 6.32 11.31 6.32C11.31 6.32 11.31 6.32 11.31 6.32C11.31 6.32 11.31 6.32 11.31 6.32C11.30 6.31 11.30 6.31 11.30 6.31C11.30 6.31 11.30 6.31 11.30 6.31C11.30 6.31 11.30 6.31 11.30 6.31C11.30 6.31 11.30 6.30 11.30 6.30C11.30 6.30 11.30 6.30 11.30 6.30C11.30 6.30 11.30 6.30 11.30 6.30C11.30 6.30 11.30 6.30 11.30 6.30C11.30 6.29 11.30 6.29 11.30 6.29C11.32 6.28 11.35 6.26 11.41 6.26ZM11.83 6.61C11.96 6.60 12.28 6.68 12.29 6.67C12.29 6.70 12.31 6.81 12.29 6.84C12.29 6.84 12.29 6.84 12.29 6.84C12.29 6.84 12.29 6.84 12.29 6.84C12.29 6.84 12.29 6.84 12.29 6.84C12.29 6.84 12.29 6.84 12.29 6.84C12.29 6.84 12.28 6.84 12.28 6.84C12.26 6.83 11.79 6.69 11.78 6.63C11.78 6.63 11.78 6.63 11.78 6.63C11.78 6.62 11.78 6.62 11.78 6.62C11.78 6.62 11.78 6.62 11.78 6.62C11.78 6.62 11.78 6.62 11.78 6.62C11.79 6.61 11.81 6.61 11.83 6.61ZM13.12 6.93C13.24 6.92 13.33 6.93 13.30 6.97C13.21 7.08 12.59 7.16 12.59 7.16L12.58 6.97C12.59 6.97 12.91 6.93 13.12 6.93ZM11.36 7.51C11.46 7.50 11.70 7.56 12.25 7.79L12.25 7.92C12.25 7.92 11.33 7.65 11.30 7.60C11.28 7.58 11.26 7.51 11.36 7.51ZM13.15 7.71C13.18 7.71 13.20 7.71 13.21 7.72C13.21 7.72 13.21 7.72 13.21 7.72C13.21 7.72 13.21 7.72 13.21 7.72C13.21 7.72 13.21 7.72 13.21 7.73C13.21 7.73 13.21 7.73 13.20 7.74C13.12 7.84 12.66 7.93 12.66 7.93C12.66 7.93 12.66 7.81 12.66 7.81C12.68 7.81 13.02 7.72 13.15 7.71ZM11.14 7.73C11.28 7.72 11.59 7.79 12.28 8.12C12.28 8.12 12.29 8.23 12.29 8.24C12.24 8.23 11.04 7.81 11.04 7.81C11.04 7.81 11.02 7.73 11.14 7.73ZM13.44 8.25C13.47 8.25 13.50 8.26 13.50 8.26C13.50 8.26 13.50 8.27 13.50 8.27C13.50 8.27 13.50 8.28 13.49 8.28C13.39 8.38 12.69 8.50 12.66 8.50H12.66L12.66 8.50C12.66 8.50 12.66 8.50 12.66 8.50C12.66 8.50 12.66 8.49 12.66 8.49C12.65 8.47 12.67 8.39 12.67 8.38L12.67 8.38C12.67 8.38 12.67 8.38 12.67 8.38C12.72 8.38 13.25 8.26 13.44 8.25ZM11.39 8.56C11.60 8.55 12.23 8.84 12.26 8.85C12.25 8.86 12.25 8.96 12.25 8.98C12.25 8.98 12.25 8.98 12.25 8.98C12.23 8.97 11.37 8.62 11.33 8.64C11.31 8.59 11.33 8.56 11.39 8.56ZM13.24 8.64C13.29 8.63 13.32 8.64 13.33 8.64C13.33 8.64 13.33 8.64 13.33 8.64C13.33 8.64 13.33 8.65 13.33 8.65C13.33 8.65 13.33 8.65 13.33 8.65C13.33 8.65 13.33 8.65 13.33 8.65C13.33 8.65 13.33 8.65 13.33 8.65C13.26 8.71 12.67 8.83 12.67 8.83C12.67 8.83 12.67 8.72 12.67 8.71C12.68 8.70 13.07 8.64 13.24 8.64ZM13.20 9.01C13.24 9.01 13.27 9.02 13.27 9.02L13.28 9.02C13.28 9.02 13.28 9.03 13.28 9.03C13.28 9.03 13.28 9.03 13.28 9.03C13.28 9.03 13.28 9.03 13.28 9.03C13.28 9.03 13.28 9.03 13.28 9.03C13.28 9.03 13.27 9.03 13.27 9.03C13.27 9.03 13.27 9.03 13.27 9.03C13.27 9.03 13.27 9.04 13.27 9.04C13.21 9.09 12.70 9.20 12.70 9.20C12.70 9.20 12.69 9.08 12.69 9.07C12.70 9.07 13.04 9.02 13.20 9.01ZM11.07 9.04C11.19 9.04 11.49 9.09 12.24 9.36L12.26 9.50C12.26 9.50 11.02 9.10 10.99 9.09C10.99 9.09 10.99 9.09 10.99 9.08C10.99 9.08 10.99 9.08 10.99 9.07C11.00 9.06 11.02 9.05 11.07 9.04ZM12.70 9.36C12.72 9.36 12.92 9.37 12.96 9.40C12.96 9.40 12.96 9.40 12.96 9.40C12.96 9.40 12.96 9.40 12.96 9.40C12.96 9.40 12.96 9.40 12.96 9.40C12.96 9.40 12.97 9.41 12.97 9.41C12.97 9.41 12.97 9.41 12.97 9.41C12.97 9.41 12.97 9.41 12.97 9.41C12.97 9.41 12.97 9.41 12.97 9.41C12.97 9.41 12.97 9.41 12.97 9.41C12.97 9.41 12.97 9.42 12.97 9.42C12.97 9.42 12.97 9.42 12.97 9.42C12.93 9.47 12.72 9.49 12.72 9.49C12.72 9.49 12.71 9.39 12.70 9.36ZM13.20 9.64C13.25 9.64 13.29 9.65 13.29 9.66C13.30 9.67 13.29 9.68 13.27 9.70C13.09 9.85 12.70 9.88 12.70 9.88V9.72C12.72 9.71 13.04 9.65 13.20 9.64ZM13.70 9.79C13.76 9.79 13.78 9.80 13.79 9.81C13.79 9.81 13.79 9.82 13.79 9.82C13.79 9.82 13.80 9.82 13.8 9.82C13.79 9.84 13.77 9.86 13.76 9.88C13.70 9.94 12.73 10.24 12.73 10.24C12.73 10.24 12.73 10.04 12.73 10.02C13.29 9.85 13.57 9.79 13.70 9.79ZM13.07 10.36C13.13 10.36 13.18 10.36 13.20 10.38C13.20 10.38 13.20 10.38 13.20 10.38C13.20 10.38 13.20 10.38 13.20 10.38C13.20 10.38 13.20 10.38 13.20 10.39C13.20 10.39 13.20 10.39 13.20 10.39C13.20 10.39 13.20 10.40 13.20 10.40C13.11 10.48 12.71 10.49 12.71 10.49V10.39C12.79 10.39 12.96 10.36 13.07 10.36ZM13.47 10.52C13.49 10.52 13.51 10.53 13.51 10.53C13.51 10.53 13.51 10.53 13.51 10.53C13.51 10.54 13.50 10.55 13.49 10.55C13.33 10.67 12.73 10.78 12.73 10.78C12.73 10.78 12.73 10.70 12.74 10.69C12.75 10.69 13.33 10.53 13.47 10.52ZM13.81 10.65C13.88 10.65 13.94 10.66 13.97 10.68L13.97 10.68C13.97 10.68 13.97 10.69 13.97 10.69C13.97 10.71 13.92 10.81 13.76 10.86C13.56 10.84 12.73 11.08 12.71 11.09C12.71 11.09 12.71 11.09 12.71 11.09C12.71 11.07 12.72 10.99 12.72 10.99C13.01 10.81 13.53 10.65 13.81 10.65ZM11.66 11.13C11.67 11.13 11.67 11.13 11.67 11.13C12.03 11.17 12.17 11.31 12.21 11.36C12.13 11.49 11.56 11.21 11.62 11.15C11.63 11.14 11.64 11.13 11.66 11.13ZM13.74 11.16C13.76 11.16 13.77 11.16 13.78 11.17C13.78 11.17 13.79 11.17 13.79 11.18C13.79 11.18 13.80 11.19 13.80 11.20C13.76 11.26 13.56 11.23 13.55 11.23C13.56 11.23 13.67 11.16 13.74 11.16ZM12.97 11.55C12.99 11.55 13.02 11.55 13.03 11.56C13.03 11.56 13.03 11.56 13.03 11.56C13.03 11.56 13.03 11.56 13.03 11.57C13.04 11.57 13.04 11.57 13.04 11.57C13.04 11.57 13.04 11.57 13.04 11.57C13.04 11.58 13.04 11.59 13.03 11.60C12.98 11.70 12.73 11.67 12.73 11.67V11.59C12.74 11.59 12.88 11.55 12.97 11.55ZM11.50 11.83C11.58 11.83 11.64 11.88 11.71 11.92C11.87 11.88 12.19 11.94 12.19 11.94V12.08C12.19 12.08 12.19 12.08 12.19 12.08C12.16 12.09 11.78 12.07 11.70 12.02C11.63 12.02 11.44 11.92 11.42 11.86C11.42 11.86 11.42 11.86 11.42 11.86C11.42 11.86 11.42 11.86 11.42 11.86C11.42 11.86 11.42 11.86 11.42 11.86C11.42 11.86 11.42 11.86 11.42 11.86C11.42 11.86 11.42 11.85 11.42 11.85C11.45 11.84 11.47 11.83 11.50 11.83ZM13.14 11.90C13.20 11.90 13.23 11.91 13.18 11.98C13.05 12.16 12.72 12.09 12.72 12.09L12.71 11.97C12.83 11.98 13.04 11.90 13.14 11.90ZM11.91 12.26C12.04 12.26 12.19 12.31 12.19 12.31C12.19 12.32 12.26 12.45 12.20 12.50C12.20 12.50 12.19 12.50 12.19 12.50C12.12 12.54 11.76 12.47 11.74 12.33C11.78 12.28 11.84 12.27 11.91 12.26ZM10.53 12.33C10.65 12.33 10.79 12.40 10.80 12.41C10.80 12.41 10.80 12.55 10.80 12.55C10.80 12.55 10.56 12.48 10.48 12.34C10.49 12.34 10.51 12.34 10.53 12.33ZM12.86 12.35C13 12.35 13.16 12.38 13.18 12.43C13.19 12.44 13.19 12.45 13.18 12.46C13.11 12.54 12.73 12.47 12.73 12.47V12.37C12.76 12.36 12.81 12.35 12.86 12.35Z" fill="#007934"/>
</g>
<rect x="0.25" y="0.25" width="23.5" height="17.5" rx="1.75" stroke="#DDE0EA" stroke-width="0.5" style="fill-opacity:0"/>
<defs>
<clipPath id="clip0_1262_1600">
<rect width="24" height="18" rx="2" fill="white"/>
</clipPath>
</defs>
</svg>
