<svg width="24" height="18" viewBox="0 0 24 18" fill="none" xmlns="http://www.w3.org/2000/svg">
<g clip-path="url(#clip0_1221_6)">
<g clip-path="url(#clip1_1221_6)">
<path d="M24 0H0V18H24V0Z" fill="#D20000"/>
<path fill-rule="evenodd" clip-rule="evenodd" d="M0 0H3.60156L9.93357 6.54111C9.74638 6.69855 9.57746 6.87699 9.43042 7.07281L0 0ZM8.82388 8.52338L0 7.19922V10.8008L8.82388 9.47663C8.80078 9.32113 8.78882 9.16197 8.78882 9.00001C8.78882 8.83803 8.80078 8.67888 8.82388 8.52338ZM9.43041 10.9272L0 18H3.60156L9.93356 11.4589C9.74638 11.3015 9.57746 11.123 9.43041 10.9272ZM11.6296 12.1902L10.5 18H13.5L12.3704 12.1902C12.2489 12.2041 12.1253 12.2113 12.0001 12.2113C11.8748 12.2113 11.7512 12.2041 11.6296 12.1902ZM14.0665 11.459L20.3984 18H24L14.5697 10.9273C14.4226 11.1231 14.2537 11.3015 14.0665 11.459ZM15.1763 9.47665L24 10.8008V7.19922L15.1763 8.52336C15.1994 8.67887 15.2113 8.83803 15.2113 9.00001C15.2113 9.16198 15.1994 9.32114 15.1763 9.47665ZM14.5697 7.07275L24 0H20.3984L14.0665 6.54105C14.2537 6.69848 14.4226 6.87692 14.5697 7.07275ZM12.3704 5.80984L13.5 0H10.5L11.6296 5.80985C11.7512 5.79592 11.8748 5.78876 12.0001 5.78876C12.1253 5.78876 12.2489 5.79591 12.3704 5.80984ZM9.43007 9.00001C9.43007 7.57943 10.5795 6.43001 12.0001 6.43001C13.4206 6.43001 14.5701 7.57943 14.5701 9.00001C14.5701 10.4206 13.4206 11.57 12.0001 11.57C10.5795 11.57 9.43007 10.4206 9.43007 9.00001Z" fill="#FFE600"/>
</g>
</g>
<rect x="0.25" y="0.25" width="23.5" height="17.5" rx="1.75" stroke="#DDE0EA" stroke-width="0.5" style="fill-opacity:0"/>
<defs>
<clipPath id="clip0_1221_6">
<rect width="24" height="18" rx="2" fill="white"/>
</clipPath>
<clipPath id="clip1_1221_6">
<rect width="24" height="18" fill="white"/>
</clipPath>
</defs>
</svg>
