<svg width="24" height="18" viewBox="0 0 24 18" fill="none" xmlns="http://www.w3.org/2000/svg">
<g clip-path="url(#clip0_1262_1099)">
<path d="M24 0H0V18H24V0Z" fill="#007E3C"/>
<path d="M24 0H0V12H24V0Z" fill="#DF1A23"/>
<path d="M24 0H0V6H24V0Z" fill="white"/>
<path d="M7 0H0V18H7V0Z" fill="#DF1A23"/>
<path d="M2.11 3.10H1.20C1.15 3.10 1.11 3.14 1.11 3.18V3.60C1.11 3.65 1.15 3.68 1.20 3.68H2.11C2.17 3.68 2.21 3.65 2.21 3.60V3.18C2.21 3.14 2.17 3.10 2.11 3.10Z" fill="white"/>
<path d="M5.09 3.10H6.00C6.05 3.10 6.09 3.14 6.09 3.18V3.60C6.09 3.65 6.05 3.68 6.00 3.68H5.09C5.03 3.68 4.99 3.65 4.99 3.60V3.18C4.99 3.14 5.03 3.10 5.09 3.10Z" fill="white"/>
<path fill-rule="evenodd" clip-rule="evenodd" d="M2.90 4.41C1.45 5.82 0.84 6.00 1.13 6.11C1.41 6.23 2.34 5.50 3.31 4.53C4.28 3.56 4.87 2.70 4.58 2.59C4.29 2.47 4.43 2.91 2.90 4.41Z" fill="white"/>
<path fill-rule="evenodd" clip-rule="evenodd" d="M4.50 3.12C5.12 2.05 5.54 1.15 5.45 1.11C5.36 1.06 4.78 1.89 4.16 2.96" fill="white"/>
<path fill-rule="evenodd" clip-rule="evenodd" d="M4.30 4.41C5.75 5.82 6.36 6.00 6.07 6.11C5.79 6.23 4.86 5.50 3.89 4.53C2.92 3.56 2.33 2.70 2.62 2.59C2.91 2.47 2.77 2.91 4.30 4.41Z" fill="white"/>
<path fill-rule="evenodd" clip-rule="evenodd" d="M2.70 3.12C2.08 2.05 1.66 1.15 1.75 1.11C1.84 1.06 2.42 1.89 3.04 2.96" fill="white"/>
<path fill-rule="evenodd" clip-rule="evenodd" d="M3.16 2.54C3.16 3.47 3.16 3.82 3.09 3.87C3.03 3.92 1.22 3.87 1.22 4.13C1.22 4.40 2.71 4.67 3.16 4.67C3.75 4.67 4.05 4.40 4.05 3.87V2.54H3.16Z" fill="white"/>
<path d="M3.41 2.15H3.79V2.31H3.41V2.15ZM3.44 1.99H3.76V2.15H3.44V1.99ZM3.44 1.83H3.76V1.99H3.44V1.83Z" fill="white"/>
<path d="M3.48 1.62H3.73V1.83H3.48V1.62Z" fill="white"/>
<path d="M3.47 1.43H3.74V1.62H3.47V1.43Z" fill="white"/>
<path fill-rule="evenodd" clip-rule="evenodd" d="M3.80 1.24C3.80 1.31 3.90 1.43 3.90 1.43C3.83 1.48 3.72 1.51 3.62 1.51C3.52 1.51 3.39 1.49 3.34 1.43C3.34 1.43 3.43 1.31 3.43 1.24C3.43 1.17 3.34 1.09 3.34 1.09C3.41 1.04 3.52 1.01 3.62 1.01C3.72 1.01 3.83 1.04 3.90 1.09C3.90 1.09 3.80 1.17 3.80 1.24Z" fill="white"/>
</g>
<rect x="0.25" y="0.25" width="23.5" height="17.5" rx="1.75" stroke="#DDE0EA" stroke-width="0.5" style="fill-opacity:0"/>
<defs>
<clipPath id="clip0_1262_1099">
<rect width="24" height="18" rx="2" fill="white"/>
</clipPath>
</defs>
</svg>
