<svg xmlns="http://www.w3.org/2000/svg" width="24" height="18" fill="none">
    <g clip-path="url(#a)">
        <path fill="#0038A8" d="M0 0h24v18H0V0Z" />
        <path fill="#fff" d="M0 0h24v12H0V0Z" />
        <path fill="#D52B1E" d="M0 0h24v6H0V0Z" />
        <path fill="#000" fill-rule="evenodd"
            d="M12 6.76c-1.20 0-2.18.998-2.18 2.23 0 1.23.977 2.23 2.18 2.23s2.18-.999 2.18-2.23c0-1.23-.977-2.23-2.18-2.23Zm-2.28 2.23c0-1.28 1.02-2.33 2.28-2.33 1.26 0 2.28 1.04 2.28 2.33 0 1.28-1.02 2.33-2.28 2.33-1.26 0-2.28-1.04-2.28-2.33Z"
            clip-rule="evenodd" />
        <path fill="#000"
            d="m10.6 9.91-.019-.033a.123.12 0 0 0-.015-.018.02.021 0 0 0-.014-.007c-.006-.001-.013 0-.018.00-.007.00-.012.01-.013.01-.001.00.002.01.01.03l.02.03.05-.03Zm.19-.011-.243.14-.075-.127a.216.21 0 0 1-.025-.058.06.066 0 0 1 .004-.044.08.08 0 0 1 .033-.035.08.083 0 0 1 .04-.013c.013 0 .026.00.038.01a.122.12 0 0 1 .025.02.094.09 0 0 1-.003-.026l.006-.02.00-.02.05-.08.05.088-.05.08a.071.07 0 0 0-.011.02.04.04 0 0 0 .005.02l.004.00.098-.06.04.077Zm-.428-.202-.074-.227.05-.02.04.142.04-.014-.043-.132.05-.018.04.13.05-.017-.047-.146.06-.02.07.23-.267.09Zm.008-.461-.003-.022c-.002-.017-.006-.029-.013-.035a.03.03 0 0 0-.024-.007.03.034 0 0 0-.02.01c-.006.00-.008.01-.006.03l.003.02.063-.008Zm-.11.10-.017-.147c-.003-.032.00-.057.01-.075a.085.08 0 0 1 .061-.031.08.086 0 0 1 .07.01c.017.01.028.04.033.07l.005.04.104-.012.01.089-.28.03Zm-.01-.563.01-.089.16.019a.145.14 0 0 1 .045.01.094.09 0 0 1 .037.03c.01.01.016.02.02.03a.184.18 0 0 1 .002.06.344.34 0 0 1-.008.04.103.10 0 0 1-.043.06.088.08 0 0 1-.034.01.152.15 0 0 1-.048.00l-.167-.018.00-.089.17.019c.016.00.029-.001.03-.01a.05.05 0 0 0 .017-.034.05.05 0 0 0-.01-.037c-.007-.01-.018-.015-.034-.017l-.17-.019Zm.28-.242.01-.043c.005-.015.00-.026.00-.034a.027.02 0 0 0-.017-.016.02.024 0 0 0-.023.00c-.007.00-.013.01-.017.02l-.015.04.054.02Zm-.104-.038.01-.036c.004-.013.00-.023.00-.03-.002-.007-.008-.012-.016-.014a.024.02 0 0 0-.02 0c-.007.00-.012.01-.016.02l-.013.03.05.01Zm-.133.04.054-.158a.092.09 0 0 1 .04-.054.06.066 0 0 1 .09.02c.004.01.007.02.007.03a.076.07 0 0 1 .039-.035.06.068 0 0 1 .047.00.078.07 0 0 1 .034.02c.008.01.014.02.016.03.002.00.001.02-.002.03-.004.02-.007.03-.01.03l-.049.14-.266-.095Zm.144-.37.04-.076.18.113.07-.12.06.038-.115.19-.242-.15Zm.186-.284.05-.068.21.186-.056.06-.215-.187Zm.391-.155.07-.032c.01.02.015.04.016.05a.112.11 0 0 1-.01.05.176.17 0 0 1-.041.05.185.18 0 0 1-.067.03.121.12 0 0 1-.07-.004.16.164 0 0 1-.07-.054c-.03-.037-.043-.073-.04-.109a.145.14 0 0 1 .056-.098.14.14 0 0 1 .079-.038.12.121 0 0 1 .077.02l-.048.06a.059.05 0 0 0-.02-.01.04.041 0 0 0-.022 0 .05.05 0 0 0-.022.01.053.05 0 0 0-.02.05c.002.01.01.03.026.05.02.02.038.03.053.04a.048.04 0 0 0 .042-.013c.012-.01.02-.023.02-.035a.09.09 0 0 0-.012-.045Zm.285-.173-.073-.078.01.107.05-.029Zm.044.04-.088.04.009.05-.08.04-.033-.306.08-.044.22.208-.08.04-.035-.036Zm.343-.3.02.155.02-.003a.086.08 0 0 0 .038-.011.04.043 0 0 0 .015-.025.13.13 0 0 0 0-.05c-.005-.03-.012-.05-.024-.06-.01-.01-.028-.013-.05-.01l-.022.00Zm-.095-.052.12-.02a.153.15 0 0 1 .062.00c.017.00.03.01.043.02a.125.12 0 0 1 .028.04.205.20 0 0 1 .015.05.183.18 0 0 1 0 .072.12.123 0 0 1-.023.04.094.09 0 0 1-.036.02.193.19 0 0 1-.05.01l-.128.01-.04-.285Zm.384-.056.23.017-.004.06-.146-.011-.003.04.135.01-.005.06-.135-.01-.004.05.15.01-.004.06-.238-.018.02-.287Zm.359.03.084.02-.058.21.13.03-.019.06-.214-.063.07-.277Zm.476.32.018.01c.013.01.025.01.034.01a.025.02 0 0 0 .012-.004.03.036 0 0 0 .014-.034c-.002-.008-.01-.017-.023-.026l-.021-.015-.034.05Zm-.008-.152.12.082c.026.01.041.03.046.06a.086.08 0 0 1-.016.06.086.08 0 0 1-.058.04c-.023.00-.049-.004-.078-.024l-.04-.027-.057.09-.073-.05.15-.24Zm.306.44.05-.096-.094.05.044.04Zm-.03.05-.07-.07-.043.02-.063-.063.27-.13.06.068-.122.28-.065-.066.02-.044Zm.263.12.02.03c.002.00.006.00.015.01.004.00.01.00.015.00.006.00.012 0 .017-.004a.027.02 0 0 0 .013-.019c0-.007-.003-.018-.012-.032l-.02-.033-.048.03Zm-.189.01.238-.156.07.125a.246.24 0 0 1 .028.05.071.07 0 0 1-.004.04.079.07 0 0 1-.031.03.073.07 0 0 1-.04.01.084.08 0 0 1-.038-.008.14.146 0 0 1-.026-.02c.003.01.004.01.004.02a.17.17 0 0 1-.014.04l-.045.08-.054-.085.04-.088a.061.06 0 0 0 .01-.025c0-.008-.001-.016-.006-.022l-.004-.007-.097.06-.047-.075Zm.333.38.085-.065-.106.00.021.05Zm-.051.03-.034-.096-.048.00-.03-.086.3.00.033.09-.229.20-.031-.088.03-.03Zm.135.30.058-.008.01.138-.12.01a.227.22 0 0 1-.062-.135.16.169 0 0 1 .007-.086.12.12 0 0 1 .045-.056.16.169 0 0 1 .074-.028c.03-.004.05 0 .082.01s.044.02.059.05c.011.01.02.04.023.07a.205.20 0 0 1 0 .072.08.088 0 0 1-.021.04.11.11 0 0 1-.042.03l-.025-.084a.045.04 0 0 0 .022-.021.06.06 0 0 0 .005-.033.06.061 0 0 0-.026-.044c-.015-.01-.036-.013-.065-.01-.03.00-.05.01-.063.02a.067.06 0 0 0-.013.05c.001.01.004.01.008.02.004.01.01.01.018.03l.026-.004-.007-.059Zm.178.43-.01.08-.166-.02a.14.14 0 0 1-.046-.013.10.102 0 0 1-.036-.029.10.102 0 0 1-.02-.038.19.19 0 0 1-.002-.063.73.733 0 0 1 .008-.045.11.11 0 0 1 .043-.068.09.096 0 0 1 .035-.015.14.144 0 0 1 .048-.002l.167.01-.01.08-.17-.02c-.016-.002-.028.00-.038.00a.049.04 0 0 0-.017.03c-.001.01.002.02.01.03a.05.05 0 0 0 .033.01l.171.02Zm-.26.32.107.00-.086-.064-.02.06Zm-.062-.003.03-.096-.04-.029.03-.086.23.197-.032.09-.3.00.029-.088.04.002Zm.155.26-.049.08h-.11l.053.1-.05.08-.085-.182-.101-.061.04-.077.10.062.19-.012Z" />
        <path fill="#000" fill-rule="evenodd"
            d="M12 7.11c-1.02 0-1.84.847-1.84 1.89 0 1.04.827 1.89 1.84 1.89 1.01 0 1.84-.841 1.84-1.88V9c0-1.04-.827-1.89-1.84-1.89ZM10.11 9c0-1.06.844-1.93 1.88-1.93 1.03 0 1.88.86 1.88 1.92V9c0 1.06-.845 1.93-1.88 1.93-1.04 0-1.88-.864-1.88-1.93Z"
            clip-rule="evenodd" />
        <path fill="#000" fill-rule="evenodd"
            d="M12 7.59c-.757 0-1.37.628-1.37 1.40 0 .775.61 1.40 1.37 1.40.756 0 1.37-.627 1.37-1.40 0-.773-.614-1.4-1.37-1.4Zm-1.41 1.40c0-.795.63-1.44 1.41-1.44.778 0 1.40.645 1.40 1.44 0 .797-.63 1.44-1.41 1.44-.778 0-1.40-.645-1.40-1.44Z"
            clip-rule="evenodd" />
        <path fill="#FEDF00"
            d="m12 8.48.117.34.353.00-.282.21.103.34L12 9.19l-.291.20.102-.346-.282-.219.35-.008.11-.342Z" />
        <path fill="#009B3A"
            d="M12.40 10.11s-.178-.095-.187-.097c-.006 0-.08-.043-.115-.054a.234.23 0 0 0-.072-.01c-.029.00-.077.01-.077.01l.044.01s.042.02.062.03c.03.01.03.03.03.03l.162.07.032.02s.03-.042.12-.036Z" />
        <path fill="#009B3A"
            d="M12.58 9.73c.056-.051.08-.124.12-.164.00.006.00.015-.002.03-.008.01-.02.02-.025.03-.01.01-.037.03-.045.05-.007.01-.015.03-.04.04-.024.01-.016.03-.018.04-.002.01-.04.03-.058.07-.003.03-.005.02-.026.03a1.51 1.51 0 0 0 .085-.148Zm-.126.16c-.004.00-.114.07-.08.06.035-.01.13-.048.16-.06.03-.016.05-.05.08-.077.02-.027.11-.11.12-.14.01-.033.02-.079-.03-.18 0 0-.008.02-.03.03-.02.02-.052.04-.052.04l-.036.03s-.129.24-.146.28Z" />
        <path fill="#009B3A"
            d="m12.91 9.81-.078-.007c-.006 0-.045-.005-.101-.005-.056 0-.077.02-.091.03l-.06.05.024-.003c.056-.045.1-.028.11-.03.01 0 .04.00.097-.019.05-.02.05 0 .048.00a.292.29 0 0 1-.085.01c-.043.00-.08.01-.097.01a1.73 1.73 0 0 0-.14.03s.133.00.148.01c.014.00.037.00.056-.006.05-.024.07-.029.09-.034.02-.004.04-.019.04-.019s.014-.008.02-.032c.013-.024-.007-.017-.007-.017Zm.065-.377a.289.28 0 0 1 .052-.092c.014-.012.03-.018.05-.023.00-.002.04-.004-.004.01-.02.00-.047.01-.06.03-.016.04-.03.09-.062.12-.023.02-.038.05-.038.05l-.024.00c.045-.029.06-.081.08-.119Zm.219-.027a.128.12 0 0 0-.035.01c-.058.01-.082.05-.107.08-.012.01-.03.02-.091.05-.056.02-.099.06-.1.06 0 0-.017.00-.014.01.001.00.016 0 .016 0s.115-.016.16-.046a.212.21 0 0 0 .077-.08c.013-.02.02-.057.02-.033.00.065-.096.12-.139.14-.023.01-.053.01-.093.02-.04.00-.064.00-.061-.003.00-.013.00-.015.02-.028.01-.023.06-.031.09-.047a.292.29 0 0 0 .096-.068c.019-.023.02-.031.03-.05.01-.052.01-.08.03-.098.04-.061.05-.08.05-.108 0-.006-.025.01-.039.02-.026.01-.035.01-.089.03-.054.01-.053.05-.061.06a.133.13 0 0 1-.035.04.205.20 0 0 0-.046.06c-.007.01-.02.02-.03.02-.01-.002.02-.12.02-.14a.258.25 0 0 0 .009-.07c0-.012 0-.044-.02-.047-.022-.004-.023-.033-.023-.033-.05.04-.022.12-.016.16.005.04-.01.13-.01.13.048.02.01.08-.005.1-.016.02-.046.02-.06.04l-.115.16.126-.036s.012.00-.007-.012c-.02-.014.00-.069.02-.082.03-.025.07-.007.07-.007s.058.01.13-.02c.06-.024.08-.063.11-.092.01-.016.04-.07.06-.101.01-.018.03-.053.01-.049Z" />
        <path fill="#009B3A"
            d="M12.83 9.75c.01-.004.01-.006.02-.025.01-.02.00-.054-.025-.052-.013 0-.027-.002-.053.03-.025.03.012.05.026.05a.057.05 0 0 0 .023-.006Z" />
        <path fill="#009B3A"
            d="M12.77 9.52c-.017.03-.025.06-.012.07.003.00.014.01.024.01s.037-.014.05-.039c.015-.024.02-.05-.004-.067-.029-.015-.049 0-.06.02Z" />
        <path fill="#009B3A"
            d="M12.86 9.18s.003-.005-.008-.017a.473.47 0 0 1-.04-.05.09.095 0 0 0-.045.07c0 .016.00.051 0 .087-.002.01-.003.02-.02.07-.018.04.002.08.006.09a.954.95 0 0 0 .017.05s.014-.009.01-.01h.024s.02-.039.02-.06a.465.46 0 0 0-.01-.084.24.24 0 0 1-.002-.11c.007-.034.03-.057.03-.057Z" />
        <path fill="#009B3A"
            d="M12.91 9.24s.02-.005.03-.023c.012-.022.01-.046.01-.046-.031-.06-.072-.012-.072-.012-.037.07.032.08.032.08Z" />
        <path fill="#009B3A"
            d="M13.02 9.12c-.046.00-.068.08-.068.08s-.008.02-.032.03c-.025.01-.01.04-.01.08 0 .042-.029.11-.029.11l-.01.02s0 .02.01-.015c.029-.057.06-.043.07-.105.00-.045.08-.06.08-.06l-.021-.004c-.077-.037.00-.129.01-.145.01-.017.02-.017-.017-.014Z" />
        <path fill="#009B3A"
            d="M13.00 9.22c-.02.04.038.04.052.04.005-.003.01-.018.01-.018.02-.036.00-.06-.01-.064-.013-.004-.038-.007-.06.04Z" />
        <path fill="#009B3A"
            d="M12.89 9.05c.016.03.06.11.07.10.006-.003 0-.02 0-.02s0-.022-.008-.049c-.007-.027-.005-.062-.019-.084-.013-.022-.045-.049-.058-.084-.013-.035-.003-.102-.002-.11.00-.008.00-.003-.001-.01a.46.46 0 0 0-.062-.04s.003.02.002.06c0 .01-.003.02-.005.03-.001.01.008.03.03.08.027.05.04.08.053.11Zm.33-.391-.022.03a3.77 3.77 0 0 1-.1.08c-.005.00-.051.01-.094.13-.043.11-.024.22-.024.22l.02-.003.00-.011.01-.068c.006-.03.03-.07.06-.1.02-.03.03-.071.03-.071.02-.05.03-.094.05-.128 0 .04-.152.29-.168.37l.045-.007c.036-.033.08-.104.11-.15a.41.41 0 0 0 .052-.149c.006-.03.00-.174.00-.174Z" />
        <path fill="#009B3A"
            d="M12.92 8.68a.134.13 0 0 0-.041-.029s.005.04.005.07c0 .025.00.07.00.092 0 .024-.012.06.004.1.01.038.03.056.04.08.01.023.03.142.03.142s-.008-.161-.001-.207a.461.46 0 0 0-.002-.15.24.245 0 0 0-.05-.098Zm.105-.158c.007-.014.02-.042.03-.085a.48.48 0 0 0 .003-.07c0-.013-.005-.037 0-.039.00-.001.00.008.00.028.00.007-.003.02-.004.05-.001.02-.002.03-.011.06-.008.02 0 .052-.006.06l-.019.03s-.008.02-.007.04l.002.04s.01-.019.03-.022c0 0 .005-.037.00-.049a.84.84 0 0 1 .022-.111.32.329 0 0 0 .001-.163.74.746 0 0 1-.008-.077s-.021.01-.034.08c-.004.02.005.07.001.13a1.28 1.28 0 0 1-.035.17" />
        <path fill="#009B3A"
            d="M12.94 8.19c.011 0 .011.01.009.02s-.002.03-.002.03a.37.37 0 0 0 .01.04c.003.01.01.01.007.04-.002.01-.02.04-.014.07.004.01.015.03.021.04.005.01.002.03.003.05.001.02.011.03.011.03s-.012.02-.017-.006c-.005-.035-.006-.051-.013-.067-.01-.026-.02-.074-.004-.11a.104.10 0 0 0 .006-.036c0-.015-.01-.042-.012-.06-.002-.012 0-.04 0-.05m-.06.14c.002.02.008.03.03.07a.222.22 0 0 1 .03.09l.002.03v.011s-.06-.036-.088-.056l-.076-.062c-.022-.019-.074-.082-.075-.133l-.024-.022s-.018.11.069.18c.024.02.052.04.11.07.058.02.05.05.075.10.024.05.039.08.042.09.002.01-.007.24-.007.24l.002.02s.053-.209.07-.232c0 0-.05-.008-.047-.09L13 8.65s-.01-.064.01-.105c0 0 .022-.073.01-.137l-.011-.086c-.007-.057-.03-.138-.032-.148-.007-.028-.01-.033-.019-.055-.002-.008-.007-.034-.016-.035-.004 0-.011.03-.011.03l-.013.04c-.007.03-.024.05-.03.12l-.005.05a.129.12 0 0 0 0 .03Z" />
        <path fill="#009B3A"
            d="M12.93 8.65s-.01-.02-.018-.03a.316.31 0 0 0-.112-.076c-.07-.035-.088-.093-.123-.117-.017-.011-.048-.017-.048-.017s.031.04.038.05c.01.01.012.03.05.06.038.03.084.05.114.05a.448.44 0 0 1 .099.05Zm-.219-.335c.002.00.02.06.058.11.057.07.167.12.167.12a.503.50 0 0 0-.042-.123c-.05-.083-.183-.123-.183-.123s-.002-.004 0 .003Zm.159.03c.03-.067-.06-.13-.084-.177.00-.007.02.012.03.026l.055.07.013-.06-.105-.099c-.002.01-.035.02-.035.02-.015.09.126.20.126.20Z" />
        <path fill="#009B3A"
            d="M12.68 8.19c-.025.01-.034.01-.034.01l.014.03.008.01s.034.05.053.05c.008.00.038.00.069.02.038.01.1.07.1.07s-.104-.12-.143-.209l-.014-.051-.037.00s.01.03-.016.04Z" />
        <path fill="#009B3A"
            d="M12.3 8.12a.506.50 0 0 0 .194.10l.074.01c.002-.028.03-.03.03-.03l-.088-.01a.235.23 0 0 1-.167-.084c.057.03.137.09.203.08.268-.027-.081-.034-.111-.054a.289.28 0 0 1-.06-.054l-.079-.004s-.039-.002.00.033Z" />
        <path fill="#009B3A"
            d="M12.61 8.27c.017-.002.02-.005.03-.025.00-.021-.005-.037-.03-.043-.014-.003-.04-.004-.05.02-.01.02.03.04.03.04s.007.00.017.00Zm.03-.158c-.023 0-.03.01-.026.05.006.03.062.02.062.02l.01-.005s.008-.006.00-.036-.027-.036-.05-.036Z" />
        <path fill="#009B3A"
            d="m12.73 8.14.008-.003c.012-.004.02-.033.02-.033.00-.038-.02-.048-.02-.048-.046-.009-.047.03-.047.03-.013.05.03.05.036.05Zm-.203-.182c.003.01.027.04.031.04a.606.60 0 0 1 .047.05c.01.01.045.08.045.08s.007-.001.01-.007a.344.34 0 0 0-.027-.098c-.011-.025-.03-.044-.047-.063-.004-.003-.019-.022-.035-.043.03.041.11.16.13.212 0 0-.002-.056-.005-.086-.01-.088-.033-.115-.04-.127a.14.14 0 0 0-.068-.055c-.023-.009-.05-.02-.08-.03-.03-.01-.006.01.005.04a.278.27 0 0 1 .027.07Z" />
        <path fill="#009B3A"
            d="M12.42 8.10c.03.02.043.04.105.05.062.01.067.00.067.00s.032-.016.01-.03a.623.62 0 0 1-.221-.145s.007-.008.03.025c.018.01.03.02.042.03.033.02.047.03.08.05.018.00.062.02.062.02s.006-.014.01-.016c.005 0-.004-.022-.042-.054a.313.31 0 0 1-.056-.062l-.094-.019c-.037-.006-.106-.06-.105-.045.00.015.01.062.03.092.01.03.03.061.06.088Z" />
        <path fill="#009B3A"
            d="M11.91 10.00c-.027.00-.229.08-.229.08l-.056.02a.188.18 0 0 1 .137.02l.225-.106s0-.003-.007-.007c-.005-.004-.043-.026-.07-.017Z" />
        <path fill="#009B3A"
            d="M11.61 10.12c-.001.00-.003.00.001.00.011.00.008.00.06.01.05.00.084-.004.09-.014.01-.012-.127-.033-.154-.01Z" />
        <path fill="#009B3A"
            d="m11.29 9.38-.01-.064s-.011-.175-.03-.21c-.005-.007-.003-.025-.015-.026-.024-.001-.024.05-.027.10-.038.25.164.45.164.45l-.082-.264Z" />
        <path fill="#009B3A"
            d="M12.29 10.14s-.021-.005-.007-.022c.012-.016.05-.024.05-.024s.03.00.045.00c.016.00.038.01.032.02-.007.01-.029.02-.058.02-.026 0-.039 0-.05-.004l-.02-.008Z" />
        <path fill="#009B3A"
            d="M12.07 10.02s-.07-.033-.135-.066a.638.63 0 0 1-.263-.213c-.091-.137-.17-.21-.189-.225-.02-.014-.022-.02-.03-.01-.006.01-.002.01.004.02.018.03.064.09.08.12.03.05.088.11.087.15 0 .005-.017-.004-.017-.004s-.137-.048-.193-.218c-.04-.123-.023-.16-.032-.221a.672.67 0 0 0-.073-.242c-.001-.003-.032-.054-.036-.043a.235.23 0 0 0 .005.07l.005.06-.004.15c0 .008-.035.09.112.24 0 0 .003.02-.017.00-.014-.016-.12-.098-.151-.234-.033-.136-.038-.272-.013-.329a.545.54 0 0 0 .048-.285c-.002-.011-.005-.045-.012-.036-.003.00-.016.06-.024.07-.011.02-.028.05-.034.07-.01.03-.06.07-.05.16.01.1.01.115.02.151.00.013.01.046.00.05-.006.00-.027-.04-.027-.04s-.093-.187-.035-.339c.058-.151.20-.294.20-.294s.118-.1.14-.124c.01-.009.00-.016.00-.015-.03.00-.257.05-.337.33 0 0-.004.01-.01.01-.008-.004 0-.017 0-.017s.05-.197.19-.286c.153-.098.13-.083.18-.114a.288.28 0 0 0 .097-.108.17.17 0 0 0 .016-.048c-.002-.006-.009.00-.012.01 0 0-.043.06-.108.09-.066.02-.118-.01-.184.06-.066.07-.118.17-.118.17s-.017.02-.02.02c-.008-.003.00-.029.00-.029s.088-.19.15-.228c.07-.04.13-.077.17-.108.04-.04.13-.135.16-.167.00-.008.05-.054.06-.07.00-.007.02-.02.01-.021-.007-.005-.05.01-.05.01s-.231.06-.375.28a.374.37 0 0 1-.031.04c-.016.01-.024.04-.024.04-.009-.008.08-.125.08-.125l.016-.075s.027-.113.08-.193c.006-.007.04-.041.04-.049.01-.012-.021.01-.015.00 0 0-.217.15-.217.35 0 .036-.022.06-.052.11a.362.36 0 0 0-.062.16 7.88 7.88 0 0 1-.02.09s.002.02-.007.02c-.01-.002-.006-.026-.006-.026s.022-.149.03-.195l.025-.075s-.009-.112.01-.173c.021-.054.07-.124.08-.142.00-.008.02-.058.03-.115 0-.008-.005-.002-.015.02-.024.05-.043.07-.083.12 0 0-.1.07-.136.29 0 0-.001.08-.014.21a.88.88 0 0 0 .01.23c.006.03.019.03.011.03-.005.00.003 0-.008-.025a.33.33 0 0 1-.025-.138c0-.115.01-.208.01-.208s.007-.186-.068-.27c-.004-.004.01.038.02.08.01.052-.007.12-.012.15-.005.02-.055.15-.037.26 0 0 .042.19.097.29 0 0 .034.04.004.00-.03-.038-.091-.19-.096-.203a.549.54 0 0 0-.09-.146.70.706 0 0 0-.081-.057s-.032-.025-.008.00c.02.02.045.07.057.09.026.04.049.08.069.13.02.04.065.17.065.17l.03.08s.049.02.075.05a.57.57 0 0 1 .106.18c.017.04.05.08.05.08s-.007.01-.037-.04-.059-.155-.13-.234c-.055-.06-.202-.122-.202-.122s.095.16.118.19l.111.13c.016.01.104.13.117.14.021.02.035.04.046.05.023.02.092.07.098.08 0 .006.00 0-.004-.004-.03-.019-.067-.048-.105-.074-.038-.025-.184-.089-.282-.227-.023-.041-.034-.058-.042-.053-.012.00.066.27.227.35 0 0 .177.08.216.10.022.01.065.03.085.05.012.00-.01.00-.011.00-.095-.007-.23-.02-.313-.07 0 0-.036-.025-.006.01.023.02.067.09.152.13.086.03.21.06.255.06.045.00.203.00.234.01.03.01.08.04.11.05l.105.04s.024.01.037.01c.014.00.074.00.078-.007.00-.01-.017-.025-.017-.025Z" />
        <path fill="#009B3A"
            d="M13.10 8.64c.018.00.026.06.026.06l-.002-.046c0-.015-.007-.074-.007-.074l-.016.01c-.02.01-.03.04-.03.04s.011-.002.02.005Z" />
    </g>
    <rect width="23.5" height="17.5" x=".25" y=".25" stroke="#DDE0EA" stroke-width=".5" rx="1.75"   style="fill-opacity:0"/>
    <defs>
        <clipPath id="a">
            <rect width="24" height="18" fill="#fff" rx="2" />
        </clipPath>
    </defs>
</svg>