<svg width="24" height="18" viewBox="0 0 24 18" fill="none" xmlns="http://www.w3.org/2000/svg">
<g clip-path="url(#clip0_1262_10523)">
<path d="M4.57e-05 6.03H7.35V12.01H4.57e-05V6.03Z" fill="white"/>
<path d="M7.35 0.05H0L4.57e-05 6.03H7.35L7.35 0.05Z" fill="#CC0000"/>
<path d="M7.35 0.83V0.05H6.45L0 5.26L4.57e-05 6.03L0.9 6.03L7.35 0.83Z" fill="#08672F"/>
<path d="M0 0.83V0.05H0.90L7.35 5.26L7.35 6.03L6.44 6.03L0 0.83Z" fill="#08672F"/>
<path d="M0 2.45L7.35 2.45L7.35 3.64L0.00 3.64L0 2.45Z" fill="white"/>
<path d="M3.07 0.00L4.26 0L4.27 6.09L3.08 6.09L3.07 0.00Z" fill="white"/>
<path d="M4.57e-05 18H7.35V12.01H4.57e-05V18Z" fill="#CC0000"/>
<path d="M7.00 0.05H24.00V18H7.00V0.05Z" fill="#0092C8"/>
<path d="M16.18 1.62C16.13 1.67 16.11 1.72 16.12 1.78C16.14 1.88 16.14 1.88 16.00 1.85C15.75 1.81 15.28 1.83 14.98 1.91C14.59 2.01 14.40 2.00 13.94 1.86C13.88 1.84 13.89 1.86 13.97 2.01C14.07 2.20 14.12 2.23 14.35 2.32L14.50 2.37L14.23 2.44C14.08 2.48 13.94 2.51 13.91 2.51C13.80 2.51 13.85 2.57 14.01 2.63C14.23 2.70 14.47 2.69 14.96 2.58C15.31 2.50 15.46 2.48 15.67 2.49C15.82 2.49 15.96 2.51 15.97 2.52C15.99 2.54 15.91 2.63 15.80 2.73C15.64 2.87 15.58 2.91 15.48 2.91C15.41 2.91 15.31 2.92 15.25 2.93C15.15 2.95 15.15 2.96 15.15 3.14V3.34L14.38 4.06C13.95 4.46 13.55 4.82 13.49 4.85C13.43 4.89 13.37 4.94 13.35 4.97C13.32 5.04 13.36 5.16 13.43 5.19C13.47 5.20 13.45 5.26 13.30 5.47C13.08 5.77 12.91 6.09 12.78 6.44L12.69 6.69L12.64 6.51C12.55 6.21 12.48 5.79 12.48 5.51C12.48 5.25 12.48 5.25 12.66 5.01C12.87 4.71 13.36 4.19 13.63 3.99C13.74 3.90 13.93 3.79 14.05 3.73C14.32 3.61 14.38 3.55 14.38 3.46C14.38 3.35 14.30 3.30 14.18 3.32C14.10 3.34 13.81 3.29 13.30 3.19C12.88 3.10 12.53 3.03 12.53 3.03C12.53 3.03 12.56 2.88 12.61 2.71C12.66 2.51 12.72 2.37 12.77 2.31C12.87 2.20 12.87 2.08 12.77 1.99C12.61 1.83 12.35 1.97 12.39 2.19L12.41 2.31L12.19 2.33C12.07 2.34 11.78 2.40 11.55 2.47C11.09 2.59 10.73 2.61 10.50 2.53C10.42 2.50 10.36 2.48 10.36 2.48C10.35 2.48 10.35 2.52 10.35 2.56C10.35 2.71 10.44 2.83 10.58 2.90L10.72 2.97L10.63 3.00C10.58 3.01 10.43 3.01 10.29 3.00C10.16 2.99 10.05 2.99 10.05 3.00C10.05 3.07 10.21 3.26 10.32 3.31C10.55 3.43 11.04 3.39 11.58 3.20C11.85 3.10 12.20 3.08 12.17 3.15C12.16 3.19 11.69 3.54 10.88 4.12C10.48 4.41 10.41 4.49 10.48 4.63C10.51 4.71 10.50 4.74 10.40 4.90C10.18 5.27 9.98 5.90 9.98 6.22C9.98 6.38 9.97 6.39 9.75 6.62C9.30 7.10 8.42 8.20 8.23 8.53L8.17 8.63L8.11 8.55C7.98 8.39 7.71 8.48 7.71 8.69C7.71 8.83 7.80 8.91 7.96 8.91C8.04 8.91 8.22 8.97 8.52 9.13L8.95 9.34L8.87 9.43C8.71 9.60 8.68 9.74 8.76 9.86C8.80 9.91 8.85 9.92 9.04 9.92C9.24 9.92 9.30 9.94 9.53 10.05C9.76 10.16 9.85 10.23 10.18 10.58C11.21 11.66 11.46 11.88 12.08 12.26C12.44 12.48 13.09 12.80 13.41 12.91C14.45 13.29 15.60 13.36 16.68 13.11C17.18 13.00 17.55 12.87 18.03 12.63C18.29 12.50 18.42 12.45 18.43 12.48C18.44 12.50 18.47 12.60 18.50 12.69C18.56 12.87 18.72 13.15 18.79 13.18C18.82 13.18 19.35 13.11 19.98 13.01C20.62 12.92 21.14 12.84 21.16 12.83C21.22 12.83 21.30 12.47 21.30 12.19C21.30 11.90 21.29 11.88 21.15 11.60C20.97 11.26 20.70 10.97 20.43 10.85L20.25 10.76L20.33 10.66C20.70 10.17 21.13 9.47 21.30 9.09L21.40 8.84L21.57 8.84C21.67 8.84 21.75 8.82 21.76 8.81C21.77 8.79 21.76 8.69 21.73 8.54C21.71 8.38 21.68 8.25 21.68 8.25C21.68 8.24 21.74 8.24 21.82 8.24H21.95V7.48L22.53 6.39C22.84 5.79 23.13 5.26 23.18 5.22C23.28 5.11 23.27 4.96 23.14 4.87C23.07 4.81 23.04 4.81 22.96 4.84C22.85 4.88 22.77 5.01 22.80 5.09C22.81 5.11 22.79 5.19 22.75 5.25C22.69 5.36 22.66 5.37 22.59 5.36C22.54 5.35 22.16 5.28 21.74 5.21L20.99 5.09L20.62 5.75C20.42 6.12 20.25 6.42 20.26 6.43C20.26 6.43 20.65 6.46 21.12 6.49C21.58 6.52 21.97 6.55 21.98 6.56C21.99 6.56 21.87 6.77 21.73 7.02L21.47 7.47H20.70C20.04 7.47 19.94 7.48 19.90 7.53C19.87 7.57 19.85 7.52 19.79 7.24C19.68 6.75 19.58 6.12 19.58 5.95C19.58 5.79 19.73 5.45 20.00 5.00C20.39 4.33 20.96 3.67 21.19 3.63C21.38 3.59 21.52 3.49 21.52 3.38C21.52 3.27 21.46 3.21 21.33 3.20C21.24 3.19 20.06 2.73 20.01 2.68C19.98 2.65 20.14 2.08 20.20 2.01C20.38 1.81 20.04 1.52 19.85 1.71C19.78 1.79 19.76 1.94 19.83 2.01C19.87 2.06 19.83 2.05 19.65 2.02C19.31 1.98 18.99 2.00 18.69 2.08C18.36 2.16 18.10 2.17 17.81 2.08C17.68 2.05 17.58 2.04 17.58 2.05C17.58 2.13 17.73 2.34 17.83 2.40C17.89 2.44 17.99 2.49 18.07 2.50L18.20 2.53L18.00 2.59C17.89 2.62 17.73 2.66 17.65 2.68L17.50 2.72L17.63 2.78C17.83 2.87 18.18 2.86 18.61 2.76C18.85 2.70 19.06 2.67 19.27 2.67C19.54 2.66 19.66 2.69 19.61 2.72C19.17 3.07 17.63 4.24 17.46 4.35C17.19 4.53 17.15 4.59 17.15 4.74C17.15 4.83 17.17 4.86 17.25 4.89L17.34 4.92L17.23 5.10C17.16 5.20 17.06 5.40 16.99 5.54L16.88 5.79L16.82 5.68C16.76 5.56 16.70 5.34 16.67 5.09C16.65 4.97 16.67 4.92 16.81 4.68C17.01 4.34 17.32 3.91 17.50 3.74C17.58 3.67 17.65 3.60 17.67 3.58C17.69 3.53 17.59 3.41 17.53 3.41C17.48 3.41 16.28 2.59 16.28 2.55C16.28 2.46 16.46 1.98 16.52 1.93C16.55 1.90 16.58 1.83 16.58 1.77C16.58 1.57 16.33 1.47 16.18 1.62ZM16.86 3.11C17.11 3.28 17.31 3.43 17.32 3.44C17.32 3.47 16.44 3.78 16.43 3.76C16.42 3.76 16.47 3.64 16.53 3.51C16.60 3.38 16.65 3.26 16.65 3.23C16.65 3.18 16.33 3.03 16.24 3.01C16.16 3.00 16.14 2.95 16.19 2.81L16.23 2.68L16.32 2.74C16.37 2.77 16.61 2.94 16.86 3.11ZM21.05 3.24C21.05 3.26 19.71 3.68 19.69 3.67C19.69 3.66 19.88 2.98 19.93 2.82C19.94 2.80 20.13 2.86 20.50 3.00C20.80 3.13 21.05 3.23 21.05 3.24ZM15.87 2.87C15.86 2.89 15.83 2.91 15.81 2.91C15.79 2.91 15.79 2.89 15.82 2.86C15.86 2.81 15.90 2.82 15.87 2.87ZM19.44 3.33C19.37 3.57 19.30 3.77 19.28 3.79C19.26 3.81 18.80 3.96 18.05 4.19C17.80 4.27 17.75 4.28 17.85 4.21C17.90 4.18 18.29 3.87 18.73 3.53C19.17 3.19 19.56 2.90 19.57 2.90C19.59 2.89 19.52 3.10 19.44 3.33ZM13.12 3.26C13.82 3.41 13.83 3.41 13.70 3.45C13.65 3.46 13.31 3.56 12.96 3.66L12.31 3.84L12.33 3.75C12.41 3.44 12.49 3.14 12.51 3.14C12.52 3.14 12.79 3.20 13.12 3.26ZM12.10 3.42C12.09 3.44 12.05 3.57 12.01 3.70L11.95 3.94L11.69 4.01C11.55 4.04 11.33 4.11 11.20 4.14C11.07 4.18 10.98 4.20 10.99 4.19C11.01 4.17 12.09 3.38 12.10 3.38C12.11 3.38 12.11 3.40 12.10 3.42ZM15.25 3.57C15.29 3.56 15.32 3.56 15.32 3.56C15.32 3.62 14.70 4.40 14.64 4.42C14.60 4.44 14.40 4.51 14.21 4.58L13.84 4.71L14.12 4.45C14.27 4.31 14.56 4.04 14.76 3.85C15.00 3.62 15.14 3.52 15.15 3.55C15.17 3.57 15.21 3.58 15.25 3.57ZM15.55 3.84L15.45 4.14L15.19 4.22C15.05 4.27 14.94 4.31 14.93 4.30C14.93 4.30 15.05 4.12 15.20 3.92C15.43 3.62 15.50 3.54 15.56 3.54H15.65L15.55 3.84ZM16.29 3.74L16.39 3.80L16.10 3.90C15.94 3.96 15.82 3.98 15.83 3.96C15.83 3.94 15.87 3.85 15.90 3.75L15.95 3.58L16.08 3.63C16.14 3.66 16.24 3.71 16.29 3.74ZM16.73 5.77L16.82 5.94L16.74 6.21C16.64 6.55 16.57 6.89 16.51 7.30C16.48 7.57 16.45 7.65 16.34 7.83C16.27 7.95 16.19 8.09 16.18 8.15C16.09 8.35 16.08 8.21 16.06 7.74C16.04 7.24 16.08 6.73 16.19 6.26C16.26 5.94 16.42 5.43 16.51 5.26L16.56 5.16L16.60 5.37C16.63 5.49 16.69 5.67 16.73 5.77ZM12.38 5.77C12.38 5.96 12.47 6.34 12.57 6.64C12.63 6.84 12.64 6.91 12.62 7.02C12.60 7.09 12.57 7.32 12.55 7.52C12.49 8.15 12.59 8.76 12.86 9.32C12.95 9.48 13.02 9.66 13.03 9.70L13.06 9.78L12.96 9.71C12.69 9.51 12.4 9.13 12.23 8.75C12.13 8.51 12.13 8.47 12.20 8.47C12.24 8.47 12.25 8.40 12.25 8.06V7.64H12.15C12.06 7.64 12.04 7.62 12.01 7.50C11.98 7.41 11.96 7.18 11.96 6.91C11.96 6.41 12.01 6.21 12.22 5.73C12.35 5.42 12.38 5.44 12.38 5.77ZM19.52 6.38C19.56 6.69 19.69 7.35 19.76 7.63C19.81 7.80 19.81 7.83 19.75 8.00C19.71 8.10 19.69 8.21 19.70 8.23C19.71 8.25 19.64 8.35 19.55 8.44C19.40 8.62 19.39 8.62 19.35 8.55C19.19 8.24 19.13 7.47 19.23 6.95C19.28 6.72 19.45 6.11 19.47 6.11C19.47 6.11 19.49 6.23 19.52 6.38ZM10.03 7.00L10.08 7.20L9.80 8.21L9.52 9.22L9.41 9.21C9.27 9.20 8.28 8.74 8.28 8.69C8.28 8.56 9.23 7.34 9.76 6.78L9.96 6.57L9.97 6.68C9.98 6.74 10.01 6.88 10.03 7.00ZM11.08 6.96C11.08 6.98 11.04 7.13 10.99 7.31L10.89 7.62L10.67 7.63C10.54 7.64 10.42 7.63 10.40 7.61C10.36 7.56 10.41 7.32 10.49 7.20C10.58 7.07 10.82 6.94 10.97 6.94C11.03 6.94 11.08 6.95 11.08 6.96ZM11.80 7.43C11.86 7.52 11.91 7.60 11.91 7.61C11.91 7.63 11.78 7.64 11.61 7.64H11.31L11.33 7.55C11.34 7.50 11.37 7.38 11.40 7.28L11.45 7.11L11.57 7.20C11.63 7.25 11.74 7.35 11.80 7.43ZM10.24 7.62C10.30 7.76 10.31 7.86 10.31 8.13V8.47H10.53L10.54 8.77C10.54 8.93 10.57 9.18 10.61 9.32C10.68 9.60 10.66 9.74 10.56 9.74C10.53 9.74 10.35 9.65 10.16 9.54C9.98 9.43 9.78 9.33 9.73 9.31L9.63 9.27L9.88 8.36C10.01 7.85 10.13 7.41 10.14 7.41C10.15 7.41 10.20 7.52 10.24 7.62ZM16.57 8.75C16.65 9.14 16.79 9.50 17.00 9.88C17.11 10.06 17.19 10.21 17.18 10.22C17.15 10.25 16.81 10.30 16.78 10.28C16.73 10.25 16.54 9.85 16.42 9.50C16.27 9.12 16.14 8.58 16.17 8.48C16.18 8.43 16.25 8.26 16.33 8.11L16.46 7.82L16.49 8.15C16.50 8.33 16.54 8.60 16.57 8.75ZM19.07 8.64C19.20 8.71 19.23 8.74 19.23 8.80C19.22 8.86 19.24 8.87 19.33 8.88C19.50 8.90 19.47 8.98 19.20 9.22C19.05 9.34 18.92 9.44 18.90 9.44C18.83 9.44 18.50 9.04 18.39 8.82L18.28 8.59L18.37 8.57C18.57 8.52 18.89 8.55 19.07 8.64ZM18.62 9.33L18.81 9.52L18.72 9.58C18.61 9.66 17.84 10.04 17.82 10.02C17.82 10.02 17.90 9.72 18.00 9.36L18.20 8.70L18.31 8.92C18.37 9.04 18.51 9.22 18.62 9.33ZM17.48 9.54C17.39 9.84 17.30 10.10 17.28 10.12C17.24 10.16 17.21 9.92 17.23 9.74C17.27 9.47 17.35 9.28 17.49 9.12C17.56 9.04 17.66 8.92 17.67 8.93C17.68 8.94 17.58 9.25 17.48 9.54ZM13.81 9.05C13.80 9.07 13.73 9.28 13.65 9.52C13.57 9.76 13.50 9.97 13.48 9.98C13.47 10.00 13.40 9.98 13.33 9.94C13.22 9.89 13.19 9.85 13.15 9.71C13.11 9.54 13.11 9.53 13.20 9.39C13.30 9.21 13.46 9.09 13.64 9.04C13.82 9.00 13.83 9.00 13.81 9.05ZM14.37 9.09C14.43 9.11 14.46 9.16 14.50 9.39C14.54 9.56 14.63 9.78 14.74 10.00L14.91 10.34L14.74 10.32C14.64 10.31 14.41 10.27 14.23 10.23L13.89 10.16L13.97 9.91C14.01 9.77 14.09 9.52 14.14 9.36C14.23 9.07 14.24 9.06 14.37 9.09ZM15.11 9.37L15.46 9.54L15.30 9.71C15.22 9.81 15.12 9.95 15.09 10.04C15.06 10.12 15.03 10.20 15.02 10.21C14.96 10.28 14.58 9.41 14.58 9.21C14.58 9.14 14.71 9.18 15.11 9.37ZM15.81 9.74C16.18 9.96 16.67 10.33 16.60 10.34C16.58 10.34 16.39 10.35 16.18 10.37C15.97 10.38 15.65 10.39 15.46 10.38L15.12 10.36L15.14 10.26C15.17 10.10 15.27 9.91 15.42 9.75C15.50 9.67 15.56 9.60 15.57 9.60C15.58 9.60 15.69 9.66 15.81 9.74Z" fill="#FFCF00"/>
<path d="M8.82 14.34C8.67 14.44 8.68 14.45 8.95 14.41C9.17 14.38 9.31 14.42 9.61 14.60C10.17 14.97 10.41 14.99 10.79 14.73C11.24 14.43 11.42 14.38 11.77 14.46C12.04 14.51 12.06 14.51 11.96 14.41C11.73 14.17 11.28 14.17 10.88 14.41C10.42 14.67 10.20 14.68 9.68 14.42C9.22 14.18 9.04 14.17 8.82 14.34ZM17.26 14.58C16.94 14.78 16.60 14.94 16.49 14.94C16.37 14.94 16.02 14.79 15.71 14.60C15.18 14.29 15.13 14.27 14.88 14.37C14.20 14.64 13.76 14.73 13.44 14.64C13.06 14.55 13.03 14.61 13.35 14.80C13.67 14.99 13.95 14.98 14.57 14.76C15.09 14.59 15.10 14.59 15.35 14.74C16.37 15.35 16.67 15.38 17.20 14.96C17.81 14.47 18.06 14.43 18.94 14.72C19.46 14.89 19.50 14.89 19.76 14.76L20.03 14.63H19.69C19.50 14.62 19.10 14.53 18.81 14.42C18.51 14.30 18.16 14.21 18.04 14.21C17.91 14.21 17.57 14.37 17.26 14.58ZM22.06 14.54C21.97 14.58 21.86 14.64 21.83 14.69C21.76 14.80 21.34 14.80 21.11 14.69C20.97 14.63 20.98 14.65 21.16 14.81C21.43 15.06 21.64 15.08 22.00 14.86C22.25 14.70 22.28 14.70 22.57 14.82C23.05 15.01 23.14 14.96 22.76 14.70C22.37 14.44 22.33 14.43 22.06 14.54ZM19.50 15.59C19.26 15.77 18.97 15.91 18.87 15.91C18.77 15.91 18.46 15.80 18.20 15.66L17.71 15.40L17.39 15.58C17.22 15.68 16.99 15.80 16.86 15.85C16.73 15.90 16.63 15.98 16.63 16.01C16.63 16.13 16.90 16.07 17.26 15.86C17.66 15.63 17.88 15.64 18.28 15.91C18.82 16.30 18.99 16.28 19.59 15.81C19.96 15.52 20.22 15.51 20.86 15.78C21.34 15.98 21.39 15.98 21.64 15.88L21.91 15.77L21.62 15.76C21.47 15.75 21.10 15.64 20.82 15.51C20.53 15.37 20.22 15.27 20.12 15.27C20.02 15.27 19.73 15.41 19.50 15.59ZM12.80 15.63C12.41 15.98 12.17 15.98 11.77 15.67C11.40 15.38 11.15 15.37 10.66 15.63C10.39 15.77 10.33 15.83 10.43 15.87C10.51 15.90 10.68 15.86 10.82 15.80C11.18 15.61 11.36 15.64 11.82 15.95C12.05 16.11 12.27 16.23 12.30 16.23C12.33 16.23 12.51 16.12 12.70 15.99C13.27 15.58 13.39 15.56 13.94 15.79C14.45 16.01 14.60 15.99 14.84 15.70C14.95 15.57 14.94 15.57 14.78 15.65C14.52 15.79 14.33 15.77 13.84 15.55C13.27 15.29 13.17 15.29 12.80 15.63ZM8.33 16.16C8.24 16.21 8.11 16.32 8.06 16.40C7.97 16.55 7.97 16.56 8.12 16.49C8.32 16.37 8.68 16.37 8.74 16.49C8.77 16.53 8.95 16.68 9.13 16.81C9.55 17.11 9.90 17.12 10.34 16.83C10.66 16.62 10.88 16.61 11.36 16.76C11.47 16.80 11.46 16.75 11.28 16.61C10.97 16.34 10.65 16.34 10.17 16.61C9.74 16.85 9.59 16.82 9.05 16.40C8.60 16.05 8.59 16.04 8.33 16.16ZM14.18 16.53C14.02 16.64 13.84 16.76 13.77 16.80C13.71 16.84 13.67 16.89 13.70 16.91C13.72 16.95 13.92 16.87 14.13 16.76C14.34 16.65 14.58 16.56 14.65 16.56C14.74 16.56 14.97 16.70 15.20 16.89C15.65 17.25 15.79 17.26 16.30 16.91C16.67 16.66 16.76 16.67 17.21 16.96C17.67 17.27 17.86 17.27 18.42 16.95C18.92 16.68 19.10 16.69 19.59 17.01C19.77 17.12 19.96 17.20 20.03 17.20C20.22 17.20 20.58 17.00 20.76 16.80L20.93 16.62L20.64 16.79C20.26 17.02 20.02 17.00 19.54 16.72C19.02 16.42 18.87 16.42 18.42 16.72C17.97 17.02 17.73 17.03 17.28 16.72C16.82 16.42 16.58 16.41 16.18 16.72C15.78 17.02 15.68 17.02 15.33 16.74C14.99 16.46 14.72 16.32 14.57 16.32C14.52 16.32 14.34 16.41 14.18 16.53Z" fill="white"/>
</g>
<rect x="0.25" y="0.25" width="23.5" height="17.5" rx="1.75" stroke="#DDE0EA" stroke-width="0.5" style="fill-opacity:0"/>
<defs>
<linearGradient id="paint0_linear_1262_10523" x1="12.18" y1="9.81" x2="11.27" y2="19.14" gradientUnits="userSpaceOnUse">
<stop/>
<stop offset="1" stop-color="#2B5DF2"/>
</linearGradient>
<linearGradient id="paint1_linear_1262_10523" x1="12.18" y1="9.81" x2="11.27" y2="19.14" gradientUnits="userSpaceOnUse">
<stop/>
<stop offset="1" stop-color="#2B5DF2"/>
</linearGradient>
<clipPath id="clip0_1262_10523">
<rect width="24" height="18" rx="2" fill="white"/>
</clipPath>
</defs>
</svg>
