<svg width="24" height="18" viewBox="0 0 24 18" fill="none" xmlns="http://www.w3.org/2000/svg">
<g clip-path="url(#clip0_1262_5942)">
<path d="M24 0H0V18H24V0Z" fill="#5EB6E4"/>
<path d="M24 0H0V9H24V0Z" fill="white"/>
<path d="M11.7375 3.13751C11.265 3.68001 10.4635 3.42101 10.0855 3.63101C9.42755 3.99851 10.1695 4.85251 10.306 5.01701L10.9255 4.83151C10.663 4.62151 10.1625 4.25401 10.32 3.96351C10.4845 3.66601 11.363 3.96351 11.741 3.32651C11.8215 3.19351 11.762 3.10951 11.7375 3.13751Z" fill="#F1BF31"/>
<path d="M12.2695 3.13751C12.742 3.68001 13.5435 3.42101 13.9215 3.63101C14.5795 3.99851 13.8375 4.85251 13.701 5.01701L13.0815 4.83151C13.344 4.62151 13.8445 4.25401 13.687 3.96351C13.5225 3.66601 12.644 3.96351 12.266 3.32651C12.1855 3.19351 12.245 3.10951 12.2695 3.13751Z" fill="#F1BF31"/>
<path d="M12.0035 4.33451H11.7655C11.7655 4.33451 11.804 4.10701 11.7725 3.95301C11.748 3.82701 11.664 3.72901 11.6535 3.59951C11.636 3.41751 11.7935 3.17601 11.7935 3.17601H12.2135C12.2135 3.17601 12.364 3.41751 12.35 3.59951C12.3395 3.72901 12.259 3.82701 12.2345 3.95301C12.2065 4.10701 12.2415 4.33451 12.2415 4.33451H12.0035Z" fill="#F1BF31"/>
<path d="M10.6315 5.62601C10.6315 5.62601 10.6035 5.59451 10.5965 5.56651C10.5825 5.53151 10.5825 5.46851 10.5825 5.46851L10.425 5.30401L10.7225 5.02051L11.2895 4.85951L12.0035 4.80701L12.7175 4.85951L13.2845 5.02051L13.582 5.30401L13.4245 5.46851C13.4245 5.46851 13.428 5.53151 13.4105 5.56651C13.4 5.59101 13.3755 5.62601 13.3755 5.62601L12.728 5.42651L12.0035 5.39501L11.279 5.42651L10.6315 5.62601Z" fill="#F1BF31"/>
<path d="M10.607 5.75551C10.607 5.51751 11.23 5.32501 12 5.32501C12.77 5.32501 13.393 5.51751 13.393 5.75551C13.393 5.95851 12.77 6.12301 12 6.12301C11.23 6.12301 10.607 5.95851 10.607 5.75551Z" fill="#F1BF31"/>
<path d="M10.418 5.22001C10.3095 5.05201 10.1555 4.92601 9.99105 4.86301C10.0295 4.83151 10.096 4.82101 10.166 4.81751C10.2465 4.81051 10.3165 4.82451 10.3725 4.85251C10.3165 4.65651 10.4075 4.46051 10.4075 4.46051C10.4075 4.46051 10.5825 4.46051 10.7505 4.59701C10.7575 4.36251 10.831 4.24351 10.831 4.24351C10.831 4.24351 10.999 4.26101 11.1775 4.44301C11.216 4.20151 11.342 4.06151 11.342 4.06151C11.342 4.06151 11.559 4.12801 11.685 4.35901C11.769 4.02651 12 3.90751 12 3.90751C12 3.90751 12.231 4.02651 12.315 4.35901C12.441 4.12801 12.658 4.06151 12.658 4.06151C12.658 4.06151 12.791 4.18401 12.8225 4.44301C13.0045 4.26101 13.169 4.24351 13.169 4.24351C13.169 4.24351 13.2425 4.35901 13.2495 4.59701C13.421 4.46051 13.617 4.49551 13.617 4.49551C13.617 4.49551 13.6835 4.65651 13.631 4.84901C13.6905 4.82101 13.757 4.81051 13.8375 4.81401C13.9075 4.81751 13.974 4.83151 14.0125 4.85951C13.8515 4.92251 13.694 5.04501 13.5855 5.21651C13.4665 4.97501 12.8295 4.73001 12 4.73001C11.174 4.73351 10.5335 4.97851 10.418 5.22001Z" fill="#F1BF31"/>
<path d="M12.2835 1.85651C12.3465 1.85651 12.392 1.91251 12.392 1.97551C12.392 2.03851 12.3465 2.09801 12.2835 2.09801C12.203 2.09801 12.084 2.00351 12.0875 2.07701L12.091 2.11551L12.133 2.46901C12.238 2.49351 11.762 2.49351 11.8705 2.46901L11.9125 2.11201L11.916 2.07351C11.9195 1.99651 11.8005 2.09451 11.72 2.09451C11.657 2.09451 11.6115 2.03501 11.6115 1.97201C11.6115 1.90901 11.657 1.85301 11.72 1.85301C11.783 1.85301 11.8495 1.90901 11.8915 1.88451C11.9615 1.84251 11.8775 1.74801 11.8775 1.68501C11.8775 1.62201 11.937 1.57301 12 1.57301C12.063 1.57301 12.1225 1.62201 12.1225 1.68501C12.1225 1.74801 12.0385 1.83901 12.1085 1.88451C12.154 1.91251 12.2205 1.85651 12.2835 1.85651Z" fill="#D99F31"/>
<path d="M12.2135 3.17601L11.79 3.17601C11.755 3.23551 11.6395 3.27751 11.5485 3.22851C11.482 3.19351 11.468 3.11651 11.468 3.11651C11.468 3.11651 11.6465 3.12351 11.6465 2.96601C11.6465 2.80851 11.7375 2.70351 11.8705 2.71751C11.9265 2.72451 11.965 2.75251 12.0035 2.78401C12.0385 2.75251 12.077 2.72451 12.1365 2.71751C12.266 2.70351 12.357 2.80501 12.357 2.96251C12.357 3.12001 12.5355 3.11301 12.5355 3.11301C12.5355 3.11301 12.5215 3.19001 12.455 3.22501C12.364 3.27751 12.2485 3.23551 12.2135 3.17601Z" fill="#D99F31"/>
<path d="M11.958 6.46251C12.4305 6.45551 14.471 6.11251 14.471 8.94401C14.471 11.6495 12 12.724 12 12.724C12 12.724 9.52905 11.681 9.52905 8.73751C9.53255 6.11251 11.958 6.46251 11.958 6.46251Z" fill="#A0CFEB"/>
<path d="M12.7595 10.694C12.903 10.6135 13.071 10.568 13.2495 10.568C13.5365 10.568 13.799 10.6905 13.981 10.883C13.26 12.178 12.0035 12.7275 12.0035 12.7275C12.0035 12.7275 10.7785 12.2095 10.054 10.8795C10.236 10.687 10.495 10.568 10.7785 10.568C10.978 10.568 11.1635 10.6275 11.3175 10.7255C11.4995 10.5295 11.762 10.407 12.0525 10.407C12.329 10.4035 12.5775 10.5155 12.7595 10.694Z" fill="#94BB79"/>
<path d="M11.062 10.162L11.181 10.6485C11.0585 10.596 10.922 10.5645 10.7785 10.5645L10.754 8.54851L10.8625 8.58001V8.79351L10.999 8.82851V8.61851L11.1845 8.66751V9.01051L11.0655 9.18551L11.062 10.162Z" fill="white"/>
<path d="M10.754 10.1235V8.54851L10.6455 8.59751V8.80751L10.509 8.86001V8.65001L10.3235 8.72701V9.05951L10.4565 9.21701L10.46 10.176L10.3235 10.6695C10.453 10.603 10.5965 10.5645 10.7505 10.561V10.5575L10.754 10.1235Z" fill="#BDBFC1"/>
<path d="M12.2835 9.98351L12.4025 10.4665C12.294 10.4245 12.175 10.4035 12.0525 10.4035C12.0245 10.4035 11.9965 10.4035 11.9685 10.407L11.972 8.36301L12.0805 8.39801V8.61151L12.217 8.65001V8.44001L12.4025 8.49951V8.84251L12.2835 9.01051V9.98351Z" fill="white"/>
<path d="M11.9755 10.407V8.36301L11.867 8.40501V8.61501L11.7305 8.66401V8.45401L11.545 8.52751V8.86351L11.678 9.02451L11.6815 9.99051L11.545 10.54C11.6745 10.4665 11.818 10.421 11.9755 10.407Z" fill="#BDBFC1"/>
<path d="M13.505 10.1725L13.624 10.638C13.5085 10.5925 13.3825 10.5645 13.2495 10.5645C13.232 10.5645 13.211 10.5645 13.1935 10.5645L13.197 8.54851L13.3055 8.58351V8.79701L13.442 8.84251V8.63601L13.6275 8.69901V9.03851L13.505 9.21001V10.1725Z" fill="white"/>
<path d="M13.1935 10.1235V8.54851L13.085 8.58351V8.79351L12.9485 8.83551V8.62551L12.763 8.68501V9.02801L12.896 9.19951L12.8995 10.162L12.763 10.687C12.8925 10.617 13.036 10.575 13.19 10.5645V10.561L13.1935 10.1235Z" fill="#BDBFC1"/>
<path d="M10.9465 7.86251C10.922 7.76101 10.8695 7.63151 10.7435 7.65251L10.7365 7.66301C10.7435 7.83101 10.9535 8.34201 10.754 8.43301C10.747 8.13901 10.4845 7.95001 10.551 7.67701C10.5685 7.60001 10.6455 7.50551 10.719 7.47751C10.754 7.46351 10.7925 7.45301 10.831 7.45301C11.0795 7.46001 11.146 7.72601 10.9465 7.86251Z" fill="white"/>
<path d="M12.182 7.67351C12.1575 7.57201 12.105 7.44251 11.979 7.46351L11.972 7.47401C11.979 7.64201 12.189 8.15301 11.9895 8.24401C11.9825 7.95001 11.72 7.76101 11.7865 7.48801C11.804 7.41101 11.881 7.31651 11.9545 7.28851C11.9895 7.27451 12.028 7.26401 12.0665 7.26401C12.3185 7.27101 12.385 7.53351 12.182 7.67351Z" fill="white"/>
<path d="M13.4175 7.86251C13.393 7.76101 13.3405 7.63151 13.2145 7.65251L13.2075 7.66301C13.2145 7.83101 13.4245 8.34201 13.225 8.43301C13.218 8.13901 12.9555 7.95001 13.022 7.67701C13.0395 7.60001 13.1165 7.50551 13.19 7.47751C13.225 7.46351 13.2635 7.45301 13.302 7.45301C13.554 7.46001 13.6205 7.72601 13.4175 7.86251Z" fill="white"/>
<path d="M13.1025 5.99351L12.0105 6.46601L10.9185 5.99351L10.537 6.02151C9.59555 6.02151 9.11955 7.31651 9.11955 8.51351C9.11955 11.3555 11.8355 12.5105 11.8355 12.5105C11.8355 12.5105 9.66205 11.037 9.77755 8.51351C9.83705 7.21851 10.2535 6.95951 10.3655 6.88251L11.0655 7.07851L12.007 6.52201L12.9485 7.07851L13.631 6.88251C13.7465 6.95951 14.1595 7.21851 14.219 8.51351C14.3345 11.037 12.161 12.5105 12.161 12.5105C12.161 12.5105 14.877 11.352 14.877 8.51351C14.877 7.31651 14.401 6.02151 13.4595 6.02151L13.1025 5.99351Z" fill="#D99F31"/>
<path d="M12.0105 6.73901C12.1304 6.73901 12.2275 6.64186 12.2275 6.52201C12.2275 6.40217 12.1304 6.30501 12.0105 6.30501C11.8907 6.30501 11.7935 6.40217 11.7935 6.52201C11.7935 6.64186 11.8907 6.73901 12.0105 6.73901Z" fill="#D99F31"/>
<path d="M12 12.745C11.44 12.5315 10.7925 12.0905 10.39 11.723C9.62005 11.0195 8.93405 9.85751 9.04605 8.25451C9.11605 7.24301 9.41355 6.60251 9.80205 6.26651C10.4635 5.69251 11.3175 5.95501 11.3175 6.58151C11.3175 6.92451 11.0375 7.20451 10.6945 7.20451C10.4845 7.20451 10.264 7.03651 10.2885 6.78101C10.2955 6.64451 10.4075 6.53601 10.544 6.53601C10.684 6.53601 10.7995 6.65151 10.7995 6.79151C10.7995 6.86851 10.747 6.94551 10.6945 6.99101C10.9115 6.98401 11.104 6.79851 11.104 6.57801C11.104 6.35401 10.9325 6.16501 10.6875 6.14401C9.86855 6.07751 9.34005 7.00501 9.25255 8.26851C9.12655 10.0605 10.103 11.5095 11.573 12.325C11.7795 12.4405 11.9405 12.5105 12.0105 12.5385C12.0805 12.5105 12.2415 12.4405 12.448 12.325C13.918 11.5095 14.8945 10.0605 14.7685 8.26851C14.681 7.00851 14.149 6.07751 13.3335 6.14401C13.0885 6.16501 12.917 6.35401 12.917 6.57801C12.917 6.79851 13.1095 6.98401 13.3265 6.99101C13.2705 6.94551 13.2215 6.86851 13.2215 6.79151C13.2215 6.65151 13.337 6.53601 13.477 6.53601C13.6135 6.53601 13.7255 6.64451 13.7325 6.78101C13.7535 7.03651 13.533 7.20451 13.3265 7.20451C12.9835 7.20451 12.7035 6.92451 12.7035 6.58151C12.7035 5.95501 13.5575 5.69601 14.219 6.26651C14.6075 6.60251 14.905 7.24301 14.975 8.25451C15.087 9.85751 14.401 11.0195 13.631 11.723C13.2075 12.0905 12.56 12.528 12 12.745Z" fill="#F1BF31"/>
<path d="M9.07055 11.6005C9.01105 11.604 8.94455 11.604 8.88505 11.6145C8.70655 11.646 8.52805 11.842 8.25505 11.849C7.89105 11.8595 7.66355 11.688 7.41505 11.443C7.77555 11.387 8.05555 11.1805 8.43005 11.296C8.62255 11.3555 8.84655 11.597 9.02505 11.562L9.07055 11.6005Z" fill="#658D5C"/>
<path d="M10.222 12.0975C10.1905 12.0625 10.1555 12.031 10.117 12.003C10.0295 11.94 9.84055 11.933 9.69705 11.828C9.49755 11.681 9.39255 11.5445 9.33655 11.303C9.30155 11.156 9.32955 11.0405 9.33655 10.918C9.51505 11.1805 9.83005 11.205 9.99805 11.5165C10.0995 11.7055 10.0855 11.996 10.2955 12.1115L10.222 12.0975Z" fill="#658D5C"/>
<path d="M8.58405 11.023C8.58405 11.023 8.46855 10.9985 8.41955 10.974C8.33205 10.9285 8.13605 10.673 7.90855 10.5435C7.58305 10.358 7.30305 10.3965 6.98455 10.3055C7.07555 10.645 7.24705 10.848 7.56905 10.995C7.85605 11.1245 8.32505 11.0125 8.37755 11.016C8.43005 11.0195 8.59105 11.0895 8.59105 11.0895L8.58405 11.023Z" fill="#658D5C"/>
<path d="M9.04255 11.4115C9.02855 11.31 8.91305 11.163 8.86405 11.072C8.79405 10.9355 8.74155 10.7815 8.72405 10.6275C8.68905 10.295 8.76605 10.113 8.98655 9.86801C8.98655 9.94151 8.99705 9.96601 9.01805 10.0325C9.10905 10.316 9.23855 10.5505 9.19655 10.8585C9.17555 11.009 9.05305 11.226 9.04605 11.317C9.04255 11.366 9.07055 11.422 9.09505 11.4605L9.04255 11.4115Z" fill="#466343"/>
<path d="M7.87005 10.26C7.74405 10.218 7.59705 10.1935 7.44305 10.1585C7.29955 10.1235 7.18055 10.043 7.06855 9.94501C6.89705 9.79101 6.84105 9.58451 6.80605 9.36051C6.78855 9.23451 6.78155 9.11551 6.79205 8.98951C6.80605 9.01401 6.82355 9.03851 6.84455 9.05601C6.95655 9.13651 7.07555 9.19251 7.18755 9.27301C7.28555 9.34301 7.35555 9.39201 7.43605 9.48301C7.53755 9.59851 7.62505 9.72101 7.69505 9.85751C7.75105 9.96601 7.80005 10.092 7.87355 10.1865L7.87005 10.26Z" fill="#658D5C"/>
<path d="M8.69605 8.01301C8.90605 8.58351 8.62955 8.99651 8.12205 9.28001L7.98905 9.09451C8.07655 8.72701 8.13955 8.54501 8.41955 8.28601C8.52805 8.18451 8.62605 8.15301 8.69605 8.01301Z" fill="#466343"/>
<path d="M8.10455 7.44951C7.89455 7.99901 7.83505 8.91601 7.90505 9.34301C8.12905 10.673 9.21755 11.919 10.222 12.122C11.09 12.297 11.608 12.6855 11.965 13.088C12.133 13.277 12.266 13.459 12.378 13.634C12.4725 13.7845 12.553 13.9455 12.6335 14.075C12.6475 14.096 12.539 14.1415 12.5285 14.1205C12.4445 13.984 12.3675 13.8125 12.2695 13.6515C12.1575 13.473 11.9685 13.2875 11.8005 13.0915C11.447 12.675 10.978 12.3635 10.1625 12.199C9.20005 12.0065 8.08005 10.778 7.85605 9.45501C7.78255 9.02451 7.83855 8.03051 8.02755 7.50201L8.10455 7.44951Z" fill="#A48253"/>
<path d="M9.55355 11.8735C9.32255 11.6775 8.90605 11.7475 8.65755 11.4815C8.47555 11.2855 8.39855 10.9775 8.44405 10.7115C8.66455 10.9075 8.92005 10.96 9.11955 11.1805C9.35405 11.4395 9.15455 11.6145 9.59905 11.8665L9.55355 11.8735Z" fill="#658D5C"/>
<path d="M7.94005 8.30001L7.94705 8.23001C7.99955 8.20901 8.04855 8.15651 8.06955 8.10401C8.16405 7.88001 8.22005 7.65251 8.34955 7.44601C8.52105 7.17651 8.70305 7.07501 8.88505 6.92801C8.89205 7.16601 8.93405 7.41451 8.74855 7.72601C8.64005 7.90101 8.32855 8.07601 8.13605 8.15301C8.04855 8.18451 7.98905 8.21251 7.94005 8.30001Z" fill="#658D5C"/>
<path d="M7.80005 8.97901L7.80705 9.04901C7.66705 8.85651 7.61805 8.91251 7.42205 8.83201C7.25055 8.76201 7.11405 8.62901 7.01605 8.47501C6.86905 8.24401 6.87255 7.90451 6.93205 7.64551C7.01255 7.80301 7.32055 7.95701 7.43955 8.15301C7.51655 8.27901 7.56205 8.42601 7.60055 8.56951C7.61805 8.63951 7.64255 8.78301 7.67055 8.84251C7.69505 8.88801 7.76155 8.94751 7.80005 8.97901Z" fill="#658D5C"/>
<path d="M8.33905 10.4735C8.39155 10.393 8.34605 10.19 8.32855 10.0955C8.30405 9.95201 8.30055 9.82951 8.32505 9.68601C8.36355 9.45151 8.51405 9.29051 8.64355 9.10151C8.66805 9.06301 8.69605 9.02451 8.71705 8.98601C8.86755 9.41301 8.90955 9.84701 8.58055 10.2075C8.53155 10.26 8.40905 10.365 8.39155 10.4315C8.38105 10.4665 8.37755 10.505 8.37405 10.54L8.33905 10.4735Z" fill="#658D5C"/>
<path d="M9.49055 12.0205C9.40305 12.0205 9.13005 11.975 8.90955 12.031C8.57705 12.1185 8.44055 12.4265 8.19205 12.5385C8.57005 12.6995 8.84655 12.661 9.16155 12.409C9.28755 12.3075 9.36805 12.115 9.53255 12.0625L9.49055 12.0205Z" fill="#466343"/>
<path d="M8.06605 7.44601C8.12555 7.27801 8.12555 7.09251 8.15705 6.91751C8.22705 6.55001 8.33205 6.43101 8.59805 6.18251C8.68205 6.10551 8.76955 6.04601 8.86055 5.97601C8.87455 6.08101 8.88155 6.17201 8.87105 6.27701C8.81855 6.79851 8.59805 6.92101 8.22705 7.23951C8.15355 7.29901 8.13605 7.38651 8.06605 7.44601Z" fill="#658D5C"/>
<path d="M7.87355 8.26501L7.84555 8.35251C7.83155 8.24051 7.78255 8.18801 7.70205 8.11451C7.34505 7.79251 7.19455 7.41101 7.34155 6.97001C7.39405 6.81601 7.44305 6.72851 7.55505 6.60951C7.62505 6.72851 7.66005 6.79851 7.70555 6.92801C7.82805 7.25701 7.87705 7.44251 7.82805 7.81701C7.81055 7.95001 7.74755 8.11101 7.83505 8.23001C7.84555 8.24051 7.85605 8.25801 7.87355 8.26501Z" fill="#658D5C"/>
<path d="M16.193 8.26851L16.165 8.14251C16.172 8.13901 16.179 8.13201 16.186 8.12501C16.221 8.09351 16.235 8.00251 16.2385 7.95701C16.2455 7.85901 16.172 7.80301 16.1685 7.71901C16.165 7.67701 16.214 7.66301 16.221 7.62101C16.2315 7.56851 16.088 7.44601 16.1265 7.34801C16.151 7.28151 16.214 7.31651 16.2385 7.23251C16.2595 7.15901 16.1965 7.02601 16.277 6.98051C16.326 6.95251 16.396 6.99801 16.4205 6.91051C16.438 6.84401 16.424 6.73551 16.515 6.72501C16.641 6.71101 16.6585 6.96301 16.69 6.98751C16.725 7.01551 16.753 6.98051 16.788 6.99451C16.8405 7.01551 16.8265 7.08551 16.816 7.12751C16.802 7.17651 16.7775 7.21501 16.76 7.26051C16.7565 7.27101 16.7565 7.27801 16.767 7.28151C16.7985 7.29551 16.8265 7.28851 16.8405 7.33051C16.8545 7.39001 16.767 7.45301 16.746 7.49851C16.732 7.53351 16.7915 7.54401 16.7985 7.59301C16.809 7.65951 16.5815 7.73651 16.5675 7.76801C16.564 7.81351 16.6235 7.85901 16.5535 7.88351C16.3715 7.94301 16.193 8.05851 16.193 8.26851Z" fill="#658D5C"/>
<path d="M16.1475 8.23701L16.1615 8.32101C15.9235 7.98151 15.731 8.11451 15.6785 8.06201C15.64 8.02001 15.689 7.98851 15.6575 7.95701C15.6225 7.92201 15.423 7.99551 15.3635 7.84151C15.3495 7.81001 15.395 7.75751 15.374 7.75051C15.325 7.74001 15.255 7.74351 15.22 7.69451C15.206 7.67701 15.192 7.64901 15.213 7.62801C15.2235 7.61751 15.234 7.60701 15.241 7.59651C15.2725 7.55101 15.0835 7.51601 15.0835 7.44601C15.0835 7.40751 15.136 7.39351 15.115 7.34451C15.0975 7.30251 15.0415 7.23251 15.0695 7.18701C15.1045 7.13101 15.185 7.20101 15.227 7.20801C15.248 7.21151 15.2865 7.15901 15.3215 7.15901C15.3775 7.15901 15.402 7.26401 15.4475 7.26051C15.4895 7.25701 15.5385 7.19051 15.584 7.24651C15.6155 7.28501 15.6155 7.40401 15.6925 7.36901C15.71 7.36201 15.738 7.33751 15.759 7.34801C15.8815 7.40051 15.85 7.59651 15.878 7.69801C15.8955 7.75401 15.9515 7.74001 15.9725 7.77501C15.983 7.79251 15.99 7.81001 15.9935 7.83101C15.9935 7.84851 15.9935 7.86601 15.99 7.88001C15.9795 7.94651 15.9865 8.00601 16.004 8.07251C16.0215 8.12501 16.095 8.22301 16.1475 8.23701Z" fill="#658D5C"/>
<path d="M16.2175 9.28001C16.2665 9.27651 16.298 9.18901 16.312 9.15051C16.333 9.09801 16.34 9.04901 16.3435 8.99301C16.347 8.91251 16.291 8.77601 16.4135 8.79351C16.4135 8.79351 16.438 8.60801 16.4905 8.56601C16.5255 8.53801 16.585 8.55551 16.6025 8.54151C16.6375 8.51701 16.6235 8.40151 16.7005 8.38751C16.7285 8.38051 16.7845 8.41201 16.8055 8.40151C16.8335 8.38751 16.844 8.30351 16.8965 8.28951C16.9315 8.27901 16.9735 8.31751 16.998 8.30351C17.0435 8.27551 17.0785 8.18451 17.145 8.20201C17.2185 8.22301 17.194 8.33501 17.173 8.38051C17.159 8.41201 17.1975 8.42601 17.2115 8.45051C17.236 8.49601 17.152 8.56951 17.145 8.60801C17.1415 8.62201 17.1765 8.63951 17.187 8.65001C17.243 8.70951 17.0995 8.81101 17.061 8.84601C17.0505 8.85651 17.026 8.87401 17.0225 8.89151C17.019 8.92301 17.054 8.94751 17.047 8.98951C17.0155 9.12601 16.8265 9.08401 16.753 9.11201C16.7215 9.12251 16.718 9.18201 16.7005 9.21001C16.641 9.29051 16.3785 9.21351 16.3085 9.27651C16.2665 9.31501 16.2315 9.38151 16.2105 9.43401L16.2175 9.28001Z" fill="#658D5C"/>
<path d="M16.116 9.06651C15.983 8.86001 15.9235 8.93701 15.717 8.95101C15.6715 8.95451 15.514 8.96151 15.5175 8.88101C15.5175 8.86001 15.535 8.85301 15.521 8.82501C15.493 8.76901 15.3075 8.77951 15.2795 8.67101C15.2655 8.61501 15.297 8.54151 15.2865 8.52051C15.262 8.45051 15.1465 8.38751 15.1815 8.29651C15.185 8.28601 15.192 8.27201 15.1955 8.26151C15.2025 8.22301 15.122 8.12851 15.157 8.06901C15.199 7.99901 15.2725 8.05501 15.3285 8.07951C15.3705 8.09701 15.36 8.06201 15.3845 8.05501C15.43 8.04101 15.4895 8.08301 15.521 8.11451C15.5385 8.13201 15.5945 8.19851 15.6085 8.20201C15.64 8.21601 15.696 8.19851 15.7345 8.21251C15.7695 8.22301 15.7905 8.36651 15.7975 8.40501L15.8045 8.40851C15.836 8.40151 15.8815 8.40151 15.899 8.43301C15.983 8.57301 15.941 8.90201 16.123 9.00351L16.116 9.06651Z" fill="#658D5C"/>
<path d="M14.863 11.5515C14.87 11.5095 14.8735 11.45 14.863 11.408C14.8455 11.3485 14.7125 11.2715 14.7055 11.2155C14.702 11.1805 14.7265 11.1735 14.7335 11.1315C14.7405 11.0755 14.6005 11.037 14.618 10.96C14.6285 10.911 14.688 10.89 14.681 10.848C14.6775 10.8235 14.6075 10.7675 14.6215 10.7045C14.6355 10.6555 14.688 10.6765 14.7195 10.6485C14.7545 10.6205 14.653 10.54 14.6845 10.491C14.709 10.4525 14.779 10.47 14.8 10.442C14.821 10.414 14.7825 10.2915 14.8805 10.2705C14.9575 10.253 14.9715 10.4175 15.0065 10.442C15.038 10.463 15.052 10.4245 15.101 10.4315C15.15 10.4385 15.1115 10.554 15.129 10.589C15.15 10.6275 15.1815 10.596 15.213 10.61C15.2655 10.6275 15.213 10.7395 15.213 10.7815C15.213 10.8235 15.255 10.8235 15.2585 10.869C15.2655 10.946 15.1885 10.967 15.15 11.016C15.1395 11.03 15.1395 11.0405 15.15 11.0545C15.22 11.1315 15.171 11.177 15.101 11.226C14.9925 11.303 14.8665 11.345 14.9225 11.5025L14.863 11.5515Z" fill="#658D5C"/>
<path d="M15.92 10.9915C16.0215 10.988 16.116 11.03 16.179 11.009C16.27 10.9775 16.214 10.9075 16.2595 10.9005C16.3015 10.897 16.522 10.911 16.522 10.8025C16.522 10.7815 16.5045 10.7745 16.5115 10.75C16.5185 10.7255 16.6865 10.7325 16.69 10.645C16.6935 10.589 16.641 10.589 16.6515 10.554C16.6585 10.519 16.837 10.351 16.7495 10.281C16.69 10.232 16.5885 10.316 16.578 10.2915C16.564 10.26 16.564 10.232 16.522 10.2285C16.4625 10.2215 16.4275 10.316 16.389 10.316C16.3505 10.316 16.333 10.2775 16.2945 10.281C16.242 10.2845 16.235 10.365 16.193 10.365C16.151 10.365 16.081 10.3405 16.081 10.3405L15.8605 10.9915C15.8605 10.9985 15.899 10.995 15.92 10.9915Z" fill="#466343"/>
<path d="M15.9585 10.1585C15.9585 10.1585 16.0495 10.064 16.123 10.0255C16.2665 9.95201 16.4975 10.071 16.5325 10.0045C16.55 9.96951 16.522 9.94851 16.5465 9.93801C16.5675 9.92751 16.823 9.98001 16.8335 9.86451C16.837 9.84351 16.8055 9.83301 16.83 9.81201C16.851 9.79101 17.012 9.78051 16.998 9.70351C16.9945 9.67901 16.9595 9.67201 16.9665 9.64751C16.977 9.62301 17.096 9.50751 17.0435 9.43751C17.0295 9.41651 16.991 9.42001 16.9945 9.39551C17.005 9.31851 17.0295 9.19951 16.9665 9.19251C16.8965 9.18551 16.816 9.32551 16.7915 9.33251C16.7565 9.33951 16.739 9.30801 16.704 9.31851C16.648 9.33601 16.641 9.42001 16.6165 9.42001C16.5955 9.42001 16.5955 9.39551 16.5605 9.39901C16.452 9.40251 16.4415 9.57751 16.389 9.61951C16.3575 9.64401 16.34 9.61251 16.3085 9.61601C16.2315 9.63001 16.256 9.81901 16.214 9.87851C16.1755 9.93801 16.088 10.008 16.0705 10.0185C16.053 10.029 16.018 10.029 16.018 10.029L15.9585 10.1585Z" fill="#658D5C"/>
<path d="M15.955 7.42851C15.955 7.42851 15.8955 7.25351 15.8465 7.19051C15.794 7.12401 15.7555 7.11001 15.6575 7.07851C15.57 7.05051 15.437 7.02951 15.43 6.96301C15.423 6.89651 15.4335 6.90701 15.409 6.90351C15.3285 6.88251 15.2305 6.85801 15.2515 6.77751C15.269 6.70051 15.3005 6.68651 15.2655 6.66901C15.2165 6.64451 15.0835 6.56751 15.101 6.50101C15.115 6.43451 15.1745 6.43451 15.15 6.39251C15.1325 6.36451 15.0695 6.32951 15.073 6.27701C15.0765 6.24201 15.122 6.22801 15.122 6.19651C15.122 6.16501 14.996 6.01801 15.0695 5.95851C15.136 5.90251 15.255 6.00051 15.283 6.01451C15.3145 6.02851 15.3495 5.96201 15.3915 5.97251C15.4475 5.98651 15.451 6.07051 15.4685 6.10201C15.5 6.15801 15.563 6.08451 15.612 6.11251C15.6925 6.15801 15.6645 6.30851 15.6855 6.33651C15.7065 6.36801 15.766 6.31901 15.8115 6.34351C15.878 6.38201 15.822 6.59901 15.8255 6.63751C15.829 6.67251 15.878 6.64101 15.906 6.66551C15.9795 6.72151 15.8885 6.89651 15.9025 7.04351C15.906 7.09251 15.92 7.17301 15.92 7.17301L15.955 7.42851Z" fill="#658D5C"/>
<path d="M14.352 12.017C14.387 12.038 14.835 12.024 14.8945 12.024C14.961 12.024 14.94 12.0765 14.961 12.094C14.989 12.108 15.297 12.0975 15.227 12.213C15.22 12.227 15.2095 12.2375 15.2025 12.2515V12.2655C15.234 12.29 15.3425 12.2935 15.3915 12.3565C15.4195 12.3915 15.346 12.451 15.3775 12.4755C15.4405 12.521 15.577 12.717 15.325 12.6575C15.2655 12.6435 15.192 12.8115 15.0625 12.661C15.045 12.6435 15.01 12.591 14.996 12.5805C14.961 12.556 14.912 12.6155 14.8665 12.605C14.7825 12.591 14.779 12.4475 14.7475 12.3845C14.7055 12.3565 14.6705 12.3915 14.625 12.3565C14.513 12.2795 14.6495 12.01 14.2925 12.0485L14.352 12.017Z" fill="#466343"/>
<path d="M15.2025 11.534C15.297 11.562 15.297 11.7055 15.353 11.716C15.4055 11.73 15.4055 11.702 15.4405 11.709C15.472 11.716 15.5035 11.898 15.654 11.8805C15.6925 11.877 15.71 11.835 15.71 11.835C15.71 11.835 15.766 11.926 15.822 11.933C15.906 11.9435 15.8815 11.87 15.9025 11.8665C15.9375 11.863 15.997 11.933 16.06 11.933C16.095 11.933 16.0915 11.8735 16.1265 11.8735C16.165 11.8735 16.235 11.9085 16.2665 11.8665C16.305 11.8105 16.214 11.744 16.207 11.723C16.2 11.702 16.2315 11.702 16.228 11.6845C16.214 11.611 16.0985 11.6005 16.088 11.576C16.0775 11.5515 16.1055 11.5235 16.095 11.485C16.0775 11.4185 15.983 11.415 15.941 11.4255C15.843 11.4465 15.9305 11.3415 15.8605 11.31C15.738 11.2575 15.5595 11.3555 15.514 11.338C15.4825 11.324 15.472 11.3205 15.444 11.317C15.3355 11.2995 15.234 11.457 15.164 11.492L15.2025 11.534Z" fill="#658D5C"/>
<path d="M13.449 12.1815C13.449 12.1815 13.736 12.0625 13.7605 11.9995C13.7955 11.9085 13.757 11.7685 13.806 11.7335C13.8375 11.7125 13.8725 11.723 13.8935 11.6915C13.9145 11.66 13.8865 11.5095 13.9635 11.45C14.0125 11.4115 14.0545 11.4465 14.114 11.4045C14.177 11.359 14.0965 11.247 14.1945 11.212C14.2505 11.191 14.31 11.261 14.338 11.254C14.394 11.24 14.422 11.1315 14.5025 11.142C14.569 11.1525 14.534 11.219 14.5305 11.2785C14.527 11.3135 14.583 11.296 14.6005 11.3485C14.6145 11.3835 14.562 11.464 14.5305 11.492C14.513 11.5095 14.59 11.5375 14.583 11.59C14.576 11.6635 14.4325 11.6705 14.3975 11.681C14.3555 11.695 14.394 11.7615 14.3625 11.8C14.317 11.8595 14.1945 11.8245 14.1735 11.8525C14.1525 11.877 14.198 11.947 14.142 11.989C14.086 12.031 13.862 12.0065 13.827 12.017C13.7185 12.0555 13.631 12.0975 13.631 12.0975L13.449 12.1815Z" fill="#658D5C"/>
<path d="M15.8465 10.1655L15.8185 10.2565C15.8185 10.1305 15.815 10.0675 15.6645 10.078C15.64 10.078 15.6155 10.0815 15.5945 10.078C15.5175 10.0675 15.577 10.0185 15.5525 9.98351C15.521 9.94151 15.3215 9.98001 15.304 9.87851C15.297 9.84001 15.3425 9.79451 15.311 9.76301C15.262 9.71751 15.143 9.67551 15.1535 9.59151C15.1605 9.55651 15.206 9.53201 15.199 9.49701C15.1885 9.45501 15.1045 9.37801 15.1255 9.32901C15.143 9.29051 15.1745 9.30451 15.1745 9.26601C15.178 9.22751 15.108 9.12601 15.171 9.09451C15.255 9.05601 15.3075 9.13301 15.381 9.14001C15.423 9.14351 15.451 9.09451 15.493 9.10501C15.549 9.11901 15.549 9.20651 15.584 9.22401C15.598 9.23101 15.6365 9.19601 15.654 9.19601C15.752 9.18551 15.731 9.37801 15.766 9.42351C15.78 9.44101 15.8045 9.42351 15.822 9.43051C15.885 9.45151 15.8185 9.66151 15.843 9.68951C15.85 9.70001 15.8815 9.69301 15.8955 9.69651C15.948 9.71051 15.9095 9.84351 15.9025 9.87851C15.8815 9.95201 15.815 10.0955 15.8465 10.1655Z" fill="#466343"/>
<path d="M15.955 7.26751C15.9935 7.36201 16.046 7.50901 16.0845 7.64551C16.2525 8.28601 16.27 9.02801 16.1965 9.45851C15.9725 10.778 14.772 12.0065 13.813 12.199C12.9975 12.3635 12.5145 12.7135 12.175 13.0915C12.014 13.27 11.8845 13.4485 11.783 13.62C11.685 13.788 11.6185 13.935 11.531 14.0785C11.531 14.0785 11.5275 14.0785 11.5275 14.082C11.5205 14.0855 11.5135 14.0855 11.503 14.089C11.482 14.0925 11.4575 14.096 11.4365 14.096C11.412 14.096 11.391 14.096 11.3805 14.0925H11.377C11.391 14.075 11.4015 14.054 11.4155 14.033C11.4995 13.893 11.573 13.76 11.6675 13.599C11.762 13.438 11.8775 13.27 12.0315 13.095C12.3885 12.6925 12.8925 12.304 13.7605 12.129C14.7685 11.926 15.9165 10.6765 16.144 9.34651C16.2175 8.91251 16.214 8.16351 15.941 7.35501L15.955 7.26751Z" fill="#A48253"/>
<path d="M16.0355 9.84001C16.074 9.73851 16.06 9.64051 15.983 9.58451C15.9025 9.52501 15.7905 9.38501 15.7905 9.30101C15.7905 9.20301 15.8885 9.26251 15.892 9.21701C15.8955 9.18201 15.766 9.08051 15.8115 9.00701C15.843 8.95801 15.9235 8.96501 15.941 8.94051C15.976 8.89851 15.892 8.72001 15.9585 8.63601C15.9935 8.59051 16.0215 8.63951 16.046 8.62201C16.0705 8.60451 16.032 8.46801 16.1195 8.46451C16.207 8.46101 16.27 8.60451 16.2805 8.60101C16.3085 8.59051 16.34 8.56251 16.3715 8.59401C16.403 8.62201 16.3925 8.86701 16.3925 8.86701C16.3925 8.86701 16.452 8.86001 16.4695 8.87401C16.5465 8.92301 16.4065 9.19951 16.368 9.27651C16.333 9.34301 16.431 9.35001 16.382 9.41651C16.298 9.52851 16.1335 9.65801 16.109 9.82251" fill="#658D5C"/>
<path d="M15.0695 11.3975C15.0695 11.3975 15.164 11.3485 15.199 11.2925C15.234 11.2365 15.2375 11.219 15.2375 11.1315C15.2375 11.079 15.192 10.9005 15.241 10.869C15.283 10.8445 15.3075 10.89 15.36 10.841C15.423 10.7815 15.3285 10.5715 15.423 10.5155C15.479 10.4805 15.528 10.5435 15.591 10.484C15.633 10.4455 15.626 10.316 15.7135 10.2915C15.766 10.2775 15.8115 10.3195 15.8605 10.3265C15.9235 10.3335 16.0635 10.127 16.151 10.176C16.1895 10.197 16.2 10.2285 16.193 10.2705C16.186 10.316 16.158 10.358 16.151 10.4035C16.137 10.463 16.2175 10.456 16.2105 10.5155C16.2035 10.575 16.1335 10.6275 16.1335 10.666C16.1335 10.708 16.1965 10.7325 16.2 10.785C16.207 10.8795 16.0075 10.883 15.99 10.9355C15.9725 10.988 16.0145 11.0265 15.976 11.0895C15.934 11.156 15.794 11.0965 15.738 11.121C15.6925 11.1385 15.7205 11.2435 15.6925 11.2855C15.6155 11.401 15.241 11.24 15.0905 11.45L15.0695 11.3975Z" fill="#658D5C"/>
<path d="M12.0595 13.452C12.329 13.4485 12.532 13.424 12.7595 13.3785C12.7035 13.564 12.595 13.914 13.029 13.914C13.344 13.914 13.68 13.725 14.0055 13.8895C14.716 14.2535 15.2515 13.9945 15.6855 13.5045C15.6855 13.5045 15.3635 13.5745 15.0345 13.557C15.0345 13.557 15.283 13.347 15.304 13.0705C15.087 13.2315 14.87 13.256 14.653 13.256C14.436 13.256 14.296 13.1265 14.0125 13.081C14.03 12.983 14.044 12.8815 14.072 12.745C14.1 12.5945 14.058 12.472 13.841 12.4475C13.365 12.3915 12.903 12.668 12.0595 12.6785C11.209 12.6645 10.628 12.3915 10.152 12.4475C9.93155 12.472 9.89305 12.5945 9.92105 12.745C9.94555 12.8815 9.96305 12.983 9.98055 13.081C9.69705 13.1265 9.55705 13.256 9.34005 13.256C9.12305 13.256 8.90605 13.2315 8.68905 13.0705C8.71355 13.347 8.95855 13.557 8.95855 13.557C8.62955 13.571 8.30755 13.5045 8.30755 13.5045C8.74155 13.991 9.27705 14.2535 9.98755 13.8895C10.313 13.7215 10.649 13.914 10.964 13.914C11.398 13.914 11.2895 13.564 11.2335 13.3785C11.489 13.424 11.762 13.452 12.0595 13.452Z" fill="white"/>
</g>
<rect x="0.25" y="0.25" width="23.5" height="17.5" rx="1.75" stroke="#DDE0EA" stroke-width="0.5" style="fill-opacity:0"/>
<defs>
<clipPath id="clip0_1262_5942">
<rect width="24" height="18" rx="2" fill="white"/>
</clipPath>
</defs>
</svg>