<svg width="24" height="18" viewBox="0 0 24 18" fill="none" xmlns="http://www.w3.org/2000/svg">
<g clip-path="url(#clip0_1002_36)">
<g clip-path="url(#clip1_1002_36)">
<rect width="24" height="18" fill="#249F58"/>
<path d="M24 0H0V18H24V0Z" fill="#165D31"/>
<path fill-rule="evenodd" clip-rule="evenodd" d="M5.30078 5.10156C5.27344 5.52344 5.23047 6.26172 5.59375 6.33984C6.02734 6.37891 5.78906 5.60547 5.94531 5.46484C5.97266 5.39453 6.02734 5.39453 6.03125 5.48438V6.14062C6.03125 6.35156 6.17188 6.41797 6.27734 6.45703C6.39062 6.44922 6.46484 6.45703 6.50781 6.5625L6.56641 7.69922C6.56641 7.69922 6.82422 7.77734 6.83984 7.0625C6.84766 6.64062 6.75391 6.29297 6.8125 6.21094C6.8125 6.13281 6.91797 6.12891 6.98828 6.16797C7.09766 6.24219 7.14844 6.34375 7.32422 6.30859C7.58984 6.23047 7.75391 6.09766 7.75781 5.89453C7.75 5.69531 7.71094 5.49609 7.63281 5.3125C7.64844 5.27734 7.58594 5.18359 7.59766 5.14844C7.64453 5.22266 7.71875 5.21875 7.73047 5.14844C7.6875 5 7.61719 4.85547 7.50391 4.79688C7.41016 4.71094 7.26953 4.72656 7.22266 4.90234C7.19531 5.10156 7.29297 5.33594 7.4375 5.53516C7.46875 5.60547 7.51172 5.73438 7.49219 5.84766C7.41406 5.89062 7.33984 5.87109 7.26953 5.80469C7.26953 5.80469 7.05859 5.64453 7.05859 5.60547C7.11719 5.25 7.07031 5.20703 7.03906 5.10547C7.01953 4.96875 6.95313 4.92188 6.89844 4.83203C6.84766 4.77344 6.77734 4.77344 6.74219 4.83203C6.64453 4.99219 6.69141 5.33984 6.75781 5.5C6.80859 5.64453 6.88281 5.73438 6.84766 5.73438C6.81641 5.81641 6.75781 5.79297 6.71094 5.69922C6.66016 5.5 6.63672 5.29297 6.63672 5.08594C6.62109 4.92578 6.60156 4.58203 6.49219 4.48828C6.42578 4.40625 6.33203 4.44922 6.29688 4.52344C6.28906 4.68359 6.29297 4.83984 6.30859 4.99609C6.37891 5.25391 6.40234 5.48828 6.4375 5.75C6.44922 6.10547 6.23438 5.90625 6.24609 5.72656C6.29297 5.5 6.28906 5.26953 6.23438 5.04297C6.19922 4.95312 6.16016 4.93359 6.07422 4.94531C6.00391 4.94531 5.83203 5.13281 5.78516 5.44922C5.78516 5.44922 5.74219 5.60938 5.72266 5.75391C5.69922 5.91797 5.59375 6.03516 5.51562 5.73438C5.45312 5.51172 5.41016 4.97266 5.30469 5.10156H5.30078Z" fill="white"/>
<path fill-rule="evenodd" clip-rule="evenodd" d="M6.48047 6.82812L5.35547 7.36719C5.36719 7.11328 5.88672 6.65234 6.24609 6.64844C6.47266 6.65234 6.41797 6.73438 6.47656 6.82812H6.48047Z" fill="white"/>
<path fill-rule="evenodd" clip-rule="evenodd" d="M6.28125 7.17969C5.69141 8.70703 7.66797 8.92188 7.89062 7.24219C7.91016 7.17188 7.99609 7.10547 8.01172 7.21875C7.96484 8.73828 6.47656 8.83984 6.22266 8.36328C6.16406 8.19922 6.13281 8.02344 6.13672 7.85156C6.10156 7.55078 5.94141 7.66797 5.91797 7.96484C5.89453 8.12891 5.90234 8.17578 5.90234 8.33203C5.97656 9.53516 7.89453 9.01953 8.20703 8.02734C8.37109 7.47656 8.17969 7.07422 8.26562 7.07422C8.45703 7.27734 8.72266 7.10156 8.78516 7.03125C8.80859 6.99609 8.87109 6.97266 8.91406 7.01562C9.0625 7.12109 9.32031 7.07422 9.37891 6.88672C9.41016 6.69922 9.43359 6.51172 9.44141 6.31641C9.31641 6.35156 9.23047 6.37891 9.21875 6.42969L9.19531 6.58984C9.18359 6.64453 9.08203 6.64453 9.07422 6.57812C9.03125 6.36719 8.83984 6.34375 8.72266 6.66406C8.64844 6.73047 8.50781 6.74219 8.49609 6.64844C8.51172 6.42969 8.42578 6.40234 8.25 6.50391L8.08203 5.23047C8.15234 5.23047 8.22266 5.28516 8.28906 5.19922C8.21875 4.97266 8.05859 4.50781 7.97266 4.47266C7.93359 4.42188 7.89844 4.45312 7.83984 4.46875C7.75 4.49609 7.66406 4.57422 7.69531 4.73047C7.80078 5.39062 7.87109 5.89062 7.97656 6.55859C7.99609 6.62891 7.93359 6.73047 7.84766 6.72266C7.70703 6.62891 7.67188 6.43359 7.42578 6.44141C7.25 6.44141 7.05469 6.63281 7.02734 6.81641C6.99609 6.96484 6.98828 7.12109 7.02734 7.25C7.15234 7.39844 7.30078 7.38281 7.42969 7.35156C7.53516 7.30469 7.625 7.19922 7.66016 7.22266C7.6875 7.25781 7.66406 7.60938 7.16016 7.875C6.85156 8.01562 6.60547 8.04297 6.47656 7.79297C6.39453 7.63672 6.48438 7.04297 6.28125 7.17969Z" fill="white"/>
<path fill-rule="evenodd" clip-rule="evenodd" d="M8.80078 5.625C8.91797 5.58203 9.48047 4.9375 9.48047 4.9375L9.39453 4.86719C9.36328 4.83984 9.36719 4.8125 9.39453 4.78906C9.53516 4.70312 9.48828 4.52734 9.41797 4.44531C9.37109 4.42188 9.32031 4.41016 9.26562 4.41016C9.21484 4.41016 9.16016 4.42188 9.11328 4.44922C9.01562 4.54297 8.99609 4.69141 9.07031 4.78516C9.14453 4.82031 9.21875 4.89844 9.16797 4.94141C8.9375 5.18359 8.30859 5.60938 8.38281 5.625C8.39453 5.64453 8.78516 5.64453 8.79688 5.625H8.80078ZM5.39062 7.91016C5.17969 8.24609 5.16016 8.75 5.27734 8.90234C5.33984 8.97266 5.44141 9.00391 5.51562 8.98047C5.65234 8.92188 5.71094 8.65234 5.67969 8.55859C5.63281 8.48828 5.59766 8.47656 5.55078 8.53125C5.46094 8.72266 5.42188 8.59375 5.41016 8.48828C5.40234 8.30859 5.41016 8.12891 5.44141 7.95312C5.46484 7.80469 5.44141 7.84766 5.39062 7.91016ZM14.4297 7.37109C14.2266 6.92969 13.9414 6.49219 13.8516 6.32812C13.5781 5.89453 13.2891 5.47266 12.9805 5.0625C12.7617 4.80078 13.3398 5.17188 12.9102 4.65234L12.5977 4.38672C12.5273 4.33984 12.3594 4.24609 12.332 4.39453C12.3164 4.52734 12.3242 4.59766 12.3438 4.70703C12.3633 4.77734 12.4688 4.90234 12.5195 4.97266C13.2422 5.92578 13.875 6.94531 14.4102 8.01172C14.5039 7.96484 14.4805 7.44531 14.4297 7.37109Z" fill="white"/>
<path fill-rule="evenodd" clip-rule="evenodd" d="M13.5312 8.83984C13.4922 8.88672 13.6328 9.08203 13.8125 9.08203C14.1172 9.04688 14.3828 8.87891 14.6289 8.42578C14.7305 8.27734 14.793 8.10547 14.8164 7.92578C14.8477 7.07422 14.7773 6.21875 14.6133 5.38281C14.6016 5.3125 14.6133 5.22656 14.6172 5.20703C14.6406 5.18359 14.707 5.20703 14.7422 5.14844C14.793 5.09375 14.6016 4.65625 14.4961 4.48828C14.4609 4.41016 14.4414 4.36328 14.3789 4.49609C14.3047 4.64453 14.2656 4.80859 14.2734 4.97266C14.418 5.97656 14.4648 6.85156 14.5547 7.85547C14.5664 7.95312 14.5508 8.09375 14.4844 8.14844C14.2188 8.44531 13.8945 8.67969 13.5312 8.83984ZM17.6289 8.83984C17.4102 8.96484 17.4102 9.10938 17.5859 9.11328C17.8867 9.07812 18.2461 9.05078 18.4922 8.67969C18.582 8.50391 18.6289 8.3125 18.6406 8.11719C18.6836 7.27734 18.6289 6.43359 18.4766 5.60547C18.4688 5.53516 18.4375 5.37109 18.4492 5.35156C18.4688 5.30078 18.5664 5.35547 18.6016 5.29688C18.6523 5.24609 18.3438 4.85156 18.2383 4.68359C18.2031 4.60547 18.1875 4.55469 18.1211 4.69141C18.0508 4.83984 18.0273 5.00781 18.0586 5.16797C18.2188 6.25781 18.3398 7.07422 18.3633 8.03516C18.3477 8.12891 18.3438 8.17578 18.3047 8.29297C18.207 8.41406 18.1016 8.56641 18.0039 8.64062C17.9062 8.71094 17.6953 8.78125 17.6289 8.83984Z" fill="white"/>
<path fill-rule="evenodd" clip-rule="evenodd" d="M17.7891 7.86328C17.7891 7.60938 17.793 7.39062 17.7852 7.19531C17.7852 7.03125 17.75 6.87109 17.6797 6.72266C17.6172 6.57812 17.6562 6.46094 17.625 6.30859C17.5977 6.15234 17.6055 5.92188 17.5625 5.74219C17.5469 5.67188 17.5117 5.44141 17.5234 5.41797C17.5391 5.36719 17.6055 5.41797 17.6445 5.36328C17.6914 5.30859 17.4648 4.73047 17.3555 4.5625C17.3164 4.48828 17.2383 4.51562 17.1523 4.63281C17.0625 4.71484 17.0938 4.89453 17.1289 5.06641C17.3438 6.20312 17.5078 7.23047 17.4727 8.3125C17.4609 8.40234 17.7891 8.03516 17.7891 7.86328ZM16.1836 6.45703C16.0469 6.44922 15.7617 6.1875 15.6758 6.03516C15.6641 6 15.6562 5.96094 15.6602 5.92188C15.6641 5.88281 15.6719 5.84375 15.6914 5.80859C15.7461 5.77344 15.8203 5.73828 15.8828 5.77344C15.8828 5.77344 15.9414 5.85547 15.9297 5.86719C16 5.90234 16.0352 5.88672 16.043 5.85547C16.0469 5.80078 16.0234 5.76953 16.0234 5.71484C16.0547 5.55078 16.2344 5.52734 16.3047 5.62891C16.3516 5.69141 16.375 5.82031 16.3789 5.91016C16.3789 5.95703 16.3086 5.90234 16.2617 5.91016C16.2227 5.92578 16.2109 5.97266 16.207 6.01562C16.1992 6.13281 16.1875 6.31641 16.1836 6.45312V6.45703ZM13.6602 8.14453C13.6953 7.80078 13.6445 7.1875 13.6406 6.98047C13.6211 6.45703 13.5781 5.93359 13.5117 5.41406C13.4688 5.11719 13.6328 5.44531 13.6094 5.27344C13.5586 4.98047 13.3945 4.78125 13.2031 4.51953C13.1445 4.42969 13.1445 4.41016 13.0469 4.53906C12.9414 4.77344 13.0352 4.94141 13.0625 5.125C13.1992 5.73047 13.2812 6.28516 13.3164 6.83984C13.3594 7.41016 13.3633 7.98828 13.332 8.55859C13.4375 8.5625 13.5977 8.39453 13.6602 8.14453Z" fill="white"/>
<path fill-rule="evenodd" clip-rule="evenodd" d="M18.2578 7.59375C18.0156 7.1875 17.6523 6.75 17.5547 6.58594C17.2305 6.12891 16.8867 5.6875 16.5273 5.25391C16.2305 4.94141 16.668 5.20312 16.4727 4.95703C16.3086 4.77734 16.2617 4.71875 16.1172 4.60938C16.0469 4.5625 16.0039 4.47656 15.9766 4.625C15.9648 4.75781 15.9609 4.89062 15.9688 5.01953C15.9688 5.08203 16.0312 5.19531 16.0898 5.26562C16.8164 6.16406 17.6133 7.07812 18.2539 8.22656C18.3477 8.17969 18.3125 7.66406 18.2539 7.59375H18.2578Z" fill="white"/>
<path fill-rule="evenodd" clip-rule="evenodd" d="M7.30859 6.84375C7.29297 6.875 7.25391 6.91406 7.26953 6.95312C7.29297 6.98828 7.31641 7 7.35938 7C7.39844 7 7.45312 7.01172 7.46484 6.98828C7.48438 6.96484 7.5 6.91797 7.48438 6.87109C7.44531 6.76953 7.33203 6.80859 7.30859 6.84375Z" fill="#165D31"/>
<path fill-rule="evenodd" clip-rule="evenodd" d="M15.4531 12.7461C15.7773 12.7578 15.9883 12.7617 16.2695 12.793L16.6094 12.7578C16.9805 12.7227 16.9961 13.2891 16.9961 13.2891C16.9961 13.6211 16.8672 13.6406 16.6992 13.6758C16.6055 13.6914 16.5586 13.6211 16.5078 13.5508C16.4258 13.5742 16.3438 13.5781 16.2617 13.5625C16.125 13.5547 15.9883 13.5547 15.8555 13.5469C15.7148 13.5352 15.6367 13.5625 15.4961 13.5508C15.4648 13.5938 15.4258 13.6602 15.3398 13.6406C15.2695 13.6289 15.1836 13.4297 15.207 13.2695C15.2578 13.1602 15.2422 13.1992 15.2422 13.1484C13.918 13.1133 12.5859 13.0547 11.293 13.0703C10.2812 13.0742 9.28125 13.1172 8.28125 13.1602C7.74609 13.1523 7.33984 13.0664 7.05859 12.6562C7.08594 12.6562 8.42188 12.7305 8.8125 12.707C9.53125 12.6992 10.1914 12.6367 10.9258 12.6172C12.375 12.6406 13.8125 12.6406 15.2617 12.7461C15.1211 12.6484 15.1211 12.4258 15.332 12.3711C15.3516 12.3555 15.3594 12.4805 15.3945 12.4766C15.5664 12.4648 15.4883 12.6992 15.4531 12.7461ZM9.62891 4.75781C9.41406 5.38281 9.75781 6.07031 9.99609 6.00391C10.1719 6.07422 10.2773 5.74609 10.3477 5.38672C10.4023 5.28516 10.4336 5.27344 10.4609 5.32422C10.4531 5.80469 10.4961 5.91406 10.6172 6.05859C10.8945 6.26953 11.1211 6.08594 11.1367 6.06641L11.3477 5.85547C11.3984 5.80078 11.4609 5.80078 11.5273 5.84375C11.5977 5.90234 11.5859 6.00391 11.7266 6.07422C11.8438 6.125 12.0938 6.08984 12.1562 5.98828C12.2305 5.85156 12.2539 5.80469 12.2891 5.75391C12.3438 5.67969 12.4414 5.71484 12.4414 5.73828C12.4297 5.78125 12.3711 5.81641 12.4102 5.89453C12.4805 5.94531 12.4961 5.91406 12.5352 5.90234C12.6758 5.83203 12.7812 5.53125 12.7812 5.53125C12.7852 5.41797 12.7227 5.42578 12.6797 5.45312L12.5703 5.52734C12.5 5.53516 12.3711 5.58203 12.3008 5.48047C12.2344 5.36328 12.2344 5.1875 12.1875 5.06641C12.1875 5.05859 12.0938 4.87109 12.1797 4.86328C12.2227 4.87109 12.3086 4.89453 12.3242 4.82031C12.3672 4.74609 12.2305 4.53906 12.1367 4.43359C12.0547 4.34375 11.9453 4.33594 11.8359 4.42578C11.7578 4.49609 11.7695 4.57422 11.7539 4.64844C11.7422 4.69922 11.7383 4.75781 11.7539 4.80859C11.7656 4.86328 11.7891 4.91016 11.8242 4.95312C11.9023 5.10156 12.0391 5.29297 11.9922 5.57031C11.9922 5.57031 11.9102 5.69531 11.7695 5.67578C11.7109 5.66797 11.6172 5.64453 11.5664 5.26172C11.5273 4.98047 11.5742 4.58203 11.457 4.39453C11.4102 4.27734 11.3789 4.16797 11.2734 4.36328C11.2461 4.44141 11.1211 4.55469 11.207 4.79297C11.293 5.00391 11.3164 5.23438 11.2773 5.46094C11.2266 5.53516 11.2148 5.5625 11.1484 5.63672C11.0586 5.74219 10.957 5.71484 10.8789 5.67578C10.8086 5.62891 10.7539 5.60547 10.7148 5.44531C10.7227 5.19922 10.7383 4.79688 10.6914 4.71094C10.625 4.57812 10.5156 4.625 10.4727 4.66797C10.2617 4.90234 10.1211 5.1875 10.0664 5.49609C10.0039 5.69922 9.9375 5.64062 9.89062 5.55859C9.77734 5.45312 9.76953 4.62109 9.62891 4.75781Z" fill="white"/>
<path fill-rule="evenodd" clip-rule="evenodd" d="M10.293 6.12109C10.3945 6.05078 10.3477 6 10.4961 6.14844C10.6875 6.48438 10.7969 6.86328 10.8203 7.25C10.8125 7.33984 10.875 7.39844 10.9062 7.375C10.9219 7.16406 11.4375 6.87109 11.9102 6.82812C11.9805 6.80859 11.9492 6.67188 11.957 6.60156C11.9297 6.33984 12.1055 6.09766 12.3516 6.08203C12.6875 6.13281 12.8008 6.30859 12.8086 6.58203C12.7695 7.10938 12.2227 7.19531 11.9141 7.23828C11.8711 7.25781 11.8477 7.27734 11.9141 7.30078L13.2031 7.30859L13.2695 7.34375C13.2773 7.37891 13.2461 7.35156 13.1992 7.43359C13.1289 7.55859 13.082 7.69922 13.0703 7.83984C12.6836 7.96484 12.2891 8.01562 11.8867 8.06641C11.7461 8.13672 11.6758 8.23438 11.7031 8.33984C11.7539 8.45703 12.0625 8.57422 12.0625 8.57812C12.1211 8.61328 12.1914 8.69922 12.0469 8.87891C11.418 8.85156 10.9297 8.58594 10.7617 8.20703C10.7148 8.17188 10.6562 8.20703 10.6211 8.25781C10.375 8.57422 10.1367 8.85547 9.71875 9.01172C9.47266 9.07422 9.21484 8.97266 9.09766 8.80859C9.01562 8.71484 9.01953 8.61328 8.99219 8.59375C8.85547 8.65234 7.69141 9.14453 7.83984 8.91016C8.12109 8.61328 8.61328 8.38672 9.04297 8.09375C9.07422 7.99219 9.13281 7.65234 9.30078 7.54297C9.30859 7.54297 9.27734 7.74219 9.27734 7.82422C9.27734 7.89453 9.27344 7.92188 9.28516 7.90234C9.31641 7.88672 9.83984 7.47266 9.88281 7.34766C9.93359 7.27734 9.89453 7.09375 9.89453 7.08594C9.79688 6.83594 9.66016 6.8125 9.60938 6.6875C9.5625 6.51953 9.58594 6.33203 9.67969 6.27734C9.76562 6.20312 9.86328 6.20703 9.95703 6.29297C10.0625 6.38672 10.1523 6.57422 10.1836 6.71094C10.1641 6.76562 10.043 6.67578 10.0078 6.69922C10.0742 6.77734 10.1211 6.875 10.1367 6.97656C10.207 7.26172 10.1875 7.375 10.1172 7.5625C9.88281 8.05078 9.58984 8.19531 9.32812 8.37891C9.32031 8.37891 9.31641 8.5 9.41406 8.56641C9.44922 8.60156 9.58594 8.62109 9.74219 8.56641C10.082 8.37891 10.3555 8.09375 10.5273 7.75C10.5586 7.48438 10.5273 7.21875 10.4414 6.96875C10.3398 6.73047 10.2227 6.39844 10.2227 6.39062C10.2188 6.24219 10.2266 6.19531 10.293 6.12109ZM6.92188 4.76172C7.07031 4.83203 7.35156 4.80078 7.33984 4.5625L7.33203 4.45312C7.30469 4.38281 7.21875 4.40234 7.19922 4.47266C7.19531 4.49609 7.21094 4.53516 7.19141 4.54688C7.17578 4.55859 7.12891 4.55078 7.12891 4.48438C7.12891 4.46484 7.11719 4.44531 7.10547 4.42969C7.09766 4.42188 7.09375 4.42188 7.07422 4.42188C7.05469 4.42188 7.05469 4.42578 7.04297 4.44531C7.03906 4.46094 7.03125 4.48047 7.03125 4.5C7.03125 4.52344 7.01953 4.53125 7.00391 4.53516C6.98438 4.53516 6.98828 4.53516 6.96875 4.52734C6.96094 4.51953 6.95312 4.51562 6.95312 4.49219L6.94141 4.4375C6.93359 4.42578 6.91797 4.41797 6.90625 4.41406C6.82422 4.41406 6.81641 4.51172 6.82422 4.54688C6.81641 4.55078 6.81641 4.71875 6.92188 4.76172Z" fill="white"/>
<path fill-rule="evenodd" clip-rule="evenodd" d="M11.2656 6.59766C11.4141 6.66797 11.7695 6.62891 11.6797 6.40234L11.6719 6.28906C11.6406 6.21875 11.5625 6.23828 11.543 6.30859C11.5352 6.33203 11.5547 6.37109 11.5273 6.37891C11.5195 6.39453 11.4688 6.38672 11.4727 6.32422C11.4727 6.30469 11.457 6.27734 11.4492 6.26562C11.4375 6.26172 11.4336 6.25781 11.4141 6.25781C11.3945 6.25781 11.3945 6.26562 11.3867 6.28125C11.3789 6.30078 11.375 6.31641 11.375 6.33984C11.3711 6.35938 11.3594 6.36719 11.3438 6.375C11.3242 6.375 11.3281 6.375 11.3164 6.36328C11.3047 6.35156 11.293 6.34766 11.293 6.33203L11.2812 6.27734C11.2773 6.26562 11.2617 6.25781 11.2461 6.25391C11.168 6.25391 11.1602 6.34766 11.1641 6.37891C11.1602 6.38672 11.1562 6.55859 11.2695 6.59766H11.2656ZM13.7969 5.83984C13.9453 5.91016 14.2227 5.87891 14.2109 5.64453L14.2031 5.53125C14.1719 5.46094 14.0938 5.47656 14.0742 5.54688C14.0664 5.57422 14.0859 5.60938 14.0586 5.625C14.0508 5.63672 14 5.62891 14.0039 5.5625C14.0039 5.53906 13.9883 5.51953 13.9805 5.50391C13.9688 5.5 13.9648 5.5 13.9453 5.5C13.9258 5.5 13.9258 5.50391 13.918 5.52344L13.9062 5.57422C13.9023 5.60156 13.8906 5.60938 13.875 5.60938C13.8555 5.60938 13.8594 5.60938 13.8477 5.60547C13.8359 5.59375 13.8242 5.58984 13.8242 5.57422C13.8242 5.55469 13.8203 5.52734 13.8125 5.51172C13.8086 5.50391 13.793 5.5 13.7773 5.49609C13.6992 5.49609 13.6914 5.58594 13.6953 5.62109C13.6914 5.62891 13.6875 5.79297 13.8008 5.83984H13.7969ZM15.1094 7.75C14.8516 8.03906 14.9648 8.52344 15.0234 8.62891C15.1094 8.79688 15.1758 8.90625 15.3398 8.98828C15.4922 9.09766 15.6094 9.03125 15.6758 8.95312C15.8242 8.79688 15.8281 8.39062 15.8984 8.31641C15.9492 8.16797 16.0742 8.19141 16.1328 8.25781C16.1914 8.33594 16.2656 8.40234 16.3516 8.44531C16.4922 8.56641 16.6602 8.59375 16.832 8.48047C16.9414 8.41406 17.0156 8.33203 17.082 8.16797C17.1523 7.96875 17.1172 7.05469 17.1016 6.51562L16.9531 5.75781C16.9531 5.75 16.9375 5.39844 16.918 5.32031C16.918 5.28516 16.9062 5.27344 16.9414 5.27734C16.9805 5.3125 16.9844 5.3125 17.0117 5.32422C17.0469 5.32812 17.082 5.26172 17.0586 5.20703L16.707 4.55078C16.6797 4.52344 16.6406 4.49609 16.5938 4.55859C16.5664 4.58594 16.5469 4.61328 16.5312 4.64844C16.5156 4.67969 16.5117 4.71484 16.5117 4.75391C16.5195 4.90625 16.5469 5.06641 16.5547 5.22266L16.6953 6.01562C16.7422 6.57812 16.7539 7.04297 16.8008 7.60938C16.793 7.84766 16.7188 8.05469 16.6484 8.08594C16.6484 8.08594 16.543 8.14453 16.4727 8.07812C16.418 8.05859 16.2109 7.73047 16.2109 7.73047C16.1055 7.63672 16.0352 7.66016 15.9609 7.73047C15.75 7.93359 15.6602 8.30859 15.5156 8.56641C15.4805 8.62891 15.375 8.67188 15.2617 8.5625C14.9727 8.16797 15.1445 7.60547 15.1094 7.75ZM13.8633 4.45312C13.9961 4.50781 14.0898 4.77734 14.0586 4.91016C14.0312 5.07031 13.9609 5.24609 13.9141 5.22266C13.8555 5.20312 13.9492 5.0625 13.8945 4.91406C13.8672 4.81641 13.6836 4.64062 13.707 4.58984C13.6719 4.48047 13.7812 4.43359 13.8633 4.44922V4.45312Z" fill="white"/>
<path fill-rule="evenodd" clip-rule="evenodd" d="M15.5352 7.91016C15.5625 7.58594 15.5156 7.39062 15.5078 7.19922C15.5 7.01172 15.293 5.5625 15.2539 5.42188C15.1992 5.14844 15.4531 5.38672 15.4258 5.22266C15.3359 5.02734 15.1211 4.73438 15.0547 4.5625C15.0117 4.49219 15.0312 4.42188 14.9375 4.54688C14.8594 4.76172 14.832 4.99219 14.8594 5.22266C15.0781 6.35547 15.2969 7.29688 15.2617 8.37891C15.3672 8.37891 15.4844 8.14062 15.5352 7.91016ZM17.8008 4.91016C17.9258 4.97266 17.9961 5.30859 17.9805 5.40234C17.957 5.57812 17.8906 5.76953 17.8477 5.74609C17.793 5.72266 17.8555 5.48438 17.832 5.41016C17.8047 5.30469 17.6406 5.11328 17.6562 5.05859C17.6211 4.94141 17.7266 4.89062 17.8008 4.91016ZM8.8125 7.29688C8.92578 7.34375 8.99609 7.58984 8.98828 7.66016C8.96094 7.78906 8.89844 7.92969 8.85547 7.91016C8.80859 7.89453 8.86328 7.71875 8.84375 7.66406C8.83203 7.53516 8.67188 7.46484 8.67578 7.40625C8.64453 7.30078 8.74609 7.28516 8.81641 7.29688H8.8125Z" fill="white"/>
<path fill-rule="evenodd" clip-rule="evenodd" d="M11.6094 7.67188C11.7578 7.67969 11.832 7.79688 11.6953 7.84766C11.5547 7.89453 11.4219 7.92969 11.418 8.12891C11.4727 8.41016 11.3477 8.3125 11.2773 8.27734C11.1953 8.21094 10.957 8.06641 10.9219 7.75C10.918 7.67578 10.9766 7.60938 11.0703 7.60938C11.2109 7.64453 11.4219 7.64844 11.6094 7.67188Z" fill="#165D31"/>
<path fill-rule="evenodd" clip-rule="evenodd" d="M5.72266 4.375C5.89062 4.42188 5.90234 4.67578 5.89062 4.75C5.86328 4.88281 5.80469 5.02734 5.76172 5.01172C5.71484 4.99219 5.76172 4.80859 5.73828 4.75391C5.71484 4.67578 5.57031 4.52734 5.58203 4.48438C5.55078 4.39844 5.65234 4.35547 5.72266 4.375ZM9.09375 5.55469C8.95703 5.625 8.91016 5.83594 8.99219 5.96094C9.06641 6.06641 9.1875 6.02734 9.20312 6.02734C9.33203 6.04297 9.41016 5.78516 9.41016 5.78516C9.41016 5.78516 9.41406 5.71484 9.26172 5.85547C9.19531 5.86328 9.19141 5.83984 9.17188 5.80469C9.15625 5.73828 9.16406 5.66797 9.19141 5.60547C9.21484 5.53906 9.16797 5.51172 9.09375 5.55469ZM10.0781 4.27344C10.0078 4.32031 9.875 4.45703 9.87109 4.61328C9.87109 4.69922 9.85156 4.69922 9.91016 4.75391C9.95312 4.81641 9.99219 4.8125 10.0781 4.76563C10.0977 4.75391 10.1172 4.73828 10.1289 4.71484C10.1445 4.69531 10.1523 4.67188 10.1562 4.64844C10.1797 4.55078 10.0508 4.69531 10.0391 4.58594C10.0117 4.48047 10.0898 4.4375 10.168 4.33984C10.168 4.26953 10.168 4.22266 10.0742 4.27344H10.0781ZM10.8633 4.41406C10.832 4.54297 10.8164 4.67578 10.8086 4.80469C10.7852 4.90234 10.9141 4.94531 10.9648 4.82031C11.0508 4.58984 11.0508 4.49219 11.0586 4.39844C11.0352 4.24609 10.9297 4.25 10.8633 4.41406ZM15.8555 6.95703C15.8711 6.94141 16.5586 6.44922 16.5586 6.44922C16.6289 6.42578 16.6133 6.70313 16.582 6.69922C16.3672 6.90625 16.1211 7.07813 15.8516 7.20313C15.8164 7.22656 15.7852 7.01562 15.8516 6.95703H15.8555ZM16.4805 6.94922C16.6016 7.01172 16.6523 7.36328 16.6367 7.46094C16.6367 7.64844 16.5195 7.79688 16.4727 7.77734C16.4219 7.75391 16.4805 7.54297 16.4531 7.46875C16.4258 7.36328 16.3242 7.16797 16.3398 7.11328C16.3086 6.99219 16.4062 6.92969 16.4805 6.94922ZM12.4023 8.47656C12.457 8.41016 12.5234 8.35156 12.5977 8.30469C12.668 8.26953 12.7305 8.33203 12.7266 8.32812C12.7383 8.39844 12.6836 8.45703 12.7031 8.55078C12.7188 8.58594 12.7266 8.62891 12.793 8.61328C12.9023 8.52734 13.0039 8.51953 13.1094 8.51562C13.1992 8.51953 13.2031 8.66406 13.1445 8.66406C12.9453 8.70312 12.8594 8.76172 12.7148 8.8125C12.6445 8.85547 12.5859 8.80469 12.5859 8.80078C12.5859 8.79688 12.5469 8.76172 12.5742 8.66797C12.582 8.59766 12.5508 8.55859 12.4883 8.5625C12.4453 8.59375 12.4023 8.60547 12.3828 8.55469C12.3711 8.51953 12.3711 8.49609 12.4023 8.47656ZM17.2031 8.66797C17.2305 8.69922 17.2539 8.73828 17.1992 8.80078L17.0703 8.91016C17.0469 8.94922 17.0352 9.01172 17.1055 9.02734C17.2305 9.0625 17.5273 8.8711 17.5273 8.86719C17.5742 8.83203 17.5625 8.76172 17.5547 8.76172C17.5273 8.73047 17.4648 8.75 17.4219 8.74219C17.3984 8.74219 17.332 8.73828 17.3633 8.67188C17.3867 8.64062 17.4062 8.60938 17.4219 8.57031C17.4375 8.52734 17.4219 8.5 17.3516 8.47656C17.2773 8.46094 17.2461 8.46875 17.1641 8.47656C17.1211 8.48438 17.1094 8.50391 17.0977 8.55859C17.1016 8.63672 17.1523 8.63281 17.2031 8.66406V8.66797Z" fill="white"/>
<path fill-rule="evenodd" clip-rule="evenodd" d="M12.4258 6.66797C12.4062 6.70313 12.3438 6.70313 12.2852 6.66797C12.2266 6.63281 12.1914 6.57812 12.2109 6.54688C12.2305 6.51562 12.293 6.51562 12.3516 6.54688C12.4102 6.57812 12.4414 6.63672 12.4258 6.66797ZM9.29688 4.78516C9.26172 4.79688 9.21094 4.76172 9.19141 4.71484C9.16797 4.66406 9.17969 4.62109 9.21484 4.61328C9.25 4.60156 9.29688 4.63672 9.32031 4.68359C9.34375 4.73047 9.33203 4.77734 9.29297 4.78906L9.29688 4.78516Z" fill="#165D31"/>
<path fill-rule="evenodd" clip-rule="evenodd" d="M15.4883 13.1836C15.8164 13.1992 16.1289 13.1836 16.4531 13.1992C16.5156 13.2539 16.4727 13.3789 16.4336 13.3711L16.1602 13.3594C16.1562 13.2539 15.8867 13.2695 15.8945 13.3633C15.75 13.3789 15.6211 13.3594 15.4727 13.3516C15.4297 13.3008 15.4375 13.2031 15.4883 13.1836Z" fill="#165D31"/>
</g>
</g>
<rect x="0.25" y="0.25" width="23.5" height="17.5" rx="1.75" stroke="#DDE0EA" stroke-width="0.5" style="fill-opacity:0"/>
<defs>
<clipPath id="clip0_1002_36">
<rect width="24" height="18" rx="2" fill="white"/>
</clipPath>
<clipPath id="clip1_1002_36">
<rect width="24" height="18" fill="white"/>
</clipPath>
</defs>
</svg>
