<svg width="24" height="18" viewBox="0 0 24 18" fill="none" xmlns="http://www.w3.org/2000/svg">
<g clip-path="url(#clip0_1202_3133)">
<rect width="24" height="18" fill="#249F58"/>
<path fill-rule="evenodd" clip-rule="evenodd" d="M18.2855 11.5715V10.4286H5.71406L7.99977 11.5715H14.8569C14.8569 12.2024 15.6249 12.7144 16.5712 12.7144C17.5175 12.7144 18.2855 12.2024 18.2855 11.5715ZM9.97691 4.60693C9.9632 4.60693 9.94263 4.61379 9.91634 4.62979C9.85463 4.67093 9.73348 4.79779 9.72891 4.94408C9.72548 5.02751 9.70949 5.02751 9.7632 5.08122C9.80206 5.13608 9.8432 5.13151 9.92091 5.08922C9.96663 5.05493 9.98149 5.0355 9.99749 4.9795C10.0158 4.88808 9.89806 5.02522 9.8832 4.92008C9.85691 4.82408 9.93234 4.78293 10.0032 4.69151C10.0055 4.64579 10.0055 4.61151 9.97691 4.60922V4.60693ZM11.1232 4.61265C11.1003 4.61722 11.0741 4.64693 11.0363 4.71322C11.0101 4.78408 10.8946 4.89151 10.9792 5.11322C11.0455 5.25379 11.0741 5.48122 11.0432 5.73608C10.9952 5.80808 10.9861 5.83322 10.9232 5.90522C10.8363 6.00008 10.7403 5.97608 10.6695 5.93951C10.6009 5.89379 10.5483 5.87093 10.5175 5.72693C10.5232 5.49836 10.5369 5.11893 10.4946 5.03893C10.4329 4.91551 10.3301 4.95893 10.2866 4.99665C10.0775 5.19093 9.97348 5.51436 9.90948 5.77379C9.85234 5.96122 9.78948 5.90636 9.74606 5.83093C9.63977 5.73036 9.63177 4.95093 9.50377 5.08008C9.29806 5.66751 9.62149 6.31093 9.84663 6.24808C10.0066 6.31665 10.1095 6.00808 10.1758 5.67093C10.2215 5.57608 10.2558 5.56465 10.2786 5.61379C10.2729 6.06179 10.3129 6.16236 10.4272 6.29722C10.6832 6.49608 10.8958 6.32236 10.9129 6.30636L11.1129 6.1075C11.1586 6.06179 11.2158 6.05722 11.2786 6.09836C11.3403 6.1555 11.3323 6.25036 11.4615 6.31551C11.5735 6.36122 11.8078 6.32693 11.8615 6.23208C11.9358 6.10636 11.9529 6.06293 11.9872 6.01493C12.0398 5.94636 12.1301 5.97722 12.1301 5.99893C12.1221 6.03893 12.0695 6.07893 12.1049 6.14751C12.1678 6.19322 12.1826 6.1635 12.2192 6.15322C12.3495 6.0915 12.4478 5.80808 12.4478 5.80808C12.4535 5.70293 12.3941 5.71093 12.3563 5.73265C12.3049 5.7635 12.3026 5.77379 12.2535 5.80465C12.1883 5.81379 12.0649 5.85608 12.0043 5.76122C11.9415 5.64693 11.9415 5.48922 11.8935 5.37265C11.8935 5.36579 11.8101 5.19322 11.8866 5.18293C11.9243 5.18979 12.0089 5.21151 12.0215 5.14179C12.0626 5.07322 11.9335 4.87893 11.8455 4.78293C11.7701 4.69951 11.6649 4.68922 11.5632 4.77379C11.4912 4.84008 11.5026 4.91322 11.4878 4.98293C11.4706 5.06293 11.4741 5.16236 11.5563 5.26865C11.6272 5.40808 11.7563 5.58865 11.7129 5.84236C11.7129 5.84236 11.6386 5.96351 11.5072 5.94751C11.4501 5.93608 11.3609 5.91322 11.3129 5.55893C11.2786 5.29265 11.3221 4.91893 11.2101 4.74408C11.1838 4.67893 11.1621 4.61493 11.1255 4.61836L11.1232 4.61265ZM10.7598 4.64236C10.7255 4.64579 10.6878 4.68579 10.6569 4.76236C10.6306 4.82179 10.5975 5.12808 10.6032 5.12808C10.5803 5.21951 10.6981 5.25836 10.7518 5.14179C10.8318 4.92465 10.8318 4.83322 10.8363 4.74408C10.8249 4.67551 10.7941 4.64122 10.7598 4.64351V4.64236ZM12.1003 4.66522C12.0661 4.66979 12.0375 4.69036 12.0272 4.74293C12.0123 4.86408 12.0203 4.9315 12.0409 5.03322C12.0558 5.10179 12.1552 5.21379 12.2032 5.28008C12.4352 5.59208 12.6603 5.90522 12.8752 6.22865C12.9095 6.47093 12.9323 6.70636 12.9495 6.94179C12.9861 7.45608 12.9952 8.09608 12.9643 8.63893C13.0603 8.64236 13.2158 8.48236 13.2695 8.25036C13.3038 7.92579 13.2581 7.2675 13.2535 7.07551L13.2421 6.8035C13.4935 7.21493 13.7358 7.64922 13.9735 8.12465C14.0615 8.08351 14.0421 7.59322 13.9918 7.52465C13.7998 7.11322 13.5346 6.70636 13.4512 6.54979C13.4203 6.49265 13.3163 6.33608 13.1941 6.15436C13.1712 5.89379 13.1461 5.67436 13.1301 5.60808C13.0901 5.33379 13.2421 5.63893 13.2215 5.48008C13.1712 5.20579 13.0203 5.02065 12.8421 4.76922C12.7849 4.68922 12.7849 4.67093 12.6969 4.78979C12.6455 4.90979 12.6455 5.01036 12.6626 5.10408C12.6375 5.06979 12.6089 5.03093 12.5678 4.98065L12.2763 4.73379C12.2363 4.70522 12.1586 4.66179 12.1003 4.66522ZM16.0729 4.70751C16.0558 4.70522 16.0386 4.71322 16.0158 4.74408C15.9758 4.77836 15.9335 4.8435 15.9358 4.92693C15.9438 5.06979 15.9701 5.21722 15.9792 5.36122L15.9906 5.41836C15.9746 5.40008 15.9609 5.38408 15.9529 5.37722C15.6706 5.08008 16.0821 5.32693 15.8981 5.0995C15.7438 4.92808 15.6981 4.87551 15.5666 4.77265C15.4981 4.73151 15.4592 4.64922 15.4375 4.78865C15.4283 4.91093 15.4192 5.05379 15.4261 5.15665C15.4261 5.21379 15.4866 5.32236 15.5381 5.38522C15.7255 5.61722 15.9175 5.86293 16.1095 6.11893C16.1506 6.64122 16.1609 7.12008 16.2009 7.64351C16.1963 7.86751 16.1278 8.16465 16.0638 8.19208C16.0638 8.19208 15.9632 8.24922 15.8969 8.18636C15.8478 8.16693 15.6546 7.86293 15.6546 7.86293C15.5552 7.7715 15.4889 7.79779 15.4192 7.86293C15.2249 8.05036 15.1358 8.40236 15.0043 8.64465C14.9701 8.69836 14.8752 8.74522 14.7689 8.64008C14.4981 8.26979 14.6546 7.74293 14.6226 7.87893C14.3826 8.15093 14.4878 8.60122 14.5426 8.69836C14.6226 8.85836 14.6866 8.96122 14.8398 9.03779C14.9826 9.14065 15.0912 9.07779 15.1529 9.0035C15.2946 8.85722 15.2969 8.48122 15.3632 8.40693C15.4089 8.26979 15.5266 8.29265 15.5838 8.35436C15.6409 8.43436 15.7049 8.48579 15.7861 8.52922C15.9186 8.64579 16.0763 8.66636 16.2318 8.56008C16.3381 8.50065 16.4078 8.42293 16.4695 8.26979C16.5381 8.0915 16.5038 7.15436 16.4889 6.63322L16.7861 7.06293C16.8272 7.52008 16.8466 7.9715 16.8318 8.4035C16.8226 8.48922 17.1323 8.1475 17.1289 7.98522C17.1289 7.84465 17.1312 7.7155 17.1289 7.59665C17.2809 7.83665 17.4261 8.08008 17.5632 8.32808C17.6489 8.28236 17.6203 7.79893 17.5666 7.73379C17.4226 7.49151 17.2375 7.23093 17.0946 7.02751C17.0661 6.77265 17.0283 6.47208 17.0101 6.3795C16.9838 6.2355 16.9563 6.01951 16.9152 5.84922C16.9038 5.78408 16.8695 5.5715 16.8809 5.55208C16.8969 5.50293 16.9609 5.55208 16.9918 5.49722C17.0375 5.44579 16.8295 4.90293 16.7232 4.74979C16.6855 4.68122 16.6158 4.70408 16.5312 4.81836C16.4512 4.89151 16.4809 5.06065 16.5106 5.22179C16.5883 5.63322 16.6592 6.04922 16.7141 6.4675C16.6112 6.31322 16.4855 6.12808 16.3621 5.95093L16.3461 5.87093C16.3461 5.86179 16.3301 5.53379 16.3152 5.45608C16.3118 5.42408 16.3038 5.41493 16.3381 5.41951C16.3723 5.44922 16.3769 5.45036 16.3986 5.46065C16.4352 5.46522 16.4672 5.40579 16.4443 5.34979L16.1129 4.7395C16.1015 4.72465 16.0855 4.71093 16.0672 4.70865L16.0729 4.70751ZM5.82149 4.71893C5.75863 4.71665 5.69234 4.75322 5.71863 4.82751C5.70263 4.86751 5.83749 5.00236 5.86149 5.07665C5.88091 5.13036 5.83863 5.2995 5.88434 5.31665C5.92434 5.33379 5.98034 5.19779 6.00091 5.07322C6.01234 5.00465 6.00434 4.76922 5.84434 4.72122C5.83634 4.71893 5.82834 4.71893 5.8192 4.71779L5.82149 4.71893ZM17.5015 4.71893C17.4866 4.72122 17.4695 4.74179 17.4443 4.79893C17.3815 4.90179 17.3598 5.08465 17.3849 5.24465C17.5335 6.26179 17.6478 7.24693 17.6706 8.14751C17.6569 8.23436 17.6523 8.28008 17.6135 8.38751C17.5243 8.50179 17.4261 8.6435 17.3335 8.71208C17.2421 8.78065 17.0455 8.84693 16.9815 8.89722C16.7758 9.01379 16.7758 9.14865 16.9403 9.15436C17.2238 9.12008 17.5598 9.09722 17.7906 8.74865C17.8523 8.6515 17.9255 8.38636 17.9278 8.22293C17.9506 7.27436 17.9163 6.34293 17.7735 5.65608C17.7643 5.5875 17.7346 5.4355 17.7461 5.41608C17.7632 5.36808 17.8558 5.41951 17.8889 5.36579C17.9381 5.31551 17.6489 4.94636 17.5483 4.78865C17.5278 4.74979 17.5141 4.71665 17.4981 4.72008L17.5015 4.71893ZM14.5266 4.73493C14.5152 4.73722 14.4992 4.75551 14.4672 4.79779C14.3872 5.05608 14.3598 5.26636 14.3906 5.42865C14.5963 6.49151 14.8021 7.45722 14.7701 8.46865C14.8661 8.46865 14.9781 8.24808 15.0261 8.02865C15.0523 7.72579 15.0078 7.54179 15.0009 7.36579C14.9929 7.18751 14.7998 5.74751 14.7609 5.61379C14.7129 5.36008 14.9483 5.57951 14.9232 5.43322C14.8409 5.24579 14.6375 4.97608 14.5758 4.81265C14.5529 4.76922 14.5483 4.72922 14.5301 4.73265L14.5266 4.73493ZM7.28777 4.7555C7.26491 4.76008 7.23863 4.78065 7.23063 4.81265C7.22491 4.83551 7.23977 4.87322 7.2192 4.88465C7.20777 4.89608 7.16434 4.88808 7.16663 4.82751C7.16663 4.80693 7.15177 4.78636 7.14377 4.77379C7.13463 4.76922 7.12891 4.76808 7.11291 4.76808C7.09349 4.76808 7.09349 4.77379 7.0832 4.79093C7.07863 4.80693 7.07177 4.82293 7.07177 4.84122C7.06949 4.86408 7.06034 4.86979 7.04549 4.87322C7.0272 4.87322 7.03063 4.87551 7.01691 4.86522C7.00549 4.85722 6.99634 4.85379 6.99634 4.83779C6.99634 4.82065 6.99177 4.79208 6.9872 4.78293C6.9792 4.77151 6.96663 4.76693 6.95291 4.76351C6.87749 4.76351 6.87291 4.85265 6.87634 4.88465C6.87063 4.89151 6.86834 5.04465 6.9712 5.08808C7.10834 5.15436 7.36891 5.12579 7.35977 4.90293C7.35977 4.88351 7.35406 4.81722 7.35177 4.80008C7.33806 4.76579 7.31177 4.75436 7.28663 4.75779L7.28777 4.7555ZM9.14606 4.75779C9.09806 4.76008 9.05463 4.77379 9.02034 4.79208C8.92891 4.88008 8.90606 5.02065 8.9792 5.10865C9.04777 5.14293 9.11977 5.2115 9.07291 5.2515C8.87406 5.46293 8.35634 5.81836 8.33006 5.8835V5.89036H8.33463V5.89265C8.36091 5.90979 8.68549 5.90979 8.72091 5.89265H8.7232C8.8352 5.85036 9.3632 5.24693 9.3632 5.24693C9.33577 5.22408 9.31063 5.20579 9.2832 5.18179C9.25349 5.15665 9.25691 5.13151 9.2832 5.10636C9.41349 5.03093 9.37234 4.86293 9.30377 4.78636C9.24663 4.76122 9.19406 4.75208 9.14606 4.7555V4.75779ZM14.0032 4.75779C13.9895 4.76122 13.9723 4.78065 13.9461 4.83779C13.8832 4.94065 13.8409 5.11779 13.8466 5.28351C13.9815 6.22065 14.0226 7.04008 14.1118 7.97722C14.1186 8.06865 14.1049 8.19893 14.0455 8.2515C13.8215 8.48465 13.5003 8.77036 13.1506 8.90293C13.1129 8.94522 13.2443 9.12465 13.4135 9.12465C13.6969 9.09036 13.9461 8.93265 14.1792 8.51322C14.2398 8.41608 14.3483 8.20693 14.3506 8.04465C14.3735 7.09379 14.3049 6.35322 14.1609 5.66751C14.1529 5.59893 14.1586 5.51893 14.1701 5.50065C14.1883 5.47779 14.2501 5.50065 14.2843 5.44693C14.3323 5.39665 14.1541 4.98636 14.0535 4.82979C14.0329 4.78979 14.0215 4.75779 14.0032 4.75893V4.75779ZM6.47863 4.78865C6.43977 4.79322 6.4032 4.82293 6.38491 4.86865C6.3792 5.01722 6.37806 5.16579 6.39634 5.30522C6.46491 5.54865 6.48434 5.76236 6.51749 6.01036C6.52891 6.34408 6.32549 6.15436 6.33463 5.98979C6.38034 5.77493 6.36891 5.43779 6.32777 5.35208C6.29349 5.26636 6.25691 5.24579 6.17691 5.26065C6.11406 5.25608 5.95063 5.43208 5.90491 5.72922C5.90491 5.72922 5.86606 5.88008 5.85006 6.01493C5.8272 6.16693 5.72663 6.2755 5.65577 5.99436C5.5952 5.78865 5.55863 5.28579 5.45691 5.40236C5.4272 5.79551 5.39291 6.48808 5.72663 6.55893C6.1312 6.59779 5.9072 5.87551 6.05349 5.74408C6.08206 5.68122 6.13349 5.68008 6.13691 5.76122V6.37493C6.13234 6.57379 6.26263 6.63322 6.36549 6.67436C6.47177 6.66636 6.54149 6.66979 6.58263 6.77265L6.63406 7.8355C6.63406 7.8355 6.87863 7.90408 6.89006 7.23779C6.90149 6.84579 6.81006 6.51779 6.86377 6.44122C6.86606 6.36579 6.96206 6.36122 7.02834 6.39893C7.13463 6.47322 7.18149 6.56465 7.34606 6.52808C7.59749 6.4595 7.74606 6.33836 7.74949 6.14636C7.73806 5.9635 7.7152 5.78065 7.6352 5.59779C7.64663 5.56579 7.58949 5.48008 7.60091 5.44693C7.64434 5.5155 7.71291 5.51093 7.72663 5.44693C7.68549 5.30636 7.6192 5.17265 7.51177 5.1155C7.42377 5.0355 7.29463 5.05265 7.24663 5.21493C7.22377 5.40236 7.3152 5.62408 7.45234 5.80579C7.47977 5.87665 7.52091 5.99436 7.50263 6.10065C7.43063 6.14179 7.35863 6.1235 7.29691 6.06065C7.29691 6.06065 7.0992 5.91208 7.0992 5.87779C7.15291 5.54065 7.11063 5.50065 7.08206 5.40922C7.06149 5.27893 6.99977 5.23779 6.95063 5.14865C6.90034 5.09493 6.83291 5.09493 6.80206 5.14865C6.71291 5.30065 6.75406 5.62865 6.81806 5.77379C6.86377 5.90865 6.93463 5.99322 6.90149 5.99322C6.87406 6.06751 6.81691 6.05036 6.77577 5.96236C6.71863 5.77951 6.70491 5.50979 6.70491 5.38751C6.68777 5.23665 6.66834 4.91322 6.56777 4.83093C6.54149 4.79436 6.51063 4.78179 6.47977 4.78522L6.47863 4.78865ZM7.89806 4.78865C7.87863 4.79322 7.85577 4.80465 7.82949 4.81151C7.74377 4.83779 7.66377 4.91208 7.68891 5.05608C7.79177 5.67322 7.85691 6.14522 7.95863 6.76236C7.97349 6.8355 7.91291 6.93036 7.8352 6.92236C7.70263 6.83093 7.66949 6.64808 7.4432 6.65722C7.27863 6.65722 7.0912 6.83779 7.06834 7.00922C7.04091 7.14636 7.03177 7.29493 7.06834 7.41379C7.18263 7.55093 7.32206 7.53722 7.4432 7.50522C7.54263 7.46522 7.62606 7.36808 7.66034 7.39093C7.6832 7.42865 7.65806 7.74979 7.19177 7.99665C6.90377 8.12693 6.6752 8.15665 6.55177 7.92351C6.47634 7.77722 6.55863 7.2195 6.3712 7.3475C5.81577 8.77836 7.67063 8.97722 7.87749 7.40693C7.8912 7.36122 7.9312 7.31779 7.96091 7.32922C7.97234 7.33493 7.98377 7.35208 7.98834 7.38408C7.94491 8.80579 6.55291 8.90408 6.31749 8.45608C6.25806 8.35093 6.24091 8.1155 6.2352 7.97608C6.22377 7.89036 6.2032 7.84122 6.17806 7.82179C6.12091 7.7795 6.04549 7.89036 6.02949 8.08122C6.00663 8.2355 6.01234 8.27779 6.01234 8.42636C6.08777 9.54979 7.87863 9.06636 8.17006 8.14065C8.31406 7.66065 8.16663 7.29836 8.21577 7.25379L8.2192 7.2515H8.22263L8.22834 7.24922C8.40663 7.44122 8.65577 7.27208 8.71063 7.20693C8.73349 7.17265 8.79291 7.14979 8.83406 7.1955C8.9712 7.29379 9.21577 7.24693 9.26606 7.06979C9.29577 6.89836 9.32091 6.72236 9.32663 6.53836C9.2352 6.56693 9.16206 6.5875 9.13234 6.61836C9.12549 6.62636 9.12091 6.6355 9.11863 6.64465L9.09577 6.79665C9.09577 6.80236 9.09349 6.80579 9.0912 6.80808C9.08777 6.81608 9.07977 6.82179 9.0752 6.82522C9.0432 6.84236 8.9872 6.83322 8.98377 6.78636C8.94149 6.59208 8.76434 6.56693 8.65691 6.86979C8.58491 6.92693 8.4512 6.93836 8.43977 6.8515C8.45691 6.64808 8.37463 6.62065 8.2112 6.71665L8.05349 5.52808C8.12206 5.52465 8.18377 5.57379 8.24777 5.49608C8.1792 5.28579 8.03634 4.85836 7.9552 4.81722H7.95291L7.94149 4.80579C7.94149 4.80351 7.93806 4.80236 7.93577 4.80122L7.9312 4.79436C7.92663 4.79436 7.92206 4.79208 7.91977 4.79093C7.91177 4.78865 7.90491 4.78865 7.89691 4.78865H7.89806ZM13.4318 4.79322C13.3609 4.79093 13.2832 4.83551 13.3129 4.92465C13.2946 4.97379 13.4649 5.13836 13.4923 5.2275C13.5415 5.36465 13.4546 5.49836 13.5061 5.51779C13.5541 5.53836 13.6203 5.37493 13.6432 5.22293C13.6729 5.09951 13.5861 4.84808 13.4603 4.79665L13.4318 4.79436V4.79322ZM9.11977 4.94293C9.15177 4.94065 9.19063 4.97036 9.2112 5.01151C9.23063 5.05722 9.22034 5.0995 9.18834 5.1075C9.15406 5.1155 9.11063 5.08693 9.09006 5.04122C9.06949 4.9955 9.07863 4.95322 9.11291 4.94522H9.11977V4.94293ZM17.1163 5.15093C17.0512 5.14865 16.9792 5.19665 17.0089 5.29379C16.9929 5.34636 17.1461 5.52465 17.1723 5.62293C17.1952 5.69151 17.1381 5.9155 17.1838 5.93608C17.2272 5.95893 17.2866 5.78065 17.3095 5.61608C17.3232 5.52465 17.2569 5.21036 17.1438 5.15436C17.1358 5.15208 17.1266 5.14979 17.1175 5.14979L17.1163 5.15093ZM12.6935 5.26065C12.7015 5.28693 12.7072 5.31322 12.7106 5.34065C12.7243 5.39779 12.7358 5.45493 12.7472 5.51436C12.6969 5.4435 12.6558 5.38636 12.6363 5.36579C12.5221 5.22865 12.6386 5.27665 12.6935 5.26065ZM13.7141 5.76122C13.6889 5.76579 13.6649 5.7875 13.6569 5.82179C13.6501 5.84236 13.6661 5.87893 13.6455 5.89036C13.6341 5.90179 13.5883 5.89493 13.5918 5.83322C13.5918 5.81265 13.5769 5.79093 13.5689 5.77951C13.5598 5.77379 13.5541 5.77151 13.5381 5.77151C13.5186 5.77151 13.5186 5.77722 13.5083 5.79436C13.5038 5.81036 13.4969 5.82636 13.4969 5.84579C13.4969 5.86865 13.4878 5.87551 13.4718 5.88008C13.4535 5.88008 13.4569 5.88008 13.4421 5.87208C13.4329 5.86065 13.4226 5.85836 13.4226 5.84236C13.4226 5.82522 13.4192 5.79893 13.4135 5.78751C13.4055 5.77608 13.3941 5.77265 13.3792 5.76808C13.3049 5.76808 13.2992 5.85493 13.3038 5.88693C13.2992 5.89379 13.2958 6.04922 13.3986 6.09265C13.5381 6.15779 13.7986 6.12693 13.7872 5.90522C13.7872 5.88579 13.7815 5.81951 13.7803 5.80236C13.7655 5.76808 13.7392 5.75665 13.7152 5.76008L13.7141 5.76122ZM9.06263 5.80693C9.04663 5.80693 9.02377 5.8115 8.99749 5.8275C8.8752 5.89379 8.82834 6.09036 8.90606 6.20465C8.97463 6.3075 9.08891 6.26979 9.10377 6.26979C9.22377 6.28579 9.29463 6.04579 9.29463 6.04579C9.29463 6.04579 9.29806 5.97722 9.15748 6.10522C9.09577 6.11665 9.08891 6.09379 9.07291 6.0595C9.0592 5.99893 9.06149 5.93379 9.09006 5.87322C9.10377 5.83551 9.09006 5.81151 9.06263 5.80922V5.80693ZM15.6375 5.83779C15.5689 5.83436 15.4969 5.87893 15.4775 5.9715C15.4775 6.02636 15.5026 6.05608 15.4981 6.10636C15.4923 6.13493 15.4638 6.15208 15.3929 6.12008C15.4043 6.10865 15.3472 6.03093 15.3472 6.03093C15.2935 5.99665 15.2215 6.03093 15.1735 6.06293C15.1472 6.11093 15.1278 6.19208 15.1575 6.27436C15.2352 6.4195 15.5038 6.66636 15.6318 6.66865C15.6341 6.53836 15.6466 6.36465 15.6546 6.25722C15.6569 6.21608 15.6661 6.1715 15.7061 6.16122C15.7449 6.14979 15.8123 6.20008 15.8123 6.15779C15.8055 6.07551 15.7895 5.95208 15.7438 5.89493C15.7186 5.86065 15.6786 5.84008 15.6386 5.83779H15.6375ZM10.1941 6.29151L10.1906 6.29493C10.1906 6.29493 10.1883 6.29493 10.1872 6.29722C10.1735 6.30865 10.1575 6.3315 10.1221 6.35436C10.0615 6.42293 10.0512 6.47208 10.0535 6.60922C10.0581 6.62408 10.1678 6.93265 10.2626 7.14865C10.3266 7.37379 10.3849 7.63208 10.3426 7.8755C10.1941 8.19779 9.89691 8.48693 9.60777 8.64465C9.4592 8.69036 9.33349 8.67436 9.2992 8.64236C9.21463 8.58522 9.21349 8.48236 9.2192 8.46636V8.46293C9.46149 8.29379 9.7392 8.15665 9.95634 7.70065C10.0203 7.52579 10.0409 7.42065 9.97691 7.15208C9.95177 7.04922 9.91977 6.96922 9.8512 6.89608H9.85349C9.89463 6.87665 10.0021 6.9555 10.0192 6.90751C9.99291 6.77722 9.90491 6.60465 9.80777 6.51551C9.72091 6.43551 9.62491 6.4275 9.5472 6.4995C9.45806 6.54979 9.43977 6.72808 9.48206 6.8835C9.53006 7.00008 9.6592 7.02065 9.75063 7.25722C9.75291 7.27322 9.78149 7.43436 9.73577 7.50065C9.69691 7.61722 9.21577 7.99665 9.18149 8.01951L9.17806 8.02179L9.17577 8.02408H9.1712V8.02065C9.16891 8.01151 9.1712 7.98636 9.1712 7.94865C9.16777 7.87779 9.19749 7.71665 9.19406 7.68808V7.68579C9.03406 7.78865 8.98034 8.10293 8.95177 8.19665C8.54834 8.47436 8.0912 8.68122 7.8272 8.96236C7.69006 9.1795 8.77349 8.71779 8.8992 8.66179L8.90263 8.66522C8.92777 8.6915 8.92891 8.78293 9.00091 8.86636C9.1152 9.01836 9.35291 9.11208 9.58606 9.05379C9.97691 8.91322 10.2032 8.64693 10.4318 8.35093C10.4638 8.30522 10.5152 8.26636 10.5632 8.30293C10.7198 8.65493 11.1746 8.90636 11.7609 8.9315C11.8981 8.76693 11.8329 8.68579 11.7781 8.6515C11.7609 8.64008 11.4866 8.53265 11.4432 8.42636C11.4169 8.32808 11.4821 8.24008 11.6123 8.17493C11.9895 8.12922 12.3598 8.07779 12.7186 7.96236C12.7221 7.84122 12.7929 7.66179 12.8409 7.58293C12.8752 7.52922 12.8946 7.5235 12.9026 7.51665V7.51436H12.9049V7.4995L12.8432 7.46293L11.6398 7.45836C11.6249 7.45265 11.6146 7.44693 11.6078 7.44122L11.6055 7.43779C11.6055 7.43779 11.6032 7.43779 11.6032 7.4355C11.6032 7.43322 11.6009 7.43322 11.6009 7.43322V7.43436V7.42751L11.6032 7.42408C11.6089 7.41722 11.6238 7.40922 11.6409 7.40122C11.9289 7.3635 12.4386 7.28008 12.4729 6.78979C12.4672 6.53379 12.3632 6.36693 12.0501 6.32122C11.8192 6.33836 11.6546 6.56122 11.6809 6.80579C11.6695 6.87093 11.7038 7.00008 11.6352 7.01493C11.1941 7.05608 10.7118 7.33265 10.6958 7.53151H10.6889C10.6889 7.53379 10.6866 7.53379 10.6855 7.53379H10.6741C10.6455 7.52465 10.6089 7.47665 10.6146 7.4115C10.5975 7.06865 10.4855 6.68008 10.3118 6.38293C10.2489 6.32008 10.2203 6.29493 10.2043 6.29151H10.1941ZM11.3461 6.47208C11.3232 6.47665 11.2969 6.49722 11.2889 6.53151C11.2832 6.55436 11.3003 6.59093 11.2798 6.60236C11.2683 6.61379 11.2226 6.60693 11.2249 6.54522C11.2249 6.52579 11.2101 6.50408 11.2021 6.4915C11.1929 6.48579 11.1872 6.48465 11.1723 6.48465C11.1529 6.48465 11.1518 6.48922 11.1415 6.50522C11.1358 6.52122 11.1301 6.53951 11.1301 6.55665C11.1278 6.5795 11.1186 6.58636 11.1038 6.58865C11.0855 6.58865 11.0901 6.59208 11.0752 6.58293C11.0661 6.57379 11.0546 6.56922 11.0546 6.55322C11.0546 6.53608 11.0512 6.5075 11.0466 6.49608C11.0386 6.48808 11.0261 6.48465 11.0123 6.48008C10.9358 6.48008 10.9323 6.56579 10.9358 6.59893C10.9301 6.60465 10.9266 6.75893 11.0295 6.80236C11.1666 6.86865 11.4981 6.82979 11.4181 6.61608C11.4181 6.59665 11.4123 6.53036 11.4112 6.51322C11.3963 6.47893 11.3701 6.46751 11.3449 6.47093L11.3461 6.47208ZM15.9918 6.66293H15.9803C15.9803 6.66293 15.3381 7.12008 15.3232 7.13608C15.2592 7.19322 15.2912 7.39093 15.3232 7.36808C15.3689 7.38522 16.0146 6.9475 16.0021 6.89608C16.0306 6.89836 16.0443 6.67093 15.9906 6.66179L15.9918 6.66293ZM11.9529 6.7315C11.9781 6.72808 12.0123 6.73722 12.0443 6.75436C12.0935 6.78408 12.1243 6.82522 12.1186 6.85722V6.86179C12.1163 6.86179 12.1163 6.86179 12.1163 6.86408V6.86636C12.1163 6.86636 12.1141 6.86636 12.1141 6.86865C12.1141 6.87093 12.1106 6.87322 12.1083 6.8755C12.0855 6.89836 12.0329 6.89379 11.9826 6.86408C11.9346 6.83779 11.9061 6.79551 11.9083 6.76579V6.76236L11.9141 6.75093C11.9141 6.75093 11.9141 6.74865 11.9163 6.7475L11.9221 6.74065C11.9301 6.73493 11.9403 6.72922 11.9529 6.72922V6.7315ZM6.33234 6.84579C6.00091 6.85265 5.51291 7.28236 5.50034 7.52008L6.55177 7.01722C6.49463 6.93036 6.54834 6.85265 6.33234 6.84579ZM7.41006 6.99436C7.44206 6.99665 7.47634 7.01265 7.49463 7.05836C7.51063 7.10065 7.49463 7.14408 7.4752 7.16579V7.16922C7.4592 7.1875 7.4112 7.18065 7.37577 7.18065C7.33349 7.17836 7.31291 7.1715 7.28777 7.13722C7.27406 7.09722 7.31063 7.0595 7.32777 7.03208L7.33577 7.02065C7.3472 7.00922 7.37006 7.00008 7.39291 6.99779L7.40777 6.9955L7.41006 6.99436ZM15.8672 7.12808C15.8066 7.13493 15.7506 7.19093 15.7758 7.28008C15.7598 7.33265 15.8558 7.51665 15.8821 7.61379C15.9049 7.68236 15.8523 7.88008 15.8992 7.89951C15.9426 7.92236 16.0558 7.78522 16.0523 7.60922C16.0638 7.51779 16.0203 7.18636 15.9072 7.1315C15.8935 7.12808 15.8798 7.12693 15.8661 7.12808H15.8672ZM8.68549 7.45265C8.63291 7.45608 8.58606 7.4835 8.60777 7.55779C8.60434 7.61036 8.75634 7.6755 8.76434 7.79779C8.78491 7.85036 8.73006 8.01493 8.77577 8.02865C8.81691 8.04579 8.87406 7.91436 8.89577 7.7955C8.9072 7.72922 8.8432 7.49836 8.73577 7.45608C8.71863 7.4515 8.70149 7.45036 8.68434 7.4515L8.68549 7.45265ZM10.8341 7.74522H10.8478C10.9826 7.78179 11.1792 7.78636 11.3506 7.80236C11.4912 7.81379 11.5598 7.92122 11.4306 7.96808C11.3003 8.01151 11.1758 8.04808 11.1758 8.23322C11.1918 8.32465 11.1872 8.37265 11.1735 8.39322C11.1735 8.39665 11.1701 8.39893 11.1689 8.40008C11.1689 8.40008 11.1689 8.40236 11.1666 8.40236V8.40465H11.1632L11.1552 8.40808H11.1495C11.1186 8.41379 11.0741 8.38522 11.0409 8.36693C10.9609 8.30979 10.7381 8.17265 10.7061 7.8755C10.7015 7.80693 10.7518 7.74979 10.8318 7.74408L10.8341 7.74522ZM5.58377 7.97379C5.57577 7.97379 5.56091 7.99893 5.53806 8.0275C5.3392 8.34179 5.32091 8.8115 5.43063 8.95322C5.48777 9.01836 5.58377 9.04808 5.65463 9.0275C5.78034 8.97379 5.83406 8.72122 5.8032 8.62979C5.7632 8.56465 5.73006 8.55436 5.68891 8.60922C5.60091 8.78636 5.5632 8.66408 5.55749 8.5635C5.54377 8.37722 5.56206 8.2035 5.58263 8.06636C5.59406 7.99779 5.59406 7.9715 5.58263 7.9715L5.58377 7.97379ZM12.3232 8.38751C12.3083 8.38751 12.2935 8.38979 12.2775 8.39893C12.2741 8.39893 12.1358 8.49036 12.0912 8.55665C12.0638 8.57722 12.0683 8.59436 12.0752 8.63093C12.0958 8.68008 12.1323 8.66522 12.1758 8.64236C12.2329 8.63322 12.2592 8.67093 12.2558 8.73836C12.2295 8.82408 12.2672 8.85493 12.2672 8.86065C12.2672 8.86522 12.3209 8.91208 12.3849 8.8755C12.5186 8.82408 12.6021 8.77265 12.7906 8.73265C12.8398 8.73265 12.8363 8.60008 12.7586 8.5955C12.6558 8.60008 12.5643 8.60693 12.4615 8.68693C12.3986 8.70065 12.3883 8.66179 12.3735 8.6275C12.3575 8.54293 12.4101 8.48351 12.3986 8.4195C12.4009 8.42293 12.3666 8.39208 12.3221 8.38979L12.3232 8.38751ZM16.6386 8.5475L16.5472 8.55665C16.5061 8.56465 16.4923 8.58293 16.4843 8.63322C16.4878 8.7075 16.5335 8.70408 16.5815 8.73379C16.6089 8.76808 16.6272 8.80008 16.5792 8.8595C16.5335 8.8995 16.5026 8.92236 16.4569 8.96236C16.4375 8.99893 16.4226 9.05379 16.4889 9.07208C16.6089 9.10636 16.8866 8.92579 16.8866 8.9235C16.9323 8.88922 16.9163 8.82408 16.9129 8.82408C16.8855 8.79436 16.8261 8.81265 16.7872 8.80693C16.7678 8.80693 16.7072 8.79779 16.7346 8.74293C16.7598 8.70865 16.7689 8.68922 16.7861 8.64693C16.8032 8.60579 16.7861 8.57836 16.7198 8.5555C16.6855 8.54865 16.6626 8.54636 16.6363 8.5475H16.6386ZM14.9781 12.9589C15.2866 12.9738 15.5746 12.9624 15.8809 12.9772C15.9312 13.0184 15.9072 13.1144 15.8752 13.1304L15.8695 13.1326H15.8615L15.6032 13.1258V13.1109C15.5781 13.0401 15.4066 13.0446 15.3655 13.0995V13.1029C15.3632 13.1029 15.3621 13.1064 15.3621 13.1075L15.3598 13.1132V13.1269C15.2226 13.1441 15.1026 13.1224 14.9678 13.1178C14.9278 13.0686 14.9335 12.9806 14.9792 12.9578L14.9781 12.9589Z" fill="white"/>
</g>
<rect x="0.25" y="0.25" width="23.5" height="17.5" rx="1.75" stroke="#DFE2EC" stroke-width="0.5" style="fill-opacity:0"/>
<defs>
<clipPath id="clip0_1202_3133">
<rect width="24" height="18" rx="2" fill="white"/>
</clipPath>
</defs>
</svg>
