<svg width="24" height="18" viewBox="0 0 24 18" fill="none" xmlns="http://www.w3.org/2000/svg">
<g clip-path="url(#clip0_1059_9)">
<rect width="24" height="18" fill="#1A47B8"/>
<path d="M0 0H24V18H0V0Z" fill="white"/>
<path d="M0 0H24V12H0V0Z" fill="#0C4076"/>
<path d="M0 0H24V6H0V0Z" fill="#C6363C"/>
<path d="M8.20 1.70C8.23 1.70 8.26 1.67 8.26 1.64C8.26 1.60 8.23 1.58 8.20 1.58C8.20 1.54 8.17 1.52 8.14 1.52C8.10 1.52 8.08 1.54 8.08 1.58C8.04 1.58 8.02 1.60 8.02 1.64C8.02 1.67 8.04 1.70 8.08 1.70V1.83H7.97C7.97 1.79 7.94 1.77 7.91 1.77C7.87 1.77 7.85 1.79 7.85 1.83C7.81 1.83 7.79 1.85 7.79 1.89C7.79 1.92 7.81 1.95 7.85 1.95C7.85 1.98 7.87 2.01 7.91 2.01C7.94 2.01 7.97 1.98 7.97 1.95H8.08V2.38H8.20V1.95H8.31C8.31 1.98 8.33 2.01 8.37 2.01C8.40 2.01 8.43 1.98 8.43 1.95C8.46 1.95 8.49 1.92 8.49 1.89C8.49 1.85 8.46 1.83 8.43 1.83C8.43 1.79 8.40 1.77 8.37 1.77C8.33 1.77 8.31 1.79 8.31 1.83H8.20V1.70Z" fill="#EDB92E"/>
<path d="M8.47 2.38C8.48 2.42 8.48 2.46 8.47 2.50C8.25 2.49 8.03 2.49 7.80 2.50C7.79 2.46 7.79 2.42 7.80 2.38C8.03 2.37 8.25 2.37 8.47 2.38Z" fill="#EDB92E"/>
<path d="M6.12 5.29L6.24 5.91H10.04L10.16 5.29L8.14 5.19L6.12 5.29Z" fill="#EDB92E"/>
<path d="M10.36 4.71C10.22 5.07 10.10 5.07 10.08 4.75C10.10 4.73 10.09 4.67 10.13 4.70C10.15 4.71 10.18 4.67 10.16 4.66C10.12 4.63 10.08 4.63 10.04 4.67C10.03 4.61 9.99 4.59 9.94 4.61C9.92 4.62 9.92 4.66 9.94 4.66C9.98 4.65 9.97 4.69 9.98 4.71C9.71 5.04 9.60 5.00 9.64 4.57L9.44 4.53C9.21 4.98 9.04 5.00 8.92 4.59C8.94 4.57 8.94 4.52 8.98 4.54C9.00 4.55 9.02 4.51 8.99 4.49C8.95 4.45 8.90 4.47 8.86 4.51C8.84 4.45 8.78 4.43 8.73 4.47C8.70 4.49 8.72 4.53 8.74 4.52C8.79 4.51 8.77 4.57 8.80 4.59C8.70 4.99 8.18 5.01 8.27 4.43H8.01C8.10 5.01 7.58 4.99 7.48 4.59C7.51 4.57 7.49 4.51 7.53 4.52C7.56 4.53 7.57 4.49 7.55 4.47C7.50 4.43 7.44 4.45 7.42 4.51C7.38 4.47 7.33 4.45 7.28 4.49C7.26 4.51 7.28 4.55 7.30 4.54C7.34 4.52 7.34 4.57 7.36 4.59C7.24 5.00 7.06 4.98 6.84 4.53L6.64 4.57C6.68 5.00 6.56 5.04 6.30 4.71C6.31 4.69 6.30 4.65 6.34 4.66C6.36 4.66 6.36 4.62 6.34 4.61C6.29 4.59 6.25 4.61 6.24 4.67C6.20 4.63 6.15 4.63 6.12 4.66C6.10 4.67 6.13 4.71 6.15 4.70C6.18 4.67 6.18 4.73 6.20 4.75C6.18 5.07 6.06 5.07 5.92 4.71L5.84 4.73C5.84 4.81 5.87 4.91 5.92 4.97C6.12 5.21 6.28 5.17 6.29 4.87C6.56 5.19 6.78 5.15 6.82 4.81C7.04 5.25 7.42 5.03 7.43 4.77C7.54 5.15 8.10 5.15 8.14 4.71C8.18 5.15 8.74 5.15 8.85 4.77C8.86 5.03 9.24 5.25 9.46 4.81C9.50 5.15 9.72 5.19 9.99 4.87C10.00 5.17 10.16 5.21 10.36 4.97C10.41 4.91 10.44 4.81 10.44 4.73L10.36 4.71Z" fill="#EDB92E"/>
<path d="M7.94 3.99L7.80 3.81C7.84 3.42 7.84 3.07 7.80 2.75C7.77 2.65 7.80 2.63 7.88 2.67C8.05 2.75 8.22 2.75 8.40 2.67C8.48 2.63 8.50 2.65 8.48 2.75C8.44 3.07 8.44 3.42 8.48 3.81L8.34 3.99H7.94Z" fill="#EDB92E"/>
<path d="M10.13 3.18L10.68 3.44L10.74 3.68L10.53 4.02L10.55 4.30H10.72L11.02 3.50L10.64 3.18L9.78 2.88L10.13 3.18Z" fill="#EDB92E"/>
<path d="M10.12 3.10C10.19 3.10 10.25 3.05 10.25 2.98C10.25 2.90 10.19 2.85 10.12 2.85C10.05 2.85 9.99 2.90 9.99 2.98C9.99 3.05 10.05 3.10 10.12 3.10Z" fill="white"/>
<path d="M10.36 3.18C10.43 3.18 10.49 3.13 10.49 3.06C10.49 2.98 10.43 2.93 10.36 2.93C10.29 2.93 10.23 2.98 10.23 3.06C10.23 3.13 10.29 3.18 10.36 3.18Z" fill="white"/>
<path d="M10.60 3.29C10.67 3.29 10.73 3.24 10.73 3.17C10.73 3.09 10.67 3.04 10.60 3.04C10.53 3.04 10.47 3.09 10.47 3.17C10.47 3.24 10.53 3.29 10.60 3.29Z" fill="white"/>
<path d="M10.82 3.42C10.89 3.42 10.95 3.37 10.95 3.29C10.95 3.22 10.89 3.17 10.82 3.17C10.75 3.17 10.69 3.22 10.69 3.29C10.69 3.37 10.75 3.42 10.82 3.42Z" fill="white"/>
<path d="M10.72 4.32C10.79 4.32 10.85 4.27 10.85 4.20C10.85 4.12 10.79 4.07 10.72 4.07C10.65 4.07 10.59 4.12 10.59 4.20C10.59 4.27 10.65 4.32 10.72 4.32Z" fill="white"/>
<path d="M10.84 4.10C10.91 4.10 10.97 4.05 10.97 3.98C10.97 3.90 10.91 3.85 10.84 3.85C10.77 3.85 10.71 3.90 10.71 3.98C10.71 4.05 10.77 4.10 10.84 4.10Z" fill="white"/>
<path d="M10.94 3.88C11.01 3.88 11.07 3.83 11.07 3.76C11.07 3.68 11.01 3.63 10.94 3.63C10.87 3.63 10.81 3.68 10.81 3.76C10.81 3.83 10.87 3.88 10.94 3.88Z" fill="white"/>
<path d="M10.98 3.62C11.05 3.62 11.11 3.57 11.11 3.50C11.11 3.42 11.05 3.37 10.98 3.37C10.91 3.37 10.85 3.42 10.85 3.50C10.85 3.57 10.91 3.62 10.98 3.62Z" fill="white"/>
<path d="M8.46 2.80L9.16 2.82L9.60 2.96L9.72 3.24L9.40 3.86L9.54 4.26L9.96 3.90L10.16 3.16L9.62 2.70L8.48 2.62L8.46 2.80Z" fill="#EDB92E"/>
<path d="M9.89 2.88C9.88 2.89 9.87 2.91 9.86 2.93C10.05 3.03 10.13 3.15 10.11 3.26C10.11 3.28 10.05 3.49 9.92 3.89C9.83 3.95 9.76 4.01 9.72 4.06C9.72 4.06 9.70 4.08 9.71 4.09C9.70 4.15 9.77 4.14 9.81 4.12C9.83 4.06 9.90 4.00 9.94 3.97C9.95 3.97 9.98 3.95 9.98 3.94C10.05 3.72 10.12 3.51 10.18 3.31C10.24 3.11 10.11 2.97 9.89 2.88Z" fill="#EDB92E"/>
<path d="M8.58 2.72C8.65 2.72 8.71 2.67 8.71 2.60C8.71 2.52 8.65 2.47 8.58 2.47C8.51 2.47 8.45 2.52 8.45 2.60C8.45 2.67 8.51 2.72 8.58 2.72Z" fill="white"/>
<path d="M8.83 2.72C8.90 2.72 8.96 2.67 8.96 2.60C8.96 2.52 8.90 2.47 8.83 2.47C8.76 2.47 8.70 2.52 8.70 2.60C8.70 2.67 8.76 2.72 8.83 2.72Z" fill="white"/>
<path d="M9.08 2.75C9.15 2.75 9.21 2.70 9.21 2.63C9.21 2.55 9.15 2.50 9.08 2.50C9.01 2.50 8.95 2.55 8.95 2.63C8.95 2.70 9.01 2.75 9.08 2.75Z" fill="white"/>
<path d="M9.32 2.80C9.39 2.80 9.45 2.75 9.45 2.68C9.45 2.60 9.39 2.55 9.32 2.55C9.25 2.55 9.19 2.60 9.19 2.68C9.19 2.75 9.25 2.80 9.32 2.80Z" fill="white"/>
<path d="M9.56 2.88C9.63 2.88 9.69 2.83 9.69 2.76C9.69 2.68 9.63 2.63 9.56 2.63C9.49 2.63 9.43 2.68 9.43 2.76C9.43 2.83 9.49 2.88 9.56 2.88Z" fill="white"/>
<path d="M9.78 2.98C9.85 2.98 9.91 2.93 9.91 2.86C9.91 2.78 9.85 2.73 9.78 2.73C9.71 2.73 9.65 2.78 9.65 2.86C9.65 2.93 9.71 2.98 9.78 2.98Z" fill="white"/>
<path d="M9.92 3.14C9.99 3.14 10.05 3.09 10.05 3.02C10.05 2.94 9.99 2.89 9.92 2.89C9.85 2.89 9.79 2.94 9.79 3.02C9.79 3.09 9.85 3.14 9.92 3.14Z" fill="white"/>
<path d="M9.66 4.06C9.73 4.06 9.79 4.01 9.79 3.94C9.79 3.86 9.73 3.81 9.66 3.81C9.59 3.81 9.53 3.86 9.53 3.94C9.53 4.01 9.59 4.06 9.66 4.06Z" fill="white"/>
<path d="M9.76 3.84C9.83 3.84 9.89 3.79 9.89 3.72C9.89 3.64 9.83 3.59 9.76 3.59C9.69 3.59 9.63 3.64 9.63 3.72C9.63 3.79 9.69 3.84 9.76 3.84Z" fill="white"/>
<path d="M9.86 3.62C9.93 3.62 9.99 3.57 9.99 3.5C9.99 3.42 9.93 3.37 9.86 3.37C9.79 3.37 9.73 3.42 9.73 3.5C9.73 3.57 9.79 3.62 9.86 3.62Z" fill="white"/>
<path d="M9.94 3.38C10.01 3.38 10.07 3.33 10.07 3.26C10.07 3.18 10.01 3.13 9.94 3.13C9.87 3.13 9.81 3.18 9.81 3.26C9.81 3.33 9.87 3.38 9.94 3.38Z" fill="white"/>
<path d="M8.61 4.29C8.58 4.27 8.57 4.27 8.56 4.26C8.55 4.24 8.55 4.22 8.55 4.19C8.57 4.08 8.51 4.10 8.44 4.15C8.40 4.17 8.36 4.22 8.33 4.25C8.30 4.28 8.28 4.28 8.27 4.29C8.27 4.33 8.27 4.37 8.27 4.39C8.27 4.40 8.27 4.44 8.27 4.48C8.28 4.49 8.30 4.49 8.33 4.52C8.36 4.55 8.40 4.60 8.44 4.63C8.51 4.67 8.57 4.69 8.55 4.58C8.55 4.56 8.55 4.53 8.56 4.51C8.57 4.50 8.58 4.50 8.61 4.48C8.63 4.47 8.65 4.46 8.66 4.44C8.67 4.42 8.66 4.41 8.66 4.39C8.66 4.37 8.67 4.35 8.66 4.34C8.65 4.32 8.63 4.30 8.61 4.29Z" fill="#EDB92E"/>
<path d="M9.57 4.00C9.54 4.03 9.54 4.04 9.53 4.05C9.51 4.06 9.48 4.06 9.46 4.05C9.36 4.01 9.36 4.09 9.39 4.18C9.41 4.22 9.45 4.27 9.47 4.30C9.48 4.34 9.48 4.36 9.49 4.37C9.52 4.38 9.55 4.38 9.57 4.39C9.58 4.39 9.61 4.39 9.65 4.40C9.66 4.39 9.67 4.36 9.70 4.34C9.73 4.31 9.79 4.28 9.82 4.24C9.88 4.17 9.91 4.11 9.81 4.11C9.79 4.11 9.77 4.11 9.76 4.09C9.75 4.08 9.75 4.07 9.75 4.03C9.74 4.01 9.73 3.99 9.72 3.97C9.71 3.96 9.69 3.96 9.67 3.96C9.66 3.95 9.64 3.95 9.62 3.95C9.60 3.96 9.58 3.97 9.57 4.00Z" fill="#EDB92E"/>
<path d="M9.95 4.42C9.93 4.40 9.92 4.41 9.92 4.39C9.92 4.38 9.93 4.35 9.94 4.33C9.99 4.24 9.94 4.25 9.87 4.28C9.85 4.29 9.83 4.31 9.81 4.33C9.79 4.34 9.77 4.36 9.76 4.37C9.72 4.40 9.70 4.40 9.69 4.41C9.68 4.44 9.67 4.48 9.66 4.49C9.66 4.50 9.64 4.54 9.63 4.57C9.63 4.58 9.65 4.59 9.67 4.61C9.68 4.64 9.69 4.69 9.71 4.71C9.74 4.74 9.76 4.76 9.78 4.76C9.79 4.76 9.81 4.73 9.81 4.67C9.81 4.65 9.83 4.63 9.84 4.61C9.85 4.60 9.86 4.61 9.88 4.59C9.90 4.58 9.92 4.57 9.93 4.55C9.94 4.54 9.94 4.52 9.95 4.51C9.96 4.49 9.97 4.48 9.96 4.46C9.96 4.45 9.96 4.43 9.95 4.42Z" fill="#EDB92E"/>
<path d="M9.10 4.52C9.13 4.54 9.13 4.54 9.14 4.55C9.15 4.57 9.14 4.59 9.14 4.62C9.11 4.71 9.17 4.70 9.23 4.67C9.27 4.65 9.31 4.60 9.34 4.58C9.37 4.55 9.39 4.55 9.40 4.55C9.41 4.51 9.42 4.48 9.42 4.46C9.42 4.45 9.43 4.41 9.44 4.37C9.43 4.36 9.41 4.35 9.39 4.32C9.37 4.29 9.35 4.23 9.32 4.20C9.26 4.14 9.20 4.11 9.20 4.23C9.20 4.26 9.19 4.29 9.18 4.30C9.17 4.31 9.16 4.31 9.13 4.32C9.11 4.33 9.09 4.35 9.08 4.36C9.07 4.38 9.07 4.40 9.07 4.42C9.07 4.43 9.06 4.45 9.06 4.47C9.07 4.49 9.08 4.51 9.10 4.52Z" fill="#EDB92E"/>
<path d="M6.14 3.18L5.59 3.44L5.53 3.68L5.74 4.02L5.72 4.30H5.55L5.25 3.50L5.63 3.18L6.49 2.88L6.14 3.18Z" fill="#EDB92E"/>
<path d="M6.15 3.10C6.22 3.10 6.28 3.05 6.28 2.98C6.28 2.90 6.22 2.85 6.15 2.85C6.08 2.85 6.02 2.90 6.02 2.98C6.02 3.05 6.08 3.10 6.15 3.10Z" fill="white"/>
<path d="M5.91 3.18C5.98 3.18 6.04 3.13 6.04 3.06C6.04 2.98 5.98 2.93 5.91 2.93C5.84 2.93 5.78 2.98 5.78 3.06C5.78 3.13 5.84 3.18 5.91 3.18Z" fill="white"/>
<path d="M5.67 3.29C5.74 3.29 5.80 3.24 5.80 3.17C5.80 3.09 5.74 3.04 5.67 3.04C5.60 3.04 5.54 3.09 5.54 3.17C5.54 3.24 5.60 3.29 5.67 3.29Z" fill="white"/>
<path d="M5.45 3.42C5.52 3.42 5.58 3.37 5.58 3.29C5.58 3.22 5.52 3.17 5.45 3.17C5.38 3.17 5.32 3.22 5.32 3.29C5.32 3.37 5.38 3.42 5.45 3.42Z" fill="white"/>
<path d="M5.55 4.32C5.62 4.32 5.68 4.27 5.68 4.20C5.68 4.12 5.62 4.07 5.55 4.07C5.48 4.07 5.42 4.12 5.42 4.20C5.42 4.27 5.48 4.32 5.55 4.32Z" fill="white"/>
<path d="M5.43 4.10C5.50 4.10 5.56 4.05 5.56 3.97C5.56 3.90 5.50 3.85 5.43 3.85C5.36 3.85 5.30 3.90 5.30 3.97C5.30 4.05 5.36 4.10 5.43 4.10Z" fill="white"/>
<path d="M5.33 3.88C5.40 3.88 5.46 3.83 5.46 3.76C5.46 3.68 5.40 3.63 5.33 3.63C5.26 3.63 5.20 3.68 5.20 3.76C5.20 3.83 5.26 3.88 5.33 3.88Z" fill="white"/>
<path d="M5.29 3.62C5.36 3.62 5.42 3.57 5.42 3.5C5.42 3.42 5.36 3.37 5.29 3.37C5.22 3.37 5.16 3.42 5.16 3.5C5.16 3.57 5.22 3.62 5.29 3.62Z" fill="white"/>
<path d="M7.81 2.80L7.11 2.82L6.67 2.96L6.55 3.24L6.87 3.86L6.73 4.26L6.31 3.90L6.11 3.16L6.65 2.70L7.79 2.62L7.81 2.80Z" fill="#EDB92E"/>
<path d="M6.38 2.88C6.39 2.89 6.40 2.91 6.41 2.93C6.22 3.03 6.14 3.15 6.16 3.26C6.16 3.28 6.22 3.49 6.35 3.89C6.44 3.95 6.51 4.01 6.55 4.06C6.55 4.06 6.57 4.08 6.56 4.09C6.57 4.15 6.50 4.14 6.46 4.12C6.44 4.06 6.37 4.00 6.33 3.97C6.32 3.97 6.29 3.95 6.29 3.94C6.22 3.72 6.15 3.51 6.09 3.31C6.03 3.11 6.16 2.97 6.38 2.88Z" fill="#EDB92E"/>
<path d="M7.69 2.72C7.76 2.72 7.82 2.67 7.82 2.60C7.82 2.52 7.76 2.47 7.69 2.47C7.62 2.47 7.56 2.52 7.56 2.60C7.56 2.67 7.62 2.72 7.69 2.72Z" fill="white"/>
<path d="M7.44 2.72C7.51 2.72 7.57 2.67 7.57 2.60C7.57 2.52 7.51 2.47 7.44 2.47C7.37 2.47 7.31 2.52 7.31 2.60C7.31 2.67 7.37 2.72 7.44 2.72Z" fill="white"/>
<path d="M7.19 2.75C7.26 2.75 7.32 2.70 7.32 2.63C7.32 2.55 7.26 2.50 7.19 2.50C7.12 2.50 7.06 2.55 7.06 2.63C7.06 2.70 7.12 2.75 7.19 2.75Z" fill="white"/>
<path d="M6.95 2.80C7.02 2.80 7.08 2.75 7.08 2.68C7.08 2.60 7.02 2.55 6.95 2.55C6.88 2.55 6.82 2.60 6.82 2.68C6.82 2.75 6.88 2.80 6.95 2.80Z" fill="white"/>
<path d="M6.71 2.88C6.78 2.88 6.84 2.83 6.84 2.76C6.84 2.68 6.78 2.63 6.71 2.63C6.64 2.63 6.58 2.68 6.58 2.76C6.58 2.83 6.64 2.88 6.71 2.88Z" fill="white"/>
<path d="M6.49 2.98C6.56 2.98 6.62 2.93 6.62 2.86C6.62 2.78 6.56 2.73 6.49 2.73C6.42 2.73 6.36 2.78 6.36 2.86C6.36 2.93 6.42 2.98 6.49 2.98Z" fill="white"/>
<path d="M6.35 3.14C6.42 3.14 6.48 3.09 6.48 3.02C6.48 2.94 6.42 2.89 6.35 2.89C6.28 2.89 6.22 2.94 6.22 3.02C6.22 3.09 6.28 3.14 6.35 3.14Z" fill="white"/>
<path d="M6.61 4.06C6.68 4.06 6.74 4.01 6.74 3.94C6.74 3.86 6.68 3.81 6.61 3.81C6.54 3.81 6.48 3.86 6.48 3.94C6.48 4.01 6.54 4.06 6.61 4.06Z" fill="white"/>
<path d="M6.51 3.84C6.58 3.84 6.64 3.79 6.64 3.71C6.64 3.64 6.58 3.59 6.51 3.59C6.44 3.59 6.38 3.64 6.38 3.71C6.38 3.79 6.44 3.84 6.51 3.84Z" fill="white"/>
<path d="M6.41 3.62C6.48 3.62 6.54 3.57 6.54 3.50C6.54 3.42 6.48 3.37 6.41 3.37C6.34 3.37 6.28 3.42 6.28 3.50C6.28 3.57 6.34 3.62 6.41 3.62Z" fill="white"/>
<path d="M6.33 3.38C6.40 3.38 6.46 3.33 6.46 3.26C6.46 3.18 6.40 3.13 6.33 3.13C6.26 3.13 6.20 3.18 6.20 3.26C6.20 3.33 6.26 3.38 6.33 3.38Z" fill="white"/>
<path d="M5.65 4.34L5.64 4.38C5.59 4.39 5.54 4.39 5.50 4.39C5.57 4.32 5.62 4.31 5.65 4.34Z" fill="#EDB92E"/>
<path d="M5.63 4.24C5.67 4.25 5.67 4.26 5.69 4.26C5.71 4.26 5.73 4.26 5.75 4.25C5.83 4.20 5.83 4.28 5.80 4.35C5.78 4.39 5.76 4.45 5.78 4.49C5.80 4.53 5.80 4.55 5.78 4.57C5.77 4.58 5.76 4.58 5.75 4.59C5.73 4.61 5.71 4.61 5.71 4.58C5.63 4.55 5.64 4.47 5.61 4.40C5.58 4.30 5.46 4.28 5.63 4.24Z" fill="#EDB92E"/>
<path d="M7.66 4.29C7.69 4.27 7.70 4.27 7.71 4.26C7.72 4.24 7.72 4.21 7.72 4.19C7.70 4.08 7.76 4.10 7.83 4.14C7.87 4.17 7.91 4.22 7.94 4.25C7.97 4.28 7.99 4.28 8.00 4.29C8.00 4.33 8.00 4.37 8.00 4.38C8.00 4.40 8.00 4.43 8.00 4.48C7.99 4.49 7.97 4.49 7.94 4.52C7.91 4.55 7.87 4.60 7.83 4.62C7.76 4.67 7.70 4.69 7.72 4.58C7.72 4.55 7.72 4.53 7.71 4.51C7.70 4.50 7.69 4.50 7.66 4.48C7.64 4.47 7.62 4.45 7.61 4.44C7.60 4.42 7.61 4.40 7.61 4.39C7.61 4.37 7.60 4.35 7.61 4.33C7.62 4.31 7.64 4.30 7.66 4.29Z" fill="#EDB92E"/>
<path d="M6.70 4.00C6.73 4.03 6.73 4.04 6.74 4.05C6.76 4.06 6.79 4.06 6.81 4.05C6.91 4.01 6.91 4.09 6.88 4.18C6.86 4.22 6.82 4.27 6.80 4.30C6.79 4.34 6.79 4.36 6.78 4.37C6.75 4.38 6.72 4.38 6.70 4.39C6.69 4.39 6.66 4.39 6.62 4.40C6.61 4.39 6.60 4.36 6.57 4.34C6.54 4.31 6.48 4.28 6.45 4.24C6.39 4.17 6.36 4.11 6.46 4.11C6.48 4.11 6.50 4.11 6.51 4.09C6.52 4.08 6.52 4.07 6.52 4.03C6.53 4.01 6.54 3.99 6.55 3.97C6.56 3.96 6.58 3.96 6.60 3.96C6.61 3.95 6.63 3.95 6.65 3.95C6.67 3.96 6.69 3.97 6.70 4.00Z" fill="#EDB92E"/>
<path d="M6.32 4.42C6.34 4.40 6.35 4.41 6.35 4.39C6.35 4.38 6.34 4.35 6.33 4.33C6.28 4.24 6.33 4.25 6.40 4.28C6.42 4.29 6.44 4.31 6.46 4.33C6.48 4.34 6.50 4.36 6.51 4.37C6.55 4.40 6.57 4.40 6.58 4.41C6.59 4.44 6.60 4.48 6.61 4.49C6.61 4.50 6.63 4.54 6.64 4.57C6.64 4.58 6.62 4.59 6.60 4.61C6.59 4.64 6.58 4.69 6.56 4.71C6.53 4.74 6.51 4.76 6.49 4.76C6.48 4.76 6.46 4.73 6.46 4.67C6.46 4.65 6.44 4.63 6.43 4.61C6.42 4.60 6.41 4.61 6.39 4.59C6.37 4.58 6.35 4.57 6.34 4.55C6.33 4.54 6.33 4.52 6.32 4.51C6.31 4.49 6.30 4.48 6.31 4.46C6.31 4.45 6.31 4.43 6.32 4.42Z" fill="#EDB92E"/>
<path d="M7.17 4.52C7.14 4.54 7.14 4.54 7.13 4.55C7.12 4.57 7.13 4.59 7.13 4.62C7.16 4.71 7.10 4.70 7.04 4.67C7.00 4.65 6.96 4.60 6.93 4.58C6.90 4.55 6.88 4.55 6.87 4.55C6.86 4.51 6.85 4.48 6.85 4.46C6.85 4.45 6.84 4.41 6.83 4.37C6.84 4.36 6.86 4.35 6.88 4.32C6.90 4.29 6.92 4.23 6.95 4.20C7.01 4.14 7.07 4.11 7.07 4.23C7.07 4.26 7.08 4.29 7.09 4.30C7.10 4.31 7.11 4.31 7.14 4.32C7.16 4.33 7.18 4.35 7.19 4.36C7.20 4.38 7.20 4.40 7.20 4.42C7.20 4.43 7.21 4.45 7.21 4.47C7.20 4.49 7.19 4.51 7.17 4.52Z" fill="#EDB92E"/>
<path d="M8.14 3.90C8.21 3.90 8.27 3.85 8.27 3.78C8.27 3.70 8.21 3.65 8.14 3.65C8.07 3.65 8.01 3.70 8.01 3.78C8.01 3.85 8.07 3.90 8.14 3.90Z" fill="white"/>
<path d="M8.14 3.66C8.21 3.66 8.27 3.61 8.27 3.54C8.27 3.46 8.21 3.41 8.14 3.41C8.07 3.41 8.01 3.46 8.01 3.54C8.01 3.61 8.07 3.66 8.14 3.66Z" fill="white"/>
<path d="M8.14 3.43C8.21 3.43 8.27 3.38 8.27 3.31C8.27 3.23 8.21 3.18 8.14 3.18C8.07 3.18 8.01 3.23 8.01 3.31C8.01 3.38 8.07 3.43 8.14 3.43Z" fill="white"/>
<path d="M8.14 2.78C8.21 2.78 8.27 2.73 8.27 2.66C8.27 2.58 8.21 2.53 8.14 2.53C8.07 2.53 8.01 2.58 8.01 2.66C8.01 2.73 8.07 2.78 8.14 2.78Z" fill="white"/>
<path d="M8.14 2.98C8.21 2.98 8.27 2.93 8.27 2.86C8.27 2.78 8.21 2.73 8.14 2.73C8.07 2.73 8.01 2.78 8.01 2.86C8.01 2.93 8.07 2.98 8.14 2.98Z" fill="white"/>
<path d="M8.14 3.20C8.21 3.20 8.27 3.15 8.27 3.08C8.27 3.00 8.21 2.95 8.14 2.95C8.07 2.95 8.01 3.00 8.01 3.08C8.01 3.15 8.07 3.20 8.14 3.20Z" fill="white"/>
<path d="M8.14 3.86C8.16 3.86 8.17 3.85 8.19 3.86C8.21 3.87 8.22 3.89 8.23 3.91C8.25 3.94 8.25 3.95 8.26 3.95C8.28 3.96 8.31 3.97 8.33 3.96C8.44 3.95 8.42 4.01 8.38 4.08C8.35 4.12 8.30 4.15 8.27 4.18C8.24 4.21 8.24 4.24 8.23 4.25H8.05C8.04 4.24 8.03 4.21 8.01 4.18C7.98 4.15 7.92 4.12 7.90 4.08C7.85 4.01 7.84 3.95 7.94 3.96C7.97 3.97 7.99 3.96 8.01 3.95C8.03 3.95 8.02 3.94 8.04 3.91C8.05 3.89 8.07 3.87 8.09 3.86C8.10 3.85 8.12 3.86 8.14 3.86Z" fill="#EDB92E"/>
<path d="M11.51 6.02V11.52C11.51 12.42 11.11 13.3 10.51 13.94C9.91 14.58 9.07 15.02 8.14 15.02C7.20 15.02 6.36 14.58 5.76 13.94C5.16 13.3 4.76 12.42 4.76 11.52V6.02H11.51Z" fill="#C6363C"/>
<path d="M8.14 15.04C7.25 15.04 6.40 14.65 5.74 13.95C5.10 13.27 4.74 12.38 4.74 11.51V5.99H11.54V11.52C11.54 12.38 11.17 13.27 10.53 13.95C9.87 14.65 9.02 15.04 8.14 15.04ZM4.79 6.04V11.52C4.79 12.37 5.15 13.25 5.78 13.92C6.43 14.61 7.27 14.99 8.14 14.99C9.01 14.99 9.85 14.61 10.49 13.92C11.13 13.24 11.49 12.37 11.49 11.52V6.04H4.79Z" fill="white"/>
<path d="M8.11 14.69C8.08 14.69 8.03 14.69 7.99 14.66C7.94 14.63 7.96 14.47 7.97 14.37C7.99 13.86 8.01 13.01 8.04 11.81C8.08 11.80 8.11 11.81 8.14 11.81C8.17 11.81 8.20 11.80 8.24 11.81C8.27 13.01 8.29 13.86 8.31 14.37C8.31 14.47 8.33 14.62 8.28 14.66C8.25 14.69 8.20 14.69 8.17 14.69H8.11Z" fill="white"/>
<path d="M7.79 14.68C7.82 14.68 7.87 14.69 7.91 14.66C7.96 14.63 7.97 14.47 7.97 14.37C7.99 13.86 8.04 13.01 8.12 11.81C8.08 11.80 8.05 11.80 8.02 11.81C8.02 11.80 8.01 11.80 8.01 11.80C7.82 12.99 7.74 13.82 7.61 14.33C7.60 14.40 7.56 14.58 7.62 14.63C7.65 14.67 7.70 14.66 7.73 14.67L7.79 14.68Z" fill="white"/>
<path d="M7.42 14.62C7.45 14.62 7.49 14.64 7.53 14.62C7.59 14.59 7.59 14.43 7.61 14.33C7.74 13.83 7.81 12.99 8.01 11.80C7.97 11.79 7.93 11.79 7.91 11.79C7.60 12.94 7.51 13.75 7.28 14.25C7.25 14.32 7.19 14.50 7.25 14.57C7.28 14.60 7.33 14.61 7.36 14.62L7.42 14.63L7.42 14.62Z" fill="white"/>
<path d="M7.04 14.52C7.07 14.52 7.12 14.55 7.16 14.53C7.22 14.51 7.23 14.34 7.27 14.25C7.51 13.74 7.60 12.93 7.91 11.77C7.87 11.75 7.84 11.75 7.81 11.74C7.78 11.73 7.79 11.73 7.75 11.72C7.39 12.86 7.27 13.66 6.94 14.16C6.88 14.24 6.84 14.40 6.88 14.45C6.91 14.48 6.96 14.49 6.98 14.50L7.04 14.52Z" fill="white"/>
<path d="M8.49 14.68C8.46 14.68 8.41 14.69 8.37 14.66C8.32 14.63 8.31 14.47 8.31 14.37C8.28 13.86 8.24 13.01 8.15 11.81C8.20 11.80 8.23 11.80 8.26 11.81C8.26 11.80 8.27 11.80 8.27 11.80C8.46 12.99 8.53 13.82 8.66 14.33C8.68 14.40 8.72 14.58 8.66 14.63C8.62 14.67 8.57 14.66 8.55 14.67L8.49 14.68Z" fill="white"/>
<path d="M8.86 14.62C8.83 14.62 8.78 14.64 8.74 14.62C8.69 14.59 8.69 14.43 8.66 14.33C8.53 13.83 8.46 12.99 8.27 11.80C8.31 11.79 8.34 11.79 8.37 11.79C8.67 12.94 8.76 13.75 9.00 14.25C9.02 14.32 9.08 14.50 9.02 14.57C8.99 14.60 8.94 14.61 8.92 14.62L8.86 14.63L8.86 14.62Z" fill="white"/>
<path d="M9.23 14.52C9.20 14.52 9.16 14.55 9.11 14.53C9.05 14.51 9.04 14.34 9.00 14.25C8.77 13.74 8.68 12.93 8.37 11.77C8.41 11.75 8.44 11.75 8.47 11.74C8.49 11.73 8.49 11.73 8.53 11.72C8.89 12.86 9.00 13.66 9.34 14.16C9.39 14.24 9.43 14.40 9.40 14.45C9.37 14.48 9.32 14.49 9.29 14.50L9.23 14.52Z" fill="white"/>
<path d="M9.04 13.65C9.01 13.65 8.97 13.67 8.93 13.65C8.87 13.62 8.83 13.47 8.80 13.37C8.57 12.90 8.35 12.07 7.99 10.90C8.03 10.89 8.05 10.88 8.08 10.88C8.10 10.87 8.13 10.86 8.17 10.86C8.55 12.01 8.72 12.84 9.10 13.30C9.16 13.37 9.21 13.54 9.18 13.59C9.16 13.62 9.11 13.63 9.09 13.64L9.04 13.65Z" fill="white"/>
<path d="M7.45 12.96C7.47 12.96 7.50 12.97 7.53 12.95C7.58 12.93 7.60 12.77 7.63 12.68C7.81 12.21 7.98 11.37 8.25 10.21L8.12 10.16C7.82 11.31 7.69 12.14 7.40 12.60C7.35 12.68 7.32 12.84 7.34 12.89C7.36 12.93 7.39 12.93 7.41 12.94C7.42 12.95 7.44 12.95 7.45 12.96Z" fill="white"/>
<path d="M8.59 13.02C8.57 13.02 8.54 13.03 8.51 13.01C8.47 12.97 8.46 12.82 8.44 12.72C8.37 12.22 8.23 11.38 8.04 10.2L8.18 10.17C8.40 11.34 8.46 12.22 8.67 12.67C8.71 12.75 8.73 12.92 8.71 12.96C8.69 13 8.65 13.00 8.63 13.01C8.62 13.01 8.61 13.01 8.59 13.02Z" fill="white"/>
<path d="M9.78 12.76C9.78 12.76 9.79 12.77 9.79 12.78C9.81 12.84 9.89 12.94 9.95 13.00C10.04 13.09 10.02 13.24 9.96 13.32C9.89 13.40 9.85 13.50 9.84 13.57C9.83 13.62 9.82 13.72 9.83 13.88C9.83 13.96 9.88 14.00 9.93 14.04C9.95 14.05 9.91 14.10 9.84 14.16C9.83 14.16 9.81 14.17 9.80 14.22C9.80 14.22 9.76 14.22 9.76 14.22C9.75 14.17 9.73 14.16 9.72 14.16C9.65 14.10 9.61 14.05 9.63 14.04C9.67 14.00 9.72 13.96 9.73 13.88C9.74 13.72 9.73 13.62 9.72 13.57C9.70 13.50 9.66 13.40 9.60 13.32C9.54 13.24 9.51 13.09 9.61 13.00C9.67 12.94 9.74 12.84 9.76 12.78C9.77 12.77 9.77 12.76 9.78 12.76Z" fill="#EDB92E"/>
<path d="M10.03 14.02C9.87 14.14 9.72 13.85 9.87 13.47C9.98 13.18 10.49 13.30 10.20 13.68C10.19 13.70 10.17 13.69 10.17 13.67C10.19 13.59 10.14 13.54 10.06 13.56C9.85 13.60 9.84 14.00 10.07 13.91C10.11 13.90 10.07 13.99 10.03 14.02Z" fill="#EDB92E"/>
<path d="M6.75 14.02C6.59 14.14 6.44 13.85 6.59 13.47C6.70 13.18 7.21 13.30 6.92 13.68C6.91 13.70 6.89 13.69 6.89 13.67C6.91 13.59 6.86 13.54 6.78 13.56C6.57 13.60 6.56 14.00 6.79 13.91C6.83 13.90 6.79 13.99 6.75 14.02Z" fill="#EDB92E"/>
<path d="M9.90 11.92C10.00 12.14 10.12 12.34 10.24 12.52C10.30 12.54 10.34 12.57 10.38 12.58C10.42 12.59 10.70 12.59 10.71 12.57C10.80 12.5 10.94 12.56 10.88 12.64C10.92 12.68 10.84 12.78 10.78 12.74C10.72 12.69 10.52 12.74 10.46 12.72C10.48 12.78 10.68 12.81 10.80 12.82C10.92 12.82 10.90 12.94 10.86 13.04L10.82 13.06C10.78 13.14 10.66 13.11 10.66 13.04C10.66 12.96 10.38 12.86 10.34 12.8C10.38 12.92 10.50 13.04 10.56 13.16C10.62 13.22 10.66 13.22 10.58 13.34L10.44 13.36C10.32 13.36 10.30 13.32 10.32 13.22C10.34 13.12 10.25 12.94 10.22 12.88C10.20 12.84 10.19 12.79 10.17 12.76C10.12 12.70 9.91 12.61 9.86 12.64C9.76 12.69 9.69 12.66 9.68 12.56C9.70 12.54 9.68 12.4 9.75 12.38C9.81 12.37 9.84 12.40 9.89 12.44C9.97 12.51 10.01 12.54 10.04 12.54C10.10 12.52 9.92 12.44 9.76 12.22C9.60 12.01 9.54 11.7 9.90 11.92Z" fill="#EDB92E"/>
<path d="M9.67 9.38C9.67 9.55 9.70 10.71 9.71 10.87C9.72 11.03 9.79 11.14 9.87 11.21C9.94 11.11 9.98 10.98 9.99 10.82C9.99 10.74 9.98 9.65 9.97 9.42L9.67 9.38Z" fill="white"/>
<path d="M10.42 9.09L10.47 10.68C10.49 10.83 10.31 11.67 10.21 11.83C9.96 11.73 9.90 11.16 9.95 10.60C10.00 10.04 9.94 9.56 9.91 9.46L10.42 9.09Z" fill="white"/>
<path d="M10.72 9.35L10.68 10.95C10.69 11.09 10.46 11.92 10.36 12.08C10.10 11.88 10.15 11.08 10.19 10.84C10.27 10.36 10.26 9.80 10.23 9.71L10.72 9.35Z" fill="white"/>
<path d="M10.94 9.73L10.52 9.72C10.55 9.89 10.53 10.43 10.45 10.84C10.38 11.23 10.29 12.23 10.69 12.47C10.94 11.94 10.75 11.43 10.88 10.97L10.94 9.73Z" fill="white"/>
<path d="M9.34 9.08L9.42 10.58C9.43 10.74 9.51 10.85 9.59 10.91C9.66 10.81 9.69 10.68 9.70 10.52C9.70 10.44 9.65 9.35 9.64 9.12L9.34 9.08Z" fill="white"/>
<path d="M10.08 8.14C10.09 8.51 10.10 9.32 10.10 9.39C10.09 9.55 10.03 9.74 9.96 9.84C9.89 9.78 9.81 9.67 9.80 9.51C9.78 9.38 9.78 8.72 9.78 8.39L10.08 8.14Z" fill="white"/>
<path d="M9.78 8.38C9.79 8.78 9.79 9.41 9.78 9.47C9.78 9.62 9.74 9.75 9.67 9.85C9.59 9.79 9.51 9.68 9.50 9.52C9.49 9.42 9.46 8.99 9.46 8.66L9.78 8.38Z" fill="white"/>
<path d="M10.04 8.11L10.32 7.70C10.38 7.90 10.45 9.35 10.37 9.47C10.36 9.63 10.31 9.76 10.24 9.86C10.16 9.79 10.04 9.68 10.08 9.52C10.11 9.36 10.07 8.28 10.04 8.11Z" fill="white"/>
<path d="M10.62 9.02L10.64 9.48C10.64 9.63 10.60 9.76 10.53 9.86C10.45 9.80 10.35 9.69 10.36 9.53C10.40 8.90 10.34 8.31 10.25 7.74L10.50 7.59L10.62 9.02Z" fill="white"/>
<path d="M10.91 9.43L10.83 9.72C10.82 9.88 10.73 10.01 10.66 10.11C10.58 10.05 10.51 9.95 10.53 9.78C10.65 8.85 10.61 8.24 10.41 7.48C10.85 7.78 11.06 8.42 10.91 9.43Z" fill="white"/>
<path d="M10.89 9.72L11.29 9.59C11.34 9.99 11.26 10.50 11.15 11.17C11.06 11.74 11.11 12.20 11.18 12.49C10.75 12.43 10.57 11.87 10.78 10.83C10.84 10.56 10.90 10.20 10.89 9.72Z" fill="white"/>
<path d="M10.73 7.85C10.83 8.34 10.89 8.91 10.82 9.54C10.79 9.77 10.74 9.96 10.67 10.11C10.96 10.07 11.15 9.79 11.12 9.29L11.06 7.91L10.73 7.85Z" fill="white"/>
<path d="M10.94 7.91C10.96 8.04 11.04 8.19 11.05 8.35C11.10 8.88 11.10 9.55 10.94 9.97C11.24 9.94 11.34 9.67 11.34 9.18C11.35 8.77 11.35 8.28 11.25 7.72L10.94 7.91Z" fill="white"/>
<path d="M9.62 8.49C9.62 8.71 9.62 8.86 9.61 8.94C9.60 9.09 9.56 9.21 9.49 9.31C9.42 9.25 9.35 9.14 9.35 8.98L9.62 8.49Z" fill="white"/>
<path d="M9.43 11.36L9.82 11.56C9.94 11.82 10.05 11.95 10.18 12.07C9.98 12.10 9.82 12.06 9.71 11.92C9.56 11.72 9.49 11.60 9.44 11.58L9.43 11.36Z" fill="white"/>
<path d="M9.51 11.51C9.61 11.71 9.68 11.84 9.70 11.91C9.76 12.05 9.77 12.19 9.75 12.30C9.65 12.28 9.54 12.21 9.47 12.07L9.51 11.51Z" fill="white"/>
<path d="M9.46 11.57C9.51 11.78 9.54 11.93 9.55 12.01C9.57 12.16 9.55 12.29 9.50 12.40C9.41 12.35 9.32 12.26 9.28 12.10C9.24 11.95 9.24 11.78 9.21 11.61L9.46 11.57Z" fill="white"/>
<path d="M8.95 11.70C9.08 11.94 9.12 12.11 9.14 12.29C9.28 12.15 9.35 12 9.30 11.82C9.23 11.59 9.16 11.32 9.17 11.27L8.95 11.70Z" fill="white"/>
<path d="M9.35 11.07C9.43 11.28 9.49 11.41 9.51 11.49C9.56 11.63 9.56 11.76 9.53 11.88C9.44 11.85 9.32 11.79 9.25 11.64C9.19 11.50 9.16 11.32 9.11 11.16L9.35 11.07Z" fill="white"/>
<path d="M9.32 10.66C9.38 10.65 9.45 10.78 9.52 10.85C9.54 10.87 9.56 10.89 9.57 10.91C9.60 10.95 9.63 11.01 9.64 11.07C9.70 11.34 9.79 11.48 9.90 11.62C9.70 11.62 9.54 11.54 9.46 11.38C9.36 11.16 9.31 11.03 9.27 10.99L9.32 10.66Z" fill="white"/>
<path d="M8.72 11.94C8.55 12.16 8.48 12.32 8.44 12.49C8.32 12.34 8.27 12.17 8.35 12.01C8.64 11.67 8.64 11.67 8.72 11.94Z" fill="white"/>
<path d="M8.67 11.79C8.50 12.00 8.33 12.17 8.29 12.34C8.16 12.18 8.11 12.02 8.19 11.85L8.67 11.79Z" fill="white"/>
<path d="M8.98 11.72C8.81 11.93 8.75 12.09 8.70 12.27C8.58 12.11 8.54 11.94 8.62 11.78L8.98 11.72Z" fill="white"/>
<path d="M6.53 12.77C6.52 12.77 6.51 12.79 6.51 12.79C6.49 12.85 6.41 12.95 6.35 13.01C6.26 13.11 6.29 13.25 6.35 13.33C6.41 13.42 6.45 13.52 6.46 13.59C6.47 13.64 6.49 13.74 6.48 13.90C6.47 13.98 6.42 14.02 6.38 14.05C6.36 14.07 6.39 14.12 6.47 14.17C6.47 14.18 6.49 14.19 6.51 14.23C6.51 14.24 6.54 14.24 6.55 14.23C6.56 14.19 6.58 14.18 6.59 14.17C6.66 14.12 6.70 14.07 6.67 14.05C6.63 14.02 6.58 13.98 6.58 13.90C6.56 13.74 6.58 13.64 6.59 13.59C6.60 13.52 6.64 13.42 6.71 13.33C6.77 13.25 6.79 13.11 6.70 13.01C6.64 12.95 6.56 12.85 6.54 12.79C6.54 12.79 6.53 12.77 6.53 12.77Z" fill="#EDB92E"/>
<path d="M6.27 14.04C6.43 14.16 6.58 13.87 6.44 13.49C6.33 13.20 5.81 13.32 6.10 13.70C6.12 13.71 6.14 13.71 6.13 13.69C6.12 13.61 6.16 13.56 6.25 13.58C6.46 13.62 6.46 14.02 6.23 13.93C6.19 13.92 6.23 14.01 6.27 14.04Z" fill="#EDB92E"/>
<path d="M9.55 14.04C9.71 14.16 9.86 13.87 9.72 13.49C9.61 13.20 9.09 13.32 9.38 13.70C9.40 13.71 9.42 13.71 9.41 13.69C9.40 13.61 9.44 13.56 9.53 13.58C9.74 13.62 9.74 14.02 9.51 13.93C9.47 13.92 9.51 14.01 9.55 14.04Z" fill="#EDB92E"/>
<path d="M6.65 13.72C6.68 13.72 6.72 13.76 6.72 13.79C6.72 13.83 6.68 13.86 6.65 13.86H6.41C6.37 13.86 6.34 13.83 6.34 13.79C6.34 13.76 6.37 13.72 6.41 13.72H6.65Z" fill="#EDB92E"/>
<path d="M6.40 11.93C6.30 12.15 6.18 12.35 6.06 12.53C6.00 12.55 5.96 12.58 5.92 12.60C5.88 12.61 5.60 12.60 5.59 12.58C5.50 12.51 5.36 12.57 5.42 12.65C5.38 12.69 5.46 12.80 5.52 12.75C5.58 12.71 5.78 12.75 5.84 12.73C5.82 12.79 5.62 12.83 5.50 12.83C5.38 12.84 5.40 12.95 5.44 13.05L5.48 13.07C5.52 13.15 5.64 13.13 5.64 13.05C5.65 12.98 5.92 12.87 5.96 12.81C5.92 12.93 5.80 13.05 5.74 13.17C5.68 13.23 5.64 13.23 5.72 13.35L5.86 13.37C5.98 13.37 6.00 13.33 5.98 13.23C5.96 13.13 6.06 12.95 6.08 12.90C6.11 12.85 6.11 12.80 6.14 12.78C6.18 12.72 6.39 12.63 6.44 12.65C6.54 12.71 6.61 12.67 6.62 12.57C6.60 12.55 6.62 12.41 6.55 12.40C6.49 12.39 6.46 12.42 6.41 12.46C6.33 12.53 6.29 12.56 6.27 12.56C6.20 12.54 6.38 12.45 6.54 12.24C6.70 12.03 6.76 11.71 6.40 11.93Z" fill="#EDB92E"/>
<path d="M5.43 12.70C5.35 12.66 5.30 12.66 5.27 12.69C5.25 12.71 5.23 12.70 5.24 12.67C5.30 12.55 5.38 12.53 5.46 12.59C5.48 12.61 5.50 12.63 5.51 12.65C5.50 12.66 5.44 12.69 5.43 12.70Z" fill="#EDB92E"/>
<path d="M6.58 12.59C6.66 12.53 6.74 12.52 6.78 12.56C6.81 12.57 6.83 12.56 6.81 12.53C6.72 12.41 6.62 12.40 6.54 12.47C6.52 12.49 6.50 12.51 6.49 12.53C6.51 12.56 6.57 12.59 6.58 12.59Z" fill="#EDB92E"/>
<path d="M5.91 13.31C5.91 13.30 5.89 13.20 5.85 13.16C5.83 13.19 5.79 13.20 5.77 13.23C5.68 13.32 5.68 13.45 5.81 13.57C5.85 13.6 5.86 13.57 5.85 13.53C5.83 13.48 5.85 13.41 5.91 13.31Z" fill="#EDB92E"/>
<path d="M5.57 13.03C5.49 13.06 5.47 13.11 5.47 13.16C5.47 13.19 5.45 13.20 5.44 13.17C5.34 12.94 5.44 12.90 5.59 12.91C5.60 12.95 5.58 13.03 5.57 13.03Z" fill="#EDB92E"/>
<path d="M6.25 12.54C6.25 12.54 6.25 12.54 6.25 12.54C6.23 12.53 6.20 12.50 6.20 12.47C6.19 12.46 6.20 12.44 6.21 12.43C6.23 12.41 6.25 12.41 6.27 12.42C6.26 12.40 6.26 12.38 6.28 12.35C6.30 12.33 6.32 12.33 6.35 12.35C6.33 12.32 6.33 12.29 6.35 12.25C6.36 12.24 6.38 12.23 6.39 12.23C6.40 12.23 6.41 12.24 6.42 12.24C6.41 12.21 6.41 12.18 6.43 12.15C6.44 12.14 6.46 12.13 6.47 12.13C6.48 12.13 6.49 12.13 6.50 12.14C6.49 12.11 6.49 12.08 6.52 12.05C6.53 12.04 6.54 12.03 6.56 12.03C6.59 12.03 6.62 12.06 6.65 12.08C6.65 12.09 6.65 12.09 6.65 12.10C6.64 12.10 6.64 12.10 6.63 12.10C6.61 12.07 6.58 12.05 6.56 12.05C6.55 12.05 6.54 12.06 6.53 12.07C6.50 12.10 6.51 12.14 6.57 12.20L6.56 12.21C6.55 12.21 6.54 12.19 6.52 12.18C6.51 12.17 6.49 12.15 6.47 12.15C6.46 12.15 6.46 12.15 6.45 12.16C6.42 12.21 6.44 12.25 6.49 12.30L6.48 12.32C6.47 12.31 6.46 12.30 6.45 12.29C6.43 12.27 6.41 12.25 6.39 12.25C6.38 12.25 6.38 12.26 6.37 12.27C6.34 12.31 6.37 12.35 6.41 12.38L6.39 12.40C6.35 12.37 6.32 12.34 6.30 12.36C6.27 12.40 6.29 12.42 6.33 12.45L6.32 12.47C6.31 12.47 6.31 12.46 6.30 12.46C6.26 12.43 6.25 12.42 6.23 12.44C6.22 12.45 6.22 12.46 6.22 12.47C6.22 12.49 6.24 12.51 6.26 12.52C6.26 12.53 6.26 12.53 6.26 12.54C6.26 12.54 6.26 12.54 6.25 12.54Z" fill="#21231E"/>
<path d="M6.63 9.39C6.64 9.57 6.60 10.73 6.60 10.89C6.59 11.05 6.51 11.16 6.44 11.23C6.37 11.13 6.33 11.00 6.32 10.84C6.31 10.76 6.33 9.67 6.33 9.44L6.63 9.39Z" fill="white"/>
<path d="M5.88 9.11L5.83 10.70C5.81 10.84 6.00 11.68 6.10 11.85C6.35 11.74 6.40 11.17 6.35 10.62C6.31 10.06 6.36 9.58 6.40 9.48L5.88 9.11Z" fill="white"/>
<path d="M5.59 9.37L5.62 10.96C5.61 11.11 5.84 11.93 5.95 12.09C6.20 11.90 6.15 11.10 6.11 10.86C6.03 10.37 6.05 9.81 6.07 9.72L5.59 9.37Z" fill="white"/>
<path d="M5.37 9.75L5.79 9.74C5.75 9.91 5.78 10.45 5.85 10.86C5.92 11.25 6.01 12.25 5.61 12.49C5.36 11.96 5.55 11.45 5.43 10.99L5.37 9.75Z" fill="white"/>
<path d="M6.97 9.10L6.88 10.59C6.87 10.76 6.79 10.87 6.72 10.93C6.65 10.83 6.61 10.69 6.60 10.54C6.60 10.46 6.65 9.37 6.66 9.14L6.97 9.10Z" fill="white"/>
<path d="M6.22 8.16C6.21 8.53 6.20 9.34 6.21 9.41C6.21 9.56 6.27 9.76 6.34 9.86C6.42 9.80 6.49 9.69 6.51 9.53C6.52 9.39 6.52 8.74 6.53 8.41L6.22 8.16Z" fill="white"/>
<path d="M6.52 8.40C6.51 8.80 6.52 9.43 6.52 9.48C6.53 9.64 6.56 9.77 6.63 9.87C6.71 9.81 6.79 9.70 6.81 9.53C6.82 9.43 6.84 9.00 6.85 8.68L6.52 8.40Z" fill="white"/>
<path d="M6.26 8.12L5.98 7.71C5.92 7.92 5.85 9.37 5.93 9.49C5.94 9.64 6.00 9.78 6.06 9.87C6.14 9.81 6.26 9.70 6.23 9.54C6.19 9.38 6.23 8.29 6.26 8.12Z" fill="white"/>
<path d="M5.68 9.04L5.66 9.49C5.67 9.65 5.70 9.78 5.77 9.88C5.85 9.82 5.95 9.71 5.94 9.55C5.90 8.92 5.97 8.33 6.05 7.76L5.80 7.60L5.68 9.04Z" fill="white"/>
<path d="M5.40 9.45L5.47 9.74C5.48 9.90 5.58 10.03 5.64 10.13C5.72 10.06 5.79 9.96 5.77 9.80C5.66 8.87 5.70 8.26 5.89 7.50C5.45 7.80 5.25 8.44 5.40 9.45Z" fill="white"/>
<path d="M5.42 9.74L5.01 9.60C4.96 10.01 5.04 10.52 5.15 11.19C5.24 11.76 5.19 12.22 5.12 12.51C5.55 12.45 5.74 11.89 5.52 10.85C5.46 10.57 5.41 10.22 5.42 9.74Z" fill="white"/>
<path d="M5.58 7.87C5.48 8.36 5.41 8.93 5.49 9.55C5.51 9.79 5.56 9.98 5.64 10.12C5.34 10.09 5.16 9.81 5.18 9.31L5.25 7.92L5.58 7.87Z" fill="white"/>
<path d="M5.36 7.93C5.34 8.06 5.27 8.21 5.25 8.37C5.20 8.90 5.20 9.56 5.36 9.99C5.07 9.96 4.97 9.69 4.96 9.20C4.95 8.79 4.95 8.30 5.05 7.74L5.36 7.93Z" fill="white"/>
<path d="M5.97 7.81L5.70 7.78C5.65 8.04 5.61 8.22 5.61 8.31C5.59 8.48 5.64 8.65 5.70 8.77C5.80 8.71 5.85 8.58 5.89 8.39L5.97 7.81Z" fill="white"/>
<path d="M6.67 8.39L6.43 8.39C6.42 8.61 6.41 8.76 6.42 8.83C6.43 8.98 6.46 9.11 6.53 9.21C6.60 9.15 6.67 9.04 6.68 8.88C6.69 8.72 6.67 8.55 6.67 8.39Z" fill="white"/>
<path d="M6.68 8.51C6.68 8.73 6.68 8.88 6.69 8.95C6.70 9.11 6.75 9.23 6.81 9.33C6.88 9.26 6.95 9.15 6.95 9.00L6.68 8.51Z" fill="white"/>
<path d="M6.87 11.38L6.48 11.58C6.37 11.83 6.26 11.97 6.12 12.08C6.32 12.12 6.49 12.08 6.59 11.94C6.74 11.74 6.82 11.62 6.87 11.60L6.87 11.38Z" fill="white"/>
<path d="M6.79 11.53C6.69 11.73 6.63 11.86 6.60 11.93C6.55 12.07 6.53 12.21 6.56 12.32C6.65 12.30 6.76 12.23 6.84 12.09L6.79 11.53Z" fill="white"/>
<path d="M6.84 11.59C6.80 11.80 6.76 11.95 6.76 12.02C6.74 12.17 6.76 12.31 6.81 12.41C6.89 12.37 6.99 12.27 7.02 12.12C7.06 11.96 7.07 11.79 7.09 11.63L6.84 11.59Z" fill="white"/>
<path d="M7.36 11.72C7.22 11.96 7.18 12.13 7.17 12.31C7.02 12.17 6.95 12.01 7.00 11.84C7.07 11.61 7.14 11.34 7.13 11.28L7.36 11.72Z" fill="white"/>
<path d="M6.96 11.09C6.87 11.29 6.81 11.43 6.79 11.50C6.75 11.65 6.74 11.78 6.77 11.90C6.86 11.87 6.98 11.80 7.05 11.66C7.12 11.51 7.14 11.34 7.20 11.18L6.96 11.09Z" fill="white"/>
<path d="M6.98 10.68C6.93 10.66 6.85 10.79 6.78 10.87C6.77 10.89 6.75 10.90 6.73 10.93C6.70 10.97 6.68 11.02 6.66 11.09C6.60 11.36 6.52 11.50 6.41 11.64C6.61 11.63 6.76 11.56 6.84 11.40C6.94 11.18 6.99 11.05 7.04 11.01L6.98 10.68Z" fill="white"/>
<path d="M7.58 11.96C7.75 12.18 7.82 12.34 7.86 12.51C7.99 12.35 8.03 12.19 7.95 12.02C7.66 11.69 7.66 11.69 7.58 11.96Z" fill="white"/>
<path d="M8.14 7.75C8.10 7.32 8.02 7.02 7.84 6.72C7.92 6.73 8.01 6.71 7.97 6.50C7.85 6.47 7.80 6.52 7.46 6.36C7.18 6.23 6.78 6.18 6.80 6.32C6.85 6.60 7.04 6.80 7.23 6.94C7.32 7.16 7.54 7.59 7.39 7.82C7.23 8.06 7.11 8.17 6.96 8.26C6.99 8.28 7.02 8.29 7.05 8.29C7.03 8.32 6.83 8.38 6.81 8.37C6.65 8.26 6.51 8.01 6.38 7.86C6.02 7.45 5.82 7.13 5.90 6.87C5.98 6.59 6.32 6.28 5.88 6.34C5.45 6.39 5.09 7.00 4.98 7.70C4.94 7.96 4.91 8.19 4.88 8.37C5.12 8.29 5.22 8.20 5.28 8.10C5.26 8.20 5.23 8.29 5.22 8.38C5.41 8.34 5.55 8.25 5.60 8.08C5.62 8.01 5.65 7.95 5.68 7.90C5.74 7.92 5.81 7.92 5.91 7.90C5.94 7.98 6.21 8.28 6.35 8.50C6.51 8.74 6.76 8.93 6.84 8.94H9.44C9.52 8.93 9.76 8.74 9.92 8.50C10.07 8.28 10.33 7.98 10.37 7.90C10.46 7.92 10.54 7.92 10.60 7.90C10.63 7.95 10.65 8.01 10.67 8.08C10.73 8.25 10.86 8.34 11.06 8.38C11.04 8.29 11.02 8.20 10.99 8.10C11.05 8.20 11.16 8.29 11.40 8.37C11.37 8.19 11.34 7.96 11.30 7.70C11.19 7.00 10.83 6.39 10.39 6.34C9.96 6.28 10.30 6.59 10.38 6.87C10.45 7.13 10.26 7.45 9.89 7.86C9.77 8.01 9.62 8.26 9.47 8.37C9.44 8.38 9.25 8.32 9.22 8.29C9.25 8.29 9.29 8.28 9.32 8.26C9.17 8.17 9.04 8.06 8.89 7.82C8.74 7.59 8.96 7.16 9.05 6.94C9.24 6.80 9.42 6.60 9.47 6.32C9.50 6.18 9.09 6.23 8.81 6.36C8.47 6.52 8.43 6.47 8.31 6.50C8.26 6.71 8.35 6.73 8.44 6.72C8.25 7.02 8.18 7.32 8.14 7.75Z" fill="white"/>
<path d="M9.66 6.35C9.99 6.39 9.98 6.60 9.67 6.91C9.60 6.97 9.59 6.97 9.58 6.91C9.55 6.8 9.43 6.74 9.37 6.82C9.33 6.87 9.34 6.91 9.20 6.89C9.02 7.04 8.88 7.14 9.11 7.13C9.20 7.13 9.29 7.19 9.42 7.18C9.39 7.26 9.38 7.27 9.36 7.27C9.22 7.29 9.09 7.22 8.96 7.24C8.67 7.3 9.42 6.47 9.41 6.44C9.39 6.36 9.59 6.21 9.66 6.35Z" fill="#EDB92E"/>
<path d="M10.89 11.68C10.89 11.68 10.88 11.68 10.88 11.67C10.89 11.37 10.90 11.17 10.97 10.87C11.04 10.57 11.07 10.29 11.08 9.93C11.08 9.92 11.09 9.92 11.09 9.92C11.10 9.92 11.10 9.92 11.10 9.93C11.09 10.29 11.06 10.57 10.99 10.87C10.92 11.17 10.91 11.37 10.90 11.67C10.90 11.68 10.90 11.68 10.89 11.68Z" fill="#21231E"/>
<path d="M6.59 6.34C6.26 6.38 6.27 6.59 6.58 6.90C6.65 6.97 6.66 6.97 6.68 6.90C6.70 6.79 6.82 6.74 6.88 6.81C6.92 6.87 6.91 6.90 7.05 6.88C7.23 7.03 7.37 7.13 7.14 7.12C7.05 7.12 6.96 7.18 6.83 7.17C6.87 7.25 6.87 7.26 6.90 7.27C7.03 7.29 7.16 7.21 7.29 7.24C7.58 7.29 6.83 6.46 6.84 6.43C6.86 6.35 6.66 6.20 6.59 6.34Z" fill="#EDB92E"/>
<path d="M8.14 12.06C7.79 12.06 7.43 11.89 7.17 11.62C6.91 11.34 6.76 10.98 6.76 10.60V8.41H9.51V10.61C9.51 10.98 9.37 11.35 9.11 11.62C8.84 11.9 8.48 12.06 8.14 12.06ZM6.81 8.46V10.60C6.81 10.96 6.96 11.32 7.21 11.58C7.46 11.85 7.81 12.01 8.14 12.01C8.47 12.01 8.82 11.85 9.07 11.58C9.32 11.32 9.47 10.96 9.47 10.60V8.46H6.81Z" fill="#21231E"/>
<path d="M9.48 9.77V10.33H8.41V11.99C8.23 12.03 8.05 12.03 7.87 11.99V10.33H6.80V9.77H7.87V8.45H8.41V9.77H9.48Z" fill="white"/>
<path d="M8.60 10.56C8.76 10.50 9.20 10.36 9.20 10.71C9.20 10.87 8.99 10.98 8.94 10.84C8.91 10.76 8.94 10.71 8.98 10.70C9.02 10.68 9.07 10.72 9.06 10.77C9.23 10.68 8.89 10.49 8.75 10.74C8.71 10.81 8.82 10.89 8.82 10.95C8.82 11.00 8.71 11.08 8.75 11.15C8.89 11.41 9.23 11.21 9.06 11.12C9.07 11.17 9.02 11.21 8.98 11.19C8.94 11.18 8.91 11.13 8.94 11.06C8.99 10.91 9.20 11.02 9.20 11.19C9.20 11.54 8.76 11.40 8.60 11.34V10.56Z" fill="white"/>
<path d="M8.60 8.76C8.76 8.7 9.20 8.56 9.20 8.91C9.20 9.07 8.99 9.18 8.94 9.04C8.91 8.96 8.94 8.91 8.98 8.90C9.02 8.88 9.07 8.92 9.06 8.97C9.23 8.88 8.89 8.69 8.75 8.94C8.71 9.01 8.82 9.09 8.82 9.15C8.82 9.20 8.71 9.28 8.75 9.35C8.89 9.61 9.23 9.41 9.06 9.32C9.07 9.37 9.02 9.41 8.98 9.39C8.94 9.38 8.91 9.33 8.94 9.26C8.99 9.11 9.20 9.22 9.20 9.39C9.20 9.74 8.76 9.60 8.60 9.54V8.76Z" fill="white"/>
<path d="M7.68 8.76C7.52 8.7 7.08 8.56 7.08 8.91C7.08 9.07 7.28 9.18 7.34 9.04C7.37 8.96 7.34 8.91 7.29 8.90C7.25 8.88 7.21 8.92 7.22 8.97C7.04 8.88 7.38 8.69 7.53 8.94C7.57 9.01 7.45 9.09 7.45 9.15C7.45 9.20 7.57 9.28 7.53 9.35C7.38 9.61 7.04 9.41 7.22 9.32C7.21 9.37 7.25 9.41 7.29 9.39C7.34 9.38 7.37 9.33 7.34 9.26C7.28 9.11 7.08 9.22 7.08 9.39C7.08 9.74 7.52 9.60 7.68 9.54V8.76Z" fill="white"/>
<path d="M7.68 10.56C7.52 10.5 7.08 10.36 7.08 10.71C7.08 10.87 7.28 10.98 7.34 10.84C7.37 10.76 7.34 10.71 7.30 10.70C7.25 10.68 7.21 10.72 7.22 10.77C7.04 10.68 7.39 10.49 7.53 10.74C7.57 10.81 7.46 10.89 7.46 10.95C7.46 11.00 7.57 11.08 7.53 11.15C7.39 11.41 7.04 11.21 7.22 11.12C7.21 11.17 7.25 11.21 7.30 11.19C7.34 11.18 7.37 11.13 7.34 11.06C7.28 10.91 7.08 11.02 7.08 11.19C7.08 11.54 7.52 11.4 7.68 11.34V10.56Z" fill="white"/>
</g>
<rect x="0.25" y="0.25" width="23.5" height="17.5" rx="1.75" stroke="#DDE0EA" stroke-width="0.5" style="fill-opacity:0"/>
<defs>
<clipPath id="clip0_1059_9">
<rect width="24" height="18" rx="2" fill="white"/>
</clipPath>
</defs>
</svg>
