<svg width="24" height="18" viewBox="0 0 24 18" fill="none" xmlns="http://www.w3.org/2000/svg">
<g clip-path="url(#clip0_1221_3915)">
<path fill-rule="evenodd" clip-rule="evenodd" d="M0 0H24V18H0V0Z" fill="white"/>
<path fill-rule="evenodd" clip-rule="evenodd" d="M0 0H24V9H0V0Z" fill="#DF0000"/>
<path fill-rule="evenodd" clip-rule="evenodd" d="M5.475 1.5075C4.76468 1.66015 4.1285 2.05254 3.67328 2.61878C3.21806 3.18503 2.97151 3.89065 2.97502 4.61718C2.97854 5.34371 3.23191 6.04691 3.6926 6.60872C4.15329 7.17053 4.79323 7.55674 5.505 7.7025C5.09725 7.82049 4.67022 7.85682 4.2484 7.80941C3.82658 7.76201 3.41826 7.63179 3.04687 7.42624C2.67549 7.22069 2.34833 6.94384 2.08417 6.61158C1.82001 6.27931 1.62404 5.89817 1.5075 5.49C1.27604 4.66953 1.37885 3.7908 1.79345 3.04592C2.20805 2.30104 2.90072 1.75062 3.72 1.515C4.32 1.3425 4.875 1.33875 5.47875 1.5075H5.475Z" fill="white"/>
<path fill-rule="evenodd" clip-rule="evenodd" d="M4.9875 4.125L5.17125 4.6875L4.68375 4.3425L4.20375 4.695L4.38 4.125L3.9 3.77625L4.49625 3.76875L4.68375 3.20625L4.87125 3.76875H5.46375L4.9875 4.125ZM5.64375 6.075L5.83125 6.64125L5.34375 6.29625L4.86 6.645L5.04 6.07875L4.56 5.72625L5.15625 5.7225L5.34 5.15625L5.5275 5.71875H6.1275L5.64375 6.075ZM7.8375 6.06L8.02125 6.63L7.53375 6.28125L7.05375 6.63L7.23 6.06375L6.75 5.715L7.34625 5.7075L7.53375 5.145L7.72125 5.7075H8.31375L7.8375 6.06ZM8.49 4.125L8.67375 4.69125L8.18625 4.34625L7.70625 4.695L7.88625 4.12875L7.4025 3.77625L8.0025 3.7725L8.1825 3.20625L8.37 3.76875H8.97L8.49 4.125ZM6.75375 2.83875L6.94125 3.40875L6.45375 3.06L5.97 3.4125L6.15 2.8425L5.67 2.49L6.2625 2.48625L6.45 1.92L6.6375 2.4825H7.2375L6.75375 2.83875Z" fill="white"/>
</g>
<rect x="0.25" y="0.25" width="23.5" height="17.5" rx="1.75" stroke="#DDE0EA" stroke-width="0.5" style="fill-opacity:0"/>
<defs>
<clipPath id="clip0_1221_3915">
<rect width="24" height="18" rx="2" fill="white"/>
</clipPath>
</defs>
</svg>
