<svg width="24" height="18" viewBox="0 0 24 18" fill="none" xmlns="http://www.w3.org/2000/svg">
<g clip-path="url(#clip0_1262_8976)">
<path d="M0 0H24V18H0V0Z" fill="#012A87"/>
<path d="M0 0H24V9H0V0Z" fill="#DC171D"/>
<path d="M0 0V18L12 9L0 0Z" fill="white"/>
<path d="M6.06099 6.79357L6.06459 6.6547C6.06459 6.65437 5.98979 6.53517 6.07659 6.40717C6.07659 6.40717 5.89219 6.30957 5.93499 6.15677C5.93499 6.15677 5.76819 6.11397 5.78059 5.93077C5.78059 5.93077 5.60059 5.91837 5.58179 5.76517C5.58179 5.76517 5.40179 5.79477 5.32259 5.64557C5.32259 5.64557 5.14699 5.67997 5.09739 5.55677C5.09739 5.55677 4.92659 5.61597 4.82539 5.47117C4.82539 5.47117 4.64499 5.54397 4.56939 5.40757C4.49499 5.54357 4.31459 5.47117 4.31459 5.47117C4.21459 5.61557 4.04259 5.55557 4.04259 5.55557C3.99459 5.67917 3.81939 5.64397 3.81939 5.64397C3.74059 5.79357 3.56059 5.76357 3.56059 5.76357C3.54299 5.91637 3.36299 5.92877 3.36299 5.92877C3.37739 6.11277 3.21059 6.15437 3.21059 6.15437C3.25459 6.30717 3.07019 6.40437 3.07019 6.40437C3.15939 6.53317 3.08499 6.65157 3.08499 6.65157L3.08099 6.77997L6.06099 6.79357Z" fill="#F9D90F"/>
<path d="M4.57676 5.9532C4.65676 6.034 4.58196 6.078 4.50836 6.0364C4.32636 5.8988 4.11356 5.8224 3.82076 5.9056C3.40036 5.9072 2.95356 5.882 2.74916 6.1048C2.73476 6.148 2.62076 6.31 3.06156 6.072C3.03396 6.2364 3.23916 6.102 3.39796 6.0272C3.28876 6.1416 3.56516 6.16 3.74036 6.048C3.65436 6.1632 3.80556 6.1604 3.94876 6.1612C4.15836 6.1676 4.04276 6.35 3.68396 6.3576C3.65796 6.3556 3.55716 6.4028 3.69276 6.438C3.75556 6.4412 3.70436 6.5288 3.92196 6.4172C3.90836 6.4824 4.00156 6.47 4.13316 6.4292C4.20796 6.488 4.26836 6.4272 4.33276 6.3964C4.60756 6.5036 4.97036 6.6112 5.06796 6.2388C5.29716 6.2124 5.48716 6.1788 5.38436 6.0916C5.68316 6.2132 5.70036 6.1664 5.69596 6.1064C5.83916 6.1604 6.00596 6.234 5.93796 6.1148C6.07556 6.15 6.22636 6.1624 6.34436 6.2328C6.46356 6.2944 6.42516 6.1868 6.39716 6.138C6.33596 6.0404 6.25876 6.0116 6.08476 6.008C5.93716 6.0048 5.24556 5.812 4.88596 6.0204C4.88596 6.0204 4.89436 6.0204 4.88796 6.0204C4.88156 6.0204 4.73836 5.8856 4.73836 5.8856C4.77116 5.8848 4.79516 5.868 4.81396 5.8436C4.95436 5.8508 5.09476 5.8372 5.23476 5.7996C5.29876 5.7796 5.33516 5.8176 5.33356 5.846C5.39196 5.7432 5.31116 5.722 5.25156 5.726C5.01436 5.7396 4.87156 5.7272 4.75676 5.7072C4.52916 5.5936 4.25556 5.768 4.50836 5.9112L4.57676 5.9532Z" fill="#BC715F"/>
<path d="M2.02234 6.42994C2.11634 6.96314 2.22074 7.50954 2.27194 8.06794C2.38354 8.89474 1.88074 9.58914 2.08714 10.4059C2.21034 10.7979 2.64114 11.0255 3.03594 11.0707C3.55914 11.1695 4.19194 11.0707 4.57394 11.4623C4.95594 11.0707 5.58874 11.1695 6.11194 11.0707C6.50634 11.0255 6.93754 10.7979 7.06074 10.4059C7.26714 9.58914 6.76394 8.89514 6.87554 8.06794C6.92674 7.50954 7.03114 6.96314 7.12514 6.42994C6.20394 6.92994 5.29394 6.27954 4.57394 6.69554C3.85434 6.27954 2.94354 6.93034 2.02234 6.42994Z" fill="#DC171D"/>
<path d="M3.98332 6.86108C4.14972 6.86428 4.29292 6.89228 4.41812 6.96428L4.57332 7.05388L4.72852 6.96428C4.97892 6.81948 5.30052 6.85388 5.73932 6.90268C6.03492 6.93548 6.38132 6.95948 6.74212 6.88628C6.67652 7.26108 6.60532 7.63228 6.56812 8.02948C6.50332 8.51428 6.61652 8.93668 6.70092 9.30908C6.78452 9.67748 6.83932 9.99148 6.76052 10.3171C6.68612 10.5423 6.37652 10.7279 6.07612 10.7623L6.06492 10.7639L6.05412 10.7659C5.83332 10.8075 5.54812 10.8091 5.24812 10.8495C5.02492 10.8795 4.79052 10.9639 4.57372 11.1007C4.35692 10.9639 4.12252 10.8795 3.89932 10.8495C3.59892 10.8091 3.31412 10.8075 3.09332 10.7659L3.08212 10.7639L3.07092 10.7623C2.77052 10.7279 2.46132 10.5423 2.38692 10.3175C2.30812 9.99188 2.36292 9.67748 2.44652 9.30908C2.53092 8.93668 2.64412 8.51388 2.57932 8.02948C2.54252 7.63228 2.47092 7.26108 2.40532 6.88628C2.76612 6.95908 3.11212 6.93548 3.40772 6.90268C3.62732 6.87828 3.81692 6.85788 3.98332 6.86108Z" fill="#62AFE1"/>
<path d="M4.136 8.09553L3.2052 8.73353V9.50153H5.9308V8.73353L5 8.09553H4.136Z" fill="white"/>
<path d="M2.9827 9.37434V9.52114H3.0723V10.2755H6.0607V9.52114H6.1503V9.37434H2.9827Z" fill="white"/>
<path d="M4.56746 7.26373L4.13586 7.68413L4.136 8.09553H5L4.99946 7.68413L4.56746 7.26373Z" fill="white"/>
<path d="M3.33917 8.83722H3.61237V9.26962H3.33917V8.83722Z" fill="white"/>
<path d="M4.11542 8.83727H4.38862V9.26967H4.11542V8.83727Z" fill="white"/>
<path d="M5.79542 8.83727H5.52222V9.26967H5.79542V8.83727Z" fill="white"/>
<path d="M5.01978 8.83727H4.74658V9.26967H5.01978V8.83727Z" fill="white"/>
<path d="M3.33899 9.5902H3.61219V10.0226H3.33899V9.5902Z" fill="white"/>
<path d="M5.79542 9.5902H5.52222V10.0226H5.79542V9.5902Z" fill="white"/>
<path d="M4.78103 9.56481H4.35303V10.2752H4.78103V9.56481Z" fill="white"/>
<path d="M4.10411 9.37434H3.91211V10.2755H4.10411V9.37434Z" fill="white"/>
<path d="M5.03003 9.37434H5.22203V10.2755H5.03003V9.37434Z" fill="white"/>
<path d="M5.29374 9.4051V9.1827H3.84094V9.4051H5.29374Z" fill="white"/>
<path d="M2.91479 10.1816H6.2196V10.4152H2.91479V10.1816Z" fill="white"/>
<path d="M4.57949 11.8421C5.03709 11.8437 5.60029 11.7501 5.86389 11.6137L6.44309 11.5625L6.45469 12.2693C5.96389 12.5397 4.83109 12.5981 4.58189 12.5961C4.33229 12.5981 3.18549 12.5389 2.69269 12.2673L2.69909 11.5601L3.27949 11.6125C3.54309 11.7481 4.12349 11.8425 4.58069 11.8425L4.57949 11.8421Z" fill="#F9D90F"/>
<path d="M1.20138 8.82766L1.71178 8.99006L1.55738 9.81606L1.07418 9.89126C1.07418 9.89126 0.992577 9.45726 1.20138 8.82766Z" fill="#F9D90F"/>
<path d="M7.94589 8.82968L7.43549 8.99208L7.58989 9.81808L8.07309 9.89328C8.07309 9.89328 8.15469 9.45928 7.94589 8.82968Z" fill="#F9D90F"/>
<path d="M8.25096 9.42492L7.75941 9.46051C7.74821 9.87731 7.69736 11.4677 5.79816 11.5541L5.85748 12.1321C8.16948 12.1561 8.34496 10.1817 8.25096 9.42492Z" fill="#F9D90F"/>
<path d="M0.896174 9.42288L1.38822 9.45847C1.39942 9.87527 1.44977 11.4657 3.34897 11.5521L3.28989 12.1305C0.977888 12.1545 0.802174 10.1797 0.896174 9.42288Z" fill="#F9D90F"/>
</g>
<rect x="0.25" y="0.25" width="23.5" height="17.5" rx="1.75" stroke="#DDE0EA" stroke-width="0.5" style="fill-opacity:0"/>
<defs>
<clipPath id="clip0_1262_8976">
<rect width="24" height="18" rx="2" fill="white"/>
</clipPath>
</defs>
</svg>
