<svg width="24" height="18" viewBox="0 0 24 18" fill="none" xmlns="http://www.w3.org/2000/svg">
<g clip-path="url(#clip0_1220_3998)">
<g clip-path="url(#clip1_1220_3998)">
<path d="M0 0H24V18H0V0Z" fill="#EE1C25"/>
<path d="M0 0H24V12H0V0Z" fill="#0B4EA2"/>
<path d="M0 0H24V6H0V0Z" fill="white"/>
<path d="M8.73744 13.905C7.12494 13.1288 4.81494 11.5838 4.81494 8.535C4.81494 5.4825 4.96494 4.095 4.96494 4.095H12.5137C12.5137 4.095 12.6599 5.4825 12.6599 8.535C12.6599 11.5875 10.3499 13.125 8.73744 13.905Z" fill="white"/>
<path d="M8.73745 13.5C7.2562 12.7875 5.13745 11.37 5.13745 8.5725C5.13745 5.775 5.27245 4.5 5.27245 4.5H12.2025C12.2025 4.5 12.3337 5.775 12.3337 8.5725C12.3375 11.3738 10.2187 12.7875 8.73745 13.5Z" fill="#EE1C25"/>
<path d="M9.05245 7.8375C9.4537 7.845 10.2375 7.86 10.9312 7.6275C10.9312 7.6275 10.9162 7.87875 10.9162 8.1675C10.9162 8.45625 10.935 8.7075 10.935 8.7075C10.2975 8.49375 9.5062 8.49 9.05245 8.49375V10.0387H8.42245V8.49375C7.97245 8.49 7.1812 8.49375 6.5437 8.7075C6.5437 8.7075 6.56245 8.45625 6.56245 8.1675C6.56245 7.875 6.5437 7.6275 6.5437 7.6275C7.23745 7.86 8.0212 7.845 8.4187 7.8375V6.86625C8.05495 6.86625 7.52995 6.88125 6.9337 7.08C6.9337 7.08 6.95245 6.8325 6.95245 6.54C6.95245 6.25125 6.9337 6 6.9337 6C7.52995 6.19875 8.05495 6.2175 8.4187 6.21375C8.39995 5.59875 8.21995 4.82625 8.21995 4.82625C8.21995 4.82625 8.5912 4.8525 8.73745 4.8525C8.88745 4.8525 9.25495 4.82625 9.25495 4.82625C9.25495 4.82625 9.07495 5.59875 9.0562 6.21375C9.41995 6.2175 9.94495 6.19875 10.5412 6C10.5412 6 10.5225 6.25125 10.5225 6.54C10.5225 6.8325 10.5412 7.08 10.5412 7.08C10.0606 6.92503 9.55722 6.85276 9.05245 6.86625V7.84125V7.8375Z" fill="white"/>
<path d="M8.73751 9.87375C7.99126 9.87375 7.59376 10.905 7.59376 10.905C7.59376 10.905 7.36876 10.4175 6.76126 10.4175C6.34876 10.4175 6.04876 10.7812 5.85376 11.1225C6.60376 12.3112 7.79995 13.0462 8.73745 13.5C9.67495 13.05 10.875 12.3112 11.6213 11.1225C11.4263 10.785 11.1263 10.4175 10.7138 10.4175C10.1063 10.4175 9.88126 10.905 9.88126 10.905C9.88126 10.905 9.48751 9.87375 8.73751 9.87375Z" fill="#0B4EA2"/>
</g>
</g>
<rect x="0.25" y="0.25" width="23.5" height="17.5" rx="1.75" stroke="#DDE0EA" stroke-width="0.5" style="fill-opacity:0"/>
<defs>
<clipPath id="clip0_1220_3998">
<rect width="24" height="18" rx="2" fill="white"/>
</clipPath>
<clipPath id="clip1_1220_3998">
<rect width="24" height="18" fill="white"/>
</clipPath>
</defs>
</svg>
