<svg width="24" height="18" viewBox="0 0 24 18" fill="none" xmlns="http://www.w3.org/2000/svg">
<g clip-path="url(#clip0_1262_8978)">
<path d="M0 0H24V18H0V0Z" fill="#006D21"/>
<path d="M0 6H24V18H0V6Z" fill="white"/>
<path d="M0 12H24V18H0V12Z" fill="#DF0000"/>
<path fill-rule="evenodd" clip-rule="evenodd" d="M5.09 1.43C5.06 1.84 5.02 2.58 5.38 2.65C5.81 2.69 5.57 1.93 5.72 1.79C5.75 1.72 5.81 1.72 5.81 1.81V2.46C5.81 2.67 5.95 2.73 6.06 2.77C6.17 2.77 6.24 2.77 6.29 2.88C6.31 3.25 6.32 3.63 6.34 4.00C6.34 4.00 6.60 4.08 6.61 3.37C6.63 2.96 6.53 2.61 6.59 2.53C6.59 2.45 6.69 2.44 6.76 2.48C6.87 2.56 6.92 2.66 7.10 2.62C7.36 2.55 7.52 2.42 7.53 2.21C7.51 2.02 7.49 1.83 7.40 1.63C7.42 1.60 7.35 1.51 7.36 1.47C7.41 1.55 7.48 1.54 7.50 1.47C7.46 1.32 7.39 1.18 7.27 1.12C7.18 1.04 7.04 1.05 6.99 1.23C6.97 1.42 7.06 1.66 7.21 1.85C7.24 1.93 7.28 2.05 7.26 2.17C7.19 2.21 7.11 2.19 7.04 2.12C7.04 2.12 6.83 1.96 6.83 1.93C6.89 1.57 6.85 1.53 6.81 1.43C6.79 1.29 6.73 1.25 6.67 1.16C6.62 1.10 6.55 1.10 6.52 1.16C6.42 1.32 6.47 1.66 6.53 1.82C6.58 1.96 6.66 2.05 6.62 2.05C6.59 2.13 6.53 2.11 6.49 2.02C6.43 1.83 6.41 1.54 6.41 1.41C6.40 1.25 6.38 0.91 6.27 0.82C6.21 0.73 6.11 0.78 6.08 0.86C6.07 1.02 6.07 1.18 6.09 1.32C6.16 1.58 6.18 1.81 6.22 2.07C6.23 2.42 6.01 2.22 6.02 2.05C6.07 1.82 6.06 1.46 6.02 1.37C5.98 1.28 5.94 1.26 5.86 1.27C5.79 1.27 5.62 1.46 5.57 1.77C5.57 1.77 5.53 1.93 5.51 2.08C5.48 2.24 5.38 2.35 5.30 2.05C5.24 1.84 5.20 1.30 5.09 1.43Z" fill="white"/>
<path fill-rule="evenodd" clip-rule="evenodd" d="M6.26 3.14C5.88 3.32 5.51 3.50 5.14 3.68C5.15 3.42 5.67 2.97 6.02 2.96C6.25 2.97 6.20 3.05 6.26 3.14Z" fill="white"/>
<path fill-rule="evenodd" clip-rule="evenodd" d="M6.06 3.49C5.47 5.01 7.44 5.22 7.66 3.55C7.68 3.48 7.76 3.41 7.78 3.53C7.73 5.03 6.26 5.14 6.00 4.66C5.94 4.55 5.92 4.30 5.92 4.15C5.88 3.86 5.73 3.97 5.70 4.27C5.68 4.43 5.68 4.47 5.68 4.63C5.76 5.82 7.66 5.31 7.97 4.33C8.13 3.78 7.94 3.38 8.03 3.38C8.22 3.59 8.48 3.41 8.54 3.34C8.57 3.30 8.63 3.28 8.67 3.33C8.82 3.43 9.08 3.38 9.13 3.20C9.16 3.01 9.19 2.83 9.19 2.63C9.07 2.67 8.98 2.69 8.98 2.74C8.97 2.80 8.96 2.85 8.95 2.90C8.94 2.96 8.84 2.96 8.83 2.89C8.79 2.68 8.60 2.66 8.49 2.98C8.41 3.04 8.27 3.05 8.25 2.96C8.27 2.75 8.19 2.72 8.01 2.82C7.96 2.39 7.90 1.98 7.84 1.56C7.92 1.55 7.98 1.61 8.05 1.52C7.98 1.30 7.82 0.84 7.74 0.80C7.70 0.75 7.66 0.78 7.61 0.80C7.52 0.83 7.43 0.90 7.46 1.06C7.57 1.71 7.64 2.21 7.75 2.87C7.76 2.94 7.70 3.05 7.62 3.03C7.47 2.94 7.44 2.75 7.20 2.75C7.02 2.76 6.83 2.95 6.80 3.13C6.77 3.27 6.76 3.43 6.80 3.56C6.92 3.70 7.07 3.69 7.20 3.66C7.30 3.61 7.39 3.51 7.43 3.53C7.45 3.56 7.44 3.91 6.93 4.18C6.63 4.32 6.38 4.35 6.25 4.10C6.17 3.94 6.26 3.35 6.06 3.49Z" fill="white"/>
<path fill-rule="evenodd" clip-rule="evenodd" d="M8.56 1.95C8.68 1.90 9.23 1.26 9.23 1.26C9.21 1.24 9.18 1.22 9.15 1.19C9.12 1.17 9.12 1.14 9.15 1.11C9.29 1.03 9.24 0.86 9.17 0.78C9.05 0.72 8.95 0.74 8.87 0.78C8.77 0.87 8.75 1.02 8.83 1.11C8.90 1.15 8.98 1.22 8.93 1.27C8.70 1.51 8.07 1.93 8.14 1.95C8.16 1.97 8.54 1.97 8.56 1.95Z" fill="white"/>
<path fill-rule="evenodd" clip-rule="evenodd" d="M5.18 4.21C4.97 4.55 4.95 5.05 5.07 5.19C5.13 5.27 5.23 5.30 5.30 5.27C5.43 5.22 5.49 4.95 5.46 4.85C5.42 4.78 5.38 4.77 5.34 4.83C5.25 5.02 5.21 4.89 5.20 4.78C5.19 4.58 5.20 4.40 5.23 4.26C5.25 4.11 5.23 4.15 5.18 4.21Z" fill="white"/>
<path fill-rule="evenodd" clip-rule="evenodd" d="M14.15 3.68C13.94 3.24 13.66 2.81 13.57 2.64C13.48 2.48 12.81 1.50 12.71 1.39C12.49 1.13 13.06 1.50 12.64 0.98C12.47 0.84 12.46 0.83 12.33 0.72C12.26 0.67 12.09 0.58 12.06 0.73C12.05 0.86 12.05 0.93 12.08 1.03C12.09 1.11 12.20 1.23 12.25 1.30C12.93 2.22 13.54 3.15 14.13 4.31C14.22 4.27 14.20 3.75 14.15 3.68Z" fill="white"/>
<path fill-rule="evenodd" clip-rule="evenodd" d="M13.25 5.14C13.21 5.18 13.35 5.37 13.53 5.37C13.83 5.34 14.10 5.17 14.34 4.73C14.41 4.62 14.52 4.40 14.53 4.23C14.55 3.22 14.48 2.43 14.33 1.71C14.32 1.63 14.32 1.55 14.33 1.53C14.35 1.51 14.42 1.53 14.46 1.47C14.51 1.42 14.32 0.99 14.21 0.82C14.17 0.74 14.16 0.69 14.10 0.83C14.03 0.93 13.99 1.12 13.99 1.30C14.13 2.29 14.18 3.16 14.27 4.16C14.28 4.25 14.27 4.39 14.20 4.45C13.97 4.69 13.63 5.00 13.25 5.14Z" fill="white"/>
<path fill-rule="evenodd" clip-rule="evenodd" d="M17.32 5.13C17.10 5.26 17.10 5.40 17.28 5.41C17.58 5.37 17.93 5.35 18.18 4.98C18.24 4.87 18.32 4.59 18.32 4.42C18.35 3.41 18.31 2.66 18.16 1.93C18.15 1.86 18.12 1.69 18.13 1.67C18.15 1.62 18.25 1.68 18.28 1.62C18.33 1.57 18.03 1.18 17.92 1.01C17.88 0.93 17.87 0.88 17.81 1.02C17.74 1.13 17.72 1.32 17.75 1.49C17.90 2.57 18.02 3.38 18.05 4.34C18.03 4.43 18.03 4.48 17.99 4.59C17.89 4.71 17.79 4.86 17.69 4.94C17.59 5.01 17.39 5.08 17.32 5.13Z" fill="white"/>
<path fill-rule="evenodd" clip-rule="evenodd" d="M17.48 4.17C17.48 3.91 17.48 3.70 17.47 3.51C17.47 3.32 17.43 3.17 17.37 3.03C17.31 2.89 17.34 2.77 17.32 2.62C17.29 2.47 17.29 2.24 17.25 2.06C17.24 1.99 17.20 1.76 17.21 1.74C17.23 1.69 17.30 1.74 17.33 1.68C17.38 1.63 17.16 1.06 17.05 0.89C17.01 0.82 16.93 0.84 16.84 0.96C16.76 1.04 16.79 1.22 16.82 1.39C17.04 2.52 17.20 3.54 17.16 4.61C17.15 4.70 17.48 4.34 17.48 4.17Z" fill="white"/>
<path fill-rule="evenodd" clip-rule="evenodd" d="M15.88 2.77C15.75 2.77 15.46 2.50 15.38 2.35C15.35 2.26 15.37 2.18 15.40 2.13C15.45 2.09 15.53 2.06 15.58 2.09C15.58 2.09 15.64 2.18 15.63 2.19C15.71 2.22 15.74 2.20 15.74 2.17C15.75 2.12 15.72 2.09 15.72 2.03C15.75 1.87 15.93 1.85 16.00 1.95C16.05 2.01 16.07 2.14 16.08 2.23C16.08 2.27 16.00 2.22 15.96 2.23C15.92 2.24 15.91 2.29 15.91 2.33C15.90 2.45 15.89 2.63 15.88 2.77Z" fill="white"/>
<path fill-rule="evenodd" clip-rule="evenodd" d="M13.38 4.45C13.42 4.10 13.37 3.49 13.36 3.29C13.35 2.81 13.27 1.89 13.23 1.74C13.19 1.44 13.35 1.77 13.33 1.60C13.28 1.31 13.12 1.11 12.93 0.85C12.87 0.76 12.87 0.74 12.77 0.87C12.67 1.10 12.76 1.27 12.79 1.45C12.92 2.05 13.00 2.60 13.04 3.15C13.08 3.69 13.09 4.28 13.06 4.86C13.16 4.86 13.32 4.69 13.38 4.45Z" fill="white"/>
<path fill-rule="evenodd" clip-rule="evenodd" d="M17.94 3.90C17.70 3.49 17.34 3.06 17.24 2.90C17.15 2.74 16.33 1.68 16.23 1.58C15.93 1.26 16.36 1.53 16.17 1.28C16.01 1.10 15.96 1.05 15.82 0.94C15.75 0.89 15.70 0.81 15.68 0.95C15.67 1.08 15.66 1.24 15.67 1.35C15.67 1.41 15.73 1.52 15.79 1.59C16.51 2.48 17.30 3.39 17.94 4.53C18.03 4.48 18.00 3.97 17.94 3.90Z" fill="white"/>
<path fill-rule="evenodd" clip-rule="evenodd" d="M7.08 3.16C7.06 3.19 7.03 3.22 7.04 3.27C7.07 3.30 7.09 3.31 7.13 3.31C7.17 3.31 7.22 3.32 7.24 3.30C7.26 3.27 7.27 3.23 7.26 3.18C7.22 3.08 7.10 3.12 7.08 3.16Z" fill="#006421"/>
<path fill-rule="evenodd" clip-rule="evenodd" d="M9.38 1.08C9.17 1.71 9.51 2.39 9.75 2.32C9.92 2.39 10.03 2.07 10.10 1.71C10.15 1.61 10.18 1.60 10.21 1.65C10.20 2.12 10.24 2.23 10.36 2.37C10.64 2.58 10.86 2.40 10.88 2.38C10.90 2.37 11.09 2.17 11.09 2.17C11.14 2.12 11.20 2.12 11.27 2.16C11.33 2.22 11.32 2.32 11.46 2.39C11.58 2.44 11.83 2.40 11.89 2.30C11.96 2.17 11.98 2.12 12.02 2.07C12.07 2.00 12.17 2.03 12.17 2.06C12.16 2.10 12.11 2.14 12.14 2.21C12.21 2.26 12.22 2.23 12.26 2.22C12.40 2.15 12.51 1.85 12.51 1.85C12.51 1.74 12.45 1.75 12.41 1.77C12.36 1.81 12.35 1.82 12.30 1.85C12.23 1.86 12.10 1.90 12.04 1.80C11.97 1.68 11.97 1.51 11.92 1.39C11.92 1.38 11.83 1.20 11.91 1.19C11.95 1.20 12.04 1.22 12.06 1.14C12.10 1.07 11.96 0.87 11.87 0.76C11.79 0.68 11.68 0.67 11.57 0.76C11.49 0.83 11.50 0.90 11.49 0.98C11.47 1.06 11.47 1.17 11.56 1.28C11.64 1.43 11.77 1.62 11.73 1.89C11.73 1.89 11.65 2.02 11.51 2.00C11.45 1.99 11.35 1.96 11.30 1.59C11.27 1.30 11.31 0.91 11.19 0.72C11.15 0.61 11.12 0.50 11.01 0.69C10.98 0.77 10.86 0.88 10.95 1.12C11.02 1.27 11.05 1.51 11.02 1.78C10.97 1.86 10.96 1.88 10.89 1.96C10.80 2.06 10.70 2.03 10.62 2.00C10.55 1.95 10.50 1.92 10.46 1.77C10.47 1.52 10.48 1.12 10.44 1.04C10.37 0.91 10.26 0.96 10.22 1.00C9.99 1.20 9.88 1.54 9.82 1.82C9.75 2.02 9.69 1.96 9.64 1.88C9.53 1.77 9.52 0.95 9.38 1.08Z" fill="white"/>
<path fill-rule="evenodd" clip-rule="evenodd" d="M10.04 2.44C10.14 2.37 10.09 2.32 10.24 2.47C10.43 2.78 10.55 3.19 10.56 3.56C10.56 3.65 10.62 3.70 10.65 3.68C10.67 3.47 11.18 3.18 11.65 3.14C11.72 3.12 11.68 2.98 11.69 2.91C11.67 2.65 11.84 2.42 12.09 2.40C12.42 2.45 12.53 2.62 12.53 2.90C12.50 3.42 11.96 3.50 11.65 3.55C11.60 3.56 11.58 3.59 11.65 3.61L12.93 3.62L12.99 3.65C13.00 3.68 12.97 3.66 12.92 3.74C12.87 3.83 12.80 4.02 12.80 4.14C12.42 4.27 12.02 4.32 11.62 4.37C11.48 4.44 11.41 4.53 11.44 4.64C11.49 4.75 11.80 4.87 11.80 4.88C11.86 4.91 11.92 5.00 11.78 5.17C11.16 5.15 10.68 4.88 10.51 4.51C10.46 4.47 10.40 4.51 10.37 4.56C10.13 4.87 9.89 5.15 9.47 5.30C9.23 5.36 8.97 5.27 8.85 5.10C8.77 5.01 8.78 4.91 8.75 4.89C8.61 4.95 7.46 5.43 7.61 5.21C7.89 4.91 8.37 4.69 8.80 4.39C8.83 4.29 8.89 3.96 9.06 3.85C9.07 3.85 9.03 4.05 9.03 4.13C9.04 4.20 9.03 4.22 9.04 4.21C9.07 4.19 9.59 3.78 9.63 3.65C9.68 3.58 9.65 3.40 9.65 3.40C9.55 3.14 9.41 3.12 9.36 3.00C9.32 2.83 9.34 2.64 9.43 2.59C9.52 2.52 9.62 2.52 9.71 2.61C9.81 2.70 9.91 2.89 9.93 3.02C9.92 3.08 9.80 2.99 9.75 3.01C9.83 3.09 9.86 3.18 9.89 3.28C9.96 3.57 9.94 3.68 9.87 3.87C9.64 4.35 9.34 4.49 9.08 4.67C9.08 4.68 9.07 4.80 9.17 4.86C9.20 4.90 9.34 4.92 9.50 4.86C9.80 4.70 10.12 4.39 10.28 4.05C10.32 3.79 10.26 3.52 10.19 3.28C10.09 3.04 9.97 2.71 9.97 2.71C9.97 2.56 9.98 2.51 10.04 2.44L10.04 2.44Z" fill="white"/>
<path fill-rule="evenodd" clip-rule="evenodd" d="M6.70 1.09C6.85 1.16 7.12 1.13 7.11 0.89C7.11 0.87 7.11 0.80 7.10 0.78C7.07 0.71 6.99 0.73 6.97 0.80C6.97 0.83 6.98 0.86 6.96 0.88C6.95 0.89 6.90 0.88 6.90 0.82C6.90 0.79 6.89 0.77 6.88 0.76C6.87 0.75 6.86 0.75 6.85 0.75C6.83 0.75 6.83 0.76 6.82 0.77C6.81 0.79 6.80 0.81 6.80 0.83C6.80 0.85 6.79 0.86 6.78 0.86C6.76 0.86 6.76 0.87 6.75 0.86C6.74 0.85 6.72 0.84 6.72 0.83C6.72 0.81 6.72 0.78 6.72 0.77C6.71 0.76 6.69 0.75 6.68 0.75C6.60 0.75 6.59 0.84 6.60 0.87C6.59 0.88 6.59 1.04 6.70 1.09Z" fill="white"/>
<path fill-rule="evenodd" clip-rule="evenodd" d="M11.01 2.91C11.15 2.98 11.50 2.94 11.42 2.72C11.42 2.70 11.41 2.62 11.41 2.61C11.38 2.54 11.30 2.55 11.28 2.62C11.27 2.65 11.29 2.69 11.27 2.70C11.26 2.71 11.21 2.70 11.21 2.64C11.21 2.62 11.2 2.60 11.19 2.58C11.18 2.58 11.17 2.57 11.15 2.57C11.13 2.58 11.13 2.58 11.12 2.60C11.12 2.61 11.11 2.63 11.11 2.65C11.11 2.68 11.10 2.68 11.08 2.69C11.06 2.69 11.07 2.69 11.05 2.68C11.04 2.67 11.03 2.67 11.03 2.65C11.03 2.63 11.03 2.60 11.02 2.59C11.01 2.58 11.00 2.57 10.99 2.57C10.91 2.57 10.90 2.66 10.90 2.70C10.90 2.70 10.90 2.87 11.01 2.91Z" fill="white"/>
<path fill-rule="evenodd" clip-rule="evenodd" d="M13.52 2.16C13.66 2.23 13.94 2.20 13.93 1.96C13.93 1.94 13.92 1.87 13.92 1.85C13.89 1.78 13.81 1.80 13.79 1.87C13.78 1.89 13.80 1.93 13.78 1.94C13.77 1.96 13.72 1.95 13.72 1.88C13.72 1.86 13.71 1.84 13.70 1.83C13.69 1.82 13.68 1.82 13.67 1.82C13.64 1.82 13.65 1.83 13.63 1.84C13.63 1.86 13.62 1.88 13.62 1.90C13.62 1.92 13.61 1.93 13.59 1.93C13.57 1.93 13.58 1.93 13.56 1.92C13.55 1.91 13.54 1.91 13.54 1.89C13.54 1.88 13.54 1.85 13.53 1.84C13.53 1.82 13.51 1.82 13.50 1.82C13.42 1.82 13.41 1.91 13.42 1.94C13.41 1.95 13.41 2.11 13.52 2.16Z" fill="white"/>
<path fill-rule="evenodd" clip-rule="evenodd" d="M14.82 4.05C14.56 4.34 14.67 4.82 14.73 4.92C14.82 5.09 14.89 5.20 15.05 5.28C15.20 5.39 15.32 5.32 15.38 5.25C15.53 5.09 15.53 4.69 15.60 4.61C15.65 4.47 15.78 4.49 15.84 4.56C15.90 4.64 15.97 4.70 16.05 4.74C16.19 4.87 16.36 4.89 16.53 4.78C16.64 4.71 16.71 4.63 16.78 4.47C16.85 4.27 16.81 3.36 16.80 2.83C16.79 2.78 16.65 2.09 16.65 2.08C16.65 2.07 16.63 1.72 16.62 1.64C16.61 1.61 16.60 1.60 16.64 1.60C16.68 1.63 16.68 1.63 16.71 1.65C16.74 1.65 16.78 1.59 16.75 1.53C16.64 1.31 16.52 1.10 16.40 0.88C16.38 0.85 16.34 0.82 16.30 0.89C16.25 0.93 16.21 0.99 16.21 1.08C16.22 1.24 16.25 1.39 16.26 1.54C16.30 1.81 16.35 2.07 16.40 2.33C16.44 2.89 16.45 3.35 16.50 3.91C16.49 4.15 16.42 4.36 16.35 4.39C16.35 4.39 16.24 4.45 16.17 4.38C16.12 4.36 15.91 4.04 15.91 4.04C15.81 3.94 15.74 3.97 15.66 4.04C15.46 4.24 15.36 4.61 15.22 4.87C15.19 4.92 15.09 4.97 14.97 4.86C14.69 4.47 14.85 3.91 14.82 4.05Z" fill="white"/>
<path fill-rule="evenodd" clip-rule="evenodd" d="M13.58 0.78C13.71 0.84 13.81 1.10 13.78 1.23C13.75 1.40 13.68 1.57 13.63 1.55C13.58 1.53 13.67 1.39 13.62 1.24C13.59 1.14 13.41 0.97 13.43 0.92C13.39 0.81 13.50 0.76 13.58 0.78Z" fill="white"/>
<path fill-rule="evenodd" clip-rule="evenodd" d="M15.24 4.21C15.27 3.89 15.22 3.70 15.21 3.51C15.21 3.32 15.00 1.88 14.96 1.74C14.91 1.47 15.16 1.71 15.13 1.55C15.05 1.35 14.83 1.06 14.76 0.89C14.72 0.82 14.74 0.75 14.65 0.87C14.57 1.15 14.54 1.37 14.57 1.54C14.78 2.67 15.01 3.61 14.97 4.68C15.07 4.68 15.19 4.44 15.24 4.21Z" fill="white"/>
<path fill-rule="evenodd" clip-rule="evenodd" d="M17.49 1.24C17.61 1.30 17.68 1.63 17.67 1.73C17.64 1.90 17.58 2.09 17.53 2.06C17.48 2.04 17.54 1.81 17.52 1.73C17.49 1.63 17.33 1.44 17.35 1.38C17.31 1.27 17.42 1.22 17.49 1.24Z" fill="white"/>
<path fill-rule="evenodd" clip-rule="evenodd" d="M8.57 3.61C8.69 3.65 8.75 3.89 8.74 3.97C8.72 4.09 8.66 4.23 8.61 4.21C8.57 4.20 8.62 4.02 8.60 3.97C8.59 3.84 8.43 3.77 8.44 3.71C8.41 3.61 8.50 3.59 8.57 3.61Z" fill="white"/>
<path fill-rule="evenodd" clip-rule="evenodd" d="M11.35 3.97C11.49 3.98 11.57 4.10 11.43 4.15C11.29 4.20 11.16 4.23 11.16 4.43C11.21 4.71 11.09 4.61 11.02 4.57C10.93 4.51 10.70 4.37 10.66 4.05C10.66 3.98 10.72 3.91 10.81 3.91C10.95 3.95 11.16 3.96 11.35 3.97Z" fill="#006421"/>
<path fill-rule="evenodd" clip-rule="evenodd" d="M5.50 0.70C5.67 0.75 5.68 1.00 5.67 1.08C5.65 1.21 5.59 1.35 5.55 1.33C5.50 1.32 5.54 1.14 5.52 1.08C5.50 1.00 5.35 0.86 5.37 0.82C5.34 0.73 5.44 0.69 5.50 0.70Z" fill="white"/>
<path fill-rule="evenodd" clip-rule="evenodd" d="M8.85 1.88C8.72 1.95 8.67 2.16 8.75 2.28C8.83 2.39 8.94 2.35 8.96 2.35C9.09 2.36 9.16 2.11 9.16 2.11C9.16 2.11 9.17 2.04 9.02 2.17C8.95 2.18 8.94 2.16 8.93 2.12C8.92 2.06 8.92 1.99 8.95 1.92C8.97 1.86 8.92 1.83 8.85 1.88Z" fill="white"/>
<path fill-rule="evenodd" clip-rule="evenodd" d="M9.82 0.61C9.76 0.65 9.63 0.79 9.62 0.94C9.62 1.03 9.60 1.03 9.66 1.08C9.70 1.14 9.74 1.14 9.83 1.09C9.88 1.06 9.89 1.04 9.91 0.98C9.93 0.88 9.80 1.02 9.79 0.91C9.76 0.81 9.84 0.77 9.92 0.67C9.92 0.60 9.92 0.55 9.82 0.61Z" fill="white"/>
<path fill-rule="evenodd" clip-rule="evenodd" d="M10.61 0.75C10.58 0.81 10.55 1.13 10.55 1.13C10.53 1.23 10.65 1.27 10.71 1.15C10.79 0.92 10.79 0.82 10.80 0.73C10.77 0.58 10.67 0.58 10.61 0.75Z" fill="white"/>
<path fill-rule="evenodd" clip-rule="evenodd" d="M15.56 3.27C15.58 3.25 16.26 2.76 16.26 2.76C16.33 2.74 16.31 3.01 16.28 3.01C16.29 3.07 15.61 3.53 15.56 3.51C15.52 3.54 15.49 3.33 15.56 3.27Z" fill="white"/>
<path fill-rule="evenodd" clip-rule="evenodd" d="M16.18 3.26C16.30 3.32 16.35 3.67 16.33 3.77C16.34 3.95 16.22 4.10 16.17 4.08C16.12 4.06 16.18 3.85 16.15 3.77C16.13 3.67 16.02 3.48 16.04 3.42C16.01 3.30 16.11 3.24 16.18 3.26Z" fill="white"/>
<path fill-rule="evenodd" clip-rule="evenodd" d="M12.13 4.77C12.18 4.70 12.32 4.60 12.33 4.60C12.40 4.57 12.46 4.63 12.46 4.63C12.47 4.69 12.41 4.76 12.43 4.85C12.45 4.88 12.46 4.92 12.52 4.91C12.63 4.82 12.73 4.82 12.84 4.81C12.92 4.82 12.93 4.96 12.87 4.96C12.67 5.00 12.58 5.06 12.44 5.11C12.37 5.15 12.32 5.10 12.32 5.09C12.32 5.09 12.28 5.06 12.30 4.97C12.31 4.89 12.28 4.85 12.22 4.86C12.18 4.89 12.14 4.90 12.11 4.85C12.10 4.81 12.10 4.79 12.13 4.77Z" fill="white"/>
<path fill-rule="evenodd" clip-rule="evenodd" d="M16.90 4.96C16.92 5.00 16.94 5.03 16.89 5.09C16.85 5.14 16.81 5.16 16.76 5.21C16.74 5.24 16.73 5.30 16.80 5.32C16.92 5.36 17.22 5.17 17.22 5.16C17.27 5.13 17.25 5.06 17.25 5.06C17.22 5.03 17.15 5.05 17.11 5.04C17.09 5.04 17.03 5.03 17.06 4.97C17.08 4.94 17.09 4.91 17.11 4.87C17.13 4.83 17.11 4.80 17.04 4.77C16.97 4.76 16.94 4.77 16.86 4.77C16.82 4.78 16.80 4.80 16.79 4.85C16.80 4.93 16.85 4.93 16.90 4.96Z" fill="white"/>
<path d="M12.16 2.98C12.18 2.95 12.14 2.90 12.08 2.86C12.03 2.83 11.96 2.83 11.94 2.86C11.92 2.89 11.96 2.95 12.02 2.98C12.08 3.01 12.14 3.02 12.16 2.98Z" fill="#006421"/>
<path d="M9.06 1.11C9.09 1.09 9.09 1.04 9.06 0.99C9.03 0.95 8.99 0.93 8.96 0.95C8.93 0.97 8.93 1.02 8.96 1.06C8.99 1.11 9.03 1.13 9.06 1.11Z" fill="#006421"/>
<path d="M12.36 9.51L13.42 8.74H12.11L11.71 7.5L11.30 8.74H10L11.05 9.51L10.65 10.75L11.71 9.98L12.76 10.75L12.36 9.51Z" fill="black"/>
</g>
<rect x="0.25" y="0.25" width="23.5" height="17.5" rx="1.75" stroke="#DDE0EA" stroke-width="0.5" style="fill-opacity:0"/>
<defs>
<clipPath id="clip0_1262_8978">
<rect width="24" height="18" rx="2" fill="white"/>
</clipPath>
</defs>
</svg>
