<svg width="24" height="18" viewBox="0 0 24 18" fill="none" xmlns="http://www.w3.org/2000/svg">
<g clip-path="url(#clip0_1262_8978)">
<path d="M0 0H24V18H0V0Z" fill="#006D21"/>
<path d="M0 6H24V18H0V6Z" fill="white"/>
<path d="M0 12H24V18H0V12Z" fill="#DF0000"/>
<path fill-rule="evenodd" clip-rule="evenodd" d="M5.09604 1.43189C5.06514 1.84919 5.02794 2.58329 5.38254 2.65859C5.81124 2.69969 5.57484 1.93289 5.72994 1.79369C5.75934 1.72499 5.81334 1.72469 5.81784 1.81139V2.46179C5.81394 2.67329 5.95284 2.73569 6.06114 2.77949C6.17364 2.77079 6.24864 2.77469 6.29274 2.88389C6.31044 3.25889 6.32784 3.63419 6.34554 4.00919C6.34554 4.00919 6.60624 4.08389 6.61884 3.37619C6.63144 2.96069 6.53574 2.61299 6.59184 2.53229C6.59394 2.45279 6.69534 2.44799 6.76554 2.48669C6.87774 2.56589 6.92754 2.66339 7.10184 2.62439C7.36674 2.55149 7.52604 2.42249 7.53024 2.21909C7.51464 2.02559 7.49304 1.83239 7.40934 1.63889C7.42104 1.60379 7.35804 1.51259 7.36974 1.47749C7.41744 1.55219 7.48974 1.54589 7.50624 1.47749C7.46124 1.32899 7.39104 1.18649 7.27764 1.12469C7.18374 1.04219 7.04664 1.05899 6.99624 1.23119C6.97284 1.42979 7.06794 1.66559 7.21224 1.85789C7.24284 1.93289 7.28604 2.05799 7.26714 2.17019C7.19034 2.21399 7.11324 2.19569 7.04874 2.12789C7.04874 2.12789 6.83784 1.96979 6.83784 1.93439C6.89394 1.57589 6.85014 1.53539 6.81924 1.43579C6.79764 1.29839 6.73254 1.25459 6.67974 1.16069C6.62694 1.10489 6.55554 1.10489 6.52134 1.16069C6.42804 1.32239 6.47154 1.66919 6.53904 1.82489C6.58764 1.96799 6.66204 2.05769 6.62694 2.05769C6.59814 2.13839 6.53814 2.11979 6.49464 2.02649C6.43254 1.83389 6.41994 1.54619 6.41994 1.41689C6.40134 1.25639 6.38094 0.914093 6.27504 0.827093C6.21054 0.739193 6.11514 0.782093 6.08154 0.862193C6.07464 1.02149 6.07374 1.18079 6.09174 1.32779C6.16434 1.58519 6.18684 1.81169 6.22224 2.07539C6.23214 2.42879 6.01794 2.22869 6.02784 2.05349C6.07734 1.82609 6.06444 1.46789 6.02064 1.37729C5.98584 1.28639 5.94474 1.26419 5.86014 1.27919C5.79294 1.27499 5.62014 1.46369 5.57184 1.77659C5.57184 1.77659 5.53044 1.93769 5.51274 2.08079C5.48904 2.24249 5.38254 2.35649 5.30814 2.05799C5.24364 1.84109 5.20404 1.30709 5.09604 1.43189Z" fill="white"/>
<path fill-rule="evenodd" clip-rule="evenodd" d="M6.26125 3.1437C5.88295 3.3288 5.51695 3.5013 5.14465 3.6801C5.15815 3.4269 5.67535 2.9703 6.02815 2.9637C6.25765 2.97 6.20005 3.0528 6.26125 3.1437Z" fill="white"/>
<path fill-rule="evenodd" clip-rule="evenodd" d="M6.06601 3.49349C5.47771 5.01029 7.44391 5.22149 7.66351 3.55559C7.68421 3.48719 7.76701 3.41879 7.78171 3.53069C7.73611 5.03909 6.26071 5.14289 6.00991 4.66829C5.94781 4.55639 5.92921 4.30769 5.92291 4.15859C5.88571 3.86219 5.73031 3.97619 5.70541 4.27049C5.68051 4.43429 5.68681 4.47989 5.68681 4.63739C5.76541 5.82899 7.66561 5.31689 7.97431 4.33289C8.13811 3.78779 7.94731 3.38609 8.03641 3.38789C8.22511 3.59099 8.48821 3.41489 8.54611 3.34439C8.57101 3.30929 8.63311 3.28649 8.67661 3.33209C8.82361 3.43769 9.08281 3.38789 9.13651 3.20159C9.16771 3.01919 9.19261 2.83079 9.19861 2.63609C9.07831 2.67329 8.98921 2.69819 8.98111 2.74799C8.97271 2.80199 8.96461 2.85569 8.95621 2.90969C8.94601 2.96159 8.84221 2.96369 8.83801 2.89709C8.79241 2.68979 8.60401 2.66309 8.49001 2.98409C8.41321 3.04619 8.27461 3.05879 8.25991 2.96549C8.27851 2.75009 8.19151 2.72099 8.01751 2.82239C7.96171 2.39549 7.90561 1.98719 7.84981 1.56059C7.92241 1.55849 7.98871 1.61249 8.05501 1.52939C7.98241 1.30349 7.82911 0.841491 7.74421 0.808191C7.70281 0.758391 7.66741 0.78959 7.61371 0.80189C7.52251 0.83099 7.43761 0.90959 7.46461 1.06289C7.57231 1.71779 7.64281 2.21699 7.75051 2.87189C7.76701 2.94869 7.70281 3.05009 7.62001 3.03959C7.47901 2.94419 7.44391 2.75159 7.20361 2.75969C7.02961 2.76179 6.83071 2.95049 6.80581 3.13289C6.77671 3.27779 6.76651 3.43529 6.80581 3.56189C6.92821 3.70889 7.07521 3.69449 7.20361 3.66149C7.30921 3.61799 7.39621 3.51239 7.43371 3.53729C7.45861 3.56849 7.44001 3.91649 6.93631 4.18379C6.63181 4.32059 6.38911 4.35179 6.25891 4.10309C6.17821 3.94769 6.26521 3.35669 6.06601 3.49349Z" fill="white"/>
<path fill-rule="evenodd" clip-rule="evenodd" d="M8.56204 1.95179C8.68024 1.90829 9.23974 1.26809 9.23974 1.26809C9.21064 1.24319 9.18484 1.22459 9.15574 1.19969C9.12454 1.17269 9.12784 1.14569 9.15574 1.11899C9.29464 1.03829 9.24994 0.860994 9.17764 0.780294C9.05733 0.726294 8.95264 0.743994 8.87614 0.783294C8.77864 0.876594 8.75614 1.02569 8.83264 1.11899C8.90734 1.15409 8.98174 1.22999 8.93194 1.27139C8.70304 1.51589 8.07604 1.93769 8.14864 1.95209C8.16424 1.97279 8.54944 1.97159 8.56204 1.95179Z" fill="white"/>
<path fill-rule="evenodd" clip-rule="evenodd" d="M5.18294 4.21739C4.97324 4.55159 4.95494 5.05109 5.07074 5.19989C5.13224 5.27009 5.23334 5.30099 5.30804 5.27909C5.43974 5.22179 5.49764 4.95479 5.46644 4.85699C5.42234 4.78799 5.38784 4.77719 5.34374 4.83569C5.25104 5.02409 5.21234 4.89479 5.20424 4.78949C5.19014 4.58999 5.20874 4.40609 5.23034 4.26029C5.25344 4.11119 5.23034 4.15739 5.18294 4.21739Z" fill="white"/>
<path fill-rule="evenodd" clip-rule="evenodd" d="M14.1501 3.68219C13.9473 3.24539 13.6662 2.81399 13.5768 2.64809C13.4874 2.48219 12.8127 1.50299 12.7134 1.39289C12.4941 1.13249 13.0692 1.50149 12.6405 0.98429C12.477 0.84419 12.4677 0.83549 12.3318 0.72119C12.2634 0.67259 12.0963 0.58379 12.0666 0.73109C12.0516 0.86069 12.0597 0.93089 12.0816 1.03889C12.0984 1.11089 12.2031 1.23149 12.2547 1.30109C12.9393 2.22119 13.5462 3.15029 14.1315 4.31879C14.2239 4.27499 14.2044 3.75539 14.1501 3.68219Z" fill="white"/>
<path fill-rule="evenodd" clip-rule="evenodd" d="M13.2597 5.1435C13.2198 5.1882 13.3581 5.3799 13.5381 5.3796C13.839 5.3448 14.1036 5.1756 14.3487 4.731C14.4144 4.6272 14.5296 4.4055 14.5329 4.2333C14.5557 3.2244 14.4825 2.4393 14.3313 1.7103C14.3217 1.6392 14.3274 1.5558 14.3394 1.5345C14.3589 1.5111 14.4249 1.5345 14.46 1.4772C14.5113 1.4247 14.3235 0.990001 14.2164 0.822601C14.1783 0.747901 14.1651 0.697801 14.1021 0.831301C14.0358 0.939901 13.9914 1.1292 13.9965 1.3059C14.1399 2.2992 14.184 3.1683 14.2779 4.1619C14.2854 4.2579 14.2713 4.3977 14.2077 4.4532C13.9716 4.6998 13.6305 5.0034 13.2597 5.1435Z" fill="white"/>
<path fill-rule="evenodd" clip-rule="evenodd" d="M17.3227 5.13811C17.1067 5.26291 17.1067 5.40631 17.281 5.41171C17.5819 5.37691 17.9371 5.35171 18.1822 4.98181C18.2479 4.87801 18.3256 4.59751 18.3292 4.42561C18.352 3.41671 18.316 2.66371 18.1648 1.93441C18.1552 1.86331 18.1237 1.69981 18.1357 1.67851C18.1552 1.62871 18.2533 1.68391 18.2884 1.62661C18.3397 1.57411 18.0346 1.18201 17.9275 1.01461C17.8894 0.93991 17.8762 0.889811 17.8132 1.02331C17.7469 1.13191 17.7238 1.32661 17.7502 1.49791C17.9098 2.57671 18.0283 3.38701 18.0529 4.34311C18.0391 4.43401 18.0358 4.48291 17.9932 4.59721C17.899 4.71781 17.7949 4.86871 17.6971 4.94161C17.5993 5.01451 17.3908 5.08411 17.3227 5.13811Z" fill="white"/>
<path fill-rule="evenodd" clip-rule="evenodd" d="M17.4846 4.1709C17.4822 3.9186 17.4882 3.7008 17.4798 3.5127C17.4714 3.3246 17.4384 3.1713 17.373 3.0378C17.3115 2.8947 17.3496 2.7795 17.3208 2.6271C17.292 2.4747 17.2989 2.2461 17.2554 2.0652C17.2434 1.9944 17.2068 1.7682 17.2179 1.7466C17.2356 1.6962 17.3037 1.7481 17.3367 1.6896C17.3862 1.6356 17.1645 1.0614 17.052 0.897601C17.0115 0.824101 16.938 0.849301 16.8474 0.968701C16.7634 1.0473 16.7946 1.2267 16.8267 1.3971C17.0424 2.5233 17.2035 3.5427 17.1684 4.6149C17.1576 4.7061 17.4867 4.3431 17.4846 4.1709Z" fill="white"/>
<path fill-rule="evenodd" clip-rule="evenodd" d="M15.8896 2.77379C15.7537 2.77139 15.4696 2.50949 15.3865 2.35619C15.355 2.26829 15.3754 2.18249 15.403 2.13209C15.4534 2.09939 15.5305 2.06279 15.5884 2.09789C15.5884 2.09789 15.6484 2.18189 15.6367 2.19239C15.7108 2.22779 15.7423 2.20739 15.7498 2.17739C15.7549 2.12459 15.7279 2.09309 15.7276 2.03489C15.7591 1.87709 15.9391 1.85279 16.0072 1.95329C16.057 2.01449 16.075 2.14499 16.0825 2.23289C16.0816 2.27789 16.009 2.22509 15.9676 2.23589C15.9262 2.24669 15.9163 2.29439 15.913 2.33759C15.9055 2.45189 15.892 2.63579 15.8896 2.77379Z" fill="white"/>
<path fill-rule="evenodd" clip-rule="evenodd" d="M13.3847 4.45078C13.4222 4.10788 13.3709 3.49738 13.3676 3.29518C13.3538 2.81728 13.2758 1.89448 13.2386 1.74028C13.1966 1.44958 13.3583 1.77208 13.3358 1.60318C13.2836 1.31278 13.1225 1.11628 12.9332 0.850183C12.8723 0.763783 12.8741 0.746083 12.7799 0.871483C12.6755 1.10788 12.7655 1.27078 12.7925 1.45498C12.929 2.05498 13.0085 2.60728 13.0457 3.15328C13.0829 3.69928 13.0943 4.28938 13.0604 4.86418C13.1627 4.86808 13.3271 4.69858 13.3847 4.45078Z" fill="white"/>
<path fill-rule="evenodd" clip-rule="evenodd" d="M17.9465 3.9015C17.7071 3.4998 17.3459 3.0648 17.2493 2.9031C17.1527 2.7414 16.3367 1.6881 16.2326 1.5825C15.9341 1.2687 16.3694 1.5315 16.1753 1.2891C16.0112 1.1088 15.9632 1.0524 15.8228 0.943799C15.7523 0.898199 15.7097 0.811199 15.6866 0.959399C15.6773 1.0896 15.6677 1.2402 15.6764 1.35C15.6758 1.4109 15.7394 1.5255 15.794 1.593C16.5179 2.4825 17.3075 3.3906 17.9432 4.5324C18.0335 4.4844 18.0035 3.972 17.9465 3.9015Z" fill="white"/>
<path fill-rule="evenodd" clip-rule="evenodd" d="M7.08591 3.16049C7.06881 3.19079 7.03041 3.22979 7.04331 3.27029C7.07031 3.30659 7.09161 3.31409 7.13631 3.31619C7.17501 3.31619 7.22931 3.32549 7.24101 3.30239C7.26201 3.27929 7.27791 3.23219 7.26051 3.18809C7.22001 3.08699 7.10691 3.12449 7.08591 3.16049Z" fill="#006421"/>
<path fill-rule="evenodd" clip-rule="evenodd" d="M9.38968 1.0881C9.17188 1.7109 9.51447 2.3925 9.75208 2.3259C9.92368 2.397 10.0329 2.0706 10.1031 1.7133C10.1511 1.6131 10.1874 1.6023 10.212 1.6539C10.2057 2.1291 10.2462 2.2344 10.3683 2.3787C10.641 2.589 10.8663 2.4057 10.884 2.3877C10.9017 2.37 11.0961 2.1756 11.0961 2.1756C11.1432 2.1258 11.2062 2.1231 11.2728 2.1669C11.3376 2.2257 11.3286 2.3277 11.4672 2.3982C11.5839 2.445 11.8338 2.409 11.8917 2.3082C11.9697 2.1747 11.9883 2.1288 12.0243 2.0784C12.0798 2.0043 12.1746 2.0373 12.1746 2.0607C12.1656 2.1021 12.1101 2.1432 12.1482 2.2176C12.2142 2.2671 12.2295 2.2353 12.2688 2.2242C12.4071 2.1582 12.5109 1.8573 12.5109 1.8573C12.5169 1.7454 12.4542 1.7547 12.4137 1.7778C12.3606 1.8102 12.3573 1.8207 12.3042 1.8531C12.2367 1.863 12.1053 1.908 12.0405 1.8075C11.9742 1.6869 11.9733 1.5183 11.9229 1.3965C11.9229 1.3875 11.835 1.2048 11.9169 1.1931C11.9583 1.2009 12.0462 1.224 12.0603 1.1499C12.1035 1.0776 11.9676 0.872999 11.8746 0.769799C11.7939 0.681299 11.682 0.670499 11.574 0.761099C11.4984 0.830699 11.5092 0.908399 11.4945 0.982199C11.4753 1.0668 11.4792 1.1709 11.5653 1.2828C11.6409 1.4316 11.7786 1.6233 11.7333 1.893C11.7333 1.893 11.6529 2.0205 11.5128 2.0037C11.4543 1.9911 11.3595 1.9662 11.3091 1.5924C11.2707 1.3095 11.3181 0.913499 11.1981 0.727799C11.1546 0.615599 11.1231 0.507599 11.0172 0.699299C10.9887 0.774599 10.8669 0.888898 10.9554 1.1238C11.0277 1.2729 11.0571 1.5153 11.0244 1.785C10.9743 1.8615 10.9632 1.8876 10.8975 1.9641C10.8051 2.0634 10.7049 2.0379 10.6284 2.001C10.5567 1.9527 10.5006 1.9278 10.4679 1.7742C10.4739 1.5297 10.4874 1.1292 10.4427 1.0443C10.3767 0.912599 10.2681 0.960298 10.2216 1.0002C9.99837 1.2042 9.88827 1.5483 9.82077 1.8225C9.75897 2.0223 9.69298 1.965 9.64678 1.8843C9.53398 1.7787 9.52588 0.952498 9.38968 1.0881Z" fill="white"/>
<path fill-rule="evenodd" clip-rule="evenodd" d="M10.0461 2.4423C10.1451 2.3721 10.0989 2.3232 10.2468 2.4711C10.4322 2.7879 10.5513 3.1983 10.569 3.5616C10.5612 3.6513 10.6242 3.708 10.6533 3.6885C10.6704 3.4782 11.1819 3.1851 11.6508 3.1425C11.7225 3.1269 11.6877 2.9895 11.6994 2.9193C11.6712 2.6589 11.8458 2.4219 12.09 2.403C12.4227 2.4522 12.5334 2.6298 12.5391 2.901C12.5031 3.4215 11.961 3.5097 11.6562 3.5511C11.6094 3.5688 11.5899 3.5904 11.6562 3.6159L12.9327 3.6216L12.9978 3.6591C13.0056 3.6894 12.9792 3.6642 12.9288 3.747C12.8784 3.8301 12.804 4.0212 12.8004 4.149C12.42 4.2714 12.0267 4.3248 11.6271 4.3731C11.4882 4.4433 11.4195 4.5369 11.448 4.6422C11.4948 4.7589 11.8023 4.8756 11.8023 4.8813C11.8608 4.9179 11.9298 5.0034 11.7858 5.1786C11.1633 5.1513 10.6806 4.8861 10.5138 4.5123C10.4634 4.4733 10.4094 4.5123 10.3746 4.5627C10.1316 4.8759 9.89217 5.1582 9.47787 5.3079C9.23067 5.3697 8.97777 5.2701 8.85837 5.1081C8.77827 5.016 8.78157 4.9143 8.75217 4.8921C8.61867 4.9512 7.46907 5.4396 7.61487 5.2122C7.89477 4.9128 8.37897 4.6929 8.80677 4.3974C8.83767 4.2984 8.89377 3.9633 9.06266 3.8544C9.07257 3.8553 9.03597 4.0512 9.03957 4.1337C9.04137 4.2015 9.03446 4.2282 9.04947 4.2105C9.07827 4.1922 9.59727 3.7842 9.63747 3.6591C9.68817 3.5874 9.65277 3.4059 9.65277 3.4002C9.55557 3.1494 9.41876 3.1281 9.36836 3.0033C9.32276 2.8377 9.34347 2.6487 9.43797 2.5962C9.52197 2.52 9.62156 2.5293 9.71336 2.6127C9.81806 2.7066 9.91136 2.8902 9.93836 3.0267C9.92037 3.0807 9.80127 2.9907 9.75987 3.0177C9.83307 3.0936 9.86727 3.1809 9.89367 3.2877C9.96117 3.5739 9.94076 3.6852 9.87266 3.8706C9.64226 4.3551 9.34767 4.4997 9.08997 4.6791C9.08307 4.6815 9.07856 4.8021 9.17546 4.8672C9.20877 4.9023 9.34317 4.9203 9.50127 4.8696C9.80667 4.7031 10.1238 4.3962 10.281 4.0545C10.3266 3.7959 10.2633 3.522 10.1961 3.2829C10.0947 3.0492 9.97557 2.7156 9.97557 2.7102C9.97167 2.5644 9.98337 2.514 10.0473 2.4414L10.0461 2.4423Z" fill="white"/>
<path fill-rule="evenodd" clip-rule="evenodd" d="M6.7041 1.09499C6.8511 1.16519 7.1271 1.13519 7.1154 0.898487C7.1154 0.877487 7.11 0.806687 7.1079 0.787487C7.0779 0.717587 6.996 0.734987 6.9774 0.806987C6.9717 0.830687 6.9879 0.869087 6.9663 0.880787C6.954 0.893087 6.9072 0.885887 6.909 0.820487C6.909 0.799787 6.8937 0.777287 6.8844 0.764087C6.8751 0.758087 6.8691 0.756287 6.8523 0.756287C6.8319 0.757187 6.8322 0.762587 6.8208 0.779687C6.816 0.797087 6.8094 0.814487 6.8094 0.834287C6.8067 0.857687 6.798 0.865787 6.7809 0.869387C6.7617 0.869387 6.7662 0.871487 6.7506 0.861587C6.7413 0.851387 6.7299 0.847787 6.7299 0.830387C6.7299 0.812987 6.726 0.783587 6.7206 0.771887C6.7125 0.761087 6.6993 0.756287 6.6846 0.752387C6.6045 0.752387 6.5988 0.844187 6.6033 0.878987C6.5973 0.885587 6.5949 1.04969 6.7041 1.09499Z" fill="white"/>
<path fill-rule="evenodd" clip-rule="evenodd" d="M11.0104 2.9178C11.1574 2.988 11.5069 2.9475 11.4217 2.7213C11.4217 2.7003 11.4163 2.6295 11.4142 2.6103C11.3842 2.5404 11.3023 2.5578 11.2837 2.6298C11.278 2.6535 11.2942 2.6919 11.2726 2.7036C11.2603 2.7159 11.2135 2.7087 11.2153 2.6433C11.2153 2.6226 11.2 2.6001 11.1907 2.5869C11.1814 2.5809 11.1754 2.5791 11.1586 2.5791C11.1382 2.58 11.1385 2.5854 11.1271 2.6025C11.1223 2.6199 11.1157 2.6373 11.1157 2.6571C11.113 2.6805 11.1043 2.6886 11.0872 2.6922C11.068 2.6922 11.0725 2.6943 11.0569 2.6844C11.0476 2.6742 11.0362 2.6706 11.0362 2.6532C11.0362 2.6358 11.0323 2.6064 11.0269 2.5947C11.0188 2.5839 11.0056 2.5791 10.9909 2.5752C10.9108 2.5752 10.9051 2.667 10.9096 2.7018C10.9036 2.7084 10.9012 2.8725 11.0104 2.9178Z" fill="white"/>
<path fill-rule="evenodd" clip-rule="evenodd" d="M13.522 2.16329C13.669 2.23349 13.945 2.20349 13.9333 1.96679C13.9333 1.94579 13.9279 1.87499 13.9258 1.85579C13.8958 1.78589 13.8139 1.80329 13.7953 1.87529C13.7896 1.89899 13.8058 1.93739 13.7842 1.94909C13.7719 1.96139 13.7251 1.95419 13.7269 1.88879C13.7269 1.86809 13.7116 1.84559 13.7023 1.83239C13.693 1.82639 13.687 1.82459 13.6702 1.82459C13.6498 1.82549 13.6501 1.83089 13.6387 1.84799C13.6339 1.86539 13.6273 1.88279 13.6273 1.90259C13.6246 1.92599 13.6159 1.93409 13.5988 1.93769C13.5796 1.93769 13.5841 1.93979 13.5685 1.92989C13.5592 1.91969 13.5478 1.91609 13.5478 1.89869C13.5478 1.88129 13.5439 1.85189 13.5385 1.84019C13.5304 1.82939 13.5172 1.82459 13.5025 1.82069C13.4224 1.82069 13.4167 1.91249 13.4212 1.94729C13.4152 1.95389 13.4128 2.11799 13.522 2.16329Z" fill="white"/>
<path fill-rule="evenodd" clip-rule="evenodd" d="M14.8228 4.0581C14.5669 4.3467 14.6797 4.824 14.7376 4.9266C14.8219 5.0955 14.89 5.2038 15.0544 5.2872C15.2041 5.3973 15.3205 5.3286 15.3847 5.2515C15.5353 5.0955 15.5371 4.6971 15.6076 4.6182C15.6571 4.4733 15.7819 4.4979 15.8425 4.5621C15.9013 4.6464 15.9703 4.701 16.0567 4.7469C16.1971 4.8708 16.3648 4.8933 16.5301 4.7805C16.6429 4.7172 16.7164 4.6353 16.7824 4.473C16.8559 4.2765 16.8148 3.369 16.8001 2.8314C16.7944 2.7891 16.6543 2.0919 16.6543 2.0841C16.6543 2.0763 16.6357 1.7283 16.6204 1.6452C16.6177 1.6116 16.6093 1.602 16.6447 1.6062C16.6822 1.6377 16.6873 1.6395 16.7107 1.65C16.7485 1.6569 16.7824 1.5927 16.7596 1.5336C16.6429 1.3182 16.5259 1.1025 16.4092 0.8871C16.381 0.8595 16.3447 0.8289 16.3003 0.8949C16.2577 0.9324 16.2124 0.9999 16.2136 1.0869C16.2241 1.2402 16.2508 1.3959 16.2613 1.5492C16.3081 1.8114 16.3549 2.0736 16.4014 2.3358C16.4455 2.8965 16.4566 3.3555 16.5007 3.9162C16.4944 4.1535 16.4206 4.3605 16.3516 4.3905C16.3516 4.3905 16.2463 4.4517 16.1755 4.3842C16.1242 4.3635 15.9184 4.0416 15.9184 4.0416C15.8134 3.9453 15.7441 3.9729 15.6691 4.0416C15.4627 4.2408 15.3694 4.6134 15.2293 4.8705C15.1933 4.9278 15.091 4.977 14.9779 4.8663C14.6905 4.4736 14.8585 3.9147 14.8228 4.0581Z" fill="white"/>
<path fill-rule="evenodd" clip-rule="evenodd" d="M13.5879 0.787789C13.7196 0.842989 13.8123 1.10939 13.782 1.23959C13.7559 1.40069 13.686 1.57439 13.6359 1.55189C13.5813 1.53179 13.6731 1.39169 13.6206 1.24499C13.5915 1.14959 13.4118 0.974989 13.4307 0.923689C13.3935 0.81599 13.5072 0.768889 13.5879 0.787789Z" fill="white"/>
<path fill-rule="evenodd" clip-rule="evenodd" d="M15.2463 4.2162C15.2739 3.8961 15.2274 3.7008 15.219 3.5127C15.2106 3.3246 15.0063 1.8888 14.9646 1.7463C14.9145 1.4772 15.1635 1.7103 15.1362 1.5537C15.0501 1.3563 14.8359 1.0689 14.7684 0.897301C14.7279 0.823801 14.745 0.758401 14.6544 0.878101C14.5704 1.1529 14.5413 1.3773 14.5734 1.548C14.7891 2.6742 15.0105 3.6108 14.9754 4.683C15.0777 4.6836 15.1956 4.4484 15.2463 4.2162Z" fill="white"/>
<path fill-rule="evenodd" clip-rule="evenodd" d="M17.4951 1.2417C17.6151 1.3014 17.6853 1.6356 17.6721 1.731C17.6481 1.9053 17.5845 2.0937 17.5389 2.0691C17.4891 2.0472 17.5488 1.8105 17.5251 1.737C17.4987 1.6335 17.3349 1.4448 17.352 1.389C17.3181 1.2723 17.4216 1.2213 17.4951 1.2417Z" fill="white"/>
<path fill-rule="evenodd" clip-rule="evenodd" d="M8.57775 3.61079C8.69265 3.65459 8.75986 3.89999 8.74726 3.97019C8.72445 4.09829 8.66356 4.23659 8.61976 4.21859C8.57206 4.20239 8.62936 4.02869 8.60655 3.97439C8.59696 3.84329 8.43766 3.77549 8.44096 3.71879C8.41125 3.61469 8.50725 3.59549 8.57775 3.61079Z" fill="white"/>
<path fill-rule="evenodd" clip-rule="evenodd" d="M11.3503 3.97919C11.4985 3.98849 11.5726 4.10489 11.4337 4.15349C11.2969 4.20029 11.1652 4.23689 11.1646 4.43489C11.2153 4.71059 11.0953 4.61579 11.0236 4.57859C10.9393 4.51799 10.7023 4.37219 10.6687 4.05719C10.6636 3.98189 10.7221 3.91889 10.8166 3.91919C10.9588 3.95789 11.1685 3.96029 11.3503 3.97919Z" fill="#006421"/>
<path fill-rule="evenodd" clip-rule="evenodd" d="M5.50972 0.708293C5.67892 0.759293 5.68912 1.00829 5.67652 1.08089C5.65402 1.21379 5.59402 1.35719 5.55082 1.33829C5.50402 1.32149 5.54902 1.14119 5.52652 1.08539C5.50132 1.00649 5.35822 0.862793 5.37442 0.820193C5.34262 0.731393 5.44042 0.692693 5.50972 0.708293Z" fill="white"/>
<path fill-rule="evenodd" clip-rule="evenodd" d="M8.854 1.88191C8.7241 1.95211 8.6737 2.16181 8.7547 2.28361C8.8303 2.39101 8.9497 2.35111 8.9656 2.35111C9.0928 2.36701 9.1684 2.11261 9.1684 2.11261C9.1684 2.11261 9.1723 2.04091 9.0211 2.17621C8.9575 2.18821 8.9494 2.16421 8.9335 2.12851C8.9203 2.06221 8.923 1.99591 8.9533 1.92961C8.9758 1.86601 8.9269 1.83811 8.854 1.88191Z" fill="white"/>
<path fill-rule="evenodd" clip-rule="evenodd" d="M9.82836 0.612294C9.76296 0.656094 9.63306 0.790794 9.62916 0.945894C9.62526 1.03349 9.60876 1.03319 9.66606 1.08899C9.70746 1.14869 9.74916 1.14329 9.83286 1.09949C9.88086 1.06409 9.89706 1.04069 9.91326 0.981294C9.93306 0.881994 9.80826 1.02839 9.79236 0.917694C9.76446 0.815094 9.84486 0.772794 9.92046 0.673494C9.92286 0.605394 9.92106 0.557094 9.82836 0.612294Z" fill="white"/>
<path fill-rule="evenodd" clip-rule="evenodd" d="M10.6136 0.751802C10.5854 0.813902 10.5518 1.1388 10.5572 1.1388C10.5347 1.2357 10.6586 1.2771 10.7147 1.1526C10.799 0.924601 10.799 0.827702 10.8047 0.731102C10.7783 0.583802 10.6793 0.588302 10.6136 0.751802Z" fill="white"/>
<path fill-rule="evenodd" clip-rule="evenodd" d="M15.5635 3.27058C15.5803 3.25378 16.261 2.76988 16.261 2.76988C16.3303 2.74558 16.3153 3.01918 16.2835 3.01738C16.2967 3.07168 15.6121 3.53668 15.5635 3.51808C15.5299 3.54238 15.496 3.33058 15.5635 3.27058Z" fill="white"/>
<path fill-rule="evenodd" clip-rule="evenodd" d="M16.1842 3.26668C16.3042 3.32638 16.3519 3.67738 16.3387 3.77278C16.3429 3.95848 16.2232 4.10728 16.1773 4.08268C16.1275 4.06078 16.1818 3.85228 16.1578 3.77878C16.1314 3.67528 16.0294 3.48088 16.0465 3.42508C16.0126 3.30838 16.1104 3.24598 16.1842 3.26668Z" fill="white"/>
<path fill-rule="evenodd" clip-rule="evenodd" d="M12.1359 4.77809C12.1833 4.70879 12.3294 4.60919 12.3327 4.60919C12.4002 4.57529 12.4662 4.63559 12.462 4.63169C12.4731 4.69919 12.4194 4.76189 12.4362 4.85219C12.4509 4.88849 12.4617 4.92869 12.5283 4.91339C12.6363 4.82849 12.7365 4.82279 12.8445 4.81739C12.9273 4.82249 12.9306 4.96259 12.8781 4.96379C12.6786 5.00729 12.5892 5.06069 12.4467 5.11499C12.3792 5.15429 12.3213 5.10449 12.3213 5.09879C12.3213 5.09309 12.2817 5.06039 12.3093 4.97099C12.3141 4.89929 12.2853 4.85999 12.2256 4.86809C12.1806 4.89239 12.141 4.90859 12.1185 4.85669C12.1095 4.81859 12.1071 4.79999 12.1359 4.77809Z" fill="white"/>
<path fill-rule="evenodd" clip-rule="evenodd" d="M16.9004 4.9671C16.9295 5.0043 16.9484 5.0385 16.898 5.0994C16.8503 5.1432 16.8167 5.1672 16.769 5.211C16.7465 5.2494 16.7321 5.3079 16.8011 5.3262C16.9283 5.3619 17.2226 5.1711 17.2226 5.1672C17.2703 5.1315 17.2544 5.0637 17.2505 5.0637C17.2226 5.0319 17.1599 5.0508 17.1179 5.0457C17.0978 5.0457 17.0318 5.0358 17.0633 4.9773C17.0894 4.941 17.0987 4.9188 17.1167 4.8741C17.1365 4.8303 17.1194 4.8012 17.048 4.7772C16.9751 4.764 16.946 4.7706 16.865 4.7772C16.8212 4.7865 16.8062 4.806 16.7984 4.8591C16.8014 4.9395 16.8503 4.9353 16.9004 4.9671Z" fill="white"/>
<path d="M12.1624 2.98867C12.1811 2.9564 12.1483 2.90253 12.0893 2.86835C12.0302 2.83417 11.9671 2.83261 11.9485 2.86488C11.9298 2.89715 11.9626 2.95102 12.0217 2.9852C12.0807 3.01939 12.1438 3.02094 12.1624 2.98867Z" fill="#006421"/>
<path d="M9.06872 1.11368C9.09816 1.09422 9.09833 1.04259 9.0691 0.998359C9.03986 0.954126 8.9923 0.934042 8.96286 0.9535C8.93341 0.972958 8.93324 1.02459 8.96248 1.06882C8.99171 1.11305 9.03927 1.13314 9.06872 1.11368Z" fill="#006421"/>
<path d="M12.3658 9.5124L13.4236 8.7438H12.1159L11.7118 7.5L11.3077 8.7438H10L11.0578 9.5124L10.6537 10.7562L11.7118 9.9876L12.7699 10.7562L12.3658 9.5124Z" fill="black"/>
</g>
<rect x="0.25" y="0.25" width="23.5" height="17.5" rx="1.75" stroke="#DDE0EA" stroke-width="0.5" style="fill-opacity:0"/>
<defs>
<clipPath id="clip0_1262_8978">
<rect width="24" height="18" rx="2" fill="white"/>
</clipPath>
</defs>
</svg>
