<svg width="24" height="18" viewBox="0 0 24 18" fill="none" xmlns="http://www.w3.org/2000/svg">
<g clip-path="url(#clip0_1257_40664)">
<path d="M24 0H0V18H24V0Z" fill="black"/>
<path d="M24 0H0V18H24V0Z" fill="white"/>
<path fill-rule="evenodd" clip-rule="evenodd" d="M20.31 14.781L17.1889 12.6989L17.397 12.387L20.5181 14.469L20.31 14.781Z" fill="white"/>
<path fill-rule="evenodd" clip-rule="evenodd" d="M8.24609 6.50781C8.90625 5.51563 9.9375 4.82812 11.1094 4.59375C12.2773 4.35938 13.4922 4.60156 14.4844 5.26172C15.4805 5.92578 16.168 6.95312 16.4023 8.125C16.6367 9.29297 16.3945 10.5078 15.7344 11.5039L8.24609 6.50781Z" fill="#CD2E3A"/>
<path fill-rule="evenodd" clip-rule="evenodd" d="M8.24609 6.50781C7.58203 7.50391 7.34375 8.71875 7.57812 9.88672C7.80859 11.0586 8.5 12.0859 9.49219 12.75C10.4844 13.4102 11.6992 13.6523 12.8711 13.418C14.043 13.1836 15.0703 12.4961 15.7344 11.5039C16.0625 11.0078 16.1836 10.3984 16.0664 9.8125C15.9492 9.22656 15.6055 8.71484 15.1094 8.38281C14.6133 8.05078 14.0039 7.92969 13.4219 8.04688C12.8359 8.16406 12.3203 8.50781 11.9883 9.00781L8.24609 6.50781Z" fill="#0047A0"/>
<path d="M11.9883 9.00781C12.6797 7.97266 12.3984 6.57422 11.3672 5.88672C10.332 5.19531 8.93359 5.47656 8.24609 6.50781C7.55469 7.54297 7.83594 8.94141 8.86719 9.62891C9.90234 10.3203 11.3008 10.0391 11.9883 9.00781Z" fill="#CD2E3A"/>
<path fill-rule="evenodd" clip-rule="evenodd" d="M2.62891 5.46875L5.125 1.72266L5.75 2.14063L3.25391 5.88281L2.62891 5.46875ZM3.56641 6.09375L6.0625 2.34766L6.6875 2.76563L4.1875 6.50781L3.56641 6.09375ZM4.5 6.71484L7 2.97266L7.62109 3.39063L5.125 7.13281L4.5 6.71484ZM16.3555 14.6211L18.8516 10.8789L19.4766 11.2969L16.9805 15.0391L16.3555 14.6211ZM17.293 15.2461L19.7891 11.5039L20.4141 11.918L17.918 15.6641L17.293 15.2461ZM18.2305 15.8711L20.7266 12.1289L21.3477 12.543L18.8516 16.2891L18.2305 15.8711ZM2.64062 12.5469L5.13672 16.2891L5.76172 15.8711L3.26562 12.1289L2.64062 12.5469ZM4.92898 13.9498L6.07422 15.6641L6.69531 15.25L5.55214 13.5343L4.92898 13.9498ZM4.72066 13.638L5.3442 13.2223L4.19922 11.5039L3.57422 11.9219L4.72066 13.638ZM4.51172 11.2969L7.00781 15.0391L7.63281 14.625L5.13672 10.8789L4.51172 11.2969ZM17.5112 5.10573L16.3672 3.39063L16.9922 2.97266L18.136 4.68922L17.5112 5.10573ZM17.7193 5.4177L18.8633 7.13281L19.4883 6.71875L18.3439 5.00129L17.7193 5.4177ZM19.8008 6.51172L17.3047 2.76563L17.9258 2.35156L20.4219 6.09375L19.8008 6.51172ZM19.3825 3.85779L18.2383 2.14063L18.8633 1.72656L20.0063 3.44017L19.3825 3.85779ZM19.5904 4.16986L20.7344 5.88672L21.3594 5.46875L20.2144 3.75214L19.5904 4.16986Z" fill="black"/>
</g>
<rect x="0.25" y="0.25" width="23.5" height="17.5" rx="1.75" stroke="#DDE0EA" stroke-width="0.5" style="fill-opacity:0"/>
<defs>
<clipPath id="clip0_1257_40664">
<rect width="24" height="18" rx="2" fill="white"/>
</clipPath>
</defs>
</svg>
