<svg width="24" height="18" viewBox="0 0 24 18" fill="none" xmlns="http://www.w3.org/2000/svg">
<g clip-path="url(#clip0_1220_3895)">
<g clip-path="url(#clip1_1220_3895)">
<path d="M23.9967 0.00379944H0.0033799V18.0038H23.9967V0.00379944Z" fill="#AD1519"/>
<path d="M23.9969 4.504H0.00362404V13.504H23.9969V4.504Z" fill="#FABD00"/>
</g>

</g>
<path d="M22 0.25H2C1.0335 0.25 0.25 1.0335 0.25 2V16C0.25 16.9665 1.0335 17.75 2 17.75H22C22.9665 17.75 23.75 16.9665 23.75 16V2C23.75 1.0335 22.9665 0.25 22 0.25Z" stroke="#DDE0EA" stroke-width="0.5"/>
<path d="M8.23354 6.55858C8.21962 6.54383 8.20436 6.52892 8.18811 6.51417C8.0122 6.35417 7.77759 6.26597 7.52823 6.26597C7.43853 6.26597 7.35016 6.27771 7.26477 6.30059C7.2278 6.2905 7.18983 6.28268 7.15136 6.27726V6.13727C7.15136 6.09949 7.13445 6.06517 7.10693 6.04019C7.0794 6.0152 7.04193 6 6.99999 6C6.91642 6 6.84861 6.06156 6.84861 6.13727V6.27741C6.81064 6.28313 6.773 6.29095 6.73636 6.30074C6.65064 6.27771 6.56194 6.26597 6.47174 6.26597C6.20099 6.26597 5.94417 6.37254 5.76709 6.55798C5.61969 6.71181 5.53845 6.90914 5.53845 7.11324C5.53845 7.18925 5.6061 7.25066 5.68983 7.25066H6.00269C6.01679 7.24976 6.03088 7.24916 6.0453 7.24916H7.95467C7.96909 7.24916 7.98318 7.24976 7.99728 7.25066H8.31014C8.39387 7.25066 8.46152 7.18925 8.46152 7.11339C8.46152 6.90899 8.38028 6.71181 8.23354 6.55858ZM6.07929 6.97597H5.85961C5.88315 6.88867 5.92974 6.80693 5.99556 6.73785C6.07399 6.65566 6.17579 6.59666 6.2882 6.56565C6.17828 6.68321 6.10649 6.8253 6.07929 6.97597ZM6.84861 6.97597H6.38785C6.41139 6.88867 6.45798 6.80693 6.52381 6.73785C6.60986 6.64784 6.7236 6.58552 6.84861 6.55737V6.97597ZM7.15136 6.97597V6.55722C7.26195 6.58176 7.36325 6.63339 7.44582 6.70849C7.4566 6.71828 7.46688 6.72806 7.47633 6.73815C7.54232 6.80693 7.58858 6.88867 7.61212 6.97597H7.15136ZM7.92068 6.97597C7.89349 6.8247 7.82136 6.6823 7.71127 6.56505C7.80942 6.59199 7.89962 6.64061 7.97406 6.70849C7.98501 6.71828 7.99512 6.72806 8.00457 6.73815C8.07056 6.80693 8.11682 6.88867 8.14036 6.97597H7.92068Z" fill="#EF4444"/>
<path d="M7.00007 7.52386V9.61141H5.02124V7.86298C5.02124 7.67573 5.18853 7.52386 5.39479 7.52386H7.00007Z" fill="#EF4444"/>
<path d="M8.97883 7.86298V9.61141H7V7.52386H8.60528C8.81154 7.52386 8.97883 7.67573 8.97883 7.86298Z" fill="#F5F5F5"/>
<path d="M8.97883 9.61141V10.2036C8.97883 11.1065 8.2445 11.8543 7.28849 11.9807C7.19432 11.9934 7.09815 12 7 12V9.61141H8.97883Z" fill="#EF4444"/>
<path d="M5.02124 9.61141V10.2036C5.02124 11.1065 5.75557 11.8543 6.71158 11.9807C6.80575 11.9934 6.90192 12 7.00007 12V9.61141H5.02124Z" fill="#EF4444"/>
<path d="M7.94238 11.2159C7.91685 11.2159 7.89098 11.2143 7.86578 11.2108C7.60978 11.177 7.41663 10.9739 7.41663 10.7387V10.2344C7.41663 10.1444 7.49737 10.0711 7.59652 10.0711H8.28807C8.38722 10.0711 8.46797 10.1444 8.46797 10.2344V10.7387C8.46797 10.9739 8.27481 11.177 8.01865 11.2108C7.99345 11.2141 7.96775 11.2159 7.94221 11.2159H7.94238ZM7.61559 10.2517V10.7387C7.61559 10.885 7.73546 11.0111 7.89463 11.0322C7.92646 11.0364 7.95863 11.0364 7.98996 11.0322C8.14913 11.0111 8.26917 10.885 8.26917 10.7387V10.2517H7.61559Z" fill="#FBBF24"/>
<path d="M6.24496 8.07054H5.8749C5.74935 8.07054 5.64758 8.16293 5.64758 8.2769V8.91059C5.64758 9.02456 5.74935 9.11695 5.8749 9.11695H6.24496C6.3705 9.11695 6.47228 9.02456 6.47228 8.91059V8.2769C6.47228 8.16293 6.3705 8.07054 6.24496 8.07054Z" fill="#FBBF24"/>
<path d="M8.17453 8.07054H7.80446C7.67892 8.07054 7.57715 8.16293 7.57715 8.2769V8.91059C7.57715 9.02456 7.67892 9.11695 7.80446 9.11695H8.17453C8.30007 9.11695 8.40184 9.02456 8.40184 8.91059V8.2769C8.40184 8.16293 8.30007 8.07054 8.17453 8.07054Z" fill="#EF4444"/>
<path d="M9.90035 7.61432C9.83867 7.55848 9.75361 7.52386 9.6596 7.52386C9.47158 7.52386 9.31921 7.66218 9.31921 7.83287V11.6658C9.31921 11.8365 9.47158 11.9749 9.6596 11.9749C9.84762 11.9749 9.99999 11.8365 9.99999 11.6658V7.83287C9.99999 7.74753 9.96186 7.67031 9.90035 7.61432Z" fill="#F5F5F5"/>
<path d="M4.58113 7.61432C4.51945 7.55848 4.4344 7.52386 4.34039 7.52386C4.15237 7.52386 4 7.66218 4 7.83287V11.6658C4 11.8365 4.15237 11.9749 4.34039 11.9749C4.52841 11.9749 4.68078 11.8365 4.68078 11.6658V7.83287C4.68078 7.74753 4.64264 7.67031 4.58113 7.61432Z" fill="#F5F5F5"/>
<path d="M4.32596 9.01957H5.02117V9.61141H4.32596C4.14607 9.61141 4 9.4788 4 9.31549C4 9.15218 4.14607 9.01957 4.32596 9.01957Z" fill="#EF4444"/>
<path d="M8.97876 9.01957H9.67396C9.85386 9.01957 9.99993 9.15218 9.99993 9.31549C9.99993 9.4788 9.85386 9.61141 9.67396 9.61141H8.97876V9.01957Z" fill="#EF4444"/>
<path d="M5.5263 9.61141H5.52613C5.43511 9.61141 5.36133 9.6784 5.36133 9.76103V10.8342C5.36133 10.9169 5.43511 10.9838 5.52613 10.9838H5.5263C5.61732 10.9838 5.69111 10.9169 5.69111 10.8342V9.76103C5.69111 9.6784 5.61732 9.61141 5.5263 9.61141Z" fill="#FBBF24"/>
<path d="M6.17547 9.61141H6.1753C6.08428 9.61141 6.0105 9.6784 6.0105 9.76103V11.3133C6.0105 11.396 6.08428 11.463 6.1753 11.463H6.17547C6.26649 11.463 6.34028 11.396 6.34028 11.3133V9.76103C6.34028 9.6784 6.26649 9.61141 6.17547 9.61141Z" fill="#FBBF24"/>
<path d="M6.82476 9.61141H6.8246C6.73358 9.61141 6.65979 9.6784 6.65979 9.76103V11.6648C6.65979 11.7474 6.73358 11.8144 6.8246 11.8144H6.82476C6.91578 11.8144 6.98957 11.7474 6.98957 11.6648V9.76103C6.98957 9.6784 6.91578 9.61141 6.82476 9.61141Z" fill="#FBBF24"/>
<path d="M7.00009 9.97221C7.21958 9.97221 7.39751 9.81067 7.39751 9.61141C7.39751 9.41215 7.21958 9.25062 7.00009 9.25062C6.78059 9.25062 6.60266 9.41215 6.60266 9.61141C6.60266 9.81067 6.78059 9.97221 7.00009 9.97221Z" fill="#3B82F6"/>
<rect x="0.25" y="0.25" width="23.5" height="17.5" rx="1.75" stroke="#DDE0EA" stroke-width="0.5" style="fill-opacity:0"/>
<defs>
<clipPath id="clip0_1220_3895">
<rect width="24" height="18" rx="2" fill="white"/>
</clipPath>
<clipPath id="clip1_1220_3895">
<rect width="24" height="18" fill="white"/>
</clipPath>
</defs>
</svg>
