<svg width="24" height="18" viewBox="0 0 24 18" fill="none" xmlns="http://www.w3.org/2000/svg">
<g clip-path="url(#clip0_1259_5976)">
<path d="M24 0H0V18H24V0Z" fill="#FFBE29"/>
<path d="M4.30 1H7.60V17H4.30V1Z" fill="#EB7400"/>
<path d="M1 1H4.30V17H1V1Z" fill="#00534E"/>
<path d="M8.59 1H23.10V17H8.59V1Z" fill="#8D2029"/>
<path d="M13.49 12.76L13.58 12.71L13.62 12.76C13.67 12.83 13.82 12.83 13.91 12.76L13.98 12.71L14.04 12.76C14.12 12.83 14.28 12.83 14.37 12.76C14.44 12.71 14.45 12.71 14.49 12.75C14.52 12.77 14.60 12.79 14.67 12.80C14.79 12.82 14.79 12.82 14.86 12.71C14.92 12.62 14.93 12.59 14.92 12.50C14.91 12.43 14.90 12.37 14.89 12.30C14.89 12.20 14.89 12.20 15.04 12.15C15.12 12.12 15.22 12.08 15.25 12.06C15.31 12.03 15.47 11.84 15.47 11.81C15.47 11.80 15.41 11.78 15.33 11.77C15.02 11.74 14.97 11.58 15.17 11.28C15.50 10.78 15.70 10.30 15.70 9.99C15.70 9.86 15.71 9.81 15.73 9.84C15.80 9.96 15.67 10.47 15.47 10.84L15.39 10.99L15.47 10.97C15.51 10.96 15.76 10.86 16.02 10.74C16.73 10.43 16.98 10.36 17.44 10.39C17.83 10.40 18.00 10.48 18.27 10.76C18.41 10.91 18.55 11.01 18.81 11.17C19.36 11.50 19.38 11.53 19.40 11.92C19.43 12.32 19.42 12.34 19.11 12.41C18.85 12.46 18.68 12.58 18.64 12.75C18.62 12.84 18.66 12.84 18.80 12.76L18.89 12.69L18.94 12.76C19 12.84 19.12 12.84 19.22 12.76L19.29 12.70L19.37 12.76C19.49 12.85 19.65 12.83 19.69 12.71C19.70 12.69 19.73 12.69 19.77 12.73C19.86 12.81 20.09 12.84 20.11 12.78C20.12 12.76 20.10 12.70 20.07 12.66C19.94 12.46 19.90 12.37 19.90 12.27C19.89 12.12 19.94 12.06 20.11 11.94C20.31 11.79 20.38 11.61 20.22 11.61C20.13 11.61 20.03 11.53 19.97 11.39C19.84 11.11 19.87 10.80 20.05 10.29C20.25 9.77 20.27 9.67 20.27 9.32C20.27 9.04 20.26 8.99 20.19 8.84C20.16 8.74 20.07 8.60 20.01 8.52L19.91 8.38L20.04 8.27C20.47 7.93 20.38 7.37 19.87 7.15C19.71 7.08 19.67 7.08 19.40 7.08C19.24 7.08 18.98 7.10 18.84 7.13C18.70 7.15 18.45 7.17 18.29 7.17C18.02 7.18 17.97 7.17 17.87 7.11C17.76 7.06 17.74 7.03 17.72 6.90C17.72 6.88 17.70 6.85 17.68 6.84C17.65 6.83 17.48 6.98 17.45 7.04C17.44 7.07 17.43 7.07 17.39 7.03C17.37 7.00 17.34 6.94 17.32 6.89C17.28 6.76 17.33 6.67 17.48 6.59L17.60 6.54L17.53 6.50C17.39 6.41 17.14 6.47 17.05 6.61C17.03 6.65 17.00 6.69 16.99 6.69C16.99 6.69 16.94 6.65 16.89 6.60C16.70 6.42 16.77 6.16 17.01 6.08C17.15 6.04 17.26 6.07 17.29 6.16C17.33 6.29 17.44 6.12 17.42 5.96C17.40 5.86 17.41 5.86 17.48 5.86C17.58 5.86 17.80 5.99 17.87 6.09C17.94 6.21 17.94 6.39 17.85 6.53L17.79 6.64L17.87 6.62C18.00 6.60 18.13 6.52 18.19 6.42C18.26 6.32 18.26 6.13 18.21 6.02C18.15 5.92 18.16 5.90 18.24 5.94C18.38 6.00 18.46 6.06 18.52 6.17C18.57 6.27 18.57 6.30 18.55 6.40C18.53 6.47 18.49 6.55 18.46 6.59C18.41 6.65 18.41 6.66 18.45 6.66C18.52 6.66 18.66 6.60 18.72 6.54C18.74 6.52 18.78 6.45 18.80 6.40L18.84 6.30L18.88 6.37C18.94 6.48 19.06 6.58 19.20 6.64C19.35 6.70 19.41 6.70 19.33 6.64C19.28 6.60 19.18 6.32 19.21 6.29C19.23 6.28 19.44 6.43 19.67 6.64C19.90 6.84 20.04 6.90 20.25 6.90C20.51 6.90 20.66 6.68 20.54 6.46C20.47 6.34 20.32 6.32 20.23 6.43C20.19 6.48 20.18 6.52 20.19 6.57C20.21 6.63 20.20 6.64 20.14 6.64C20.07 6.64 19.92 6.54 19.65 6.32C19.24 5.99 18.74 5.71 18.38 5.61C18.15 5.54 17.66 5.51 17.43 5.56C17.18 5.60 16.88 5.74 16.71 5.89C16.43 6.16 16.42 6.52 16.70 6.84L16.78 6.94L16.73 7.02C16.65 7.14 16.65 7.30 16.74 7.42C16.78 7.47 16.82 7.52 16.83 7.52C16.84 7.52 16.85 7.48 16.86 7.44C16.86 7.34 16.91 7.27 16.99 7.24C17.06 7.21 17.10 7.22 17.43 7.35C17.77 7.48 18.33 7.49 18.93 7.37C19.23 7.32 19.57 7.32 19.72 7.38C20.00 7.50 20.07 7.79 19.86 8.02C19.77 8.12 19.69 8.15 19.40 8.23C19.18 8.29 19.13 8.29 18.63 8.29C18.21 8.28 18.06 8.29 17.89 8.33C17.70 8.36 17.58 8.37 17.03 8.35L16.39 8.34L16.46 8.40C16.50 8.43 16.56 8.47 16.58 8.48C16.63 8.51 16.63 8.51 16.56 8.54C16.52 8.55 16.42 8.57 16.35 8.57H16.22L16.20 8.68C16.19 8.74 16.20 8.81 16.21 8.83C16.22 8.87 16.22 8.87 16.18 8.86C16.15 8.85 16.07 8.83 16.01 8.82C15.94 8.80 15.85 8.78 15.81 8.76C15.74 8.72 15.73 8.72 15.70 8.77C15.68 8.81 15.46 8.97 15.42 8.97C15.42 8.97 15.41 8.94 15.41 8.90C15.41 8.86 15.37 8.76 15.34 8.68C15.30 8.60 15.26 8.51 15.25 8.48C15.24 8.44 15.23 8.44 15.21 8.47C15.20 8.49 15.18 8.55 15.17 8.59C15.16 8.64 15.13 8.72 15.10 8.77L15.04 8.85L15.01 8.78C14.97 8.70 14.90 8.62 14.88 8.62C14.87 8.62 14.86 8.64 14.85 8.68C14.83 8.74 14.68 8.92 14.64 8.92C14.63 8.92 14.61 8.87 14.61 8.81C14.61 8.75 14.60 8.70 14.59 8.70C14.57 8.70 14.56 8.71 14.56 8.73C14.56 8.78 14.43 8.92 14.38 8.92C14.37 8.92 14.33 8.94 14.31 8.96C14.27 9.01 14.23 9.01 14.25 8.95C14.26 8.92 14.25 8.85 14.23 8.80L14.19 8.68C14.19 8.66 14.14 8.66 14.04 8.69C13.88 8.75 13.82 8.74 13.91 8.67C13.94 8.65 13.98 8.57 14.01 8.49C14.04 8.42 14.08 8.35 14.10 8.35C14.13 8.34 14.12 8.35 14.09 8.39C14.07 8.43 14.05 8.47 14.05 8.49C14.05 8.51 14.03 8.56 14.00 8.60C13.98 8.64 13.97 8.68 13.97 8.68C13.98 8.69 14.04 8.67 14.11 8.63L14.24 8.57V8.63C14.24 8.66 14.25 8.73 14.27 8.80L14.30 8.92L14.39 8.88C14.48 8.84 14.56 8.70 14.56 8.59C14.56 8.53 14.59 8.54 14.60 8.60C14.61 8.62 14.63 8.68 14.65 8.74L14.69 8.85L14.74 8.78C14.78 8.74 14.82 8.67 14.84 8.62C14.86 8.52 14.91 8.48 14.91 8.55C14.91 8.60 15.05 8.77 15.07 8.76C15.09 8.75 15.11 8.69 15.13 8.61C15.17 8.46 15.23 8.36 15.27 8.38C15.28 8.39 15.29 8.41 15.28 8.42C15.27 8.43 15.30 8.52 15.35 8.63L15.45 8.88C15.47 8.92 15.48 8.91 15.58 8.83C15.64 8.77 15.70 8.71 15.71 8.69C15.72 8.67 15.73 8.67 15.79 8.70C15.87 8.75 16.14 8.83 16.16 8.81C16.17 8.80 16.17 8.73 16.17 8.65L16.18 8.51L16.26 8.53C16.30 8.54 16.39 8.54 16.45 8.53L16.58 8.51L16.47 8.44C16.41 8.40 16.35 8.35 16.34 8.33C16.32 8.30 16.27 8.28 16.21 8.27C16.05 8.26 15.76 8.11 15.76 8.03C15.76 8.01 15.80 8.04 15.85 8.08C15.95 8.18 16.10 8.24 16.23 8.24H16.33L16.27 8.16C16.24 8.12 16.21 8.03 16.20 7.96C16.19 7.85 16.18 7.83 16.05 7.75C15.98 7.70 15.89 7.63 15.85 7.59L15.79 7.51L15.75 7.60C15.74 7.65 15.71 7.69 15.70 7.69C15.70 7.69 15.66 7.66 15.62 7.63C15.59 7.59 15.55 7.56 15.54 7.56C15.54 7.56 15.50 7.61 15.47 7.66L15.42 7.77L15.38 7.71C15.36 7.68 15.31 7.62 15.26 7.58C15.22 7.54 15.20 7.51 15.21 7.51C15.23 7.51 15.28 7.55 15.33 7.60L15.42 7.69L15.45 7.62C15.47 7.58 15.48 7.53 15.47 7.48C15.46 7.41 15.46 7.40 15.49 7.45C15.51 7.47 15.56 7.53 15.61 7.56L15.69 7.63L15.75 7.53C15.81 7.42 15.81 7.42 15.84 7.48C15.87 7.57 16.13 7.77 16.35 7.89C16.38 7.91 16.37 7.85 16.31 7.70C16.29 7.66 16.28 7.59 16.28 7.54C16.28 7.47 16.26 7.44 16.17 7.38C16.04 7.28 15.99 7.21 15.97 7.05C15.96 6.99 15.93 6.92 15.92 6.90C15.89 6.86 15.89 6.88 15.89 7.00C15.90 7.08 15.89 7.18 15.87 7.22L15.84 7.29L15.81 7.23C15.80 7.20 15.74 7.14 15.68 7.10C15.62 7.06 15.58 7.02 15.58 7.01C15.59 7.00 15.66 7.04 15.72 7.09C15.83 7.17 15.85 7.18 15.86 7.14C15.88 7.10 15.86 6.92 15.83 6.80C15.81 6.74 15.82 6.74 15.89 6.82C15.95 6.87 15.98 6.94 16.01 7.05C16.04 7.20 16.05 7.22 16.19 7.35C16.28 7.42 16.35 7.47 16.36 7.47C16.36 7.46 16.37 7.28 16.38 7.05C16.39 6.63 16.38 6.52 16.27 6.39L16.22 6.33L16.30 6.24C16.41 6.12 16.47 6.03 16.49 5.90L16.51 5.79L16.41 5.88C16.33 5.95 16.30 5.97 16.20 5.97C16.11 5.97 16.08 5.96 16.02 5.89C15.94 5.82 15.81 5.74 15.69 5.71C15.64 5.70 15.63 5.70 15.63 5.73C15.63 5.75 15.61 5.82 15.57 5.87L15.52 5.98L15.40 5.86C15.33 5.79 15.24 5.74 15.18 5.72C15.01 5.68 15.01 5.68 15.01 5.80C15.01 5.98 14.93 6.02 14.78 5.90C14.68 5.80 14.59 5.79 14.38 5.81L14.22 5.82L14.25 5.89C14.28 5.95 14.27 5.97 14.22 6.04C14.14 6.15 14.03 6.20 13.87 6.20C13.79 6.20 13.69 6.21 13.65 6.23C13.61 6.25 13.51 6.27 13.43 6.28C13.35 6.29 13.26 6.30 13.24 6.31C13.20 6.32 13.19 6.31 13.21 6.23C13.22 6.09 13.13 6.00 12.98 6.00C12.79 6.00 12.70 6.16 12.78 6.38C12.79 6.43 12.81 6.48 12.82 6.53C12.83 6.57 12.91 6.68 13.02 6.78C13.12 6.89 13.22 6.99 13.23 7.01C13.25 7.04 13.30 7.08 13.35 7.11L13.44 7.16L13.43 7.07C13.41 6.96 13.44 6.95 13.49 7.02C13.51 7.04 13.56 7.09 13.60 7.11C13.67 7.15 13.68 7.15 13.68 7.12C13.68 7.10 13.69 7.04 13.71 7.01L13.74 6.93L13.79 7.03C13.82 7.08 13.91 7.20 13.99 7.30C14.15 7.48 14.25 7.68 14.20 7.73C14.18 7.75 14.12 7.75 14.01 7.73C13.92 7.71 13.81 7.70 13.76 7.71C13.67 7.72 13.66 7.71 13.72 7.64C13.78 7.56 13.77 7.55 13.65 7.55C13.51 7.55 13.17 7.48 13.04 7.44C12.91 7.39 12.88 7.40 12.84 7.52L12.77 7.73L12.74 7.85L12.87 7.84C12.95 7.83 13.05 7.81 13.09 7.80C13.14 7.79 13.18 7.78 13.18 7.79C13.18 7.79 13.17 7.84 13.14 7.89L13.08 7.98L13.17 7.97C13.22 7.96 13.29 7.93 13.33 7.91C13.40 7.88 13.40 7.88 13.46 7.97C13.53 8.07 13.58 8.07 13.59 7.96C13.60 7.85 13.64 7.86 13.71 8.01C13.79 8.16 13.86 8.21 13.87 8.13C13.88 8.10 13.91 8.05 13.96 8.02C14.04 7.97 14.10 7.98 14.14 8.07C14.18 8.17 14.09 8.26 13.85 8.41C13.36 8.70 13.08 9.10 12.99 9.60C12.92 10.05 13.15 10.52 13.61 10.86C13.83 11.02 14.18 11.19 14.15 11.13C14.06 10.85 14.06 10.33 14.16 10.24C14.17 10.22 14.17 10.28 14.15 10.36C14.07 10.66 14.10 10.90 14.30 11.46C14.48 11.97 14.45 12.19 14.20 12.33C14.12 12.37 14.07 12.38 13.85 12.38C13.62 12.38 13.59 12.38 13.52 12.44C13.44 12.50 13.35 12.69 13.35 12.77C13.33 12.83 13.38 12.82 13.49 12.76ZM17.30 12.75L17.40 12.69L17.47 12.75C17.56 12.83 17.66 12.83 17.74 12.75C17.78 12.71 17.81 12.69 17.82 12.69C17.83 12.71 17.84 12.73 17.85 12.75C17.87 12.79 17.91 12.80 17.99 12.81C18.08 12.81 18.11 12.81 18.15 12.75L18.19 12.69L18.29 12.75C18.55 12.92 18.7 12.75 18.58 12.40C18.52 12.22 18.55 12.12 18.75 11.90C18.83 11.80 18.89 11.70 18.89 11.67C18.89 11.62 18.88 11.62 18.77 11.62C18.67 11.62 18.64 11.61 18.58 11.55C18.49 11.46 18.50 11.35 18.60 11.22L18.68 11.13L18.53 11.03C18.46 10.98 18.32 10.86 18.22 10.76C18.01 10.54 17.80 10.44 17.53 10.41L17.35 10.40V10.53C17.35 10.70 17.43 10.87 17.66 11.16C17.92 11.48 17.94 11.53 17.95 11.95L17.96 12.31L17.88 12.38C17.81 12.44 17.78 12.45 17.56 12.46C17.35 12.47 17.31 12.48 17.25 12.54C17.17 12.61 17.14 12.64 17.12 12.74C17.10 12.80 17.11 12.81 17.15 12.81C17.18 12.81 17.25 12.78 17.30 12.75ZM11.75 11.72C11.75 11.67 11.77 11.66 11.87 11.65L11.99 11.63L11.91 11.57C11.82 11.49 11.81 11.43 11.89 11.43C11.98 11.43 12.12 11.35 12.14 11.28C12.15 11.25 12.15 11.21 12.13 11.19C12.08 11.14 11.99 11.15 11.98 11.21C11.96 11.27 11.93 11.27 11.86 11.21C11.76 11.11 11.76 10.92 11.86 10.80C11.90 10.75 11.90 10.75 11.84 10.69C11.78 10.63 11.73 10.51 11.76 10.49C11.77 10.48 11.82 10.48 11.88 10.50C11.95 10.53 11.98 10.53 12.01 10.50C12.11 10.43 12.00 10.34 11.85 10.36C11.79 10.37 11.77 10.36 11.76 10.33C11.75 10.31 11.70 10.28 11.64 10.26C11.53 10.24 11.53 10.24 11.53 10.31C11.53 10.39 11.49 10.40 11.40 10.35C11.33 10.31 11.26 10.34 11.26 10.41C11.26 10.48 11.33 10.52 11.46 10.51C11.56 10.50 11.56 10.57 11.47 10.67L11.40 10.75L11.45 10.82C11.53 10.93 11.52 11.11 11.44 11.20L11.37 11.27L11.33 11.21C11.27 11.13 11.19 11.14 11.16 11.22C11.15 11.28 11.16 11.30 11.23 11.36C11.28 11.40 11.34 11.43 11.38 11.43C11.47 11.43 11.47 11.50 11.38 11.57L11.30 11.63L11.42 11.65C11.48 11.66 11.53 11.67 11.53 11.69C11.53 11.73 11.56 11.88 11.64 11.88C11.71 11.89 11.75 11.79 11.75 11.72ZM13.21 11.19C13.32 11.15 13.55 10.96 13.55 10.92C13.55 10.90 13.48 10.84 13.41 10.77C13.25 10.62 13.07 10.39 13.02 10.25C13.00 10.17 12.89 10.05 12.56 9.74L12.14 9.34L12.01 9.37C11.94 9.38 11.86 9.40 11.83 9.40C11.77 9.40 11.77 9.40 11.85 9.46L11.93 9.52L12.04 9.46C12.15 9.40 12.15 9.40 12.17 9.45C12.18 9.48 12.16 9.52 12.13 9.56C12.10 9.60 12.08 9.63 12.09 9.65C12.10 9.66 12.07 9.69 12.03 9.71C11.95 9.75 11.89 9.88 11.95 9.88C12.01 9.88 12.14 9.72 12.12 9.67C12.11 9.65 12.12 9.62 12.13 9.61C12.18 9.58 12.18 9.71 12.13 9.76C12.10 9.80 12.08 9.84 12.09 9.85C12.10 9.87 12.07 9.89 12.03 9.91C11.95 9.95 11.89 10.08 11.95 10.08C12.01 10.08 12.14 9.93 12.12 9.88C12.11 9.85 12.12 9.82 12.13 9.82C12.16 9.80 12.18 9.89 12.15 9.94C12.14 9.96 12.14 10.00 12.15 10.02C12.18 10.07 12.15 10.16 12.10 10.19C12.08 10.21 12.10 10.23 12.15 10.27C12.22 10.32 12.23 10.33 12.23 10.58C12.23 10.78 12.23 10.84 12.27 10.87C12.32 10.92 12.32 10.92 12.32 10.88C12.32 10.83 12.40 10.78 12.46 10.78C12.48 10.78 12.59 10.88 12.72 10.99C12.84 11.11 12.97 11.21 13.00 11.22L13.09 11.23C13.10 11.23 13.16 11.21 13.21 11.19ZM11.90 10.19C11.90 10.12 11.76 10.05 11.59 10.04C11.46 10.02 11.45 10.02 11.45 10.09C11.45 10.14 11.47 10.16 11.57 10.21C11.72 10.27 11.90 10.26 11.90 10.19ZM12.06 10.18C12.12 10.12 12.16 10.05 12.12 10.05C12.07 10.05 11.94 10.16 11.94 10.20C11.94 10.27 11.97 10.26 12.06 10.18ZM11.91 9.99C11.92 9.95 11.89 9.92 11.82 9.89C11.66 9.83 11.48 9.79 11.43 9.83C11.35 9.89 11.41 9.98 11.54 9.99C11.59 10.00 11.67 10.01 11.70 10.02C11.80 10.06 11.90 10.05 11.91 9.99ZM11.91 9.79C11.92 9.73 11.88 9.71 11.59 9.61C11.38 9.54 11.28 9.57 11.35 9.70C11.38 9.75 11.42 9.76 11.51 9.78C11.57 9.79 11.66 9.81 11.71 9.82C11.83 9.86 11.90 9.84 11.91 9.79ZM12.05 9.60C12.10 9.55 12.13 9.50 12.13 9.48C12.13 9.42 11.96 9.53 11.94 9.61C11.91 9.70 11.95 9.69 12.05 9.60ZM11.91 9.58C11.92 9.52 11.81 9.47 11.61 9.43C11.46 9.39 11.39 9.41 11.40 9.48C11.41 9.52 11.46 9.54 11.60 9.59C11.83 9.66 11.90 9.66 11.91 9.58ZM12.11 9.30C12.37 9.18 12.40 8.90 12.15 8.82C12.05 8.79 11.98 8.81 11.94 8.87C11.91 8.93 11.93 9.02 11.97 9.02C11.99 9.02 12.00 9.04 12.00 9.06C12.00 9.16 11.60 9.21 11.43 9.12C11.37 9.10 11.35 9.02 11.39 9.02C11.43 9.02 11.46 8.95 11.44 8.89C11.41 8.82 11.34 8.79 11.23 8.82C10.98 8.89 10.99 9.17 11.24 9.29C11.45 9.39 11.90 9.39 12.11 9.30ZM11.95 9.08C11.96 9.06 11.95 9.04 11.93 9.02C11.87 8.98 11.88 8.92 11.94 8.84C11.98 8.79 11.99 8.70 12.01 7.88C12.03 6.45 12.14 5.38 12.28 5.12C12.34 5.02 12.33 5.02 12.19 5.12C12.00 5.25 11.85 5.41 11.72 5.64C11.48 6.09 11.40 6.68 11.40 7.96C11.40 8.68 11.40 8.77 11.45 8.84C11.49 8.91 11.49 8.93 11.46 9.00C11.44 9.04 11.43 9.09 11.44 9.09C11.50 9.14 11.89 9.13 11.95 9.08ZM14.15 7.72C14.16 7.71 14.14 7.65 14.11 7.58C14.07 7.48 14.05 7.47 13.98 7.47C13.77 7.47 13.43 7.37 13.08 7.22C12.87 7.13 12.80 7.11 12.78 7.13C12.71 7.19 12.82 7.33 12.98 7.40C13.12 7.46 13.52 7.54 13.70 7.54C13.80 7.54 13.80 7.54 13.74 7.63L13.70 7.69L13.82 7.69C13.88 7.69 13.98 7.70 14.02 7.71C14.14 7.74 14.14 7.74 14.15 7.72Z" fill="#FFBE29"/>
<path d="M21.64 2.84C21.64 2.84 21.77 2.55 21.92 2.44C22.14 2.27 22.60 2.28 22.80 2.08C23.03 1.84 22.78 1.53 22.78 1.51L22.79 1.34C22.79 1.34 22.64 1.34 22.57 1.33C22.47 1.31 22.43 1.23 22.25 1.24C21.78 1.27 21.80 1.70 21.78 2.07C21.75 2.21 21.70 2.39 21.67 2.53C21.64 2.65 21.64 2.84 21.64 2.84ZM10.06 2.84C10.06 2.84 9.92 2.55 9.77 2.44C9.55 2.27 9.09 2.28 8.90 2.08C8.67 1.84 8.92 1.53 8.92 1.50L8.90 1.34C8.90 1.34 9.06 1.34 9.13 1.33C9.22 1.31 9.26 1.23 9.45 1.24C9.91 1.27 9.89 1.70 9.92 2.07C9.94 2.21 10.00 2.39 10.03 2.53C10.05 2.65 10.06 2.84 10.06 2.84Z" fill="#FFBE29"/>
<path d="M21.64 15.03C21.64 15.03 21.77 15.31 21.92 15.43C22.14 15.60 22.60 15.59 22.80 15.79C23.03 16.02 22.78 16.33 22.78 16.36L22.79 16.52C22.79 16.52 22.64 16.53 22.57 16.54C22.47 16.55 22.43 16.64 22.25 16.62C21.78 16.59 21.80 16.16 21.78 15.80C21.75 15.66 21.70 15.48 21.67 15.34C21.64 15.22 21.64 15.03 21.64 15.03ZM10.06 15.03C10.06 15.03 9.92 15.31 9.77 15.43C9.55 15.60 9.09 15.59 8.90 15.79C8.67 16.02 8.92 16.33 8.92 16.36L8.90 16.53C8.90 16.53 9.06 16.53 9.13 16.54C9.22 16.56 9.26 16.64 9.45 16.62C9.91 16.59 9.89 16.16 9.92 15.80C9.94 15.66 10.00 15.48 10.03 15.34C10.05 15.22 10.06 15.03 10.06 15.03Z" fill="#FFBE29"/>
</g>
<rect x="0.25" y="0.25" width="23.5" height="17.5" rx="1.75" stroke="#DDE0EA" stroke-width="0.5"  style="fill-opacity:0"/>
<defs>
<clipPath id="clip0_1259_5976">
<rect width="24" height="18" rx="2" fill="white"/>
</clipPath>
</defs>
</svg>
