<svg width="24" height="18" viewBox="0 0 24 18" fill="none" xmlns="http://www.w3.org/2000/svg">
<g clip-path="url(#clip0_1262_9120)">
<path d="M0 0H24V18H0V0Z" fill="#FF0000"/>
<path d="M0 0H13.5V9H0V0Z" fill="#000095"/>
<path d="M5.7749 4.75874L5.68115 5.11874L6.03365 5.21624L5.96615 4.94999L5.7749 4.75874ZM7.53365 4.94999L7.46615 5.21624L7.81865 5.11874L7.7249 4.75874L7.53365 4.94999ZM5.96615 4.04999L5.7749 4.24124L5.84615 4.49999L5.96615 4.04999Z" fill="white"/>
<path d="M5.84615 4.49999L5.7749 4.75874L5.96615 4.94999L5.84615 4.49999Z" fill="white"/>
<path d="M5.7749 4.24124L5.51636 4.49999L5.7749 4.75874L5.84615 4.49999L5.7749 4.24124ZM6.30011 5.28374L6.49136 5.47499L6.75011 5.40374L6.30011 5.28374ZM7.00886 5.47499L7.36886 5.56874L7.46615 5.21624L7.20011 5.28374L7.00886 5.47499Z" fill="white"/>
<path d="M7.20011 5.28374L7.46615 5.21624L7.53365 4.94999L7.20011 5.28374ZM6.03365 5.21624L6.13119 5.56876L6.49136 5.47499L6.30011 5.28374L6.03365 5.21624ZM6.75011 5.40374L7.00886 5.47499L7.20011 5.28374L6.75011 5.40374Z" fill="white"/>
<path d="M6.49136 5.47499L6.7499 5.73375L7.00886 5.47499L6.75011 5.40374L6.49136 5.47499ZM6.03365 3.78375L5.68115 3.88125L5.7749 4.24124L5.96615 4.04999L6.03365 3.78375ZM5.96615 4.94999L6.03365 5.21624L6.30011 5.28374L5.96615 4.94999ZM7.65365 4.5L7.7249 4.24125L7.53365 4.05L7.65365 4.5Z" fill="white"/>
<path d="M6.30006 3.71625L6.03365 3.78375L5.96615 4.04999L6.30006 3.71625ZM7.53365 4.05L7.46631 3.78375L7.20006 3.71625L7.53365 4.05ZM7.7249 4.75874L7.98381 4.5L7.7249 4.24125L7.65365 4.5L7.7249 4.75874Z" fill="white"/>
<path d="M7.53365 4.05L7.20006 3.71625L6.74994 3.59625L6.30006 3.71625L5.96615 4.04999L5.84615 4.49999L5.96615 4.94999L6.30011 5.28374L6.75011 5.40374L7.20011 5.28374L7.53365 4.94999L7.65365 4.5L7.53365 4.05Z" fill="white"/>
<path d="M7.53365 4.94999L7.7249 4.75874L7.65365 4.5L7.53365 4.94999ZM7.7249 4.24125L7.81869 3.88124L7.46631 3.78375L7.53365 4.05L7.7249 4.24125ZM7.46631 3.78375L7.36869 3.43124L7.00869 3.52499L7.20006 3.71625L7.46631 3.78375ZM6.49119 3.52499L6.13119 3.43124L6.03365 3.78375L6.30006 3.71625L6.49119 3.52499ZM6.74994 3.59625L6.49119 3.52499L6.30006 3.71625L6.74994 3.59625Z" fill="white"/>
<path d="M7.00869 3.52499L6.74996 3.26624L6.49119 3.52499L6.74994 3.59625L7.00869 3.52499Z" fill="white"/>
<path d="M7.20006 3.71625L7.00869 3.52499L6.74994 3.59625L7.20006 3.71625ZM6.49136 5.47499L6.13119 5.56876L6.30011 6.19124L6.7499 5.73375L6.49136 5.47499ZM6.30011 6.19124L6.75011 7.87499L7.20011 6.19124L6.7499 5.73375L6.30011 6.19124ZM6.03365 5.21624L5.68115 5.11874L5.51636 5.73374L6.13119 5.56876L6.03365 5.21624Z" fill="white"/>
<path d="M5.51636 5.73374L5.0662 7.42501L6.30011 6.19124L6.13119 5.56876L5.51636 5.73374ZM5.0662 4.95001L3.82495 6.19126L5.51636 5.73374L5.68115 5.11874L5.0662 4.95001Z" fill="white"/>
<path d="M5.7749 4.75874L5.51636 4.49999L5.0662 4.95001L5.68115 5.11874L5.7749 4.75874ZM5.7749 4.24124L5.68115 3.88125L5.06616 4.05001L5.51636 4.49999L5.7749 4.24124Z" fill="white"/>
<path d="M5.06616 4.05001L3.375 4.49999L5.0662 4.95001L5.51636 4.49999L5.06616 4.05001ZM8.44125 4.94999L7.81865 5.11874L7.98375 5.73374L9.675 6.19124L8.44125 4.94999Z" fill="white"/>
<path d="M7.46615 5.21624L7.36886 5.56874L7.98375 5.73374L7.81865 5.11874L7.46615 5.21624ZM7.00886 5.47499L6.7499 5.73375L7.20011 6.19124L7.36886 5.56874L7.00886 5.47499ZM7.7249 4.75874L7.81865 5.11874L8.44125 4.94999L7.98381 4.5L7.7249 4.75874Z" fill="white"/>
<path d="M7.20011 6.19124L8.4412 7.42499L7.98375 5.73374L7.36886 5.56874L7.20011 6.19124ZM7.46631 3.78375L7.81869 3.88124L7.9837 3.26624L7.36869 3.43124L7.46631 3.78375Z" fill="white"/>
<path d="M8.4412 4.05001L9.67495 2.81626L7.9837 3.26624L7.81869 3.88124L8.4412 4.05001ZM7.9837 3.26624L8.4412 1.57501L7.19995 2.81626L7.36869 3.43124L7.9837 3.26624ZM8.44125 4.94999L10.125 4.50001L8.4412 4.05001L7.98381 4.5L8.44125 4.94999Z" fill="white"/>
<path d="M7.7249 4.24125L7.98381 4.5L8.4412 4.05001L7.81869 3.88124L7.7249 4.24125ZM6.29991 2.81626L5.06616 1.57501L5.51616 3.26626L6.13119 3.43124L6.29991 2.81626Z" fill="white"/>
<path d="M6.03365 3.78375L6.13119 3.43124L5.51616 3.26626L5.68115 3.88125L6.03365 3.78375Z" fill="white"/>
<path d="M5.51616 3.26626L3.82495 2.81625L5.06616 4.05001L5.68115 3.88125L5.51616 3.26626ZM7.00869 3.52499L7.36869 3.43124L7.19995 2.81626L6.74996 3.26624L7.00869 3.52499Z" fill="white"/>
<path d="M7.19995 2.81626L6.75005 1.125L6.29991 2.81626L6.74996 3.26624L7.19995 2.81626Z" fill="white"/>
<path d="M6.49119 3.52499L6.74996 3.26624L6.29991 2.81626L6.13119 3.43124L6.49119 3.52499Z" fill="white"/>
<path d="M6.74999 6.41624C7.80831 6.41624 8.66624 5.55831 8.66624 4.49999C8.66624 3.44167 7.80831 2.58374 6.74999 2.58374C5.69167 2.58374 4.83374 3.44167 4.83374 4.49999C4.83374 5.55831 5.69167 6.41624 6.74999 6.41624Z" fill="#000095"/>
<path d="M6.75009 6.19125C7.68414 6.19125 8.44134 5.43405 8.44134 4.5C8.44134 3.56594 7.68414 2.80875 6.75009 2.80875C5.81604 2.80875 5.05884 3.56594 5.05884 4.5C5.05884 5.43405 5.81604 6.19125 6.75009 6.19125Z" fill="white"/>
</g>
<rect x="0.25" y="0.25" width="23.5" height="17.5" rx="1.75" stroke="#DDE0EA" stroke-width="0.5"  style="fill-opacity:0"/>
<defs>
<clipPath id="clip0_1262_9120">
<rect width="24" height="18" rx="2" fill="white"/>
</clipPath>
</defs>
</svg>
