<svg width="24" height="18" viewBox="0 0 24 18" fill="none" xmlns="http://www.w3.org/2000/svg">
<g clip-path="url(#clip0_1262_1935)">
<path d="M0 0H24V18H0V0Z" fill="#DE0000"/>
<path d="M0 6.75H24V11.25H0V6.75Z" fill="#068E6B"/>
<path d="M3.99997 0.9L3.82024 1.5219H3.23891L3.70904 1.9062L3.52931 2.5281L3.99944 2.1438L4.46957 2.5281L4.28984 1.9062L4.75997 1.5219H4.17864L3.99891 0.9H3.99997ZM3.99997 1.224L4.11491 1.6221H4.48691L4.18584 1.8681L4.30077 2.2662L3.99971 2.0202L3.69864 2.2662L3.81357 1.8681L3.51251 1.6221H3.88451L3.99997 1.224Z" fill="#FFD900"/>
<path d="M2.71604 4.15654L3.11417 4.60624L3.48964 4.18774C4.06084 4.87504 4.65977 5.53744 5.22644 6.22744C5.31151 6.32374 5.45018 6.32404 5.53578 6.22864C5.62164 6.13324 5.62191 5.97754 5.53684 5.88154C4.92858 5.23774 4.31844 4.58854 3.71018 3.94234L4.21604 3.37864L3.51231 3.26944L2.71604 4.15654Z" fill="#FFD900"/>
<path d="M4.0003 2.70003C4.32776 2.90703 4.57656 3.20403 4.72323 3.51453C4.87203 3.82923 4.93736 4.15773 4.9387 4.42053C4.94136 4.95903 4.54963 5.39583 4.06963 5.39583C3.81336 5.39583 3.58323 5.27163 3.42403 5.07363L3.33603 5.15673C3.28403 5.13423 3.22483 5.15133 3.18883 5.19903C3.12616 5.20833 3.07363 5.25693 3.05363 5.32443C2.9875 5.47323 2.87123 5.59023 2.73096 5.64363C2.72963 5.64423 2.72856 5.64483 2.72723 5.64543C2.66216 5.67213 2.5971 5.72043 2.54163 5.78283C2.43203 5.90673 2.37843 6.06543 2.40856 6.17673C2.40563 6.18633 2.40403 6.19653 2.40403 6.20673C2.40403 6.25803 2.4411 6.29973 2.48696 6.29973C2.49843 6.29973 2.5099 6.29703 2.5203 6.29163C2.61923 6.31683 2.7539 6.25503 2.85923 6.13623C2.91896 6.06873 2.9635 5.98893 2.98563 5.91063C3.03443 5.75373 3.13976 5.62593 3.2731 5.55423C3.2763 5.55243 3.27896 5.55063 3.2811 5.54883C3.3259 5.52483 3.3587 5.47953 3.37016 5.42523C3.57496 5.69613 3.88216 5.86923 4.22536 5.87853C4.85496 5.89503 5.32563 5.37513 5.3475 4.62723C5.35843 4.25103 5.22856 3.76563 4.93283 3.36753C4.7067 3.06333 4.3755 2.81133 4.0003 2.70003Z" fill="#FFD900"/>
</g>
<rect x="0.25" y="0.25" width="23.5" height="17.5" rx="1.75" stroke="#DDE0EA" stroke-width="0.5" style="fill-opacity:0"/>
<defs>
<clipPath id="clip0_1262_1935">
<rect width="24" height="18" rx="2" fill="white"/>
</clipPath>
</defs>
</svg>
