<svg width="24" height="18" viewBox="0 0 24 18" fill="none" xmlns="http://www.w3.org/2000/svg">
<g clip-path="url(#clip0_1262_9390)">
<path d="M24 0H0V18H24V0Z" fill="#00843D"/>
<path fill-rule="evenodd" clip-rule="evenodd" d="M7.75781 4.83203C8.73828 5.30469 9.90625 4.83203 10.3281 4.17969C10.7617 3.56641 10.8164 2.54688 10.0664 1.60547C11.2266 2.57031 11.4883 3.66406 10.9062 4.5625C10.1328 5.59375 8.42578 5.5625 7.75781 4.83203Z" fill="white"/>
<path fill-rule="evenodd" clip-rule="evenodd" d="M9.49609 2.44141H9.69531L9.53906 2.56641L9.59766 2.76172L9.43359 2.64844L9.27734 2.76172L9.32812 2.57031L9.16797 2.44531L9.36719 2.44141L9.43359 2.25L9.49609 2.44141ZM8.52344 3.66406H8.71875L8.56641 3.78906L8.625 3.98438L8.46094 3.86719L8.29688 3.98828L8.35547 3.78906L8.19531 3.67188L8.39453 3.66406L8.45703 3.46875L8.52344 3.66406ZM8.58594 2.69922H8.78516L8.62891 2.82812L8.6875 3.01953L8.52734 2.90234L8.36328 3.02344L8.42188 2.82812L8.26172 2.70312L8.46094 2.69922L8.52344 2.50781L8.58594 2.69922ZM8.58594 1.73438H8.78516L8.625 1.86328L8.68359 2.05859L8.52344 1.94531L8.36328 2.05859L8.41797 1.86719L8.25781 1.74219L8.45703 1.73828L8.51953 1.54688L8.58594 1.73438ZM7.50781 2.95703H7.70312L7.54688 3.08203L7.60547 3.27734L7.44531 3.16016L7.28125 3.28125L7.33984 3.08203L7.17969 2.96484L7.37891 2.95703L7.44141 2.76172L7.50781 2.95703Z" fill="white"/>
<path fill-rule="evenodd" clip-rule="evenodd" d="M0.171875 0H5.95703V18H0.171875V0Z" fill="#CA3745"/>
<path fill-rule="evenodd" clip-rule="evenodd" d="M0.171875 4.5625L0.410156 4.24219L0.363281 4.17578L0.503906 3.98828L0.457031 3.91797L0.363281 4.05078L0.3125 3.98828L0.652344 3.53516L0.699219 3.60156L0.652344 3.66406L0.75 3.79688L0.988281 3.47266L0.746094 3.16016L0.652344 3.28125L0.699219 3.34766L0.652344 3.41016L0.3125 2.96094L0.363281 2.89844L0.457031 3.02344L0.507812 2.96094L0.363281 2.76562L0.410156 2.70312L0.171875 2.37891V2.25L0.507812 2.69922L0.457031 2.76172L0.601562 2.95703L0.507812 3.08594L0.601562 3.21484L0.75 3.02344L1.08984 3.48047L0.75 3.92188L0.609375 3.73047L0.511719 3.85938L0.605469 3.98828L0.464844 4.17969L0.511719 4.24609L0.171875 4.69531V4.5625Z" fill="#FAAE29"/>
<path fill-rule="evenodd" clip-rule="evenodd" d="M0.171875 3.08594L0.21875 3.21484V3.41016H0.363281L0.460938 3.47266L0.363281 3.53906H0.222656V3.73047L0.171875 3.85938V3.08594Z" fill="#FAAE29"/>
<path fill-rule="evenodd" clip-rule="evenodd" d="M0.171875 7.78125V7.64844L0.410156 7.33203L0.363281 7.26172L0.503906 7.07031L0.457031 7.00781L0.363281 7.13672L0.3125 7.07031L0.652344 6.62109L0.699219 6.6875L0.652344 6.75L0.75 6.87891L0.988281 6.55859L0.746094 6.24219L0.652344 6.36328L0.699219 6.42969L0.652344 6.49219L0.3125 6.04297L0.363281 5.97656L0.457031 6.10156L0.507812 6.03906L0.363281 5.84766L0.410156 5.78516L0.171875 5.46094V5.33203L0.507812 5.78516L0.457031 5.84766L0.601562 6.03906L0.507812 6.16797L0.601562 6.29688L0.746094 6.10156L1.08594 6.55859L0.746094 7.00391L0.605469 6.80859L0.507812 6.94141L0.601562 7.06641L0.460938 7.26172L0.507812 7.32812L0.171875 7.77734V7.78125Z" fill="#FAAE29"/>
<path fill-rule="evenodd" clip-rule="evenodd" d="M0.171875 6.16797L0.21875 6.30078V6.49219H0.363281L0.460938 6.55859L0.363281 6.62109H0.222656V6.8125L0.171875 6.94141V6.16797Z" fill="#FAAE29"/>
<path fill-rule="evenodd" clip-rule="evenodd" d="M0.171875 10.8633V10.7383L0.410156 10.4141L0.363281 10.3516L0.503906 10.1562L0.457031 10.0938L0.363281 10.2188L0.3125 10.1562L0.652344 9.70703L0.699219 9.76953L0.652344 9.83594L0.75 9.96484L0.988281 9.64453L0.746094 9.32812L0.652344 9.44922L0.699219 9.51172L0.652344 9.57812L0.3125 9.125L0.363281 9.0625L0.457031 9.19141L0.507812 9.125L0.363281 8.9375L0.410156 8.87109L0.171875 8.55078V8.41797L0.507812 8.87109L0.457031 8.9375L0.601562 9.125L0.507812 9.25781L0.601562 9.38672L0.75 9.19141L1.08594 9.65234L0.746094 10.0938L0.605469 9.89844L0.507812 10.0273L0.601562 10.1562L0.460938 10.3516L0.507812 10.4141L0.171875 10.8633Z" fill="#FAAE29"/>
<path fill-rule="evenodd" clip-rule="evenodd" d="M0.171875 9.25781L0.222656 9.38672V9.58203H0.363281L0.460938 9.64453L0.363281 9.70312H0.222656V9.89453L0.171875 10.0273V9.25391V9.25781Z" fill="#FAAE29"/>
<path fill-rule="evenodd" clip-rule="evenodd" d="M0.171875 13.7578V13.625L0.410156 13.3086L0.363281 13.2422L0.503906 13.0508L0.457031 12.9883L0.363281 13.1133L0.3125 13.0508L0.652344 12.6016L0.699219 12.6641L0.652344 12.7266L0.75 12.8555L0.988281 12.5352L0.746094 12.2188L0.652344 12.3438L0.699219 12.4062L0.652344 12.4688L0.3125 12.0195L0.363281 11.957L0.457031 12.0859L0.507812 12.0195L0.363281 11.8281L0.410156 11.7617L0.171875 11.4414V11.3125L0.507812 11.7617L0.457031 11.8281L0.601562 12.0195L0.507812 12.1484L0.601562 12.2773L0.75 12.0859L1.08594 12.543L0.746094 12.9883L0.605469 12.793L0.507812 12.918L0.601562 13.0508L0.460938 13.2422L0.507812 13.3086L0.171875 13.7578Z" fill="#FAAE29"/>
<path fill-rule="evenodd" clip-rule="evenodd" d="M0.171875 12.1484L0.21875 12.2773V12.4688H0.363281L0.460938 12.5352L0.363281 12.6016H0.222656V12.793L0.171875 12.918V12.1445V12.1484Z" fill="#FAAE29"/>
<path fill-rule="evenodd" clip-rule="evenodd" d="M5.95703 4.69141V4.5625L5.71875 4.24219L5.76562 4.17578L5.62109 3.98828L5.66797 3.91797L5.76562 4.05078L5.81641 3.98828L5.48047 3.53516L5.42969 3.60156L5.48047 3.66406L5.375 3.79297L5.14062 3.46875L5.37891 3.15625L5.48047 3.27734L5.42969 3.34375L5.47656 3.40625L5.8125 2.95703L5.76562 2.89453L5.66797 3.01953L5.62109 2.95703L5.76172 2.76172L5.71875 2.69922L5.95703 2.375V2.25L5.62109 2.69922L5.66797 2.76172L5.52734 2.95703L5.62109 3.08594L5.52344 3.21484L5.37891 3.01953L5.03906 3.47656L5.37891 3.91797L5.52344 3.72656L5.62109 3.85547L5.52344 3.98828L5.66797 4.17578L5.62109 4.24219L5.95703 4.69141Z" fill="#FAAE29"/>
<path fill-rule="evenodd" clip-rule="evenodd" d="M5.95703 3.08594L5.90625 3.21484V3.41016H5.76562L5.66797 3.47266L5.76172 3.53906H5.90625V3.73047L5.95703 3.85938V3.08594Z" fill="#FAAE29"/>
<path fill-rule="evenodd" clip-rule="evenodd" d="M5.97266 7.78125V7.64844L5.73438 7.33203L5.78125 7.26172L5.64062 7.07031L5.6875 7.00781L5.78125 7.13672L5.83203 7.07031L5.49219 6.62109L5.44141 6.6875L5.49219 6.75L5.39453 6.87891L5.15625 6.55859L5.39844 6.24219L5.49219 6.36328L5.44141 6.42578L5.49219 6.49219L5.83203 6.04297L5.78125 5.97656L5.6875 6.10547L5.63672 6.04297L5.78125 5.85156L5.73438 5.78516L5.97266 5.46484V5.33594L5.63672 5.78516L5.6875 5.85156L5.54297 6.04297L5.63672 6.16797L5.54297 6.30078L5.39844 6.10547L5.05859 6.5625L5.39844 7.00781L5.53906 6.8125L5.63672 6.94141L5.54297 7.07031L5.68359 7.26172L5.63672 7.32812L5.97266 7.77734V7.78125Z" fill="#FAAE29"/>
<path fill-rule="evenodd" clip-rule="evenodd" d="M5.97266 6.16797L5.92578 6.30078V6.49219H5.77734L5.67969 6.55859L5.77734 6.62109H5.91797V6.8125L5.97266 6.94141V6.16797Z" fill="#FAAE29"/>
<path fill-rule="evenodd" clip-rule="evenodd" d="M5.95703 10.8633V10.7383L5.71875 10.4141L5.76562 10.3516L5.62109 10.1562L5.66797 10.0938L5.76562 10.2188L5.81641 10.1562L5.48047 9.70703L5.42969 9.76953L5.48047 9.83594L5.375 9.96484L5.14062 9.64453L5.37891 9.32812L5.48047 9.44922L5.42969 9.51172L5.47656 9.57812L5.8125 9.125L5.76562 9.0625L5.66797 9.19141L5.62109 9.125L5.76172 8.9375L5.71875 8.87109L5.95703 8.55078V8.41797L5.62109 8.87109L5.66797 8.9375L5.52734 9.125L5.62109 9.25781L5.52344 9.38672L5.37891 9.19141L5.03906 9.65234L5.37891 10.0938L5.52344 9.89844L5.62109 10.0273L5.52344 10.1562L5.66797 10.3516L5.62109 10.4141L5.95312 10.8633H5.95703Z" fill="#FAAE29"/>
<path fill-rule="evenodd" clip-rule="evenodd" d="M5.95703 9.25781L5.90625 9.38672V9.58203H5.76562L5.66797 9.64453L5.76172 9.70703H5.90625V9.89844L5.95703 10.0312V9.25781Z" fill="#FAAE29"/>
<path fill-rule="evenodd" clip-rule="evenodd" d="M5.95703 13.625L5.71875 13.3086L5.76562 13.2422L5.62109 13.0508L5.66797 12.9883L5.76562 13.1133L5.81641 13.0508L5.48047 12.6016L5.42969 12.6641L5.48047 12.7266L5.375 12.8555L5.14062 12.5352L5.37891 12.2188L5.48047 12.3438L5.42969 12.4062L5.47656 12.4688L5.8125 12.0234L5.76562 11.9609L5.66797 12.0898L5.62109 12.0234L5.76172 11.832L5.71875 11.7656L5.95703 11.4453V11.3164L5.62109 11.7656L5.66797 11.832L5.52734 12.0234L5.62109 12.1523L5.52344 12.2812L5.37891 12.0898L5.03906 12.5469L5.37891 12.9883L5.52344 12.7969L5.62109 12.9219L5.52344 13.0547L5.66797 13.2461L5.62109 13.3086L5.95703 13.7617V13.625Z" fill="#FAAE29"/>
<path fill-rule="evenodd" clip-rule="evenodd" d="M5.95703 12.1484L5.90625 12.2773V12.4688H5.76562L5.66797 12.5352L5.76172 12.6016H5.90625V12.793L5.95703 12.918V12.1445V12.1484Z" fill="#FAAE29"/>
<path fill-rule="evenodd" clip-rule="evenodd" d="M0.171875 1.09375L0.410156 0.769531L0.363281 0.707031L0.503906 0.511719L0.457031 0.449219L0.363281 0.582031L0.3125 0.511719L0.652344 0.0625L0.699219 0.128906L0.652344 0.195312L0.75 0.324219L0.988281 0H1.08594L0.75 0.449219L0.601562 0.257812L0.507812 0.386719L0.601562 0.511719L0.460938 0.707031L0.503906 0.773438L0.171875 1.22266V1.09375ZM0.171875 0H0.460938L0.363281 0.0625H0.222656V0.257812L0.167969 0.386719V0H0.171875ZM5.95703 1.21875V1.09375L5.71875 0.769531L5.76562 0.707031L5.62109 0.511719L5.66797 0.449219L5.76562 0.582031L5.8125 0.511719L5.47656 0.0625L5.42969 0.128906L5.47656 0.195312L5.375 0.324219L5.13672 0H5.03906L5.37891 0.449219L5.52344 0.257812L5.62109 0.386719L5.52344 0.511719L5.66797 0.707031L5.62109 0.769531L5.95703 1.21875ZM5.95703 0H5.66797L5.76172 0.0625H5.90625V0.257812L5.95703 0.386719V0ZM2.58203 17.7422C2.58203 17.7422 2.79297 17.3789 3.3125 17.2695C3.83594 17.1562 3.92969 17.5117 4.22656 17.5117C4.52734 17.5117 5 17.2656 5 17.2656C5 17.2656 4.52734 17.7344 4.15625 17.7227C3.79297 17.7109 3.67188 17.4766 3.29688 17.5117C2.92188 17.5469 2.58203 17.7539 2.58203 17.7422Z" fill="#FAAE29"/>
<path fill-rule="evenodd" clip-rule="evenodd" d="M3.58984 17.7422C3.58984 17.7422 3.38281 17.3789 2.86328 17.2695C2.33594 17.1562 2.24609 17.5117 1.94922 17.5117C1.64844 17.5117 1.17578 17.2656 1.17578 17.2656C1.17578 17.2656 1.64844 17.7344 2.01562 17.7227C2.38281 17.7109 2.50781 17.4766 2.87891 17.5117C3.25391 17.5469 3.58984 17.7539 3.58984 17.7422Z" fill="#FAAE29"/>
<path fill-rule="evenodd" clip-rule="evenodd" d="M1.88281 17.1367C1.83594 17.043 1.71875 16.6211 1.78125 16.5703C1.875 16.5352 2.12109 16.9648 2.09766 17.3477C1.93359 17.4375 1.39453 17.3164 1.39844 17.2031C1.4375 17.043 1.74609 17.0977 1.88281 17.1367Z" fill="#FAAE29"/>
<path fill-rule="evenodd" clip-rule="evenodd" d="M1.55078 16.7695C1.52344 16.6641 1.47266 16.2227 1.54297 16.1875C1.64062 16.1797 1.8125 16.668 1.73047 17.0352C1.55859 17.0781 1.04688 16.8086 1.07031 16.6992C1.13281 16.5586 1.42188 16.6914 1.55078 16.7695Z" fill="#FAAE29"/>
<path fill-rule="evenodd" clip-rule="evenodd" d="M1.28516 16.3633C1.26172 16.25 1.25781 15.8008 1.32812 15.7773C1.42188 15.7852 1.55078 16.2969 1.4375 16.6523C1.26172 16.668 0.777344 16.3164 0.8125 16.2148C0.882812 16.082 1.16406 16.2617 1.28516 16.3633Z" fill="#FAAE29"/>
<path fill-rule="evenodd" clip-rule="evenodd" d="M1.07422 15.9258C1.06641 15.8086 1.10938 15.3633 1.18359 15.3555C1.27734 15.3789 1.34375 15.9141 1.19141 16.2422C1.01562 16.2227 0.578125 15.7734 0.628906 15.6797C0.710938 15.5625 0.96875 15.8008 1.07422 15.9258Z" fill="#FAAE29"/>
<path fill-rule="evenodd" clip-rule="evenodd" d="M0.925781 15.4648C0.933594 15.3477 1.02344 14.9219 1.09766 14.9258C1.1875 14.9688 1.19531 15.5078 1.01172 15.8008C0.839844 15.7461 0.453125 15.2227 0.507812 15.1367C0.609375 15.0352 0.835938 15.3203 0.929688 15.4648H0.925781Z" fill="#FAAE29"/>
<path fill-rule="evenodd" clip-rule="evenodd" d="M0.96875 14.9414C0.957031 15.3984 0.871094 15.4062 0.722656 15.0664C0.652344 14.9375 0.644531 14.4102 0.703125 14.3906C0.792969 14.3906 0.964844 14.7656 0.96875 14.9414Z" fill="#FAAE29"/>
<path fill-rule="evenodd" clip-rule="evenodd" d="M4.26562 17.1914C4.3125 17.0938 4.42578 16.6719 4.36719 16.6172C4.27344 16.582 4.03125 17.0117 4.05078 17.3984C4.21484 17.4883 4.75781 17.3633 4.75 17.25C4.71094 17.0938 4.40625 17.1445 4.26562 17.1875V17.1914Z" fill="#FAAE29"/>
<path fill-rule="evenodd" clip-rule="evenodd" d="M4.59766 16.8203C4.62891 16.7148 4.67188 16.2695 4.60547 16.2344C4.51172 16.2266 4.33594 16.7148 4.42188 17.0859C4.58984 17.1289 5.10547 16.8555 5.07812 16.75C5.01953 16.6055 4.72656 16.7422 4.59766 16.8203Z" fill="#FAAE29"/>
<path fill-rule="evenodd" clip-rule="evenodd" d="M4.86328 16.4102C4.88281 16.2969 4.89062 15.8477 4.82031 15.8281C4.72656 15.8359 4.59766 16.3438 4.71094 16.6992C4.88672 16.7148 5.37109 16.3633 5.33984 16.2617C5.26172 16.125 4.98828 16.3086 4.86328 16.4102Z" fill="#FAAE29"/>
<path fill-rule="evenodd" clip-rule="evenodd" d="M5.07422 15.9727C5.08203 15.8594 5.03906 15.4141 4.96484 15.4062C4.87109 15.4297 4.80469 15.9648 4.95703 16.293C5.13281 16.2695 5.57031 15.8242 5.52344 15.7305C5.4375 15.6094 5.18359 15.8477 5.07422 15.9727Z" fill="#FAAE29"/>
<path fill-rule="evenodd" clip-rule="evenodd" d="M5.22266 15.5117C5.21875 15.3984 5.125 14.9648 5.05469 14.9727C4.96094 15.0156 4.95312 15.5586 5.14062 15.8516C5.30859 15.7969 5.69531 15.2734 5.64062 15.1836C5.53906 15.0859 5.3125 15.3711 5.21875 15.5117H5.22266Z" fill="#FAAE29"/>
<path fill-rule="evenodd" clip-rule="evenodd" d="M5.17969 14.9922C5.19531 15.4492 5.27344 15.4492 5.42578 15.1133C5.49609 14.9883 5.50391 14.457 5.44141 14.4375C5.35547 14.4375 5.18359 14.8164 5.17969 14.9922Z" fill="#FAAE29"/>
<path fill-rule="evenodd" clip-rule="evenodd" d="M5.05859 11.5625H4.77344V11.7578H4.49609V11.9492H3.38672L3.19922 12.1484L3.29297 12.2461H3.75781L3.84766 12.1484H3.38672L3.47266 12.0469H4.125L3.84766 12.3398H3.20312L3.01953 12.2461L2.83203 12.3398H2.18359L1.90625 12.0469H2.55469L2.64844 12.1484H2.18359L2.27734 12.2461H2.74219L2.83203 12.1484L2.64844 11.9492H1.62891V11.7578H1.35156V11.5625H1.07422V10.6797H1.35156V10.4883H1.62891V10.2891H2.64844L2.83203 10.0977L2.74219 9.99609H2.27734L2.18359 10.0977H2.64844L2.55469 10.1914H1.90625L2.18359 9.89844H2.83594L3.02344 9.99609L3.20703 9.89844H3.85547L4.13281 10.1914H3.48437L3.39453 10.0977H3.85547L3.76172 9.99609H3.30078L3.20312 10.0977L3.39062 10.2891H4.5V10.4883H4.77734V10.6797H5.05859V11.5625Z" fill="#CA3745"/>
<path fill-rule="evenodd" clip-rule="evenodd" d="M2.18359 9.89453V9.89575H2.83734L3.02342 9.99306L3.20703 9.8954L3.85831 9.89575L3.85742 9.89659L4.13281 10.1875V10.1941H3.48157L3.48244 10.1933L3.39453 10.1015V10.095H3.84933L3.76054 9.99878H3.30192L3.20687 10.0976L3.39175 10.2864H4.5V10.2891L4.50269 10.2891V10.4856H4.77734V10.4883L4.78003 10.4883V10.677H5.05859V10.6797H5.06128V11.5625H5.05859V11.5652H4.77612V11.7578H4.77344V11.7605H4.49878V11.9492L4.49609 11.9492V11.9519H3.38788L3.20292 12.1484L3.29411 12.2434H3.75663L3.84154 12.1511H3.38989L3.38467 12.1467L3.47266 12.0427V12.0442H4.12216L4.12695 12.0487L3.84766 12.3438V12.3425H3.20175L3.01952 12.2491L2.83203 12.3428L2.18076 12.3425L2.18164 12.3417L1.90625 12.0508V12.0442H2.5576L2.55666 12.0451L2.64844 12.1445V12.1511H2.1899L2.27849 12.2434H2.74101L2.82838 12.1484L2.64726 11.9519H1.62891L1.62891 11.9492L1.62622 11.9492V11.7605H1.35156L1.35156 11.7578H1.34888V11.5652H1.07422V11.5625H1.07153V10.6797H1.07422V10.677H1.34888V10.4883L1.35156 10.4883L1.35156 10.4856H1.62622V10.2891L1.62891 10.2891L1.62891 10.2864H2.64729L2.82838 10.0976L2.74098 9.99878H2.27852L2.18973 10.095H2.64575L2.65034 10.0996L2.55469 10.1952V10.1941H1.90909L1.9043 10.1896L2.18359 9.89453ZM1.91249 10.1887H2.55358L2.64195 10.1003H2.1865L2.18162 10.0958L2.27734 9.99213V9.99341H2.74522L2.7442 9.99431L2.83397 10.0995L2.64844 10.2929V10.2917H1.63159V10.4883L1.62891 10.4883L1.62891 10.491H1.35425V10.6797H1.35156L1.35156 10.6824H1.0769V11.5598H1.35156L1.35156 11.5625H1.35425V11.7551H1.62891L1.62891 11.7578H1.63159V11.9465H2.65135L2.65041 11.9474L2.83401 12.1503L2.74219 12.2501V12.2488H2.27455L2.27541 12.248L2.18359 12.1523V12.1458H2.6423L2.55351 12.0496H1.91249L2.18475 12.3372H2.8314L3.02159 12.2421L3.02075 12.2437L3.20377 12.3372H3.8465L4.11876 12.0496H3.4739L3.39251 12.1458H3.84474L3.84963 12.1503L3.75781 12.2501V12.2488H3.29017L3.29103 12.248L3.19726 12.1466L3.38672 11.9453V11.9465H4.49341V11.7578H4.49609V11.7551H4.77075V11.5625H4.77344V11.5598H5.05591V10.6824H4.77734V10.6797H4.77466V10.491H4.5V10.4883L4.49731 10.4883V10.2917H3.38788L3.38871 10.2909L3.20119 10.0958L3.30078 9.99222V9.99341H3.76463L3.76369 9.99427L3.85547 10.0937V10.1003H3.40083L3.48552 10.1887H4.12657L3.85431 9.90112H3.2077L3.02125 10.0003L3.0222 9.99848L2.83528 9.90112H2.18475L1.91249 10.1887Z" fill="black"/>
<path fill-rule="evenodd" clip-rule="evenodd" d="M1.16797 11.4688H1.44141V11.6602H1.71875V11.8555H2.64844L3.01953 12.1484L3.39062 11.8555H4.41016V11.6641L4.6875 11.6602V11.4688H4.96875V10.7812H4.69141V10.5898H4.41406V10.3906H3.39062L3.02344 10.0977L2.65234 10.3906H1.72266V10.5898H1.44531V10.7812H1.16797V11.4688Z" fill="#00843D"/>
<path fill-rule="evenodd" clip-rule="evenodd" d="M3.0235 10.0737L3.39721 10.3718H4.43286V10.571H4.71021V10.7624H4.98755V11.4876H4.7063V11.6787L4.42896 11.6826V11.8743H3.39715L3.01953 12.1724L2.64191 11.8743H1.69995V11.679H1.42261V11.4876H1.14917V10.7624H1.42651V10.571H1.70386V10.3718H2.64582L3.0235 10.0737ZM3.02338 10.1217L2.65234 10.4146V10.4094H1.74146V10.6086H1.46411V10.8001H1.18677V11.4499H1.46021V11.6414H1.73755V11.8367H2.66328L2.66009 11.8407L3.01953 12.1245L3.39062 11.8315V11.8367H4.39136V11.6455L4.6687 11.6416V11.4499H4.94995V10.8001H4.67261V10.6086H4.39526V10.4094H3.37562L3.3789 10.4053L3.02338 10.1217Z" fill="#FAAE29"/>
<path fill-rule="evenodd" clip-rule="evenodd" d="M2.46094 10.4844L1.90625 10.9727V10.4844H2.46094ZM3.57422 10.4844L4.13281 10.9727V10.4844H3.57422ZM2.46094 11.7578L1.90625 11.2695V11.7578H2.46094ZM3.57422 11.7578L4.13281 11.2695V11.7578H3.57422ZM3.75781 10.7773L3.57422 10.9727H3.94531L3.75781 10.7773ZM2.27734 10.7773L2.09375 10.9727H2.46094L2.27734 10.7773ZM2.27734 11.4648L2.09375 11.2695H2.46094L2.27734 11.4648ZM3.75781 11.4648L3.57422 11.2695H3.94531L3.75781 11.4648Z" fill="#CA3745"/>
<path fill-rule="evenodd" clip-rule="evenodd" d="M3.01953 11.9531L2.83203 11.7578H3.20312L3.01953 11.9531ZM3.01953 10.9727L2.83203 10.7773H3.20312L3.01953 10.9727ZM3.01953 10.2891L2.83203 10.4883H3.20312L3.01953 10.2891ZM3.01953 11.2695L2.83203 11.4648H3.20312L3.01953 11.2695Z" fill="#FAAE29"/>
<path fill-rule="evenodd" clip-rule="evenodd" d="M3.57422 10.9766H3.94922V11.0742H3.57812L3.57422 10.9766Z" fill="#FAAE29"/>
<path fill-rule="evenodd" clip-rule="evenodd" d="M3.57422 10.9752H3.94922V10.9766H3.95056V11.0742H3.94922V11.0756H3.54455L3.57678 11.0743L3.57422 11.0102V10.9752ZM3.94788 11.0729V10.9779H3.57562L3.57942 11.0729H3.94788Z" fill="black"/>
<path fill-rule="evenodd" clip-rule="evenodd" d="M2.1875 11.0742H2.37109V11.1719H2.1875V11.0742ZM3.66797 11.0742H3.85156V11.1719H3.66797V11.0742Z" fill="#CC0000"/>
<path fill-rule="evenodd" clip-rule="evenodd" d="M2.18884 11.0756V11.1705H2.36975V11.0756H2.18884ZM2.37109 11.0742V11.0729H2.1875V11.0742H2.18616V11.1719H2.1875V11.1732H2.37109V11.1719H2.37244V11.0742H2.37109ZM3.66931 11.0756V11.1705H3.85022V11.0756H3.66931ZM3.85156 11.0742V11.0729H3.66797V11.0742H3.66663V11.1719H3.66797V11.1732H3.85156V11.1719H3.85291V11.0742H3.85156Z" fill="black"/>
<path fill-rule="evenodd" clip-rule="evenodd" d="M2.83594 10.4883H3.20312V10.5859H2.83594V10.4883ZM2.83594 10.6836H3.20312V10.7812H2.83594V10.6836Z" fill="#990000"/>
<path fill-rule="evenodd" clip-rule="evenodd" d="M2.83728 10.4896V10.5846H3.20178V10.4896H2.83728ZM3.20312 10.4883L3.20312 10.4869H2.83594V10.4883H2.83459V10.5859H2.83594V10.5873H3.20312L3.20312 10.5859H3.20447V10.4883H3.20312ZM2.83728 10.6849V10.7799H3.20178V10.6849H2.83728ZM3.20312 10.6836L3.20312 10.6823H2.83594V10.6836L2.83459 10.6836V10.7812H2.83594V10.7826H3.20312L3.20312 10.7812H3.20447V10.6836L3.20312 10.6836Z" fill="black"/>
<path fill-rule="evenodd" clip-rule="evenodd" d="M2.74219 10.5859H3.29688V10.6836H2.74219V10.5859ZM2.83594 11.4688H3.20312V11.5625H2.83594V11.4688ZM2.83594 11.6602H3.20312V11.7578L2.83594 11.7578V11.6602ZM2.74219 11.5625H3.29688V11.6602H2.74219V11.5625Z" fill="#990000"/>
<path fill-rule="evenodd" clip-rule="evenodd" d="M2.74353 10.5873V10.6823H3.29553V10.5873H2.74353ZM3.29688 10.5859L3.29687 10.5846H2.74219V10.5859H2.74084V10.6836H2.74219V10.6849H3.29687L3.29688 10.6836H3.29822V10.5859H3.29688ZM2.83728 11.4701V11.5612H3.20178V11.4701H2.83728ZM3.20312 11.4688L3.20312 11.4674H2.83594V11.4688H2.83459V11.5612H2.74219V11.5625H2.74084V11.6602L2.74219 11.6602V11.6615H2.83459V11.7578H2.83594V11.7592H3.20312L3.20312 11.7578L3.20447 11.7578V11.6615H3.29687L3.29688 11.6602L3.29822 11.6602V11.5625H3.29688L3.29687 11.5612H3.20447V11.4688H3.20312ZM2.74353 11.5638V11.6588H3.29553V11.5638H2.74353ZM3.20178 11.6615H2.83728V11.7565H3.20178V11.6615Z" fill="black"/>
<path fill-rule="evenodd" clip-rule="evenodd" d="M3.57422 11.1719H3.94922V11.2695H3.57812L3.57422 11.1719ZM2.09375 10.9766H2.46484V11.0742H2.09375V10.9766ZM2.09375 11.168H2.46484V11.2695H2.09375V11.168ZM2 11.0742H2.18359V11.1719H2V11.0742ZM2.37109 11.0742H2.55469V11.1719L2.37109 11.1719V11.0742ZM3.48438 11.0742H3.66797V11.1719L3.48438 11.1719V11.0742ZM3.85547 11.0742H4.03906V11.1719H3.85547V11.0742Z" fill="#FAAE29"/>
<path fill-rule="evenodd" clip-rule="evenodd" d="M2.09509 10.9779V11.0729H2.4635V10.9779H2.09509ZM2.46484 10.9766V10.9752H2.09375V10.9766H2.09241V11.0729H2V11.0742H1.99866V11.1719H2V11.1732H2.09241V11.2695H2.09375V11.2709H2.46484V11.2695H2.46619V11.1732H2.55469V11.1719H2.55603V11.0742H2.55469V11.0729H2.46619V10.9766H2.46484ZM2.55334 11.0756H2.37244V11.1666H2.46484V11.168H2.46619V11.1705H2.55334V11.0756ZM2.4635 11.1705V11.1693H2.37244V11.1705H2.4635ZM2.37109 11.1719L2.36975 11.1719V11.1693H2.18494V11.1719H2.18359L2.18359 11.1732H2.09509V11.2682H2.4635V11.1732H2.37109V11.1719ZM2.09509 11.1705H2.18225V11.1693H2.09509V11.1705ZM2.09375 11.168V11.1666H2.18225V11.0756H2.00134V11.1705H2.09241V11.168H2.09375ZM2.18494 11.0756V11.1666H2.36975L2.36975 11.0756H2.18494ZM3.48572 11.0756V11.1705H3.66663V11.0756H3.48572ZM3.66797 11.0742V11.0729H3.48438V11.0742H3.48303V11.1719H3.48438V11.1732H3.57422V11.2055L3.57678 11.2696L3.54455 11.2709H3.94922V11.2695H3.95056V11.1732H4.03906L4.03906 11.1719H4.04041V11.0742H4.03906L4.03906 11.0729H3.85547V11.0742H3.85413V11.1705L3.66931 11.1705L3.66931 11.0742H3.66797ZM3.57562 11.1732L3.57942 11.2682H3.94788V11.1732H3.57562ZM3.85681 11.1705H4.03772V11.0756H3.85681V11.1705Z" fill="black"/>
<path d="M2.79297 11.6328C2.80469 11.6328 2.81641 11.6211 2.81641 11.6094C2.81641 11.5938 2.80469 11.582 2.79297 11.582C2.77734 11.582 2.76953 11.5938 2.76953 11.6094C2.76953 11.6211 2.77734 11.6328 2.79297 11.6328Z" fill="white"/>
<path d="M3.01953 11.6328C3.03516 11.6328 3.04297 11.6211 3.04297 11.6094C3.04297 11.5938 3.03516 11.582 3.01953 11.582C3.00781 11.582 2.99609 11.5938 2.99609 11.6094C2.99609 11.6211 3.00781 11.6328 3.01953 11.6328Z" fill="white"/>
<path d="M3.25391 11.6328C3.26562 11.6328 3.27734 11.6211 3.27734 11.6094C3.27734 11.5938 3.26562 11.582 3.25391 11.582C3.23828 11.582 3.23047 11.5938 3.23047 11.6094C3.23047 11.6211 3.23828 11.6328 3.25391 11.6328Z" fill="white"/>
<path d="M2.88281 11.5391C2.89453 11.5391 2.90625 11.5273 2.90625 11.5156C2.90625 11.5 2.89453 11.4883 2.88281 11.4883C2.87109 11.4883 2.85938 11.5 2.85938 11.5156C2.85938 11.5273 2.87109 11.5391 2.88281 11.5391Z" fill="white"/>
<path d="M3.15625 11.5391C3.17188 11.5391 3.17969 11.5273 3.17969 11.5156C3.17969 11.5 3.17188 11.4883 3.15625 11.4883C3.14453 11.4883 3.13281 11.5 3.13281 11.5156C3.13281 11.5273 3.14453 11.5391 3.15625 11.5391Z" fill="white"/>
<path d="M2.87891 11.7305C2.89453 11.7305 2.90234 11.7188 2.90234 11.707C2.90234 11.6914 2.89453 11.6797 2.87891 11.6797C2.86719 11.6797 2.85547 11.6914 2.85547 11.707C2.85547 11.7188 2.86719 11.7305 2.87891 11.7305Z" fill="white"/>
<path d="M3.15625 11.7344C3.17188 11.7344 3.17969 11.7227 3.17969 11.7109C3.17969 11.6953 3.17188 11.6836 3.15625 11.6836C3.14453 11.6836 3.13281 11.6953 3.13281 11.7109C3.13281 11.7227 3.14453 11.7344 3.15625 11.7344Z" fill="white"/>
<path d="M3.52734 11.1445C3.53906 11.1445 3.55078 11.1328 3.55078 11.1172C3.55078 11.1055 3.53906 11.0938 3.52734 11.0938C3.51172 11.0938 3.50391 11.1055 3.50391 11.1172C3.50391 11.1328 3.51172 11.1445 3.52734 11.1445Z" fill="white"/>
<path d="M3.75781 11.1445C3.77344 11.1445 3.78125 11.1328 3.78125 11.1172C3.78125 11.1055 3.77344 11.0938 3.75781 11.0938C3.74609 11.0938 3.73438 11.1055 3.73438 11.1172C3.73438 11.1328 3.74609 11.1445 3.75781 11.1445Z" fill="white"/>
<path d="M3.99219 11.1445C4.00391 11.1445 4.01562 11.1328 4.01562 11.1172C4.01562 11.1055 4.00391 11.0938 3.99219 11.0938C3.97656 11.0938 3.96875 11.1055 3.96875 11.1172C3.96875 11.1328 3.97656 11.1445 3.99219 11.1445Z" fill="white"/>
<path d="M3.62109 11.0469C3.63281 11.0469 3.64453 11.0352 3.64453 11.0195C3.64453 11.0078 3.63281 10.9961 3.62109 10.9961C3.60938 10.9961 3.59766 11.0078 3.59766 11.0195C3.59766 11.0352 3.60938 11.0469 3.62109 11.0469Z" fill="white"/>
<path d="M3.89453 11.0469C3.91016 11.0469 3.91797 11.0352 3.91797 11.0195C3.91797 11.0078 3.91016 10.9961 3.89453 10.9961C3.88281 10.9961 3.87109 11.0078 3.87109 11.0195C3.87109 11.0352 3.88281 11.0469 3.89453 11.0469Z" fill="white"/>
<path d="M3.61719 11.2383C3.63281 11.2383 3.64062 11.2266 3.64062 11.2109C3.64062 11.1992 3.63281 11.1875 3.61719 11.1875C3.60547 11.1875 3.59375 11.1992 3.59375 11.2109C3.59375 11.2266 3.60547 11.2383 3.61719 11.2383Z" fill="white"/>
<path d="M3.89453 11.2422C3.91016 11.2422 3.91797 11.2305 3.91797 11.2148C3.91797 11.2031 3.91016 11.1914 3.89453 11.1914C3.88281 11.1914 3.87109 11.2031 3.87109 11.2148C3.87109 11.2305 3.88281 11.2422 3.89453 11.2422Z" fill="white"/>
<path d="M2.78906 10.6602C2.80078 10.6602 2.8125 10.6484 2.8125 10.6328C2.8125 10.6211 2.80078 10.6094 2.78906 10.6094C2.77734 10.6094 2.76562 10.6211 2.76562 10.6328C2.76562 10.6484 2.77734 10.6602 2.78906 10.6602Z" fill="white"/>
<path d="M3.01953 10.6602C3.03516 10.6602 3.04297 10.6484 3.04297 10.6328C3.04297 10.6211 3.03516 10.6094 3.01953 10.6094C3.00781 10.6094 2.99609 10.6211 2.99609 10.6328C2.99609 10.6484 3.00781 10.6602 3.01953 10.6602Z" fill="white"/>
<path d="M3.25391 10.6523C3.26562 10.6523 3.27734 10.6445 3.27734 10.6289C3.27734 10.6172 3.26562 10.6055 3.25391 10.6055C3.23828 10.6055 3.23047 10.6172 3.23047 10.6289C3.23047 10.6445 3.23828 10.6523 3.25391 10.6523Z" fill="white"/>
<path d="M2.87891 10.5625C2.89453 10.5625 2.90234 10.5508 2.90234 10.5352C2.90234 10.5234 2.89453 10.5117 2.87891 10.5117C2.86719 10.5117 2.85547 10.5234 2.85547 10.5352C2.85547 10.5508 2.86719 10.5625 2.87891 10.5625Z" fill="white"/>
<path d="M3.15625 10.5625C3.17188 10.5625 3.17969 10.5508 3.17969 10.5352C3.17969 10.5234 3.17188 10.5117 3.15625 10.5117C3.14453 10.5117 3.13281 10.5234 3.13281 10.5352C3.13281 10.5508 3.14453 10.5625 3.15625 10.5625Z" fill="white"/>
<path d="M2.87891 10.75C2.89453 10.75 2.90234 10.7422 2.90234 10.7266C2.90234 10.7148 2.89453 10.7031 2.87891 10.7031C2.86719 10.7031 2.85547 10.7148 2.85547 10.7266C2.85547 10.7422 2.86719 10.75 2.87891 10.75Z" fill="white"/>
<path d="M3.15625 10.7578C3.17188 10.7578 3.17969 10.7461 3.17969 10.7305C3.17969 10.7188 3.17188 10.707 3.15625 10.707C3.14453 10.707 3.13281 10.7188 3.13281 10.7305C3.13281 10.7461 3.14453 10.7578 3.15625 10.7578Z" fill="white"/>
<path d="M2.04688 11.1523C2.05859 11.1523 2.07031 11.1406 2.07031 11.1289C2.07031 11.1133 2.05859 11.1016 2.04688 11.1016C2.03516 11.1016 2.02344 11.1133 2.02344 11.1289C2.02344 11.1406 2.03516 11.1523 2.04688 11.1523Z" fill="white"/>
<path d="M2.27734 11.1523C2.29297 11.1523 2.30078 11.1406 2.30078 11.1289C2.30078 11.1133 2.29297 11.1016 2.27734 11.1016C2.26562 11.1016 2.25391 11.1133 2.25391 11.1289C2.25391 11.1406 2.26562 11.1523 2.27734 11.1523Z" fill="white"/>
<path d="M2.51172 11.1484C2.52344 11.1484 2.53516 11.1367 2.53516 11.1211C2.53516 11.1094 2.52344 11.0977 2.51172 11.0977C2.49609 11.0977 2.48828 11.1094 2.48828 11.1211C2.48828 11.1367 2.49609 11.1484 2.51172 11.1484Z" fill="white"/>
<path d="M2.14062 11.0547C2.15625 11.0547 2.16406 11.043 2.16406 11.0312C2.16406 11.0156 2.15625 11.0039 2.14062 11.0039C2.12891 11.0039 2.11719 11.0156 2.11719 11.0312C2.11719 11.043 2.12891 11.0547 2.14062 11.0547Z" fill="white"/>
<path d="M2.41406 11.0547C2.42969 11.0547 2.4375 11.043 2.4375 11.0312C2.4375 11.0156 2.42969 11.0039 2.41406 11.0039C2.40234 11.0039 2.39062 11.0156 2.39062 11.0312C2.39062 11.043 2.40234 11.0547 2.41406 11.0547Z" fill="white"/>
<path d="M2.13672 11.2461C2.15234 11.2461 2.16016 11.2344 2.16016 11.2227C2.16016 11.207 2.15234 11.1953 2.13672 11.1953C2.125 11.1953 2.11328 11.207 2.11328 11.2227C2.11328 11.2344 2.125 11.2461 2.13672 11.2461Z" fill="white"/>
<path d="M2.41406 11.25C2.42969 11.25 2.4375 11.2383 2.4375 11.2266C2.4375 11.2109 2.42969 11.1992 2.41406 11.1992C2.40234 11.1992 2.39062 11.2109 2.39062 11.2266C2.39062 11.2383 2.40234 11.25 2.41406 11.25Z" fill="white"/>
<path fill-rule="evenodd" clip-rule="evenodd" d="M3.38281 8.99219L3.54297 8.91406L3.70312 8.99219H3.38281ZM2.90625 8.99219L3.0625 8.91406L3.22656 8.99219H2.90625ZM2.42578 8.99219L2.58594 8.91406L2.74609 8.99219H2.42578ZM3.38281 7.26953L3.54297 7.34766L3.70312 7.27344H3.38281V7.26953ZM2.90625 7.26953L3.0625 7.34766L3.22656 7.27344H2.90625V7.26953ZM2.42578 7.26953L2.58594 7.34766L2.74609 7.27344H2.42578V7.26953Z" fill="white"/>
<path fill-rule="evenodd" clip-rule="evenodd" d="M3.25 9.21484L3.0625 9.36719L2.87891 9.21484L2.69141 9.36719L2.50391 9.21484V9.29297L2.62891 9.36328L2.56641 9.44141V9.51172H2.62891L2.69141 9.44141L2.75391 9.51172H2.81641V9.44141L2.75391 9.36719L2.87891 9.29297L3.00391 9.36328L2.94141 9.44141V9.51172H3.00391L3.0625 9.44141L3.125 9.51172H3.1875V9.44141L3.125 9.36719L3.25 9.29297L3.37109 9.36328L3.3125 9.44141V9.51172H3.37109L3.4375 9.44141L3.5 9.51172H3.55859V9.44141L3.5 9.36719L3.62109 9.29297V9.21094L3.4375 9.36328L3.25 9.21094V9.21484ZM3.25 7.05078L3.0625 6.89844L2.87891 7.05078L2.69141 6.89844L2.50391 7.05078V6.97656L2.62891 6.89844L2.56641 6.82812V6.75H2.62891L2.69141 6.82422L2.75391 6.75H2.81641V6.82422L2.75391 6.90234L2.87891 6.97266L3.00391 6.90234L2.94141 6.82422V6.75H3.00391L3.0625 6.82422L3.125 6.75H3.1875V6.82422L3.125 6.90234L3.25 6.97266L3.37109 6.90234L3.3125 6.82422V6.75H3.37109L3.4375 6.82422L3.5 6.75H3.55859V6.82422L3.5 6.90234L3.62109 6.97266V7.05078L3.4375 6.89844L3.25 7.05078ZM4.65625 8.29297L4.85938 8.13281L4.66016 7.96875L4.85938 7.80859L4.66016 7.64453H4.75781L4.85938 7.75391L4.95703 7.69922H5.05859V7.75391L4.95703 7.80859L5.05859 7.85938V7.91797H4.95703L4.85938 7.85938L4.75781 7.96875L4.85938 8.07422L4.95703 8.02734H5.05859V8.07812L4.95703 8.13281L5.05859 8.18359V8.24219H4.95703L4.85938 8.18359L4.75781 8.29297L4.85938 8.39844L4.95703 8.34766H5.05859V8.40234L4.95703 8.45703L5.05859 8.51172V8.5625H4.95703L4.85938 8.51172L4.75781 8.61719H4.66016L4.85938 8.45703L4.66016 8.29297H4.65625ZM1.47266 8.29297L1.26953 8.13281L1.47266 7.96875L1.26953 7.80859L1.47266 7.64453H1.36719L1.26953 7.75391L1.17188 7.69922H1.06641V7.75391L1.17188 7.80469L1.07031 7.85547V7.91406H1.17188L1.26953 7.85547L1.36719 7.96484L1.26953 8.07031L1.17188 8.02344H1.06641V8.07422L1.16797 8.12891L1.06641 8.17969V8.23828H1.17188L1.26953 8.17969L1.36719 8.28906L1.26953 8.39844L1.17188 8.34766H1.06641V8.39844L1.16797 8.45312L1.06641 8.50781V8.55859H1.17188L1.26953 8.50781L1.36719 8.61328H1.47266L1.26953 8.45312L1.47266 8.28906V8.29297Z" fill="#00843D"/>
<path fill-rule="evenodd" clip-rule="evenodd" d="M4.73438 8.84375H4.81641V8.91797H4.73438V8.84375ZM4.65234 8.91797H4.73438V8.99219H4.66016L4.65234 8.91797ZM4.25781 9.29297H4.33984V9.36719H4.25781V9.29297ZM4.33984 9.21484H4.41406V9.29297H4.33984V9.21484ZM1.70703 9.21484H1.78906V9.29297H1.70312L1.70703 9.21484ZM1.30859 8.84375H1.38672V8.91797H1.30859V8.84375ZM1.38672 8.91797H1.46875V8.99219H1.38672V8.91797ZM1.38672 7.26953H1.46875V7.34766H1.38672V7.26953ZM1.30859 7.34766H1.38672V7.42188H1.30859V7.34766ZM1.78906 6.89844H1.86328V6.97656H1.79297L1.78906 6.89844ZM1.70703 6.97656H1.78906V7.05078H1.70312L1.70703 6.97656ZM4.25781 6.89844H4.33984V6.97656H4.25781V6.89844ZM4.33984 6.97656H4.41406V7.05078H4.33984V6.97656ZM4.65234 7.26953H4.73438V7.34766H4.66016L4.65234 7.26953ZM4.73438 7.35156H4.81641V7.42188H4.73438V7.35156ZM1.79297 9.29297H1.87109V9.36719H1.79297V9.29297Z" fill="#00843D"/>
<path fill-rule="evenodd" clip-rule="evenodd" d="M1.70703 6.85225V6.97003H1.78906V6.8919H1.86328L1.86328 6.89844L1.86982 6.89844V6.97656L1.86328 6.97656L1.86328 6.9831H1.7956V7.05078L1.78906 7.05078L1.78906 7.0553L1.6966 7.05044L1.70014 6.9831H1.66229L1.70024 6.9812L1.70703 6.85225ZM1.71323 6.9831L1.71001 7.04425H1.78253V6.9831H1.71323ZM1.78675 6.9831L1.78906 7.02928V6.9831H1.78675ZM1.78906 7.0553V7.05732H1.82727L1.78906 7.0553ZM1.85675 6.97003V6.90497H1.79593L1.79918 6.97003H1.85675ZM4.25781 6.8919H4.33984L4.33984 6.89844L4.34638 6.89844V6.97003H4.41406L4.41406 6.97656L4.4206 6.97656V7.05078L4.41406 7.05078L4.41406 7.05732H4.33984L4.33984 7.05078L4.33331 7.05078V6.9831H4.25781L4.25781 6.97656L4.25128 6.97656V6.89844L4.25781 6.89844L4.25781 6.8919ZM4.26435 6.90497V6.97003H4.33331V6.90497H4.26435ZM4.34638 6.9831V7.04425H4.40753V6.9831H4.34638ZM1.38672 7.263H1.46875L1.46875 7.26953L1.47528 7.26953V7.34766L1.46875 7.34766L1.46875 7.35419H1.39325V7.42188L1.38672 7.42188L1.38672 7.42841H1.30859L1.30859 7.42188L1.30206 7.42188V7.34766L1.30859 7.34766L1.30859 7.34112H1.38019V7.26953L1.38672 7.26953L1.38672 7.263ZM1.39325 7.27607V7.34112H1.46222V7.27607H1.39325ZM1.38019 7.35419H1.31513V7.41534H1.38019V7.35419ZM4.65234 7.263H4.73438L4.73438 7.26953L4.74091 7.26953V7.34503H4.81641L4.81641 7.35156L4.82294 7.35156V7.42188L4.81641 7.42188L4.81641 7.42841H4.73438L4.73438 7.42188L4.72784 7.42188V7.35419H4.59482L4.65366 7.34831L4.65234 7.3352V7.263ZM4.74091 7.3581V7.41534H4.80987V7.3581H4.74091ZM4.72784 7.34112V7.27607H4.65956L4.66607 7.34112H4.72784ZM1.30859 8.83722H1.38672L1.38672 8.84375H1.39325V8.91144H1.46875L1.46875 8.91797H1.47528V8.99219H1.46875L1.46875 8.99872H1.38672L1.38672 8.99219H1.38019V8.9245H1.30859L1.30859 8.91797H1.30206V8.84375H1.30859L1.30859 8.83722ZM1.31513 8.85028V8.91144H1.38019V8.85028H1.31513ZM1.39325 8.9245V8.98565H1.46222V8.9245H1.39325ZM4.73438 8.83722H4.81641L4.81641 8.84375H4.82294V8.91797H4.81641L4.81641 8.9245H4.74091V8.99219H4.73438L4.73438 8.99872H4.59808L4.65366 8.99287L4.65234 8.98038V8.91144H4.72784V8.84375H4.73438L4.73438 8.83722ZM4.74091 8.85028V8.91144H4.80987V8.85028H4.74091ZM4.72784 8.9245H4.6596L4.66604 8.98565H4.72784V8.9245ZM1.70703 9.084V9.20831H1.78906L1.78906 9.21484L1.7956 9.21484V9.28644H1.87109L1.87109 9.29297H1.87763V9.36719H1.87109L1.87109 9.37372H1.79297L1.79297 9.36719H1.78644V9.29713L1.6966 9.29264L1.70703 9.084ZM1.70999 9.28644H1.78253V9.22138H1.71325L1.70999 9.28644ZM1.78906 9.29727V9.2995H1.79297V9.29746L1.78906 9.29727ZM1.7995 9.29779V9.36065H1.86456V9.2995H1.8338L1.7995 9.29779ZM4.33984 9.20831H4.41406L4.41406 9.21484L4.4206 9.21484V9.29297H4.41406L4.41406 9.2995H4.34638V9.36719H4.33984L4.33984 9.37372H4.25781L4.25781 9.36719H4.25128V9.29297H4.25781L4.25781 9.28644H4.33331V9.21484L4.33984 9.21484L4.33984 9.20831ZM4.34638 9.22138V9.28644H4.40753V9.22138H4.34638ZM4.33331 9.2995H4.26435V9.36065H4.33331V9.2995Z" fill="black"/>
<path fill-rule="evenodd" clip-rule="evenodd" d="M2.82031 8.13281H2.58594V7.98438H2.74219V7.84766H2.89844V7.71875H3.05469V7.87891C2.92578 7.87891 2.82031 7.98437 2.82031 8.13281Z" fill="white"/>
<path fill-rule="evenodd" clip-rule="evenodd" d="M3.29297 8.13281H3.52734V7.98438H3.36719V7.84766H3.21094V7.71875H3.05469V7.87891C3.1875 7.87891 3.29297 7.98437 3.29297 8.13281Z" fill="#FAAE29"/>
<path fill-rule="evenodd" clip-rule="evenodd" d="M3.29297 8.13281H3.52734V8.27734H3.36719V8.41797H3.21094V8.54297H3.05469V8.38672C3.1875 8.38672 3.29297 8.27734 3.29297 8.13281Z" fill="white"/>
<path fill-rule="evenodd" clip-rule="evenodd" d="M2.82031 8.13281H2.58594V8.27734H2.74219V8.41797H2.89844V8.54297H3.05469V8.38672C2.92578 8.38672 2.82031 8.27734 2.82031 8.13281Z" fill="#FAAE29"/>
<path fill-rule="evenodd" clip-rule="evenodd" d="M3.29297 8.13281H3.05469V7.87891C3.1875 7.87891 3.29297 7.99609 3.29297 8.13281Z" fill="#00843D"/>
<path fill-rule="evenodd" clip-rule="evenodd" d="M3.29297 8.13281H3.05469V8.38672C3.1875 8.38672 3.29297 8.27344 3.29297 8.13281Z" fill="#CA3745"/>
<path fill-rule="evenodd" clip-rule="evenodd" d="M2.82031 8.13281H3.05469V8.38672C2.92578 8.38672 2.82031 8.27344 2.82031 8.13281Z" fill="#00843D"/>
<path fill-rule="evenodd" clip-rule="evenodd" d="M2.82031 8.13281H3.05469V7.87891C2.92578 7.87891 2.82031 7.99609 2.82031 8.13281Z" fill="#CA3745"/>
<path fill-rule="evenodd" clip-rule="evenodd" d="M3.30078 9.06641L3.0625 8.91406L2.82422 9.06641L2.58594 8.91406L2.34766 9.06641V8.99219L2.50391 8.91406L2.42578 8.83984V8.76953H2.50391L2.58594 8.83984L2.66406 8.76953H2.74609V8.83984L2.66406 8.91406L2.82422 8.99219L2.98438 8.91406L2.90625 8.83984V8.76953H2.98438L3.0625 8.83984L3.14453 8.76953H3.22656V8.83984L3.14453 8.91406L3.30078 8.99219L3.46484 8.91406L3.38281 8.83984V8.76953H3.46484L3.54297 8.83984L3.62109 8.76953H3.70312V8.83984L3.62109 8.91406L3.78125 8.99219V9.0625L3.54297 8.91406L3.30078 9.06641ZM3.30078 7.19922L3.0625 7.34766L2.82422 7.19922L2.58594 7.34766L2.34766 7.19922V7.26953L2.50391 7.34766L2.42578 7.42188V7.5H2.50391L2.58594 7.42188L2.66406 7.5H2.74609V7.41797L2.66406 7.34766L2.82422 7.26953L2.98438 7.34375L2.90625 7.41797V7.49609H2.98438L3.0625 7.41797L3.14453 7.49609H3.22656V7.41797L3.14453 7.34766L3.30078 7.26953L3.46484 7.34375L3.38281 7.41797V7.49609H3.46484L3.54297 7.41797L3.62109 7.49609H3.70312V7.41797L3.62109 7.34766L3.78125 7.26953V7.19531L3.54297 7.34375L3.30078 7.19531V7.19922ZM4.17969 8.31641L4.0625 8.13281L4.17969 7.94531L4.0625 7.75781L4.17969 7.57422H4.12109L4.0625 7.69531L4.00391 7.63281H3.94141V7.69531L4.00391 7.75781L3.94141 7.82422V7.88281H4.00391L4.0625 7.82422L4.12109 7.94531L4.0625 8.06641L4.00391 8.00781H3.94141V8.06641L4.00391 8.13281L3.94141 8.19531V8.25781H4.00391L4.0625 8.19531L4.12109 8.31641L4.0625 8.44531L4.00391 8.38281H3.94141V8.44531L4.00391 8.50391L3.94141 8.56641V8.62891H4.00391L4.0625 8.56641L4.12109 8.69531H4.17969L4.0625 8.50391L4.17969 8.31641Z" fill="#00843D"/>
<path fill-rule="evenodd" clip-rule="evenodd" d="M2.34766 7.27734L2.03125 7.57031V8.69141L2.34766 8.99219L3.78906 8.99219L4.10156 8.69531V7.57422L3.78125 7.27734H2.34766ZM2.26562 7.04688L1.46875 7.79688V8.47266L2.26953 9.21484H3.86328L4.66016 8.46875V7.79297L3.86328 7.04688H2.26562Z" fill="#00843D"/>
<path fill-rule="evenodd" clip-rule="evenodd" d="M2.26562 7.03491V7.03816H3.87144L3.86924 7.04052L4.6729 7.79297H4.66887V8.47805L4.66611 8.47511L3.86328 9.22678V9.22356H2.26146L2.26361 9.22123L1.45593 8.47266H1.46004V7.78762L1.46278 7.79053L2.26562 7.03491ZM2.26908 7.05559L1.47746 7.80064V8.46885L2.27295 9.20613H3.85984L4.65144 8.46497V7.79675L3.85984 7.05559H2.26908ZM2.34766 7.26547L2.34766 7.26953L3.78932 7.26863L3.78717 7.27095L4.11438 7.57422H4.11027V8.70448L4.10756 8.70163L3.78906 9.0042V9.0009H2.33937L2.34165 8.9985L2.01861 8.69141H2.02254V7.5609L2.02533 7.56392L2.34766 7.26547ZM2.35107 7.28606L2.03996 7.57412V8.68767L2.35114 8.98348H3.78558L4.09285 8.69157V7.57802L3.77783 7.28606H2.35107Z" fill="black"/>
<path fill-rule="evenodd" clip-rule="evenodd" d="M2.67969 9.06641L2.80469 9.21875L2.93359 9.06641H2.67578H2.67969Z" fill="#FAAE29"/>
<path fill-rule="evenodd" clip-rule="evenodd" d="M2.92795 9.06164L2.93724 9.06949L2.82513 9.20197L2.801 9.22178L2.67743 9.07118H2.67578V9.06164H2.92795ZM2.68977 9.07118H2.92331L2.80474 9.2113L2.68977 9.07118Z" fill="black"/>
<path fill-rule="evenodd" clip-rule="evenodd" d="M2.67969 7.19922L2.80469 7.04688L2.93359 7.19922H2.67578H2.67969Z" fill="#FAAE29"/>
<path fill-rule="evenodd" clip-rule="evenodd" d="M2.7845 7.06396L2.67743 7.19445H2.67578V7.20399H2.67969V7.20674L2.68194 7.20399H2.93359V7.19183L2.80833 7.04379L2.7845 7.06396ZM2.80474 7.05433L2.68977 7.19445H2.92331L2.80474 7.05433Z" fill="black"/>
<path fill-rule="evenodd" clip-rule="evenodd" d="M3.19141 7.19922L3.31641 7.04688L3.44922 7.19922H3.1875H3.19141Z" fill="#FAAE29"/>
<path fill-rule="evenodd" clip-rule="evenodd" d="M3.29473 7.06578L3.18915 7.19445H3.1875V7.20399H3.19141V7.20674L3.19366 7.20399H3.44922V7.19196L3.32 7.04374L3.29473 7.06578ZM3.31652 7.05426L3.20149 7.19445H3.43873L3.31652 7.05426Z" fill="black"/>
<path fill-rule="evenodd" clip-rule="evenodd" d="M3.19141 9.06641L3.31641 9.21875L3.44922 9.06641H3.1875H3.19141Z" fill="#FAAE29"/>
<path fill-rule="evenodd" clip-rule="evenodd" d="M3.44375 9.06164L3.45282 9.06954L3.33864 9.20051L3.31272 9.22178L3.18915 9.07118H3.1875V9.06164H3.44375ZM3.20149 9.07118H3.43873L3.31652 9.21136L3.20149 9.07118Z" fill="black"/>
<path fill-rule="evenodd" clip-rule="evenodd" d="M2.42578 7.19922L2.55078 7.04688L2.67969 7.19922H2.42188H2.42578Z" fill="#CA3745"/>
<path fill-rule="evenodd" clip-rule="evenodd" d="M2.53059 7.06396L2.42352 7.19445H2.42188V7.20399H2.42578V7.20674L2.42804 7.20399H2.67969L2.67969 7.19183L2.55442 7.04379L2.53059 7.06396ZM2.55084 7.05433L2.43587 7.19445H2.6694L2.55084 7.05433Z" fill="black"/>
<path fill-rule="evenodd" clip-rule="evenodd" d="M2.93359 7.19922L3.0625 7.04688L3.19141 7.19922H2.93359Z" fill="#CA3745"/>
<path fill-rule="evenodd" clip-rule="evenodd" d="M2.92995 7.19614L3.04049 7.0655L3.06614 7.04379L3.19141 7.19183V7.20399H2.93923L2.92995 7.19614ZM3.18112 7.19445L3.0625 7.05426L2.94388 7.19445H3.18112Z" fill="black"/>
<path fill-rule="evenodd" clip-rule="evenodd" d="M3.44531 7.19922L3.57031 7.04688L3.69922 7.19922H3.44141H3.44531Z" fill="#CA3745"/>
<path fill-rule="evenodd" clip-rule="evenodd" d="M3.55012 7.06396L3.44306 7.19445H3.44141V7.20399H3.44531V7.20674L3.44757 7.20399H3.69922V7.19183L3.57396 7.04379L3.55012 7.06396ZM3.57037 7.05433L3.4554 7.19445H3.68893L3.57037 7.05433Z" fill="black"/>
<path fill-rule="evenodd" clip-rule="evenodd" d="M2.10938 8.84375L2.34766 9.0625H2.10938V8.84375Z" fill="#CA3745"/>
<path fill-rule="evenodd" clip-rule="evenodd" d="M2.09958 8.82145L2.37282 9.0723H2.10938V9.0625L2.09958 9.0625V8.82145ZM2.11918 9.0527H2.32249L2.11918 8.86605V9.0527Z" fill="black"/>
<path fill-rule="evenodd" clip-rule="evenodd" d="M1.94531 8.31641L2.06641 8.13281L1.94531 7.94531L2.06641 7.75781L1.94531 7.57422H2.00391L2.06641 7.69531L2.125 7.63281H2.18359V7.69531L2.125 7.75781L2.18359 7.82422V7.88281H2.125L2.06641 7.82422L2.00391 7.94531L2.06641 8.06641L2.125 8.00781H2.18359V8.06641L2.125 8.13281L2.18359 8.19531V8.25781H2.125L2.06641 8.19531L2.00391 8.31641L2.06641 8.44531L2.125 8.38281H2.18359V8.44531L2.125 8.50391L2.18359 8.56641V8.62891H2.125L2.06641 8.56641L2.00391 8.69531H1.94531L2.06641 8.50391L1.94531 8.31641Z" fill="#00843D"/>
<path fill-rule="evenodd" clip-rule="evenodd" d="M4.25781 7.92969H4.57812L4.66016 8L4.57812 8.06641H4.26172V7.92578L4.25781 7.92969Z" fill="#CA3745"/>
<path fill-rule="evenodd" clip-rule="evenodd" d="M4.25391 7.92578H4.25781V7.92349H4.58344L4.58216 7.92498L4.63857 7.97333L4.66406 8.00482L4.57812 8.07438V8.07261H4.26172V8.06641H4.25552V7.92739L4.25391 7.92578ZM4.26792 8.06021H4.57593L4.65047 7.99986L4.57583 7.93589H4.26792V8.06021Z" fill="black"/>
<path fill-rule="evenodd" clip-rule="evenodd" d="M2.10938 7.42188L1.94531 7.57422L1.94531 8.69141L2.10938 8.84375H1.87109V7.42188H2.10938Z" fill="#CA3745"/>
<path fill-rule="evenodd" clip-rule="evenodd" d="M1.87981 7.43059V8.83504H2.08719L1.93251 8.69141H1.9366V7.56484L1.93938 7.56783L2.08719 7.43059H1.87981ZM1.87109 8.84375H1.86238V7.42188H1.87109V7.41316H2.13156L1.95402 7.57802V8.68761L2.13156 8.85246H1.87109V8.84375Z" fill="black"/>
<path fill-rule="evenodd" clip-rule="evenodd" d="M2.42578 9.06641L2.55078 9.21875L2.67969 9.06641H2.42188H2.42578Z" fill="#CA3745"/>
<path fill-rule="evenodd" clip-rule="evenodd" d="M2.67405 9.06164L2.68333 9.06949L2.57123 9.20197L2.54709 9.22178L2.42352 9.07118H2.42188V9.06164H2.67405ZM2.43587 9.07118H2.6694L2.55084 9.2113L2.43587 9.07118Z" fill="black"/>
<path fill-rule="evenodd" clip-rule="evenodd" d="M2.93359 9.06641L3.0625 9.21875L3.19141 9.06641H2.93359Z" fill="#CA3745"/>
<path fill-rule="evenodd" clip-rule="evenodd" d="M2.93359 9.06164H3.18577L3.19505 9.06949L3.08451 9.20013L3.05886 9.22183L2.93359 9.07379V9.06164ZM2.94388 9.07118L3.0625 9.21136L3.18112 9.07118H2.94388Z" fill="black"/>
<path fill-rule="evenodd" clip-rule="evenodd" d="M3.44531 9.06641L3.57031 9.21875L3.69922 9.06641H3.44141H3.44531Z" fill="#CA3745"/>
<path fill-rule="evenodd" clip-rule="evenodd" d="M3.69358 9.06164L3.70286 9.06949L3.59076 9.20197L3.56662 9.22178L3.44306 9.07118H3.44141V9.06164H3.69358ZM3.4554 9.07118H3.68893L3.57037 9.2113L3.4554 9.07118Z" fill="black"/>
<path fill-rule="evenodd" clip-rule="evenodd" d="M4.01953 7.42188L4.17969 7.57422L4.17969 8.69141L4.01953 8.84375H4.25781V7.42188H4.01953Z" fill="#CA3745"/>
<path fill-rule="evenodd" clip-rule="evenodd" d="M3.99773 7.41316H4.25781V7.42188H4.26652V8.84375H4.25781V8.85246H3.99773L4.17098 8.68767V7.57796L3.99773 7.41316ZM4.2491 8.83504V7.43059H4.04133L4.19233 7.57422H4.1884V8.70056L4.18569 8.69772L4.04133 8.83504H4.2491Z" fill="black"/>
<path fill-rule="evenodd" clip-rule="evenodd" d="M4.01953 8.84375L3.78516 9.0625H4.01953V8.84375Z" fill="#CA3745"/>
<path fill-rule="evenodd" clip-rule="evenodd" d="M4.02933 8.8212V9.0625H4.01953V9.0723H3.76029L4.02933 8.8212ZM4.00973 9.0527V8.8663L3.81002 9.0527H4.00973Z" fill="black"/>
<path fill-rule="evenodd" clip-rule="evenodd" d="M4.01953 7.42188L3.78516 7.19922H4.01953V7.42188Z" fill="#CA3745"/>
<path fill-rule="evenodd" clip-rule="evenodd" d="M3.76061 7.18942H4.01953V7.19922H4.02933V7.4447L3.76061 7.18942ZM4.00973 7.20902H3.8097L4.00973 7.39905V7.20902Z" fill="black"/>
<path fill-rule="evenodd" clip-rule="evenodd" d="M2.10938 7.42188L2.34766 7.19922L2.10938 7.19922V7.42188Z" fill="#CA3745"/>
<path fill-rule="evenodd" clip-rule="evenodd" d="M2.10938 7.18942H2.3725L2.09958 7.44445V7.19922H2.10938V7.18942ZM2.11918 7.20902V7.3993L2.32281 7.20902H2.11918Z" fill="black"/>
<path fill-rule="evenodd" clip-rule="evenodd" d="M2.34766 7.27734L2.03125 7.57031V8.69141L2.34766 8.99219L3.78906 8.99219L4.10156 8.69531V7.57422L3.78125 7.27734H2.34766ZM2.34766 7.19922L1.95312 7.57031V8.69141L2.34766 9.06641H3.78906L4.18359 8.69141V7.57031L3.78125 7.19922L2.34766 7.19922Z" fill="#00843D"/>
<path fill-rule="evenodd" clip-rule="evenodd" d="M2.34766 7.18726V7.19051H3.78929L3.78716 7.19281L4.19644 7.57031H4.19231V8.70057L4.1896 8.69772L3.78906 9.07842V9.07512H2.33938L2.34165 9.07272L1.94048 8.69141H1.94531L1.94441 7.56105L1.94716 7.56397L2.34766 7.18726ZM2.35111 7.20793L1.96184 7.57408V8.68767L2.35114 9.05769H3.78558L4.17488 8.68767V7.57413L3.77785 7.20793H2.35111ZM2.34766 7.26547L2.34766 7.26953L3.78932 7.26863L3.78717 7.27095L4.11438 7.57422H4.11027V8.70448L4.10756 8.70163L3.78906 9.0042V9.0009H2.33937L2.34165 8.9985L2.01861 8.69141H2.02254V7.5609L2.02533 7.56392L2.34766 7.26547ZM2.35107 7.28606L2.03996 7.57412V8.68767L2.35114 8.98348H3.78558L4.09285 8.69157V7.57802L3.77783 7.28606H2.35107Z" fill="black"/>
<path fill-rule="evenodd" clip-rule="evenodd" d="M4.25781 8.0625H4.57812L4.66016 8.13281L4.57812 8.19922H4.26172V8.05859L4.25781 8.0625Z" fill="#FAAE29"/>
<path fill-rule="evenodd" clip-rule="evenodd" d="M4.25391 8.05859H4.25781V8.0563H4.58344L4.58216 8.05779L4.63857 8.10614L4.66406 8.13763L4.57813 8.20719V8.20542H4.26172L4.26172 8.19922H4.25552V8.06021L4.25391 8.05859ZM4.26792 8.19302H4.57593L4.65047 8.13268L4.57583 8.0687H4.26792V8.19302Z" fill="black"/>
<path fill-rule="evenodd" clip-rule="evenodd" d="M4.25781 8.19531H4.57812L4.66016 8.26562L4.57812 8.33203H4.26172V8.19141L4.25781 8.19531Z" fill="#CA3745"/>
<path fill-rule="evenodd" clip-rule="evenodd" d="M4.25391 8.19141H4.25781V8.18911H4.58344L4.58216 8.19061L4.63857 8.23896L4.66406 8.27044L4.57813 8.34001V8.33823H4.26172L4.26172 8.33203H4.25552V8.19302L4.25391 8.19141ZM4.26792 8.32583H4.57593L4.65047 8.26549L4.57583 8.20151H4.26792V8.32583Z" fill="black"/>
<path fill-rule="evenodd" clip-rule="evenodd" d="M4.25781 8.33203H4.57812L4.66016 8.39844L4.57812 8.46875H4.26172V8.32812L4.25781 8.33203Z" fill="#FAAE29"/>
<path fill-rule="evenodd" clip-rule="evenodd" d="M4.25391 8.32812H4.25781V8.32583H4.58314L4.58203 8.32721L4.63783 8.37239L4.66419 8.40314L4.57813 8.47691V8.47495H4.26172L4.26172 8.46875H4.25552V8.32974L4.25391 8.32812ZM4.26792 8.46255H4.57583L4.65047 8.39857L4.57593 8.33823H4.26792V8.46255Z" fill="black"/>
<path fill-rule="evenodd" clip-rule="evenodd" d="M4.25781 7.79297H4.57812L4.66016 7.86328L4.57812 7.92969L4.26172 7.92969V7.78906L4.25781 7.79297Z" fill="#FAAE29"/>
<path fill-rule="evenodd" clip-rule="evenodd" d="M4.25391 7.78906H4.25781V7.78677H4.58344L4.58216 7.78826L4.63857 7.83661L4.66406 7.8681L4.57813 7.93766V7.93589H4.26172L4.26172 7.92969H4.25552V7.79068L4.25391 7.78906ZM4.26792 7.92349H4.57593L4.65047 7.86315L4.57583 7.79917H4.26792V7.92349Z" fill="black"/>
<path fill-rule="evenodd" clip-rule="evenodd" d="M1.86719 7.92969H1.55078L1.46875 8L1.55078 8.06641H1.86328V7.92578L1.86719 7.92969Z" fill="#CA3745"/>
<path fill-rule="evenodd" clip-rule="evenodd" d="M1.86719 7.92187V7.92578H1.86948V8.06641H1.86328L1.86328 8.07261H1.54576L1.54688 8.07122L1.49108 8.02605L1.46472 7.99529L1.55078 7.92152V7.92349H1.86557L1.86719 7.92187ZM1.47843 7.99986L1.55298 8.06021H1.85708V7.93589H1.55307L1.47843 7.99986Z" fill="black"/>
<path fill-rule="evenodd" clip-rule="evenodd" d="M1.86719 8.0625H1.55078L1.46875 8.13281L1.55078 8.19922H1.86328V8.05859L1.86719 8.0625Z" fill="#FAAE29"/>
<path fill-rule="evenodd" clip-rule="evenodd" d="M1.86719 8.05469V8.05859H1.86948V8.19922H1.86328V8.20542H1.54576L1.54688 8.20404L1.49108 8.15886L1.46472 8.12811L1.55078 8.05434V8.0563H1.86557L1.86719 8.05469ZM1.47843 8.13268L1.55298 8.19302H1.85708V8.0687H1.55307L1.47843 8.13268Z" fill="black"/>
<path fill-rule="evenodd" clip-rule="evenodd" d="M1.86719 8.19531H1.55078L1.46875 8.26562L1.55078 8.33203H1.86328V8.19141L1.86719 8.19531Z" fill="#CA3745"/>
<path fill-rule="evenodd" clip-rule="evenodd" d="M1.86719 8.1875V8.19141H1.86948V8.33203H1.86328L1.86328 8.33823H1.54576L1.54688 8.33685L1.49108 8.29168L1.46472 8.26092L1.55078 8.18715V8.18911H1.86557L1.86719 8.1875ZM1.47843 8.26549L1.55298 8.32583H1.85708V8.20151H1.55307L1.47843 8.26549Z" fill="black"/>
<path fill-rule="evenodd" clip-rule="evenodd" d="M1.86719 8.33203H1.55078L1.46875 8.39844L1.55078 8.46875H1.86328V8.32812L1.86719 8.33203Z" fill="#FAAE29"/>
<path fill-rule="evenodd" clip-rule="evenodd" d="M1.86719 8.32422V8.32812H1.86948V8.46875H1.86328V8.47495H1.54547L1.54675 8.47346L1.49034 8.42511L1.46485 8.39362L1.55078 8.32406V8.32583H1.86557L1.86719 8.32422ZM1.47843 8.39857L1.55307 8.46255H1.85708V8.33823H1.55298L1.47843 8.39857Z" fill="black"/>
<path fill-rule="evenodd" clip-rule="evenodd" d="M1.86719 7.79297H1.55078L1.46875 7.86328L1.55078 7.92969L1.86328 7.92969V7.78906L1.86719 7.79297Z" fill="#FAAE29"/>
<path fill-rule="evenodd" clip-rule="evenodd" d="M1.86719 7.78516V7.78906H1.86948V7.92969H1.86328V7.93589H1.54576L1.54688 7.93451L1.49108 7.88933L1.46472 7.85858L1.55078 7.7848V7.78677H1.86557L1.86719 7.78516ZM1.47843 7.86315L1.55298 7.92349H1.85708V7.79917H1.55307L1.47843 7.86315Z" fill="black"/>
<path fill-rule="evenodd" clip-rule="evenodd" d="M1.38672 7.35156V8.91016H1.78906V9.28906H4.33984V8.91016H4.73438V7.35156L4.33984 7.35156V6.98047H1.78906V7.35156H1.38672ZM1.46875 7.42188V8.84375H1.86238L1.86328 9.21484H4.25781V8.84375H4.66016V7.42188L4.25781 7.42188V7.05469H1.86328V7.42578H1.46875V7.42188Z" fill="#970000"/>
<path fill-rule="evenodd" clip-rule="evenodd" d="M1.78906 6.97394H4.33984V6.98047H4.34638V7.34503H4.73437L4.73438 7.35156L4.74091 7.35156V8.91016L4.73438 8.91016L4.73437 8.91669H4.34638V9.28906H4.33984V9.2956H1.78906L1.78906 9.28906H1.78253V8.91669H1.38672V8.91016L1.38019 8.91016V7.35156H1.38672V7.34503H1.78253V6.98047H1.78906L1.78906 6.97394ZM1.7956 6.987V7.35156H1.78906L1.78906 7.3581H1.39325V8.90362H1.78906L1.78906 8.91016L1.7956 8.91016V9.28253H4.33331V8.91016L4.33984 8.91016V8.90362H4.72784V7.3581H4.33984V7.35156H4.33331V6.987H1.7956ZM1.86328 7.04815H4.25781V7.05469L4.26435 7.05469V7.41534H4.66016V7.42188H4.66669V8.84375H4.66016V8.85028H4.26435V9.21484L4.25781 9.21484V9.22138H1.86328V9.21484L1.85675 9.21484V8.85028H1.46875V8.84375H1.46222V7.42188H1.46875V7.41925H1.85675V7.05469L1.86328 7.05469V7.04815ZM1.86981 7.06122V7.42578H1.86328V7.43232H1.47528V8.83722H1.86328L1.86238 8.84375H1.86981V9.20831H4.25128V8.84375H4.25781V8.83722H4.65362V7.42841H4.25781V7.42188L4.25128 7.42188V7.06122H1.86981Z" fill="black"/>
<path fill-rule="evenodd" clip-rule="evenodd" d="M5.05469 1.51172L4.81641 1.22266V1.00781L4.57812 0.792969H4.10156L3.69922 0.578125H2.42578L2.02734 0.792969H1.55078L1.3125 1.00781V1.22266L1.07422 1.50781V2.08594L1.3125 2.37109V2.58984L1.55078 2.80469H2.02734L2.42578 3.01953H3.69922L4.10156 2.80469H4.57812L4.82031 2.58984V2.375L5.05859 2.08594V1.50781L5.05469 1.51172Z" fill="#CA3745"/>
<path fill-rule="evenodd" clip-rule="evenodd" d="M2.42578 0.571718H3.70264L4.10317 0.786561H4.5839L4.58242 0.78821L4.82597 1.00781H4.82281V1.22036L5.05963 1.50764L5.10624 1.46922L5.065 1.51047V1.50781L5.05963 1.50764L5.06313 1.51234L5.065 1.51047V2.09122L5.06354 2.09001L4.82672 2.3773V2.59707L4.82456 2.59464L4.57813 2.81325V2.81109H4.10317L3.69922 3.0268L2.42233 3.02594L2.02573 2.81109H1.545L1.54649 2.80945L1.30293 2.58984H1.30609V2.37342L1.06587 2.08594H1.06781V1.50246L1.0693 1.5037L1.30609 1.22033V1.00071L1.30821 1.00305L1.55078 0.784342V0.786561H2.02573L2.42578 0.571718ZM5.05219 1.51378L5.04974 1.51579L4.8081 1.22266H4.81V1.01066L4.57566 0.799376H4.09814L3.69762 0.584532H2.4274L2.02734 0.800248L1.55324 0.799376L1.31891 1.01066V1.22801L1.31742 1.22676L1.08063 1.51014V2.08361L1.32085 2.37109H1.31891V2.58699L1.55324 2.79828H2.0308L2.4274 3.01312H3.69762L4.10156 2.79742L4.57569 2.79828L4.81391 2.58696V2.36972L4.81537 2.37092L5.05219 2.08364V1.51378Z" fill="black"/>
<path fill-rule="evenodd" clip-rule="evenodd" d="M1.15234 1.80078V2.01562L1.39062 2.30078V2.51562L1.62891 2.73438H2.10547L2.50781 2.94531H3.0625V1.80469H1.15234V1.80078Z" fill="#FAAE29"/>
<path fill-rule="evenodd" clip-rule="evenodd" d="M2.39062 2.30078L2.10156 2.48828H1.92578L1.98438 2.55078L1.86719 2.67188L1.92578 2.73438L2.10156 2.67188L2.16016 2.73438L2.18359 2.57031L2.50781 2.37109L2.39062 2.30078Z" fill="#CA3745"/>
<path fill-rule="evenodd" clip-rule="evenodd" d="M2.07031 2.16016L1.78125 2.34375H1.60938L1.66406 2.40625L1.55078 2.52734L1.60938 2.58984L1.78516 2.52734L1.83984 2.58984L1.86719 2.42578L2.1875 2.23047L2.07031 2.16016ZM1.91406 1.87109L1.62109 2.05469H1.44531L1.50781 2.12109L1.39062 2.24219L1.44922 2.30078L1.625 2.23828L1.68359 2.30078L1.70703 2.13672L2.03125 1.94531L1.91406 1.875V1.87109Z" fill="#CA3745"/>
<path fill-rule="evenodd" clip-rule="evenodd" d="M4.97656 1.80078V1.58594L4.73828 1.29688V1.08203L4.49609 0.863281H4.01953L3.62109 0.652344H3.0625V1.80078H4.97656Z" fill="#FAAE29"/>
<path fill-rule="evenodd" clip-rule="evenodd" d="M3.0625 2.94922H2.91406L2.74609 2.80469H2.47266L2.32422 2.73438L2.39844 2.66406L2.54688 2.73438H2.69531L2.83984 2.51562L3.0625 2.58594V2.73438H2.83984L3.0625 2.94531V2.94922Z" fill="#CA3745"/>
<path fill-rule="evenodd" clip-rule="evenodd" d="M1.15234 1.80078V1.58594L1.39062 1.29688V1.08203L1.62891 0.863281H2.10547L2.50781 0.652344H3.0625V1.80078H1.15234Z" fill="white"/>
<path fill-rule="evenodd" clip-rule="evenodd" d="M3.0625 0.652344H2.91406L2.74609 0.792969H2.47266L2.32422 0.863281L2.39844 0.933594L2.54688 0.863281H2.69531L2.83984 1.08203L3.0625 1.01172V0.863281H2.83984L3.0625 0.652344Z" fill="#CA3745"/>
<path fill-rule="evenodd" clip-rule="evenodd" d="M3.0625 0.652344H3.21094L3.38281 0.792969H3.65234L3.80078 0.863281L3.73047 0.933594L3.57812 0.863281H3.43359L3.28516 1.08203L3.0625 1.01172V0.863281H3.28516L3.0625 0.652344Z" fill="#CA3745"/>
<path fill-rule="evenodd" clip-rule="evenodd" d="M4.97656 1.80078V2.01562L4.73828 2.30078V2.51562L4.49609 2.73438H4.01953L3.62109 2.94531H3.0625V1.80469H4.97656V1.80078Z" fill="white"/>
<path fill-rule="evenodd" clip-rule="evenodd" d="M3.0625 2.94922H3.21094L3.38281 2.80469H3.65234L3.80078 2.73438L3.73047 2.66406L3.57812 2.73438H3.43359L3.28516 2.51562L3.0625 2.58594V2.73438H3.28516L3.0625 2.94531V2.94922ZM2.07031 1.4375L1.78125 1.25391H1.60938L1.66406 1.19531L1.55078 1.07031L1.60938 1.00781L1.78516 1.07031L1.83984 1.00781L1.86719 1.17578L2.1875 1.36719L2.07031 1.4375ZM3.73828 1.29688L4.02734 1.10938H4.20312L4.14453 1.05078L4.25781 0.929688L4.20312 0.863281L4.02734 0.929688L3.96875 0.863281L3.94141 1.03125L3.62109 1.22656L3.73828 1.29688Z" fill="#CA3745"/>
<path fill-rule="evenodd" clip-rule="evenodd" d="M2.39062 1.29688L2.10156 1.10938H1.92578L1.98438 1.05078L1.86719 0.929688L1.92969 0.863281L2.10547 0.929688L2.16016 0.863281L2.18359 1.03125L2.50781 1.22266L2.39062 1.29297V1.29688ZM1.91016 1.73047L1.61719 1.54297H1.44141L1.50391 1.48047L1.38672 1.35547L1.45312 1.30078L1.62891 1.36328L1.68359 1.30078L1.71094 1.46484L2.03516 1.66016L1.91797 1.73047H1.91016Z" fill="#CA3745"/>
<path fill-rule="evenodd" clip-rule="evenodd" d="M1.29297 1.80078H1.36328L1.4375 1.87109L1.51172 1.80078H3.0625V2.80469H2.99219L3.0625 2.875V2.95312L2.83984 2.73828V2.66797H2.91406V2.73828H2.98828V2.66797L2.39062 2.35156H1.88672V2.03516L1.66406 1.87891H1.51562L1.44141 1.94922L1.51172 2.01953H1.44141L1.29297 1.80859V1.80078Z" fill="white"/>
<path fill-rule="evenodd" clip-rule="evenodd" d="M1.29297 1.80078H1.36328L1.4375 1.73047L1.51172 1.80078H3.0625V0.792969H2.99219L3.0625 0.722656V0.652344L2.83984 0.863281V0.933594H2.91406V0.863281H2.98828V0.933594L2.39062 1.25391H1.88672V1.56641L1.66406 1.73047H1.51562L1.44141 1.66016L1.51172 1.58594H1.44141L1.29297 1.80078Z" fill="#FAAE29"/>
<path fill-rule="evenodd" clip-rule="evenodd" d="M1.62891 1.80078H3.0625V2.66016L2.42578 2.30078H1.94922V2.01562L1.63281 1.80078H1.62891Z" fill="#00843D"/>
<path fill-rule="evenodd" clip-rule="evenodd" d="M4.05469 1.44141L4.34766 1.25391H4.52344L4.46094 1.19531L4.57812 1.07031L4.52344 1.00781L4.34766 1.07031L4.28906 1.00781L4.26172 1.17578L3.94141 1.36719L4.05469 1.4375V1.44141ZM4.21484 1.73047L4.50781 1.54297H4.67969L4.62109 1.48047L4.73828 1.35547L4.67969 1.29688L4.50391 1.35938L4.44922 1.29688L4.42188 1.46094L4.10156 1.65625L4.21484 1.72656V1.73047Z" fill="#CA3745"/>
<path fill-rule="evenodd" clip-rule="evenodd" d="M4.83594 1.80078H4.76172L4.6875 1.73047L4.61328 1.80078H3.0625V0.792969H3.13672L3.0625 0.722656V0.652344L3.28516 0.863281V0.933594H3.21094V0.863281H3.13672V0.933594L3.73438 1.25391H4.24219V1.56641L4.46484 1.73047H4.61328L4.68359 1.66016L4.61328 1.58594H4.68359L4.83594 1.80078Z" fill="white"/>
<path fill-rule="evenodd" clip-rule="evenodd" d="M3.0625 1.80078V0.9375L3.70312 1.29688H4.17969V1.58594L4.5 1.80078H3.0625Z" fill="#00843D"/>
<path fill-rule="evenodd" clip-rule="evenodd" d="M3.73828 2.30078L4.02734 2.48828H4.20312L4.14453 2.55078L4.25781 2.67188L4.20312 2.73438L4.02734 2.67188L3.96875 2.73438L3.94141 2.57031L3.62109 2.37109L3.73828 2.30078Z" fill="#CA3745"/>
<path fill-rule="evenodd" clip-rule="evenodd" d="M4.05469 2.16016L4.34766 2.34375H4.52344L4.46094 2.40625L4.57812 2.52734L4.52344 2.58984L4.34766 2.52734L4.28906 2.58984L4.26172 2.42578L3.94141 2.23047L4.05469 2.16016ZM4.21484 1.87109L4.50781 2.05469H4.67969L4.62109 2.11719L4.73828 2.23828L4.67969 2.30078L4.50391 2.23828L4.44922 2.30078L4.42188 2.13672L4.10156 1.94531L4.21484 1.875V1.87109Z" fill="#CA3745"/>
<path fill-rule="evenodd" clip-rule="evenodd" d="M4.83594 1.80078H4.76172L4.6875 1.87109L4.61328 1.80078H3.0625V2.80469H3.13672L3.0625 2.875V2.95312L3.28516 2.73828V2.66797H3.21094V2.73828H3.13672V2.66797L3.73438 2.35156H4.24219V2.03516L4.46484 1.87891H4.61328L4.68359 1.94922L4.61328 2.01953H4.68359L4.83594 1.80859V1.80078Z" fill="#FAAE29"/>
<path fill-rule="evenodd" clip-rule="evenodd" d="M3.0625 1.80078V2.66016L3.70312 2.30078H4.17969V2.01562L4.5 1.80078H3.0625ZM1.62891 1.80078H3.0625V0.9375L2.42578 1.29688H1.94922V1.58594L1.63281 1.80078H1.62891Z" fill="#CA3745"/>
<path fill-rule="evenodd" clip-rule="evenodd" d="M3.22266 1.80078L3.62109 1.58594H3.86328L3.78125 1.51562L3.94141 1.36719L3.86328 1.29688L3.62109 1.36719L3.54297 1.29688L3.50781 1.49219L3.0625 1.71484L3.22266 1.80078ZM2.90625 1.80078L2.50781 2.01562H2.26953L2.34766 2.08594L2.1875 2.23047L2.26953 2.30078L2.50781 2.23047L2.58594 2.30078L2.62109 2.10938L3.0625 1.88281L2.90625 1.80078Z" fill="#CA3745"/>
<path fill-rule="evenodd" clip-rule="evenodd" d="M2.90625 1.80078L2.50781 1.58594H2.26953L2.34766 1.51562L2.19141 1.36719L2.27344 1.29688L2.51172 1.36719L2.58984 1.29688L2.625 1.49219L3.06641 1.71484L2.91016 1.80078H2.90625ZM3.22266 1.80078L3.62109 2.01562H3.86328L3.78125 2.08594L3.94141 2.23047L3.86328 2.30078L3.62109 2.23047L3.54297 2.30078L3.50781 2.10938L3.0625 1.88281L3.22266 1.80078Z" fill="#00843D"/>
<path fill-rule="evenodd" clip-rule="evenodd" d="M2.58594 1.80078L3.0625 1.44141L3.54297 1.80078L3.0625 2.16016L2.58594 1.80078Z" fill="white"/>
<path fill-rule="evenodd" clip-rule="evenodd" d="M1.51172 1.94531L1.58594 2.01562L1.51562 2.08594H1.4375L1.21875 1.80078H1.29297L1.4375 2.01562H1.51172L1.44141 1.94531L1.51172 1.875H1.66406V1.94531H1.51172Z" fill="#CA3745"/>
<path fill-rule="evenodd" clip-rule="evenodd" d="M1.51172 1.65625L1.58594 1.58594L1.51562 1.51562H1.4375L1.21875 1.80078H1.29297L1.4375 1.58594H1.51172L1.44141 1.65625L1.51172 1.72656H1.66406V1.65625H1.51172ZM4.61328 1.94531L4.54297 2.01562L4.61328 2.08594H4.6875L4.91016 1.80078H4.83984L4.6875 2.01562H4.61719L4.6875 1.94531L4.61719 1.875H4.46484V1.94531H4.61328Z" fill="#CA3745"/>
<path fill-rule="evenodd" clip-rule="evenodd" d="M4.61719 1.65625L4.53906 1.58594L4.61328 1.51562H4.6875L4.91016 1.80078H4.83984L4.6875 1.58594H4.61719L4.6875 1.65625L4.61719 1.72656H4.46484V1.65625H4.61719ZM2.98828 1.51562H3.13672V2.08984H2.98828V1.51562Z" fill="#CA3745"/>
<path fill-rule="evenodd" clip-rule="evenodd" d="M2.76953 1.65625H3.35938V1.94531H2.76953V1.65625Z" fill="#CA3745"/>
<path fill-rule="evenodd" clip-rule="evenodd" d="M2.39062 12.7188L1.0625 13.4492V14.6406L2.40234 15.3711H3.72656L5.05078 14.6406V13.4492L3.72656 12.7344H2.40234L2.39062 12.7188Z" fill="#00843D"/>
<path fill-rule="evenodd" clip-rule="evenodd" d="M2.42773 12.6909L2.39583 12.7148L2.40559 12.7279H3.73007L5.06447 13.4492H5.05728V14.6524L5.05392 14.6463L3.72656 15.3785L2.3988 15.3776L1.04892 14.6406H1.056V13.4374L1.05937 13.4435L2.42773 12.6909ZM1.069 13.4531V14.6368L2.404 15.3646H3.72489L5.04428 14.6368V13.4531L3.72492 12.7409H2.39368L2.39714 12.7383L2.38881 12.7272L1.069 13.4531Z" fill="black"/>
<path fill-rule="evenodd" clip-rule="evenodd" d="M1.56641 13.9336H1.64453V13.7812H1.80469V13.9297H1.88672V13.5859H1.80469V13.7305H1.64844V13.5859H1.56641V13.9336ZM3.60156 15.0781H3.68359V14.9297H3.83984V15.0781H3.92188V14.7305H3.84375V14.8789H3.68359V14.7305H3.60547V15.0742L3.60156 15.0781ZM2.31641 13.3555H2.39453V13.2109H2.55859V13.3594H2.63281V13.0156H2.55859V13.1641H2.39453V13.0156H2.31641V13.3594V13.3555ZM3.49219 13.3555H3.57422V13.2109H3.73438V13.3594H3.81641V13.0156H3.73438V13.1641H3.57422V13.0156H3.49219V13.3594V13.3555ZM4.24609 13.9336H4.32031V13.7812H4.48438V13.9297H4.56641V13.5859H4.48438V13.7305H4.32031V13.5859H4.24609V13.9336ZM4.24609 14.5039H4.32031V14.3594H4.48438V14.5039H4.56641V14.1602H4.48438V14.3086H4.32031V14.1602H4.24609V14.5039Z" fill="#CC0000"/>
<path fill-rule="evenodd" clip-rule="evenodd" d="M3.0625 15.3086V14.043H4.99219V14.6172L3.70312 15.3086H3.05859H3.0625ZM3.0625 12.7852V14.043H1.13672V13.4727L2.41797 12.7852H3.0625Z" fill="#FAAE29"/>
<path fill-rule="evenodd" clip-rule="evenodd" d="M3.0625 12.7852V14.043H4.99219V13.4727L3.70312 12.7852H3.05859H3.0625ZM3.0625 15.3086V14.043H1.13672V14.6172L2.41797 15.3086H3.0625Z" fill="white"/>
<path fill-rule="evenodd" clip-rule="evenodd" d="M4.09375 13.5313H4.86719L4.09375 13.1914V13.5313ZM4.99219 13.4727L4.99219 14.0469H3.77344V13.5898H3.51562L3.19531 13.418V13.0195L3.39062 12.8438H3.13281V13.418H3.06641V12.7891H3.71094L4.99219 13.4727Z" fill="#FAAE29"/>
<path fill-rule="evenodd" clip-rule="evenodd" d="M3.06812 12.7908V13.4163H3.1311V12.8438H3.13281L3.13281 12.842H3.38908L3.39177 12.845L3.19703 13.0203V13.4169L3.51606 13.5881H3.77344V13.5898H3.77515V14.0452H4.99047V13.4737L3.71051 12.7908H3.06812ZM4.99219 14.0469H4.9939V13.4727H4.99583L3.71174 12.7876L3.06641 12.7873V12.7891H3.06469V13.418H3.06641V13.4197H3.13281L3.13281 13.418H3.13453V12.8455H3.38616L3.19417 13.0183L3.1936 13.418H3.19169L3.51482 13.5914L3.77172 13.5916V14.0469H3.77344V14.0486H4.99219V14.0469ZM4.09444 13.1898L4.86719 13.5294V13.533H4.09375V13.5313H4.09204V13.1953L4.09444 13.1898ZM4.09546 13.194V13.5295H4.85903L4.09546 13.194Z" fill="black"/>
<path fill-rule="evenodd" clip-rule="evenodd" d="M2.41797 13.6445V14.4492H2.61328L3.0625 14.6797L3.51172 14.4492H3.70703V13.6484H3.51172L3.0625 13.418L2.61328 13.6484H2.41797V13.6445Z" fill="#CA3745"/>
<path fill-rule="evenodd" clip-rule="evenodd" d="M2.03516 14.5625H1.26172L2.03516 14.9023V14.5625ZM1.13672 14.6211V14.0469H2.35547V14.5039H2.61328L2.9375 14.6758V15.0742L2.74219 15.25H2.99609V14.6758H3.0625V15.3047H2.42188L1.13672 14.6211Z" fill="#FAAE29"/>
<path fill-rule="evenodd" clip-rule="evenodd" d="M1.13843 14.0486V14.6201L2.4223 15.303H3.06079V14.6775H2.99781V15.25H2.99609V15.2517H2.74373L2.74104 15.2487L2.93579 15.0735V14.6768L2.61286 14.5056H2.35547V14.5039H2.35376V14.0486H1.13843ZM2.35547 14.0469V14.0452H1.13672V14.0469H1.13501V14.6211H1.13307L2.42107 15.3062L3.0625 15.3064L3.0625 15.3047H3.06421V14.6758H3.0625L3.0625 14.6741H2.99609V14.6758H2.99438V15.2483H2.74665L2.93865 15.0755L2.93921 14.6758H2.94116L2.61408 14.5024L2.35718 14.5022V14.0469H2.35547ZM1.26172 14.5608H2.03516V14.5625H2.03687V14.8984L2.03447 14.9039L1.26172 14.5644V14.5608ZM1.26987 14.5642L2.03344 14.8997V14.5642H1.26987Z" fill="black"/>
<path fill-rule="evenodd" clip-rule="evenodd" d="M2.03516 13.5313H1.26172L2.03516 13.1914V13.5313ZM1.13672 13.4727L1.13672 14.0469H2.35547V13.5898H2.61328L2.9375 13.418V13.0195L2.74219 12.8438H2.99609V13.418H3.0625V12.7891H2.42188L1.13672 13.4727Z" fill="white"/>
<path fill-rule="evenodd" clip-rule="evenodd" d="M2.42188 12.7873H3.0625L3.0625 12.7891H3.06469V13.418H3.0625L3.0625 13.4197H2.99609V13.418H2.99438V12.8455H2.74665L2.94006 13.0195L2.93921 13.4212L2.9383 13.4195L2.61408 13.5914L2.35718 13.5916V14.0469H2.35547V14.0486H1.13672V14.0469H1.13501V13.4694L1.13591 13.4711L2.42188 12.7873ZM1.13843 14.0452H2.35376V13.5898H2.35547V13.5881H2.61286L2.93579 13.4169V13.0203L2.74219 12.8461V12.842H2.99609V12.8438H2.99781V13.4163H3.06079V12.7908H2.4223L1.13843 13.4737V14.0452ZM1.26103 13.5297L2.0309 13.1914H2.03687V13.5313H2.03516L2.03516 13.533L1.26241 13.5328L1.26103 13.5297ZM2.03344 13.5295V13.194L1.26987 13.5295H2.03344Z" fill="black"/>
<path fill-rule="evenodd" clip-rule="evenodd" d="M4.09375 14.5625H4.86719L4.09375 14.9023V14.5625ZM4.99219 14.6211V14.0469H3.77344V14.5039H3.51562L3.19531 14.6758V15.0742L3.39062 15.25H3.13281V14.6758H3.06641V15.3047H3.71094L4.99219 14.6211Z" fill="white"/>
<path fill-rule="evenodd" clip-rule="evenodd" d="M3.77344 14.0452H4.99219V14.0469H4.9939V14.6243L4.99299 14.6226L3.71174 15.3062L3.06641 15.3064V15.3047H3.06421V14.6758H3.06641V14.6741H3.13281L3.13281 14.6758H3.13453V15.2483H3.38616L3.19275 15.0742L3.1936 14.6726L3.1945 14.6743L3.51482 14.5024L3.77172 14.5022V14.0469H3.77344V14.0452ZM3.77515 14.0486V14.5039H3.77344V14.5056H3.51606L3.19703 14.6768V15.0735L3.39062 15.2477V15.2517H3.13281L3.13281 15.25H3.1311V14.6775H3.06812V15.303H3.71051L4.99047 14.6201V14.0486H3.77515ZM4.09546 14.5642V14.8997L4.85903 14.5642H4.09546ZM4.8665 14.5609L4.09375 14.5608V14.5625H4.09204V14.9023H4.09801L4.86788 14.5641L4.8665 14.5609Z" fill="black"/>
<path fill-rule="evenodd" clip-rule="evenodd" d="M1.52344 14.5039H1.60156V14.3281H1.76172V14.5039H1.84375V14.1055H1.76172V14.2773H1.60156V14.1016H1.52344V14.5039ZM2.29297 15.0781H2.375V14.9023H2.53125V15.0781H2.61328V14.6758H2.53125V14.8516H2.375V14.6758H2.29297V15.082V15.0781ZM1.51953 13.5898H1.60156V13.7617H1.76172V13.5859H1.84375V13.9922H1.76172V13.8164H1.60156V13.9883H1.52344V13.5898H1.51953ZM2.29297 13.0156H2.375V13.1875H2.53125V13.0117H2.61328V13.4141H2.53125V13.2422H2.375V13.418H2.29297V13.0156ZM3.51172 15.0781H3.59375V14.9023H3.75391V15.0781H3.83594V14.6758H3.75391V14.8516H3.59375V14.6758H3.51172V15.082V15.0781ZM4.28516 13.9883H4.36719V13.8164H4.52734V13.9922H4.60547V13.5898H4.52734V13.7617H4.37109V13.5859H4.28906V13.9922L4.28516 13.9883Z" fill="#CA3745"/>
<path fill-rule="evenodd" clip-rule="evenodd" d="M3.51172 15.0781H3.59375V14.9023H3.75391V15.0781H3.83594V14.6758H3.75391V14.8516H3.59375V14.6758H3.51172V15.082V15.0781Z" fill="#CA3745"/>
<path fill-rule="evenodd" clip-rule="evenodd" d="M3.51172 15.0781H3.59375V14.9023H3.75391V15.0781H3.83594V14.6758H3.75391V14.8516H3.59375V14.6758H3.51172V15.082V15.0781ZM4.28516 14.5039H4.36719V14.3281H4.52734V14.5039H4.60547V14.1055H4.52734V14.2734H4.37109V14.1016H4.28906V14.5039H4.28516ZM3.51172 13.4141H3.59375V13.2422H3.75391V13.418H3.83594V13.0156H3.75391V13.1875H3.59375V13.0117H3.51172V13.4141Z" fill="#CA3745"/>
<path fill-rule="evenodd" clip-rule="evenodd" d="M3.12891 14.043L3.38672 13.832H3.51172V13.9414H3.38672V13.9922H3.58203V13.7852H3.38672V13.625H3.12891V13.7852H3.19531V13.6797H3.32031V13.7852L3.0625 13.9961L2.80859 13.7852V13.6797H2.9375V13.7852H3V13.625H2.74219V13.7852H2.55078V13.9961H2.74219V13.9414H2.61328V13.8359H2.74219L3 14.0469L2.74219 14.2539H2.61328V14.1523H2.74219V14.0977H2.55078V14.3086H2.74219V14.4648H3V14.3086H2.9375V14.4141H2.80859V14.3086L3.0625 14.0977L3.32031 14.3086V14.4141H3.19531V14.3086H3.12891V14.4648H3.38672V14.3086H3.58203V14.0977H3.38672V14.1523H3.51172V14.2539H3.38672L3.12891 14.043Z" fill="white"/>
<path fill-rule="evenodd" clip-rule="evenodd" d="M1.26172 5.16406L1.38672 5.03516H2.13281L2.69141 4.47266H3.44141L4 5.03906H4.74609L4.86719 5.16406L4.74609 5.28906H3.99609L3.4375 5.85547H2.6875L2.13281 5.28906H1.38281L1.25781 5.16406H1.26172Z" fill="#CA3745"/>
<path fill-rule="evenodd" clip-rule="evenodd" d="M1.32422 5.17578L1.39453 5.11328H2.16406L2.74219 4.51953H3.38281L3.96484 5.11719H4.73438L4.79688 5.17969L4.73438 5.23828H3.96484L3.44922 5.77344H2.67578L2.16406 5.23828H1.39062L1.32422 5.17578Z" fill="#CA3745"/>
<path fill-rule="evenodd" clip-rule="evenodd" d="M2.74219 4.51261V4.51471H3.38777L3.38627 4.51616L3.96688 5.11236H4.73376L4.80018 5.18321L4.73438 5.24489V5.24311H3.9669L3.44922 5.78039V5.77826H2.67074L2.67229 5.77677L2.162 5.24311H1.38608L1.38732 5.2418L1.36026 5.21633L1.32101 5.17217L1.39453 5.10683V5.10846H2.16203L2.74219 4.51261ZM1.33137 5.17588L1.39254 5.23346H2.16911L2.16755 5.23495L2.67784 5.76861H3.44717L3.96484 5.23133V5.23346H4.73247L4.78994 5.17958L4.73238 5.12201H3.95989L3.96139 5.12055L3.38078 4.52436H2.74422L2.16406 5.1202V5.11811H1.39637L1.33137 5.17588ZM4.73637 5.11236H4.73376L4.69451 5.0705L4.73637 5.11236ZM4.73637 5.11236H4.7392L4.73779 5.11378L4.73637 5.11236Z" fill="black"/>
<path fill-rule="evenodd" clip-rule="evenodd" d="M3.37891 5.23047L3.625 5.47656L3.5 5.60156L3.4375 5.54297H3.37891V5.60156L3.44141 5.66797H3.56641L3.69141 5.54297V5.41406L3.44141 5.16406L3.69141 4.91406V4.78906L3.56641 4.66406H3.44141L3.37891 4.72266V4.78906H3.44141L3.50391 4.72266L3.62891 4.85156L3.37891 5.10156L3.13281 4.85156L3.37891 4.59766V4.53516H3.31641L3.07031 4.78906L2.82031 4.53516H2.75781V4.59766L3.00391 4.85156L2.75781 5.10156L2.50781 4.85156L2.63281 4.72266L2.69531 4.78906H2.75781V4.72266L2.69531 4.66406H2.57031L2.44531 4.78906V4.91406L2.69531 5.16406L2.44531 5.41406V5.54297L2.57031 5.66797H2.69531L2.75781 5.60156V5.54297H2.6875L2.625 5.60156L2.5 5.47656L2.75 5.23047L2.99609 5.47656L2.75 5.73047V5.79297H2.8125L3.0625 5.54297L3.30859 5.79297H3.37109V5.73047L3.125 5.47656L3.37109 5.23047H3.37891ZM3.06641 4.91406L2.81641 5.16406L3.06641 5.41406L3.3125 5.16406L3.06641 4.91406ZM2.69141 5.85547V6.35938L2.75391 6.29297L2.81641 6.35938L2.87891 6.29297L2.9375 6.35938L3.00391 6.29297L3.06641 6.35938L3.12891 6.29297L3.1875 6.35938L3.25 6.29297L3.3125 6.35938L3.375 6.29297L3.44141 6.35938V5.85547H2.6875H2.69141ZM3.44141 4.47266V3.96875L3.375 4.03516L3.3125 3.96875L3.25 4.03516L3.1875 3.96875L3.12891 4.03516L3.06641 3.96875L3 4.03516L2.9375 3.96875L2.87891 4.03516L2.81641 3.96875L2.75391 4.03516L2.69141 3.96875V4.47266H3.44141ZM4.49219 5.03906V4.53516L4.43359 4.60156L4.37109 4.53516L4.30859 4.60156L4.24609 4.53516L4.18359 4.60156L4.12109 4.53516L4.05859 4.60156L4 4.53516V5.03906H4.49609H4.49219ZM2.13281 5.03906V4.53516L2.06641 4.60156L2.00781 4.53516L1.94531 4.60156L1.88281 4.53516L1.82031 4.60156L1.75781 4.53516L1.69531 4.60156L1.63281 4.53516V5.03906H2.13281ZM4.49609 5.28906V5.79297L4.43359 5.72656L4.37109 5.79297L4.30859 5.72656L4.24609 5.79297L4.18359 5.72656L4.12109 5.79297L4.05859 5.72656L4 5.79297V5.28906H4.49609ZM2.12891 5.28906V5.79297L2.06641 5.72656L2.00781 5.79297L1.94531 5.72656L1.88281 5.79297L1.82031 5.72656L1.75781 5.79297L1.69531 5.72656L1.63281 5.79297V5.28906H2.12891Z" fill="#FAAE29"/>
<path fill-rule="evenodd" clip-rule="evenodd" d="M3.4375 5.85547V6.16797L3.5 6.10547L3.5625 6.17188L3.625 6.10547L3.6875 6.17188L3.74609 6.10547L3.80859 6.17188L3.875 6.10547L3.9375 6.17188L4 6.10547V5.28906L3.4375 5.85547ZM2.69141 5.85547V6.16797L2.625 6.10547L2.56641 6.17188L2.50391 6.10547L2.44141 6.17188L2.37891 6.10547L2.31641 6.17188L2.25781 6.10547L2.19531 6.17188L2.12891 6.10547V5.28906L2.69141 5.85547ZM2.69141 4.47266V4.16016L2.625 4.22266L2.56641 4.16016L2.50391 4.22266L2.44141 4.16016L2.37891 4.22266L2.31641 4.16016L2.25781 4.22266L2.19531 4.16016L2.12891 4.22266V5.03906L2.69141 4.47266ZM3.4375 4.47266V4.16016L3.5 4.22266L3.5625 4.16016L3.625 4.22266L3.6875 4.16016L3.74609 4.22266L3.80859 4.16016L3.87109 4.22266L3.9375 4.16016L4 4.22266V5.03906L3.4375 4.47266ZM1.63281 5.66797L1.57031 5.60156L1.50781 5.67188L1.44922 5.60156L1.38672 5.67188L1.32422 5.60156L1.25781 5.67188L1.19531 5.60156L1.13672 5.67188V4.66016L1.19531 4.72656L1.25781 4.66016L1.32422 4.72656L1.38672 4.66016L1.44922 4.72656L1.50781 4.66016L1.57031 4.72656L1.63281 4.66016V5.03906H1.38672L1.25781 5.16406L1.38672 5.28906H1.63281V5.66797ZM4.49609 5.66797L4.55859 5.60156L4.61719 5.67188L4.67969 5.60156L4.74609 5.67188L4.80859 5.60156L4.86719 5.67188L4.92969 5.60156L4.99219 5.67188V4.66016L4.92969 4.72656L4.86719 4.66016L4.80859 4.72656L4.74609 4.66016L4.67969 4.72656L4.61719 4.66016L4.55859 4.72656L4.49609 4.66016V5.03906H4.74609L4.86719 5.16406L4.74609 5.28906H4.49609V5.66797Z" fill="#00843D"/>
<path fill-rule="evenodd" clip-rule="evenodd" d="M2.38281 5.89453C2.38281 5.89453 2.33203 5.94141 2.33203 5.96875C2.33203 5.99219 2.38672 6.04297 2.41406 6.04297C2.44141 6.04297 2.48828 5.99219 2.48828 5.96875C2.48828 5.94531 2.4375 5.89453 2.4375 5.89453V5.79297C2.4375 5.79297 2.54688 5.96484 2.54688 5.89453C2.54688 5.83984 2.4375 5.74609 2.4375 5.74609H2.38281C2.38281 5.74609 2.27344 5.85547 2.27344 5.89453C2.27344 5.96484 2.38281 5.79297 2.38281 5.79297V5.89453Z" fill="white"/>
<path fill-rule="evenodd" clip-rule="evenodd" d="M3.03125 6.08984C3.03125 6.08984 2.97266 6.15625 2.97266 6.1875C2.97266 6.22266 3.03516 6.29688 3.06641 6.29688C3.10156 6.29688 3.15625 6.22656 3.15625 6.19141C3.15625 6.16016 3.09375 6.08984 3.09375 6.08984V5.94531C3.09375 5.94531 3.20312 6.17578 3.20312 6.07031C3.20312 6.00391 3.09375 5.87891 3.09375 5.87891H3.03125C3.03125 5.87891 2.90625 6.03516 2.92578 6.07031C2.92578 6.17578 3.03125 5.94531 3.03125 5.94531V6.08984Z" fill="#CA3745"/>
<path d="M2.37891 5.22656C2.44531 5.22656 2.5 5.19531 2.5 5.16016C2.5 5.125 2.44531 5.09766 2.37891 5.09766C2.3125 5.09766 2.25781 5.125 2.25781 5.16016C2.25781 5.19531 2.3125 5.22656 2.37891 5.22656Z" fill="#00843D"/>
<path d="M3.06641 5.22656C3.13281 5.22656 3.1875 5.19531 3.1875 5.16016C3.1875 5.125 3.13281 5.09766 3.06641 5.09766C2.99609 5.09766 2.94141 5.125 2.94141 5.16016C2.94141 5.19531 2.99609 5.22656 3.06641 5.22656Z" fill="#00843D"/>
<path d="M3.74609 5.22656C3.81641 5.22656 3.87109 5.19531 3.87109 5.16016C3.87109 5.125 3.81641 5.09766 3.74609 5.09766C3.67969 5.09766 3.625 5.125 3.625 5.16016C3.625 5.19531 3.67969 5.22656 3.74609 5.22656Z" fill="#00843D"/>
<path fill-rule="evenodd" clip-rule="evenodd" d="M2.37109 4.44141C2.37109 4.44141 2.32031 4.39062 2.32031 4.36719C2.32031 4.34375 2.375 4.28906 2.39844 4.28906C2.42578 4.28906 2.47266 4.33984 2.47266 4.36328C2.47266 4.39062 2.42188 4.44141 2.42188 4.44141V4.54297C2.42188 4.54297 2.53516 4.36719 2.53516 4.44141C2.53516 4.49609 2.42578 4.58984 2.42578 4.58984H2.37109C2.37109 4.58984 2.26172 4.48047 2.26172 4.44531C2.26172 4.37109 2.36719 4.53906 2.36719 4.53906V4.4375L2.37109 4.44141Z" fill="white"/>
<path fill-rule="evenodd" clip-rule="evenodd" d="M3.01953 4.24609C3.01953 4.24609 2.95703 4.17578 2.95703 4.14453C2.95703 4.10938 3.02734 4.03906 3.05078 4.03906C3.08594 4.03906 3.14453 4.10547 3.14453 4.14062C3.14453 4.17578 3.08203 4.25 3.08203 4.25V4.38281C3.08203 4.38281 3.19141 4.15625 3.19141 4.26172C3.19141 4.32812 3.08203 4.45703 3.08203 4.45703H3.01562C3.01562 4.45703 2.88672 4.30078 2.90625 4.26172C2.90625 4.16016 3.01562 4.38672 3.01562 4.38672V4.24609H3.01953Z" fill="#CA3745"/>
<path fill-rule="evenodd" clip-rule="evenodd" d="M3.70703 5.89453C3.70703 5.89453 3.65625 5.94141 3.65625 5.96875C3.65625 5.99219 3.71094 6.04297 3.73828 6.04297C3.76562 6.04297 3.8125 5.99219 3.8125 5.96875C3.8125 5.94531 3.76172 5.89453 3.76172 5.89453V5.79297C3.76172 5.79297 3.87109 5.96484 3.87109 5.89453C3.87109 5.83984 3.76172 5.74609 3.76172 5.74609H3.70312C3.70312 5.74609 3.59375 5.85547 3.59375 5.89453C3.59375 5.96484 3.70312 5.79297 3.70312 5.79297V5.89453H3.70703ZM3.69531 4.44141C3.69531 4.44141 3.64453 4.39062 3.64453 4.36328C3.64453 4.34375 3.69922 4.28906 3.72266 4.28906C3.75 4.28906 3.79688 4.33984 3.79688 4.36328C3.79688 4.39062 3.74609 4.44141 3.74609 4.44141V4.54297C3.74609 4.54297 3.85938 4.36719 3.85938 4.44141C3.85938 4.49609 3.75 4.58984 3.75 4.58984H3.69531C3.69531 4.58984 3.58594 4.48047 3.58594 4.44531C3.58594 4.37109 3.69531 4.53906 3.69531 4.53906V4.4375V4.44141Z" fill="white"/>
<path fill-rule="evenodd" clip-rule="evenodd" d="M1.84375 5.54688C1.84375 5.54688 1.77344 5.59375 1.77344 5.61328C1.77344 5.63672 1.84766 5.6875 1.87891 5.68359C1.91406 5.68359 1.98047 5.64062 1.98047 5.61719C1.98047 5.59375 1.91016 5.54688 1.91016 5.54688V5.45312C1.91016 5.45312 2.03516 5.60156 2.03516 5.53516C2.03516 5.48828 1.91016 5.40234 1.91016 5.40234H1.84375C1.84375 5.40234 1.70312 5.51172 1.72266 5.53516C1.72266 5.60156 1.84375 5.45312 1.84375 5.45312V5.54688ZM1.82812 4.83594C1.82812 4.83594 1.75781 4.78906 1.75781 4.76562C1.75781 4.74219 1.83203 4.69141 1.86328 4.69531C1.90234 4.69531 1.96484 4.74219 1.96484 4.76562C1.96484 4.78906 1.89844 4.83203 1.89844 4.83203V4.92578C1.89844 4.92578 2.01953 4.77344 2.01953 4.84375C2.01953 4.88672 1.89844 4.97266 1.89844 4.97266H1.82812C1.82812 4.97266 1.6875 4.86719 1.70703 4.84375C1.70703 4.77734 1.82812 4.92578 1.82812 4.92578V4.83594ZM4.23438 5.52734C4.23438 5.52734 4.16016 5.57422 4.16016 5.59766C4.16016 5.625 4.23828 5.67188 4.26953 5.67188C4.30859 5.67188 4.37109 5.625 4.37109 5.60156C4.37109 5.57422 4.30078 5.52734 4.30078 5.52734V5.4375C4.30078 5.4375 4.42188 5.58984 4.42188 5.51953C4.42188 5.47656 4.30469 5.39062 4.30469 5.39062H4.23047C4.23047 5.39062 4.09375 5.49609 4.10938 5.51953C4.10938 5.58984 4.23438 5.4375 4.23438 5.4375V5.53125V5.52734ZM4.21875 4.82031C4.21875 4.82031 4.14844 4.77344 4.14844 4.75C4.14844 4.72656 4.22266 4.67969 4.25781 4.67969C4.29297 4.67969 4.35938 4.72656 4.35938 4.74609C4.35938 4.77344 4.28516 4.81641 4.28516 4.81641V4.91406C4.28516 4.91406 4.41016 4.76172 4.41016 4.82812C4.41016 4.875 4.28906 4.96094 4.28906 4.96094H4.21484C4.21484 4.96094 4.07812 4.85547 4.09766 4.83203C4.09766 4.76172 4.21875 4.91406 4.21875 4.91406V4.81641V4.82031Z" fill="#CA3745"/>
<path fill-rule="evenodd" clip-rule="evenodd" d="M1.33594 5.53906C1.3125 5.49609 1.32031 5.47656 1.32031 5.45312C1.32031 5.42578 1.38281 5.38281 1.40234 5.38281C1.43359 5.38281 1.48047 5.42969 1.48047 5.45703C1.48047 5.48047 1.48047 5.5 1.46875 5.54688L1.44141 5.47656C1.39844 5.57422 1.39844 5.57422 1.375 5.47266L1.33984 5.53906H1.33594ZM1.33594 4.8125C1.31641 4.85938 1.32031 4.87891 1.32031 4.90234C1.32031 4.92578 1.38281 4.96875 1.40625 4.96875C1.4375 4.96875 1.48438 4.92188 1.48438 4.89453C1.48438 4.87109 1.48438 4.85156 1.47266 4.80859L1.44141 4.87891C1.40234 4.77734 1.39844 4.77734 1.375 4.88281L1.33984 4.8125H1.33594ZM4.69141 5.52734C4.66797 5.48438 4.67188 5.46484 4.67188 5.44141C4.67188 5.41797 4.73828 5.375 4.76172 5.375C4.78906 5.375 4.83594 5.42578 4.83594 5.44922C4.83594 5.47266 4.83594 5.49609 4.82422 5.53516L4.79297 5.46484C4.75781 5.56641 4.75391 5.57031 4.72656 5.46484L4.69141 5.52734ZM4.69141 4.80859C4.66797 4.84766 4.67578 4.86719 4.67578 4.89453C4.67578 4.91406 4.73828 4.96094 4.76172 4.96094C4.78906 4.96094 4.83984 4.91406 4.83984 4.88672C4.83984 4.86328 4.83984 4.83984 4.82812 4.79688L4.79297 4.87109C4.75781 4.76562 4.75781 4.76562 4.73047 4.87109L4.69531 4.80469L4.69141 4.80859Z" fill="white"/>
<path fill-rule="evenodd" clip-rule="evenodd" d="M2.67969 6.375V6.19141H2.10156V5.83594H1.58594V5.71875H1.13672V4.64062H1.58594V4.51953H2.10156V4.16406H2.67969V3.98438H3.44922V4.16406H4.03125V4.51953H4.54297V4.64062H4.99609V5.71875H4.54688V5.83594H4.03516V6.19141H3.45312V6.37109H2.68359L2.67969 6.375ZM2.61719 6.42969V6.25391H2.03516V5.89453H1.52344V5.77344H1.07422V4.58203H1.52344V4.46484H2.03516V4.10156H2.61719V3.92578H3.51562V4.10156H4.09766V4.46484H4.60938V4.58203H5.05859V5.77344H4.60938V5.89453H4.09375V6.25391H3.51172V6.42969H2.61719Z" fill="#CA3745"/>
<path fill-rule="evenodd" clip-rule="evenodd" d="M2.61894 3.92753V4.10156H2.61719V4.10331H2.0369V4.46484H2.03516V4.46659H1.52519V4.58203H1.52344L1.52344 4.58378H1.07597V5.77169H1.52344L1.52344 5.77344H1.52519V5.89278H2.03516V5.89453H2.0369V6.25216H2.61719V6.25391H2.61894V6.42794H3.50997V6.25391H3.51172L3.51172 6.25216H4.092V5.89453H4.09375V5.89278H4.60763V5.77344H4.60938V5.77169H5.05685V4.58378H4.60938V4.58203H4.60763V4.46659H4.09766L4.09766 4.46484H4.09591V4.10331H3.51563L3.51562 4.10156H3.51388V3.92753H2.61894ZM3.51562 3.92578L3.51563 3.92403H2.61719V3.92578H2.61544V4.09981H2.03516V4.10156H2.03341V4.4631H1.52344L1.52344 4.46484H1.52169V4.58028H1.07422V4.58203H1.07247V5.77344H1.07422V5.77519H1.52169V5.89453H1.52344L1.52344 5.89628H2.03341V6.25391H2.03516V6.25565H2.61544V6.42969H2.61719V6.43144H3.51172L3.51172 6.42969H3.51347V6.25565H4.09375V6.25391H4.0955V5.89628H4.60938V5.89453H4.61112V5.77519H5.05859L5.05859 5.77344H5.06034V4.58203H5.05859L5.05859 4.58028H4.61112V4.46484H4.60938V4.4631H4.0994V4.10156H4.09766L4.09766 4.09981H3.51737V3.92578H3.51562ZM2.68144 3.98612V4.16406H2.67969L2.67969 4.16581H2.10331V4.51953H2.10156V4.52128H1.58769V4.64062H1.58594L1.58594 4.64237H1.13847V5.717H1.58594L1.58594 5.71875H1.58769V5.83419H2.10156V5.83594H2.10331V6.18966H2.67969L2.67969 6.19141H2.68144V6.37078L2.68359 6.36862L3.45138 6.36935V6.19141H3.45312L3.45313 6.18966H4.03341V5.83594H4.03516V5.83419H4.54513V5.71875H4.54688L4.54688 5.717H4.99435V4.64237H4.54297L4.54297 4.64062H4.54122V4.52128H4.03125L4.03125 4.51953H4.0295V4.16581H3.44922L3.44922 4.16406H3.44747V3.98612H2.68144ZM3.44922 3.98438L3.44922 3.98263H2.67969L2.67969 3.98438H2.67794V4.16231H2.10156V4.16406H2.09981V4.51778H1.58594L1.58594 4.51953H1.58419V4.63888H1.13672L1.13672 4.64062H1.13497V5.71875H1.13672L1.13672 5.7205H1.58419V5.83594H1.58594L1.58594 5.83769H2.09981V6.19141H2.10156V6.19315H2.67794V6.375H2.68144L2.68432 6.37284H3.45313L3.45312 6.37109H3.45487V6.19315H4.03516V6.19141H4.0369V5.83769H4.54688L4.54688 5.83594H4.54862V5.7205H4.99609L4.99609 5.71875H4.99784V4.64062H4.99609L4.99609 4.63888H4.54472V4.51953H4.54297L4.54297 4.51778H4.033V4.16406H4.03125L4.03125 4.16231H3.45097V3.98438H3.44922Z" fill="black"/>
</g>
<rect x="0.25" y="0.25" width="23.5" height="17.5" rx="1.75" stroke="#DDE0EA" stroke-width="0.5" style="fill-opacity:0"/>
<defs>
<clipPath id="clip0_1262_9390">
<rect width="24" height="18" rx="2" fill="white"/>
</clipPath>
</defs>
</svg>
