<svg width="24" height="18" viewBox="0 0 24 18" fill="none" xmlns="http://www.w3.org/2000/svg">
<g clip-path="url(#clip0_1262_9390)">
<path d="M24 0H0V18H24V0Z" fill="#00843D"/>
<path fill-rule="evenodd" clip-rule="evenodd" d="M7.75 4.83C8.73 5.30 9.90 4.83 10.32 4.17C10.76 3.56 10.81 2.54 10.06 1.60C11.22 2.57 11.48 3.66 10.90 4.56C10.13 5.59 8.42 5.56 7.75 4.83Z" fill="white"/>
<path fill-rule="evenodd" clip-rule="evenodd" d="M9.49 2.44H9.69L9.53 2.56L9.59 2.76L9.43 2.64L9.27 2.76L9.32 2.57L9.16 2.44L9.36 2.44L9.43 2.25L9.49 2.44ZM8.52 3.66H8.71L8.56 3.78L8.62 3.98L8.46 3.86L8.29 3.98L8.35 3.78L8.19 3.67L8.39 3.66L8.45 3.46L8.52 3.66ZM8.58 2.69H8.78L8.62 2.82L8.68 3.01L8.52 2.90L8.36 3.02L8.42 2.82L8.26 2.70L8.46 2.69L8.52 2.50L8.58 2.69ZM8.58 1.73H8.78L8.62 1.86L8.68 2.05L8.52 1.94L8.36 2.05L8.41 1.86L8.25 1.74L8.45 1.73L8.51 1.54L8.58 1.73ZM7.50 2.95H7.70L7.54 3.08L7.60 3.27L7.44 3.16L7.28 3.28L7.33 3.08L7.17 2.96L7.37 2.95L7.44 2.76L7.50 2.95Z" fill="white"/>
<path fill-rule="evenodd" clip-rule="evenodd" d="M0.17 0H5.95V18H0.17V0Z" fill="#CA3745"/>
<path fill-rule="evenodd" clip-rule="evenodd" d="M1.88 17.13C1.83 17.04 1.71 16.62 1.78 16.57C1.87 16.53 2.12 16.96 2.09 17.34C1.93 17.43 1.39 17.31 1.39 17.20C1.43 17.04 1.74 17.09 1.88 17.13Z" fill="#FAAE29"/>
<path fill-rule="evenodd" clip-rule="evenodd" d="M1.55 16.76C1.52 16.66 1.47 16.22 1.54 16.18C1.64 16.17 1.81 16.66 1.73 17.03C1.55 17.07 1.04 16.80 1.07 16.69C1.13 16.55 1.42 16.69 1.55 16.76Z" fill="#FAAE29"/>
<path fill-rule="evenodd" clip-rule="evenodd" d="M1.28 16.36C1.26 16.25 1.25 15.80 1.32 15.77C1.42 15.78 1.55 16.29 1.43 16.65C1.26 16.66 0.77 16.31 0.81 16.21C0.88 16.08 1.16 16.26 1.28 16.36Z" fill="#FAAE29"/>
<path fill-rule="evenodd" clip-rule="evenodd" d="M1.07 15.92C1.06 15.80 1.10 15.36 1.18 15.35C1.27 15.37 1.34 15.91 1.19 16.24C1.01 16.22 0.57 15.77 0.62 15.67C0.71 15.56 0.96 15.80 1.07 15.92Z" fill="#FAAE29"/>
<path fill-rule="evenodd" clip-rule="evenodd" d="M0.92 15.46C0.93 15.34 1.02 14.92 1.09 14.92C1.18 14.96 1.19 15.50 1.01 15.80C0.83 15.74 0.45 15.22 0.50 15.13C0.60 15.03 0.83 15.32 0.92 15.46H0.92Z" fill="#FAAE29"/>
<path fill-rule="evenodd" clip-rule="evenodd" d="M0.96 14.94C0.95 15.39 0.87 15.40 0.72 15.06C0.65 14.93 0.64 14.41 0.70 14.39C0.79 14.39 0.96 14.76 0.96 14.94Z" fill="#FAAE29"/>
<path fill-rule="evenodd" clip-rule="evenodd" d="M4.26 17.19C4.31 17.09 4.42 16.67 4.36 16.61C4.27 16.58 4.03 17.01 4.05 17.39C4.21 17.48 4.75 17.36 4.75 17.25C4.71 17.09 4.40 17.14 4.26 17.18V17.19Z" fill="#FAAE29"/>
<path fill-rule="evenodd" clip-rule="evenodd" d="M4.59 16.82C4.62 16.71 4.67 16.26 4.60 16.23C4.51 16.22 4.33 16.71 4.42 17.08C4.58 17.12 5.10 16.85 5.07 16.75C5.01 16.60 4.72 16.74 4.59 16.82Z" fill="#FAAE29"/>
<path fill-rule="evenodd" clip-rule="evenodd" d="M4.86 16.41C4.88 16.29 4.89 15.84 4.82 15.82C4.72 15.83 4.59 16.34 4.71 16.69C4.88 16.71 5.37 16.36 5.33 16.26C5.26 16.12 4.98 16.30 4.86 16.41Z" fill="#FAAE29"/>
<path fill-rule="evenodd" clip-rule="evenodd" d="M5.07 15.97C5.08 15.85 5.03 15.41 4.96 15.40C4.87 15.42 4.80 15.96 4.95 16.29C5.13 16.26 5.57 15.82 5.52 15.73C5.43 15.60 5.18 15.84 5.07 15.97Z" fill="#FAAE29"/>
<path fill-rule="evenodd" clip-rule="evenodd" d="M5.22 15.51C5.21 15.39 5.12 14.96 5.05 14.97C4.96 15.01 4.95 15.55 5.14 15.85C5.30 15.79 5.69 15.27 5.64 15.18C5.53 15.08 5.31 15.37 5.21 15.51H5.22Z" fill="#FAAE29"/>
<path fill-rule="evenodd" clip-rule="evenodd" d="M5.17 14.99C5.19 15.44 5.27 15.44 5.42 15.11C5.49 14.98 5.50 14.45 5.44 14.43C5.35 14.43 5.18 14.81 5.17 14.99Z" fill="#FAAE29"/>
<path fill-rule="evenodd" clip-rule="evenodd" d="M5.05 11.56H4.77V11.75H4.49V11.94H3.38L3.19 12.14L3.29 12.24H3.75L3.84 12.14H3.38L3.47 12.04H4.12L3.84 12.33H3.20L3.01 12.24L2.83 12.33H2.18L1.90 12.04H2.55L2.64 12.14H2.18L2.27 12.24H2.74L2.83 12.14L2.64 11.94H1.62V11.75H1.35V11.56H1.07V10.67H1.35V10.48H1.62V10.28H2.64L2.83 10.09L2.74 9.99H2.27L2.18 10.09H2.64L2.55 10.19H1.90L2.18 9.89H2.83L3.02 9.99L3.20 9.89H3.85L4.13 10.19H3.48L3.39 10.09H3.85L3.76 9.99H3.30L3.20 10.09L3.39 10.28H4.5V10.48H4.77V10.67H5.05V11.56Z" fill="#CA3745"/>
<path fill-rule="evenodd" clip-rule="evenodd" d="M2.18 9.89V9.89H2.83L3.02 9.99L3.20 9.89L3.85 9.89L3.85 9.89L4.13 10.18V10.19H3.48L3.48 10.19L3.39 10.10V10.09H3.84L3.76 9.99H3.30L3.20 10.09L3.39 10.28H4.5V10.28L4.50 10.28V10.48H4.77V10.48L4.78 10.48V10.67H5.05V10.67H5.06V11.56H5.05V11.56H4.77V11.75H4.77V11.76H4.49V11.94L4.49 11.94V11.95H3.38L3.20 12.14L3.29 12.24H3.75L3.84 12.15H3.38L3.38 12.14L3.47 12.04V12.04H4.12L4.12 12.04L3.84 12.34V12.34H3.20L3.01 12.24L2.83 12.34L2.18 12.34L2.18 12.34L1.90 12.05V12.04H2.55L2.55 12.04L2.64 12.14V12.15H2.18L2.27 12.24H2.74L2.82 12.14L2.64 11.95H1.62L1.62 11.94L1.62 11.94V11.76H1.35L1.35 11.75H1.34V11.56H1.07V11.56H1.07V10.67H1.07V10.67H1.34V10.48L1.35 10.48L1.35 10.48H1.62V10.28L1.62 10.28L1.62 10.28H2.64L2.82 10.09L2.74 9.99H2.27L2.18 10.09H2.64L2.65 10.09L2.55 10.19V10.19H1.90L1.90 10.18L2.18 9.89ZM1.91 10.18H2.55L2.64 10.10H2.18L2.18 10.09L2.27 9.99V9.99H2.74L2.74 9.99L2.83 10.09L2.64 10.29V10.29H1.63V10.48L1.62 10.48L1.62 10.49H1.35V10.67H1.35L1.35 10.68H1.07V11.55H1.35L1.35 11.56H1.35V11.75H1.62L1.62 11.75H1.63V11.94H2.65L2.65 11.94L2.83 12.15L2.74 12.25V12.24H2.27L2.27 12.24L2.18 12.15V12.14H2.64L2.55 12.04H1.91L2.18 12.33H2.83L3.02 12.24L3.02 12.24L3.20 12.33H3.84L4.11 12.04H3.47L3.39 12.14H3.84L3.84 12.15L3.75 12.25V12.24H3.29L3.29 12.24L3.19 12.14L3.38 11.94V11.94H4.49V11.75H4.49V11.75H4.77V11.56H4.77V11.55H5.05V10.68H4.77V10.67H4.77V10.49H4.5V10.48L4.49 10.48V10.29H3.38L3.38 10.29L3.20 10.09L3.30 9.99V9.99H3.76L3.76 9.99L3.85 10.09V10.10H3.40L3.48 10.18H4.12L3.85 9.90H3.20L3.02 10.00L3.02 9.99L2.83 9.90H2.18L1.91 10.18Z" fill="black"/>
<path fill-rule="evenodd" clip-rule="evenodd" d="M1.16 11.46H1.44V11.66H1.71V11.85H2.64L3.01 12.14L3.39 11.85H4.41V11.66L4.68 11.66V11.46H4.96V10.78H4.69V10.58H4.41V10.39H3.39L3.02 10.09L2.65 10.39H1.72V10.58H1.44V10.78H1.16V11.46Z" fill="#00843D"/>
<path fill-rule="evenodd" clip-rule="evenodd" d="M2.34 7.27L2.03 7.57V8.69L2.34 8.99L3.78 8.99L4.10 8.69V7.57L3.78 7.27H2.34ZM2.26 7.04L1.46 7.79V8.47L2.26 9.21H3.86L4.66 8.46V7.79L3.86 7.04H2.26Z" fill="#00843D"/>
<path fill-rule="evenodd" clip-rule="evenodd" d="M2.26 7.03V7.03H3.87L3.86 7.04L4.67 7.79H4.66V8.47L4.66 8.47L3.86 9.22V9.22H2.26L2.26 9.22L1.45 8.47H1.46V7.78L1.46 7.79L2.26 7.03ZM2.26 7.05L1.47 7.80V8.46L2.27 9.20H3.85L4.65 8.46V7.79L3.85 7.05H2.26ZM2.34 7.26L2.34 7.26L3.78 7.26L3.78 7.27L4.11 7.57H4.11V8.70L4.10 8.70L3.78 9.00V9.00H2.33L2.34 8.99L2.01 8.69H2.02V7.56L2.02 7.56L2.34 7.26ZM2.35 7.28L2.03 7.57V8.68L2.35 8.98H3.78L4.09 8.69V7.57L3.77 7.28H2.35Z" fill="black"/>
<path fill-rule="evenodd" clip-rule="evenodd" d="M1.15 1.80V2.01L1.39 2.30V2.51L1.62 2.73H2.10L2.50 2.94H3.06V1.80H1.15V1.80Z" fill="#FAAE29"/>
<path fill-rule="evenodd" clip-rule="evenodd" d="M4.97 1.80V1.58L4.73 1.29V1.08L4.49 0.86H4.01L3.62 0.65H3.06V1.80H4.97Z" fill="#FAAE29"/>
<path fill-rule="evenodd" clip-rule="evenodd" d="M1.15 1.80V1.58L1.39 1.29V1.08L1.62 0.86H2.10L2.50 0.65H3.06V1.80H1.15Z" fill="white"/>
<path fill-rule="evenodd" clip-rule="evenodd" d="M4.97 1.80V2.01L4.73 2.30V2.51L4.49 2.73H4.01L3.62 2.94H3.06V1.80H4.97V1.80Z" fill="white"/>
<path fill-rule="evenodd" clip-rule="evenodd" d="M1.62 1.80H3.06V2.66L2.42 2.30H1.94V2.01L1.63 1.80H1.62Z" fill="#00843D"/>
<path fill-rule="evenodd" clip-rule="evenodd" d="M3.06 1.80V0.93L3.70 1.29H4.17V1.58L4.5 1.80H3.06Z" fill="#00843D"/>
<path fill-rule="evenodd" clip-rule="evenodd" d="M3.06 1.80V2.66L3.70 2.30H4.17V2.01L4.5 1.80H3.06ZM1.62 1.80H3.06V0.93L2.42 1.29H1.94V1.58L1.63 1.80H1.62Z" fill="#CA3745"/>
<path fill-rule="evenodd" clip-rule="evenodd" d="M4.09 13.53H4.86L4.09 13.19V13.53ZM4.99 13.47L4.99 14.04H3.77V13.58H3.51L3.19 13.41V13.01L3.39 12.84H3.13V13.41H3.06V12.78H3.71L4.99 13.47Z" fill="#FAAE29"/>
<path fill-rule="evenodd" clip-rule="evenodd" d="M2.03 14.56H1.26L2.03 14.90V14.56ZM1.13 14.62V14.04H2.35V14.50H2.61L2.93 14.67V15.07L2.74 15.25H2.99V14.67H3.06V15.30H2.42L1.13 14.62Z" fill="#FAAE29"/>
<path fill-rule="evenodd" clip-rule="evenodd" d="M2.03 13.53H1.26L2.03 13.19V13.53ZM1.13 13.47L1.13 14.04H2.35V13.58H2.61L2.93 13.41V13.01L2.74 12.84H2.99V13.41H3.06V12.78H2.42L1.13 13.47Z" fill="white"/>
<path fill-rule="evenodd" clip-rule="evenodd" d="M4.09 14.56H4.86L4.09 14.90V14.56ZM4.99 14.62V14.04H3.77V14.50H3.51L3.19 14.67V15.07L3.39 15.25H3.13V14.67H3.06V15.30H3.71L4.99 14.62Z" fill="white"/>
<path fill-rule="evenodd" clip-rule="evenodd" d="M3.37 5.23L3.62 5.47L3.5 5.60L3.43 5.54H3.37V5.60L3.44 5.66H3.56L3.69 5.54V5.41L3.44 5.16L3.69 4.91V4.78L3.56 4.66H3.44L3.37 4.72V4.78H3.44L3.50 4.72L3.62 4.85L3.37 5.10L3.13 4.85L3.37 4.59V4.53H3.31L3.07 4.78L2.82 4.53H2.75V4.59L3.00 4.85L2.75 5.10L2.50 4.85L2.63 4.72L2.69 4.78H2.75V4.72L2.69 4.66H2.57L2.44 4.78V4.91L2.69 5.16L2.44 5.41V5.54L2.57 5.66H2.69L2.75 5.60V5.54H2.68L2.62 5.60L2.5 5.47L2.75 5.23L2.99 5.47L2.75 5.73V5.79H2.81L3.06 5.54L3.30 5.79H3.37V5.73L3.12 5.47L3.37 5.23H3.37ZM3.06 4.91L2.81 5.16L3.06 5.41L3.31 5.16L3.06 4.91ZM2.69 5.85V6.35L2.75 6.29L2.81 6.35L2.87 6.29L2.93 6.35L3.00 6.29L3.06 6.35L3.12 6.29L3.18 6.35L3.25 6.29L3.31 6.35L3.37 6.29L3.44 6.35V5.85H2.68H2.69ZM3.44 4.47V3.96L3.37 4.03L3.31 3.96L3.25 4.03L3.18 3.96L3.12 4.03L3.06 3.96L3 4.03L2.93 3.96L2.87 4.03L2.81 3.96L2.75 4.03L2.69 3.96V4.47H3.44ZM4.49 5.03V4.53L4.43 4.60L4.37 4.53L4.30 4.60L4.24 4.53L4.18 4.60L4.12 4.53L4.05 4.60L4 4.53V5.03H4.49H4.49ZM2.13 5.03V4.53L2.06 4.60L2.00 4.53L1.94 4.60L1.88 4.53L1.82 4.60L1.75 4.53L1.69 4.60L1.63 4.53V5.03H2.13ZM4.49 5.28V5.79L4.43 5.72L4.37 5.79L4.30 5.72L4.24 5.79L4.18 5.72L4.12 5.79L4.05 5.72L4 5.79V5.28H4.49ZM2.12 5.28V5.79L2.06 5.72L2.00 5.79L1.94 5.72L1.88 5.79L1.82 5.72L1.75 5.79L1.69 5.72L1.63 5.79V5.28H2.12Z" fill="#FAAE29"/>
<path fill-rule="evenodd" clip-rule="evenodd" d="M3.43 5.85V6.16L3.5 6.10L3.56 6.17L3.62 6.10L3.68 6.17L3.74 6.10L3.80 6.17L3.87 6.10L3.93 6.17L4 6.10V5.28L3.43 5.85ZM2.69 5.85V6.16L2.62 6.10L2.56 6.17L2.50 6.10L2.44 6.17L2.37 6.10L2.31 6.17L2.25 6.10L2.19 6.17L2.12 6.10V5.28L2.69 5.85ZM2.69 4.47V4.16L2.62 4.22L2.56 4.16L2.50 4.22L2.44 4.16L2.37 4.22L2.31 4.16L2.25 4.22L2.19 4.16L2.12 4.22V5.03L2.69 4.47ZM3.43 4.47V4.16L3.5 4.22L3.56 4.16L3.62 4.22L3.68 4.16L3.74 4.22L3.80 4.16L3.87 4.22L3.93 4.16L4 4.22V5.03L3.43 4.47ZM1.63 5.66L1.57 5.60L1.50 5.67L1.44 5.60L1.38 5.67L1.32 5.60L1.25 5.67L1.19 5.60L1.13 5.67V4.66L1.19 4.72L1.25 4.66L1.32 4.72L1.38 4.66L1.44 4.72L1.50 4.66L1.57 4.72L1.63 4.66V5.03H1.38L1.25 5.16L1.38 5.28H1.63V5.66ZM4.49 5.66L4.55 5.60L4.61 5.67L4.67 5.60L4.74 5.67L4.80 5.60L4.86 5.67L4.92 5.60L4.99 5.67V4.66L4.92 4.72L4.86 4.66L4.80 4.72L4.74 4.66L4.67 4.72L4.61 4.66L4.55 4.72L4.49 4.66V5.03H4.74L4.86 5.16L4.74 5.28H4.49V5.66Z" fill="#00843D"/>
</g>
<rect x="0.25" y="0.25" width="23.5" height="17.5" rx="1.75" stroke="#DDE0EA" stroke-width="0.5" style="fill-opacity:0"/>
<defs>
<clipPath id="clip0_1262_9390">
<rect width="24" height="18" rx="2" fill="white"/>
</clipPath>
</defs>
</svg>
