<svg width="24" height="18" viewBox="0 0 24 18" fill="none" xmlns="http://www.w3.org/2000/svg">
<g clip-path="url(#clip0_1262_9392)">
<path d="M0 0H24V18H0V0Z" fill="#009FCA"/>
<path fill-rule="evenodd" clip-rule="evenodd" d="M17.8288 2.92625H18.8675L18.0312 3.49625L18.35 4.4225L17.5138 3.84875L16.6812 4.4225L17 3.49625L16.1637 2.92625H17.195L17.5138 2L17.8288 2.92625ZM15.2337 10.3063H16.2687L15.4325 10.8763L15.7513 11.8025L14.915 11.2288L14.0787 11.8025L14.4012 10.8763L13.565 10.3063H14.5925L14.9112 9.38L15.2337 10.3063ZM17.8288 8.63375H18.8675L18.0312 9.20375L18.35 10.13L17.5138 9.55625L16.6812 10.13L17 9.20375L16.1637 8.63375H17.195L17.5138 7.7075L17.8288 8.63375ZM6.6725 13.9888H7.7075L6.8675 14.555L7.19 15.4775L6.35375 14.9075L5.5175 15.4775L5.84 14.555L5 13.9813H6.035L6.35375 13.0588L6.6725 13.9888ZM9.02 11.12H7.985L8.82125 10.5463L8.5025 9.62375L9.33875 10.1938L10.175 9.62375L9.8525 10.5463L10.6887 11.12H9.6575L9.33875 12.0425L9.02 11.12ZM12.0688 6.90125H11.03L11.8662 6.33125L11.5475 5.405L12.3838 5.97875L13.22 5.405L12.8975 6.33125L13.7337 6.90125H12.7025L12.3838 7.8275L12.0688 6.90125ZM14.63 6.0275H13.595L14.435 5.45375L14.1125 4.53125L14.9487 5.10125L15.785 4.53125L15.4625 5.45375L16.3025 6.0275H15.2675L14.9487 6.95L14.63 6.0275ZM12.0688 13.325H11.03L11.8662 12.755L11.555 11.825L12.3912 12.395L13.2275 11.825L12.905 12.7513L13.7412 13.3212H12.71L12.3912 14.2475L12.0688 13.325ZM9.02 14.0712H7.985L8.82125 13.5013L8.5025 12.575L9.33875 13.145L10.175 12.575L9.8525 13.4975L10.6925 14.075H9.66125L9.3425 15.0013L9.02 14.0712Z" fill="#FFF40D"/>
<path d="M6 5H18V14H6V5Z" fill="#012169"/>
<path d="M7.40625 5L11.9813 8.39375L16.5375 5H18V6.1625L13.5 9.51875L18 12.8563V14H16.5L12 10.6438L7.51875 14H6V12.875L10.4813 9.5375L6 6.2V5H7.40625Z" fill="white"/>
<path d="M13.95 10.2688L18 13.25V14L12.9188 10.2688H13.95ZM10.5 10.6438L10.6125 11.3L7.0125 14H6L10.5 10.6438ZM18 5V5.05625L13.3313 8.58125L13.3687 7.75625L17.0625 5H18ZM6 5L10.4813 8.3H9.35625L6 5.7875V5Z" fill="#C8102E"/>
<path d="M10.5188 5V14H13.5188V5H10.5188ZM6 8V11H18V8H6Z" fill="white"/>
<path d="M6 8.61875V10.4188H18V8.61875H6ZM11.1187 5V14H12.9188V5H11.1187Z" fill="#C8102E"/>
</g>
<rect x="0.25" y="0.25" width="23.5" height="17.5" rx="1.75" stroke="#DDE0EA" stroke-width="0.5" style="fill-opacity:0"/>
<defs>
<clipPath id="clip0_1262_9392">
<rect width="24" height="18" rx="2" fill="white"/>
</clipPath>
</defs>
</svg>
