<svg width="24" height="18" viewBox="0 0 24 18" fill="none" xmlns="http://www.w3.org/2000/svg">
<g clip-path="url(#clip0_1262_162)">
<path d="M24 0H0V18H24V0Z" fill="white"/>
<path d="M9.97656 2H24V4H9.97656V2ZM9.97656 6H24V8H9.97656V6ZM0 10H24V12H0V10ZM0 14H24V16H0V14Z" fill="#0038A8"/>
<path d="M4.77344 5.97656L5.10156 6.47266C3.74219 7.45703 4.57422 8.03906 3.60938 8.35156C4.21094 7.76562 3.51562 7.71875 4.01953 6.5" fill="#FCD116"/>
<path fill-rule="evenodd" clip-rule="evenodd" d="M4.78276 5.93083L5.14654 6.48083L5.12092 6.49938C4.78365 6.74362 4.58388 6.96174 4.4583 7.15552C4.33283 7.34912 4.28032 7.52005 4.23939 7.67261C4.23488 7.68943 4.2305 7.70611 4.22615 7.72264C4.19146 7.85461 4.1593 7.97692 4.08554 8.08337C4.00116 8.20513 3.86501 8.30345 3.61954 8.38296L3.48516 8.42648L3.58635 8.32792C3.73455 8.18357 3.79926 8.07585 3.82443 7.97821C3.84977 7.87992 3.83643 7.78772 3.81844 7.66799L3.81827 7.66685C3.80044 7.54813 3.77921 7.40678 3.79456 7.21839C3.80996 7.02948 3.86198 6.79468 3.98904 6.48739L4.00164 6.45689L4.06264 6.48211L4.05003 6.51261C3.92513 6.8147 3.8751 7.04279 3.86034 7.22375C3.84561 7.40453 3.86591 7.53969 3.88368 7.658L3.8841 7.66077C3.9016 7.7773 3.91735 7.88214 3.88834 7.99469C3.86614 8.08079 3.81853 8.16908 3.73086 8.27115C3.88397 8.20529 3.97287 8.13009 4.03129 8.04578C4.098 7.9495 4.12713 7.83912 4.16241 7.70541C4.1667 7.68913 4.17109 7.6725 4.17565 7.65551C4.21724 7.50046 4.2719 7.32178 4.40291 7.11963C4.53051 6.92273 4.72949 6.70512 5.05665 6.46457L4.72771 5.96724L4.78276 5.93083Z" fill="black"/>
<path fill-rule="evenodd" clip-rule="evenodd" d="M4.01266 7.54969C4.06638 7.18755 4.13713 6.71065 4.50693 6.10009L4.56338 6.13428C4.20048 6.73345 4.1313 7.19971 4.07789 7.5597C4.07664 7.56817 4.07539 7.57658 4.07414 7.58493C4.0472 7.76604 4.02217 7.92435 3.96026 8.05704C3.89733 8.19196 3.79705 8.29918 3.6235 8.38139L3.59525 8.32174C3.75569 8.24574 3.84437 8.14935 3.90045 8.02914C3.95757 7.90671 3.98161 7.75838 4.00886 7.57522C4.01012 7.56677 4.01138 7.55826 4.01266 7.54969Z" fill="black"/>
<path d="M5 5H5.66016L5 8.62891L4.33984 5H5Z" fill="#FCD116"/>
<path fill-rule="evenodd" clip-rule="evenodd" d="M4.3003 4.967H5.6997L5 8.81329L4.3003 4.967ZM4.37939 5.033L4.967 8.26312V5.033H4.37939ZM5.033 5.033V8.26312L5.62061 5.033H5.033Z" fill="black"/>
<path d="M4.14844 5.53125L4.03125 6.11328C2.375 5.84766 2.55078 6.84766 1.64453 6.38672C2.48438 6.39844 2.02734 5.87109 3.24609 5.36719" fill="#FCD116"/>
<path fill-rule="evenodd" clip-rule="evenodd" d="M3.2892 5.38507L3.2587 5.39768C2.95662 5.52258 2.75975 5.64836 2.62113 5.76589C2.4826 5.88335 2.40113 5.99347 2.32978 6.0899L2.32813 6.09214C2.2579 6.18705 2.1947 6.27248 2.09447 6.33164C2.01788 6.37685 1.92187 6.40564 1.78797 6.4158C1.94324 6.47735 2.0597 6.48697 2.16099 6.46863C2.27684 6.44765 2.37596 6.39003 2.49587 6.32032C2.51032 6.31192 2.52506 6.30335 2.54017 6.29465C2.67946 6.21442 2.84458 6.12675 3.08015 6.07649C3.30958 6.02754 3.604 6.01444 4.00514 6.07579L4.1226 5.49239L4.1873 5.50541L4.05734 6.15089L4.02602 6.14586C3.6151 6.07996 3.31974 6.09286 3.09392 6.14104C2.86831 6.18917 2.71019 6.27288 2.57311 6.35184C2.55813 6.36047 2.54333 6.36909 2.52867 6.37763C2.41041 6.44651 2.30076 6.51039 2.17275 6.53357C2.02652 6.56005 1.86012 6.53339 1.62957 6.41613L1.50297 6.35174L1.64499 6.35372C1.85188 6.35661 1.97392 6.32616 2.06092 6.2748C2.14853 6.22309 2.20451 6.14825 2.27669 6.05068L2.27731 6.04985C2.34889 5.9531 2.43409 5.83796 2.57845 5.71555C2.72316 5.59285 2.92619 5.46375 3.23348 5.33669L3.26398 5.32408L3.2892 5.38507Z" fill="black"/>
<path fill-rule="evenodd" clip-rule="evenodd" d="M2.49938 6.10334C2.79395 5.88525 3.18137 5.59843 3.87498 5.42888L3.89065 5.49299C3.20998 5.65938 2.83121 5.93979 2.53839 6.15657C2.5316 6.1616 2.52486 6.16659 2.51816 6.17155C2.37079 6.28056 2.24084 6.3749 2.1028 6.42523C1.96248 6.47639 1.8152 6.48177 1.63358 6.41785L1.65549 6.35559C1.82348 6.41471 1.955 6.40886 2.08019 6.36322C2.20765 6.31675 2.32989 6.22872 2.47891 6.11849C2.48569 6.11348 2.49251 6.10843 2.49938 6.10334Z" fill="black"/>
<path d="M5 5L5.46484 5.46484L2.43359 7.56641L4.53125 4.53125L5 5Z" fill="#FCD116"/>
<path fill-rule="evenodd" clip-rule="evenodd" d="M4.5266 4.47993L5.51612 5.46945L2.30329 7.6969L4.5266 4.47993ZM4.5359 4.58257L2.66789 7.28544L4.95333 5L4.5359 4.58257ZM5 5.04667L2.71668 7.32998L5.41357 5.46024L5 5.04667Z" fill="black"/>
<path d="M4.01953 4.77344L3.52734 5.10156C2.54297 3.74219 1.96094 4.57422 1.64453 3.60938C2.23047 4.21094 2.28125 3.51562 3.5 4.01953" fill="#FCD116"/>
<path fill-rule="evenodd" clip-rule="evenodd" d="M1.56879 3.48432L1.66817 3.58635C1.8125 3.73453 1.92046 3.79924 2.01846 3.82442C2.11715 3.84977 2.20986 3.83642 2.33008 3.81844L2.33133 3.81825C2.4505 3.80042 2.5923 3.77921 2.781 3.79456C2.97027 3.80996 3.20531 3.86198 3.51261 3.98904L3.54311 4.00164L3.51789 4.06264L3.48739 4.05003C3.18531 3.92513 2.95698 3.8751 2.77564 3.86034C2.59454 3.84561 2.45891 3.8659 2.34013 3.88367L2.33736 3.88408C2.22029 3.9016 2.11496 3.91736 2.00204 3.88835C1.9159 3.86622 1.82764 3.81881 1.72583 3.73158C1.79228 3.88419 1.8679 3.9729 1.95251 4.03124C2.04921 4.09793 2.15986 4.12707 2.29366 4.16231C2.31008 4.16664 2.32685 4.17105 2.34399 4.17564C2.49928 4.21724 2.67809 4.2719 2.88031 4.40291C3.07725 4.5305 3.29484 4.72945 3.53536 5.05656L4.02868 4.72767L4.06529 4.78259L3.51923 5.14663L3.50062 5.12092C3.25638 4.78365 3.03826 4.58388 2.84442 4.4583C2.65076 4.33284 2.47972 4.28032 2.32691 4.2394C2.30997 4.23486 2.29316 4.23045 2.27651 4.22608C2.14441 4.19141 2.02188 4.15926 1.91504 4.08558C1.79275 4.00125 1.69367 3.86513 1.61317 3.61966L1.56879 3.48432Z" fill="black"/>
<path fill-rule="evenodd" clip-rule="evenodd" d="M2.44951 4.0126C2.81215 4.06633 3.28916 4.13701 3.89991 4.50693L3.86572 4.56338C3.26636 4.20036 2.8 4.13126 2.43951 4.07784C2.43114 4.0766 2.42284 4.07537 2.41458 4.07415C2.23323 4.0472 2.07458 4.02217 1.94136 3.96029C1.80594 3.89738 1.69798 3.79716 1.61478 3.62364L1.67429 3.59511C1.75124 3.75557 1.84836 3.84432 1.96916 3.90043C2.09217 3.95757 2.24089 3.98161 2.42428 4.00886C2.43263 4.0101 2.44104 4.01135 2.44951 4.0126Z" fill="black"/>
<path d="M5 5V5.66016L1.36719 5L5 4.33984V5Z" fill="#FCD116"/>
<path fill-rule="evenodd" clip-rule="evenodd" d="M5.033 4.30031V5.69969L1.18262 5L5.033 4.30031ZM1.73336 5.033L4.967 5.62062L4.967 5.033L1.73336 5.033ZM4.967 4.967V4.37938L1.73336 4.967H4.967Z" fill="black"/>
<path d="M4.46875 4.14844L3.88281 4.03125C4.14844 2.375 3.15234 2.55078 3.60938 1.64453C3.59766 2.48438 4.125 2.02734 4.62891 3.24609" fill="#FCD116"/>
<path fill-rule="evenodd" clip-rule="evenodd" d="M3.64437 1.50186L3.64237 1.64499C3.63948 1.85188 3.66993 1.97392 3.72129 2.06092C3.773 2.14853 3.84784 2.20451 3.94541 2.27669L3.94624 2.27731C4.04299 2.34889 4.15814 2.43409 4.28054 2.57845C4.40324 2.72316 4.53235 2.92619 4.6594 3.23348L4.67201 3.26398L4.61102 3.2892L4.59841 3.2587C4.47351 2.95662 4.34774 2.75975 4.2302 2.62113C4.11274 2.4826 4.00262 2.40113 3.9062 2.32978L3.90396 2.32813C3.80904 2.2579 3.72361 2.1947 3.66445 2.09447C3.61937 2.0181 3.59062 1.92242 3.58038 1.78913C3.51988 1.94376 3.51067 2.05989 3.52911 2.16095C3.55021 2.27662 3.60759 2.37559 3.67693 2.49521C3.68543 2.50987 3.69412 2.52485 3.70293 2.54021C3.78292 2.67951 3.87022 2.84463 3.92016 3.08019C3.9688 3.3096 3.98166 3.604 3.92031 4.0051L4.50758 4.12255L4.49464 4.18727L3.8452 4.05738L3.85023 4.02602C3.91613 3.61509 3.90348 3.31971 3.8556 3.09388C3.80776 2.86826 3.7244 2.71014 3.6457 2.57307C3.63698 2.55789 3.62826 2.54289 3.61963 2.52802C3.55108 2.41001 3.48748 2.30053 3.46418 2.17279C3.43751 2.02662 3.46363 1.86024 3.57991 1.62967L3.64437 1.50186Z" fill="black"/>
<path fill-rule="evenodd" clip-rule="evenodd" d="M3.89276 2.49938C4.11084 2.79395 4.39766 3.18137 4.56721 3.87498L4.5031 3.89065C4.33671 3.20998 4.0563 2.83121 3.83952 2.53839C3.83449 2.5316 3.8295 2.52486 3.82454 2.51816C3.71554 2.37079 3.62119 2.24084 3.57086 2.1028C3.51971 1.96248 3.51432 1.8152 3.57825 1.63358L3.6405 1.65549C3.58138 1.82348 3.58723 1.955 3.63287 2.08019C3.67934 2.20765 3.76737 2.32989 3.8776 2.47891C3.88262 2.48569 3.88767 2.49251 3.89276 2.49938Z" fill="black"/>
<path d="M5 5L4.53125 5.46484L2.43359 2.43359L5.46484 4.53125L5 5Z" fill="#FCD116"/>
<path fill-rule="evenodd" clip-rule="evenodd" d="M2.30329 2.30329L5.51601 4.52652L5.02343 5.02324L4.52652 5.51601L2.30329 2.30329ZM2.66875 2.71542L4.53598 5.41368L4.95333 5L2.66875 2.71542ZM4.9999 4.95323L5.41368 4.53598L2.71542 2.66875L4.9999 4.95323Z" fill="black"/>
<path d="M5.22656 4.01953L4.89453 3.52734C6.25391 2.54297 5.42578 1.96094 6.38672 1.64453C5.78906 2.23047 6.48047 2.28125 5.97656 3.5" fill="#FCD116"/>
<path fill-rule="evenodd" clip-rule="evenodd" d="M6.51105 1.56885L6.40982 1.6681C6.26262 1.81241 6.19835 1.92037 6.17333 2.01841C6.14814 2.11715 6.16139 2.20991 6.17913 2.33014C6.19674 2.44948 6.21777 2.59201 6.20208 2.78105C6.18637 2.9703 6.13411 3.20533 6.00706 3.51261L5.99445 3.54311L5.93346 3.51789L5.94607 3.48739C6.07097 3.1853 6.12125 2.95694 6.1363 2.77559C6.15135 2.59433 6.13137 2.45861 6.11384 2.33978L6.11338 2.33669C6.09614 2.21988 6.08063 2.11476 6.10938 2.00209C6.13137 1.91593 6.17847 1.82764 6.26521 1.72576C6.11316 1.79222 6.02475 1.86785 5.96652 1.95248C5.90011 2.049 5.87088 2.15941 5.83555 2.29282C5.83112 2.30953 5.8266 2.32659 5.8219 2.34403C5.78006 2.49934 5.72503 2.67814 5.59372 2.88034C5.46585 3.07723 5.26671 3.29479 4.93967 3.53525L5.27237 4.02843L5.21766 4.06534L4.84932 3.51934L4.87518 3.50062C5.21245 3.25638 5.41247 3.03825 5.53836 2.84439C5.66413 2.65072 5.71701 2.47966 5.75817 2.32686C5.76281 2.30966 5.76731 2.2926 5.77177 2.2757C5.80655 2.14391 5.8388 2.02168 5.91214 1.91507C5.99627 1.79279 6.13187 1.6937 6.3764 1.61319L6.51105 1.56885Z" fill="black"/>
<path fill-rule="evenodd" clip-rule="evenodd" d="M5.98349 2.44951C5.92976 2.81215 5.85908 3.28916 5.48916 3.89991L5.43271 3.86572C5.79573 3.26636 5.86483 2.8 5.91825 2.43951C5.91949 2.43114 5.92072 2.42284 5.92195 2.41458C5.9489 2.23323 5.97392 2.07458 6.03581 1.94136C6.09871 1.80594 6.19893 1.69798 6.37245 1.61478L6.40099 1.67429C6.24052 1.75124 6.15178 1.84836 6.09566 1.96916C6.03853 2.09217 6.01448 2.24089 5.98723 2.42428C5.98599 2.43263 5.98475 2.44104 5.98349 2.44951Z" fill="black"/>
<path d="M5 5H4.33984L5 1.36719L5.66016 5H5Z" fill="#FCD116"/>
<path fill-rule="evenodd" clip-rule="evenodd" d="M5 1.18262L5.69969 5.033H4.30031L5 1.18262ZM4.967 1.73336L4.37938 4.967L4.967 4.967L4.967 1.73336ZM5.033 4.967H5.62062L5.033 1.73336V4.967Z" fill="black"/>
<path d="M5.85156 4.46875L5.96484 3.88281C7.625 4.14844 7.44922 3.15234 8.35156 3.60938C7.51562 3.59766 7.96875 4.125 6.75 4.62891" fill="#FCD116"/>
<path fill-rule="evenodd" clip-rule="evenodd" d="M5.9912 3.92033L5.8777 4.50741L5.8129 4.49489L5.93851 3.84518L5.97006 3.85023C6.38198 3.91613 6.6781 3.90348 6.90442 3.85559C7.13053 3.80775 7.2889 3.72439 7.42595 3.6457C7.44141 3.63682 7.45667 3.62796 7.47178 3.61917C7.58942 3.55081 7.69846 3.48744 7.82548 3.46418C7.9712 3.4375 8.13688 3.46365 8.36647 3.57994L8.49369 3.64437L8.3511 3.64237C8.14522 3.63949 8.02367 3.66992 7.93684 3.72128C7.84939 3.773 7.79328 3.84787 7.72083 3.94545C7.64893 4.04231 7.56304 4.15798 7.41817 4.28056C7.27316 4.40325 7.0699 4.53235 6.76261 4.6594L6.73211 4.67201L6.70689 4.61102L6.73739 4.59841C7.03948 4.47351 7.2366 4.34773 7.37554 4.23018C7.5144 4.11269 7.59625 4.00254 7.66784 3.90611L7.66977 3.9035C7.7401 3.80877 7.80338 3.72353 7.90324 3.66447C7.97947 3.61939 8.07483 3.59063 8.20755 3.58039C8.05359 3.51988 7.93802 3.51068 7.83736 3.5291C7.72242 3.55015 7.6239 3.60728 7.50472 3.6764C7.48977 3.68507 7.47449 3.69393 7.45882 3.70293C7.3195 3.78293 7.15413 3.87022 6.91809 3.92016C6.68823 3.96879 6.39317 3.98166 5.9912 3.92033Z" fill="black"/>
<path fill-rule="evenodd" clip-rule="evenodd" d="M7.50132 3.8919C7.20705 4.1101 6.81953 4.39744 6.12502 4.56721L6.10935 4.5031C6.7909 4.3365 7.16977 4.05558 7.46226 3.83869C7.46866 3.83395 7.47501 3.82924 7.48133 3.82456C7.62843 3.71557 7.75803 3.62122 7.89551 3.57088C8.0353 3.5197 8.18189 3.51432 8.36257 3.57827L8.34055 3.64048C8.17358 3.58139 8.04282 3.58723 7.91821 3.63286C7.79129 3.67932 7.66942 3.76734 7.52062 3.87759C7.51423 3.88232 7.5078 3.88709 7.50132 3.8919Z" fill="black"/>
<path d="M5 5L4.53125 4.53125L7.56641 2.43359L5.46484 5.46484L5 5Z" fill="#FCD116"/>
<path fill-rule="evenodd" clip-rule="evenodd" d="M7.6969 2.30329L5.46945 5.51612L4.47993 4.5266L7.6969 2.30329ZM4.58257 4.5359L4.9999 4.95323L7.28544 2.66789L4.58257 4.5359ZM7.32998 2.71668L5.04667 5L5.46024 5.41357L7.32998 2.71668Z" fill="black"/>
<path d="M5.97656 5.22656L6.47266 4.89453C7.45703 6.25391 8.03906 5.42578 8.35156 6.38672C7.76562 5.78906 7.71875 6.48047 6.5 5.97656" fill="#FCD116"/>
<path fill-rule="evenodd" clip-rule="evenodd" d="M6.48073 4.84942L6.49938 4.87518C6.74362 5.21245 6.96175 5.41248 7.15555 5.53837C7.34916 5.66414 7.5201 5.71701 7.67266 5.75818C7.68974 5.76279 7.70667 5.76726 7.72344 5.7717C7.8551 5.8065 7.97712 5.83876 8.08334 5.91219C8.20509 5.99636 8.30343 6.132 8.38294 6.37651L8.42643 6.51022L8.328 6.40982C8.18366 6.2626 8.07594 6.19834 7.97826 6.17333C7.87991 6.14814 7.78767 6.16139 7.66792 6.17913C7.54905 6.19674 7.40707 6.21777 7.21833 6.20208C7.02944 6.18637 6.79466 6.1341 6.48739 6.00706L6.45689 5.99445L6.48211 5.93346L6.51261 5.94607C6.81471 6.07097 7.04282 6.12125 7.2238 6.1363C7.40469 6.15135 7.53991 6.13137 7.65825 6.11384L7.66143 6.11337C7.77771 6.09614 7.88234 6.08064 7.99464 6.10939C8.08075 6.13144 8.16908 6.17874 8.27121 6.26592C8.20535 6.11338 8.13014 6.02478 8.04581 5.96648C7.94971 5.90004 7.83957 5.87082 7.70624 5.83545C7.68968 5.83106 7.67276 5.82657 7.65547 5.8219C7.5004 5.78006 7.32173 5.72502 7.1196 5.59371C6.92274 5.46584 6.70517 5.26667 6.46468 4.93958L5.96749 5.27234L5.93078 5.21749L6.48073 4.84942Z" fill="black"/>
<path fill-rule="evenodd" clip-rule="evenodd" d="M7.54969 5.98344C7.18755 5.92971 6.71064 5.85896 6.10009 5.48916L6.13428 5.43271C6.73345 5.79561 7.19971 5.86479 7.5597 5.9182C7.56817 5.91946 7.57658 5.92071 7.58493 5.92195C7.76604 5.9489 7.92435 5.97393 8.05704 6.03583C8.19196 6.09877 8.29918 6.19905 8.38139 6.37259L8.32174 6.40085C8.24574 6.24041 8.14935 6.15172 8.02914 6.09564C7.90671 6.03853 7.75838 6.01448 7.57522 5.98723C7.56677 5.98597 7.55826 5.98471 7.54969 5.98344Z" fill="black"/>
<path d="M5 5V4.33984L8.62891 5L5 5.66016V5Z" fill="#FCD116"/>
<path fill-rule="evenodd" clip-rule="evenodd" d="M4.967 4.3003L8.81329 5L4.967 5.6997V4.3003ZM5.033 4.37939L5.033 4.967L8.26312 4.967L5.033 4.37939ZM8.26312 5.033L5.033 5.033L5.033 5.62061L8.26312 5.033Z" fill="black"/>
<path d="M5.53125 5.85156L6.11328 5.96484C5.84766 7.625 6.84766 7.44922 6.38672 8.35156C6.39844 7.51562 5.87109 7.96875 5.36719 6.75" fill="#FCD116"/>
<path fill-rule="evenodd" clip-rule="evenodd" d="M5.50516 5.81287L6.15091 5.93855L6.14587 5.97006C6.07996 6.38197 6.09286 6.67807 6.14104 6.90438C6.18918 7.13049 6.27289 7.28885 6.35184 7.42591C6.36062 7.44116 6.3694 7.45622 6.37809 7.47114C6.44678 7.58902 6.51044 7.69824 6.53357 7.82552C6.56006 7.9713 6.53338 8.137 6.41611 8.36657L6.35174 8.49258L6.35372 8.3511C6.35661 8.14522 6.32617 8.02367 6.27482 7.93684C6.22309 7.84939 6.14822 7.79328 6.05064 7.72083C5.95379 7.64893 5.83811 7.56304 5.71553 7.41817C5.59285 7.27316 5.46374 7.0699 5.33669 6.76261L5.32408 6.73211L5.38507 6.70689L5.39768 6.73739C5.52258 7.03948 5.64837 7.2366 5.76592 7.37554C5.88341 7.5144 5.99356 7.59625 6.08998 7.66784L6.09259 7.66977C6.18732 7.7401 6.27256 7.80338 6.33163 7.90324C6.37684 7.97968 6.40563 8.07538 6.4158 8.2087C6.47735 8.05412 6.48697 7.93821 6.46863 7.83732C6.44771 7.72219 6.39034 7.62354 6.32085 7.50405C6.31228 7.48932 6.30353 7.47428 6.29465 7.45885C6.21441 7.31955 6.12674 7.15418 6.07649 6.91813C6.02755 6.68825 6.01444 6.39317 6.07577 5.99116L5.49255 5.87765L5.50516 5.81287Z" fill="black"/>
<path fill-rule="evenodd" clip-rule="evenodd" d="M6.1042 7.50132C5.886 7.20705 5.59865 6.81953 5.42888 6.12502L5.49299 6.10935C5.65959 6.7909 5.94052 7.16977 6.1574 7.46226C6.16214 7.46866 6.16685 7.47501 6.17153 7.48133C6.28053 7.62843 6.37488 7.75803 6.42521 7.89551C6.47639 8.0353 6.48178 8.18189 6.41783 8.36257L6.35561 8.34055C6.41471 8.17358 6.40886 8.04282 6.36324 7.91821C6.31677 7.79129 6.22875 7.66942 6.1185 7.52062C6.11377 7.51423 6.109 7.5078 6.1042 7.50132Z" fill="black"/>
<path d="M5 5L5.46484 4.53125L7.56641 7.56641L4.53125 5.46484L5 5Z" fill="#FCD116"/>
<path fill-rule="evenodd" clip-rule="evenodd" d="M5.46937 4.47982L7.6969 7.6969L4.47982 5.46937L4.97667 4.97667L5.46937 4.47982ZM5 5.04667L4.58268 5.46032L7.28419 7.33086L5 5.04667ZM7.33086 7.28419L5.04667 5L5.46032 4.58268L7.33086 7.28419Z" fill="black"/>
<path d="M5 6.20703C5.66797 6.20703 6.20703 5.66797 6.20703 5C6.20703 4.33203 5.66797 3.78906 5 3.78906C4.33203 3.78906 3.78906 4.33203 3.78906 5C3.78906 5.66797 4.33203 6.20703 5 6.20703Z" fill="#FCD116"/>
<path fill-rule="evenodd" clip-rule="evenodd" d="M3.75606 5C3.75606 4.31381 4.31381 3.75606 5 3.75606C5.68633 3.75606 6.24003 4.31394 6.24003 5C6.24003 5.68619 5.68619 6.24003 5 6.24003C4.31394 6.24003 3.75606 5.68633 3.75606 5ZM5 3.82206C4.35026 3.82206 3.82206 4.35026 3.82206 5C3.82206 5.6496 4.35012 6.17403 5 6.17403C5.64974 6.17403 6.17403 5.64974 6.17403 5C6.17403 4.35012 5.6496 3.82206 5 3.82206Z" fill="black"/>
<path d="M5.89062 4.51562C5.8125 4.60156 5.76953 4.44922 5.49219 4.44922C5.21875 4.44922 5.17578 4.61328 5.12891 4.58203C5.08594 4.54688 5.36328 4.35156 5.44922 4.33984C5.53906 4.32812 5.78906 4.41406 5.89062 4.51562ZM5.57031 4.61328C5.64844 4.67969 5.58203 4.82422 5.50391 4.82422C5.42578 4.82422 5.28516 4.69141 5.35156 4.60156" fill="black"/>
<path d="M5.20703 4.71094C5.21875 4.58203 5.32812 4.55859 5.50391 4.55859C5.67969 4.55859 5.75781 4.69141 5.82422 4.72266C5.74609 4.72266 5.67969 4.61328 5.50391 4.61328C5.32812 4.61328 5.32812 4.61328 5.20703 4.72266M5.24219 4.74609C5.28516 4.67969 5.33984 4.8125 5.46094 4.8125C5.58203 4.8125 5.64844 4.77734 5.72656 4.72266C5.80078 4.66797 5.61328 4.85547 5.49219 4.85547C5.37109 4.85547 5.20703 4.78906 5.24219 4.74609Z" fill="black"/>
<path d="M5.61328 4.8125C5.75781 4.73438 5.66797 4.625 5.61328 4.60156C5.63672 4.625 5.72656 4.73438 5.61328 4.8125ZM5 5.47266C5.06641 5.47266 5.08594 5.44922 5.17578 5.44922C5.26172 5.44922 5.47266 5.57031 5.59375 5.52734C5.33984 5.625 5.4375 5.55859 5 5.55859H4.94531M5.63672 5.625C5.59375 5.54688 5.60547 5.57031 5.51562 5.44922C5.60547 5.51562 5.625 5.54688 5.63672 5.625ZM5 5.73438C5.27344 5.73438 5.23047 5.67969 5.59375 5.52734C5.32812 5.55859 5.27344 5.64844 5 5.64844H4.94531M5 5.32812C5.07422 5.32812 5.09766 5.27344 5.1875 5.27344C5.27344 5.27344 5.39453 5.30859 5.44922 5.35156C5.46094 5.36328 5.41797 5.26172 5.32812 5.25C5.24219 5.24219 5.27344 5.09766 5.17578 5.07422C5.17578 5.12109 5.20703 5.10938 5.21875 5.17578C5.21875 5.23047 5.12109 5.23047 5.09766 5.17578C5.12109 5.26172 5.05469 5.26172 5 5.26172" fill="black"/>
<path d="M4.10938 4.51562C4.18359 4.60156 4.23047 4.44922 4.50391 4.44922C4.77734 4.44922 4.82422 4.61328 4.86719 4.58203C4.91016 4.54688 4.63672 4.35156 4.54688 4.33984C4.46094 4.32812 4.20703 4.41406 4.10938 4.51562ZM4.42578 4.61328C4.35156 4.67969 4.41406 4.82422 4.49219 4.82422C4.57031 4.82422 4.71094 4.69141 4.64844 4.60156" fill="black"/>
<path d="M4.78906 4.71094C4.77734 4.58203 4.66797 4.55859 4.49219 4.55859C4.31641 4.55859 4.23828 4.69141 4.17188 4.72266C4.25 4.72266 4.31641 4.61328 4.49219 4.61328C4.66797 4.61328 4.66797 4.61328 4.78906 4.72266M4.75781 4.74609C4.71094 4.67969 4.65625 4.8125 4.53516 4.8125C4.41406 4.8125 4.35156 4.77734 4.27344 4.72266C4.19531 4.66797 4.38281 4.85547 4.50391 4.85547C4.625 4.85547 4.78906 4.78906 4.75781 4.74609Z" fill="black"/>
<path d="M4.38281 4.8125C4.23828 4.73438 4.32812 4.625 4.38281 4.60156C4.35938 4.625 4.27344 4.73438 4.38281 4.8125ZM5 5.47266C4.93359 5.47266 4.91016 5.44922 4.82422 5.44922C4.73438 5.44922 4.52734 5.57031 4.40625 5.52734C4.65625 5.625 4.55859 5.55859 5 5.55859H5.05469M4.35938 5.625C4.40625 5.54688 4.39453 5.57031 4.48047 5.44922C4.39453 5.51562 4.37109 5.54688 4.35938 5.625ZM5 5.73438C4.72266 5.73438 4.76953 5.67969 4.40625 5.52734C4.66797 5.55859 4.72266 5.64844 5 5.64844H5.05469M5 5.32812C4.92188 5.32812 4.89844 5.27344 4.8125 5.27344C4.72266 5.27344 4.60156 5.30859 4.54688 5.35156C4.53516 5.36328 4.58203 5.26172 4.66797 5.25C4.75781 5.24219 4.72266 5.09766 4.82422 5.07422C4.82422 5.12109 4.78906 5.10938 4.77734 5.17578C4.77734 5.23047 4.87891 5.23047 4.89844 5.17578C4.87891 5.26172 4.94531 5.26172 5 5.26172" fill="black"/>
<path d="M5 5.83594C4.94531 5.83594 4.80078 5.86719 5 5.86719C5.19531 5.86719 5.05469 5.83594 5 5.83594Z" fill="black"/>
</g>
<rect x="0.25" y="0.25" width="23.5" height="17.5" rx="1.75" stroke="#DDE0EA" stroke-width="0.5" style="fill-opacity:0"/>
<defs>
<clipPath id="clip0_1262_162">
<rect width="24" height="18" rx="2" fill="white"/>
</clipPath>
</defs>
</svg>
