<svg width="24" height="18" viewBox="0 0 24 18" fill="none" xmlns="http://www.w3.org/2000/svg">
<g clip-path="url(#clip0_1002_18)">
<g clip-path="url(#clip1_1002_18)">
<rect width="24" height="18" fill="#F93939"/>
<path d="M0 12H24V18H0V12Z" fill="#1EB53A"/>
<path d="M0 0H24V6H0V0Z" fill="#0099B5"/>
<path d="M0 5.76001H24V12.24H0V5.76001Z" fill="#CE1126"/>
<path d="M0 6.12H24V11.88H0V6.12Z" fill="white"/>
<path fill-rule="evenodd" clip-rule="evenodd" d="M5.39999 5.01012C5.28288 5.02977 5.16258 5.04 5.03988 5.04C3.84695 5.04 2.87988 4.07294 2.87988 2.88C2.87988 1.68707 3.84695 0.720001 5.03988 0.720001C5.16258 0.720001 5.28288 0.730231 5.39999 0.749884C4.37847 0.921317 3.6001 1.80976 3.6001 2.88C3.6001 3.95024 4.37847 4.83869 5.39999 5.01012Z" fill="white"/>
<path fill-rule="evenodd" clip-rule="evenodd" d="M9.38054 1.01926L9.69267 1.01689L9.79138 0.720764L9.89009 1.0169L10.2022 1.01926L9.95095 1.20475L10.0451 1.50225L9.7912 1.3207L9.53731 1.50223L9.63153 1.2046L9.38054 1.01926ZM9.38054 2.74726L9.69267 2.74489L9.79138 2.44876L9.89009 2.74489L10.2022 2.74726L9.95095 2.93275L10.0451 3.23025L9.79123 3.04871L9.53731 3.23026L9.63154 2.9326L9.38054 2.74726ZM10.0451 4.95825L9.79123 4.77671L9.53731 4.95826L9.63154 4.6606L9.38067 4.47541L9.69267 4.47289L9.79138 4.17676L9.89009 4.47289L10.2022 4.47526L9.95095 4.66075L10.0451 4.95825ZM11.1086 4.47526L11.4207 4.47289L11.5194 4.17676L11.6181 4.47289L11.9302 4.47526L11.679 4.66075L11.7732 4.95825L11.5193 4.77671L11.2653 4.95826L11.3596 4.6606L11.1086 4.47526ZM11.1086 2.74726L11.4207 2.74489L11.5194 2.44876L11.6181 2.74489L11.9303 2.74726L11.679 2.93275L11.7732 3.23025L11.5193 3.04871L11.2653 3.23026L11.3596 2.9326L11.1086 2.74726ZM11.1086 1.01926L11.4207 1.01689L11.5194 0.720764L11.6181 1.0169L11.9302 1.01927L11.679 1.20475L11.7732 1.50225L11.5192 1.3207L11.2653 1.50223L11.3596 1.2046L11.1086 1.01926ZM12.8366 4.47526L13.1485 4.47289L13.2472 4.17676L13.3459 4.47289L13.658 4.47526L13.407 4.6606L13.5012 4.95825L13.2473 4.77671L12.9934 4.95826L13.0876 4.6606L12.8366 4.47526ZM12.8366 2.74726L13.1485 2.74489L13.2472 2.44876L13.3459 2.74489L13.658 2.74726L13.407 2.9326L13.5012 3.23025L13.2473 3.04871L12.9934 3.23026L13.0876 2.9326L12.8366 2.74726ZM12.8366 1.01926L13.1485 1.0169L13.2472 0.720764L13.3459 1.0169L13.658 1.01927L13.407 1.20461L13.5012 1.50225L13.2473 1.3207L12.9934 1.50223L13.0876 1.2046L12.8366 1.01926ZM5.92448 4.47526L6.23661 4.47289L6.33532 4.17676L6.43412 4.47289L6.746 4.47526L6.49508 4.66054L6.58931 4.95825L6.33524 4.77666L6.08175 4.95791L6.1756 4.66069L5.92448 4.47526ZM7.65251 4.47526L7.96464 4.47289L8.06306 4.17764L8.1619 4.47289L8.47403 4.47526L8.22291 4.66069L8.31686 4.95751L8.06327 4.77666L7.80978 4.95791L7.90363 4.66069L7.65251 4.47526ZM7.65251 2.74726L7.96464 2.74489L8.06306 2.44964L8.1619 2.74489L8.47403 2.74726L8.22291 2.93269L8.31686 3.22951L8.06327 3.04866L7.80978 3.22991L7.90363 2.93269L7.65251 2.74726Z" fill="white"/>
</g>
</g>
<rect x="0.25" y="0.25" width="23.5" height="17.5" rx="1.75" stroke="#DDE0EA" stroke-width="0.5" style="fill-opacity:0"/>
<defs>
<clipPath id="clip0_1002_18">
<rect width="24" height="18" rx="2" fill="white"/>
</clipPath>
<clipPath id="clip1_1002_18">
<rect width="24" height="18" fill="white"/>
</clipPath>
</defs>
</svg>
