<svg width="24" height="18" viewBox="0 0 24 18" fill="none" xmlns="http://www.w3.org/2000/svg">
<g clip-path="url(#clip0_1257_905)">
<path d="M0 0H24V18H0V0Z" fill="#CF142B"/>
<path d="M0 0H24V12H0V0Z" fill="#00247D"/>
<path d="M0 0H24V6H0V0Z" fill="#FFCC00"/>
<path fill-rule="evenodd" clip-rule="evenodd" d="M13.2664 7.956L12.8892 7.55661L12.3987 7.80272L12.6616 7.32099L12.2753 6.92994L12.8153 7.0314L13.0678 6.54343L13.1383 7.0884L13.6801 7.17765L13.1839 7.41291L13.2664 7.956ZM14.6708 7.6462L15.0746 7.2743L14.9546 7.8101L15.4334 8.07936L14.8866 8.13067L14.7785 8.66907L14.5606 8.16492L14.015 8.22849L14.0158 8.22771L14.4273 7.86547L14.1991 7.36795L14.198 7.3661L14.6708 7.6462ZM15.8556 8.43357L16.204 8.85839L16.711 8.64684L16.4147 9.10947L16.7726 9.52637L16.2409 9.38744L15.9557 9.85557L15.923 9.30819L15.3884 9.18127L15.9001 8.98124L15.8556 8.43357ZM17.0481 10.0037L17.2302 10.5219L17.7788 10.4966L17.3423 10.8299L17.5361 11.3441L17.0839 11.0317L16.6548 11.3748L16.8122 10.8484L16.3533 10.5464L16.9026 10.5334L17.0481 10.0037ZM6.46413 11.3439L6.65768 10.8299L6.22163 10.4971L6.76983 10.5219L6.95182 10.0038L7.09737 10.5334L7.64674 10.5464L7.18781 10.8484L7.34515 11.3747L6.91609 11.0317L6.46413 11.3439ZM7.22755 9.52635L7.58531 9.10949L7.28891 8.64685L7.796 8.85841L8.14441 8.43356L8.0999 8.98124L8.61113 9.18112L8.07701 9.30819L8.04495 9.85528L7.75908 9.38744L7.22755 9.52635ZM8.56662 8.07936L9.04538 7.8101L8.92527 7.27478L9.3292 7.64623L9.80197 7.36613L9.57285 7.86562L9.98422 8.22771L9.98531 8.22853L9.43958 8.16494L9.22179 8.66935L9.1134 8.13067L8.56662 8.07936ZM10.3199 7.17765L10.8617 7.0884L10.932 6.54345L11.1847 7.03143L11.7245 6.92996L11.3384 7.321L11.6013 7.80213L11.6019 7.80305L11.1108 7.55663L10.7336 7.95614L10.8161 7.41291L10.3199 7.17765Z" fill="white"/>
</g>
<rect x="0.25" y="0.25" width="23.5" height="17.5" rx="1.75" stroke="#DDE0EA" stroke-width="0.5"  style="fill-opacity:0"/>
<defs>
<clipPath id="clip0_1257_905">
<rect width="24" height="18" rx="2" fill="white"/>
</clipPath>
</defs>
</svg>
