<svg width="24" height="18" viewBox="0 0 24 18" fill="none" xmlns="http://www.w3.org/2000/svg">
<g clip-path="url(#clip0_1257_30927)">
<path d="M0 0H24V6H15V18H0V0Z" fill="#198A00"/>
<path d="M19.09 4.33C19.14 4.36 19.22 4.39 19.22 4.39C19.30 4.35 19.45 4.37 19.45 4.36C19.47 4.35 19.48 4.32 19.48 4.32L19.47 4.17C19.44 4.21 19.42 4.23 19.40 4.22C19.45 3.98 19.38 3.84 19.2 3.52C19.19 3.71 19.19 3.88 19.17 4.00C19.20 4.09 19.19 4.09 19.20 4.18C19.17 4.17 19.13 4.12 19.09 4.08C19.09 4.08 19.07 4.29 19.09 4.33ZM19.80 3.88C19.88 4.00 19.95 3.98 19.97 4.02C19.89 4.07 19.80 3.94 19.74 3.93C19.69 3.96 19.91 4.24 19.91 4.26C19.91 4.27 19.79 4.25 19.69 4.18C19.69 4.24 19.70 4.28 19.70 4.28C19.70 4.29 19.71 4.31 19.83 4.32C19.94 4.33 19.95 4.47 19.92 4.43C19.90 4.39 19.81 4.37 19.81 4.37C19.81 4.37 19.74 4.37 19.76 4.41C19.89 4.46 19.86 4.57 19.84 4.64C19.82 4.70 19.74 4.70 19.74 4.70C19.74 4.70 19.8 4.63 19.74 4.61C19.63 4.63 19.62 4.50 19.62 4.50C19.62 4.50 19.60 4.46 19.55 4.51C19.60 4.72 19.47 4.74 19.47 4.74C19.47 4.74 19.45 4.80 19.49 4.84C19.37 4.84 19.41 4.73 19.39 4.71C19.38 4.71 19.34 4.66 19.40 4.52C19.31 4.66 19.22 4.61 19.22 4.61C19.22 4.61 19.21 4.65 19.23 4.71C19.16 4.66 19.16 4.64 19.16 4.54C19.15 4.52 19.15 4.51 19.15 4.49C19.14 4.51 19.12 4.52 19.10 4.53C19.21 4.68 19.08 4.77 19.08 4.77C19.08 4.77 19.07 4.84 19.12 4.88C19.02 4.88 19.02 4.79 19.02 4.79C19.02 4.79 18.93 4.75 18.92 4.59C18.93 4.76 18.78 4.78 18.78 4.78C18.78 4.78 18.75 4.82 18.79 4.86C18.68 4.84 18.71 4.73 18.71 4.73C18.71 4.73 18.63 4.68 18.77 4.54C18.61 4.65 18.51 4.62 18.48 4.62C18.48 4.62 18.47 4.64 18.43 4.70C18.42 4.61 18.44 4.60 18.44 4.60C18.44 4.60 18.46 4.41 18.65 4.42C18.84 4.42 18.87 4.28 18.88 4.21C18.86 4.23 18.84 4.23 18.83 4.23C18.80 4.22 18.90 3.86 18.87 3.75C18.90 4.06 18.69 4.19 18.70 4.15C18.73 4.05 18.73 3.96 18.75 3.87C18.78 3.79 18.81 3.72 18.82 3.67C18.79 3.72 18.73 3.80 18.72 3.80C18.70 3.81 18.76 3.67 18.73 3.69C18.68 3.73 18.34 3.78 18.24 3.62C18.24 3.55 18.57 3.40 18.54 3.41C18.49 3.44 17.86 3.68 17.88 3.54C17.84 3.51 18.24 3.29 18.23 3.29C18.22 3.30 17.89 3.46 17.88 3.47C17.86 3.47 17.60 3.55 17.55 3.48C17.54 3.46 18.31 3.08 18.31 3.03C18.26 3.10 17.71 3.37 17.69 3.39C17.67 3.40 17.35 3.49 17.25 3.41C17.23 3.39 17.68 3.18 17.66 3.13C17.49 3.28 17.35 3.33 17.22 3.35C17.15 3.36 17.07 3.36 17.02 3.35C16.91 3.33 16.83 3.26 16.83 3.25C16.83 3.24 17.16 3.18 17.23 3.09C16.56 3.30 16.33 3.11 16.34 3.08C16.35 3.07 16.5 3.06 16.51 3.06C16.52 3.05 16.93 2.92 16.94 2.91C16.95 2.90 16.51 3.04 16.29 3.03C16.03 3.01 15.91 2.92 15.92 2.90C15.93 2.89 16.08 2.87 16.11 2.87C16.14 2.87 16.58 2.74 16.59 2.73C16.62 2.70 16.29 2.81 16.23 2.81C15.75 2.84 15.69 2.71 15.69 2.69C15.70 2.68 15.86 2.66 15.88 2.67C15.91 2.67 16.21 2.61 16.21 2.61C16.23 2.60 15.93 2.67 15.90 2.66C15.07 2.48 14.93 2.18 14.93 2.10C14.93 2.04 15.01 2.16 15.14 2.22C15.43 2.33 16.02 2.54 16.01 2.54C15.69 2.43 15.33 2.27 15.24 2.23C15.06 2.16 14.92 1.92 14.96 1.90C15.00 1.87 15.22 2.09 15.39 2.16C15.43 2.17 16.34 2.52 16.34 2.51C16.35 2.49 15.55 2.23 15.48 2.19C15.09 2.04 15.03 1.68 15.06 1.66C15.11 1.64 15.25 1.83 15.35 1.88C15.42 1.92 15.54 1.99 16.39 2.34C16.40 2.33 15.84 2.1 15.77 2.06C15.62 1.96 15.50 1.82 15.42 1.70C15.37 1.62 15.37 1.54 15.40 1.54C15.45 1.54 15.60 1.67 15.80 1.73C16.07 1.84 16.37 1.97 16.69 2.14C16.71 2.13 16.34 1.81 16.41 1.79C16.46 1.75 16.98 2.07 17.49 2.20C17.68 2.23 18.20 2.30 18.39 2.38C18.35 2.36 18.34 2.35 18.33 2.34C18.48 1.66 19.09 1.75 19.24 1.90C19.70 1.95 19.53 2.14 19.44 2.17C19.48 2.02 19.29 2.07 19.22 2.02C19.28 2.04 19.33 2.06 19.39 2.08C19.34 2.10 19.32 2.09 19.26 2.10C19.17 2.11 19.02 2.19 19.16 2.44C19.16 2.44 19.35 2.34 20.07 2.39C20.15 2.40 20.56 2.26 20.69 2.22C20.90 2.18 21.57 2.05 21.75 1.92C21.87 1.91 21.72 2.14 21.55 2.19C21.55 2.19 22.74 1.73 22.85 1.64C22.90 1.69 22.41 2.24 21.45 2.44C22.32 2.25 23.06 1.66 23.21 1.68C23.25 1.69 23.24 2.25 21.26 2.75C22.63 2.42 23.42 1.81 23.42 1.87C23.42 1.91 23.28 2.34 22.08 2.71C22.41 2.64 23.33 2.13 23.31 2.23C23.34 2.27 22.43 3.34 20.79 3C22.10 3.31 22.95 2.55 23.07 2.57C23.10 2.57 22.83 3.23 21.18 3.27C21.97 3.19 21.74 3.26 21.74 3.26C21.74 3.26 21.27 3.60 20.71 3.37C21.15 3.48 21.20 3.49 21.21 3.52C21.18 3.57 20.81 3.63 20.46 3.46C20.7 3.55 21.00 3.59 21.00 3.63C20.97 3.67 20.80 3.70 20.71 3.68C20.63 3.66 20.49 3.59 20.31 3.42C20.47 3.60 20.89 3.80 20.82 3.87C20.64 3.95 20.28 3.75 20.13 3.66C20.34 3.90 20.53 3.89 20.46 3.98C20.29 4.05 20.03 3.84 19.96 3.79C19.96 3.81 20.14 3.91 20.09 3.96C19.93 3.96 19.77 3.80 19.77 3.79C19.77 3.82 19.79 3.85 19.80 3.88Z" fill="#EF7D00"/>
<path fill-rule="evenodd" clip-rule="evenodd" d="M21 6H24V18H21V6Z" fill="#EF7D00"/>
<path fill-rule="evenodd" clip-rule="evenodd" d="M15.00 6H18V18H15L15.00 6Z" fill="#DE2010"/>
</g>
<rect x="0.25" y="0.25" width="23.5" height="17.5" rx="1.75" stroke="#DDE0EA" stroke-width="0.5"  style="fill-opacity:0"/>
<defs>
<clipPath id="clip0_1257_30927">
<rect width="24" height="18" rx="2" fill="white"/>
</clipPath>
</defs>
</svg>
