<svg width="16" height="16" viewBox="0 0 16 16" fill="none" xmlns="http://www.w3.org/2000/svg">
<path d="M6.125 6.24977C6.125 5.66643 6.5 4.49977 8 4.49977C8.625 4.49977 9.875 4.84977 9.875 6.24977C9.875 7.12477 9.40625 7.56227 8.9375 7.99977L8.46875 8.43727C8.3749 8.52486 7.65091 9.1867 7.65091 9.74977M7.65091 10.5005C7.64849 11.0861 7.64472 12 7.64472 12M14 8C14 11.3137 11.3137 14 8 14C4.68629 14 2 11.3137 2 8C2 4.68629 4.68629 2 8 2C11.3137 2 14 4.68629 14 8Z" stroke="black" stroke-width="1.5"/>
</svg>
