<svg width="24" height="24" viewBox="0 0 24 24" fill="none" xmlns="http://www.w3.org/2000/svg">
<path d="M13.002 9.38304C13.002 8.49806 13.7859 7.38304 15.2675 7.38304C16.5532 7.38304 17.502 8.40234 17.502 9.38304M17.502 9.38304V17.383M17.502 9.38304C17.502 8.49806 18.2859 7.38304 19.7675 7.38304C21.0532 7.38304 22.002 8.40234 22.002 9.38304V17.383" stroke="#389F74" stroke-width="1.5"/>
<path d="M13.0019 17.3831V9.21161C13.0019 8.22152 12.1596 7.38305 11.0019 7.38305C9.50194 7.38305 9.14322 8.79256 8.95028 9.21161L6.00194 16.6358H5.00194C5.00194 16.6358 2.41247 8.51871 2.2597 7.98937C2.10694 7.46003 1.99805 6.86741 1.99805 6.61696" stroke="#0A402C" stroke-width="1.5"/>
</svg>
