<svg width="24" height="24" viewBox="0 0 24 24" fill="none" xmlns="http://www.w3.org/2000/svg">
<path d="M10.5131 13.3344L4.59188 19.2556C4.59188 19.2556 4.08447 13.5793 6.35188 11.3119C7.46439 10.1994 9.07179 10.4915 10.2969 10.9659M13.5234 13.294L19.6397 19.4081C19.6397 19.4081 13.9634 19.9155 11.696 17.6481C10.6367 16.5889 10.8478 15.0615 11.28 13.8603M13.2891 10.4854L19.4081 4.36023C19.4081 4.36023 19.9155 10.0366 17.6481 12.304C16.5989 13.3532 15.0592 13.1475 13.8633 12.7237M10.4786 10.7101L4.36027 4.59184C4.36027 4.59184 10.0366 4.08444 12.304 6.35184C13.3615 7.40936 13.1529 8.93336 12.7222 10.1337M14 12C14 13.1045 13.1046 14 12 14C10.8954 14 10 13.1045 10 12C10 10.8954 10.8954 9.99996 12 9.99996C13.1046 9.99996 14 10.8954 14 12Z" stroke="black" stroke-width="1.5"/>
</svg>
