<svg width="24" height="24" viewBox="0 0 24 24" fill="none" xmlns="http://www.w3.org/2000/svg">
<path d="M9.70766 6.05676C9.70766 6.05676 1.82638 10.7752 9.04516 15.344C10.4337 16.2337 15.4702 18.7079 15.3266 20.997C15.3266 20.997 16.4734 19.3954 16.4397 17.5632M15.329 21C14.3153 19.7416 10.2536 19.3373 9.72417 19.272C4.34646 18.4362 7.07928 14.3563 7.07928 14.3563L7.32236 13.9632M16.4195 11.1925C13.1351 7.80684 12.2208 5.71269 13.6314 3C13.6314 3 3.83402 6.71079 13.5099 13.2975C16.9705 15.652 16.3974 18.0608 16.3974 18.1479C16.9374 17.5947 19.7034 14.5777 16.4195 11.1925Z" stroke="black" stroke-width="1.5"/>
</svg>
