<svg width="24" height="24" viewBox="0 0 24 24" fill="none" xmlns="http://www.w3.org/2000/svg">
<path d="M18 7.75C16.2 7.75 16 9.44771 16 9.75V13.75C16 14.0523 15.8 15.75 14 15.75C12.2 15.75 12 14.0523 12 13.75V9.75C12 9.44771 11.8 7.75 10 7.75C8.2 7.75 8 9.44771 8 9.75V14.25C8 14.5523 7.8 16.25 6 16.25H5.65026M16.8008 16.8008L21 21M19 11.5C19 15.6421 15.6421 19 11.5 19C7.35786 19 4 15.6421 4 11.5C4 7.35786 7.35786 4 11.5 4C15.6421 4 19 7.35786 19 11.5Z" stroke="black" stroke-width="1.5"/>
</svg>
