<svg width="24" height="24" viewBox="0 0 24 24" fill="none" xmlns="http://www.w3.org/2000/svg">
<path d="M12 20C16.4183 20 20 16.4183 20 12C20 9.03887 18.3912 6.38324 16 5L15.3359 4.66797M12 4C7.58172 4 4 7.58172 4 12C4 14.9611 5.60879 17.6168 8 19L8.66868 19.3343M8 12L10 8.5H14L16 12L14 15.5H10L8 12ZM12.5 12C12.5 12.2761 12.2761 12.5 12 12.5C11.7239 12.5 11.5 12.2761 11.5 12C11.5 11.7239 11.7239 11.5 12 11.5C12.2761 11.5 12.5 11.7239 12.5 12ZM8 20H9V19L8 20ZM15 5V4L16 4L15 5Z" stroke="black" stroke-width="1.5"/>
</svg>
