<svg width="24" height="24" viewBox="0 0 24 24" fill="none" xmlns="http://www.w3.org/2000/svg">
<path d="M4.75 12.2703C4.75 11.8561 4.41421 11.5203 4 11.5203C3.58579 11.5203 3.25 11.8561 3.25 12.2703H4.75ZM19.7905 12.2703C19.7905 12.6845 20.1263 13.0203 20.5405 13.0203C20.9548 13.0203 21.2905 12.6845 21.2905 12.2703H19.7905ZM6.03138 19.431C5.92611 19.8316 6.16554 20.2417 6.56615 20.347C6.96676 20.4523 7.37686 20.2128 7.48213 19.8122L6.03138 19.431ZM7.19596 17.9501L6.47058 17.7595L7.19596 17.9501ZM8.20551 14.1081V13.3581H7.62712L7.48013 13.9175L8.20551 14.1081ZM8.99802 14.1081L9.72376 13.9189L9.57757 13.3581H8.99802V14.1081ZM9.70668 19.7997C9.81117 20.2005 10.2208 20.4407 10.6216 20.3362C11.0224 20.2318 11.2627 19.8221 11.1582 19.4213L9.70668 19.7997ZM12.2703 19.6216H11.5203V20.3716H12.2703V19.6216ZM12.2703 14.1081V13.3581H11.5203V14.1081H12.2703ZM18.75 14C18.75 13.5858 18.4142 13.25 18 13.25C17.5858 13.25 17.25 13.5858 17.25 14H18.75ZM17.25 19.6726C17.25 20.0868 17.5858 20.4226 18 20.4226C18.4142 20.4226 18.75 20.0868 18.75 19.6726H17.25ZM18 16.25C17.5858 16.25 17.25 16.5858 17.25 17C17.25 17.4142 17.5858 17.75 18 17.75V16.25ZM21 17.75C21.4142 17.75 21.75 17.4142 21.75 17C21.75 16.5858 21.4142 16.25 21 16.25V17.75ZM21.75 14C21.75 13.5858 21.4142 13.25 21 13.25C20.5858 13.25 20.25 13.5858 20.25 14H21.75ZM20.25 19.6726C20.25 20.0868 20.5858 20.4226 21 20.4226C21.4142 20.4226 21.75 20.0868 21.75 19.6726H20.25ZM19.7905 7.67568C19.7905 7.93914 19.6735 8.24661 19.3473 8.58938C19.0174 8.93601 18.5047 9.28229 17.8136 9.58941C16.4335 10.2028 14.4742 10.6014 12.2703 10.6014V12.1014C14.6339 12.1014 16.8098 11.6771 18.4228 10.9601C19.2284 10.6021 19.9268 10.1563 20.4339 9.62345C20.9447 9.08672 21.2905 8.42722 21.2905 7.67568H19.7905ZM12.2703 10.6014C10.0663 10.6014 8.10707 10.2028 6.72691 9.58941C6.03588 9.28229 5.52309 8.93601 5.19322 8.58938C4.86702 8.24661 4.75 7.93914 4.75 7.67568H3.25C3.25 8.42722 3.59583 9.08672 4.10662 9.62345C4.61374 10.1563 5.31211 10.6021 6.1177 10.9601C7.73079 11.6771 9.90668 12.1014 12.2703 12.1014V10.6014ZM4.75 7.67568C4.75 7.41221 4.86702 7.10474 5.19322 6.76198C5.52309 6.41534 6.03588 6.06906 6.72691 5.76194C8.10707 5.14853 10.0663 4.75 12.2703 4.75V3.25C9.90668 3.25 7.73079 3.6743 6.1177 4.39122C5.31211 4.74926 4.61374 5.19503 4.10662 5.7279C3.59583 6.26464 3.25 6.92413 3.25 7.67568H4.75ZM12.2703 4.75C14.4742 4.75 16.4335 5.14853 17.8136 5.76194C18.5047 6.06906 19.0174 6.41534 19.3473 6.76198C19.6735 7.10474 19.7905 7.41221 19.7905 7.67568H21.2905C21.2905 6.92413 20.9447 6.26464 20.4339 5.7279C19.9268 5.19503 19.2284 4.74926 18.4228 4.39122C16.8098 3.6743 14.6339 3.25 12.2703 3.25V4.75ZM4.75 16.8649V7.67568H3.25V16.8649H4.75ZM21.2905 12.2703V7.67568H19.7905V12.2703H21.2905ZM6.25587 13.9386C5.22675 13.5907 4.75 12.8228 4.75 12.2703H3.25C3.25 13.6184 4.29482 14.8591 5.77559 15.3596L6.25587 13.9386ZM5.24797 17.7922C5.20933 17.7786 5.07743 17.6926 4.94118 17.4631C4.81182 17.2453 4.75 17.0151 4.75 16.8649H3.25C3.25 17.3413 3.4166 17.8335 3.65144 18.229C3.8794 18.6129 4.2475 19.0311 4.75203 19.2078L5.24797 17.7922ZM7.48213 19.8122L7.92133 18.1407L6.47058 17.7595L6.03138 19.431L7.48213 19.8122ZM7.92133 18.1407L8.93088 14.2987L7.48013 13.9175L6.47058 17.7595L7.92133 18.1407ZM8.20551 14.8581H8.99802V13.3581H8.20551V14.8581ZM8.27227 14.2973L9.27385 18.1393L10.7253 17.761L9.72376 13.9189L8.27227 14.2973ZM9.27385 18.1393L9.70668 19.7997L11.1582 19.4213L10.7253 17.761L9.27385 18.1393ZM7.19596 18.7001H9.99959V17.2001H7.19596V18.7001ZM13.0203 19.6216V14.1081H11.5203V19.6216H13.0203ZM12.2703 14.8581H14.226V13.3581H12.2703V14.8581ZM14.226 14.8581C14.3145 14.8581 14.4711 14.8927 14.5866 14.9806C14.6373 15.0192 14.6805 15.0679 14.7132 15.1348C14.7459 15.202 14.7798 15.3115 14.7798 15.4865H16.2798C16.2798 14.7078 15.9585 14.1397 15.4951 13.787C15.0673 13.4614 14.5721 13.3581 14.226 13.3581V14.8581ZM14.7798 15.4865V18.2432H16.2798V15.4865H14.7798ZM14.7798 18.2432C14.7798 18.3611 14.7405 18.5484 14.6491 18.6825C14.6088 18.7417 14.5635 18.7836 14.5106 18.8124C14.4594 18.8404 14.3728 18.8716 14.226 18.8716V20.3716C15.01 20.3716 15.5619 20.007 15.8889 19.5269C16.1887 19.0867 16.2798 18.5849 16.2798 18.2432H14.7798ZM14.226 18.8716H12.2703V20.3716H14.226V18.8716ZM17.25 14V19.6726H18.75V14H17.25ZM18 17.75H21V16.25H18V17.75ZM20.25 14V19.6726H21.75V14H20.25Z" fill="black"/>
</svg>
