<svg width="24" height="24" viewBox="0 0 24 24" fill="none" xmlns="http://www.w3.org/2000/svg">
<path d="M3 5C3.75 5 5.25 5.4 5.25 7M5.25 7V17M5.25 7C5.25 6.33333 5.7 5 7.5 5C9.3 5 9.75 6.33333 9.75 7M5.25 17C5.25 17.6667 5.7 19 7.5 19C9.3 19 9.75 17.6667 9.75 17M5.25 17C5.25 17.6667 4.8 19 3 19M9.75 17V7M9.75 17C9.75 17.6667 10.2 19 12 19C13.8 19 14.25 17.6667 14.25 17M9.75 7C9.75 6.33333 10.2 5 12 5C13.8 5 14.25 6.33333 14.25 7M14.25 7V17M14.25 7C14.25 6.33333 14.7 5 16.5 5C18.3 5 18.75 6.33333 18.75 7M14.25 17C14.25 17.6667 14.7 19 16.5 19C18.3 19 18.75 17.6667 18.75 17M18.75 17V7M18.75 17C18.75 18.6 20.25 19 21 19M18.75 7C18.75 6.33333 19.2 5 21 5" stroke="black" stroke-width="1.5"/>
</svg>
