<svg width="24" height="24" viewBox="0 0 24 24" fill="none" xmlns="http://www.w3.org/2000/svg">
<path d="M21 19C20.25 19 18.75 18.6 18.75 17V7C18.75 6.33333 18.3 5 16.5 5C14.7 5 14.25 6.33333 14.25 7V17C14.25 17.6667 13.8 19 12 19C10.2 19 9.75 17.6667 9.75 17V7C9.75 6.33333 9.3 5 7.5 5C5.7 5 5.25 6.33333 5.25 7V17C5.25 17.6667 4.8 19 3 19M4 5.19417C3.6395 5.05217 3.27085 5 3 5H2.5M11 5.17169C11.2746 5.06429 11.6048 5 12 5C12.3952 5 12.7254 5.06429 13 5.17169M6.5 18.8283C6.77459 18.9357 7.10475 19 7.5 19C7.89525 19 8.22541 18.9357 8.5 18.8283M15.5 18.8283C15.7746 18.9357 16.1048 19 16.5 19C16.8952 19 17.2254 18.9357 17.5 18.8283M20 5.17169C20.2746 5.06429 20.6048 5 21 5H21.5" stroke="black" stroke-width="1.5"/>
</svg>
