<svg width="24" height="24" viewBox="0 0 24 24" fill="none" xmlns="http://www.w3.org/2000/svg">
<path d="M14 5H6.00004L6.00002 9.83794M14 5V10.0395H19M14 5L19 10.0395M19 10.0395V20.1186H13M8.99999 19.1106H9.98888C10.8629 19.1106 11.5 18.4894 11.5 17.5988C11.5 16.7081 10.8629 16.0869 9.98888 16.0869H8.27458C7.25506 16.0869 6.5 15.4657 6.5 14.5751C6.5 13.6844 7.25506 12.996 8.27458 12.996H8.99999M8.99999 19.1106H6M8.99999 19.1106V22M8.99999 12.996H12M8.99999 12.996V10.0395" stroke="black" stroke-width="1.5"/>
</svg>
