<svg width="24" height="24" viewBox="0 0 24 24" fill="none" xmlns="http://www.w3.org/2000/svg">
<path d="M3.69646 15.6923L2.95568 15.5751L2.94646 15.6333V15.6923H3.69646ZM10.8 11.0769H11.55V11.0138L11.5394 10.9515L10.8 11.0769ZM9.6 4V3.25H8.71212L8.86056 4.12538L9.6 4ZM14.4 4L15.1394 4.12538L15.2879 3.25H14.4V4ZM13.2 11.0769L12.4606 10.9515L12.45 11.0138V11.0769H13.2ZM10.05 11.2426C10.05 11.6568 10.3858 11.9926 10.8 11.9926C11.2142 11.9926 11.55 11.6568 11.55 11.2426H10.05ZM12.45 11.2426C12.45 11.6568 12.7858 11.9926 13.2 11.9926C13.6142 11.9926 13.95 11.6568 13.95 11.2426H12.45ZM8.1 16.7885C7.68579 16.7885 7.35 17.1242 7.35 17.5385C7.35 17.9527 7.68579 18.2885 8.1 18.2885V16.7885ZM9.6 18.2885C10.0142 18.2885 10.35 17.9527 10.35 17.5385C10.35 17.1242 10.0142 16.7885 9.6 16.7885V18.2885ZM14.4 16.7885C13.9858 16.7885 13.65 17.1242 13.65 17.5385C13.65 17.9527 13.9858 18.2885 14.4 18.2885V16.7885ZM15.9 18.2885C16.3142 18.2885 16.65 17.9527 16.65 17.5385C16.65 17.1242 16.3142 16.7885 15.9 16.7885V18.2885ZM10.4422 8.96681L11.1816 8.84142L10.4422 8.96681ZM9.66199 4.3656L10.4014 4.24022V4.24022L9.66199 4.3656ZM2.28016 14.0567L4.08016 20.2106L5.51984 19.7894L3.71984 13.6356L2.28016 14.0567ZM20.2802 13.6356L18.4802 19.7894L19.9198 20.2106L21.7198 14.0567L20.2802 13.6356ZM13.05 12.6154C13.05 13.2388 12.5621 13.7115 12 13.7115V15.2115C13.4261 15.2115 14.55 14.0312 14.55 12.6154H13.05ZM12 13.7115C11.4379 13.7115 10.95 13.2388 10.95 12.6154H9.45C9.45 14.0312 10.5739 15.2115 12 15.2115V13.7115ZM10.95 12.6154C10.95 11.992 11.4379 11.5192 12 11.5192V10.0192C10.5739 10.0192 9.45 11.1996 9.45 12.6154H10.95ZM12 11.5192C12.5621 11.5192 13.05 11.992 13.05 12.6154H14.55C14.55 11.1996 13.4261 10.0192 12 10.0192V11.5192ZM2.94646 15.6923V16.1957H4.44646V15.6923H2.94646ZM3.45 12V13.8462H4.95V12H3.45ZM19.05 12V13.8462H20.55V12H19.05ZM9.6 4.75H14.4V3.25H9.6V4.75ZM10.05 11.0769V11.2426H11.55V11.0769H10.05ZM12.45 11.0769V11.2426H13.95V11.0769H12.45ZM8.1 18.2885H9.6V16.7885H8.1V18.2885ZM14.4 18.2885H15.9V16.7885H14.4V18.2885ZM11.5394 10.9515L11.1816 8.84142L9.70275 9.09219L10.0606 11.2023L11.5394 10.9515ZM4.43724 15.8096C4.92217 12.7457 7.3902 10.2805 10.5756 9.70485L10.3088 8.22876C6.52798 8.91204 3.54538 11.8494 2.95568 15.5751L4.43724 15.8096ZM12.8184 8.84142L12.4606 10.9515L13.9394 11.2023L14.2972 9.09219L12.8184 8.84142ZM13.4244 9.70485C16.706 10.2979 19.2251 12.8954 19.6011 16.0877L21.0908 15.9123C20.6333 12.028 17.5851 8.93248 13.6912 8.22876L13.4244 9.70485ZM11.1816 8.84142L10.4014 4.24022L8.92255 4.49098L9.70275 9.09219L11.1816 8.84142ZM10.4014 4.24022L10.3394 3.87462L8.86056 4.12538L8.92255 4.49098L10.4014 4.24022ZM4.95 12C4.95 8.74172 7.03727 5.9982 9.89176 5.07954L9.43223 3.65166C5.95557 4.77056 3.45 8.09255 3.45 12H4.95ZM13.6606 3.87462L13.5986 4.24022L15.0775 4.49098L15.1394 4.12538L13.6606 3.87462ZM13.5986 4.24022L12.8184 8.84142L14.2972 9.09219L15.0775 4.49098L13.5986 4.24022ZM14.1082 5.07954C16.9627 5.9982 19.05 8.74173 19.05 12H20.55C20.55 8.09255 18.0444 4.77056 14.5678 3.65166L14.1082 5.07954Z" fill="black"/>
</svg>
