<svg width="24" height="24" viewBox="0 0 24 24" fill="none" xmlns="http://www.w3.org/2000/svg">
<path d="M10.5 15.2327C10.9207 15.5545 11.4296 15.7329 12 15.7329C12.5629 15.7329 13.0824 15.5468 13.5002 15.2327L13.5 18.7344L12 18.0674L10.5 18.7344L10.5 15.2327Z" fill="black"/>
<path d="M18 18.7344C19.7477 18.0938 21 16.3652 21 14.3333C21 11.756 18.9851 9.66667 16.5 9.66667C16.5 7.08933 14.4851 5 12 5C9.51489 5 7.5 7.08933 7.5 9.66667C5.01489 9.66667 3 11.756 3 14.3333C3 16.3652 4.25229 18.0938 6 18.7344M14.5 13.2357C14.5 14.6171 13.3807 15.737 12 15.737C10.6193 15.737 9.5 14.6171 9.5 13.2357C9.5 11.8543 10.6193 10.7344 12 10.7344C13.3807 10.7344 14.5 11.8543 14.5 13.2357ZM12 15.7329C11.4296 15.7329 10.9207 15.5545 10.5 15.2327L10.5 18.7344L12 18.0674L13.5 18.7344L13.5002 15.2327C13.0824 15.5468 12.5629 15.7329 12 15.7329Z" stroke="black" stroke-width="1.5"/>
</svg>
