<svg width="24" height="24" viewBox="0 0 24 24" fill="none" xmlns="http://www.w3.org/2000/svg">
<path d="M4.3923 6.58281C4.16189 6.92702 4.25415 7.39285 4.59836 7.62326C4.94258 7.85367 5.4084 7.76141 5.63881 7.41719L4.3923 6.58281ZM5.9689 17.0413C5.71555 16.7136 5.24452 16.6533 4.91682 16.9067C4.58912 17.16 4.52885 17.631 4.78221 17.9587L5.9689 17.0413ZM2.5 15H1.75V15.75H2.5V15ZM2.5 9V8.25H1.75V9H2.5ZM8.25946 15C8.25946 15.4142 8.59525 15.75 9.00946 15.75C9.42367 15.75 9.75946 15.4142 9.75946 15H8.25946ZM9.00946 9L9.65729 8.6221C9.48657 8.32942 9.14081 8.18756 8.81373 8.27599C8.48664 8.36442 8.25946 8.66117 8.25946 9H9.00946ZM12.5095 15L11.8616 15.3779C12.0324 15.6706 12.3781 15.8124 12.7052 15.724C13.0323 15.6356 13.2595 15.3388 13.2595 15H12.5095ZM13.2595 9C13.2595 8.58579 12.9237 8.25 12.5095 8.25C12.0952 8.25 11.7595 8.58579 11.7595 9H13.2595ZM18.2324 9.76045C18.6466 9.76045 18.9824 9.42467 18.9824 9.01045C18.9824 8.59624 18.6466 8.26045 18.2324 8.26045V9.76045ZM16.9909 9.01046L16.9372 8.26238L16.9909 9.01046ZM15.8025 11.3664L16.3747 10.8814L15.8025 11.3664ZM17.8567 12.364L17.4488 12.9933L17.8567 12.364ZM16.9909 15V14.25H16.9909L16.9909 15ZM15.6721 14.25C15.2579 14.25 14.9221 14.5858 14.9221 15C14.9221 15.4142 15.2579 15.75 15.6721 15.75L15.6721 14.25ZM20.75 12C20.75 16.5563 17.0564 20.25 12.5 20.25V21.75C17.8848 21.75 22.25 17.3848 22.25 12H20.75ZM12.5 3.75C17.0564 3.75 20.75 7.44365 20.75 12H22.25C22.25 6.61522 17.8848 2.25 12.5 2.25V3.75ZM5.63881 7.41719C7.12006 5.20433 9.64034 3.75 12.5 3.75V2.25C9.11884 2.25 6.1401 3.97173 4.3923 6.58281L5.63881 7.41719ZM12.5 20.25C9.84271 20.25 7.479 18.9945 5.9689 17.0413L4.78221 17.9587C6.56412 20.2636 9.35865 21.75 12.5 21.75V20.25ZM5.29711 17.7369C5.29711 17.5988 5.40904 17.4869 5.54711 17.4869V18.9869C6.23747 18.9869 6.79711 18.4272 6.79711 17.7369H5.29711ZM5.54711 17.4869C5.68518 17.4869 5.79711 17.5988 5.79711 17.7369H4.29711C4.29711 18.4272 4.85676 18.9869 5.54711 18.9869V17.4869ZM5.79711 17.7369C5.79711 17.8749 5.68518 17.9869 5.54711 17.9869V16.4869C4.85676 16.4869 4.29711 17.0465 4.29711 17.7369H5.79711ZM5.54711 17.9869C5.40904 17.9869 5.29711 17.8749 5.29711 17.7369H6.79711C6.79711 17.0465 6.23747 16.4869 5.54711 16.4869V17.9869ZM3.25 15V9H1.75V15H3.25ZM2.5 9.75H4.62827V8.25H2.5V9.75ZM4.62827 9.75C4.73597 9.75 4.92135 9.79064 5.06079 9.89678C5.16464 9.97583 5.29712 10.1273 5.29712 10.5H6.79712C6.79712 9.67268 6.45665 9.07417 5.96931 8.70322C5.51757 8.35936 4.99352 8.25 4.62827 8.25V9.75ZM5.29712 10.5V13.5H6.79712V10.5H5.29712ZM5.29712 13.5C5.29712 13.6381 5.25207 13.8558 5.14346 14.0153C5.09454 14.0872 5.03768 14.1404 4.96973 14.1775C4.90338 14.2137 4.79812 14.25 4.62827 14.25V15.75C5.45829 15.75 6.03901 15.3651 6.38324 14.8597C6.70028 14.3942 6.79712 13.8619 6.79712 13.5H5.29712ZM4.62827 14.25H2.5V15.75H4.62827V14.25ZM9.75946 15V9H8.25946V15H9.75946ZM8.36163 9.3779L11.8616 15.3779L13.1573 14.6221L9.65729 8.6221L8.36163 9.3779ZM13.2595 15V9H11.7595V15H13.2595ZM18.2324 8.26045C17.5286 8.26045 17.3092 8.25458 17.2281 8.25201C17.2015 8.25117 17.1468 8.24836 17.0855 8.25154C17.0566 8.25303 16.9933 8.25836 16.9372 8.26238L17.0446 9.75853C17.0882 9.7554 17.1182 9.75304 17.1392 9.75139C17.1638 9.74945 17.1649 9.74944 17.1631 9.74953C17.1444 9.7505 17.1144 9.74916 17.1805 9.75126C17.2847 9.75456 17.5222 9.76045 18.2324 9.76045V8.26045ZM16.9372 8.26238C15.8544 8.34011 15.1461 8.94467 14.8737 9.73094C14.6253 10.4477 14.7555 11.291 15.2304 11.8513L16.3747 10.8814C16.2735 10.7621 16.2 10.4846 16.291 10.222C16.3579 10.0289 16.5319 9.79534 17.0446 9.75853L16.9372 8.26238ZM15.2304 11.8513C15.6613 12.3598 16.1299 12.5219 16.5168 12.6313C16.8833 12.735 17.1304 12.787 17.4488 12.9933L18.2646 11.7346C17.7172 11.3798 17.2253 11.2729 16.9251 11.188C16.6454 11.1088 16.5198 11.0527 16.3747 10.8814L15.2304 11.8513ZM17.4488 12.9933C17.68 13.1432 17.8022 13.4619 17.7297 13.766C17.6965 13.9055 17.626 14.0184 17.5266 14.0973C17.4307 14.1733 17.2674 14.25 16.9909 14.25V15.75C18.1912 15.75 18.9726 15.0217 19.1889 14.1137C19.3895 13.2717 19.0944 12.2724 18.2646 11.7346L17.4488 12.9933ZM16.9909 14.25L15.6721 14.25L15.6721 15.75L16.9909 15.75L16.9909 14.25Z" fill="black"/>
</svg>
