<svg width="24" height="24" viewBox="0 0 24 24" fill="none" xmlns="http://www.w3.org/2000/svg">
<path d="M19 18.5839C20.7658 17.8123 22 16.0503 22 14C22 11.2386 19.7612 9 17 9C17 6.23857 14.7612 4 12 4C9.23877 4 7 6.23857 7 9C4.23877 9 2 11.2386 2 14C2 16.0503 3.23416 17.8123 5 18.5839M10 13H6M10 16H6M17 14.5C17 15.8807 15.8807 17 14.5 17C13.1193 17 12 15.8807 12 14.5C12 13.1193 13.1193 12 14.5 12C15.8807 12 17 13.1193 17 14.5ZM14.5 16.996C13.9296 16.996 13.4207 16.8176 13 16.496L13 19.996L14.5 19.3293L16 19.996L16.0002 16.496C15.5824 16.8099 15.0629 16.996 14.5 16.996Z" stroke="black" stroke-width="1.5"/>
</svg>
