<svg width="24" height="24" viewBox="0 0 24 24" fill="none" xmlns="http://www.w3.org/2000/svg">
<path d="M13.8 18.125C13.8 18.6082 13.3971 19 12.9 19C12.4029 19 12 18.6082 12 18.125C12 17.6418 12.4029 17.25 12.9 17.25C13.3971 17.25 13.8 17.6418 13.8 18.125Z" fill="black"/>
<path d="M10.2 5.875C10.2 6.35825 9.79706 6.75 9.3 6.75C8.80294 6.75 8.4 6.35825 8.4 5.875C8.4 5.39175 8.80294 5 9.3 5C9.79706 5 10.2 5.39175 10.2 5.875Z" fill="black"/>
<path d="M12 18.125H7.5C5.01489 18.125 3 16.1663 3 13.75C3 11.3337 5.01489 9.375 7.5 9.375C8.37582 9.375 9.85772 9.74327 10.889 10.9577L18.3 17.7609C19.8893 17.0858 21 15.544 21 13.75C21 11.3337 18.9851 9.375 16.5 9.375C16.5 6.95875 14.4851 5 12 5C11.296 5 10.6298 5.15722 10.0364 5.4375M12 18.125C12 18.6082 12.4029 19 12.9 19C13.3971 19 13.8 18.6082 13.8 18.125C13.8 17.6418 13.3971 17.25 12.9 17.25C12.4029 17.25 12 17.6418 12 18.125ZM9.3 6.75C9.79706 6.75 10.2 6.35825 10.2 5.875C10.2 5.39175 9.79706 5 9.3 5C8.80294 5 8.4 5.39175 8.4 5.875C8.4 6.35825 8.80294 6.75 9.3 6.75Z" stroke="black" stroke-width="1.5"/>
</svg>
