<svg width="24" height="24" viewBox="0 0 24 24" fill="none" xmlns="http://www.w3.org/2000/svg">
<path d="M12 9C12 9.55228 11.5523 10 11 10C10.4477 10 10 9.55228 10 9C10 8.44772 10.4477 8 11 8C11.5523 8 12 8.44772 12 9Z" fill="black"/>
<path d="M12 16C12 16.5523 11.5523 17 11 17C10.4477 17 10 16.5523 10 16C10 15.4477 10.4477 15 11 15C11.5523 15 12 15.4477 12 16Z" fill="black"/>
<path d="M13 12.5C13 13.0523 13.4477 13.5 14 13.5C14.5523 13.5 15 13.0523 15 12.5C15 11.9477 14.5523 11.5 14 11.5C13.4477 11.5 13 11.9477 13 12.5Z" fill="black"/>
<path d="M4 11H8L10.238 9.64755M4 14H8L10.1157 15.5327M20 12.5H15M15 12.5C15 13.0523 14.5523 13.5 14 13.5C13.4477 13.5 13 13.0523 13 12.5C13 11.9477 13.4477 11.5 14 11.5C14.5523 11.5 15 11.9477 15 12.5ZM11.9999 21L18.2141 17.893C19.3086 17.3457 20 16.227 20 15.0033V5H4V15.0033C4 16.227 4.69139 17.3457 5.78593 17.893L11.9999 21ZM12 9C12 9.55228 11.5523 10 11 10C10.4477 10 10 9.55228 10 9C10 8.44772 10.4477 8 11 8C11.5523 8 12 8.44772 12 9ZM12 16C12 16.5523 11.5523 17 11 17C10.4477 17 10 16.5523 10 16C10 15.4477 10.4477 15 11 15C11.5523 15 12 15.4477 12 16Z" stroke="black" stroke-width="1.5"/>
</svg>
