<svg width="24" height="24" viewBox="0 0 24 24" fill="none" xmlns="http://www.w3.org/2000/svg">
<path d="M17 12C17 13.1046 17.8954 14 19 14C20.1046 14 21 13.1046 21 12C21 10.8954 20.1046 10 19 10C17.8954 10 17 10.8954 17 12ZM17 12H10M18 5.2918C17.3518 4.712 16.6185 4.22527 15.8202 3.851C13.983 2.98975 11.9087 2.77458 9.93386 3.24038C7.95903 3.70619 6.19954 4.82564 4.94088 6.4171C3.68223 8.00856 2.99828 9.97863 3 12.0077C3.00173 14.0367 3.68903 16.0056 4.95038 17.5949C6.21174 19.1842 7.97313 20.3007 9.94875 20.7631C11.9244 21.2256 13.9983 21.0069 15.834 20.1425C16.6271 19.7691 17.3556 19.2846 18 18.7082" stroke="black" stroke-width="1.5"/>
</svg>
