<svg width="24" height="24" viewBox="0 0 24 24" fill="none" xmlns="http://www.w3.org/2000/svg">
<path d="M4.35024 18.7409C5.1185 19.2219 6.0268 19.5 7 19.5H17C17.1251 19.5 17.2492 19.4954 17.372 19.4864M2.40657 16.4781C2.14495 15.8714 2 15.2026 2 14.5C2 11.7386 4.23877 9.5 7 9.5C7 8.25517 7.45495 7.11659 8.20762 6.24144M19.9914 18.5068C21.2107 17.595 22 16.1396 22 14.5C22 11.7386 19.7612 9.5 17 9.5C17 6.73857 14.7612 4.5 12 4.5C11.566 4.5 11.1449 4.55531 10.7433 4.65926M17.3235 17.6394L13.5612 14.6177M16.6735 9.75906L13.6106 12.1687M11.3987 11.4578L10.0853 6.87587M4.80958 16.7725L10.2129 14.2424M12 15.3494C13.1046 15.3494 14 14.454 14 13.3494C14 12.2449 13.1046 11.3494 12 11.3494C10.8954 11.3494 10 12.2449 10 13.3494C10 14.454 10.8954 15.3494 12 15.3494ZM9.5 7C10.3284 7 11 6.32843 11 5.5C11 4.67157 10.3284 4 9.5 4C8.67157 4 8 4.67157 8 5.5C8 6.32843 8.67157 7 9.5 7ZM17.5408 9.43894C17.5408 9.71508 17.3169 9.93894 17.0408 9.93894C16.7646 9.93894 16.5408 9.71508 16.5408 9.43894C16.5408 9.1628 16.7646 8.93894 17.0408 8.93894C17.3169 8.93894 17.5408 9.1628 17.5408 9.43894ZM18.5 20C19.3284 20 20 19.3284 20 18.5C20 17.6716 19.3284 17 18.5 17C17.6716 17 17 17.6716 17 18.5C17 19.3284 17.6716 20 18.5 20ZM3.5 19C4.32843 19 5 18.3284 5 17.5C5 16.6716 4.32843 16 3.5 16C2.67157 16 2 16.6716 2 17.5C2 18.3284 2.67157 19 3.5 19Z" stroke="black" stroke-width="1.5"/>
</svg>
