<svg width="24" height="24" viewBox="0 0 24 24" fill="none" xmlns="http://www.w3.org/2000/svg">
<path d="M16.6667 18C19.0597 18 21 16.0599 21 13.6667C21 11.2734 19.0597 9.33333 16.6667 9.33333C16.6667 6.94009 14.7264 5 12.3333 5C9.94027 5 8 6.94009 8 9.33333V10M13 20L9.82843 16.8284M9.82843 16.8284C10.5523 16.1046 11 15.1046 11 14C11 11.7909 9.20914 10 7 10C4.79086 10 3 11.7909 3 14C3 16.2091 4.79086 18 7 18C8.10457 18 9.10457 17.5523 9.82843 16.8284Z" stroke="black" stroke-width="1.5"/>
</svg>
