<svg width="24" height="24" viewBox="0 0 24 24" fill="none" xmlns="http://www.w3.org/2000/svg">
<path d="M17.5 10.7631C17.5 12.1534 15.0376 13.2804 12 13.2804C8.96244 13.2804 6.50001 12.1534 6.50001 10.7631M17.5 10.7631C17.5 9.37278 15.0376 8.24572 12 8.24572C8.96244 8.24572 6.50001 9.37278 6.50001 10.7631M17.5 10.7631V19.1125M6.50001 10.7631V19.1136M17.5 15.0111C17.5 16.4014 15.0376 17.5284 12 17.5284C8.96244 17.5284 6.50001 16.4014 6.50001 15.0111M12 2L20.7272 7V17L12 22L3.27277 17V7L12 2Z" stroke="black" stroke-width="1.5"/>
</svg>
