<svg width="24" height="24" viewBox="0 0 24 24" fill="none" xmlns="http://www.w3.org/2000/svg">
<path d="M13.4218 18.6056C11.7861 17.7786 10.9804 15.5044 9.5371 13.8505C7.71002 11.7566 6.17044 11.6535 4.88992 11.5486C4.62495 12.4539 4.73232 13.4305 4.89031 13.9009C5.1743 14.8875 6.24949 16.4568 8.39115 17.0377L8.20789 15.3123M14.7868 10.6903C13.3649 9.74937 13.3649 9.66663 11.2319 8.28925C10.9041 8.07753 10.5219 7.89915 10.104 7.75723C9.80414 7.6554 10.9079 5.96594 10.5781 5.9028C10.1202 5.81515 7.74427 7.322 7.26027 7.3142C5.83835 7.3142 3.9926 7.90587 3.04802 9.2472C1.42741 11.5485 1.78888 14.8236 4.02229 17.2939C7.14015 20.7426 11.469 19.5464 13.3649 18.6055C15.7347 20.0169 16.8449 18.5842 17.1567 17.6645L15.2608 16.2531C15.9752 15.6784 18.4985 13.0145 18.8102 9.64257C19.7196 9.38712 21.9534 8.0486 21.9534 5.9028C21.4794 5.6942 20.1823 5.55846 18.2864 6.49939C17.1567 4.92779 15.7821 4.40393 14.7868 4.40393C13.8388 5.81532 15.667 8.59485 15.667 8.59485C15.667 8.59485 15.3178 10.2199 14.7868 10.6903Z" stroke="black" stroke-width="1.5"/>
</svg>
