<svg width="40" height="40" viewBox="0 0 40 40" fill="none" xmlns="http://www.w3.org/2000/svg">
<path d="M6.66699 18.3333C6.66699 14.6514 9.65176 11.6667 13.3337 11.6667C17.0156 11.6667 20.0003 14.6514 20.0003 18.3333M33.3337 21.6667C33.3337 25.3486 30.3489 28.3333 26.667 28.3333C22.9851 28.3333 20.0003 25.3486 20.0003 21.6667" stroke="black" stroke-width="2.8"/>
<path d="M11.6667 20H15M25 20H28.3333M6.66667 18.3333C5.74619 18.3333 5 19.0795 5 20C5 20.9205 5.74619 21.6667 6.66667 21.6667C7.58714 21.6667 8.33333 20.9205 8.33333 20C8.33333 19.0795 7.58714 18.3333 6.66667 18.3333ZM20 18.3333C19.0795 18.3333 18.3333 19.0795 18.3333 20C18.3333 20.9205 19.0795 21.6667 20 21.6667C20.9205 21.6667 21.6667 20.9205 21.6667 20C21.6667 19.0795 20.9205 18.3333 20 18.3333ZM33.3333 21.6667C34.2538 21.6667 35 20.9205 35 20C35 19.0795 34.2538 18.3333 33.3333 18.3333C32.4129 18.3333 31.6667 19.0795 31.6667 20C31.6667 20.9205 32.4129 21.6667 33.3333 21.6667ZM6.66667 30.3704V9.62962L9.62963 6.66666H30.3704L33.3333 9.62962V30.3704L30.3704 33.3333H9.62963L6.66667 30.3704Z" stroke="black" stroke-width="2.8"/>
</svg>
