<svg width="24" height="24" viewBox="0 0 24 24" fill="none" xmlns="http://www.w3.org/2000/svg">
<path d="M15 8C15 8.55228 14.5523 9 14 9C13.4477 9 13 8.55228 13 8C13 7.44772 13.4477 7 14 7C14.5523 7 15 7.44772 15 8Z" fill="black"/>
<path d="M20 11C20 11.5523 19.5523 12 19 12C18.4477 12 18 11.5523 18 11C18 10.4477 18.4477 10 19 10C19.5523 10 20 10.4477 20 11Z" fill="black"/>
<path d="M20 17C20 17.5523 19.5523 18 19 18C18.4477 18 18 17.5523 18 17C18 16.4477 18.4477 16 19 16C19.5523 16 20 16.4477 20 17Z" fill="black"/>
<path d="M15 20C15 20.5523 14.5523 21 14 21C13.4477 21 13 20.5523 13 20C13 19.4477 13.4477 19 14 19C14.5523 19 15 19.4477 15 20Z" fill="black"/>
<path d="M18 7L18 4H4V17L7 15.0622H10M14 16C15.1046 16 16 15.1046 16 14C16 12.8954 15.1046 12 14 12M14 16C12.8954 16 12 15.1046 12 14C12 12.8954 12.8954 12 14 12M14 16V19M14 12V9M15.6397 12.8417L18.09 11.4525M18.09 16.6375L15.5875 15.2187M14 9C14.5523 9 15 8.55228 15 8C15 7.44772 14.5523 7 14 7C13.4477 7 13 7.44772 13 8C13 8.55228 13.4477 9 14 9ZM14 19C13.4477 19 13 19.4477 13 20C13 20.5523 13.4477 21 14 21C14.5523 21 15 20.5523 15 20C15 19.4477 14.5523 19 14 19ZM20 11C20 11.5523 19.5523 12 19 12C18.4477 12 18 11.5523 18 11C18 10.4477 18.4477 10 19 10C19.5523 10 20 10.4477 20 11ZM20 17C20 17.5523 19.5523 18 19 18C18.4477 18 18 17.5523 18 17C18 16.4477 18.4477 16 19 16C19.5523 16 20 16.4477 20 17Z" stroke="black" stroke-width="1.5"/>
</svg>
