<svg width="24" height="24" viewBox="0 0 24 24" fill="none" xmlns="http://www.w3.org/2000/svg">
<path d="M11 18C11 18.5523 10.5523 19 10 19C9.44772 19 9 18.5523 9 18C9 17.4477 9.44772 17 10 17C10.5523 17 11 17.4477 11 18Z" fill="black"/>
<path d="M15 18C15 18.5523 14.5523 19 14 19C13.4477 19 13 18.5523 13 18C13 17.4477 13.4477 17 14 17C14.5523 17 15 17.4477 15 18Z" fill="black"/>
<path d="M5 20V5H7.33333L11.4167 14.3333H12.5833L16.6667 5H19V20M11 18C11 18.5523 10.5523 19 10 19C9.44772 19 9 18.5523 9 18C9 17.4477 9.44772 17 10 17C10.5523 17 11 17.4477 11 18ZM15 18C15 18.5523 14.5523 19 14 19C13.4477 19 13 18.5523 13 18C13 17.4477 13.4477 17 14 17C14.5523 17 15 17.4477 15 18Z" stroke="black" stroke-width="1.5"/>
</svg>
