<svg width="24" height="24" viewBox="0 0 24 24" fill="none" xmlns="http://www.w3.org/2000/svg">
<path d="M13.0713 4C10.4989 4 8.20757 5.19276 6.72956 7.05074H17.6835L19 6.28571C17.5442 4.87179 15.2705 4 13.0713 4Z" stroke="black" stroke-width="1.5"/>
<path d="M5.12832 10.5714C5.04401 11.035 5 11.5124 5 12C5 12.4876 5.04401 12.965 5.12832 13.4286H15.3774C15.6656 13.4286 16.8187 13.4286 16.8187 12C16.8187 10.8571 15.8578 10.5714 15.3774 10.5714H5.12832Z" stroke="black" stroke-width="1.5"/>
<path d="M6.72956 16.9493C8.20757 18.8072 10.4989 20 13.0713 20C15.415 20 17.5255 19.0099 19 17.4286L17.6835 16.9493H6.72956Z" stroke="black" stroke-width="1.5"/>
</svg>
