<svg width="24" height="24" viewBox="0 0 24 24" fill="none" xmlns="http://www.w3.org/2000/svg">
<path d="M11.1831 19H7C4.23877 19 2 16.7614 2 14C2 11.2386 4.23877 9 7 9C7 6.23857 9.23877 4 12 4C13.8513 4 15.4678 5.00632 16.3321 6.50184M15.1831 13.1659C15.5734 12.5413 16.1831 12.1659 17.1831 12.1659C18.1831 12.1659 18.8092 12.6033 19.1831 13.1659M12.49 11.3988C13.4057 9.93307 14.8365 9.05223 17.1831 9.05223C19.5297 9.05223 20.9989 10.0785 21.8762 11.3988M14.1831 16H20.1831V19H14.1831V16Z" stroke="black" stroke-width="1.5"/>
</svg>
