<svg width="24" height="24" viewBox="0 0 24 24" fill="none" xmlns="http://www.w3.org/2000/svg">
<path d="M4 15H3.25V15.75H4V15ZM4 9V8.25H3.25V9H4ZM9.75977 15C9.75977 15.4142 10.0956 15.75 10.5098 15.75C10.924 15.75 11.2598 15.4142 11.2598 15H9.75977ZM10.5098 9L11.1576 8.6221C10.9869 8.32942 10.6411 8.18756 10.314 8.27599C9.98694 8.36442 9.75977 8.66117 9.75977 9H10.5098ZM14.0098 15L13.3619 15.3779C13.5327 15.6706 13.8784 15.8124 14.2055 15.724C14.5326 15.6356 14.7598 15.3388 14.7598 15H14.0098ZM14.7598 9C14.7598 8.58579 14.424 8.25 14.0098 8.25C13.5956 8.25 13.2598 8.58579 13.2598 9H14.7598ZM19.7131 9.7602C20.1271 9.77086 20.4715 9.44383 20.4821 9.02975C20.4928 8.61567 20.1657 8.27136 19.7517 8.2607L19.7131 9.7602ZM18.4909 9.01046L18.4372 8.26238L18.4909 9.01046ZM17.3025 11.3664L17.8747 10.8814L17.3025 11.3664ZM19.3567 12.364L18.9488 12.9933L19.3567 12.364ZM18.4909 15V14.25H18.4909L18.4909 15ZM17.1721 14.25C16.7579 14.25 16.4221 14.5858 16.4221 15C16.4221 15.4142 16.7579 15.75 17.1721 15.75L17.1721 14.25ZM4 15H4.75V9H4H3.25V15H4ZM4 9V9.75H6.12827V9V8.25H4V9ZM6.12827 9V9.75C6.23597 9.75 6.42135 9.79064 6.56079 9.89678C6.66464 9.97583 6.79712 10.1273 6.79712 10.5H7.54712H8.29712C8.29712 9.67268 7.95665 9.07417 7.46931 8.70322C7.01757 8.35936 6.49352 8.25 6.12827 8.25V9ZM7.54712 10.5H6.79712V13.5H7.54712H8.29712V10.5H7.54712ZM7.54712 13.5H6.79712C6.79712 13.6381 6.75207 13.8558 6.64346 14.0153C6.59454 14.0872 6.53768 14.1404 6.46973 14.1775C6.40338 14.2137 6.29812 14.25 6.12827 14.25V15V15.75C6.95829 15.75 7.53901 15.3651 7.88324 14.8597C8.20028 14.3942 8.29712 13.8619 8.29712 13.5H7.54712ZM6.12827 15V14.25H4V15V15.75H6.12827V15ZM10.5098 15H11.2598V9H10.5098H9.75977V15H10.5098ZM10.5098 9L9.86193 9.3779L13.3619 15.3779L14.0098 15L14.6576 14.6221L11.1576 8.6221L10.5098 9ZM14.0098 15C14.7598 15 14.7598 15 14.7598 15C14.7598 14.9999 14.7598 14.9999 14.7598 14.9998C14.7598 14.9998 14.7598 14.9997 14.7598 14.9996C14.7598 14.9995 14.7598 14.9994 14.7598 14.9993C14.7598 14.9992 14.7598 14.9991 14.7598 14.999C14.7598 14.9988 14.7598 14.9987 14.7598 14.9985C14.7598 14.9983 14.7598 14.9982 14.7598 14.998C14.7598 14.9978 14.7598 14.9976 14.7598 14.9973C14.7598 14.9971 14.7598 14.9969 14.7598 14.9966C14.7598 14.9964 14.7598 14.9961 14.7598 14.9959C14.7598 14.9956 14.7598 14.9953 14.7598 14.995C14.7598 14.9947 14.7598 14.9944 14.7598 14.994C14.7598 14.9937 14.7598 14.9934 14.7598 14.993C14.7598 14.9927 14.7598 14.9923 14.7598 14.9919C14.7598 14.9915 14.7598 14.9911 14.7598 14.9907C14.7598 14.9903 14.7598 14.9899 14.7598 14.9894C14.7598 14.989 14.7598 14.9886 14.7598 14.9881C14.7598 14.9876 14.7598 14.9871 14.7598 14.9867C14.7598 14.9862 14.7598 14.9857 14.7598 14.9851C14.7598 14.9846 14.7598 14.9841 14.7598 14.9836C14.7598 14.983 14.7598 14.9825 14.7598 14.9819C14.7598 14.9813 14.7598 14.9807 14.7598 14.9801C14.7598 14.9795 14.7598 14.9789 14.7598 14.9783C14.7598 14.9777 14.7598 14.9771 14.7598 14.9764C14.7598 14.9758 14.7598 14.9751 14.7598 14.9744C14.7598 14.9737 14.7598 14.9731 14.7598 14.9724C14.7598 14.9717 14.7598 14.9709 14.7598 14.9702C14.7598 14.9695 14.7598 14.9688 14.7598 14.968C14.7598 14.9673 14.7598 14.9665 14.7598 14.9657C14.7598 14.9649 14.7598 14.9641 14.7598 14.9633C14.7598 14.9625 14.7598 14.9617 14.7598 14.9609C14.7598 14.9601 14.7598 14.9592 14.7598 14.9584C14.7598 14.9575 14.7598 14.9566 14.7598 14.9558C14.7598 14.9549 14.7598 14.954 14.7598 14.9531C14.7598 14.9522 14.7598 14.9513 14.7598 14.9503C14.7598 14.9494 14.7598 14.9484 14.7598 14.9475C14.7598 14.9465 14.7598 14.9456 14.7598 14.9446C14.7598 14.9436 14.7598 14.9426 14.7598 14.9416C14.7598 14.9406 14.7598 14.9396 14.7598 14.9385C14.7598 14.9375 14.7598 14.9365 14.7598 14.9354C14.7598 14.9344 14.7598 14.9333 14.7598 14.9322C14.7598 14.9311 14.7598 14.93 14.7598 14.9289C14.7598 14.9278 14.7598 14.9267 14.7598 14.9256C14.7598 14.9244 14.7598 14.9233 14.7598 14.9221C14.7598 14.921 14.7598 14.9198 14.7598 14.9186C14.7598 14.9174 14.7598 14.9163 14.7598 14.9151C14.7598 14.9138 14.7598 14.9126 14.7598 14.9114C14.7598 14.9102 14.7598 14.9089 14.7598 14.9077C14.7598 14.9064 14.7598 14.9052 14.7598 14.9039C14.7598 14.9026 14.7598 14.9013 14.7598 14.9C14.7598 14.8987 14.7598 14.8974 14.7598 14.8961C14.7598 14.8947 14.7598 14.8934 14.7598 14.892C14.7598 14.8907 14.7598 14.8893 14.7598 14.888C14.7598 14.8866 14.7598 14.8852 14.7598 14.8838C14.7598 14.8824 14.7598 14.881 14.7598 14.8796C14.7598 14.8781 14.7598 14.8767 14.7598 14.8753C14.7598 14.8738 14.7598 14.8724 14.7598 14.8709C14.7598 14.8694 14.7598 14.8679 14.7598 14.8664C14.7598 14.865 14.7598 14.8634 14.7598 14.8619C14.7598 14.8604 14.7598 14.8589 14.7598 14.8573C14.7598 14.8558 14.7598 14.8542 14.7598 14.8527C14.7598 14.8511 14.7598 14.8495 14.7598 14.848C14.7598 14.8464 14.7598 14.8448 14.7598 14.8432C14.7598 14.8415 14.7598 14.8399 14.7598 14.8383C14.7598 14.8367 14.7598 14.835 14.7598 14.8334C14.7598 14.8317 14.7598 14.83 14.7598 14.8284C14.7598 14.8267 14.7598 14.825 14.7598 14.8233C14.7598 14.8216 14.7598 14.8199 14.7598 14.8181C14.7598 14.8164 14.7598 14.8147 14.7598 14.8129C14.7598 14.8112 14.7598 14.8094 14.7598 14.8076C14.7598 14.8059 14.7598 14.8041 14.7598 14.8023C14.7598 14.8005 14.7598 14.7987 14.7598 14.7969C14.7598 14.7951 14.7598 14.7932 14.7598 14.7914C14.7598 14.7896 14.7598 14.7877 14.7598 14.7858C14.7598 14.784 14.7598 14.7821 14.7598 14.7802C14.7598 14.7783 14.7598 14.7764 14.7598 14.7745C14.7598 14.7726 14.7598 14.7707 14.7598 14.7688C14.7598 14.7669 14.7598 14.7649 14.7598 14.763C14.7598 14.761 14.7598 14.7591 14.7598 14.7571C14.7598 14.7551 14.7598 14.7531 14.7598 14.7511C14.7598 14.7491 14.7598 14.7471 14.7598 14.7451C14.7598 14.7431 14.7598 14.7411 14.7598 14.739C14.7598 14.737 14.7598 14.7349 14.7598 14.7329C14.7598 14.7308 14.7598 14.7287 14.7598 14.7267C14.7598 14.7246 14.7598 14.7225 14.7598 14.7204C14.7598 14.7183 14.7598 14.7162 14.7598 14.714C14.7598 14.7119 14.7598 14.7098 14.7598 14.7076C14.7598 14.7055 14.7598 14.7033 14.7598 14.7012C14.7598 14.699 14.7598 14.6968 14.7598 14.6946C14.7598 14.6924 14.7598 14.6902 14.7598 14.688C14.7598 14.6858 14.7598 14.6836 14.7598 14.6814C14.7598 14.6791 14.7598 14.6769 14.7598 14.6746C14.7598 14.6724 14.7598 14.6701 14.7598 14.6678C14.7598 14.6656 14.7598 14.6633 14.7598 14.661C14.7598 14.6587 14.7598 14.6564 14.7598 14.6541C14.7598 14.6517 14.7598 14.6494 14.7598 14.6471C14.7598 14.6447 14.7598 14.6424 14.7598 14.64C14.7598 14.6377 14.7598 14.6353 14.7598 14.6329C14.7598 14.6306 14.7598 14.6282 14.7598 14.6258C14.7598 14.6234 14.7598 14.621 14.7598 14.6185C14.7598 14.6161 14.7598 14.6137 14.7598 14.6112C14.7598 14.6088 14.7598 14.6064 14.7598 14.6039C14.7598 14.6014 14.7598 14.599 14.7598 14.5965C14.7598 14.594 14.7598 14.5915 14.7598 14.589C14.7598 14.5865 14.7598 14.584 14.7598 14.5815C14.7598 14.579 14.7598 14.5764 14.7598 14.5739C14.7598 14.5713 14.7598 14.5688 14.7598 14.5662C14.7598 14.5637 14.7598 14.5611 14.7598 14.5585C14.7598 14.5559 14.7598 14.5533 14.7598 14.5507C14.7598 14.5481 14.7598 14.5455 14.7598 14.5429C14.7598 14.5403 14.7598 14.5377 14.7598 14.535C14.7598 14.5324 14.7598 14.5297 14.7598 14.5271C14.7598 14.5244 14.7598 14.5217 14.7598 14.5191C14.7598 14.5164 14.7598 14.5137 14.7598 14.511C14.7598 14.5083 14.7598 14.5056 14.7598 14.5029C14.7598 14.5001 14.7598 14.4974 14.7598 14.4947C14.7598 14.4919 14.7598 14.4892 14.7598 14.4864C14.7598 14.4837 14.7598 14.4809 14.7598 14.4781C14.7598 14.4754 14.7598 14.4726 14.7598 14.4698C14.7598 14.467 14.7598 14.4642 14.7598 14.4614C14.7598 14.4585 14.7598 14.4557 14.7598 14.4529C14.7598 14.4501 14.7598 14.4472 14.7598 14.4444C14.7598 14.4415 14.7598 14.4386 14.7598 14.4358C14.7598 14.4329 14.7598 14.43 14.7598 14.4271C14.7598 14.4242 14.7598 14.4213 14.7598 14.4184C14.7598 14.4155 14.7598 14.4126 14.7598 14.4097C14.7598 14.4068 14.7598 14.4038 14.7598 14.4009C14.7598 14.3979 14.7598 14.395 14.7598 14.392C14.7598 14.389 14.7598 14.3861 14.7598 14.3831C14.7598 14.3801 14.7598 14.3771 14.7598 14.3741C14.7598 14.3711 14.7598 14.3681 14.7598 14.3651C14.7598 14.3621 14.7598 14.359 14.7598 14.356C14.7598 14.353 14.7598 14.3499 14.7598 14.3469C14.7598 14.3438 14.7598 14.3407 14.7598 14.3377C14.7598 14.3346 14.7598 14.3315 14.7598 14.3284C14.7598 14.3253 14.7598 14.3222 14.7598 14.3191C14.7598 14.316 14.7598 14.3129 14.7598 14.3098C14.7598 14.3066 14.7598 14.3035 14.7598 14.3003C14.7598 14.2972 14.7598 14.294 14.7598 14.2909C14.7598 14.2877 14.7598 14.2846 14.7598 14.2814C14.7598 14.2782 14.7598 14.275 14.7598 14.2718C14.7598 14.2686 14.7598 14.2654 14.7598 14.2622C14.7598 14.259 14.7598 14.2557 14.7598 14.2525C14.7598 14.2493 14.7598 14.246 14.7598 14.2428C14.7598 14.2395 14.7598 14.2363 14.7598 14.233C14.7598 14.2298 14.7598 14.2265 14.7598 14.2232C14.7598 14.2199 14.7598 14.2166 14.7598 14.2133C14.7598 14.21 14.7598 14.2067 14.7598 14.2034C14.7598 14.2001 14.7598 14.1967 14.7598 14.1934C14.7598 14.1901 14.7598 14.1867 14.7598 14.1834C14.7598 14.18 14.7598 14.1767 14.7598 14.1733C14.7598 14.1699 14.7598 14.1666 14.7598 14.1632C14.7598 14.1598 14.7598 14.1564 14.7598 14.153C14.7598 14.1496 14.7598 14.1462 14.7598 14.1428C14.7598 14.1393 14.7598 14.1359 14.7598 14.1325C14.7598 14.129 14.7598 14.1256 14.7598 14.1221C14.7598 14.1187 14.7598 14.1152 14.7598 14.1118C14.7598 14.1083 14.7598 14.1048 14.7598 14.1013C14.7598 14.0979 14.7598 14.0944 14.7598 14.0909C14.7598 14.0874 14.7598 14.0839 14.7598 14.0803C14.7598 14.0768 14.7598 14.0733 14.7598 14.0698C14.7598 14.0662 14.7598 14.0627 14.7598 14.0592C14.7598 14.0556 14.7598 14.0521 14.7598 14.0485C14.7598 14.0449 14.7598 14.0414 14.7598 14.0378C14.7598 14.0342 14.7598 14.0306 14.7598 14.027C14.7598 14.0234 14.7598 14.0198 14.7598 14.0162C14.7598 14.0126 14.7598 14.009 14.7598 14.0053C14.7598 14.0017 14.7598 13.9981 14.7598 13.9944C14.7598 13.9908 14.7598 13.9872 14.7598 13.9835C14.7598 13.9798 14.7598 13.9762 14.7598 13.9725C14.7598 13.9688 14.7598 13.9651 14.7598 13.9615C14.7598 13.9578 14.7598 13.9541 14.7598 13.9504C14.7598 13.9467 14.7598 13.943 14.7598 13.9392C14.7598 13.9355 14.7598 13.9318 14.7598 13.9281C14.7598 13.9243 14.7598 13.9206 14.7598 13.9168C14.7598 13.9131 14.7598 13.9093 14.7598 13.9056C14.7598 13.9018 14.7598 13.898 14.7598 13.8943C14.7598 13.8905 14.7598 13.8867 14.7598 13.8829C14.7598 13.8791 14.7598 13.8753 14.7598 13.8715C14.7598 13.8677 14.7598 13.8639 14.7598 13.8601C14.7598 13.8562 14.7598 13.8524 14.7598 13.8486C14.7598 13.8447 14.7598 13.8409 14.7598 13.837C14.7598 13.8332 14.7598 13.8293 14.7598 13.8255C14.7598 13.8216 14.7598 13.8177 14.7598 13.8138C14.7598 13.81 14.7598 13.8061 14.7598 13.8022C14.7598 13.7983 14.7598 13.7944 14.7598 13.7905C14.7598 13.7866 14.7598 13.7827 14.7598 13.7787C14.7598 13.7748 14.7598 13.7709 14.7598 13.767C14.7598 13.763 14.7598 13.7591 14.7598 13.7551C14.7598 13.7512 14.7598 13.7472 14.7598 13.7433C14.7598 13.7393 14.7598 13.7353 14.7598 13.7313C14.7598 13.7274 14.7598 13.7234 14.7598 13.7194C14.7598 13.7154 14.7598 13.7114 14.7598 13.7074C14.7598 13.7034 14.7598 13.6994 14.7598 13.6954C14.7598 13.6913 14.7598 13.6873 14.7598 13.6833C14.7598 13.6792 14.7598 13.6752 14.7598 13.6712C14.7598 13.6671 14.7598 13.6631 14.7598 13.659C14.7598 13.6549 14.7598 13.6509 14.7598 13.6468C14.7598 13.6427 14.7598 13.6387 14.7598 13.6346C14.7598 13.6305 14.7598 13.6264 14.7598 13.6223C14.7598 13.6182 14.7598 13.6141 14.7598 13.61C14.7598 13.6059 14.7598 13.6017 14.7598 13.5976C14.7598 13.5935 14.7598 13.5894 14.7598 13.5852C14.7598 13.5811 14.7598 13.5769 14.7598 13.5728C14.7598 13.5686 14.7598 13.5645 14.7598 13.5603C14.7598 13.5562 14.7598 13.552 14.7598 13.5478C14.7598 13.5436 14.7598 13.5395 14.7598 13.5353C14.7598 13.5311 14.7598 13.5269 14.7598 13.5227C14.7598 13.5185 14.7598 13.5143 14.7598 13.5101C14.7598 13.5059 14.7598 13.5016 14.7598 13.4974C14.7598 13.4932 14.7598 13.489 14.7598 13.4847C14.7598 13.4805 14.7598 13.4762 14.7598 13.472C14.7598 13.4677 14.7598 13.4635 14.7598 13.4592C14.7598 13.455 14.7598 13.4507 14.7598 13.4464C14.7598 13.4421 14.7598 13.4379 14.7598 13.4336C14.7598 13.4293 14.7598 13.425 14.7598 13.4207C14.7598 13.4164 14.7598 13.4121 14.7598 13.4078C14.7598 13.4035 14.7598 13.3991 14.7598 13.3948C14.7598 13.3905 14.7598 13.3862 14.7598 13.3818C14.7598 13.3775 14.7598 13.3732 14.7598 13.3688C14.7598 13.3645 14.7598 13.3601 14.7598 13.3558C14.7598 13.3514 14.7598 13.347 14.7598 13.3427C14.7598 13.3383 14.7598 13.3339 14.7598 13.3296C14.7598 13.3252 14.7598 13.3208 14.7598 13.3164C14.7598 13.312 14.7598 13.3076 14.7598 13.3032C14.7598 13.2988 14.7598 13.2944 14.7598 13.29C14.7598 13.2856 14.7598 13.2812 14.7598 13.2767C14.7598 13.2723 14.7598 13.2679 14.7598 13.2634C14.7598 13.259 14.7598 13.2546 14.7598 13.2501C14.7598 13.2457 14.7598 13.2412 14.7598 13.2368C14.7598 13.2323 14.7598 13.2278 14.7598 13.2234C14.7598 13.2189 14.7598 13.2144 14.7598 13.2099C14.7598 13.2055 14.7598 13.201 14.7598 13.1965C14.7598 13.192 14.7598 13.1875 14.7598 13.183C14.7598 13.1785 14.7598 13.174 14.7598 13.1695C14.7598 13.165 14.7598 13.1605 14.7598 13.1559C14.7598 13.1514 14.7598 13.1469 14.7598 13.1424C14.7598 13.1378 14.7598 13.1333 14.7598 13.1287C14.7598 13.1242 14.7598 13.1197 14.7598 13.1151C14.7598 13.1105 14.7598 13.106 14.7598 13.1014C14.7598 13.0969 14.7598 13.0923 14.7598 13.0877C14.7598 13.0832 14.7598 13.0786 14.7598 13.074C14.7598 13.0694 14.7598 13.0648 14.7598 13.0602C14.7598 13.0556 14.7598 13.051 14.7598 13.0464C14.7598 13.0418 14.7598 13.0372 14.7598 13.0326C14.7598 13.028 14.7598 13.0234 14.7598 13.0188C14.7598 13.0141 14.7598 13.0095 14.7598 13.0049C14.7598 13.0002 14.7598 12.9956 14.7598 12.991C14.7598 12.9863 14.7598 12.9817 14.7598 12.977C14.7598 12.9724 14.7598 12.9677 14.7598 12.9631C14.7598 12.9584 14.7598 12.9537 14.7598 12.9491C14.7598 12.9444 14.7598 12.9397 14.7598 12.935C14.7598 12.9304 14.7598 12.9257 14.7598 12.921C14.7598 12.9163 14.7598 12.9116 14.7598 12.9069C14.7598 12.9022 14.7598 12.8975 14.7598 12.8928C14.7598 12.8881 14.7598 12.8834 14.7598 12.8787C14.7598 12.874 14.7598 12.8692 14.7598 12.8645C14.7598 12.8598 14.7598 12.8551 14.7598 12.8503C14.7598 12.8456 14.7598 12.8409 14.7598 12.8361C14.7598 12.8314 14.7598 12.8266 14.7598 12.8219C14.7598 12.8171 14.7598 12.8124 14.7598 12.8076C14.7598 12.8029 14.7598 12.7981 14.7598 12.7933C14.7598 12.7886 14.7598 12.7838 14.7598 12.779C14.7598 12.7742 14.7598 12.7695 14.7598 12.7647C14.7598 12.7599 14.7598 12.7551 14.7598 12.7503C14.7598 12.7455 14.7598 12.7407 14.7598 12.7359C14.7598 12.7311 14.7598 12.7263 14.7598 12.7215C14.7598 12.7167 14.7598 12.7119 14.7598 12.7071C14.7598 12.7022 14.7598 12.6974 14.7598 12.6926C14.7598 12.6878 14.7598 12.6829 14.7598 12.6781C14.7598 12.6733 14.7598 12.6684 14.7598 12.6636C14.7598 12.6588 14.7598 12.6539 14.7598 12.6491C14.7598 12.6442 14.7598 12.6394 14.7598 12.6345C14.7598 12.6297 14.7598 12.6248 14.7598 12.6199C14.7598 12.6151 14.7598 12.6102 14.7598 12.6053C14.7598 12.6005 14.7598 12.5956 14.7598 12.5907C14.7598 12.5858 14.7598 12.5809 14.7598 12.576C14.7598 12.5712 14.7598 12.5663 14.7598 12.5614C14.7598 12.5565 14.7598 12.5516 14.7598 12.5467C14.7598 12.5418 14.7598 12.5369 14.7598 12.532C14.7598 12.5271 14.7598 12.5222 14.7598 12.5172C14.7598 12.5123 14.7598 12.5074 14.7598 12.5025C14.7598 12.4976 14.7598 12.4926 14.7598 12.4877C14.7598 12.4828 14.7598 12.4778 14.7598 12.4729C14.7598 12.468 14.7598 12.463 14.7598 12.4581C14.7598 12.4531 14.7598 12.4482 14.7598 12.4432C14.7598 12.4383 14.7598 12.4333 14.7598 12.4284C14.7598 12.4234 14.7598 12.4185 14.7598 12.4135C14.7598 12.4085 14.7598 12.4036 14.7598 12.3986C14.7598 12.3936 14.7598 12.3887 14.7598 12.3837C14.7598 12.3787 14.7598 12.3737 14.7598 12.3687C14.7598 12.3638 14.7598 12.3588 14.7598 12.3538C14.7598 12.3488 14.7598 12.3438 14.7598 12.3388C14.7598 12.3338 14.7598 12.3288 14.7598 12.3238C14.7598 12.3188 14.7598 12.3138 14.7598 12.3088C14.7598 12.3038 14.7598 12.2988 14.7598 12.2938C14.7598 12.2888 14.7598 12.2837 14.7598 12.2787C14.7598 12.2737 14.7598 12.2687 14.7598 12.2636C14.7598 12.2586 14.7598 12.2536 14.7598 12.2486C14.7598 12.2435 14.7598 12.2385 14.7598 12.2335C14.7598 12.2284 14.7598 12.2234 14.7598 12.2183C14.7598 12.2133 14.7598 12.2083 14.7598 12.2032C14.7598 12.1982 14.7598 12.1931 14.7598 12.1881C14.7598 12.183 14.7598 12.1779 14.7598 12.1729C14.7598 12.1678 14.7598 12.1628 14.7598 12.1577C14.7598 12.1526 14.7598 12.1476 14.7598 12.1425C14.7598 12.1374 14.7598 12.1324 14.7598 12.1273C14.7598 12.1222 14.7598 12.1171 14.7598 12.1121C14.7598 12.107 14.7598 12.1019 14.7598 12.0968C14.7598 12.0917 14.7598 12.0866 14.7598 12.0815C14.7598 12.0765 14.7598 12.0714 14.7598 12.0663C14.7598 12.0612 14.7598 12.0561 14.7598 12.051C14.7598 12.0459 14.7598 12.0408 14.7598 12.0357C14.7598 12.0306 14.7598 12.0255 14.7598 12.0203C14.7598 12.0152 14.7598 12.0101 14.7598 12.005C14.7598 11.9999 14.7598 11.9948 14.7598 11.9897C14.7598 11.9845 14.7598 11.9794 14.7598 11.9743C14.7598 11.9692 14.7598 11.9641 14.7598 11.9589C14.7598 11.9538 14.7598 11.9487 14.7598 11.9435C14.7598 11.9384 14.7598 11.9333 14.7598 11.9281C14.7598 11.923 14.7598 11.9179 14.7598 11.9127C14.7598 11.9076 14.7598 11.9024 14.7598 11.8973C14.7598 11.8922 14.7598 11.887 14.7598 11.8819C14.7598 11.8767 14.7598 11.8716 14.7598 11.8664C14.7598 11.8613 14.7598 11.8561 14.7598 11.851C14.7598 11.8458 14.7598 11.8406 14.7598 11.8355C14.7598 11.8303 14.7598 11.8252 14.7598 11.82C14.7598 11.8148 14.7598 11.8097 14.7598 11.8045C14.7598 11.7993 14.7598 11.7942 14.7598 11.789C14.7598 11.7838 14.7598 11.7787 14.7598 11.7735C14.7598 11.7683 14.7598 11.7631 14.7598 11.758C14.7598 11.7528 14.7598 11.7476 14.7598 11.7424C14.7598 11.7372 14.7598 11.7321 14.7598 11.7269C14.7598 11.7217 14.7598 11.7165 14.7598 11.7113C14.7598 11.7061 14.7598 11.7009 14.7598 11.6957C14.7598 11.6906 14.7598 11.6854 14.7598 11.6802C14.7598 11.675 14.7598 11.6698 14.7598 11.6646C14.7598 11.6594 14.7598 11.6542 14.7598 11.649C14.7598 11.6438 14.7598 11.6386 14.7598 11.6334C14.7598 11.6282 14.7598 11.623 14.7598 11.6178C14.7598 11.6126 14.7598 11.6074 14.7598 11.6022C14.7598 11.597 14.7598 11.5917 14.7598 11.5865C14.7598 11.5813 14.7598 11.5761 14.7598 11.5709C14.7598 11.5657 14.7598 11.5605 14.7598 11.5553C14.7598 11.55 14.7598 11.5448 14.7598 11.5396C14.7598 11.5344 14.7598 11.5292 14.7598 11.524C14.7598 11.5187 14.7598 11.5135 14.7598 11.5083C14.7598 11.5031 14.7598 11.4978 14.7598 11.4926C14.7598 11.4874 14.7598 11.4822 14.7598 11.4769C14.7598 11.4717 14.7598 11.4665 14.7598 11.4613C14.7598 11.456 14.7598 11.4508 14.7598 11.4456C14.7598 11.4403 14.7598 11.4351 14.7598 11.4299C14.7598 11.4247 14.7598 11.4194 14.7598 11.4142C14.7598 11.409 14.7598 11.4037 14.7598 11.3985C14.7598 11.3932 14.7598 11.388 14.7598 11.3828C14.7598 11.3775 14.7598 11.3723 14.7598 11.3671C14.7598 11.3618 14.7598 11.3566 14.7598 11.3513C14.7598 11.3461 14.7598 11.3409 14.7598 11.3356C14.7598 11.3304 14.7598 11.3251 14.7598 11.3199C14.7598 11.3146 14.7598 11.3094 14.7598 11.3042C14.7598 11.2989 14.7598 11.2937 14.7598 11.2884C14.7598 11.2832 14.7598 11.2779 14.7598 11.2727C14.7598 11.2674 14.7598 11.2622 14.7598 11.2569C14.7598 11.2517 14.7598 11.2464 14.7598 11.2412C14.7598 11.236 14.7598 11.2307 14.7598 11.2255C14.7598 11.2202 14.7598 11.215 14.7598 11.2097C14.7598 11.2045 14.7598 11.1992 14.7598 11.194C14.7598 11.1887 14.7598 11.1834 14.7598 11.1782C14.7598 11.1729 14.7598 11.1677 14.7598 11.1624C14.7598 11.1572 14.7598 11.1519 14.7598 11.1467C14.7598 11.1414 14.7598 11.1362 14.7598 11.1309C14.7598 11.1257 14.7598 11.1204 14.7598 11.1152C14.7598 11.1099 14.7598 11.1047 14.7598 11.0994C14.7598 11.0941 14.7598 11.0889 14.7598 11.0836C14.7598 11.0784 14.7598 11.0731 14.7598 11.0679C14.7598 11.0626 14.7598 11.0574 14.7598 11.0521C14.7598 11.0469 14.7598 11.0416 14.7598 11.0363C14.7598 11.0311 14.7598 11.0258 14.7598 11.0206C14.7598 11.0153 14.7598 11.0101 14.7598 11.0048C14.7598 10.9996 14.7598 10.9943 14.7598 10.9891C14.7598 10.9838 14.7598 10.9785 14.7598 10.9733C14.7598 10.968 14.7598 10.9628 14.7598 10.9575C14.7598 10.9523 14.7598 10.947 14.7598 10.9418C14.7598 10.9365 14.7598 10.9313 14.7598 10.926C14.7598 10.9208 14.7598 10.9155 14.7598 10.9103C14.7598 10.905 14.7598 10.8998 14.7598 10.8945C14.7598 10.8893 14.7598 10.884 14.7598 10.8787C14.7598 10.8735 14.7598 10.8682 14.7598 10.863C14.7598 10.8577 14.7598 10.8525 14.7598 10.8473C14.7598 10.842 14.7598 10.8368 14.7598 10.8315C14.7598 10.8263 14.7598 10.821 14.7598 10.8158C14.7598 10.8105 14.7598 10.8053 14.7598 10.8C14.7598 10.7948 14.7598 10.7895 14.7598 10.7843C14.7598 10.779 14.7598 10.7738 14.7598 10.7686C14.7598 10.7633 14.7598 10.7581 14.7598 10.7528C14.7598 10.7476 14.7598 10.7423 14.7598 10.7371C14.7598 10.7319 14.7598 10.7266 14.7598 10.7214C14.7598 10.7161 14.7598 10.7109 14.7598 10.7057C14.7598 10.7004 14.7598 10.6952 14.7598 10.69C14.7598 10.6847 14.7598 10.6795 14.7598 10.6742C14.7598 10.669 14.7598 10.6638 14.7598 10.6585C14.7598 10.6533 14.7598 10.6481 14.7598 10.6429C14.7598 10.6376 14.7598 10.6324 14.7598 10.6272C14.7598 10.6219 14.7598 10.6167 14.7598 10.6115C14.7598 10.6063 14.7598 10.601 14.7598 10.5958C14.7598 10.5906 14.7598 10.5854 14.7598 10.5801C14.7598 10.5749 14.7598 10.5697 14.7598 10.5645C14.7598 10.5592 14.7598 10.554 14.7598 10.5488C14.7598 10.5436 14.7598 10.5384 14.7598 10.5332C14.7598 10.5279 14.7598 10.5227 14.7598 10.5175C14.7598 10.5123 14.7598 10.5071 14.7598 10.5019C14.7598 10.4967 14.7598 10.4915 14.7598 10.4862C14.7598 10.481 14.7598 10.4758 14.7598 10.4706C14.7598 10.4654 14.7598 10.4602 14.7598 10.455C14.7598 10.4498 14.7598 10.4446 14.7598 10.4394C14.7598 10.4342 14.7598 10.429 14.7598 10.4238C14.7598 10.4186 14.7598 10.4134 14.7598 10.4082C14.7598 10.403 14.7598 10.3978 14.7598 10.3926C14.7598 10.3875 14.7598 10.3823 14.7598 10.3771C14.7598 10.3719 14.7598 10.3667 14.7598 10.3615C14.7598 10.3563 14.7598 10.3511 14.7598 10.346C14.7598 10.3408 14.7598 10.3356 14.7598 10.3304C14.7598 10.3252 14.7598 10.3201 14.7598 10.3149C14.7598 10.3097 14.7598 10.3045 14.7598 10.2994C14.7598 10.2942 14.7598 10.289 14.7598 10.2839C14.7598 10.2787 14.7598 10.2735 14.7598 10.2684C14.7598 10.2632 14.7598 10.258 14.7598 10.2529C14.7598 10.2477 14.7598 10.2426 14.7598 10.2374C14.7598 10.2322 14.7598 10.2271 14.7598 10.2219C14.7598 10.2168 14.7598 10.2116 14.7598 10.2065C14.7598 10.2013 14.7598 10.1962 14.7598 10.191C14.7598 10.1859 14.7598 10.1807 14.7598 10.1756C14.7598 10.1705 14.7598 10.1653 14.7598 10.1602C14.7598 10.1551 14.7598 10.1499 14.7598 10.1448C14.7598 10.1397 14.7598 10.1345 14.7598 10.1294C14.7598 10.1243 14.7598 10.1191 14.7598 10.114C14.7598 10.1089 14.7598 10.1038 14.7598 10.0986C14.7598 10.0935 14.7598 10.0884 14.7598 10.0833C14.7598 10.0782 14.7598 10.0731 14.7598 10.068C14.7598 10.0628 14.7598 10.0577 14.7598 10.0526C14.7598 10.0475 14.7598 10.0424 14.7598 10.0373C14.7598 10.0322 14.7598 10.0271 14.7598 10.022C14.7598 10.0169 14.7598 10.0118 14.7598 10.0067C14.7598 10.0016 14.7598 9.99656 14.7598 9.99147C14.7598 9.98638 14.7598 9.9813 14.7598 9.97622C14.7598 9.97114 14.7598 9.96606 14.7598 9.96098C14.7598 9.9559 14.7598 9.95083 14.7598 9.94576C14.7598 9.94069 14.7598 9.93562 14.7598 9.93055C14.7598 9.92549 14.7598 9.92042 14.7598 9.91536C14.7598 9.9103 14.7598 9.90524 14.7598 9.90019C14.7598 9.89513 14.7598 9.89008 14.7598 9.88503C14.7598 9.87998 14.7598 9.87493 14.7598 9.86989C14.7598 9.86484 14.7598 9.8598 14.7598 9.85476C14.7598 9.84972 14.7598 9.84469 14.7598 9.83965C14.7598 9.83462 14.7598 9.82959 14.7598 9.82456C14.7598 9.81953 14.7598 9.81451 14.7598 9.80949C14.7598 9.80447 14.7598 9.79945 14.7598 9.79443C14.7598 9.78942 14.7598 9.7844 14.7598 9.77939C14.7598 9.77438 14.7598 9.76938 14.7598 9.76437C14.7598 9.75937 14.7598 9.75437 14.7598 9.74937C14.7598 9.74438 14.7598 9.73938 14.7598 9.73439C14.7598 9.7294 14.7598 9.72441 14.7598 9.71942C14.7598 9.71444 14.7598 9.70946 14.7598 9.70448C14.7598 9.6995 14.7598 9.69453 14.7598 9.68955C14.7598 9.68458 14.7598 9.67961 14.7598 9.67465C14.7598 9.66968 14.7598 9.66472 14.7598 9.65976C14.7598 9.6548 14.7598 9.64984 14.7598 9.64489C14.7598 9.63994 14.7598 9.63499 14.7598 9.63004C14.7598 9.6251 14.7598 9.62016 14.7598 9.61522C14.7598 9.61028 14.7598 9.60534 14.7598 9.60041C14.7598 9.59548 14.7598 9.59055 14.7598 9.58562C14.7598 9.5807 14.7598 9.57578 14.7598 9.57086C14.7598 9.56594 14.7598 9.56103 14.7598 9.55612C14.7598 9.5512 14.7598 9.5463 14.7598 9.54139C14.7598 9.53649 14.7598 9.53159 14.7598 9.52669C14.7598 9.5218 14.7598 9.5169 14.7598 9.51201C14.7598 9.50712 14.7598 9.50224 14.7598 9.49736C14.7598 9.49248 14.7598 9.4876 14.7598 9.48272C14.7598 9.47785 14.7598 9.47298 14.7598 9.46811C14.7598 9.46324 14.7598 9.45838 14.7598 9.45352C14.7598 9.44866 14.7598 9.44381 14.7598 9.43896C14.7598 9.4341 14.7598 9.42926 14.7598 9.42441C14.7598 9.41957 14.7598 9.41473 14.7598 9.40989C14.7598 9.40506 14.7598 9.40022 14.7598 9.3954C14.7598 9.39057 14.7598 9.38574 14.7598 9.38092C14.7598 9.3761 14.7598 9.37129 14.7598 9.36648C14.7598 9.36166 14.7598 9.35686 14.7598 9.35205C14.7598 9.34725 14.7598 9.34245 14.7598 9.33765C14.7598 9.33286 14.7598 9.32807 14.7598 9.32328C14.7598 9.31849 14.7598 9.31371 14.7598 9.30893C14.7598 9.30415 14.7598 9.29937 14.7598 9.2946C14.7598 9.28983 14.7598 9.28507 14.7598 9.2803C14.7598 9.27554 14.7598 9.27078 14.7598 9.26603C14.7598 9.26128 14.7598 9.25653 14.7598 9.25178C14.7598 9.24704 14.7598 9.2423 14.7598 9.23756C14.7598 9.23283 14.7598 9.22809 14.7598 9.22337C14.7598 9.21864 14.7598 9.21392 14.7598 9.2092C14.7598 9.20448 14.7598 9.19977 14.7598 9.19506C14.7598 9.19035 14.7598 9.18564 14.7598 9.18094C14.7598 9.17624 14.7598 9.17154 14.7598 9.16685C14.7598 9.16216 14.7598 9.15747 14.7598 9.15279C14.7598 9.14811 14.7598 9.14343 14.7598 9.13876C14.7598 9.13409 14.7598 9.12942 14.7598 9.12475C14.7598 9.12009 14.7598 9.11543 14.7598 9.11078C14.7598 9.10612 14.7598 9.10147 14.7598 9.09683C14.7598 9.09218 14.7598 9.08754 14.7598 9.08291C14.7598 9.07827 14.7598 9.07364 14.7598 9.06902C14.7598 9.06439 14.7598 9.05977 14.7598 9.05516C14.7598 9.05054 14.7598 9.04593 14.7598 9.04132C14.7598 9.03672 14.7598 9.03211 14.7598 9.02752C14.7598 9.02292 14.7598 9.01833 14.7598 9.01374C14.7598 9.00916 14.7598 9.00458 14.7598 9H14.0098H13.2598C13.2598 9.00458 13.2598 9.00916 13.2598 9.01374C13.2598 9.01833 13.2598 9.02292 13.2598 9.02752C13.2598 9.03211 13.2598 9.03672 13.2598 9.04132C13.2598 9.04593 13.2598 9.05054 13.2598 9.05516C13.2598 9.05977 13.2598 9.06439 13.2598 9.06902C13.2598 9.07364 13.2598 9.07827 13.2598 9.08291C13.2598 9.08754 13.2598 9.09218 13.2598 9.09683C13.2598 9.10147 13.2598 9.10612 13.2598 9.11078C13.2598 9.11543 13.2598 9.12009 13.2598 9.12475C13.2598 9.12942 13.2598 9.13409 13.2598 9.13876C13.2598 9.14343 13.2598 9.14811 13.2598 9.15279C13.2598 9.15747 13.2598 9.16216 13.2598 9.16685C13.2598 9.17154 13.2598 9.17624 13.2598 9.18094C13.2598 9.18564 13.2598 9.19035 13.2598 9.19506C13.2598 9.19977 13.2598 9.20448 13.2598 9.2092C13.2598 9.21392 13.2598 9.21864 13.2598 9.22337C13.2598 9.22809 13.2598 9.23283 13.2598 9.23756C13.2598 9.2423 13.2598 9.24704 13.2598 9.25178C13.2598 9.25653 13.2598 9.26128 13.2598 9.26603C13.2598 9.27078 13.2598 9.27554 13.2598 9.2803C13.2598 9.28507 13.2598 9.28983 13.2598 9.2946C13.2598 9.29937 13.2598 9.30415 13.2598 9.30893C13.2598 9.31371 13.2598 9.31849 13.2598 9.32328C13.2598 9.32807 13.2598 9.33286 13.2598 9.33765C13.2598 9.34245 13.2598 9.34725 13.2598 9.35205C13.2598 9.35686 13.2598 9.36166 13.2598 9.36648C13.2598 9.37129 13.2598 9.3761 13.2598 9.38092C13.2598 9.38574 13.2598 9.39057 13.2598 9.3954C13.2598 9.40022 13.2598 9.40506 13.2598 9.40989C13.2598 9.41473 13.2598 9.41957 13.2598 9.42441C13.2598 9.42926 13.2598 9.4341 13.2598 9.43896C13.2598 9.44381 13.2598 9.44866 13.2598 9.45352C13.2598 9.45838 13.2598 9.46324 13.2598 9.46811C13.2598 9.47298 13.2598 9.47785 13.2598 9.48272C13.2598 9.4876 13.2598 9.49248 13.2598 9.49736C13.2598 9.50224 13.2598 9.50712 13.2598 9.51201C13.2598 9.5169 13.2598 9.5218 13.2598 9.52669C13.2598 9.53159 13.2598 9.53649 13.2598 9.54139C13.2598 9.5463 13.2598 9.5512 13.2598 9.55612C13.2598 9.56103 13.2598 9.56594 13.2598 9.57086C13.2598 9.57578 13.2598 9.5807 13.2598 9.58562C13.2598 9.59055 13.2598 9.59548 13.2598 9.60041C13.2598 9.60534 13.2598 9.61028 13.2598 9.61522C13.2598 9.62016 13.2598 9.6251 13.2598 9.63004C13.2598 9.63499 13.2598 9.63994 13.2598 9.64489C13.2598 9.64984 13.2598 9.6548 13.2598 9.65976C13.2598 9.66472 13.2598 9.66968 13.2598 9.67465C13.2598 9.67961 13.2598 9.68458 13.2598 9.68955C13.2598 9.69453 13.2598 9.6995 13.2598 9.70448C13.2598 9.70946 13.2598 9.71444 13.2598 9.71942C13.2598 9.72441 13.2598 9.7294 13.2598 9.73439C13.2598 9.73938 13.2598 9.74438 13.2598 9.74937C13.2598 9.75437 13.2598 9.75937 13.2598 9.76437C13.2598 9.76938 13.2598 9.77438 13.2598 9.77939C13.2598 9.7844 13.2598 9.78942 13.2598 9.79443C13.2598 9.79945 13.2598 9.80447 13.2598 9.80949C13.2598 9.81451 13.2598 9.81953 13.2598 9.82456C13.2598 9.82959 13.2598 9.83462 13.2598 9.83965C13.2598 9.84469 13.2598 9.84972 13.2598 9.85476C13.2598 9.8598 13.2598 9.86484 13.2598 9.86989C13.2598 9.87493 13.2598 9.87998 13.2598 9.88503C13.2598 9.89008 13.2598 9.89513 13.2598 9.90019C13.2598 9.90524 13.2598 9.9103 13.2598 9.91536C13.2598 9.92042 13.2598 9.92549 13.2598 9.93055C13.2598 9.93562 13.2598 9.94069 13.2598 9.94576C13.2598 9.95083 13.2598 9.9559 13.2598 9.96098C13.2598 9.96606 13.2598 9.97114 13.2598 9.97622C13.2598 9.9813 13.2598 9.98638 13.2598 9.99147C13.2598 9.99656 13.2598 10.0016 13.2598 10.0067C13.2598 10.0118 13.2598 10.0169 13.2598 10.022C13.2598 10.0271 13.2598 10.0322 13.2598 10.0373C13.2598 10.0424 13.2598 10.0475 13.2598 10.0526C13.2598 10.0577 13.2598 10.0628 13.2598 10.068C13.2598 10.0731 13.2598 10.0782 13.2598 10.0833C13.2598 10.0884 13.2598 10.0935 13.2598 10.0986C13.2598 10.1038 13.2598 10.1089 13.2598 10.114C13.2598 10.1191 13.2598 10.1243 13.2598 10.1294C13.2598 10.1345 13.2598 10.1397 13.2598 10.1448C13.2598 10.1499 13.2598 10.1551 13.2598 10.1602C13.2598 10.1653 13.2598 10.1705 13.2598 10.1756C13.2598 10.1807 13.2598 10.1859 13.2598 10.191C13.2598 10.1962 13.2598 10.2013 13.2598 10.2065C13.2598 10.2116 13.2598 10.2168 13.2598 10.2219C13.2598 10.2271 13.2598 10.2322 13.2598 10.2374C13.2598 10.2426 13.2598 10.2477 13.2598 10.2529C13.2598 10.258 13.2598 10.2632 13.2598 10.2684C13.2598 10.2735 13.2598 10.2787 13.2598 10.2839C13.2598 10.289 13.2598 10.2942 13.2598 10.2994C13.2598 10.3045 13.2598 10.3097 13.2598 10.3149C13.2598 10.3201 13.2598 10.3252 13.2598 10.3304C13.2598 10.3356 13.2598 10.3408 13.2598 10.346C13.2598 10.3511 13.2598 10.3563 13.2598 10.3615C13.2598 10.3667 13.2598 10.3719 13.2598 10.3771C13.2598 10.3823 13.2598 10.3875 13.2598 10.3926C13.2598 10.3978 13.2598 10.403 13.2598 10.4082C13.2598 10.4134 13.2598 10.4186 13.2598 10.4238C13.2598 10.429 13.2598 10.4342 13.2598 10.4394C13.2598 10.4446 13.2598 10.4498 13.2598 10.455C13.2598 10.4602 13.2598 10.4654 13.2598 10.4706C13.2598 10.4758 13.2598 10.481 13.2598 10.4862C13.2598 10.4915 13.2598 10.4967 13.2598 10.5019C13.2598 10.5071 13.2598 10.5123 13.2598 10.5175C13.2598 10.5227 13.2598 10.5279 13.2598 10.5332C13.2598 10.5384 13.2598 10.5436 13.2598 10.5488C13.2598 10.554 13.2598 10.5592 13.2598 10.5645C13.2598 10.5697 13.2598 10.5749 13.2598 10.5801C13.2598 10.5854 13.2598 10.5906 13.2598 10.5958C13.2598 10.601 13.2598 10.6063 13.2598 10.6115C13.2598 10.6167 13.2598 10.6219 13.2598 10.6272C13.2598 10.6324 13.2598 10.6376 13.2598 10.6429C13.2598 10.6481 13.2598 10.6533 13.2598 10.6585C13.2598 10.6638 13.2598 10.669 13.2598 10.6742C13.2598 10.6795 13.2598 10.6847 13.2598 10.69C13.2598 10.6952 13.2598 10.7004 13.2598 10.7057C13.2598 10.7109 13.2598 10.7161 13.2598 10.7214C13.2598 10.7266 13.2598 10.7319 13.2598 10.7371C13.2598 10.7423 13.2598 10.7476 13.2598 10.7528C13.2598 10.7581 13.2598 10.7633 13.2598 10.7686C13.2598 10.7738 13.2598 10.779 13.2598 10.7843C13.2598 10.7895 13.2598 10.7948 13.2598 10.8C13.2598 10.8053 13.2598 10.8105 13.2598 10.8158C13.2598 10.821 13.2598 10.8263 13.2598 10.8315C13.2598 10.8368 13.2598 10.842 13.2598 10.8473C13.2598 10.8525 13.2598 10.8577 13.2598 10.863C13.2598 10.8682 13.2598 10.8735 13.2598 10.8787C13.2598 10.884 13.2598 10.8893 13.2598 10.8945C13.2598 10.8998 13.2598 10.905 13.2598 10.9103C13.2598 10.9155 13.2598 10.9208 13.2598 10.926C13.2598 10.9313 13.2598 10.9365 13.2598 10.9418C13.2598 10.947 13.2598 10.9523 13.2598 10.9575C13.2598 10.9628 13.2598 10.968 13.2598 10.9733C13.2598 10.9785 13.2598 10.9838 13.2598 10.9891C13.2598 10.9943 13.2598 10.9996 13.2598 11.0048C13.2598 11.0101 13.2598 11.0153 13.2598 11.0206C13.2598 11.0258 13.2598 11.0311 13.2598 11.0363C13.2598 11.0416 13.2598 11.0469 13.2598 11.0521C13.2598 11.0574 13.2598 11.0626 13.2598 11.0679C13.2598 11.0731 13.2598 11.0784 13.2598 11.0836C13.2598 11.0889 13.2598 11.0941 13.2598 11.0994C13.2598 11.1047 13.2598 11.1099 13.2598 11.1152C13.2598 11.1204 13.2598 11.1257 13.2598 11.1309C13.2598 11.1362 13.2598 11.1414 13.2598 11.1467C13.2598 11.1519 13.2598 11.1572 13.2598 11.1624C13.2598 11.1677 13.2598 11.1729 13.2598 11.1782C13.2598 11.1834 13.2598 11.1887 13.2598 11.194C13.2598 11.1992 13.2598 11.2045 13.2598 11.2097C13.2598 11.215 13.2598 11.2202 13.2598 11.2255C13.2598 11.2307 13.2598 11.236 13.2598 11.2412C13.2598 11.2464 13.2598 11.2517 13.2598 11.2569C13.2598 11.2622 13.2598 11.2674 13.2598 11.2727C13.2598 11.2779 13.2598 11.2832 13.2598 11.2884C13.2598 11.2937 13.2598 11.2989 13.2598 11.3042C13.2598 11.3094 13.2598 11.3146 13.2598 11.3199C13.2598 11.3251 13.2598 11.3304 13.2598 11.3356C13.2598 11.3409 13.2598 11.3461 13.2598 11.3513C13.2598 11.3566 13.2598 11.3618 13.2598 11.3671C13.2598 11.3723 13.2598 11.3775 13.2598 11.3828C13.2598 11.388 13.2598 11.3932 13.2598 11.3985C13.2598 11.4037 13.2598 11.409 13.2598 11.4142C13.2598 11.4194 13.2598 11.4247 13.2598 11.4299C13.2598 11.4351 13.2598 11.4403 13.2598 11.4456C13.2598 11.4508 13.2598 11.456 13.2598 11.4613C13.2598 11.4665 13.2598 11.4717 13.2598 11.4769C13.2598 11.4822 13.2598 11.4874 13.2598 11.4926C13.2598 11.4978 13.2598 11.5031 13.2598 11.5083C13.2598 11.5135 13.2598 11.5187 13.2598 11.524C13.2598 11.5292 13.2598 11.5344 13.2598 11.5396C13.2598 11.5448 13.2598 11.55 13.2598 11.5553C13.2598 11.5605 13.2598 11.5657 13.2598 11.5709C13.2598 11.5761 13.2598 11.5813 13.2598 11.5865C13.2598 11.5917 13.2598 11.597 13.2598 11.6022C13.2598 11.6074 13.2598 11.6126 13.2598 11.6178C13.2598 11.623 13.2598 11.6282 13.2598 11.6334C13.2598 11.6386 13.2598 11.6438 13.2598 11.649C13.2598 11.6542 13.2598 11.6594 13.2598 11.6646C13.2598 11.6698 13.2598 11.675 13.2598 11.6802C13.2598 11.6854 13.2598 11.6906 13.2598 11.6957C13.2598 11.7009 13.2598 11.7061 13.2598 11.7113C13.2598 11.7165 13.2598 11.7217 13.2598 11.7269C13.2598 11.7321 13.2598 11.7372 13.2598 11.7424C13.2598 11.7476 13.2598 11.7528 13.2598 11.758C13.2598 11.7631 13.2598 11.7683 13.2598 11.7735C13.2598 11.7787 13.2598 11.7838 13.2598 11.789C13.2598 11.7942 13.2598 11.7993 13.2598 11.8045C13.2598 11.8097 13.2598 11.8148 13.2598 11.82C13.2598 11.8252 13.2598 11.8303 13.2598 11.8355C13.2598 11.8406 13.2598 11.8458 13.2598 11.851C13.2598 11.8561 13.2598 11.8613 13.2598 11.8664C13.2598 11.8716 13.2598 11.8767 13.2598 11.8819C13.2598 11.887 13.2598 11.8922 13.2598 11.8973C13.2598 11.9024 13.2598 11.9076 13.2598 11.9127C13.2598 11.9179 13.2598 11.923 13.2598 11.9281C13.2598 11.9333 13.2598 11.9384 13.2598 11.9435C13.2598 11.9487 13.2598 11.9538 13.2598 11.9589C13.2598 11.9641 13.2598 11.9692 13.2598 11.9743C13.2598 11.9794 13.2598 11.9845 13.2598 11.9897C13.2598 11.9948 13.2598 11.9999 13.2598 12.005C13.2598 12.0101 13.2598 12.0152 13.2598 12.0203C13.2598 12.0255 13.2598 12.0306 13.2598 12.0357C13.2598 12.0408 13.2598 12.0459 13.2598 12.051C13.2598 12.0561 13.2598 12.0612 13.2598 12.0663C13.2598 12.0714 13.2598 12.0765 13.2598 12.0815C13.2598 12.0866 13.2598 12.0917 13.2598 12.0968C13.2598 12.1019 13.2598 12.107 13.2598 12.1121C13.2598 12.1171 13.2598 12.1222 13.2598 12.1273C13.2598 12.1324 13.2598 12.1374 13.2598 12.1425C13.2598 12.1476 13.2598 12.1526 13.2598 12.1577C13.2598 12.1628 13.2598 12.1678 13.2598 12.1729C13.2598 12.1779 13.2598 12.183 13.2598 12.1881C13.2598 12.1931 13.2598 12.1982 13.2598 12.2032C13.2598 12.2083 13.2598 12.2133 13.2598 12.2183C13.2598 12.2234 13.2598 12.2284 13.2598 12.2335C13.2598 12.2385 13.2598 12.2435 13.2598 12.2486C13.2598 12.2536 13.2598 12.2586 13.2598 12.2636C13.2598 12.2687 13.2598 12.2737 13.2598 12.2787C13.2598 12.2837 13.2598 12.2888 13.2598 12.2938C13.2598 12.2988 13.2598 12.3038 13.2598 12.3088C13.2598 12.3138 13.2598 12.3188 13.2598 12.3238C13.2598 12.3288 13.2598 12.3338 13.2598 12.3388C13.2598 12.3438 13.2598 12.3488 13.2598 12.3538C13.2598 12.3588 13.2598 12.3638 13.2598 12.3687C13.2598 12.3737 13.2598 12.3787 13.2598 12.3837C13.2598 12.3887 13.2598 12.3936 13.2598 12.3986C13.2598 12.4036 13.2598 12.4085 13.2598 12.4135C13.2598 12.4185 13.2598 12.4234 13.2598 12.4284C13.2598 12.4333 13.2598 12.4383 13.2598 12.4432C13.2598 12.4482 13.2598 12.4531 13.2598 12.4581C13.2598 12.463 13.2598 12.468 13.2598 12.4729C13.2598 12.4778 13.2598 12.4828 13.2598 12.4877C13.2598 12.4926 13.2598 12.4976 13.2598 12.5025C13.2598 12.5074 13.2598 12.5123 13.2598 12.5172C13.2598 12.5222 13.2598 12.5271 13.2598 12.532C13.2598 12.5369 13.2598 12.5418 13.2598 12.5467C13.2598 12.5516 13.2598 12.5565 13.2598 12.5614C13.2598 12.5663 13.2598 12.5712 13.2598 12.576C13.2598 12.5809 13.2598 12.5858 13.2598 12.5907C13.2598 12.5956 13.2598 12.6005 13.2598 12.6053C13.2598 12.6102 13.2598 12.6151 13.2598 12.6199C13.2598 12.6248 13.2598 12.6297 13.2598 12.6345C13.2598 12.6394 13.2598 12.6442 13.2598 12.6491C13.2598 12.6539 13.2598 12.6588 13.2598 12.6636C13.2598 12.6684 13.2598 12.6733 13.2598 12.6781C13.2598 12.6829 13.2598 12.6878 13.2598 12.6926C13.2598 12.6974 13.2598 12.7022 13.2598 12.7071C13.2598 12.7119 13.2598 12.7167 13.2598 12.7215C13.2598 12.7263 13.2598 12.7311 13.2598 12.7359C13.2598 12.7407 13.2598 12.7455 13.2598 12.7503C13.2598 12.7551 13.2598 12.7599 13.2598 12.7647C13.2598 12.7695 13.2598 12.7742 13.2598 12.779C13.2598 12.7838 13.2598 12.7886 13.2598 12.7933C13.2598 12.7981 13.2598 12.8029 13.2598 12.8076C13.2598 12.8124 13.2598 12.8171 13.2598 12.8219C13.2598 12.8266 13.2598 12.8314 13.2598 12.8361C13.2598 12.8409 13.2598 12.8456 13.2598 12.8503C13.2598 12.8551 13.2598 12.8598 13.2598 12.8645C13.2598 12.8692 13.2598 12.874 13.2598 12.8787C13.2598 12.8834 13.2598 12.8881 13.2598 12.8928C13.2598 12.8975 13.2598 12.9022 13.2598 12.9069C13.2598 12.9116 13.2598 12.9163 13.2598 12.921C13.2598 12.9257 13.2598 12.9304 13.2598 12.935C13.2598 12.9397 13.2598 12.9444 13.2598 12.9491C13.2598 12.9537 13.2598 12.9584 13.2598 12.9631C13.2598 12.9677 13.2598 12.9724 13.2598 12.977C13.2598 12.9817 13.2598 12.9863 13.2598 12.991C13.2598 12.9956 13.2598 13.0002 13.2598 13.0049C13.2598 13.0095 13.2598 13.0141 13.2598 13.0188C13.2598 13.0234 13.2598 13.028 13.2598 13.0326C13.2598 13.0372 13.2598 13.0418 13.2598 13.0464C13.2598 13.051 13.2598 13.0556 13.2598 13.0602C13.2598 13.0648 13.2598 13.0694 13.2598 13.074C13.2598 13.0786 13.2598 13.0832 13.2598 13.0877C13.2598 13.0923 13.2598 13.0969 13.2598 13.1014C13.2598 13.106 13.2598 13.1105 13.2598 13.1151C13.2598 13.1197 13.2598 13.1242 13.2598 13.1287C13.2598 13.1333 13.2598 13.1378 13.2598 13.1424C13.2598 13.1469 13.2598 13.1514 13.2598 13.1559C13.2598 13.1605 13.2598 13.165 13.2598 13.1695C13.2598 13.174 13.2598 13.1785 13.2598 13.183C13.2598 13.1875 13.2598 13.192 13.2598 13.1965C13.2598 13.201 13.2598 13.2055 13.2598 13.2099C13.2598 13.2144 13.2598 13.2189 13.2598 13.2234C13.2598 13.2278 13.2598 13.2323 13.2598 13.2368C13.2598 13.2412 13.2598 13.2457 13.2598 13.2501C13.2598 13.2546 13.2598 13.259 13.2598 13.2634C13.2598 13.2679 13.2598 13.2723 13.2598 13.2767C13.2598 13.2812 13.2598 13.2856 13.2598 13.29C13.2598 13.2944 13.2598 13.2988 13.2598 13.3032C13.2598 13.3076 13.2598 13.312 13.2598 13.3164C13.2598 13.3208 13.2598 13.3252 13.2598 13.3296C13.2598 13.3339 13.2598 13.3383 13.2598 13.3427C13.2598 13.347 13.2598 13.3514 13.2598 13.3558C13.2598 13.3601 13.2598 13.3645 13.2598 13.3688C13.2598 13.3732 13.2598 13.3775 13.2598 13.3818C13.2598 13.3862 13.2598 13.3905 13.2598 13.3948C13.2598 13.3991 13.2598 13.4035 13.2598 13.4078C13.2598 13.4121 13.2598 13.4164 13.2598 13.4207C13.2598 13.425 13.2598 13.4293 13.2598 13.4336C13.2598 13.4379 13.2598 13.4421 13.2598 13.4464C13.2598 13.4507 13.2598 13.455 13.2598 13.4592C13.2598 13.4635 13.2598 13.4677 13.2598 13.472C13.2598 13.4762 13.2598 13.4805 13.2598 13.4847C13.2598 13.489 13.2598 13.4932 13.2598 13.4974C13.2598 13.5016 13.2598 13.5059 13.2598 13.5101C13.2598 13.5143 13.2598 13.5185 13.2598 13.5227C13.2598 13.5269 13.2598 13.5311 13.2598 13.5353C13.2598 13.5395 13.2598 13.5436 13.2598 13.5478C13.2598 13.552 13.2598 13.5562 13.2598 13.5603C13.2598 13.5645 13.2598 13.5686 13.2598 13.5728C13.2598 13.5769 13.2598 13.5811 13.2598 13.5852C13.2598 13.5894 13.2598 13.5935 13.2598 13.5976C13.2598 13.6017 13.2598 13.6059 13.2598 13.61C13.2598 13.6141 13.2598 13.6182 13.2598 13.6223C13.2598 13.6264 13.2598 13.6305 13.2598 13.6346C13.2598 13.6387 13.2598 13.6427 13.2598 13.6468C13.2598 13.6509 13.2598 13.6549 13.2598 13.659C13.2598 13.6631 13.2598 13.6671 13.2598 13.6712C13.2598 13.6752 13.2598 13.6792 13.2598 13.6833C13.2598 13.6873 13.2598 13.6913 13.2598 13.6954C13.2598 13.6994 13.2598 13.7034 13.2598 13.7074C13.2598 13.7114 13.2598 13.7154 13.2598 13.7194C13.2598 13.7234 13.2598 13.7274 13.2598 13.7313C13.2598 13.7353 13.2598 13.7393 13.2598 13.7433C13.2598 13.7472 13.2598 13.7512 13.2598 13.7551C13.2598 13.7591 13.2598 13.763 13.2598 13.767C13.2598 13.7709 13.2598 13.7748 13.2598 13.7787C13.2598 13.7827 13.2598 13.7866 13.2598 13.7905C13.2598 13.7944 13.2598 13.7983 13.2598 13.8022C13.2598 13.8061 13.2598 13.81 13.2598 13.8138C13.2598 13.8177 13.2598 13.8216 13.2598 13.8255C13.2598 13.8293 13.2598 13.8332 13.2598 13.837C13.2598 13.8409 13.2598 13.8447 13.2598 13.8486C13.2598 13.8524 13.2598 13.8562 13.2598 13.8601C13.2598 13.8639 13.2598 13.8677 13.2598 13.8715C13.2598 13.8753 13.2598 13.8791 13.2598 13.8829C13.2598 13.8867 13.2598 13.8905 13.2598 13.8943C13.2598 13.898 13.2598 13.9018 13.2598 13.9056C13.2598 13.9093 13.2598 13.9131 13.2598 13.9168C13.2598 13.9206 13.2598 13.9243 13.2598 13.9281C13.2598 13.9318 13.2598 13.9355 13.2598 13.9392C13.2598 13.943 13.2598 13.9467 13.2598 13.9504C13.2598 13.9541 13.2598 13.9578 13.2598 13.9615C13.2598 13.9651 13.2598 13.9688 13.2598 13.9725C13.2598 13.9762 13.2598 13.9798 13.2598 13.9835C13.2598 13.9872 13.2598 13.9908 13.2598 13.9944C13.2598 13.9981 13.2598 14.0017 13.2598 14.0053C13.2598 14.009 13.2598 14.0126 13.2598 14.0162C13.2598 14.0198 13.2598 14.0234 13.2598 14.027C13.2598 14.0306 13.2598 14.0342 13.2598 14.0378C13.2598 14.0414 13.2598 14.0449 13.2598 14.0485C13.2598 14.0521 13.2598 14.0556 13.2598 14.0592C13.2598 14.0627 13.2598 14.0662 13.2598 14.0698C13.2598 14.0733 13.2598 14.0768 13.2598 14.0803C13.2598 14.0839 13.2598 14.0874 13.2598 14.0909C13.2598 14.0944 13.2598 14.0979 13.2598 14.1013C13.2598 14.1048 13.2598 14.1083 13.2598 14.1118C13.2598 14.1152 13.2598 14.1187 13.2598 14.1221C13.2598 14.1256 13.2598 14.129 13.2598 14.1325C13.2598 14.1359 13.2598 14.1393 13.2598 14.1428C13.2598 14.1462 13.2598 14.1496 13.2598 14.153C13.2598 14.1564 13.2598 14.1598 13.2598 14.1632C13.2598 14.1666 13.2598 14.1699 13.2598 14.1733C13.2598 14.1767 13.2598 14.18 13.2598 14.1834C13.2598 14.1867 13.2598 14.1901 13.2598 14.1934C13.2598 14.1967 13.2598 14.2001 13.2598 14.2034C13.2598 14.2067 13.2598 14.21 13.2598 14.2133C13.2598 14.2166 13.2598 14.2199 13.2598 14.2232C13.2598 14.2265 13.2598 14.2298 13.2598 14.233C13.2598 14.2363 13.2598 14.2395 13.2598 14.2428C13.2598 14.246 13.2598 14.2493 13.2598 14.2525C13.2598 14.2557 13.2598 14.259 13.2598 14.2622C13.2598 14.2654 13.2598 14.2686 13.2598 14.2718C13.2598 14.275 13.2598 14.2782 13.2598 14.2814C13.2598 14.2846 13.2598 14.2877 13.2598 14.2909C13.2598 14.294 13.2598 14.2972 13.2598 14.3003C13.2598 14.3035 13.2598 14.3066 13.2598 14.3098C13.2598 14.3129 13.2598 14.316 13.2598 14.3191C13.2598 14.3222 13.2598 14.3253 13.2598 14.3284C13.2598 14.3315 13.2598 14.3346 13.2598 14.3377C13.2598 14.3407 13.2598 14.3438 13.2598 14.3469C13.2598 14.3499 13.2598 14.353 13.2598 14.356C13.2598 14.359 13.2598 14.3621 13.2598 14.3651C13.2598 14.3681 13.2598 14.3711 13.2598 14.3741C13.2598 14.3771 13.2598 14.3801 13.2598 14.3831C13.2598 14.3861 13.2598 14.389 13.2598 14.392C13.2598 14.395 13.2598 14.3979 13.2598 14.4009C13.2598 14.4038 13.2598 14.4068 13.2598 14.4097C13.2598 14.4126 13.2598 14.4155 13.2598 14.4184C13.2598 14.4213 13.2598 14.4242 13.2598 14.4271C13.2598 14.43 13.2598 14.4329 13.2598 14.4358C13.2598 14.4386 13.2598 14.4415 13.2598 14.4444C13.2598 14.4472 13.2598 14.4501 13.2598 14.4529C13.2598 14.4557 13.2598 14.4585 13.2598 14.4614C13.2598 14.4642 13.2598 14.467 13.2598 14.4698C13.2598 14.4726 13.2598 14.4754 13.2598 14.4781C13.2598 14.4809 13.2598 14.4837 13.2598 14.4864C13.2598 14.4892 13.2598 14.4919 13.2598 14.4947C13.2598 14.4974 13.2598 14.5001 13.2598 14.5029C13.2598 14.5056 13.2598 14.5083 13.2598 14.511C13.2598 14.5137 13.2598 14.5164 13.2598 14.5191C13.2598 14.5217 13.2598 14.5244 13.2598 14.5271C13.2598 14.5297 13.2598 14.5324 13.2598 14.535C13.2598 14.5377 13.2598 14.5403 13.2598 14.5429C13.2598 14.5455 13.2598 14.5481 13.2598 14.5507C13.2598 14.5533 13.2598 14.5559 13.2598 14.5585C13.2598 14.5611 13.2598 14.5637 13.2598 14.5662C13.2598 14.5688 13.2598 14.5713 13.2598 14.5739C13.2598 14.5764 13.2598 14.579 13.2598 14.5815C13.2598 14.584 13.2598 14.5865 13.2598 14.589C13.2598 14.5915 13.2598 14.594 13.2598 14.5965C13.2598 14.599 13.2598 14.6014 13.2598 14.6039C13.2598 14.6064 13.2598 14.6088 13.2598 14.6112C13.2598 14.6137 13.2598 14.6161 13.2598 14.6185C13.2598 14.621 13.2598 14.6234 13.2598 14.6258C13.2598 14.6282 13.2598 14.6306 13.2598 14.6329C13.2598 14.6353 13.2598 14.6377 13.2598 14.64C13.2598 14.6424 13.2598 14.6447 13.2598 14.6471C13.2598 14.6494 13.2598 14.6517 13.2598 14.6541C13.2598 14.6564 13.2598 14.6587 13.2598 14.661C13.2598 14.6633 13.2598 14.6656 13.2598 14.6678C13.2598 14.6701 13.2598 14.6724 13.2598 14.6746C13.2598 14.6769 13.2598 14.6791 13.2598 14.6814C13.2598 14.6836 13.2598 14.6858 13.2598 14.688C13.2598 14.6902 13.2598 14.6924 13.2598 14.6946C13.2598 14.6968 13.2598 14.699 13.2598 14.7012C13.2598 14.7033 13.2598 14.7055 13.2598 14.7076C13.2598 14.7098 13.2598 14.7119 13.2598 14.714C13.2598 14.7162 13.2598 14.7183 13.2598 14.7204C13.2598 14.7225 13.2598 14.7246 13.2598 14.7267C13.2598 14.7287 13.2598 14.7308 13.2598 14.7329C13.2598 14.7349 13.2598 14.737 13.2598 14.739C13.2598 14.7411 13.2598 14.7431 13.2598 14.7451C13.2598 14.7471 13.2598 14.7491 13.2598 14.7511C13.2598 14.7531 13.2598 14.7551 13.2598 14.7571C13.2598 14.7591 13.2598 14.761 13.2598 14.763C13.2598 14.7649 13.2598 14.7669 13.2598 14.7688C13.2598 14.7707 13.2598 14.7726 13.2598 14.7745C13.2598 14.7764 13.2598 14.7783 13.2598 14.7802C13.2598 14.7821 13.2598 14.784 13.2598 14.7858C13.2598 14.7877 13.2598 14.7896 13.2598 14.7914C13.2598 14.7932 13.2598 14.7951 13.2598 14.7969C13.2598 14.7987 13.2598 14.8005 13.2598 14.8023C13.2598 14.8041 13.2598 14.8059 13.2598 14.8076C13.2598 14.8094 13.2598 14.8112 13.2598 14.8129C13.2598 14.8147 13.2598 14.8164 13.2598 14.8181C13.2598 14.8199 13.2598 14.8216 13.2598 14.8233C13.2598 14.825 13.2598 14.8267 13.2598 14.8284C13.2598 14.83 13.2598 14.8317 13.2598 14.8334C13.2598 14.835 13.2598 14.8367 13.2598 14.8383C13.2598 14.8399 13.2598 14.8415 13.2598 14.8432C13.2598 14.8448 13.2598 14.8464 13.2598 14.848C13.2598 14.8495 13.2598 14.8511 13.2598 14.8527C13.2598 14.8542 13.2598 14.8558 13.2598 14.8573C13.2598 14.8589 13.2598 14.8604 13.2598 14.8619C13.2598 14.8634 13.2598 14.865 13.2598 14.8664C13.2598 14.8679 13.2598 14.8694 13.2598 14.8709C13.2598 14.8724 13.2598 14.8738 13.2598 14.8753C13.2598 14.8767 13.2598 14.8781 13.2598 14.8796C13.2598 14.881 13.2598 14.8824 13.2598 14.8838C13.2598 14.8852 13.2598 14.8866 13.2598 14.888C13.2598 14.8893 13.2598 14.8907 13.2598 14.892C13.2598 14.8934 13.2598 14.8947 13.2598 14.8961C13.2598 14.8974 13.2598 14.8987 13.2598 14.9C13.2598 14.9013 13.2598 14.9026 13.2598 14.9039C13.2598 14.9052 13.2598 14.9064 13.2598 14.9077C13.2598 14.9089 13.2598 14.9102 13.2598 14.9114C13.2598 14.9126 13.2598 14.9138 13.2598 14.9151C13.2598 14.9163 13.2598 14.9174 13.2598 14.9186C13.2598 14.9198 13.2598 14.921 13.2598 14.9221C13.2598 14.9233 13.2598 14.9244 13.2598 14.9256C13.2598 14.9267 13.2598 14.9278 13.2598 14.9289C13.2598 14.93 13.2598 14.9311 13.2598 14.9322C13.2598 14.9333 13.2598 14.9344 13.2598 14.9354C13.2598 14.9365 13.2598 14.9375 13.2598 14.9385C13.2598 14.9396 13.2598 14.9406 13.2598 14.9416C13.2598 14.9426 13.2598 14.9436 13.2598 14.9446C13.2598 14.9456 13.2598 14.9465 13.2598 14.9475C13.2598 14.9484 13.2598 14.9494 13.2598 14.9503C13.2598 14.9513 13.2598 14.9522 13.2598 14.9531C13.2598 14.954 13.2598 14.9549 13.2598 14.9558C13.2598 14.9566 13.2598 14.9575 13.2598 14.9584C13.2598 14.9592 13.2598 14.9601 13.2598 14.9609C13.2598 14.9617 13.2598 14.9625 13.2598 14.9633C13.2598 14.9641 13.2598 14.9649 13.2598 14.9657C13.2598 14.9665 13.2598 14.9673 13.2598 14.968C13.2598 14.9688 13.2598 14.9695 13.2598 14.9702C13.2598 14.9709 13.2598 14.9717 13.2598 14.9724C13.2598 14.9731 13.2598 14.9737 13.2598 14.9744C13.2598 14.9751 13.2598 14.9758 13.2598 14.9764C13.2598 14.9771 13.2598 14.9777 13.2598 14.9783C13.2598 14.9789 13.2598 14.9795 13.2598 14.9801C13.2598 14.9807 13.2598 14.9813 13.2598 14.9819C13.2598 14.9825 13.2598 14.983 13.2598 14.9836C13.2598 14.9841 13.2598 14.9846 13.2598 14.9851C13.2598 14.9857 13.2598 14.9862 13.2598 14.9867C13.2598 14.9871 13.2598 14.9876 13.2598 14.9881C13.2598 14.9886 13.2598 14.989 13.2598 14.9894C13.2598 14.9899 13.2598 14.9903 13.2598 14.9907C13.2598 14.9911 13.2598 14.9915 13.2598 14.9919C13.2598 14.9923 13.2598 14.9927 13.2598 14.993C13.2598 14.9934 13.2598 14.9937 13.2598 14.994C13.2598 14.9944 13.2598 14.9947 13.2598 14.995C13.2598 14.9953 13.2598 14.9956 13.2598 14.9959C13.2598 14.9961 13.2598 14.9964 13.2598 14.9966C13.2598 14.9969 13.2598 14.9971 13.2598 14.9973C13.2598 14.9976 13.2598 14.9978 13.2598 14.998C13.2598 14.9982 13.2598 14.9983 13.2598 14.9985C13.2598 14.9987 13.2598 14.9988 13.2598 14.999C13.2598 14.9991 13.2598 14.9992 13.2598 14.9993C13.2598 14.9994 13.2598 14.9995 13.2598 14.9996C13.2598 14.9997 13.2598 14.9998 13.2598 14.9998C13.2598 14.9999 13.2598 14.9999 13.2598 15C13.2598 15 13.2598 15 14.0098 15ZM19.7324 9.01045C19.7517 8.2607 19.7516 8.2607 19.7516 8.2607C19.7516 8.2607 19.7516 8.2607 19.7516 8.2607C19.7515 8.2607 19.7515 8.2607 19.7514 8.26069C19.7512 8.26069 19.751 8.26069 19.7508 8.26068C19.7503 8.26067 19.7495 8.26065 19.7486 8.26062C19.7467 8.26058 19.744 8.26051 19.7405 8.26042C19.7334 8.26025 19.7231 8.26 19.7099 8.25969C19.6836 8.25908 19.6459 8.25823 19.5996 8.2573C19.5073 8.25543 19.3804 8.25318 19.2427 8.25168C18.9805 8.24882 18.6378 8.24798 18.4372 8.26238L18.4909 9.01046L18.5446 9.75853C18.6717 9.7494 18.9497 9.74857 19.2263 9.75159C19.3581 9.75303 19.4801 9.75519 19.5693 9.75699C19.6138 9.75789 19.65 9.7587 19.675 9.75928C19.6875 9.75958 19.6971 9.75981 19.7036 9.75997C19.7068 9.76005 19.7093 9.76011 19.7109 9.76015C19.7116 9.76017 19.7122 9.76018 19.7126 9.76019C19.7128 9.7602 19.7129 9.7602 19.713 9.7602C19.713 9.7602 19.7131 9.7602 19.7131 9.7602C19.7131 9.7602 19.7131 9.7602 19.7131 9.7602C19.7131 9.7602 19.7131 9.7602 19.7324 9.01045ZM18.4909 9.01046L18.4372 8.26238C17.3544 8.34011 16.6461 8.94467 16.3737 9.73094C16.1253 10.4477 16.2555 11.291 16.7304 11.8513L17.3025 11.3664L17.8747 10.8814C17.7735 10.7621 17.7 10.4846 17.791 10.222C17.8579 10.0289 18.0319 9.79534 18.5446 9.75853L18.4909 9.01046ZM17.3025 11.3664L16.7304 11.8513C17.1613 12.3598 17.6299 12.5219 18.0168 12.6313C18.3833 12.735 18.6304 12.787 18.9488 12.9933L19.3567 12.364L19.7646 11.7346C19.2172 11.3798 18.7253 11.2729 18.4251 11.188C18.1454 11.1088 18.0198 11.0527 17.8747 10.8814L17.3025 11.3664ZM19.3567 12.364L18.9488 12.9933C19.18 13.1432 19.3022 13.4619 19.2297 13.766C19.1965 13.9055 19.126 14.0184 19.0266 14.0973C18.9307 14.1733 18.7674 14.25 18.4909 14.25V15V15.75C19.6912 15.75 20.4726 15.0217 20.6889 14.1137C20.8895 13.2717 20.5944 12.2724 19.7646 11.7346L19.3567 12.364ZM18.4909 15L18.4909 14.25L17.1721 14.25L17.1721 15L17.1721 15.75L18.4909 15.75L18.4909 15ZM5 6.375L5.58603 6.84304C7.0935 4.95555 9.40663 3.75 12 3.75V3V2.25C8.93007 2.25 6.19305 3.67937 4.41397 5.90696L5 6.375ZM12 3V3.75C14.5934 3.75 16.9065 4.95555 18.414 6.84304L19 6.375L19.586 5.90696C17.807 3.67937 15.0699 2.25 12 2.25V3ZM12 21V20.25C9.40663 20.25 7.0935 19.0445 5.58603 17.157L5 17.625L4.41397 18.093C6.19305 20.3206 8.93007 21.75 12 21.75V21ZM19 17.625L18.414 17.157C16.9065 19.0445 14.5934 20.25 12 20.25V21V21.75C15.0699 21.75 17.807 20.3206 19.586 18.093L19 17.625ZM12.5 18.1167H11.75C11.75 17.9786 11.8619 17.8667 12 17.8667V18.6167V19.3667C12.6904 19.3667 13.25 18.8071 13.25 18.1167H12.5ZM12 18.6167V17.8667C12.1381 17.8667 12.25 17.9786 12.25 18.1167H11.5H10.75C10.75 18.8071 11.3096 19.3667 12 19.3667V18.6167ZM11.5 18.1167H12.25C12.25 18.2548 12.1381 18.3667 12 18.3667V17.6167V16.8667C11.3096 16.8667 10.75 17.4263 10.75 18.1167H11.5ZM12 17.6167V18.3667C11.8619 18.3667 11.75 18.2548 11.75 18.1167H12.5H13.25C13.25 17.4263 12.6904 16.8667 12 16.8667V17.6167ZM12.5 6H11.75C11.75 5.86193 11.8619 5.75 12 5.75V6.5V7.25C12.6904 7.25 13.25 6.69036 13.25 6H12.5ZM12 6.5V5.75C12.1381 5.75 12.25 5.86193 12.25 6H11.5H10.75C10.75 6.69036 11.3096 7.25 12 7.25V6.5ZM11.5 6H12.25C12.25 6.13807 12.1381 6.25 12 6.25V5.5V4.75C11.3096 4.75 10.75 5.30964 10.75 6H11.5ZM12 5.5V6.25C11.8619 6.25 11.75 6.13807 11.75 6H12.5H13.25C13.25 5.30964 12.6904 4.75 12 4.75V5.5ZM12 3H11.25V6.5H12H12.75V3H12ZM12 17.6167H11.25V21H12H12.75V17.6167H12Z" fill="black"/>
</svg>
