<svg width="24" height="24" viewBox="0 0 24 24" fill="none" xmlns="http://www.w3.org/2000/svg">
<path d="M16.4969 13.9998C16.4969 14.276 16.273 14.4998 15.9969 14.4998C15.7207 14.4998 15.4969 14.276 15.4969 13.9998C15.4969 13.7237 15.7207 13.4998 15.9969 13.4998C16.273 13.4998 16.4969 13.7237 16.4969 13.9998Z" fill="black"/>
<path d="M8.49133 13.9998C8.49133 14.276 8.26748 14.4998 7.99133 14.4998C7.71519 14.4998 7.49133 14.276 7.49133 13.9998C7.49133 13.7237 7.71519 13.4998 7.99133 13.4998C8.26748 13.4998 8.49133 13.7237 8.49133 13.9998Z" fill="black"/>
<path d="M11.9999 12L8.00003 9.75L4.03918 7.52734M11.9999 12L15.9999 9.75M11.9999 12V20.9297M15.9999 9.75L19.7499 7.64062L19.965 7.52344M15.9999 9.75V13.5078M8.00003 18.75L11.9999 21L19.9999 16.5V7.5L11.9999 3L4.00012 7.5V16.5L8.00003 18.75ZM8.00003 18.75V14.5M16.4969 13.9998C16.4969 14.276 16.273 14.4998 15.9969 14.4998C15.7207 14.4998 15.4969 14.276 15.4969 13.9998C15.4969 13.7237 15.7207 13.4998 15.9969 13.4998C16.273 13.4998 16.4969 13.7237 16.4969 13.9998ZM8.49133 13.9998C8.49133 14.276 8.26748 14.4998 7.99133 14.4998C7.71519 14.4998 7.49133 14.276 7.49133 13.9998C7.49133 13.7237 7.71519 13.4998 7.99133 13.4998C8.26748 13.4998 8.49133 13.7237 8.49133 13.9998Z" stroke="black" stroke-width="1.5"/>
</svg>
