<svg width="24" height="24" viewBox="0 0 24 24" fill="none" xmlns="http://www.w3.org/2000/svg">
<path d="M7.92267 4.5H4V8.5M20 15.5V19.5H16.2583M16.2583 12.5H17.5483C18.9023 12.5 20 11.3061 20 9.83333C20 8.36057 18.9023 7.16667 17.5483 7.16667C17.5483 5.6939 16.4506 4.5 15.0967 4.5C13.7427 4.5 12.645 5.6939 12.645 7.16667C12.2141 7.16667 11.8091 7.28761 11.4572 7.5M9.49226 9.97193C10.9816 9.97193 12.1891 11.3151 12.1891 12.9719C13.6784 12.9719 14.8049 14.1309 14.8049 15.7878C14.8049 17.4447 13.5798 18.5 12.0905 18.5H6.69683C5.20752 18.5 4 17.4447 4 15.7878C4 14.1309 5.30611 12.9719 6.79543 12.9719C6.79543 11.3151 8.00294 9.97193 9.49226 9.97193Z" stroke="black" stroke-width="1.5"/>
</svg>
