<svg width="24" height="24" viewBox="0 0 24 24" fill="none" xmlns="http://www.w3.org/2000/svg">
<path d="M18.325 17.8835L15.32 15.8335M18.6132 8.28407L15.0156 11.5772M6.07504 12.1011L9.03485 12.9856M11.3848 10.5481L9.87726 6.32123M6.87565 18.1175L9.60372 15.9684M12.4124 17.3954C14.3454 17.3954 15.9124 15.8284 15.9124 13.8954C15.9124 11.9625 14.3454 10.3954 12.4124 10.3954C10.4794 10.3954 8.9124 11.9625 8.9124 13.8954C8.9124 15.8284 10.4794 17.3954 12.4124 17.3954ZM10.9124 4.89545C10.9124 5.72387 10.2408 6.39545 9.4124 6.39545C8.58397 6.39545 7.9124 5.72387 7.9124 4.89545C7.9124 4.06702 8.58397 3.39545 9.4124 3.39545C10.2408 3.39545 10.9124 4.06702 10.9124 4.89545ZM19.4241 7.89545C19.4241 8.17159 19.2003 8.39545 18.9241 8.39545C18.648 8.39545 18.4241 8.17159 18.4241 7.89545C18.4241 7.6193 18.648 7.39545 18.9241 7.39545C19.2003 7.39545 19.4241 7.6193 19.4241 7.89545ZM5.34541 11.5329C5.58456 11.3948 5.89035 11.4768 6.02843 11.7159C6.1665 11.9551 6.08456 12.2609 5.84541 12.3989C5.60627 12.537 5.30047 12.4551 5.1624 12.2159C5.02433 11.9768 5.10627 11.671 5.34541 11.5329ZM20.9124 18.8954C20.9124 19.7239 20.2408 20.3954 19.4124 20.3954C18.584 20.3954 17.9124 19.7239 17.9124 18.8954C17.9124 18.067 18.584 17.3954 19.4124 17.3954C20.2408 17.3954 20.9124 18.067 20.9124 18.8954ZM7.19841 18.7159C7.41282 19.5161 6.93795 20.3386 6.13775 20.553C5.33755 20.7675 4.51504 20.2926 4.30063 19.4924C4.08622 18.6922 4.56109 17.8697 5.36129 17.6553C6.16149 17.4409 6.98399 17.9157 7.19841 18.7159Z" stroke="black" stroke-width="1.5"/>
</svg>
