<svg width="24" height="24" viewBox="0 0 24 24" fill="none" xmlns="http://www.w3.org/2000/svg">
<path d="M3.27274 12.2182C3.63424 12.2182 3.92729 11.9251 3.92729 11.5636C3.92729 11.2021 3.63424 10.9091 3.27274 10.9091C2.91124 10.9091 2.61819 11.2021 2.61819 11.5636C2.61819 11.9251 2.91124 12.2182 3.27274 12.2182Z" fill="black"/>
<path d="M20.7407 21.3818C21.1022 21.3818 21.3952 21.0887 21.3952 20.7272C21.3952 20.3658 21.1022 20.0727 20.7407 20.0727C20.3792 20.0727 20.0861 20.3658 20.0861 20.7272C20.0861 21.0887 20.3792 21.3818 20.7407 21.3818Z" fill="black"/>
<path d="M3.27274 10.9091C2.91124 10.9091 2.61819 11.2021 2.61819 11.5636C2.61819 11.9251 2.91124 12.2182 3.27274 12.2182C3.63424 12.2182 3.92729 11.9251 3.92729 11.5636C3.92729 11.2021 3.63424 10.9091 3.27274 10.9091ZM3.27274 10.9091L3.27274 7.63634L12 3.27271L20.7273 7.63634L20.7273 16.3636M20.0861 20.7272C20.0861 21.0887 20.3792 21.3818 20.7407 21.3818C21.1022 21.3818 21.3952 21.0887 21.3952 20.7272C21.3952 20.3658 21.1022 20.0727 20.7407 20.0727C20.3792 20.0727 20.0861 20.3658 20.0861 20.7272ZM20.0861 20.7272H3.27274V15.2727M12 9.81816C13.2049 9.81816 14.1818 10.795 14.1818 12C15.3867 12 16.3636 12.9768 16.3636 14.1818C16.3636 15.3868 15.3867 16.3636 14.1818 16.3636H9.81819C8.61329 16.3636 7.63637 15.3868 7.63637 14.1818C7.63637 12.9768 8.61329 12 9.81819 12C9.81819 10.795 10.7951 9.81816 12 9.81816Z" stroke="black" stroke-width="1.5"/>
</svg>
