<svg width="24" height="24" viewBox="0 0 24 24" fill="none" xmlns="http://www.w3.org/2000/svg">
<path d="M6.99997 8H3.20404M8.99997 13V3M12 11V5M15 9V7M16 4H20V8M7.99997 20H3.99998L3.99998 16M15.7695 13.3107C16.9554 13.3107 17.917 14.3642 17.917 15.6639C19.1029 15.6639 20 16.573 20 17.8726C20 19.1722 19.0244 20 17.8385 20H13.5435C12.3575 20 11.396 19.1722 11.396 17.8726C11.396 16.573 12.436 15.6639 13.622 15.6639C13.622 14.3642 14.5835 13.3107 15.7695 13.3107Z" stroke="black" stroke-width="1.5"/>
</svg>
