<svg width="24" height="24" viewBox="0 0 24 24" fill="none" xmlns="http://www.w3.org/2000/svg">
<path d="M19 8V16C19 18.7614 16.7614 21 14 21H10C8.3644 21 6.91223 20.2147 6 19.0005M5 14V8C5 5.23858 7.23858 3 10 3H14C15.4813 3 16.8121 3.64412 17.7276 4.66755M13.938 17.5C13.3639 17.8186 12.7031 18 12 18C9.79086 18 8 16.2091 8 14V10C8 7.79086 9.79086 6 12 6C14.2091 6 16 7.79086 16 10V14C16 14.4334 15.9311 14.8507 15.8036 15.2416M13 15.5V10.5C13 10.141 12.7696 9.5 12 9.5C11.2304 9.5 11 10.141 11 10.5" stroke="black" stroke-width="1.5"/>
</svg>
