<svg width="24" height="24" viewBox="0 0 24 24" fill="none" xmlns="http://www.w3.org/2000/svg">
<path d="M11.0189 10.95L11.4689 12L11.9189 10.95L12.9689 10.5L11.9189 10.05L11.4689 9L11.0189 10.05L9.96893 10.5L11.0189 10.95Z" fill="black"/>
<path d="M10.2044 18H11.2044V19H10.2044V18Z" fill="black"/>
<path d="M4.96387 18H5.96387V19H4.96387V18Z" fill="black"/>
<path d="M4.96387 12.6338H5.96387V13.6338H4.96387V12.6338Z" fill="black"/>
<path d="M14.8097 19H16.9634V8L12.9634 4H4.96344V8M20.4634 19.7183V6.5L16.9634 3M11.4689 12L11.0189 10.95L9.96893 10.5L11.0189 10.05L11.4689 9L11.9189 10.05L12.9689 10.5L11.9189 10.95L11.4689 12ZM10.2044 18H11.2044V19H10.2044V18ZM4.96387 18H5.96387V19H4.96387V18ZM4.96387 12.6338H5.96387V13.6338H4.96387V12.6338Z" stroke="black" stroke-width="1.5"/>
</svg>
