<svg width="24" height="24" viewBox="0 0 24 24" fill="none" xmlns="http://www.w3.org/2000/svg">
<path d="M20.367 14.8731V4.411H10.1248M18.0947 18.0277L11.9999 21.1449L5.50088 17.8954C4.35613 17.323 3.63303 16.153 3.63303 14.8731V4.411H5.72477M18.525 18.2404C18.8138 18.2404 19.048 18.0063 19.048 17.7175C19.048 17.4287 18.8138 17.1945 18.525 17.1945C18.2362 17.1945 18.0021 17.4287 18.0021 17.7175C18.0021 18.0063 18.2362 18.2404 18.525 18.2404ZM9.59567 4.93393C9.88448 4.93393 10.1186 4.69981 10.1186 4.411C10.1186 4.12219 9.88448 3.88806 9.59567 3.88806C9.30686 3.88806 9.07274 4.12219 9.07274 4.411C9.07274 4.69981 9.30686 4.93393 9.59567 4.93393ZM12 8.30925C13.2602 8.30925 14.2819 9.33088 14.2819 10.5911C15.5421 10.5911 16.5638 11.6128 16.5638 12.8731C16.5638 14.1333 15.5421 15.155 14.2819 15.155H9.7181C8.45793 15.155 7.4362 14.1333 7.4362 12.8731C7.4362 11.6128 8.45793 10.5911 9.7181 10.5911C9.7181 9.33088 10.7398 8.30925 12 8.30925Z" stroke="black" stroke-width="1.5"/>
</svg>
