<svg width="24" height="24" viewBox="0 0 24 24" fill="none" xmlns="http://www.w3.org/2000/svg">
<path d="M19.25 12.75L18.5 14.5L17.75 12.75L16 12L17.75 11.25L18.5 9.5L19.25 11.25L21 12L19.25 12.75Z" fill="black"/>
<path d="M8.00561 12C8.00561 13.1046 7.11018 14 6.00562 14C4.90105 14 4.00562 13.1046 4.00562 12C4.00562 10.8954 4.90105 10 6.00562 10C7.11018 10 8.00561 10.8954 8.00561 12ZM8.00561 12H12.5056M15.5056 8.5L13.4198 6.41421M15.5056 15.5L13.4198 17.5858M10.0056 5C10.0056 6.10457 10.901 7 12.0056 7C13.1102 7 14.0056 6.10457 14.0056 5C14.0056 3.89543 13.1102 3 12.0056 3C10.901 3 10.0056 3.89543 10.0056 5ZM10.0056 19C10.0056 20.1046 10.901 21 12.0056 21C13.1102 21 14.0056 20.1046 14.0056 19C14.0056 17.8954 13.1102 17 12.0056 17C10.901 17 10.0056 17.8954 10.0056 19ZM18.5 14.5L19.25 12.75L21 12L19.25 11.25L18.5 9.5L17.75 11.25L16 12L17.75 12.75L18.5 14.5Z" stroke="black" stroke-width="1.5"/>
</svg>
