<svg width="24" height="24" viewBox="0 0 24 24" fill="none" xmlns="http://www.w3.org/2000/svg">
<path d="M11.4 12.6L12 14L12.6 12.6L14 12L12.6 11.4L12 10L11.4 11.4L10 12L11.4 12.6Z" fill="black"/>
<path d="M3.82034 7.28125L7.91012 9.64062M16.0021 9.68932L18.1146 8.46966L20.1783 7.28261M12 21.448L12.0001 17M12.0001 21.5L20.2273 16.75L20.2271 7.25L12.0001 2.5L3.77267 7.25L3.77285 16.75L12.0001 21.5ZM12 14L11.4 12.6L10 12L11.4 11.4L12 10L12.6 11.4L14 12L12.6 12.6L12 14Z" stroke="black" stroke-width="1.5"/>
</svg>
