<svg width="24" height="24" viewBox="0 0 24 24" fill="none" xmlns="http://www.w3.org/2000/svg">
<path fill-rule="evenodd" clip-rule="evenodd" d="M12 21C16.9706 21 21 16.9706 21 12C21 7.02944 16.9706 3 12 3C7.02944 3 3 7.02944 3 12C3 16.9706 7.02944 21 12 21ZM4.12502 9.74998L9.75003 4.125C10.875 2.99999 12.5625 2.4375 14.25 4.12499L19.875 9.74998C21 10.875 21.5625 12.5625 19.875 14.25L14.25 19.875C13.125 21 11.1988 21.3238 9.75003 19.875L4.12502 14.25C3.00005 13.125 2.43756 11.4375 4.12502 9.74998Z" fill="black" stroke="black" stroke-width="1.5"/>
</svg>
