<svg width="24" height="24" viewBox="0 0 24 24" fill="none" xmlns="http://www.w3.org/2000/svg">
<path d="M7.9926 20.4841L7.75542 21.1956C8.07209 21.3011 8.4204 21.1847 8.60994 20.91C8.79949 20.6352 8.78464 20.2683 8.57352 20.0097L7.9926 20.4841ZM3.76859 11.5247L3.07265 11.2451L3.76859 11.5247ZM8.13533 7.06787L7.85679 6.37151L7.82782 6.38309L7.79992 6.39705L8.13533 7.06787ZM10.7948 3.69153L10.8878 2.94732L10.0448 2.84194V3.69153H10.7948ZM13.7176 8.05827L14.4388 8.26431L14.4388 8.26431L13.7176 8.05827ZM10.7948 10.3963L11.018 11.1123L11.018 11.1123L10.7948 10.3963ZM16.0321 16L16.7719 15.8767L16.7649 15.8348L16.7532 15.794L16.0321 16ZM19.5321 15L20.1927 15.3551L20.4567 14.8639L20.0624 14.4697L19.5321 15ZM20.7595 10.5367L21.2899 11.0671L21.5095 10.8474V10.5367H20.7595ZM18.032 7.00002L17.282 7L17.282 7.61487L17.8849 7.73546L18.032 7.00002ZM17.0321 5.00002V4.25002H16.7214L16.5018 4.46969L17.0321 5.00002ZM17.0321 7.00002L17.5392 7.55258L17.9558 7.1703L17.7029 6.66461L17.0321 7.00002ZM14.9058 8.67307L15.296 9.31357L15.296 9.31357L14.9058 8.67307ZM7.9926 20.4841L8.22977 19.7726C7.14749 19.4118 5.77053 18.4324 4.88763 17.017C4.02375 15.632 3.64232 13.8509 4.46453 11.8043L3.76859 11.5247L3.07265 11.2451C2.05003 13.7906 2.5306 16.0725 3.61493 17.8109C4.68024 19.5188 6.3377 20.723 7.75542 21.1956L7.9926 20.4841ZM3.76859 11.5247L4.46453 11.8043C4.68626 11.2524 4.94342 10.6287 5.50154 9.94914C6.05988 9.26934 6.94993 8.49909 8.47074 7.73869L8.13533 7.06787L7.79992 6.39705C6.12073 7.23664 5.05409 8.13059 4.34239 8.99709C3.63048 9.86387 3.30427 10.6686 3.07265 11.2451L3.76859 11.5247ZM8.13533 7.06787L8.41388 7.76422C8.89093 7.5734 9.65111 7.18213 10.3039 6.53895C10.9662 5.88642 11.5448 4.94393 11.5448 3.69153H10.7948H10.0448C10.0448 4.43913 9.71025 5.01814 9.25117 5.47044C8.7826 5.9321 8.21307 6.229 7.85679 6.37151L8.13533 7.06787ZM10.7948 3.69153L10.7017 4.43574C11.2074 4.49894 11.9705 4.81578 12.5046 5.39555C13.0015 5.935 13.3207 6.71744 12.9965 7.85223L13.7176 8.05827L14.4388 8.26431C14.9145 6.5991 14.439 5.2815 13.6078 4.37925C12.8138 3.51732 11.7155 3.05078 10.8878 2.94732L10.7948 3.69153ZM13.7176 8.05827L12.9965 7.85223C12.6794 8.96188 11.8134 9.29307 10.5716 9.68024L10.7948 10.3963L11.018 11.1123C12.1839 10.7488 13.8759 10.2345 14.4388 8.26431L13.7176 8.05827ZM10.7948 10.3963L10.5716 9.68024C8.41077 10.3539 6.50084 11.7888 5.70221 13.8179C4.88541 15.893 5.30872 18.3831 7.41167 20.9584L7.9926 20.4841L8.57352 20.0097C6.71761 17.7369 6.52998 15.8103 7.09798 14.3673C7.68413 12.8781 9.15474 11.6932 11.018 11.1123L10.7948 10.3963ZM8.03209 20.5V21.25H17.9687V20.5V19.75H8.03209V20.5ZM11.0321 14L11.2954 14.7023C11.8726 14.4859 12.7717 14.3223 13.5737 14.4956C14.3162 14.6561 14.9949 15.1 15.3109 16.2061L16.0321 16L16.7532 15.794C16.2692 14.1001 15.1146 13.294 13.8905 13.0295C12.7258 12.7778 11.5249 13.0142 10.7687 13.2978L11.0321 14ZM16.0321 16L15.2923 16.1233C15.4109 16.8347 15.1727 18.7666 12.7366 19.8107L13.0321 20.5L13.3275 21.1894C16.4915 19.8334 16.9867 17.1654 16.7719 15.8767L16.0321 16ZM17.0321 12L16.5018 11.4697C16.1163 11.8552 15.836 12.4687 15.8981 13.1097C15.9677 13.8293 16.4508 14.4302 17.2949 14.7115L17.5321 14L17.7692 13.2885C17.5736 13.2233 17.4862 13.1473 17.4487 13.1032C17.4132 13.0614 17.3962 13.0183 17.3911 12.9653C17.3781 12.8313 17.4479 12.6449 17.5624 12.5303L17.0321 12ZM17.5321 14L17.2949 14.7115C17.8559 14.8985 18.2733 15.0897 18.561 15.2463C18.705 15.3246 18.8141 15.3931 18.8911 15.4464C18.9732 15.5032 19.0041 15.5327 19.0017 15.5304L19.5321 15L20.0624 14.4697C19.778 14.1853 19.0197 13.7053 17.7692 13.2885L17.5321 14ZM19.5321 15L18.8714 14.645L18.234 15.8309L18.8947 16.186L19.5553 16.541L20.1927 15.3551L19.5321 15ZM17.0321 12L17.5624 12.5303C17.8886 12.2042 18.6623 11.5417 19.5321 11.5417V10.7917V10.0417C18.0018 10.0417 16.8423 11.1292 16.5018 11.4697L17.0321 12ZM19.5321 10.7917V11.5417C19.513 11.5417 19.5076 11.5404 19.5479 11.5441C19.5749 11.5465 19.6267 11.5516 19.678 11.5558C19.7859 11.5644 19.935 11.5727 20.1019 11.563C20.4241 11.5442 20.9044 11.4525 21.2899 11.0671L20.7595 10.5367L20.2292 10.0064C20.2147 10.0209 20.1646 10.0568 20.0147 10.0655C19.9455 10.0695 19.8732 10.0666 19.7978 10.0605C19.7575 10.0573 19.7272 10.0542 19.6846 10.0503C19.6553 10.0476 19.5928 10.0417 19.5321 10.0417V10.7917ZM20.7595 10.5367H21.5095C21.5095 10.0669 21.448 9.17015 21.0001 8.3001C20.5337 7.39403 19.6685 6.56246 18.1791 6.26458L18.032 7.00002L17.8849 7.73546C18.8956 7.93758 19.3942 8.4577 19.6665 8.98665C19.9573 9.55162 20.0095 10.1733 20.0095 10.5367H20.7595ZM18.032 7.00002L18.782 7.00004C18.782 6.50516 18.5797 5.88701 18.3582 5.42549C18.2429 5.18518 18.0995 4.93878 17.934 4.73952C17.8515 4.64022 17.7458 4.53105 17.6161 4.44145C17.4907 4.35487 17.2894 4.25002 17.0321 4.25002V5.00002V5.75002C16.8748 5.75002 16.7798 5.68683 16.7638 5.67578C16.7434 5.6617 16.7502 5.66191 16.7802 5.69802C16.8396 5.76959 16.9213 5.89819 17.0059 6.07455C17.1844 6.44636 17.282 6.82822 17.282 7L18.032 7.00002ZM17.0321 5.00002L16.5018 4.46969C16.0883 4.88311 15.9258 5.39304 15.9451 5.91528C15.9633 6.40584 16.1395 6.89195 16.3613 7.33543L17.0321 7.00002L17.7029 6.66461C17.5247 6.30809 17.4509 6.04419 17.4441 5.85976C17.4384 5.707 17.4759 5.61693 17.5624 5.53035L17.0321 5.00002ZM17.0321 7.00002C16.525 6.44746 16.525 6.44743 16.525 6.44741C16.525 6.44741 16.5251 6.44739 16.5251 6.44738C16.5251 6.44738 16.5251 6.44739 16.525 6.44741C16.525 6.44747 16.5248 6.44759 16.5246 6.44778C16.5242 6.44815 16.5235 6.44879 16.5225 6.4497C16.5206 6.4515 16.5174 6.45434 16.5132 6.45816C16.5048 6.46582 16.4921 6.47741 16.4753 6.49254C16.4418 6.52279 16.3923 6.56711 16.33 6.62221C16.2052 6.73256 16.0295 6.88537 15.8267 7.05461C15.4131 7.39985 14.9168 7.78814 14.5156 8.03258L14.9058 8.67307L15.296 9.31357C15.7971 9.00827 16.364 8.56004 16.7879 8.20618C17.0039 8.02587 17.1906 7.8635 17.3235 7.74605C17.39 7.68724 17.4433 7.63951 17.4802 7.60619C17.4987 7.58952 17.5131 7.57644 17.523 7.56737C17.528 7.56284 17.5319 7.5593 17.5346 7.55682C17.5359 7.55558 17.537 7.5546 17.5378 7.55389C17.5382 7.55354 17.5385 7.55325 17.5387 7.55303C17.5388 7.55292 17.5389 7.55283 17.539 7.55276C17.5391 7.55272 17.5391 7.55268 17.5391 7.55266C17.5392 7.55262 17.5392 7.55258 17.0321 7.00002ZM14.9058 8.67307L14.5156 8.03258C14.0827 8.2963 13.4623 8.57427 12.9238 8.79381C12.6598 8.90142 12.4249 8.99122 12.2563 9.05401C12.1721 9.08537 12.1047 9.10988 12.0588 9.12641C12.0359 9.13467 12.0183 9.14092 12.0067 9.14503C12.001 9.14708 11.9967 9.14859 11.9939 9.14955C11.9926 9.15003 11.9916 9.15037 11.991 9.15057C11.9908 9.15067 11.9906 9.15074 11.9905 9.15076C11.9904 9.15078 11.9904 9.15078 11.9904 9.15078C11.9904 9.15078 11.9905 9.15077 11.9905 9.15077C11.9905 9.15076 11.9905 9.15074 12.2381 9.8587C12.4857 10.5666 12.4858 10.5666 12.4858 10.5666C12.4859 10.5666 12.4859 10.5666 12.486 10.5666C12.4861 10.5665 12.4863 10.5665 12.4864 10.5664C12.4867 10.5663 12.4872 10.5661 12.4877 10.566C12.4888 10.5656 12.4903 10.5651 12.4921 10.5644C12.4959 10.5631 12.5012 10.5612 12.5081 10.5588C12.5218 10.5539 12.5416 10.5469 12.5669 10.5378C12.6174 10.5196 12.69 10.4932 12.7798 10.4597C12.9592 10.3929 13.2088 10.2975 13.49 10.1828C14.0419 9.95784 14.7553 9.643 15.296 9.31357L14.9058 8.67307Z" fill="black"/>
</svg>
