<svg width="24" height="24" viewBox="0 0 24 24" fill="none" xmlns="http://www.w3.org/2000/svg">
<path d="M13 12.2916H16.5M16.5 12.2916H21V19.2916H17V17.2916C15 18.7916 11.1093 19.1551 8.6093 18.9279C4.2093 18.5279 3 15.4411 3 11.7526C3 6.05749 6.85476 4.91304 9 4.79162C9 4.79162 10.6559 4.70679 11.7437 4.70843C12.8101 4.71005 14.5 4.79162 14.5 4.79162C19.6176 4.96563 21 7.87576 21 9.37576H16.1772C16.1772 9.06161 15.001 8.14104 12.6129 8.06259H11.471C9.72112 8.06259 7.84801 8.87101 7.29808 10.2458C6.96475 11.0792 6.71645 12.4275 7.51645 14.0275C8.31645 15.6275 10.4317 15.8671 11.026 15.8671C15.4696 15.8671 16.5 14.0753 16.5 12.2916Z" stroke="black" stroke-width="1.5"/>
</svg>
