<svg width="24" height="24" viewBox="0 0 24 24" fill="none" xmlns="http://www.w3.org/2000/svg">
<g clip-path="url(#clip0_6036_98)">
<path d="M16.2598 12C16.2598 12.3361 15.9874 12.6085 15.6513 12.6085C15.3152 12.6085 15.0427 12.3361 15.0427 12C15.0427 11.6639 15.3152 11.3915 15.6513 11.3915C15.9874 11.3915 16.2598 11.6639 16.2598 12Z" fill="black"/>
<path d="M12.6085 16.2598C12.6085 16.5959 12.3361 16.8684 12 16.8684C11.6639 16.8684 11.3915 16.5959 11.3915 16.2598C11.3915 15.9237 11.6639 15.6513 12 15.6513C12.3361 15.6513 12.6085 15.9237 12.6085 16.2598Z" fill="black"/>
<path d="M8.78931 5.21069L15.2324 11.5811M12 8.34873V15.6147M2 12L12 2L22 12L12 22L2 12ZM16.2598 12C16.2598 12.3361 15.9874 12.6085 15.6513 12.6085C15.3152 12.6085 15.0427 12.3361 15.0427 12C15.0427 11.6639 15.3152 11.3915 15.6513 11.3915C15.9874 11.3915 16.2598 11.6639 16.2598 12ZM12.6085 16.2598C12.6085 16.5959 12.3361 16.8684 12 16.8684C11.6639 16.8684 11.3915 16.5959 11.3915 16.2598C11.3915 15.9237 11.6639 15.6513 12 15.6513C12.3361 15.6513 12.6085 15.9237 12.6085 16.2598Z" stroke="black" stroke-width="1.5"/>
</g>
<defs>
<clipPath id="clip0_6036_98">
<rect width="24" height="24" fill="white"/>
</clipPath>
</defs>
</svg>
