<svg width="24" height="24" viewBox="0 0 24 24" fill="none" xmlns="http://www.w3.org/2000/svg">
<path d="M16.7216 11.137L16.0151 11.3888L16.064 11.4977L16.7216 11.137ZM15.313 7.18408L16.0195 6.93233L14.6383 6.85659L15.313 7.18408ZM16.1574 13.9208L15.711 13.3181L15.711 13.3181L16.1574 13.9208ZM13.1098 16.178L12.6634 15.5753L12.6633 15.5754L13.1098 16.178ZM12 17L11.5536 17.6027L12.4353 17.6107L12 17ZM12.8439 16.375L13.3136 16.9597L13.3136 16.9597L12.8439 16.375ZM7.84261 13.9208L8.289 13.3181L8.28899 13.3181L7.84261 13.9208ZM7.30212 11.0949L7.95151 11.4701L8.00861 11.3467L7.30212 11.0949ZM8.68703 7.2085L9.36142 6.88032L7.98055 6.95674L8.68703 7.2085ZM13.8855 10.125V10.875L14.5603 10.4525L13.8855 10.125ZM10.1063 10.125L9.4319 10.4532L10.1063 10.875V10.125ZM4 4V3.25H3.25V4H4ZM20 4H20.75V3.25H20V4ZM20 20V20.75H20.75V20H20ZM4 20H3.25V20.75H4V20ZM17.4281 10.8853L16.0195 6.93233L14.6065 7.43583L16.0151 11.3888L17.4281 10.8853ZM16.6038 14.5235C17.8959 13.5666 18.0029 11.9136 17.3792 10.7764L16.064 11.4977C16.3937 12.0989 16.2954 12.8854 15.711 13.3181L16.6038 14.5235ZM13.5562 16.7807L16.6038 14.5235L15.711 13.3181L12.6634 15.5753L13.5562 16.7807ZM12 17C12.4353 17.6107 12.4353 17.6107 12.4353 17.6107C12.4354 17.6107 12.4354 17.6107 12.4354 17.6107C12.4354 17.6107 12.4355 17.6107 12.4355 17.6106C12.4356 17.6106 12.4357 17.6105 12.4359 17.6104C12.4362 17.6101 12.4367 17.6098 12.4373 17.6094C12.4385 17.6085 12.4402 17.6073 12.4425 17.6056C12.447 17.6024 12.4536 17.5977 12.4621 17.5916C12.479 17.5795 12.5033 17.5621 12.5332 17.5406C12.5931 17.4976 12.6756 17.438 12.7666 17.3716C12.9441 17.2422 13.1685 17.0763 13.3136 16.9597L12.3741 15.7904C12.2599 15.8821 12.0624 16.0287 11.8828 16.1597C11.7952 16.2235 11.7154 16.2811 11.6576 16.3227C11.6286 16.3435 11.6053 16.3603 11.5892 16.3718C11.5811 16.3775 11.5749 16.382 11.5708 16.3849C11.5687 16.3864 11.5671 16.3875 11.5661 16.3883C11.5656 16.3886 11.5652 16.3889 11.565 16.3891C11.5649 16.3892 11.5648 16.3892 11.5647 16.3893C11.5647 16.3893 11.5647 16.3893 11.5647 16.3893C11.5647 16.3893 11.5647 16.3893 11.5647 16.3893C11.5647 16.3893 11.5647 16.3893 12 17ZM6.65273 10.7197C5.99355 11.8605 6.08297 13.5509 7.39623 14.5235L8.28899 13.3181C7.69531 12.8784 7.60355 12.0723 7.95151 11.4701L6.65273 10.7197ZM7.98055 6.95674L6.59564 10.8432L8.00861 11.3467L9.39352 7.46025L7.98055 6.95674ZM13.8855 9.37501H10.1063V10.875H13.8855V9.37501ZM13.3136 16.9597C13.3762 16.9094 13.4159 16.8783 13.4411 16.859C13.4675 16.8388 13.4712 16.8369 13.4636 16.8419C13.4514 16.85 13.4285 16.8631 13.4517 16.8497C13.4873 16.8292 13.5199 16.8076 13.5563 16.7807L12.6633 15.5754C12.6631 15.5756 12.6681 15.5718 12.6769 15.5661C12.6871 15.5593 12.6964 15.5537 12.7027 15.5501C12.7103 15.5457 12.6737 15.5659 12.6355 15.5912C12.5765 15.6303 12.5005 15.6888 12.3741 15.7904L13.3136 16.9597ZM8.01264 7.53667L9.4319 10.4532L10.7807 9.79684L9.36142 6.88032L8.01264 7.53667ZM14.6383 6.85659L13.2108 9.79752L14.5603 10.4525L15.9877 7.51157L14.6383 6.85659ZM4 4.75H20V3.25H4V4.75ZM19.25 4V20H20.75V4H19.25ZM20 19.25H4V20.75H20V19.25ZM4.75 20V4H3.25V20H4.75ZM7.39623 14.5235L11.5536 17.6027L12.4464 16.3973L8.289 13.3181L7.39623 14.5235Z" fill="black"/>
</svg>
