<svg width="24" height="24" viewBox="0 0 24 24" fill="none" xmlns="http://www.w3.org/2000/svg">
<path d="M8.6635 12.0103H11.0543C10.9969 12.6533 10.7014 13.3087 10.1778 13.8323C9.10135 14.9087 7.46838 15.021 6.53042 14.083C5.59247 13.1451 5.70472 11.5121 6.78114 10.4357C7.85756 9.35924 9.49053 9.24699 10.4285 10.1849C10.5181 10.2746 10.5982 10.3706 10.6687 10.4719M16.9801 13.8012C15.9036 14.8776 14.2707 14.9899 13.3327 14.0519C12.3948 13.114 12.507 11.481 13.5834 10.4046C14.6598 9.32814 16.2928 9.21589 17.2308 10.1538C18.1687 11.0918 18.0565 12.7248 16.9801 13.8012ZM4 4H20V20H4V4Z" stroke="black" stroke-width="1.5"/>
</svg>
