<svg width="24" height="24" viewBox="0 0 24 24" fill="none" xmlns="http://www.w3.org/2000/svg">
<path d="M21 10.1174C20.3162 8.80436 19.5174 7.64449 18.5855 6.81288C18.6211 6.28801 18.5919 5.32788 18.0681 5.00903C17.8451 4.87328 17.0154 5.00903 16.3554 5.52483L14.5624 5.00903C14.4197 4.33935 13.661 3.12627 12.8765 3C12.4572 3.18 11.5866 3.8881 11.4582 5.28049C10.9962 5.39813 10.1053 5.79276 9.42434 6.25784C8.54123 5.90491 6.58233 5.4108 5.81162 6.25784C5.66896 6.79176 5.60732 7.97929 6.80621 9.4779C6.60846 10.0004 6.34971 10.6288 6.34971 11.7231C5.52904 11.9765 4 13.2042 4 14.5942C4.26133 15.2733 5.28058 16.2238 7.2652 15.9623C7.56777 16.4589 7.90592 16.9554 8.3098 17.4519C8.08679 18.022 7.77458 19.5663 8.3098 20.435C8.91638 20.5977 10.4525 20.2315 11.2388 19.3556C11.783 19.5365 12.3579 19.6693 13.7596 19.6693C14.2238 20.2808 15.2047 21.1679 15.954 20.9724C16.3506 20.7435 16.7461 19.5498 16.8103 18.6376C17.2474 18.339 17.9136 17.8947 18.416 17.0087C18.9289 16.9933 20.0271 16.8098 20.3162 16.1987C20.2258 15.7662 19.829 14.6019 18.8614 13.8277V12.9981C18.6813 10.1444 16.0939 7.75524 13.2983 7.92939C10.6871 8.09205 9.05837 10.076 9.05837 12.5987C9.05837 13.9651 9.90635 16.698 13.2983 16.698C14.4641 16.698 16.1186 15.7425 16.1186 13.6867C16.1186 11.6309 14.7442 10.8346 13.7399 10.8346C13.0088 10.8346 12.109 11.2977 12.0503 12.3311C12.0156 12.9422 12.3253 13.8277 13.7399 13.8277" stroke="black" stroke-width="1.5"/>
</svg>
