<svg width="24" height="24" viewBox="0 0 24 24" fill="none" xmlns="http://www.w3.org/2000/svg">
<path d="M11 11H13V13H11V11Z" fill="black"/>
<path d="M12 2.5L12.375 1.85048L12 1.63397L11.625 1.85048L12 2.5ZM20.2272 7.25H20.9772V6.81699L20.6022 6.60048L20.2272 7.25ZM20.2272 16.75L20.6022 17.3995L20.9772 17.183V16.75H20.2272ZM12 21.5L11.625 22.1495L12 22.366L12.375 22.1495L12 21.5ZM3.77277 16.75H3.02277V17.183L3.39777 17.3995L3.77277 16.75ZM3.77277 7.25L3.39777 6.60048L3.02277 6.81699V7.25H3.77277ZM3.78081 16.7322L3.05637 16.5381L3.55246 17.4466L3.78081 16.7322ZM20.2227 16.7461L20.4168 17.4705L20.9555 16.5867L20.2227 16.7461ZM11 11V10.25H10.25V11H11ZM13 11H13.75V10.25H13V11ZM13 13V13.75H13.75V13H13ZM11 13H10.25V13.75H11V13ZM11.625 3.14952L19.8522 7.89952L20.6022 6.60048L12.375 1.85048L11.625 3.14952ZM19.4772 7.25V16.75H20.9772V7.25H19.4772ZM19.8522 16.1005L11.625 20.8505L12.375 22.1495L20.6022 17.3995L19.8522 16.1005ZM12.375 20.8505L4.14777 16.1005L3.39777 17.3995L11.625 22.1495L12.375 20.8505ZM4.52277 16.75V7.25H3.02277V16.75H4.52277ZM4.14777 7.89952L12.375 3.14952L11.625 1.85048L3.39777 6.60048L4.14777 7.89952ZM12.45 12.6C14.7127 10.903 16.2164 6.12413 12.5611 2.00238L11.4389 2.99762C14.5053 6.45538 13.1197 10.2227 11.55 11.4L12.45 12.6ZM11.4546 1.98521C10.5167 2.97891 9.42124 4.66458 9.10605 6.58743C8.78139 8.56801 9.29819 10.7585 11.5251 12.5805L12.4749 11.4195C10.6922 9.96097 10.3421 8.32006 10.5863 6.83007C10.84 5.28236 11.7493 3.8583 12.5454 3.01479L11.4546 1.98521ZM3.55246 17.4466C4.83283 17.8559 6.83354 18.107 8.67915 17.4608C10.5944 16.7902 12.2389 15.1856 12.7402 12.1211L11.2598 11.8789C10.8434 14.425 9.55833 15.5636 8.18342 16.0451C6.73887 16.5509 5.08884 16.3629 4.00917 16.0178L3.55246 17.4466ZM12.2946 11.3103C10.9881 10.7522 9.09388 10.5468 7.30293 11.2508C5.47176 11.9706 3.84262 13.6038 3.05637 16.5381L4.50526 16.9263C5.18311 14.3965 6.51404 13.1726 7.85167 12.6468C9.22953 12.1052 10.7128 12.2657 11.7054 12.6897L12.2946 11.3103ZM20.9555 16.5867C20.6694 15.2717 19.8822 13.415 18.3959 12.1416C16.854 10.8207 14.6391 10.2004 11.7348 11.2985L12.2652 12.7015C14.6786 11.7891 16.3116 12.3313 17.42 13.2808C18.5839 14.2779 19.2492 15.7994 19.4898 16.9055L20.9555 16.5867ZM11.2554 12.0897C11.4255 13.5018 12.1995 15.2435 13.7083 16.4404C15.2507 17.664 17.4827 18.2567 20.4168 17.4705L20.0285 16.0217C17.4985 16.6996 15.7687 16.1603 14.6405 15.2653C13.4788 14.3437 12.8735 12.9803 12.7446 11.9103L11.2554 12.0897ZM11 11.75H13V10.25H11V11.75ZM12.25 11V13H13.75V11H12.25ZM13 12.25H11V13.75H13V12.25ZM11.75 13V11H10.25V13H11.75Z" fill="black"/>
</svg>
