<svg width="24" height="24" viewBox="0 0 24 24" fill="none" xmlns="http://www.w3.org/2000/svg">
<path d="M20 12C20 16.4183 16.4183 20 12 20C7.58172 20 4 16.4183 4 12C4 7.58172 7.58172 4 12 4C16.4183 4 20 7.58172 20 12Z" stroke="black" stroke-width="1.5"/>
<path d="M8.46931 8.46931C6.51937 10.4193 6.59459 13.656 8.63734 15.6987C9.04532 16.1027 10.0291 16.3735 10.7005 14.2252C11.5397 11.5398 13.3535 10.3789 15.7265 9.83389C16.4287 9.67261 16.0969 9.03537 15.6987 8.63734C13.656 6.59459 10.4193 6.51937 8.46931 8.46931Z" stroke="black" stroke-width="1.5"/>
</svg>
