<svg width="24" height="24" viewBox="0 0 24 24" fill="none" xmlns="http://www.w3.org/2000/svg">
<path d="M21 12C21 16.9706 16.9706 21 12 21C7.02944 21 3 16.9706 3 12C3 7.02944 7.02944 3 12 3C16.9706 3 21 7.02944 21 12Z" stroke="black" stroke-width="1.5"/>
<path d="M11.3571 10.0714V8.78571H12.6429V10.0714H11.3571Z" stroke="black" stroke-width="1.5"/>
<path d="M8.78571 12.6429V11.3571H10.0714V12.6429H8.78571Z" stroke="black" stroke-width="1.5"/>
<path d="M13.9286 12.6429V11.3571H15.2143V12.6429H13.9286Z" stroke="black" stroke-width="1.5"/>
<path d="M11.3571 15.2143V13.9286H12.6429V15.2143H11.3571Z" stroke="black" stroke-width="1.5"/>
<path d="M9.42857 17.1429V16.5H10.0714V17.1429H9.42857Z" stroke="black" stroke-width="1.5"/>
<path d="M13.9286 17.1429V16.5H14.5714V17.1429H13.9286Z" stroke="black" stroke-width="1.5"/>
<path d="M16.5 14.5714V13.9286H17.1429V14.5714H16.5Z" stroke="black" stroke-width="1.5"/>
<path d="M16.5 10.0714V9.42857H17.1429V10.0714H16.5Z" stroke="black" stroke-width="1.5"/>
<path d="M13.9286 7.5V6.85714H14.5714V7.5H13.9286Z" stroke="black" stroke-width="1.5"/>
<path d="M9.42857 7.5V6.85714H10.0714V7.5H9.42857Z" stroke="black" stroke-width="1.5"/>
<path d="M6.85714 10.0714V9.42857H7.5V10.0714H6.85714Z" stroke="black" stroke-width="1.5"/>
<path d="M6.85714 14.5714V13.9286H7.5V14.5714H6.85714Z" stroke="black" stroke-width="1.5"/>
</svg>
