<svg width="24" height="24" viewBox="0 0 24 24" fill="none" xmlns="http://www.w3.org/2000/svg">
<path d="M5.82048 14.2914C5.29682 13.3103 4.99998 12.1898 4.99998 11C4.99998 7.13401 8.13399 4 12 4C15.866 4 19 7.13401 19 11C19 12.0736 18.7583 13.0907 18.3264 14M10.5 17.8389C10.9832 17.9444 11.4851 18 12 18C12.763 18 13.4974 17.8779 14.1849 17.6523M10.0431 12.4109C10.1818 13.1015 10.6866 14 12 14C13.3134 14 13.8182 13.1015 13.9569 12.4109M9.99998 9.5C9.99998 9.77614 9.77613 10 9.49998 10C9.22384 10 8.99998 9.77614 8.99998 9.5C8.99998 9.22386 9.22384 9 9.49998 9C9.77613 9 9.99998 9.22386 9.99998 9.5ZM15 9.5C15 9.77614 14.7761 10 14.5 10C14.2238 10 14 9.77614 14 9.5C14 9.22386 14.2238 9 14.5 9C14.7761 9 15 9.22386 15 9.5ZM10.0582 16.6752C10.5582 17.5085 10.9582 19.2752 8.55815 19.6752C6.15815 20.0752 4.38137 19.2159 4.05815 17.6752C3.73493 16.1345 4.80834 14.6752 6.05815 14.1752C8.05813 13.3751 9.55815 15.5085 10.0582 16.6752ZM14.3793 16.6752C13.8793 17.5085 13.4793 19.2752 15.8793 19.6752C18.2793 20.0752 20.0561 19.2159 20.3793 17.6752C20.7025 16.1345 19.6291 14.6752 18.3793 14.1752C16.3793 13.3751 14.8793 15.5085 14.3793 16.6752Z" stroke="black" stroke-width="1.5"/>
</svg>
