<svg width="24" height="24" viewBox="0 0 24 24" fill="none" xmlns="http://www.w3.org/2000/svg">
<path d="M8.46766 8.5C8.46766 8.77614 8.2438 9 7.96766 9C7.69152 9 7.46766 8.77614 7.46766 8.5C7.46766 8.22386 7.69152 8 7.96766 8C8.2438 8 8.46766 8.22386 8.46766 8.5Z" fill="black"/>
<path d="M16.3958 15.5C16.3958 15.7761 16.172 16 15.8958 16C15.6197 16 15.3958 15.7761 15.3958 15.5C15.3958 15.2239 15.6197 15 15.8958 15C16.172 15 16.3958 15.2239 16.3958 15.5Z" fill="black"/>
<path d="M8.46138 8.5H13.5338C14.572 8.5 15.7521 8.99224 15.7521 10.2768C15.7521 11.5613 14.7669 12 13.5338 12H10.4662C9.5414 12 8.30144 12.4645 8.30144 13.7089C8.30144 15.1089 9.5414 15.5 10.4662 15.5H15.401M12 2.5L20 7V17L12 21.5L4 17V7L12 2.5ZM8.46766 8.5C8.46766 8.77614 8.2438 9 7.96766 9C7.69152 9 7.46766 8.77614 7.46766 8.5C7.46766 8.22386 7.69152 8 7.96766 8C8.2438 8 8.46766 8.22386 8.46766 8.5ZM16.3958 15.5C16.3958 15.7761 16.172 16 15.8958 16C15.6197 16 15.3958 15.7761 15.3958 15.5C15.3958 15.2239 15.6197 15 15.8958 15C16.172 15 16.3958 15.2239 16.3958 15.5Z" stroke="black" stroke-width="1.5"/>
</svg>
