<svg width="24" height="24" viewBox="0 0 24 24" fill="none" xmlns="http://www.w3.org/2000/svg">
<path d="M10.75 9C10.75 8.58579 10.4142 8.25 10 8.25C9.58579 8.25 9.25 8.58579 9.25 9H10.75ZM9.25 15C9.25 15.4142 9.58579 15.75 10 15.75C10.4142 15.75 10.75 15.4142 10.75 15H9.25ZM12.5 9V8.25C12.0858 8.25 11.75 8.58579 11.75 9H12.5ZM11.75 15C11.75 15.4142 12.0858 15.75 12.5 15.75C12.9142 15.75 13.25 15.4142 13.25 15H11.75ZM19.25 12C19.25 16.0041 16.0041 19.25 12 19.25V20.75C16.8325 20.75 20.75 16.8325 20.75 12H19.25ZM12 19.25C7.99594 19.25 4.75 16.0041 4.75 12H3.25C3.25 16.8325 7.16751 20.75 12 20.75V19.25ZM4.75 12C4.75 7.99594 7.99594 4.75 12 4.75V3.25C7.16751 3.25 3.25 7.16751 3.25 12H4.75ZM12 4.75C16.0041 4.75 19.25 7.99594 19.25 12H20.75C20.75 7.16751 16.8325 3.25 12 3.25V4.75ZM12.5 13.3525H14V11.8525H12.5V13.3525ZM14 13.3525C14.3543 13.3525 14.8918 13.2637 15.3642 12.9369C15.8788 12.5809 16.25 11.9844 16.25 11.1378H14.75C14.75 11.3308 14.7106 11.4505 14.6718 11.5244C14.6328 11.5987 14.5792 11.6561 14.5108 11.7034C14.3582 11.8089 14.1457 11.8525 14 11.8525V13.3525ZM16.25 11.1378V10.5332H14.75V11.1378H16.25ZM16.25 10.5332C16.25 9.91756 16.0958 9.31619 15.6639 8.86997C15.2278 8.41939 14.6281 8.25 14 8.25V9.75C14.3719 9.75 14.5222 9.84719 14.5861 9.91319C14.6542 9.98355 14.75 10.1488 14.75 10.5332H16.25ZM14 8.25H12.5V9.75H14V8.25ZM11.75 12.6025V15H13.25V12.6025H11.75ZM9.25 9V15H10.75V9H9.25ZM11.75 9V12.6025H13.25V9H11.75Z" fill="black"/>
</svg>
