<svg width="24" height="24" viewBox="0 0 24 24" fill="none" xmlns="http://www.w3.org/2000/svg">
<path d="M11.9893 4C8.29397 4 5.15207 6.31289 4 9.53655C4 9.67891 4.09399 9.96363 4.46996 9.96363C4.93992 9.96363 7.75967 7.5 11.9893 7.5C15.373 7.5 18.412 8.89324 19.5086 9.96363C19.6333 10.0853 20.1054 9.89133 19.9786 9.53655C18.8265 6.31289 15.6846 4 11.9893 4Z" stroke="black" stroke-width="1.5"/>
<path d="M11.9893 20C8.29397 20 5.15207 17.6871 4 14.4635C4 14.3211 4.09399 14.0364 4.46996 14.0364C4.93992 14.0364 7.75967 16.5 11.9893 16.5C15.373 16.5 18.412 15.1068 19.5086 14.0364C19.6333 13.9147 20.1054 14.1087 19.9786 14.4635C18.8265 17.6871 15.6846 20 11.9893 20Z" stroke="black" stroke-width="1.5"/>
</svg>
