<svg width="24" height="24" viewBox="0 0 24 24" fill="none" xmlns="http://www.w3.org/2000/svg">
<path d="M9 15C10.6569 15 12 13.6569 12 12C12 10.3431 10.6569 9 9 9M9 15C7.34315 15 6 13.6569 6 12C6 10.3431 7.34315 9 9 9M9 15V17.4M9 9V6.6M9 6.6C9.99411 6.6 10.8 5.79411 10.8 4.8C10.8 3.80589 9.99411 3 9 3C8.00589 3 7.2 3.80589 7.2 4.8C7.2 5.79411 8.00589 6.6 9 6.6ZM9 17.4C8.00589 17.4 7.2 18.2059 7.2 19.2C7.2 20.1941 8.00589 21 9 21C9.99411 21 10.8 20.1941 10.8 19.2C10.8 18.2059 9.99411 17.4 9 17.4ZM11.6212 10.5267L14.7001 8.69996M14.4779 15.1642L11.5585 13.509M18 7.8C18 8.79411 17.1941 9.6 16.2 9.6C15.2059 9.6 14.4 8.79411 14.4 7.8C14.4 6.80589 15.2059 6 16.2 6C17.1941 6 18 6.80589 18 7.8ZM18 15.6C18 16.5941 17.1941 17.4 16.2 17.4C15.2059 17.4 14.4 16.5941 14.4 15.6C14.4 14.6059 15.2059 13.8 16.2 13.8C17.1941 13.8 18 14.6059 18 15.6Z" stroke="black" stroke-width="1.5"/>
</svg>
