<svg width="24" height="24" viewBox="0 0 24 24" fill="none" xmlns="http://www.w3.org/2000/svg">
<path d="M12 3L19.0365 6.38859L20.7744 14.0027L15.905 20.1087H8.09505L3.22565 14.0027L4.96352 6.38859L12 3Z" stroke="black" stroke-width="1.5"/>
<path d="M11.1369 7.20001C8.63292 7.20001 6.60001 9.1688 6.60001 11.598C6.60001 14.0272 8.63292 15.9994 11.1369 15.9994C11.6788 15.9994 12.2206 15.9032 12.7306 15.7143V14.68C12.7306 14.3261 13.0281 13.7317 13.3894 13.7317V12.7697C13.3894 12.2886 14.1331 11.4709 15.0433 11.4709C15.2665 11.4709 15.479 11.5155 15.6702 11.5911C15.6702 9.16537 13.6373 7.20001 11.1369 7.20001ZM12.0435 8.73931L13.6302 10.2786H12.4969V12.0378H11.5902V10.2786H10.4569L12.0435 8.73931ZM9.77688 11.1582H10.6835V12.9174H11.8169L10.2302 14.4601L8.64 12.9174H9.77688V11.1582ZM15.1567 12.2508C14.5121 12.2508 13.9844 12.7594 13.9844 13.3881V14.0719C13.7258 14.0719 13.5169 14.2746 13.5169 14.5254V16.3465C13.5169 16.5973 13.7258 16.8 13.9844 16.8H16.3325C16.5875 16.8 16.8 16.5973 16.8 16.3465V14.5254C16.8 14.2746 16.5875 14.0719 16.3325 14.0719V13.3881C16.3325 12.7594 15.8048 12.2508 15.1567 12.2508ZM15.1567 12.7044C15.3444 12.7044 15.525 12.7765 15.6561 12.9037C15.7871 13.0342 15.8615 13.206 15.8615 13.3881V14.0719H14.4554V13.3881C14.4554 13.206 14.5298 13.0342 14.6608 12.9037C14.7919 12.7765 14.9725 12.7044 15.1567 12.7044Z" fill="black"/>
</svg>
