<svg width="24" height="24" viewBox="0 0 24 24" fill="none" xmlns="http://www.w3.org/2000/svg">
<path d="M12 3L19.0365 6.38859L20.7744 14.0027L15.905 20.1087H8.09505L3.22565 14.0027L4.96352 6.38859L12 3Z" stroke="black" stroke-width="1.5"/>
<path d="M11.9962 9H11.7338L11.4712 9.00771L11.2125 9.01542L10.9575 9.02698L10.7062 9.03855L10.4588 9.05782L10.2187 9.08095L10.1888 9.08481L10.245 9.68236L10.2675 9.67465L10.5038 9.65923L10.74 9.63995L10.9838 9.62839L11.2313 9.61682L11.4825 9.60526L11.7412 9.6014L12 9.59755L12.2587 9.6014L12.5137 9.60526H12.5362L12.5587 9.00771H12.5288L12.2662 9H12H11.9962ZM13.1475 9.03084L13.1137 9.62839L13.2563 9.63995L13.4962 9.65538L13.7287 9.67465L13.9575 9.69778L14.1787 9.72477L14.3925 9.7479L14.6025 9.77873L14.805 9.81343L15 9.84428L15.1875 9.88283L15.3675 9.92137L15.3788 9.92523L15.51 9.33925L15.495 9.3354L15.3075 9.29685L15.1088 9.25444L14.8988 9.21974L14.6888 9.18505L14.4712 9.1542L14.25 9.12722L14.0175 9.10023L13.7812 9.0771L13.5375 9.05782L13.2938 9.04241L13.1475 9.03084ZM9.6 9.1465L9.52875 9.15806L9.31124 9.1889L9.0975 9.21974L8.895 9.25829L8.69625 9.29685L8.50499 9.33925L8.32125 9.3778L8.145 9.42406L7.98 9.47418L7.81875 9.5243L7.66875 9.57827L7.52625 9.63224L7.39124 9.69007L7.27125 9.75176L7.24125 9.76332L7.51874 10.2953L7.52625 10.2915L7.6275 10.2414L7.74 10.1912L7.86375 10.145L7.995 10.0987L8.14124 10.0525L8.295 10.0062L8.45624 9.96379L8.62875 9.92137L8.805 9.88668L8.9925 9.84814L9.19125 9.81343L9.39374 9.78259L9.6 9.75176L9.67125 9.74404L9.6 9.1465ZM16.095 9.50117L15.9225 10.0756L16.0013 10.0987L16.1325 10.145L16.2563 10.1951L16.3687 10.2414L16.47 10.2915L16.5562 10.3416L16.6313 10.3879L16.695 10.4341L16.74 10.4765L16.7775 10.5112L16.8 10.5459L16.8038 10.5536L16.8075 10.5613L16.8112 10.569V10.5729V10.5806V10.5845L16.8075 10.5922L16.8038 10.5999L16.8 10.6076L16.7775 10.6384L16.74 10.677L16.695 10.7194L16.6313 10.7656L16.5562 10.8119L16.47 10.862L16.3687 10.9083L16.2563 10.9584L16.1325 11.0085L16.0013 11.0548L15.855 11.1011L15.7012 11.1435L15.54 11.1859L15.3675 11.2244L15.1875 11.2668L15.0525 11.29L15.1612 11.8798L15.3 11.8567L15.4912 11.8142L15.675 11.7718L15.8512 11.7256L16.0162 11.6755L16.1775 11.6254L16.3275 11.5752L16.47 11.5174L16.6012 11.4596L16.7287 11.3979L16.815 11.3516V11.529H17.3963V10.5883V10.5729V10.5266C17.3925 10.5151 17.3925 10.5074 17.3887 10.4958L17.385 10.4649L17.3775 10.4341L17.3737 10.4033L17.3625 10.3763L17.3512 10.3416L17.34 10.3185L17.325 10.2876L17.3138 10.2645L17.295 10.2336C17.2912 10.2259 17.2838 10.2144 17.2763 10.2067L17.2313 10.1411C17.2275 10.1296 17.22 10.1218 17.2088 10.1103L17.1563 10.0486L17.1338 10.0293L17.0663 9.96379L17.0438 9.95222L16.965 9.89054L16.8563 9.82115L16.74 9.7556L16.6125 9.69392L16.4775 9.6361L16.335 9.57827L16.185 9.52815L16.095 9.50117ZM6.6825 10.2568L6.67875 10.2645L6.67125 10.2838L6.65249 10.3185L6.64124 10.3416L6.63375 10.3763L6.6225 10.3994L6.615 10.4341L6.60749 10.4611L6.60374 10.4958C6.60374 10.5074 6.6 10.5151 6.6 10.5266V10.5575V10.5883V12.1458H7.185V11.3516L7.25625 11.3902L7.37999 11.4519L7.515 11.5135L7.6575 11.5675L7.81124 11.6215L7.96875 11.6716L8.1375 11.7217L8.31375 11.768L8.4975 11.8142L8.65875 11.8451L8.77875 11.2591L8.625 11.2244L8.4525 11.1859L8.29124 11.1435L8.1375 11.1011L7.995 11.0548L7.85999 11.0085L7.74 10.9584L7.6275 10.9083L7.52625 10.8582L7.44 10.8119L7.365 10.7656L7.30125 10.7194L7.2525 10.677L7.21875 10.6384L7.19625 10.6037L7.18875 10.5999V10.5883L7.185 10.5845V10.5768V10.5729V10.569V10.5652L7.18875 10.5613V10.5536L6.6825 10.2568ZM9.3375 11.3632L9.25125 11.953L9.30375 11.9646L9.525 11.9954L9.74624 12.0224L9.97874 12.0494L10.215 12.0725L10.455 12.0918L10.7025 12.1111L10.9537 12.1265L11.2088 12.1381L11.4675 12.1458L11.6137 12.1496L11.625 11.5482H11.4825L11.2313 11.5367L10.9838 11.5251L10.74 11.5135L10.5 11.4943L10.2675 11.475L10.0387 11.4519L9.81749 11.4287L9.6 11.3979L9.39374 11.3709L9.3375 11.3632ZM14.49 11.3863L14.3925 11.3979L14.1787 11.4287L13.9575 11.4519L13.7287 11.475L13.4962 11.4943L13.2563 11.5135L13.0125 11.5251L12.765 11.5367L12.51 11.5482L12.2587 11.5521H12.2025L12.2062 12.1496H12.2625L12.525 12.1458L12.7837 12.1381L13.0387 12.1265L13.29 12.1111L13.5337 12.0918L13.7775 12.0725L14.0137 12.0494L14.2425 12.0224L14.4675 11.9954L14.5725 11.98L14.49 11.3863ZM16.8112 12.1304V14.0194V14.0271V14.031V14.0348L16.8075 14.0425L16.8038 14.0502L16.8 14.0579L16.7775 14.0888L16.74 14.1273L16.695 14.1697L16.6725 14.1852L17.0137 14.6748L17.0438 14.6478L17.0663 14.6324L17.1338 14.5745C17.1413 14.5668 17.1488 14.5591 17.1563 14.5514L17.2125 14.4897C17.22 14.4782 17.2275 14.4704 17.235 14.4589L17.28 14.3972C17.2875 14.3895 17.2913 14.3779 17.2988 14.3702L17.3175 14.3394L17.3287 14.3162L17.3438 14.2854L17.355 14.2623L17.3663 14.2276L17.3775 14.2006L17.3813 14.1697L17.3887 14.1428L17.3925 14.1081C17.3963 14.0965 17.3963 14.0888 17.3963 14.0772L17.4 14.0464V12.1265L16.8112 12.1304ZM6.6 12.7433V14.0232L6.60374 14.0734C6.60374 14.0849 6.60374 14.0926 6.60374 14.1042L6.60749 14.1351L6.615 14.1659L6.6225 14.1967L6.63375 14.2237L6.645 14.2584L6.65625 14.2815L6.67125 14.3124L6.6825 14.3355L6.69749 14.3625C6.70499 14.3741 6.70875 14.3818 6.71625 14.3933L6.76125 14.455C6.76875 14.4666 6.77624 14.4743 6.78374 14.482L6.84375 14.5475C6.85125 14.5553 6.85875 14.5591 6.86625 14.5668L6.93374 14.6285L6.95624 14.6439L7.035 14.7056L7.14374 14.775L7.25999 14.8405L7.38375 14.9022L7.5225 14.96L7.58625 14.987L7.7925 14.428L7.74374 14.4049L7.63125 14.3586L7.52999 14.3085L7.44 14.2584L7.365 14.2121L7.305 14.1659L7.25625 14.1235L7.2225 14.0888L7.2 14.0541L7.19625 14.0464L7.19249 14.0387L7.18875 14.031V14.0271V14.0155V12.7433H6.6ZM16.2188 14.4203L16.1325 14.455L16.0013 14.5013L15.855 14.5475L15.7012 14.59L15.54 14.6362L15.3675 14.6748L15.1875 14.7133L15 14.7519L14.805 14.7866L14.6025 14.8174L14.3925 14.8482L14.1787 14.8752L14.0137 14.8945L14.0775 15.4882L14.2462 15.4689L14.4675 15.4419L14.685 15.4111L14.8988 15.3764L15.1012 15.3417L15.3 15.3032L15.4912 15.2607L15.675 15.2183L15.8512 15.1721L16.0162 15.1258L16.1775 15.0718L16.3275 15.0217L16.4288 14.9832L16.2188 14.4203ZM8.31375 14.5977L8.17125 15.1798L8.31375 15.2183L8.4975 15.2607L8.68875 15.3032L8.8875 15.3417L9.09375 15.3764L9.30375 15.4111L9.525 15.4419L9.74624 15.4728L9.97874 15.4959L10.215 15.519L10.455 15.5422L10.5263 15.546L10.5675 14.9485L10.5 14.9446L10.2675 14.9215L10.0387 14.8984L9.81749 14.8752L9.6 14.8482L9.39374 14.8174L9.19125 14.7866L8.9925 14.7519L8.805 14.7172L8.62875 14.6748L8.45624 14.6362L8.31375 14.5977ZM13.4438 14.9485L13.2563 14.9639L13.0125 14.9755L12.7612 14.987L12.51 14.9947L12.255 15.0025H11.9962H11.7375L11.4825 14.9947L11.2313 14.987L11.145 14.9832L11.1187 15.5807L11.205 15.5884L11.4675 15.5923L11.73 15.6H11.9925H12.2625L12.525 15.5923L12.78 15.5884L13.0387 15.5769L13.2862 15.5614L13.4813 15.546L13.4438 14.9485Z" fill="black"/>
</svg>
