<svg width="24" height="24" viewBox="0 0 24 24" fill="none" xmlns="http://www.w3.org/2000/svg">
<path d="M12 3L19.0365 6.38859L20.7744 14.0027L15.905 20.1087H8.09505L3.22565 14.0027L4.96352 6.38859L12 3Z" stroke="black" stroke-width="1.5"/>
<path d="M11.9461 7.20022L11.7033 7.20792C9.07554 7.36204 7.06808 9.60839 7.20679 12.2362C7.3455 14.864 9.58029 16.8869 12.2119 16.7636L12.1195 14.8678C10.532 14.9449 9.18342 13.7235 9.09865 12.136C9.01388 10.5485 10.2276 9.19225 11.8151 9.09978C13.3602 9.00731 14.6972 10.1517 14.8552 11.6775H13.1906L14.6933 15.3572L18.1649 11.6775H16.67L16.7586 11.6736C16.5929 9.13061 14.4698 7.1771 11.9461 7.20022Z" fill="black"/>
</svg>
