<svg width="24" height="24" viewBox="0 0 24 24" fill="none" xmlns="http://www.w3.org/2000/svg">
<path d="M12 3L19.0365 6.38859L20.7744 14.0027L15.905 20.1087H8.09505L3.22565 14.0027L4.96352 6.38859L12 3Z" stroke="black" stroke-width="1.5"/>
<path d="M7.8 13.7962V14.6207H9.31162V13.7962H7.8ZM7.8 14.2084H9.31162H7.8ZM10.411 13.7962V14.6207H16.4575V13.7962H10.411ZM10.4067 14.2084H16.4575H10.4067ZM9.99443 11.5975V12.422H11.5103V11.5975H9.99443ZM9.99443 12.0097H11.5103H9.99443ZM12.6054 11.5975V12.422H16.4575V11.5975H12.6054ZM12.6097 12.0097H16.4575H12.6097ZM9.99443 9.39874V10.2233H11.5103V9.39874H9.99443ZM9.99443 9.811H11.5103H9.99443ZM12.6054 9.39874V10.2233H16.4575V9.39874H12.6054ZM12.6097 9.811H16.4575H12.6097ZM7.8 7.20001V8.02453H9.31162V7.20001H7.8ZM7.8 7.61227H9.31162H7.8ZM10.411 7.20001V8.02453H16.4575V7.20001H10.411ZM10.4067 7.61227H16.4575H10.4067Z" fill="black"/>
<path d="M11.121 15.648V16.2582C10.989 16.151 10.8365 16.0644 10.5809 16.0644C10.2346 16.0644 10.0903 16.2169 10.0903 16.6622C10.0903 17.1033 10.2222 17.2971 10.6262 17.2971C10.8324 17.2971 11.0426 17.2146 11.1457 17.1115V17.6887C11.0344 17.7588 10.8365 17.8454 10.5108 17.8454C9.74813 17.8454 9.45542 17.5032 9.45542 16.6539C9.45542 15.8912 9.76874 15.5161 10.4902 15.5161C10.8241 15.5161 11.0014 15.5862 11.121 15.648Z" fill="black"/>
<path d="M11.5872 17.8V15.5738H12.1685L12.185 15.916C12.2963 15.6398 12.5065 15.5161 12.7621 15.5161C13.0384 15.5161 13.2239 15.6769 13.294 15.9531C13.397 15.6439 13.6073 15.5161 13.9 15.5161C14.2916 15.5161 14.4771 15.7758 14.4771 16.2705V17.8H13.8629V16.4519C13.8629 16.1675 13.8052 16.0644 13.6073 16.0644C13.43 16.0644 13.3393 16.184 13.3393 16.4808V17.8H12.725V16.4396C12.725 16.151 12.655 16.0644 12.4736 16.0644C12.2839 16.0644 12.2015 16.1881 12.2015 16.4767V17.8H11.5872Z" fill="black"/>
</svg>
