<svg width="24" height="24" viewBox="0 0 24 24" fill="none" xmlns="http://www.w3.org/2000/svg">
<path d="M12 3L19.0365 6.38859L20.7744 14.0027L15.905 20.1087H8.09505L3.22565 14.0027L4.96352 6.38859L12 3Z" stroke="black" stroke-width="1.5"/>
<path d="M9.705 7.79999V9.76994H11.7375H11.73V11.446H8.05125C7.905 11.446 7.78875 11.5585 7.78875 11.7V13.63H8.31376V11.9539H11.745V13.63H12.27V11.9539H15.6863V13.63H16.2112V11.7C16.2112 11.6311 16.185 11.5658 16.1363 11.5186C16.0838 11.4714 16.02 11.446 15.9488 11.446H12.2625V9.76994H14.295V7.79999H9.705ZM6.60001 13.63V15.6H9.495V13.63H6.60001ZM10.5525 13.63V15.6H13.4475V13.63H10.5525ZM14.505 13.63V15.6H17.4V13.63H14.505Z" fill="black"/>
</svg>
