<svg width="24" height="24" viewBox="0 0 24 24" fill="none" xmlns="http://www.w3.org/2000/svg">
<path d="M12 3L19.0365 6.38859L20.7744 14.0027L15.905 20.1087H8.09505L3.22565 14.0027L4.96352 6.38859L12 3Z" stroke="black" stroke-width="1.5"/>
<path d="M12.0148 5.69678C11.888 5.69678 8.46338 7.34566 8.39996 7.4725C8.27313 7.66275 7.51211 11.2776 7.57552 11.341C7.57552 11.4044 8.14629 12.102 8.84389 12.9265L10.0488 14.4485H13.9808L16.5175 11.2776L16.0736 9.37505L15.5663 7.40908C14.3613 6.77489 13.2198 6.20413 12.0148 5.69678ZM12.2051 7.40908C12.3953 7.40908 12.3953 7.66275 12.7124 7.72617C13.1564 7.78959 13.0929 7.34566 13.4734 7.59933C13.854 7.91642 13.41 7.91642 13.4734 8.36035C13.6003 8.80428 13.9808 8.61403 13.7905 9.05796C13.6003 9.50189 13.4734 9.05796 13.0929 9.31163C12.7124 9.56531 12.9661 9.8824 12.5222 9.81898C12.0782 9.75556 12.3953 9.50189 12.0148 9.18479C11.6343 8.8677 11.4441 9.24821 11.3172 8.80428C11.1904 8.36035 11.5709 8.61403 11.7611 8.1701C11.9514 7.72617 11.5075 7.66275 11.888 7.40908C11.9514 7.40908 11.9514 7.34566 12.0148 7.34566C12.1417 7.40908 12.2051 7.40908 12.2051 7.40908ZM12.649 7.91642C12.5856 7.91642 12.5222 7.91642 12.4587 7.91642C12.0782 8.04326 11.888 8.42377 12.0148 8.74086C12.1417 9.12138 12.5222 9.31163 12.8393 9.18479C13.2198 9.05796 13.41 8.67745 13.2832 8.36035C13.2198 8.10668 12.9661 7.91642 12.649 7.91642ZM9.98543 9.05796C10.0488 9.05796 10.0488 9.05796 10.1123 9.05796C10.5562 9.18479 10.1123 9.43847 10.4294 9.75556C10.7464 10.0727 11.0001 9.69214 11.0635 10.0727C11.1904 10.5166 10.7464 10.2629 10.6196 10.6434C10.4928 11.0873 11.0001 11.0873 10.6196 11.4044C10.3025 11.7215 10.3025 11.2142 9.85859 11.341C9.41466 11.4679 9.66833 11.8484 9.2244 11.7215C8.78048 11.5947 9.2244 11.341 8.90731 11.0239C8.59022 10.7068 8.33655 11.0873 8.27313 10.7068C8.14629 10.2629 8.59022 10.5166 8.71706 10.1361C8.84389 9.69214 8.33655 9.69214 8.71706 9.37505C9.03415 9.05796 9.03415 9.5653 9.47808 9.43847C9.92201 9.43847 9.79517 9.05796 9.98543 9.05796ZM13.1564 9.56531C13.2198 9.56531 13.2198 9.56531 13.2832 9.62872C13.7905 9.81898 13.1564 10.1361 13.5369 10.4532C13.9174 10.8337 14.171 10.1361 14.4247 10.6434C14.615 11.1508 13.9808 10.8971 13.9808 11.4044C13.9808 11.9118 14.615 11.6581 14.4247 12.1655C14.2345 12.6728 13.9174 12.0386 13.6003 12.4191C13.2198 12.7996 13.9174 13.0533 13.41 13.2436C12.9027 13.4338 13.1564 12.7996 12.649 12.7996C12.1417 12.7996 12.3953 13.4338 11.888 13.2436C11.3806 13.0533 12.0148 12.7362 11.6343 12.4191C11.2538 12.0386 11.0001 12.7362 10.7464 12.2289C10.5562 11.7215 11.1904 11.9752 11.1904 11.4679C11.1904 10.9605 10.5562 11.2142 10.7464 10.7068C10.9367 10.1995 11.2538 10.8337 11.5709 10.4532C11.9514 10.0727 11.2538 9.81898 11.7611 9.56531C12.2685 9.37505 12.0148 10.0092 12.5222 10.0092C13.0295 10.0727 12.9027 9.56531 13.1564 9.56531ZM9.73175 9.75556C9.35124 9.75556 9.03415 10.0727 9.03415 10.4532C9.03415 10.8337 9.35124 11.1508 9.73175 11.1508C10.1123 11.1508 10.4294 10.8337 10.4294 10.4532C10.4294 10.0727 10.1123 9.75556 9.73175 9.75556ZM12.649 10.3897C12.0782 10.3897 11.6343 10.8337 11.6343 11.4044C11.6343 11.9752 12.0782 12.4191 12.649 12.4191C13.2198 12.4191 13.6637 11.9752 13.6637 11.4044C13.6003 10.8337 13.1564 10.3897 12.649 10.3897Z" fill="black"/>
<path d="M10.4872 16.0859V16.6187C10.372 16.5251 10.2388 16.4495 10.0156 16.4495C9.71322 16.4495 9.58722 16.5827 9.58722 16.9715C9.58722 17.3567 9.70242 17.5259 10.0552 17.5259C10.2352 17.5259 10.4188 17.4539 10.5088 17.3639V17.8679C10.4116 17.9291 10.2388 18.0047 9.95442 18.0047C9.28842 18.0047 9.03282 17.7059 9.03282 16.9643C9.03282 16.2983 9.30642 15.9707 9.93642 15.9707C10.228 15.9707 10.3828 16.0319 10.4872 16.0859Z" fill="black"/>
<path d="M10.9448 17.1551V16.7231H11.9456V17.1551H10.9448Z" fill="black"/>
<path d="M12.4342 17.9651V16.0211H12.9418L12.9562 16.3199C13.0534 16.0787 13.237 15.9707 13.4602 15.9707C13.7014 15.9707 13.8634 16.1111 13.9246 16.3523C14.0146 16.0823 14.1982 15.9707 14.4538 15.9707C14.7958 15.9707 14.9578 16.1975 14.9578 16.6295V17.9651H14.4214V16.7879C14.4214 16.5395 14.371 16.4495 14.1982 16.4495C14.0434 16.4495 13.9642 16.5539 13.9642 16.8131V17.9651H13.4278V16.7771C13.4278 16.5251 13.3666 16.4495 13.2082 16.4495C13.0426 16.4495 12.9706 16.5575 12.9706 16.8095V17.9651H12.4342Z" fill="black"/>
</svg>
