<svg width="24" height="24" viewBox="0 0 24 24" fill="none" xmlns="http://www.w3.org/2000/svg">
<path d="M12 3L19.0365 6.38859L20.7744 14.0027L15.905 20.1087H8.09505L3.22565 14.0027L4.96352 6.38859L12 3Z" stroke="black" stroke-width="1.5"/>
<path d="M10.3096 7.79999V8.07077V8.33799V8.56246V8.82612H10.8408V8.55889V8.33799H11.6767H11.9423V7.79999H11.6767H10.8408H10.3096ZM13.0083 7.79999V8.33799H13.2704H14.8677H15.1369V7.79999H14.8677H13.2704H13.0083ZM16.1958 7.79999V8.33799H16.465H16.8688V9.0007V9.26792H17.4V9.0007V8.07077C17.4 7.92113 17.2831 7.79999 17.1344 7.79999H16.4615H16.1958ZM8.76543 9.22873V9.49595V9.76317V10.2014V10.4651H9.29313V10.2014V9.76317H9.91647H10.1856V9.22873H9.91647H9.29313H8.76543ZM11.2481 9.22873V9.76317H11.5138H13.1075H13.3731V9.22873H13.1075H11.5138H11.2481ZM14.4392 9.22873V9.76317H14.7048H15.3211V10.2121V10.4793H15.8523V10.2121V9.49595C15.8558 9.34987 15.7354 9.22873 15.5867 9.22873H14.7048H14.4392ZM16.8688 10.3368V10.604V12.2109V12.4781H17.4V12.2109V10.604V10.3368H16.8688ZM7.48334 10.6575C7.33813 10.6575 7.21772 10.775 7.21772 10.9211V15.5565C7.21772 15.7062 7.33459 15.8237 7.48334 15.8237H14.0425C14.1877 15.8237 14.3046 15.7062 14.3081 15.5565V14.3986H14.6977H14.9633V13.8641H14.6977H14.3081V10.9211C14.3046 10.775 14.1877 10.6575 14.0425 10.6575H7.48334ZM15.3211 11.5518V11.819V13.4223V13.6895H15.8523V13.4223V12.9698H16.0294H16.295V12.4354H16.0294H15.8523V11.819V11.5518H15.3211ZM7.20001 16.1765V16.8H14.3117V16.1765H7.20001Z" fill="black"/>
</svg>
