<svg width="24" height="24" viewBox="0 0 24 24" fill="none" xmlns="http://www.w3.org/2000/svg">
<path d="M12 3L19.0365 6.38859L20.7744 14.0027L15.905 20.1087H8.09505L3.22565 14.0027L4.96352 6.38859L12 3Z" stroke="black" stroke-width="1.5"/>
<path d="M13.7582 8.33185C12.5603 8.33185 11.5875 9.28102 11.5875 10.4498V11.7212C11.112 11.7212 10.7199 12.1002 10.7199 12.5677V15.9571C10.7199 16.421 11.112 16.8 11.5875 16.8H15.9288C16.408 16.8 16.8 16.421 16.8 15.9571V12.5677C16.8 12.1037 16.408 11.7212 15.9288 11.7212V10.4498C15.9288 9.28102 14.9597 8.33185 13.7618 8.33185H13.7582ZM13.7582 9.17831C14.4769 9.17831 15.0613 9.74852 15.0613 10.4498V11.7212H12.4587V10.4498C12.4587 9.74852 13.0394 9.17831 13.7582 9.17831ZM11.2172 9.09685L10.8034 9.21727L10.8071 10.1381C10.876 9.76268 11.0176 9.41206 11.2172 9.09685ZM13.7582 10.1841C13.4823 10.1841 13.2826 10.3789 13.2826 10.6446V11.105H14.23V10.6446C14.23 10.3789 14.034 10.1841 13.7582 10.1841ZM6.60001 8.14414V12.2454L9.88869 14.0198V12.7625C9.89232 12.4083 10.0339 12.0683 10.2916 11.8133L10.2989 9.21727L6.60001 8.14414ZM10.5493 6.59998L6.60001 7.71914L10.5493 8.83477L11.7254 8.50185C12.259 8.01664 12.9741 7.7156 13.7582 7.7156C13.9433 7.7156 14.1284 7.73331 14.3135 7.76872L14.4987 7.7156L10.5493 6.59998Z" fill="black"/>
</svg>
