<svg width="24" height="24" viewBox="0 0 24 24" fill="none" xmlns="http://www.w3.org/2000/svg">
<path d="M12 3L19.0365 6.38859L20.7744 14.0027L15.905 20.1087H8.09505L3.22565 14.0027L4.96352 6.38859L12 3Z" stroke="black" stroke-width="1.5"/>
<path d="M12.0148 5.69678C11.888 5.69678 8.46338 7.34566 8.39996 7.4725C8.27313 7.66275 7.51211 11.2776 7.57552 11.341C7.57552 11.4044 8.14629 12.102 8.84389 12.9265L10.0488 14.4485H13.9808L16.5175 11.2776L16.0736 9.37505L15.5663 7.40908C14.3613 6.77489 13.2198 6.20413 12.0148 5.69678ZM12.2051 7.40908C12.3953 7.40908 12.3953 7.66275 12.7124 7.72617C13.1564 7.78959 13.0929 7.34566 13.4734 7.59933C13.854 7.91642 13.41 7.91642 13.4734 8.36035C13.6003 8.80428 13.9808 8.61403 13.7905 9.05796C13.6003 9.50189 13.4734 9.05796 13.0929 9.31163C12.7124 9.56531 12.9661 9.8824 12.5222 9.81898C12.0782 9.75556 12.3953 9.50189 12.0148 9.18479C11.6343 8.8677 11.4441 9.24821 11.3172 8.80428C11.1904 8.36035 11.5709 8.61403 11.7611 8.1701C11.9514 7.72617 11.5075 7.66275 11.888 7.40908C11.9514 7.40908 11.9514 7.34566 12.0148 7.34566C12.1417 7.40908 12.2051 7.40908 12.2051 7.40908ZM12.649 7.91642C12.5856 7.91642 12.5222 7.91642 12.4587 7.91642C12.0782 8.04326 11.888 8.42377 12.0148 8.74086C12.1417 9.12138 12.5222 9.31163 12.8393 9.18479C13.2198 9.05796 13.41 8.67745 13.2832 8.36035C13.2198 8.10668 12.9661 7.91642 12.649 7.91642ZM9.98543 9.05796C10.0488 9.05796 10.0488 9.05796 10.1123 9.05796C10.5562 9.18479 10.1123 9.43847 10.4294 9.75556C10.7464 10.0727 11.0001 9.69214 11.0635 10.0727C11.1904 10.5166 10.7464 10.2629 10.6196 10.6434C10.4928 11.0873 11.0001 11.0873 10.6196 11.4044C10.3025 11.7215 10.3025 11.2142 9.85859 11.341C9.41466 11.4679 9.66833 11.8484 9.2244 11.7215C8.78048 11.5947 9.2244 11.341 8.90731 11.0239C8.59022 10.7068 8.33655 11.0873 8.27313 10.7068C8.14629 10.2629 8.59022 10.5166 8.71706 10.1361C8.84389 9.69214 8.33655 9.69214 8.71706 9.37505C9.03415 9.05796 9.03415 9.5653 9.47808 9.43847C9.92201 9.43847 9.79517 9.05796 9.98543 9.05796ZM13.1564 9.56531C13.2198 9.56531 13.2198 9.56531 13.2832 9.62872C13.7905 9.81898 13.1564 10.1361 13.5369 10.4532C13.9174 10.8337 14.171 10.1361 14.4247 10.6434C14.615 11.1508 13.9808 10.8971 13.9808 11.4044C13.9808 11.9118 14.615 11.6581 14.4247 12.1655C14.2345 12.6728 13.9174 12.0386 13.6003 12.4191C13.2198 12.7996 13.9174 13.0533 13.41 13.2436C12.9027 13.4338 13.1564 12.7996 12.649 12.7996C12.1417 12.7996 12.3953 13.4338 11.888 13.2436C11.3806 13.0533 12.0148 12.7362 11.6343 12.4191C11.2538 12.0386 11.0001 12.7362 10.7464 12.2289C10.5562 11.7215 11.1904 11.9752 11.1904 11.4679C11.1904 10.9605 10.5562 11.2142 10.7464 10.7068C10.9367 10.1995 11.2538 10.8337 11.5709 10.4532C11.9514 10.0727 11.2538 9.81898 11.7611 9.56531C12.2685 9.37505 12.0148 10.0092 12.5222 10.0092C13.0295 10.0727 12.9027 9.56531 13.1564 9.56531ZM9.73175 9.75556C9.35124 9.75556 9.03415 10.0727 9.03415 10.4532C9.03415 10.8337 9.35124 11.1508 9.73175 11.1508C10.1123 11.1508 10.4294 10.8337 10.4294 10.4532C10.4294 10.0727 10.1123 9.75556 9.73175 9.75556ZM12.649 10.3897C12.0782 10.3897 11.6343 10.8337 11.6343 11.4044C11.6343 11.9752 12.0782 12.4191 12.649 12.4191C13.2198 12.4191 13.6637 11.9752 13.6637 11.4044C13.6003 10.8337 13.1564 10.3897 12.649 10.3897Z" fill="black"/>
<path d="M13.7495 18.4486V16.5046H14.2859V18.4486H13.7495ZM13.7207 15.9322C13.7207 15.7774 13.8107 15.6586 14.0159 15.6586C14.2355 15.6586 14.3183 15.7738 14.3183 15.9322C14.3183 16.0834 14.2355 16.2094 14.0195 16.2094C13.8071 16.2094 13.7207 16.0834 13.7207 15.9322Z" fill="black"/>
<path d="M11.6048 19.0966V16.5046H12.1124L12.1304 16.7926C12.224 16.5874 12.386 16.4542 12.6884 16.4542C13.1852 16.4542 13.3796 16.7386 13.3796 17.4442C13.3796 18.157 13.178 18.4882 12.6524 18.4882C12.35 18.4882 12.2132 18.337 12.1412 18.2038V19.0966H11.6048ZM12.1412 17.5522C12.1412 17.851 12.2312 18.031 12.4832 18.031C12.7388 18.031 12.818 17.8618 12.818 17.4514C12.818 17.0626 12.7244 16.9114 12.4796 16.9114C12.2348 16.9114 12.1412 17.0878 12.1412 17.3866V17.5522Z" fill="black"/>
<path d="M10.7037 18.4486L10.6821 18.1678C10.6245 18.3154 10.4517 18.4882 10.1277 18.4882C9.73525 18.4882 9.59125 18.2362 9.59125 17.887C9.59125 17.4622 9.82525 17.3002 10.3257 17.3038L10.6425 17.3074V17.2066C10.6425 17.0014 10.5705 16.9186 10.3185 16.9186C10.0953 16.9186 9.86485 17.0266 9.74605 17.1418V16.5946C9.88285 16.5154 10.1277 16.4542 10.4157 16.4542C10.9989 16.4542 11.1825 16.645 11.1825 17.185V18.4486H10.7037ZM10.1349 17.8258C10.1349 17.959 10.1817 18.0526 10.3401 18.0526C10.5561 18.0526 10.6425 17.9158 10.6425 17.7142V17.6098H10.4085C10.2033 17.6098 10.1349 17.6638 10.1349 17.8258Z" fill="black"/>
</svg>
