<svg width="24" height="24" viewBox="0 0 24 24" fill="none" xmlns="http://www.w3.org/2000/svg">
<path d="M12 3L19.0365 6.38859L20.7744 14.0027L15.905 20.1087H8.09505L3.22565 14.0027L4.96352 6.38859L12 3Z" stroke="black" stroke-width="1.5"/>
<path d="M9.07441 17.7387V16.2807H9.46591L9.47671 16.4859C9.54961 16.3104 9.69271 16.2429 9.86281 16.2429C10.1517 16.2429 10.3083 16.3941 10.3083 16.7721V17.7387H9.90601V16.9152C9.90601 16.6749 9.85471 16.5966 9.69271 16.5966C9.53071 16.5966 9.47671 16.7046 9.47671 16.9152V17.7387H9.07441Z" fill="black"/>
<path d="M10.5681 17.0043C10.5681 16.494 10.7895 16.2429 11.2377 16.2429C11.7156 16.2429 11.9046 16.4832 11.9046 17.007C11.9046 17.5308 11.7048 17.7684 11.235 17.7684C10.7571 17.7684 10.5681 17.5227 10.5681 17.0043ZM10.9812 17.0043V17.0151C10.9812 17.2905 11.046 17.4282 11.2377 17.4282C11.4267 17.4282 11.4915 17.3094 11.4915 17.0178V17.0043C11.4915 16.71 11.4429 16.5831 11.235 16.5831C11.0352 16.5831 10.9812 16.7154 10.9812 17.0043Z" fill="black"/>
<path d="M13.0715 17.7387L13.058 17.5065C12.9932 17.655 12.8879 17.7684 12.6422 17.7684C12.2831 17.7684 12.1211 17.5443 12.1211 17.0286C12.1211 16.5021 12.2777 16.2429 12.6665 16.2429C12.8879 16.2429 12.9905 16.3266 13.0499 16.4346V15.6867H13.4522V17.7387H13.0715ZM12.7961 17.4255C12.9824 17.4255 13.0526 17.2878 13.0499 17.0664V16.926C13.0499 16.7127 12.9824 16.5831 12.7988 16.5831C12.6098 16.5831 12.5396 16.6938 12.5396 17.0151C12.5396 17.3364 12.6395 17.4255 12.7961 17.4255Z" fill="black"/>
<path d="M14.9906 17.1096H14.1293C14.1401 17.3337 14.24 17.4336 14.4533 17.4336C14.6342 17.4336 14.8232 17.3607 14.9123 17.2716V17.6361C14.8502 17.6955 14.6558 17.7684 14.3912 17.7684C13.8971 17.7684 13.7243 17.5146 13.7243 16.9854C13.7243 16.4859 13.9619 16.2429 14.3777 16.2429C14.8421 16.2429 14.9906 16.5156 14.9906 16.9395V17.1096ZM14.3696 16.5642C14.2076 16.5642 14.1374 16.6641 14.1266 16.8693H14.5937C14.5937 16.6749 14.5424 16.5642 14.3696 16.5642Z" fill="black"/>
<path d="M11.9827 5.40003C11.8487 5.39661 8.15692 7.24894 8.11002 7.34463C7.99277 7.57019 7.15191 11.5243 7.20216 11.6098C7.22896 11.661 7.83531 12.4437 8.54552 13.3493L9.83863 15H14.0932L16.8 11.5517L16.3276 9.43278L15.8084 7.26944C15.7414 7.20793 12.053 5.40345 11.9827 5.40003ZM12.1703 6.32619L13.0413 6.58251L12.1703 6.84225L11.2992 6.58251L12.1703 6.32619ZM11.2992 6.68162L12.1133 6.93111L12.11 8.08625L11.2992 7.62829V6.68162ZM13.0413 6.68162V7.62829L12.2272 8.08625L12.2239 6.93111L13.0413 6.68162ZM10.9374 8.26055L11.8051 8.51687L10.9374 8.7766L10.0664 8.51687L10.9374 8.26055ZM13.0513 8.26055L13.9223 8.51687L13.0513 8.7766L12.1803 8.51687L13.0513 8.26055ZM10.0664 8.61597L10.8805 8.86204L10.8771 10.0172L10.0664 9.55923V8.61597ZM11.8051 8.61597V9.55923L10.9944 10.0172L10.991 8.86204L11.8051 8.61597ZM12.1803 8.61597L12.9944 8.86204L12.991 10.0172L12.1803 9.55923V8.61597ZM13.9223 8.61597V9.55923L13.1116 10.0172L13.1083 8.86204L13.9223 8.61597ZM10.6192 10.0958C10.8771 10.106 10.6761 10.3726 10.9709 10.5127C11.2858 10.6665 11.3495 10.2838 11.5472 10.5743C11.7448 10.8682 11.3696 10.793 11.3997 11.1484C11.4265 11.5004 11.785 11.3671 11.6343 11.6884C11.4835 12.0062 11.3595 11.6405 11.0748 11.8422C10.79 12.0438 11.0815 12.2899 10.7364 12.3206C10.388 12.348 10.6359 12.0541 10.3244 11.9037C10.0095 11.7499 9.94584 12.1327 9.74819 11.8388C9.55053 11.5483 9.92573 11.6235 9.89558 11.268C9.86878 10.916 9.51368 11.0493 9.66108 10.728C9.81183 10.4068 9.93578 10.7759 10.2205 10.5743C10.5086 10.3726 10.2138 10.1265 10.5622 10.0958C10.5823 10.0958 10.5991 10.0958 10.6192 10.0958ZM12.8537 10.4512C13.316 10.4649 12.8704 10.9058 13.2925 11.1006C13.7146 11.2919 13.7381 10.6563 14.0563 10.998C14.3746 11.3432 13.7515 11.333 13.9156 11.7738C14.0798 12.2147 14.5387 11.7807 14.5253 12.2557C14.5119 12.7273 14.0798 12.2694 13.8888 12.7C13.6979 13.1306 14.3243 13.1545 13.9893 13.4792C13.651 13.8039 13.661 13.1682 13.2289 13.3357C12.7967 13.5031 13.2222 13.9713 12.7565 13.9577C12.2942 13.944 12.7431 13.5031 12.321 13.3083C11.8989 13.1169 11.8721 13.7526 11.5539 13.4108C11.2356 13.0657 11.8621 13.0793 11.6979 12.6351C11.5304 12.1942 11.0714 12.6282 11.0848 12.1566C11.0982 11.6815 11.5338 12.1395 11.7214 11.7089C11.9123 11.2783 11.2858 11.2543 11.6242 10.9297C11.9592 10.605 11.9492 11.2407 12.3813 11.0732C12.8135 10.9058 12.3914 10.4375 12.8537 10.4512ZM10.6393 10.6973C10.3579 10.6973 10.1301 10.9297 10.1301 11.2168C10.1301 11.5038 10.3579 11.7362 10.6393 11.7362C10.9207 11.7362 11.1485 11.5038 11.1485 11.2168C11.1485 10.9297 10.9207 10.6973 10.6393 10.6973ZM12.8068 11.1689C12.244 11.1689 11.7884 11.6337 11.7884 12.2079C11.7884 12.7786 12.244 13.2434 12.8068 13.2434C13.3696 13.2434 13.8252 12.7786 13.8252 12.2079C13.8252 11.6337 13.3696 11.1689 12.8068 11.1689Z" fill="black"/>
</svg>
