<svg width="24" height="24" viewBox="0 0 24 24" fill="none" xmlns="http://www.w3.org/2000/svg">
<path d="M12 3L19.0365 6.38859L20.7744 14.0027L15.905 20.1087H8.09505L3.22565 14.0027L4.96352 6.38859L12 3Z" stroke="black" stroke-width="1.5"/>
<path d="M11.9805 6.59998C11.8297 6.59614 7.67654 8.68001 7.62378 8.78381C7.49187 9.04142 6.54591 13.4898 6.60244 13.586C6.63259 13.6436 7.31474 14.5241 8.11373 15.5429L9.56847 17.4H11.9617H14.3548L15.8774 15.4584L17.4 13.5206L16.8686 11.1368L16.2844 8.70692C14.8636 7.97257 13.4277 7.27282 11.9805 6.59998ZM12.233 8.77997C12.4328 8.78766 12.4554 9.09908 12.885 9.12984C13.4466 9.17598 13.3863 8.64156 13.8159 9.01066C14.2455 9.3836 13.7217 9.41052 13.8536 9.96801C13.9893 10.5255 14.4679 10.3025 14.2531 10.8369C14.042 11.3675 13.8536 10.8638 13.3712 11.1676C12.8925 11.4713 13.2506 11.8673 12.689 11.8212C12.1275 11.7789 12.5383 11.4444 12.1049 11.0715C11.6752 10.6985 11.4152 11.1676 11.2833 10.6101C11.1514 10.0487 11.5923 10.3448 11.8034 9.81037C12.0182 9.27979 11.5019 9.17214 11.9805 8.87224C12.0408 8.8338 12.0898 8.80688 12.135 8.79535C12.1727 8.77997 12.2029 8.77612 12.233 8.77612V8.77997ZM12.7946 9.40667C12.7116 9.40667 12.6325 9.41821 12.5534 9.44128C12.1237 9.57584 11.8787 10.0411 12.0069 10.4794C12.1388 10.9215 12.591 11.1676 13.0245 11.033C13.4541 10.9023 13.6991 10.4371 13.5672 9.99877C13.4654 9.64889 13.1526 9.41051 12.7946 9.40667ZM9.57224 10.8369C9.62501 10.8408 9.67776 10.8523 9.73053 10.8677C10.2468 11.0292 9.723 11.306 10.0923 11.7097C10.4579 12.1134 10.7669 11.5982 10.8875 12.1365C11.0081 12.6747 10.5107 12.3479 10.3524 12.8747C10.1941 13.4052 10.7858 13.4206 10.3901 13.7936C9.99434 14.1704 10.0207 13.5706 9.49686 13.6936C8.96923 13.8166 9.25189 14.3472 8.7318 14.1857C8.21548 14.0243 8.74311 13.7474 8.37377 13.3399C8.00443 12.9362 7.69538 13.4514 7.57478 12.9131C7.45418 12.3748 7.95166 12.7017 8.10995 12.1749C8.26824 11.6482 7.67654 11.6328 8.07226 11.256C8.46799 10.8792 8.44161 11.4829 8.96924 11.3598C9.42903 11.2522 9.27074 10.8331 9.57224 10.8369ZM13.4126 11.4136C13.4616 11.4175 13.5219 11.429 13.5973 11.4598C14.1928 11.6943 13.4089 12.0596 13.8687 12.5094C14.3322 12.9593 14.6526 12.1442 14.9126 12.7401C15.1689 13.336 14.3624 13.0285 14.3774 13.6782C14.3888 14.3318 15.184 13.9858 14.9541 14.5933C14.7204 15.2008 14.3661 14.401 13.9214 14.874C13.4805 15.343 14.2795 15.6737 13.6953 15.9351C13.1111 16.1966 13.4164 15.3738 12.7757 15.3892C12.135 15.4045 12.4742 16.2119 11.8787 15.9736C11.2795 15.739 12.0672 15.3738 11.6036 14.9239C11.1438 14.4741 10.8197 15.2892 10.5634 14.6932C10.3072 14.0973 11.1137 14.4049 11.0986 13.7551C11.0835 13.1015 10.2921 13.4475 10.522 12.8401C10.7556 12.2287 11.1099 13.0323 11.5546 12.5594C11.9956 12.0903 11.1966 11.7635 11.7807 11.4982C12.3649 11.2368 12.0634 12.0596 12.7003 12.0442C13.2581 12.0327 13.0697 11.4136 13.4126 11.4136ZM9.23306 11.6943C8.78457 11.6943 8.419 12.0673 8.419 12.5286C8.419 12.9862 8.78457 13.3591 9.23306 13.3591C9.68531 13.3591 10.0471 12.9862 10.0471 12.5286C10.0471 12.0673 9.68531 11.6982 9.23306 11.6943ZM12.738 12.4902C12.0747 12.4902 11.5358 13.04 11.5358 13.7167C11.5358 14.3934 12.0747 14.9432 12.738 14.9432C13.4013 14.9432 13.9403 14.3934 13.9403 13.7167C13.9403 13.04 13.4013 12.4902 12.738 12.4902Z" fill="black"/>
</svg>
