<svg width="24" height="24" viewBox="0 0 24 24" fill="none" xmlns="http://www.w3.org/2000/svg">
<path d="M12 3L19.0365 6.38859L20.7744 14.0027L15.905 20.1087H8.09505L3.22565 14.0027L4.96352 6.38859L12 3Z" stroke="black" stroke-width="1.5"/>
<path d="M7.38333 7.80008C7.27999 7.80008 7.2 7.88325 7.2 7.98305V8.33236H7.57333V8.16934H7.75666V7.80008H7.38333ZM8.13 7.80008V8.16934H8.87333V7.80008H8.13ZM9.24333 7.80008V8.16934H9.98667V7.80008H9.24333ZM10.36 7.80008V8.16934H11.1033V7.80008H10.36ZM11.4733 7.80008V8.16934H12.22V7.80008H11.4733ZM12.59 7.80008V8.16934H13.3333V7.80008H12.59ZM13.7033 7.80008V8.16934H14.4467V7.80008H13.7033ZM14.82 7.80008V8.16934H15.5633V7.80008H14.82ZM15.9333 7.80008V8.16934H16.7967V7.98305C16.7967 7.87992 16.7133 7.79676 16.6133 7.80008H15.9333ZM12.0967 8.37228L9.21 9.64973V11.5493C9.21 13.3124 10.44 14.9625 12.0967 15.3617C13.7533 14.9625 14.9867 13.3124 14.9867 11.5493V9.64973L12.0967 8.37228ZM16.4267 8.41884V9.1607H16.8V8.41884H16.4267ZM7.2 8.70162V9.44347H7.57333V8.70162H7.2ZM16.4267 9.53329V10.2751H16.8V9.53329H16.4267ZM12.1133 9.55658C12.7233 9.55658 13.2167 10.0456 13.2167 10.6477V10.9272H13.6267V13.4921H10.57V10.9272H11.0067V10.6477C11.0067 10.0456 11.5 9.55658 12.1133 9.55658ZM7.2 9.81606V10.5579H7.57333V9.81606H7.2ZM12.0967 9.96244C11.73 9.96244 11.4333 10.2585 11.4333 10.6178V10.8939H12.76V10.6145C12.7567 10.2552 12.46 9.96244 12.0967 9.96244ZM16.4267 10.6477V11.3896H16.8V10.6477H16.4267ZM7.2 10.9272V11.669H7.57333V10.9272H7.2ZM12.0433 11.6857C11.9167 11.6857 11.7967 11.7356 11.71 11.8221C11.62 11.9086 11.5733 12.0283 11.5733 12.1514C11.5733 12.2745 11.62 12.3943 11.71 12.4807C11.7967 12.5672 11.9167 12.6171 12.0433 12.6171C12.3 12.6171 12.5133 12.4076 12.5133 12.1514C12.5133 11.8919 12.3033 11.6857 12.0433 11.6857ZM16.4267 11.7588V12.5007H16.8V11.7588H16.4267ZM7.2 12.0416V12.7835H7.57333V12.0416H7.2ZM16.4267 12.87V13.6151H16.8V12.87H16.4267ZM7.2 13.1527V13.8946H7.57333V13.1527H7.2ZM16.4267 13.9844V14.7263H16.8V13.9844H16.4267ZM7.2 14.2672V15.009H7.57333V14.2672H7.2ZM16.4267 15.0955V15.8274H15.6733V16.2H16.4167C16.6333 16.2 16.8 16.047 16.8 15.8407V15.0955H16.4267ZM7.2 15.3783V16.0137C7.2 16.1168 7.28333 16.1967 7.38333 16.2H7.57333V15.3783H7.2ZM7.86666 15.8274V16.2H8.61V15.8274H7.86666ZM8.98 15.8274V16.2H9.72333V15.8274H8.98ZM10.0967 15.8274V16.2H10.84V15.8274H10.0967ZM11.21 15.8274V16.2H11.9533V15.8274H11.21ZM12.3233 15.8274V16.2H13.0667V15.8274H12.3233ZM13.44 15.8274V16.2H14.1833V15.8274H13.44ZM14.5533 15.8274V16.2H15.3V15.8274H14.5533Z" fill="black"/>
</svg>
