<svg width="24" height="24" viewBox="0 0 24 24" fill="none" xmlns="http://www.w3.org/2000/svg">
<path d="M12 3L19.0365 6.38859L20.7744 14.0027L15.905 20.1087H8.09505L3.22565 14.0027L4.96352 6.38859L12 3Z" stroke="black" stroke-width="1.5"/>
<path d="M12.0148 5.69678C11.888 5.69678 8.46338 7.34566 8.39996 7.4725C8.27313 7.66275 7.51211 11.2776 7.57552 11.341C7.57552 11.4044 8.14629 12.102 8.84389 12.9265L10.0488 14.4485H13.9808L16.5175 11.2776L16.0736 9.37505L15.5663 7.40908C14.3613 6.77489 13.2198 6.20413 12.0148 5.69678ZM12.2051 7.40908C12.3953 7.40908 12.3953 7.66275 12.7124 7.72617C13.1564 7.78959 13.0929 7.34566 13.4734 7.59933C13.854 7.91642 13.41 7.91642 13.4734 8.36035C13.6003 8.80428 13.9808 8.61403 13.7905 9.05796C13.6003 9.50189 13.4734 9.05796 13.0929 9.31163C12.7124 9.56531 12.9661 9.8824 12.5222 9.81898C12.0782 9.75556 12.3953 9.50189 12.0148 9.18479C11.6343 8.8677 11.4441 9.24821 11.3172 8.80428C11.1904 8.36035 11.5709 8.61403 11.7611 8.1701C11.9514 7.72617 11.5075 7.66275 11.888 7.40908C11.9514 7.40908 11.9514 7.34566 12.0148 7.34566C12.1417 7.40908 12.2051 7.40908 12.2051 7.40908ZM12.649 7.91642C12.5856 7.91642 12.5222 7.91642 12.4587 7.91642C12.0782 8.04326 11.888 8.42377 12.0148 8.74086C12.1417 9.12138 12.5222 9.31163 12.8393 9.18479C13.2198 9.05796 13.41 8.67745 13.2832 8.36035C13.2198 8.10668 12.9661 7.91642 12.649 7.91642ZM9.98543 9.05796C10.0488 9.05796 10.0488 9.05796 10.1123 9.05796C10.5562 9.18479 10.1123 9.43847 10.4294 9.75556C10.7464 10.0727 11.0001 9.69214 11.0635 10.0727C11.1904 10.5166 10.7464 10.2629 10.6196 10.6434C10.4928 11.0873 11.0001 11.0873 10.6196 11.4044C10.3025 11.7215 10.3025 11.2142 9.85859 11.341C9.41466 11.4679 9.66833 11.8484 9.2244 11.7215C8.78048 11.5947 9.2244 11.341 8.90731 11.0239C8.59022 10.7068 8.33655 11.0873 8.27313 10.7068C8.14629 10.2629 8.59022 10.5166 8.71706 10.1361C8.84389 9.69214 8.33655 9.69214 8.71706 9.37505C9.03415 9.05796 9.03415 9.5653 9.47808 9.43847C9.92201 9.43847 9.79517 9.05796 9.98543 9.05796ZM13.1564 9.56531C13.2198 9.56531 13.2198 9.56531 13.2832 9.62872C13.7905 9.81898 13.1564 10.1361 13.5369 10.4532C13.9174 10.8337 14.171 10.1361 14.4247 10.6434C14.615 11.1508 13.9808 10.8971 13.9808 11.4044C13.9808 11.9118 14.615 11.6581 14.4247 12.1655C14.2345 12.6728 13.9174 12.0386 13.6003 12.4191C13.2198 12.7996 13.9174 13.0533 13.41 13.2436C12.9027 13.4338 13.1564 12.7996 12.649 12.7996C12.1417 12.7996 12.3953 13.4338 11.888 13.2436C11.3806 13.0533 12.0148 12.7362 11.6343 12.4191C11.2538 12.0386 11.0001 12.7362 10.7464 12.2289C10.5562 11.7215 11.1904 11.9752 11.1904 11.4679C11.1904 10.9605 10.5562 11.2142 10.7464 10.7068C10.9367 10.1995 11.2538 10.8337 11.5709 10.4532C11.9514 10.0727 11.2538 9.81898 11.7611 9.56531C12.2685 9.37505 12.0148 10.0092 12.5222 10.0092C13.0295 10.0727 12.9027 9.56531 13.1564 9.56531ZM9.73175 9.75556C9.35124 9.75556 9.03415 10.0727 9.03415 10.4532C9.03415 10.8337 9.35124 11.1508 9.73175 11.1508C10.1123 11.1508 10.4294 10.8337 10.4294 10.4532C10.4294 10.0727 10.1123 9.75556 9.73175 9.75556ZM12.649 10.3897C12.0782 10.3897 11.6343 10.8337 11.6343 11.4044C11.6343 11.9752 12.0782 12.4191 12.649 12.4191C13.2198 12.4191 13.6637 11.9752 13.6637 11.4044C13.6003 10.8337 13.1564 10.3897 12.649 10.3897Z" fill="black"/>
<path d="M8.90483 15.7061V16.1747C8.78273 16.0856 8.63753 16.0097 8.43293 16.0097C8.27123 16.0097 8.23493 16.0526 8.23493 16.1516C8.23493 16.4288 9.00383 16.2011 9.00383 16.8941C9.00383 17.2736 8.85203 17.4848 8.30093 17.4848C8.16233 17.4848 7.94783 17.4518 7.76303 17.3726V16.8842C7.87523 16.9964 8.06993 17.0921 8.28773 17.0921C8.46593 17.0921 8.50223 17.036 8.50223 16.9238C8.50223 16.6466 7.73333 16.8479 7.73333 16.1714C7.73333 15.7985 7.90163 15.6203 8.41643 15.6203C8.56163 15.6203 8.74973 15.6533 8.90483 15.7061Z" fill="black"/>
<path d="M10.5998 15.7259V16.2143C10.4942 16.1285 10.3721 16.0592 10.1675 16.0592C9.89032 16.0592 9.77482 16.1813 9.77482 16.5377C9.77482 16.8908 9.88042 17.0459 10.2038 17.0459C10.3688 17.0459 10.5371 16.9799 10.6196 16.8974V17.3594C10.5305 17.4155 10.3721 17.4848 10.1114 17.4848C9.50092 17.4848 9.26662 17.2109 9.26662 16.5311C9.26662 15.9206 9.51742 15.6203 10.0949 15.6203C10.3622 15.6203 10.5041 15.6764 10.5998 15.7259Z" fill="black"/>
<path d="M10.973 17.4485V14.9405H11.4647V15.9173C11.5406 15.7259 11.7056 15.6203 11.9597 15.6203C12.3326 15.6203 12.4811 15.8249 12.4811 16.2803V17.4485H11.9894V16.3991C11.9894 16.1483 11.9234 16.0526 11.7353 16.0526C11.5307 16.0526 11.4647 16.1747 11.4647 16.4453V17.4485H10.973Z" fill="black"/>
<path d="M14.3464 16.6796H13.2937C13.3069 16.9535 13.429 17.0756 13.6897 17.0756C13.9108 17.0756 14.1418 16.9865 14.2507 16.8776V17.3231C14.1748 17.3957 13.9372 17.4848 13.6138 17.4848C13.0099 17.4848 12.7987 17.1746 12.7987 16.5278C12.7987 15.9173 13.0891 15.6203 13.5973 15.6203C14.1649 15.6203 14.3464 15.9536 14.3464 16.4717V16.6796ZM13.5874 16.013C13.3894 16.013 13.3036 16.1351 13.2904 16.3859H13.8613C13.8613 16.1483 13.7986 16.013 13.5874 16.013Z" fill="black"/>
<path d="M15.7617 17.4485L15.7452 17.1647C15.666 17.3462 15.5373 17.4848 15.237 17.4848C14.7981 17.4848 14.6001 17.2109 14.6001 16.5806C14.6001 15.9371 14.7915 15.6203 15.2667 15.6203C15.5373 15.6203 15.6627 15.7226 15.7353 15.8546V14.9405H16.227V17.4485H15.7617ZM15.4251 17.0657C15.6528 17.0657 15.7386 16.8974 15.7353 16.6268V16.4552C15.7353 16.1945 15.6528 16.0361 15.4284 16.0361C15.1974 16.0361 15.1116 16.1714 15.1116 16.5641C15.1116 16.9568 15.2337 17.0657 15.4251 17.0657Z" fill="black"/>
</svg>
