<svg width="24" height="24" viewBox="0 0 24 24" fill="none" xmlns="http://www.w3.org/2000/svg">
<path d="M12 3L19.0365 6.38859L20.7744 14.0027L15.905 20.1087H8.09505L3.22565 14.0027L4.96352 6.38859L12 3Z" stroke="black" stroke-width="1.5"/>
<path d="M9.79036 7.79999V9.89221H14.5065V7.79999H9.79036ZM10.3683 10.37L8.92727 11.8149L8.42251 11.3101L8.15665 12.3235L7.89079 13.333L8.89644 13.0594L9.90594 12.7859L9.40119 12.2811L10.8422 10.8439L10.3683 10.37ZM13.4778 10.37L13.0077 10.8439L14.4487 12.2811L13.944 12.7859L14.9535 13.0594L15.9591 13.333L15.6933 12.3235L15.4274 11.3101L14.9227 11.8149L13.4778 10.37ZM11.7285 10.5472L11.7169 11.9112L11.0041 11.9035L11.5165 12.8128L12.029 13.7222L12.5646 12.8244L13.0963 11.9228L12.3835 11.9151L12.395 10.5511L11.7285 10.5472ZM6.60001 13.9919V16.0841H9.57458V13.9919H6.60001ZM10.6612 13.9919V16.0841H13.6357V13.9919H10.6612ZM14.7223 13.9919V16.0841H17.6969V13.9919H14.7223Z" fill="black"/>
</svg>
