<svg width="24" height="24" viewBox="0 0 24 24" fill="none" xmlns="http://www.w3.org/2000/svg">
<path d="M12 3L19.0365 6.38859L20.7744 14.0027L15.905 20.1087H8.09505L3.22565 14.0027L4.96352 6.38859L12 3Z" stroke="black" stroke-width="1.5"/>
<path d="M11.9805 6.59998C11.8297 6.59614 7.67655 8.68001 7.62002 8.78382C7.49188 9.04142 6.54591 13.4898 6.60244 13.5859C6.63259 13.6436 7.31474 14.5241 8.11373 15.5429L9.56847 17.4H11.9617H14.3548L15.8774 15.4584L17.4 13.5206L16.8686 11.1368L16.2844 8.70692C16.2091 8.63003 12.0596 6.60383 11.9805 6.59998ZM13.7179 8.03793L13.8423 8.0956C14.4566 8.36858 14.9993 8.77228 15.4553 9.29517L15.5458 9.39898L15.4327 9.46819C15.1689 9.63351 14.9578 9.86805 14.8146 10.1449C15.1425 10.4717 15.4327 10.8292 15.689 11.206C15.7003 11.6712 15.6626 12.1326 15.5872 12.5902C15.8209 12.7055 16.0809 12.7709 16.3523 12.7709L16.488 12.767L16.6199 12.7555L16.6048 12.89C16.5407 13.5783 16.3297 14.2396 15.983 14.8317L15.9151 14.947L15.8134 14.8586C15.5797 14.6548 15.2933 14.5202 14.988 14.4664C14.792 14.8778 14.5546 15.27 14.2832 15.6352C13.8574 15.789 13.4126 15.9044 12.9528 15.9697C12.9114 16.2811 12.9453 16.6041 13.0659 16.9002L13.1149 17.027L12.9868 17.0578L11.9843 17.1693C11.6564 17.1693 11.321 17.1308 10.9855 17.0578L10.8536 17.027L10.9064 16.9002C11.0232 16.6079 11.0609 16.285 11.0157 15.9736C10.5634 15.9044 10.115 15.7929 9.68154 15.6391C9.41396 15.2738 9.17651 14.8816 8.97677 14.4664C8.67527 14.5202 8.39261 14.6586 8.15518 14.8624L8.05342 14.9508L7.98559 14.8317C7.63886 14.2319 7.43157 13.5783 7.3675 12.89L7.3562 12.7555L7.48811 12.767L7.62378 12.7709C7.88759 12.7709 8.14765 12.7093 8.38508 12.5902C8.30593 12.1326 8.27201 11.6636 8.28331 11.1983C8.53959 10.8177 8.83356 10.464 9.15768 10.141C9.01446 9.86805 8.80341 9.63736 8.54336 9.46819L8.4303 9.39898L8.51698 9.29517C8.96546 8.77997 9.52324 8.36474 10.13 8.0956L10.2544 8.04177L10.2845 8.1725C10.3599 8.48008 10.5107 8.76075 10.7217 8.98375C11.125 8.7646 11.5471 8.58389 11.9843 8.45317C12.4214 8.58773 12.8473 8.7646 13.2506 8.98375C13.4616 8.76075 13.6161 8.48008 13.6878 8.1725L13.7179 8.03793ZM11.9843 9.95263C11.5358 10.1295 11.1099 10.364 10.718 10.6562C10.3335 10.9407 9.98681 11.2752 9.68154 11.6636C9.70792 12.1595 9.79083 12.644 9.93782 13.1092C10.0848 13.5706 10.2921 14.0127 10.5521 14.4241C11.0195 14.5548 11.5019 14.6202 11.9843 14.6202C12.4667 14.6202 12.9491 14.5548 13.4164 14.4241C13.6727 14.0127 13.88 13.5706 14.027 13.1054C14.1739 12.644 14.2606 12.1634 14.287 11.6674C13.9817 11.2829 13.6312 10.9407 13.2468 10.6562C12.8586 10.3679 12.4327 10.1295 11.9843 9.95263ZM10.9893 11.4829C11.3247 11.4829 11.5961 11.7597 11.5961 12.098C11.5961 12.4402 11.3247 12.7132 10.9893 12.7132C10.6577 12.7132 10.3863 12.4402 10.3863 12.098C10.3863 11.7597 10.6577 11.4829 10.9893 11.4829ZM12.9792 11.4829C13.3147 11.4829 13.5822 11.7597 13.5822 12.098C13.5822 12.4402 13.3147 12.7132 12.9792 12.7132C12.8209 12.717 12.6664 12.6517 12.5534 12.5363C12.4403 12.421 12.3762 12.2633 12.3762 12.098C12.3762 11.9365 12.4403 11.7789 12.5534 11.6636C12.6664 11.5482 12.8209 11.4829 12.9792 11.4829Z" fill="black"/>
</svg>
