<svg width="24" height="24" viewBox="0 0 24 24" fill="none" xmlns="http://www.w3.org/2000/svg">
<path d="M12 3L19.0365 6.38859L20.7744 14.0027L15.905 20.1087H8.09505L3.22565 14.0027L4.96352 6.38859L12 3Z" stroke="black" stroke-width="1.5"/>
<path d="M14.0911 10.7187C12.2643 10.7262 10.7863 12.2042 10.7788 14.031C10.7863 15.8578 12.2643 17.3358 14.0911 17.3433C15.9179 17.3358 17.3959 15.8578 17.4034 14.031C17.3959 12.2042 15.9179 10.7262 14.0911 10.7187ZM15.4828 15.4227L13.761 14.3611V12.373H14.2561V14.0985L15.7491 14.9913L15.4828 15.4227ZM13.1233 6.59998V8.82066H15.404V6.59998H13.1233ZM13.1233 9.79221V10.3586C13.3971 10.2911 13.6747 10.2574 13.956 10.2574C14.4549 10.2574 14.9463 10.3624 15.404 10.5612V9.79221H13.1233ZM6.62251 9.82597V12.0429H8.89947V9.82597H6.62251ZM9.87103 9.82597V12.0429H10.8313C11.1539 11.5065 11.6078 11.0564 12.1517 10.745V9.82597H9.87103ZM6.60001 13.052V15.2689H8.88072V13.052H6.60001ZM9.86352 13.052V15.2689H10.5912C10.4112 14.8338 10.3174 14.3649 10.3174 13.8922C10.3174 13.6034 10.3549 13.3221 10.4224 13.052H9.86352Z" fill="black"/>
</svg>
