<svg width="24" height="24" viewBox="0 0 24 24" fill="none" xmlns="http://www.w3.org/2000/svg">
<path d="M12 3L19.0365 6.38859L20.7744 14.0027L15.905 20.1087H8.09505L3.22565 14.0027L4.96352 6.38859L12 3Z" stroke="black" stroke-width="1.5"/>
<path d="M7.63001 7.79999V8.23527H7.20001V9.18227H7.67668V8.27182H8.58001V7.79999H7.63001ZM9.05335 7.79999V8.27182H10.0067V7.79999H9.05335ZM10.4833 7.79999V8.27182H11.4333V7.79999H10.4833ZM11.91 7.79999V8.27182H12.86V7.79999H11.91ZM13.3367 7.79999V8.27182H14.2867V7.79999H13.3367ZM14.7633 7.79999V8.27182H15.7133V7.79999H14.7633ZM16.19 7.79999V8.27182H16.3233V8.61407H16.8V8.03591C16.8 7.90632 16.6933 7.79999 16.5633 7.79999H16.19ZM16.3233 9.0859V10.0362H16.8V9.0859H16.3233ZM7.20001 9.65742V10.6044H7.67668V9.65742H7.20001ZM16.3233 10.5081V11.455H16.8V10.5081H16.3233ZM7.20001 11.0796V12.0266H7.67668V11.0796H7.20001ZM16.3233 11.9302V12.8805H16.8V11.9302H16.3233ZM7.20001 12.5017V13.4487H7.67668V12.5017H7.20001ZM16.3233 13.3557V14.3027H16.8V13.3557H16.3233ZM7.20001 13.9239V14.8709H7.67668V13.9239H7.20001ZM16.3233 14.7778V15.7248H16.8V14.7778H16.3233ZM7.20001 15.346V15.9641C7.20001 16.0272 7.22668 16.087 7.27001 16.1335C7.31668 16.1767 7.37668 16.2 7.44001 16.2H7.77001V15.7281H7.67668V15.346H7.20001ZM8.24668 15.7281V16.2H9.19668V15.7281H8.24668ZM9.67001 15.7281V16.2H10.6233V15.7281H9.67001ZM11.0967 15.7281V16.2H12.05V15.7281H11.0967ZM12.5233 15.7281V16.2H13.4733V15.7281H12.5233ZM13.95 15.7281V16.2H14.9033V15.7281H13.95ZM15.3767 15.7281V16.2H16.3267V15.7281H15.3767Z" fill="black"/>
</svg>
