<svg width="24" height="24" viewBox="0 0 24 24" fill="none" xmlns="http://www.w3.org/2000/svg">
<path d="M18.8108 6.38859L11.7744 3L4.73787 6.38859L3 14.0027L7.8694 20.1087H15.6793L20.5487 14.0027L18.8108 6.38859Z" stroke="black" stroke-width="1.5"/>
<path d="M18.2519 13.0306C18.2313 13.0306 18.2107 13.0306 18.2107 13.0099C18.2107 12.9893 18.1695 12.9893 18.1282 12.9893C18.0458 12.9687 17.9633 12.9687 17.8808 12.9687C17.8396 12.9687 17.7983 12.9687 17.7571 12.9481H17.7365C17.5097 12.9275 17.2623 12.8862 17.0355 12.8244C16.9736 12.8038 16.9118 12.7419 16.8912 12.6801L16.7262 12.6388C16.8087 12.0409 16.7674 11.4223 16.6437 10.8244C16.4994 10.2265 16.252 9.64919 15.9221 9.13373L16.0458 9.01002V8.98941C16.0458 8.92755 16.0664 8.84508 16.1077 8.80384C16.2932 8.6389 16.4788 8.51519 16.685 8.39148C16.7262 8.37086 16.7674 8.35024 16.8087 8.32962C16.8912 8.28839 16.953 8.24715 17.0355 8.20592C17.0561 8.1853 17.0767 8.1853 17.0973 8.16468C17.118 8.14406 17.0973 8.14406 17.0973 8.12344C17.2829 7.97912 17.3241 7.7317 17.1798 7.54614C17.118 7.46366 16.9942 7.40181 16.8912 7.40181C16.7881 7.40181 16.685 7.44305 16.6025 7.5049L16.5819 7.52552C16.5613 7.54614 16.5406 7.56675 16.52 7.56675C16.4582 7.62861 16.3963 7.69046 16.3551 7.75232C16.3345 7.79355 16.2932 7.81417 16.2726 7.83479C16.1283 7.99973 15.9427 8.16468 15.7572 8.28839C15.7159 8.30901 15.6747 8.32962 15.6334 8.32962C15.6128 8.32962 15.5716 8.32962 15.551 8.30901H15.5304L15.3654 8.4121C15.2005 8.24715 15.0149 8.08221 14.85 7.91726C14.0871 7.31934 13.1387 6.94821 12.1696 6.84512L12.149 6.68017V6.70079C12.0871 6.65956 12.0665 6.5977 12.0459 6.53585C12.0459 6.30905 12.0459 6.08225 12.0871 5.83483V5.81421C12.0871 5.77298 12.1077 5.73174 12.1077 5.6905C12.1284 5.60803 12.1284 5.52556 12.149 5.44309V5.31938C12.1696 5.1132 12.0047 4.90701 11.7985 4.8864C11.6748 4.86578 11.5511 4.92763 11.448 5.03072C11.3655 5.1132 11.3243 5.21629 11.3243 5.31938V5.42247C11.3243 5.50494 11.3449 5.58741 11.3655 5.66989C11.3861 5.71112 11.3861 5.75236 11.3861 5.79359V5.81421C11.4273 6.04101 11.4273 6.26781 11.4273 6.51523C11.4067 6.57708 11.3861 6.63894 11.3243 6.68017V6.72141L11.3036 6.88636C11.0768 6.90697 10.85 6.94821 10.6026 6.98945C9.63357 7.19563 8.74699 7.71108 8.06659 8.43272L7.94288 8.35024H7.92226C7.90165 8.35024 7.88103 8.37086 7.83979 8.37086C7.79856 8.37086 7.75732 8.35024 7.71608 8.32962C7.53052 8.1853 7.34496 8.02035 7.20063 7.85541C7.18001 7.81417 7.13877 7.79355 7.11816 7.77294C7.0563 7.71108 7.01507 7.64923 6.95321 7.58737C6.93259 7.56675 6.91198 7.56675 6.89136 7.54614C6.87074 7.52552 6.87074 7.52552 6.87074 7.52552C6.78827 7.46366 6.68518 7.42243 6.58209 7.42243C6.45838 7.42243 6.35529 7.46366 6.29343 7.56675C6.16972 7.75232 6.21096 7.99973 6.3759 8.14406C6.39652 8.14406 6.39652 8.16468 6.39652 8.16468C6.39652 8.16468 6.43776 8.20592 6.45838 8.20592C6.52023 8.24715 6.6027 8.28839 6.68518 8.32962C6.72641 8.35024 6.76765 8.37086 6.80888 8.39148C7.01507 8.51519 7.22125 8.6389 7.38619 8.80384C7.42743 8.84508 7.46866 8.92755 7.44805 8.98941V8.96879L7.57176 9.0925C7.55114 9.13373 7.53052 9.15435 7.5099 9.19559C6.87074 10.2059 6.6027 11.4017 6.78827 12.577L6.62332 12.6182C6.62332 12.6388 6.6027 12.6388 6.6027 12.6388C6.58209 12.7007 6.52023 12.7419 6.45838 12.7831C6.23158 12.845 6.00478 12.8862 5.75736 12.9068C5.71612 12.9068 5.67489 12.9069 5.63365 12.9275C5.55118 12.9275 5.46871 12.9481 5.38623 12.9481C5.36562 12.9481 5.345 12.9687 5.30376 12.9687C5.28314 12.9687 5.28314 12.9687 5.26252 12.9893C5.03573 13.0306 4.8914 13.2367 4.93263 13.4635C4.97387 13.6491 5.15943 13.7728 5.345 13.7522C5.38623 13.7522 5.40685 13.7522 5.44809 13.7316C5.46871 13.7316 5.46871 13.7316 5.46871 13.711C5.46871 13.6903 5.53056 13.711 5.55118 13.711C5.63365 13.6903 5.71612 13.6491 5.77798 13.6285C5.81921 13.6079 5.86045 13.5872 5.90169 13.5872H5.9223C6.1491 13.5048 6.35529 13.4429 6.6027 13.4017H6.62332C6.68518 13.4017 6.74703 13.4223 6.78827 13.4635C6.80888 13.4635 6.80888 13.4842 6.80888 13.4842L6.99445 13.4635C7.30372 14.412 7.88103 15.2573 8.68513 15.8759C8.8707 16.0202 9.03564 16.1439 9.24182 16.247L9.13873 16.3913C9.13873 16.4119 9.15935 16.4119 9.15935 16.4119C9.20059 16.4738 9.20059 16.5563 9.17997 16.6181C9.0975 16.8243 8.97379 17.0305 8.85008 17.216V17.2367C8.82946 17.2779 8.80884 17.2985 8.76761 17.3397C8.72637 17.381 8.68513 17.4635 8.62328 17.5459C8.60266 17.5665 8.60266 17.5872 8.58204 17.6078C8.58204 17.6078 8.58204 17.6284 8.56143 17.6284C8.45834 17.8346 8.54081 18.082 8.72637 18.1851C8.76761 18.2057 8.82946 18.2263 8.8707 18.2263C9.03564 18.2263 9.17997 18.1232 9.26244 17.9789C9.26244 17.9789 9.26244 17.9583 9.28306 17.9583C9.28306 17.9377 9.30368 17.9171 9.3243 17.8964C9.34491 17.814 9.38615 17.7521 9.40677 17.6696L9.44801 17.5459C9.50986 17.3191 9.61295 17.1129 9.71604 16.9068C9.75728 16.8449 9.81913 16.8037 9.88099 16.7831C9.9016 16.7831 9.9016 16.7831 9.9016 16.7624L9.98408 16.5975C10.5614 16.8243 11.1593 16.9274 11.7779 16.9274C12.149 16.9274 12.5201 16.8862 12.8912 16.7831C13.118 16.7418 13.3448 16.6594 13.551 16.5975L13.6335 16.7418C13.6541 16.7418 13.6541 16.7418 13.6541 16.7624C13.716 16.7831 13.7778 16.8243 13.819 16.8862C13.9221 17.0923 14.0252 17.2985 14.0871 17.5253V17.5459L14.1283 17.6696C14.1489 17.7521 14.1696 17.8346 14.2108 17.8964C14.2314 17.9171 14.2314 17.9377 14.252 17.9583C14.252 17.9583 14.252 17.9789 14.2726 17.9789C14.3551 18.1232 14.4994 18.2263 14.6644 18.2263C14.7262 18.2263 14.7675 18.2057 14.8293 18.1851C14.9118 18.1439 14.9943 18.0614 15.0149 17.9583C15.0355 17.8552 15.0355 17.7521 14.9943 17.649C14.9943 17.6284 14.9737 17.6284 14.9737 17.6284C14.9737 17.6078 14.953 17.5872 14.9324 17.5665C14.8912 17.4841 14.85 17.4222 14.7881 17.3604C14.7675 17.3191 14.7469 17.2985 14.7056 17.2573V17.216C14.5613 17.0305 14.4582 16.8243 14.3757 16.6181C14.3551 16.5563 14.3551 16.4738 14.3964 16.4119C14.3964 16.3913 14.417 16.3913 14.417 16.3913L14.3551 16.2264C15.4066 15.5872 16.2108 14.5975 16.5819 13.4223L16.7468 13.4429C16.7674 13.4429 16.7674 13.4223 16.7674 13.4223C16.8087 13.3811 16.8705 13.3604 16.9324 13.3604H16.953C17.1798 13.4017 17.4066 13.4635 17.6128 13.546H17.6334C17.6746 13.5666 17.7159 13.5872 17.7571 13.5872C17.8396 13.6285 17.9014 13.6697 17.9839 13.6903C18.0045 13.6903 18.0251 13.711 18.0664 13.711C18.087 13.711 18.087 13.711 18.1076 13.7316C18.1489 13.7522 18.1695 13.7522 18.2107 13.7522C18.3963 13.7522 18.5612 13.6285 18.6231 13.4635C18.6025 13.2367 18.4375 13.0718 18.2519 13.0306ZM12.2933 12.3914L11.7366 12.6594L11.1799 12.3914L11.0356 11.7935L11.4273 11.2986H12.0459L12.4376 11.7935L12.2933 12.3914ZM15.6541 11.0512C15.7572 11.4842 15.7778 11.9172 15.7365 12.3502L13.7778 11.7935C13.5922 11.7522 13.4892 11.5667 13.5304 11.3811C13.551 11.3193 13.5716 11.278 13.6129 11.2368L15.1592 9.83475C15.386 10.2059 15.551 10.6182 15.6541 11.0512ZM14.5407 9.07188L12.85 10.2677C12.7057 10.3502 12.4995 10.3296 12.3964 10.1853C12.3552 10.144 12.3345 10.1028 12.3345 10.0409L12.2108 7.9585C13.118 8.06159 13.9221 8.45333 14.5407 9.07188ZM10.8088 8.02035L11.2212 7.93788L11.1181 9.99969C11.1181 10.1853 10.9531 10.3296 10.7676 10.3296C10.7057 10.3296 10.6645 10.309 10.6026 10.2883L8.89132 9.07188C9.42739 8.55642 10.0872 8.1853 10.8088 8.02035ZM8.29339 9.83475L9.81913 11.1955C9.96346 11.3193 9.98408 11.5254 9.86037 11.6698C9.81913 11.7316 9.7779 11.7522 9.69542 11.7729L7.69546 12.3502C7.63361 11.4842 7.83979 10.5976 8.29339 9.83475ZM7.94288 13.3192L9.98408 12.9687C10.149 12.9687 10.314 13.0718 10.3346 13.2367C10.3552 13.2986 10.3552 13.3811 10.314 13.4429L9.53048 15.3398C8.80884 14.8656 8.23154 14.1439 7.94288 13.3192ZM12.6232 15.8759C12.3345 15.9377 12.0459 15.979 11.7366 15.979C11.3036 15.979 10.85 15.8965 10.4377 15.7728L11.448 13.9378C11.5511 13.814 11.716 13.7728 11.8603 13.8553C11.9222 13.8965 11.9634 13.9378 12.0253 13.9996L13.0149 15.7934C12.8912 15.814 12.7675 15.8346 12.6232 15.8759ZM15.1386 14.0821C14.8293 14.5769 14.3964 15.0099 13.9015 15.3192L13.0974 13.3811C13.0562 13.2161 13.1387 13.0512 13.283 12.9893C13.3448 12.9687 13.4067 12.9481 13.4685 12.9481L15.5304 13.2986C15.4273 13.5872 15.3036 13.8553 15.1386 14.0821Z" fill="black"/>
</svg>
