<svg width="24" height="24" viewBox="0 0 24 24" fill="none" xmlns="http://www.w3.org/2000/svg">
<path d="M12 3L19.0365 6.38859L20.7744 14.0027L15.905 20.1087H8.09505L3.22565 14.0027L4.96352 6.38859L12 3Z" stroke="black" stroke-width="1.5"/>
<path d="M7.38333 7.79999C7.28333 7.79999 7.2 7.88319 7.2 7.98303V8.33248H7.57333V8.1694H7.75667V7.79999H7.38333ZM8.13 7.79999V8.1694H8.87333V7.79999H8.13ZM9.24333 7.79999V8.1694H9.98667V7.79999H9.24333ZM10.36 7.79999V8.1694H11.1033V7.79999H10.36ZM11.4733 7.79999V8.1694H12.22V7.79999H11.4733ZM12.59 7.79999V8.1694H13.3333V7.79999H12.59ZM13.7033 7.79999V8.1694H14.4467V7.79999H13.7033ZM14.82 7.79999V8.1694H15.5633V7.79999H14.82ZM15.9333 7.79999V8.1694H16.7967V7.98303C16.7967 7.87986 16.7133 7.79999 16.6133 7.79999H15.9333ZM16.4267 8.419V9.16116H16.7967V8.419H16.4267ZM7.2 8.70189V9.44405H7.57333V8.70189H7.2ZM16.4267 9.5339V10.2761H16.8V9.5339H16.4267ZM7.2 9.81679V10.5556H7.57333V9.81679H7.2ZM10.2067 10.2095C9.21333 10.2095 8.41 11.0116 8.41 12C8.41 12.4759 8.6 12.9318 8.93667 13.268C9.27333 13.6041 9.73 13.7905 10.2067 13.7905H11.64V13.1116H10.2067C9.59 13.1082 9.09333 12.6123 9.09333 12C9.09333 11.3876 9.59 10.8917 10.2067 10.8884H11.64V10.2095H10.2067ZM12.3567 10.2095V10.8884H13.7933C14.4067 10.8917 14.9033 11.3876 14.9067 12C14.9033 12.6123 14.4067 13.1082 13.7933 13.1116H12.3567V13.7905H13.7933C14.7833 13.7905 15.5867 12.9884 15.5867 12C15.5867 11.0116 14.7833 10.2095 13.7933 10.2095H12.3567ZM16.4267 10.6455V11.3876H16.8V10.6455H16.4267ZM7.2 10.9284V11.6705H7.57333V10.9284H7.2ZM10.5633 11.6406V12.3561H13.4367V11.6406H10.5633ZM16.4267 11.7604V12.5025H16.8V11.7604H16.4267ZM7.2 12.0433V12.7821H7.57333V12.0433H7.2ZM16.4267 12.8719V13.6141H16.8V12.8719H16.4267ZM7.2 13.1548V13.897H7.57333V13.1548H7.2ZM16.4267 13.9868V14.729H16.8V13.9868H16.4267ZM7.2 14.2664V15.0086H7.57333V14.2664H7.2ZM16.4267 15.0984V15.8306H15.6733V16.2H16.4167C16.6167 16.2 16.8 16.0502 16.8 15.8439V15.0984H16.4267ZM7.2 15.3813V16.0169C7.2 16.1168 7.28333 16.2 7.38333 16.2H7.57333V15.3813H7.2ZM7.86667 15.8306V16.2H8.61V15.8306H7.86667ZM8.98 15.8306V16.2H9.72333V15.8306H8.98ZM10.0967 15.8306V16.2H10.84V15.8306H10.0967ZM11.21 15.8306V16.2H11.9533V15.8306H11.21ZM12.3233 15.8306V16.2H13.0667V15.8306H12.3233ZM13.44 15.8306V16.2H14.1833V15.8306H13.44ZM14.5533 15.8306V16.2H15.3V15.8306H14.5533Z" fill="black"/>
</svg>
