<svg width="24" height="24" viewBox="0 0 24 24" fill="none" xmlns="http://www.w3.org/2000/svg">
<path d="M12 3L19.0365 6.38859L20.7744 14.0027L15.905 20.1087H8.09505L3.22565 14.0027L4.96352 6.38859L12 3Z" stroke="black" stroke-width="1.5"/>
<path d="M12.0188 7.20001L12.015 7.65487L12.525 7.65857L13.035 7.66966L13.5263 7.68445L13.83 7.70295L13.8525 7.25549L13.5488 7.23699L13.05 7.21851L12.5325 7.20742L12.0188 7.20001ZM11.4638 7.20742L10.95 7.21851L10.4513 7.23699L9.97501 7.26288L9.71626 7.28137L9.74625 7.72883L10.0013 7.71034L10.47 7.68815L10.965 7.66966L11.4713 7.65857L11.5575 7.65487V7.20742H11.4675H11.4638ZM14.3138 7.28137L14.28 7.72883L14.445 7.74362L14.8688 7.7806L15.2625 7.82128L15.6225 7.86935L15.9525 7.91742L16.0688 7.94331L16.155 7.49955L16.0313 7.47736L15.69 7.42189L15.3188 7.37382L14.9138 7.33315L14.4825 7.29246L14.3138 7.28137ZM9.25876 7.31465L9.09 7.32944L8.68501 7.37382L8.31376 7.41819L7.97625 7.47367L7.815 7.50325L7.66501 7.53284L7.52626 7.56242L7.41375 7.592L7.52626 8.02837L7.63126 8.00248L7.75876 7.97289L7.8975 7.94331L8.0475 7.91742L8.3775 7.86566L8.7375 7.82128L9.13126 7.7769L9.29626 7.76211L9.25876 7.31465ZM16.62 7.60309L16.4963 8.03576L16.5938 8.06165L16.6875 8.09123L16.7738 8.12082L16.8413 8.1504L16.875 8.16519L16.8413 8.17999L16.7738 8.20957L16.6875 8.23915L16.5938 8.26874L16.485 8.30202L16.3688 8.32791L16.2413 8.35749L16.0988 8.38337L15.9525 8.41295L15.6225 8.46473L15.4575 8.48692L15.5175 8.93068L15.6825 8.91219L16.0238 8.85672L16.185 8.82714L16.3313 8.79755L16.4738 8.76797L16.605 8.73469L16.725 8.7014L16.8338 8.66812L16.9388 8.63115L16.9463 9.23761H17.4V8.18738V8.1689L17.3963 8.12821C17.3963 8.11712 17.3925 8.10602 17.3888 8.09123L17.385 8.07274C17.3813 8.06165 17.3775 8.05056 17.37 8.03946L17.3625 8.02097C17.3588 8.00987 17.355 8.00248 17.3513 7.99139L17.3363 7.97659C17.3325 7.9655 17.325 7.95441 17.3138 7.94331L17.28 7.90633C17.2725 7.89893 17.265 7.88784 17.2538 7.88044L17.2088 7.84347C17.2013 7.83607 17.1938 7.83237 17.1863 7.82868L17.13 7.79169L17.04 7.74732L16.9463 7.70665L16.8413 7.66966L16.7288 7.63268L16.62 7.60309ZM6.9375 7.75841L6.88875 7.7806L6.81001 7.82868C6.80626 7.83237 6.79875 7.83607 6.79125 7.84347L6.74625 7.88044C6.735 7.88784 6.72376 7.89893 6.71626 7.90633L6.68251 7.94331C6.67501 7.95441 6.66751 7.9655 6.66001 7.97659L6.64876 7.99139C6.64126 8.00248 6.6375 8.00987 6.63375 8.02097L6.62626 8.03946C6.62251 8.05056 6.61876 8.06165 6.61501 8.07274L6.61126 8.09123C6.60751 8.10602 6.60375 8.11712 6.60375 8.12821L6.60001 8.1504V8.18738V9.88846H7.05751V8.63115L7.155 8.66443L7.26751 8.7014L7.39125 8.73469L7.5225 8.77166L7.66125 8.80125L7.81125 8.83083L7.96875 8.86042L8.16001 8.89L8.235 8.44625L8.0475 8.41666L7.90126 8.39077L7.75876 8.36119L7.63126 8.3316L7.51501 8.30572L7.40625 8.27244L7.3125 8.24285L7.22625 8.21327L7.15875 8.18368L7.125 8.1689L7.14375 8.15779L6.9375 7.75841ZM8.67751 8.50911L8.62125 8.95287L8.67751 8.96396L9.08251 9.00464L9.51375 9.04162L9.97125 9.0749L10.4513 9.09708L10.4625 9.10079L10.4813 8.64963H10.47L10.0013 8.62374L9.55126 8.59416L9.13126 8.55718L8.7375 8.5165L8.67751 8.50911ZM15.0075 8.54239L14.865 8.55718L14.445 8.59416L13.995 8.62374L13.5263 8.64963L13.2038 8.66072L13.2188 9.11188L13.545 9.09708L14.0213 9.0749L14.4788 9.04162L14.91 9.00464L15.06 8.98984L15.0075 8.54239ZM10.935 8.66443L10.92 9.11927H10.95L11.4638 9.12668L11.9963 9.13407L12.5288 9.12668L12.7613 9.12297L12.75 8.67552L12.525 8.67921L12 8.68291L11.475 8.67921L10.965 8.66812L10.935 8.66443ZM11.9963 9.59261C10.56 9.59261 9.26251 9.67397 8.31001 9.8108C7.83376 9.87736 7.44751 9.95872 7.16251 10.0586C7.02001 10.1066 6.90001 10.1547 6.80251 10.225C6.70126 10.2952 6.60375 10.4025 6.60375 10.5578V12.5584C6.60375 12.7174 6.70501 12.8247 6.80251 12.8912C6.90001 12.9615 7.02001 13.0096 7.16251 13.0613C7.30501 13.1094 7.4775 13.1538 7.67625 13.1982H7.66501L7.53 13.2277L7.41375 13.2573L7.52626 13.6937L7.63126 13.6678L7.76251 13.6382L7.90126 13.6123L8.0475 13.5865L8.3775 13.531L8.7375 13.4866L9.13126 13.4422L9.2925 13.4311V13.4163L11.9963 13.5236L14.6363 13.4237L14.8688 13.4422L15.2625 13.4866L15.6225 13.531L15.9488 13.5865L16.0613 13.6049L16.1325 13.2351C16.41 13.1834 16.6463 13.1242 16.8375 13.0613C16.98 13.0133 17.1 12.9652 17.1975 12.8949C17.295 12.8247 17.3963 12.7174 17.3963 12.5621V10.5578C17.3963 10.4838 17.3738 10.4173 17.34 10.3655L17.3513 10.347C17.355 10.3359 17.3588 10.3285 17.3625 10.3174L17.37 10.2989C17.3775 10.2878 17.3813 10.2767 17.385 10.2657L17.3888 10.2435C17.3925 10.2324 17.3963 10.2213 17.3963 10.2102V10.188V9.68877H16.9425V10.0955L16.8375 10.0549C16.5488 9.95872 16.1663 9.87736 15.69 9.8108C14.7375 9.67397 13.4363 9.59261 11.9963 9.59261ZM11.9963 10.0401C13.4175 10.0401 14.7038 10.1251 15.6225 10.2583L16.2375 10.3655L16.0988 10.3914L15.9525 10.4173L15.9338 10.421L15.9938 10.7982L15.6225 10.8573L15.5363 10.8684L15.4875 10.4838L15.2625 10.5134L14.865 10.5578L14.445 10.5948L13.995 10.6244L13.6838 10.6428L13.7063 11.0274L13.245 11.0459L13.2338 10.6613L13.035 10.665L12.525 10.6798L12 10.6835L11.475 10.6798L11.4188 10.6761L11.4113 11.0644L10.9538 11.057L10.9613 10.6687L10.4738 10.6502L10.0013 10.6244L9.55126 10.5948L9.15376 10.5578L9.12001 10.9461L8.65875 10.8943L8.71126 10.5134L8.3775 10.469L8.0475 10.4173L7.90126 10.3914L7.76251 10.3655L8.3775 10.2583C9.29625 10.1251 10.5788 10.0401 12 10.0401H11.9963ZM16.6125 13.2647L16.485 13.6974L16.5938 13.7233L16.6875 13.7566L16.77 13.7861L16.8413 13.8157L16.8713 13.8305L16.8413 13.8453L16.77 13.8749L16.6875 13.9045L16.5938 13.9341L16.485 13.9636L16.3688 13.9932L16.2413 14.0228L16.0988 14.0487L15.9488 14.0783L15.6225 14.1264L15.4575 14.1485L15.5175 14.596L15.6825 14.5738L16.0238 14.522L16.185 14.4925L16.3313 14.4629L16.4738 14.4333L16.6013 14.4L16.7213 14.3667L16.8338 14.3297L16.935 14.2965L16.9425 14.8918H17.4V13.849V13.8268L17.3963 13.7898C17.3963 13.7787 17.3925 13.764 17.3888 13.7529L17.385 13.7344C17.3813 13.7233 17.3775 13.7122 17.3738 13.7011L17.3625 13.6826C17.3588 13.6715 17.355 13.6641 17.3475 13.653L17.3363 13.6345C17.3325 13.6234 17.3213 13.6123 17.3138 13.6049L17.2838 13.568C17.2725 13.5569 17.265 13.5495 17.2538 13.5421L17.2088 13.5051C17.2013 13.5014 17.1938 13.4977 17.1825 13.494L17.13 13.457L17.1075 13.4459L17.04 13.4126L16.9463 13.3683L16.8375 13.335L16.7288 13.298L16.6125 13.2647ZM6.93375 13.4237L6.88875 13.4459L6.81001 13.494C6.80251 13.4977 6.79876 13.5014 6.78751 13.5051L6.74251 13.5458C6.73501 13.5532 6.72376 13.5606 6.71626 13.568L6.68251 13.6049C6.67501 13.616 6.66751 13.6271 6.66001 13.6382L6.64876 13.6567C6.64126 13.6678 6.6375 13.6752 6.63375 13.6863L6.62626 13.7048C6.62251 13.7159 6.61501 13.7233 6.61501 13.7344L6.6075 13.7566C6.60375 13.7677 6.60375 13.7787 6.60375 13.7935L6.60001 13.812V13.8305V15.5649H7.05751V14.2965L7.155 14.3297L7.26751 14.3667L7.39125 14.4037L7.5225 14.4333L7.66125 14.4666L7.81125 14.4962L7.96875 14.522L8.1675 14.5516L8.23876 14.1116L8.0475 14.082L7.90126 14.0524L7.76251 14.0265L7.635 13.9969L7.51501 13.9673L7.40625 13.9378L7.3125 13.9082L7.23 13.8786L7.15875 13.849L7.12876 13.8342L7.14375 13.8231L6.93375 13.4237ZM8.68501 14.1744L8.625 14.6182L8.68125 14.6256L9.08251 14.67L9.51375 14.7069L9.97125 14.7402L10.4513 14.7624H10.4663L10.485 14.315H10.4738L9.99751 14.2891L9.55126 14.2595L9.13126 14.2225L8.7375 14.1781L8.68501 14.1744ZM15.0113 14.2077L14.8688 14.2225L14.445 14.2595L13.9988 14.2891L13.5263 14.315L13.2038 14.3261L13.2225 14.7735L13.545 14.7624L14.025 14.7402L14.4788 14.7069L14.91 14.67L15.06 14.6552L15.0113 14.2077ZM10.9388 14.3297L10.9238 14.7809H10.9463L11.4675 14.7957L11.9963 14.7994L12.5288 14.7957L12.7613 14.7883L12.75 14.3371L12.525 14.3408L12 14.3482L11.475 14.3408L10.965 14.3297H10.9388ZM16.9388 15.3467V15.7905L16.9313 15.8015L16.8938 15.8237L16.8375 15.8496L16.77 15.8792L16.6875 15.9088L16.5938 15.9384L16.485 15.968L16.3688 15.9975L16.2375 16.0234L16.0988 16.053L15.9488 16.0789L15.9413 16.0826L16.0125 16.5264L16.0238 16.5227L16.1813 16.4931L16.3313 16.4635L16.47 16.4339L16.6013 16.4006L16.7213 16.3673L16.8338 16.3341L16.935 16.2971L17.025 16.2564L17.1113 16.2194L17.13 16.2083L17.1863 16.1713C17.1938 16.1677 17.2013 16.1603 17.2088 16.1566L17.2538 16.1196C17.265 16.1122 17.2763 16.1011 17.2838 16.0937L17.3138 16.0567C17.3213 16.0456 17.3325 16.0345 17.34 16.0271L17.3513 16.0049C17.355 15.9975 17.3588 15.9865 17.3625 15.9791L17.3738 15.9606C17.3775 15.9495 17.3813 15.9384 17.385 15.9273L17.3888 15.9088C17.3925 15.894 17.3963 15.8829 17.3963 15.8718L17.4 15.8496V15.343L16.9388 15.3467ZM7.0725 15.8053L6.78375 16.1529L6.79125 16.1566C6.79875 16.1639 6.80626 16.1677 6.81376 16.1713L6.87001 16.2083L6.96 16.2527L7.05375 16.2971L7.155 16.3304L7.26751 16.3673L7.39125 16.4006L7.5225 16.4376L7.66125 16.4672L7.81125 16.4968L7.96875 16.5264L8.31001 16.5818L8.66251 16.6262L8.72251 16.1787L8.3775 16.1344L8.0475 16.0826L7.90126 16.0567L7.75876 16.0271L7.63126 16.0012L7.51501 15.9717L7.40625 15.9384L7.30875 15.9088L7.22625 15.8792L7.15875 15.8496L7.1025 15.8237L7.0725 15.8053ZM15.4988 16.1492L15.2625 16.1824L14.8688 16.2231L14.445 16.2601L13.9988 16.2897L13.695 16.3045L13.7213 16.7556L14.025 16.7408L14.4788 16.7076L14.91 16.6706L15.315 16.6262L15.5588 16.5966L15.4988 16.1492ZM9.16501 16.2268L9.12375 16.6743L9.51375 16.7076L9.97125 16.7408L10.4513 16.763L10.9463 16.7852H10.965L10.9725 16.3341H10.965L10.4738 16.3156L9.99751 16.2897L9.55126 16.2601L9.16501 16.2268ZM13.245 16.3267L13.035 16.3341L12.525 16.3452L11.9963 16.3489L11.475 16.3452H11.43L11.4188 16.7926H11.4638L11.9963 16.8L12.5288 16.7926L13.0463 16.7815L13.26 16.7741L13.245 16.3267Z" fill="black"/>
</svg>
