<svg width="24" height="24" viewBox="0 0 24 24" fill="none" xmlns="http://www.w3.org/2000/svg">
<path d="M12 3L19.0365 6.38859L20.7744 14.0027L15.905 20.1087H8.09505L3.22565 14.0027L4.96352 6.38859L12 3Z" stroke="black" stroke-width="1.5"/>
<path d="M15.8641 17.5516C15.9181 17.5516 15.9559 17.53 15.9721 17.4058L15.4483 15.9424H15.8965L16.153 16.8901L16.3528 15.9424H16.7632L16.3663 17.3626C16.2394 17.8162 16.1314 17.908 15.9073 17.908C15.8371 17.908 15.7426 17.8945 15.6967 17.8729L15.6994 17.503C15.7399 17.53 15.7993 17.5516 15.8641 17.5516Z" fill="black"/>
<path d="M14.006 17.4004L14.3948 16.6471L14.0384 15.9424H14.4812L14.6837 16.3798L14.8943 15.9424H15.329L14.9591 16.639L15.3479 17.4004H14.8997L14.6675 16.9171L14.4434 17.4004H14.006Z" fill="black"/>
<path d="M12.5705 16.666C12.5705 16.1557 12.792 15.9046 13.2402 15.9046C13.7181 15.9046 13.9071 16.1449 13.9071 16.6687C13.9071 17.1925 13.7073 17.4301 13.2375 17.4301C12.7596 17.4301 12.5705 17.1844 12.5705 16.666ZM12.9837 16.666V16.6768C12.9837 16.9522 13.0485 17.0899 13.2402 17.0899C13.4292 17.0899 13.494 16.9711 13.494 16.6795V16.666C13.494 16.3717 13.4454 16.2448 13.2375 16.2448C13.0377 16.2448 12.9837 16.3771 12.9837 16.666Z" fill="black"/>
<path d="M11.5304 17.4004V15.9424H11.9057L11.9192 16.1584C11.984 15.9802 12.0974 15.9046 12.2513 15.9046C12.2999 15.9046 12.3431 15.9127 12.389 15.9208V16.3501C12.3431 16.3042 12.2783 16.2745 12.173 16.2745C11.9975 16.2745 11.9327 16.3852 11.9327 16.6201V17.4004H11.5304Z" fill="black"/>
<path d="M9.92725 17.8864V15.9424H10.308L10.3215 16.1584C10.3917 16.0045 10.5132 15.9046 10.74 15.9046C11.1126 15.9046 11.2584 16.1179 11.2584 16.6471C11.2584 17.1817 11.1072 17.4301 10.713 17.4301C10.4862 17.4301 10.3836 17.3167 10.3296 17.2168V17.8864H9.92725ZM10.3296 16.7281C10.3296 16.9522 10.3971 17.0872 10.5861 17.0872C10.7778 17.0872 10.8372 16.9603 10.8372 16.6525C10.8372 16.3609 10.767 16.2475 10.5834 16.2475C10.3998 16.2475 10.3296 16.3798 10.3296 16.6039V16.7281Z" fill="black"/>
<path d="M8.81017 16.7929V16.4689H9.56077V16.7929H8.81017Z" fill="black"/>
<path d="M7.30372 15.3484H7.70602V16.4608H7.80862L8.08132 15.9424H8.52952L8.12992 16.6255L8.56462 17.4004H8.11102L7.81402 16.8199H7.70602V17.4004H7.30372V15.3484Z" fill="black"/>
<path d="M11.9827 5.40003C11.8487 5.39661 8.15692 7.24894 8.11002 7.34463C7.99277 7.57019 7.15191 11.5243 7.20216 11.6098C7.22896 11.661 7.83532 12.4437 8.54552 13.3493L9.83864 15H14.0932L16.8 11.5517L16.3277 9.43278L15.8084 7.26944C15.7414 7.20793 12.053 5.40345 11.9827 5.40003ZM12.1703 6.32619L13.0413 6.58251L12.1703 6.84225L11.2993 6.58251L12.1703 6.32619ZM11.2993 6.68162L12.1133 6.93111L12.11 8.08625L11.2993 7.62829V6.68162ZM13.0413 6.68162V7.62829L12.2272 8.08625L12.2239 6.93111L13.0413 6.68162ZM10.9374 8.26055L11.8051 8.51687L10.9374 8.7766L10.0664 8.51687L10.9374 8.26055ZM13.0513 8.26055L13.9223 8.51687L13.0513 8.7766L12.1803 8.51687L13.0513 8.26055ZM10.0664 8.61597L10.8805 8.86204L10.8771 10.0172L10.0664 9.55923V8.61597ZM11.8051 8.61597V9.55923L10.9944 10.0172L10.991 8.86204L11.8051 8.61597ZM12.1803 8.61597L12.9944 8.86204L12.991 10.0172L12.1803 9.55923V8.61597ZM13.9223 8.61597V9.55923L13.1116 10.0172L13.1083 8.86204L13.9223 8.61597ZM10.6192 10.0958C10.8771 10.106 10.6761 10.3726 10.9709 10.5127C11.2859 10.6665 11.3495 10.2838 11.5472 10.5743C11.7448 10.8682 11.3696 10.793 11.3998 11.1484C11.4266 11.5004 11.785 11.3671 11.6343 11.6884C11.4835 12.0062 11.3596 11.6405 11.0748 11.8422C10.79 12.0438 11.0815 12.2899 10.7364 12.3206C10.388 12.348 10.6359 12.0541 10.3244 11.9037C10.0095 11.7499 9.94584 12.1327 9.74819 11.8388C9.55054 11.5483 9.92574 11.6235 9.89559 11.268C9.86879 10.916 9.51368 11.0493 9.66109 10.728C9.81184 10.4068 9.93579 10.7759 10.2205 10.5743C10.5086 10.3726 10.2138 10.1265 10.5622 10.0958C10.5823 10.0958 10.5991 10.0958 10.6192 10.0958ZM12.8537 10.4512C13.316 10.4649 12.8704 10.9058 13.2925 11.1006C13.7146 11.2919 13.7381 10.6563 14.0563 10.998C14.3746 11.3432 13.7515 11.333 13.9156 11.7738C14.0798 12.2147 14.5387 11.7807 14.5253 12.2557C14.5119 12.7273 14.0798 12.2694 13.8888 12.7C13.6979 13.1306 14.3243 13.1545 13.9893 13.4792C13.651 13.8039 13.661 13.1682 13.2289 13.3357C12.7967 13.5031 13.2222 13.9713 12.7565 13.9577C12.2942 13.944 12.7431 13.5031 12.321 13.3083C11.8989 13.1169 11.8721 13.7526 11.5539 13.4108C11.2356 13.0657 11.8621 13.0793 11.6979 12.6351C11.5304 12.1942 11.0714 12.6282 11.0848 12.1566C11.0982 11.6815 11.5338 12.1395 11.7214 11.7089C11.9123 11.2783 11.2859 11.2543 11.6242 10.9297C11.9592 10.605 11.9492 11.2407 12.3813 11.0732C12.8135 10.9058 12.3914 10.4375 12.8537 10.4512ZM10.6393 10.6973C10.3579 10.6973 10.1301 10.9297 10.1301 11.2168C10.1301 11.5038 10.3579 11.7362 10.6393 11.7362C10.9207 11.7362 11.1485 11.5038 11.1485 11.2168C11.1485 10.9297 10.9207 10.6973 10.6393 10.6973ZM12.8068 11.1689C12.244 11.1689 11.7884 11.6337 11.7884 12.2079C11.7884 12.7786 12.244 13.2434 12.8068 13.2434C13.3696 13.2434 13.8252 12.7786 13.8252 12.2079C13.8252 11.6337 13.3696 11.1689 12.8068 11.1689Z" fill="black"/>
</svg>
