<svg width="24" height="24" viewBox="0 0 24 24" fill="none" xmlns="http://www.w3.org/2000/svg">
<path d="M12 3L19.0365 6.38859L20.7744 14.0027L15.905 20.1087H8.09505L3.22565 14.0027L4.96352 6.38859L12 3Z" stroke="black" stroke-width="1.5"/>
<path d="M8.07333 7.20001C7.59 7.20001 7.2 7.60726 7.2 8.11546V15.8846C7.2 16.3928 7.59 16.8 8.07667 16.8H15.9233C16.41 16.8 16.8 16.3928 16.8 15.8846V8.11546C16.8 7.60726 16.41 7.20001 15.9233 7.20001H8.07333ZM10.72 9.66093C11.25 9.66093 11.6767 10.1099 11.6767 10.6634C11.6767 11.2203 11.25 11.6659 10.72 11.6659C10.19 11.6659 9.76 11.2168 9.76 10.6634C9.76 10.3989 9.85999 10.1448 10.04 9.95679C10.22 9.76883 10.4667 9.66093 10.72 9.66093ZM13.28 9.66093C13.81 9.66093 14.2367 10.1099 14.2367 10.6634C14.2367 11.2203 13.81 11.6659 13.28 11.6659C12.7467 11.6659 12.32 11.2168 12.32 10.6634C12.32 10.3989 12.42 10.1448 12.6 9.95679C12.78 9.76883 13.0233 9.66093 13.28 9.66093ZM10.72 12.3342C11.4633 12.3342 12.96 12.724 12.96 13.5002V14.3356H8.48V13.5037C8.48 12.724 9.97666 12.3342 10.72 12.3342ZM13.28 12.3342C14.0233 12.3342 15.5167 12.724 15.5167 13.5002V14.3356H13.5967V13.5037C13.5967 13.0094 13.34 12.63 12.9667 12.3516L13.28 12.3342Z" fill="black"/>
</svg>
