<svg width="24" height="24" viewBox="0 0 24 24" fill="none" xmlns="http://www.w3.org/2000/svg">
<path d="M12 3L19.0365 6.38859L20.7744 14.0027L15.905 20.1087H8.09505L3.22565 14.0027L4.96352 6.38859L12 3Z" stroke="black" stroke-width="1.5"/>
<path d="M9.97934 6C9.76669 6.07875 9.55037 6.16125 9.33772 6.24375L8.68142 6.5025C8.66676 6.50625 8.65211 6.5175 8.65211 6.525C8.65211 6.5325 8.72176 6.72375 8.80609 6.94875L8.9564 7.3725C8.95273 7.38375 8.87576 7.42125 8.72177 7.48125L8.49445 7.5825C9.01875 7.83375 9.54669 8.07375 10.0783 8.30625C10.0967 8.3025 10.1737 8.13375 10.4523 7.49625L10.8006 6.67875L10.3203 6.84C10.313 6.83625 10.236 6.64875 10.1517 6.41625L9.97934 6ZM12.0032 8.13C9.92433 8.13 8.09115 9.4875 7.43853 11.505C7.19655 12.2438 7.13787 13.0725 7.2662 13.86C7.44585 14.9588 7.99214 15.9675 8.82075 16.7213L8.91241 16.8C9.07739 16.635 9.24239 16.47 9.40371 16.3013L9.90234 15.7763C9.928 15.6975 9.86568 15.555 9.74836 15.435C9.6347 15.315 9.5027 15.2513 9.41837 15.2775C9.39637 15.285 9.30106 15.375 9.15807 15.525L8.91241 15.7575C8.89041 15.7575 8.77309 15.6075 8.64477 15.4238C8.35879 15 8.1498 14.5237 8.02881 14.0212C7.99582 13.8825 7.95547 13.6463 7.94814 13.5563C7.95547 13.53 7.97749 13.515 8.01049 13.5075L8.29645 13.5037C8.67409 13.5037 8.69243 13.5 8.7401 13.4438C8.78409 13.3838 8.80976 13.2937 8.81343 13.1662C8.82076 13.0275 8.80242 12.9337 8.75842 12.8512C8.71076 12.7687 8.71077 12.7687 8.31113 12.7687L7.95915 12.7613C7.94449 12.7575 7.93715 12.7538 7.92981 12.75C7.92615 12.7313 7.92982 12.69 7.94082 12.5775C7.96282 12.375 7.99948 12.1687 8.05081 11.97L8.06547 11.925L8.13146 11.7037C8.24145 11.3625 8.39911 11.0363 8.59343 10.7363C8.66309 10.6238 8.78775 10.4587 8.82075 10.425C8.83908 10.4325 8.85742 10.4437 8.87208 10.4587L9.12873 10.71L9.41105 10.9987L9.46971 10.995C9.63836 10.9763 9.85101 10.7738 9.89867 10.5938C9.906 10.56 9.90967 10.5187 9.90601 10.5037C9.90234 10.4775 9.82536 10.3912 9.61637 10.1775C9.35972 9.915 9.33404 9.885 9.34871 9.86625C9.39637 9.80625 9.69701 9.58499 9.895 9.46124C10.3826 9.15749 11.0426 8.92875 11.5485 8.89125L11.6365 8.88375L11.6402 9.315L11.6439 9.74249L11.6585 9.7575V9.76875L11.6806 9.77625L11.6915 9.78375C11.8199 9.9075 12.1718 9.91125 12.3075 9.79125L12.3515 9.75374L12.3552 9.3225L12.3588 9.03L12.3662 8.89125H12.4468C12.5531 8.895 12.8098 8.94 13.0078 8.98875C13.5688 9.135 14.1004 9.405 14.5513 9.78L14.6247 9.84375C14.6393 9.8775 14.6283 9.9075 14.6027 9.94875L14.3754 10.185L14.0967 10.4737V10.5375C14.1004 10.7288 14.3534 10.9875 14.5403 10.9875L14.6027 10.9913L14.8813 10.7025L15.1746 10.4175C15.1783 10.4175 15.226 10.4737 15.2736 10.5412C15.6513 11.0625 15.9079 11.6663 16.0216 12.3075C16.0582 12.5213 16.0802 12.7387 16.0656 12.7575C16.0546 12.7687 15.9886 12.7725 15.6879 12.7725H15.3213L15.2883 12.7988C15.2186 12.8588 15.1673 13.0463 15.182 13.1925C15.193 13.3088 15.226 13.3988 15.2736 13.4513L15.3029 13.485L15.3103 13.4962H15.3139L15.3176 13.5H15.6879C16.0546 13.5038 16.0546 13.5038 16.0546 13.5263C16.0399 13.6725 16.0179 13.8188 15.9849 13.9575C15.8676 14.4938 15.6476 15 15.3396 15.4463L15.1233 15.7312C15.1013 15.7425 15.0793 15.7425 15.0573 15.735L14.8446 15.525C14.588 15.2588 14.577 15.255 14.478 15.285C14.302 15.3375 14.1077 15.555 14.093 15.72L14.0857 15.78L14.5147 16.2263L15.094 16.7925H15.0976L15.1013 16.7888C15.149 16.7588 15.4093 16.5037 15.5229 16.3762C15.8492 16.0125 16.0912 15.6525 16.3002 15.225C16.8098 14.175 16.9345 12.9712 16.6522 11.82C16.4175 10.8787 15.8896 10.0012 15.1636 9.34875C14.291 8.565 13.1654 8.13375 12.0032 8.13375V8.13ZM11.0939 10.1588C10.9033 10.1588 10.6906 10.2712 10.6283 10.4025C10.6063 10.4437 10.6063 10.455 10.6173 10.4925C10.7603 10.8787 10.9033 11.265 11.0536 11.6513L11.4752 12.7613L11.4386 12.8438C11.3139 13.0988 11.3579 13.3837 11.5559 13.5862C11.7245 13.7625 11.9739 13.8225 12.2012 13.7438C12.2562 13.7213 12.3075 13.695 12.3552 13.6613C12.5018 13.56 12.5971 13.3987 12.6228 13.2225C12.6448 13.0425 12.5971 12.8625 12.4871 12.7238C12.4102 12.6263 12.3295 12.5738 12.1682 12.5063C12.1425 12.495 12.0948 12.3713 11.7135 11.37L11.2699 10.2188C11.2442 10.1738 11.1929 10.155 11.0939 10.1588Z" fill="black"/>
</svg>
