<svg width="24" height="24" viewBox="0 0 24 24" fill="none" xmlns="http://www.w3.org/2000/svg">
<path d="M12 3L19.0365 6.38859L20.7744 14.0027L15.905 20.1087H8.09505L3.22565 14.0027L4.96352 6.38859L12 3Z" stroke="black" stroke-width="1.5"/>
<path d="M7.36465 15.3857H7.76695V16.4981H7.86955L8.14225 15.9797H8.59045L8.19085 16.6628L8.62555 17.4377H8.17195L7.87495 16.8572H7.76695V17.4377H7.36465V15.3857Z" fill="black"/>
<path d="M9.6649 17.4377L9.6514 17.2217C9.5677 17.3918 9.4462 17.4674 9.2464 17.4674C8.9548 17.4674 8.8252 17.3027 8.8252 16.922V15.9797H9.2275V16.8221C9.2275 17.0327 9.2815 17.111 9.4354 17.111C9.5866 17.111 9.6541 17.0192 9.6541 16.8005V15.9797H10.0564V17.4377H9.6649Z" fill="black"/>
<path d="M10.3863 17.4377V15.3857H10.7886V16.1849C10.848 16.0499 10.9722 15.9419 11.2017 15.9419C11.5527 15.9419 11.7174 16.1363 11.7174 16.6763C11.7174 17.2271 11.5527 17.4674 11.1855 17.4674C10.9425 17.4674 10.8345 17.3729 10.7805 17.2541L10.7697 17.4377H10.3863ZM10.7886 16.6439V16.7654C10.7886 17.0057 10.8696 17.1245 11.0478 17.1245C11.2179 17.1245 11.2962 17.003 11.2962 16.6898C11.2962 16.3631 11.199 16.2848 11.0478 16.2848C10.8642 16.2848 10.7886 16.4171 10.7886 16.6439Z" fill="black"/>
<path d="M13.1991 16.8086H12.3378C12.3486 17.0327 12.4485 17.1326 12.6618 17.1326C12.8427 17.1326 13.0317 17.0597 13.1208 16.9706V17.3351C13.0587 17.3945 12.8643 17.4674 12.5997 17.4674C12.1056 17.4674 11.9328 17.2136 11.9328 16.6844C11.9328 16.1849 12.1704 15.9419 12.5862 15.9419C13.0506 15.9419 13.1991 16.2146 13.1991 16.6385V16.8086ZM12.5781 16.2632C12.4161 16.2632 12.3459 16.3631 12.3351 16.5683H12.8022C12.8022 16.3739 12.7509 16.2632 12.5781 16.2632Z" fill="black"/>
<path d="M13.8657 16.9625C13.8657 17.0786 13.8954 17.1083 13.9656 17.1083C14.0061 17.1083 14.0493 17.0948 14.0817 17.084V17.4269C14.0493 17.4458 13.9764 17.4674 13.863 17.4674C13.6065 17.4674 13.4634 17.3756 13.4634 17.0381V15.3857H13.8657V16.9625Z" fill="black"/>
<path d="M15.5431 16.8086H14.6818C14.6926 17.0327 14.7925 17.1326 15.0058 17.1326C15.1867 17.1326 15.3757 17.0597 15.4648 16.9706V17.3351C15.4027 17.3945 15.2083 17.4674 14.9437 17.4674C14.4496 17.4674 14.2768 17.2136 14.2768 16.6844C14.2768 16.1849 14.5144 15.9419 14.9302 15.9419C15.3946 15.9419 15.5431 16.2146 15.5431 16.6385V16.8086ZM14.9221 16.2632C14.7601 16.2632 14.6899 16.3631 14.6791 16.5683H15.1462C15.1462 16.3739 15.0949 16.2632 14.9221 16.2632Z" fill="black"/>
<path d="M15.937 16.9571V16.3334H15.721V15.9797H15.937V15.7367L16.3393 15.5963V15.9797H16.693V16.3334H16.3393V16.8815C16.3393 17.0354 16.3771 17.1002 16.4824 17.1002C16.558 17.1002 16.6417 17.0705 16.6984 17.0273V17.3945C16.6471 17.4269 16.5283 17.4674 16.369 17.4674C16.0504 17.4674 15.937 17.327 15.937 16.9571Z" fill="black"/>
<path d="M11.9827 5.40003C11.8487 5.39661 8.15692 7.24894 8.11002 7.34463C7.99277 7.57019 7.15191 11.5243 7.20216 11.6098C7.22896 11.661 7.83531 12.4437 8.54552 13.3493L9.83863 15H14.0932L16.8 11.5517L16.3276 9.43278L15.8084 7.26944C15.7414 7.20793 12.053 5.40345 11.9827 5.40003ZM12.1703 6.32619L13.0413 6.58251L12.1703 6.84225L11.2992 6.58251L12.1703 6.32619ZM11.2992 6.68162L12.1133 6.93111L12.11 8.08625L11.2992 7.62829V6.68162ZM13.0413 6.68162V7.62829L12.2272 8.08625L12.2239 6.93111L13.0413 6.68162ZM10.9374 8.26055L11.8051 8.51687L10.9374 8.7766L10.0664 8.51687L10.9374 8.26055ZM13.0513 8.26055L13.9223 8.51687L13.0513 8.7766L12.1803 8.51687L13.0513 8.26055ZM10.0664 8.61597L10.8805 8.86204L10.8771 10.0172L10.0664 9.55923V8.61597ZM11.8051 8.61597V9.55923L10.9944 10.0172L10.991 8.86204L11.8051 8.61597ZM12.1803 8.61597L12.9944 8.86204L12.991 10.0172L12.1803 9.55923V8.61597ZM13.9223 8.61597V9.55923L13.1116 10.0172L13.1083 8.86204L13.9223 8.61597ZM10.6192 10.0958C10.8771 10.106 10.6761 10.3726 10.9709 10.5127C11.2858 10.6665 11.3495 10.2838 11.5472 10.5743C11.7448 10.8682 11.3696 10.793 11.3997 11.1484C11.4265 11.5004 11.785 11.3671 11.6343 11.6884C11.4835 12.0062 11.3595 11.6405 11.0748 11.8422C10.79 12.0438 11.0815 12.2899 10.7364 12.3206C10.388 12.348 10.6359 12.0541 10.3244 11.9037C10.0095 11.7499 9.94584 12.1327 9.74819 11.8388C9.55053 11.5483 9.92573 11.6235 9.89558 11.268C9.86878 10.916 9.51368 11.0493 9.66108 10.728C9.81183 10.4068 9.93578 10.7759 10.2205 10.5743C10.5086 10.3726 10.2138 10.1265 10.5622 10.0958C10.5823 10.0958 10.5991 10.0958 10.6192 10.0958ZM12.8537 10.4512C13.316 10.4649 12.8704 10.9058 13.2925 11.1006C13.7146 11.2919 13.7381 10.6563 14.0563 10.998C14.3746 11.3432 13.7515 11.333 13.9156 11.7738C14.0798 12.2147 14.5387 11.7807 14.5253 12.2557C14.5119 12.7273 14.0798 12.2694 13.8888 12.7C13.6979 13.1306 14.3243 13.1545 13.9893 13.4792C13.651 13.8039 13.661 13.1682 13.2289 13.3357C12.7967 13.5031 13.2222 13.9713 12.7565 13.9577C12.2942 13.944 12.7431 13.5031 12.321 13.3083C11.8989 13.1169 11.8721 13.7526 11.5539 13.4108C11.2356 13.0657 11.8621 13.0793 11.6979 12.6351C11.5304 12.1942 11.0714 12.6282 11.0848 12.1566C11.0982 11.6815 11.5338 12.1395 11.7214 11.7089C11.9123 11.2783 11.2858 11.2543 11.6242 10.9297C11.9592 10.605 11.9492 11.2407 12.3813 11.0732C12.8135 10.9058 12.3914 10.4375 12.8537 10.4512ZM10.6393 10.6973C10.3579 10.6973 10.1301 10.9297 10.1301 11.2168C10.1301 11.5038 10.3579 11.7362 10.6393 11.7362C10.9207 11.7362 11.1485 11.5038 11.1485 11.2168C11.1485 10.9297 10.9207 10.6973 10.6393 10.6973ZM12.8068 11.1689C12.244 11.1689 11.7884 11.6337 11.7884 12.2079C11.7884 12.7786 12.244 13.2434 12.8068 13.2434C13.3696 13.2434 13.8252 12.7786 13.8252 12.2079C13.8252 11.6337 13.3696 11.1689 12.8068 11.1689Z" fill="black"/>
</svg>
