<svg width="24" height="24" viewBox="0 0 24 24" fill="none" xmlns="http://www.w3.org/2000/svg">
<path d="M12 3L19.0365 6.38859L20.7744 14.0027L15.905 20.1087H8.09505L3.22565 14.0027L4.96352 6.38859L12 3Z" stroke="black" stroke-width="1.5"/>
<path d="M9.67419 7.20001V8.20285H10.5702C10.9244 8.05334 11.3175 7.97311 11.7283 7.97311C12.1215 7.96946 12.5146 8.04969 12.8829 8.20285H16.8V7.20001H9.67419ZM6.60001 7.20366V8.20285H8.38147V7.20366H6.60001ZM11.6965 8.30131C10.3648 8.31954 9.34481 9.31509 9.20669 10.5513H10.1842C10.3223 9.8475 10.9386 9.3005 11.7283 9.3005C12.5181 9.3005 13.1379 9.8475 13.2725 10.5513H14.25C14.1119 9.30415 13.0742 8.30131 11.7283 8.30131C11.7142 8.30131 11.7071 8.30131 11.6965 8.30131ZM12.2631 9.86573V10.5513H13.0069C12.9396 10.2742 12.759 10.0335 12.5146 9.86573H12.2631ZM14.4908 9.86573C14.5688 10.0845 14.6183 10.3143 14.6396 10.5513H15.3196V10.8686H16.8V9.86573H14.4908ZM8.44876 10.8832V15.1607H14.9937V10.8832H8.44876ZM11.7213 12.3236C12.0967 12.3236 12.4012 12.6372 12.4012 13.0238C12.4012 13.4067 12.0967 13.7203 11.7213 13.7203C11.3458 13.7203 11.0413 13.4067 11.0413 13.0238C11.0413 12.6372 11.3458 12.3236 11.7213 12.3236ZM15.3196 12.5351V13.5343H16.8V12.5351H15.3196ZM6.60001 15.2008V16.2H8.38147V15.4926H8.12294V15.2008H6.60001ZM15.3196 15.2008V15.4926H9.67419V16.2H16.8V15.2008H15.3196Z" fill="black"/>
</svg>
