<svg width="24" height="24" viewBox="0 0 24 24" fill="none" xmlns="http://www.w3.org/2000/svg">
<path d="M12 3L19.0365 6.38859L20.7744 14.0027L15.905 20.1087H8.09505L3.22565 14.0027L4.96352 6.38859L12 3Z" stroke="black" stroke-width="1.5"/>
<path d="M9.88125 7.79999V8.07924V8.36223V8.59307V8.87605H10.4437V8.59307V8.36223H11.3288H11.6137V7.79999H11.3288H10.4437H9.88125ZM12.7425 7.79999V8.36223H13.0237H14.715H15V7.79999H14.715H13.0237H12.7425ZM16.125 7.79999V8.36223H16.4062H16.8375V9.05477V9.33403H17.4V9.05477V8.07924C17.4 7.92658 17.2725 7.79999 17.1188 7.79999H16.4062H16.125ZM8.23875 9.29308V9.57605V9.8553V10.3096V10.5925H8.805V10.3096V9.8553H9.46501H9.74626V9.29308H9.46501H8.805H8.23875ZM10.875 9.29308V9.85159H11.1563H12.8475H13.1288V9.29308H12.8475H11.1563H10.875ZM14.2575 9.29308V9.85159H14.5425H15.195V10.3245V10.6037H15.7613V10.3245V9.57233C15.7613 9.41967 15.6338 9.29308 15.48 9.29308H14.5425H14.2575ZM9.88125 9.99307V10.2723V10.7862H6.88126C6.72751 10.7899 6.60001 10.9128 6.60001 11.0691V15.917C6.60001 16.0734 6.72751 16.2 6.88126 16.2H13.8375C13.995 16.2 14.1188 16.0734 14.1188 15.917V14.7069H14.5313H14.8163V14.1447H14.5313H14.1188V13.2101H15.195V13.6867V13.9659H15.7613V13.6867V13.2101H15.9488H16.23V12.6516H15.9488H15.7613V12.0037V11.7245H15.195V12.0037V12.6516H14.1188V11.0691C14.1225 10.9128 13.995 10.7899 13.8375 10.7862H10.4437V10.2723V9.99307H9.88125ZM16.8375 10.4548V10.734V12.4133V12.6925H17.4V12.4133V10.734V10.4548H16.8375ZM10.3613 11.3149C11.1863 11.3149 11.9325 11.408 12.495 11.5643C12.7763 11.6425 13.0125 11.7394 13.2 11.866C13.3875 11.9888 13.5525 12.1713 13.5525 12.417V14.6436C13.5525 14.8894 13.3875 15.0681 13.2 15.1947C13.0125 15.3175 12.7763 15.4144 12.495 15.4925C11.9325 15.6527 11.1863 15.742 10.3613 15.742C9.53626 15.742 8.78626 15.6527 8.22376 15.4963C7.94251 15.4144 7.70626 15.3213 7.52251 15.1947C7.33501 15.0718 7.17001 14.8894 7.17001 14.6436V12.417C7.17001 12.1675 7.33501 11.9888 7.52251 11.866C7.70626 11.7394 7.94251 11.6425 8.22376 11.5643C8.78626 11.408 9.53251 11.3149 10.3575 11.3149H10.3613ZM10.3613 11.8734C9.57751 11.8734 8.86875 11.9665 8.38125 12.1042C8.13375 12.175 7.94627 12.2569 7.83752 12.3276C7.80002 12.35 7.76627 12.3798 7.74002 12.417C7.74377 12.4282 7.76627 12.458 7.83752 12.5064C7.94627 12.5771 8.13375 12.659 8.38125 12.7298C8.86875 12.8675 9.57751 12.9606 10.3613 12.9606C11.1413 12.9606 11.85 12.8675 12.3375 12.7298C12.585 12.659 12.7762 12.5771 12.8812 12.5064C12.9562 12.458 12.975 12.4282 12.9825 12.417C12.9563 12.3798 12.9225 12.35 12.8812 12.3276C12.7762 12.2569 12.585 12.175 12.3375 12.1042C11.85 11.9665 11.1413 11.8734 10.3613 11.8734ZM7.73251 13.0612V14.6399C7.73626 14.6324 7.74377 14.6659 7.83752 14.7292C7.94627 14.8 8.13375 14.8856 8.38125 14.9564C8.86875 15.0941 9.57751 15.1872 10.3613 15.1872C11.1413 15.1872 11.85 15.0941 12.3375 14.9564C12.585 14.8856 12.7762 14.8 12.8812 14.7292C12.975 14.6659 12.9863 14.6324 12.9863 14.6399V13.0612C12.8363 13.1356 12.69 13.2138 12.495 13.2697C11.9325 13.4261 11.1863 13.5191 10.3613 13.5191C9.53626 13.5191 8.79001 13.4261 8.22376 13.2697C8.02876 13.2138 7.88626 13.1356 7.73251 13.0612Z" fill="black"/>
</svg>
