<svg width="24" height="24" viewBox="0 0 24 24" fill="none" xmlns="http://www.w3.org/2000/svg">
<path d="M16.9634 8V19H11.9634M16.9634 8L12.9634 4M16.9634 8H12.9634V4M12.9634 4H4.96344V11M20.4634 19.7183V6.5L16.9634 3M9.05954 13L11.0794 16.4985L9.05954 19.9969H5.01985L3 16.4985L5.01985 13H9.05954ZM7.5397 16.4985C7.5397 16.7746 7.31584 16.9985 7.0397 16.9985C6.76356 16.9985 6.5397 16.7746 6.5397 16.4985C6.5397 16.2223 6.76356 15.9985 7.0397 15.9985C7.31584 15.9985 7.5397 16.2223 7.5397 16.4985Z" stroke="black" stroke-width="1.5"/>
</svg>
