<svg width="24" height="24" viewBox="0 0 24 24" fill="none" xmlns="http://www.w3.org/2000/svg">
<path d="M11 4V3.25C10.5858 3.25 10.25 3.58579 10.25 4H11ZM10.25 11.5C10.25 11.9142 10.5858 12.25 11 12.25C11.4142 12.25 11.75 11.9142 11.75 11.5H10.25ZM11 8.33295V9.08295H13V8.33295V7.58295H11V8.33295ZM13 8.33295V9.08295C13.4159 9.08295 14.0665 8.97277 14.6386 8.60387C15.2522 8.20819 15.75 7.52404 15.75 6.5H15H14.25C14.25 6.96153 14.0573 7.19385 13.8257 7.34326C13.5524 7.51944 13.2031 7.58295 13 7.58295V8.33295ZM15 6.5H15.75V5.88098H15H14.25V6.5H15ZM15 5.88098H15.75C15.75 5.10381 15.5058 4.41209 14.9702 3.9226C14.4452 3.44284 13.7411 3.25 13 3.25V4V4.75C13.4969 4.75 13.7928 4.87866 13.9583 5.0299C14.1132 5.17141 14.25 5.42017 14.25 5.88098H15ZM13 4V3.25H11V4V4.75H13V4ZM11 4H10.25V8.33295H11H11.75V4H11ZM11 8.33295H10.25V11.5H11H11.75V8.33295H11ZM21 17H20.25C20.25 17.3082 20.1126 17.6584 19.7494 18.0399C19.3826 18.4254 18.8164 18.8066 18.0594 19.1431C16.5471 19.8152 14.4055 20.25 12 20.25V21V21.75C14.5651 21.75 16.9234 21.2894 18.6686 20.5138C19.5402 20.1264 20.292 19.6457 20.836 19.074C21.3838 18.4985 21.75 17.7963 21.75 17H21ZM12 21V20.25C9.59454 20.25 7.45286 19.8152 5.94064 19.1431C5.18359 18.8066 4.61737 18.4254 4.25056 18.0399C3.88743 17.6584 3.75 17.3082 3.75 17H3H2.25C2.25 17.7963 2.61625 18.4985 3.16397 19.074C3.70801 19.6457 4.45981 20.1264 5.33143 20.5138C7.07658 21.2894 9.4349 21.75 12 21.75V21ZM21 12H20.25C20.25 12.3082 20.1126 12.6584 19.7494 13.0399C19.3826 13.4254 18.8164 13.8066 18.0594 14.1431C16.5471 14.8152 14.4055 15.25 12 15.25V16V16.75C14.5651 16.75 16.9234 16.2894 18.6686 15.5138C19.5402 15.1264 20.292 14.6457 20.836 14.074C21.3838 13.4985 21.75 12.7963 21.75 12H21ZM12 16V15.25C9.59454 15.25 7.45286 14.8152 5.94064 14.1431C5.18359 13.8066 4.61737 13.4254 4.25056 13.0399C3.88743 12.6584 3.75 12.3082 3.75 12H3H2.25C2.25 12.7963 2.61625 13.4985 3.16397 14.074C3.70801 14.6457 4.45981 15.1264 5.33143 15.5138C7.07658 16.2894 9.4349 16.75 12 16.75V16Z" fill="black"/>
</svg>
