<svg width="24" height="24" viewBox="0 0 24 24" fill="none" xmlns="http://www.w3.org/2000/svg">
<path d="M8.40497 20.0503H5.40497L3.40497 18.0503L3.40497 15.0503M19.405 9.05029V6.05029L17.405 4.05029L14.405 4.05029M20.2551 20.595L18.4209 17.8689H13.405L11.4048 20.595M10.0156 12.2977L5.70019 12.2977C4.31958 12.2977 3.2002 11.1038 3.2002 9.63103C3.2002 8.15826 4.31958 6.96436 5.70019 6.96436C5.70019 5.4916 6.81958 4.29769 8.20019 4.29769C9.58081 4.29769 10.7002 5.4916 10.7002 6.96436C11.4151 6.96436 12.06 7.28449 12.5156 7.79769C12.677 7.97719 13.0537 8.52516 13.0537 8.97277M17.9379 13.0786C17.9379 14.1832 17.0425 15.0786 15.9379 15.0786C14.8333 15.0786 13.9379 14.1832 13.9379 13.0786C13.9379 11.974 14.8333 11.0786 15.9379 11.0786C17.0425 11.0786 17.9379 11.974 17.9379 13.0786Z" stroke="black" stroke-width="1.5"/>
</svg>
