<svg width="24" height="24" viewBox="0 0 24 24" fill="none" xmlns="http://www.w3.org/2000/svg">
<path d="M3 19L5.5 17H11.5L14 19M8 4H4V8M20 15V19H16M13.5 12H17.8154C19.1961 12 20.3154 10.8061 20.3154 9.33333C20.3154 7.86057 19.1961 6.66667 17.8154 6.66667C17.8154 5.1939 16.6961 4 15.3154 4C13.9348 4 12.8154 5.1939 12.8154 6.66667C12.1005 6.66667 11.4557 6.98679 11 7.5M11 11.5C11 10.1193 9.88071 9 8.5 9C7.11929 9 6 10.1193 6 11.5C6 12.8807 7.11929 14 8.5 14C9.88071 14 11 12.8807 11 11.5Z" stroke="black" stroke-width="1.5"/>
</svg>
