<svg width="24" height="24" viewBox="0 0 24 24" fill="none" xmlns="http://www.w3.org/2000/svg">
<path d="M7 15.4H5.29231L4 16.75V19.45L5.29231 20.8H7M7 15.4H20.8M7 15.4V20.8M20.8 15.4H21.4M20.8 15.4C17.7705 15.67 17.434 20.26 20.8 20.8M21.4 20.8H20.8M20.8 20.8H7M9.7173 10.7737C9.0014 10.0556 8.55882 9.06476 8.55882 7.97059C8.55882 5.77769 10.3365 4 12.5294 4C13.0506 4 13.5484 4.10042 14.0044 4.28298M9.7173 10.7737C10.4362 11.4949 11.4307 11.9412 12.5294 11.9412C13.0506 11.9412 13.5484 11.8408 14.0044 11.6582M9.7173 10.7737L7 13.5M16 10L15.4 8.6L14 8L15.4 7.4L16 6L16.6 7.4L18 8L16.6 8.6L16 10Z" stroke="black" stroke-width="1.5"/>
</svg>
