<svg width="24" height="24" viewBox="0 0 24 24" fill="none" xmlns="http://www.w3.org/2000/svg">
<path d="M14.8695 10.002C14.8695 10.2781 14.6456 10.502 14.3695 10.502C14.0934 10.502 13.8695 10.2781 13.8695 10.002C13.8695 9.72584 14.0934 9.50199 14.3695 9.50199C14.6456 9.50199 14.8695 9.72584 14.8695 10.002Z" fill="black"/>
<path d="M10.9056 9.28267C10.7273 10.9907 9.81835 14.4068 7.60828 14.4068C4.84571 14.4068 4.57163 6.65956 5.88079 5.10797C7.94059 2.66674 17.8097 3.48978 18.7882 7.98197C19.1149 9.48209 18.7032 12.9186 14.6039 16.2337C13.8018 16.8823 13.1841 18.1159 13.8018 19.219C14.6039 20.6514 16.2525 20.4221 17.5001 19.4864M15.1662 14.7094L17.2424 16.8507M14.8695 10.002C14.8695 10.2781 14.6456 10.502 14.3695 10.502C14.0934 10.502 13.8695 10.2781 13.8695 10.002C13.8695 9.72584 14.0934 9.50199 14.3695 9.50199C14.6456 9.50199 14.8695 9.72584 14.8695 10.002Z" stroke="black" stroke-width="1.5"/>
</svg>
