<svg width="24" height="24" viewBox="0 0 24 24" fill="none" xmlns="http://www.w3.org/2000/svg">
<path d="M17 12C17 13.1046 17.8954 14 19 14C20.1046 14 21 13.1046 21 12C21 10.8954 20.1046 10 19 10C17.8954 10 17 10.8954 17 12ZM17 12L8.99172 12M8.1211 9.8789L11.5858 6.41421M8.10782 14.1078L11.5858 17.5858M15 5C15 6.10457 14.1046 7 13 7C11.8954 7 11 6.10457 11 5C11 3.89543 11.8954 3 13 3C14.1046 3 15 3.89543 15 5ZM15 19C15 20.1046 14.1046 21 13 21C11.8954 21 11 20.1046 11 19C11 17.8954 11.8954 17 13 17C14.1046 17 15 17.8954 15 19ZM9 12C9 13.6569 7.65685 15 6 15C4.34315 15 3 13.6569 3 12C3 10.3431 4.34315 9 6 9C7.65685 9 9 10.3431 9 12Z" stroke="black" stroke-width="1.5"/>
</svg>
