<svg width="24" height="24" viewBox="0 0 24 24" fill="none" xmlns="http://www.w3.org/2000/svg">
<path d="M4.64868 4.52698V3.77698C4.23447 3.77698 3.89868 4.11276 3.89868 4.52698H4.64868ZM3.89868 10.927C3.89868 11.3412 4.23447 11.677 4.64868 11.677C5.0629 11.677 5.39868 11.3412 5.39868 10.927H3.89868ZM5.46235 4.52698L6.16892 4.27545C6.06252 3.97658 5.77959 3.77698 5.46235 3.77698V4.52698ZM7.08968 9.09841L6.38312 9.34993C6.48951 9.6488 6.77244 9.84841 7.08968 9.84841V9.09841ZM7.90335 9.09841V9.84841C8.2206 9.84841 8.50353 9.6488 8.60992 9.34993L7.90335 9.09841ZM9.53068 4.52698V3.77698C9.21344 3.77698 8.93051 3.97658 8.82412 4.27545L9.53068 4.52698ZM10.3444 4.52698L11.0944 4.52698C11.0944 4.32807 11.0153 4.1373 10.8747 3.99665C10.734 3.856 10.5433 3.77698 10.3444 3.77698V4.52698ZM9.59435 10.927C9.59435 11.3412 9.93014 11.677 10.3444 11.677C10.7586 11.677 11.0944 11.3412 11.0944 10.927H9.59435ZM13.4046 4.19157C13.2193 3.82108 12.7688 3.67092 12.3984 3.85616C12.0279 4.0414 11.8777 4.4919 12.0629 4.86239L13.4046 4.19157ZM17.6712 4.86239C17.8565 4.4919 17.7063 4.0414 17.3358 3.85616C16.9654 3.67092 16.5149 3.82108 16.3296 4.19157L17.6712 4.86239ZM14.1171 11.0139C14.1171 11.4281 14.4529 11.7639 14.8671 11.7639C15.2813 11.7639 15.6171 11.4281 15.6171 11.0139H14.1171ZM7.5632 13.7751C7.97741 13.7751 8.3132 13.4393 8.3132 13.0251C8.3132 12.6109 7.97741 12.2751 7.5632 12.2751V13.7751ZM6.23899 13.0251L6.18528 12.277L6.23899 13.0251ZM7.16253 16.6022L6.75463 17.2315H6.75463L7.16253 16.6022ZM6.23899 19.4139V18.6639H6.23899L6.23899 19.4139ZM4.83229 18.6639C4.41808 18.6639 4.08229 18.9997 4.08229 19.4139C4.0823 19.8281 4.41808 20.1639 4.8323 20.1639L4.83229 18.6639ZM14.2838 17.979C13.9593 17.7216 13.4875 17.7759 13.2301 18.1004C12.9727 18.4249 13.0271 18.8967 13.3516 19.1541L14.2838 17.979ZM14.4942 20.0606C14.8187 20.318 15.2905 20.2637 15.5479 19.9392C15.8053 19.6147 15.751 19.1429 15.4265 18.8855L14.4942 20.0606ZM18.1987 13.0139C18.1987 12.5997 17.8629 12.2639 17.4487 12.2639C17.0345 12.2639 16.6987 12.5997 16.6987 13.0139H18.1987ZM17.4487 19.4139H16.6987V20.1639H17.4487V19.4139ZM20.6487 20.1639C21.0629 20.1639 21.3987 19.8281 21.3987 19.4139C21.3987 18.9997 21.0629 18.6639 20.6487 18.6639V20.1639ZM3.89868 4.52698V10.927H5.39868V4.52698H3.89868ZM4.64868 5.27698H5.46235V3.77698H4.64868V5.27698ZM4.75578 4.7785L6.38312 9.34993L7.79625 8.84688L6.16892 4.27545L4.75578 4.7785ZM7.08968 9.84841H7.90335V8.34841H7.08968V9.84841ZM8.60992 9.34993L10.2373 4.7785L8.82412 4.27545L7.19678 8.84688L8.60992 9.34993ZM9.53068 5.27698H10.3444V3.77698H9.53068V5.27698ZM9.59435 4.52698L9.59435 10.927H11.0944L11.0944 4.52698L9.59435 4.52698ZM12.0629 4.86239L14.1963 9.12905L15.5379 8.45823L13.4046 4.19157L12.0629 4.86239ZM15.5379 9.12905L17.6712 4.86239L16.3296 4.19157L14.1963 8.45823L15.5379 9.12905ZM14.1171 8.79364V11.0139H15.6171V8.79364H14.1171ZM7.5632 12.2751C6.81233 12.2751 6.57768 12.2688 6.49038 12.2661C6.46071 12.2651 6.40519 12.2623 6.34245 12.2655C6.31216 12.2671 6.24679 12.2726 6.18528 12.277L6.29269 13.7732C6.33897 13.7698 6.37089 13.7673 6.39319 13.7656C6.41923 13.7635 6.42112 13.7634 6.42008 13.7635C6.40275 13.7644 6.37365 13.7631 6.44282 13.7653C6.55319 13.7688 6.80588 13.7751 7.5632 13.7751V12.2751ZM6.18528 12.277C5.04929 12.3586 4.31157 12.9911 4.02785 13.81C3.7682 14.5594 3.90511 15.44 4.39923 16.023L5.54352 15.0531C5.42313 14.9111 5.34288 14.5963 5.44519 14.301C5.52341 14.0753 5.72676 13.8138 6.29269 13.7732L6.18528 12.277ZM4.39923 16.023C4.84939 16.5541 5.33776 16.7235 5.74691 16.8392C6.13557 16.9492 6.40735 17.0065 6.75463 17.2315L7.57044 15.9728C6.99417 15.5993 6.47763 15.4871 6.15522 15.3959C5.85331 15.3105 5.70787 15.2471 5.54352 15.0531L4.39923 16.023ZM6.75463 17.2315C7.0212 17.4043 7.15726 17.767 7.0757 18.1093C7.00988 18.3855 6.79571 18.6639 6.23899 18.6639V20.1639C7.49599 20.1639 8.30942 19.4032 8.53486 18.4569C8.74457 17.5767 8.43554 16.5335 7.57044 15.9728L6.75463 17.2315ZM6.23899 18.6639L4.83229 18.6639L4.8323 20.1639L6.23899 20.1639L6.23899 18.6639ZM13.4987 15.1473V17.2806H14.9987V15.1473H13.4987ZM10.732 17.2806V15.1473H9.23202V17.2806H10.732ZM12.1153 18.6639C11.3514 18.6639 10.732 18.0446 10.732 17.2806H9.23202C9.23202 18.873 10.5229 20.1639 12.1153 20.1639V18.6639ZM13.4987 17.2806C13.4987 18.0446 12.8793 18.6639 12.1153 18.6639V20.1639C13.7078 20.1639 14.9987 18.873 14.9987 17.2806H13.4987ZM12.1153 13.7639C12.8793 13.7639 13.4987 14.3833 13.4987 15.1473H14.9987C14.9987 13.5548 13.7078 12.2639 12.1153 12.2639V13.7639ZM12.1153 12.2639C10.5229 12.2639 9.23202 13.5548 9.23202 15.1473H10.732C10.732 14.3833 11.3514 13.7639 12.1153 13.7639V12.2639ZM13.3516 19.1541L14.4942 20.0606L15.4265 18.8855L14.2838 17.979L13.3516 19.1541ZM16.6987 13.0139V19.4139H18.1987V13.0139H16.6987ZM17.4487 20.1639H20.6487V18.6639H17.4487V20.1639Z" fill="black"/>
</svg>
