<svg width="24" height="24" viewBox="0 0 24 24" fill="none" xmlns="http://www.w3.org/2000/svg">
<path d="M5.13301 15.9728C5.4757 15.7057 7.32269 14.7246 7.32269 12.7077M7.32269 12.7077C6.33389 13.5774 5.0368 13.2839 4 13.0606M7.32269 12.7077C7.61369 12.0077 8.01915 10.4048 9.79851 10.0477C12.0227 9.60125 13.7412 8.477 14.643 7.06208C15.5448 5.64715 15.6848 3.89402 17.6036 3.80504C18.2432 3.77538 19.5868 2.72609 19.6012 3.06865C19.727 3.52052 20.3315 5.19604 18.7685 6.12671C18.1433 6.49898 17.7313 6.86137 17.6044 8.9269C17.5517 9.78604 17.0065 11.2391 16.0949 11.8953C15.2306 12.5186 14.1828 13.4496 11.8723 13.0606C10.5758 12.6978 8.47364 11.9943 7.32269 12.7077ZM12.342 6.01703C8.23936 6.01703 4.91347 7.69406 4.91347 9.76277V11.2931M20 13.3728C20 15.4415 16.4447 17.2543 12.342 17.2543C10.559 17.2543 8.92262 16.9375 7.64227 16.4095M4.91347 17.2543C4.91347 19.323 8.23936 21 12.342 21C16.4447 21 20 19.323 20 17.2543V9.91522M13.926 13.0316C14.1057 13.7177 14.118 14.7137 13.4855 15.6351" stroke="black" stroke-width="1.5"/>
</svg>
