<svg width="24" height="24" viewBox="0 0 24 24" fill="none" xmlns="http://www.w3.org/2000/svg">
<path d="M21.75 17C21.75 16.5858 21.4142 16.25 21 16.25C20.5858 16.25 20.25 16.5858 20.25 17H21.75ZM3.75 17C3.75 16.5858 3.41421 16.25 3 16.25C2.58579 16.25 2.25 16.5858 2.25 17H3.75ZM9.33015 13.2129V12.4629C9.13124 12.4629 8.94048 12.5419 8.79982 12.6826C8.65917 12.8232 8.58015 13.014 8.58015 13.2129H9.33015ZM8.58015 18.8175C8.58015 19.2317 8.91594 19.5675 9.33015 19.5675C9.74437 19.5675 10.0802 19.2317 10.0802 18.8175H8.58015ZM10.093 13.2129L10.7995 12.9614C10.6931 12.6625 10.4102 12.4629 10.093 12.4629V13.2129ZM11.6186 17.4986L10.912 17.7502C11.0184 18.049 11.3013 18.2486 11.6186 18.2486V17.4986ZM12.3814 17.4986V18.2486C12.6987 18.2486 12.9816 18.049 13.088 17.7502L12.3814 17.4986ZM13.907 13.2129V12.4629C13.5898 12.4629 13.3069 12.6625 13.2005 12.9614L13.907 13.2129ZM14.6698 13.2129H15.4198C15.4198 12.7987 15.0841 12.4629 14.6698 12.4629V13.2129ZM13.9198 18.8175C13.9198 19.2317 14.2556 19.5675 14.6698 19.5675C15.0841 19.5675 15.4198 19.2317 15.4198 18.8175H13.9198ZM21 7H20.25C20.25 7.30825 20.1126 7.65837 19.7494 8.03994C19.3826 8.42537 18.8164 8.8066 18.0594 9.14307C16.5471 9.81517 14.4055 10.25 12 10.25V11V11.75C14.5651 11.75 16.9234 11.2894 18.6686 10.5138C19.5402 10.1264 20.292 9.64569 20.836 9.07402C21.3838 8.49848 21.75 7.79632 21.75 7H21ZM12 11V10.25C9.59454 10.25 7.45286 9.81517 5.94064 9.14307C5.18359 8.8066 4.61737 8.42537 4.25056 8.03994C3.88743 7.65837 3.75 7.30825 3.75 7H3H2.25C2.25 7.79632 2.61625 8.49848 3.16397 9.07402C3.70801 9.64569 4.45981 10.1264 5.33143 10.5138C7.07658 11.2894 9.4349 11.75 12 11.75V11ZM3 7H3.75C3.75 6.69175 3.88743 6.34163 4.25056 5.96006C4.61737 5.57463 5.18359 5.1934 5.94064 4.85693C7.45286 4.18483 9.59454 3.75 12 3.75V3V2.25C9.4349 2.25 7.07658 2.7106 5.33143 3.48621C4.45981 3.8736 3.70801 4.35431 3.16397 4.92598C2.61625 5.50152 2.25 6.20368 2.25 7H3ZM12 3V3.75C14.4055 3.75 16.5471 4.18483 18.0594 4.85693C18.8164 5.1934 19.3826 5.57463 19.7494 5.96006C20.1126 6.34163 20.25 6.69175 20.25 7H21H21.75C21.75 6.20368 21.3838 5.50152 20.836 4.92598C20.292 4.35431 19.5402 3.8736 18.6686 3.48621C16.9234 2.7106 14.5651 2.25 12 2.25V3ZM21 17H20.25C20.25 17.3082 20.1126 17.6584 19.7494 18.0399C19.3826 18.4254 18.8164 18.8066 18.0594 19.1431C16.5471 19.8152 14.4055 20.25 12 20.25V21V21.75C14.5651 21.75 16.9234 21.2894 18.6686 20.5138C19.5402 20.1264 20.292 19.6457 20.836 19.074C21.3838 18.4985 21.75 17.7963 21.75 17H21ZM12 21V20.25C9.59454 20.25 7.45286 19.8152 5.94064 19.1431C5.18359 18.8066 4.61737 18.4254 4.25056 18.0399C3.88743 17.6584 3.75 17.3082 3.75 17H3H2.25C2.25 17.7963 2.61625 18.4985 3.16397 19.074C3.70801 19.6457 4.45981 20.1264 5.33143 20.5138C7.07658 21.2894 9.4349 21.75 12 21.75V21ZM9.33015 13.2129H8.58015L8.58015 18.8175H9.33015H10.0802L10.0802 13.2129H9.33015ZM9.33015 13.2129V13.9629H10.093V13.2129V12.4629H9.33015V13.2129ZM10.093 13.2129L9.3864 13.4644L10.912 17.7502L11.6186 17.4986L12.3252 17.2471L10.7995 12.9614L10.093 13.2129ZM11.6186 17.4986V18.2486H12.3814V17.4986V16.7486H11.6186V17.4986ZM12.3814 17.4986L13.088 17.7502L14.6136 13.4644L13.907 13.2129L13.2005 12.9614L11.6748 17.2471L12.3814 17.4986ZM13.907 13.2129V13.9629H14.6698V13.2129V12.4629H13.907V13.2129ZM14.6698 13.2129H13.9198V18.8175H14.6698H15.4198V13.2129H14.6698Z" fill="black"/>
</svg>
