<svg width="24" height="24" viewBox="0 0 24 24" fill="none" xmlns="http://www.w3.org/2000/svg">
<path d="M4.63162 14.3846C4.63162 14.7245 4.34886 15 4.00005 15C3.65123 15 3.36847 14.7245 3.36847 14.3846C3.36847 14.0447 3.65123 13.7692 4.00005 13.7692C4.34886 13.7692 4.63162 14.0447 4.63162 14.3846Z" fill="black"/>
<path d="M4.00001 4V3.25H3.25001V4H4.00001ZM20 4H20.75V3.25H20V4ZM20 20V20.75H20.75V20H20ZM4.00001 20H3.25001V20.75H4.00001V20ZM6.25001 15C6.25001 15.4142 6.58579 15.75 7.00001 15.75C7.41422 15.75 7.75001 15.4142 7.75001 15H6.25001ZM7.00001 9L7.64412 8.61579C7.47124 8.32596 7.12608 8.18729 6.80074 8.27696C6.4754 8.36662 6.25001 8.66253 6.25001 9H7.00001ZM10.579 15L9.93484 15.3842C10.1077 15.674 10.4529 15.8127 10.7782 15.723C11.1036 15.6334 11.329 15.3375 11.329 15H10.579ZM11.329 9C11.329 8.58579 10.9932 8.25 10.579 8.25C10.1647 8.25 9.82896 8.58579 9.82896 9H11.329ZM15.5263 15.75C15.9405 15.75 16.2763 15.4142 16.2763 15C16.2763 14.5858 15.9405 14.25 15.5263 14.25V15.75ZM13 15H12.25C12.25 15.4142 12.5858 15.75 13 15.75V15ZM13 9V8.25C12.5858 8.25 12.25 8.58579 12.25 9H13ZM15.5263 9.75C15.9405 9.75 16.2763 9.41421 16.2763 9C16.2763 8.58579 15.9405 8.25 15.5263 8.25V9.75ZM15 12.75C15.4142 12.75 15.75 12.4142 15.75 12C15.75 11.5858 15.4142 11.25 15 11.25V12.75ZM18.75 15.0769C18.75 15.4911 19.0858 15.8269 19.5 15.8269C19.9142 15.8269 20.25 15.4911 20.25 15.0769H18.75ZM18 8.25C17.5858 8.25 17.25 8.58579 17.25 9C17.25 9.41421 17.5858 9.75 18 9.75V8.25ZM21 9.75C21.4142 9.75 21.75 9.41421 21.75 9C21.75 8.58579 21.4142 8.25 21 8.25V9.75ZM4.00001 4.75H20V3.25H4.00001V4.75ZM20 19.25H4.00001V20.75H20V19.25ZM19.25 4V7H20.75V4H19.25ZM19.25 17V20H20.75V17H19.25ZM4.75001 7V4H3.25001V7H4.75001ZM4.75001 20V17H3.25001V20H4.75001ZM7.75001 15V9H6.25001V15H7.75001ZM6.35589 9.38421L9.93484 15.3842L11.2231 14.6158L7.64412 8.61579L6.35589 9.38421ZM11.329 15V9H9.82896V15H11.329ZM15.5263 14.25H13V15.75H15.5263V14.25ZM13 9.75C13.0019 9.75 13.0039 9.75 13.0058 9.75C13.0077 9.75 13.0096 9.75 13.0115 9.75C13.0135 9.75 13.0154 9.75 13.0173 9.75C13.0192 9.75 13.0211 9.75 13.0231 9.75C13.025 9.75 13.0269 9.75 13.0288 9.75C13.0307 9.75 13.0326 9.75 13.0345 9.75C13.0364 9.75 13.0383 9.75 13.0402 9.75C13.0421 9.75 13.044 9.75 13.0459 9.75C13.0478 9.75 13.0497 9.75 13.0516 9.75C13.0535 9.75 13.0554 9.75 13.0573 9.75C13.0592 9.75 13.0611 9.75 13.063 9.75C13.0649 9.75 13.0668 9.75 13.0687 9.75C13.0706 9.75 13.0724 9.75 13.0743 9.75C13.0762 9.75 13.0781 9.75 13.08 9.75C13.0819 9.75 13.0837 9.75 13.0856 9.75C13.0875 9.75 13.0894 9.75 13.0913 9.75C13.0931 9.75 13.095 9.75 13.0969 9.75C13.0988 9.75 13.1006 9.75 13.1025 9.75C13.1044 9.75 13.1062 9.75 13.1081 9.75C13.11 9.75 13.1118 9.75 13.1137 9.75C13.1156 9.75 13.1174 9.75 13.1193 9.75C13.1211 9.75 13.123 9.75 13.1249 9.75C13.1267 9.75 13.1286 9.75 13.1304 9.75C13.1323 9.75 13.1341 9.75 13.136 9.75C13.1378 9.75 13.1397 9.75 13.1415 9.75C13.1434 9.75 13.1452 9.75 13.1471 9.75C13.1489 9.75 13.1508 9.75 13.1526 9.75C13.1544 9.75 13.1563 9.75 13.1581 9.75C13.16 9.75 13.1618 9.75 13.1636 9.75C13.1655 9.75 13.1673 9.75 13.1691 9.75C13.171 9.75 13.1728 9.75 13.1746 9.75C13.1765 9.75 13.1783 9.75 13.1801 9.75C13.182 9.75 13.1838 9.75 13.1856 9.75C13.1874 9.75 13.1893 9.75 13.1911 9.75C13.1929 9.75 13.1947 9.75 13.1965 9.75C13.1984 9.75 13.2002 9.75 13.202 9.75C13.2038 9.75 13.2056 9.75 13.2074 9.75C13.2092 9.75 13.2111 9.75 13.2129 9.75C13.2147 9.75 13.2165 9.75 13.2183 9.75C13.2201 9.75 13.2219 9.75 13.2237 9.75C13.2255 9.75 13.2273 9.75 13.2291 9.75C13.2309 9.75 13.2327 9.75 13.2345 9.75C13.2363 9.75 13.2381 9.75 13.2399 9.75C13.2417 9.75 13.2435 9.75 13.2453 9.75C13.2471 9.75 13.2489 9.75 13.2507 9.75C13.2525 9.75 13.2543 9.75 13.2561 9.75C13.2578 9.75 13.2596 9.75 13.2614 9.75C13.2632 9.75 13.265 9.75 13.2668 9.75C13.2686 9.75 13.2703 9.75 13.2721 9.75C13.2739 9.75 13.2757 9.75 13.2775 9.75C13.2792 9.75 13.281 9.75 13.2828 9.75C13.2846 9.75 13.2863 9.75 13.2881 9.75C13.2899 9.75 13.2916 9.75 13.2934 9.75C13.2952 9.75 13.297 9.75 13.2987 9.75C13.3005 9.75 13.3023 9.75 13.304 9.75C13.3058 9.75 13.3075 9.75 13.3093 9.75C13.3111 9.75 13.3128 9.75 13.3146 9.75C13.3164 9.75 13.3181 9.75 13.3199 9.75C13.3216 9.75 13.3234 9.75 13.3251 9.75C13.3269 9.75 13.3286 9.75 13.3304 9.75C13.3321 9.75 13.3339 9.75 13.3356 9.75C13.3374 9.75 13.3391 9.75 13.3409 9.75C13.3426 9.75 13.3444 9.75 13.3461 9.75C13.3479 9.75 13.3496 9.75 13.3514 9.75C13.3531 9.75 13.3548 9.75 13.3566 9.75C13.3583 9.75 13.3601 9.75 13.3618 9.75C13.3635 9.75 13.3653 9.75 13.367 9.75C13.3687 9.75 13.3705 9.75 13.3722 9.75C13.3739 9.75 13.3757 9.75 13.3774 9.75C13.3791 9.75 13.3808 9.75 13.3826 9.75C13.3843 9.75 13.386 9.75 13.3877 9.75C13.3895 9.75 13.3912 9.75 13.3929 9.75C13.3946 9.75 13.3964 9.75 13.3981 9.75C13.3998 9.75 13.4015 9.75 13.4032 9.75C13.405 9.75 13.4067 9.75 13.4084 9.75C13.4101 9.75 13.4118 9.75 13.4135 9.75C13.4152 9.75 13.417 9.75 13.4187 9.75C13.4204 9.75 13.4221 9.75 13.4238 9.75C13.4255 9.75 13.4272 9.75 13.4289 9.75C13.4306 9.75 13.4323 9.75 13.434 9.75C13.4357 9.75 13.4374 9.75 13.4391 9.75C13.4408 9.75 13.4425 9.75 13.4442 9.75C13.4459 9.75 13.4476 9.75 13.4493 9.75C13.451 9.75 13.4527 9.75 13.4544 9.75C13.4561 9.75 13.4578 9.75 13.4595 9.75C13.4612 9.75 13.4629 9.75 13.4646 9.75C13.4663 9.75 13.468 9.75 13.4696 9.75C13.4713 9.75 13.473 9.75 13.4747 9.75C13.4764 9.75 13.4781 9.75 13.4798 9.75C13.4814 9.75 13.4831 9.75 13.4848 9.75C13.4865 9.75 13.4882 9.75 13.4898 9.75C13.4915 9.75 13.4932 9.75 13.4949 9.75C13.4966 9.75 13.4982 9.75 13.4999 9.75C13.5016 9.75 13.5033 9.75 13.5049 9.75C13.5066 9.75 13.5083 9.75 13.51 9.75C13.5116 9.75 13.5133 9.75 13.515 9.75C13.5166 9.75 13.5183 9.75 13.52 9.75C13.5216 9.75 13.5233 9.75 13.525 9.75C13.5266 9.75 13.5283 9.75 13.53 9.75C13.5316 9.75 13.5333 9.75 13.5349 9.75C13.5366 9.75 13.5383 9.75 13.5399 9.75C13.5416 9.75 13.5432 9.75 13.5449 9.75C13.5466 9.75 13.5482 9.75 13.5499 9.75C13.5515 9.75 13.5532 9.75 13.5548 9.75C13.5565 9.75 13.5581 9.75 13.5598 9.75C13.5614 9.75 13.5631 9.75 13.5647 9.75C13.5664 9.75 13.568 9.75 13.5697 9.75C13.5713 9.75 13.573 9.75 13.5746 9.75C13.5763 9.75 13.5779 9.75 13.5795 9.75C13.5812 9.75 13.5828 9.75 13.5845 9.75C13.5861 9.75 13.5878 9.75 13.5894 9.75C13.591 9.75 13.5927 9.75 13.5943 9.75C13.5959 9.75 13.5976 9.75 13.5992 9.75C13.6009 9.75 13.6025 9.75 13.6041 9.75C13.6058 9.75 13.6074 9.75 13.609 9.75C13.6107 9.75 13.6123 9.75 13.6139 9.75C13.6155 9.75 13.6172 9.75 13.6188 9.75C13.6204 9.75 13.6221 9.75 13.6237 9.75C13.6253 9.75 13.6269 9.75 13.6286 9.75C13.6302 9.75 13.6318 9.75 13.6334 9.75C13.6351 9.75 13.6367 9.75 13.6383 9.75C13.6399 9.75 13.6415 9.75 13.6432 9.75C13.6448 9.75 13.6464 9.75 13.648 9.75C13.6496 9.75 13.6513 9.75 13.6529 9.75C13.6545 9.75 13.6561 9.75 13.6577 9.75C13.6593 9.75 13.6609 9.75 13.6626 9.75C13.6642 9.75 13.6658 9.75 13.6674 9.75C13.669 9.75 13.6706 9.75 13.6722 9.75C13.6738 9.75 13.6754 9.75 13.677 9.75C13.6787 9.75 13.6803 9.75 13.6819 9.75C13.6835 9.75 13.6851 9.75 13.6867 9.75C13.6883 9.75 13.6899 9.75 13.6915 9.75C13.6931 9.75 13.6947 9.75 13.6963 9.75C13.6979 9.75 13.6995 9.75 13.7011 9.75C13.7027 9.75 13.7043 9.75 13.7059 9.75C13.7075 9.75 13.7091 9.75 13.7107 9.75C13.7123 9.75 13.7139 9.75 13.7155 9.75C13.7171 9.75 13.7187 9.75 13.7203 9.75C13.7219 9.75 13.7235 9.75 13.725 9.75C13.7266 9.75 13.7282 9.75 13.7298 9.75C13.7314 9.75 13.733 9.75 13.7346 9.75C13.7362 9.75 13.7378 9.75 13.7394 9.75C13.7409 9.75 13.7425 9.75 13.7441 9.75C13.7457 9.75 13.7473 9.75 13.7489 9.75C13.7505 9.75 13.752 9.75 13.7536 9.75C13.7552 9.75 13.7568 9.75 13.7584 9.75C13.7599 9.75 13.7615 9.75 13.7631 9.75C13.7647 9.75 13.7663 9.75 13.7678 9.75C13.7694 9.75 13.771 9.75 13.7726 9.75C13.7742 9.75 13.7757 9.75 13.7773 9.75C13.7789 9.75 13.7805 9.75 13.782 9.75C13.7836 9.75 13.7852 9.75 13.7868 9.75C13.7883 9.75 13.7899 9.75 13.7915 9.75C13.7931 9.75 13.7946 9.75 13.7962 9.75C13.7978 9.75 13.7993 9.75 13.8009 9.75C13.8025 9.75 13.804 9.75 13.8056 9.75C13.8072 9.75 13.8088 9.75 13.8103 9.75C13.8119 9.75 13.8135 9.75 13.815 9.75C13.8166 9.75 13.8181 9.75 13.8197 9.75C13.8213 9.75 13.8228 9.75 13.8244 9.75C13.826 9.75 13.8275 9.75 13.8291 9.75C13.8307 9.75 13.8322 9.75 13.8338 9.75C13.8353 9.75 13.8369 9.75 13.8385 9.75C13.84 9.75 13.8416 9.75 13.8431 9.75C13.8447 9.75 13.8462 9.75 13.8478 9.75C13.8494 9.75 13.8509 9.75 13.8525 9.75C13.854 9.75 13.8556 9.75 13.8571 9.75C13.8587 9.75 13.8602 9.75 13.8618 9.75C13.8634 9.75 13.8649 9.75 13.8665 9.75C13.868 9.75 13.8696 9.75 13.8711 9.75C13.8727 9.75 13.8742 9.75 13.8758 9.75C13.8773 9.75 13.8789 9.75 13.8804 9.75C13.882 9.75 13.8835 9.75 13.8851 9.75C13.8866 9.75 13.8882 9.75 13.8897 9.75C13.8913 9.75 13.8928 9.75 13.8943 9.75C13.8959 9.75 13.8974 9.75 13.899 9.75C13.9005 9.75 13.9021 9.75 13.9036 9.75C13.9052 9.75 13.9067 9.75 13.9082 9.75C13.9098 9.75 13.9113 9.75 13.9129 9.75C13.9144 9.75 13.916 9.75 13.9175 9.75C13.919 9.75 13.9206 9.75 13.9221 9.75C13.9237 9.75 13.9252 9.75 13.9267 9.75C13.9283 9.75 13.9298 9.75 13.9314 9.75C13.9329 9.75 13.9344 9.75 13.936 9.75C13.9375 9.75 13.939 9.75 13.9406 9.75C13.9421 9.75 13.9437 9.75 13.9452 9.75C13.9467 9.75 13.9483 9.75 13.9498 9.75C13.9513 9.75 13.9529 9.75 13.9544 9.75C13.9559 9.75 13.9575 9.75 13.959 9.75C13.9605 9.75 13.9621 9.75 13.9636 9.75C13.9651 9.75 13.9667 9.75 13.9682 9.75C13.9697 9.75 13.9712 9.75 13.9728 9.75C13.9743 9.75 13.9758 9.75 13.9774 9.75C13.9789 9.75 13.9804 9.75 13.9819 9.75C13.9835 9.75 13.985 9.75 13.9865 9.75C13.9881 9.75 13.9896 9.75 13.9911 9.75C13.9926 9.75 13.9942 9.75 13.9957 9.75C13.9972 9.75 13.9987 9.75 14.0003 9.75C14.0018 9.75 14.0033 9.75 14.0048 9.75C14.0064 9.75 14.0079 9.75 14.0094 9.75C14.0109 9.75 14.0125 9.75 14.014 9.75C14.0155 9.75 14.017 9.75 14.0186 9.75C14.0201 9.75 14.0216 9.75 14.0231 9.75C14.0246 9.75 14.0262 9.75 14.0277 9.75C14.0292 9.75 14.0307 9.75 14.0323 9.75C14.0338 9.75 14.0353 9.75 14.0368 9.75C14.0383 9.75 14.0399 9.75 14.0414 9.75C14.0429 9.75 14.0444 9.75 14.0459 9.75C14.0474 9.75 14.049 9.75 14.0505 9.75C14.052 9.75 14.0535 9.75 14.055 9.75C14.0566 9.75 14.0581 9.75 14.0596 9.75C14.0611 9.75 14.0626 9.75 14.0641 9.75C14.0657 9.75 14.0672 9.75 14.0687 9.75C14.0702 9.75 14.0717 9.75 14.0732 9.75C14.0747 9.75 14.0763 9.75 14.0778 9.75C14.0793 9.75 14.0808 9.75 14.0823 9.75C14.0838 9.75 14.0853 9.75 14.0869 9.75C14.0884 9.75 14.0899 9.75 14.0914 9.75C14.0929 9.75 14.0944 9.75 14.0959 9.75C14.0974 9.75 14.099 9.75 14.1005 9.75C14.102 9.75 14.1035 9.75 14.105 9.75C14.1065 9.75 14.108 9.75 14.1095 9.75C14.1111 9.75 14.1126 9.75 14.1141 9.75C14.1156 9.75 14.1171 9.75 14.1186 9.75C14.1201 9.75 14.1216 9.75 14.1231 9.75C14.1246 9.75 14.1262 9.75 14.1277 9.75C14.1292 9.75 14.1307 9.75 14.1322 9.75C14.1337 9.75 14.1352 9.75 14.1367 9.75C14.1382 9.75 14.1397 9.75 14.1412 9.75C14.1428 9.75 14.1443 9.75 14.1458 9.75C14.1473 9.75 14.1488 9.75 14.1503 9.75C14.1518 9.75 14.1533 9.75 14.1548 9.75C14.1563 9.75 14.1578 9.75 14.1593 9.75C14.1608 9.75 14.1623 9.75 14.1639 9.75C14.1654 9.75 14.1669 9.75 14.1684 9.75C14.1699 9.75 14.1714 9.75 14.1729 9.75C14.1744 9.75 14.1759 9.75 14.1774 9.75C14.1789 9.75 14.1804 9.75 14.1819 9.75C14.1834 9.75 14.1849 9.75 14.1864 9.75C14.188 9.75 14.1895 9.75 14.191 9.75C14.1925 9.75 14.194 9.75 14.1955 9.75C14.197 9.75 14.1985 9.75 14.2 9.75C14.2015 9.75 14.203 9.75 14.2045 9.75C14.206 9.75 14.2075 9.75 14.209 9.75C14.2105 9.75 14.212 9.75 14.2135 9.75C14.215 9.75 14.2165 9.75 14.2181 9.75C14.2196 9.75 14.2211 9.75 14.2226 9.75C14.2241 9.75 14.2256 9.75 14.2271 9.75C14.2286 9.75 14.2301 9.75 14.2316 9.75C14.2331 9.75 14.2346 9.75 14.2361 9.75C14.2376 9.75 14.2391 9.75 14.2406 9.75C14.2421 9.75 14.2436 9.75 14.2451 9.75C14.2466 9.75 14.2481 9.75 14.2496 9.75C14.2511 9.75 14.2526 9.75 14.2541 9.75C14.2556 9.75 14.2572 9.75 14.2587 9.75C14.2602 9.75 14.2617 9.75 14.2632 9.75C14.2647 9.75 14.2662 9.75 14.2677 9.75C14.2692 9.75 14.2707 9.75 14.2722 9.75C14.2737 9.75 14.2752 9.75 14.2767 9.75C14.2782 9.75 14.2797 9.75 14.2812 9.75C14.2827 9.75 14.2842 9.75 14.2857 9.75C14.2872 9.75 14.2887 9.75 14.2902 9.75C14.2917 9.75 14.2932 9.75 14.2947 9.75C14.2962 9.75 14.2978 9.75 14.2993 9.75C14.3008 9.75 14.3023 9.75 14.3038 9.75C14.3053 9.75 14.3068 9.75 14.3083 9.75C14.3098 9.75 14.3113 9.75 14.3128 9.75C14.3143 9.75 14.3158 9.75 14.3173 9.75C14.3188 9.75 14.3203 9.75 14.3218 9.75C14.3233 9.75 14.3248 9.75 14.3263 9.75C14.3278 9.75 14.3293 9.75 14.3309 9.75C14.3324 9.75 14.3339 9.75 14.3354 9.75C14.3369 9.75 14.3384 9.75 14.3399 9.75C14.3414 9.75 14.3429 9.75 14.3444 9.75C14.3459 9.75 14.3474 9.75 14.3489 9.75C14.3504 9.75 14.3519 9.75 14.3534 9.75C14.3549 9.75 14.3564 9.75 14.358 9.75C14.3595 9.75 14.361 9.75 14.3625 9.75C14.364 9.75 14.3655 9.75 14.367 9.75C14.3685 9.75 14.37 9.75 14.3715 9.75C14.373 9.75 14.3745 9.75 14.376 9.75C14.3775 9.75 14.3791 9.75 14.3806 9.75C14.3821 9.75 14.3836 9.75 14.3851 9.75C14.3866 9.75 14.3881 9.75 14.3896 9.75C14.3911 9.75 14.3926 9.75 14.3941 9.75C14.3956 9.75 14.3972 9.75 14.3987 9.75C14.4002 9.75 14.4017 9.75 14.4032 9.75C14.4047 9.75 14.4062 9.75 14.4077 9.75C14.4092 9.75 14.4107 9.75 14.4123 9.75C14.4138 9.75 14.4153 9.75 14.4168 9.75C14.4183 9.75 14.4198 9.75 14.4213 9.75C14.4228 9.75 14.4243 9.75 14.4259 9.75C14.4274 9.75 14.4289 9.75 14.4304 9.75C14.4319 9.75 14.4334 9.75 14.4349 9.75C14.4364 9.75 14.438 9.75 14.4395 9.75C14.441 9.75 14.4425 9.75 14.444 9.75C14.4455 9.75 14.447 9.75 14.4486 9.75C14.4501 9.75 14.4516 9.75 14.4531 9.75C14.4546 9.75 14.4561 9.75 14.4576 9.75C14.4592 9.75 14.4607 9.75 14.4622 9.75C14.4637 9.75 14.4652 9.75 14.4667 9.75C14.4683 9.75 14.4698 9.75 14.4713 9.75C14.4728 9.75 14.4743 9.75 14.4759 9.75C14.4774 9.75 14.4789 9.75 14.4804 9.75C14.4819 9.75 14.4834 9.75 14.485 9.75C14.4865 9.75 14.488 9.75 14.4895 9.75C14.491 9.75 14.4926 9.75 14.4941 9.75C14.4956 9.75 14.4971 9.75 14.4986 9.75C14.5002 9.75 14.5017 9.75 14.5032 9.75C14.5047 9.75 14.5063 9.75 14.5078 9.75C14.5093 9.75 14.5108 9.75 14.5123 9.75C14.5139 9.75 14.5154 9.75 14.5169 9.75C14.5184 9.75 14.52 9.75 14.5215 9.75C14.523 9.75 14.5245 9.75 14.5261 9.75C14.5276 9.75 14.5291 9.75 14.5306 9.75C14.5322 9.75 14.5337 9.75 14.5352 9.75C14.5367 9.75 14.5383 9.75 14.5398 9.75C14.5413 9.75 14.5429 9.75 14.5444 9.75C14.5459 9.75 14.5474 9.75 14.549 9.75C14.5505 9.75 14.552 9.75 14.5536 9.75C14.5551 9.75 14.5566 9.75 14.5581 9.75C14.5597 9.75 14.5612 9.75 14.5627 9.75C14.5643 9.75 14.5658 9.75 14.5673 9.75C14.5689 9.75 14.5704 9.75 14.5719 9.75C14.5735 9.75 14.575 9.75 14.5765 9.75C14.5781 9.75 14.5796 9.75 14.5811 9.75C14.5827 9.75 14.5842 9.75 14.5858 9.75C14.5873 9.75 14.5888 9.75 14.5904 9.75C14.5919 9.75 14.5934 9.75 14.595 9.75C14.5965 9.75 14.5981 9.75 14.5996 9.75C14.6011 9.75 14.6027 9.75 14.6042 9.75C14.6058 9.75 14.6073 9.75 14.6088 9.75C14.6104 9.75 14.6119 9.75 14.6135 9.75C14.615 9.75 14.6165 9.75 14.6181 9.75C14.6196 9.75 14.6212 9.75 14.6227 9.75C14.6243 9.75 14.6258 9.75 14.6273 9.75C14.6289 9.75 14.6304 9.75 14.632 9.75C14.6335 9.75 14.6351 9.75 14.6366 9.75C14.6382 9.75 14.6397 9.75 14.6413 9.75C14.6428 9.75 14.6444 9.75 14.6459 9.75C14.6475 9.75 14.649 9.75 14.6506 9.75C14.6521 9.75 14.6537 9.75 14.6552 9.75C14.6568 9.75 14.6583 9.75 14.6599 9.75C14.6614 9.75 14.663 9.75 14.6645 9.75C14.6661 9.75 14.6676 9.75 14.6692 9.75C14.6707 9.75 14.6723 9.75 14.6739 9.75C14.6754 9.75 14.677 9.75 14.6785 9.75C14.6801 9.75 14.6816 9.75 14.6832 9.75C14.6848 9.75 14.6863 9.75 14.6879 9.75C14.6894 9.75 14.691 9.75 14.6926 9.75C14.6941 9.75 14.6957 9.75 14.6972 9.75C14.6988 9.75 14.7004 9.75 14.7019 9.75C14.7035 9.75 14.7051 9.75 14.7066 9.75C14.7082 9.75 14.7098 9.75 14.7113 9.75C14.7129 9.75 14.7144 9.75 14.716 9.75C14.7176 9.75 14.7191 9.75 14.7207 9.75C14.7223 9.75 14.7239 9.75 14.7254 9.75C14.727 9.75 14.7286 9.75 14.7301 9.75C14.7317 9.75 14.7333 9.75 14.7348 9.75C14.7364 9.75 14.738 9.75 14.7396 9.75C14.7411 9.75 14.7427 9.75 14.7443 9.75C14.7459 9.75 14.7474 9.75 14.749 9.75C14.7506 9.75 14.7522 9.75 14.7537 9.75C14.7553 9.75 14.7569 9.75 14.7585 9.75C14.7601 9.75 14.7616 9.75 14.7632 9.75C14.7648 9.75 14.7664 9.75 14.768 9.75C14.7695 9.75 14.7711 9.75 14.7727 9.75C14.7743 9.75 14.7759 9.75 14.7775 9.75C14.779 9.75 14.7806 9.75 14.7822 9.75C14.7838 9.75 14.7854 9.75 14.787 9.75C14.7886 9.75 14.7902 9.75 14.7917 9.75C14.7933 9.75 14.7949 9.75 14.7965 9.75C14.7981 9.75 14.7997 9.75 14.8013 9.75C14.8029 9.75 14.8045 9.75 14.8061 9.75C14.8077 9.75 14.8093 9.75 14.8109 9.75C14.8124 9.75 14.814 9.75 14.8156 9.75C14.8172 9.75 14.8188 9.75 14.8204 9.75C14.822 9.75 14.8236 9.75 14.8252 9.75C14.8268 9.75 14.8284 9.75 14.83 9.75C14.8316 9.75 14.8332 9.75 14.8348 9.75C14.8364 9.75 14.838 9.75 14.8396 9.75C14.8413 9.75 14.8429 9.75 14.8445 9.75C14.8461 9.75 14.8477 9.75 14.8493 9.75C14.8509 9.75 14.8525 9.75 14.8541 9.75C14.8557 9.75 14.8573 9.75 14.8589 9.75C14.8606 9.75 14.8622 9.75 14.8638 9.75C14.8654 9.75 14.867 9.75 14.8686 9.75C14.8702 9.75 14.8718 9.75 14.8735 9.75C14.8751 9.75 14.8767 9.75 14.8783 9.75C14.8799 9.75 14.8816 9.75 14.8832 9.75C14.8848 9.75 14.8864 9.75 14.888 9.75C14.8897 9.75 14.8913 9.75 14.8929 9.75C14.8945 9.75 14.8961 9.75 14.8978 9.75C14.8994 9.75 14.901 9.75 14.9026 9.75C14.9043 9.75 14.9059 9.75 14.9075 9.75C14.9092 9.75 14.9108 9.75 14.9124 9.75C14.914 9.75 14.9157 9.75 14.9173 9.75C14.9189 9.75 14.9206 9.75 14.9222 9.75C14.9238 9.75 14.9255 9.75 14.9271 9.75C14.9288 9.75 14.9304 9.75 14.932 9.75C14.9337 9.75 14.9353 9.75 14.9369 9.75C14.9386 9.75 14.9402 9.75 14.9419 9.75C14.9435 9.75 14.9451 9.75 14.9468 9.75C14.9484 9.75 14.9501 9.75 14.9517 9.75C14.9534 9.75 14.955 9.75 14.9567 9.75C14.9583 9.75 14.96 9.75 14.9616 9.75C14.9633 9.75 14.9649 9.75 14.9666 9.75C14.9682 9.75 14.9699 9.75 14.9715 9.75C14.9732 9.75 14.9748 9.75 14.9765 9.75C14.9781 9.75 14.9798 9.75 14.9814 9.75C14.9831 9.75 14.9848 9.75 14.9864 9.75C14.9881 9.75 14.9897 9.75 14.9914 9.75C14.9931 9.75 14.9947 9.75 14.9964 9.75C14.998 9.75 14.9997 9.75 15.0014 9.75C15.003 9.75 15.0047 9.75 15.0064 9.75C15.008 9.75 15.0097 9.75 15.0114 9.75C15.013 9.75 15.0147 9.75 15.0164 9.75C15.0181 9.75 15.0197 9.75 15.0214 9.75C15.0231 9.75 15.0247 9.75 15.0264 9.75C15.0281 9.75 15.0298 9.75 15.0314 9.75C15.0331 9.75 15.0348 9.75 15.0365 9.75C15.0382 9.75 15.0398 9.75 15.0415 9.75C15.0432 9.75 15.0449 9.75 15.0466 9.75C15.0483 9.75 15.0499 9.75 15.0516 9.75C15.0533 9.75 15.055 9.75 15.0567 9.75C15.0584 9.75 15.0601 9.75 15.0618 9.75C15.0634 9.75 15.0651 9.75 15.0668 9.75C15.0685 9.75 15.0702 9.75 15.0719 9.75C15.0736 9.75 15.0753 9.75 15.077 9.75C15.0787 9.75 15.0804 9.75 15.0821 9.75C15.0838 9.75 15.0855 9.75 15.0872 9.75C15.0889 9.75 15.0906 9.75 15.0923 9.75C15.094 9.75 15.0957 9.75 15.0974 9.75C15.0991 9.75 15.1008 9.75 15.1025 9.75C15.1042 9.75 15.106 9.75 15.1077 9.75C15.1094 9.75 15.1111 9.75 15.1128 9.75C15.1145 9.75 15.1162 9.75 15.1179 9.75C15.1197 9.75 15.1214 9.75 15.1231 9.75C15.1248 9.75 15.1265 9.75 15.1282 9.75C15.13 9.75 15.1317 9.75 15.1334 9.75C15.1351 9.75 15.1369 9.75 15.1386 9.75C15.1403 9.75 15.142 9.75 15.1438 9.75C15.1455 9.75 15.1472 9.75 15.1489 9.75C15.1507 9.75 15.1524 9.75 15.1541 9.75C15.1559 9.75 15.1576 9.75 15.1593 9.75C15.1611 9.75 15.1628 9.75 15.1645 9.75C15.1663 9.75 15.168 9.75 15.1698 9.75C15.1715 9.75 15.1732 9.75 15.175 9.75C15.1767 9.75 15.1785 9.75 15.1802 9.75C15.182 9.75 15.1837 9.75 15.1854 9.75C15.1872 9.75 15.1889 9.75 15.1907 9.75C15.1924 9.75 15.1942 9.75 15.1959 9.75C15.1977 9.75 15.1994 9.75 15.2012 9.75C15.203 9.75 15.2047 9.75 15.2065 9.75C15.2082 9.75 15.21 9.75 15.2117 9.75C15.2135 9.75 15.2153 9.75 15.217 9.75C15.2188 9.75 15.2205 9.75 15.2223 9.75C15.2241 9.75 15.2258 9.75 15.2276 9.75C15.2294 9.75 15.2311 9.75 15.2329 9.75C15.2347 9.75 15.2365 9.75 15.2382 9.75C15.24 9.75 15.2418 9.75 15.2435 9.75C15.2453 9.75 15.2471 9.75 15.2489 9.75C15.2507 9.75 15.2524 9.75 15.2542 9.75C15.256 9.75 15.2578 9.75 15.2596 9.75C15.2613 9.75 15.2631 9.75 15.2649 9.75C15.2667 9.75 15.2685 9.75 15.2703 9.75C15.2721 9.75 15.2739 9.75 15.2756 9.75C15.2774 9.75 15.2792 9.75 15.281 9.75C15.2828 9.75 15.2846 9.75 15.2864 9.75C15.2882 9.75 15.29 9.75 15.2918 9.75C15.2936 9.75 15.2954 9.75 15.2972 9.75C15.299 9.75 15.3008 9.75 15.3026 9.75C15.3044 9.75 15.3062 9.75 15.308 9.75C15.3098 9.75 15.3117 9.75 15.3135 9.75C15.3153 9.75 15.3171 9.75 15.3189 9.75C15.3207 9.75 15.3225 9.75 15.3243 9.75C15.3262 9.75 15.328 9.75 15.3298 9.75C15.3316 9.75 15.3334 9.75 15.3353 9.75C15.3371 9.75 15.3389 9.75 15.3407 9.75C15.3426 9.75 15.3444 9.75 15.3462 9.75C15.348 9.75 15.3499 9.75 15.3517 9.75C15.3535 9.75 15.3554 9.75 15.3572 9.75C15.359 9.75 15.3609 9.75 15.3627 9.75C15.3645 9.75 15.3664 9.75 15.3682 9.75C15.37 9.75 15.3719 9.75 15.3737 9.75C15.3756 9.75 15.3774 9.75 15.3793 9.75C15.3811 9.75 15.383 9.75 15.3848 9.75C15.3867 9.75 15.3885 9.75 15.3904 9.75C15.3922 9.75 15.3941 9.75 15.3959 9.75C15.3978 9.75 15.3996 9.75 15.4015 9.75C15.4033 9.75 15.4052 9.75 15.4071 9.75C15.4089 9.75 15.4108 9.75 15.4126 9.75C15.4145 9.75 15.4164 9.75 15.4182 9.75C15.4201 9.75 15.422 9.75 15.4238 9.75C15.4257 9.75 15.4276 9.75 15.4295 9.75C15.4313 9.75 15.4332 9.75 15.4351 9.75C15.437 9.75 15.4388 9.75 15.4407 9.75C15.4426 9.75 15.4445 9.75 15.4463 9.75C15.4482 9.75 15.4501 9.75 15.452 9.75C15.4539 9.75 15.4558 9.75 15.4577 9.75C15.4595 9.75 15.4614 9.75 15.4633 9.75C15.4652 9.75 15.4671 9.75 15.469 9.75C15.4709 9.75 15.4728 9.75 15.4747 9.75C15.4766 9.75 15.4785 9.75 15.4804 9.75C15.4823 9.75 15.4842 9.75 15.4861 9.75C15.488 9.75 15.4899 9.75 15.4918 9.75C15.4937 9.75 15.4956 9.75 15.4975 9.75C15.4995 9.75 15.5014 9.75 15.5033 9.75C15.5052 9.75 15.5071 9.75 15.509 9.75C15.5109 9.75 15.5129 9.75 15.5148 9.75C15.5167 9.75 15.5186 9.75 15.5205 9.75C15.5225 9.75 15.5244 9.75 15.5263 9.75V8.25C15.5244 8.25 15.5225 8.25 15.5205 8.25C15.5186 8.25 15.5167 8.25 15.5148 8.25C15.5129 8.25 15.5109 8.25 15.509 8.25C15.5071 8.25 15.5052 8.25 15.5033 8.25C15.5014 8.25 15.4995 8.25 15.4975 8.25C15.4956 8.25 15.4937 8.25 15.4918 8.25C15.4899 8.25 15.488 8.25 15.4861 8.25C15.4842 8.25 15.4823 8.25 15.4804 8.25C15.4785 8.25 15.4766 8.25 15.4747 8.25C15.4728 8.25 15.4709 8.25 15.469 8.25C15.4671 8.25 15.4652 8.25 15.4633 8.25C15.4614 8.25 15.4595 8.25 15.4577 8.25C15.4558 8.25 15.4539 8.25 15.452 8.25C15.4501 8.25 15.4482 8.25 15.4463 8.25C15.4445 8.25 15.4426 8.25 15.4407 8.25C15.4388 8.25 15.437 8.25 15.4351 8.25C15.4332 8.25 15.4313 8.25 15.4295 8.25C15.4276 8.25 15.4257 8.25 15.4238 8.25C15.422 8.25 15.4201 8.25 15.4182 8.25C15.4164 8.25 15.4145 8.25 15.4126 8.25C15.4108 8.25 15.4089 8.25 15.4071 8.25C15.4052 8.25 15.4033 8.25 15.4015 8.25C15.3996 8.25 15.3978 8.25 15.3959 8.25C15.3941 8.25 15.3922 8.25 15.3904 8.25C15.3885 8.25 15.3867 8.25 15.3848 8.25C15.383 8.25 15.3811 8.25 15.3793 8.25C15.3774 8.25 15.3756 8.25 15.3737 8.25C15.3719 8.25 15.37 8.25 15.3682 8.25C15.3664 8.25 15.3645 8.25 15.3627 8.25C15.3609 8.25 15.359 8.25 15.3572 8.25C15.3554 8.25 15.3535 8.25 15.3517 8.25C15.3499 8.25 15.348 8.25 15.3462 8.25C15.3444 8.25 15.3426 8.25 15.3407 8.25C15.3389 8.25 15.3371 8.25 15.3353 8.25C15.3334 8.25 15.3316 8.25 15.3298 8.25C15.328 8.25 15.3262 8.25 15.3243 8.25C15.3225 8.25 15.3207 8.25 15.3189 8.25C15.3171 8.25 15.3153 8.25 15.3135 8.25C15.3117 8.25 15.3098 8.25 15.308 8.25C15.3062 8.25 15.3044 8.25 15.3026 8.25C15.3008 8.25 15.299 8.25 15.2972 8.25C15.2954 8.25 15.2936 8.25 15.2918 8.25C15.29 8.25 15.2882 8.25 15.2864 8.25C15.2846 8.25 15.2828 8.25 15.281 8.25C15.2792 8.25 15.2774 8.25 15.2756 8.25C15.2739 8.25 15.2721 8.25 15.2703 8.25C15.2685 8.25 15.2667 8.25 15.2649 8.25C15.2631 8.25 15.2613 8.25 15.2596 8.25C15.2578 8.25 15.256 8.25 15.2542 8.25C15.2524 8.25 15.2507 8.25 15.2489 8.25C15.2471 8.25 15.2453 8.25 15.2435 8.25C15.2418 8.25 15.24 8.25 15.2382 8.25C15.2365 8.25 15.2347 8.25 15.2329 8.25C15.2311 8.25 15.2294 8.25 15.2276 8.25C15.2258 8.25 15.2241 8.25 15.2223 8.25C15.2205 8.25 15.2188 8.25 15.217 8.25C15.2153 8.25 15.2135 8.25 15.2117 8.25C15.21 8.25 15.2082 8.25 15.2065 8.25C15.2047 8.25 15.203 8.25 15.2012 8.25C15.1994 8.25 15.1977 8.25 15.1959 8.25C15.1942 8.25 15.1924 8.25 15.1907 8.25C15.1889 8.25 15.1872 8.25 15.1854 8.25C15.1837 8.25 15.182 8.25 15.1802 8.25C15.1785 8.25 15.1767 8.25 15.175 8.25C15.1732 8.25 15.1715 8.25 15.1698 8.25C15.168 8.25 15.1663 8.25 15.1645 8.25C15.1628 8.25 15.1611 8.25 15.1593 8.25C15.1576 8.25 15.1559 8.25 15.1541 8.25C15.1524 8.25 15.1507 8.25 15.1489 8.25C15.1472 8.25 15.1455 8.25 15.1438 8.25C15.142 8.25 15.1403 8.25 15.1386 8.25C15.1369 8.25 15.1351 8.25 15.1334 8.25C15.1317 8.25 15.13 8.25 15.1282 8.25C15.1265 8.25 15.1248 8.25 15.1231 8.25C15.1214 8.25 15.1197 8.25 15.1179 8.25C15.1162 8.25 15.1145 8.25 15.1128 8.25C15.1111 8.25 15.1094 8.25 15.1077 8.25C15.106 8.25 15.1042 8.25 15.1025 8.25C15.1008 8.25 15.0991 8.25 15.0974 8.25C15.0957 8.25 15.094 8.25 15.0923 8.25C15.0906 8.25 15.0889 8.25 15.0872 8.25C15.0855 8.25 15.0838 8.25 15.0821 8.25C15.0804 8.25 15.0787 8.25 15.077 8.25C15.0753 8.25 15.0736 8.25 15.0719 8.25C15.0702 8.25 15.0685 8.25 15.0668 8.25C15.0651 8.25 15.0634 8.25 15.0618 8.25C15.0601 8.25 15.0584 8.25 15.0567 8.25C15.055 8.25 15.0533 8.25 15.0516 8.25C15.0499 8.25 15.0483 8.25 15.0466 8.25C15.0449 8.25 15.0432 8.25 15.0415 8.25C15.0398 8.25 15.0382 8.25 15.0365 8.25C15.0348 8.25 15.0331 8.25 15.0314 8.25C15.0298 8.25 15.0281 8.25 15.0264 8.25C15.0247 8.25 15.0231 8.25 15.0214 8.25C15.0197 8.25 15.0181 8.25 15.0164 8.25C15.0147 8.25 15.013 8.25 15.0114 8.25C15.0097 8.25 15.008 8.25 15.0064 8.25C15.0047 8.25 15.003 8.25 15.0014 8.25C14.9997 8.25 14.998 8.25 14.9964 8.25C14.9947 8.25 14.9931 8.25 14.9914 8.25C14.9897 8.25 14.9881 8.25 14.9864 8.25C14.9848 8.25 14.9831 8.25 14.9814 8.25C14.9798 8.25 14.9781 8.25 14.9765 8.25C14.9748 8.25 14.9732 8.25 14.9715 8.25C14.9699 8.25 14.9682 8.25 14.9666 8.25C14.9649 8.25 14.9633 8.25 14.9616 8.25C14.96 8.25 14.9583 8.25 14.9567 8.25C14.955 8.25 14.9534 8.25 14.9517 8.25C14.9501 8.25 14.9484 8.25 14.9468 8.25C14.9451 8.25 14.9435 8.25 14.9419 8.25C14.9402 8.25 14.9386 8.25 14.9369 8.25C14.9353 8.25 14.9337 8.25 14.932 8.25C14.9304 8.25 14.9288 8.25 14.9271 8.25C14.9255 8.25 14.9238 8.25 14.9222 8.25C14.9206 8.25 14.9189 8.25 14.9173 8.25C14.9157 8.25 14.914 8.25 14.9124 8.25C14.9108 8.25 14.9092 8.25 14.9075 8.25C14.9059 8.25 14.9043 8.25 14.9026 8.25C14.901 8.25 14.8994 8.25 14.8978 8.25C14.8961 8.25 14.8945 8.25 14.8929 8.25C14.8913 8.25 14.8897 8.25 14.888 8.25C14.8864 8.25 14.8848 8.25 14.8832 8.25C14.8816 8.25 14.8799 8.25 14.8783 8.25C14.8767 8.25 14.8751 8.25 14.8735 8.25C14.8718 8.25 14.8702 8.25 14.8686 8.25C14.867 8.25 14.8654 8.25 14.8638 8.25C14.8622 8.25 14.8606 8.25 14.8589 8.25C14.8573 8.25 14.8557 8.25 14.8541 8.25C14.8525 8.25 14.8509 8.25 14.8493 8.25C14.8477 8.25 14.8461 8.25 14.8445 8.25C14.8429 8.25 14.8413 8.25 14.8396 8.25C14.838 8.25 14.8364 8.25 14.8348 8.25C14.8332 8.25 14.8316 8.25 14.83 8.25C14.8284 8.25 14.8268 8.25 14.8252 8.25C14.8236 8.25 14.822 8.25 14.8204 8.25C14.8188 8.25 14.8172 8.25 14.8156 8.25C14.814 8.25 14.8124 8.25 14.8109 8.25C14.8093 8.25 14.8077 8.25 14.8061 8.25C14.8045 8.25 14.8029 8.25 14.8013 8.25C14.7997 8.25 14.7981 8.25 14.7965 8.25C14.7949 8.25 14.7933 8.25 14.7917 8.25C14.7902 8.25 14.7886 8.25 14.787 8.25C14.7854 8.25 14.7838 8.25 14.7822 8.25C14.7806 8.25 14.779 8.25 14.7775 8.25C14.7759 8.25 14.7743 8.25 14.7727 8.25C14.7711 8.25 14.7695 8.25 14.768 8.25C14.7664 8.25 14.7648 8.25 14.7632 8.25C14.7616 8.25 14.7601 8.25 14.7585 8.25C14.7569 8.25 14.7553 8.25 14.7537 8.25C14.7522 8.25 14.7506 8.25 14.749 8.25C14.7474 8.25 14.7459 8.25 14.7443 8.25C14.7427 8.25 14.7411 8.25 14.7396 8.25C14.738 8.25 14.7364 8.25 14.7348 8.25C14.7333 8.25 14.7317 8.25 14.7301 8.25C14.7286 8.25 14.727 8.25 14.7254 8.25C14.7239 8.25 14.7223 8.25 14.7207 8.25C14.7191 8.25 14.7176 8.25 14.716 8.25C14.7144 8.25 14.7129 8.25 14.7113 8.25C14.7098 8.25 14.7082 8.25 14.7066 8.25C14.7051 8.25 14.7035 8.25 14.7019 8.25C14.7004 8.25 14.6988 8.25 14.6972 8.25C14.6957 8.25 14.6941 8.25 14.6926 8.25C14.691 8.25 14.6894 8.25 14.6879 8.25C14.6863 8.25 14.6848 8.25 14.6832 8.25C14.6816 8.25 14.6801 8.25 14.6785 8.25C14.677 8.25 14.6754 8.25 14.6739 8.25C14.6723 8.25 14.6707 8.25 14.6692 8.25C14.6676 8.25 14.6661 8.25 14.6645 8.25C14.663 8.25 14.6614 8.25 14.6599 8.25C14.6583 8.25 14.6568 8.25 14.6552 8.25C14.6537 8.25 14.6521 8.25 14.6506 8.25C14.649 8.25 14.6475 8.25 14.6459 8.25C14.6444 8.25 14.6428 8.25 14.6413 8.25C14.6397 8.25 14.6382 8.25 14.6366 8.25C14.6351 8.25 14.6335 8.25 14.632 8.25C14.6304 8.25 14.6289 8.25 14.6273 8.25C14.6258 8.25 14.6243 8.25 14.6227 8.25C14.6212 8.25 14.6196 8.25 14.6181 8.25C14.6165 8.25 14.615 8.25 14.6135 8.25C14.6119 8.25 14.6104 8.25 14.6088 8.25C14.6073 8.25 14.6058 8.25 14.6042 8.25C14.6027 8.25 14.6011 8.25 14.5996 8.25C14.5981 8.25 14.5965 8.25 14.595 8.25C14.5934 8.25 14.5919 8.25 14.5904 8.25C14.5888 8.25 14.5873 8.25 14.5858 8.25C14.5842 8.25 14.5827 8.25 14.5811 8.25C14.5796 8.25 14.5781 8.25 14.5765 8.25C14.575 8.25 14.5735 8.25 14.5719 8.25C14.5704 8.25 14.5689 8.25 14.5673 8.25C14.5658 8.25 14.5643 8.25 14.5627 8.25C14.5612 8.25 14.5597 8.25 14.5581 8.25C14.5566 8.25 14.5551 8.25 14.5536 8.25C14.552 8.25 14.5505 8.25 14.549 8.25C14.5474 8.25 14.5459 8.25 14.5444 8.25C14.5429 8.25 14.5413 8.25 14.5398 8.25C14.5383 8.25 14.5367 8.25 14.5352 8.25C14.5337 8.25 14.5322 8.25 14.5306 8.25C14.5291 8.25 14.5276 8.25 14.5261 8.25C14.5245 8.25 14.523 8.25 14.5215 8.25C14.52 8.25 14.5184 8.25 14.5169 8.25C14.5154 8.25 14.5139 8.25 14.5123 8.25C14.5108 8.25 14.5093 8.25 14.5078 8.25C14.5063 8.25 14.5047 8.25 14.5032 8.25C14.5017 8.25 14.5002 8.25 14.4986 8.25C14.4971 8.25 14.4956 8.25 14.4941 8.25C14.4926 8.25 14.491 8.25 14.4895 8.25C14.488 8.25 14.4865 8.25 14.485 8.25C14.4834 8.25 14.4819 8.25 14.4804 8.25C14.4789 8.25 14.4774 8.25 14.4759 8.25C14.4743 8.25 14.4728 8.25 14.4713 8.25C14.4698 8.25 14.4683 8.25 14.4667 8.25C14.4652 8.25 14.4637 8.25 14.4622 8.25C14.4607 8.25 14.4592 8.25 14.4576 8.25C14.4561 8.25 14.4546 8.25 14.4531 8.25C14.4516 8.25 14.4501 8.25 14.4486 8.25C14.447 8.25 14.4455 8.25 14.444 8.25C14.4425 8.25 14.441 8.25 14.4395 8.25C14.438 8.25 14.4364 8.25 14.4349 8.25C14.4334 8.25 14.4319 8.25 14.4304 8.25C14.4289 8.25 14.4274 8.25 14.4259 8.25C14.4243 8.25 14.4228 8.25 14.4213 8.25C14.4198 8.25 14.4183 8.25 14.4168 8.25C14.4153 8.25 14.4138 8.25 14.4123 8.25C14.4107 8.25 14.4092 8.25 14.4077 8.25C14.4062 8.25 14.4047 8.25 14.4032 8.25C14.4017 8.25 14.4002 8.25 14.3987 8.25C14.3972 8.25 14.3956 8.25 14.3941 8.25C14.3926 8.25 14.3911 8.25 14.3896 8.25C14.3881 8.25 14.3866 8.25 14.3851 8.25C14.3836 8.25 14.3821 8.25 14.3806 8.25C14.3791 8.25 14.3775 8.25 14.376 8.25C14.3745 8.25 14.373 8.25 14.3715 8.25C14.37 8.25 14.3685 8.25 14.367 8.25C14.3655 8.25 14.364 8.25 14.3625 8.25C14.361 8.25 14.3595 8.25 14.358 8.25C14.3564 8.25 14.3549 8.25 14.3534 8.25C14.3519 8.25 14.3504 8.25 14.3489 8.25C14.3474 8.25 14.3459 8.25 14.3444 8.25C14.3429 8.25 14.3414 8.25 14.3399 8.25C14.3384 8.25 14.3369 8.25 14.3354 8.25C14.3339 8.25 14.3324 8.25 14.3309 8.25C14.3293 8.25 14.3278 8.25 14.3263 8.25C14.3248 8.25 14.3233 8.25 14.3218 8.25C14.3203 8.25 14.3188 8.25 14.3173 8.25C14.3158 8.25 14.3143 8.25 14.3128 8.25C14.3113 8.25 14.3098 8.25 14.3083 8.25C14.3068 8.25 14.3053 8.25 14.3038 8.25C14.3023 8.25 14.3008 8.25 14.2993 8.25C14.2978 8.25 14.2962 8.25 14.2947 8.25C14.2932 8.25 14.2917 8.25 14.2902 8.25C14.2887 8.25 14.2872 8.25 14.2857 8.25C14.2842 8.25 14.2827 8.25 14.2812 8.25C14.2797 8.25 14.2782 8.25 14.2767 8.25C14.2752 8.25 14.2737 8.25 14.2722 8.25C14.2707 8.25 14.2692 8.25 14.2677 8.25C14.2662 8.25 14.2647 8.25 14.2632 8.25C14.2617 8.25 14.2602 8.25 14.2587 8.25C14.2572 8.25 14.2556 8.25 14.2541 8.25C14.2526 8.25 14.2511 8.25 14.2496 8.25C14.2481 8.25 14.2466 8.25 14.2451 8.25C14.2436 8.25 14.2421 8.25 14.2406 8.25C14.2391 8.25 14.2376 8.25 14.2361 8.25C14.2346 8.25 14.2331 8.25 14.2316 8.25C14.2301 8.25 14.2286 8.25 14.2271 8.25C14.2256 8.25 14.2241 8.25 14.2226 8.25C14.2211 8.25 14.2196 8.25 14.2181 8.25C14.2165 8.25 14.215 8.25 14.2135 8.25C14.212 8.25 14.2105 8.25 14.209 8.25C14.2075 8.25 14.206 8.25 14.2045 8.25C14.203 8.25 14.2015 8.25 14.2 8.25C14.1985 8.25 14.197 8.25 14.1955 8.25C14.194 8.25 14.1925 8.25 14.191 8.25C14.1895 8.25 14.188 8.25 14.1864 8.25C14.1849 8.25 14.1834 8.25 14.1819 8.25C14.1804 8.25 14.1789 8.25 14.1774 8.25C14.1759 8.25 14.1744 8.25 14.1729 8.25C14.1714 8.25 14.1699 8.25 14.1684 8.25C14.1669 8.25 14.1654 8.25 14.1639 8.25C14.1623 8.25 14.1608 8.25 14.1593 8.25C14.1578 8.25 14.1563 8.25 14.1548 8.25C14.1533 8.25 14.1518 8.25 14.1503 8.25C14.1488 8.25 14.1473 8.25 14.1458 8.25C14.1443 8.25 14.1428 8.25 14.1412 8.25C14.1397 8.25 14.1382 8.25 14.1367 8.25C14.1352 8.25 14.1337 8.25 14.1322 8.25C14.1307 8.25 14.1292 8.25 14.1277 8.25C14.1262 8.25 14.1246 8.25 14.1231 8.25C14.1216 8.25 14.1201 8.25 14.1186 8.25C14.1171 8.25 14.1156 8.25 14.1141 8.25C14.1126 8.25 14.1111 8.25 14.1095 8.25C14.108 8.25 14.1065 8.25 14.105 8.25C14.1035 8.25 14.102 8.25 14.1005 8.25C14.099 8.25 14.0974 8.25 14.0959 8.25C14.0944 8.25 14.0929 8.25 14.0914 8.25C14.0899 8.25 14.0884 8.25 14.0869 8.25C14.0853 8.25 14.0838 8.25 14.0823 8.25C14.0808 8.25 14.0793 8.25 14.0778 8.25C14.0763 8.25 14.0747 8.25 14.0732 8.25C14.0717 8.25 14.0702 8.25 14.0687 8.25C14.0672 8.25 14.0657 8.25 14.0641 8.25C14.0626 8.25 14.0611 8.25 14.0596 8.25C14.0581 8.25 14.0566 8.25 14.055 8.25C14.0535 8.25 14.052 8.25 14.0505 8.25C14.049 8.25 14.0474 8.25 14.0459 8.25C14.0444 8.25 14.0429 8.25 14.0414 8.25C14.0399 8.25 14.0383 8.25 14.0368 8.25C14.0353 8.25 14.0338 8.25 14.0323 8.25C14.0307 8.25 14.0292 8.25 14.0277 8.25C14.0262 8.25 14.0246 8.25 14.0231 8.25C14.0216 8.25 14.0201 8.25 14.0186 8.25C14.017 8.25 14.0155 8.25 14.014 8.25C14.0125 8.25 14.0109 8.25 14.0094 8.25C14.0079 8.25 14.0064 8.25 14.0048 8.25C14.0033 8.25 14.0018 8.25 14.0003 8.25C13.9987 8.25 13.9972 8.25 13.9957 8.25C13.9942 8.25 13.9926 8.25 13.9911 8.25C13.9896 8.25 13.9881 8.25 13.9865 8.25C13.985 8.25 13.9835 8.25 13.9819 8.25C13.9804 8.25 13.9789 8.25 13.9774 8.25C13.9758 8.25 13.9743 8.25 13.9728 8.25C13.9712 8.25 13.9697 8.25 13.9682 8.25C13.9667 8.25 13.9651 8.25 13.9636 8.25C13.9621 8.25 13.9605 8.25 13.959 8.25C13.9575 8.25 13.9559 8.25 13.9544 8.25C13.9529 8.25 13.9513 8.25 13.9498 8.25C13.9483 8.25 13.9467 8.25 13.9452 8.25C13.9437 8.25 13.9421 8.25 13.9406 8.25C13.939 8.25 13.9375 8.25 13.936 8.25C13.9344 8.25 13.9329 8.25 13.9314 8.25C13.9298 8.25 13.9283 8.25 13.9267 8.25C13.9252 8.25 13.9237 8.25 13.9221 8.25C13.9206 8.25 13.919 8.25 13.9175 8.25C13.916 8.25 13.9144 8.25 13.9129 8.25C13.9113 8.25 13.9098 8.25 13.9082 8.25C13.9067 8.25 13.9052 8.25 13.9036 8.25C13.9021 8.25 13.9005 8.25 13.899 8.25C13.8974 8.25 13.8959 8.25 13.8943 8.25C13.8928 8.25 13.8913 8.25 13.8897 8.25C13.8882 8.25 13.8866 8.25 13.8851 8.25C13.8835 8.25 13.882 8.25 13.8804 8.25C13.8789 8.25 13.8773 8.25 13.8758 8.25C13.8742 8.25 13.8727 8.25 13.8711 8.25C13.8696 8.25 13.868 8.25 13.8665 8.25C13.8649 8.25 13.8634 8.25 13.8618 8.25C13.8602 8.25 13.8587 8.25 13.8571 8.25C13.8556 8.25 13.854 8.25 13.8525 8.25C13.8509 8.25 13.8494 8.25 13.8478 8.25C13.8462 8.25 13.8447 8.25 13.8431 8.25C13.8416 8.25 13.84 8.25 13.8385 8.25C13.8369 8.25 13.8353 8.25 13.8338 8.25C13.8322 8.25 13.8307 8.25 13.8291 8.25C13.8275 8.25 13.826 8.25 13.8244 8.25C13.8228 8.25 13.8213 8.25 13.8197 8.25C13.8181 8.25 13.8166 8.25 13.815 8.25C13.8135 8.25 13.8119 8.25 13.8103 8.25C13.8088 8.25 13.8072 8.25 13.8056 8.25C13.804 8.25 13.8025 8.25 13.8009 8.25C13.7993 8.25 13.7978 8.25 13.7962 8.25C13.7946 8.25 13.7931 8.25 13.7915 8.25C13.7899 8.25 13.7883 8.25 13.7868 8.25C13.7852 8.25 13.7836 8.25 13.782 8.25C13.7805 8.25 13.7789 8.25 13.7773 8.25C13.7757 8.25 13.7742 8.25 13.7726 8.25C13.771 8.25 13.7694 8.25 13.7678 8.25C13.7663 8.25 13.7647 8.25 13.7631 8.25C13.7615 8.25 13.7599 8.25 13.7584 8.25C13.7568 8.25 13.7552 8.25 13.7536 8.25C13.752 8.25 13.7505 8.25 13.7489 8.25C13.7473 8.25 13.7457 8.25 13.7441 8.25C13.7425 8.25 13.7409 8.25 13.7394 8.25C13.7378 8.25 13.7362 8.25 13.7346 8.25C13.733 8.25 13.7314 8.25 13.7298 8.25C13.7282 8.25 13.7266 8.25 13.725 8.25C13.7235 8.25 13.7219 8.25 13.7203 8.25C13.7187 8.25 13.7171 8.25 13.7155 8.25C13.7139 8.25 13.7123 8.25 13.7107 8.25C13.7091 8.25 13.7075 8.25 13.7059 8.25C13.7043 8.25 13.7027 8.25 13.7011 8.25C13.6995 8.25 13.6979 8.25 13.6963 8.25C13.6947 8.25 13.6931 8.25 13.6915 8.25C13.6899 8.25 13.6883 8.25 13.6867 8.25C13.6851 8.25 13.6835 8.25 13.6819 8.25C13.6803 8.25 13.6787 8.25 13.677 8.25C13.6754 8.25 13.6738 8.25 13.6722 8.25C13.6706 8.25 13.669 8.25 13.6674 8.25C13.6658 8.25 13.6642 8.25 13.6626 8.25C13.6609 8.25 13.6593 8.25 13.6577 8.25C13.6561 8.25 13.6545 8.25 13.6529 8.25C13.6513 8.25 13.6496 8.25 13.648 8.25C13.6464 8.25 13.6448 8.25 13.6432 8.25C13.6415 8.25 13.6399 8.25 13.6383 8.25C13.6367 8.25 13.6351 8.25 13.6334 8.25C13.6318 8.25 13.6302 8.25 13.6286 8.25C13.6269 8.25 13.6253 8.25 13.6237 8.25C13.6221 8.25 13.6204 8.25 13.6188 8.25C13.6172 8.25 13.6155 8.25 13.6139 8.25C13.6123 8.25 13.6107 8.25 13.609 8.25C13.6074 8.25 13.6058 8.25 13.6041 8.25C13.6025 8.25 13.6009 8.25 13.5992 8.25C13.5976 8.25 13.5959 8.25 13.5943 8.25C13.5927 8.25 13.591 8.25 13.5894 8.25C13.5878 8.25 13.5861 8.25 13.5845 8.25C13.5828 8.25 13.5812 8.25 13.5795 8.25C13.5779 8.25 13.5763 8.25 13.5746 8.25C13.573 8.25 13.5713 8.25 13.5697 8.25C13.568 8.25 13.5664 8.25 13.5647 8.25C13.5631 8.25 13.5614 8.25 13.5598 8.25C13.5581 8.25 13.5565 8.25 13.5548 8.25C13.5532 8.25 13.5515 8.25 13.5499 8.25C13.5482 8.25 13.5466 8.25 13.5449 8.25C13.5432 8.25 13.5416 8.25 13.5399 8.25C13.5383 8.25 13.5366 8.25 13.5349 8.25C13.5333 8.25 13.5316 8.25 13.53 8.25C13.5283 8.25 13.5266 8.25 13.525 8.25C13.5233 8.25 13.5216 8.25 13.52 8.25C13.5183 8.25 13.5166 8.25 13.515 8.25C13.5133 8.25 13.5116 8.25 13.51 8.25C13.5083 8.25 13.5066 8.25 13.5049 8.25C13.5033 8.25 13.5016 8.25 13.4999 8.25C13.4982 8.25 13.4966 8.25 13.4949 8.25C13.4932 8.25 13.4915 8.25 13.4898 8.25C13.4882 8.25 13.4865 8.25 13.4848 8.25C13.4831 8.25 13.4814 8.25 13.4798 8.25C13.4781 8.25 13.4764 8.25 13.4747 8.25C13.473 8.25 13.4713 8.25 13.4696 8.25C13.468 8.25 13.4663 8.25 13.4646 8.25C13.4629 8.25 13.4612 8.25 13.4595 8.25C13.4578 8.25 13.4561 8.25 13.4544 8.25C13.4527 8.25 13.451 8.25 13.4493 8.25C13.4476 8.25 13.4459 8.25 13.4442 8.25C13.4425 8.25 13.4408 8.25 13.4391 8.25C13.4374 8.25 13.4357 8.25 13.434 8.25C13.4323 8.25 13.4306 8.25 13.4289 8.25C13.4272 8.25 13.4255 8.25 13.4238 8.25C13.4221 8.25 13.4204 8.25 13.4187 8.25C13.417 8.25 13.4152 8.25 13.4135 8.25C13.4118 8.25 13.4101 8.25 13.4084 8.25C13.4067 8.25 13.405 8.25 13.4032 8.25C13.4015 8.25 13.3998 8.25 13.3981 8.25C13.3964 8.25 13.3946 8.25 13.3929 8.25C13.3912 8.25 13.3895 8.25 13.3877 8.25C13.386 8.25 13.3843 8.25 13.3826 8.25C13.3808 8.25 13.3791 8.25 13.3774 8.25C13.3757 8.25 13.3739 8.25 13.3722 8.25C13.3705 8.25 13.3687 8.25 13.367 8.25C13.3653 8.25 13.3635 8.25 13.3618 8.25C13.3601 8.25 13.3583 8.25 13.3566 8.25C13.3548 8.25 13.3531 8.25 13.3514 8.25C13.3496 8.25 13.3479 8.25 13.3461 8.25C13.3444 8.25 13.3426 8.25 13.3409 8.25C13.3391 8.25 13.3374 8.25 13.3356 8.25C13.3339 8.25 13.3321 8.25 13.3304 8.25C13.3286 8.25 13.3269 8.25 13.3251 8.25C13.3234 8.25 13.3216 8.25 13.3199 8.25C13.3181 8.25 13.3164 8.25 13.3146 8.25C13.3128 8.25 13.3111 8.25 13.3093 8.25C13.3075 8.25 13.3058 8.25 13.304 8.25C13.3023 8.25 13.3005 8.25 13.2987 8.25C13.297 8.25 13.2952 8.25 13.2934 8.25C13.2916 8.25 13.2899 8.25 13.2881 8.25C13.2863 8.25 13.2846 8.25 13.2828 8.25C13.281 8.25 13.2792 8.25 13.2775 8.25C13.2757 8.25 13.2739 8.25 13.2721 8.25C13.2703 8.25 13.2686 8.25 13.2668 8.25C13.265 8.25 13.2632 8.25 13.2614 8.25C13.2596 8.25 13.2578 8.25 13.2561 8.25C13.2543 8.25 13.2525 8.25 13.2507 8.25C13.2489 8.25 13.2471 8.25 13.2453 8.25C13.2435 8.25 13.2417 8.25 13.2399 8.25C13.2381 8.25 13.2363 8.25 13.2345 8.25C13.2327 8.25 13.2309 8.25 13.2291 8.25C13.2273 8.25 13.2255 8.25 13.2237 8.25C13.2219 8.25 13.2201 8.25 13.2183 8.25C13.2165 8.25 13.2147 8.25 13.2129 8.25C13.2111 8.25 13.2092 8.25 13.2074 8.25C13.2056 8.25 13.2038 8.25 13.202 8.25C13.2002 8.25 13.1984 8.25 13.1965 8.25C13.1947 8.25 13.1929 8.25 13.1911 8.25C13.1893 8.25 13.1874 8.25 13.1856 8.25C13.1838 8.25 13.182 8.25 13.1801 8.25C13.1783 8.25 13.1765 8.25 13.1746 8.25C13.1728 8.25 13.171 8.25 13.1691 8.25C13.1673 8.25 13.1655 8.25 13.1636 8.25C13.1618 8.25 13.16 8.25 13.1581 8.25C13.1563 8.25 13.1544 8.25 13.1526 8.25C13.1508 8.25 13.1489 8.25 13.1471 8.25C13.1452 8.25 13.1434 8.25 13.1415 8.25C13.1397 8.25 13.1378 8.25 13.136 8.25C13.1341 8.25 13.1323 8.25 13.1304 8.25C13.1286 8.25 13.1267 8.25 13.1249 8.25C13.123 8.25 13.1211 8.25 13.1193 8.25C13.1174 8.25 13.1156 8.25 13.1137 8.25C13.1118 8.25 13.11 8.25 13.1081 8.25C13.1062 8.25 13.1044 8.25 13.1025 8.25C13.1006 8.25 13.0988 8.25 13.0969 8.25C13.095 8.25 13.0931 8.25 13.0913 8.25C13.0894 8.25 13.0875 8.25 13.0856 8.25C13.0837 8.25 13.0819 8.25 13.08 8.25C13.0781 8.25 13.0762 8.25 13.0743 8.25C13.0724 8.25 13.0706 8.25 13.0687 8.25C13.0668 8.25 13.0649 8.25 13.063 8.25C13.0611 8.25 13.0592 8.25 13.0573 8.25C13.0554 8.25 13.0535 8.25 13.0516 8.25C13.0497 8.25 13.0478 8.25 13.0459 8.25C13.044 8.25 13.0421 8.25 13.0402 8.25C13.0383 8.25 13.0364 8.25 13.0345 8.25C13.0326 8.25 13.0307 8.25 13.0288 8.25C13.0269 8.25 13.025 8.25 13.0231 8.25C13.0211 8.25 13.0192 8.25 13.0173 8.25C13.0154 8.25 13.0135 8.25 13.0115 8.25C13.0096 8.25 13.0077 8.25 13.0058 8.25C13.0039 8.25 13.0019 8.25 13 8.25V9.75ZM13 12.75H15V11.25H13V12.75ZM20.25 15.0769V9H18.75V15.0769H20.25ZM3.88162 14.3846C3.88162 14.292 3.95313 14.25 4.00005 14.25V15.75C4.74459 15.75 5.38162 15.1569 5.38162 14.3846H3.88162ZM4.00005 14.25C4.04696 14.25 4.11847 14.292 4.11847 14.3846H2.61847C2.61847 15.1569 3.25551 15.75 4.00005 15.75V14.25ZM4.11847 14.3846C4.11847 14.4772 4.04696 14.5192 4.00005 14.5192V13.0192C3.2555 13.0192 2.61847 13.6123 2.61847 14.3846H4.11847ZM4.00005 14.5192C3.95313 14.5192 3.88162 14.4772 3.88162 14.3846H5.38162C5.38162 13.6123 4.74459 13.0192 4.00005 13.0192V14.5192ZM13.75 15V12H12.25V15H13.75ZM13.75 12V9H12.25V12H13.75ZM18 9.75H19.5V8.25H18V9.75ZM19.5 9.75H21V8.25H19.5V9.75Z" fill="black"/>
</svg>
