<svg width="24" height="24" viewBox="0 0 24 24" fill="none" xmlns="http://www.w3.org/2000/svg">
<path d="M19.1738 12C19.1738 15.866 15.9876 19 12.0573 19C10.1821 19 8.47636 18.2866 7.20518 17.1207C5.81201 15.8429 3 12 3 12C3 12 5.81201 8.15713 7.20518 6.87931C8.47636 5.71339 10.1821 5 12.0573 5C15.9876 5 19.1738 8.13401 19.1738 12Z" stroke="black" stroke-width="1.5"/>
<path d="M21.6765 11.6818V12.3182L22 12L21.6765 11.6818Z" stroke="black" stroke-width="1.5"/>
<path d="M15 12C15 13.6569 13.6569 15 12 15C10.3431 15 9 13.6569 9 12C9 10.3431 10.3431 9 12 9C13.6569 9 15 10.3431 15 12Z" stroke="black" stroke-width="1.5"/>
</svg>
