<svg width="24" height="24" viewBox="0 0 24 24" fill="none" xmlns="http://www.w3.org/2000/svg">
<path d="M13.1111 3H7.59723L5.7037 5.77666M13.1111 3H16.4444L19.2222 5.26503V7.5M13.1111 3V21M3.60578 9.27459L2 12L3.60578 14.7168M6.02873 18.1852L8.17284 21H13.1111M13.1111 21L16.4444 21L19.2222 18.75V16.5L22 14.25V9.75L19.2222 7.5M6.97211 6.54182L4.85427 10.0894M7.24871 17.3465L4.82615 13.8774M19.2222 7.5L17.5556 9.75L19.7778 12M16.4444 13.125L19.5871 16.307M13.1111 6.375L16.4444 6.375M13.1111 17.625H16.4444M13.1111 14.25C11.8838 14.25 10.8889 13.2426 10.8889 12C10.8889 10.7574 11.8838 9.75 13.1111 9.75V14.25Z" stroke="black" stroke-width="1.5"/>
</svg>
