<svg width="24" height="24" viewBox="0 0 24 24" fill="none" xmlns="http://www.w3.org/2000/svg">
<rect width="24" height="24" fill="white"/>
<path d="M11 12.5C11 13.0523 10.5523 13.5 10 13.5C9.44772 13.5 9 13.0523 9 12.5M11 12.5C11 11.9477 10.5523 11.5 10 11.5C9.44772 11.5 9 11.9477 9 12.5M11 12.5H12.5M9 12.5H6.01308M18 5.5C18 6.32843 18.6716 7 19.5 7C20.3284 7 21 6.32843 21 5.5C21 4.67157 20.3284 4 19.5 4C18.6716 4 18 4.67157 18 5.5ZM18 5.5H16C14.9333 5.5 14 6.28214 14 7.5V10.5C14 11.9 13.5667 12.5 12.5 12.5M16 18.5C16 19.3284 16.6716 20 17.5 20C18.3284 20 19 19.3284 19 18.5C19 17.6716 18.3284 17 17.5 17C16.6716 17 16 17.6716 16 18.5ZM16 18.5C15 18.5 14.5 17.7439 14.5 16.7V14.5C14.5 13.0331 13 12.5 12.5 12.5M6 12.5C6 13.3284 5.32843 14 4.5 14C3.67157 14 3 13.3284 3 12.5C3 11.6716 3.67157 11 4.5 11C5.32843 11 6 11.6716 6 12.5Z" stroke="black" stroke-width="1.5"/>
</svg>
