<svg width="24" height="24" viewBox="0 0 24 24" fill="none" xmlns="http://www.w3.org/2000/svg">
<path d="M17.3128 11.096C17.3128 10.6766 17.0872 9.83779 16.1846 9.41838C15.2821 8.99897 13.4769 8.57952 11.8974 9.41834C10.3179 10.2572 10.7847 11.988 12.3077 12.1978C14.4615 12.4945 16.6359 12.4945 17.3128 13.4028C17.8847 14.1702 17.5385 15.2902 16.6359 15.7095C15.6268 16.1784 12.424 16.4638 11.3846 15.4615C10.7692 14.8681 10.7692 14.2747 10.7692 13.8221M10 19.875L12 21L20 16.5V7.5L12 3L4 7.5V16.5L5.84615 17.5385C7.07692 18.1319 8.30769 17.3901 8.30769 16.0549V8.34066" stroke="black" stroke-width="1.5"/>
</svg>
