<svg width="24" height="24" viewBox="0 0 24 24" fill="none" xmlns="http://www.w3.org/2000/svg">
<path d="M8.79728 13L7.54728 15H10.0473L8.79728 13Z" fill="black"/>
<path d="M16.8329 13.75C16.8329 14.4404 16.2732 15 15.5829 15C14.8925 15 14.3329 14.4404 14.3329 13.75C14.3329 13.0596 14.8925 12.5 15.5829 12.5C16.2732 12.5 16.8329 13.0596 16.8329 13.75Z" fill="black"/>
<path d="M11 9H13V11H11V9Z" fill="black"/>
<path fill-rule="evenodd" clip-rule="evenodd" d="M17 9C17 6.23857 14.7612 4 12 4C9.23877 4 7 6.23857 7 9C4.23877 9 2 11.2386 2 14C2 16.7614 4.23877 19 7 19H17C19.7612 19 22 16.7614 22 14C22 11.2386 19.7612 9 17 9Z" stroke="black" stroke-width="1.5"/>
<path d="M8.79728 13L7.54728 15H10.0473L8.79728 13Z" stroke="black" stroke-width="1.5"/>
<path d="M16.8329 13.75C16.8329 14.4404 16.2732 15 15.5829 15C14.8925 15 14.3329 14.4404 14.3329 13.75C14.3329 13.0596 14.8925 12.5 15.5829 12.5C16.2732 12.5 16.8329 13.0596 16.8329 13.75Z" stroke="black" stroke-width="1.5"/>
<path d="M11 9H13V11H11V9Z" stroke="black" stroke-width="1.5"/>
</svg>
