<svg width="24" height="24" viewBox="0 0 24 24" fill="none" xmlns="http://www.w3.org/2000/svg">
<path d="M14 16.5C14 18.7091 12.2091 20.5 10 20.5C7.79086 20.5 6 18.7091 6 16.5C6 14.2909 7.79086 12.5 10 12.5C12.2091 12.5 14 14.2909 14 16.5Z" stroke="black" stroke-width="1.5"/>
<path d="M18 7.5C18 9.70914 16.2091 11.5 14 11.5C11.7909 11.5 10 9.70914 10 7.5C10 5.29086 11.7909 3.5 14 3.5C16.2091 3.5 18 5.29086 18 7.5Z" stroke="black" stroke-width="1.5"/>
<path d="M8 9C8 10.3807 6.88071 11.5 5.5 11.5C4.11929 11.5 3 10.3807 3 9C3 7.61929 4.11929 6.5 5.5 6.5C6.88071 6.5 8 7.61929 8 9Z" stroke="black" stroke-width="1.5"/>
<path d="M21 15C21 16.3807 19.8807 17.5 18.5 17.5C17.1193 17.5 16 16.3807 16 15C16 13.6193 17.1193 12.5 18.5 12.5C19.8807 12.5 21 13.6193 21 15Z" stroke="black" stroke-width="1.5"/>
</svg>
