<svg width="24" height="24" viewBox="0 0 24 24" fill="none" xmlns="http://www.w3.org/2000/svg">
<path d="M17 7.5C17 9.433 15.433 11 13.5 11C11.567 11 10 9.433 10 7.5C10 5.567 11.567 4 13.5 4C15.433 4 17 5.567 17 7.5Z" stroke="black" stroke-width="1.5"/>
<path d="M14 16.5C14 18.433 12.433 20 10.5 20C8.567 20 7 18.433 7 16.5C7 14.567 8.567 13 10.5 13C12.433 13 14 14.567 14 16.5Z" stroke="black" stroke-width="1.5"/>
<path d="M20 15C20 16.1046 19.1046 17 18 17C16.8954 17 16 16.1046 16 15C16 13.8954 16.8954 13 18 13C19.1046 13 20 13.8954 20 15Z" stroke="black" stroke-width="1.5"/>
<path d="M8 10C8 11.1046 7.10457 12 6 12C4.89543 12 4 11.1046 4 10C4 8.89543 4.89543 8 6 8C7.10457 8 8 8.89543 8 10Z" stroke="black" stroke-width="1.5"/>
</svg>
