<svg width="24" height="24" viewBox="0 0 24 24" fill="none" xmlns="http://www.w3.org/2000/svg">
<path d="M5.40537 12.474L3.38379 8.76818L4.9809 5.92642L8.31431 5.92643L10.0394 3.5H14.7371M5.40537 12.474L3.81566 14.3418M5.40537 12.474L6.43217 14.3418H3.81566M14.7371 3.5L15.8838 6M14.7371 3.5L13.3838 6H15.8838M15.8838 6H19.3838L21.0366 8.76818L19.4356 11.6184L20.8838 14.5L18.6257 17.8968M18.6257 17.8968H16.0814M18.6257 17.8968L17.3066 15.952L16.0814 17.8968M16.0814 17.8968L13.7991 21.5H10.6622L8.68227 18.1139H5.40537L3.81566 14.3418M12.3411 14.8437L10.0141 11.0147H14.6626L12.3411 14.8437Z" stroke="black" stroke-width="1.5"/>
</svg>
