<svg width="24" height="24" viewBox="0 0 24 24" fill="none" xmlns="http://www.w3.org/2000/svg">
<path d="M10.7692 15.3846C10.7692 16.2343 10.0804 16.9231 9.23077 16.9231C8.3811 16.9231 7.69231 16.2343 7.69231 15.3846C7.69231 14.5349 8.3811 13.8462 9.23077 13.8462C10.0804 13.8462 10.7692 14.5349 10.7692 15.3846Z" fill="black"/>
<path d="M15.0769 14.4615L13.8462 16.6154H16.3077L15.0769 14.4615Z" fill="black"/>
<path d="M4 4H20V20H4V4Z" stroke="black" stroke-width="1.5"/>
<path d="M10.7692 15.3846C10.7692 16.2343 10.0804 16.9231 9.23077 16.9231C8.3811 16.9231 7.69231 16.2343 7.69231 15.3846C7.69231 14.5349 8.3811 13.8462 9.23077 13.8462C10.0804 13.8462 10.7692 14.5349 10.7692 15.3846Z" stroke="black" stroke-width="1.5"/>
<path d="M9.23077 7.69231L9.71004 8.57111L10.6939 8.75536L10.0062 9.48274L10.1351 10.4754L9.23077 10.0462L8.32648 10.4754L8.45529 9.48274L7.76761 8.75536L8.7515 8.57111L9.23077 7.69231Z" stroke="black" stroke-width="1.5"/>
<path d="M15.0769 14.4615L13.8462 16.6154H16.3077L15.0769 14.4615Z" stroke="black" stroke-width="1.5"/>
</svg>
