<svg width="24" height="24" viewBox="0 0 24 24" fill="none" xmlns="http://www.w3.org/2000/svg">
<path d="M20.0616 16.0014C19.1595 17.8188 17.6697 19.2781 15.834 20.1425C13.9983 21.0069 11.9244 21.2256 9.94875 20.7631C7.97313 20.3007 6.21174 19.1842 4.95038 17.5949C3.68903 16.0056 3.00173 14.0367 3 12.0077C2.99828 9.97863 3.68223 8.00856 4.94088 6.4171C6.19954 4.82564 7.95903 3.70619 9.93386 3.24038C11.9087 2.77458 13.983 2.98975 15.8202 3.851C17.6573 4.71224 19.1496 6.16902 20.0548 7.98494M14.6872 13.3338C14.3865 13.9396 13.8899 14.426 13.278 14.7142C12.6661 15.0023 11.9748 15.0752 11.3163 14.921C10.6577 14.7669 10.0706 14.3947 9.65013 13.865C9.22968 13.3352 9.00058 12.6789 9 12.0026C8.99943 11.3262 9.22741 10.6695 9.64696 10.139C10.0665 9.60855 10.653 9.2354 11.3113 9.08013C11.9696 8.92486 12.661 8.99658 13.2734 9.28367C13.8858 9.57075 14.3832 10.0563 14.6849 10.6616" stroke="black" stroke-width="1.5"/>
</svg>
