<svg width="24" height="24" viewBox="0 0 24 24" fill="none" xmlns="http://www.w3.org/2000/svg">
<path d="M14.4 7.20001H16.8V9.60001H14.4V7.20001Z" fill="black"/>
<path d="M7.20001 7.20001H9.60001V9.60001H7.20001V7.20001Z" fill="black"/>
<path d="M14.4 14.4H16.8V16.8H14.4V14.4Z" fill="black"/>
<path d="M7.20001 14.4H9.60001V16.8H7.20001V14.4Z" fill="black"/>
<path d="M9.60001 9.60001L14.4 14.4M9.60001 9.60001V7.20001H7.20001V9.60001H9.60001ZM14.4 14.4H16.8V16.8H14.4V14.4ZM14.4 9.60001L9.60001 14.4M14.4 9.60001H16.8V7.20001H14.4V9.60001ZM9.60001 14.4H7.20001V16.8H9.60001V14.4ZM4.20001 4.20001H19.8V19.8H4.20001V4.20001Z" stroke="black" stroke-width="1.5"/>
</svg>
