<svg width="24" height="24" viewBox="0 0 24 24" fill="none" xmlns="http://www.w3.org/2000/svg">
<path d="M5 16.5C5 16.7761 4.77614 17 4.5 17C4.22386 17 4 16.7761 4 16.5C4 16.2239 4.22386 16 4.5 16C4.77614 16 5 16.2239 5 16.5Z" fill="black"/>
<path d="M19.8292 7.31602C19.8292 7.59216 19.6053 7.81602 19.3292 7.81602C19.053 7.81602 18.8292 7.59216 18.8292 7.31602C18.8292 7.03987 19.053 6.81602 19.3292 6.81602C19.6053 6.81602 19.8292 7.03987 19.8292 7.31602Z" fill="black"/>
<path d="M20.0456 16.6451L20.4206 17.2946L20.7956 17.0781V16.6451H20.0456ZM12 21.2902L11.625 21.9397L12 22.1562L12.375 21.9397L12 21.2902ZM3.95443 7.35489L3.57943 6.70537L3.20443 6.92188V7.35489H3.95443ZM12 2.70978L12.375 2.06026L12 1.84375L11.625 2.06026L12 2.70978ZM10.2974 8.80591C10.2974 8.39169 9.96158 8.05591 9.54736 8.05591C9.13315 8.05591 8.79736 8.39169 8.79736 8.80591H9.54736H10.2974ZM8.79736 15.194C8.79736 15.6082 9.13315 15.944 9.54736 15.944C9.96158 15.944 10.2974 15.6082 10.2974 15.194H9.54736H8.79736ZM12.209 8.80591V8.05591C11.7948 8.05591 11.459 8.39169 11.459 8.80591H12.209ZM11.459 15.194C11.459 15.6082 11.7948 15.944 12.209 15.944C12.6233 15.944 12.959 15.6082 12.959 15.194H12.209H11.459ZM20.0456 16.6451L19.6706 15.9956L11.625 20.6407L12 21.2902L12.375 21.9397L20.4206 17.2946L20.0456 16.6451ZM3.95443 7.35489L4.32943 8.00441L12.375 3.3593L12 2.70978L11.625 2.06026L3.57943 6.70537L3.95443 7.35489ZM3.95443 13.0293H4.70443V7.35489H3.95443H3.20443V13.0293H3.95443ZM12 21.2902L12.375 20.6407L7.59335 17.88L7.21835 18.5295L6.84335 19.1791L11.625 21.9397L12 21.2902ZM12 2.70978L11.625 3.3593L16.1892 5.99442L16.5642 5.34491L16.9392 4.69539L12.375 2.06026L12 2.70978ZM20.0456 10.4741H19.2956V16.6451H20.0456H20.7956V10.4741H20.0456ZM12.209 12.6414V13.3914H13.8061V12.6414V11.8914H12.209V12.6414ZM13.8061 12.6414V13.3914C14.1765 13.3914 14.7383 13.2984 15.2309 12.9576C15.7657 12.5876 16.1531 11.9674 16.1531 11.082H15.4031H14.6531C14.6531 11.4741 14.5081 11.6336 14.3775 11.724C14.2047 11.8435 13.9679 11.8914 13.8061 11.8914V12.6414ZM15.4031 11.082H16.1531V10.4382H15.4031H14.6531V11.082H15.4031ZM15.4031 10.4382H16.1531C16.1531 9.79029 15.9908 9.16413 15.5427 8.7012C15.0904 8.23392 14.4665 8.05591 13.8061 8.05591V8.80591V9.55591C14.2103 9.55591 14.3849 9.66172 14.4649 9.74443C14.5492 9.83149 14.6531 10.0215 14.6531 10.4382H15.4031ZM13.8061 8.80591V8.05591H12.209V8.80591V9.55591H13.8061V8.80591ZM12.209 12.6414H11.459V15.194H12.209H12.959V12.6414H12.209ZM9.54736 8.80591H8.79736V15.194H9.54736H10.2974V8.80591H9.54736ZM12.209 8.80591H11.459V12.6414H12.209H12.959V8.80591H12.209ZM5 16.5H4.25C4.25 16.3619 4.36193 16.25 4.5 16.25V17V17.75C5.19035 17.75 5.75 17.1904 5.75 16.5H5ZM4.5 17V16.25C4.63807 16.25 4.75 16.3619 4.75 16.5H4H3.25C3.25 17.1904 3.80964 17.75 4.5 17.75V17ZM4 16.5H4.75C4.75 16.6381 4.63807 16.75 4.5 16.75V16V15.25C3.80964 15.25 3.25 15.8096 3.25 16.5H4ZM4.5 16V16.75C4.36193 16.75 4.25 16.6381 4.25 16.5H5H5.75C5.75 15.8096 5.19035 15.25 4.5 15.25V16ZM19.8292 7.31602H19.0792C19.0792 7.17794 19.1911 7.06602 19.3292 7.06602V7.81602V8.56602C20.0195 8.56602 20.5792 8.00637 20.5792 7.31602H19.8292ZM19.3292 7.81602V7.06602C19.4672 7.06602 19.5792 7.17794 19.5792 7.31602H18.8292H18.0792C18.0792 8.00637 18.6388 8.56602 19.3292 8.56602V7.81602ZM18.8292 7.31602H19.5792C19.5792 7.45409 19.4672 7.56602 19.3292 7.56602V6.81602V6.06602C18.6388 6.06602 18.0792 6.62566 18.0792 7.31602H18.8292ZM19.3292 6.81602V7.56602C19.1911 7.56602 19.0792 7.45409 19.0792 7.31602H19.8292H20.5792C20.5792 6.62566 20.0195 6.06602 19.3292 6.06602V6.81602Z" fill="black"/>
</svg>
