<svg width="24" height="24" viewBox="0 0 24 24" fill="none" xmlns="http://www.w3.org/2000/svg">
<path d="M11.9999 3L19.9999 7.5V16.5M11.9999 3L4.00009 7.5V16.5L11.9999 21L19.9999 16.5M11.9999 3L12.0001 10M19.9999 16.5L13.7384 12.9805M4.03915 7.52734L8 9.75L10.2556 11.0188M19.9649 7.52344L19.7499 7.64062L13.7442 11.0188M11.9999 20.9297V14.008M12.0001 10C10.8955 10 10.0001 10.8954 10.0001 12C10.0001 13.1046 10.8955 14 12.0001 14C13.1047 14 14.0001 13.1046 14.0001 12C14.0001 10.8954 13.1047 10 12.0001 10Z" stroke="black" stroke-width="1.5"/>
</svg>
