<svg width="24" height="24" viewBox="0 0 24 24" fill="none" xmlns="http://www.w3.org/2000/svg">
<path d="M9.92593 7.07692C9.92593 8.77626 8.59936 10.1538 6.96296 10.1538C5.32656 10.1538 4 8.77626 4 7.07692C4 5.37759 5.32656 4 6.96296 4C8.59936 4 9.92593 5.37759 9.92593 7.07692Z" stroke="black" stroke-width="1.5"/>
<path d="M20 16.9231C20 18.6224 18.6734 20 17.037 20C15.4006 20 14.0741 18.6224 14.0741 16.9231C14.0741 15.2237 15.4006 13.8462 17.037 13.8462C18.6734 13.8462 20 15.2237 20 16.9231Z" stroke="black" stroke-width="1.5"/>
<path d="M4 14H10V20H4V14Z" stroke="black" stroke-width="1.5"/>
<path d="M14 4H20V10H14V4Z" stroke="black" stroke-width="1.5"/>
</svg>
