<svg width="24" height="24" viewBox="0 0 24 24" fill="none" xmlns="http://www.w3.org/2000/svg">
<path d="M15.5555 6L20 13L15.5555 20H8.44447L4.5 14M7.52734 8.71094L10.2734 6.37109M10.1055 12.3672L7.67188 11.0977M14 13C14 14.1046 13.1046 15 12 15C10.8954 15 10 14.1046 10 13C10 11.8954 10.8954 11 12 11C13.1046 11 14 11.8954 14 13ZM8 10C8 11.1046 7.10457 12 6 12C4.89543 12 4 11.1046 4 10C4 8.89543 4.89543 8 6 8C7.10457 8 8 8.89543 8 10ZM13 5.5C13 6.32843 12.3284 7 11.5 7C10.6716 7 10 6.32843 10 5.5C10 4.67157 10.6716 4 11.5 4C12.3284 4 13 4.67157 13 5.5Z" stroke="black" stroke-width="1.5"/>
</svg>
