<svg width="24" height="24" viewBox="0 0 24 24" fill="none" xmlns="http://www.w3.org/2000/svg">
<path d="M18 16.7344C19.7477 16.0938 21 14.3652 21 12.3333C21 9.756 18.9851 7.66667 16.5 7.66667C16.5 5.08933 14.4851 3 12 3C9.51489 3 7.5 5.08933 7.5 7.66667C5.01489 7.66667 3 9.756 3 12.3333C3 14.3652 4.25229 16.0938 6 16.7344M12.2062 14.4273L14.01 12.6635M11.9844 16.9161L13.7883 18.6724M12.5 15.5C12.5 16.715 11.4926 17.7 10.25 17.7C9.00736 17.7 8 16.715 8 15.5C8 14.285 9.00736 13.3 10.25 13.3C11.4926 13.3 12.5 14.285 12.5 15.5ZM17 11.65C17 12.5613 16.2445 13.3 15.3125 13.3C14.3805 13.3 13.625 12.5613 13.625 11.65C13.625 10.7387 14.3805 10 15.3125 10C16.2445 10 17 10.7387 17 11.65ZM17 19.35C17 20.2613 16.2445 21 15.3125 21C14.3805 21 13.625 20.2613 13.625 19.35C13.625 18.4387 14.3805 17.7 15.3125 17.7C16.2445 17.7 17 18.4387 17 19.35Z" stroke="black" stroke-width="1.5"/>
</svg>
