<svg width="24" height="24" viewBox="0 0 24 24" fill="none" xmlns="http://www.w3.org/2000/svg">
<rect width="24" height="24" fill="white"/>
<path d="M6.80534 16.8264C6.80534 17.1025 6.58148 17.3264 6.30534 17.3264C6.0292 17.3264 5.80534 17.1025 5.80534 16.8264C5.80534 16.5503 6.0292 16.3264 6.30534 16.3264C6.58148 16.3264 6.80534 16.5503 6.80534 16.8264Z" fill="black"/>
<path d="M17.2958 16.2823C17.5349 16.1443 17.8407 16.2262 17.9788 16.4653C18.1169 16.7045 18.0349 17.0103 17.7958 17.1484C17.5566 17.2864 17.2508 17.2045 17.1128 16.9653C16.9747 16.7262 17.0566 16.4204 17.2958 16.2823Z" fill="black"/>
<path d="M11.7305 7.65156C11.4913 7.51349 11.4094 7.20769 11.5475 6.96854C11.6855 6.7294 11.9913 6.64746 12.2305 6.78553C12.4696 6.9236 12.5516 7.2294 12.4135 7.46854C12.2754 7.70769 11.9696 7.78963 11.7305 7.65156Z" fill="black"/>
<path d="M15.3321 7.10154C15.31 5.91507 14.6848 4.76916 13.5822 4.13258C11.9081 3.16608 9.76758 3.73965 8.80108 5.41367C7.83459 7.08769 8.40815 9.22826 10.0822 10.1948L6.50818 16.3851M4.61039 13.7603C3.59398 14.3728 2.91418 15.4872 2.91418 16.7603C2.91418 18.6933 4.48119 20.2603 6.41418 20.2603C8.34718 20.2603 9.91419 18.6933 9.91419 16.7603L17.0622 16.7603M15.889 19.8984C16.9276 20.4724 18.2326 20.504 19.3352 19.8674C21.0092 18.9009 21.5828 16.7603 20.6163 15.0863C19.6498 13.4123 17.5092 12.8387 15.8352 13.8052L12.2612 7.61486M6.80534 16.8264C6.80534 17.1025 6.58148 17.3264 6.30534 17.3264C6.0292 17.3264 5.80534 17.1025 5.80534 16.8264C5.80534 16.5503 6.0292 16.3264 6.30534 16.3264C6.58148 16.3264 6.80534 16.5503 6.80534 16.8264ZM17.2958 16.2823C17.5349 16.1443 17.8407 16.2262 17.9788 16.4653C18.1169 16.7045 18.0349 17.0103 17.7958 17.1484C17.5566 17.2864 17.2508 17.2045 17.1128 16.9653C16.9747 16.7262 17.0566 16.4204 17.2958 16.2823ZM11.7305 7.65156C11.4913 7.51349 11.4094 7.20769 11.5475 6.96854C11.6855 6.7294 11.9913 6.64746 12.2305 6.78553C12.4696 6.9236 12.5516 7.2294 12.4135 7.46854C12.2754 7.70769 11.9696 7.78963 11.7305 7.65156Z" stroke="black" stroke-width="1.5"/>
</svg>
