<svg width="24" height="24" viewBox="0 0 24 24" fill="none" xmlns="http://www.w3.org/2000/svg">
<path d="M21 12L16.5 4H7.5L3 12L7.5 20H16.5L21 12Z" stroke="#389F74" stroke-width="1.5"/>
<path d="M12.5 15.9689C12.5 16.2451 12.2761 16.4689 12 16.4689C11.7239 16.4689 11.5 16.2451 11.5 15.9689C11.5 15.6928 11.7239 15.4689 12 15.4689C12.2761 15.4689 12.5 15.6928 12.5 15.9689Z" fill="#0A402C"/>
<path d="M11 8.5L12 13.5L13 8.5C13 8.5 13 8 12 8C11 8 11 8.5 11 8.5Z" fill="#0A402C"/>
<path d="M12.5 15.9689C12.5 16.2451 12.2761 16.4689 12 16.4689C11.7239 16.4689 11.5 16.2451 11.5 15.9689C11.5 15.6928 11.7239 15.4689 12 15.4689C12.2761 15.4689 12.5 15.6928 12.5 15.9689Z" stroke="#0A402C" stroke-width="1.5"/>
<path d="M11 8.5L12 13.5L13 8.5C13 8.5 13 8 12 8C11 8 11 8.5 11 8.5Z" stroke="#0A402C" stroke-width="1.5"/>
</svg>
