<svg width="24" height="24" viewBox="0 0 24 24" fill="none" xmlns="http://www.w3.org/2000/svg">
<path d="M4 6L6 4H18L20 6V18L18 20H6L4 18V6Z" stroke="#389F74" stroke-width="1.5"/>
<path d="M8 8H10V10H8V8Z" fill="#0A402C"/>
<path d="M8 14H10V16H8V14Z" fill="#0A402C"/>
<path d="M14 8H16V10H14V8Z" fill="#0A402C"/>
<path d="M14 14H16V16H14V14Z" fill="#0A402C"/>
<path d="M8 8H10V10H8V8Z" stroke="#0A402C" stroke-width="1.5"/>
<path d="M8 14H10V16H8V14Z" stroke="#0A402C" stroke-width="1.5"/>
<path d="M14 8H16V10H14V8Z" stroke="#0A402C" stroke-width="1.5"/>
<path d="M14 14H16V16H14V14Z" stroke="#0A402C" stroke-width="1.5"/>
</svg>
