<svg width="24" height="24" viewBox="0 0 24 24" fill="none" xmlns="http://www.w3.org/2000/svg">
<path d="M20.5405 7.67568C20.5405 9.7057 16.8378 11.3514 12.2703 11.3514C7.70273 11.3514 4 9.7057 4 7.67568M20.5405 7.67568C20.5405 5.64566 16.8378 4 12.2703 4C7.70273 4 4 5.64566 4 7.67568M20.5405 7.67568V12.2703M4 7.67568V16.8649C4 17.4915 4.45683 18.3097 5 18.5M4 12.2703C4 13.2206 4.76079 14.2249 6.01573 14.6491" stroke="#389F74" stroke-width="1.5"/>
<path d="M6.75676 19.6216L7.19596 17.9501M7.19596 17.9501L8.20551 14.1081H8.99803L9.9996 17.9501M7.19596 17.9501H9.9996M9.9996 17.9501L10.4324 19.6105M20.8323 19.0185L21.7504 19.8389M12.2703 19.6216V14.1081H14.226C14.6606 14.1081 15.5298 14.3838 15.5298 15.4865V18.2432C15.5298 18.7027 15.269 19.6216 14.226 19.6216H12.2703ZM19.4645 19.7854C18.5178 19.7854 17.7504 18.921 17.7504 17.8547V15.924C17.7504 14.8577 18.5178 13.9933 19.4645 13.9933C20.4111 13.9933 21.1786 14.8577 21.1786 15.924V17.8547C21.1786 18.921 20.4111 19.7854 19.4645 19.7854Z" stroke="#0A402C" stroke-width="1.5" stroke-linecap="round"/>
</svg>
