<svg width="24" height="24" viewBox="0 0 24 24" fill="none" xmlns="http://www.w3.org/2000/svg">
<path d="M20.5405 7.67568C20.5405 9.7057 16.8378 11.3514 12.2703 11.3514C7.70273 11.3514 4 9.7057 4 7.67568M20.5405 7.67568C20.5405 5.64566 16.8378 4 12.2703 4C7.70273 4 4 5.64566 4 7.67568M20.5405 7.67568V12.2703M4 7.67568V16.8649C4 17.4915 4.45683 18.3097 5 18.5M4 12.2703C4 13.2206 4.76079 14.2249 6.01573 14.6491" stroke="#389F74" stroke-width="1.5"/>
<path d="M6.75677 19.6216L7.19598 17.9501M7.19598 17.9501L8.20553 14.1081H8.99804L9.99962 17.9501M7.19598 17.9501H9.99962M9.99962 17.9501L10.4325 19.6105M20.4864 14.1178C19.0725 14.1178 19.5726 14.0959 19.2449 14.1179C17.6494 14.2247 17.4804 15.6821 18.0565 16.3164C18.6327 16.9508 19.2449 16.7237 20.1108 17.2474C21.1717 17.8891 20.9453 19.7074 19.2449 19.7074L17.9262 19.7074M12.2703 19.6216V14.1081H14.226C14.6606 14.1081 15.5298 14.3838 15.5298 15.4865V18.2432C15.5298 18.7027 15.269 19.6216 14.226 19.6216H12.2703Z" stroke="#0A402C" stroke-width="1.5" stroke-miterlimit="16" stroke-linecap="round"/>
</svg>
