<svg width="24" height="24" viewBox="0 0 24 24" fill="none" xmlns="http://www.w3.org/2000/svg">
<path d="M4 15L8.5 9.5M10.5 9.5L13.5 13.5M15.7419 13.8071L20 9M16 14.5C16 15.3284 15.3284 16 14.5 16C13.6716 16 13 15.3284 13 14.5C13 13.6716 13.6716 13 14.5 13C15.3284 13 16 13.6716 16 14.5ZM11 8.5C11 9.32843 10.3284 10 9.5 10C8.67157 10 8 9.32843 8 8.5C8 7.67157 8.67157 7 9.5 7C10.3284 7 11 7.67157 11 8.5Z" stroke="#0A402C" stroke-width="1.5"/>
<path d="M4 6L6 4H18L20 6V18L18 20H6L4 18V6Z" stroke="#389F74" stroke-width="1.5"/>
</svg>
