<svg width="24" height="24" viewBox="0 0 24 24" fill="none" xmlns="http://www.w3.org/2000/svg">
<path fill-rule="evenodd" clip-rule="evenodd" d="M13.5 10C13.5 8.89543 12.6045 8 11.5 8C10.3955 8 9.5 8.89543 9.5 10C8.39551 10 7.5 10.8954 7.5 12C7.5 13.1046 8.39551 14 9.5 14H13.5C14.6045 14 15.5 13.1046 15.5 12C15.5 10.8954 14.6045 10 13.5 10Z" stroke="#0A402C" stroke-width="1.5"/>
<path d="M16.5 16.5L21 21M19 11.5C19 15.6421 15.6421 19 11.5 19C7.35786 19 4 15.6421 4 11.5C4 7.35786 7.35786 4 11.5 4C15.6421 4 19 7.35786 19 11.5Z" stroke="#389F74" stroke-width="1.5"/>
</svg>
