<svg width="24" height="24" viewBox="0 0 24 24" fill="none" xmlns="http://www.w3.org/2000/svg">
<path fill-rule="evenodd" clip-rule="evenodd" d="M15.5 6.83333C15.5 4.99238 13.9329 3.5 12 3.5C10.0671 3.5 8.5 4.99238 8.5 6.83333C6.56714 6.83333 5 8.32571 5 10.1667C5 12.0076 6.56714 13.5 8.5 13.5H15.5C17.4329 13.5 19 12.0076 19 10.1667C19 8.32571 17.4329 6.83333 15.5 6.83333Z" stroke="#389F74" stroke-width="1.5"/>
<path d="M18 16.5V20.5L20 18.5L18 16.5Z" fill="#0A402C"/>
<path d="M6 16.5V20.5L4 18.5L6 16.5Z" fill="#0A402C"/>
<path d="M18 16.5V20.5L20 18.5L18 16.5Z" stroke="#0A402C" stroke-width="1.5"/>
<path d="M6 16.5V20.5L4 18.5L6 16.5Z" stroke="#0A402C" stroke-width="1.5"/>
<path d="M18 18.5H13M6 18.5H11" stroke="#0A402C" stroke-width="1.5"/>
</svg>
