<svg width="24" height="24" viewBox="0 0 24 24" fill="none" xmlns="http://www.w3.org/2000/svg">
<path d="M17 9.22222C17 10.4495 14.7614 11.4444 12 11.4444C9.23858 11.4444 7 10.4495 7 9.22222M17 9.22222C17 7.99492 14.7614 7 12 7C9.23858 7 7 7.99492 7 9.22222M17 9.22222V14.7778C17 16.0051 14.7614 17 12 17C9.23858 17 7 16.0051 7 14.7778V9.22222M17 12C17 13.2273 14.7614 14.2222 12 14.2222C9.23858 14.2222 7 13.2273 7 12M16 4H20V8M4 16V20H8" stroke="#389F74" stroke-width="1.5"/>
<path d="M4 8V4H8M20 16V20H16" stroke="#0A402C" stroke-width="1.5"/>
</svg>
