<svg width="24" height="24" viewBox="0 0 24 24" fill="none" xmlns="http://www.w3.org/2000/svg">
<path d="M18 11H20V13H18V11Z" fill="#389F74"/>
<path d="M12 6H18M12 12H18M12 18H18M12 11.1111C7.58172 11.1111 4 9.51923 4 7.55556M12 11.1111V4C7.58172 4 4 5.59188 4 7.55556M12 11.1111V15.5556M4 7.55556V12M12 15.5556C7.58172 15.5556 4 13.9637 4 12M12 15.5556V20C7.58172 20 4 18.4081 4 16.4444V12M18 11H20V13H18V11Z" stroke="#389F74" stroke-width="1.5"/>
<path d="M18 17H20V19H18V17Z" fill="#0A402C"/>
<path d="M18 5H20V7H18V5Z" fill="#0A402C"/>
<path d="M18 17H20V19H18V17Z" stroke="#0A402C" stroke-width="1.5"/>
<path d="M18 5H20V7H18V5Z" stroke="#0A402C" stroke-width="1.5"/>
</svg>
