<svg width="24" height="24" viewBox="0 0 24 24" fill="none" xmlns="http://www.w3.org/2000/svg">
<path d="M4.22939 8.5H6.22939V10.5H4.22939V8.5Z" fill="#0A402C"/>
<path d="M9.22939 8.5H11.2294V10.5H9.22939V8.5Z" fill="#0A402C"/>
<path d="M14.2294 8.5H16.2294V10.5H14.2294V8.5Z" fill="#0A402C"/>
<path d="M9.22939 3.5H11.2294V5.5H9.22939V3.5Z" fill="#0A402C"/>
<path d="M4.22939 8.5H6.22939V10.5H4.22939V8.5Z" stroke="#0A402C" stroke-width="1.5"/>
<path d="M9.22939 8.5H11.2294V10.5H9.22939V8.5Z" stroke="#0A402C" stroke-width="1.5"/>
<path d="M14.2294 8.5H16.2294V10.5H14.2294V8.5Z" stroke="#0A402C" stroke-width="1.5"/>
<path d="M9.22939 3.5H11.2294V5.5H9.22939V3.5Z" stroke="#0A402C" stroke-width="1.5"/>
<path d="M9 16.5C9 16.7761 8.77615 17 8.5 17C8.22386 17 8 16.7761 8 16.5C8 16.2239 8.22386 16 8.5 16C8.77615 16 9 16.2239 9 16.5Z" fill="#389F74"/>
<path d="M22.2294 13.5H19.2534M19.2534 13.5H4.25339C4.07656 15.639 4.76085 20.5 10.2589 20.5C15.7569 20.5 18.7229 15.639 19.2534 13.5ZM19.2534 13.5V10.5M9 16.5C9 16.7761 8.77615 17 8.5 17C8.22386 17 8 16.7761 8 16.5C8 16.2239 8.22386 16 8.5 16C8.77615 16 9 16.2239 9 16.5Z" stroke="#389F74" stroke-width="1.5"/>
</svg>
