<svg width="24" height="24" viewBox="0 0 24 24" fill="none" xmlns="http://www.w3.org/2000/svg">
<path d="M9.53969 16.4985C9.53969 16.7746 9.31583 16.9985 9.03969 16.9985C8.76355 16.9985 8.53969 16.7746 8.53969 16.4985C8.53969 16.2223 8.76355 15.9985 9.03969 15.9985C9.31583 15.9985 9.53969 16.2223 9.53969 16.4985Z" fill="#0A402C"/>
<path d="M13.0794 16.4985L11.0595 13H7.01985L5 16.4985L7.01985 19.9969H11.0595L13.0794 16.4985Z" stroke="#0A402C" stroke-width="1.5"/>
<path d="M9.53969 16.4985C9.53969 16.7746 9.31583 16.9985 9.03969 16.9985C8.76355 16.9985 8.53969 16.7746 8.53969 16.4985C8.53969 16.2223 8.76355 15.9985 9.03969 15.9985C9.31583 15.9985 9.53969 16.2223 9.53969 16.4985Z" stroke="#0A402C" stroke-width="1.5"/>
<path d="M18.9634 8V19H13.9634M18.9634 8L14.9634 4M18.9634 8H14.9634V4M14.9634 4H6.96344V11" stroke="#389F74" stroke-width="1.5"/>
</svg>
