<svg width="24" height="24" viewBox="0 0 24 24" fill="none" xmlns="http://www.w3.org/2000/svg">
<path d="M12 21C7.02944 21 3 16.9706 3 12H7M12 3C16.9706 3 21 7.02944 21 12H17M12 16V8M3.63559 8.5527C3.87788 7.9403 4.38016 7.13404 4.67091 6.76392M6.65376 4.76251C7.18323 4.35071 7.94743 3.93595 8.46 3.72161M20.3244 15.4815C20.0821 16.0939 19.5798 16.9002 19.2891 17.2703M17.3062 19.2717C16.7768 19.6835 16.0126 20.0983 15.5 20.3126M7 11V13L8 12L7 11ZM17 13V11L16 12L17 13ZM11 16H13L12 17L11 16ZM11 8H13L12 7L11 8Z" stroke="black" stroke-width="1.5"/>
</svg>
