<svg width="24" height="24" viewBox="0 0 24 24" fill="none" xmlns="http://www.w3.org/2000/svg">
<path d="M15 4L15 9" stroke="#0A402C" stroke-width="1.5"/>
<path d="M11 6H7L9 4L11 6Z" fill="#389F74"/>
<path d="M9 12V20M9 6V9M7 15H17C18.6569 15 20 13.6569 20 12C20 10.3431 18.6819 9 17.0251 9H7.02509C5.36823 9 4 10.3431 4 12C4 13.6569 5.34315 15 7 15ZM7 6H11L9 4L7 6Z" stroke="#389F74" stroke-width="1.5"/>
<path d="M13 18H17L15 20L13 18Z" fill="#0A402C"/>
<path d="M15 12V18M17 18H13L15 20L17 18Z" stroke="#0A402C" stroke-width="1.5"/>
</svg>
