<svg width="24" height="24" viewBox="0 0 24 24" fill="none" xmlns="http://www.w3.org/2000/svg">
<path d="M20 12C20 16.4183 16.4183 20 12 20C7.58172 20 4 16.4183 4 12C4 7.58172 7.58172 4 12 4C14.2879 4 20 4 20 4C20 4 20 9.86958 20 12Z" stroke="#389F74" stroke-width="1.5"/>
<path d="M12.5397 12C12.5397 12.2761 12.3158 12.5 12.0397 12.5C11.7635 12.5 11.5397 12.2761 11.5397 12C11.5397 11.7239 11.7635 11.5 12.0397 11.5C12.3158 11.5 12.5397 11.7239 12.5397 12Z" fill="#0A402C"/>
<path d="M16.0794 12L14.0595 8.50153H10.0198L8 12L10.0198 15.4985H14.0595L16.0794 12Z" stroke="#0A402C" stroke-width="1.5"/>
<path d="M12.5397 12C12.5397 12.2761 12.3158 12.5 12.0397 12.5C11.7635 12.5 11.5397 12.2761 11.5397 12C11.5397 11.7239 11.7635 11.5 12.0397 11.5C12.3158 11.5 12.5397 11.7239 12.5397 12Z" stroke="#0A402C" stroke-width="1.5"/>
</svg>
