<svg width="24" height="24" viewBox="0 0 24 24" fill="none" xmlns="http://www.w3.org/2000/svg">
<path d="M9.77778 3L7 3L5.45741 5.77666M14.2222 3L17 3L18.5644 5.816M20.6646 9.5962L22 12L20.4484 14.7929M3.35057 9.56898L2 12L3.52598 14.7468M18.3263 18.6126L17 21H14.2222M5.6593 18.5867L7 21H9.77778M9.5 4H14.5M9.5 20H14.5M17.6325 6.22672L19.8825 10.2267M17.6325 18.3094L19.8825 14.3094M6.38221 6.22672L4.13221 10.2267M6.38221 18.3094L4.13221 14.3094" stroke="#389F74" stroke-width="1.5"/>
<path d="M9 11L12 9L15 11M9 15L12 13L15 15" stroke="#0A402C" stroke-width="1.5"/>
</svg>
