<svg width="24" height="24" viewBox="0 0 24 24" fill="none" xmlns="http://www.w3.org/2000/svg">
<path d="M4 9H13M20 15H11M4 6L6 4H18L20 6V18L18 20H6L4 18V6Z" stroke="#389F74" stroke-width="1.5"/>
<path d="M17 9C17 10.1046 16.1046 11 15 11C13.8954 11 13 10.1046 13 9C13 7.89543 13.8954 7 15 7C16.1046 7 17 7.89543 17 9Z" stroke="#0A402C" stroke-width="1.5"/>
<path d="M7 15C7 16.1046 7.89543 17 9 17C10.1046 17 11 16.1046 11 15C11 13.8954 10.1046 13 9 13C7.89543 13 7 13.8954 7 15Z" stroke="#0A402C" stroke-width="1.5"/>
</svg>
