<svg width="24" height="24" viewBox="0 0 24 24" fill="none" xmlns="http://www.w3.org/2000/svg">
<path fill-rule="evenodd" clip-rule="evenodd" d="M17 9C17 6.23857 14.7612 4 12 4C9.23877 4 7 6.23857 7 9C4.23877 9 2 11.2386 2 14C2 16.7614 4.23877 19 7 19H17C19.7612 19 22 16.7614 22 14C22 11.2386 19.7612 9 17 9Z" stroke="#389F74" stroke-width="1.5"/>
<path d="M16 15.2463C16 15.5225 15.7761 15.7463 15.5 15.7463C15.2239 15.7463 15 15.5225 15 15.2463C15 14.9702 15.2239 14.7463 15.5 14.7463C15.7761 14.7463 16 14.9702 16 15.2463Z" fill="#0A402C"/>
<path d="M12.5 9.18292C12.5 9.45906 12.2761 9.6836 12 9.6836C11.7239 9.6836 11.5 9.45906 11.5 9.18292C11.5 8.90678 11.7239 8.68292 12 8.68292C12.2761 8.68292 12.5 8.90678 12.5 9.18292Z" fill="#0A402C"/>
<path d="M9 15.2463C9 15.5225 8.77614 15.7463 8.5 15.7463C8.22386 15.7463 8 15.5225 8 15.2463C8 14.9702 8.22386 14.7463 8.5 14.7463C8.77614 14.7463 9 14.9702 9 15.2463Z" fill="#0A402C"/>
<path d="M12 9.6836L15.0742 15H8.94531L12 9.6836ZM12 9.6836C12.2761 9.6836 12.5 9.45906 12.5 9.18292C12.5 8.90678 12.2761 8.68292 12 8.68292C11.7239 8.68292 11.5 8.90678 11.5 9.18292C11.5 9.45906 11.7239 9.6836 12 9.6836ZM16 15.2463C16 15.5225 15.7761 15.7463 15.5 15.7463C15.2239 15.7463 15 15.5225 15 15.2463C15 14.9702 15.2239 14.7463 15.5 14.7463C15.7761 14.7463 16 14.9702 16 15.2463ZM9 15.2463C9 15.5225 8.77614 15.7463 8.5 15.7463C8.22386 15.7463 8 15.5225 8 15.2463C8 14.9702 8.22386 14.7463 8.5 14.7463C8.77614 14.7463 9 14.9702 9 15.2463Z" stroke="#0A402C" stroke-width="1.5"/>
</svg>
