<svg width="24" height="24" viewBox="0 0 24 24" fill="none" xmlns="http://www.w3.org/2000/svg">
<path d="M6.5 19C6.1 19 5.33333 18.7226 5 18.5839C3.23416 17.8123 2 16.0503 2 14C2 11.2386 4.23877 9 7 9C7 6.23857 9.23877 4 12 4C14.7612 4 17 6.23857 17 9C19.7612 9 22 11.2386 22 14C22 16.0503 20.7658 17.8123 19 18.5839C18 19 16.9315 19.0062 15.9315 19.0062C15.9315 19.0062 15.7291 19.2086 15.3117 19.6071M15.4715 19.4525C13.7279 21.1962 10.9009 21.1671 9.1572 19.4235C7.41353 17.6798 7.41353 14.8527 9.1572 13.1091C9.96787 12.2984 11.0127 11.8646 12.074 11.8077" stroke="#389F74" stroke-width="1.5"/>
<path d="M12 14L14 12L12 10L12 14Z" fill="#0A402C" stroke="#0A402C" stroke-width="1.5"/>
</svg>
