<svg width="24" height="24" viewBox="0 0 24 24" fill="none" xmlns="http://www.w3.org/2000/svg">
<path d="M15.098 12.3251C15.098 12.748 14.923 13.1301 14.6414 13.4027C14.3715 13.6642 14.0035 13.8251 13.598 13.8251C13.4513 13.8251 13.3095 13.804 13.1755 13.7648C12.6615 13.6142 12.2619 13.1957 12.1381 12.6708C12.1119 12.5598 12.098 12.4441 12.098 12.3251C12.098 11.8961 12.2781 11.5092 12.5668 11.2358C12.8356 10.9812 13.1986 10.8251 13.598 10.8251C13.7427 10.8251 13.8826 10.8456 14.015 10.8838C14.5245 11.0309 14.9225 11.4409 15.0526 11.9574C15.0823 12.075 15.098 12.1982 15.098 12.3251Z" fill="white"/>
<path d="M5.57149 5.88502V18.742M5.57149 5.88502V3.74219H2.35724M5.57149 5.88502H8.58486M5.57149 18.742V21.9563M5.57149 18.742H8.58486M13.5967 17.6706C16.5553 17.6706 18.9538 15.2722 18.9538 12.3135C18.9538 9.35489 16.5553 6.95644 13.5967 6.95644M13.5967 17.6706C10.638 17.6706 8.23958 15.2722 8.23958 12.3135C8.23958 9.35489 10.638 6.95644 13.5967 6.95644M13.5967 17.6706C13.5967 17.6706 12.9278 15.664 13.1755 13.7648M13.5967 6.95644C13.5967 6.95644 14.2706 8.97821 14.015 10.8838M18.2361 14.9921C18.2361 14.9921 16.1625 14.5678 14.6414 13.4027M8.95731 9.63499C8.95731 9.63499 11.0444 10.0621 12.5668 11.2358M18.2361 9.63498C18.2361 9.63498 16.8267 11.2244 15.0526 11.9574M8.9573 14.9921C8.9573 14.9921 10.3653 13.4043 12.1381 12.6708M18.9538 5.88502H21.6428V18.742H18.9538M14.015 10.8838C13.8826 10.8456 13.7427 10.8251 13.598 10.8251C13.1986 10.8251 12.8356 10.9812 12.5668 11.2358M13.1755 13.7648C13.3095 13.804 13.4513 13.8251 13.598 13.8251C14.0035 13.8251 14.3715 13.6642 14.6414 13.4027C14.923 13.1301 15.098 12.748 15.098 12.3251C15.098 12.1982 15.0823 12.075 15.0526 11.9574C14.9225 11.4409 14.5245 11.0309 14.015 10.8838M13.1755 13.7648C12.6615 13.6142 12.2619 13.1957 12.1381 12.6708M12.1381 12.6708C12.1119 12.5598 12.098 12.4441 12.098 12.3251C12.098 11.8961 12.2781 11.5092 12.5668 11.2358" stroke="black" stroke-width="1.5"/>
</svg>
