<svg width="24" height="24" viewBox="0 0 24 24" fill="none" xmlns="http://www.w3.org/2000/svg">
<path d="M12.5 8.01949C12.5 8.29563 12.2761 8.51949 12 8.51949C11.7239 8.51949 11.5 8.29563 11.5 8.01949C11.5 7.74335 11.7239 7.51949 12 7.51949C12.2761 7.51949 12.5 7.74335 12.5 8.01949Z" fill="black"/>
<path d="M12 11V13.5M12 11H7.5M12 11H16.5M12 13.5L8.5 17M12 13.5L15.5 17M20 12C20 16.4183 16.4183 20 12 20C7.58172 20 4 16.4183 4 12C4 7.58172 7.58172 4 12 4C16.4183 4 20 7.58172 20 12ZM12.5 8.01949C12.5 8.29563 12.2761 8.51949 12 8.51949C11.7239 8.51949 11.5 8.29563 11.5 8.01949C11.5 7.74335 11.7239 7.51949 12 7.51949C12.2761 7.51949 12.5 7.74335 12.5 8.01949Z" stroke="black" stroke-width="1.5"/>
</svg>
