<svg width="24" height="24" viewBox="0 0 24 24" fill="none" xmlns="http://www.w3.org/2000/svg">
<path d="M4.53949 14.1603V7.59573L10.8314 3.9631M4.53949 14.1603C3.99769 14.3518 3.60951 14.8685 3.60951 15.4759C3.60951 16.2463 4.23406 16.8709 5.00448 16.8709C5.09222 16.8709 5.17808 16.8628 5.26133 16.8473M6.18131 16.2252C6.31941 16.0088 6.39944 15.7517 6.39944 15.4759C6.39944 14.9021 6.05297 14.4092 5.55781 14.195C5.38816 14.1216 5.20107 14.0809 5.00448 14.0809C4.84143 14.0809 4.68493 14.1089 4.53949 14.1603M5.55781 14.195L11.1843 5.24419M6.18131 16.2252C5.97755 16.5446 5.64739 16.7754 5.26133 16.8473M6.18131 16.2252H17.8187M5.26133 16.8473L12.1906 20.8479L19.0838 16.8681M18.4926 14.1743C18.6487 14.114 18.8182 14.0809 18.9955 14.0809C19.3137 14.0809 19.6071 14.1875 19.8418 14.3668C20.1753 14.6217 20.3905 15.0237 20.3905 15.4759C20.3905 16.2167 19.8131 16.8226 19.0838 16.8681C19.0546 16.8699 19.0252 16.8709 18.9955 16.8709C18.5009 16.8709 18.0664 16.6134 17.8187 16.2252M17.8187 16.2252C17.6806 16.0088 17.6006 15.7517 17.6006 15.4759C17.6006 14.8828 17.9707 14.3761 18.4926 14.1743M19.8418 14.3668V7.59573L13.5499 3.9631M18.4926 14.1743L13.1668 5.27461M11.1843 5.24419C11.4382 5.50856 11.7952 5.67311 12.1906 5.67311C12.5707 5.67311 12.9152 5.52112 13.1668 5.27461M11.1843 5.24419C10.9436 4.99352 10.7957 4.65311 10.7957 4.27814C10.7957 4.1698 10.808 4.06434 10.8314 3.9631M10.8314 3.9631C10.9742 3.34442 11.5286 2.88318 12.1906 2.88318C12.8527 2.88318 13.4071 3.34442 13.5499 3.9631C13.5732 4.06434 13.5856 4.1698 13.5856 4.27814C13.5856 4.66851 13.4252 5.02142 13.1668 5.27461M13.5856 12.013C13.5856 12.7834 12.961 13.408 12.1906 13.408C11.4202 13.408 10.7957 12.7834 10.7957 12.013C10.7957 11.2426 11.4202 10.618 12.1906 10.618C12.961 10.618 13.5856 11.2426 13.5856 12.013Z" stroke="black" stroke-width="1.5"/>
</svg>
