<svg width="24" height="24" viewBox="0 0 24 24" fill="none" xmlns="http://www.w3.org/2000/svg">
<path d="M18.5 8.28601L19.5 9.28601V11.286M18.5 8.28601H4.5M18.5 8.28601L19.5 7.28601V4.28601L18.5 3.28601H4.5L3.5 4.28601V7.28601L4.5 8.28601M4.5 8.28601L3.5 9.28601V13.286L4.5 14.286M4.5 14.286L3.5 15.286V18.286L4.5 19.286H8M4.5 14.286H8M6.5 16.786H8M6.5 11.286H8M11.5 5.78601H17.0385M6.5 5.78601H8M11.5 11.286H17M20.5 16.384C20.5 17.4324 18.4853 18.2823 16 18.2823C13.5147 18.2823 11.5 17.4324 11.5 16.384M20.5 16.384C20.5 15.3356 18.4853 14.4857 16 14.4857C13.5147 14.4857 11.5 15.3356 11.5 16.384M20.5 16.384V19.5874C20.5 20.6358 18.4853 21.4857 16 21.4857C13.5147 21.4857 11.5 20.6358 11.5 19.5874V16.384" stroke="black" stroke-width="1.5"/>
</svg>
