<svg width="24" height="24" viewBox="0 0 24 24" fill="none" xmlns="http://www.w3.org/2000/svg">
<path d="M7 5V4.25H6.68934L6.46967 4.46967L7 5ZM19 7H19.75V6.68934L19.5303 6.46967L19 7ZM19 17L19.5303 17.5303L19.75 17.3107V17H19ZM5 17H4.25V17.3107L4.46967 17.5303L5 17ZM5 7L4.46967 6.46967L4.25 6.68934V7H5ZM17 5L17.5303 4.46967L17.3107 4.25H17V5ZM17 19V19.75H17.3107L17.5303 19.5303L17 19ZM7 19L6.46967 19.5303L6.68934 19.75H7V19ZM7.17441 14.7421C7.03198 15.1311 7.23182 15.5618 7.62078 15.7043C8.00973 15.8467 8.44051 15.6469 8.58294 15.2579L7.17441 14.7421ZM10.0526 9V8.25C9.73648 8.25 9.45428 8.44826 9.34707 8.74569L10.0526 9ZM10.5648 9L11.2704 8.74569C11.1632 8.44826 10.881 8.25 10.5648 8.25V9ZM12.0702 15.2679C12.2182 15.6548 12.6517 15.8485 13.0386 15.7005C13.4255 15.5526 13.6192 15.119 13.4713 14.7321L12.0702 15.2679ZM15.7539 9C15.7539 8.58579 15.4181 8.25 15.0039 8.25C14.5896 8.25 14.2539 8.58579 14.2539 9H15.7539ZM14.2539 15C14.2539 15.4142 14.5896 15.75 15.0039 15.75C15.4181 15.75 15.7539 15.4142 15.7539 15H14.2539ZM5.53033 7.53033L7.53033 5.53033L6.46967 4.46967L4.46967 6.46967L5.53033 7.53033ZM7 5.75H17V4.25H7V5.75ZM16.4697 5.53033L18.4697 7.53033L19.5303 6.46967L17.5303 4.46967L16.4697 5.53033ZM18.25 7V17H19.75V7H18.25ZM18.4697 16.4697L16.4697 18.4697L17.5303 19.5303L19.5303 17.5303L18.4697 16.4697ZM17 18.25H7V19.75H17V18.25ZM7.53033 18.4697L5.53033 16.4697L4.46967 17.5303L6.46967 19.5303L7.53033 18.4697ZM5.75 17V7H4.25V17H5.75ZM9.75 5V3H8.25V5H9.75ZM9.75 21V19H8.25V21H9.75ZM3 9.75H5V8.25H3V9.75ZM19 9.75H21V8.25H19V9.75ZM15.75 21V19H14.25V21H15.75ZM3 15.75H5V14.25H3V15.75ZM19 15.75H21V14.25H19V15.75ZM12.75 21V19H11.25V21H12.75ZM3 12.75H5V11.25H3V12.75ZM19 12.75H21V11.25H19V12.75ZM15.75 5V3H14.25V5H15.75ZM12.75 5V3H11.25V5H12.75ZM8.58294 15.2579L9.30569 13.2842L7.89715 12.7684L7.17441 14.7421L8.58294 15.2579ZM9.30699 13.2806L10.7582 9.25431L9.34707 8.74569L7.89585 12.772L9.30699 13.2806ZM10.0526 9.75H10.5648V8.25H10.0526V9.75ZM9.85927 9.25431L11.3105 13.2806L12.7216 12.772L11.2704 8.74569L9.85927 9.25431ZM11.3155 13.2942L12.0702 15.2679L13.4713 14.7321L12.7166 12.7584L11.3155 13.2942ZM8.60142 13.7763H12.0161V12.2763H8.60142V13.7763ZM14.2539 9V15H15.7539V9H14.2539Z" fill="black"/>
</svg>
