<svg width="24" height="24" viewBox="0 0 24 24" fill="none" xmlns="http://www.w3.org/2000/svg">
<path d="M21.4 15.4H5.29231L4 16.75V19.45L5.29231 20.8H21.4M10.8206 4L8.84627 4L7.74984 5.9492M13.9796 4L15.954 4L17.0659 5.97682M18.5586 8.6305L19.5078 10.318L18.405 12.2785M6.25236 8.61139L5.29242 10.318L6.37704 12.2462M10.8204 4.64391H13.9794M16.3487 6.26517L17.9281 9.07314M15.9 15.4L17.9281 11.9388M8.45157 6.26517L6.87208 9.07314M8.90002 15.4L6.87227 11.9392M20.8 15.4C17.7705 15.67 17.434 20.26 20.8 20.8M7 15.4V20.8001M14.2 10.4553C14.2 11.4494 13.3941 12.2553 12.4 12.2553C11.4059 12.2553 10.6 11.4494 10.6 10.4553C10.6 9.46122 11.4059 8.65533 12.4 8.65533C13.3941 8.65533 14.2 9.46122 14.2 10.4553Z" stroke="black" stroke-width="1.5"/>
</svg>
