<svg width="24" height="24" viewBox="0 0 24 24" fill="none" xmlns="http://www.w3.org/2000/svg">
<path d="M16.5333 16.9439C16.5333 17.2339 16.2945 17.4689 16 17.4689C15.7054 17.4689 15.4666 17.2339 15.4666 16.9439C15.4666 16.654 15.7054 16.4189 16 16.4189C16.2945 16.4189 16.5333 16.654 16.5333 16.9439Z" fill="black"/>
<path d="M6 6.35645H4V20.3564H10.5M6 6.35645H12M6 6.35645V3.35645M12 6.35645H18M12 6.35645V3.35645M18 6.35645H20V11.0404M18 6.35645V3.35645M17.7778 13.3564L20 16.8564L17.7778 20.3564H14.2222L12 16.8564L14.2222 13.3564H17.7778ZM16.5333 16.9439C16.5333 17.2339 16.2945 17.4689 16 17.4689C15.7054 17.4689 15.4666 17.2339 15.4666 16.9439C15.4666 16.654 15.7054 16.4189 16 16.4189C16.2945 16.4189 16.5333 16.654 16.5333 16.9439Z" stroke="black" stroke-width="1.5"/>
</svg>
