<svg width="24" height="24" viewBox="0 0 24 24" fill="none" xmlns="http://www.w3.org/2000/svg">
<path d="M11 19.125H10.25V19.4653L10.5061 19.6894L11 19.125ZM20 19.125L20.4939 19.6894L20.75 19.4653V19.125H20ZM11 17.375L10.5061 16.8106L10.25 17.0347V17.375H11ZM20 17.375H20.75V17.0347L20.4939 16.8106L20 17.375ZM19 20V20.75H19.2818L19.4939 20.5644L19 20ZM12 20L11.5061 20.5644L11.7182 20.75H12V20ZM12 13V12.25H11.7182L11.5061 12.4356L12 13ZM19 13L19.4939 12.4356L19.2818 12.25H19V13ZM20 15.625L20.4939 16.1894L20.75 15.9653V15.625H20ZM11 15.625H10.25V15.9653L10.5061 16.1894L11 15.625ZM11 13.875L10.5061 13.3106L10.25 13.5347V13.875H11ZM20 13.875H20.75V13.5347L20.4939 13.3106L20 13.875ZM4 7V6.25H3.25V7H4ZM20 7H20.75V6.25H20V7ZM4 20H3.25V20.75H4V20ZM8 4V3.25H7.25V4H8ZM16 4H16.75V3.25H16V4ZM16 7V7.75H16.75V7H16ZM8 7H7.25V7.75H8V7ZM19.25 9.67436V10.4244H20.75V9.67436H19.25ZM11 17.375L11.4939 17.9394L12.4939 17.0644L12 16.5L11.5061 15.9356L10.5061 16.8106L11 17.375ZM12 16.5V17.25H19V16.5V15.75H12V16.5ZM19 16.5L18.5061 17.0644L19.5061 17.9394L20 17.375L20.4939 16.8106L19.4939 15.9356L19 16.5ZM20 19.125L19.5061 18.5606L18.5061 19.4356L19 20L19.4939 20.5644L20.4939 19.6894L20 19.125ZM20 17.375H19.25V19.125H20H20.75V17.375H20ZM19 20V19.25H12V20V20.75H19V20ZM12 20L12.4939 19.4356L11.4939 18.5606L11 19.125L10.5061 19.6894L11.5061 20.5644L12 20ZM11 19.125H11.75V17.375H11H10.25V19.125H11ZM11 13.875L11.4939 14.4394L12.4939 13.5644L12 13L11.5061 12.4356L10.5061 13.3106L11 13.875ZM12 13V13.75H19V13V12.25H12V13ZM19 13L18.5061 13.5644L19.5061 14.4394L20 13.875L20.4939 13.3106L19.4939 12.4356L19 13ZM20 15.625L19.5061 15.0606L18.5061 15.9356L19 16.5L19.4939 17.0644L20.4939 16.1894L20 15.625ZM20 13.875H19.25V15.625H20H20.75V13.875H20ZM12 16.5L12.4939 15.9356L11.4939 15.0606L11 15.625L10.5061 16.1894L11.5061 17.0644L12 16.5ZM11 15.625H11.75V13.875H11H10.25V15.625H11ZM4 13V13.75H8.59542V13V12.25H4V13ZM4 20H4.75V7H4H3.25V20H4ZM8 4V4.75H16V4V3.25H8V4ZM16 4H15.25V7H16H16.75V4H16ZM8 7H8.75V4H8H7.25V7H8ZM4 7V7.75H12V7V6.25H4V7ZM12 7V7.75H20V7V6.25H12V7ZM16 7V6.25H12V7V7.75H16V7ZM12 7V6.25H8V7V7.75H12V7ZM20 7H19.25V9.67436H20H20.75V7H20ZM8.36158 20V19.25H4V20V20.75H8.36158V20ZM13 9.67436V8.92436H11V9.67436V10.4244H13V9.67436Z" fill="black"/>
</svg>
