<svg width="24" height="24" viewBox="0 0 24 24" fill="none" xmlns="http://www.w3.org/2000/svg">
<path d="M19 11.0011V7L12 6.9989L8.9998 5L5 5L5.0002 9.80109M19 11.0011L22 11L20 18.9989L15 18.9989M19 11.0011H12.5M8 11.8011C9.38062 11.8011 10.5 12.995 10.5 14.4678C11.8806 14.4678 13 15.6617 13 17.1344C13 18.6072 11.8806 19.8011 10.5 19.8011H5.5C4.11938 19.8011 3 18.6072 3 17.1344C3 15.6617 4.11938 14.4678 5.5 14.4678C5.5 12.995 6.61938 11.8011 8 11.8011Z" stroke="black" stroke-width="1.5"/>
</svg>
