<svg width="24" height="24" viewBox="0 0 24 24" fill="none" xmlns="http://www.w3.org/2000/svg">
<path d="M20 8C20 10.2091 16.4183 12 12 12C7.58172 12 4 10.2091 4 8M20 8C20 5.79086 16.4183 4 12 4C7.58172 4 4 5.79086 4 8M20 8V13M4 8V16C4 18.2091 7.58172 20 12 20M12 16C7.58172 16 4 14.2091 4 12M17.9 15C18.9769 15 19.85 15.8954 19.85 17C20.9269 17 21.8 17.8954 21.8 19C21.8 20.1046 20.9269 21 19.85 21H15.95C14.8731 21 14 20.1046 14 19C14 17.8954 14.8731 17 15.95 17C15.95 15.8954 16.8231 15 17.9 15Z" stroke="black" stroke-width="1.5"/>
</svg>
