<svg width="24" height="24" viewBox="0 0 24 24" fill="none" xmlns="http://www.w3.org/2000/svg">
<path d="M20.9972 14.5H17.5C17.5 15.1465 16.9192 16.5 15.5 16.5C14.0809 16.5 13.5 15.1465 13.5 14.5H11V12C11.6667 12 13 11.6 13 10C13 9.33333 12.6 8 11 8V5.11328M12 5C14.4851 5 16.5 7.08933 16.5 9.66667C18.9851 9.66667 21 11.756 21 14.3333C21 16.9107 18.9851 19 16.5 19H7.5C5.01489 19 3 16.9107 3 14.3333C3 11.756 5.01489 9.66667 7.5 9.66667C7.5 7.08933 9.51489 5 12 5Z" stroke="black" stroke-width="1.5"/>
</svg>
