<svg width="24" height="24" viewBox="0 0 24 24" fill="none" xmlns="http://www.w3.org/2000/svg">
<path d="M17.2327 16.575C16.8931 16.8413 16.4651 17 16 17C14.8954 17 14 16.1046 14 15C14 13.8954 14.8954 13 16 13C16.4651 13 16.8931 13.1587 17.2327 13.425M5 8C5 5.79086 7.68629 4 11 4C14.3137 4 17 5.79086 17 8M5 8V12M5 8C5 9.74163 6.66962 11.2233 9 11.7724M5 12V16C5 17.982 7.16229 19.6273 10 19.9447M5 12C5 13.7416 6.66962 15.2233 9 15.7724M21 15C21 17.7614 18.7614 20 16 20C13.2386 20 11 17.7614 11 15C11 12.2386 13.2386 10 16 10C18.7614 10 21 12.2386 21 15Z" stroke="black" stroke-width="1.5"/>
</svg>
