<svg width="24" height="25" viewBox="0 0 24 25" fill="none" xmlns="http://www.w3.org/2000/svg">
<path d="M18.4061 6.03695C20.5554 8.09619 20.3676 11.5734 18.2183 13.6327L10.6837 6.09804C12.833 4.0388 16.2567 3.97771 18.4061 6.03695ZM18.4061 6.03695L19.9629 4.5455M4.01807 20.2896L5.57476 18.7982M7.38983 12.8609L10.0722 10.2928M11.9706 17.4306L14.7458 14.7638M16.4211 19.8747H19.7233V16.7109M7.61506 5.1103L4.31281 5.1103L4.31281 8.27411M13.3498 18.8243C11.0696 21.1045 7.85766 21.0073 5.70831 18.9481C3.55896 16.8888 3.86872 13.5518 6.01807 11.4925L13.3498 18.8243Z" stroke="black" stroke-width="1.5"/>
</svg>
