<svg width="24" height="24" viewBox="0 0 24 24" fill="none" xmlns="http://www.w3.org/2000/svg">
<path d="M18.4061 5.53695C20.5554 7.59619 20.3676 11.0734 18.2183 13.1327L10.6837 5.59804C12.833 3.5388 16.2567 3.47771 18.4061 5.53695ZM18.4061 5.53695L19.9629 4.0455M4.01807 19.7896L5.57476 18.2982M7.38983 12.3609L10.0722 9.79279M11.9706 16.9306L14.7458 14.2638M16.4211 19.3747H19.7233V16.2109M7.61506 4.6103L4.31281 4.6103L4.31281 7.77411M13.3498 18.3243C11.0696 20.6045 7.85766 20.5073 5.70831 18.4481C3.55896 16.3888 3.86872 13.0518 6.01807 10.9925L13.3498 18.3243Z" stroke="black" stroke-width="1.5"/>
</svg>
