<svg width="24" height="24" viewBox="0 0 24 24" fill="none" xmlns="http://www.w3.org/2000/svg">
<path d="M13.9923 12.6772C15.9373 12.7237 18.3712 14.6093 18.9002 16.5837C18.9225 16.6503 19.0046 16.7626 19.1556 16.6798C20.556 15.6047 21.2481 13.7551 20.7627 11.9436C20.1195 9.54298 17.652 8.11836 15.2514 8.7616C14.3145 9.01264 13.452 9.59804 12.8775 10.292C13.0425 7.95695 15.0055 6.12891 17.3826 6.12891C17.4597 6.12984 17.6008 6.08999 17.548 5.92316C16.876 4.28368 15.2641 3.12891 13.3826 3.12891C10.8973 3.12891 8.88258 5.14362 8.88258 7.62891C8.88258 8.97473 9.39955 10.2847 10.3359 11.1094M12.8775 10.292C12.8965 10.2681 12.858 10.3155 12.8775 10.292ZM13.9923 12.6772C14.0431 12.501 14.0702 12.3149 14.0702 12.1224C14.0702 11.0178 13.1748 10.1224 12.0702 10.1224C11.3786 10.1224 10.6951 10.5757 10.3359 11.1094M13.9923 12.6772C13.9225 12.9196 13.808 13.1431 13.6584 13.3382C13.2928 13.815 12.7174 14.1224 12.0702 14.1224C11.8035 14.1224 11.5489 14.0702 11.3162 13.9754M13.9923 12.6772C14.504 13.2077 15.4377 13.9754 15.7673 15.2054C16.4106 17.606 14.9859 20.0735 12.5853 20.7167C10.7853 21.1991 8.94763 20.5187 7.86965 19.1361C7.7405 18.9363 7.86618 18.865 7.94517 18.8542C10.1451 18.2648 11.5959 16.1735 11.3162 13.9754M11.3162 13.9754C10.6229 13.6613 10.0702 12.933 10.0702 12.1224C10.0702 11.8076 10.2063 11.3743 10.3359 11.1094M11.3162 13.9754C11.2925 13.9657 11.3394 13.9859 11.3162 13.9754ZM11.3162 13.9754C10.7309 14.8451 9.84074 15.5152 8.74863 15.8079C6.34803 16.4511 3.88051 15.0265 3.23728 12.6259C2.75496 10.8259 3.43528 8.9882 4.81792 7.91021C5.01772 7.78106 5.08907 7.90675 5.09978 7.98574C5.7128 10.2736 8.04609 11.5395 10.3359 11.1094M10.3359 11.1094C10.3763 11.0268 10.285 11.1851 10.3359 11.1094Z" stroke="black" stroke-width="1.5"/>
</svg>
