<svg width="24" height="24" viewBox="0 0 24 24" fill="none" xmlns="http://www.w3.org/2000/svg">
<path d="M7.2 14.3L7.5 15L7.8 14.3L8.5 14L7.8 13.7L7.5 13L7.2 13.7L6.5 14L7.2 14.3Z" fill="black"/>
<path d="M15 12.4979H19M15 15.3333H19M12 4C14.7612 4 17 6.23857 17 9C19.7612 9 22 11.2386 22 14C22 16.7614 19.7612 19 17 19H7C4.23877 19 2 16.7614 2 14C2 11.2386 4.23877 9 7 9C7 6.23857 9.23877 4 12 4ZM16.9976 19C20.0233 19 22.0781 16.4882 21.9977 13.8933C21.9977 11.2269 19.8052 9 16.9976 9C14.2934 9 12.1011 10.969 12.1011 13.6355C12.1011 14.6425 12.3166 15.5367 12.8514 16.3105L11 19H16.9976ZM7.5 15L7.2 14.3L6.5 14L7.2 13.7L7.5 13L7.8 13.7L8.5 14L7.8 14.3L7.5 15Z" stroke="black" stroke-width="1.5"/>
</svg>
