<svg width="24" height="24" viewBox="0 0 24 24" fill="none" xmlns="http://www.w3.org/2000/svg">
<path d="M7.0338 6H4C4 7.09599 4.12482 9.04618 5.28428 10.1732C5.71167 10.5887 6.27966 10.8923 7.0338 11H7.21935M17.0338 6H20C20 7.5 19.8338 10.6 17.0338 11H16.8482M6 20H8M18 20H16M16 20H8M16 20C13.5 19 13 15.7907 13 14.4361M8 20C10.4 19.2 11 15.9509 11 14.4263M13 14.4361C12.6992 14.4778 12.3776 14.5 12.0338 14.5C11.6641 14.5 11.32 14.4744 11 14.4263M13 14.4361C15.3884 14.1042 16.4591 12.5348 16.8482 11M11 14.4263C8.65899 14.0744 7.60481 12.5203 7.21935 11M7.21935 11C7.08738 10.4795 7.0338 9.96296 7.0338 9.5V4H17.0338V9.5C17.0338 9.96296 16.9802 10.4795 16.8482 11" stroke="black" stroke-width="1.5"/>
</svg>
