<svg width="24" height="24" viewBox="0 0 24 24" fill="none" xmlns="http://www.w3.org/2000/svg">
<path d="M12.2499 5.75012C12.2499 6.85469 10.459 7.75012 8.24988 7.75012C6.04074 7.75012 4.24988 6.85469 4.24988 5.75012M12.2499 5.75012C12.2499 4.64555 10.459 3.75012 8.24988 3.75012C6.04074 3.75012 4.24988 4.64555 4.24988 5.75012M12.2499 5.75012V9.75012C12.2499 10.8547 10.459 11.7501 8.24988 11.7501C6.04074 11.7501 4.24988 10.8547 4.24988 9.75012V5.75012M20.5464 14.5C20.5464 15.6046 18.7555 16.5 16.5464 16.5C14.3372 16.5 12.5464 15.6046 12.5464 14.5M20.5464 14.5C20.5464 13.3954 18.7555 12.5 16.5464 12.5C14.3372 12.5 12.5464 13.3954 12.5464 14.5M20.5464 14.5V18.5C20.5464 19.6046 18.7555 20.5 16.5464 20.5C14.3372 20.5 12.5464 19.6046 12.5464 18.5V14.5M4.99999 14V17L6.99999 19H9.99999M20 10V7.00001L18 5.00001L15 5.00001" stroke="black" stroke-width="1.5"/>
</svg>
