<svg width="24" height="24" viewBox="0 0 24 24" fill="none" xmlns="http://www.w3.org/2000/svg">
<path d="M20 8C20 10.2091 16.4183 12 12 12C7.58172 12 4 10.2091 4 8M20 8C20 5.79086 16.4183 4 12 4C7.58172 4 4 5.79086 4 8M20 8V13M4 8V16C4 18.2091 7.58172 20 12 20M12 16C7.58172 16 4 14.2091 4 12M20 17.4598C20 16.1013 18.8807 15 17.5 15C16.1193 15 15 16.1013 15 17.4598C15 18.1581 15.2958 18.7885 15.7708 19.2362C15.8964 19.3546 16.1955 19.5399 16.25 19.5833M16.6667 20V19.1667L15.8333 20H16.6667Z" stroke="black" stroke-width="1.5"/>
</svg>
