<svg width="24" height="24" viewBox="0 0 24 24" fill="none" xmlns="http://www.w3.org/2000/svg">
<path d="M12.5999 14.1C12.5999 14.4314 12.3313 14.7 11.9999 14.7C11.6686 14.7 11.3999 14.4314 11.3999 14.1C11.3999 13.7686 11.6686 13.5 11.9999 13.5C12.3313 13.5 12.5999 13.7686 12.5999 14.1Z" fill="black"/>
<path d="M7 4H17M9 7.67847V4M15 7.67845V4M19 14C19 17.866 15.866 21 12 21C8.13401 21 5 17.866 5 14C5 10.134 8.13401 7 12 7C15.866 7 19 10.134 19 14ZM13.9999 10L16.4999 14L13.9999 18H10L7.5 14L10 10H13.9999ZM12.5999 14.1C12.5999 14.4314 12.3313 14.7 11.9999 14.7C11.6686 14.7 11.3999 14.4314 11.3999 14.1C11.3999 13.7686 11.6686 13.5 11.9999 13.5C12.3313 13.5 12.5999 13.7686 12.5999 14.1Z" stroke="black" stroke-width="1.5"/>
</svg>
