<svg width="24" height="24" viewBox="0 0 24 24" fill="none" xmlns="http://www.w3.org/2000/svg">
<path d="M20 12C20 16.4183 16.4183 20 12 20H4L5.38468 16.5C4.51085 15.2179 4 13.6686 4 12C4 7.58172 7.58172 4 12 4C16.4183 4 20 7.58172 20 12Z" stroke="black" stroke-width="1.5"/>
<path d="M10 9C8.89543 9 8 9.88144 8 10.9688C8 11.4932 8.20834 11.9698 8.548 12.3227L12 16L15.4501 12.3246C15.7909 11.9716 16 11.4942 16 10.9688C16 9.88144 15.1046 9 14 9C13.1289 9 12.3889 9.54272 12.1146 10.3078H11.8845C11.6086 9.54561 10.869 9 10 9Z" stroke="black" stroke-width="1.5"/>
</svg>
