<svg width="24" height="24" viewBox="0 0 24 24" fill="none" xmlns="http://www.w3.org/2000/svg">
<path d="M12 20L11.429 20.4863L12 21.1566L12.571 20.4863L12 20ZM3 9.43396L2.37476 9.01974L2.06292 9.49045L2.42905 9.92029L3 9.43396ZM6.6 4V3.25H6.19722L5.97476 3.58578L6.6 4ZM17.4 4L18.0252 3.58578L17.8028 3.25H17.4V4ZM21 9.43396L21.571 9.92029L21.9371 9.49045L21.6252 9.01974L21 9.43396ZM8.39992 9.43396L7.68796 9.19813L7.61304 9.4243L7.68239 9.65225L8.39992 9.43396ZM15.5999 9.43396L16.3175 9.65224L16.3868 9.4243L16.3119 9.19813L15.5999 9.43396ZM11.4 19.2956L10.6825 19.5139L11.4 20.0456V19.2956ZM12.6 19.2956V20.0456L13.3175 19.5139L12.6 19.2956ZM12.571 19.5137L3.57095 8.94763L2.42905 9.92029L11.429 20.4863L12.571 19.5137ZM3.62524 9.84818L7.22524 4.41422L5.97476 3.58578L2.37476 9.01974L3.62524 9.84818ZM6.6 4.75H17.4V3.25H6.6V4.75ZM16.7748 4.41422L20.3748 9.84818L21.6252 9.01974L18.0252 3.58578L16.7748 4.41422ZM20.4291 8.94763L11.429 19.5137L12.571 20.4863L21.571 9.92029L20.4291 8.94763ZM9.11188 9.6698L10.9119 4.23584L9.48796 3.76416L7.68796 9.19813L9.11188 9.6698ZM16.3119 9.19813L14.5119 3.76416L13.088 4.23584L14.888 9.6698L16.3119 9.19813ZM7.68239 9.65225L10.6825 19.5139L12.1175 19.0773L9.11745 9.21568L7.68239 9.65225ZM3 10.1956H21V8.69557H3V10.1956ZM14.8824 9.21569L11.8825 19.0773L13.3175 19.5139L16.3175 9.65224L14.8824 9.21569ZM12.6 18.5456H11.4V20.0456H12.6V18.5456Z" fill="black"/>
</svg>
