<svg width="24" height="24" viewBox="0 0 24 24" fill="none" xmlns="http://www.w3.org/2000/svg">
<path d="M12 13H17M17 13C17 13.5523 17.4477 14 18 14C18.5523 14 19 13.5523 19 13C19 12.4477 18.5523 12 18 12C17.4477 12 17 12.4477 17 13ZM12 10H15L17.2876 7.70181M12 16H15L17.2962 18.2896M12 19H7C4.23877 19 2 16.7614 2 14C2 11.2386 4.23877 9 7 9C7 6.23857 9.23877 4 12 4C13.1256 4 14.1643 4.37197 15 4.99969M19 19C19 19.5523 18.5523 20 18 20C17.4477 20 17 19.5523 17 19C17 18.4477 17.4477 18 18 18C18.5523 18 19 18.4477 19 19ZM19 7C19 7.55228 18.5523 8 18 8C17.4477 8 17 7.55228 17 7C17 6.44772 17.4477 6 18 6C18.5523 6 19 6.44772 19 7Z" stroke="black" stroke-width="1.5"/>
</svg>
