<svg width="24" height="24" viewBox="0 0 24 24" fill="none" xmlns="http://www.w3.org/2000/svg">
<path d="M6.85712 17.1429L17.7143 6.28572M20 12C20 16.4183 16.4183 20 12 20C7.58172 20 4 16.4183 4 12C4 7.58172 7.58172 4 12 4C16.4183 4 20 7.58172 20 12ZM16.5715 14.8571C16.5715 15.8039 15.8039 16.5714 14.8572 16.5714C13.9104 16.5714 13.1429 15.8039 13.1429 14.8571C13.1429 13.9104 13.9104 13.1429 14.8572 13.1429C15.8039 13.1429 16.5715 13.9104 16.5715 14.8571ZM10.8572 9.14286C10.8572 10.0896 10.0896 10.8571 9.14287 10.8571C8.1961 10.8571 7.42859 10.0896 7.42859 9.14286C7.42859 8.19609 8.1961 7.42857 9.14287 7.42857C10.0896 7.42857 10.8572 8.19609 10.8572 9.14286Z" stroke="black" stroke-width="1.5"/>
</svg>
