<svg width="24" height="24" viewBox="0 0 24 24" fill="none" xmlns="http://www.w3.org/2000/svg">
<path d="M6.9823 12V14M3.9823 9.53513C4.57065 9.19479 5.25373 9 5.9823 9C8.19144 9 9.9823 10.7909 9.9823 13C9.9823 15.2091 8.19144 17 5.9823 17C5.25373 17 4.57065 16.8052 3.9823 16.4649M12.9823 20L10.9823 17M13.4321 11L13.4718 12H19.9647C19.9647 13.3813 20.0044 14.5 19.9646 15.5C19.9646 18.5 16.8435 20 13.9713 20H3.9823L3.98648 4H4.27385L6.64651 7H9.97568C12.4729 7 13.4718 9.5 13.4321 11ZM9.96463 7L11.6515 4H11.9646V7.67707C11.4646 7.17707 10.4646 7 9.96463 7ZM19.9823 14C19.4823 14 18.3823 13.2 17.9823 12H19.9823V14Z" stroke="black" stroke-width="1.5"/>
</svg>
