<svg width="24" height="24" viewBox="0 0 24 24" fill="none" xmlns="http://www.w3.org/2000/svg">
<path d="M13.9684 7.26004C11.4695 5.90915 11.026 3.8821 10.9062 3C10.7865 3.8821 9.90359 6.18365 7.83813 7.26004C5.56104 8.44671 4 10.6002 4 13.2806C4 16.9916 7.09203 20 10.9062 20C14.2245 20 16.9962 17.7231 17.6609 14.6875M11 10.3438V13M11 13V15.6562M11 13H13.6562M11 13H8.34375M18.3438 5.125C18.2977 5.45579 17.9581 6.85012 17.1637 7.25376C16.2879 7.69877 15.6875 8.50631 15.6875 9.51148C15.6875 10.9031 16.8767 12.0312 18.3438 12.0312C19.8108 12.0312 21 10.9031 21 9.51148C21 8.50631 20.39 7.71151 19.5215 7.25376C18.5604 6.74718 18.3898 5.45579 18.3438 5.125Z" stroke="black" stroke-width="1.5"/>
</svg>
