<svg width="24" height="24" viewBox="0 0 24 24" fill="none" xmlns="http://www.w3.org/2000/svg">
<path d="M9.5 5C9.5 5.55228 9.05228 6 8.5 6C7.94772 6 7.5 5.55228 7.5 5C7.5 4.44772 7.94772 4 8.5 4C9.05228 4 9.5 4.44772 9.5 5Z" fill="black"/>
<path d="M9.5 12C9.5 12.5523 9.05228 13 8.5 13C7.94772 13 7.5 12.5523 7.5 12C7.5 11.4477 7.94772 11 8.5 11C9.05228 11 9.5 11.4477 9.5 12Z" fill="black"/>
<path d="M9.5 19C9.5 19.5523 9.05228 20 8.5 20C7.94772 20 7.5 19.5523 7.5 19C7.5 18.4477 7.94772 18 8.5 18C9.05228 18 9.5 18.4477 9.5 19Z" fill="black"/>
<path d="M16.5 5C16.5 5.55228 16.0523 6 15.5 6C14.9477 6 14.5 5.55228 14.5 5C14.5 4.44772 14.9477 4 15.5 4C16.0523 4 16.5 4.44772 16.5 5Z" fill="black"/>
<path d="M16.5 12C16.5 12.5523 16.0523 13 15.5 13C14.9477 13 14.5 12.5523 14.5 12C14.5 11.4477 14.9477 11 15.5 11C16.0523 11 16.5 11.4477 16.5 12Z" fill="black"/>
<path d="M16.5 19C16.5 19.5523 16.0523 20 15.5 20C14.9477 20 14.5 19.5523 14.5 19C14.5 18.4477 14.9477 18 15.5 18C16.0523 18 16.5 18.4477 16.5 19Z" fill="black"/>
<path d="M9.5 5C9.5 5.55228 9.05228 6 8.5 6C7.94772 6 7.5 5.55228 7.5 5C7.5 4.44772 7.94772 4 8.5 4C9.05228 4 9.5 4.44772 9.5 5Z" stroke="black" stroke-width="1.5"/>
<path d="M9.5 12C9.5 12.5523 9.05228 13 8.5 13C7.94772 13 7.5 12.5523 7.5 12C7.5 11.4477 7.94772 11 8.5 11C9.05228 11 9.5 11.4477 9.5 12Z" stroke="black" stroke-width="1.5"/>
<path d="M9.5 19C9.5 19.5523 9.05228 20 8.5 20C7.94772 20 7.5 19.5523 7.5 19C7.5 18.4477 7.94772 18 8.5 18C9.05228 18 9.5 18.4477 9.5 19Z" stroke="black" stroke-width="1.5"/>
<path d="M16.5 5C16.5 5.55228 16.0523 6 15.5 6C14.9477 6 14.5 5.55228 14.5 5C14.5 4.44772 14.9477 4 15.5 4C16.0523 4 16.5 4.44772 16.5 5Z" stroke="black" stroke-width="1.5"/>
<path d="M16.5 12C16.5 12.5523 16.0523 13 15.5 13C14.9477 13 14.5 12.5523 14.5 12C14.5 11.4477 14.9477 11 15.5 11C16.0523 11 16.5 11.4477 16.5 12Z" stroke="black" stroke-width="1.5"/>
<path d="M16.5 19C16.5 19.5523 16.0523 20 15.5 20C14.9477 20 14.5 19.5523 14.5 19C14.5 18.4477 14.9477 18 15.5 18C16.0523 18 16.5 18.4477 16.5 19Z" stroke="black" stroke-width="1.5"/>
</svg>
