<svg width="24" height="24" viewBox="0 0 24 24" fill="none" xmlns="http://www.w3.org/2000/svg">
<path d="M10 5C10 5.55228 9.55228 6 9 6C8.44772 6 8 5.55228 8 5C8 4.44772 8.44772 4 9 4C9.55228 4 10 4.44772 10 5Z" fill="black"/>
<path d="M10 12C10 12.5523 9.55228 13 9 13C8.44772 13 8 12.5523 8 12C8 11.4477 8.44772 11 9 11C9.55228 11 10 11.4477 10 12Z" fill="black"/>
<path d="M10 19C10 19.5523 9.55228 20 9 20C8.44772 20 8 19.5523 8 19C8 18.4477 8.44772 18 9 18C9.55228 18 10 18.4477 10 19Z" fill="black"/>
<path d="M17 5C17 5.55228 16.5523 6 16 6C15.4477 6 15 5.55228 15 5C15 4.44772 15.4477 4 16 4C16.5523 4 17 4.44772 17 5Z" fill="black"/>
<path d="M17 12C17 12.5523 16.5523 13 16 13C15.4477 13 15 12.5523 15 12C15 11.4477 15.4477 11 16 11C16.5523 11 17 11.4477 17 12Z" fill="black"/>
<path d="M17 19C17 19.5523 16.5523 20 16 20C15.4477 20 15 19.5523 15 19C15 18.4477 15.4477 18 16 18C16.5523 18 17 18.4477 17 19Z" fill="black"/>
<path d="M10 5C10 5.55228 9.55228 6 9 6C8.44772 6 8 5.55228 8 5C8 4.44772 8.44772 4 9 4C9.55228 4 10 4.44772 10 5Z" stroke="black" stroke-width="1.5"/>
<path d="M10 12C10 12.5523 9.55228 13 9 13C8.44772 13 8 12.5523 8 12C8 11.4477 8.44772 11 9 11C9.55228 11 10 11.4477 10 12Z" stroke="black" stroke-width="1.5"/>
<path d="M10 19C10 19.5523 9.55228 20 9 20C8.44772 20 8 19.5523 8 19C8 18.4477 8.44772 18 9 18C9.55228 18 10 18.4477 10 19Z" stroke="black" stroke-width="1.5"/>
<path d="M17 5C17 5.55228 16.5523 6 16 6C15.4477 6 15 5.55228 15 5C15 4.44772 15.4477 4 16 4C16.5523 4 17 4.44772 17 5Z" stroke="black" stroke-width="1.5"/>
<path d="M17 12C17 12.5523 16.5523 13 16 13C15.4477 13 15 12.5523 15 12C15 11.4477 15.4477 11 16 11C16.5523 11 17 11.4477 17 12Z" stroke="black" stroke-width="1.5"/>
<path d="M17 19C17 19.5523 16.5523 20 16 20C15.4477 20 15 19.5523 15 19C15 18.4477 15.4477 18 16 18C16.5523 18 17 18.4477 17 19Z" stroke="black" stroke-width="1.5"/>
</svg>
