<svg width="24" height="24" viewBox="0 0 24 24" fill="none" xmlns="http://www.w3.org/2000/svg">
<path d="M7.00012 5H17.0001M7.00012 5C7.00012 6.10457 6.10457 7 5 7C3.89543 7 3 6.10457 3 5C3 3.89543 3.89543 3 5 3C6.10457 3 7.00012 3.89543 7.00012 5ZM17.0001 5C17.0001 6.10457 17.8954 7 19 7C20.1046 7 21 6.10457 21 5C21 3.89543 20.1046 3 19 3C17.8954 3 17.0001 3.89543 17.0001 5ZM17.0001 19H7.00012M17.0001 19C17.0001 20.1046 17.8954 21 19 21C20.1046 21 21 20.1046 21 19C21 17.8954 20.1046 17 19 17C17.8954 17 17.0001 17.8954 17.0001 19ZM7.00012 19C7.00012 20.1046 6.10457 21 5 21C3.89543 21 3 20.1046 3 19C3 17.8954 3.89543 17 5 17C6.10457 17 7.00012 17.8954 7.00012 19ZM19 9.5L19 14.5M5 14.5V9.5M11 16L14 12H10L13 8" stroke="black" stroke-width="1.5"/>
</svg>
