<svg width="24" height="24" viewBox="0 0 24 24" fill="none" xmlns="http://www.w3.org/2000/svg">
<path d="M9.93852 8.57139C10.5405 8.20863 11.2459 7.99995 12 7.99995C12.7541 7.99995 13.4595 8.20863 14.0615 8.57139M15.4286 14.0615C15.7913 13.4594 16 12.7541 16 12C16 11.2459 15.7913 10.5405 15.4286 9.93849M8.57143 14.0615C8.20867 13.4594 8 12.7541 8 12C8 11.2459 8.20867 10.5405 8.57143 9.93849M12 20C16.4183 20 20 16.4183 20 12C20 7.58172 16.4183 4 12 4C7.58172 4 4 7.58172 4 12C4 16.4183 7.58172 20 12 20ZM12 20L12.0284 15M12.0284 15L13.5 15L12 13.5L10.5 15H12.0284Z" stroke="black" stroke-width="1.5"/>
</svg>
