<svg width="24" height="24" viewBox="0 0 24 24" fill="none" xmlns="http://www.w3.org/2000/svg">
<path d="M12 7H17.5385M7 7H8.5M20 15.0148C20 15.9792 18.1469 16.7609 15.8609 16.7609C13.575 16.7609 11.7219 15.9792 11.7219 15.0148M20 15.0148C20 14.0505 18.1469 13.2688 15.8609 13.2688C13.575 13.2688 11.7219 14.0505 11.7219 15.0148M20 15.0148V17.9613C20 18.9256 18.1469 19.7073 15.8609 19.7073C13.575 19.7073 11.7219 18.9256 11.7219 17.9613V15.0148M8.83632 17.006H4V12.6584M19 4L20 5V9L19 10H5L4 9V5L5 4H19Z" stroke="black" stroke-width="1.5"/>
</svg>
