<svg width="24" height="24" viewBox="0 0 24 24" fill="none" xmlns="http://www.w3.org/2000/svg">
<path d="M5.07026 15L4.42105 15.3755L4.48412 15.4846L4.57933 15.567L5.07026 15ZM18.9297 15L19.4207 15.567L19.5159 15.4846L19.5789 15.3755L18.9297 15ZM12 21L11.5091 21.567L12 21.9921L12.4909 21.567L12 21ZM9.75 8C9.75 7.58579 9.41421 7.25 9 7.25C8.58579 7.25 8.25 7.58579 8.25 8H9.75ZM8.25 14.5C8.25 14.9142 8.58579 15.25 9 15.25C9.41421 15.25 9.75 14.9142 9.75 14.5H8.25ZM12 8V7.25C11.5858 7.25 11.25 7.58579 11.25 8H12ZM11.25 14.5C11.25 14.9142 11.5858 15.25 12 15.25C12.4142 15.25 12.75 14.9142 12.75 14.5H11.25ZM4.75 11C4.75 6.99594 7.99593 3.75 12 3.75V2.25C7.16751 2.25 3.25 6.16751 3.25 11H4.75ZM12 3.75C16.0041 3.75 19.25 6.99594 19.25 11H20.75C20.75 6.16751 16.8325 2.25 12 2.25V3.75ZM5.71946 14.6245C5.10304 13.5588 4.75 12.3218 4.75 11H3.25C3.25 12.5925 3.67612 14.0878 4.42105 15.3755L5.71946 14.6245ZM19.25 11C19.25 12.3218 18.897 13.5588 18.2805 14.6245L19.5789 15.3755C20.3239 14.0878 20.75 12.5925 20.75 11H19.25ZM4.57933 15.567L11.5091 21.567L12.4909 20.433L5.56119 14.433L4.57933 15.567ZM12.4909 21.567L19.4207 15.567L18.4388 14.433L11.5091 20.433L12.4909 21.567ZM12 12.5241H13.5584V11.0241H12V12.5241ZM13.5584 12.5241C13.9236 12.5241 14.4767 12.4316 14.9616 12.0934C15.4883 11.726 15.8669 11.1121 15.8669 10.2396H14.3669C14.3669 10.6242 14.226 10.7776 14.1034 10.8631C13.9389 10.9778 13.7128 11.0241 13.5584 11.0241V12.5241ZM15.8669 10.2396V9.60617H14.3669V10.2396H15.8669ZM15.8669 9.60617C15.8669 8.96828 15.7086 8.34953 15.2683 7.89086C14.8228 7.42671 14.2077 7.25 13.5584 7.25V8.75C13.9481 8.75 14.1123 8.85256 14.1862 8.9296C14.2654 9.01211 14.3669 9.19644 14.3669 9.60617H15.8669ZM13.5584 7.25H12V8.75H13.5584V7.25ZM11.25 11.7741V14.5H12.75V11.7741H11.25ZM8.25 8V14.5H9.75V8H8.25ZM11.25 8V11.7741H12.75V8H11.25Z" fill="black"/>
</svg>
