<svg width="24" height="24" viewBox="0 0 24 24" fill="none" xmlns="http://www.w3.org/2000/svg">
<path d="M10.5 17.0488H12.5V19.0488H10.5V17.0488Z" fill="black"/>
<path d="M4.96387 17.0488H6.96387V19.0488H4.96387V17.0488Z" fill="black"/>
<path d="M4.96387 11.1673H6.96387V13.1673H4.96387V11.1673Z" fill="black"/>
<path d="M11.8659 8.57649L12.8659 10.3085L11.1339 11.3085L10.1339 9.57649L11.8659 8.57649Z" fill="black"/>
<path d="M14.8101 19H16.9639V8L12.9639 4H4.96387V8M20.4639 19.7183V6.5L16.9639 3M10.5 17.0488H12.5V19.0488H10.5V17.0488ZM4.96387 17.0488H6.96387V19.0488H4.96387V17.0488ZM4.96387 11.1673H6.96387V13.1673H4.96387V11.1673ZM11.8659 8.57649L12.8659 10.3085L11.1339 11.3085L10.1339 9.57649L11.8659 8.57649Z" stroke="black" stroke-width="1.5"/>
</svg>
