<svg width="24" height="24" viewBox="0 0 24 24" fill="none" xmlns="http://www.w3.org/2000/svg">
<path d="M4.5 12C4.5 12.2761 4.27614 12.5 4 12.5C3.72386 12.5 3.5 12.2761 3.5 12C3.5 11.7239 3.72386 11.5 4 11.5C4.27614 11.5 4.5 11.7239 4.5 12Z" fill="black"/>
<path d="M20.5 12C20.5 12.2761 20.2761 12.5 20 12.5C19.7239 12.5 19.5 12.2761 19.5 12C19.5 11.7239 19.7239 11.5 20 11.5C20.2761 11.5 20.5 11.7239 20.5 12Z" fill="black"/>
<path d="M4 16V20H20V12.5M20 12.5C20.2761 12.5 20.5 12.2761 20.5 12C20.5 11.7239 20.2761 11.5 20 11.5C19.7239 11.5 19.5 11.7239 19.5 12C19.5 12.2761 19.7239 12.5 20 12.5ZM20 8V4L4 4V11.4976M8 12H16M13 8V12M11 12V16M4.5 12C4.5 12.2761 4.27614 12.5 4 12.5C3.72386 12.5 3.5 12.2761 3.5 12C3.5 11.7239 3.72386 11.5 4 11.5C4.27614 11.5 4.5 11.7239 4.5 12ZM8 8L16 8V16L8 16V8Z" stroke="black" stroke-width="1.5"/>
</svg>
