<svg width="24" height="24" viewBox="0 0 24 24" fill="none" xmlns="http://www.w3.org/2000/svg">
<path d="M17.0385 16.8675C17.0385 17.2074 16.7629 17.4829 16.4231 17.4829C16.0832 17.4829 15.8077 17.2074 15.8077 16.8675C15.8077 16.5277 16.0832 16.2521 16.4231 16.2521C16.7629 16.2521 17.0385 16.5277 17.0385 16.8675Z" fill="black"/>
<path d="M20 10.5V6L18 4H6L4 6V18L6 20H10.5M14 8.00001H17M8 8.00001H11V13H8V8.00001ZM18.5 13L20.9189 17L18.5 21H14.5L12 17L14.5 13H18.5ZM17.0385 16.8675C17.0385 17.2074 16.7629 17.4829 16.4231 17.4829C16.0832 17.4829 15.8077 17.2074 15.8077 16.8675C15.8077 16.5277 16.0832 16.2521 16.4231 16.2521C16.7629 16.2521 17.0385 16.5277 17.0385 16.8675Z" stroke="black" stroke-width="1.5"/>
</svg>
