<svg width="24" height="24" viewBox="0 0 24 24" fill="none" xmlns="http://www.w3.org/2000/svg">
<path d="M22.2412 12.6973C22.2412 18.3533 17.656 22.9385 12 22.9385C6.34394 22.9385 1.75883 18.3533 1.75883 12.6973C1.75883 7.04124 6.34394 2.45613 12 2.45613C14.3298 2.45613 16.478 3.23411 18.1988 4.54444L18.5615 4.09923C18.5549 4.09421 18.5483 4.08918 18.5416 4.08416C16.7252 2.70242 14.4584 1.88219 12 1.88219C6.02698 1.88219 1.18489 6.72428 1.18489 12.6973C1.18489 18.6704 6.02698 23.5125 12 23.5125C17.9731 23.5125 22.8151 18.6704 22.8151 12.6973C22.8151 10.129 21.9199 7.76972 20.4244 5.91463C20.3388 6.14807 20.2516 6.387 20.1926 6.55111C21.479 8.263 22.2412 10.3912 22.2412 12.6973Z" fill="black"/>
<path d="M8.7977 17.2692C9.58512 17.4278 10.6375 17.3317 11.8023 17.2254C13.7063 17.0516 15.9106 16.8505 17.7488 17.6893C16.6793 17.52 15.2334 17.4927 13.4724 17.9009C11.6476 18.324 10.7356 19.0836 9.77429 19.8842C8.64165 20.8274 8.35858 20.9673 7.69061 21.3579C8.36639 21.6821 10.4603 22.6555 13.3547 22.2837C17.1339 21.7983 20.4722 18.9317 21.4133 14.9556C21.4875 14.3345 21.5312 13.6794 21.4892 13.0256C21.4257 12.0375 21.3621 11.046 21.4739 10.0953C21.9203 6.29868 22.2606 1.24759 20.78 0.585607C19.349 -0.0542074 17.6407 2.57095 16.3392 4.57098C16.0617 4.99746 15.8026 5.39553 15.5687 5.72748H14.1584C13.3711 5.72748 12.6093 6.007 12.0088 6.51622L9.21653 8.88401C9.06186 9.01516 8.86634 9.08844 8.66357 9.09121L3.42975 9.16236C4.04337 9.49841 4.73489 9.6663 5.43429 9.64902L5.51477 9.647C5.84634 9.63884 6.09498 9.94822 6.01557 10.2703L5.91082 10.6952C5.82533 11.0421 5.63104 11.3526 5.35642 11.5812L4.31451 12.4486C4.29963 12.4635 4.2922 12.4783 4.2922 12.5007L4.30672 12.9844C4.31623 13.3014 4.48272 13.5922 4.76117 13.7441C5.50405 14.1491 7.09498 14.9259 8.7977 15.1921C10.7734 15.5007 11.8114 15.0936 12.3158 14.8957C12.4099 14.8588 12.4853 14.8292 12.5449 14.8129C12.5747 14.8054 12.6192 14.8574 12.6192 14.8574C11.1606 15.7792 10.5422 16.0776 8.7977 16.0252C7.05322 15.9731 4.31451 14.5919 4.31451 14.5919C4.24759 14.5622 4.18811 14.6588 4.25503 14.7035C4.25503 14.7035 6.1921 16.7442 8.7977 17.2692ZM11.7419 9.30998C11.7568 8.90108 11.9798 8.55158 12.307 8.35089C12.9687 8.44753 13.5709 8.64081 14.0988 9.08694C14.1211 9.191 14.136 9.30252 14.1285 9.4215C14.0988 10.0609 13.5709 10.559 12.9389 10.559H12.8869C12.2252 10.5293 11.7122 9.97169 11.7419 9.30998ZM11.9022 5.09476C11.0842 5.09476 10.2886 5.36252 9.63701 5.85713L8.38853 6.80476C8.35141 6.83452 8.29189 6.80476 8.29189 6.76017C8.32448 6.28102 8.34581 5.78294 8.36709 5.28679C8.46229 3.06531 8.55584 0.88232 9.64858 0.609166C10.6895 0.348986 11.9687 3.25871 12.5933 5.09512L11.9022 5.09476ZM11.7893 5.94625L8.71424 8.40774C8.6257 8.47857 8.51573 8.51718 8.40234 8.51718H7.20149L10.1555 6.2286C10.6314 5.85985 11.2175 5.66204 11.8195 5.66684C11.879 5.66684 12.0088 5.77308 11.7893 5.94625ZM3.07921 12.1258V11.5338L3.60705 12.225V13.6972C3.26457 13.2449 3.07921 12.693 3.07921 12.1258ZM3.07921 11.5338C3.05692 11.4817 3.07919 11.4744 3.07921 11.5338V11.5338ZM19.2606 7.9038C18.7364 7.23862 18.1257 6.64657 17.4445 6.14337C17.4445 6.14337 19.0661 3.11814 19.9432 3.39308C20.8202 3.66803 19.5488 8.26961 19.5488 8.26961L19.2606 7.9038Z" fill="black"/>
</svg>
