<svg width="24" height="24" viewBox="0 0 24 24" fill="none" xmlns="http://www.w3.org/2000/svg">
<path d="M6 6H21V18H6M6 6V18M6 6V4H3M6 18V21M13.4902 17C16.2517 17 18.4902 14.7614 18.4902 12C18.4902 9.23858 16.2517 7 13.4902 7M13.4902 17C10.7288 17 8.49023 14.7614 8.49023 12C8.49023 9.23858 10.7288 7 13.4902 7M13.4902 17C13.4902 17 12.4903 14 13.4903 12M13.4902 7C13.4902 7 14.4903 10 13.4903 12M17.8204 14.5C17.8204 14.5 14.7223 13.866 13.4903 12M13.4903 12C12.2582 10.134 9.16013 9.5 9.16013 9.5M13.4903 12C15.7223 11.866 17.8204 9.5 17.8204 9.5M13.4903 12C11.2582 12.134 9.16011 14.5 9.16011 14.5" stroke="black" stroke-width="1.5"/>
</svg>
