<svg width="24" height="24" viewBox="0 0 24 24" fill="none" xmlns="http://www.w3.org/2000/svg">
<path d="M2.51038 10.5204C2.56247 10.5978 2.6144 10.6753 2.66667 10.7527C2.35409 10.743 2.02525 10.7128 1.96154 10.5796C1.96287 10.573 1.96419 10.5663 1.96586 10.5597C2.14139 10.514 2.29204 10.5111 2.51038 10.5204ZM4.1782 11.2258C4.20318 11.3024 4.22874 11.3786 4.25364 11.4549C4.19448 11.4574 4.13569 11.46 4.0769 11.4623C4.09102 11.3845 4.10537 11.3063 4.11897 11.2285C4.13896 11.2275 4.15828 11.2268 4.1782 11.2258ZM4.78209 12.8987C4.62541 13.0425 4.50367 13.1384 4.41062 13.3548C4.28085 13.2498 4.21418 13.0405 4.17241 12.8064C4.12722 12.5521 4.11139 12.2686 4.0769 12.0568C4.08069 12.0208 4.08433 11.9848 4.08797 11.9487C4.14862 11.9442 4.20935 11.9396 4.26977 11.9355C4.42385 12.2257 4.57844 12.5158 4.73311 12.8064C4.74946 12.8371 4.76551 12.8678 4.78209 12.8987ZM4.547 10.7527C4.56677 10.622 4.58676 10.4916 4.60743 10.3612C4.61166 10.3351 4.61538 10.3088 4.61895 10.2828C4.63894 10.2819 4.65864 10.2809 4.67818 10.2796C4.63396 10.4374 4.59026 10.5949 4.547 10.7527ZM4.42087 8.62362C4.69788 8.69833 4.97489 8.7731 5.25212 8.84796C5.25085 8.86031 5.24974 8.87274 5.2487 8.88501C4.86162 9.16771 4.50397 9.29323 4.31199 9.80648C4.33607 9.42541 4.3606 9.04426 4.3846 8.66319C4.39664 8.64988 4.40861 8.63686 4.42087 8.62362ZM5.19727 7.44084C5.14279 7.97235 5.21897 8.20786 5.31232 8.53752C5.46052 8.6427 5.51887 8.70535 5.47063 8.86024C5.22097 8.73768 4.95735 8.60912 4.57554 8.62902C4.56588 8.61852 4.55629 8.60801 4.547 8.59766C4.65477 8.17805 4.8631 7.92065 5.02483 7.58833C5.08243 7.53906 5.13974 7.48988 5.19727 7.44084ZM6.39129 6.73365C6.40333 6.73299 6.41559 6.73203 6.42733 6.73121C6.31295 7.12316 6.26679 8.02798 6.06604 8.38708C5.59282 8.1643 5.60181 7.19949 6.13204 6.81842C6.21863 6.79002 6.30485 6.76176 6.39129 6.73365ZM5.9498 9.63887C6.08284 9.78222 6.21566 9.92563 6.34885 10.0692C6.19239 10.548 5.89532 10.9086 5.77031 11.4623C5.69137 11.4566 5.61311 11.4507 5.5341 11.445C5.3332 10.8864 5.83697 9.97697 5.92252 9.56986C6.04553 9.58414 6.16854 9.59804 6.29184 9.61246C6.33703 9.72711 6.38229 9.84168 6.42733 9.95648C6.26835 9.85063 6.10893 9.74457 5.9498 9.63887ZM7.04125 6.73121C7.00119 7.19557 7.10413 7.43603 7.13245 7.79661C6.89758 7.91459 6.66212 8.03278 6.42733 8.15054C6.48642 7.55815 6.60698 7.16783 6.77153 6.75104C6.86154 6.74438 6.95154 6.7378 7.04125 6.73121ZM7.31529 6.02484C7.33283 6.02351 7.35044 6.02263 7.36754 6.02152C7.34175 6.09711 7.31529 6.1727 7.28808 6.24807C7.23673 6.2514 7.18425 6.25473 7.13245 6.25806C7.17199 6.21139 7.21235 6.16434 7.25293 6.11745C7.27396 6.08653 7.29455 6.05576 7.31529 6.02484ZM7.36754 8.19248C7.13282 8.33612 6.89751 8.48005 6.66242 8.62362C6.67669 8.36237 7.01137 8.0117 7.29091 7.914C7.31246 7.92561 7.3332 7.93715 7.35498 7.94876C7.35906 8.02997 7.36323 8.11134 7.36754 8.19248ZM7.83764 6.5622C7.79513 6.80207 7.75261 7.04194 7.71062 7.28189C7.66647 7.3094 7.62225 7.3367 7.57862 7.36414C7.55543 7.38988 7.53231 7.41539 7.5089 7.44084C7.38099 7.26243 7.3494 6.82582 7.37646 6.4946C7.53046 6.51731 7.68401 6.53979 7.83764 6.5622ZM8.30767 6.02218C8.3067 6.0301 8.30581 6.03779 8.30477 6.04548C8.24449 6.10251 8.18451 6.15968 8.1246 6.21686C8.00494 6.2625 7.99 6.26057 7.83764 6.25554C7.8583 6.17751 7.88008 6.09948 7.90156 6.02152C8.03683 6.02166 8.17247 6.02189 8.30767 6.02218ZM8.77777 5.07528C8.70783 5.23282 8.63789 5.39052 8.56802 5.54836C8.32446 5.5309 8.08105 5.51345 7.83764 5.49584C7.83898 5.4832 7.83987 5.47047 7.84128 5.4576C8.14155 5.31973 8.40458 5.15664 8.77777 5.07528ZM8.39804 6.30318C8.42398 6.28809 8.44977 6.27315 8.47564 6.25806C8.49794 6.33705 8.52046 6.41575 8.54275 6.4946C8.46442 6.47944 8.38586 6.46427 8.30767 6.44904C8.33769 6.40037 8.36772 6.3517 8.39804 6.30318ZM9.01286 7.00319C8.7328 7.11125 8.34587 7.08151 8.122 7.2043C8.10573 7.10947 8.08945 7.01487 8.07265 6.91997C8.122 6.8571 8.17039 6.79409 8.21907 6.73121C8.45617 6.82338 8.69311 6.91613 8.92976 7.00844C8.95748 7.00674 8.98506 7.00496 9.01286 7.00319ZM8.41172 7.42878C8.30521 7.43278 8.19841 7.43684 8.09242 7.44084C8.08529 7.40748 8.07949 7.37405 8.07265 7.34069C8.29726 7.24993 8.67446 7.24113 9.01286 7.2043C8.89371 7.26931 8.77517 7.33433 8.65595 7.39942C8.57449 7.40918 8.4934 7.41894 8.41172 7.42878ZM9.24787 7.42871C8.97867 7.49513 8.72069 7.73049 8.54476 7.914C8.51027 7.70031 8.92493 7.32212 9.1236 7.2043C9.21175 7.28218 9.22104 7.27397 9.24787 7.42871ZM9.71797 4.60215C9.71686 4.61485 9.71567 4.62708 9.71448 4.63962C9.62031 4.69582 9.52599 4.7522 9.43197 4.80834C9.29232 4.81839 9.15251 4.82868 9.01286 4.83873C9.01449 4.82646 9.01575 4.81381 9.01694 4.80153C9.25092 4.73498 9.48474 4.66857 9.71797 4.60215ZM9.33773 5.31182C9.30785 5.26766 9.27804 5.22343 9.24787 5.17927C9.45962 5.00175 9.92816 5.09961 10.1881 5.12572C9.90452 5.18778 9.62142 5.24991 9.33773 5.31182ZM11.441 4.61511C11.8341 4.64699 12.193 4.73941 12.4657 4.90841C12.4899 4.90678 12.5142 4.9056 12.5385 4.90412C12.5241 4.92446 12.5092 4.94465 12.4948 4.96499C12.3694 5.00175 12.2442 5.03852 12.119 5.07528C11.8934 5.04317 11.667 5.01093 11.441 4.97868C10.9452 4.90811 10.4488 4.83748 9.95298 4.76684C9.95402 4.757 9.95559 4.74734 9.95678 4.73757C10.4379 4.62684 10.9643 4.57629 11.441 4.61511ZM13.0048 4.49035C12.9768 4.52762 12.9492 4.56503 12.9214 4.60215C12.6681 4.58418 12.4587 4.48549 12.3034 4.36559C12.5386 4.3952 12.7733 4.4251 13.0085 4.45485C13.0074 4.46678 13.006 4.47857 13.0048 4.49035ZM14.2567 5.36485C14.3212 5.34022 14.3867 5.31559 14.4518 5.29111C14.5192 5.3488 14.5861 5.40686 14.6539 5.46456C14.6266 5.66108 14.4348 5.82277 14.2881 6.01464C14.2505 6.01686 14.2132 6.01915 14.1754 6.02152C13.8686 5.51811 13.4819 4.96618 12.8032 4.77239C12.7933 4.75227 12.7836 4.73219 12.7735 4.71209C12.8652 4.67553 12.9563 4.63871 13.0479 4.60215C13.5086 4.76174 13.8927 5.00405 14.321 5.14392C14.3758 5.27617 14.3587 5.23156 14.2567 5.36485ZM14.8241 6.48609C14.8061 6.46886 14.7885 6.45111 14.7707 6.43358C14.7314 6.43594 14.6929 6.43927 14.6539 6.44208C14.7183 6.38084 14.7831 6.3193 14.8485 6.25806C14.8395 6.33402 14.8322 6.41043 14.8241 6.48609ZM15.0312 9.09678C15.3492 9.37008 15.4305 9.76535 15.2981 10.2796C15.1616 9.97482 15.0258 9.67008 14.8889 9.36535C14.9341 9.29767 14.9784 9.22992 15.023 9.16201C15.0258 9.14027 15.0281 9.1183 15.0312 9.09678ZM15.124 6.97042C15.1225 6.98506 15.1217 6.99971 15.12 7.01443C15.0646 7.07759 15.0088 7.14091 14.9529 7.2043C14.9315 7.16236 14.9105 7.12027 14.8889 7.07833C14.9889 6.89993 14.917 6.99571 15.0483 6.97685C15.0733 6.97463 15.0985 6.97227 15.124 6.97042ZM15.3194 6.96776C15.5674 7.05895 15.8166 7.1503 16.0641 7.2415C16.0626 7.26613 16.0597 7.29099 16.0575 7.31562C15.9947 7.35748 15.9322 7.39927 15.8694 7.44084C15.6207 7.34964 15.3726 7.25829 15.124 7.16724C15.1263 7.14246 15.1286 7.11761 15.1309 7.09298C15.1936 7.05111 15.2563 7.00932 15.3194 6.96776ZM16.7693 7.914C16.6317 7.82294 16.4942 7.73234 16.3566 7.64173C16.3372 7.60504 16.3183 7.56813 16.2992 7.53159C16.4782 7.42257 16.4524 7.42804 16.6419 7.46421C16.6838 7.61414 16.7265 7.76392 16.7693 7.914ZM17.0043 7.82405C16.9769 7.85401 16.9494 7.88389 16.9217 7.914C16.8209 7.86296 16.8033 7.79757 16.7693 7.67745C16.8411 7.70822 16.9126 7.73922 16.9847 7.77021C16.9914 7.78818 16.9979 7.80608 17.0043 7.82405ZM16.8287 7.14749C16.808 7.14897 16.7892 7.15015 16.7693 7.15178C16.8336 7.09054 16.899 7.02922 16.9648 6.96776C16.9192 7.02782 16.8729 7.08743 16.8287 7.14749ZM17.9445 8.33745C17.906 8.35402 17.8676 8.37066 17.8299 8.38708C17.6194 8.27014 17.4097 8.15327 17.2006 8.03611C17.1352 7.94802 17.0695 7.85956 17.0043 7.77117C17.3303 7.53182 17.3416 7.80874 17.6491 7.95978C17.7472 8.08582 17.8459 8.21185 17.9445 8.33745ZM18.1795 8.54559C18.1012 8.51741 18.023 8.4893 17.9445 8.46112C17.9916 8.43678 18.039 8.41193 18.0862 8.38708C18.1173 8.44011 18.1484 8.49285 18.1795 8.54559ZM17.8936 8.92703C17.9785 9.09729 17.9778 9.04885 18.1795 9.02392C18.0594 9.1271 17.9388 9.23021 17.8182 9.33332C17.7038 9.11586 17.5891 8.89825 17.4744 8.68117C17.4756 8.66741 17.4771 8.65409 17.4787 8.64034C17.7322 8.58634 17.8142 8.67747 18.0616 8.71371C18.0936 8.76438 18.1258 8.81519 18.1577 8.86601C18.0701 8.88657 17.982 8.90676 17.8936 8.92703ZM17.9445 9.35144C18.1011 9.26631 18.2576 9.18176 18.4145 9.09678C18.3203 9.30699 18.1981 9.41572 18.0526 9.56986C18.0169 9.497 17.9808 9.42415 17.9445 9.35144ZM18.8846 10.2543C18.7574 10.3636 18.6747 10.3989 18.4333 10.4184C18.4978 10.4253 18.5628 10.4327 18.6272 10.4397C18.6257 10.4513 18.6246 10.4624 18.6234 10.4739C18.4028 10.5667 18.1822 10.6596 17.9612 10.7527C17.9552 10.4714 17.9501 10.1901 17.9445 9.90892C18.0963 9.73022 18.2492 9.55159 18.4011 9.37259C18.4294 9.35958 18.4566 9.34663 18.4844 9.33332C18.6176 9.64042 18.7517 9.9476 18.8846 10.2543ZM18.6496 8.96061C19.9474 8.60077 19.6966 9.28487 19.1175 9.80648C18.9613 9.52459 18.8049 9.24234 18.6496 8.96061ZM19.8248 9.09678C19.3466 11.3282 19.2544 11.4498 17.5634 12.4086C17.5341 12.3643 17.5041 12.32 17.4744 12.2757C17.4946 12.1927 17.5142 12.1098 17.5341 12.0268C18.637 11.7142 19.2643 11.1412 19.1989 9.84198C19.3833 9.60692 19.5674 9.37208 19.7515 9.13701C19.7761 9.12363 19.8004 9.11031 19.8248 9.09678ZM19.8824 9.09678C19.8636 9.01978 19.8443 8.94256 19.8248 8.86549C19.8838 8.86364 19.9426 8.86186 20.0008 8.86024C19.9614 8.93916 19.9219 9.018 19.8824 9.09678ZM17.0043 11.2666C17.0095 11.1845 17.0152 11.1023 17.0209 11.0202C17.0255 10.9498 17.03 10.8792 17.035 10.8088C17.0892 10.791 17.1439 10.773 17.1983 10.7553C17.2061 10.7546 17.2137 10.7535 17.2213 10.7527C17.2672 11.0317 17.2217 11.2387 17.1277 11.4623C17.049 11.4124 17.0336 11.3911 17.0043 11.2666ZM16.0641 13.3365C16.0656 13.3228 16.0666 13.3092 16.0678 13.2956C16.1708 13.0513 16.2735 12.8072 16.3762 12.5631C16.3973 12.5115 16.4194 12.4599 16.4412 12.4086C16.6216 12.4207 16.8034 12.4328 16.9839 12.4449C16.992 12.4856 16.9975 12.5248 17.0006 12.5631C17.0245 12.8413 16.9275 13.0641 16.8272 13.3548C16.573 13.3485 16.3189 13.3428 16.0641 13.3365ZM16.2992 14.2862C16.3011 14.1641 16.3036 14.042 16.3058 13.9201C16.3089 13.8894 16.3119 13.8585 16.3148 13.828C16.4472 13.8377 16.5792 13.8476 16.7114 13.8573L16.7693 13.8529C16.6784 14.0022 16.5878 14.1516 16.4977 14.3011C16.4312 14.2961 16.3653 14.2911 16.2992 14.2862ZM16.0664 12.7553C16.0743 12.7513 16.0824 12.7472 16.0905 12.743C16.1532 12.7111 16.2159 12.6791 16.2785 12.6472C16.2853 12.6465 16.2922 12.6459 16.2992 12.6452C16.2894 12.6777 16.2802 12.7103 16.2709 12.7431C16.2346 12.8682 16.1984 12.9934 16.162 13.1183C16.1299 13.0071 16.0966 12.8957 16.0641 12.7844C16.0648 12.7746 16.0653 12.7649 16.0664 12.7553ZM15.6998 13.9332C15.6645 13.8979 15.6286 13.8627 15.5941 13.828C15.6974 13.8994 15.63 13.8296 15.6998 13.9332ZM15.124 13.6519C15.2559 13.5689 15.3988 13.5945 15.5941 13.5974C15.5745 13.6602 15.5556 13.7234 15.5363 13.7863C15.3755 13.8499 15.3528 13.8265 15.17 13.8079C15.1548 13.7559 15.1398 13.7039 15.124 13.6519ZM15.4117 14.5376C15.4727 14.6797 15.5336 14.8219 15.5941 14.964C15.4534 15.0585 15.3126 15.1528 15.1717 15.2473C15.046 15.0767 15.1834 14.5967 15.4117 14.5376ZM14.9479 13.053C14.9286 13.0544 14.9091 13.0556 14.8889 13.0573C14.915 12.9986 14.9404 12.9402 14.966 12.8817C14.9606 12.9385 14.954 12.9957 14.9479 13.053ZM15.6246 13.1183C15.6148 13.1118 15.6042 13.1053 15.5941 13.0988C15.6288 13.0269 15.6625 12.955 15.6974 12.8831C15.7082 12.8826 15.7202 12.8822 15.7315 12.8817C15.7637 12.9574 15.7967 13.0331 15.8291 13.1089C15.761 13.112 15.6928 13.1152 15.6246 13.1183ZM17.2522 10.043C17.2482 10.0164 17.2438 9.98961 17.2393 9.96291C17.3013 9.88813 17.3408 9.84161 17.447 9.80648C17.4563 9.85293 17.4656 9.89967 17.4744 9.94642C17.4289 9.97645 17.3831 10.0066 17.3377 10.037C17.309 10.039 17.2806 10.0411 17.2522 10.043ZM17.2393 10.6207C17.1969 10.6764 17.1216 10.7077 17.0678 10.7527C17.0465 10.3585 17.0251 9.96424 17.0043 9.56986C17.0825 9.92046 17.1609 10.2707 17.2393 10.6207ZM16.8081 12.2061C16.9637 12.1203 16.9855 12.1996 17.0043 12.4086C16.8471 12.4083 16.6911 12.4077 16.5342 12.4074C16.5368 12.3829 16.5395 12.3587 16.5418 12.3345C16.6306 12.2916 16.7192 12.2489 16.8081 12.2061ZM16.5776 11.5522C16.6127 11.5224 16.648 11.4922 16.6838 11.4623C16.7121 11.5133 16.741 11.5643 16.7693 11.6151C16.7559 11.6431 16.743 11.6709 16.7293 11.699C16.6643 11.6916 16.5994 11.684 16.5342 11.6765C16.5489 11.635 16.5632 11.5936 16.5776 11.5522ZM16.5342 12.1796C16.4528 12.2558 16.371 12.3324 16.2891 12.4086C16.236 12.3999 16.1827 12.3912 16.1295 12.3822C16.1073 12.3845 16.0856 12.3866 16.0641 12.3887C16.1026 12.3162 16.1402 12.2442 16.1786 12.172C16.2971 12.1746 16.4158 12.1772 16.5342 12.1796ZM15.6471 12.0453C15.5493 11.9774 15.6203 11.9866 15.6015 11.9355C15.6166 11.9719 15.632 12.0086 15.6471 12.0453ZM16.3884 10.9893C16.1238 10.8531 15.8591 10.7168 15.5941 10.5805C15.631 10.0396 15.6978 9.41801 15.6438 8.86024C16.2564 9.0811 16.8052 10.0694 16.3884 10.9893ZM15.8291 10.9893C16.0246 11.0911 16.0132 11.1854 16.2844 11.2675C16.3318 11.4429 16.2597 11.512 16.1471 11.699C16.0514 11.6951 15.9553 11.6912 15.8592 11.6872C15.7996 11.3759 15.8641 11.1968 15.8291 10.9893ZM15.8829 12.5183C15.7844 12.4507 15.8549 12.4597 15.8368 12.4086C15.8518 12.4455 15.8669 12.4822 15.8829 12.5183ZM17.4744 10.2415C17.4751 10.227 17.4759 10.2125 17.4767 10.1982C17.5474 10.1463 17.6179 10.0949 17.6886 10.043C17.7259 10.2852 17.7118 10.6884 17.6563 10.9893C17.5311 10.8915 17.5081 10.4806 17.4744 10.2415ZM17.4744 10.989C17.5223 10.9103 17.5696 10.8315 17.6163 10.7527C17.5884 10.8298 17.5604 10.9072 17.5338 10.9847C17.5139 10.9864 17.4944 10.9881 17.4744 10.989ZM18.8449 10.2819C18.8587 10.281 18.8716 10.2803 18.8845 10.2796C18.8957 11.1856 18.3325 11.3506 17.592 11.6916C17.5527 11.6941 17.5136 11.6967 17.4744 11.699C17.6279 11.3826 17.7816 11.0661 17.9356 10.7498C18.2387 10.5938 18.5421 10.4381 18.8449 10.2819ZM17.4519 8.51142C17.4596 8.53479 17.4671 8.55823 17.4744 8.58168C17.4549 8.59581 17.4349 8.60972 17.4156 8.62362C17.3566 8.54477 17.298 8.466 17.2393 8.38708C17.3106 8.42857 17.3814 8.47007 17.4519 8.51142ZM17.2393 8.90491C17.2425 8.89115 17.2435 8.8771 17.2458 8.86364C17.2629 8.86245 17.2803 8.86127 17.2976 8.86024C17.3569 8.9393 17.4155 9.018 17.4744 9.09678C17.3384 9.03198 17.3159 9.0163 17.2393 8.90491ZM17.4744 9.5095C17.3686 9.6084 17.2626 9.70751 17.157 9.80648C16.9299 9.4797 16.7033 9.15247 16.4764 8.82569C16.1829 8.57229 15.888 8.31866 15.5941 8.06511C15.6594 8.01481 15.724 7.96429 15.7886 7.914C16.2156 8.0975 16.9629 8.44714 17.1133 8.88331C17.1623 9.0251 16.9938 9.14241 17.1086 9.26113C17.2448 9.40166 17.3813 9.30144 17.4744 9.5095ZM15.4907 10.9893C15.5141 10.9987 15.5385 11.008 15.5622 11.0173C15.5729 11.2445 15.5833 11.4718 15.5941 11.699C15.5573 11.6905 15.5211 11.682 15.484 11.6736C15.3807 11.5979 15.3084 11.2456 15.403 11.0927C15.4319 11.0583 15.4615 11.0238 15.4907 10.9893ZM14.97 12.175C14.9951 12.174 15.0209 12.173 15.0458 12.172C15.0717 12.2337 15.0982 12.2953 15.124 12.3571C15.084 12.3726 15.0435 12.3883 15.003 12.4038C14.965 12.4055 14.9276 12.407 14.8889 12.4086C14.9162 12.3308 14.9434 12.253 14.97 12.175ZM14.7551 15.957C14.7216 15.8422 14.6874 15.7269 14.6539 15.6117C14.7986 15.57 14.9432 15.5283 15.0883 15.4863C15.0998 15.4858 15.1122 15.4848 15.124 15.4838C15.1224 15.4946 15.1211 15.5055 15.1203 15.5162C14.9986 15.6634 14.8769 15.81 14.7551 15.957ZM14.4188 15.0108C14.4616 14.8722 14.493 14.851 14.5705 14.7742C14.5923 14.7825 14.6143 14.7908 14.6359 14.799C14.6419 14.8194 14.6478 14.8398 14.6539 14.8602C14.6056 14.9073 14.5574 14.9542 14.5094 15.0015C14.4789 15.0044 14.4489 15.0077 14.4188 15.0108ZM14.5294 15.2473C14.4926 15.2071 14.4556 15.1668 14.4188 15.1267C14.497 15.088 14.5758 15.0494 14.6539 15.0108C14.6337 15.0884 14.6132 15.1659 14.5927 15.2434C14.5717 15.2448 14.5505 15.246 14.5294 15.2473ZM14.2817 16.3209C14.2489 16.2942 14.2162 16.2676 14.1838 16.2407C14.2077 16.2392 14.2324 16.2377 14.2564 16.2363C14.3774 16.1432 14.4981 16.05 14.6188 15.957C14.6302 16.0519 14.6423 16.1469 14.6539 16.2415C14.5618 16.3043 14.4686 16.3674 14.376 16.4301C14.3447 16.3937 14.3134 16.3574 14.2817 16.3209ZM14.2995 19.0295C13.7339 19.0536 13.3961 18.9104 12.933 18.8701C12.7569 18.5241 12.5809 18.1774 12.4048 17.8316C12.371 17.7968 12.3372 17.7621 12.3034 17.7275C13.1915 17.6228 13.7498 17.1973 14.4077 16.9032C14.6408 17.1225 15.1682 18.2433 14.7037 18.7394C14.5932 18.9092 14.4682 18.926 14.2995 19.0295ZM11.8697 17.8631C11.9403 17.8588 12.0114 17.8541 12.0827 17.8495C12.4027 18.0624 12.6208 18.4445 12.7735 18.7957C12.4602 18.7061 12.1464 18.6158 11.8333 18.5258C11.9031 18.2893 11.9325 18.0491 11.8697 17.8631ZM11.1944 16.9701C11.5474 16.8686 11.8999 16.768 12.2528 16.6667C12.808 16.7207 13.363 16.7748 13.9185 16.8285C13.9284 16.8564 13.9388 16.8841 13.9487 16.9117C13.4525 17.1333 12.8885 17.32 12.3197 17.6062C11.7035 17.6549 11.5552 17.4265 11.1282 17.2762C11.1506 17.1739 11.1728 17.0722 11.1944 16.9701ZM11.1282 18.0846C11.1353 18.0164 11.1422 17.948 11.1494 17.8795C11.2843 17.8696 11.4193 17.8594 11.5547 17.8495C11.5879 18.0279 11.6235 18.1275 11.5734 18.3226C11.4251 18.2433 11.2768 18.1638 11.1282 18.0846ZM10.6581 18.4553C10.7106 18.426 10.7633 18.3975 10.8155 18.3685C11.0087 18.2415 11.1542 18.4112 11.3633 18.4777C11.3354 18.5045 11.3077 18.5318 11.28 18.5592C11.0726 18.5246 10.8654 18.4898 10.6581 18.4553ZM11.1145 18.086C11.0635 18.0632 11.0124 18.0402 10.9616 18.0168C10.9387 17.9614 10.9159 17.905 10.8932 17.8495C10.9714 17.8544 11.0498 17.8592 11.1282 17.864C11.1237 17.9382 11.1189 18.012 11.1145 18.086ZM10.4231 18.086C10.5016 18.153 10.5797 18.2195 10.6581 18.286C10.6576 18.41 10.647 18.3959 10.6189 18.5592C10.5536 18.4013 10.4886 18.2439 10.4231 18.086ZM9.81348 17.1991C10.0341 17.1326 10.3283 17.1472 10.6581 17.1398C10.5556 17.2187 10.4539 17.2975 10.3512 17.3763C10.1401 17.3558 9.9289 17.3353 9.71797 17.3146C9.74986 17.2762 9.78174 17.2376 9.81348 17.1991ZM9.24787 5.34421C9.68415 4.93001 10.7793 5.05375 11.0539 5.31677C11.0786 5.31478 11.1036 5.31241 11.1282 5.31026C10.7629 5.64806 10.1976 5.68712 9.85034 6.02152C9.57824 5.84141 9.35304 5.7261 9.24787 5.34421ZM11.6486 6.02152C11.7103 6.09097 11.7717 6.16042 11.8333 6.22973C11.6687 6.23934 11.4955 6.24911 11.3232 6.26346C10.9342 6.2963 10.55 6.35399 10.2816 6.49223C10.2701 6.49319 10.2585 6.49386 10.2469 6.4946C10.2272 6.46435 10.2075 6.43417 10.1881 6.40407C10.5172 6.23794 10.8763 6.10428 11.3232 6.04814C11.4161 6.03653 11.5128 6.02825 11.614 6.02388C11.6258 6.02292 11.6372 6.02203 11.6486 6.02152ZM12.5643 4.83873C12.868 5.14184 13.3222 5.32077 13.4786 5.78497C12.8405 5.49059 11.8604 5.49488 11.3633 5.02675C11.8019 5.11951 12.1743 5.08511 12.5643 4.83873ZM12.7735 6.4946C13.0646 6.53432 13.3553 6.57396 13.6454 6.61331C13.6686 6.61169 13.6913 6.60962 13.7136 6.60769C13.4809 6.80659 13.2479 7.0054 13.0146 7.2043C12.9049 6.98514 12.8783 6.68809 12.7735 6.4946ZM13.8937 7.50637C13.8337 7.49742 13.7737 7.48818 13.7136 7.47915C13.792 7.46643 13.8703 7.45364 13.9487 7.44084C13.9304 7.46288 13.9118 7.48485 13.8937 7.50637ZM13.7136 6.94105C13.7851 6.87123 13.8575 6.80141 13.929 6.73121C13.9358 6.80999 13.9419 6.88876 13.9487 6.96776C13.897 6.95644 13.8451 6.94527 13.7928 6.93373C13.7667 6.93654 13.7398 6.93847 13.7136 6.94105ZM14.1402 14.7701C14.1058 14.7716 14.0711 14.7729 14.0371 14.7742C14.007 14.7467 13.9779 14.7191 13.9487 14.6917C13.9713 14.6616 13.9938 14.632 14.0167 14.6022C14.0722 14.5806 14.1278 14.5592 14.1838 14.5376C14.1688 14.615 14.1548 14.6925 14.1402 14.7701ZM13.953 15.2015C13.9814 15.1685 14.0106 15.1356 14.0393 15.1026C14.0419 15.0719 14.0444 15.0411 14.0468 15.0108C14.0926 15.0829 14.1381 15.1549 14.1838 15.2269C14.1052 15.2338 14.0269 15.2406 13.9487 15.2473C13.9501 15.2322 13.9514 15.2168 13.953 15.2015ZM13.8597 15.957C13.8111 15.8991 13.7626 15.8412 13.7136 15.7833C13.8702 15.7624 14.0271 15.7414 14.1838 15.7205C14.1091 15.797 14.0344 15.8735 13.9598 15.9501C13.9267 15.9524 13.8931 15.9544 13.8597 15.957ZM13.9487 16.6667C13.7924 16.6481 13.6358 16.6291 13.4786 16.6106C13.5889 16.5505 13.6997 16.4904 13.81 16.4301C13.8562 16.5088 13.9029 16.5876 13.9487 16.6667ZM13.619 15.9992C13.6507 16.0291 13.6821 16.0589 13.7136 16.0889C13.6002 16.1179 13.4872 16.147 13.3733 16.1759C13.2516 16.1816 13.1302 16.1875 13.0085 16.1935C13.1775 16.1147 13.3473 16.0357 13.5168 15.957C13.5513 15.9711 13.5852 15.9853 13.619 15.9992ZM12.3034 5.78497C12.578 5.79237 12.8683 5.86145 13.0085 6.02152C12.8191 6.00288 12.4788 6.0332 12.3928 5.8883C12.3637 5.85376 12.3334 5.81929 12.3034 5.78497ZM12.5421 6.73121C12.6764 6.84771 12.7234 6.98492 12.699 7.2043C12.4919 7.13336 12.5459 6.90844 12.5421 6.73121ZM12.7735 8.22236C12.7761 8.20897 12.7781 8.19551 12.7809 8.18205C13.249 8.08108 13.3505 8.2424 13.137 8.38708C12.9527 8.36215 12.8684 8.29307 12.7735 8.22236ZM13.3755 14.3011C13.4096 14.3095 13.4441 14.3181 13.4786 14.3266C13.4772 14.3376 13.4761 14.3483 13.475 14.3592C13.3975 14.4186 13.3208 14.4782 13.2436 14.5376C13.2758 14.4593 13.308 14.3814 13.3399 14.3036C13.3524 14.3025 13.364 14.3019 13.3755 14.3011ZM13.2461 8.53124C13.3043 8.48331 13.363 8.43516 13.4213 8.38708C13.4403 8.46615 13.4596 8.54477 13.4786 8.62362C13.4001 8.60668 13.322 8.58952 13.2436 8.57236C13.2443 8.5586 13.2453 8.54477 13.2461 8.53124ZM13.9487 14.8569C13.7594 14.9058 13.5702 14.9548 13.3809 15.0039C13.3352 15.0061 13.2893 15.0084 13.2436 15.0108C13.2447 15.0028 13.2461 14.9949 13.2473 14.987C13.4605 14.9457 13.5967 14.8756 13.7225 14.7742C13.7886 14.7865 13.8552 14.7989 13.9214 14.8113C13.9305 14.8264 13.9398 14.8416 13.9487 14.8569ZM13.5433 14.3011C13.5217 14.2573 13.5 14.2136 13.4786 14.1701C13.5324 14.135 13.5865 14.0996 13.6405 14.0645C13.665 14.0778 13.6892 14.0906 13.7136 14.1036C13.6829 14.1672 13.6517 14.2306 13.6208 14.2943C13.5951 14.2965 13.5691 14.2988 13.5433 14.3011ZM12.0684 15.9369C12.1615 15.8651 12.2551 15.7928 12.3481 15.7205C12.637 15.7451 12.9254 15.7697 13.2144 15.7943C13.2242 15.8155 13.2338 15.837 13.2436 15.858C13.0488 15.9699 12.8536 16.0818 12.6587 16.1935C12.4418 16.1583 12.2541 16.0624 12.1417 15.9318C12.1174 15.9337 12.0929 15.9353 12.0684 15.9369ZM11.6332 15.957C11.7782 16.0359 11.9235 16.1146 12.0684 16.1935C11.8333 16.1526 11.5983 16.1112 11.3633 16.0704C11.4534 16.0327 11.5432 15.9949 11.6332 15.957ZM11.5983 16.44C11.5973 16.4594 11.5962 16.4781 11.5953 16.4972C11.5504 16.5218 11.506 16.5464 11.4615 16.5713C11.4284 16.5751 11.3961 16.5798 11.3633 16.5836C11.3643 16.5646 11.3659 16.5457 11.3669 16.5268C11.4694 16.3915 11.452 16.4367 11.5983 16.44ZM10.4901 6.81243C10.468 6.78876 10.4456 6.76516 10.4231 6.74179C10.6563 6.61516 11.0247 6.55547 11.3871 6.52618C11.6854 6.50222 11.9793 6.49859 12.1893 6.4946C12.2274 6.73107 12.2656 6.96768 12.3034 7.2043C11.9969 7.17079 11.703 7.13115 11.3871 7.11665C11.134 7.10526 10.8668 7.10969 10.5674 7.14646C10.5422 7.03499 10.5163 6.9236 10.4901 6.81243ZM10.8357 16.305C10.8549 16.3384 10.8739 16.3716 10.8932 16.4049C10.8748 16.4756 10.8563 16.5466 10.8379 16.6173C10.6214 16.6339 10.405 16.6501 10.1881 16.6667C10.2577 16.4554 10.3615 16.354 10.4732 16.1935C10.594 16.2307 10.7147 16.2679 10.8357 16.305ZM10.0344 15.4838C9.73923 15.4677 9.33386 15.2528 9.24787 15.0108C9.56152 15.09 9.87442 15.1694 10.1881 15.2486C10.1369 15.3271 10.0858 15.4055 10.0344 15.4838ZM10.3646 15.4713C10.3056 15.4757 10.247 15.4797 10.1881 15.4838C10.1899 15.4655 10.1925 15.4466 10.1942 15.4278C10.2595 15.3678 10.3242 15.3071 10.3895 15.2473C10.381 15.3222 10.3728 15.3966 10.3646 15.4713ZM9.71797 6.82064C9.8134 6.7909 9.90846 6.76095 10.0039 6.73121C10.0653 6.8074 10.1268 6.88395 10.1881 6.96036C10.1234 6.9628 10.0596 6.96517 9.99498 6.96776C9.90289 6.91872 9.81021 6.86968 9.71797 6.82064ZM9.71425 16.9775C9.69946 17.029 9.68482 17.0808 9.66996 17.1325C9.64699 17.1344 9.62432 17.1369 9.60158 17.1398C9.56219 17.0607 9.5225 16.9816 9.48288 16.9032C9.56152 16.9112 9.63941 16.9191 9.71797 16.9272C9.71671 16.9439 9.71522 16.9606 9.71425 16.9775ZM9.84506 15.957C10.0281 15.9936 10.2107 16.0306 10.3932 16.0672C10.4033 16.0917 10.4132 16.1164 10.4231 16.141C10.2811 16.3162 10.1392 16.4912 9.99721 16.6667C9.82619 16.6416 9.65457 16.6165 9.48288 16.5915C9.60381 16.38 9.72444 16.1685 9.84506 15.957ZM13.9487 8.54352C13.9841 8.49189 14.0195 8.44033 14.0549 8.38871C14.0679 8.38819 14.0803 8.38767 14.0933 8.38708C14.1919 8.41171 14.2899 8.43627 14.3882 8.4609C14.3983 8.47473 14.4087 8.48871 14.4188 8.50261C14.3088 8.54285 14.1988 8.58338 14.0885 8.62362C14.0421 8.59692 13.9953 8.57014 13.9487 8.54352ZM14.5843 7.77893C14.5293 7.74506 14.4747 7.71148 14.4188 7.67745C14.5876 7.73892 14.4905 7.67006 14.5843 7.77893ZM14.5313 8.86024C14.4934 8.82858 14.4561 8.797 14.4188 8.76526C14.4972 8.718 14.5754 8.67074 14.6539 8.62362C14.6129 8.70232 14.5719 8.78131 14.5313 8.86024ZM14.4188 10.5161C14.5405 10.5461 14.6625 10.576 14.7842 10.606C14.8824 10.6441 14.8802 10.6545 14.8889 10.7527C14.7318 10.6928 14.4692 10.6517 14.4188 10.5161ZM14.4544 9.87171C14.4712 9.84997 14.4884 9.8283 14.5051 9.80648C14.5549 9.8854 14.6044 9.96417 14.6539 10.043C14.5756 10.0279 14.4971 10.0128 14.4188 9.9976C14.4307 9.95574 14.4425 9.9138 14.4544 9.87171ZM9.69359 17.6549C9.70162 17.6757 9.70972 17.6964 9.71797 17.7172C9.61243 17.7572 9.50667 17.7974 9.40135 17.8374C9.35036 17.8413 9.29908 17.8455 9.24787 17.8495C9.24884 17.8388 9.24973 17.8281 9.25121 17.8173C9.28711 17.7612 9.32279 17.7051 9.35921 17.6492C9.50912 17.5804 9.51254 17.6253 9.69359 17.6549ZM9.01286 5.78497C9.21821 5.93579 9.27084 6.12307 9.23947 6.73121C9.10413 6.55917 9.02252 6.19578 9.01286 5.78497ZM9.1482 5.31182C9.14211 5.36929 9.13623 5.42609 9.13036 5.48312C9.09112 5.48615 9.05188 5.48874 9.01286 5.49163C9.05723 5.43179 9.10286 5.37217 9.1482 5.31182ZM9.01286 5.54836C9.00683 5.60539 9.00171 5.66241 8.99502 5.71944C8.92292 5.70591 8.84979 5.69267 8.77777 5.67943C8.8373 5.63734 8.89706 5.59474 8.95667 5.55265C8.9754 5.55102 8.99457 5.54984 9.01286 5.54836ZM9.01286 19.2688C9.05121 18.8672 9.0903 18.4658 9.12902 18.0644C9.40358 17.9926 9.67843 17.9211 9.95298 17.8495C9.66423 18.3085 9.37571 18.7672 9.08681 19.2256C9.06221 19.2401 9.03746 19.2547 9.01286 19.2688ZM9.07098 16.0319C9.11334 16.0068 9.15519 15.9818 9.19725 15.957C9.31268 16.0932 9.20922 16.2886 9.10108 16.4301C9.00988 16.3455 9 16.2932 9.024 16.1016C9.03954 16.0783 9.05559 16.0549 9.07098 16.0319ZM8.30767 15.9162C8.39819 15.7723 8.4885 15.6281 8.5785 15.4838C8.72344 15.5682 8.86837 15.6525 9.01286 15.7369C8.86406 15.9681 8.71422 16.1989 8.56416 16.4301C8.42911 16.3111 8.34646 16.1356 8.30767 15.9162ZM8.30767 17.7686C8.45163 17.6379 8.59656 17.5072 8.74068 17.3763C8.80913 17.3825 8.87773 17.3886 8.94589 17.3946C8.96811 17.4314 8.99004 17.4683 9.01286 17.5051C8.99509 17.6199 8.97815 17.7348 8.96098 17.8495C8.74306 17.8225 8.52559 17.7956 8.30767 17.7686ZM7.60255 17.4476C7.77461 17.345 7.94742 17.2424 8.11948 17.1398C8.25103 17.1602 8.38184 17.1807 8.51317 17.2012C8.52276 17.2191 8.53302 17.237 8.54275 17.2552C8.40451 17.3744 8.26664 17.4936 8.12877 17.6129C7.92148 17.5915 7.78405 17.5369 7.67613 17.4434C7.65131 17.4448 7.62671 17.4462 7.60255 17.4476ZM7.53395 16.9904C7.5972 16.9612 7.66015 16.9322 7.72273 16.9032C7.74964 16.909 7.77677 16.9148 7.80382 16.9205C7.81512 16.9336 7.82634 16.9467 7.83764 16.9595C7.65554 17.0197 7.47226 17.0798 7.29002 17.1398C7.23769 17.1216 7.18537 17.1031 7.13245 17.085C7.26668 17.0534 7.40069 17.022 7.53395 16.9904ZM6.89743 16.7683C6.94344 16.6574 6.98975 16.5466 7.03546 16.4356C7.29314 16.4023 7.35356 16.5285 7.54629 16.6082C7.56457 16.6361 7.5836 16.6643 7.60255 16.6925C7.50667 16.7578 7.41065 16.8227 7.31477 16.888C7.23687 16.8932 7.15913 16.8982 7.08109 16.9032C7.02 16.8583 6.95905 16.8134 6.89743 16.7683ZM6.42733 17.7392C6.54127 17.5395 6.65536 17.3395 6.7693 17.1398C6.99651 17.1395 7.02379 17.1583 7.11751 17.2775C7.15861 17.3465 7.12316 17.3095 7.03241 17.3249C7.02512 17.3938 7.01866 17.4623 7.01137 17.5314C7.13044 17.5498 7.24906 17.5677 7.36754 17.5864C7.29775 17.759 7.2866 17.7362 7.18046 17.8462C6.83062 17.8651 6.67216 17.7984 6.42733 17.7392ZM6.03141 16.9032C6.2306 16.963 6.42956 17.0225 6.62905 17.0819C6.63998 17.1052 6.65098 17.1291 6.66242 17.1526C6.53429 17.3061 6.40652 17.4595 6.27868 17.6129C6.09317 17.5524 5.90743 17.4919 5.72222 17.4316C5.82531 17.2557 5.92854 17.0795 6.03141 16.9032ZM3.72899 16.2639C3.73159 16.2403 3.73397 16.217 3.73672 16.1935C3.84776 16.2786 3.95917 16.3637 4.07006 16.4487C4.0798 16.471 4.08939 16.4935 4.09897 16.5161C3.40506 17.0474 4.46591 18.7805 5.67324 17.6578C5.84627 17.7268 6.01892 17.7956 6.19232 17.8645C5.99254 18.218 5.64968 18.3573 5.28861 18.5565C4.42526 18.628 3.21717 17.229 3.72899 16.2639ZM4.53422 16.5062C4.5386 16.5597 4.54269 16.6129 4.547 16.6667C4.48278 16.6185 4.41901 16.571 4.35524 16.5231C4.3406 16.4921 4.32641 16.4611 4.31199 16.4301C4.38609 16.4555 4.46012 16.4809 4.53422 16.5062ZM5.72222 17.5108C5.57907 17.6209 5.4357 17.731 5.29225 17.8405C4.44718 17.9288 4.10455 17.3478 4.0769 16.6337C4.13197 16.5677 4.18645 16.5018 4.24138 16.4356C4.26568 16.4339 4.28991 16.4318 4.31407 16.4301C4.73995 16.7631 5.11618 17.2709 5.6939 17.439C5.70304 17.463 5.71263 17.4869 5.72222 17.5108ZM4.90316 14.0645C4.82616 14.0087 4.82133 13.982 4.78209 13.8884C4.83605 13.6864 4.88956 13.484 4.94322 13.2818C5.00595 13.2274 5.06861 13.1726 5.13119 13.1183C5.17155 13.1771 5.2122 13.2356 5.25212 13.2941C5.13587 13.551 5.01956 13.8076 4.90316 14.0645ZM4.78209 14.2693C4.90569 13.9792 5.02929 13.689 5.15319 13.3991C5.17876 13.3841 5.20403 13.3695 5.22915 13.3548C5.39972 13.6537 5.647 13.7892 5.72222 14.1951C5.53618 14.3881 5.34993 14.5811 5.16389 14.7742C4.99072 14.6483 4.87001 14.4839 4.78209 14.2693ZM5.4872 14.9925C5.64455 14.8408 5.80145 14.6892 5.95887 14.5376C6.03639 14.6952 6.11435 14.8529 6.19232 15.0108C5.95738 15.0043 5.72252 14.9985 5.4872 14.9925ZM6.66242 10.2125C6.43952 10.685 6.14341 11.0058 5.96585 11.4623C5.88856 11.0472 6.35561 10.4505 6.50619 10.0838C6.52998 10.0702 6.55391 10.0568 6.57769 10.043C6.60601 10.0995 6.63403 10.1559 6.66242 10.2125ZM6.66242 8.91149C7.01152 8.80395 7.24624 8.60713 7.49679 8.38708C7.53187 8.49241 7.56739 8.59788 7.60255 8.70321C7.50355 8.83427 7.40485 8.96579 7.30592 9.09678C7.09127 9.03516 6.87692 8.97325 6.66242 8.91149ZM7.83764 8.93531C7.79527 8.98908 7.75261 9.043 7.71025 9.09678C7.6745 9.09093 7.63852 9.08472 7.60255 9.0788L7.60523 9.05314C7.6765 8.98879 7.74778 8.92459 7.81861 8.86024C7.82471 8.88531 7.83147 8.91031 7.83764 8.93531ZM7.65235 7.91636C7.66476 7.91547 7.6771 7.91481 7.68944 7.914C7.73871 8.01733 7.78836 8.12066 7.83764 8.22369C7.81883 8.27842 7.79981 8.33279 7.7813 8.38708C7.56658 8.27539 7.57527 8.14292 7.65235 7.91636ZM7.60894 14.7742C7.68081 14.8255 7.75321 14.8769 7.82589 14.9284C7.75112 14.8958 7.6771 14.8633 7.60255 14.8315C7.60419 14.812 7.60634 14.7929 7.60894 14.7742ZM7.60523 15.0108C7.68275 15.044 7.76019 15.0773 7.83764 15.1109C7.83623 15.1202 7.83496 15.1298 7.83385 15.1395C7.6681 15.2543 7.50147 15.3692 7.3355 15.4838C7.19206 15.4205 7.17444 15.2932 7.13245 15.1535C7.13364 15.1438 7.13505 15.1343 7.13617 15.1247C7.29254 15.0866 7.44907 15.0487 7.60523 15.0108ZM6.90918 14.5376C6.98373 14.5674 7.0579 14.597 7.13245 14.6268C7.09254 14.65 7.05314 14.6732 7.01301 14.6961C6.97436 14.7006 6.93601 14.7046 6.89743 14.7089C6.901 14.6521 6.90502 14.5948 6.90918 14.5376ZM6.89743 9.80648C7.17972 9.88606 7.09038 9.8331 7.10287 10.043C6.97287 9.96802 6.96395 9.93192 6.89743 9.80648ZM6.89743 14.0321C6.90375 13.964 6.91052 13.8963 6.91706 13.828C7.02646 13.9035 7.06392 13.9485 7.13245 14.0645C7.05374 14.0535 6.97562 14.0427 6.89743 14.0321ZM7.36754 11.0779C7.27939 11.1908 7.28303 11.1595 7.13245 11.2258C7.16679 11.1471 7.20112 11.0681 7.23568 10.9893C7.27976 11.0188 7.32383 11.0483 7.36754 11.0779ZM7.36754 10.1267C7.31833 10.1776 7.26928 10.2285 7.22008 10.2796C7.0721 10.1963 7.14218 10.2295 7.20848 10.0765C7.23777 10.0655 7.26712 10.0542 7.29671 10.043C7.32064 10.071 7.34427 10.0988 7.36754 10.1267ZM7.34873 9.72415C7.27679 9.67282 7.20439 9.62149 7.13245 9.56986C7.29916 9.63303 7.26058 9.59449 7.34873 9.72415ZM6.89743 14.0645C6.97585 14.1267 7.05396 14.1887 7.13245 14.2505C7.01212 14.2474 6.94827 14.2218 6.89743 14.0645ZM7.60255 14.0556C7.57089 14.0585 7.53878 14.0616 7.5069 14.0645C7.47954 14.0142 7.45204 13.964 7.42469 13.9137C7.40559 13.8892 7.38634 13.8645 7.36754 13.8399C7.4099 13.8357 7.45227 13.8317 7.49478 13.828C7.53068 13.9039 7.56643 13.9798 7.60255 14.0556ZM7.47285 9.67541C7.43777 9.63991 7.40232 9.60492 7.36754 9.56986C7.47092 9.64161 7.40232 9.57156 7.47285 9.67541ZM7.48757 13.571C7.44773 13.4885 7.40745 13.4061 7.36754 13.3235C7.38441 13.2556 7.40143 13.1882 7.41845 13.1203C7.42819 13.1197 7.43807 13.119 7.4481 13.1183C7.49939 13.2759 7.55119 13.4336 7.60255 13.5914C7.56464 13.5846 7.52637 13.5778 7.48757 13.571ZM6.87164 16.3234C6.88034 16.3341 6.88881 16.3445 6.89743 16.3552C6.86934 16.459 6.84132 16.5631 6.81323 16.6667C6.6402 16.5981 6.46323 16.4205 6.42733 16.1935C6.57576 16.2368 6.72366 16.2799 6.87164 16.3234ZM6.19232 16.6667C6.27088 16.7355 6.34877 16.8046 6.42733 16.8737C6.27698 16.8081 6.26783 16.811 6.19232 16.6667ZM6.59798 14.5698C6.6072 14.638 6.61731 14.7063 6.62645 14.7742C6.55993 14.6953 6.49385 14.6165 6.42733 14.5376C6.48397 14.5483 6.54068 14.5591 6.59798 14.5698ZM6.36572 15.6759C6.30775 15.5331 6.24977 15.3901 6.19232 15.2473C6.39745 15.3259 6.55837 15.5597 6.66242 15.7205C6.56372 15.7054 6.46472 15.6908 6.36572 15.6759ZM6.55034 11.4642C6.56959 11.4634 6.58958 11.4629 6.60883 11.4623C6.55153 11.5412 6.4946 11.62 6.43707 11.699C6.4086 11.6406 6.44294 11.5845 6.5386 11.516C6.54209 11.4986 6.54633 11.4814 6.55034 11.4642ZM6.42733 13.4975C6.4118 13.5288 6.39597 13.56 6.38021 13.5914C6.33517 13.5566 6.29043 13.5221 6.24516 13.4874C6.22755 13.4499 6.20979 13.4122 6.19232 13.3749C6.25386 13.3682 6.31503 13.3616 6.37657 13.3548C6.39366 13.4024 6.41054 13.4499 6.42733 13.4975ZM4.78209 15.4838C5.25331 15.7883 6.05326 16.0704 6.19232 16.6667C5.64618 16.4089 5.11387 15.9449 4.78209 15.4838ZM6.00346 15.2554C6.06641 15.3316 6.12952 15.4077 6.19232 15.4838C6.03572 15.405 5.87882 15.3262 5.72222 15.2473C5.81609 15.25 5.91004 15.2527 6.00346 15.2554ZM7.72467 15.957C7.60575 15.8383 7.4866 15.7193 7.36754 15.6005C7.57557 15.4038 7.78412 15.2075 7.99216 15.0108C8.01906 15.227 8.0459 15.4433 8.07265 15.6596C7.95671 15.7586 7.84076 15.858 7.72467 15.957ZM8.07265 16.3523C8.09376 16.3009 8.1142 16.2495 8.13508 16.1981C8.16258 16.1964 8.18994 16.1949 8.21796 16.1935C8.24806 16.2724 8.27771 16.3512 8.30767 16.4301C8.22948 16.4041 8.15092 16.3783 8.07265 16.3523ZM8.3895 15.4838C8.36222 15.405 8.33517 15.3264 8.30767 15.2473C8.36504 15.2579 8.4222 15.2681 8.47809 15.2787C8.44896 15.347 8.41908 15.4156 8.3895 15.4838ZM8.07265 7.51821C8.0734 7.51133 8.07399 7.50445 8.07503 7.49742C8.1527 7.47856 8.23 7.45977 8.30767 7.44084C8.25348 7.51969 8.19923 7.59853 8.14519 7.67745C8.12104 7.62435 8.09681 7.57124 8.07265 7.51821ZM5.70297 12.4086C5.6308 12.2507 5.55885 12.0931 5.4872 11.9355C5.76339 11.9956 5.71917 12.1908 5.70297 12.4086ZM5.12703 12.6452C4.92635 12.5064 4.79777 12.2314 4.78209 11.9355C5.19437 12.0325 5.17207 12.1936 5.25212 12.5672C5.21042 12.5931 5.1688 12.6192 5.12703 12.6452ZM4.88414 11.4108C4.58446 11.1296 5.02126 10.0031 5.21332 9.74427C5.31433 9.6169 5.44231 9.6192 5.61103 9.56986C5.64827 9.57933 5.68483 9.58909 5.72222 9.59856C5.43986 10.0952 5.24885 10.7708 5.18143 11.4623C5.08229 11.445 4.98343 11.4279 4.88414 11.4108ZM4.44555 15.2473C4.49341 15.3272 4.54135 15.4071 4.58929 15.4872C4.54678 15.5864 4.50367 15.6855 4.46071 15.7848C4.43581 15.8108 4.41143 15.8366 4.38683 15.8625C4.4917 15.8773 4.51519 15.7873 4.6732 15.66C4.97734 16.1511 5.44343 16.6197 5.95731 16.8867C5.86381 17.0498 5.76986 17.213 5.67651 17.3763C5.39326 17.1953 5.1109 17.0144 4.82772 16.8333C4.73043 16.6546 4.86466 16.4496 4.70836 16.3401C4.56729 16.241 4.38468 16.3844 4.24093 16.3413C4.10797 16.2202 3.97478 16.099 3.84189 15.978C3.9588 15.7182 4.07177 15.4632 4.30403 15.3304C4.35138 15.3026 4.39828 15.2748 4.44555 15.2473ZM3.63272 12.6389C3.66247 12.4062 3.71323 12.1658 3.77068 11.9382C3.78146 11.9374 3.79201 11.9365 3.80279 11.9355C3.84352 12.17 3.88433 12.4045 3.92535 12.6389C3.94676 12.7615 3.96779 12.884 3.9892 13.0064C4.17501 13.5167 4.36097 14.0273 4.547 14.5376C4.10091 14.2951 3.82427 13.7351 3.86396 12.9817C3.75671 13.2249 3.84597 13.6073 3.8812 13.8212C3.60643 13.5905 3.57117 13.1317 3.63272 12.6389ZM3.22528 12.8817C3.18456 12.7985 3.15804 12.7061 3.14559 12.5967C3.13233 12.4844 3.1342 12.3544 3.14987 12.1989C3.16313 12.1704 3.17665 12.1423 3.19019 12.1141C3.25086 12.0547 3.3114 11.9952 3.3718 11.9355C3.33765 12.1558 3.30349 12.3764 3.2692 12.5967C3.25474 12.6919 3.23987 12.7866 3.22528 12.8817ZM19.5897 15.2473C19.4333 15.1875 19.2766 15.1274 19.1197 15.0674C19.2719 15.0486 19.4238 15.0295 19.576 15.0108C19.5803 15.0895 19.5851 15.1685 19.5897 15.2473ZM7.15103 19.0976C7.19198 19.0755 7.23353 19.0538 7.27448 19.0323C7.22766 19.1106 7.1795 19.19 7.13245 19.2684C7.13862 19.2116 7.14494 19.1543 7.15103 19.0976ZM3.60684 10.9893C3.54028 10.9827 3.47345 10.9763 3.40634 10.9698C3.15763 10.8892 2.9229 10.6006 2.90171 10.2796C3.28341 10.3137 3.41246 10.493 3.60113 10.7121C3.60304 10.8043 3.60521 10.8967 3.60684 10.9893ZM3.5791 10.9695C3.60644 10.4591 3.21378 10.1405 2.70407 10.1542C2.7915 9.43657 3.41941 9.07008 3.97939 8.8291C4.01543 8.82643 4.05089 8.82377 4.08693 8.82118C3.99306 9.72142 4.06434 10.4968 3.72535 11.2756C3.47507 11.8495 2.58788 11.8388 2.63639 12.7232C2.63753 12.7472 2.63939 12.7722 2.64225 12.7976C2.76875 13.9747 4.05817 14.214 4.23662 15.2491C2.32544 16.2137 4.65507 20.2698 6.1669 17.8873C6.43729 17.926 6.67885 18.0481 7.01561 17.9304C7.17199 17.8445 7.20306 17.7748 7.26385 17.5957C7.44372 17.6881 7.62403 17.7804 7.8039 17.8728C7.81333 17.8953 7.82277 17.9182 7.83251 17.941C7.33714 18.3221 6.98811 18.8452 6.45662 19.2033C6.47327 19.1549 6.49029 19.1062 6.50731 19.0584C6.46063 19.0503 6.41425 19.0418 6.36765 19.0336C6.34275 19.0473 6.31726 19.0609 6.29221 19.0744C6.26902 19.1814 6.24643 19.289 6.22294 19.3959C6.52633 19.7033 7.44684 18.5902 7.71649 18.3715C7.56375 18.9009 7.18745 19.1729 6.97837 19.6572C6.99956 19.6792 7.02133 19.7013 7.04274 19.7231C7.43971 19.4406 7.92653 18.6418 8.00048 18.0339C8.19841 18.0664 8.39663 18.0987 8.59493 18.1314C7.84968 19.132 5.93545 21.3318 4.9294 21.9188C5.08176 21.4413 5.32644 21.0768 5.44922 20.6846C5.42507 20.6863 5.40114 20.6878 5.37772 20.6896C5.35624 20.6676 5.33462 20.6457 5.31299 20.6239C5.06846 21.1027 4.66451 21.4384 4.59249 22.0841C4.64362 22.1629 4.6981 22.2054 4.7531 22.2482C5.94995 22.05 7.94771 19.0643 8.90271 18.2492C8.64443 20.8243 7.25412 21.2264 6.04835 22.7867C7.14397 22.2441 7.80873 20.8598 8.74663 20.0906C8.64287 21.1673 8.38504 23.573 7.73567 24C7.77142 23.997 7.80717 23.9948 7.84321 23.9922C8.57063 23.543 8.61336 21.6958 8.85581 20.7512C8.89015 20.4199 8.92478 20.0892 8.95912 19.7587C9.30554 19.2753 9.65212 18.7922 9.99855 18.3098C10.0239 18.2962 10.0488 18.2825 10.074 18.2692C10.1902 18.6314 10.7165 19.0243 11.2867 18.9189C11.4233 18.862 11.5595 18.8052 11.6953 18.7485C12.0382 18.8756 12.3803 19.0027 12.7223 19.13C12.8571 20.5963 12.8053 21.4184 11.8703 22.5353C12.8256 22.0504 13.1767 20.1821 12.8586 19.1906C15.0804 19.446 14.9915 18.7016 14.5696 17.0949C14.7 17.0967 14.8302 17.099 14.9606 17.1013C14.8889 16.9938 14.6938 17.0737 14.545 16.9912C14.4775 16.948 14.4908 16.956 14.4486 16.8925C14.9772 16.3008 16.2489 16.8886 15.9826 17.8706C16.3476 17.0559 15.5397 16.3323 14.7611 16.6233C15.0937 16.2321 15.4963 15.9107 15.7069 15.3928C15.7323 15.3791 15.757 15.3654 15.7825 15.352C16.3917 15.9875 17.0018 16.6233 17.6111 17.2586C17.6467 17.2561 17.6829 17.2532 17.7188 17.2507C17.7466 17.2135 17.7739 17.1763 17.8012 17.139C17.2208 16.4548 16.6394 15.7696 16.0589 15.0855C16.1209 15.0572 16.1831 15.0292 16.2459 15.0012C16.3465 14.9063 16.4571 14.8749 16.568 14.8898C16.5355 14.8737 16.5045 14.8582 16.4752 14.8437C17.4097 14.9369 18.6018 15.7095 19.5764 15.4605C19.6664 15.3056 19.6702 15.2213 19.6163 15.0706C20.6541 15.0966 22.5212 14.7518 23.1154 14.2509C21.5191 14.5841 19.7197 14.6971 18.2531 14.5021C17.8197 14.4519 17.3868 14.4015 16.9537 14.3512C16.9296 14.353 16.9056 14.3546 16.8813 14.3565C16.9977 14.1488 17.1142 13.9406 17.2307 13.7326C18.3024 13.713 21.1108 13.6861 21.6788 13.0192C21.6371 12.9638 21.5953 12.9079 21.5538 12.8525C21.3904 12.8293 21.2267 12.8062 21.0635 12.7828C21.0213 12.8447 21.0154 12.9039 21.0087 12.9631C21.1382 12.9769 21.2669 12.9908 21.3958 13.0048C20.5539 13.2154 18.2092 13.6596 17.4433 13.4002C17.3628 13.3035 17.4223 12.9665 17.4259 12.7235C17.427 12.6754 17.4256 12.6309 17.4207 12.5928C18.521 12.2662 19.3381 11.5317 19.6731 10.4219C19.8647 9.78739 19.7376 8.95291 20.1516 8.5572C20.416 8.58013 20.4693 8.69071 20.6634 8.766C20.5606 8.62429 20.4141 8.54573 20.2307 8.48102C20.1154 8.55986 20.0007 8.63864 19.8861 8.71733C19.571 8.83834 19.2412 8.52177 18.7071 8.76867C18.2734 8.40032 18.0283 7.81769 17.4425 7.59491C17.4223 7.56111 17.4018 7.52745 17.3819 7.49372C17.6193 7.26495 17.856 7.03654 18.0934 6.80806C17.8601 7.00126 17.623 7.22982 17.3856 7.45815C17.2274 7.38773 17.0683 7.31717 16.9093 7.24698C16.9005 7.2239 16.8909 7.20141 16.8813 7.17863C17.4237 6.79704 17.9055 6.6554 18.5234 6.7767C18.5526 6.83306 18.5829 6.8895 18.6126 6.94601C18.5837 6.99527 18.5582 7.00851 18.5334 7.02219C18.4643 7.00378 18.3945 6.98558 18.3256 6.96687C18.4151 7.01924 18.5084 7.0358 18.6014 7.05245C18.6275 7.02685 18.6539 7.00156 18.6799 6.97626C18.6839 6.94068 18.6877 6.9054 18.6917 6.86983C18.5568 6.75045 18.5155 6.66457 18.251 6.65584C18.2931 6.59393 18.3353 6.53232 18.3774 6.47071C18.0741 6.67737 17.4597 6.73247 17.1578 6.91199C17.39 6.7307 17.6222 6.54941 17.8545 6.36827C17.8819 6.33121 17.9096 6.29386 17.9373 6.2568C17.5078 6.51087 17.0785 6.76539 16.649 7.01983C16.3739 7.00067 16.0815 6.87323 15.9332 6.72027C15.9095 6.72204 15.8859 6.72382 15.8614 6.72559C16.3717 6.38321 16.8813 6.04089 17.3908 5.69873C17.3825 5.66404 17.3745 5.62943 17.3663 5.59474C16.7858 5.93061 16.2057 6.26634 15.6259 6.60237C15.4406 6.55703 15.2557 6.51205 15.0708 6.46679C15.0877 6.30148 15.1052 6.13601 15.1222 5.97063C16.4508 4.93482 17.7798 3.89899 19.1081 2.86332C19.1317 2.86141 19.1558 2.85979 19.1798 2.85818C19.1605 2.81259 19.1416 2.767 19.1228 2.72141C18.9749 2.65127 18.3684 3.13992 18.1394 3.28624C17.257 3.8484 16.4766 4.54777 15.6084 5.05538C15.9667 4.60349 16.6231 4.15353 16.7311 3.49504C16.6727 3.48769 16.6138 3.48019 16.5554 3.47284C16.4648 3.54975 16.3739 3.62694 16.2825 3.704C16.382 3.6615 16.4811 3.61916 16.5802 3.57651C16.3878 4.15559 15.5174 5.19185 15.0271 5.52018C15.0079 5.47447 14.9891 5.42935 14.9702 5.38356C15.2894 4.84953 15.6041 4.13265 15.4561 3.44784C15.3667 3.39579 15.2771 3.34373 15.1877 3.29153C15.0922 3.29873 14.9968 3.30579 14.9011 3.3127C15.0848 3.3849 15.2094 3.4027 15.3444 3.49122C15.431 4.15515 15.1014 4.60394 14.9244 5.14066C14.8988 5.1542 14.874 5.16773 14.8488 5.18156C14.7303 4.96477 14.7379 4.85981 14.4952 4.82024C14.488 4.77394 14.481 4.72746 14.4742 4.681C14.5291 4.60644 14.5845 4.53233 14.6398 4.45792C14.678 4.43145 14.7161 4.40513 14.7546 4.37896C14.7933 4.45116 14.7951 4.42572 14.8076 4.551C14.8495 4.48939 14.8556 4.43028 14.8614 4.37101C14.8168 4.35101 14.7711 4.33087 14.7261 4.31087C14.6061 4.43675 14.4865 4.56291 14.3669 4.68893C14.0662 4.48939 13.7364 4.28029 13.3148 4.20323C13.5533 3.71018 14.2802 2.91875 13.9045 2.29497C13.447 1.53635 11.884 2.411 11.3118 3.01272C11.2351 3.09389 11.1755 3.17007 11.1396 3.23683C11.1761 3.20741 11.2352 3.16124 11.3118 3.10478C11.8764 2.68627 13.381 1.68575 13.7068 2.48555C14.0486 2.93214 13.3938 3.79105 13.2149 4.14015C12.6056 4.07883 11.9681 4.02089 11.3126 4.03383C10.6508 4.04722 9.96978 4.13235 9.28065 4.35837C8.94752 4.46763 7.53001 5.31063 7.4759 5.30006C7.26058 5.09332 7.04475 4.886 6.82913 4.67893C6.37865 4.4541 5.92758 4.22911 5.47702 4.00427C5.47427 4.0278 5.47212 4.05133 5.46981 4.07515C5.44335 4.10059 5.41674 4.12589 5.39073 4.15132C5.96808 4.63659 6.54625 5.12217 7.12331 5.60753C7.03516 5.66108 6.94686 5.71434 6.85849 5.76781C6.14587 5.23142 5.65458 4.90567 4.59368 4.63202C4.53414 4.63644 4.47431 4.6407 4.41478 4.64512C5.03442 5.06877 5.658 5.45694 6.28136 5.84518C6.32298 5.90073 6.36445 5.95635 6.4063 6.01205C5.96125 6.19866 5.77306 6.58484 5.3969 6.825C4.80944 6.54615 4.26598 6.29445 3.55421 6.08032C3.53761 6.12854 3.52044 6.17677 3.50384 6.22499C3.94847 6.50895 4.39293 6.79305 4.83754 7.07715C4.86139 7.07538 4.88533 7.0736 4.90903 7.07205C4.83248 7.12434 4.75593 7.177 4.67967 7.22952C4.57309 7.58463 4.36483 7.99595 4.19188 8.49677C3.52731 9.03391 2.66572 9.00173 2.53207 10.0963C2.32014 10.1542 2.16946 10.1724 1.97628 10.313C1.97127 10.3603 1.96655 10.4077 1.96154 10.4549C2.08275 10.6242 3.16255 11.0775 3.42085 11.1219C3.47393 11.071 3.52659 11.0201 3.5791 10.9695ZM11.4648 3.40145C11.498 3.40748 11.5301 3.41332 11.5631 3.41936C11.5191 3.41409 11.475 3.40853 11.4309 3.40317C11.4083 3.40432 11.3858 3.40537 11.3633 3.40652C11.4671 3.21354 11.7735 3.16604 12.0684 3.18758C12.0616 3.23374 12.055 3.28 12.0477 3.32607C11.8559 3.33584 11.6636 3.34551 11.4717 3.35509C11.4697 3.37061 11.4671 3.38594 11.4648 3.40145ZM11.8766 3.65592C11.969 3.62563 12.0616 3.59548 12.1538 3.56533C12.2735 3.36764 12.3418 3.15822 12.2806 2.96603C11.9959 2.91009 11.8312 2.97937 11.564 3.09053C11.5157 3.16908 11.4672 3.24807 11.4194 3.32677C11.4008 3.35707 11.3817 3.38735 11.3633 3.41779C11.3817 3.43837 11.3997 3.45634 11.4194 3.47258C11.5095 3.54678 11.6187 3.57243 11.8193 3.55606C11.8738 3.6491 11.8108 3.60779 11.7113 3.63403C11.7663 3.64113 11.8214 3.64867 11.8766 3.65592ZM18.7124 5.78497C18.613 5.80354 18.5137 5.82211 18.4145 5.84037C18.4758 5.83631 18.5372 5.83209 18.5979 5.82758C18.668 5.85731 18.7378 5.88734 18.8072 5.91693C18.7014 6.10968 18.5956 6.30214 18.4897 6.4946C18.6528 6.30332 18.8156 6.1673 18.8846 5.87677C18.8269 5.846 18.7697 5.81552 18.7124 5.78497ZM17.0043 15.0108C16.9299 14.8806 16.8492 14.7943 16.7693 14.7742C16.8408 14.841 16.923 14.9192 17.0043 15.0108ZM16.0641 17.8495C15.9859 17.8949 15.9073 17.9401 15.8291 17.9848C15.8892 17.9791 15.9494 17.9734 16.0098 17.968C16.0282 17.9283 16.0464 17.889 16.0641 17.8495ZM17.0043 15.0108C17.243 15.279 17.4226 15.792 17.3707 16.1935C17.6417 15.6114 17.3324 15.2483 17.0043 15.0108Z" fill="black"/>
</svg>
