<svg width="24" height="24" viewBox="0 0 24 24" fill="none" xmlns="http://www.w3.org/2000/svg">
<path d="M5.38468 16.5L6.08208 16.7759L6.22836 16.4062L6.00443 16.0776L5.38468 16.5ZM4 20L3.30259 19.7241L2.89672 20.75H4V20ZM8.28523 9.5C8.28523 9.08579 7.94945 8.75 7.53523 8.75C7.12102 8.75 6.78523 9.08579 6.78523 9.5H8.28523ZM6.78523 14.5C6.78523 14.9142 7.12102 15.25 7.53523 15.25C7.94945 15.25 8.28523 14.9142 8.28523 14.5H6.78523ZM11.2852 9.5C11.2852 9.08579 10.9494 8.75 10.5352 8.75C10.121 8.75 9.78523 9.08579 9.78523 9.5H11.2852ZM9.78523 14.5C9.78523 14.9142 10.121 15.25 10.5352 15.25C10.9494 15.25 11.2852 14.9142 11.2852 14.5H9.78523ZM10.5352 12.75C10.9494 12.75 11.2852 12.4142 11.2852 12C11.2852 11.5858 10.9494 11.25 10.5352 11.25V12.75ZM7.53523 11.25C7.12102 11.25 6.78523 11.5858 6.78523 12C6.78523 12.4142 7.12102 12.75 7.53523 12.75V11.25ZM13.5352 9.5L13.4214 8.75869L12.7852 8.85638V9.5H13.5352ZM12.7852 14.5C12.7852 14.9142 13.121 15.25 13.5352 15.25C13.9494 15.25 14.2852 14.9142 14.2852 14.5H12.7852ZM15.0656 11.9697C14.7727 11.6768 14.2978 11.6768 14.0049 11.9697C13.712 12.2626 13.712 12.7374 14.0049 13.0303L15.0656 11.9697ZM16.0049 15.0303C16.2978 15.3232 16.7727 15.3232 17.0656 15.0303C17.3585 14.7374 17.3585 14.2626 17.0656 13.9697L16.0049 15.0303ZM12 20V20.75C16.8325 20.75 20.75 16.8325 20.75 12H20H19.25C19.25 16.0041 16.0041 19.25 12 19.25V20ZM20 12H20.75C20.75 7.16751 16.8325 3.25 12 3.25V4V4.75C16.0041 4.75 19.25 7.99594 19.25 12H20ZM12 4V3.25C7.16751 3.25 3.25 7.16751 3.25 12H4H4.75C4.75 7.99594 7.99593 4.75 12 4.75V4ZM4 12H3.25C3.25 13.824 3.80893 15.5197 4.76493 16.9224L5.38468 16.5L6.00443 16.0776C5.21277 14.9161 4.75 13.5132 4.75 12H4ZM12 20V19.25H4V20V20.75H12V20ZM4 20L4.69741 20.2759L6.08208 16.7759L5.38468 16.5L4.68727 16.2241L3.30259 19.7241L4 20ZM7.53523 9.5H6.78523V14.5H7.53523H8.28523V9.5H7.53523ZM10.5352 9.5H9.78523V14.5H10.5352H11.2852V9.5H10.5352ZM10.5352 12V11.25H7.53523V12V12.75H10.5352V12ZM13.5352 9.5H12.7852V14.5H13.5352H14.2852V9.5H13.5352ZM14.5352 12.5L14.0049 13.0303L16.0049 15.0303L16.5352 14.5L17.0656 13.9697L15.0656 11.9697L14.5352 12.5ZM13.5352 9.5C13.6491 10.2413 13.6488 10.2413 13.6486 10.2414C13.6485 10.2414 13.6483 10.2414 13.6481 10.2415C13.6478 10.2415 13.6476 10.2415 13.6474 10.2416C13.647 10.2416 13.6467 10.2417 13.6465 10.2417C13.6463 10.2417 13.6466 10.2417 13.6474 10.2416C13.6491 10.2413 13.653 10.2408 13.6589 10.24C13.6707 10.2385 13.6905 10.2361 13.7171 10.2335C13.7706 10.2281 13.8502 10.2219 13.9468 10.2192C14.1451 10.2136 14.3907 10.2239 14.6218 10.2755C14.8579 10.3282 15.022 10.4111 15.1205 10.5074C15.1984 10.5834 15.2852 10.7135 15.2852 11H16.0352H16.7852C16.7852 10.3445 16.5596 9.81615 16.1687 9.43432C15.7984 9.07269 15.3376 8.89837 14.9486 8.81154C14.5547 8.72363 14.1754 8.71218 13.9049 8.71974C13.7671 8.7236 13.6514 8.73259 13.5682 8.74089C13.5265 8.74505 13.4926 8.74907 13.4678 8.75226C13.4553 8.75386 13.4452 8.75525 13.4374 8.75634C13.4335 8.75689 13.4302 8.75737 13.4275 8.75777C13.4262 8.75796 13.425 8.75814 13.424 8.75829C13.4235 8.75837 13.423 8.75844 13.4226 8.75851C13.4224 8.75854 13.4221 8.75859 13.422 8.7586C13.4217 8.75865 13.4214 8.75869 13.5352 9.5ZM16.0352 11H15.2852C15.2852 11.2865 15.1984 11.4166 15.1205 11.4926C15.022 11.5888 14.8579 11.6718 14.6218 11.7245C14.3907 11.7761 14.1451 11.7864 13.9468 11.7808C13.8502 11.7781 13.7706 11.7718 13.7171 11.7665C13.6905 11.7638 13.6707 11.7615 13.6589 11.7599C13.653 11.7592 13.6491 11.7587 13.6474 11.7584C13.6466 11.7583 13.6463 11.7583 13.6465 11.7583C13.6467 11.7583 13.647 11.7584 13.6474 11.7584C13.6476 11.7584 13.6478 11.7585 13.6481 11.7585C13.6483 11.7585 13.6485 11.7586 13.6486 11.7586C13.6488 11.7586 13.6491 11.7587 13.5352 12.5C13.4214 13.2413 13.4217 13.2413 13.422 13.2414C13.4221 13.2414 13.4224 13.2414 13.4226 13.2415C13.423 13.2415 13.4235 13.2416 13.424 13.2417C13.425 13.2418 13.4262 13.242 13.4275 13.2422C13.4302 13.2426 13.4335 13.2431 13.4374 13.2436C13.4452 13.2447 13.4553 13.2461 13.4678 13.2477C13.4926 13.2509 13.5265 13.2549 13.5682 13.2591C13.6514 13.2674 13.7671 13.2764 13.9049 13.2802C14.1754 13.2878 14.5548 13.2764 14.9486 13.1884C15.3376 13.1016 15.7984 12.9273 16.1687 12.5657C16.5596 12.1838 16.7852 11.6554 16.7852 11H16.0352Z" fill="black"/>
</svg>
