<svg width="24" height="24" viewBox="0 0 24 24" fill="none" xmlns="http://www.w3.org/2000/svg">
<path d="M10.8 17.2803H18M5.99998 17.2803H7.79998M8.34481 14.2977L5.91211 10.0841L9.05942 4.68846L15.3059 4.66064L18.405 10.0285L15.9402 14.2977M19.2 14.2803L20.4 15.6137L20.4 18.947L19.2 20.2803H4.79998L3.59998 18.947V15.6137L4.79998 14.2803H19.2ZM14.0664 10.0563C14.0664 11.11 13.2122 11.9642 12.1586 11.9642C11.1049 11.9642 10.2507 11.11 10.2507 10.0563C10.2507 9.00265 11.1049 8.14848 12.1586 8.14848C13.2122 8.14848 14.0664 9.00265 14.0664 10.0563Z" stroke="black" stroke-width="1.5"/>
</svg>
