<svg width="24" height="24" viewBox="0 0 24 24" fill="none" xmlns="http://www.w3.org/2000/svg">
<path d="M12 9C13.3807 9 14.5 7.88071 14.5 6.5C14.5 5.11929 13.3807 4 12 4C10.6193 4 9.5 5.11929 9.5 6.5C9.5 7.88071 10.6193 9 12 9ZM12 9C12 11.0586 12 11.9414 12 14M17.8556 14H6.40954C4.94072 14 3.75 15.1193 3.75 16.5C3.75 17.8807 4.94072 19 6.40954 19H17.8556M20.1416 16.5C20.1416 17.8807 19.0223 19 17.6416 19C16.2609 19 15.1416 17.8807 15.1416 16.5C15.1416 15.1193 16.2609 14 17.6416 14C19.0223 14 20.1416 15.1193 20.1416 16.5Z" stroke="black" stroke-width="1.5"/>
</svg>
