<svg width="24" height="24" viewBox="0 0 24 24" fill="none" xmlns="http://www.w3.org/2000/svg">
<path d="M10.0002 16.0001C10.0002 17.657 8.6571 19.0001 7.00024 19.0001C5.34339 19.0001 4.00024 17.657 4.00024 16.0001C4.00024 14.3433 5.34339 13.0001 7.00024 13.0001C8.6571 13.0001 10.0002 14.3433 10.0002 16.0001ZM10.0002 16.0001H14.0002M14.0002 16.0001C14.0002 17.657 15.3434 19.0001 17.0002 19.0001C18.6571 19.0001 20.0002 17.657 20.0002 16.0001C20.0002 14.3433 18.6571 13.0001 17.0002 13.0001C15.3434 13.0001 14.0002 14.3433 14.0002 16.0001ZM4.00024 10.5001H20.0002M18.0002 10.5001V7.00012L16.0002 5.00012L8.00024 5.00012L6.00024 7.00012L6.00024 10.5001" stroke="black" stroke-width="1.5"/>
</svg>
