<svg width="24" height="24" viewBox="0 0 24 24" fill="none" xmlns="http://www.w3.org/2000/svg">
<path d="M13 4C13 4.55228 12.5523 5 12 5C11.4477 5 11 4.55228 11 4C11 3.44772 11.4477 3 12 3C12.5523 3 13 3.44772 13 4Z" fill="black"/>
<path d="M13 12C13 12.5523 12.5523 13 12 13C11.4477 13 11 12.5523 11 12C11 11.4477 11.4477 11 12 11C12.5523 11 13 11.4477 13 12Z" fill="black"/>
<path d="M5 8C5 8.55229 4.55228 9 4 9C3.44772 9 3 8.55229 3 8C3 7.44772 3.44772 7 4 7C4.55228 7 5 7.44772 5 8Z" fill="black"/>
<path d="M21 8C21 8.55229 20.5523 9 20 9C19.4477 9 19 8.55229 19 8C19 7.44772 19.4477 7 20 7C20.5523 7 21 7.44772 21 8Z" fill="black"/>
<path d="M21 16C21 16.5523 20.5523 17 20 17C19.4477 17 19 16.5523 19 16C19 15.4477 19.4477 15 20 15C20.5523 15 21 15.4477 21 16Z" fill="black"/>
<path d="M5 16C5 16.5523 4.55228 17 4 17C3.44772 17 3 16.5523 3 16C3 15.4477 3.44772 15 4 15C4.55228 15 5 15.4477 5 16Z" fill="black"/>
<path d="M13 20C13 20.5523 12.5523 21 12 21C11.4477 21 11 20.5523 11 20C11 19.4477 11.4477 19 12 19C12.5523 19 13 19.4477 13 20Z" fill="black"/>
<path d="M12 12L20 8L12 4L4 8L12 12ZM12 12L4 16L12 20L20 16L12 12ZM13 4C13 4.55228 12.5523 5 12 5C11.4477 5 11 4.55228 11 4C11 3.44772 11.4477 3 12 3C12.5523 3 13 3.44772 13 4ZM13 12C13 12.5523 12.5523 13 12 13C11.4477 13 11 12.5523 11 12C11 11.4477 11.4477 11 12 11C12.5523 11 13 11.4477 13 12ZM5 8C5 8.55229 4.55228 9 4 9C3.44772 9 3 8.55229 3 8C3 7.44772 3.44772 7 4 7C4.55228 7 5 7.44772 5 8ZM21 8C21 8.55229 20.5523 9 20 9C19.4477 9 19 8.55229 19 8C19 7.44772 19.4477 7 20 7C20.5523 7 21 7.44772 21 8ZM21 16C21 16.5523 20.5523 17 20 17C19.4477 17 19 16.5523 19 16C19 15.4477 19.4477 15 20 15C20.5523 15 21 15.4477 21 16ZM5 16C5 16.5523 4.55228 17 4 17C3.44772 17 3 16.5523 3 16C3 15.4477 3.44772 15 4 15C4.55228 15 5 15.4477 5 16ZM13 20C13 20.5523 12.5523 21 12 21C11.4477 21 11 20.5523 11 20C11 19.4477 11.4477 19 12 19C12.5523 19 13 19.4477 13 20Z" stroke="black" stroke-width="1.5"/>
</svg>
