<svg width="24" height="24" viewBox="0 0 24 24" fill="none" xmlns="http://www.w3.org/2000/svg">
<path d="M8.85702 9.42858L6.06408 6.63662M9.14298 14.8571L6.34213 17.6558M15.1427 9.42858L17.9382 6.63919M14.8571 14.8571L17.6627 17.651M16 12C16 14.2091 14.2091 16 12 16C9.79086 16 8 14.2091 8 12C8 9.79086 9.79086 8 12 8C14.2091 8 16 9.79086 16 12ZM20 12C20 16.4183 16.4183 20 12 20C7.58172 20 4 16.4183 4 12C4 7.58172 7.58172 4 12 4C16.4183 4 20 7.58172 20 12Z" stroke="black" stroke-width="1.5"/>
</svg>
