<svg width="24" height="24" viewBox="0 0 24 24" fill="none" xmlns="http://www.w3.org/2000/svg">
<path d="M6.00018 19.9999H4.00018L4.00018 11.9999H6.00018L6.00018 19.9999Z" fill="black"/>
<path d="M17.1767 19.9999H9.00018L9.00018 10.9999L11.5296 3.99988C13.2237 3.99988 13.6472 5.33321 13.6472 5.99988V9.33321L18.5884 9.33321C19.7178 9.33321 20.0002 10.2221 20.0002 10.6665L19.2943 17.9999C19.2943 19.5999 17.8825 19.9999 17.1767 19.9999Z" fill="black"/>
<path d="M6.00018 19.9999H4.00018L4.00018 11.9999H6.00018L6.00018 19.9999Z" stroke="black" stroke-width="1.5"/>
<path d="M17.1767 19.9999H9.00018L9.00018 10.9999L11.5296 3.99988C13.2237 3.99988 13.6472 5.33321 13.6472 5.99988V9.33321L18.5884 9.33321C19.7178 9.33321 20.0002 10.2221 20.0002 10.6665L19.2943 17.9999C19.2943 19.5999 17.8825 19.9999 17.1767 19.9999Z" stroke="black" stroke-width="1.5"/>
</svg>
