<svg width="24" height="24" viewBox="0 0 24 24" fill="none" xmlns="http://www.w3.org/2000/svg">
<path d="M12 16.5C15.7761 16.5 18.8372 13.4779 18.8372 9.75C18.8372 6.02208 15.7761 3 12 3C8.22393 3 5.1628 6.02208 5.1628 9.75C5.1628 13.4779 8.22393 16.5 12 16.5ZM12 16.5V18.75M12 18.75C11.3707 18.75 10.8605 19.2537 10.8605 19.875C10.8605 20.4963 11.3707 21 12 21C12.6294 21 13.1396 20.4963 13.1396 19.875C13.1396 19.2537 12.6294 18.75 12 18.75ZM6.13954 18.75C5.51019 18.75 5 19.2537 5 19.875C5 20.4963 5.51019 21 6.13954 21C6.76888 21 7.27907 20.4963 7.27907 19.875C7.27907 19.2537 6.76888 18.75 6.13954 18.75ZM6.13954 18.75V13.2287M17.8605 18.75C17.2311 18.75 16.7209 19.2537 16.7209 19.875C16.7209 20.4963 17.2311 21 17.8605 21C18.4898 21 19 20.4963 19 19.875C19 19.2537 18.4898 18.75 17.8605 18.75ZM17.8605 18.75L17.8605 13.2287M8.58136 13.2287L9.43606 12.2812H14.564L15.4186 13.2287M13.7093 8.0625C13.7093 8.99448 12.944 9.75 12 9.75C11.056 9.75 10.2907 8.99448 10.2907 8.0625C10.2907 7.13052 11.056 6.375 12 6.375C12.944 6.375 13.7093 7.13052 13.7093 8.0625Z" stroke="black" stroke-width="1.5"/>
</svg>
