<svg width="24" height="24" viewBox="0 0 24 24" fill="none" xmlns="http://www.w3.org/2000/svg">
<path d="M12.5 15C12.5 15.2761 12.2761 15.5 12 15.5C11.7239 15.5 11.5 15.2761 11.5 15C11.5 14.7239 11.7239 14.5 12 14.5C12.2761 14.5 12.5 14.7239 12.5 15Z" fill="black"/>
<path d="M16 10V7.0625C16 6.1875 14.9476 4 12 4C10 4 8.26667 4.9625 8 7.0625V10M6 18.3333V11.6667L7.71429 10H16.2857L18 11.6667V18.3333L16.2857 20H7.71429L6 18.3333ZM12.5 15C12.5 15.2761 12.2761 15.5 12 15.5C11.7239 15.5 11.5 15.2761 11.5 15C11.5 14.7239 11.7239 14.5 12 14.5C12.2761 14.5 12.5 14.7239 12.5 15Z" stroke="black" stroke-width="1.5"/>
</svg>
