<svg width="24" height="24" viewBox="0 0 24 24" fill="none" xmlns="http://www.w3.org/2000/svg">
<path d="M4 16.9649H3.25V17.387L3.61082 17.606L4 16.9649ZM4 4L4.38918 3.35887L3.25 2.66737V4H4ZM15 4L15.3892 3.35887L15.0331 3.14275L14.6615 3.33075L15 4ZM20 7.0351H20.75V6.613L20.3892 6.39398L20 7.0351ZM20 20L19.6108 20.6411L20.75 21.3326V20H20ZM9 20L8.61082 20.6411L8.96687 20.8573L9.33854 20.6692L9 20ZM12.0303 12.0303C12.3232 11.7374 12.3232 11.2626 12.0303 10.9697C11.7374 10.6768 11.2626 10.6768 10.9697 10.9697L12.0303 12.0303ZM4 16.9649H4.75V4H4H3.25V16.9649H4ZM4 4L3.61082 4.64113L8.61082 7.67623L9 7.0351L9.38918 6.39398L4.38918 3.35887L4 4ZM9 7.0351L9.33854 7.70435L15.3385 4.66925L15 4L14.6615 3.33075L8.66146 6.36586L9 7.0351ZM15 4L14.6108 4.64113L19.6108 7.67623L20 7.0351L20.3892 6.39398L15.3892 3.35887L15 4ZM20 7.0351H19.25V20H20H20.75V7.0351H20ZM20 20L20.3892 19.3589L15.3892 16.3238L15 16.9649L14.6108 17.606L19.6108 20.6411L20 20ZM9 20L9.38918 19.3589L4.38918 16.3238L4 16.9649L3.61082 17.606L8.61082 20.6411L9 20ZM15 16.9649L14.6615 16.2957L8.66146 19.3308L9 20L9.33854 20.6692L15.3385 17.6341L15 16.9649ZM9 17H8.25V20H9H9.75V17H9ZM15 6H14.25V16.9649H15H15.75V6H15ZM15 4H14.25V6H15H15.75V4H15ZM9 7.0351H8.25V10H9H9.75V7.0351H9ZM7 15.5L7.48809 16.0694L10.9881 13.0694L10.5 12.5L10.0119 11.9306L6.51191 14.9306L7 15.5ZM10.5 12.5L11.0303 13.0303L12.0303 12.0303L11.5 11.5L10.9697 10.9697L9.96967 11.9697L10.5 12.5ZM10.5 12.5L9.75754 12.6061L10.2575 16.1061L11 16L11.7425 15.8939L11.2425 12.3939L10.5 12.5ZM10.5 12.5L10.706 11.7789L7.20604 10.7789L7 11.5L6.79396 12.2211L10.294 13.2211L10.5 12.5Z" fill="black"/>
</svg>
