<svg width="24" height="24" viewBox="0 0 24 24" fill="none" xmlns="http://www.w3.org/2000/svg">
<path d="M8.73333 4.47059C8.73333 4.73049 8.5244 4.94118 8.26667 4.94118C8.00893 4.94118 7.8 4.73049 7.8 4.47059C7.8 4.21069 8.00893 4 8.26667 4C8.5244 4 8.73333 4.21069 8.73333 4.47059Z" fill="black"/>
<path d="M13.4 4.47059C13.4 4.73049 13.1911 4.94118 12.9333 4.94118C12.6756 4.94118 12.4667 4.73049 12.4667 4.47059C12.4667 4.21069 12.6756 4 12.9333 4C13.1911 4 13.4 4.21069 13.4 4.47059Z" fill="black"/>
<path d="M7.8 4.47059C6.2536 4.47059 5 5.65572 5 7.11765C5 7.82282 5.29168 8.46359 5.7672 8.93802L10.6 13.8824M7.8 4.47059C7.8 4.73049 8.00893 4.94118 8.26667 4.94118C8.5244 4.94118 8.73333 4.73049 8.73333 4.47059C8.73333 4.21069 8.5244 4 8.26667 4C8.00893 4 7.8 4.21069 7.8 4.47059ZM13.4 4.47059C14.9464 4.47059 16.2 5.65572 16.2 7.11765C16.2 7.82415 15.9072 8.466 15.4301 8.94069L10.6 13.8824M13.4 4.47059C13.4 4.73049 13.1911 4.94118 12.9333 4.94118C12.6756 4.94118 12.4667 4.73049 12.4667 4.47059C12.4667 4.21069 12.6756 4 12.9333 4C13.1911 4 13.4 4.21069 13.4 4.47059ZM10.6 13.8824V17.1765C10.6 19.0588 11.5333 20 13.4 20H14.3333C16.2 20 17.1333 19.0588 17.1333 17.1765V15.2941M17.1333 15.2941C18.1643 15.2941 19 14.4514 19 13.4118C19 12.3722 18.1643 11.5294 17.1333 11.5294C16.1024 11.5294 15.2667 12.3722 15.2667 13.4118C15.2667 14.4514 16.1024 15.2941 17.1333 15.2941Z" stroke="black" stroke-width="1.5"/>
</svg>
