<svg width="24" height="24" viewBox="0 0 24 24" fill="none" xmlns="http://www.w3.org/2000/svg">
<path d="M16 14.9884C16 15.2646 15.7761 15.4884 15.5 15.4884C15.2239 15.4884 15 15.2646 15 14.9884C15 14.7123 15.2239 14.4884 15.5 14.4884C15.7761 14.4884 16 14.7123 16 14.9884Z" fill="black"/>
<path d="M15 15L20 15V9H15L15 4L9 4V9H4L4 15H9V20H15L15 17.7143M16 14.9884C16 15.2646 15.7761 15.4884 15.5 15.4884C15.2239 15.4884 15 15.2646 15 14.9884C15 14.7123 15.2239 14.4884 15.5 14.4884C15.7761 14.4884 16 14.7123 16 14.9884Z" stroke="black" stroke-width="1.5"/>
</svg>
