<svg width="24" height="24" viewBox="0 0 24 24" fill="none" xmlns="http://www.w3.org/2000/svg">
<path d="M19 9.5C19 11.9853 16.9853 14 14.5 14C12.0147 14 10 11.9853 10 9.5C10 7.01472 12.0147 5 14.5 5C16.9853 5 19 7.01472 19 9.5Z" fill="black"/>
<path d="M5 14.5C5 16.9853 7.01472 19 9.5 19C11.1008 19 12.5064 18.1641 13.3041 16.905C10.1199 16.3947 7.60527 13.8801 7.09502 10.6959C5.8359 11.4936 5 12.8992 5 14.5Z" fill="black"/>
<path d="M19 9.5C19 11.9853 16.9853 14 14.5 14C12.0147 14 10 11.9853 10 9.5C10 7.01472 12.0147 5 14.5 5C16.9853 5 19 7.01472 19 9.5Z" stroke="black" stroke-width="1.5"/>
<path d="M5 14.5C5 16.9853 7.01472 19 9.5 19C11.1008 19 12.5064 18.1641 13.3041 16.905C10.1199 16.3947 7.60527 13.8801 7.09502 10.6959C5.8359 11.4936 5 12.8992 5 14.5Z" stroke="black" stroke-width="1.5"/>
</svg>
