<svg width="24" height="24" viewBox="0 0 24 24" fill="none" xmlns="http://www.w3.org/2000/svg">
<g clip-path="url(#clip0_2649_6)">
<path d="M10.031 10.031C10.0105 9.85685 10 9.67965 10 9.5C10 7.01472 12.0147 5 14.5 5C16.9853 5 19 7.01472 19 9.5C19 11.9853 16.9853 14 14.5 14C14.3203 14 14.1432 13.9895 13.969 13.969M10.031 10.031C9.85685 10.0105 9.67965 10 9.5 10C7.01472 10 5 12.0147 5 14.5C5 16.9853 7.01472 19 9.5 19C11.9853 19 14 16.9853 14 14.5C14 14.3203 13.9895 14.1432 13.969 13.969M10.031 10.031C10.2733 12.0919 11.9081 13.7267 13.969 13.969" stroke="black" stroke-width="1.5"/>
</g>
<defs>
<clipPath id="clip0_2649_6">
<rect width="24" height="24" fill="white"/>
</clipPath>
</defs>
</svg>
