<svg width="24" height="24" viewBox="0 0 24 24" fill="none" xmlns="http://www.w3.org/2000/svg">
<path d="M5.98667 4.755H6.73667C6.73667 4.47093 6.57617 4.21123 6.32208 4.08418C6.06799 3.95714 5.76393 3.98456 5.53667 4.155L5.98667 4.755ZM5.23667 10C5.23667 10.4142 5.57246 10.75 5.98667 10.75C6.40088 10.75 6.73667 10.4142 6.73667 10H5.98667H5.23667ZM3.43867 5.7285C3.1073 5.97703 3.04014 6.44713 3.28867 6.7785C3.5372 7.10987 4.0073 7.17703 4.33867 6.9285L3.88867 6.3285L3.43867 5.7285ZM3.19809 14.3189C3.03651 14.7003 3.2147 15.1404 3.59609 15.302C3.97749 15.4636 4.41766 15.2854 4.57925 14.904L3.88867 14.6114L3.19809 14.3189ZM6.18279 13.7027L5.7892 14.3411L5.7892 14.3411L6.18279 13.7027ZM6.18279 15.9746L6.76205 16.451L6.77075 16.4404L6.77906 16.4296L6.18279 15.9746ZM4.06514 18.5495L3.48588 18.0731C3.30159 18.2972 3.26307 18.6075 3.38698 18.8698C3.5109 19.1321 3.77501 19.2995 4.06514 19.2995V18.5495ZM6.88867 19.2995C7.30289 19.2995 7.63867 18.9637 7.63867 18.5495C7.63867 18.1353 7.30289 17.7995 6.88867 17.7995V18.5495V19.2995ZM8.93457 18V18.75H20V18V17.25H8.93457V18ZM8.93457 12V12.75H20V12V11.25H8.93457V12ZM8.93457 6V6.75H20V6V5.25H8.93457V6ZM5.98667 4.755H5.23667V10H5.98667H6.73667V4.755H5.98667ZM5.98667 4.755L5.53667 4.155L3.43867 5.7285L3.88867 6.3285L4.33867 6.9285L6.43667 5.355L5.98667 4.755ZM3.88867 14.6114L4.57925 14.904C4.62463 14.7969 4.82449 14.5355 5.11587 14.3724C5.3775 14.2259 5.59018 14.2184 5.7892 14.3411L6.18279 13.7027L6.57638 13.0642C5.77687 12.5714 4.96014 12.7405 4.38317 13.0635C3.83594 13.3698 3.38801 13.8706 3.19809 14.3189L3.88867 14.6114ZM6.18279 13.7027L5.7892 14.3411C5.83382 14.3686 5.91404 14.4497 5.92103 14.6548C5.92805 14.8603 5.85271 15.1708 5.58652 15.5197L6.18279 15.9746L6.77906 16.4296C7.21875 15.8533 7.44089 15.2111 7.42016 14.6037C7.39942 13.9958 7.1267 13.4035 6.57637 13.0642L6.18279 13.7027ZM6.18279 15.9746L5.60353 15.4982L3.48588 18.0731L4.06514 18.5495L4.6444 19.0259L6.76205 16.451L6.18279 15.9746ZM4.06514 18.5495V19.2995H6.88867V18.5495V17.7995H4.06514V18.5495Z" fill="black"/>
</svg>
