<svg width="48" height="48" viewBox="0 0 48 48" fill="none" xmlns="http://www.w3.org/2000/svg">
<path d="M33.9999 34.0002V44.0002M14.0001 37.0001V44.0001M23.9999 37.9659V43.9999M10.5317 24.5153C10.5317 24.5153 16.5753 26.6103 19.2481 29.284C21.9209 31.9578 24.0118 38 24.0118 38C24.0118 38 26.1066 31.9583 28.7794 29.2846C31.4522 26.6109 37.4919 24.5153 37.4919 24.5153C37.4919 24.5153 31.4528 22.4249 28.78 19.7511C26.1071 17.0774 24.0118 11.0305 24.0118 11.0305C24.0118 11.0305 21.9204 17.078 19.2476 19.7517C16.5747 22.4254 10.5317 24.5153 10.5317 24.5153ZM34.4587 11.0375C34.4587 11.0375 35.7321 10.4784 36.3342 9.87613C36.9363 9.27385 37.4952 8 37.4952 8C37.4952 8 38.0542 9.27385 38.6563 9.87613C39.2583 10.4784 40.5317 11.0375 40.5317 11.0375C40.5317 11.0375 39.2583 11.5967 38.6563 12.199C38.0542 12.8012 37.4952 14.0751 37.4952 14.0751C37.4952 14.0751 36.9363 12.8012 36.3342 12.199C35.7321 11.5967 34.4587 11.0375 34.4587 11.0375Z" stroke="black" stroke-width="3"/>
</svg>
