<svg width="24" height="24" viewBox="0 0 24 24" fill="none" xmlns="http://www.w3.org/2000/svg">
<path d="M18.9967 8.65659C19.6109 9.70412 19.9624 10.9203 19.9624 12.2175C19.9624 15.2842 17.9979 17.8981 15.2428 18.9011L14.9356 18.983M10.2456 18.9011C7.49057 17.8981 5.52608 15.2842 5.52608 12.2175C5.52608 12.137 5.52744 12.0569 5.53012 11.977M7.78601 7.03731L8.02467 6.82877C9.2901 5.7489 10.9398 5.09566 12.7442 5.09566C13.5816 5.09566 14.3857 5.23636 15.1336 5.49511M7.78601 7.03731C6.7929 6.63734 5.61052 6.83499 4.80447 7.63028C3.73184 8.6886 3.73184 10.4045 4.80447 11.4628C5.02254 11.6779 5.26816 11.8494 5.53012 11.977M7.78601 7.03731C8.11447 7.1696 8.42222 7.36725 8.68881 7.63028C9.76143 8.6886 9.76143 10.4045 8.68881 11.4628C7.83425 12.3059 6.55668 12.4774 5.53012 11.977M15.1336 5.49511L15.5468 4L20 8.39373L13.8769 10.0414L15.1336 5.49511ZM14.9354 16.3898V21H10.2629V16.3898H14.9354Z" stroke="black" stroke-width="1.5"/>
</svg>
