<svg width="24" height="24" viewBox="0 0 24 24" fill="none" xmlns="http://www.w3.org/2000/svg">
<path d="M20.4882 12C20.4882 8.64381 18.5404 5.7426 15.7136 4.36508C14.5919 3.81846 13.3318 3.51176 12 3.51176C10.6795 3.51176 9.41624 3.8133 8.28642 4.35128C6.72811 5.09329 5.42363 6.28509 4.57283 7.75586L4.22054 8.46045M3.51181 12C3.51181 15.3561 5.4596 18.2573 8.28642 19.6348C9.40813 20.1815 10.6683 20.4882 12 20.4882C13.3205 20.4882 14.5838 20.1866 15.7136 19.6486C17.2719 18.9066 18.5764 17.7148 19.4272 16.2441L19.7819 15.5346M12 16.2441L8.28642 14.122L8.28642 9.87791L12 7.75586L15.7136 9.87791L15.7136 14.122L12 16.2441ZM12 11.4694C12.293 11.4694 12.5305 11.707 12.5305 12C12.5305 12.293 12.293 12.5305 12 12.5305C11.707 12.5305 11.4695 12.293 11.4695 12C11.4695 11.707 11.707 11.4694 12 11.4694ZM20.4882 16.2441L20.4882 15.183L19.4272 15.183L20.4882 16.2441ZM4.57283 8.81689L3.51181 8.81689L3.51181 7.75586L4.57283 8.81689Z" stroke="black" stroke-width="1.5"/>
</svg>
