<svg width="24" height="24" viewBox="0 0 24 24" fill="none" xmlns="http://www.w3.org/2000/svg">
<path d="M20.1875 17.0852V12.0388C20.1875 7.4701 16.4838 3.76639 11.915 3.76639C7.34629 3.76639 3.64258 7.47009 3.64258 12.0388V17.0852M6.42635 18.9673V12.1172C6.42635 9.13205 8.84626 6.71214 11.8314 6.71214H12.0611C14.9193 6.71214 17.2364 9.02918 17.2364 11.8874V14.1912C17.2364 15.777 15.9508 17.0626 14.3649 17.0626C12.7791 17.0626 11.4935 15.777 11.4935 14.1912V12.4562M14.369 13.8578V12.4562C14.369 11.0116 13.198 9.84061 11.7535 9.84061C10.309 9.84061 9.13795 11.0116 9.13795 12.4562V20.4455" stroke="black" stroke-width="1.5" stroke-linejoin="round"/>
</svg>
