<svg width="24" height="24" viewBox="0 0 24 24" fill="none" xmlns="http://www.w3.org/2000/svg">
<path d="M8.19393 16.9423C7.25215 17.3897 6.67148 18.0025 6.67148 18.6783C6.67148 20.0483 9.05716 21.1588 12.0001 21.1588C14.943 21.1588 17.3286 20.0483 17.3286 18.6783C17.3286 18.0025 16.748 17.3897 15.8062 16.9423M5.56787 9.27338C5.56787 5.72098 8.44766 2.84119 12.0001 2.84119C15.5525 2.84119 18.4322 5.72098 18.4322 9.27338C18.4322 10.445 18.119 11.5434 17.5717 12.4895L12.0001 17.3136L6.42838 12.4895C5.8811 11.5434 5.56787 10.445 5.56787 9.27338ZM14.474 9.32882C14.474 10.7069 13.3664 11.8241 12.0001 11.8241C10.6338 11.8241 9.52614 10.7069 9.52614 9.32882C9.52614 7.95074 10.6338 6.83358 12.0001 6.83358C13.3664 6.83358 14.474 7.95074 14.474 9.32882Z" stroke="black" stroke-width="1.5"/>
</svg>
