<svg width="24" height="24" viewBox="0 0 24 24" fill="none" xmlns="http://www.w3.org/2000/svg">
<path d="M6 17.0229V14C6 13.3333 6.4 12 8 12H10.5152M17 6V10C17 11.6 15.6667 12 15 12H13.4758M17 6H15L17 4L19 6H17ZM16 16L20 20M4 4L8 8M20 16L16 20M8 4L4 8M7.5 18.5C7.5 19.3284 6.82843 20 6 20C5.17157 20 4.5 19.3284 4.5 18.5C4.5 17.6716 5.17157 17 6 17C6.82843 17 7.5 17.6716 7.5 18.5ZM13.5 12C13.5 12.8284 12.8284 13.5 12 13.5C11.1716 13.5 10.5 12.8284 10.5 12C10.5 11.1716 11.1716 10.5 12 10.5C12.8284 10.5 13.5 11.1716 13.5 12Z" stroke="black" stroke-width="1.5"/>
</svg>
