<svg width="24" height="24" viewBox="0 0 24 24" fill="none" xmlns="http://www.w3.org/2000/svg">
<path d="M19 20V20.75H19.75V20H19ZM5 20H4.25V20.75H5V20ZM4 7V6.25H3.25V7H4ZM20 7H20.75V6.25H20V7ZM20 12V12.75H20.75V12H20ZM4 12H3.25V12.75H4V12ZM18.25 12V20H19.75V12H18.25ZM19 19.25H5V20.75H19V19.25ZM5.75 20V12H4.25V20H5.75ZM4 7.75H20V6.25H4V7.75ZM19.25 7V12H20.75V7H19.25ZM20 11.25H4V12.75H20V11.25ZM4.75 12V7H3.25V12H4.75ZM11.25 7V20H12.75V7H11.25ZM12.5303 7.53033L15.5303 4.53033L14.4697 3.46967L11.4697 6.46967L12.5303 7.53033ZM12.5303 6.46967L9.53033 3.46967L8.46967 4.53033L11.4697 7.53033L12.5303 6.46967Z" fill="black"/>
</svg>
