<svg width="24" height="24" viewBox="0 0 24 24" fill="none" xmlns="http://www.w3.org/2000/svg">
<path d="M5.4621 19.4804C5.48882 20.0164 5.07152 20.4724 4.53003 20.4988C3.98855 20.5252 3.52793 20.1122 3.50121 19.5762C3.4745 19.0402 3.8918 18.5843 4.43329 18.5578C4.97477 18.5314 5.43539 18.9445 5.4621 19.4804Z" fill="black"/>
<path d="M18.5379 19.4804C18.5112 20.0164 18.9285 20.4724 19.4699 20.4988C20.0114 20.5252 20.4721 20.1122 20.4988 19.5762C20.5255 19.0402 20.1082 18.5843 19.5667 18.5578C19.0252 18.5314 18.5646 18.9445 18.5379 19.4804Z" fill="black"/>
<path d="M5.4621 4.51959C5.48882 3.98361 5.07152 3.52767 4.53003 3.50122C3.98855 3.47478 3.52793 3.88784 3.50121 4.42382C3.4745 4.95981 3.8918 5.41574 4.43329 5.44219C4.97477 5.46863 5.43539 5.05557 5.4621 4.51959Z" fill="black"/>
<path d="M18.5379 4.51956C18.5112 3.98358 18.9285 3.52765 19.47 3.5012C20.0115 3.47476 20.4721 3.88782 20.4988 4.4238C20.5255 4.95978 20.1082 5.41572 19.5667 5.44216C19.0252 5.46861 18.5646 5.05555 18.5379 4.51956Z" fill="black"/>
<path d="M8.56418 15.5053L9.42316 14.5506H14.5768L15.4356 15.5053M7.14935 16.8167L5.12852 18.8016M16.9081 16.8583L18.8715 18.8016M7.10214 7.23001L5.12852 5.19838M16.9081 7.22999L18.8715 5.19836M18.8714 12C18.8714 15.7564 15.795 18.8016 12 18.8016C8.20496 18.8016 5.1285 15.7564 5.1285 12C5.1285 8.24357 8.20496 5.19838 12 5.19838C15.795 5.19838 18.8714 8.24357 18.8714 12ZM13.7178 10.2996C13.7178 11.2387 12.9487 12 12 12C11.0512 12 10.2821 11.2387 10.2821 10.2996C10.2821 9.36049 11.0512 8.5992 12 8.5992C12.9487 8.5992 13.7178 9.36049 13.7178 10.2996ZM5.4621 19.4804C5.48882 20.0164 5.07152 20.4724 4.53003 20.4988C3.98855 20.5252 3.52793 20.1122 3.50121 19.5762C3.4745 19.0402 3.8918 18.5843 4.43329 18.5578C4.97477 18.5314 5.43539 18.9445 5.4621 19.4804ZM18.5379 19.4804C18.5112 20.0164 18.9285 20.4724 19.4699 20.4988C20.0114 20.5252 20.4721 20.1122 20.4988 19.5762C20.5255 19.0402 20.1082 18.5843 19.5667 18.5578C19.0252 18.5314 18.5646 18.9445 18.5379 19.4804ZM5.4621 4.51959C5.48882 3.98361 5.07152 3.52767 4.53003 3.50122C3.98855 3.47478 3.52793 3.88784 3.50121 4.42382C3.4745 4.95981 3.8918 5.41574 4.43329 5.44219C4.97477 5.46863 5.43539 5.05557 5.4621 4.51959ZM18.5379 4.51957C18.5112 3.98358 18.9285 3.52765 19.47 3.5012C20.0115 3.47476 20.4721 3.88782 20.4988 4.4238C20.5255 4.95978 20.1082 5.41572 19.5667 5.44216C19.0252 5.46861 18.5646 5.05555 18.5379 4.51957Z" stroke="black" stroke-width="1.5"/>
</svg>
