<svg width="24" height="24" viewBox="0 0 24 24" fill="none" xmlns="http://www.w3.org/2000/svg">
<path d="M11.6709 12.9077L17.6709 6.90767M5.99998 17.347L6.9224 20.7895L17.5476 17.9425M17.6709 12.4077C17.6709 12.6838 17.447 12.9077 17.1709 12.9077C16.8948 12.9077 16.6709 12.6838 16.6709 12.4077C16.6709 12.1315 16.8948 11.9077 17.1709 11.9077C17.447 11.9077 17.6709 12.1315 17.6709 12.4077ZM12.6709 7.40767C12.6709 7.68381 12.447 7.90767 12.1709 7.90767C11.8948 7.90767 11.6709 7.68381 11.6709 7.40767C11.6709 7.13152 11.8948 6.90767 12.1709 6.90767C12.447 6.90767 12.6709 7.13152 12.6709 7.40767ZM3.57068 4.40765V7.15765C3.57068 7.15765 5.86608 7.50198 5.83526 9.94304C5.80443 12.3841 3.57068 12.6577 3.57068 12.6577V15.4077H20.5658V4.40765H3.57068Z" stroke="black" stroke-width="1.5"/>
</svg>
