<svg width="24" height="24" viewBox="0 0 24 24" fill="none" xmlns="http://www.w3.org/2000/svg">
<path d="M18 17.7344C19.7477 17.0938 21 15.3652 21 13.3333C21 10.756 18.9851 8.66667 16.5 8.66667C16.5 6.08933 14.4851 4 12 4C9.51489 4 7.5 6.08933 7.5 8.66667C5.01489 8.66667 3 10.756 3 13.3333C3 15.3652 4.25229 17.0938 6 17.7344M16 16C16 18.2091 14.2091 20 12 20C9.79086 20 8 18.2091 8 16C8 13.7909 9.79086 12 12 12M16 16C16 13.7909 14.2091 12 12 12M16 16H13L12 15V12" stroke="black" stroke-width="1.5"/>
</svg>
