<svg width="24" height="24" viewBox="0 0 24 24" fill="none" xmlns="http://www.w3.org/2000/svg">
<path d="M8.47717 10.3671C8.74578 10.3671 8.96354 10.5848 8.96354 10.8534C8.96354 11.122 8.74578 11.3398 8.47717 11.3398C8.20856 11.3398 7.99081 11.122 7.99081 10.8534C7.99081 10.5848 8.20856 10.3671 8.47717 10.3671Z" fill="black"/>
<path d="M15.8207 10.3671C16.0893 10.3671 16.3071 10.5848 16.3071 10.8534C16.3071 11.122 16.0893 11.3398 15.8207 11.3398C15.5521 11.3398 15.3343 11.122 15.3343 10.8534C15.3343 10.5848 15.5521 10.3671 15.8207 10.3671Z" fill="black"/>
<path d="M12.2045 4.99715V7.0642M12.2045 4.99715L11.1622 3.96362L5.95119 3.96362L4.90905 4.99715L4.90908 7.0642M12.2045 4.99715L13.2466 3.96362L18.4577 3.96362L19.5 4.99715V7.0642M12.2045 7.0642L12.2045 20.5M12.2045 7.0642L4.90908 7.0642M12.2045 7.0642L19.5 7.0642M12.2045 20.5H4.90908L4.90908 7.0642M12.2045 20.5H19.5L19.5 7.0642M8.47717 10.3671C8.74578 10.3671 8.96354 10.5848 8.96354 10.8534C8.96354 11.122 8.74578 11.3398 8.47717 11.3398C8.20856 11.3398 7.99081 11.122 7.99081 10.8534C7.99081 10.5848 8.20856 10.3671 8.47717 10.3671ZM15.8207 10.3671C16.0893 10.3671 16.3071 10.5848 16.3071 10.8534C16.3071 11.122 16.0893 11.3398 15.8207 11.3398C15.5521 11.3398 15.3343 11.122 15.3343 10.8534C15.3343 10.5848 15.5521 10.3671 15.8207 10.3671Z" stroke="black" stroke-width="1.5"/>
</svg>
