<svg width="24" height="24" viewBox="0 0 24 24" fill="none" xmlns="http://www.w3.org/2000/svg">
<path d="M18 18C18 18.2761 17.7761 18.5 17.5 18.5C17.2239 18.5 17 18.2761 17 18C17 17.7239 17.2239 17.5 17.5 17.5C17.7761 17.5 18 17.7239 18 18Z" fill="black"/>
<path d="M6.34705 17.6608C7.79445 19.1062 9.79285 20 12 20H12.5M6.34705 17.6608C4.89704 16.2127 4 14.2111 4 12C4 7.58172 7.58172 4 12 4C16.4183 4 20 7.58172 20 12V12.5M6.34705 17.6608L9 15H12.5M14 10C14 11.1046 13.1046 12 12 12C10.8954 12 10 11.1046 10 10C10 8.89543 10.8954 8 12 8C13.1046 8 14 8.89543 14 10ZM19.25 15L21 18L19.25 21H15.75L14 18L15.75 15H19.25ZM18 18C18 18.2761 17.7761 18.5 17.5 18.5C17.2239 18.5 17 18.2761 17 18C17 17.7239 17.2239 17.5 17.5 17.5C17.7761 17.5 18 17.7239 18 18Z" stroke="black" stroke-width="1.5"/>
</svg>
