<svg width="24" height="24" viewBox="0 0 24 24" fill="none" xmlns="http://www.w3.org/2000/svg">
<path d="M6.34705 17.6608C7.79445 19.1062 9.79285 20 12 20C12.489 20 12.9678 19.9561 13.4326 19.8721L14.0053 19.7298M6.34705 17.6608C4.89704 16.2127 4 14.2111 4 12C4 7.58172 7.58172 4 12 4C16.4183 4 20 7.58172 20 12C20 12.6906 19.9125 13.3608 19.748 14M6.34705 17.6608L9 15H14M18.2881 16.7438L18.8806 17.7283L20 17.9875L19.2468 18.8553L19.3461 20L18.2881 19.5518L17.2301 20L17.3294 18.8553L16.5762 17.9875L17.6956 17.7283L18.2881 16.7438ZM14 10C14 11.1046 13.1046 12 12 12C10.8954 12 10 11.1046 10 10C10 8.89543 10.8954 8 12 8C13.1046 8 14 8.89543 14 10Z" stroke="black" stroke-width="1.5"/>
</svg>
