<svg width="24" height="24" viewBox="0 0 24 24" fill="none" xmlns="http://www.w3.org/2000/svg">
<path d="M9.06089 8.78274L10.8613 11.7599M9.06089 8.78274H6.08371L4.22297 11.7599L6.08371 14.7371H9.06089M9.06089 8.78274L11.9681 6.06542M10.8613 11.7599L9.06089 14.7371M10.8613 11.7599L16.6631 11.7562M9.06089 14.7371L11.6464 17.8812M11.6263 5.54564C11.94 6.34787 12.8446 6.74391 13.6468 6.43023C14.449 6.11655 14.8451 5.21193 14.5314 4.40971C14.2177 3.60748 13.3131 3.21143 12.5109 3.52511C11.7087 3.83879 11.3126 4.74341 11.6263 5.54564ZM11.2793 18.3835C11.6322 17.5977 12.5553 17.2467 13.341 17.5996C14.1268 17.9524 14.4778 18.8755 14.1249 19.6613C13.7721 20.447 12.849 20.798 12.0632 20.4451C11.2775 20.0923 10.9265 19.1692 11.2793 18.3835ZM16.8016 11.1497C16.4398 11.9314 16.7803 12.8584 17.562 13.2202C18.3437 13.5819 19.2707 13.2415 19.6325 12.4597C19.9942 11.678 19.6537 10.751 18.872 10.3893C18.0903 10.0275 17.1633 10.368 16.8016 11.1497Z" stroke="black" stroke-width="1.5"/>
</svg>
