<svg width="24" height="24" viewBox="0 0 24 24" fill="none" xmlns="http://www.w3.org/2000/svg">
<path d="M8.60919 2.48755L11.0903 4.91118M8.99518 21.5125L11.4404 19.1293M2.63484 12.0878H8.35468M19.4856 8.60803L21.3652 11.7162L19.4856 14.8243H16.3774L14.4348 11.7162L16.3774 8.60803H19.4856ZM11.6692 4.61659C10.8005 4.84933 10.2851 5.74217 10.5178 6.61079C10.7506 7.47942 11.6434 7.99489 12.512 7.76215C13.3806 7.5294 13.8961 6.63657 13.6634 5.76794C13.4306 4.89932 12.5378 4.38384 11.6692 4.61659ZM12.0192 19.4239C11.1506 19.1912 10.6351 18.2983 10.8679 17.4297C11.1006 16.5611 11.9934 16.0456 12.8621 16.2784C13.7307 16.5111 14.2462 17.4039 14.0134 18.2726C13.7807 19.1412 12.8878 19.6567 12.0192 19.4239ZM8.49923 11.4546C8.12156 12.2708 8.47699 13.2385 9.29311 13.6162C10.1092 13.9938 11.077 13.6384 11.4546 12.8223C11.8323 12.0062 11.4769 11.0384 10.6608 10.6608C9.84465 10.2831 8.8769 10.6385 8.49923 11.4546Z" stroke="black" stroke-width="1.5"/>
</svg>
