<svg width="24" height="24" viewBox="0 0 24 24" fill="none" xmlns="http://www.w3.org/2000/svg">
<path d="M12.6 16.1C12.6 16.4314 12.3313 16.7 12 16.7C11.6686 16.7 11.4 16.4314 11.4 16.1C11.4 15.7686 11.6686 15.5 12 15.5C12.3313 15.5 12.6 15.7686 12.6 16.1Z" fill="black"/>
<path d="M18 17.7344C19.7477 17.0938 21 15.3652 21 13.3333C21 10.756 18.9851 8.66667 16.5 8.66667C16.5 6.08933 14.4851 4 12 4C9.51489 4 7.5 6.08933 7.5 8.66667C5.01489 8.66667 3 10.756 3 13.3333C3 15.3652 4.25229 17.0938 6 17.7344M14 12L16.5 16L14 20H10L7.50003 16L10 12H14ZM12.6 16.1C12.6 16.4314 12.3313 16.7 12 16.7C11.6686 16.7 11.4 16.4314 11.4 16.1C11.4 15.7686 11.6686 15.5 12 15.5C12.3313 15.5 12.6 15.7686 12.6 16.1Z" stroke="black" stroke-width="1.5"/>
</svg>
