<svg width="24" height="24" viewBox="0 0 24 24" fill="none" xmlns="http://www.w3.org/2000/svg">
<path d="M10.6999 14.3544C10.2865 14.3544 9.99999 14.5859 9.99999 14.9948C9.99999 15.1921 10.1458 15.4128 10.401 15.6039L11.6928 16.5481L12.9839 15.6047C13.1785 15.442 13.334 15.1924 13.334 14.9948C13.334 14.5859 13.135 14.3544 12.7217 14.3544C12.3957 14.3544 11.7955 15.6631 11.6928 15.9509C11.5896 15.6642 11.0251 14.3544 10.6999 14.3544Z" fill="black"/>
<path d="M17 7.42857V4H7C6 4 4 4.68571 4 7.42857C4 10.1714 6 10.8571 7 10.8571H20L17 15.4286L20 20H7C6 20 4 19.3143 4 16.5714V13.1429M10.6999 14.3544C10.2865 14.3544 9.99999 14.5859 9.99999 14.9948C9.99999 15.1921 10.1458 15.4128 10.401 15.6039L11.6928 16.5481L12.9839 15.6047C13.1785 15.442 13.334 15.1924 13.334 14.9948C13.334 14.5859 13.135 14.3544 12.7217 14.3544C12.3957 14.3544 11.7955 15.6631 11.6928 15.9509C11.5896 15.6642 11.0251 14.3544 10.6999 14.3544Z" stroke="black" stroke-width="1.5"/>
</svg>
