<svg width="24" height="24" viewBox="0 0 24 24" fill="none" xmlns="http://www.w3.org/2000/svg">
<path d="M16.1659 6.41758C16.1659 6.41758 16.7602 6.15665 17.0411 5.87558C17.3221 5.59452 17.5829 5.00006 17.5829 5.00006C17.5829 5.00006 17.8438 5.59452 18.1248 5.87558C18.4057 6.15665 19 6.41758 19 6.41758C19 6.41758 18.4057 6.6785 18.1248 6.95957C17.8438 7.24063 17.5829 7.83509 17.5829 7.83509C17.5829 7.83509 17.3221 7.24063 17.0411 6.95957C16.7602 6.6785 16.1659 6.41758 16.1659 6.41758Z" fill="black"/>
<path d="M4.99976 12.7071C4.99976 12.7071 7.81987 11.7319 9.06721 10.4842C10.3145 9.23641 11.2906 6.4143 11.2906 6.4143C11.2906 6.4143 12.2684 9.23616 13.5157 10.4839C14.7631 11.7316 17.5814 12.7071 17.5814 12.7071C17.5814 12.7071 14.7628 13.6851 13.5155 14.9328C12.2681 16.1806 11.2906 19 11.2906 19C11.2906 19 10.3148 16.1803 9.06747 14.9326C7.82013 13.6848 4.99976 12.7071 4.99976 12.7071Z" stroke="black" stroke-width="1.5"/>
<path d="M16.1659 6.41758C16.1659 6.41758 16.7602 6.15665 17.0411 5.87558C17.3221 5.59452 17.5829 5.00006 17.5829 5.00006C17.5829 5.00006 17.8438 5.59452 18.1248 5.87558C18.4057 6.15665 19 6.41758 19 6.41758C19 6.41758 18.4057 6.6785 18.1248 6.95957C17.8438 7.24063 17.5829 7.83509 17.5829 7.83509C17.5829 7.83509 17.3221 7.24063 17.0411 6.95957C16.7602 6.6785 16.1659 6.41758 16.1659 6.41758Z" stroke="black" stroke-width="1.5"/>
</svg>
