<svg width="24" height="24" viewBox="0 0 24 24" fill="none" xmlns="http://www.w3.org/2000/svg">
<path d="M16.1659 6.41755C16.1659 6.41755 16.7602 6.15662 17.0411 5.87556C17.3221 5.59449 17.5829 5.00003 17.5829 5.00003C17.5829 5.00003 17.8438 5.59449 18.1248 5.87556C18.4057 6.15662 19 6.41755 19 6.41755C19 6.41755 18.4057 6.67848 18.1248 6.95954C17.8438 7.2406 17.5829 7.83506 17.5829 7.83506C17.5829 7.83506 17.3221 7.2406 17.0411 6.95954C16.7602 6.67848 16.1659 6.41755 16.1659 6.41755Z" fill="black"/>
<path d="M4.99976 12.7071C4.99976 12.7071 7.81987 11.7319 9.06721 10.4841C10.3145 9.23639 11.2906 6.41428 11.2906 6.41428C11.2906 6.41428 12.2684 9.23613 13.5157 10.4839C14.7631 11.7316 17.5814 12.7071 17.5814 12.7071C17.5814 12.7071 14.7628 13.685 13.5155 14.9328C12.2681 16.1805 11.2906 18.9999 11.2906 18.9999C11.2906 18.9999 10.3148 16.1803 9.06747 14.9325C7.82013 13.6848 4.99976 12.7071 4.99976 12.7071Z" stroke="black" stroke-width="1.5"/>
<path d="M16.1659 6.41755C16.1659 6.41755 16.7602 6.15662 17.0411 5.87556C17.3221 5.59449 17.5829 5.00003 17.5829 5.00003C17.5829 5.00003 17.8438 5.59449 18.1248 5.87556C18.4057 6.15662 19 6.41755 19 6.41755C19 6.41755 18.4057 6.67848 18.1248 6.95954C17.8438 7.2406 17.5829 7.83506 17.5829 7.83506C17.5829 7.83506 17.3221 7.2406 17.0411 6.95954C16.7602 6.67848 16.1659 6.41755 16.1659 6.41755Z" stroke="black" stroke-width="1.5"/>
</svg>
