<svg width="24" height="24" viewBox="0 0 24 24" fill="none" xmlns="http://www.w3.org/2000/svg">
<path d="M11.9999 10.8791L12.6873 12.0676L13.986 12.3806L13.1122 13.4281L13.2274 14.81L11.9999 14.2689L10.7725 14.81L10.8877 13.4281L10.0138 12.3806L11.3126 12.0676L11.9999 10.8791Z" fill="black"/>
<path d="M12 4L14.9418 8.83755L20.5 10.1115L16.76 14.3751L17.2533 20L12 17.7975L6.74671 20L7.24 14.3751L3.5 10.1115L9.05816 8.83755L12 4Z" stroke="black" stroke-width="1.5"/>
<path d="M11.9999 10.8791L12.6873 12.0676L13.986 12.3806L13.1122 13.4281L13.2274 14.81L11.9999 14.2689L10.7725 14.81L10.8877 13.4281L10.0138 12.3806L11.3126 12.0676L11.9999 10.8791Z" stroke="black" stroke-width="1.5"/>
</svg>
