<svg width="24" height="24" viewBox="0 0 24 24" fill="none" xmlns="http://www.w3.org/2000/svg">
<path d="M12.9042 12.0003C12.9042 12.4913 12.507 12.8893 12.0171 12.8893C11.5272 12.8893 11.13 12.4913 11.13 12.0003C11.13 11.5093 11.5272 11.1113 12.0171 11.1113C12.2794 11.1113 12.5152 11.2255 12.6776 11.4069C12.8185 11.5643 12.9042 11.7723 12.9042 12.0003Z" fill="black"/>
<path d="M17.5951 6.31049C16.1531 4.88198 14.1708 4 11.983 4C7.57412 4 4 7.58172 4 12C4 16.4183 7.57412 20 11.983 20C16.3919 20 19.966 16.4183 19.966 12C19.966 9.7742 19.059 7.76071 17.5951 6.31049ZM17.5951 6.31049L19.113 4.88889M19.113 4.88889L20 5.77778M19.113 4.88889L18.226 4M12 18V16.5M12 7.5L12 6M16.8953 12L18.226 12M5.8078 12L7.13847 12M4 5.778L5.77423 4M4.88723 4.89077L6.40355 6.31696M12.9042 12.0003C12.9042 12.4913 12.507 12.8893 12.0171 12.8893C11.5272 12.8893 11.13 12.4913 11.13 12.0003C11.13 11.5093 11.5272 11.1113 12.0171 11.1113C12.2794 11.1113 12.5152 11.2255 12.6776 11.4069C12.8185 11.5643 12.9042 11.7723 12.9042 12.0003Z" stroke="black" stroke-width="1.5"/>
</svg>
