<svg width="24" height="24" viewBox="0 0 24 24" fill="none" xmlns="http://www.w3.org/2000/svg">
<path d="M6.2992 19.8114C4.9315 16.3379 3.60259 8.41347 9.0734 4C11.0808 5.19959 14.6331 9.95183 12.0236 19.225M5.09548 13.586C6.1792 12.8776 7.06538 12.5 9.01607 11.4375V13.5625L12.8681 11.4577M15.2787 8.25004C16.3818 7.1061 17.7275 6.17447 19.3543 5.65235C19.9918 6.69986 20.449 9.09792 19.268 12.5M19.268 12.5L16.2615 10.9063M19.268 12.5C18.9507 13.4138 18.5153 14.3999 17.9335 15.4518M17.9335 15.4518C17.1992 16.7794 16.1719 18.3819 14.9144 19.9053M17.9335 15.4518L14.5895 13.5625M4 21C5.8578 19.5833 11.134 17.6 17.3762 21" stroke="black" stroke-width="1.5"/>
</svg>
