<svg width="24" height="24" viewBox="0 0 24 24" fill="none" xmlns="http://www.w3.org/2000/svg">
<path d="M16.5 7.5C16.5 7.77614 16.2762 8 16 8C15.7239 8 15.5 7.77614 15.5 7.5C15.5 7.22386 15.7239 7 16 7C16.2762 7 16.5 7.22386 16.5 7.5Z" fill="black"/>
<path d="M6.27239 19.8186C6.17193 20.2204 6.41625 20.6276 6.8181 20.7281C7.21994 20.8285 7.62715 20.5842 7.72761 20.1824L6.27239 19.8186ZM8.5 14.0005V13.2505C8.15585 13.2505 7.85586 13.4847 7.77239 13.8186L8.5 14.0005ZM9.5 14.0005L10.2276 13.8186C10.1441 13.4847 9.84415 13.2505 9.5 13.2505V14.0005ZM10.2724 20.1824C10.3729 20.5842 10.7801 20.8285 11.1819 20.7281C11.5837 20.6276 11.8281 20.2204 11.7276 19.8186L10.2724 20.1824ZM13.263 14.0005V13.2505C12.8488 13.2505 12.513 13.5863 12.513 14.0005H13.263ZM12.513 20.0005C12.513 20.4147 12.8488 20.7505 13.263 20.7505C13.6772 20.7505 14.013 20.4147 14.013 20.0005H12.513ZM18.5 14V13.25C18.0858 13.25 17.75 13.5858 17.75 14H18.5ZM17.75 20C17.75 20.4142 18.0858 20.75 18.5 20.75C18.9142 20.75 19.25 20.4142 19.25 20H17.75ZM3 12.5L2.46967 11.9697L1.93934 12.5L2.46967 13.0303L3 12.5ZM11.5 4V3.25H11.1894L10.9697 3.46967L11.5 4ZM19.5 4H20.25V3.25L19.5 3.25V4ZM7.72761 20.1824L8.22761 18.1824L6.77239 17.8186L6.27239 19.8186L7.72761 20.1824ZM8.22761 18.1824L9.22761 14.1824L7.77239 13.8186L6.77239 17.8186L8.22761 18.1824ZM8.5 14.7505H9.5V13.2505H8.5V14.7505ZM8.77239 14.1824L9.77239 18.1824L11.2276 17.8186L10.2276 13.8186L8.77239 14.1824ZM9.77239 18.1824L10.2724 20.1824L11.7276 19.8186L11.2276 17.8186L9.77239 18.1824ZM7.5 18.7505H10.5V17.2505H7.5V18.7505ZM13.263 18.353H14.763V16.853H13.263V18.353ZM14.763 18.353C15.1173 18.353 15.6548 18.2642 16.1272 17.9374C16.6418 17.5814 17.013 16.9849 17.013 16.1383H15.513C15.513 16.3313 15.4736 16.4509 15.4348 16.5249C15.3959 16.5992 15.3422 16.6565 15.2738 16.7038C15.1212 16.8094 14.9087 16.853 14.763 16.853V18.353ZM17.013 16.1383V15.5336H15.513V16.1383H17.013ZM17.013 15.5336C17.013 14.918 16.8588 14.3167 16.4269 13.8704C15.9908 13.4199 15.3911 13.2505 14.763 13.2505V14.7505C15.1349 14.7505 15.2852 14.8477 15.3491 14.9137C15.4172 14.984 15.513 15.1492 15.513 15.5336H17.013ZM14.763 13.2505H13.263V14.7505H14.763V13.2505ZM12.513 17.603V20.0005H14.013V17.603H12.513ZM12.513 14.0005V17.603H14.013V14.0005H12.513ZM18.5 18.3525H20V16.8525H18.5V18.3525ZM20 18.3525C20.3543 18.3525 20.8918 18.2637 21.3642 17.9369C21.8788 17.5809 22.25 16.9844 22.25 16.1378H20.75C20.75 16.3308 20.7106 16.4505 20.6718 16.5244C20.6328 16.5987 20.5792 16.6561 20.5108 16.7034C20.3582 16.8089 20.1457 16.8525 20 16.8525V18.3525ZM22.25 16.1378V15.5332H20.75V16.1378H22.25ZM22.25 15.5332C22.25 14.9176 22.0958 14.3162 21.6639 13.87C21.2278 13.4194 20.6281 13.25 20 13.25V14.75C20.3719 14.75 20.5222 14.8472 20.5861 14.9132C20.6542 14.9836 20.75 15.1488 20.75 15.5332H22.25ZM20 13.25H18.5V14.75H20V13.25ZM17.75 17.6025V20H19.25V17.6025H17.75ZM17.75 14V17.6025H19.25V14H17.75ZM3.53033 13.0303L12.0303 4.53033L10.9697 3.46967L2.46967 11.9697L3.53033 13.0303ZM11.5 4.75L19.5 4.75V3.25L11.5 3.25V4.75ZM18.75 4V12H20.25V4H18.75ZM15.75 7.5C15.75 7.36193 15.8619 7.25 16 7.25V8.75C16.6904 8.75 17.25 8.19036 17.25 7.5H15.75ZM16 7.25C16.1381 7.25 16.25 7.36193 16.25 7.5H14.75C14.75 8.19036 15.3097 8.75 16 8.75V7.25ZM16.25 7.5C16.25 7.63807 16.1381 7.75 16 7.75V6.25C15.3097 6.25 14.75 6.80964 14.75 7.5H16.25ZM16 7.75C15.8619 7.75 15.75 7.63807 15.75 7.5H17.25C17.25 6.80964 16.6904 6.25 16 6.25V7.75ZM5.53033 13.9697L3.53033 11.9697L2.46967 13.0303L4.46967 15.0303L5.53033 13.9697Z" fill="black"/>
</svg>
