<svg width="24" height="24" viewBox="0 0 24 24" fill="none" xmlns="http://www.w3.org/2000/svg">
<path d="M3 12.5L2.46967 11.9697L1.93934 12.5L2.46967 13.0303L3 12.5ZM11.5 4V3.25H11.1894L10.9697 3.46967L11.5 4ZM19.5 4H20.25V3.25L19.5 3.25V4ZM9.73236 14.7605C10.1466 14.7605 10.4824 14.4247 10.4824 14.0105C10.4824 13.5962 10.1466 13.2605 9.73236 13.2605V14.7605ZM8.49091 14.0105L8.43721 13.2624L8.49091 14.0105ZM7.30253 16.3664L7.87467 15.8814L7.30253 16.3664ZM9.35674 17.364L8.94883 17.9933L9.35674 17.364ZM8.49091 20V19.25H8.49091L8.49091 20ZM7.17214 19.25C6.75792 19.25 6.42214 19.5858 6.42214 20C6.42214 20.4142 6.75792 20.75 7.17214 20.75L7.17214 19.25ZM12.7115 13.7628C12.5805 13.3699 12.1558 13.1575 11.7628 13.2885C11.3699 13.4195 11.1575 13.8442 11.2885 14.2372L12.7115 13.7628ZM14 20L13.2885 20.2372C13.3906 20.5434 13.6772 20.75 14 20.75C14.3228 20.75 14.6094 20.5434 14.7115 20.2372L14 20ZM16.7115 14.2372C16.8425 13.8442 16.6301 13.4195 16.2372 13.2885C15.8442 13.1575 15.4195 13.3699 15.2885 13.7628L16.7115 14.2372ZM3.53033 13.0303L12.0303 4.53033L10.9697 3.46967L2.46967 11.9697L3.53033 13.0303ZM11.5 4.75L19.5 4.75V3.25L11.5 3.25V4.75ZM18.75 4V12H20.25V4H18.75ZM15.75 7.5C15.75 7.36193 15.8619 7.25 16 7.25V8.75C16.6904 8.75 17.25 8.19036 17.25 7.5H15.75ZM16 7.25C16.1381 7.25 16.25 7.36193 16.25 7.5H14.75C14.75 8.19036 15.3097 8.75 16 8.75V7.25ZM16.25 7.5C16.25 7.63807 16.1381 7.75 16 7.75V6.25C15.3097 6.25 14.75 6.80964 14.75 7.5H16.25ZM16 7.75C15.8619 7.75 15.75 7.63807 15.75 7.5H17.25C17.25 6.80964 16.6904 6.25 16 6.25V7.75ZM5.53033 13.9697L3.53033 11.9697L2.46967 13.0303L4.46967 15.0303L5.53033 13.9697ZM9.73236 13.2605C9.02862 13.2605 8.8092 13.2546 8.72808 13.252C8.70151 13.2512 8.6468 13.2484 8.58548 13.2515C8.55661 13.253 8.49325 13.2584 8.43721 13.2624L8.54461 14.7585C8.58816 14.7554 8.61822 14.753 8.63915 14.7514C8.66383 14.7495 8.66486 14.7494 8.66311 14.7495C8.64436 14.7505 8.61443 14.7492 8.68052 14.7513C8.78471 14.7546 9.02218 14.7605 9.73236 14.7605V13.2605ZM8.43721 13.2624C7.3544 13.3401 6.64609 13.9447 6.37367 14.7309C6.12534 15.4477 6.25546 16.291 6.73038 16.8513L7.87467 15.8814C7.77348 15.7621 7.70002 15.4846 7.79102 15.222C7.85793 15.0289 8.03187 14.7953 8.54461 14.7585L8.43721 13.2624ZM6.73038 16.8513C7.16134 17.3598 7.6299 17.5219 8.01683 17.6313C8.38327 17.735 8.63042 17.787 8.94883 17.9933L9.76464 16.7346C9.21723 16.3798 8.72532 16.2729 8.42514 16.188C8.14545 16.1088 8.01982 16.0527 7.87467 15.8814L6.73038 16.8513ZM8.94883 17.9933C9.18004 18.1432 9.30219 18.4619 9.22973 18.766C9.19651 18.9055 9.12599 19.0184 9.02657 19.0973C8.93074 19.1733 8.76739 19.25 8.49091 19.25V20.75C9.69123 20.75 10.4726 20.0217 10.6889 19.1137C10.8895 18.2717 10.5944 17.2724 9.76464 16.7346L8.94883 17.9933ZM8.49091 19.25L7.17214 19.25L7.17214 20.75L8.49091 20.75L8.49091 19.25ZM11.2885 14.2372L13.2885 20.2372L14.7115 19.7628L12.7115 13.7628L11.2885 14.2372ZM14.7115 20.2372L16.7115 14.2372L15.2885 13.7628L13.2885 19.7628L14.7115 20.2372ZM19.5 13.25C18.376 13.25 17.25 14.174 17.25 15.5H18.75C18.75 15.0806 19.124 14.75 19.5 14.75V13.25ZM17.25 15.5V18.5H18.75V15.5H17.25ZM17.25 18.5C17.25 19.2035 17.5213 19.7863 17.9705 20.1856C18.4059 20.5726 18.9652 20.75 19.5 20.75V19.25C19.2848 19.25 19.0941 19.1774 18.967 19.0644C18.8537 18.9637 18.75 18.7965 18.75 18.5H17.25ZM21.75 15.6364C21.75 14.9091 21.4947 14.2987 21.0534 13.8707C20.6208 13.4512 20.0534 13.25 19.5 13.25V14.75C19.6966 14.75 19.8792 14.8215 20.0091 14.9475C20.1303 15.065 20.25 15.2727 20.25 15.6364H21.75ZM19.5 20.75C20.0534 20.75 20.6208 20.5488 21.0534 20.1293C21.4947 19.7013 21.75 19.0909 21.75 18.3636H20.25C20.25 18.7273 20.1303 18.935 20.0091 19.0525C19.8792 19.1785 19.6966 19.25 19.5 19.25V20.75Z" fill="black"/>
</svg>
