<svg width="24" height="24" viewBox="0 0 24 24" fill="none" xmlns="http://www.w3.org/2000/svg">
<path d="M8.65385 14C9.84338 14 10.8077 13.0357 10.8077 11.8462C10.8077 10.6566 9.84338 9.69231 8.65385 9.69231C7.46431 9.69231 6.5 10.6566 6.5 11.8462C6.5 13.0357 7.46431 14 8.65385 14ZM8.65385 14H15.4231M15.4231 14C16.6126 14 17.5769 13.0357 17.5769 11.8462C17.5769 10.6566 16.6126 9.69231 15.4231 9.69231C14.2335 9.69231 13.2692 10.6566 13.2692 11.8462C13.2692 13.0357 14.2335 14 15.4231 14ZM4 4H20V20H4V4Z" stroke="black" stroke-width="1.5"/>
</svg>
