<svg width="24" height="24" viewBox="0 0 24 24" fill="none" xmlns="http://www.w3.org/2000/svg">
<path d="M13.3608 11.1392L17.7305 6.76949M17.7305 6.76949L17.5 4M17.7305 6.76949L20.5 6.99999M14.6564 4.64248C13.8609 4.38251 13.0114 4.24193 12.129 4.24193C7.63949 4.24193 4 7.88142 4 12.371C4 16.8605 7.63949 20.5 12.129 20.5C16.6186 20.5 20.2581 16.8605 20.2581 12.371C20.2581 11.5462 20.1352 10.7501 19.9069 10M13.871 12.371C13.871 13.333 13.0911 14.1129 12.129 14.1129C11.167 14.1129 10.3871 13.333 10.3871 12.371C10.3871 11.4089 11.167 10.629 12.129 10.629C13.0911 10.629 13.871 11.4089 13.871 12.371Z" stroke="black" stroke-width="1.5"/>
</svg>
