<svg width="24" height="25" viewBox="0 0 24 25" fill="none" xmlns="http://www.w3.org/2000/svg">
<path d="M20.9489 14.1505C20.9754 13.8995 20.9914 13.6477 20.9968 13.3956C21.0477 11.028 20.1699 8.64427 18.3633 6.83763C14.8489 3.32325 9.1507 3.32353 5.63598 6.83825C2.12126 10.353 2.12098 16.0512 5.63535 19.5655C9.14973 23.0799 14.8479 23.0796 18.3627 19.5649C18.6386 19.3033 18.9813 18.9121 19.2945 18.5151M11.9999 22.2022V20.2022M11.9999 6.20221V4.20221M2.99994 13.2022H4.99994M8.99993 12.3135L11.8284 15.142L16.2426 10.7277M20.8388 14.97L19.7781 13.9093L21.8994 13.9093L20.8388 14.97Z" stroke="black" stroke-width="1.5"/>
</svg>
