<svg width="24" height="24" viewBox="0 0 24 24" fill="none" xmlns="http://www.w3.org/2000/svg">
<path d="M20.145 13.093C20.1688 12.8699 20.1832 12.646 20.1881 12.422C20.2339 10.3175 19.4443 8.19862 17.8193 6.59273C14.6581 3.46887 9.53269 3.46912 6.37124 6.59328C3.2098 9.71745 3.20955 14.7825 6.37068 17.9063C9.53182 21.0302 14.6573 21.0299 17.8187 17.9058C18.067 17.6732 18.3752 17.3255 18.6569 16.9726M12.0955 20.25V18.4722M12.0955 6.02792V4.25016M4.00016 12.2501H5.79914M9.39707 11.4601L11.9412 13.9743L15.9118 10.0505M20.0459 13.8214L19.0919 12.8786L21 12.8786L20.0459 13.8214Z" stroke="black" stroke-width="1.5"/>
</svg>
