<svg width="48" height="48" viewBox="0 0 48 48" fill="none" xmlns="http://www.w3.org/2000/svg">
<path d="M41.898 26.801C41.9509 26.2991 41.9828 25.7953 41.9937 25.2912C42.0956 20.5561 40.34 15.7885 36.7267 12.1753C29.6979 5.1465 18.3015 5.14706 11.2721 12.1765C4.24264 19.2059 4.24208 30.6023 11.2708 37.6311C18.2996 44.6598 29.696 44.6593 36.7254 37.6298C37.2774 37.1065 37.9627 36.3241 38.5891 35.5303M24 42.9044V38.9044M24 10.9044V6.90442M6 24.9044H10M18 23.1271L23.6568 28.7839L32.4853 19.9554M41.6777 28.4399L39.5563 26.3186L43.799 26.3186L41.6777 28.4399Z" stroke="black" stroke-width="3"/>
</svg>
