<svg width="24" height="24" viewBox="0 0 24 24" fill="none" xmlns="http://www.w3.org/2000/svg">
<path fill-rule="evenodd" clip-rule="evenodd" d="M10.3826 14.0045C10.5334 12.9833 18.4404 7.40973 16.5785 8.33946L11.5552 11.082C8.58323 12.7846 8.79913 12.5133 9.42799 14.5396C9.48726 14.7354 9.73456 15.8202 9.92926 16.0405C10.2786 16.4354 10.3783 14.0326 10.3826 14.0045ZM7.59991 12.9026C7.88412 13.0085 7.82249 12.9726 7.91905 13.2831C8.1322 13.9686 8.35517 14.6007 8.57224 15.281C9.30826 17.5875 9.21758 17.6005 10.2649 16.797C11.9933 15.4709 11.8331 15.3409 12.8251 16.0012L15.6859 17.9684C16.4996 18.5476 16.5424 17.3744 16.6822 16.7459L18.975 6.43484C19.0257 6.23424 18.9958 6.11062 18.9169 6.04104C18.7513 5.89521 18.3697 5.98811 18.0635 6.10581L5.87273 10.5387C2.21972 11.8341 5.26507 12.0347 7.59991 12.9026Z" fill="black"/>
</svg>
