<svg width="24" height="24" viewBox="0 0 24 24" fill="none" xmlns="http://www.w3.org/2000/svg">
<path d="M13 17.3606C13.4207 17.6789 13.9296 17.8554 14.5 17.8554C15.0629 17.8554 15.5824 17.6713 16.0002 17.3606L16 20L14.5 19.3403L13 20L13 17.3606Z" fill="black"/>
<path d="M10 5H20V19.8348M6 8.58907H4V6.79454C4 6.3459 4.27015 5 6 5C7.72985 5 8 6.3459 8 6.79454V19.3563H10M17 15.3856C17 16.7518 15.8807 17.8594 14.5 17.8594C13.1193 17.8594 12 16.7518 12 15.3856C12 14.0194 13.1193 12.9119 14.5 12.9119C15.8807 12.9119 17 14.0194 17 15.3856ZM14.5 17.8554C13.9296 17.8554 13.4207 17.6789 13 17.3606L13 20L14.5 19.3403L16 20L16.0002 17.3606C15.5824 17.6713 15.0629 17.8554 14.5 17.8554Z" stroke="black" stroke-width="1.5"/>
</svg>
