<svg width="24" height="24" viewBox="0 0 24 24" fill="none" xmlns="http://www.w3.org/2000/svg">
<path d="M13.2629 19.4167C13.2629 19.7388 13.007 20 12.6915 20C12.3759 20 12.12 19.7388 12.12 19.4167C12.12 19.0945 12.3759 18.8333 12.6915 18.8333C13.007 18.8333 13.2629 19.0945 13.2629 19.4167Z" fill="black"/>
<path d="M16.6915 13.5833C16.6915 13.9055 16.4356 14.1667 16.12 14.1667C15.8044 14.1667 15.5486 13.9055 15.5486 13.5833C15.5486 13.2612 15.8044 13 16.12 13C16.4356 13 16.6915 13.2612 16.6915 13.5833Z" fill="black"/>
<path d="M20.12 19.4167C20.12 19.7388 19.8642 20 19.5486 20C19.233 20 18.9772 19.7388 18.9772 19.4167C18.9772 19.0945 19.233 18.8333 19.5486 18.8333C19.8642 18.8333 20.12 19.0945 20.12 19.4167Z" fill="black"/>
<path d="M3 20L7.16 15H12.0099M13.0098 18.9139L15.8232 14.0966M19.2303 18.9296L16.3794 14.105M13.2713 19.4276H18.9859M16 7.5C16 5.567 14.3703 4 12.36 4C10.3497 4 8.72 5.567 8.72 7.5C8.72 9.433 10.3497 11 12.36 11C14.3703 11 16 9.433 16 7.5ZM13.2629 19.4167C13.2629 19.7388 13.007 20 12.6915 20C12.3759 20 12.12 19.7388 12.12 19.4167C12.12 19.0945 12.3759 18.8333 12.6915 18.8333C13.007 18.8333 13.2629 19.0945 13.2629 19.4167ZM16.6915 13.5833C16.6915 13.9055 16.4356 14.1667 16.12 14.1667C15.8044 14.1667 15.5486 13.9055 15.5486 13.5833C15.5486 13.2612 15.8044 13 16.12 13C16.4356 13 16.6915 13.2612 16.6915 13.5833ZM20.12 19.4167C20.12 19.7388 19.8642 20 19.5486 20C19.233 20 18.9772 19.7388 18.9772 19.4167C18.9772 19.0945 19.233 18.8333 19.5486 18.8333C19.8642 18.8333 20.12 19.0945 20.12 19.4167Z" stroke="black" stroke-width="1.5"/>
</svg>
