<svg width="24" height="24" viewBox="0 0 24 24" fill="none" xmlns="http://www.w3.org/2000/svg">
<path d="M21 21L16.8281 16.8203M16.793 16.7812L14.3125 14.3125H8.6875L6.24609 16.8086M19 11.5C19 15.6421 15.6421 19 11.5 19C7.35786 19 4 15.6421 4 11.5C4 7.35786 7.35786 4 11.5 4C15.6421 4 19 7.35786 19 11.5ZM13.375 9.625C13.375 10.6605 12.5355 11.5 11.5 11.5C10.4645 11.5 9.625 10.6605 9.625 9.625C9.625 8.58947 10.4645 7.75 11.5 7.75C12.5355 7.75 13.375 8.58947 13.375 9.625Z" stroke="black" stroke-width="1.5"/>
</svg>
