<svg width="24" height="24" viewBox="0 0 24 24" fill="none" xmlns="http://www.w3.org/2000/svg">
<path d="M3.00003 19.75L4.88892 16H11.8889L13.8889 19.75M13.3889 13L14.8889 15L20.064 9.22443C20.5752 8.66964 20.8889 7.91947 20.8889 7.09375C20.8889 5.38512 19.5457 4 17.8889 4C16.5822 4 15.4722 4.85284 15.0608 6.05514H14.7157C14.3018 4.85738 13.1924 4 11.8889 4C10.8454 4 9.92635 4.5494 9.38889 5.38301M10.8889 10.5C10.8889 9.05025 9.78494 8 8.38889 8C6.99284 8 5.88889 9.05025 5.88889 10.5C5.88889 11.9497 6.99284 13 8.38889 13C9.78494 13 10.8889 11.9497 10.8889 10.5Z" stroke="black" stroke-width="1.5"/>
</svg>
