<svg width="24" height="25" viewBox="0 0 24 25" fill="none" xmlns="http://www.w3.org/2000/svg">
<path d="M13.2629 19.9167C13.2629 20.2388 13.007 20.5 12.6915 20.5C12.3759 20.5 12.12 20.2388 12.12 19.9167C12.12 19.5945 12.3759 19.3333 12.6915 19.3333C13.007 19.3333 13.2629 19.5945 13.2629 19.9167Z" fill="black"/>
<path d="M16.6915 14.0833C16.6915 14.4055 16.4356 14.6667 16.12 14.6667C15.8044 14.6667 15.5486 14.4055 15.5486 14.0833C15.5486 13.7612 15.8044 13.5 16.12 13.5C16.4356 13.5 16.6915 13.7612 16.6915 14.0833Z" fill="black"/>
<path d="M20.12 19.9167C20.12 20.2388 19.8642 20.5 19.5486 20.5C19.233 20.5 18.9772 20.2388 18.9772 19.9167C18.9772 19.5945 19.233 19.3333 19.5486 19.3333C19.8642 19.3333 20.12 19.5945 20.12 19.9167Z" fill="black"/>
<path d="M3 20.5L7.16 15.5H12.0099M13.0098 19.4139L15.8232 14.5966M19.2303 19.4296L16.3794 14.605M13.2713 19.9276H18.9859M16 8C16 6.067 14.3703 4.5 12.36 4.5C10.3497 4.5 8.72 6.067 8.72 8C8.72 9.933 10.3497 11.5 12.36 11.5C14.3703 11.5 16 9.933 16 8ZM13.2629 19.9167C13.2629 20.2388 13.007 20.5 12.6915 20.5C12.3759 20.5 12.12 20.2388 12.12 19.9167C12.12 19.5945 12.3759 19.3333 12.6915 19.3333C13.007 19.3333 13.2629 19.5945 13.2629 19.9167ZM16.6915 14.0833C16.6915 14.4055 16.4356 14.6667 16.12 14.6667C15.8044 14.6667 15.5486 14.4055 15.5486 14.0833C15.5486 13.7612 15.8044 13.5 16.12 13.5C16.4356 13.5 16.6915 13.7612 16.6915 14.0833ZM20.12 19.9167C20.12 20.2388 19.8642 20.5 19.5486 20.5C19.233 20.5 18.9772 20.2388 18.9772 19.9167C18.9772 19.5945 19.233 19.3333 19.5486 19.3333C19.8642 19.3333 20.12 19.5945 20.12 19.9167Z" stroke="black" stroke-width="1.5"/>
</svg>
