<svg width="24" height="24" viewBox="0 0 24 24" fill="none" xmlns="http://www.w3.org/2000/svg">
<path d="M12.7588 9.50708V10.5071L13.7588 9.50708L12.7588 8.50708V9.50708ZM12.7588 9.50708H6.93563M7.93562 14.4575V15.4575L6.93562 14.4575L7.93562 13.4575V14.4575ZM7.93562 14.4575C13.3575 14.4575 16.5779 14.4575 21.9998 14.4575M12 4.5C14.7612 4.5 17 6.73857 17 9.5C19.7612 9.5 22 11.7386 22 14.5C22 17.2614 19.7612 19.5 17 19.5H7C4.23877 19.5 2 17.2614 2 14.5C2 11.7386 4.23877 9.5 7 9.5C7 6.73857 9.23877 4.5 12 4.5Z" stroke="black" stroke-width="1.5"/>
</svg>
