<svg width="24" height="24" viewBox="0 0 24 24" fill="none" xmlns="http://www.w3.org/2000/svg">
<path d="M13.3414 16.2992C12.6811 16.2992 12.0207 16.2992 11.3603 16.2992C11.3429 16.2968 11.3246 16.2935 11.3071 16.2919C11.1861 16.279 11.0641 16.2709 10.943 16.254C10.4936 16.1893 10.0699 16.0544 9.66355 15.8742C9.02978 15.5923 8.4703 15.2174 7.95026 14.7948C7.27521 14.2455 6.68363 13.6306 6.14066 12.9794C5.19964 11.8516 4.40903 10.6453 3.72114 9.38499C3.46708 8.91963 3.22862 8.4478 3.02867 7.96224C2.91769 7.69077 3.1424 7.41285 3.46984 7.41204C4.38426 7.41123 5.29777 7.41123 6.2122 7.41204C6.47451 7.41204 6.70289 7.54939 6.80103 7.76349C7.38619 9.03839 8.13186 10.2365 9.03895 11.3563C9.06188 11.3846 9.08572 11.4137 9.11416 11.4379C9.44434 11.7215 9.99465 11.631 10.1873 11.2618C10.2331 11.1745 10.2505 11.0832 10.2496 10.9871C10.2368 10.2672 10.2249 9.54657 10.2111 8.82671C10.2074 8.61261 10.1781 8.40255 10.0845 8.203C9.94237 7.90083 9.69198 7.71501 9.3196 7.66896C9.23797 7.65846 9.15359 7.66088 9.06738 7.65684C9.07197 7.65038 9.07655 7.64391 9.08114 7.63826C9.36455 7.31509 9.73417 7.1123 10.1891 7.03393C10.2881 7.01616 10.389 7.0105 10.489 7C10.5165 7 10.544 7 10.5716 7C10.6137 7.00242 10.6569 7.00808 10.699 7.00808C11.4401 7.00889 12.1821 7.00808 12.9232 7.00889C12.9828 7.00889 13.0424 7.01212 13.1011 7.02101C13.6074 7.10261 13.9468 7.46375 13.9468 7.9178C13.9468 8.84449 13.9459 9.77037 13.9477 10.6971C13.9477 10.7843 13.9541 10.8724 13.966 10.9588C13.9871 11.1018 14.0321 11.2384 14.1311 11.3563C14.2302 11.4751 14.3613 11.5349 14.5292 11.4977C14.6044 11.4807 14.6824 11.4525 14.7438 11.4121C14.8438 11.3474 14.941 11.2747 15.0245 11.1939C15.2721 10.9564 15.4546 10.6785 15.6261 10.3957C16.1663 9.50779 16.7066 8.61989 17.2486 7.73359C17.377 7.52434 17.5825 7.41366 17.853 7.41366C18.8638 7.41123 19.8736 7.41204 20.8843 7.41366C20.9742 7.41366 21.065 7.42254 21.1521 7.4387C21.3475 7.47506 21.5007 7.56231 21.5438 7.74652C21.5612 7.81843 21.5603 7.89679 21.5529 7.97112C21.5355 8.12948 21.4722 8.27652 21.3989 8.42114C21.2127 8.78632 20.9614 9.11757 20.689 9.43589C20.0405 10.1921 19.3893 10.9467 18.74 11.7021C18.4639 12.0229 18.4896 12.4713 18.8042 12.7621C19.4315 13.3422 20.0616 13.9199 20.6908 14.4983C20.8779 14.6704 21.0723 14.836 21.2549 15.0122C21.4144 15.1673 21.5318 15.3467 21.5823 15.5543C21.6483 15.8241 21.5282 16.0544 21.2475 16.1756C21.1503 16.2176 21.0421 16.2426 20.9366 16.2669C20.8559 16.2855 20.7715 16.2895 20.689 16.3C19.7012 16.3 18.7134 16.3 17.7265 16.3C17.7182 16.2976 17.709 16.2943 17.7008 16.2935C17.4825 16.2701 17.2945 16.1909 17.134 16.0592C16.9423 15.9009 16.7506 15.7425 16.5589 15.5834C16.0655 15.1754 15.572 14.7666 15.0777 14.3586C14.9126 14.2228 14.7163 14.1695 14.4943 14.2059C14.1669 14.26 13.9459 14.4991 13.9459 14.7932C13.9459 15.0962 13.9468 15.3992 13.9459 15.7021C13.9449 15.9752 13.7377 16.2119 13.4387 16.2814C13.4075 16.2871 13.3745 16.2927 13.3414 16.2992Z" fill="black"/>
</svg>
