<svg width="24" height="24" viewBox="0 0 24 24" fill="none" xmlns="http://www.w3.org/2000/svg">
<path d="M8.14391 20H6L4 18V17M17 20H18L20 18V15.5M20 8.00003V6.00003L18 4.00003H17M8.14391 4.00003H6L4 6.00003V7.00003M8.56508 9.16348L11.3334 6.27262M8.40157 14.6126L11.0239 17.6364M9.61085 11.7457H16.5143M11.0046 5.77272C11.3063 6.54426 12.1763 6.92516 12.9479 6.62348C13.7194 6.3218 14.1003 5.45178 13.7986 4.68023C13.4969 3.90869 12.6269 3.52779 11.8554 3.82947C11.0838 4.13116 10.7029 5.00118 11.0046 5.77272ZM4.60963 12.4837C4.91131 13.2552 5.78133 13.6361 6.55288 13.3344C7.32442 13.0327 7.70532 12.1627 7.40363 11.3912C7.10195 10.6196 6.23193 10.2387 5.46039 10.5404C4.68884 10.8421 4.30795 11.7121 4.60963 12.4837ZM10.6709 18.1195C11.0103 17.3638 11.898 17.0263 12.6538 17.3656C13.4095 17.705 13.747 18.5927 13.4077 19.3485C13.0683 20.1042 12.1806 20.4417 11.4248 20.1024C10.6691 19.763 10.3316 18.8753 10.6709 18.1195ZM16.6474 11.1624C16.2995 11.9143 16.6269 12.8058 17.3788 13.1537C18.1306 13.5016 19.0221 13.1742 19.37 12.4224C19.718 11.6705 19.3905 10.779 18.6387 10.4311C17.8869 10.0832 16.9953 10.4106 16.6474 11.1624Z" stroke="black" stroke-width="1.5"/>
</svg>
