<svg width="24" height="24" viewBox="0 0 24 24" fill="none" xmlns="http://www.w3.org/2000/svg">
<path d="M8.22206 8.90887L11.26 5.73639M8.04262 14.8888L10.9205 18.2072M9.36972 11.7427H16.9456M10.8993 5.18779C11.2303 6.0345 12.1851 6.4525 13.0318 6.12143C13.8785 5.79036 14.2965 4.83558 13.9654 3.98888C13.6344 3.14218 12.6796 2.72417 11.8329 3.05524C10.9862 3.38632 10.5682 4.34109 10.8993 5.18779ZM3.88129 12.5525C4.21236 13.3992 5.16714 13.8172 6.01384 13.4861C6.86055 13.155 7.27855 12.2003 6.94748 11.3536C6.61641 10.5069 5.66164 10.0889 4.81493 10.4199C3.96823 10.751 3.55022 11.7058 3.88129 12.5525ZM10.5331 18.7374C10.9055 17.908 11.8797 17.5376 12.7091 17.91C13.5384 18.2824 13.9088 19.2567 13.5364 20.086C13.164 20.9154 12.1898 21.2858 11.3604 20.9134C10.5311 20.5409 10.1607 19.5667 10.5331 18.7374ZM17.0918 11.1026C16.71 11.9276 17.0693 12.906 17.8944 13.2878C18.7194 13.6696 19.6978 13.3103 20.0796 12.4852C20.4614 11.6602 20.1021 10.6818 19.277 10.3C18.4519 9.91816 17.4736 10.2775 17.0918 11.1026Z" stroke="black" stroke-width="1.5"/>
</svg>
