<svg width="24" height="24" viewBox="0 0 24 24" fill="none" xmlns="http://www.w3.org/2000/svg">
<path d="M4 4V3.25H3.25V4H4ZM20 4H20.75V3.25H20V4ZM20 20V20.75H20.75V20H20ZM4 20H3.25V20.75H4V20ZM5.34013 8.307C5.23353 7.90673 4.82265 7.66867 4.42238 7.77526C4.02212 7.88185 3.78405 8.29274 3.89064 8.693L5.34013 8.307ZM6.5 15.5769L5.77526 15.7699C5.86272 16.0984 6.16012 16.3269 6.5 16.3269V15.5769ZM7.5 15.5769V16.3269C7.83426 16.3269 8.12818 16.1057 8.2207 15.7845L7.5 15.5769ZM10.2592 8.70759C10.3738 8.30956 10.1441 7.89395 9.74605 7.7793C9.34802 7.66465 8.93241 7.89438 8.81776 8.29241L10.2592 8.70759ZM13 8.5L13.6041 8.05549C13.412 7.79446 13.074 7.68633 12.7661 7.78741C12.4582 7.88849 12.25 8.17592 12.25 8.5H13ZM12.25 15.5769C12.25 15.9911 12.5858 16.3269 13 16.3269C13.4142 16.3269 13.75 15.9911 13.75 15.5769H12.25ZM16 12.5769L15.3959 13.0214C15.5365 13.2125 15.7593 13.3258 15.9966 13.3269C16.2338 13.328 16.4576 13.2167 16.6 13.0269L16 12.5769ZM19 8.57692H19.75C19.75 8.2541 19.5434 7.9675 19.2372 7.86541C18.9309 7.76332 18.5937 7.86866 18.4 8.12692L19 8.57692ZM18.25 15.5769C18.25 15.9911 18.5858 16.3269 19 16.3269C19.4142 16.3269 19.75 15.9911 19.75 15.5769H18.25ZM4 4.75H20V3.25H4V4.75ZM20 19.25H4V20.75H20V19.25ZM4.75 6.46154V4H3.25V6.46154H4.75ZM4.75 20V17.5385H3.25V20H4.75ZM19.25 4V6.46154H20.75V4H19.25ZM19.25 17.5385V20H20.75V17.5385H19.25ZM3.89064 8.693L5.77526 15.7699L7.22474 15.3839L5.34013 8.307L3.89064 8.693ZM6.5 16.3269H7.5V14.8269H6.5V16.3269ZM8.2207 15.7845L10.2592 8.70759L8.81776 8.29241L6.7793 15.3693L8.2207 15.7845ZM12.25 8.5V15.5769H13.75V8.5H12.25ZM12.3959 8.94451L15.3959 13.0214L16.6041 12.1324L13.6041 8.05549L12.3959 8.94451ZM16.6 13.0269L19.6 9.02692L18.4 8.12692L15.4 12.1269L16.6 13.0269ZM18.25 8.57692V15.5769H19.75V8.57692H18.25Z" fill="black"/>
</svg>
