<svg width="24" height="24" viewBox="0 0 24 24" fill="none" xmlns="http://www.w3.org/2000/svg">
<path d="M6.00587 12.4611H17.9941M6.00587 12.4611C6.00587 13.4737 5.18504 14.2945 4.17249 14.2945C3.15994 14.2945 2.33911 13.4737 2.33911 12.4611C2.33911 11.4486 3.15994 10.6278 4.17249 10.6278C5.18504 10.6278 6.00587 11.4486 6.00587 12.4611ZM17.9941 12.4611C17.9941 13.4737 18.815 14.2945 19.8275 14.2945C20.8401 14.2945 21.6609 13.4737 21.6609 12.4611C21.6609 11.4486 20.8401 10.6278 19.8275 10.6278C19.4053 10.6278 19.0164 10.7705 18.7065 11.0103M17.9941 12.4611C17.9941 11.8708 18.2731 11.3457 18.7065 11.0103M12.4227 9.88305V6.04432M12.4227 6.04432C13.4352 6.04432 14.2561 5.22349 14.2561 4.21094C14.2561 3.19839 13.4352 2.37756 12.4227 2.37756C11.4101 2.37756 10.5893 3.19839 10.5893 4.21094C10.5893 5.22349 11.4101 6.04432 12.4227 6.04432ZM12.4227 17.9557V15.0393M12.4227 17.9557C11.4101 17.9557 10.5893 18.7765 10.5893 19.789C10.5893 20.8016 11.4101 21.6224 12.4227 21.6224C13.4352 21.6224 14.2561 20.8016 14.2561 19.789C14.2561 18.7765 13.4352 17.9557 12.4227 17.9557ZM10.9551 18.69L5.71438 13.4534M13.4282 5.74422L18.7065 11.0103" stroke="black" stroke-width="1.5"/>
</svg>
