<svg width="24" height="24" viewBox="0 0 24 24" fill="none" xmlns="http://www.w3.org/2000/svg">
<path d="M15.4857 6.29998C16.3003 7.16017 16.8 8.32172 16.8 9.59998C19.4508 9.59998 21.6 11.749 21.6 14.4C21.6 17.051 19.4508 19.2 16.8 19.2H15.6M8.51439 6.29998C7.69972 7.16017 7.20002 8.32172 7.20002 9.59998C4.54924 9.59998 2.40002 11.749 2.40002 14.4C2.40002 17.051 4.54924 19.2 7.20002 19.2H8.40002M12 16.8C11.0059 16.8 10.2 17.6059 10.2 18.6C10.2 19.5941 11.0059 20.4 12 20.4C12.9941 20.4 13.8 19.5941 13.8 18.6C13.8 17.6059 12.9941 16.8 12 16.8ZM12 16.8V7.19998M12 7.19998C12.9941 7.19998 13.8 6.39409 13.8 5.39998C13.8 4.40586 12.9941 3.59998 12 3.59998C11.0059 3.59998 10.2 4.40586 10.2 5.39998C10.2 6.39409 11.0059 7.19998 12 7.19998Z" stroke="black" stroke-width="1.5"/>
</svg>
