<svg width="24" height="24" viewBox="0 0 24 24" fill="none" xmlns="http://www.w3.org/2000/svg">
<path d="M17.236 19.1317C17.3611 19.1317 17.4852 19.1271 17.608 19.1181M17.516 17.2589L13.8633 14.6442M16.793 9.49609L14.0021 11.4618M14.0021 11.4618L13.1598 10.0809H10.2965M14.0021 11.4618L14.8913 12.9442L13.1598 15.8075H10.2965L8.50691 12.9442L10.2965 10.0809M10.2965 10.0809L8.8406 7.23451M5.73887 17.2589L9.69966 14.8526M8.25531 7.35864C9.08373 7.35864 9.75531 6.68707 9.75531 5.85864C9.75531 5.03022 9.08373 4.35864 8.25531 4.35864C7.42688 4.35864 6.75531 5.03022 6.75531 5.85864C6.75531 6.68707 7.42688 7.35864 8.25531 7.35864ZM18.736 19.6317C19.5645 19.6317 20.236 18.9601 20.236 18.1317C20.236 17.3033 19.5645 16.6317 18.736 16.6317C17.9076 16.6317 17.236 17.3033 17.236 18.1317C17.236 18.9601 17.9076 19.6317 18.736 19.6317ZM4.42929 19.4864C5.25772 19.4864 5.92929 18.8148 5.92929 17.9864C5.92929 17.158 5.25772 16.4864 4.42929 16.4864C3.60086 16.4864 2.92929 17.158 2.92929 17.9864C2.92929 18.8148 3.60086 19.4864 4.42929 19.4864ZM17.9794 10.0808C18.8078 10.0808 19.4794 9.40924 19.4794 8.58081C19.4794 7.75238 18.8078 7.08081 17.9794 7.08081C17.1509 7.08081 16.4794 7.75238 16.4794 8.58081C16.4794 9.40924 17.1509 10.0808 17.9794 10.0808Z" stroke="black" stroke-width="1.5"/>
</svg>
