<svg width="24" height="24" viewBox="0 0 24 24" fill="none" xmlns="http://www.w3.org/2000/svg">
<path d="M20 4.19629V14.8944C20 16.1182 19.3086 17.2369 18.2141 17.7841L11.9999 20.8912L5.78593 17.7841C4.69139 17.2369 4 16.1182 4 14.8944V4.89117H12.4546M14.7621 5.99341L14.7617 4.94848L16.9342 4.94847L16.9346 5.9934L14.7621 5.99341ZM14.7621 5.99341V9.75243L11.7 9.75239C11.0334 9.75239 9.63458 10.0014 9.63458 11.5121C9.63458 13.0227 11.1952 12.9751 11.6952 12.9751H13.6439C15.3502 12.9751 16.009 13.9404 16.009 14.9107C16.009 16.0589 14.6418 16.6865 13.5616 16.6865H8.89667C8.04 16.6865 7.41932 17.5458 7.57658 18.6691" stroke="black" stroke-width="1.5"/>
</svg>
