<svg width="24" height="24" viewBox="0 0 24 24" fill="none" xmlns="http://www.w3.org/2000/svg">
<path d="M12.4652 5.29278L18.7073 11.5348M12.4652 5.29278C12.049 5.70898 11.7155 6.20791 11.4916 6.76278M12.4652 5.29278C13.2639 4.49403 14.3674 4 15.5862 4C18.0239 4 20 5.97612 20 8.41379C20 9.63263 19.506 10.7361 18.7073 11.5348M18.7073 11.5348C18.3708 11.8713 17.9803 12.1536 17.5499 12.3678M13.3795 20L17.5499 12.3678M3.99994 10.6207L11.4916 6.76278M12.2759 11.7241L6.20691 17.7931M11.4916 6.76278C11.2858 7.27279 11.1724 7.83006 11.1724 8.41379C11.1724 10.8515 13.1486 12.8276 15.5862 12.8276C16.2917 12.8276 16.9585 12.6621 17.5499 12.3678" stroke="black" stroke-width="1.5"/>
</svg>
