<svg xmlns="http://www.w3.org/2000/svg" width="20" height="20" fill="none" viewBox="0 0 20 20">
  <path fill="#A0A0A0" d="M17.735 7.154h-.48V4.836c0-.014-.002-.029-.004-.043a.384.384 0 00-.093-.254L13.302.134l-.003-.003a.381.381 0 00-.104-.08.41.41 0 00-.078-.033l-.02-.007a.398.398 0 00-.09-.011H3.53a.785.785 0 00-.785.784v6.37h-.48a1.12 1.12 0 00-1.121 1.12v5.83c0 .619.502 1.121 1.121 1.121h.48v3.99c0 .433.352.785.785.785h12.94a.785.785 0 00.785-.784v-3.99h.48c.62 0 1.121-.503 1.121-1.122v-5.83c0-.619-.502-1.12-1.12-1.12zM3.295 13.63L4.93 8.285h1.586l1.658 5.345h-1.3l-.413-1.372H4.929l-.38 1.373H3.294zm13.176 5.373H3.53v-3.778h12.94v3.778zm-6.252-7.617c-.888-.31-1.467-.801-1.467-1.579 0-.912.761-1.61 2.022-1.61.603 0 1.047.127 1.364.27l-.27.976a2.542 2.542 0 00-1.118-.254c-.523 0-.777.238-.777.515 0 .341.301.492.991.754.944.349 1.389.84 1.389 1.594 0 .896-.69 1.658-2.158 1.658-.61 0-1.213-.159-1.515-.325l.246-1c.325.167.825.333 1.34.333.556 0 .849-.23.849-.579 0-.333-.254-.523-.896-.753zm6.082-.888v.983h-1.919v2.15h-1.213V8.284h3.267v.991h-2.054v1.222h1.92zm.17-3.344H3.53V.784h9.084v4.013c0 .217.176.392.392.392h3.465v1.965z"/>
  <path fill="#A0A0A0" d="M5.953 10.22c-.096-.317-.19-.713-.27-1.03h-.016c-.08.317-.159.721-.246 1.03l-.317 1.135h1.181l-.332-1.134z"/>
</svg>
