<svg xmlns="http://www.w3.org/2000/svg" width="20" height="20" fill="none" viewBox="0 0 20 20">
  <path fill="#A0A0A0" d="M5.412 9.547c0-.453-.346-.693-.96-.693-.293 0-.461.018-.577.036v1.395h.445c.71 0 1.092-.293 1.092-.738zM5.555 12.099c0-.605-.542-.845-1.218-.845h-.462v1.689c.133.018.293.018.524.018.614 0 1.156-.231 1.156-.862zM10.407 10.082c-.107-.356-.213-.8-.302-1.156h-.018c-.089.355-.178.809-.275 1.156l-.356 1.27h1.325l-.374-1.27z"/>
  <path fill="#A0A0A0" d="M17.735 7.154h-.48V4.836c0-.014-.003-.029-.005-.043a.384.384 0 00-.093-.254L13.301.134l-.003-.003a.39.39 0 00-.078-.065c-.008-.006-.017-.01-.026-.015a.408.408 0 00-.077-.033l-.021-.007a.39.39 0 00-.09-.011H3.529a.785.785 0 00-.784.784v6.37h-.48c-.62 0-1.121.501-1.121 1.12v5.83c0 .619.502 1.121 1.12 1.121h.48v3.99c0 .433.352.785.785.785H16.47a.785.785 0 00.785-.784v-3.99h.48c.619 0 1.12-.503 1.12-1.122v-5.83a1.12 1.12 0 00-1.12-1.12zM3.529.784h9.085v4.013c0 .217.175.392.392.392h3.464v1.965H3.53V.784zm7.509 7.128l1.857 5.99h-1.457l-.463-1.537H9.261l-.427 1.538H7.43l1.83-5.99h1.778zm-8.505 5.964V7.992c.356-.07 1.075-.124 1.75-.124.827 0 1.334.08 1.77.338.417.222.72.63.72 1.173 0 .533-.312 1.03-.987 1.28v.017c.684.187 1.19.702 1.19 1.476 0 .542-.249.968-.621 1.27-.436.347-1.165.543-2.356.543-.666 0-1.164-.044-1.466-.089zm13.937 5.127H3.53v-3.778H16.47v3.778zm.638-9.953h-1.635v4.853h-1.36V9.05h-1.608V7.912h4.603V9.05z"/>
</svg>
