<svg xmlns="http://www.w3.org/2000/svg" width="20" height="20" fill="none" viewBox="0 0 20 20">
  <path fill="#A0A0A0" d="M17.735 7.154h-.48V4.837c0-.015-.002-.03-.004-.044a.386.386 0 00-.093-.254L13.302.134l-.003-.003a.39.39 0 00-.182-.113l-.02-.007a.393.393 0 00-.09-.011H3.53a.785.785 0 00-.785.784v6.37h-.48c-.619 0-1.121.501-1.121 1.12v5.83c0 .619.502 1.121 1.121 1.121h.48v3.99c0 .433.352.785.785.785h12.94a.785.785 0 00.785-.784v-3.99h.48c.62 0 1.121-.503 1.121-1.122v-5.83a1.12 1.12 0 00-1.12-1.12zM3.53.784h9.084v4.013c0 .217.176.392.392.392h3.465v1.965H3.53V.784zm7.655 9.828v1.014H9.206v2.216h-1.25v-5.51h3.368v1.022H9.206v1.258h1.98zm-8.35.556c0-1.88 1.342-2.927 3.01-2.927.646 0 1.137.13 1.358.245l-.254.99a2.676 2.676 0 00-1.047-.205c-.99 0-1.758.597-1.758 1.824 0 1.104.654 1.799 1.767 1.799.376 0 .793-.082 1.038-.18l.188.973c-.229.115-.744.237-1.415.237-1.905 0-2.886-1.186-2.886-2.756zm13.636 7.835H3.53v-3.778h12.94v3.778zm.398-5.414c-.384.13-1.113.31-1.84.31-1.006 0-1.734-.253-2.241-.744-.507-.474-.785-1.194-.776-2.003.008-1.832 1.34-2.879 3.148-2.879.71 0 1.259.14 1.529.27l-.262.998c-.302-.131-.679-.238-1.284-.238-1.038 0-1.823.59-1.823 1.783 0 1.137.712 1.807 1.734 1.807.286 0 .514-.032.612-.081v-1.154h-.85v-.972h2.053v2.903z"/>
</svg>
