<svg xmlns="http://www.w3.org/2000/svg" width="20" height="20" fill="none" viewBox="0 0 20 20">
  <path fill="#A0A0A0" d="M17.735 7.154h-.48V4.837c0-.015-.002-.03-.004-.044a.386.386 0 00-.093-.254L13.3.134 13.3.131a.39.39 0 00-.182-.113l-.02-.007a.393.393 0 00-.09-.011H3.53a.785.785 0 00-.785.784v6.37h-.48c-.619 0-1.121.501-1.121 1.12v5.83c0 .619.502 1.121 1.121 1.121h.48v3.99c0 .433.352.785.785.785h12.94a.785.785 0 00.785-.784v-3.99h.48c.62 0 1.121-.503 1.121-1.122v-5.83c0-.619-.502-1.12-1.12-1.12zM3.53.784h9.084v4.013c0 .217.176.392.392.392h3.465v1.965H3.53V.784zm8.072 11.447c.172.622.344 1.341.45 1.554h-1.275c-.09-.156-.221-.605-.385-1.284-.147-.687-.384-.875-.89-.883h-.377v2.167H7.89V8.348c.4-.066.998-.115 1.66-.115.818 0 1.39.122 1.783.433.327.262.506.646.506 1.153 0 .704-.498 1.186-.973 1.358v.024c.385.155.598.524.736 1.03zm-8.831-1.12c0-1.88 1.34-2.927 3.009-2.927.646 0 1.137.13 1.357.245l-.253.99a2.688 2.688 0 00-1.047-.205c-.989 0-1.758.597-1.758 1.824 0 1.104.655 1.798 1.767 1.798.376 0 .793-.081 1.038-.18l.188.974c-.229.115-.744.237-1.414.237-1.906 0-2.887-1.186-2.887-2.756zm13.7 7.892H3.53v-3.778h12.94v3.778zm-.763-5.218l-.499-.998c-.204-.384-.335-.67-.49-.989h-.017c-.114.319-.253.605-.425.99l-.458.997h-1.423l1.595-2.788-1.537-2.723h1.43l.483 1.005c.164.336.286.605.417.916h.016a16.5 16.5 0 01.376-.916l.466-1.005h1.423l-1.553 2.69 1.635 2.82h-1.44z"/>
  <path fill="#A0A0A0" d="M9.69 9.157c-.303 0-.475.025-.565.041v1.52h.49c.622 0 .99-.31.99-.792 0-.507-.344-.76-.916-.769z"/>
</svg>
