<svg xmlns="http://www.w3.org/2000/svg" width="20" height="20" fill="none" viewBox="0 0 20 20">
  <path fill="#A0A0A0" d="M17.735 7.154h-.48V4.836c0-.014-.002-.029-.004-.043a.385.385 0 00-.093-.254L13.302.134l-.003-.003a.379.379 0 00-.104-.08.403.403 0 00-.078-.033l-.02-.007a.392.392 0 00-.09-.011H3.53a.785.785 0 00-.785.784v6.37h-.48a1.12 1.12 0 00-1.121 1.12v5.83c0 .619.502 1.121 1.121 1.121h.48v3.99c0 .433.352.785.785.785h12.94a.785.785 0 00.785-.784v-3.99h.48c.62 0 1.121-.503 1.121-1.122v-5.83a1.12 1.12 0 00-1.12-1.12zM3.53.784h9.084v4.013c0 .217.176.392.392.392h3.465v1.965H3.53V.784zm9.772 12.905H12.17l-.076-1.958a57.48 57.48 0 01-.046-2.103h-.023c-.16.652-.372 1.382-.57 1.98l-.621 1.997H9.93l-.546-1.98c-.168-.6-.342-1.329-.464-1.997h-.015c-.03.691-.053 1.48-.09 2.117l-.092 1.944h-1.07l.326-5.116h1.541l.501 1.707c.16.592.319 1.23.433 1.83h.023c.144-.592.318-1.268.485-1.837l.547-1.7h1.51l.282 5.116zm-10.819-.023V8.641c.426-.068.98-.106 1.564-.106.972 0 1.602.175 2.096.546.53.395.865 1.025.865 1.929 0 .979-.357 1.654-.85 2.072-.54.447-1.36.66-2.361.66-.6 0-1.025-.038-1.314-.076zm13.988 5.337H3.53v-3.778h12.94v3.778zm.923-7.66c-.395.373-.98.54-1.662.54-.152 0-.289-.008-.395-.024v1.83H14.19V8.641c.356-.06.857-.106 1.563-.106.714 0 1.222.136 1.564.41.326.258.547.683.547 1.184 0 .501-.167.926-.471 1.214z"/>
  <path fill="#A0A0A0" d="M15.816 9.408c-.236 0-.395.022-.479.045v1.511c.099.023.22.03.387.03.615 0 .995-.31.995-.835 0-.47-.327-.751-.904-.751zM5.778 11.048c.008-1.063-.615-1.625-1.61-1.625-.258 0-.425.023-.523.046v3.347c.098.023.258.023.402.023 1.048.008 1.73-.57 1.73-1.791z"/>
</svg>
