<svg xmlns="http://www.w3.org/2000/svg" width="20" height="20" fill="none" viewBox="0 0 20 20">
  <path fill="#A0A0A0" d="M17.735 7.154h-.48V4.836c0-.014-.003-.029-.005-.043a.385.385 0 00-.093-.254L13.301.134l-.003-.003a.39.39 0 00-.078-.065c-.008-.006-.017-.01-.026-.015a.41.41 0 00-.077-.033l-.021-.007a.393.393 0 00-.09-.011H3.529a.785.785 0 00-.784.784v6.37h-.48c-.62 0-1.121.501-1.121 1.12v5.83c0 .619.502 1.121 1.12 1.121h.48v3.99c0 .433.352.785.785.785H16.47a.785.785 0 00.785-.784v-3.99h.48c.619 0 1.12-.503 1.12-1.122v-5.83a1.12 1.12 0 00-1.12-1.12zM3.529.784h9.085v4.013c0 .217.175.392.392.392h3.464v1.965H3.53V.784zm9.09 9.298c0 .587-.196 1.084-.552 1.422-.462.436-1.146.631-1.947.631a3.43 3.43 0 01-.461-.026v2.142H8.316V8.34c.418-.072 1.005-.125 1.831-.125.836 0 1.432.16 1.831.48.383.302.64.8.64 1.386zm-5.484.533v1.103H4.931v1.422h2.462v1.11H3.57V8.26h3.697v1.111H4.931v1.244h2.204zm9.335 8.388H3.53v-3.778h12.94v3.778zm-1.524-4.664c-.684 0-1.36-.177-1.697-.364l.276-1.12a3.46 3.46 0 001.502.373c.622 0 .95-.257.95-.648 0-.374-.284-.587-1.003-.845-.996-.347-1.645-.897-1.645-1.769 0-1.022.853-1.804 2.266-1.804.676 0 1.174.142 1.53.302l-.303 1.093a2.853 2.853 0 00-1.253-.284c-.587 0-.872.267-.872.578 0 .382.338.55 1.112.844 1.057.391 1.555.942 1.555 1.787 0 1.004-.774 1.857-2.418 1.857z"/>
  <path fill="#A0A0A0" d="M10.219 9.238a2.33 2.33 0 00-.56.053v1.769c.115.026.258.035.453.035.72 0 1.165-.364 1.165-.978 0-.55-.383-.88-1.058-.88z"/>
</svg>
