<svg xmlns="http://www.w3.org/2000/svg" width="20" height="20" fill="none" viewBox="0 0 20 20">
  <path fill="#A0A0A0" d="M9.492 10.44c-.09-.297-.178-.668-.253-.965h-.015c-.074.297-.148.675-.23.965l-.296 1.06h1.105l-.311-1.06z"/>
  <path fill="#A0A0A0" d="M17.735 7.154h-.48V4.836c0-.014-.003-.029-.005-.043a.384.384 0 00-.093-.254L13.301.134l-.003-.003a.39.39 0 00-.078-.065c-.008-.006-.017-.01-.026-.015a.408.408 0 00-.077-.033l-.021-.007a.39.39 0 00-.09-.011H3.529a.785.785 0 00-.784.784v6.37h-.48c-.62 0-1.121.501-1.121 1.12v5.83c0 .619.502 1.121 1.12 1.121h.48v3.99c0 .433.352.785.785.785H16.47a.785.785 0 00.785-.784v-3.99h.48c.619 0 1.12-.503 1.12-1.122v-5.83a1.12 1.12 0 00-1.12-1.12zM3.529.784h9.085v4.013c0 .217.175.392.392.392h3.464v1.965H3.53V.784zm8.04 12.846h-1.216l-.386-1.284H8.535L8.18 13.63H7.007l1.528-5h1.484l1.55 5zm-8.781-.623c-.46-.43-.713-1.083-.705-1.817.007-1.662 1.216-2.612 2.855-2.612.646 0 1.143.127 1.388.245l-.237.905c-.275-.119-.616-.215-1.165-.215-.942 0-1.654.534-1.654 1.617 0 1.031.645 1.64 1.572 1.64.26 0 .467-.03.557-.075V11.65h-.772v-.882h1.862V13.4a5.591 5.591 0 01-1.67.282c-.911 0-1.572-.23-2.031-.675zm13.682 5.996H3.53v-3.778H16.47v3.778zm.068-5.373l-.074-1.914c-.022-.6-.044-1.328-.044-2.055h-.023a27.18 27.18 0 01-.556 1.936l-.608 1.951h-.883l-.534-1.936a23.163 23.163 0 01-.453-1.95h-.014c-.03.674-.053 1.446-.09 2.069l-.088 1.899h-1.046l.318-5h1.506l.49 1.67c.156.578.311 1.201.423 1.787h.022c.141-.579.311-1.239.475-1.795l.534-1.662h1.475l.275 5h-1.105z"/>
</svg>
