<svg xmlns="http://www.w3.org/2000/svg" width="20" height="20" fill="none" viewBox="0 0 20 20">
  <path fill="#A0A0A0" d="M17.735 7.154h-.48V4.836c0-.014-.003-.029-.005-.043a.384.384 0 00-.093-.254L13.301.134l-.003-.003a.384.384 0 00-.104-.08.41.41 0 00-.077-.033l-.021-.007a.393.393 0 00-.09-.011H3.529a.785.785 0 00-.784.784v6.37h-.48c-.62 0-1.121.501-1.121 1.12v5.83c0 .619.502 1.121 1.12 1.121h.48v3.99c0 .433.352.785.785.785H16.47a.785.785 0 00.785-.784v-3.99h.48c.619 0 1.12-.503 1.12-1.122V8.275a1.12 1.12 0 00-1.12-1.121zM3.529.784h9.085v4.013c0 .217.175.392.392.392h3.464v1.965H3.53V.784zm8.222 9.733v.978H9.795v1.262h2.184v.986H8.59V8.428h3.28v.985H9.795v1.104h1.956zm-8.786.631C2.973 9.382 4.258 8.372 6 8.372c.685 0 1.214.135 1.474.26l-.252.963c-.292-.127-.655-.229-1.238-.229-1.002 0-1.759.568-1.759 1.719 0 1.096.686 1.743 1.672 1.743.276 0 .497-.031.591-.079v-1.111h-.82v-.94h1.98v2.8a5.96 5.96 0 01-1.775.3c-.97 0-1.671-.244-2.16-.718-.489-.457-.757-1.151-.75-1.932zm13.505 7.855H3.53v-3.778H16.47v3.778zm.147-5.891c-.56.465-1.412.686-2.453.686-.623 0-1.064-.04-1.364-.079v-5.22c.442-.071 1.017-.11 1.624-.11 1.01 0 1.664.18 2.177.567.552.41.899 1.065.899 2.003 0 1.018-.37 1.72-.883 2.153z"/>
  <path fill="#A0A0A0" d="M14.551 9.31c-.268 0-.441.024-.544.048v3.478c.103.023.268.023.418.023 1.088.008 1.798-.591 1.798-1.86.008-1.105-.64-1.689-1.672-1.689z"/>
</svg>
