<svg xmlns="http://www.w3.org/2000/svg" width="20" height="20" fill="none" viewBox="0 0 20 20">
  <path fill="#A0A0A0" d="M17.735 7.154h-.48V4.836c0-.014-.003-.029-.005-.043a.385.385 0 00-.093-.254L13.301.134l-.003-.003a.38.38 0 00-.078-.065c-.008-.006-.017-.01-.026-.015a.408.408 0 00-.077-.033l-.021-.007a.39.39 0 00-.09-.011H3.529a.785.785 0 00-.784.784v6.37h-.48c-.62 0-1.121.501-1.121 1.12v5.83c0 .62.502 1.121 1.12 1.121h.48v3.99c0 .433.352.785.785.785H16.47a.785.785 0 00.785-.784v-3.99h.48c.619 0 1.12-.503 1.12-1.122V8.275c0-.62-.501-1.121-1.12-1.121zm-1.265 11.85H3.53v-3.779H16.47v3.778zM4.296 14.087V8.02h1.377v6.067H4.296zm5.671-1.044c.414 0 .873-.09 1.143-.199l.207 1.072c-.252.126-.819.26-1.557.26-2.097 0-3.177-1.304-3.177-3.033 0-2.07 1.476-3.223 3.312-3.223.712 0 1.252.144 1.495.27l-.28 1.09a2.958 2.958 0 00-1.152-.225c-1.089 0-1.935.657-1.935 2.007 0 1.215.72 1.98 1.944 1.98zm3.764-1.504c-1.009-.35-1.666-.909-1.666-1.79 0-1.036.864-1.828 2.296-1.828.684 0 1.188.144 1.548.306l-.306 1.107a2.884 2.884 0 00-1.27-.288c-.594 0-.882.27-.882.585 0 .387.342.558 1.125.855 1.072.396 1.576.954 1.576 1.81 0 1.016-.784 1.88-2.449 1.88-.693 0-1.377-.18-1.72-.368l.28-1.134a3.5 3.5 0 001.521.378c.63 0 .963-.262.963-.658.001-.378-.287-.593-1.016-.855zm2.74-4.386H3.528V.784h9.085v4.013c0 .217.175.392.392.392h3.464v1.965z"/>
</svg>
