<svg xmlns="http://www.w3.org/2000/svg" width="20" height="20" fill="none" viewBox="0 0 20 20">
  <path fill="#A0A0A0" d="M17.735 7.154h-.48V4.837c0-.015-.002-.03-.004-.044a.385.385 0 00-.093-.254L13.302.134l-.003-.003a.384.384 0 00-.104-.08.41.41 0 00-.078-.033l-.02-.007a.397.397 0 00-.09-.011H3.53a.785.785 0 00-.785.784v6.37h-.48c-.619 0-1.121.501-1.121 1.12v5.83c0 .619.502 1.121 1.121 1.121h.48v3.99c0 .433.352.785.785.785h12.94a.785.785 0 00.785-.784v-3.99h.48c.62 0 1.121-.503 1.121-1.122v-5.83c0-.618-.502-1.12-1.12-1.12zM3.53.784h9.084v4.013c0 .217.176.392.392.392h3.465v1.965H3.53V.784zm7.97 9.898v1.173H9.212v2.562H7.766V8.044h3.895v1.182H9.212v1.456H11.5zM6.518 8.044v6.373H5.071V8.044h1.447zm9.953 10.96H3.53v-3.779h12.94v3.778zm.172-9.778h-2.449v1.456h2.288v1.173h-2.288v2.562h-1.447V8.044h3.896v1.182z"/>
</svg>
