<svg xmlns="http://www.w3.org/2000/svg" width="20" height="20" fill="none" viewBox="0 0 20 20">
  <path fill="#A0A0A0" d="M17.735 7.154h-.48V4.837c0-.015-.003-.03-.005-.044a.386.386 0 00-.093-.254L13.301.134l-.003-.003a.384.384 0 00-.104-.08.414.414 0 00-.077-.033l-.021-.007a.39.39 0 00-.09-.011H3.529a.785.785 0 00-.784.784v6.37h-.48a1.12 1.12 0 00-1.121 1.12v5.83c0 .619.502 1.121 1.12 1.121h.48v3.99c0 .433.352.785.785.785H16.47a.785.785 0 00.785-.784v-3.99h.48c.619 0 1.12-.503 1.12-1.122V8.275a1.12 1.12 0 00-1.12-1.121zM3.529.784h9.085v4.013c0 .217.175.392.392.392h3.464v1.965H3.53V.784zm5.07 11.514v1.663H7.452V8.44H8.91l1.147 2.024c.328.581.655 1.269.902 1.892h.024a20.484 20.484 0 01-.107-2.302V8.44h1.147v5.521h-1.31l-1.18-2.13a20.507 20.507 0 01-.959-1.95l-.024.01c.033.728.049 1.507.049 2.408zm-5.333 1.664V8.44H4.52v4.473h2.195v1.049H3.266zm13.204 5.041H3.53v-3.778H16.47v3.778zm-.302-5.041l-1.352-2.384-.475.582v1.801h-1.237V8.44h1.237v2.441h.025c.122-.213.254-.41.377-.606l1.253-1.835h1.532L15.7 10.791l1.925 3.17h-1.458z"/>
</svg>
