<svg xmlns="http://www.w3.org/2000/svg" width="20" height="20" fill="none" viewBox="0 0 20 20">
  <path fill="#A0A0A0" d="M17.735 7.154h-.48V4.836c0-.014-.003-.029-.005-.043a.385.385 0 00-.093-.254L13.301.134l-.003-.003a.38.38 0 00-.078-.065c-.008-.006-.017-.01-.026-.015a.408.408 0 00-.077-.033l-.021-.007a.39.39 0 00-.09-.011H3.529a.785.785 0 00-.784.784v6.37h-.48c-.62 0-1.121.501-1.121 1.12v5.83c0 .62.502 1.121 1.12 1.121h.48v3.99c0 .433.352.785.785.785H16.47a.785.785 0 00.785-.784v-3.99h.48c.619 0 1.12-.503 1.12-1.122V8.275c0-.62-.501-1.121-1.12-1.121zM3.529.784h9.085v4.013c0 .217.175.392.392.392h3.464v1.965H3.53V.784zm8.064 10.284c0 1.743-1.057 2.8-2.61 2.8-1.578 0-2.5-1.191-2.5-2.705 0-1.594 1.017-2.784 2.586-2.784 1.633 0 2.524 1.222 2.524 2.69zm-8.597 2.713V8.466h1.207v4.306h2.113v1.008h-3.32zm13.474 5.222H3.53v-3.778H16.47v3.778zm.352-5.467c-.37.126-1.073.3-1.774.3-.97 0-1.672-.245-2.161-.718-.489-.457-.757-1.151-.75-1.932.009-1.766 1.294-2.776 3.037-2.776.686 0 1.214.135 1.475.26l-.253.963c-.291-.127-.654-.23-1.238-.23-1.001 0-1.758.569-1.758 1.72 0 1.096.686 1.743 1.671 1.743.276 0 .497-.031.592-.079v-1.112h-.82v-.938h1.979v2.8z"/>
  <path fill="#A0A0A0" d="M7.752 11.139c0 1.04.49 1.774 1.294 1.774.812 0 1.277-.773 1.277-1.806 0-.954-.457-1.775-1.285-1.775-.812 0-1.286.773-1.286 1.806z"/>
</svg>
