<svg xmlns="http://www.w3.org/2000/svg" width="20" height="20" fill="none" viewBox="0 0 20 20">
  <path fill="#A0A0A0" d="M17.735 7.154h-.48V4.836c0-.014-.002-.029-.004-.043a.384.384 0 00-.093-.254L13.302.134l-.003-.003a.381.381 0 00-.104-.08.41.41 0 00-.078-.033l-.02-.007a.398.398 0 00-.09-.011H3.53a.785.785 0 00-.785.784v6.37h-.48a1.12 1.12 0 00-1.121 1.12v5.83c0 .619.502 1.121 1.121 1.121h.48v3.99c0 .433.352.785.785.785h12.94a.785.785 0 00.785-.784v-3.99h.48c.62 0 1.121-.503 1.121-1.122v-5.83c0-.619-.502-1.12-1.12-1.12zM3.53.784h9.084v4.013c0 .217.176.392.392.392h3.465v1.965H3.53V.784zm6.527 10.737h-.473v-.832h.45c.39-.007.886-.152.886-.572 0-.298-.244-.52-.733-.52-.404 0-.832.176-1.038.298l-.236-.839c.297-.191.893-.374 1.534-.374 1.06 0 1.649.557 1.649 1.236 0 .527-.298.94-.909 1.153v.015c.596.107 1.076.557 1.076 1.206 0 .878-.77 1.52-2.03 1.52-.641 0-1.183-.168-1.473-.352l.237-.87c.206.107.679.305 1.152.305.603 0 .909-.29.909-.664 0-.488-.489-.71-1-.71zM3.48 13.727H2.402l.329-5.144h1.55l.503 1.717c.16.595.32 1.237.435 1.84h.023c.145-.596.32-1.275.489-1.847l.549-1.71h1.519l.282 5.144H6.944l-.076-1.969a57.715 57.715 0 01-.046-2.115h-.023c-.16.657-.374 1.39-.572 1.992L5.6 13.643h-.909l-.55-1.992a23.561 23.561 0 01-.465-2.008h-.015c-.03.695-.054 1.49-.092 2.13l-.091 1.954zm12.992 5.276H3.53v-3.778h12.94v3.778zm.937-7.536c0 1.588-.802 2.344-2.145 2.344-1.298 0-2.061-.718-2.061-2.359v-2.87h1.168v2.962c0 .886.335 1.336.93 1.336.611 0 .947-.427.947-1.336V8.583h1.16v2.884z"/>
</svg>
