<svg xmlns="http://www.w3.org/2000/svg" width="20" height="20" fill="none" viewBox="0 0 20 20">
  <path fill="#A0A0A0" d="M17.735 7.154h-.48V4.837c0-.015-.003-.03-.005-.044a.384.384 0 00-.093-.254L13.301.134l-.003-.003a.383.383 0 00-.104-.08.408.408 0 00-.077-.033l-.021-.007a.394.394 0 00-.09-.011H3.529a.785.785 0 00-.784.784v6.37h-.48c-.62 0-1.121.501-1.121 1.12v5.83c0 .619.502 1.121 1.12 1.121h.48v3.99c0 .433.352.785.785.785H16.47a.785.785 0 00.785-.784v-3.99h.48c.619 0 1.12-.503 1.12-1.122v-5.83c0-.618-.501-1.12-1.12-1.12zM3.529.784h9.085v4.013c0 .217.175.392.392.392h3.464v1.965H3.53V.784zm5.42 11.623v-.754l1.874-3.017h1.417v2.903h.594v.869h-.594v1.18h-1.097v-1.18H8.949zm-6.232 1.181l.328-5.135H4.59l.503 1.714c.16.595.32 1.235.435 1.836h.022c.145-.594.32-1.272.488-1.843l.549-1.707h1.516l.282 5.135H7.25l-.076-1.965a57.487 57.487 0 01-.045-2.11h-.023c-.16.654-.374 1.386-.572 1.988l-.625 2.004h-.906l-.549-1.99a23.391 23.391 0 01-.464-2.003h-.016c-.03.694-.053 1.486-.091 2.126l-.092 1.95H2.717zm13.753 5.415H3.53v-3.778H16.47v3.778zm-.398-5.415h-1.356L13.07 8.453h1.272l.625 2.171c.175.61.335 1.197.457 1.836h.023c.13-.616.29-1.226.465-1.813l.655-2.194H17.8l-1.73 5.135z"/>
  <path fill="#A0A0A0" d="M11.143 10.441c0-.297.015-.602.038-.921h-.03c-.16.32-.29.609-.457.921l-.663 1.082v.016h1.112V10.44z"/>
</svg>
