<svg xmlns="http://www.w3.org/2000/svg" width="20" height="20" fill="none" viewBox="0 0 20 20">
  <path fill="#A0A0A0" d="M11.038 10.418c-.088-.295-.177-.665-.25-.96h-.016c-.074.295-.148.672-.229.96l-.295 1.057h1.1l-.31-1.057z"/>
  <path fill="#A0A0A0" d="M17.735 7.154h-.48V4.836c0-.014-.002-.029-.004-.043a.384.384 0 00-.093-.254L13.302.134l-.003-.003a.381.381 0 00-.104-.08.41.41 0 00-.078-.033l-.02-.007a.398.398 0 00-.09-.011H3.53a.785.785 0 00-.785.784v6.37h-.48a1.12 1.12 0 00-1.121 1.12v5.83c0 .619.502 1.121 1.121 1.121h.48v3.99c0 .433.352.785.785.785h12.94a.785.785 0 00.785-.784v-3.99h.48c.62 0 1.121-.503 1.121-1.122v-5.83c0-.619-.502-1.12-1.12-1.12zM3.53.784h9.084v4.013c0 .217.176.392.392.392h3.465v1.965H3.53V.784zm9.576 12.81h-1.211l-.384-1.278h-1.426l-.354 1.278H8.563l1.522-4.978h1.478l1.543 4.978zm-10.518 0l.318-4.978h1.5l.487 1.662c.155.576.31 1.197.42 1.78h.023c.14-.576.31-1.234.473-1.787l.531-1.655h1.47l.273 4.979h-1.1l-.074-1.906a55.832 55.832 0 01-.045-2.046h-.022a27.169 27.169 0 01-.553 1.927l-.606 1.943h-.88l-.53-1.928a22.877 22.877 0 01-.452-1.942h-.014c-.03.672-.052 1.44-.089 2.06l-.088 1.892H2.588zm13.883 5.41H3.53v-3.779h12.94v3.778zm-.255-5.41l-.451-.901c-.184-.347-.303-.606-.443-.894h-.015c-.103.288-.229.547-.384.894l-.414.901h-1.285l1.44-2.519-1.388-2.46h1.292l.437.91c.147.302.258.545.376.826h.015c.118-.317.214-.539.34-.827l.42-.908h1.286l-1.404 2.43 1.478 2.548h-1.3z"/>
</svg>
