<svg xmlns="http://www.w3.org/2000/svg" width="20" height="20" fill="none" viewBox="0 0 20 20">
  <path fill="#A0A0A0" d="M11.067 9.425c-.237 0-.397.023-.481.046v1.519c.1.023.222.03.39.03.617 0 1-.312 1-.84 0-.472-.33-.755-.91-.755zM15.334 9.457h-.015c-.077.305-.153.694-.237.992l-.306 1.091h1.138l-.32-1.091c-.093-.306-.184-.687-.26-.992z"/>
  <path fill="#A0A0A0" d="M17.735 7.154h-.48V4.836c0-.014-.002-.029-.004-.043a.384.384 0 00-.093-.254L13.302.134l-.003-.003a.381.381 0 00-.104-.08.41.41 0 00-.078-.033l-.02-.007a.398.398 0 00-.09-.011H3.53a.785.785 0 00-.785.784v6.37h-.48a1.12 1.12 0 00-1.121 1.12v5.83c0 .619.502 1.121 1.121 1.121h.48v3.99c0 .433.352.785.785.785h12.94a.785.785 0 00.785-.784v-3.99h.48c.62 0 1.121-.503 1.121-1.122v-5.83c0-.619-.502-1.12-1.12-1.12zM3.53.784h9.084v4.013c0 .217.176.392.392.392h3.465v1.965H3.53V.784zm9.598 9.367c0 .504-.168.93-.473 1.221-.397.374-.985.542-1.672.542-.152 0-.29-.007-.397-.022v1.839H9.433V8.655c.36-.061.863-.107 1.573-.107.718 0 1.23.137 1.573.412.328.26.549.687.549 1.19zM2.862 13.73l.329-5.145H4.74l.503 1.717c.16.596.321 1.237.436 1.84h.023c.145-.595.32-1.275.488-1.847l.55-1.71h1.519l.282 5.144H7.404l-.077-1.969a58.785 58.785 0 01-.045-2.114h-.023c-.16.656-.374 1.389-.573 1.992l-.625 2.008h-.909l-.55-1.993a23.372 23.372 0 01-.465-2.007h-.015c-.03.695-.053 1.489-.092 2.13L3.94 13.73H2.862zm13.609 5.272H3.53v-3.778h12.94v3.778zm.007-5.273l-.396-1.32h-1.474l-.366 1.32h-1.206l1.573-5.144h1.526l1.596 5.144h-1.253z"/>
</svg>
