<svg xmlns="http://www.w3.org/2000/svg" width="20" height="20" fill="none" viewBox="0 0 20 20">
  <path fill="#A0A0A0" d="M17.735 7.154h-.48V4.836c0-.014-.003-.029-.005-.043a.385.385 0 00-.093-.254L13.301.134l-.003-.003a.379.379 0 00-.104-.08.403.403 0 00-.077-.033l-.021-.007a.391.391 0 00-.09-.011H3.529a.785.785 0 00-.784.784v6.37h-.48c-.62 0-1.121.501-1.121 1.12v5.83c0 .62.502 1.121 1.12 1.121h.48v3.99c0 .433.352.785.785.785H16.47a.785.785 0 00.785-.784v-3.99h.48c.619 0 1.12-.503 1.12-1.122v-5.83c0-.619-.501-1.12-1.12-1.12zM3.529.784h9.085v4.013c0 .217.175.392.392.392h3.464v1.965H3.53V.784zm6.552 10.672c-.817-.285-1.35-.738-1.35-1.453 0-.84.7-1.482 1.861-1.482.555 0 .964.117 1.255.248l-.248.898a2.337 2.337 0 00-1.029-.233c-.482 0-.715.219-.715.474 0 .314.277.452.912.694.869.32 1.278.773 1.278 1.467 0 .824-.635 1.525-1.986 1.525-.562 0-1.116-.146-1.394-.3l.226-.919c.3.153.76.306 1.234.306.51 0 .78-.21.78-.532.001-.306-.232-.482-.824-.693zM2.57 13.52l.314-4.92h1.481l.482 1.643c.153.569.307 1.182.416 1.759h.022c.139-.57.306-1.22.467-1.767l.526-1.634H7.73L8 13.52H6.912l-.072-1.883a55.955 55.955 0 01-.044-2.022h-.022a26.57 26.57 0 01-.548 1.905l-.598 1.92H4.76l-.525-1.906a22.556 22.556 0 01-.445-1.92h-.015c-.03.665-.051 1.424-.088 2.037L3.6 13.521h-1.03zm13.9 5.482H3.53v-3.778H16.47v3.778zm.436-5.708a5.501 5.501 0 01-1.642.277c-.897 0-1.547-.226-2-.664-.452-.423-.7-1.066-.693-1.789.007-1.635 1.197-2.569 2.81-2.569.635 0 1.124.124 1.365.241l-.234.89c-.27-.116-.605-.21-1.145-.21-.927 0-1.628.525-1.628 1.59 0 1.014.635 1.613 1.547 1.613.256 0 .46-.029.548-.072v-1.03h-.76v-.868h1.833v2.59z"/>
</svg>
