<svg xmlns="http://www.w3.org/2000/svg" width="20" height="20" fill="none" viewBox="0 0 20 20">
  <path fill="#A0A0A0" d="M17.735 7.154h-.48V4.836c0-.014-.003-.029-.005-.043a.385.385 0 00-.093-.254L13.301.134l-.003-.003a.39.39 0 00-.078-.065c-.008-.006-.017-.01-.026-.015a.41.41 0 00-.077-.033l-.021-.007a.393.393 0 00-.09-.011H3.529a.785.785 0 00-.784.784v6.37h-.48c-.62 0-1.121.501-1.121 1.12v5.83c0 .619.502 1.121 1.12 1.121h.48v3.99c0 .433.352.785.785.785H16.47a.785.785 0 00.785-.784v-3.99h.48c.619 0 1.12-.503 1.12-1.122v-5.83a1.12 1.12 0 00-1.12-1.12zM3.529.784h9.085v4.013c0 .217.175.392.392.392h3.464v1.965H3.53V.784zm8.72 9.822v.92h-1.84v1.186h2.054v.927H9.274v-5h3.086v.928h-1.951v1.038h1.84zm-7.054 1.527v1.506H4.156v-5h1.32l1.04 1.833a14.6 14.6 0 01.815 1.714h.022a18.632 18.632 0 01-.096-2.085V8.64h1.038v5H7.108L6.04 11.71a18.605 18.605 0 01-.867-1.764l-.022.006c.029.66.044 1.365.044 2.181zm11.275 6.87H3.53v-3.778h12.94v3.778zm-2.012-5.29c-.57 0-1.135-.148-1.417-.303l.23-.936c.304.156.772.312 1.254.312.52 0 .793-.215.793-.542 0-.311-.237-.49-.838-.704-.83-.29-1.372-.75-1.372-1.476 0-.854.712-1.506 1.892-1.506.563 0 .979.118 1.275.252l-.252.912a2.375 2.375 0 00-1.046-.237c-.49 0-.726.222-.726.482 0 .32.281.46.927.705.883.326 1.298.786 1.298 1.49 0 .84-.646 1.552-2.018 1.552z"/>
</svg>
