<svg xmlns="http://www.w3.org/2000/svg" width="20" height="20" fill="none" viewBox="0 0 20 20">
  <path fill="#A0A0A0" d="M17.735 7.154h-.48V4.837c0-.015-.002-.03-.004-.044a.384.384 0 00-.093-.254L13.302.134l-.003-.003a.381.381 0 00-.104-.08.41.41 0 00-.078-.033l-.02-.007a.398.398 0 00-.09-.011H3.53a.785.785 0 00-.785.784v6.37h-.48a1.12 1.12 0 00-1.121 1.12v5.83c0 .619.502 1.121 1.121 1.121h.48v3.99c0 .433.352.785.785.785h12.94a.785.785 0 00.785-.784v-3.99h.48c.62 0 1.121-.503 1.121-1.122v-5.83c0-.618-.502-1.12-1.12-1.12zM3.53.784h9.084v4.013c0 .217.176.392.392.392h3.465v1.965H3.53V.784zm5.893 10.65c-.973-.34-1.608-.878-1.608-1.73 0-.999.834-1.763 2.216-1.763.66 0 1.147.139 1.495.295l-.296 1.07a2.781 2.781 0 00-1.225-.28c-.574 0-.852.262-.852.566 0 .374.33.539 1.087.825 1.033.383 1.52.921 1.52 1.746 0 .982-.756 1.817-2.364 1.817-.668 0-1.328-.174-1.66-.357l.27-1.095c.357.183.904.365 1.469.365.608 0 .93-.251.93-.634 0-.365-.279-.573-.982-.825zm-6.509 2.459V8.114c.41-.069.982-.121 1.79-.121.817 0 1.399.156 1.79.469.374.296.626.782.626 1.355 0 .574-.191 1.06-.539 1.39-.452.426-1.12.617-1.902.617-.174 0-.331-.008-.453-.025v2.094H2.914zm13.557 5.11H3.53v-3.778h12.94v3.778zm.39-5.806c-.617.513-1.555.757-2.702.757-.687 0-1.173-.044-1.503-.088V8.114a11.82 11.82 0 011.79-.121c1.112 0 1.833.2 2.398.625.608.452.99 1.173.99 2.207 0 1.121-.409 1.895-.973 2.372z"/>
  <path fill="#A0A0A0" d="M14.585 9.01c-.296 0-.486.026-.6.052v3.831c.114.026.296.026.461.026 1.2.009 1.981-.651 1.981-2.05.009-1.217-.704-1.86-1.842-1.86zM5.808 9.852c0-.539-.374-.86-1.034-.86-.269 0-.452.026-.547.052v1.729a2 2 0 00.443.035c.703 0 1.138-.356 1.138-.956z"/>
</svg>
