<svg xmlns="http://www.w3.org/2000/svg" width="20" height="20" fill="none" viewBox="0 0 20 20">
  <path fill="#A0A0A0" d="M5.328 10.047c0-.508-.353-.811-.976-.811-.254 0-.426.024-.516.05v1.63c.106.025.237.033.418.033.664 0 1.074-.336 1.074-.902z"/>
  <path fill="#A0A0A0" d="M17.735 7.154h-.48V4.837c0-.015-.003-.03-.005-.044a.385.385 0 00-.093-.254L13.301.134l-.003-.003a.385.385 0 00-.181-.113l-.021-.007a.391.391 0 00-.09-.011H3.529a.785.785 0 00-.784.784v6.37h-.48c-.62 0-1.121.501-1.121 1.12v5.83c0 .62.502 1.121 1.12 1.121h.48v3.99c0 .433.352.785.785.785H16.47a.785.785 0 00.785-.784v-3.99h.48c.619 0 1.12-.503 1.12-1.122v-5.83c0-.618-.501-1.12-1.12-1.12zM3.529.784h9.085v4.013c0 .217.175.392.392.392h3.464v1.965H3.53V.784zm4.98 11.411v1.665H7.36V8.334h1.46l1.147 2.025c.328.582.656 1.27.902 1.894h.024a20.53 20.53 0 01-.106-2.304V8.334h1.148v5.526h-1.312l-1.18-2.132a20.491 20.491 0 01-.96-1.95l-.025.007c.034.73.05 1.509.05 2.41zM2.598 13.86V8.408c.385-.065.926-.115 1.689-.115.77 0 1.32.148 1.688.443.352.279.59.738.59 1.279 0 .54-.18 1-.508 1.312-.426.401-1.057.582-1.795.582-.164 0-.312-.009-.426-.025v1.976H2.598zm13.872 5.143H3.53v-3.778H16.47v3.778zm1.164-5.398a6.19 6.19 0 01-1.845.312c-1.008 0-1.738-.254-2.246-.746-.508-.476-.787-1.197-.779-2.009.008-1.836 1.345-2.885 3.156-2.885.714 0 1.263.139 1.533.27l-.262 1c-.304-.13-.68-.237-1.287-.237-1.04 0-1.828.59-1.828 1.787 0 1.14.713 1.811 1.738 1.811.287 0 .516-.032.615-.082v-1.155h-.853v-.976h2.058v2.91z"/>
</svg>
