<svg xmlns="http://www.w3.org/2000/svg" width="20" height="20" fill="none" viewBox="0 0 20 20">
  <path fill="#A0A0A0" d="M10.102 10.46c-.098-.326-.196-.734-.277-1.06h-.017c-.08.326-.163.743-.253 1.06l-.326 1.166h1.216l-.343-1.165z"/>
  <path fill="#A0A0A0" d="M17.735 7.154h-.48V4.836c0-.014-.002-.029-.004-.043a.385.385 0 00-.093-.254L13.302.134l-.003-.003a.39.39 0 00-.079-.065c-.008-.006-.016-.01-.025-.015a.41.41 0 00-.078-.033l-.02-.007a.393.393 0 00-.09-.011H3.53a.785.785 0 00-.785.784v6.37h-.48c-.619 0-1.121.501-1.121 1.12v5.83c0 .619.502 1.121 1.121 1.121h.48v3.99c0 .433.352.785.785.785h12.94a.785.785 0 00.785-.784v-3.99h.48c.62 0 1.121-.503 1.121-1.122v-5.83a1.12 1.12 0 00-1.12-1.12zM3.53.784h9.084v4.013c0 .217.176.392.392.392h3.465v1.965H3.53V.784zm7.152 7.686l1.704 5.497H11.05l-.424-1.411H9.05l-.392 1.411H7.37L9.05 8.47h1.632zm-7.527 5.244l.253-1.027a3.17 3.17 0 001.378.342c.57 0 .872-.236.872-.595 0-.342-.26-.538-.921-.775-.913-.318-1.51-.823-1.51-1.623 0-.938.784-1.656 2.081-1.656.62 0 1.076.131 1.403.278L6.433 9.66a2.615 2.615 0 00-1.15-.261c-.538 0-.8.244-.8.53 0 .35.31.506 1.02.775.971.358 1.428.865 1.428 1.639 0 .922-.71 1.704-2.218 1.704-.629 0-1.248-.162-1.558-.334zm13.316 5.29H3.53v-3.779h12.94v3.778zm-1.085-5.037h-1.451L12.174 8.47h1.362l.668 2.325c.188.652.359 1.28.489 1.965h.024c.14-.66.31-1.313.498-1.94l.702-2.35h1.321l-1.852 5.497z"/>
</svg>
