<svg xmlns="http://www.w3.org/2000/svg" width="20" height="20" fill="none" viewBox="0 0 20 20">
  <path fill="#A0A0A0" d="M17.735 7.154h-.48V4.836c0-.014-.003-.029-.005-.043a.385.385 0 00-.093-.254L13.301.134l-.003-.003a.379.379 0 00-.104-.08.403.403 0 00-.077-.033l-.021-.007a.391.391 0 00-.09-.011H3.529a.785.785 0 00-.784.784v6.37h-.48c-.62 0-1.121.502-1.121 1.12v5.83c0 .62.502 1.121 1.12 1.121h.48v3.99c0 .433.352.785.785.785H16.47a.785.785 0 00.785-.784v-3.99h.48c.619 0 1.12-.503 1.12-1.122v-5.83c0-.618-.501-1.12-1.12-1.12zM3.529.784h9.085v4.013c0 .217.175.392.392.392h3.464v1.965H3.53V.784zm7.386 12.384a3.12 3.12 0 001.038-.18l.188.972c-.229.115-.744.237-1.415.237-1.905 0-2.886-1.185-2.886-2.755 0-1.88 1.34-2.927 3.009-2.927.646 0 1.137.13 1.357.245l-.253.99a2.697 2.697 0 00-1.046-.205c-.99 0-1.759.597-1.759 1.823 0 1.105.654 1.8 1.767 1.8zM2.492 8.605h1.365l.67 2.33c.189.654.36 1.284.491 1.97h.024c.14-.661.312-1.316.5-1.945l.703-2.355h1.324l-1.855 5.511H4.257L2.492 8.605zM16.47 19.003H3.53v-3.778H16.47v3.778zm.447-5.541c-.58.482-1.464.711-2.543.711-.646 0-1.104-.041-1.415-.081V8.678a11.133 11.133 0 011.685-.114c1.046 0 1.725.188 2.257.589.572.425.932 1.104.932 2.076 0 1.056-.385 1.783-.916 2.233z"/>
  <path fill="#A0A0A0" d="M14.774 9.52a2.59 2.59 0 00-.564.05v3.606c.106.024.278.024.433.024 1.129.009 1.864-.613 1.864-1.93.009-1.144-.662-1.75-1.733-1.75z"/>
</svg>
