<svg xmlns="http://www.w3.org/2000/svg" width="20" height="20" fill="none" viewBox="0 0 20 20">
  <path fill="#A0A0A0" d="M17.735 7.154h-.48V4.836c0-.014-.002-.029-.004-.043a.385.385 0 00-.093-.254L13.302.134c-.002-.001-.003-.001-.003-.003a.379.379 0 00-.104-.08.403.403 0 00-.078-.033l-.02-.007a.392.392 0 00-.09-.011H3.53a.785.785 0 00-.785.784v6.37h-.48c-.619 0-1.121.501-1.121 1.12v5.83c0 .62.502 1.121 1.121 1.121h.48v3.99c0 .433.352.785.785.785h12.94a.785.785 0 00.785-.784v-3.99h.48c.62 0 1.121-.503 1.121-1.122v-5.83c0-.619-.502-1.12-1.12-1.12zM3.53.784h9.084v4.013c0 .217.176.392.392.392h3.465v1.965H3.53V.784zm9.965 9.414c0 .52-.173.962-.488 1.262-.41.386-1.018.56-1.727.56-.158 0-.3-.008-.41-.024v1.9H9.678V8.652c.37-.063.891-.11 1.624-.11.742 0 1.27.142 1.625.426.339.268.567.71.567 1.23zM2.273 8.582h1.285l.402 2.192c.119.63.229 1.317.315 1.853h.017c.086-.576.212-1.214.346-1.869l.45-2.176h1.278l.425 2.239c.119.623.205 1.19.284 1.782h.016c.08-.591.198-1.214.308-1.845l.434-2.176h1.221l-1.371 5.314H6.38l-.45-2.286a18.4 18.4 0 01-.252-1.641h-.015a22.06 22.06 0 01-.308 1.64l-.505 2.287H3.534L2.273 8.582zM16.47 19.003H3.53v-3.778h12.94v3.778zm-.909-5.028c-.607 0-1.206-.158-1.505-.323l.243-.993c.324.165.821.33 1.333.33.552 0 .844-.228.844-.575 0-.331-.252-.52-.89-.749-.884-.307-1.46-.797-1.46-1.57 0-.906.757-1.6 2.012-1.6.599 0 1.04.126 1.355.268l-.267.97a2.528 2.528 0 00-1.113-.253c-.52 0-.772.237-.772.513 0 .34.3.489.986.75.938.346 1.38.835 1.38 1.584 0 .891-.687 1.648-2.146 1.648z"/>
  <path fill="#A0A0A0" d="M11.367 9.449c-.245 0-.41.023-.497.047v1.57c.103.023.228.03.402.03.639 0 1.033-.322 1.033-.867 0-.489-.34-.78-.938-.78z"/>
</svg>
