<svg xmlns="http://www.w3.org/2000/svg" width="20" height="20" fill="none" viewBox="0 0 20 20">
  <path fill="#A0A0A0" d="M17.735 7.154h-.48V4.837c0-.015-.003-.03-.004-.044a.385.385 0 00-.094-.254L13.301.134l-.003-.003a.386.386 0 00-.078-.065c-.008-.006-.017-.01-.026-.015a.41.41 0 00-.077-.033l-.021-.007a.39.39 0 00-.09-.011H3.529a.785.785 0 00-.784.784v6.37h-.48c-.62 0-1.121.501-1.121 1.12v5.83c0 .619.502 1.121 1.12 1.121h.48v3.99c0 .433.352.785.785.785H16.47a.785.785 0 00.785-.784v-3.99h.48c.619 0 1.12-.503 1.12-1.122V8.275a1.12 1.12 0 00-1.12-1.121zM3.529.784h9.085v4.013c0 .217.175.392.392.392h3.464v1.965H3.53V.784zm7.945 10.694c-.77-.269-1.273-.695-1.273-1.37 0-.791.66-1.397 1.755-1.397.523 0 .909.11 1.184.234l-.234.847a2.207 2.207 0 00-.97-.22c-.455 0-.675.206-.675.447 0 .296.262.426.86.653.819.303 1.204.73 1.204 1.384 0 .778-.598 1.438-1.871 1.438-.53 0-1.053-.137-1.315-.282l.213-.867c.283.144.716.29 1.163.29.483 0 .737-.2.737-.503 0-.29-.22-.455-.778-.654zM9.7 12.544v.882H6.802v-4.64h1.053v3.758H9.7zm-6.262.882H2.24l1.342-2.348-1.294-2.292h1.204l.406.847c.138.282.241.51.351.771h.014c.11-.296.2-.502.316-.77l.392-.848H6.17L4.86 11.05l1.377 2.375H5.027l-.42-.84c-.172-.323-.282-.564-.413-.832H4.18c-.096.268-.213.51-.358.832l-.385.84zm13.033 5.577H3.53v-3.778H16.47v3.778zm.007-5.577l-.42-.84c-.172-.324-.282-.564-.412-.833h-.014c-.096.269-.213.51-.358.833l-.385.84H13.69l1.342-2.348-1.294-2.292h1.205l.406.847c.137.282.24.51.35.771h.014c.11-.296.2-.502.317-.77l.392-.848h1.198l-1.308 2.264 1.376 2.375h-1.21z"/>
</svg>
