<svg xmlns="http://www.w3.org/2000/svg" width="20" height="20" fill="none" viewBox="0 0 20 20">
  <path fill="#A0A0A0" d="M17.735 7.154h-.48V4.837c0-.015-.003-.03-.005-.044a.385.385 0 00-.093-.254L13.301.134l-.003-.003a.386.386 0 00-.078-.065c-.008-.006-.017-.01-.026-.015a.408.408 0 00-.077-.033l-.021-.007a.39.39 0 00-.09-.011H3.529a.785.785 0 00-.784.784v6.37h-.48c-.62 0-1.121.501-1.121 1.12v5.83c0 .62.502 1.121 1.12 1.121h.48v3.99c0 .433.352.785.785.785H16.47a.785.785 0 00.785-.784v-3.99h.48c.619 0 1.12-.503 1.12-1.122V8.275a1.12 1.12 0 00-1.12-1.121zM3.529.784h9.085v4.013c0 .217.175.392.392.392h3.464v1.965H3.53V.784zm8.264 7.374v5.856h-1.33V8.158h1.33zM5.337 9.252V8.158h4.248v.764l-2.728 3.962v.035H9.63v1.095H5.076V13.3l2.79-4.014v-.035h-2.53zm11.133 9.751H3.53v-3.778H16.47v3.778zm.137-7.674c-.452.426-1.121.617-1.903.617-.174 0-.33-.009-.452-.026v2.094H12.94V8.236c.409-.07.982-.122 1.79-.122.817 0 1.399.156 1.79.47.373.295.625.781.625 1.355 0 .573-.19 1.06-.538 1.39z"/>
  <path fill="#A0A0A0" d="M14.8 9.113c-.27 0-.453.027-.548.053v1.729c.112.026.252.035.443.035.704 0 1.138-.357 1.138-.956 0-.539-.373-.86-1.033-.86z"/>
</svg>
