<svg width="24" height="24" viewBox="0 0 24 24" fill="none" xmlns="http://www.w3.org/2000/svg">
<path fill-rule="evenodd" clip-rule="evenodd" d="M17 4.5C17 4.9445 16.884 5.3619 16.6806 5.72359C16.5641 5.9308 16.5616 6.19301 16.7138 6.37563L18.054 7.98389C18.2062 8.16655 18.4646 8.21132 18.6896 8.13428C18.9437 8.04724 19.2164 8 19.5 8C20.8807 8 22 9.11929 22 10.5C22 11.8807 20.8807 13 19.5 13C19.3247 13 19.1598 13.1015 19.1044 13.2678L17.878 16.9469C17.8029 17.1722 17.9004 17.4152 18.084 17.5658C18.6432 18.0243 19 18.7205 19 19.5C19 20.8807 17.8807 22 16.5 22C15.2891 22 14.2793 21.1391 14.0492 19.9959C14.0023 19.7629 13.8331 19.5624 13.5987 19.5234L7.23726 18.4631C7.00292 18.4241 6.77796 18.5585 6.65772 18.7634C6.22358 19.5033 5.4198 20 4.5 20C3.11929 20 2 18.8807 2 17.5C2 16.3365 2.7948 15.3587 3.87108 15.0798C4.10129 15.0201 4.29236 14.8403 4.31862 14.6039L4.6873 11.2858C4.71355 11.0496 4.56693 10.8323 4.35572 10.7233C3.55056 10.3081 3 9.46835 3 8.5C3 7.11929 4.11929 6 5.5 6C6.19275 6 6.81969 6.28177 7.27247 6.73694C7.43992 6.90528 7.69124 6.97893 7.90821 6.8825L11.6853 5.20377C11.9023 5.10735 12.0161 4.87147 12.0035 4.63438C12.0012 4.58988 12 4.54508 12 4.5C12 3.11929 13.1193 2 14.5 2C15.8807 2 17 3.11929 17 4.5ZM7.99645 8.36559C7.98389 8.12849 8.09769 7.89261 8.31465 7.79618L12.357 5.99956C12.4196 5.97176 12.4928 5.99212 12.5351 6.04589C12.5775 6.09971 12.5801 6.1756 12.5383 6.22991L9.14581 10.6401C8.96179 10.8794 8.60937 10.9023 8.39595 10.6888L7.87476 10.1676C7.70662 9.99952 7.68542 9.7381 7.78264 9.5211C7.92232 9.20934 8 8.86374 8 8.5C8 8.45491 7.99881 8.41009 7.99645 8.36559ZM7.91606 12.2388C8.06919 12.0398 8.05089 11.758 7.8733 11.5804L7.16765 10.8748C6.99952 10.7066 6.7381 10.6854 6.5211 10.7826C6.39544 10.8389 6.26429 10.8852 6.12867 10.9203C5.89844 10.9799 5.70746 11.1598 5.6812 11.3961L5.28709 14.9431C5.27565 15.046 5.33923 15.1421 5.43529 15.1808C5.53138 15.2196 5.64278 15.1941 5.70596 15.1119L7.91606 12.2388ZM6.45046 15.936C6.4159 15.8929 6.4139 15.8318 6.44755 15.788L8.54963 13.0553C8.73365 12.8161 9.08607 12.7932 9.2995 13.0066L9.95507 13.6622C10.2004 13.9075 10.1274 14.3221 9.81296 14.4688L6.59421 15.9709C6.54425 15.9942 6.48498 15.979 6.45046 15.936ZM9.82214 12.115C9.64455 11.9374 9.62626 11.6557 9.77938 11.4566L13.1532 7.07064C13.2982 6.88219 13.5546 6.82736 13.7824 6.89549C13.8292 6.90947 13.8765 6.92212 13.9243 6.9334C14.1558 6.98794 14.3505 7.16354 14.382 7.39923L14.9532 11.6835C14.9821 11.9 14.867 12.1103 14.669 12.2027L11.7414 13.5689C11.5509 13.6578 11.3251 13.618 11.1764 13.4693L9.82214 12.115ZM15.2302 13.7613C15.1856 13.4267 14.8291 13.2315 14.5232 13.3743L12.8234 14.1675C12.5089 14.3142 12.4359 14.7288 12.6813 14.9741L14.9001 17.193C15.0288 17.3217 15.228 17.3396 15.3911 17.2588C15.5541 17.178 15.6631 17.0079 15.6391 16.8276L15.2302 13.7613ZM16.7363 17.011C16.6988 17.0075 16.6681 16.979 16.6632 16.9417L16.1385 13.007C16.1096 12.7904 16.2247 12.5802 16.4227 12.4878L17.1219 12.1615C17.3371 12.0611 17.5898 12.1301 17.7603 12.2954C17.8102 12.3437 17.8621 12.39 17.9159 12.4341C18.0995 12.5847 18.197 12.8277 18.1219 13.053L16.8206 16.9567C16.8088 16.9923 16.7737 17.0145 16.7363 17.011ZM16.5685 11.3162C16.2626 11.459 15.9061 11.2638 15.8615 10.9292L15.3456 7.0604C15.3303 6.94532 15.3992 6.8363 15.5055 6.78956C15.6118 6.7428 15.7377 6.76638 15.8121 6.85562L17.2861 8.62451C17.4383 8.80713 17.4358 9.06932 17.3193 9.27653C17.116 9.63819 17 10.0555 17 10.5C17 10.5606 17.0022 10.6207 17.0064 10.6803C17.0233 10.9171 16.9139 11.1551 16.6987 11.2555L16.5685 11.3162ZM14.277 18.3552C14.3496 18.2144 14.3337 18.0408 14.2217 17.9288L11.4599 15.167C11.3112 15.0183 11.0854 14.9785 10.8949 15.0675L7.15707 16.8118C7.02586 16.873 6.95742 17.0158 6.97697 17.1593C6.99655 17.3029 7.10113 17.4267 7.24413 17.4505L13.8971 18.5593C14.0532 18.5853 14.2044 18.4958 14.277 18.3552Z" fill="black"/>
</svg>
