<svg width="20" height="20" viewBox="0 0 20 20" fill="none" xmlns="http://www.w3.org/2000/svg">
<path d="M9.18925 1.1391C9.27832 1.05004 9.39912 1 9.52508 1H10.4749C10.6009 1 10.7217 1.05004 10.8107 1.1391L13.2191 3.54747C13.3082 3.63653 13.3582 3.75733 13.3582 3.88329L13.3582 4.83313C13.3582 4.95909 13.3082 5.07989 13.2191 5.16895L10.8107 7.57732C10.7217 7.66638 10.6009 7.71642 10.4749 7.71642L9.52507 7.71642C9.39912 7.71642 9.27832 7.66638 9.18926 7.57732L6.78089 5.16895C6.69183 5.07989 6.64179 4.95909 6.64179 4.83313L6.64179 3.88329C6.64179 3.75733 6.69183 3.63653 6.78089 3.54747L9.18925 1.1391Z" fill="#CCCCCC"/>
<path d="M3.88329 6.64179C3.75733 6.64179 3.63653 6.69183 3.54746 6.78089L1.1391 9.18926C1.05004 9.27832 1 9.39912 1 9.52508L1 10.4749C1 10.6009 1.05004 10.7217 1.1391 10.8107L3.54746 13.2191C3.63653 13.3082 3.75733 13.3582 3.88328 13.3582H4.83313C4.95909 13.3582 5.07989 13.3082 5.16895 13.2191L7.57732 10.8107C7.66638 10.7217 7.71642 10.6009 7.71642 10.4749L7.71642 9.52508C7.71642 9.39912 7.66638 9.27832 7.57732 9.18926L5.16895 6.78089C5.07989 6.69183 4.95909 6.64179 4.83313 6.64179L3.88329 6.64179Z" fill="#CCCCCC"/>
<path d="M14.831 6.78089C14.9201 6.69183 15.0409 6.64179 15.1669 6.64179H16.1167C16.2427 6.64179 16.3635 6.69183 16.4525 6.78089L18.8609 9.18926C18.95 9.27832 19 9.39912 19 9.52508V10.4749C19 10.6009 18.95 10.7217 18.8609 10.8107L16.4525 13.2191C16.3635 13.3082 16.2427 13.3582 16.1167 13.3582L15.1669 13.3582C15.0409 13.3582 14.9201 13.3082 14.831 13.2191L12.4227 10.8107C12.3336 10.7217 12.2836 10.6009 12.2836 10.4749V9.52508C12.2836 9.39912 12.3336 9.27832 12.4227 9.18926L14.831 6.78089Z" fill="#CCCCCC"/>
<path d="M9.52508 12.2836C9.39912 12.2836 9.27832 12.3336 9.18926 12.4227L6.78089 14.831C6.69183 14.9201 6.64179 15.0409 6.64179 15.1669V16.1167C6.64179 16.2427 6.69183 16.3635 6.78089 16.4525L9.18926 18.8609C9.27832 18.95 9.39912 19 9.52508 19H10.4749C10.6009 19 10.7217 18.95 10.8107 18.8609L13.2191 16.4525C13.3082 16.3635 13.3582 16.2427 13.3582 16.1167L13.3582 15.1669C13.3582 15.0409 13.3082 14.9201 13.2191 14.831L10.8107 12.4227C10.7217 12.3336 10.6009 12.2836 10.4749 12.2836L9.52508 12.2836Z" fill="#CCCCCC"/>
</svg>
