<svg width="20" height="20" viewBox="0 0 20 20" fill="none" xmlns="http://www.w3.org/2000/svg">
<path fill-rule="evenodd" clip-rule="evenodd" d="M1.80078 4.00072C1.80078 3.22711 2.42792 2.59998 3.20153 2.59998H6.80078V3.80062H3.20153C3.09101 3.80062 3.00142 3.89021 3.00142 4.00072V7.59998H1.80078V4.00072Z" fill="#CCCCCC"/>
<path fill-rule="evenodd" clip-rule="evenodd" d="M18.2676 15.9993C18.2676 16.7729 17.6404 17.4 16.8668 17.4L13.2676 17.4L13.2676 16.1994L16.8668 16.1994C16.9773 16.1994 17.0669 16.1098 17.0669 15.9993L17.0669 12.4L18.2676 12.4L18.2676 15.9993Z" fill="#CCCCCC"/>
<path fill-rule="evenodd" clip-rule="evenodd" d="M16.8668 2.59998C17.6404 2.59998 18.2676 3.22711 18.2676 4.00072L18.2676 7.59998L17.0669 7.59998L17.0669 4.00072C17.0669 3.89021 16.9773 3.80062 16.8668 3.80062L13.2676 3.80062L13.2676 2.59998L16.8668 2.59998Z" fill="#CCCCCC"/>
<path fill-rule="evenodd" clip-rule="evenodd" d="M3.20153 17.4C2.42792 17.4 1.80078 16.7729 1.80078 15.9993L1.80078 12.4L3.00142 12.4L3.00142 15.9993C3.00142 16.1098 3.09101 16.1994 3.20153 16.1994L6.80078 16.1994L6.80078 17.4L3.20153 17.4Z" fill="#CCCCCC"/>
<path d="M13 7.33337L13 12.6667H11.4L11.4 7.33337H13Z" fill="#CCCCCC"/>
<path d="M10.8672 5.8667L10.8672 14.1334H9.26719L9.26719 5.8667H10.8672Z" fill="#CCCCCC"/>
<path d="M8.73242 7.33337L8.73242 12.6667H7.13242L7.13242 7.33337H8.73242Z" fill="#CCCCCC"/>
</svg>
