<svg xmlns="http://www.w3.org/2000/svg" width="20" height="20" fill="none"><path fill-rule="evenodd" clip-rule="evenodd" d="M3.507 5.387c-.286.292-.386.553-.386.777 0 .224.1.486.386.777.29.295.745.591 1.37.854 1.247.524 3.054.865 5.196.865s3.91-.341 5.116-.863c1.26-.544 1.688-1.171 1.688-1.633 0-.439-.387-1.027-1.509-1.552l-1.048 2.46a.625.625 0 0 1-.714.364 16.688 16.688 0 0 0-3.615-.416c-1.377 0-2.552.195-3.63.449a.625.625 0 0 1-.722-.375l-.99-2.46c-.509.237-.888.495-1.142.753Zm14.618.689c-.05-1.217-1.117-2.12-2.44-2.692-1.408-.608-3.355-.966-5.612-.966s-4.239.358-5.68.963c-.72.303-1.334.68-1.778 1.13-.425.434-.715.962-.742 1.561h-.002v7.87c0 .631.305 1.179.752 1.62.444.436 1.059.8 1.777 1.09 1.44.585 3.418.93 5.673.93 2.254 0 4.2-.345 5.605-.932 1.344-.56 2.449-1.463 2.449-2.707V6.076h-.002Zm-1.248 2.2a6.14 6.14 0 0 1-1.192.669c-1.408.608-3.355.965-5.612.965s-4.239-.357-5.68-.963A6.347 6.347 0 0 1 3.12 8.25v.473c0 .224.1.486.386.777.29.295.745.591 1.37.854 1.247.524 3.054.865 5.196.865s3.91-.341 5.116-.863c1.26-.544 1.688-1.171 1.688-1.633v-.446Zm0 2.558a6.133 6.133 0 0 1-1.192.669c-1.408.608-3.355.965-5.612.965s-4.239-.357-5.68-.963a6.35 6.35 0 0 1-1.272-.698v.473c0 .224.1.485.386.777.29.295.745.591 1.37.853 1.247.524 3.054.866 5.196.866s3.91-.342 5.116-.863c1.26-.544 1.688-1.171 1.688-1.633v-.446Zm0 2.558a6.133 6.133 0 0 1-1.192.668c-1.408.609-3.355.966-5.612.966s-4.239-.357-5.68-.963a6.345 6.345 0 0 1-1.272-.698v.578c0 .2.093.446.379.727.289.284.744.57 1.37.824 1.25.507 3.059.837 5.203.837s3.914-.33 5.123-.834c1.27-.53 1.68-1.134 1.68-1.554v-.551Zm-6.261-9.716c1.385.038 2.596.222 3.578.504l-.823 1.929a18.132 18.132 0 0 0-2.755-.326V3.676Zm-4.794.528c.982-.285 2.185-.474 3.544-.523v2.102c-1.018.04-1.929.176-2.766.352l-.778-1.931Z" fill="#B3B3B3"/></svg>