<svg width="20" height="20" viewBox="0 0 20 20" fill="none" xmlns="http://www.w3.org/2000/svg">
<path fill-rule="evenodd" clip-rule="evenodd" d="M4.73171 2H2V4.73171H4.73171V2ZM8.63403 2H11.3657V4.73171H8.63403V2ZM18.0003 2H15.2686V4.73171H18.0003V2ZM15.2686 8.63428H18.0003V11.366H15.2686V8.63428ZM8.63403 8.63428H11.3657V11.366H8.63403V8.63428ZM8.63403 15.2682H11.3657V17.9999H8.63403V15.2682ZM4.73171 8.63428H2V11.366H4.73171V8.63428ZM4.73171 15.2682H2V17.9999H4.73171V15.2682ZM19.0005 19.9998H15.0156V19.1076C15.3073 18.8226 15.6191 18.5547 15.9213 18.2951C16.7947 17.5446 17.5884 16.8626 17.5884 16.0323C17.5884 15.3826 17.2939 15.0794 16.6615 15.0794C16.0638 15.0794 15.5094 15.322 15.1023 15.7032V14.2132C15.544 13.988 16.1851 13.8147 16.9128 13.8147C18.524 13.8147 18.9918 14.6117 18.9918 15.6512C18.9918 17.0049 18.0766 17.7993 16.9754 18.7552L16.9387 18.7871H19.0005V19.9998Z" fill="#CCCCCC"/>
</svg>
