<svg width="24" height="24" viewBox="0 0 24 24" fill="none" xmlns="http://www.w3.org/2000/svg">
<path fill-rule="evenodd" clip-rule="evenodd" d="M14.3096 4.00043C13.8954 4.00043 13.5596 4.33621 13.5596 4.75043V9.75043C13.5596 10.1646 13.8954 10.5004 14.3096 10.5004H19.3096C19.7238 10.5004 20.0596 10.1646 20.0596 9.75043V4.75043C20.0596 4.33621 19.7238 4.00043 19.3096 4.00043H14.3096ZM15.0596 9.00043V5.50043H18.5596V9.00043H15.0596ZM4.75391 6.49536C4.33969 6.49536 4.00391 6.83115 4.00391 7.24536V13.2454V19.2454C4.00391 19.6596 4.33969 19.9954 4.75391 19.9954H10.7817H10.7818H16.8096C17.2238 19.9954 17.5596 19.6596 17.5596 19.2454V13.2454C17.5596 12.8311 17.2238 12.4954 16.8096 12.4954H11.5318V7.24536C11.5318 6.83115 11.196 6.49536 10.7818 6.49536H4.75391ZM10.0317 18.4954V13.9954H5.50391V18.4954H10.0317ZM16.0596 18.4954H11.5318V13.9954H16.0596V18.4954ZM10.0318 12.4954V7.99536H5.50391V12.4954H10.0318Z" fill="#B3B3B3"/>
</svg>
