<svg width="20" height="20" viewBox="0 0 20 20" fill="none" xmlns="http://www.w3.org/2000/svg">
<path fill-rule="evenodd" clip-rule="evenodd" d="M2.6682 1.1318L1.1318 2.6682C1.04741 2.75259 1 2.86705 1 2.9864V7.1136C1 7.23295 1.04741 7.34741 1.1318 7.4318L2.6682 8.9682C2.75259 9.05259 2.86705 9.1 2.9864 9.1H7.1136C7.23295 9.1 7.34741 9.05259 7.4318 8.9682L8.9682 7.4318C9.05259 7.34741 9.1 7.23295 9.1 7.1136V2.9864C9.1 2.86705 9.05259 2.75259 8.9682 2.6682L7.4318 1.1318C7.34741 1.04741 7.23295 1 7.1136 1H2.9864C2.86705 1 2.75259 1.04741 2.6682 1.1318ZM2.6682 11.0318L1.1318 12.5682C1.04741 12.6526 1 12.767 1 12.8864V17.0136C1 17.1329 1.04741 17.2474 1.1318 17.3318L2.6682 18.8682C2.75259 18.9526 2.86705 19 2.9864 19H7.1136C7.23295 19 7.34741 18.9526 7.4318 18.8682L8.9682 17.3318C9.05259 17.2474 9.1 17.133 9.1 17.0136V12.8864C9.1 12.767 9.05259 12.6526 8.9682 12.5682L7.4318 11.0318C7.34741 10.9474 7.23295 10.9 7.1136 10.9H2.9864C2.86705 10.9 2.75259 10.9474 2.6682 11.0318ZM11.0318 2.6682L12.5682 1.1318C12.6526 1.04741 12.767 1 12.8864 1H17.0136C17.133 1 17.2474 1.04741 17.3318 1.1318L18.8682 2.6682C18.9526 2.75259 19 2.86705 19 2.9864V7.1136C19 7.23295 18.9526 7.34741 18.8682 7.4318L17.3318 8.9682C17.2474 9.05259 17.1329 9.1 17.0136 9.1H12.8864C12.767 9.1 12.6526 9.05259 12.5682 8.9682L11.0318 7.4318C10.9474 7.34741 10.9 7.23295 10.9 7.1136V2.9864C10.9 2.86705 10.9474 2.75259 11.0318 2.6682ZM11.0318 12.5682L12.5682 11.0318C12.6526 10.9474 12.767 10.9 12.8864 10.9H17.0136C17.133 10.9 17.2474 10.9474 17.3318 11.0318L18.8682 12.5682C18.9526 12.6526 19 12.767 19 12.8864V17.0136C19 17.133 18.9526 17.2474 18.8682 17.3318L17.3318 18.8682C17.2474 18.9526 17.1329 19 17.0136 19H12.8864C12.767 19 12.6526 18.9526 12.5682 18.8682L11.0318 17.3318C10.9474 17.2474 10.9 17.1329 10.9 17.0136V12.8864C10.9 12.767 10.9474 12.6526 11.0318 12.5682ZM14.7074 2.8C14.4589 2.8 14.2574 3.00147 14.2574 3.25V4.37364H13.15C12.9015 4.37364 12.7 4.57511 12.7 4.82364V5.27364C12.7 5.52217 12.9015 5.72364 13.15 5.72364H14.2574V6.85C14.2574 7.09853 14.4589 7.3 14.7074 7.3H15.1574C15.4059 7.3 15.6074 7.09853 15.6074 6.85V5.72364H16.75C16.9985 5.72364 17.2 5.52217 17.2 5.27364V4.82364C17.2 4.57511 16.9985 4.37364 16.75 4.37364H15.6074V3.25C15.6074 3.00147 15.4059 2.8 15.1574 2.8H14.7074Z" fill="#CCCCCC"/>
</svg>
