<svg width="24" height="24" viewBox="0 0 24 24" fill="none" xmlns="http://www.w3.org/2000/svg">
<path fill-rule="evenodd" clip-rule="evenodd" d="M5.77904 6.65251C5.50203 6.89467 5.46275 7.06038 5.46275 7.13667C5.46275 7.21297 5.50203 7.37868 5.77904 7.62084C6.05449 7.86164 6.49636 8.11264 7.10716 8.33849C8.32294 8.78803 10.0525 9.0811 11.9996 9.0811C13.9467 9.0811 15.6763 8.78803 16.8921 8.33849C17.5029 8.11264 17.9448 7.86164 18.2202 7.62084C18.4972 7.37868 18.5365 7.21297 18.5365 7.13667C18.5365 7.06038 18.4972 6.89467 18.2202 6.65251C17.9448 6.41171 17.5029 6.16071 16.8921 5.93486C15.6763 5.48532 13.9467 5.19225 11.9996 5.19225C10.0525 5.19225 8.32294 5.48532 7.10716 5.93486C6.49636 6.16071 6.05449 6.41171 5.77904 6.65251ZM6.587 4.52809C8.00853 4.00246 9.92233 3.69238 11.9996 3.69238C14.0769 3.69238 15.9907 4.00246 17.4123 4.52809C18.1201 4.78982 18.7454 5.11941 19.2074 5.52331C19.6679 5.92584 20.0364 6.46894 20.0364 7.13667C20.0364 7.80441 19.6679 8.34751 19.2074 8.75004C18.7454 9.15394 18.1201 9.48353 17.4123 9.74526C15.9907 10.2709 14.0769 10.581 11.9996 10.581C9.92233 10.581 8.00853 10.2709 6.587 9.74526C5.87914 9.48353 5.25389 9.15394 4.79188 8.75004C4.33142 8.34751 3.96289 7.80441 3.96289 7.13667C3.96289 6.46894 4.33142 5.92584 4.79188 5.52331C5.25389 5.11941 5.87914 4.78982 6.587 4.52809ZM4.71282 11.2493C5.127 11.2493 5.46275 11.585 5.46275 11.9992C5.46275 12.0755 5.50203 12.2412 5.77904 12.4834C6.05449 12.7242 6.49636 12.9752 7.10716 13.201C8.32294 13.6506 10.0525 13.9436 11.9996 13.9436C13.9467 13.9436 15.6763 13.6506 16.8921 13.201C17.5029 12.9752 17.9448 12.7242 18.2202 12.4834C18.4972 12.2412 18.5365 12.0755 18.5365 11.9992C18.5365 11.585 18.8723 11.2493 19.2864 11.2493C19.7006 11.2493 20.0364 11.585 20.0364 11.9992C20.0364 12.6669 19.6679 13.21 19.2074 13.6126C18.7454 14.0165 18.1201 14.3461 17.4123 14.6078C15.9907 15.1334 14.0769 15.4435 11.9996 15.4435C9.92233 15.4435 8.00853 15.1334 6.587 14.6078C5.87914 14.3461 5.25389 14.0165 4.79188 13.6126C4.33142 13.21 3.96289 12.6669 3.96289 11.9992C3.96289 11.585 4.29865 11.2493 4.71282 11.2493ZM5.46275 16.8621C5.46275 16.4479 5.127 16.1122 4.71282 16.1122C4.29865 16.1122 3.96289 16.4479 3.96289 16.8621C3.96289 17.5298 4.33142 18.0729 4.79188 18.4755C5.25389 18.8794 5.87914 19.209 6.587 19.4707C8.00853 19.9963 9.92233 20.3064 11.9996 20.3064C14.0769 20.3064 15.9907 19.9963 17.4123 19.4707C18.1201 19.209 18.7454 18.8794 19.2074 18.4755C19.6679 18.0729 20.0364 17.5298 20.0364 16.8621C20.0364 16.4479 19.7006 16.1122 19.2864 16.1122C18.8723 16.1122 18.5365 16.4479 18.5365 16.8621C18.5365 16.9384 18.4972 17.1041 18.2202 17.3463C17.9448 17.5871 17.5029 17.8381 16.8921 18.0639C15.6763 18.5135 13.9467 18.8065 11.9996 18.8065C10.0525 18.8065 8.32294 18.5135 7.10716 18.0639C6.49636 17.8381 6.05449 17.5871 5.77904 17.3463C5.50203 17.1041 5.46275 16.9384 5.46275 16.8621Z" fill="#B3B3B3"/>
</svg>
