<svg width="20" height="20" viewBox="0 0 20 20" fill="none" xmlns="http://www.w3.org/2000/svg">
<path fill-rule="evenodd" clip-rule="evenodd" d="M1.5 3.5C0.671573 3.5 0 2.82843 0 2C0 1.17157 0.671573 0.5 1.5 0.5C2.05521 0.5 2.53997 0.801649 2.79933 1.25H4.28179L7.42465 4H12.5754L15.7182 1.25H17.2007C17.46 0.801649 17.9448 0.5 18.5 0.5C19.3284 0.5 20 1.17157 20 2C20 2.82843 19.3284 3.5 18.5 3.5C17.9448 3.5 17.46 3.19835 17.2007 2.75H16.2818L13.9715 4.77151L16 6.8V9.25H17.2007C17.46 8.80165 17.9448 8.5 18.5 8.5C19.3284 8.5 20 9.17157 20 10C20 10.8284 19.3284 11.5 18.5 11.5C17.9448 11.5 17.46 11.1984 17.2007 10.75H16V13.2L13.9715 15.2285L16.2818 17.25H17.2007C17.46 16.8016 17.9448 16.5 18.5 16.5C19.3284 16.5 20 17.1716 20 18C20 18.8284 19.3284 19.5 18.5 19.5C17.9448 19.5 17.46 19.1984 17.2007 18.75H15.7182L12.5754 16H7.42465L4.28179 18.75H2.79933C2.53997 19.1984 2.05521 19.5 1.5 19.5C0.671573 19.5 0 18.8284 0 18C0 17.1716 0.671573 16.5 1.5 16.5C2.05521 16.5 2.53997 16.8016 2.79933 17.25H3.71819L6.02849 15.2285L4 13.2V10.75H2.79933C2.53997 11.1984 2.05521 11.5 1.5 11.5C0.671573 11.5 0 10.8284 0 10C0 9.17157 0.671573 8.5 1.5 8.5C2.05521 8.5 2.53997 8.80165 2.79933 9.25H4V6.8L6.02849 4.77151L3.71819 2.75H2.79933C2.53997 3.19835 2.05521 3.5 1.5 3.5ZM7 8.59773C7 8.4707 7.04835 8.34843 7.13524 8.25575L8.16439 7.15802C8.25891 7.0572 8.39095 7 8.52915 7H11.4708C11.609 7 11.7411 7.0572 11.8356 7.15802L12.8648 8.25575C12.9516 8.34843 13 8.4707 13 8.59773V11.4023C13 11.5293 12.9516 11.6516 12.8648 11.7442L11.8356 12.842C11.7411 12.9428 11.609 13 11.4708 13H8.52915C8.39095 13 8.25891 12.9428 8.16439 12.842L7.13524 11.7442C7.04835 11.6516 7 11.5293 7 11.4023V8.59773Z" fill="#D2D2D2"/>
</svg>
