<svg width="24" height="24" viewBox="0 0 24 24" fill="none" xmlns="http://www.w3.org/2000/svg">
<path d="M18.7175 5.28249C15.0075 1.5725 8.99248 1.5725 5.28249 5.28249C1.5725 8.99248 1.5725 15.0075 5.28249 18.7175C8.99248 22.4275 15.0075 22.4275 18.7175 18.7175C22.4275 15.0075 22.4275 8.99248 18.7175 5.28249ZM14.6123 18.876C13.1752 20.3131 10.8241 20.3131 9.38701 18.876L5.12398 14.613C3.68691 13.1759 3.68691 10.8248 5.12398 9.38771L9.38632 5.12538C10.8234 3.68831 13.1745 3.68831 14.6116 5.12538L18.8746 9.38841C20.3117 10.8255 20.3117 13.1766 18.8746 14.6137L14.6123 18.876Z" fill="#B3B3B3"/>
</svg>
