<svg width="20" height="20" viewBox="0 0 20 20" fill="none" xmlns="http://www.w3.org/2000/svg">
<path d="M13.8581 3.76981L11.7263 2.44975C11.4013 2.2485 11.4132 1.77179 11.7478 1.58697L13.8796 0.409476C14.2129 0.225412 14.6214 0.466452 14.6214 0.847151V1.34992H16.9999C17.9112 1.34992 18.6499 2.08865 18.6499 2.99992V8.14992H17.3499V2.99992C17.3499 2.80662 17.1932 2.64992 16.9999 2.64992H14.6214V3.34471C14.6214 3.73649 14.1912 3.97607 13.8581 3.76981Z" fill="#D2D2D2"/>
<path d="M1.97678 1.1586L1.1347 2.0596C1.04815 2.15222 1 2.27425 1 2.40101V8.12363C1 8.23748 1.03886 8.34793 1.11014 8.4367L1.41239 8.81308C1.50729 8.93125 1.65068 9.00001 1.80224 9.00001H9.22808C9.36206 9.00001 9.49043 8.94624 9.58441 8.85076L9.85633 8.57453C9.9484 8.481 10 8.35502 10 8.22377V2.9191C10 2.78785 9.9484 2.66187 9.85633 2.56834L9.58441 2.2921C9.49043 2.19663 9.36206 2.14286 9.22808 2.14286H5.42817C5.29419 2.14286 5.16582 2.0891 5.07184 1.99362L4.24066 1.14925C4.14668 1.05377 4.01831 1.00001 3.88433 1.00001H2.34208C2.2036 1.00001 2.07133 1.05743 1.97678 1.1586Z" fill="#D2D2D2"/>
<path d="M10.9768 11.1586L10.1347 12.0596C10.0481 12.1522 10 12.2742 10 12.401V18.1236C10 18.2375 10.0389 18.3479 10.1101 18.4367L10.4124 18.8131C10.5073 18.9313 10.6507 19 10.8022 19H18.2281C18.3621 19 18.4904 18.9462 18.5844 18.8508L18.8563 18.5745C18.9484 18.481 19 18.355 19 18.2238V12.9191C19 12.7879 18.9484 12.6619 18.8563 12.5683L18.5844 12.2921C18.4904 12.1966 18.3621 12.1429 18.2281 12.1429H14.4282C14.2942 12.1429 14.1658 12.0891 14.0718 11.9936L13.2407 11.1492C13.1467 11.0538 13.0183 11 12.8843 11H11.3421C11.2036 11 11.0713 11.0574 10.9768 11.1586Z" fill="#D2D2D2"/>
<path d="M1.3501 10.8501H2.6501V16.0001C2.6501 16.1934 2.8068 16.3501 3.0001 16.3501H5V15.6551C5 15.2633 5.43014 15.0237 5.76323 15.23L7.57219 16.3501H7.6501V16.3984L7.89505 16.55C8.22005 16.7513 8.20818 17.228 7.87357 17.4128L7.6501 17.5362V17.6501H7.44394L5.74175 18.5903C5.4085 18.7744 5 18.5333 5 18.1526V17.6501H3.0001C2.08883 17.6501 1.3501 16.9114 1.3501 16.0001V10.8501Z" fill="#D2D2D2"/>
</svg>
