<svg width="24" height="24" viewBox="0 0 24 24" fill="none" xmlns="http://www.w3.org/2000/svg">
<path fill-rule="evenodd" clip-rule="evenodd" d="M13.8484 6.91277C14.406 6.50336 14.5261 5.71948 14.1167 5.16194C13.7073 4.60439 12.9234 4.4843 12.3658 4.89371C11.8083 5.30312 11.6882 6.087 12.0976 6.64454C12.507 7.20209 13.2909 7.32218 13.8484 6.91277ZM15.3256 4.27423C16.2253 5.49945 15.9613 7.22201 14.7361 8.12168C13.7994 8.8095 12.572 8.81723 11.6439 8.23522L9.20775 10.6663C9.28588 10.8397 9.34924 11.0212 9.39623 11.2092L15.6425 11.2093C16.0642 9.97019 17.3253 9.17357 18.6642 9.37869C20.1667 9.60888 21.1982 11.0135 20.968 12.516C20.7378 14.0186 19.3331 15.05 17.8306 14.8198C16.6804 14.6436 15.8062 13.7791 15.5628 12.7093L9.41551 12.7092C9.36726 12.9259 9.29737 13.1345 9.20822 13.3326L11.6439 15.7632C12.572 15.1812 13.7994 15.1889 14.7361 15.8768C15.9613 16.7764 16.2253 18.499 15.3256 19.7242C14.4259 20.9494 12.7033 21.2133 11.4781 20.3136C10.3851 19.511 10.0571 18.0535 10.6379 16.8784L8.28398 14.5294C7.72614 14.98 7.01618 15.2499 6.2432 15.2499C4.44832 15.2499 2.99329 13.7949 2.99329 12C2.99329 10.2051 4.44832 8.75006 6.2432 8.75006C7.0158 8.75006 7.72543 9.01965 8.28315 9.4699L10.6379 7.12002C10.0571 5.94495 10.3851 4.48741 11.4781 3.6848C12.7033 2.78512 14.4259 3.04902 15.3256 4.27423ZM6.2432 10.2499C5.27666 10.2499 4.49312 11.0334 4.49312 12C4.49312 12.9665 5.27666 13.7501 6.2432 13.7501C7.20975 13.7501 7.99329 12.9665 7.99329 12C7.99329 11.0334 7.20975 10.2499 6.2432 10.2499ZM19.4854 12.2889C19.3807 12.9726 18.7415 13.442 18.0577 13.3373C17.374 13.2325 16.9046 12.5933 17.0094 11.9096C17.1141 11.2258 17.7533 10.7565 18.4371 10.8612C19.1208 10.966 19.5902 11.6052 19.4854 12.2889ZM14.1167 18.8365C14.5261 18.279 14.406 17.4951 13.8484 17.0857C13.2909 16.6763 12.507 16.7963 12.0976 17.3539C11.6882 17.9114 11.8083 18.6953 12.3658 19.1047C12.9234 19.5141 13.7073 19.394 14.1167 18.8365Z" fill="#B3B3B3"/>
</svg>
