<svg width="24" height="24" viewBox="0 0 24 24" fill="none" xmlns="http://www.w3.org/2000/svg">
<path fill-rule="evenodd" clip-rule="evenodd" d="M10.75 5C10.75 4.30964 11.3096 3.75 12 3.75C12.6904 3.75 13.25 4.30964 13.25 5C13.25 5.69036 12.6904 6.25 12 6.25C11.3096 6.25 10.75 5.69036 10.75 5ZM11.25 7.64648C11.0769 7.59752 10.9107 7.53202 10.7533 7.45181L6.90238 13.0142C7.42475 13.5147 7.75 14.2194 7.75 15C7.75 15.3449 7.68652 15.6749 7.57062 15.979L9.74355 17.4277C10.1022 16.9139 10.6319 16.5283 11.25 16.3535V7.64648ZM12.75 16.3535V7.64648C12.9231 7.59752 13.0893 7.53202 13.2467 7.4518L17.0976 13.0142C16.5752 13.5147 16.25 14.2194 16.25 15C16.25 15.3448 16.3135 15.6749 16.4294 15.979L14.2564 17.4276C13.8978 16.9139 13.3681 16.5283 12.75 16.3535ZM14.7483 18.9025C14.7494 18.9349 14.75 18.9674 14.75 19C14.75 20.5188 13.5188 21.75 12 21.75C10.4812 21.75 9.25 20.5188 9.25 19C9.25 18.9674 9.25057 18.9349 9.2517 18.9025L6.67254 17.1831C6.20913 17.5387 5.62924 17.75 5 17.75C3.48122 17.75 2.25 16.5188 2.25 15C2.25 13.4812 3.48122 12.25 5 12.25C5.19423 12.25 5.38375 12.2701 5.56659 12.3084L9.6439 6.41899C9.39386 6.00472 9.25 5.51916 9.25 5C9.25 3.48122 10.4812 2.25 12 2.25C13.5188 2.25 14.75 3.48122 14.75 5C14.75 5.51916 14.6061 6.00471 14.3561 6.41898L18.4334 12.3084C18.6163 12.2701 18.8058 12.25 19 12.25C20.5188 12.25 21.75 13.4812 21.75 15C21.75 16.5188 20.5188 17.75 19 17.75C18.3708 17.75 17.7909 17.5387 17.3275 17.1831L14.7483 18.9025ZM5 13.75C4.30964 13.75 3.75 14.3096 3.75 15C3.75 15.6904 4.30964 16.25 5 16.25C5.69036 16.25 6.25 15.6904 6.25 15C6.25 14.3096 5.69036 13.75 5 13.75ZM19 13.75C18.3096 13.75 17.75 14.3096 17.75 15C17.75 15.6904 18.3096 16.25 19 16.25C19.6904 16.25 20.25 15.6904 20.25 15C20.25 14.3096 19.6904 13.75 19 13.75ZM12 17.75C11.3096 17.75 10.75 18.3096 10.75 19C10.75 19.6904 11.3096 20.25 12 20.25C12.6904 20.25 13.25 19.6904 13.25 19C13.25 18.3096 12.6904 17.75 12 17.75Z" fill="#B3B3B3"/>
</svg>
