<svg width="24" height="24" viewBox="0 0 24 24" fill="none" xmlns="http://www.w3.org/2000/svg">
<path fill-rule="evenodd" clip-rule="evenodd" d="M18.024 18.204C20.0942 18.1667 21.3822 15.9415 20.3833 14.1278L19.5858 12.6797C19.3814 12.3085 19.3789 11.859 19.5793 11.4856L20.3369 10.0738C21.285 8.3071 20.0845 6.15237 18.0833 6.02872L16.1466 5.90906C15.7473 5.88439 15.3839 5.67008 15.1691 5.33255L14.1792 3.77696C13.097 2.07645 10.6136 2.07945 9.53552 3.78256L8.6474 5.18559C8.42384 5.53876 8.03856 5.75682 7.62069 5.76667L5.9551 5.80596C3.87379 5.85505 2.59971 8.10933 3.63121 9.91772L4.40929 11.2818C4.62136 11.6536 4.62845 12.1081 4.42807 12.4863L3.64799 13.9588C2.70396 15.7407 3.93529 17.899 5.94964 17.9932L7.80287 18.0798C8.20045 18.0984 8.56541 18.3052 8.78566 18.6367L9.86586 20.2625C10.9741 21.9307 13.4367 21.8926 14.4929 20.191L15.3412 18.8242C15.565 18.4637 15.9565 18.2413 16.3808 18.2336L18.024 18.204ZM19.0694 14.8515C19.5234 15.6758 18.938 16.6873 17.997 16.7043L16.3537 16.7339C15.4203 16.7507 14.5591 17.24 14.0668 18.0332L13.2184 19.3999C12.7384 20.1734 11.619 20.1907 11.1152 19.4325L10.035 17.8066C9.55049 17.0773 8.74757 16.6223 7.87291 16.5815L6.01967 16.4948C5.10406 16.452 4.54437 15.471 4.97347 14.661L5.75355 13.1885C6.19439 12.3564 6.1788 11.3566 5.71223 10.5386L4.93415 9.17452C4.46529 8.35253 5.04442 7.32785 5.99047 7.30554L7.65606 7.26626C8.57536 7.24458 9.42299 6.76484 9.91482 5.98786L10.8029 4.58484C11.293 3.8107 12.4218 3.80934 12.9137 4.58229L13.9036 6.13788C14.3762 6.88043 15.1756 7.35193 16.0541 7.40621L17.9908 7.52587C18.9005 7.58207 19.4461 8.56149 19.0152 9.36455L18.2576 10.7763C17.8168 11.5978 17.8221 12.5867 18.2719 13.4033L19.0694 14.8515ZM10.2595 12C10.2595 11.0387 11.0387 10.2595 12 10.2595C12.9612 10.2595 13.7404 11.0387 13.7404 12C13.7404 12.9612 12.9612 13.7404 12 13.7404C11.0387 13.7404 10.2595 12.9612 10.2595 12ZM12 8.75952C10.2103 8.75952 8.75952 10.2103 8.75952 12C8.75952 13.7896 10.2103 15.2404 12 15.2404C13.7896 15.2404 15.2404 13.7896 15.2404 12C15.2404 10.2103 13.7896 8.75952 12 8.75952Z" fill="#B3B3B3"/>
</svg>
