<svg width="20" height="20" viewBox="0 0 20 20" fill="none" xmlns="http://www.w3.org/2000/svg">
<g clip-path="url(#clip0_71896_495468)">
<path fill-rule="evenodd" clip-rule="evenodd" d="M0 7.50005C0 9.43305 1.74113 11.0001 3.88891 11.0001H15.5556C18.0103 11.0001 20.0001 9.2092 20.0001 7.00004C20.0001 4.79089 18.0103 3.00002 15.5556 3.00002C15.0927 3.00002 14.6463 3.06372 14.2266 3.18192C13.6005 1.33976 11.6964 0 9.4445 0C6.85605 0 4.72699 1.77022 4.4704 4.03889C4.28071 4.01329 4.08653 4.00002 3.88891 4.00002C1.74113 4.00002 0 5.56704 0 7.50005ZM0.337824 16.7453C0.149763 16.5513 0.149763 16.2431 0.337824 16.0491L3.14137 13.1579C3.45406 12.8354 4.00033 13.0568 4.00033 13.506V14.3503C4.00033 14.6264 4.22419 14.8503 4.50034 14.8503H7.49987C7.77601 14.8503 7.99987 15.0741 7.99987 15.3503V17.4441C7.99987 17.7203 7.77601 17.9441 7.49987 17.9441H4.50034C4.22419 17.9441 4.00033 18.168 4.00033 18.4441V19.2885C4.00033 19.7376 3.45406 19.959 3.14137 19.6365L0.337824 16.7453ZM19.6623 16.7453C19.8504 16.5513 19.8504 16.2431 19.6623 16.0491L16.8587 13.1579C16.5461 12.8354 15.9998 13.0568 15.9998 13.506V14.3503C15.9998 14.6264 15.7759 14.8503 15.4998 14.8503H12.4998C12.2236 14.8503 11.9998 15.0741 11.9998 15.3503V17.4441C11.9998 17.7203 12.2236 17.9441 12.4998 17.9441H15.4998C15.7759 17.9441 15.9998 18.168 15.9998 18.4441V19.2885C15.9998 19.7376 16.5461 19.959 16.8587 19.6365L19.6623 16.7453ZM13.073 9.58323C13.073 9.58324 13.073 9.58325 13.073 9.58325L13.1216 9.59499C13.1608 9.58561 13.1961 9.564 13.2223 9.53327C13.2485 9.50254 13.2643 9.46429 13.2673 9.42402C13.275 9.3229 13.2457 7.21841 11.8227 5.65386C11.7977 5.57464 11.8139 5.53068 11.8216 5.50951C11.823 5.50576 11.8241 5.50273 11.8247 5.50034C11.9057 5.38156 12.2352 5.30725 12.4269 5.30142C12.497 5.30156 12.5413 5.26006 12.5738 5.20005C12.588 5.17111 12.5931 5.13856 12.5885 5.10666C12.5839 5.07476 12.5698 5.04498 12.548 5.02123C12.5346 5.00116 12.2997 4.75521 11.8415 4.64438C11.4318 4.54527 10.9876 4.66114 10.7234 4.75211C10.3127 4.51469 9.83685 4.33171 9.34553 4.21285C8.73994 4.06634 7.28758 3.83507 6.52946 5.18115C6.10681 5.42349 5.97933 5.7358 6.05086 5.94251C6.11376 6.11175 6.30342 6.2606 6.68224 6.19822L6.75548 6.18084C7.04907 6.11467 7.46434 6.04313 8.07775 6.1573C8.16248 6.45335 8.51838 7.27823 9.746 7.57521C9.82739 7.5949 9.90537 7.56272 9.93711 7.50107C9.96905 7.43976 9.95668 7.35062 9.89785 7.30245C9.89785 7.30245 9.58931 7.00476 9.4507 6.64491C10.3615 7.10541 11.1527 7.77832 11.4016 8.11264C11.4259 8.1439 11.4602 8.16599 11.4987 8.1753C11.5372 8.18462 11.5777 8.18062 11.6137 8.16395C11.6492 8.15036 11.6786 8.12431 11.6964 8.09066C11.7141 8.05701 11.719 8.01805 11.7101 7.98105C11.6972 7.89294 11.242 6.04593 8.70398 5.43194L8.04907 5.27351C8.26513 5.17175 8.63223 5.08827 9.27407 5.22643C12.1104 5.84464 12.9156 9.30387 12.9487 9.4462C12.9492 9.44845 12.9496 9.44988 12.9497 9.45044C12.966 9.52333 13.0072 9.56724 13.0728 9.5832C13.0729 9.58321 13.0729 9.58322 13.073 9.58323Z" fill="#CCCCCC"/>
</g>
<defs>
<clipPath id="clip0_71896_495468">
<rect width="20.0001" height="20.0001" fill="white"/>
</clipPath>
</defs>
</svg>
