<svg width="20" height="20" viewBox="0 0 20 20" fill="none" xmlns="http://www.w3.org/2000/svg">
<path d="M10.9333 7.09966C10.9333 6.82351 10.7094 6.59966 10.4333 6.59966H9.69995C9.42381 6.59966 9.19995 6.82351 9.19995 7.09965V12.8997C9.19995 13.1758 9.42381 13.3997 9.69995 13.3997H10.4333C10.7094 13.3997 10.9333 13.1758 10.9333 12.8997V7.09966Z" fill="#CCCCCC"/>
<path d="M11.7334 8.96684C11.7334 8.6907 11.9573 8.46684 12.2334 8.46684H12.9001C13.1762 8.46684 13.4001 8.6907 13.4001 8.96684V11.2335C13.4001 11.5097 13.1762 11.7335 12.9001 11.7335H12.2334C11.9573 11.7335 11.7334 11.5097 11.7334 11.2335V8.96684Z" fill="#CCCCCC"/>
<path d="M8.26676 8.96684C8.26676 8.6907 8.04291 8.46684 7.76676 8.46684H7.1001C6.82396 8.46684 6.6001 8.6907 6.6001 8.96684V11.2335C6.6001 11.5097 6.82396 11.7335 7.1001 11.7335H7.76676C8.04291 11.7335 8.26676 11.5097 8.26676 11.2335V8.96684Z" fill="#CCCCCC"/>
<path fill-rule="evenodd" clip-rule="evenodd" d="M2 5.3252C2 5.11649 2.12965 4.92973 2.32519 4.85676L9.80625 2.06512C9.91873 2.02314 10.0426 2.02305 10.1551 2.06484L17.6741 4.85707C17.87 4.92983 18 5.11678 18 5.32579V14.8054C18 15.0171 17.8666 15.2059 17.6671 15.2767L10.1518 17.9407C10.0435 17.9791 9.92533 17.979 9.8171 17.9405L2.33236 15.2769C2.13309 15.206 2 15.0174 2 14.8059V5.3252ZM3.68738 6.14689V13.9884L9.98549 16.2073L16.3126 13.9869V6.14995L9.98282 3.79204L3.68738 6.14689Z" fill="#CCCCCC"/>
</svg>
