<svg width="24" height="24" viewBox="0 0 24 24" fill="none" xmlns="http://www.w3.org/2000/svg">
<path fill-rule="evenodd" clip-rule="evenodd" d="M6.57641 5.54744C6.21519 5.94594 5.96075 6.53288 5.96075 7.43928C5.96075 10.531 6.26691 12.1486 6.68092 12.9778C6.87521 13.367 7.07536 13.5449 7.25037 13.6392C7.43542 13.7388 7.67 13.7867 8.00185 13.7867C8.09447 13.7867 8.28222 13.7296 8.55778 13.4291C8.82365 13.1392 9.0868 12.7109 9.32313 12.2052C9.80247 11.1795 10.0779 10.0435 10.0964 9.56278C10.1123 9.14887 10.4608 8.82624 10.8747 8.84216C11.2886 8.85809 11.6112 9.20654 11.5953 9.62044C11.5667 10.3627 11.2153 11.6992 10.6821 12.8403C10.4121 13.418 10.0725 13.9967 9.66335 14.4429C9.26391 14.8785 8.70445 15.2867 8.00185 15.2867C7.53851 15.2867 7.0266 15.2223 6.53921 14.9599C6.04179 14.692 5.64357 14.2581 5.33888 13.6478C4.75495 12.4783 4.46075 10.5471 4.46075 7.43928C4.46075 6.22967 4.81085 5.26175 5.46503 4.54005C6.10821 3.83048 6.97954 3.43152 7.89544 3.22123C9.7032 2.80616 11.914 3.07492 13.67 3.42815C15.0312 3.70197 16.5085 4.28618 17.6643 5.14037C18.8109 5.98767 19.7533 7.19187 19.7533 8.70749C19.7533 9.93921 19.6215 10.881 19.3012 11.7341C18.9819 12.5841 18.4949 13.2925 17.8731 14.074C17.6197 14.3924 17.2916 14.7152 16.9697 15.0235C16.8997 15.0906 16.8296 15.1573 16.7596 15.224L16.7595 15.2241L16.6862 15.2939C16.7087 15.3593 16.7338 15.3918 16.7515 15.4113C16.7949 15.459 16.8909 15.5314 17.1398 15.6184C17.5308 15.7551 17.737 16.1828 17.6003 16.5739C17.4637 16.9649 17.0359 17.1711 16.6449 17.0344C16.2925 16.9113 15.927 16.7342 15.6416 16.4203C15.6317 16.4094 15.622 16.3985 15.6125 16.3874C15.1346 16.9379 14.7882 17.4816 14.6645 18.041C14.5423 18.5929 14.6304 18.9025 14.7367 19.0708C14.843 19.2394 15.0446 19.3885 15.3973 19.4641C15.788 19.5478 16.1005 19.4712 16.3189 19.3752C16.4298 19.3265 16.5148 19.2732 16.5689 19.2349C16.5957 19.216 16.614 19.2014 16.6231 19.1938L16.6284 19.1893C16.9297 18.9118 17.3989 18.9272 17.6812 19.2256C17.9659 19.5265 17.9528 20.0011 17.6519 20.2858L17.6497 20.2879L17.6472 20.2902L17.6414 20.2956L17.6261 20.3094C17.6144 20.3198 17.5994 20.3328 17.5814 20.3478C17.5453 20.3777 17.4965 20.4161 17.4356 20.4593C17.3142 20.5451 17.1414 20.6523 16.9223 20.7485C16.4808 20.9425 15.8451 21.0941 15.083 20.9308C14.448 20.7947 13.8444 20.4676 13.4681 19.8713C13.0917 19.2748 13.0197 18.531 13.1999 17.7168C13.4476 16.5978 14.1955 15.6773 14.8928 14.9541C15.1752 14.6612 15.4696 14.3809 15.7366 14.1267L15.7367 14.1267C15.8037 14.0629 15.869 14.0007 15.932 13.9404C16.2581 13.628 16.5169 13.3692 16.6993 13.14C17.289 12.3989 17.6605 11.8364 17.8969 11.2068C18.1322 10.5802 18.2533 9.83363 18.2533 8.70749C18.2533 7.86523 17.7296 7.05378 16.7728 6.3467C15.8254 5.64651 14.562 5.13763 13.3742 4.89869C11.6551 4.55289 9.71026 4.34357 8.23111 4.68319C7.50356 4.85024 6.94863 5.13681 6.57641 5.54744ZM14.9229 8.98535C14.2325 8.98535 13.6729 9.545 13.6729 10.2354C13.6729 10.9257 14.2325 11.4854 14.9229 11.4854C15.6132 11.4854 16.1729 10.9257 16.1729 10.2354C16.1729 9.545 15.6132 8.98535 14.9229 8.98535Z" fill="#B3B3B3"/>
</svg>
