<svg width="24" height="24" viewBox="0 0 24 24" fill="none" xmlns="http://www.w3.org/2000/svg">
<path fill-rule="evenodd" clip-rule="evenodd" d="M4.74991 5C4.74991 4.30964 5.30955 3.75 5.99991 3.75H17.9999C18.6903 3.75 19.2499 4.30964 19.2499 5V14C19.2499 14.6904 18.6903 15.25 17.9999 15.25H5.99991C5.30955 15.25 4.74991 14.6904 4.74991 14V5ZM5.99991 2.25C4.48113 2.25 3.24991 3.48122 3.24991 5V14C3.24991 15.5188 4.48113 16.75 5.99991 16.75H11.2927C11.2651 16.8282 11.25 16.9124 11.25 17.0001V18.0001C11.25 18.048 11.2545 18.0948 11.263 18.1401C10.7555 18.3414 10.3499 18.7443 10.1453 19.2501H3C2.58579 19.2501 2.25 19.5859 2.25 20.0001C2.25 20.4143 2.58579 20.7501 3 20.7501H10.1453C10.442 21.483 11.1606 22 11.9999 22C12.8392 22 13.5578 21.483 13.8545 20.7501H21C21.4142 20.7501 21.75 20.4143 21.75 20.0001C21.75 19.5859 21.4142 19.2501 21 19.2501H13.8546C13.6499 18.7444 13.2444 18.3414 12.7369 18.1402C12.7455 18.0948 12.75 18.048 12.75 18.0001V17.0001C12.75 16.9124 12.7349 16.8282 12.7073 16.75H17.9999C19.5187 16.75 20.7499 15.5188 20.7499 14V5C20.7499 3.48122 19.5187 2.25 17.9999 2.25H5.99991ZM12.4999 20C12.4999 20.2761 12.2761 20.5 11.9999 20.5C11.7238 20.5 11.4999 20.2761 11.4999 20C11.4999 19.7239 11.7238 19.5 11.9999 19.5C12.2761 19.5 12.4999 19.7239 12.4999 20ZM9 6.2499C9.41421 6.2499 9.75 6.58569 9.75 6.9999V11.9999C9.75 12.4141 9.41421 12.7499 9 12.7499C8.58579 12.7499 8.25 12.4141 8.25 11.9999V6.9999C8.25 6.58569 8.58579 6.2499 9 6.2499ZM12 6.2499C11.5858 6.2499 11.25 6.58569 11.25 6.9999V9.9999V11.9999C11.25 12.4141 11.5858 12.7499 12 12.7499C12.4142 12.7499 12.75 12.4141 12.75 11.9999V10.7499H13.5C14.7426 10.7499 15.75 9.74254 15.75 8.4999C15.75 7.25726 14.7426 6.2499 13.5 6.2499H12ZM12.75 7.7499V9.2499H13.5C13.9142 9.2499 14.25 8.91411 14.25 8.4999C14.25 8.08569 13.9142 7.7499 13.5 7.7499H12.75Z" fill="#B3B3B3"/>
</svg>
