<svg width="24" height="24" viewBox="0 0 24 24" fill="none" xmlns="http://www.w3.org/2000/svg">
<path fill-rule="evenodd" clip-rule="evenodd" d="M6.03396 5.09993C5.76993 5.32287 5.75 5.4612 5.75 5.5C5.75 5.5388 5.76993 5.67713 6.03396 5.90007C6.29451 6.12008 6.71602 6.352 7.3025 6.56146C8.46895 6.97805 10.1297 7.25 12 7.25C13.8703 7.25 15.531 6.97805 16.6975 6.56146C17.284 6.352 17.7055 6.12008 17.966 5.90007C18.2301 5.67713 18.25 5.5388 18.25 5.5C18.25 5.4612 18.2301 5.32287 17.966 5.09993C17.7055 4.87992 17.284 4.648 16.6975 4.43854C15.531 4.02195 13.8703 3.75 12 3.75C10.1297 3.75 8.46895 4.02195 7.3025 4.43854C6.71602 4.648 6.29451 4.87992 6.03396 5.09993ZM5.06623 3.95385C4.62183 4.32909 4.25 4.84844 4.25 5.5V6.0288L5.25039 19.0338C5.2638 19.6215 5.62547 20.0667 6.00728 20.3675C6.40483 20.6809 6.93362 20.9302 7.52019 21.1257C8.70117 21.5194 10.285 21.75 12 21.75C13.715 21.75 15.2988 21.5194 16.4798 21.1257C17.0664 20.9302 17.5952 20.6809 17.9927 20.3675C18.3745 20.0667 18.7362 19.6215 18.7496 19.0338L19.75 6.0288V5.5C19.75 4.84844 19.3782 4.32909 18.9338 3.95385C18.4859 3.57566 17.8823 3.26888 17.202 3.02593C15.8349 2.53769 13.9957 2.25 12 2.25C10.0043 2.25 8.16505 2.53769 6.798 3.02593C6.11774 3.26888 5.51411 3.57566 5.06623 3.95385ZM17.25 18.9712L18.1266 7.57577C17.8423 7.72405 17.5311 7.85653 17.202 7.97407C15.8349 8.46231 13.9957 8.75 12 8.75C10.0043 8.75 8.16505 8.46231 6.798 7.97407C6.46889 7.85653 6.15771 7.72405 5.87343 7.57577L6.75 18.9712V18.9886C6.75731 19.0078 6.79254 19.0766 6.93574 19.1894C7.14542 19.3547 7.49531 19.5363 7.99453 19.7027C8.98512 20.0329 10.4013 20.25 12 20.25C13.5987 20.25 15.0149 20.0329 16.0055 19.7027C16.5047 19.5363 16.8546 19.3547 17.0643 19.1894C17.2075 19.0766 17.2427 19.0078 17.25 18.9886V18.9712ZM10 15.25C9.0335 15.25 8.25 16.0335 8.25 17C8.25 17.9665 9.0335 18.75 10 18.75C10.9665 18.75 11.75 17.9665 11.75 17C11.75 16.0335 10.9665 15.25 10 15.25ZM14 15.25C14.2841 15.25 14.5438 15.4105 14.6708 15.6646L15.6708 17.6646C15.7871 17.8971 15.7746 18.1732 15.638 18.3943C15.5013 18.6154 15.2599 18.75 15 18.75H13C12.7401 18.75 12.4987 18.6154 12.362 18.3943C12.2254 18.1732 12.2129 17.8971 12.3292 17.6646L13.3292 15.6646C13.4562 15.4105 13.7159 15.25 14 15.25ZM12.0186 11.3428C11.6828 11.1004 11.214 11.1761 10.9716 11.512L9.80104 13.1337C9.55862 13.4696 9.63436 13.9383 9.97023 14.1808L11.5919 15.3513C11.9278 15.5937 12.3966 15.518 12.639 15.1821L13.8095 13.5604C14.0519 13.2246 13.9762 12.7558 13.6403 12.5133L12.0186 11.3428Z" fill="#B3B3B3"/>
</svg>
