<svg width="24" height="24" viewBox="0 0 24 24" fill="none" xmlns="http://www.w3.org/2000/svg">
<path fill-rule="evenodd" clip-rule="evenodd" d="M6.50019 5.85051C7.96027 4.54371 9.88655 3.74998 12 3.74998C16.1828 3.74998 19.6396 6.86349 20.1773 10.899C20.232 11.3096 20.6092 11.5981 21.0198 11.5434C21.4303 11.4887 21.7188 11.1115 21.6641 10.7009C21.0285 5.93003 16.9446 2.24998 12 2.24998C9.50333 2.24998 7.22428 3.18938 5.49982 4.73281C5.19118 5.00905 5.16491 5.4832 5.44116 5.79184C5.7174 6.10049 6.19155 6.12676 6.50019 5.85051ZM3.82274 13.1009C3.76803 12.6904 3.39084 12.4019 2.98026 12.4566C2.56967 12.5113 2.28117 12.8885 2.33588 13.2991C2.97155 18.07 7.05541 21.75 12 21.75C14.4967 21.75 16.7758 20.8106 18.5003 19.2671C18.8089 18.9908 18.8352 18.5167 18.5589 18.208C18.2827 17.8994 17.8085 17.8731 17.4999 18.1494C16.0398 19.4562 14.1135 20.25 12 20.25C7.81723 20.25 4.36043 17.1365 3.82274 13.1009ZM14.4802 5.924C14.162 5.65884 13.6891 5.70186 13.4239 6.02008C13.1588 6.3383 13.2018 6.81122 13.52 7.07638L14.9285 8.24999H4.00003C3.58582 8.24999 3.25003 8.58578 3.25003 8.99999C3.25003 9.41421 3.58582 9.74999 4.00003 9.74999H14.9286L13.5199 10.9239C13.2016 11.1891 13.1586 11.662 13.4238 11.9802C13.689 12.2984 14.1619 12.3414 14.4801 12.0762L17.4728 9.58238C17.4831 9.57407 17.4931 9.56547 17.5029 9.55656C17.7738 9.31223 17.8269 8.91082 17.6389 8.60653C17.616 8.56944 17.5897 8.53401 17.56 8.50074C17.5308 8.46796 17.4993 8.43833 17.466 8.41188L14.4802 5.924ZM10.5761 12.0201C10.3109 11.7019 9.83801 11.6589 9.51982 11.9241L6.53884 14.4085C6.49755 14.4408 6.45903 14.4779 6.42411 14.5198C6.15891 14.838 6.20186 15.3109 6.52004 15.5761L9.5198 18.0764C9.83798 18.3416 10.3109 18.2986 10.5761 17.9804C10.8413 17.6622 10.7984 17.1893 10.4802 16.9241L9.07155 15.75H20.0001C20.4143 15.75 20.7501 15.4143 20.7501 15C20.7501 14.5858 20.4143 14.25 20.0001 14.25H9.0719L10.4802 13.0764C10.7983 12.8112 10.8413 12.3383 10.5761 12.0201Z" fill="#B3B3B3"/>
</svg>
