<svg width="24" height="24" viewBox="0 0 24 24" fill="none" xmlns="http://www.w3.org/2000/svg">
<path fill-rule="evenodd" clip-rule="evenodd" d="M14.285 3.25C12.963 3.25 11.9542 3.73479 11.2888 4.52669C10.6409 5.29777 10.3779 6.28797 10.3779 7.21991V11.2393H8.12793C7.71372 11.2393 7.37793 11.5751 7.37793 11.9893C7.37793 12.4035 7.71372 12.7393 8.12793 12.7393H10.377V16.8378C10.377 17.5079 10.1861 18.1277 9.81773 18.566C9.46689 18.9836 8.89707 19.3077 7.96991 19.3077C7.04138 19.3077 6.45125 18.9821 6.08338 18.5575C5.70033 18.1152 5.5 17.4964 5.5 16.8378C5.5 16.4236 5.16421 16.0878 4.75 16.0878C4.33579 16.0878 4 16.4236 4 16.8378C4 17.7813 4.285 18.7723 4.9496 19.5396C5.62937 20.3243 6.64919 20.8077 7.96991 20.8077C9.292 20.8077 10.3007 20.3229 10.9661 19.531C11.614 18.7599 11.877 17.7697 11.877 16.8378V13.1886H11.8779V12.7393H14.1279C14.5421 12.7393 14.8779 12.4035 14.8779 11.9893C14.8779 11.5751 14.5421 11.2393 14.1279 11.2393H11.8779V7.21991C11.8779 6.54976 12.0689 5.93001 12.4372 5.49166C12.7881 5.07412 13.3579 4.75 14.285 4.75C15.2136 4.75 15.8037 5.07554 16.1716 5.50023C16.5546 5.94243 16.755 6.56131 16.755 7.21991C16.755 7.63412 17.0907 7.96991 17.505 7.96991C17.9192 7.96991 18.255 7.63412 18.255 7.21991C18.255 6.27642 17.9699 5.28535 17.3054 4.51812C16.6256 3.73337 15.6058 3.25 14.285 3.25ZM19.8852 16.2803C20.178 15.9874 20.178 15.5126 19.8852 15.2197C19.5923 14.9268 19.1174 14.9268 18.8245 15.2197L17.2335 16.8107L15.6425 15.2197C15.3496 14.9268 14.8747 14.9268 14.5819 15.2197C14.289 15.5126 14.289 15.9875 14.5819 16.2804L16.1728 17.8713L14.5819 19.4623C14.289 19.7552 14.289 20.2301 14.5819 20.523C14.8747 20.8159 15.3496 20.8159 15.6425 20.523L17.2335 18.932L18.8245 20.523C19.1174 20.8159 19.5923 20.8159 19.8852 20.523C20.178 20.2301 20.178 19.7552 19.8852 19.4623L18.2942 17.8713L19.8852 16.2803Z" fill="#B3B3B3"/>
</svg>
