<svg width="24" height="24" viewBox="0 0 24 24" fill="none" xmlns="http://www.w3.org/2000/svg">
<path fill-rule="evenodd" clip-rule="evenodd" d="M9.52874 3.40021C9.66783 3.2959 9.83135 3.2472 9.99268 3.25031L10.0051 3.25021C10.4193 3.25021 10.7551 3.586 10.7551 4.00021V9.00021C10.7551 9.41442 10.4193 9.75021 10.0051 9.75021C9.5909 9.75021 9.25511 9.41442 9.25511 9.00021V5.48044L8.42874 6.10021C8.09737 6.34874 7.62727 6.28158 7.37874 5.95021C7.13021 5.61884 7.19737 5.14874 7.52874 4.90021L9.52874 3.40021ZM10.7288 12.9999C10.7288 12.5857 10.393 12.2499 9.97875 12.2499C9.56454 12.2499 9.22875 12.5857 9.22875 12.9999V19.9999C9.22875 20.4142 9.56454 20.7499 9.97875 20.7499C10.393 20.7499 10.7288 20.4142 10.7288 19.9999V12.9999ZM13.9917 12.25C14.406 12.25 14.7417 12.5858 14.7417 13V18.523L15.5681 17.9032C15.8995 17.6547 16.3696 17.7219 16.6181 18.0532C16.8666 18.3846 16.7995 18.8547 16.4681 19.1032L14.4681 20.6032C14.1637 20.8315 13.7423 20.7934 13.483 20.5289C13.3347 20.3919 13.2417 20.1957 13.2417 19.9778V13C13.2417 12.5858 13.5775 12.25 13.9917 12.25ZM14.7541 4.00021C14.7541 3.586 14.4183 3.25021 14.0041 3.25021C13.5899 3.25021 13.2541 3.586 13.2541 4.00021V9.00021C13.2541 9.41443 13.5899 9.75021 14.0041 9.75021C14.4183 9.75021 14.7541 9.41443 14.7541 9.00021V4.00021Z" fill="#B3B3B3"/>
<path fill-rule="evenodd" clip-rule="evenodd" d="M6.9995 16.5C7.41371 16.5 7.7495 16.1642 7.7495 15.75C7.7495 15.3358 7.41371 15 6.9995 15H6.85575C5.6131 15 4.60573 13.9926 4.60573 12.75C4.60573 11.5074 5.6131 10.5 6.85575 10.5L11.4002 10.5L12.6583 10.5L17.2031 10.5C18.4458 10.5 19.4532 11.5074 19.4532 12.75C19.4532 13.9926 18.4458 15 17.2031 15H17.0594C16.6452 15 16.3094 15.3358 16.3094 15.75C16.3094 16.1642 16.6452 16.5 17.0594 16.5H17.2031C19.2742 16.5 20.9532 14.8211 20.9532 12.75C20.9532 10.6789 19.2742 9 17.2031 9H12.6583H11.4006H6.85575C4.78466 9 3.10571 10.6789 3.10571 12.75C3.10571 14.8211 4.78466 16.5 6.85575 16.5H6.9995Z" fill="#B3B3B3"/>
</svg>
