<svg width="25" height="25" fill="none" xmlns="http://www.w3.org/2000/svg"><path fill-rule="evenodd" clip-rule="evenodd" d="m11.576 4.674-1.184 4.795c-.162.726-.06.61-.798.88l-4.902 1.725 4.186 1.822-1.493.956-3.877-1.664c-1.033-.46-.973-1.945.093-2.32l5.367-1.89 1.304-5.28c.271-1.101 1.752-1.3 2.305-.31L14.96 7.66l5.157-1.554c1.19-.36 2.118 1.052 1.316 2.002l-3.66 4.34 2.28 4.471c.509.999-.452 2.111-1.514 1.752l-4.078-1.366-.267-1.552 4.243 1.3-2.075-4.071c-.478-.927-.596-.588.158-1.374l3.224-3.823-4.543 1.369c-1.11.344-.948.38-1.452-.588l-2.173-3.892Z" fill="#B3B3B3"/><path fill-rule="evenodd" clip-rule="evenodd" d="m7.1 20.18.748-4.02 1.69-.982-.846 4.58 4.15-3.598.295 1.704-4 3.48c-.89.75-2.231-.016-2.038-1.163Z" fill="#B3B3B3"/></svg>