<svg width="24" height="24" viewBox="0 0 24 24" fill="none" xmlns="http://www.w3.org/2000/svg">
<path fill-rule="evenodd" clip-rule="evenodd" d="M13.642 3.91506C15.2411 4.23982 16.7079 5.03146 17.857 6.18987C18.1487 6.48394 18.6236 6.48585 18.9177 6.19413C19.2118 5.90242 19.2137 5.42755 18.9219 5.13348C17.5639 3.76445 15.8303 2.82888 13.9406 2.44507C12.0508 2.06127 10.0896 2.24647 8.30507 2.97725C6.52054 3.70804 4.99279 4.95159 3.91501 6.55065C2.83723 8.14971 2.25783 10.0325 2.25008 11.9608C2.24233 13.8892 2.80657 15.7765 3.87146 17.3842C4.93635 18.9919 6.45406 20.2477 8.23266 20.9928C10.0113 21.7379 11.9709 21.9388 13.8637 21.5702C15.7565 21.2016 17.4975 20.28 18.8665 18.922C19.1606 18.6302 19.1625 18.1554 18.8708 17.8613C18.5791 17.5672 18.1042 17.5653 17.8101 17.857C16.6517 19.0062 15.1786 19.786 13.577 20.0979C11.9753 20.4098 10.3172 20.2397 8.81225 19.6093C7.30728 18.9788 6.02307 17.9162 5.12201 16.5559C4.22095 15.1955 3.74351 13.5985 3.75007 11.9668C3.75663 10.3352 4.24689 8.74206 5.15885 7.38901C6.07082 6.03596 7.36354 4.98373 8.87352 4.36537C10.3835 3.74701 12.043 3.5903 13.642 3.91506ZM12.5044 9.80725C12.9381 9.90701 13.3325 10.1331 13.6376 10.457C13.9217 10.7585 14.3963 10.7727 14.6978 10.4886C14.9993 10.2046 15.0134 9.7299 14.7294 9.42842C14.2208 8.88859 13.5635 8.51171 12.8407 8.34543C12.1179 8.17915 11.3621 8.23094 10.6687 8.49425C9.97532 8.75755 9.3756 9.22056 8.94537 9.8247C8.51515 10.4289 8.27373 11.147 8.25166 11.8884C8.22958 12.6297 8.42784 13.361 8.82136 13.9896C9.21488 14.6183 9.78598 15.1162 10.4625 15.4203C11.1389 15.7244 11.8904 15.821 12.6218 15.6981C13.3532 15.5751 14.0317 15.238 14.5716 14.7294C14.873 14.4453 14.8872 13.9707 14.6031 13.6692C14.3191 13.3677 13.8444 13.3536 13.5429 13.6376C13.219 13.9428 12.8119 14.145 12.3731 14.2188C11.9342 14.2926 11.4834 14.2346 11.0775 14.0522C10.6716 13.8697 10.3289 13.571 10.0928 13.1938C9.8567 12.8166 9.73775 12.3778 9.75099 11.933C9.76424 11.4882 9.90909 11.0573 10.1672 10.6948C10.4254 10.3323 10.7852 10.0545 11.2012 9.89654C11.6172 9.73855 12.0708 9.70748 12.5044 9.80725Z" fill="#B3B3B3"/>
</svg>
