<svg width="20" height="20" viewBox="0 0 20 20" fill="none" xmlns="http://www.w3.org/2000/svg">
<path fill-rule="evenodd" clip-rule="evenodd" d="M10 3.71429C6.5285 3.71429 3.71429 6.5285 3.71429 10C3.71429 13.4715 6.5285 16.2857 10 16.2857C13.4715 16.2857 16.2857 13.4715 16.2857 10C16.2857 6.5285 13.4715 3.71429 10 3.71429ZM2 10C2 5.58172 5.58172 2 10 2C14.4183 2 18 5.58172 18 10C18 14.4183 14.4183 18 10 18C5.58172 18 2 14.4183 2 10Z" fill="#D2D2D2"/>
<path fill-rule="evenodd" clip-rule="evenodd" d="M9.00008 10V6.50002L9.50008 6.00002H10.5001L11.0001 6.50002V9.38199L14.025 10.8944L14.2501 11.5L13.7501 12.5L13.1419 12.689L9.55287 10.8944L9.00008 10Z" fill="#D2D2D2"/>
</svg>
