<svg xmlns="http://www.w3.org/2000/svg" width="24" height="24" viewBox="0 0 49 49" fill="none"><path fill-rule="evenodd" clip-rule="evenodd" d="M8.5 28.357a1.5 1.5 0 0 1 1.5 1.5v4.572a1.5 1.5 0 0 1-3 0v-4.572a1.5 1.5 0 0 1 1.5-1.5ZM40.5 28.357a1.5 1.5 0 0 1 1.5 1.5v4.572a1.5 1.5 0 0 1-3 0v-4.572a1.5 1.5 0 0 1 1.5-1.5ZM38.155 7.049a1.5 1.5 0 1 1 2.688 1.332L32.95 24.305c2.447 1.907 4.028 4.657 4.028 7.839 0 6.122-5.851 10.642-12.471 10.642s-12.472-4.52-12.472-10.642c0-3.572 1.991-6.598 4.965-8.5V7.715a1.5 1.5 0 0 1 3 0v14.508a14.352 14.352 0 0 1 4.507-.722c2.083 0 4.09.448 5.864 1.252L38.155 7.05ZM24.507 24.501c-5.499 0-9.472 3.666-9.472 7.643 0 3.976 3.973 7.642 9.472 7.642 5.498 0 9.471-3.666 9.471-7.642 0-3.977-3.973-7.643-9.471-7.643Z" fill="#B3B3B3"/></svg>