<svg width="20" height="20" viewBox="0 0 20 20" fill="none" xmlns="http://www.w3.org/2000/svg">
<path fill-rule="evenodd" clip-rule="evenodd" d="M17.1472 10.7991C17.1472 12.1721 16.0342 13.2851 14.6612 13.2851C13.2883 13.2851 12.1752 12.1721 12.1752 10.7991C12.1752 9.42615 13.2883 8.31313 14.6612 8.31313C16.0342 8.31313 17.1472 9.42615 17.1472 10.7991ZM11.6597 14.7328L10.2048 16.1877C10.0737 16.3188 10 16.4967 10 16.6821V19.1504C10 19.3435 10.1565 19.5 10.3496 19.5H18.9729C19.166 19.5 19.3225 19.3435 19.3225 19.1504V16.6821C19.3225 16.4967 19.2489 16.3188 19.1177 16.1877L17.6628 14.7328C17.5317 14.6017 17.3538 14.528 17.1684 14.528H12.1541C11.9687 14.528 11.7908 14.6017 11.6597 14.7328Z" fill="#D2D2D2"/>
<path fill-rule="evenodd" clip-rule="evenodd" d="M4.8193 0.916667C4.8193 0.686548 4.99911 0.5 5.22091 0.5H6.82734C7.04914 0.5 7.22895 0.686548 7.22895 0.916667V2.58333C7.22895 2.81345 7.04914 3 6.82734 3H5.22091C4.99911 3 4.8193 2.81345 4.8193 2.58333V0.916667ZM1.60643 4.25C1.60643 4.01988 1.78624 3.83333 2.00804 3.83333H3.61447C3.83628 3.83333 4.01608 4.01988 4.01608 4.25V5.91667C4.01608 6.14678 3.83628 6.33333 3.61447 6.33333H2.00804C1.78624 6.33333 1.60643 6.14678 1.60643 5.91667V4.25ZM4.8193 4.25C4.8193 4.01988 4.99911 3.83333 5.22091 3.83333H6.82734C7.04914 3.83333 7.22895 4.01988 7.22895 4.25V5.91667C7.22895 6.14678 7.04914 6.33333 6.82734 6.33333H5.22091C4.99911 6.33333 4.8193 6.14678 4.8193 5.91667V4.25ZM10.4418 4.25C10.4418 4.01988 10.262 3.83333 10.0402 3.83333H8.43377C8.21197 3.83333 8.03217 4.01988 8.03217 4.25V5.91667C8.03217 6.14678 8.21197 6.33333 8.43377 6.33333H10.0402C10.262 6.33333 10.4418 6.14678 10.4418 5.91667V4.25ZM0.803217 7.16667C0.359612 7.16667 0 7.53976 0 8V9.80964C0 11.3188 0.577851 12.7662 1.60643 13.8333C2.63502 14.9005 4.03007 15.5 5.48471 15.5H5.87052C8.19008 15.5 10.3106 14.2035 11.4435 12.1422C11.2707 11.7288 11.1752 11.275 11.1752 10.7989C11.1752 8.87363 12.736 7.3129 14.6612 7.3129C15.0142 7.3129 15.355 7.36536 15.6761 7.46292L15.35 7.0118C15.0748 6.63116 14.5609 6.53984 14.1794 6.80377C14.0783 6.87366 13.9602 6.74409 14.033 6.64329L14.2488 6.34474C14.6107 5.84415 14.6107 5.15585 14.2488 4.65526L13.7752 4C13.7086 3.90795 13.5828 3.8893 13.494 3.95833L13.0332 4.31696C12.4521 4.76912 12.2357 5.56957 12.5055 6.26927L12.7413 6.88096C12.7941 7.01781 12.6969 7.16667 12.5549 7.16667H0.803217ZM3.61447 8.83333C4.27988 8.83333 4.8193 9.39298 4.8193 10.0833C4.8193 10.7737 4.27988 11.3333 3.61447 11.3333C2.94907 11.3333 2.40965 10.7737 2.40965 10.0833C2.40965 9.39298 2.94907 8.83333 3.61447 8.83333Z" fill="#D2D2D2"/>
</svg>
