<svg width="20" height="20" viewBox="0 0 20 20" fill="none" xmlns="http://www.w3.org/2000/svg">
    <path d="M4.19444 11.0531C2.15406 11.0531 0.5 9.5645 0.5 7.72815C0.5 5.8918 2.15406 4.40315 4.19444 4.40315C4.38218 4.40315 4.56665 4.41575 4.74686 4.44007C4.99061 2.28485 7.0132 0.603149 9.47222 0.603149C11.6115 0.603149 13.4204 1.87591 14.0152 3.62596C14.4139 3.51367 14.838 3.45315 15.2778 3.45315C17.6096 3.45315 19.5 5.15447 19.5 7.25315C19.5 9.35183 17.6096 11.0531 15.2778 11.0531H4.19444Z" fill="#CCCCCC"/>
    <path d="M6.33333 13.1657V17.8343C6.33333 17.9404 6.29119 18.0421 6.21618 18.1172L5.45049 18.8828C5.37548 18.9579 5.27373 19 5.16765 19H2.16569C2.0596 19 1.95786 18.9579 1.88284 18.8828L1.11716 18.1172C1.04214 18.0421 1 17.9404 1 17.8343V13.1657C1 13.0596 1.04214 12.9579 1.11716 12.8828L1.88284 12.1172C1.95786 12.0421 2.0596 12 2.16569 12H5.16765C5.27373 12 5.37548 12.0421 5.45049 12.1172L6.21618 12.8828C6.29119 12.9579 6.33333 13.0596 6.33333 13.1657Z" fill="#CCCCCC"/>
    <path fill-rule="evenodd" clip-rule="evenodd" d="M12.6666 13.1657V17.8343C12.6666 17.9404 12.6244 18.0421 12.5494 18.1172L11.7837 18.8828C11.7087 18.9579 11.607 19 11.5009 19H8.49894C8.39285 19 8.29111 18.9579 8.21609 18.8828L7.45041 18.1172C7.37539 18.0421 7.33325 17.9404 7.33325 17.8343V13.1657C7.33325 13.0596 7.37539 12.9579 7.45041 12.8828L8.21609 12.1172C8.29111 12.0421 8.39285 12 8.49894 12H11.5009C11.607 12 11.7087 12.0421 11.7837 12.1172L12.5494 12.8828C12.6244 12.9579 12.6666 13.0596 12.6666 13.1657Z" fill="#CCCCCC"/>
    <path fill-rule="evenodd" clip-rule="evenodd" d="M19.0001 13.1657V17.8343C19.0001 17.9404 18.9579 18.0421 18.8829 18.1172L18.1172 18.8828C18.0422 18.9579 17.9405 19 17.8344 19H14.8324C14.7263 19 14.6246 18.9579 14.5496 18.8828L13.7839 18.1172C13.7089 18.0421 13.6667 17.9404 13.6667 17.8343V13.1657C13.6667 13.0596 13.7089 12.9579 13.7839 12.8828L14.5496 12.1172C14.6246 12.0421 14.7263 12 14.8324 12H17.8344C17.9405 12 18.0422 12.0421 18.1172 12.1172L18.8829 12.8828C18.9579 12.9579 19.0001 13.0596 19.0001 13.1657Z" fill="#CCCCCC"/>
</svg>