<svg width="24" height="24" viewBox="0 0 24 24" fill="none" xmlns="http://www.w3.org/2000/svg">
<path fill-rule="evenodd" clip-rule="evenodd" d="M7.88339 9.41636C8.53664 7.18032 10.2042 5.75012 12 5.75012C13.7958 5.75012 15.4634 7.18032 16.1166 9.41637C16.2547 9.88902 16.6888 10.1806 17.1429 10.1806C18.716 10.1806 20.25 11.828 20.25 14.2153C20.25 16.6027 18.716 18.2501 17.1429 18.2501H6.85714C5.28397 18.2501 3.75 16.6027 3.75 14.2153C3.75 11.828 5.28397 10.1806 6.85714 10.1806C7.31117 10.1806 7.74531 9.88902 7.88339 9.41636ZM12 4.25012C9.44698 4.25012 7.38624 6.17023 6.53859 8.69305C4.01938 8.89183 2.25 11.4334 2.25 14.2153C2.25 17.1131 4.16982 19.7501 6.85714 19.7501H17.1429C19.8302 19.7501 21.75 17.1131 21.75 14.2153C21.75 11.4334 19.9806 8.89183 17.4614 8.69305C16.6138 6.17023 14.553 4.25012 12 4.25012ZM16.949 12.6345C16.9497 12.6529 16.9501 12.6714 16.9501 12.6899C16.9501 13.4851 16.3054 14.1298 15.5103 14.1298C14.953 14.1298 14.4696 13.8131 14.2303 13.35H7.7998C7.38559 13.35 7.0498 13.0142 7.0498 12.6C7.0498 12.1858 7.38559 11.85 7.7998 11.85L14.3407 11.85C14.6021 11.4867 15.0285 11.2501 15.5103 11.2501C16.1974 11.2501 16.7722 11.7315 16.9156 12.3755C16.9378 12.4464 16.9498 12.5218 16.9498 12.6C16.9498 12.6115 16.9495 12.623 16.949 12.6345ZM16.1998 16.35H7.7998C7.38559 16.35 7.0498 16.0142 7.0498 15.6C7.0498 15.1858 7.38559 14.85 7.7998 14.85L16.1998 14.85C16.614 14.85 16.9498 15.1858 16.9498 15.6C16.9498 16.0142 16.614 16.35 16.1998 16.35Z" fill="#B3B3B3"/>
</svg>
