<svg width="20" height="20" viewBox="0 0 20 20" fill="none" xmlns="http://www.w3.org/2000/svg">
<path d="M7.88824 9.00047L10.5102 6.5538C10.7106 6.3668 10.7106 6.0636 10.5102 5.8766L9.72111 5.14025C9.52071 4.95325 9.19579 4.95325 8.99539 5.14025L4.1503 9.6614C3.9499 9.8484 3.9499 10.1516 4.1503 10.3386L8.99539 14.8597C9.1958 15.0468 9.52071 15.0468 9.72112 14.8597L10.5102 14.1234C10.7106 13.9364 10.7106 13.6332 10.5102 13.4462L7.88824 10.9995L15.4868 10.9996C15.7702 10.9996 16 10.7852 16 10.5207V9.47936C16 9.2149 15.7703 9.00051 15.4868 9.00051L7.88824 9.00047Z" fill="#D2D2D2"/>
</svg>
