<svg width="20" height="20" viewBox="0 0 20 20" fill="none" xmlns="http://www.w3.org/2000/svg">
<path d="M3.14645 2.85355L4.85355 1.14645C4.94732 1.05268 5.0745 1 5.20711 1H15.7929C15.9255 1 16.0527 1.05268 16.1464 1.14645L17.8536 2.85355C17.9473 2.94732 18 3.0745 18 3.20711V18.5C18 18.7761 17.7761 19 17.5 19H16.2071C16.0745 19 15.9473 18.9473 15.8536 18.8536L10.8536 13.8536C10.6583 13.6583 10.3417 13.6583 10.1464 13.8536L5.14645 18.8536C5.05268 18.9473 4.9255 19 4.79289 19H3.5C3.22386 19 3 18.7761 3 18.5V3.20711C3 3.0745 3.05268 2.94732 3.14645 2.85355Z" fill="#D2D2D2"/>
</svg>
