<svg width="20" height="20" viewBox="0 0 20 20" fill="none" xmlns="http://www.w3.org/2000/svg">
<path d="M12.149 3H7.849C6.56336 3.00185 5.33092 3.51346 4.42193 4.42264C3.51294 5.33182 3.00159 6.56436 3 7.85V12.15C3.00159 13.436 3.51322 14.6688 4.42264 15.5781C5.33206 16.4873 6.56501 16.9987 7.851 17H12.151C13.4366 16.9981 14.6691 16.4865 15.5781 15.5774C16.4871 14.6682 16.9984 13.4356 17 12.15V7.85C16.9984 6.56401 16.4868 5.33117 15.5774 4.42193C14.6679 3.5127 13.435 3.00132 12.149 3Z" fill="#D2D2D2"/>
<path d="M9.56198 13.009L14.037 8.53404C14.1418 8.43181 14.2252 8.3098 14.2825 8.17507C14.3398 8.04035 14.3698 7.89559 14.3707 7.7492C14.3716 7.60281 14.3434 7.45769 14.2878 7.32227C14.2322 7.18684 14.1503 7.0638 14.0468 6.96028C13.9432 6.85677 13.8202 6.77483 13.6848 6.71923C13.5493 6.66362 13.4042 6.63546 13.2578 6.63637C13.1114 6.63727 12.9667 6.66724 12.832 6.72451C12.6972 6.78179 12.5752 6.86525 12.473 6.97004L8.83998 10.61C8.82604 10.6241 8.80945 10.6352 8.79117 10.6428C8.77289 10.6504 8.75328 10.6544 8.73348 10.6544C8.71368 10.6544 8.69407 10.6504 8.67579 10.6428C8.65751 10.6352 8.64092 10.6241 8.62698 10.61L7.52698 9.51004C7.31871 9.30687 7.03877 9.19395 6.74782 9.19576C6.45687 9.19756 6.17835 9.31394 5.97262 9.51968C5.76688 9.72541 5.6505 10.0039 5.6487 10.2948C5.64689 10.5858 5.75981 10.8657 5.96298 11.074L7.89798 13.009C8.0072 13.1183 8.13689 13.2051 8.27966 13.2642C8.42242 13.3234 8.57544 13.3539 8.72998 13.3539C8.88452 13.3539 9.03754 13.3234 9.18031 13.2642C9.32307 13.2051 9.45276 13.1183 9.56198 13.009Z" fill="white"/>
</svg>
