<svg width="20" height="20" viewBox="0 0 20 20" fill="none" xmlns="http://www.w3.org/2000/svg">
<path d="M12.15 17H7.85C6.56401 16.9984 5.33117 16.4868 4.42193 15.5774C3.5127 14.6679 3.00132 13.435 3 12.149V7.849C3.00185 6.56319 3.5136 5.3306 4.42299 4.42158C5.33239 3.51256 6.56519 3.00132 7.851 3H12.151C13.4368 3.00185 14.6694 3.5136 15.5784 4.42299C16.4874 5.33239 16.9987 6.56519 17 7.851V12.151C16.9981 13.4366 16.4865 14.6691 15.5774 15.5781C14.6682 16.4871 13.4356 16.9984 12.15 17ZM7.851 5.913C7.33717 5.91353 6.84454 6.11788 6.48121 6.48121C6.11788 6.84454 5.91353 7.33717 5.913 7.851V12.151C5.91353 12.6648 6.11788 13.1575 6.48121 13.5208C6.84454 13.8841 7.33717 14.0885 7.851 14.089H12.151C12.6647 14.0885 13.1573 13.8841 13.5204 13.5207C13.8836 13.1574 14.0877 12.6647 14.088 12.151V7.851C14.0877 7.33709 13.8835 6.84431 13.5201 6.48092C13.1567 6.11753 12.6639 5.91326 12.15 5.913H7.851Z" fill="#D2D2D2"/>
</svg>
