<svg width="20" height="20" viewBox="0 0 20 20" fill="none" xmlns="http://www.w3.org/2000/svg">
<g clip-path="url(#clip0_78803_2048)">
<path d="M6.69419 13.5731V10.4579L9.43186 11.8815C9.58877 11.9631 9.77461 11.9675 9.93519 11.8934L12.697 10.6187V13.5731C12.697 13.8351 12.4813 14.2333 11.8984 14.6015C11.341 14.9535 10.5544 15.2003 9.69561 15.2003C8.83685 15.2003 8.05025 14.9535 7.49284 14.6015C6.90991 14.2333 6.69419 13.8351 6.69419 13.5731Z" fill="#CCCCCC"/>
<path fill-rule="evenodd" clip-rule="evenodd" d="M10 20C15.5228 20 20 15.5228 20 10C20 4.47715 15.5228 0 10 0C4.47715 0 0 4.47715 0 10C0 15.5228 4.47715 20 10 20ZM9.95937 3.72081C9.79404 3.63483 9.59719 3.63483 9.43186 3.72081L2.56046 7.29393C2.37124 7.39233 2.25252 7.58787 2.25252 7.80115C2.25252 8.01443 2.37124 8.20998 2.56046 8.30838L5.55079 9.86334V13.5731C5.55079 14.4105 6.15963 15.1118 6.88227 15.5682C7.63042 16.0407 8.63039 16.3437 9.69561 16.3437C10.7608 16.3437 11.7608 16.0407 12.509 15.5682C13.2316 15.1118 13.8404 14.4105 13.8404 13.5731V9.72514C13.8404 9.53018 13.7411 9.34866 13.5769 9.24358C13.4126 9.1385 13.2062 9.12436 13.0292 9.20606L9.71061 10.7377L4.0634 7.80115L9.69562 4.8724L15.9953 8.14824V11.3743C15.9953 11.69 16.2513 11.946 16.567 11.946C16.8828 11.946 17.1387 11.69 17.1387 11.3743V7.80115C17.1387 7.58787 17.02 7.39233 16.8308 7.29393L9.95937 3.72081Z" fill="#CCCCCC"/>
</g>
<defs>
<clipPath id="clip0_78803_2048">
<rect width="20" height="20" fill="white"/>
</clipPath>
</defs>
</svg>
