<svg width="20" height="20" viewBox="0 0 20 20" fill="none" xmlns="http://www.w3.org/2000/svg">
<path d="M13.5352 10.6188C13.1935 10.9605 12.6395 10.9605 12.2978 10.6188L10.875 9.19599L10.875 12.9167C10.875 13.3999 10.4833 13.7917 10 13.7917C9.51676 13.7917 9.12501 13.3999 9.12501 12.9167L9.12501 9.19569L7.70192 10.6188C7.36021 10.9605 6.8062 10.9605 6.46449 10.6188C6.12278 10.2771 6.12278 9.72306 6.46449 9.38135L9.38114 6.4647C9.41529 6.43054 9.45198 6.3995 9.49076 6.37176C9.63421 6.26893 9.81004 6.20839 10 6.20839C10.2469 6.20839 10.4699 6.31066 10.629 6.47515L13.5352 9.38135C13.8769 9.72306 13.8769 10.2771 13.5352 10.6188Z" fill="#D2D2D2"/>
<path fill-rule="evenodd" clip-rule="evenodd" d="M2 10C2 5.58172 5.58172 2 10 2C14.4183 2 18 5.58172 18 10C18 14.4183 14.4183 18 10 18C5.58172 18 2 14.4183 2 10ZM10 3.71429C6.5285 3.71429 3.71429 6.5285 3.71429 10C3.71429 13.4715 6.5285 16.2857 10 16.2857C13.4715 16.2857 16.2857 13.4715 16.2857 10C16.2857 6.5285 13.4715 3.71429 10 3.71429Z" fill="#D2D2D2"/>
</svg>
