<svg width="20" height="20" viewBox="0 0 20 20" fill="none" xmlns="http://www.w3.org/2000/svg">
<path fill-rule="evenodd" clip-rule="evenodd" d="M5.55544 3.34824C6.87103 2.46919 8.41775 2 10 2C12.1217 2 14.1566 2.84285 15.6569 4.34315C17.1571 5.84344 18 7.87827 18 10C18 11.5822 17.5308 13.129 16.6518 14.4446C15.7727 15.7602 14.5233 16.7855 13.0615 17.391C11.5997 17.9965 9.99113 18.155 8.43928 17.8463C6.88743 17.5376 5.46197 16.7757 4.34315 15.6569C3.22433 14.538 2.4624 13.1126 2.15372 11.5607C1.84504 10.0089 2.00347 8.40034 2.60897 6.93853C3.21447 5.47672 4.23985 4.22729 5.55544 3.34824ZM10.5714 5.42857C10.887 5.42857 11.1429 5.68441 11.1429 6V8.28571C11.1429 8.60131 11.3987 8.85714 11.7143 8.85714H14C14.3156 8.85714 14.5714 9.11298 14.5714 9.42857V10.5714C14.5714 10.887 14.3156 11.1429 14 11.1429H11.7143C11.3987 11.1429 11.1429 11.3987 11.1429 11.7143V14C11.1429 14.3156 10.887 14.5714 10.5714 14.5714H9.42857C9.11298 14.5714 8.85714 14.3156 8.85714 14V11.7143C8.85714 11.3987 8.60131 11.1429 8.28571 11.1429H6C5.68441 11.1429 5.42857 10.887 5.42857 10.5714V9.42857C5.42857 9.11298 5.68441 8.85714 6 8.85714H8.28571C8.60131 8.85714 8.85714 8.60131 8.85714 8.28571V6C8.85714 5.68441 9.11298 5.42857 9.42857 5.42857H10.5714Z" fill="#D2D2D2"/>
</svg>
