<svg width="20" height="20" viewBox="0 0 20 20" fill="none" xmlns="http://www.w3.org/2000/svg">
<path fill-rule="evenodd" clip-rule="evenodd" d="M10 2C5.584 2 2 5.584 2 10C2 14.416 5.584 18 10 18C14.416 18 18 14.416 18 10C18 5.584 14.416 2 10 2ZM6.83736 6.45154C6.97172 6.31718 7.18956 6.31718 7.32392 6.45154L10.0001 9.12769L12.6761 6.45164C12.8105 6.31729 13.0283 6.31729 13.1627 6.45164L13.6493 6.9382C13.7836 7.07256 13.7836 7.2904 13.6493 7.42476L10.9732 10.1008L13.6492 12.7768C13.7836 12.9111 13.7836 13.129 13.6492 13.2633L13.1626 13.7499C13.0283 13.8843 12.8104 13.8843 12.6761 13.7499L10.0001 11.0739L7.32398 13.75C7.18962 13.8844 6.97178 13.8844 6.83742 13.75L6.35086 13.2634C6.2165 13.1291 6.2165 12.9112 6.35086 12.7769L9.02696 10.1008L6.3508 7.42465C6.21644 7.2903 6.21644 7.07246 6.3508 6.9381L6.83736 6.45154Z" fill="#CCCCCC"/>
</svg>
