<svg width="20" height="20" viewBox="0 0 20 20" fill="none" xmlns="http://www.w3.org/2000/svg">
<path d="M9.99995 6.20837C10.4832 6.20837 10.8749 6.60012 10.8749 7.08337V10.8043L12.298 9.38129C12.6397 9.03958 13.1937 9.03958 13.5354 9.38129C13.8771 9.723 13.8771 10.277 13.5354 10.6187L10.6187 13.5354C10.5954 13.5587 10.5708 13.5806 10.5452 13.601C10.3957 13.7203 10.2061 13.7917 9.99995 13.7917C9.75455 13.7917 9.53275 13.6906 9.37386 13.5279L6.46465 10.6187C6.12295 10.277 6.12295 9.723 6.46465 9.38129C6.80636 9.03958 7.36038 9.03958 7.70209 9.38129L9.12496 10.8042V7.08337C9.12496 6.60012 9.5167 6.20837 9.99995 6.20837Z" fill="#D2D2D2"/>
<path fill-rule="evenodd" clip-rule="evenodd" d="M10.0001 2C5.58184 2 2.00012 5.58172 2.00012 10C2.00012 14.4183 5.58184 18 10.0001 18C14.4184 18 18.0001 14.4183 18.0001 10C18.0001 5.58172 14.4184 2 10.0001 2ZM3.71441 10C3.71441 6.5285 6.52862 3.71429 10.0001 3.71429C13.4716 3.71429 16.2858 6.5285 16.2858 10C16.2858 13.4715 13.4716 16.2857 10.0001 16.2857C6.52862 16.2857 3.71441 13.4715 3.71441 10Z" fill="#D2D2D2"/>
</svg>
