<svg width="20" height="20" viewBox="0 0 20 20" fill="none" xmlns="http://www.w3.org/2000/svg">
<path d="M7.75 13.5C7.61193 13.5 7.5 13.3881 7.5 13.25V6.75C7.5 6.61193 7.61193 6.5 7.75 6.5H8.27524C8.32009 6.5 8.36411 6.51206 8.40269 6.53493L13.3775 9.48293C13.4534 9.52795 13.5 9.6097 13.5 9.69801V10.302C13.5 10.3903 13.4534 10.472 13.3775 10.5171L8.40269 13.4651C8.36411 13.4879 8.32009 13.5 8.27524 13.5H7.75Z" fill="#D2D2D2"/>
<path fill-rule="evenodd" clip-rule="evenodd" d="M10 2C5.58172 2 2 5.58172 2 10C2 14.4183 5.58172 18 10 18C14.4183 18 18 14.4183 18 10C18 5.58172 14.4183 2 10 2ZM3.71429 10C3.71429 6.5285 6.5285 3.71429 10 3.71429C13.4715 3.71429 16.2857 6.5285 16.2857 10C16.2857 13.4715 13.4715 16.2857 10 16.2857C6.5285 16.2857 3.71429 13.4715 3.71429 10Z" fill="#D2D2D2"/>
</svg>
