<svg width="20" height="20" viewBox="0 0 20 20" fill="none" xmlns="http://www.w3.org/2000/svg">
<path d="M6.32298 5.75729C6.47919 5.60108 6.73246 5.60108 6.88866 5.75729L10 8.86866L13.1113 5.75741C13.2675 5.60121 13.5207 5.60121 13.677 5.75741L14.2426 6.3231C14.3988 6.47931 14.3988 6.73258 14.2426 6.88879L11.1314 10L14.2426 13.1112C14.3988 13.2674 14.3988 13.5207 14.2426 13.6769L13.6769 14.2426C13.5207 14.3988 13.2674 14.3988 13.1112 14.2426L10 11.1314L6.88873 14.2427C6.73252 14.3989 6.47925 14.3989 6.32304 14.2427L5.75736 13.677C5.60115 13.5208 5.60115 13.2675 5.75736 13.1113L8.86866 10L5.75729 6.88866C5.60108 6.73246 5.60108 6.47919 5.75729 6.32298L6.32298 5.75729Z" fill="#CCCCCC"/>
</svg>
