<svg width="20" height="20" viewBox="0 0 20 20" fill="none" xmlns="http://www.w3.org/2000/svg">
<path fill-rule="evenodd" clip-rule="evenodd" d="M2.12159 3.87895C2.51212 3.48843 3.14528 3.48843 3.53581 3.87895L8.95008 9.29322C9.3406 9.68375 9.3406 10.3169 8.95008 10.7074L3.53581 16.1217C3.14528 16.5122 2.51212 16.5122 2.12159 16.1217L1.17375 15.1739C0.783228 14.7833 0.783229 14.1502 1.17375 13.7597L4.93308 10.0003L1.17375 6.24101C0.783228 5.85048 0.783229 5.21732 1.17375 4.82679L2.12159 3.87895ZM11.0001 13.5C10.4478 13.5 10.0001 13.9477 10.0001 14.5V15.5C10.0001 16.0523 10.4478 16.5 11.0001 16.5H18.0001C18.5524 16.5 19.0001 16.0523 19.0001 15.5V14.5C19.0001 13.9477 18.5524 13.5 18.0001 13.5H11.0001Z" fill="#D2D2D2"/>
</svg>
