<svg width="20" height="20" viewBox="0 0 20 20" fill="none" xmlns="http://www.w3.org/2000/svg">
<path d="M3 3.5C3 3.22386 3.22386 3 3.5 3H12.5C12.7761 3 13 3.22386 13 3.5V5.5H6.5C5.94772 5.5 5.5 5.94772 5.5 6.5V13H3.5C3.22386 13 3 12.7761 3 12.5V3.5Z" fill="#D2D2D2"/>
<path fill-rule="evenodd" clip-rule="evenodd" d="M7 7.5C7 7.22386 7.22386 7 7.5 7H16.5C16.7761 7 17 7.22386 17 7.5V16.5C17 16.7761 16.7761 17 16.5 17H7.5C7.22386 17 7 16.7761 7 16.5V7.5ZM11.7713 14.8215C11.6762 14.9346 11.536 15 11.3883 15H10.9504C10.8244 15 10.703 14.9524 10.6106 14.8668L8.3958 12.8145C8.18225 12.6166 8.18225 12.2789 8.3958 12.081L8.63401 11.8603C8.82574 11.6826 9.12196 11.6826 9.31369 11.8603L10.7276 13.1704C10.9372 13.3646 11.2667 13.344 11.4504 13.1251L14.6143 9.3557C14.7827 9.15515 15.0772 9.11843 15.2896 9.27152L15.5633 9.46873C15.7991 9.63868 15.8408 9.97319 15.6539 10.1958L11.7713 14.8215Z" fill="#D2D2D2"/>
</svg>
