<svg width="20" height="20" viewBox="0 0 20 20" fill="none" xmlns="http://www.w3.org/2000/svg">
<path d="M10.5164 9.26511C10.5164 9.8489 10.3182 10.0481 9.70972 10.0481C9.50463 10.0481 9.27219 10.0343 9.27219 10.0343V8.5783C9.27219 8.5783 9.50463 8.55082 9.70972 8.55082C10.3182 8.55082 10.5164 8.75 10.5164 9.26511Z" fill="#D2D2D2"/>
<path fill-rule="evenodd" clip-rule="evenodd" d="M0.5 5H1.79289C1.9255 5 2.05268 4.94732 2.14645 4.85355L2.85355 4.14645C2.94732 4.05268 3.0745 4 3.20711 4H16.7929C16.9255 4 17.0527 4.05268 17.1464 4.14645L17.8536 4.85355C17.9473 4.94732 18.0745 5 18.2071 5H19.5C19.7761 5 20 5.22386 20 5.5V6.5C20 6.77614 19.7761 7 19.5 7H18.5C18.2239 7 18 7.22386 18 7.5V8.5C18 8.77614 18.2239 9 18.5 9H19.5C19.7761 9 20 9.22386 20 9.5V10.5C20 10.7761 19.7761 11 19.5 11H18.5C18.2239 11 18 11.2239 18 11.5V12.5C18 12.7761 18.2239 13 18.5 13H19.5C19.7761 13 20 13.2239 20 13.5V14.5C20 14.7761 19.7761 15 19.5 15H18.2071C18.0745 15 17.9473 15.0527 17.8536 15.1464L17.1464 15.8536C17.0527 15.9473 16.9255 16 16.7929 16H3.20711C3.0745 16 2.94732 15.9473 2.85355 15.8536L2.14645 15.1464C2.05268 15.0527 1.9255 15 1.79289 15H0.5C0.223858 15 0 14.7761 0 14.5V13.5C0 13.2239 0.223858 13 0.5 13H1.5C1.77614 13 2 12.7761 2 12.5V11.5C2 11.2239 1.77614 11 1.5 11H0.5C0.223858 11 0 10.7761 0 10.5V9.5C0 9.22386 0.223858 9 0.5 9H1.5C1.77614 9 2 8.77614 2 8.5V7.5C2 7.22386 1.77614 7 1.5 7H0.5C0.223858 7 0 6.77614 0 6.5V5.5C0 5.22386 0.223858 5 0.5 5ZM6.22183 12.5C6.93965 12.5 7.41819 12.2253 7.41819 12.2253V11.1538C7.19943 11.3187 6.80292 11.4973 6.25601 11.4973C5.47666 11.4973 5.1075 11.1264 5.1075 9.96566C5.1075 8.87363 5.47666 8.50275 6.25601 8.50275C6.80292 8.50275 7.15841 8.64698 7.41819 8.81181V7.74038C7.41819 7.74038 6.87128 7.5 6.22183 7.5C4.71782 7.5 4 8.22115 4 9.96566C4 11.8132 4.68364 12.5 6.22183 12.5ZM8.20572 12.4038H9.27219V11.0371C9.27219 11.0371 9.50463 11.0508 9.70972 11.0508C11.0428 11.0508 11.6239 10.467 11.6239 9.26511C11.6239 8.06319 11.1112 7.54808 9.70972 7.54808C9.02608 7.54808 8.20572 7.63049 8.20572 7.63049V12.4038ZM16 10.4808C16 11.9299 15.4326 12.5 14.1884 12.5C12.9305 12.5 12.3767 11.9437 12.3767 10.4808V7.59615H13.4432V10.3777C13.4432 11.2843 13.6551 11.4973 14.1884 11.4973C14.7353 11.4973 14.9335 11.2981 14.9335 10.3777V7.59615H16V10.4808Z" fill="#D2D2D2"/>
</svg>
