<svg width="20" height="20" viewBox="0 0 20 20" fill="none" xmlns="http://www.w3.org/2000/svg">
<path fill-rule="evenodd" clip-rule="evenodd" d="M4.23013 3.51743L5.3413 2.26035C5.48865 2.09365 5.6885 2 5.89688 2H14.1031C14.3115 2 14.5114 2.09365 14.6587 2.26035L15.7699 3.51743C15.9172 3.68413 16 3.91022 16 4.14597V16.0381C16 16.156 15.9586 16.269 15.8849 16.3524L14.5436 17.8698C14.47 17.9532 14.37 18 14.2658 18H5.73415C5.62996 18 5.53004 17.9532 5.45636 17.8698L4.11507 16.3524C4.04139 16.269 4 16.156 4 16.0381V4.14597C4 3.91022 4.08278 3.68413 4.23013 3.51743ZM6.35714 5.55556V7.33333L13.6429 7.33333V5.55556H6.35714ZM6.35714 9.11111V10.8889H13.6429V9.11111H6.35714ZM6.35714 14.4444V12.6667H13.6429V14.4444H6.35714Z" fill="#D2D2D2"/>
</svg>
