<svg width="20" height="20" viewBox="0 0 20 20" fill="none" xmlns="http://www.w3.org/2000/svg">
<path fill-rule="evenodd" clip-rule="evenodd" d="M3.29289 2.70711L4.70711 1.29289C4.89464 1.10536 5.149 1 5.41421 1H10.5858C10.851 1 11.1054 1.10536 11.2929 1.29289L16.7071 6.70711C16.8946 6.89464 17 7.149 17 7.41421V16.7929C17 16.9255 16.9473 17.0527 16.8536 17.1464L15.1464 18.8536C15.0527 18.9473 14.9255 19 14.7929 19H5.20711C5.0745 19 4.94732 18.9473 4.85355 18.8536L3.14645 17.1464C3.05268 17.0527 3 16.9255 3 16.7929V3.41421C3 3.149 3.10536 2.89464 3.29289 2.70711ZM6 6.5C6 6.77614 6.22386 7 6.5 7H8.5C8.77614 7 9 6.77614 9 6.5V4.5C9 4.22386 8.77614 4 8.5 4H6.5C6.22386 4 6 4.22386 6 4.5V6.5ZM6 10V12H14V10L6 10ZM6 16V14H14V16H6Z" fill="#D2D2D2"/>
</svg>
