<svg width="20" height="20" viewBox="0 0 20 20" fill="none" xmlns="http://www.w3.org/2000/svg">
    <path d="M7.99679 6.35136L5.44207 8.90608L12.8457 8.90612C13.1219 8.90612 13.3457 9.12998 13.3457 9.40612V10.4935C13.3457 10.7696 13.1219 10.9935 12.8457 10.9935L5.44207 10.9934L7.99679 13.5481C8.19205 13.7434 8.19205 14.06 7.99679 14.2552L7.22792 15.0241C7.03266 15.2194 6.71608 15.2194 6.52082 15.0241L1.80001 10.3033C1.60475 10.108 1.60475 9.79146 1.80001 9.59619L6.52082 4.87539C6.71608 4.68013 7.03266 4.68013 7.22792 4.87539L7.99679 5.64425C8.19205 5.83952 8.19205 6.1561 7.99679 6.35136Z" fill="#CCCCCC"/>
    <path d="M18.3462 17.5C18.3462 17.7761 18.1224 18 17.8462 18H12.8462C12.5701 18 12.3462 17.7761 12.3462 17.5V16.5C12.3462 16.2239 12.5701 16 12.8462 16H16.3462L16.3462 4H12.8462C12.5701 4 12.3462 3.77614 12.3462 3.5V2.5C12.3462 2.22386 12.5701 2 12.8462 2L17.8462 2C18.1224 2 18.3462 2.22386 18.3462 2.5L18.3462 17.5Z" fill="#CCCCCC"/>
</svg>
