<svg width="20" height="20" viewBox="0 0 20 20" fill="none" xmlns="http://www.w3.org/2000/svg">
<path fill-rule="evenodd" clip-rule="evenodd" d="M4.41422 3.08588L3 4.49998L4.63159 6.13155L2.16552 8.35101C2.06016 8.44584 2 8.58092 2 8.72266V11.2825C2 11.4212 2.05763 11.5537 2.15911 11.6483L6.85598 16.0254C6.94854 16.1117 7.07035 16.1596 7.19687 16.1596H12.8031C12.9297 16.1596 13.0515 16.1117 13.144 16.0254L13.8591 15.359L16 17.4999L17.4142 16.0858L4.41422 3.08588ZM11.6228 13.1228L10.4522 11.9521C10.3076 11.9835 10.1563 12 10 12C8.86667 12 8 11.1333 8 9.99998C8 9.84366 8.01649 9.69242 8.04788 9.54783L6.8772 8.37715C6.63503 8.85795 6.5 9.40818 6.5 9.99997C6.5 11.9833 8.01667 13.5 10 13.5C10.5918 13.5 11.142 13.3649 11.6228 13.1228Z" fill="#D2D2D2"/>
<path d="M10.138 6.50262C12.0047 6.57441 13.4264 8.09672 13.4972 9.86186L16.5172 12.8818L17.8409 11.6483C17.9424 11.5537 18 11.4212 18 11.2825V8.72266C18 8.58092 17.9398 8.44584 17.8345 8.35101L13.1426 4.12833C13.0508 4.0457 12.9317 3.99998 12.8081 3.99998H7.63532L10.138 6.50262Z" fill="#D2D2D2"/>
</svg>
