<svg width="20" height="20" viewBox="0 0 20 20" fill="none" xmlns="http://www.w3.org/2000/svg">
<path fill-rule="evenodd" clip-rule="evenodd" d="M2.85355 0.146446L0.146447 2.85355C0.0526784 2.94732 0 3.0745 0 3.20711V11.7929C0 11.9255 0.0526783 12.0527 0.146446 12.1464L2.85355 14.8536C2.94732 14.9473 3.0745 15 3.20711 15H11.5C11.7761 15 12 15.2239 12 15.5V18.7929C12 19.2383 12.5386 19.4614 12.8536 19.1464L19.8536 12.1464C19.9473 12.0527 20 11.9255 20 11.7929V3.20711C20 3.0745 19.9473 2.94732 19.8536 2.85355L17.1464 0.146447C17.0527 0.0526784 16.9255 0 16.7929 0H3.20711C3.0745 0 2.94732 0.0526783 2.85355 0.146446ZM4 4.5H16V6.5H4V4.5ZM12 8.5H4V10.5H12V8.5Z" fill="#D2D2D2"/>
</svg>
