<svg width="20" height="20" viewBox="0 0 20 20" fill="none" xmlns="http://www.w3.org/2000/svg">
<path fill-rule="evenodd" clip-rule="evenodd" d="M3.85355 1.14645L3.14645 1.85355C3.05268 1.94732 3 2.0745 3 2.20711V17.7929C3 17.9255 3.05268 18.0527 3.14645 18.1464L3.85355 18.8536C3.94732 18.9473 4.0745 19 4.20711 19H15.7929C15.9255 19 16.0527 18.9473 16.1464 18.8536L16.7071 18.2929C16.8946 18.1054 17 17.851 17 17.5858L17 6.41421C17 6.149 16.8946 5.89464 16.7071 5.70711L12.1464 1.14645C12.0527 1.05268 11.9255 1 11.7929 1H4.20711C4.0745 1 3.94732 1.05268 3.85355 1.14645ZM4.62132 17.5H15.3787L15.5 17.3787L15.5 6.62132L11.3787 2.5H4.62132L4.5 2.62132V17.3787L4.62132 17.5Z" fill="#D2D2D2"/>
<path d="M10.8434 11.2289L12.032 12.4175C12.2272 12.6127 12.5438 12.6127 12.7391 12.4175L13.2247 11.9318C13.42 11.7365 13.42 11.4199 13.2247 11.2247L10.3535 8.35348C10.1583 8.15822 9.8417 8.15822 9.64644 8.35348L6.77523 11.2247C6.57997 11.4199 6.57997 11.7365 6.77523 11.9318L7.26089 12.4175C7.45616 12.6127 7.77274 12.6127 7.968 12.4175L9.15657 11.2289V14.6565C9.15657 14.9327 9.38043 15.1565 9.65657 15.1565H10.3434C10.6195 15.1565 10.8434 14.9327 10.8434 14.6565V11.2289Z" fill="#D2D2D2"/>
</svg>
