<svg width="20" height="20" viewBox="0 0 20 20" fill="none" xmlns="http://www.w3.org/2000/svg">
<path fill-rule="evenodd" clip-rule="evenodd" d="M3 2.20711V17.7929C3 17.9255 3.05268 18.0527 3.14645 18.1464L3.85355 18.8536C3.94732 18.9473 4.0745 19 4.20711 19H15.7929C15.9255 19 16.0527 18.9473 16.1464 18.8536L16.7071 18.2929C16.8946 18.1054 17 17.851 17 17.5858L17 6.41421C17 6.149 16.8946 5.89464 16.7071 5.70711L12.1464 1.14645C12.0527 1.05268 11.9255 1 11.7929 1H4.20711C4.0745 1 3.94732 1.05268 3.85355 1.14645L3.14645 1.85355C3.05268 1.94732 3 2.0745 3 2.20711ZM10.75 8H9.25V10.25H7V11.75H9.25V14H10.75V11.75H13V10.25H10.75V8Z" fill="#CCCCCC"/>
</svg>
