<svg width="20" height="20" viewBox="0 0 20 20" fill="none" xmlns="http://www.w3.org/2000/svg">
<path fill-rule="evenodd" clip-rule="evenodd" d="M3 17.7929V2.20711C3 2.0745 3.05268 1.94732 3.14645 1.85355L3.85355 1.14645C3.94732 1.05268 4.0745 1 4.20711 1H11.7929C11.9255 1 12.0527 1.05268 12.1464 1.14645L16.7071 5.70711C16.8946 5.89464 17 6.149 17 6.41421L17 17.5858C17 17.851 16.8946 18.1054 16.7071 18.2929L16.1464 18.8536C16.0527 18.9473 15.9255 19 15.7929 19H4.20711C4.0745 19 3.94732 18.9473 3.85355 18.8536L3.14645 18.1464C3.05268 18.0527 3 17.9255 3 17.7929ZM12.032 12.4175L10.8434 11.2289V14.6565C10.8434 14.9327 10.6195 15.1565 10.3434 15.1565H9.65657C9.38043 15.1565 9.15657 14.9327 9.15657 14.6565V11.2289L7.968 12.4175C7.77274 12.6127 7.45616 12.6127 7.26089 12.4175L6.77523 11.9318C6.57997 11.7365 6.57997 11.4199 6.77523 11.2247L9.64644 8.35348C9.8417 8.15822 10.1583 8.15822 10.3535 8.35348L13.2247 11.2247C13.42 11.4199 13.42 11.7365 13.2247 11.9318L12.7391 12.4175C12.5438 12.6127 12.2272 12.6127 12.032 12.4175Z" fill="#D2D2D2"/>
</svg>
