<svg width="20" height="20" viewBox="0 0 20 20" fill="none" xmlns="http://www.w3.org/2000/svg">
<path d="M9.25 8H10.75V10H13V11.5H10.75V14H9.25V11.5H7V10H9.25V8Z" fill="#D2D2D2"/>
<path fill-rule="evenodd" clip-rule="evenodd" d="M3.85214 3.15573L2.1374 4.96181C2.04918 5.05472 2 5.17795 2 5.30607V15.5961C2 15.7113 2.03976 15.8229 2.11257 15.9122L2.84995 16.8161C2.9449 16.9325 3.08716 17 3.23738 17H16.7929C16.9255 17 17.0527 16.9473 17.1464 16.8536L17.8536 16.1464C17.9473 16.0527 18 15.9255 18 15.7929V6.20711C18 6.0745 17.9473 5.94732 17.8536 5.85355L17.1464 5.14645C17.0527 5.05268 16.9255 5 16.7929 5H9.70711C9.5745 5 9.44732 4.94732 9.35355 4.85355L7.64645 3.14645C7.55268 3.05268 7.4255 3 7.29289 3H4.21474C4.07764 3 3.94654 3.0563 3.85214 3.15573ZM3.5 15.24V5.70518L4.64423 4.5H6.87868L8.29289 5.91421C8.66797 6.28929 9.17667 6.5 9.70711 6.5H16.3787L16.5 6.62132V15.3787L16.3787 15.5H3.71214L3.5 15.24Z" fill="#D2D2D2"/>
</svg>
