<svg width="20" height="20" viewBox="0 0 20 20" fill="none" xmlns="http://www.w3.org/2000/svg">
<path d="M9.96812 10.0492C10.5516 10.0492 10.7417 9.85006 10.7417 9.26627C10.7417 8.75116 10.5516 8.55198 9.96812 8.55198C9.77145 8.55198 9.54856 8.57946 9.54856 8.57946V10.0355C9.54856 10.0355 9.77145 10.0492 9.96812 10.0492Z" fill="#D2D2D2"/>
<path fill-rule="evenodd" clip-rule="evenodd" d="M0.5 5H1.79289C1.9255 5 2.05268 4.94732 2.14645 4.85355L2.85355 4.14645C2.94732 4.05268 3.0745 4 3.20711 4H16.7929C16.9255 4 17.0527 4.05268 17.1464 4.14645L17.8536 4.85355C17.9473 4.94732 18.0745 5 18.2071 5H19.5C19.7761 5 20 5.22386 20 5.5V6.5C20 6.77614 19.7761 7 19.5 7H18.5C18.2239 7 18 7.22386 18 7.5V8.5C18 8.77614 18.2239 9 18.5 9H19.5C19.7761 9 20 9.22386 20 9.5V10.5C20 10.7761 19.7761 11 19.5 11H18.5C18.2239 11 18 11.2239 18 11.5V12.5C18 12.7761 18.2239 13 18.5 13H19.5C19.7761 13 20 13.2239 20 13.5V14.5C20 14.7761 19.7761 15 19.5 15H18.2071C18.0745 15 17.9473 15.0527 17.8536 15.1464L17.1464 15.8536C17.0527 15.9473 16.9255 16 16.7929 16H3.20711C3.0745 16 2.94732 15.9473 2.85355 15.8536L2.14645 15.1464C2.05268 15.0527 1.9255 15 1.79289 15H0.5C0.223858 15 0 14.7761 0 14.5V13.5C0 13.2239 0.223858 13 0.5 13H1.5C1.77614 13 2 12.7761 2 12.5V11.5C2 11.2239 1.77614 11 1.5 11H0.5C0.223858 11 0 10.7761 0 10.5V9.5C0 9.22386 0.223858 9 0.5 9H1.5C1.77614 9 2 8.77614 2 8.5V7.5C2 7.22386 1.77614 7 1.5 7H0.5C0.223858 7 0 6.77614 0 6.5V5.5C0 5.22386 0.223858 5 0.5 5ZM6.16333 12.5012C6.85167 12.5012 7.33678 12.2882 7.60556 12.1303V9.69209H6.03222V10.585H6.64845V11.4297L6.63781 11.4325C6.51052 11.4659 6.38657 11.4984 6.16333 11.4984C5.416 11.4984 5.062 11.1275 5.062 9.96682C5.062 8.87479 5.416 8.50391 6.16333 8.50391C6.655 8.50391 7.08111 8.65501 7.34333 8.81297V7.74154C7.34333 7.74154 6.88445 7.50116 6.16333 7.50116C4.68833 7.50116 4 8.22231 4 9.97369C4 11.8143 4.65556 12.5012 6.16333 12.5012ZM8.5259 12.405H9.54856V11.0382C9.54856 11.0382 9.77145 11.052 9.96812 11.052C11.2465 11.052 11.8037 10.4682 11.8037 9.26627C11.8037 8.06435 11.312 7.54924 9.96812 7.54924C9.31256 7.54924 8.5259 7.63165 8.5259 7.63165V12.405ZM16 10.4819C16 11.9311 15.4559 12.5012 14.2628 12.5012C13.0566 12.5012 12.5256 11.9448 12.5256 10.4819V7.59731H13.5482V10.3789C13.5482 11.2855 13.7514 11.4984 14.2628 11.4984C14.7872 11.4984 14.9773 11.2992 14.9773 10.3789V7.59731H16V10.4819Z" fill="#D2D2D2"/>
</svg>
