<svg width="20" height="20" viewBox="0 0 20 20" fill="none" xmlns="http://www.w3.org/2000/svg">
<path d="M1.45 3C1.20147 3 1 3.22386 1 3.5V4C1 4.27614 1.20147 4.5 1.45 4.5H18.55C18.7985 4.5 19 4.27614 19 4V3.5C19 3.22386 18.7985 3 18.55 3H1.45Z" fill="#D2D2D2"/>
<path d="M1.45 15.5C1.20147 15.5 1 15.7239 1 16V16.5C1 16.7761 1.20147 17 1.45 17H18.55C18.7985 17 19 16.7761 19 16.5V16C19 15.7239 18.7985 15.5 18.55 15.5H1.45Z" fill="#D2D2D2"/>
<path d="M6.07337 10.7107H5.36498V9.65289H7.10938V12.5702C6.79946 12.7521 6.17077 13 5.40926 13C3.86852 13 3.19556 12.1074 3.19556 10.0496C3.19556 7.96694 3.78883 7 5.56864 7C6.25046 7 6.6755 7.1405 6.8703 7.26446V8.52066C6.54267 8.28926 6.14421 8.13223 5.70147 8.13223C4.78057 8.13223 4.48836 8.66116 4.48836 9.97521C4.48836 11.3554 4.79828 11.8678 5.52437 11.8678C5.80772 11.8678 5.95826 11.8099 6.07337 11.7603V10.7107Z" fill="#D2D2D2"/>
<path fill-rule="evenodd" clip-rule="evenodd" d="M8.10938 12.9132H9.38447V11.2603C9.42981 11.2627 9.46798 11.265 9.50307 11.2672C9.59132 11.2726 9.66004 11.2769 9.77408 11.2769C11.306 11.2769 11.9966 10.6074 11.9966 9.11983C11.9966 7.64876 11.4034 7.08678 9.79179 7.08678C9.2944 7.08678 9.02367 7.10088 8.70324 7.11757C8.5331 7.12644 8.34892 7.13603 8.10938 7.14463V12.9132ZM9.38447 10.1694V8.19421C9.54386 8.16942 9.59699 8.16942 9.75637 8.16942C10.5356 8.16942 10.695 8.49174 10.695 9.18595C10.695 9.8719 10.4825 10.1942 9.77408 10.1942C9.62702 10.1942 9.57155 10.1885 9.46062 10.1771L9.38447 10.1694Z" fill="#D2D2D2"/>
<path d="M14.9004 12.9421C13.6608 12.9421 12.9966 12.4298 12.9966 10.7851V7.05785H14.2629V10.6529C14.2629 11.6033 14.378 11.8099 14.9004 11.8099C15.4494 11.8099 15.538 11.6198 15.538 10.6942V7.05785H16.8042V10.7769C16.8042 12.4711 16.1667 12.9421 14.9004 12.9421Z" fill="#D2D2D2"/>
</svg>
