<svg width="20" height="20" viewBox="0 0 20 20" fill="none" xmlns="http://www.w3.org/2000/svg">
<path fill-rule="evenodd" clip-rule="evenodd" d="M13.3677 3C12.7594 3 12.157 3.11831 11.595 3.34818C11.0331 3.57803 10.5224 3.91505 10.0923 4.3397L9.99982 4.43103L9.90715 4.33956C9.0385 3.48208 7.86036 3.00036 6.6319 3.00036C5.40344 3.00036 4.2253 3.48208 3.35665 4.33956C2.488 5.19703 2 6.36001 2 7.57266C2 8.78531 2.488 9.94829 3.35665 10.8058L9.37128 16.743C9.71841 17.0857 10.2812 17.0857 10.6284 16.743L16.6428 10.8059C17.0731 10.3814 17.4144 9.87734 17.6473 9.32257C17.8801 8.7678 18 8.17317 18 7.57266C18 6.97215 17.8801 6.37752 17.6473 5.82275C17.4145 5.26811 17.073 4.76387 16.6428 4.33941C16.2128 3.91482 15.7023 3.578 15.1405 3.34818C14.5785 3.11831 13.9761 3 13.3677 3ZM13.3677 4.7549C12.9929 4.7549 12.6218 4.8278 12.2755 4.96943C11.9293 5.11105 11.6147 5.31863 11.3497 5.58031L10.6284 6.29239C10.2812 6.63506 9.71841 6.63506 9.37128 6.29239L8.65007 5.58046C8.11482 5.05209 7.38886 4.75526 6.6319 4.75526C5.87494 4.75526 5.14898 5.05209 4.61373 5.58046C4.07848 6.10882 3.77778 6.82544 3.77778 7.57266C3.77778 8.31988 4.07848 9.0365 4.61373 9.56486L9.99982 14.8816L15.3859 9.56486C15.651 9.30331 15.8614 8.99261 16.0049 8.6508C16.1484 8.309 16.2222 7.94264 16.2222 7.57266C16.2222 7.20268 16.1484 6.83632 16.0049 6.49451C15.8614 6.15271 15.6511 5.84216 15.3861 5.5806C15.1211 5.31893 14.8062 5.11105 14.4599 4.96943C14.1137 4.8278 13.7425 4.7549 13.3677 4.7549Z" fill="#CCCCCC"/>
</svg>
