<svg width="20" height="20" viewBox="0 0 20 20" fill="none" xmlns="http://www.w3.org/2000/svg">
<path fill-rule="evenodd" clip-rule="evenodd" d="M13.3677 3C12.7594 3 12.157 3.11831 11.595 3.34818C11.0331 3.57803 10.5224 3.91505 10.0923 4.3397L9.99982 4.43103L9.90715 4.33956C9.0385 3.48208 7.86036 3.00036 6.6319 3.00036C5.40344 3.00036 4.2253 3.48208 3.35665 4.33956C2.488 5.19703 2 6.36001 2 7.57266C2 8.78531 2.488 9.94829 3.35665 10.8058L9.37128 16.743C9.71841 17.0857 10.2812 17.0857 10.6284 16.743L16.6428 10.8059C17.0731 10.3814 17.4144 9.87734 17.6473 9.32257C17.8801 8.7678 18 8.17317 18 7.57266C18 6.97215 17.8801 6.37752 17.6473 5.82275C17.4145 5.26811 17.073 4.76387 16.6428 4.33941C16.2128 3.91482 15.7023 3.578 15.1405 3.34818C14.5785 3.11831 13.9761 3 13.3677 3Z" fill="#CCCCCC"/>
</svg>
