<svg width="20" height="20" viewBox="0 0 20 20" fill="none" xmlns="http://www.w3.org/2000/svg">
    <path fill-rule="evenodd" clip-rule="evenodd" d="M9.44302 3.03534C9.34846 2.71653 9.29212 2.31529 9.29212 1.87939C9.29212 0.841433 9.61161 0 10.0057 0C10.3998 0 10.7193 0.841433 10.7193 1.87939C10.7193 2.32797 10.6596 2.73984 10.5601 3.06295C11.7475 3.18552 12.8481 3.60166 13.7894 4.23747C13.8906 3.90766 14.0822 3.52213 14.349 3.14107C14.9444 2.29082 15.6887 1.78481 16.0115 2.01086C16.3344 2.23692 16.1134 3.10943 15.5181 3.95968C15.2342 4.36507 14.9165 4.6922 14.6267 4.89905C14.8663 5.11919 15.0909 5.35554 15.2987 5.60634H15.1662H13.7742H13.7126C12.6657 4.7048 11.3076 4.16158 9.8248 4.16158C8.34192 4.16158 6.98395 4.70477 5.937 5.60634H4.35085C4.60823 5.29575 4.89128 5.00732 5.19673 4.74439C4.96385 4.54348 4.72233 4.27529 4.50133 3.95968C3.90598 3.10943 3.68506 2.23692 4.0079 2.01086C4.33073 1.78481 5.07507 2.29082 5.67042 3.14107C5.88659 3.44979 6.05339 3.76145 6.16273 4.04404C7.13022 3.45929 8.24733 3.09891 9.44302 3.03534ZM1.13184 7.82227H2.25603V9.34437H3.6142V7.82227H4.73839V12.0978H3.6142V10.4674H2.25603V12.0978H1.13184V7.82227ZM6.02808 12.0978V7.82227H8.68734V8.75149H7.15227V9.44698H8.51044V10.3933H7.15227V11.18H8.68734V12.0978H6.02808ZM9.91996 12.0978V7.82227H11.0442V10.9691H12.5849V12.0978H9.91996ZM14.3254 7.82227L16.0716 9.40708L17.8122 7.82227H18.32V12.0978H17.1901V9.90304L16.0716 10.9235L14.9475 9.90874V12.0978H13.8176V7.82227H14.3254ZM9.29184 18.0405C9.29184 17.6048 9.34814 17.2037 9.44262 16.885C8.24685 16.8214 7.12968 16.461 6.16215 15.8761C6.05281 16.1586 5.88604 16.4702 5.66993 16.7789C5.07458 17.6291 4.33024 18.1351 4.00741 17.9091C3.68457 17.683 3.90549 16.8105 4.50084 15.9602C4.72179 15.6447 4.96327 15.3766 5.1961 15.1757C4.89078 14.9128 4.60785 14.6245 4.35057 14.314H5.93672C6.98367 15.2156 8.34164 15.7588 9.82452 15.7588C11.3074 15.7588 12.6654 15.2155 13.7123 14.314H13.7739H15.1659H15.2985C15.0907 14.5648 14.8662 14.801 14.6266 15.0211C14.9163 15.228 15.2339 15.555 15.5176 15.9602C16.113 16.8105 16.3339 17.683 16.011 17.9091C15.6882 18.1351 14.9439 17.6291 14.3485 16.7789C14.0818 16.398 13.8903 16.0126 13.7891 15.6829C12.8478 16.3187 11.7473 16.7348 10.5599 16.8574C10.6594 17.1804 10.719 17.5921 10.719 18.0405C10.719 19.0785 10.3995 19.9199 10.0054 19.9199C9.61133 19.9199 9.29184 19.0785 9.29184 18.0405Z" fill="#666666"/>
</svg>
