<svg width="20" height="20" viewBox="0 0 20 20" fill="none" xmlns="http://www.w3.org/2000/svg">
    <path d="M15.7004 5.79944C15.7004 6.07558 15.4766 6.29944 15.2004 6.29944L5.20044 6.29944C4.9243 6.29944 4.70044 6.07558 4.70044 5.79944L4.70044 4.79944C4.70044 4.5233 4.9243 4.29944 5.20044 4.29944L15.2004 4.29944C15.4766 4.29944 15.7004 4.5233 15.7004 4.79944L15.7004 5.79944Z" fill="#CCCCCC"/>
    <path d="M15.7004 14.1667C15.7004 14.0269 15.6419 13.8936 15.5391 13.7989L10.5278 9.18435C10.3318 9.0039 10.0287 9.00879 9.8387 9.19547L4.85006 14.0956C4.75435 14.1896 4.70044 14.3181 4.70044 14.4523L4.70044 16.45C4.70044 16.6717 4.9675 16.7837 5.12563 16.6284L10.2225 11.622L15.2811 16.28C15.4413 16.4276 15.7004 16.3139 15.7004 16.0961V14.1667Z" fill="#CCCCCC"/>
</svg>