<svg width="20" height="20" viewBox="0 0 20 20" fill="none" xmlns="http://www.w3.org/2000/svg">
<path fill-rule="evenodd" clip-rule="evenodd" d="M2.88722 14.7401C2.37028 15.2563 2.37028 16.0966 2.88722 16.6132C3.40379 17.13 4.24399 17.13 4.75704 16.6132L5.13041 16.2434L6.68739 17.8C6.95364 18.0667 7.38036 18.0667 7.64698 17.8L9.96729 15.4797C10.2339 15.2135 10.2339 14.7867 9.96729 14.52L8.41064 12.9635L11.1838 10.1868C11.7772 10.4934 12.4536 10.6665 13.1671 10.6665C15.5604 10.6665 17.5004 8.72684 17.5004 6.3333C17.5004 3.94004 15.5604 2 13.1671 2C10.7736 2 8.83384 3.94004 8.83384 6.3333C8.83384 7.04685 9.00705 7.72327 9.31362 8.31667L2.88722 14.7401ZM11.5004 6.3333C11.5004 5.41334 12.2472 4.66658 13.1671 4.66658C14.0871 4.66658 14.8337 5.41334 14.8337 6.3333C14.8337 7.25326 14.0871 7.9999 13.1671 7.9999C12.2472 7.9999 11.5004 7.25322 11.5004 6.3333Z" fill="#D2D2D2"/>
</svg>
