<svg width="20" height="20" viewBox="0 0 20 20" fill="none" xmlns="http://www.w3.org/2000/svg">
<path d="M10.75 2.49889C10.75 2.22274 10.5261 1.99889 10.25 1.99889H9.75C9.47386 1.99889 9.25 2.22274 9.25 2.49889V6.60889C9.25 6.88503 9.47386 7.10889 9.75 7.10889H10.25C10.5261 7.10889 10.75 6.88503 10.75 6.60889V2.49889Z" fill="#D2D2D2"/>
<path opacity="0.875" d="M5.23913 4.11464C5.04387 3.91937 4.72729 3.91937 4.53202 4.11464L4.17847 4.46819C3.98321 4.66345 3.98321 4.98003 4.17847 5.1753L7.08468 8.08151C7.27994 8.27677 7.59652 8.27677 7.79179 8.08151L8.14534 7.72795C8.3406 7.53269 8.3406 7.21611 8.14534 7.02085L5.23913 4.11464Z" fill="#D2D2D2"/>
<path opacity="0.625" d="M4.04554 14.6986C3.85028 14.8939 3.85028 15.2105 4.04554 15.4057L4.3991 15.7593C4.59436 15.9545 4.91094 15.9545 5.1062 15.7593L8.01241 12.8531C8.20768 12.6578 8.20768 12.3412 8.01241 12.146L7.65886 11.7924C7.4636 11.5971 7.14702 11.5971 6.95175 11.7924L4.04554 14.6986Z" fill="#D2D2D2"/>
<path opacity="0.375" d="M14.8937 15.7716C15.0889 15.9669 15.4055 15.9669 15.6008 15.7716L15.9543 15.418C16.1496 15.2228 16.1496 14.9062 15.9543 14.7109L13.0481 11.8047C12.8529 11.6095 12.5363 11.6095 12.341 11.8047L11.9875 12.1583C11.7922 12.3535 11.7922 12.6701 11.9875 12.8654L14.8937 15.7716Z" fill="#D2D2D2"/>
<path opacity="0.125" d="M15.8214 5.1632C16.0167 4.96794 16.0167 4.65136 15.8214 4.4561L15.4678 4.10254C15.2726 3.90728 14.956 3.90728 14.7607 4.10254L11.8545 7.00875C11.6593 7.20401 11.6593 7.5206 11.8545 7.71586L12.2081 8.06941C12.4033 8.26467 12.7199 8.26467 12.9152 8.06941L15.8214 5.1632Z" fill="#D2D2D2"/>
<path opacity="0.5" d="M9.25 17.5011C9.25 17.7773 9.47386 18.0011 9.75 18.0011L10.25 18.0011C10.5261 18.0011 10.75 17.7773 10.75 17.5011L10.75 13.3911C10.75 13.115 10.5261 12.8911 10.25 12.8911L9.75 12.8911C9.47386 12.8911 9.25 13.115 9.25 13.3911L9.25 17.5011Z" fill="#D2D2D2"/>
<path opacity="0.75" d="M2.49889 9.18701C2.22274 9.18701 1.99889 9.41087 1.99889 9.68701V10.187C1.99889 10.4632 2.22274 10.687 2.49889 10.687H6.60889C6.88503 10.687 7.10889 10.4632 7.10889 10.187V9.68701C7.10889 9.41087 6.88503 9.18701 6.60889 9.18701H2.49889Z" fill="#D2D2D2"/>
<path opacity="0.25" d="M17.5011 10.687C17.7773 10.687 18.0011 10.4632 18.0011 10.187L18.0011 9.68701C18.0011 9.41087 17.7773 9.18701 17.5011 9.18701L13.3911 9.18701C13.115 9.18701 12.8911 9.41087 12.8911 9.68701L12.8911 10.187C12.8911 10.4632 13.115 10.687 13.3911 10.687L17.5011 10.687Z" fill="#D2D2D2"/>
</svg>
