<svg width="20" height="20" viewBox="0 0 20 20" fill="none" xmlns="http://www.w3.org/2000/svg">
<path d="M7.99163 11.912C7.99163 13.288 8.40763 13.704 9.21563 13.704C10.0316 13.704 10.4396 13.288 10.4396 11.912C10.4396 10.536 10.0236 10.12 9.21563 10.12C8.40763 10.12 7.99163 10.536 7.99163 11.912Z" fill="#CCCCCC"/>
<path fill-rule="evenodd" clip-rule="evenodd" d="M3.14645 1.85355L3.85355 1.14645C3.94732 1.05268 4.0745 1 4.20711 1H11.7929C11.9255 1 12.0527 1.05268 12.1464 1.14645L16.7071 5.70711C16.8946 5.89464 17 6.149 17 6.41421V8H17.29C17.4226 8 17.5462 8.05268 17.64 8.14645L18.35 8.85355C18.4438 8.94732 18.5 9.0745 18.5 9.20711V14.7929C18.5 14.9255 18.4438 15.0527 18.35 15.1464L17.64 15.8536C17.5462 15.9473 17.4226 16 17.29 16H17V17.5858C17 17.851 16.8946 18.1054 16.7071 18.2929L16.1464 18.8536C16.0527 18.9473 15.9255 19 15.7929 19H4.20711C4.0745 19 3.94732 18.9473 3.85355 18.8536L3.14645 18.1464C3.05268 18.0527 3 17.9255 3 17.7929V16H2.70711C2.5745 16 2.44732 15.9473 2.35355 15.8536L1.64645 15.1464C1.55268 15.0527 1.5 14.9255 1.5 14.7929V9.20711C1.5 9.0745 1.55268 8.94732 1.64645 8.85355L2.35355 8.14645C2.44732 8.05268 2.5745 8 2.70711 8H3V2.20711C3 2.0745 3.05268 1.94732 3.14645 1.85355ZM4.5 8H15.5V6.62132L11.3787 2.5H4.62132L4.5 2.62132V8ZM4.5 16V17.3787L4.62132 17.5H15.3787L15.5 17.3787V16H4.5ZM11.7356 11.912C11.7356 13.944 10.8556 14.824 9.21563 14.824C7.53563 14.824 6.69563 13.984 6.69563 11.912C6.69563 9.88 7.57563 9 9.21563 9C10.9356 9 11.7356 9.8 11.7356 11.912ZM6.44 14.712H3V9.112H4.248V13.592H6.44V14.712ZM15.0153 14.824C15.8553 14.824 16.4473 14.576 16.7753 14.392V11.552H14.8553V12.592H15.6073V13.576L15.5943 13.5792C15.439 13.6181 15.2877 13.656 15.0153 13.656C14.1033 13.656 13.6713 13.224 13.6713 11.872C13.6713 10.6 14.1033 10.168 15.0153 10.168C15.6153 10.168 16.1353 10.344 16.4553 10.528V9.28C16.4553 9.28 15.8953 9 15.0153 9C13.2153 9 12.3753 9.84 12.3753 11.88C12.3753 14.024 13.1753 14.824 15.0153 14.824Z" fill="#CCCCCC"/>
</svg>
