<svg width="20" height="20" viewBox="0 0 20 20" fill="none" xmlns="http://www.w3.org/2000/svg">
<path d="M2.00002 7.85473C2.00002 7.47232 2.41185 7.23146 2.74515 7.41894L9.75489 11.3619C9.9071 11.4475 10.0929 11.4475 10.2452 11.3619L17.2549 7.41894C17.5882 7.23146 18 7.47232 18 7.85473V14.2927C18 14.4253 17.9473 14.5525 17.8536 14.6463L16.1465 16.3534C16.0527 16.4471 15.9255 16.4998 15.7929 16.4998H4.20713C4.07452 16.4998 3.94734 16.4471 3.85358 16.3534L2.14647 14.6463C2.0527 14.5525 2.00002 14.4253 2.00002 14.2927V7.85473Z" fill="#D2D2D2"/>
<path d="M2.55054 4.75422C2.2852 4.98384 2.33274 5.40822 2.64232 5.57342L9.7646 9.37425C9.91171 9.45276 10.0883 9.45276 10.2354 9.37425L17.4471 5.52568C17.7303 5.37458 17.7998 4.99963 17.5896 4.7571L16.6495 3.67241C16.5546 3.56283 16.4167 3.49988 16.2717 3.49988H4.18631C4.06614 3.49988 3.94999 3.54316 3.85912 3.62179L2.55054 4.75422Z" fill="#D2D2D2"/>
</svg>
