<svg width="20" height="20" viewBox="0 0 20 20" fill="none" xmlns="http://www.w3.org/2000/svg">
<path d="M2 14.5C2 14.7761 2.22386 15 2.5 15H17.5C17.7761 15 18 14.7761 18 14.5V13.5C18 13.2239 17.7761 13 17.5 13H2.5C2.22386 13 2 13.2239 2 13.5V14.5ZM2.50002 5C2.22388 5 2.00002 5.22386 2.00002 5.5V6.5C2.00002 6.77614 2.22388 7 2.50002 7H17.5C17.7761 7 18 6.77614 18 6.5V5.5C18 5.22386 17.7761 5 17.5 5H2.50002ZM2 10.5C2 10.7761 2.22386 11 2.5 11H17.5C17.7761 11 18 10.7761 18 10.5V9.5C18 9.22386 17.7761 9 17.5 9H2.5C2.22386 9 2 9.22386 2 9.5V10.5Z" fill="#D2D2D2"/>
</svg>
