<svg width="20" height="20" viewBox="0 0 20 20" fill="none" xmlns="http://www.w3.org/2000/svg">
<path fill-rule="evenodd" clip-rule="evenodd" d="M12.5597 4.24208C12.5688 4.38539 12.5158 4.52568 12.4142 4.62721L9.95942 7.08203C9.82792 7.21353 9.63498 7.26162 9.45573 7.21208C8.48174 6.94285 5.27073 6.15877 3.19362 6.87851C3.01028 6.94204 2.89582 7.11871 2.89208 7.31272L2.86562 8.68445C2.86299 8.82038 2.91584 8.95152 3.01197 9.04765L6.52484 12.5605L1.22164 17.8637C1.02638 18.059 1.02638 18.3756 1.22164 18.5708L1.92875 19.2779C2.12401 19.4732 2.44059 19.4732 2.63586 19.2779L7.93906 13.9747L11.5291 17.5647C11.6252 17.6609 11.7563 17.7137 11.8923 17.7111L13.1154 17.6875C13.3049 17.6838 13.4784 17.5745 13.5448 17.397C14.3254 15.3105 13.527 12.002 13.2566 11.0128C13.2077 10.834 13.256 10.6423 13.3872 10.5112L15.8427 8.05568C15.9442 7.95414 16.0845 7.90116 16.2278 7.91023L19.2104 8.09898C19.6703 8.12809 19.9214 7.5723 19.5955 7.24643L13.2235 0.874399C12.8976 0.548527 12.3418 0.799598 12.3709 1.25953L12.5597 4.24208Z" fill="#D2D2D2"/>
</svg>
