<svg width="20" height="20" viewBox="0 0 20 20" fill="none" xmlns="http://www.w3.org/2000/svg">
<path d="M2.76529 5.11005C2.42793 5.30171 2.42793 5.78789 2.76529 5.97954L9.75305 9.94927C9.90621 10.0363 10.0938 10.0363 10.247 9.94927L17.2348 5.97954C17.5721 5.78789 17.5721 5.30171 17.2348 5.11005L10.247 1.14033C10.0938 1.05332 9.90621 1.05332 9.75305 1.14033L2.76529 5.11005Z" fill="#CCCCCC"/>
<path d="M9.17964 11.8254C9.17965 11.6455 9.08303 11.4795 8.92662 11.3906L3.06949 8.06318C2.73617 7.87383 2.32251 8.11458 2.32251 8.49793V14.8135C2.32251 14.9933 2.41913 15.1594 2.57553 15.2482L8.43245 18.5755C8.76576 18.7649 9.17941 18.5241 9.17943 18.1408L9.17964 11.8254Z" fill="#CCCCCC"/>
<path d="M10.7905 11.8255C10.7905 11.6456 10.8871 11.4796 11.0435 11.3907L16.9006 8.06329C17.234 7.87394 17.6476 8.11469 17.6476 8.49804L17.6476 14.8138C17.6476 14.9937 17.551 15.1597 17.3946 15.2486L11.538 18.5757C11.2047 18.7651 10.791 18.5243 10.791 18.141L10.7905 11.8255Z" fill="#CCCCCC"/>
</svg>
