<svg width="20" height="20" viewBox="0 0 20 20" fill="none" xmlns="http://www.w3.org/2000/svg">
<path fill-rule="evenodd" clip-rule="evenodd" d="M8 15.25C8 15.5961 8.10264 15.9345 8.29493 16.2222C8.48722 16.51 8.76053 16.7343 9.0803 16.8668C9.40008 16.9992 9.75194 17.0339 10.0914 16.9664C10.4309 16.8989 10.7427 16.7322 10.9874 16.4874C11.2322 16.2427 11.3989 15.9309 11.4664 15.5914C11.5339 15.2519 11.4992 14.9001 11.3668 14.5803C11.2343 14.2605 11.01 13.9872 10.7222 13.7949C10.4345 13.6026 10.0961 13.5 9.75 13.5C9.52015 13.4999 9.29253 13.545 9.08015 13.6329C8.86777 13.7208 8.6748 13.8497 8.51227 14.0123C8.34974 14.1748 8.22084 14.3678 8.13294 14.5801C8.04504 14.7925 7.99987 15.0202 8 15.25ZM8 10C8 10.3461 8.10264 10.6845 8.29493 10.9722C8.48722 11.26 8.76053 11.4843 9.0803 11.6168C9.40008 11.7492 9.75194 11.7839 10.0914 11.7164C10.4309 11.6489 10.7427 11.4822 10.9874 11.2374C11.2322 10.9927 11.3989 10.6809 11.4664 10.3414C11.5339 10.0019 11.4992 9.65008 11.3668 9.3303C11.2343 9.01053 11.01 8.73722 10.7222 8.54493C10.4345 8.35264 10.0961 8.25 9.75 8.25C9.52015 8.24987 9.29253 8.29504 9.08015 8.38294C8.86777 8.47084 8.6748 8.59974 8.51227 8.76227C8.34974 8.9248 8.22084 9.11777 8.13294 9.33015C8.04504 9.54253 7.99987 9.77015 8 10ZM8 4.75C8 5.09612 8.10264 5.43446 8.29493 5.72225C8.48722 6.01003 8.76053 6.23434 9.0803 6.36679C9.40008 6.49924 9.75194 6.5339 10.0914 6.46637C10.4309 6.39885 10.7427 6.23218 10.9874 5.98744C11.2322 5.7427 11.3989 5.43088 11.4664 5.09141C11.5339 4.75194 11.4992 4.40007 11.3668 4.0803C11.2343 3.76053 11.01 3.48722 10.7222 3.29493C10.4345 3.10264 10.0961 3 9.75 3C9.52015 2.99987 9.29253 3.04504 9.08015 3.13294C8.86777 3.22084 8.6748 3.34974 8.51227 3.51227C8.34974 3.6748 8.22084 3.86777 8.13294 4.08015C8.04504 4.29253 7.99987 4.52015 8 4.75Z" fill="#D2D2D2"/>
</svg>
