<svg width="20" height="20" viewBox="0 0 20 20" fill="none" xmlns="http://www.w3.org/2000/svg">
<path fill-rule="evenodd" clip-rule="evenodd" d="M8.99536 15C8.99536 14.4477 9.44308 14 9.99536 14H10.0045C10.5568 14 11.0045 14.4477 11.0045 15C11.0045 15.5523 10.5568 16 10.0045 16H9.99536C9.44308 16 8.99536 15.5523 8.99536 15Z" fill="#CCCCCC"/>
<path fill-rule="evenodd" clip-rule="evenodd" d="M3.75845 2.17269L3.75347 2.17812L2.57535 1L1.16113 2.41421L3 4.25308V16.793C3 16.9256 3.04829 17.0528 3.13424 17.1465L4.69909 18.8536C4.78504 18.9474 4.90162 19.0001 5.02318 19.0001H14.9768C15.0984 19.0001 15.215 18.9474 15.3009 18.8536L16.4007 17.6538L17.4246 18.6777L18.8388 17.2635L17 15.4247V15.4142L15 13.4142V13.4247L5.16902 3.59367L5.174 3.58824L3.75845 2.17269ZM5 16.2221V6.25308L14.9852 16.2383L14.2869 17.0001H5.71314L5 16.2221Z" fill="#CCCCCC"/>
<path d="M15 11.2929V3.77806L14.2869 3.00009H6.70716L4.80935 1.10228C4.93384 1.03567 5.07175 1.00009 5.21303 1.00009H14.787C15.0301 1.00009 15.2632 1.10545 15.4352 1.29298L16.7315 2.7072C16.9034 2.89473 17 3.14909 17 3.4143V13.2929L15 11.2929Z" fill="#CCCCCC"/>
</svg>
