<svg width="20" height="20" viewBox="0 0 20 20" fill="none" xmlns="http://www.w3.org/2000/svg">
<path d="M3.497 17H8.103C8.37749 17 8.6 16.7775 8.6 16.503V13.388C8.6 13.1135 8.37749 12.891 8.103 12.891H3.497C3.22251 12.891 3 13.1135 3 13.388V16.503C3 16.7775 3.22251 17 3.497 17Z" fill="#D2D2D2"/>
<path d="M3.497 10.091H8.103C8.37749 10.091 8.6 9.86849 8.6 9.594V3.497C8.6 3.22251 8.37749 3 8.103 3H3.497C3.22251 3 3 3.22251 3 3.497V9.594C3 9.86849 3.22251 10.091 3.497 10.091Z" fill="#D2D2D2"/>
<path d="M16.503 3H11.897C11.6225 3 11.4 3.22251 11.4 3.497V6.612C11.4 6.88649 11.6225 7.109 11.897 7.109H16.503C16.7775 7.109 17 6.88649 17 6.612V3.497C17 3.22251 16.7775 3 16.503 3Z" fill="#D2D2D2"/>
<path d="M16.503 9.909H11.897C11.6225 9.909 11.4 10.1315 11.4 10.406V16.503C11.4 16.7775 11.6225 17 11.897 17H16.503C16.7775 17 17 16.7775 17 16.503V10.406C17 10.1315 16.7775 9.909 16.503 9.909Z" fill="#D2D2D2"/>
</svg>
