<svg width="20" height="20" viewBox="0 0 20 20" fill="none" xmlns="http://www.w3.org/2000/svg">
<path d="M9.99315 6C8.56493 6 7.38975 7.08339 7.24459 8.47318C7.2279 8.63298 7.35976 8.76364 7.52042 8.76364H8.39315C8.55381 8.76364 8.68071 8.63174 8.71598 8.475C8.84743 7.89088 9.36933 7.45455 9.99315 7.45455H10.4295C10.9115 7.45455 11.3022 7.84528 11.3022 8.32727C11.3022 8.80927 10.9115 9.2 10.4295 9.2H10.2327C9.69875 9.2 9.26588 9.63287 9.26588 10.1668V11.3818C9.26588 11.5425 9.39612 11.6727 9.55678 11.6727H10.4295C10.5902 11.6727 10.7204 11.5425 10.7204 11.3818V10.8934C10.7204 10.7467 10.8304 10.6249 10.9732 10.5907C11.9962 10.3459 12.7568 9.42539 12.7568 8.32727C12.7568 7.04196 11.7148 6 10.4295 6H9.99315Z" fill="#CCCCCC"/>
<path d="M9.56987 14C9.4092 14 9.27896 13.8698 9.27896 13.7091V12.8364C9.27896 12.6757 9.4092 12.5455 9.56987 12.5455H10.4426C10.6033 12.5455 10.7335 12.6757 10.7335 12.8364V13.7091C10.7335 13.8698 10.6033 14 10.4426 14H9.56987Z" fill="#CCCCCC"/>
<path fill-rule="evenodd" clip-rule="evenodd" d="M10 18C14.4183 18 18 14.4183 18 10C18 5.58172 14.4183 2 10 2C5.58172 2 2 5.58172 2 10C2 14.4183 5.58172 18 10 18ZM16.5 10C16.5 13.5899 13.5899 16.5 10 16.5C6.41015 16.5 3.5 13.5899 3.5 10C3.5 6.41015 6.41015 3.5 10 3.5C13.5899 3.5 16.5 6.41015 16.5 10Z" fill="#CCCCCC"/>
</svg>
