<svg width="20" height="20" viewBox="0 0 20 20" fill="none" xmlns="http://www.w3.org/2000/svg">
<path fill-rule="evenodd" clip-rule="evenodd" d="M10 20C15.5228 20 20 15.5228 20 10C20 4.47715 15.5228 0 10 0C4.47715 0 0 4.47715 0 10C0 15.5228 4.47715 20 10 20ZM5.25346 7.50079C5.50295 5.11208 7.52279 3.25 9.97754 3.25H10.7275C12.9367 3.25 14.7275 5.04086 14.7275 7.25C14.7275 9.13739 13.4203 10.7195 11.6619 11.1403C11.4166 11.199 11.2275 11.4084 11.2275 11.6606V12.5C11.2275 12.7761 11.0037 13 10.7275 13H9.22754C8.9514 13 8.72754 12.7761 8.72754 12.5V10.4118C8.72754 9.494 9.47154 8.75 10.3893 8.75H10.7275C11.556 8.75 12.2275 8.07843 12.2275 7.25C12.2275 6.42157 11.556 5.75 10.7275 5.75H9.97754C8.90536 5.75 8.00833 6.49995 7.78241 7.5039C7.72179 7.77331 7.50368 8 7.22754 8H5.72754C5.4514 8 5.22477 7.77543 5.25346 7.50079ZM8.75003 16.5C8.75003 16.7761 8.97388 17 9.25003 17H10.75C11.0262 17 11.25 16.7761 11.25 16.5V15C11.25 14.7239 11.0262 14.5 10.75 14.5H9.25003C8.97388 14.5 8.75003 14.7239 8.75003 15V16.5Z" fill="#CCCCCC"/>
</svg>
