<svg width="20" height="20" viewBox="0 0 20 20" fill="none" xmlns="http://www.w3.org/2000/svg">
<path fill-rule="evenodd" clip-rule="evenodd" d="M10 18C14.4183 18 18 14.4183 18 10C18 5.58172 14.4183 2 10 2C5.58172 2 2 5.58172 2 10C2 14.4183 5.58172 18 10 18ZM6.20277 8.00063C6.40236 6.08966 8.01823 4.6 9.98203 4.6H10.582C12.3493 4.6 13.782 6.03269 13.782 7.8C13.782 9.30991 12.7363 10.5756 11.3295 10.9122C11.1333 10.9592 10.982 11.1267 10.982 11.3285V12C10.982 12.2209 10.8029 12.4 10.582 12.4H9.38203C9.16112 12.4 8.98203 12.2209 8.98203 12V10.3294C8.98203 9.5952 9.57723 9 10.3114 9H10.582C11.2448 9 11.782 8.46274 11.782 7.8C11.782 7.13726 11.2448 6.6 10.582 6.6H9.98203C9.12429 6.6 8.40667 7.19996 8.22593 8.00312C8.17743 8.21865 8.00294 8.4 7.78203 8.4H6.58203C6.36112 8.4 6.17982 8.22035 6.20277 8.00063ZM9.00002 15.2C9.00002 15.4209 9.17911 15.6 9.40002 15.6H10.6C10.8209 15.6 11 15.4209 11 15.2V14C11 13.7791 10.8209 13.6 10.6 13.6H9.40002C9.17911 13.6 9.00002 13.7791 9.00002 14V15.2Z" fill="#D2D2D2"/>
</svg>
