<svg width="20" height="20" viewBox="0 0 20 20" fill="none" xmlns="http://www.w3.org/2000/svg">
<path d="M6.70852 13.5C6.98413 13.5 7.24752 13.6138 7.43648 13.8144L9.99997 16.5362L12.5635 13.8144C12.7524 13.6137 13.0158 13.5 13.2914 13.5H14.9211C15.1402 13.5 15.2533 13.7619 15.1031 13.9214L10.9388 18.3428C10.8443 18.4431 10.7127 18.5 10.5748 18.5L9.42508 18.5C9.28727 18.5 9.15558 18.4431 9.0611 18.3428L4.89687 13.9214C4.74663 13.7619 4.85973 13.5 5.07886 13.5H6.70852Z" fill="#D2D2D2"/>
<path d="M7.43648 6.18562C7.24752 6.38625 6.98413 6.5 6.70852 6.5H5.07887C4.85973 6.5 4.74663 6.23812 4.89688 6.07859L9.0611 1.65719C9.15558 1.55688 9.28727 1.5 9.42508 1.5L10.5748 1.5C10.7127 1.5 10.8443 1.55687 10.9388 1.65719L15.1031 6.07859C15.2533 6.23811 15.1402 6.5 14.9211 6.5L13.2914 6.5C13.0158 6.5 12.7524 6.38625 12.5635 6.18562L9.99997 3.46381L7.43648 6.18562Z" fill="#D2D2D2"/>
<path d="M2.00002 9V8C2.00002 7.72386 2.22388 7.5 2.50002 7.5H17.5C17.7761 7.5 18 7.72386 18 8V9C18 9.27614 17.7761 9.5 17.5 9.5H2.50002C2.22388 9.5 2.00002 9.27614 2.00002 9Z" fill="#D2D2D2"/>
<path d="M17.5 12.5H2.5C2.22386 12.5 2 12.2761 2 12V11C2 10.7239 2.22386 10.5 2.5 10.5H17.5C17.7761 10.5 18 10.7239 18 11V12C18 12.2761 17.7761 12.5 17.5 12.5Z" fill="#D2D2D2"/>
</svg>
