<svg width="20" height="20" viewBox="0 0 20 20" fill="none" xmlns="http://www.w3.org/2000/svg">
<path d="M16.8301 10C16.8301 13.8568 13.7484 16.94 10.0001 16.94C6.25181 16.94 3.17011 13.8568 3.17011 10C3.17011 6.14319 6.25181 3.06 10.0001 3.06C11.4317 3.06 12.766 3.50973 13.8685 4.28052L15.5817 2.99457C14.0558 1.74703 12.1141 1 10.0001 1C5.0903 1 1.11011 5.02944 1.11011 10C1.11011 14.9706 5.0903 19 10.0001 19C14.9099 19 18.8901 14.9706 18.8901 10C18.8901 9.44818 18.8411 8.90795 18.7471 8.38355L16.828 9.82401C16.8294 9.88249 16.8301 9.94115 16.8301 10Z" fill="#CCCCCC"/>
<path d="M17.0276 4.49707C17.4495 5.04983 17.8066 5.65036 18.0918 6.28659L10.0022 12.3301L6.62134 10.1823V7.59834L10.0022 9.74619L17.0276 4.49707Z" fill="#CCCCCC"/>
</svg>
