<svg width="20" height="20" viewBox="0 0 20 20" fill="none" xmlns="http://www.w3.org/2000/svg">
<path fill-rule="evenodd" clip-rule="evenodd" d="M10.4101 3.5C10.5259 3.5 10.6382 3.54021 10.7276 3.61377L17.3092 9.02478C17.4248 9.11975 17.4917 9.26145 17.4917 9.411V10.5894C17.4917 10.7389 17.4248 10.8806 17.3092 10.9756L10.7281 16.3862C10.6386 16.4598 10.5264 16.5 10.4106 16.5H9.96002C9.68388 16.5 9.46002 16.2761 9.46002 16V13.1297C9.46002 12.9866 9.38489 12.8687 9.24206 12.8601C8.72547 12.8291 7.43504 12.9731 6.54141 13.5689C5.64831 14.1643 3.93204 15.7835 3.32941 16.3605C3.23586 16.45 3.11181 16.5 2.9823 16.5H2.8992C2.71637 16.5 2.55237 16.3973 2.52983 16.2158C2.39849 15.1584 2.84987 11.9638 4.19606 10.0002C5.48409 8.12143 8.01917 7.42929 9.02955 7.22112C9.27542 7.17046 9.46002 6.95678 9.46002 6.70574V4C9.46002 3.72386 9.68388 3.5 9.96002 3.5H10.4101Z" fill="#D2D2D2"/>
</svg>
