<svg width="20" height="20" viewBox="0 0 20 20" fill="none" xmlns="http://www.w3.org/2000/svg">
<path fill-rule="evenodd" clip-rule="evenodd" d="M10 18C14.4183 18 18 14.4183 18 10C18 5.58172 14.4183 2 10 2C5.58172 2 2 5.58172 2 10C2 14.4183 5.58172 18 10 18ZM6.5 6C6.22386 6 6 6.22386 6 6.5V9.5C6 9.77614 6.22386 10 6.5 10H7.5C7.77614 10 8 9.77614 8 9.5V6.5C8 6.22386 7.77614 6 7.5 6H6.5ZM14 6.5C14 6.22386 13.7761 6 13.5 6H12.5C12.2239 6 12 6.22386 12 6.5V9.5C12 9.77614 12.2239 10 12.5 10H13.5C13.7761 10 14 9.77614 14 9.5V6.5ZM13.1136 14.2949C12.5201 13.6236 11.5397 12.9999 10 12.9999C8.46028 12.9999 7.47991 13.6236 6.88636 14.2949C6.70345 14.5018 6.39523 14.5654 6.16601 14.4114L5.83399 14.1883C5.60477 14.0343 5.54195 13.722 5.71748 13.5088C6.52948 12.5227 7.90264 11.5999 10 11.5999C12.0974 11.5999 13.4705 12.5227 14.2825 13.5088C14.4581 13.722 14.3952 14.0343 14.166 14.1883L13.834 14.4114C13.6048 14.5654 13.2965 14.5018 13.1136 14.2949Z" fill="#D2D2D2"/>
</svg>
