<svg width="20" height="20" viewBox="0 0 20 20" fill="none" xmlns="http://www.w3.org/2000/svg">
<path d="M2.5 5.5C2.5 5.22386 2.72386 5 3 5H7C7.27614 5 7.5 5.22386 7.5 5.5V6.5C7.5 6.77614 7.27614 7 7 7H3C2.72386 7 2.5 6.77614 2.5 6.5V5.5ZM3.00002 15C2.72388 15 2.50002 14.7761 2.50002 14.5V13.5C2.50002 13.2239 2.72388 13 3.00002 13H17C17.2762 13 17.5 13.2239 17.5 13.5V14.5C17.5 14.7761 17.2762 15 17 15H3.00002ZM2.5 9.5C2.5 9.22386 2.72386 9 3 9H13C13.2761 9 13.5 9.22386 13.5 9.5V10.5C13.5 10.7761 13.2761 11 13 11H3C2.72386 11 2.5 10.7761 2.5 10.5V9.5Z" fill="#D2D2D2"/>
</svg>
