<svg width="20" height="20" viewBox="0 0 20 20" fill="none" xmlns="http://www.w3.org/2000/svg">
<path d="M2.5 14.5C2.5 14.7761 2.72386 15 3 15H7C7.27614 15 7.5 14.7761 7.5 14.5V13.5C7.5 13.2239 7.27614 13 7 13H3C2.72386 13 2.5 13.2239 2.5 13.5V14.5ZM3.00002 5C2.72388 5 2.50002 5.22386 2.50002 5.5V6.5C2.50002 6.77614 2.72388 7 3.00002 7H17C17.2762 7 17.5 6.77614 17.5 6.5V5.5C17.5 5.22386 17.2762 5 17 5H3.00002ZM2.5 10.5C2.5 10.7761 2.72386 11 3 11H13C13.2761 11 13.5 10.7761 13.5 10.5V9.5C13.5 9.22386 13.2761 9 13 9H3C2.72386 9 2.5 9.22386 2.5 9.5V10.5Z" fill="#D2D2D2"/>
</svg>
