<svg width="20" height="20" viewBox="0 0 20 20" fill="none" xmlns="http://www.w3.org/2000/svg">
<path fill-rule="evenodd" clip-rule="evenodd" d="M10 2.92857C6.09456 2.92857 2.92857 6.09456 2.92857 10C2.92857 13.9054 6.09456 17.0714 10 17.0714C13.9054 17.0714 17.0714 13.9054 17.0714 10C17.0714 6.09456 13.9054 2.92857 10 2.92857ZM1 10C1 5.02944 5.02944 1 10 1C14.9706 1 19 5.02944 19 10C19 14.9706 14.9706 19 10 19C5.02944 19 1 14.9706 1 10Z" fill="#CCCCCC"/>
<path fill-rule="evenodd" clip-rule="evenodd" d="M8.87509 10V6.06252L9.43759 5.50002H10.5626L11.1251 6.06252V9.30474L14.5281 11.0063L14.7813 11.6875L14.2188 12.8125L13.5347 13.0251L9.49698 11.0063L8.87509 10Z" fill="#CCCCCC"/>
</svg>
