<svg width="20" height="20" viewBox="0 0 20 20" fill="none" xmlns="http://www.w3.org/2000/svg">
<path d="M2.5 3C2.22386 3 2 3.22386 2 3.5V4.5C2 4.77614 2.22386 5 2.5 5H17.5C17.7761 5 18 4.77614 18 4.5V3.5C18 3.22386 17.7761 3 17.5 3H2.5Z" fill="#D2D2D2"/>
<path d="M2.5 7C2.22386 7 2 7.22386 2 7.5V8.5C2 8.77614 2.22386 9 2.5 9H17.5C17.7761 9 18 8.77614 18 8.5V7.5C18 7.22386 17.7761 7 17.5 7H2.5Z" fill="#D2D2D2"/>
<path d="M2 11.5C2 11.2239 2.22386 11 2.5 11H17.5C17.7761 11 18 11.2239 18 11.5V12.5C18 12.7761 17.7761 13 17.5 13H2.5C2.22386 13 2 12.7761 2 12.5V11.5Z" fill="#D2D2D2"/>
<path d="M2.5 15C2.22386 15 2 15.2239 2 15.5V16.5C2 16.7761 2.22386 17 2.5 17H17.5C17.7761 17 18 16.7761 18 16.5V15.5C18 15.2239 17.7761 15 17.5 15H2.5Z" fill="#D2D2D2"/>
</svg>
