<svg width="20" height="20" viewBox="0 0 20 20" fill="none" xmlns="http://www.w3.org/2000/svg">
<path d="M3 12.2071C3 12.0745 3.05268 11.9473 3.14645 11.8536L3.85355 11.1464C3.94732 11.0527 4.0745 11 4.20711 11H7.79289C7.9255 11 8.05268 11.0527 8.14645 11.1464L8.85355 11.8536C8.94732 11.9473 9 12.0745 9 12.2071V15.7929C9 15.9255 8.94732 16.0527 8.85355 16.1464L8.14645 16.8536C8.05268 16.9473 7.9255 17 7.79289 17H4.20711C4.0745 17 3.94732 16.9473 3.85355 16.8536L3.14645 16.1464C3.05268 16.0527 3 15.9255 3 15.7929V12.2071Z" fill="#D2D2D2"/>
<path d="M3 4.20711C3 4.0745 3.05268 3.94732 3.14645 3.85355L3.85355 3.14645C3.94732 3.05268 4.0745 3 4.20711 3H7.79289C7.9255 3 8.05268 3.05268 8.14645 3.14645L8.85355 3.85355C8.94732 3.94732 9 4.0745 9 4.20711V7.79289C9 7.9255 8.94732 8.05268 8.85355 8.14645L8.14645 8.85355C8.05268 8.94732 7.9255 9 7.79289 9H4.20711C4.0745 9 3.94732 8.94732 3.85355 8.85355L3.14645 8.14645C3.05268 8.05268 3 7.9255 3 7.79289V4.20711Z" fill="#D2D2D2"/>
<path d="M11 12.2071C11 12.0745 11.0527 11.9473 11.1464 11.8536L11.8536 11.1464C11.9473 11.0527 12.0745 11 12.2071 11H15.7929C15.9255 11 16.0527 11.0527 16.1464 11.1464L16.8536 11.8536C16.9473 11.9473 17 12.0745 17 12.2071V15.7929C17 15.9255 16.9473 16.0527 16.8536 16.1464L16.1464 16.8536C16.0527 16.9473 15.9255 17 15.7929 17H12.2071C12.0745 17 11.9473 16.9473 11.8536 16.8536L11.1464 16.1464C11.0527 16.0527 11 15.9255 11 15.7929V12.2071Z" fill="#D2D2D2"/>
<path d="M11 4.20711C11 4.0745 11.0527 3.94732 11.1464 3.85355L11.8536 3.14645C11.9473 3.05268 12.0745 3 12.2071 3H15.7929C15.9255 3 16.0527 3.05268 16.1464 3.14645L16.8536 3.85355C16.9473 3.94732 17 4.0745 17 4.20711V7.79289C17 7.9255 16.9473 8.05268 16.8536 8.14645L16.1464 8.85355C16.0527 8.94732 15.9255 9 15.7929 9H12.2071C12.0745 9 11.9473 8.94732 11.8536 8.85355L11.1464 8.14645C11.0527 8.05268 11 7.9255 11 7.79289V4.20711Z" fill="#D2D2D2"/>
</svg>
