<svg width="20" height="20" viewBox="0 0 20 20" fill="none" xmlns="http://www.w3.org/2000/svg">
<g clip-path="url(#clip0)">
<path fill-rule="evenodd" clip-rule="evenodd" d="M14.1464 0.146447L15.8536 1.85355C15.9473 1.94732 16 2.0745 16 2.20711V6.05537C15.1866 5.40271 14.2369 4.9358 13.2168 4.69245C11.937 4.38713 10.5978 4.44604 9.34957 4.86246C8.10136 5.27886 6.99413 6.03597 6.15105 7.04793C5.30805 8.0598 4.76223 9.28672 4.57358 10.5912C4.38493 11.8957 4.5607 13.2274 5.08165 14.4378C5.60262 15.6481 6.44861 16.6901 7.52613 17.4463C8.60373 18.2025 9.8701 18.6428 11.1836 18.717C12.1196 18.7698 13.0526 18.6353 13.9296 18.3255L14.8219 19.1781L14.1464 19.8536C14.0527 19.9473 13.9255 20 13.7929 20L2.20711 20C2.0745 20 1.94732 19.9473 1.85355 19.8536L0.146445 18.1464C0.0526773 18.0527 0 17.9255 0 17.7929V2.20711C0 2.0745 0.052678 1.94732 0.146446 1.85355L1.85355 0.146447C1.94732 0.052679 2.0745 0 2.20711 0H13.7929C13.9255 0 14.0527 0.0526783 14.1464 0.146447ZM12.8688 6.15151C13.8763 6.39186 14.7975 6.90944 15.5293 7.64636C16.379 8.50163 16.9312 9.61016 17.1037 10.8068C17.2762 12.0034 17.0598 13.224 16.4867 14.2869L19.7318 17.5573C19.9036 17.7312 20 17.9663 20 18.2114C20 18.4565 19.9036 18.6917 19.7318 18.8655L18.8735 19.7289C18.7032 19.8997 18.4735 19.9969 18.233 19.9999C17.9926 20.0029 17.7605 19.9115 17.586 19.745L14.2419 16.549C13.3317 17.0456 12.302 17.2778 11.2682 17.2194C10.2343 17.161 9.23702 16.8144 8.38778 16.2185C7.53854 15.6225 6.87087 14.8006 6.45944 13.8447C6.04802 12.8889 5.90907 11.8367 6.05814 10.8059C6.2072 9.77513 6.6384 8.80639 7.30351 8.00805C7.96862 7.20971 8.84141 6.61325 9.82425 6.28538C10.8071 5.9575 11.8612 5.91115 12.8688 6.15151ZM12.2158 14.8054C12.8432 14.6797 13.4195 14.3697 13.8717 13.9145C14.4764 13.3037 14.8159 12.4767 14.8159 11.6147C14.8159 10.7526 14.4764 9.92564 13.8717 9.31479C13.4195 8.85964 12.8432 8.54962 12.2158 8.42396C11.5884 8.2983 10.9381 8.36263 10.347 8.60882C9.75595 8.85501 9.25075 9.27199 8.8953 9.80704C8.53986 10.3421 8.35014 10.9711 8.35014 11.6147C8.35014 12.2582 8.53986 12.8873 8.8953 13.4223C9.25075 13.9573 9.75595 14.3743 10.347 14.6205C10.9381 14.8667 11.5884 14.931 12.2158 14.8054Z" fill="#D2D2D2"/>
</g>
<defs>
<clipPath id="clip0">
<rect width="20" height="20" fill="white"/>
</clipPath>
</defs>
</svg>
