<svg width="20" height="20" viewBox="0 0 20 20" fill="none" xmlns="http://www.w3.org/2000/svg">
<path fill-rule="evenodd" clip-rule="evenodd" d="M7.50001 3C7.77615 3 8.00001 3.22386 8.00001 3.5V6.86151C8.00001 6.95213 7.97538 7.04105 7.92876 7.11876L2.16281 16.7287C2.06339 16.8944 2.06835 17.1025 2.17553 17.2633L3.85158 19.7773C3.94431 19.9164 4.10043 20 4.2676 20H15.7324C15.8996 20 16.0557 19.9164 16.1484 19.7773L17.8245 17.2633C17.9317 17.1025 17.9366 16.8944 17.8372 16.7287L12.0713 7.11876C12.0246 7.04105 12 6.95213 12 6.86151V3.5C12 3.22386 12.2239 3 12.5 3H13C13.2762 3 13.5 2.77614 13.5 2.5V1.5C13.5 1.22386 13.2762 1 13 1H7.00001C6.72387 1 6.50001 1.22386 6.50001 1.5V2.5C6.50001 2.77614 6.72387 3 7.00001 3H7.50001ZM7.0217 13.9484C7.01237 13.9643 7.00508 13.9817 7.00001 14H13C12.9949 13.9817 12.9877 13.9643 12.9783 13.9484L10.6988 10.0516C10.6894 10.0357 10.6822 10.0183 10.6771 10H9.32293C9.31786 10.0183 9.31058 10.0357 9.30124 10.0516L7.0217 13.9484Z" fill="#D2D2D2"/>
</svg>
