<svg width="20" height="20" viewBox="0 0 20 20" fill="none" xmlns="http://www.w3.org/2000/svg">
<path d="M10.0001 1.00006C5.94374 1.00006 2.47957 3.56115 1.10577 7.1699C1.03818 7.34744 1.0845 7.54712 1.21797 7.68232L1.25685 7.72171C1.41828 7.88523 1.66975 7.91694 1.87061 7.80534C4.121 6.55499 6.94019 5.81143 10.0001 5.81144C13.06 5.81144 15.8792 6.55499 18.1295 7.80534C18.3304 7.91694 18.5819 7.88523 18.7433 7.72171L18.7822 7.68232C18.9157 7.54712 18.962 7.34744 18.8944 7.1699C17.5206 3.56115 14.0564 1.00006 10.0001 1.00006Z" fill="#D2D2D2"/>
<path d="M10.0001 19.0001C5.94374 19.0001 2.47957 16.439 1.10577 12.8302C1.03818 12.6527 1.0845 12.453 1.21797 12.3178L1.25685 12.2784C1.41828 12.1149 1.66975 12.0832 1.87061 12.1948C4.121 13.4451 6.94019 14.1887 10.0001 14.1887C13.06 14.1887 15.8792 13.4451 18.1295 12.1948C18.3304 12.0832 18.5819 12.1149 18.7433 12.2784L18.7822 12.3178C18.9157 12.453 18.962 12.6527 18.8944 12.8302C17.5206 16.439 14.0564 19.0001 10.0001 19.0001Z" fill="#D2D2D2"/>
</svg>
