<svg width="20" height="20" viewBox="0 0 20 20" fill="none" xmlns="http://www.w3.org/2000/svg">
<path fill-rule="evenodd" clip-rule="evenodd" d="M10 9C12.2091 9 14 7.20914 14 5C14 2.79086 12.2091 1 10 1C7.79086 1 6 2.79086 6 5C6 7.20914 7.79086 9 10 9ZM2.79289 13.7071L5.20711 11.2929C5.39464 11.1054 5.649 11 5.91421 11H14.0858C14.351 11 14.6054 11.1054 14.7929 11.2929L17.2071 13.7071C17.3946 13.8946 17.5 14.149 17.5 14.4142V18.5C17.5 18.7761 17.2761 19 17 19H3C2.72386 19 2.5 18.7761 2.5 18.5V14.4142C2.5 14.149 2.60536 13.8946 2.79289 13.7071Z" fill="#D2D2D2"/>
</svg>
