<svg width="20" height="20" viewBox="0 0 20 20" fill="none" xmlns="http://www.w3.org/2000/svg">
<path d="M9.22857 12.891V18.5C9.22857 18.7761 9.00471 19 8.72857 19H7.37045C7.24264 19 7.11969 18.9511 7.02685 18.8632L5.77315 17.6773C5.68031 17.5895 5.55736 17.5405 5.42955 17.5405H4.07143C3.79529 17.5405 3.57143 17.3167 3.57143 17.0405V15.8432C3.57143 15.6866 3.64482 15.5391 3.76971 15.4445L5.6721 14.0049C5.91851 13.8184 5.93847 13.4553 5.71398 13.243L5.41245 12.9577C5.23913 12.7938 4.97412 12.7751 4.77954 12.9132L3.34646 13.9299C3.17317 14.0528 2.94111 14.0528 2.76783 13.9299L1.21069 12.8251C1.07853 12.7314 1 12.5794 1 12.4174V10.7432C1 10.4671 1.22386 10.2432 1.5 10.2432H2.34384C2.47164 10.2432 2.59459 10.1943 2.68744 10.1065L4.4436 8.44524C4.54344 8.3508 4.6 8.21944 4.6 8.08201V7.33784C4.6 7.0617 4.37614 6.83784 4.1 6.83784H3.55714C3.281 6.83784 3.05714 7.0617 3.05714 7.33784V8.28378C3.05714 8.55993 2.83329 8.78378 2.55714 8.78378H1.5C1.22386 8.78378 1 8.55993 1 8.28378V5.55254C1 5.43976 1.03813 5.33028 1.1082 5.2419L2.39272 3.62179C2.48756 3.50217 2.63186 3.43243 2.78452 3.43243H3.81076C3.98197 3.43243 4.14128 3.34483 4.23299 3.20025L5.4813 1.23219C5.57301 1.08761 5.73231 1 5.90353 1H8.72857C9.00471 1 9.22857 1.22386 9.22857 1.5V4.39189C9.22857 4.66803 9.00471 4.89189 8.72857 4.89189H7.88473C7.75693 4.89189 7.63398 4.84295 7.54113 4.75513L7.31601 4.54217C7.22317 4.45434 7.10021 4.40541 6.97241 4.40541H6.64286C6.36671 4.40541 6.14286 4.62926 6.14286 4.90541V5.16309C6.14286 5.30052 6.19942 5.43188 6.29926 5.52632L7.02685 6.21459C7.11969 6.30241 7.24264 6.35135 7.37045 6.35135H8.72857C9.00471 6.35135 9.22857 6.57521 9.22857 6.85135V10.4975C9.22857 10.5852 9.1236 10.6304 9.05985 10.5701L8.34458 9.89352C8.25174 9.8057 8.12878 9.75676 8.00098 9.75676H7.15714C6.881 9.75676 6.65714 9.98061 6.65714 10.2568V10.7162C6.65714 10.9924 6.881 11.2162 7.15714 11.2162H7.4867C7.6145 11.2162 7.73745 11.2652 7.8303 11.353L9.07217 12.5277C9.17201 12.6222 9.22857 12.7535 9.22857 12.891Z" fill="#D2D2D2"/>
<path fill-rule="evenodd" clip-rule="evenodd" d="M12.9732 18.8632C12.8803 18.9511 12.7574 19 12.6296 19H11.2714C10.9953 19 10.7714 18.7761 10.7714 18.5V12.891C10.7714 12.7535 10.828 12.6222 10.9278 12.5277L12.1697 11.353C12.2625 11.2652 12.3855 11.2162 12.5133 11.2162H12.8429C13.119 11.2162 13.3429 10.9924 13.3429 10.7162V10.2568C13.3429 9.98061 13.119 9.75676 12.8429 9.75676H11.999C11.8712 9.75676 11.7483 9.8057 11.6554 9.89352L10.9401 10.5701C10.8764 10.6304 10.7714 10.5852 10.7714 10.4975V6.85135C10.7714 6.57521 10.9953 6.35135 11.2714 6.35135H12.6296C12.7574 6.35135 12.8803 6.30241 12.9732 6.21459L13.7007 5.52632C13.8006 5.43188 13.8571 5.30052 13.8571 5.16309V4.90541C13.8571 4.62926 13.6333 4.40541 13.3571 4.40541H13.0276C12.8998 4.40541 12.7768 4.45434 12.684 4.54217L12.4589 4.75513C12.366 4.84295 12.2431 4.89189 12.1153 4.89189H11.2714C10.9953 4.89189 10.7714 4.66803 10.7714 4.39189V1.5C10.7714 1.22386 10.9953 1 11.2714 1H14.0965C14.2677 1 14.427 1.08761 14.5187 1.23219L15.767 3.20025C15.8587 3.34483 16.018 3.43243 16.1892 3.43243H17.2155C17.3681 3.43243 17.5124 3.50217 17.6073 3.62179L18.8918 5.2419C18.9619 5.33028 19 5.43976 19 5.55254V8.28378C19 8.55993 18.7761 8.78378 18.5 8.78378H17.4429C17.1667 8.78378 16.9429 8.55993 16.9429 8.28378V7.33784C16.9429 7.0617 16.719 6.83784 16.4429 6.83784H15.9C15.6239 6.83784 15.4 7.0617 15.4 7.33784V8.08201C15.4 8.21944 15.4566 8.3508 15.5564 8.44524L17.3126 10.1065C17.4054 10.1943 17.5284 10.2432 17.6562 10.2432H18.5C18.7761 10.2432 19 10.4671 19 10.7432V12.4174C19 12.5794 18.9215 12.7314 18.7893 12.8251L17.2322 13.9299C17.0589 14.0528 16.8268 14.0528 16.6535 13.9299L15.2205 12.9132C15.0259 12.7751 14.7609 12.7938 14.5875 12.9577L14.286 13.243C14.0615 13.4553 14.0815 13.8184 14.3279 14.0049L16.2303 15.4445C16.3552 15.5391 16.4286 15.6866 16.4286 15.8432V17.0405C16.4286 17.3167 16.2047 17.5405 15.9286 17.5405H14.5704C14.4426 17.5405 14.3197 17.5895 14.2268 17.6773L12.9732 18.8632ZM11.4714 9.17896C11.6343 9.09924 11.8145 9.05676 11.999 9.05676H12.8429C13.5056 9.05676 14.0429 9.59401 14.0429 10.2568V10.7162C14.0429 11.379 13.5056 11.9162 12.8429 11.9162H12.5929L11.4714 12.9771V18.3H12.5499L13.7458 17.1688C13.9686 16.958 14.2637 16.8405 14.5704 16.8405H15.7286V15.9427L13.9055 14.5631C13.3141 14.1155 13.2662 13.2441 13.805 12.7344L14.1065 12.4492C14.5225 12.0557 15.1585 12.0109 15.6255 12.3423L16.9429 13.2769L18.3 12.314V10.9432H17.6562C17.3494 10.9432 17.0544 10.8258 16.8315 10.615L15.0754 8.95377C14.8358 8.72712 14.7 8.41183 14.7 8.08201V7.33784C14.7 6.6751 15.2373 6.13784 15.9 6.13784H16.4429C17.1056 6.13784 17.6429 6.6751 17.6429 7.33784V8.08378H18.3V5.62221L17.1188 4.13243H16.1892C15.7783 4.13243 15.396 3.92218 15.1759 3.57518L13.9865 1.7H11.4714V4.19189H12.0357L12.2029 4.03364C12.4258 3.82286 12.7209 3.70541 13.0276 3.70541H13.3571C14.0199 3.70541 14.5571 4.24266 14.5571 4.90541V5.16309C14.5571 5.49291 14.4214 5.8082 14.1818 6.03485L13.4542 6.72311C13.2314 6.9339 12.9363 7.05135 12.6296 7.05135H11.4714V9.17896ZM17.0586 13.359C17.0585 13.3589 17.0587 13.359 17.0586 13.359V13.359Z" fill="#D2D2D2"/>
</svg>
