<svg width="24" height="24" viewBox="0 0 24 24" fill="none" xmlns="http://www.w3.org/2000/svg">
<path d="M11.9814 5L5 14.8082L11.9814 19.0078M11.9814 5L18.95 14.8082L11.9814 19.0078M11.9814 5V19.0078" stroke="#389F74" stroke-width="1.5"/>
<path d="M11 18H13V20H11V18Z" fill="#0A402C"/>
<path d="M4 14H6V16H4V14Z" fill="#0A402C"/>
<path d="M18 14H20V16H18V14Z" fill="#0A402C"/>
<path d="M11 4H13V6H11V4Z" fill="#0A402C"/>
<path d="M11 18H13V20H11V18Z" stroke="#0A402C" stroke-width="1.5"/>
<path d="M4 14H6V16H4V14Z" stroke="#0A402C" stroke-width="1.5"/>
<path d="M18 14H20V16H18V14Z" stroke="#0A402C" stroke-width="1.5"/>
<path d="M11 4H13V6H11V4Z" stroke="#0A402C" stroke-width="1.5"/>
</svg>
