<svg width="24" height="24" viewBox="0 0 24 24" fill="none" xmlns="http://www.w3.org/2000/svg">
<path d="M4.64868 4.52698L4.64868 3.77698C4.23447 3.77698 3.89868 4.11276 3.89868 4.52698L4.64868 4.52698ZM3.89868 10.927C3.89868 11.3412 4.23447 11.677 4.64868 11.677C5.0629 11.677 5.39868 11.3412 5.39868 10.927H3.89868ZM5.46235 4.52698L6.16892 4.27545C6.06252 3.97658 5.77959 3.77698 5.46235 3.77698L5.46235 4.52698ZM7.08968 9.09841L6.38312 9.34993C6.48951 9.6488 6.77244 9.84841 7.08968 9.84841V9.09841ZM7.90335 9.09841V9.84841C8.2206 9.84841 8.50353 9.6488 8.60992 9.34993L7.90335 9.09841ZM9.53068 4.52698V3.77698C9.21344 3.77698 8.93051 3.97658 8.82412 4.27545L9.53068 4.52698ZM10.3444 4.52698L11.0944 4.52698C11.0944 4.32807 11.0153 4.1373 10.8747 3.99665C10.734 3.856 10.5433 3.77698 10.3444 3.77698V4.52698ZM9.59435 10.927C9.59435 11.3412 9.93014 11.677 10.3444 11.677C10.7586 11.677 11.0944 11.3412 11.0944 10.927H9.59435ZM13.4046 4.19157C13.2193 3.82108 12.7688 3.67092 12.3984 3.85616C12.0279 4.0414 11.8777 4.4919 12.0629 4.86239L13.4046 4.19157ZM17.6712 4.86239C17.8565 4.4919 17.7063 4.0414 17.3358 3.85616C16.9654 3.67092 16.5149 3.82108 16.3296 4.19157L17.6712 4.86239ZM14.1171 11.0139C14.1171 11.4281 14.4529 11.7639 14.8671 11.7639C15.2813 11.7639 15.6171 11.4281 15.6171 11.0139H14.1171ZM3.89868 4.52698L3.89868 10.927H5.39868L5.39868 4.52698L3.89868 4.52698ZM4.64868 5.27698H5.46235L5.46235 3.77698H4.64868L4.64868 5.27698ZM4.75578 4.7785L6.38312 9.34993L7.79625 8.84688L6.16892 4.27545L4.75578 4.7785ZM7.08968 9.84841H7.90335V8.34841H7.08968V9.84841ZM8.60992 9.34993L10.2373 4.7785L8.82412 4.27545L7.19678 8.84688L8.60992 9.34993ZM9.53068 5.27698L10.3444 5.27698V3.77698L9.53068 3.77698V5.27698ZM9.59435 4.52698L9.59435 10.927H11.0944L11.0944 4.52698L9.59435 4.52698ZM12.0629 4.86239L14.1963 9.12905L15.5379 8.45823L13.4046 4.19157L12.0629 4.86239ZM15.5379 9.12905L17.6712 4.86239L16.3296 4.19157L14.1963 8.45823L15.5379 9.12905ZM14.1171 8.79364V11.0139H15.6171V8.79364H14.1171Z" fill="#0A402C"/>
<path d="M7.5632 13.0251C6.05502 13.0251 6.58852 13 6.23899 13.0251C4.53706 13.1472 4.35686 14.813 4.97138 15.538C5.58589 16.2631 6.23899 16.0036 7.16253 16.6022C8.29421 17.3356 8.05271 19.4139 6.23899 19.4139L4.83229 19.4139M13.8177 18.5665L14.9603 19.473M17.4487 13.0139V19.4139H20.6487M12.1153 19.4139C10.9371 19.4139 9.98202 18.4588 9.98202 17.2806V15.1473C9.98202 13.969 10.9371 13.0139 12.1153 13.0139C13.2936 13.0139 14.2487 13.969 14.2487 15.1472V17.2806C14.2487 18.4588 13.2936 19.4139 12.1153 19.4139Z" stroke="#389F74" stroke-width="1.5" stroke-linecap="round"/>
</svg>
