<svg width="24" height="24" viewBox="0 0 24 24" fill="none" xmlns="http://www.w3.org/2000/svg">
<path d="M10.9056 9.28267C10.7274 10.9907 9.81836 14.4068 7.6083 14.4068C4.84572 14.4068 4.57165 6.65956 5.88081 5.10797C7.9406 2.66674 17.8097 3.48978 18.7882 7.98197C19.1149 9.48209 18.7032 12.9186 14.6039 16.2337C13.8018 16.8823 13.1841 18.1159 13.8018 19.219C14.6039 20.6514 16.2525 20.4221 17.5001 19.4864" stroke="#389F74" stroke-width="1.5"/>
<path d="M14.8695 10.002C14.8695 10.2782 14.6456 10.502 14.3695 10.502C14.0934 10.502 13.8695 10.2782 13.8695 10.002C13.8695 9.72587 14.0934 9.50201 14.3695 9.50201C14.6456 9.50201 14.8695 9.72587 14.8695 10.002Z" fill="#0A402C"/>
<path d="M15.1662 14.7095L17.2424 16.8508M14.8695 10.002C14.8695 10.2782 14.6456 10.502 14.3695 10.502C14.0934 10.502 13.8695 10.2782 13.8695 10.002C13.8695 9.72587 14.0934 9.50201 14.3695 9.50201C14.6456 9.50201 14.8695 9.72587 14.8695 10.002Z" stroke="#0A402C" stroke-width="1.5"/>
</svg>
