<svg width="24" height="24" viewBox="0 0 24 24" fill="none" xmlns="http://www.w3.org/2000/svg">
<path d="M10.75 7.5C10.75 7.08579 10.4142 6.75 9.99999 6.75C9.58577 6.75 9.24999 7.08579 9.24999 7.5H10.75ZM9.24999 13.5C9.24999 13.9142 9.58577 14.25 9.99999 14.25C10.4142 14.25 10.75 13.9142 10.75 13.5H9.24999ZM12.5 7.5V6.75C12.0858 6.75 11.75 7.08579 11.75 7.5H12.5ZM11.75 13.5C11.75 13.9142 12.0858 14.25 12.5 14.25C12.9142 14.25 13.25 13.9142 13.25 13.5H11.75ZM12.5 11.8525H14V10.3525H12.5V11.8525ZM14 11.8525C14.3543 11.8525 14.8918 11.7637 15.3642 11.4369C15.8788 11.0809 16.25 10.4844 16.25 9.63778H14.75C14.75 9.83084 14.7106 9.95047 14.6718 10.0244C14.6328 10.0987 14.5791 10.1561 14.5108 10.2034C14.3582 10.3089 14.1457 10.3525 14 10.3525V11.8525ZM16.25 9.63778V9.03316H14.75V9.63778H16.25ZM16.25 9.03316C16.25 8.41756 16.0958 7.81619 15.6639 7.36997C15.2278 6.91939 14.6281 6.75 14 6.75V8.25C14.3719 8.25 14.5222 8.34719 14.5861 8.41319C14.6542 8.48355 14.75 8.64876 14.75 9.03316H16.25ZM14 6.75H12.5V8.25H14V6.75ZM11.75 11.1025V13.5H13.25V11.1025H11.75ZM4 20.7637H20V19.2637H4V20.7637ZM9.24999 7.5V13.5H10.75V7.5H9.24999ZM11.75 7.5V11.1025H13.25V7.5H11.75Z" fill="#0A402C"/>
<path d="M12 3C8.13401 3 5 6.18375 5 10.1111C5 11.4064 5.34088 12.6207 5.93648 13.6667L12 19L18.0635 13.6667C18.6591 12.6207 19 11.4064 19 10.1111C19 6.18375 15.866 3 12 3Z" stroke="#389F74" stroke-width="1.5"/>
<rect x="11" y="19" width="2" height="2" fill="#389F74" stroke="#389F74" stroke-width="1.5"/>
</svg>
