<svg width="24" height="24" viewBox="0 0 24 24" fill="none" xmlns="http://www.w3.org/2000/svg">
<path d="M11.0248 7H13.0248V9H11.0248V7Z" fill="#0A402C"/>
<path d="M10 12L8.75 14H11.25L10 12Z" fill="#0A402C"/>
<path d="M15.75 12.75C15.75 13.4404 15.1904 14 14.5 14C13.8096 14 13.25 13.4404 13.25 12.75C13.25 12.0596 13.8096 11.5 14.5 11.5C15.1904 11.5 15.75 12.0596 15.75 12.75Z" fill="#0A402C"/>
<path d="M11.0248 7H13.0248V9H11.0248V7Z" stroke="#0A402C" stroke-width="1.5"/>
<path d="M10 12L8.75 14H11.25L10 12Z" stroke="#0A402C" stroke-width="1.5"/>
<path d="M15.75 12.75C15.75 13.4404 15.1904 14 14.5 14C13.8096 14 13.25 13.4404 13.25 12.75C13.25 12.0596 13.8096 11.5 14.5 11.5C15.1904 11.5 15.75 12.0596 15.75 12.75Z" stroke="#0A402C" stroke-width="1.5"/>
<path d="M17 20H7L4 4H20L17 20Z" stroke="#389F74" stroke-width="1.5"/>
</svg>
