<svg width="24" height="24" viewBox="0 0 24 24" fill="none" xmlns="http://www.w3.org/2000/svg">
<path d="M4 11L7.5 7.5L4 4M10 11L20 11" stroke="#0A402C" stroke-width="1.5"/>
<path d="M16 14V17M16 17V20.2374M16 17L19.5429 17M19.5429 14V17M19.5429 17V20.2431M12.7324 14.0105C11.3184 14.0105 11.8186 13.9869 11.4909 14.0105C9.89535 14.125 9.72642 15.6866 10.3025 16.3664C10.8786 17.0461 11.4909 16.8028 12.3567 17.364C13.4177 18.0516 13.1913 20 11.4909 20L10.1721 20M6.73236 14.0105C5.31844 14.0105 5.8186 13.9869 5.49091 14.0105C3.89535 14.125 3.72642 15.6866 4.30253 16.3664C4.87863 17.0461 5.49091 16.8028 6.35674 17.364C7.41768 18.0516 7.19128 20 5.49091 20L4.17214 20" stroke="#389F74" stroke-width="1.5" stroke-miterlimit="16" stroke-linecap="round"/>
</svg>
