<svg width="24" height="24" viewBox="0 0 24 24" fill="none" xmlns="http://www.w3.org/2000/svg">
<path d="M12.5003 13.8228C12.5003 14.099 12.2764 14.3228 12.0003 14.3228C11.7241 14.3228 11.5003 14.099 11.5003 13.8228C11.5003 13.5467 11.7241 13.3228 12.0003 13.3228C12.2764 13.3228 12.5003 13.5467 12.5003 13.8228Z" fill="#0A402C"/>
<path d="M14.0201 10.3244L16.04 13.8228L14.0201 17.3213H9.98042L7.96057 13.8228L9.98042 10.3244L14.0201 10.3244Z" stroke="#0A402C" stroke-width="1.5"/>
<path d="M12.5003 13.8228C12.5003 14.099 12.2764 14.3228 12.0003 14.3228C11.7241 14.3228 11.5003 14.099 11.5003 13.8228C11.5003 13.5467 11.7241 13.3228 12.0003 13.3228C12.2764 13.3228 12.5003 13.5467 12.5003 13.8228Z" stroke="#0A402C" stroke-width="1.5"/>
<path d="M3.99988 7.64026H19.9999M4.00006 6L6.00006 4H18.0001L20.0001 6V18L18.0001 20H6.00006L4.00006 18V6Z" stroke="#389F74" stroke-width="1.5"/>
</svg>
