<svg width="24" height="24" viewBox="0 0 24 24" fill="none" xmlns="http://www.w3.org/2000/svg">
<path d="M9 19H15M7 15L10 9M17 15L14 9" stroke="#389F74" stroke-width="1.5"/>
<path d="M7 19C7 20.1046 6.10457 21 5 21C3.89543 21 3 20.1046 3 19C3 17.8954 3.89543 17 5 17C6.10457 17 7 17.8954 7 19Z" stroke="#0A402C" stroke-width="1.5"/>
<path d="M21 19C21 20.1046 20.1046 21 19 21C17.8954 21 17 20.1046 17 19C17 17.8954 17.8954 17 19 17C20.1046 17 21 17.8954 21 19Z" stroke="#0A402C" stroke-width="1.5"/>
<path d="M14 5C14 6.10457 13.1046 7 12 7C10.8954 7 10 6.10457 10 5C10 3.89543 10.8954 3 12 3C13.1046 3 14 3.89543 14 5Z" stroke="#0A402C" stroke-width="1.5"/>
</svg>
