<svg width="24" height="24" viewBox="0 0 24 24" fill="none" xmlns="http://www.w3.org/2000/svg">
<path d="M7 11.5V4H16L20 8V20H11.5M7.27778 11H5.75L4.96464 12.4279M9.72222 11H11.25L12.0365 12.43M7.27778 21H5.75L4.96292 19.5689M9.72222 21H11.25L12.0373 19.5685M13.2343 14.6078L14 16L13.2351 17.3907M3.76776 14.6041L3 16L3.76502 17.3909M7.27778 11.9381H9.72222M11.2452 12.8802L12.4392 15.0617M11.2452 19.1161L12.4392 16.9347M5.75478 12.8802L4.56079 15.0617M5.75478 19.1161L4.56079 16.9347M7.27778 20.0699H9.72222M9.72222 16C9.72222 16.6904 9.17501 17.25 8.5 17.25C7.82499 17.25 7.27778 16.6904 7.27778 16C7.27778 15.3096 7.82499 14.75 8.5 14.75C9.17501 14.75 9.72222 15.3096 9.72222 16Z" stroke="black" stroke-width="1.5"/>
</svg>
