<svg width="24" height="24" viewBox="0 0 24 24" fill="none" xmlns="http://www.w3.org/2000/svg">
<path d="M4 9L14 9M20 15H10" stroke="black" stroke-width="1.5"/>
<path d="M16.1213 8.99998L14 6.87866L14 11.1213L16.1213 8.99998Z" fill="black"/>
<path d="M7.87869 15L10 12.8787L10 17.1213L7.87869 15Z" fill="black"/>
<path d="M16.1213 8.99998L14 6.87866L14 11.1213L16.1213 8.99998Z" stroke="black"/>
<path d="M7.87869 15L10 12.8787L10 17.1213L7.87869 15Z" stroke="black"/>
<path d="M20 12C20 7.58172 16.4183 4 12 4C9.79425 4 7.797 4.89269 6.34981 6.33649M4 12C4 16.4183 7.58172 20 12 20C14.2271 20 16.2416 19.09 17.692 17.6215" stroke="black" stroke-width="1.5"/>
</svg>
