<svg width="20" height="20" viewBox="0 0 20 20" fill="none" xmlns="http://www.w3.org/2000/svg">
<rect width="20" height="20" rx="5" fill="#316CC4" fill-opacity="0.1"/>
<path fill-rule="evenodd" clip-rule="evenodd" d="M11.0461 4.33993C11.3661 4.25416 11.6951 4.44411 11.7809 4.76419L12.1747 6.23368L13.6441 5.83993C13.9642 5.75416 14.2932 5.94411 14.379 6.26419C14.4647 6.58427 14.2748 6.91328 13.9547 6.99904L12.1457 7.48375L11.0396 9.39961H13.2519L14.5761 8.07535C14.8104 7.84103 15.1903 7.84103 15.4247 8.07535C15.659 8.30966 15.659 8.68956 15.4247 8.92388L14.3489 9.99961L15.4247 11.0753C15.659 11.3097 15.659 11.6896 15.4247 11.9239C15.1903 12.1582 14.8104 12.1582 14.5761 11.9239L13.2519 10.5996H11.0397L12.1457 12.5154L13.9548 13.0001C14.2748 13.0859 14.4648 13.4149 14.379 13.735C14.2932 14.0551 13.9642 14.245 13.6442 14.1592L12.1747 13.7655L11.7809 15.235C11.6952 15.5551 11.3662 15.745 11.0461 15.6592C10.726 15.5735 10.5361 15.2445 10.6218 14.9244L11.1065 13.1154L10.0004 11.1996L8.89427 13.1155L9.37898 14.9244C9.46475 15.2445 9.2748 15.5735 8.95472 15.6593C8.63464 15.7451 8.30564 15.5551 8.21987 15.235L7.82613 13.7655L6.35664 14.1593C6.03656 14.2451 5.70756 14.0551 5.6218 13.735C5.53603 13.415 5.72598 13.0859 6.04606 13.0002L7.85504 12.5155L8.96116 10.5996H6.74892L5.42465 11.9239C5.19034 12.1582 4.81044 12.1582 4.57613 11.9239C4.34181 11.6896 4.34181 11.3097 4.57613 11.0753L5.65186 9.99961L4.57613 8.92388C4.34181 8.68956 4.34181 8.30966 4.57613 8.07535C4.81044 7.84103 5.19034 7.84103 5.42465 8.07535L6.74892 9.39961H8.96121L7.85505 7.48369L6.04614 6.99913C5.72605 6.91339 5.53608 6.5844 5.62182 6.26432C5.70756 5.94423 6.03655 5.75426 6.35664 5.84L7.82614 6.23364L8.21991 4.76426C8.30569 4.44418 8.6347 4.25424 8.95478 4.34002C9.27485 4.42579 9.46479 4.7548 9.37901 5.07488L8.89428 6.88368L10.0004 8.79957L11.1065 6.88375L10.6218 5.07478C10.536 4.7547 10.726 4.42569 11.0461 4.33993Z" fill="#316CC4"/>
</svg>
