<svg width="20" height="20" viewBox="0 0 20 20" fill="none" xmlns="http://www.w3.org/2000/svg">
<path fill-rule="evenodd" clip-rule="evenodd" d="M6.5 1C6.22386 1 6 1.22386 6 1.5V3.5C6 3.77614 6.22386 4 6.5 4H8.5C8.77614 4 9 3.77614 9 3.5V1.5C9 1.22386 8.77614 1 8.5 1H6.5ZM2.5 5C2.22386 5 2 5.22386 2 5.5V7.5C2 7.77614 2.22386 8 2.5 8H4.5C4.77614 8 5 7.77614 5 7.5V5.5C5 5.22386 4.77614 5 4.5 5H2.5ZM6.5 5C6.22386 5 6 5.22386 6 5.5V7.5C6 7.77614 6.22386 8 6.5 8H8.5C8.77614 8 9 7.77614 9 7.5V5.5C9 5.22386 8.77614 5 8.5 5H6.5ZM12.5 5C12.7761 5 13 5.22386 13 5.5V7.5C13 7.77614 12.7761 8 12.5 8H10.5C10.2239 8 10 7.77614 10 7.5V5.5C10 5.22386 10.2239 5 10.5 5H12.5ZM1 9H15H15.6307C15.8076 9 15.9285 8.82137 15.8629 8.65715L15.5693 7.92313C15.2334 7.08349 15.5027 6.12294 16.2262 5.58035L16.8 5.15C16.9105 5.06716 17.0672 5.08954 17.15 5.2L17.7397 5.98631C18.1903 6.58702 18.1903 7.41298 17.7397 8.01369L17.471 8.37194C17.3803 8.4929 17.5274 8.64839 17.6532 8.56452C18.1283 8.2478 18.768 8.35739 19.1106 8.81417L19.8699 9.82654C19.9446 9.92607 19.9347 10.0653 19.8467 10.1533L19.7265 10.2735C19.0228 10.9772 17.9086 11.0564 17.1123 10.4592L16.751 10.1883C16.6225 10.0919 16.4378 10.14 16.3726 10.2867L14.6084 14.2562C13.3263 17.1409 10.4656 19 7.30877 19H6.82843C5.01742 19 3.28058 18.2806 2 17C0.719421 15.7194 0 13.9826 0 12.1716V10C0 9.44772 0.447715 9 1 9ZM6 12.5C6 11.6716 5.32843 11 4.5 11C3.67157 11 3 11.6716 3 12.5C3 13.3284 3.67157 14 4.5 14C5.32843 14 6 13.3284 6 12.5Z" fill="#87CEFA"/>
</svg>
