<svg width="20" height="20" viewBox="0 0 20 20" fill="none" xmlns="http://www.w3.org/2000/svg">
<rect width="20" height="20" rx="5" fill="#E05A9F" fill-opacity="0.1"/>
<g clip-path="url(#clip0_14862_175611)">
<path fill-rule="evenodd" clip-rule="evenodd" d="M10.0706 4.72794C9.89066 4.58678 9.64615 4.56016 9.44008 4.6593C9.23401 4.75844 9.10221 4.96609 9.10022 5.19477C9.09886 5.35068 9.01058 5.68708 8.78177 6.13154C8.5629 6.55668 8.24861 7.01595 7.87361 7.40825C7.58695 7.70814 7.34491 7.92652 7.10698 8.1412C7.01129 8.22753 6.91628 8.31326 6.81929 8.40346C6.4848 8.7145 6.16706 9.04496 5.85135 9.54039C5.2028 10.5581 5.2002 11.3176 5.2002 11.9028C5.2002 14.2184 7.19559 16 9.7002 16C9.7588 16 9.81713 15.999 9.87516 15.9971C9.91658 15.999 9.95827 16 10.0002 16C10.2576 16 10.506 15.9631 10.7393 15.8943C12.7348 15.4794 14.2002 13.8872 14.2002 11.9028C14.2002 10.0991 13.4319 8.52022 12.5546 7.30423C11.6755 6.08564 10.6551 5.18658 10.0706 4.72794ZM12.3965 13.5966C12.7829 13.1136 13.0002 12.5241 13.0002 11.9028C13.0002 10.4425 12.3756 9.10717 11.5815 8.0063C11.0761 7.30586 10.515 6.71845 10.0373 6.27698C9.98068 6.41253 9.91705 6.54801 9.84868 6.6808C9.58134 7.20011 9.20178 7.75544 8.74106 8.23743C8.42143 8.57181 8.1298 8.83496 7.88298 9.05768C7.79485 9.13721 7.7124 9.2116 7.63646 9.28222C7.34417 9.55403 7.10476 9.80643 6.86333 10.1853C6.40017 10.9121 6.40018 11.3948 6.4002 11.8945L6.4002 11.9028C6.4002 12.8113 6.8647 13.6517 7.64345 14.1908C7.61507 14.0504 7.6002 13.9045 7.6002 13.7543C7.6002 13.4583 7.60248 13.03 7.94854 12.4763C8.11351 12.2123 8.28062 12.036 8.4463 11.8789C8.49718 11.8306 8.54424 11.7873 8.59 11.7453C8.69642 11.6474 8.79577 11.556 8.91962 11.4239C9.07012 11.2634 9.19829 11.0727 9.28692 10.8972C9.33087 10.8101 9.36156 10.7338 9.38036 10.6737C9.39532 10.6259 9.39907 10.6001 9.39996 10.5939C9.40011 10.5929 9.40018 10.5925 9.40021 10.5925L9.40022 10.5949C9.40218 10.3652 9.53512 10.1567 9.74259 10.0581C9.95006 9.95947 10.1956 9.98796 10.375 10.1315C10.6596 10.3591 11.1545 10.8034 11.5828 11.4089C11.9854 11.9779 12.3559 12.7274 12.3965 13.5966ZM10.4478 14.7306C10.2675 14.765 10.0801 14.7872 9.88614 14.7959C9.21228 14.7465 8.8002 14.2615 8.8002 13.7543C8.8002 13.624 8.80164 13.543 8.82008 13.4532C8.83717 13.37 8.87356 13.2604 8.96614 13.1123C9.05831 12.9648 9.14834 12.8669 9.27195 12.7497C9.30192 12.7213 9.33652 12.6894 9.37481 12.6542C9.48995 12.5483 9.63853 12.4116 9.79506 12.2446C9.96897 12.0591 10.1193 11.854 10.2407 11.651C10.3625 11.7858 10.4865 11.9369 10.6033 12.102C10.9479 12.5891 11.2002 13.1546 11.2002 13.7543C11.2002 14.1714 10.9215 14.5735 10.4478 14.7306Z" fill="#E05A9F"/>
</g>
<defs>
<clipPath id="clip0_14862_175611">
<rect width="12" height="12" fill="white" transform="translate(4 4)"/>
</clipPath>
</defs>
</svg>
