<svg width="20" height="20" viewBox="0 0 20 20" fill="none" xmlns="http://www.w3.org/2000/svg">
<circle cx="10" cy="10" r="10" fill="#5558FA"/>
<path fill-rule="evenodd" clip-rule="evenodd" d="M12.5941 6.54625C12.6761 6.4709 12.7874 6.42857 12.9034 6.42857H13.4514C13.693 6.42857 13.8889 6.24869 13.8889 6.02679V5.40179C13.8889 5.17989 13.693 5 13.4514 5H12.7708C12.5292 5 12.3333 5.17989 12.3333 5.40179V5.905C12.3333 6.01156 12.2872 6.11376 12.2052 6.18911L12.0726 6.31089C11.9905 6.38624 11.8793 6.42857 11.7632 6.42857H11.2153C10.9737 6.42857 10.7778 6.60846 10.7778 6.83036V7.45536C10.7778 7.67726 10.5819 7.85714 10.3403 7.85714H9.65972C9.4181 7.85714 9.22222 7.67726 9.22222 7.45536V6.83036C9.22222 6.60846 9.02635 6.42857 8.78472 6.42857H8.23677C8.12074 6.42857 8.00946 6.38624 7.92741 6.31089L7.79481 6.18911C7.71276 6.11376 7.66667 6.01156 7.66667 5.905V5.40179C7.66667 5.17989 7.47079 5 7.22917 5H6.54861C6.30699 5 6.11111 5.17989 6.11111 5.40179V6.02679C6.11111 6.24869 6.30699 6.42857 6.54861 6.42857H7.09656C7.21259 6.42857 7.32387 6.4709 7.40592 6.54625L7.53853 6.66803C7.62057 6.74338 7.66667 6.84558 7.66667 6.95214V7.45536C7.66667 7.67726 7.47079 7.85714 7.22917 7.85714H6.54861C6.30699 7.85714 6.11111 8.03703 6.11111 8.25893V8.88393C6.11111 9.10583 5.91524 9.28571 5.67361 9.28571H4.99306C4.75143 9.28571 4.55556 9.4656 4.55556 9.6875V10.1907C4.55556 10.2973 4.50946 10.3995 4.42741 10.4748L4.29481 10.5966C4.21276 10.672 4.10148 10.7143 3.98545 10.7143H3.4375C3.19588 10.7143 3 10.8942 3 11.1161V13.1696C3 13.3915 3.19588 13.5714 3.4375 13.5714H4.11806C4.35968 13.5714 4.55556 13.3915 4.55556 13.1696V11.2379C4.55556 11.1313 4.60165 11.0291 4.6837 10.9537L4.8163 10.832C4.89835 10.7566 5.00963 10.7143 5.12566 10.7143H5.67361C5.91524 10.7143 6.11111 10.8942 6.11111 11.1161L6.11111 13.1696C6.11111 13.3915 6.30699 13.5714 6.54861 13.5714H7.09656C7.21259 13.5714 7.32387 13.6138 7.40592 13.6891L7.53853 13.8109C7.62057 13.8862 7.66667 13.9884 7.66667 14.095V14.5982C7.66667 14.8201 7.86254 15 8.10417 15H8.78472C9.02635 15 9.22222 14.8201 9.22222 14.5982V13.9732C9.22222 13.7513 9.02635 13.5714 8.78472 13.5714H8.23677C8.12074 13.5714 8.00946 13.5291 7.92742 13.4537L7.79481 13.332C7.71276 13.2566 7.66667 13.1544 7.66667 13.0479V12.5446C7.66667 12.3227 7.86254 12.1429 8.10417 12.1429H11.8958C12.1375 12.1429 12.3333 12.3227 12.3333 12.5446V13.0479C12.3333 13.1544 12.2872 13.2566 12.2052 13.332L12.0726 13.4537C11.9905 13.5291 11.8793 13.5714 11.7632 13.5714H11.2153C10.9737 13.5714 10.7778 13.7513 10.7778 13.9732V14.5982C10.7778 14.8201 10.9737 15 11.2153 15H11.8958C12.1375 15 12.3333 14.8201 12.3333 14.5982V14.095C12.3333 13.9884 12.3794 13.8862 12.4615 13.8109L12.5941 13.6891C12.6761 13.6138 12.7874 13.5714 12.9034 13.5714H13.4514C13.693 13.5714 13.8889 13.3915 13.8889 13.1696V11.1161C13.8889 10.8942 14.0848 10.7143 14.3264 10.7143H14.8743C14.9904 10.7143 15.1016 10.7566 15.1837 10.832L15.3163 10.9537C15.3984 11.0291 15.4444 11.1313 15.4444 11.2379V13.1696C15.4444 13.3915 15.6403 13.5714 15.8819 13.5714H16.5625C16.8041 13.5714 17 13.3915 17 13.1696V11.1161C17 10.8942 16.8041 10.7143 16.5625 10.7143H16.0146C15.8985 10.7143 15.7872 10.672 15.7052 10.5966L15.5726 10.4748C15.4905 10.3995 15.4444 10.2973 15.4444 10.1907V9.6875C15.4444 9.4656 15.2486 9.28571 15.0069 9.28571H14.3264C14.0848 9.28571 13.8889 9.10583 13.8889 8.88393V8.25893C13.8889 8.03703 13.693 7.85714 13.4514 7.85714H12.7708C12.5292 7.85714 12.3333 7.67726 12.3333 7.45536V6.95214C12.3333 6.84558 12.3794 6.74338 12.4615 6.66803L12.5941 6.54625ZM11.8958 10.7143C12.1375 10.7143 12.3333 10.5344 12.3333 10.3125V9.6875C12.3333 9.4656 12.1375 9.28571 11.8958 9.28571H11.2153C10.9737 9.28571 10.7778 9.4656 10.7778 9.6875V10.3125C10.7778 10.5344 10.9737 10.7143 11.2153 10.7143H11.8958ZM9.22222 10.3125C9.22222 10.5344 9.02635 10.7143 8.78472 10.7143H8.10417C7.86254 10.7143 7.66667 10.5344 7.66667 10.3125V9.6875C7.66667 9.4656 7.86254 9.28571 8.10417 9.28571H8.78472C9.02635 9.28571 9.22222 9.4656 9.22222 9.6875V10.3125Z" fill="white"/>
</svg>
