<svg width="20" height="20" viewBox="0 0 20 20" fill="none" xmlns="http://www.w3.org/2000/svg">
<path d="M10 5.70588C6.13401 5.70588 3 4.65243 3 3.35294C3 2.05345 6.13401 1 10 1C13.866 1 17 2.05345 17 3.35294C17 4.65243 13.866 5.70588 10 5.70588Z" fill="#98D6AA"/>
<path d="M10 7.27451C6.13401 7.27451 3 6.22106 3 4.92157V7.78431C3 9.08381 6.13401 10.1373 10 10.1373C13.866 10.1373 17 9.08381 17 7.78431V4.92157C17 6.22106 13.866 7.27451 10 7.27451Z" fill="#98D6AA"/>
<path d="M3 9.35294C3 10.6524 6.13401 11.7059 10 11.7059C13.866 11.7059 17 10.6524 17 9.35294V12.2157C17 13.5152 13.866 14.5686 10 14.5686C6.13401 14.5686 3 13.5152 3 12.2157V9.35294Z" fill="#98D6AA"/>
<path d="M3 13.7843C3 15.0838 6.13401 16.1373 10 16.1373C13.866 16.1373 17 15.0838 17 13.7843V16.6471C17 17.9466 13.866 19 10 19C6.13401 19 3 17.9466 3 16.6471V13.7843Z" fill="#98D6AA"/>
</svg>
