<svg width="20" height="20" viewBox="0 0 20 20" fill="none" xmlns="http://www.w3.org/2000/svg">
<circle cx="10" cy="10" r="10" fill="#5558FA"/>
<path fill-rule="evenodd" clip-rule="evenodd" d="M3 17.1416V17.1144C3 16.8492 3.10536 16.5949 3.29289 16.4073L5.36066 14.3396C5.64196 14.0583 6.0235 13.9002 6.42132 13.9002H13.5787C13.9765 13.9002 14.358 14.0583 14.6393 14.3396L16.7071 16.4073C16.8946 16.5949 17 16.8492 17 17.1144V17.1416C15.1962 18.9098 12.7255 20.0001 10 20.0001C7.27455 20.0001 4.80375 18.9098 3 17.1416ZM13.7334 8.30023C13.7334 10.3621 12.0619 12.0336 10.0001 12.0336C7.93819 12.0336 6.26672 10.3621 6.26672 8.30023C6.26672 6.23836 7.93819 4.56689 10.0001 4.56689C12.0619 4.56689 13.7334 6.23836 13.7334 8.30023Z" fill="#ACAEF9"/>
</svg>
