<svg width="20" height="20" viewBox="0 0 20 20" fill="none" xmlns="http://www.w3.org/2000/svg">
<circle cx="10" cy="10" r="10" fill="#723EC4"/>
<path fill-rule="evenodd" clip-rule="evenodd" d="M7.66667 5.35714C7.66667 5.1599 7.84078 5 8.05556 5H11.9444C12.1592 5 12.3333 5.1599 12.3333 5.35714V6.07143C12.3333 6.26867 12.5074 6.42857 12.7222 6.42857H13.5C13.7148 6.42857 13.8889 6.58847 13.8889 6.78571V7.5C13.8889 7.69724 14.063 7.85714 14.2778 7.85714H15.0556C15.2703 7.85714 15.4444 8.01704 15.4444 8.21429V8.92857C15.4444 9.12582 15.6186 9.28571 15.8333 9.28571H16.6111C16.8259 9.28571 17 9.44561 17 9.64286V10.3571C17 10.5544 16.8259 10.7143 16.6111 10.7143H14.2778C14.063 10.7143 13.8889 10.8742 13.8889 11.0714V12.1429H12.8833C12.7802 12.1429 12.6813 12.1805 12.6083 12.2475L12.4472 12.3954C12.3743 12.4624 12.3333 12.5532 12.3333 12.6479V13.0664C12.3333 13.1611 12.3743 13.2519 12.4472 13.3189L12.6083 13.4668C12.6813 13.5338 12.7802 13.5714 12.8833 13.5714H13.3389C13.4421 13.5714 13.541 13.5338 13.6139 13.4668L13.775 13.3189C13.8479 13.2519 13.8889 13.1611 13.8889 13.0664V12.1429H15.0556C15.2703 12.1429 15.4444 12.3028 15.4444 12.5V13.0664C15.4444 13.1611 15.4854 13.2519 15.5583 13.3189L15.7194 13.4668C15.7924 13.5338 15.8913 13.5714 15.9944 13.5714H16.6111C16.8259 13.5714 17 13.7313 17 13.9286V14.6429C17 14.8401 16.8259 15 16.6111 15H15.8333C15.6186 15 15.4444 14.8401 15.4444 14.6429V14.0765C15.4444 13.9818 15.4035 13.8909 15.3305 13.824L15.1695 13.676C15.0965 13.6091 14.9976 13.5714 14.8945 13.5714H14.4389C14.3357 13.5714 14.2368 13.6091 14.1639 13.676L14.0028 13.824C13.9299 13.8909 13.8889 13.9818 13.8889 14.0765V14.6429C13.8889 14.8401 13.7148 15 13.5 15H12.7222C12.5074 15 12.3333 14.8401 12.3333 14.6429V14.0765C12.3333 13.9818 12.2924 13.8909 12.2194 13.824L12.0583 13.676C11.9854 13.6091 11.8865 13.5714 11.7834 13.5714H11.3277C11.2246 13.5714 11.1257 13.6091 11.0528 13.676L10.8917 13.824C10.8187 13.8909 10.7778 13.9818 10.7778 14.0765V14.6429C10.7778 14.8401 10.6037 15 10.3889 15H9.61111C9.39633 15 9.22222 14.8401 9.22222 14.6429V14.0765C9.22222 13.9818 9.18125 13.8909 9.10832 13.824L8.94724 13.676C8.87431 13.6091 8.77539 13.5714 8.67225 13.5714H8.21664C8.1135 13.5714 8.01458 13.6091 7.94165 13.676L7.78057 13.824C7.70764 13.8909 7.66667 13.9818 7.66667 14.0765V14.6429C7.66667 14.8401 7.49256 15 7.27778 15H6.5C6.28522 15 6.11111 14.8401 6.11111 14.6429V14.0765C6.11111 13.9818 6.07014 13.8909 5.99721 13.824L5.83613 13.676C5.76319 13.6091 5.66428 13.5714 5.56114 13.5714H5.10553C5.00239 13.5714 4.90347 13.6091 4.83054 13.676L4.66946 13.824C4.59653 13.8909 4.55556 13.9818 4.55556 14.0765V14.6429C4.55556 14.8401 4.38144 15 4.16667 15H3.38889C3.17411 15 3 14.8401 3 14.6429V13.9286C3 13.7313 3.17411 13.5714 3.38889 13.5714H4.00558C4.10872 13.5714 4.20764 13.5338 4.28057 13.4668L4.44165 13.3189C4.51458 13.2519 4.55556 13.1611 4.55556 13.0664V12.5C4.55556 12.3028 4.72967 12.1429 4.94444 12.1429H6.11111V13.0664C6.11111 13.1611 6.15208 13.2519 6.22501 13.3189L6.3861 13.4668C6.45903 13.5338 6.55794 13.5714 6.66108 13.5714H7.11669C7.21983 13.5714 7.31875 13.5338 7.39168 13.4668L7.55276 13.3189C7.62569 13.2519 7.66667 13.1611 7.66667 13.0664V12.6479C7.66667 12.5532 7.62569 12.4624 7.55276 12.3954L7.39168 12.2475C7.31875 12.1805 7.21983 12.1429 7.11669 12.1429H6.11111V11.0714C6.11111 10.8742 5.937 10.7143 5.72222 10.7143H3.38889C3.17411 10.7143 3 10.5544 3 10.3571V9.64286C3 9.44561 3.17411 9.28571 3.38889 9.28571H4.16667C4.38144 9.28571 4.55556 9.12582 4.55556 8.92857V8.21429C4.55556 8.01704 4.72967 7.85714 4.94444 7.85714H5.72222C5.937 7.85714 6.11111 7.69724 6.11111 7.5V6.78571C6.11111 6.58847 6.28522 6.42857 6.5 6.42857H7.27778C7.49256 6.42857 7.66667 6.26867 7.66667 6.07143V5.35714ZM8.21664 12.1429C8.1135 12.1429 8.01458 12.1052 7.94165 12.0383L7.78057 11.8903C7.70764 11.8233 7.66667 11.7325 7.66667 11.6378V11.0714C7.66667 10.8742 7.84078 10.7143 8.05556 10.7143H8.83333C9.04811 10.7143 9.22222 10.8742 9.22222 11.0714V11.6378C9.22222 11.7325 9.18125 11.8233 9.10832 11.8903L8.94724 12.0383C8.87431 12.1052 8.77539 12.1429 8.67225 12.1429H8.21664ZM9.22222 12.6479C9.22222 12.5532 9.26319 12.4624 9.33612 12.3954L9.49721 12.2475C9.57014 12.1805 9.66905 12.1429 9.77219 12.1429H10.2278C10.3309 12.1429 10.4299 12.1805 10.5028 12.2475L10.6639 12.3954C10.7368 12.4624 10.7778 12.5532 10.7778 12.6479V13.0664C10.7778 13.1611 10.7368 13.2519 10.6639 13.3189L10.5028 13.4668C10.4299 13.5338 10.3309 13.5714 10.2278 13.5714H9.77219C9.66905 13.5714 9.57014 13.5338 9.49721 13.4668L9.33612 13.3189C9.26319 13.2519 9.22222 13.1611 9.22222 13.0664V12.6479ZM11.1667 10.7143C10.9519 10.7143 10.7778 10.8742 10.7778 11.0714V11.6378C10.7778 11.7325 10.8187 11.8233 10.8917 11.8903L11.0528 12.0383C11.1257 12.1052 11.2246 12.1429 11.3277 12.1429H11.7834C11.8865 12.1429 11.9854 12.1052 12.0583 12.0383L12.2194 11.8903C12.2924 11.8233 12.3333 11.7325 12.3333 11.6378V11.0714C12.3333 10.8742 12.1592 10.7143 11.9444 10.7143H11.1667ZM10.7778 8.21429C10.7778 8.01704 10.9519 7.85714 11.1667 7.85714H11.9444C12.1592 7.85714 12.3333 8.01704 12.3333 8.21429V8.92857C12.3333 9.12582 12.1592 9.28571 11.9444 9.28571H11.1667C10.9519 9.28571 10.7778 9.12582 10.7778 8.92857V8.21429ZM9.22222 8.21429C9.22222 8.01704 9.04811 7.85714 8.83333 7.85714H8.05556C7.84078 7.85714 7.66667 8.01704 7.66667 8.21429V8.92857C7.66667 9.12582 7.84078 9.28571 8.05556 9.28571H8.83333C9.04811 9.28571 9.22222 9.12582 9.22222 8.92857V8.21429Z" fill="white"/>
</svg>
