<svg width="20" height="20" viewBox="0 0 20 20" fill="none" xmlns="http://www.w3.org/2000/svg">
<circle cx="10" cy="10" r="10" fill="#723EC4"/>
<path fill-rule="evenodd" clip-rule="evenodd" d="M3.1515 17.2869C3.05364 17.1949 3 17.0657 3 16.9314V11.5C3 11.2239 3.22386 11 3.5 11H5.5C5.77614 11 6 10.7761 6 10.5V8.5C6 8.22386 6.22386 8 6.5 8H8.5C8.77614 8 9 7.77614 9 7.5V3.5C9 3.22386 9.22386 3 9.5 3H10.5C10.7761 3 11 3.22386 11 3.5V7.5C11 7.77614 11.2239 8 11.5 8H13.5C13.7761 8 14 8.22386 14 8.5V10.5C14 10.7761 14.2239 11 14.5 11H16.5C16.7761 11 17 11.2239 17 11.5V16.9314C17 17.0657 16.9464 17.1949 16.8485 17.2869C15.0591 18.9693 12.6499 20 10 20C7.35008 20 4.9409 18.9693 3.1515 17.2869ZM8 13.5C8 13.2239 7.77614 13 7.5 13H6.5C6.22386 13 6 13.2239 6 13.5V14.5C6 14.7761 6.22386 15 6.5 15H7.5C7.77614 15 8 14.7761 8 14.5V13.5ZM8 16.5C8 16.2239 7.77614 16 7.5 16H6.5C6.22386 16 6 16.2239 6 16.5V17.5C6 17.7761 6.22386 18 6.5 18H7.5C7.77614 18 8 17.7761 8 17.5V16.5ZM9 13.5C9 13.2239 9.22386 13 9.5 13H10.5C10.7761 13 11 13.2239 11 13.5V14.5C11 14.7761 10.7761 15 10.5 15H9.5C9.22386 15 9 14.7761 9 14.5V13.5ZM10.5 18C10.7761 18 11 17.7761 11 17.5V16.5C11 16.2239 10.7761 16 10.5 16H9.5C9.22386 16 9 16.2239 9 16.5V17.5C9 17.7761 9.22386 18 9.5 18H10.5ZM12 13.5C12 13.2239 12.2239 13 12.5 13H13.5C13.7761 13 14 13.2239 14 13.5V14.5C14 14.7761 13.7761 15 13.5 15H12.5C12.2239 15 12 14.7761 12 14.5V13.5ZM14 16.5C14 16.2239 13.7761 16 13.5 16H12.5C12.2239 16 12 16.2239 12 16.5V17.5C12 17.7761 12.2239 18 12.5 18H13.5C13.7761 18 14 17.7761 14 17.5V16.5Z" fill="#AD85EC"/>
</svg>
