<svg width="281" height="238" viewBox="0 0 281 238" fill="none" xmlns="http://www.w3.org/2000/svg">
<path d="M32.4483 96.9352H0.291748V128.937H32.4483V96.9352Z" fill="#5558FA"/>
<path d="M79.8075 33.8421C79.8049 32.538 80.0608 31.2462 80.5605 30.0406C81.0602 28.835 81.7939 27.7393 82.7196 26.8163C83.6453 25.8932 84.7449 25.1609 85.9553 24.6613C87.1657 24.1616 88.4633 23.9044 89.7737 23.9044H93.8419C96.4189 23.9077 98.8945 24.9042 100.749 26.6848C102.604 28.4655 103.693 30.8918 103.789 33.4547V55.9064H135.965V23.9044H113.813C111.17 23.9044 108.635 22.8595 106.766 20.9994C104.897 19.1394 103.847 16.6167 103.847 13.9862V12.049C103.86 8.87648 102.606 5.8288 100.361 3.57641C98.1159 1.32402 95.0638 0.051425 91.8759 0.0385808C88.6881 0.0257366 85.6257 1.2737 83.3624 3.50792C81.0991 5.74215 79.8204 8.77962 79.8075 11.9521V13.8893C79.8023 16.5216 78.748 19.0443 76.8759 20.9038C75.0038 22.7633 72.4668 23.8076 69.8218 23.8076H47.6704V55.9064H79.8075V33.8421Z" fill="#5558FA"/>
<path d="M32.1566 155.244H0V187.246H32.1566V155.244Z" fill="#5558FA"/>
<path d="M79.827 205.979H47.6704V237.981H79.827V205.979Z" fill="#5558FA"/>
<path d="M207.811 205.979H175.655V237.981H207.811V205.979Z" fill="#5558FA"/>
<path d="M229.281 207.702L280.981 175.681V143.679L229.281 175.681V207.702Z" fill="#5558FA"/>
<path d="M280.98 96.9352H248.824V128.937H280.98V96.9352Z" fill="#5558FA"/>
<path d="M145.736 155.244C144.424 155.244 143.125 154.986 141.913 154.485C140.701 153.985 139.601 153.251 138.675 152.325C137.749 151.4 137.016 150.302 136.517 149.095C136.019 147.887 135.765 146.593 135.77 145.287V123.242H103.613V145.287C103.608 147.919 102.554 150.442 100.682 152.302C98.8096 154.161 96.2726 155.205 93.6276 155.205H71.4373V187.246H103.613V165.182C103.613 162.55 104.663 160.025 106.531 158.162C108.4 156.299 110.934 155.249 113.579 155.244H125.784C128.433 155.244 130.972 156.291 132.845 158.155C134.718 160.018 135.77 162.546 135.77 165.182V187.246H167.926V155.244H145.736Z" fill="#5558FA"/>
<path d="M179.742 33.8418C179.742 31.2061 180.794 28.6785 182.667 26.8148C184.539 24.9511 187.079 23.9041 189.728 23.9041H193.796C196.371 23.9075 198.844 24.9047 200.696 26.6858C202.547 28.467 203.632 30.8932 203.723 33.4543V55.9061H235.899V23.9041H213.748C211.103 23.9041 208.566 22.8598 206.694 21.0003C204.822 19.1408 203.767 16.6181 203.762 13.9858V12.0487C203.762 10.4791 203.451 8.92485 202.848 7.47473C202.244 6.02461 201.36 4.707 200.244 3.59712C199.129 2.48725 197.805 1.60685 196.348 1.00619C194.891 0.40553 193.329 0.0963745 191.752 0.0963745C190.175 0.0963745 188.613 0.40553 187.156 1.00619C185.699 1.60685 184.375 2.48725 183.26 3.59712C182.144 4.707 181.26 6.02461 180.656 7.47473C180.053 8.92485 179.742 10.4791 179.742 12.0487V13.9858C179.742 16.6163 178.692 19.1391 176.823 20.9991C174.954 22.8592 172.419 23.9041 169.776 23.9041H147.585V55.9061H179.742V33.8418Z" fill="#5558FA"/>
<path d="M65.0334 130.003C74.4615 130.003 82.1044 122.396 82.1044 113.014C82.1044 103.631 74.4615 96.0248 65.0334 96.0248C55.6054 96.0248 47.9624 103.631 47.9624 113.014C47.9624 122.396 55.6054 130.003 65.0334 130.003Z" fill="#5558FA"/>
<path d="M191.733 130.003C201.161 130.003 208.804 122.396 208.804 113.014C208.804 103.631 201.161 96.0248 191.733 96.0248C182.305 96.0248 174.662 103.631 174.662 113.014C174.662 122.396 182.305 130.003 191.733 130.003Z" fill="#5558FA"/>
</svg>