<svg width="20" height="20" viewBox="0 0 20 20" fill="none" xmlns="http://www.w3.org/2000/svg">
<g clip-path="url(#clip0)">
<path fill-rule="evenodd" clip-rule="evenodd" d="M6.14645 14.3536C6.05268 14.4473 6 14.5745 6 14.7071L6 16.5C6 16.7761 5.77614 17 5.5 17H3.5C3.22386 17 3 16.7761 3 16.5L3 14.7071C3 14.5745 2.94732 14.4473 2.85355 14.3536L2.64645 14.1465C2.55268 14.0527 2.4255 14 2.29289 14H0.5C0.223858 14 0 13.7761 0 13.5V11.5C0 11.2239 0.223858 11 0.5 11L2.29289 11C2.4255 11 2.55268 10.9473 2.64645 10.8536L2.85355 10.6465C2.94732 10.5527 3 10.4255 3 10.2929L3 8.5C3 8.22386 3.22386 8 3.5 8H5.5C5.77614 8 6 8.22386 6 8.5V10.2929C6 10.4255 6.05268 10.5527 6.14645 10.6465L6.35356 10.8536C6.44732 10.9473 6.5745 11 6.70711 11H8.5C8.77614 11 9 11.2239 9 11.5V13.5C9 13.7761 8.77614 14 8.5 14L6.70711 14C6.5745 14 6.44732 14.0527 6.35355 14.1465L6.14645 14.3536ZM3.35355 11.1465C3.44732 11.0527 3.5745 11 3.70711 11H5.29289C5.4255 11 5.55268 11.0527 5.64645 11.1465L5.85355 11.3536C5.94732 11.4473 6 11.5745 6 11.7071L6 13.2929C6 13.4255 5.94732 13.5527 5.85355 13.6465L5.64645 13.8536C5.55268 13.9473 5.4255 14 5.29289 14H3.70711C3.5745 14 3.44732 13.9473 3.35355 13.8536L3.14645 13.6465C3.05268 13.5527 3 13.4255 3 13.2929L3 11.7071C3 11.5745 3.05268 11.4473 3.14645 11.3536L3.35355 11.1465Z" fill="#D2D2D2"/>
<path fill-rule="evenodd" clip-rule="evenodd" d="M7.99993 3.5C7.99993 3.22386 8.22379 3 8.49993 3H10.2928C10.4254 3 10.5526 2.94732 10.6464 2.85355L10.8535 2.64645C10.9473 2.55268 10.9999 2.4255 10.9999 2.2929V0.5C10.9999 0.223858 11.2238 2.30627e-07 11.4999 2.18557e-07L16.4999 0C16.7761 -1.20706e-08 16.9999 0.223858 16.9999 0.5L16.9999 2.2929C16.9999 2.4255 17.0526 2.55268 17.1464 2.64645L17.3535 2.85356C17.4473 2.94732 17.5744 3 17.707 3L19.4999 3C19.7761 3 19.9999 3.22386 19.9999 3.5V8.5C19.9999 8.77614 19.7761 9 19.4999 9H17.707C17.5744 9 17.4473 9.05268 17.3535 9.14645L17.1464 9.35356C17.0526 9.44732 16.9999 9.5745 16.9999 9.70711V11.5C16.9999 11.7761 16.7761 12 16.4999 12H11.4999C11.2238 12 10.9999 11.7761 10.9999 11.5L10.9999 9.70711C10.9999 9.5745 10.9473 9.44732 10.8535 9.35356L10.6464 9.14645C10.5526 9.05268 10.4254 9 10.2928 9H8.49993C8.22379 9 7.99993 8.77614 7.99993 8.5L7.99993 3.5ZM16.9999 8.2929C16.9999 8.4255 16.9473 8.55268 16.8535 8.64645L16.6464 8.85355C16.5526 8.94732 16.4254 9 16.2928 9H11.707C11.5744 9 11.4473 8.94732 11.3535 8.85355L11.1464 8.64645C11.0526 8.55268 10.9999 8.4255 10.9999 8.2929V3.70711C10.9999 3.5745 11.0526 3.44732 11.1464 3.35356L11.3535 3.14645C11.4473 3.05268 11.5744 3 11.707 3L16.2928 3C16.4254 3 16.5526 3.05268 16.6464 3.14645L16.8535 3.35356C16.9473 3.44732 16.9999 3.5745 16.9999 3.70711V8.2929Z" fill="#D2D2D2"/>
<path d="M13 19.5C13 19.7761 12.7761 20 12.5 20H11.5C11.2239 20 11 19.7761 11 19.5V18.5C11 18.2239 10.7761 18 10.5 18H9.5C9.22386 18 9 17.7761 9 17.5V16.5C9 16.2239 9.22386 16 9.5 16H10.5C10.7761 16 11 15.7761 11 15.5V14.5C11 14.2239 11.2239 14 11.5 14H12.5C12.7761 14 13 14.2239 13 14.5V15.5C13 15.7761 13.2239 16 13.5 16H14.5C14.7761 16 15 16.2239 15 16.5V17.5C15 17.7761 14.7761 18 14.5 18H13.5C13.2239 18 13 18.2239 13 18.5V19.5Z" fill="#D2D2D2"/>
</g>
<defs>
<clipPath id="clip0">
<rect width="20" height="20" fill="white"/>
</clipPath>
</defs>
</svg>
