<svg width="20" height="20" viewBox="0 0 20 20" fill="none" xmlns="http://www.w3.org/2000/svg">
<g clip-path="url(#clip0)">
<path fill-rule="evenodd" clip-rule="evenodd" d="M14.5 1.5C14.2239 1.5 14 1.72386 14 2V3.79289C14 3.9255 13.9473 4.05268 13.8536 4.14645L13.6465 4.35355C13.5527 4.44732 13.4255 4.5 13.2929 4.5L11.5 4.5C11.2239 4.5 11 4.72386 11 5V7C11 7.27614 11.2239 7.5 11.5 7.5H13.2929C13.4255 7.5 13.5527 7.55268 13.6465 7.64645L13.8536 7.85355C13.9473 7.94732 14 8.0745 14 8.20711V10C14 10.2761 14.2239 10.5 14.5 10.5H16.5C16.7761 10.5 17 10.2761 17 10L17 8.20711C17 8.0745 17.0527 7.94732 17.1465 7.85355L17.3536 7.64645C17.4473 7.55268 17.5745 7.5 17.7071 7.5H19.5C19.7761 7.5 20 7.27614 20 7V5C20 4.72386 19.7761 4.5 19.5 4.5L17.7071 4.5C17.5745 4.5 17.4473 4.44732 17.3536 4.35355L17.1465 4.14645C17.0527 4.05268 17 3.9255 17 3.79289V2C17 1.72386 16.7761 1.5 16.5 1.5H14.5ZM14.3536 7.35355C14.4473 7.44732 14.5745 7.5 14.7071 7.5H16.2929C16.4255 7.5 16.5527 7.44732 16.6465 7.35355L16.8536 7.14645C16.9473 7.05268 17 6.9255 17 6.79289L17 5.20711C17 5.0745 16.9473 4.94732 16.8536 4.85355L16.6465 4.64645C16.5527 4.55268 16.4255 4.5 16.2929 4.5H14.7071C14.5745 4.5 14.4473 4.55268 14.3536 4.64645L14.1465 4.85355C14.0527 4.94732 14 5.0745 14 5.20711V6.79289C14 6.9255 14.0527 7.05268 14.1465 7.14645L14.3536 7.35355Z" fill="#D2D2D2"/>
<path fill-rule="evenodd" clip-rule="evenodd" d="M3.5 6.5C3.22386 6.5 3 6.72386 3 7V8.7929C3 8.9255 2.94732 9.05268 2.85355 9.14645L2.64645 9.35355C2.55268 9.44732 2.4255 9.5 2.2929 9.5L0.5 9.5C0.223858 9.5 0 9.72386 0 10V15C0 15.2761 0.223858 15.5 0.500001 15.5H2.2929C2.4255 15.5 2.55268 15.5527 2.64645 15.6464L2.85356 15.8536C2.94732 15.9473 3 16.0745 3 16.2071V18C3 18.2761 3.22386 18.5 3.5 18.5H8.5C8.77614 18.5 9 18.2761 9 18V16.2071C9 16.0745 9.05268 15.9473 9.14645 15.8536L9.35356 15.6464C9.44732 15.5527 9.5745 15.5 9.70711 15.5H11.5C11.7761 15.5 12 15.2761 12 15V10C12 9.72386 11.7761 9.5 11.5 9.5L9.70711 9.5C9.5745 9.5 9.44732 9.44732 9.35356 9.35355L9.14645 9.14644C9.05268 9.05267 9 8.9255 9 8.79289V7C9 6.72386 8.77614 6.5 8.5 6.5H3.5ZM3.70711 15.5C3.5745 15.5 3.44733 15.4473 3.35356 15.3536L3.14645 15.1464C3.05268 15.0527 3 14.9255 3 14.7929V10.2071C3 10.0745 3.05268 9.94732 3.14645 9.85356L3.35356 9.64645C3.44732 9.55268 3.5745 9.5 3.70711 9.5H8.2929C8.4255 9.5 8.55268 9.55268 8.64645 9.64645L8.85356 9.85355C8.94732 9.94732 9 10.0745 9 10.2071V14.7929C9 14.9255 8.94732 15.0527 8.85356 15.1464L8.64645 15.3536C8.55268 15.4473 8.4255 15.5 8.2929 15.5H3.70711Z" fill="#D2D2D2"/>
</g>
<defs>
<clipPath id="clip0">
<rect width="20" height="20" fill="white" transform="matrix(-1 0 0 1 20 0)"/>
</clipPath>
</defs>
</svg>
