<svg width="20" height="20" viewBox="0 0 20 20" fill="none" xmlns="http://www.w3.org/2000/svg">
<path fill-rule="evenodd" clip-rule="evenodd" d="M8.5 3C8.77614 3 9 2.77614 9 2.5V0.5C9 0.223858 8.77614 0 8.5 0H6.5C6.22386 0 6 0.223858 6 0.5V2.29289C6 2.4255 5.94732 2.55268 5.85355 2.64645L5.64645 2.85355C5.55268 2.94732 5.4255 3 5.29289 3H3.5C3.22386 3 3 3.22386 3 3.5L3 5.29289C3 5.4255 2.94732 5.55268 2.85355 5.64645L2.64645 5.85355C2.55268 5.94732 2.4255 6 2.29289 6H0.5C0.223858 6 0 6.22386 0 6.5V8.5C0 8.77614 0.223858 9 0.5 9H2.5C2.77614 9 3 9.22386 3 9.5L3 10.5C3 10.7761 2.77614 11 2.5 11H0.5C0.223858 11 0 11.2239 0 11.5V13.5C0 13.7761 0.223858 14 0.5 14H2.29289C2.4255 14 2.55268 14.0527 2.64645 14.1464L2.85355 14.3536C2.94732 14.4473 3 14.5745 3 14.7071L3 16.5C3 16.7761 3.22386 17 3.5 17H5.29289C5.4255 17 5.55268 17.0527 5.64645 17.1464L5.85355 17.3536C5.94732 17.4473 6 17.5745 6 17.7071V19.5C6 19.7761 6.22386 20 6.5 20H8.5C8.77614 20 9 19.7761 9 19.5V17.5C9 17.2239 8.77614 17 8.5 17H6.70711C6.5745 17 6.44732 16.9473 6.35355 16.8536L6.14645 16.6464C6.05268 16.5527 6 16.4255 6 16.2929V14.7071C6 14.5745 6.05268 14.4473 6.14645 14.3536L6.35355 14.1464C6.44732 14.0527 6.5745 14 6.70711 14H8.5C8.77614 14 9 13.7761 9 13.5V11.5C9 11.2239 8.77614 11 8.5 11H6.5C6.22386 11 6 10.7761 6 10.5V9.5C6 9.22386 6.22386 9 6.5 9H8.5C8.77614 9 9 8.77614 9 8.5V6.5C9 6.22386 8.77614 6 8.5 6H6.70711C6.5745 6 6.44732 5.94732 6.35355 5.85355L6.14645 5.64645C6.05268 5.55268 6 5.4255 6 5.29289V3.70711C6 3.5745 6.05268 3.44732 6.14645 3.35355L6.35355 3.14645C6.44732 3.05268 6.5745 3 6.70711 3H8.5ZM5.29289 14C5.4255 14 5.55268 13.9473 5.64645 13.8536L5.85355 13.6464C5.94732 13.5527 6 13.4255 6 13.2929V12C6 11.7239 5.77614 11.5 5.5 11.5H3.5C3.22386 11.5 3 11.7239 3 12L3 13.2929C3 13.4255 3.05268 13.5527 3.14645 13.6464L3.35355 13.8536C3.44732 13.9473 3.5745 14 3.70711 14H5.29289ZM6 6.70711C6 6.5745 5.94732 6.44732 5.85355 6.35355L5.64645 6.14645C5.55268 6.05268 5.4255 6 5.29289 6H3.70711C3.5745 6 3.44732 6.05268 3.35355 6.14645L3.14645 6.35355C3.05268 6.44732 3 6.5745 3 6.70711L3 8C3 8.27614 3.22386 8.5 3.5 8.5H5.5C5.77614 8.5 6 8.27614 6 8V6.70711Z" fill="#D2D2D2"/>
<path fill-rule="evenodd" clip-rule="evenodd" d="M11.5 3C11.2239 3 11 2.77614 11 2.5V0.5C11 0.223858 11.2239 0 11.5 0H13.5C13.7761 0 14 0.223858 14 0.5V2.29289C14 2.4255 14.0527 2.55268 14.1464 2.64645L14.3536 2.85355C14.4473 2.94732 14.5745 3 14.7071 3H16.5C16.7761 3 17 3.22386 17 3.5V5.29289C17 5.4255 17.0527 5.55268 17.1464 5.64645L17.3536 5.85355C17.4473 5.94732 17.5745 6 17.7071 6H19.5C19.7761 6 20 6.22386 20 6.5V8.5C20 8.77614 19.7761 9 19.5 9H17.5C17.2239 9 17 9.22386 17 9.5V10.5C17 10.7761 17.2239 11 17.5 11H19.5C19.7761 11 20 11.2239 20 11.5V13.5C20 13.7761 19.7761 14 19.5 14H17.7071C17.5745 14 17.4473 14.0527 17.3536 14.1464L17.1464 14.3536C17.0527 14.4473 17 14.5745 17 14.7071V16.5C17 16.7761 16.7761 17 16.5 17H14.7071C14.5745 17 14.4473 17.0527 14.3536 17.1464L14.1464 17.3536C14.0527 17.4473 14 17.5745 14 17.7071V19.5C14 19.7761 13.7761 20 13.5 20H11.5C11.2239 20 11 19.7761 11 19.5V17.5C11 17.2239 11.2239 17 11.5 17H13.2929C13.4255 17 13.5527 16.9473 13.6464 16.8536L13.8536 16.6464C13.9473 16.5527 14 16.4255 14 16.2929V14.7071C14 14.5745 13.9473 14.4473 13.8536 14.3536L13.6464 14.1464C13.5527 14.0527 13.4255 14 13.2929 14H11.5C11.2239 14 11 13.7761 11 13.5V11.5C11 11.2239 11.2239 11 11.5 11H13.5C13.7761 11 14 10.7761 14 10.5V9.5C14 9.22386 13.7761 9 13.5 9H11.5C11.2239 9 11 8.77614 11 8.5V6.5C11 6.22386 11.2239 6 11.5 6H13.2929C13.4255 6 13.5527 5.94732 13.6464 5.85355L13.8536 5.64645C13.9473 5.55268 14 5.4255 14 5.29289V3.70711C14 3.5745 13.9473 3.44732 13.8536 3.35355L13.6464 3.14645C13.5527 3.05268 13.4255 3 13.2929 3H11.5ZM14.7071 14C14.5745 14 14.4473 13.9473 14.3536 13.8536L14.1464 13.6464C14.0527 13.5527 14 13.4255 14 13.2929V12C14 11.7239 14.2239 11.5 14.5 11.5H16.5C16.7761 11.5 17 11.7239 17 12V13.2929C17 13.4255 16.9473 13.5527 16.8536 13.6464L16.6464 13.8536C16.5527 13.9473 16.4255 14 16.2929 14H14.7071ZM14 6.70711C14 6.5745 14.0527 6.44732 14.1464 6.35355L14.3536 6.14645C14.4473 6.05268 14.5745 6 14.7071 6H16.2929C16.4255 6 16.5527 6.05268 16.6464 6.14645L16.8536 6.35355C16.9473 6.44732 17 6.5745 17 6.70711V8C17 8.27614 16.7761 8.5 16.5 8.5H14.5C14.2239 8.5 14 8.27614 14 8V6.70711Z" fill="#D2D2D2"/>
</svg>
