<svg width="20" height="20" viewBox="0 0 20 20" fill="none" xmlns="http://www.w3.org/2000/svg">
<path d="M11.5 0C11.2239 0 11 0.223858 11 0.5V2.5C11 2.77614 11.2239 3 11.5 3H13.2929C13.4255 3 13.5527 3.05268 13.6464 3.14645L13.8536 3.35355C13.9473 3.44732 14 3.5745 14 3.70711V5.5C14 5.77614 13.7761 6 13.5 6H11.5C11.2239 6 11 6.22386 11 6.5V8.5C11 8.77614 11.2239 9 11.5 9H13.5C13.7761 9 14 9.22386 14 9.5V10.5C14 10.7761 13.7761 11 13.5 11H11.5C11.2239 11 11 11.2239 11 11.5V13.5C11 13.7761 11.2239 14 11.5 14H13.5C13.7761 14 14 14.2239 14 14.5V16.2929C14 16.4255 13.9473 16.5527 13.8536 16.6464L13.6464 16.8536C13.5527 16.9473 13.4255 17 13.2929 17H11.5C11.2239 17 11 17.2239 11 17.5V19.5C11 19.7761 11.2239 20 11.5 20H13.5C13.7761 20 14 19.7761 14 19.5L14 17.7071C14 17.5745 14.0527 17.4473 14.1464 17.3536L14.3536 17.1464C14.4473 17.0527 14.5745 17 14.7071 17H16.5C16.7761 17 17 16.7761 17 16.5V14.5C17 14.2239 17.2239 14 17.5 14H19.5C19.7761 14 20 13.7761 20 13.5V6.5C20 6.22386 19.7761 6 19.5 6H17.5C17.2239 6 17 5.77614 17 5.5V3.5C17 3.22386 16.7761 3 16.5 3H14.7071C14.5745 3 14.4473 2.94732 14.3536 2.85355L14.1464 2.64645C14.0527 2.55268 14 2.4255 14 2.29289V0.5C14 0.223858 13.7761 0 13.5 0H11.5Z" fill="#D2D2D2"/>
<path fill-rule="evenodd" clip-rule="evenodd" d="M8.5 3H6.70711C6.5745 3 6.44732 3.05268 6.35355 3.14645L6.14645 3.35355C6.05268 3.44732 6 3.5745 6 3.70711V5.29289C6 5.4255 6.05268 5.55268 6.14645 5.64645L6.35355 5.85355C6.44732 5.94732 6.5745 6 6.70711 6H8.5C8.77614 6 9 6.22386 9 6.5V8.5C9 8.77614 8.77614 9 8.5 9H6.5C6.22386 9 6 8.77614 6 8.5V6.70711C6 6.5745 5.94732 6.44732 5.85355 6.35355L5.64645 6.14645C5.55268 6.05268 5.4255 6 5.29289 6H3.70711C3.5745 6 3.44732 6.05268 3.35355 6.14645L3.14645 6.35355C3.05268 6.44732 3 6.5745 3 6.70711V8.5C3 8.77614 2.77614 9 2.5 9H0.5C0.223858 9 0 8.77614 0 8.5V6.5C0 6.22386 0.223858 6 0.5 6H2.29289C2.4255 6 2.55268 5.94732 2.64645 5.85355L2.85355 5.64645C2.94732 5.55268 3 5.4255 3 5.29289V3.5C3 3.22386 3.22386 3 3.5 3L5.29289 3C5.4255 3 5.55268 2.94732 5.64645 2.85355L5.85355 2.64645C5.94732 2.55268 6 2.4255 6 2.29289V0.5C6 0.223858 6.22386 0 6.5 0H8.5C8.77614 0 9 0.223858 9 0.5V2.5C9 2.77614 8.77614 3 8.5 3ZM6.6 1.1C6.6 0.823858 6.82386 0.6 7.1 0.6L7.9 0.6C8.17614 0.6 8.4 0.823858 8.4 1.1V1.9C8.4 2.17614 8.17614 2.4 7.9 2.4H7.01553C6.91099 2.4 6.82393 2.32392 6.75 2.25C6.67608 2.17608 6.6 2.08901 6.6 1.98447V1.1ZM5.25 5.25C5.17607 5.32392 5.08901 5.4 4.98447 5.4H4.01553C3.91099 5.4 3.82393 5.32392 3.75 5.25C3.67607 5.17608 3.6 5.08901 3.6 4.98447V4.1C3.6 3.82386 3.82386 3.6 4.1 3.6H4.98447C5.08901 3.6 5.17607 3.67608 5.25 3.75C5.32392 3.82392 5.4 3.91099 5.4 4.01553V4.98447C5.4 5.08901 5.32392 5.17607 5.25 5.25ZM8.4 7.1C8.4 6.82386 8.17614 6.6 7.9 6.6H7.01553C6.91099 6.6 6.82393 6.67608 6.75 6.75C6.67608 6.82393 6.6 6.91099 6.6 7.01553V7.9C6.6 8.17614 6.82386 8.4 7.1 8.4H7.9C8.17614 8.4 8.4 8.17614 8.4 7.9V7.1ZM2.4 7.01553C2.4 6.91099 2.32393 6.82392 2.25 6.75C2.17607 6.67608 2.08901 6.6 1.98447 6.6H1.1C0.823858 6.6 0.6 6.82386 0.6 7.1V7.9C0.6 8.17614 0.823858 8.4 1.1 8.4H1.9C2.17614 8.4 2.4 8.17614 2.4 7.9V7.01553Z" fill="#D2D2D2"/>
<path fill-rule="evenodd" clip-rule="evenodd" d="M5.5 8.5C5.77614 8.5 6 8.72386 6 9V11C6 11.2761 5.77614 11.5 5.5 11.5H3.5C3.22386 11.5 3 11.2761 3 11V9C3 8.72386 3.22386 8.5 3.5 8.5H5.5ZM3.6 9.6C3.6 9.32386 3.82386 9.1 4.1 9.1L4.9 9.1C5.17614 9.1 5.4 9.32386 5.4 9.6V10.4C5.4 10.6761 5.17614 10.9 4.9 10.9H4.1C3.82386 10.9 3.6 10.6761 3.6 10.4V9.6Z" fill="#D2D2D2"/>
<path fill-rule="evenodd" clip-rule="evenodd" d="M5.64645 13.8536C5.55268 13.9473 5.4255 14 5.29289 14H3.70711C3.5745 14 3.44732 13.9473 3.35355 13.8536L3.14645 13.6464C3.05268 13.5527 3 13.4255 3 13.2929V11.5C3 11.2239 2.77614 11 2.5 11H0.5C0.223858 11 0 11.2239 0 11.5V13.5C0 13.7761 0.223858 14 0.5 14H2.29289C2.4255 14 2.55268 14.0527 2.64645 14.1464L2.85355 14.3536C2.94732 14.4473 3 14.5745 3 14.7071V16.5C3 16.7761 3.22386 17 3.5 17H5.29289C5.4255 17 5.55268 17.0527 5.64645 17.1464L5.85355 17.3536C5.94732 17.4473 6 17.5745 6 17.7071V19.5C6 19.7761 6.22386 20 6.5 20H8.5C8.77614 20 9 19.7761 9 19.5V17.5C9 17.2239 8.77614 17 8.5 17H6.70711C6.5745 17 6.44732 16.9473 6.35355 16.8536L6.14645 16.6464C6.05268 16.5527 6 16.4255 6 16.2929V14.7071C6 14.5745 6.05268 14.4473 6.14645 14.3536L6.35355 14.1464C6.44732 14.0527 6.5745 14 6.70711 14H8.5C8.77614 14 9 13.7761 9 13.5V11.5C9 11.2239 8.77614 11 8.5 11H6.5C6.22386 11 6 11.2239 6 11.5V13.2929C6 13.4255 5.94732 13.5527 5.85355 13.6464L5.64645 13.8536ZM5.25 14.75C5.17608 14.6761 5.08901 14.6 4.98447 14.6L4.01553 14.6C3.91099 14.6 3.82393 14.6761 3.75 14.75C3.67607 14.8239 3.6 14.911 3.6 15.0155V15.9C3.6 16.1761 3.82386 16.4 4.1 16.4H4.98447C5.08901 16.4 5.17608 16.3239 5.25 16.25C5.32392 16.1761 5.4 16.089 5.4 15.9845V15.0155C5.4 14.911 5.32392 14.8239 5.25 14.75ZM6.75 13.25C6.67608 13.1761 6.6 13.089 6.6 12.9845V12.1C6.6 11.8239 6.82386 11.6 7.1 11.6L7.9 11.6C8.17614 11.6 8.4 11.8239 8.4 12.1V12.9C8.4 13.1761 8.17614 13.4 7.9 13.4H7.01553C6.91099 13.4 6.82392 13.3239 6.75 13.25ZM6.75 17.75C6.82392 17.6761 6.91099 17.6 7.01553 17.6H7.9C8.17614 17.6 8.4 17.8239 8.4 18.1V18.9C8.4 19.1761 8.17614 19.4 7.9 19.4H7.1C6.82386 19.4 6.6 19.1761 6.6 18.9V18.0155C6.6 17.911 6.67608 17.8239 6.75 17.75ZM2.25 13.25C2.17607 13.3239 2.08901 13.4 1.98447 13.4H1.1C0.823858 13.4 0.6 13.1761 0.6 12.9V12.1C0.6 11.8239 0.823858 11.6 1.1 11.6L1.9 11.6C2.17614 11.6 2.4 11.8239 2.4 12.1V12.9845C2.4 13.089 2.32393 13.1761 2.25 13.25Z" fill="#D2D2D2"/>
</svg>
