<svg width="20" height="20" viewBox="0 0 20 20" fill="none" xmlns="http://www.w3.org/2000/svg">
<path d="M2.30949 8.44007H0.020765V10.7015H2.30949V8.44007Z" fill="#D2D2D2"/>
<path d="M5.68025 3.98162C5.68007 3.88946 5.69828 3.79818 5.73384 3.71298C5.76941 3.62779 5.82163 3.55036 5.88752 3.48514C5.9534 3.41991 6.03167 3.36816 6.11782 3.33286C6.20397 3.29755 6.29632 3.27937 6.38959 3.27937H6.67914C6.86256 3.27961 7.03876 3.35002 7.17075 3.47585C7.30278 3.60168 7.38029 3.77313 7.38712 3.95424V5.54078H9.67723V3.27937H8.10057C7.91246 3.27937 7.73203 3.20553 7.59901 3.07409C7.46598 2.94265 7.39125 2.76439 7.39125 2.57851V2.44161C7.39217 2.21743 7.30292 2.00207 7.14313 1.8429C6.98334 1.68374 6.76611 1.59381 6.53921 1.5929C6.31232 1.59199 6.09436 1.68018 5.93327 1.83806C5.77218 1.99594 5.68117 2.21058 5.68025 2.43477V2.57166C5.67988 2.75767 5.60484 2.93593 5.4716 3.06734C5.33835 3.19874 5.15778 3.27253 4.96952 3.27253H3.39291V5.54078H5.68025V3.98162Z" fill="#D2D2D2"/>
<path d="M2.28873 12.5604H0V14.8218H2.28873V12.5604Z" fill="#D2D2D2"/>
<path d="M5.68164 16.1456H3.39291V18.407H5.68164V16.1456Z" fill="#D2D2D2"/>
<path d="M14.7908 16.1456H12.5021V18.407H14.7908V16.1456Z" fill="#D2D2D2"/>
<path d="M16.3189 16.2674L19.9986 14.0046V11.7432L16.3189 14.0046V16.2674Z" fill="#D2D2D2"/>
<path d="M19.9986 8.44007H17.7099V10.7015H19.9986V8.44007Z" fill="#D2D2D2"/>
<path d="M10.3727 12.5604C10.2793 12.5604 10.1868 12.5422 10.1006 12.5068C10.0143 12.4715 9.93601 12.4196 9.87011 12.3542C9.8042 12.2888 9.75203 12.2112 9.71651 12.1259C9.68107 12.0406 9.66299 11.9491 9.66335 11.8568V10.299H7.37459V11.8568C7.37424 12.0428 7.29922 12.2211 7.16598 12.3525C7.03271 12.4839 6.85214 12.5577 6.66389 12.5577H5.08451V14.8218H7.37459V13.2627C7.37459 13.0767 7.44932 12.8983 7.58228 12.7666C7.7153 12.635 7.89566 12.5608 8.08391 12.5604H8.9526C9.14114 12.5604 9.32185 12.6344 9.45516 12.7661C9.58847 12.8978 9.66335 13.0764 9.66335 13.2627V14.8218H11.952V12.5604H10.3727Z" fill="#D2D2D2"/>
<path d="M12.793 3.98159C12.793 3.79534 12.8679 3.61673 13.0012 3.48503C13.1344 3.35334 13.3152 3.27935 13.5038 3.27935H13.7933C13.9766 3.27959 14.1526 3.35006 14.2844 3.47592C14.4162 3.60179 14.4934 3.77323 14.4999 3.95421V5.54076H16.79V3.27935H15.2134C15.0251 3.27935 14.8446 3.20556 14.7113 3.07415C14.5781 2.94275 14.503 2.76449 14.5026 2.57848V2.44159C14.5026 2.33068 14.4805 2.22085 14.4376 2.11838C14.3946 2.0159 14.3317 1.92279 14.2522 1.84437C14.1729 1.76594 14.0786 1.70372 13.9749 1.66128C13.8712 1.61883 13.7601 1.59699 13.6478 1.59699C13.5356 1.59699 13.4244 1.61883 13.3207 1.66128C13.217 1.70372 13.1228 1.76594 13.0434 1.84437C12.964 1.92279 12.9011 2.0159 12.8581 2.11838C12.8152 2.22085 12.793 2.33068 12.793 2.44159V2.57848C12.793 2.76436 12.7183 2.94263 12.5853 3.07407C12.4522 3.20551 12.2718 3.27935 12.0837 3.27935H10.5043V5.54076H12.793V3.98159Z" fill="#D2D2D2"/>
<path d="M4.62871 10.7768C5.29975 10.7768 5.84373 10.2392 5.84373 9.57627C5.84373 8.91322 5.29975 8.37573 4.62871 8.37573C3.95768 8.37573 3.41369 8.91322 3.41369 9.57627C3.41369 10.2392 3.95768 10.7768 4.62871 10.7768Z" fill="#D2D2D2"/>
<path d="M13.6465 10.7768C14.3175 10.7768 14.8615 10.2392 14.8615 9.57627C14.8615 8.91322 14.3175 8.37573 13.6465 8.37573C12.9754 8.37573 12.4315 8.91322 12.4315 9.57627C12.4315 10.2392 12.9754 10.7768 13.6465 10.7768Z" fill="#D2D2D2"/>
</svg>
