<svg width="20" height="20" viewBox="0 0 20 20" fill="none" xmlns="http://www.w3.org/2000/svg">
<path fill-rule="evenodd" clip-rule="evenodd" d="M10.5 1C10.7761 1 11 1.22386 11 1.5V5.29289C11 5.4255 11.0527 5.55268 11.1464 5.64645L11.3536 5.85355C11.4473 5.94732 11.5745 6 11.7071 6H15.5C15.7761 6 16 6.22386 16 6.5V8.5C16 8.77614 15.7761 9 15.5 9H11.7071C11.5745 9 11.4473 9.05268 11.3536 9.14645L11.1464 9.35355C11.0527 9.44732 11 9.5745 11 9.70711V13.5C11 13.7761 10.7761 14 10.5 14H8.5C8.22386 14 8 13.7761 8 13.5V9.70711C8 9.5745 7.94732 9.44732 7.85355 9.35355L7.64645 9.14645C7.55268 9.05268 7.4255 9 7.29289 9H3.5C3.22386 9 3 8.77614 3 8.5V6.5C3 6.22386 3.22386 6 3.5 6H7.29289C7.4255 6 7.55268 5.94732 7.64645 5.85355L7.85355 5.64645C7.94732 5.55268 8 5.4255 8 5.29289V1.5C8 1.22386 8.22386 1 8.5 1H10.5ZM10.6464 8.85355C10.5527 8.94732 10.4255 9 10.2929 9L8.70711 9C8.5745 9 8.44732 8.94732 8.35355 8.85355L8.14645 8.64645C8.05268 8.55268 8 8.4255 8 8.29289V6.70711C8 6.5745 8.05268 6.44732 8.14645 6.35355L8.35355 6.14645C8.44732 6.05268 8.5745 6 8.70711 6H10.2929C10.4255 6 10.5527 6.05268 10.6464 6.14645L10.8536 6.35355C10.9473 6.44732 11 6.5745 11 6.70711V8.29289C11 8.4255 10.9473 8.55268 10.8536 8.64645L10.6464 8.85355Z" fill="#D2D2D2"/>
<path d="M16 18.5C16 18.7761 15.7761 19 15.5 19H3.5C3.22386 19 3 18.7761 3 18.5V16.5C3 16.2239 3.22386 16 3.5 16H15.5C15.7761 16 16 16.2239 16 16.5V18.5Z" fill="#D2D2D2"/>
</svg>
