<svg width="20" height="20" viewBox="0 0 20 20" fill="none" xmlns="http://www.w3.org/2000/svg">
<path fill-rule="evenodd" clip-rule="evenodd" d="M12 1.5C12 1.22386 11.7761 1 11.5 1H8.5C8.22386 1 8 1.22386 8 1.5V2.5C8 2.77614 7.77614 3 7.5 3H6.5C6.22386 3 6 3.22386 6 3.5V6.5C6 6.77614 6.22386 7 6.5 7H7.5C7.77614 7 8 7.22386 8 7.5V8.5C8 8.77614 8.22386 9 8.5 9H11.5C11.7761 9 12 8.77614 12 8.5V7.5C12 7.22386 12.2239 7 12.5 7H13.5C13.7761 7 14 6.77614 14 6.5V3.5C14 3.22386 13.7761 3 13.5 3H12.5C12.2239 3 12 2.77614 12 2.5V1.5ZM8 5.5C8 5.77614 8.22386 6 8.5 6H11.5C11.7761 6 12 5.77614 12 5.5V4.5C12 4.22386 11.7761 4 11.5 4H8.5C8.22386 4 8 4.22386 8 4.5V5.5Z" fill="#D2D2D2"/>
<path fill-rule="evenodd" clip-rule="evenodd" d="M8 9.5C8 9.22386 7.77614 9 7.5 9H6.5C6.22386 9 6 9.22386 6 9.5V11H2.5C2.22386 11 2 11.2239 2 11.5V12.5C2 12.7761 1.77614 13 1.5 13H0.5C0.223858 13 0 13.2239 0 13.5V16.5C0 16.7761 0.223858 17 0.5 17H1.5C1.77614 17 2 17.2239 2 17.5V18.5C2 18.7761 2.22386 19 2.5 19H5.5C5.77614 19 6 18.7761 6 18.5V17.5C6 17.2239 6.22386 17 6.5 17H7.5C7.77614 17 8 16.7761 8 16.5V13.5C8 13.2239 7.77614 13 7.5 13H6.5C6.22386 13 6 12.7761 6 12.5V11H7.5C7.77614 11 8 10.7761 8 10.5V9.5ZM2 15.5C2 15.7761 2.22386 16 2.5 16H5.5C5.77614 16 6 15.7761 6 15.5V14.5C6 14.2239 5.77614 14 5.5 14H2.5C2.22386 14 2 14.2239 2 14.5V15.5Z" fill="#D2D2D2"/>
<path fill-rule="evenodd" clip-rule="evenodd" d="M14 9.5C14 9.22386 13.7761 9 13.5 9H12.5C12.2239 9 12 9.22386 12 9.5V10.5C12 10.7761 12.2239 11 12.5 11H14V12.5C14 12.7761 13.7761 13 13.5 13H12.5C12.2239 13 12 13.2239 12 13.5V16.5C12 16.7761 12.2239 17 12.5 17H13.5C13.7761 17 14 17.2239 14 17.5V18.5C14 18.7761 14.2239 19 14.5 19H17.5C17.7761 19 18 18.7761 18 18.5V17.5C18 17.2239 18.2239 17 18.5 17H19.5C19.7761 17 20 16.7761 20 16.5V13.5C20 13.2239 19.7761 13 19.5 13H18.5C18.2239 13 18 12.7761 18 12.5V11.5C18 11.2239 17.7761 11 17.5 11H14V9.5ZM18 15.5C18 15.7761 17.7761 16 17.5 16H14.5C14.2239 16 14 15.7761 14 15.5V14.5C14 14.2239 14.2239 14 14.5 14H17.5C17.7761 14 18 14.2239 18 14.5V15.5Z" fill="#D2D2D2"/>
</svg>
