<svg width="20" height="20" viewBox="0 0 20 20" fill="none" xmlns="http://www.w3.org/2000/svg">
<path d="M3 1.5C3 1.22386 2.77614 1 2.5 1H0.5C0.223858 1 0 1.22386 0 1.5V15.5C0 15.7761 0.223858 16 0.5 16H2.29289C2.4255 16 2.55268 16.0527 2.64645 16.1464L2.85355 16.3536C2.94732 16.4473 3 16.5745 3 16.7071V18.5C3 18.7761 3.22386 19 3.5 19H18.5C18.7761 19 19 18.7761 19 18.5V16.5C19 16.2239 18.7761 16 18.5 16H3.70711C3.5745 16 3.44732 15.9473 3.35355 15.8536L3.14645 15.6464C3.05268 15.5527 3 15.4255 3 15.2929V1.5Z" fill="#D2D2D2"/>
<path d="M11 1.5C11 1.22386 11.2239 1 11.5 1H13.5C13.7761 1 14 1.22386 14 1.5V12.5C14 12.7761 13.7761 13 13.5 13H11.5C11.2239 13 11 12.7761 11 12.5V1.5Z" fill="#D2D2D2"/>
<path d="M6 3.5C6 3.22386 6.22386 3 6.5 3H8.5C8.77614 3 9 3.22386 9 3.5V12.5C9 12.7761 8.77614 13 8.5 13H6.5C6.22386 13 6 12.7761 6 12.5V3.5Z" fill="#D2D2D2"/>
<path d="M16 7.5C16 7.22386 16.2239 7 16.5 7H18.5C18.7761 7 19 7.22386 19 7.5V12.5C19 12.7761 18.7761 13 18.5 13H16.5C16.2239 13 16 12.7761 16 12.5V7.5Z" fill="#D2D2D2"/>
</svg>
