<svg width="20" height="20" viewBox="0 0 20 20" fill="none" xmlns="http://www.w3.org/2000/svg">
<path fill-rule="evenodd" clip-rule="evenodd" d="M19 2.5C19 2.22386 18.7761 2 18.5 2H16.5C16.2239 2 16 2.22386 16 2.5V4.2929C16 4.42551 15.9473 4.55269 15.8536 4.64645L15.6465 4.85355C15.5527 4.94732 15.4255 5 15.2929 5H1.5C1.22386 5 1 5.22386 1 5.5V12.5C1 12.7761 1.22386 13 1.5 13H3.29289C3.42549 13 3.55267 13.0527 3.64644 13.1464L3.85355 13.3536C3.94732 13.4473 4 13.5745 4 13.7071V15.5C4 15.7761 4.22386 16 4.5 16H12.5C12.7761 16 13 15.7761 13 15.5V13.7071C13 13.5745 13.0527 13.4473 13.1464 13.3536L13.3536 13.1464C13.4473 13.0527 13.5745 13 13.7071 13H15.5C15.7761 13 16 12.7761 16 12.5V5.70711C16 5.57451 16.0527 5.44733 16.1464 5.35356L16.3536 5.14645C16.4473 5.05268 16.5745 5 16.7071 5H18.5C18.7761 5 19 4.77614 19 4.5V2.5ZM4 12.2929C4 12.4255 4.05268 12.5527 4.14645 12.6465L4.35355 12.8536C4.44731 12.9473 4.57449 13 4.7071 13H12.2929C12.4255 13 12.5527 12.9473 12.6465 12.8536L12.8536 12.6465C12.9473 12.5527 13 12.4255 13 12.2929V8.5C13 8.22386 12.7761 8 12.5 8H4.5C4.22386 8 4 8.22386 4 8.5V12.2929Z" fill="#D2D2D2"/>
<path d="M4 17.5C4 16.6716 3.32843 16 2.5 16C1.67157 16 1 16.6716 1 17.5C1 18.3284 1.67157 19 2.5 19C3.32843 19 4 18.3284 4 17.5Z" fill="#D2D2D2"/>
<path d="M16 17.5C16 16.6716 15.3284 16 14.5 16C13.6716 16 13 16.6716 13 17.5C13 18.3284 13.6716 19 14.5 19C15.3284 19 16 18.3284 16 17.5Z" fill="#D2D2D2"/>
</svg>
