<svg width="20" height="20" viewBox="0 0 20 20" fill="none" xmlns="http://www.w3.org/2000/svg">
<g clip-path="url(#clip0)">
<path fill-rule="evenodd" clip-rule="evenodd" d="M12.5 1C12.7761 1 13 1.22386 13 1.5V3.29289C13 3.4255 13.0527 3.55268 13.1464 3.64645L13.3536 3.85355C13.4473 3.94732 13.5745 4 13.7071 4L15.5 4C15.7761 4 16 4.22386 16 4.5V6.5C16 6.77614 15.7761 7 15.5 7H13.7071C13.5745 7 13.4473 7.05268 13.3536 7.14645L13.1464 7.35355C13.0527 7.44732 13 7.5745 13 7.70711V9.29289C13 9.4255 13.0527 9.55268 13.1464 9.64645L13.3536 9.85355C13.4473 9.94732 13.5745 10 13.7071 10H15.5C15.7761 10 16 10.2239 16 10.5V12.2929C16 12.4255 16.0527 12.5527 16.1464 12.6464L16.3536 12.8536C16.4473 12.9473 16.5745 13 16.7071 13H19.5C19.7761 13 20 13.2239 20 13.5V16.5C20 16.7761 19.7761 17 19.5 17H16.5C16.2239 17 16 16.7761 16 16.5V13.7071C16 13.5745 15.9473 13.4473 15.8536 13.3536L15.6464 13.1464C15.5527 13.0527 15.4255 13 15.2929 13H13.5C13.2239 13 13 12.7761 13 12.5V10.7071C13 10.5745 12.9473 10.4473 12.8536 10.3536L12.6464 10.1464C12.5527 10.0527 12.4255 10 12.2929 10H7.70711C7.5745 10 7.44732 10.0527 7.35355 10.1464L7.14645 10.3536C7.05268 10.4473 7 10.5745 7 10.7071V12.5C7 12.7761 6.77614 13 6.5 13H4.70711C4.5745 13 4.44732 13.0527 4.35355 13.1464L4.14645 13.3536C4.05268 13.4473 4 13.5745 4 13.7071L4 16.5C4 16.7761 3.77614 17 3.5 17H0.5C0.223858 17 0 16.7761 0 16.5V13.5C0 13.2239 0.223858 13 0.5 13H3.29289C3.4255 13 3.55268 12.9473 3.64645 12.8536L3.85355 12.6464C3.94732 12.5527 4 12.4255 4 12.2929V10.5C4 10.2239 4.22386 10 4.5 10H6.29289C6.4255 10 6.55268 9.94732 6.64645 9.85355L6.85355 9.64645C6.94732 9.55268 7 9.4255 7 9.29289V7.70711C7 7.5745 6.94732 7.44732 6.85355 7.35355L6.64645 7.14645C6.55268 7.05268 6.4255 7 6.29289 7H4.5C4.22386 7 4 6.77614 4 6.5V4.5C4 4.22386 4.22386 4 4.5 4L6.29289 4C6.4255 4 6.55268 3.94732 6.64645 3.85355L6.85355 3.64645C6.94732 3.55268 7 3.4255 7 3.29289L7 1.5C7 1.22386 7.22386 1 7.5 1H12.5ZM13 6.29289C13 6.4255 12.9473 6.55268 12.8536 6.64645L12.6464 6.85355C12.5527 6.94732 12.4255 7 12.2929 7L7.70711 7C7.5745 7 7.44732 6.94732 7.35355 6.85355L7.14645 6.64645C7.05268 6.55268 7 6.4255 7 6.29289L7 4.70711C7 4.5745 7.05268 4.44732 7.14645 4.35355L7.35355 4.14645C7.44732 4.05268 7.5745 4 7.70711 4H12.2929C12.4255 4 12.5527 4.05268 12.6464 4.14645L12.8536 4.35355C12.9473 4.44732 13 4.5745 13 4.70711L13 6.29289Z" fill="#D2D2D2"/>
<path d="M11.5 17C11.7761 17 12 16.7761 12 16.5V13.5C12 13.2239 11.7761 13 11.5 13H10.8827C10.6066 13 10.3827 12.7761 10.3827 12.5L10.3828 10.8887C10.3828 10.674 10.2088 10.4999 9.99413 10.4999C9.77942 10.4999 9.60534 10.6739 9.60533 10.8886L9.60527 12.5C9.60526 12.7762 9.38141 13 9.10527 13H8.5C8.22386 13 8 13.2239 8 13.5V16.5C8 16.7761 8.22386 17 8.5 17H11.5Z" fill="#D2D2D2"/>
</g>
<defs>
<clipPath id="clip0">
<rect width="20" height="20" fill="white"/>
</clipPath>
</defs>
</svg>
