<svg width="20" height="20" viewBox="0 0 20 20" fill="none" xmlns="http://www.w3.org/2000/svg">
<path fill-rule="evenodd" clip-rule="evenodd" d="M12 0.5C12 0.223858 11.7761 0 11.5 0H8.5C8.22386 0 8 0.223858 8 0.5V2.29289C8 2.4255 7.94732 2.55268 7.85355 2.64645L7.64645 2.85355C7.55268 2.94732 7.4255 3 7.29289 3L4.5 3C4.22386 3 4 3.22386 4 3.5V5.29289C4 5.4255 3.94732 5.55268 3.85355 5.64645L3.64645 5.85355C3.55268 5.94732 3.4255 6 3.29289 6H1.5C1.22386 6 1 6.22386 1 6.5V8.5C1 8.77614 1.22386 9 1.5 9H3.29289C3.4255 9 3.55268 9.05268 3.64645 9.14645L3.85355 9.35355C3.94732 9.44732 4 9.5745 4 9.70711V11.5C4 11.7761 4.22386 12 4.5 12H15.5C15.7761 12 16 11.7761 16 11.5V9.70711C16 9.5745 16.0527 9.44732 16.1464 9.35355L16.3536 9.14645C16.4473 9.05268 16.5745 9 16.7071 9H18.5C18.7761 9 19 8.77614 19 8.5V6.5C19 6.22386 18.7761 6 18.5 6H16.7071C16.5745 6 16.4473 5.94732 16.3536 5.85355L16.1464 5.64645C16.0527 5.55268 16 5.4255 16 5.29289V3.5C16 3.22386 15.7761 3 15.5 3H12.7071C12.5745 3 12.4473 2.94732 12.3536 2.85355L12.1464 2.64645C12.0527 2.55268 12 2.4255 12 2.29289V0.5ZM11.6464 3.14645C11.5527 3.05268 11.4255 3 11.2929 3H8.70711C8.5745 3 8.44732 3.05268 8.35355 3.14645L8.14645 3.35355C8.05268 3.44732 8 3.5745 8 3.70711V5.5C8 5.77614 7.77614 6 7.5 6H4.70711C4.5745 6 4.44732 6.05268 4.35355 6.14645L4.14645 6.35355C4.05268 6.44732 4 6.5745 4 6.70711V8.29289C4 8.4255 4.05268 8.55268 4.14645 8.64645L4.35355 8.85355C4.44732 8.94732 4.5745 9 4.70711 9H15.2929C15.4255 9 15.5527 8.94732 15.6464 8.85355L15.8536 8.64645C15.9473 8.55268 16 8.4255 16 8.29289V6.70711C16 6.5745 15.9473 6.44732 15.8536 6.35355L15.6464 6.14645C15.5527 6.05268 15.4255 6 15.2929 6H12.5C12.2239 6 12 5.77614 12 5.5V3.70711C12 3.5745 11.9473 3.44732 11.8536 3.35355L11.6464 3.14645Z" fill="#D2D2D2"/>
<path d="M0.353966 16.8535C0.158704 16.6582 0.158704 16.3417 0.353966 16.1464L3.14686 13.3535C3.46184 13.0385 4.00041 13.2616 4.00041 13.7071V14.5C4.00041 14.7761 4.22427 15 4.50041 15H7.50009C7.77624 15 8.00009 15.2238 8.00009 15.5V17.5C8.00009 17.7761 7.77624 18 7.50009 18H4.50041C4.22427 18 4.00041 18.2238 4.00041 18.5V19.2928C4.00041 19.7383 3.46184 19.9614 3.14686 19.6464L0.353966 16.8535Z" fill="#D2D2D2"/>
<path d="M19.6465 16.8535C19.8418 16.6582 19.8418 16.3417 19.6465 16.1464L16.8536 13.3535C16.5386 13.0385 16.0001 13.2616 16.0001 13.7071V14.5C16.0001 14.7761 15.7762 15 15.5001 15H12.5002C12.224 15 12.0002 15.2238 12.0002 15.5V17.5C12.0002 17.7761 12.224 18 12.5002 18H15.5001C15.7762 18 16.0001 18.2238 16.0001 18.5V19.2928C16.0001 19.7383 16.5386 19.9614 16.8536 19.6464L19.6465 16.8535Z" fill="#D2D2D2"/>
</svg>
