<svg width="20" height="20" viewBox="0 0 20 20" fill="none" xmlns="http://www.w3.org/2000/svg">
<g clip-path="url(#clip0)">
<path d="M11.5 12C11.7761 12 12 11.7761 12 11.5V8.5C12 8.22386 11.7761 8 11.5 8H8.5C8.22386 8 8 8.22386 8 8.5V11.5C8 11.7761 8.22386 12 8.5 12H11.5Z" fill="#D2D2D2"/>
<path fill-rule="evenodd" clip-rule="evenodd" d="M11.5 0C11.7761 0 12 0.223858 12 0.5V3.29289C12 3.4255 12.0527 3.55268 12.1464 3.64645L13.3536 4.85355C13.4473 4.94732 13.5745 5 13.7071 5H14.5C14.7761 5 15 5.22386 15 5.5V6.29289C15 6.4255 15.0527 6.55268 15.1464 6.64645L16.3536 7.85355C16.4473 7.94732 16.5745 8 16.7071 8H19.5C19.7761 8 20 8.22386 20 8.5V11.5C20 11.7761 19.7761 12 19.5 12H16.7071C16.5745 12 16.4473 12.0527 16.3536 12.1464L15.1464 13.3536C15.0527 13.4473 15 13.5745 15 13.7071V14.5C15 14.7761 14.7761 15 14.5 15H13.7071C13.5745 15 13.4473 15.0527 13.3536 15.1464L12.1464 16.3536C12.0527 16.4473 12 16.5745 12 16.7071V19.5C12 19.7761 11.7761 20 11.5 20H8.5C8.22386 20 8 19.7761 8 19.5V16.7071C8 16.5745 7.94732 16.4473 7.85355 16.3536L6.64645 15.1464C6.55268 15.0527 6.4255 15 6.29289 15H5.5C5.22386 15 5 14.7761 5 14.5V13.7071C5 13.5745 4.94732 13.4473 4.85355 13.3536L3.64645 12.1464C3.55268 12.0527 3.4255 12 3.29289 12H0.5C0.223858 12 0 11.7761 0 11.5V8.5C0 8.22386 0.223858 8 0.5 8H3.29289C3.4255 8 3.55268 7.94732 3.64645 7.85355L4.85355 6.64645C4.94732 6.55268 5 6.4255 5 6.29289V5.5C5 5.22386 5.22386 5 5.5 5H6.29289C6.4255 5 6.55268 4.94732 6.64645 4.85355L7.85355 3.64645C7.94732 3.55268 8 3.4255 8 3.29289V0.5C8 0.223858 8.22386 0 8.5 0H11.5ZM11.2929 16C11.4255 16 11.5527 15.9473 11.6464 15.8536L12.8536 14.6464C12.9473 14.5527 13 14.4255 13 14.2929V13.5C13 13.2239 13.2239 13 13.5 13H14.2929C14.4255 13 14.5527 12.9473 14.6464 12.8536L15.8536 11.6464C15.9473 11.5527 16 11.4255 16 11.2929V8.70711C16 8.5745 15.9473 8.44732 15.8536 8.35355L14.6464 7.14645C14.5527 7.05268 14.4255 7 14.2929 7H13.5C13.2239 7 13 6.77614 13 6.5V5.70711C13 5.5745 12.9473 5.44732 12.8536 5.35355L11.6464 4.14645C11.5527 4.05268 11.4255 4 11.2929 4H8.70711C8.5745 4 8.44732 4.05268 8.35355 4.14645L7.14645 5.35355C7.05268 5.44732 7 5.5745 7 5.70711V6.5C7 6.77614 6.77614 7 6.5 7H5.70711C5.5745 7 5.44732 7.05268 5.35355 7.14645L4.14645 8.35355C4.05268 8.44732 4 8.5745 4 8.70711L4 11.2929C4 11.4255 4.05268 11.5527 4.14645 11.6464L5.35355 12.8536C5.44732 12.9473 5.5745 13 5.70711 13H6.5C6.77614 13 7 13.2239 7 13.5V14.2929C7 14.4255 7.05268 14.5527 7.14645 14.6464L8.35355 15.8536C8.44732 15.9473 8.5745 16 8.70711 16H11.2929Z" fill="#D2D2D2"/>
<path d="M18.5001 1.00002C18.7762 1.00002 19.0001 1.22387 19.0001 1.50001L19.0001 3.50001C19.0001 3.77616 18.7762 4.00002 18.5001 4.00001L16.5001 4.00001C16.2239 4 16.0001 3.77615 16.0001 3.50001L16.0001 1.50002C16.0001 1.22387 16.2239 1.00002 16.5001 1.00002L18.5001 1.00002Z" fill="#D2D2D2"/>
<path d="M3.50006 19C3.77621 19 4.00007 18.7761 4.00006 18.5L4.00005 16.5C4.00005 16.2239 3.77619 16 3.50005 16H1.50005C1.2239 16 1.00005 16.2239 1.00005 16.5L1.00005 18.5C1.00005 18.7761 1.2239 19 1.50004 19L3.50006 19Z" fill="#D2D2D2"/>
<path d="M18.5001 19C18.7762 19 19.0001 18.7761 19.0001 18.5L19.0001 16.5C19 16.2239 18.7762 16 18.5001 16H16.5C16.2239 16 16 16.2239 16 16.5L16 18.5C16 18.7761 16.2239 19 16.5 19L18.5001 19Z" fill="#D2D2D2"/>
<path d="M3.5001 4.00001C3.77625 4.00002 4.00011 3.77616 4.0001 3.50001L4.00009 1.50001C4.00009 1.22387 3.77623 1.00002 3.50009 1.00002L1.50009 1.00002C1.22395 1.00002 1.00009 1.22388 1.00009 1.50002L1.00009 3.50001C1.00009 3.77615 1.22394 4 1.50008 4.00001L3.5001 4.00001Z" fill="#D2D2D2"/>
</g>
<defs>
<clipPath id="clip0">
<rect width="20" height="20" fill="white"/>
</clipPath>
</defs>
</svg>
