<svg width="20" height="20" viewBox="0 0 20 20" fill="none" xmlns="http://www.w3.org/2000/svg">
<path fill-rule="evenodd" clip-rule="evenodd" d="M3 3.5C3 3.22386 2.77614 3 2.5 3H0.5C0.223858 3 0 3.22386 0 3.5V5.5C0 5.77614 0.223858 6 0.5 6H2.29289C2.4255 6 2.55268 6.05268 2.64645 6.14645L2.85355 6.35355C2.94732 6.44732 3 6.5745 3 6.70711V9.1463C3 9.42244 2.77614 9.6463 2.5 9.6463H2.32315C2.14468 9.6463 2 9.50162 2 9.32315C2 9.14468 1.85532 9 1.67685 9H0.5C0.223858 9 0 9.22386 0 9.5V10.5C0 10.7761 0.223858 11 0.5 11H1.6767C1.85525 11 2 10.8553 2 10.6767C2 10.4981 2.14475 10.3534 2.3233 10.3534H2.5C2.77614 10.3534 3 10.5773 3 10.8534V13.2929C3 13.4255 2.94732 13.5527 2.85355 13.6464L2.64645 13.8536C2.55268 13.9473 2.4255 14 2.29289 14L0.5 14C0.223858 14 0 14.2239 0 14.5V16.5C0 16.7761 0.223858 17 0.5 17H2.5C2.77614 17 3 16.7761 3 16.5V14.7071C3 14.5745 3.05268 14.4473 3.14645 14.3536L3.35355 14.1464C3.44732 14.0527 3.5745 14 3.70711 14H5.29289C5.4255 14 5.55268 14.0527 5.64645 14.1464L5.85355 14.3536C5.94732 14.4473 6 14.5745 6 14.7071V16.5C6 16.7761 6.22386 17 6.5 17H13.5C13.7761 17 14 16.7761 14 16.5V14.7071C14 14.5745 14.0527 14.4473 14.1464 14.3536L14.3536 14.1464C14.4473 14.0527 14.5745 14 14.7071 14L16.2929 14C16.4255 14 16.5527 14.0527 16.6464 14.1464L16.8536 14.3536C16.9473 14.4473 17 14.5745 17 14.7071V16.5C17 16.7761 17.2239 17 17.5 17H19.5C19.7761 17 20 16.7761 20 16.5V14.5C20 14.2239 19.7761 14 19.5 14H17.7071C17.5745 14 17.4473 13.9473 17.3536 13.8536L17.1464 13.6464C17.0527 13.5527 17 13.4255 17 13.2929V10.8534C17 10.5773 17.2239 10.3534 17.5 10.3534H17.6767C17.8553 10.3534 18 10.4981 18 10.6767C18 10.8553 18.1447 11 18.3233 11H19.5C19.7761 11 20 10.7761 20 10.5V9.5C20 9.22386 19.7761 9 19.5 9H18.3231C18.1447 9 18 9.14468 18 9.32315C18 9.50162 17.8553 9.6463 17.6769 9.6463H17.5C17.2239 9.6463 17 9.42244 17 9.1463V6.70711C17 6.5745 17.0527 6.44732 17.1464 6.35355L17.3536 6.14645C17.4473 6.05268 17.5745 6 17.7071 6H19.5C19.7761 6 20 5.77614 20 5.5V3.5C20 3.22386 19.7761 3 19.5 3H17.5C17.2239 3 17 3.22386 17 3.5V5.29289C17 5.4255 16.9473 5.55268 16.8536 5.64645L16.6464 5.85355C16.5527 5.94732 16.4255 6 16.2929 6H14.7071C14.5745 6 14.4473 5.94732 14.3536 5.85355L14.1464 5.64645C14.0527 5.55268 14 5.4255 14 5.29289V3.5C14 3.22386 13.7761 3 13.5 3H6.5C6.22386 3 6 3.22386 6 3.5V5.29289C6 5.4255 5.94732 5.55268 5.85355 5.64645L5.64645 5.85355C5.55268 5.94732 5.4255 6 5.29289 6H3.70711C3.5745 6 3.44732 5.94732 3.35355 5.85355L3.14645 5.64645C3.05268 5.55268 3 5.4255 3 5.29289V3.5ZM13.8536 6.35355C13.9473 6.44732 14 6.5745 14 6.70711V13.2929C14 13.4255 13.9473 13.5527 13.8536 13.6464L13.6464 13.8536C13.5527 13.9473 13.4255 14 13.2929 14H6.70711C6.5745 14 6.44732 13.9473 6.35355 13.8536L6.14645 13.6464C6.05268 13.5527 6 13.4255 6 13.2929V6.70711C6 6.5745 6.05268 6.44732 6.14645 6.35355L6.35355 6.14645C6.44732 6.05268 6.5745 6 6.70711 6H13.2929C13.4255 6 13.5527 6.05268 13.6464 6.14645L13.8536 6.35355Z" fill="#D2D2D2"/>
<path d="M8 9C8 8.44772 8.44772 8 9 8H11C11.5523 8 12 8.44772 12 9V11C12 11.5523 11.5523 12 11 12H9C8.44772 12 8 11.5523 8 11V9Z" fill="#D2D2D2"/>
</svg>
