<svg width="20" height="20" viewBox="0 0 20 20" fill="none" xmlns="http://www.w3.org/2000/svg">
<path d="M3 0.5C3 0.223858 3.22386 0 3.5 0H12.5C12.7761 0 13 0.223858 13 0.5V2.29289C13 2.4255 13.0527 2.55268 13.1464 2.64645L13.3536 2.85355C13.4473 2.94732 13.5745 3 13.7071 3H15.5C15.7761 3 16 3.22386 16 3.5V5.5C16 5.77614 15.7761 6 15.5 6H13.5C13.2239 6 13 5.77614 13 5.5V3.70711C13 3.5745 12.9473 3.44732 12.8536 3.35355L12.6464 3.14645C12.5527 3.05268 12.4255 3 12.2929 3H3.70711C3.5745 3 3.44732 3.05268 3.35355 3.14645L3.14645 3.35355C3.05268 3.44732 3 3.5745 3 3.70711V16.2929C3 16.4255 3.05268 16.5527 3.14645 16.6464L3.35355 16.8536C3.44732 16.9473 3.5745 17 3.70711 17H8.5C8.77614 17 9 17.2239 9 17.5V19.5C9 19.7761 8.77614 20 8.5 20H3.5C3.22386 20 3 19.7761 3 19.5V17.7071C3 17.5745 2.94732 17.4473 2.85355 17.3536L2.64645 17.1464C2.55268 17.0527 2.4255 17 2.29289 17H0.5C0.223858 17 0 16.7761 0 16.5V3.5C0 3.22386 0.223858 3 0.5 3H2.29289C2.4255 3 2.55268 2.94732 2.64645 2.85355L2.85355 2.64645C2.94732 2.55268 3 2.4255 3 2.29289V0.5Z" fill="#D2D2D2"/>
<path fill-rule="evenodd" clip-rule="evenodd" d="M11.5 16C11.7761 16 12 15.7761 12 15.5V14.7071C12 14.2617 12.5386 14.0386 12.8536 14.3536C12.9473 14.4473 13 14.5745 13 14.7071V16.5C13 16.7761 13.2239 17 13.5 17H15.2929C15.4255 17 15.5527 17.0527 15.6464 17.1464L15.8536 17.3536C15.9473 17.4473 16 17.5745 16 17.7071V19.5C16 19.7761 16.2239 20 16.5 20H18.5C18.7761 20 19 19.7761 19 19.5V17.5C19 17.2239 18.7761 17 18.5 17H16.7071C16.5745 17 16.4473 16.9473 16.3536 16.8536L16.1464 16.6464C16.0527 16.5527 16 16.4255 16 16.2929V14.5C16 14.2239 15.7761 14 15.5 14H13.7071C13.5745 14 13.4473 13.9473 13.3536 13.8536C13.0386 13.5386 13.2617 13 13.7071 13H14.5C14.7761 13 15 12.7761 15 12.5V9.5C15 9.22386 14.7761 9 14.5 9H12.7071C12.5745 9 12.4473 8.94732 12.3536 8.85355L12.1464 8.64645C12.0527 8.55268 12 8.4255 12 8.29289V6.5C12 6.22386 11.7761 6 11.5 6H8.5C8.22386 6 8 6.22386 8 6.5V8.29289C8 8.4255 7.94732 8.55268 7.85355 8.64645L7.64645 8.85355C7.55268 8.94732 7.4255 9 7.29289 9H5.5C5.22386 9 5 9.22386 5 9.5V12.5C5 12.7761 5.22386 13 5.5 13H7.29289C7.4255 13 7.55268 13.0527 7.64645 13.1464L7.85355 13.3536C7.94732 13.4473 8 13.5745 8 13.7071V15.5C8 15.7761 8.22386 16 8.5 16H11.5ZM12 12.2929C12 12.4255 11.9473 12.5527 11.8536 12.6464L11.6464 12.8536C11.5527 12.9473 11.4255 13 11.2929 13H8.70711C8.5745 13 8.44732 12.9473 8.35355 12.8536L8.14645 12.6464C8.05268 12.5527 8 12.4255 8 12.2929V9.70711C8 9.5745 8.05268 9.44732 8.14645 9.35355L8.35355 9.14645C8.44732 9.05268 8.5745 9 8.70711 9H11.2929C11.4255 9 11.5527 9.05268 11.6464 9.14645L11.8536 9.35355C11.9473 9.44732 12 9.5745 12 9.70711V12.2929Z" fill="#D2D2D2"/>
</svg>
