<svg width="20" height="20" viewBox="0 0 20 20" fill="none" xmlns="http://www.w3.org/2000/svg">
<path d="M6 1.5C6 1.22386 6.22386 1 6.5 1H8.5C8.77614 1 9 1.22386 9 1.5V3.5C9 3.77614 8.77614 4 8.5 4H6.5C6.22386 4 6 3.77614 6 3.5V1.5Z" fill="#D2D2D2"/>
<path d="M2 5.5C2 5.22386 2.22386 5 2.5 5H4.5C4.77614 5 5 5.22386 5 5.5V7.5C5 7.77614 4.77614 8 4.5 8H2.5C2.22386 8 2 7.77614 2 7.5V5.5Z" fill="#D2D2D2"/>
<path d="M6 5.5C6 5.22386 6.22386 5 6.5 5H8.5C8.77614 5 9 5.22386 9 5.5V7.5C9 7.77614 8.77614 8 8.5 8H6.5C6.22386 8 6 7.77614 6 7.5V5.5Z" fill="#D2D2D2"/>
<path d="M13 5.5C13 5.22386 12.7761 5 12.5 5H10.5C10.2239 5 10 5.22386 10 5.5V7.5C10 7.77614 10.2239 8 10.5 8H12.5C12.7761 8 13 7.77614 13 7.5V5.5Z" fill="#D2D2D2"/>
<path fill-rule="evenodd" clip-rule="evenodd" d="M1 9C0.447715 9 0 9.44772 0 10V12.1716C0 13.9826 0.719421 15.7194 2 17C3.28058 18.2806 5.01742 19 6.82843 19H7.30877C10.4656 19 13.3263 17.1409 14.6084 14.2562L16.3726 10.2867C16.4378 10.14 16.6225 10.0919 16.751 10.1883L17.1123 10.4592C17.9086 11.0564 19.0228 10.9772 19.7265 10.2735L19.8467 10.1533C19.9347 10.0653 19.9446 9.92607 19.8699 9.82654L19.1106 8.81417C18.768 8.35739 18.1283 8.2478 17.6532 8.56452C17.5274 8.64839 17.3803 8.4929 17.471 8.37194L17.7397 8.01369C18.1903 7.41298 18.1903 6.58702 17.7397 5.98631L17.15 5.2C17.0672 5.08954 16.9105 5.06716 16.8 5.15L16.2262 5.58035C15.5027 6.12294 15.2334 7.08349 15.5693 7.92313L15.8629 8.65715C15.9285 8.82137 15.8076 9 15.6307 9H1ZM4.5 11C5.32843 11 6 11.6716 6 12.5C6 13.3284 5.32843 14 4.5 14C3.67157 14 3 13.3284 3 12.5C3 11.6716 3.67157 11 4.5 11Z" fill="#D2D2D2"/>
</svg>
