<svg width="20" height="20" viewBox="0 0 20 20" fill="none" xmlns="http://www.w3.org/2000/svg">
<g clip-path="url(#clip0)">
<path d="M11.5 19.5C11.5 19.7761 11.2761 20 11 20H9C8.72386 20 8.5 19.7761 8.5 19.5V17.5C8.5 17.2239 8.72386 17 9 17H11C11.2761 17 11.5 17.2239 11.5 17.5V19.5Z" fill="#D2D2D2"/>
<path d="M14.2678 12.1462C14.463 12.3415 14.463 12.6581 14.2678 12.8533L12.8536 14.2675C12.6583 14.4628 12.3417 14.4628 12.1464 14.2675L10.7322 12.8533C10.537 12.6581 10.537 12.3415 10.7322 12.1462L12.1464 10.732C12.3417 10.5367 12.6583 10.5367 12.8536 10.732L14.2678 12.1462Z" fill="#D2D2D2"/>
<path d="M7.14645 14.2675C7.34171 14.4628 7.65829 14.4628 7.85355 14.2675L9.26777 12.8533C9.46303 12.6581 9.46303 12.3415 9.26777 12.1462L7.85355 10.732C7.65829 10.5367 7.34171 10.5367 7.14645 10.732L5.73223 12.1462C5.53697 12.3415 5.53697 12.6581 5.73223 12.8533L7.14645 14.2675Z" fill="#D2D2D2"/>
<path d="M14.2675 7.14622C14.4628 7.34148 14.4628 7.65807 14.2675 7.85333L12.8533 9.26754C12.658 9.4628 12.3415 9.4628 12.1462 9.26754L10.732 7.85333C10.5367 7.65807 10.5367 7.34148 10.732 7.14622L12.1462 5.73201C12.3415 5.53675 12.658 5.53675 12.8533 5.73201L14.2675 7.14622Z" fill="#D2D2D2"/>
<path d="M7.14645 9.26754C7.34171 9.4628 7.65829 9.4628 7.85355 9.26754L9.26777 7.85333C9.46303 7.65806 9.46303 7.34148 9.26777 7.14622L7.85355 5.73201C7.65829 5.53675 7.34171 5.53675 7.14645 5.73201L5.73223 7.14622C5.53697 7.34148 5.53697 7.65807 5.73223 7.85333L7.14645 9.26754Z" fill="#D2D2D2"/>
<path d="M11.5 2.5C11.5 2.77614 11.2761 3 11 3L9 3C8.72386 3 8.5 2.77614 8.5 2.5V0.5C8.5 0.223858 8.72386 -2.41411e-08 9 0L11 1.74846e-07C11.2761 1.98987e-07 11.5 0.223858 11.5 0.5V2.5Z" fill="#D2D2D2"/>
<path d="M0.5 8.5C0.223858 8.5 1.98987e-07 8.72386 1.74846e-07 9L0 11C-2.41411e-08 11.2761 0.223858 11.5 0.5 11.5H2.5C2.77614 11.5 3 11.2761 3 11L3 9C3 8.72386 2.77614 8.5 2.5 8.5H0.5Z" fill="#D2D2D2"/>
<path d="M17.5 11.5C17.2239 11.5 17 11.2761 17 11V9C17 8.72386 17.2239 8.5 17.5 8.5H19.5C19.7761 8.5 20 8.72386 20 9V11C20 11.2761 19.7761 11.5 19.5 11.5H17.5Z" fill="#D2D2D2"/>
<path d="M3 14.5C2.72386 14.5 2.5 14.7239 2.5 15L2.5 17C2.5 17.2761 2.72386 17.5 3 17.5H5C5.27614 17.5 5.5 17.2761 5.5 17V15C5.5 14.7239 5.27614 14.5 5 14.5L3 14.5Z" fill="#D2D2D2"/>
<path d="M17.5 5C17.5 5.27614 17.2761 5.5 17 5.5H15C14.7239 5.5 14.5 5.27614 14.5 5L14.5 3C14.5 2.72386 14.7239 2.5 15 2.5L17 2.5C17.2761 2.5 17.5 2.72386 17.5 3V5Z" fill="#D2D2D2"/>
<path d="M5.5 3C5.5 2.72386 5.27614 2.5 5 2.5L3 2.5C2.72386 2.5 2.5 2.72386 2.5 3L2.5 5C2.5 5.27614 2.72386 5.5 3 5.5H5C5.27614 5.5 5.5 5.27614 5.5 5V3Z" fill="#D2D2D2"/>
<path d="M15 17.5C14.7239 17.5 14.5 17.2761 14.5 17L14.5 15C14.5 14.7239 14.7239 14.5 15 14.5H17C17.2761 14.5 17.5 14.7239 17.5 15V17C17.5 17.2761 17.2761 17.5 17 17.5H15Z" fill="#D2D2D2"/>
</g>
<defs>
<clipPath id="clip0">
<rect width="20" height="20" fill="white" transform="translate(20 20) rotate(-180)"/>
</clipPath>
</defs>
</svg>
