<svg width="20" height="20" viewBox="0 0 20 20" fill="none" xmlns="http://www.w3.org/2000/svg">
<path d="M6 3C6 2.72386 6.22386 2.5 6.5 2.5H19.5C19.7761 2.5 20 2.72386 20 3V5C20 5.27614 19.7761 5.5 19.5 5.5H6.5C6.22386 5.5 6 5.27614 6 5V3Z" fill="#D2D2D2"/>
<path d="M6 9C6 8.72386 6.22386 8.5 6.5 8.5H19.5C19.7761 8.5 20 8.72386 20 9V11C20 11.2761 19.7761 11.5 19.5 11.5H6.5C6.22386 11.5 6 11.2761 6 11V9Z" fill="#D2D2D2"/>
<path d="M6 15C6 14.7239 6.22386 14.5 6.5 14.5H19.5C19.7761 14.5 20 14.7239 20 15V17C20 17.2761 19.7761 17.5 19.5 17.5H6.5C6.22386 17.5 6 17.2761 6 17V15Z" fill="#D2D2D2"/>
<path d="M0 3C0 2.72386 0.223858 2.5 0.5 2.5H2.5C2.77614 2.5 3 2.72386 3 3V5C3 5.27614 2.77614 5.5 2.5 5.5H0.5C0.223858 5.5 0 5.27614 0 5V3Z" fill="#D2D2D2"/>
<path d="M0 9C0 8.72386 0.223858 8.5 0.5 8.5H2.5C2.77614 8.5 3 8.72386 3 9V11C3 11.2761 2.77614 11.5 2.5 11.5H0.5C0.223858 11.5 0 11.2761 0 11V9Z" fill="#D2D2D2"/>
<path d="M0 15C0 14.7239 0.223858 14.5 0.5 14.5H2.5C2.77614 14.5 3 14.7239 3 15V17C3 17.2761 2.77614 17.5 2.5 17.5H0.5C0.223858 17.5 0 17.2761 0 17V15Z" fill="#D2D2D2"/>
</svg>
