<svg width="20" height="20" viewBox="0 0 20 20" fill="none" xmlns="http://www.w3.org/2000/svg">
<g clip-path="url(#clip0)">
<path fill-rule="evenodd" clip-rule="evenodd" d="M6 0.5C6 0.223858 6.22386 0 6.5 0H13.5C13.7761 0 14 0.223858 14 0.5V2.29289C14 2.4255 14.0527 2.55268 14.1464 2.64645L14.3536 2.85355C14.4473 2.94732 14.5745 3 14.7071 3H16.5C16.7761 3 17 3.22386 17 3.5V5.29289C17 5.4255 17.0527 5.55268 17.1464 5.64645L17.3536 5.85355C17.4473 5.94732 17.5745 6 17.7071 6H19.5C19.7761 6 20 6.22386 20 6.5V13.5C20 13.7761 19.7761 14 19.5 14H17.7071C17.5745 14 17.4473 14.0527 17.3536 14.1464L17.1464 14.3536C17.0527 14.4473 17 14.5745 17 14.7071V16.5C17 16.7761 16.7761 17 16.5 17H14.7071C14.5745 17 14.4473 17.0527 14.3536 17.1464L14.1464 17.3536C14.0527 17.4473 14 17.5745 14 17.7071V19.5C14 19.7761 13.7761 20 13.5 20H6.5C6.22386 20 6 19.7761 6 19.5V17.7071C6 17.5745 5.94732 17.4473 5.85355 17.3536L5.64645 17.1464C5.55268 17.0527 5.4255 17 5.29289 17H3.5C3.22386 17 3 16.7761 3 16.5V14.7071C3 14.5745 2.94732 14.4473 2.85355 14.3536L2.64645 14.1464C2.55268 14.0527 2.4255 14 2.29289 14H0.5C0.223858 14 0 13.7761 0 13.5V6.5C0 6.22386 0.223858 6 0.5 6H2.29289C2.4255 6 2.55268 5.94732 2.64645 5.85355L2.85355 5.64645C2.94732 5.55268 3 5.4255 3 5.29289V3.5C3 3.22386 3.22386 3 3.5 3H5.29289C5.4255 3 5.55268 2.94732 5.64645 2.85355L5.85355 2.64645C5.94732 2.55268 6 2.4255 6 2.29289V0.5ZM6.14645 3.35355C6.05268 3.44732 6 3.5745 6 3.70711V5.5C6 5.77614 5.77614 6 5.5 6H3.70711C3.5745 6 3.44732 6.05268 3.35355 6.14645L3.14645 6.35355C3.05268 6.44732 3 6.5745 3 6.70711V13.2929C3 13.4255 3.05268 13.5527 3.14645 13.6464L3.35355 13.8536C3.44732 13.9473 3.5745 14 3.70711 14H5.5C5.77614 14 6 14.2239 6 14.5V16.2929C6 16.4255 6.05268 16.5527 6.14645 16.6464L6.35355 16.8536C6.44732 16.9473 6.5745 17 6.70711 17H13.2929C13.4255 17 13.5527 16.9473 13.6464 16.8536L13.8536 16.6464C13.9473 16.5527 14 16.4255 14 16.2929V14.5C14 14.2239 14.2239 14 14.5 14H16.2929C16.4255 14 16.5527 13.9473 16.6464 13.8536L16.8536 13.6464C16.9473 13.5527 17 13.4255 17 13.2929V6.70711C17 6.5745 16.9473 6.44732 16.8536 6.35355L16.6464 6.14645C16.5527 6.05268 16.4255 6 16.2929 6H14.5C14.2239 6 14 5.77614 14 5.5V3.70711C14 3.5745 13.9473 3.44732 13.8536 3.35355L13.6464 3.14645C13.5527 3.05268 13.4255 3 13.2929 3H6.70711C6.5745 3 6.44732 3.05268 6.35355 3.14645L6.14645 3.35355Z" fill="#D2D2D2"/>
<path d="M9.76583 4.62624C9.84682 4.40965 10.1532 4.40965 10.2342 4.62624L11.4233 7.8063C11.4584 7.90026 11.5463 7.96412 11.6465 7.9685L15.0384 8.11671C15.2694 8.12681 15.3641 8.41817 15.1831 8.56212L12.5261 10.6757C12.4476 10.7382 12.4141 10.8415 12.4409 10.9382L13.3481 14.2098C13.4098 14.4327 13.162 14.6127 12.9692 14.4851L10.138 12.6113C10.0543 12.556 9.94568 12.556 9.86202 12.6113L7.03082 14.4851C6.838 14.6127 6.59015 14.4327 6.65194 14.2098L7.55913 10.9382C7.58593 10.8415 7.55236 10.7382 7.47385 10.6757L4.81689 8.56212C4.63593 8.41817 4.7306 8.12681 4.96161 8.11671L8.35348 7.9685C8.4537 7.96412 8.5416 7.90026 8.57673 7.8063L9.76583 4.62624Z" fill="#D2D2D2"/>
</g>
<defs>
<clipPath id="clip0">
<rect width="20" height="20" fill="white"/>
</clipPath>
</defs>
</svg>
