<svg width="20" height="20" viewBox="0 0 20 20" fill="none" xmlns="http://www.w3.org/2000/svg">
<path fill-rule="evenodd" clip-rule="evenodd" d="M5 2.5C5 2.22386 5.22386 2 5.5 2H7.5C7.77614 2 8 2.22386 8 2.5V4.29289C8 4.4255 8.05268 4.55268 8.14645 4.64645L8.35355 4.85355C8.44732 4.94732 8.5745 5 8.70711 5H10.5C10.7761 5 11 5.22386 11 5.5V7.5C11 7.77614 10.7761 8 10.5 8H8.70711C8.5745 8 8.44732 8.05268 8.35355 8.14645L8.14645 8.35355C8.05268 8.44732 8 8.5745 8 8.70711V10.5C8 10.7761 7.77614 11 7.5 11H5.5C5.22386 11 5 10.7761 5 10.5V8.70711C5 8.5745 4.94732 8.44732 4.85355 8.35355L4.64645 8.14645C4.55268 8.05268 4.4255 8 4.29289 8H2.5C2.22386 8 2 7.77614 2 7.5V5.5C2 5.22386 2.22386 5 2.5 5H4.29289C4.4255 5 4.55268 4.94732 4.64645 4.85355L4.85355 4.64645C4.94732 4.55268 5 4.4255 5 4.29289V2.5ZM8 7.29289C8 7.4255 7.94732 7.55268 7.85355 7.64645L7.64645 7.85355C7.55268 7.94732 7.4255 8 7.29289 8H5.70711C5.5745 8 5.44732 7.94732 5.35355 7.85355L5.14645 7.64645C5.05268 7.55268 5 7.4255 5 7.29289V5.70711C5 5.5745 5.05268 5.44732 5.14645 5.35355L5.35355 5.14645C5.44732 5.05268 5.5745 5 5.70711 5H7.29289C7.4255 5 7.55268 5.05268 7.64645 5.14645L7.85355 5.35355C7.94732 5.44732 8 5.5745 8 5.70711V7.29289Z" fill="#D2D2D2"/>
<path d="M14.6464 5.14645C14.5527 5.05268 14.4255 5 14.2929 5H12.5C12.2239 5 12 4.77614 12 4.5V2.5C12 2.22386 12.2239 2 12.5 2H14.5C14.7761 2 15 2.22386 15 2.5V4.29289C15 4.4255 15.0527 4.55268 15.1464 4.64645L15.3536 4.85355C15.4473 4.94732 15.5745 5 15.7071 5H17.5C17.7761 5 18 5.22386 18 5.5V7.5C18 7.77614 17.7761 8 17.5 8H15.7071C15.5745 8 15.4473 8.05268 15.3536 8.14645L15.1464 8.35355C15.0527 8.44732 15 8.5745 15 8.70711V10.5C15 10.7761 14.7761 11 14.5 11H12.5C12.2239 11 12 10.7761 12 10.5V8.5C12 8.22386 12.2239 8 12.5 8H14.2929C14.4255 8 14.5527 7.94732 14.6464 7.85355L14.8536 7.64645C14.9473 7.55268 15 7.4255 15 7.29289V5.70711C15 5.5745 14.9473 5.44732 14.8536 5.35355L14.6464 5.14645Z" fill="#D2D2D2"/>
<path d="M9.64645 16.1464C9.55268 16.0527 9.4255 16 9.29289 16H3.70711C3.5745 16 3.44732 16.0527 3.35355 16.1464L3.14645 16.3536C3.05268 16.4473 3 16.5745 3 16.7071V18.5C3 18.7761 2.77614 19 2.5 19H0.5C0.223858 19 0 18.7761 0 18.5V16.5C0 16.2239 0.223858 16 0.5 16H2.29289C2.4255 16 2.55268 15.9473 2.64645 15.8536L2.85355 15.6464C2.94732 15.5527 3 15.4255 3 15.2929V13.5C3 13.2239 3.22386 13 3.5 13H9.5C9.77614 13 10 13.2239 10 13.5V15.2929C10 15.4255 10.0527 15.5527 10.1464 15.6464L10.3536 15.8536C10.4473 15.9473 10.5745 16 10.7071 16H12.5C12.7761 16 13 16.2239 13 16.5V18.5C13 18.7761 12.7761 19 12.5 19H10.5C10.2239 19 10 18.7761 10 18.5V16.7071C10 16.5745 9.94732 16.4473 9.85355 16.3536L9.64645 16.1464Z" fill="#D2D2D2"/>
<path d="M14.5 13C14.2239 13 14 13.2239 14 13.5V15.5C14 15.7761 14.2239 16 14.5 16H16.2929C16.4255 16 16.5527 16.0527 16.6464 16.1464L16.8536 16.3536C16.9473 16.4473 17 16.5745 17 16.7071V18.5C17 18.7761 17.2239 19 17.5 19H19.5C19.7761 19 20 18.7761 20 18.5V16.5C20 16.2239 19.7761 16 19.5 16H17.7071C17.5745 16 17.4473 15.9473 17.3536 15.8536L17.1464 15.6464C17.0527 15.5527 17 15.4255 17 15.2929V13.5C17 13.2239 16.7761 13 16.5 13H14.5Z" fill="#D2D2D2"/>
</svg>
