<svg width="20" height="20" viewBox="0 0 20 20" fill="none" xmlns="http://www.w3.org/2000/svg">
<path d="M5 0.5C5 0.223858 4.77614 0 4.5 0H3.5C3.22386 0 3 0.223858 3 0.5V2.5C3 2.77614 2.77614 3 2.5 3H2C1.72386 3 1.5 3.22386 1.5 3.5V7.5C1.5 7.77614 1.72386 8 2 8H2.5C2.77614 8 3 8.22386 3 8.5V19.5C3 19.7761 3.22386 20 3.5 20H4.5C4.77614 20 5 19.7761 5 19.5V8.5C5 8.22386 5.22386 8 5.5 8H6C6.27614 8 6.5 7.77614 6.5 7.5V3.5C6.5 3.22386 6.27614 3 6 3H5.5C5.22386 3 5 2.77614 5 2.5V0.5Z" fill="#D2D2D2"/>
<path d="M11 0.5C11 0.223858 10.7761 0 10.5 0H9.5C9.22386 0 9 0.223858 9 0.5V11.5C9 11.7761 8.77614 12 8.5 12H8C7.72386 12 7.5 12.2239 7.5 12.5V16.5C7.5 16.7761 7.72386 17 8 17H8.5C8.77614 17 9 17.2239 9 17.5V19.5C9 19.7761 9.22386 20 9.5 20H10.5C10.7761 20 11 19.7761 11 19.5V17.5C11 17.2239 11.2239 17 11.5 17H12C12.2761 17 12.5 16.7761 12.5 16.5V12.5C12.5 12.2239 12.2761 12 12 12H11.5C11.2239 12 11 11.7761 11 11.5V0.5Z" fill="#D2D2D2"/>
<path d="M15 0.5C15 0.223858 15.2239 0 15.5 0H16.5C16.7761 0 17 0.223858 17 0.5V2.5C17 2.77614 17.2239 3 17.5 3H18C18.2761 3 18.5 3.22386 18.5 3.5V7.5C18.5 7.77614 18.2761 8 18 8H17.5C17.2239 8 17 8.22386 17 8.5V19.5C17 19.7761 16.7761 20 16.5 20H15.5C15.2239 20 15 19.7761 15 19.5V8.5C15 8.22386 14.7761 8 14.5 8H14C13.7239 8 13.5 7.77614 13.5 7.5V3.5C13.5 3.22386 13.7239 3 14 3H14.5C14.7761 3 15 2.77614 15 2.5V0.5Z" fill="#D2D2D2"/>
</svg>
