<svg width="20" height="20" viewBox="0 0 20 20" fill="none" xmlns="http://www.w3.org/2000/svg">
<g clip-path="url(#clip0)">
<path d="M0.500002 20C0.22386 20 2.36258e-06 19.7761 2.12757e-06 19.5L0 0.5C0 0.223858 0.223858 9.94936e-08 0.5 8.7423e-08L2.5 0C2.77614 -1.20706e-08 3 0.223858 3 0.500001L3 16.5C3 16.7761 3.22386 17 3.5 17H19.5C19.7761 17 20 17.2239 20 17.5V19.5C20 19.7761 19.7761 20 19.5 20H0.500002Z" fill="#D2D2D2"/>
<path d="M16.3536 6.14645C16.4473 6.05268 16.5745 6 16.7071 6L18.5 6C18.7761 6 19 5.77614 19 5.5V1.5C19 1.22386 18.7761 1 18.5 1L16.5 1.00001C16.2239 1.00001 16 1.22386 16 1.50001V5.2929C16 5.4255 15.9473 5.55268 15.8536 5.64645L15.6464 5.85356C15.5527 5.94732 15.4255 6 15.2929 6L11.5 6C11.2239 6 11 6.22386 11 6.5V8.2929C11 8.42551 10.9473 8.55268 10.8536 8.64645L10.6464 8.85356C10.5527 8.94732 10.4255 9 10.2929 9L8.5 9C8.22386 9 8 9.22386 8 9.5V11.2929C8 11.4255 7.94732 11.5527 7.85355 11.6464L7.64645 11.8536C7.55268 11.9473 7.4255 12 7.29289 12L5.5 12C5.22386 12 5 12.2239 5 12.5V14.5C5 14.7761 5.22386 15 5.5 15L7.5 15C7.77614 15 8 14.7761 8 14.5V12.7071C8 12.5745 8.05268 12.4473 8.14645 12.3536L8.35355 12.1464C8.44732 12.0527 8.5745 12 8.70711 12L10.5 12C10.7761 12 11 11.7761 11 11.5L11 9.70711C11 9.5745 11.0527 9.44733 11.1464 9.35356L11.3536 9.14645C11.4473 9.05268 11.5745 9 11.7071 9L15.5 9C15.7761 9 16 8.77614 16 8.5V6.70711C16 6.5745 16.0527 6.44732 16.1464 6.35356L16.3536 6.14645Z" fill="#D2D2D2"/>
</g>
<defs>
<clipPath id="clip0">
<rect width="20" height="20" fill="white"/>
</clipPath>
</defs>
</svg>
