<svg width="20" height="20" viewBox="0 0 20 20" fill="none" xmlns="http://www.w3.org/2000/svg">
<g clip-path="url(#clip0)">
<path d="M8.5 5.7C8.5 5.58954 8.58954 5.5 8.7 5.5H11.3C11.4105 5.5 11.5 5.58954 11.5 5.7V8.3C11.5 8.41046 11.4105 8.5 11.3 8.5H8.7C8.58954 8.5 8.5 8.41046 8.5 8.3V5.7Z" fill="#D2D2D2"/>
<path d="M6 10.75C6 9.7835 6.7835 9 7.75 9C8.7165 9 9.5 9.7835 9.5 10.75C9.5 11.7165 8.7165 12.5 7.75 12.5C6.7835 12.5 6 11.7165 6 10.75Z" fill="#D2D2D2"/>
<path d="M11.6887 9.18051C11.8325 8.93983 12.1675 8.93983 12.3113 9.18051L13.9436 11.9124C14.0964 12.1682 13.9206 12.5 13.6323 12.5H10.3677C10.0794 12.5 9.90356 12.1682 10.0564 11.9124L11.6887 9.18051Z" fill="#D2D2D2"/>
<path fill-rule="evenodd" clip-rule="evenodd" d="M3 2.29289C3 2.4255 2.94732 2.55268 2.85355 2.64645L2.64645 2.85355C2.55268 2.94732 2.4255 3 2.29289 3H0.5C0.223858 3 0 3.22386 0 3.5V11.5C0 11.7761 0.223858 12 0.5 12H1.5C1.77614 12 2 12.2239 2 12.5V16.5C2 16.7761 2.22386 17 2.5 17H4.29289C4.4255 17 4.55268 17.0527 4.64645 17.1464L4.85355 17.3536C4.94732 17.4473 5 17.5745 5 17.7071V19.5C5 19.7761 5.22386 20 5.5 20H14.5C14.7761 20 15 19.7761 15 19.5V17.7071C15 17.5745 15.0527 17.4473 15.1464 17.3536L15.3536 17.1464C15.4473 17.0527 15.5745 17 15.7071 17H17.5C17.7761 17 18 16.7761 18 16.5V12.5C18 12.2239 18.2239 12 18.5 12H19.5C19.7761 12 20 11.7761 20 11.5V3.5C20 3.22386 19.7761 3 19.5 3L17.7071 3C17.5745 3 17.4473 2.94732 17.3536 2.85355L17.1464 2.64645C17.0527 2.55268 17 2.4255 17 2.29289V0.5C17 0.223858 16.7761 0 16.5 0H3.5C3.22386 0 3 0.223858 3 0.5L3 2.29289ZM5 16.2929C5 16.4255 5.05268 16.5527 5.14645 16.6464L5.35355 16.8536C5.44732 16.9473 5.5745 17 5.70711 17H14.2929C14.4255 17 14.5527 16.9473 14.6464 16.8536L14.8536 16.6464C14.9473 16.5527 15 16.4255 15 16.2929V12.5C15 12.2239 15.2239 12 15.5 12H16.2929C16.4255 12 16.5527 11.9473 16.6464 11.8536L16.8536 11.6464C16.9473 11.5527 17 11.4255 17 11.2929V3.70711C17 3.5745 16.9473 3.44732 16.8536 3.35355L16.6464 3.14645C16.5527 3.05268 16.4255 3 16.2929 3L3.70711 3C3.5745 3 3.44732 3.05268 3.35355 3.14645L3.14645 3.35355C3.05268 3.44732 3 3.5745 3 3.70711V11.2929C3 11.4255 3.05268 11.5527 3.14645 11.6464L3.35355 11.8536C3.44732 11.9473 3.5745 12 3.70711 12H4.5C4.77614 12 5 12.2239 5 12.5V16.2929Z" fill="#D2D2D2"/>
</g>
<defs>
<clipPath id="clip0">
<rect width="20" height="20" fill="white"/>
</clipPath>
</defs>
</svg>
