<svg width="20" height="20" viewBox="0 0 20 20" fill="none" xmlns="http://www.w3.org/2000/svg">
<g clip-path="url(#clip0)">
<path fill-rule="evenodd" clip-rule="evenodd" d="M11.3536 13.8536C11.4473 13.9473 11.5745 14 11.7071 14H13.2929C13.4255 14 13.5527 13.9473 13.6464 13.8536L13.8536 13.6464C13.9473 13.5527 14 13.4255 14 13.2929V11.5C14 11.2239 14.2239 11 14.5 11H16.5C16.7761 11 17 11.2239 17 11.5V13.2929C17 13.4255 17.0527 13.5527 17.1464 13.6464L17.3536 13.8536C17.4473 13.9473 17.5745 14 17.7071 14L19.5 14C19.7761 14 20 14.2239 20 14.5V16.5C20 16.7761 19.7761 17 19.5 17H17.7071C17.5745 17 17.4473 17.0527 17.3536 17.1464L17.1464 17.3536C17.0527 17.4473 17 17.5745 17 17.7071V19.5C17 19.7761 16.7761 20 16.5 20H14.5C14.2239 20 14 19.7761 14 19.5V17.7071C14 17.5745 13.9473 17.4473 13.8536 17.3536L13.6464 17.1464C13.5527 17.0527 13.4255 17 13.2929 17H11.5C11.2239 17 11 16.7761 11 16.5V14.7071C11 14.5745 10.9473 14.4473 10.8536 14.3536L9.64645 13.1464C9.55268 13.0527 9.4255 13 9.29289 13H7.5C7.22386 13 7 12.7761 7 12.5V11.5C7 11.2239 6.77614 11 6.5 11H4.5C4.22386 11 4 11.2239 4 11.5V13.5C4 13.7761 3.77614 14 3.5 14H0.500001C0.223858 14 0 13.7761 0 13.5V6.5C0 6.22386 0.223858 6 0.5 6H3.5C3.77614 6 4 6.22386 4 6.5L4 8.5C4 8.77614 4.22386 9 4.5 9H6.5C6.77614 9 7 8.77614 7 8.5V7.5C7 7.22386 7.22386 7 7.5 7H9.29289C9.4255 7 9.55268 6.94732 9.64645 6.85355L10.8536 5.64645C10.9473 5.55268 11 5.4255 11 5.29289V3.5C11 3.22386 11.2239 3 11.5 3H13.2929C13.4255 3 13.5527 2.94732 13.6464 2.85355L13.8536 2.64645C13.9473 2.55268 14 2.4255 14 2.29289L14 0.5C14 0.223858 14.2239 0 14.5 0H16.5C16.7761 0 17 0.223858 17 0.5V2.29289C17 2.4255 17.0527 2.55268 17.1464 2.64645L17.3536 2.85355C17.4473 2.94732 17.5745 3 17.7071 3H19.5C19.7761 3 20 3.22386 20 3.5V5.5C20 5.77614 19.7761 6 19.5 6H17.7071C17.5745 6 17.4473 6.05268 17.3536 6.14645L17.1464 6.35355C17.0527 6.44732 17 6.5745 17 6.70711V8.5C17 8.77614 16.7761 9 16.5 9H14.5C14.2239 9 14 8.77614 14 8.5V6.70711C14 6.5745 13.9473 6.44732 13.8536 6.35355L13.6464 6.14645C13.5527 6.05268 13.4255 6 13.2929 6H11.7071C11.5745 6 11.4473 6.05268 11.3536 6.14645L10.1464 7.35355C10.0527 7.44732 10 7.5745 10 7.70711V12.2929C10 12.4255 10.0527 12.5527 10.1464 12.6464L11.3536 13.8536ZM16.6464 16.8536C16.5527 16.9473 16.4255 17 16.2929 17H14.7071C14.5745 17 14.4473 16.9473 14.3536 16.8536L14.1464 16.6464C14.0527 16.5527 14 16.4255 14 16.2929V14.7071C14 14.5745 14.0527 14.4473 14.1464 14.3536L14.3536 14.1464C14.4473 14.0527 14.5745 14 14.7071 14L16.2929 14C16.4255 14 16.5527 14.0527 16.6464 14.1464L16.8536 14.3536C16.9473 14.4473 17 14.5745 17 14.7071V16.2929C17 16.4255 16.9473 16.5527 16.8536 16.6464L16.6464 16.8536ZM14.1464 5.64645C14.0527 5.55268 14 5.4255 14 5.29289L14 3.70711C14 3.5745 14.0527 3.44732 14.1464 3.35355L14.3536 3.14645C14.4473 3.05268 14.5745 3 14.7071 3H16.2929C16.4255 3 16.5527 3.05268 16.6464 3.14645L16.8536 3.35355C16.9473 3.44732 17 3.5745 17 3.70711V5.29289C17 5.4255 16.9473 5.55268 16.8536 5.64645L16.6464 5.85355C16.5527 5.94732 16.4255 6 16.2929 6H14.7071C14.5745 6 14.4473 5.94732 14.3536 5.85355L14.1464 5.64645Z" fill="#D2D2D2"/>
</g>
<defs>
<clipPath id="clip0">
<rect width="20" height="20" fill="white" transform="matrix(1 0 0 -1 0 20)"/>
</clipPath>
</defs>
</svg>
