<svg width="20" height="20" viewBox="0 0 20 20" fill="none" xmlns="http://www.w3.org/2000/svg">
<path d="M1 16.5C1 16.7761 1.22386 17 1.5 17H3.5C3.77614 17 4 16.7761 4 16.5V5.5C4 5.22386 3.77614 5 3.5 5H1.5C1.22386 5 1 5.22386 1 5.5V16.5Z" fill="#D2D2D2"/>
<path d="M6 9.5C6 9.77614 6.22386 10 6.5 10H8.5C8.77614 10 9 9.77614 9 9.5V5.5C9 5.22386 8.77614 5 8.5 5H6.5C6.22386 5 6 5.22386 6 5.5V9.5Z" fill="#D2D2D2"/>
<path d="M9 16.5C9 16.7761 8.77614 17 8.5 17H6.5C6.22386 17 6 16.7761 6 16.5V12.5C6 12.2239 6.22386 12 6.5 12H8.5C8.77614 12 9 12.2239 9 12.5V16.5Z" fill="#D2D2D2"/>
<path d="M16 9.5C16 9.77614 16.2239 10 16.5 10H18.5C18.7761 10 19 9.77614 19 9.5V5.5C19 5.22386 18.7761 5 18.5 5H16.5C16.2239 5 16 5.22386 16 5.5V9.5Z" fill="#D2D2D2"/>
<path d="M19 16.5C19 16.7761 18.7761 17 18.5 17H16.5C16.2239 17 16 16.7761 16 16.5V12.5C16 12.2239 16.2239 12 16.5 12H18.5C18.7761 12 19 12.2239 19 12.5V16.5Z" fill="#D2D2D2"/>
<path d="M11 16.5C11 16.7761 11.2239 17 11.5 17H13.5C13.7761 17 14 16.7761 14 16.5V5.5C14 5.22386 13.7761 5 13.5 5H11.5C11.2239 5 11 5.22386 11 5.5V16.5Z" fill="#D2D2D2"/>
</svg>
