<svg width="20" height="20" viewBox="0 0 20 20" fill="none" xmlns="http://www.w3.org/2000/svg">
<path d="M13 0.5C13 0.223858 12.7761 0 12.5 0H7.5C7.22386 0 7 0.223858 7 0.5V2.29289C7 2.4255 6.94732 2.55268 6.85355 2.64645L6.64645 2.85355C6.55268 2.94732 6.4255 3 6.29289 3H4.5C4.22386 3 4 3.22386 4 3.5V5.29289C4 5.4255 3.94732 5.55268 3.85355 5.64645L3.64645 5.85355C3.55268 5.94732 3.4255 6 3.29289 6H0.5C0.223858 6 0 6.22386 0 6.5V12.5C0 12.7761 0.223858 13 0.5 13H3.5C3.77614 13 4 12.7761 4 12.5V6.70711C4 6.5745 4.05268 6.44732 4.14645 6.35355L4.35355 6.14645C4.44732 6.05268 4.5745 6 4.70711 6H6.5C6.77614 6 7 5.77614 7 5.5V3.70711C7 3.5745 7.05268 3.44732 7.14645 3.35355L7.35355 3.14645C7.44732 3.05268 7.5745 3 7.70711 3H12.2929C12.4255 3 12.5527 3.05268 12.6464 3.14645L12.8536 3.35355C12.9473 3.44732 13 3.5745 13 3.70711V5.5C13 5.77614 13.2239 6 13.5 6H15.2929C15.4255 6 15.5527 6.05268 15.6464 6.14645L15.8536 6.35355C15.9473 6.44732 16 6.5745 16 6.70711V12.2929C16 12.4255 15.9473 12.5527 15.8536 12.6464L13.6464 14.8536C13.5527 14.9473 13.4255 15 13.2929 15H10.5C10.2239 15 10 15.2239 10 15.5V17.5C10 17.7761 10.2239 18 10.5 18H13.5C13.7761 18 14 17.7761 14 17.5V15.7071C14 15.5745 14.0527 15.4473 14.1464 15.3536L16.3536 13.1464C16.4473 13.0527 16.5745 13 16.7071 13H19.5C19.7761 13 20 12.7761 20 12.5V6.5C20 6.22386 19.7761 6 19.5 6H16.7071C16.5745 6 16.4473 5.94732 16.3536 5.85355L16.1464 5.64645C16.0527 5.55268 16 5.4255 16 5.29289V3.5C16 3.22386 15.7761 3 15.5 3H13.7071C13.5745 3 13.4473 2.94732 13.3536 2.85355L13.1464 2.64645C13.0527 2.55268 13 2.4255 13 2.29289V0.5Z" fill="#D2D2D2"/>
</svg>
