<svg width="20" height="20" viewBox="0 0 20 20" fill="none" xmlns="http://www.w3.org/2000/svg">
<path d="M7 12.7071C7 12.5745 6.94732 12.4473 6.85355 12.3536L6.64645 12.1464C6.55268 12.0527 6.4255 12 6.29289 12H4.5C4.22386 12 4 11.7761 4 11.5V9.5C4 9.22386 4.22386 9 4.5 9H6.5C6.77614 9 7 9.22386 7 9.5V11.2929C7 11.4255 7.05268 11.5527 7.14645 11.6464L7.35355 11.8536C7.44732 11.9473 7.5745 12 7.70711 12H9.29289C9.4255 12 9.55268 11.9473 9.64645 11.8536L9.85355 11.6464C9.94732 11.5527 10 11.4255 10 11.2929V9.5C10 9.22386 10.2239 9 10.5 9H12.2929C12.4255 9 12.5527 8.94732 12.6464 8.85355L12.8536 8.64645C12.9473 8.55268 13 8.4255 13 8.29289V6.5C13 6.22386 13.2239 6 13.5 6H15.5C15.7761 6 16 6.22386 16 6.5V8.5C16 8.77614 15.7761 9 15.5 9H13.7071C13.5745 9 13.4473 9.05268 13.3536 9.14645L13.1464 9.35355C13.0527 9.44732 13 9.5745 13 9.70711V11.5C13 11.7761 12.7761 12 12.5 12H10.7071C10.5745 12 10.4473 12.0527 10.3536 12.1464L10.1464 12.3536C10.0527 12.4473 10 12.5745 10 12.7071V14.5C10 14.7761 9.77614 15 9.5 15H7.5C7.22386 15 7 14.7761 7 14.5V12.7071Z" fill="#D2D2D2"/>
<path fill-rule="evenodd" clip-rule="evenodd" d="M3 0.5C3 0.223858 3.22386 0 3.5 0H16.5C16.7761 0 17 0.223858 17 0.5V2.29289C17 2.4255 17.0527 2.55268 17.1464 2.64645L17.3536 2.85355C17.4473 2.94732 17.5745 3 17.7071 3H19.5C19.7761 3 20 3.22386 20 3.5V16.5C20 16.7761 19.7761 17 19.5 17H17.7071C17.5745 17 17.4473 17.0527 17.3536 17.1464L17.1464 17.3536C17.0527 17.4473 17 17.5745 17 17.7071V19.5C17 19.7761 16.7761 20 16.5 20H3.5C3.22386 20 3 19.7761 3 19.5V17.7071C3 17.5745 2.94732 17.4473 2.85355 17.3536L2.64645 17.1464C2.55268 17.0527 2.4255 17 2.29289 17H0.5C0.223858 17 0 16.7761 0 16.5V3.5C0 3.22386 0.223858 3 0.5 3H2.29289C2.4255 3 2.55268 2.94732 2.64645 2.85355L2.85355 2.64645C2.94732 2.55268 3 2.4255 3 2.29289V0.5ZM3.70711 17C3.5745 17 3.44732 16.9473 3.35355 16.8536L3.14645 16.6464C3.05268 16.5527 3 16.4255 3 16.2929L3 3.70711C3 3.5745 3.05268 3.44732 3.14645 3.35355L3.35355 3.14645C3.44732 3.05268 3.5745 3 3.70711 3H16.2929C16.4255 3 16.5527 3.05268 16.6464 3.14645L16.8536 3.35355C16.9473 3.44732 17 3.5745 17 3.70711V16.2929C17 16.4255 16.9473 16.5527 16.8536 16.6464L16.6464 16.8536C16.5527 16.9473 16.4255 17 16.2929 17H3.70711Z" fill="#D2D2D2"/>
</svg>
