<svg width="20" height="20" viewBox="0 0 20 20" fill="none" xmlns="http://www.w3.org/2000/svg">
<path d="M2.20008 14.4009C1.93341 14.2009 1.93341 13.8009 2.20008 13.6009L6.86675 10.1009C7.19637 9.85369 7.66675 10.0889 7.66675 10.5009V12.0009C7.66675 12.2771 7.89061 12.5009 8.16675 12.5009H17.6667C17.9429 12.5009 18.1667 12.7248 18.1667 13.0009V15.0009C18.1667 15.2771 17.9429 15.5009 17.6667 15.5009H8.16675C7.89061 15.5009 7.66675 15.7248 7.66675 16.0009V17.5009C7.66675 17.9129 7.19637 18.1481 6.86675 17.9009L2.20008 14.4009Z" fill="#D2D2D2"/>
<path d="M17.9667 6.40091C18.2333 6.20091 18.2333 5.80091 17.9667 5.60091L13.3 2.10091C12.9704 1.85369 12.5 2.08889 12.5 2.50091V4.00094C12.5 4.27708 12.2761 4.50094 12 4.50094H2.5C2.22386 4.50094 2 4.7248 2 5.00094V7.00094C2 7.27708 2.22386 7.50094 2.5 7.50094H12C12.2761 7.50094 12.5 7.7248 12.5 8.00094V9.50091C12.5 9.91293 12.9704 10.1481 13.3 9.90091L17.9667 6.40091Z" fill="#D2D2D2"/>
</svg>
