<svg width="20" height="20" viewBox="0 0 20 20" fill="none" xmlns="http://www.w3.org/2000/svg">
<path fill-rule="evenodd" clip-rule="evenodd" d="M16.5 0C16.7761 0 17 0.223858 17 0.5V2.29289C17 2.4255 17.0527 2.55268 17.1464 2.64645L17.3536 2.85355C17.4473 2.94732 17.5745 3 17.7071 3H19.5C19.7761 3 20 3.22386 20 3.5V16.5C20 16.7761 19.7761 17 19.5 17H17.7071C17.5745 17 17.4473 17.0527 17.3536 17.1464L17.1464 17.3536C17.0527 17.4473 17 17.5745 17 17.7071V19.5C17 19.7761 16.7761 20 16.5 20H3.5C3.22386 20 3 19.7761 3 19.5V17.7071C3 17.5745 2.94732 17.4473 2.85355 17.3536L2.64645 17.1464C2.55268 17.0527 2.4255 17 2.29289 17H0.5C0.223858 17 0 16.7761 0 16.5V3.5C0 3.22386 0.223858 3 0.5 3H2.29289C2.4255 3 2.55268 2.94732 2.64645 2.85355L2.85355 2.64645C2.94732 2.55268 3 2.4255 3 2.29289V0.5C3 0.223858 3.22386 0 3.5 0H16.5ZM17 16.2929C17 16.4255 16.9473 16.5527 16.8536 16.6464L16.6464 16.8536C16.5527 16.9473 16.4255 17 16.2929 17H3.70711C3.5745 17 3.44732 16.9473 3.35355 16.8536L3.14645 16.6464C3.05268 16.5527 3 16.4255 3 16.2929V10.6429L7.70495 13.3314C7.88303 13.4332 8.1052 13.4158 8.26536 13.2877L12.7502 9.69985C12.9025 9.57802 13.1117 9.55585 13.2861 9.64307L17 11.5V16.2929ZM17 8.5V3.70711C17 3.5745 16.9473 3.44732 16.8536 3.35355L16.6464 3.14645C16.5527 3.05268 16.4255 3 16.2929 3H3.70711C3.5745 3 3.44732 3.05268 3.35355 3.14645L3.14645 3.35355C3.05268 3.44732 3 3.5745 3 3.70711V7.64286L7.70495 10.3314C7.88303 10.4332 8.1052 10.4158 8.26536 10.2877L12.7502 6.69985C12.9025 6.57802 13.1117 6.55585 13.2861 6.64307L17 8.5Z" fill="#D2D2D2"/>
</svg>
