<svg width="20" height="20" viewBox="0 0 20 20" fill="none" xmlns="http://www.w3.org/2000/svg">
<path d="M8.5 0C8.77614 0 9 0.223858 9 0.5V2.5C9 2.77614 8.77614 3 8.5 3H6.70711C6.5745 3 6.44732 3.05268 6.35355 3.14645L6.14645 3.35355C6.05268 3.44732 6 3.5745 6 3.70711L6 5.5C6 5.77614 6.22386 6 6.5 6H8.5C8.77614 6 9 6.22386 9 6.5V8.5C9 8.77614 8.77614 9 8.5 9H6.5C6.22386 9 6 9.22386 6 9.5V10.5C6 10.7761 6.22386 11 6.5 11H8.5C8.77614 11 9 11.2239 9 11.5V13.5C9 13.7761 8.77614 14 8.5 14H6.5C6.22386 14 6 14.2239 6 14.5L6 16.2929C6 16.4255 6.05268 16.5527 6.14645 16.6464L6.35355 16.8536C6.44732 16.9473 6.5745 17 6.70711 17H8.5C8.77614 17 9 17.2239 9 17.5V19.5C9 19.7761 8.77614 20 8.5 20H6.5C6.22386 20 6 19.7761 6 19.5L6 17.7071C6 17.5745 5.94732 17.4473 5.85355 17.3536L5.64645 17.1464C5.55268 17.0527 5.4255 17 5.29289 17H3.5C3.22386 17 3 16.7761 3 16.5L3 14.5C3 14.2239 2.77614 14 2.5 14H0.5C0.223858 14 0 13.7761 0 13.5V6.5C0 6.22386 0.223858 6 0.5 6H2.5C2.77614 6 3 5.77614 3 5.5L3 3.5C3 3.22386 3.22386 3 3.5 3H5.29289C5.4255 3 5.55268 2.94732 5.64645 2.85355L5.85355 2.64645C5.94732 2.55268 6 2.4255 6 2.29289V0.5C6 0.223858 6.22386 0 6.5 0H8.5Z" fill="#D2D2D2"/>
<path fill-rule="evenodd" clip-rule="evenodd" d="M11.5 3H13.2929C13.4255 3 13.5527 3.05268 13.6464 3.14645L13.8536 3.35355C13.9473 3.44732 14 3.5745 14 3.70711V5.29289C14 5.4255 13.9473 5.55268 13.8536 5.64645L13.6464 5.85355C13.5527 5.94732 13.4255 6 13.2929 6H11.5C11.2239 6 11 6.22386 11 6.5V8.5C11 8.77614 11.2239 9 11.5 9H13.5C13.7761 9 14 8.77614 14 8.5V6.70711C14 6.5745 14.0527 6.44732 14.1464 6.35355L14.3536 6.14645C14.4473 6.05268 14.5745 6 14.7071 6H16.2929C16.4255 6 16.5527 6.05268 16.6464 6.14645L16.8536 6.35355C16.9473 6.44732 17 6.5745 17 6.70711V8.5C17 8.77614 17.2239 9 17.5 9H19.5C19.7761 9 20 8.77614 20 8.5V6.5C20 6.22386 19.7761 6 19.5 6H17.7071C17.5745 6 17.4473 5.94732 17.3536 5.85355L17.1464 5.64645C17.0527 5.55268 17 5.4255 17 5.29289V3.5C17 3.22386 16.7761 3 16.5 3L14.7071 3C14.5745 3 14.4473 2.94732 14.3536 2.85355L14.1464 2.64645C14.0527 2.55268 14 2.4255 14 2.29289V0.5C14 0.223858 13.7761 0 13.5 0H11.5C11.2239 0 11 0.223858 11 0.5V2.5C11 2.77614 11.2239 3 11.5 3ZM13.4 1.1C13.4 0.823858 13.1761 0.6 12.9 0.6L12.1 0.6C11.8239 0.6 11.6 0.823858 11.6 1.1V1.9C11.6 2.17614 11.8239 2.4 12.1 2.4H12.9845C13.089 2.4 13.1761 2.32392 13.25 2.25C13.3239 2.17608 13.4 2.08901 13.4 1.98447V1.1ZM14.75 5.25C14.8239 5.32392 14.911 5.4 15.0155 5.4H15.9845C16.089 5.4 16.1761 5.32392 16.25 5.25C16.3239 5.17608 16.4 5.08901 16.4 4.98447V4.1C16.4 3.82386 16.1761 3.6 15.9 3.6H15.0155C14.911 3.6 14.8239 3.67608 14.75 3.75C14.6761 3.82392 14.6 3.91099 14.6 4.01553V4.98447C14.6 5.08901 14.6761 5.17607 14.75 5.25ZM11.6 7.1C11.6 6.82386 11.8239 6.6 12.1 6.6H12.9845C13.089 6.6 13.1761 6.67608 13.25 6.75C13.3239 6.82393 13.4 6.91099 13.4 7.01553V7.9C13.4 8.17614 13.1761 8.4 12.9 8.4H12.1C11.8239 8.4 11.6 8.17614 11.6 7.9V7.1ZM17.6 7.01553C17.6 6.91099 17.6761 6.82392 17.75 6.75C17.8239 6.67608 17.911 6.6 18.0155 6.6H18.9C19.1761 6.6 19.4 6.82386 19.4 7.1V7.9C19.4 8.17614 19.1761 8.4 18.9 8.4H18.1C17.8239 8.4 17.6 8.17614 17.6 7.9V7.01553Z" fill="#D2D2D2"/>
<path fill-rule="evenodd" clip-rule="evenodd" d="M14.5 8.5C14.2239 8.5 14 8.72386 14 9V11C14 11.2761 14.2239 11.5 14.5 11.5H16.5C16.7761 11.5 17 11.2761 17 11V9C17 8.72386 16.7761 8.5 16.5 8.5H14.5ZM16.4 9.6C16.4 9.32386 16.1761 9.1 15.9 9.1L15.1 9.1C14.8239 9.1 14.6 9.32386 14.6 9.6V10.4C14.6 10.6761 14.8239 10.9 15.1 10.9H15.9C16.1761 10.9 16.4 10.6761 16.4 10.4V9.6Z" fill="#D2D2D2"/>
<path fill-rule="evenodd" clip-rule="evenodd" d="M14.3536 13.8536C14.4473 13.9473 14.5745 14 14.7071 14H16.2929C16.4255 14 16.5527 13.9473 16.6464 13.8536L16.8536 13.6464C16.9473 13.5527 17 13.4255 17 13.2929V11.5C17 11.2239 17.2239 11 17.5 11H19.5C19.7761 11 20 11.2239 20 11.5V13.5C20 13.7761 19.7761 14 19.5 14H17.7071C17.5745 14 17.4473 14.0527 17.3536 14.1464L17.1464 14.3536C17.0527 14.4473 17 14.5745 17 14.7071V16.5C17 16.7761 16.7761 17 16.5 17H14.7071C14.5745 17 14.4473 17.0527 14.3536 17.1464L14.1464 17.3536C14.0527 17.4473 14 17.5745 14 17.7071V19.5C14 19.7761 13.7761 20 13.5 20H11.5C11.2239 20 11 19.7761 11 19.5V17.5C11 17.2239 11.2239 17 11.5 17H13.2929C13.4255 17 13.5527 16.9473 13.6464 16.8536L13.8536 16.6464C13.9473 16.5527 14 16.4255 14 16.2929V14.7071C14 14.5745 13.9473 14.4473 13.8536 14.3536L13.6464 14.1464C13.5527 14.0527 13.4255 14 13.2929 14H11.5C11.2239 14 11 13.7761 11 13.5V11.5C11 11.2239 11.2239 11 11.5 11H13.5C13.7761 11 14 11.2239 14 11.5V13.2929C14 13.4255 14.0527 13.5527 14.1464 13.6464L14.3536 13.8536ZM14.75 14.75C14.8239 14.6761 14.911 14.6 15.0155 14.6L15.9845 14.6C16.089 14.6 16.1761 14.6761 16.25 14.75C16.3239 14.8239 16.4 14.911 16.4 15.0155V15.9C16.4 16.1761 16.1761 16.4 15.9 16.4H15.0155C14.911 16.4 14.8239 16.3239 14.75 16.25C14.6761 16.1761 14.6 16.089 14.6 15.9845V15.0155C14.6 14.911 14.6761 14.8239 14.75 14.75ZM13.25 13.25C13.3239 13.1761 13.4 13.089 13.4 12.9845V12.1C13.4 11.8239 13.1761 11.6 12.9 11.6L12.1 11.6C11.8239 11.6 11.6 11.8239 11.6 12.1V12.9C11.6 13.1761 11.8239 13.4 12.1 13.4H12.9845C13.089 13.4 13.1761 13.3239 13.25 13.25ZM13.25 17.75C13.1761 17.6761 13.089 17.6 12.9845 17.6H12.1C11.8239 17.6 11.6 17.8239 11.6 18.1V18.9C11.6 19.1761 11.8239 19.4 12.1 19.4H12.9C13.1761 19.4 13.4 19.1761 13.4 18.9V18.0155C13.4 17.911 13.3239 17.8239 13.25 17.75ZM17.75 13.25C17.8239 13.3239 17.911 13.4 18.0155 13.4H18.9C19.1761 13.4 19.4 13.1761 19.4 12.9V12.1C19.4 11.8239 19.1761 11.6 18.9 11.6L18.1 11.6C17.8239 11.6 17.6 11.8239 17.6 12.1V12.9845C17.6 13.089 17.6761 13.1761 17.75 13.25Z" fill="#D2D2D2"/>
</svg>
