<svg width="16" height="16" viewBox="0 0 16 16" fill="none" xmlns="http://www.w3.org/2000/svg">
<path fill-rule="evenodd" clip-rule="evenodd" d="M14 8C14 11.3137 11.3137 14 7.99998 14C4.68628 14 1.99998 11.3137 1.99998 8C1.99998 4.68629 4.68628 2 7.99998 2C11.3137 2 14 4.68629 14 8ZM9.49998 6V3H6.49998V6H9.49998ZM9.49998 13V6H6.49998V13H9.49998Z" fill="black"/>
<path d="M9.49998 6V3H6.49998V6M9.49998 6H6.49998M9.49998 6V13H6.49998V6M7.99998 14C11.3137 14 14 11.3137 14 8C14 4.68629 11.3137 2 7.99998 2C4.68628 2 1.99998 4.68629 1.99998 8C1.99998 11.3137 4.68628 14 7.99998 14Z" stroke="black" stroke-width="1.5"/>
</svg>
