<svg width="24" height="24" viewBox="0 0 24 24" fill="none" xmlns="http://www.w3.org/2000/svg">
<path d="M18.9996 12.5C18.9996 14.4329 15.8657 15.9999 11.9997 15.9999C8.13393 15.9999 5.00006 14.433 4.99982 12.5002M18.9996 12.5L18.9998 15.5C18.9998 17.433 15.8659 19 11.9999 19C8.13397 19 5.00001 17.433 5.00001 15.5L4.99982 12.5002M18.9996 12.5V9.49995M4.99982 12.5002V9.49995M18.9996 9.49995C18.9996 11.4329 15.8657 12.9999 11.9997 12.9999C8.13378 12.9999 4.99982 11.4329 4.99982 9.49995M18.9996 9.49995C18.9996 7.56698 15.8657 6 11.9997 6C8.13378 6 4.99982 7.56698 4.99982 9.49995" stroke="black" stroke-width="1.5"/>
</svg>
