<svg width="24" height="24" viewBox="0 0 24 24" fill="none" xmlns="http://www.w3.org/2000/svg">
<path fill-rule="evenodd" clip-rule="evenodd" d="M12 19.0005C15.866 19.0005 19 15.8665 19 12.0005C19 8.1345 15.866 5.00049 12 5.00049C8.13401 5.00049 5 8.1345 5 12.0005C5 15.8665 8.13401 19.0005 12 19.0005ZM11.5 10C11.5 9.67772 11.6864 9.5 12 9.5C12.323 9.5 12.5 9.6863 12.5 10C12.5 10.2224 12.4519 10.3314 12.4013 10.4158C12.3239 10.5447 12.209 10.6696 11.9393 10.9393L11.4308 11.4479C11.3601 11.5182 11.082 11.7951 10.8141 12.1627C10.3276 12.8301 10.1276 13.6673 10.1276 14.5V14.75H13.1303L13.1276 14.5C13.1276 14.5 13.1118 14.1035 13.2385 13.9298C13.3651 13.7561 13.5047 13.6166 13.556 13.5653L14.0947 13.0266C14.616 12.5062 15.5 11.6236 15.5 10C15.5 8.71112 14.9294 7.76079 14.1265 7.1827C13.4 6.65967 12.5734 6.5 12 6.5C10.7111 6.5 9.76079 7.07063 9.1827 7.87354C8.65967 8.59997 8.5 9.42663 8.5 10V10.75H11.5V10ZM10.1249 15V18H13.1249V15H10.1249Z" fill="black" stroke="black" stroke-width="1.5"/>
</svg>
