<svg width="24" height="24" viewBox="0 0 24 24" fill="none" xmlns="http://www.w3.org/2000/svg">
<g clip-path="url(#clip0_1535_578)">
<path d="M12.0001 12L17.1964 15L12.0001 24C18.6276 24 24.0001 18.6274 24.0001 12C24.0001 9.81365 23.4125 7.76565 22.3908 6H12L12.0001 12Z" fill="url(#paint0_linear_1535_578)"/>
<path d="M11.9999 0C7.55832 0 3.68336 2.41476 1.6084 6.00145L6.80362 15L11.9999 12.0001V6.00005H22.3906C20.3153 2.41423 16.4409 0 11.9999 0Z" fill="url(#paint1_linear_1535_578)"/>
<path d="M7.08665e-05 12.0001C7.08665e-05 18.6275 5.37245 24 12 24L17.1963 15.0001L12 12.0001L6.80375 15.0001L1.60856 6.00146C0.58743 7.76661 0 9.81391 0 11.9999" fill="url(#paint2_linear_1535_578)"/>
<path d="M18.0001 12C18.0001 15.3137 15.3138 18.0001 12.0001 18.0001C8.6864 18.0001 6 15.3137 6 12C6 8.68635 8.6864 6 12.0001 6C15.3138 6 18.0001 8.68635 18.0001 12Z" fill="white"/>
<path d="M16.8751 12C16.8751 14.6924 14.6925 16.8751 12.0001 16.8751C9.3077 16.8751 7.125 14.6924 7.125 12C7.125 9.30765 9.3077 7.125 12.0001 7.125C14.6925 7.125 16.8751 9.30765 16.8751 12Z" fill="url(#paint3_linear_1535_578)"/>
</g>
<defs>
<linearGradient id="paint0_linear_1535_578" x1="18.0257" y1="5.97525" x2="18.0001" y2="24" gradientUnits="userSpaceOnUse">
<stop stop-color="#AFCCFB"/>
<stop offset="1" stop-color="#8BB5F8"/>
</linearGradient>
<linearGradient id="paint1_linear_1535_578" x1="10.2596" y1="0.182828" x2="11.2514" y2="16.3088" gradientUnits="userSpaceOnUse">
<stop stop-color="#1972E7"/>
<stop offset="1" stop-color="#1969D5"/>
</linearGradient>
<linearGradient id="paint2_linear_1535_578" x1="8.59815" y1="6.00146" x2="8.59815" y2="24" gradientUnits="userSpaceOnUse">
<stop stop-color="#659CF6"/>
<stop offset="1" stop-color="#4285F4"/>
</linearGradient>
<linearGradient id="paint3_linear_1535_578" x1="11.9503" y1="7.14355" x2="12.0001" y2="16.8751" gradientUnits="userSpaceOnUse">
<stop stop-color="#3680F0"/>
<stop offset="1" stop-color="#2678EC"/>
</linearGradient>
<clipPath id="clip0_1535_578">
<rect width="24" height="24" fill="white"/>
</clipPath>
</defs>
</svg>
