<svg width="172" height="36" viewBox="0 0 172 36" fill="none" xmlns="http://www.w3.org/2000/svg">
<g clip-path="url(#clip0_13574_59542)">
<path d="M43.001 26.7746V10.3086H56.3688V26.7746H53.109V13.4569H46.2663V26.7746H43.001Z" fill="#EB2316"/>
<path d="M68.9454 14.7773V26.7744H65.9252V22.6119C65.3401 22.7178 64.7216 22.8571 63.9694 22.8794L61.4674 26.7744H58.0684L61.0551 22.4559C59.4893 21.7928 58.6646 20.6561 58.6646 18.8729C58.6646 16.4267 60.4477 14.7773 63.9805 14.7773H68.9454ZM65.9252 17.2849H64.0752C62.5317 17.2849 61.7572 17.8365 61.7572 18.9119C61.7572 19.9874 62.5094 20.5 64.0084 20.5C64.6715 20.5 65.3123 20.4555 65.9252 20.344V17.2849Z" fill="#EB2316"/>
<path d="M89.373 15.7926C90.298 16.6953 90.7605 17.9267 90.7605 19.5371V26.781H87.6512V20.1111C87.6512 18.2834 86.6816 17.3138 85.2495 17.3138C83.6837 17.3138 82.6027 18.4394 82.6027 20.2002V26.781H79.4934V20.1334C79.4934 18.3502 78.5461 17.3138 77.0639 17.3138C75.5817 17.3138 74.4394 18.4394 74.4394 20.2169V26.7755H71.3301V14.7784H74.3725V16.4947C75.0579 15.2409 76.4677 14.4274 78.0335 14.4497C79.5324 14.4497 80.9255 15.1741 81.5607 16.5615C82.4411 15.2409 84.0738 14.4497 85.8625 14.4497C87.2945 14.4497 88.4647 14.8899 89.373 15.7926Z" fill="#EB2316"/>
<path d="M117.502 16.2984C118.628 17.5076 119.179 19.0065 119.179 20.7673C119.179 22.5282 118.605 24.0271 117.48 25.2363C116.354 26.4454 114.945 27.064 113.245 27.064C111.768 27.064 110.403 26.4176 109.473 25.2808V31.7112H106.363V14.7827H109.45V16.3541C110.437 15.1227 111.746 14.4707 113.267 14.4707C114.967 14.4707 116.377 15.0892 117.502 16.2984ZM115.117 23.2303C115.736 22.5727 116.042 21.7536 116.042 20.7896C116.042 19.8256 115.736 19.0065 115.117 18.3434C114.499 17.6859 113.707 17.3516 112.71 17.3516C111.713 17.3516 110.944 17.6803 110.325 18.3434C109.707 19.0009 109.4 19.8201 109.4 20.7896C109.4 21.7592 109.707 22.5727 110.325 23.2303C110.944 23.8878 111.735 24.2221 112.71 24.2221C113.685 24.2221 114.499 23.8934 115.117 23.2303Z" fill="#EB2316"/>
<path d="M122.11 16.2992C123.325 15.0677 124.868 14.4492 126.74 14.4492C128.613 14.4492 130.162 15.0677 131.371 16.2992C132.586 17.5084 133.182 19.0073 133.182 20.7681C133.182 22.529 132.586 24.0502 131.371 25.2594C130.156 26.4685 128.613 27.0871 126.74 27.0871C124.868 27.0871 123.319 26.4685 122.11 25.2594C120.895 24.0502 120.299 22.5513 120.299 20.7681C120.299 18.985 120.895 17.5084 122.11 16.2992ZM126.74 24.2006C127.688 24.2006 128.462 23.8719 129.103 23.2088C129.744 22.5234 130.073 21.7098 130.073 20.7681C130.073 19.8264 129.744 19.0073 129.103 18.3442C128.462 17.6867 127.693 17.3524 126.74 17.3524C125.787 17.3524 124.996 17.6811 124.355 18.3442C123.715 19.0017 123.408 19.8209 123.408 20.7681C123.408 21.7154 123.715 22.529 124.355 23.2088C124.996 23.8663 125.787 24.2006 126.74 24.2006Z" fill="#EB2316"/>
<path d="M141.942 14.7771H145.051V26.7741H141.942V22.7342C141.034 23.2524 140.047 23.5143 139.273 23.5143C137.841 23.5143 136.782 23.2469 135.829 22.6116C134.882 21.9262 134.353 20.6502 134.353 18.8058V14.7771H137.44V18.5829C137.44 19.9927 138.17 20.6948 139.624 20.6948C140.437 20.6948 141.134 20.5833 141.942 20.2601V14.7715V14.7771Z" fill="#EB2316"/>
<path d="M155.337 26.7755L150.55 21.2367V26.7755H147.436V14.7617H150.55V19.5204L154.914 14.7784H158.842L153.481 20.334L159.154 26.7755H155.337Z" fill="#EB2316"/>
<path d="M168.276 14.7769H171.235V26.7739H168.276V25.1858C167.246 26.4396 165.958 27.0581 164.437 27.0581C162.715 27.0581 161.283 26.4619 160.158 25.2527C159.032 24.0435 158.48 22.5223 158.48 20.7169C158.48 18.9115 159.054 17.4126 160.18 16.248C161.306 15.0611 162.738 14.4648 164.437 14.4648C165.936 14.4648 167.257 15.1447 168.276 16.3483V14.7769ZM167.351 18.3208C166.711 17.6354 165.919 17.3067 164.944 17.3067C163.969 17.3067 163.161 17.6354 162.52 18.3208C161.902 19.0062 161.595 19.8198 161.595 20.767C161.595 21.7143 161.902 22.5502 162.543 23.23C163.183 23.9098 163.975 24.2441 164.944 24.2441C165.914 24.2441 166.711 23.9154 167.351 23.23C167.992 22.5446 168.321 21.731 168.321 20.767C168.321 19.8031 167.992 19.0062 167.351 18.3208Z" fill="#EB2316"/>
<path d="M104.552 21.8646H95.5302C95.9704 23.5586 97.1405 24.4167 99.0407 24.4167C100.345 24.4167 101.793 23.9319 102.891 23.0571L104.145 25.0241C102.629 26.445 100.896 27.0357 98.9125 27.0357C96.7951 27.0357 95.1847 26.4171 94.0591 25.208C92.9335 23.9988 92.3818 22.4999 92.3818 20.7613C92.3818 18.9336 92.9558 17.4403 94.1259 16.2478C95.2961 15.0609 96.7951 14.4647 98.6506 14.4647C100.395 14.4647 101.849 15.0163 102.975 16.0918C104.1 17.1672 104.674 18.6216 104.674 20.4938C104.674 20.9118 104.63 21.3743 104.563 21.859M96.444 9.95117C97.4804 9.95117 98.294 10.7647 98.294 11.7566C98.294 12.832 97.5027 13.6288 96.444 13.6288C95.3853 13.6288 94.5884 12.8376 94.5884 11.7566C94.5884 10.7647 95.4076 9.95117 96.444 9.95117ZM95.5413 19.5521H101.654C101.37 17.9863 100.244 17.0446 98.6562 17.0446C97.0681 17.0446 95.9202 17.9919 95.5469 19.5521M99.3861 11.7566C99.3861 10.7201 100.205 9.95117 101.264 9.95117C102.323 9.95117 103.092 10.7647 103.092 11.7566C103.092 12.832 102.3 13.6288 101.264 13.6288C100.228 13.6288 99.3861 12.8376 99.3861 11.7566Z" fill="#EB2316"/>
<path d="M28.8809 3.90028C26.4068 10.3307 19.8372 9.50039 15.2011 9.65641L14.0755 14.0418C19.7926 9.38337 27.3486 14.0028 26.5406 21.0349C25.9945 25.7713 22.6177 28.8695 19.0459 29.7611C15.1565 30.7306 10.8436 29.2818 8.91001 25.3144C8.70384 24.8965 8.34722 24.0551 8.21348 23.6093L12.3202 22.5561C12.3927 22.7902 12.5153 23.0186 12.6434 23.2304C15.3905 27.6603 20.9572 25.4426 21.5869 20.851C22.2277 16.1759 15.6636 13.6851 12.6768 19.1515L9.03817 17.6024L8.97688 17.5746L10.3309 12.1361C10.5483 11.1665 11.1946 8.64226 11.2671 8.39708C11.3841 8.01817 11.4064 7.89558 11.5401 7.5501C13.8693 1.41506 18.4775 0.796543 22.5731 0.796543C22.7347 0.796543 22.8963 0.796543 23.0579 0.796543C21.3863 0.278325 19.6087 -0.00585938 17.7699 -0.00585938C7.95716 -0.000287116 0 7.95688 0 17.7752C0 27.5935 7.95716 35.5506 17.7754 35.5506C27.5937 35.5506 35.5509 27.5935 35.5509 17.7752C35.5509 12.1639 32.9431 7.16005 28.8809 3.90028Z" fill="#EB2316"/>
<path d="M27.2596 2.69727C26.5687 4.83701 25.3707 6.1855 23.5095 6.9099C21.576 7.66215 19.2245 7.68444 16.9454 7.70115C15.7251 7.7123 14.5494 7.72344 13.4795 7.8516C15.4131 3.18762 18.879 2.72513 22.5734 2.72513C23.086 2.72513 23.6043 2.73627 24.1002 2.74742C24.5961 2.75856 25.0698 2.76413 25.5378 2.76413C26.2121 2.76413 26.7637 2.74184 27.2541 2.69727" fill="#008F32"/>
</g>
<defs>
<clipPath id="clip0_13574_59542">
<rect width="171.625" height="35.6623" fill="white"/>
</clipPath>
</defs>
</svg>
