<svg width="172" height="37" viewBox="0 0 172 37" fill="none" xmlns="http://www.w3.org/2000/svg">
<path d="M3.22593 3.22265C1.1432 5.30209 0 8.06154 0 10.9885V25.3869L0.988805 25.2358C3.41646 24.8646 5.29223 22.8574 5.55174 20.3674L5.5846 10.9918C5.5846 9.55952 6.14962 8.20279 7.17456 7.17457C8.1995 6.14963 9.55623 5.5846 10.9885 5.5846H36.3656V7.06018e-06H10.9885C8.06481 -0.003278 5.30537 1.13992 3.22593 3.22265Z" fill="#E30613"/>
<path d="M30.7908 16.4054L30.7843 25.3046C30.7843 26.7402 30.2193 28.0936 29.1943 29.1186C28.1694 30.1435 26.8159 30.7085 25.3804 30.7085H0V36.2931H25.3804C28.3074 36.2931 31.0668 35.1466 33.1462 33.0672C35.2289 30.9878 36.3721 28.2316 36.3721 25.3046V10.9062L35.3833 11.0573C32.7651 11.4548 30.7908 13.7544 30.7908 16.4054Z" fill="#E30613"/>
<path d="M25.8745 25.4026V11.1914H21.7254L18.1874 15.761L14.6461 11.1914H10.4971V25.4026H14.8793V18.182L18.1874 22.1339L21.4954 18.182V25.4026H25.8745Z" fill="#E30613"/>
<path d="M95.5859 28.2588H100.898V12.7763H108.322V8.0918H95.5859V28.2588Z" fill="#E30613"/>
<path d="M124.34 15.6211H116.452V8.0918H111.144V28.2588H116.452V20.3615H124.34V28.2588H129.648V8.0918H124.34V15.6211Z" fill="#E30613"/>
<path d="M154.254 12.7763H160.456V28.2588H165.768V12.7763H172V8.0918H154.254V12.7763Z" fill="#E30613"/>
<path d="M138.869 19.4672V8.09766H133.557V28.258H137.998L146.447 16.7669V28.258H151.759V8.09766H147.176L138.869 19.4672Z" fill="#E30613"/>
<path d="M59.7715 15.0266L54.4004 8.0918H49.1641V28.2588H54.4727V16.2749L59.7715 22.6052L65.0736 16.2749V28.2588H70.3822V8.0918H65.1459L59.7715 15.0266Z" fill="#E30613"/>
<path d="M80.5211 8.09375L72.3545 28.2607H77.6993L78.8031 25.4323H87.065L88.1688 28.2607H93.599L85.4323 8.09375H80.5211ZM80.4653 21.1683L82.9324 14.8413L85.3994 21.1683H80.4653Z" fill="#E30613"/>
</svg>
