<svg width="172" height="46" viewBox="0 0 172 46" fill="none" xmlns="http://www.w3.org/2000/svg">
<path d="M5.43945 33.3496V35.8677C5.43945 38.362 7.22249 39.7929 9.3747 39.7929H10.8592V33.3496H5.43945Z" fill="#FF9F6B"/>
<path d="M36.8233 23.2999C36.8233 20.7147 36.3128 18.3509 35.382 16.2757C34.1213 15.4258 32.7192 14.7498 31.2111 14.2676C31.329 15.1017 31.3917 15.9673 31.3917 16.8567C31.3917 26.6718 24.0947 33.3562 14.5943 33.3562H10.8594V39.7995H20.0298C29.5263 39.7956 36.8233 33.1112 36.8233 23.2999Z" fill="#FF7D11"/>
<path d="M9.37466 6.95695H20.0297C23.7882 6.95695 27.201 7.98866 29.9541 9.83468C27.3778 4.07132 21.581 0.513672 14.5981 0.513672H3.93915C1.78694 0.513672 0.00390625 2.1067 0.00390625 4.59704V29.4254C0.00390625 31.9197 1.78694 33.3506 3.93915 33.3506H5.43549V11.0403C5.43941 8.54997 7.22245 6.95695 9.37466 6.95695Z" fill="#FD886D"/>
<path d="M10.8592 17.4717C10.8592 14.9774 12.6423 13.3885 14.7945 13.3885H25.4534C27.4917 13.3885 29.428 13.6928 31.2149 14.2659C30.991 12.6808 30.563 11.1985 29.9541 9.83868C27.2011 7.98871 23.7882 6.96094 20.0297 6.96094H9.3747C7.22249 6.96094 5.43945 8.55397 5.43945 11.0443V33.3547H10.8632V17.4717H10.8592Z" fill="#FE6E42"/>
<path d="M14.7946 13.3886C12.6424 13.3886 10.8594 14.9817 10.8594 17.472V33.351H14.5943C24.0947 33.351 31.3917 26.6666 31.3917 16.8514C31.3917 15.962 31.329 15.0963 31.2111 14.2622C29.4241 13.6891 27.4879 13.3848 25.4497 13.3848H14.7946V13.3886Z" fill="#F95611"/>
<path d="M35.3859 16.2734C36.3167 18.3488 36.8273 20.7127 36.8273 23.2978C36.8273 33.1129 29.5301 39.7973 20.0298 39.7973H10.8594V41.513C10.8594 44.0073 12.6424 45.4383 14.7946 45.4383H25.4535C34.9539 45.4383 42.251 38.8408 42.251 29.334C42.251 23.4362 39.5882 19.0958 35.3859 16.2734Z" fill="url(#paint0_linear_13574_59518)"/>
<path d="M35.3896 16.2733C34.1996 13.613 32.3223 11.4231 29.958 9.83398C30.5667 11.1938 30.9948 12.6761 31.2186 14.2612C32.7267 14.7475 34.1288 15.4234 35.3896 16.2733Z" fill="#FF9F6B"/>
<path d="M104.932 15.1876H102.006V5.33116H104.932C108.161 5.33116 110.037 7.03539 110.037 10.1822C110.037 13.329 108.161 15.1876 104.932 15.1876ZM97.3128 0.782056V19.7367H105.607C111.386 19.7367 115.289 15.8317 115.289 10.1822C115.289 4.26768 111.31 0.782056 105.607 0.782056H97.3128ZM127.452 15.4895C124.486 15.4895 122.536 13.2921 122.536 10.2963C122.536 7.26352 124.413 5.06612 127.379 5.06612C130.419 5.06612 132.295 7.26352 132.295 10.2963C132.295 13.2921 130.567 15.4895 127.452 15.4895ZM127.376 0.513672C121.56 0.513672 117.278 4.79775 117.278 10.2929C117.278 15.8652 121.483 20.0353 127.376 20.0353C133.457 20.0353 137.546 15.7511 137.546 10.2157C137.549 4.72394 133.195 0.513672 127.376 0.513672ZM62.0683 15.1876H59.1421V5.33116H62.0683C65.2968 5.33116 67.1735 7.03539 67.1735 10.1822C67.1735 13.329 65.2968 15.1876 62.0683 15.1876ZM54.4521 0.782056V19.7367H62.7459C68.5254 19.7367 72.4282 15.8317 72.4282 10.1822C72.4282 4.26768 68.449 0.782056 62.7459 0.782056H54.4521ZM84.6645 15.4895C81.6984 15.4895 79.7487 13.2921 79.7487 10.2963C79.7487 7.26352 81.6253 5.06612 84.5915 5.06612C87.6307 5.06612 89.4707 7.26352 89.4707 10.2963C89.4674 13.2921 87.7801 15.4895 84.6645 15.4895ZM84.5882 0.513672C78.7721 0.513672 74.4908 4.79775 74.4908 10.2929C74.4908 15.8652 78.5828 20.0353 84.5882 20.0353C90.63 20.0353 94.722 15.7511 94.722 10.2157C94.722 4.72394 90.4074 0.513672 84.5882 0.513672Z" fill="black"/>
<path d="M144.266 40.8963H140.963V31.0399H144.266C147.191 31.0399 149.181 32.7441 149.181 35.891C149.181 39.0378 147.191 40.8963 144.266 40.8963ZM136.271 26.4908V45.4454H144.564C150.344 45.4454 154.246 41.5404 154.246 35.891C154.246 29.9764 150.267 26.4908 144.564 26.4908H136.271ZM64.4332 41.4633H58.9527V37.8635H64.2838C65.7485 37.8635 66.4594 38.4708 66.4594 39.7222C66.4594 40.742 65.8217 41.4633 64.4332 41.4633ZM99.9767 37.8234L102.415 31.4929L104.892 37.8234H99.9767ZM82.9373 35.6628H78.8453V30.6608H82.6351C84.6246 30.6608 85.6012 31.533 85.6012 33.1233C85.6012 34.7134 84.5516 35.6628 82.9373 35.6628ZM63.7955 30.4696C65.1839 30.4696 65.8581 31.2646 65.8581 32.3651C65.8581 33.4654 65.1839 34.2606 63.7191 34.2606H58.9527V30.4696H63.7955ZM108.008 45.4454H112.774L104.969 26.4908H100.053L92.2076 45.4454H96.974L98.3258 41.9967H106.62L108.008 45.4454ZM127.714 26.4908V38.6218L119.945 26.4908H114.84V45.4454H119.344V33.3514L127.113 45.4454H132.218V26.4908H127.714ZM90.4805 33.0092C90.4805 28.8761 87.5908 26.4875 83.6116 26.4875H74.3412V45.4421H78.8453V39.6449H81.8113L85.8635 45.4454H91.1182L86.5378 38.964C89.019 37.7092 90.4805 35.5118 90.4805 33.0092ZM68.6383 35.7769C69.9137 34.9047 70.4784 33.4252 70.4784 31.7981C70.4784 28.4634 67.964 26.4908 64.2108 26.4908H54.4521V45.4454H64.4731C68.8276 45.4454 71.1526 43.0199 71.1526 39.8732C71.1526 37.9743 70.3256 36.5351 68.6383 35.7769ZM161.342 31.8719C161.342 30.8856 162.129 30.3556 164.267 30.3556C167.234 30.3556 169.635 31.0366 171.137 31.4157V27.2087C170.047 26.9068 167.46 26.1855 164.606 26.1855C160.591 26.1855 156.462 27.5509 156.462 32.3651C156.462 36.9913 160.365 37.6724 163.892 38.0515C166.443 38.3165 167.121 38.9606 167.121 39.8698C167.121 40.8158 166.447 41.5739 163.855 41.5739C160.853 41.5739 158.15 40.7017 156.688 40.1717V44.4591C157.813 44.8751 160.591 45.7473 163.742 45.7473C169.485 45.7473 172 43.0568 172 39.3028C172 35.475 169.336 34.1868 165.882 33.7305C162.919 33.3514 161.342 33.0863 161.342 31.8719Z" fill="black"/>
<defs>
<linearGradient id="paint0_linear_13574_59518" x1="10.8605" y1="30.8539" x2="42.2498" y2="30.8539" gradientUnits="userSpaceOnUse">
<stop stop-color="#FFB738"/>
<stop offset="1" stop-color="#FBAD18"/>
</linearGradient>
</defs>
</svg>
