<svg width="24" height="24" viewBox="0 0 24 24" fill="none" xmlns="http://www.w3.org/2000/svg">
<path d="M19.7352 9.15373H19.2549V6.83648C19.2549 6.82192 19.2526 6.80747 19.2507 6.79273C19.25 6.70072 19.2207 6.61034 19.1577 6.53881L15.3016 2.13413C15.3004 2.1329 15.2993 2.1325 15.2985 2.13137C15.2755 2.1057 15.2487 2.08424 15.2204 2.06587C15.212 2.06013 15.2036 2.05545 15.1948 2.05054C15.1702 2.03725 15.1442 2.02603 15.1174 2.01801C15.1101 2.01609 15.1036 2.01311 15.0963 2.01111C15.0672 2.00432 15.037 2 15.0063 2H5.52949C5.09674 2 4.74518 2.35196 4.74518 2.78435V9.15373H4.26505C3.64599 9.15373 3.14403 9.65547 3.14403 10.2746V16.104C3.14403 16.7229 3.64599 17.2252 4.26505 17.2252H4.74522V21.2157C4.74522 21.648 5.09678 22 5.52953 22H18.4707C18.903 22 19.255 21.648 19.255 21.2157V17.2252H19.7352C20.3541 17.2252 20.8562 16.7231 20.8562 16.1043V10.2749C20.8561 9.65547 20.3541 9.15373 19.7352 9.15373ZM5.52949 2.78435H14.6142V6.79705C14.6142 7.01372 14.79 7.18921 15.0063 7.18921H18.4706V9.15391H5.52949V2.78435ZM13.5304 12.8046C13.5304 13.7785 13.1762 14.4502 12.6856 14.865C12.1499 15.3105 11.3344 15.5218 10.3384 15.5218C9.74208 15.5218 9.31968 15.4839 9.03246 15.4463V10.4496C9.45515 10.3822 10.0063 10.3443 10.5874 10.3443C11.5532 10.3443 12.1797 10.5178 12.6702 10.8877C13.1987 11.2802 13.5304 11.9064 13.5304 12.8046ZM4.5564 15.301L4.8011 14.4026C5.01367 14.513 5.50233 14.7176 5.99089 14.7176C6.6133 14.7176 6.9284 14.4182 6.9284 14.0324C6.9284 13.5282 6.42365 13.2996 5.8962 13.2996H5.40716V12.4406H5.87209C6.2743 12.433 6.78621 12.283 6.78621 11.8496C6.78621 11.5422 6.53381 11.314 6.02957 11.314C5.61254 11.314 5.17096 11.4951 4.95844 11.621L4.7141 10.7543C5.02154 10.5575 5.63581 10.3682 6.29797 10.3682C7.39296 10.3682 7.99997 10.9435 7.99997 11.6447C7.99997 12.1885 7.69292 12.6143 7.06221 12.8345V12.8502C7.67687 12.9605 8.17357 13.4255 8.17357 14.0953C8.17357 15.0014 7.37727 15.6635 6.07721 15.6635C5.41541 15.6638 4.85579 15.4902 4.5564 15.301ZM18.4707 21.0031H5.52949V17.2252H18.4706L18.4707 21.0031ZM18.6625 15.4689L18.5871 13.5221C18.5645 12.9107 18.5417 12.1706 18.5417 11.4311H18.5191C18.361 12.0801 18.1495 12.8047 17.9531 13.4009L17.3338 15.3859H16.4361L15.8929 13.4161C15.7271 12.8198 15.5538 12.0954 15.4322 11.4311H15.4176C15.387 12.118 15.3646 12.9031 15.3272 13.5367L15.2365 15.4689H14.1724L14.4968 10.3824H16.0288L16.5267 12.0801C16.6848 12.6687 16.8434 13.3029 16.9571 13.8992H16.9793C17.1227 13.3104 17.2964 12.6387 17.4626 12.0728L18.0061 10.3824H19.5075L19.7873 15.4689L18.6625 15.4689Z" fill="black"/>
<path d="M10.7075 11.2275C10.4508 11.2275 10.2852 11.2495 10.1871 11.2725V14.6009C10.2852 14.6235 10.4438 14.6235 10.5869 14.6235C11.6282 14.6311 12.3075 14.0575 12.3075 12.8423C12.3152 11.7856 11.6963 11.2275 10.7075 11.2275Z" fill="black"/>
</svg>
