<svg width="24" height="24" viewBox="0 0 24 24" fill="none" xmlns="http://www.w3.org/2000/svg">
<path d="M19 20V20.75H19.75V20H19ZM5 20H4.25V20.75H5V20ZM5 4V3.25H4.25V4H5ZM16 4L16.5303 3.46967L16.3107 3.25H16V4ZM19 7H19.75V6.68934L19.5303 6.46967L19 7ZM5.63682 12.25C5.22261 12.25 4.88682 12.5858 4.88682 13C4.88682 13.4142 5.22261 13.75 5.63682 13.75V12.25ZM3.96967 9.96967C3.67678 10.2626 3.67678 10.7374 3.96967 11.0303C4.26256 11.3232 4.73744 11.3232 5.03033 11.0303L3.96967 9.96967ZM4.89042 14.8596C4.53675 14.644 4.07525 14.7559 3.85963 15.1096C3.64401 15.4632 3.75591 15.9247 4.10958 16.1404L4.89042 14.8596ZM10.25 16H9.5V16.75H10.25V16ZM10.25 10L10.25 9.25L9.5 9.25V10H10.25ZM12.15 10V9.25H12.15L12.15 10ZM18.7324 10.7605C19.1466 10.7605 19.4824 10.4247 19.4824 10.0105C19.4824 9.59624 19.1466 9.26045 18.7324 9.26045V10.7605ZM17.4909 10.0105L17.4372 9.26238L17.4909 10.0105ZM16.3025 12.3664L16.8747 11.8814L16.3025 12.3664ZM18.3567 13.364L17.9488 13.9933H17.9488L18.3567 13.364ZM17.4909 16V15.25H17.4909L17.4909 16ZM16.1721 15.25C15.7579 15.25 15.4221 15.5858 15.4221 16C15.4221 16.4142 15.7579 16.75 16.1721 16.75L16.1721 15.25ZM19 19.25H5V20.75H19V19.25ZM5 4.75H16V3.25H5V4.75ZM15.4697 4.53033L18.4697 7.53033L19.5303 6.46967L16.5303 3.46967L15.4697 4.53033ZM5.75 8V4H4.25V8H5.75ZM5.75 20V18H4.25V20H5.75ZM18.25 7V8H19.75V7H18.25ZM18.25 18V20H19.75V18H18.25ZM6.75 11.5C6.75 11.8077 6.63565 11.9498 6.48356 12.0486C6.28937 12.1748 5.98342 12.25 5.63682 12.25V13.75C6.15341 13.75 6.77905 13.6453 7.30065 13.3065C7.86435 12.9404 8.25 12.3325 8.25 11.5H6.75ZM6 10.75C6.22101 10.75 6.41388 10.8109 6.53507 10.9079C6.62806 10.9824 6.75 11.1313 6.75 11.5H8.25C8.25 10.7285 7.96031 10.1274 7.47248 9.73692C7.01286 9.36898 6.45574 9.25 6 9.25V10.75ZM5.03033 11.0303C5.13378 10.9269 5.31196 10.8448 5.54144 10.7963C5.75912 10.7502 5.94664 10.75 6 10.75V9.25C5.91654 9.25 5.60406 9.2498 5.23094 9.32874C4.86962 9.40519 4.36622 9.57311 3.96967 9.96967L5.03033 11.0303ZM8.75 14.5C8.75 13.9948 8.62137 13.5512 8.35773 13.1904C8.09762 12.8344 7.75016 12.6191 7.41358 12.4884C6.77654 12.241 6.0388 12.25 5.63682 12.25V13.75C6.09802 13.75 6.54187 13.759 6.87063 13.8867C7.01695 13.9435 7.09843 14.0094 7.14655 14.0753C7.19113 14.1363 7.25 14.2552 7.25 14.5H8.75ZM6 16.75C6.17963 16.75 6.81592 16.7559 7.42216 16.5058C7.73619 16.3763 8.07617 16.165 8.33731 15.8189C8.60477 15.4643 8.75 15.0203 8.75 14.5H7.25C7.25 14.7298 7.19062 14.8482 7.13983 14.9155C7.08272 14.9912 6.99079 15.0612 6.85023 15.1192C6.54725 15.2441 6.18355 15.25 6 15.25V16.75ZM4.10958 16.1404C4.55803 16.4138 5.14772 16.75 6 16.75V15.25C5.58157 15.25 5.29133 15.1041 4.89042 14.8596L4.10958 16.1404ZM11 16V10H9.5V16H11ZM10.25 10.75L12.15 10.75L12.15 9.25L10.25 9.25L10.25 10.75ZM12.15 10.75C12.306 10.75 12.5497 10.7997 12.7304 10.9216C12.871 11.0165 13 11.1655 13 11.5H14.5C14.5 10.6345 14.0957 10.0335 13.5696 9.67836C13.0836 9.35032 12.5273 9.25 12.15 9.25V10.75ZM13 11.5V14.5H14.5V11.5H13ZM13 14.5C13 14.6198 12.9551 14.8245 12.8352 14.9807C12.7422 15.1018 12.5653 15.25 12.15 15.25V16.75C13.0147 16.75 13.6378 16.3982 14.0248 15.8943C14.3849 15.4255 14.5 14.8802 14.5 14.5H13ZM12.15 15.25H10.25V16.75H12.15V15.25ZM18.7324 9.26045C18.0286 9.26045 17.8092 9.25458 17.7281 9.25201C17.7015 9.25117 17.6468 9.24836 17.5855 9.25154C17.5566 9.25303 17.4933 9.25836 17.4372 9.26238L17.5446 10.7585C17.5882 10.7554 17.6182 10.753 17.6392 10.7514C17.6638 10.7495 17.6649 10.7494 17.6631 10.7495C17.6444 10.7505 17.6144 10.7492 17.6805 10.7513C17.7847 10.7546 18.0222 10.7605 18.7324 10.7605V9.26045ZM17.4372 9.26238C16.3544 9.34011 15.6461 9.94467 15.3737 10.7309C15.1253 11.4477 15.2555 12.291 15.7304 12.8513L16.8747 11.8814C16.7735 11.7621 16.7 11.4846 16.791 11.222C16.8579 11.0289 17.0319 10.7953 17.5446 10.7585L17.4372 9.26238ZM15.7304 12.8513C16.1613 13.3598 16.6299 13.5219 17.0168 13.6313C17.3833 13.735 17.6304 13.787 17.9488 13.9933L18.7646 12.7346C18.2172 12.3798 17.7253 12.2729 17.4251 12.188C17.1454 12.1088 17.0198 12.0527 16.8747 11.8814L15.7304 12.8513ZM17.9488 13.9933C18.18 14.1432 18.3022 14.4619 18.2297 14.766C18.1965 14.9055 18.126 15.0184 18.0266 15.0973C17.9307 15.1733 17.7674 15.25 17.4909 15.25V16.75C18.6912 16.75 19.4726 16.0217 19.6889 15.1137C19.8895 14.2717 19.5944 13.2724 18.7646 12.7346L17.9488 13.9933ZM17.4909 15.25L16.1721 15.25L16.1721 16.75L17.4909 16.75L17.4909 15.25Z" fill="black"/>
</svg>
