<svg xmlns="http://www.w3.org/2000/svg" width="20" height="20" fill="none" viewBox="0 0 20 20">
  <path fill="#A0A0A0" d="M17.735 7.154h-.48V4.836c0-.014-.003-.029-.005-.043a.384.384 0 00-.093-.254L13.301.134l-.003-.003a.384.384 0 00-.104-.08.41.41 0 00-.077-.033l-.021-.007a.393.393 0 00-.09-.011H3.529a.785.785 0 00-.784.784v6.37h-.48c-.62 0-1.121.501-1.121 1.12v5.83c0 .619.502 1.121 1.12 1.121h.48v3.99c0 .433.352.785.785.785H16.47a.785.785 0 00.785-.784v-3.99h.48c.619 0 1.12-.503 1.12-1.122V8.275a1.12 1.12 0 00-1.12-1.121zM3.529.784h9.085v4.013c0 .217.175.392.392.392h3.464v1.965H3.53V.784zm7.004 12.094c.283 0 .508-.032.604-.08v-1.136H10.3v-.96h2.022v2.861a6.082 6.082 0 01-1.813.307c-.992 0-1.709-.25-2.208-.734-.5-.467-.774-1.176-.766-1.974.008-1.806 1.322-2.837 3.103-2.837.701 0 1.241.137 1.507.266l-.258.983c-.298-.129-.668-.234-1.265-.234-1.024 0-1.797.58-1.797 1.757 0 1.12.7 1.781 1.708 1.781zm-7.446.653l.25-.918c.217.112.717.322 1.217.322.636 0 .959-.307.959-.702 0-.515-.516-.749-1.056-.749h-.5v-.878h.475c.412-.008.935-.161.935-.605 0-.314-.257-.548-.773-.548-.427 0-.878.185-1.096.314l-.25-.886c.315-.202.943-.395 1.62-.395 1.12 0 1.741.588 1.741 1.306 0 .556-.314.99-.96 1.217v.015c.63.113 1.137.589 1.137 1.274 0 .927-.813 1.604-2.144 1.604-.677 0-1.249-.177-1.555-.371zm13.383 5.472H3.53v-3.778H16.47v3.778zm.333-5.19h-3.716v-.741l.678-.613c1.144-1.023 1.7-1.612 1.716-2.224 0-.427-.258-.766-.862-.766-.451 0-.846.226-1.12.435l-.347-.878c.395-.298 1.008-.54 1.717-.54 1.185 0 1.837.693 1.837 1.644 0 .879-.636 1.58-1.394 2.257l-.484.403v.016h1.975v1.007z"/>
</svg>
