<svg width="24" height="24" viewBox="0 0 24 24" fill="none" xmlns="http://www.w3.org/2000/svg">
<path d="M19.7348 9.15372H19.2546V6.83648C19.2546 6.82193 19.2523 6.80748 19.2504 6.79271C19.2496 6.70072 19.2203 6.61033 19.1573 6.53883L15.3012 2.13413C15.3 2.13289 15.2989 2.13252 15.2981 2.13139C15.2752 2.10571 15.2484 2.08426 15.22 2.06588C15.2116 2.06015 15.2032 2.05545 15.1944 2.05059C15.1699 2.03728 15.1438 2.02608 15.117 2.01802C15.1097 2.01612 15.1032 2.01313 15.096 2.01116C15.0668 2.0043 15.0366 2 15.006 2H5.52907C5.09634 2 4.74477 2.35197 4.74477 2.78433V9.15368H4.26459C3.64554 9.15368 3.14358 9.65546 3.14358 10.2746V16.104C3.14358 16.7229 3.64554 17.2252 4.26459 17.2252H4.74477V21.2157C4.74477 21.6481 5.09634 22 5.52907 22H18.4702C18.9026 22 19.2545 21.6481 19.2545 21.2157V17.2252H19.7348C20.3536 17.2252 20.8557 16.7231 20.8557 16.1042V10.2749C20.8557 9.6555 20.3537 9.15372 19.7348 9.15372ZM5.52907 2.78433H14.6138V6.79701C14.6138 7.01369 14.7895 7.18918 15.006 7.18918H18.4703V9.15387H5.52907V2.78433ZM12.5331 14.8783C12.8158 14.8783 13.041 14.8462 13.1374 14.7975V13.6617H12.2997V12.7023H14.3223V15.5635C13.9439 15.6922 13.2267 15.8699 12.509 15.8699C11.5175 15.8699 10.8003 15.62 10.3008 15.1363C9.80103 14.6689 9.52731 13.9599 9.53533 13.1621C9.5434 11.3565 10.8574 10.3251 12.6384 10.3251C13.3392 10.3251 13.8793 10.4617 14.1452 10.5908L13.8875 11.574C13.5893 11.4453 13.219 11.3404 12.6223 11.3404C11.5985 11.3404 10.825 11.9206 10.825 13.0974C10.8248 14.2174 11.5255 14.8783 12.5331 14.8783ZM5.08715 15.5309L5.33636 14.6126C5.55427 14.7252 6.05404 14.9347 6.55381 14.9347C7.1903 14.9347 7.51283 14.6283 7.51283 14.2334C7.51283 13.718 6.99697 13.484 6.45653 13.484H5.95716V12.6056H6.43249C6.84381 12.5976 7.36732 12.4446 7.36732 12.0013C7.36732 11.6868 7.10969 11.4533 6.59383 11.4533C6.16676 11.4533 5.71561 11.6382 5.49777 11.7674L5.24816 10.8811C5.5627 10.6793 6.19101 10.4862 6.86846 10.4862C7.98864 10.4862 8.60904 11.0741 8.60904 11.7917C8.60904 12.3476 8.29453 12.7829 7.64962 13.0086V13.0244C8.27841 13.1374 8.78635 13.613 8.78635 14.2977C8.78635 15.2249 7.97262 15.902 6.64242 15.902C5.96515 15.9021 5.39304 15.7247 5.08715 15.5309ZM18.4703 21.0031H5.52907V17.2252H18.4702V21.0031H18.4703ZM18.803 15.8132H15.0875V15.0718L15.7646 14.4594C16.9089 13.4358 17.4649 12.8471 17.481 12.2348C17.481 11.8077 17.2233 11.4692 16.619 11.4692C16.1678 11.4692 15.7728 11.6947 15.4981 11.9043L15.1523 11.0259C15.5467 10.7278 16.1599 10.4863 16.8687 10.4863C18.0536 10.4863 18.7062 11.1791 18.7062 12.1301C18.7062 13.0088 18.0697 13.7098 17.3118 14.3873L16.8281 14.79V14.806H18.8031V15.8132H18.803Z" fill="black"/>
</svg>
