<svg width="24" height="24" viewBox="0 0 24 24" fill="none" xmlns="http://www.w3.org/2000/svg">
<path d="M17.4522 11.2889C17.1987 11.2889 17.0271 11.3138 16.9371 11.3383V12.9655C17.0435 12.99 17.1742 12.9981 17.3542 12.9981C18.016 12.9981 18.4249 12.663 18.4249 12.0985C18.4249 11.5918 18.0737 11.2889 17.4522 11.2889Z" fill="black"/>
<path d="M19.7348 9.15372H19.2545V6.83648C19.2545 6.82193 19.2523 6.80748 19.2504 6.79271C19.2496 6.70072 19.2203 6.61033 19.1573 6.53883L15.3012 2.13413C15.3 2.13289 15.2989 2.13252 15.2981 2.13139C15.2752 2.10571 15.2484 2.08426 15.22 2.06588C15.2116 2.06015 15.2032 2.05545 15.1944 2.05059C15.1699 2.03728 15.1438 2.02608 15.117 2.01802C15.1097 2.01612 15.1032 2.01313 15.096 2.01116C15.0668 2.0043 15.0366 2 15.006 2H5.52907C5.09634 2 4.74477 2.35197 4.74477 2.78433V9.15368H4.26459C3.64554 9.15368 3.14358 9.65546 3.14358 10.2746V16.104C3.14358 16.7229 3.64554 17.2252 4.26459 17.2252H4.74477V21.2157C4.74477 21.6481 5.09634 22 5.52907 22H18.4702C18.9026 22 19.2545 21.6481 19.2545 21.2157V17.2252H19.7348C20.3536 17.2252 20.8557 16.7231 20.8557 16.1042V10.2749C20.8557 9.6555 20.3537 9.15372 19.7348 9.15372ZM5.52907 2.78433H14.6138V6.79701C14.6138 7.01369 14.7895 7.18918 15.006 7.18918H18.4703V9.15387H5.52907V2.78433ZM12.9146 14.952C13.2011 14.952 13.43 14.9193 13.528 14.8703V13.7176H12.6778V12.7445H14.7298V15.647C14.3457 15.7776 13.618 15.9579 12.8908 15.9579C11.8843 15.9579 11.1571 15.704 10.6501 15.2135C10.143 14.7393 9.86534 14.0197 9.8734 13.2105C9.88183 11.3792 11.2146 10.3326 13.0214 10.3326C13.7325 10.3326 14.2798 10.4716 14.5502 10.6022L14.2886 11.5998C13.9857 11.4692 13.61 11.3627 13.0045 11.3627C11.9667 11.3627 11.1816 11.9513 11.1816 13.1451C11.1816 14.2817 11.8932 14.952 12.9146 14.952ZM5.36087 15.6141L5.61402 14.6823C5.8346 14.7968 6.34203 15.0093 6.84869 15.0093C7.49485 15.0093 7.8215 14.6987 7.8215 14.2981C7.8215 13.7747 7.29875 13.5373 6.75024 13.5373H6.24398V12.6465H6.72613C7.14328 12.638 7.67442 12.483 7.67442 12.0333C7.67442 11.7143 7.41288 11.4772 6.88926 11.4772C6.45609 11.4772 5.99849 11.6653 5.77751 11.7959L5.52396 10.8967C5.84295 10.6921 6.4806 10.4961 7.16772 10.4961C8.30434 10.4961 8.93357 11.0927 8.93357 11.8204C8.93357 12.3845 8.61494 12.826 7.96044 13.0551V13.0715C8.59846 13.186 9.11355 13.6685 9.11355 14.3633C9.11355 15.3038 8.28789 15.9905 6.93908 15.9905C6.25204 15.9905 5.67107 15.8105 5.36087 15.6141ZM18.4703 21.0031H5.52907V17.2252H18.4702L18.4703 21.0031ZM19.1527 13.3741C18.7272 13.7747 18.098 13.9546 17.3619 13.9546C17.1985 13.9546 17.0513 13.9462 16.9368 13.9301V15.9005H15.7025V10.4634C16.0866 10.3982 16.6259 10.3492 17.3865 10.3492C18.155 10.3492 18.7027 10.4963 19.0711 10.7908C19.4223 11.0684 19.6594 11.5264 19.6594 12.066C19.6594 12.6056 19.4797 13.0635 19.1527 13.3741Z" fill="black"/>
</svg>
