<svg xmlns="http://www.w3.org/2000/svg" width="20" height="20" fill="none" viewBox="0 0 20 20">
  <path fill="#A0A0A0" d="M15.452 9.289c-.253 0-.425.025-.515.05v1.627c.107.024.237.032.417.032.662 0 1.07-.335 1.07-.9 0-.506-.35-.81-.972-.81z"/>
  <path fill="#A0A0A0" d="M17.735 7.154h-.48V4.836c0-.014-.003-.029-.005-.043a.384.384 0 00-.093-.254L13.301.134l-.003-.003a.384.384 0 00-.104-.08.41.41 0 00-.077-.033l-.021-.007a.393.393 0 00-.09-.011H3.529a.785.785 0 00-.784.784v6.37h-.48c-.62 0-1.121.501-1.121 1.12v5.83c0 .619.502 1.121 1.12 1.121h.48v3.99c0 .433.352.785.785.785H16.47a.785.785 0 00.785-.784v-3.99h.48c.619 0 1.12-.503 1.12-1.122V8.275a1.12 1.12 0 00-1.12-1.121zM3.529.784h9.085v4.013c0 .217.175.392.392.392h3.464v1.965H3.53V.784zm7.386 12.168c.286 0 .515-.033.613-.082v-1.152h-.85v-.973h2.052v2.902a6.17 6.17 0 01-1.84.31c-1.006 0-1.733-.253-2.24-.744-.507-.474-.785-1.193-.777-2.002.009-1.832 1.342-2.878 3.148-2.878.711 0 1.259.139 1.53.27l-.262.997c-.303-.13-.679-.237-1.284-.237-1.038 0-1.823.588-1.823 1.782 0 1.137.711 1.807 1.732 1.807zm-7.554.662l.253-.932c.22.115.728.327 1.235.327.646 0 .972-.31.972-.71 0-.524-.522-.762-1.07-.762h-.507v-.89h.482c.417-.009.948-.164.948-.614 0-.319-.261-.556-.785-.556-.433 0-.89.188-1.112.319l-.253-.9c.319-.204.957-.4 1.644-.4 1.136 0 1.766.597 1.766 1.324 0 .564-.32 1.006-.974 1.235v.017c.638.114 1.154.597 1.154 1.291 0 .94-.826 1.628-2.175 1.628-.687 0-1.268-.18-1.578-.377zm13.11 5.39H3.528v-3.779H16.47v3.778zm.682-7.63c-.426.4-1.055.58-1.791.58a3.18 3.18 0 01-.425-.024v1.97h-1.234V8.463c.384-.065.923-.114 1.684-.114.768 0 1.316.147 1.684.442.351.277.588.735.588 1.275 0 .54-.18.997-.506 1.308z"/>
</svg>
