<svg width="24" height="24" viewBox="0 0 24 24" fill="none" xmlns="http://www.w3.org/2000/svg">
<path d="M19 20V20.75H19.75V20H19ZM5.00002 20H4.25002V20.75H5.00002V20ZM5.00002 4V3.25H4.25002V4H5.00002ZM16 4L16.5304 3.46967L16.3107 3.25H16V4ZM19 7L19.75 7V6.68934L19.5304 6.46967L19 7ZM5.63682 12.25C5.22261 12.25 4.88682 12.5858 4.88682 13C4.88682 13.4142 5.22261 13.75 5.63682 13.75V12.25ZM3.96967 9.96967C3.67678 10.2626 3.67678 10.7374 3.96967 11.0303C4.26256 11.3232 4.73744 11.3232 5.03033 11.0303L3.96967 9.96967ZM4.89042 14.8596C4.53675 14.644 4.07525 14.7559 3.85963 15.1096C3.64401 15.4632 3.75591 15.9247 4.10958 16.1404L4.89042 14.8596ZM10.25 11.6364H11V11.6363L10.25 11.6364ZM13.75 13.2727H14.5V12.5227H13.75V13.2727ZM16 10V9.25C15.5858 9.25 15.25 9.58579 15.25 10H16ZM15.25 16C15.25 16.4142 15.5858 16.75 16 16.75C16.4142 16.75 16.75 16.4142 16.75 16H15.25ZM19 19.25H5.00002V20.75H19V19.25ZM5.00002 4.75H16V3.25H5.00002V4.75ZM15.4697 4.53033L18.4697 7.53033L19.5304 6.46967L16.5304 3.46967L15.4697 4.53033ZM5.75002 8V4H4.25002V8H5.75002ZM5.75002 20V18H4.25002V20H5.75002ZM18.25 7L18.25 8L19.75 8L19.75 7L18.25 7ZM18.25 18V20H19.75V18H18.25ZM6.75 11.5C6.75 11.8077 6.63565 11.9498 6.48356 12.0486C6.28937 12.1748 5.98342 12.25 5.63682 12.25V13.75C6.15341 13.75 6.77905 13.6453 7.30065 13.3065C7.86435 12.9404 8.25 12.3325 8.25 11.5H6.75ZM6 10.75C6.22101 10.75 6.41388 10.8109 6.53507 10.9079C6.62806 10.9824 6.75 11.1313 6.75 11.5H8.25C8.25 10.7285 7.96031 10.1274 7.47248 9.73692C7.01286 9.36898 6.45574 9.25 6 9.25V10.75ZM5.03033 11.0303C5.13378 10.9269 5.31196 10.8448 5.54144 10.7963C5.75912 10.7502 5.94664 10.75 6 10.75V9.25C5.91654 9.25 5.60406 9.2498 5.23094 9.32874C4.86962 9.40519 4.36622 9.57311 3.96967 9.96967L5.03033 11.0303ZM8.75 14.5C8.75 13.9948 8.62137 13.5512 8.35773 13.1904C8.09762 12.8344 7.75016 12.6191 7.41358 12.4884C6.77654 12.241 6.0388 12.25 5.63682 12.25V13.75C6.09802 13.75 6.54187 13.759 6.87063 13.8867C7.01695 13.9435 7.09843 14.0094 7.14655 14.0753C7.19113 14.1363 7.25 14.2552 7.25 14.5H8.75ZM6 16.75C6.17963 16.75 6.81592 16.7559 7.42216 16.5058C7.73619 16.3763 8.07617 16.165 8.33731 15.8189C8.60477 15.4643 8.75 15.0203 8.75 14.5H7.25C7.25 14.7298 7.19062 14.8482 7.13983 14.9155C7.08272 14.9912 6.99079 15.0612 6.85023 15.1192C6.54725 15.2441 6.18355 15.25 6 15.25V16.75ZM4.10958 16.1404C4.55803 16.4138 5.14772 16.75 6 16.75V15.25C5.58157 15.25 5.29133 15.1041 4.89042 14.8596L4.10958 16.1404ZM11.9489 9.25C11.048 9.25 10.4102 9.66113 10.0183 10.1769C9.65208 10.6588 9.50001 11.2286 9.50005 11.6364L11 11.6363C11 11.5441 11.052 11.2957 11.2126 11.0845C11.3474 10.907 11.559 10.75 11.9489 10.75V9.25ZM9.50005 11.6364V14.2149H11V11.6364H9.50005ZM9.50005 14.2149C9.50005 15.5947 10.5011 16.7227 11.9489 16.7227V15.2227C11.3966 15.2227 11 14.835 11 14.2149H9.50005ZM14.5 14.3636V13.2727H13V14.3636H14.5ZM13.75 12.5227H12.2398V14.0227H13.75V12.5227ZM14.5 11.6364C14.5 10.9132 14.2097 10.2948 13.7149 9.86709C13.2315 9.44921 12.5978 9.25 11.9489 9.25V10.75C12.3 10.75 12.5668 10.8574 12.734 11.0019C12.8898 11.1366 13 11.3364 13 11.6364H14.5ZM11.9489 16.7227C12.5683 16.7227 13.2036 16.563 13.6992 16.1579C14.2159 15.7355 14.5 15.1109 14.5 14.3636H13C13 14.7073 12.8836 14.8872 12.7498 14.9966C12.5948 15.1233 12.3295 15.2227 11.9489 15.2227V16.7227ZM16 14.3525H17.5V12.8525H16V14.3525ZM17.5 14.3525C17.8543 14.3525 18.3918 14.2637 18.8642 13.9369C19.3788 13.5809 19.75 12.9844 19.75 12.1378H18.25C18.25 12.3308 18.2106 12.4505 18.1718 12.5244C18.1329 12.5987 18.0792 12.6561 18.0108 12.7034C17.8582 12.8089 17.6457 12.8525 17.5 12.8525V14.3525ZM19.75 12.1378V11.5332H18.25V12.1378H19.75ZM19.75 11.5332C19.75 10.9176 19.5958 10.3162 19.1639 9.86997C18.7278 9.41939 18.1282 9.25 17.5 9.25V10.75C17.8719 10.75 18.0222 10.8472 18.0861 10.9132C18.1542 10.9836 18.25 11.1488 18.25 11.5332H19.75ZM17.5 9.25H16V10.75H17.5V9.25ZM15.25 13.6025V16H16.75V13.6025H15.25ZM15.25 10V13.6025H16.75V10H15.25Z" fill="black"/>
</svg>
