<svg width="24" height="24" viewBox="0 0 24 24" fill="none" xmlns="http://www.w3.org/2000/svg">
<path d="M19 20V20.75H19.75V20H19ZM5 20H4.25V20.75H5V20ZM5 4V3.25H4.25V4H5ZM16 4L16.5303 3.46967L16.3107 3.25H16V4ZM19 7L19.75 7V6.68934L19.5303 6.46967L19 7ZM7.71946 9.25C7.30525 9.25 6.96946 9.58579 6.96946 10C6.96946 10.4142 7.30525 10.75 7.71946 10.75V9.25ZM10.7195 10H11.4695V9.25H10.7195V10ZM10.7195 10.5L11.4243 10.7563L11.4695 10.6321V10.5H10.7195ZM8.01462 15.7437C7.87306 16.133 8.07388 16.5633 8.46315 16.7048C8.85243 16.8464 9.28275 16.6456 9.42431 16.2563L8.01462 15.7437ZM12.8359 9.25C12.4217 9.25 12.0859 9.58579 12.0859 10C12.0859 10.4142 12.4217 10.75 12.8359 10.75V9.25ZM16.3359 10H17.0859V9.25H16.3359V10ZM16.3359 10.3706L16.965 10.779L17.0859 10.5927V10.3706H16.3359ZM12.8359 15.7623L12.2068 15.354L12.0859 15.5402V15.7623H12.8359ZM12.8359 16H12.0859V16.75H12.8359V16ZM16.5157 16.75C16.93 16.75 17.2657 16.4142 17.2657 16C17.2657 15.5858 16.93 15.25 16.5157 15.25V16.75ZM19 19.25H5V20.75H19V19.25ZM5 4.75H16V3.25H5V4.75ZM15.4697 4.53033L18.4697 7.53033L19.5303 6.46967L16.5303 3.46967L15.4697 4.53033ZM5.75 8V4H4.25V8H5.75ZM5.75 20V18H4.25V20H5.75ZM18.25 7L18.25 8L19.75 8L19.75 7L18.25 7ZM18.25 18V20H19.75V18H18.25ZM7.71946 10.75H10.7195V9.25H7.71946V10.75ZM9.96946 10V10.5H11.4695V10H9.96946ZM10.0146 10.2437L8.01462 15.7437L9.42431 16.2563L11.4243 10.7563L10.0146 10.2437ZM12.8359 10.75H16.3359V9.25H12.8359V10.75ZM15.5859 10V10.3706H17.0859V10H15.5859ZM15.7068 9.96226L12.2068 15.354L13.465 16.1707L16.965 10.779L15.7068 9.96226ZM12.0859 15.7623V16H13.5859V15.7623H12.0859ZM12.8359 16.75H16.5157V15.25H12.8359V16.75Z" fill="black"/>
</svg>
