<svg width="24" height="24" viewBox="0 0 24 24" fill="none" xmlns="http://www.w3.org/2000/svg">
<path d="M19 20V20.75H19.75V20H19ZM5 20H4.25V20.75H5V20ZM5 4V3.25H4.25V4H5ZM16 4L16.5303 3.46967L16.3107 3.25H16V4ZM19 7L19.75 7V6.68934L19.5303 6.46967L19 7ZM3.27239 15.8181C3.17193 16.2199 3.41625 16.6271 3.8181 16.7276C4.21994 16.8281 4.62715 16.5837 4.72761 16.1819L3.27239 15.8181ZM5.5 10V9.25C5.15585 9.25 4.85586 9.48422 4.77239 9.8181L5.5 10ZM6.5 10L7.22761 9.8181C7.14414 9.48422 6.84415 9.25 6.5 9.25V10ZM7.27239 16.1819C7.37285 16.5837 7.78006 16.8281 8.1819 16.7276C8.58375 16.6271 8.82807 16.2199 8.72761 15.8181L7.27239 16.1819ZM9.27239 15.8181C9.17193 16.2199 9.41625 16.6271 9.8181 16.7276C10.2199 16.8281 10.6271 16.5837 10.7276 16.1819L9.27239 15.8181ZM11.5 10V9.25C11.1558 9.25 10.8559 9.48422 10.7724 9.8181L11.5 10ZM12.5 10L13.2276 9.8181C13.1441 9.48422 12.8442 9.25 12.5 9.25V10ZM13.2724 16.1819C13.3729 16.5837 13.7801 16.8281 14.1819 16.7276C14.5837 16.6271 14.8281 16.2199 14.7276 15.8181L13.2724 16.1819ZM19 19.25H5V20.75H19V19.25ZM5 4.75H16V3.25H5V4.75ZM15.4697 4.53033L18.4697 7.53033L19.5303 6.46967L16.5303 3.46967L15.4697 4.53033ZM5.75 8V4H4.25V8H5.75ZM5.75 20V18H4.25V20H5.75ZM18.25 7L18.25 8L19.75 8L19.75 7L18.25 7ZM18.25 17.5V20H19.75V17.5H18.25ZM4.72761 16.1819L5.22761 14.1819L3.77239 13.8181L3.27239 15.8181L4.72761 16.1819ZM5.22761 14.1819L6.22761 10.1819L4.77239 9.8181L3.77239 13.8181L5.22761 14.1819ZM5.5 10.75H6.5V9.25H5.5V10.75ZM5.77239 10.1819L6.77239 14.1819L8.22761 13.8181L7.22761 9.8181L5.77239 10.1819ZM6.77239 14.1819L7.27239 16.1819L8.72761 15.8181L8.22761 13.8181L6.77239 14.1819ZM4.5 14.75H7.5V13.25H4.5V14.75ZM10.7276 16.1819L11.2276 14.1819L9.77239 13.8181L9.27239 15.8181L10.7276 16.1819ZM11.2276 14.1819L12.2276 10.1819L10.7724 9.8181L9.77239 13.8181L11.2276 14.1819ZM11.5 10.75H12.5V9.25H11.5V10.75ZM11.7724 10.1819L12.7724 14.1819L14.2276 13.8181L13.2276 9.8181L11.7724 10.1819ZM12.7724 14.1819L13.2724 16.1819L14.7276 15.8181L14.2276 13.8181L12.7724 14.1819ZM10.5 14.75H13.5V13.25H10.5V14.75ZM17.5 9.25C16.376 9.25 15.25 10.174 15.25 11.5H16.75C16.75 11.0806 17.124 10.75 17.5 10.75V9.25ZM15.25 11.5V14.5H16.75V11.5H15.25ZM15.25 14.5C15.25 15.2035 15.5213 15.7863 15.9705 16.1856C16.4059 16.5726 16.9652 16.75 17.5 16.75V15.25C17.2848 15.25 17.0941 15.1774 16.967 15.0644C16.8537 14.9637 16.75 14.7965 16.75 14.5H15.25ZM19.75 11.6364C19.75 10.9091 19.4947 10.2987 19.0534 9.87067C18.6208 9.45119 18.0534 9.25 17.5 9.25V10.75C17.6966 10.75 17.8792 10.8215 18.0091 10.9475C18.1303 11.065 18.25 11.2727 18.25 11.6364H19.75ZM17.5 16.75C18.0534 16.75 18.6208 16.5488 19.0534 16.1293C19.4947 15.7013 19.75 15.0909 19.75 14.3636H18.25C18.25 14.7273 18.1303 14.935 18.0091 15.0525C17.8792 15.1785 17.6966 15.25 17.5 15.25V16.75Z" fill="black"/>
</svg>
