<svg xmlns="http://www.w3.org/2000/svg" width="20" height="20" fill="none" viewBox="0 0 20 20">
  <path fill="#A0A0A0" d="M17.735 7.154h-.48V4.836c0-.014-.003-.029-.004-.043a.385.385 0 00-.094-.254L13.301.134l-.003-.003a.39.39 0 00-.078-.065c-.008-.006-.017-.01-.026-.015a.408.408 0 00-.077-.033l-.021-.007a.39.39 0 00-.09-.011H3.529a.785.785 0 00-.784.784v6.37h-.48c-.62 0-1.121.501-1.121 1.12v5.83c0 .619.502 1.121 1.12 1.121h.48v3.99c0 .433.352.785.785.785H16.47a.785.785 0 00.785-.784v-3.99h.48c.619 0 1.12-.503 1.12-1.122v-5.83a1.12 1.12 0 00-1.12-1.12zm-1.265 11.85H3.53v-3.779H16.47v3.778zM5.793 13.955l1.83-5.99H9.4l1.858 5.99H9.801l-.463-1.537H7.623l-.426 1.537H5.793zm6.265 0v-5.99h1.36v5.99h-1.36zm4.412-6.802H3.53V.784h9.085v4.013c0 .217.175.392.392.392h3.464v1.965z"/>
  <path fill="#A0A0A0" d="M8.77 10.134c-.107-.355-.213-.8-.303-1.155H8.45c-.089.356-.178.809-.276 1.155l-.355 1.272h1.324l-.373-1.272z"/>
</svg>
