<svg width="24" height="24" viewBox="0 0 24 24" fill="none" xmlns="http://www.w3.org/2000/svg">
<path d="M19 20V20.75H19.75V20H19ZM5 20H4.25V20.75H5V20ZM5 4V3.25H4.25V4H5ZM16 4L16.5303 3.46967L16.3107 3.25H16V4ZM19 7H19.75V6.68934L19.5303 6.46967L19 7ZM15.75 10C15.75 9.58579 15.4142 9.25 15 9.25C14.5858 9.25 14.25 9.58579 14.25 10H15.75ZM14.25 16C14.25 16.4142 14.5858 16.75 15 16.75C15.4142 16.75 15.75 16.4142 15.75 16H14.25ZM8.27239 15.8181C8.17193 16.2199 8.41625 16.6271 8.8181 16.7276C9.21994 16.8281 9.62715 16.5837 9.72761 16.1819L8.27239 15.8181ZM10.5 10V9.25C10.1558 9.25 9.85586 9.48422 9.77239 9.8181L10.5 10ZM11.5 10L12.2276 9.8181C12.1441 9.48422 11.8442 9.25 11.5 9.25V10ZM12.2724 16.1819C12.3729 16.5837 12.7801 16.8281 13.1819 16.7276C13.5837 16.6271 13.8281 16.2199 13.7276 15.8181L12.2724 16.1819ZM19 19.25H5V20.75H19V19.25ZM5 4.75H16V3.25H5V4.75ZM15.4697 4.53033L18.4697 7.53033L19.5303 6.46967L16.5303 3.46967L15.4697 4.53033ZM5.75 8V4H4.25V8H5.75ZM5.75 20V18H4.25V20H5.75ZM18.25 7V8H19.75V7H18.25ZM18.25 18V20H19.75V18H18.25ZM14.25 10V16H15.75V10H14.25ZM9.72761 16.1819L10.2276 14.1819L8.77239 13.8181L8.27239 15.8181L9.72761 16.1819ZM10.2276 14.1819L11.2276 10.1819L9.77239 9.8181L8.77239 13.8181L10.2276 14.1819ZM10.5 10.75H11.5V9.25H10.5V10.75ZM10.7724 10.1819L11.7724 14.1819L13.2276 13.8181L12.2276 9.8181L10.7724 10.1819ZM11.7724 14.1819L12.2724 16.1819L13.7276 15.8181L13.2276 13.8181L11.7724 14.1819ZM9.5 14.75H12.5V13.25H9.5V14.75Z" fill="black"/>
</svg>
