<svg width="24" height="24" viewBox="0 0 24 24" fill="none" xmlns="http://www.w3.org/2000/svg">
<path d="M6.94279 12.2538C6.84282 11.9205 6.74279 11.5038 6.65949 11.1705H6.64304C6.55953 11.5038 6.47594 11.9291 6.38462 12.2538L6.05124 13.4458H7.29264L6.94279 12.2538Z" fill="black"/>
<path d="M11.8105 11.1372C11.5521 11.1372 11.3772 11.1621 11.2852 11.1872V12.8455C11.3937 12.8704 11.5271 12.8788 11.7105 12.8788C12.3857 12.8788 12.802 12.5372 12.802 11.9618C12.802 11.4453 12.4436 11.1372 11.8105 11.1372Z" fill="black"/>
<path d="M19.7352 9.15391H19.255V6.83648C19.255 6.82192 19.2527 6.80747 19.2508 6.79273C19.25 6.70083 19.2207 6.61034 19.1577 6.53881L15.3016 2.13413C15.3005 2.1329 15.2993 2.1325 15.2986 2.13137C15.2756 2.10563 15.2488 2.08424 15.2205 2.06587C15.212 2.06013 15.2036 2.05545 15.1948 2.05054C15.1703 2.03725 15.1442 2.02603 15.1174 2.01801C15.1101 2.01609 15.1036 2.01311 15.0963 2.01111C15.0673 2.00432 15.037 2 15.0063 2H5.52953C5.09678 2 4.74522 2.35196 4.74522 2.78435V9.15373H4.26508C3.64602 9.15373 3.14403 9.65547 3.14403 10.2746V16.104C3.14403 16.7229 3.64599 17.2252 4.26508 17.2252H4.74522V21.2157C4.74522 21.648 5.09678 22 5.52953 22H18.4707C18.903 22 19.255 21.648 19.255 21.2157V17.2252H19.7353C20.3541 17.2252 20.8562 16.7231 20.8562 16.1043V10.2749C20.8561 9.65547 20.3541 9.15391 19.7352 9.15391ZM5.52953 2.78435H14.6142V6.79705C14.6142 7.01372 14.79 7.18921 15.0064 7.18921H18.4707V9.15391H5.52953V2.78435ZM14.0604 11.929C14.0604 12.4787 13.877 12.9455 13.544 13.2623C13.1103 13.6705 12.4689 13.8541 11.7185 13.8541C11.5521 13.8541 11.4023 13.8455 11.2854 13.8291V15.8373H10.0272V10.2954C10.4189 10.229 10.9692 10.179 11.7437 10.179C12.5274 10.179 13.0854 10.3288 13.4607 10.6286C13.819 10.9121 14.0604 11.3788 14.0604 11.929ZM5.46835 15.8373H4.15172L5.86816 10.2204H7.53483L9.27647 15.8373H7.90955L7.4764 14.3956H5.86813L5.46835 15.8373ZM18.4707 21.0031H5.52953V17.2252H18.4707V21.0031ZM17.9862 15.8373L16.611 13.4124L16.1277 14.004V15.8373H14.8693V10.2204H16.1277V12.7037H16.1526C16.2774 12.4872 16.4109 12.2872 16.536 12.087L17.8112 10.2202H19.3693L17.5106 12.612L19.4691 15.8369L17.9862 15.8373Z" fill="black"/>
</svg>
