<svg width="24" height="24" viewBox="0 0 24 24" fill="none" xmlns="http://www.w3.org/2000/svg">
<path d="M7.26852 12.2831C7.16169 11.9275 7.05519 11.4831 6.96637 11.1271H6.94836C6.85951 11.4829 6.77066 11.9359 6.67262 12.2831L6.3171 13.5536H7.64143L7.26852 12.2831Z" fill="black"/>
<path d="M19.7352 9.15373H19.255V6.83648C19.255 6.82192 19.2527 6.80747 19.2508 6.79273C19.25 6.70083 19.2207 6.61041 19.1577 6.53881L15.3016 2.13413C15.3005 2.13301 15.2993 2.1325 15.2986 2.13137C15.2756 2.1057 15.2488 2.08435 15.2205 2.06587C15.212 2.06024 15.2036 2.05552 15.1948 2.05054C15.1703 2.03725 15.1442 2.02603 15.1174 2.01801C15.1101 2.01609 15.1036 2.01311 15.0963 2.01118C15.0673 2.00432 15.037 2 15.0063 2H5.52953C5.09678 2 4.74522 2.35196 4.74522 2.78435V9.15373H4.26508C3.6462 9.15373 3.14403 9.65547 3.14403 10.2747V16.1043C3.14403 16.7229 3.6462 17.2252 4.26508 17.2252H4.74522V21.2157C4.74522 21.648 5.09678 22 5.52953 22H18.4707C18.903 22 19.255 21.648 19.255 21.2157V17.2252H19.7353C20.3545 17.2252 20.8562 16.7229 20.8562 16.1043V10.2747C20.8561 9.65547 20.3544 9.15373 19.7352 9.15373ZM5.52953 2.78435H14.6142V6.79705C14.6142 7.01383 14.79 7.18921 15.0064 7.18921H18.4707V9.15391H5.52953V2.78435ZM14.8585 11.936C14.8585 12.5227 14.6628 13.0206 14.3074 13.3584C13.8456 13.7938 13.1607 13.9895 12.3612 13.9895C12.1834 13.9895 12.0229 13.9803 11.8992 13.9627V16.1046H10.5569V10.1943C10.9748 10.1232 11.5611 10.0698 12.3876 10.0698C13.2233 10.0698 13.8184 10.2298 14.219 10.5496C14.6008 10.8518 14.8585 11.3498 14.8585 11.936ZM4.2913 16.1046L6.12223 10.1143H7.89986L9.75733 16.1046H8.29927L7.83751 14.567H6.12219L5.69558 16.1046H4.2913ZM18.4707 21.0031H5.52953V17.2252H18.4707V21.0031ZM19.4709 13.3584C19.0087 13.7938 18.3241 13.9895 17.5247 13.9895C17.347 13.9895 17.1864 13.9803 17.0625 13.9627V16.1046H15.7202V10.1943C16.138 10.1232 16.7247 10.0698 17.5511 10.0698C18.3864 10.0698 18.9819 10.2298 19.3821 10.5496C19.7639 10.8518 20.022 11.3496 20.022 11.9359C20.022 12.5227 19.8264 13.0206 19.4709 13.3584Z" fill="black"/>
<path d="M12.4588 11.0919C12.1835 11.0919 11.9966 11.1187 11.8992 11.1451V12.9139C12.0146 12.9404 12.1567 12.9492 12.3523 12.9492C13.0723 12.9492 13.5165 12.5852 13.5165 11.9715C13.5165 11.4205 13.1343 11.0919 12.4588 11.0919Z" fill="black"/>
<path d="M17.622 11.0919C17.3467 11.0919 17.1598 11.1187 17.0621 11.1451V12.9139C17.178 12.9404 17.3197 12.9492 17.5153 12.9492C18.2355 12.9492 18.6797 12.5852 18.6797 11.9715C18.6798 11.4205 18.2976 11.0919 17.622 11.0919Z" fill="black"/>
</svg>
