<svg width="24" height="24" viewBox="0 0 24 24" fill="none" xmlns="http://www.w3.org/2000/svg">
<path d="M19.7352 9.15373H19.2549V6.83648C19.2549 6.82192 19.2526 6.80747 19.2507 6.79273C19.25 6.70072 19.2207 6.61034 19.1577 6.53881L15.3016 2.13413C15.3004 2.1329 15.2993 2.1325 15.2985 2.13137C15.2755 2.1057 15.2487 2.08424 15.2204 2.06587C15.212 2.06013 15.2036 2.05545 15.1948 2.05054C15.1702 2.03725 15.1442 2.02603 15.1174 2.01801C15.1101 2.01609 15.1036 2.01311 15.0963 2.01111C15.0672 2.00432 15.037 2 15.0063 2H5.52949C5.09674 2 4.74518 2.35196 4.74518 2.78435V9.15373H4.26505C3.64599 9.15373 3.14403 9.65547 3.14403 10.2746V16.104C3.14403 16.7229 3.64599 17.2252 4.26505 17.2252H4.74522V21.2157C4.74522 21.648 5.09678 22 5.52953 22H18.4707C18.903 22 19.255 21.648 19.255 21.2157V17.2252H19.7352C20.3541 17.2252 20.8562 16.7231 20.8562 16.1043V10.2749C20.8561 9.65547 20.3541 9.15373 19.7352 9.15373ZM5.29544 15.6305L6.92916 10.2847H8.5154L10.1729 15.6305H8.87233L8.45977 14.2584H6.92895L6.54837 15.6305H5.29544ZM18.4707 21.0031H5.52949V17.2252H18.4706L18.4707 21.0031ZM12.2188 13.3859C11.3307 13.0765 10.7517 12.5848 10.7517 11.8072C10.7517 10.8954 11.5131 10.1972 12.7741 10.1972C13.3772 10.1972 13.8211 10.3243 14.1381 10.4668L13.8681 11.4426C13.654 11.3397 13.2738 11.1888 12.7499 11.1888C12.2268 11.1888 11.9729 11.4267 11.9729 11.7042C11.9729 12.0455 12.2743 12.1961 12.9644 12.458C13.9084 12.8069 14.3526 13.2986 14.3526 14.0519C14.3526 14.9484 13.6621 15.7098 12.195 15.7098C11.5843 15.7098 10.9817 15.5512 10.6799 15.3846L10.9257 14.3851C11.2513 14.5517 11.751 14.7183 12.2662 14.7183C12.8215 14.7183 13.1149 14.4881 13.1149 14.1393C13.1149 13.8061 12.8614 13.6157 12.2188 13.3859ZM18.3013 12.4978V13.4809H16.382V15.6305H15.1687V10.2847H18.4362V11.2763H16.382V12.4979L18.3013 12.4978ZM18.4707 9.15373H5.52949V2.78435H14.6142V6.79705C14.6142 7.01372 14.79 7.18921 15.0063 7.18921H18.4706L18.4707 9.15373Z" fill="black"/>
<path d="M7.95286 12.2206C7.85751 11.9032 7.76241 11.5067 7.68325 11.1892H7.66717C7.5879 11.5067 7.50853 11.9112 7.42084 12.2206L7.10421 13.3546H8.28554L7.95286 12.2206Z" fill="black"/>
</svg>
