<svg width="24" height="24" viewBox="0 0 24 24" fill="none" xmlns="http://www.w3.org/2000/svg">
<path d="M19 20V20.75H19.75V20H19ZM5 20H4.25V20.75H5V20ZM5 4V3.25H4.25V4H5ZM16 4L16.5303 3.46967L16.3107 3.25H16V4ZM19 7L19.75 7V6.68934L19.5303 6.46967L19 7ZM4.27239 15.8181C4.17193 16.2199 4.41625 16.6271 4.8181 16.7276C5.21994 16.8281 5.62715 16.5837 5.72761 16.1819L4.27239 15.8181ZM6.5 10V9.25C6.15585 9.25 5.85586 9.48422 5.77239 9.8181L6.5 10ZM7.5 10L8.22761 9.8181C8.14414 9.48422 7.84415 9.25 7.5 9.25V10ZM8.27239 16.1819C8.37285 16.5837 8.78006 16.8281 9.1819 16.7276C9.58375 16.6271 9.82807 16.2199 9.72761 15.8181L8.27239 16.1819ZM16 10V9.25H15.25V10H16ZM15.25 16C15.25 16.4142 15.5858 16.75 16 16.75C16.4142 16.75 16.75 16.4142 16.75 16H15.25ZM19 10.75C19.4142 10.75 19.75 10.4142 19.75 10C19.75 9.58579 19.4142 9.25 19 9.25V10.75ZM18.5 13.75C18.9142 13.75 19.25 13.4142 19.25 13C19.25 12.5858 18.9142 12.25 18.5 12.25V13.75ZM13.5265 10.7605C13.9407 10.7605 14.2765 10.4247 14.2765 10.0105C14.2765 9.59624 13.9407 9.26045 13.5265 9.26045V10.7605ZM12.285 10.0105L12.2313 9.26238L12.285 10.0105ZM11.0966 12.3664L11.6688 11.8814L11.0966 12.3664ZM13.1508 13.364L12.7429 13.9933L13.1508 13.364ZM12.285 16V15.25H12.285L12.285 16ZM10.9662 15.25C10.552 15.25 10.2162 15.5858 10.2162 16C10.2162 16.4142 10.552 16.75 10.9662 16.75L10.9662 15.25ZM19 19.25H5V20.75H19V19.25ZM5 4.75H16V3.25H5V4.75ZM15.4697 4.53033L18.4697 7.53033L19.5303 6.46967L16.5303 3.46967L15.4697 4.53033ZM5.75 8V4H4.25V8H5.75ZM5.75 20V18H4.25V20H5.75ZM18.25 7L18.25 8L19.75 8L19.75 7L18.25 7ZM18.25 18V20H19.75V18H18.25ZM5.72761 16.1819L6.22761 14.1819L4.77239 13.8181L4.27239 15.8181L5.72761 16.1819ZM6.22761 14.1819L7.22761 10.1819L5.77239 9.8181L4.77239 13.8181L6.22761 14.1819ZM6.5 10.75H7.5V9.25H6.5V10.75ZM6.77239 10.1819L7.77239 14.1819L9.22761 13.8181L8.22761 9.8181L6.77239 10.1819ZM7.77239 14.1819L8.27239 16.1819L9.72761 15.8181L9.22761 13.8181L7.77239 14.1819ZM5.5 14.75H8.5V13.25H5.5V14.75ZM15.25 10V13H16.75V10H15.25ZM15.25 13V16H16.75V13H15.25ZM16 10.75H19V9.25H16V10.75ZM16 13.75H18.5V12.25H16V13.75ZM13.5265 9.26045C12.8227 9.26045 12.6033 9.25458 12.5222 9.25201C12.4956 9.25117 12.4409 9.24836 12.3796 9.25154C12.3507 9.25303 12.2874 9.25836 12.2313 9.26238L12.3387 10.7585C12.3823 10.7554 12.4123 10.753 12.4333 10.7514C12.4579 10.7495 12.459 10.7494 12.4572 10.7495C12.4385 10.7505 12.4085 10.7492 12.4746 10.7513C12.5788 10.7546 12.8163 10.7605 13.5265 10.7605V9.26045ZM12.2313 9.26238C11.1485 9.34011 10.4402 9.94467 10.1678 10.7309C9.91944 11.4477 10.0496 12.291 10.5245 12.8513L11.6688 11.8814C11.5676 11.7621 11.4941 11.4846 11.5851 11.222C11.652 11.0289 11.826 10.7953 12.3387 10.7585L12.2313 9.26238ZM10.5245 12.8513C10.9554 13.3598 11.424 13.5219 11.8109 13.6313C12.1774 13.735 12.4245 13.787 12.7429 13.9933L13.5587 12.7346C13.0113 12.3798 12.5194 12.2729 12.2192 12.188C11.9395 12.1088 11.8139 12.0527 11.6688 11.8814L10.5245 12.8513ZM12.7429 13.9933C12.9741 14.1432 13.0963 14.4619 13.0238 14.766C12.9906 14.9055 12.9201 15.0184 12.8207 15.0973C12.7248 15.1733 12.5615 15.25 12.285 15.25V16.75C13.4853 16.75 14.2667 16.0217 14.483 15.1137C14.6836 14.2717 14.3885 13.2724 13.5587 12.7346L12.7429 13.9933ZM12.285 15.25L10.9662 15.25L10.9662 16.75L12.285 16.75L12.285 15.25Z" fill="black"/>
</svg>
