<svg width="24" height="24" viewBox="0 0 24 24" fill="none" xmlns="http://www.w3.org/2000/svg">
<path d="M6.78788 12.0714C6.68258 11.7199 6.57706 11.2813 6.48948 10.9303H6.47176C6.38418 11.2813 6.29627 11.7286 6.19987 12.0714L5.84849 13.3264H7.15633L6.78788 12.0714Z" fill="black"/>
<path d="M16.6512 10.8957C16.3793 10.8957 16.1949 10.9218 16.0984 10.9487V12.6947C16.2125 12.7215 16.3527 12.7299 16.546 12.7299C17.2568 12.7299 17.6957 12.3703 17.6957 11.7649C17.6956 11.2204 17.3181 10.8957 16.6512 10.8957Z" fill="black"/>
<path d="M19.7352 9.15391H19.255V6.8367C19.255 6.82214 19.2527 6.80769 19.2508 6.79295C19.25 6.70104 19.2205 6.61063 19.1577 6.53906L15.3014 2.13413C15.3005 2.13301 15.2993 2.1325 15.2986 2.13137C15.2756 2.1057 15.2488 2.08435 15.2205 2.06587C15.212 2.06024 15.2036 2.05545 15.1948 2.05054C15.1703 2.03725 15.1442 2.02603 15.1174 2.01801C15.1102 2.01609 15.1037 2.01311 15.0964 2.01118C15.0673 2.00432 15.037 2 15.0063 2H5.52955C5.0968 2 4.74524 2.35196 4.74524 2.78435V9.15373H4.26499C3.64604 9.15373 3.14404 9.65547 3.14404 10.2747V16.1043C3.14404 16.7229 3.646 17.2252 4.26499 17.2252H4.74524V21.2157C4.74524 21.648 5.0968 22 5.52955 22H18.4707C18.903 22 19.255 21.648 19.255 21.2157V17.2252H19.7353C20.3541 17.2252 20.8562 16.7231 20.8562 16.1043V10.2749C20.8561 9.65547 20.3541 9.15391 19.7352 9.15391ZM5.52955 2.78449H14.6142V6.7972C14.6142 7.01386 14.79 7.18935 15.0064 7.18935H18.4707V9.15405H5.52955V2.78449ZM11.5088 13.3615C10.5258 13.0191 9.88498 12.4753 9.88498 11.6153C9.88498 10.6059 10.7275 9.83328 12.123 9.83328C12.7898 9.83328 13.2815 9.97413 13.6327 10.1318L13.3343 11.2112C13.0973 11.0973 12.676 10.9304 12.097 10.9304C11.5175 10.9304 11.2368 11.1938 11.2368 11.5005C11.2368 11.8781 11.5703 12.0449 12.3336 12.3346C13.3784 12.7211 13.8697 13.265 13.8697 14.0985C13.8697 15.0906 13.1061 15.9331 11.4821 15.9331C10.8066 15.9331 10.1395 15.7573 9.806 15.5731L10.0781 14.4673C10.4377 14.6517 10.9907 14.8357 11.5612 14.8357C12.1754 14.8357 12.5003 14.581 12.5003 14.1949C12.5003 13.8267 12.2195 13.6157 11.5088 13.3615ZM5.23427 15.8454H3.84756L5.65544 9.92962H7.41084L9.24515 15.8454H7.80575L7.34947 14.3273H5.65544L5.23427 15.8454ZM18.4707 21.0033H5.52955V17.2252H18.4707V21.0033ZM18.4764 13.1336C18.0201 13.5633 17.3444 13.7564 16.5543 13.7564C16.3789 13.7564 16.2207 13.7478 16.0982 13.7299V15.8454H14.7728V10.0088C15.1849 9.9384 15.7643 9.88612 16.5807 9.88612C17.406 9.88612 17.9939 10.0441 18.3889 10.3595C18.7664 10.658 19.0205 11.1496 19.0205 11.7286C19.0204 12.3083 18.8276 12.7998 18.4764 13.1336Z" fill="black"/>
</svg>
