<svg width="24" height="24" viewBox="0 0 24 24" fill="none" xmlns="http://www.w3.org/2000/svg">
<path d="M6.44739 12.483C6.36697 12.2142 6.28617 11.8787 6.21878 11.6095H6.20625C6.13875 11.8787 6.07136 12.221 5.99783 12.483L5.72859 13.4439H6.72996L6.44739 12.483Z" fill="black"/>
<path d="M19.7352 9.15373H19.255V6.83648C19.255 6.82192 19.2527 6.80747 19.2508 6.79273C19.25 6.70083 19.2207 6.61041 19.1577 6.53881L15.3016 2.13413C15.3005 2.13301 15.2993 2.1325 15.2986 2.13137C15.2756 2.1057 15.2488 2.08435 15.2205 2.06587C15.212 2.06024 15.2036 2.05552 15.1948 2.05054C15.1703 2.03725 15.1442 2.02603 15.1174 2.01801C15.1102 2.01609 15.1037 2.01311 15.0964 2.01118C15.0673 2.00432 15.037 2 15.0063 2H5.52955C5.0968 2 4.74524 2.35196 4.74524 2.78435V9.15373H4.2651C3.64622 9.15373 3.14404 9.65547 3.14404 10.2747V16.1043C3.14404 16.7229 3.64622 17.2252 4.2651 17.2252H4.74524V21.2157C4.74524 21.648 5.0968 22 5.52955 22H18.4707C18.903 22 19.255 21.648 19.255 21.2157V17.2252H19.7353C20.3545 17.2252 20.8562 16.7229 20.8562 16.1043V10.2747C20.8561 9.65547 20.3544 9.15373 19.7352 9.15373ZM5.52955 2.78435H14.6142V6.79705C14.6142 7.01383 14.79 7.18921 15.0064 7.18921H18.4707V9.15391H5.52955V2.78435ZM15.8179 12.2213C15.8179 12.6648 15.6704 13.0409 15.4012 13.2963C15.052 13.6257 14.5342 13.7735 13.9291 13.7735C13.7951 13.7735 13.674 13.7666 13.5798 13.7536V15.3731H12.565V10.9039C12.8813 10.8499 13.3248 10.81 13.9494 10.81C14.5815 10.81 15.032 10.931 15.334 11.1732C15.6233 11.4014 15.8179 11.7783 15.8179 12.2213ZM10.0642 13.4714C9.31131 13.2094 8.82147 12.7928 8.82147 12.134C8.82147 11.3618 9.46639 10.7704 10.5348 10.7704C11.0455 10.7704 11.4221 10.8776 11.6906 10.9979L11.4616 11.8251C11.2805 11.7379 10.9577 11.6098 10.5146 11.6098C10.0707 11.6098 9.85593 11.8116 9.85593 12.0469C9.85593 12.3356 10.1114 12.4636 10.6962 12.6849C11.4958 12.9806 11.8719 13.3976 11.8719 14.036C11.8719 14.7958 11.2876 15.4404 10.0443 15.4404C9.52659 15.4404 9.01581 15.3057 8.76065 15.1648L8.96908 14.3184C9.24442 14.4594 9.66769 14.5999 10.1049 14.5999C10.5747 14.5999 10.8238 14.4058 10.8238 14.1101C10.8236 13.8275 10.6088 13.6663 10.0642 13.4714ZM5.25762 15.3731H4.19607L5.58096 10.8433H6.92449L8.32921 15.3731H7.22667L6.8774 14.2108H5.58114L5.25762 15.3731ZM18.4707 21.0031H5.52955V17.2252H18.4707V21.0031ZM18.6683 15.3731L18.2585 14.5528C18.0904 14.2376 17.9832 14.0015 17.8556 13.7398H17.8422C17.748 14.0018 17.6339 14.2376 17.4926 14.5528L17.1161 15.3731H15.9469L17.2579 13.0815L15.9939 10.8433H17.1707L17.5669 11.6706C17.7013 11.9463 17.8018 12.1677 17.9096 12.4228H17.9232C18.0308 12.134 18.1177 11.9326 18.2319 11.6706L18.6146 10.8433H19.784L18.507 13.0543L19.8511 15.3731H18.6683Z" fill="black"/>
<path d="M14.0031 11.5829C13.7947 11.5829 13.6538 11.6029 13.5795 11.6231V12.9604C13.6672 12.9803 13.7748 12.9872 13.9222 12.9872C14.4668 12.9872 14.8027 12.7115 14.8027 12.2481C14.8027 11.8316 14.5136 11.5829 14.0031 11.5829Z" fill="black"/>
</svg>
