<svg xmlns="http://www.w3.org/2000/svg" width="20" height="20" fill="none" viewBox="0 0 20 20">
  <path fill="#A0A0A0" d="M4.447 10.483c-.08-.269-.16-.604-.228-.874h-.013c-.067.27-.135.612-.208.874l-.27.96H4.73l-.283-.96z"/>
  <path fill="#A0A0A0" d="M17.735 7.154h-.48V4.836c0-.014-.002-.029-.004-.043a.385.385 0 00-.093-.254L13.302.134l-.003-.003a.39.39 0 00-.079-.065c-.008-.006-.016-.01-.025-.015a.41.41 0 00-.078-.033l-.02-.007a.393.393 0 00-.09-.011H3.53a.785.785 0 00-.785.784v6.37h-.48c-.619 0-1.121.501-1.121 1.12v5.83c0 .619.502 1.121 1.121 1.121h.48v3.99c0 .433.352.785.785.785h12.94a.785.785 0 00.785-.784v-3.99h.48c.62 0 1.121-.503 1.121-1.122v-5.83a1.12 1.12 0 00-1.12-1.12zM3.53.784h9.084v4.013c0 .217.176.392.392.392h3.465v1.965H3.53V.784zm10.288 9.437c0 .444-.148.82-.417 1.075-.349.33-.867.478-1.472.478-.134 0-.255-.007-.35-.02v1.62h-1.014v-4.47c.316-.054.76-.094 1.384-.094.633 0 1.083.121 1.385.363.29.228.484.605.484 1.048zm-5.754 1.25c-.753-.262-1.243-.678-1.243-1.337 0-.772.645-1.364 1.714-1.364.51 0 .887.108 1.156.228l-.23.827a2.152 2.152 0 00-.946-.215c-.444 0-.66.202-.66.437 0 .289.256.417.841.638.8.296 1.176.713 1.176 1.351 0 .76-.584 1.404-1.828 1.404-.517 0-1.028-.134-1.283-.275l.208-.847c.275.141.699.282 1.136.282.47 0 .719-.194.719-.49 0-.282-.215-.444-.76-.639zm-4.806 1.902H2.196l1.385-4.53h1.343l1.405 4.53H5.227l-.35-1.162H3.581l-.323 1.162zm13.213 5.63H3.53v-3.778h12.94v3.778zm.197-5.63l-.41-.82c-.168-.315-.275-.552-.402-.813h-.014c-.094.262-.208.498-.35.813l-.376.82h-1.17l1.312-2.291-1.264-2.239h1.177l.396.828c.134.275.235.497.343.752h.013c.108-.289.195-.49.309-.752l.383-.828h1.169l-1.277 2.211 1.344 2.32h-1.183z"/>
  <path fill="#A0A0A0" d="M12.003 9.583c-.208 0-.35.02-.423.04v1.337c.087.02.195.027.342.027.545 0 .88-.276.88-.739 0-.416-.288-.665-.799-.665z"/>
</svg>
