<svg width="24" height="24" viewBox="0 0 24 24" fill="none" xmlns="http://www.w3.org/2000/svg">
<path d="M19 20V20.75H19.75V20H19ZM5 20H4.25V20.75H5V20ZM5 4V3.25H4.25V4H5ZM16 4L16.5303 3.46967L16.3107 3.25H16V4ZM19 7H19.75V6.68934L19.5303 6.46967L19 7ZM1.27239 15.8181C1.17193 16.2199 1.41625 16.6271 1.8181 16.7276C2.21994 16.8281 2.62715 16.5837 2.72761 16.1819L1.27239 15.8181ZM3.5 10V9.25C3.15585 9.25 2.85586 9.48422 2.77239 9.8181L3.5 10ZM4.5 10L5.22761 9.8181C5.14414 9.48422 4.84415 9.25 4.5 9.25V10ZM5.27239 16.1819C5.37285 16.5837 5.78006 16.8281 6.1819 16.7276C6.58375 16.6271 6.82807 16.2199 6.72761 15.8181L5.27239 16.1819ZM10.5655 10.7605C10.9797 10.7605 11.3155 10.4247 11.3155 10.0105C11.3155 9.59624 10.9797 9.26045 10.5655 9.26045V10.7605ZM9.32409 10.0105L9.27038 9.26238L9.32409 10.0105ZM8.1357 12.3664L8.70784 11.8814L8.1357 12.3664ZM10.1899 13.364L9.78201 13.9933L10.1899 13.364ZM9.32409 16V15.25H9.32408L9.32409 16ZM8.00531 15.25C7.5911 15.25 7.25531 15.5858 7.25531 16C7.25531 16.4142 7.5911 16.75 8.00531 16.75L8.00531 15.25ZM13.0974 10V9.25C12.6832 9.25 12.3474 9.58579 12.3474 10H13.0974ZM12.3474 16C12.3474 16.4142 12.6832 16.75 13.0974 16.75C13.5116 16.75 13.8474 16.4142 13.8474 16H12.3474ZM18.6708 9.66459C18.4856 9.29411 18.0351 9.14394 17.6646 9.32918C17.2941 9.51442 17.1439 9.96493 17.3292 10.3354L18.6708 9.66459ZM20.3292 16.3354C20.5144 16.7059 20.9649 16.8561 21.3354 16.6708C21.7059 16.4856 21.8561 16.0351 21.6708 15.6646L20.3292 16.3354ZM21.6708 10.3354C21.8561 9.96493 21.7059 9.51442 21.3354 9.32918C20.9649 9.14394 20.5144 9.29411 20.3292 9.66459L21.6708 10.3354ZM17.3292 15.6646C17.1439 16.0351 17.2941 16.4856 17.6646 16.6708C18.0351 16.8561 18.4856 16.7059 18.6708 16.3354L17.3292 15.6646ZM19 19.25H5V20.75H19V19.25ZM5 4.75H16V3.25H5V4.75ZM15.4697 4.53033L18.4697 7.53033L19.5303 6.46967L16.5303 3.46967L15.4697 4.53033ZM5.75 8V4H4.25V8H5.75ZM5.75 20V18H4.25V20H5.75ZM18.25 7V8H19.75V7H18.25ZM18.25 18V20H19.75V18H18.25ZM2.72761 16.1819L3.22761 14.1819L1.77239 13.8181L1.27239 15.8181L2.72761 16.1819ZM3.22761 14.1819L4.22761 10.1819L2.77239 9.8181L1.77239 13.8181L3.22761 14.1819ZM3.5 10.75H4.5V9.25H3.5V10.75ZM3.77239 10.1819L4.77239 14.1819L6.22761 13.8181L5.22761 9.8181L3.77239 10.1819ZM4.77239 14.1819L5.27239 16.1819L6.72761 15.8181L6.22761 13.8181L4.77239 14.1819ZM2.5 14.75H5.5V13.25H2.5V14.75ZM10.5655 9.26045C9.8618 9.26045 9.64238 9.25458 9.56125 9.25201C9.53468 9.25117 9.47998 9.24836 9.41866 9.25154C9.38978 9.25303 9.32643 9.25836 9.27038 9.26238L9.37779 10.7585C9.42134 10.7554 9.45139 10.753 9.47233 10.7514C9.497 10.7495 9.49804 10.7494 9.49629 10.7495C9.47753 10.7505 9.4476 10.7492 9.51369 10.7513C9.61789 10.7546 9.85535 10.7605 10.5655 10.7605V9.26045ZM9.27038 9.26238C8.18757 9.34011 7.47926 9.94467 7.20685 10.7309C6.95851 11.4477 7.08864 12.291 7.56356 12.8513L8.70784 11.8814C8.60666 11.7621 8.5332 11.4846 8.62419 11.222C8.6911 11.0289 8.86504 10.7953 9.37779 10.7585L9.27038 9.26238ZM7.56356 12.8513C7.99451 13.3598 8.46308 13.5219 8.85001 13.6313C9.21645 13.735 9.46359 13.787 9.78201 13.9933L10.5978 12.7346C10.0504 12.3798 9.5585 12.2729 9.25832 12.188C8.97862 12.1088 8.85299 12.0527 8.70784 11.8814L7.56356 12.8513ZM9.78201 13.9933C10.0132 14.1432 10.1354 14.4619 10.0629 14.766C10.0297 14.9055 9.95916 15.0184 9.85974 15.0973C9.76391 15.1733 9.60057 15.25 9.32409 15.25V16.75C10.5244 16.75 11.3057 16.0217 11.5221 15.1137C11.7227 14.2717 11.4276 13.2724 10.5978 12.7346L9.78201 13.9933ZM9.32408 15.25L8.00531 15.25L8.00531 16.75L9.32409 16.75L9.32408 15.25ZM13.0974 14.3525H14.5974V12.8525H13.0974V14.3525ZM14.5974 14.3525C14.9517 14.3525 15.4892 14.2637 15.9616 13.9369C16.4762 13.5809 16.8474 12.9844 16.8474 12.1378H15.3474C15.3474 12.3308 15.308 12.4505 15.2692 12.5244C15.2302 12.5987 15.1766 12.6561 15.1082 12.7034C14.9556 12.8089 14.7431 12.8525 14.5974 12.8525V14.3525ZM16.8474 12.1378V11.5332H15.3474V12.1378H16.8474ZM16.8474 11.5332C16.8474 10.9176 16.6932 10.3162 16.2613 9.86997C15.8252 9.41939 15.2255 9.25 14.5974 9.25V10.75C14.9693 10.75 15.1196 10.8472 15.1835 10.9132C15.2516 10.9836 15.3474 11.1488 15.3474 11.5332H16.8474ZM14.5974 9.25H13.0974V10.75H14.5974V9.25ZM12.3474 13.6025V16H13.8474V13.6025H12.3474ZM12.3474 10V13.6025H13.8474V10H12.3474ZM17.3292 10.3354L18.8292 13.3354L20.1708 12.6646L18.6708 9.66459L17.3292 10.3354ZM18.8292 13.3354L20.3292 16.3354L21.6708 15.6646L20.1708 12.6646L18.8292 13.3354ZM20.3292 9.66459L18.8292 12.6646L20.1708 13.3354L21.6708 10.3354L20.3292 9.66459ZM18.8292 12.6646L17.3292 15.6646L18.6708 16.3354L20.1708 13.3354L18.8292 12.6646Z" fill="black"/>
</svg>
