<svg width="24" height="24" viewBox="0 0 24 24" fill="none" xmlns="http://www.w3.org/2000/svg">
<path d="M19.7354 9.15398H19.2551V6.83667C19.2551 6.82221 19.2526 6.80765 19.2511 6.79302C19.2503 6.70101 19.2209 6.61063 19.1579 6.53903L15.3016 2.13413C15.3004 2.13301 15.2993 2.13261 15.2985 2.13137C15.2755 2.1057 15.2487 2.08435 15.2204 2.06587C15.212 2.06024 15.2036 2.05552 15.1948 2.05065C15.1702 2.03725 15.1442 2.02614 15.1174 2.01812C15.1101 2.01609 15.1036 2.01311 15.0963 2.01122C15.0672 2.00432 15.037 2 15.0063 2H5.52948C5.09673 2 4.74517 2.35196 4.74517 2.78435V9.1538H4.26496C3.64601 9.1538 3.14401 9.65547 3.14401 10.2747V16.1043C3.14401 16.7229 3.64597 17.2252 4.26496 17.2252H4.74521V21.2157C4.74521 21.648 5.09677 22 5.52952 22H18.4706C18.903 22 19.255 21.648 19.255 21.2157V17.2252H19.7352C20.3541 17.2252 20.8561 16.7231 20.8561 16.1043V10.2749C20.8561 9.65569 20.3544 9.15398 19.7354 9.15398ZM5.52948 2.78449H14.6142V6.7973C14.6142 7.01397 14.7899 7.18946 15.0063 7.18946H18.4706V9.15416H5.52948V2.78449ZM11.4895 13.3532C10.5589 13.0288 9.95227 12.5137 9.95227 11.699C9.95227 10.7436 10.7499 10.012 12.0714 10.012C12.7028 10.012 13.1683 10.1449 13.5005 10.2945L13.2181 11.3166C12.9934 11.2086 12.5948 11.0506 12.0463 11.0506C11.4979 11.0506 11.2318 11.3002 11.2318 11.5913C11.2318 11.9487 11.5474 12.1064 12.2706 12.3806C13.2594 12.7463 13.7249 13.2615 13.7249 14.0507C13.7249 14.9901 13.0019 15.7875 11.4645 15.7875C10.8247 15.7875 10.1932 15.6213 9.87725 15.4466L10.1349 14.3996C10.4757 14.5743 10.999 14.7489 11.5394 14.7489C12.1211 14.7489 12.4285 14.5078 12.4285 14.1417C12.4286 13.793 12.1628 13.5941 11.4895 13.3532ZM4.23573 15.7044L5.94749 10.1034H7.60947L9.34631 15.7044H7.98343L7.55144 14.2672H5.94749L5.54872 15.7044H4.23573ZM18.4706 21.0033H5.52948V17.2252H18.4706L18.4706 21.0033ZM17.5302 15.7044L17.0234 14.6907C16.8154 14.3001 16.6826 14.0091 16.5248 13.6851H16.5081C16.3919 14.0091 16.2506 14.3001 16.0762 14.6907L15.6109 15.7044H14.1648L15.7853 12.871L14.2231 10.1034H15.6774L16.1676 11.1259C16.3338 11.4667 16.4586 11.741 16.5915 12.0565H16.608C16.7408 11.6993 16.8489 11.4499 16.9903 11.1259L17.4641 10.1034H18.9099L17.331 12.8372L18.9929 15.7044H17.5302Z" fill="black"/>
<path d="M7.01965 12.1314C6.9198 11.7994 6.8202 11.3838 6.73712 11.051H6.72045C6.63726 11.3838 6.55415 11.8077 6.46282 12.1314L6.1304 13.3203H7.36864L7.01965 12.1314Z" fill="black"/>
</svg>
