<svg width="24" height="24" viewBox="0 0 24 24" fill="none" xmlns="http://www.w3.org/2000/svg">
<path d="M19 20V20.75H19.75V20H19ZM5 20H4.25V20.75H5V20ZM5 4V3.25H4.25V4H5ZM16 4L16.5303 3.46967L16.3107 3.25H16V4ZM19 7L19.75 7V6.68934L19.5303 6.46967L19 7ZM4.27239 15.8181C4.17193 16.2199 4.41625 16.6271 4.8181 16.7276C5.21994 16.8281 5.62715 16.5837 5.72761 16.1819L4.27239 15.8181ZM6.5 10V9.25C6.15585 9.25 5.85586 9.48422 5.77239 9.8181L6.5 10ZM7.5 10L8.22761 9.8181C8.14414 9.48422 7.84415 9.25 7.5 9.25V10ZM8.27239 16.1819C8.37285 16.5837 8.78006 16.8281 9.1819 16.7276C9.58375 16.6271 9.82807 16.2199 9.72761 15.8181L8.27239 16.1819ZM13.7324 10.7605C14.1466 10.7605 14.4824 10.4247 14.4824 10.0105C14.4824 9.59624 14.1466 9.26045 13.7324 9.26045V10.7605ZM12.4909 10.0105L12.4372 9.26238L12.4909 10.0105ZM11.3025 12.3664L11.8747 11.8814L11.3025 12.3664ZM13.3567 13.364L12.9488 13.9933L13.3567 13.364ZM12.4909 16V15.25H12.4909L12.4909 16ZM11.1721 15.25C10.7579 15.25 10.4221 15.5858 10.4221 16C10.4221 16.4142 10.7579 16.75 11.1721 16.75L11.1721 15.25ZM16.6708 9.66459C16.4856 9.29411 16.0351 9.14394 15.6646 9.32918C15.2941 9.51442 15.1439 9.96493 15.3292 10.3354L16.6708 9.66459ZM18.3292 16.3354C18.5144 16.7059 18.9649 16.8561 19.3354 16.6708C19.7059 16.4856 19.8561 16.0351 19.6708 15.6646L18.3292 16.3354ZM19.6708 10.3354C19.8561 9.96493 19.7059 9.51442 19.3354 9.32918C18.9649 9.14394 18.5144 9.29411 18.3292 9.66459L19.6708 10.3354ZM15.3292 15.6646C15.1439 16.0351 15.2941 16.4856 15.6646 16.6708C16.0351 16.8561 16.4856 16.7059 16.6708 16.3354L15.3292 15.6646ZM19 19.25H5V20.75H19V19.25ZM5 4.75H16V3.25H5V4.75ZM15.4697 4.53033L18.4697 7.53033L19.5303 6.46967L16.5303 3.46967L15.4697 4.53033ZM5.75 8V4H4.25V8H5.75ZM5.75 20V18H4.25V20H5.75ZM18.25 7L18.25 8L19.75 8L19.75 7L18.25 7ZM18.25 18V20H19.75V18H18.25ZM5.72761 16.1819L6.22761 14.1819L4.77239 13.8181L4.27239 15.8181L5.72761 16.1819ZM6.22761 14.1819L7.22761 10.1819L5.77239 9.8181L4.77239 13.8181L6.22761 14.1819ZM6.5 10.75H7.5V9.25H6.5V10.75ZM6.77239 10.1819L7.77239 14.1819L9.22761 13.8181L8.22761 9.8181L6.77239 10.1819ZM7.77239 14.1819L8.27239 16.1819L9.72761 15.8181L9.22761 13.8181L7.77239 14.1819ZM5.5 14.75H8.5V13.25H5.5V14.75ZM13.7324 9.26045C13.0286 9.26045 12.8092 9.25458 12.7281 9.25201C12.7015 9.25117 12.6468 9.24836 12.5855 9.25154C12.5566 9.25303 12.4933 9.25836 12.4372 9.26238L12.5446 10.7585C12.5882 10.7554 12.6182 10.753 12.6392 10.7514C12.6638 10.7495 12.6649 10.7494 12.6631 10.7495C12.6444 10.7505 12.6144 10.7492 12.6805 10.7513C12.7847 10.7546 13.0222 10.7605 13.7324 10.7605V9.26045ZM12.4372 9.26238C11.3544 9.34011 10.6461 9.94467 10.3737 10.7309C10.1253 11.4477 10.2555 12.291 10.7304 12.8513L11.8747 11.8814C11.7735 11.7621 11.7 11.4846 11.791 11.222C11.8579 11.0289 12.0319 10.7953 12.5446 10.7585L12.4372 9.26238ZM10.7304 12.8513C11.1613 13.3598 11.6299 13.5219 12.0168 13.6313C12.3833 13.735 12.6304 13.787 12.9488 13.9933L13.7646 12.7346C13.2172 12.3798 12.7253 12.2729 12.4251 12.188C12.1454 12.1088 12.0198 12.0527 11.8747 11.8814L10.7304 12.8513ZM12.9488 13.9933C13.18 14.1432 13.3022 14.4619 13.2297 14.766C13.1965 14.9055 13.126 15.0184 13.0266 15.0973C12.9307 15.1733 12.7674 15.25 12.4909 15.25V16.75C13.6912 16.75 14.4726 16.0217 14.6889 15.1137C14.8895 14.2717 14.5944 13.2724 13.7646 12.7346L12.9488 13.9933ZM12.4909 15.25L11.1721 15.25L11.1721 16.75L12.4909 16.75L12.4909 15.25ZM15.3292 10.3354L16.8292 13.3354L18.1708 12.6646L16.6708 9.66459L15.3292 10.3354ZM16.8292 13.3354L18.3292 16.3354L19.6708 15.6646L18.1708 12.6646L16.8292 13.3354ZM18.3292 9.66459L16.8292 12.6646L18.1708 13.3354L19.6708 10.3354L18.3292 9.66459ZM16.8292 12.6646L15.3292 15.6646L16.6708 16.3354L18.1708 13.3354L16.8292 12.6646Z" fill="black"/>
</svg>
