<svg width="24" height="24" viewBox="0 0 24 24" fill="none" xmlns="http://www.w3.org/2000/svg">
<path d="M19 20V20.75H19.75V20H19ZM5 20H4.25V20.75H5V20ZM5 4V3.25H4.25V4H5ZM16 4L16.5303 3.46967L16.3107 3.25H16V4ZM19 7L19.75 7V6.68934L19.5303 6.46967L19 7ZM5.27239 15.8181C5.17193 16.2199 5.41625 16.6271 5.8181 16.7276C6.21994 16.8281 6.62715 16.5837 6.72761 16.1819L5.27239 15.8181ZM7.5 10V9.25C7.15585 9.25 6.85586 9.48422 6.77239 9.8181L7.5 10ZM8.5 10L9.22761 9.8181C9.14414 9.48422 8.84415 9.25 8.5 9.25V10ZM9.27239 16.1819C9.37285 16.5837 9.78006 16.8281 10.1819 16.7276C10.5837 16.6271 10.8281 16.2199 10.7276 15.8181L9.27239 16.1819ZM11.7115 9.76283C11.5805 9.36987 11.1558 9.1575 10.7628 9.28849C10.3699 9.41947 10.1575 9.84421 10.2885 10.2372L11.7115 9.76283ZM13 16L12.2885 16.2372C12.3906 16.5434 12.6772 16.75 13 16.75C13.3228 16.75 13.6094 16.5434 13.7115 16.2372L13 16ZM15.7115 10.2372C15.8425 9.84421 15.6301 9.41947 15.2372 9.28849C14.8442 9.1575 14.4195 9.36987 14.2885 9.76283L15.7115 10.2372ZM17.75 10C17.75 9.58579 17.4142 9.25 17 9.25C16.5858 9.25 16.25 9.58579 16.25 10H17.75ZM16.25 16C16.25 16.4142 16.5858 16.75 17 16.75C17.4142 16.75 17.75 16.4142 17.75 16H16.25ZM19 19.25H5V20.75H19V19.25ZM5 4.75H16V3.25H5V4.75ZM15.4697 4.53033L18.4697 7.53033L19.5303 6.46967L16.5303 3.46967L15.4697 4.53033ZM5.75 8V4H4.25V8H5.75ZM5.75 20V18H4.25V20H5.75ZM18.25 7L18.25 8L19.75 8L19.75 7L18.25 7ZM18.25 18V20H19.75V18H18.25ZM6.72761 16.1819L7.22761 14.1819L5.77239 13.8181L5.27239 15.8181L6.72761 16.1819ZM7.22761 14.1819L8.22761 10.1819L6.77239 9.8181L5.77239 13.8181L7.22761 14.1819ZM7.5 10.75H8.5V9.25H7.5V10.75ZM7.77239 10.1819L8.77239 14.1819L10.2276 13.8181L9.22761 9.8181L7.77239 10.1819ZM8.77239 14.1819L9.27239 16.1819L10.7276 15.8181L10.2276 13.8181L8.77239 14.1819ZM6.5 14.75H9.5V13.25H6.5V14.75ZM10.2885 10.2372L12.2885 16.2372L13.7115 15.7628L11.7115 9.76283L10.2885 10.2372ZM13.7115 16.2372L15.7115 10.2372L14.2885 9.76283L12.2885 15.7628L13.7115 16.2372ZM16.25 10V16H17.75V10H16.25Z" fill="black"/>
</svg>
