<svg width="24" height="24" viewBox="0 0 24 24" fill="none" xmlns="http://www.w3.org/2000/svg">
<path d="M8.41165 12.2822C8.30748 11.9349 8.20323 11.5002 8.1159 11.1528H8.09851C8.01187 11.5002 7.92501 11.9433 7.82926 12.2822L7.48202 13.525H8.77654L8.41165 12.2822Z" fill="black"/>
<path d="M19.7352 9.15391H19.2549V6.8367C19.2549 6.82225 19.2526 6.80769 19.2507 6.79306C19.2499 6.70104 19.2207 6.61067 19.1577 6.53906L15.3016 2.13413C15.3004 2.13301 15.2993 2.13261 15.2985 2.13137C15.2755 2.1057 15.2487 2.08435 15.2204 2.06587C15.212 2.06024 15.2036 2.05552 15.1948 2.05065C15.1702 2.03725 15.1442 2.02614 15.1174 2.01812C15.1101 2.01609 15.1036 2.01311 15.0963 2.01122C15.0672 2.00432 15.037 2 15.0063 2H5.52948C5.09673 2 4.74517 2.35196 4.74517 2.78435V9.15373H4.26503C3.64597 9.15373 3.14401 9.65547 3.14401 10.2747V16.1043C3.14401 16.7231 3.64597 17.2252 4.26503 17.2252H4.74521V21.2157C4.74521 21.648 5.09677 22 5.52952 22H18.4706C18.903 22 19.255 21.648 19.255 21.2157V17.2252H19.7352C20.3541 17.2252 20.8561 16.7231 20.8561 16.1043V10.2749C20.8561 9.65569 20.354 9.15391 19.7352 9.15391ZM5.50069 16.0184L7.29029 10.1619H9.02798L10.8442 16.0184H9.4193L8.96719 14.5151H7.29008L6.87323 16.0184H5.50069ZM10.6187 10.1619H12.0698L12.7822 12.6384C12.9824 13.3335 13.1646 14.0025 13.3036 14.7324H13.3301C13.4777 14.0286 13.6602 13.3335 13.8601 12.6644L14.6073 10.1619H16.0147L14.0426 16.0184H12.4956L10.6187 10.1619ZM18.4706 21.0033H5.52948V17.2252H18.4706L18.4706 21.0033ZM16.6406 16.0184V10.1619H17.9703V16.0184H16.6406ZM18.4706 9.15391H5.52948V2.78449H14.6142V6.7973C14.6142 7.01397 14.7899 7.18946 15.0063 7.18946H18.4706L18.4706 9.15391Z" fill="black"/>
</svg>
