<svg width="24" height="24" viewBox="0 0 24 24" fill="none" xmlns="http://www.w3.org/2000/svg">
<path d="M19 20V20.75H19.75V20H19ZM5 20H4.25V20.75H5V20ZM5 4V3.25H4.25V4H5ZM16 4L16.5303 3.46967L16.3107 3.25H16V4ZM19 7L19.75 7V6.68934L19.5303 6.46967L19 7ZM9.27239 15.8181C9.17193 16.2199 9.41625 16.6271 9.8181 16.7276C10.2199 16.8281 10.6271 16.5837 10.7276 16.1819L9.27239 15.8181ZM11.5 10V9.25C11.1558 9.25 10.8559 9.48422 10.7724 9.8181L11.5 10ZM12.5 10L13.2276 9.8181C13.1441 9.48422 12.8442 9.25 12.5 9.25V10ZM13.2724 16.1819C13.3729 16.5837 13.7801 16.8281 14.1819 16.7276C14.5837 16.6271 14.8281 16.2199 14.7276 15.8181L13.2724 16.1819ZM16.75 10C16.75 9.58579 16.4142 9.25 16 9.25C15.5858 9.25 15.25 9.58579 15.25 10H16.75ZM15.25 16C15.25 16.4142 15.5858 16.75 16 16.75C16.4142 16.75 16.75 16.4142 16.75 16H15.25ZM19.6 10.45C19.8485 10.1186 19.7814 9.64853 19.45 9.4C19.1186 9.15147 18.6485 9.21863 18.4 9.55L19.6 10.45ZM17.7057 12.2234C17.5002 11.8637 17.0421 11.7388 16.6825 11.9443C16.3228 12.1498 16.1979 12.608 16.4034 12.9676L17.7057 12.2234ZM18.3488 16.3721C18.5543 16.7317 19.0125 16.8567 19.3721 16.6512C19.7317 16.4457 19.8567 15.9875 19.6512 15.6279L18.3488 16.3721ZM5 10V9.25H4.25V10H5ZM5 16H4.25V16.75H5V16ZM6.51984 16V15.25V16ZM19 19.25H5V20.75H19V19.25ZM5 4.75H16V3.25H5V4.75ZM15.4697 4.53033L18.4697 7.53033L19.5303 6.46967L16.5303 3.46967L15.4697 4.53033ZM5.75 8V4H4.25V8H5.75ZM5.75 20V18H4.25V20H5.75ZM18.25 7L18.25 8L19.75 8L19.75 7L18.25 7ZM18.25 18V20H19.75V18H18.25ZM10.7276 16.1819L11.2276 14.1819L9.77239 13.8181L9.27239 15.8181L10.7276 16.1819ZM11.2276 14.1819L12.2276 10.1819L10.7724 9.8181L9.77239 13.8181L11.2276 14.1819ZM11.5 10.75H12.5V9.25H11.5V10.75ZM11.7724 10.1819L12.7724 14.1819L14.2276 13.8181L13.2276 9.8181L11.7724 10.1819ZM12.7724 14.1819L13.2724 16.1819L14.7276 15.8181L14.2276 13.8181L12.7724 14.1819ZM10.5 14.75H13.5V13.25H10.5V14.75ZM15.25 10V14H16.75V10H15.25ZM15.25 14V16H16.75V14H15.25ZM16.6 14.45L19.6 10.45L18.4 9.55L15.4 13.55L16.6 14.45ZM16.4034 12.9676L18.3488 16.3721L19.6512 15.6279L17.7057 12.2234L16.4034 12.9676ZM5 10.75H6.52037V9.25H5V10.75ZM6.52037 10.75C6.74348 10.75 6.93262 10.8237 7.05634 10.9342C7.16679 11.0329 7.27037 11.1996 7.27037 11.5H8.77037C8.77037 10.8004 8.50491 10.2171 8.05583 9.81576C7.62003 9.42632 7.05917 9.25 6.52037 9.25V10.75ZM7.27037 11.5C7.27037 11.8004 7.16679 11.9671 7.05634 12.0658C6.93262 12.1763 6.74348 12.25 6.52037 12.25V13.75C7.05917 13.75 7.62003 13.5737 8.05583 13.1842C8.50491 12.7829 8.77037 12.1996 8.77037 11.5H7.27037ZM4.25 10V13H5.75V10H4.25ZM4.25 13V16H5.75V13H4.25ZM6.52037 12.25H5V13.75H6.52037V12.25ZM5 16.75H6.51984V15.25H5V16.75ZM6.51984 16.75C7.04664 16.75 7.6031 16.5704 8.03774 16.1882C8.48724 15.793 8.77037 15.2113 8.77037 14.5H7.27037C7.27037 14.7887 7.16644 14.957 7.04727 15.0618C6.91324 15.1796 6.71943 15.25 6.51984 15.25V16.75ZM8.77037 14.5C8.77037 13.7912 8.49108 13.2092 8.04174 12.8127C7.60693 12.4289 7.04966 12.25 6.52037 12.25V13.75C6.72473 13.75 6.91745 13.8211 7.04923 13.9373C7.16649 14.0408 7.27037 14.2088 7.27037 14.5H8.77037Z" fill="black"/>
</svg>
