<svg width="24" height="24" viewBox="0 0 24 24" fill="none" xmlns="http://www.w3.org/2000/svg">
<path d="M7.76456 11.6094C7.76456 11.0537 7.26576 10.8324 6.64437 10.8324H6.21928V12.3863C6.34183 12.4024 6.48907 12.4024 6.70182 12.4024C7.26594 12.4024 7.76456 12.1895 7.76456 11.6094Z" fill="black"/>
<path d="M19.7352 9.15398H19.2549V6.83645C19.2549 6.822 19.2526 6.80743 19.2507 6.79277C19.2499 6.70079 19.2207 6.61041 19.1577 6.53877L15.3014 2.13413C15.3003 2.13301 15.2991 2.13261 15.2981 2.13144C15.2753 2.1057 15.2484 2.08435 15.2202 2.06598C15.2118 2.06024 15.2034 2.05552 15.1946 2.05065C15.17 2.03725 15.144 2.02614 15.117 2.01812C15.1097 2.01609 15.1034 2.01322 15.0961 2.01122C15.0672 2.00432 15.0366 2 15.0061 2H5.52948C5.09673 2 4.74517 2.35203 4.74517 2.78435V9.1538H4.26496C3.64601 9.1538 3.14401 9.65558 3.14401 10.2747V16.1043C3.14401 16.7231 3.64597 17.2252 4.26496 17.2252H4.74521V21.2157C4.74521 21.648 5.09677 22 5.52952 22H18.4706C18.903 22 19.255 21.648 19.255 21.2157V17.2254H19.7352C20.3541 17.2254 20.8561 16.7231 20.8561 16.1043V10.2749C20.8561 9.65558 20.354 9.15398 19.7352 9.15398ZM5.52948 2.78435H14.6142V6.79716C14.6142 7.01383 14.7899 7.18932 15.0063 7.18932H18.4706V9.15402H5.52948V2.78435ZM14.5192 15.6466H13.178L12.7529 14.2319H11.175L10.7824 15.6466H9.49047L11.175 10.1355H12.8102L14.5192 15.6466ZM4.98427 15.6221V10.2091C5.31133 10.1436 5.97367 10.0945 6.59502 10.0945C7.3554 10.0945 7.82145 10.1681 8.22203 10.4051C8.60634 10.61 8.88437 10.9861 8.88437 11.4847C8.88437 11.9753 8.5981 12.4335 7.97675 12.6621V12.6786C8.60634 12.8505 9.07242 13.3246 9.07242 14.0362C9.07242 14.5348 8.84359 14.9278 8.50006 15.2054C8.09948 15.5244 7.42889 15.704 6.33325 15.704C5.72011 15.7036 5.26227 15.6627 4.98427 15.6221ZM18.4706 21.0031H5.52948V17.2254H18.4706L18.4706 21.0031ZM18.3138 15.6466L16.9644 13.2672L16.4903 13.8474V15.6466H15.2557V10.1355H16.4903V12.5725H16.5148C16.6374 12.36 16.7684 12.1633 16.8909 11.9673L18.142 10.1355H19.671L17.8477 12.4826L19.7693 15.647L18.3138 15.6466Z" fill="black"/>
<path d="M12.2297 12.1308C12.1315 11.8038 12.0335 11.3948 11.9517 11.0677H11.9354C11.8536 11.3948 11.7719 11.8122 11.6819 12.1308L11.3548 13.3H12.5733L12.2297 12.1308Z" fill="black"/>
<path d="M7.76456 13.987C7.76456 13.431 7.26576 13.21 6.64437 13.21H6.21928V14.7637C6.34183 14.7797 6.48907 14.7797 6.70182 14.7797C7.26594 14.7797 7.76456 14.5672 7.76456 13.987Z" fill="black"/>
</svg>
