<svg width="24" height="24" viewBox="0 0 24 24" fill="none" xmlns="http://www.w3.org/2000/svg">
<path d="M7.41252 11.5475C7.41252 11.0944 7.06588 10.8544 6.45256 10.8544C6.15921 10.8544 5.99076 10.8721 5.87509 10.8897V12.2852H6.31982C7.03042 12.2852 7.41252 11.9922 7.41252 11.5475Z" fill="black"/>
<path d="M7.55473 14.0987C7.55473 13.4944 7.01276 13.2543 6.33731 13.2543H5.87515V14.943C6.00844 14.9607 6.1685 14.9607 6.39947 14.9607C7.01272 14.9607 7.55473 14.7298 7.55473 14.0987Z" fill="black"/>
<path d="M12.4072 12.0816C12.3004 11.7259 12.1939 11.2812 12.1047 10.9257H12.0871C11.9982 11.2812 11.9094 11.7346 11.8117 12.0816L11.4561 13.3523H12.7807L12.4072 12.0816Z" fill="black"/>
<path d="M19.7348 9.15372H19.2546V6.83648C19.2546 6.82193 19.2523 6.80748 19.2504 6.79271C19.2496 6.70079 19.2203 6.61044 19.1573 6.53883L15.3012 2.13413C15.3001 2.133 15.2989 2.13252 15.2981 2.13139C15.2752 2.10571 15.2484 2.08433 15.22 2.06588C15.2116 2.06026 15.2032 2.05555 15.1943 2.05059C15.1698 2.03728 15.1438 2.02608 15.117 2.01802C15.1097 2.01612 15.1032 2.01313 15.096 2.01123C15.0668 2.0043 15.0365 2 15.006 2H5.52907C5.09631 2 4.74478 2.35197 4.74478 2.78433V9.15368H4.26463C3.64573 9.15368 3.14359 9.65546 3.14359 10.2747V16.1042C3.14359 16.7229 3.64573 17.2252 4.26463 17.2252H4.74478V21.2157C4.74478 21.6481 5.09631 22 5.52907 22H18.4703C18.9026 22 19.2546 21.6481 19.2546 21.2157V17.2252H19.7348C20.354 17.2252 20.8557 16.7229 20.8557 16.1042V10.2748C20.8557 9.6555 20.354 9.15372 19.7348 9.15372ZM5.52907 2.78433H14.6138V6.79701C14.6138 7.0138 14.7895 7.18918 15.0059 7.18918H18.4703V9.15387H5.52907V2.78433ZM13.0379 9.91237L14.8952 15.9028H13.438L12.9754 14.3652H11.2606L10.8336 15.9028H9.42966L11.2606 9.91237H13.0379ZM4.53259 15.876V9.99211C4.88868 9.92138 5.6079 9.86805 6.28363 9.86805C7.11009 9.86805 7.61712 9.94808 8.05244 10.2055C8.47025 10.428 8.77242 10.8367 8.77242 11.3789C8.77242 11.912 8.46145 12.4098 7.78597 12.6587V12.6763C8.47025 12.8632 8.97655 13.3783 8.97655 14.1515C8.97655 14.6938 8.72752 15.1202 8.35498 15.4224C7.91904 15.7691 7.19049 15.9648 5.99922 15.9648C5.33261 15.9648 4.83477 15.9205 4.53259 15.876ZM18.4703 21.0031H5.52907V17.2252H18.4703V21.0031ZM19.1082 11.0499H17.4726V15.9028H16.113V11.0499H14.5046V9.91237H19.1082V11.0499Z" fill="black"/>
</svg>
