<svg width="24" height="24" viewBox="0 0 24 24" fill="none" xmlns="http://www.w3.org/2000/svg">
<path d="M8.81716 11.7318C8.81716 11.3144 8.49853 11.0938 7.93405 11.0938C7.66441 11.0938 7.50891 11.1103 7.40287 11.1263V12.4101H7.81149C8.46577 12.4101 8.81716 12.1405 8.81716 11.7318Z" fill="black"/>
<path d="M19.7349 9.15401H19.2546V6.83648C19.2546 6.82204 19.2523 6.80748 19.2504 6.79286C19.2496 6.70082 19.2203 6.61047 19.1573 6.53887L15.3011 2.13413C15.2999 2.133 15.2988 2.13259 15.2978 2.13146C15.275 2.10567 15.248 2.08433 15.2198 2.06599C15.2114 2.06026 15.203 2.05555 15.1942 2.05063C15.1697 2.03728 15.1436 2.02615 15.1167 2.01809C15.1094 2.01609 15.103 2.0132 15.0958 2.01123C15.0669 2.0043 15.0362 2 15.0058 2H5.5291C5.09637 2 4.74481 2.35204 4.74481 2.78433V9.15379H4.26455C3.64561 9.15379 3.14365 9.65557 3.14365 10.2747V16.1042C3.14365 16.7231 3.64561 17.2252 4.26455 17.2252H4.74481V21.2157C4.74481 21.6481 5.09637 22 5.5291 22H18.4703C18.9026 22 19.2546 21.6481 19.2546 21.2157V17.2254H19.7348C20.3537 17.2254 20.8557 16.7231 20.8557 16.1042V10.2749C20.8558 9.65557 20.3537 9.15401 19.7349 9.15401ZM18.4703 21.0031H5.5291V17.2254H18.4703L18.4703 21.0031ZM10.2569 14.1282C10.2569 14.6268 10.0277 15.0193 9.6846 15.2974C9.28379 15.616 8.61342 15.796 7.51775 15.796C6.90447 15.796 6.44661 15.755 6.16829 15.714V10.3011C6.49563 10.2356 7.15776 10.1866 7.77933 10.1866C8.53991 10.1866 9.00558 10.2601 9.40635 10.4971C9.79068 10.702 10.0689 11.0777 10.0689 11.5763C10.0689 12.0674 9.78265 12.525 9.1613 12.7544V12.7702C9.79064 12.9425 10.2569 13.4166 10.2569 14.1282ZM11.108 15.7385V10.2275H12.359V15.7381L11.108 15.7385ZM16.8565 11.8383V10.2275H18.0011V15.7381H16.693L15.5158 13.6123C15.1887 13.0236 14.8287 12.312 14.5591 11.6665L14.5346 11.6742C14.5672 12.4021 14.5836 13.1792 14.5836 14.0783V15.7381H13.4387V10.2275H14.8945L16.0393 12.247C16.366 12.8279 16.693 13.5146 16.9384 14.1361H16.9629C16.881 13.4082 16.8565 12.6641 16.8565 11.8383ZM18.4703 9.15401H5.5291V2.78433H14.6139V6.79712C14.6139 7.01376 14.7896 7.18925 15.006 7.18925H18.4703V9.15401Z" fill="black"/>
<path d="M7.82846 13.3022H7.40317V14.8556C7.5257 14.8724 7.67277 14.8724 7.88532 14.8724C8.4498 14.8724 8.94859 14.6595 8.94859 14.0789C8.94841 13.5229 8.44962 13.3022 7.82846 13.3022Z" fill="black"/>
</svg>
