<svg width="24" height="24" viewBox="0 0 24 24" fill="none" xmlns="http://www.w3.org/2000/svg">
<path d="M7.6062 14.0223C7.6062 13.5135 7.15046 13.3119 6.58169 13.3119H6.19306V14.7331C6.30515 14.7478 6.44008 14.7478 6.63423 14.7478C7.15028 14.7478 7.6062 14.5535 7.6062 14.0223Z" fill="black"/>
<path d="M19.7352 9.15373H19.2549V6.83648C19.2549 6.82192 19.2526 6.80747 19.2507 6.79273C19.2499 6.70072 19.2207 6.61034 19.1577 6.53881L15.3016 2.13413C15.3004 2.1329 15.2993 2.1325 15.2985 2.13137C15.2755 2.1057 15.2487 2.08424 15.2204 2.06587C15.212 2.06013 15.2036 2.05545 15.1948 2.05054C15.1702 2.03725 15.1442 2.02603 15.1174 2.01801C15.1101 2.01609 15.1036 2.01311 15.0963 2.01111C15.0672 2.00432 15.037 2 15.0063 2H5.52948C5.09673 2 4.74517 2.35196 4.74517 2.78435V9.15373H4.26503C3.64597 9.15373 3.14401 9.65547 3.14401 10.2746V16.104C3.14401 16.7229 3.64597 17.2252 4.26503 17.2252H4.74521V21.2157C4.74521 21.648 5.09677 22 5.52952 22H18.4706C18.903 22 19.255 21.648 19.255 21.2157V17.2252H19.7352C20.3541 17.2252 20.8561 16.7231 20.8561 16.1043V10.2749C20.8561 9.65547 20.354 9.15373 19.7352 9.15373ZM5.52948 2.78435H14.6142V6.79705C14.6142 7.01372 14.7899 7.18921 15.0063 7.18921H18.4706V9.15391H5.52948V2.78435ZM15.0339 15.5413H13.9193L13.8442 13.6109C13.822 13.0051 13.7992 12.2721 13.7992 11.5392H13.7771C13.6196 12.1825 13.4104 12.9001 13.2158 13.4917L12.6025 15.4584H11.7129L11.174 13.5064C11.0097 12.9155 10.8374 12.1974 10.718 11.5392H10.7031C10.6733 12.2198 10.6502 12.9978 10.6131 13.6261L10.5235 15.5413H9.46879L9.79047 10.4995H11.3089L11.8026 12.1827C11.9596 12.7659 12.1167 13.394 12.2289 13.9853H12.2515C12.3937 13.4017 12.5657 12.7361 12.73 12.1751L13.2688 10.4996H14.757L15.0339 15.5413ZM5.06303 15.5183V10.5669C5.36241 10.5066 5.96837 10.4619 6.53677 10.4619C7.23223 10.4619 7.65896 10.5294 8.02537 10.7461C8.37693 10.9334 8.63132 11.2773 8.63132 11.7338C8.63132 12.1825 8.36974 12.6013 7.80104 12.8105V12.8255C8.37711 12.9829 8.80325 13.4164 8.80325 14.067C8.80325 14.5235 8.59425 14.8822 8.28012 15.137C7.91324 15.4287 7.29973 15.593 6.29752 15.593C5.73638 15.593 5.31782 15.5556 5.06303 15.5183ZM18.4706 21.0031H5.52948V17.2252H18.4706L18.4706 21.0031ZM19.0653 13.2297C18.6762 13.596 18.1003 13.7609 17.427 13.7609C17.2777 13.7609 17.1429 13.7532 17.0385 13.7387V15.5413H15.9086V10.5669C16.2602 10.5066 16.754 10.4619 17.4496 10.4619C18.1524 10.4619 18.6537 10.5968 18.9903 10.866C19.312 11.1203 19.5291 11.5394 19.5291 12.033C19.5291 12.5266 19.3649 12.9452 19.0653 13.2297Z" fill="black"/>
<path d="M17.5091 11.3224C17.2771 11.3224 17.1204 11.3449 17.038 11.3675V12.8555C17.1353 12.8782 17.2548 12.8854 17.4191 12.8854C18.0253 12.8854 18.3994 12.579 18.3994 12.0628C18.3994 11.5989 18.0778 11.3224 17.5091 11.3224Z" fill="black"/>
<path d="M7.48684 11.8753C7.48684 11.4939 7.19502 11.2915 6.67879 11.2915C6.43206 11.2915 6.28969 11.3065 6.1927 11.3214V12.496H6.56637C7.16528 12.4959 7.48684 12.2497 7.48684 11.8753Z" fill="black"/>
</svg>
