<svg width="24" height="24" viewBox="0 0 24 24" fill="none" xmlns="http://www.w3.org/2000/svg">
<path d="M18.3622 11.7294C18.3622 11.2862 18.0231 11.0513 17.4239 11.0513C17.1375 11.0513 16.9719 11.0688 16.8592 11.0863V12.4501H17.2933C17.9888 12.4501 18.3622 12.1635 18.3622 11.7294Z" fill="black"/>
<path d="M17.311 13.397H16.8593V15.048C16.9893 15.0656 17.146 15.0656 17.3717 15.0656C17.9714 15.0656 18.5012 14.8393 18.5012 14.2225C18.5012 13.6318 17.9714 13.397 17.311 13.397Z" fill="black"/>
<path d="M19.7352 9.15391H19.2549V6.8367C19.2549 6.82225 19.2526 6.80769 19.2507 6.79306C19.25 6.70104 19.2207 6.61067 19.1577 6.53906L15.3016 2.13413C15.3004 2.13301 15.2993 2.13261 15.2985 2.13137C15.2755 2.1057 15.2487 2.08435 15.2204 2.06587C15.212 2.06024 15.2036 2.05552 15.1948 2.05065C15.1702 2.03725 15.1442 2.02614 15.1174 2.01812C15.1101 2.01609 15.1036 2.01311 15.0963 2.01122C15.0672 2.00432 15.037 2 15.0063 2H5.52949C5.09674 2 4.74518 2.35196 4.74518 2.78435V9.15373H4.26505C3.64599 9.15373 3.14403 9.65547 3.14403 10.2747V16.1043C3.14403 16.7231 3.64599 17.2252 4.26505 17.2252H4.74522V21.2157C4.74522 21.648 5.09678 22 5.52953 22H18.4707C18.903 22 19.255 21.648 19.255 21.2157V17.2252H19.7352C20.3541 17.2252 20.8562 16.7231 20.8562 16.1043V10.2749C20.8561 9.65569 20.3541 9.15391 19.7352 9.15391ZM5.52949 2.78449H14.6142V6.7973C14.6142 7.01397 14.79 7.18946 15.0063 7.18946H18.4706V9.15416H5.52949V2.78449ZM14.7647 15.9863H13.3391L12.8874 14.4833H11.2105L10.7936 15.9863H9.42091L11.2105 10.1305H12.9481L14.7647 15.9863ZM4.31973 13.1454C4.31973 11.1468 5.74504 10.0345 7.51776 10.0345C8.20367 10.0345 8.72516 10.1735 8.95991 10.2953L8.6907 11.3466C8.4211 11.2336 8.04779 11.1294 7.57858 11.1294C6.52713 11.1294 5.7101 11.7635 5.7101 13.0669C5.7101 14.24 6.40567 14.9783 7.587 14.9783C7.98682 14.9783 8.42992 14.8918 8.6907 14.7876L8.89012 15.8214C8.64695 15.943 8.09949 16.0732 7.38715 16.0732C5.36261 16.0728 4.31973 14.8133 4.31973 13.1454ZM18.4707 21.0033H5.52949V17.2252H18.4706L18.4707 21.0033ZM19.2833 15.5172C18.8574 15.8563 18.1446 16.0472 16.9805 16.0472C16.3291 16.0472 15.8423 16.0038 15.5469 15.9604V10.2081C15.8941 10.1387 16.5981 10.0865 17.2588 10.0865C18.0666 10.0865 18.5618 10.1647 18.9873 10.4171C19.3959 10.6339 19.6912 11.0338 19.6912 11.5637C19.6912 12.085 19.3871 12.5717 18.7269 12.8149V12.8323C19.3959 13.0148 19.8911 13.5188 19.8911 14.2744C19.8914 14.8048 19.6483 15.2215 19.2833 15.5172Z" fill="black"/>
<path d="M12.332 12.2497C12.2272 11.9022 12.1231 11.4681 12.0362 11.1206H12.0188C11.9321 11.4681 11.8453 11.9112 11.7496 12.2497L11.4024 13.4924H12.697L12.332 12.2497Z" fill="black"/>
</svg>
