<svg width="24" height="24" viewBox="0 0 24 24" fill="none" xmlns="http://www.w3.org/2000/svg">
<path d="M19 20V20.75H19.7424L19.75 20.0076L19 20ZM5 20H4.25V20.75H5V20ZM5 4V3.25H4.25V4H5ZM16 4L16.5303 3.46967L16.3107 3.25H16V4ZM19 7L19.75 7V6.68934L19.5303 6.46967L19 7ZM8.96904 15.8181C8.86858 16.2199 9.1129 16.6271 9.51475 16.7276C9.91659 16.8281 10.3238 16.5837 10.4243 16.1819L8.96904 15.8181ZM11.1966 10V9.25C10.8525 9.25 10.5525 9.48422 10.469 9.8181L11.1966 10ZM12.1966 10L12.9243 9.8181C12.8408 9.48422 12.5408 9.25 12.1966 9.25V10ZM12.969 16.1819C13.0695 16.5837 13.4767 16.8281 13.8786 16.7276C14.2804 16.6271 14.5247 16.2199 14.4243 15.8181L12.969 16.1819ZM16 10V9.25H15.25V10H16ZM16 16H15.25V16.75H16V16ZM17.5198 16V15.25V16ZM19 19.25H5V20.75H19V19.25ZM5 4.75H16V3.25H5V4.75ZM15.4697 4.53033L18.4697 7.53033L19.5303 6.46967L16.5303 3.46967L15.4697 4.53033ZM5.75 8V4H4.25V8H5.75ZM5.75 20V18H4.25V20H5.75ZM18.25 7L18.25 8L19.75 8L19.75 7L18.25 7ZM18.2704 17.9924L18.25 19.9924L19.75 20.0076L19.7703 18.0076L18.2704 17.9924ZM10.4243 16.1819L10.9243 14.1819L9.46904 13.8181L8.96904 15.8181L10.4243 16.1819ZM10.9243 14.1819L11.9243 10.1819L10.469 9.8181L9.46904 13.8181L10.9243 14.1819ZM11.1966 10.75H12.1966V9.25H11.1966V10.75ZM11.469 10.1819L12.469 14.1819L13.9243 13.8181L12.9243 9.8181L11.469 10.1819ZM12.469 14.1819L12.969 16.1819L14.4243 15.8181L13.9243 13.8181L12.469 14.1819ZM10.1966 14.75H13.1966V13.25H10.1966V14.75ZM16 10.75H17.5204V9.25H16V10.75ZM17.5204 10.75C17.7435 10.75 17.9326 10.8237 18.0563 10.9342C18.1668 11.0329 18.2704 11.1996 18.2704 11.5H19.7704C19.7704 10.8004 19.5049 10.2171 19.0558 9.81576C18.62 9.42632 18.0592 9.25 17.5204 9.25V10.75ZM18.2704 11.5C18.2704 11.8004 18.1668 11.9671 18.0563 12.0658C17.9326 12.1763 17.7435 12.25 17.5204 12.25V13.75C18.0592 13.75 18.62 13.5737 19.0558 13.1842C19.5049 12.7829 19.7704 12.1996 19.7704 11.5H18.2704ZM15.25 10V13H16.75V10H15.25ZM15.25 13V16H16.75V13H15.25ZM17.5204 12.25H16V13.75H17.5204V12.25ZM16 16.75H17.5198V15.25H16V16.75ZM17.5198 16.75C18.0466 16.75 18.6031 16.5704 19.0377 16.1882C19.4872 15.793 19.7704 15.2113 19.7704 14.5H18.2704C18.2704 14.7887 18.1664 14.957 18.0473 15.0618C17.9132 15.1796 17.7194 15.25 17.5198 15.25V16.75ZM19.7704 14.5C19.7704 13.7912 19.4911 13.2092 19.0417 12.8127C18.6069 12.4289 18.0497 12.25 17.5204 12.25V13.75C17.7247 13.75 17.9175 13.8211 18.0492 13.9373C18.1665 14.0408 18.2704 14.2088 18.2704 14.5H19.7704ZM6.5 9.25C5.37598 9.25 4.25 10.174 4.25 11.5H5.75C5.75 11.0806 6.12402 10.75 6.5 10.75V9.25ZM4.25 11.5V14.5H5.75V11.5H4.25ZM4.25 14.5C4.25 15.2035 4.52128 15.7863 4.97048 16.1856C5.40587 16.5726 5.9652 16.75 6.5 16.75V15.25C6.2848 15.25 6.09413 15.1774 5.96702 15.0644C5.85372 14.9637 5.75 14.7965 5.75 14.5H4.25ZM8.75 11.6364C8.75 10.9091 8.49475 10.2987 8.05336 9.87067C7.62078 9.45119 7.05344 9.25 6.5 9.25V10.75C6.69656 10.75 6.87922 10.8215 7.00914 10.9475C7.13025 11.065 7.25 11.2727 7.25 11.6364H8.75ZM6.5 16.75C7.05344 16.75 7.62078 16.5488 8.05336 16.1293C8.49475 15.7013 8.75 15.0909 8.75 14.3636H7.25C7.25 14.7273 7.13025 14.935 7.00914 15.0525C6.87922 15.1785 6.69656 15.25 6.5 15.25V16.75Z" fill="black"/>
</svg>
