<svg width="24" height="24" viewBox="0 0 24 24" fill="none" xmlns="http://www.w3.org/2000/svg">
<path d="M11.9268 12.4629C11.8264 12.1281 11.726 11.7099 11.6421 11.3752H11.6257C11.5421 11.7099 11.4586 12.1366 11.3664 12.4629L11.0318 13.6598H12.2785L11.9268 12.4629Z" fill="black"/>
<path d="M19.7348 9.1539H19.2546V6.8367C19.2546 6.82215 19.2523 6.8077 19.2504 6.79293C19.2496 6.70093 19.2203 6.61054 19.1573 6.53905L15.3013 2.13405C15.3 2.13292 15.2989 2.13252 15.2982 2.13139C15.2752 2.10571 15.2484 2.08426 15.22 2.06588C15.2116 2.06015 15.2032 2.05545 15.1944 2.05059C15.1699 2.03728 15.1438 2.02608 15.117 2.01802C15.1097 2.01612 15.1032 2.01313 15.096 2.01116C15.0668 2.0043 15.0366 2 15.006 2H5.52907C5.09634 2 4.74478 2.35197 4.74478 2.78433V9.15368H4.2646C3.64554 9.15368 3.14359 9.65546 3.14359 10.2746V16.104C3.14359 16.7229 3.64554 17.2252 4.2646 17.2252H4.74478V21.2157C4.74478 21.6481 5.09634 22 5.52907 22H18.4702C18.9026 22 19.2545 21.6481 19.2545 21.2157V17.2252H19.7348C20.3536 17.2252 20.8557 16.7231 20.8557 16.1042V10.2748C20.8557 9.65568 20.3537 9.1539 19.7348 9.1539ZM5.52907 2.78451H14.6138V6.7972C14.6138 7.01387 14.7895 7.18936 15.006 7.18936H18.4703V9.15405H5.52907V2.78451ZM14.2704 16.0616H12.8979L12.4623 14.613H10.8472L10.446 16.0616H9.1234L10.8472 10.4204H12.5213L14.2704 16.0616ZM4.20984 13.3249C4.20984 11.3998 5.58222 10.3286 7.28989 10.3286C7.95085 10.3286 8.45361 10.4627 8.67937 10.5794L8.42009 11.5923C8.16023 11.4831 7.80067 11.3833 7.34894 11.3833C6.33579 11.3833 5.54869 11.9937 5.54869 13.2496C5.54869 14.379 6.2187 15.0905 7.35638 15.0905C7.74206 15.0905 8.16876 15.0071 8.42009 14.9067L8.61225 15.9028C8.37818 16.02 7.8509 16.1451 7.16448 16.1451C5.21402 16.145 4.20984 14.9316 4.20984 13.3249ZM18.4703 21.0033H5.52907V17.2252H18.4702L18.4703 21.0033ZM19.0749 15.3917C18.4806 15.8859 17.5766 16.1201 16.4723 16.1201C15.8113 16.1201 15.3425 16.078 15.0244 16.0363V10.4961C15.4931 10.4206 16.1039 10.3788 16.7484 10.3788C17.8196 10.3788 18.5139 10.571 19.0579 10.9811C19.644 11.417 20.0123 12.1115 20.0123 13.1076C20.0123 14.1867 19.619 14.9316 19.0749 15.3917Z" fill="black"/>
<path d="M16.8827 11.3582C16.5983 11.3582 16.4138 11.3834 16.3052 11.4083V15.0989C16.4141 15.1242 16.59 15.1242 16.7489 15.1242C17.904 15.1326 18.6568 14.4967 18.6568 13.1494C18.6652 11.9773 17.9793 11.3582 16.8827 11.3582Z" fill="black"/>
</svg>
