<svg width="24" height="24" viewBox="0 0 24 24" fill="none" xmlns="http://www.w3.org/2000/svg">
<path d="M19 20V20.75H19.75V20H19ZM5 20H4.25V20.75H5V20ZM5 4V3.25H4.25V4H5ZM16 4L16.5303 3.46967L16.3107 3.25H16V4ZM19 7L19.75 7V6.68934L19.5303 6.46967L19 7ZM9.27239 15.8181C9.17193 16.2199 9.41625 16.6271 9.8181 16.7276C10.2199 16.8281 10.6271 16.5837 10.7276 16.1819L9.27239 15.8181ZM11.5 10V9.25C11.1558 9.25 10.8559 9.48422 10.7724 9.8181L11.5 10ZM12.5 10L13.2276 9.8181C13.1441 9.48422 12.8442 9.25 12.5 9.25V10ZM13.2724 16.1819C13.3729 16.5837 13.7801 16.8281 14.1819 16.7276C14.5837 16.6271 14.8281 16.2199 14.7276 15.8181L13.2724 16.1819ZM16 16H15.25V16.75H16V16ZM16 10V9.25L15.25 9.25V10H16ZM17.9 10V9.25V10ZM19 19.25H5V20.75H19V19.25ZM5 4.75H16V3.25H5V4.75ZM15.4697 4.53033L18.4697 7.53033L19.5303 6.46967L16.5303 3.46967L15.4697 4.53033ZM5.75 8V4H4.25V8H5.75ZM5.75 20V18H4.25V20H5.75ZM18.25 7L18.25 8L19.75 8L19.75 7L18.25 7ZM18.25 18V20H19.75V18H18.25ZM10.7276 16.1819L11.2276 14.1819L9.77239 13.8181L9.27239 15.8181L10.7276 16.1819ZM11.2276 14.1819L12.2276 10.1819L10.7724 9.8181L9.77239 13.8181L11.2276 14.1819ZM11.5 10.75H12.5V9.25H11.5V10.75ZM11.7724 10.1819L12.7724 14.1819L14.2276 13.8181L13.2276 9.8181L11.7724 10.1819ZM12.7724 14.1819L13.2724 16.1819L14.7276 15.8181L14.2276 13.8181L12.7724 14.1819ZM10.5 14.75H13.5V13.25H10.5V14.75ZM16.75 16V10H15.25V16H16.75ZM16 10.75L17.9 10.75V9.25L16 9.25V10.75ZM17.9 10.75C18.056 10.75 18.2997 10.7997 18.4804 10.9216C18.621 11.0165 18.75 11.1655 18.75 11.5H20.25C20.25 10.6345 19.8457 10.0335 19.3196 9.67836C18.8336 9.35032 18.2773 9.25 17.9 9.25V10.75ZM18.75 11.5V14.5H20.25V11.5H18.75ZM18.75 14.5C18.75 14.6198 18.7051 14.8245 18.5852 14.9807C18.4922 15.1018 18.3153 15.25 17.9 15.25V16.75C18.7647 16.75 19.3878 16.3982 19.7748 15.8943C20.1349 15.4255 20.25 14.8802 20.25 14.5H18.75ZM17.9 15.25H16V16.75H17.9V15.25ZM6.5 9.25C5.37598 9.25 4.25 10.174 4.25 11.5H5.75C5.75 11.0806 6.12402 10.75 6.5 10.75V9.25ZM4.25 11.5V14.5H5.75V11.5H4.25ZM4.25 14.5C4.25 15.2035 4.52128 15.7863 4.97048 16.1856C5.40587 16.5726 5.9652 16.75 6.5 16.75V15.25C6.2848 15.25 6.09413 15.1774 5.96702 15.0644C5.85372 14.9637 5.75 14.7965 5.75 14.5H4.25ZM8.75 11.6364C8.75 10.9091 8.49475 10.2987 8.05336 9.87067C7.62078 9.45119 7.05344 9.25 6.5 9.25V10.75C6.69656 10.75 6.87922 10.8215 7.00914 10.9475C7.13025 11.065 7.25 11.2727 7.25 11.6364H8.75ZM6.5 16.75C7.05344 16.75 7.62078 16.5488 8.05336 16.1293C8.49475 15.7013 8.75 15.0909 8.75 14.3636H7.25C7.25 14.7273 7.13025 14.935 7.00914 15.0525C6.87922 15.1785 6.69656 15.25 6.5 15.25V16.75Z" fill="black"/>
</svg>
