<svg width="24" height="24" viewBox="0 0 24 24" fill="none" xmlns="http://www.w3.org/2000/svg">
<path d="M11.311 11.0619C11.0291 11.0619 10.8465 11.087 10.7387 11.1119V14.769C10.8467 14.7941 11.0211 14.7941 11.1786 14.7941C12.3227 14.8022 13.0692 14.1716 13.0692 12.8366C13.0774 11.6756 12.3977 11.0619 11.311 11.0619Z" fill="black"/>
<path d="M19.7348 9.1539H19.2546V6.83648C19.2546 6.82193 19.2523 6.80748 19.2504 6.79271C19.2496 6.70079 19.2203 6.61033 19.1573 6.53883L15.3012 2.13413C15.3001 2.13289 15.2989 2.13252 15.2981 2.13139C15.2752 2.1056 15.2484 2.08426 15.22 2.06588C15.2116 2.06015 15.2032 2.05545 15.1943 2.05059C15.1698 2.03728 15.1438 2.02608 15.117 2.01802C15.1097 2.01612 15.1032 2.01313 15.096 2.01116C15.0668 2.0043 15.0365 2 15.006 2H5.52907C5.09631 2 4.74478 2.35197 4.74478 2.78433V9.15368H4.26463C3.64554 9.15368 3.14359 9.65546 3.14359 10.2746V16.104C3.14359 16.7229 3.64554 17.2252 4.26463 17.2252H4.74478V21.2157C4.74478 21.6481 5.09631 22 5.52907 22H18.4703C18.9026 22 19.2546 21.6481 19.2546 21.2157V17.2252H19.7348C20.3536 17.2252 20.8557 16.7231 20.8557 16.1042V10.2748C20.8557 9.6555 20.3536 9.1539 19.7348 9.1539ZM5.52907 2.78433H14.6138V6.79701C14.6138 7.01369 14.7895 7.18918 15.0059 7.18918H18.4703V9.15387H5.52907V2.78433ZM14.4123 12.795C14.4123 13.8652 14.0227 14.6031 13.4839 15.0592C12.895 15.5489 11.9991 15.7806 10.9044 15.7806C10.2495 15.7806 9.78513 15.7397 9.46968 15.6979V10.2076C9.93421 10.133 10.5395 10.0916 11.1783 10.0916C12.2395 10.0916 12.9279 10.2823 13.4672 10.6885C14.0478 11.12 14.4123 11.8084 14.4123 12.795ZM4.27755 13.0107C4.27755 11.1031 5.63774 10.0417 7.32972 10.0417C7.98459 10.0417 8.48243 10.1743 8.70636 10.2905L8.44913 11.2939C8.19204 11.1865 7.8358 11.0868 7.38794 11.0868C6.38427 11.0868 5.60483 11.6921 5.60483 12.9359C5.60483 14.0557 6.26813 14.7608 7.39574 14.7608C7.77722 14.7608 8.20046 14.678 8.44913 14.5781L8.64008 15.5654C8.40754 15.681 7.88519 15.8055 7.20541 15.8055C5.27289 15.8055 4.27755 14.6031 4.27755 13.0107ZM18.4703 21.0031H5.52907V17.2252H18.4703V21.0031ZM18.17 15.7229C18.0793 15.5654 17.9465 15.1089 17.7807 14.4206C17.6311 13.7237 17.3909 13.533 16.8765 13.525H16.4953V15.7229H15.243V10.2078C15.6496 10.1417 16.2548 10.0918 16.9265 10.0918C17.7556 10.0918 18.3362 10.2157 18.7345 10.5311C19.0659 10.7966 19.2484 11.1865 19.2484 11.7003C19.2484 12.4136 18.7425 12.9031 18.2615 13.0773V13.1018C18.6517 13.2593 18.867 13.6326 19.0079 14.1469C19.1825 14.7774 19.3564 15.5072 19.4644 15.7228L18.17 15.7229Z" fill="black"/>
<path d="M17.0679 11.0286C16.761 11.0286 16.5869 11.0533 16.4954 11.07V12.6126H16.9932C17.6236 12.6126 17.9966 12.2968 17.9966 11.8079C17.9966 11.2935 17.6481 11.0366 17.0679 11.0286Z" fill="black"/>
</svg>
