<svg width="24" height="24" viewBox="0 0 24 24" fill="none" xmlns="http://www.w3.org/2000/svg">
<path d="M19.7352 9.15391H19.255V6.8367C19.255 6.82214 19.2527 6.80769 19.2508 6.79295C19.25 6.70104 19.2205 6.61063 19.1577 6.53906L15.3016 2.13413C15.3005 2.13301 15.2993 2.1325 15.2986 2.13137C15.2756 2.1057 15.2488 2.08435 15.2205 2.06587C15.212 2.06024 15.2036 2.05545 15.1948 2.05054C15.1703 2.03725 15.1442 2.02603 15.1174 2.01801C15.1102 2.01609 15.1037 2.01311 15.0964 2.01118C15.0673 2.00432 15.037 2 15.0063 2H5.52955C5.0968 2 4.74524 2.35196 4.74524 2.78435V9.15373H4.26499C3.64622 9.15373 3.14404 9.65547 3.14404 10.2747V16.1043C3.14404 16.7229 3.64622 17.2252 4.26499 17.2252H4.74524V21.2157C4.74524 21.648 5.0968 22 5.52955 22H18.4707C18.903 22 19.255 21.648 19.255 21.2157V17.2252H19.7353C20.3545 17.2252 20.8562 16.7231 20.8562 16.1043V10.2749C20.8561 9.65547 20.3544 9.15391 19.7352 9.15391ZM5.52955 2.78449H14.6142V6.7972C14.6142 7.01386 14.79 7.18935 15.0064 7.18935H18.4707V9.15405H5.52955V2.78449ZM13.5553 12.4393V13.5525H11.3279V14.9892H13.8157V16.1119H9.9544V10.0596H13.6898V11.1816H11.3279V12.4393H13.5553ZM4.33325 13.1757C4.33325 11.1098 5.80663 9.96041 7.63851 9.96041C8.34776 9.96041 8.88611 10.1043 9.12873 10.2298L8.8507 11.3167C8.57191 11.1996 8.18578 11.0922 7.70143 11.0922C6.61458 11.0922 5.77054 11.7476 5.77054 13.0945C5.77054 14.307 6.48858 15.0698 7.71033 15.0698C8.12347 15.0698 8.5815 14.9798 8.8507 14.8722L9.05713 15.9411C8.80561 16.0667 8.23949 16.2019 7.50383 16.2019C5.41168 16.2019 4.33325 14.8996 4.33325 13.1757ZM18.4707 21.0033H5.52955V17.2252H18.4707V21.0033ZM17.9188 16.1119C17.82 15.9411 17.6768 15.4471 17.4968 14.7018C17.3354 13.9474 17.075 13.741 16.5181 13.7322H16.1051V16.1119H14.7494V10.1399C15.1892 10.068 15.845 10.0139 16.5719 10.0139C17.47 10.0139 18.0984 10.1488 18.5294 10.49C18.889 10.7777 19.0863 11.1994 19.0863 11.7564C19.0863 12.5285 18.5386 13.0581 18.018 13.2465V13.2741C18.4398 13.4445 18.6736 13.8493 18.8264 14.4054C19.0148 15.0878 19.2033 15.8783 19.3201 16.1119L17.9188 16.1119Z" fill="black"/>
<path d="M16.7239 11.0285C16.3919 11.0285 16.2031 11.0554 16.1043 11.0736V12.7436H16.6428C17.326 12.7436 17.73 12.4026 17.73 11.8726C17.73 11.3162 17.3528 11.0375 16.7239 11.0285Z" fill="black"/>
</svg>
