<svg width="24" height="24" viewBox="0 0 24 24" fill="none" xmlns="http://www.w3.org/2000/svg">
<path d="M19 20V20.75H19.75V20H19ZM5 20H4.25V20.75H5V20ZM5 4V3.25H4.25V4H5ZM16 4L16.5303 3.46967L16.3107 3.25H16V4ZM19 7L19.75 7V6.68934L19.5303 6.46967L19 7ZM10 10V9.25H9.25V10H10ZM10 16H9.25V16.75H10V16ZM13 10.75C13.4142 10.75 13.75 10.4142 13.75 10C13.75 9.58579 13.4142 9.25 13 9.25V10.75ZM12.5 13.75C12.9142 13.75 13.25 13.4142 13.25 13C13.25 12.5858 12.9142 12.25 12.5 12.25V13.75ZM13 16.75C13.4142 16.75 13.75 16.4142 13.75 16C13.75 15.5858 13.4142 15.25 13 15.25V16.75ZM16.5 13.5L16.5483 12.7516L16.5242 12.75H16.5V13.5ZM15 10V9.25C14.5858 9.25 14.25 9.58579 14.25 10H15ZM14.25 16C14.25 16.4142 14.5858 16.75 15 16.75C15.4142 16.75 15.75 16.4142 15.75 16H14.25ZM17.7083 13.1828C17.5581 12.7968 17.1234 12.6056 16.7373 12.7559C16.3513 12.9061 16.1602 13.3408 16.3105 13.7268L17.7083 13.1828ZM17.3011 16.272C17.4513 16.658 17.886 16.8491 18.272 16.6989C18.658 16.5487 18.8492 16.1139 18.6989 15.7279L17.3011 16.272ZM19 19.25H5V20.75H19V19.25ZM5 4.75H16V3.25H5V4.75ZM15.4697 4.53033L18.4697 7.53033L19.5303 6.46967L16.5303 3.46967L15.4697 4.53033ZM5.75 8V4H4.25V8H5.75ZM5.75 20V18H4.25V20H5.75ZM18.25 7L18.25 8L19.75 8L19.75 7L18.25 7ZM18.25 18V20H19.75V18H18.25ZM9.25 10V13H10.75V10H9.25ZM9.25 13V16H10.75V13H9.25ZM10 10.75H13V9.25H10V10.75ZM10 13.75H12.5V12.25H10V13.75ZM10 16.75H13V15.25H10V16.75ZM15 14.25H16.5V12.75H15V14.25ZM16.5 13.5C16.4517 14.2484 16.452 14.2485 16.4524 14.2485C16.4525 14.2485 16.4528 14.2485 16.4531 14.2485C16.4536 14.2486 16.4541 14.2486 16.4546 14.2486C16.4557 14.2487 16.4568 14.2488 16.4581 14.2488C16.4606 14.249 16.4635 14.2491 16.4668 14.2493C16.4734 14.2496 16.4815 14.25 16.491 14.2503C16.5099 14.251 16.5346 14.2515 16.5643 14.2515C16.6234 14.2515 16.7036 14.2494 16.7984 14.2413C16.9834 14.2254 17.2458 14.185 17.5201 14.0791C17.7956 13.9728 18.1112 13.7891 18.3579 13.4716C18.6116 13.145 18.75 12.7311 18.75 12.2452H17.25C17.25 12.4351 17.2009 12.5159 17.1734 12.5513C17.1388 12.5958 17.0794 12.6414 16.9799 12.6798C16.8792 12.7187 16.7666 12.7385 16.6704 12.7467C16.6245 12.7507 16.5876 12.7515 16.5646 12.7515C16.5533 12.7515 16.5457 12.7513 16.5427 12.7512C16.5412 12.7512 16.5409 12.7511 16.5418 12.7512C16.5422 12.7512 16.543 12.7512 16.5441 12.7513C16.5446 12.7513 16.5452 12.7514 16.5459 12.7514C16.5463 12.7514 16.5467 12.7515 16.5471 12.7515C16.5473 12.7515 16.5476 12.7515 16.5477 12.7515C16.548 12.7515 16.5483 12.7516 16.5 13.5ZM18 12.2452C18.75 12.2452 18.75 12.2452 18.75 12.2452C18.75 12.2452 18.75 12.2452 18.75 12.2452C18.75 12.2452 18.75 12.2452 18.75 12.2451C18.75 12.2451 18.75 12.2451 18.75 12.2451C18.75 12.2451 18.75 12.2451 18.75 12.2451C18.75 12.2451 18.75 12.245 18.75 12.245C18.75 12.245 18.75 12.245 18.75 12.245C18.75 12.2449 18.75 12.2449 18.75 12.2449C18.75 12.2449 18.75 12.2448 18.75 12.2448C18.75 12.2448 18.75 12.2447 18.75 12.2447C18.75 12.2447 18.75 12.2446 18.75 12.2446C18.75 12.2446 18.75 12.2445 18.75 12.2445C18.75 12.2445 18.75 12.2444 18.75 12.2444C18.75 12.2443 18.75 12.2443 18.75 12.2442C18.75 12.2442 18.75 12.2442 18.75 12.2441C18.75 12.2441 18.75 12.244 18.75 12.244C18.75 12.2439 18.75 12.2438 18.75 12.2438C18.75 12.2437 18.75 12.2437 18.75 12.2436C18.75 12.2436 18.75 12.2435 18.75 12.2434C18.75 12.2434 18.75 12.2433 18.75 12.2433C18.75 12.2432 18.75 12.2431 18.75 12.2431C18.75 12.243 18.75 12.2429 18.75 12.2429C18.75 12.2428 18.75 12.2427 18.75 12.2426C18.75 12.2426 18.75 12.2425 18.75 12.2424C18.75 12.2423 18.75 12.2423 18.75 12.2422C18.75 12.2421 18.75 12.242 18.75 12.2419C18.75 12.2419 18.75 12.2418 18.75 12.2417C18.75 12.2416 18.75 12.2415 18.75 12.2414C18.75 12.2413 18.75 12.2412 18.75 12.2411C18.75 12.2411 18.75 12.241 18.75 12.2409C18.75 12.2408 18.75 12.2407 18.75 12.2406C18.75 12.2405 18.75 12.2404 18.75 12.2403C18.75 12.2402 18.75 12.2401 18.75 12.24C18.75 12.2399 18.75 12.2398 18.75 12.2396C18.75 12.2395 18.75 12.2394 18.75 12.2393C18.75 12.2392 18.75 12.2391 18.75 12.239C18.75 12.2389 18.75 12.2387 18.75 12.2386C18.75 12.2385 18.75 12.2384 18.75 12.2383C18.75 12.2382 18.75 12.238 18.75 12.2379C18.75 12.2378 18.75 12.2377 18.75 12.2375C18.75 12.2374 18.75 12.2373 18.75 12.2371C18.75 12.237 18.75 12.2369 18.75 12.2368C18.75 12.2366 18.75 12.2365 18.75 12.2363C18.75 12.2362 18.75 12.2361 18.75 12.2359C18.75 12.2358 18.75 12.2357 18.75 12.2355C18.75 12.2354 18.75 12.2352 18.75 12.2351C18.75 12.2349 18.75 12.2348 18.75 12.2346C18.75 12.2345 18.75 12.2343 18.75 12.2342C18.75 12.234 18.75 12.2339 18.75 12.2337C18.75 12.2336 18.75 12.2334 18.75 12.2333C18.75 12.2331 18.75 12.2329 18.75 12.2328C18.75 12.2326 18.75 12.2325 18.75 12.2323C18.75 12.2321 18.75 12.232 18.75 12.2318C18.75 12.2316 18.75 12.2315 18.75 12.2313C18.75 12.2311 18.75 12.231 18.75 12.2308C18.75 12.2306 18.75 12.2304 18.75 12.2303C18.75 12.2301 18.75 12.2299 18.75 12.2297C18.75 12.2295 18.75 12.2294 18.75 12.2292C18.75 12.229 18.75 12.2288 18.75 12.2286C18.75 12.2284 18.75 12.2283 18.75 12.2281C18.75 12.2279 18.75 12.2277 18.75 12.2275C18.75 12.2273 18.75 12.2271 18.75 12.2269C18.75 12.2267 18.75 12.2265 18.75 12.2263C18.75 12.2261 18.75 12.2259 18.75 12.2257C18.75 12.2255 18.75 12.2253 18.75 12.2251C18.75 12.2249 18.75 12.2247 18.75 12.2245C18.75 12.2243 18.75 12.2241 18.75 12.2239C18.75 12.2237 18.75 12.2235 18.75 12.2233C18.75 12.223 18.75 12.2228 18.75 12.2226C18.75 12.2224 18.75 12.2222 18.75 12.222C18.75 12.2217 18.75 12.2215 18.75 12.2213C18.75 12.2211 18.75 12.2209 18.75 12.2206C18.75 12.2204 18.75 12.2202 18.75 12.22C18.75 12.2197 18.75 12.2195 18.75 12.2193C18.75 12.219 18.75 12.2188 18.75 12.2186C18.75 12.2183 18.75 12.2181 18.75 12.2179C18.75 12.2176 18.75 12.2174 18.75 12.2172C18.75 12.2169 18.75 12.2167 18.75 12.2164C18.75 12.2162 18.75 12.2159 18.75 12.2157C18.75 12.2155 18.75 12.2152 18.75 12.215C18.75 12.2147 18.75 12.2145 18.75 12.2142C18.75 12.214 18.75 12.2137 18.75 12.2135C18.75 12.2132 18.75 12.2129 18.75 12.2127C18.75 12.2124 18.75 12.2122 18.75 12.2119C18.75 12.2116 18.75 12.2114 18.75 12.2111C18.75 12.2109 18.75 12.2106 18.75 12.2103C18.75 12.2101 18.75 12.2098 18.75 12.2095C18.75 12.2093 18.75 12.209 18.75 12.2087C18.75 12.2084 18.75 12.2082 18.75 12.2079C18.75 12.2076 18.75 12.2073 18.75 12.2071C18.75 12.2068 18.75 12.2065 18.75 12.2062C18.75 12.2059 18.75 12.2057 18.75 12.2054C18.75 12.2051 18.75 12.2048 18.75 12.2045C18.75 12.2042 18.75 12.2039 18.75 12.2036C18.75 12.2034 18.75 12.2031 18.75 12.2028C18.75 12.2025 18.75 12.2022 18.75 12.2019C18.75 12.2016 18.75 12.2013 18.75 12.201C18.75 12.2007 18.75 12.2004 18.75 12.2001C18.75 12.1998 18.75 12.1995 18.75 12.1992C18.75 12.1989 18.75 12.1986 18.75 12.1983C18.75 12.198 18.75 12.1977 18.75 12.1973C18.75 12.197 18.75 12.1967 18.75 12.1964C18.75 12.1961 18.75 12.1958 18.75 12.1955C18.75 12.1951 18.75 12.1948 18.75 12.1945C18.75 12.1942 18.75 12.1939 18.75 12.1936C18.75 12.1932 18.75 12.1929 18.75 12.1926C18.75 12.1923 18.75 12.1919 18.75 12.1916C18.75 12.1913 18.75 12.1909 18.75 12.1906C18.75 12.1903 18.75 12.1899 18.75 12.1896C18.75 12.1893 18.75 12.1889 18.75 12.1886C18.75 12.1883 18.75 12.1879 18.75 12.1876C18.75 12.1873 18.75 12.1869 18.75 12.1866C18.75 12.1862 18.75 12.1859 18.75 12.1855C18.75 12.1852 18.75 12.1849 18.75 12.1845C18.75 12.1842 18.75 12.1838 18.75 12.1835C18.75 12.1831 18.75 12.1828 18.75 12.1824C18.75 12.182 18.75 12.1817 18.75 12.1813C18.75 12.181 18.75 12.1806 18.75 12.1803C18.75 12.1799 18.75 12.1795 18.75 12.1792C18.75 12.1788 18.75 12.1784 18.75 12.1781C18.75 12.1777 18.75 12.1774 18.75 12.177C18.75 12.1766 18.75 12.1762 18.75 12.1759C18.75 12.1755 18.75 12.1751 18.75 12.1748C18.75 12.1744 18.75 12.174 18.75 12.1736C18.75 12.1733 18.75 12.1729 18.75 12.1725C18.75 12.1721 18.75 12.1717 18.75 12.1714C18.75 12.171 18.75 12.1706 18.75 12.1702C18.75 12.1698 18.75 12.1694 18.75 12.169C18.75 12.1687 18.75 12.1683 18.75 12.1679C18.75 12.1675 18.75 12.1671 18.75 12.1667C18.75 12.1663 18.75 12.1659 18.75 12.1655C18.75 12.1651 18.75 12.1647 18.75 12.1643C18.75 12.1639 18.75 12.1635 18.75 12.1631C18.75 12.1627 18.75 12.1623 18.75 12.1619C18.75 12.1615 18.75 12.1611 18.75 12.1607C18.75 12.1603 18.75 12.1599 18.75 12.1595C18.75 12.1591 18.75 12.1586 18.75 12.1582C18.75 12.1578 18.75 12.1574 18.75 12.157C18.75 12.1566 18.75 12.1561 18.75 12.1557C18.75 12.1553 18.75 12.1549 18.75 12.1545C18.75 12.154 18.75 12.1536 18.75 12.1532C18.75 12.1528 18.75 12.1523 18.75 12.1519C18.75 12.1515 18.75 12.1511 18.75 12.1506C18.75 12.1502 18.75 12.1498 18.75 12.1493C18.75 12.1489 18.75 12.1485 18.75 12.148C18.75 12.1476 18.75 12.1472 18.75 12.1467C18.75 12.1463 18.75 12.1459 18.75 12.1454C18.75 12.145 18.75 12.1445 18.75 12.1441C18.75 12.1436 18.75 12.1432 18.75 12.1427C18.75 12.1423 18.75 12.1419 18.75 12.1414C18.75 12.141 18.75 12.1405 18.75 12.14C18.75 12.1396 18.75 12.1391 18.75 12.1387C18.75 12.1382 18.75 12.1378 18.75 12.1373C18.75 12.1369 18.75 12.1364 18.75 12.1359C18.75 12.1355 18.75 12.135 18.75 12.1346C18.75 12.1341 18.75 12.1336 18.75 12.1332C18.75 12.1327 18.75 12.1322 18.75 12.1318C18.75 12.1313 18.75 12.1308 18.75 12.1304C18.75 12.1299 18.75 12.1294 18.75 12.1289C18.75 12.1285 18.75 12.128 18.75 12.1275C18.75 12.127 18.75 12.1266 18.75 12.1261C18.75 12.1256 18.75 12.1251 18.75 12.1246C18.75 12.1241 18.75 12.1237 18.75 12.1232C18.75 12.1227 18.75 12.1222 18.75 12.1217C18.75 12.1212 18.75 12.1207 18.75 12.1203C18.75 12.1198 18.75 12.1193 18.75 12.1188C18.75 12.1183 18.75 12.1178 18.75 12.1173C18.75 12.1168 18.75 12.1163 18.75 12.1158C18.75 12.1153 18.75 12.1148 18.75 12.1143C18.75 12.1138 18.75 12.1133 18.75 12.1128C18.75 12.1123 18.75 12.1118 18.75 12.1113C18.75 12.1108 18.75 12.1103 18.75 12.1098C18.75 12.1092 18.75 12.1087 18.75 12.1082C18.75 12.1077 18.75 12.1072 18.75 12.1067C18.75 12.1062 18.75 12.1056 18.75 12.1051C18.75 12.1046 18.75 12.1041 18.75 12.1036C18.75 12.1031 18.75 12.1025 18.75 12.102C18.75 12.1015 18.75 12.101 18.75 12.1004C18.75 12.0999 18.75 12.0994 18.75 12.0989C18.75 12.0983 18.75 12.0978 18.75 12.0973C18.75 12.0967 18.75 12.0962 18.75 12.0957C18.75 12.0951 18.75 12.0946 18.75 12.0941C18.75 12.0935 18.75 12.093 18.75 12.0925C18.75 12.0919 18.75 12.0914 18.75 12.0908C18.75 12.0903 18.75 12.0898 18.75 12.0892C18.75 12.0887 18.75 12.0881 18.75 12.0876C18.75 12.087 18.75 12.0865 18.75 12.0859C18.75 12.0854 18.75 12.0848 18.75 12.0843C18.75 12.0837 18.75 12.0832 18.75 12.0826C18.75 12.0821 18.75 12.0815 18.75 12.0809C18.75 12.0804 18.75 12.0798 18.75 12.0793C18.75 12.0787 18.75 12.0782 18.75 12.0776C18.75 12.077 18.75 12.0765 18.75 12.0759C18.75 12.0753 18.75 12.0748 18.75 12.0742C18.75 12.0736 18.75 12.0731 18.75 12.0725C18.75 12.0719 18.75 12.0713 18.75 12.0708C18.75 12.0702 18.75 12.0696 18.75 12.0691C18.75 12.0685 18.75 12.0679 18.75 12.0673C18.75 12.0667 18.75 12.0662 18.75 12.0656C18.75 12.065 18.75 12.0644 18.75 12.0638C18.75 12.0633 18.75 12.0627 18.75 12.0621C18.75 12.0615 18.75 12.0609 18.75 12.0603C18.75 12.0597 18.75 12.0591 18.75 12.0585C18.75 12.058 18.75 12.0574 18.75 12.0568C18.75 12.0562 18.75 12.0556 18.75 12.055C18.75 12.0544 18.75 12.0538 18.75 12.0532C18.75 12.0526 18.75 12.052 18.75 12.0514C18.75 12.0508 18.75 12.0502 18.75 12.0496C18.75 12.049 18.75 12.0484 18.75 12.0478C18.75 12.0472 18.75 12.0466 18.75 12.0459C18.75 12.0453 18.75 12.0447 18.75 12.0441C18.75 12.0435 18.75 12.0429 18.75 12.0423C18.75 12.0417 18.75 12.041 18.75 12.0404C18.75 12.0398 18.75 12.0392 18.75 12.0386C18.75 12.0379 18.75 12.0373 18.75 12.0367C18.75 12.0361 18.75 12.0355 18.75 12.0348C18.75 12.0342 18.75 12.0336 18.75 12.033C18.75 12.0323 18.75 12.0317 18.75 12.0311C18.75 12.0304 18.75 12.0298 18.75 12.0292C18.75 12.0285 18.75 12.0279 18.75 12.0273C18.75 12.0266 18.75 12.026 18.75 12.0254C18.75 12.0247 18.75 12.0241 18.75 12.0235C18.75 12.0228 18.75 12.0222 18.75 12.0215C18.75 12.0209 18.75 12.0202 18.75 12.0196C18.75 12.019 18.75 12.0183 18.75 12.0177C18.75 12.017 18.75 12.0164 18.75 12.0157C18.75 12.0151 18.75 12.0144 18.75 12.0138C18.75 12.0131 18.75 12.0125 18.75 12.0118C18.75 12.0111 18.75 12.0105 18.75 12.0098C18.75 12.0092 18.75 12.0085 18.75 12.0079C18.75 12.0072 18.75 12.0065 18.75 12.0059C18.75 12.0052 18.75 12.0045 18.75 12.0039C18.75 12.0032 18.75 12.0025 18.75 12.0019C18.75 12.0012 18.75 12.0005 18.75 11.9999C18.75 11.9992 18.75 11.9985 18.75 11.9979C18.75 11.9972 18.75 11.9965 18.75 11.9958C18.75 11.9952 18.75 11.9945 18.75 11.9938C18.75 11.9931 18.75 11.9925 18.75 11.9918C18.75 11.9911 18.75 11.9904 18.75 11.9897C18.75 11.989 18.75 11.9884 18.75 11.9877C18.75 11.987 18.75 11.9863 18.75 11.9856C18.75 11.9849 18.75 11.9842 18.75 11.9836C18.75 11.9829 18.75 11.9822 18.75 11.9815C18.75 11.9808 18.75 11.9801 18.75 11.9794C18.75 11.9787 18.75 11.978 18.75 11.9773C18.75 11.9766 18.75 11.9759 18.75 11.9752C18.75 11.9745 18.75 11.9738 18.75 11.9731C18.75 11.9724 18.75 11.9717 18.75 11.971C18.75 11.9703 18.75 11.9696 18.75 11.9689C18.75 11.9682 18.75 11.9675 18.75 11.9668C18.75 11.966 18.75 11.9653 18.75 11.9646C18.75 11.9639 18.75 11.9632 18.75 11.9625C18.75 11.9618 18.75 11.9611 18.75 11.9603C18.75 11.9596 18.75 11.9589 18.75 11.9582C18.75 11.9575 18.75 11.9567 18.75 11.956C18.75 11.9553 18.75 11.9546 18.75 11.9539C18.75 11.9531 18.75 11.9524 18.75 11.9517C18.75 11.951 18.75 11.9502 18.75 11.9495C18.75 11.9488 18.75 11.948 18.75 11.9473C18.75 11.9466 18.75 11.9458 18.75 11.9451C18.75 11.9444 18.75 11.9436 18.75 11.9429C18.75 11.9422 18.75 11.9414 18.75 11.9407C18.75 11.9399 18.75 11.9392 18.75 11.9385C18.75 11.9377 18.75 11.937 18.75 11.9362C18.75 11.9355 18.75 11.9348 18.75 11.934C18.75 11.9333 18.75 11.9325 18.75 11.9318C18.75 11.931 18.75 11.9303 18.75 11.9295C18.75 11.9288 18.75 11.928 18.75 11.9273C18.75 11.9265 18.75 11.9258 18.75 11.925C18.75 11.9242 18.75 11.9235 18.75 11.9227C18.75 11.922 18.75 11.9212 18.75 11.9205C18.75 11.9197 18.75 11.9189 18.75 11.9182C18.75 11.9174 18.75 11.9166 18.75 11.9159C18.75 11.9151 18.75 11.9143 18.75 11.9136C18.75 11.9128 18.75 11.912 18.75 11.9113C18.75 11.9105 18.75 11.9097 18.75 11.909C18.75 11.9082 18.75 11.9074 18.75 11.9066C18.75 11.9059 18.75 11.9051 18.75 11.9043C18.75 11.9035 18.75 11.9028 18.75 11.902C18.75 11.9012 18.75 11.9004 18.75 11.8996C18.75 11.8989 18.75 11.8981 18.75 11.8973C18.75 11.8965 18.75 11.8957 18.75 11.8949C18.75 11.8941 18.75 11.8934 18.75 11.8926C18.75 11.8918 18.75 11.891 18.75 11.8902C18.75 11.8894 18.75 11.8886 18.75 11.8878C18.75 11.887 18.75 11.8862 18.75 11.8854C18.75 11.8846 18.75 11.8839 18.75 11.8831C18.75 11.8823 18.75 11.8815 18.75 11.8807C18.75 11.8799 18.75 11.8791 18.75 11.8783C18.75 11.8775 18.75 11.8766 18.75 11.8758C18.75 11.875 18.75 11.8742 18.75 11.8734C18.75 11.8726 18.75 11.8718 18.75 11.871C18.75 11.8702 18.75 11.8694 18.75 11.8686C18.75 11.8678 18.75 11.8669 18.75 11.8661C18.75 11.8653 18.75 11.8645 18.75 11.8637C18.75 11.8629 18.75 11.862 18.75 11.8612C18.75 11.8604 18.75 11.8596 18.75 11.8588C18.75 11.858 18.75 11.8571 18.75 11.8563C18.75 11.8555 18.75 11.8547 18.75 11.8538C18.75 11.853 18.75 11.8522 18.75 11.8514C18.75 11.8505 18.75 11.8497 18.75 11.8489C18.75 11.848 18.75 11.8472 18.75 11.8464C18.75 11.8455 18.75 11.8447 18.75 11.8439C18.75 11.843 18.75 11.8422 18.75 11.8414C18.75 11.8405 18.75 11.8397 18.75 11.8388C18.75 11.838 18.75 11.8372 18.75 11.8363C18.75 11.8355 18.75 11.8346 18.75 11.8338C18.75 11.833 18.75 11.8321 18.75 11.8313C18.75 11.8304 18.75 11.8296 18.75 11.8287C18.75 11.8279 18.75 11.827 18.75 11.8262C18.75 11.8253 18.75 11.8245 18.75 11.8236C18.75 11.8228 18.75 11.8219 18.75 11.8211C18.75 11.8202 18.75 11.8193 18.75 11.8185C18.75 11.8176 18.75 11.8168 18.75 11.8159C18.75 11.8151 18.75 11.8142 18.75 11.8133C18.75 11.8125 18.75 11.8116 18.75 11.8107C18.75 11.8099 18.75 11.809 18.75 11.8081C18.75 11.8073 18.75 11.8064 18.75 11.8055C18.75 11.8047 18.75 11.8038 18.75 11.8029C18.75 11.8021 18.75 11.8012 18.75 11.8003C18.75 11.7994 18.75 11.7986 18.75 11.7977C18.75 11.7968 18.75 11.7959 18.75 11.7951C18.75 11.7942 18.75 11.7933 18.75 11.7924C18.75 11.7916 18.75 11.7907 18.75 11.7898C18.75 11.7889 18.75 11.788 18.75 11.7871C18.75 11.7863 18.75 11.7854 18.75 11.7845C18.75 11.7836 18.75 11.7827 18.75 11.7818C18.75 11.7809 18.75 11.7801 18.75 11.7792C18.75 11.7783 18.75 11.7774 18.75 11.7765C18.75 11.7756 18.75 11.7747 18.75 11.7738C18.75 11.7729 18.75 11.772 18.75 11.7711C18.75 11.7702 18.75 11.7693 18.75 11.7684C18.75 11.7675 18.75 11.7666 18.75 11.7657C18.75 11.7648 18.75 11.7639 18.75 11.763C18.75 11.7621 18.75 11.7612 18.75 11.7603C18.75 11.7594 18.75 11.7585 18.75 11.7576C18.75 11.7567 18.75 11.7558 18.75 11.7548C18.75 11.7539 18.75 11.753 18.75 11.7521C18.75 11.7512 18.75 11.7503 18.75 11.7494C18.75 11.7485 18.75 11.7475 18.75 11.7466C18.75 11.7457 18.75 11.7448 18.75 11.7439C18.75 11.743 18.75 11.742 18.75 11.7411C18.75 11.7402 18.75 11.7393 18.75 11.7383C18.75 11.7374 18.75 11.7365 18.75 11.7356C18.75 11.7346 18.75 11.7337 18.75 11.7328C18.75 11.7319 18.75 11.7309 18.75 11.73C18.75 11.7291 18.75 11.7281 18.75 11.7272C18.75 11.7263 18.75 11.7254 18.75 11.7244C18.75 11.7235 18.75 11.7225 18.75 11.7216C18.75 11.7207 18.75 11.7197 18.75 11.7188C18.75 11.7179 18.75 11.7169 18.75 11.716C18.75 11.715 18.75 11.7141 18.75 11.7132C18.75 11.7122 18.75 11.7113 18.75 11.7103C18.75 11.7094 18.75 11.7084 18.75 11.7075C18.75 11.7065 18.75 11.7056 18.75 11.7046C18.75 11.7037 18.75 11.7028 18.75 11.7018C18.75 11.7008 18.75 11.6999 18.75 11.6989C18.75 11.698 18.75 11.697 18.75 11.6961C18.75 11.6951 18.75 11.6942 18.75 11.6932C18.75 11.6923 18.75 11.6913 18.75 11.6903C18.75 11.6894 18.75 11.6884 18.75 11.6875C18.75 11.6865 18.75 11.6855 18.75 11.6846C18.75 11.6836 18.75 11.6826 18.75 11.6817C18.75 11.6807 18.75 11.6797 18.75 11.6788C18.75 11.6778 18.75 11.6768 18.75 11.6759C18.75 11.6749 18.75 11.6739 18.75 11.673C18.75 11.672 18.75 11.671 18.75 11.67C18.75 11.6691 18.75 11.6681 18.75 11.6671C18.75 11.6661 18.75 11.6652 18.75 11.6642C18.75 11.6632 18.75 11.6622 18.75 11.6612C18.75 11.6603 18.75 11.6593 18.75 11.6583C18.75 11.6573 18.75 11.6563 18.75 11.6554C18.75 11.6544 18.75 11.6534 18.75 11.6524C18.75 11.6514 18.75 11.6504 18.75 11.6494C18.75 11.6484 18.75 11.6475 18.75 11.6465C18.75 11.6455 18.75 11.6445 18.75 11.6435C18.75 11.6425 18.75 11.6415 18.75 11.6405C18.75 11.6395 18.75 11.6385 18.75 11.6375C18.75 11.6365 18.75 11.6355 18.75 11.6345C18.75 11.6335 18.75 11.6325 18.75 11.6315C18.75 11.6305 18.75 11.6295 18.75 11.6285C18.75 11.6275 18.75 11.6265 18.75 11.6255C18.75 11.6245 18.75 11.6235 18.75 11.6225C18.75 11.6215 18.75 11.6205 18.75 11.6195C18.75 11.6185 18.75 11.6175 18.75 11.6165C18.75 11.6154 18.75 11.6144 18.75 11.6134C18.75 11.6124 18.75 11.6114 18.75 11.6104C18.75 11.6094 18.75 11.6083 18.75 11.6073C18.75 11.6063 18.75 11.6053 18.75 11.6043C18.75 11.6033 18.75 11.6022 18.75 11.6012C18.75 11.6002 18.75 11.5992 18.75 11.5981C18.75 11.5971 18.75 11.5961 18.75 11.5951C18.75 11.5941 18.75 11.593 18.75 11.592C18.75 11.591 18.75 11.5899 18.75 11.5889C18.75 11.5879 18.75 11.5869 18.75 11.5858C18.75 11.5848 18.75 11.5838 18.75 11.5827C18.75 11.5817 18.75 11.5807 18.75 11.5796C18.75 11.5786 18.75 11.5776 18.75 11.5765C18.75 11.5755 18.75 11.5745 18.75 11.5734C18.75 11.5724 18.75 11.5713 18.75 11.5703C18.75 11.5693 18.75 11.5682 18.75 11.5672C18.75 11.5661 18.75 11.5651 18.75 11.564C18.75 11.563 18.75 11.5619 18.75 11.5609C18.75 11.5599 18.75 11.5588 18.75 11.5578C18.75 11.5567 18.75 11.5557 18.75 11.5546C18.75 11.5536 18.75 11.5525 18.75 11.5515C18.75 11.5504 18.75 11.5493 18.75 11.5483C18.75 11.5472 18.75 11.5462 18.75 11.5451C18.75 11.5441 18.75 11.543 18.75 11.542C18.75 11.5409 18.75 11.5398 18.75 11.5388C18.75 11.5377 18.75 11.5367 18.75 11.5356C18.75 11.5345 18.75 11.5335 18.75 11.5324C18.75 11.5313 18.75 11.5303 18.75 11.5292C18.75 11.5281 18.75 11.5271 18.75 11.526C18.75 11.5249 18.75 11.5239 18.75 11.5228C18.75 11.5217 18.75 11.5207 18.75 11.5196C18.75 11.5185 18.75 11.5174 18.75 11.5164C18.75 11.5153 18.75 11.5142 18.75 11.5131C18.75 11.5121 18.75 11.511 18.75 11.5099C18.75 11.5088 18.75 11.5078 18.75 11.5067C18.75 11.5056 18.75 11.5045 18.75 11.5034C18.75 11.5024 18.75 11.5013 18.75 11.5002C18.75 11.4991 18.75 11.498 18.75 11.4969C18.75 11.4959 18.75 11.4948 18.75 11.4937C18.75 11.4926 18.75 11.4915 18.75 11.4904C18.75 11.4893 18.75 11.4882 18.75 11.4872C18.75 11.4861 18.75 11.485 18.75 11.4839C18.75 11.4828 18.75 11.4817 18.75 11.4806C18.75 11.4795 18.75 11.4784 18.75 11.4773C18.75 11.4762 18.75 11.4751 18.75 11.474C18.75 11.4729 18.75 11.4718 18.75 11.4707C18.75 11.4696 18.75 11.4685 18.75 11.4674C18.75 11.4663 18.75 11.4652 18.75 11.4641C18.75 11.463 18.75 11.4619 18.75 11.4608C18.75 11.4597 18.75 11.4586 18.75 11.4575C18.75 11.4564 18.75 11.4553 18.75 11.4541C18.75 11.453 18.75 11.4519 18.75 11.4508C18.75 11.4497 18.75 11.4486 18.75 11.4475C18.75 11.4464 18.75 11.4453 18.75 11.4441C18.75 11.443 18.75 11.4419 18.75 11.4408C18.75 11.4397 18.75 11.4386 18.75 11.4374C18.75 11.4363 18.75 11.4352 18.75 11.4341C18.75 11.433 18.75 11.4318 18.75 11.4307C18.75 11.4296 18.75 11.4285 18.75 11.4273C18.75 11.4262 18.75 11.4251 18.75 11.424C18.75 11.4228 18.75 11.4217 18.75 11.4206C18.75 11.4195 18.75 11.4183 18.75 11.4172C18.75 11.4161 18.75 11.4149 18.75 11.4138C18.75 11.4127 18.75 11.4115 18.75 11.4104C18.75 11.4093 18.75 11.4081 18.75 11.407C18.75 11.4059 18.75 11.4047 18.75 11.4036C18.75 11.4025 18.75 11.4013 18.75 11.4002C18.75 11.399 18.75 11.3979 18.75 11.3968C18.75 11.3956 18.75 11.3945 18.75 11.3933C18.75 11.3922 18.75 11.3911 18.75 11.3899C18.75 11.3888 18.75 11.3876 18.75 11.3865C18.75 11.3853 18.75 11.3842 18.75 11.383C18.75 11.3819 18.75 11.3807 18.75 11.3796C18.75 11.3784 18.75 11.3773 18.75 11.3761C18.75 11.375 18.75 11.3738 18.75 11.3727C18.75 11.3715 18.75 11.3704 18.75 11.3692C18.75 11.3681 18.75 11.3669 18.75 11.3658C18.75 11.3646 18.75 11.3634 18.75 11.3623C18.75 11.3611 18.75 11.36 18.75 11.3588C18.75 11.3576 18.75 11.3565 18.75 11.3553C18.75 11.3542 18.75 11.353 18.75 11.3518C18.75 11.3507 18.75 11.3495 18.75 11.3483C18.75 11.3472 18.75 11.346 18.75 11.3448C18.75 11.3437 18.75 11.3425 18.75 11.3413C18.75 11.3402 18.75 11.339 18.75 11.3378C18.75 11.3366 18.75 11.3355 18.75 11.3343C18.75 11.3331 18.75 11.332 18.75 11.3308C18.75 11.3296 18.75 11.3284 18.75 11.3273C18.75 11.3261 18.75 11.3249 18.75 11.3237C18.75 11.3226 18.75 11.3214 18.75 11.3202C18.75 11.319 18.75 11.3178 18.75 11.3167C18.75 11.3155 18.75 11.3143 18.75 11.3131C18.75 11.3119 18.75 11.3107 18.75 11.3096C18.75 11.3084 18.75 11.3072 18.75 11.306C18.75 11.3048 18.75 11.3036 18.75 11.3024C18.75 11.3012 18.75 11.3001 18.75 11.2989C18.75 11.2977 18.75 11.2965 18.75 11.2953C18.75 11.2941 18.75 11.2929 18.75 11.2917C18.75 11.2905 18.75 11.2893 18.75 11.2881C18.75 11.2869 18.75 11.2857 18.75 11.2845C18.75 11.2834 18.75 11.2822 18.75 11.281C18.75 11.2798 18.75 11.2786 18.75 11.2774C18.75 11.2762 18.75 11.275 18.75 11.2738C18.75 11.2726 18.75 11.2714 18.75 11.2701C18.75 11.2689 18.75 11.2677 18.75 11.2665C18.75 11.2653 18.75 11.2641 18.75 11.2629C18.75 11.2617 18.75 11.2605 18.75 11.2593C18.75 11.2581 18.75 11.2569 18.75 11.2557C18.75 11.2545 18.75 11.2532 18.75 11.252C18.75 11.2508 18.75 11.2496 18.75 11.2484C18.75 11.2472 18.75 11.246 18.75 11.2448C18.75 11.2435 18.75 11.2423 18.75 11.2411C18.75 11.2399 18.75 11.2387 18.75 11.2375C18.75 11.2362 18.75 11.235 18.75 11.2338C18.75 11.2326 18.75 11.2314 18.75 11.2301C18.75 11.2289 18.75 11.2277 18.75 11.2265C18.75 11.2252 18.75 11.224 18.75 11.2228C18.75 11.2216 18.75 11.2203 18.75 11.2191C18.75 11.2179 18.75 11.2167 18.75 11.2154C18.75 11.2142 18.75 11.213 18.75 11.2117C18.75 11.2105 18.75 11.2093 18.75 11.208C18.75 11.2068 18.75 11.2056 18.75 11.2043C18.75 11.2031 18.75 11.2019 18.75 11.2006C18.75 11.1994 18.75 11.1982 18.75 11.1969C18.75 11.1957 18.75 11.1945 18.75 11.1932C18.75 11.192 18.75 11.1907 18.75 11.1895C18.75 11.1883 18.75 11.187 18.75 11.1858H17.25C17.25 11.187 17.25 11.1883 17.25 11.1895C17.25 11.1907 17.25 11.192 17.25 11.1932C17.25 11.1945 17.25 11.1957 17.25 11.1969C17.25 11.1982 17.25 11.1994 17.25 11.2006C17.25 11.2019 17.25 11.2031 17.25 11.2043C17.25 11.2056 17.25 11.2068 17.25 11.208C17.25 11.2093 17.25 11.2105 17.25 11.2117C17.25 11.213 17.25 11.2142 17.25 11.2154C17.25 11.2167 17.25 11.2179 17.25 11.2191C17.25 11.2203 17.25 11.2216 17.25 11.2228C17.25 11.224 17.25 11.2252 17.25 11.2265C17.25 11.2277 17.25 11.2289 17.25 11.2301C17.25 11.2314 17.25 11.2326 17.25 11.2338C17.25 11.235 17.25 11.2362 17.25 11.2375C17.25 11.2387 17.25 11.2399 17.25 11.2411C17.25 11.2423 17.25 11.2435 17.25 11.2448C17.25 11.246 17.25 11.2472 17.25 11.2484C17.25 11.2496 17.25 11.2508 17.25 11.252C17.25 11.2532 17.25 11.2545 17.25 11.2557C17.25 11.2569 17.25 11.2581 17.25 11.2593C17.25 11.2605 17.25 11.2617 17.25 11.2629C17.25 11.2641 17.25 11.2653 17.25 11.2665C17.25 11.2677 17.25 11.2689 17.25 11.2701C17.25 11.2714 17.25 11.2726 17.25 11.2738C17.25 11.275 17.25 11.2762 17.25 11.2774C17.25 11.2786 17.25 11.2798 17.25 11.281C17.25 11.2822 17.25 11.2834 17.25 11.2845C17.25 11.2857 17.25 11.2869 17.25 11.2881C17.25 11.2893 17.25 11.2905 17.25 11.2917C17.25 11.2929 17.25 11.2941 17.25 11.2953C17.25 11.2965 17.25 11.2977 17.25 11.2989C17.25 11.3001 17.25 11.3012 17.25 11.3024C17.25 11.3036 17.25 11.3048 17.25 11.306C17.25 11.3072 17.25 11.3084 17.25 11.3096C17.25 11.3107 17.25 11.3119 17.25 11.3131C17.25 11.3143 17.25 11.3155 17.25 11.3167C17.25 11.3178 17.25 11.319 17.25 11.3202C17.25 11.3214 17.25 11.3226 17.25 11.3237C17.25 11.3249 17.25 11.3261 17.25 11.3273C17.25 11.3284 17.25 11.3296 17.25 11.3308C17.25 11.332 17.25 11.3331 17.25 11.3343C17.25 11.3355 17.25 11.3366 17.25 11.3378C17.25 11.339 17.25 11.3402 17.25 11.3413C17.25 11.3425 17.25 11.3437 17.25 11.3448C17.25 11.346 17.25 11.3472 17.25 11.3483C17.25 11.3495 17.25 11.3507 17.25 11.3518C17.25 11.353 17.25 11.3542 17.25 11.3553C17.25 11.3565 17.25 11.3576 17.25 11.3588C17.25 11.36 17.25 11.3611 17.25 11.3623C17.25 11.3634 17.25 11.3646 17.25 11.3658C17.25 11.3669 17.25 11.3681 17.25 11.3692C17.25 11.3704 17.25 11.3715 17.25 11.3727C17.25 11.3738 17.25 11.375 17.25 11.3761C17.25 11.3773 17.25 11.3784 17.25 11.3796C17.25 11.3807 17.25 11.3819 17.25 11.383C17.25 11.3842 17.25 11.3853 17.25 11.3865C17.25 11.3876 17.25 11.3888 17.25 11.3899C17.25 11.3911 17.25 11.3922 17.25 11.3933C17.25 11.3945 17.25 11.3956 17.25 11.3968C17.25 11.3979 17.25 11.399 17.25 11.4002C17.25 11.4013 17.25 11.4025 17.25 11.4036C17.25 11.4047 17.25 11.4059 17.25 11.407C17.25 11.4081 17.25 11.4093 17.25 11.4104C17.25 11.4115 17.25 11.4127 17.25 11.4138C17.25 11.4149 17.25 11.4161 17.25 11.4172C17.25 11.4183 17.25 11.4195 17.25 11.4206C17.25 11.4217 17.25 11.4228 17.25 11.424C17.25 11.4251 17.25 11.4262 17.25 11.4273C17.25 11.4285 17.25 11.4296 17.25 11.4307C17.25 11.4318 17.25 11.433 17.25 11.4341C17.25 11.4352 17.25 11.4363 17.25 11.4374C17.25 11.4386 17.25 11.4397 17.25 11.4408C17.25 11.4419 17.25 11.443 17.25 11.4441C17.25 11.4453 17.25 11.4464 17.25 11.4475C17.25 11.4486 17.25 11.4497 17.25 11.4508C17.25 11.4519 17.25 11.453 17.25 11.4541C17.25 11.4553 17.25 11.4564 17.25 11.4575C17.25 11.4586 17.25 11.4597 17.25 11.4608C17.25 11.4619 17.25 11.463 17.25 11.4641C17.25 11.4652 17.25 11.4663 17.25 11.4674C17.25 11.4685 17.25 11.4696 17.25 11.4707C17.25 11.4718 17.25 11.4729 17.25 11.474C17.25 11.4751 17.25 11.4762 17.25 11.4773C17.25 11.4784 17.25 11.4795 17.25 11.4806C17.25 11.4817 17.25 11.4828 17.25 11.4839C17.25 11.485 17.25 11.4861 17.25 11.4872C17.25 11.4882 17.25 11.4893 17.25 11.4904C17.25 11.4915 17.25 11.4926 17.25 11.4937C17.25 11.4948 17.25 11.4959 17.25 11.4969C17.25 11.498 17.25 11.4991 17.25 11.5002C17.25 11.5013 17.25 11.5024 17.25 11.5034C17.25 11.5045 17.25 11.5056 17.25 11.5067C17.25 11.5078 17.25 11.5088 17.25 11.5099C17.25 11.511 17.25 11.5121 17.25 11.5131C17.25 11.5142 17.25 11.5153 17.25 11.5164C17.25 11.5174 17.25 11.5185 17.25 11.5196C17.25 11.5207 17.25 11.5217 17.25 11.5228C17.25 11.5239 17.25 11.5249 17.25 11.526C17.25 11.5271 17.25 11.5281 17.25 11.5292C17.25 11.5303 17.25 11.5313 17.25 11.5324C17.25 11.5335 17.25 11.5345 17.25 11.5356C17.25 11.5367 17.25 11.5377 17.25 11.5388C17.25 11.5398 17.25 11.5409 17.25 11.542C17.25 11.543 17.25 11.5441 17.25 11.5451C17.25 11.5462 17.25 11.5472 17.25 11.5483C17.25 11.5493 17.25 11.5504 17.25 11.5515C17.25 11.5525 17.25 11.5536 17.25 11.5546C17.25 11.5557 17.25 11.5567 17.25 11.5578C17.25 11.5588 17.25 11.5599 17.25 11.5609C17.25 11.5619 17.25 11.563 17.25 11.564C17.25 11.5651 17.25 11.5661 17.25 11.5672C17.25 11.5682 17.25 11.5693 17.25 11.5703C17.25 11.5713 17.25 11.5724 17.25 11.5734C17.25 11.5745 17.25 11.5755 17.25 11.5765C17.25 11.5776 17.25 11.5786 17.25 11.5796C17.25 11.5807 17.25 11.5817 17.25 11.5827C17.25 11.5838 17.25 11.5848 17.25 11.5858C17.25 11.5869 17.25 11.5879 17.25 11.5889C17.25 11.5899 17.25 11.591 17.25 11.592C17.25 11.593 17.25 11.5941 17.25 11.5951C17.25 11.5961 17.25 11.5971 17.25 11.5981C17.25 11.5992 17.25 11.6002 17.25 11.6012C17.25 11.6022 17.25 11.6033 17.25 11.6043C17.25 11.6053 17.25 11.6063 17.25 11.6073C17.25 11.6083 17.25 11.6094 17.25 11.6104C17.25 11.6114 17.25 11.6124 17.25 11.6134C17.25 11.6144 17.25 11.6154 17.25 11.6165C17.25 11.6175 17.25 11.6185 17.25 11.6195C17.25 11.6205 17.25 11.6215 17.25 11.6225C17.25 11.6235 17.25 11.6245 17.25 11.6255C17.25 11.6265 17.25 11.6275 17.25 11.6285C17.25 11.6295 17.25 11.6305 17.25 11.6315C17.25 11.6325 17.25 11.6335 17.25 11.6345C17.25 11.6355 17.25 11.6365 17.25 11.6375C17.25 11.6385 17.25 11.6395 17.25 11.6405C17.25 11.6415 17.25 11.6425 17.25 11.6435C17.25 11.6445 17.25 11.6455 17.25 11.6465C17.25 11.6475 17.25 11.6484 17.25 11.6494C17.25 11.6504 17.25 11.6514 17.25 11.6524C17.25 11.6534 17.25 11.6544 17.25 11.6554C17.25 11.6563 17.25 11.6573 17.25 11.6583C17.25 11.6593 17.25 11.6603 17.25 11.6612C17.25 11.6622 17.25 11.6632 17.25 11.6642C17.25 11.6652 17.25 11.6661 17.25 11.6671C17.25 11.6681 17.25 11.6691 17.25 11.67C17.25 11.671 17.25 11.672 17.25 11.673C17.25 11.6739 17.25 11.6749 17.25 11.6759C17.25 11.6768 17.25 11.6778 17.25 11.6788C17.25 11.6797 17.25 11.6807 17.25 11.6817C17.25 11.6826 17.25 11.6836 17.25 11.6846C17.25 11.6855 17.25 11.6865 17.25 11.6875C17.25 11.6884 17.25 11.6894 17.25 11.6903C17.25 11.6913 17.25 11.6923 17.25 11.6932C17.25 11.6942 17.25 11.6951 17.25 11.6961C17.25 11.697 17.25 11.698 17.25 11.6989C17.25 11.6999 17.25 11.7008 17.25 11.7018C17.25 11.7028 17.25 11.7037 17.25 11.7046C17.25 11.7056 17.25 11.7065 17.25 11.7075C17.25 11.7084 17.25 11.7094 17.25 11.7103C17.25 11.7113 17.25 11.7122 17.25 11.7132C17.25 11.7141 17.25 11.715 17.25 11.716C17.25 11.7169 17.25 11.7179 17.25 11.7188C17.25 11.7197 17.25 11.7207 17.25 11.7216C17.25 11.7225 17.25 11.7235 17.25 11.7244C17.25 11.7254 17.25 11.7263 17.25 11.7272C17.25 11.7281 17.25 11.7291 17.25 11.73C17.25 11.7309 17.25 11.7319 17.25 11.7328C17.25 11.7337 17.25 11.7346 17.25 11.7356C17.25 11.7365 17.25 11.7374 17.25 11.7383C17.25 11.7393 17.25 11.7402 17.25 11.7411C17.25 11.742 17.25 11.743 17.25 11.7439C17.25 11.7448 17.25 11.7457 17.25 11.7466C17.25 11.7475 17.25 11.7485 17.25 11.7494C17.25 11.7503 17.25 11.7512 17.25 11.7521C17.25 11.753 17.25 11.7539 17.25 11.7548C17.25 11.7558 17.25 11.7567 17.25 11.7576C17.25 11.7585 17.25 11.7594 17.25 11.7603C17.25 11.7612 17.25 11.7621 17.25 11.763C17.25 11.7639 17.25 11.7648 17.25 11.7657C17.25 11.7666 17.25 11.7675 17.25 11.7684C17.25 11.7693 17.25 11.7702 17.25 11.7711C17.25 11.772 17.25 11.7729 17.25 11.7738C17.25 11.7747 17.25 11.7756 17.25 11.7765C17.25 11.7774 17.25 11.7783 17.25 11.7792C17.25 11.7801 17.25 11.7809 17.25 11.7818C17.25 11.7827 17.25 11.7836 17.25 11.7845C17.25 11.7854 17.25 11.7863 17.25 11.7871C17.25 11.788 17.25 11.7889 17.25 11.7898C17.25 11.7907 17.25 11.7916 17.25 11.7924C17.25 11.7933 17.25 11.7942 17.25 11.7951C17.25 11.7959 17.25 11.7968 17.25 11.7977C17.25 11.7986 17.25 11.7994 17.25 11.8003C17.25 11.8012 17.25 11.8021 17.25 11.8029C17.25 11.8038 17.25 11.8047 17.25 11.8055C17.25 11.8064 17.25 11.8073 17.25 11.8081C17.25 11.809 17.25 11.8099 17.25 11.8107C17.25 11.8116 17.25 11.8125 17.25 11.8133C17.25 11.8142 17.25 11.8151 17.25 11.8159C17.25 11.8168 17.25 11.8176 17.25 11.8185C17.25 11.8193 17.25 11.8202 17.25 11.8211C17.25 11.8219 17.25 11.8228 17.25 11.8236C17.25 11.8245 17.25 11.8253 17.25 11.8262C17.25 11.827 17.25 11.8279 17.25 11.8287C17.25 11.8296 17.25 11.8304 17.25 11.8313C17.25 11.8321 17.25 11.833 17.25 11.8338C17.25 11.8346 17.25 11.8355 17.25 11.8363C17.25 11.8372 17.25 11.838 17.25 11.8388C17.25 11.8397 17.25 11.8405 17.25 11.8414C17.25 11.8422 17.25 11.843 17.25 11.8439C17.25 11.8447 17.25 11.8455 17.25 11.8464C17.25 11.8472 17.25 11.848 17.25 11.8489C17.25 11.8497 17.25 11.8505 17.25 11.8514C17.25 11.8522 17.25 11.853 17.25 11.8538C17.25 11.8547 17.25 11.8555 17.25 11.8563C17.25 11.8571 17.25 11.858 17.25 11.8588C17.25 11.8596 17.25 11.8604 17.25 11.8612C17.25 11.862 17.25 11.8629 17.25 11.8637C17.25 11.8645 17.25 11.8653 17.25 11.8661C17.25 11.8669 17.25 11.8678 17.25 11.8686C17.25 11.8694 17.25 11.8702 17.25 11.871C17.25 11.8718 17.25 11.8726 17.25 11.8734C17.25 11.8742 17.25 11.875 17.25 11.8758C17.25 11.8766 17.25 11.8775 17.25 11.8783C17.25 11.8791 17.25 11.8799 17.25 11.8807C17.25 11.8815 17.25 11.8823 17.25 11.8831C17.25 11.8839 17.25 11.8846 17.25 11.8854C17.25 11.8862 17.25 11.887 17.25 11.8878C17.25 11.8886 17.25 11.8894 17.25 11.8902C17.25 11.891 17.25 11.8918 17.25 11.8926C17.25 11.8934 17.25 11.8941 17.25 11.8949C17.25 11.8957 17.25 11.8965 17.25 11.8973C17.25 11.8981 17.25 11.8989 17.25 11.8996C17.25 11.9004 17.25 11.9012 17.25 11.902C17.25 11.9028 17.25 11.9035 17.25 11.9043C17.25 11.9051 17.25 11.9059 17.25 11.9066C17.25 11.9074 17.25 11.9082 17.25 11.909C17.25 11.9097 17.25 11.9105 17.25 11.9113C17.25 11.912 17.25 11.9128 17.25 11.9136C17.25 11.9143 17.25 11.9151 17.25 11.9159C17.25 11.9166 17.25 11.9174 17.25 11.9182C17.25 11.9189 17.25 11.9197 17.25 11.9205C17.25 11.9212 17.25 11.922 17.25 11.9227C17.25 11.9235 17.25 11.9242 17.25 11.925C17.25 11.9258 17.25 11.9265 17.25 11.9273C17.25 11.928 17.25 11.9288 17.25 11.9295C17.25 11.9303 17.25 11.931 17.25 11.9318C17.25 11.9325 17.25 11.9333 17.25 11.934C17.25 11.9348 17.25 11.9355 17.25 11.9362C17.25 11.937 17.25 11.9377 17.25 11.9385C17.25 11.9392 17.25 11.9399 17.25 11.9407C17.25 11.9414 17.25 11.9422 17.25 11.9429C17.25 11.9436 17.25 11.9444 17.25 11.9451C17.25 11.9458 17.25 11.9466 17.25 11.9473C17.25 11.948 17.25 11.9488 17.25 11.9495C17.25 11.9502 17.25 11.951 17.25 11.9517C17.25 11.9524 17.25 11.9531 17.25 11.9539C17.25 11.9546 17.25 11.9553 17.25 11.956C17.25 11.9567 17.25 11.9575 17.25 11.9582C17.25 11.9589 17.25 11.9596 17.25 11.9603C17.25 11.9611 17.25 11.9618 17.25 11.9625C17.25 11.9632 17.25 11.9639 17.25 11.9646C17.25 11.9653 17.25 11.966 17.25 11.9668C17.25 11.9675 17.25 11.9682 17.25 11.9689C17.25 11.9696 17.25 11.9703 17.25 11.971C17.25 11.9717 17.25 11.9724 17.25 11.9731C17.25 11.9738 17.25 11.9745 17.25 11.9752C17.25 11.9759 17.25 11.9766 17.25 11.9773C17.25 11.978 17.25 11.9787 17.25 11.9794C17.25 11.9801 17.25 11.9808 17.25 11.9815C17.25 11.9822 17.25 11.9829 17.25 11.9836C17.25 11.9842 17.25 11.9849 17.25 11.9856C17.25 11.9863 17.25 11.987 17.25 11.9877C17.25 11.9884 17.25 11.989 17.25 11.9897C17.25 11.9904 17.25 11.9911 17.25 11.9918C17.25 11.9925 17.25 11.9931 17.25 11.9938C17.25 11.9945 17.25 11.9952 17.25 11.9958C17.25 11.9965 17.25 11.9972 17.25 11.9979C17.25 11.9985 17.25 11.9992 17.25 11.9999C17.25 12.0005 17.25 12.0012 17.25 12.0019C17.25 12.0025 17.25 12.0032 17.25 12.0039C17.25 12.0045 17.25 12.0052 17.25 12.0059C17.25 12.0065 17.25 12.0072 17.25 12.0079C17.25 12.0085 17.25 12.0092 17.25 12.0098C17.25 12.0105 17.25 12.0111 17.25 12.0118C17.25 12.0125 17.25 12.0131 17.25 12.0138C17.25 12.0144 17.25 12.0151 17.25 12.0157C17.25 12.0164 17.25 12.017 17.25 12.0177C17.25 12.0183 17.25 12.019 17.25 12.0196C17.25 12.0202 17.25 12.0209 17.25 12.0215C17.25 12.0222 17.25 12.0228 17.25 12.0235C17.25 12.0241 17.25 12.0247 17.25 12.0254C17.25 12.026 17.25 12.0266 17.25 12.0273C17.25 12.0279 17.25 12.0285 17.25 12.0292C17.25 12.0298 17.25 12.0304 17.25 12.0311C17.25 12.0317 17.25 12.0323 17.25 12.033C17.25 12.0336 17.25 12.0342 17.25 12.0348C17.25 12.0355 17.25 12.0361 17.25 12.0367C17.25 12.0373 17.25 12.0379 17.25 12.0386C17.25 12.0392 17.25 12.0398 17.25 12.0404C17.25 12.041 17.25 12.0417 17.25 12.0423C17.25 12.0429 17.25 12.0435 17.25 12.0441C17.25 12.0447 17.25 12.0453 17.25 12.0459C17.25 12.0466 17.25 12.0472 17.25 12.0478C17.25 12.0484 17.25 12.049 17.25 12.0496C17.25 12.0502 17.25 12.0508 17.25 12.0514C17.25 12.052 17.25 12.0526 17.25 12.0532C17.25 12.0538 17.25 12.0544 17.25 12.055C17.25 12.0556 17.25 12.0562 17.25 12.0568C17.25 12.0574 17.25 12.058 17.25 12.0585C17.25 12.0591 17.25 12.0597 17.25 12.0603C17.25 12.0609 17.25 12.0615 17.25 12.0621C17.25 12.0627 17.25 12.0633 17.25 12.0638C17.25 12.0644 17.25 12.065 17.25 12.0656C17.25 12.0662 17.25 12.0667 17.25 12.0673C17.25 12.0679 17.25 12.0685 17.25 12.0691C17.25 12.0696 17.25 12.0702 17.25 12.0708C17.25 12.0713 17.25 12.0719 17.25 12.0725C17.25 12.0731 17.25 12.0736 17.25 12.0742C17.25 12.0748 17.25 12.0753 17.25 12.0759C17.25 12.0765 17.25 12.077 17.25 12.0776C17.25 12.0782 17.25 12.0787 17.25 12.0793C17.25 12.0798 17.25 12.0804 17.25 12.0809C17.25 12.0815 17.25 12.0821 17.25 12.0826C17.25 12.0832 17.25 12.0837 17.25 12.0843C17.25 12.0848 17.25 12.0854 17.25 12.0859C17.25 12.0865 17.25 12.087 17.25 12.0876C17.25 12.0881 17.25 12.0887 17.25 12.0892C17.25 12.0898 17.25 12.0903 17.25 12.0908C17.25 12.0914 17.25 12.0919 17.25 12.0925C17.25 12.093 17.25 12.0935 17.25 12.0941C17.25 12.0946 17.25 12.0951 17.25 12.0957C17.25 12.0962 17.25 12.0967 17.25 12.0973C17.25 12.0978 17.25 12.0983 17.25 12.0989C17.25 12.0994 17.25 12.0999 17.25 12.1004C17.25 12.101 17.25 12.1015 17.25 12.102C17.25 12.1025 17.25 12.1031 17.25 12.1036C17.25 12.1041 17.25 12.1046 17.25 12.1051C17.25 12.1056 17.25 12.1062 17.25 12.1067C17.25 12.1072 17.25 12.1077 17.25 12.1082C17.25 12.1087 17.25 12.1092 17.25 12.1098C17.25 12.1103 17.25 12.1108 17.25 12.1113C17.25 12.1118 17.25 12.1123 17.25 12.1128C17.25 12.1133 17.25 12.1138 17.25 12.1143C17.25 12.1148 17.25 12.1153 17.25 12.1158C17.25 12.1163 17.25 12.1168 17.25 12.1173C17.25 12.1178 17.25 12.1183 17.25 12.1188C17.25 12.1193 17.25 12.1198 17.25 12.1203C17.25 12.1207 17.25 12.1212 17.25 12.1217C17.25 12.1222 17.25 12.1227 17.25 12.1232C17.25 12.1237 17.25 12.1241 17.25 12.1246C17.25 12.1251 17.25 12.1256 17.25 12.1261C17.25 12.1266 17.25 12.127 17.25 12.1275C17.25 12.128 17.25 12.1285 17.25 12.1289C17.25 12.1294 17.25 12.1299 17.25 12.1304C17.25 12.1308 17.25 12.1313 17.25 12.1318C17.25 12.1322 17.25 12.1327 17.25 12.1332C17.25 12.1336 17.25 12.1341 17.25 12.1346C17.25 12.135 17.25 12.1355 17.25 12.1359C17.25 12.1364 17.25 12.1369 17.25 12.1373C17.25 12.1378 17.25 12.1382 17.25 12.1387C17.25 12.1391 17.25 12.1396 17.25 12.14C17.25 12.1405 17.25 12.141 17.25 12.1414C17.25 12.1419 17.25 12.1423 17.25 12.1427C17.25 12.1432 17.25 12.1436 17.25 12.1441C17.25 12.1445 17.25 12.145 17.25 12.1454C17.25 12.1459 17.25 12.1463 17.25 12.1467C17.25 12.1472 17.25 12.1476 17.25 12.148C17.25 12.1485 17.25 12.1489 17.25 12.1493C17.25 12.1498 17.25 12.1502 17.25 12.1506C17.25 12.1511 17.25 12.1515 17.25 12.1519C17.25 12.1523 17.25 12.1528 17.25 12.1532C17.25 12.1536 17.25 12.154 17.25 12.1545C17.25 12.1549 17.25 12.1553 17.25 12.1557C17.25 12.1561 17.25 12.1566 17.25 12.157C17.25 12.1574 17.25 12.1578 17.25 12.1582C17.25 12.1586 17.25 12.1591 17.25 12.1595C17.25 12.1599 17.25 12.1603 17.25 12.1607C17.25 12.1611 17.25 12.1615 17.25 12.1619C17.25 12.1623 17.25 12.1627 17.25 12.1631C17.25 12.1635 17.25 12.1639 17.25 12.1643C17.25 12.1647 17.25 12.1651 17.25 12.1655C17.25 12.1659 17.25 12.1663 17.25 12.1667C17.25 12.1671 17.25 12.1675 17.25 12.1679C17.25 12.1683 17.25 12.1687 17.25 12.169C17.25 12.1694 17.25 12.1698 17.25 12.1702C17.25 12.1706 17.25 12.171 17.25 12.1714C17.25 12.1717 17.25 12.1721 17.25 12.1725C17.25 12.1729 17.25 12.1733 17.25 12.1736C17.25 12.174 17.25 12.1744 17.25 12.1748C17.25 12.1751 17.25 12.1755 17.25 12.1759C17.25 12.1762 17.25 12.1766 17.25 12.177C17.25 12.1774 17.25 12.1777 17.25 12.1781C17.25 12.1784 17.25 12.1788 17.25 12.1792C17.25 12.1795 17.25 12.1799 17.25 12.1803C17.25 12.1806 17.25 12.181 17.25 12.1813C17.25 12.1817 17.25 12.182 17.25 12.1824C17.25 12.1828 17.25 12.1831 17.25 12.1835C17.25 12.1838 17.25 12.1842 17.25 12.1845C17.25 12.1849 17.25 12.1852 17.25 12.1855C17.25 12.1859 17.25 12.1862 17.25 12.1866C17.25 12.1869 17.25 12.1873 17.25 12.1876C17.25 12.1879 17.25 12.1883 17.25 12.1886C17.25 12.1889 17.25 12.1893 17.25 12.1896C17.25 12.1899 17.25 12.1903 17.25 12.1906C17.25 12.1909 17.25 12.1913 17.25 12.1916C17.25 12.1919 17.25 12.1923 17.25 12.1926C17.25 12.1929 17.25 12.1932 17.25 12.1936C17.25 12.1939 17.25 12.1942 17.25 12.1945C17.25 12.1948 17.25 12.1951 17.25 12.1955C17.25 12.1958 17.25 12.1961 17.25 12.1964C17.25 12.1967 17.25 12.197 17.25 12.1973C17.25 12.1977 17.25 12.198 17.25 12.1983C17.25 12.1986 17.25 12.1989 17.25 12.1992C17.25 12.1995 17.25 12.1998 17.25 12.2001C17.25 12.2004 17.25 12.2007 17.25 12.201C17.25 12.2013 17.25 12.2016 17.25 12.2019C17.25 12.2022 17.25 12.2025 17.25 12.2028C17.25 12.2031 17.25 12.2034 17.25 12.2036C17.25 12.2039 17.25 12.2042 17.25 12.2045C17.25 12.2048 17.25 12.2051 17.25 12.2054C17.25 12.2057 17.25 12.2059 17.25 12.2062C17.25 12.2065 17.25 12.2068 17.25 12.2071C17.25 12.2073 17.25 12.2076 17.25 12.2079C17.25 12.2082 17.25 12.2084 17.25 12.2087C17.25 12.209 17.25 12.2093 17.25 12.2095C17.25 12.2098 17.25 12.2101 17.25 12.2103C17.25 12.2106 17.25 12.2109 17.25 12.2111C17.25 12.2114 17.25 12.2116 17.25 12.2119C17.25 12.2122 17.25 12.2124 17.25 12.2127C17.25 12.2129 17.25 12.2132 17.25 12.2135C17.25 12.2137 17.25 12.214 17.25 12.2142C17.25 12.2145 17.25 12.2147 17.25 12.215C17.25 12.2152 17.25 12.2155 17.25 12.2157C17.25 12.2159 17.25 12.2162 17.25 12.2164C17.25 12.2167 17.25 12.2169 17.25 12.2172C17.25 12.2174 17.25 12.2176 17.25 12.2179C17.25 12.2181 17.25 12.2183 17.25 12.2186C17.25 12.2188 17.25 12.219 17.25 12.2193C17.25 12.2195 17.25 12.2197 17.25 12.22C17.25 12.2202 17.25 12.2204 17.25 12.2206C17.25 12.2209 17.25 12.2211 17.25 12.2213C17.25 12.2215 17.25 12.2217 17.25 12.222C17.25 12.2222 17.25 12.2224 17.25 12.2226C17.25 12.2228 17.25 12.223 17.25 12.2233C17.25 12.2235 17.25 12.2237 17.25 12.2239C17.25 12.2241 17.25 12.2243 17.25 12.2245C17.25 12.2247 17.25 12.2249 17.25 12.2251C17.25 12.2253 17.25 12.2255 17.25 12.2257C17.25 12.2259 17.25 12.2261 17.25 12.2263C17.25 12.2265 17.25 12.2267 17.25 12.2269C17.25 12.2271 17.25 12.2273 17.25 12.2275C17.25 12.2277 17.25 12.2279 17.25 12.2281C17.25 12.2283 17.25 12.2284 17.25 12.2286C17.25 12.2288 17.25 12.229 17.25 12.2292C17.25 12.2294 17.25 12.2295 17.25 12.2297C17.25 12.2299 17.25 12.2301 17.25 12.2303C17.25 12.2304 17.25 12.2306 17.25 12.2308C17.25 12.231 17.25 12.2311 17.25 12.2313C17.25 12.2315 17.25 12.2316 17.25 12.2318C17.25 12.232 17.25 12.2321 17.25 12.2323C17.25 12.2325 17.25 12.2326 17.25 12.2328C17.25 12.2329 17.25 12.2331 17.25 12.2333C17.25 12.2334 17.25 12.2336 17.25 12.2337C17.25 12.2339 17.25 12.234 17.25 12.2342C17.25 12.2343 17.25 12.2345 17.25 12.2346C17.25 12.2348 17.25 12.2349 17.25 12.2351C17.25 12.2352 17.25 12.2354 17.25 12.2355C17.25 12.2357 17.25 12.2358 17.25 12.2359C17.25 12.2361 17.25 12.2362 17.25 12.2363C17.25 12.2365 17.25 12.2366 17.25 12.2368C17.25 12.2369 17.25 12.237 17.25 12.2371C17.25 12.2373 17.25 12.2374 17.25 12.2375C17.25 12.2377 17.25 12.2378 17.25 12.2379C17.25 12.238 17.25 12.2382 17.25 12.2383C17.25 12.2384 17.25 12.2385 17.25 12.2386C17.25 12.2387 17.25 12.2389 17.25 12.239C17.25 12.2391 17.25 12.2392 17.25 12.2393C17.25 12.2394 17.25 12.2395 17.25 12.2396C17.25 12.2398 17.25 12.2399 17.25 12.24C17.25 12.2401 17.25 12.2402 17.25 12.2403C17.25 12.2404 17.25 12.2405 17.25 12.2406C17.25 12.2407 17.25 12.2408 17.25 12.2409C17.25 12.241 17.25 12.2411 17.25 12.2411C17.25 12.2412 17.25 12.2413 17.25 12.2414C17.25 12.2415 17.25 12.2416 17.25 12.2417C17.25 12.2418 17.25 12.2419 17.25 12.2419C17.25 12.242 17.25 12.2421 17.25 12.2422C17.25 12.2423 17.25 12.2423 17.25 12.2424C17.25 12.2425 17.25 12.2426 17.25 12.2426C17.25 12.2427 17.25 12.2428 17.25 12.2429C17.25 12.2429 17.25 12.243 17.25 12.2431C17.25 12.2431 17.25 12.2432 17.25 12.2433C17.25 12.2433 17.25 12.2434 17.25 12.2434C17.25 12.2435 17.25 12.2436 17.25 12.2436C17.25 12.2437 17.25 12.2437 17.25 12.2438C17.25 12.2438 17.25 12.2439 17.25 12.244C17.25 12.244 17.25 12.2441 17.25 12.2441C17.25 12.2442 17.25 12.2442 17.25 12.2442C17.25 12.2443 17.25 12.2443 17.25 12.2444C17.25 12.2444 17.25 12.2445 17.25 12.2445C17.25 12.2445 17.25 12.2446 17.25 12.2446C17.25 12.2446 17.25 12.2447 17.25 12.2447C17.25 12.2447 17.25 12.2448 17.25 12.2448C17.25 12.2448 17.25 12.2449 17.25 12.2449C17.25 12.2449 17.25 12.2449 17.25 12.245C17.25 12.245 17.25 12.245 17.25 12.245C17.25 12.245 17.25 12.2451 17.25 12.2451C17.25 12.2451 17.25 12.2451 17.25 12.2451C17.25 12.2451 17.25 12.2451 17.25 12.2451C17.25 12.2452 17.25 12.2452 17.25 12.2452C17.25 12.2452 17.25 12.2452 17.25 12.2452C17.25 12.2452 17.25 12.2452 18 12.2452ZM18.75 11.1858C18.75 10.6625 18.5395 10.1552 18.1166 9.78813C17.6994 9.42598 17.1351 9.25 16.5 9.25V10.75C16.8649 10.75 17.0506 10.8491 17.1334 10.9209C17.2105 10.9879 17.25 11.0734 17.25 11.1858H18.75ZM16.5 9.25H15V10.75H16.5V9.25ZM14.25 13.5V16H15.75V13.5H14.25ZM14.25 10V13.5H15.75V10H14.25ZM16.3105 13.7268L17.3011 16.272L18.6989 15.7279L17.7083 13.1828L16.3105 13.7268ZM6.5 9.25C5.37598 9.25 4.25 10.174 4.25 11.5H5.75C5.75 11.0806 6.12402 10.75 6.5 10.75V9.25ZM4.25 11.5V14.5H5.75V11.5H4.25ZM4.25 14.5C4.25 15.2035 4.52128 15.7863 4.97048 16.1856C5.40587 16.5726 5.9652 16.75 6.5 16.75V15.25C6.2848 15.25 6.09413 15.1774 5.96702 15.0644C5.85372 14.9637 5.75 14.7965 5.75 14.5H4.25ZM8.75 11.6364C8.75 10.9091 8.49475 10.2987 8.05336 9.87067C7.62078 9.45119 7.05344 9.25 6.5 9.25V10.75C6.69656 10.75 6.87922 10.8215 7.00914 10.9475C7.13025 11.065 7.25 11.2727 7.25 11.6364H8.75ZM6.5 16.75C7.05344 16.75 7.62078 16.5488 8.05336 16.1293C8.49475 15.7013 8.75 15.0909 8.75 14.3636H7.25C7.25 14.7273 7.13025 14.935 7.00914 15.0525C6.87922 15.1785 6.69656 15.25 6.5 15.25V16.75Z" fill="black"/>
</svg>
