<svg width="24" height="24" viewBox="0 0 24 24" fill="none" xmlns="http://www.w3.org/2000/svg">
<path d="M19 20V20.75H19.75V20H19ZM5 20H4.25V20.75H5V20ZM5 4V3.25H4.25V4H5ZM16 4L16.5303 3.46967L16.3107 3.25H16V4ZM19 7L19.75 7V6.68934L19.5303 6.46967L19 7ZM10.2416 10V9.25H9.49161V10H10.2416ZM9.49161 16C9.49161 16.4142 9.82739 16.75 10.2416 16.75C10.6558 16.75 10.9916 16.4142 10.9916 16H9.49161ZM13.2416 10.75C13.6558 10.75 13.9916 10.4142 13.9916 10C13.9916 9.58579 13.6558 9.25 13.2416 9.25V10.75ZM12.7416 13.75C13.1558 13.75 13.4916 13.4142 13.4916 13C13.4916 12.5858 13.1558 12.25 12.7416 12.25V13.75ZM15 11.6438H15.75V11.6438L15 11.6438ZM18.5 13.2877H19.25V12.5377H18.5V13.2877ZM19 19.25H5V20.75H19V19.25ZM5 4.75H16V3.25H5V4.75ZM15.4697 4.53033L18.4697 7.53033L19.5303 6.46967L16.5303 3.46967L15.4697 4.53033ZM5.75 8V4H4.25V8H5.75ZM5.75 20V18H4.25V20H5.75ZM18.25 7L18.25 8L19.75 8L19.75 7L18.25 7ZM18.25 18V20H19.75V18H18.25ZM9.49161 10V13H10.9916V10H9.49161ZM9.49161 13V16H10.9916V13H9.49161ZM10.2416 10.75H13.2416V9.25H10.2416V10.75ZM10.2416 13.75H12.7416V12.25H10.2416V13.75ZM16.6989 9.25C15.7966 9.25 15.1587 9.66372 14.7673 10.1811C14.4016 10.6646 14.25 11.2358 14.25 11.6439L15.75 11.6438C15.75 11.5496 15.8026 11.2989 15.9636 11.086C16.099 10.9071 16.3104 10.75 16.6989 10.75V9.25ZM14.25 11.6438V14.2341H15.75V11.6438H14.25ZM14.25 14.2341C14.25 15.6153 15.2479 16.75 16.6989 16.75V15.25C16.1497 15.25 15.75 14.8622 15.75 14.2341H14.25ZM19.25 14.3836V13.2877H17.75V14.3836H19.25ZM18.5 12.5377H16.9898V14.0377H18.5V12.5377ZM19.25 11.6438C19.25 10.9196 18.9607 10.2996 18.4662 9.87019C17.9829 9.45044 17.3487 9.25 16.6989 9.25V10.75C17.0491 10.75 17.3155 10.8575 17.4827 11.0028C17.6388 11.1383 17.75 11.3403 17.75 11.6438H19.25ZM16.6989 16.75C17.3191 16.75 17.9548 16.5894 18.4505 16.1824C18.9669 15.7583 19.25 15.1321 19.25 14.3836H17.75C17.75 14.731 17.6326 14.913 17.4985 15.0231C17.3436 15.1504 17.0787 15.25 16.6989 15.25V16.75ZM6.5 9.25C5.37598 9.25 4.25 10.174 4.25 11.5H5.75C5.75 11.0806 6.12402 10.75 6.5 10.75V9.25ZM4.25 11.5V14.5H5.75V11.5H4.25ZM4.25 14.5C4.25 15.2035 4.52128 15.7863 4.97048 16.1856C5.40587 16.5726 5.9652 16.75 6.5 16.75V15.25C6.2848 15.25 6.09413 15.1774 5.96702 15.0644C5.85372 14.9637 5.75 14.7965 5.75 14.5H4.25ZM8.75 11.6364C8.75 10.9091 8.49475 10.2987 8.05336 9.87067C7.62078 9.45119 7.05344 9.25 6.5 9.25V10.75C6.69656 10.75 6.87922 10.8215 7.00914 10.9475C7.13025 11.065 7.25 11.2727 7.25 11.6364H8.75ZM6.5 16.75C7.05344 16.75 7.62078 16.5488 8.05336 16.1293C8.49475 15.7013 8.75 15.0909 8.75 14.3636H7.25C7.25 14.7273 7.13025 14.935 7.00914 15.0525C6.87922 15.1785 6.69656 15.25 6.5 15.25V16.75Z" fill="black"/>
</svg>
