<svg width="24" height="24" viewBox="0 0 24 24" fill="none" xmlns="http://www.w3.org/2000/svg">
<path d="M19.7352 9.15391H19.255V6.8367C19.255 6.82214 19.2527 6.80769 19.2508 6.79295C19.25 6.70104 19.2205 6.61063 19.1577 6.53906L15.3016 2.13413C15.3005 2.13301 15.2993 2.1325 15.2986 2.13137C15.2756 2.1057 15.2488 2.08435 15.2205 2.06587C15.212 2.06024 15.2036 2.05545 15.1948 2.05054C15.1703 2.03725 15.1442 2.02603 15.1174 2.01801C15.1102 2.01609 15.1037 2.01311 15.0964 2.01118C15.0673 2.00432 15.037 2 15.0063 2H5.52955C5.0968 2 4.74524 2.35196 4.74524 2.78435V9.15373H4.26499C3.64622 9.15373 3.14404 9.65547 3.14404 10.2747V16.1043C3.14404 16.7229 3.64622 17.2252 4.26499 17.2252H4.74524V21.2157C4.74524 21.648 5.0968 22 5.52955 22H18.4707C18.903 22 19.255 21.648 19.255 21.2157V17.2252H19.7353C20.3545 17.2252 20.8562 16.7231 20.8562 16.1043V10.2749C20.8561 9.65547 20.3544 9.15391 19.7352 9.15391ZM5.52955 2.78449H14.6142V6.7972C14.6142 7.01386 14.79 7.18935 15.0064 7.18935H18.4707V9.15405H5.52955V2.78449ZM13.1854 12.612V13.6264H11.2061V15.8422H9.95535V10.3313H13.324V11.3535H11.2061V12.612H13.1854ZM4.83561 13.1684C4.83561 11.2877 6.17715 10.2409 7.84504 10.2409C8.49112 10.2409 8.98168 10.3716 9.20266 10.4864L8.94878 11.4761C8.69562 11.3692 8.34406 11.2711 7.90212 11.2711C6.91284 11.2711 6.14421 11.8682 6.14421 13.0949C6.14421 14.1986 6.79831 14.8937 7.91055 14.8937C8.28662 14.8937 8.70368 14.8121 8.94878 14.7141L9.1368 15.6872C8.90818 15.8017 8.39308 15.9243 7.72249 15.9243C5.81716 15.9243 4.83561 14.7384 4.83561 13.1684ZM18.4707 21.0033H5.52955V17.2252H18.4707V21.0033ZM18.8686 15.5888C18.4845 15.7191 17.7564 15.8997 17.0284 15.8997C16.0226 15.8997 15.2953 15.6456 14.7879 15.155C14.2813 14.6805 14.0032 13.9613 14.0116 13.1517C14.0197 11.3199 15.3524 10.2733 17.1598 10.2733C17.8709 10.2733 18.419 10.4127 18.6886 10.5436L18.427 11.5405C18.1249 11.4099 17.7484 11.3034 17.143 11.3034C16.1051 11.3034 15.3199 11.8925 15.3199 13.0862C15.3199 14.2229 16.0316 14.8934 17.0537 14.8934C17.3398 14.8934 17.5684 14.8609 17.6665 14.8119V13.6584H16.8163V12.6863H18.8686V15.5888H18.8686Z" fill="black"/>
</svg>
