<svg width="24" height="24" viewBox="0 0 24 24" fill="none" xmlns="http://www.w3.org/2000/svg">
<path d="M19 20V20.75H19.75V20H19ZM5 20H4.25V20.75H5V20ZM5 4V3.25H4.25V4H5ZM16 4L16.5303 3.46967L16.3107 3.25H16V4ZM19 7L19.75 7V6.68934L19.5303 6.46967L19 7ZM9.44821 10V9.25H8.69821V10H9.44821ZM8.69821 16C8.69821 16.4142 9.034 16.75 9.44821 16.75C9.86243 16.75 10.1982 16.4142 10.1982 16H8.69821ZM12.4482 10.75C12.8624 10.75 13.1982 10.4142 13.1982 10C13.1982 9.58579 12.8624 9.25 12.4482 9.25V10.75ZM11.9482 13.75C12.3624 13.75 12.6982 13.4142 12.6982 13C12.6982 12.5858 12.3624 12.25 11.9482 12.25V13.75ZM14.4482 10V9.25C14.034 9.25 13.6982 9.58579 13.6982 10H14.4482ZM13.6982 16C13.6982 16.4142 14.034 16.75 14.4482 16.75C14.8624 16.75 15.1982 16.4142 15.1982 16H13.6982ZM15.1625 10L15.8596 9.72337C15.7462 9.43761 15.4699 9.25 15.1625 9.25V10ZM16.9482 14.5L16.2511 14.7766C16.3645 15.0624 16.6408 15.25 16.9482 15.25C17.2556 15.25 17.5319 15.0624 17.6453 14.7766L16.9482 14.5ZM18.7339 10V9.25C18.4265 9.25 18.1502 9.43761 18.0368 9.72337L18.7339 10ZM19.4482 10H20.1982C20.1982 9.58579 19.8624 9.25 19.4482 9.25V10ZM18.6982 16C18.6982 16.4142 19.034 16.75 19.4482 16.75C19.8624 16.75 20.1982 16.4142 20.1982 16H18.6982ZM19 19.25H5V20.75H19V19.25ZM5 4.75H16V3.25H5V4.75ZM15.4697 4.53033L18.4697 7.53033L19.5303 6.46967L16.5303 3.46967L15.4697 4.53033ZM5.75 8V4H4.25V8H5.75ZM5.75 20V18H4.25V20H5.75ZM18.25 7L18.25 8L19.75 8L19.75 7L18.25 7ZM18.25 18V20H19.75V18H18.25ZM8.69821 10V13H10.1982V10H8.69821ZM8.69821 13V16H10.1982V13H8.69821ZM9.44821 10.75H12.4482V9.25H9.44821V10.75ZM9.44821 13.75H11.9482V12.25H9.44821V13.75ZM13.6982 10V16H15.1982V10H13.6982ZM14.4482 10.75H15.1625V9.25H14.4482V10.75ZM14.4654 10.2766L16.2511 14.7766L17.6453 14.2234L15.8596 9.72337L14.4654 10.2766ZM17.6453 14.7766L19.431 10.2766L18.0368 9.72337L16.2511 14.2234L17.6453 14.7766ZM18.7339 10.75H19.4482V9.25H18.7339V10.75ZM18.6982 10V16H20.1982V10H18.6982ZM5.5 9.25C4.37598 9.25 3.25 10.174 3.25 11.5H4.75C4.75 11.0806 5.12402 10.75 5.5 10.75V9.25ZM3.25 11.5V14.5H4.75V11.5H3.25ZM3.25 14.5C3.25 15.2035 3.52128 15.7863 3.97048 16.1856C4.40587 16.5726 4.9652 16.75 5.5 16.75V15.25C5.2848 15.25 5.09413 15.1774 4.96702 15.0644C4.85372 14.9637 4.75 14.7965 4.75 14.5H3.25ZM7.75 11.6364C7.75 10.9091 7.49475 10.2987 7.05336 9.87067C6.62078 9.45119 6.05344 9.25 5.5 9.25V10.75C5.69656 10.75 5.87922 10.8215 6.00914 10.9475C6.13025 11.065 6.25 11.2727 6.25 11.6364H7.75ZM5.5 16.75C6.05344 16.75 6.62078 16.5488 7.05336 16.1293C7.49475 15.7013 7.75 15.0909 7.75 14.3636H6.25C6.25 14.7273 6.13025 14.935 6.00914 15.0525C5.87922 15.1785 5.69656 15.25 5.5 15.25V16.75Z" fill="black"/>
</svg>
