<svg xmlns="http://www.w3.org/2000/svg" width="20" height="20" fill="none" viewBox="0 0 20 20">
  <path fill="#A0A0A0" d="M17.735 7.154h-.48V4.836c0-.014-.002-.029-.004-.043a.385.385 0 00-.093-.254L13.302.134l-.003-.003a.39.39 0 00-.079-.065c-.008-.006-.016-.01-.025-.015a.41.41 0 00-.078-.033l-.02-.007a.393.393 0 00-.09-.011H3.53a.785.785 0 00-.785.784v6.37h-.48c-.619 0-1.121.501-1.121 1.12v5.83c0 .619.502 1.121 1.121 1.121h.48v3.99c0 .433.352.785.785.785h12.94a.785.785 0 00.785-.784v-3.99h.48c.62 0 1.121-.503 1.121-1.122v-5.83a1.12 1.12 0 00-1.12-1.12zM3.052 11.086c0-2.045 1.458-3.182 3.27-3.182.703 0 1.236.142 1.476.266l-.276 1.076a2.922 2.922 0 00-1.138-.223c-1.075 0-1.91.649-1.91 1.982 0 1.2.71 1.955 1.92 1.955a3.39 3.39 0 001.128-.195l.205 1.058c-.25.124-.809.258-1.537.258-2.071 0-3.138-1.29-3.138-2.995zm13.419 7.917H3.53v-3.778h12.94v3.778zm-5.092-6.042c.312 0 .56-.036.667-.09V11.62h-.924V10.56h2.23v3.155a6.701 6.701 0 01-2 .338c-1.092 0-1.883-.276-2.435-.809-.55-.515-.853-1.297-.844-2.177.009-1.99 1.458-3.129 3.422-3.129.773 0 1.369.151 1.662.294l-.285 1.084c-.328-.143-.737-.258-1.395-.258-1.128 0-1.981.64-1.981 1.938 0 1.235.773 1.964 1.883 1.964zm3.03 1.03v-5.99h1.36v5.99h-1.36zm2.062-6.837H3.53V.784h9.084v4.013c0 .217.176.392.392.392h3.465v1.965z"/>
</svg>
