<svg width="24" height="24" viewBox="0 0 24 24" fill="none" xmlns="http://www.w3.org/2000/svg">
<path d="M19 20V20.75H19.75V20H19ZM5 20H4.25V20.75H5V20ZM5 4V3.25H4.25V4H5ZM16 4L16.5303 3.46967L16.3107 3.25H16V4ZM19 7L19.75 7V6.68934L19.5303 6.46967L19 7ZM11 11.6364H11.75V11.6363L11 11.6364ZM14.5 13.2727H15.25V12.5227H14.5V13.2727ZM17.75 10C17.75 9.58579 17.4142 9.25 17 9.25C16.5858 9.25 16.25 9.58579 16.25 10H17.75ZM16.25 16C16.25 16.4142 16.5858 16.75 17 16.75C17.4142 16.75 17.75 16.4142 17.75 16H16.25ZM19 19.25H5V20.75H19V19.25ZM5 4.75H16V3.25H5V4.75ZM15.4697 4.53033L18.4697 7.53033L19.5303 6.46967L16.5303 3.46967L15.4697 4.53033ZM5.75 8V4H4.25V8H5.75ZM5.75 20V18H4.25V20H5.75ZM18.25 7L18.25 8L19.75 8L19.75 7L18.25 7ZM18.25 18V20H19.75V18H18.25ZM7.35055 9.25C6.22653 9.25 5.10055 10.174 5.10055 11.5H6.60055C6.60055 11.0806 6.97458 10.75 7.35055 10.75V9.25ZM5.10055 11.5V14.5H6.60055V11.5H5.10055ZM5.10055 14.5C5.10055 15.2035 5.37183 15.7863 5.82103 16.1856C6.25643 16.5726 6.81575 16.75 7.35055 16.75V15.25C7.13536 15.25 6.94468 15.1774 6.81758 15.0644C6.70428 14.9637 6.60055 14.7965 6.60055 14.5H5.10055ZM9.60055 11.6364C9.60055 10.9091 9.3453 10.2987 8.90391 9.87067C8.47133 9.45119 7.904 9.25 7.35055 9.25V10.75C7.54711 10.75 7.72978 10.8215 7.8597 10.9475C7.98081 11.065 8.10055 11.2727 8.10055 11.6364H9.60055ZM7.35055 16.75C7.904 16.75 8.47133 16.5488 8.90391 16.1293C9.3453 15.7013 9.60055 15.0909 9.60055 14.3636H8.10055C8.10055 14.7273 7.98081 14.935 7.8597 15.0525C7.72978 15.1785 7.54711 15.25 7.35055 15.25V16.75ZM12.6989 9.25C11.798 9.25 11.1602 9.66113 10.7683 10.1769C10.4021 10.6588 10.25 11.2286 10.25 11.6364L11.75 11.6363C11.75 11.5441 11.802 11.2957 11.9626 11.0845C12.0974 10.907 12.309 10.75 12.6989 10.75V9.25ZM10.25 11.6364V14.2149H11.75V11.6364H10.25ZM10.25 14.2149C10.25 15.5947 11.2511 16.7227 12.6989 16.7227V15.2227C12.1466 15.2227 11.75 14.835 11.75 14.2149H10.25ZM15.25 14.3636V13.2727H13.75V14.3636H15.25ZM14.5 12.5227H12.9898V14.0227H14.5V12.5227ZM15.25 11.6364C15.25 10.9132 14.9597 10.2948 14.4649 9.86709C13.9815 9.44921 13.3478 9.25 12.6989 9.25V10.75C13.0499 10.75 13.3168 10.8574 13.484 11.0019C13.6398 11.1366 13.75 11.3364 13.75 11.6364H15.25ZM12.6989 16.7227C13.3183 16.7227 13.9536 16.563 14.4492 16.1579C14.9659 15.7355 15.25 15.1109 15.25 14.3636H13.75C13.75 14.7073 13.6336 14.8872 13.4998 14.9966C13.3448 15.1233 13.0795 15.2227 12.6989 15.2227V16.7227ZM16.25 10V16H17.75V10H16.25Z" fill="black"/>
</svg>
