<svg xmlns="http://www.w3.org/2000/svg" width="20" height="20" fill="none" viewBox="0 0 20 20">
  <path fill="#A0A0A0" d="M10.331 10.316c-.067-.243-.134-.548-.19-.79h-.01c-.057.242-.112.553-.174.79l-.223.87h.831l-.234-.87z"/>
  <path fill="#A0A0A0" d="M17.735 7.154h-.48V4.836c0-.014-.002-.029-.004-.043a.385.385 0 00-.093-.254L13.302.134l-.003-.003a.384.384 0 00-.104-.08.41.41 0 00-.078-.033l-.02-.007a.397.397 0 00-.09-.011H3.53a.785.785 0 00-.785.784v6.37h-.48c-.619 0-1.121.501-1.121 1.12v5.83c0 .619.502 1.121 1.121 1.121h.48v3.99c0 .433.352.785.785.785h12.94a.785.785 0 00.785-.784v-3.99h.48c.62 0 1.121-.503 1.121-1.122v-5.83c0-.619-.502-1.12-1.12-1.12zM3.53.784h9.084v4.013c0 .217.176.392.392.392h3.465v1.965H3.53V.784zm9.804 10.426c-.626-.237-1.033-.614-1.033-1.21 0-.7.536-1.235 1.423-1.235.424 0 .737.097.96.206l-.19.749a1.673 1.673 0 00-.787-.195c-.368 0-.546.183-.546.395 0 .262.212.378.697.578.664.268.977.645.977 1.223 0 .688-.486 1.272-1.519 1.272-.43 0-.853-.122-1.065-.25l.173-.766c.229.128.58.255.943.255.39 0 .597-.176.597-.444 0-.255-.178-.401-.63-.578zm-1.44 1.722h-.916l-.29-1.052H9.61l-.268 1.052h-.882l1.15-4.1h1.116l1.166 4.1zm-3.695-.779v.78H5.85V8.831h.854v3.321H8.2zm-5.844-1.21c0-1.4.916-2.178 2.054-2.178.441 0 .776.097.927.182l-.173.736a1.705 1.705 0 00-.715-.152c-.675 0-1.2.445-1.2 1.357 0 .821.447 1.338 1.206 1.338.256 0 .541-.06.709-.133l.128.724c-.156.085-.508.176-.965.176-1.3 0-1.97-.882-1.97-2.05zm14.116 8.06H3.53v-3.778h12.94v3.778zm-.14-6.01c-.43 0-.854-.122-1.066-.25l.173-.766c.228.128.58.256.943.256.39 0 .597-.177.597-.444 0-.256-.179-.402-.63-.578-.626-.238-1.033-.615-1.033-1.211 0-.7.536-1.235 1.423-1.235.424 0 .736.097.96.207l-.19.748a1.67 1.67 0 00-.787-.195c-.368 0-.546.183-.546.396 0 .261.211.377.697.578.664.267.976.645.976 1.223 0 .687-.485 1.27-1.517 1.27z"/>
</svg>
