<svg width="24" height="24" viewBox="0 0 24 24" fill="none" xmlns="http://www.w3.org/2000/svg">
<path d="M12.3312 12.3158C12.2638 12.0726 12.1973 11.7684 12.1413 11.5251H12.1303C12.0742 11.7684 12.0185 12.0787 11.9574 12.3158L11.7338 13.186H12.5653L12.3312 12.3158Z" fill="black"/>
<path d="M19.7352 9.15391H19.255V6.83648C19.255 6.82192 19.2527 6.80747 19.2508 6.79273C19.25 6.70083 19.2207 6.61034 19.1577 6.53881L15.3016 2.13413C15.3005 2.1329 15.2993 2.1325 15.2986 2.13137C15.2756 2.10563 15.2488 2.08424 15.2205 2.06587C15.212 2.06013 15.2036 2.05545 15.1948 2.05054C15.1703 2.03725 15.1442 2.02603 15.1174 2.01801C15.1102 2.01609 15.1037 2.01311 15.0964 2.01111C15.0673 2.00432 15.037 2 15.0063 2H5.52955C5.0968 2 4.74524 2.35196 4.74524 2.78435V9.15373H4.2651C3.64604 9.15373 3.14404 9.65547 3.14404 10.2746V16.104C3.14404 16.7229 3.646 17.2252 4.2651 17.2252H4.74524V21.2157C4.74524 21.648 5.0968 22 5.52955 22H18.4707C18.903 22 19.255 21.648 19.255 21.2157V17.2252H19.7353C20.3541 17.2252 20.8562 16.7231 20.8562 16.1043V10.2749C20.8561 9.65547 20.3541 9.15391 19.7352 9.15391ZM5.52955 2.78435H14.6142V6.79705C14.6142 7.01372 14.79 7.18921 15.0064 7.18921H18.4707V9.15391H5.52955V2.78435ZM15.3336 13.2103C14.7084 12.9733 14.3011 12.5961 14.3011 11.9996C14.3011 11.2999 14.8367 10.7646 15.7238 10.7646C16.1482 10.7646 16.4607 10.8621 16.6838 10.9713L16.4942 11.7195C16.3435 11.6407 16.0756 11.525 15.7074 11.525C15.3392 11.525 15.1605 11.7075 15.1605 11.9203C15.1605 12.1819 15.3727 12.2979 15.8581 12.4983C16.5221 12.7662 16.8347 13.1433 16.8347 13.7214C16.8347 14.4088 16.349 14.9926 15.3164 14.9926C14.8869 14.9926 14.4626 14.871 14.2508 14.7435L14.4235 13.9768C14.6525 14.1047 15.0039 14.2324 15.3668 14.2324C15.7572 14.2324 15.9638 14.0561 15.9638 13.7884C15.9642 13.533 15.7857 13.3867 15.3336 13.2103ZM13.8935 14.9324H12.9784L12.6879 13.8798H11.6111L11.3433 14.9324H10.4612L11.6111 10.8318H12.7269L13.8935 14.9324ZM10.1992 14.1534V14.9324H7.84933V10.8318H8.70306V14.1534H10.1992ZM4.35548 12.9429C4.35548 11.5435 5.27094 10.7648 6.40921 10.7648C6.8502 10.7648 7.18531 10.8623 7.33571 10.9474L7.16251 11.6835C6.9896 11.6043 6.74959 11.5315 6.44817 11.5315C5.77312 11.5315 5.24843 11.9756 5.24843 12.888C5.24843 13.7093 5.69487 14.2265 6.45391 14.2265C6.71033 14.2265 6.99505 14.1656 7.16251 14.0926L7.29138 14.8166C7.13484 14.9018 6.7831 14.9929 6.32584 14.9929C5.02545 14.9929 4.35548 14.1109 4.35548 12.9429ZM18.4707 21.0031H5.52955V17.2252H18.4707V21.0031ZM18.3307 14.9929C17.9008 14.9929 17.4769 14.8714 17.2647 14.7436L17.4379 13.9771C17.6665 14.1048 18.0182 14.2327 18.3811 14.2327C18.7715 14.2327 18.9781 14.0565 18.9781 13.7885C18.9781 13.533 18.7993 13.3871 18.3472 13.2106C17.7224 12.9735 17.3145 12.5963 17.3145 11.9998C17.3145 11.3002 17.8507 10.7649 18.738 10.7649C19.1624 10.7649 19.4745 10.8624 19.6981 10.9716L19.508 11.7198C19.3576 11.641 19.09 11.5253 18.7211 11.5253C18.3529 11.5253 18.1747 11.7079 18.1747 11.9206C18.1747 12.1822 18.3864 12.298 18.8721 12.4987C19.5361 12.7664 19.8484 13.1436 19.8484 13.7215C19.8484 14.4088 19.3634 14.9929 18.3307 14.9929Z" fill="black"/>
</svg>
