<svg width="24" height="24" viewBox="0 0 24 24" fill="none" xmlns="http://www.w3.org/2000/svg">
<path d="M19 20V20.75H19.75V20H19ZM5 20H4.25V20.75H5V20ZM5 4V3.25H4.25V4H5ZM16 4L16.5303 3.46967L16.3107 3.25H16V4ZM19 7L19.75 7V6.68934L19.5303 6.46967L19 7ZM15 10V9.25C14.5858 9.25 14.25 9.58579 14.25 10H15ZM14.25 16C14.25 16.4142 14.5858 16.75 15 16.75C15.4142 16.75 15.75 16.4142 15.75 16H14.25ZM15.7143 10L16.4114 9.72337C16.298 9.43761 16.0217 9.25 15.7143 9.25V10ZM17.5 14.5L16.8029 14.7766C16.9163 15.0624 17.1926 15.25 17.5 15.25C17.8074 15.25 18.0837 15.0624 18.1971 14.7766L17.5 14.5ZM19.2857 10V9.25C18.9783 9.25 18.702 9.43761 18.5886 9.72337L19.2857 10ZM20 10H20.75C20.75 9.58579 20.4142 9.25 20 9.25V10ZM19.25 16C19.25 16.4142 19.5858 16.75 20 16.75C20.4142 16.75 20.75 16.4142 20.75 16H19.25ZM19 19.25H5V20.75H19V19.25ZM5 4.75H16V3.25H5V4.75ZM15.4697 4.53033L18.4697 7.53033L19.5303 6.46967L16.5303 3.46967L15.4697 4.53033ZM5.75 20V18H4.25V20H5.75ZM18.25 7L18.25 8L19.75 8L19.75 7L18.25 7ZM18.25 18V20H19.75V18H18.25ZM5.5 9.25C4.37598 9.25 3.25 10.174 3.25 11.5H4.75C4.75 11.0806 5.12402 10.75 5.5 10.75V9.25ZM3.25 11.5V14.5H4.75V11.5H3.25ZM3.25 14.5C3.25 15.2035 3.52128 15.7863 3.97048 16.1856C4.40587 16.5726 4.9652 16.75 5.5 16.75V15.25C5.2848 15.25 5.09413 15.1774 4.96702 15.0644C4.85372 14.9637 4.75 14.7965 4.75 14.5H3.25ZM7.75 11.6364C7.75 10.9091 7.49475 10.2987 7.05336 9.87067C6.62078 9.45119 6.05344 9.25 5.5 9.25V10.75C5.69656 10.75 5.87922 10.8215 6.00914 10.9475C6.13025 11.065 6.25 11.2727 6.25 11.6364H7.75ZM5.5 16.75C6.05344 16.75 6.62078 16.5488 7.05336 16.1293C7.49475 15.7013 7.75 15.0909 7.75 14.3636H6.25C6.25 14.7273 6.13025 14.935 6.00914 15.0525C5.87922 15.1785 5.69656 15.25 5.5 15.25V16.75ZM12.25 12.312V13.688H13.75V12.312H12.25ZM9.75 13.688V12.312H8.25V13.688H9.75ZM11 15.25C10.3469 15.25 9.75 14.6771 9.75 13.688H8.25C8.25 15.2526 9.2864 16.75 11 16.75V15.25ZM12.25 13.688C12.25 14.6771 11.6531 15.25 11 15.25V16.75C12.7136 16.75 13.75 15.2526 13.75 13.688H12.25ZM11 10.75C11.6531 10.75 12.25 11.3229 12.25 12.312H13.75C13.75 10.7474 12.7136 9.25 11 9.25V10.75ZM11 9.25C9.2864 9.25 8.25 10.7474 8.25 12.312H9.75C9.75 11.3229 10.3469 10.75 11 10.75V9.25ZM14.25 10V16H15.75V10H14.25ZM15 10.75H15.7143V9.25H15V10.75ZM15.0172 10.2766L16.8029 14.7766L18.1971 14.2234L16.4114 9.72337L15.0172 10.2766ZM18.1971 14.7766L19.9828 10.2766L18.5886 9.72337L16.8029 14.2234L18.1971 14.7766ZM19.2857 10.75H20V9.25H19.2857V10.75ZM19.25 10V16H20.75V10H19.25ZM5.75 8V6.25H4.25V8H5.75ZM5.75 6.25V4H4.25V6.25H5.75Z" fill="black"/>
</svg>
