<svg width="24" height="24" viewBox="0 0 24 24" fill="none" xmlns="http://www.w3.org/2000/svg">
<path d="M9.59935 13.0099C9.59935 14.0136 10.0704 14.721 10.8458 14.721C11.6294 14.721 12.0778 13.9757 12.0778 12.9796C12.0778 12.0594 11.637 11.2688 10.8379 11.2688C10.0551 11.2688 9.59935 12.0138 9.59935 13.0099Z" fill="black"/>
<path d="M19.7352 9.15373H19.255V6.83648C19.255 6.82192 19.2527 6.80747 19.2508 6.79273C19.25 6.70083 19.2207 6.61041 19.1577 6.53881L15.3016 2.13413C15.3005 2.13301 15.2993 2.1325 15.2986 2.13137C15.2756 2.1057 15.2488 2.08435 15.2205 2.06587C15.212 2.06024 15.2036 2.05552 15.1948 2.05054C15.1703 2.03725 15.1442 2.02603 15.1174 2.01801C15.1102 2.01609 15.1037 2.01311 15.0964 2.01118C15.0673 2.00432 15.037 2 15.0063 2H5.52955C5.0968 2 4.74524 2.35196 4.74524 2.78435V9.15373H4.2651C3.64622 9.15373 3.14404 9.65547 3.14404 10.2747V16.1043C3.14404 16.7229 3.64622 17.2252 4.2651 17.2252H4.74524V21.2157C4.74524 21.648 5.0968 22 5.52955 22H18.4707C18.903 22 19.255 21.648 19.255 21.2157V17.2252H19.7353C20.3545 17.2252 20.8562 16.7229 20.8562 16.1043V10.2747C20.8561 9.65547 20.3544 9.15373 19.7352 9.15373ZM5.52955 2.78435H14.6142V6.79705C14.6142 7.01383 14.79 7.18921 15.0064 7.18921H18.4707V9.15391H5.52955V2.78435ZM13.3014 12.9421C13.3014 14.6225 12.2825 15.6414 10.7846 15.6414C9.26417 15.6414 8.37463 14.4935 8.37463 13.0336C8.37463 11.4977 9.35502 10.3496 10.8685 10.3496C12.4424 10.3494 13.3014 11.5278 13.3014 12.9421ZM4.07857 13.0711C4.07857 11.3221 5.32581 10.3494 6.87678 10.3494C7.47736 10.3494 7.93386 10.4712 8.13934 10.5773L7.90303 11.4974C7.66763 11.3982 7.34047 11.3074 6.92994 11.3074C6.00979 11.3074 5.29505 11.8619 5.29505 13.0028C5.29505 14.0289 5.90369 14.675 6.9376 14.675C7.28713 14.675 7.67518 14.5992 7.90303 14.508L8.07816 15.4126C7.86523 15.5194 7.38586 15.6335 6.76306 15.6335C4.99146 15.6339 4.07857 14.5314 4.07857 13.0711ZM18.4707 21.0031H5.52955V17.2252H18.4707V21.0031ZM18.471 15.5577L18.3952 13.5962C18.3722 12.98 18.3496 12.2353 18.3496 11.49H18.327C18.1672 12.1436 17.9542 12.8737 17.7564 13.4741L17.1334 15.4739H16.228L15.6811 13.4897C15.5138 12.8891 15.3389 12.159 15.2175 11.49H15.2018C15.1717 12.1819 15.1488 12.9725 15.1106 13.6112L15.0197 15.5577H13.9474L14.2741 10.4329H15.8178L16.3197 12.1436C16.4792 12.7368 16.6391 13.3756 16.7532 13.9763H16.7752C16.9199 13.3833 17.095 12.7062 17.2623 12.1365L17.8095 10.4329H19.323L19.6043 15.5577H18.471Z" fill="black"/>
</svg>
