<svg xmlns="http://www.w3.org/2000/svg" width="20" height="20" fill="none" viewBox="0 0 20 20">
  <path fill="#A0A0A0" d="M17.735 7.154h-.48V4.837c0-.015-.003-.03-.005-.044a.386.386 0 00-.093-.254L13.301.134l-.003-.003a.384.384 0 00-.104-.08.414.414 0 00-.077-.033l-.021-.007a.39.39 0 00-.09-.011H3.529a.785.785 0 00-.784.784v6.37h-.48c-.62 0-1.121.501-1.121 1.12v5.83c0 .619.502 1.121 1.12 1.121h.48v3.99c0 .433.352.785.785.785H16.47a.785.785 0 00.785-.784v-3.99h.48c.619 0 1.12-.503 1.12-1.122V8.275a1.12 1.12 0 00-1.12-1.121zM3.529.784h9.085v4.013c0 .217.175.392.392.392h3.464v1.965H3.53V.784zm9.11 9.18c0 .54-.18.997-.506 1.308-.425.4-1.055.58-1.791.58-.164 0-.31-.007-.426-.024V13.8H8.682V8.361c.385-.065.924-.114 1.684-.114.77 0 1.317.147 1.685.441.352.278.589.736.589 1.276zM6.638 12.85c.376 0 .794-.082 1.039-.18l.188.974c-.23.114-.744.237-1.414.237-1.906 0-2.887-1.186-2.887-2.756 0-1.88 1.341-2.927 3.01-2.927.645 0 1.135.13 1.356.245l-.253.99a2.687 2.687 0 00-1.047-.205c-.99 0-1.758.597-1.758 1.824 0 1.103.654 1.798 1.766 1.798zm9.833 6.153H3.53v-3.778H16.47v3.778zm.406-5.204h-3.442V8.288h1.25v4.464h2.192V13.8z"/>
  <path fill="#A0A0A0" d="M10.432 9.187c-.254 0-.425.025-.516.05v1.627c.107.024.238.033.418.033.663 0 1.071-.335 1.071-.9 0-.507-.352-.81-.973-.81z"/>
</svg>
