<svg width="24" height="24" viewBox="0 0 24 24" fill="none" xmlns="http://www.w3.org/2000/svg">
<path d="M19.7348 9.1539H19.2546V6.8367C19.2546 6.82215 19.2523 6.8077 19.2504 6.79293C19.2496 6.70101 19.2201 6.61065 19.1573 6.53905L15.3012 2.13413L15.2981 2.13139C15.2752 2.10571 15.2484 2.08433 15.22 2.06588C15.2116 2.06026 15.2032 2.05545 15.1943 2.05059C15.1698 2.03728 15.1438 2.02608 15.117 2.01802C15.1097 2.01612 15.1032 2.01313 15.096 2.01123C15.0668 2.0043 15.0365 2 15.006 2H5.52909C5.09633 2 4.7448 2.35197 4.7448 2.78433V9.15368H4.26455C3.64579 9.15368 3.14365 9.65546 3.14365 10.2747V16.1042C3.14365 16.7229 3.64579 17.2252 4.26455 17.2252H4.7448V21.2157C4.7448 21.6481 5.09633 22 5.52909 22H18.4703C18.9026 22 19.2546 21.6481 19.2546 21.2157V17.2252H19.7348C20.354 17.2252 20.8557 16.7231 20.8557 16.1042V10.2749C20.8557 9.6555 20.354 9.1539 19.7348 9.1539ZM5.52909 2.78451H14.6138V6.7972C14.6138 7.01387 14.7895 7.18936 15.0059 7.18936H18.4703V9.15405H5.52909V2.78451ZM14.6398 11.9639C14.6398 12.5036 14.4598 12.9613 14.1331 13.2722C13.7077 13.6728 13.0777 13.8528 12.342 13.8528C12.1785 13.8528 12.0314 13.8447 11.9164 13.8283V15.799H10.6821V10.3612C11.0666 10.2957 11.6058 10.2467 12.3665 10.2467C13.1355 10.2467 13.6831 10.3942 14.0508 10.6882C14.4028 10.9663 14.6398 11.4243 14.6398 11.9639ZM8.63733 14.8504C9.0134 14.8504 9.43081 14.7685 9.67593 14.6704L9.86397 15.6436C9.63497 15.7581 9.12024 15.8806 8.44969 15.8806C6.54395 15.8806 5.5628 14.6949 5.5628 13.1252C5.5628 11.2443 6.90427 10.1977 8.57218 10.1977C9.21826 10.1977 9.70843 10.3286 9.92941 10.4431L9.6759 11.4324C9.42235 11.3259 9.07118 11.2279 8.62926 11.2279C7.63957 11.2279 6.87097 11.8249 6.87097 13.0517C6.871 14.1553 7.52558 14.8504 8.63733 14.8504ZM18.4703 21.0033H5.52909V17.2252H18.4703V21.0033ZM18.8762 15.799H15.4337V10.2877H16.6845V14.7524H18.8762V15.799Z" fill="black"/>
<path d="M12.4321 11.1873C12.1786 11.1873 12.0066 11.2119 11.9166 11.2364V12.8637C12.0235 12.8882 12.1541 12.8967 12.3341 12.8967C12.9966 12.8967 13.4053 12.5615 13.4053 11.997C13.4053 11.4902 13.0533 11.1873 12.4321 11.1873Z" fill="black"/>
</svg>
