<svg width="24" height="24" viewBox="0 0 24 24" fill="none" xmlns="http://www.w3.org/2000/svg">
<path d="M19 20V20.75H19.75V20H19ZM5 20H4.25V20.75H5V20ZM5 4V3.25H4.25V4H5ZM16 4L16.5303 3.46967L16.3107 3.25H16V4ZM19 7L19.75 7V6.68934L19.5303 6.46967L19 7ZM10.5 10V9.25C10.0858 9.25 9.75 9.58579 9.75 10H10.5ZM9.75 16C9.75 16.4142 10.0858 16.75 10.5 16.75C10.9142 16.75 11.25 16.4142 11.25 16H9.75ZM16.75 10C16.75 9.58579 16.4142 9.25 16 9.25C15.5858 9.25 15.25 9.58579 15.25 10H16.75ZM16 16H15.25V16.75H16V16ZM19 16.75C19.4142 16.75 19.75 16.4142 19.75 16C19.75 15.5858 19.4142 15.25 19 15.25V16.75ZM19 19.25H5V20.75H19V19.25ZM5 4.75H16V3.25H5V4.75ZM15.4697 4.53033L18.4697 7.53033L19.5303 6.46967L16.5303 3.46967L15.4697 4.53033ZM5.75 8V4H4.25V8H5.75ZM5.75 20V18H4.25V20H5.75ZM18.25 7L18.25 8L19.75 8L19.75 7L18.25 7ZM18.25 18V20H19.75V18H18.25ZM6.5 9.25C5.37598 9.25 4.25 10.174 4.25 11.5H5.75C5.75 11.0806 6.12402 10.75 6.5 10.75V9.25ZM4.25 11.5V14.5H5.75V11.5H4.25ZM4.25 14.5C4.25 15.2035 4.52128 15.7863 4.97048 16.1856C5.40587 16.5726 5.9652 16.75 6.5 16.75V15.25C6.2848 15.25 6.09413 15.1774 5.96702 15.0644C5.85372 14.9637 5.75 14.7965 5.75 14.5H4.25ZM8.75 11.6364C8.75 10.9091 8.49475 10.2987 8.05336 9.87067C7.62078 9.45119 7.05344 9.25 6.5 9.25V10.75C6.69656 10.75 6.87922 10.8215 7.00914 10.9475C7.13025 11.065 7.25 11.2727 7.25 11.6364H8.75ZM6.5 16.75C7.05344 16.75 7.62078 16.5488 8.05336 16.1293C8.49475 15.7013 8.75 15.0909 8.75 14.3636H7.25C7.25 14.7273 7.13025 14.935 7.00914 15.0525C6.87922 15.1785 6.69656 15.25 6.5 15.25V16.75ZM10.5 14.3525H12V12.8525H10.5V14.3525ZM12 14.3525C12.3543 14.3525 12.8918 14.2637 13.3642 13.9369C13.8788 13.5809 14.25 12.9844 14.25 12.1378H12.75C12.75 12.3308 12.7106 12.4505 12.6718 12.5244C12.6328 12.5987 12.5792 12.6561 12.5108 12.7034C12.3582 12.8089 12.1457 12.8525 12 12.8525V14.3525ZM14.25 12.1378V11.5332H12.75V12.1378H14.25ZM14.25 11.5332C14.25 10.9176 14.0958 10.3162 13.6639 9.86997C13.2278 9.41939 12.6281 9.25 12 9.25V10.75C12.3719 10.75 12.5222 10.8472 12.5861 10.9132C12.6542 10.9836 12.75 11.1488 12.75 11.5332H14.25ZM12 9.25H10.5V10.75H12V9.25ZM9.75 13.6025V16H11.25V13.6025H9.75ZM9.75 10V13.6025H11.25V10H9.75ZM15.25 10V16H16.75V10H15.25ZM16 16.75H19V15.25H16V16.75Z" fill="black"/>
</svg>
