<svg width="24" height="24" viewBox="0 0 24 24" fill="none" xmlns="http://www.w3.org/2000/svg">
<path d="M19 20V20.75H19.75V20H19ZM5 20H4.25V20.75H5V20ZM5 4V3.25H4.25V4H5ZM16 4L16.5303 3.46967L16.3107 3.25H16V4ZM19 7L19.75 7V6.68934L19.5303 6.46967L19 7ZM11 10V9.25C10.5858 9.25 10.25 9.58579 10.25 10H11ZM10.25 16C10.25 16.4142 10.5858 16.75 11 16.75C11.4142 16.75 11.75 16.4142 11.75 16H10.25ZM16 10V9.25C15.5858 9.25 15.25 9.58579 15.25 10H16ZM15.25 16C15.25 16.4142 15.5858 16.75 16 16.75C16.4142 16.75 16.75 16.4142 16.75 16H15.25ZM19 19.25H5V20.75H19V19.25ZM5 4.75H16V3.25H5V4.75ZM15.4697 4.53033L18.4697 7.53033L19.5303 6.46967L16.5303 3.46967L15.4697 4.53033ZM5.75 8V4H4.25V8H5.75ZM5.75 20V18H4.25V20H5.75ZM18.25 7L18.25 8L19.75 8L19.75 7L18.25 7ZM18.25 18V20H19.75V18H18.25ZM7.2417 9.25C6.11768 9.25 4.9917 10.174 4.9917 11.5H6.4917C6.4917 11.0806 6.86573 10.75 7.2417 10.75V9.25ZM4.9917 11.5V14.5H6.4917V11.5H4.9917ZM4.9917 14.5C4.9917 15.2035 5.26298 15.7863 5.71218 16.1856C6.14758 16.5726 6.7069 16.75 7.2417 16.75V15.25C7.02651 15.25 6.83583 15.1774 6.70873 15.0644C6.59543 14.9637 6.4917 14.7965 6.4917 14.5H4.9917ZM9.4917 11.6364C9.4917 10.9091 9.23645 10.2987 8.79506 9.87067C8.36248 9.45119 7.79514 9.25 7.2417 9.25V10.75C7.43826 10.75 7.62092 10.8215 7.75084 10.9475C7.87195 11.065 7.9917 11.2727 7.9917 11.6364H9.4917ZM7.2417 16.75C7.79514 16.75 8.36248 16.5488 8.79506 16.1293C9.23645 15.7013 9.4917 15.0909 9.4917 14.3636H7.9917C7.9917 14.7273 7.87195 14.935 7.75084 15.0525C7.62092 15.1785 7.43826 15.25 7.2417 15.25V16.75ZM11 14.3525H12.5V12.8525H11V14.3525ZM12.5 14.3525C12.8543 14.3525 13.3918 14.2637 13.8642 13.9369C14.3788 13.5809 14.75 12.9844 14.75 12.1378H13.25C13.25 12.3308 13.2106 12.4505 13.1718 12.5244C13.1328 12.5987 13.0792 12.6561 13.0108 12.7034C12.8582 12.8089 12.6457 12.8525 12.5 12.8525V14.3525ZM14.75 12.1378V11.5332H13.25V12.1378H14.75ZM14.75 11.5332C14.75 10.9176 14.5958 10.3162 14.1639 9.86997C13.7278 9.41939 13.1281 9.25 12.5 9.25V10.75C12.8719 10.75 13.0222 10.8472 13.0861 10.9132C13.1542 10.9836 13.25 11.1488 13.25 11.5332H14.75ZM12.5 9.25H11V10.75H12.5V9.25ZM10.25 13.6025V16H11.75V13.6025H10.25ZM10.25 10V13.6025H11.75V10H10.25ZM16 14.3525H17.5V12.8525H16V14.3525ZM17.5 14.3525C17.8543 14.3525 18.3918 14.2637 18.8642 13.9369C19.3788 13.5809 19.75 12.9844 19.75 12.1378H18.25C18.25 12.3308 18.2106 12.4505 18.1718 12.5244C18.1328 12.5987 18.0792 12.6561 18.0108 12.7034C17.8582 12.8089 17.6457 12.8525 17.5 12.8525V14.3525ZM19.75 12.1378V11.5332H18.25V12.1378H19.75ZM19.75 11.5332C19.75 10.9176 19.5958 10.3162 19.1639 9.86997C18.7278 9.41939 18.1281 9.25 17.5 9.25V10.75C17.8719 10.75 18.0222 10.8472 18.0861 10.9132C18.1542 10.9836 18.25 11.1488 18.25 11.5332H19.75ZM17.5 9.25H16V10.75H17.5V9.25ZM15.25 13.6025V16H16.75V13.6025H15.25ZM15.25 10V13.6025H16.75V10H15.25Z" fill="black"/>
</svg>
