<svg width="24" height="24" viewBox="0 0 24 24" fill="none" xmlns="http://www.w3.org/2000/svg">
<path d="M19.7352 9.15391H19.255V6.8367C19.255 6.82214 19.2527 6.80769 19.2507 6.79295C19.25 6.70104 19.2205 6.61063 19.1577 6.53906L15.3014 2.13413C15.3005 2.13301 15.2993 2.1325 15.2985 2.13137C15.2756 2.1057 15.2488 2.08435 15.2204 2.06587C15.212 2.06024 15.2036 2.05545 15.1948 2.05054C15.1703 2.03725 15.1442 2.02603 15.1174 2.01801C15.1101 2.01609 15.1036 2.01311 15.0963 2.01118C15.0672 2.00432 15.037 2 15.0063 2H5.52952C5.09677 2 4.74521 2.35196 4.74521 2.78435V9.15373H4.26496C3.64601 9.15373 3.14401 9.65547 3.14401 10.2747V16.1043C3.14401 16.7229 3.64597 17.2252 4.26496 17.2252H4.74521V21.2157C4.74521 21.648 5.09677 22 5.52952 22H18.4706C18.903 22 19.255 21.648 19.255 21.2157V17.2252H19.7352C20.3541 17.2252 20.8561 16.7231 20.8561 16.1043V10.2749C20.8561 9.65547 20.3541 9.15391 19.7352 9.15391ZM5.52952 2.78449H14.6142V6.7972C14.6142 7.01386 14.79 7.18935 15.0064 7.18935H18.4706V9.15405H5.52952V2.78449ZM13.6024 14.2312C13.7741 14.8527 13.9457 15.5723 14.0522 15.7848H12.7765C12.6867 15.6294 12.5557 15.1798 12.3922 14.5011C12.2451 13.8141 12.0081 13.6264 11.5011 13.618H11.125V15.7848H9.89021V10.3476C10.2908 10.2818 10.8879 10.2327 11.5501 10.2327C12.3677 10.2327 12.9402 10.3553 13.3326 10.6662C13.6596 10.9283 13.8394 11.3124 13.8394 11.8194C13.8394 12.5225 13.3406 13.0047 12.8663 13.1767V13.2012C13.2508 13.3565 13.4636 13.7245 13.6024 14.2312ZM4.77088 13.1112C4.77088 11.2303 6.11183 10.1837 7.77991 10.1837C8.42598 10.1837 8.91654 10.3147 9.13713 10.4292L8.88379 11.4189C8.63027 11.3124 8.27871 11.2144 7.83735 11.2144C6.84796 11.2144 6.07926 11.811 6.07926 13.0376C6.07926 14.1417 6.73347 14.8364 7.84559 14.8364C8.22166 14.8364 8.63855 14.7549 8.88401 14.6568L9.07202 15.6298C8.84319 15.7446 8.32795 15.8672 7.65754 15.8672C5.75221 15.8668 4.77088 14.6811 4.77088 13.1112ZM18.4706 21.0033H5.52952V17.2252H18.4706V21.0033ZM17.7078 15.7848L17.2092 14.7872C17.0047 14.4031 16.8741 14.117 16.7186 13.798H16.7021C16.588 14.117 16.4486 14.4031 16.277 14.7872L15.819 15.7848H14.3963L15.991 12.9969L14.4537 10.2739H15.8845L16.367 11.2792C16.5305 11.6148 16.6531 11.8844 16.7841 12.1953H16.8001C16.9311 11.8438 17.0372 11.5983 17.1762 11.2792L17.6423 10.2739H19.065L17.5117 12.964L19.1469 15.7849L17.7078 15.7848Z" fill="black"/>
<path d="M11.6892 11.1571C11.3867 11.1571 11.215 11.1816 11.1251 11.1982V12.7189H11.6157C12.237 12.7189 12.6049 12.4083 12.6049 11.9258C12.6051 11.4191 12.2616 11.1656 11.6892 11.1571Z" fill="black"/>
</svg>
