<svg width="24" height="24" viewBox="0 0 24 24" fill="none" xmlns="http://www.w3.org/2000/svg">
<path d="M19 20V20.75H19.75V20H19ZM5 20H4.25V20.75H5V20ZM5 4V3.25H4.25V4H5ZM16 4L16.5303 3.46967L16.3107 3.25H16V4ZM19 7L19.75 7L19.75 6.68934L19.5303 6.46967L19 7ZM17.5 13.5L17.5483 12.7516L17.5242 12.75H17.5V13.5ZM16 10V9.25C15.5858 9.25 15.25 9.58579 15.25 10H16ZM15.25 16C15.25 16.4142 15.5858 16.75 16 16.75C16.4142 16.75 16.75 16.4142 16.75 16H15.25ZM18.7083 13.1828C18.5581 12.7968 18.1234 12.6056 17.7373 12.7559C17.3513 12.9061 17.1602 13.3408 17.3105 13.7268L18.7083 13.1828ZM18.3011 16.272C18.4513 16.658 18.886 16.8491 19.272 16.6989C19.658 16.5487 19.8492 16.1139 19.6989 15.7279L18.3011 16.272ZM13.2324 10.7605C13.6466 10.7605 13.9824 10.4247 13.9824 10.0105C13.9824 9.59624 13.6466 9.26045 13.2324 9.26045V10.7605ZM11.9909 10.0105L11.9372 9.26238L11.9909 10.0105ZM10.8025 12.3664L11.3747 11.8814L10.8025 12.3664ZM12.8567 13.364L12.4488 13.9933L12.8567 13.364ZM11.9909 16V15.25H11.9909L11.9909 16ZM10.6721 15.25C10.2579 15.25 9.92214 15.5858 9.92214 16C9.92214 16.4142 10.2579 16.75 10.6721 16.75L10.6721 15.25ZM19 19.25H5V20.75H19V19.25ZM5 4.75H16V3.25H5V4.75ZM15.4697 4.53033L18.4697 7.53033L19.5303 6.46967L16.5303 3.46967L15.4697 4.53033ZM5.75 8V4H4.25V8H5.75ZM5.75 20V18H4.25V20H5.75ZM18.25 7L18.25 8L19.75 8L19.75 7L18.25 7ZM18.25 18V20H19.75V18H18.25ZM6.5 9.25C5.37598 9.25 4.25 10.174 4.25 11.5H5.75C5.75 11.0806 6.12402 10.75 6.5 10.75V9.25ZM4.25 11.5V14.5H5.75V11.5H4.25ZM4.25 14.5C4.25 15.2035 4.52128 15.7863 4.97048 16.1856C5.40587 16.5726 5.9652 16.75 6.5 16.75V15.25C6.2848 15.25 6.09413 15.1774 5.96702 15.0644C5.85372 14.9637 5.75 14.7965 5.75 14.5H4.25ZM8.75 11.6364C8.75 10.9091 8.49475 10.2987 8.05336 9.87067C7.62078 9.45119 7.05344 9.25 6.5 9.25V10.75C6.69656 10.75 6.87922 10.8215 7.00914 10.9475C7.13025 11.065 7.25 11.2727 7.25 11.6364H8.75ZM6.5 16.75C7.05344 16.75 7.62078 16.5488 8.05336 16.1293C8.49475 15.7013 8.75 15.0909 8.75 14.3636H7.25C7.25 14.7273 7.13025 14.935 7.00914 15.0525C6.87922 15.1785 6.69656 15.25 6.5 15.25V16.75ZM16 14.25H17.5V12.75H16V14.25ZM17.5 13.5C17.4517 14.2484 17.452 14.2485 17.4524 14.2485C17.4525 14.2485 17.4528 14.2485 17.4531 14.2485C17.4536 14.2486 17.4541 14.2486 17.4546 14.2486C17.4557 14.2487 17.4568 14.2488 17.4581 14.2488C17.4606 14.249 17.4635 14.2491 17.4668 14.2493C17.4734 14.2496 17.4815 14.25 17.491 14.2503C17.5099 14.251 17.5346 14.2515 17.5643 14.2515C17.6234 14.2515 17.7036 14.2494 17.7984 14.2413C17.9834 14.2254 18.2458 14.185 18.5201 14.0791C18.7956 13.9728 19.1112 13.7891 19.3579 13.4716C19.6116 13.145 19.75 12.7311 19.75 12.2452H18.25C18.25 12.4351 18.2009 12.5159 18.1734 12.5513C18.1388 12.5958 18.0794 12.6414 17.9799 12.6798C17.8792 12.7187 17.7666 12.7385 17.6704 12.7467C17.6245 12.7507 17.5876 12.7515 17.5646 12.7515C17.5533 12.7515 17.5457 12.7513 17.5427 12.7512C17.5412 12.7512 17.5409 12.7511 17.5418 12.7512C17.5422 12.7512 17.543 12.7512 17.5441 12.7513C17.5446 12.7513 17.5452 12.7514 17.5459 12.7514C17.5463 12.7514 17.5467 12.7515 17.5471 12.7515C17.5473 12.7515 17.5476 12.7515 17.5477 12.7515C17.548 12.7515 17.5483 12.7516 17.5 13.5ZM19 12.2452C19.75 12.2452 19.75 12.2452 19.75 12.2452C19.75 12.2452 19.75 12.2452 19.75 12.2452C19.75 12.2452 19.75 12.2452 19.75 12.2451C19.75 12.2451 19.75 12.2451 19.75 12.2451C19.75 12.2451 19.75 12.2451 19.75 12.2451C19.75 12.2451 19.75 12.245 19.75 12.245C19.75 12.245 19.75 12.245 19.75 12.245C19.75 12.2449 19.75 12.2449 19.75 12.2449C19.75 12.2449 19.75 12.2448 19.75 12.2448C19.75 12.2448 19.75 12.2447 19.75 12.2447C19.75 12.2447 19.75 12.2446 19.75 12.2446C19.75 12.2446 19.75 12.2445 19.75 12.2445C19.75 12.2445 19.75 12.2444 19.75 12.2444C19.75 12.2443 19.75 12.2443 19.75 12.2442C19.75 12.2442 19.75 12.2442 19.75 12.2441C19.75 12.2441 19.75 12.244 19.75 12.244C19.75 12.2439 19.75 12.2438 19.75 12.2438C19.75 12.2437 19.75 12.2437 19.75 12.2436C19.75 12.2436 19.75 12.2435 19.75 12.2434C19.75 12.2434 19.75 12.2433 19.75 12.2433C19.75 12.2432 19.75 12.2431 19.75 12.2431C19.75 12.243 19.75 12.2429 19.75 12.2429C19.75 12.2428 19.75 12.2427 19.75 12.2426C19.75 12.2426 19.75 12.2425 19.75 12.2424C19.75 12.2423 19.75 12.2423 19.75 12.2422C19.75 12.2421 19.75 12.242 19.75 12.2419C19.75 12.2419 19.75 12.2418 19.75 12.2417C19.75 12.2416 19.75 12.2415 19.75 12.2414C19.75 12.2413 19.75 12.2412 19.75 12.2411C19.75 12.2411 19.75 12.241 19.75 12.2409C19.75 12.2408 19.75 12.2407 19.75 12.2406C19.75 12.2405 19.75 12.2404 19.75 12.2403C19.75 12.2402 19.75 12.2401 19.75 12.24C19.75 12.2399 19.75 12.2398 19.75 12.2396C19.75 12.2395 19.75 12.2394 19.75 12.2393C19.75 12.2392 19.75 12.2391 19.75 12.239C19.75 12.2389 19.75 12.2387 19.75 12.2386C19.75 12.2385 19.75 12.2384 19.75 12.2383C19.75 12.2382 19.75 12.238 19.75 12.2379C19.75 12.2378 19.75 12.2377 19.75 12.2375C19.75 12.2374 19.75 12.2373 19.75 12.2371C19.75 12.237 19.75 12.2369 19.75 12.2368C19.75 12.2366 19.75 12.2365 19.75 12.2363C19.75 12.2362 19.75 12.2361 19.75 12.2359C19.75 12.2358 19.75 12.2357 19.75 12.2355C19.75 12.2354 19.75 12.2352 19.75 12.2351C19.75 12.2349 19.75 12.2348 19.75 12.2346C19.75 12.2345 19.75 12.2343 19.75 12.2342C19.75 12.234 19.75 12.2339 19.75 12.2337C19.75 12.2336 19.75 12.2334 19.75 12.2333C19.75 12.2331 19.75 12.2329 19.75 12.2328C19.75 12.2326 19.75 12.2325 19.75 12.2323C19.75 12.2321 19.75 12.232 19.75 12.2318C19.75 12.2316 19.75 12.2315 19.75 12.2313C19.75 12.2311 19.75 12.231 19.75 12.2308C19.75 12.2306 19.75 12.2304 19.75 12.2303C19.75 12.2301 19.75 12.2299 19.75 12.2297C19.75 12.2295 19.75 12.2294 19.75 12.2292C19.75 12.229 19.75 12.2288 19.75 12.2286C19.75 12.2284 19.75 12.2283 19.75 12.2281C19.75 12.2279 19.75 12.2277 19.75 12.2275C19.75 12.2273 19.75 12.2271 19.75 12.2269C19.75 12.2267 19.75 12.2265 19.75 12.2263C19.75 12.2261 19.75 12.2259 19.75 12.2257C19.75 12.2255 19.75 12.2253 19.75 12.2251C19.75 12.2249 19.75 12.2247 19.75 12.2245C19.75 12.2243 19.75 12.2241 19.75 12.2239C19.75 12.2237 19.75 12.2235 19.75 12.2233C19.75 12.223 19.75 12.2228 19.75 12.2226C19.75 12.2224 19.75 12.2222 19.75 12.222C19.75 12.2217 19.75 12.2215 19.75 12.2213C19.75 12.2211 19.75 12.2209 19.75 12.2206C19.75 12.2204 19.75 12.2202 19.75 12.22C19.75 12.2197 19.75 12.2195 19.75 12.2193C19.75 12.219 19.75 12.2188 19.75 12.2186C19.75 12.2183 19.75 12.2181 19.75 12.2179C19.75 12.2176 19.75 12.2174 19.75 12.2172C19.75 12.2169 19.75 12.2167 19.75 12.2164C19.75 12.2162 19.75 12.2159 19.75 12.2157C19.75 12.2155 19.75 12.2152 19.75 12.215C19.75 12.2147 19.75 12.2145 19.75 12.2142C19.75 12.214 19.75 12.2137 19.75 12.2135C19.75 12.2132 19.75 12.2129 19.75 12.2127C19.75 12.2124 19.75 12.2122 19.75 12.2119C19.75 12.2116 19.75 12.2114 19.75 12.2111C19.75 12.2109 19.75 12.2106 19.75 12.2103C19.75 12.2101 19.75 12.2098 19.75 12.2095C19.75 12.2093 19.75 12.209 19.75 12.2087C19.75 12.2084 19.75 12.2082 19.75 12.2079C19.75 12.2076 19.75 12.2073 19.75 12.2071C19.75 12.2068 19.75 12.2065 19.75 12.2062C19.75 12.2059 19.75 12.2057 19.75 12.2054C19.75 12.2051 19.75 12.2048 19.75 12.2045C19.75 12.2042 19.75 12.2039 19.75 12.2036C19.75 12.2034 19.75 12.2031 19.75 12.2028C19.75 12.2025 19.75 12.2022 19.75 12.2019C19.75 12.2016 19.75 12.2013 19.75 12.201C19.75 12.2007 19.75 12.2004 19.75 12.2001C19.75 12.1998 19.75 12.1995 19.75 12.1992C19.75 12.1989 19.75 12.1986 19.75 12.1983C19.75 12.198 19.75 12.1977 19.75 12.1973C19.75 12.197 19.75 12.1967 19.75 12.1964C19.75 12.1961 19.75 12.1958 19.75 12.1955C19.75 12.1951 19.75 12.1948 19.75 12.1945C19.75 12.1942 19.75 12.1939 19.75 12.1936C19.75 12.1932 19.75 12.1929 19.75 12.1926C19.75 12.1923 19.75 12.1919 19.75 12.1916C19.75 12.1913 19.75 12.1909 19.75 12.1906C19.75 12.1903 19.75 12.1899 19.75 12.1896C19.75 12.1893 19.75 12.1889 19.75 12.1886C19.75 12.1883 19.75 12.1879 19.75 12.1876C19.75 12.1873 19.75 12.1869 19.75 12.1866C19.75 12.1862 19.75 12.1859 19.75 12.1855C19.75 12.1852 19.75 12.1849 19.75 12.1845C19.75 12.1842 19.75 12.1838 19.75 12.1835C19.75 12.1831 19.75 12.1828 19.75 12.1824C19.75 12.182 19.75 12.1817 19.75 12.1813C19.75 12.181 19.75 12.1806 19.75 12.1803C19.75 12.1799 19.75 12.1795 19.75 12.1792C19.75 12.1788 19.75 12.1784 19.75 12.1781C19.75 12.1777 19.75 12.1774 19.75 12.177C19.75 12.1766 19.75 12.1762 19.75 12.1759C19.75 12.1755 19.75 12.1751 19.75 12.1748C19.75 12.1744 19.75 12.174 19.75 12.1736C19.75 12.1733 19.75 12.1729 19.75 12.1725C19.75 12.1721 19.75 12.1717 19.75 12.1714C19.75 12.171 19.75 12.1706 19.75 12.1702C19.75 12.1698 19.75 12.1694 19.75 12.169C19.75 12.1687 19.75 12.1683 19.75 12.1679C19.75 12.1675 19.75 12.1671 19.75 12.1667C19.75 12.1663 19.75 12.1659 19.75 12.1655C19.75 12.1651 19.75 12.1647 19.75 12.1643C19.75 12.1639 19.75 12.1635 19.75 12.1631C19.75 12.1627 19.75 12.1623 19.75 12.1619C19.75 12.1615 19.75 12.1611 19.75 12.1607C19.75 12.1603 19.75 12.1599 19.75 12.1595C19.75 12.1591 19.75 12.1586 19.75 12.1582C19.75 12.1578 19.75 12.1574 19.75 12.157C19.75 12.1566 19.75 12.1561 19.75 12.1557C19.75 12.1553 19.75 12.1549 19.75 12.1545C19.75 12.154 19.75 12.1536 19.75 12.1532C19.75 12.1528 19.75 12.1523 19.75 12.1519C19.75 12.1515 19.75 12.1511 19.75 12.1506C19.75 12.1502 19.75 12.1498 19.75 12.1493C19.75 12.1489 19.75 12.1485 19.75 12.148C19.75 12.1476 19.75 12.1472 19.75 12.1467C19.75 12.1463 19.75 12.1459 19.75 12.1454C19.75 12.145 19.75 12.1445 19.75 12.1441C19.75 12.1436 19.75 12.1432 19.75 12.1427C19.75 12.1423 19.75 12.1419 19.75 12.1414C19.75 12.141 19.75 12.1405 19.75 12.14C19.75 12.1396 19.75 12.1391 19.75 12.1387C19.75 12.1382 19.75 12.1378 19.75 12.1373C19.75 12.1369 19.75 12.1364 19.75 12.1359C19.75 12.1355 19.75 12.135 19.75 12.1346C19.75 12.1341 19.75 12.1336 19.75 12.1332C19.75 12.1327 19.75 12.1322 19.75 12.1318C19.75 12.1313 19.75 12.1308 19.75 12.1304C19.75 12.1299 19.75 12.1294 19.75 12.1289C19.75 12.1285 19.75 12.128 19.75 12.1275C19.75 12.127 19.75 12.1266 19.75 12.1261C19.75 12.1256 19.75 12.1251 19.75 12.1246C19.75 12.1241 19.75 12.1237 19.75 12.1232C19.75 12.1227 19.75 12.1222 19.75 12.1217C19.75 12.1212 19.75 12.1207 19.75 12.1203C19.75 12.1198 19.75 12.1193 19.75 12.1188C19.75 12.1183 19.75 12.1178 19.75 12.1173C19.75 12.1168 19.75 12.1163 19.75 12.1158C19.75 12.1153 19.75 12.1148 19.75 12.1143C19.75 12.1138 19.75 12.1133 19.75 12.1128C19.75 12.1123 19.75 12.1118 19.75 12.1113C19.75 12.1108 19.75 12.1103 19.75 12.1098C19.75 12.1092 19.75 12.1087 19.75 12.1082C19.75 12.1077 19.75 12.1072 19.75 12.1067C19.75 12.1062 19.75 12.1056 19.75 12.1051C19.75 12.1046 19.75 12.1041 19.75 12.1036C19.75 12.1031 19.75 12.1025 19.75 12.102C19.75 12.1015 19.75 12.101 19.75 12.1004C19.75 12.0999 19.75 12.0994 19.75 12.0989C19.75 12.0983 19.75 12.0978 19.75 12.0973C19.75 12.0967 19.75 12.0962 19.75 12.0957C19.75 12.0951 19.75 12.0946 19.75 12.0941C19.75 12.0935 19.75 12.093 19.75 12.0925C19.75 12.0919 19.75 12.0914 19.75 12.0908C19.75 12.0903 19.75 12.0898 19.75 12.0892C19.75 12.0887 19.75 12.0881 19.75 12.0876C19.75 12.087 19.75 12.0865 19.75 12.0859C19.75 12.0854 19.75 12.0848 19.75 12.0843C19.75 12.0837 19.75 12.0832 19.75 12.0826C19.75 12.0821 19.75 12.0815 19.75 12.0809C19.75 12.0804 19.75 12.0798 19.75 12.0793C19.75 12.0787 19.75 12.0782 19.75 12.0776C19.75 12.077 19.75 12.0765 19.75 12.0759C19.75 12.0753 19.75 12.0748 19.75 12.0742C19.75 12.0736 19.75 12.0731 19.75 12.0725C19.75 12.0719 19.75 12.0713 19.75 12.0708C19.75 12.0702 19.75 12.0696 19.75 12.0691C19.75 12.0685 19.75 12.0679 19.75 12.0673C19.75 12.0667 19.75 12.0662 19.75 12.0656C19.75 12.065 19.75 12.0644 19.75 12.0638C19.75 12.0633 19.75 12.0627 19.75 12.0621C19.75 12.0615 19.75 12.0609 19.75 12.0603C19.75 12.0597 19.75 12.0591 19.75 12.0585C19.75 12.058 19.75 12.0574 19.75 12.0568C19.75 12.0562 19.75 12.0556 19.75 12.055C19.75 12.0544 19.75 12.0538 19.75 12.0532C19.75 12.0526 19.75 12.052 19.75 12.0514C19.75 12.0508 19.75 12.0502 19.75 12.0496C19.75 12.049 19.75 12.0484 19.75 12.0478C19.75 12.0472 19.75 12.0466 19.75 12.0459C19.75 12.0453 19.75 12.0447 19.75 12.0441C19.75 12.0435 19.75 12.0429 19.75 12.0423C19.75 12.0417 19.75 12.041 19.75 12.0404C19.75 12.0398 19.75 12.0392 19.75 12.0386C19.75 12.0379 19.75 12.0373 19.75 12.0367C19.75 12.0361 19.75 12.0355 19.75 12.0348C19.75 12.0342 19.75 12.0336 19.75 12.033C19.75 12.0323 19.75 12.0317 19.75 12.0311C19.75 12.0304 19.75 12.0298 19.75 12.0292C19.75 12.0285 19.75 12.0279 19.75 12.0273C19.75 12.0266 19.75 12.026 19.75 12.0254C19.75 12.0247 19.75 12.0241 19.75 12.0235C19.75 12.0228 19.75 12.0222 19.75 12.0215C19.75 12.0209 19.75 12.0202 19.75 12.0196C19.75 12.019 19.75 12.0183 19.75 12.0177C19.75 12.017 19.75 12.0164 19.75 12.0157C19.75 12.0151 19.75 12.0144 19.75 12.0138C19.75 12.0131 19.75 12.0125 19.75 12.0118C19.75 12.0111 19.75 12.0105 19.75 12.0098C19.75 12.0092 19.75 12.0085 19.75 12.0079C19.75 12.0072 19.75 12.0065 19.75 12.0059C19.75 12.0052 19.75 12.0045 19.75 12.0039C19.75 12.0032 19.75 12.0025 19.75 12.0019C19.75 12.0012 19.75 12.0005 19.75 11.9999C19.75 11.9992 19.75 11.9985 19.75 11.9979C19.75 11.9972 19.75 11.9965 19.75 11.9958C19.75 11.9952 19.75 11.9945 19.75 11.9938C19.75 11.9931 19.75 11.9925 19.75 11.9918C19.75 11.9911 19.75 11.9904 19.75 11.9897C19.75 11.989 19.75 11.9884 19.75 11.9877C19.75 11.987 19.75 11.9863 19.75 11.9856C19.75 11.9849 19.75 11.9842 19.75 11.9836C19.75 11.9829 19.75 11.9822 19.75 11.9815C19.75 11.9808 19.75 11.9801 19.75 11.9794C19.75 11.9787 19.75 11.978 19.75 11.9773C19.75 11.9766 19.75 11.9759 19.75 11.9752C19.75 11.9745 19.75 11.9738 19.75 11.9731C19.75 11.9724 19.75 11.9717 19.75 11.971C19.75 11.9703 19.75 11.9696 19.75 11.9689C19.75 11.9682 19.75 11.9675 19.75 11.9668C19.75 11.966 19.75 11.9653 19.75 11.9646C19.75 11.9639 19.75 11.9632 19.75 11.9625C19.75 11.9618 19.75 11.9611 19.75 11.9603C19.75 11.9596 19.75 11.9589 19.75 11.9582C19.75 11.9575 19.75 11.9567 19.75 11.956C19.75 11.9553 19.75 11.9546 19.75 11.9539C19.75 11.9531 19.75 11.9524 19.75 11.9517C19.75 11.951 19.75 11.9502 19.75 11.9495C19.75 11.9488 19.75 11.948 19.75 11.9473C19.75 11.9466 19.75 11.9458 19.75 11.9451C19.75 11.9444 19.75 11.9436 19.75 11.9429C19.75 11.9422 19.75 11.9414 19.75 11.9407C19.75 11.9399 19.75 11.9392 19.75 11.9385C19.75 11.9377 19.75 11.937 19.75 11.9362C19.75 11.9355 19.75 11.9348 19.75 11.934C19.75 11.9333 19.75 11.9325 19.75 11.9318C19.75 11.931 19.75 11.9303 19.75 11.9295C19.75 11.9288 19.75 11.928 19.75 11.9273C19.75 11.9265 19.75 11.9258 19.75 11.925C19.75 11.9242 19.75 11.9235 19.75 11.9227C19.75 11.922 19.75 11.9212 19.75 11.9205C19.75 11.9197 19.75 11.9189 19.75 11.9182C19.75 11.9174 19.75 11.9166 19.75 11.9159C19.75 11.9151 19.75 11.9143 19.75 11.9136C19.75 11.9128 19.75 11.912 19.75 11.9113C19.75 11.9105 19.75 11.9097 19.75 11.909C19.75 11.9082 19.75 11.9074 19.75 11.9066C19.75 11.9059 19.75 11.9051 19.75 11.9043C19.75 11.9035 19.75 11.9028 19.75 11.902C19.75 11.9012 19.75 11.9004 19.75 11.8996C19.75 11.8989 19.75 11.8981 19.75 11.8973C19.75 11.8965 19.75 11.8957 19.75 11.8949C19.75 11.8941 19.75 11.8934 19.75 11.8926C19.75 11.8918 19.75 11.891 19.75 11.8902C19.75 11.8894 19.75 11.8886 19.75 11.8878C19.75 11.887 19.75 11.8862 19.75 11.8854C19.75 11.8846 19.75 11.8839 19.75 11.8831C19.75 11.8823 19.75 11.8815 19.75 11.8807C19.75 11.8799 19.75 11.8791 19.75 11.8783C19.75 11.8775 19.75 11.8766 19.75 11.8758C19.75 11.875 19.75 11.8742 19.75 11.8734C19.75 11.8726 19.75 11.8718 19.75 11.871C19.75 11.8702 19.75 11.8694 19.75 11.8686C19.75 11.8678 19.75 11.8669 19.75 11.8661C19.75 11.8653 19.75 11.8645 19.75 11.8637C19.75 11.8629 19.75 11.862 19.75 11.8612C19.75 11.8604 19.75 11.8596 19.75 11.8588C19.75 11.858 19.75 11.8571 19.75 11.8563C19.75 11.8555 19.75 11.8547 19.75 11.8538C19.75 11.853 19.75 11.8522 19.75 11.8514C19.75 11.8505 19.75 11.8497 19.75 11.8489C19.75 11.848 19.75 11.8472 19.75 11.8464C19.75 11.8455 19.75 11.8447 19.75 11.8439C19.75 11.843 19.75 11.8422 19.75 11.8414C19.75 11.8405 19.75 11.8397 19.75 11.8388C19.75 11.838 19.75 11.8372 19.75 11.8363C19.75 11.8355 19.75 11.8346 19.75 11.8338C19.75 11.833 19.75 11.8321 19.75 11.8313C19.75 11.8304 19.75 11.8296 19.75 11.8287C19.75 11.8279 19.75 11.827 19.75 11.8262C19.75 11.8253 19.75 11.8245 19.75 11.8236C19.75 11.8228 19.75 11.8219 19.75 11.8211C19.75 11.8202 19.75 11.8193 19.75 11.8185C19.75 11.8176 19.75 11.8168 19.75 11.8159C19.75 11.8151 19.75 11.8142 19.75 11.8133C19.75 11.8125 19.75 11.8116 19.75 11.8107C19.75 11.8099 19.75 11.809 19.75 11.8081C19.75 11.8073 19.75 11.8064 19.75 11.8055C19.75 11.8047 19.75 11.8038 19.75 11.8029C19.75 11.8021 19.75 11.8012 19.75 11.8003C19.75 11.7994 19.75 11.7986 19.75 11.7977C19.75 11.7968 19.75 11.7959 19.75 11.7951C19.75 11.7942 19.75 11.7933 19.75 11.7924C19.75 11.7916 19.75 11.7907 19.75 11.7898C19.75 11.7889 19.75 11.788 19.75 11.7871C19.75 11.7863 19.75 11.7854 19.75 11.7845C19.75 11.7836 19.75 11.7827 19.75 11.7818C19.75 11.7809 19.75 11.7801 19.75 11.7792C19.75 11.7783 19.75 11.7774 19.75 11.7765C19.75 11.7756 19.75 11.7747 19.75 11.7738C19.75 11.7729 19.75 11.772 19.75 11.7711C19.75 11.7702 19.75 11.7693 19.75 11.7684C19.75 11.7675 19.75 11.7666 19.75 11.7657C19.75 11.7648 19.75 11.7639 19.75 11.763C19.75 11.7621 19.75 11.7612 19.75 11.7603C19.75 11.7594 19.75 11.7585 19.75 11.7576C19.75 11.7567 19.75 11.7558 19.75 11.7548C19.75 11.7539 19.75 11.753 19.75 11.7521C19.75 11.7512 19.75 11.7503 19.75 11.7494C19.75 11.7485 19.75 11.7475 19.75 11.7466C19.75 11.7457 19.75 11.7448 19.75 11.7439C19.75 11.743 19.75 11.742 19.75 11.7411C19.75 11.7402 19.75 11.7393 19.75 11.7383C19.75 11.7374 19.75 11.7365 19.75 11.7356C19.75 11.7346 19.75 11.7337 19.75 11.7328C19.75 11.7319 19.75 11.7309 19.75 11.73C19.75 11.7291 19.75 11.7281 19.75 11.7272C19.75 11.7263 19.75 11.7254 19.75 11.7244C19.75 11.7235 19.75 11.7225 19.75 11.7216C19.75 11.7207 19.75 11.7197 19.75 11.7188C19.75 11.7179 19.75 11.7169 19.75 11.716C19.75 11.715 19.75 11.7141 19.75 11.7132C19.75 11.7122 19.75 11.7113 19.75 11.7103C19.75 11.7094 19.75 11.7084 19.75 11.7075C19.75 11.7065 19.75 11.7056 19.75 11.7046C19.75 11.7037 19.75 11.7028 19.75 11.7018C19.75 11.7008 19.75 11.6999 19.75 11.6989C19.75 11.698 19.75 11.697 19.75 11.6961C19.75 11.6951 19.75 11.6942 19.75 11.6932C19.75 11.6923 19.75 11.6913 19.75 11.6903C19.75 11.6894 19.75 11.6884 19.75 11.6875C19.75 11.6865 19.75 11.6855 19.75 11.6846C19.75 11.6836 19.75 11.6826 19.75 11.6817C19.75 11.6807 19.75 11.6797 19.75 11.6788C19.75 11.6778 19.75 11.6768 19.75 11.6759C19.75 11.6749 19.75 11.6739 19.75 11.673C19.75 11.672 19.75 11.671 19.75 11.67C19.75 11.6691 19.75 11.6681 19.75 11.6671C19.75 11.6661 19.75 11.6652 19.75 11.6642C19.75 11.6632 19.75 11.6622 19.75 11.6612C19.75 11.6603 19.75 11.6593 19.75 11.6583C19.75 11.6573 19.75 11.6563 19.75 11.6554C19.75 11.6544 19.75 11.6534 19.75 11.6524C19.75 11.6514 19.75 11.6504 19.75 11.6494C19.75 11.6484 19.75 11.6475 19.75 11.6465C19.75 11.6455 19.75 11.6445 19.75 11.6435C19.75 11.6425 19.75 11.6415 19.75 11.6405C19.75 11.6395 19.75 11.6385 19.75 11.6375C19.75 11.6365 19.75 11.6355 19.75 11.6345C19.75 11.6335 19.75 11.6325 19.75 11.6315C19.75 11.6305 19.75 11.6295 19.75 11.6285C19.75 11.6275 19.75 11.6265 19.75 11.6255C19.75 11.6245 19.75 11.6235 19.75 11.6225C19.75 11.6215 19.75 11.6205 19.75 11.6195C19.75 11.6185 19.75 11.6175 19.75 11.6165C19.75 11.6154 19.75 11.6144 19.75 11.6134C19.75 11.6124 19.75 11.6114 19.75 11.6104C19.75 11.6094 19.75 11.6083 19.75 11.6073C19.75 11.6063 19.75 11.6053 19.75 11.6043C19.75 11.6033 19.75 11.6022 19.75 11.6012C19.75 11.6002 19.75 11.5992 19.75 11.5981C19.75 11.5971 19.75 11.5961 19.75 11.5951C19.75 11.5941 19.75 11.593 19.75 11.592C19.75 11.591 19.75 11.5899 19.75 11.5889C19.75 11.5879 19.75 11.5869 19.75 11.5858C19.75 11.5848 19.75 11.5838 19.75 11.5827C19.75 11.5817 19.75 11.5807 19.75 11.5796C19.75 11.5786 19.75 11.5776 19.75 11.5765C19.75 11.5755 19.75 11.5745 19.75 11.5734C19.75 11.5724 19.75 11.5713 19.75 11.5703C19.75 11.5693 19.75 11.5682 19.75 11.5672C19.75 11.5661 19.75 11.5651 19.75 11.564C19.75 11.563 19.75 11.5619 19.75 11.5609C19.75 11.5599 19.75 11.5588 19.75 11.5578C19.75 11.5567 19.75 11.5557 19.75 11.5546C19.75 11.5536 19.75 11.5525 19.75 11.5515C19.75 11.5504 19.75 11.5493 19.75 11.5483C19.75 11.5472 19.75 11.5462 19.75 11.5451C19.75 11.5441 19.75 11.543 19.75 11.542C19.75 11.5409 19.75 11.5398 19.75 11.5388C19.75 11.5377 19.75 11.5367 19.75 11.5356C19.75 11.5345 19.75 11.5335 19.75 11.5324C19.75 11.5313 19.75 11.5303 19.75 11.5292C19.75 11.5281 19.75 11.5271 19.75 11.526C19.75 11.5249 19.75 11.5239 19.75 11.5228C19.75 11.5217 19.75 11.5207 19.75 11.5196C19.75 11.5185 19.75 11.5174 19.75 11.5164C19.75 11.5153 19.75 11.5142 19.75 11.5131C19.75 11.5121 19.75 11.511 19.75 11.5099C19.75 11.5088 19.75 11.5078 19.75 11.5067C19.75 11.5056 19.75 11.5045 19.75 11.5034C19.75 11.5024 19.75 11.5013 19.75 11.5002C19.75 11.4991 19.75 11.498 19.75 11.4969C19.75 11.4959 19.75 11.4948 19.75 11.4937C19.75 11.4926 19.75 11.4915 19.75 11.4904C19.75 11.4893 19.75 11.4882 19.75 11.4872C19.75 11.4861 19.75 11.485 19.75 11.4839C19.75 11.4828 19.75 11.4817 19.75 11.4806C19.75 11.4795 19.75 11.4784 19.75 11.4773C19.75 11.4762 19.75 11.4751 19.75 11.474C19.75 11.4729 19.75 11.4718 19.75 11.4707C19.75 11.4696 19.75 11.4685 19.75 11.4674C19.75 11.4663 19.75 11.4652 19.75 11.4641C19.75 11.463 19.75 11.4619 19.75 11.4608C19.75 11.4597 19.75 11.4586 19.75 11.4575C19.75 11.4564 19.75 11.4553 19.75 11.4541C19.75 11.453 19.75 11.4519 19.75 11.4508C19.75 11.4497 19.75 11.4486 19.75 11.4475C19.75 11.4464 19.75 11.4453 19.75 11.4441C19.75 11.443 19.75 11.4419 19.75 11.4408C19.75 11.4397 19.75 11.4386 19.75 11.4374C19.75 11.4363 19.75 11.4352 19.75 11.4341C19.75 11.433 19.75 11.4318 19.75 11.4307C19.75 11.4296 19.75 11.4285 19.75 11.4273C19.75 11.4262 19.75 11.4251 19.75 11.424C19.75 11.4228 19.75 11.4217 19.75 11.4206C19.75 11.4195 19.75 11.4183 19.75 11.4172C19.75 11.4161 19.75 11.4149 19.75 11.4138C19.75 11.4127 19.75 11.4115 19.75 11.4104C19.75 11.4093 19.75 11.4081 19.75 11.407C19.75 11.4059 19.75 11.4047 19.75 11.4036C19.75 11.4025 19.75 11.4013 19.75 11.4002C19.75 11.399 19.75 11.3979 19.75 11.3968C19.75 11.3956 19.75 11.3945 19.75 11.3933C19.75 11.3922 19.75 11.3911 19.75 11.3899C19.75 11.3888 19.75 11.3876 19.75 11.3865C19.75 11.3853 19.75 11.3842 19.75 11.383C19.75 11.3819 19.75 11.3807 19.75 11.3796C19.75 11.3784 19.75 11.3773 19.75 11.3761C19.75 11.375 19.75 11.3738 19.75 11.3727C19.75 11.3715 19.75 11.3704 19.75 11.3692C19.75 11.3681 19.75 11.3669 19.75 11.3658C19.75 11.3646 19.75 11.3634 19.75 11.3623C19.75 11.3611 19.75 11.36 19.75 11.3588C19.75 11.3576 19.75 11.3565 19.75 11.3553C19.75 11.3542 19.75 11.353 19.75 11.3518C19.75 11.3507 19.75 11.3495 19.75 11.3483C19.75 11.3472 19.75 11.346 19.75 11.3448C19.75 11.3437 19.75 11.3425 19.75 11.3413C19.75 11.3402 19.75 11.339 19.75 11.3378C19.75 11.3366 19.75 11.3355 19.75 11.3343C19.75 11.3331 19.75 11.332 19.75 11.3308C19.75 11.3296 19.75 11.3284 19.75 11.3273C19.75 11.3261 19.75 11.3249 19.75 11.3237C19.75 11.3226 19.75 11.3214 19.75 11.3202C19.75 11.319 19.75 11.3178 19.75 11.3167C19.75 11.3155 19.75 11.3143 19.75 11.3131C19.75 11.3119 19.75 11.3107 19.75 11.3096C19.75 11.3084 19.75 11.3072 19.75 11.306C19.75 11.3048 19.75 11.3036 19.75 11.3024C19.75 11.3012 19.75 11.3001 19.75 11.2989C19.75 11.2977 19.75 11.2965 19.75 11.2953C19.75 11.2941 19.75 11.2929 19.75 11.2917C19.75 11.2905 19.75 11.2893 19.75 11.2881C19.75 11.2869 19.75 11.2857 19.75 11.2845C19.75 11.2834 19.75 11.2822 19.75 11.281C19.75 11.2798 19.75 11.2786 19.75 11.2774C19.75 11.2762 19.75 11.275 19.75 11.2738C19.75 11.2726 19.75 11.2714 19.75 11.2701C19.75 11.2689 19.75 11.2677 19.75 11.2665C19.75 11.2653 19.75 11.2641 19.75 11.2629C19.75 11.2617 19.75 11.2605 19.75 11.2593C19.75 11.2581 19.75 11.2569 19.75 11.2557C19.75 11.2545 19.75 11.2532 19.75 11.252C19.75 11.2508 19.75 11.2496 19.75 11.2484C19.75 11.2472 19.75 11.246 19.75 11.2448C19.75 11.2435 19.75 11.2423 19.75 11.2411C19.75 11.2399 19.75 11.2387 19.75 11.2375C19.75 11.2362 19.75 11.235 19.75 11.2338C19.75 11.2326 19.75 11.2314 19.75 11.2301C19.75 11.2289 19.75 11.2277 19.75 11.2265C19.75 11.2252 19.75 11.224 19.75 11.2228C19.75 11.2216 19.75 11.2203 19.75 11.2191C19.75 11.2179 19.75 11.2167 19.75 11.2154C19.75 11.2142 19.75 11.213 19.75 11.2117C19.75 11.2105 19.75 11.2093 19.75 11.208C19.75 11.2068 19.75 11.2056 19.75 11.2043C19.75 11.2031 19.75 11.2019 19.75 11.2006C19.75 11.1994 19.75 11.1982 19.75 11.1969C19.75 11.1957 19.75 11.1945 19.75 11.1932C19.75 11.192 19.75 11.1907 19.75 11.1895C19.75 11.1883 19.75 11.187 19.75 11.1858H18.25C18.25 11.187 18.25 11.1883 18.25 11.1895C18.25 11.1907 18.25 11.192 18.25 11.1932C18.25 11.1945 18.25 11.1957 18.25 11.1969C18.25 11.1982 18.25 11.1994 18.25 11.2006C18.25 11.2019 18.25 11.2031 18.25 11.2043C18.25 11.2056 18.25 11.2068 18.25 11.208C18.25 11.2093 18.25 11.2105 18.25 11.2117C18.25 11.213 18.25 11.2142 18.25 11.2154C18.25 11.2167 18.25 11.2179 18.25 11.2191C18.25 11.2203 18.25 11.2216 18.25 11.2228C18.25 11.224 18.25 11.2252 18.25 11.2265C18.25 11.2277 18.25 11.2289 18.25 11.2301C18.25 11.2314 18.25 11.2326 18.25 11.2338C18.25 11.235 18.25 11.2362 18.25 11.2375C18.25 11.2387 18.25 11.2399 18.25 11.2411C18.25 11.2423 18.25 11.2435 18.25 11.2448C18.25 11.246 18.25 11.2472 18.25 11.2484C18.25 11.2496 18.25 11.2508 18.25 11.252C18.25 11.2532 18.25 11.2545 18.25 11.2557C18.25 11.2569 18.25 11.2581 18.25 11.2593C18.25 11.2605 18.25 11.2617 18.25 11.2629C18.25 11.2641 18.25 11.2653 18.25 11.2665C18.25 11.2677 18.25 11.2689 18.25 11.2701C18.25 11.2714 18.25 11.2726 18.25 11.2738C18.25 11.275 18.25 11.2762 18.25 11.2774C18.25 11.2786 18.25 11.2798 18.25 11.281C18.25 11.2822 18.25 11.2834 18.25 11.2845C18.25 11.2857 18.25 11.2869 18.25 11.2881C18.25 11.2893 18.25 11.2905 18.25 11.2917C18.25 11.2929 18.25 11.2941 18.25 11.2953C18.25 11.2965 18.25 11.2977 18.25 11.2989C18.25 11.3001 18.25 11.3012 18.25 11.3024C18.25 11.3036 18.25 11.3048 18.25 11.306C18.25 11.3072 18.25 11.3084 18.25 11.3096C18.25 11.3107 18.25 11.3119 18.25 11.3131C18.25 11.3143 18.25 11.3155 18.25 11.3167C18.25 11.3178 18.25 11.319 18.25 11.3202C18.25 11.3214 18.25 11.3226 18.25 11.3237C18.25 11.3249 18.25 11.3261 18.25 11.3273C18.25 11.3284 18.25 11.3296 18.25 11.3308C18.25 11.332 18.25 11.3331 18.25 11.3343C18.25 11.3355 18.25 11.3366 18.25 11.3378C18.25 11.339 18.25 11.3402 18.25 11.3413C18.25 11.3425 18.25 11.3437 18.25 11.3448C18.25 11.346 18.25 11.3472 18.25 11.3483C18.25 11.3495 18.25 11.3507 18.25 11.3518C18.25 11.353 18.25 11.3542 18.25 11.3553C18.25 11.3565 18.25 11.3576 18.25 11.3588C18.25 11.36 18.25 11.3611 18.25 11.3623C18.25 11.3634 18.25 11.3646 18.25 11.3658C18.25 11.3669 18.25 11.3681 18.25 11.3692C18.25 11.3704 18.25 11.3715 18.25 11.3727C18.25 11.3738 18.25 11.375 18.25 11.3761C18.25 11.3773 18.25 11.3784 18.25 11.3796C18.25 11.3807 18.25 11.3819 18.25 11.383C18.25 11.3842 18.25 11.3853 18.25 11.3865C18.25 11.3876 18.25 11.3888 18.25 11.3899C18.25 11.3911 18.25 11.3922 18.25 11.3933C18.25 11.3945 18.25 11.3956 18.25 11.3968C18.25 11.3979 18.25 11.399 18.25 11.4002C18.25 11.4013 18.25 11.4025 18.25 11.4036C18.25 11.4047 18.25 11.4059 18.25 11.407C18.25 11.4081 18.25 11.4093 18.25 11.4104C18.25 11.4115 18.25 11.4127 18.25 11.4138C18.25 11.4149 18.25 11.4161 18.25 11.4172C18.25 11.4183 18.25 11.4195 18.25 11.4206C18.25 11.4217 18.25 11.4228 18.25 11.424C18.25 11.4251 18.25 11.4262 18.25 11.4273C18.25 11.4285 18.25 11.4296 18.25 11.4307C18.25 11.4318 18.25 11.433 18.25 11.4341C18.25 11.4352 18.25 11.4363 18.25 11.4374C18.25 11.4386 18.25 11.4397 18.25 11.4408C18.25 11.4419 18.25 11.443 18.25 11.4441C18.25 11.4453 18.25 11.4464 18.25 11.4475C18.25 11.4486 18.25 11.4497 18.25 11.4508C18.25 11.4519 18.25 11.453 18.25 11.4541C18.25 11.4553 18.25 11.4564 18.25 11.4575C18.25 11.4586 18.25 11.4597 18.25 11.4608C18.25 11.4619 18.25 11.463 18.25 11.4641C18.25 11.4652 18.25 11.4663 18.25 11.4674C18.25 11.4685 18.25 11.4696 18.25 11.4707C18.25 11.4718 18.25 11.4729 18.25 11.474C18.25 11.4751 18.25 11.4762 18.25 11.4773C18.25 11.4784 18.25 11.4795 18.25 11.4806C18.25 11.4817 18.25 11.4828 18.25 11.4839C18.25 11.485 18.25 11.4861 18.25 11.4872C18.25 11.4882 18.25 11.4893 18.25 11.4904C18.25 11.4915 18.25 11.4926 18.25 11.4937C18.25 11.4948 18.25 11.4959 18.25 11.4969C18.25 11.498 18.25 11.4991 18.25 11.5002C18.25 11.5013 18.25 11.5024 18.25 11.5034C18.25 11.5045 18.25 11.5056 18.25 11.5067C18.25 11.5078 18.25 11.5088 18.25 11.5099C18.25 11.511 18.25 11.5121 18.25 11.5131C18.25 11.5142 18.25 11.5153 18.25 11.5164C18.25 11.5174 18.25 11.5185 18.25 11.5196C18.25 11.5207 18.25 11.5217 18.25 11.5228C18.25 11.5239 18.25 11.5249 18.25 11.526C18.25 11.5271 18.25 11.5281 18.25 11.5292C18.25 11.5303 18.25 11.5313 18.25 11.5324C18.25 11.5335 18.25 11.5345 18.25 11.5356C18.25 11.5367 18.25 11.5377 18.25 11.5388C18.25 11.5398 18.25 11.5409 18.25 11.542C18.25 11.543 18.25 11.5441 18.25 11.5451C18.25 11.5462 18.25 11.5472 18.25 11.5483C18.25 11.5493 18.25 11.5504 18.25 11.5515C18.25 11.5525 18.25 11.5536 18.25 11.5546C18.25 11.5557 18.25 11.5567 18.25 11.5578C18.25 11.5588 18.25 11.5599 18.25 11.5609C18.25 11.5619 18.25 11.563 18.25 11.564C18.25 11.5651 18.25 11.5661 18.25 11.5672C18.25 11.5682 18.25 11.5693 18.25 11.5703C18.25 11.5713 18.25 11.5724 18.25 11.5734C18.25 11.5745 18.25 11.5755 18.25 11.5765C18.25 11.5776 18.25 11.5786 18.25 11.5796C18.25 11.5807 18.25 11.5817 18.25 11.5827C18.25 11.5838 18.25 11.5848 18.25 11.5858C18.25 11.5869 18.25 11.5879 18.25 11.5889C18.25 11.5899 18.25 11.591 18.25 11.592C18.25 11.593 18.25 11.5941 18.25 11.5951C18.25 11.5961 18.25 11.5971 18.25 11.5981C18.25 11.5992 18.25 11.6002 18.25 11.6012C18.25 11.6022 18.25 11.6033 18.25 11.6043C18.25 11.6053 18.25 11.6063 18.25 11.6073C18.25 11.6083 18.25 11.6094 18.25 11.6104C18.25 11.6114 18.25 11.6124 18.25 11.6134C18.25 11.6144 18.25 11.6154 18.25 11.6165C18.25 11.6175 18.25 11.6185 18.25 11.6195C18.25 11.6205 18.25 11.6215 18.25 11.6225C18.25 11.6235 18.25 11.6245 18.25 11.6255C18.25 11.6265 18.25 11.6275 18.25 11.6285C18.25 11.6295 18.25 11.6305 18.25 11.6315C18.25 11.6325 18.25 11.6335 18.25 11.6345C18.25 11.6355 18.25 11.6365 18.25 11.6375C18.25 11.6385 18.25 11.6395 18.25 11.6405C18.25 11.6415 18.25 11.6425 18.25 11.6435C18.25 11.6445 18.25 11.6455 18.25 11.6465C18.25 11.6475 18.25 11.6484 18.25 11.6494C18.25 11.6504 18.25 11.6514 18.25 11.6524C18.25 11.6534 18.25 11.6544 18.25 11.6554C18.25 11.6563 18.25 11.6573 18.25 11.6583C18.25 11.6593 18.25 11.6603 18.25 11.6612C18.25 11.6622 18.25 11.6632 18.25 11.6642C18.25 11.6652 18.25 11.6661 18.25 11.6671C18.25 11.6681 18.25 11.6691 18.25 11.67C18.25 11.671 18.25 11.672 18.25 11.673C18.25 11.6739 18.25 11.6749 18.25 11.6759C18.25 11.6768 18.25 11.6778 18.25 11.6788C18.25 11.6797 18.25 11.6807 18.25 11.6817C18.25 11.6826 18.25 11.6836 18.25 11.6846C18.25 11.6855 18.25 11.6865 18.25 11.6875C18.25 11.6884 18.25 11.6894 18.25 11.6903C18.25 11.6913 18.25 11.6923 18.25 11.6932C18.25 11.6942 18.25 11.6951 18.25 11.6961C18.25 11.697 18.25 11.698 18.25 11.6989C18.25 11.6999 18.25 11.7008 18.25 11.7018C18.25 11.7028 18.25 11.7037 18.25 11.7046C18.25 11.7056 18.25 11.7065 18.25 11.7075C18.25 11.7084 18.25 11.7094 18.25 11.7103C18.25 11.7113 18.25 11.7122 18.25 11.7132C18.25 11.7141 18.25 11.715 18.25 11.716C18.25 11.7169 18.25 11.7179 18.25 11.7188C18.25 11.7197 18.25 11.7207 18.25 11.7216C18.25 11.7225 18.25 11.7235 18.25 11.7244C18.25 11.7254 18.25 11.7263 18.25 11.7272C18.25 11.7281 18.25 11.7291 18.25 11.73C18.25 11.7309 18.25 11.7319 18.25 11.7328C18.25 11.7337 18.25 11.7346 18.25 11.7356C18.25 11.7365 18.25 11.7374 18.25 11.7383C18.25 11.7393 18.25 11.7402 18.25 11.7411C18.25 11.742 18.25 11.743 18.25 11.7439C18.25 11.7448 18.25 11.7457 18.25 11.7466C18.25 11.7475 18.25 11.7485 18.25 11.7494C18.25 11.7503 18.25 11.7512 18.25 11.7521C18.25 11.753 18.25 11.7539 18.25 11.7548C18.25 11.7558 18.25 11.7567 18.25 11.7576C18.25 11.7585 18.25 11.7594 18.25 11.7603C18.25 11.7612 18.25 11.7621 18.25 11.763C18.25 11.7639 18.25 11.7648 18.25 11.7657C18.25 11.7666 18.25 11.7675 18.25 11.7684C18.25 11.7693 18.25 11.7702 18.25 11.7711C18.25 11.772 18.25 11.7729 18.25 11.7738C18.25 11.7747 18.25 11.7756 18.25 11.7765C18.25 11.7774 18.25 11.7783 18.25 11.7792C18.25 11.7801 18.25 11.7809 18.25 11.7818C18.25 11.7827 18.25 11.7836 18.25 11.7845C18.25 11.7854 18.25 11.7863 18.25 11.7871C18.25 11.788 18.25 11.7889 18.25 11.7898C18.25 11.7907 18.25 11.7916 18.25 11.7924C18.25 11.7933 18.25 11.7942 18.25 11.7951C18.25 11.7959 18.25 11.7968 18.25 11.7977C18.25 11.7986 18.25 11.7994 18.25 11.8003C18.25 11.8012 18.25 11.8021 18.25 11.8029C18.25 11.8038 18.25 11.8047 18.25 11.8055C18.25 11.8064 18.25 11.8073 18.25 11.8081C18.25 11.809 18.25 11.8099 18.25 11.8107C18.25 11.8116 18.25 11.8125 18.25 11.8133C18.25 11.8142 18.25 11.8151 18.25 11.8159C18.25 11.8168 18.25 11.8176 18.25 11.8185C18.25 11.8193 18.25 11.8202 18.25 11.8211C18.25 11.8219 18.25 11.8228 18.25 11.8236C18.25 11.8245 18.25 11.8253 18.25 11.8262C18.25 11.827 18.25 11.8279 18.25 11.8287C18.25 11.8296 18.25 11.8304 18.25 11.8313C18.25 11.8321 18.25 11.833 18.25 11.8338C18.25 11.8346 18.25 11.8355 18.25 11.8363C18.25 11.8372 18.25 11.838 18.25 11.8388C18.25 11.8397 18.25 11.8405 18.25 11.8414C18.25 11.8422 18.25 11.843 18.25 11.8439C18.25 11.8447 18.25 11.8455 18.25 11.8464C18.25 11.8472 18.25 11.848 18.25 11.8489C18.25 11.8497 18.25 11.8505 18.25 11.8514C18.25 11.8522 18.25 11.853 18.25 11.8538C18.25 11.8547 18.25 11.8555 18.25 11.8563C18.25 11.8571 18.25 11.858 18.25 11.8588C18.25 11.8596 18.25 11.8604 18.25 11.8612C18.25 11.862 18.25 11.8629 18.25 11.8637C18.25 11.8645 18.25 11.8653 18.25 11.8661C18.25 11.8669 18.25 11.8678 18.25 11.8686C18.25 11.8694 18.25 11.8702 18.25 11.871C18.25 11.8718 18.25 11.8726 18.25 11.8734C18.25 11.8742 18.25 11.875 18.25 11.8758C18.25 11.8766 18.25 11.8775 18.25 11.8783C18.25 11.8791 18.25 11.8799 18.25 11.8807C18.25 11.8815 18.25 11.8823 18.25 11.8831C18.25 11.8839 18.25 11.8846 18.25 11.8854C18.25 11.8862 18.25 11.887 18.25 11.8878C18.25 11.8886 18.25 11.8894 18.25 11.8902C18.25 11.891 18.25 11.8918 18.25 11.8926C18.25 11.8934 18.25 11.8941 18.25 11.8949C18.25 11.8957 18.25 11.8965 18.25 11.8973C18.25 11.8981 18.25 11.8989 18.25 11.8996C18.25 11.9004 18.25 11.9012 18.25 11.902C18.25 11.9028 18.25 11.9035 18.25 11.9043C18.25 11.9051 18.25 11.9059 18.25 11.9066C18.25 11.9074 18.25 11.9082 18.25 11.909C18.25 11.9097 18.25 11.9105 18.25 11.9113C18.25 11.912 18.25 11.9128 18.25 11.9136C18.25 11.9143 18.25 11.9151 18.25 11.9159C18.25 11.9166 18.25 11.9174 18.25 11.9182C18.25 11.9189 18.25 11.9197 18.25 11.9205C18.25 11.9212 18.25 11.922 18.25 11.9227C18.25 11.9235 18.25 11.9242 18.25 11.925C18.25 11.9258 18.25 11.9265 18.25 11.9273C18.25 11.928 18.25 11.9288 18.25 11.9295C18.25 11.9303 18.25 11.931 18.25 11.9318C18.25 11.9325 18.25 11.9333 18.25 11.934C18.25 11.9348 18.25 11.9355 18.25 11.9362C18.25 11.937 18.25 11.9377 18.25 11.9385C18.25 11.9392 18.25 11.9399 18.25 11.9407C18.25 11.9414 18.25 11.9422 18.25 11.9429C18.25 11.9436 18.25 11.9444 18.25 11.9451C18.25 11.9458 18.25 11.9466 18.25 11.9473C18.25 11.948 18.25 11.9488 18.25 11.9495C18.25 11.9502 18.25 11.951 18.25 11.9517C18.25 11.9524 18.25 11.9531 18.25 11.9539C18.25 11.9546 18.25 11.9553 18.25 11.956C18.25 11.9567 18.25 11.9575 18.25 11.9582C18.25 11.9589 18.25 11.9596 18.25 11.9603C18.25 11.9611 18.25 11.9618 18.25 11.9625C18.25 11.9632 18.25 11.9639 18.25 11.9646C18.25 11.9653 18.25 11.966 18.25 11.9668C18.25 11.9675 18.25 11.9682 18.25 11.9689C18.25 11.9696 18.25 11.9703 18.25 11.971C18.25 11.9717 18.25 11.9724 18.25 11.9731C18.25 11.9738 18.25 11.9745 18.25 11.9752C18.25 11.9759 18.25 11.9766 18.25 11.9773C18.25 11.978 18.25 11.9787 18.25 11.9794C18.25 11.9801 18.25 11.9808 18.25 11.9815C18.25 11.9822 18.25 11.9829 18.25 11.9836C18.25 11.9842 18.25 11.9849 18.25 11.9856C18.25 11.9863 18.25 11.987 18.25 11.9877C18.25 11.9884 18.25 11.989 18.25 11.9897C18.25 11.9904 18.25 11.9911 18.25 11.9918C18.25 11.9925 18.25 11.9931 18.25 11.9938C18.25 11.9945 18.25 11.9952 18.25 11.9958C18.25 11.9965 18.25 11.9972 18.25 11.9979C18.25 11.9985 18.25 11.9992 18.25 11.9999C18.25 12.0005 18.25 12.0012 18.25 12.0019C18.25 12.0025 18.25 12.0032 18.25 12.0039C18.25 12.0045 18.25 12.0052 18.25 12.0059C18.25 12.0065 18.25 12.0072 18.25 12.0079C18.25 12.0085 18.25 12.0092 18.25 12.0098C18.25 12.0105 18.25 12.0111 18.25 12.0118C18.25 12.0125 18.25 12.0131 18.25 12.0138C18.25 12.0144 18.25 12.0151 18.25 12.0157C18.25 12.0164 18.25 12.017 18.25 12.0177C18.25 12.0183 18.25 12.019 18.25 12.0196C18.25 12.0202 18.25 12.0209 18.25 12.0215C18.25 12.0222 18.25 12.0228 18.25 12.0235C18.25 12.0241 18.25 12.0247 18.25 12.0254C18.25 12.026 18.25 12.0266 18.25 12.0273C18.25 12.0279 18.25 12.0285 18.25 12.0292C18.25 12.0298 18.25 12.0304 18.25 12.0311C18.25 12.0317 18.25 12.0323 18.25 12.033C18.25 12.0336 18.25 12.0342 18.25 12.0348C18.25 12.0355 18.25 12.0361 18.25 12.0367C18.25 12.0373 18.25 12.0379 18.25 12.0386C18.25 12.0392 18.25 12.0398 18.25 12.0404C18.25 12.041 18.25 12.0417 18.25 12.0423C18.25 12.0429 18.25 12.0435 18.25 12.0441C18.25 12.0447 18.25 12.0453 18.25 12.0459C18.25 12.0466 18.25 12.0472 18.25 12.0478C18.25 12.0484 18.25 12.049 18.25 12.0496C18.25 12.0502 18.25 12.0508 18.25 12.0514C18.25 12.052 18.25 12.0526 18.25 12.0532C18.25 12.0538 18.25 12.0544 18.25 12.055C18.25 12.0556 18.25 12.0562 18.25 12.0568C18.25 12.0574 18.25 12.058 18.25 12.0585C18.25 12.0591 18.25 12.0597 18.25 12.0603C18.25 12.0609 18.25 12.0615 18.25 12.0621C18.25 12.0627 18.25 12.0633 18.25 12.0638C18.25 12.0644 18.25 12.065 18.25 12.0656C18.25 12.0662 18.25 12.0667 18.25 12.0673C18.25 12.0679 18.25 12.0685 18.25 12.0691C18.25 12.0696 18.25 12.0702 18.25 12.0708C18.25 12.0713 18.25 12.0719 18.25 12.0725C18.25 12.0731 18.25 12.0736 18.25 12.0742C18.25 12.0748 18.25 12.0753 18.25 12.0759C18.25 12.0765 18.25 12.077 18.25 12.0776C18.25 12.0782 18.25 12.0787 18.25 12.0793C18.25 12.0798 18.25 12.0804 18.25 12.0809C18.25 12.0815 18.25 12.0821 18.25 12.0826C18.25 12.0832 18.25 12.0837 18.25 12.0843C18.25 12.0848 18.25 12.0854 18.25 12.0859C18.25 12.0865 18.25 12.087 18.25 12.0876C18.25 12.0881 18.25 12.0887 18.25 12.0892C18.25 12.0898 18.25 12.0903 18.25 12.0908C18.25 12.0914 18.25 12.0919 18.25 12.0925C18.25 12.093 18.25 12.0935 18.25 12.0941C18.25 12.0946 18.25 12.0951 18.25 12.0957C18.25 12.0962 18.25 12.0967 18.25 12.0973C18.25 12.0978 18.25 12.0983 18.25 12.0989C18.25 12.0994 18.25 12.0999 18.25 12.1004C18.25 12.101 18.25 12.1015 18.25 12.102C18.25 12.1025 18.25 12.1031 18.25 12.1036C18.25 12.1041 18.25 12.1046 18.25 12.1051C18.25 12.1056 18.25 12.1062 18.25 12.1067C18.25 12.1072 18.25 12.1077 18.25 12.1082C18.25 12.1087 18.25 12.1092 18.25 12.1098C18.25 12.1103 18.25 12.1108 18.25 12.1113C18.25 12.1118 18.25 12.1123 18.25 12.1128C18.25 12.1133 18.25 12.1138 18.25 12.1143C18.25 12.1148 18.25 12.1153 18.25 12.1158C18.25 12.1163 18.25 12.1168 18.25 12.1173C18.25 12.1178 18.25 12.1183 18.25 12.1188C18.25 12.1193 18.25 12.1198 18.25 12.1203C18.25 12.1207 18.25 12.1212 18.25 12.1217C18.25 12.1222 18.25 12.1227 18.25 12.1232C18.25 12.1237 18.25 12.1241 18.25 12.1246C18.25 12.1251 18.25 12.1256 18.25 12.1261C18.25 12.1266 18.25 12.127 18.25 12.1275C18.25 12.128 18.25 12.1285 18.25 12.1289C18.25 12.1294 18.25 12.1299 18.25 12.1304C18.25 12.1308 18.25 12.1313 18.25 12.1318C18.25 12.1322 18.25 12.1327 18.25 12.1332C18.25 12.1336 18.25 12.1341 18.25 12.1346C18.25 12.135 18.25 12.1355 18.25 12.1359C18.25 12.1364 18.25 12.1369 18.25 12.1373C18.25 12.1378 18.25 12.1382 18.25 12.1387C18.25 12.1391 18.25 12.1396 18.25 12.14C18.25 12.1405 18.25 12.141 18.25 12.1414C18.25 12.1419 18.25 12.1423 18.25 12.1427C18.25 12.1432 18.25 12.1436 18.25 12.1441C18.25 12.1445 18.25 12.145 18.25 12.1454C18.25 12.1459 18.25 12.1463 18.25 12.1467C18.25 12.1472 18.25 12.1476 18.25 12.148C18.25 12.1485 18.25 12.1489 18.25 12.1493C18.25 12.1498 18.25 12.1502 18.25 12.1506C18.25 12.1511 18.25 12.1515 18.25 12.1519C18.25 12.1523 18.25 12.1528 18.25 12.1532C18.25 12.1536 18.25 12.154 18.25 12.1545C18.25 12.1549 18.25 12.1553 18.25 12.1557C18.25 12.1561 18.25 12.1566 18.25 12.157C18.25 12.1574 18.25 12.1578 18.25 12.1582C18.25 12.1586 18.25 12.1591 18.25 12.1595C18.25 12.1599 18.25 12.1603 18.25 12.1607C18.25 12.1611 18.25 12.1615 18.25 12.1619C18.25 12.1623 18.25 12.1627 18.25 12.1631C18.25 12.1635 18.25 12.1639 18.25 12.1643C18.25 12.1647 18.25 12.1651 18.25 12.1655C18.25 12.1659 18.25 12.1663 18.25 12.1667C18.25 12.1671 18.25 12.1675 18.25 12.1679C18.25 12.1683 18.25 12.1687 18.25 12.169C18.25 12.1694 18.25 12.1698 18.25 12.1702C18.25 12.1706 18.25 12.171 18.25 12.1714C18.25 12.1717 18.25 12.1721 18.25 12.1725C18.25 12.1729 18.25 12.1733 18.25 12.1736C18.25 12.174 18.25 12.1744 18.25 12.1748C18.25 12.1751 18.25 12.1755 18.25 12.1759C18.25 12.1762 18.25 12.1766 18.25 12.177C18.25 12.1774 18.25 12.1777 18.25 12.1781C18.25 12.1784 18.25 12.1788 18.25 12.1792C18.25 12.1795 18.25 12.1799 18.25 12.1803C18.25 12.1806 18.25 12.181 18.25 12.1813C18.25 12.1817 18.25 12.182 18.25 12.1824C18.25 12.1828 18.25 12.1831 18.25 12.1835C18.25 12.1838 18.25 12.1842 18.25 12.1845C18.25 12.1849 18.25 12.1852 18.25 12.1855C18.25 12.1859 18.25 12.1862 18.25 12.1866C18.25 12.1869 18.25 12.1873 18.25 12.1876C18.25 12.1879 18.25 12.1883 18.25 12.1886C18.25 12.1889 18.25 12.1893 18.25 12.1896C18.25 12.1899 18.25 12.1903 18.25 12.1906C18.25 12.1909 18.25 12.1913 18.25 12.1916C18.25 12.1919 18.25 12.1923 18.25 12.1926C18.25 12.1929 18.25 12.1932 18.25 12.1936C18.25 12.1939 18.25 12.1942 18.25 12.1945C18.25 12.1948 18.25 12.1951 18.25 12.1955C18.25 12.1958 18.25 12.1961 18.25 12.1964C18.25 12.1967 18.25 12.197 18.25 12.1973C18.25 12.1977 18.25 12.198 18.25 12.1983C18.25 12.1986 18.25 12.1989 18.25 12.1992C18.25 12.1995 18.25 12.1998 18.25 12.2001C18.25 12.2004 18.25 12.2007 18.25 12.201C18.25 12.2013 18.25 12.2016 18.25 12.2019C18.25 12.2022 18.25 12.2025 18.25 12.2028C18.25 12.2031 18.25 12.2034 18.25 12.2036C18.25 12.2039 18.25 12.2042 18.25 12.2045C18.25 12.2048 18.25 12.2051 18.25 12.2054C18.25 12.2057 18.25 12.2059 18.25 12.2062C18.25 12.2065 18.25 12.2068 18.25 12.2071C18.25 12.2073 18.25 12.2076 18.25 12.2079C18.25 12.2082 18.25 12.2084 18.25 12.2087C18.25 12.209 18.25 12.2093 18.25 12.2095C18.25 12.2098 18.25 12.2101 18.25 12.2103C18.25 12.2106 18.25 12.2109 18.25 12.2111C18.25 12.2114 18.25 12.2116 18.25 12.2119C18.25 12.2122 18.25 12.2124 18.25 12.2127C18.25 12.2129 18.25 12.2132 18.25 12.2135C18.25 12.2137 18.25 12.214 18.25 12.2142C18.25 12.2145 18.25 12.2147 18.25 12.215C18.25 12.2152 18.25 12.2155 18.25 12.2157C18.25 12.2159 18.25 12.2162 18.25 12.2164C18.25 12.2167 18.25 12.2169 18.25 12.2172C18.25 12.2174 18.25 12.2176 18.25 12.2179C18.25 12.2181 18.25 12.2183 18.25 12.2186C18.25 12.2188 18.25 12.219 18.25 12.2193C18.25 12.2195 18.25 12.2197 18.25 12.22C18.25 12.2202 18.25 12.2204 18.25 12.2206C18.25 12.2209 18.25 12.2211 18.25 12.2213C18.25 12.2215 18.25 12.2217 18.25 12.222C18.25 12.2222 18.25 12.2224 18.25 12.2226C18.25 12.2228 18.25 12.223 18.25 12.2233C18.25 12.2235 18.25 12.2237 18.25 12.2239C18.25 12.2241 18.25 12.2243 18.25 12.2245C18.25 12.2247 18.25 12.2249 18.25 12.2251C18.25 12.2253 18.25 12.2255 18.25 12.2257C18.25 12.2259 18.25 12.2261 18.25 12.2263C18.25 12.2265 18.25 12.2267 18.25 12.2269C18.25 12.2271 18.25 12.2273 18.25 12.2275C18.25 12.2277 18.25 12.2279 18.25 12.2281C18.25 12.2283 18.25 12.2284 18.25 12.2286C18.25 12.2288 18.25 12.229 18.25 12.2292C18.25 12.2294 18.25 12.2295 18.25 12.2297C18.25 12.2299 18.25 12.2301 18.25 12.2303C18.25 12.2304 18.25 12.2306 18.25 12.2308C18.25 12.231 18.25 12.2311 18.25 12.2313C18.25 12.2315 18.25 12.2316 18.25 12.2318C18.25 12.232 18.25 12.2321 18.25 12.2323C18.25 12.2325 18.25 12.2326 18.25 12.2328C18.25 12.2329 18.25 12.2331 18.25 12.2333C18.25 12.2334 18.25 12.2336 18.25 12.2337C18.25 12.2339 18.25 12.234 18.25 12.2342C18.25 12.2343 18.25 12.2345 18.25 12.2346C18.25 12.2348 18.25 12.2349 18.25 12.2351C18.25 12.2352 18.25 12.2354 18.25 12.2355C18.25 12.2357 18.25 12.2358 18.25 12.2359C18.25 12.2361 18.25 12.2362 18.25 12.2363C18.25 12.2365 18.25 12.2366 18.25 12.2368C18.25 12.2369 18.25 12.237 18.25 12.2371C18.25 12.2373 18.25 12.2374 18.25 12.2375C18.25 12.2377 18.25 12.2378 18.25 12.2379C18.25 12.238 18.25 12.2382 18.25 12.2383C18.25 12.2384 18.25 12.2385 18.25 12.2386C18.25 12.2387 18.25 12.2389 18.25 12.239C18.25 12.2391 18.25 12.2392 18.25 12.2393C18.25 12.2394 18.25 12.2395 18.25 12.2396C18.25 12.2398 18.25 12.2399 18.25 12.24C18.25 12.2401 18.25 12.2402 18.25 12.2403C18.25 12.2404 18.25 12.2405 18.25 12.2406C18.25 12.2407 18.25 12.2408 18.25 12.2409C18.25 12.241 18.25 12.2411 18.25 12.2411C18.25 12.2412 18.25 12.2413 18.25 12.2414C18.25 12.2415 18.25 12.2416 18.25 12.2417C18.25 12.2418 18.25 12.2419 18.25 12.2419C18.25 12.242 18.25 12.2421 18.25 12.2422C18.25 12.2423 18.25 12.2423 18.25 12.2424C18.25 12.2425 18.25 12.2426 18.25 12.2426C18.25 12.2427 18.25 12.2428 18.25 12.2429C18.25 12.2429 18.25 12.243 18.25 12.2431C18.25 12.2431 18.25 12.2432 18.25 12.2433C18.25 12.2433 18.25 12.2434 18.25 12.2434C18.25 12.2435 18.25 12.2436 18.25 12.2436C18.25 12.2437 18.25 12.2437 18.25 12.2438C18.25 12.2438 18.25 12.2439 18.25 12.244C18.25 12.244 18.25 12.2441 18.25 12.2441C18.25 12.2442 18.25 12.2442 18.25 12.2442C18.25 12.2443 18.25 12.2443 18.25 12.2444C18.25 12.2444 18.25 12.2445 18.25 12.2445C18.25 12.2445 18.25 12.2446 18.25 12.2446C18.25 12.2446 18.25 12.2447 18.25 12.2447C18.25 12.2447 18.25 12.2448 18.25 12.2448C18.25 12.2448 18.25 12.2449 18.25 12.2449C18.25 12.2449 18.25 12.2449 18.25 12.245C18.25 12.245 18.25 12.245 18.25 12.245C18.25 12.245 18.25 12.2451 18.25 12.2451C18.25 12.2451 18.25 12.2451 18.25 12.2451C18.25 12.2451 18.25 12.2451 18.25 12.2451C18.25 12.2452 18.25 12.2452 18.25 12.2452C18.25 12.2452 18.25 12.2452 18.25 12.2452C18.25 12.2452 18.25 12.2452 19 12.2452ZM19.75 11.1858C19.75 10.6625 19.5395 10.1552 19.1166 9.78813C18.6994 9.42598 18.1351 9.25 17.5 9.25V10.75C17.8649 10.75 18.0506 10.8491 18.1334 10.9209C18.2105 10.9879 18.25 11.0734 18.25 11.1858H19.75ZM17.5 9.25H16V10.75H17.5V9.25ZM15.25 13.5V16H16.75V13.5H15.25ZM15.25 10V13.5H16.75V10H15.25ZM17.3105 13.7268L18.3011 16.272L19.6989 15.7279L18.7083 13.1828L17.3105 13.7268ZM13.2324 9.26045C12.5286 9.26045 12.3092 9.25458 12.2281 9.25201C12.2015 9.25116 12.1468 9.24836 12.0855 9.25153C12.0566 9.25303 11.9933 9.25836 11.9372 9.26238L12.0446 10.7585C12.0882 10.7554 12.1182 10.753 12.1392 10.7514C12.1638 10.7494 12.1649 10.7494 12.1631 10.7495C12.1444 10.7505 12.1144 10.7492 12.1805 10.7513C12.2847 10.7546 12.5222 10.7605 13.2324 10.7605V9.26045ZM11.9372 9.26238C10.8544 9.34011 10.1461 9.94467 9.87367 10.7309C9.62534 11.4477 9.75546 12.291 10.2304 12.8513L11.3747 11.8814C11.2735 11.7621 11.2 11.4846 11.291 11.222C11.3579 11.0289 11.5319 10.7953 12.0446 10.7585L11.9372 9.26238ZM10.2304 12.8513C10.6613 13.3598 11.1299 13.5219 11.5168 13.6313C11.8833 13.735 12.1304 13.787 12.4488 13.9933L13.2646 12.7346C12.7172 12.3798 12.2253 12.2729 11.9251 12.188C11.6454 12.1088 11.5198 12.0527 11.3747 11.8814L10.2304 12.8513ZM12.4488 13.9933C12.68 14.1432 12.8022 14.4619 12.7297 14.766C12.6965 14.9055 12.626 15.0184 12.5266 15.0973C12.4307 15.1733 12.2674 15.25 11.9909 15.25V16.75C13.1912 16.75 13.9726 16.0217 14.1889 15.1137C14.3895 14.2717 14.0944 13.2724 13.2646 12.7346L12.4488 13.9933ZM11.9909 15.25L10.6721 15.25L10.6721 16.75L11.9909 16.75L11.9909 15.25Z" fill="black"/>
</svg>
