<svg width="24" height="24" viewBox="0 0 24 24" fill="none" xmlns="http://www.w3.org/2000/svg">
<path d="M19 20V20.75H19.75V20H19ZM5 20H4.25V20.75H5V20ZM5 4V3.25H4.25V4H5ZM16 4L16.5303 3.46967L16.3107 3.25H16V4ZM19 7L19.75 7V6.68934L19.5303 6.46967L19 7ZM13.2324 10.7605C13.6466 10.7605 13.9824 10.4247 13.9824 10.0105C13.9824 9.59624 13.6466 9.26045 13.2324 9.26045V10.7605ZM11.9909 10.0105L11.9372 9.26238L11.9909 10.0105ZM10.8025 12.3664L11.3747 11.8814L10.8025 12.3664ZM12.8567 13.364L12.4488 13.9933L12.8567 13.364ZM11.9909 16V15.25H11.9909L11.9909 16ZM10.6721 15.25C10.2579 15.25 9.92214 15.5858 9.92214 16C9.92214 16.4142 10.2579 16.75 10.6721 16.75L10.6721 15.25ZM18.7324 10.7605C19.1466 10.7605 19.4824 10.4247 19.4824 10.0105C19.4824 9.59624 19.1466 9.26045 18.7324 9.26045V10.7605ZM17.4909 10.0105L17.4372 9.26238L17.4909 10.0105ZM16.3025 12.3664L16.8747 11.8814L16.3025 12.3664ZM18.3567 13.364L17.9488 13.9933H17.9488L18.3567 13.364ZM17.4909 16V15.25H17.4909L17.4909 16ZM16.1721 15.25C15.7579 15.25 15.4221 15.5858 15.4221 16C15.4221 16.4142 15.7579 16.75 16.1721 16.75L16.1721 15.25ZM19 19.25H5V20.75H19V19.25ZM5 4.75H16V3.25H5V4.75ZM15.4697 4.53033L18.4697 7.53033L19.5303 6.46967L16.5303 3.46967L15.4697 4.53033ZM5.75 8V4H4.25V8H5.75ZM5.75 20V18H4.25V20H5.75ZM18.25 7L18.25 8L19.75 8L19.75 7L18.25 7ZM18.25 18V20H19.75V18H18.25ZM6.5 9.25C5.37598 9.25 4.25 10.174 4.25 11.5H5.75C5.75 11.0806 6.12402 10.75 6.5 10.75V9.25ZM4.25 11.5V14.5H5.75V11.5H4.25ZM4.25 14.5C4.25 15.2035 4.52128 15.7863 4.97048 16.1856C5.40587 16.5726 5.9652 16.75 6.5 16.75V15.25C6.2848 15.25 6.09413 15.1774 5.96702 15.0644C5.85372 14.9637 5.75 14.7965 5.75 14.5H4.25ZM8.75 11.6364C8.75 10.9091 8.49475 10.2987 8.05336 9.87067C7.62078 9.45119 7.05344 9.25 6.5 9.25V10.75C6.69656 10.75 6.87922 10.8215 7.00914 10.9475C7.13025 11.065 7.25 11.2727 7.25 11.6364H8.75ZM6.5 16.75C7.05344 16.75 7.62078 16.5488 8.05336 16.1293C8.49475 15.7013 8.75 15.0909 8.75 14.3636H7.25C7.25 14.7273 7.13025 14.935 7.00914 15.0525C6.87922 15.1785 6.69656 15.25 6.5 15.25V16.75ZM13.2324 9.26045C12.5286 9.26045 12.3092 9.25458 12.2281 9.25201C12.2015 9.25117 12.1468 9.24836 12.0855 9.25154C12.0566 9.25303 11.9933 9.25836 11.9372 9.26238L12.0446 10.7585C12.0882 10.7554 12.1182 10.753 12.1392 10.7514C12.1638 10.7495 12.1649 10.7494 12.1631 10.7495C12.1444 10.7505 12.1144 10.7492 12.1805 10.7513C12.2847 10.7546 12.5222 10.7605 13.2324 10.7605V9.26045ZM11.9372 9.26238C10.8544 9.34011 10.1461 9.94467 9.87367 10.7309C9.62534 11.4477 9.75546 12.291 10.2304 12.8513L11.3747 11.8814C11.2735 11.7621 11.2 11.4846 11.291 11.222C11.3579 11.0289 11.5319 10.7953 12.0446 10.7585L11.9372 9.26238ZM10.2304 12.8513C10.6613 13.3598 11.1299 13.5219 11.5168 13.6313C11.8833 13.735 12.1304 13.787 12.4488 13.9933L13.2646 12.7346C12.7172 12.3798 12.2253 12.2729 11.9251 12.188C11.6454 12.1088 11.5198 12.0527 11.3747 11.8814L10.2304 12.8513ZM12.4488 13.9933C12.68 14.1432 12.8022 14.4619 12.7297 14.766C12.6965 14.9055 12.626 15.0184 12.5266 15.0973C12.4307 15.1733 12.2674 15.25 11.9909 15.25V16.75C13.1912 16.75 13.9726 16.0217 14.1889 15.1137C14.3895 14.2717 14.0944 13.2724 13.2646 12.7346L12.4488 13.9933ZM11.9909 15.25L10.6721 15.25L10.6721 16.75L11.9909 16.75L11.9909 15.25ZM18.7324 9.26045C18.0286 9.26045 17.8092 9.25458 17.7281 9.25201C17.7015 9.25117 17.6468 9.24836 17.5855 9.25154C17.5566 9.25303 17.4933 9.25836 17.4372 9.26238L17.5446 10.7585C17.5882 10.7554 17.6182 10.753 17.6392 10.7514C17.6638 10.7495 17.6649 10.7494 17.6631 10.7495C17.6444 10.7505 17.6144 10.7492 17.6805 10.7513C17.7847 10.7546 18.0222 10.7605 18.7324 10.7605V9.26045ZM17.4372 9.26238C16.3544 9.34011 15.6461 9.94467 15.3737 10.7309C15.1253 11.4477 15.2555 12.291 15.7304 12.8513L16.8747 11.8814C16.7735 11.7621 16.7 11.4846 16.791 11.222C16.8579 11.0289 17.0319 10.7953 17.5446 10.7585L17.4372 9.26238ZM15.7304 12.8513C16.1613 13.3598 16.6299 13.5219 17.0168 13.6313C17.3833 13.735 17.6304 13.787 17.9488 13.9933L18.7646 12.7346C18.2172 12.3798 17.7253 12.2729 17.4251 12.188C17.1454 12.1088 17.0198 12.0527 16.8747 11.8814L15.7304 12.8513ZM17.9488 13.9933C18.18 14.1432 18.3022 14.4619 18.2297 14.766C18.1965 14.9055 18.126 15.0184 18.0266 15.0973C17.9307 15.1733 17.7674 15.25 17.4909 15.25V16.75C18.6912 16.75 19.4726 16.0217 19.6889 15.1137C19.8895 14.2717 19.5944 13.2724 18.7646 12.7346L17.9488 13.9933ZM17.4909 15.25L16.1721 15.25L16.1721 16.75L17.4909 16.75L17.4909 15.25Z" fill="black"/>
</svg>
