<svg width="24" height="24" viewBox="0 0 24 24" fill="none" xmlns="http://www.w3.org/2000/svg">
<path d="M19.7348 9.1539H19.2546V6.83648C19.2546 6.82193 19.2523 6.80748 19.2504 6.79271C19.2496 6.70079 19.2203 6.61033 19.1573 6.53883L15.3012 2.13413C15.3001 2.13289 15.2989 2.13252 15.2981 2.13139C15.2752 2.1056 15.2484 2.08426 15.22 2.06588C15.2116 2.06015 15.2032 2.05545 15.1943 2.05059C15.1698 2.03728 15.1438 2.02608 15.117 2.01802C15.1097 2.01612 15.1032 2.01313 15.096 2.01116C15.0668 2.0043 15.0365 2 15.006 2H5.52907C5.09631 2 4.74478 2.35197 4.74478 2.78433V9.15368H4.26463C3.64554 9.15368 3.14359 9.65546 3.14359 10.2746V16.104C3.14359 16.7229 3.64554 17.2252 4.26463 17.2252H4.74478V21.2157C4.74478 21.6481 5.09631 22 5.52907 22H18.4703C18.9026 22 19.2546 21.6481 19.2546 21.2157V17.2252H19.7348C20.3536 17.2252 20.8557 16.7231 20.8557 16.1042V10.2748C20.8557 9.6555 20.3536 9.1539 19.7348 9.1539ZM5.52907 2.78433H14.6138V6.79701C14.6138 7.01369 14.7895 7.18918 15.0059 7.18918H18.4703V9.15387H5.52907V2.78433ZM11.4333 13.4239C10.4601 13.085 9.82599 12.5465 9.82599 11.6953C9.82599 10.6956 10.6599 9.93093 12.0413 9.93093C12.7018 9.93093 13.1884 10.0699 13.5357 10.2267L13.2406 11.2954C13.0061 11.1821 12.5891 11.017 12.0154 11.017C11.4421 11.017 11.164 11.2778 11.164 11.5819C11.164 11.9557 11.494 12.1206 12.2503 12.4074C13.2841 12.7897 13.7707 13.3281 13.7707 14.1537C13.7707 15.1353 13.0149 15.9698 11.4073 15.9698C10.7384 15.9698 10.0777 15.7956 9.74771 15.6134L10.0169 14.5185C10.3734 14.7014 10.9206 14.8835 11.4856 14.8835C12.0937 14.8835 12.4153 14.6315 12.4153 14.2489C12.4152 13.8838 12.1369 13.6755 11.4333 13.4239ZM4.53387 13.0413C4.53387 11.043 5.95917 9.93093 7.73122 9.93093C8.41779 9.93093 8.93908 10.0699 9.17385 10.1917L8.90421 11.2428C8.63501 11.1303 8.26105 11.0262 7.79199 11.0262C6.74065 11.0262 5.92415 11.66 5.92415 12.9631C5.92415 14.1361 6.61908 14.8745 7.80111 14.8745C8.20043 14.8745 8.64362 14.7877 8.90421 14.6834L9.10422 15.7174C8.86084 15.8392 8.31361 15.9698 7.60107 15.9698C5.5766 15.9698 4.53387 14.7095 4.53387 13.0413ZM18.4703 21.0031H5.52907V17.2252H18.4703V21.0031ZM17.5942 15.8825H16.0476L14.1709 10.0267H15.6222L16.3345 12.5032C16.5343 13.198 16.7167 13.8669 16.856 14.5969H16.8819C17.0296 13.893 17.2118 13.1979 17.4118 12.5289L18.1591 10.0267H19.5671L17.5942 15.8825Z" fill="black"/>
</svg>
