<svg width="24" height="24" viewBox="0 0 24 24" fill="none" xmlns="http://www.w3.org/2000/svg">
<path d="M19 20V20.75H19.75V20H19ZM5 20H4.25V20.75H5V20ZM5 4V3.25H4.25V4H5ZM16 4L16.5303 3.46967L16.3107 3.25H16V4ZM19 7L19.75 7V6.68934L19.5303 6.46967L19 7ZM15.7115 9.76283C15.5805 9.36987 15.1558 9.1575 14.7628 9.28849C14.3699 9.41947 14.1575 9.84421 14.2885 10.2372L15.7115 9.76283ZM17 16L16.2885 16.2372C16.3906 16.5434 16.6772 16.75 17 16.75C17.3228 16.75 17.6094 16.5434 17.7115 16.2372L17 16ZM19.7115 10.2372C19.8425 9.84421 19.6301 9.41947 19.2372 9.28849C18.8442 9.1575 18.4195 9.36987 18.2885 9.76283L19.7115 10.2372ZM12.7324 10.7605C13.1466 10.7605 13.4824 10.4247 13.4824 10.0105C13.4824 9.59624 13.1466 9.26045 12.7324 9.26045V10.7605ZM11.4909 10.0105L11.4372 9.26238L11.4909 10.0105ZM10.3025 12.3664L10.8747 11.8814L10.3025 12.3664ZM12.3567 13.364L11.9488 13.9933L12.3567 13.364ZM11.4909 16V15.25H11.4909L11.4909 16ZM10.1721 15.25C9.75792 15.25 9.42214 15.5858 9.42214 16C9.42214 16.4142 9.75792 16.75 10.1721 16.75L10.1721 15.25ZM19 19.25H5V20.75H19V19.25ZM5 4.75H16V3.25H5V4.75ZM15.4697 4.53033L18.4697 7.53033L19.5303 6.46967L16.5303 3.46967L15.4697 4.53033ZM5.75 8V4H4.25V8H5.75ZM5.75 20V18H4.25V20H5.75ZM18.25 7L18.25 8L19.75 8L19.75 7L18.25 7ZM18.25 18V20H19.75V18H18.25ZM6.5 9.25C5.37598 9.25 4.25 10.174 4.25 11.5H5.75C5.75 11.0806 6.12402 10.75 6.5 10.75V9.25ZM4.25 11.5V14.5H5.75V11.5H4.25ZM4.25 14.5C4.25 15.2035 4.52128 15.7863 4.97048 16.1856C5.40587 16.5726 5.9652 16.75 6.5 16.75V15.25C6.2848 15.25 6.09413 15.1774 5.96702 15.0644C5.85372 14.9637 5.75 14.7965 5.75 14.5H4.25ZM8.75 11.6364C8.75 10.9091 8.49475 10.2987 8.05336 9.87067C7.62078 9.45119 7.05344 9.25 6.5 9.25V10.75C6.69656 10.75 6.87922 10.8215 7.00914 10.9475C7.13025 11.065 7.25 11.2727 7.25 11.6364H8.75ZM6.5 16.75C7.05344 16.75 7.62078 16.5488 8.05336 16.1293C8.49475 15.7013 8.75 15.0909 8.75 14.3636H7.25C7.25 14.7273 7.13025 14.935 7.00914 15.0525C6.87922 15.1785 6.69656 15.25 6.5 15.25V16.75ZM14.2885 10.2372L16.2885 16.2372L17.7115 15.7628L15.7115 9.76283L14.2885 10.2372ZM17.7115 16.2372L19.7115 10.2372L18.2885 9.76283L16.2885 15.7628L17.7115 16.2372ZM12.7324 9.26045C12.0286 9.26045 11.8092 9.25458 11.7281 9.25201C11.7015 9.25117 11.6468 9.24836 11.5855 9.25154C11.5566 9.25303 11.4933 9.25836 11.4372 9.26238L11.5446 10.7585C11.5882 10.7554 11.6182 10.753 11.6392 10.7514C11.6638 10.7495 11.6649 10.7494 11.6631 10.7495C11.6444 10.7505 11.6144 10.7492 11.6805 10.7513C11.7847 10.7546 12.0222 10.7605 12.7324 10.7605V9.26045ZM11.4372 9.26238C10.3544 9.34011 9.64609 9.94467 9.37367 10.7309C9.12534 11.4477 9.25546 12.291 9.73038 12.8513L10.8747 11.8814C10.7735 11.7621 10.7 11.4846 10.791 11.222C10.8579 11.0289 11.0319 10.7953 11.5446 10.7585L11.4372 9.26238ZM9.73038 12.8513C10.1613 13.3598 10.6299 13.5219 11.0168 13.6313C11.3833 13.735 11.6304 13.787 11.9488 13.9933L12.7646 12.7346C12.2172 12.3798 11.7253 12.2729 11.4251 12.188C11.1454 12.1088 11.0198 12.0527 10.8747 11.8814L9.73038 12.8513ZM11.9488 13.9933C12.18 14.1432 12.3022 14.4619 12.2297 14.766C12.1965 14.9055 12.126 15.0184 12.0266 15.0973C11.9307 15.1733 11.7674 15.25 11.4909 15.25V16.75C12.6912 16.75 13.4726 16.0217 13.6889 15.1137C13.8895 14.2717 13.5944 13.2724 12.7646 12.7346L11.9488 13.9933ZM11.4909 15.25L10.1721 15.25L10.1721 16.75L11.4909 16.75L11.4909 15.25Z" fill="black"/>
</svg>
