<svg width="24" height="24" viewBox="0 0 24 24" fill="none" xmlns="http://www.w3.org/2000/svg">
<path d="M19.7348 9.1539H19.2546V6.8367C19.2546 6.82215 19.2523 6.8077 19.2504 6.79293C19.2496 6.70101 19.2201 6.61065 19.1573 6.53905L15.3012 2.13413C15.3001 2.133 15.2989 2.13252 15.2981 2.13139C15.2752 2.10571 15.2484 2.08433 15.22 2.06588C15.2116 2.06026 15.2032 2.05545 15.1943 2.05059C15.1698 2.03728 15.1438 2.02608 15.117 2.01802C15.1097 2.01612 15.1032 2.01313 15.096 2.01123C15.0668 2.0043 15.0365 2 15.006 2H5.52909C5.09633 2 4.7448 2.35197 4.7448 2.78433V9.15368H4.26455C3.64579 9.15368 3.14365 9.65546 3.14365 10.2747V16.1042C3.14365 16.7229 3.64579 17.2252 4.26455 17.2252H4.7448V21.2157C4.7448 21.6481 5.09633 22 5.52909 22H18.4703C18.9026 22 19.2546 21.6481 19.2546 21.2157V17.2252H19.7348C20.354 17.2252 20.8557 16.7231 20.8557 16.1042V10.2749C20.8557 9.6555 20.354 9.1539 19.7348 9.1539ZM5.52909 2.78451H14.6138V6.7972C14.6138 7.01387 14.7895 7.18936 15.0059 7.18936H18.4703V9.15405H5.52909V2.78451ZM11.7963 15.0472C12.4508 15.0472 12.8104 14.5892 12.8104 13.6161V10.4435H14.0531V13.5346C14.0531 15.2353 13.1945 16.0449 11.7557 16.0449C10.3656 16.0449 9.54794 15.2763 9.54794 13.5181V10.4435H10.7991V13.6161C10.7991 14.5647 11.1591 15.0472 11.7963 15.0472ZM4.43686 13.281C4.43686 11.4002 5.77772 10.3535 7.44592 10.3535C8.09236 10.3535 8.58257 10.4845 8.80315 10.599L8.55 11.5882C8.29649 11.4821 7.94456 11.3841 7.50337 11.3841C6.51379 11.3841 5.74518 11.9808 5.74518 13.2075C5.74518 14.3116 6.39932 15.0063 7.51143 15.0063C7.88751 15.0063 8.30455 14.9246 8.55004 14.8263L8.73807 15.7994C8.50907 15.9142 7.99362 16.0368 7.32343 16.0368C5.41813 16.0367 4.43686 14.8508 4.43686 13.281ZM18.4703 21.0033H5.52909V17.2252H18.4703V21.0033ZM18.0199 15.9547C17.9299 15.7992 17.7993 15.3496 17.6358 14.671C17.4887 13.9839 17.2517 13.7959 16.7443 13.7879H16.3682V15.9547H15.1339V10.5171C15.5341 10.4516 16.1311 10.4025 16.7932 10.4025C17.6113 10.4025 18.1838 10.5255 18.576 10.8361C18.903 11.0981 19.083 11.4821 19.083 11.9892C19.083 12.6924 18.5844 13.1745 18.1103 13.3465V13.371C18.4943 13.5265 18.7069 13.8945 18.8459 14.4012C19.0175 15.0228 19.189 15.7424 19.2959 15.9549L18.0199 15.9547Z" fill="black"/>
<path d="M16.9323 11.3271C16.6298 11.3271 16.4582 11.3516 16.3682 11.3681V12.889H16.8588C17.4803 12.889 17.8483 12.5783 17.8483 12.0958C17.8483 11.5886 17.5049 11.3355 16.9323 11.3271Z" fill="black"/>
</svg>
