<svg width="24" height="24" viewBox="0 0 24 24" fill="none" xmlns="http://www.w3.org/2000/svg">
<path d="M12.6041 12.1071C12.5095 11.792 12.4149 11.3974 12.3361 11.0818H12.3202C12.2414 11.3972 12.1624 11.7994 12.0758 12.1071L11.7605 13.2349H12.9354L12.6041 12.1071Z" fill="black"/>
<path d="M8.40794 12.7533C8.416 11.6492 7.76935 11.0657 6.7362 11.0657C6.46793 11.0657 6.29462 11.0894 6.19201 11.1132V14.5909C6.29462 14.6143 6.46027 14.6143 6.60991 14.6143C7.69832 14.6224 8.40794 14.0229 8.40794 12.7533Z" fill="black"/>
<path d="M19.7352 9.15391H19.255V6.8367C19.255 6.82214 19.2527 6.80769 19.2508 6.79295C19.25 6.70104 19.2207 6.61056 19.1577 6.53906L15.3016 2.13413C15.3005 2.1329 15.2993 2.1325 15.2986 2.13137C15.2756 2.10563 15.2488 2.08424 15.2205 2.06587C15.212 2.06013 15.2036 2.05545 15.1948 2.05054C15.1703 2.03725 15.1442 2.02603 15.1174 2.01801C15.1101 2.01609 15.1036 2.01311 15.0963 2.01111C15.0673 2.00432 15.037 2 15.0063 2H5.52953C5.09678 2 4.74522 2.35196 4.74522 2.78435V9.15373H4.26508C3.64602 9.15373 3.14403 9.65547 3.14403 10.2746V16.104C3.14403 16.7229 3.64599 17.2252 4.26508 17.2252H4.74522V21.2157C4.74522 21.648 5.09678 22 5.52953 22H18.4707C18.903 22 19.255 21.648 19.255 21.2157V17.2252H19.7353C20.3541 17.2252 20.8562 16.7231 20.8562 16.1043V10.2749C20.8561 9.65569 20.3541 9.15391 19.7352 9.15391ZM5.52953 2.78449H14.6142V6.7972C14.6142 7.01386 14.79 7.18935 15.0064 7.18935H18.4707V9.15405H5.52953V2.78449ZM13.1639 10.1826L14.8122 15.4976H13.5188L13.1088 14.1331H11.5868L11.2084 15.4976H9.96234L11.5868 10.1826H13.1639ZM4.98523 15.4739V10.2533C5.42681 10.1826 6.00248 10.1429 6.60956 10.1429C7.61896 10.1429 8.27364 10.3244 8.78624 10.7108C9.33816 11.121 9.68525 11.7751 9.68525 12.7137C9.68525 13.731 9.31445 14.433 8.80185 14.8665C8.24205 15.3318 7.39035 15.5528 6.34954 15.5528C5.72648 15.5528 5.2848 15.5135 4.98523 15.4739ZM18.4707 21.0033H5.52953V17.2252H18.4707V21.0033ZM18.5509 11.1921H17.1V15.4978H15.8933V11.1921H14.4662V10.1827H18.5511L18.5509 11.1921Z" fill="black"/>
</svg>
