<svg width="24" height="24" viewBox="0 0 24 24" fill="none" xmlns="http://www.w3.org/2000/svg">
<path d="M19 20V20.75H19.75V20H19ZM5 20H4.25V20.75H5V20ZM5 4V3.25H4.25V4H5ZM16 4L16.5303 3.46967L16.3107 3.25H16V4ZM19 7L19.75 7V6.68934L19.5303 6.46967L19 7ZM5 16H4.25V16.75H5V16ZM5 10L5 9.25L4.25 9.25V10H5ZM6.9 10V9.25H6.9L6.9 10ZM9.63417 15.8181C9.5337 16.2199 9.77802 16.6271 10.1799 16.7276C10.5817 16.8281 10.9889 16.5837 11.0894 16.1819L9.63417 15.8181ZM11.8618 10V9.25C11.5176 9.25 11.2176 9.48422 11.1342 9.8181L11.8618 10ZM12.8618 10L13.5894 9.8181C13.5059 9.48422 13.2059 9.25 12.8618 9.25V10ZM13.6342 16.1819C13.7346 16.5837 14.1418 16.8281 14.5437 16.7276C14.9455 16.6271 15.1898 16.2199 15.0894 15.8181L13.6342 16.1819ZM16.75 16C16.75 16.4142 17.0858 16.75 17.5 16.75C17.9142 16.75 18.25 16.4142 18.25 16H16.75ZM15.5 9.25C15.0858 9.25 14.75 9.58579 14.75 10C14.75 10.4142 15.0858 10.75 15.5 10.75V9.25ZM19.5 10.75C19.9142 10.75 20.25 10.4142 20.25 10C20.25 9.58579 19.9142 9.25 19.5 9.25V10.75ZM19 19.25H5V20.75H19V19.25ZM5 4.75H16V3.25H5V4.75ZM15.4697 4.53033L18.4697 7.53033L19.5303 6.46967L16.5303 3.46967L15.4697 4.53033ZM5.75 8V4H4.25V8H5.75ZM5.75 20V18H4.25V20H5.75ZM18.25 7L18.25 8L19.75 8L19.75 7L18.25 7ZM18.25 18V20H19.75V18H18.25ZM5.75 16V10H4.25V16H5.75ZM5 10.75L6.9 10.75L6.9 9.25L5 9.25L5 10.75ZM6.9 10.75C7.05601 10.75 7.29973 10.7997 7.4804 10.9216C7.62097 11.0165 7.75 11.1655 7.75 11.5H9.25C9.25 10.6345 8.8457 10.0335 8.31961 9.67836C7.83361 9.35032 7.27733 9.25 6.9 9.25V10.75ZM7.75 11.5V14.5H9.25V11.5H7.75ZM7.75 14.5C7.75 14.6198 7.70515 14.8245 7.58518 14.9807C7.49217 15.1018 7.31534 15.25 6.9 15.25V16.75C7.76467 16.75 8.38783 16.3982 8.77482 15.8943C9.13485 15.4255 9.25 14.8802 9.25 14.5H7.75ZM6.9 15.25H5V16.75H6.9V15.25ZM11.0894 16.1819L11.5894 14.1819L10.1342 13.8181L9.63417 15.8181L11.0894 16.1819ZM11.5894 14.1819L12.5894 10.1819L11.1342 9.8181L10.1342 13.8181L11.5894 14.1819ZM11.8618 10.75H12.8618V9.25H11.8618V10.75ZM12.1342 10.1819L13.1342 14.1819L14.5894 13.8181L13.5894 9.8181L12.1342 10.1819ZM13.1342 14.1819L13.6342 16.1819L15.0894 15.8181L14.5894 13.8181L13.1342 14.1819ZM10.8618 14.75H13.8618V13.25H10.8618V14.75ZM16.75 10V16H18.25V10H16.75ZM15.5 10.75H17.5V9.25H15.5V10.75ZM17.5 10.75H19.5V9.25H17.5V10.75Z" fill="black"/>
</svg>
