<svg xmlns="http://www.w3.org/2000/svg" width="20" height="20" fill="none" viewBox="0 0 20 20">
  <path fill="#A0A0A0" d="M10.604 10.107c-.095-.315-.19-.71-.268-1.025h-.016c-.079.315-.158.717-.245 1.025l-.315 1.128h1.175l-.331-1.128zM6.408 10.753c.008-1.104-.639-1.687-1.672-1.687-.268 0-.441.023-.544.047v3.478c.103.023.268.023.418.023 1.088.008 1.798-.591 1.798-1.86z"/>
  <path fill="#A0A0A0" d="M17.735 7.154h-.48V4.837c0-.015-.002-.03-.004-.044a.385.385 0 00-.093-.254L13.302.134l-.003-.003a.384.384 0 00-.104-.08.41.41 0 00-.078-.033l-.02-.007a.397.397 0 00-.09-.011H3.53a.785.785 0 00-.785.784v6.37h-.48c-.619 0-1.121.501-1.121 1.12v5.83c0 .619.502 1.121 1.121 1.121h.48v3.99c0 .433.352.785.785.785h12.94a.785.785 0 00.785-.784v-3.99h.48c.62 0 1.121-.503 1.121-1.122v-5.83c0-.618-.502-1.12-1.12-1.12zM3.53.784h9.084v4.013c0 .217.176.392.392.392h3.465v1.965H3.53V.784zm7.634 7.399l1.648 5.315H11.52l-.41-1.365H9.587l-.379 1.365H7.962l1.625-5.315h1.577zm-8.179 5.29v-5.22a10.76 10.76 0 011.625-.11c1.009 0 1.664.181 2.176.568.552.41.9 1.064.9 2.003 0 1.017-.372 1.719-.884 2.152-.56.466-1.412.687-2.452.687-.623 0-1.065-.04-1.365-.08zm13.486 5.53H3.53v-3.778h12.94v3.778zm.08-9.81H15.1v4.305h-1.208V9.192h-1.427v-1.01h4.085v1.01z"/>
</svg>
