<svg width="24" height="24" viewBox="0 0 24 24" fill="none" xmlns="http://www.w3.org/2000/svg">
<path d="M14.6726 13.3785H14.2207V15.0295C14.3509 15.0469 14.5074 15.0469 14.7331 15.0469C15.333 15.0469 15.8628 14.8211 15.8628 14.2038C15.863 13.6133 15.333 13.3785 14.6726 13.3785Z" fill="black"/>
<path d="M15.7238 11.711C15.7238 11.2679 15.3849 11.033 14.7855 11.033C14.4985 11.033 14.3334 11.0504 14.2206 11.0679V12.4319H14.6549C15.3498 12.4319 15.7238 12.145 15.7238 11.711Z" fill="black"/>
<path d="M19.7352 9.15391H19.255V6.83648C19.255 6.82192 19.2527 6.80747 19.2508 6.79273C19.25 6.70083 19.2207 6.61034 19.1577 6.53881L15.3016 2.13413L15.2986 2.13137C15.2756 2.10563 15.2488 2.08424 15.2205 2.06587C15.212 2.06013 15.2036 2.05545 15.1948 2.05054C15.1703 2.03725 15.1442 2.02603 15.1174 2.01801C15.1101 2.01609 15.1036 2.01311 15.0963 2.01111C15.0673 2.00432 15.037 2 15.0063 2H5.52953C5.09678 2 4.74522 2.35196 4.74522 2.78435V9.15373H4.26508C3.64602 9.15373 3.14403 9.65547 3.14403 10.2746V16.104C3.14403 16.7229 3.64599 17.2252 4.26508 17.2252H4.74522V21.2157C4.74522 21.648 5.09678 22 5.52953 22H18.4707C18.903 22 19.255 21.648 19.255 21.2157V17.2252H19.7353C20.3541 17.2252 20.8562 16.7231 20.8562 16.1043V10.2749C20.8561 9.65547 20.3541 9.15391 19.7352 9.15391ZM18.4707 21.0031H5.52953V17.2252H18.4707V21.0031ZM6.86032 15.9422V10.1902C7.34677 10.1119 7.98087 10.0681 8.65029 10.0681C9.76252 10.0681 10.4834 10.2681 11.0481 10.6937C11.6563 11.1459 12.0387 11.8666 12.0387 12.9009C12.0387 14.0217 11.6303 14.7949 11.0656 15.2728C10.4486 15.7854 9.51034 16.0286 8.36325 16.0286C7.6768 16.0288 7.19035 15.9855 6.86032 15.9422ZM17.253 14.2564C17.253 14.7865 17.0096 15.2031 16.6447 15.4988C16.2184 15.8377 15.5061 16.0288 14.3423 16.0288C13.6903 16.0288 13.2038 15.9856 12.9085 15.9422V10.1902C13.256 10.1206 13.9599 10.0681 14.6199 10.0681C15.428 10.0681 15.9235 10.1463 16.349 10.3986C16.7577 10.6159 17.0529 11.0153 17.0529 11.5457C17.0529 12.0666 16.7488 12.553 16.0886 12.7966V12.8138C16.7577 12.9965 17.253 13.5005 17.253 14.2564ZM18.4707 9.15391H5.52953V2.78435H14.6142V6.79705C14.6142 7.01372 14.79 7.18921 15.0064 7.18921H18.4707V9.15391Z" fill="black"/>
<path d="M8.78899 11.085C8.49393 11.085 8.30254 11.1108 8.18987 11.1367V14.9686C8.30257 14.9947 8.48493 14.9947 8.65039 14.9947C9.84927 15.0035 10.631 14.3429 10.631 12.9443C10.64 11.7279 9.92766 11.085 8.78899 11.085Z" fill="black"/>
</svg>
