<svg width="24" height="24" viewBox="0 0 24 24" fill="none" xmlns="http://www.w3.org/2000/svg">
<path d="M13.4794 11.6189C13.4794 11.2044 13.1624 10.9852 12.6013 10.9852C12.3331 10.9852 12.1785 11.0013 12.0728 11.0174V12.2942H12.4795C13.1302 12.294 13.4794 12.0255 13.4794 11.6189Z" fill="black"/>
<path d="M8.71478 12.7736C8.72302 11.6352 8.05619 11.0336 6.99067 11.0336C6.71483 11.0336 6.5358 11.0577 6.43013 11.0824V14.668C6.5358 14.6925 6.70651 14.6925 6.86085 14.6925C7.98287 14.7005 8.71478 14.0828 8.71478 12.7736Z" fill="black"/>
<path d="M12.4959 13.1804H12.0731V14.7252C12.1951 14.7413 12.3415 14.7413 12.5527 14.7413C13.1138 14.7413 13.6099 14.5305 13.6099 13.953C13.61 13.3998 13.1138 13.1804 12.4959 13.1804Z" fill="black"/>
<path d="M19.735 9.15372H19.2547V6.83648C19.2547 6.82193 19.2524 6.80748 19.2507 6.79271C19.25 6.70079 19.2205 6.61044 19.1575 6.53883L15.3012 2.13413C15.3001 2.133 15.2989 2.13252 15.2981 2.13139C15.2752 2.10571 15.2484 2.08433 15.22 2.06588C15.2116 2.06026 15.2032 2.05555 15.1943 2.05059C15.1698 2.03728 15.1438 2.02608 15.117 2.01802C15.1097 2.01612 15.1032 2.01313 15.096 2.01123C15.0668 2.0043 15.0365 2 15.006 2H5.52907C5.09631 2 4.74478 2.35197 4.74478 2.78433V9.15368H4.26463C3.64554 9.15368 3.14359 9.65546 3.14359 10.2747V16.1042C3.14359 16.7229 3.64554 17.2252 4.26463 17.2252H4.74478V21.2157C4.74478 21.6481 5.09631 22 5.52907 22H18.4703C18.9026 22 19.2546 21.6481 19.2546 21.2157V17.2252H19.7348C20.3536 17.2252 20.8557 16.7229 20.8557 16.1042V10.2748C20.8557 9.6555 20.354 9.15372 19.735 9.15372ZM5.52907 2.78433H14.6138V6.79701C14.6138 7.0138 14.7895 7.18918 15.0059 7.18918H18.4703V9.15387H5.52907V2.78433ZM14.9106 14.0011C14.9106 14.4975 14.6831 14.8875 14.3414 15.1644C13.9432 15.4812 13.2764 15.6602 12.1867 15.6602C11.577 15.6602 11.1214 15.6196 10.8449 15.579V10.196C11.1706 10.1313 11.8288 10.0828 12.4469 10.0828C13.2029 10.0828 13.6665 10.1554 14.0651 10.3912C14.4471 10.5949 14.7236 10.9687 14.7236 11.4649C14.7236 11.9523 14.4387 12.4082 13.8208 12.6354V12.6518C14.4472 12.8226 14.9106 13.294 14.9106 14.0011ZM5.18611 15.579V10.196C5.64167 10.123 6.23519 10.0828 6.86143 10.0828C7.90223 10.0828 8.57709 10.2694 9.10557 10.6677C9.67475 11.0904 10.0325 11.7654 10.0325 12.7332C10.0325 13.782 9.65024 14.5056 9.12205 14.9531C8.54437 15.4323 7.66633 15.66 6.59325 15.66C5.95045 15.6602 5.49558 15.6196 5.18611 15.579ZM18.4703 21.0031H5.52907V17.2252H18.4703V21.0031ZM19.1062 11.139H16.9998V12.3916H18.9675V13.3998H16.9998V15.6031H15.756V10.123H19.106L19.1062 11.139Z" fill="black"/>
</svg>
