<svg width="24" height="24" viewBox="0 0 24 24" fill="none" xmlns="http://www.w3.org/2000/svg">
<path d="M19 20V20.75H19.75V20H19ZM5 20H4.25V20.75H5V20ZM5 4V3.25H4.25V4H5ZM16 4L16.5303 3.46967L16.3107 3.25H16V4ZM19 7L19.75 7V6.68934L19.5303 6.46967L19 7ZM5 16H4.25V16.75H5V16ZM5 10L5 9.25L4.25 9.25V10H5ZM6.9 10V9.25H6.9L6.9 10ZM16 10V9.25H15.25V10H16ZM15.25 16C15.25 16.4142 15.5858 16.75 16 16.75C16.4142 16.75 16.75 16.4142 16.75 16H15.25ZM19 10.75C19.4142 10.75 19.75 10.4142 19.75 10C19.75 9.58579 19.4142 9.25 19 9.25V10.75ZM18.5 13.75C18.9142 13.75 19.25 13.4142 19.25 13C19.25 12.5858 18.9142 12.25 18.5 12.25V13.75ZM10.7398 10V9.25H9.98981V10H10.7398ZM10.7398 16H9.98981V16.75H10.7398V16ZM12.2597 16V15.25V16ZM19 19.25H5V20.75H19V19.25ZM5 4.75H16V3.25H5V4.75ZM15.4697 4.53033L18.4697 7.53033L19.5303 6.46967L16.5303 3.46967L15.4697 4.53033ZM5.75 8V4H4.25V8H5.75ZM5.75 20V18H4.25V20H5.75ZM18.25 7L18.25 8L19.75 8L19.75 7L18.25 7ZM18.25 18V20H19.75V18H18.25ZM5.75 16V10H4.25V16H5.75ZM5 10.75L6.9 10.75L6.9 9.25L5 9.25L5 10.75ZM6.9 10.75C7.05601 10.75 7.29973 10.7997 7.4804 10.9216C7.62097 11.0165 7.75 11.1655 7.75 11.5H9.25C9.25 10.6345 8.8457 10.0335 8.31961 9.67836C7.83361 9.35032 7.27733 9.25 6.9 9.25V10.75ZM7.75 11.5V14.5H9.25V11.5H7.75ZM7.75 14.5C7.75 14.6198 7.70515 14.8245 7.58518 14.9807C7.49217 15.1018 7.31534 15.25 6.9 15.25V16.75C7.76467 16.75 8.38783 16.3982 8.77482 15.8943C9.13485 15.4255 9.25 14.8802 9.25 14.5H7.75ZM6.9 15.25H5V16.75H6.9V15.25ZM15.25 10V13H16.75V10H15.25ZM15.25 13V16H16.75V13H15.25ZM16 10.75H19V9.25H16V10.75ZM16 13.75H18.5V12.25H16V13.75ZM10.7398 10.75H12.2602V9.25H10.7398V10.75ZM12.2602 10.75C12.4833 10.75 12.6724 10.8237 12.7962 10.9342C12.9066 11.0329 13.0102 11.1996 13.0102 11.5H14.5102C14.5102 10.8004 14.2447 10.2171 13.7956 9.81576C13.3598 9.42632 12.799 9.25 12.2602 9.25V10.75ZM13.0102 11.5C13.0102 11.8004 12.9066 11.9671 12.7962 12.0658C12.6724 12.1763 12.4833 12.25 12.2602 12.25V13.75C12.799 13.75 13.3598 13.5737 13.7956 13.1842C14.2447 12.7829 14.5102 12.1996 14.5102 11.5H13.0102ZM9.98981 10V13H11.4898V10H9.98981ZM9.98981 13V16H11.4898V13H9.98981ZM12.2602 12.25H10.7398V13.75H12.2602V12.25ZM10.7398 16.75H12.2597V15.25H10.7398V16.75ZM12.2597 16.75C12.7865 16.75 13.3429 16.5704 13.7775 16.1882C14.2271 15.793 14.5102 15.2113 14.5102 14.5H13.0102C13.0102 14.7887 12.9063 14.957 12.7871 15.0618C12.6531 15.1796 12.4592 15.25 12.2597 15.25V16.75ZM14.5102 14.5C14.5102 13.7912 14.2309 13.2092 13.7816 12.8127C13.3467 12.4289 12.7895 12.25 12.2602 12.25V13.75C12.4645 13.75 12.6573 13.8211 12.789 13.9373C12.9063 14.0408 13.0102 14.2088 13.0102 14.5H14.5102Z" fill="black"/>
</svg>
