<svg width="24" height="24" viewBox="0 0 24 24" fill="none" xmlns="http://www.w3.org/2000/svg">
<path d="M8.19815 12.9107C8.20599 11.8112 7.56184 11.2298 6.53278 11.2298C6.26599 11.2298 6.09294 11.2536 5.99081 11.2773V14.7409C6.09298 14.7647 6.25793 14.7647 6.40708 14.7647C7.49108 14.7724 8.19815 14.1757 8.19815 12.9107Z" fill="black"/>
<path d="M12.0001 11.2298C11.7332 11.2298 11.5602 11.2536 11.4583 11.2773V14.7409C11.5605 14.7647 11.7254 14.7647 11.8745 14.7647C12.9586 14.7724 13.6656 14.1757 13.6656 12.9107C13.6733 11.8112 13.0293 11.2298 12.0001 11.2298Z" fill="black"/>
<path d="M19.735 9.1539H19.2547V6.8367C19.2547 6.82226 19.2525 6.8077 19.2508 6.79293C19.25 6.70101 19.2205 6.61065 19.1575 6.53905L15.3013 2.13413C15.3 2.133 15.2989 2.13259 15.2982 2.13139C15.2752 2.10571 15.2484 2.08433 15.22 2.06588C15.2116 2.06026 15.2032 2.05555 15.1944 2.05059C15.1699 2.03728 15.1438 2.02608 15.117 2.01802C15.1097 2.01612 15.1032 2.01313 15.096 2.01123C15.0668 2.0043 15.0366 2 15.006 2H5.52907C5.09634 2 4.74478 2.35197 4.74478 2.78433V9.15368H4.2646C3.64554 9.15368 3.14359 9.65546 3.14359 10.2747V16.1042C3.14359 16.7229 3.64554 17.2252 4.2646 17.2252H4.74478V21.2157C4.74478 21.6481 5.09634 22 5.52907 22H18.4702C18.9026 22 19.2545 21.6481 19.2545 21.2157V17.2252H19.7348C20.3536 17.2252 20.8557 16.7231 20.8557 16.1042V10.2749C20.8557 9.6555 20.354 9.1539 19.735 9.1539ZM5.52907 2.78433H14.6138V6.79701C14.6138 7.01369 14.7895 7.18918 15.006 7.18918H18.4703V9.15387H5.52907V2.78433ZM14.9374 12.8713C14.9374 13.8846 14.5682 14.5833 14.0579 15.0159C13.5003 15.4788 12.652 15.6987 11.6151 15.6987C10.9943 15.6987 10.5547 15.6597 10.2561 15.6202V10.4202C10.6961 10.3498 11.2694 10.3106 11.8741 10.3106C12.8795 10.3106 13.5315 10.4914 14.042 10.8759C14.5919 11.2845 14.9374 11.9362 14.9374 12.8713ZM4.78946 15.62V10.42C5.22949 10.3496 5.80257 10.3104 6.40747 10.3104C7.41278 10.3104 8.06495 10.4912 8.57537 10.8757C9.12541 11.2843 9.47085 11.936 9.47085 12.8709C9.47085 13.8842 9.10166 14.5831 8.59128 15.0157C8.03358 15.4785 7.18542 15.6983 6.14852 15.6983C5.52794 15.6987 5.08806 15.6596 4.78946 15.62ZM18.4703 21.0033H5.52907V17.2252H18.4702L18.4703 21.0033ZM17.0188 15.7225C16.4141 15.7225 15.8171 15.5654 15.5185 15.4002L15.7619 14.4106C16.0842 14.5752 16.5788 14.7405 17.0895 14.7405C17.6392 14.7405 17.9299 14.513 17.9299 14.1672C17.9299 13.8373 17.6783 13.6483 17.0426 13.4207C16.1625 13.1144 15.5892 12.6275 15.5892 11.8576C15.5892 10.9543 16.3433 10.2629 17.5922 10.2629C18.1891 10.2629 18.6292 10.389 18.9433 10.5302L18.6763 11.4965C18.4642 11.3943 18.0869 11.2449 17.5688 11.2449C17.05 11.2449 16.799 11.4808 16.799 11.7555C16.799 12.0935 17.0971 12.2428 17.7806 12.5021C18.7154 12.8475 19.1552 13.3346 19.1552 14.0806C19.1552 14.9683 18.4716 15.7225 17.0188 15.7225Z" fill="black"/>
</svg>
