<svg xmlns="http://www.w3.org/2000/svg" width="20" height="20" fill="none" viewBox="0 0 20 20">
  <path fill="#A0A0A0" d="M6.198 10.91c.008-1.099-.636-1.68-1.665-1.68-.267 0-.44.024-.542.047v3.464c.102.024.267.024.416.024 1.084.007 1.791-.59 1.791-1.854zM10 9.23c-.267 0-.44.024-.541.047v3.464c.102.024.267.024.416.024 1.084.007 1.79-.59 1.79-1.854.008-1.1-.635-1.681-1.665-1.681z"/>
  <path fill="#A0A0A0" d="M17.735 7.154h-.48V4.837c0-.015-.003-.03-.004-.044a.385.385 0 00-.094-.254L13.301.134l-.003-.003a.386.386 0 00-.078-.065c-.008-.006-.017-.01-.026-.015a.41.41 0 00-.077-.033l-.021-.007a.39.39 0 00-.09-.011H3.529a.785.785 0 00-.784.784v6.37h-.48c-.62 0-1.121.501-1.121 1.12v5.83c0 .619.502 1.121 1.12 1.121h.48v3.99c0 .433.352.785.785.785H16.47a.785.785 0 00.785-.784v-3.99h.48c.619 0 1.12-.503 1.12-1.122V8.275a1.12 1.12 0 00-1.12-1.121zM3.529.784h9.085v4.013c0 .217.175.392.392.392h3.464v1.965H3.53V.784zm9.408 10.087c0 1.014-.369 1.712-.88 2.145-.557.463-1.405.683-2.442.683-.62 0-1.06-.04-1.359-.079v-5.2c.44-.07 1.013-.11 1.618-.11 1.005 0 1.657.181 2.168.566.55.409.895 1.06.895 1.995zM2.79 13.62v-5.2c.44-.07 1.014-.11 1.618-.11 1.006 0 1.658.181 2.168.566.55.408.896 1.06.896 1.995 0 1.013-.37 1.712-.88 2.145-.557.463-1.406.682-2.443.682-.62 0-1.06-.038-1.359-.078zm13.681 5.383H3.53v-3.778H16.47v3.778zm-1.451-5.28c-.605 0-1.202-.158-1.5-.323l.243-.99c.322.165.817.33 1.327.33.55 0 .84-.227.84-.573 0-.33-.25-.519-.886-.746-.88-.307-1.454-.793-1.454-1.563 0-.904.754-1.595 2.003-1.595.597 0 1.037.126 1.351.267l-.267.966a2.517 2.517 0 00-1.107-.251c-.519 0-.77.236-.77.51 0 .338.298.488.982.747.934.345 1.374.833 1.374 1.579 0 .887-.683 1.642-2.136 1.642z"/>
</svg>
