<svg width="24" height="24" viewBox="0 0 24 24" fill="none" xmlns="http://www.w3.org/2000/svg">
<path d="M19 20V20.75H19.75V20H19ZM5 20H4.25V20.75H5V20ZM5 4V3.25H4.25V4H5ZM16 4L16.5303 3.46967L16.3107 3.25H16V4ZM19 7L19.75 7V6.68934L19.5303 6.46967L19 7ZM5 16H4.25V16.75H5V16ZM5 10L5 9.25L4.25 9.25V10H5ZM6.9 10V9.25H6.9L6.9 10ZM11 16H10.25V16.75H11V16ZM11 10L11 9.25L10.25 9.25V10H11ZM12.9 10V9.25H12.9L12.9 10ZM19.7324 10.7605C20.1466 10.7605 20.4824 10.4247 20.4824 10.0105C20.4824 9.59624 20.1466 9.26045 19.7324 9.26045V10.7605ZM18.4909 10.0105L18.4372 9.26238L18.4909 10.0105ZM17.3025 12.3664L17.8747 11.8814L17.3025 12.3664ZM19.3567 13.364L18.9488 13.9933H18.9488L19.3567 13.364ZM18.4909 16V15.25H18.4909L18.4909 16ZM17.1721 15.25C16.7579 15.25 16.4221 15.5858 16.4221 16C16.4221 16.4142 16.7579 16.75 17.1721 16.75L17.1721 15.25ZM19 19.25H5V20.75H19V19.25ZM5 4.75H16V3.25H5V4.75ZM15.4697 4.53033L18.4697 7.53033L19.5303 6.46967L16.5303 3.46967L15.4697 4.53033ZM5.75 8V4H4.25V8H5.75ZM5.75 20V18H4.25V20H5.75ZM18.25 7L18.25 8L19.75 8L19.75 7L18.25 7ZM18.25 18V20H19.75V18H18.25ZM5.75 16V10H4.25V16H5.75ZM5 10.75L6.9 10.75L6.9 9.25L5 9.25L5 10.75ZM6.9 10.75C7.05601 10.75 7.29973 10.7997 7.4804 10.9216C7.62097 11.0165 7.75 11.1655 7.75 11.5H9.25C9.25 10.6345 8.8457 10.0335 8.31961 9.67836C7.83361 9.35032 7.27733 9.25 6.9 9.25V10.75ZM7.75 11.5V14.5H9.25V11.5H7.75ZM7.75 14.5C7.75 14.6198 7.70515 14.8245 7.58518 14.9807C7.49217 15.1018 7.31534 15.25 6.9 15.25V16.75C7.76467 16.75 8.38783 16.3982 8.77482 15.8943C9.13485 15.4255 9.25 14.8802 9.25 14.5H7.75ZM6.9 15.25H5V16.75H6.9V15.25ZM11.75 16V10H10.25V16H11.75ZM11 10.75L12.9 10.75L12.9 9.25L11 9.25L11 10.75ZM12.9 10.75C13.056 10.75 13.2997 10.7997 13.4804 10.9216C13.621 11.0165 13.75 11.1655 13.75 11.5H15.25C15.25 10.6345 14.8457 10.0335 14.3196 9.67836C13.8336 9.35032 13.2773 9.25 12.9 9.25V10.75ZM13.75 11.5V14.5H15.25V11.5H13.75ZM13.75 14.5C13.75 14.6198 13.7051 14.8245 13.5852 14.9807C13.4922 15.1018 13.3153 15.25 12.9 15.25V16.75C13.7647 16.75 14.3878 16.3982 14.7748 15.8943C15.1349 15.4255 15.25 14.8802 15.25 14.5H13.75ZM12.9 15.25H11V16.75H12.9V15.25ZM19.7324 9.26045C19.0286 9.26045 18.8092 9.25458 18.7281 9.25201C18.7015 9.25117 18.6468 9.24836 18.5855 9.25154C18.5566 9.25303 18.4933 9.25836 18.4372 9.26238L18.5446 10.7585C18.5882 10.7554 18.6182 10.753 18.6392 10.7514C18.6638 10.7495 18.6649 10.7494 18.6631 10.7495C18.6444 10.7505 18.6144 10.7492 18.6805 10.7513C18.7847 10.7546 19.0222 10.7605 19.7324 10.7605V9.26045ZM18.4372 9.26238C17.3544 9.34011 16.6461 9.94467 16.3737 10.7309C16.1253 11.4477 16.2555 12.291 16.7304 12.8513L17.8747 11.8814C17.7735 11.7621 17.7 11.4846 17.791 11.222C17.8579 11.0289 18.0319 10.7953 18.5446 10.7585L18.4372 9.26238ZM16.7304 12.8513C17.1613 13.3598 17.6299 13.5219 18.0168 13.6313C18.3833 13.735 18.6304 13.787 18.9488 13.9933L19.7646 12.7346C19.2172 12.3798 18.7253 12.2729 18.4251 12.188C18.1454 12.1088 18.0198 12.0527 17.8747 11.8814L16.7304 12.8513ZM18.9488 13.9933C19.18 14.1432 19.3022 14.4619 19.2297 14.766C19.1965 14.9055 19.126 15.0184 19.0266 15.0973C18.9307 15.1733 18.7674 15.25 18.4909 15.25V16.75C19.6912 16.75 20.4726 16.0217 20.6889 15.1137C20.8895 14.2717 20.5944 13.2724 19.7646 12.7346L18.9488 13.9933ZM18.4909 15.25L17.1721 15.25L17.1721 16.75L18.4909 16.75L18.4909 15.25Z" fill="black"/>
</svg>
