<svg width="24" height="24" viewBox="0 0 24 24" fill="none" xmlns="http://www.w3.org/2000/svg">
<path d="M7.89087 12.893C7.89835 11.8546 7.29032 11.3054 6.3185 11.3054C6.06641 11.3054 5.90328 11.328 5.80658 11.3499V14.6213C5.90328 14.6439 6.05896 14.6439 6.19969 14.6439C7.22367 14.6508 7.89087 14.0871 7.89087 12.893Z" fill="black"/>
<path d="M19.735 9.15372H19.2547V6.83648C19.2547 6.82193 19.2524 6.80748 19.2507 6.79271C19.25 6.70079 19.2205 6.61044 19.1575 6.53883L15.3012 2.13413C15.3001 2.133 15.2989 2.13252 15.2981 2.13139C15.2752 2.10571 15.2484 2.08433 15.22 2.06588C15.2116 2.06026 15.2032 2.05555 15.1943 2.05059C15.1698 2.03728 15.1438 2.02608 15.117 2.01802C15.1097 2.01612 15.1032 2.01313 15.096 2.01123C15.0668 2.0043 15.0365 2 15.006 2H5.52907C5.09631 2 4.74478 2.35197 4.74478 2.78433V9.15368H4.26463C3.64554 9.15368 3.14359 9.65546 3.14359 10.2747V16.1042C3.14359 16.7229 3.64554 17.2252 4.26463 17.2252H4.74478V21.2157C4.74478 21.6481 5.09631 22 5.52907 22H18.4703C18.9026 22 19.2546 21.6481 19.2546 21.2157V17.2252H19.7348C20.3536 17.2252 20.8557 16.7229 20.8557 16.1042V10.2748C20.8557 9.6555 20.354 9.15372 19.735 9.15372ZM5.52907 2.78433H14.6138V6.79701C14.6138 7.0138 14.7895 7.18918 15.0059 7.18918H18.4703V9.15387H5.52907V2.78433ZM12.8081 12.4399V13.3592H10.9687V14.5465H13.0233V15.4737H9.83379V10.4746H12.9196V11.4018H10.9689V12.4401L12.8081 12.4399ZM4.67164 15.4517V10.5412C5.08715 10.4746 5.62894 10.4375 6.19966 10.4375C7.1493 10.4375 7.76504 10.6078 8.24719 10.9714C8.76622 11.3571 9.09269 11.9727 9.09269 12.8555C9.09269 13.8122 8.74419 14.4725 8.26203 14.8808C7.73516 15.3179 6.93438 15.526 5.95494 15.526C5.36908 15.5256 4.95379 15.489 4.67164 15.4517ZM18.4703 21.0031H5.52907V17.2252H18.4703V21.0031ZM18.0964 15.4737L18.0226 13.56C18 12.9593 17.9776 12.2325 17.9776 11.5053H17.9556C17.7999 12.1432 17.5922 12.8553 17.3991 13.4411L16.791 15.3923H15.9087L15.3742 13.456C15.2113 12.8701 15.0404 12.1577 14.9217 11.5053H14.9069C14.8773 12.18 14.8547 12.9516 14.818 13.5745L14.729 15.4736H13.6833L14.0018 10.4745H15.5077L15.9975 12.1436C16.1534 12.7218 16.3088 13.3449 16.4203 13.9309H16.4423C16.5835 13.3526 16.7539 12.6919 16.9172 12.1359L17.4513 10.4745H18.9272L19.2015 15.4736L18.0964 15.4737Z" fill="black"/>
</svg>
