<svg width="24" height="24" viewBox="0 0 24 24" fill="none" xmlns="http://www.w3.org/2000/svg">
<path d="M19 20V20.75H19.75V20H19ZM5 20H4.25V20.75H5V20ZM5 4V3.25H4.25V4H5ZM16 4L16.5303 3.46967L16.3107 3.25H16V4ZM19 7L19.75 7V6.68934L19.5303 6.46967L19 7ZM4 16H3.25V16.75H4V16ZM4 10L4 9.25L3.25 9.25V10H4ZM5.9 10V9.25H5.9L5.9 10ZM9.75 10V9.25H9V10H9.75ZM9.75 16H9V16.75H9.75V16ZM12.75 10.75C13.1642 10.75 13.5 10.4142 13.5 10C13.5 9.58579 13.1642 9.25 12.75 9.25V10.75ZM12.25 13.75C12.6642 13.75 13 13.4142 13 13C13 12.5858 12.6642 12.25 12.25 12.25V13.75ZM12.75 16.75C13.1642 16.75 13.5 16.4142 13.5 16C13.5 15.5858 13.1642 15.25 12.75 15.25V16.75ZM15 10V9.25C14.5858 9.25 14.25 9.58579 14.25 10H15ZM14.25 16C14.25 16.4142 14.5858 16.75 15 16.75C15.4142 16.75 15.75 16.4142 15.75 16H14.25ZM15.7857 10L16.4866 9.733C16.3758 9.44219 16.0969 9.25 15.7857 9.25V10ZM17.5 14.5L16.7991 14.767C16.9099 15.0578 17.1888 15.25 17.5 15.25V14.5ZM18 14.5V15.25C18.3112 15.25 18.5901 15.0578 18.7009 14.767L18 14.5ZM19.7143 10V9.25C19.4031 9.25 19.1242 9.44219 19.0134 9.733L19.7143 10ZM20.5 10H21.25C21.25 9.58579 20.9142 9.25 20.5 9.25V10ZM19.75 16C19.75 16.4142 20.0858 16.75 20.5 16.75C20.9142 16.75 21.25 16.4142 21.25 16H19.75ZM19 19.25H5V20.75H19V19.25ZM5 4.75H16V3.25H5V4.75ZM15.4697 4.53033L18.4697 7.53033L19.5303 6.46967L16.5303 3.46967L15.4697 4.53033ZM5.75 8V4H4.25V8H5.75ZM5.75 20V18H4.25V20H5.75ZM18.25 7L18.25 8L19.75 8L19.75 7L18.25 7ZM18.25 18V20H19.75V18H18.25ZM4.75 16V10H3.25V16H4.75ZM4 10.75L5.9 10.75L5.9 9.25L4 9.25L4 10.75ZM5.9 10.75C6.05601 10.75 6.29973 10.7997 6.4804 10.9216C6.62097 11.0165 6.75 11.1655 6.75 11.5H8.25C8.25 10.6345 7.8457 10.0335 7.31961 9.67836C6.83361 9.35032 6.27733 9.25 5.9 9.25V10.75ZM6.75 11.5V14.5H8.25V11.5H6.75ZM6.75 14.5C6.75 14.6198 6.70515 14.8245 6.58518 14.9807C6.49217 15.1018 6.31534 15.25 5.9 15.25V16.75C6.76467 16.75 7.38783 16.3982 7.77482 15.8943C8.13485 15.4255 8.25 14.8802 8.25 14.5H6.75ZM5.9 15.25H4V16.75H5.9V15.25ZM9 10V13H10.5V10H9ZM9 13V16H10.5V13H9ZM9.75 10.75H12.75V9.25H9.75V10.75ZM9.75 13.75H12.25V12.25H9.75V13.75ZM9.75 16.75H12.75V15.25H9.75V16.75ZM14.25 10V16H15.75V10H14.25ZM15 10.75H15.7857V9.25H15V10.75ZM15.0848 10.267L16.7991 14.767L18.2009 14.233L16.4866 9.733L15.0848 10.267ZM17.5 15.25H18V13.75H17.5V15.25ZM18.7009 14.767L20.4152 10.267L19.0134 9.733L17.2991 14.233L18.7009 14.767ZM19.7143 10.75H20.5V9.25H19.7143V10.75ZM19.75 10V16H21.25V10H19.75Z" fill="black"/>
</svg>
