<svg width="24" height="24" viewBox="0 0 24 24" fill="none" xmlns="http://www.w3.org/2000/svg">
<path d="M19.7352 9.15391H19.2549V6.8367C19.2549 6.82225 19.2526 6.80769 19.2507 6.79306C19.25 6.70104 19.2207 6.61067 19.1577 6.53906L15.3016 2.13413C15.3004 2.13301 15.2993 2.13261 15.2985 2.13137C15.2755 2.1057 15.2487 2.08435 15.2204 2.06587C15.212 2.06024 15.2036 2.05552 15.1948 2.05065C15.1702 2.03725 15.1442 2.02614 15.1174 2.01812C15.1101 2.01609 15.1036 2.01311 15.0963 2.01122C15.0672 2.00432 15.037 2 15.0063 2H5.52949C5.09674 2 4.74518 2.35196 4.74518 2.78435V9.15373H4.26504C3.64598 9.15373 3.14402 9.65547 3.14402 10.2747V16.1043C3.14402 16.7231 3.64598 17.2252 4.26504 17.2252H4.74522V21.2157C4.74522 21.648 5.09678 22 5.52953 22H18.4707C18.903 22 19.255 21.648 19.255 21.2157V17.2252H19.7352C20.3541 17.2252 20.8562 16.7231 20.8562 16.1043V10.2749C20.8561 9.65569 20.3541 9.15391 19.7352 9.15391ZM5.52949 2.78449H14.6142V6.7973C14.6142 7.01397 14.79 7.18946 15.0063 7.18946H18.4706V9.15416H5.52949V2.78449ZM14.88 14.9029V16.015H11.2221V10.1591H12.5512V14.9029H14.88ZM5.17383 15.989V10.2371C5.66028 10.1591 6.29438 10.1153 6.9638 10.1153C8.07603 10.1153 8.79695 10.3153 9.36165 10.741C9.97007 11.1928 10.3523 11.914 10.3523 12.9478C10.3523 14.0688 9.94404 14.842 9.37937 15.3199C8.7623 15.8323 7.82385 16.0757 6.67676 16.0757C5.99031 16.0757 5.50386 16.0322 5.17383 15.989ZM18.4707 21.0033H5.52949V17.2252H18.4706L18.4707 21.0033ZM19.3203 16.015H15.6624V10.1591H16.9918V14.9029H19.3203V16.015Z" fill="black"/>
<path d="M8.94493 12.9915C8.95375 11.7749 8.24141 11.1322 7.10278 11.1322C6.80772 11.1322 6.61632 11.1581 6.50365 11.1842V15.0163C6.61636 15.0419 6.79871 15.0419 6.96418 15.0419C8.16323 15.0507 8.94493 14.3905 8.94493 12.9915Z" fill="black"/>
</svg>
