<svg xmlns="http://www.w3.org/2000/svg" width="20" height="20" fill="none" viewBox="0 0 20 20">
  <path fill="#A0A0A0" d="M17.735 7.154h-.48V4.837c0-.015-.002-.03-.004-.044a.385.385 0 00-.093-.254L13.302.134c-.002-.001-.003-.001-.003-.003a.385.385 0 00-.182-.113l-.02-.007a.392.392 0 00-.09-.011H3.53a.785.785 0 00-.785.784v6.37h-.48c-.619 0-1.121.501-1.121 1.12v5.83c0 .62.502 1.121 1.121 1.121h.48v3.99c0 .433.352.785.785.785h12.94a.785.785 0 00.785-.784v-3.99h.48c.62 0 1.121-.503 1.121-1.122v-5.83c0-.618-.502-1.12-1.12-1.12zM3.53.784h9.084v4.013c0 .217.176.392.392.392h3.465v1.965H3.53V.784zm9.35 12.119v1.112H9.222V8.159h1.33v4.744h2.328zm-9.706 1.086V8.237c.486-.078 1.12-.122 1.79-.122 1.112 0 1.833.2 2.398.626.608.452.99 1.173.99 2.207 0 1.12-.408 1.894-.973 2.372-.617.512-1.555.756-2.702.756-.687 0-1.173-.044-1.503-.087zm13.297 5.014H3.53v-3.778h12.94v3.778zm.85-4.988h-3.659V8.159h1.33v4.744h2.328v1.112z"/>
  <path fill="#A0A0A0" d="M6.945 10.992c.009-1.217-.703-1.86-1.842-1.86-.295 0-.486.026-.6.052v3.832c.114.026.296.026.461.026 1.2.009 1.981-.652 1.981-2.05z"/>
</svg>
