<svg width="24" height="24" viewBox="0 0 24 24" fill="none" xmlns="http://www.w3.org/2000/svg">
<path d="M19 20V20.75H19.7538L19.75 19.9962L19 20ZM5 20H4.25V20.75H5V20ZM5 4V3.25H4.25V4H5ZM16 4L16.5303 3.46967L16.3107 3.25H16V4ZM19 7L19.75 7V6.68934L19.5303 6.46967L19 7ZM4 16H3.25V16.75H4V16ZM4 10L4 9.25L3.25 9.25V10H4ZM5.9 10V9.25H5.9L5.9 10ZM17 11.6438H17.75V11.6438L17 11.6438ZM20.5 13.2877H21.25V12.5377H20.5V13.2877ZM9.75 10V9.25C9.33579 9.25 9 9.58579 9 10H9.75ZM9 16C9 16.4142 9.33579 16.75 9.75 16.75C10.1642 16.75 10.5 16.4142 10.5 16H9ZM10.4643 10L11.1614 9.72337C11.048 9.43761 10.7717 9.25 10.4643 9.25V10ZM12.25 14.5L11.5529 14.7766C11.6663 15.0624 11.9426 15.25 12.25 15.25C12.5574 15.25 12.8337 15.0624 12.9471 14.7766L12.25 14.5ZM14.0357 10V9.25C13.7283 9.25 13.452 9.43761 13.3386 9.72337L14.0357 10ZM14.75 10H15.5C15.5 9.58579 15.1642 9.25 14.75 9.25V10ZM14 16C14 16.4142 14.3358 16.75 14.75 16.75C15.1642 16.75 15.5 16.4142 15.5 16H14ZM19 19.25H5V20.75H19V19.25ZM5 4.75H16V3.25H5V4.75ZM15.4697 4.53033L18.4697 7.53033L19.5303 6.46967L16.5303 3.46967L15.4697 4.53033ZM5.75 8V4H4.25V8H5.75ZM5.75 20V18H4.25V20H5.75ZM18.25 7L18.25 8L19.75 8L19.75 7L18.25 7ZM18.2398 18.0038L18.25 20.0038L19.75 19.9962L19.7398 17.9962L18.2398 18.0038ZM4.75 16V10H3.25V16H4.75ZM4 10.75L5.9 10.75L5.9 9.25L4 9.25L4 10.75ZM5.9 10.75C6.05601 10.75 6.29973 10.7997 6.4804 10.9216C6.62097 11.0165 6.75 11.1655 6.75 11.5H8.25C8.25 10.6345 7.8457 10.0335 7.31961 9.67836C6.83361 9.35032 6.27733 9.25 5.9 9.25V10.75ZM6.75 11.5V14.5H8.25V11.5H6.75ZM6.75 14.5C6.75 14.6198 6.70515 14.8245 6.58518 14.9807C6.49217 15.1018 6.31534 15.25 5.9 15.25V16.75C6.76467 16.75 7.38783 16.3982 7.77482 15.8943C8.13485 15.4255 8.25 14.8802 8.25 14.5H6.75ZM5.9 15.25H4V16.75H5.9V15.25ZM18.6989 9.25C17.7966 9.25 17.1587 9.66372 16.7673 10.1811C16.4016 10.6646 16.25 11.2358 16.25 11.6439L17.75 11.6438C17.75 11.5496 17.8026 11.2989 17.9636 11.086C18.099 10.9071 18.3104 10.75 18.6989 10.75V9.25ZM16.25 11.6438V14.2341H17.75V11.6438H16.25ZM16.25 14.2341C16.25 15.6153 17.2479 16.75 18.6989 16.75V15.25C18.1497 15.25 17.75 14.8622 17.75 14.2341H16.25ZM21.25 14.3836V13.2877H19.75V14.3836H21.25ZM20.5 12.5377H18.9898V14.0377H20.5V12.5377ZM21.25 11.6438C21.25 10.9196 20.9607 10.2996 20.4662 9.87019C19.9829 9.45044 19.3487 9.25 18.6989 9.25V10.75C19.0491 10.75 19.3155 10.8575 19.4827 11.0028C19.6388 11.1383 19.75 11.3403 19.75 11.6438H21.25ZM18.6989 16.75C19.3191 16.75 19.9548 16.5894 20.4505 16.1824C20.9669 15.7583 21.25 15.1321 21.25 14.3836H19.75C19.75 14.731 19.6326 14.913 19.4985 15.0231C19.3436 15.1504 19.0787 15.25 18.6989 15.25V16.75ZM9 10V16H10.5V10H9ZM9.75 10.75H10.4643V9.25H9.75V10.75ZM9.76717 10.2766L11.5529 14.7766L12.9471 14.2234L11.1614 9.72337L9.76717 10.2766ZM12.9471 14.7766L14.7328 10.2766L13.3386 9.72337L11.5529 14.2234L12.9471 14.7766ZM14.0357 10.75H14.75V9.25H14.0357V10.75ZM14 10V16H15.5V10H14Z" fill="black"/>
</svg>
