<svg width="24" height="24" viewBox="0 0 24 24" fill="none" xmlns="http://www.w3.org/2000/svg">
<path d="M19 20V20.75H19.75V20H19ZM5 20H4.25V20.75H5V20ZM5 4V3.25H4.25V4H5ZM16 4L16.5303 3.46967L16.3107 3.25H16V4ZM19 7L19.75 7V6.68934L19.5303 6.46967L19 7ZM4 16H3.25V16.75H4V16ZM4 10L4 9.25L3.25 9.25V10H4ZM5.9 10V9.25H5.9L5.9 10ZM17 10V9.25C16.5858 9.25 16.25 9.58579 16.25 10H17ZM16.25 16C16.25 16.4142 16.5858 16.75 17 16.75C17.4142 16.75 17.75 16.4142 17.75 16H16.25ZM9.75 10V9.25C9.33579 9.25 9 9.58579 9 10H9.75ZM9 16C9 16.4142 9.33579 16.75 9.75 16.75C10.1642 16.75 10.5 16.4142 10.5 16H9ZM10.4643 10L11.1614 9.72337C11.048 9.43761 10.7717 9.25 10.4643 9.25V10ZM12.25 14.5L11.5529 14.7766C11.6663 15.0624 11.9426 15.25 12.25 15.25C12.5574 15.25 12.8337 15.0624 12.9471 14.7766L12.25 14.5ZM14.0357 10V9.25C13.7283 9.25 13.452 9.43761 13.3386 9.72337L14.0357 10ZM14.75 10H15.5C15.5 9.58579 15.1642 9.25 14.75 9.25V10ZM14 16C14 16.4142 14.3358 16.75 14.75 16.75C15.1642 16.75 15.5 16.4142 15.5 16H14ZM19 19.25H5V20.75H19V19.25ZM5 4.75H16V3.25H5V4.75ZM15.4697 4.53033L18.4697 7.53033L19.5303 6.46967L16.5303 3.46967L15.4697 4.53033ZM5.75 8V4H4.25V8H5.75ZM5.75 20V18H4.25V20H5.75ZM18.25 7L18.25 8L19.75 8L19.75 7L18.25 7ZM18.25 18V20H19.75V18H18.25ZM4.75 16V10H3.25V16H4.75ZM4 10.75L5.9 10.75L5.9 9.25L4 9.25L4 10.75ZM5.9 10.75C6.05601 10.75 6.29973 10.7997 6.4804 10.9216C6.62097 11.0165 6.75 11.1655 6.75 11.5H8.25C8.25 10.6345 7.8457 10.0335 7.31961 9.67836C6.83361 9.35032 6.27733 9.25 5.9 9.25V10.75ZM6.75 11.5V14.5H8.25V11.5H6.75ZM6.75 14.5C6.75 14.6198 6.70515 14.8245 6.58518 14.9807C6.49217 15.1018 6.31534 15.25 5.9 15.25V16.75C6.76467 16.75 7.38783 16.3982 7.77482 15.8943C8.13485 15.4255 8.25 14.8802 8.25 14.5H6.75ZM5.9 15.25H4V16.75H5.9V15.25ZM17 14.3525H18.5V12.8525H17V14.3525ZM18.5 14.3525C18.8543 14.3525 19.3918 14.2637 19.8642 13.9369C20.3788 13.5809 20.75 12.9844 20.75 12.1378H19.25C19.25 12.3308 19.2106 12.4505 19.1718 12.5244C19.1328 12.5987 19.0792 12.6561 19.0108 12.7034C18.8582 12.8089 18.6457 12.8525 18.5 12.8525V14.3525ZM20.75 12.1378V11.5332H19.25V12.1378H20.75ZM20.75 11.5332C20.75 10.9176 20.5958 10.3162 20.1639 9.86997C19.7278 9.41939 19.1281 9.25 18.5 9.25V10.75C18.8719 10.75 19.0222 10.8472 19.0861 10.9132C19.1542 10.9836 19.25 11.1488 19.25 11.5332H20.75ZM18.5 9.25H17V10.75H18.5V9.25ZM16.25 13.6025V16H17.75V13.6025H16.25ZM16.25 10V13.6025H17.75V10H16.25ZM9 10V16H10.5V10H9ZM9.75 10.75H10.4643V9.25H9.75V10.75ZM9.76717 10.2766L11.5529 14.7766L12.9471 14.2234L11.1614 9.72337L9.76717 10.2766ZM12.9471 14.7766L14.7328 10.2766L13.3386 9.72337L11.5529 14.2234L12.9471 14.7766ZM14.0357 10.75H14.75V9.25H14.0357V10.75ZM14 10V16H15.5V10H14Z" fill="black"/>
</svg>
