<svg width="24" height="24" viewBox="0 0 24 24" fill="none" xmlns="http://www.w3.org/2000/svg">
<path d="M19.7348 9.15401H19.2546V6.83648C19.2546 6.82204 19.2523 6.80748 19.2504 6.79286C19.2496 6.70082 19.2203 6.61047 19.1573 6.53887L15.3012 2.13413L15.2981 2.13139C15.2752 2.10571 15.2484 2.08433 15.22 2.06588C15.2116 2.06026 15.2032 2.05555 15.1943 2.05063C15.1698 2.03728 15.1438 2.02615 15.117 2.01809C15.1097 2.01609 15.1032 2.0132 15.096 2.01123C15.0668 2.0043 15.0365 2 15.006 2H5.52907C5.09631 2 4.74478 2.35197 4.74478 2.78433V9.15379H4.26463C3.64554 9.15379 3.14359 9.65546 3.14359 10.2747V16.1042C3.14359 16.7229 3.64554 17.2252 4.26463 17.2252H4.74478V21.2157C4.74478 21.6481 5.09631 22 5.52907 22H18.4703C18.9026 22 19.2546 21.6481 19.2546 21.2157V17.2252H19.7348C20.3536 17.2252 20.8557 16.7231 20.8557 16.1042V10.2749C20.8557 9.6555 20.3536 9.15401 19.7348 9.15401ZM5.52907 2.78433H14.6138V6.79701C14.6138 7.0138 14.7895 7.18918 15.0059 7.18918H18.4703V9.15398H5.52907V2.78433ZM14.9395 12.8709C14.9395 14.6538 13.8585 15.7345 12.2691 15.7345C10.6557 15.7345 9.71181 14.5165 9.71181 12.9678C9.71181 11.3381 10.7524 10.12 12.3577 10.12C14.0274 10.12 14.9395 11.3702 14.9395 12.8709ZM4.34678 15.6217V10.2816C4.79851 10.2089 5.38728 10.1685 6.00874 10.1685C7.04122 10.1685 7.71065 10.3541 8.23504 10.7492C8.79971 11.1688 9.15485 11.8385 9.15485 12.7983C9.15485 13.839 8.77578 14.5568 8.25153 15.0005C7.6787 15.4765 6.80737 15.7022 5.74242 15.7022C5.10477 15.7023 4.65322 15.6619 4.34678 15.6217ZM18.4703 21.0031H5.52907V17.2252H18.4703V21.0031ZM18.5296 14.7103C18.9007 14.7103 19.3122 14.6292 19.554 14.5328L19.7398 15.4927C19.5138 15.606 19.0056 15.7264 18.3443 15.7264C16.4647 15.7264 15.4966 14.5569 15.4966 13.008C15.4966 11.153 16.8195 10.12 18.4649 10.12C19.1021 10.12 19.5866 10.2491 19.8045 10.3622L19.5543 11.3381C19.3043 11.2333 18.9574 11.1363 18.5216 11.1363C17.5456 11.1363 16.7871 11.7253 16.7871 12.9352C16.787 14.0243 17.4324 14.7103 18.5296 14.7103Z" fill="black"/>
<path d="M7.84737 12.839C7.85543 11.7094 7.19381 11.1125 6.13732 11.1125C5.86302 11.1125 5.68515 11.1366 5.5805 11.161V14.7186C5.68512 14.7429 5.85481 14.7429 6.00816 14.7429C7.1213 14.7508 7.84737 14.1376 7.84737 12.839Z" fill="black"/>
<path d="M11.0108 12.943C11.0108 14.0082 11.511 14.7583 12.3338 14.7583C13.1648 14.7583 13.6406 13.9675 13.6406 12.9109C13.6406 11.9345 13.1728 11.0959 12.3257 11.0959C11.4951 11.0961 11.0108 11.8866 11.0108 12.943Z" fill="black"/>
</svg>
