<svg width="24" height="24" viewBox="0 0 24 24" fill="none" xmlns="http://www.w3.org/2000/svg">
<path d="M19.7348 9.1539H19.2545V6.8367C19.2545 6.82215 19.2523 6.8077 19.2504 6.79293C19.2496 6.70093 19.2203 6.61054 19.1573 6.53905L15.3012 2.13405C15.3 2.13292 15.2989 2.13252 15.2981 2.13139C15.2752 2.10571 15.2484 2.08426 15.22 2.06588C15.2116 2.06015 15.2032 2.05545 15.1944 2.05059C15.1699 2.03728 15.1438 2.02608 15.117 2.01802C15.1097 2.01612 15.1032 2.01313 15.096 2.01116C15.0668 2.0043 15.0366 2 15.006 2H5.52906C5.09634 2 4.74477 2.35197 4.74477 2.78433V9.15368H4.26459C3.64554 9.15368 3.14358 9.65546 3.14358 10.2746V16.104C3.14358 16.7229 3.64554 17.2252 4.26459 17.2252H4.74477V21.2157C4.74477 21.6481 5.09634 22 5.52906 22H18.4702C18.9026 22 19.2545 21.6481 19.2545 21.2157V17.2252H19.7348C20.3536 17.2252 20.8557 16.7231 20.8557 16.1042V10.2748C20.8557 9.65568 20.3537 9.1539 19.7348 9.1539ZM5.52906 2.78451H14.6138V6.7972C14.6138 7.01387 14.7895 7.18936 15.006 7.18936H18.4703V9.15405H5.52906V2.78451ZM15.4067 14.2507C15.6928 14.2507 16.0103 14.1886 16.197 14.1136L16.3398 14.8541C16.1659 14.9408 15.7741 15.0346 15.264 15.0346C13.8141 15.0346 13.0679 14.1325 13.0679 12.9382C13.0679 11.5074 14.0882 10.7111 15.3573 10.7111C15.8485 10.7111 16.222 10.8109 16.39 10.8978L16.1972 11.6507C16.0043 11.5695 15.737 11.4952 15.4008 11.4952C14.6479 11.4952 14.0635 11.9491 14.0635 12.8823C14.0633 13.7214 14.5609 14.2507 15.4067 14.2507ZM12.6381 12.8326C12.6381 14.2072 11.8044 15.0408 10.5792 15.0408C9.33482 15.0408 8.60699 14.1012 8.60699 12.9071C8.60699 11.6505 9.4093 10.7109 10.6475 10.7109C11.9356 10.7109 12.6381 11.6754 12.6381 12.8326ZM4.46988 14.9539V10.8355C4.81831 10.7796 5.27234 10.7489 5.75132 10.7489C6.54761 10.7489 7.06379 10.8917 7.46774 11.1966C7.90346 11.5199 8.1774 12.0364 8.1774 12.7765C8.1774 13.5788 7.88496 14.1328 7.48051 14.4747C7.03874 14.8416 6.36694 15.0161 5.54559 15.0161C5.05457 15.0159 4.70618 14.9846 4.46988 14.9539ZM18.4703 21.0033H5.52906V17.2252H18.4702L18.4703 21.0033ZM19.1893 14.9722L18.8096 14.2133C18.6541 13.9211 18.5545 13.703 18.4364 13.4606H18.4239C18.3368 13.7034 18.2313 13.9211 18.1007 14.2133L17.7522 14.9722H16.6698L17.8828 12.8508L16.7136 10.7794H17.8024L18.1692 11.5448C18.2937 11.7994 18.3868 12.0049 18.4864 12.2412H18.4986C18.5981 11.9738 18.6793 11.7872 18.7847 11.5448L19.1393 10.7794H20.222L19.04 12.8259L20.284 14.9722H19.1893Z" fill="black"/>
<path d="M7.16925 12.8071C7.17527 11.9364 6.66536 11.4759 5.85061 11.4759C5.63878 11.4759 5.50218 11.4946 5.4212 11.5134V14.2564C5.5024 14.275 5.63298 14.275 5.75121 14.275C6.60966 14.2815 7.16925 13.809 7.16925 12.8071Z" fill="black"/>
<path d="M9.60877 12.8878C9.60877 13.7091 9.99452 14.2875 10.629 14.2875C11.2698 14.2875 11.6364 13.6782 11.6364 12.8632C11.6364 12.1103 11.2758 11.4633 10.6223 11.4633C9.98168 11.4635 9.60877 12.0732 9.60877 12.8878Z" fill="black"/>
</svg>
