<svg width="24" height="24" viewBox="0 0 24 24" fill="none" xmlns="http://www.w3.org/2000/svg">
<path d="M19 20V20.75H19.75V20H19ZM5 20H4.25V20.75H5V20ZM5 4V3.25H4.25V4H5ZM16 4L16.5303 3.46967L16.3107 3.25H16V4ZM19 7H19.75V6.68934L19.5303 6.46967L19 7ZM2 16H1.25V16.75H2V16ZM2 10L2 9.25L1.25 9.25V10H2ZM3.9 10V9.25H3.9L3.9 10ZM19.6708 9.66459C19.4856 9.29411 19.0351 9.14394 18.6646 9.32918C18.2941 9.51442 18.1439 9.96493 18.3292 10.3354L19.6708 9.66459ZM21.3292 16.3354C21.5144 16.7059 21.9649 16.8561 22.3354 16.6708C22.7059 16.4856 22.8561 16.0351 22.6708 15.6646L21.3292 16.3354ZM22.6708 10.3354C22.8561 9.96493 22.7059 9.51442 22.3354 9.32918C21.9649 9.14394 21.5144 9.29411 21.3292 9.66459L22.6708 10.3354ZM18.3292 15.6646C18.1439 16.0351 18.2941 16.4856 18.6646 16.6708C19.0351 16.8561 19.4856 16.7059 19.6708 16.3354L18.3292 15.6646ZM19 19.25H5V20.75H19V19.25ZM5 4.75H16V3.25H5V4.75ZM15.4697 4.53033L18.4697 7.53033L19.5303 6.46967L16.5303 3.46967L15.4697 4.53033ZM5.75 8V4H4.25V8H5.75ZM5.75 20V18H4.25V20H5.75ZM18.25 7V8H19.75V7H18.25ZM18.25 18V20H19.75V18H18.25ZM2.75 16V10H1.25V16H2.75ZM2 10.75L3.9 10.75L3.9 9.25L2 9.25L2 10.75ZM3.9 10.75C4.05601 10.75 4.29973 10.7997 4.4804 10.9216C4.62097 11.0165 4.75 11.1655 4.75 11.5H6.25C6.25 10.6345 5.8457 10.0335 5.31961 9.67836C4.83361 9.35032 4.27733 9.25 3.9 9.25V10.75ZM4.75 11.5V14.5H6.25V11.5H4.75ZM4.75 14.5C4.75 14.6198 4.70515 14.8245 4.58518 14.9807C4.49217 15.1018 4.31534 15.25 3.9 15.25V16.75C4.76467 16.75 5.38783 16.3982 5.77482 15.8943C6.13485 15.4255 6.25 14.8802 6.25 14.5H4.75ZM3.9 15.25H2V16.75H3.9V15.25ZM11 12.312V13.688H12.5V12.312H11ZM8.5 13.688V12.312H7V13.688H8.5ZM9.75 15.25C9.09692 15.25 8.5 14.6771 8.5 13.688H7C7 15.2526 8.0364 16.75 9.75 16.75V15.25ZM11 13.688C11 14.6771 10.4031 15.25 9.75 15.25V16.75C11.4636 16.75 12.5 15.2526 12.5 13.688H11ZM9.75 10.75C10.4031 10.75 11 11.3229 11 12.312H12.5C12.5 10.7474 11.4636 9.25 9.75 9.25V10.75ZM9.75 9.25C8.0364 9.25 7 10.7474 7 12.312H8.5C8.5 11.3229 9.09692 10.75 9.75 10.75V9.25ZM15.5 9.25C14.376 9.25 13.25 10.174 13.25 11.5H14.75C14.75 11.0806 15.124 10.75 15.5 10.75V9.25ZM13.25 11.5V14.5H14.75V11.5H13.25ZM13.25 14.5C13.25 15.2035 13.5213 15.7863 13.9705 16.1856C14.4059 16.5726 14.9652 16.75 15.5 16.75V15.25C15.2848 15.25 15.0941 15.1774 14.967 15.0644C14.8537 14.9637 14.75 14.7965 14.75 14.5H13.25ZM17.75 11.6364C17.75 10.9091 17.4947 10.2987 17.0534 9.87067C16.6208 9.45119 16.0534 9.25 15.5 9.25V10.75C15.6966 10.75 15.8792 10.8215 16.0091 10.9475C16.1303 11.065 16.25 11.2727 16.25 11.6364H17.75ZM15.5 16.75C16.0534 16.75 16.6208 16.5488 17.0534 16.1293C17.4947 15.7013 17.75 15.0909 17.75 14.3636H16.25C16.25 14.7273 16.1303 14.935 16.0091 15.0525C15.8792 15.1785 15.6966 15.25 15.5 15.25V16.75ZM18.3292 10.3354L19.8292 13.3354L21.1708 12.6646L19.6708 9.66459L18.3292 10.3354ZM19.8292 13.3354L21.3292 16.3354L22.6708 15.6646L21.1708 12.6646L19.8292 13.3354ZM21.3292 9.66459L19.8292 12.6646L21.1708 13.3354L22.6708 10.3354L21.3292 9.66459ZM19.8292 12.6646L18.3292 15.6646L19.6708 16.3354L21.1708 13.3354L19.8292 12.6646Z" fill="black"/>
</svg>
