<svg width="24" height="24" viewBox="0 0 24 24" fill="none" xmlns="http://www.w3.org/2000/svg">
<path d="M12.1181 11.2284C11.8156 11.2284 11.644 11.2529 11.554 11.2694V12.7902H12.0446C12.6659 12.7902 13.0339 12.4796 13.0339 11.997C13.0339 11.4899 12.6908 11.2368 12.1181 11.2284Z" fill="black"/>
<path d="M19.7352 9.15373H19.2549V6.83648C19.2549 6.82192 19.2526 6.80747 19.2507 6.79273C19.25 6.70083 19.2205 6.61034 19.1577 6.53881L15.3014 2.13413C15.3004 2.1329 15.2993 2.1325 15.2985 2.13137C15.2755 2.1057 15.2487 2.08424 15.2204 2.06587C15.212 2.06024 15.2036 2.05552 15.1948 2.05054C15.1702 2.03725 15.1442 2.02603 15.1174 2.01801C15.1101 2.01609 15.1036 2.01311 15.0963 2.01118C15.0672 2.00432 15.037 2 15.0063 2H5.52949C5.09674 2 4.74518 2.35196 4.74518 2.78435V9.15373H4.26498C3.64602 9.15373 3.14403 9.65547 3.14403 10.2747V16.1043C3.14403 16.7229 3.64599 17.2252 4.26498 17.2252H4.74522V21.2157C4.74522 21.648 5.09678 22 5.52953 22H18.4707C18.903 22 19.255 21.648 19.255 21.2157V17.2252H19.7352C20.3541 17.2252 20.8562 16.7229 20.8562 16.1043V10.2747C20.8561 9.65547 20.3541 9.15373 19.7352 9.15373ZM5.52949 2.78435H14.6142V6.79705C14.6142 7.01372 14.79 7.18921 15.0063 7.18921H18.4706V9.15391H5.52949V2.78435ZM14.0317 14.3031C14.2033 14.9247 14.3749 15.6443 14.4813 15.8568H13.2056C13.1156 15.7014 12.9851 15.2518 12.8216 14.5731C12.6745 13.8861 12.4371 13.698 11.9303 13.69H11.5541V15.8568H10.3195V10.4192C10.72 10.3537 11.317 10.3047 11.9793 10.3047C12.7971 10.3047 13.3692 10.4273 13.7617 10.7386C14.0888 11.0002 14.2688 11.3843 14.2688 11.8913C14.2688 12.5946 13.7702 13.0771 13.2957 13.2486V13.2731C13.6802 13.4284 13.8927 13.7961 14.0317 14.3031ZM4.62754 15.8323V10.4192C5.08538 10.3457 5.68222 10.3047 6.31181 10.3047C7.35854 10.3047 8.03715 10.4928 8.5687 10.8937C9.14103 11.3188 9.50065 11.9974 9.50065 12.97C9.50065 14.0256 9.11652 14.753 8.58497 15.2029C8.00458 15.6855 7.12121 15.9141 6.04198 15.9141C5.39613 15.9139 4.9381 15.8729 4.62754 15.8323ZM18.4707 21.0031H5.52949V17.2252H18.4706L18.4707 21.0031ZM17.8753 15.8568H16.4201L14.6536 10.3457H16.0193L16.6899 12.6759C16.8777 13.3306 17.0495 13.9598 17.1805 14.6469H17.205C17.344 13.9843 17.5158 13.3306 17.7036 12.7005L18.4067 10.3457H19.7313L17.8753 15.8568Z" fill="black"/>
<path d="M8.17683 13.011C8.18508 11.8662 7.51449 11.2611 6.44325 11.2611C6.16522 11.2611 5.98541 11.2856 5.87913 11.3101V14.9159C5.98541 14.9404 6.15716 14.9404 6.31246 14.9404C7.44096 14.9488 8.17683 14.3272 8.17683 13.011Z" fill="black"/>
</svg>
