<svg width="24" height="24" viewBox="0 0 24 24" fill="none" xmlns="http://www.w3.org/2000/svg">
<path d="M19 20V20.75H19.75V20H19ZM5 20H4.25V20.75H5V20ZM5 4V3.25H4.25V4H5ZM16 4L16.5303 3.46967L16.3107 3.25H16V4ZM19 7L19.75 7V6.68934L19.5303 6.46967L19 7ZM4 16H3.25V16.75H4V16ZM4 10L4 9.25L3.25 9.25V10H4ZM5.9 10V9.25H5.9L5.9 10ZM11.5 13.5L11.5483 12.7516L11.5242 12.75H11.5V13.5ZM10 10V9.25C9.58579 9.25 9.25 9.58579 9.25 10H10ZM9.25 16C9.25 16.4142 9.58579 16.75 10 16.75C10.4142 16.75 10.75 16.4142 10.75 16H9.25ZM12.3011 16.272C12.4513 16.658 12.886 16.8491 13.272 16.6989C13.658 16.5487 13.8492 16.1139 13.6989 15.7279L12.3011 16.272ZM15.7115 9.76283C15.5805 9.36987 15.1558 9.1575 14.7628 9.28849C14.3699 9.41947 14.1575 9.84421 14.2885 10.2372L15.7115 9.76283ZM17 16L16.2885 16.2372C16.3906 16.5434 16.6772 16.75 17 16.75C17.3228 16.75 17.6094 16.5434 17.7115 16.2372L17 16ZM19.7115 10.2372C19.8425 9.84421 19.6301 9.41947 19.2372 9.28849C18.8442 9.1575 18.4195 9.36987 18.2885 9.76283L19.7115 10.2372ZM19 19.25H5V20.75H19V19.25ZM5 4.75H16V3.25H5V4.75ZM15.4697 4.53033L18.4697 7.53033L19.5303 6.46967L16.5303 3.46967L15.4697 4.53033ZM5.75 8V4H4.25V8H5.75ZM5.75 20V18H4.25V20H5.75ZM18.25 7L18.25 8L19.75 8L19.75 7L18.25 7ZM18.25 18V20H19.75V18H18.25ZM4.75 16V10H3.25V16H4.75ZM4 10.75L5.9 10.75L5.9 9.25L4 9.25L4 10.75ZM5.9 10.75C6.05601 10.75 6.29973 10.7997 6.4804 10.9216C6.62097 11.0165 6.75 11.1655 6.75 11.5H8.25C8.25 10.6345 7.8457 10.0335 7.31961 9.67836C6.83361 9.35032 6.27733 9.25 5.9 9.25V10.75ZM6.75 11.5V14.5H8.25V11.5H6.75ZM6.75 14.5C6.75 14.6198 6.70515 14.8245 6.58518 14.9807C6.49217 15.1018 6.31534 15.25 5.9 15.25V16.75C6.76467 16.75 7.38783 16.3982 7.77482 15.8943C8.13485 15.4255 8.25 14.8802 8.25 14.5H6.75ZM5.9 15.25H4V16.75H5.9V15.25ZM10 14.25H11.5V12.75H10V14.25ZM11.5 13.5C11.4517 14.2484 11.452 14.2485 11.4524 14.2485C11.4525 14.2485 11.4528 14.2485 11.4531 14.2485C11.4536 14.2486 11.4541 14.2486 11.4546 14.2486C11.4557 14.2487 11.4568 14.2488 11.4581 14.2488C11.4606 14.249 11.4635 14.2491 11.4668 14.2493C11.4734 14.2496 11.4815 14.25 11.491 14.2503C11.5099 14.251 11.5346 14.2515 11.5643 14.2515C11.6234 14.2515 11.7036 14.2494 11.7984 14.2413C11.9834 14.2254 12.2458 14.185 12.5201 14.0791C12.7956 13.9728 13.1112 13.7891 13.3579 13.4716C13.6116 13.145 13.75 12.7311 13.75 12.2452H12.25C12.25 12.4351 12.2009 12.5159 12.1734 12.5513C12.1388 12.5958 12.0794 12.6414 11.9799 12.6798C11.8792 12.7187 11.7666 12.7385 11.6704 12.7467C11.6245 12.7507 11.5875 12.7515 11.5646 12.7515C11.5533 12.7515 11.5457 12.7513 11.5427 12.7512C11.5412 12.7512 11.5409 12.7511 11.5418 12.7512C11.5422 12.7512 11.543 12.7512 11.5441 12.7513C11.5446 12.7513 11.5452 12.7514 11.5459 12.7514C11.5463 12.7514 11.5467 12.7515 11.5471 12.7515C11.5473 12.7515 11.5476 12.7515 11.5477 12.7515C11.548 12.7515 11.5483 12.7516 11.5 13.5ZM13 12.2452C13.75 12.2452 13.75 12.2452 13.75 12.2452C13.75 12.2452 13.75 12.2452 13.75 12.2452C13.75 12.2452 13.75 12.2452 13.75 12.2451C13.75 12.2451 13.75 12.2451 13.75 12.2451C13.75 12.2451 13.75 12.2451 13.75 12.2451C13.75 12.2451 13.75 12.245 13.75 12.245C13.75 12.245 13.75 12.245 13.75 12.245C13.75 12.2449 13.75 12.2449 13.75 12.2449C13.75 12.2449 13.75 12.2448 13.75 12.2448C13.75 12.2448 13.75 12.2447 13.75 12.2447C13.75 12.2447 13.75 12.2446 13.75 12.2446C13.75 12.2446 13.75 12.2445 13.75 12.2445C13.75 12.2445 13.75 12.2444 13.75 12.2444C13.75 12.2443 13.75 12.2443 13.75 12.2442C13.75 12.2442 13.75 12.2442 13.75 12.2441C13.75 12.2441 13.75 12.244 13.75 12.244C13.75 12.2439 13.75 12.2438 13.75 12.2438C13.75 12.2437 13.75 12.2437 13.75 12.2436C13.75 12.2436 13.75 12.2435 13.75 12.2434C13.75 12.2434 13.75 12.2433 13.75 12.2433C13.75 12.2432 13.75 12.2431 13.75 12.2431C13.75 12.243 13.75 12.2429 13.75 12.2429C13.75 12.2428 13.75 12.2427 13.75 12.2426C13.75 12.2426 13.75 12.2425 13.75 12.2424C13.75 12.2423 13.75 12.2423 13.75 12.2422C13.75 12.2421 13.75 12.242 13.75 12.2419C13.75 12.2419 13.75 12.2418 13.75 12.2417C13.75 12.2416 13.75 12.2415 13.75 12.2414C13.75 12.2413 13.75 12.2412 13.75 12.2411C13.75 12.2411 13.75 12.241 13.75 12.2409C13.75 12.2408 13.75 12.2407 13.75 12.2406C13.75 12.2405 13.75 12.2404 13.75 12.2403C13.75 12.2402 13.75 12.2401 13.75 12.24C13.75 12.2399 13.75 12.2398 13.75 12.2396C13.75 12.2395 13.75 12.2394 13.75 12.2393C13.75 12.2392 13.75 12.2391 13.75 12.239C13.75 12.2389 13.75 12.2387 13.75 12.2386C13.75 12.2385 13.75 12.2384 13.75 12.2383C13.75 12.2382 13.75 12.238 13.75 12.2379C13.75 12.2378 13.75 12.2377 13.75 12.2375C13.75 12.2374 13.75 12.2373 13.75 12.2371C13.75 12.237 13.75 12.2369 13.75 12.2368C13.75 12.2366 13.75 12.2365 13.75 12.2363C13.75 12.2362 13.75 12.2361 13.75 12.2359C13.75 12.2358 13.75 12.2357 13.75 12.2355C13.75 12.2354 13.75 12.2352 13.75 12.2351C13.75 12.2349 13.75 12.2348 13.75 12.2346C13.75 12.2345 13.75 12.2343 13.75 12.2342C13.75 12.234 13.75 12.2339 13.75 12.2337C13.75 12.2336 13.75 12.2334 13.75 12.2333C13.75 12.2331 13.75 12.2329 13.75 12.2328C13.75 12.2326 13.75 12.2325 13.75 12.2323C13.75 12.2321 13.75 12.232 13.75 12.2318C13.75 12.2316 13.75 12.2315 13.75 12.2313C13.75 12.2311 13.75 12.231 13.75 12.2308C13.75 12.2306 13.75 12.2304 13.75 12.2303C13.75 12.2301 13.75 12.2299 13.75 12.2297C13.75 12.2295 13.75 12.2294 13.75 12.2292C13.75 12.229 13.75 12.2288 13.75 12.2286C13.75 12.2284 13.75 12.2283 13.75 12.2281C13.75 12.2279 13.75 12.2277 13.75 12.2275C13.75 12.2273 13.75 12.2271 13.75 12.2269C13.75 12.2267 13.75 12.2265 13.75 12.2263C13.75 12.2261 13.75 12.2259 13.75 12.2257C13.75 12.2255 13.75 12.2253 13.75 12.2251C13.75 12.2249 13.75 12.2247 13.75 12.2245C13.75 12.2243 13.75 12.2241 13.75 12.2239C13.75 12.2237 13.75 12.2235 13.75 12.2233C13.75 12.223 13.75 12.2228 13.75 12.2226C13.75 12.2224 13.75 12.2222 13.75 12.222C13.75 12.2217 13.75 12.2215 13.75 12.2213C13.75 12.2211 13.75 12.2209 13.75 12.2206C13.75 12.2204 13.75 12.2202 13.75 12.22C13.75 12.2197 13.75 12.2195 13.75 12.2193C13.75 12.219 13.75 12.2188 13.75 12.2186C13.75 12.2183 13.75 12.2181 13.75 12.2179C13.75 12.2176 13.75 12.2174 13.75 12.2172C13.75 12.2169 13.75 12.2167 13.75 12.2164C13.75 12.2162 13.75 12.2159 13.75 12.2157C13.75 12.2155 13.75 12.2152 13.75 12.215C13.75 12.2147 13.75 12.2145 13.75 12.2142C13.75 12.214 13.75 12.2137 13.75 12.2135C13.75 12.2132 13.75 12.2129 13.75 12.2127C13.75 12.2124 13.75 12.2122 13.75 12.2119C13.75 12.2116 13.75 12.2114 13.75 12.2111C13.75 12.2109 13.75 12.2106 13.75 12.2103C13.75 12.2101 13.75 12.2098 13.75 12.2095C13.75 12.2093 13.75 12.209 13.75 12.2087C13.75 12.2084 13.75 12.2082 13.75 12.2079C13.75 12.2076 13.75 12.2073 13.75 12.2071C13.75 12.2068 13.75 12.2065 13.75 12.2062C13.75 12.2059 13.75 12.2057 13.75 12.2054C13.75 12.2051 13.75 12.2048 13.75 12.2045C13.75 12.2042 13.75 12.2039 13.75 12.2036C13.75 12.2034 13.75 12.2031 13.75 12.2028C13.75 12.2025 13.75 12.2022 13.75 12.2019C13.75 12.2016 13.75 12.2013 13.75 12.201C13.75 12.2007 13.75 12.2004 13.75 12.2001C13.75 12.1998 13.75 12.1995 13.75 12.1992C13.75 12.1989 13.75 12.1986 13.75 12.1983C13.75 12.198 13.75 12.1977 13.75 12.1973C13.75 12.197 13.75 12.1967 13.75 12.1964C13.75 12.1961 13.75 12.1958 13.75 12.1955C13.75 12.1951 13.75 12.1948 13.75 12.1945C13.75 12.1942 13.75 12.1939 13.75 12.1936C13.75 12.1932 13.75 12.1929 13.75 12.1926C13.75 12.1923 13.75 12.1919 13.75 12.1916C13.75 12.1913 13.75 12.1909 13.75 12.1906C13.75 12.1903 13.75 12.1899 13.75 12.1896C13.75 12.1893 13.75 12.1889 13.75 12.1886C13.75 12.1883 13.75 12.1879 13.75 12.1876C13.75 12.1873 13.75 12.1869 13.75 12.1866C13.75 12.1862 13.75 12.1859 13.75 12.1855C13.75 12.1852 13.75 12.1849 13.75 12.1845C13.75 12.1842 13.75 12.1838 13.75 12.1835C13.75 12.1831 13.75 12.1828 13.75 12.1824C13.75 12.182 13.75 12.1817 13.75 12.1813C13.75 12.181 13.75 12.1806 13.75 12.1803C13.75 12.1799 13.75 12.1795 13.75 12.1792C13.75 12.1788 13.75 12.1784 13.75 12.1781C13.75 12.1777 13.75 12.1774 13.75 12.177C13.75 12.1766 13.75 12.1762 13.75 12.1759C13.75 12.1755 13.75 12.1751 13.75 12.1748C13.75 12.1744 13.75 12.174 13.75 12.1736C13.75 12.1733 13.75 12.1729 13.75 12.1725C13.75 12.1721 13.75 12.1717 13.75 12.1714C13.75 12.171 13.75 12.1706 13.75 12.1702C13.75 12.1698 13.75 12.1694 13.75 12.169C13.75 12.1687 13.75 12.1683 13.75 12.1679C13.75 12.1675 13.75 12.1671 13.75 12.1667C13.75 12.1663 13.75 12.1659 13.75 12.1655C13.75 12.1651 13.75 12.1647 13.75 12.1643C13.75 12.1639 13.75 12.1635 13.75 12.1631C13.75 12.1627 13.75 12.1623 13.75 12.1619C13.75 12.1615 13.75 12.1611 13.75 12.1607C13.75 12.1603 13.75 12.1599 13.75 12.1595C13.75 12.1591 13.75 12.1586 13.75 12.1582C13.75 12.1578 13.75 12.1574 13.75 12.157C13.75 12.1566 13.75 12.1561 13.75 12.1557C13.75 12.1553 13.75 12.1549 13.75 12.1545C13.75 12.154 13.75 12.1536 13.75 12.1532C13.75 12.1528 13.75 12.1523 13.75 12.1519C13.75 12.1515 13.75 12.1511 13.75 12.1506C13.75 12.1502 13.75 12.1498 13.75 12.1493C13.75 12.1489 13.75 12.1485 13.75 12.148C13.75 12.1476 13.75 12.1472 13.75 12.1467C13.75 12.1463 13.75 12.1459 13.75 12.1454C13.75 12.145 13.75 12.1445 13.75 12.1441C13.75 12.1436 13.75 12.1432 13.75 12.1427C13.75 12.1423 13.75 12.1419 13.75 12.1414C13.75 12.141 13.75 12.1405 13.75 12.14C13.75 12.1396 13.75 12.1391 13.75 12.1387C13.75 12.1382 13.75 12.1378 13.75 12.1373C13.75 12.1369 13.75 12.1364 13.75 12.1359C13.75 12.1355 13.75 12.135 13.75 12.1346C13.75 12.1341 13.75 12.1336 13.75 12.1332C13.75 12.1327 13.75 12.1322 13.75 12.1318C13.75 12.1313 13.75 12.1308 13.75 12.1304C13.75 12.1299 13.75 12.1294 13.75 12.1289C13.75 12.1285 13.75 12.128 13.75 12.1275C13.75 12.127 13.75 12.1266 13.75 12.1261C13.75 12.1256 13.75 12.1251 13.75 12.1246C13.75 12.1241 13.75 12.1237 13.75 12.1232C13.75 12.1227 13.75 12.1222 13.75 12.1217C13.75 12.1212 13.75 12.1207 13.75 12.1203C13.75 12.1198 13.75 12.1193 13.75 12.1188C13.75 12.1183 13.75 12.1178 13.75 12.1173C13.75 12.1168 13.75 12.1163 13.75 12.1158C13.75 12.1153 13.75 12.1148 13.75 12.1143C13.75 12.1138 13.75 12.1133 13.75 12.1128C13.75 12.1123 13.75 12.1118 13.75 12.1113C13.75 12.1108 13.75 12.1103 13.75 12.1098C13.75 12.1092 13.75 12.1087 13.75 12.1082C13.75 12.1077 13.75 12.1072 13.75 12.1067C13.75 12.1062 13.75 12.1056 13.75 12.1051C13.75 12.1046 13.75 12.1041 13.75 12.1036C13.75 12.1031 13.75 12.1025 13.75 12.102C13.75 12.1015 13.75 12.101 13.75 12.1004C13.75 12.0999 13.75 12.0994 13.75 12.0989C13.75 12.0983 13.75 12.0978 13.75 12.0973C13.75 12.0967 13.75 12.0962 13.75 12.0957C13.75 12.0951 13.75 12.0946 13.75 12.0941C13.75 12.0935 13.75 12.093 13.75 12.0925C13.75 12.0919 13.75 12.0914 13.75 12.0908C13.75 12.0903 13.75 12.0898 13.75 12.0892C13.75 12.0887 13.75 12.0881 13.75 12.0876C13.75 12.087 13.75 12.0865 13.75 12.0859C13.75 12.0854 13.75 12.0848 13.75 12.0843C13.75 12.0837 13.75 12.0832 13.75 12.0826C13.75 12.0821 13.75 12.0815 13.75 12.0809C13.75 12.0804 13.75 12.0798 13.75 12.0793C13.75 12.0787 13.75 12.0782 13.75 12.0776C13.75 12.077 13.75 12.0765 13.75 12.0759C13.75 12.0753 13.75 12.0748 13.75 12.0742C13.75 12.0736 13.75 12.0731 13.75 12.0725C13.75 12.0719 13.75 12.0713 13.75 12.0708C13.75 12.0702 13.75 12.0696 13.75 12.0691C13.75 12.0685 13.75 12.0679 13.75 12.0673C13.75 12.0667 13.75 12.0662 13.75 12.0656C13.75 12.065 13.75 12.0644 13.75 12.0638C13.75 12.0633 13.75 12.0627 13.75 12.0621C13.75 12.0615 13.75 12.0609 13.75 12.0603C13.75 12.0597 13.75 12.0591 13.75 12.0585C13.75 12.058 13.75 12.0574 13.75 12.0568C13.75 12.0562 13.75 12.0556 13.75 12.055C13.75 12.0544 13.75 12.0538 13.75 12.0532C13.75 12.0526 13.75 12.052 13.75 12.0514C13.75 12.0508 13.75 12.0502 13.75 12.0496C13.75 12.049 13.75 12.0484 13.75 12.0478C13.75 12.0472 13.75 12.0466 13.75 12.0459C13.75 12.0453 13.75 12.0447 13.75 12.0441C13.75 12.0435 13.75 12.0429 13.75 12.0423C13.75 12.0417 13.75 12.041 13.75 12.0404C13.75 12.0398 13.75 12.0392 13.75 12.0386C13.75 12.0379 13.75 12.0373 13.75 12.0367C13.75 12.0361 13.75 12.0355 13.75 12.0348C13.75 12.0342 13.75 12.0336 13.75 12.033C13.75 12.0323 13.75 12.0317 13.75 12.0311C13.75 12.0304 13.75 12.0298 13.75 12.0292C13.75 12.0285 13.75 12.0279 13.75 12.0273C13.75 12.0266 13.75 12.026 13.75 12.0254C13.75 12.0247 13.75 12.0241 13.75 12.0235C13.75 12.0228 13.75 12.0222 13.75 12.0215C13.75 12.0209 13.75 12.0202 13.75 12.0196C13.75 12.019 13.75 12.0183 13.75 12.0177C13.75 12.017 13.75 12.0164 13.75 12.0157C13.75 12.0151 13.75 12.0144 13.75 12.0138C13.75 12.0131 13.75 12.0125 13.75 12.0118C13.75 12.0111 13.75 12.0105 13.75 12.0098C13.75 12.0092 13.75 12.0085 13.75 12.0079C13.75 12.0072 13.75 12.0065 13.75 12.0059C13.75 12.0052 13.75 12.0045 13.75 12.0039C13.75 12.0032 13.75 12.0025 13.75 12.0019C13.75 12.0012 13.75 12.0005 13.75 11.9999C13.75 11.9992 13.75 11.9985 13.75 11.9979C13.75 11.9972 13.75 11.9965 13.75 11.9958C13.75 11.9952 13.75 11.9945 13.75 11.9938C13.75 11.9931 13.75 11.9925 13.75 11.9918C13.75 11.9911 13.75 11.9904 13.75 11.9897C13.75 11.989 13.75 11.9884 13.75 11.9877C13.75 11.987 13.75 11.9863 13.75 11.9856C13.75 11.9849 13.75 11.9842 13.75 11.9836C13.75 11.9829 13.75 11.9822 13.75 11.9815C13.75 11.9808 13.75 11.9801 13.75 11.9794C13.75 11.9787 13.75 11.978 13.75 11.9773C13.75 11.9766 13.75 11.9759 13.75 11.9752C13.75 11.9745 13.75 11.9738 13.75 11.9731C13.75 11.9724 13.75 11.9717 13.75 11.971C13.75 11.9703 13.75 11.9696 13.75 11.9689C13.75 11.9682 13.75 11.9675 13.75 11.9668C13.75 11.966 13.75 11.9653 13.75 11.9646C13.75 11.9639 13.75 11.9632 13.75 11.9625C13.75 11.9618 13.75 11.9611 13.75 11.9603C13.75 11.9596 13.75 11.9589 13.75 11.9582C13.75 11.9575 13.75 11.9567 13.75 11.956C13.75 11.9553 13.75 11.9546 13.75 11.9539C13.75 11.9531 13.75 11.9524 13.75 11.9517C13.75 11.951 13.75 11.9502 13.75 11.9495C13.75 11.9488 13.75 11.948 13.75 11.9473C13.75 11.9466 13.75 11.9458 13.75 11.9451C13.75 11.9444 13.75 11.9436 13.75 11.9429C13.75 11.9422 13.75 11.9414 13.75 11.9407C13.75 11.9399 13.75 11.9392 13.75 11.9385C13.75 11.9377 13.75 11.937 13.75 11.9362C13.75 11.9355 13.75 11.9348 13.75 11.934C13.75 11.9333 13.75 11.9325 13.75 11.9318C13.75 11.931 13.75 11.9303 13.75 11.9295C13.75 11.9288 13.75 11.928 13.75 11.9273C13.75 11.9265 13.75 11.9258 13.75 11.925C13.75 11.9242 13.75 11.9235 13.75 11.9227C13.75 11.922 13.75 11.9212 13.75 11.9205C13.75 11.9197 13.75 11.9189 13.75 11.9182C13.75 11.9174 13.75 11.9166 13.75 11.9159C13.75 11.9151 13.75 11.9143 13.75 11.9136C13.75 11.9128 13.75 11.912 13.75 11.9113C13.75 11.9105 13.75 11.9097 13.75 11.909C13.75 11.9082 13.75 11.9074 13.75 11.9066C13.75 11.9059 13.75 11.9051 13.75 11.9043C13.75 11.9035 13.75 11.9028 13.75 11.902C13.75 11.9012 13.75 11.9004 13.75 11.8996C13.75 11.8989 13.75 11.8981 13.75 11.8973C13.75 11.8965 13.75 11.8957 13.75 11.8949C13.75 11.8941 13.75 11.8934 13.75 11.8926C13.75 11.8918 13.75 11.891 13.75 11.8902C13.75 11.8894 13.75 11.8886 13.75 11.8878C13.75 11.887 13.75 11.8862 13.75 11.8854C13.75 11.8846 13.75 11.8839 13.75 11.8831C13.75 11.8823 13.75 11.8815 13.75 11.8807C13.75 11.8799 13.75 11.8791 13.75 11.8783C13.75 11.8775 13.75 11.8766 13.75 11.8758C13.75 11.875 13.75 11.8742 13.75 11.8734C13.75 11.8726 13.75 11.8718 13.75 11.871C13.75 11.8702 13.75 11.8694 13.75 11.8686C13.75 11.8678 13.75 11.8669 13.75 11.8661C13.75 11.8653 13.75 11.8645 13.75 11.8637C13.75 11.8629 13.75 11.862 13.75 11.8612C13.75 11.8604 13.75 11.8596 13.75 11.8588C13.75 11.858 13.75 11.8571 13.75 11.8563C13.75 11.8555 13.75 11.8547 13.75 11.8538C13.75 11.853 13.75 11.8522 13.75 11.8514C13.75 11.8505 13.75 11.8497 13.75 11.8489C13.75 11.848 13.75 11.8472 13.75 11.8464C13.75 11.8455 13.75 11.8447 13.75 11.8439C13.75 11.843 13.75 11.8422 13.75 11.8414C13.75 11.8405 13.75 11.8397 13.75 11.8388C13.75 11.838 13.75 11.8372 13.75 11.8363C13.75 11.8355 13.75 11.8346 13.75 11.8338C13.75 11.833 13.75 11.8321 13.75 11.8313C13.75 11.8304 13.75 11.8296 13.75 11.8287C13.75 11.8279 13.75 11.827 13.75 11.8262C13.75 11.8253 13.75 11.8245 13.75 11.8236C13.75 11.8228 13.75 11.8219 13.75 11.8211C13.75 11.8202 13.75 11.8193 13.75 11.8185C13.75 11.8176 13.75 11.8168 13.75 11.8159C13.75 11.8151 13.75 11.8142 13.75 11.8133C13.75 11.8125 13.75 11.8116 13.75 11.8107C13.75 11.8099 13.75 11.809 13.75 11.8081C13.75 11.8073 13.75 11.8064 13.75 11.8055C13.75 11.8047 13.75 11.8038 13.75 11.8029C13.75 11.8021 13.75 11.8012 13.75 11.8003C13.75 11.7994 13.75 11.7986 13.75 11.7977C13.75 11.7968 13.75 11.7959 13.75 11.7951C13.75 11.7942 13.75 11.7933 13.75 11.7924C13.75 11.7916 13.75 11.7907 13.75 11.7898C13.75 11.7889 13.75 11.788 13.75 11.7871C13.75 11.7863 13.75 11.7854 13.75 11.7845C13.75 11.7836 13.75 11.7827 13.75 11.7818C13.75 11.7809 13.75 11.7801 13.75 11.7792C13.75 11.7783 13.75 11.7774 13.75 11.7765C13.75 11.7756 13.75 11.7747 13.75 11.7738C13.75 11.7729 13.75 11.772 13.75 11.7711C13.75 11.7702 13.75 11.7693 13.75 11.7684C13.75 11.7675 13.75 11.7666 13.75 11.7657C13.75 11.7648 13.75 11.7639 13.75 11.763C13.75 11.7621 13.75 11.7612 13.75 11.7603C13.75 11.7594 13.75 11.7585 13.75 11.7576C13.75 11.7567 13.75 11.7558 13.75 11.7548C13.75 11.7539 13.75 11.753 13.75 11.7521C13.75 11.7512 13.75 11.7503 13.75 11.7494C13.75 11.7485 13.75 11.7475 13.75 11.7466C13.75 11.7457 13.75 11.7448 13.75 11.7439C13.75 11.743 13.75 11.742 13.75 11.7411C13.75 11.7402 13.75 11.7393 13.75 11.7383C13.75 11.7374 13.75 11.7365 13.75 11.7356C13.75 11.7346 13.75 11.7337 13.75 11.7328C13.75 11.7319 13.75 11.7309 13.75 11.73C13.75 11.7291 13.75 11.7281 13.75 11.7272C13.75 11.7263 13.75 11.7254 13.75 11.7244C13.75 11.7235 13.75 11.7225 13.75 11.7216C13.75 11.7207 13.75 11.7197 13.75 11.7188C13.75 11.7179 13.75 11.7169 13.75 11.716C13.75 11.715 13.75 11.7141 13.75 11.7132C13.75 11.7122 13.75 11.7113 13.75 11.7103C13.75 11.7094 13.75 11.7084 13.75 11.7075C13.75 11.7065 13.75 11.7056 13.75 11.7046C13.75 11.7037 13.75 11.7028 13.75 11.7018C13.75 11.7008 13.75 11.6999 13.75 11.6989C13.75 11.698 13.75 11.697 13.75 11.6961C13.75 11.6951 13.75 11.6942 13.75 11.6932C13.75 11.6923 13.75 11.6913 13.75 11.6903C13.75 11.6894 13.75 11.6884 13.75 11.6875C13.75 11.6865 13.75 11.6855 13.75 11.6846C13.75 11.6836 13.75 11.6826 13.75 11.6817C13.75 11.6807 13.75 11.6797 13.75 11.6788C13.75 11.6778 13.75 11.6768 13.75 11.6759C13.75 11.6749 13.75 11.6739 13.75 11.673C13.75 11.672 13.75 11.671 13.75 11.67C13.75 11.6691 13.75 11.6681 13.75 11.6671C13.75 11.6661 13.75 11.6652 13.75 11.6642C13.75 11.6632 13.75 11.6622 13.75 11.6612C13.75 11.6603 13.75 11.6593 13.75 11.6583C13.75 11.6573 13.75 11.6563 13.75 11.6554C13.75 11.6544 13.75 11.6534 13.75 11.6524C13.75 11.6514 13.75 11.6504 13.75 11.6494C13.75 11.6484 13.75 11.6475 13.75 11.6465C13.75 11.6455 13.75 11.6445 13.75 11.6435C13.75 11.6425 13.75 11.6415 13.75 11.6405C13.75 11.6395 13.75 11.6385 13.75 11.6375C13.75 11.6365 13.75 11.6355 13.75 11.6345C13.75 11.6335 13.75 11.6325 13.75 11.6315C13.75 11.6305 13.75 11.6295 13.75 11.6285C13.75 11.6275 13.75 11.6265 13.75 11.6255C13.75 11.6245 13.75 11.6235 13.75 11.6225C13.75 11.6215 13.75 11.6205 13.75 11.6195C13.75 11.6185 13.75 11.6175 13.75 11.6165C13.75 11.6154 13.75 11.6144 13.75 11.6134C13.75 11.6124 13.75 11.6114 13.75 11.6104C13.75 11.6094 13.75 11.6083 13.75 11.6073C13.75 11.6063 13.75 11.6053 13.75 11.6043C13.75 11.6033 13.75 11.6022 13.75 11.6012C13.75 11.6002 13.75 11.5992 13.75 11.5981C13.75 11.5971 13.75 11.5961 13.75 11.5951C13.75 11.5941 13.75 11.593 13.75 11.592C13.75 11.591 13.75 11.5899 13.75 11.5889C13.75 11.5879 13.75 11.5869 13.75 11.5858C13.75 11.5848 13.75 11.5838 13.75 11.5827C13.75 11.5817 13.75 11.5807 13.75 11.5796C13.75 11.5786 13.75 11.5776 13.75 11.5765C13.75 11.5755 13.75 11.5745 13.75 11.5734C13.75 11.5724 13.75 11.5713 13.75 11.5703C13.75 11.5693 13.75 11.5682 13.75 11.5672C13.75 11.5661 13.75 11.5651 13.75 11.564C13.75 11.563 13.75 11.5619 13.75 11.5609C13.75 11.5599 13.75 11.5588 13.75 11.5578C13.75 11.5567 13.75 11.5557 13.75 11.5546C13.75 11.5536 13.75 11.5525 13.75 11.5515C13.75 11.5504 13.75 11.5493 13.75 11.5483C13.75 11.5472 13.75 11.5462 13.75 11.5451C13.75 11.5441 13.75 11.543 13.75 11.542C13.75 11.5409 13.75 11.5398 13.75 11.5388C13.75 11.5377 13.75 11.5367 13.75 11.5356C13.75 11.5345 13.75 11.5335 13.75 11.5324C13.75 11.5313 13.75 11.5303 13.75 11.5292C13.75 11.5281 13.75 11.5271 13.75 11.526C13.75 11.5249 13.75 11.5239 13.75 11.5228C13.75 11.5217 13.75 11.5207 13.75 11.5196C13.75 11.5185 13.75 11.5174 13.75 11.5164C13.75 11.5153 13.75 11.5142 13.75 11.5131C13.75 11.5121 13.75 11.511 13.75 11.5099C13.75 11.5088 13.75 11.5078 13.75 11.5067C13.75 11.5056 13.75 11.5045 13.75 11.5034C13.75 11.5024 13.75 11.5013 13.75 11.5002C13.75 11.4991 13.75 11.498 13.75 11.4969C13.75 11.4959 13.75 11.4948 13.75 11.4937C13.75 11.4926 13.75 11.4915 13.75 11.4904C13.75 11.4893 13.75 11.4882 13.75 11.4872C13.75 11.4861 13.75 11.485 13.75 11.4839C13.75 11.4828 13.75 11.4817 13.75 11.4806C13.75 11.4795 13.75 11.4784 13.75 11.4773C13.75 11.4762 13.75 11.4751 13.75 11.474C13.75 11.4729 13.75 11.4718 13.75 11.4707C13.75 11.4696 13.75 11.4685 13.75 11.4674C13.75 11.4663 13.75 11.4652 13.75 11.4641C13.75 11.463 13.75 11.4619 13.75 11.4608C13.75 11.4597 13.75 11.4586 13.75 11.4575C13.75 11.4564 13.75 11.4553 13.75 11.4541C13.75 11.453 13.75 11.4519 13.75 11.4508C13.75 11.4497 13.75 11.4486 13.75 11.4475C13.75 11.4464 13.75 11.4453 13.75 11.4441C13.75 11.443 13.75 11.4419 13.75 11.4408C13.75 11.4397 13.75 11.4386 13.75 11.4374C13.75 11.4363 13.75 11.4352 13.75 11.4341C13.75 11.433 13.75 11.4318 13.75 11.4307C13.75 11.4296 13.75 11.4285 13.75 11.4273C13.75 11.4262 13.75 11.4251 13.75 11.424C13.75 11.4228 13.75 11.4217 13.75 11.4206C13.75 11.4195 13.75 11.4183 13.75 11.4172C13.75 11.4161 13.75 11.4149 13.75 11.4138C13.75 11.4127 13.75 11.4115 13.75 11.4104C13.75 11.4093 13.75 11.4081 13.75 11.407C13.75 11.4059 13.75 11.4047 13.75 11.4036C13.75 11.4025 13.75 11.4013 13.75 11.4002C13.75 11.399 13.75 11.3979 13.75 11.3968C13.75 11.3956 13.75 11.3945 13.75 11.3933C13.75 11.3922 13.75 11.3911 13.75 11.3899C13.75 11.3888 13.75 11.3876 13.75 11.3865C13.75 11.3853 13.75 11.3842 13.75 11.383C13.75 11.3819 13.75 11.3807 13.75 11.3796C13.75 11.3784 13.75 11.3773 13.75 11.3761C13.75 11.375 13.75 11.3738 13.75 11.3727C13.75 11.3715 13.75 11.3704 13.75 11.3692C13.75 11.3681 13.75 11.3669 13.75 11.3658C13.75 11.3646 13.75 11.3634 13.75 11.3623C13.75 11.3611 13.75 11.36 13.75 11.3588C13.75 11.3576 13.75 11.3565 13.75 11.3553C13.75 11.3542 13.75 11.353 13.75 11.3518C13.75 11.3507 13.75 11.3495 13.75 11.3483C13.75 11.3472 13.75 11.346 13.75 11.3448C13.75 11.3437 13.75 11.3425 13.75 11.3413C13.75 11.3402 13.75 11.339 13.75 11.3378C13.75 11.3366 13.75 11.3355 13.75 11.3343C13.75 11.3331 13.75 11.332 13.75 11.3308C13.75 11.3296 13.75 11.3284 13.75 11.3273C13.75 11.3261 13.75 11.3249 13.75 11.3237C13.75 11.3226 13.75 11.3214 13.75 11.3202C13.75 11.319 13.75 11.3178 13.75 11.3167C13.75 11.3155 13.75 11.3143 13.75 11.3131C13.75 11.3119 13.75 11.3107 13.75 11.3096C13.75 11.3084 13.75 11.3072 13.75 11.306C13.75 11.3048 13.75 11.3036 13.75 11.3024C13.75 11.3012 13.75 11.3001 13.75 11.2989C13.75 11.2977 13.75 11.2965 13.75 11.2953C13.75 11.2941 13.75 11.2929 13.75 11.2917C13.75 11.2905 13.75 11.2893 13.75 11.2881C13.75 11.2869 13.75 11.2857 13.75 11.2845C13.75 11.2834 13.75 11.2822 13.75 11.281C13.75 11.2798 13.75 11.2786 13.75 11.2774C13.75 11.2762 13.75 11.275 13.75 11.2738C13.75 11.2726 13.75 11.2714 13.75 11.2701C13.75 11.2689 13.75 11.2677 13.75 11.2665C13.75 11.2653 13.75 11.2641 13.75 11.2629C13.75 11.2617 13.75 11.2605 13.75 11.2593C13.75 11.2581 13.75 11.2569 13.75 11.2557C13.75 11.2545 13.75 11.2532 13.75 11.252C13.75 11.2508 13.75 11.2496 13.75 11.2484C13.75 11.2472 13.75 11.246 13.75 11.2448C13.75 11.2435 13.75 11.2423 13.75 11.2411C13.75 11.2399 13.75 11.2387 13.75 11.2375C13.75 11.2362 13.75 11.235 13.75 11.2338C13.75 11.2326 13.75 11.2314 13.75 11.2301C13.75 11.2289 13.75 11.2277 13.75 11.2265C13.75 11.2252 13.75 11.224 13.75 11.2228C13.75 11.2216 13.75 11.2203 13.75 11.2191C13.75 11.2179 13.75 11.2167 13.75 11.2154C13.75 11.2142 13.75 11.213 13.75 11.2117C13.75 11.2105 13.75 11.2093 13.75 11.208C13.75 11.2068 13.75 11.2056 13.75 11.2043C13.75 11.2031 13.75 11.2019 13.75 11.2006C13.75 11.1994 13.75 11.1982 13.75 11.1969C13.75 11.1957 13.75 11.1945 13.75 11.1932C13.75 11.192 13.75 11.1907 13.75 11.1895C13.75 11.1883 13.75 11.187 13.75 11.1858H12.25C12.25 11.187 12.25 11.1883 12.25 11.1895C12.25 11.1907 12.25 11.192 12.25 11.1932C12.25 11.1945 12.25 11.1957 12.25 11.1969C12.25 11.1982 12.25 11.1994 12.25 11.2006C12.25 11.2019 12.25 11.2031 12.25 11.2043C12.25 11.2056 12.25 11.2068 12.25 11.208C12.25 11.2093 12.25 11.2105 12.25 11.2117C12.25 11.213 12.25 11.2142 12.25 11.2154C12.25 11.2167 12.25 11.2179 12.25 11.2191C12.25 11.2203 12.25 11.2216 12.25 11.2228C12.25 11.224 12.25 11.2252 12.25 11.2265C12.25 11.2277 12.25 11.2289 12.25 11.2301C12.25 11.2314 12.25 11.2326 12.25 11.2338C12.25 11.235 12.25 11.2362 12.25 11.2375C12.25 11.2387 12.25 11.2399 12.25 11.2411C12.25 11.2423 12.25 11.2435 12.25 11.2448C12.25 11.246 12.25 11.2472 12.25 11.2484C12.25 11.2496 12.25 11.2508 12.25 11.252C12.25 11.2532 12.25 11.2545 12.25 11.2557C12.25 11.2569 12.25 11.2581 12.25 11.2593C12.25 11.2605 12.25 11.2617 12.25 11.2629C12.25 11.2641 12.25 11.2653 12.25 11.2665C12.25 11.2677 12.25 11.2689 12.25 11.2701C12.25 11.2714 12.25 11.2726 12.25 11.2738C12.25 11.275 12.25 11.2762 12.25 11.2774C12.25 11.2786 12.25 11.2798 12.25 11.281C12.25 11.2822 12.25 11.2834 12.25 11.2845C12.25 11.2857 12.25 11.2869 12.25 11.2881C12.25 11.2893 12.25 11.2905 12.25 11.2917C12.25 11.2929 12.25 11.2941 12.25 11.2953C12.25 11.2965 12.25 11.2977 12.25 11.2989C12.25 11.3001 12.25 11.3012 12.25 11.3024C12.25 11.3036 12.25 11.3048 12.25 11.306C12.25 11.3072 12.25 11.3084 12.25 11.3096C12.25 11.3107 12.25 11.3119 12.25 11.3131C12.25 11.3143 12.25 11.3155 12.25 11.3167C12.25 11.3178 12.25 11.319 12.25 11.3202C12.25 11.3214 12.25 11.3226 12.25 11.3237C12.25 11.3249 12.25 11.3261 12.25 11.3273C12.25 11.3284 12.25 11.3296 12.25 11.3308C12.25 11.332 12.25 11.3331 12.25 11.3343C12.25 11.3355 12.25 11.3366 12.25 11.3378C12.25 11.339 12.25 11.3402 12.25 11.3413C12.25 11.3425 12.25 11.3437 12.25 11.3448C12.25 11.346 12.25 11.3472 12.25 11.3483C12.25 11.3495 12.25 11.3507 12.25 11.3518C12.25 11.353 12.25 11.3542 12.25 11.3553C12.25 11.3565 12.25 11.3576 12.25 11.3588C12.25 11.36 12.25 11.3611 12.25 11.3623C12.25 11.3634 12.25 11.3646 12.25 11.3658C12.25 11.3669 12.25 11.3681 12.25 11.3692C12.25 11.3704 12.25 11.3715 12.25 11.3727C12.25 11.3738 12.25 11.375 12.25 11.3761C12.25 11.3773 12.25 11.3784 12.25 11.3796C12.25 11.3807 12.25 11.3819 12.25 11.383C12.25 11.3842 12.25 11.3853 12.25 11.3865C12.25 11.3876 12.25 11.3888 12.25 11.3899C12.25 11.3911 12.25 11.3922 12.25 11.3933C12.25 11.3945 12.25 11.3956 12.25 11.3968C12.25 11.3979 12.25 11.399 12.25 11.4002C12.25 11.4013 12.25 11.4025 12.25 11.4036C12.25 11.4047 12.25 11.4059 12.25 11.407C12.25 11.4081 12.25 11.4093 12.25 11.4104C12.25 11.4115 12.25 11.4127 12.25 11.4138C12.25 11.4149 12.25 11.4161 12.25 11.4172C12.25 11.4183 12.25 11.4195 12.25 11.4206C12.25 11.4217 12.25 11.4228 12.25 11.424C12.25 11.4251 12.25 11.4262 12.25 11.4273C12.25 11.4285 12.25 11.4296 12.25 11.4307C12.25 11.4318 12.25 11.433 12.25 11.4341C12.25 11.4352 12.25 11.4363 12.25 11.4374C12.25 11.4386 12.25 11.4397 12.25 11.4408C12.25 11.4419 12.25 11.443 12.25 11.4441C12.25 11.4453 12.25 11.4464 12.25 11.4475C12.25 11.4486 12.25 11.4497 12.25 11.4508C12.25 11.4519 12.25 11.453 12.25 11.4541C12.25 11.4553 12.25 11.4564 12.25 11.4575C12.25 11.4586 12.25 11.4597 12.25 11.4608C12.25 11.4619 12.25 11.463 12.25 11.4641C12.25 11.4652 12.25 11.4663 12.25 11.4674C12.25 11.4685 12.25 11.4696 12.25 11.4707C12.25 11.4718 12.25 11.4729 12.25 11.474C12.25 11.4751 12.25 11.4762 12.25 11.4773C12.25 11.4784 12.25 11.4795 12.25 11.4806C12.25 11.4817 12.25 11.4828 12.25 11.4839C12.25 11.485 12.25 11.4861 12.25 11.4872C12.25 11.4882 12.25 11.4893 12.25 11.4904C12.25 11.4915 12.25 11.4926 12.25 11.4937C12.25 11.4948 12.25 11.4959 12.25 11.4969C12.25 11.498 12.25 11.4991 12.25 11.5002C12.25 11.5013 12.25 11.5024 12.25 11.5034C12.25 11.5045 12.25 11.5056 12.25 11.5067C12.25 11.5078 12.25 11.5088 12.25 11.5099C12.25 11.511 12.25 11.5121 12.25 11.5131C12.25 11.5142 12.25 11.5153 12.25 11.5164C12.25 11.5174 12.25 11.5185 12.25 11.5196C12.25 11.5207 12.25 11.5217 12.25 11.5228C12.25 11.5239 12.25 11.5249 12.25 11.526C12.25 11.5271 12.25 11.5281 12.25 11.5292C12.25 11.5303 12.25 11.5313 12.25 11.5324C12.25 11.5335 12.25 11.5345 12.25 11.5356C12.25 11.5367 12.25 11.5377 12.25 11.5388C12.25 11.5398 12.25 11.5409 12.25 11.542C12.25 11.543 12.25 11.5441 12.25 11.5451C12.25 11.5462 12.25 11.5472 12.25 11.5483C12.25 11.5493 12.25 11.5504 12.25 11.5515C12.25 11.5525 12.25 11.5536 12.25 11.5546C12.25 11.5557 12.25 11.5567 12.25 11.5578C12.25 11.5588 12.25 11.5599 12.25 11.5609C12.25 11.5619 12.25 11.563 12.25 11.564C12.25 11.5651 12.25 11.5661 12.25 11.5672C12.25 11.5682 12.25 11.5693 12.25 11.5703C12.25 11.5713 12.25 11.5724 12.25 11.5734C12.25 11.5745 12.25 11.5755 12.25 11.5765C12.25 11.5776 12.25 11.5786 12.25 11.5796C12.25 11.5807 12.25 11.5817 12.25 11.5827C12.25 11.5838 12.25 11.5848 12.25 11.5858C12.25 11.5869 12.25 11.5879 12.25 11.5889C12.25 11.5899 12.25 11.591 12.25 11.592C12.25 11.593 12.25 11.5941 12.25 11.5951C12.25 11.5961 12.25 11.5971 12.25 11.5981C12.25 11.5992 12.25 11.6002 12.25 11.6012C12.25 11.6022 12.25 11.6033 12.25 11.6043C12.25 11.6053 12.25 11.6063 12.25 11.6073C12.25 11.6083 12.25 11.6094 12.25 11.6104C12.25 11.6114 12.25 11.6124 12.25 11.6134C12.25 11.6144 12.25 11.6154 12.25 11.6165C12.25 11.6175 12.25 11.6185 12.25 11.6195C12.25 11.6205 12.25 11.6215 12.25 11.6225C12.25 11.6235 12.25 11.6245 12.25 11.6255C12.25 11.6265 12.25 11.6275 12.25 11.6285C12.25 11.6295 12.25 11.6305 12.25 11.6315C12.25 11.6325 12.25 11.6335 12.25 11.6345C12.25 11.6355 12.25 11.6365 12.25 11.6375C12.25 11.6385 12.25 11.6395 12.25 11.6405C12.25 11.6415 12.25 11.6425 12.25 11.6435C12.25 11.6445 12.25 11.6455 12.25 11.6465C12.25 11.6475 12.25 11.6484 12.25 11.6494C12.25 11.6504 12.25 11.6514 12.25 11.6524C12.25 11.6534 12.25 11.6544 12.25 11.6554C12.25 11.6563 12.25 11.6573 12.25 11.6583C12.25 11.6593 12.25 11.6603 12.25 11.6612C12.25 11.6622 12.25 11.6632 12.25 11.6642C12.25 11.6652 12.25 11.6661 12.25 11.6671C12.25 11.6681 12.25 11.6691 12.25 11.67C12.25 11.671 12.25 11.672 12.25 11.673C12.25 11.6739 12.25 11.6749 12.25 11.6759C12.25 11.6768 12.25 11.6778 12.25 11.6788C12.25 11.6797 12.25 11.6807 12.25 11.6817C12.25 11.6826 12.25 11.6836 12.25 11.6846C12.25 11.6855 12.25 11.6865 12.25 11.6875C12.25 11.6884 12.25 11.6894 12.25 11.6903C12.25 11.6913 12.25 11.6923 12.25 11.6932C12.25 11.6942 12.25 11.6951 12.25 11.6961C12.25 11.697 12.25 11.698 12.25 11.6989C12.25 11.6999 12.25 11.7008 12.25 11.7018C12.25 11.7028 12.25 11.7037 12.25 11.7046C12.25 11.7056 12.25 11.7065 12.25 11.7075C12.25 11.7084 12.25 11.7094 12.25 11.7103C12.25 11.7113 12.25 11.7122 12.25 11.7132C12.25 11.7141 12.25 11.715 12.25 11.716C12.25 11.7169 12.25 11.7179 12.25 11.7188C12.25 11.7197 12.25 11.7207 12.25 11.7216C12.25 11.7225 12.25 11.7235 12.25 11.7244C12.25 11.7254 12.25 11.7263 12.25 11.7272C12.25 11.7281 12.25 11.7291 12.25 11.73C12.25 11.7309 12.25 11.7319 12.25 11.7328C12.25 11.7337 12.25 11.7346 12.25 11.7356C12.25 11.7365 12.25 11.7374 12.25 11.7383C12.25 11.7393 12.25 11.7402 12.25 11.7411C12.25 11.742 12.25 11.743 12.25 11.7439C12.25 11.7448 12.25 11.7457 12.25 11.7466C12.25 11.7475 12.25 11.7485 12.25 11.7494C12.25 11.7503 12.25 11.7512 12.25 11.7521C12.25 11.753 12.25 11.7539 12.25 11.7548C12.25 11.7558 12.25 11.7567 12.25 11.7576C12.25 11.7585 12.25 11.7594 12.25 11.7603C12.25 11.7612 12.25 11.7621 12.25 11.763C12.25 11.7639 12.25 11.7648 12.25 11.7657C12.25 11.7666 12.25 11.7675 12.25 11.7684C12.25 11.7693 12.25 11.7702 12.25 11.7711C12.25 11.772 12.25 11.7729 12.25 11.7738C12.25 11.7747 12.25 11.7756 12.25 11.7765C12.25 11.7774 12.25 11.7783 12.25 11.7792C12.25 11.7801 12.25 11.7809 12.25 11.7818C12.25 11.7827 12.25 11.7836 12.25 11.7845C12.25 11.7854 12.25 11.7863 12.25 11.7871C12.25 11.788 12.25 11.7889 12.25 11.7898C12.25 11.7907 12.25 11.7916 12.25 11.7924C12.25 11.7933 12.25 11.7942 12.25 11.7951C12.25 11.7959 12.25 11.7968 12.25 11.7977C12.25 11.7986 12.25 11.7994 12.25 11.8003C12.25 11.8012 12.25 11.8021 12.25 11.8029C12.25 11.8038 12.25 11.8047 12.25 11.8055C12.25 11.8064 12.25 11.8073 12.25 11.8081C12.25 11.809 12.25 11.8099 12.25 11.8107C12.25 11.8116 12.25 11.8125 12.25 11.8133C12.25 11.8142 12.25 11.8151 12.25 11.8159C12.25 11.8168 12.25 11.8176 12.25 11.8185C12.25 11.8193 12.25 11.8202 12.25 11.8211C12.25 11.8219 12.25 11.8228 12.25 11.8236C12.25 11.8245 12.25 11.8253 12.25 11.8262C12.25 11.827 12.25 11.8279 12.25 11.8287C12.25 11.8296 12.25 11.8304 12.25 11.8313C12.25 11.8321 12.25 11.833 12.25 11.8338C12.25 11.8346 12.25 11.8355 12.25 11.8363C12.25 11.8372 12.25 11.838 12.25 11.8388C12.25 11.8397 12.25 11.8405 12.25 11.8414C12.25 11.8422 12.25 11.843 12.25 11.8439C12.25 11.8447 12.25 11.8455 12.25 11.8464C12.25 11.8472 12.25 11.848 12.25 11.8489C12.25 11.8497 12.25 11.8505 12.25 11.8514C12.25 11.8522 12.25 11.853 12.25 11.8538C12.25 11.8547 12.25 11.8555 12.25 11.8563C12.25 11.8571 12.25 11.858 12.25 11.8588C12.25 11.8596 12.25 11.8604 12.25 11.8612C12.25 11.862 12.25 11.8629 12.25 11.8637C12.25 11.8645 12.25 11.8653 12.25 11.8661C12.25 11.8669 12.25 11.8678 12.25 11.8686C12.25 11.8694 12.25 11.8702 12.25 11.871C12.25 11.8718 12.25 11.8726 12.25 11.8734C12.25 11.8742 12.25 11.875 12.25 11.8758C12.25 11.8766 12.25 11.8775 12.25 11.8783C12.25 11.8791 12.25 11.8799 12.25 11.8807C12.25 11.8815 12.25 11.8823 12.25 11.8831C12.25 11.8839 12.25 11.8846 12.25 11.8854C12.25 11.8862 12.25 11.887 12.25 11.8878C12.25 11.8886 12.25 11.8894 12.25 11.8902C12.25 11.891 12.25 11.8918 12.25 11.8926C12.25 11.8934 12.25 11.8941 12.25 11.8949C12.25 11.8957 12.25 11.8965 12.25 11.8973C12.25 11.8981 12.25 11.8989 12.25 11.8996C12.25 11.9004 12.25 11.9012 12.25 11.902C12.25 11.9028 12.25 11.9035 12.25 11.9043C12.25 11.9051 12.25 11.9059 12.25 11.9066C12.25 11.9074 12.25 11.9082 12.25 11.909C12.25 11.9097 12.25 11.9105 12.25 11.9113C12.25 11.912 12.25 11.9128 12.25 11.9136C12.25 11.9143 12.25 11.9151 12.25 11.9159C12.25 11.9166 12.25 11.9174 12.25 11.9182C12.25 11.9189 12.25 11.9197 12.25 11.9205C12.25 11.9212 12.25 11.922 12.25 11.9227C12.25 11.9235 12.25 11.9242 12.25 11.925C12.25 11.9258 12.25 11.9265 12.25 11.9273C12.25 11.928 12.25 11.9288 12.25 11.9295C12.25 11.9303 12.25 11.931 12.25 11.9318C12.25 11.9325 12.25 11.9333 12.25 11.934C12.25 11.9348 12.25 11.9355 12.25 11.9362C12.25 11.937 12.25 11.9377 12.25 11.9385C12.25 11.9392 12.25 11.9399 12.25 11.9407C12.25 11.9414 12.25 11.9422 12.25 11.9429C12.25 11.9436 12.25 11.9444 12.25 11.9451C12.25 11.9458 12.25 11.9466 12.25 11.9473C12.25 11.948 12.25 11.9488 12.25 11.9495C12.25 11.9502 12.25 11.951 12.25 11.9517C12.25 11.9524 12.25 11.9531 12.25 11.9539C12.25 11.9546 12.25 11.9553 12.25 11.956C12.25 11.9567 12.25 11.9575 12.25 11.9582C12.25 11.9589 12.25 11.9596 12.25 11.9603C12.25 11.9611 12.25 11.9618 12.25 11.9625C12.25 11.9632 12.25 11.9639 12.25 11.9646C12.25 11.9653 12.25 11.966 12.25 11.9668C12.25 11.9675 12.25 11.9682 12.25 11.9689C12.25 11.9696 12.25 11.9703 12.25 11.971C12.25 11.9717 12.25 11.9724 12.25 11.9731C12.25 11.9738 12.25 11.9745 12.25 11.9752C12.25 11.9759 12.25 11.9766 12.25 11.9773C12.25 11.978 12.25 11.9787 12.25 11.9794C12.25 11.9801 12.25 11.9808 12.25 11.9815C12.25 11.9822 12.25 11.9829 12.25 11.9836C12.25 11.9842 12.25 11.9849 12.25 11.9856C12.25 11.9863 12.25 11.987 12.25 11.9877C12.25 11.9884 12.25 11.989 12.25 11.9897C12.25 11.9904 12.25 11.9911 12.25 11.9918C12.25 11.9925 12.25 11.9931 12.25 11.9938C12.25 11.9945 12.25 11.9952 12.25 11.9958C12.25 11.9965 12.25 11.9972 12.25 11.9979C12.25 11.9985 12.25 11.9992 12.25 11.9999C12.25 12.0005 12.25 12.0012 12.25 12.0019C12.25 12.0025 12.25 12.0032 12.25 12.0039C12.25 12.0045 12.25 12.0052 12.25 12.0059C12.25 12.0065 12.25 12.0072 12.25 12.0079C12.25 12.0085 12.25 12.0092 12.25 12.0098C12.25 12.0105 12.25 12.0111 12.25 12.0118C12.25 12.0125 12.25 12.0131 12.25 12.0138C12.25 12.0144 12.25 12.0151 12.25 12.0157C12.25 12.0164 12.25 12.017 12.25 12.0177C12.25 12.0183 12.25 12.019 12.25 12.0196C12.25 12.0202 12.25 12.0209 12.25 12.0215C12.25 12.0222 12.25 12.0228 12.25 12.0235C12.25 12.0241 12.25 12.0247 12.25 12.0254C12.25 12.026 12.25 12.0266 12.25 12.0273C12.25 12.0279 12.25 12.0285 12.25 12.0292C12.25 12.0298 12.25 12.0304 12.25 12.0311C12.25 12.0317 12.25 12.0323 12.25 12.033C12.25 12.0336 12.25 12.0342 12.25 12.0348C12.25 12.0355 12.25 12.0361 12.25 12.0367C12.25 12.0373 12.25 12.0379 12.25 12.0386C12.25 12.0392 12.25 12.0398 12.25 12.0404C12.25 12.041 12.25 12.0417 12.25 12.0423C12.25 12.0429 12.25 12.0435 12.25 12.0441C12.25 12.0447 12.25 12.0453 12.25 12.0459C12.25 12.0466 12.25 12.0472 12.25 12.0478C12.25 12.0484 12.25 12.049 12.25 12.0496C12.25 12.0502 12.25 12.0508 12.25 12.0514C12.25 12.052 12.25 12.0526 12.25 12.0532C12.25 12.0538 12.25 12.0544 12.25 12.055C12.25 12.0556 12.25 12.0562 12.25 12.0568C12.25 12.0574 12.25 12.058 12.25 12.0585C12.25 12.0591 12.25 12.0597 12.25 12.0603C12.25 12.0609 12.25 12.0615 12.25 12.0621C12.25 12.0627 12.25 12.0633 12.25 12.0638C12.25 12.0644 12.25 12.065 12.25 12.0656C12.25 12.0662 12.25 12.0667 12.25 12.0673C12.25 12.0679 12.25 12.0685 12.25 12.0691C12.25 12.0696 12.25 12.0702 12.25 12.0708C12.25 12.0713 12.25 12.0719 12.25 12.0725C12.25 12.0731 12.25 12.0736 12.25 12.0742C12.25 12.0748 12.25 12.0753 12.25 12.0759C12.25 12.0765 12.25 12.077 12.25 12.0776C12.25 12.0782 12.25 12.0787 12.25 12.0793C12.25 12.0798 12.25 12.0804 12.25 12.0809C12.25 12.0815 12.25 12.0821 12.25 12.0826C12.25 12.0832 12.25 12.0837 12.25 12.0843C12.25 12.0848 12.25 12.0854 12.25 12.0859C12.25 12.0865 12.25 12.087 12.25 12.0876C12.25 12.0881 12.25 12.0887 12.25 12.0892C12.25 12.0898 12.25 12.0903 12.25 12.0908C12.25 12.0914 12.25 12.0919 12.25 12.0925C12.25 12.093 12.25 12.0935 12.25 12.0941C12.25 12.0946 12.25 12.0951 12.25 12.0957C12.25 12.0962 12.25 12.0967 12.25 12.0973C12.25 12.0978 12.25 12.0983 12.25 12.0989C12.25 12.0994 12.25 12.0999 12.25 12.1004C12.25 12.101 12.25 12.1015 12.25 12.102C12.25 12.1025 12.25 12.1031 12.25 12.1036C12.25 12.1041 12.25 12.1046 12.25 12.1051C12.25 12.1056 12.25 12.1062 12.25 12.1067C12.25 12.1072 12.25 12.1077 12.25 12.1082C12.25 12.1087 12.25 12.1092 12.25 12.1098C12.25 12.1103 12.25 12.1108 12.25 12.1113C12.25 12.1118 12.25 12.1123 12.25 12.1128C12.25 12.1133 12.25 12.1138 12.25 12.1143C12.25 12.1148 12.25 12.1153 12.25 12.1158C12.25 12.1163 12.25 12.1168 12.25 12.1173C12.25 12.1178 12.25 12.1183 12.25 12.1188C12.25 12.1193 12.25 12.1198 12.25 12.1203C12.25 12.1207 12.25 12.1212 12.25 12.1217C12.25 12.1222 12.25 12.1227 12.25 12.1232C12.25 12.1237 12.25 12.1241 12.25 12.1246C12.25 12.1251 12.25 12.1256 12.25 12.1261C12.25 12.1266 12.25 12.127 12.25 12.1275C12.25 12.128 12.25 12.1285 12.25 12.1289C12.25 12.1294 12.25 12.1299 12.25 12.1304C12.25 12.1308 12.25 12.1313 12.25 12.1318C12.25 12.1322 12.25 12.1327 12.25 12.1332C12.25 12.1336 12.25 12.1341 12.25 12.1346C12.25 12.135 12.25 12.1355 12.25 12.1359C12.25 12.1364 12.25 12.1369 12.25 12.1373C12.25 12.1378 12.25 12.1382 12.25 12.1387C12.25 12.1391 12.25 12.1396 12.25 12.14C12.25 12.1405 12.25 12.141 12.25 12.1414C12.25 12.1419 12.25 12.1423 12.25 12.1427C12.25 12.1432 12.25 12.1436 12.25 12.1441C12.25 12.1445 12.25 12.145 12.25 12.1454C12.25 12.1459 12.25 12.1463 12.25 12.1467C12.25 12.1472 12.25 12.1476 12.25 12.148C12.25 12.1485 12.25 12.1489 12.25 12.1493C12.25 12.1498 12.25 12.1502 12.25 12.1506C12.25 12.1511 12.25 12.1515 12.25 12.1519C12.25 12.1523 12.25 12.1528 12.25 12.1532C12.25 12.1536 12.25 12.154 12.25 12.1545C12.25 12.1549 12.25 12.1553 12.25 12.1557C12.25 12.1561 12.25 12.1566 12.25 12.157C12.25 12.1574 12.25 12.1578 12.25 12.1582C12.25 12.1586 12.25 12.1591 12.25 12.1595C12.25 12.1599 12.25 12.1603 12.25 12.1607C12.25 12.1611 12.25 12.1615 12.25 12.1619C12.25 12.1623 12.25 12.1627 12.25 12.1631C12.25 12.1635 12.25 12.1639 12.25 12.1643C12.25 12.1647 12.25 12.1651 12.25 12.1655C12.25 12.1659 12.25 12.1663 12.25 12.1667C12.25 12.1671 12.25 12.1675 12.25 12.1679C12.25 12.1683 12.25 12.1687 12.25 12.169C12.25 12.1694 12.25 12.1698 12.25 12.1702C12.25 12.1706 12.25 12.171 12.25 12.1714C12.25 12.1717 12.25 12.1721 12.25 12.1725C12.25 12.1729 12.25 12.1733 12.25 12.1736C12.25 12.174 12.25 12.1744 12.25 12.1748C12.25 12.1751 12.25 12.1755 12.25 12.1759C12.25 12.1762 12.25 12.1766 12.25 12.177C12.25 12.1774 12.25 12.1777 12.25 12.1781C12.25 12.1784 12.25 12.1788 12.25 12.1792C12.25 12.1795 12.25 12.1799 12.25 12.1803C12.25 12.1806 12.25 12.181 12.25 12.1813C12.25 12.1817 12.25 12.182 12.25 12.1824C12.25 12.1828 12.25 12.1831 12.25 12.1835C12.25 12.1838 12.25 12.1842 12.25 12.1845C12.25 12.1849 12.25 12.1852 12.25 12.1855C12.25 12.1859 12.25 12.1862 12.25 12.1866C12.25 12.1869 12.25 12.1873 12.25 12.1876C12.25 12.1879 12.25 12.1883 12.25 12.1886C12.25 12.1889 12.25 12.1893 12.25 12.1896C12.25 12.1899 12.25 12.1903 12.25 12.1906C12.25 12.1909 12.25 12.1913 12.25 12.1916C12.25 12.1919 12.25 12.1923 12.25 12.1926C12.25 12.1929 12.25 12.1932 12.25 12.1936C12.25 12.1939 12.25 12.1942 12.25 12.1945C12.25 12.1948 12.25 12.1951 12.25 12.1955C12.25 12.1958 12.25 12.1961 12.25 12.1964C12.25 12.1967 12.25 12.197 12.25 12.1973C12.25 12.1977 12.25 12.198 12.25 12.1983C12.25 12.1986 12.25 12.1989 12.25 12.1992C12.25 12.1995 12.25 12.1998 12.25 12.2001C12.25 12.2004 12.25 12.2007 12.25 12.201C12.25 12.2013 12.25 12.2016 12.25 12.2019C12.25 12.2022 12.25 12.2025 12.25 12.2028C12.25 12.2031 12.25 12.2034 12.25 12.2036C12.25 12.2039 12.25 12.2042 12.25 12.2045C12.25 12.2048 12.25 12.2051 12.25 12.2054C12.25 12.2057 12.25 12.2059 12.25 12.2062C12.25 12.2065 12.25 12.2068 12.25 12.2071C12.25 12.2073 12.25 12.2076 12.25 12.2079C12.25 12.2082 12.25 12.2084 12.25 12.2087C12.25 12.209 12.25 12.2093 12.25 12.2095C12.25 12.2098 12.25 12.2101 12.25 12.2103C12.25 12.2106 12.25 12.2109 12.25 12.2111C12.25 12.2114 12.25 12.2116 12.25 12.2119C12.25 12.2122 12.25 12.2124 12.25 12.2127C12.25 12.2129 12.25 12.2132 12.25 12.2135C12.25 12.2137 12.25 12.214 12.25 12.2142C12.25 12.2145 12.25 12.2147 12.25 12.215C12.25 12.2152 12.25 12.2155 12.25 12.2157C12.25 12.2159 12.25 12.2162 12.25 12.2164C12.25 12.2167 12.25 12.2169 12.25 12.2172C12.25 12.2174 12.25 12.2176 12.25 12.2179C12.25 12.2181 12.25 12.2183 12.25 12.2186C12.25 12.2188 12.25 12.219 12.25 12.2193C12.25 12.2195 12.25 12.2197 12.25 12.22C12.25 12.2202 12.25 12.2204 12.25 12.2206C12.25 12.2209 12.25 12.2211 12.25 12.2213C12.25 12.2215 12.25 12.2217 12.25 12.222C12.25 12.2222 12.25 12.2224 12.25 12.2226C12.25 12.2228 12.25 12.223 12.25 12.2233C12.25 12.2235 12.25 12.2237 12.25 12.2239C12.25 12.2241 12.25 12.2243 12.25 12.2245C12.25 12.2247 12.25 12.2249 12.25 12.2251C12.25 12.2253 12.25 12.2255 12.25 12.2257C12.25 12.2259 12.25 12.2261 12.25 12.2263C12.25 12.2265 12.25 12.2267 12.25 12.2269C12.25 12.2271 12.25 12.2273 12.25 12.2275C12.25 12.2277 12.25 12.2279 12.25 12.2281C12.25 12.2283 12.25 12.2284 12.25 12.2286C12.25 12.2288 12.25 12.229 12.25 12.2292C12.25 12.2294 12.25 12.2295 12.25 12.2297C12.25 12.2299 12.25 12.2301 12.25 12.2303C12.25 12.2304 12.25 12.2306 12.25 12.2308C12.25 12.231 12.25 12.2311 12.25 12.2313C12.25 12.2315 12.25 12.2316 12.25 12.2318C12.25 12.232 12.25 12.2321 12.25 12.2323C12.25 12.2325 12.25 12.2326 12.25 12.2328C12.25 12.2329 12.25 12.2331 12.25 12.2333C12.25 12.2334 12.25 12.2336 12.25 12.2337C12.25 12.2339 12.25 12.234 12.25 12.2342C12.25 12.2343 12.25 12.2345 12.25 12.2346C12.25 12.2348 12.25 12.2349 12.25 12.2351C12.25 12.2352 12.25 12.2354 12.25 12.2355C12.25 12.2357 12.25 12.2358 12.25 12.2359C12.25 12.2361 12.25 12.2362 12.25 12.2363C12.25 12.2365 12.25 12.2366 12.25 12.2368C12.25 12.2369 12.25 12.237 12.25 12.2371C12.25 12.2373 12.25 12.2374 12.25 12.2375C12.25 12.2377 12.25 12.2378 12.25 12.2379C12.25 12.238 12.25 12.2382 12.25 12.2383C12.25 12.2384 12.25 12.2385 12.25 12.2386C12.25 12.2387 12.25 12.2389 12.25 12.239C12.25 12.2391 12.25 12.2392 12.25 12.2393C12.25 12.2394 12.25 12.2395 12.25 12.2396C12.25 12.2398 12.25 12.2399 12.25 12.24C12.25 12.2401 12.25 12.2402 12.25 12.2403C12.25 12.2404 12.25 12.2405 12.25 12.2406C12.25 12.2407 12.25 12.2408 12.25 12.2409C12.25 12.241 12.25 12.2411 12.25 12.2411C12.25 12.2412 12.25 12.2413 12.25 12.2414C12.25 12.2415 12.25 12.2416 12.25 12.2417C12.25 12.2418 12.25 12.2419 12.25 12.2419C12.25 12.242 12.25 12.2421 12.25 12.2422C12.25 12.2423 12.25 12.2423 12.25 12.2424C12.25 12.2425 12.25 12.2426 12.25 12.2426C12.25 12.2427 12.25 12.2428 12.25 12.2429C12.25 12.2429 12.25 12.243 12.25 12.2431C12.25 12.2431 12.25 12.2432 12.25 12.2433C12.25 12.2433 12.25 12.2434 12.25 12.2434C12.25 12.2435 12.25 12.2436 12.25 12.2436C12.25 12.2437 12.25 12.2437 12.25 12.2438C12.25 12.2438 12.25 12.2439 12.25 12.244C12.25 12.244 12.25 12.2441 12.25 12.2441C12.25 12.2442 12.25 12.2442 12.25 12.2442C12.25 12.2443 12.25 12.2443 12.25 12.2444C12.25 12.2444 12.25 12.2445 12.25 12.2445C12.25 12.2445 12.25 12.2446 12.25 12.2446C12.25 12.2446 12.25 12.2447 12.25 12.2447C12.25 12.2447 12.25 12.2448 12.25 12.2448C12.25 12.2448 12.25 12.2449 12.25 12.2449C12.25 12.2449 12.25 12.2449 12.25 12.245C12.25 12.245 12.25 12.245 12.25 12.245C12.25 12.245 12.25 12.2451 12.25 12.2451C12.25 12.2451 12.25 12.2451 12.25 12.2451C12.25 12.2451 12.25 12.2451 12.25 12.2451C12.25 12.2452 12.25 12.2452 12.25 12.2452C12.25 12.2452 12.25 12.2452 12.25 12.2452C12.25 12.2452 12.25 12.2452 13 12.2452ZM13.75 11.1858C13.75 10.6625 13.5395 10.1551 13.1166 9.78813C12.6994 9.42598 12.1351 9.25 11.5 9.25V10.75C11.8649 10.75 12.0506 10.8491 12.1334 10.9209C12.2105 10.9879 12.25 11.0734 12.25 11.1858H13.75ZM11.5 9.25H10V10.75H11.5V9.25ZM9.25 13.5V16H10.75V13.5H9.25ZM9.25 10V13.5H10.75V10H9.25ZM11.3105 13.7268L12.3011 16.272L13.6989 15.7279L12.7083 13.1828L11.3105 13.7268ZM14.2885 10.2372L16.2885 16.2372L17.7115 15.7628L15.7115 9.76283L14.2885 10.2372ZM17.7115 16.2372L19.7115 10.2372L18.2885 9.76283L16.2885 15.7628L17.7115 16.2372Z" fill="black"/>
</svg>
