<svg width="24" height="24" viewBox="0 0 24 24" fill="none" xmlns="http://www.w3.org/2000/svg">
<path d="M19 20V20.75H19.75V20H19ZM5 20H4.25V20.75H5V20ZM5 4V3.25H4.25V4H5ZM16 4L16.5303 3.46967L16.3107 3.25H16V4ZM19 7L19.75 7V6.68934L19.5303 6.46967L19 7ZM5 16H4.25V16.75H5V16ZM5 10L5 9.25L4.25 9.25V10H5ZM6.9 10V9.25H6.9L6.9 10ZM11.25 16C11.25 16.4142 11.5858 16.75 12 16.75C12.4142 16.75 12.75 16.4142 12.75 16H11.25ZM10 9.25C9.58579 9.25 9.25 9.58579 9.25 10C9.25 10.4142 9.58579 10.75 10 10.75V9.25ZM14 10.75C14.4142 10.75 14.75 10.4142 14.75 10C14.75 9.58579 14.4142 9.25 14 9.25V10.75ZM16 16H15.25V16.75H16V16ZM16 10V9.25L15.25 9.25V10H16ZM17.9 10V9.25V10ZM19 19.25H5V20.75H19V19.25ZM5 4.75H16V3.25H5V4.75ZM15.4697 4.53033L18.4697 7.53033L19.5303 6.46967L16.5303 3.46967L15.4697 4.53033ZM5.75 8V4H4.25V8H5.75ZM5.75 20V18H4.25V20H5.75ZM18.25 7L18.25 8L19.75 8L19.75 7L18.25 7ZM18.25 18V20H19.75V18H18.25ZM5.75 16V10H4.25V16H5.75ZM5 10.75L6.9 10.75L6.9 9.25L5 9.25L5 10.75ZM6.9 10.75C7.05601 10.75 7.29973 10.7997 7.4804 10.9216C7.62097 11.0165 7.75 11.1655 7.75 11.5H9.25C9.25 10.6345 8.8457 10.0335 8.31961 9.67836C7.83361 9.35032 7.27733 9.25 6.9 9.25V10.75ZM7.75 11.5V14.5H9.25V11.5H7.75ZM7.75 14.5C7.75 14.6198 7.70515 14.8245 7.58518 14.9807C7.49217 15.1018 7.31534 15.25 6.9 15.25V16.75C7.76467 16.75 8.38783 16.3982 8.77482 15.8943C9.13485 15.4255 9.25 14.8802 9.25 14.5H7.75ZM6.9 15.25H5V16.75H6.9V15.25ZM11.25 10V16H12.75V10H11.25ZM10 10.75H12V9.25H10V10.75ZM12 10.75H14V9.25H12V10.75ZM16.75 16V10H15.25V16H16.75ZM16 10.75L17.9 10.75V9.25L16 9.25V10.75ZM17.9 10.75C18.056 10.75 18.2997 10.7997 18.4804 10.9216C18.621 11.0165 18.75 11.1655 18.75 11.5H20.25C20.25 10.6345 19.8457 10.0335 19.3196 9.67836C18.8336 9.35032 18.2773 9.25 17.9 9.25V10.75ZM18.75 11.5V14.5H20.25V11.5H18.75ZM18.75 14.5C18.75 14.6198 18.7051 14.8245 18.5852 14.9807C18.4922 15.1018 18.3153 15.25 17.9 15.25V16.75C18.7647 16.75 19.3878 16.3982 19.7748 15.8943C20.1349 15.4255 20.25 14.8802 20.25 14.5H18.75ZM17.9 15.25H16V16.75H17.9V15.25Z" fill="black"/>
</svg>
