<svg width="24" height="24" viewBox="0 0 24 24" fill="none" xmlns="http://www.w3.org/2000/svg">
<path d="M19.7352 9.15373H19.255V6.83648C19.255 6.82192 19.2527 6.80747 19.2508 6.79273C19.25 6.70083 19.2207 6.61041 19.1577 6.53881L15.3016 2.13413C15.3005 2.13301 15.2993 2.1325 15.2986 2.13137C15.2756 2.1057 15.2488 2.08435 15.2205 2.06587C15.212 2.06024 15.2036 2.05552 15.1948 2.05054C15.1703 2.03725 15.1442 2.02603 15.1174 2.01801C15.1101 2.01609 15.1036 2.01311 15.0963 2.01118C15.0673 2.00432 15.037 2 15.0063 2H5.52953C5.09678 2 4.74522 2.35196 4.74522 2.78435V9.15373H4.26508C3.6462 9.15373 3.14403 9.65547 3.14403 10.2747V16.1043C3.14403 16.7229 3.6462 17.2252 4.26508 17.2252H4.74522V21.2157C4.74522 21.648 5.09678 22 5.52953 22H18.4707C18.903 22 19.255 21.648 19.255 21.2157V17.2252H19.7353C20.3545 17.2252 20.8562 16.7229 20.8562 16.1043V10.2747C20.8561 9.65547 20.3544 9.15373 19.7352 9.15373ZM5.52953 2.78435H14.6142V6.79705C14.6142 7.01383 14.79 7.18921 15.0064 7.18921H18.4707V9.15391H5.52953V2.78435ZM15.0646 10.7375L13.831 15.5172H12.6607L12.2562 13.4608C12.1642 12.9787 12.0858 12.5318 12.0295 11.9857H12.0154C11.9299 12.5254 11.8523 12.9787 11.7389 13.4608L11.2852 15.5172H10.1006L8.96576 10.7375H10.1219L10.4835 12.7091C10.5899 13.2762 10.6891 13.8932 10.7671 14.3754H10.7813C10.8593 13.8578 10.9729 13.2835 11.0934 12.6949L11.4975 10.7377H12.6463L13.0293 12.7514C13.1358 13.312 13.2133 13.8225 13.2849 14.3544H13.2989C13.3696 13.8225 13.4757 13.2627 13.575 12.6951L13.9655 10.7379L15.0646 10.7375ZM4.44228 15.4961V10.8014C4.8393 10.7375 5.3568 10.7022 5.90291 10.7022C6.81094 10.7022 7.39917 10.8653 7.86017 11.2129C8.35675 11.5814 8.66812 12.17 8.66812 13.0137C8.66812 13.929 8.3354 14.5597 7.87422 14.9496C7.3711 15.3682 6.60498 15.5665 5.66875 15.5665C5.10894 15.5665 4.71152 15.5313 4.44228 15.4961ZM18.4707 21.0031H5.52953V17.2252H18.4707V21.0031ZM19.5594 15.2973C19.2262 15.4103 18.5955 15.5665 17.964 15.5665C17.092 15.5665 16.4609 15.3467 16.0212 14.9216C15.5816 14.5097 15.3399 13.8861 15.3476 13.1841C15.3545 11.5955 16.5103 10.688 18.0777 10.688C18.6943 10.688 19.1695 10.8082 19.4039 10.9216L19.1768 11.7867C18.9145 11.6737 18.5882 11.5814 18.0635 11.5814C17.1632 11.5814 16.4819 12.0919 16.4819 13.1274C16.4819 14.1128 17.0988 14.6941 17.9854 14.6941C18.2341 14.6941 18.4323 14.6662 18.5171 14.6237V13.6238H17.7797V12.7797H19.5594L19.5594 15.2973Z" fill="black"/>
<path d="M7.51953 13.0495C7.5272 12.0568 6.94582 11.532 6.01678 11.532C5.77578 11.532 5.61972 11.5533 5.52745 11.5749V14.7016C5.61976 14.7231 5.76863 14.7231 5.90313 14.7231C6.88188 14.7299 7.51953 14.1911 7.51953 13.0495Z" fill="black"/>
</svg>
