<svg width="24" height="24" viewBox="0 0 24 24" fill="none" xmlns="http://www.w3.org/2000/svg">
<path d="M19 20V20.75H19.7538L19.75 19.9962L19 20ZM5 20H4.25V20.75H5V20ZM5 4V3.25H4.25V4H5ZM16 4L16.5303 3.46967L16.3107 3.25H16V4ZM19 7H19.75V6.68934L19.5303 6.46967L19 7ZM2.5 16H1.75V16.75H2.5V16ZM2.5 10L2.5 9.25L1.75 9.25V10H2.5ZM4.4 10V9.25H4.4L4.4 10ZM8.72761 9.8181C8.62715 9.41625 8.21994 9.17193 7.8181 9.27239C7.41625 9.37285 7.17193 9.78006 7.27239 10.1819L8.72761 9.8181ZM9.5 16L8.77239 16.1819C8.85327 16.5054 9.13801 16.7367 9.47122 16.7494C9.80442 16.7622 10.1061 16.5535 10.2115 16.2372L9.5 16ZM11.5 10L12.2115 9.76283C12.1094 9.45657 11.8228 9.25 11.5 9.25C11.1772 9.25 10.8906 9.45657 10.7885 9.76283L11.5 10ZM13.5 16L12.7885 16.2372C12.8939 16.5535 13.1956 16.7622 13.5288 16.7494C13.862 16.7367 14.1467 16.5054 14.2276 16.1819L13.5 16ZM15.7276 10.1819C15.8281 9.78006 15.5837 9.37285 15.1819 9.27239C14.7801 9.17193 14.3729 9.41625 14.2724 9.8181L15.7276 10.1819ZM17 11.6438H17.75V11.6438L17 11.6438ZM20.5 13.2877H21.25V12.5377H20.5V13.2877ZM19 19.25H5V20.75H19V19.25ZM5 4.75H16V3.25H5V4.75ZM15.4697 4.53033L18.4697 7.53033L19.5303 6.46967L16.5303 3.46967L15.4697 4.53033ZM5.75 8V4H4.25V8H5.75ZM5.75 20V18H4.25V20H5.75ZM18.25 7V8H19.75V7H18.25ZM18.2398 18.0038L18.25 20.0038L19.75 19.9962L19.7398 17.9962L18.2398 18.0038ZM3.25 16V10H1.75V16H3.25ZM2.5 10.75L4.4 10.75L4.4 9.25L2.5 9.25L2.5 10.75ZM4.4 10.75C4.55601 10.75 4.79973 10.7997 4.9804 10.9216C5.12097 11.0165 5.25 11.1655 5.25 11.5H6.75C6.75 10.6345 6.3457 10.0335 5.81961 9.67836C5.33361 9.35032 4.77733 9.25 4.4 9.25V10.75ZM5.25 11.5V14.5H6.75V11.5H5.25ZM5.25 14.5C5.25 14.6198 5.20515 14.8245 5.08518 14.9807C4.99217 15.1018 4.81534 15.25 4.4 15.25V16.75C5.26467 16.75 5.88783 16.3982 6.27482 15.8943C6.63485 15.4255 6.75 14.8802 6.75 14.5H5.25ZM4.4 15.25H2.5V16.75H4.4V15.25ZM7.27239 10.1819L8.77239 16.1819L10.2276 15.8181L8.72761 9.8181L7.27239 10.1819ZM10.2115 16.2372L12.2115 10.2372L10.7885 9.76283L8.78849 15.7628L10.2115 16.2372ZM10.7885 10.2372L12.7885 16.2372L14.2115 15.7628L12.2115 9.76283L10.7885 10.2372ZM14.2276 16.1819L15.7276 10.1819L14.2724 9.8181L12.7724 15.8181L14.2276 16.1819ZM18.6989 9.25C17.7966 9.25 17.1587 9.66372 16.7673 10.1811C16.4016 10.6646 16.25 11.2358 16.25 11.6439L17.75 11.6438C17.75 11.5496 17.8026 11.2989 17.9636 11.086C18.099 10.9071 18.3104 10.75 18.6989 10.75V9.25ZM16.25 11.6438V14.2341H17.75V11.6438H16.25ZM16.25 14.2341C16.25 15.6153 17.2479 16.75 18.6989 16.75V15.25C18.1497 15.25 17.75 14.8622 17.75 14.2341H16.25ZM21.25 14.3836V13.2877H19.75V14.3836H21.25ZM20.5 12.5377H18.9898V14.0377H20.5V12.5377ZM21.25 11.6438C21.25 10.9196 20.9607 10.2996 20.4662 9.87019C19.9829 9.45044 19.3487 9.25 18.6989 9.25V10.75C19.0491 10.75 19.3155 10.8575 19.4827 11.0028C19.6388 11.1383 19.75 11.3403 19.75 11.6438H21.25ZM18.6989 16.75C19.3191 16.75 19.9548 16.5894 20.4505 16.1824C20.9669 15.7583 21.25 15.1321 21.25 14.3836H19.75C19.75 14.731 19.6326 14.913 19.4985 15.0231C19.3436 15.1504 19.0787 15.25 18.6989 15.25V16.75Z" fill="black"/>
</svg>
