<svg width="24" height="24" viewBox="0 0 24 24" fill="none" xmlns="http://www.w3.org/2000/svg">
<path d="M19.7352 9.15373H19.2549V6.83648C19.2549 6.82192 19.2526 6.80747 19.2507 6.79273C19.25 6.70083 19.2205 6.61034 19.1577 6.53881L15.3014 2.13413C15.3004 2.1329 15.2993 2.1325 15.2985 2.13137C15.2755 2.1057 15.2487 2.08424 15.2204 2.06587C15.212 2.06024 15.2036 2.05552 15.1948 2.05054C15.1702 2.03725 15.1442 2.02603 15.1174 2.01801C15.1101 2.01609 15.1036 2.01311 15.0963 2.01118C15.0672 2.00432 15.037 2 15.0063 2H5.52949C5.09674 2 4.74518 2.35196 4.74518 2.78435V9.15373H4.26498C3.64602 9.15373 3.14403 9.65547 3.14403 10.2747V16.1043C3.14403 16.7229 3.64599 17.2252 4.26498 17.2252H4.74522V21.2157C4.74522 21.648 5.09678 22 5.52953 22H18.4707C18.903 22 19.255 21.648 19.255 21.2157V17.2252H19.7352C20.3541 17.2252 20.8562 16.7229 20.8562 16.1043V10.2747C20.8561 9.65547 20.3541 9.15373 19.7352 9.15373ZM5.52949 2.78435H14.6142V6.79705C14.6142 7.01372 14.79 7.18921 15.0063 7.18921H18.4706V9.15391H5.52949V2.78435ZM10.5709 10.4419H11.8955L12.342 11.3731C12.4933 11.6833 12.6069 11.933 12.7281 12.2204H12.7432C12.864 11.8954 12.9624 11.6681 13.0915 11.3731L13.5231 10.4419H14.8402L13.4021 12.9323L14.9156 15.5435H13.5833L13.1218 14.6202C12.9326 14.2642 12.8114 13.9991 12.6676 13.7042H12.6527C12.5466 13.999 12.4179 14.2641 12.259 14.6202L11.8351 15.5435H10.5179L11.9938 12.9629L10.5709 10.4419ZM10.3899 12.8716C10.3899 13.8478 10.034 14.521 9.54183 14.9377C9.00461 15.3844 8.18707 15.5962 7.18813 15.5962C6.59002 15.5962 6.16657 15.5585 5.8787 15.5206V10.51C6.30266 10.4417 6.85498 10.4039 7.43791 10.4039C8.40672 10.4039 9.03518 10.578 9.52708 10.949C10.0565 11.3427 10.3899 11.9708 10.3899 12.8716ZM18.4707 21.0031H5.52949V17.2252H18.4706L18.4707 21.0031ZM18.6537 11.3882H16.6933V12.5539H18.525V13.492H16.6933V15.5435H15.5352V10.4419H18.6537V11.3882Z" fill="black"/>
<path d="M7.55878 11.29C7.30152 11.29 7.13485 11.3126 7.03642 11.3355V14.6733C7.13482 14.6959 7.29386 14.6959 7.43758 14.6959C8.48228 14.7037 9.16322 14.1279 9.16322 12.9097C9.17088 11.8498 8.55011 11.29 7.55878 11.29Z" fill="black"/>
</svg>
