<svg width="24" height="24" viewBox="0 0 24 24" fill="none" xmlns="http://www.w3.org/2000/svg">
<path d="M19 20V20.75H19.75V20H19ZM5 20H4.25V20.75H5V20ZM5 4V3.25H4.25V4H5ZM16 4L16.5303 3.46967L16.3107 3.25H16V4ZM19 7L19.75 7V6.68934L19.5303 6.46967L19 7ZM5 16H4.25V16.75H5V16ZM5 10L5 9.25L4.25 9.25V10H5ZM6.9 10V9.25H6.9L6.9 10ZM11.1708 9.66459C10.9856 9.29411 10.5351 9.14394 10.1646 9.32918C9.79411 9.51442 9.64394 9.96493 9.82918 10.3354L11.1708 9.66459ZM12.8292 16.3354C13.0144 16.7059 13.4649 16.8561 13.8354 16.6708C14.2059 16.4856 14.3561 16.0351 14.1708 15.6646L12.8292 16.3354ZM14.1708 10.3354C14.3561 9.96493 14.2059 9.51442 13.8354 9.32918C13.4649 9.14394 13.0144 9.29411 12.8292 9.66459L14.1708 10.3354ZM9.82918 15.6646C9.64394 16.0351 9.79411 16.4856 10.1646 16.6708C10.5351 16.8561 10.9856 16.7059 11.1708 16.3354L9.82918 15.6646ZM16 10V9.25H15.25V10H16ZM15.25 16C15.25 16.4142 15.5858 16.75 16 16.75C16.4142 16.75 16.75 16.4142 16.75 16H15.25ZM19 10.75C19.4142 10.75 19.75 10.4142 19.75 10C19.75 9.58579 19.4142 9.25 19 9.25V10.75ZM18.5 13.75C18.9142 13.75 19.25 13.4142 19.25 13C19.25 12.5858 18.9142 12.25 18.5 12.25V13.75ZM19 19.25H5V20.75H19V19.25ZM5 4.75H16V3.25H5V4.75ZM15.4697 4.53033L18.4697 7.53033L19.5303 6.46967L16.5303 3.46967L15.4697 4.53033ZM5.75 8V4H4.25V8H5.75ZM5.75 20V18H4.25V20H5.75ZM18.25 7L18.25 8L19.75 8L19.75 7L18.25 7ZM18.25 18V20H19.75V18H18.25ZM5.75 16V10H4.25V16H5.75ZM5 10.75L6.9 10.75L6.9 9.25L5 9.25L5 10.75ZM6.9 10.75C7.05601 10.75 7.29973 10.7997 7.4804 10.9216C7.62097 11.0165 7.75 11.1655 7.75 11.5H9.25C9.25 10.6345 8.8457 10.0335 8.31961 9.67836C7.83361 9.35032 7.27733 9.25 6.9 9.25V10.75ZM7.75 11.5V14.5H9.25V11.5H7.75ZM7.75 14.5C7.75 14.6198 7.70515 14.8245 7.58518 14.9807C7.49217 15.1018 7.31534 15.25 6.9 15.25V16.75C7.76467 16.75 8.38783 16.3982 8.77482 15.8943C9.13485 15.4255 9.25 14.8802 9.25 14.5H7.75ZM6.9 15.25H5V16.75H6.9V15.25ZM9.82918 10.3354L11.3292 13.3354L12.6708 12.6646L11.1708 9.66459L9.82918 10.3354ZM11.3292 13.3354L12.8292 16.3354L14.1708 15.6646L12.6708 12.6646L11.3292 13.3354ZM12.8292 9.66459L11.3292 12.6646L12.6708 13.3354L14.1708 10.3354L12.8292 9.66459ZM11.3292 12.6646L9.82918 15.6646L11.1708 16.3354L12.6708 13.3354L11.3292 12.6646ZM15.25 10V13H16.75V10H15.25ZM15.25 13V16H16.75V13H15.25ZM16 10.75H19V9.25H16V10.75ZM16 13.75H18.5V12.25H16V13.75Z" fill="black"/>
</svg>
