<svg width="24" height="24" viewBox="0 0 24 24" fill="none" xmlns="http://www.w3.org/2000/svg">
<path d="M19.7348 9.1539H19.2545V6.8367C19.2545 6.82215 19.2523 6.8077 19.2504 6.79293C19.2496 6.70093 19.2203 6.61054 19.1573 6.53905L15.3012 2.13405C15.3 2.13292 15.2989 2.13252 15.2981 2.13139C15.2752 2.10571 15.2484 2.08426 15.22 2.06588C15.2116 2.06015 15.2032 2.05545 15.1944 2.05059C15.1699 2.03728 15.1438 2.02608 15.117 2.01802C15.1097 2.01612 15.1032 2.01313 15.096 2.01116C15.0668 2.0043 15.0366 2 15.006 2H5.52906C5.09634 2 4.74477 2.35197 4.74477 2.78433V9.15368H4.26459C3.64554 9.15368 3.14358 9.65546 3.14358 10.2746V16.104C3.14358 16.7229 3.64554 17.2252 4.26459 17.2252H4.74477V21.2157C4.74477 21.6481 5.09634 22 5.52906 22H18.4702C18.9026 22 19.2545 21.6481 19.2545 21.2157V17.2252H19.7348C20.3536 17.2252 20.8557 16.7231 20.8557 16.1042V10.2748C20.8557 9.65568 20.3537 9.1539 19.7348 9.1539ZM5.52906 2.78451H14.6138V6.7972C14.6138 7.01387 14.7895 7.18936 15.006 7.18936H18.4703V9.15405H5.52906V2.78451ZM14.1624 14.7899V15.902H10.5042V10.0457H11.8336V14.7899H14.1624ZM9.34828 12.3486V13.4258H7.19322V14.8159H9.60004V15.9024H5.86359V10.0457H9.47832V11.1319H7.19325V12.3486H9.34828ZM18.4703 21.0033H5.52906V17.2252H18.4702V21.0033H18.4703ZM18.5248 11.1319H16.2739V12.4699H18.3768V13.5472H16.2739V15.9021H14.9443V10.0457H18.5248V11.1319Z" fill="black"/>
</svg>
