<svg width="24" height="24" viewBox="0 0 24 24" fill="none" xmlns="http://www.w3.org/2000/svg">
<path d="M19 20V20.75H19.75V20H19ZM5 20H4.25V20.75H5V20ZM5 4V3.25H4.25V4H5ZM16 4L16.5303 3.46967L16.3107 3.25H16V4ZM19 7L19.75 7V6.68934L19.5303 6.46967L19 7ZM5 10V9.25H4.25V10H5ZM5 16H4.25V16.75H5V16ZM8 10.75C8.41421 10.75 8.75 10.4142 8.75 10C8.75 9.58579 8.41421 9.25 8 9.25V10.75ZM7.5 13.75C7.91421 13.75 8.25 13.4142 8.25 13C8.25 12.5858 7.91421 12.25 7.5 12.25V13.75ZM8 16.75C8.41421 16.75 8.75 16.4142 8.75 16C8.75 15.5858 8.41421 15.25 8 15.25V16.75ZM10.5 10V9.25H9.75V10H10.5ZM18.7324 10.7605C19.1466 10.7605 19.4824 10.4247 19.4824 10.0105C19.4824 9.59624 19.1466 9.26045 18.7324 9.26045V10.7605ZM17.4909 10.0105L17.4372 9.26238L17.4909 10.0105ZM16.3025 12.3664L16.8747 11.8814L16.3025 12.3664ZM18.3567 13.364L17.9488 13.9933H17.9488L18.3567 13.364ZM17.4909 16V15.25H17.4909L17.4909 16ZM16.1721 15.25C15.7579 15.25 15.4221 15.5858 15.4221 16C15.4221 16.4142 15.7579 16.75 16.1721 16.75L16.1721 15.25ZM9.75 16C9.75 16.4142 10.0858 16.75 10.5 16.75C10.9142 16.75 11.25 16.4142 11.25 16H9.75ZM19 19.25H5V20.75H19V19.25ZM5 4.75H16V3.25H5V4.75ZM15.4697 4.53033L18.4697 7.53033L19.5303 6.46967L16.5303 3.46967L15.4697 4.53033ZM5.75 8V4H4.25V8H5.75ZM5.75 20V18H4.25V20H5.75ZM18.25 7L18.25 8L19.75 8L19.75 7L18.25 7ZM18.25 18V20H19.75V18H18.25ZM4.25 10V13H5.75V10H4.25ZM4.25 13V16H5.75V13H4.25ZM5 10.75H8V9.25H5V10.75ZM5 13.75H7.5V12.25H5V13.75ZM5 16.75H8V15.25H5V16.75ZM12 12.8525H10.5V14.3525H12V12.8525ZM11.25 13.6025V10H9.75V13.6025H11.25ZM10.5 10.75H12V9.25H10.5V10.75ZM12 10.75C12.3719 10.75 12.5222 10.8472 12.5861 10.9132C12.6542 10.9836 12.75 11.1488 12.75 11.5332H14.25C14.25 10.9176 14.0958 10.3162 13.6639 9.86997C13.2278 9.41939 12.6281 9.25 12 9.25V10.75ZM12.75 11.5332V12.1378H14.25V11.5332H12.75ZM12.75 12.1378C12.75 12.3308 12.7106 12.4505 12.6718 12.5244C12.6328 12.5987 12.5792 12.6561 12.5108 12.7034C12.3582 12.8089 12.1457 12.8525 12 12.8525V14.3525C12.3543 14.3525 12.8918 14.2637 13.3642 13.9369C13.8788 13.5809 14.25 12.9844 14.25 12.1378H12.75ZM18.7324 9.26045C18.0286 9.26045 17.8092 9.25458 17.7281 9.25201C17.7015 9.25117 17.6468 9.24836 17.5855 9.25154C17.5566 9.25303 17.4933 9.25836 17.4372 9.26238L17.5446 10.7585C17.5882 10.7554 17.6182 10.753 17.6392 10.7514C17.6638 10.7495 17.6649 10.7494 17.6631 10.7495C17.6444 10.7505 17.6144 10.7492 17.6805 10.7513C17.7847 10.7546 18.0222 10.7605 18.7324 10.7605V9.26045ZM17.4372 9.26238C16.3544 9.34011 15.6461 9.94467 15.3737 10.7309C15.1253 11.4477 15.2555 12.291 15.7304 12.8513L16.8747 11.8814C16.7735 11.7621 16.7 11.4846 16.791 11.222C16.8579 11.0289 17.0319 10.7953 17.5446 10.7585L17.4372 9.26238ZM15.7304 12.8513C16.1613 13.3598 16.6299 13.5219 17.0168 13.6313C17.3833 13.735 17.6304 13.787 17.9488 13.9933L18.7646 12.7346C18.2172 12.3798 17.7253 12.2729 17.4251 12.188C17.1454 12.1088 17.0198 12.0527 16.8747 11.8814L15.7304 12.8513ZM17.9488 13.9933C18.18 14.1432 18.3022 14.4619 18.2297 14.766C18.1965 14.9055 18.126 15.0184 18.0266 15.0973C17.9307 15.1733 17.7674 15.25 17.4909 15.25V16.75C18.6912 16.75 19.4726 16.0217 19.6889 15.1137C19.8895 14.2717 19.5944 13.2724 18.7646 12.7346L17.9488 13.9933ZM17.4909 15.25L16.1721 15.25L16.1721 16.75L17.4909 16.75L17.4909 15.25ZM9.75 13.6025V16H11.25V13.6025H9.75Z" fill="black"/>
</svg>
