<svg width="24" height="24" viewBox="0 0 24 24" fill="none" xmlns="http://www.w3.org/2000/svg">
<path d="M19.7352 9.15373H19.255V6.83648C19.255 6.82192 19.2527 6.80747 19.2508 6.79273C19.25 6.70083 19.2207 6.61041 19.1577 6.53881L15.3016 2.13413C15.3005 2.13301 15.2993 2.1325 15.2986 2.13137C15.2756 2.1057 15.2488 2.08435 15.2205 2.06587C15.212 2.06024 15.2036 2.05552 15.1948 2.05054C15.1703 2.03725 15.1442 2.02603 15.1174 2.01801C15.1101 2.01609 15.1036 2.01311 15.0963 2.01118C15.0673 2.00432 15.037 2 15.0063 2H5.52953C5.09678 2 4.74522 2.35196 4.74522 2.78435V9.15373H4.26508C3.6462 9.15373 3.14402 9.65547 3.14402 10.2747V16.1043C3.14402 16.7229 3.6462 17.2252 4.26508 17.2252H4.74522V21.2157C4.74522 21.648 5.09678 22 5.52953 22H18.4707C18.903 22 19.255 21.648 19.255 21.2157V17.2252H19.7353C20.3545 17.2252 20.8562 16.7229 20.8562 16.1043V10.2747C20.8561 9.65547 20.3544 9.15373 19.7352 9.15373ZM5.52953 2.78435H14.6142V6.79705C14.6142 7.01383 14.79 7.18921 15.0064 7.18921H18.4707V9.15391H5.52953V2.78435ZM14.6188 12.0819C14.6188 12.6686 14.4235 13.1665 14.0675 13.5043C13.6059 13.9397 12.9209 14.1354 12.1209 14.1354C11.9432 14.1354 11.7834 14.1262 11.6592 14.1086V16.2505H10.3168V10.3402C10.7346 10.269 11.3213 10.2156 12.1477 10.2156C12.9836 10.2156 13.5791 10.3756 13.9789 10.6955C14.361 10.9979 14.6188 11.4957 14.6188 12.0819ZM9.13561 12.6154V13.7176H6.93166V15.1396H9.39328V16.2506H5.57128V10.2602H9.2688V11.3712H6.93148V12.6154H9.13561ZM18.4707 21.0031H5.52953V17.2252H18.4707V21.0031ZM16.9468 16.3394C16.2625 16.3394 15.5872 16.1617 15.2492 15.9748L15.5253 14.8554C15.8893 15.0415 16.449 15.2284 17.0273 15.2284C17.6492 15.2284 17.9782 14.9706 17.9782 14.5796C17.9782 14.2063 17.6932 13.9929 16.9741 13.7352C15.9784 13.3884 15.3296 12.8375 15.3296 11.9665C15.3296 10.9444 16.1829 10.1623 17.5956 10.1623C18.2715 10.1623 18.7694 10.3045 19.1248 10.4644L18.8226 11.5574C18.5825 11.4422 18.1559 11.2733 17.5692 11.2733C16.9823 11.2733 16.6979 11.5398 16.6979 11.8507C16.6979 12.2328 17.0357 12.4018 17.8093 12.6952C18.8666 13.0862 19.3645 13.6375 19.3645 14.4817C19.3645 15.4861 18.5909 16.3394 16.9468 16.3394Z" fill="black"/>
<path d="M12.2195 11.2378C11.9437 11.2378 11.7573 11.2646 11.6597 11.2908V13.0598C11.7749 13.0862 11.9173 13.095 12.1128 13.095C12.8328 13.095 13.2772 12.731 13.2772 12.1175C13.2772 11.5664 12.8946 11.2378 12.2195 11.2378Z" fill="black"/>
</svg>
