<svg width="24" height="24" viewBox="0 0 24 24" fill="none" xmlns="http://www.w3.org/2000/svg">
<path d="M19 20V20.75H19.75V20H19ZM5 20H4.25V20.75H5V20ZM5 4V3.25H4.25V4H5ZM16 4L16.5303 3.46967L16.3107 3.25H16V4ZM19 7H19.75V6.68934L19.5303 6.46967L19 7ZM5 10V9.25H4.25V10H5ZM5 16H4.25V16.75H5V16ZM8 10.75C8.41421 10.75 8.75 10.4142 8.75 10C8.75 9.58579 8.41421 9.25 8 9.25V10.75ZM7.5 13.75C7.91421 13.75 8.25 13.4142 8.25 13C8.25 12.5858 7.91421 12.25 7.5 12.25V13.75ZM8 16.75C8.41421 16.75 8.75 16.4142 8.75 16C8.75 15.5858 8.41421 15.25 8 15.25V16.75ZM16 10V9.25H15.25V10H16ZM16 16H15.25V16.75H16V16ZM19 10.75C19.4142 10.75 19.75 10.4142 19.75 10C19.75 9.58579 19.4142 9.25 19 9.25V10.75ZM18.5 13.75C18.9142 13.75 19.25 13.4142 19.25 13C19.25 12.5858 18.9142 12.25 18.5 12.25V13.75ZM19 16.75C19.4142 16.75 19.75 16.4142 19.75 16C19.75 15.5858 19.4142 15.25 19 15.25V16.75ZM11.1708 9.66459C10.9856 9.29411 10.5351 9.14394 10.1646 9.32918C9.79411 9.51442 9.64394 9.96493 9.82918 10.3354L11.1708 9.66459ZM12.8292 16.3354C13.0144 16.7059 13.4649 16.8561 13.8354 16.6708C14.2059 16.4856 14.3561 16.0351 14.1708 15.6646L12.8292 16.3354ZM14.1708 10.3354C14.3561 9.96493 14.2059 9.51442 13.8354 9.32918C13.4649 9.14394 13.0144 9.29411 12.8292 9.66459L14.1708 10.3354ZM9.82918 15.6646C9.64394 16.0351 9.79411 16.4856 10.1646 16.6708C10.5351 16.8561 10.9856 16.7059 11.1708 16.3354L9.82918 15.6646ZM19 19.25H5V20.75H19V19.25ZM5 4.75H16V3.25H5V4.75ZM15.4697 4.53033L18.4697 7.53033L19.5303 6.46967L16.5303 3.46967L15.4697 4.53033ZM5.75 8V4H4.25V8H5.75ZM5.75 20V18H4.25V20H5.75ZM18.25 7V8H19.75V7H18.25ZM18.25 18V20H19.75V18H18.25ZM4.25 10V13H5.75V10H4.25ZM4.25 13V16H5.75V13H4.25ZM5 10.75H8V9.25H5V10.75ZM5 13.75H7.5V12.25H5V13.75ZM5 16.75H8V15.25H5V16.75ZM15.25 10V13H16.75V10H15.25ZM15.25 13V16H16.75V13H15.25ZM16 10.75H19V9.25H16V10.75ZM16 13.75H18.5V12.25H16V13.75ZM16 16.75H19V15.25H16V16.75ZM9.82918 10.3354L11.3292 13.3354L12.6708 12.6646L11.1708 9.66459L9.82918 10.3354ZM11.3292 13.3354L12.8292 16.3354L14.1708 15.6646L12.6708 12.6646L11.3292 13.3354ZM12.8292 9.66459L11.3292 12.6646L12.6708 13.3354L14.1708 10.3354L12.8292 9.66459ZM11.3292 12.6646L9.82918 15.6646L11.1708 16.3354L12.6708 13.3354L11.3292 12.6646Z" fill="black"/>
</svg>
