<svg width="24" height="24" viewBox="0 0 24 24" fill="none" xmlns="http://www.w3.org/2000/svg">
<path d="M19 20V20.75H19.75V20H19ZM5 20H4.25V20.75H5V20ZM5 4V3.25H4.25V4H5ZM16 4L16.5303 3.46967L16.3107 3.25H16V4ZM19 7L19.75 7V6.68934L19.5303 6.46967L19 7ZM5 10V9.25H4.25V10H5ZM4.25 16C4.25 16.4142 4.58579 16.75 5 16.75C5.41421 16.75 5.75 16.4142 5.75 16H4.25ZM8 10.75C8.41421 10.75 8.75 10.4142 8.75 10C8.75 9.58579 8.41421 9.25 8 9.25V10.75ZM7.5 13.75C7.91421 13.75 8.25 13.4142 8.25 13C8.25 12.5858 7.91421 12.25 7.5 12.25V13.75ZM10.75 10C10.75 9.58579 10.4142 9.25 10 9.25C9.58579 9.25 9.25 9.58579 9.25 10H10.75ZM10 16H9.25V16.75H10V16ZM13 16.75C13.4142 16.75 13.75 16.4142 13.75 16C13.75 15.5858 13.4142 15.25 13 15.25V16.75ZM14.2724 15.8181C14.1719 16.2199 14.4163 16.6271 14.8181 16.7276C15.2199 16.8281 15.6271 16.5837 15.7276 16.1819L14.2724 15.8181ZM16.5 10V9.25C16.1559 9.25 15.8559 9.48422 15.7724 9.8181L16.5 10ZM17.5 10L18.2276 9.8181C18.1441 9.48422 17.8442 9.25 17.5 9.25V10ZM18.2724 16.1819C18.3729 16.5837 18.7801 16.8281 19.1819 16.7276C19.5837 16.6271 19.8281 16.2199 19.7276 15.8181L18.2724 16.1819ZM19 19.25H5V20.75H19V19.25ZM5 4.75H16V3.25H5V4.75ZM15.4697 4.53033L18.4697 7.53033L19.5303 6.46967L16.5303 3.46967L15.4697 4.53033ZM5.75 8V4H4.25V8H5.75ZM5.75 20V18H4.25V20H5.75ZM18.25 7L18.25 8L19.75 8L19.75 7L18.25 7ZM18.25 18V20H19.75V18H18.25ZM4.25 10V13H5.75V10H4.25ZM4.25 13V16H5.75V13H4.25ZM5 10.75H8V9.25H5V10.75ZM5 13.75H7.5V12.25H5V13.75ZM9.25 10V16H10.75V10H9.25ZM10 16.75H13V15.25H10V16.75ZM15.7276 16.1819L16.2276 14.1819L14.7724 13.8181L14.2724 15.8181L15.7276 16.1819ZM16.2276 14.1819L17.2276 10.1819L15.7724 9.8181L14.7724 13.8181L16.2276 14.1819ZM16.5 10.75H17.5V9.25H16.5V10.75ZM16.7724 10.1819L17.7724 14.1819L19.2276 13.8181L18.2276 9.8181L16.7724 10.1819ZM17.7724 14.1819L18.2724 16.1819L19.7276 15.8181L19.2276 13.8181L17.7724 14.1819ZM15.5 14.75H18.5V13.25H15.5V14.75Z" fill="black"/>
</svg>
