<svg width="24" height="24" viewBox="0 0 24 24" fill="none" xmlns="http://www.w3.org/2000/svg">
<path d="M19.7348 9.15401H19.2546V6.83648C19.2546 6.82204 19.2523 6.80748 19.2504 6.79286C19.2496 6.70082 19.2203 6.61047 19.1573 6.53887L15.3013 2.13413C15.3 2.133 15.2989 2.13259 15.2982 2.13146C15.2752 2.10567 15.2484 2.08433 15.22 2.06599C15.2116 2.06026 15.2032 2.05555 15.1944 2.05063C15.1699 2.03728 15.1438 2.02615 15.117 2.01809C15.1097 2.01609 15.1032 2.01313 15.096 2.01123C15.0668 2.0043 15.0366 2 15.006 2H5.52907C5.09634 2 4.74478 2.35204 4.74478 2.78433V9.15368H4.2646C3.64554 9.15368 3.14359 9.65546 3.14359 10.2747V16.1042C3.14359 16.7231 3.64554 17.2252 4.2646 17.2252H4.74478V21.2157C4.74478 21.6481 5.09634 22 5.52907 22H18.4702C18.9026 22 19.2545 21.6481 19.2545 21.2157V17.2252H19.7348C20.3536 17.2252 20.8557 16.7231 20.8557 16.1042V10.2749C20.8557 9.6555 20.3537 9.15401 19.7348 9.15401ZM5.52907 2.78433H14.6138V6.79712C14.6138 7.01376 14.7895 7.18925 15.006 7.18925H18.4703V9.15394H5.52907V2.78433ZM13.6811 14.7792V15.8912H10.023V10.0355H11.3522V14.7792H13.6811ZM5.4432 15.8913V10.0355H9.02346V11.1212H6.77286V12.4596H8.87554V13.5368H6.77286V15.8913H5.4432ZM18.4703 21.0031H5.52907V17.2252H18.4702L18.4703 21.0031ZM18.0084 15.8913L17.5563 14.3882H15.8793L15.4626 15.8913H14.0899L15.8795 10.0355H17.6174L19.4334 15.8913H18.0084Z" fill="black"/>
<path d="M16.7045 11.0256H16.6871C16.6006 11.3732 16.5136 11.8163 16.4178 12.1553L16.0705 13.3978H17.3651L17.0001 12.1554C16.8958 11.8071 16.7917 11.3732 16.7045 11.0256Z" fill="black"/>
</svg>
