<svg width="24" height="24" viewBox="0 0 24 24" fill="none" xmlns="http://www.w3.org/2000/svg">
<path d="M19 20V20.75H19.75V20H19ZM5 20H4.25V20.75H5V20ZM5 4V3.25H4.25V4H5ZM16 4L16.5303 3.46967L16.3107 3.25H16V4ZM19 7H19.75V6.68934L19.5303 6.46967L19 7ZM2 10.5L1.99998 9.75005L1.25 9.75006V10.5H2ZM1.25 15.5C1.25 15.9142 1.58579 16.25 2 16.25C2.41421 16.25 2.75 15.9142 2.75 15.5H1.25ZM4.21179 11.25C4.626 11.25 4.96178 10.9142 4.96177 10.5C4.96176 10.0858 4.62597 9.74999 4.21175 9.75L4.21179 11.25ZM3.86212 13.75C4.27633 13.75 4.61212 13.4142 4.61212 13C4.61212 12.5858 4.27633 12.25 3.86212 12.25L3.86212 13.75ZM6.95454 10.5C6.95454 10.0858 6.61875 9.75 6.20454 9.75C5.79032 9.75 5.45454 10.0858 5.45454 10.5H6.95454ZM6.20454 15.5H5.45454V16.25H6.20454V15.5ZM8.08392 16.25C8.49813 16.25 8.83392 15.9142 8.83392 15.5C8.83392 15.0857 8.49813 14.75 8.08392 14.75V16.25ZM9.10814 15.3043C9.00008 15.7042 9.23664 16.1159 9.63651 16.224C10.0364 16.332 10.4481 16.0955 10.5562 15.6956L9.10814 15.3043ZM11.0909 10.5V9.75C10.7451 9.75 10.4441 9.98648 10.3622 10.3225L11.0909 10.5ZM11.9301 10.5L12.6586 10.3218C12.5765 9.98612 12.2756 9.75 11.9301 9.75V10.5ZM12.4644 15.694C12.5715 16.0941 12.9828 16.3316 13.3829 16.2244C13.783 16.1172 14.0205 15.706 13.9133 15.3059L12.4644 15.694ZM17.16 11.2587C17.5742 11.2587 17.91 10.9229 17.91 10.5087C17.91 10.0945 17.5742 9.75871 17.16 9.75871V11.2587ZM16.1182 10.5087L16.0649 9.76061L16.1182 10.5087ZM15.121 12.472L15.6915 11.9851L15.6915 11.9851L15.121 12.472ZM16.8448 13.3033L16.4389 13.934V13.934L16.8448 13.3033ZM16.1182 15.5V14.75H16.1182L16.1182 15.5ZM15.0116 14.75C14.5974 14.75 14.2616 15.0857 14.2616 15.5C14.2616 15.9142 14.5974 16.25 15.0116 16.25L15.0116 14.75ZM19.9697 10.5C19.9697 10.0858 19.6339 9.75 19.2197 9.75C18.8055 9.75 18.4697 10.0858 18.4697 10.5H19.9697ZM18.4697 15.5C18.4697 15.9142 18.8055 16.25 19.2197 16.25C19.6339 16.25 19.9697 15.9142 19.9697 15.5H18.4697ZM22.5303 10.5C22.5303 10.0858 22.1945 9.75 21.7803 9.75C21.3661 9.75 21.0303 10.0858 21.0303 10.5H22.5303ZM21.0303 15.5C21.0303 15.9142 21.3661 16.25 21.7803 16.25C22.1945 16.25 22.5303 15.9142 22.5303 15.5H21.0303ZM19 19.25H5V20.75H19V19.25ZM5 4.75H16V3.25H5V4.75ZM15.4697 4.53033L18.4697 7.53033L19.5303 6.46967L16.5303 3.46967L15.4697 4.53033ZM5.75 8V4H4.25V8H5.75ZM5.75 20V18H4.25V20H5.75ZM18.25 7V8H19.75V7H18.25ZM18.25 18V20H19.75V18H18.25ZM1.25 10.5V13H2.75V10.5H1.25ZM1.25 13V15.5H2.75V13H1.25ZM2.00002 11.25L4.21179 11.25L4.21175 9.75L1.99998 9.75005L2.00002 11.25ZM2 13.75L3.86212 13.75L3.86212 12.25L2 12.25L2 13.75ZM5.45454 10.5V15.5H6.95454V10.5H5.45454ZM6.20454 16.25H8.08392V14.75H6.20454V16.25ZM10.5562 15.6956L10.9699 14.1649L9.5218 13.7736L9.10814 15.3043L10.5562 15.6956ZM10.9745 14.1467L11.8196 10.6775L10.3622 10.3225L9.51713 13.7917L10.9745 14.1467ZM11.0909 11.25H11.9301V9.75H11.0909V11.25ZM11.2016 10.6782L12.0502 14.1475L13.5072 13.791L12.6586 10.3218L11.2016 10.6782ZM12.0543 14.1633L12.4644 15.694L13.9133 15.3059L13.5032 13.7752L12.0543 14.1633ZM10.2458 14.7192H12.7787V13.2192H10.2458V14.7192ZM17.16 9.75871C16.57 9.75871 16.3872 9.75382 16.3209 9.75173C16.3017 9.75113 16.2493 9.74847 16.1916 9.75144C16.1662 9.75274 16.108 9.75754 16.0649 9.76061L16.1716 11.2568C16.2085 11.2542 16.2341 11.2522 16.2517 11.2508C16.2731 11.2491 16.2721 11.2493 16.2687 11.2495C16.2468 11.2506 16.2152 11.2491 16.2737 11.251C16.3629 11.2538 16.5636 11.2587 17.16 11.2587V9.75871ZM16.0649 9.76061C15.1133 9.82845 14.4745 10.3604 14.2281 11.0667C14.0059 11.7036 14.1205 12.455 14.5505 12.9589L15.6915 11.9851C15.638 11.9224 15.5818 11.74 15.6444 11.5608C15.6701 11.4871 15.7128 11.4258 15.7771 11.3779C15.841 11.3304 15.9592 11.272 16.1716 11.2568L16.0649 9.76061ZM14.5505 12.9589C14.9356 13.41 15.3563 13.5533 15.6889 13.6467C16.0017 13.7346 16.1899 13.7737 16.4389 13.934L17.2507 12.6726C16.7732 12.3653 16.3412 12.2719 16.0946 12.2026C15.8678 12.1389 15.7899 12.1004 15.6915 11.9851L14.5505 12.9589ZM16.4389 13.934C16.5844 14.0276 16.6705 14.2358 16.6212 14.4415C16.5994 14.5321 16.5547 14.601 16.4948 14.6482C16.4381 14.6928 16.3276 14.75 16.1182 14.75V16.25C17.1781 16.25 17.8842 15.6067 18.0798 14.7915C18.2596 14.0421 17.9955 13.152 17.2507 12.6726L16.4389 13.934ZM16.1182 14.75L15.0116 14.75L15.0116 16.25L16.1182 16.25L16.1182 14.75ZM18.4697 10.5V13H19.9697V10.5H18.4697ZM18.4697 13V15.5H19.9697V13H18.4697ZM21.0303 10.5V13H22.5303V10.5H21.0303ZM21.0303 13V15.5H22.5303V13H21.0303ZM19.2197 13.75H21.7803V12.25H19.2197V13.75Z" fill="black"/>
</svg>
