<svg width="24" height="24" viewBox="0 0 24 24" fill="none" xmlns="http://www.w3.org/2000/svg">
<path d="M12.0509 12.6774C11.9847 12.44 11.9192 12.1428 11.8641 11.9052H11.8533C11.7986 12.1428 11.7437 12.4461 11.6837 12.6774L11.4643 13.5274H12.2803L12.0509 12.6774Z" fill="black"/>
<path d="M19.7352 9.15391H19.2549V6.8367C19.2549 6.82214 19.2526 6.80769 19.2507 6.79295C19.25 6.70094 19.2207 6.61056 19.1577 6.53906L15.3016 2.13402C15.3004 2.1329 15.2993 2.1325 15.2985 2.13137C15.2755 2.1057 15.2487 2.08424 15.2204 2.06587C15.212 2.06013 15.2036 2.05545 15.1948 2.05054C15.1702 2.03725 15.1442 2.02603 15.1174 2.01801C15.1101 2.01609 15.1036 2.01311 15.0963 2.01111C15.0672 2.00432 15.037 2 15.0063 2H5.52949C5.09674 2 4.74518 2.35196 4.74518 2.78435V9.15373H4.26505C3.64599 9.15373 3.14403 9.65547 3.14403 10.2746V16.104C3.14403 16.7229 3.64599 17.2252 4.26505 17.2252H4.74522V21.2157C4.74522 21.648 5.09678 22 5.52953 22H18.4707C18.903 22 19.255 21.648 19.255 21.2157V17.2252H19.7352C20.3541 17.2252 20.8562 16.7231 20.8562 16.1043V10.2749C20.8561 9.65569 20.3541 9.15391 19.7352 9.15391ZM5.52949 2.78449H14.6142V6.7972C14.6142 7.01386 14.79 7.18935 15.0063 7.18935H18.4706V9.15405H5.52949V2.78449ZM14.9964 13.5512C14.3832 13.3193 13.9838 12.9509 13.9838 12.3684C13.9838 11.6851 14.5093 11.1621 15.3797 11.1621C15.796 11.1621 16.1027 11.2574 16.3218 11.3643L16.1357 12.0949C15.9878 12.0178 15.7248 11.905 15.3634 11.905C15.002 11.905 14.8269 12.0833 14.8269 12.291C14.8269 12.5466 15.035 12.6594 15.5116 12.8555C16.1629 13.1171 16.4703 13.4855 16.4703 14.0502C16.4703 14.7215 15.9934 15.2921 14.98 15.2921C14.559 15.2921 14.1427 15.173 13.9345 15.0483L14.104 14.2997C14.3286 14.4245 14.6735 14.5494 15.0298 14.5494C15.4132 14.5494 15.6158 14.3768 15.6158 14.1153C15.6157 13.866 15.4402 13.7233 14.9964 13.5512ZM13.5836 15.2326H12.6856L12.4007 14.2047H11.3437L11.0809 15.2326H10.2159L11.3437 11.2277H12.439L13.5836 15.2326ZM9.9582 14.472V15.2326H7.65265V11.2277H8.49049V14.4721L9.9582 14.472ZM4.76664 15.2326V11.2277H7.0223V11.9701H5.6043V12.8855H6.92974V13.6223H5.6043V15.2327L4.76664 15.2326ZM18.4707 21.0033H5.52949V17.2252H18.4706L18.4707 21.0033ZM20.0787 15.2326H19.2461V13.5571H17.872V15.2326H17.0337V11.2277H17.872V12.7667H19.2461V11.2277H20.0787V15.2326Z" fill="black"/>
</svg>
