<svg xmlns="http://www.w3.org/2000/svg" width="20" height="20" fill="none" viewBox="0 0 20 20">
  <path fill="#A0A0A0" d="M10.051 10.677c-.066-.237-.132-.534-.187-.772h-.01c-.055.238-.11.541-.17.772l-.22.85h.816l-.229-.85z"/>
  <path fill="#A0A0A0" d="M17.735 7.154h-.48V4.837c0-.015-.002-.03-.004-.044a.384.384 0 00-.093-.254L13.302.134l-.003-.003a.381.381 0 00-.104-.08.41.41 0 00-.078-.033l-.02-.007a.398.398 0 00-.09-.011H3.53a.785.785 0 00-.785.784v6.37h-.48a1.12 1.12 0 00-1.121 1.12v5.83c0 .619.502 1.121 1.121 1.121h.48v3.99c0 .433.352.785.785.785h12.94a.785.785 0 00.785-.784v-3.99h.48c.62 0 1.121-.503 1.121-1.122v-5.83c0-.618-.502-1.12-1.12-1.12zM3.53.784h9.084v4.013c0 .217.176.392.392.392h3.465v1.965H3.53V.784zm9.466 10.767c-.613-.232-1.012-.6-1.012-1.183 0-.683.525-1.206 1.396-1.206.416 0 .723.095.942.202l-.186.73a1.647 1.647 0 00-.773-.189c-.36 0-.536.178-.536.386 0 .256.208.368.685.564.65.262.958.63.958 1.195 0 .671-.477 1.242-1.49 1.242-.421 0-.837-.119-1.045-.244l.169-.748c.225.124.57.25.926.25.383 0 .586-.173.586-.435 0-.249-.176-.392-.62-.564zm-1.412 1.682h-.898l-.285-1.028H9.344l-.263 1.028h-.865l1.128-4.005h1.095l1.145 4.005zm-3.626-.761v.76H5.653V9.229h.838v3.244h1.467zm-5.191.76V9.229h2.255v.742H3.604v.915H4.93v.737H3.604v1.61h-.837zm13.704 5.771H3.53v-3.778h12.94v3.778zm1.608-5.77h-.833v-1.676h-1.374v1.676h-.838V9.228h.838v1.539h1.374v-1.54h.833v4.006z"/>
</svg>
