<svg width="24" height="24" viewBox="0 0 24 24" fill="none" xmlns="http://www.w3.org/2000/svg">
<path d="M19.7352 9.15398H19.255V6.83667C19.255 6.82221 19.2527 6.80765 19.2508 6.79302C19.25 6.70101 19.2207 6.61063 19.1577 6.53903L15.3016 2.13413C15.3005 2.13301 15.2993 2.13261 15.2986 2.13137C15.2756 2.1057 15.2488 2.08435 15.2205 2.06587C15.212 2.06024 15.2036 2.05552 15.1948 2.05065C15.1703 2.03725 15.1442 2.02614 15.1174 2.01812C15.1101 2.01609 15.1036 2.01322 15.0963 2.01122C15.0673 2.00432 15.037 2 15.0063 2H5.52953C5.09678 2 4.74522 2.35196 4.74522 2.78435V9.1538H4.26508C3.64602 9.1538 3.14402 9.65547 3.14402 10.2747V16.1043C3.14402 16.7229 3.64598 17.2252 4.26508 17.2252H4.74522V21.2157C4.74522 21.648 5.09678 22 5.52953 22H18.4707C18.903 22 19.255 21.648 19.255 21.2157V17.2252H19.7353C20.3541 17.2252 20.8562 16.7231 20.8562 16.1043V10.2749C20.8561 9.65569 20.3541 9.15398 19.7352 9.15398ZM5.52953 2.78449H14.6142V6.7973C14.6142 7.01397 14.79 7.18946 15.0064 7.18946H18.4707V9.15416H5.52953V2.78449ZM13.7154 14.7755V15.8877H10.0574V10.0314H11.387V14.7755H13.7154ZM5.47822 15.8877V10.0314H9.05798V11.1174H6.80741V12.4555H8.91016V13.5328H6.80741V15.8877H5.47822V15.8877ZM18.4707 21.0033H5.52953V17.2252H18.4707V21.0033ZM16.8614 15.8877H15.3148L13.4379 10.0314H14.8892L15.6015 12.5076C15.8014 13.2029 15.9837 13.8717 16.1227 14.6019H16.1492C16.2966 13.898 16.4793 13.2029 16.679 12.5339L17.4264 10.0314H18.8338L16.8614 15.8877Z" fill="black"/>
</svg>
