<svg width="24" height="24" viewBox="0 0 24 24" fill="none" xmlns="http://www.w3.org/2000/svg">
<path d="M19 20V20.75H19.75V20H19ZM5 20H4.25V20.75H5V20ZM5 4V3.25H4.25V4H5ZM16 4L16.5303 3.46967L16.3107 3.25H16V4ZM19 7L19.75 7V6.68934L19.5303 6.46967L19 7ZM5 10V9.25H4.25V10H5ZM4.25 16C4.25 16.4142 4.58579 16.75 5 16.75C5.41421 16.75 5.75 16.4142 5.75 16H4.25ZM8 10.75C8.41421 10.75 8.75 10.4142 8.75 10C8.75 9.58579 8.41421 9.25 8 9.25V10.75ZM7.5 13.75C7.91421 13.75 8.25 13.4142 8.25 13C8.25 12.5858 7.91421 12.25 7.5 12.25V13.75ZM11.4621 10C11.4621 9.58579 11.1263 9.25 10.7121 9.25C10.2979 9.25 9.96207 9.58579 9.96207 10H11.4621ZM10.7121 16H9.96207V16.75H10.7121V16ZM13.7121 16.75C14.1263 16.75 14.4621 16.4142 14.4621 16C14.4621 15.5858 14.1263 15.25 13.7121 15.25V16.75ZM15.7115 9.76283C15.5805 9.36987 15.1558 9.1575 14.7628 9.28849C14.3699 9.41947 14.1575 9.84421 14.2885 10.2372L15.7115 9.76283ZM17 16L16.2885 16.2372C16.3906 16.5434 16.6772 16.75 17 16.75C17.3228 16.75 17.6094 16.5434 17.7115 16.2372L17 16ZM19.7115 10.2372C19.8425 9.84421 19.6301 9.41947 19.2372 9.28849C18.8442 9.1575 18.4195 9.36987 18.2885 9.76283L19.7115 10.2372ZM19 19.25H5V20.75H19V19.25ZM5 4.75H16V3.25H5V4.75ZM15.4697 4.53033L18.4697 7.53033L19.5303 6.46967L16.5303 3.46967L15.4697 4.53033ZM5.75 8V4H4.25V8H5.75ZM5.75 20V18H4.25V20H5.75ZM18.25 7L18.25 8L19.75 8L19.75 7L18.25 7ZM18.25 18V20H19.75V18H18.25ZM4.25 10V13H5.75V10H4.25ZM4.25 13V16H5.75V13H4.25ZM5 10.75H8V9.25H5V10.75ZM5 13.75H7.5V12.25H5V13.75ZM9.96207 10V16H11.4621V10H9.96207ZM10.7121 16.75H13.7121V15.25H10.7121V16.75ZM14.2885 10.2372L16.2885 16.2372L17.7115 15.7628L15.7115 9.76283L14.2885 10.2372ZM17.7115 16.2372L19.7115 10.2372L18.2885 9.76283L16.2885 15.7628L17.7115 16.2372Z" fill="black"/>
</svg>
