<svg xmlns="http://www.w3.org/2000/svg" width="20" height="20" fill="none" viewBox="0 0 20 20">
  <path fill="#A0A0A0" d="M17.735 7.154h-.48V4.837c0-.015-.002-.03-.004-.044a.386.386 0 00-.093-.254L13.3.134 13.3.131a.39.39 0 00-.182-.113l-.02-.007a.393.393 0 00-.09-.011H3.53a.785.785 0 00-.785.784v6.37h-.48c-.619 0-1.121.501-1.121 1.12v5.83c0 .619.502 1.121 1.121 1.121h.48v3.99c0 .433.352.785.785.785h12.94a.785.785 0 00.785-.784v-3.99h.48c.62 0 1.121-.503 1.121-1.122v-5.83c0-.619-.502-1.12-1.12-1.12zM3.53.784h9.084v4.013c0 .217.176.392.392.392h3.465v1.965H3.53V.784zm5.498 11.5v1.66H7.883V8.433h1.455l1.145 2.02c.327.58.654 1.267.9 1.888h.024a20.442 20.442 0 01-.106-2.298v-1.61h1.144v5.51h-1.308L9.96 11.819c-.327-.589-.687-1.3-.957-1.946l-.024.008c.032.728.049 1.504.049 2.404zm-2.225-1.57v1.014H4.824v2.216h-1.25V8.433h3.368v1.022H4.824v1.259h1.979zm9.668 8.29H3.53v-3.779h12.94v3.778zm.873-9.525H15.84v4.465h-1.252V9.479h-1.48V8.433h4.236v1.046z"/>
</svg>
