<svg width="24" height="24" viewBox="0 0 24 24" fill="none" xmlns="http://www.w3.org/2000/svg">
<path d="M19.7352 9.15391H19.255V6.8367C19.255 6.82214 19.2527 6.80769 19.2508 6.79295C19.25 6.70104 19.2205 6.61063 19.1577 6.53906L15.3014 2.13413C15.3005 2.13301 15.2993 2.1325 15.2986 2.13137C15.2756 2.1057 15.2488 2.08435 15.2205 2.06587C15.212 2.06024 15.2036 2.05545 15.1948 2.05054C15.1703 2.03725 15.1442 2.02603 15.1174 2.01801C15.1101 2.01609 15.1036 2.01311 15.0963 2.01118C15.0673 2.00432 15.037 2 15.0063 2H5.52953C5.09678 2 4.74522 2.35196 4.74522 2.78435V9.15373H4.26497C3.64602 9.15373 3.14402 9.65547 3.14402 10.2747V16.1043C3.14402 16.7229 3.64598 17.2252 4.26497 17.2252H4.74522V21.2157C4.74522 21.648 5.09678 22 5.52953 22H18.4707C18.903 22 19.255 21.648 19.255 21.2157V17.2252H19.7353C20.3541 17.2252 20.8562 16.7231 20.8562 16.1043V10.2749C20.8561 9.65547 20.3541 9.15391 19.7352 9.15391ZM5.52953 2.78449H14.6142V6.7972C14.6142 7.01386 14.79 7.18935 15.0064 7.18935H18.4707V9.15405H5.52953V2.78449ZM11.0275 14.2836V15.9438H9.88285V10.4325H11.3383L12.4828 12.4523C12.8099 13.0329 13.1371 13.7195 13.3824 14.3411H13.4069C13.3251 13.6135 13.3006 12.8694 13.3006 12.0433V10.4326H14.4453V15.9438H13.1371L11.9596 13.8176C11.6326 13.229 11.2728 12.5178 11.003 11.8718L10.9785 11.8799C11.0113 12.6078 11.0275 13.3844 11.0275 14.2836ZM8.80283 12.7139V13.728H6.82426V15.9438H5.57328V10.4325H8.94204V11.4547H6.82444V12.7138H8.80283V12.7139ZM18.4707 21.0033H5.52953V17.2252H18.4707V21.0033ZM19.3442 11.4793H17.8395V15.9438H16.5884V11.4793H15.1086V10.4325H19.3442V11.4793Z" fill="black"/>
</svg>
