<svg width="24" height="24" viewBox="0 0 24 24" fill="none" xmlns="http://www.w3.org/2000/svg">
<path d="M19 20V20.75H19.75V20H19ZM5 20H4.25V20.75H5V20ZM5 4V3.25H4.25V4H5ZM16 4L16.5303 3.46967L16.3107 3.25H16V4ZM19 7L19.75 7V6.68934L19.5303 6.46967L19 7ZM5 10V9.25H4.25V10H5ZM4.25 16C4.25 16.4142 4.58579 16.75 5 16.75C5.41421 16.75 5.75 16.4142 5.75 16H4.25ZM8 10.75C8.41421 10.75 8.75 10.4142 8.75 10C8.75 9.58579 8.41421 9.25 8 9.25V10.75ZM7.5 13.75C7.91421 13.75 8.25 13.4142 8.25 13C8.25 12.5858 7.91421 12.25 7.5 12.25V13.75ZM9.25 16C9.25 16.4142 9.58579 16.75 10 16.75C10.4142 16.75 10.75 16.4142 10.75 16H9.25ZM10 10L10.624 9.58397C10.4407 9.30898 10.099 9.18641 9.78266 9.28218C9.46634 9.37795 9.25 9.6695 9.25 10H10ZM14 16L13.376 16.416C13.5593 16.691 13.901 16.8136 14.2173 16.7178C14.5337 16.622 14.75 16.3305 14.75 16H14ZM14.75 10C14.75 9.58579 14.4142 9.25 14 9.25C13.5858 9.25 13.25 9.58579 13.25 10H14.75ZM17.25 16C17.25 16.4142 17.5858 16.75 18 16.75C18.4142 16.75 18.75 16.4142 18.75 16H17.25ZM16 9.25C15.5858 9.25 15.25 9.58579 15.25 10C15.25 10.4142 15.5858 10.75 16 10.75V9.25ZM20 10.75C20.4142 10.75 20.75 10.4142 20.75 10C20.75 9.58579 20.4142 9.25 20 9.25V10.75ZM19 19.25H5V20.75H19V19.25ZM5 4.75H16V3.25H5V4.75ZM15.4697 4.53033L18.4697 7.53033L19.5303 6.46967L16.5303 3.46967L15.4697 4.53033ZM5.75 8V4H4.25V8H5.75ZM18.25 7L18.25 8L19.75 8L19.75 7L18.25 7ZM18.25 18V20H19.75V18H18.25ZM4.25 10V13H5.75V10H4.25ZM4.25 13V16H5.75V13H4.25ZM5 10.75H8V9.25H5V10.75ZM5 13.75H7.5V12.25H5V13.75ZM10.75 16V10H9.25V16H10.75ZM9.37596 10.416L13.376 16.416L14.624 15.584L10.624 9.58397L9.37596 10.416ZM14.75 16V10H13.25V16H14.75ZM17.25 10V16H18.75V10H17.25ZM16 10.75H18V9.25H16V10.75ZM18 10.75H20V9.25H18V10.75ZM5.75 20V18H4.25V20H5.75Z" fill="black"/>
</svg>
