<svg width="24" height="24" viewBox="0 0 24 24" fill="none" xmlns="http://www.w3.org/2000/svg">
<path d="M19 20V20.75H19.75V20H19ZM5.00001 20H4.25001V20.75H5.00001V20ZM5.00001 4V3.25H4.25001V4H5.00001ZM16 4L16.5303 3.46967L16.3107 3.25H16V4ZM19 7L19.75 7V6.68934L19.5303 6.46967L19 7ZM15 10V9.25C14.5858 9.25 14.25 9.58579 14.25 10H15ZM14.25 16C14.25 16.4142 14.5858 16.75 15 16.75C15.4142 16.75 15.75 16.4142 15.75 16H14.25ZM15.7857 10L16.4866 9.733C16.3758 9.44219 16.0969 9.25 15.7857 9.25V10ZM17.5 14.5L16.7991 14.767C16.9099 15.0578 17.1888 15.25 17.5 15.25V14.5ZM18 14.5V15.25C18.3112 15.25 18.5901 15.0578 18.7009 14.767L18 14.5ZM19.7143 10V9.25C19.4031 9.25 19.1242 9.44219 19.0134 9.733L19.7143 10ZM20.5 10H21.25C21.25 9.58579 20.9142 9.25 20.5 9.25V10ZM19.75 16C19.75 16.4142 20.0858 16.75 20.5 16.75C20.9142 16.75 21.25 16.4142 21.25 16H19.75ZM8.41684 15.8181C8.31638 16.2199 8.5607 16.6271 8.96255 16.7276C9.3644 16.8281 9.7716 16.5837 9.87206 16.1819L8.41684 15.8181ZM10.6445 10V9.25C10.3003 9.25 10.0003 9.48422 9.91684 9.8181L10.6445 10ZM11.6445 10L12.3721 9.8181C12.2886 9.48422 11.9886 9.25 11.6445 9.25V10ZM12.4168 16.1819C12.5173 16.5837 12.9245 16.8281 13.3264 16.7276C13.7282 16.6271 13.9725 16.2199 13.8721 15.8181L12.4168 16.1819ZM4.00006 11.6364H4.75006V11.6363L4.00006 11.6364ZM7.50006 13.2727H8.25006V12.5227H7.50006V13.2727ZM19 19.25H5.00001V20.75H19V19.25ZM5.00001 4.75H16V3.25H5.00001V4.75ZM15.4697 4.53033L18.4697 7.53033L19.5303 6.46967L16.5303 3.46967L15.4697 4.53033ZM5.75001 8V4H4.25001V8H5.75001ZM5.75001 20V18H4.25001V20H5.75001ZM18.25 7L18.25 8L19.75 8L19.75 7L18.25 7ZM18.25 18V20H19.75V18H18.25ZM14.25 10V16H15.75V10H14.25ZM15 10.75H15.7857V9.25H15V10.75ZM15.0849 10.267L16.7991 14.767L18.2009 14.233L16.4866 9.733L15.0849 10.267ZM17.5 15.25H18V13.75H17.5V15.25ZM18.7009 14.767L20.4152 10.267L19.0134 9.733L17.2991 14.233L18.7009 14.767ZM19.7143 10.75H20.5V9.25H19.7143V10.75ZM19.75 10V16H21.25V10H19.75ZM9.87206 16.1819L10.3721 14.1819L8.91684 13.8181L8.41684 15.8181L9.87206 16.1819ZM10.3721 14.1819L11.3721 10.1819L9.91684 9.8181L8.91684 13.8181L10.3721 14.1819ZM10.6445 10.75H11.6445V9.25H10.6445V10.75ZM10.9168 10.1819L11.9168 14.1819L13.3721 13.8181L12.3721 9.8181L10.9168 10.1819ZM11.9168 14.1819L12.4168 16.1819L13.8721 15.8181L13.3721 13.8181L11.9168 14.1819ZM9.64445 14.75H12.6445V13.25H9.64445V14.75ZM5.6989 9.25C4.79806 9.25 4.16024 9.66113 3.7683 10.1769C3.40209 10.6588 3.25002 11.2286 3.25006 11.6364L4.75006 11.6363C4.75005 11.5441 4.80205 11.2957 4.96259 11.0845C5.09741 10.907 5.30903 10.75 5.6989 10.75V9.25ZM3.25006 11.6364V14.2149H4.75006V11.6364H3.25006ZM3.25006 14.2149C3.25006 15.5947 4.25108 16.7227 5.6989 16.7227V15.2227C5.14662 15.2227 4.75006 14.835 4.75006 14.2149H3.25006ZM8.25006 14.3636V13.2727H6.75006V14.3636H8.25006ZM7.50006 12.5227H5.98982V14.0227H7.50006V12.5227ZM8.25006 11.6364C8.25006 10.9132 7.95973 10.2948 7.46495 9.86709C6.98153 9.44921 6.34783 9.25 5.6989 9.25V10.75C6.04996 10.75 6.31684 10.8574 6.48401 11.0019C6.63981 11.1366 6.75006 11.3364 6.75006 11.6364H8.25006ZM5.6989 16.7227C6.31834 16.7227 6.95359 16.563 7.44917 16.1579C7.96595 15.7355 8.25006 15.1109 8.25006 14.3636H6.75006C6.75006 14.7073 6.63361 14.8872 6.49983 14.9966C6.34483 15.1233 6.07951 15.2227 5.6989 15.2227V16.7227Z" fill="black"/>
</svg>
