<svg width="24" height="24" viewBox="0 0 24 24" fill="none" xmlns="http://www.w3.org/2000/svg">
<path d="M11.4919 12.4396C11.4026 12.1428 11.3142 11.772 11.2395 11.4753H11.2247C11.1507 11.772 11.0764 12.1504 10.9948 12.4396L10.698 13.5003H11.8036L11.4919 12.4396Z" fill="black"/>
<path d="M19.7348 9.15372H19.2546V6.83648C19.2546 6.82193 19.2522 6.80748 19.2504 6.79271C19.2496 6.70079 19.2203 6.61044 19.1573 6.53883L15.3012 2.13413L15.2981 2.13139C15.2752 2.10571 15.2484 2.08433 15.22 2.06588C15.2116 2.06026 15.2032 2.05555 15.1943 2.05059C15.1698 2.03728 15.1438 2.02608 15.117 2.01802C15.1097 2.01612 15.1032 2.01313 15.096 2.01123C15.0668 2.0043 15.0365 2 15.006 2H5.52906C5.0963 2 4.74477 2.35197 4.74477 2.78433V9.15368H4.26462C3.64572 9.15368 3.14358 9.65546 3.14358 10.2747V16.1042C3.14358 16.7229 3.64572 17.2252 4.26462 17.2252H4.74477V21.2157C4.74477 21.6481 5.0963 22 5.52906 22H18.4703C18.9026 22 19.2546 21.6481 19.2546 21.2157V17.2252H19.7348C20.354 17.2252 20.8557 16.7229 20.8557 16.1042V10.2748C20.8557 9.6555 20.354 9.15372 19.7348 9.15372ZM5.52906 2.78433H14.6138V6.79701C14.6138 7.0138 14.7895 7.18918 15.0059 7.18918H18.4703V9.15387H5.52906V2.78433ZM13.5691 15.6297H12.3528L11.9671 14.3464H10.5352L10.179 15.6297H9.00714L10.5352 10.6302H12.0187L13.5691 15.6297ZM4.78774 15.0067C4.32733 14.5766 4.07535 13.924 4.08301 13.1895C4.0903 11.5276 5.29929 10.5781 6.9385 10.5781C7.58377 10.5781 8.08085 10.7046 8.32561 10.8232L8.08854 11.7281C7.81405 11.6094 7.47267 11.5128 6.92405 11.5128C5.98185 11.5128 5.26953 12.0471 5.26953 13.1298C5.26953 14.1611 5.91481 14.7691 6.84227 14.7691C7.10144 14.7691 7.3095 14.7394 7.39873 14.6952V13.6493H6.62655V12.7667H8.48855V15.4C8.14005 15.5187 7.48007 15.682 6.81947 15.682C5.90755 15.6819 5.2471 15.4517 4.78774 15.0067ZM18.4703 21.0031H5.52906V17.2252H18.4703V21.0031ZM18.538 15.6297L18.4641 13.7161C18.4419 13.1152 18.4197 12.388 18.4197 11.6614H18.3972C18.2416 12.2991 18.0337 13.011 17.8411 13.5973L17.2326 15.5481H16.3502L15.8158 13.6123C15.6526 13.0263 15.4824 12.314 15.3631 11.6614H15.3486C15.3193 12.336 15.2959 13.108 15.2593 13.731L15.1705 15.6297H14.1246L14.4432 10.6302H15.9492L16.4394 12.2991C16.5949 12.8778 16.7504 13.501 16.862 14.0868H16.8842C17.0251 13.5081 17.1951 12.8485 17.3587 12.292L17.8931 10.6302H19.3685L19.6428 15.6297H18.538Z" fill="black"/>
</svg>
