<svg width="24" height="24" viewBox="0 0 24 24" fill="none" xmlns="http://www.w3.org/2000/svg">
<path d="M12.9164 11.6335C12.9164 11.2314 12.6089 11.0183 12.0649 11.0183C11.8046 11.0183 11.6548 11.034 11.5524 11.0498V12.2878H11.9467C12.5775 12.2878 12.9164 12.0278 12.9164 11.6335Z" fill="black"/>
<path d="M16.8599 11.0343C16.5682 11.0343 16.4025 11.0581 16.3159 11.0738V12.5404H16.7889C17.3884 12.5404 17.7432 12.2405 17.7432 11.7754C17.7432 11.2867 17.412 11.042 16.8599 11.0343Z" fill="black"/>
<path d="M19.7348 9.1539H19.2546V6.8367C19.2546 6.82215 19.2523 6.8077 19.2504 6.79293C19.2496 6.70101 19.2203 6.61054 19.1573 6.53905L15.3012 2.13413C15.3001 2.13289 15.2989 2.13252 15.2981 2.13139C15.2752 2.1056 15.2484 2.08426 15.22 2.06588C15.2116 2.06015 15.2032 2.05545 15.1943 2.05059C15.1698 2.03728 15.1438 2.02608 15.117 2.01802C15.1097 2.01612 15.1032 2.01313 15.096 2.01116C15.0668 2.0043 15.0365 2 15.006 2H5.52907C5.0963 2 4.74477 2.35197 4.74477 2.78433V9.15368H4.26463C3.64554 9.15368 3.14358 9.65546 3.14358 10.2746V16.104C3.14358 16.7229 3.64554 17.2252 4.26463 17.2252H4.74477V21.2157C4.74477 21.6481 5.0963 22 5.52907 22H18.4703C18.9026 22 19.2546 21.6481 19.2546 21.2157V17.2252H19.7348C20.3536 17.2252 20.8557 16.7231 20.8557 16.1042V10.2748C20.8557 9.65568 20.3536 9.1539 19.7348 9.1539ZM5.52907 2.78451H14.6138V6.7972C14.6138 7.01387 14.7895 7.18936 15.0059 7.18936H18.4703V9.15405H5.52907V2.78451ZM14.3043 13.9441C14.3043 14.425 14.0834 14.8035 13.7521 15.072C13.3656 15.3793 12.7192 15.5528 11.6625 15.5528C11.0711 15.5528 10.6295 15.5135 10.3612 15.4741V10.2533C10.6768 10.1902 11.3154 10.1429 11.9148 10.1429C12.6484 10.1429 13.0976 10.2137 13.4841 10.4428C13.8545 10.6396 14.1228 11.0025 14.1228 11.4833C14.1228 11.9566 13.8467 12.3983 13.2474 12.6193V12.635C13.8545 12.8006 14.3043 13.2578 14.3043 13.9441ZM5.48679 14.8353C4.99793 14.378 4.72978 13.6841 4.73759 12.9031C4.74565 11.1364 6.03088 10.127 7.77364 10.127C8.45974 10.127 8.98792 10.2616 9.24833 10.3874L8.99598 11.3498C8.70428 11.2232 8.34151 11.1212 7.75796 11.1212C6.75659 11.1212 5.99955 11.6887 5.99955 12.8399C5.99955 13.9361 6.68564 14.5829 7.67132 14.5829C7.94734 14.5829 8.1681 14.5515 8.26291 14.5042V13.3925H7.44269V12.4538H9.42163V15.2531C9.0511 15.3797 8.34932 15.5528 7.64736 15.5528C6.67758 15.5528 5.97562 15.308 5.48679 14.8353ZM18.4703 21.0033H5.52907V17.2252H18.4703V21.0033ZM17.9088 15.4979C17.8222 15.3475 17.6959 14.914 17.5382 14.2599C17.396 13.5974 17.1674 13.4157 16.6786 13.408H16.3157V15.4979H15.1251V10.2533C15.5113 10.1902 16.087 10.1429 16.7259 10.1429C17.5142 10.1429 18.0665 10.2613 18.4448 10.5607C18.7602 10.8131 18.9339 11.1839 18.9339 11.6729C18.9339 12.3508 18.4527 12.8161 17.9954 12.9819V13.0057C18.3661 13.1554 18.571 13.5104 18.7052 13.9991C18.8707 14.5984 19.0363 15.2924 19.1389 15.4976L17.9088 15.4979Z" fill="black"/>
<path d="M11.9624 13.1477H11.5524V14.6463C11.6707 14.662 11.8126 14.662 12.0177 14.662C12.5618 14.662 13.043 14.4567 13.043 13.8971C13.0428 13.3607 12.5618 13.1477 11.9624 13.1477Z" fill="black"/>
</svg>
