<svg width="24" height="24" viewBox="0 0 24 24" fill="none" xmlns="http://www.w3.org/2000/svg">
<path d="M19 20V20.75H19.75V20H19ZM5 20L4.25 20L4.24998 20.75H5V20ZM5 4V3.25H4.24999L4.25 4.00001L5 4ZM16 4L16.5303 3.46967L16.3107 3.25H16V4ZM19 7L19.75 7V6.68934L19.5303 6.46967L19 7ZM5.00005 11.6438H5.75005V11.6438L5.00005 11.6438ZM8.50005 13.2877H9.25005V12.5377H8.50005V13.2877ZM10.75 10V9.25H10V10H10.75ZM10.75 16H10V16.75H10.75V16ZM13.75 10.75C14.1642 10.75 14.5 10.4142 14.5 10C14.5 9.58579 14.1642 9.25 13.75 9.25V10.75ZM13.25 13.75C13.6642 13.75 14 13.4142 14 13C14 12.5858 13.6642 12.25 13.25 12.25V13.75ZM13.75 16.75C14.1642 16.75 14.5 16.4142 14.5 16C14.5 15.5858 14.1642 15.25 13.75 15.25V16.75ZM16 16H15.25V16.75H16V16ZM16 10V9.25L15.25 9.25V10H16ZM17.9 10V9.25V10ZM19 19.25H5V20.75H19V19.25ZM5 4.75H16V3.25H5V4.75ZM15.4697 4.53033L18.4697 7.53033L19.5303 6.46967L16.5303 3.46967L15.4697 4.53033ZM5.75005 7.99999L5.75 3.99999L4.25 4.00001L4.25005 8.00001L5.75005 7.99999ZM5.75 20L5.75005 18L4.25005 18L4.25 20L5.75 20ZM18.25 7L18.25 8L19.75 8L19.75 7L18.25 7ZM18.25 18V20H19.75V18H18.25ZM6.69889 9.25C5.79663 9.25 5.15866 9.66372 4.76729 10.1811C4.40156 10.6646 4.25001 11.2358 4.25005 11.6439L5.75005 11.6438C5.75004 11.5496 5.80255 11.2989 5.96358 11.086C6.09896 10.9071 6.31044 10.75 6.69889 10.75V9.25ZM4.25005 11.6438V14.2341H5.75005V11.6438H4.25005ZM4.25005 14.2341C4.25005 15.6153 5.24793 16.75 6.69889 16.75V15.25C6.14974 15.25 5.75005 14.8622 5.75005 14.2341H4.25005ZM9.25005 14.3836V13.2877H7.75005V14.3836H9.25005ZM8.50005 12.5377H6.9898V14.0377H8.50005V12.5377ZM9.25005 11.6438C9.25005 10.9196 8.96069 10.2996 8.46622 9.87019C7.98286 9.45044 7.3487 9.25 6.69889 9.25V10.75C7.04907 10.75 7.3155 10.8575 7.48271 11.0028C7.63883 11.1383 7.75005 11.3403 7.75005 11.6438H9.25005ZM6.69889 16.75C7.31908 16.75 7.95483 16.5894 8.45045 16.1824C8.9669 15.7583 9.25005 15.1321 9.25005 14.3836H7.75005C7.75005 14.731 7.63264 14.913 7.49852 15.0231C7.34357 15.1504 7.07874 15.25 6.69889 15.25V16.75ZM10 10V13H11.5V10H10ZM10 13V16H11.5V13H10ZM10.75 10.75H13.75V9.25H10.75V10.75ZM10.75 13.75H13.25V12.25H10.75V13.75ZM10.75 16.75H13.75V15.25H10.75V16.75ZM16.75 16V10H15.25V16H16.75ZM16 10.75L17.9 10.75V9.25L16 9.25V10.75ZM17.9 10.75C18.056 10.75 18.2997 10.7997 18.4804 10.9216C18.621 11.0165 18.75 11.1655 18.75 11.5H20.25C20.25 10.6345 19.8457 10.0335 19.3196 9.67836C18.8336 9.35032 18.2773 9.25 17.9 9.25V10.75ZM18.75 11.5V14.5H20.25V11.5H18.75ZM18.75 14.5C18.75 14.6198 18.7051 14.8245 18.5852 14.9807C18.4922 15.1018 18.3153 15.25 17.9 15.25V16.75C18.7647 16.75 19.3878 16.3982 19.7748 15.8943C20.1349 15.4255 20.25 14.8802 20.25 14.5H18.75ZM17.9 15.25H16V16.75H17.9V15.25Z" fill="black"/>
</svg>
