<svg width="24" height="24" viewBox="0 0 24 24" fill="none" xmlns="http://www.w3.org/2000/svg">
<path d="M19.7348 9.15372H19.2545V6.83648C19.2545 6.82193 19.2523 6.80748 19.2504 6.79271C19.2496 6.70072 19.2203 6.61033 19.1573 6.53883L15.3012 2.13413C15.3 2.13289 15.2989 2.13252 15.2981 2.13139C15.2752 2.10571 15.2484 2.08426 15.22 2.06588C15.2116 2.06015 15.2032 2.05545 15.1944 2.05059C15.1699 2.03728 15.1438 2.02608 15.117 2.01802C15.1097 2.01612 15.1032 2.01313 15.096 2.01116C15.0668 2.0043 15.0366 2 15.006 2H5.52906C5.09634 2 4.74477 2.35197 4.74477 2.78433V9.15368H4.26459C3.64554 9.15368 3.14358 9.65546 3.14358 10.2746V16.104C3.14358 16.7229 3.64554 17.2252 4.26459 17.2252H4.74477V21.2157C4.74477 21.6481 5.09634 22 5.52906 22H18.4702C18.9026 22 19.2545 21.6481 19.2545 21.2157V17.2252H19.7348C20.3536 17.2252 20.8557 16.7231 20.8557 16.1042V10.2749C20.8557 9.6555 20.3537 9.15372 19.7348 9.15372ZM5.52906 2.78433H14.6138V6.79701C14.6138 7.01369 14.7895 7.18918 15.006 7.18918H18.4703V9.15387H5.52906V2.78433ZM13.7505 12.5174V13.4951H11.7948V14.757H13.9792V15.7427H10.5883V10.4276H13.869V11.4133H11.7948V12.5174H13.7505ZM4.96458 13.1481C4.97264 11.3819 6.25795 10.3725 8.0006 10.3725C8.68651 10.3725 9.21499 10.5067 9.47533 10.6325L9.22305 11.5949C8.93123 11.4684 8.56847 11.3663 7.98502 11.3663C6.98336 11.3663 6.22636 11.9339 6.22636 13.0849C6.22636 14.1815 6.91245 14.828 7.8981 14.828C8.17423 14.828 8.39502 14.7966 8.4895 14.7493V13.6376H7.66928V12.6986H9.64874V15.4985C9.27791 15.6244 8.57613 15.7979 7.87446 15.7979C6.90457 15.7979 6.20261 15.5536 5.71367 15.0802C5.22499 14.6229 4.95674 13.929 4.96458 13.1481ZM18.4703 21.0031H5.52906V17.2252H18.4702L18.4703 21.0031ZM18.6167 15.112C18.057 15.5768 17.2053 15.7979 16.1644 15.7979C15.5413 15.7979 15.0997 15.7584 14.8001 15.719V10.4988C15.2416 10.4276 15.8175 10.3882 16.4244 10.3882C17.4339 10.3882 18.0884 10.5698 18.601 10.956C19.1527 11.3663 19.4999 12.0207 19.4999 12.9589C19.5 13.9765 19.1295 14.6781 18.6167 15.112Z" fill="black"/>
<path d="M16.551 11.3104C16.2829 11.3104 16.1095 11.3342 16.0068 11.358V14.8358C16.1094 14.8591 16.2752 14.8591 16.4248 14.8591C17.5132 14.8672 18.2228 14.2679 18.2228 12.9983C18.2306 11.8942 17.5838 11.3104 16.551 11.3104Z" fill="black"/>
</svg>
