<svg width="24" height="24" viewBox="0 0 24 24" fill="none" xmlns="http://www.w3.org/2000/svg">
<path d="M19.7352 9.15391H19.2549V6.8367C19.2549 6.82214 19.2526 6.80769 19.2507 6.79295C19.25 6.70094 19.2207 6.61056 19.1577 6.53906L15.3016 2.13402C15.3004 2.1329 15.2993 2.1325 15.2985 2.13137C15.2755 2.1057 15.2487 2.08424 15.2204 2.06587C15.212 2.06013 15.2036 2.05545 15.1948 2.05054C15.1702 2.03725 15.1442 2.02603 15.1174 2.01801C15.1101 2.01609 15.1036 2.01311 15.0963 2.01111C15.0672 2.00432 15.037 2 15.0063 2H5.52949C5.09674 2 4.74518 2.35196 4.74518 2.78435V9.15373H4.26505C3.64599 9.15373 3.14403 9.65547 3.14403 10.2746V16.104C3.14403 16.7229 3.64599 17.2252 4.26505 17.2252H4.74522V21.2157C4.74522 21.648 5.09678 22 5.52953 22H18.4707C18.903 22 19.255 21.648 19.255 21.2157V17.2252H19.7352C20.3541 17.2252 20.8562 16.7231 20.8562 16.1043V10.2749C20.8561 9.65569 20.3541 9.15391 19.7352 9.15391ZM18.4707 21.0033H5.52949V17.2252H18.4706V21.0033H18.4707ZM9.03852 15.1809C9.3427 15.1809 9.58616 15.1465 9.69034 15.0943V13.8693H8.78664V12.8351H10.9676V15.9197C10.5594 16.0587 9.7854 16.2498 9.01249 16.2498C7.94365 16.2498 7.17034 15.9805 6.63149 15.4592C6.09267 14.9554 5.7974 14.1906 5.80618 13.3306C5.81461 11.3843 7.2313 10.2722 9.15149 10.2722C9.90718 10.2722 10.4891 10.4198 10.776 10.5589L10.498 11.6186C10.1766 11.4796 9.77676 11.3669 9.13348 11.3669C8.03054 11.3669 7.19597 11.9926 7.19597 13.2608C7.19619 14.4686 7.95254 15.1809 9.03852 15.1809ZM12.0021 16.1889V10.3331H13.3312V16.1889H12.0021ZM17.9108 12.7571V13.8344H15.8079V16.1889H14.4786V10.3331H18.0588V11.4188H15.8079V12.7571H17.9108V12.7571ZM18.4707 9.15391H5.52949V2.78449H14.6142V6.7972C14.6142 7.01386 14.79 7.18935 15.0063 7.18935H18.4706V9.15391H18.4707Z" fill="black"/>
</svg>
