<svg width="24" height="24" viewBox="0 0 24 24" fill="none" xmlns="http://www.w3.org/2000/svg">
<path d="M19 20V20.75H19.75V20H19ZM5 20H4.25V20.75H5V20ZM5 4V3.25H4.25V4H5ZM16 4L16.5303 3.46967L16.3107 3.25H16V4ZM19 7L19.75 7V6.68934L19.5303 6.46967L19 7ZM6.00005 11.6438H6.75005V11.6438L6.00005 11.6438ZM9.50005 13.2877H10.25V12.5377H9.50005V13.2877ZM12.75 10C12.75 9.58579 12.4142 9.25 12 9.25C11.5858 9.25 11.25 9.58579 11.25 10H12.75ZM11.25 16C11.25 16.4142 11.5858 16.75 12 16.75C12.4142 16.75 12.75 16.4142 12.75 16H11.25ZM15 10V9.25H14.25V10H15ZM14.25 16C14.25 16.4142 14.5858 16.75 15 16.75C15.4142 16.75 15.75 16.4142 15.75 16H14.25ZM18 10.75C18.4142 10.75 18.75 10.4142 18.75 10C18.75 9.58579 18.4142 9.25 18 9.25V10.75ZM17.5 13.75C17.9142 13.75 18.25 13.4142 18.25 13C18.25 12.5858 17.9142 12.25 17.5 12.25V13.75ZM19 19.25H5V20.75H19V19.25ZM5 4.75H16V3.25H5V4.75ZM15.4697 4.53033L18.4697 7.53033L19.5303 6.46967L16.5303 3.46967L15.4697 4.53033ZM5.75 8V4H4.25V8H5.75ZM5.75 20V18H4.25V20H5.75ZM18.25 7L18.25 8L19.75 8L19.75 7L18.25 7ZM18.25 18V20H19.75V18H18.25ZM7.69889 9.25C6.79663 9.25 6.15866 9.66372 5.76729 10.1811C5.40156 10.6646 5.25001 11.2358 5.25005 11.6439L6.75005 11.6438C6.75004 11.5496 6.80255 11.2989 6.96358 11.086C7.09896 10.9071 7.31044 10.75 7.69889 10.75V9.25ZM5.25005 11.6438V14.2341H6.75005V11.6438H5.25005ZM5.25005 14.2341C5.25005 15.6153 6.24793 16.75 7.69889 16.75V15.25C7.14974 15.25 6.75005 14.8622 6.75005 14.2341H5.25005ZM10.25 14.3836V13.2877H8.75005V14.3836H10.25ZM9.50005 12.5377H7.9898V14.0377H9.50005V12.5377ZM10.25 11.6438C10.25 10.9196 9.96068 10.2996 9.46622 9.87019C8.98286 9.45044 8.3487 9.25 7.69889 9.25V10.75C8.04907 10.75 8.3155 10.8575 8.48271 11.0028C8.63883 11.1383 8.75005 11.3403 8.75005 11.6438H10.25ZM7.69889 16.75C8.31908 16.75 8.95483 16.5894 9.45045 16.1824C9.9669 15.7583 10.25 15.1321 10.25 14.3836H8.75005C8.75005 14.731 8.63264 14.913 8.49852 15.0231C8.34357 15.1504 8.07874 15.25 7.69889 15.25V16.75ZM11.25 10V16H12.75V10H11.25ZM14.25 10V13H15.75V10H14.25ZM14.25 13V16H15.75V13H14.25ZM15 10.75H18V9.25H15V10.75ZM15 13.75H17.5V12.25H15V13.75Z" fill="black"/>
</svg>
