<svg width="24" height="24" viewBox="0 0 24 24" fill="none" xmlns="http://www.w3.org/2000/svg">
<path d="M19 20V20.75H19.75V20H19ZM5 20H4.25V20.75H5V20ZM5 4V3.25H4.25V4H5ZM16 4L16.5303 3.46967L16.3107 3.25H16V4ZM19 7L19.75 7V6.68934L19.5303 6.46967L19 7ZM5.00005 11.6438H5.75005V11.6438L5.00005 11.6438ZM8.50005 13.2877H9.25005V12.5377H8.50005V13.2877ZM11 10V9.25C10.5858 9.25 10.25 9.58579 10.25 10H11ZM10.25 16C10.25 16.4142 10.5858 16.75 11 16.75C11.4142 16.75 11.75 16.4142 11.75 16H10.25ZM16.6708 9.66459C16.4856 9.29411 16.0351 9.14394 15.6646 9.32918C15.2941 9.51442 15.1439 9.96493 15.3292 10.3354L16.6708 9.66459ZM18.3292 16.3354C18.5144 16.7059 18.9649 16.8561 19.3354 16.6708C19.7059 16.4856 19.8561 16.0351 19.6708 15.6646L18.3292 16.3354ZM19.6708 10.3354C19.8561 9.96493 19.7059 9.51442 19.3354 9.32918C18.9649 9.14394 18.5144 9.29411 18.3292 9.66459L19.6708 10.3354ZM15.3292 15.6646C15.1439 16.0351 15.2941 16.4856 15.6646 16.6708C16.0351 16.8561 16.4856 16.7059 16.6708 16.3354L15.3292 15.6646ZM19 19.25H5V20.75H19V19.25ZM5 4.75H16V3.25H5V4.75ZM15.4697 4.53033L18.4697 7.53033L19.5303 6.46967L16.5303 3.46967L15.4697 4.53033ZM5.75 8V4H4.25V8H5.75ZM5.75 20V18H4.25V20H5.75ZM18.25 7L18.25 8L19.75 8L19.75 7L18.25 7ZM18.25 18V20H19.75V18H18.25ZM6.69889 9.25C5.79663 9.25 5.15866 9.66372 4.76729 10.1811C4.40156 10.6646 4.25001 11.2358 4.25005 11.6439L5.75005 11.6438C5.75004 11.5496 5.80255 11.2989 5.96358 11.086C6.09896 10.9071 6.31044 10.75 6.69889 10.75V9.25ZM4.25005 11.6438V14.2341H5.75005V11.6438H4.25005ZM4.25005 14.2341C4.25005 15.6153 5.24793 16.75 6.69889 16.75V15.25C6.14974 15.25 5.75005 14.8622 5.75005 14.2341H4.25005ZM9.25005 14.3836V13.2877H7.75005V14.3836H9.25005ZM8.50005 12.5377H6.9898V14.0377H8.50005V12.5377ZM9.25005 11.6438C9.25005 10.9196 8.96069 10.2996 8.46622 9.87019C7.98286 9.45044 7.3487 9.25 6.69889 9.25V10.75C7.04907 10.75 7.3155 10.8575 7.48271 11.0028C7.63883 11.1383 7.75005 11.3403 7.75005 11.6438H9.25005ZM6.69889 16.75C7.31908 16.75 7.95483 16.5894 8.45045 16.1824C8.9669 15.7583 9.25005 15.1321 9.25005 14.3836H7.75005C7.75005 14.731 7.63264 14.913 7.49852 15.0231C7.34357 15.1504 7.07874 15.25 6.69889 15.25V16.75ZM11 14.3525H12.5V12.8525H11V14.3525ZM12.5 14.3525C12.8543 14.3525 13.3918 14.2637 13.8642 13.9369C14.3788 13.5809 14.75 12.9844 14.75 12.1378H13.25C13.25 12.3308 13.2106 12.4505 13.1718 12.5244C13.1328 12.5987 13.0792 12.6561 13.0108 12.7034C12.8582 12.8089 12.6457 12.8525 12.5 12.8525V14.3525ZM14.75 12.1378V11.5332H13.25V12.1378H14.75ZM14.75 11.5332C14.75 10.9176 14.5958 10.3162 14.1639 9.86997C13.7278 9.41939 13.1281 9.25 12.5 9.25V10.75C12.8719 10.75 13.0222 10.8472 13.0861 10.9132C13.1542 10.9836 13.25 11.1488 13.25 11.5332H14.75ZM12.5 9.25H11V10.75H12.5V9.25ZM10.25 13.6025V16H11.75V13.6025H10.25ZM10.25 10V13.6025H11.75V10H10.25ZM15.3292 10.3354L16.8292 13.3354L18.1708 12.6646L16.6708 9.66459L15.3292 10.3354ZM16.8292 13.3354L18.3292 16.3354L19.6708 15.6646L18.1708 12.6646L16.8292 13.3354ZM18.3292 9.66459L16.8292 12.6646L18.1708 13.3354L19.6708 10.3354L18.3292 9.66459ZM16.8292 12.6646L15.3292 15.6646L16.6708 16.3354L18.1708 13.3354L16.8292 12.6646Z" fill="black"/>
</svg>
