<svg width="24" height="24" viewBox="0 0 24 24" fill="none" xmlns="http://www.w3.org/2000/svg">
<path d="M19.7352 9.15373H19.2549V6.83648C19.2549 6.82192 19.2526 6.80747 19.2507 6.79273C19.25 6.70083 19.2205 6.61034 19.1577 6.53881L15.3014 2.13413C15.3004 2.1329 15.2993 2.1325 15.2985 2.13137C15.2755 2.1057 15.2487 2.08424 15.2204 2.06587C15.212 2.06024 15.2036 2.05552 15.1948 2.05054C15.1702 2.03725 15.1442 2.02603 15.1174 2.01801C15.1101 2.01609 15.1036 2.01311 15.0963 2.01118C15.0672 2.00432 15.037 2 15.0063 2H5.52949C5.09674 2 4.74518 2.35196 4.74518 2.78435V9.15373H4.26498C3.64602 9.15373 3.14403 9.65547 3.14403 10.2747V16.1043C3.14403 16.7229 3.64599 17.2252 4.26498 17.2252H4.74522V21.2157C4.74522 21.648 5.09678 22 5.52953 22H18.4707C18.903 22 19.255 21.648 19.255 21.2157V17.2252H19.7352C20.3541 17.2252 20.8562 16.7229 20.8562 16.1043V10.2747C20.8561 9.65547 20.3541 9.15373 19.7352 9.15373ZM5.52949 2.78435H14.6142V6.79705C14.6142 7.01372 14.79 7.18921 15.0063 7.18921H18.4706V9.15391H5.52949V2.78435ZM14.2431 11.9205C14.2431 12.4169 14.0776 12.8379 13.777 13.1232C13.386 13.492 12.8074 13.6573 12.1307 13.6573C11.9802 13.6573 11.845 13.6498 11.7399 13.6347V15.4467H10.6046V10.4473C10.9579 10.3871 11.454 10.342 12.1531 10.342C12.8598 10.342 13.3634 10.4771 13.7016 10.7481C14.025 11.0035 14.2431 11.4243 14.2431 11.9205ZM5.24515 12.9733C5.25299 11.2892 6.47811 10.327 8.13951 10.327C8.79343 10.327 9.29709 10.4545 9.54517 10.5747L9.30475 11.4924C9.02654 11.3717 8.68083 11.2741 8.12437 11.2741C7.16965 11.2741 6.44794 11.8155 6.44794 12.9131C6.44794 13.958 7.10207 14.5745 8.04165 14.5745C8.30494 14.5745 8.51521 14.5448 8.60556 14.4994V13.4392H7.82353V12.5446H9.7106V15.213C9.35748 15.3335 8.68827 15.4989 8.01925 15.4989C7.09456 15.4989 6.42572 15.2661 5.95945 14.8148C5.4934 14.3788 5.23788 13.7172 5.24515 12.9733ZM18.4707 21.0031H5.52949V17.2252H18.4706L18.4707 21.0031ZM17.4297 15.4465L16.9714 14.5291C16.7833 14.1758 16.6631 13.9125 16.5202 13.6193H16.5053C16.4 13.9125 16.2722 14.1758 16.1142 14.5291L15.6934 15.4465H14.3852L15.8512 12.8825L14.438 10.3796H15.7535L16.197 11.3043C16.3473 11.6125 16.4601 11.8606 16.5804 12.1463H16.5957C16.7159 11.823 16.8136 11.597 16.9415 11.3043L17.3698 10.3796H18.6779L17.2494 12.8529L18.7529 15.4467L17.4297 15.4465Z" fill="black"/>
<path d="M12.2139 11.2063C11.9807 11.2063 11.8228 11.2288 11.7403 11.2516V12.7471C11.8379 12.7701 11.9581 12.7776 12.1236 12.7776C12.7324 12.7776 13.1084 12.4691 13.1084 11.9506C13.1085 11.4847 12.7851 11.2063 12.2139 11.2063Z" fill="black"/>
</svg>
