<svg width="24" height="24" viewBox="0 0 24 24" fill="none" xmlns="http://www.w3.org/2000/svg">
<path d="M19 20V20.75H19.75V20H19ZM5 20H4.25V20.75H5V20ZM5 4V3.25H4.25V4H5ZM16 4L16.5303 3.46967L16.3107 3.25H16V4ZM19 7H19.75V6.68934L19.5303 6.46967L19 7ZM7.35382 11.6438H8.10382V11.6438L7.35382 11.6438ZM10.8538 13.2877H11.6038V12.5377H10.8538V13.2877ZM12.9664 9.25C12.5522 9.25 12.2164 9.58579 12.2164 10C12.2164 10.4142 12.5522 10.75 12.9664 10.75V9.25ZM16.4664 10H17.2164V9.25H16.4664V10ZM16.4664 10.2341L17.1001 10.6352L17.2164 10.4515V10.2341H16.4664ZM12.9664 15.7623L12.3327 15.3611L12.2164 15.5449V15.7623H12.9664ZM12.9664 16H12.2164V16.75H12.9664V16ZM16.6462 16.75C17.0604 16.75 17.3962 16.4142 17.3962 16C17.3962 15.5858 17.0604 15.25 16.6462 15.25V16.75ZM19 19.25H5V20.75H19V19.25ZM5 4.75H16V3.25H5V4.75ZM15.4697 4.53033L18.4697 7.53033L19.5303 6.46967L16.5303 3.46967L15.4697 4.53033ZM5.75 8.5V4H4.25V8.5H5.75ZM5.75 20V17.5H4.25V20H5.75ZM18.25 7V8.5H19.75V7H18.25ZM18.25 17.5V20H19.75V17.5H18.25ZM9.05265 9.25C8.15039 9.25 7.51243 9.66372 7.12106 10.1811C6.75533 10.6646 6.60378 11.2358 6.60382 11.6439L8.10382 11.6438C8.10381 11.5496 8.15632 11.2989 8.31734 11.086C8.45273 10.9071 8.6642 10.75 9.05265 10.75V9.25ZM6.60382 11.6438V14.2341H8.10382V11.6438H6.60382ZM6.60382 14.2341C6.60382 15.6153 7.6017 16.75 9.05265 16.75V15.25C8.50351 15.25 8.10382 14.8622 8.10382 14.2341H6.60382ZM11.6038 14.3836V13.2877H10.1038V14.3836H11.6038ZM10.8538 12.5377H9.34357V14.0377H10.8538V12.5377ZM11.6038 11.6438C11.6038 10.9196 11.3145 10.2996 10.82 9.87019C10.3366 9.45044 9.70247 9.25 9.05265 9.25V10.75C9.40284 10.75 9.66926 10.8575 9.83648 11.0028C9.9926 11.1383 10.1038 11.3403 10.1038 11.6438H11.6038ZM9.05265 16.75C9.67285 16.75 10.3086 16.5894 10.8042 16.1824C11.3207 15.7583 11.6038 15.1321 11.6038 14.3836H10.1038C10.1038 14.731 9.98641 14.913 9.85229 15.0231C9.69734 15.1504 9.43251 15.25 9.05265 15.25V16.75ZM12.9664 10.75H16.4664V9.25H12.9664V10.75ZM15.7164 10V10.2341H17.2164V10H15.7164ZM15.8327 9.83287L12.3327 15.3611L13.6001 16.1635L17.1001 10.6352L15.8327 9.83287ZM12.2164 15.7623V16H13.7164V15.7623H12.2164ZM12.9664 16.75H16.6462V15.25H12.9664V16.75Z" fill="black"/>
</svg>
