<svg width="24" height="24" viewBox="0 0 24 24" fill="none" xmlns="http://www.w3.org/2000/svg">
<path d="M19.7352 9.15398H19.2549V6.83667C19.2549 6.82221 19.2526 6.80765 19.2507 6.79302C19.25 6.70101 19.2207 6.61063 19.1577 6.5391L15.3014 2.13413C15.3003 2.13301 15.2991 2.13261 15.2982 2.13137C15.2754 2.1057 15.2484 2.08435 15.2202 2.06587C15.2118 2.06024 15.2034 2.05552 15.1946 2.05065C15.1701 2.03733 15.144 2.02614 15.117 2.01812C15.1097 2.01609 15.1034 2.01322 15.0962 2.01122C15.0672 2.00432 15.0366 2 15.0061 2H5.52949C5.09674 2 4.74518 2.35196 4.74518 2.78435V9.1538H4.26498C3.64602 9.1538 3.14403 9.65547 3.14403 10.2747V16.1043C3.14403 16.7229 3.64599 17.2252 4.26498 17.2252H4.74522V21.2157C4.74522 21.648 5.09678 22 5.52953 22H18.4707C18.903 22 19.255 21.648 19.255 21.2157V17.2254H19.7352C20.3541 17.2254 20.8562 16.7231 20.8562 16.1043V10.2749C20.8561 9.65569 20.3541 9.15398 19.7352 9.15398ZM18.4707 21.0033H5.52949V17.2254H18.4706V21.0033H18.4707ZM9.34651 14.8933C9.63257 14.8933 9.86169 14.8608 9.95973 14.8117V13.6586H9.10926V12.6859H11.1616V15.5888C10.7773 15.7194 10.0497 15.8994 9.32178 15.8994C8.31594 15.8994 7.58831 15.6458 7.08145 15.1548C6.57463 14.6807 6.29656 13.9612 6.30462 13.1516C6.31286 11.3202 7.64557 10.2736 9.45257 10.2736C10.164 10.2736 10.7119 10.4126 10.9817 10.5432L10.7203 11.5408C10.4177 11.4102 10.0415 11.3038 9.43653 11.3038C8.39811 11.3038 7.61304 11.8924 7.61304 13.0861C7.61304 14.2227 8.32437 14.8933 9.34651 14.8933ZM12.0293 11.3612V10.331H16.0277V11.0502L13.4603 14.7792V14.8117H16.0685V15.8419H11.784V15.1713L14.4087 11.3937V11.3612H12.0293V11.3612ZM18.4707 9.15398H5.52949V2.78449H14.6142V6.7973C14.6142 7.01397 14.79 7.18946 15.0063 7.18946H18.4706V9.15398H18.4707Z" fill="black"/>
</svg>
