<svg width="24" height="24" viewBox="0 0 24 24" fill="none" xmlns="http://www.w3.org/2000/svg">
<path d="M19 20V20.75H19.75V20H19ZM5 20H4.25L4.25 20.75H5V20ZM5 4V3.25H4.25191L4.25 3.99809L5 4ZM16 4L16.5303 3.46967L16.3107 3.25H16V4ZM19 7H19.75V6.68934L19.5303 6.46967L19 7ZM3.00005 11.6438H3.75005V11.6438L3.00005 11.6438ZM6.50005 13.2877H7.25005V12.5377H6.50005V13.2877ZM15.1639 10C15.1639 9.58579 14.8281 9.25 14.4139 9.25C13.9997 9.25 13.6639 9.58579 13.6639 10H15.1639ZM13.6639 16C13.6639 16.4142 13.9997 16.75 14.4139 16.75C14.8281 16.75 15.1639 16.4142 15.1639 16H13.6639ZM17 10V9.25H16.25V10H17ZM8.5 9.25C8.08579 9.25 7.75 9.58579 7.75 10C7.75 10.4142 8.08579 10.75 8.5 10.75V9.25ZM11.8289 10H12.5789V9.25H11.8289V10ZM11.8289 10.2341L12.4714 10.6209L12.5789 10.4424V10.2341H11.8289ZM8.5 15.7623L7.85749 15.3754L7.75 15.554V15.7623H8.5ZM8.5 16H7.75V16.75H8.5V16ZM12 16.75C12.4142 16.75 12.75 16.4142 12.75 16C12.75 15.5858 12.4142 15.25 12 15.25V16.75ZM16.25 16C16.25 16.4142 16.5858 16.75 17 16.75C17.4142 16.75 17.75 16.4142 17.75 16H16.25ZM19 19.25H5V20.75H19V19.25ZM5 4.75H16V3.25H5V4.75ZM15.4697 4.53033L18.4697 7.53033L19.5303 6.46967L16.5303 3.46967L15.4697 4.53033ZM5.7398 8.00191L5.75 4.00191L4.25 3.99809L4.2398 7.99809L5.7398 8.00191ZM5.75 20L5.75 18H4.25L4.25 20H5.75ZM18.25 7V8H19.75V7H18.25ZM18.25 18L18.25 20H19.75L19.75 18H18.25ZM4.69889 9.25C3.79663 9.25 3.15866 9.66372 2.76729 10.1811C2.40156 10.6646 2.25001 11.2358 2.25005 11.6439L3.75005 11.6438C3.75004 11.5496 3.80255 11.2989 3.96358 11.086C4.09896 10.9071 4.31044 10.75 4.69889 10.75V9.25ZM2.25005 11.6438V14.2341H3.75005V11.6438H2.25005ZM2.25005 14.2341C2.25005 15.6153 3.24793 16.75 4.69889 16.75V15.25C4.14974 15.25 3.75005 14.8622 3.75005 14.2341H2.25005ZM7.25005 14.3836V13.2877H5.75005V14.3836H7.25005ZM6.50005 12.5377H4.9898V14.0377H6.50005V12.5377ZM7.25005 11.6438C7.25005 10.9196 6.96068 10.2996 6.46622 9.87019C5.98286 9.45044 5.3487 9.25 4.69889 9.25V10.75C5.04907 10.75 5.3155 10.8575 5.48271 11.0028C5.63883 11.1383 5.75005 11.3403 5.75005 11.6438H7.25005ZM4.69889 16.75C5.31908 16.75 5.95483 16.5894 6.45045 16.1824C6.9669 15.7583 7.25005 15.1321 7.25005 14.3836H5.75005C5.75005 14.731 5.63264 14.913 5.49852 15.0231C5.34357 15.1504 5.07874 15.25 4.69889 15.25V16.75ZM13.6639 10V16H15.1639V10H13.6639ZM18.5 12.8525H17V14.3525H18.5V12.8525ZM17.75 13.6025V10H16.25V13.6025H17.75ZM17 10.75H18.5V9.25H17V10.75ZM18.5 10.75C18.8719 10.75 19.0222 10.8472 19.0861 10.9132C19.1542 10.9836 19.25 11.1488 19.25 11.5332H20.75C20.75 10.9176 20.5958 10.3162 20.1639 9.86997C19.7278 9.41939 19.1281 9.25 18.5 9.25V10.75ZM19.25 11.5332V12.1378H20.75V11.5332H19.25ZM19.25 12.1378C19.25 12.3308 19.2106 12.4505 19.1718 12.5244C19.1328 12.5987 19.0792 12.6561 19.0108 12.7034C18.8582 12.8089 18.6457 12.8525 18.5 12.8525V14.3525C18.8543 14.3525 19.3918 14.2637 19.8642 13.9369C20.3788 13.5809 20.75 12.9844 20.75 12.1378H19.25ZM8.5 10.75H11.8289V9.25H8.5V10.75ZM11.0789 10V10.2341H12.5789V10H11.0789ZM11.1864 9.84716L7.85749 15.3754L9.1425 16.1492L12.4714 10.6209L11.1864 9.84716ZM7.75 15.7623V16H9.25V15.7623H7.75ZM8.5 16.75H12V15.25H8.5V16.75ZM16.25 13.6025V16H17.75V13.6025H16.25Z" fill="black"/>
</svg>
