<svg width="24" height="24" viewBox="0 0 24 24" fill="none" xmlns="http://www.w3.org/2000/svg">
<path d="M19.7352 9.15391H19.255V6.8367C19.255 6.82214 19.2527 6.80769 19.2508 6.79295C19.25 6.70104 19.2205 6.61063 19.1577 6.53906L15.3016 2.13413C15.3005 2.13301 15.2993 2.1325 15.2986 2.13137C15.2756 2.1057 15.2488 2.08435 15.2205 2.06587C15.212 2.06024 15.2036 2.05545 15.1948 2.05054C15.1703 2.03725 15.1442 2.02603 15.1174 2.01801C15.1102 2.01609 15.1037 2.01311 15.0964 2.01118C15.0673 2.00432 15.037 2 15.0063 2H5.52955C5.0968 2 4.74524 2.35196 4.74524 2.78435V9.15373H4.26499C3.64622 9.15373 3.14404 9.65547 3.14404 10.2747V16.1043C3.14404 16.7229 3.64622 17.2252 4.26499 17.2252H4.74524V21.2157C4.74524 21.648 5.0968 22 5.52955 22H18.4707C18.903 22 19.255 21.648 19.255 21.2157V17.2252H19.7353C20.3545 17.2252 20.8562 16.7231 20.8562 16.1043V10.2749C20.8561 9.65547 20.3544 9.15391 19.7352 9.15391ZM5.52955 2.78449H14.6142V6.7972C14.6142 7.01386 14.79 7.18935 15.0064 7.18935H18.4707V9.15405H5.52955V2.78449ZM15.2116 15.8434L14.8517 16.8081C14.0666 16.5795 13.4125 16.3424 12.6764 16.0311C12.5539 15.982 12.4229 15.9576 12.2922 15.9495C11.0495 15.8679 9.88835 14.9519 9.88835 13.1529C9.88835 11.5012 10.9346 10.2584 12.5784 10.2584C14.263 10.2584 15.1867 11.5337 15.1867 13.0388C15.1867 14.2897 14.6062 15.1725 13.8785 15.4999V15.5328C14.304 15.6554 14.7777 15.7535 15.2116 15.8434ZM4.50693 15.8595V10.3486H5.75816V12.4664H7.81048V10.3486H9.05321V15.8595H7.81048V13.5535H5.75816V15.8595H4.50693ZM18.4707 21.0033H5.52955V17.2252H18.4707V21.0033ZM19.9382 15.8595H15.6536V15.1889L18.2784 11.4112V11.3786H15.8987V10.3485H19.8972V11.068L17.3298 14.7967V14.8293H19.9382V15.8595Z" fill="black"/>
<path d="M12.5459 11.2483C11.6952 11.2483 11.2046 12.0824 11.2046 13.113C11.1966 14.1596 11.7033 14.9604 12.5375 14.9604C13.38 14.9604 13.8702 14.1677 13.8702 13.0885C13.8702 12.0824 13.3961 11.2483 12.5459 11.2483Z" fill="black"/>
</svg>
