<svg width="24" height="24" viewBox="0 0 24 24" fill="none" xmlns="http://www.w3.org/2000/svg">
<path d="M19 20V20.6585H19.6585V20H19ZM5 20H4.34146V20.6585H5V20ZM5 4V3.34146H4.34146V4H5ZM16 4L16.4657 3.53434L16.2728 3.34146H16V4ZM19 7H19.6585V6.72723L19.4657 6.53434L19 7ZM3.65854 10.4846C3.65854 10.1209 3.3637 9.82609 3 9.82609C2.6363 9.82609 2.34146 10.1209 2.34146 10.4846H3.65854ZM2.34146 15.7529C2.34146 16.1166 2.6363 16.4115 3 16.4115C3.3637 16.4115 3.65854 16.1166 3.65854 15.7529H2.34146ZM6.29268 10.4846C6.29268 10.1209 5.99785 9.82609 5.63415 9.82609C5.27045 9.82609 4.97561 10.1209 4.97561 10.4846H6.29268ZM4.97561 15.7529C4.97561 16.1166 5.27045 16.4115 5.63415 16.4115C5.99785 16.4115 6.29268 16.1166 6.29268 15.7529H4.97561ZM8.34146 15.7529C8.34146 16.1166 8.6363 16.4115 9 16.4115C9.3637 16.4115 9.65854 16.1166 9.65854 15.7529H8.34146ZM7.2439 9.82609C6.8802 9.82609 6.58537 10.1209 6.58537 10.4846C6.58537 10.8483 6.8802 11.1432 7.2439 11.1432V9.82609ZM10.7561 11.1432C11.1198 11.1432 11.4146 10.8483 11.4146 10.4846C11.4146 10.1209 11.1198 9.82609 10.7561 9.82609V11.1432ZM19.6585 10.4846C19.6585 10.1209 19.3637 9.82609 19 9.82609C18.6363 9.82609 18.3415 10.1209 18.3415 10.4846H19.6585ZM19 15.7529H18.3415V16.4115H19V15.7529ZM21.1951 16.4115C21.5588 16.4115 21.8537 16.1166 21.8537 15.7529C21.8537 15.3892 21.5588 15.0944 21.1951 15.0944V16.4115ZM12.6585 10.4846V9.82609C12.2948 9.82609 12 10.1209 12 10.4846H12.6585ZM12 15.7529C12 16.1166 12.2948 16.4115 12.6585 16.4115C13.0222 16.4115 13.3171 16.1166 13.3171 15.7529H12ZM13.2857 10.4846L13.8978 10.2417C13.7983 9.99083 13.5557 9.82609 13.2857 9.82609V10.4846ZM14.8537 14.4358L14.2416 14.6787C14.3416 14.9308 14.586 15.0958 14.8572 15.0944C15.1284 15.0929 15.371 14.9253 15.4683 14.6722L14.8537 14.4358ZM16.3728 10.4846V9.82609C16.1003 9.82609 15.8559 9.99394 15.7582 10.2483L16.3728 10.4846ZM17 10.4846H17.6585C17.6585 10.1209 17.3637 9.82609 17 9.82609V10.4846ZM16.3415 15.7529C16.3415 16.1166 16.6363 16.4115 17 16.4115C17.3637 16.4115 17.6585 16.1166 17.6585 15.7529H16.3415ZM19 19.3415H5V20.6585H19V19.3415ZM5 4.65854H16V3.34146H5V4.65854ZM15.5343 4.46566L18.5343 7.46566L19.4657 6.53434L16.4657 3.53434L15.5343 4.46566ZM5.65854 8V4H4.34146V8H5.65854ZM5.65854 20V18H4.34146V20H5.65854ZM18.3415 7V8H19.6585V7H18.3415ZM18.3415 18V20H19.6585V18H18.3415ZM2.34146 10.4846V12.9846H3.65854V10.4846H2.34146ZM2.34146 12.9846V15.7529H3.65854V12.9846H2.34146ZM4.97561 10.4846V12.9846H6.29268V10.4846H4.97561ZM4.97561 12.9846V15.7529H6.29268V12.9846H4.97561ZM3 13.6432H5.63415V12.3261H3V13.6432ZM8.34146 10.4846V15.7529H9.65854V10.4846H8.34146ZM7.2439 11.1432H9V9.82609H7.2439V11.1432ZM9 11.1432H10.7561V9.82609H9V11.1432ZM18.3415 10.4846V15.7529H19.6585V10.4846H18.3415ZM19 16.4115H21.1951V15.0944H19V16.4115ZM12 10.4846V15.7529H13.3171V10.4846H12ZM12.6585 11.1432H13.2857V9.82609H12.6585V11.1432ZM12.6736 10.7275L14.2416 14.6787L15.4658 14.193L13.8978 10.2417L12.6736 10.7275ZM15.4683 14.6722L16.9875 10.721L15.7582 10.2483L14.239 14.1995L15.4683 14.6722ZM16.3728 11.1432H17V9.82609H16.3728V11.1432ZM16.3415 10.4846V15.7529H17.6585V10.4846H16.3415Z" fill="black"/>
</svg>
