<svg width="24" height="24" viewBox="0 0 24 24" fill="none" xmlns="http://www.w3.org/2000/svg">
<path d="M19 20V20.75H19.75V20H19ZM5 20L4.25 19.9999L4.24986 20.75H5V20ZM5 4V3.25H4.25V4H5ZM16 4L16.5303 3.46967L16.3107 3.25H16V4ZM19 7H19.75V6.68934L19.5303 6.46967L19 7ZM2.75 11.0001C2.75 10.5858 2.41421 10.2501 2 10.2501C1.58579 10.2501 1.25 10.5858 1.25 11.0001H2.75ZM1.25 15C1.25 15.4142 1.58579 15.75 2 15.75C2.41421 15.75 2.75 15.4142 2.75 15H1.25ZM17.6726 11C17.6726 10.5858 17.3368 10.25 16.9226 10.25C16.5084 10.25 16.1726 10.5858 16.1726 11H17.6726ZM16.1726 15C16.1726 15.4142 16.5084 15.75 16.9226 15.75C17.3368 15.75 17.6726 15.4142 17.6726 15H16.1726ZM19.6589 11.4711C19.9191 11.1489 19.8688 10.6767 19.5465 10.4165C19.2242 10.1563 18.752 10.2066 18.4918 10.5289L19.6589 11.4711ZM18.3182 12.3374C18.1012 11.9846 17.6392 11.8745 17.2864 12.0915C16.9336 12.3085 16.8235 12.7705 17.0405 13.1233L18.3182 12.3374ZM18.4365 15.393C18.6535 15.7458 19.1155 15.8559 19.4683 15.6389C19.8211 15.4218 19.9312 14.9599 19.7142 14.6071L18.4365 15.393ZM22.7436 11.757C23.1578 11.757 23.4936 11.4212 23.4936 11.007C23.4936 10.5928 23.1578 10.257 22.7436 10.257V11.757ZM21.8528 11.007L21.8029 10.2587L21.8528 11.007ZM21 12.5776L21.5541 12.0721L21 12.5776ZM22.4741 13.2427L22.0872 13.8852L22.4741 13.2427ZM21.8528 15V14.25V15ZM20.9064 14.25C20.4922 14.25 20.1564 14.5858 20.1564 15C20.1564 15.4142 20.4922 15.75 20.9064 15.75V14.25ZM4.21066 11L4.21067 10.25L3.46066 10.25V11H4.21066ZM5.00038 11L5.00038 11.75H5.00038V11ZM5.00038 13L5.00038 13.75H5.00038V13ZM4.21066 15H3.46066V15.75L4.21065 15.75L4.21066 15ZM5 15L4.99999 15.75H5V15ZM19 19.25H5V20.75H19V19.25ZM5 4.75H16V3.25H5V4.75ZM15.4697 4.53033L18.4697 7.53033L19.5303 6.46967L16.5303 3.46967L15.4697 4.53033ZM5.75 8V4H4.25V8H5.75ZM5.75 20.0001L5.75038 18.0001L4.25038 17.9999L4.25 19.9999L5.75 20.0001ZM18.25 7V8H19.75V7H18.25ZM18.25 18V20H19.75V18H18.25ZM9.74872 12.5414V13.4587H11.2487V12.5414H9.74872ZM8.66004 13.4587V12.5414H7.16004V13.4587H8.66004ZM9.20168 14.25C9.00453 14.25 8.90179 14.1812 8.82962 14.0884C8.74053 13.9737 8.66004 13.7644 8.66004 13.4587H7.16004C7.16004 14.0043 7.30079 14.5656 7.64524 15.0088C8.00661 15.4738 8.54969 15.75 9.20168 15.75V14.25ZM9.74872 13.4587C9.74872 13.7625 9.66785 13.9715 9.57782 14.0866C9.50419 14.1808 9.39932 14.25 9.20168 14.25V15.75C9.85319 15.75 10.3968 15.4743 10.7594 15.0106C11.1056 14.5679 11.2487 14.0062 11.2487 13.4587H9.74872ZM9.20168 11.7501C9.39932 11.7501 9.50419 11.8193 9.57782 11.9135C9.66785 12.0286 9.74872 12.2376 9.74872 12.5414H11.2487C11.2487 11.9939 11.1056 11.4322 10.7594 10.9895C10.3968 10.5258 9.85319 10.2501 9.20168 10.2501V11.7501ZM9.20168 10.2501C8.54969 10.2501 8.00661 10.5263 7.64524 10.9913C7.30079 11.4345 7.16004 11.9958 7.16004 12.5414H8.66004C8.66004 12.2357 8.74053 12.0264 8.82962 11.9117C8.90179 11.8189 9.00453 11.7501 9.20168 11.7501V10.2501ZM16.1726 11V13.6667H17.6726V11H16.1726ZM16.1726 13.6667V15H17.6726V13.6667H16.1726ZM17.5062 14.1378L19.6589 11.4711L18.4918 10.5289L16.339 13.1956L17.5062 14.1378ZM17.0405 13.1233L18.4365 15.393L19.7142 14.6071L18.3182 12.3374L17.0405 13.1233ZM22.7436 10.257C22.2393 10.257 22.0838 10.2531 22.028 10.2515C22.0131 10.251 21.9649 10.2487 21.9124 10.2513C21.8901 10.2523 21.8376 10.2564 21.8029 10.2587L21.9027 11.7554C21.9345 11.7532 21.9565 11.7516 21.9716 11.7505C21.9902 11.7492 21.9884 11.7493 21.9845 11.7495C21.9626 11.7506 21.9322 11.7493 21.9838 11.7508C22.061 11.7531 22.2333 11.757 22.7436 11.757V10.257ZM21.8029 10.2587C20.9755 10.3139 20.3772 10.7509 20.1393 11.389C19.9257 11.9617 20.0377 12.6356 20.4459 13.0831L21.5541 12.0721C21.5575 12.0759 21.5434 12.0606 21.5363 12.0206C21.5295 11.9824 21.5333 11.9437 21.5447 11.9131C21.5544 11.8871 21.571 11.8614 21.6067 11.8366C21.6435 11.8109 21.7296 11.7669 21.9027 11.7554L21.8029 10.2587ZM20.4459 13.0831C20.7994 13.4706 21.183 13.5901 21.4684 13.6652C21.7403 13.7366 21.888 13.7653 22.0872 13.8852L22.8609 12.6002C22.4388 12.346 22.0562 12.2687 21.8497 12.2144C21.6568 12.1637 21.614 12.1378 21.5541 12.0721L20.4459 13.0831ZM22.0872 13.8852C22.1666 13.933 22.2008 14.0258 22.18 14.107C22.1716 14.1395 22.1552 14.1651 22.1266 14.1862C22.0989 14.2066 22.022 14.25 21.8528 14.25V15.75C22.7736 15.75 23.4423 15.2231 23.633 14.4796C23.8081 13.7966 23.5428 13.0107 22.8609 12.6002L22.0872 13.8852ZM21.8528 14.25L20.9064 14.25V15.75L21.8528 15.75V14.25ZM4.21065 11.75L5.00038 11.75L5.00039 10.25L4.21067 10.25L4.21065 11.75ZM5.00038 11.75C5.17594 11.75 5.25972 11.7923 5.28314 11.8105C5.29007 11.8159 5.29535 11.8211 5.30185 11.8355C5.30948 11.8524 5.32675 11.9008 5.32675 12H6.82675C6.82675 11.4287 6.6138 10.9451 6.20404 10.6264C5.82596 10.3324 5.37155 10.25 5.00038 10.25V11.75ZM5.32675 12C5.32675 12.0993 5.30948 12.1476 5.30185 12.1645C5.29535 12.1789 5.29007 12.1842 5.28314 12.1896C5.25972 12.2078 5.17594 12.25 5.00038 12.25V13.75C5.37155 13.75 5.82596 13.6677 6.20404 13.3736C6.6138 13.0549 6.82675 12.5714 6.82675 12H5.32675ZM3.46066 11V13H4.96066V11H3.46066ZM3.46066 13V15H4.96066V13H3.46066ZM5.00039 12.25L4.21067 12.25L4.21065 13.75L5.00038 13.75L5.00039 12.25ZM4.21065 15.75L4.99999 15.75L5.00001 14.25L4.21067 14.25L4.21065 15.75ZM5 15.75C5.29503 15.75 5.76122 15.7189 6.16199 15.4402C6.62009 15.1217 6.82675 14.6065 6.82675 14H5.32675C5.32675 14.1382 5.30437 14.199 5.29746 14.2144C5.29361 14.223 5.29708 14.2147 5.3057 14.2087C5.30791 14.2071 5.29094 14.2196 5.23495 14.2312C5.17805 14.2431 5.10138 14.25 5 14.25V15.75ZM6.82675 14C6.82675 13.3964 6.62337 12.8803 6.16519 12.5606C5.76429 12.2808 5.29683 12.25 5.00038 12.25V13.75C5.10347 13.75 5.18073 13.757 5.23771 13.7689C5.29368 13.7805 5.30986 13.7928 5.30679 13.7907C5.29724 13.784 5.29353 13.7751 5.29742 13.7838C5.30442 13.7995 5.32675 13.8609 5.32675 14H6.82675ZM14.3387 12.5414V13.4588H15.8387V12.5414H14.3387ZM13.25 13.4588V12.5414H11.75V13.4588H13.25ZM13.7916 14.2501C13.5945 14.2501 13.4918 14.1813 13.4196 14.0884C13.3305 13.9738 13.25 13.7645 13.25 13.4588H11.75C11.75 14.0043 11.8908 14.5657 12.2352 15.0089C12.5966 15.4738 13.1397 15.7501 13.7916 15.7501V14.2501ZM14.3387 13.4588C14.3387 13.7625 14.2578 13.9715 14.1678 14.0866C14.0942 14.1808 13.9893 14.2501 13.7916 14.2501V15.7501C14.4432 15.7501 14.9868 15.4743 15.3494 15.0106C15.6956 14.5679 15.8387 14.0063 15.8387 13.4588H14.3387ZM13.7916 11.7501C13.9893 11.7501 14.0941 11.8194 14.1678 11.9135C14.2578 12.0287 14.3387 12.2377 14.3387 12.5414H15.8387C15.8387 11.9939 15.6956 11.4323 15.3494 10.9895C14.9868 10.5259 14.4432 10.2501 13.7916 10.2501V11.7501ZM13.7916 10.2501C13.1397 10.2501 12.5966 10.5263 12.2352 10.9913C11.8908 11.4345 11.75 11.9959 11.75 12.5414H13.25C13.25 12.2357 13.3305 12.0264 13.4196 11.9118C13.4918 11.8189 13.5945 11.7501 13.7916 11.7501V10.2501ZM1.25 11.0001V15H2.75V11.0001H1.25Z" fill="black"/>
</svg>
