<svg width="24" height="24" viewBox="0 0 24 24" fill="none" xmlns="http://www.w3.org/2000/svg">
<path d="M12.5179 13.1353C12.5179 13.7746 12.818 14.2258 13.3127 14.2258C13.8118 14.2258 14.0976 13.7505 14.0976 13.1156C14.0976 12.5294 13.8169 12.0253 13.3075 12.0253C12.8084 12.0253 12.5179 12.5 12.5179 13.1353Z" fill="black"/>
<path d="M7.13169 13.7746C7.13169 13.4453 6.83594 13.3143 6.46775 13.3143H6.21575V14.2353C6.28852 14.2451 6.37585 14.2451 6.50163 14.2451C6.83598 14.2451 7.13169 14.1189 7.13169 13.7746Z" fill="black"/>
<path d="M9.0418 13.1353C9.0418 13.7746 9.34241 14.2258 9.83657 14.2258C10.3355 14.2258 10.6216 13.7505 10.6216 13.1156C10.6216 12.5294 10.3404 12.0253 9.83166 12.0253C9.33235 12.0253 9.0418 12.5 9.0418 13.1353Z" fill="black"/>
<path d="M19.7352 9.15373H19.2549V6.83648C19.2549 6.82192 19.2526 6.80747 19.2507 6.79273C19.2499 6.70072 19.2207 6.61034 19.1577 6.53881L15.3016 2.13413C15.3004 2.1329 15.2993 2.1325 15.2985 2.13137C15.2755 2.1057 15.2487 2.08424 15.2204 2.06587C15.212 2.06013 15.2036 2.05545 15.1948 2.05054C15.1702 2.03725 15.1442 2.02603 15.1174 2.01801C15.1101 2.01609 15.1036 2.01311 15.0963 2.01111C15.0672 2.00432 15.037 2 15.0063 2H5.52948C5.09673 2 4.74517 2.35196 4.74517 2.78435V9.15373H4.26503C3.64597 9.15373 3.14401 9.65547 3.14401 10.2746V16.104C3.14401 16.7229 3.64597 17.2252 4.26503 17.2252H4.74521V21.2157C4.74521 21.648 5.09677 22 5.52952 22H18.4706C18.903 22 19.255 21.648 19.255 21.2157V17.2252H19.7352C20.3541 17.2252 20.8561 16.7231 20.8561 16.1043V10.2749C20.8561 9.65547 20.354 9.15373 19.7352 9.15373ZM4.8439 14.7593H4.10247V11.4928H4.84386L4.8439 14.7593ZM5.52948 2.78435H14.6142V6.79705C14.6142 7.01372 14.7899 7.18921 15.0063 7.18921H18.4706V9.15391H5.52948V2.78435ZM16.1089 12.9367C16.1817 12.8107 16.259 12.6947 16.3318 12.5779L17.0734 11.4927H17.9797L16.899 12.8835L18.0377 14.7592H17.175L16.3754 13.3484L16.0948 13.6927V14.7592H15.3627V11.4927H16.0948V12.9367H16.1089ZM14.8773 13.0914C14.8773 14.1626 14.228 14.8121 13.2732 14.8121C12.3041 14.8121 11.737 14.0806 11.737 13.1501C11.737 12.1708 12.362 11.4392 13.3267 11.4392C14.3296 11.4396 14.8773 12.1909 14.8773 13.0914ZM11.4019 13.0914C11.4019 14.1626 10.7524 14.8121 9.79773 14.8121C8.82856 14.8121 8.26146 14.0806 8.26146 13.1501C8.26146 12.1708 8.88655 11.4392 9.85103 11.4392C10.8542 11.4396 11.4019 12.1909 11.4019 13.0914ZM5.4838 14.7447V11.5362C5.67777 11.4975 6.07033 11.4682 6.43855 11.4682C6.8891 11.4682 7.1656 11.5121 7.40304 11.6526C7.63089 11.7733 7.79538 11.9965 7.79538 12.2922C7.79538 12.5831 7.62602 12.8544 7.25751 12.9904V12.9995C7.63071 13.1018 7.90692 13.3827 7.90692 13.8043C7.90692 14.1 7.77145 14.3327 7.56771 14.4973C7.33027 14.6867 6.93303 14.7932 6.28343 14.7932C5.92011 14.7929 5.6488 14.7688 5.4838 14.7447ZM18.4706 21.0031H5.52948V17.2252H18.4706L18.4706 21.0031ZM19.1385 14.8075C18.7655 14.8075 18.3971 14.7106 18.2129 14.6086L18.3634 13.998C18.5618 14.0998 18.8674 14.2017 19.1826 14.2017C19.5217 14.2017 19.7009 14.0613 19.7009 13.848C19.7009 13.6439 19.5458 13.5279 19.1531 13.3872C18.6104 13.1983 18.2566 12.8981 18.2566 12.4228C18.2566 11.8653 18.7219 11.4392 19.4928 11.4392C19.8608 11.4392 20.1323 11.5164 20.3261 11.6039L20.1615 12.2003C20.0307 12.1375 19.798 12.0449 19.4783 12.0449C19.1585 12.0449 19.0034 12.1906 19.0034 12.3598C19.0034 12.568 19.1874 12.6599 19.6088 12.8204C20.1858 13.0337 20.4571 13.3339 20.4571 13.7942C20.4567 14.3422 20.0351 14.8075 19.1385 14.8075Z" fill="black"/>
<path d="M7.05431 12.384C7.05431 12.1373 6.8652 12.0058 6.5307 12.0058C6.37089 12.0058 6.27899 12.0157 6.21581 12.0253V12.7865H6.45804C6.84584 12.7865 7.05431 12.6262 7.05431 12.384Z" fill="black"/>
</svg>
