<svg width="24" height="24" viewBox="0 0 24 24" fill="none" xmlns="http://www.w3.org/2000/svg">
<path d="M19 20V20.75H19.75V20H19ZM5 20H4.25V20.75H5V20ZM5 4V3.25H4.25V4H5ZM16 4L16.5303 3.46967L16.3107 3.25H16V4ZM19 7L19.75 7V6.68934L19.5303 6.46967L19 7ZM4.75 10C4.75 9.58579 4.41421 9.25 4 9.25C3.58579 9.25 3.25 9.58579 3.25 10H4.75ZM3.25 16C3.25 16.4142 3.58579 16.75 4 16.75C4.41421 16.75 4.75 16.4142 4.75 16H3.25ZM10.625 16C10.625 16.4142 10.9608 16.75 11.375 16.75C11.7892 16.75 12.125 16.4142 12.125 16H10.625ZM11.375 10L12.0228 9.6221C11.8521 9.32942 11.5064 9.18756 11.1793 9.27599C10.8522 9.36442 10.625 9.66117 10.625 10H11.375ZM14.875 16L14.2272 16.3779C14.3979 16.6706 14.7436 16.8124 15.0707 16.724C15.3978 16.6356 15.625 16.3388 15.625 16H14.875ZM15.625 10C15.625 9.58579 15.2892 9.25 14.875 9.25C14.4608 9.25 14.125 9.58579 14.125 10H15.625ZM19.7324 10.7605C20.1466 10.7605 20.4824 10.4247 20.4824 10.0105C20.4824 9.59624 20.1466 9.26045 19.7324 9.26045V10.7605ZM18.4909 10.0105L18.4372 9.26238L18.4909 10.0105ZM17.3025 12.3664L17.8747 11.8814L17.3025 12.3664ZM19.3567 13.364L18.9488 13.9933H18.9488L19.3567 13.364ZM18.4909 16V15.25H18.4909L18.4909 16ZM17.1721 15.25C16.7579 15.25 16.4221 15.5858 16.4221 16C16.4221 16.4142 16.7579 16.75 17.1721 16.75L17.1721 15.25ZM19 19.25H5V20.75H19V19.25ZM5 4.75H16V3.25H5V4.75ZM15.4697 4.53033L18.4697 7.53033L19.5303 6.46967L16.5303 3.46967L15.4697 4.53033ZM5.75 8V4H4.25V8H5.75ZM5.75 20V18H4.25V20H5.75ZM18.25 7L18.25 8L19.75 8L19.75 7L18.25 7ZM18.25 18V20H19.75V18H18.25ZM3.25 10V16H4.75V10H3.25ZM7.75 9.25C6.62598 9.25 5.5 10.174 5.5 11.5H7C7 11.0806 7.37402 10.75 7.75 10.75V9.25ZM5.5 11.5V14.5H7V11.5H5.5ZM5.5 14.5C5.5 15.2035 5.77128 15.7863 6.22048 16.1856C6.65587 16.5726 7.2152 16.75 7.75 16.75V15.25C7.5348 15.25 7.34413 15.1774 7.21702 15.0644C7.10372 14.9637 7 14.7965 7 14.5H5.5ZM10 11.6364C10 10.9091 9.74475 10.2987 9.30336 9.87067C8.87078 9.45119 8.30344 9.25 7.75 9.25V10.75C7.94656 10.75 8.12922 10.8215 8.25914 10.9475C8.38025 11.065 8.5 11.2727 8.5 11.6364H10ZM7.75 16.75C8.30344 16.75 8.87078 16.5488 9.30336 16.1293C9.74475 15.7013 10 15.0909 10 14.3636H8.5C8.5 14.7273 8.38025 14.935 8.25914 15.0525C8.12922 15.1785 7.94656 15.25 7.75 15.25V16.75ZM12.125 16V10H10.625V16H12.125ZM10.7272 10.3779L14.2272 16.3779L15.5228 15.6221L12.0228 9.6221L10.7272 10.3779ZM15.625 16V10H14.125V16H15.625ZM19.7324 9.26045C19.0286 9.26045 18.8092 9.25458 18.7281 9.25201C18.7015 9.25117 18.6468 9.24836 18.5855 9.25154C18.5566 9.25303 18.4933 9.25836 18.4372 9.26238L18.5446 10.7585C18.5882 10.7554 18.6182 10.753 18.6392 10.7514C18.6638 10.7495 18.6649 10.7494 18.6631 10.7495C18.6444 10.7505 18.6144 10.7492 18.6805 10.7513C18.7847 10.7546 19.0222 10.7605 19.7324 10.7605V9.26045ZM18.4372 9.26238C17.3544 9.34011 16.6461 9.94467 16.3737 10.7309C16.1253 11.4477 16.2555 12.291 16.7304 12.8513L17.8747 11.8814C17.7735 11.7621 17.7 11.4846 17.791 11.222C17.8579 11.0289 18.0319 10.7953 18.5446 10.7585L18.4372 9.26238ZM16.7304 12.8513C17.1613 13.3598 17.6299 13.5219 18.0168 13.6313C18.3833 13.735 18.6304 13.787 18.9488 13.9933L19.7646 12.7346C19.2172 12.3798 18.7253 12.2729 18.4251 12.188C18.1454 12.1088 18.0198 12.0527 17.8747 11.8814L16.7304 12.8513ZM18.9488 13.9933C19.18 14.1432 19.3022 14.4619 19.2297 14.766C19.1965 14.9055 19.126 15.0184 19.0266 15.0973C18.9307 15.1733 18.7674 15.25 18.4909 15.25V16.75C19.6912 16.75 20.4726 16.0217 20.6889 15.1137C20.8895 14.2717 20.5944 13.2724 19.7646 12.7346L18.9488 13.9933ZM18.4909 15.25L17.1721 15.25L17.1721 16.75L18.4909 16.75L18.4909 15.25Z" fill="black"/>
</svg>
