<svg width="24" height="24" viewBox="0 0 24 24" fill="none" xmlns="http://www.w3.org/2000/svg">
<path d="M15.5802 11.0918C14.6254 11.0918 14.0694 12.0006 14.0694 13.215C14.0694 14.4382 14.6438 15.3006 15.5897 15.3006C16.5445 15.3006 17.0912 14.3922 17.0912 13.1778C17.0912 12.0561 16.5537 11.0918 15.5802 11.0918Z" fill="black"/>
<path d="M19.7352 9.15398H19.2549V6.83667C19.2549 6.82221 19.2526 6.80765 19.2507 6.79302C19.2499 6.70101 19.2205 6.61063 19.1577 6.5391L15.3016 2.13413C15.3004 2.13301 15.2993 2.13261 15.2985 2.13144C15.2755 2.1057 15.2487 2.08435 15.2204 2.06598C15.212 2.06024 15.2036 2.05552 15.1948 2.05065C15.1702 2.03733 15.1442 2.02614 15.1174 2.01812C15.1101 2.01609 15.1036 2.01322 15.0963 2.01122C15.0672 2.00443 15.037 2 15.0063 2H5.52948C5.09673 2 4.74517 2.35203 4.74517 2.78435V9.1538H4.26496C3.64601 9.1538 3.14401 9.65558 3.14401 10.2747V16.1043C3.14401 16.7231 3.64597 17.2252 4.26496 17.2252H4.74521V21.2157C4.74521 21.648 5.09677 22 5.52952 22H18.4706C18.903 22 19.255 21.648 19.255 21.2157V17.2254H19.7352C20.3541 17.2254 20.8561 16.7231 20.8561 16.1043V10.2749C20.8561 9.65576 20.3544 9.15398 19.7352 9.15398ZM5.52948 2.78449H14.6142V6.7973C14.6142 7.01397 14.7899 7.18946 15.0063 7.18946H18.4706V9.15416H5.52948V2.78449ZM10.823 15.2449C11.2494 15.2449 11.722 15.1518 12.0002 15.0408L12.2134 16.1437C11.9538 16.2739 11.3697 16.4129 10.6099 16.4129C8.44988 16.4129 7.33775 15.0685 7.33775 13.2887C7.33775 11.1567 8.85772 9.97028 10.7491 9.97028C11.4808 9.97028 12.0375 10.1181 12.2877 10.2483L12.0002 11.37C11.7128 11.2499 11.3144 11.1387 10.8137 11.1387C9.69185 11.1387 8.82068 11.8145 8.82068 13.2056C8.82068 14.4567 9.56222 15.2449 10.823 15.2449ZM4.98206 16.3198V10.0726H6.40028V16.3198H4.98206ZM18.4706 21.0033H5.52948V17.2254H18.4706L18.4706 21.0033ZM15.5153 16.4221C13.6613 16.4221 12.5772 15.0222 12.5772 13.2424C12.5772 11.3698 13.7728 9.9701 15.6172 9.9701C17.5362 9.9701 18.5836 11.4065 18.5836 13.1315C18.5836 15.1794 17.3413 16.4221 15.5153 16.4221Z" fill="black"/>
</svg>
