<svg width="24" height="24" viewBox="0 0 24 24" fill="none" xmlns="http://www.w3.org/2000/svg">
<path d="M19 20V20.75H19.75V20H19ZM5 20H4.25V20.75H5V20ZM5 4V3.25H4.25V4H5ZM16 4L16.5303 3.46967L16.3107 3.25H16V4ZM19 7L19.75 7V6.68934L19.5303 6.46967L19 7ZM6.75 10C6.75 9.58579 6.41421 9.25 6 9.25C5.58579 9.25 5.25 9.58579 5.25 10H6.75ZM5.25 16C5.25 16.4142 5.58579 16.75 6 16.75C6.41421 16.75 6.75 16.4142 6.75 16H5.25ZM11.6696 10.9879H12.4196V10.8602L12.3774 10.7398L11.6696 10.9879ZM11.6696 15.0121L12.3774 15.2602L12.4196 15.1398V15.0121H11.6696ZM19 19.25H5V20.75H19V19.25ZM5 4.75H16V3.25H5V4.75ZM15.4697 4.53033L18.4697 7.53033L19.5303 6.46967L16.5303 3.46967L15.4697 4.53033ZM5.75 8V4H4.25V8H5.75ZM5.75 20V18H4.25V20H5.75ZM18.25 7L18.25 8L19.75 8L19.75 7L18.25 7ZM18.25 18V20H19.75V18H18.25ZM5.25 10V16H6.75V10H5.25ZM10.2732 9.25C9.1492 9.25 8.02322 10.174 8.02322 11.5H9.52322C9.52322 11.0806 9.89724 10.75 10.2732 10.75V9.25ZM8.02322 11.5V14.5H9.52322V11.5H8.02322ZM8.02322 14.5C8.02322 15.2035 8.2945 15.7863 8.7437 16.1856C9.1791 16.5726 9.73842 16.75 10.2732 16.75V15.25C10.058 15.25 9.86735 15.1774 9.74024 15.0644C9.62694 14.9637 9.52322 14.7965 9.52322 14.5H8.02322ZM12.3774 10.7398C12.0293 9.74706 11.1375 9.25 10.2732 9.25V10.75C10.5744 10.75 10.8481 10.9116 10.9619 11.2361L12.3774 10.7398ZM10.2732 16.75C11.1375 16.75 12.0293 16.2529 12.3774 15.2602L10.9619 14.7639C10.8481 15.0884 10.5744 15.25 10.2732 15.25V16.75ZM17.25 12.312V13.688H18.75V12.312H17.25ZM14.75 13.688V12.312H13.25V13.688H14.75ZM16 15.25C15.3469 15.25 14.75 14.6771 14.75 13.688H13.25C13.25 15.2526 14.2864 16.75 16 16.75V15.25ZM17.25 13.688C17.25 14.6771 16.6531 15.25 16 15.25V16.75C17.7136 16.75 18.75 15.2526 18.75 13.688H17.25ZM16 10.75C16.6531 10.75 17.25 11.3229 17.25 12.312H18.75C18.75 10.7474 17.7136 9.25 16 9.25V10.75ZM16 9.25C14.2864 9.25 13.25 10.7474 13.25 12.312H14.75C14.75 11.3229 15.3469 10.75 16 10.75V9.25ZM10.9196 10.9879V11.5H12.4196V10.9879H10.9196ZM12.4196 15.0121V14.5H10.9196V15.0121H12.4196Z" fill="black"/>
</svg>
