<svg width="24" height="24" viewBox="0 0 24 24" fill="none" xmlns="http://www.w3.org/2000/svg">
<path d="M19.7352 9.15391H19.255V6.8367C19.255 6.82214 19.2527 6.80769 19.2507 6.79295C19.25 6.70104 19.2207 6.61056 19.1577 6.53906L15.3016 2.13413C15.3005 2.1329 15.2993 2.1325 15.2985 2.13137C15.2756 2.10563 15.2488 2.08424 15.2204 2.06587C15.212 2.06013 15.2036 2.05545 15.1948 2.05054C15.1703 2.03725 15.1442 2.02603 15.1174 2.01801C15.1101 2.01609 15.1036 2.01311 15.0963 2.01111C15.0672 2.00432 15.037 2 15.0063 2H5.52952C5.09677 2 4.74521 2.35196 4.74521 2.78435V9.15373H4.26507C3.64601 9.15373 3.14401 9.65547 3.14401 10.2746V16.104C3.14401 16.7229 3.64597 17.2252 4.26507 17.2252H4.74521V21.2157C4.74521 21.648 5.09677 22 5.52952 22H18.4706C18.903 22 19.255 21.648 19.255 21.2157V17.2252H19.7352C20.3541 17.2252 20.8561 16.7231 20.8561 16.1043V10.2749C20.8561 9.65569 20.3541 9.15391 19.7352 9.15391ZM5.52952 2.78449H14.6142V6.7972C14.6142 7.01386 14.79 7.18935 15.0064 7.18935H18.4706V9.15405H5.52952V2.78449ZM13.5003 12.6824V13.8547H11.2123V16.4171H9.76556V10.0445H13.661V11.2262H11.2123V12.6824H13.5003ZM8.51796 10.0445V16.4171H7.0713V10.0445H8.51796ZM18.4706 21.0033H5.52952V17.2252H18.4706V21.0033ZM18.6433 11.2262H16.1943V12.6824H18.4821V13.8547H16.1943V16.4171H14.7475V10.0445H18.6429V11.2262H18.6433Z" fill="black"/>
</svg>
