<svg width="24" height="24" viewBox="0 0 24 24" fill="none" xmlns="http://www.w3.org/2000/svg">
<path d="M19 20V20.75H19.75V20H19ZM5 20H4.25V20.75H5V20ZM5 4V3.25H4.25V4H5ZM16 4L16.5303 3.46967L16.3107 3.25H16V4ZM19 7L19.75 7V6.68934L19.5303 6.46967L19 7ZM7.75 10C7.75 9.58579 7.41421 9.25 7 9.25C6.58579 9.25 6.25 9.58579 6.25 10H7.75ZM6.25 16C6.25 16.4142 6.58579 16.75 7 16.75C7.41421 16.75 7.75 16.4142 7.75 16H6.25ZM9.75454 10V9.25H9.00454V10H9.75454ZM9.00454 16C9.00454 16.4142 9.34032 16.75 9.75454 16.75C10.1688 16.75 10.5045 16.4142 10.5045 16H9.00454ZM12.7545 10.75C13.1688 10.75 13.5045 10.4142 13.5045 10C13.5045 9.58579 13.1688 9.25 12.7545 9.25V10.75ZM12.2545 13.75C12.6688 13.75 13.0045 13.4142 13.0045 13C13.0045 12.5858 12.6688 12.25 12.2545 12.25V13.75ZM15 10V9.25H14.25V10H15ZM14.25 16C14.25 16.4142 14.5858 16.75 15 16.75C15.4142 16.75 15.75 16.4142 15.75 16H14.25ZM18 10.75C18.4142 10.75 18.75 10.4142 18.75 10C18.75 9.58579 18.4142 9.25 18 9.25V10.75ZM17.5 13.75C17.9142 13.75 18.25 13.4142 18.25 13C18.25 12.5858 17.9142 12.25 17.5 12.25V13.75ZM19 19.25H5V20.75H19V19.25ZM5 4.75H16V3.25H5V4.75ZM15.4697 4.53033L18.4697 7.53033L19.5303 6.46967L16.5303 3.46967L15.4697 4.53033ZM5.75 8V4H4.25V8H5.75ZM5.75 20V18H4.25V20H5.75ZM18.25 7L18.25 8L19.75 8L19.75 7L18.25 7ZM18.25 18V20H19.75V18H18.25ZM6.25 10V16H7.75V10H6.25ZM9.00454 10V13H10.5045V10H9.00454ZM9.00454 13V16H10.5045V13H9.00454ZM9.75454 10.75H12.7545V9.25H9.75454V10.75ZM9.75454 13.75H12.2545V12.25H9.75454V13.75ZM14.25 10V13H15.75V10H14.25ZM14.25 13V16H15.75V13H14.25ZM15 10.75H18V9.25H15V10.75ZM15 13.75H17.5V12.25H15V13.75Z" fill="black"/>
</svg>
