<svg xmlns="http://www.w3.org/2000/svg" width="20" height="20" fill="none" viewBox="0 0 20 20">
  <path fill="#A0A0A0" d="M17.735 7.154h-.48V4.836c0-.014-.002-.029-.004-.043a.385.385 0 00-.093-.254L13.302.134l-.003-.003a.39.39 0 00-.079-.065c-.008-.006-.016-.01-.025-.015a.41.41 0 00-.078-.033l-.02-.007a.393.393 0 00-.09-.011H3.53a.785.785 0 00-.785.784v6.37h-.48c-.619 0-1.121.501-1.121 1.12v5.83c0 .619.502 1.121 1.121 1.121h.48v3.99c0 .433.352.785.785.785h12.94a.785.785 0 00.785-.784v-3.99h.48c.62 0 1.121-.503 1.121-1.122v-5.83a1.12 1.12 0 00-1.12-1.12zM3.53.784h9.084v4.013c0 .217.176.392.392.392h3.465v1.965H3.53V.784zm9.838 10.166c0 .84-.306 1.418-.728 1.775-.462.384-1.164.566-2.022.566-.514 0-.878-.033-1.125-.065V8.922a8.837 8.837 0 011.34-.09c.831 0 1.371.149 1.793.467.456.339.742.878.742 1.652zm-7.45.976v1.32h-.91V8.863h1.157l.91 1.605c.26.462.52 1.008.715 1.502h.02a16.232 16.232 0 01-.085-1.826V8.864h.91v4.381h-1.04l-.936-1.69a16.363 16.363 0 01-.76-1.547l-.02.007c.026.578.04 1.195.04 1.91zm-2.763 1.32V8.863h.995v4.381h-.995zm13.316 5.757H3.53v-3.778h12.94v3.778zm.693-6.278c-.462.384-1.164.566-2.022.566-.514 0-.878-.033-1.125-.065V8.922a8.83 8.83 0 011.34-.09c.832 0 1.372.149 1.794.467.455.339.74.878.74 1.652 0 .838-.305 1.417-.727 1.774z"/>
  <path fill="#A0A0A0" d="M10.937 9.592c-.222 0-.364.02-.449.039v2.867c.085.019.221.019.345.019.896.007 1.482-.487 1.482-1.534.006-.91-.527-1.391-1.378-1.391zM15.46 9.592c-.22 0-.363.02-.448.039v2.867c.085.019.222.019.345.019.897.007 1.483-.487 1.483-1.534.006-.91-.527-1.391-1.38-1.391z"/>
</svg>
