<svg width="24" height="24" viewBox="0 0 24 24" fill="none" xmlns="http://www.w3.org/2000/svg">
<path d="M19.7352 9.15373H19.255V6.83648C19.255 6.82192 19.2527 6.80747 19.2508 6.79273C19.25 6.70083 19.2207 6.61041 19.1577 6.53881L15.3016 2.13413C15.3005 2.13301 15.2993 2.1325 15.2986 2.13137C15.2756 2.1057 15.2488 2.08435 15.2205 2.06587C15.212 2.06024 15.2036 2.05552 15.1948 2.05054C15.1703 2.03725 15.1442 2.02603 15.1174 2.01801C15.1101 2.01609 15.1036 2.01311 15.0963 2.01118C15.0673 2.00432 15.037 2 15.0063 2H5.52953C5.09678 2 4.74522 2.35196 4.74522 2.78435V9.15373H4.26508C3.6462 9.15373 3.14403 9.65547 3.14403 10.2747V16.1043C3.14403 16.7229 3.6462 17.2252 4.26508 17.2252H4.74522V21.2157C4.74522 21.648 5.09678 22 5.52953 22H18.4707C18.903 22 19.255 21.648 19.255 21.2157V17.2252H19.7353C20.3545 17.2252 20.8562 16.7229 20.8562 16.1043V10.2747C20.8561 9.65547 20.3544 9.15373 19.7352 9.15373ZM5.52953 2.78435H14.6142V6.79705C14.6142 7.01383 14.79 7.18921 15.0064 7.18921H18.4707V9.15391H5.52953V2.78435ZM15.3675 12.9505C15.3675 13.7892 15.0623 14.3681 14.6399 14.7252C14.1776 15.1089 13.4757 15.291 12.6178 15.291C12.1042 15.291 11.7403 15.2585 11.4927 15.2259V10.9224C11.8571 10.8637 12.3313 10.8312 12.8323 10.8312C13.6644 10.8312 14.204 10.981 14.6264 11.2992C15.0818 11.6376 15.3675 12.1769 15.3675 12.9505ZM7.91816 13.9255V15.2451H7.00774V10.8637H8.1646L9.07498 12.4695C9.335 12.9312 9.59495 13.4771 9.79026 13.9711H9.80951C9.7444 13.3928 9.7248 12.8009 9.7248 12.1447V10.8637H10.6352V15.2452H9.59499L8.65871 13.5552C8.39917 13.0872 8.11307 12.5218 7.89851 12.008L7.87887 12.0145C7.90505 12.5928 7.91816 13.2105 7.91816 13.9255ZM5.15499 15.2452V10.8637H6.15034V15.2452H5.15499ZM18.4707 21.0031H5.52953V17.2252H18.4707V21.0031ZM19.1638 14.7252C18.7023 15.1089 18.0004 15.2908 17.1421 15.2908C16.6282 15.2908 16.2642 15.2583 16.0173 15.2257V10.9224C16.3812 10.8637 16.856 10.8312 17.3566 10.8312C18.1887 10.8312 18.7287 10.981 19.1512 11.2992C19.6059 11.6378 19.8916 12.177 19.8916 12.9506C19.8918 13.7892 19.5862 14.3678 19.1638 14.7252Z" fill="black"/>
<path d="M12.9365 11.5915C12.7151 11.5915 12.5723 11.6112 12.488 11.6306V14.4975C12.5723 14.517 12.709 14.517 12.8323 14.517C13.7292 14.5235 14.3144 14.0295 14.3144 12.9828C14.3209 12.0725 13.7878 11.5915 12.9365 11.5915Z" fill="black"/>
<path d="M17.4605 11.5915C17.2399 11.5915 17.0969 11.6112 17.0121 11.6306V14.4975C17.0969 14.517 17.2334 14.517 17.3567 14.517C18.2536 14.5235 18.8394 14.0295 18.8394 12.9828C18.8457 12.0725 18.3127 11.5915 17.4605 11.5915Z" fill="black"/>
</svg>
