<svg width="24" height="24" viewBox="0 0 24 24" fill="none" xmlns="http://www.w3.org/2000/svg">
<path d="M19 20V20.75H19.75V20H19ZM5 20H4.25V20.75H5V20ZM5 4V3.25H4.25V4H5ZM16 4L16.5303 3.46967L16.3107 3.25H16V4ZM19 7L19.75 7V6.68934L19.5303 6.46967L19 7ZM7.75 10C7.75 9.58579 7.41421 9.25 7 9.25C6.58579 9.25 6.25 9.58579 6.25 10H7.75ZM6.25 16C6.25 16.4142 6.58579 16.75 7 16.75C7.41421 16.75 7.75 16.4142 7.75 16H6.25ZM11.8814 10.7605C12.2956 10.7605 12.6314 10.4247 12.6314 10.0105C12.6314 9.59624 12.2956 9.26045 11.8814 9.26045V10.7605ZM10.6399 10.0105L10.5862 9.26238L10.6399 10.0105ZM9.45152 12.3664L10.0237 11.8814L9.45152 12.3664ZM11.5057 13.364L11.0978 13.9933L11.5057 13.364ZM10.6399 16V15.25H10.6399L10.6399 16ZM9.32113 15.25C8.90691 15.25 8.57113 15.5858 8.57113 16C8.57113 16.4142 8.90691 16.75 9.32113 16.75L9.32113 15.25ZM19 19.25H5V20.75H19V19.25ZM5 4.75H16V3.25H5V4.75ZM15.4697 4.53033L18.4697 7.53033L19.5303 6.46967L16.5303 3.46967L15.4697 4.53033ZM5.75 8V4H4.25V8H5.75ZM5.75 20V18H4.25V20H5.75ZM18.25 7L18.25 8L19.75 8L19.75 7L18.25 7ZM18.25 18V20H19.75V18H18.25ZM6.25 10V16H7.75V10H6.25ZM11.8814 9.26045C11.1776 9.26045 10.9582 9.25458 10.8771 9.25201C10.8505 9.25117 10.7958 9.24836 10.7345 9.25154C10.7056 9.25303 10.6422 9.25836 10.5862 9.26238L10.6936 10.7585C10.7372 10.7554 10.7672 10.753 10.7881 10.7514C10.8128 10.7495 10.8139 10.7494 10.8121 10.7495C10.7934 10.7505 10.7634 10.7492 10.8295 10.7513C10.9337 10.7546 11.1712 10.7605 11.8814 10.7605V9.26045ZM10.5862 9.26238C9.50339 9.34011 8.79508 9.94467 8.52266 10.7309C8.27433 11.4477 8.40445 12.291 8.87937 12.8513L10.0237 11.8814C9.92247 11.7621 9.84901 11.4846 9.94 11.222C10.0069 11.0289 10.1809 10.7953 10.6936 10.7585L10.5862 9.26238ZM8.87937 12.8513C9.31033 13.3598 9.77889 13.5219 10.1658 13.6313C10.5323 13.735 10.7794 13.787 11.0978 13.9933L11.9136 12.7346C11.3662 12.3798 10.8743 12.2729 10.5741 12.188C10.2944 12.1088 10.1688 12.0527 10.0237 11.8814L8.87937 12.8513ZM11.0978 13.9933C11.329 14.1432 11.4512 14.4619 11.3787 14.766C11.3455 14.9055 11.275 15.0184 11.1756 15.0973C11.0797 15.1733 10.9164 15.25 10.6399 15.25V16.75C11.8402 16.75 12.6215 16.0217 12.8379 15.1137C13.0385 14.2717 12.7434 13.2724 11.9136 12.7346L11.0978 13.9933ZM10.6399 15.25L9.32113 15.25L9.32113 16.75L10.6399 16.75L10.6399 15.25ZM17.25 12.312V13.688H18.75V12.312H17.25ZM14.75 13.688V12.312H13.25V13.688H14.75ZM16 15.25C15.3469 15.25 14.75 14.6771 14.75 13.688H13.25C13.25 15.2526 14.2864 16.75 16 16.75V15.25ZM17.25 13.688C17.25 14.6771 16.6531 15.25 16 15.25V16.75C17.7136 16.75 18.75 15.2526 18.75 13.688H17.25ZM16 10.75C16.6531 10.75 17.25 11.3229 17.25 12.312H18.75C18.75 10.7474 17.7136 9.25 16 9.25V10.75ZM16 9.25C14.2864 9.25 13.25 10.7474 13.25 12.312H14.75C14.75 11.3229 15.3469 10.75 16 10.75V9.25Z" fill="black"/>
</svg>
