<svg width="24" height="24" viewBox="0 0 24 24" fill="none" xmlns="http://www.w3.org/2000/svg">
<path d="M15.975 11.1838C15.0797 11.1838 14.5589 12.0351 14.5589 13.1737C14.5589 14.3204 15.0971 15.1285 15.9837 15.1285C16.8785 15.1285 17.3912 14.2772 17.3912 13.1392C17.3912 12.0876 16.8873 11.1838 15.975 11.1838Z" fill="black"/>
<path d="M19.7348 9.1539H19.2546V6.8367C19.2546 6.82226 19.2523 6.8077 19.2504 6.79308C19.2496 6.70104 19.2203 6.61069 19.1573 6.53905L15.3013 2.13413C15.3 2.133 15.2989 2.13259 15.2982 2.13139C15.2752 2.10571 15.2484 2.08433 15.22 2.06588C15.2116 2.06026 15.2032 2.05555 15.1944 2.05063C15.1699 2.03728 15.1438 2.02615 15.117 2.01809C15.1097 2.01609 15.1032 2.01313 15.096 2.01123C15.0668 2.0043 15.0366 2 15.006 2H5.52907C5.09634 2 4.74478 2.35197 4.74478 2.78433V9.15368H4.2646C3.64554 9.15368 3.14359 9.65546 3.14359 10.2747V16.1042C3.14359 16.7231 3.64554 17.2252 4.2646 17.2252H4.74478V21.2157C4.74478 21.6481 5.09634 22 5.52907 22H18.4702C18.9026 22 19.2545 21.6481 19.2545 21.2157V17.2252H19.7348C20.3536 17.2252 20.8557 16.7231 20.8557 16.1042V10.2749C20.8557 9.65568 20.3537 9.1539 19.7348 9.1539ZM5.52907 2.78451H14.6138V6.79734C14.6138 7.01398 14.7895 7.18947 15.006 7.18947H18.4703V9.15416H5.52907V2.78451ZM10.1966 13.6251C9.22346 13.286 8.58887 12.7475 8.58887 11.8961C8.58887 10.8969 9.42343 10.1322 10.8048 10.1322C11.4652 10.1322 11.9518 10.2712 12.2993 10.4277L12.0038 11.4965C11.7695 11.3833 11.3522 11.2183 10.7788 11.2183C10.2052 11.2183 9.92732 11.4791 9.92732 11.7832C9.92732 12.1566 10.2574 12.3217 11.0132 12.6086C12.0471 12.9907 12.5343 13.5296 12.5343 14.3549C12.5343 15.3368 11.7779 16.1709 10.1706 16.1709C9.50167 16.1709 8.84122 15.997 8.51125 15.8145L8.78045 14.7198C9.13628 14.9025 9.68413 15.0847 10.2485 15.0847C10.8571 15.0847 11.1783 14.833 11.1783 14.4506C11.1781 14.086 10.9005 13.8769 10.1966 13.6251ZM7.58951 10.2279V16.0839H6.26043V10.2279H7.58951ZM18.4703 21.0033H5.52907V17.2252H18.4702L18.4703 21.0033ZM15.9143 16.1797C14.1764 16.1797 13.1596 14.8674 13.1596 13.1995C13.1596 11.4441 14.281 10.1322 16.0097 10.1322C17.8083 10.1322 18.7904 11.4793 18.7904 13.0953C18.7904 15.0155 17.6258 16.1797 15.9143 16.1797Z" fill="black"/>
</svg>
