<svg width="24" height="24" viewBox="0 0 24 24" fill="none" xmlns="http://www.w3.org/2000/svg">
<path d="M19.7352 9.15391H19.2549V6.8367C19.2549 6.82214 19.2526 6.80769 19.2507 6.79295C19.25 6.70094 19.2207 6.61056 19.1577 6.53906L15.3016 2.13402C15.3004 2.1329 15.2993 2.1325 15.2985 2.13137C15.2755 2.1057 15.2487 2.08424 15.2204 2.06587C15.212 2.06013 15.2036 2.05545 15.1948 2.05054C15.1702 2.03725 15.1442 2.02603 15.1174 2.01801C15.1101 2.01609 15.1036 2.01311 15.0963 2.01111C15.0672 2.00432 15.037 2 15.0063 2H5.52949C5.09674 2 4.74518 2.35196 4.74518 2.78435V9.15373H4.26505C3.64599 9.15373 3.14403 9.65547 3.14403 10.2746V16.104C3.14403 16.7229 3.64599 17.2252 4.26505 17.2252H4.74522V21.2157C4.74522 21.648 5.09678 22 5.52953 22H18.4707C18.903 22 19.255 21.648 19.255 21.2157V17.2252H19.7352C20.3541 17.2252 20.8562 16.7231 20.8562 16.1043V10.2749C20.8561 9.65569 20.3541 9.15391 19.7352 9.15391ZM5.52949 2.78449H14.6142V6.7972C14.6142 7.01386 14.79 7.18935 15.0063 7.18935H18.4706V9.15405H5.52949V2.78449ZM13.9256 16.0439H12.5006L12.0489 14.5406H10.3719L9.9545 16.0439H8.58155L10.3719 10.1874H12.1094L13.9256 16.0439ZM4.85408 16.0004L5.00226 14.9317C5.18465 14.9925 5.41897 15.0357 5.67975 15.0357C6.23581 15.0357 6.58345 14.7837 6.58345 13.8715V10.1874H7.90389V13.889C7.90389 15.5573 7.10429 16.1391 5.81856 16.1391C5.51468 16.1391 5.11486 16.0874 4.85408 16.0004ZM18.4707 21.0033H5.52949V17.2252H18.4706L18.4707 21.0033ZM17.7752 16.0439C17.6798 15.8791 17.5408 15.4009 17.3669 14.6796C17.2103 13.9497 16.9587 13.7498 16.4199 13.7414H16.0204V16.0439H14.7084V10.2656C15.1343 10.1962 15.7681 10.144 16.4719 10.144C17.3409 10.144 17.949 10.2742 18.3664 10.6046C18.7136 10.8827 18.9049 11.2911 18.9049 11.8295C18.9049 12.5771 18.3749 13.0897 17.8709 13.2722V13.2982C18.2791 13.4631 18.5055 13.8539 18.6529 14.3929C18.8355 15.0533 19.0177 15.8181 19.1304 16.0439L17.7752 16.0439Z" fill="black"/>
<path d="M16.6196 11.1264C16.2978 11.1264 16.1157 11.1522 16.0203 11.1696V12.7857H16.5409C17.2015 12.7857 17.5923 12.4554 17.5923 11.9428C17.5927 11.404 17.2278 11.1348 16.6196 11.1264Z" fill="black"/>
<path d="M11.4923 12.3078C11.3882 11.9604 11.2839 11.5258 11.197 11.1782H11.1798C11.0928 11.5258 11.0054 11.9688 10.9106 12.3078L10.5625 13.5501H11.8574L11.4923 12.3078Z" fill="black"/>
</svg>
