<svg width="24" height="24" viewBox="0 0 24 24" fill="none" xmlns="http://www.w3.org/2000/svg">
<path d="M19 20V20.75H19.75V20H19ZM5 20H4.25V20.75H5V20ZM5 4V3.25H4.25V4H5ZM16 4L16.5303 3.46967L16.3107 3.25H16V4ZM19 7L19.75 7V6.68934L19.5303 6.46967L19 7ZM7.75 10C7.75 9.58579 7.41421 9.25 7 9.25C6.58579 9.25 6.25 9.58579 6.25 10H7.75ZM4.69612 14.7145C4.54197 14.3301 4.10534 14.1434 3.72088 14.2975C3.33642 14.4517 3.14972 14.8883 3.30388 15.2728L4.69612 14.7145ZM9.54619 10V9.25H8.79619V10H9.54619ZM15 11.6438H15.75V11.6438L15 11.6438ZM18.5 13.2877H19.25V12.5377H18.5V13.2877ZM8.79619 16C8.79619 16.4142 9.13197 16.75 9.54619 16.75C9.9604 16.75 10.2962 16.4142 10.2962 16H8.79619ZM19 19.25H5V20.75H19V19.25ZM5 4.75H16V3.25H5V4.75ZM15.4697 4.53033L18.4697 7.53033L19.5303 6.46967L16.5303 3.46967L15.4697 4.53033ZM5.75 8V4H4.25V8H5.75ZM5.75 20V18H4.25V20H5.75ZM18.25 7L18.25 8L19.75 8L19.75 7L18.25 7ZM18.25 18V20H19.75V18H18.25ZM6.25 10V13.6833H7.75V10H6.25ZM6.25 13.6833C6.25 14.2286 6.13138 14.6511 5.96231 14.9117C5.81267 15.1423 5.62919 15.25 5.366 15.25V16.75C6.19212 16.75 6.82564 16.337 7.22067 15.7281C7.59628 15.1492 7.75 14.4133 7.75 13.6833H6.25ZM5.366 15.25C5.18685 15.25 5.06966 15.2005 4.9807 15.1316C4.88348 15.0563 4.78095 14.9261 4.69612 14.7145L3.30388 15.2728C3.46242 15.6682 3.7056 16.0412 4.06189 16.3173C4.42644 16.5998 4.87055 16.75 5.366 16.75V15.25ZM11.0462 12.8525H9.54619V14.3525H11.0462V12.8525ZM10.2962 13.6025V10H8.79619V13.6025H10.2962ZM9.54619 10.75H11.0462V9.25H9.54619V10.75ZM11.0462 10.75C11.4181 10.75 11.5684 10.8472 11.6323 10.9132C11.7004 10.9836 11.7962 11.1488 11.7962 11.5332H13.2962C13.2962 10.9176 13.142 10.3162 12.7101 9.86997C12.274 9.41939 11.6743 9.25 11.0462 9.25V10.75ZM11.7962 11.5332V12.1378H13.2962V11.5332H11.7962ZM11.7962 12.1378C11.7962 12.3308 11.7568 12.4505 11.718 12.5244C11.679 12.5987 11.6253 12.6561 11.557 12.7034C11.4044 12.8089 11.1919 12.8525 11.0462 12.8525V14.3525C11.4005 14.3525 11.938 14.2637 12.4104 13.9369C12.925 13.5809 13.2962 12.9844 13.2962 12.1378H11.7962ZM16.6989 9.25C15.7966 9.25 15.1587 9.66372 14.7673 10.1811C14.4016 10.6646 14.25 11.2358 14.25 11.6439L15.75 11.6438C15.75 11.5496 15.8026 11.2989 15.9636 11.086C16.099 10.9071 16.3104 10.75 16.6989 10.75V9.25ZM14.25 11.6438V14.2341H15.75V11.6438H14.25ZM14.25 14.2341C14.25 15.6153 15.2479 16.75 16.6989 16.75V15.25C16.1497 15.25 15.75 14.8622 15.75 14.2341H14.25ZM19.25 14.3836V13.2877H17.75V14.3836H19.25ZM18.5 12.5377H16.9898V14.0377H18.5V12.5377ZM19.25 11.6438C19.25 10.9196 18.9607 10.2996 18.4662 9.87019C17.9829 9.45044 17.3487 9.25 16.6989 9.25V10.75C17.0491 10.75 17.3155 10.8575 17.4827 11.0028C17.6388 11.1383 17.75 11.3403 17.75 11.6438H19.25ZM16.6989 16.75C17.3191 16.75 17.9548 16.5894 18.4505 16.1824C18.9669 15.7583 19.25 15.1321 19.25 14.3836H17.75C17.75 14.731 17.6326 14.913 17.4985 15.0231C17.3436 15.1504 17.0787 15.25 16.6989 15.25V16.75ZM8.79619 13.6025V16H10.2962V13.6025H8.79619Z" fill="black"/>
</svg>
