<svg width="24" height="24" viewBox="0 0 24 24" fill="none" xmlns="http://www.w3.org/2000/svg">
<path d="M19.251 6.79291C19.2503 6.70101 19.2208 6.61059 19.1578 6.53903L15.3019 2.13413C15.3008 2.1329 15.2996 2.1325 15.2988 2.13137C15.2758 2.1057 15.249 2.08435 15.2207 2.06587C15.2123 2.06024 15.2039 2.05552 15.1951 2.05054C15.1705 2.03725 15.1445 2.02603 15.1177 2.01801C15.1104 2.01609 15.1039 2.01311 15.0966 2.01118C15.0675 2.00432 15.0373 2 15.0066 2H5.52978C5.09703 2 4.74547 2.35196 4.74547 2.78435V21.2157C4.74547 21.648 5.09703 22 5.52978 22H18.4709C18.9033 22 19.2552 21.6481 19.2552 21.2157V6.83667C19.2552 6.82192 19.253 6.80747 19.251 6.79291ZM9.40962 20.9231C9.15762 20.9231 8.82665 20.8802 8.61086 20.8082L8.73341 19.9232C8.88439 19.9738 9.07847 20.0097 9.29433 20.0097C9.75476 20.0097 10.0422 19.8006 10.0422 19.0454V15.9955H11.1359V19.06H11.1361C11.1361 20.4413 10.4744 20.9231 9.40962 20.9231ZM13.2366 20.9158C12.6828 20.9158 12.1367 20.7718 11.8632 20.6209L12.0861 19.7144C12.381 19.8657 12.8343 20.0166 13.3021 20.0166C13.8055 20.0166 14.0714 19.8085 14.0714 19.4915C14.0714 19.1894 13.8413 19.0167 13.2586 18.8083C12.453 18.5276 11.9279 18.0819 11.9279 17.3768C11.9279 16.5496 12.6183 15.9166 13.762 15.9166C14.3085 15.9166 14.7118 16.0315 14.9994 16.1613L14.7554 17.0459C14.5609 16.9525 14.2158 16.8157 13.7406 16.8157C13.2661 16.8157 13.0355 17.0321 13.0355 17.2833C13.0355 17.5924 13.3093 17.7295 13.9351 17.9665C14.7907 18.2833 15.1939 18.729 15.1939 19.4122C15.1935 20.2253 14.5674 20.9158 13.2366 20.9158ZM18.471 15.3169H5.52978V2.78435H14.6145V6.79705C14.6145 7.01372 14.7903 7.18921 15.0066 7.18921H18.4709V15.3169H18.471ZM14.9848 10.3804C15.0752 10.5678 15.1154 10.7575 15.1154 11C15.1154 11.38 14.9957 11.6829 14.7528 11.9173C14.5247 12.1387 14.2302 12.2689 13.8377 12.324C13.6814 12.3454 13.3756 12.3466 13.2125 12.324C12.5886 12.2405 12.127 11.9493 11.8318 11.4518C11.794 11.3898 11.7863 11.3694 11.7959 11.3606C11.8114 11.3461 12.5508 10.9196 12.5595 10.9196C12.5635 10.9196 12.5917 10.9564 12.6227 11.0012C12.85 11.3372 13.1329 11.4927 13.5114 11.4927C13.736 11.4927 13.9164 11.4315 14.0309 11.3158C14.0652 11.2819 14.1029 11.2314 14.1175 11.2013C14.1921 11.0458 14.1592 10.8429 14.0407 10.7157C13.9446 10.6127 13.7939 10.5299 13.3889 10.3563C13.0915 10.228 12.9196 10.1454 12.7934 10.0696C12.2973 9.76938 12.0744 9.39055 12.0744 8.84835C12.0744 8.48608 12.1871 8.20057 12.4231 7.96651C12.6526 7.7392 12.9606 7.60711 13.3274 7.57809C13.4664 7.56727 13.486 7.56727 13.6337 7.57904C13.9348 7.60133 14.1631 7.6741 14.3768 7.81608C14.4925 7.89295 14.6606 8.0676 14.7536 8.20747C14.7977 8.27352 14.8335 8.32984 14.8335 8.33383C14.8335 8.34055 14.1271 8.79723 14.1022 8.80805C14.0941 8.8107 14.0719 8.78466 14.0417 8.73699C14.0154 8.69527 13.9592 8.62642 13.9153 8.58372C13.792 8.45917 13.6706 8.41074 13.483 8.41074C13.3179 8.40957 13.2111 8.45133 13.1189 8.55155C13.0548 8.62058 13.0257 8.69135 13.0188 8.79628C13.0111 8.92842 13.0471 9.0343 13.1314 9.12468C13.2199 9.2188 13.3541 9.29269 13.7541 9.46447C14.2834 9.69196 14.5488 9.84926 14.7536 10.057C14.8607 10.1659 14.9228 10.2519 14.9848 10.3804ZM10.7825 7.62664H11.2586V9.34882C11.2586 10.4912 11.2547 11.0982 11.2488 11.1525C11.1818 11.6896 10.9285 12.0509 10.4961 12.2259C10.1357 12.3707 9.64419 12.3826 9.2614 12.2551C8.8992 12.1344 8.598 11.8724 8.42415 11.5255L8.39495 11.4673L8.77869 11.234C8.98943 11.107 9.16529 11.0012 9.16903 10.9992C9.17218 10.998 9.19746 11.036 9.22553 11.0828C9.39931 11.3801 9.54884 11.4859 9.79862 11.4849C9.97353 11.4839 10.0783 11.4497 10.1601 11.3682C10.2183 11.3099 10.2514 11.2469 10.2794 11.141L10.3008 11.0604L10.3038 9.34298L10.3077 7.62664H10.7825Z" fill="black"/>
</svg>
