<svg width="24" height="24" viewBox="0 0 24 24" fill="none" xmlns="http://www.w3.org/2000/svg">
<path d="M19 20V20.75H19.75V20H19ZM5 20H4.25V20.75H5V20ZM5 4V3.25H4.25V4H5ZM16 4L16.5303 3.46967L16.3107 3.25H16V4ZM19 7L19.75 7V6.68934L19.5303 6.46967L19 7ZM15.1755 10.7605C15.5897 10.7605 15.9255 10.4247 15.9255 10.0105C15.9255 9.59624 15.5897 9.26045 15.1755 9.26045V10.7605ZM13.9341 10.0105L13.8804 9.26238L13.9341 10.0105ZM12.7457 12.3664L13.3178 11.8814L12.7457 12.3664ZM14.7999 13.364L14.392 13.9933H14.392L14.7999 13.364ZM13.9341 16V15.25H13.9341L13.9341 16ZM12.6153 15.25C12.2011 15.25 11.8653 15.5858 11.8653 16C11.8653 16.4142 12.2011 16.75 12.6153 16.75L12.6153 15.25ZM10.75 10C10.75 9.58579 10.4142 9.25 10 9.25C9.58579 9.25 9.25 9.58579 9.25 10H10.75ZM7.69613 14.7145C7.54197 14.3301 7.10534 14.1434 6.72088 14.2975C6.33642 14.4517 6.14972 14.8883 6.30388 15.2728L7.69613 14.7145ZM19 19.25H5V20.75H19V19.25ZM5 4.75H16V3.25H5V4.75ZM15.4697 4.53033L18.4697 7.53033L19.5303 6.46967L16.5303 3.46967L15.4697 4.53033ZM5.75 8V4H4.25V8H5.75ZM5.75 20V18H4.25V20H5.75ZM18.25 7L18.25 8L19.75 8L19.75 7L18.25 7ZM18.25 18V20H19.75V18H18.25ZM15.1755 9.26045C14.4718 9.26045 14.2523 9.25458 14.1712 9.25201C14.1446 9.25117 14.0899 9.24836 14.0286 9.25154C13.9998 9.25303 13.9364 9.25836 13.8804 9.26238L13.9878 10.7585C14.0313 10.7554 14.0614 10.753 14.0823 10.7514C14.107 10.7495 14.108 10.7494 14.1063 10.7495C14.0875 10.7505 14.0576 10.7492 14.1237 10.7513C14.2279 10.7546 14.4653 10.7605 15.1755 10.7605V9.26045ZM13.8804 9.26238C12.7975 9.34011 12.0892 9.94467 11.8168 10.7309C11.5685 11.4477 11.6986 12.291 12.1735 12.8513L13.3178 11.8814C13.2166 11.7621 13.1432 11.4846 13.2342 11.222C13.3011 11.0289 13.475 10.7953 13.9878 10.7585L13.8804 9.26238ZM12.1735 12.8513C12.6045 13.3598 13.073 13.5219 13.46 13.6313C13.8264 13.735 14.0736 13.787 14.392 13.9933L15.2078 12.7346C14.6604 12.3798 14.1685 12.2729 13.8683 12.188C13.5886 12.1088 13.463 12.0527 13.3178 11.8814L12.1735 12.8513ZM14.392 13.9933C14.6232 14.1432 14.7453 14.4619 14.6729 14.766C14.6397 14.9055 14.5691 15.0184 14.4697 15.0973C14.3739 15.1733 14.2105 15.25 13.9341 15.25V16.75C15.1344 16.75 15.9157 16.0217 16.132 15.1137C16.3326 14.2717 16.0375 13.2724 15.2078 12.7346L14.392 13.9933ZM13.9341 15.25L12.6153 15.25L12.6153 16.75L13.9341 16.75L13.9341 15.25ZM9.25 10V13.6833H10.75V10H9.25ZM9.25 13.6833C9.25 14.2286 9.13138 14.6511 8.96231 14.9117C8.81267 15.1423 8.62919 15.25 8.366 15.25V16.75C9.19212 16.75 9.82564 16.337 10.2207 15.7281C10.5963 15.1492 10.75 14.4133 10.75 13.6833H9.25ZM8.366 15.25C8.18685 15.25 8.06966 15.2005 7.9807 15.1316C7.88348 15.0563 7.78095 14.9261 7.69613 14.7145L6.30388 15.2728C6.46242 15.6682 6.7056 16.0412 7.06189 16.3173C7.42644 16.5998 7.87055 16.75 8.366 16.75V15.25Z" fill="black"/>
</svg>
