<svg width="24" height="24" viewBox="0 0 24 24" fill="none" xmlns="http://www.w3.org/2000/svg">
<path d="M19 20V20.75H19.75V20H19ZM5 20H4.25V20.75H5V20ZM5 4V3.25H4.25V4H5ZM16 4L16.5303 3.46967L16.3107 3.25H16V4ZM19 7L19.75 7V6.68934L19.5303 6.46967L19 7ZM15 10V9.25H14.25V10H15ZM8.75 10C8.75 9.58579 8.41421 9.25 8 9.25C7.58579 9.25 7.25 9.58579 7.25 10H8.75ZM5.69612 14.7145C5.54197 14.3301 5.10534 14.1434 4.72088 14.2975C4.33642 14.4517 4.14972 14.8883 4.30388 15.2728L5.69612 14.7145ZM12.7324 10.7605C13.1466 10.7605 13.4824 10.4247 13.4824 10.0105C13.4824 9.59624 13.1466 9.26045 12.7324 9.26045V10.7605ZM11.4909 10.0105L11.4372 9.26238L11.4909 10.0105ZM10.3025 12.3664L10.8747 11.8814L10.3025 12.3664ZM12.3567 13.364L11.9488 13.9933L12.3567 13.364ZM11.4909 16V15.25H11.4909L11.4909 16ZM10.1721 15.25C9.75792 15.25 9.42214 15.5858 9.42214 16C9.42214 16.4142 9.75792 16.75 10.1721 16.75L10.1721 15.25ZM14.25 16C14.25 16.4142 14.5858 16.75 15 16.75C15.4142 16.75 15.75 16.4142 15.75 16H14.25ZM19 19.25H5V20.75H19V19.25ZM5 4.75H16V3.25H5V4.75ZM15.4697 4.53033L18.4697 7.53033L19.5303 6.46967L16.5303 3.46967L15.4697 4.53033ZM5.75 8V4H4.25V8H5.75ZM5.75 20V18H4.25V20H5.75ZM18.25 7L18.25 8L19.75 8L19.75 7L18.25 7ZM18.25 18V20H19.75V18H18.25ZM16.5 12.8525H15V14.3525H16.5V12.8525ZM15.75 13.6025V10H14.25V13.6025H15.75ZM15 10.75H16.5V9.25H15V10.75ZM16.5 10.75C16.8719 10.75 17.0222 10.8472 17.0861 10.9132C17.1542 10.9836 17.25 11.1488 17.25 11.5332H18.75C18.75 10.9176 18.5958 10.3162 18.1639 9.86997C17.7278 9.41939 17.1281 9.25 16.5 9.25V10.75ZM17.25 11.5332V12.1378H18.75V11.5332H17.25ZM17.25 12.1378C17.25 12.3308 17.2106 12.4505 17.1718 12.5244C17.1328 12.5987 17.0792 12.6561 17.0108 12.7034C16.8582 12.8089 16.6457 12.8525 16.5 12.8525V14.3525C16.8543 14.3525 17.3918 14.2637 17.8642 13.9369C18.3788 13.5809 18.75 12.9844 18.75 12.1378H17.25ZM7.25 10V13.6833H8.75V10H7.25ZM7.25 13.6833C7.25 14.2286 7.13138 14.6511 6.96231 14.9117C6.81267 15.1423 6.62919 15.25 6.366 15.25V16.75C7.19212 16.75 7.82564 16.337 8.22067 15.7281C8.59628 15.1492 8.75 14.4133 8.75 13.6833H7.25ZM6.366 15.25C6.18685 15.25 6.06966 15.2005 5.9807 15.1316C5.88348 15.0563 5.78095 14.9261 5.69612 14.7145L4.30388 15.2728C4.46242 15.6682 4.7056 16.0412 5.06189 16.3173C5.42644 16.5998 5.87055 16.75 6.366 16.75V15.25ZM12.7324 9.26045C12.0286 9.26045 11.8092 9.25458 11.7281 9.25201C11.7015 9.25117 11.6468 9.24836 11.5855 9.25154C11.5566 9.25303 11.4933 9.25836 11.4372 9.26238L11.5446 10.7585C11.5882 10.7554 11.6182 10.753 11.6392 10.7514C11.6638 10.7495 11.6649 10.7494 11.6631 10.7495C11.6444 10.7505 11.6144 10.7492 11.6805 10.7513C11.7847 10.7546 12.0222 10.7605 12.7324 10.7605V9.26045ZM11.4372 9.26238C10.3544 9.34011 9.64609 9.94467 9.37367 10.7309C9.12534 11.4477 9.25546 12.291 9.73038 12.8513L10.8747 11.8814C10.7735 11.7621 10.7 11.4846 10.791 11.222C10.8579 11.0289 11.0319 10.7953 11.5446 10.7585L11.4372 9.26238ZM9.73038 12.8513C10.1613 13.3598 10.6299 13.5219 11.0168 13.6313C11.3833 13.735 11.6304 13.787 11.9488 13.9933L12.7646 12.7346C12.2172 12.3798 11.7253 12.2729 11.4251 12.188C11.1454 12.1088 11.0198 12.0527 10.8747 11.8814L9.73038 12.8513ZM11.9488 13.9933C12.18 14.1432 12.3022 14.4619 12.2297 14.766C12.1965 14.9055 12.126 15.0184 12.0266 15.0973C11.9307 15.1733 11.7674 15.25 11.4909 15.25V16.75C12.6912 16.75 13.4726 16.0217 13.6889 15.1137C13.8895 14.2717 13.5944 13.2724 12.7646 12.7346L11.9488 13.9933ZM11.4909 15.25L10.1721 15.25L10.1721 16.75L11.4909 16.75L11.4909 15.25ZM14.25 13.6025V16H15.75V13.6025H14.25Z" fill="black"/>
</svg>
