<svg width="24" height="24" viewBox="0 0 24 24" fill="none" xmlns="http://www.w3.org/2000/svg">
<path d="M19 20V20.75H19.75V20H19ZM5 20H4.25V20.75H5V20ZM5 4V3.25H4.25V4H5ZM16 4L16.5303 3.46967L16.3107 3.25H16V4ZM19 7L19.75 7V6.68934L19.5303 6.46967L19 7ZM5.75 10C5.75 9.58579 5.41421 9.25 5 9.25C4.58579 9.25 4.25 9.58579 4.25 10H5.75ZM4.25 16C4.25 16.4142 4.58579 16.75 5 16.75C5.41421 16.75 5.75 16.4142 5.75 16H4.25ZM8.6 10.45C8.84853 10.1186 8.78137 9.64853 8.45 9.4C8.11863 9.15147 7.64853 9.21863 7.4 9.55L8.6 10.45ZM6.70575 12.2234C6.50024 11.8637 6.0421 11.7388 5.68246 11.9443C5.32282 12.1498 5.19788 12.608 5.40338 12.9676L6.70575 12.2234ZM7.34882 16.3721C7.55432 16.7317 8.01246 16.8567 8.3721 16.6512C8.73174 16.4457 8.85669 15.9875 8.65118 15.6279L7.34882 16.3721ZM10 10V9.25H9.25V10H10ZM10 16H9.25V16.75H10V16ZM13 10.75C13.4142 10.75 13.75 10.4142 13.75 10C13.75 9.58579 13.4142 9.25 13 9.25V10.75ZM12.5 13.75C12.9142 13.75 13.25 13.4142 13.25 13C13.25 12.5858 12.9142 12.25 12.5 12.25V13.75ZM13 16.75C13.4142 16.75 13.75 16.4142 13.75 16C13.75 15.5858 13.4142 15.25 13 15.25V16.75ZM15.6708 9.66459C15.4856 9.29411 15.0351 9.14394 14.6646 9.32918C14.2941 9.51442 14.1439 9.96493 14.3292 10.3354L15.6708 9.66459ZM19.6708 10.3354C19.8561 9.96493 19.7059 9.51442 19.3354 9.32918C18.9649 9.14394 18.5144 9.29411 18.3292 9.66459L19.6708 10.3354ZM16.25 16C16.25 16.4142 16.5858 16.75 17 16.75C17.4142 16.75 17.75 16.4142 17.75 16H16.25ZM19 19.25H5V20.75H19V19.25ZM5 4.75H16V3.25H5V4.75ZM15.4697 4.53033L18.4697 7.53033L19.5303 6.46967L16.5303 3.46967L15.4697 4.53033ZM5.75 8V4H4.25V8H5.75ZM5.75 20V18H4.25V20H5.75ZM18.25 7L18.25 8L19.75 8L19.75 7L18.25 7ZM18.25 18V20H19.75V18H18.25ZM4.25 10V14H5.75V10H4.25ZM4.25 14V16H5.75V14H4.25ZM5.6 14.45L8.6 10.45L7.4 9.55L4.4 13.55L5.6 14.45ZM5.40338 12.9676L7.34882 16.3721L8.65118 15.6279L6.70575 12.2234L5.40338 12.9676ZM9.25 10V13H10.75V10H9.25ZM9.25 13V16H10.75V13H9.25ZM10 10.75H13V9.25H10V10.75ZM10 13.75H12.5V12.25H10V13.75ZM10 16.75H13V15.25H10V16.75ZM14.3292 10.3354L16.3292 14.3354L17.6708 13.6646L15.6708 9.66459L14.3292 10.3354ZM17.6708 14.3354L19.6708 10.3354L18.3292 9.66459L16.3292 13.6646L17.6708 14.3354ZM16.25 14V16H17.75V14H16.25Z" fill="black"/>
</svg>
