<svg width="24" height="24" viewBox="0 0 24 24" fill="none" xmlns="http://www.w3.org/2000/svg">
<path d="M19.7348 9.15372H19.2545V6.83648C19.2545 6.82193 19.2523 6.80748 19.2503 6.79271C19.2496 6.70072 19.2202 6.61033 19.1572 6.53883L15.3012 2.13413C15.3 2.13289 15.2989 2.13252 15.2981 2.13139C15.2751 2.10571 15.2484 2.08426 15.22 2.06588C15.2116 2.06015 15.2031 2.05545 15.1943 2.05059C15.1698 2.03728 15.1438 2.02608 15.117 2.01802C15.1097 2.01612 15.1032 2.01313 15.0959 2.01116C15.0668 2.0043 15.0365 2 15.0059 2H5.52904C5.09631 2 4.74475 2.35197 4.74475 2.78433V9.15368H4.26457C3.64551 9.15368 3.14355 9.65546 3.14355 10.2746V16.104C3.14355 16.7229 3.64551 17.2252 4.26457 17.2252H4.74475V21.2157C4.74475 21.6481 5.09631 22 5.52904 22H18.4702C18.9026 22 19.2545 21.6481 19.2545 21.2157V17.2252H19.7347C20.3536 17.2252 20.8556 16.7231 20.8556 16.1042V10.2749C20.8557 9.6555 20.3536 9.15372 19.7348 9.15372ZM5.52904 2.78433H14.6138V6.79701C14.6138 7.01369 14.7895 7.18918 15.0059 7.18918H18.4702V9.15387H5.52904V2.78433ZM13.4652 12.5495V13.5272H11.5093V14.7891H13.6939V15.7749H10.3028V10.4602H13.5834V11.4455H11.5095V12.5496H13.4652V12.5495ZM5.45981 15.7749V10.4602H6.65067V12.81H6.67423C6.79268 12.6047 6.91874 12.4155 7.03718 12.2263L8.24384 10.46H9.71831L7.95965 12.723L9.81279 15.7747H8.40923L7.10791 13.48L6.65063 14.0397V15.7747H5.45981V15.7749ZM18.4702 21.0031H5.52904V17.2252H18.4702V21.0031H18.4702ZM16.9437 13.559V15.7749H15.745V13.5985L14.0655 10.46H15.4375L15.9813 11.7373C16.1473 12.1237 16.2578 12.4079 16.3916 12.7545H16.4076C16.5259 12.4232 16.6519 12.1161 16.8098 11.7373L17.3458 10.46H18.6942L16.9437 13.559Z" fill="black"/>
</svg>
