<svg width="24" height="24" viewBox="0 0 24 24" fill="none" xmlns="http://www.w3.org/2000/svg">
<path d="M19.7351 9.1539H19.2549V6.83667C19.2549 6.82211 19.2527 6.80767 19.2507 6.79292C19.25 6.70101 19.2205 6.61063 19.1577 6.53903L15.3014 2.13415C15.3004 2.13299 15.2993 2.13252 15.2985 2.13135C15.2756 2.10572 15.2487 2.08434 15.2204 2.06588C15.2119 2.06022 15.2035 2.05544 15.1947 2.05057C15.1702 2.03726 15.1442 2.02607 15.1174 2.01802C15.1101 2.0161 15.1036 2.01314 15.0963 2.01123C15.0672 2.00431 15.0369 2 15.0063 2H5.52942C5.09669 2 4.74512 2.35192 4.74512 2.78431V9.15368H4.26486C3.6459 9.15368 3.14392 9.65547 3.14392 10.2747V16.1042C3.14392 16.7229 3.6459 17.2252 4.26486 17.2252H4.74512V21.2157C4.74512 21.6481 5.09669 22 5.52942 22H18.4706C18.903 22 19.2549 21.6481 19.2549 21.2157V17.2252H19.7351C20.354 17.2252 20.8561 16.7231 20.8561 16.1042V10.2749C20.8561 9.65547 20.354 9.1539 19.7351 9.1539ZM5.52942 2.7845H14.6141V6.7972C14.6141 7.01387 14.7899 7.18934 15.0063 7.18934H18.4706V9.15409H5.52942V2.7845ZM15.4827 15.426H14.3736L14.299 13.5048C14.2767 12.9019 14.2544 12.1721 14.2544 11.4427H14.2319C14.0755 12.0827 13.8673 12.7977 13.6736 13.3855L13.0629 15.3436H12.1767L11.6408 13.4005C11.4771 12.8126 11.3059 12.0975 11.1867 11.4427H11.1718C11.1422 12.1198 11.1196 12.8942 11.0825 13.52L10.9929 15.426H9.9431L10.2635 10.4078H11.7749L12.2663 12.0827C12.4224 12.6637 12.579 13.289 12.6909 13.8769H12.7131C12.8544 13.2963 13.026 12.6334 13.1899 12.0752L13.7258 10.4076H15.2073L15.4827 15.426ZM5.48414 15.426V10.4078H6.60842V12.6261H6.63071C6.74254 12.4326 6.86153 12.2541 6.97329 12.0752L8.11251 10.4076H9.50486L7.84452 12.5442L9.59389 15.4256H8.26873L7.04018 13.2586L6.6082 13.7876V15.4256H5.48411V15.426H5.48414ZM18.4706 21.0033H5.52942V17.2252H18.4706V21.0033ZM19.4878 15.426H16.3532V10.4078H17.4923V14.4728H19.4882V15.426H19.4878Z" fill="black"/>
</svg>
