<svg width="24" height="24" viewBox="0 0 24 24" fill="none" xmlns="http://www.w3.org/2000/svg">
<path d="M19 20V20.75H19.75V20H19ZM5 20H4.25V20.75H5V20ZM5 4V3.25H4.25V4H5ZM16 4L16.5303 3.46967L16.3107 3.25H16V4ZM19 7H19.75V6.68934L19.5303 6.46967L19 7ZM5.75 10C5.75 9.58579 5.41421 9.25 5 9.25C4.58579 9.25 4.25 9.58579 4.25 10H5.75ZM4.25 16C4.25 16.4142 4.58579 16.75 5 16.75C5.41421 16.75 5.75 16.4142 5.75 16H4.25ZM8.6 10.45C8.84853 10.1186 8.78137 9.64853 8.45 9.4C8.11863 9.15147 7.64853 9.21863 7.4 9.55L8.6 10.45ZM6.70575 12.2234C6.50024 11.8637 6.0421 11.7388 5.68246 11.9443C5.32282 12.1498 5.19788 12.608 5.40338 12.9676L6.70575 12.2234ZM7.34882 16.3721C7.55432 16.7317 8.01246 16.8567 8.3721 16.6512C8.73174 16.4457 8.85669 15.9875 8.65118 15.6279L7.34882 16.3721ZM10 10V9.25C9.58579 9.25 9.25 9.58579 9.25 10H10ZM9.25 16C9.25 16.4142 9.58579 16.75 10 16.75C10.4142 16.75 10.75 16.4142 10.75 16H9.25ZM10.7143 10L11.4114 9.72337C11.298 9.43761 11.0217 9.25 10.7143 9.25V10ZM12.5 14.5L11.8029 14.7766C11.9163 15.0624 12.1926 15.25 12.5 15.25C12.8074 15.25 13.0837 15.0624 13.1971 14.7766L12.5 14.5ZM14.2857 10V9.25C13.9783 9.25 13.702 9.43761 13.5886 9.72337L14.2857 10ZM15 10H15.75C15.75 9.58579 15.4142 9.25 15 9.25V10ZM14.25 16C14.25 16.4142 14.5858 16.75 15 16.75C15.4142 16.75 15.75 16.4142 15.75 16H14.25ZM18.25 10C18.25 9.58579 17.9142 9.25 17.5 9.25C17.0858 9.25 16.75 9.58579 16.75 10H18.25ZM17.5 16H16.75V16.75H17.5V16ZM20.5 16.75C20.9142 16.75 21.25 16.4142 21.25 16C21.25 15.5858 20.9142 15.25 20.5 15.25V16.75ZM19 19.25H5V20.75H19V19.25ZM5 4.75H16V3.25H5V4.75ZM15.4697 4.53033L18.4697 7.53033L19.5303 6.46967L16.5303 3.46967L15.4697 4.53033ZM5.75 8V4H4.25V8H5.75ZM5.75 20V18H4.25V20H5.75ZM18.25 7V8H19.75V7H18.25ZM18.25 18V20H19.75V18H18.25ZM4.25 10V14H5.75V10H4.25ZM4.25 14V16H5.75V14H4.25ZM5.6 14.45L8.6 10.45L7.4 9.55L4.4 13.55L5.6 14.45ZM5.40338 12.9676L7.34882 16.3721L8.65118 15.6279L6.70575 12.2234L5.40338 12.9676ZM9.25 10V16H10.75V10H9.25ZM10 10.75H10.7143V9.25H10V10.75ZM10.0172 10.2766L11.8029 14.7766L13.1971 14.2234L11.4114 9.72337L10.0172 10.2766ZM13.1971 14.7766L14.9828 10.2766L13.5886 9.72337L11.8029 14.2234L13.1971 14.7766ZM14.2857 10.75H15V9.25H14.2857V10.75ZM14.25 10V16H15.75V10H14.25ZM16.75 10V16H18.25V10H16.75ZM17.5 16.75H20.5V15.25H17.5V16.75Z" fill="black"/>
</svg>
