<svg xmlns="http://www.w3.org/2000/svg" width="20" height="20" fill="none" viewBox="0 0 20 20">
  <path fill="#A0A0A0" d="M17.735 7.154h-.48V4.837c0-.015-.002-.03-.004-.044a.386.386 0 00-.093-.254L13.3.134 13.3.131a.39.39 0 00-.182-.113l-.02-.007a.393.393 0 00-.09-.011H3.53a.785.785 0 00-.785.784v6.37h-.48c-.619 0-1.121.501-1.121 1.12v5.83c0 .619.502 1.121 1.121 1.121h.48v3.99c0 .433.352.785.785.785h12.94a.785.785 0 00.785-.784v-3.99h.48c.62 0 1.121-.503 1.121-1.122v-5.83c0-.619-.502-1.12-1.12-1.12zM3.53.784h9.084v4.013c0 .217.176.392.392.392h3.465v1.965H3.53V.784zm9.643 12.766h-1.16l-.079-2.009a59.39 59.39 0 01-.046-2.157h-.024c-.163.67-.381 1.418-.584 2.033l-.638 2.048h-.927l-.56-2.033a24.08 24.08 0 01-.475-2.047h-.016c-.031.708-.055 1.517-.093 2.172l-.094 1.993H7.38l.335-5.248h1.581l.514 1.752c.163.608.327 1.262.444 1.877h.023c.148-.608.327-1.3.498-1.885l.561-1.744h1.55l.288 5.248zm-10.458 0V8.302h1.176v2.32h.024c.117-.202.241-.389.358-.576l1.191-1.744H6.92l-1.736 2.235 1.83 3.013H5.628l-1.285-2.266-.452.553v1.713H2.715zm13.756 5.453H3.53v-3.778h12.94v3.778zm1.357-5.453h-4.08v-.638l2.5-3.598v-.03h-2.266v-.982h3.808v.685l-2.445 3.55v.032h2.483v.981z"/>
</svg>
