<svg width="24" height="24" viewBox="0 0 24 24" fill="none" xmlns="http://www.w3.org/2000/svg">
<path d="M19 20V20.75H19.75V20H19ZM5 20H4.25V20.75H5V20ZM5 4V3.25H4.25V4H5ZM16 4L16.5303 3.46967L16.3107 3.25H16V4ZM19 7L19.75 7V6.68934L19.5303 6.46967L19 7ZM4.75 10C4.75 9.58579 4.41421 9.25 4 9.25C3.58579 9.25 3.25 9.58579 3.25 10H4.75ZM3.25 16C3.25 16.4142 3.58579 16.75 4 16.75C4.41421 16.75 4.75 16.4142 4.75 16H3.25ZM7.6 10.45C7.84853 10.1186 7.78137 9.64853 7.45 9.4C7.11863 9.15147 6.64853 9.21863 6.4 9.55L7.6 10.45ZM5.70575 12.2234C5.50024 11.8637 5.0421 11.7388 4.68246 11.9443C4.32282 12.1498 4.19788 12.608 4.40338 12.9676L5.70575 12.2234ZM6.34882 16.3721C6.55432 16.7317 7.01246 16.8567 7.3721 16.6512C7.73174 16.4457 7.85669 15.9875 7.65118 15.6279L6.34882 16.3721ZM9 10V9.25C8.58579 9.25 8.25 9.58579 8.25 10H9ZM8.25 16C8.25 16.4142 8.58579 16.75 9 16.75C9.41421 16.75 9.75 16.4142 9.75 16H8.25ZM9.71429 10L10.4114 9.72337C10.298 9.43761 10.0217 9.25 9.71429 9.25V10ZM11.5 14.5L10.8029 14.7766C10.9163 15.0624 11.1926 15.25 11.5 15.25C11.8074 15.25 12.0837 15.0624 12.1971 14.7766L11.5 14.5ZM13.2857 10V9.25C12.9783 9.25 12.702 9.43761 12.5886 9.72337L13.2857 10ZM14 10H14.75C14.75 9.58579 14.4142 9.25 14 9.25V10ZM13.25 16C13.25 16.4142 13.5858 16.75 14 16.75C14.4142 16.75 14.75 16.4142 14.75 16H13.25ZM16.25 9.25C15.8358 9.25 15.5 9.58579 15.5 10C15.5 10.4142 15.8358 10.75 16.25 10.75V9.25ZM19.5789 10H20.3289V9.25H19.5789V10ZM19.5789 10.2341L20.2214 10.6209L20.3289 10.4424V10.2341H19.5789ZM16.25 15.7623L15.6075 15.3754L15.5 15.554V15.7623H16.25ZM16.25 16H15.5V16.75H16.25V16ZM19.75 16.75C20.1642 16.75 20.5 16.4142 20.5 16C20.5 15.5858 20.1642 15.25 19.75 15.25V16.75ZM19 19.25H5V20.75H19V19.25ZM5 4.75H16V3.25H5V4.75ZM15.4697 4.53033L18.4697 7.53033L19.5303 6.46967L16.5303 3.46967L15.4697 4.53033ZM5.75 8V4H4.25V8H5.75ZM5.75 20V18H4.25V20H5.75ZM18.25 7L18.25 8L19.75 8L19.75 7L18.25 7ZM18.25 18V20H19.75V18H18.25ZM3.25 10V14H4.75V10H3.25ZM3.25 14V16H4.75V14H3.25ZM4.6 14.45L7.6 10.45L6.4 9.55L3.4 13.55L4.6 14.45ZM4.40338 12.9676L6.34882 16.3721L7.65118 15.6279L5.70575 12.2234L4.40338 12.9676ZM8.25 10V16H9.75V10H8.25ZM9 10.75H9.71429V9.25H9V10.75ZM9.01717 10.2766L10.8029 14.7766L12.1971 14.2234L10.4114 9.72337L9.01717 10.2766ZM12.1971 14.7766L13.9828 10.2766L12.5886 9.72337L10.8029 14.2234L12.1971 14.7766ZM13.2857 10.75H14V9.25H13.2857V10.75ZM13.25 10V16H14.75V10H13.25ZM16.25 10.75H19.5789V9.25H16.25V10.75ZM18.8289 10V10.2341H20.3289V10H18.8289ZM18.9364 9.84716L15.6075 15.3754L16.8925 16.1492L20.2214 10.6209L18.9364 9.84716ZM15.5 15.7623V16H17V15.7623H15.5ZM16.25 16.75H19.75V15.25H16.25V16.75Z" fill="black"/>
</svg>
