<svg width="24" height="24" viewBox="0 0 24 24" fill="none" xmlns="http://www.w3.org/2000/svg">
<path d="M19.7348 9.1539H19.2546V6.8367C19.2546 6.82215 19.2522 6.8077 19.2504 6.79293C19.2496 6.70101 19.2201 6.61065 19.1573 6.53905L15.301 2.13413C15.3001 2.133 15.2988 2.13252 15.2981 2.13139C15.2752 2.10571 15.2484 2.08433 15.22 2.06588C15.2116 2.06026 15.2032 2.05545 15.1943 2.05059C15.1698 2.03728 15.1438 2.02608 15.117 2.01802C15.1097 2.01612 15.1032 2.01313 15.096 2.01123C15.0668 2.0043 15.0365 2 15.006 2H5.52908C5.09632 2 4.74479 2.35197 4.74479 2.78433V9.15368H4.26454C3.64556 9.15368 3.14364 9.65546 3.14364 10.2747V16.1042C3.14364 16.7229 3.6456 17.2252 4.26454 17.2252H4.74479V21.2157C4.74479 21.6481 5.09632 22 5.52908 22H18.4703C18.9026 22 19.2546 21.6481 19.2546 21.2157V17.2252H19.7348C20.3536 17.2252 20.8557 16.7231 20.8557 16.1042V10.2749C20.8557 9.6555 20.3536 9.1539 19.7348 9.1539ZM5.52908 2.78451H14.6138V6.7972C14.6138 7.01387 14.7895 7.18936 15.0059 7.18936H18.4703V9.15405H5.52908V2.78451ZM10.599 14.2985V15.9614H9.45218V10.4398H10.9104L12.0573 12.4635C12.385 13.0451 12.7125 13.7329 12.9586 14.3561H12.9831C12.9011 13.6263 12.8764 12.8812 12.8764 12.0537V10.4399H14.0232V15.9614H12.7125L11.533 13.8317C11.2053 13.242 10.8449 12.5289 10.5745 11.8818L10.55 11.8902C10.5828 12.6189 10.599 13.3975 10.599 14.2985ZM5.26656 15.9616V10.44H6.5198V14.9132H8.71516V15.9617H5.26656V15.9616ZM18.4703 21.0033H5.52908V17.2252H18.4703V21.0033ZM18.1679 15.9616L16.8162 13.5776L16.3413 14.1595V15.9615H15.1042V10.44H16.3413V12.8814H16.3658C16.4883 12.6678 16.6197 12.4714 16.7427 12.2749L17.9959 10.44H19.5279L17.7012 12.7914L19.626 15.9615H18.1679V15.9616Z" fill="black"/>
</svg>
