<svg width="24" height="24" viewBox="0 0 24 24" fill="none" xmlns="http://www.w3.org/2000/svg">
<path d="M19 20V20.75H19.75L19.75 20L19 20ZM5 20H4.25V20.75H5V20ZM5 4V3.25H4.25V4H5ZM16 4L16.5303 3.46967L16.3107 3.25H16V4ZM19 7L19.75 7V6.68934L19.5303 6.46967L19 7ZM9.25 16C9.25 16.4142 9.58579 16.75 10 16.75C10.4142 16.75 10.75 16.4142 10.75 16H9.25ZM10 10L10.6478 9.6221C10.4771 9.32942 10.1314 9.18756 9.80427 9.27599C9.47718 9.36442 9.25 9.66117 9.25 10H10ZM13.5 16L12.8522 16.3779C13.0229 16.6706 13.3686 16.8124 13.6957 16.724C14.0228 16.6356 14.25 16.3388 14.25 16H13.5ZM14.25 10C14.25 9.58579 13.9142 9.25 13.5 9.25C13.0858 9.25 12.75 9.58579 12.75 10H14.25ZM16.75 10C16.75 9.58579 16.4142 9.25 16 9.25C15.5858 9.25 15.25 9.58579 15.25 10H16.75ZM15.25 16C15.25 16.4142 15.5858 16.75 16 16.75C16.4142 16.75 16.75 16.4142 16.75 16H15.25ZM19.6 10.45C19.8485 10.1186 19.7814 9.64853 19.45 9.4C19.1186 9.15147 18.6485 9.21863 18.4 9.55L19.6 10.45ZM17.7057 12.2234C17.5002 11.8637 17.0421 11.7388 16.6825 11.9443C16.3228 12.1498 16.1979 12.608 16.4034 12.9676L17.7057 12.2234ZM18.3488 16.3721C18.5543 16.7317 19.0125 16.8567 19.3721 16.6512C19.7317 16.4457 19.8567 15.9875 19.6512 15.6279L18.3488 16.3721ZM5.75 10C5.75 9.58579 5.41421 9.25 5 9.25C4.58579 9.25 4.25 9.58579 4.25 10H5.75ZM5 16H4.25V16.75H5V16ZM8 16.75C8.41421 16.75 8.75 16.4142 8.75 16C8.75 15.5858 8.41421 15.25 8 15.25V16.75ZM19 19.25H5V20.75H19V19.25ZM5 4.75H16V3.25H5V4.75ZM15.4697 4.53033L18.4697 7.53033L19.5303 6.46967L16.5303 3.46967L15.4697 4.53033ZM5.75 8V4H4.25V8H5.75ZM5.75 20V18H4.25V20H5.75ZM18.25 7L18.25 8L19.75 8L19.75 7L18.25 7ZM18.25 18L18.25 20L19.75 20L19.75 18L18.25 18ZM10.75 16V10H9.25V16H10.75ZM9.35217 10.3779L12.8522 16.3779L14.1478 15.6221L10.6478 9.6221L9.35217 10.3779ZM14.25 16V10H12.75V16H14.25ZM15.25 10V14H16.75V10H15.25ZM15.25 14V16H16.75V14H15.25ZM16.6 14.45L19.6 10.45L18.4 9.55L15.4 13.55L16.6 14.45ZM16.4034 12.9676L18.3488 16.3721L19.6512 15.6279L17.7057 12.2234L16.4034 12.9676ZM4.25 10V16H5.75V10H4.25ZM5 16.75H8V15.25H5V16.75Z" fill="black"/>
</svg>
