<svg width="24" height="24" viewBox="0 0 24 24" fill="none" xmlns="http://www.w3.org/2000/svg">
<path d="M19 20V20.75H19.75V20H19ZM5 20H4.25V20.75H5V20ZM5 4V3.25H4.25V4H5ZM16 4L16.5303 3.46967L16.3107 3.25H16V4ZM19 7L19.75 7V6.68934L19.5303 6.46967L19 7ZM5.75 10C5.75 9.58579 5.41421 9.25 5 9.25C4.58579 9.25 4.25 9.58579 4.25 10H5.75ZM5 16H4.25V16.75H5V16ZM8 16.75C8.41421 16.75 8.75 16.4142 8.75 16C8.75 15.5858 8.41421 15.25 8 15.25V16.75ZM14.25 10C14.25 9.58579 13.9142 9.25 13.5 9.25C13.0858 9.25 12.75 9.58579 12.75 10H14.25ZM10.75 10C10.75 9.58579 10.4142 9.25 10 9.25C9.58579 9.25 9.25 9.58579 9.25 10H10.75ZM15.2724 15.8181C15.1719 16.2199 15.4163 16.6271 15.8181 16.7276C16.2199 16.8281 16.6271 16.5837 16.7276 16.1819L15.2724 15.8181ZM17.5 10V9.25C17.1558 9.25 16.8559 9.48422 16.7724 9.8181L17.5 10ZM18.5 10L19.2276 9.8181C19.1441 9.48422 18.8442 9.25 18.5 9.25V10ZM19.2724 16.1819C19.3729 16.5837 19.7801 16.8281 20.1819 16.7276C20.5837 16.6271 20.8281 16.2199 20.7276 15.8181L19.2724 16.1819ZM19 19.25H5V20.75H19V19.25ZM5 4.75H16V3.25H5V4.75ZM15.4697 4.53033L18.4697 7.53033L19.5303 6.46967L16.5303 3.46967L15.4697 4.53033ZM5.75 8V4H4.25V8H5.75ZM5.75 20V18H4.25V20H5.75ZM18.25 7L18.25 8L19.75 8L19.75 7L18.25 7ZM18.25 18V20H19.75V18H18.25ZM4.25 10V16H5.75V10H4.25ZM5 16.75H8V15.25H5V16.75ZM12.75 10V13.6833H14.25V10H12.75ZM10.75 13.6833V10H9.25V13.6833H10.75ZM11.725 15.25C11.3911 15.25 11.1891 15.1206 11.0404 14.9003C10.8684 14.6456 10.75 14.2302 10.75 13.6833H9.25C9.25 14.4118 9.40238 15.1547 9.79708 15.7395C10.215 16.3586 10.8755 16.75 11.725 16.75V15.25ZM12.75 13.6833C12.75 14.218 12.6241 14.6311 12.4432 14.8878C12.2821 15.1164 12.0629 15.25 11.725 15.25V16.75C12.5703 16.75 13.2387 16.3629 13.6693 15.752C14.08 15.1692 14.25 14.4239 14.25 13.6833H12.75ZM16.7276 16.1819L17.2276 14.1819L15.7724 13.8181L15.2724 15.8181L16.7276 16.1819ZM17.2276 14.1819L18.2276 10.1819L16.7724 9.8181L15.7724 13.8181L17.2276 14.1819ZM17.5 10.75H18.5V9.25H17.5V10.75ZM17.7724 10.1819L18.7724 14.1819L20.2276 13.8181L19.2276 9.8181L17.7724 10.1819ZM18.7724 14.1819L19.2724 16.1819L20.7276 15.8181L20.2276 13.8181L18.7724 14.1819ZM16.5 14.75H19.5V13.25H16.5V14.75Z" fill="black"/>
</svg>
