<svg width="24" height="24" viewBox="0 0 24 24" fill="none" xmlns="http://www.w3.org/2000/svg">
<path d="M19.7352 9.15373H19.2549V6.83648C19.2549 6.82192 19.2526 6.80747 19.2507 6.79273C19.2499 6.70072 19.2207 6.61034 19.1577 6.53881L15.3016 2.13413C15.3004 2.1329 15.2993 2.1325 15.2985 2.13137C15.2755 2.1057 15.2487 2.08424 15.2204 2.06587C15.212 2.06013 15.2036 2.05545 15.1948 2.05054C15.1702 2.03725 15.1442 2.02603 15.1174 2.01801C15.1101 2.01609 15.1036 2.01311 15.0963 2.01111C15.0672 2.00432 15.037 2 15.0063 2H5.52948C5.09673 2 4.74517 2.35196 4.74517 2.78435V9.15373H4.26503C3.64597 9.15373 3.14401 9.65547 3.14401 10.2746V16.104C3.14401 16.7229 3.64597 17.2252 4.26503 17.2252H4.74521V21.2157C4.74521 21.648 5.09677 22 5.52952 22H18.4706C18.903 22 19.255 21.648 19.255 21.2157V17.2252H19.7352C20.3541 17.2252 20.8561 16.7231 20.8561 16.1043V10.2749C20.8561 9.65547 20.354 9.15373 19.7352 9.15373ZM5.52948 2.78435H14.6142V6.79705C14.6142 7.01372 14.7899 7.18921 15.0063 7.18921H18.4706V9.15391H5.52948V2.78435ZM12.0573 13.5209H11.5841V12.6891H12.0344C12.4236 12.6817 12.92 12.5369 12.92 12.1166C12.92 11.819 12.6756 11.5978 12.1872 11.5978C11.7826 11.5978 11.3552 11.7733 11.1491 11.8954L10.9126 11.0561C11.2103 10.8649 11.8056 10.6823 12.447 10.6823C13.5078 10.6823 14.0956 11.2392 14.0956 11.9182C14.0956 12.4454 13.7977 12.8576 13.1872 13.0709V13.0863C13.7827 13.1935 14.2634 13.6435 14.2634 14.292C14.2634 15.1703 13.4925 15.8113 12.2329 15.8113C11.5918 15.8113 11.0499 15.6437 10.7599 15.4601L10.9966 14.59C11.2027 14.6968 11.676 14.8952 12.1491 14.8952C12.752 14.8952 13.0574 14.6053 13.0574 14.2311C13.0574 13.7427 12.5689 13.5209 12.0573 13.5209ZM5.47875 15.7272H4.40243L4.73072 10.5826H6.28009L6.7838 12.3002C6.94425 12.8954 7.10442 13.5368 7.21894 14.1396H7.24193C7.38699 13.5441 7.56248 12.8647 7.73049 12.2926L8.27994 10.5826H9.79896L10.0813 15.7272H8.94377L8.86756 13.758C8.84457 13.1397 8.82181 12.3912 8.82181 11.6433H8.79893C8.63876 12.3003 8.42479 13.0329 8.2266 13.6355L7.60064 15.6434H6.69226L6.14259 13.6508C5.97476 13.048 5.79927 12.3148 5.67719 11.6433H5.66169C5.63122 12.338 5.60835 13.1321 5.57026 13.7729L5.47875 15.7272ZM18.4706 21.0031H5.52948V17.2252H18.4706V21.0031H18.4706ZM19.4075 13.4675C19.4075 15.0555 18.606 15.8109 17.2628 15.8109C15.9649 15.8109 15.2016 15.0932 15.2016 13.4522V10.5825H16.3695V13.5441C16.3695 14.4295 16.7051 14.8803 17.3007 14.8803C17.9115 14.8803 18.2472 14.4527 18.2472 13.5441V10.5825H19.4074V13.4675H19.4075Z" fill="black"/>
</svg>
