<svg width="24" height="24" viewBox="0 0 24 24" fill="none" xmlns="http://www.w3.org/2000/svg">
<path d="M3 10V9.25C2.58579 9.25 2.25 9.58579 2.25 10H3ZM2.25 16C2.25 16.4142 2.58579 16.75 3 16.75C3.41421 16.75 3.75 16.4142 3.75 16H2.25ZM3.71429 10L4.4114 9.72337C4.29801 9.43761 4.02171 9.25 3.71429 9.25V10ZM5.5 14.5L4.80288 14.7766C4.91628 15.0624 5.19257 15.25 5.5 15.25C5.80743 15.25 6.08372 15.0624 6.19712 14.7766L5.5 14.5ZM7.28571 10V9.25C6.97829 9.25 6.70199 9.43761 6.5886 9.72337L7.28571 10ZM8 10H8.75C8.75 9.58579 8.41421 9.25 8 9.25V10ZM7.25 16C7.25 16.4142 7.58579 16.75 8 16.75C8.41421 16.75 8.75 16.4142 8.75 16H7.25ZM13.2893 10H14.0393V9.25H13.2893V10ZM12.7893 10V9.25H12.4033L12.179 9.56407L12.7893 10ZM10.2893 13.5L9.67899 13.0641L9.53929 13.2597V13.5H10.2893ZM10.2893 14H9.53929V14.75H10.2893V14ZM12.5393 16C12.5393 16.4142 12.8751 16.75 13.2893 16.75C13.7035 16.75 14.0393 16.4142 14.0393 16H12.5393ZM14.2893 14.75C14.7035 14.75 15.0393 14.4142 15.0393 14C15.0393 13.5858 14.7035 13.25 14.2893 13.25V14.75ZM15.2724 15.8181C15.1719 16.2199 15.4163 16.6271 15.8181 16.7276C16.2199 16.8281 16.6271 16.5837 16.7276 16.1819L15.2724 15.8181ZM17.5 10V9.25C17.1558 9.25 16.8559 9.48422 16.7724 9.8181L17.5 10ZM18.5 10L19.2276 9.8181C19.1441 9.48422 18.8442 9.25 18.5 9.25V10ZM19.2724 16.1819C19.3729 16.5837 19.7801 16.8281 20.1819 16.7276C20.5837 16.6271 20.8281 16.2199 20.7276 15.8181L19.2724 16.1819ZM19 20V20.75H19.75V20H19ZM5 20H4.25V20.75H5V20ZM5 4V3.25H4.25V4H5ZM16 4L16.5303 3.46967L16.3107 3.25H16V4ZM19 7H19.75V6.68934L19.5303 6.46967L19 7ZM2.25 10V16H3.75V10H2.25ZM3 10.75H3.71429V9.25H3V10.75ZM3.01717 10.2766L4.80288 14.7766L6.19712 14.2234L4.4114 9.72337L3.01717 10.2766ZM6.19712 14.7766L7.98283 10.2766L6.5886 9.72337L4.80288 14.2234L6.19712 14.7766ZM7.28571 10.75H8V9.25H7.28571V10.75ZM7.25 10V16H8.75V10H7.25ZM13.2893 9.25H12.7893V10.75H13.2893V9.25ZM12.179 9.56407L9.67899 13.0641L10.8996 13.9359L13.3996 10.4359L12.179 9.56407ZM9.53929 13.5V14H11.0393V13.5H9.53929ZM14.0393 16V14H12.5393V16H14.0393ZM14.0393 14V10H12.5393V14H14.0393ZM10.2893 14.75H13.2893V13.25H10.2893V14.75ZM13.2893 14.75H14.2893V13.25H13.2893V14.75ZM16.7276 16.1819L17.2276 14.1819L15.7724 13.8181L15.2724 15.8181L16.7276 16.1819ZM17.2276 14.1819L18.2276 10.1819L16.7724 9.8181L15.7724 13.8181L17.2276 14.1819ZM17.5 10.75H18.5V9.25H17.5V10.75ZM17.7724 10.1819L18.7724 14.1819L20.2276 13.8181L19.2276 9.8181L17.7724 10.1819ZM18.7724 14.1819L19.2724 16.1819L20.7276 15.8181L20.2276 13.8181L18.7724 14.1819ZM16.5 14.75H19.5V13.25H16.5V14.75ZM19 19.25H5V20.75H19V19.25ZM5 4.75H16V3.25H5V4.75ZM15.4697 4.53033L18.4697 7.53033L19.5303 6.46967L16.5303 3.46967L15.4697 4.53033ZM5.75 8V4H4.25V8H5.75ZM5.75 20V18H4.25V20H5.75ZM18.25 7V8H19.75V7H18.25ZM18.25 18V20H19.75V18H18.25Z" fill="black"/>
</svg>
