<svg width="24" height="24" viewBox="0 0 24 24" fill="none" xmlns="http://www.w3.org/2000/svg">
<path d="M12.9983 12.5788C12.9983 12.2814 13.0134 11.976 13.0364 11.6554H13.006C12.8459 11.976 12.7159 12.2657 12.5479 12.5788L11.8839 13.6628V13.6781H12.9983V12.5788Z" fill="black"/>
<path d="M17.2878 11.4571H17.2725C17.1963 11.7624 17.1201 12.1515 17.0358 12.4495L16.7306 13.5409H17.868L17.5473 12.4495C17.4559 12.1439 17.3644 11.7622 17.2878 11.4571Z" fill="black"/>
<path d="M19.7352 9.15373H19.2549V6.83648C19.2549 6.82192 19.2526 6.80747 19.2507 6.79273C19.25 6.70072 19.2207 6.61034 19.1577 6.53881L15.3016 2.13413C15.3004 2.1329 15.2993 2.1325 15.2985 2.13137C15.2755 2.1057 15.2487 2.08424 15.2204 2.06587C15.212 2.06013 15.2036 2.05545 15.1948 2.05054C15.1702 2.03725 15.1442 2.02603 15.1174 2.01801C15.1101 2.01609 15.1036 2.01311 15.0963 2.01111C15.0672 2.00432 15.037 2 15.0063 2H5.52949C5.09674 2 4.74518 2.35196 4.74518 2.78435V9.15373H4.26505C3.64599 9.15373 3.14403 9.65547 3.14403 10.2746V16.104C3.14403 16.7229 3.64599 17.2252 4.26505 17.2252H4.74522V21.2157C4.74522 21.648 5.09678 22 5.52953 22H18.4707C18.903 22 19.255 21.648 19.255 21.2157V17.2252H19.7352C20.3541 17.2252 20.8562 16.7231 20.8562 16.1043V10.2749C20.8561 9.65547 20.3541 9.15373 19.7352 9.15373ZM5.52949 2.78435H14.6142V6.79705C14.6142 7.01372 14.79 7.18921 15.0063 7.18921H18.4706V9.15391H5.52949V2.78435ZM10.8003 14.5484V13.7927L12.6779 10.77H14.0976V13.6782H14.6929V14.5485H14.0976V15.7312H12.9985V14.5485L10.8003 14.5484ZM4.55717 15.7312L4.88545 10.587H6.43483L6.93853 12.3042C7.09881 12.8997 7.25919 13.541 7.37368 14.1436H7.39655C7.54169 13.5487 7.71718 12.8691 7.88501 12.2966L8.43468 10.587H9.95363L10.2361 15.7312H9.09873L9.0224 13.762C8.99953 13.1437 8.97676 12.3956 8.97676 11.6475H8.95388C8.79361 12.3042 8.57974 13.0369 8.38155 13.6399L7.75541 15.6478H6.84703L6.29736 13.6556C6.12935 13.0524 5.95386 12.3196 5.83167 11.6477H5.81646C5.78581 12.3424 5.76312 13.1367 5.72503 13.7778L5.63331 15.7316L4.55717 15.7312ZM18.4707 21.0031H5.52949V17.2252H18.4706L18.4707 21.0031ZM18.4328 15.7312L18.036 14.4109H16.5627L16.1962 15.7312H14.9902L16.5627 10.587H18.0896L19.6849 15.7312H18.4328Z" fill="black"/>
</svg>
