<svg width="24" height="24" viewBox="0 0 24 24" fill="none" xmlns="http://www.w3.org/2000/svg">
<path d="M19.7348 9.1539H19.2546V6.8367C19.2546 6.82215 19.2522 6.8077 19.2504 6.79293C19.2496 6.70101 19.2203 6.61054 19.1573 6.53905L15.3012 2.13413C15.3001 2.13289 15.2989 2.13252 15.2981 2.13139C15.2752 2.1056 15.2484 2.08426 15.22 2.06588C15.2116 2.06015 15.2032 2.05545 15.1943 2.05059C15.1698 2.03728 15.1438 2.02608 15.117 2.01802C15.1097 2.01612 15.1032 2.01313 15.096 2.01116C15.0668 2.0043 15.0365 2 15.006 2H5.52906C5.0963 2 4.74477 2.35197 4.74477 2.78433V9.15368H4.26462C3.64554 9.15368 3.14358 9.65546 3.14358 10.2746V16.104C3.14358 16.7229 3.64554 17.2252 4.26462 17.2252H4.74477V21.2157C4.74477 21.6481 5.0963 22 5.52906 22H18.4703C18.9026 22 19.2546 21.6481 19.2546 21.2157V17.2252H19.7348C20.3536 17.2252 20.8557 16.7231 20.8557 16.1042V10.2748C20.8557 9.65568 20.3536 9.1539 19.7348 9.1539ZM5.52906 2.78451H14.6138V6.7972C14.6138 7.01387 14.7895 7.18936 15.0059 7.18936H18.4703V9.15405H5.52906V2.78451ZM10.9487 14.4074V13.6528L12.8228 10.636H14.24V13.5392H14.8344V14.4077H14.24V15.5882H13.1428V14.4077L10.9487 14.4074ZM4.71719 15.588L5.04479 10.4531H6.59138L7.09425 12.1673C7.25424 12.7615 7.41438 13.4016 7.52855 14.0031H7.55142C7.69616 13.4093 7.87151 12.7311 8.03912 12.1598L8.58755 10.4531H10.1036L10.3856 15.588H9.25026L9.17424 13.6226C9.15126 13.0058 9.12857 12.2589 9.12857 11.5121H9.10556C8.94579 12.1673 8.73247 12.8988 8.5344 13.5005L7.90948 15.5047H7.00284L6.45441 13.5158C6.28676 12.9142 6.11145 12.1827 5.98969 11.5121H5.97437C5.94384 12.2057 5.92104 12.9976 5.88304 13.6379L5.79151 15.588H4.71719ZM18.4703 21.0033H5.52906V17.2252H18.4703V21.0033ZM18.0716 15.588H16.7155L15.0697 10.4531H16.3421L16.9667 12.6242C17.1421 13.2337 17.3018 13.8206 17.424 14.4604H17.4467C17.5764 13.8436 17.7365 13.2337 17.9117 12.6474L18.5668 10.4533H19.801L18.0716 15.588Z" fill="black"/>
<path d="M13.1429 12.4414C13.1429 12.1444 13.1582 11.8395 13.181 11.5196H13.1505C12.9908 11.8395 12.861 12.1287 12.6933 12.4414L12.0306 13.5235V13.5388H13.1427L13.1429 12.4414Z" fill="black"/>
</svg>
