<svg width="24" height="24" viewBox="0 0 24 24" fill="none" xmlns="http://www.w3.org/2000/svg">
<path d="M19 20V20.75H19.75V20H19ZM4.99998 20H4.24998V20.75H4.99998V20ZM4.99998 4V3.25H4.24998V4H4.99998ZM16 4L16.5303 3.46967L16.3106 3.25H16V4ZM19 7L19.75 7L19.75 6.68934L19.5303 6.46967L19 7ZM14 10H14.75V9.25H14V10ZM13.5 10V9.25H13.114L12.8897 9.56407L13.5 10ZM11 13.5L10.3897 13.0641L10.25 13.2597V13.5H11ZM11 14H10.25V14.75H11V14ZM13.25 16C13.25 16.4142 13.5858 16.75 14 16.75C14.4142 16.75 14.75 16.4142 14.75 16H13.25ZM15 14.75C15.4142 14.75 15.75 14.4142 15.75 14C15.75 13.5858 15.4142 13.25 15 13.25V14.75ZM17.202 9.76283C17.071 9.36987 16.6463 9.1575 16.2533 9.28849C15.8604 9.41947 15.648 9.84421 15.779 10.2372L17.202 9.76283ZM18.4905 16L17.779 16.2372C17.8811 16.5434 18.1677 16.75 18.4905 16.75C18.8133 16.75 19.0999 16.5434 19.202 16.2372L18.4905 16ZM21.202 10.2372C21.333 9.84421 21.1206 9.41947 20.7277 9.28849C20.3347 9.1575 19.91 9.36987 19.779 9.76283L21.202 10.2372ZM3.70926 10V9.25C3.29505 9.25 2.95926 9.58579 2.95926 10H3.70926ZM2.95926 16C2.95926 16.4142 3.29505 16.75 3.70926 16.75C4.12348 16.75 4.45926 16.4142 4.45926 16H2.95926ZM4.42355 10L5.12067 9.72337C5.00727 9.43761 4.73098 9.25 4.42355 9.25V10ZM6.20926 14.5L5.51214 14.7766C5.62554 15.0624 5.90183 15.25 6.20926 15.25C6.51669 15.25 6.79299 15.0624 6.90638 14.7766L6.20926 14.5ZM7.99498 10V9.25C7.68755 9.25 7.41125 9.43761 7.29786 9.72337L7.99498 10ZM8.70926 10H9.45926C9.45926 9.58579 9.12348 9.25 8.70926 9.25V10ZM7.95926 16C7.95926 16.4142 8.29505 16.75 8.70926 16.75C9.12348 16.75 9.45926 16.4142 9.45926 16H7.95926ZM19 19.25H4.99998V20.75H19V19.25ZM4.99998 4.75H16V3.25H4.99998V4.75ZM15.4697 4.53033L18.4697 7.53033L19.5303 6.46967L16.5303 3.46967L15.4697 4.53033ZM5.74998 8V4H4.24998V8H5.74998ZM5.74998 20V18H4.24998V20H5.74998ZM18.25 7L18.25 8L19.75 8V7L18.25 7ZM18.25 18V20H19.75V18H18.25ZM14 9.25H13.5V10.75H14V9.25ZM12.8897 9.56407L10.3897 13.0641L11.6103 13.9359L14.1103 10.4359L12.8897 9.56407ZM10.25 13.5V14H11.75V13.5H10.25ZM14.75 16V14H13.25V16H14.75ZM14.75 14V10H13.25V14H14.75ZM11 14.75H14V13.25H11V14.75ZM14 14.75H15V13.25H14V14.75ZM15.779 10.2372L17.779 16.2372L19.202 15.7628L17.202 9.76283L15.779 10.2372ZM19.202 16.2372L21.202 10.2372L19.779 9.76283L17.779 15.7628L19.202 16.2372ZM2.95926 10V16H4.45926V10H2.95926ZM3.70926 10.75H4.42355V9.25H3.70926V10.75ZM3.72643 10.2766L5.51214 14.7766L6.90638 14.2234L5.12067 9.72337L3.72643 10.2766ZM6.90638 14.7766L8.69209 10.2766L7.29786 9.72337L5.51214 14.2234L6.90638 14.7766ZM7.99498 10.75H8.70926V9.25H7.99498V10.75ZM7.95926 10V16H9.45926V10H7.95926Z" fill="black"/>
</svg>
