<svg width="24" height="24" viewBox="0 0 24 24" fill="none" xmlns="http://www.w3.org/2000/svg">
<path d="M1.43454 11V10.25C1.02033 10.25 0.68454 10.5858 0.68454 11H1.43454ZM0.68454 15.0583C0.68454 15.4725 1.02033 15.8083 1.43454 15.8083C1.84875 15.8083 2.18454 15.4725 2.18454 15.0583H0.68454ZM1.91767 11L2.61479 10.7234C2.50139 10.4376 2.2251 10.25 1.91767 10.25V11ZM3.12549 14.0437L2.42837 14.3203C2.54176 14.6061 2.81806 14.7937 3.12549 14.7937C3.43292 14.7937 3.70921 14.6061 3.82261 14.3203L3.12549 14.0437ZM4.33331 11V10.25C4.02588 10.25 3.74958 10.4376 3.63619 10.7234L4.33331 11ZM4.81644 11H5.56644C5.56644 10.5858 5.23065 10.25 4.81644 10.25V11ZM4.06644 15.0583C4.06644 15.4725 4.40222 15.8083 4.81644 15.8083C5.23065 15.8083 5.56644 15.4725 5.56644 15.0583H4.06644ZM5.80394 14.8764C5.70348 15.2782 5.9478 15.6854 6.34965 15.7859C6.75149 15.8863 7.1587 15.642 7.25916 15.2402L5.80394 14.8764ZM7.54612 11V10.25H6.96054L6.81851 10.8181L7.54612 11ZM8.2225 11L8.9501 10.8181L8.80808 10.25H8.2225V11ZM8.50946 15.2402C8.60992 15.642 9.01712 15.8863 9.41897 15.7859C9.82082 15.6854 10.0651 15.2782 9.96467 14.8764L8.50946 15.2402ZM12.0045 11.9164C12.1416 12.3072 12.5696 12.513 12.9605 12.376C13.3513 12.2389 13.5571 11.8109 13.4201 11.42L12.0045 11.9164ZM13.4201 14.6382C13.5571 14.2473 13.3513 13.8194 12.9605 13.6823C12.5696 13.5453 12.1416 13.751 12.0045 14.1419L13.4201 14.6382ZM15.1792 11C15.1792 10.5858 14.8434 10.25 14.4292 10.25C14.015 10.25 13.6792 10.5858 13.6792 11H15.1792ZM13.6792 15.0583C13.6792 15.4725 14.015 15.8083 14.4292 15.8083C14.8434 15.8083 15.1792 15.4725 15.1792 15.0583H13.6792ZM17.2084 11C17.2084 10.5858 16.8726 10.25 16.4584 10.25C16.0442 10.25 15.7084 10.5858 15.7084 11H17.2084ZM15.7084 15.0583C15.7084 15.4725 16.0442 15.8083 16.4584 15.8083C16.8726 15.8083 17.2084 15.4725 17.2084 15.0583H15.7084ZM18.1379 12.2791C17.7237 12.2791 17.3879 12.6149 17.3879 13.0291C17.3879 13.4434 17.7237 13.7791 18.1379 13.7791V12.2791ZM18.8143 13.7791C19.2285 13.7791 19.5643 13.4434 19.5643 13.0291C19.5643 12.6149 19.2285 12.2791 18.8143 12.2791V13.7791ZM19 20V20.75H19.75V20H19ZM5.00001 20H4.25001V20.75H5.00001V20ZM5.00001 4V3.25H4.25001V4H5.00001ZM16 4L16.5303 3.46967L16.3107 3.25H16V4ZM19 7L19.75 7V6.68934L19.5303 6.46967L19 7ZM0.68454 11V15.0583H2.18454V11H0.68454ZM1.43454 11.75H1.91767V10.25H1.43454V11.75ZM1.22055 11.2766L2.42837 14.3203L3.82261 13.7671L2.61479 10.7234L1.22055 11.2766ZM3.82261 14.3203L5.03043 11.2766L3.63619 10.7234L2.42837 13.7671L3.82261 14.3203ZM4.33331 11.75H4.81644V10.25H4.33331V11.75ZM4.06644 11V15.0583H5.56644V11H4.06644ZM7.25916 15.2402L7.59735 13.8874L6.14213 13.5236L5.80394 14.8764L7.25916 15.2402ZM7.59735 13.8874L8.27373 11.1819L6.81851 10.8181L6.14213 13.5236L7.59735 13.8874ZM7.54612 11.75H8.2225V10.25H7.54612V11.75ZM7.49489 11.1819L8.17127 13.8874L9.62648 13.5236L8.9501 10.8181L7.49489 11.1819ZM8.17127 13.8874L8.50946 15.2402L9.96467 14.8764L9.62648 13.5236L8.17127 13.8874ZM6.86974 14.4555H8.89888V12.9555H6.86974V14.4555ZM11.7678 10.25C10.8865 10.25 10.0032 10.971 10.0032 12.0146H11.5032C11.5032 11.9445 11.5309 11.8826 11.5855 11.8309C11.6462 11.7735 11.7187 11.75 11.7678 11.75V10.25ZM10.0032 12.0146V14.0437H11.5032V12.0146H10.0032ZM10.0032 14.0437C10.0032 14.5854 10.2138 15.0468 10.572 15.3652C10.9164 15.6713 11.3543 15.8083 11.7678 15.8083V14.3083C11.674 14.3083 11.6046 14.2762 11.5685 14.2441C11.552 14.2294 11.5383 14.2116 11.5275 14.187C11.5167 14.1622 11.5032 14.1176 11.5032 14.0437H10.0032ZM13.4201 11.42C13.1467 10.6405 12.4435 10.25 11.7678 10.25V11.75C11.8255 11.75 11.8764 11.7666 11.9137 11.7914C11.9467 11.8133 11.9809 11.8489 12.0045 11.9164L13.4201 11.42ZM11.7678 15.8083C12.4435 15.8083 13.1467 15.4178 13.4201 14.6382L12.0045 14.1419C11.9809 14.2094 11.9467 14.2449 11.9137 14.2669C11.8764 14.2917 11.8255 14.3083 11.7678 14.3083V15.8083ZM13.6792 11V13.0291H15.1792V11H13.6792ZM13.6792 13.0291V15.0583H15.1792V13.0291H13.6792ZM15.7084 11V13.0291H17.2084V11H15.7084ZM15.7084 13.0291V15.0583H17.2084V13.0291H15.7084ZM14.4292 13.7791H16.4584V12.2791H14.4292V13.7791ZM22.0926 12.5638V13.4945H23.5926V12.5638H22.0926ZM21.1785 13.4945V12.5638H19.6785V13.4945H21.1785ZM21.6305 14.3083C21.4821 14.3083 21.4062 14.2583 21.3414 14.1667C21.2567 14.0472 21.1785 13.823 21.1785 13.4945H19.6785C19.6785 14.0296 19.8011 14.5874 20.1174 15.0338C20.4534 15.5082 20.9786 15.8083 21.6305 15.8083V14.3083ZM22.0926 13.4945C22.0926 13.8194 22.0135 14.0429 21.9273 14.1631C21.8599 14.2571 21.7801 14.3083 21.6305 14.3083V15.8083C22.2813 15.8083 22.8076 15.5094 23.1462 15.0374C23.4659 14.5917 23.5926 14.0332 23.5926 13.4945H22.0926ZM21.6305 11.75C21.7801 11.75 21.8599 11.8012 21.9273 11.8952C22.0135 12.0154 22.0926 12.2389 22.0926 12.5638H23.5926C23.5926 12.025 23.4659 11.4666 23.1462 11.0209C22.8076 10.5489 22.2813 10.25 21.6305 10.25V11.75ZM21.6305 10.25C20.9786 10.25 20.4534 10.5501 20.1174 11.0245C19.8011 11.4709 19.6785 12.0286 19.6785 12.5638H21.1785C21.1785 12.2353 21.2567 12.0111 21.3414 11.8915C21.4062 11.8 21.4821 11.75 21.6305 11.75V10.25ZM18.1379 13.7791H18.8143V12.2791H18.1379V13.7791ZM19 19.25H5.00001V20.75H19V19.25ZM5.00001 4.75H16V3.25H5.00001V4.75ZM15.4697 4.53033L18.4697 7.53033L19.5303 6.46967L16.5303 3.46967L15.4697 4.53033ZM5.75001 8V4H4.25001V8H5.75001ZM5.75001 20V18H4.25001V20H5.75001ZM18.25 7L18.25 8L19.75 8L19.75 7L18.25 7ZM18.25 18L18.25 20L19.75 20L19.75 18L18.25 18Z" fill="black"/>
</svg>
