<svg width="24" height="24" viewBox="0 0 24 24" fill="none" xmlns="http://www.w3.org/2000/svg">
<path d="M8.90321 13.0442C8.85096 12.8699 8.79878 12.6524 8.75499 12.4778H8.74617C8.7026 12.6524 8.65913 12.8745 8.61127 13.0442L8.43673 13.6678H9.08636L8.90321 13.0442Z" fill="black"/>
<path d="M19.7352 9.15391H19.2549V6.8367C19.2549 6.82214 19.2526 6.80769 19.2507 6.79295C19.25 6.70094 19.2207 6.61056 19.1577 6.53906L15.3016 2.13402C15.3004 2.1329 15.2993 2.1325 15.2985 2.13137C15.2755 2.1057 15.2487 2.08424 15.2204 2.06587C15.212 2.06013 15.2036 2.05545 15.1948 2.05054C15.1702 2.03725 15.1442 2.02603 15.1174 2.01801C15.1101 2.01609 15.1036 2.01311 15.0963 2.01111C15.0672 2.00432 15.037 2 15.0063 2H5.52949C5.09674 2 4.74518 2.35196 4.74518 2.78435V9.15373H4.26505C3.64599 9.15373 3.14403 9.65547 3.14403 10.2746V16.104C3.14403 16.7229 3.64599 17.2252 4.26505 17.2252H4.74522V21.2157C4.74522 21.648 5.09678 22 5.52953 22H18.4707C18.903 22 19.255 21.648 19.255 21.2157V17.2252H19.7352C20.3541 17.2252 20.8562 16.7231 20.8562 16.1043V10.2749C20.8561 9.65569 20.3541 9.15391 19.7352 9.15391ZM5.52949 2.78449H14.6142V6.7972C14.6142 7.01386 14.79 7.18935 15.0063 7.18935H18.4706V9.15405H5.52949V2.78449ZM16.9907 13.5544V13.9945H15.8489V13.5544H16.9907ZM13.669 13.6893V14.9187H13.0023V11.981H13.669V13.11H14.7632V11.981H15.4257V14.9186H14.7632V13.6893H13.669ZM11.9119 14.413C12.1121 14.413 12.3346 14.3698 12.4652 14.3169L12.5657 14.8356C12.4436 14.8971 12.169 14.9622 11.8113 14.9622C10.7959 14.9622 10.2727 14.3301 10.2727 13.4936C10.2727 12.4913 10.9876 11.9332 11.877 11.9332C12.2214 11.9332 12.483 12.0027 12.6006 12.064L12.4652 12.5911C12.3302 12.5346 12.1426 12.482 11.9072 12.482C11.3802 12.482 10.9703 12.8002 10.9703 13.4543C10.9703 14.0425 11.319 14.413 11.9119 14.413ZM10.1239 14.9186H9.40915L9.18253 14.1645H8.34132L8.13203 14.9186H7.44329L8.34154 11.981H9.21325L10.1239 14.9186ZM5.2239 14.8707L4.91014 13.7329C4.81421 13.3887 4.71407 12.97 4.64428 12.5867H4.63567C4.61817 12.9833 4.60502 13.4365 4.58313 13.8026L4.53091 14.9184H3.91636L4.10383 11.9808H4.98857L5.27637 12.9613C5.3678 13.3011 5.45934 13.6674 5.52481 14.012H5.53774C5.62074 13.6721 5.72071 13.2843 5.81682 12.9569L6.13058 11.9806H6.99779L7.15894 14.9182H6.50974L6.46627 13.7934C6.45328 13.4411 6.44013 13.0133 6.44013 12.5863H6.42702C6.33548 12.9608 6.21352 13.38 6.10015 13.7243L5.74257 14.8705L5.2239 14.8707ZM18.4707 21.0033H5.52949V17.2252H18.4706L18.4707 21.0033ZM18.7085 14.9666C17.8368 14.9666 17.3269 14.3089 17.3269 13.4715C17.3269 12.5911 17.8891 11.9331 18.7563 11.9331C19.6589 11.9331 20.1514 12.6082 20.1514 13.4193C20.1515 14.3824 19.5675 14.9666 18.7085 14.9666Z" fill="black"/>
<path d="M18.739 12.4602C18.2902 12.4602 18.0286 12.8872 18.0286 13.4582C18.0286 14.0336 18.299 14.439 18.7434 14.439C19.1927 14.439 19.4496 14.012 19.4496 13.4413C19.4494 12.9133 19.1969 12.4602 18.739 12.4602Z" fill="black"/>
</svg>
