<svg width="24" height="24" viewBox="0 0 24 24" fill="none" xmlns="http://www.w3.org/2000/svg">
<path d="M13.0383 12.4181C12.9495 12.1228 12.861 11.7532 12.7871 11.4577H12.7722C12.6982 11.7534 12.6243 12.1303 12.5431 12.4181L12.2475 13.4745H13.3485L13.0383 12.4181Z" fill="black"/>
<path d="M19.7352 9.15373H19.2549V6.83648C19.2549 6.82192 19.2526 6.80747 19.2507 6.79273C19.25 6.70072 19.2207 6.61034 19.1577 6.53881L15.3016 2.13413C15.3004 2.1329 15.2993 2.1325 15.2985 2.13137C15.2755 2.1057 15.2487 2.08424 15.2204 2.06587C15.212 2.06013 15.2036 2.05545 15.1948 2.05054C15.1702 2.03725 15.1442 2.02603 15.1174 2.01801C15.1101 2.01609 15.1036 2.01311 15.0963 2.01111C15.0672 2.00432 15.037 2 15.0063 2H5.52949C5.09674 2 4.74518 2.35196 4.74518 2.78435V9.15373H4.26505C3.64599 9.15373 3.14403 9.65547 3.14403 10.2746V16.104C3.14403 16.7229 3.64599 17.2252 4.26505 17.2252H4.74522V21.2157C4.74522 21.648 5.09678 22 5.52953 22H18.4707C18.903 22 19.255 21.648 19.255 21.2157V17.2252H19.7352C20.3541 17.2252 20.8562 16.7231 20.8562 16.1043V10.2749C20.8561 9.65547 20.3541 9.15373 19.7352 9.15373ZM5.52949 2.78435H14.6142V6.79705C14.6142 7.01372 14.79 7.18921 15.0063 7.18921H18.4706V9.15391H5.52949V2.78435ZM15.1063 15.5943H13.895L13.5105 14.3162H12.0854L11.7306 15.5943H10.5635L12.0854 10.6157H13.5626L15.1063 15.5943ZM4.58818 15.5943L4.90564 10.6157H6.40524L6.89267 12.2775C7.04775 12.8536 7.20287 13.4745 7.31344 14.0579H7.33566C7.47618 13.4815 7.64575 12.8243 7.8085 12.2706L8.34005 10.6159H9.81024L10.0834 15.5945H8.98282L8.90893 13.6889C8.88671 13.0907 8.86438 12.3665 8.86438 11.6425H8.84219C8.68711 12.2775 8.48028 12.9866 8.28853 13.5704L7.68257 15.5128H6.80375L6.27219 13.5853C6.10945 13.0011 5.93988 12.2922 5.82143 11.6425H5.80691C5.77713 12.3149 5.7548 13.0831 5.71817 13.7035L5.62968 15.5946L4.58818 15.5943ZM18.4707 21.0031H5.52949V17.2252H18.4706L18.4707 21.0031ZM18.2156 15.5943L17.7648 14.693C17.5806 14.3458 17.4623 14.0872 17.3218 13.7988H17.3072C17.2038 14.0872 17.0782 14.3457 16.9231 14.693L16.5095 15.5943H15.2242L16.6646 13.075L15.2755 10.6157H16.5684L17.0048 11.5245C17.1523 11.8271 17.2628 12.0705 17.3813 12.3514H17.3956C17.5142 12.0339 17.6099 11.8121 17.7357 11.5245L18.1566 10.6157H19.4419L18.0383 13.0457L19.5162 15.5943H18.2156Z" fill="black"/>
</svg>
