<svg width="24" height="24" viewBox="0 0 24 24" fill="none" xmlns="http://www.w3.org/2000/svg">
<path d="M19 20V20.75H19.75V20H19ZM5 20H4.25V20.75H5V20ZM5 4V3.25H4.25V4H5ZM16 4L16.5303 3.46967L16.3107 3.25H16V4ZM19 7L19.75 7V6.68934L19.5303 6.46967L19 7ZM4 10V9.25C3.58579 9.25 3.25 9.58579 3.25 10H4ZM3.25 16C3.25 16.4142 3.58579 16.75 4 16.75C4.41421 16.75 4.75 16.4142 4.75 16H3.25ZM4.71429 10L5.4114 9.72337C5.29801 9.43761 5.02171 9.25 4.71429 9.25V10ZM6.5 14.5L5.80288 14.7766C5.91628 15.0624 6.19257 15.25 6.5 15.25C6.80743 15.25 7.08372 15.0624 7.19712 14.7766L6.5 14.5ZM8.28571 10V9.25C7.97829 9.25 7.70199 9.43761 7.5886 9.72337L8.28571 10ZM9 10H9.75C9.75 9.58579 9.41421 9.25 9 9.25V10ZM8.25 16C8.25 16.4142 8.58579 16.75 9 16.75C9.41421 16.75 9.75 16.4142 9.75 16H8.25ZM10.2724 15.8181C10.1719 16.2199 10.4163 16.6271 10.8181 16.7276C11.2199 16.8281 11.6271 16.5837 11.7276 16.1819L10.2724 15.8181ZM12.5 10V9.25C12.1558 9.25 11.8559 9.48422 11.7724 9.8181L12.5 10ZM13.5 10L14.2276 9.8181C14.1441 9.48422 13.8442 9.25 13.5 9.25V10ZM14.2724 16.1819C14.3729 16.5837 14.7801 16.8281 15.1819 16.7276C15.5837 16.6271 15.8281 16.2199 15.7276 15.8181L14.2724 16.1819ZM17.6708 9.66459C17.4856 9.29411 17.0351 9.14394 16.6646 9.32918C16.2941 9.51442 16.1439 9.96493 16.3292 10.3354L17.6708 9.66459ZM19.3292 16.3354C19.5144 16.7059 19.9649 16.8561 20.3354 16.6708C20.7059 16.4856 20.8561 16.0351 20.6708 15.6646L19.3292 16.3354ZM20.6708 10.3354C20.8561 9.96493 20.7059 9.51442 20.3354 9.32918C19.9649 9.14394 19.5144 9.29411 19.3292 9.66459L20.6708 10.3354ZM16.3292 15.6646C16.1439 16.0351 16.2941 16.4856 16.6646 16.6708C17.0351 16.8561 17.4856 16.7059 17.6708 16.3354L16.3292 15.6646ZM19 19.25H5V20.75H19V19.25ZM5 4.75H16V3.25H5V4.75ZM15.4697 4.53033L18.4697 7.53033L19.5303 6.46967L16.5303 3.46967L15.4697 4.53033ZM5.75 8V4H4.25V8H5.75ZM5.75 20V18H4.25V20H5.75ZM18.25 7L18.25 8L19.75 8L19.75 7L18.25 7ZM18.25 18V20H19.75V18H18.25ZM3.25 10V16H4.75V10H3.25ZM4 10.75H4.71429V9.25H4V10.75ZM4.01717 10.2766L5.80288 14.7766L7.19712 14.2234L5.4114 9.72337L4.01717 10.2766ZM7.19712 14.7766L8.98283 10.2766L7.5886 9.72337L5.80288 14.2234L7.19712 14.7766ZM8.28571 10.75H9V9.25H8.28571V10.75ZM8.25 10V16H9.75V10H8.25ZM11.7276 16.1819L12.2276 14.1819L10.7724 13.8181L10.2724 15.8181L11.7276 16.1819ZM12.2276 14.1819L13.2276 10.1819L11.7724 9.8181L10.7724 13.8181L12.2276 14.1819ZM12.5 10.75H13.5V9.25H12.5V10.75ZM12.7724 10.1819L13.7724 14.1819L15.2276 13.8181L14.2276 9.8181L12.7724 10.1819ZM13.7724 14.1819L14.2724 16.1819L15.7276 15.8181L15.2276 13.8181L13.7724 14.1819ZM11.5 14.75H14.5V13.25H11.5V14.75ZM16.3292 10.3354L17.8292 13.3354L19.1708 12.6646L17.6708 9.66459L16.3292 10.3354ZM17.8292 13.3354L19.3292 16.3354L20.6708 15.6646L19.1708 12.6646L17.8292 13.3354ZM19.3292 9.66459L17.8292 12.6646L19.1708 13.3354L20.6708 10.3354L19.3292 9.66459ZM17.8292 12.6646L16.3292 15.6646L17.6708 16.3354L19.1708 13.3354L17.8292 12.6646Z" fill="black"/>
</svg>
