<svg width="24" height="24" viewBox="0 0 24 24" fill="none" xmlns="http://www.w3.org/2000/svg">
<path d="M19 20V20.75H19.75V20H19ZM5 20H4.25V20.75H5V20ZM5 4V3.25H4.25V4H5ZM16 4L16.5303 3.46967L16.3107 3.25H16V4ZM19 7H19.75V6.68934L19.5303 6.46967L19 7ZM10.75 16H10V16.75H10.75V16ZM10.75 10L10.75 9.25L10 9.25V10H10.75ZM12.65 10V9.25V10ZM3 10V9.25C2.58579 9.25 2.25 9.58579 2.25 10H3ZM2.25 16C2.25 16.4142 2.58579 16.75 3 16.75C3.41421 16.75 3.75 16.4142 3.75 16H2.25ZM3.71429 10L4.4114 9.72337C4.29801 9.43761 4.02171 9.25 3.71429 9.25V10ZM5.5 14.5L4.80288 14.7766C4.91628 15.0624 5.19257 15.25 5.5 15.25C5.80743 15.25 6.08372 15.0624 6.19712 14.7766L5.5 14.5ZM7.28571 10V9.25C6.97829 9.25 6.70199 9.43761 6.5886 9.72337L7.28571 10ZM8 10H8.75C8.75 9.58579 8.41421 9.25 8 9.25V10ZM7.25 16C7.25 16.4142 7.58579 16.75 8 16.75C8.41421 16.75 8.75 16.4142 8.75 16H7.25ZM16.7653 10V9.25H16.0153V10H16.7653ZM16.7653 16H16.0153V16.75H16.7653V16ZM18.2851 16V15.25V16ZM19 19.25H5V20.75H19V19.25ZM5 4.75H16V3.25H5V4.75ZM15.4697 4.53033L18.4697 7.53033L19.5303 6.46967L16.5303 3.46967L15.4697 4.53033ZM5.75 8V4H4.25V8H5.75ZM5.75 20V18H4.25V20H5.75ZM18.25 7V8H19.75V7H18.25ZM18.25 18V20H19.75V18H18.25ZM11.5 16V10H10V16H11.5ZM10.75 10.75L12.65 10.75V9.25L10.75 9.25L10.75 10.75ZM12.65 10.75C12.806 10.75 13.0497 10.7997 13.2304 10.9216C13.371 11.0165 13.5 11.1655 13.5 11.5H15C15 10.6345 14.5957 10.0335 14.0696 9.67836C13.5836 9.35032 13.0273 9.25 12.65 9.25V10.75ZM13.5 11.5V14.5H15V11.5H13.5ZM13.5 14.5C13.5 14.6198 13.4551 14.8245 13.3352 14.9807C13.2422 15.1018 13.0653 15.25 12.65 15.25V16.75C13.5147 16.75 14.1378 16.3982 14.5248 15.8943C14.8849 15.4255 15 14.8802 15 14.5H13.5ZM12.65 15.25H10.75V16.75H12.65V15.25ZM2.25 10V16H3.75V10H2.25ZM3 10.75H3.71429V9.25H3V10.75ZM3.01717 10.2766L4.80288 14.7766L6.19712 14.2234L4.4114 9.72337L3.01717 10.2766ZM6.19712 14.7766L7.98283 10.2766L6.5886 9.72337L4.80288 14.2234L6.19712 14.7766ZM7.28571 10.75H8V9.25H7.28571V10.75ZM7.25 10V16H8.75V10H7.25ZM16.7653 10.75H18.2857V9.25H16.7653V10.75ZM18.2857 10.75C18.5088 10.75 18.6979 10.8237 18.8216 10.9342C18.9321 11.0329 19.0357 11.1996 19.0357 11.5H20.5357C20.5357 10.8004 20.2702 10.2171 19.8211 9.81576C19.3853 9.42632 18.8245 9.25 18.2857 9.25V10.75ZM19.0357 11.5C19.0357 11.8004 18.9321 11.9671 18.8216 12.0658C18.6979 12.1763 18.5088 12.25 18.2857 12.25V13.75C18.8245 13.75 19.3853 13.5737 19.8211 13.1842C20.2702 12.7829 20.5357 12.1996 20.5357 11.5H19.0357ZM16.0153 10V13H17.5153V10H16.0153ZM16.0153 13V16H17.5153V13H16.0153ZM18.2857 12.25H16.7653V13.75H18.2857V12.25ZM16.7653 16.75H18.2851V15.25H16.7653V16.75ZM18.2851 16.75C18.8119 16.75 19.3684 16.5704 19.803 16.1882C20.2525 15.793 20.5357 15.2113 20.5357 14.5H19.0357C19.0357 14.7887 18.9317 14.957 18.8126 15.0618C18.6785 15.1796 18.4847 15.25 18.2851 15.25V16.75ZM20.5357 14.5C20.5357 13.7912 20.2564 13.2092 19.807 12.8127C19.3722 12.4289 18.815 12.25 18.2857 12.25V13.75C18.49 13.75 18.6828 13.8211 18.8145 13.9373C18.9318 14.0408 19.0357 14.2088 19.0357 14.5H20.5357Z" fill="black"/>
</svg>
