<svg width="24" height="24" viewBox="0 0 24 24" fill="none" xmlns="http://www.w3.org/2000/svg">
<path d="M12.3259 11.2377C12.0875 11.2377 11.9334 11.2587 11.8422 11.2798V14.3712C11.9334 14.3926 12.0805 14.3926 12.2138 14.3926C13.1813 14.3995 13.8122 13.8665 13.8122 12.738C13.819 11.7562 13.2442 11.2377 12.3259 11.2377Z" fill="black"/>
<path d="M19.735 9.15372H19.2547V6.83648C19.2547 6.82193 19.2524 6.80748 19.2507 6.79271C19.25 6.70079 19.2205 6.61044 19.1575 6.53883L15.3012 2.13413C15.3001 2.133 15.2989 2.13252 15.2981 2.13139C15.2752 2.10571 15.2484 2.08433 15.22 2.06588C15.2116 2.06026 15.2032 2.05555 15.1943 2.05059C15.1698 2.03728 15.1438 2.02608 15.117 2.01802C15.1097 2.01612 15.1032 2.01313 15.096 2.01123C15.0668 2.0043 15.0365 2 15.006 2H5.52907C5.09631 2 4.74478 2.35197 4.74478 2.78433V9.15368H4.26463C3.64554 9.15368 3.14359 9.65546 3.14359 10.2747V16.1042C3.14359 16.7229 3.64554 17.2252 4.26463 17.2252H4.74478V21.2157C4.74478 21.6481 5.09631 22 5.52907 22H18.4703C18.9026 22 19.2546 21.6481 19.2546 21.2157V17.2252H19.7348C20.3536 17.2252 20.8557 16.7229 20.8557 16.1042V10.2748C20.8557 9.6555 20.354 9.15372 19.735 9.15372ZM5.52907 2.78433H14.6138V6.79701C14.6138 7.0138 14.7895 7.18918 15.0059 7.18918H18.4703V9.15387H5.52907V2.78433ZM14.9483 12.7029C14.9483 13.6071 14.6187 14.2314 14.163 14.6172C13.6654 15.0302 12.9084 15.2267 11.9828 15.2267C11.429 15.2267 11.0363 15.1912 10.7697 15.1568V10.5155C11.1624 10.4523 11.6741 10.4175 12.214 10.4175C13.1112 10.4175 13.6935 10.5786 14.1489 10.9221C14.6402 11.2867 14.9483 11.8685 14.9483 12.7029ZM4.73402 15.1777L5.03532 10.4521H6.45869L6.92121 12.0295C7.06829 12.5763 7.21573 13.1653 7.32086 13.7191H7.34179C7.47537 13.1722 7.63631 12.5484 7.79064 12.0227L8.29545 10.4521H9.69077L9.94993 15.1776H8.90531L8.83531 13.3687C8.81422 12.8009 8.79329 12.1139 8.79329 11.4269H8.77231C8.62505 12.0295 8.42877 12.7029 8.24642 13.2567L7.67158 15.1001H6.83739L6.33255 13.2707C6.1784 12.7171 6.01724 12.0436 5.90486 11.4269H5.89081C5.86276 12.0649 5.84179 12.794 5.80662 13.3832L5.72254 15.1776L4.73402 15.1777ZM18.4703 21.0031H5.52907V17.2252H18.4703V21.0031ZM18.6638 14.799C18.3201 15.0723 17.7453 15.2267 16.8059 15.2267C16.28 15.2267 15.8873 15.1912 15.6489 15.1568V10.5155C15.9296 10.4596 16.4972 10.4175 17.0303 10.4175C17.6821 10.4175 18.0819 10.4802 18.4254 10.6839C18.7548 10.859 18.9931 11.1814 18.9931 11.6092C18.9931 12.0299 18.7477 12.4226 18.2149 12.6187V12.6326C18.7546 12.7801 19.1544 13.1864 19.1544 13.7967C19.1546 14.2241 18.9581 14.5609 18.6638 14.799Z" fill="black"/>
<path d="M17.9203 11.742C17.9203 11.3848 17.6469 11.1955 17.1632 11.1955C16.9317 11.1955 16.7986 11.2092 16.7074 11.2236V12.3242H17.0578C17.6187 12.3238 17.9203 12.0929 17.9203 11.742Z" fill="black"/>
<path d="M17.0718 13.0886H16.7074V14.4206C16.8126 14.4342 16.9388 14.4342 17.121 14.4342C17.6049 14.4342 18.0321 14.2523 18.0321 13.7545C18.0321 13.2778 17.6049 13.0886 17.0718 13.0886Z" fill="black"/>
</svg>
