<svg xmlns="http://www.w3.org/2000/svg" width="20" height="20" fill="none" viewBox="0 0 20 20">
  <path fill="#A0A0A0" d="M11.09 9.567c-.26 0-.43.023-.53.046V13c.1.023.262.023.408.023 1.06.008 1.752-.576 1.752-1.812.007-1.076-.623-1.644-1.63-1.644z"/>
  <path fill="#A0A0A0" d="M17.735 7.154h-.48V4.836c0-.014-.003-.029-.005-.043a.385.385 0 00-.093-.254L13.301.134l-.003-.003a.377.377 0 00-.078-.065c-.008-.006-.017-.01-.026-.015a.41.41 0 00-.077-.033l-.021-.007a.39.39 0 00-.09-.011H3.529a.785.785 0 00-.784.784v6.37h-.48c-.62 0-1.121.502-1.121 1.12v5.83c0 .62.502 1.121 1.12 1.121h.48v3.99c0 .433.352.785.785.785H16.47a.785.785 0 00.785-.784v-3.99h.48c.619 0 1.12-.503 1.12-1.122V8.275c0-.62-.501-1.121-1.12-1.121zM3.529.784h9.085v4.013c0 .217.175.392.392.392h3.464v1.965H3.53V.784zm10.434 10.388c0 .991-.361 1.675-.86 2.097-.546.454-1.376.668-2.39.668-.606 0-1.037-.038-1.329-.076V8.775c.43-.069.992-.108 1.583-.108.983 0 1.62.177 2.12.554.538.4.876 1.037.876 1.95zM2.77 13.884l.33-5.178h1.56l.507 1.728c.16.6.322 1.245.438 1.852h.022c.146-.6.323-1.283.492-1.859l.553-1.72H8.2l.285 5.177H7.34l-.077-1.982a57.49 57.49 0 01-.046-2.128h-.023c-.16.66-.376 1.398-.575 2.005l-.63 2.02h-.915l-.553-2.005a23.607 23.607 0 01-.468-2.02h-.016c-.03.699-.054 1.498-.092 2.143l-.092 1.967H2.77zm13.7 5.12H3.53v-3.779H16.47v3.778zm1.427-9.337h-1.99v1.183h1.86v.952h-1.86v2.082h-1.175V8.706h3.165v.96z"/>
</svg>
