<svg width="24" height="24" viewBox="0 0 24 24" fill="none" xmlns="http://www.w3.org/2000/svg">
<path d="M13.0904 11.5667C12.8292 11.5667 12.6605 11.5897 12.5604 11.6131V15.0004C12.6605 15.0234 12.8216 15.0234 12.9679 15.0234C14.0276 15.0312 14.7194 14.447 14.7194 13.2108C14.7264 12.1354 14.0968 11.5667 13.0904 11.5667Z" fill="black"/>
<path d="M19.7349 9.15401H19.2546V6.83648C19.2546 6.82204 19.2523 6.80748 19.2504 6.79286C19.2496 6.70082 19.2203 6.61047 19.1573 6.53887L15.3013 2.13413C15.3001 2.133 15.299 2.13259 15.2982 2.13146C15.2752 2.10567 15.2484 2.08433 15.22 2.06599C15.2117 2.06026 15.2032 2.05555 15.1944 2.05063C15.1699 2.03728 15.1438 2.02615 15.117 2.01809C15.1097 2.01609 15.1032 2.0132 15.096 2.01123C15.0669 2.0043 15.0366 2 15.006 2H5.52909C5.09636 2 4.7448 2.35204 4.7448 2.78433V9.15379H4.26454C3.64578 9.15379 3.14364 9.65557 3.14364 10.2747V16.1042C3.14364 16.7231 3.64578 17.2252 4.26454 17.2252H4.7448V21.2157C4.7448 21.6481 5.09636 22 5.52909 22H18.4703C18.9026 22 19.2546 21.6481 19.2546 21.2157V17.2254H19.7348C20.3541 17.2254 20.8557 16.7231 20.8557 16.1042V10.2749C20.8558 9.65557 20.3541 9.15401 19.7349 9.15401ZM5.52909 2.78433H14.6138V6.79712C14.6138 7.01376 14.7896 7.18925 15.006 7.18925H18.4703V9.15394H5.52909V2.78433ZM15.963 13.1719C15.963 14.1632 15.6019 14.8466 15.1025 15.2694C14.5575 15.7226 13.7273 15.9373 12.7139 15.9373C12.1067 15.9373 11.6764 15.8986 11.3846 15.8607V10.7754C11.8146 10.706 12.3758 10.6673 12.9675 10.6673C13.9505 10.6673 14.5878 10.8445 15.0876 11.2211C15.6249 11.6202 15.963 12.2577 15.963 13.1719ZM4.76968 15.8837L5.0999 10.7062H6.6593L7.16676 12.4343C7.32788 13.0337 7.48933 13.6789 7.60478 14.286H7.62736C7.7732 13.6866 7.95011 13.003 8.11907 12.427L8.67195 10.7062H10.2005L10.4849 15.8837H9.34025L9.26354 13.902C9.24016 13.2797 9.21729 12.527 9.21729 11.7742H9.1943C9.03319 12.4343 8.81786 13.172 8.61862 13.7791L7.98845 15.7994H7.07437L6.52149 13.7942C6.3522 13.1872 6.17557 12.45 6.05261 11.774H6.03689C6.00639 12.4725 5.98341 13.2718 5.945 13.9171L5.85261 15.8837H4.76968ZM18.4703 21.0031H5.52909V17.2254H18.4703L18.4703 21.0031ZM19.8968 11.6665H17.9073V12.8495H19.7662V13.8022H17.9073V15.8837H16.7324V10.7061H19.8968V11.6665Z" fill="black"/>
</svg>
