<svg width="24" height="24" viewBox="0 0 24 24" fill="none" xmlns="http://www.w3.org/2000/svg">
<path d="M19 20V20.75H19.75V20H19ZM5 20H4.25V20.75H5V20ZM5 4V3.25H4.25V4H5ZM16 4L16.5303 3.46967L16.3107 3.25H16V4ZM19 7H19.75V6.68934L19.5303 6.46967L19 7ZM3 10V9.25C2.58579 9.25 2.25 9.58579 2.25 10H3ZM2.25 16C2.25 16.4142 2.58579 16.75 3 16.75C3.41421 16.75 3.75 16.4142 3.75 16H2.25ZM3.71429 10L4.4114 9.72337C4.29801 9.43761 4.02171 9.25 3.71429 9.25V10ZM5.5 14.5L4.80288 14.7766C4.91628 15.0624 5.19257 15.25 5.5 15.25C5.80743 15.25 6.08372 15.0624 6.19712 14.7766L5.5 14.5ZM7.28571 10V9.25C6.97829 9.25 6.70199 9.43761 6.5886 9.72337L7.28571 10ZM8 10H8.75C8.75 9.58579 8.41421 9.25 8 9.25V10ZM7.25 16C7.25 16.4142 7.58579 16.75 8 16.75C8.41421 16.75 8.75 16.4142 8.75 16H7.25ZM17 10V9.25H16.25V10H17ZM16.25 16C16.25 16.4142 16.5858 16.75 17 16.75C17.4142 16.75 17.75 16.4142 17.75 16H16.25ZM20 10.75C20.4142 10.75 20.75 10.4142 20.75 10C20.75 9.58579 20.4142 9.25 20 9.25V10.75ZM19.5 13.75C19.9142 13.75 20.25 13.4142 20.25 13C20.25 12.5858 19.9142 12.25 19.5 12.25V13.75ZM10.75 16H10V16.75H10.75V16ZM10.75 10L10.75 9.25L10 9.25V10H10.75ZM12.65 10V9.25V10ZM19 19.25H5V20.75H19V19.25ZM5 4.75H16V3.25H5V4.75ZM15.4697 4.53033L18.4697 7.53033L19.5303 6.46967L16.5303 3.46967L15.4697 4.53033ZM5.75 8V4H4.25V8H5.75ZM5.75 20V18H4.25V20H5.75ZM18.25 7V8H19.75V7H18.25ZM18.25 18V20H19.75V18H18.25ZM2.25 10V16H3.75V10H2.25ZM3 10.75H3.71429V9.25H3V10.75ZM3.01717 10.2766L4.80288 14.7766L6.19712 14.2234L4.4114 9.72337L3.01717 10.2766ZM6.19712 14.7766L7.98283 10.2766L6.5886 9.72337L4.80288 14.2234L6.19712 14.7766ZM7.28571 10.75H8V9.25H7.28571V10.75ZM7.25 10V16H8.75V10H7.25ZM16.25 10V13H17.75V10H16.25ZM16.25 13V16H17.75V13H16.25ZM17 10.75H20V9.25H17V10.75ZM17 13.75H19.5V12.25H17V13.75ZM11.5 16V10H10V16H11.5ZM10.75 10.75L12.65 10.75V9.25L10.75 9.25L10.75 10.75ZM12.65 10.75C12.806 10.75 13.0497 10.7997 13.2304 10.9216C13.371 11.0165 13.5 11.1655 13.5 11.5H15C15 10.6345 14.5957 10.0335 14.0696 9.67836C13.5836 9.35032 13.0273 9.25 12.65 9.25V10.75ZM13.5 11.5V14.5H15V11.5H13.5ZM13.5 14.5C13.5 14.6198 13.4551 14.8245 13.3352 14.9807C13.2422 15.1018 13.0653 15.25 12.65 15.25V16.75C13.5147 16.75 14.1378 16.3982 14.5248 15.8943C14.8849 15.4255 15 14.8802 15 14.5H13.5ZM12.65 15.25H10.75V16.75H12.65V15.25Z" fill="black"/>
</svg>
