<svg width="24" height="24" viewBox="0 0 24 24" fill="none" xmlns="http://www.w3.org/2000/svg">
<path d="M19 20V20.75H19.75V20H19ZM5 20H4.25V20.75H5V20ZM5 4V3.25H4.25V4H5ZM16 4L16.5303 3.46967L16.3107 3.25H16V4ZM19 7L19.75 7V6.68934L19.5303 6.46967L19 7ZM5 10V9.25C4.58579 9.25 4.25 9.58579 4.25 10H5ZM4.25 16C4.25 16.4142 4.58579 16.75 5 16.75C5.41421 16.75 5.75 16.4142 5.75 16H4.25ZM5.71429 10L6.4114 9.72337C6.29801 9.43761 6.02171 9.25 5.71429 9.25V10ZM7.5 14.5L6.80288 14.7766C6.91628 15.0624 7.19257 15.25 7.5 15.25C7.80743 15.25 8.08372 15.0624 8.19712 14.7766L7.5 14.5ZM9.28571 10V9.25C8.97829 9.25 8.70199 9.43761 8.5886 9.72337L9.28571 10ZM10 10H10.75C10.75 9.58579 10.4142 9.25 10 9.25V10ZM9.25 16C9.25 16.4142 9.58579 16.75 10 16.75C10.4142 16.75 10.75 16.4142 10.75 16H9.25ZM16 10V9.25H15.25V10H16ZM15.25 16C15.25 16.4142 15.5858 16.75 16 16.75C16.4142 16.75 16.75 16.4142 16.75 16H15.25ZM19 10.75C19.4142 10.75 19.75 10.4142 19.75 10C19.75 9.58579 19.4142 9.25 19 9.25V10.75ZM18.5 13.75C18.9142 13.75 19.25 13.4142 19.25 13C19.25 12.5858 18.9142 12.25 18.5 12.25V13.75ZM13.75 10C13.75 9.58579 13.4142 9.25 13 9.25C12.5858 9.25 12.25 9.58579 12.25 10H13.75ZM12.25 16C12.25 16.4142 12.5858 16.75 13 16.75C13.4142 16.75 13.75 16.4142 13.75 16H12.25ZM19 19.25H5V20.75H19V19.25ZM5 4.75H16V3.25H5V4.75ZM15.4697 4.53033L18.4697 7.53033L19.5303 6.46967L16.5303 3.46967L15.4697 4.53033ZM5.75 8V4H4.25V8H5.75ZM5.75 20V18H4.25V20H5.75ZM18.25 7L18.25 8L19.75 8L19.75 7L18.25 7ZM18.25 18V20H19.75V18H18.25ZM4.25 10V16H5.75V10H4.25ZM5 10.75H5.71429V9.25H5V10.75ZM5.01717 10.2766L6.80288 14.7766L8.19712 14.2234L6.4114 9.72337L5.01717 10.2766ZM8.19712 14.7766L9.98283 10.2766L8.5886 9.72337L6.80288 14.2234L8.19712 14.7766ZM9.28571 10.75H10V9.25H9.28571V10.75ZM9.25 10V16H10.75V10H9.25ZM15.25 10V13H16.75V10H15.25ZM15.25 13V16H16.75V13H15.25ZM16 10.75H19V9.25H16V10.75ZM16 13.75H18.5V12.25H16V13.75ZM12.25 10V16H13.75V10H12.25Z" fill="black"/>
</svg>
