<svg width="24" height="24" viewBox="0 0 24 24" fill="none" xmlns="http://www.w3.org/2000/svg">
<path d="M19.7348 9.15372H19.2546V6.83648C19.2546 6.82193 19.2523 6.80748 19.2504 6.79271C19.2496 6.70072 19.2203 6.61033 19.1573 6.53883L15.3012 2.13413C15.3 2.13289 15.2989 2.13252 15.2981 2.13139C15.2752 2.10571 15.2484 2.08426 15.22 2.06588C15.2116 2.06015 15.2032 2.05545 15.1944 2.05059C15.1699 2.03728 15.1438 2.02608 15.117 2.01802C15.1097 2.01612 15.1032 2.01313 15.096 2.01116C15.0668 2.0043 15.0366 2 15.006 2H5.52907C5.09634 2 4.74477 2.35197 4.74477 2.78433V9.15368H4.26459C3.64554 9.15368 3.14358 9.65546 3.14358 10.2746V16.104C3.14358 16.7229 3.64554 17.2252 4.26459 17.2252H4.74477V21.2157C4.74477 21.6481 5.09634 22 5.52907 22H18.4702C18.9026 22 19.2545 21.6481 19.2545 21.2157V17.2252H19.7348C20.3536 17.2252 20.8557 16.7231 20.8557 16.1042V10.2749C20.8557 9.6555 20.3537 9.15372 19.7348 9.15372ZM5.52907 2.78433H14.6138V6.79701C14.6138 7.01369 14.7895 7.18918 15.006 7.18918H18.4703V9.15387H5.52907V2.78433ZM13.3126 10.6671V15.8117H12.1448V10.6671H13.3126ZM11.2527 15.8121H10.1152L10.0387 13.8429C10.016 13.2247 9.99301 12.4762 9.99301 11.7284H9.97032C9.81004 12.3849 9.59618 13.1175 9.39749 13.7207L8.77202 15.728H7.86363L7.31378 13.736C7.14591 13.1332 6.97042 12.3998 6.84848 11.7284H6.83286C6.80262 12.4228 6.77975 13.2171 6.74145 13.8582L6.64993 15.8121H5.5736L5.9019 10.6673H7.45148L7.95479 12.3849C8.11496 12.98 8.2756 13.6215 8.3901 14.2242H8.41301C8.55815 13.6292 8.73382 12.9498 8.90147 12.3772L9.45104 10.6673H10.97L11.2527 15.8121ZM18.4703 21.0031H5.52907V17.2252H18.4702L18.4703 21.0031ZM18.0146 15.2008C17.472 15.6518 16.6481 15.8655 15.6406 15.8655C15.0376 15.8655 14.6099 15.8273 14.3199 15.7891V10.7357C14.7479 10.6671 15.3047 10.6292 15.8925 10.6292C16.8692 10.6292 17.5031 10.8047 17.9992 11.1788C18.5338 11.5755 18.8695 12.2091 18.8695 13.1175C18.8691 14.1023 18.5102 14.7815 18.0146 15.2008Z" fill="black"/>
<path d="M16.0144 11.5226C15.7548 11.5226 15.5865 11.5454 15.4875 11.568V14.9344C15.5865 14.9573 15.7469 14.9573 15.892 14.9573C16.945 14.9646 17.6321 14.3848 17.6321 13.1556C17.6402 12.0871 17.0142 11.5226 16.0144 11.5226Z" fill="black"/>
</svg>
