<svg xmlns="http://www.w3.org/2000/svg" width="20" height="20" fill="none" viewBox="0 0 20 20">
  <path fill="#A0A0A0" d="M17.735 7.154h-.48V4.836c0-.014-.003-.029-.005-.043a.384.384 0 00-.093-.254L13.301.134l-.003-.003a.384.384 0 00-.104-.08.41.41 0 00-.077-.033l-.021-.007a.393.393 0 00-.09-.011H3.529a.785.785 0 00-.784.784v6.37h-.48c-.62 0-1.121.501-1.121 1.12v5.83c0 .619.502 1.121 1.12 1.121h.48v3.99c0 .433.352.785.785.785H16.47a.785.785 0 00.785-.784v-3.99h.48c.619 0 1.12-.503 1.12-1.122V8.275a1.12 1.12 0 00-1.12-1.121zM3.529.784h9.085v4.013c0 .217.175.392.392.392h3.464v1.965H3.53V.784zm7.784 7.883v5.145h-1.168V8.667h1.168zm-2.06 5.145H8.115l-.076-1.97a58.394 58.394 0 01-.046-2.114H7.97c-.16.657-.374 1.39-.573 1.993l-.625 2.007h-.908l-.55-1.992a23.505 23.505 0 01-.466-2.008h-.015c-.03.695-.053 1.49-.092 2.13l-.091 1.954H3.574l.328-5.145h1.55l.503 1.718c.16.595.32 1.236.435 1.84h.023c.145-.596.32-1.275.488-1.848l.55-1.71H8.97l.283 5.145zm7.217 5.191H3.53v-3.778H16.47v3.778zm-.455-5.802c-.543.45-1.367.665-2.375.665-.603 0-1.03-.039-1.32-.077V8.736c.428-.069.985-.107 1.572-.107.977 0 1.611.176 2.107.55.535.396.87 1.03.87 1.938 0 .985-.359 1.664-.854 2.084z"/>
  <path fill="#A0A0A0" d="M14.014 9.523c-.26 0-.428.022-.527.045v3.366c.1.023.26.023.405.023 1.053.008 1.74-.572 1.74-1.801.008-1.069-.618-1.633-1.618-1.633z"/>
</svg>
