<svg width="24" height="24" viewBox="0 0 24 24" fill="none" xmlns="http://www.w3.org/2000/svg">
<path d="M19 20V20.75H19.75V20H19ZM5 20H4.25V20.75H5V20ZM5 4V3.25H4.25V4H5ZM16 4L16.5303 3.46967L16.3107 3.25H16V4ZM19 7L19.75 7V6.68934L19.5303 6.46967L19 7ZM4 10V9.25C3.58579 9.25 3.25 9.58579 3.25 10H4ZM3.25 16C3.25 16.4142 3.58579 16.75 4 16.75C4.41421 16.75 4.75 16.4142 4.75 16H3.25ZM4.71429 10L5.4114 9.72337C5.29801 9.43761 5.02171 9.25 4.71429 9.25V10ZM6.5 14.5L5.80288 14.7766C5.91628 15.0624 6.19257 15.25 6.5 15.25C6.80743 15.25 7.08372 15.0624 7.19712 14.7766L6.5 14.5ZM8.28571 10V9.25C7.97829 9.25 7.70199 9.43761 7.5886 9.72337L8.28571 10ZM9 10H9.75C9.75 9.58579 9.41421 9.25 9 9.25V10ZM8.25 16C8.25 16.4142 8.58579 16.75 9 16.75C9.41421 16.75 9.75 16.4142 9.75 16H8.25ZM15 10V9.25C14.5858 9.25 14.25 9.58579 14.25 10H15ZM14.25 16C14.25 16.4142 14.5858 16.75 15 16.75C15.4142 16.75 15.75 16.4142 15.75 16H14.25ZM15.7143 10L16.4114 9.72337C16.298 9.43761 16.0217 9.25 15.7143 9.25V10ZM17.5 14.5L16.8029 14.7766C16.9163 15.0624 17.1926 15.25 17.5 15.25C17.8074 15.25 18.0837 15.0624 18.1971 14.7766L17.5 14.5ZM19.2857 10V9.25C18.9783 9.25 18.702 9.43761 18.5886 9.72337L19.2857 10ZM20 10H20.75C20.75 9.58579 20.4142 9.25 20 9.25V10ZM19.25 16C19.25 16.4142 19.5858 16.75 20 16.75C20.4142 16.75 20.75 16.4142 20.75 16H19.25ZM12.75 10C12.75 9.58579 12.4142 9.25 12 9.25C11.5858 9.25 11.25 9.58579 11.25 10H12.75ZM11.25 16C11.25 16.4142 11.5858 16.75 12 16.75C12.4142 16.75 12.75 16.4142 12.75 16H11.25ZM19 19.25H5V20.75H19V19.25ZM5 4.75H16V3.25H5V4.75ZM15.4697 4.53033L18.4697 7.53033L19.5303 6.46967L16.5303 3.46967L15.4697 4.53033ZM5.75 8V4H4.25V8H5.75ZM5.75 20V18H4.25V20H5.75ZM18.25 7L18.25 8L19.75 8L19.75 7L18.25 7ZM18.25 18V20H19.75V18H18.25ZM3.25 10V16H4.75V10H3.25ZM4 10.75H4.71429V9.25H4V10.75ZM4.01717 10.2766L5.80288 14.7766L7.19712 14.2234L5.4114 9.72337L4.01717 10.2766ZM7.19712 14.7766L8.98283 10.2766L7.5886 9.72337L5.80288 14.2234L7.19712 14.7766ZM8.28571 10.75H9V9.25H8.28571V10.75ZM8.25 10V16H9.75V10H8.25ZM14.25 10V16H15.75V10H14.25ZM15 10.75H15.7143V9.25H15V10.75ZM15.0172 10.2766L16.8029 14.7766L18.1971 14.2234L16.4114 9.72337L15.0172 10.2766ZM18.1971 14.7766L19.9828 10.2766L18.5886 9.72337L16.8029 14.2234L18.1971 14.7766ZM19.2857 10.75H20V9.25H19.2857V10.75ZM19.25 10V16H20.75V10H19.25ZM11.25 10V16H12.75V10H11.25Z" fill="black"/>
</svg>
