<svg width="24" height="24" viewBox="0 0 24 24" fill="none" xmlns="http://www.w3.org/2000/svg">
<path d="M19.7352 9.15391H19.255V6.8367C19.255 6.82214 19.2527 6.80769 19.2508 6.79295C19.25 6.70104 19.2205 6.61063 19.1577 6.53906L15.3016 2.13413C15.3005 2.13301 15.2993 2.1325 15.2986 2.13137C15.2756 2.1057 15.2488 2.08435 15.2205 2.06587C15.212 2.06024 15.2036 2.05545 15.1948 2.05054C15.1703 2.03725 15.1442 2.02603 15.1174 2.01801C15.1101 2.01609 15.1036 2.01311 15.0963 2.01118C15.0673 2.00432 15.037 2 15.0063 2H5.52953C5.09678 2 4.74522 2.35196 4.74522 2.78435V9.15373H4.26497C3.6462 9.15373 3.14402 9.65547 3.14402 10.2747V16.1043C3.14402 16.7229 3.6462 17.2252 4.26497 17.2252H4.74522V21.2157C4.74522 21.648 5.09678 22 5.52953 22H18.4707C18.903 22 19.255 21.648 19.255 21.2157V17.2252H19.7353C20.3545 17.2252 20.8562 16.7231 20.8562 16.1043V10.2749C20.8561 9.65547 20.3544 9.15391 19.7352 9.15391ZM5.52953 2.78449H14.6142V6.7972C14.6142 7.01386 14.79 7.18935 15.0064 7.18935H18.4707V9.15405H5.52953V2.78449ZM12.5312 10.3165V15.8274H11.2796V10.3165H12.5312ZM5.49006 13.7339L5.39166 15.8273H4.23854L4.59046 10.3164H6.25022L6.78984 12.1562C6.96177 12.7938 7.13333 13.4809 7.25588 14.1266H7.28039C7.43587 13.4889 7.62353 12.7609 7.80399 12.1482L8.39259 10.3165H10.0198L10.3223 15.8274H9.10413L9.02218 13.718C8.99767 13.0552 8.97316 12.2541 8.97316 11.4525H8.94865C8.77705 12.156 8.54767 12.9407 8.33515 13.5868L7.66456 15.7373H6.6918L6.1032 13.6035C5.92321 12.9572 5.73515 12.1725 5.60458 11.4526H5.5881C5.55556 12.197 5.53029 13.0468 5.49006 13.7339ZM18.4707 21.0033H5.52953V17.2252H18.4707V21.0033ZM18.3531 15.8274L18.2715 13.718C18.247 13.0552 18.2225 12.2541 18.2225 11.4525H18.198C18.026 12.156 17.7974 12.9407 17.5845 13.5868L16.9143 15.7373H15.9411L15.3522 13.6035C15.1722 12.9572 14.9845 12.1725 14.8535 11.4525H14.8371C14.8045 12.197 14.78 13.0468 14.739 13.7339L14.641 15.8273H13.4883L13.8395 10.3164H15.4992L16.0392 12.1562C16.2108 12.7938 16.3824 13.4809 16.5053 14.1266H16.5298C16.6849 13.4889 16.8733 12.7609 17.0533 12.1482L17.6415 10.3165H19.2691L19.5713 15.8274H18.3531Z" fill="black"/>
</svg>
