<svg width="24" height="24" viewBox="0 0 24 24" fill="none" xmlns="http://www.w3.org/2000/svg">
<path d="M19 20V20.75H19.75V20H19ZM5 20H4.25V20.75H5V20ZM5 4V3.25H4.25V4H5ZM16 4L16.5303 3.46967L16.3107 3.25H16V4ZM19 7H19.75V6.68934L19.5303 6.46967L19 7ZM3 10V9.25C2.58579 9.25 2.25 9.58579 2.25 10H3ZM2.25 16C2.25 16.4142 2.58579 16.75 3 16.75C3.41421 16.75 3.75 16.4142 3.75 16H2.25ZM3.71429 10L4.4114 9.72337C4.29801 9.43761 4.02171 9.25 3.71429 9.25V10ZM5.5 14.5L4.80288 14.7766C4.91628 15.0624 5.19257 15.25 5.5 15.25C5.80743 15.25 6.08372 15.0624 6.19712 14.7766L5.5 14.5ZM7.28571 10V9.25C6.97829 9.25 6.70199 9.43761 6.5886 9.72337L7.28571 10ZM8 10H8.75C8.75 9.58579 8.41421 9.25 8 9.25V10ZM7.25 16C7.25 16.4142 7.58579 16.75 8 16.75C8.41421 16.75 8.75 16.4142 8.75 16H7.25ZM16.7115 9.76283C16.5805 9.36987 16.1558 9.1575 15.7628 9.28849C15.3699 9.41947 15.1575 9.84421 15.2885 10.2372L16.7115 9.76283ZM18 16L17.2885 16.2372C17.3906 16.5434 17.6772 16.75 18 16.75C18.3228 16.75 18.6094 16.5434 18.7115 16.2372L18 16ZM20.7115 10.2372C20.8425 9.84421 20.6301 9.41947 20.2372 9.28849C19.8442 9.1575 19.4195 9.36987 19.2885 9.76283L20.7115 10.2372ZM19 19.25H5V20.75H19V19.25ZM5 4.75H16V3.25H5V4.75ZM15.4697 4.53033L18.4697 7.53033L19.5303 6.46967L16.5303 3.46967L15.4697 4.53033ZM5.75 8V4H4.25V8H5.75ZM5.75 20V18H4.25V20H5.75ZM18.25 7V8H19.75V7H18.25ZM18.25 18V20H19.75V18H18.25ZM2.25 10V16H3.75V10H2.25ZM3 10.75H3.71429V9.25H3V10.75ZM3.01717 10.2766L4.80288 14.7766L6.19712 14.2234L4.4114 9.72337L3.01717 10.2766ZM6.19712 14.7766L7.98283 10.2766L6.5886 9.72337L4.80288 14.2234L6.19712 14.7766ZM7.28571 10.75H8V9.25H7.28571V10.75ZM7.25 10V16H8.75V10H7.25ZM13.5891 12.312V13.688H15.0891V12.312H13.5891ZM11.0891 13.688V12.312H9.58908V13.688H11.0891ZM12.3391 15.25C11.686 15.25 11.0891 14.6771 11.0891 13.688H9.58908C9.58908 15.2526 10.6255 16.75 12.3391 16.75V15.25ZM13.5891 13.688C13.5891 14.6771 12.9922 15.25 12.3391 15.25V16.75C14.0527 16.75 15.0891 15.2526 15.0891 13.688H13.5891ZM12.3391 10.75C12.9922 10.75 13.5891 11.3229 13.5891 12.312H15.0891C15.0891 10.7474 14.0527 9.25 12.3391 9.25V10.75ZM12.3391 9.25C10.6255 9.25 9.58908 10.7474 9.58908 12.312H11.0891C11.0891 11.3229 11.686 10.75 12.3391 10.75V9.25ZM15.2885 10.2372L17.2885 16.2372L18.7115 15.7628L16.7115 9.76283L15.2885 10.2372ZM18.7115 16.2372L20.7115 10.2372L19.2885 9.76283L17.2885 15.7628L18.7115 16.2372Z" fill="black"/>
</svg>
