<svg width="24" height="24" viewBox="0 0 24 24" fill="none" xmlns="http://www.w3.org/2000/svg">
<path d="M11.5265 12.8374C11.5265 13.7923 11.9749 14.465 12.7128 14.465C13.4584 14.465 13.8849 13.7563 13.8849 12.8087C13.8849 11.9338 13.4654 11.1812 12.7057 11.1812C11.9608 11.1812 11.5265 11.8903 11.5265 12.8374Z" fill="black"/>
<path d="M19.7348 9.1539H19.2546V6.8367C19.2546 6.82215 19.2523 6.8077 19.2504 6.79293C19.2496 6.70093 19.2203 6.61054 19.1573 6.53905L15.3012 2.13405C15.3 2.13292 15.2989 2.13252 15.2981 2.13139C15.2752 2.10571 15.2484 2.08426 15.22 2.06588C15.2116 2.06015 15.2032 2.05545 15.1944 2.05059C15.1699 2.03728 15.1438 2.02608 15.117 2.01802C15.1097 2.01612 15.1032 2.01313 15.096 2.01116C15.0668 2.0043 15.0366 2 15.006 2H5.52907C5.09634 2 4.74477 2.35197 4.74477 2.78433V9.15368H4.26459C3.64554 9.15368 3.14358 9.65546 3.14358 10.2746V16.104C3.14358 16.7229 3.64554 17.2252 4.26459 17.2252H4.74477V21.2157C4.74477 21.6481 5.09634 22 5.52907 22H18.4702C18.9026 22 19.2545 21.6481 19.2545 21.2157V17.2252H19.7348C20.3536 17.2252 20.8557 16.7231 20.8557 16.1042V10.2748C20.8557 9.65568 20.3537 9.1539 19.7348 9.1539ZM5.52907 2.78451H14.6138V6.7972C14.6138 7.01387 14.7895 7.18936 15.006 7.18936H18.4703V9.15405H5.52907V2.78451ZM15.0496 12.7725C15.0496 14.3713 14.0803 15.3406 12.6557 15.3406C11.2085 15.3406 10.3624 14.2482 10.3624 12.8598C10.3624 11.3982 11.2954 10.3062 12.7348 10.3062C14.232 10.3061 15.0496 11.4275 15.0496 12.7725ZM5.46447 13.4089L5.37772 15.2609H4.35797L4.66912 10.3859H6.13714L6.6148 12.013C6.76655 12.5775 6.91858 13.1853 7.02696 13.7567H7.04848C7.18614 13.1923 7.35288 12.5486 7.51152 12.0061L8.03245 10.3859H9.4719L9.7395 15.2609H8.66182L8.58934 13.3948C8.56771 12.8088 8.54579 12.0997 8.54579 11.391H8.52423C8.37237 12.013 8.16953 12.7081 7.98203 13.2795L7.38895 15.1816H6.52795L6.00713 13.2932C5.84773 12.7218 5.68132 12.0275 5.56576 11.3909H5.55132C5.52246 12.0492 5.50065 12.8017 5.46447 13.4089ZM18.4703 21.0033H5.52907V17.2252H18.4702L18.4703 21.0033ZM18.1608 15.2609H16.8732L15.3108 10.3859H16.5186L17.1116 12.4473C17.278 13.0259 17.4299 13.5832 17.5457 14.1909H17.5676C17.6905 13.605 17.8422 13.0259 18.0088 12.469L18.6307 10.3861H19.803L18.1608 15.2609Z" fill="black"/>
</svg>
