<svg width="24" height="24" viewBox="0 0 24 24" fill="none" xmlns="http://www.w3.org/2000/svg">
<path d="M3 10V9.25C2.58579 9.25 2.25 9.58579 2.25 10H3ZM2.25 16C2.25 16.4142 2.58579 16.75 3 16.75C3.41421 16.75 3.75 16.4142 3.75 16H2.25ZM3.71429 10L4.4114 9.72337C4.29801 9.43761 4.02171 9.25 3.71429 9.25V10ZM5.5 14.5L4.80288 14.7766C4.91628 15.0624 5.19257 15.25 5.5 15.25C5.80743 15.25 6.08372 15.0624 6.19712 14.7766L5.5 14.5ZM7.28571 10V9.25C6.97829 9.25 6.70199 9.43761 6.5886 9.72337L7.28571 10ZM8 10H8.75C8.75 9.58579 8.41421 9.25 8 9.25V10ZM7.25 16C7.25 16.4142 7.58579 16.75 8 16.75C8.41421 16.75 8.75 16.4142 8.75 16H7.25ZM10.818 10V9.25C10.4038 9.25 10.068 9.58579 10.068 10H10.818ZM10.068 16C10.068 16.4142 10.4038 16.75 10.818 16.75C11.2322 16.75 11.568 16.4142 11.568 16H10.068ZM17.1368 12.25C16.7226 12.25 16.3868 12.5858 16.3868 13C16.3868 13.4142 16.7226 13.75 17.1368 13.75V12.25ZM15.4697 9.96967C15.1768 10.2626 15.1768 10.7374 15.4697 11.0303C15.7626 11.3232 16.2374 11.3232 16.5303 11.0303L15.4697 9.96967ZM16.3904 14.8596C16.0368 14.644 15.5753 14.7559 15.3596 15.1096C15.144 15.4632 15.2559 15.9247 15.6096 16.1404L16.3904 14.8596ZM19 20V20.75H19.75V20H19ZM5 20H4.25V20.75H5V20ZM5 4V3.25H4.25V4H5ZM16 4L16.5303 3.46967L16.3107 3.25H16V4ZM19 7H19.75V6.68934L19.5303 6.46967L19 7ZM2.25 10V16H3.75V10H2.25ZM3 10.75H3.71429V9.25H3V10.75ZM3.01717 10.2766L4.80288 14.7766L6.19712 14.2234L4.4114 9.72337L3.01717 10.2766ZM6.19712 14.7766L7.98283 10.2766L6.5886 9.72337L4.80288 14.2234L6.19712 14.7766ZM7.28571 10.75H8V9.25H7.28571V10.75ZM7.25 10V16H8.75V10H7.25ZM10.818 14.3525H12.318V12.8525H10.818V14.3525ZM12.318 14.3525C12.6723 14.3525 13.2098 14.2637 13.6822 13.9369C14.1968 13.5809 14.568 12.9844 14.568 12.1378H13.068C13.068 12.3308 13.0286 12.4505 12.9898 12.5244C12.9509 12.5987 12.8972 12.6561 12.8288 12.7034C12.6762 12.8089 12.4637 12.8525 12.318 12.8525V14.3525ZM14.568 12.1378V11.5332H13.068V12.1378H14.568ZM14.568 11.5332C14.568 10.9176 14.4138 10.3162 13.9819 9.86997C13.5458 9.41939 12.9462 9.25 12.318 9.25V10.75C12.6899 10.75 12.8402 10.8472 12.9041 10.9132C12.9722 10.9836 13.068 11.1488 13.068 11.5332H14.568ZM12.318 9.25H10.818V10.75H12.318V9.25ZM10.068 13.6025V16H11.568V13.6025H10.068ZM10.068 10V13.6025H11.568V10H10.068ZM18.25 11.5C18.25 11.8077 18.1356 11.9498 17.9836 12.0486C17.7894 12.1748 17.4834 12.25 17.1368 12.25V13.75C17.6534 13.75 18.279 13.6453 18.8006 13.3065C19.3644 12.9404 19.75 12.3325 19.75 11.5H18.25ZM17.5 10.75C17.721 10.75 17.9139 10.8109 18.0351 10.9079C18.1281 10.9824 18.25 11.1313 18.25 11.5H19.75C19.75 10.7285 19.4603 10.1274 18.9725 9.73692C18.5129 9.36898 17.9557 9.25 17.5 9.25V10.75ZM16.5303 11.0303C16.6338 10.9269 16.812 10.8448 17.0414 10.7963C17.2591 10.7502 17.4466 10.75 17.5 10.75V9.25C17.4165 9.25 17.1041 9.2498 16.7309 9.32874C16.3696 9.40519 15.8662 9.57311 15.4697 9.96967L16.5303 11.0303ZM20.25 14.5C20.25 13.9948 20.1214 13.5512 19.8577 13.1904C19.5976 12.8344 19.2502 12.6191 18.9136 12.4884C18.2765 12.241 17.5388 12.25 17.1368 12.25V13.75C17.598 13.75 18.0419 13.759 18.3706 13.8867C18.5169 13.9435 18.5984 14.0094 18.6465 14.0753C18.6911 14.1363 18.75 14.2552 18.75 14.5H20.25ZM17.5 16.75C17.6796 16.75 18.3159 16.7559 18.9222 16.5058C19.2362 16.3763 19.5762 16.165 19.8373 15.8189C20.1048 15.4643 20.25 15.0203 20.25 14.5H18.75C18.75 14.7298 18.6906 14.8482 18.6398 14.9155C18.5827 14.9912 18.4908 15.0612 18.3502 15.1192C18.0473 15.2441 17.6835 15.25 17.5 15.25V16.75ZM15.6096 16.1404C16.058 16.4138 16.6477 16.75 17.5 16.75V15.25C17.0816 15.25 16.7913 15.1041 16.3904 14.8596L15.6096 16.1404ZM19 19.25H5V20.75H19V19.25ZM5 4.75H16V3.25H5V4.75ZM15.4697 4.53033L18.4697 7.53033L19.5303 6.46967L16.5303 3.46967L15.4697 4.53033ZM5.75 8V4H4.25V8H5.75ZM5.75 20V18H4.25V20H5.75ZM18.25 7V8H19.75V7H18.25ZM18.25 18V20H19.75V18H18.25Z" fill="black"/>
</svg>
