<svg width="24" height="24" viewBox="0 0 24 24" fill="none" xmlns="http://www.w3.org/2000/svg">
<path d="M17.3095 12.5496L16.5982 13.7104V13.7269H17.7914V12.5496C17.7914 12.231 17.8079 11.9038 17.8324 11.5605H17.7999C17.6283 11.9038 17.4891 12.2142 17.3095 12.5496Z" fill="black"/>
<path d="M19.7352 9.15391H19.2549V6.8367C19.2549 6.82225 19.2526 6.80769 19.2507 6.79306C19.25 6.70104 19.2207 6.61067 19.1577 6.53906L15.3016 2.13413C15.3004 2.13301 15.2993 2.13261 15.2985 2.13137C15.2755 2.1057 15.2487 2.08435 15.2204 2.06587C15.212 2.06024 15.2036 2.05552 15.1948 2.05065C15.1702 2.03725 15.1442 2.02614 15.1174 2.01812C15.1101 2.01609 15.1036 2.01311 15.0963 2.01122C15.0672 2.00432 15.037 2 15.0063 2H5.52949C5.09674 2 4.74518 2.35196 4.74518 2.78435V9.15373H4.26505C3.64599 9.15373 3.14403 9.65547 3.14403 10.2747V16.1043C3.14403 16.7231 3.64599 17.2252 4.26505 17.2252H4.74522V21.2157C4.74522 21.648 5.09678 22 5.52953 22H18.4707C18.903 22 19.255 21.648 19.255 21.2157V17.2252H19.7352C20.3541 17.2252 20.8562 16.7231 20.8562 16.1043V10.2749C20.8561 9.65569 20.3541 9.15391 19.7352 9.15391ZM5.52949 2.78449H14.6142V6.7973C14.6142 7.01397 14.79 7.18946 15.0063 7.18946H18.4706V9.15416H5.52949V2.78449ZM14.9953 12.0919C14.9953 12.6311 14.8153 13.0888 14.4886 13.3994C14.0635 13.8003 13.4343 13.9799 12.6982 13.9799C12.5347 13.9799 12.3876 13.9719 12.2735 13.9554V15.925H11.0387V10.4895C11.423 10.424 11.9624 10.3747 12.7228 10.3747C13.4913 10.3747 14.0386 10.5221 14.407 10.8165C14.7582 11.0942 14.9953 11.552 14.9953 12.0919ZM5.36501 11.552H5.34838C5.31599 12.2956 5.29151 13.1462 5.25034 13.8328L5.15288 15.9254H3.99954L4.35132 10.4161H6.0109L6.55012 12.2554C6.72187 12.893 6.89347 13.5797 7.01638 14.2254H7.04089C7.19561 13.5877 7.38421 12.8601 7.56384 12.2473L8.15265 10.4161H9.77937L10.0819 15.9253H8.86362L8.78202 13.8163C8.75712 13.1546 8.73301 12.353 8.73301 11.5522H8.7085C8.53693 12.2554 8.30773 13.0405 8.09517 13.6861L7.4248 15.8361H6.45208L5.86363 13.7022C5.68363 13.0562 5.49598 12.2715 5.36501 11.552ZM18.4707 21.0033H5.52949V17.2252H18.4706L18.4707 21.0033ZM19.6067 14.6585H18.9687V15.9254H17.7916V14.6585H15.4376V13.8493L17.4483 10.6122H18.9687V13.7268H19.6067L19.6067 14.6585Z" fill="black"/>
<path d="M12.7881 11.3151C12.535 11.3151 12.3634 11.3396 12.2738 11.364V12.9907C12.3795 13.0152 12.5105 13.0236 12.6905 13.0236C13.3526 13.0236 13.7612 12.6885 13.7612 12.1241C13.7612 11.6177 13.4096 11.3151 12.7881 11.3151Z" fill="black"/>
</svg>
