<svg width="24" height="24" viewBox="0 0 24 24" fill="none" xmlns="http://www.w3.org/2000/svg">
<path d="M13.0668 11.4253C12.8301 11.4253 12.6701 11.4483 12.5858 11.4711V12.99C12.685 13.013 12.8075 13.0206 12.9753 13.0206C13.5932 13.0206 13.9752 12.7076 13.9752 12.1808C13.9752 11.7076 13.6466 11.4253 13.0668 11.4253Z" fill="black"/>
<path d="M17.3335 11.4565H17.3185C17.242 11.7617 17.1657 12.1511 17.0818 12.4489L16.7762 13.5402H17.9136L17.5931 12.4489C17.5012 12.1435 17.4097 11.7615 17.3335 11.4565Z" fill="black"/>
<path d="M19.7352 9.15373H19.2549V6.83648C19.2549 6.82192 19.2526 6.80747 19.2507 6.79273C19.25 6.70072 19.2207 6.61034 19.1577 6.53881L15.3016 2.13413C15.3004 2.1329 15.2993 2.1325 15.2985 2.13137C15.2755 2.1057 15.2487 2.08424 15.2204 2.06587C15.212 2.06013 15.2036 2.05545 15.1948 2.05054C15.1702 2.03725 15.1442 2.02603 15.1174 2.01801C15.1101 2.01609 15.1036 2.01311 15.0963 2.01111C15.0672 2.00432 15.037 2 15.0063 2H5.52949C5.09674 2 4.74518 2.35196 4.74518 2.78435V9.15373H4.26504C3.64598 9.15373 3.14402 9.65547 3.14402 10.2746V16.104C3.14402 16.7229 3.64598 17.2252 4.26504 17.2252H4.74522V21.2157C4.74522 21.648 5.09678 22 5.52953 22H18.4707C18.903 22 19.255 21.648 19.255 21.2157V17.2252H19.7352C20.3541 17.2252 20.8562 16.7231 20.8562 16.1043V10.2749C20.8561 9.65547 20.3541 9.15373 19.7352 9.15373ZM5.52949 2.78435H14.6142V6.79705C14.6142 7.01372 14.79 7.18921 15.0063 7.18921H18.4706V9.15391H5.52949V2.78435ZM15.1278 12.1509C15.1278 12.6545 14.96 13.0819 14.6548 13.372C14.258 13.7459 13.6702 13.9143 12.9832 13.9143C12.8306 13.9143 12.6933 13.9066 12.5862 13.8915V15.7309H11.4335V10.6546C11.7922 10.5937 12.2961 10.5478 13.0061 10.5478C13.7236 10.5478 14.2351 10.6853 14.5788 10.9603C14.9068 11.2196 15.1278 11.6468 15.1278 12.1509ZM4.86228 15.7305L5.19049 10.5859H6.73994L7.24346 12.3035C7.40345 12.899 7.56402 13.5403 7.6785 14.1433H7.70185C7.84702 13.5479 8.02251 12.8684 8.19012 12.2958L8.73968 10.5859H10.2589L10.5411 15.7305H9.4037L9.32737 13.7613C9.30486 13.1433 9.28187 12.3953 9.28187 11.647H9.25929C9.09891 12.3035 8.88485 13.0359 8.68638 13.6391L8.06075 15.6466H7.15233L6.60269 13.6544C6.43468 13.0516 6.25919 12.3186 6.1374 11.647H6.12172C6.09154 12.3416 6.06856 13.1357 6.03018 13.7766L5.93864 15.7305H4.86228ZM18.4707 21.0031H5.52949V17.2252H18.4706L18.4707 21.0031ZM18.4783 15.7305L18.0816 14.4102H16.6083L16.2418 15.7305H15.036L16.6087 10.5859H18.135L19.7306 15.7305H18.4783Z" fill="black"/>
</svg>
