<svg width="24" height="24" viewBox="0 0 24 24" fill="none" xmlns="http://www.w3.org/2000/svg">
<path d="M19 20V20.75H19.75V20H19ZM5 20H4.25V20.75H5V20ZM5 4V3.25H4.25V4H5ZM16 4L16.5303 3.46967L16.3107 3.25H16V4ZM19 7H19.75V6.68934L19.5303 6.46967L19 7ZM3 10V9.25C2.58579 9.25 2.25 9.58579 2.25 10H3ZM2.25 16C2.25 16.4142 2.58579 16.75 3 16.75C3.41421 16.75 3.75 16.4142 3.75 16H2.25ZM3.71429 10L4.4114 9.72337C4.29801 9.43761 4.02171 9.25 3.71429 9.25V10ZM5.5 14.5L4.80288 14.7766C4.91628 15.0624 5.19257 15.25 5.5 15.25C5.80743 15.25 6.08372 15.0624 6.19712 14.7766L5.5 14.5ZM7.28571 10V9.25C6.97829 9.25 6.70199 9.43761 6.5886 9.72337L7.28571 10ZM8 10H8.75C8.75 9.58579 8.41421 9.25 8 9.25V10ZM7.25 16C7.25 16.4142 7.58579 16.75 8 16.75C8.41421 16.75 8.75 16.4142 8.75 16H7.25ZM11 10V9.25C10.5858 9.25 10.25 9.58579 10.25 10H11ZM10.25 16C10.25 16.4142 10.5858 16.75 11 16.75C11.4142 16.75 11.75 16.4142 11.75 16H10.25ZM15.2724 15.8181C15.1719 16.2199 15.4163 16.6271 15.8181 16.7276C16.2199 16.8281 16.6271 16.5837 16.7276 16.1819L15.2724 15.8181ZM17.5 10V9.25C17.1558 9.25 16.8559 9.48422 16.7724 9.8181L17.5 10ZM18.5 10L19.2276 9.8181C19.1441 9.48422 18.8442 9.25 18.5 9.25V10ZM19.2724 16.1819C19.3729 16.5837 19.7801 16.8281 20.1819 16.7276C20.5837 16.6271 20.8281 16.2199 20.7276 15.8181L19.2724 16.1819ZM19 19.25H5V20.75H19V19.25ZM5 4.75H16V3.25H5V4.75ZM15.4697 4.53033L18.4697 7.53033L19.5303 6.46967L16.5303 3.46967L15.4697 4.53033ZM5.75 8V4H4.25V8H5.75ZM18.25 7V8H19.75V7H18.25ZM18.25 18V20H19.75V18H18.25ZM2.25 10V16H3.75V10H2.25ZM3 10.75H3.71429V9.25H3V10.75ZM3.01717 10.2766L4.80288 14.7766L6.19712 14.2234L4.4114 9.72337L3.01717 10.2766ZM6.19712 14.7766L7.98283 10.2766L6.5886 9.72337L4.80288 14.2234L6.19712 14.7766ZM7.28571 10.75H8V9.25H7.28571V10.75ZM7.25 10V16H8.75V10H7.25ZM11 14.3525H12.5V12.8525H11V14.3525ZM12.5 14.3525C12.8543 14.3525 13.3918 14.2637 13.8642 13.9369C14.3788 13.5809 14.75 12.9844 14.75 12.1378H13.25C13.25 12.3308 13.2106 12.4505 13.1718 12.5244C13.1328 12.5987 13.0792 12.6561 13.0108 12.7034C12.8582 12.8089 12.6457 12.8525 12.5 12.8525V14.3525ZM14.75 12.1378V11.5332H13.25V12.1378H14.75ZM14.75 11.5332C14.75 10.9176 14.5958 10.3162 14.1639 9.86997C13.7278 9.41939 13.1281 9.25 12.5 9.25V10.75C12.8719 10.75 13.0222 10.8472 13.0861 10.9132C13.1542 10.9836 13.25 11.1488 13.25 11.5332H14.75ZM12.5 9.25H11V10.75H12.5V9.25ZM10.25 13.6025V16H11.75V13.6025H10.25ZM10.25 10V13.6025H11.75V10H10.25ZM16.7276 16.1819L17.2276 14.1819L15.7724 13.8181L15.2724 15.8181L16.7276 16.1819ZM17.2276 14.1819L18.2276 10.1819L16.7724 9.8181L15.7724 13.8181L17.2276 14.1819ZM17.5 10.75H18.5V9.25H17.5V10.75ZM17.7724 10.1819L18.7724 14.1819L20.2276 13.8181L19.2276 9.8181L17.7724 10.1819ZM18.7724 14.1819L19.2724 16.1819L20.7276 15.8181L20.2276 13.8181L18.7724 14.1819ZM16.5 14.75H19.5V13.25H16.5V14.75ZM5.75 20V18H4.25V20H5.75Z" fill="black"/>
</svg>
