<svg width="24" height="24" viewBox="0 0 24 24" fill="none" xmlns="http://www.w3.org/2000/svg">
<path d="M19.7352 9.15391H19.2549V6.8367C19.2549 6.82225 19.2526 6.80769 19.2507 6.79306C19.25 6.70104 19.2207 6.61067 19.1577 6.53906L15.3016 2.13413C15.3004 2.13301 15.2993 2.13261 15.2985 2.13137C15.2755 2.1057 15.2487 2.08435 15.2204 2.06587C15.212 2.06024 15.2036 2.05552 15.1948 2.05065C15.1702 2.03725 15.1442 2.02614 15.1174 2.01812C15.1101 2.01609 15.1036 2.01311 15.0963 2.01122C15.0672 2.00432 15.037 2 15.0063 2H5.52949C5.09674 2 4.74518 2.35196 4.74518 2.78435V9.15373H4.26504C3.64598 9.15373 3.14402 9.65547 3.14402 10.2747V16.1043C3.14402 16.7231 3.64598 17.2252 4.26504 17.2252H4.74522V21.2157C4.74522 21.648 5.09678 22 5.52953 22H18.4707C18.903 22 19.255 21.648 19.255 21.2157V17.2252H19.7352C20.3541 17.2252 20.8562 16.7231 20.8562 16.1043V10.2749C20.8561 9.65569 20.3541 9.15391 19.7352 9.15391ZM5.52949 2.78449H14.6142V6.7973C14.6142 7.01397 14.79 7.18946 15.0063 7.18946H18.4706V9.15416H5.52949V2.78449ZM14.6717 11.9149C14.6717 12.419 14.5035 12.8463 14.1977 13.137C13.8008 13.5108 13.2129 13.6789 12.5255 13.6789C12.3727 13.6789 12.2356 13.6713 12.1287 13.6559V15.4965H10.9755V10.4181C11.3342 10.3571 11.8381 10.3114 12.5482 10.3114C13.2663 10.3114 13.7778 10.4487 14.1215 10.7237C14.4495 10.9831 14.6717 11.4108 14.6717 11.9149ZM5.47677 15.4965H4.39994L4.72851 10.3496H6.27807L6.78203 12.0678C6.94241 12.6633 7.10276 13.3047 7.21794 13.9079H7.24045C7.38559 13.3124 7.56107 12.6327 7.7293 12.0601L8.27905 10.3498H9.79847L10.0812 15.4966H8.94342L8.86692 13.5262C8.84386 12.9076 8.82124 12.1593 8.82124 11.4107H8.79865C8.6379 12.0673 8.4244 12.8005 8.22592 13.4039L7.59931 15.4123H6.69082L6.14107 13.4192C5.97324 12.8158 5.79735 12.083 5.67517 11.4107H5.65967C5.62913 12.1056 5.60654 12.8999 5.56813 13.541L5.47677 15.4965ZM18.4707 21.0033H5.52949V17.2252H18.4706L18.4707 21.0033ZM19.7118 15.2596C19.3526 15.3817 18.6732 15.5497 17.9935 15.5497C17.0544 15.5497 16.3751 15.313 15.901 14.855C15.4276 14.4123 15.1679 13.7398 15.176 12.9842C15.1836 11.2738 16.4283 10.2961 18.1156 10.2961C18.7799 10.2961 19.2917 10.4261 19.5437 10.5481L19.2993 11.4796C19.0169 11.3575 18.6657 11.2581 18.1005 11.2581C17.1306 11.2581 16.3976 11.808 16.3976 12.9227C16.3976 13.9845 17.0621 14.6107 18.0164 14.6107C18.2837 14.6107 18.4974 14.5798 18.5893 14.5341V13.4572H17.7951V12.5488H19.7116L19.7118 15.2596Z" fill="black"/>
<path d="M12.6098 11.1896C12.3731 11.1896 12.2129 11.2123 12.129 11.2355V12.7552C12.228 12.7778 12.3502 12.7859 12.5183 12.7859C13.1368 12.7859 13.519 12.4724 13.519 11.9455C13.519 11.4722 13.19 11.1896 12.6098 11.1896Z" fill="black"/>
</svg>
