<svg width="24" height="24" viewBox="0 0 24 24" fill="none" xmlns="http://www.w3.org/2000/svg">
<path d="M19.7352 9.15398H19.2549V6.83645C19.2549 6.822 19.2526 6.80744 19.2507 6.79277C19.25 6.70079 19.2207 6.61041 19.1577 6.53877L15.3016 2.13413C15.3004 2.13301 15.2993 2.13261 15.2985 2.13144C15.2755 2.1057 15.2487 2.08435 15.2204 2.06598C15.212 2.06024 15.2036 2.05552 15.1948 2.05065C15.1702 2.03725 15.1442 2.02614 15.1174 2.01812C15.1101 2.01609 15.1036 2.01311 15.0963 2.01122C15.0672 2.00432 15.037 2 15.0063 2H5.52949C5.09674 2 4.74518 2.35203 4.74518 2.78435V9.15373H4.26505C3.64599 9.15373 3.14403 9.65547 3.14403 10.2747V16.1043C3.14403 16.7231 3.64599 17.2252 4.26505 17.2252H4.74522V21.2157C4.74522 21.648 5.09678 22 5.52953 22H18.4707C18.903 22 19.255 21.648 19.255 21.2157V17.2252H19.7352C20.3541 17.2252 20.8562 16.7231 20.8562 16.1043V10.2749C20.8561 9.65547 20.3541 9.15398 19.7352 9.15398ZM5.52949 2.78435H14.6142V6.79716C14.6142 7.01383 14.79 7.18932 15.0063 7.18932H18.4706V9.15402H5.52949V2.78435ZM12.0818 13.4556C11.2644 13.1707 10.7315 12.7178 10.7315 12.003C10.7315 11.1635 11.4322 10.5212 12.5929 10.5212C13.1474 10.5212 13.556 10.638 13.8479 10.7694L13.5997 11.6671C13.4027 11.5721 13.0525 11.4336 12.5707 11.4336C12.0889 11.4336 11.8554 11.6525 11.8554 11.908C11.8554 12.2221 12.1329 12.3603 12.7677 12.6016C13.6365 12.9229 14.0451 13.3752 14.0451 14.0688C14.0451 14.8933 13.4102 15.5939 12.0597 15.5939C11.4979 15.5939 10.9432 15.4476 10.6658 15.2946L10.8919 14.3751C11.1912 14.5283 11.6511 14.6815 12.1256 14.6815C12.6363 14.6815 12.9063 14.4701 12.9063 14.1488C12.9066 13.8425 12.673 13.6669 12.0818 13.4556ZM4.57009 15.5208L4.88404 10.6016H6.36584L6.84761 12.2437C7.0007 12.8127 7.15407 13.4258 7.26369 14.0029H7.28544C7.42426 13.4334 7.59191 12.7837 7.75247 12.2365L8.27818 10.6016H9.73057L10.0006 15.5208H8.91285L8.83998 13.6376C8.81834 13.0463 8.79622 12.3309 8.79622 11.6159H8.77447C8.6211 12.2436 8.41678 12.9441 8.22676 13.5208L7.62858 15.4402H6.75992L6.23447 13.5353C6.07383 12.9585 5.906 12.2577 5.78919 11.6159H5.77445C5.74522 12.28 5.72332 13.039 5.68683 13.6521L5.59932 15.5208H4.57009V15.5208ZM18.4707 21.0031H5.52949V17.2252H18.4706V21.0031H18.4707ZM18.9068 15.2946C18.5637 15.4115 17.9142 15.5723 17.2647 15.5723C16.367 15.5723 15.7173 15.346 15.2648 14.9076C14.8125 14.4847 14.5642 13.842 14.5717 13.1192C14.5789 11.4843 15.7684 10.5502 17.3817 10.5502C18.0164 10.5502 18.5055 10.6743 18.7464 10.7912L18.5127 11.6815C18.2429 11.5647 17.9071 11.4702 17.3671 11.4702C16.4401 11.4702 15.7393 11.9957 15.7393 13.061C15.7393 14.0754 16.3743 14.6742 17.2867 14.6742C17.5423 14.6742 17.7468 14.6451 17.8341 14.6015V13.5721H17.0751V12.7035H18.9072V15.2946H18.9068V15.2946Z" fill="black"/>
</svg>
