<svg width="24" height="24" viewBox="0 0 24 24" fill="none" xmlns="http://www.w3.org/2000/svg">
<path d="M19 20V20.75H19.75V20H19ZM4.99997 20H4.24997V20.75H4.99997V20ZM4.99997 4V3.25H4.24997V4H4.99997ZM16 4L16.5303 3.46967L16.3106 3.25H16V4ZM19 7L19.75 6.99998L19.75 6.68933L19.5303 6.46967L19 7ZM3.72717 10V9.25C3.31296 9.25 2.97717 9.58579 2.97717 10H3.72717ZM2.97717 16C2.97717 16.4142 3.31296 16.75 3.72717 16.75C4.14139 16.75 4.47717 16.4142 4.47717 16H2.97717ZM4.44146 10L5.13858 9.72337C5.02518 9.43761 4.74889 9.25 4.44146 9.25V10ZM6.22717 14.5L5.53005 14.7766C5.64345 15.0624 5.91974 15.25 6.22717 15.25C6.5346 15.25 6.8109 15.0624 6.92429 14.7766L6.22717 14.5ZM8.01289 10V9.25C7.70546 9.25 7.42916 9.43761 7.31577 9.72337L8.01289 10ZM8.72717 10H9.47717C9.47717 9.58579 9.14139 9.25 8.72717 9.25V10ZM7.97717 16C7.97717 16.4142 8.31296 16.75 8.72717 16.75C9.14139 16.75 9.47717 16.4142 9.47717 16H7.97717ZM16.273 11.6438H17.023V11.6438L16.273 11.6438ZM19.773 13.2877H20.523V12.5377H19.773V13.2877ZM13.7323 10.7605C14.1465 10.7605 14.4823 10.4247 14.4823 10.0105C14.4823 9.59624 14.1465 9.26045 13.7323 9.26045V10.7605ZM12.4909 10.0105L12.4372 9.26238L12.4909 10.0105ZM11.3025 12.3664L11.8746 11.8814L11.3025 12.3664ZM13.3567 13.364L12.9488 13.9933H12.9488L13.3567 13.364ZM12.4909 16V15.25H12.4909L12.4909 16ZM11.1721 15.25C10.7579 15.25 10.4221 15.5858 10.4221 16C10.4221 16.4142 10.7579 16.75 11.1721 16.75L11.1721 15.25ZM19 19.25H4.99997V20.75H19V19.25ZM4.99997 4.75H16V3.25H4.99997V4.75ZM15.4696 4.53033L18.4696 7.53033L19.5303 6.46967L16.5303 3.46967L15.4696 4.53033ZM5.74997 8V4H4.24997V8H5.74997ZM5.74997 20V18H4.24997V20H5.74997ZM18.25 7.00002L18.25 8.00002L19.75 7.99998L19.75 6.99998L18.25 7.00002ZM18.25 18V20H19.75V18H18.25ZM2.97717 10V16H4.47717V10H2.97717ZM3.72717 10.75H4.44146V9.25H3.72717V10.75ZM3.74434 10.2766L5.53005 14.7766L6.92429 14.2234L5.13858 9.72337L3.74434 10.2766ZM6.92429 14.7766L8.71 10.2766L7.31577 9.72337L5.53005 14.2234L6.92429 14.7766ZM8.01289 10.75H8.72717V9.25H8.01289V10.75ZM7.97717 10V16H9.47717V10H7.97717ZM17.9719 9.25C17.0696 9.25 16.4316 9.66372 16.0403 10.1811C15.6745 10.6646 15.523 11.2358 15.523 11.6439L17.023 11.6438C17.023 11.5496 17.0755 11.2989 17.2366 11.086C17.3719 10.9071 17.5834 10.75 17.9719 10.75V9.25ZM15.523 11.6438V14.2341H17.023V11.6438H15.523ZM15.523 14.2341C15.523 15.6153 16.5209 16.75 17.9719 16.75V15.25C17.4227 15.25 17.023 14.8622 17.023 14.2341H15.523ZM20.523 14.3836V13.2877H19.023V14.3836H20.523ZM19.773 12.5377H18.2628V14.0377H19.773V12.5377ZM20.523 11.6438C20.523 10.9196 20.2337 10.2996 19.7392 9.87019C19.2558 9.45044 18.6217 9.25 17.9719 9.25V10.75C18.3221 10.75 18.5885 10.8575 18.7557 11.0028C18.9118 11.1383 19.023 11.3403 19.023 11.6438H20.523ZM17.9719 16.75C18.5921 16.75 19.2278 16.5894 19.7234 16.1824C20.2399 15.7583 20.523 15.1321 20.523 14.3836H19.023C19.023 14.731 18.9056 14.913 18.7715 15.0231C18.6166 15.1504 18.3517 15.25 17.9719 15.25V16.75ZM13.7323 9.26045C13.0286 9.26045 12.8092 9.25458 12.7281 9.25201C12.7015 9.25117 12.6468 9.24836 12.5855 9.25154C12.5566 9.25303 12.4932 9.25836 12.4372 9.26238L12.5446 10.7585C12.5881 10.7554 12.6182 10.753 12.6391 10.7514C12.6638 10.7495 12.6648 10.7494 12.6631 10.7495C12.6443 10.7505 12.6144 10.7492 12.6805 10.7513C12.7847 10.7546 13.0221 10.7605 13.7323 10.7605V9.26045ZM12.4372 9.26238C11.3544 9.34011 10.6461 9.94467 10.3736 10.7309C10.1253 11.4477 10.2554 12.291 10.7304 12.8513L11.8746 11.8814C11.7735 11.7621 11.7 11.4846 11.791 11.222C11.8579 11.0289 12.0318 10.7953 12.5446 10.7585L12.4372 9.26238ZM10.7304 12.8513C11.1613 13.3598 11.6299 13.5219 12.0168 13.6313C12.3832 13.735 12.6304 13.787 12.9488 13.9933L13.7646 12.7346C13.2172 12.3798 12.7253 12.2729 12.4251 12.188C12.1454 12.1088 12.0198 12.0527 11.8746 11.8814L10.7304 12.8513ZM12.9488 13.9933C13.18 14.1432 13.3022 14.4619 13.2297 14.766C13.1965 14.9055 13.126 15.0184 13.0265 15.0973C12.9307 15.1733 12.7674 15.25 12.4909 15.25V16.75C13.6912 16.75 14.4725 16.0217 14.6889 15.1137C14.8895 14.2717 14.5943 13.2724 13.7646 12.7346L12.9488 13.9933ZM12.4909 15.25L11.1721 15.25L11.1721 16.75L12.4909 16.75L12.4909 15.25Z" fill="black"/>
</svg>
