<svg width="24" height="24" viewBox="0 0 24 24" fill="none" xmlns="http://www.w3.org/2000/svg">
<path d="M19 20V20.75H19.75V20H19ZM5 20H4.25V20.75H5V20ZM5 4V3.25H4.25V4H5ZM16 4L16.5303 3.46967L16.3107 3.25H16V4ZM19 7L19.75 7V6.68934L19.5303 6.46967L19 7ZM5 10V9.25C4.58579 9.25 4.25 9.58579 4.25 10H5ZM4.25 16C4.25 16.4142 4.58579 16.75 5 16.75C5.41421 16.75 5.75 16.4142 5.75 16H4.25ZM5.71429 10L6.4114 9.72337C6.29801 9.43761 6.02171 9.25 5.71429 9.25V10ZM7.5 14.5L6.80288 14.7766C6.91628 15.0624 7.19257 15.25 7.5 15.25C7.80743 15.25 8.08372 15.0624 8.19712 14.7766L7.5 14.5ZM9.28571 10V9.25C8.97829 9.25 8.70199 9.43761 8.5886 9.72337L9.28571 10ZM10 10H10.75C10.75 9.58579 10.4142 9.25 10 9.25V10ZM9.25 16C9.25 16.4142 9.58579 16.75 10 16.75C10.4142 16.75 10.75 16.4142 10.75 16H9.25ZM15.2324 10.7605C15.6466 10.7605 15.9824 10.4247 15.9824 10.0105C15.9824 9.59624 15.6466 9.26045 15.2324 9.26045V10.7605ZM13.9909 10.0105L13.9372 9.26238L13.9909 10.0105ZM12.8025 12.3664L13.3747 11.8814L12.8025 12.3664ZM14.8567 13.364L14.4488 13.9933H14.4488L14.8567 13.364ZM13.9909 16V15.25H13.9909L13.9909 16ZM12.6721 15.25C12.2579 15.25 11.9221 15.5858 11.9221 16C11.9221 16.4142 12.2579 16.75 12.6721 16.75L12.6721 15.25ZM18.75 10C18.75 9.58579 18.4142 9.25 18 9.25C17.5858 9.25 17.25 9.58579 17.25 10H18.75ZM17.25 16C17.25 16.4142 17.5858 16.75 18 16.75C18.4142 16.75 18.75 16.4142 18.75 16H17.25ZM19 19.25H5V20.75H19V19.25ZM5 4.75H16V3.25H5V4.75ZM15.4697 4.53033L18.4697 7.53033L19.5303 6.46967L16.5303 3.46967L15.4697 4.53033ZM5.75 8V4H4.25V8H5.75ZM5.75 20V18H4.25V20H5.75ZM18.25 7L18.25 8L19.75 8L19.75 7L18.25 7ZM18.25 18V20H19.75V18H18.25ZM4.25 10V16H5.75V10H4.25ZM5 10.75H5.71429V9.25H5V10.75ZM5.01717 10.2766L6.80288 14.7766L8.19712 14.2234L6.4114 9.72337L5.01717 10.2766ZM8.19712 14.7766L9.98283 10.2766L8.5886 9.72337L6.80288 14.2234L8.19712 14.7766ZM9.28571 10.75H10V9.25H9.28571V10.75ZM9.25 10V16H10.75V10H9.25ZM15.2324 9.26045C14.5286 9.26045 14.3092 9.25458 14.2281 9.25201C14.2015 9.25117 14.1468 9.24836 14.0855 9.25154C14.0566 9.25303 13.9933 9.25836 13.9372 9.26238L14.0446 10.7585C14.0882 10.7554 14.1182 10.753 14.1392 10.7514C14.1638 10.7495 14.1649 10.7494 14.1631 10.7495C14.1444 10.7505 14.1144 10.7492 14.1805 10.7513C14.2847 10.7546 14.5222 10.7605 15.2324 10.7605V9.26045ZM13.9372 9.26238C12.8544 9.34011 12.1461 9.94467 11.8737 10.7309C11.6253 11.4477 11.7555 12.291 12.2304 12.8513L13.3747 11.8814C13.2735 11.7621 13.2 11.4846 13.291 11.222C13.3579 11.0289 13.5319 10.7953 14.0446 10.7585L13.9372 9.26238ZM12.2304 12.8513C12.6613 13.3598 13.1299 13.5219 13.5168 13.6313C13.8833 13.735 14.1304 13.787 14.4488 13.9933L15.2646 12.7346C14.7172 12.3798 14.2253 12.2729 13.9251 12.188C13.6454 12.1088 13.5198 12.0527 13.3747 11.8814L12.2304 12.8513ZM14.4488 13.9933C14.68 14.1432 14.8022 14.4619 14.7297 14.766C14.6965 14.9055 14.626 15.0184 14.5266 15.0973C14.4307 15.1733 14.2674 15.25 13.9909 15.25V16.75C15.1912 16.75 15.9726 16.0217 16.1889 15.1137C16.3895 14.2717 16.0944 13.2724 15.2646 12.7346L14.4488 13.9933ZM13.9909 15.25L12.6721 15.25L12.6721 16.75L13.9909 16.75L13.9909 15.25ZM17.25 10V16H18.75V10H17.25Z" fill="black"/>
</svg>
