<svg width="24" height="24" viewBox="0 0 24 24" fill="none" xmlns="http://www.w3.org/2000/svg">
<path d="M19.7352 9.15373H19.255V6.83648C19.255 6.82192 19.2527 6.80747 19.2508 6.79273C19.25 6.70083 19.2207 6.61041 19.1577 6.53881L15.3016 2.13413C15.3005 2.13301 15.2993 2.1325 15.2986 2.13137C15.2756 2.1057 15.2488 2.08435 15.2205 2.06587C15.212 2.06024 15.2036 2.05552 15.1948 2.05054C15.1703 2.03725 15.1442 2.02603 15.1174 2.01801C15.1101 2.01609 15.1036 2.01311 15.0963 2.01118C15.0673 2.00432 15.037 2 15.0063 2H5.52953C5.09678 2 4.74522 2.35196 4.74522 2.78435V9.15373H4.26508C3.6462 9.15373 3.14403 9.65547 3.14403 10.2747V16.1043C3.14403 16.7229 3.6462 17.2252 4.26508 17.2252H4.74522V21.2157C4.74522 21.648 5.09678 22 5.52953 22H18.4707C18.903 22 19.255 21.648 19.255 21.2157V17.2252H19.7353C20.3545 17.2252 20.8562 16.7229 20.8562 16.1043V10.2747C20.8561 9.65547 20.3544 9.15373 19.7352 9.15373ZM5.52953 2.78435H14.6142V6.79705C14.6142 7.01382 14.79 7.18921 15.0064 7.18921H18.4707V9.15391H5.52953V2.78435ZM14.2489 12.6055V13.5253H12.4091V14.7118H14.4637V15.6393H11.2745V10.6396H14.3599V11.5669H12.4091V12.6055H14.2489V12.6055ZM7.19543 14.1335V15.6393H6.15683V10.6396H7.4772L8.51579 12.4718C8.81231 12.9988 9.10853 13.6215 9.33151 14.1856H9.35327C9.27937 13.5253 9.25722 12.85 9.25722 12.1011V10.6396H10.2959V15.6393H9.10857L8.04096 13.7107C7.74408 13.1763 7.4178 12.531 7.1731 11.9456L7.15099 11.9523C7.18047 12.6127 7.19543 13.3174 7.19543 14.1335ZM18.4707 21.0031H5.52953V17.2252H18.4707V21.0031ZM16.4586 15.7136C15.8876 15.7136 15.3235 15.565 15.0416 15.4095L15.2718 14.4741C15.5759 14.63 16.0431 14.7859 16.5252 14.7859C17.0446 14.7859 17.3188 14.571 17.3188 14.2443C17.3188 13.9328 17.0817 13.7549 16.4805 13.5399C15.65 13.2504 15.1087 12.7906 15.1087 12.0638C15.1087 11.2104 15.8206 10.5579 17.0002 10.5579C17.5635 10.5579 17.979 10.6765 18.2758 10.8102L18.0239 11.7224C17.8238 11.6258 17.4674 11.4849 16.978 11.4849C16.4882 11.4849 16.2511 11.7074 16.2511 11.967C16.2511 12.2861 16.5328 12.427 17.178 12.6717C18.0612 12.9984 18.4767 13.4583 18.4767 14.1629C18.4764 15.0013 17.8307 15.7136 16.4586 15.7136Z" fill="black"/>
</svg>
