<svg width="24" height="24" viewBox="0 0 24 24" fill="none" xmlns="http://www.w3.org/2000/svg">
<path d="M19.7352 9.15373H19.2549V6.83648C19.2549 6.82192 19.2526 6.80747 19.2507 6.79273C19.25 6.70072 19.2207 6.61034 19.1577 6.53881L15.3016 2.13413C15.3004 2.1329 15.2993 2.1325 15.2985 2.13137C15.2755 2.1057 15.2487 2.08424 15.2204 2.06587C15.212 2.06013 15.2036 2.05545 15.1948 2.05054C15.1702 2.03725 15.1442 2.02603 15.1174 2.01801C15.1101 2.01609 15.1036 2.01311 15.0963 2.01111C15.0672 2.00432 15.037 2 15.0063 2H5.52949C5.09674 2 4.74518 2.35196 4.74518 2.78435V9.15373H4.26505C3.64599 9.15373 3.14403 9.65547 3.14403 10.2746V16.104C3.14403 16.7229 3.64599 17.2252 4.26505 17.2252H4.74522V21.2157C4.74522 21.648 5.09678 22 5.52953 22H18.4707C18.903 22 19.255 21.648 19.255 21.2157V17.2252H19.7352C20.3541 17.2252 20.8562 16.7231 20.8562 16.1043V10.2749C20.8561 9.65547 20.3541 9.15373 19.7352 9.15373ZM5.52949 2.78435H14.6142V6.79705C14.6142 7.01372 14.79 7.18921 15.0063 7.18921H18.4706V9.15391H5.52949V2.78435ZM16.0174 14.3443C16.0174 14.8866 15.7685 15.313 15.3954 15.6152C14.96 15.962 14.2312 16.1576 13.0402 16.1576C12.3735 16.1576 11.8756 16.113 11.5734 16.0688V10.1849C11.9295 10.1141 12.6488 10.0608 13.3243 10.0608C14.1508 10.0608 14.6579 10.1408 15.0933 10.3982C15.5111 10.6208 15.8133 11.0294 15.8133 11.5716C15.8133 12.1045 15.5023 12.6024 14.8263 12.8513V12.8689C15.5111 13.056 16.0174 13.5715 16.0174 14.3443ZM4.92645 13.1449C4.92645 11.3495 6.07263 10.0072 7.84147 10.0072C9.68133 10.0072 10.6854 11.3847 10.6854 13.038C10.6854 15.0025 9.4944 16.1933 7.74379 16.1933C5.96599 16.1933 4.92645 14.8514 4.92645 13.1449ZM18.4707 21.0031H5.52949V17.2252H18.4706L18.4707 21.0031ZM19.4656 13.8914C19.4656 15.5978 18.6476 16.1933 17.3325 16.1933C17.0215 16.1933 16.6125 16.1402 16.3459 16.0506L16.4968 14.9578C16.6837 15.0201 16.9236 15.0643 17.1904 15.0643C17.7591 15.0643 18.1145 14.8067 18.1145 13.8737V10.1053H19.4658L19.4656 13.8914Z" fill="black"/>
<path d="M7.81462 15.1179C8.73027 15.1179 9.2542 14.2472 9.2542 13.0828C9.2542 12.0073 8.73909 11.0827 7.80543 11.0827C6.89054 11.0827 6.35735 11.9538 6.35735 13.1182C6.35732 14.2914 6.90775 15.1179 7.81462 15.1179Z" fill="black"/>
<path d="M14.4527 11.7406C14.4527 11.2874 14.1066 11.0475 13.493 11.0475C13.1997 11.0475 13.0311 11.0651 12.9155 11.0827V12.4784H13.3601C14.0709 12.4783 14.4527 12.185 14.4527 11.7406Z" fill="black"/>
<path d="M13.3774 13.4471H12.9155V15.1354C13.0488 15.1532 13.2089 15.1532 13.4398 15.1532C14.0529 15.1532 14.5954 14.9221 14.5954 14.2913C14.5952 13.687 14.0529 13.4471 13.3774 13.4471Z" fill="black"/>
</svg>
