<svg width="24" height="24" viewBox="0 0 24 24" fill="none" xmlns="http://www.w3.org/2000/svg">
<path d="M7.99781 12.9643C7.99781 12.0248 7.54762 11.2173 6.73255 11.2173C5.93295 11.2173 5.46705 11.9786 5.46705 12.9957C5.46705 14.0207 5.94842 14.7418 6.7404 14.7418C7.53996 14.7422 7.99781 13.9816 7.99781 12.9643Z" fill="black"/>
<path d="M11.7478 11.2328C11.4838 11.2328 11.3131 11.2561 11.2123 11.2798V14.7031C11.3134 14.7265 11.4765 14.7265 11.6241 14.7265C12.6953 14.7342 13.3936 14.1438 13.3936 12.8938C13.4017 11.8073 12.7652 11.2328 11.7478 11.2328Z" fill="black"/>
<path d="M19.7352 9.15398H19.255V6.83645C19.255 6.822 19.2527 6.80743 19.2507 6.79277C19.25 6.70079 19.2207 6.61041 19.1577 6.53877L15.3016 2.13413C15.3005 2.13301 15.2993 2.13261 15.2985 2.13144C15.2756 2.1057 15.2488 2.08435 15.2204 2.06598C15.212 2.06024 15.2036 2.05552 15.1948 2.05065C15.1703 2.03725 15.1442 2.02614 15.1174 2.01812C15.1102 2.01609 15.1036 2.01311 15.0964 2.01122C15.0672 2.00432 15.037 2 15.0063 2H5.52951C5.09676 2 4.7452 2.35203 4.7452 2.78435V9.15373H4.26506C3.646 9.15373 3.14404 9.65547 3.14404 10.2747V16.1043C3.14404 16.7231 3.646 17.2252 4.26506 17.2252H4.74524V21.2157C4.74524 21.648 5.0968 22 5.52955 22H18.4707C18.903 22 19.255 21.648 19.255 21.2157V17.2252H19.7352C20.3541 17.2252 20.8562 16.7231 20.8562 16.1043V10.2749C20.8561 9.65547 20.3541 9.15398 19.7352 9.15398ZM5.52951 2.78435H14.6142V6.79716C14.6142 7.01383 14.79 7.18932 15.0063 7.18932H18.4706V9.15402H5.52951V2.78435ZM14.6517 12.8555C14.6517 13.8574 14.2868 14.5482 13.7817 14.9748C13.2305 15.4329 12.3922 15.6508 11.3674 15.6508C10.754 15.6508 10.3194 15.6117 10.0243 15.5727V10.4332C10.459 10.3636 11.026 10.3247 11.6239 10.3247C12.6171 10.3247 13.2616 10.5031 13.7664 10.8839C14.3098 11.2873 14.6517 11.9318 14.6517 12.8555ZM4.21702 13.0187C4.21702 11.4501 5.21836 10.2781 6.76327 10.2781C8.37039 10.2781 9.24736 11.4818 9.24736 12.9253C9.24736 14.6413 8.20742 15.6814 6.67758 15.6814C5.12483 15.6814 4.21702 14.5096 4.21702 13.0187ZM18.4707 21.0031H5.52951V17.2252H18.4706L18.4707 21.0031ZM18.1068 14.6955C18.4636 14.6955 18.8597 14.618 19.0926 14.5243L19.2712 15.449C19.0539 15.5573 18.5645 15.6736 17.928 15.6736C16.1196 15.6736 15.1873 14.5481 15.1873 13.057C15.1873 11.2718 16.4606 10.2779 18.0444 10.2779C18.6577 10.2779 19.1234 10.402 19.3331 10.5108L19.0922 11.4499C18.8517 11.3494 18.518 11.2561 18.0988 11.2561C17.1594 11.2561 16.4294 11.823 16.4294 12.9875C16.4302 14.0355 17.051 14.6955 18.1068 14.6955Z" fill="black"/>
</svg>
