<svg width="24" height="24" viewBox="0 0 24 24" fill="none" xmlns="http://www.w3.org/2000/svg">
<path d="M5 8V4H16L19 7L19 8M5 18V20H19V18M19 11.6364C19 10.5455 18.25 10 17.5 10C16.75 10 16 10.6273 16 11.5V14.5C16 15.5 16.75 16 17.5 16C18.25 16 19 15.4545 19 14.3636M10.25 16V10L12.15 10C12.6833 10 13.75 10.3 13.75 11.5V14.5C13.75 15 13.43 16 12.15 16H10.25ZM6 16C4.81666 16 4 14.9649 4 13.688V12.312C4 11.0351 4.81666 10 6 10C7.18334 10 8 11.0351 8 12.312V13.688C8 14.9649 7.18334 16 6 16Z" stroke="black" stroke-width="1.5"/>
</svg>
