<svg width="24" height="24" viewBox="0 0 24 24" fill="none" xmlns="http://www.w3.org/2000/svg">
<path d="M8.2248 13.0829C8.2248 12.0824 7.74581 11.2232 6.87773 11.2232C6.02676 11.2232 5.53093 12.0332 5.53093 13.1154C5.53093 14.2063 6.04325 14.9755 6.88634 14.9755C7.73779 14.9755 8.2248 14.1653 8.2248 13.0829Z" fill="black"/>
<path d="M19.7348 9.15401H19.2546V6.83648C19.2546 6.82204 19.2523 6.80748 19.2504 6.79286C19.2496 6.70082 19.2203 6.61047 19.1573 6.53887L15.3013 2.13413C15.3 2.133 15.2989 2.13259 15.2982 2.13146C15.2752 2.10567 15.2484 2.08433 15.22 2.06599C15.2116 2.06026 15.2032 2.05555 15.1944 2.05063C15.1699 2.03728 15.1438 2.02615 15.117 2.01809C15.1097 2.01609 15.1032 2.01313 15.096 2.01123C15.0668 2.0043 15.0366 2 15.006 2H5.52907C5.09634 2 4.74478 2.35204 4.74478 2.78433V9.15368H4.2646C3.64554 9.15368 3.14359 9.65546 3.14359 10.2747V16.1042C3.14359 16.7231 3.64554 17.2252 4.2646 17.2252H4.74478V21.2157C4.74478 21.6481 5.09634 22 5.52907 22H18.4702C18.9026 22 19.2545 21.6481 19.2545 21.2157V17.2252H19.7348C20.3536 17.2252 20.8557 16.7231 20.8557 16.1042V10.2749C20.8557 9.6555 20.3537 9.15401 19.7348 9.15401ZM5.52907 2.78433H14.6138V6.79712C14.6138 7.01376 14.7895 7.18925 15.006 7.18925H18.4703V9.15394H5.52907V2.78433ZM15.3084 12.967C15.3084 14.0328 14.9201 14.7685 14.3825 15.2231C13.7959 15.7105 12.9031 15.9419 11.8126 15.9419C11.1597 15.9419 10.6967 15.9009 10.3826 15.8591V10.3885C10.8452 10.3137 11.4487 10.272 12.0852 10.272C13.1432 10.272 13.8293 10.4624 14.3662 10.8675C14.9443 11.2971 15.3084 11.9826 15.3084 12.967ZM4.1997 13.1405C4.1997 11.4707 5.26596 10.223 6.91042 10.223C8.62141 10.223 9.55518 11.504 9.55518 13.0409C9.55518 14.8671 8.44792 15.9752 6.81944 15.9752C5.16631 15.9752 4.1997 14.7271 4.1997 13.1405ZM18.4703 21.0031H5.52907V17.2252H18.4702L18.4703 21.0031ZM19.5408 11.3461H17.3998V12.6198H19.3997V13.6445H17.3998V15.8841H16.1357V10.3137H19.5408L19.5408 11.3461Z" fill="black"/>
<path d="M12.2171 11.2392C11.9365 11.2392 11.7545 11.2637 11.647 11.2886V14.9339C11.7545 14.9584 11.928 14.9584 12.0849 14.9584C13.2253 14.9668 13.9692 14.3388 13.9692 13.0083C13.9774 11.8514 13.3001 11.2392 12.2171 11.2392Z" fill="black"/>
</svg>
