<svg width="24" height="24" viewBox="0 0 24 24" fill="none" xmlns="http://www.w3.org/2000/svg">
<path d="M19 20V20.75H19.75V20H19ZM5 20H4.25V20.75H5V20ZM5 4V3.25H4.25V4H5ZM16 4L16.5303 3.46967L16.3107 3.25H16V4ZM19 7L19.75 7V6.68934L19.5303 6.46967L19 7ZM12.25 16H11.5V16.75H12.25V16ZM12.25 10L12.25 9.25L11.5 9.25V10H12.25ZM14.15 10V9.25V10ZM18.75 10C18.75 9.58579 18.4142 9.25 18 9.25C17.5858 9.25 17.25 9.58579 17.25 10H18.75ZM17.25 16C17.25 16.4142 17.5858 16.75 18 16.75C18.4142 16.75 18.75 16.4142 18.75 16H17.25ZM19 19.25H5V20.75H19V19.25ZM5 4.75H16V3.25H5V4.75ZM15.4697 4.53033L18.4697 7.53033L19.5303 6.46967L16.5303 3.46967L15.4697 4.53033ZM5.75 8V4H4.25V8H5.75ZM5.75 20V18H4.25V20H5.75ZM18.25 7L18.25 8L19.75 8L19.75 7L18.25 7ZM18.25 18V20H19.75V18H18.25ZM13 16V10H11.5V16H13ZM12.25 10.75L14.15 10.75V9.25L12.25 9.25L12.25 10.75ZM14.15 10.75C14.306 10.75 14.5497 10.7997 14.7304 10.9216C14.871 11.0165 15 11.1655 15 11.5H16.5C16.5 10.6345 16.0957 10.0335 15.5696 9.67836C15.0836 9.35031 14.5273 9.25 14.15 9.25V10.75ZM15 11.5V14.5H16.5V11.5H15ZM15 14.5C15 14.6198 14.9551 14.8245 14.8352 14.9807C14.7422 15.1018 14.5653 15.25 14.15 15.25V16.75C15.0147 16.75 15.6378 16.3982 16.0248 15.8943C16.3849 15.4255 16.5 14.8802 16.5 14.5H15ZM14.15 15.25H12.25V16.75H14.15V15.25ZM9.25 12.312V13.688H10.75V12.312H9.25ZM6.75 13.688V12.312H5.25V13.688H6.75ZM8 15.25C7.34692 15.25 6.75 14.6771 6.75 13.688H5.25C5.25 15.2526 6.2864 16.75 8 16.75V15.25ZM9.25 13.688C9.25 14.6771 8.65308 15.25 8 15.25V16.75C9.7136 16.75 10.75 15.2526 10.75 13.688H9.25ZM8 10.75C8.65308 10.75 9.25 11.3229 9.25 12.312H10.75C10.75 10.7474 9.7136 9.25 8 9.25V10.75ZM8 9.25C6.2864 9.25 5.25 10.7474 5.25 12.312H6.75C6.75 11.3229 7.34692 10.75 8 10.75V9.25ZM17.25 10V16H18.75V10H17.25Z" fill="black"/>
</svg>
