<svg width="24" height="24" viewBox="0 0 24 24" fill="none" xmlns="http://www.w3.org/2000/svg">
<path d="M12.3065 11.2855C12.0311 11.2855 11.8525 11.3104 11.7471 11.3345V14.9111C11.8523 14.9356 12.0225 14.9356 12.1767 14.9356C13.2957 14.9437 14.0256 14.3267 14.0256 13.0213C14.0344 11.8855 13.3688 11.2855 12.3065 11.2855Z" fill="black"/>
<path d="M17.8874 11.2693C17.6362 11.2693 17.4654 11.2938 17.3764 11.3179V12.9316C17.4821 12.9567 17.6117 12.9642 17.7903 12.9642C18.4471 12.9642 18.8529 12.6323 18.8529 12.0722C18.8529 11.5691 18.5036 11.2693 17.8874 11.2693Z" fill="black"/>
<path d="M19.7352 9.15398H19.2549V6.83645C19.2549 6.822 19.2526 6.80743 19.2507 6.79277C19.2499 6.70079 19.2207 6.61041 19.1577 6.53877L15.3016 2.13413C15.3004 2.13301 15.2993 2.13261 15.2985 2.13144C15.2755 2.1057 15.2487 2.08435 15.2204 2.06598C15.212 2.06024 15.2036 2.05552 15.1948 2.05065C15.1702 2.03725 15.1442 2.02614 15.1174 2.01812C15.1101 2.01609 15.1036 2.01311 15.0963 2.01122C15.0672 2.00432 15.037 2 15.0063 2H5.52948C5.09673 2 4.74517 2.35203 4.74517 2.78435V9.15373H4.26503C3.64597 9.15373 3.14401 9.65547 3.14401 10.2747V16.1043C3.14401 16.7231 3.64597 17.2252 4.26503 17.2252H4.74521V21.2157C4.74521 21.648 5.09677 22 5.52952 22H18.4706C18.903 22 19.255 21.648 19.255 21.2157V17.2252H19.7352C20.3541 17.2252 20.8561 16.7231 20.8561 16.1043V10.2749C20.8561 9.65547 20.354 9.15398 19.7352 9.15398ZM5.52948 2.78435H14.6142V6.79716C14.6142 7.01383 14.7899 7.18932 15.0063 7.18932H18.4706V9.15402H5.52948V2.78435ZM15.3401 12.9806C15.3401 14.0274 14.9593 14.7485 14.4315 15.1945C13.8557 15.6726 12.9801 15.9005 11.9093 15.9005C11.2685 15.9005 10.8146 15.8599 10.5064 15.8189V10.4504C10.9608 10.3773 11.5525 10.3367 12.1772 10.3367C13.2153 10.3367 13.8885 10.5232 14.4156 10.9208C14.9832 11.3424 15.3401 12.0155 15.3401 12.9806ZM4.43911 13.1508C4.43911 11.5126 5.48518 10.2877 7.09955 10.2877C8.77838 10.2877 9.69482 11.5449 9.69482 13.0537C9.69482 14.8462 8.60757 15.9323 7.00994 15.9323C5.38819 15.9323 4.43911 14.708 4.43911 13.1508ZM18.4706 21.0031H5.52948V17.2252H18.4706L18.4706 21.0031ZM19.5743 13.3377C19.1527 13.7348 18.5281 13.9133 17.7983 13.9133C17.6362 13.9133 17.4899 13.9052 17.3763 13.8888V15.8438H16.1522V10.4504C16.5328 10.3853 17.0686 10.3367 17.8225 10.3367C18.5853 10.3367 19.1282 10.483 19.4939 10.7747C19.842 11.0504 20.0775 11.5043 20.0775 12.0396C20.0775 12.5748 19.8987 13.0292 19.5743 13.3377Z" fill="black"/>
<path d="M8.38918 13.0939C8.38918 12.1124 7.91878 11.269 7.06747 11.269C6.23193 11.269 5.74547 12.0641 5.74547 13.1264C5.74547 14.1972 6.24841 14.9515 7.07553 14.9515C7.91057 14.9515 8.38918 14.1562 8.38918 13.0939Z" fill="black"/>
</svg>
