<svg width="24" height="24" viewBox="0 0 24 24" fill="none" xmlns="http://www.w3.org/2000/svg">
<path d="M19 20V20.75H19.75V20H19ZM5 20H4.25V20.75H5V20ZM5 4V3.25H4.25V4H5ZM16 4L16.5303 3.46967L16.3107 3.25H16V4ZM19 7L19.75 7V6.68934L19.5303 6.46967L19 7ZM10.25 16H9.5V16.75H10.25V16ZM10.25 10L10.25 9.25L9.5 9.25V10H10.25ZM12.15 10V9.25V10ZM16 10V9.25C15.5858 9.25 15.25 9.58579 15.25 10H16ZM15.25 16C15.25 16.4142 15.5858 16.75 16 16.75C16.4142 16.75 16.75 16.4142 16.75 16H15.25ZM19 19.25H5V20.75H19V19.25ZM5 4.75H16V3.25H5V4.75ZM15.4697 4.53033L18.4697 7.53033L19.5303 6.46967L16.5303 3.46967L15.4697 4.53033ZM5.75 8V4H4.25V8H5.75ZM5.75 20V18H4.25V20H5.75ZM18.25 7L18.25 8L19.75 8L19.75 7L18.25 7ZM18.25 18V20H19.75V18H18.25ZM11 16V10H9.5V16H11ZM10.25 10.75L12.15 10.75V9.25L10.25 9.25L10.25 10.75ZM12.15 10.75C12.306 10.75 12.5497 10.7997 12.7304 10.9216C12.871 11.0165 13 11.1655 13 11.5H14.5C14.5 10.6345 14.0957 10.0335 13.5696 9.67836C13.0836 9.35032 12.5273 9.25 12.15 9.25V10.75ZM13 11.5V14.5H14.5V11.5H13ZM13 14.5C13 14.6198 12.9551 14.8245 12.8352 14.9807C12.7422 15.1018 12.5653 15.25 12.15 15.25V16.75C13.0147 16.75 13.6378 16.3982 14.0248 15.8943C14.3849 15.4255 14.5 14.8802 14.5 14.5H13ZM12.15 15.25H10.25V16.75H12.15V15.25ZM7.25 12.312V13.688H8.75V12.312H7.25ZM4.75 13.688V12.312H3.25V13.688H4.75ZM6 15.25C5.34692 15.25 4.75 14.6771 4.75 13.688H3.25C3.25 15.2526 4.2864 16.75 6 16.75V15.25ZM7.25 13.688C7.25 14.6771 6.65308 15.25 6 15.25V16.75C7.7136 16.75 8.75 15.2526 8.75 13.688H7.25ZM6 10.75C6.65308 10.75 7.25 11.3229 7.25 12.312H8.75C8.75 10.7474 7.7136 9.25 6 9.25V10.75ZM6 9.25C4.2864 9.25 3.25 10.7474 3.25 12.312H4.75C4.75 11.3229 5.34692 10.75 6 10.75V9.25ZM16 14.3525H17.5V12.8525H16V14.3525ZM17.5 14.3525C17.8543 14.3525 18.3918 14.2637 18.8642 13.9369C19.3788 13.5809 19.75 12.9844 19.75 12.1378H18.25C18.25 12.3308 18.2106 12.4505 18.1718 12.5244C18.1328 12.5987 18.0792 12.6561 18.0108 12.7034C17.8582 12.8089 17.6457 12.8525 17.5 12.8525V14.3525ZM19.75 12.1378V11.5332H18.25V12.1378H19.75ZM19.75 11.5332C19.75 10.9176 19.5958 10.3162 19.1639 9.86997C18.7278 9.41939 18.1281 9.25 17.5 9.25V10.75C17.8719 10.75 18.0222 10.8472 18.0861 10.9132C18.1542 10.9836 18.25 11.1488 18.25 11.5332H19.75ZM17.5 9.25H16V10.75H17.5V9.25ZM15.25 13.6025V16H16.75V13.6025H15.25ZM15.25 10V13.6025H16.75V10H15.25Z" fill="black"/>
</svg>
