<svg width="24" height="24" viewBox="0 0 24 24" fill="none" xmlns="http://www.w3.org/2000/svg">
<path d="M12.301 11.2966C12.025 11.2966 11.8463 11.3211 11.7408 11.3452V14.9252C11.8463 14.9497 12.0168 14.9497 12.171 14.9497C13.2913 14.9578 14.0218 14.3408 14.0218 13.0337C14.0299 11.8972 13.3644 11.2966 12.301 11.2966Z" fill="black"/>
<path d="M19.7348 9.15401H19.2546V6.83648C19.2546 6.82204 19.2523 6.80748 19.2504 6.79286C19.2496 6.70082 19.2203 6.61047 19.1573 6.53887L15.3013 2.13413C15.3 2.133 15.2989 2.13259 15.2982 2.13146C15.2752 2.10567 15.2484 2.08433 15.22 2.06599C15.2116 2.06026 15.2032 2.05555 15.1944 2.05063C15.1699 2.03728 15.1438 2.02615 15.117 2.01809C15.1097 2.01609 15.1032 2.01313 15.096 2.01123C15.0668 2.0043 15.0366 2 15.006 2H5.52907C5.09634 2 4.74478 2.35204 4.74478 2.78433V9.15368H4.2646C3.64554 9.15368 3.14359 9.65546 3.14359 10.2747V16.1042C3.14359 16.7231 3.64554 17.2252 4.2646 17.2252H4.74478V21.2157C4.74478 21.6481 5.09634 22 5.52907 22H18.4702C18.9026 22 19.2545 21.6481 19.2545 21.2157V17.2252H19.7348C20.3536 17.2252 20.8557 16.7231 20.8557 16.1042V10.2749C20.8557 9.6555 20.3537 9.15401 19.7348 9.15401ZM5.52907 2.78433H14.6138V6.79712C14.6138 7.01376 14.7895 7.18925 15.006 7.18925H18.4703V9.15394H5.52907V2.78433ZM15.3372 12.9931C15.3372 14.0407 14.9558 14.7631 14.428 15.209C13.8519 15.6884 12.9751 15.9158 11.9032 15.9158C11.262 15.9158 10.8073 15.8753 10.4987 15.8343V10.4602C10.9532 10.387 11.5461 10.3464 12.1711 10.3464C13.21 10.3464 13.8838 10.5333 14.4119 10.9312C14.9801 11.3534 15.3372 12.0268 15.3372 12.9931ZM4.42553 13.1635C4.42553 11.5234 5.47293 10.2975 7.0885 10.2975C8.76921 10.2975 9.68653 11.5563 9.68653 13.0662C9.68653 14.8604 8.59854 15.948 6.99946 15.948C5.37561 15.948 4.42553 14.7225 4.42553 13.1635ZM18.4703 21.0031H5.52907V17.2252H18.4702L18.4703 21.0031ZM19.7138 11.4261H18.2202V15.8591H16.9782V11.4261H15.5088V10.387H19.7137L19.7138 11.4261Z" fill="black"/>
<path d="M8.37973 13.1067C8.37973 12.1244 7.909 11.2801 7.05638 11.2801C6.22029 11.2801 5.73303 12.0765 5.73303 13.1393C5.73303 14.2108 6.23634 14.9656 7.06444 14.9656C7.90072 14.9656 8.37973 14.1698 8.37973 13.1067Z" fill="black"/>
</svg>
