<svg width="24" height="24" viewBox="0 0 24 24" fill="none" xmlns="http://www.w3.org/2000/svg">
<path d="M19 20V20.75H19.75V20H19ZM5 20H4.25V20.75H5V20ZM5 4V3.25H4.25V4H5ZM16 4L16.5303 3.46967L16.3107 3.25H16V4ZM19 7L19.75 7V6.68934L19.5303 6.46967L19 7ZM10.25 16H9.5V16.75H10.25V16ZM10.25 10L10.25 9.25L9.5 9.25V10H10.25ZM12.15 10V9.25V10ZM17.003 16C17.003 16.4142 17.3388 16.75 17.753 16.75C18.1673 16.75 18.503 16.4142 18.503 16H17.003ZM15.753 9.25C15.3388 9.25 15.003 9.58579 15.003 10C15.003 10.4142 15.3388 10.75 15.753 10.75V9.25ZM19.753 10.75C20.1673 10.75 20.503 10.4142 20.503 10C20.503 9.58579 20.1673 9.25 19.753 9.25V10.75ZM19 19.25H5V20.75H19V19.25ZM5 4.75H16V3.25H5V4.75ZM15.4697 4.53033L18.4697 7.53033L19.5303 6.46967L16.5303 3.46967L15.4697 4.53033ZM5.75 8V4H4.25V8H5.75ZM5.75 20V18H4.25V20H5.75ZM18.25 7L18.25 8L19.75 8L19.75 7L18.25 7ZM18.25 18V20H19.75V18H18.25ZM11 16V10H9.5V16H11ZM10.25 10.75L12.15 10.75V9.25L10.25 9.25L10.25 10.75ZM12.15 10.75C12.306 10.75 12.5497 10.7997 12.7304 10.9216C12.871 11.0165 13 11.1655 13 11.5H14.5C14.5 10.6345 14.0957 10.0335 13.5696 9.67836C13.0836 9.35032 12.5273 9.25 12.15 9.25V10.75ZM13 11.5V14.5H14.5V11.5H13ZM13 14.5C13 14.6198 12.9551 14.8245 12.8352 14.9807C12.7422 15.1018 12.5653 15.25 12.15 15.25V16.75C13.0147 16.75 13.6378 16.3982 14.0248 15.8943C14.3849 15.4255 14.5 14.8802 14.5 14.5H13ZM12.15 15.25H10.25V16.75H12.15V15.25ZM7.25 12.312V13.688H8.75V12.312H7.25ZM4.75 13.688V12.312H3.25V13.688H4.75ZM6 15.25C5.34692 15.25 4.75 14.6771 4.75 13.688H3.25C3.25 15.2526 4.2864 16.75 6 16.75V15.25ZM7.25 13.688C7.25 14.6771 6.65308 15.25 6 15.25V16.75C7.7136 16.75 8.75 15.2526 8.75 13.688H7.25ZM6 10.75C6.65308 10.75 7.25 11.3229 7.25 12.312H8.75C8.75 10.7474 7.7136 9.25 6 9.25V10.75ZM6 9.25C4.2864 9.25 3.25 10.7474 3.25 12.312H4.75C4.75 11.3229 5.34692 10.75 6 10.75V9.25ZM17.003 10V16H18.503V10H17.003ZM15.753 10.75H17.753V9.25H15.753V10.75ZM17.753 10.75H19.753V9.25H17.753V10.75Z" fill="black"/>
</svg>
