<svg width="24" height="24" viewBox="0 0 24 24" fill="none" xmlns="http://www.w3.org/2000/svg">
<path d="M11.7333 11.2329C11.4735 11.2329 11.3053 11.2559 11.2059 11.2793V14.6486C11.3053 14.672 11.4657 14.672 11.6108 14.672C12.6652 14.6792 13.3534 14.0987 13.3534 12.8686C13.3606 11.7987 12.7341 11.2329 11.7333 11.2329Z" fill="black"/>
<path d="M19.7354 9.15399H19.2551V6.83648C19.2551 6.82201 19.2526 6.80745 19.2511 6.7928C19.2504 6.70079 19.2209 6.61041 19.1579 6.53881L15.3016 2.13415C15.3004 2.13299 15.2993 2.13261 15.2985 2.13135C15.2756 2.10572 15.2487 2.08434 15.2204 2.06588C15.2119 2.06022 15.2035 2.05553 15.1947 2.05066C15.1702 2.03726 15.1442 2.02616 15.1174 2.01811C15.1101 2.01613 15.1036 2.01314 15.0963 2.01123C15.0672 2.00431 15.0369 2 15.0063 2H5.52942C5.09669 2 4.74512 2.35192 4.74512 2.78431V9.15377H4.26486C3.6459 9.15377 3.14392 9.65547 3.14392 10.2747V16.1042C3.14392 16.7229 3.6459 17.2252 4.26486 17.2252H4.74512V21.2157C4.74512 21.6481 5.09669 22 5.52942 22H18.4706C18.903 22 19.2549 21.6481 19.2549 21.2157V17.2252H19.7351C20.354 17.2252 20.8561 16.7231 20.8561 16.1042V10.2749C20.8561 9.65547 20.3544 9.15399 19.7354 9.15399ZM5.52942 2.78431H14.6141V6.79701C14.6141 7.01377 14.7899 7.18915 15.0063 7.18915H18.4706V9.15396H5.52942V2.78431ZM14.5908 12.8304C14.5908 13.8156 14.2319 14.4958 13.7352 14.9161C13.1924 15.3672 12.3673 15.5811 11.3584 15.5811C10.7549 15.5811 10.3268 15.5436 10.0365 15.5047V10.4465C10.4645 10.3775 11.0222 10.3393 11.6107 10.3393C12.5888 10.3393 13.2229 10.515 13.7199 10.8896C14.2547 11.2871 14.5908 11.9208 14.5908 12.8304ZM4.32059 12.9907C4.32059 11.4471 5.30587 10.2927 6.82691 10.2927C8.40864 10.2927 9.27194 11.4776 9.27194 12.8992C9.27194 14.5873 8.24845 15.6114 6.7431 15.6114C5.21455 15.6114 4.32059 14.4581 4.32059 12.9907ZM18.4706 21.0031H5.52942V17.2252H18.4706V21.0031ZM17.8162 15.5277L17.3504 14.5952C17.1593 14.2364 17.0368 13.9686 16.8918 13.6705H16.8767C16.7697 13.9686 16.6397 14.2364 16.4792 14.5952L16.0512 15.5277H14.7216L16.2119 12.922L14.7754 10.3775H16.1127L16.5631 11.3177C16.7159 11.6307 16.8311 11.883 16.9533 12.1731H16.9683C17.0908 11.8446 17.1898 11.6155 17.32 11.3177L17.7557 10.3775H19.0851L17.6327 12.8916L19.1611 15.5275L17.8162 15.5277Z" fill="black"/>
<path d="M8.04144 12.9376C8.04144 12.0125 7.59835 11.2183 6.79574 11.2183C6.00885 11.2183 5.55004 11.9673 5.55004 12.9684C5.55004 13.9769 6.02398 14.6869 6.80322 14.6869C7.59087 14.6869 8.04144 13.938 8.04144 12.9376Z" fill="black"/>
</svg>
