<svg width="24" height="24" viewBox="0 0 24 24" fill="none" xmlns="http://www.w3.org/2000/svg">
<path d="M19 20V20.75H19.75V20H19ZM5 20H4.25V20.75H5V20ZM5 4V3.25H4.25V4H5ZM16 4L16.5303 3.46967L16.3107 3.25H16V4ZM19 7L19.75 7V6.68934L19.5303 6.46967L19 7ZM10.25 16H9.5V16.75H10.25V16ZM10.25 10L10.25 9.25L9.5 9.25V10H10.25ZM12.15 10V9.25V10ZM16.6708 9.66459C16.4856 9.29411 16.0351 9.14394 15.6646 9.32918C15.2941 9.51442 15.1439 9.96493 15.3292 10.3354L16.6708 9.66459ZM18.3292 16.3354C18.5144 16.7059 18.9649 16.8561 19.3354 16.6708C19.7059 16.4856 19.8561 16.0351 19.6708 15.6646L18.3292 16.3354ZM19.6708 10.3354C19.8561 9.96493 19.7059 9.51442 19.3354 9.32918C18.9649 9.14394 18.5144 9.29411 18.3292 9.66459L19.6708 10.3354ZM15.3292 15.6646C15.1439 16.0351 15.2941 16.4856 15.6646 16.6708C16.0351 16.8561 16.4856 16.7059 16.6708 16.3354L15.3292 15.6646ZM19 19.25H5V20.75H19V19.25ZM5 4.75H16V3.25H5V4.75ZM15.4697 4.53033L18.4697 7.53033L19.5303 6.46967L16.5303 3.46967L15.4697 4.53033ZM5.75 8V4H4.25V8H5.75ZM5.75 20V18H4.25V20H5.75ZM18.25 7L18.25 8L19.75 8L19.75 7L18.25 7ZM18.25 18V20H19.75V18H18.25ZM7.25 12.312V13.688H8.75V12.312H7.25ZM4.75 13.688V12.312H3.25V13.688H4.75ZM6 15.25C5.34692 15.25 4.75 14.6771 4.75 13.688H3.25C3.25 15.2526 4.2864 16.75 6 16.75V15.25ZM7.25 13.688C7.25 14.6771 6.65308 15.25 6 15.25V16.75C7.7136 16.75 8.75 15.2526 8.75 13.688H7.25ZM6 10.75C6.65308 10.75 7.25 11.3229 7.25 12.312H8.75C8.75 10.7474 7.7136 9.25 6 9.25V10.75ZM6 9.25C4.2864 9.25 3.25 10.7474 3.25 12.312H4.75C4.75 11.3229 5.34692 10.75 6 10.75V9.25ZM11 16V10H9.5V16H11ZM10.25 10.75L12.15 10.75V9.25L10.25 9.25L10.25 10.75ZM12.15 10.75C12.306 10.75 12.5497 10.7997 12.7304 10.9216C12.871 11.0165 13 11.1655 13 11.5H14.5C14.5 10.6345 14.0957 10.0335 13.5696 9.67836C13.0836 9.35032 12.5273 9.25 12.15 9.25V10.75ZM13 11.5V14.5H14.5V11.5H13ZM13 14.5C13 14.6198 12.9551 14.8245 12.8352 14.9807C12.7422 15.1018 12.5653 15.25 12.15 15.25V16.75C13.0147 16.75 13.6378 16.3982 14.0248 15.8943C14.3849 15.4255 14.5 14.8802 14.5 14.5H13ZM12.15 15.25H10.25V16.75H12.15V15.25ZM15.3292 10.3354L16.8292 13.3354L18.1708 12.6646L16.6708 9.66459L15.3292 10.3354ZM16.8292 13.3354L18.3292 16.3354L19.6708 15.6646L18.1708 12.6646L16.8292 13.3354ZM18.3292 9.66459L16.8292 12.6646L18.1708 13.3354L19.6708 10.3354L18.3292 9.66459ZM16.8292 12.6646L15.3292 15.6646L16.6708 16.3354L18.1708 13.3354L16.8292 12.6646Z" fill="black"/>
</svg>
