<svg width="24" height="24" viewBox="0 0 24 24" fill="none" xmlns="http://www.w3.org/2000/svg">
<path d="M8.13735 13.2764C8.13735 12.3402 7.68851 11.5351 6.87617 11.5351C6.07951 11.5351 5.61499 12.2933 5.61499 13.3071C5.61499 14.3284 6.09447 15.048 6.88365 15.048C7.68085 15.0482 8.13735 14.2897 8.13735 13.2764Z" fill="black"/>
<path d="M19.7352 9.15391H19.2549V6.8367C19.2549 6.82214 19.2526 6.80769 19.2507 6.79295C19.25 6.70094 19.2207 6.61056 19.1577 6.53906L15.3016 2.13402C15.3004 2.1329 15.2993 2.1325 15.2985 2.13137C15.2755 2.1057 15.2487 2.08424 15.2204 2.06587C15.212 2.06013 15.2036 2.05545 15.1948 2.05054C15.1702 2.03725 15.1442 2.02603 15.1174 2.01801C15.1101 2.01609 15.1036 2.01311 15.0963 2.01111C15.0672 2.00432 15.037 2 15.0063 2H5.52949C5.09674 2 4.74518 2.35196 4.74518 2.78435V9.15373H4.26505C3.64599 9.15373 3.14403 9.65547 3.14403 10.2746V16.104C3.14403 16.7229 3.64599 17.2252 4.26505 17.2252H4.74522V21.2157C4.74522 21.648 5.09678 22 5.52953 22H18.4707C18.903 22 19.255 21.648 19.255 21.2157V17.2252H19.7352C20.3541 17.2252 20.8562 16.7231 20.8562 16.1043V10.2749C20.8561 9.65569 20.3541 9.15391 19.7352 9.15391ZM5.52949 2.78449H14.6142V6.7972C14.6142 7.01386 14.79 7.18935 15.0063 7.18935H18.4706V9.15405H5.52949V2.78449ZM12.7966 15.0015C13.0672 15.0015 13.2838 14.971 13.3769 14.9241V13.8331H12.5721V12.9119H14.5144V15.6592C14.1505 15.7833 13.4617 15.9534 12.7727 15.9534C11.8209 15.9534 11.1327 15.7136 10.6524 15.2491C10.1731 14.8003 9.90958 14.1192 9.91761 13.3534C9.92498 11.62 11.1868 10.6295 12.8966 10.6295C13.5698 10.6295 14.0884 10.7609 14.3434 10.8851L14.0961 11.829C13.8096 11.705 13.4538 11.6045 12.8811 11.6045C11.8986 11.6045 11.1555 12.1616 11.1555 13.2916C11.1558 14.3671 11.8292 15.0015 12.7966 15.0015ZM4.36875 13.3308C4.36875 11.7671 5.36704 10.5986 6.90705 10.5986C8.50861 10.5986 9.38329 11.7984 9.38329 13.2374C9.38329 14.9473 8.34641 15.9844 6.82194 15.9844C5.27409 15.9844 4.36875 14.8159 4.36875 13.3308ZM18.4707 21.0033H5.52949V17.2252H18.4706L18.4707 21.0033ZM19.792 15.6592C19.4284 15.7833 18.7397 15.9534 18.0509 15.9534C17.0992 15.9534 16.4107 15.7136 15.9308 15.2491C15.4506 14.8003 15.1882 14.1192 15.1955 13.3534C15.2032 11.62 16.4646 10.6295 18.1748 10.6295C18.8479 10.6295 19.3666 10.7609 19.622 10.8851L19.374 11.829C19.0879 11.705 18.732 11.6045 18.1591 11.6045C17.1766 11.6045 16.4336 12.1616 16.4336 13.2916C16.4336 14.3667 17.1069 15.0015 18.0743 15.0015C18.3448 15.0015 18.5618 14.971 18.6545 14.9241V13.8331H17.8499V12.9119H19.7919L19.792 15.6592Z" fill="black"/>
</svg>
