<svg width="24" height="24" viewBox="0 0 24 24" fill="none" xmlns="http://www.w3.org/2000/svg">
<path d="M19.7352 9.15391H19.2549V6.8367C19.2549 6.82214 19.2526 6.80769 19.2507 6.79295C19.25 6.70094 19.2207 6.61056 19.1577 6.53906L15.3016 2.13402C15.3004 2.1329 15.2993 2.1325 15.2985 2.13137C15.2755 2.1057 15.2487 2.08424 15.2204 2.06587C15.212 2.06013 15.2036 2.05545 15.1948 2.05054C15.1702 2.03725 15.1442 2.02603 15.1174 2.01801C15.1101 2.01609 15.1036 2.01311 15.0963 2.01111C15.0672 2.00432 15.037 2 15.0063 2H5.52949C5.09674 2 4.74518 2.35196 4.74518 2.78435V9.15373H4.26505C3.64599 9.15373 3.14403 9.65547 3.14403 10.2746V16.104C3.14403 16.7229 3.64599 17.2252 4.26505 17.2252H4.74522V21.2157C4.74522 21.648 5.09678 22 5.52953 22H18.4707C18.903 22 19.255 21.648 19.255 21.2157V17.2252H19.7352C20.3541 17.2252 20.8562 16.7231 20.8562 16.1043V10.2749C20.8561 9.65569 20.3541 9.15391 19.7352 9.15391ZM5.52949 2.78449H14.6142V6.7972C14.6142 7.01386 14.79 7.18935 15.0063 7.18935H18.4706V9.15405H5.52949V2.78449ZM10.6738 11.4172V10.3051H15.1744V11.4172H13.5756V16.1615H12.2467V11.4172H10.6738ZM4.86054 13.2766C4.86054 11.5213 5.98109 10.2094 7.71046 10.2094C9.50897 10.2094 10.4905 11.5564 10.4905 13.1726C10.4905 15.0928 9.32654 16.2568 7.61482 16.2568C5.87637 16.2568 4.86054 14.9454 4.86054 13.2766ZM18.4707 21.0033H5.52949V17.2252H18.4706L18.4707 21.0033ZM19.4587 11.3914H17.2084V12.7294H19.3109V13.8067H17.2084V16.1615H15.8787V10.3053H19.4587V11.3914Z" fill="black"/>
<path d="M7.6841 15.2054C8.5788 15.2054 9.09071 14.3539 9.09071 13.2159C9.09071 12.1645 8.58762 11.2608 7.67528 11.2608C6.78036 11.2608 6.25822 12.1126 6.25822 13.2508C6.2584 14.3978 6.79761 15.2054 7.6841 15.2054Z" fill="black"/>
</svg>
