<svg width="24" height="24" viewBox="0 0 24 24" fill="none" xmlns="http://www.w3.org/2000/svg">
<path d="M19 20V20.75H19.75V20H19ZM5 20H4.25V20.75H5V20ZM5 4V3.25H4.25V4H5ZM16 4L16.5303 3.46967L16.3107 3.25H16V4ZM19 7L19.75 7V6.68934L19.5303 6.46967L19 7ZM16 10V9.25H15.25V10H16ZM15.25 16C15.25 16.4142 15.5858 16.75 16 16.75C16.4142 16.75 16.75 16.4142 16.75 16H15.25ZM19 10.75C19.4142 10.75 19.75 10.4142 19.75 10C19.75 9.58578 19.4142 9.25 19 9.25V10.75ZM18.5 13.75C18.9142 13.75 19.25 13.4142 19.25 13C19.25 12.5858 18.9142 12.25 18.5 12.25V13.75ZM10.9077 16C10.9077 16.4142 11.2435 16.75 11.6577 16.75C12.072 16.75 12.4077 16.4142 12.4077 16H10.9077ZM9.65775 9.25C9.24353 9.25 8.90775 9.58579 8.90775 10C8.90775 10.4142 9.24353 10.75 9.65775 10.75V9.25ZM13.6577 10.75C14.072 10.75 14.4077 10.4142 14.4077 10C14.4077 9.58579 14.072 9.25 13.6577 9.25V10.75ZM19 19.25H5V20.75H19V19.25ZM5 4.75H16V3.25H5V4.75ZM15.4697 4.53033L18.4697 7.53033L19.5303 6.46967L16.5303 3.46967L15.4697 4.53033ZM5.75 8V4H4.25V8H5.75ZM5.75 20V18H4.25V20H5.75ZM18.25 7L18.25 8L19.75 8L19.75 7L18.25 7ZM18.25 18V20H19.75V18H18.25ZM7.25 12.312V13.688H8.75V12.312H7.25ZM4.75 13.688V12.312H3.25V13.688H4.75ZM6 15.25C5.34692 15.25 4.75 14.6771 4.75 13.688H3.25C3.25 15.2526 4.2864 16.75 6 16.75V15.25ZM7.25 13.688C7.25 14.6771 6.65308 15.25 6 15.25V16.75C7.7136 16.75 8.75 15.2526 8.75 13.688H7.25ZM6 10.75C6.65308 10.75 7.25 11.3229 7.25 12.312H8.75C8.75 10.7474 7.7136 9.25 6 9.25V10.75ZM6 9.25C4.2864 9.25 3.25 10.7474 3.25 12.312H4.75C4.75 11.3229 5.34692 10.75 6 10.75V9.25ZM15.25 10V13H16.75V10H15.25ZM15.25 13V16H16.75V13H15.25ZM16 10.75H19V9.25H16V10.75ZM16 13.75H18.5V12.25H16V13.75ZM10.9077 10V16H12.4077V10H10.9077ZM9.65775 10.75H11.6577V9.25H9.65775V10.75ZM11.6577 10.75H13.6577V9.25H11.6577V10.75Z" fill="black"/>
</svg>
