<svg width="24" height="24" viewBox="0 0 24 24" fill="none" xmlns="http://www.w3.org/2000/svg">
<path d="M19 20V20.75H19.75V20H19ZM5 20H4.25V20.75H5V20ZM5 4V3.25H4.25V4H5ZM16 4L16.5303 3.46967L16.3107 3.25H16V4ZM19 7H19.75V6.68934L19.5303 6.46967L19 7ZM11.7491 10.4374V11.1874V10.4374ZM10.3334 11.8073H11.0834V11.8072L10.3334 11.8073ZM13.2501 13.4422H14.0001V12.6922H13.2501V13.4422ZM12.4732 12.6922C12.059 12.6922 11.7232 13.0279 11.7232 13.4422C11.7232 13.8564 12.059 14.1922 12.4732 14.1922V12.6922ZM15.3334 10.4374V9.68738H14.5834V10.4374H15.3334ZM15.3334 15.4374H14.5834V16.1874H15.3334V15.4374ZM17.8334 11.1874C18.2476 11.1874 18.5834 10.8516 18.5834 10.4374C18.5834 10.0232 18.2476 9.68738 17.8334 9.68738V11.1874ZM17.4167 13.6874C17.8309 13.6874 18.1667 13.3516 18.1667 12.9374C18.1667 12.5232 17.8309 12.1874 17.4167 12.1874V13.6874ZM17.8334 16.1874C18.2476 16.1874 18.5834 15.8516 18.5834 15.4374C18.5834 15.0232 18.2476 14.6874 17.8334 14.6874V16.1874ZM1.5 10.4374V9.68738C1.08579 9.68738 0.75 10.0232 0.75 10.4374H1.5ZM0.75 15.4374C0.75 15.8516 1.08579 16.1874 1.5 16.1874C1.91421 16.1874 2.25 15.8516 2.25 15.4374H0.75ZM21.777 11.1961C22.1912 11.1961 22.527 10.8603 22.527 10.4461C22.527 10.0319 22.1912 9.69609 21.777 9.69609V11.1961ZM20.7424 10.4461L20.6887 9.69802L20.7424 10.4461ZM19.7521 12.4094L20.3243 11.9244L19.7521 12.4094ZM21.464 13.2407L21.0561 13.8701L21.464 13.2407ZM20.7424 15.4374V14.6874V15.4374ZM19.6435 14.6874C19.2293 14.6874 18.8935 15.0232 18.8935 15.4374C18.8935 15.8516 19.2293 16.1874 19.6435 16.1874V14.6874ZM4.68682 15.2647C4.59145 15.6678 4.8409 16.0719 5.24399 16.1672C5.64707 16.2626 6.05115 16.0131 6.14652 15.6101L4.68682 15.2647ZM5.76482 13.9658L5.03807 13.7801L5.03497 13.7932L5.76482 13.9658ZM6.66667 10.4374V9.68738C6.32398 9.68738 6.02488 9.91965 5.94003 10.2517L6.66667 10.4374ZM7.5 10.4374L8.22792 10.2567C8.14491 9.92224 7.84463 9.68738 7.5 9.68738V10.4374ZM8.02315 15.6223C8.12526 16.0237 8.53346 16.2663 8.93489 16.1642C9.33632 16.0621 9.57896 15.6539 9.47685 15.2525L8.02315 15.6223ZM12.4678 11.6525C12.5162 12.0639 12.8889 12.3582 13.3003 12.3098C13.7117 12.2614 14.0059 11.8887 13.9575 11.4773L12.4678 11.6525ZM12.8556 10.7839L13.3759 10.2437L12.8556 10.7839ZM19 19.25H5V20.75H19V19.25ZM5 4.75H16V3.25H5V4.75ZM15.4697 4.53033L18.4697 7.53033L19.5303 6.46967L16.5303 3.46967L15.4697 4.53033ZM5.75 8V4H4.25V8H5.75ZM5.75 20V18H4.25V20H5.75ZM18.25 7V8H19.75V7H18.25ZM18.25 18V20H19.75V18H18.25ZM11.7491 9.68738C10.9544 9.68738 10.3872 10.0535 10.0397 10.5129C9.7179 10.9383 9.58336 11.4411 9.58339 11.8073L11.0834 11.8072C11.0834 11.7548 11.1189 11.5727 11.236 11.4178C11.3275 11.2969 11.4682 11.1874 11.7491 11.1874V9.68738ZM9.58339 11.8073V13.9658H11.0834V11.8073H9.58339ZM9.58339 13.9658C9.58339 15.1795 10.4648 16.1874 11.7491 16.1874V14.6874C11.3666 14.6874 11.0834 14.4264 11.0834 13.9658H9.58339ZM14.0001 14.0904V13.4422H12.5001V14.0904H14.0001ZM13.2501 12.6922H12.4732V14.1922H13.2501V12.6922ZM11.7491 16.1874C12.2859 16.1874 12.8466 16.0484 13.2881 15.686C13.7503 15.3064 14.0001 14.7475 14.0001 14.0904H12.5001C12.5001 14.3464 12.416 14.4611 12.3361 14.5267C12.2354 14.6094 12.0456 14.6874 11.7491 14.6874V16.1874ZM14.5834 10.4374V12.9374H16.0834V10.4374H14.5834ZM14.5834 12.9374V15.4374H16.0834V12.9374H14.5834ZM15.3334 11.1874H17.8334V9.68738H15.3334V11.1874ZM15.3334 13.6874H17.4167V12.1874H15.3334V13.6874ZM15.3334 16.1874H17.8334V14.6874H15.3334V16.1874ZM1.5 14.1895H2.75V12.6895H1.5V14.1895ZM2.75 14.1895C3.06263 14.1895 3.53763 14.1117 3.95794 13.821C4.42046 13.501 4.75 12.9655 4.75 12.2189H3.25C3.25 12.3619 3.22103 12.4413 3.19915 12.483C3.17711 12.525 3.14687 12.5581 3.10456 12.5874C3.00403 12.6569 2.85404 12.6895 2.75 12.6895V14.1895ZM4.75 12.2189V11.715H3.25V12.2189H4.75ZM4.75 11.715C4.75 11.1827 4.61664 10.6453 4.22641 10.2421C3.83196 9.83456 3.29479 9.68738 2.75 9.68738V11.1874C3.03854 11.1874 3.12637 11.2624 3.14859 11.2853C3.17503 11.3126 3.25 11.4139 3.25 11.715H4.75ZM2.75 9.68738H1.5V11.1874H2.75V9.68738ZM0.75 13.4395V15.4374H2.25V13.4395H0.75ZM0.75 10.4374V13.4395H2.25V10.4374H0.75ZM21.777 9.69609C21.1911 9.69609 21.0097 9.6912 20.944 9.68912C20.9252 9.68852 20.8726 9.68583 20.8148 9.68883C20.7895 9.69014 20.7311 9.69498 20.6887 9.69802L20.7961 11.1942C20.8329 11.1915 20.8583 11.1895 20.8758 11.1882C20.897 11.1865 20.8959 11.1866 20.8924 11.1868C20.8701 11.188 20.8381 11.1865 20.8965 11.1884C20.9852 11.1912 21.1846 11.1961 21.777 11.1961V9.69609ZM20.6887 9.69802C19.7389 9.76621 19.1041 10.3009 18.86 11.0056C18.6399 11.6407 18.7531 12.3906 19.18 12.8943L20.3243 11.9244C20.2711 11.8617 20.2146 11.6777 20.2773 11.4966C20.3031 11.4222 20.3457 11.3611 20.4088 11.3138C20.4713 11.267 20.5871 11.2092 20.7961 11.1942L20.6887 9.69802ZM19.18 12.8943C19.5629 13.3461 19.982 13.49 20.3134 13.5838C20.6242 13.6717 20.8098 13.7105 21.0561 13.8701L21.8719 12.6113C21.3966 12.3033 20.9663 12.2096 20.7217 12.1404C20.4975 12.077 20.4214 12.039 20.3243 11.9244L19.18 12.8943ZM21.0561 13.8701C21.1989 13.9626 21.2862 14.1715 21.2365 14.3801C21.2147 14.4718 21.1699 14.5406 21.1111 14.5872C21.0559 14.631 20.9481 14.6874 20.7424 14.6874V16.1874C21.8011 16.1874 22.5021 15.5403 22.6957 14.7277C22.8735 13.9812 22.6132 13.0918 21.8719 12.6113L21.0561 13.8701ZM20.7424 14.6874L19.6435 14.6874V16.1874L20.7424 16.1874V14.6874ZM6.14652 15.6101L6.49468 14.1385L5.03497 13.7932L4.68682 15.2647L6.14652 15.6101ZM6.49147 14.1516L7.39331 10.6231L5.94003 10.2517L5.03818 13.7801L6.49147 14.1516ZM6.66667 11.1874H7.5V9.68738H6.66667V11.1874ZM6.77208 10.618L7.64777 14.1465L9.1036 13.7852L8.22792 10.2567L6.77208 10.618ZM7.64883 14.1507L8.02315 15.6223L9.47685 15.2525L9.10254 13.7809L7.64883 14.1507ZM5.76482 14.7158H8.37569V13.2158H5.76482V14.7158ZM13.9575 11.4773C13.9197 11.1552 13.7645 10.6179 13.3759 10.2437L12.3353 11.3241C12.3479 11.3362 12.3804 11.3773 12.4137 11.4572C12.4459 11.5344 12.4628 11.6096 12.4678 11.6525L13.9575 11.4773ZM13.3759 10.2437C12.8352 9.72287 12.2567 9.68738 11.7491 9.68738V11.1874C11.9731 11.1874 12.0846 11.1984 12.1611 11.2189C12.2145 11.2333 12.2639 11.2553 12.3353 11.3241L13.3759 10.2437Z" fill="black"/>
</svg>
