<svg width="24" height="24" viewBox="0 0 24 24" fill="none" xmlns="http://www.w3.org/2000/svg">
<path d="M8.90143 12.7102C8.83556 12.4904 8.76979 12.2154 8.71471 11.9959H8.70391C8.64865 12.2154 8.5935 12.4957 8.53375 12.7102L8.31354 13.4964H9.13252L8.90143 12.7102Z" fill="black"/>
<path d="M19.7348 9.15401H19.2546V6.83648C19.2546 6.82204 19.2523 6.80748 19.2504 6.79286C19.2496 6.70082 19.2203 6.61047 19.1573 6.53887L15.3013 2.13413C15.3 2.133 15.2989 2.13259 15.2982 2.13146C15.2752 2.10567 15.2484 2.08433 15.22 2.06599C15.2116 2.06026 15.2032 2.05555 15.1944 2.05063C15.1699 2.03728 15.1438 2.02615 15.117 2.01809C15.1097 2.01609 15.1032 2.01313 15.096 2.01123C15.0668 2.0043 15.0366 2 15.006 2H5.52907C5.09634 2 4.74478 2.35204 4.74478 2.78433V9.15368H4.2646C3.64554 9.15368 3.14359 9.65546 3.14359 10.2747V16.1042C3.14359 16.7231 3.64554 17.2252 4.2646 17.2252H4.74478V21.2157C4.74478 21.6481 5.09634 22 5.52907 22H18.4702C18.9026 22 19.2545 21.6481 19.2545 21.2157V17.2252H19.7348C20.3536 17.2252 20.8557 16.7231 20.8557 16.1042V10.2749C20.8557 9.6555 20.3537 9.15401 19.7348 9.15401ZM5.52907 2.78433H14.6138V6.79712C14.6138 7.01376 14.7895 7.18925 15.006 7.18925H18.4703V9.15394H5.52907V2.78433ZM16.7507 12.8257V13.507H15.3879V14.3862H16.9102V15.0737H14.5473V11.3694H16.8335V12.0565H15.3879V12.8261L16.7507 12.8257ZM12.6725 14.4357C12.8646 14.4357 13.0185 14.4138 13.0846 14.3809V13.6058H12.5132V12.9516H13.8926V14.9032C13.6343 14.9909 13.1451 15.112 12.6561 15.112C11.9798 15.112 11.4905 14.9415 11.15 14.6118C10.8091 14.2932 10.622 13.8095 10.6276 13.2649C10.6332 12.0341 11.5291 11.3307 12.7436 11.3307C13.2217 11.3307 13.5897 11.4241 13.7713 11.5122L13.5955 12.1827C13.3921 12.0946 13.1397 12.0231 12.7329 12.0231C12.035 12.0231 11.5076 12.4193 11.5076 13.2213C11.5074 13.985 11.9856 14.4357 12.6725 14.4357ZM10.4404 15.0737H9.53909L9.25282 14.1228H8.19258L7.92853 15.0737H7.06005L8.19236 11.3693H9.2912L10.4404 15.0737ZM5.29558 13.7486V15.0736H4.46577V11.4186C4.72362 11.3745 5.08675 11.3415 5.59772 11.3415C6.11438 11.3415 6.48287 11.4404 6.73004 11.6384C6.96634 11.8252 7.12519 12.1333 7.12519 12.4955C7.12519 12.8586 7.00453 13.1665 6.78501 13.3752C6.49929 13.6444 6.07593 13.7649 5.58127 13.7649C5.47125 13.7651 5.37226 13.7601 5.29558 13.7486ZM18.4703 21.0031H5.52907V17.2252H18.4702L18.4703 21.0031ZM18.3893 15.1284C17.9662 15.1284 17.5489 15.0185 17.3397 14.9033L17.5098 14.2105C17.7352 14.326 18.0811 14.4416 18.4385 14.4416C18.8234 14.4416 19.0265 14.2821 19.0265 14.0407C19.0265 13.8095 18.8509 13.6774 18.4059 13.5183C17.7903 13.3036 17.3888 12.9634 17.3888 12.4246C17.3888 11.7922 17.9165 11.3091 18.7901 11.3091C19.2082 11.3091 19.5156 11.3972 19.7354 11.496L19.5486 12.1718C19.4001 12.1004 19.1366 11.9962 18.7736 11.9962C18.4109 11.9962 18.2351 12.1613 18.2351 12.3535C18.2351 12.5899 18.444 12.6938 18.9221 12.8756C19.5766 13.117 19.8837 13.4581 19.8837 13.9804C19.8841 14.6007 19.4062 15.1284 18.3893 15.1284Z" fill="black"/>
<path d="M6.29517 12.518C6.29517 12.1773 6.05887 11.974 5.64183 11.974C5.47105 11.974 5.35556 11.9904 5.29519 12.0069V13.1007C5.36632 13.1171 5.4546 13.1223 5.57523 13.1223C6.0209 13.1223 6.29517 12.8973 6.29517 12.518Z" fill="black"/>
</svg>
