<svg width="24" height="24" viewBox="0 0 24 24" fill="none" xmlns="http://www.w3.org/2000/svg">
<path d="M7.96959 11.9386C7.96959 11.42 7.60989 11.1102 6.97503 11.1102C6.71501 11.1102 6.53948 11.1354 6.4478 11.1608V12.825C6.55626 12.85 6.6901 12.8584 6.87401 12.8584C7.55132 12.8586 7.96959 12.5158 7.96959 11.9386Z" fill="black"/>
<path d="M19.7352 9.15373H19.255V6.83648C19.255 6.82192 19.2527 6.80747 19.2508 6.79273C19.25 6.70083 19.2207 6.61041 19.1577 6.53881L15.3016 2.13413C15.3005 2.13301 15.2993 2.1325 15.2986 2.13137C15.2756 2.1057 15.2488 2.08435 15.2205 2.06587C15.212 2.06024 15.2036 2.05552 15.1948 2.05054C15.1703 2.03725 15.1442 2.02603 15.1174 2.01801C15.1102 2.01609 15.1037 2.01311 15.0964 2.01118C15.0673 2.00432 15.037 2 15.0063 2H5.52955C5.0968 2 4.74524 2.35196 4.74524 2.78435V9.15373H4.2651C3.64622 9.15373 3.14404 9.65547 3.14404 10.2747V16.1043C3.14404 16.7229 3.64622 17.2252 4.2651 17.2252H4.74524V21.2157C4.74524 21.648 5.0968 22 5.52955 22H18.4707C18.903 22 19.255 21.648 19.255 21.2157V17.2252H19.7353C20.3545 17.2252 20.8562 16.7229 20.8562 16.1043V10.2747C20.8561 9.65547 20.3544 9.15373 19.7352 9.15373ZM5.52955 2.78435H14.6142V6.79705C14.6142 7.01383 14.79 7.18921 15.0064 7.18921H18.4707V9.15391H5.52955V2.78435ZM12.9292 14.8573C13.3137 14.8573 13.7407 14.7734 13.9911 14.6733L14.1838 15.6686C13.9494 15.7856 13.4222 15.911 12.7367 15.911C10.7881 15.911 9.78443 14.6984 9.78443 13.0924C9.78443 11.1686 11.1562 10.0982 12.8617 10.0982C13.5227 10.0982 14.0246 10.2323 14.2504 10.349L13.9909 11.3612C13.7316 11.2523 13.372 11.1521 12.9203 11.1521C11.9087 11.1521 11.122 11.7626 11.122 13.0172C11.1223 14.1465 11.7913 14.8573 12.9292 14.8573ZM5.18485 15.8274V10.2659C5.57777 10.1988 6.13031 10.149 6.90819 10.149C7.69403 10.149 8.25423 10.2993 8.6303 10.6007C8.99028 10.8847 9.23269 11.3532 9.23269 11.905C9.23269 12.4571 9.04878 12.9251 8.71407 13.2433C8.27928 13.6533 7.63528 13.8369 6.88227 13.8369C6.7148 13.8369 6.56487 13.8285 6.44759 13.8116V15.827L5.18485 15.8274ZM18.4707 21.0031H5.52955V17.2252H18.4707V21.0031ZM19.0425 11.2612H17.5033V15.8274H16.2242V11.2612H14.7103V10.1904H19.0425V11.2612Z" fill="black"/>
</svg>
