<svg width="24" height="24" viewBox="0 0 24 24" fill="none" xmlns="http://www.w3.org/2000/svg">
<path d="M19 20V20.75H19.75V20H19ZM5 20H4.25V20.75H5V20ZM5 4V3.25H4.25V4H5ZM16 4L16.5303 3.46967L16.3107 3.25H16V4ZM19 7L19.75 7V6.68934L19.5303 6.46967L19 7ZM5 10V9.25C4.58579 9.25 4.25 9.58579 4.25 10H5ZM4.25 16C4.25 16.4142 4.58579 16.75 5 16.75C5.41421 16.75 5.75 16.4142 5.75 16H4.25ZM16.25 16C16.25 16.4142 16.5858 16.75 17 16.75C17.4142 16.75 17.75 16.4142 17.75 16H16.25ZM15 9.25C14.5858 9.25 14.25 9.58579 14.25 10C14.25 10.4142 14.5858 10.75 15 10.75V9.25ZM19 10.75C19.4142 10.75 19.75 10.4142 19.75 10C19.75 9.58579 19.4142 9.25 19 9.25V10.75ZM19 19.25H5V20.75H19V19.25ZM5 4.75H16V3.25H5V4.75ZM15.4697 4.53033L18.4697 7.53033L19.5303 6.46967L16.5303 3.46967L15.4697 4.53033ZM5.75 8V4H4.25V8H5.75ZM5.75 20V18H4.25V20H5.75ZM18.25 7L18.25 8L19.75 8L19.75 7L18.25 7ZM18.25 18V20H19.75V18H18.25ZM5 14.3525H6.5V12.8525H5V14.3525ZM6.5 14.3525C6.8543 14.3525 7.3918 14.2637 7.86419 13.9369C8.3788 13.5809 8.75 12.9844 8.75 12.1378H7.25C7.25 12.3308 7.21061 12.4505 7.1718 12.5244C7.13284 12.5987 7.07916 12.6561 7.01081 12.7034C6.8582 12.8089 6.6457 12.8525 6.5 12.8525V14.3525ZM8.75 12.1378V11.5332H7.25V12.1378H8.75ZM8.75 11.5332C8.75 10.9176 8.59581 10.3162 8.16391 9.86997C7.72779 9.41939 7.12813 9.25 6.5 9.25V10.75C6.87187 10.75 7.02221 10.8472 7.08609 10.9132C7.15419 10.9836 7.25 11.1488 7.25 11.5332H8.75ZM6.5 9.25H5V10.75H6.5V9.25ZM4.25 13.6025V16H5.75V13.6025H4.25ZM4.25 10V13.6025H5.75V10H4.25ZM16.25 10V16H17.75V10H16.25ZM15 10.75H17V9.25H15V10.75ZM17 10.75H19V9.25H17V10.75ZM11.7624 9.25C10.6384 9.25 9.51244 10.174 9.51244 11.5H11.0124C11.0124 11.0806 11.3865 10.75 11.7624 10.75V9.25ZM9.51244 11.5V14.5H11.0124V11.5H9.51244ZM9.51244 14.5C9.51244 15.2035 9.78372 15.7863 10.2329 16.1856C10.6683 16.5726 11.2276 16.75 11.7624 16.75V15.25C11.5472 15.25 11.3566 15.1774 11.2295 15.0644C11.1162 14.9637 11.0124 14.7965 11.0124 14.5H9.51244ZM14.0124 11.6364C14.0124 10.9091 13.7572 10.2987 13.3158 9.87067C12.8832 9.45119 12.3159 9.25 11.7624 9.25V10.75C11.959 10.75 12.1417 10.8215 12.2716 10.9475C12.3927 11.065 12.5124 11.2727 12.5124 11.6364H14.0124ZM11.7624 16.75C12.3159 16.75 12.8832 16.5488 13.3158 16.1293C13.7572 15.7013 14.0124 15.0909 14.0124 14.3636H12.5124C12.5124 14.7273 12.3927 14.935 12.2716 15.0525C12.1417 15.1785 11.959 15.25 11.7624 15.25V16.75Z" fill="black"/>
</svg>
