<svg width="24" height="24" viewBox="0 0 24 24" fill="none" xmlns="http://www.w3.org/2000/svg">
<path d="M7.82363 12.2478C7.82363 11.7092 7.44967 11.3878 6.78972 11.3878C6.52051 11.3878 6.33813 11.4138 6.24248 11.4398V13.1692C6.35555 13.1948 6.49455 13.2036 6.68518 13.2036C7.38929 13.2036 7.82363 12.8474 7.82363 12.2478Z" fill="black"/>
<path d="M11.9088 11.4051C11.6131 11.4051 11.4224 11.4312 11.309 11.4573V15.2888C11.4221 15.3153 11.6046 15.3153 11.7698 15.3153C12.9687 15.3237 13.7507 14.6637 13.7507 13.2647C13.7595 12.0478 13.0468 11.4051 11.9088 11.4051Z" fill="black"/>
<path d="M19.7352 9.15391H19.255V6.8367C19.255 6.82225 19.2527 6.80769 19.2507 6.79306C19.25 6.70104 19.2207 6.61067 19.1577 6.53906L15.3016 2.13413C15.3005 2.13301 15.2993 2.13261 15.2985 2.13137C15.2756 2.1057 15.2488 2.08435 15.2204 2.06587C15.212 2.06024 15.2036 2.05552 15.1948 2.05065C15.1703 2.03725 15.1442 2.02614 15.1174 2.01812C15.1102 2.01609 15.1036 2.01311 15.0964 2.01122C15.0672 2.00432 15.037 2 15.0063 2H5.52951C5.09676 2 4.7452 2.35196 4.7452 2.78435V9.15373H4.26506C3.646 9.15373 3.14404 9.65547 3.14404 10.2747V16.1043C3.14404 16.7231 3.646 17.2252 4.26506 17.2252H4.74524V21.2157C4.74524 21.648 5.0968 22 5.52955 22H18.4707C18.903 22 19.255 21.648 19.255 21.2157V17.2252H19.7352C20.3541 17.2252 20.8562 16.7231 20.8562 16.1043V10.2749C20.8561 9.65569 20.3541 9.15391 19.7352 9.15391ZM5.52951 2.78449H14.6142V6.7973C14.6142 7.01397 14.79 7.18946 15.0063 7.18946H18.4706V9.15416H5.52951V2.78449ZM15.1576 13.2209C15.1576 14.342 14.7494 15.115 14.1838 15.5931C13.5675 16.1057 12.6289 16.3489 11.4824 16.3489C10.7961 16.3489 10.3097 16.3055 9.97909 16.2622V10.51C10.4656 10.4319 11.1003 10.3885 11.7694 10.3885C12.8809 10.3885 13.6022 10.5885 14.1673 11.014C14.7752 11.4658 15.1576 12.1869 15.1576 13.2209ZM4.93038 16.2882V10.51C5.33855 10.4408 5.9123 10.3885 6.72036 10.3885C7.53702 10.3885 8.1193 10.5449 8.51015 10.8579C8.88386 11.1531 9.13523 11.6398 9.13523 12.2133C9.13523 12.787 8.9446 13.2735 8.59678 13.6035C8.14501 14.0293 7.47605 14.2206 6.69385 14.2206C6.52036 14.2206 6.36342 14.2118 6.24233 14.1944V16.2884L4.93038 16.2882ZM18.4707 21.0033H5.52951V17.2252H18.4706L18.4707 21.0033ZM19.6071 11.518H17.3562V12.8561H19.4591V13.9336H17.3562V16.2883H16.0275V10.4319H19.6071V11.518Z" fill="black"/>
</svg>
