<svg width="24" height="24" viewBox="0 0 24 24" fill="none" xmlns="http://www.w3.org/2000/svg">
<path d="M19 20V20.75H19.75V20H19ZM5 20H4.25V20.75H5V20ZM5 4V3.25H4.25V4H5ZM16 4L16.5303 3.46967L16.3107 3.25H16V4ZM19 7L19.75 7V6.68934L19.5303 6.46967L19 7ZM5 10V9.25H4.25V10H5ZM16 10V9.25H15.25V10H16ZM15.25 16C15.25 16.4142 15.5858 16.75 16 16.75C16.4142 16.75 16.75 16.4142 16.75 16H15.25ZM19 10.75C19.4142 10.75 19.75 10.4142 19.75 10C19.75 9.58579 19.4142 9.25 19 9.25V10.75ZM18.5 13.75C18.9142 13.75 19.25 13.4142 19.25 13C19.25 12.5858 18.9142 12.25 18.5 12.25V13.75ZM10.25 16H9.5V16.75H10.25V16ZM10.25 10L10.25 9.25L9.5 9.25V10H10.25ZM12.15 10V9.25H12.15L12.15 10ZM4.25 16C4.25 16.4142 4.58579 16.75 5 16.75C5.41421 16.75 5.75 16.4142 5.75 16H4.25ZM19 19.25H5V20.75H19V19.25ZM5 4.75H16V3.25H5V4.75ZM15.4697 4.53033L18.4697 7.53033L19.5303 6.46967L16.5303 3.46967L15.4697 4.53033ZM5.75 8V4H4.25V8H5.75ZM5.75 20V18H4.25V20H5.75ZM18.25 7L18.25 8L19.75 8L19.75 7L18.25 7ZM18.25 18V20H19.75V18H18.25ZM6.5 12.8525H5V14.3525H6.5V12.8525ZM5.75 13.6025V10H4.25V13.6025H5.75ZM5 10.75H6.5V9.25H5V10.75ZM6.5 10.75C6.87187 10.75 7.02221 10.8472 7.08609 10.9132C7.15419 10.9836 7.25 11.1488 7.25 11.5332H8.75C8.75 10.9176 8.59581 10.3162 8.16391 9.86997C7.72779 9.41939 7.12813 9.25 6.5 9.25V10.75ZM7.25 11.5332V12.1378H8.75V11.5332H7.25ZM7.25 12.1378C7.25 12.3308 7.21061 12.4505 7.1718 12.5244C7.13284 12.5987 7.07916 12.6561 7.01081 12.7034C6.8582 12.8089 6.6457 12.8525 6.5 12.8525V14.3525C6.8543 14.3525 7.3918 14.2637 7.86419 13.9369C8.3788 13.5809 8.75 12.9844 8.75 12.1378H7.25ZM15.25 10V13H16.75V10H15.25ZM15.25 13V16H16.75V13H15.25ZM16 10.75H19V9.25H16V10.75ZM16 13.75H18.5V12.25H16V13.75ZM11 16V10H9.5V16H11ZM10.25 10.75L12.15 10.75L12.15 9.25L10.25 9.25L10.25 10.75ZM12.15 10.75C12.306 10.75 12.5497 10.7997 12.7304 10.9216C12.871 11.0165 13 11.1655 13 11.5H14.5C14.5 10.6345 14.0957 10.0335 13.5696 9.67836C13.0836 9.35032 12.5273 9.25 12.15 9.25V10.75ZM13 11.5V14.5H14.5V11.5H13ZM13 14.5C13 14.6198 12.9551 14.8245 12.8352 14.9807C12.7422 15.1018 12.5653 15.25 12.15 15.25V16.75C13.0147 16.75 13.6378 16.3982 14.0248 15.8943C14.3849 15.4255 14.5 14.8802 14.5 14.5H13ZM12.15 15.25H10.25V16.75H12.15V15.25ZM4.25 13.6025V16H5.75V13.6025H4.25Z" fill="black"/>
</svg>
