<svg width="24" height="24" viewBox="0 0 24 24" fill="none" xmlns="http://www.w3.org/2000/svg">
<path d="M19 20V20.75H19.75V20H19ZM5 20H4.25V20.75H5V20ZM5 4V3.25H4.25V4H5ZM16 4L16.5303 3.46967L16.3107 3.25H16V4ZM19 7L19.75 7V6.68934L19.5303 6.46967L19 7ZM5 10V9.25H4.25V10H5ZM12.9824 10.7605C13.3966 10.7605 13.7324 10.4247 13.7324 10.0105C13.7324 9.59624 13.3966 9.26045 12.9824 9.26045V10.7605ZM11.7409 10.0105L11.6872 9.26238L11.7409 10.0105ZM10.5525 12.3664L11.1247 11.8814L10.5525 12.3664ZM12.6067 13.364L12.1988 13.9933L12.6067 13.364ZM11.7409 16V15.25H11.7409L11.7409 16ZM10.4221 15.25C10.0079 15.25 9.67214 15.5858 9.67214 16C9.67214 16.4142 10.0079 16.75 10.4221 16.75L10.4221 15.25ZM15.5 16H14.75V16.75H15.5V16ZM15.5 10V9.25L14.75 9.25V10H15.5ZM17.4 10V9.25V10ZM4.25 16C4.25 16.4142 4.58579 16.75 5 16.75C5.41421 16.75 5.75 16.4142 5.75 16H4.25ZM19 19.25H5V20.75H19V19.25ZM5 4.75H16V3.25H5V4.75ZM15.4697 4.53033L18.4697 7.53033L19.5303 6.46967L16.5303 3.46967L15.4697 4.53033ZM5.75 8V4H4.25V8H5.75ZM5.75 20V18H4.25V20H5.75ZM18.25 7L18.25 8L19.75 8L19.75 7L18.25 7ZM18.25 18V20H19.75V18H18.25ZM6.5 12.8525H5V14.3525H6.5V12.8525ZM5.75 13.6025V10H4.25V13.6025H5.75ZM5 10.75H6.5V9.25H5V10.75ZM6.5 10.75C6.87187 10.75 7.02221 10.8472 7.08609 10.9132C7.15419 10.9836 7.25 11.1488 7.25 11.5332H8.75C8.75 10.9176 8.59581 10.3162 8.16391 9.86997C7.72779 9.41939 7.12813 9.25 6.5 9.25V10.75ZM7.25 11.5332V12.1378H8.75V11.5332H7.25ZM7.25 12.1378C7.25 12.3308 7.21061 12.4505 7.1718 12.5244C7.13284 12.5987 7.07916 12.6561 7.01081 12.7034C6.8582 12.8089 6.6457 12.8525 6.5 12.8525V14.3525C6.8543 14.3525 7.3918 14.2637 7.86419 13.9369C8.3788 13.5809 8.75 12.9844 8.75 12.1378H7.25ZM12.9824 9.26045C12.2786 9.26045 12.0592 9.25458 11.9781 9.25201C11.9515 9.25117 11.8968 9.24836 11.8355 9.25154C11.8066 9.25303 11.7433 9.25836 11.6872 9.26238L11.7946 10.7585C11.8382 10.7554 11.8682 10.753 11.8892 10.7514C11.9138 10.7495 11.9149 10.7494 11.9131 10.7495C11.8944 10.7505 11.8644 10.7492 11.9305 10.7513C12.0347 10.7546 12.2722 10.7605 12.9824 10.7605V9.26045ZM11.6872 9.26238C10.6044 9.34011 9.89609 9.94467 9.62367 10.7309C9.37534 11.4477 9.50546 12.291 9.98038 12.8513L11.1247 11.8814C11.0235 11.7621 10.95 11.4846 11.041 11.222C11.1079 11.0289 11.2819 10.7953 11.7946 10.7585L11.6872 9.26238ZM9.98038 12.8513C10.4113 13.3598 10.8799 13.5219 11.2668 13.6313C11.6333 13.735 11.8804 13.787 12.1988 13.9933L13.0146 12.7346C12.4672 12.3798 11.9753 12.2729 11.6751 12.188C11.3954 12.1088 11.2698 12.0527 11.1247 11.8814L9.98038 12.8513ZM12.1988 13.9933C12.43 14.1432 12.5522 14.4619 12.4797 14.766C12.4465 14.9055 12.376 15.0184 12.2766 15.0973C12.1807 15.1733 12.0174 15.25 11.7409 15.25V16.75C12.9412 16.75 13.7226 16.0217 13.9389 15.1137C14.1395 14.2717 13.8444 13.2724 13.0146 12.7346L12.1988 13.9933ZM11.7409 15.25L10.4221 15.25L10.4221 16.75L11.7409 16.75L11.7409 15.25ZM16.25 16V10H14.75V16H16.25ZM15.5 10.75L17.4 10.75V9.25L15.5 9.25V10.75ZM17.4 10.75C17.556 10.75 17.7997 10.7997 17.9804 10.9216C18.121 11.0165 18.25 11.1655 18.25 11.5H19.75C19.75 10.6345 19.3457 10.0335 18.8196 9.67836C18.3336 9.35032 17.7773 9.25 17.4 9.25V10.75ZM18.25 11.5V14.5H19.75V11.5H18.25ZM18.25 14.5C18.25 14.6198 18.2051 14.8245 18.0852 14.9807C17.9922 15.1018 17.8153 15.25 17.4 15.25V16.75C18.2647 16.75 18.8878 16.3982 19.2748 15.8943C19.6349 15.4255 19.75 14.8802 19.75 14.5H18.25ZM17.4 15.25H15.5V16.75H17.4V15.25ZM4.25 13.6025V16H5.75V13.6025H4.25Z" fill="black"/>
</svg>
