<svg xmlns="http://www.w3.org/2000/svg" width="20" height="20" fill="none" viewBox="0 0 20 20">
  <path fill="#A0A0A0" d="M17.735 7.154h-.48V4.837c0-.015-.003-.03-.004-.044a.385.385 0 00-.094-.254L13.301.134l-.003-.003a.385.385 0 00-.078-.065c-.008-.006-.017-.01-.026-.015a.41.41 0 00-.077-.033l-.021-.007a.393.393 0 00-.09-.011H3.529a.785.785 0 00-.784.784v6.37h-.48c-.62 0-1.121.501-1.121 1.12v5.83c0 .619.502 1.121 1.12 1.121h.48v3.99c0 .433.352.785.785.785H16.47a.785.785 0 00.785-.784v-3.99h.48c.619 0 1.12-.503 1.12-1.122v-5.83a1.12 1.12 0 00-1.12-1.12zm-1.265 11.85H3.53v-3.779H16.47v3.778zM4.324 13.96V8.05c.418-.071 1.005-.125 1.831-.125.836 0 1.431.16 1.83.48.383.302.641.8.641 1.386 0 .587-.196 1.085-.551 1.423-.462.435-1.147.63-1.947.63-.177 0-.337-.008-.462-.026v2.142H4.324zm5.164 0V7.97h1.36v5.99h-1.36zm6.043-3.51v1.101h-2.15v2.409h-1.36V7.97h3.661v1.11H13.38v1.37h2.15zm.94-3.296H3.528V.784h9.085v4.013c0 .217.175.392.392.392h3.464v1.965z"/>
  <path fill="#A0A0A0" d="M7.284 9.827c0-.55-.382-.88-1.057-.88-.276 0-.463.028-.56.054v1.769c.116.026.258.035.453.035.72 0 1.164-.364 1.164-.978z"/>
</svg>
