<svg width="24" height="24" viewBox="0 0 24 24" fill="none" xmlns="http://www.w3.org/2000/svg">
<path d="M19 20V20.75H19.75V20H19ZM5 20H4.25V20.75H5V20ZM5 4V3.25H4.25V4H5ZM16 4L16.5303 3.46967L16.3107 3.25H16V4ZM19 7L19.75 7V6.68934L19.5303 6.46967L19 7ZM6 10V9.25H5.25V10H6ZM12.75 10C12.75 9.58579 12.4142 9.25 12 9.25C11.5858 9.25 11.25 9.58579 11.25 10H12.75ZM11.25 16C11.25 16.4142 11.5858 16.75 12 16.75C12.4142 16.75 12.75 16.4142 12.75 16H11.25ZM15 10V9.25H14.25V10H15ZM14.25 16C14.25 16.4142 14.5858 16.75 15 16.75C15.4142 16.75 15.75 16.4142 15.75 16H14.25ZM18 10.75C18.4142 10.75 18.75 10.4142 18.75 10C18.75 9.58579 18.4142 9.25 18 9.25V10.75ZM17.5 13.75C17.9142 13.75 18.25 13.4142 18.25 13C18.25 12.5858 17.9142 12.25 17.5 12.25V13.75ZM5.25 16C5.25 16.4142 5.58579 16.75 6 16.75C6.41421 16.75 6.75 16.4142 6.75 16H5.25ZM19 19.25H5V20.75H19V19.25ZM5 4.75H16V3.25H5V4.75ZM15.4697 4.53033L18.4697 7.53033L19.5303 6.46967L16.5303 3.46967L15.4697 4.53033ZM5.75 8V4H4.25V8H5.75ZM5.75 20V18H4.25V20H5.75ZM18.25 7L18.25 8L19.75 8L19.75 7L18.25 7ZM18.25 18V20H19.75V18H18.25ZM7.5 12.8525H6V14.3525H7.5V12.8525ZM6.75 13.6025V10H5.25V13.6025H6.75ZM6 10.75H7.5V9.25H6V10.75ZM7.5 10.75C7.87187 10.75 8.02221 10.8472 8.08609 10.9132C8.15419 10.9836 8.25 11.1488 8.25 11.5332H9.75C9.75 10.9176 9.59581 10.3162 9.16391 9.86997C8.72779 9.41939 8.12813 9.25 7.5 9.25V10.75ZM8.25 11.5332V12.1378H9.75V11.5332H8.25ZM8.25 12.1378C8.25 12.3308 8.21061 12.4505 8.1718 12.5244C8.13284 12.5987 8.07916 12.6561 8.01081 12.7034C7.8582 12.8089 7.6457 12.8525 7.5 12.8525V14.3525C7.8543 14.3525 8.3918 14.2637 8.86419 13.9369C9.3788 13.5809 9.75 12.9844 9.75 12.1378H8.25ZM11.25 10V16H12.75V10H11.25ZM14.25 10V13H15.75V10H14.25ZM14.25 13V16H15.75V13H14.25ZM15 10.75H18V9.25H15V10.75ZM15 13.75H17.5V12.25H15V13.75ZM5.25 13.6025V16H6.75V13.6025H5.25Z" fill="black"/>
</svg>
