<svg width="24" height="24" viewBox="0 0 24 24" fill="none" xmlns="http://www.w3.org/2000/svg">
<path d="M19.7354 9.15391H19.2551V6.8367C19.2551 6.82225 19.2529 6.80769 19.2511 6.79295C19.2503 6.70104 19.2209 6.61063 19.1579 6.53906L15.3016 2.13413C15.3004 2.13301 15.2993 2.13261 15.2985 2.13137C15.2755 2.1057 15.2487 2.08435 15.2204 2.06587C15.212 2.06024 15.2036 2.05552 15.1948 2.05054C15.1702 2.03725 15.1442 2.02603 15.1174 2.01801C15.1101 2.01609 15.1036 2.01311 15.0963 2.01118C15.0672 2.00432 15.037 2 15.0063 2H5.52948C5.09673 2 4.74517 2.35196 4.74517 2.78435V9.15373H4.26503C3.64597 9.15373 3.14401 9.65547 3.14401 10.2747V16.1043C3.14401 16.7229 3.64597 17.2252 4.26503 17.2252H4.74521V21.2157C4.74521 21.648 5.09677 22 5.52952 22H18.4706C18.903 22 19.255 21.648 19.255 21.2157V17.2252H19.7352C20.3541 17.2252 20.8561 16.7231 20.8561 16.1043V10.2749C20.8561 9.65547 20.3544 9.15391 19.7354 9.15391ZM18.4706 21.0033H5.52948V17.2252H18.4706L18.4706 21.0033ZM6.32465 15.9603V10.0498C6.74226 9.9786 7.32933 9.92526 8.1558 9.92526C8.99134 9.92526 9.58655 10.0852 9.98636 10.405C10.3688 10.7072 10.6266 11.205 10.6266 11.7914C10.6266 12.378 10.4309 12.8758 10.0754 13.2136C9.61345 13.6492 8.92871 13.8449 8.12871 13.8449C7.95108 13.8449 7.79131 13.8355 7.66673 13.818V15.9599L6.32465 15.9603ZM11.488 15.9603V9.96981H12.8482V15.9603H11.488ZM17.5314 12.4494V13.5512H15.3808V15.9599H14.0206V9.96981H17.6825V11.0808H15.3808V12.4494H17.5314ZM18.4706 9.15391H5.52948V2.78435H14.6142V6.79705C14.6142 7.01372 14.7899 7.18921 15.0063 7.18921H18.4706L18.4706 9.15391Z" fill="black"/>
<path d="M9.28482 11.8273C9.28482 11.2761 8.90254 10.9477 8.22734 10.9477C7.95149 10.9477 7.76482 10.9746 7.66736 11.0008V12.7696C7.7829 12.7962 7.92527 12.8051 8.12048 12.8051C8.84009 12.805 9.28482 12.4408 9.28482 11.8273Z" fill="black"/>
</svg>
