<svg width="24" height="24" viewBox="0 0 24 24" fill="none" xmlns="http://www.w3.org/2000/svg">
<path d="M7.94733 11.9386C7.94733 11.4315 7.59577 11.129 6.97442 11.129C6.7209 11.129 6.54933 11.1535 6.45932 11.178V12.8057C6.5656 12.8302 6.69635 12.8382 6.87616 12.8382C7.53851 12.8382 7.94733 12.5028 7.94733 11.9386Z" fill="black"/>
<path d="M19.7352 9.15398H19.2549V6.83667C19.2549 6.82221 19.2526 6.80765 19.2507 6.79302C19.2499 6.70101 19.2207 6.61063 19.1577 6.5391L15.3014 2.13413C15.3003 2.13301 15.2991 2.13261 15.2981 2.13137C15.2753 2.1057 15.2484 2.08435 15.2202 2.06587C15.2118 2.06024 15.2034 2.05552 15.1946 2.05065C15.17 2.03733 15.144 2.02614 15.117 2.01812C15.1097 2.01609 15.1034 2.01322 15.0961 2.01122C15.0672 2.00432 15.0366 2 15.0061 2H5.52948C5.09673 2 4.74517 2.35196 4.74517 2.78435V9.1538H4.26496C3.64601 9.1538 3.14401 9.65547 3.14401 10.2747V16.1043C3.14401 16.7229 3.64597 17.2252 4.26496 17.2252H4.74521V21.2157C4.74521 21.648 5.09677 22 5.52952 22H18.4706C18.903 22 19.255 21.648 19.255 21.2157V17.2254H19.7352C20.3541 17.2254 20.8561 16.7231 20.8561 16.1043V10.2749C20.8561 9.65569 20.354 9.15398 19.7352 9.15398ZM5.52948 2.78449H14.6142V6.7973C14.6142 7.01397 14.7899 7.18946 15.0063 7.18946H18.4706V9.15416H5.52948V2.78449ZM14.4899 15.7408H13.0345L11.6852 13.3615L11.2109 13.9424V15.7408H9.97623V10.2298H11.2109V12.6664H11.2354C11.358 12.4538 11.4888 12.2577 11.6115 12.0617L12.8625 10.2299H14.3913L12.568 12.5764L14.4899 15.7408ZM5.22476 15.7408V10.3036C5.60915 10.2381 6.14876 10.1891 6.90932 10.1891C7.67777 10.1891 8.22558 10.3361 8.59359 10.6302C8.94515 10.9087 9.18219 11.3663 9.18219 11.9063C9.18219 12.446 9.00238 12.904 8.67537 13.2146C8.25028 13.6152 7.62069 13.7948 6.88481 13.7948C6.72131 13.7948 6.57403 13.7867 6.45954 13.7703V15.7408L5.22476 15.7408ZM18.4706 21.0033H5.52948V17.2254H18.4706L18.4706 21.0033ZM19.3315 15.4877C18.947 15.6182 18.2192 15.7982 17.4916 15.7982C16.4857 15.7982 15.7581 15.5447 15.2511 15.0542C14.7442 14.5797 14.4662 13.8604 14.4742 13.0509C14.4825 11.219 15.8154 10.1724 17.6224 10.1724C18.3337 10.1724 18.8815 10.3114 19.1515 10.4424L18.89 11.4397C18.5874 11.3091 18.211 11.2026 17.6061 11.2026C16.5677 11.2026 15.7826 11.7916 15.7826 12.9854C15.7826 14.1221 16.494 14.7923 17.5161 14.7923C17.8021 14.7923 18.0312 14.7597 18.1292 14.7107V13.5576H17.2788V12.5849H19.3311L19.3315 15.4877Z" fill="black"/>
</svg>
