<svg width="24" height="24" viewBox="0 0 24 24" fill="none" xmlns="http://www.w3.org/2000/svg">
<path d="M19 20V20.75H19.75V20H19ZM5 20H4.25V20.75H5V20ZM5 4V3.25H4.25V4H5ZM16 4L16.5303 3.46967L16.3107 3.25H16V4ZM19 7L19.75 7V6.68934L19.5303 6.46967L19 7ZM5 10V9.25C4.58579 9.25 4.25 9.58579 4.25 10H5ZM4.25 16C4.25 16.4142 4.58579 16.75 5 16.75C5.41421 16.75 5.75 16.4142 5.75 16H4.25ZM10.75 10C10.75 9.58579 10.4142 9.25 10 9.25C9.58579 9.25 9.25 9.58579 9.25 10H10.75ZM9.25 16C9.25 16.4142 9.58579 16.75 10 16.75C10.4142 16.75 10.75 16.4142 10.75 16H9.25ZM13.6 10.45C13.8485 10.1186 13.7814 9.64853 13.45 9.4C13.1186 9.15147 12.6485 9.21863 12.4 9.55L13.6 10.45ZM12.3488 16.3721C12.5543 16.7317 13.0125 16.8567 13.3721 16.6512C13.7317 16.4457 13.8567 15.9875 13.6512 15.6279L12.3488 16.3721ZM15 11.6438H15.75V11.6438L15 11.6438ZM18.5 13.2877H19.25V12.5377H18.5V13.2877ZM19 19.25H5V20.75H19V19.25ZM5 4.75H16V3.25H5V4.75ZM15.4697 4.53033L18.4697 7.53033L19.5303 6.46967L16.5303 3.46967L15.4697 4.53033ZM5.75 8V4H4.25V8H5.75ZM5.75 20V18H4.25V20H5.75ZM18.25 7L18.25 8L19.75 8L19.75 7L18.25 7ZM18.25 18V20H19.75V18H18.25ZM5 14.3525H6.5V12.8525H5V14.3525ZM6.5 14.3525C6.8543 14.3525 7.3918 14.2637 7.86419 13.9369C8.3788 13.5809 8.75 12.9844 8.75 12.1378H7.25C7.25 12.3308 7.21061 12.4505 7.1718 12.5244C7.13284 12.5987 7.07916 12.6561 7.01081 12.7034C6.8582 12.8089 6.6457 12.8525 6.5 12.8525V14.3525ZM8.75 12.1378V11.5332H7.25V12.1378H8.75ZM8.75 11.5332C8.75 10.9176 8.59581 10.3162 8.16391 9.86997C7.72779 9.41939 7.12813 9.25 6.5 9.25V10.75C6.87187 10.75 7.02221 10.8472 7.08609 10.9132C7.15419 10.9836 7.25 11.1488 7.25 11.5332H8.75ZM6.5 9.25H5V10.75H6.5V9.25ZM4.25 13.6025V16H5.75V13.6025H4.25ZM4.25 10V13.6025H5.75V10H4.25ZM9.25 10V14H10.75V10H9.25ZM9.25 14V16H10.75V14H9.25ZM10.6 14.45L13.6 10.45L12.4 9.55L9.4 13.55L10.6 14.45ZM10.4034 12.9676L12.3488 16.3721L13.6512 15.6279L11.7057 12.2234L10.4034 12.9676ZM16.6989 9.25C15.7966 9.25 15.1587 9.66372 14.7673 10.1811C14.4016 10.6646 14.25 11.2358 14.25 11.6439L15.75 11.6438C15.75 11.5496 15.8026 11.2989 15.9636 11.086C16.099 10.9071 16.3104 10.75 16.6989 10.75V9.25ZM14.25 11.6438V14.2341H15.75V11.6438H14.25ZM14.25 14.2341C14.25 15.6153 15.2479 16.75 16.6989 16.75V15.25C16.1497 15.25 15.75 14.8622 15.75 14.2341H14.25ZM19.25 14.3836V13.2877H17.75V14.3836H19.25ZM18.5 12.5377H16.9898V14.0377H18.5V12.5377ZM19.25 11.6438C19.25 10.9196 18.9607 10.2996 18.4662 9.87019C17.9829 9.45044 17.3487 9.25 16.6989 9.25V10.75C17.0491 10.75 17.3155 10.8575 17.4827 11.0028C17.6388 11.1383 17.75 11.3403 17.75 11.6438H19.25ZM16.6989 16.75C17.3191 16.75 17.9548 16.5894 18.4505 16.1824C18.9669 15.7583 19.25 15.1321 19.25 14.3836H17.75C17.75 14.731 17.6326 14.913 17.4985 15.0231C17.3436 15.1504 17.0787 15.25 16.6989 15.25V16.75Z" fill="black"/>
</svg>
