<svg width="24" height="24" viewBox="0 0 24 24" fill="none" xmlns="http://www.w3.org/2000/svg">
<path d="M19 20V20.75H19.75V20H19ZM5 20H4.25V20.75H5V20ZM5 4V3.25H4.25V4H5ZM16 4L16.5303 3.46967L16.3107 3.25H16V4ZM19 7L19.75 7V6.68934L19.5303 6.46967L19 7ZM9 10V9.25H8.25V10H9ZM14.75 10C14.75 9.58579 14.4142 9.25 14 9.25C13.5858 9.25 13.25 9.58579 13.25 10H14.75ZM14 16H13.25V16.75H14V16ZM17 16.75C17.4142 16.75 17.75 16.4142 17.75 16C17.75 15.5858 17.4142 15.25 17 15.25V16.75ZM8.25 16C8.25 16.4142 8.58579 16.75 9 16.75C9.41421 16.75 9.75 16.4142 9.75 16H8.25ZM19 19.25H5V20.75H19V19.25ZM5 4.75H16V3.25H5V4.75ZM15.4697 4.53033L18.4697 7.53033L19.5303 6.46967L16.5303 3.46967L15.4697 4.53033ZM5.75 8V4H4.25V8H5.75ZM5.75 20V18H4.25V20H5.75ZM18.25 7L18.25 8L19.75 8L19.75 7L18.25 7ZM18.25 18V20H19.75V18H18.25ZM10.5 12.8525H9V14.3525H10.5V12.8525ZM9.75 13.6025V10H8.25V13.6025H9.75ZM9 10.75H10.5V9.25H9V10.75ZM10.5 10.75C10.8719 10.75 11.0222 10.8472 11.0861 10.9132C11.1542 10.9836 11.25 11.1488 11.25 11.5332H12.75C12.75 10.9176 12.5958 10.3162 12.1639 9.86997C11.7278 9.41939 11.1281 9.25 10.5 9.25V10.75ZM11.25 11.5332V12.1378H12.75V11.5332H11.25ZM11.25 12.1378C11.25 12.3308 11.2106 12.4505 11.1718 12.5244C11.1328 12.5987 11.0792 12.6561 11.0108 12.7034C10.8582 12.8089 10.6457 12.8525 10.5 12.8525V14.3525C10.8543 14.3525 11.3918 14.2637 11.8642 13.9369C12.3788 13.5809 12.75 12.9844 12.75 12.1378H11.25ZM13.25 10V16H14.75V10H13.25ZM14 16.75H17V15.25H14V16.75ZM8.25 13.6025V16H9.75V13.6025H8.25Z" fill="black"/>
</svg>
