<svg width="24" height="24" viewBox="0 0 24 24" fill="none" xmlns="http://www.w3.org/2000/svg">
<path d="M19 20V20.75H19.75V20H19ZM5 20H4.25V20.75H5V20ZM5 4V3.25H4.25V4H5ZM16 4L16.5303 3.46967L16.3107 3.25H16V4ZM19 7L19.75 7V6.68934L19.5303 6.46967L19 7ZM5 10V9.25H4.25V10H5ZM9.25 16C9.25 16.4142 9.58579 16.75 10 16.75C10.4142 16.75 10.75 16.4142 10.75 16H9.25ZM10 10L10.6478 9.6221C10.4771 9.32942 10.1314 9.18756 9.80427 9.27599C9.47718 9.36442 9.25 9.66117 9.25 10H10ZM13.5 16L12.8522 16.3779C13.0229 16.6706 13.3686 16.8124 13.6957 16.724C14.0228 16.6356 14.25 16.3388 14.25 16H13.5ZM14.25 10C14.25 9.58579 13.9142 9.25 13.5 9.25C13.0858 9.25 12.75 9.58579 12.75 10H14.25ZM15.8023 11.6438H16.5523V11.6438L15.8023 11.6438ZM19.3023 13.2877H20.0523V12.5377H19.3023V13.2877ZM4.25 16C4.25 16.4142 4.58579 16.75 5 16.75C5.41421 16.75 5.75 16.4142 5.75 16H4.25ZM19 19.25H5V20.75H19V19.25ZM5 4.75H16V3.25H5V4.75ZM15.4697 4.53033L18.4697 7.53033L19.5303 6.46967L16.5303 3.46967L15.4697 4.53033ZM5.75 8V4H4.25V8H5.75ZM5.75 20V18H4.25V20H5.75ZM18.25 7L18.25 8L19.75 8L19.75 7L18.25 7ZM18.25 18V20H19.75V18H18.25ZM6.5 12.8525H5V14.3525H6.5V12.8525ZM5.75 13.6025V10H4.25V13.6025H5.75ZM5 10.75H6.5V9.25H5V10.75ZM6.5 10.75C6.87187 10.75 7.02221 10.8472 7.08609 10.9132C7.15419 10.9836 7.25 11.1488 7.25 11.5332H8.75C8.75 10.9176 8.59581 10.3162 8.16391 9.86997C7.72779 9.41939 7.12813 9.25 6.5 9.25V10.75ZM7.25 11.5332V12.1378H8.75V11.5332H7.25ZM7.25 12.1378C7.25 12.3308 7.21061 12.4505 7.1718 12.5244C7.13284 12.5987 7.07916 12.6561 7.01081 12.7034C6.8582 12.8089 6.6457 12.8525 6.5 12.8525V14.3525C6.8543 14.3525 7.3918 14.2637 7.86419 13.9369C8.3788 13.5809 8.75 12.9844 8.75 12.1378H7.25ZM10.75 16V10H9.25V16H10.75ZM9.35217 10.3779L12.8522 16.3779L14.1478 15.6221L10.6478 9.6221L9.35217 10.3779ZM14.25 16V10H12.75V16H14.25ZM17.5012 9.25C16.5989 9.25 15.9609 9.66372 15.5696 10.1811C15.2038 10.6646 15.0523 11.2358 15.0523 11.6439L16.5523 11.6438C16.5523 11.5496 16.6048 11.2989 16.7659 11.086C16.9012 10.9071 17.1127 10.75 17.5012 10.75V9.25ZM15.0523 11.6438V14.2341H16.5523V11.6438H15.0523ZM15.0523 14.2341C15.0523 15.6153 16.0502 16.75 17.5012 16.75V15.25C16.952 15.25 16.5523 14.8622 16.5523 14.2341H15.0523ZM20.0523 14.3836V13.2877H18.5523V14.3836H20.0523ZM19.3023 12.5377H17.7921V14.0377H19.3023V12.5377ZM20.0523 11.6438C20.0523 10.9196 19.763 10.2996 19.2685 9.87019C18.7851 9.45044 18.151 9.25 17.5012 9.25V10.75C17.8514 10.75 18.1178 10.8575 18.285 11.0028C18.4411 11.1383 18.5523 11.3403 18.5523 11.6438H20.0523ZM17.5012 16.75C18.1214 16.75 18.7571 16.5894 19.2527 16.1824C19.7692 15.7583 20.0523 15.1321 20.0523 14.3836H18.5523C18.5523 14.731 18.4349 14.913 18.3008 15.0231C18.1459 15.1504 17.881 15.25 17.5012 15.25V16.75ZM4.25 13.6025V16H5.75V13.6025H4.25Z" fill="black"/>
</svg>
