<svg width="24" height="24" viewBox="0 0 24 24" fill="none" xmlns="http://www.w3.org/2000/svg">
<path d="M19.7348 9.15372H19.2546V6.83648C19.2546 6.82193 19.2523 6.80748 19.2504 6.79271C19.2496 6.70072 19.2203 6.61033 19.1573 6.53883L15.3013 2.13413C15.3 2.13289 15.2989 2.13252 15.2982 2.13139C15.2752 2.10571 15.2484 2.08426 15.22 2.06588C15.2116 2.06015 15.2032 2.05545 15.1944 2.05059C15.1699 2.03728 15.1438 2.02608 15.117 2.01802C15.1097 2.01612 15.1032 2.01313 15.096 2.01116C15.0668 2.0043 15.0366 2 15.006 2H5.52907C5.09634 2 4.74478 2.35197 4.74478 2.78433V9.15368H4.2646C3.64554 9.15368 3.14359 9.65546 3.14359 10.2746V16.104C3.14359 16.7229 3.64554 17.2252 4.2646 17.2252H4.74478V21.2157C4.74478 21.6481 5.09634 22 5.52907 22H18.4702C18.9026 22 19.2545 21.6481 19.2545 21.2157V17.2252H19.7348C20.3536 17.2252 20.8557 16.7231 20.8557 16.1042V10.2749C20.8557 9.6555 20.3537 9.15372 19.7348 9.15372ZM18.4703 21.0031H5.52907V17.2252H18.4702L18.4703 21.0031ZM5.78653 15.6207V10.3768C6.15731 10.3137 6.67777 10.2662 7.41066 10.2662C8.15228 10.2662 8.6805 10.4084 9.03542 10.6922C9.3744 10.9602 9.60308 11.4021 9.60308 11.9222C9.60308 12.4425 9.42948 12.8845 9.11421 13.1841C8.70446 13.5705 8.09716 13.7441 7.38714 13.7441C7.22974 13.7441 7.08791 13.7364 6.97757 13.7207V15.6207H5.78653ZM10.3691 15.6207V10.3768C10.7399 10.3137 11.2602 10.2662 11.9932 10.2662C12.7348 10.2662 13.263 10.4084 13.618 10.6922C13.9569 10.9602 14.1856 11.4021 14.1856 11.9222C14.1856 12.4425 14.0122 12.8845 13.6967 13.1841C13.287 13.5705 12.6798 13.7441 11.9697 13.7441C11.8122 13.7441 11.6705 13.7364 11.5601 13.7207V15.6207H10.3691ZM16.2766 13.3892C15.3935 13.0819 14.8173 12.5924 14.8173 11.8198C14.8173 10.9129 15.5746 10.219 16.8288 10.219C17.4278 10.219 17.8694 10.3451 18.1846 10.487L17.9169 11.4571C17.7039 11.3545 17.3252 11.2047 16.8048 11.2047C16.2842 11.2047 16.0321 11.4414 16.0321 11.717C16.0321 12.0563 16.3318 12.2061 17.0176 12.4664C17.9559 12.8135 18.3979 13.3021 18.3979 14.0512C18.3979 14.9423 17.712 15.6994 16.2527 15.6994C15.6459 15.6994 15.0467 15.5417 14.7467 15.3763L14.991 14.3824C15.3144 14.548 15.8115 14.7137 16.3237 14.7137C16.8757 14.7137 17.1678 14.485 17.1678 14.1382C17.1674 13.8071 16.9148 13.6179 16.2766 13.3892ZM18.4703 9.15372H5.52907V2.78433H14.6138V6.79701C14.6138 7.01369 14.7895 7.18918 15.006 7.18918H18.4703V9.15372Z" fill="black"/>
<path d="M8.41235 11.9538C8.41235 11.4648 8.07334 11.173 7.47369 11.173C7.22966 11.173 7.06409 11.1967 6.97746 11.2205V12.7899C7.07963 12.8137 7.2061 12.8214 7.37958 12.8214C8.01786 12.8214 8.41235 12.4979 8.41235 11.9538Z" fill="black"/>
<path d="M12.995 11.9538C12.995 11.4648 12.6559 11.173 12.0564 11.173C11.8123 11.173 11.6468 11.1967 11.5601 11.2205V12.7899C11.6623 12.8137 11.7888 12.8214 11.9623 12.8214C12.6006 12.8214 12.995 12.4979 12.995 11.9538Z" fill="black"/>
</svg>
