<svg width="24" height="24" viewBox="0 0 24 24" fill="none" xmlns="http://www.w3.org/2000/svg">
<path d="M19 20V20.75H19.75V20H19ZM5 20H4.25V20.75H5V20ZM5 4V3.25H4.25V4H5ZM16 4L16.5303 3.46967L16.3107 3.25H16V4ZM19 7H19.75V6.68934L19.5303 6.46967L19 7ZM5.6351 10V9.25C5.22089 9.25 4.8851 9.58579 4.8851 10H5.6351ZM4.8851 16C4.8851 16.4142 5.22089 16.75 5.6351 16.75C6.04932 16.75 6.3851 16.4142 6.3851 16H4.8851ZM10.8176 10V9.25C10.4034 9.25 10.0676 9.58579 10.0676 10H10.8176ZM10.0676 16C10.0676 16.4142 10.4034 16.75 10.8176 16.75C11.2318 16.75 11.5676 16.4142 11.5676 16H10.0676ZM18.7324 10.7605C19.1466 10.7605 19.4824 10.4247 19.4824 10.0105C19.4824 9.59624 19.1466 9.26045 18.7324 9.26045V10.7605ZM17.4909 10.0105L17.4372 9.26238L17.4909 10.0105ZM16.3025 12.3664L16.8747 11.8814L16.3025 12.3664ZM18.3567 13.364L17.9488 13.9933H17.9488L18.3567 13.364ZM17.4909 16V15.25H17.4909L17.4909 16ZM16.1721 15.25C15.7579 15.25 15.4221 15.5858 15.4221 16C15.4221 16.4142 15.7579 16.75 16.1721 16.75L16.1721 15.25ZM19 19.25H5V20.75H19V19.25ZM5 4.75H16V3.25H5V4.75ZM15.4697 4.53033L18.4697 7.53033L19.5303 6.46967L16.5303 3.46967L15.4697 4.53033ZM5.75 8V4H4.25V8H5.75ZM5.75 20V18H4.25V20H5.75ZM18.25 7V8H19.75V7H18.25ZM18.25 18V20H19.75V18H18.25ZM5.6351 14.3525H7.1351V12.8525H5.6351V14.3525ZM7.1351 14.3525C7.4894 14.3525 8.0269 14.2637 8.49929 13.9369C9.0139 13.5809 9.3851 12.9844 9.3851 12.1378H7.8851C7.8851 12.3308 7.84571 12.4505 7.80691 12.5244C7.76794 12.5987 7.71426 12.6561 7.64591 12.7034C7.4933 12.8089 7.28081 12.8525 7.1351 12.8525V14.3525ZM9.3851 12.1378V11.5332H7.8851V12.1378H9.3851ZM9.3851 11.5332C9.3851 10.9176 9.23091 10.3162 8.79901 9.86997C8.3629 9.41939 7.76323 9.25 7.1351 9.25V10.75C7.50698 10.75 7.65731 10.8472 7.72119 10.9132C7.78929 10.9836 7.8851 11.1488 7.8851 11.5332H9.3851ZM7.1351 9.25H5.6351V10.75H7.1351V9.25ZM4.8851 13.6025V16H6.3851V13.6025H4.8851ZM4.8851 10V13.6025H6.3851V10H4.8851ZM10.8176 14.3525H12.3176V12.8525H10.8176V14.3525ZM12.3176 14.3525C12.6719 14.3525 13.2094 14.2637 13.6818 13.9369C14.1964 13.5809 14.5676 12.9844 14.5676 12.1378H13.0676C13.0676 12.3308 13.0282 12.4505 12.9894 12.5244C12.9504 12.5987 12.8967 12.6561 12.8284 12.7034C12.6758 12.8089 12.4633 12.8525 12.3176 12.8525V14.3525ZM14.5676 12.1378V11.5332H13.0676V12.1378H14.5676ZM14.5676 11.5332C14.5676 10.9176 14.4134 10.3162 13.9815 9.86997C13.5454 9.41939 12.9457 9.25 12.3176 9.25V10.75C12.6894 10.75 12.8398 10.8472 12.9037 10.9132C12.9718 10.9836 13.0676 11.1488 13.0676 11.5332H14.5676ZM12.3176 9.25H10.8176V10.75H12.3176V9.25ZM10.0676 13.6025V16H11.5676V13.6025H10.0676ZM10.0676 10V13.6025H11.5676V10H10.0676ZM18.7324 9.26045C18.0286 9.26045 17.8092 9.25458 17.7281 9.25201C17.7015 9.25117 17.6468 9.24836 17.5855 9.25154C17.5566 9.25303 17.4933 9.25836 17.4372 9.26238L17.5446 10.7585C17.5882 10.7554 17.6182 10.753 17.6392 10.7514C17.6638 10.7495 17.6649 10.7494 17.6631 10.7495C17.6444 10.7505 17.6144 10.7492 17.6805 10.7513C17.7847 10.7546 18.0222 10.7605 18.7324 10.7605V9.26045ZM17.4372 9.26238C16.3544 9.34011 15.6461 9.94467 15.3737 10.7309C15.1253 11.4477 15.2555 12.291 15.7304 12.8513L16.8747 11.8814C16.7735 11.7621 16.7 11.4846 16.791 11.222C16.8579 11.0289 17.0319 10.7953 17.5446 10.7585L17.4372 9.26238ZM15.7304 12.8513C16.1613 13.3598 16.6299 13.5219 17.0168 13.6313C17.3833 13.735 17.6304 13.787 17.9488 13.9933L18.7646 12.7346C18.2172 12.3798 17.7253 12.2729 17.4251 12.188C17.1454 12.1088 17.0198 12.0527 16.8747 11.8814L15.7304 12.8513ZM17.9488 13.9933C18.18 14.1432 18.3022 14.4619 18.2297 14.766C18.1965 14.9055 18.126 15.0184 18.0266 15.0973C17.9307 15.1733 17.7674 15.25 17.4909 15.25V16.75C18.6912 16.75 19.4726 16.0217 19.6889 15.1137C19.8895 14.2717 19.5944 13.2724 18.7646 12.7346L17.9488 13.9933ZM17.4909 15.25L16.1721 15.25L16.1721 16.75L17.4909 16.75L17.4909 15.25Z" fill="black"/>
</svg>
