<svg width="24" height="24" viewBox="0 0 24 24" fill="none" xmlns="http://www.w3.org/2000/svg">
<path d="M10.1188 11.5695C9.91805 11.5695 9.78218 11.5891 9.71116 11.6082V12.8955C9.79549 12.9152 9.89883 12.9216 10.0411 12.9216C10.5654 12.9216 10.8887 12.6562 10.8887 12.2096C10.8887 11.8089 10.6102 11.5695 10.1188 11.5695Z" fill="black"/>
<path d="M19.7348 9.15372H19.2546V6.83648C19.2546 6.82193 19.2523 6.80748 19.2504 6.79271C19.2496 6.70072 19.2203 6.61033 19.1573 6.53883L15.3013 2.13413C15.3 2.13289 15.2989 2.13252 15.2982 2.13139C15.2752 2.10571 15.2484 2.08426 15.22 2.06588C15.2116 2.06015 15.2032 2.05545 15.1944 2.05059C15.1699 2.03728 15.1438 2.02608 15.117 2.01802C15.1097 2.01612 15.1032 2.01313 15.096 2.01116C15.0668 2.0043 15.0366 2 15.006 2H5.52907C5.09634 2 4.74478 2.35197 4.74478 2.78433V9.15368H4.2646C3.64554 9.15368 3.14359 9.65546 3.14359 10.2746V16.104C3.14359 16.7229 3.64554 17.2252 4.2646 17.2252H4.74478V21.2157C4.74478 21.6481 5.09634 22 5.52907 22H18.4702C18.9026 22 19.2545 21.6481 19.2545 21.2157V17.2252H19.7348C20.3536 17.2252 20.8557 16.7231 20.8557 16.1042V10.2749C20.8557 9.6555 20.3537 9.15372 19.7348 9.15372ZM5.52907 2.78433H14.6138V6.79701C14.6138 7.01369 14.7895 7.18918 15.006 7.18918H18.4703V9.15387H5.52907V2.78433ZM12.1636 11.6862V10.8578H15.5145V11.6862H14.3242V15.218H13.3347V11.6862H12.1636ZM11.8649 12.1842C11.8649 12.6108 11.723 12.9729 11.4642 13.2188C11.1276 13.5358 10.6293 13.6785 10.0475 13.6785C9.9178 13.6785 9.80129 13.672 9.7109 13.6588V15.2179H8.73405V10.916C9.03812 10.8643 9.46523 10.8253 10.0668 10.8253C10.6752 10.8253 11.1084 10.9418 11.3998 11.1745C11.678 11.3947 11.8649 11.757 11.8649 12.1842ZM4.97539 15.2179V10.916C5.27946 10.8643 5.70617 10.8253 6.30774 10.8253C6.916 10.8253 7.34913 10.9418 7.64047 11.1745C7.91868 11.3948 8.10613 11.757 8.10613 12.1838C8.10613 12.6105 7.96376 12.9727 7.70496 13.2186C7.36831 13.5357 6.87051 13.6781 6.28812 13.6781C6.15914 13.6781 6.04205 13.6716 5.95147 13.6586V15.2177L4.97539 15.2179ZM18.4703 21.0031H5.52907V17.2252H18.4702L18.4703 21.0031ZM18.4523 15.2179L18.0575 14.4286C17.896 14.1245 17.792 13.8982 17.6691 13.646H17.6565C17.5661 13.8982 17.4558 14.1245 17.3202 14.4286L16.9577 15.2179H15.8324L17.0935 13.0115L15.8777 10.8578H17.0095L17.391 11.6537C17.5207 11.9188 17.6177 12.1324 17.7211 12.3782H17.7341C17.8375 12.0997 17.9218 11.9057 18.0317 11.6537L18.4005 10.8578H19.5264L18.2971 12.9861L19.5908 15.2179H18.4523Z" fill="black"/>
<path d="M7.12974 12.2095C7.12974 11.8087 6.85149 11.5692 6.35974 11.5692C6.15959 11.5692 6.02302 11.5888 5.95189 11.6079V12.8954C6.03634 12.9149 6.13957 12.9215 6.28212 12.9215C6.80641 12.9215 7.12974 12.6562 7.12974 12.2095Z" fill="black"/>
</svg>
