<svg width="24" height="24" viewBox="0 0 24 24" fill="none" xmlns="http://www.w3.org/2000/svg">
<path d="M10.4255 11.8243C10.4255 11.2855 10.0518 10.9639 9.39121 10.9639C9.12196 10.9639 8.93958 10.9903 8.84393 11.0162V12.745C8.95682 12.7714 9.09633 12.7799 9.28703 12.7799C9.99081 12.7799 10.4255 12.4239 10.4255 11.8243Z" fill="black"/>
<path d="M19.7352 9.15391H19.2549V6.8367C19.2549 6.82214 19.2526 6.80769 19.2507 6.79295C19.25 6.70094 19.2207 6.61056 19.1577 6.53906L15.3016 2.13402C15.3004 2.1329 15.2993 2.1325 15.2985 2.13137C15.2755 2.1057 15.2487 2.08424 15.2204 2.06587C15.212 2.06013 15.2036 2.05545 15.1948 2.05054C15.1702 2.03725 15.1442 2.02603 15.1174 2.01801C15.1101 2.01609 15.1036 2.01311 15.0963 2.01111C15.0672 2.00432 15.037 2 15.0063 2H5.52949C5.09674 2 4.74518 2.35196 4.74518 2.78435V9.15373H4.26505C3.64599 9.15373 3.14403 9.65547 3.14403 10.2746V16.104C3.14403 16.7229 3.64599 17.2252 4.26505 17.2252H4.74522V21.2157C4.74522 21.648 5.09678 22 5.52953 22H18.4707C18.903 22 19.255 21.648 19.255 21.2157V17.2252H19.7352C20.3541 17.2252 20.8562 16.7231 20.8562 16.1043V10.2749C20.8561 9.65569 20.3541 9.15391 19.7352 9.15391ZM18.4707 21.0033H5.52949V17.2252H18.4706L18.4707 21.0033ZM7.53214 15.8645V10.0862C7.94078 10.0168 8.51405 9.96469 9.32211 9.96469C10.139 9.96469 10.7211 10.1212 11.1125 10.4336C11.4858 10.7294 11.7376 11.2159 11.7376 11.7892C11.7376 12.363 11.5464 12.8494 11.1991 13.1793C10.7472 13.605 10.0782 13.7961 9.29662 13.7961C9.12229 13.7961 8.96605 13.7877 8.84426 13.7701V15.8645H7.53214ZM14.0409 13.4053C13.0677 13.0662 12.4332 12.5277 12.4332 11.6764C12.4332 10.6769 13.2673 9.91219 14.649 9.91219C15.3093 9.91219 15.7958 10.0512 16.143 10.2079L15.8481 11.2767C15.6133 11.1635 15.1963 10.9987 14.6226 10.9987C14.0493 10.9987 13.7713 11.2594 13.7713 11.5633C13.7713 11.9372 14.1018 12.1023 14.8574 12.3887C15.8914 12.7711 16.3778 13.3095 16.3778 14.1351C16.3778 15.117 15.6221 15.9511 14.0145 15.9511C13.3454 15.9511 12.6856 15.7772 12.3551 15.5947L12.6247 14.5001C12.9803 14.6825 13.5279 14.865 14.0926 14.865C14.7011 14.865 15.0223 14.6132 15.0223 14.2308C15.0225 13.8658 14.7444 13.6575 14.0409 13.4053ZM18.4707 9.15391H5.52949V2.78449H14.6142V6.7972C14.6142 7.01386 14.79 7.18935 15.0063 7.18935H18.4706L18.4707 9.15391Z" fill="black"/>
</svg>
