<svg width="24" height="24" viewBox="0 0 24 24" fill="none" xmlns="http://www.w3.org/2000/svg">
<path d="M17.8234 11.9617C17.8234 11.5411 17.5019 11.3188 16.9337 11.3188C16.6616 11.3188 16.5042 11.3353 16.3978 11.3518V12.6463H16.8099C17.4693 12.6462 17.8234 12.374 17.8234 11.9617Z" fill="black"/>
<path d="M7.48455 12.1676C7.48455 11.6567 7.13003 11.3514 6.50397 11.3514C6.24845 11.3514 6.07533 11.3763 5.98458 11.4008V13.0415C6.0916 13.0665 6.22354 13.0745 6.40516 13.0745C7.07312 13.0745 7.48455 12.7365 7.48455 12.1676Z" fill="black"/>
<path d="M19.7348 9.1539H19.2546V6.8367C19.2546 6.82215 19.2523 6.8077 19.2504 6.79293C19.2496 6.70093 19.2203 6.61054 19.1573 6.53905L15.3012 2.13405C15.3 2.13292 15.2989 2.13252 15.2981 2.13139C15.2752 2.10571 15.2484 2.08426 15.22 2.06588C15.2116 2.06015 15.2032 2.05545 15.1944 2.05059C15.1699 2.03728 15.1438 2.02608 15.117 2.01802C15.1097 2.01612 15.1032 2.01313 15.096 2.01116C15.0668 2.0043 15.0366 2 15.006 2H5.52907C5.09634 2 4.74477 2.35197 4.74477 2.78433V9.15368H4.26459C3.64554 9.15368 3.14358 9.65546 3.14358 10.2746V16.104C3.14358 16.7229 3.64554 17.2252 4.26459 17.2252H4.74477V21.2157C4.74477 21.6481 5.09634 22 5.52907 22H18.4702C18.9026 22 19.2545 21.6481 19.2545 21.2157V17.2252H19.7348C20.3536 17.2252 20.8557 16.7231 20.8557 16.1042V10.2748C20.8557 9.65568 20.3537 9.1539 19.7348 9.1539ZM5.52907 2.78451H14.6138V6.7972C14.6138 7.01387 14.7895 7.18936 15.006 7.18936H18.4703V9.15405H5.52907V2.78451ZM11.7889 15.0863C12.4485 15.0863 12.8111 14.6241 12.8111 13.6429V10.4451H14.0644V13.561C14.0644 15.2759 13.1988 16.092 11.7477 16.092C10.3465 16.092 9.52184 15.3172 9.52184 13.5445V10.4451H10.783V13.6429C10.7828 14.5994 11.1457 15.0863 11.7889 15.0863ZM4.7397 16.0012V10.519C5.12716 10.4531 5.67129 10.4037 6.43778 10.4037C7.21288 10.4037 7.76503 10.5523 8.13604 10.8488C8.49045 11.1292 8.72952 11.591 8.72952 12.1348C8.72952 12.679 8.5483 13.1404 8.21855 13.4539C7.78991 13.8585 7.15532 14.0393 6.41327 14.0393C6.24832 14.0393 6.10011 14.0312 5.98426 14.0148V16.0012H4.7397ZM18.4703 21.0033H5.52907V17.2252H18.4702L18.4703 21.0033ZM18.6981 15.556C18.2937 15.8775 17.6179 16.0586 16.5133 16.0586C15.8948 16.0586 15.4333 16.0177 15.1528 15.9763V10.519C15.4823 10.4531 16.1504 10.4037 16.777 10.4037C17.5435 10.4037 18.0132 10.4776 18.4174 10.7166C18.8051 10.9231 19.0849 11.3021 19.0849 11.8055C19.0849 12.2998 18.7965 12.7614 18.1703 12.9918V13.0091C18.8049 13.1818 19.2745 13.6602 19.2745 14.3773C19.2745 14.8803 19.0443 15.2759 18.6981 15.556Z" fill="black"/>
<path d="M16.8255 13.5447H16.3972V15.111C16.5209 15.1274 16.6694 15.1274 16.8833 15.1274C17.4523 15.1274 17.9555 14.9134 17.9555 14.3278C17.9558 13.767 17.4526 13.5447 16.8255 13.5447Z" fill="black"/>
</svg>
