<svg width="24" height="24" viewBox="0 0 24 24" fill="none" xmlns="http://www.w3.org/2000/svg">
<path d="M19 20V20.75H19.75V20H19ZM5 20H4.25V20.75H5V20ZM5 4V3.25H4.25V4H5ZM16 4L16.5303 3.46967L16.3107 3.25H16V4ZM19 7L19.75 7V6.68934L19.5303 6.46967L19 7ZM8 10V9.25C7.58579 9.25 7.25 9.58579 7.25 10H8ZM7.25 16C7.25 16.4142 7.58579 16.75 8 16.75C8.41421 16.75 8.75 16.4142 8.75 16H7.25ZM13.6708 9.66459C13.4856 9.29411 13.0351 9.14394 12.6646 9.32918C12.2941 9.51442 12.1439 9.96493 12.3292 10.3354L13.6708 9.66459ZM17.6708 10.3354C17.8561 9.96493 17.7059 9.51442 17.3354 9.32918C16.9649 9.14394 16.5144 9.29411 16.3292 9.66459L17.6708 10.3354ZM14.25 16C14.25 16.4142 14.5858 16.75 15 16.75C15.4142 16.75 15.75 16.4142 15.75 16H14.25ZM19 19.25H5V20.75H19V19.25ZM5 4.75H16V3.25H5V4.75ZM15.4697 4.53033L18.4697 7.53033L19.5303 6.46967L16.5303 3.46967L15.4697 4.53033ZM5.75 8V4H4.25V8H5.75ZM5.75 20V18H4.25V20H5.75ZM18.25 7L18.25 8L19.75 8L19.75 7L18.25 7ZM18.25 18V20H19.75V18H18.25ZM8 14.3525H9.5V12.8525H8V14.3525ZM9.5 14.3525C9.8543 14.3525 10.3918 14.2637 10.8642 13.9369C11.3788 13.5809 11.75 12.9844 11.75 12.1378H10.25C10.25 12.3308 10.2106 12.4505 10.1718 12.5244C10.1328 12.5987 10.0792 12.6561 10.0108 12.7034C9.8582 12.8089 9.6457 12.8525 9.5 12.8525V14.3525ZM11.75 12.1378V11.5332H10.25V12.1378H11.75ZM11.75 11.5332C11.75 10.9176 11.5958 10.3162 11.1639 9.86997C10.7278 9.41939 10.1281 9.25 9.5 9.25V10.75C9.87187 10.75 10.0222 10.8472 10.0861 10.9132C10.1542 10.9836 10.25 11.1488 10.25 11.5332H11.75ZM9.5 9.25H8V10.75H9.5V9.25ZM7.25 13.6025V16H8.75V13.6025H7.25ZM7.25 10V13.6025H8.75V10H7.25ZM12.3292 10.3354L14.3292 14.3354L15.6708 13.6646L13.6708 9.66459L12.3292 10.3354ZM15.6708 14.3354L17.6708 10.3354L16.3292 9.66459L14.3292 13.6646L15.6708 14.3354ZM14.25 14V16H15.75V14H14.25Z" fill="black"/>
</svg>
