<svg width="24" height="24" viewBox="0 0 24 24" fill="none" xmlns="http://www.w3.org/2000/svg">
<path d="M19 20V20.75H19.75V20H19ZM5 20H4.25V20.75H5V20ZM5 4V3.25H4.25V4H5ZM16 4L16.5303 3.46967L16.3107 3.25H16V4ZM19 7L19.75 7V6.68934L19.5303 6.46967L19 7ZM9.5 13.5L9.54832 12.7516L9.52418 12.75H9.5V13.5ZM8 10V9.25C7.58579 9.25 7.25 9.58579 7.25 10H8ZM7.25 16C7.25 16.4142 7.58579 16.75 8 16.75C8.41421 16.75 8.75 16.4142 8.75 16H7.25ZM10.7083 13.1828C10.5581 12.7968 10.1234 12.6056 9.73735 12.7559C9.35134 12.9061 9.16021 13.3408 9.31045 13.7268L10.7083 13.1828ZM10.3011 16.272C10.4513 16.658 10.886 16.8491 11.272 16.6989C11.658 16.5487 11.8492 16.1139 11.6989 15.7279L10.3011 16.272ZM12.2724 15.8181C12.1719 16.2199 12.4163 16.6271 12.8181 16.7276C13.2199 16.8281 13.6271 16.5837 13.7276 16.1819L12.2724 15.8181ZM14.5 10V9.25C14.1558 9.25 13.8559 9.48422 13.7724 9.8181L14.5 10ZM15.5 10L16.2276 9.8181C16.1441 9.48422 15.8442 9.25 15.5 9.25V10ZM16.2724 16.1819C16.3729 16.5837 16.7801 16.8281 17.1819 16.7276C17.5837 16.6271 17.8281 16.2199 17.7276 15.8181L16.2724 16.1819ZM19 19.25H5V20.75H19V19.25ZM5 4.75H16V3.25H5V4.75ZM15.4697 4.53033L18.4697 7.53033L19.5303 6.46967L16.5303 3.46967L15.4697 4.53033ZM5.75 8V4H4.25V8H5.75ZM5.75 20V18H4.25V20H5.75ZM18.25 7L18.25 8L19.75 8L19.75 7L18.25 7ZM18.25 18V20H19.75V18H18.25ZM8 14.25H9.5V12.75H8V14.25ZM9.5 13.5C9.45168 14.2484 9.45201 14.2485 9.45235 14.2485C9.45248 14.2485 9.45282 14.2485 9.45307 14.2485C9.45355 14.2486 9.45406 14.2486 9.4546 14.2486C9.45567 14.2487 9.45684 14.2488 9.4581 14.2488C9.46063 14.249 9.46354 14.2491 9.46683 14.2493C9.4734 14.2496 9.48148 14.25 9.49097 14.2503C9.50992 14.251 9.53463 14.2515 9.56431 14.2515C9.62339 14.2515 9.70363 14.2494 9.79836 14.2413C9.98345 14.2254 10.2458 14.185 10.5201 14.0791C10.7956 13.9728 11.1112 13.7891 11.3579 13.4716C11.6116 13.145 11.75 12.7311 11.75 12.2452H10.25C10.25 12.4351 10.2009 12.5159 10.1734 12.5513C10.1388 12.5958 10.0794 12.6414 9.97993 12.6798C9.8792 12.7187 9.76655 12.7385 9.67039 12.7467C9.62449 12.7507 9.58755 12.7515 9.5646 12.7515C9.55326 12.7515 9.54574 12.7513 9.54272 12.7512C9.54122 12.7512 9.54088 12.7511 9.54177 12.7512C9.54222 12.7512 9.54299 12.7512 9.54407 12.7513C9.54461 12.7513 9.54524 12.7514 9.54595 12.7514C9.5463 12.7514 9.54667 12.7515 9.54707 12.7515C9.54727 12.7515 9.54758 12.7515 9.54768 12.7515C9.548 12.7515 9.54832 12.7516 9.5 13.5ZM11 12.2452C11.75 12.2452 11.75 12.2452 11.75 12.2452C11.75 12.2452 11.75 12.2452 11.75 12.2452C11.75 12.2452 11.75 12.2452 11.75 12.2451C11.75 12.2451 11.75 12.2451 11.75 12.2451C11.75 12.2451 11.75 12.2451 11.75 12.2451C11.75 12.2451 11.75 12.245 11.75 12.245C11.75 12.245 11.75 12.245 11.75 12.245C11.75 12.2449 11.75 12.2449 11.75 12.2449C11.75 12.2449 11.75 12.2448 11.75 12.2448C11.75 12.2448 11.75 12.2447 11.75 12.2447C11.75 12.2447 11.75 12.2446 11.75 12.2446C11.75 12.2446 11.75 12.2445 11.75 12.2445C11.75 12.2445 11.75 12.2444 11.75 12.2444C11.75 12.2443 11.75 12.2443 11.75 12.2442C11.75 12.2442 11.75 12.2442 11.75 12.2441C11.75 12.2441 11.75 12.244 11.75 12.244C11.75 12.2439 11.75 12.2438 11.75 12.2438C11.75 12.2437 11.75 12.2437 11.75 12.2436C11.75 12.2436 11.75 12.2435 11.75 12.2434C11.75 12.2434 11.75 12.2433 11.75 12.2433C11.75 12.2432 11.75 12.2431 11.75 12.2431C11.75 12.243 11.75 12.2429 11.75 12.2429C11.75 12.2428 11.75 12.2427 11.75 12.2426C11.75 12.2426 11.75 12.2425 11.75 12.2424C11.75 12.2423 11.75 12.2423 11.75 12.2422C11.75 12.2421 11.75 12.242 11.75 12.2419C11.75 12.2419 11.75 12.2418 11.75 12.2417C11.75 12.2416 11.75 12.2415 11.75 12.2414C11.75 12.2413 11.75 12.2412 11.75 12.2411C11.75 12.2411 11.75 12.241 11.75 12.2409C11.75 12.2408 11.75 12.2407 11.75 12.2406C11.75 12.2405 11.75 12.2404 11.75 12.2403C11.75 12.2402 11.75 12.2401 11.75 12.24C11.75 12.2399 11.75 12.2398 11.75 12.2396C11.75 12.2395 11.75 12.2394 11.75 12.2393C11.75 12.2392 11.75 12.2391 11.75 12.239C11.75 12.2389 11.75 12.2387 11.75 12.2386C11.75 12.2385 11.75 12.2384 11.75 12.2383C11.75 12.2382 11.75 12.238 11.75 12.2379C11.75 12.2378 11.75 12.2377 11.75 12.2375C11.75 12.2374 11.75 12.2373 11.75 12.2371C11.75 12.237 11.75 12.2369 11.75 12.2368C11.75 12.2366 11.75 12.2365 11.75 12.2363C11.75 12.2362 11.75 12.2361 11.75 12.2359C11.75 12.2358 11.75 12.2357 11.75 12.2355C11.75 12.2354 11.75 12.2352 11.75 12.2351C11.75 12.2349 11.75 12.2348 11.75 12.2346C11.75 12.2345 11.75 12.2343 11.75 12.2342C11.75 12.234 11.75 12.2339 11.75 12.2337C11.75 12.2336 11.75 12.2334 11.75 12.2333C11.75 12.2331 11.75 12.2329 11.75 12.2328C11.75 12.2326 11.75 12.2325 11.75 12.2323C11.75 12.2321 11.75 12.232 11.75 12.2318C11.75 12.2316 11.75 12.2315 11.75 12.2313C11.75 12.2311 11.75 12.231 11.75 12.2308C11.75 12.2306 11.75 12.2304 11.75 12.2303C11.75 12.2301 11.75 12.2299 11.75 12.2297C11.75 12.2295 11.75 12.2294 11.75 12.2292C11.75 12.229 11.75 12.2288 11.75 12.2286C11.75 12.2284 11.75 12.2283 11.75 12.2281C11.75 12.2279 11.75 12.2277 11.75 12.2275C11.75 12.2273 11.75 12.2271 11.75 12.2269C11.75 12.2267 11.75 12.2265 11.75 12.2263C11.75 12.2261 11.75 12.2259 11.75 12.2257C11.75 12.2255 11.75 12.2253 11.75 12.2251C11.75 12.2249 11.75 12.2247 11.75 12.2245C11.75 12.2243 11.75 12.2241 11.75 12.2239C11.75 12.2237 11.75 12.2235 11.75 12.2233C11.75 12.223 11.75 12.2228 11.75 12.2226C11.75 12.2224 11.75 12.2222 11.75 12.222C11.75 12.2217 11.75 12.2215 11.75 12.2213C11.75 12.2211 11.75 12.2209 11.75 12.2206C11.75 12.2204 11.75 12.2202 11.75 12.22C11.75 12.2197 11.75 12.2195 11.75 12.2193C11.75 12.219 11.75 12.2188 11.75 12.2186C11.75 12.2183 11.75 12.2181 11.75 12.2179C11.75 12.2176 11.75 12.2174 11.75 12.2172C11.75 12.2169 11.75 12.2167 11.75 12.2164C11.75 12.2162 11.75 12.2159 11.75 12.2157C11.75 12.2155 11.75 12.2152 11.75 12.215C11.75 12.2147 11.75 12.2145 11.75 12.2142C11.75 12.214 11.75 12.2137 11.75 12.2135C11.75 12.2132 11.75 12.2129 11.75 12.2127C11.75 12.2124 11.75 12.2122 11.75 12.2119C11.75 12.2116 11.75 12.2114 11.75 12.2111C11.75 12.2109 11.75 12.2106 11.75 12.2103C11.75 12.2101 11.75 12.2098 11.75 12.2095C11.75 12.2093 11.75 12.209 11.75 12.2087C11.75 12.2084 11.75 12.2082 11.75 12.2079C11.75 12.2076 11.75 12.2073 11.75 12.2071C11.75 12.2068 11.75 12.2065 11.75 12.2062C11.75 12.2059 11.75 12.2057 11.75 12.2054C11.75 12.2051 11.75 12.2048 11.75 12.2045C11.75 12.2042 11.75 12.2039 11.75 12.2036C11.75 12.2034 11.75 12.2031 11.75 12.2028C11.75 12.2025 11.75 12.2022 11.75 12.2019C11.75 12.2016 11.75 12.2013 11.75 12.201C11.75 12.2007 11.75 12.2004 11.75 12.2001C11.75 12.1998 11.75 12.1995 11.75 12.1992C11.75 12.1989 11.75 12.1986 11.75 12.1983C11.75 12.198 11.75 12.1977 11.75 12.1973C11.75 12.197 11.75 12.1967 11.75 12.1964C11.75 12.1961 11.75 12.1958 11.75 12.1955C11.75 12.1951 11.75 12.1948 11.75 12.1945C11.75 12.1942 11.75 12.1939 11.75 12.1936C11.75 12.1932 11.75 12.1929 11.75 12.1926C11.75 12.1923 11.75 12.1919 11.75 12.1916C11.75 12.1913 11.75 12.1909 11.75 12.1906C11.75 12.1903 11.75 12.1899 11.75 12.1896C11.75 12.1893 11.75 12.1889 11.75 12.1886C11.75 12.1883 11.75 12.1879 11.75 12.1876C11.75 12.1873 11.75 12.1869 11.75 12.1866C11.75 12.1862 11.75 12.1859 11.75 12.1855C11.75 12.1852 11.75 12.1849 11.75 12.1845C11.75 12.1842 11.75 12.1838 11.75 12.1835C11.75 12.1831 11.75 12.1828 11.75 12.1824C11.75 12.182 11.75 12.1817 11.75 12.1813C11.75 12.181 11.75 12.1806 11.75 12.1803C11.75 12.1799 11.75 12.1795 11.75 12.1792C11.75 12.1788 11.75 12.1784 11.75 12.1781C11.75 12.1777 11.75 12.1774 11.75 12.177C11.75 12.1766 11.75 12.1762 11.75 12.1759C11.75 12.1755 11.75 12.1751 11.75 12.1748C11.75 12.1744 11.75 12.174 11.75 12.1736C11.75 12.1733 11.75 12.1729 11.75 12.1725C11.75 12.1721 11.75 12.1717 11.75 12.1714C11.75 12.171 11.75 12.1706 11.75 12.1702C11.75 12.1698 11.75 12.1694 11.75 12.169C11.75 12.1687 11.75 12.1683 11.75 12.1679C11.75 12.1675 11.75 12.1671 11.75 12.1667C11.75 12.1663 11.75 12.1659 11.75 12.1655C11.75 12.1651 11.75 12.1647 11.75 12.1643C11.75 12.1639 11.75 12.1635 11.75 12.1631C11.75 12.1627 11.75 12.1623 11.75 12.1619C11.75 12.1615 11.75 12.1611 11.75 12.1607C11.75 12.1603 11.75 12.1599 11.75 12.1595C11.75 12.1591 11.75 12.1586 11.75 12.1582C11.75 12.1578 11.75 12.1574 11.75 12.157C11.75 12.1566 11.75 12.1561 11.75 12.1557C11.75 12.1553 11.75 12.1549 11.75 12.1545C11.75 12.154 11.75 12.1536 11.75 12.1532C11.75 12.1528 11.75 12.1523 11.75 12.1519C11.75 12.1515 11.75 12.1511 11.75 12.1506C11.75 12.1502 11.75 12.1498 11.75 12.1493C11.75 12.1489 11.75 12.1485 11.75 12.148C11.75 12.1476 11.75 12.1472 11.75 12.1467C11.75 12.1463 11.75 12.1459 11.75 12.1454C11.75 12.145 11.75 12.1445 11.75 12.1441C11.75 12.1436 11.75 12.1432 11.75 12.1427C11.75 12.1423 11.75 12.1419 11.75 12.1414C11.75 12.141 11.75 12.1405 11.75 12.14C11.75 12.1396 11.75 12.1391 11.75 12.1387C11.75 12.1382 11.75 12.1378 11.75 12.1373C11.75 12.1369 11.75 12.1364 11.75 12.1359C11.75 12.1355 11.75 12.135 11.75 12.1346C11.75 12.1341 11.75 12.1336 11.75 12.1332C11.75 12.1327 11.75 12.1322 11.75 12.1318C11.75 12.1313 11.75 12.1308 11.75 12.1304C11.75 12.1299 11.75 12.1294 11.75 12.1289C11.75 12.1285 11.75 12.128 11.75 12.1275C11.75 12.127 11.75 12.1266 11.75 12.1261C11.75 12.1256 11.75 12.1251 11.75 12.1246C11.75 12.1241 11.75 12.1237 11.75 12.1232C11.75 12.1227 11.75 12.1222 11.75 12.1217C11.75 12.1212 11.75 12.1207 11.75 12.1203C11.75 12.1198 11.75 12.1193 11.75 12.1188C11.75 12.1183 11.75 12.1178 11.75 12.1173C11.75 12.1168 11.75 12.1163 11.75 12.1158C11.75 12.1153 11.75 12.1148 11.75 12.1143C11.75 12.1138 11.75 12.1133 11.75 12.1128C11.75 12.1123 11.75 12.1118 11.75 12.1113C11.75 12.1108 11.75 12.1103 11.75 12.1098C11.75 12.1092 11.75 12.1087 11.75 12.1082C11.75 12.1077 11.75 12.1072 11.75 12.1067C11.75 12.1062 11.75 12.1056 11.75 12.1051C11.75 12.1046 11.75 12.1041 11.75 12.1036C11.75 12.1031 11.75 12.1025 11.75 12.102C11.75 12.1015 11.75 12.101 11.75 12.1004C11.75 12.0999 11.75 12.0994 11.75 12.0989C11.75 12.0983 11.75 12.0978 11.75 12.0973C11.75 12.0967 11.75 12.0962 11.75 12.0957C11.75 12.0951 11.75 12.0946 11.75 12.0941C11.75 12.0935 11.75 12.093 11.75 12.0925C11.75 12.0919 11.75 12.0914 11.75 12.0908C11.75 12.0903 11.75 12.0898 11.75 12.0892C11.75 12.0887 11.75 12.0881 11.75 12.0876C11.75 12.087 11.75 12.0865 11.75 12.0859C11.75 12.0854 11.75 12.0848 11.75 12.0843C11.75 12.0837 11.75 12.0832 11.75 12.0826C11.75 12.0821 11.75 12.0815 11.75 12.0809C11.75 12.0804 11.75 12.0798 11.75 12.0793C11.75 12.0787 11.75 12.0782 11.75 12.0776C11.75 12.077 11.75 12.0765 11.75 12.0759C11.75 12.0753 11.75 12.0748 11.75 12.0742C11.75 12.0736 11.75 12.0731 11.75 12.0725C11.75 12.0719 11.75 12.0713 11.75 12.0708C11.75 12.0702 11.75 12.0696 11.75 12.0691C11.75 12.0685 11.75 12.0679 11.75 12.0673C11.75 12.0667 11.75 12.0662 11.75 12.0656C11.75 12.065 11.75 12.0644 11.75 12.0638C11.75 12.0633 11.75 12.0627 11.75 12.0621C11.75 12.0615 11.75 12.0609 11.75 12.0603C11.75 12.0597 11.75 12.0591 11.75 12.0585C11.75 12.058 11.75 12.0574 11.75 12.0568C11.75 12.0562 11.75 12.0556 11.75 12.055C11.75 12.0544 11.75 12.0538 11.75 12.0532C11.75 12.0526 11.75 12.052 11.75 12.0514C11.75 12.0508 11.75 12.0502 11.75 12.0496C11.75 12.049 11.75 12.0484 11.75 12.0478C11.75 12.0472 11.75 12.0466 11.75 12.0459C11.75 12.0453 11.75 12.0447 11.75 12.0441C11.75 12.0435 11.75 12.0429 11.75 12.0423C11.75 12.0417 11.75 12.041 11.75 12.0404C11.75 12.0398 11.75 12.0392 11.75 12.0386C11.75 12.0379 11.75 12.0373 11.75 12.0367C11.75 12.0361 11.75 12.0355 11.75 12.0348C11.75 12.0342 11.75 12.0336 11.75 12.033C11.75 12.0323 11.75 12.0317 11.75 12.0311C11.75 12.0304 11.75 12.0298 11.75 12.0292C11.75 12.0285 11.75 12.0279 11.75 12.0273C11.75 12.0266 11.75 12.026 11.75 12.0254C11.75 12.0247 11.75 12.0241 11.75 12.0235C11.75 12.0228 11.75 12.0222 11.75 12.0215C11.75 12.0209 11.75 12.0202 11.75 12.0196C11.75 12.019 11.75 12.0183 11.75 12.0177C11.75 12.017 11.75 12.0164 11.75 12.0157C11.75 12.0151 11.75 12.0144 11.75 12.0138C11.75 12.0131 11.75 12.0125 11.75 12.0118C11.75 12.0111 11.75 12.0105 11.75 12.0098C11.75 12.0092 11.75 12.0085 11.75 12.0079C11.75 12.0072 11.75 12.0065 11.75 12.0059C11.75 12.0052 11.75 12.0045 11.75 12.0039C11.75 12.0032 11.75 12.0025 11.75 12.0019C11.75 12.0012 11.75 12.0005 11.75 11.9999C11.75 11.9992 11.75 11.9985 11.75 11.9979C11.75 11.9972 11.75 11.9965 11.75 11.9958C11.75 11.9952 11.75 11.9945 11.75 11.9938C11.75 11.9931 11.75 11.9925 11.75 11.9918C11.75 11.9911 11.75 11.9904 11.75 11.9897C11.75 11.989 11.75 11.9884 11.75 11.9877C11.75 11.987 11.75 11.9863 11.75 11.9856C11.75 11.9849 11.75 11.9842 11.75 11.9836C11.75 11.9829 11.75 11.9822 11.75 11.9815C11.75 11.9808 11.75 11.9801 11.75 11.9794C11.75 11.9787 11.75 11.978 11.75 11.9773C11.75 11.9766 11.75 11.9759 11.75 11.9752C11.75 11.9745 11.75 11.9738 11.75 11.9731C11.75 11.9724 11.75 11.9717 11.75 11.971C11.75 11.9703 11.75 11.9696 11.75 11.9689C11.75 11.9682 11.75 11.9675 11.75 11.9668C11.75 11.966 11.75 11.9653 11.75 11.9646C11.75 11.9639 11.75 11.9632 11.75 11.9625C11.75 11.9618 11.75 11.9611 11.75 11.9603C11.75 11.9596 11.75 11.9589 11.75 11.9582C11.75 11.9575 11.75 11.9567 11.75 11.956C11.75 11.9553 11.75 11.9546 11.75 11.9539C11.75 11.9531 11.75 11.9524 11.75 11.9517C11.75 11.951 11.75 11.9502 11.75 11.9495C11.75 11.9488 11.75 11.948 11.75 11.9473C11.75 11.9466 11.75 11.9458 11.75 11.9451C11.75 11.9444 11.75 11.9436 11.75 11.9429C11.75 11.9422 11.75 11.9414 11.75 11.9407C11.75 11.9399 11.75 11.9392 11.75 11.9385C11.75 11.9377 11.75 11.937 11.75 11.9362C11.75 11.9355 11.75 11.9348 11.75 11.934C11.75 11.9333 11.75 11.9325 11.75 11.9318C11.75 11.931 11.75 11.9303 11.75 11.9295C11.75 11.9288 11.75 11.928 11.75 11.9273C11.75 11.9265 11.75 11.9258 11.75 11.925C11.75 11.9242 11.75 11.9235 11.75 11.9227C11.75 11.922 11.75 11.9212 11.75 11.9205C11.75 11.9197 11.75 11.9189 11.75 11.9182C11.75 11.9174 11.75 11.9166 11.75 11.9159C11.75 11.9151 11.75 11.9143 11.75 11.9136C11.75 11.9128 11.75 11.912 11.75 11.9113C11.75 11.9105 11.75 11.9097 11.75 11.909C11.75 11.9082 11.75 11.9074 11.75 11.9066C11.75 11.9059 11.75 11.9051 11.75 11.9043C11.75 11.9035 11.75 11.9028 11.75 11.902C11.75 11.9012 11.75 11.9004 11.75 11.8996C11.75 11.8989 11.75 11.8981 11.75 11.8973C11.75 11.8965 11.75 11.8957 11.75 11.8949C11.75 11.8941 11.75 11.8934 11.75 11.8926C11.75 11.8918 11.75 11.891 11.75 11.8902C11.75 11.8894 11.75 11.8886 11.75 11.8878C11.75 11.887 11.75 11.8862 11.75 11.8854C11.75 11.8846 11.75 11.8839 11.75 11.8831C11.75 11.8823 11.75 11.8815 11.75 11.8807C11.75 11.8799 11.75 11.8791 11.75 11.8783C11.75 11.8775 11.75 11.8766 11.75 11.8758C11.75 11.875 11.75 11.8742 11.75 11.8734C11.75 11.8726 11.75 11.8718 11.75 11.871C11.75 11.8702 11.75 11.8694 11.75 11.8686C11.75 11.8678 11.75 11.8669 11.75 11.8661C11.75 11.8653 11.75 11.8645 11.75 11.8637C11.75 11.8629 11.75 11.862 11.75 11.8612C11.75 11.8604 11.75 11.8596 11.75 11.8588C11.75 11.858 11.75 11.8571 11.75 11.8563C11.75 11.8555 11.75 11.8547 11.75 11.8538C11.75 11.853 11.75 11.8522 11.75 11.8514C11.75 11.8505 11.75 11.8497 11.75 11.8489C11.75 11.848 11.75 11.8472 11.75 11.8464C11.75 11.8455 11.75 11.8447 11.75 11.8439C11.75 11.843 11.75 11.8422 11.75 11.8414C11.75 11.8405 11.75 11.8397 11.75 11.8388C11.75 11.838 11.75 11.8372 11.75 11.8363C11.75 11.8355 11.75 11.8346 11.75 11.8338C11.75 11.833 11.75 11.8321 11.75 11.8313C11.75 11.8304 11.75 11.8296 11.75 11.8287C11.75 11.8279 11.75 11.827 11.75 11.8262C11.75 11.8253 11.75 11.8245 11.75 11.8236C11.75 11.8228 11.75 11.8219 11.75 11.8211C11.75 11.8202 11.75 11.8193 11.75 11.8185C11.75 11.8176 11.75 11.8168 11.75 11.8159C11.75 11.8151 11.75 11.8142 11.75 11.8133C11.75 11.8125 11.75 11.8116 11.75 11.8107C11.75 11.8099 11.75 11.809 11.75 11.8081C11.75 11.8073 11.75 11.8064 11.75 11.8055C11.75 11.8047 11.75 11.8038 11.75 11.8029C11.75 11.8021 11.75 11.8012 11.75 11.8003C11.75 11.7994 11.75 11.7986 11.75 11.7977C11.75 11.7968 11.75 11.7959 11.75 11.7951C11.75 11.7942 11.75 11.7933 11.75 11.7924C11.75 11.7916 11.75 11.7907 11.75 11.7898C11.75 11.7889 11.75 11.788 11.75 11.7871C11.75 11.7863 11.75 11.7854 11.75 11.7845C11.75 11.7836 11.75 11.7827 11.75 11.7818C11.75 11.7809 11.75 11.7801 11.75 11.7792C11.75 11.7783 11.75 11.7774 11.75 11.7765C11.75 11.7756 11.75 11.7747 11.75 11.7738C11.75 11.7729 11.75 11.772 11.75 11.7711C11.75 11.7702 11.75 11.7693 11.75 11.7684C11.75 11.7675 11.75 11.7666 11.75 11.7657C11.75 11.7648 11.75 11.7639 11.75 11.763C11.75 11.7621 11.75 11.7612 11.75 11.7603C11.75 11.7594 11.75 11.7585 11.75 11.7576C11.75 11.7567 11.75 11.7558 11.75 11.7548C11.75 11.7539 11.75 11.753 11.75 11.7521C11.75 11.7512 11.75 11.7503 11.75 11.7494C11.75 11.7485 11.75 11.7475 11.75 11.7466C11.75 11.7457 11.75 11.7448 11.75 11.7439C11.75 11.743 11.75 11.742 11.75 11.7411C11.75 11.7402 11.75 11.7393 11.75 11.7383C11.75 11.7374 11.75 11.7365 11.75 11.7356C11.75 11.7346 11.75 11.7337 11.75 11.7328C11.75 11.7319 11.75 11.7309 11.75 11.73C11.75 11.7291 11.75 11.7281 11.75 11.7272C11.75 11.7263 11.75 11.7254 11.75 11.7244C11.75 11.7235 11.75 11.7225 11.75 11.7216C11.75 11.7207 11.75 11.7197 11.75 11.7188C11.75 11.7179 11.75 11.7169 11.75 11.716C11.75 11.715 11.75 11.7141 11.75 11.7132C11.75 11.7122 11.75 11.7113 11.75 11.7103C11.75 11.7094 11.75 11.7084 11.75 11.7075C11.75 11.7065 11.75 11.7056 11.75 11.7046C11.75 11.7037 11.75 11.7028 11.75 11.7018C11.75 11.7008 11.75 11.6999 11.75 11.6989C11.75 11.698 11.75 11.697 11.75 11.6961C11.75 11.6951 11.75 11.6942 11.75 11.6932C11.75 11.6923 11.75 11.6913 11.75 11.6903C11.75 11.6894 11.75 11.6884 11.75 11.6875C11.75 11.6865 11.75 11.6855 11.75 11.6846C11.75 11.6836 11.75 11.6826 11.75 11.6817C11.75 11.6807 11.75 11.6797 11.75 11.6788C11.75 11.6778 11.75 11.6768 11.75 11.6759C11.75 11.6749 11.75 11.6739 11.75 11.673C11.75 11.672 11.75 11.671 11.75 11.67C11.75 11.6691 11.75 11.6681 11.75 11.6671C11.75 11.6661 11.75 11.6652 11.75 11.6642C11.75 11.6632 11.75 11.6622 11.75 11.6612C11.75 11.6603 11.75 11.6593 11.75 11.6583C11.75 11.6573 11.75 11.6563 11.75 11.6554C11.75 11.6544 11.75 11.6534 11.75 11.6524C11.75 11.6514 11.75 11.6504 11.75 11.6494C11.75 11.6484 11.75 11.6475 11.75 11.6465C11.75 11.6455 11.75 11.6445 11.75 11.6435C11.75 11.6425 11.75 11.6415 11.75 11.6405C11.75 11.6395 11.75 11.6385 11.75 11.6375C11.75 11.6365 11.75 11.6355 11.75 11.6345C11.75 11.6335 11.75 11.6325 11.75 11.6315C11.75 11.6305 11.75 11.6295 11.75 11.6285C11.75 11.6275 11.75 11.6265 11.75 11.6255C11.75 11.6245 11.75 11.6235 11.75 11.6225C11.75 11.6215 11.75 11.6205 11.75 11.6195C11.75 11.6185 11.75 11.6175 11.75 11.6165C11.75 11.6154 11.75 11.6144 11.75 11.6134C11.75 11.6124 11.75 11.6114 11.75 11.6104C11.75 11.6094 11.75 11.6083 11.75 11.6073C11.75 11.6063 11.75 11.6053 11.75 11.6043C11.75 11.6033 11.75 11.6022 11.75 11.6012C11.75 11.6002 11.75 11.5992 11.75 11.5981C11.75 11.5971 11.75 11.5961 11.75 11.5951C11.75 11.5941 11.75 11.593 11.75 11.592C11.75 11.591 11.75 11.5899 11.75 11.5889C11.75 11.5879 11.75 11.5869 11.75 11.5858C11.75 11.5848 11.75 11.5838 11.75 11.5827C11.75 11.5817 11.75 11.5807 11.75 11.5796C11.75 11.5786 11.75 11.5776 11.75 11.5765C11.75 11.5755 11.75 11.5745 11.75 11.5734C11.75 11.5724 11.75 11.5713 11.75 11.5703C11.75 11.5693 11.75 11.5682 11.75 11.5672C11.75 11.5661 11.75 11.5651 11.75 11.564C11.75 11.563 11.75 11.5619 11.75 11.5609C11.75 11.5599 11.75 11.5588 11.75 11.5578C11.75 11.5567 11.75 11.5557 11.75 11.5546C11.75 11.5536 11.75 11.5525 11.75 11.5515C11.75 11.5504 11.75 11.5493 11.75 11.5483C11.75 11.5472 11.75 11.5462 11.75 11.5451C11.75 11.5441 11.75 11.543 11.75 11.542C11.75 11.5409 11.75 11.5398 11.75 11.5388C11.75 11.5377 11.75 11.5367 11.75 11.5356C11.75 11.5345 11.75 11.5335 11.75 11.5324C11.75 11.5313 11.75 11.5303 11.75 11.5292C11.75 11.5281 11.75 11.5271 11.75 11.526C11.75 11.5249 11.75 11.5239 11.75 11.5228C11.75 11.5217 11.75 11.5207 11.75 11.5196C11.75 11.5185 11.75 11.5174 11.75 11.5164C11.75 11.5153 11.75 11.5142 11.75 11.5131C11.75 11.5121 11.75 11.511 11.75 11.5099C11.75 11.5088 11.75 11.5078 11.75 11.5067C11.75 11.5056 11.75 11.5045 11.75 11.5034C11.75 11.5024 11.75 11.5013 11.75 11.5002C11.75 11.4991 11.75 11.498 11.75 11.4969C11.75 11.4959 11.75 11.4948 11.75 11.4937C11.75 11.4926 11.75 11.4915 11.75 11.4904C11.75 11.4893 11.75 11.4882 11.75 11.4872C11.75 11.4861 11.75 11.485 11.75 11.4839C11.75 11.4828 11.75 11.4817 11.75 11.4806C11.75 11.4795 11.75 11.4784 11.75 11.4773C11.75 11.4762 11.75 11.4751 11.75 11.474C11.75 11.4729 11.75 11.4718 11.75 11.4707C11.75 11.4696 11.75 11.4685 11.75 11.4674C11.75 11.4663 11.75 11.4652 11.75 11.4641C11.75 11.463 11.75 11.4619 11.75 11.4608C11.75 11.4597 11.75 11.4586 11.75 11.4575C11.75 11.4564 11.75 11.4553 11.75 11.4541C11.75 11.453 11.75 11.4519 11.75 11.4508C11.75 11.4497 11.75 11.4486 11.75 11.4475C11.75 11.4464 11.75 11.4453 11.75 11.4441C11.75 11.443 11.75 11.4419 11.75 11.4408C11.75 11.4397 11.75 11.4386 11.75 11.4374C11.75 11.4363 11.75 11.4352 11.75 11.4341C11.75 11.433 11.75 11.4318 11.75 11.4307C11.75 11.4296 11.75 11.4285 11.75 11.4273C11.75 11.4262 11.75 11.4251 11.75 11.424C11.75 11.4228 11.75 11.4217 11.75 11.4206C11.75 11.4195 11.75 11.4183 11.75 11.4172C11.75 11.4161 11.75 11.4149 11.75 11.4138C11.75 11.4127 11.75 11.4115 11.75 11.4104C11.75 11.4093 11.75 11.4081 11.75 11.407C11.75 11.4059 11.75 11.4047 11.75 11.4036C11.75 11.4025 11.75 11.4013 11.75 11.4002C11.75 11.399 11.75 11.3979 11.75 11.3968C11.75 11.3956 11.75 11.3945 11.75 11.3933C11.75 11.3922 11.75 11.3911 11.75 11.3899C11.75 11.3888 11.75 11.3876 11.75 11.3865C11.75 11.3853 11.75 11.3842 11.75 11.383C11.75 11.3819 11.75 11.3807 11.75 11.3796C11.75 11.3784 11.75 11.3773 11.75 11.3761C11.75 11.375 11.75 11.3738 11.75 11.3727C11.75 11.3715 11.75 11.3704 11.75 11.3692C11.75 11.3681 11.75 11.3669 11.75 11.3658C11.75 11.3646 11.75 11.3634 11.75 11.3623C11.75 11.3611 11.75 11.36 11.75 11.3588C11.75 11.3576 11.75 11.3565 11.75 11.3553C11.75 11.3542 11.75 11.353 11.75 11.3518C11.75 11.3507 11.75 11.3495 11.75 11.3483C11.75 11.3472 11.75 11.346 11.75 11.3448C11.75 11.3437 11.75 11.3425 11.75 11.3413C11.75 11.3402 11.75 11.339 11.75 11.3378C11.75 11.3366 11.75 11.3355 11.75 11.3343C11.75 11.3331 11.75 11.332 11.75 11.3308C11.75 11.3296 11.75 11.3284 11.75 11.3273C11.75 11.3261 11.75 11.3249 11.75 11.3237C11.75 11.3226 11.75 11.3214 11.75 11.3202C11.75 11.319 11.75 11.3178 11.75 11.3167C11.75 11.3155 11.75 11.3143 11.75 11.3131C11.75 11.3119 11.75 11.3107 11.75 11.3096C11.75 11.3084 11.75 11.3072 11.75 11.306C11.75 11.3048 11.75 11.3036 11.75 11.3024C11.75 11.3012 11.75 11.3001 11.75 11.2989C11.75 11.2977 11.75 11.2965 11.75 11.2953C11.75 11.2941 11.75 11.2929 11.75 11.2917C11.75 11.2905 11.75 11.2893 11.75 11.2881C11.75 11.2869 11.75 11.2857 11.75 11.2845C11.75 11.2834 11.75 11.2822 11.75 11.281C11.75 11.2798 11.75 11.2786 11.75 11.2774C11.75 11.2762 11.75 11.275 11.75 11.2738C11.75 11.2726 11.75 11.2714 11.75 11.2701C11.75 11.2689 11.75 11.2677 11.75 11.2665C11.75 11.2653 11.75 11.2641 11.75 11.2629C11.75 11.2617 11.75 11.2605 11.75 11.2593C11.75 11.2581 11.75 11.2569 11.75 11.2557C11.75 11.2545 11.75 11.2532 11.75 11.252C11.75 11.2508 11.75 11.2496 11.75 11.2484C11.75 11.2472 11.75 11.246 11.75 11.2448C11.75 11.2435 11.75 11.2423 11.75 11.2411C11.75 11.2399 11.75 11.2387 11.75 11.2375C11.75 11.2362 11.75 11.235 11.75 11.2338C11.75 11.2326 11.75 11.2314 11.75 11.2301C11.75 11.2289 11.75 11.2277 11.75 11.2265C11.75 11.2252 11.75 11.224 11.75 11.2228C11.75 11.2216 11.75 11.2203 11.75 11.2191C11.75 11.2179 11.75 11.2167 11.75 11.2154C11.75 11.2142 11.75 11.213 11.75 11.2117C11.75 11.2105 11.75 11.2093 11.75 11.208C11.75 11.2068 11.75 11.2056 11.75 11.2043C11.75 11.2031 11.75 11.2019 11.75 11.2006C11.75 11.1994 11.75 11.1982 11.75 11.1969C11.75 11.1957 11.75 11.1945 11.75 11.1932C11.75 11.192 11.75 11.1907 11.75 11.1895C11.75 11.1883 11.75 11.187 11.75 11.1858H10.25C10.25 11.187 10.25 11.1883 10.25 11.1895C10.25 11.1907 10.25 11.192 10.25 11.1932C10.25 11.1945 10.25 11.1957 10.25 11.1969C10.25 11.1982 10.25 11.1994 10.25 11.2006C10.25 11.2019 10.25 11.2031 10.25 11.2043C10.25 11.2056 10.25 11.2068 10.25 11.208C10.25 11.2093 10.25 11.2105 10.25 11.2117C10.25 11.213 10.25 11.2142 10.25 11.2154C10.25 11.2167 10.25 11.2179 10.25 11.2191C10.25 11.2203 10.25 11.2216 10.25 11.2228C10.25 11.224 10.25 11.2252 10.25 11.2265C10.25 11.2277 10.25 11.2289 10.25 11.2301C10.25 11.2314 10.25 11.2326 10.25 11.2338C10.25 11.235 10.25 11.2362 10.25 11.2375C10.25 11.2387 10.25 11.2399 10.25 11.2411C10.25 11.2423 10.25 11.2435 10.25 11.2448C10.25 11.246 10.25 11.2472 10.25 11.2484C10.25 11.2496 10.25 11.2508 10.25 11.252C10.25 11.2532 10.25 11.2545 10.25 11.2557C10.25 11.2569 10.25 11.2581 10.25 11.2593C10.25 11.2605 10.25 11.2617 10.25 11.2629C10.25 11.2641 10.25 11.2653 10.25 11.2665C10.25 11.2677 10.25 11.2689 10.25 11.2701C10.25 11.2714 10.25 11.2726 10.25 11.2738C10.25 11.275 10.25 11.2762 10.25 11.2774C10.25 11.2786 10.25 11.2798 10.25 11.281C10.25 11.2822 10.25 11.2834 10.25 11.2845C10.25 11.2857 10.25 11.2869 10.25 11.2881C10.25 11.2893 10.25 11.2905 10.25 11.2917C10.25 11.2929 10.25 11.2941 10.25 11.2953C10.25 11.2965 10.25 11.2977 10.25 11.2989C10.25 11.3001 10.25 11.3012 10.25 11.3024C10.25 11.3036 10.25 11.3048 10.25 11.306C10.25 11.3072 10.25 11.3084 10.25 11.3096C10.25 11.3107 10.25 11.3119 10.25 11.3131C10.25 11.3143 10.25 11.3155 10.25 11.3167C10.25 11.3178 10.25 11.319 10.25 11.3202C10.25 11.3214 10.25 11.3226 10.25 11.3237C10.25 11.3249 10.25 11.3261 10.25 11.3273C10.25 11.3284 10.25 11.3296 10.25 11.3308C10.25 11.332 10.25 11.3331 10.25 11.3343C10.25 11.3355 10.25 11.3366 10.25 11.3378C10.25 11.339 10.25 11.3402 10.25 11.3413C10.25 11.3425 10.25 11.3437 10.25 11.3448C10.25 11.346 10.25 11.3472 10.25 11.3483C10.25 11.3495 10.25 11.3507 10.25 11.3518C10.25 11.353 10.25 11.3542 10.25 11.3553C10.25 11.3565 10.25 11.3576 10.25 11.3588C10.25 11.36 10.25 11.3611 10.25 11.3623C10.25 11.3634 10.25 11.3646 10.25 11.3658C10.25 11.3669 10.25 11.3681 10.25 11.3692C10.25 11.3704 10.25 11.3715 10.25 11.3727C10.25 11.3738 10.25 11.375 10.25 11.3761C10.25 11.3773 10.25 11.3784 10.25 11.3796C10.25 11.3807 10.25 11.3819 10.25 11.383C10.25 11.3842 10.25 11.3853 10.25 11.3865C10.25 11.3876 10.25 11.3888 10.25 11.3899C10.25 11.3911 10.25 11.3922 10.25 11.3933C10.25 11.3945 10.25 11.3956 10.25 11.3968C10.25 11.3979 10.25 11.399 10.25 11.4002C10.25 11.4013 10.25 11.4025 10.25 11.4036C10.25 11.4047 10.25 11.4059 10.25 11.407C10.25 11.4081 10.25 11.4093 10.25 11.4104C10.25 11.4115 10.25 11.4127 10.25 11.4138C10.25 11.4149 10.25 11.4161 10.25 11.4172C10.25 11.4183 10.25 11.4195 10.25 11.4206C10.25 11.4217 10.25 11.4228 10.25 11.424C10.25 11.4251 10.25 11.4262 10.25 11.4273C10.25 11.4285 10.25 11.4296 10.25 11.4307C10.25 11.4318 10.25 11.433 10.25 11.4341C10.25 11.4352 10.25 11.4363 10.25 11.4374C10.25 11.4386 10.25 11.4397 10.25 11.4408C10.25 11.4419 10.25 11.443 10.25 11.4441C10.25 11.4453 10.25 11.4464 10.25 11.4475C10.25 11.4486 10.25 11.4497 10.25 11.4508C10.25 11.4519 10.25 11.453 10.25 11.4541C10.25 11.4553 10.25 11.4564 10.25 11.4575C10.25 11.4586 10.25 11.4597 10.25 11.4608C10.25 11.4619 10.25 11.463 10.25 11.4641C10.25 11.4652 10.25 11.4663 10.25 11.4674C10.25 11.4685 10.25 11.4696 10.25 11.4707C10.25 11.4718 10.25 11.4729 10.25 11.474C10.25 11.4751 10.25 11.4762 10.25 11.4773C10.25 11.4784 10.25 11.4795 10.25 11.4806C10.25 11.4817 10.25 11.4828 10.25 11.4839C10.25 11.485 10.25 11.4861 10.25 11.4872C10.25 11.4882 10.25 11.4893 10.25 11.4904C10.25 11.4915 10.25 11.4926 10.25 11.4937C10.25 11.4948 10.25 11.4959 10.25 11.4969C10.25 11.498 10.25 11.4991 10.25 11.5002C10.25 11.5013 10.25 11.5024 10.25 11.5034C10.25 11.5045 10.25 11.5056 10.25 11.5067C10.25 11.5078 10.25 11.5088 10.25 11.5099C10.25 11.511 10.25 11.5121 10.25 11.5131C10.25 11.5142 10.25 11.5153 10.25 11.5164C10.25 11.5174 10.25 11.5185 10.25 11.5196C10.25 11.5207 10.25 11.5217 10.25 11.5228C10.25 11.5239 10.25 11.5249 10.25 11.526C10.25 11.5271 10.25 11.5281 10.25 11.5292C10.25 11.5303 10.25 11.5313 10.25 11.5324C10.25 11.5335 10.25 11.5345 10.25 11.5356C10.25 11.5367 10.25 11.5377 10.25 11.5388C10.25 11.5398 10.25 11.5409 10.25 11.542C10.25 11.543 10.25 11.5441 10.25 11.5451C10.25 11.5462 10.25 11.5472 10.25 11.5483C10.25 11.5493 10.25 11.5504 10.25 11.5515C10.25 11.5525 10.25 11.5536 10.25 11.5546C10.25 11.5557 10.25 11.5567 10.25 11.5578C10.25 11.5588 10.25 11.5599 10.25 11.5609C10.25 11.5619 10.25 11.563 10.25 11.564C10.25 11.5651 10.25 11.5661 10.25 11.5672C10.25 11.5682 10.25 11.5693 10.25 11.5703C10.25 11.5713 10.25 11.5724 10.25 11.5734C10.25 11.5745 10.25 11.5755 10.25 11.5765C10.25 11.5776 10.25 11.5786 10.25 11.5796C10.25 11.5807 10.25 11.5817 10.25 11.5827C10.25 11.5838 10.25 11.5848 10.25 11.5858C10.25 11.5869 10.25 11.5879 10.25 11.5889C10.25 11.5899 10.25 11.591 10.25 11.592C10.25 11.593 10.25 11.5941 10.25 11.5951C10.25 11.5961 10.25 11.5971 10.25 11.5981C10.25 11.5992 10.25 11.6002 10.25 11.6012C10.25 11.6022 10.25 11.6033 10.25 11.6043C10.25 11.6053 10.25 11.6063 10.25 11.6073C10.25 11.6083 10.25 11.6094 10.25 11.6104C10.25 11.6114 10.25 11.6124 10.25 11.6134C10.25 11.6144 10.25 11.6154 10.25 11.6165C10.25 11.6175 10.25 11.6185 10.25 11.6195C10.25 11.6205 10.25 11.6215 10.25 11.6225C10.25 11.6235 10.25 11.6245 10.25 11.6255C10.25 11.6265 10.25 11.6275 10.25 11.6285C10.25 11.6295 10.25 11.6305 10.25 11.6315C10.25 11.6325 10.25 11.6335 10.25 11.6345C10.25 11.6355 10.25 11.6365 10.25 11.6375C10.25 11.6385 10.25 11.6395 10.25 11.6405C10.25 11.6415 10.25 11.6425 10.25 11.6435C10.25 11.6445 10.25 11.6455 10.25 11.6465C10.25 11.6475 10.25 11.6484 10.25 11.6494C10.25 11.6504 10.25 11.6514 10.25 11.6524C10.25 11.6534 10.25 11.6544 10.25 11.6554C10.25 11.6563 10.25 11.6573 10.25 11.6583C10.25 11.6593 10.25 11.6603 10.25 11.6612C10.25 11.6622 10.25 11.6632 10.25 11.6642C10.25 11.6652 10.25 11.6661 10.25 11.6671C10.25 11.6681 10.25 11.6691 10.25 11.67C10.25 11.671 10.25 11.672 10.25 11.673C10.25 11.6739 10.25 11.6749 10.25 11.6759C10.25 11.6768 10.25 11.6778 10.25 11.6788C10.25 11.6797 10.25 11.6807 10.25 11.6817C10.25 11.6826 10.25 11.6836 10.25 11.6846C10.25 11.6855 10.25 11.6865 10.25 11.6875C10.25 11.6884 10.25 11.6894 10.25 11.6903C10.25 11.6913 10.25 11.6923 10.25 11.6932C10.25 11.6942 10.25 11.6951 10.25 11.6961C10.25 11.697 10.25 11.698 10.25 11.6989C10.25 11.6999 10.25 11.7008 10.25 11.7018C10.25 11.7028 10.25 11.7037 10.25 11.7046C10.25 11.7056 10.25 11.7065 10.25 11.7075C10.25 11.7084 10.25 11.7094 10.25 11.7103C10.25 11.7113 10.25 11.7122 10.25 11.7132C10.25 11.7141 10.25 11.715 10.25 11.716C10.25 11.7169 10.25 11.7179 10.25 11.7188C10.25 11.7197 10.25 11.7207 10.25 11.7216C10.25 11.7225 10.25 11.7235 10.25 11.7244C10.25 11.7254 10.25 11.7263 10.25 11.7272C10.25 11.7281 10.25 11.7291 10.25 11.73C10.25 11.7309 10.25 11.7319 10.25 11.7328C10.25 11.7337 10.25 11.7346 10.25 11.7356C10.25 11.7365 10.25 11.7374 10.25 11.7383C10.25 11.7393 10.25 11.7402 10.25 11.7411C10.25 11.742 10.25 11.743 10.25 11.7439C10.25 11.7448 10.25 11.7457 10.25 11.7466C10.25 11.7475 10.25 11.7485 10.25 11.7494C10.25 11.7503 10.25 11.7512 10.25 11.7521C10.25 11.753 10.25 11.7539 10.25 11.7548C10.25 11.7558 10.25 11.7567 10.25 11.7576C10.25 11.7585 10.25 11.7594 10.25 11.7603C10.25 11.7612 10.25 11.7621 10.25 11.763C10.25 11.7639 10.25 11.7648 10.25 11.7657C10.25 11.7666 10.25 11.7675 10.25 11.7684C10.25 11.7693 10.25 11.7702 10.25 11.7711C10.25 11.772 10.25 11.7729 10.25 11.7738C10.25 11.7747 10.25 11.7756 10.25 11.7765C10.25 11.7774 10.25 11.7783 10.25 11.7792C10.25 11.7801 10.25 11.7809 10.25 11.7818C10.25 11.7827 10.25 11.7836 10.25 11.7845C10.25 11.7854 10.25 11.7863 10.25 11.7871C10.25 11.788 10.25 11.7889 10.25 11.7898C10.25 11.7907 10.25 11.7916 10.25 11.7924C10.25 11.7933 10.25 11.7942 10.25 11.7951C10.25 11.7959 10.25 11.7968 10.25 11.7977C10.25 11.7986 10.25 11.7994 10.25 11.8003C10.25 11.8012 10.25 11.8021 10.25 11.8029C10.25 11.8038 10.25 11.8047 10.25 11.8055C10.25 11.8064 10.25 11.8073 10.25 11.8081C10.25 11.809 10.25 11.8099 10.25 11.8107C10.25 11.8116 10.25 11.8125 10.25 11.8133C10.25 11.8142 10.25 11.8151 10.25 11.8159C10.25 11.8168 10.25 11.8176 10.25 11.8185C10.25 11.8193 10.25 11.8202 10.25 11.8211C10.25 11.8219 10.25 11.8228 10.25 11.8236C10.25 11.8245 10.25 11.8253 10.25 11.8262C10.25 11.827 10.25 11.8279 10.25 11.8287C10.25 11.8296 10.25 11.8304 10.25 11.8313C10.25 11.8321 10.25 11.833 10.25 11.8338C10.25 11.8346 10.25 11.8355 10.25 11.8363C10.25 11.8372 10.25 11.838 10.25 11.8388C10.25 11.8397 10.25 11.8405 10.25 11.8414C10.25 11.8422 10.25 11.843 10.25 11.8439C10.25 11.8447 10.25 11.8455 10.25 11.8464C10.25 11.8472 10.25 11.848 10.25 11.8489C10.25 11.8497 10.25 11.8505 10.25 11.8514C10.25 11.8522 10.25 11.853 10.25 11.8538C10.25 11.8547 10.25 11.8555 10.25 11.8563C10.25 11.8571 10.25 11.858 10.25 11.8588C10.25 11.8596 10.25 11.8604 10.25 11.8612C10.25 11.862 10.25 11.8629 10.25 11.8637C10.25 11.8645 10.25 11.8653 10.25 11.8661C10.25 11.8669 10.25 11.8678 10.25 11.8686C10.25 11.8694 10.25 11.8702 10.25 11.871C10.25 11.8718 10.25 11.8726 10.25 11.8734C10.25 11.8742 10.25 11.875 10.25 11.8758C10.25 11.8766 10.25 11.8775 10.25 11.8783C10.25 11.8791 10.25 11.8799 10.25 11.8807C10.25 11.8815 10.25 11.8823 10.25 11.8831C10.25 11.8839 10.25 11.8846 10.25 11.8854C10.25 11.8862 10.25 11.887 10.25 11.8878C10.25 11.8886 10.25 11.8894 10.25 11.8902C10.25 11.891 10.25 11.8918 10.25 11.8926C10.25 11.8934 10.25 11.8941 10.25 11.8949C10.25 11.8957 10.25 11.8965 10.25 11.8973C10.25 11.8981 10.25 11.8989 10.25 11.8996C10.25 11.9004 10.25 11.9012 10.25 11.902C10.25 11.9028 10.25 11.9035 10.25 11.9043C10.25 11.9051 10.25 11.9059 10.25 11.9066C10.25 11.9074 10.25 11.9082 10.25 11.909C10.25 11.9097 10.25 11.9105 10.25 11.9113C10.25 11.912 10.25 11.9128 10.25 11.9136C10.25 11.9143 10.25 11.9151 10.25 11.9159C10.25 11.9166 10.25 11.9174 10.25 11.9182C10.25 11.9189 10.25 11.9197 10.25 11.9205C10.25 11.9212 10.25 11.922 10.25 11.9227C10.25 11.9235 10.25 11.9242 10.25 11.925C10.25 11.9258 10.25 11.9265 10.25 11.9273C10.25 11.928 10.25 11.9288 10.25 11.9295C10.25 11.9303 10.25 11.931 10.25 11.9318C10.25 11.9325 10.25 11.9333 10.25 11.934C10.25 11.9348 10.25 11.9355 10.25 11.9362C10.25 11.937 10.25 11.9377 10.25 11.9385C10.25 11.9392 10.25 11.9399 10.25 11.9407C10.25 11.9414 10.25 11.9422 10.25 11.9429C10.25 11.9436 10.25 11.9444 10.25 11.9451C10.25 11.9458 10.25 11.9466 10.25 11.9473C10.25 11.948 10.25 11.9488 10.25 11.9495C10.25 11.9502 10.25 11.951 10.25 11.9517C10.25 11.9524 10.25 11.9531 10.25 11.9539C10.25 11.9546 10.25 11.9553 10.25 11.956C10.25 11.9567 10.25 11.9575 10.25 11.9582C10.25 11.9589 10.25 11.9596 10.25 11.9603C10.25 11.9611 10.25 11.9618 10.25 11.9625C10.25 11.9632 10.25 11.9639 10.25 11.9646C10.25 11.9653 10.25 11.966 10.25 11.9668C10.25 11.9675 10.25 11.9682 10.25 11.9689C10.25 11.9696 10.25 11.9703 10.25 11.971C10.25 11.9717 10.25 11.9724 10.25 11.9731C10.25 11.9738 10.25 11.9745 10.25 11.9752C10.25 11.9759 10.25 11.9766 10.25 11.9773C10.25 11.978 10.25 11.9787 10.25 11.9794C10.25 11.9801 10.25 11.9808 10.25 11.9815C10.25 11.9822 10.25 11.9829 10.25 11.9836C10.25 11.9842 10.25 11.9849 10.25 11.9856C10.25 11.9863 10.25 11.987 10.25 11.9877C10.25 11.9884 10.25 11.989 10.25 11.9897C10.25 11.9904 10.25 11.9911 10.25 11.9918C10.25 11.9925 10.25 11.9931 10.25 11.9938C10.25 11.9945 10.25 11.9952 10.25 11.9958C10.25 11.9965 10.25 11.9972 10.25 11.9979C10.25 11.9985 10.25 11.9992 10.25 11.9999C10.25 12.0005 10.25 12.0012 10.25 12.0019C10.25 12.0025 10.25 12.0032 10.25 12.0039C10.25 12.0045 10.25 12.0052 10.25 12.0059C10.25 12.0065 10.25 12.0072 10.25 12.0079C10.25 12.0085 10.25 12.0092 10.25 12.0098C10.25 12.0105 10.25 12.0111 10.25 12.0118C10.25 12.0125 10.25 12.0131 10.25 12.0138C10.25 12.0144 10.25 12.0151 10.25 12.0157C10.25 12.0164 10.25 12.017 10.25 12.0177C10.25 12.0183 10.25 12.019 10.25 12.0196C10.25 12.0202 10.25 12.0209 10.25 12.0215C10.25 12.0222 10.25 12.0228 10.25 12.0235C10.25 12.0241 10.25 12.0247 10.25 12.0254C10.25 12.026 10.25 12.0266 10.25 12.0273C10.25 12.0279 10.25 12.0285 10.25 12.0292C10.25 12.0298 10.25 12.0304 10.25 12.0311C10.25 12.0317 10.25 12.0323 10.25 12.033C10.25 12.0336 10.25 12.0342 10.25 12.0348C10.25 12.0355 10.25 12.0361 10.25 12.0367C10.25 12.0373 10.25 12.0379 10.25 12.0386C10.25 12.0392 10.25 12.0398 10.25 12.0404C10.25 12.041 10.25 12.0417 10.25 12.0423C10.25 12.0429 10.25 12.0435 10.25 12.0441C10.25 12.0447 10.25 12.0453 10.25 12.0459C10.25 12.0466 10.25 12.0472 10.25 12.0478C10.25 12.0484 10.25 12.049 10.25 12.0496C10.25 12.0502 10.25 12.0508 10.25 12.0514C10.25 12.052 10.25 12.0526 10.25 12.0532C10.25 12.0538 10.25 12.0544 10.25 12.055C10.25 12.0556 10.25 12.0562 10.25 12.0568C10.25 12.0574 10.25 12.058 10.25 12.0585C10.25 12.0591 10.25 12.0597 10.25 12.0603C10.25 12.0609 10.25 12.0615 10.25 12.0621C10.25 12.0627 10.25 12.0633 10.25 12.0638C10.25 12.0644 10.25 12.065 10.25 12.0656C10.25 12.0662 10.25 12.0667 10.25 12.0673C10.25 12.0679 10.25 12.0685 10.25 12.0691C10.25 12.0696 10.25 12.0702 10.25 12.0708C10.25 12.0713 10.25 12.0719 10.25 12.0725C10.25 12.0731 10.25 12.0736 10.25 12.0742C10.25 12.0748 10.25 12.0753 10.25 12.0759C10.25 12.0765 10.25 12.077 10.25 12.0776C10.25 12.0782 10.25 12.0787 10.25 12.0793C10.25 12.0798 10.25 12.0804 10.25 12.0809C10.25 12.0815 10.25 12.0821 10.25 12.0826C10.25 12.0832 10.25 12.0837 10.25 12.0843C10.25 12.0848 10.25 12.0854 10.25 12.0859C10.25 12.0865 10.25 12.087 10.25 12.0876C10.25 12.0881 10.25 12.0887 10.25 12.0892C10.25 12.0898 10.25 12.0903 10.25 12.0908C10.25 12.0914 10.25 12.0919 10.25 12.0925C10.25 12.093 10.25 12.0935 10.25 12.0941C10.25 12.0946 10.25 12.0951 10.25 12.0957C10.25 12.0962 10.25 12.0967 10.25 12.0973C10.25 12.0978 10.25 12.0983 10.25 12.0989C10.25 12.0994 10.25 12.0999 10.25 12.1004C10.25 12.101 10.25 12.1015 10.25 12.102C10.25 12.1025 10.25 12.1031 10.25 12.1036C10.25 12.1041 10.25 12.1046 10.25 12.1051C10.25 12.1056 10.25 12.1062 10.25 12.1067C10.25 12.1072 10.25 12.1077 10.25 12.1082C10.25 12.1087 10.25 12.1092 10.25 12.1098C10.25 12.1103 10.25 12.1108 10.25 12.1113C10.25 12.1118 10.25 12.1123 10.25 12.1128C10.25 12.1133 10.25 12.1138 10.25 12.1143C10.25 12.1148 10.25 12.1153 10.25 12.1158C10.25 12.1163 10.25 12.1168 10.25 12.1173C10.25 12.1178 10.25 12.1183 10.25 12.1188C10.25 12.1193 10.25 12.1198 10.25 12.1203C10.25 12.1207 10.25 12.1212 10.25 12.1217C10.25 12.1222 10.25 12.1227 10.25 12.1232C10.25 12.1237 10.25 12.1241 10.25 12.1246C10.25 12.1251 10.25 12.1256 10.25 12.1261C10.25 12.1266 10.25 12.127 10.25 12.1275C10.25 12.128 10.25 12.1285 10.25 12.1289C10.25 12.1294 10.25 12.1299 10.25 12.1304C10.25 12.1308 10.25 12.1313 10.25 12.1318C10.25 12.1322 10.25 12.1327 10.25 12.1332C10.25 12.1336 10.25 12.1341 10.25 12.1346C10.25 12.135 10.25 12.1355 10.25 12.1359C10.25 12.1364 10.25 12.1369 10.25 12.1373C10.25 12.1378 10.25 12.1382 10.25 12.1387C10.25 12.1391 10.25 12.1396 10.25 12.14C10.25 12.1405 10.25 12.141 10.25 12.1414C10.25 12.1419 10.25 12.1423 10.25 12.1427C10.25 12.1432 10.25 12.1436 10.25 12.1441C10.25 12.1445 10.25 12.145 10.25 12.1454C10.25 12.1459 10.25 12.1463 10.25 12.1467C10.25 12.1472 10.25 12.1476 10.25 12.148C10.25 12.1485 10.25 12.1489 10.25 12.1493C10.25 12.1498 10.25 12.1502 10.25 12.1506C10.25 12.1511 10.25 12.1515 10.25 12.1519C10.25 12.1523 10.25 12.1528 10.25 12.1532C10.25 12.1536 10.25 12.154 10.25 12.1545C10.25 12.1549 10.25 12.1553 10.25 12.1557C10.25 12.1561 10.25 12.1566 10.25 12.157C10.25 12.1574 10.25 12.1578 10.25 12.1582C10.25 12.1586 10.25 12.1591 10.25 12.1595C10.25 12.1599 10.25 12.1603 10.25 12.1607C10.25 12.1611 10.25 12.1615 10.25 12.1619C10.25 12.1623 10.25 12.1627 10.25 12.1631C10.25 12.1635 10.25 12.1639 10.25 12.1643C10.25 12.1647 10.25 12.1651 10.25 12.1655C10.25 12.1659 10.25 12.1663 10.25 12.1667C10.25 12.1671 10.25 12.1675 10.25 12.1679C10.25 12.1683 10.25 12.1687 10.25 12.169C10.25 12.1694 10.25 12.1698 10.25 12.1702C10.25 12.1706 10.25 12.171 10.25 12.1714C10.25 12.1717 10.25 12.1721 10.25 12.1725C10.25 12.1729 10.25 12.1733 10.25 12.1736C10.25 12.174 10.25 12.1744 10.25 12.1748C10.25 12.1751 10.25 12.1755 10.25 12.1759C10.25 12.1762 10.25 12.1766 10.25 12.177C10.25 12.1774 10.25 12.1777 10.25 12.1781C10.25 12.1784 10.25 12.1788 10.25 12.1792C10.25 12.1795 10.25 12.1799 10.25 12.1803C10.25 12.1806 10.25 12.181 10.25 12.1813C10.25 12.1817 10.25 12.182 10.25 12.1824C10.25 12.1828 10.25 12.1831 10.25 12.1835C10.25 12.1838 10.25 12.1842 10.25 12.1845C10.25 12.1849 10.25 12.1852 10.25 12.1855C10.25 12.1859 10.25 12.1862 10.25 12.1866C10.25 12.1869 10.25 12.1873 10.25 12.1876C10.25 12.1879 10.25 12.1883 10.25 12.1886C10.25 12.1889 10.25 12.1893 10.25 12.1896C10.25 12.1899 10.25 12.1903 10.25 12.1906C10.25 12.1909 10.25 12.1913 10.25 12.1916C10.25 12.1919 10.25 12.1923 10.25 12.1926C10.25 12.1929 10.25 12.1932 10.25 12.1936C10.25 12.1939 10.25 12.1942 10.25 12.1945C10.25 12.1948 10.25 12.1951 10.25 12.1955C10.25 12.1958 10.25 12.1961 10.25 12.1964C10.25 12.1967 10.25 12.197 10.25 12.1973C10.25 12.1977 10.25 12.198 10.25 12.1983C10.25 12.1986 10.25 12.1989 10.25 12.1992C10.25 12.1995 10.25 12.1998 10.25 12.2001C10.25 12.2004 10.25 12.2007 10.25 12.201C10.25 12.2013 10.25 12.2016 10.25 12.2019C10.25 12.2022 10.25 12.2025 10.25 12.2028C10.25 12.2031 10.25 12.2034 10.25 12.2036C10.25 12.2039 10.25 12.2042 10.25 12.2045C10.25 12.2048 10.25 12.2051 10.25 12.2054C10.25 12.2057 10.25 12.2059 10.25 12.2062C10.25 12.2065 10.25 12.2068 10.25 12.2071C10.25 12.2073 10.25 12.2076 10.25 12.2079C10.25 12.2082 10.25 12.2084 10.25 12.2087C10.25 12.209 10.25 12.2093 10.25 12.2095C10.25 12.2098 10.25 12.2101 10.25 12.2103C10.25 12.2106 10.25 12.2109 10.25 12.2111C10.25 12.2114 10.25 12.2116 10.25 12.2119C10.25 12.2122 10.25 12.2124 10.25 12.2127C10.25 12.2129 10.25 12.2132 10.25 12.2135C10.25 12.2137 10.25 12.214 10.25 12.2142C10.25 12.2145 10.25 12.2147 10.25 12.215C10.25 12.2152 10.25 12.2155 10.25 12.2157C10.25 12.2159 10.25 12.2162 10.25 12.2164C10.25 12.2167 10.25 12.2169 10.25 12.2172C10.25 12.2174 10.25 12.2176 10.25 12.2179C10.25 12.2181 10.25 12.2183 10.25 12.2186C10.25 12.2188 10.25 12.219 10.25 12.2193C10.25 12.2195 10.25 12.2197 10.25 12.22C10.25 12.2202 10.25 12.2204 10.25 12.2206C10.25 12.2209 10.25 12.2211 10.25 12.2213C10.25 12.2215 10.25 12.2217 10.25 12.222C10.25 12.2222 10.25 12.2224 10.25 12.2226C10.25 12.2228 10.25 12.223 10.25 12.2233C10.25 12.2235 10.25 12.2237 10.25 12.2239C10.25 12.2241 10.25 12.2243 10.25 12.2245C10.25 12.2247 10.25 12.2249 10.25 12.2251C10.25 12.2253 10.25 12.2255 10.25 12.2257C10.25 12.2259 10.25 12.2261 10.25 12.2263C10.25 12.2265 10.25 12.2267 10.25 12.2269C10.25 12.2271 10.25 12.2273 10.25 12.2275C10.25 12.2277 10.25 12.2279 10.25 12.2281C10.25 12.2283 10.25 12.2284 10.25 12.2286C10.25 12.2288 10.25 12.229 10.25 12.2292C10.25 12.2294 10.25 12.2295 10.25 12.2297C10.25 12.2299 10.25 12.2301 10.25 12.2303C10.25 12.2304 10.25 12.2306 10.25 12.2308C10.25 12.231 10.25 12.2311 10.25 12.2313C10.25 12.2315 10.25 12.2316 10.25 12.2318C10.25 12.232 10.25 12.2321 10.25 12.2323C10.25 12.2325 10.25 12.2326 10.25 12.2328C10.25 12.2329 10.25 12.2331 10.25 12.2333C10.25 12.2334 10.25 12.2336 10.25 12.2337C10.25 12.2339 10.25 12.234 10.25 12.2342C10.25 12.2343 10.25 12.2345 10.25 12.2346C10.25 12.2348 10.25 12.2349 10.25 12.2351C10.25 12.2352 10.25 12.2354 10.25 12.2355C10.25 12.2357 10.25 12.2358 10.25 12.2359C10.25 12.2361 10.25 12.2362 10.25 12.2363C10.25 12.2365 10.25 12.2366 10.25 12.2368C10.25 12.2369 10.25 12.237 10.25 12.2371C10.25 12.2373 10.25 12.2374 10.25 12.2375C10.25 12.2377 10.25 12.2378 10.25 12.2379C10.25 12.238 10.25 12.2382 10.25 12.2383C10.25 12.2384 10.25 12.2385 10.25 12.2386C10.25 12.2387 10.25 12.2389 10.25 12.239C10.25 12.2391 10.25 12.2392 10.25 12.2393C10.25 12.2394 10.25 12.2395 10.25 12.2396C10.25 12.2398 10.25 12.2399 10.25 12.24C10.25 12.2401 10.25 12.2402 10.25 12.2403C10.25 12.2404 10.25 12.2405 10.25 12.2406C10.25 12.2407 10.25 12.2408 10.25 12.2409C10.25 12.241 10.25 12.2411 10.25 12.2411C10.25 12.2412 10.25 12.2413 10.25 12.2414C10.25 12.2415 10.25 12.2416 10.25 12.2417C10.25 12.2418 10.25 12.2419 10.25 12.2419C10.25 12.242 10.25 12.2421 10.25 12.2422C10.25 12.2423 10.25 12.2423 10.25 12.2424C10.25 12.2425 10.25 12.2426 10.25 12.2426C10.25 12.2427 10.25 12.2428 10.25 12.2429C10.25 12.2429 10.25 12.243 10.25 12.2431C10.25 12.2431 10.25 12.2432 10.25 12.2433C10.25 12.2433 10.25 12.2434 10.25 12.2434C10.25 12.2435 10.25 12.2436 10.25 12.2436C10.25 12.2437 10.25 12.2437 10.25 12.2438C10.25 12.2438 10.25 12.2439 10.25 12.244C10.25 12.244 10.25 12.2441 10.25 12.2441C10.25 12.2442 10.25 12.2442 10.25 12.2442C10.25 12.2443 10.25 12.2443 10.25 12.2444C10.25 12.2444 10.25 12.2445 10.25 12.2445C10.25 12.2445 10.25 12.2446 10.25 12.2446C10.25 12.2446 10.25 12.2447 10.25 12.2447C10.25 12.2447 10.25 12.2448 10.25 12.2448C10.25 12.2448 10.25 12.2449 10.25 12.2449C10.25 12.2449 10.25 12.2449 10.25 12.245C10.25 12.245 10.25 12.245 10.25 12.245C10.25 12.245 10.25 12.2451 10.25 12.2451C10.25 12.2451 10.25 12.2451 10.25 12.2451C10.25 12.2451 10.25 12.2451 10.25 12.2451C10.25 12.2452 10.25 12.2452 10.25 12.2452C10.25 12.2452 10.25 12.2452 10.25 12.2452C10.25 12.2452 10.25 12.2452 11 12.2452ZM11.75 11.1858C11.75 10.6625 11.5395 10.1551 11.1166 9.78813C10.6994 9.42598 10.1351 9.25 9.5 9.25V10.75C9.86485 10.75 10.0506 10.8491 10.1334 10.9209C10.2105 10.9879 10.25 11.0734 10.25 11.1858H11.75ZM9.5 9.25H8V10.75H9.5V9.25ZM7.25 13.5V16H8.75V13.5H7.25ZM7.25 10V13.5H8.75V10H7.25ZM9.31045 13.7268L10.3011 16.272L11.6989 15.7279L10.7083 13.1828L9.31045 13.7268ZM13.7276 16.1819L14.2276 14.1819L12.7724 13.8181L12.2724 15.8181L13.7276 16.1819ZM14.2276 14.1819L15.2276 10.1819L13.7724 9.8181L12.7724 13.8181L14.2276 14.1819ZM14.5 10.75H15.5V9.25H14.5V10.75ZM14.7724 10.1819L15.7724 14.1819L17.2276 13.8181L16.2276 9.8181L14.7724 10.1819ZM15.7724 14.1819L16.2724 16.1819L17.7276 15.8181L17.2276 13.8181L15.7724 14.1819ZM13.5 14.75H16.5V13.25H13.5V14.75Z" fill="black"/>
</svg>
