<svg width="24" height="24" viewBox="0 0 24 24" fill="none" xmlns="http://www.w3.org/2000/svg">
<path d="M11.851 12.252C11.7463 11.9044 11.6422 11.4699 11.5554 11.1224H11.5379C11.4512 11.4699 11.3644 11.913 11.2687 12.252L10.9212 13.4942H12.2161L11.851 12.252Z" fill="black"/>
<path d="M19.7348 9.1539H19.2545V6.8367C19.2545 6.82226 19.2523 6.8077 19.2504 6.79308C19.2496 6.70104 19.2203 6.61069 19.1573 6.53905L15.3012 2.13413C15.3 2.133 15.2989 2.13259 15.2981 2.13139C15.2752 2.10571 15.2484 2.08433 15.22 2.06588C15.2116 2.06026 15.2032 2.05555 15.1944 2.05063C15.1699 2.03728 15.1438 2.02615 15.117 2.01809C15.1097 2.01609 15.1032 2.01313 15.096 2.01123C15.0668 2.0043 15.0366 2 15.006 2H5.52906C5.09634 2 4.74477 2.35197 4.74477 2.78433V9.15368H4.26459C3.64554 9.15368 3.14358 9.65546 3.14358 10.2747V16.1042C3.14358 16.7231 3.64554 17.2252 4.26459 17.2252H4.74477V21.2157C4.74477 21.6481 5.09634 22 5.52906 22H18.4702C18.9026 22 19.2545 21.6481 19.2545 21.2157V17.2252H19.7348C20.3536 17.2252 20.8557 16.7231 20.8557 16.1042V10.2749C20.8557 9.65568 20.3537 9.1539 19.7348 9.1539ZM5.52906 2.78451H14.6138V6.79734C14.6138 7.01398 14.7895 7.18947 15.006 7.18947H18.4703V9.15416H5.52906V2.78451ZM14.284 15.9878H12.8587L12.4071 14.4846H10.73L10.3132 15.9878H8.94043L10.73 10.1316H12.4676L14.284 15.9878ZM5.44714 13.6854V15.9878H4.13517V10.21C4.56085 10.1402 5.1953 10.0883 5.89894 10.0883C6.76786 10.0883 7.37629 10.2185 7.79315 10.5487C8.14041 10.8266 8.33195 11.2352 8.33195 11.7738C8.33195 12.5211 7.80205 13.0337 7.29805 13.2162V13.2424C7.70652 13.4074 7.93217 13.7981 8.0799 14.3371C8.26239 14.9974 8.44459 15.7619 8.55793 15.9879H7.20263C7.10687 15.8227 6.96768 15.3453 6.79419 14.6238C6.63774 13.894 6.38594 13.6939 5.84711 13.6855L5.44714 13.6854ZM18.4703 21.0033H5.52906V17.2252H18.4702L18.4703 21.0033ZM18.134 15.9878C18.0382 15.8226 17.8992 15.3452 17.7254 14.6237C17.5693 13.8939 17.317 13.6938 16.7787 13.6854H16.3789V15.9878H15.0668V10.21C15.4927 10.1402 16.1265 10.0883 16.8304 10.0883C17.6995 10.0883 18.3075 10.2185 18.7247 10.5487C19.0723 10.8266 19.2637 11.2352 19.2637 11.7738C19.2637 12.5211 18.7333 13.0337 18.2294 13.2162V13.2424C18.638 13.4074 18.864 13.7981 19.0114 14.3371C19.1941 14.9974 19.3764 15.7619 19.4896 15.9879L18.134 15.9878Z" fill="black"/>
<path d="M7.0203 11.8869C7.0203 11.3481 6.65545 11.0789 6.04719 11.0699C5.72561 11.0699 5.5433 11.0959 5.44736 11.1133V12.7292H5.96877C6.62952 12.7296 7.0203 12.3994 7.0203 11.8869Z" fill="black"/>
<path d="M16.9786 11.0702C16.6567 11.0702 16.4746 11.0962 16.3787 11.1136V12.7297H16.9001C17.5599 12.7297 17.9513 12.3995 17.9513 11.8871C17.9513 11.3482 17.5867 11.079 16.9786 11.0702Z" fill="black"/>
</svg>
