<svg width="24" height="24" viewBox="0 0 24 24" fill="none" xmlns="http://www.w3.org/2000/svg">
<path d="M19.7352 9.15391H19.2549V6.8367C19.2549 6.82225 19.2526 6.80769 19.2507 6.79306C19.25 6.70104 19.2207 6.61067 19.1577 6.53906L15.3016 2.13413C15.3004 2.13301 15.2993 2.13261 15.2985 2.13137C15.2755 2.1057 15.2487 2.08435 15.2204 2.06587C15.212 2.06024 15.2036 2.05552 15.1948 2.05065C15.1702 2.03725 15.1442 2.02614 15.1174 2.01812C15.1101 2.01609 15.1036 2.01311 15.0963 2.01122C15.0672 2.00432 15.037 2 15.0063 2H5.52949C5.09674 2 4.74518 2.35196 4.74518 2.78435V9.15373H4.26505C3.64599 9.15373 3.14403 9.65547 3.14403 10.2747V16.1043C3.14403 16.7231 3.64599 17.2252 4.26505 17.2252H4.74522V21.2157C4.74522 21.648 5.09678 22 5.52953 22H18.4707C18.903 22 19.255 21.648 19.255 21.2157V17.2252H19.7352C20.3541 17.2252 20.8562 16.7231 20.8562 16.1043V10.2749C20.8561 9.65569 20.3541 9.15391 19.7352 9.15391ZM5.52949 2.78449H14.6142V6.7973C14.6142 7.01397 14.79 7.18946 15.0063 7.18946H18.4706V9.15416H5.52949V2.78449ZM11.7423 10.5528L13.3548 15.7519H12.0899L11.6887 14.4173H10.1997L9.82973 15.7519H8.61097L10.1997 10.5528H11.7423ZM5.50967 13.7076V15.7515H4.34537V10.6222C4.72347 10.5604 5.28603 10.514 5.91094 10.514C6.68221 10.514 7.2223 10.63 7.59205 10.923C7.90091 11.1698 8.07048 11.5324 8.07048 12.0104C8.07048 12.6737 7.60011 13.1294 7.15273 13.2912V13.314C7.51464 13.4606 7.7154 13.808 7.84706 14.2859C8.00879 14.8722 8.17095 15.5509 8.27088 15.7515H7.06762C6.98269 15.6048 6.85919 15.1805 6.70505 14.5402C6.56602 13.8926 6.34249 13.7151 5.86446 13.7076H5.50967ZM18.4707 21.0033H5.52949V17.2252H18.4706L18.4707 21.0033ZM18.4927 15.7519H17.2199L16.7799 13.5146C16.6799 12.9904 16.5949 12.5044 16.5334 11.9106H16.5179C16.4254 12.4967 16.3406 12.9904 16.2173 13.5146L15.7234 15.7519H14.4353L13.201 10.5528H14.4579L14.8516 12.697C14.9673 13.3141 15.0752 13.9853 15.1599 14.51H15.1756C15.2604 13.947 15.3839 13.322 15.5149 12.6821L15.9547 10.553H17.204L17.6208 12.7433C17.7363 13.353 17.8211 13.9083 17.8984 14.487H17.9139C17.9911 13.9083 18.1068 13.299 18.2144 12.6821L18.6387 10.5532H19.8343L18.4927 15.7519Z" fill="black"/>
<path d="M11.1948 12.4349C11.1018 12.1262 11.0101 11.7404 10.9326 11.4319H10.9171C10.8397 11.7406 10.763 12.1338 10.6775 12.4349L10.3693 13.5378H11.5185L11.1948 12.4349Z" fill="black"/>
<path d="M6.90525 12.1113C6.90525 11.6327 6.58154 11.3938 6.04178 11.3861C5.75609 11.3861 5.59429 11.4093 5.50936 11.4247V12.8596H5.97236C6.55837 12.8596 6.90525 12.5662 6.90525 12.1113Z" fill="black"/>
</svg>
