<svg width="24" height="24" viewBox="0 0 24 24" fill="none" xmlns="http://www.w3.org/2000/svg">
<path d="M8.03851 10.7008C7.68844 10.7008 7.49 10.7292 7.38593 10.7482V12.5069H7.9534C8.67182 12.5069 9.09729 12.1473 9.09729 11.5896C9.09729 11.0034 8.70027 10.7104 8.03851 10.7008Z" fill="black"/>
<path d="M19.7348 9.15372H19.2546V6.83648C19.2546 6.82193 19.2523 6.80748 19.2504 6.79271C19.2496 6.70072 19.2203 6.61033 19.1573 6.53883L15.3013 2.13413C15.3 2.13289 15.2989 2.13252 15.2982 2.13139C15.2752 2.10571 15.2484 2.08426 15.22 2.06588C15.2116 2.06015 15.2032 2.05545 15.1944 2.05059C15.1699 2.03728 15.1438 2.02608 15.117 2.01802C15.1097 2.01612 15.1032 2.01313 15.096 2.01116C15.0668 2.0043 15.0366 2 15.006 2H5.52907C5.09634 2 4.74478 2.35197 4.74478 2.78433V9.15368H4.2646C3.64554 9.15368 3.14359 9.65546 3.14359 10.2746V16.104C3.14359 16.7229 3.64554 17.2252 4.2646 17.2252H4.74478V21.2157C4.74478 21.6481 5.09634 22 5.52907 22H18.4702C18.9026 22 19.2545 21.6481 19.2545 21.2157V17.2252H19.7348C20.3536 17.2252 20.8557 16.7231 20.8557 16.1042V10.2749C20.8557 9.6555 20.3537 9.15372 19.7348 9.15372ZM18.4703 21.0031H5.52907V17.2252H18.4702L18.4703 21.0031ZM10.2507 14.2561C10.4492 14.9749 10.6477 15.8067 10.7707 16.0526H9.29572C9.19165 15.8729 9.04045 15.3528 8.85128 14.5682C8.68105 13.7739 8.40674 13.5565 7.82063 13.5468H7.38557V16.0526H5.95786V9.76511C6.42122 9.68917 7.11144 9.63248 7.87728 9.63248C8.8228 9.63248 9.48456 9.7743 9.93848 10.1339C10.3167 10.4364 10.5247 10.8808 10.5247 11.467C10.5247 12.2799 9.94807 12.8379 9.39964 13.0364V13.0648C9.84404 13.2446 10.0899 13.6697 10.2507 14.2561ZM11.4222 16.0526L11.8289 9.67964H13.7482L14.3721 11.8075C14.5709 12.5445 14.7695 13.339 14.9114 14.0857H14.9397C15.1193 13.3484 15.3368 12.507 15.5448 11.7978L16.2253 9.67964H18.1068L18.4568 16.0526H17.0479L16.9533 13.6131C16.925 12.8471 16.8966 11.9208 16.8966 10.9941H16.8683C16.6698 11.8075 16.4049 12.7146 16.1594 13.462L15.3839 15.9486H14.2587L13.5782 13.4807C13.3701 12.734 13.1527 11.8263 13.0015 10.9941H12.9823C12.9445 11.8547 12.9164 12.8379 12.869 13.6322L12.7556 16.0528L11.4222 16.0526ZM18.4703 9.15372H5.52907V2.78433H14.6138V6.79701C14.6138 7.01369 14.7895 7.18918 15.006 7.18918H18.4703V9.15372Z" fill="black"/>
</svg>
