<svg width="24" height="24" viewBox="0 0 24 24" fill="none" xmlns="http://www.w3.org/2000/svg">
<path d="M19 20V20.75H19.75V20H19ZM5 20H4.25V20.75H5V20ZM5 4V3.25H4.25V4H5ZM16 4L16.5303 3.46967L16.3107 3.25H16V4ZM19 7L19.75 7V6.68934L19.5303 6.46967L19 7ZM8.5 13.5L8.54832 12.7516L8.52418 12.75H8.5V13.5ZM7 10V9.25C6.58579 9.25 6.25 9.58579 6.25 10H7ZM6.25 16C6.25 16.4142 6.58579 16.75 7 16.75C7.41421 16.75 7.75 16.4142 7.75 16H6.25ZM9.70831 13.1828C9.55806 12.7968 9.12335 12.6056 8.73735 12.7559C8.35134 12.9061 8.16021 13.3408 8.31045 13.7268L9.70831 13.1828ZM9.30107 16.272C9.45131 16.658 9.88603 16.8491 10.272 16.6989C10.658 16.5487 10.8492 16.1139 10.6989 15.7279L9.30107 16.272ZM12.3797 10V9.25C11.9655 9.25 11.6297 9.58579 11.6297 10H12.3797ZM11.6297 16C11.6297 16.4142 11.9655 16.75 12.3797 16.75C12.7939 16.75 13.1297 16.4142 13.1297 16H11.6297ZM13.094 10L13.7911 9.72337C13.6777 9.43761 13.4014 9.25 13.094 9.25V10ZM14.8797 14.5L14.1826 14.7766C14.296 15.0624 14.5723 15.25 14.8797 15.25C15.1872 15.25 15.4635 15.0624 15.5768 14.7766L14.8797 14.5ZM16.6654 10V9.25C16.358 9.25 16.0817 9.43761 15.9683 9.72337L16.6654 10ZM17.3797 10H18.1297C18.1297 9.58579 17.7939 9.25 17.3797 9.25V10ZM16.6297 16C16.6297 16.4142 16.9655 16.75 17.3797 16.75C17.7939 16.75 18.1297 16.4142 18.1297 16H16.6297ZM19 19.25H5V20.75H19V19.25ZM5 4.75H16V3.25H5V4.75ZM15.4697 4.53033L18.4697 7.53033L19.5303 6.46967L16.5303 3.46967L15.4697 4.53033ZM5.75 8V4H4.25V8H5.75ZM5.75 20V18H4.25V20H5.75ZM18.25 7L18.25 8L19.75 8L19.75 7L18.25 7ZM18.25 18V20H19.75V18H18.25ZM7 14.25H8.5V12.75H7V14.25ZM8.5 13.5C8.45168 14.2484 8.45202 14.2485 8.45236 14.2485C8.45248 14.2485 8.45282 14.2485 8.45307 14.2485C8.45355 14.2486 8.45406 14.2486 8.4546 14.2486C8.45567 14.2487 8.45684 14.2488 8.4581 14.2488C8.46063 14.249 8.46354 14.2491 8.46683 14.2493C8.4734 14.2496 8.48148 14.25 8.49097 14.2503C8.50992 14.251 8.53463 14.2515 8.56431 14.2515C8.62339 14.2515 8.70363 14.2494 8.79836 14.2413C8.98345 14.2254 9.24579 14.185 9.52007 14.0791C9.79565 13.9728 10.1112 13.7891 10.3579 13.4716C10.6116 13.145 10.75 12.7311 10.75 12.2452H9.25C9.25 12.4351 9.20087 12.5159 9.17337 12.5513C9.13881 12.5958 9.07935 12.6414 8.97993 12.6798C8.8792 12.7187 8.76655 12.7385 8.67039 12.7467C8.62449 12.7507 8.58755 12.7515 8.5646 12.7515C8.55326 12.7515 8.54574 12.7513 8.54272 12.7512C8.54122 12.7512 8.54088 12.7511 8.54177 12.7512C8.54222 12.7512 8.54299 12.7512 8.54407 12.7513C8.54461 12.7513 8.54524 12.7514 8.54595 12.7514C8.5463 12.7514 8.54667 12.7515 8.54707 12.7515C8.54727 12.7515 8.54758 12.7515 8.54768 12.7515C8.548 12.7515 8.54832 12.7516 8.5 13.5ZM10 12.2452C10.75 12.2452 10.75 12.2452 10.75 12.2452C10.75 12.2452 10.75 12.2452 10.75 12.2452C10.75 12.2452 10.75 12.2452 10.75 12.2451C10.75 12.2451 10.75 12.2451 10.75 12.2451C10.75 12.2451 10.75 12.2451 10.75 12.2451C10.75 12.2451 10.75 12.245 10.75 12.245C10.75 12.245 10.75 12.245 10.75 12.245C10.75 12.2449 10.75 12.2449 10.75 12.2449C10.75 12.2449 10.75 12.2448 10.75 12.2448C10.75 12.2448 10.75 12.2447 10.75 12.2447C10.75 12.2447 10.75 12.2446 10.75 12.2446C10.75 12.2446 10.75 12.2445 10.75 12.2445C10.75 12.2445 10.75 12.2444 10.75 12.2444C10.75 12.2443 10.75 12.2443 10.75 12.2442C10.75 12.2442 10.75 12.2442 10.75 12.2441C10.75 12.2441 10.75 12.244 10.75 12.244C10.75 12.2439 10.75 12.2438 10.75 12.2438C10.75 12.2437 10.75 12.2437 10.75 12.2436C10.75 12.2436 10.75 12.2435 10.75 12.2434C10.75 12.2434 10.75 12.2433 10.75 12.2433C10.75 12.2432 10.75 12.2431 10.75 12.2431C10.75 12.243 10.75 12.2429 10.75 12.2429C10.75 12.2428 10.75 12.2427 10.75 12.2426C10.75 12.2426 10.75 12.2425 10.75 12.2424C10.75 12.2423 10.75 12.2423 10.75 12.2422C10.75 12.2421 10.75 12.242 10.75 12.2419C10.75 12.2419 10.75 12.2418 10.75 12.2417C10.75 12.2416 10.75 12.2415 10.75 12.2414C10.75 12.2413 10.75 12.2412 10.75 12.2411C10.75 12.2411 10.75 12.241 10.75 12.2409C10.75 12.2408 10.75 12.2407 10.75 12.2406C10.75 12.2405 10.75 12.2404 10.75 12.2403C10.75 12.2402 10.75 12.2401 10.75 12.24C10.75 12.2399 10.75 12.2398 10.75 12.2396C10.75 12.2395 10.75 12.2394 10.75 12.2393C10.75 12.2392 10.75 12.2391 10.75 12.239C10.75 12.2389 10.75 12.2387 10.75 12.2386C10.75 12.2385 10.75 12.2384 10.75 12.2383C10.75 12.2382 10.75 12.238 10.75 12.2379C10.75 12.2378 10.75 12.2377 10.75 12.2375C10.75 12.2374 10.75 12.2373 10.75 12.2371C10.75 12.237 10.75 12.2369 10.75 12.2368C10.75 12.2366 10.75 12.2365 10.75 12.2363C10.75 12.2362 10.75 12.2361 10.75 12.2359C10.75 12.2358 10.75 12.2357 10.75 12.2355C10.75 12.2354 10.75 12.2352 10.75 12.2351C10.75 12.2349 10.75 12.2348 10.75 12.2346C10.75 12.2345 10.75 12.2343 10.75 12.2342C10.75 12.234 10.75 12.2339 10.75 12.2337C10.75 12.2336 10.75 12.2334 10.75 12.2333C10.75 12.2331 10.75 12.2329 10.75 12.2328C10.75 12.2326 10.75 12.2325 10.75 12.2323C10.75 12.2321 10.75 12.232 10.75 12.2318C10.75 12.2316 10.75 12.2315 10.75 12.2313C10.75 12.2311 10.75 12.231 10.75 12.2308C10.75 12.2306 10.75 12.2304 10.75 12.2303C10.75 12.2301 10.75 12.2299 10.75 12.2297C10.75 12.2295 10.75 12.2294 10.75 12.2292C10.75 12.229 10.75 12.2288 10.75 12.2286C10.75 12.2284 10.75 12.2283 10.75 12.2281C10.75 12.2279 10.75 12.2277 10.75 12.2275C10.75 12.2273 10.75 12.2271 10.75 12.2269C10.75 12.2267 10.75 12.2265 10.75 12.2263C10.75 12.2261 10.75 12.2259 10.75 12.2257C10.75 12.2255 10.75 12.2253 10.75 12.2251C10.75 12.2249 10.75 12.2247 10.75 12.2245C10.75 12.2243 10.75 12.2241 10.75 12.2239C10.75 12.2237 10.75 12.2235 10.75 12.2233C10.75 12.223 10.75 12.2228 10.75 12.2226C10.75 12.2224 10.75 12.2222 10.75 12.222C10.75 12.2217 10.75 12.2215 10.75 12.2213C10.75 12.2211 10.75 12.2209 10.75 12.2206C10.75 12.2204 10.75 12.2202 10.75 12.22C10.75 12.2197 10.75 12.2195 10.75 12.2193C10.75 12.219 10.75 12.2188 10.75 12.2186C10.75 12.2183 10.75 12.2181 10.75 12.2179C10.75 12.2176 10.75 12.2174 10.75 12.2172C10.75 12.2169 10.75 12.2167 10.75 12.2164C10.75 12.2162 10.75 12.2159 10.75 12.2157C10.75 12.2155 10.75 12.2152 10.75 12.215C10.75 12.2147 10.75 12.2145 10.75 12.2142C10.75 12.214 10.75 12.2137 10.75 12.2135C10.75 12.2132 10.75 12.2129 10.75 12.2127C10.75 12.2124 10.75 12.2122 10.75 12.2119C10.75 12.2116 10.75 12.2114 10.75 12.2111C10.75 12.2109 10.75 12.2106 10.75 12.2103C10.75 12.2101 10.75 12.2098 10.75 12.2095C10.75 12.2093 10.75 12.209 10.75 12.2087C10.75 12.2084 10.75 12.2082 10.75 12.2079C10.75 12.2076 10.75 12.2073 10.75 12.2071C10.75 12.2068 10.75 12.2065 10.75 12.2062C10.75 12.2059 10.75 12.2057 10.75 12.2054C10.75 12.2051 10.75 12.2048 10.75 12.2045C10.75 12.2042 10.75 12.2039 10.75 12.2036C10.75 12.2034 10.75 12.2031 10.75 12.2028C10.75 12.2025 10.75 12.2022 10.75 12.2019C10.75 12.2016 10.75 12.2013 10.75 12.201C10.75 12.2007 10.75 12.2004 10.75 12.2001C10.75 12.1998 10.75 12.1995 10.75 12.1992C10.75 12.1989 10.75 12.1986 10.75 12.1983C10.75 12.198 10.75 12.1977 10.75 12.1973C10.75 12.197 10.75 12.1967 10.75 12.1964C10.75 12.1961 10.75 12.1958 10.75 12.1955C10.75 12.1951 10.75 12.1948 10.75 12.1945C10.75 12.1942 10.75 12.1939 10.75 12.1936C10.75 12.1932 10.75 12.1929 10.75 12.1926C10.75 12.1923 10.75 12.1919 10.75 12.1916C10.75 12.1913 10.75 12.1909 10.75 12.1906C10.75 12.1903 10.75 12.1899 10.75 12.1896C10.75 12.1893 10.75 12.1889 10.75 12.1886C10.75 12.1883 10.75 12.1879 10.75 12.1876C10.75 12.1873 10.75 12.1869 10.75 12.1866C10.75 12.1862 10.75 12.1859 10.75 12.1855C10.75 12.1852 10.75 12.1849 10.75 12.1845C10.75 12.1842 10.75 12.1838 10.75 12.1835C10.75 12.1831 10.75 12.1828 10.75 12.1824C10.75 12.182 10.75 12.1817 10.75 12.1813C10.75 12.181 10.75 12.1806 10.75 12.1803C10.75 12.1799 10.75 12.1795 10.75 12.1792C10.75 12.1788 10.75 12.1784 10.75 12.1781C10.75 12.1777 10.75 12.1774 10.75 12.177C10.75 12.1766 10.75 12.1762 10.75 12.1759C10.75 12.1755 10.75 12.1751 10.75 12.1748C10.75 12.1744 10.75 12.174 10.75 12.1736C10.75 12.1733 10.75 12.1729 10.75 12.1725C10.75 12.1721 10.75 12.1717 10.75 12.1714C10.75 12.171 10.75 12.1706 10.75 12.1702C10.75 12.1698 10.75 12.1694 10.75 12.169C10.75 12.1687 10.75 12.1683 10.75 12.1679C10.75 12.1675 10.75 12.1671 10.75 12.1667C10.75 12.1663 10.75 12.1659 10.75 12.1655C10.75 12.1651 10.75 12.1647 10.75 12.1643C10.75 12.1639 10.75 12.1635 10.75 12.1631C10.75 12.1627 10.75 12.1623 10.75 12.1619C10.75 12.1615 10.75 12.1611 10.75 12.1607C10.75 12.1603 10.75 12.1599 10.75 12.1595C10.75 12.1591 10.75 12.1586 10.75 12.1582C10.75 12.1578 10.75 12.1574 10.75 12.157C10.75 12.1566 10.75 12.1561 10.75 12.1557C10.75 12.1553 10.75 12.1549 10.75 12.1545C10.75 12.154 10.75 12.1536 10.75 12.1532C10.75 12.1528 10.75 12.1523 10.75 12.1519C10.75 12.1515 10.75 12.1511 10.75 12.1506C10.75 12.1502 10.75 12.1498 10.75 12.1493C10.75 12.1489 10.75 12.1485 10.75 12.148C10.75 12.1476 10.75 12.1472 10.75 12.1467C10.75 12.1463 10.75 12.1459 10.75 12.1454C10.75 12.145 10.75 12.1445 10.75 12.1441C10.75 12.1436 10.75 12.1432 10.75 12.1427C10.75 12.1423 10.75 12.1419 10.75 12.1414C10.75 12.141 10.75 12.1405 10.75 12.14C10.75 12.1396 10.75 12.1391 10.75 12.1387C10.75 12.1382 10.75 12.1378 10.75 12.1373C10.75 12.1369 10.75 12.1364 10.75 12.1359C10.75 12.1355 10.75 12.135 10.75 12.1346C10.75 12.1341 10.75 12.1336 10.75 12.1332C10.75 12.1327 10.75 12.1322 10.75 12.1318C10.75 12.1313 10.75 12.1308 10.75 12.1304C10.75 12.1299 10.75 12.1294 10.75 12.1289C10.75 12.1285 10.75 12.128 10.75 12.1275C10.75 12.127 10.75 12.1266 10.75 12.1261C10.75 12.1256 10.75 12.1251 10.75 12.1246C10.75 12.1241 10.75 12.1237 10.75 12.1232C10.75 12.1227 10.75 12.1222 10.75 12.1217C10.75 12.1212 10.75 12.1207 10.75 12.1203C10.75 12.1198 10.75 12.1193 10.75 12.1188C10.75 12.1183 10.75 12.1178 10.75 12.1173C10.75 12.1168 10.75 12.1163 10.75 12.1158C10.75 12.1153 10.75 12.1148 10.75 12.1143C10.75 12.1138 10.75 12.1133 10.75 12.1128C10.75 12.1123 10.75 12.1118 10.75 12.1113C10.75 12.1108 10.75 12.1103 10.75 12.1098C10.75 12.1092 10.75 12.1087 10.75 12.1082C10.75 12.1077 10.75 12.1072 10.75 12.1067C10.75 12.1062 10.75 12.1056 10.75 12.1051C10.75 12.1046 10.75 12.1041 10.75 12.1036C10.75 12.1031 10.75 12.1025 10.75 12.102C10.75 12.1015 10.75 12.101 10.75 12.1004C10.75 12.0999 10.75 12.0994 10.75 12.0989C10.75 12.0983 10.75 12.0978 10.75 12.0973C10.75 12.0967 10.75 12.0962 10.75 12.0957C10.75 12.0951 10.75 12.0946 10.75 12.0941C10.75 12.0935 10.75 12.093 10.75 12.0925C10.75 12.0919 10.75 12.0914 10.75 12.0908C10.75 12.0903 10.75 12.0898 10.75 12.0892C10.75 12.0887 10.75 12.0881 10.75 12.0876C10.75 12.087 10.75 12.0865 10.75 12.0859C10.75 12.0854 10.75 12.0848 10.75 12.0843C10.75 12.0837 10.75 12.0832 10.75 12.0826C10.75 12.0821 10.75 12.0815 10.75 12.0809C10.75 12.0804 10.75 12.0798 10.75 12.0793C10.75 12.0787 10.75 12.0782 10.75 12.0776C10.75 12.077 10.75 12.0765 10.75 12.0759C10.75 12.0753 10.75 12.0748 10.75 12.0742C10.75 12.0736 10.75 12.0731 10.75 12.0725C10.75 12.0719 10.75 12.0713 10.75 12.0708C10.75 12.0702 10.75 12.0696 10.75 12.0691C10.75 12.0685 10.75 12.0679 10.75 12.0673C10.75 12.0667 10.75 12.0662 10.75 12.0656C10.75 12.065 10.75 12.0644 10.75 12.0638C10.75 12.0633 10.75 12.0627 10.75 12.0621C10.75 12.0615 10.75 12.0609 10.75 12.0603C10.75 12.0597 10.75 12.0591 10.75 12.0585C10.75 12.058 10.75 12.0574 10.75 12.0568C10.75 12.0562 10.75 12.0556 10.75 12.055C10.75 12.0544 10.75 12.0538 10.75 12.0532C10.75 12.0526 10.75 12.052 10.75 12.0514C10.75 12.0508 10.75 12.0502 10.75 12.0496C10.75 12.049 10.75 12.0484 10.75 12.0478C10.75 12.0472 10.75 12.0466 10.75 12.0459C10.75 12.0453 10.75 12.0447 10.75 12.0441C10.75 12.0435 10.75 12.0429 10.75 12.0423C10.75 12.0417 10.75 12.041 10.75 12.0404C10.75 12.0398 10.75 12.0392 10.75 12.0386C10.75 12.0379 10.75 12.0373 10.75 12.0367C10.75 12.0361 10.75 12.0355 10.75 12.0348C10.75 12.0342 10.75 12.0336 10.75 12.033C10.75 12.0323 10.75 12.0317 10.75 12.0311C10.75 12.0304 10.75 12.0298 10.75 12.0292C10.75 12.0285 10.75 12.0279 10.75 12.0273C10.75 12.0266 10.75 12.026 10.75 12.0254C10.75 12.0247 10.75 12.0241 10.75 12.0235C10.75 12.0228 10.75 12.0222 10.75 12.0215C10.75 12.0209 10.75 12.0202 10.75 12.0196C10.75 12.019 10.75 12.0183 10.75 12.0177C10.75 12.017 10.75 12.0164 10.75 12.0157C10.75 12.0151 10.75 12.0144 10.75 12.0138C10.75 12.0131 10.75 12.0125 10.75 12.0118C10.75 12.0111 10.75 12.0105 10.75 12.0098C10.75 12.0092 10.75 12.0085 10.75 12.0079C10.75 12.0072 10.75 12.0065 10.75 12.0059C10.75 12.0052 10.75 12.0045 10.75 12.0039C10.75 12.0032 10.75 12.0025 10.75 12.0019C10.75 12.0012 10.75 12.0005 10.75 11.9999C10.75 11.9992 10.75 11.9985 10.75 11.9979C10.75 11.9972 10.75 11.9965 10.75 11.9958C10.75 11.9952 10.75 11.9945 10.75 11.9938C10.75 11.9931 10.75 11.9925 10.75 11.9918C10.75 11.9911 10.75 11.9904 10.75 11.9897C10.75 11.989 10.75 11.9884 10.75 11.9877C10.75 11.987 10.75 11.9863 10.75 11.9856C10.75 11.9849 10.75 11.9842 10.75 11.9836C10.75 11.9829 10.75 11.9822 10.75 11.9815C10.75 11.9808 10.75 11.9801 10.75 11.9794C10.75 11.9787 10.75 11.978 10.75 11.9773C10.75 11.9766 10.75 11.9759 10.75 11.9752C10.75 11.9745 10.75 11.9738 10.75 11.9731C10.75 11.9724 10.75 11.9717 10.75 11.971C10.75 11.9703 10.75 11.9696 10.75 11.9689C10.75 11.9682 10.75 11.9675 10.75 11.9668C10.75 11.966 10.75 11.9653 10.75 11.9646C10.75 11.9639 10.75 11.9632 10.75 11.9625C10.75 11.9618 10.75 11.9611 10.75 11.9603C10.75 11.9596 10.75 11.9589 10.75 11.9582C10.75 11.9575 10.75 11.9567 10.75 11.956C10.75 11.9553 10.75 11.9546 10.75 11.9539C10.75 11.9531 10.75 11.9524 10.75 11.9517C10.75 11.951 10.75 11.9502 10.75 11.9495C10.75 11.9488 10.75 11.948 10.75 11.9473C10.75 11.9466 10.75 11.9458 10.75 11.9451C10.75 11.9444 10.75 11.9436 10.75 11.9429C10.75 11.9422 10.75 11.9414 10.75 11.9407C10.75 11.9399 10.75 11.9392 10.75 11.9385C10.75 11.9377 10.75 11.937 10.75 11.9362C10.75 11.9355 10.75 11.9348 10.75 11.934C10.75 11.9333 10.75 11.9325 10.75 11.9318C10.75 11.931 10.75 11.9303 10.75 11.9295C10.75 11.9288 10.75 11.928 10.75 11.9273C10.75 11.9265 10.75 11.9258 10.75 11.925C10.75 11.9242 10.75 11.9235 10.75 11.9227C10.75 11.922 10.75 11.9212 10.75 11.9205C10.75 11.9197 10.75 11.9189 10.75 11.9182C10.75 11.9174 10.75 11.9166 10.75 11.9159C10.75 11.9151 10.75 11.9143 10.75 11.9136C10.75 11.9128 10.75 11.912 10.75 11.9113C10.75 11.9105 10.75 11.9097 10.75 11.909C10.75 11.9082 10.75 11.9074 10.75 11.9066C10.75 11.9059 10.75 11.9051 10.75 11.9043C10.75 11.9035 10.75 11.9028 10.75 11.902C10.75 11.9012 10.75 11.9004 10.75 11.8996C10.75 11.8989 10.75 11.8981 10.75 11.8973C10.75 11.8965 10.75 11.8957 10.75 11.8949C10.75 11.8941 10.75 11.8934 10.75 11.8926C10.75 11.8918 10.75 11.891 10.75 11.8902C10.75 11.8894 10.75 11.8886 10.75 11.8878C10.75 11.887 10.75 11.8862 10.75 11.8854C10.75 11.8846 10.75 11.8839 10.75 11.8831C10.75 11.8823 10.75 11.8815 10.75 11.8807C10.75 11.8799 10.75 11.8791 10.75 11.8783C10.75 11.8775 10.75 11.8766 10.75 11.8758C10.75 11.875 10.75 11.8742 10.75 11.8734C10.75 11.8726 10.75 11.8718 10.75 11.871C10.75 11.8702 10.75 11.8694 10.75 11.8686C10.75 11.8678 10.75 11.8669 10.75 11.8661C10.75 11.8653 10.75 11.8645 10.75 11.8637C10.75 11.8629 10.75 11.862 10.75 11.8612C10.75 11.8604 10.75 11.8596 10.75 11.8588C10.75 11.858 10.75 11.8571 10.75 11.8563C10.75 11.8555 10.75 11.8547 10.75 11.8538C10.75 11.853 10.75 11.8522 10.75 11.8514C10.75 11.8505 10.75 11.8497 10.75 11.8489C10.75 11.848 10.75 11.8472 10.75 11.8464C10.75 11.8455 10.75 11.8447 10.75 11.8439C10.75 11.843 10.75 11.8422 10.75 11.8414C10.75 11.8405 10.75 11.8397 10.75 11.8388C10.75 11.838 10.75 11.8372 10.75 11.8363C10.75 11.8355 10.75 11.8346 10.75 11.8338C10.75 11.833 10.75 11.8321 10.75 11.8313C10.75 11.8304 10.75 11.8296 10.75 11.8287C10.75 11.8279 10.75 11.827 10.75 11.8262C10.75 11.8253 10.75 11.8245 10.75 11.8236C10.75 11.8228 10.75 11.8219 10.75 11.8211C10.75 11.8202 10.75 11.8193 10.75 11.8185C10.75 11.8176 10.75 11.8168 10.75 11.8159C10.75 11.8151 10.75 11.8142 10.75 11.8133C10.75 11.8125 10.75 11.8116 10.75 11.8107C10.75 11.8099 10.75 11.809 10.75 11.8081C10.75 11.8073 10.75 11.8064 10.75 11.8055C10.75 11.8047 10.75 11.8038 10.75 11.8029C10.75 11.8021 10.75 11.8012 10.75 11.8003C10.75 11.7994 10.75 11.7986 10.75 11.7977C10.75 11.7968 10.75 11.7959 10.75 11.7951C10.75 11.7942 10.75 11.7933 10.75 11.7924C10.75 11.7916 10.75 11.7907 10.75 11.7898C10.75 11.7889 10.75 11.788 10.75 11.7871C10.75 11.7863 10.75 11.7854 10.75 11.7845C10.75 11.7836 10.75 11.7827 10.75 11.7818C10.75 11.7809 10.75 11.7801 10.75 11.7792C10.75 11.7783 10.75 11.7774 10.75 11.7765C10.75 11.7756 10.75 11.7747 10.75 11.7738C10.75 11.7729 10.75 11.772 10.75 11.7711C10.75 11.7702 10.75 11.7693 10.75 11.7684C10.75 11.7675 10.75 11.7666 10.75 11.7657C10.75 11.7648 10.75 11.7639 10.75 11.763C10.75 11.7621 10.75 11.7612 10.75 11.7603C10.75 11.7594 10.75 11.7585 10.75 11.7576C10.75 11.7567 10.75 11.7558 10.75 11.7548C10.75 11.7539 10.75 11.753 10.75 11.7521C10.75 11.7512 10.75 11.7503 10.75 11.7494C10.75 11.7485 10.75 11.7475 10.75 11.7466C10.75 11.7457 10.75 11.7448 10.75 11.7439C10.75 11.743 10.75 11.742 10.75 11.7411C10.75 11.7402 10.75 11.7393 10.75 11.7383C10.75 11.7374 10.75 11.7365 10.75 11.7356C10.75 11.7346 10.75 11.7337 10.75 11.7328C10.75 11.7319 10.75 11.7309 10.75 11.73C10.75 11.7291 10.75 11.7281 10.75 11.7272C10.75 11.7263 10.75 11.7254 10.75 11.7244C10.75 11.7235 10.75 11.7225 10.75 11.7216C10.75 11.7207 10.75 11.7197 10.75 11.7188C10.75 11.7179 10.75 11.7169 10.75 11.716C10.75 11.715 10.75 11.7141 10.75 11.7132C10.75 11.7122 10.75 11.7113 10.75 11.7103C10.75 11.7094 10.75 11.7084 10.75 11.7075C10.75 11.7065 10.75 11.7056 10.75 11.7046C10.75 11.7037 10.75 11.7028 10.75 11.7018C10.75 11.7008 10.75 11.6999 10.75 11.6989C10.75 11.698 10.75 11.697 10.75 11.6961C10.75 11.6951 10.75 11.6942 10.75 11.6932C10.75 11.6923 10.75 11.6913 10.75 11.6903C10.75 11.6894 10.75 11.6884 10.75 11.6875C10.75 11.6865 10.75 11.6855 10.75 11.6846C10.75 11.6836 10.75 11.6826 10.75 11.6817C10.75 11.6807 10.75 11.6797 10.75 11.6788C10.75 11.6778 10.75 11.6768 10.75 11.6759C10.75 11.6749 10.75 11.6739 10.75 11.673C10.75 11.672 10.75 11.671 10.75 11.67C10.75 11.6691 10.75 11.6681 10.75 11.6671C10.75 11.6661 10.75 11.6652 10.75 11.6642C10.75 11.6632 10.75 11.6622 10.75 11.6612C10.75 11.6603 10.75 11.6593 10.75 11.6583C10.75 11.6573 10.75 11.6563 10.75 11.6554C10.75 11.6544 10.75 11.6534 10.75 11.6524C10.75 11.6514 10.75 11.6504 10.75 11.6494C10.75 11.6484 10.75 11.6475 10.75 11.6465C10.75 11.6455 10.75 11.6445 10.75 11.6435C10.75 11.6425 10.75 11.6415 10.75 11.6405C10.75 11.6395 10.75 11.6385 10.75 11.6375C10.75 11.6365 10.75 11.6355 10.75 11.6345C10.75 11.6335 10.75 11.6325 10.75 11.6315C10.75 11.6305 10.75 11.6295 10.75 11.6285C10.75 11.6275 10.75 11.6265 10.75 11.6255C10.75 11.6245 10.75 11.6235 10.75 11.6225C10.75 11.6215 10.75 11.6205 10.75 11.6195C10.75 11.6185 10.75 11.6175 10.75 11.6165C10.75 11.6154 10.75 11.6144 10.75 11.6134C10.75 11.6124 10.75 11.6114 10.75 11.6104C10.75 11.6094 10.75 11.6083 10.75 11.6073C10.75 11.6063 10.75 11.6053 10.75 11.6043C10.75 11.6033 10.75 11.6022 10.75 11.6012C10.75 11.6002 10.75 11.5992 10.75 11.5981C10.75 11.5971 10.75 11.5961 10.75 11.5951C10.75 11.5941 10.75 11.593 10.75 11.592C10.75 11.591 10.75 11.5899 10.75 11.5889C10.75 11.5879 10.75 11.5869 10.75 11.5858C10.75 11.5848 10.75 11.5838 10.75 11.5827C10.75 11.5817 10.75 11.5807 10.75 11.5796C10.75 11.5786 10.75 11.5776 10.75 11.5765C10.75 11.5755 10.75 11.5745 10.75 11.5734C10.75 11.5724 10.75 11.5713 10.75 11.5703C10.75 11.5693 10.75 11.5682 10.75 11.5672C10.75 11.5661 10.75 11.5651 10.75 11.564C10.75 11.563 10.75 11.5619 10.75 11.5609C10.75 11.5599 10.75 11.5588 10.75 11.5578C10.75 11.5567 10.75 11.5557 10.75 11.5546C10.75 11.5536 10.75 11.5525 10.75 11.5515C10.75 11.5504 10.75 11.5493 10.75 11.5483C10.75 11.5472 10.75 11.5462 10.75 11.5451C10.75 11.5441 10.75 11.543 10.75 11.542C10.75 11.5409 10.75 11.5398 10.75 11.5388C10.75 11.5377 10.75 11.5367 10.75 11.5356C10.75 11.5345 10.75 11.5335 10.75 11.5324C10.75 11.5313 10.75 11.5303 10.75 11.5292C10.75 11.5281 10.75 11.5271 10.75 11.526C10.75 11.5249 10.75 11.5239 10.75 11.5228C10.75 11.5217 10.75 11.5207 10.75 11.5196C10.75 11.5185 10.75 11.5174 10.75 11.5164C10.75 11.5153 10.75 11.5142 10.75 11.5131C10.75 11.5121 10.75 11.511 10.75 11.5099C10.75 11.5088 10.75 11.5078 10.75 11.5067C10.75 11.5056 10.75 11.5045 10.75 11.5034C10.75 11.5024 10.75 11.5013 10.75 11.5002C10.75 11.4991 10.75 11.498 10.75 11.4969C10.75 11.4959 10.75 11.4948 10.75 11.4937C10.75 11.4926 10.75 11.4915 10.75 11.4904C10.75 11.4893 10.75 11.4882 10.75 11.4872C10.75 11.4861 10.75 11.485 10.75 11.4839C10.75 11.4828 10.75 11.4817 10.75 11.4806C10.75 11.4795 10.75 11.4784 10.75 11.4773C10.75 11.4762 10.75 11.4751 10.75 11.474C10.75 11.4729 10.75 11.4718 10.75 11.4707C10.75 11.4696 10.75 11.4685 10.75 11.4674C10.75 11.4663 10.75 11.4652 10.75 11.4641C10.75 11.463 10.75 11.4619 10.75 11.4608C10.75 11.4597 10.75 11.4586 10.75 11.4575C10.75 11.4564 10.75 11.4553 10.75 11.4541C10.75 11.453 10.75 11.4519 10.75 11.4508C10.75 11.4497 10.75 11.4486 10.75 11.4475C10.75 11.4464 10.75 11.4453 10.75 11.4441C10.75 11.443 10.75 11.4419 10.75 11.4408C10.75 11.4397 10.75 11.4386 10.75 11.4374C10.75 11.4363 10.75 11.4352 10.75 11.4341C10.75 11.433 10.75 11.4318 10.75 11.4307C10.75 11.4296 10.75 11.4285 10.75 11.4273C10.75 11.4262 10.75 11.4251 10.75 11.424C10.75 11.4228 10.75 11.4217 10.75 11.4206C10.75 11.4195 10.75 11.4183 10.75 11.4172C10.75 11.4161 10.75 11.4149 10.75 11.4138C10.75 11.4127 10.75 11.4115 10.75 11.4104C10.75 11.4093 10.75 11.4081 10.75 11.407C10.75 11.4059 10.75 11.4047 10.75 11.4036C10.75 11.4025 10.75 11.4013 10.75 11.4002C10.75 11.399 10.75 11.3979 10.75 11.3968C10.75 11.3956 10.75 11.3945 10.75 11.3933C10.75 11.3922 10.75 11.3911 10.75 11.3899C10.75 11.3888 10.75 11.3876 10.75 11.3865C10.75 11.3853 10.75 11.3842 10.75 11.383C10.75 11.3819 10.75 11.3807 10.75 11.3796C10.75 11.3784 10.75 11.3773 10.75 11.3761C10.75 11.375 10.75 11.3738 10.75 11.3727C10.75 11.3715 10.75 11.3704 10.75 11.3692C10.75 11.3681 10.75 11.3669 10.75 11.3658C10.75 11.3646 10.75 11.3634 10.75 11.3623C10.75 11.3611 10.75 11.36 10.75 11.3588C10.75 11.3576 10.75 11.3565 10.75 11.3553C10.75 11.3542 10.75 11.353 10.75 11.3518C10.75 11.3507 10.75 11.3495 10.75 11.3483C10.75 11.3472 10.75 11.346 10.75 11.3448C10.75 11.3437 10.75 11.3425 10.75 11.3413C10.75 11.3402 10.75 11.339 10.75 11.3378C10.75 11.3366 10.75 11.3355 10.75 11.3343C10.75 11.3331 10.75 11.332 10.75 11.3308C10.75 11.3296 10.75 11.3284 10.75 11.3273C10.75 11.3261 10.75 11.3249 10.75 11.3237C10.75 11.3226 10.75 11.3214 10.75 11.3202C10.75 11.319 10.75 11.3178 10.75 11.3167C10.75 11.3155 10.75 11.3143 10.75 11.3131C10.75 11.3119 10.75 11.3107 10.75 11.3096C10.75 11.3084 10.75 11.3072 10.75 11.306C10.75 11.3048 10.75 11.3036 10.75 11.3024C10.75 11.3012 10.75 11.3001 10.75 11.2989C10.75 11.2977 10.75 11.2965 10.75 11.2953C10.75 11.2941 10.75 11.2929 10.75 11.2917C10.75 11.2905 10.75 11.2893 10.75 11.2881C10.75 11.2869 10.75 11.2857 10.75 11.2845C10.75 11.2834 10.75 11.2822 10.75 11.281C10.75 11.2798 10.75 11.2786 10.75 11.2774C10.75 11.2762 10.75 11.275 10.75 11.2738C10.75 11.2726 10.75 11.2714 10.75 11.2701C10.75 11.2689 10.75 11.2677 10.75 11.2665C10.75 11.2653 10.75 11.2641 10.75 11.2629C10.75 11.2617 10.75 11.2605 10.75 11.2593C10.75 11.2581 10.75 11.2569 10.75 11.2557C10.75 11.2545 10.75 11.2532 10.75 11.252C10.75 11.2508 10.75 11.2496 10.75 11.2484C10.75 11.2472 10.75 11.246 10.75 11.2448C10.75 11.2435 10.75 11.2423 10.75 11.2411C10.75 11.2399 10.75 11.2387 10.75 11.2375C10.75 11.2362 10.75 11.235 10.75 11.2338C10.75 11.2326 10.75 11.2314 10.75 11.2301C10.75 11.2289 10.75 11.2277 10.75 11.2265C10.75 11.2252 10.75 11.224 10.75 11.2228C10.75 11.2216 10.75 11.2203 10.75 11.2191C10.75 11.2179 10.75 11.2167 10.75 11.2154C10.75 11.2142 10.75 11.213 10.75 11.2117C10.75 11.2105 10.75 11.2093 10.75 11.208C10.75 11.2068 10.75 11.2056 10.75 11.2043C10.75 11.2031 10.75 11.2019 10.75 11.2006C10.75 11.1994 10.75 11.1982 10.75 11.1969C10.75 11.1957 10.75 11.1945 10.75 11.1932C10.75 11.192 10.75 11.1907 10.75 11.1895C10.75 11.1883 10.75 11.187 10.75 11.1858H9.25C9.25 11.187 9.25 11.1883 9.25 11.1895C9.25 11.1907 9.25 11.192 9.25 11.1932C9.25 11.1945 9.25 11.1957 9.25 11.1969C9.25 11.1982 9.25 11.1994 9.25 11.2006C9.25 11.2019 9.25 11.2031 9.25 11.2043C9.25 11.2056 9.25 11.2068 9.25 11.208C9.25 11.2093 9.25 11.2105 9.25 11.2117C9.25 11.213 9.25 11.2142 9.25 11.2154C9.25 11.2167 9.25 11.2179 9.25 11.2191C9.25 11.2203 9.25 11.2216 9.25 11.2228C9.25 11.224 9.25 11.2252 9.25 11.2265C9.25 11.2277 9.25 11.2289 9.25 11.2301C9.25 11.2314 9.25 11.2326 9.25 11.2338C9.25 11.235 9.25 11.2362 9.25 11.2375C9.25 11.2387 9.25 11.2399 9.25 11.2411C9.25 11.2423 9.25 11.2435 9.25 11.2448C9.25 11.246 9.25 11.2472 9.25 11.2484C9.25 11.2496 9.25 11.2508 9.25 11.252C9.25 11.2532 9.25 11.2545 9.25 11.2557C9.25 11.2569 9.25 11.2581 9.25 11.2593C9.25 11.2605 9.25 11.2617 9.25 11.2629C9.25 11.2641 9.25 11.2653 9.25 11.2665C9.25 11.2677 9.25 11.2689 9.25 11.2701C9.25 11.2714 9.25 11.2726 9.25 11.2738C9.25 11.275 9.25 11.2762 9.25 11.2774C9.25 11.2786 9.25 11.2798 9.25 11.281C9.25 11.2822 9.25 11.2834 9.25 11.2845C9.25 11.2857 9.25 11.2869 9.25 11.2881C9.25 11.2893 9.25 11.2905 9.25 11.2917C9.25 11.2929 9.25 11.2941 9.25 11.2953C9.25 11.2965 9.25 11.2977 9.25 11.2989C9.25 11.3001 9.25 11.3012 9.25 11.3024C9.25 11.3036 9.25 11.3048 9.25 11.306C9.25 11.3072 9.25 11.3084 9.25 11.3096C9.25 11.3107 9.25 11.3119 9.25 11.3131C9.25 11.3143 9.25 11.3155 9.25 11.3167C9.25 11.3178 9.25 11.319 9.25 11.3202C9.25 11.3214 9.25 11.3226 9.25 11.3237C9.25 11.3249 9.25 11.3261 9.25 11.3273C9.25 11.3284 9.25 11.3296 9.25 11.3308C9.25 11.332 9.25 11.3331 9.25 11.3343C9.25 11.3355 9.25 11.3366 9.25 11.3378C9.25 11.339 9.25 11.3402 9.25 11.3413C9.25 11.3425 9.25 11.3437 9.25 11.3448C9.25 11.346 9.25 11.3472 9.25 11.3483C9.25 11.3495 9.25 11.3507 9.25 11.3518C9.25 11.353 9.25 11.3542 9.25 11.3553C9.25 11.3565 9.25 11.3576 9.25 11.3588C9.25 11.36 9.25 11.3611 9.25 11.3623C9.25 11.3634 9.25 11.3646 9.25 11.3658C9.25 11.3669 9.25 11.3681 9.25 11.3692C9.25 11.3704 9.25 11.3715 9.25 11.3727C9.25 11.3738 9.25 11.375 9.25 11.3761C9.25 11.3773 9.25 11.3784 9.25 11.3796C9.25 11.3807 9.25 11.3819 9.25 11.383C9.25 11.3842 9.25 11.3853 9.25 11.3865C9.25 11.3876 9.25 11.3888 9.25 11.3899C9.25 11.3911 9.25 11.3922 9.25 11.3933C9.25 11.3945 9.25 11.3956 9.25 11.3968C9.25 11.3979 9.25 11.399 9.25 11.4002C9.25 11.4013 9.25 11.4025 9.25 11.4036C9.25 11.4047 9.25 11.4059 9.25 11.407C9.25 11.4081 9.25 11.4093 9.25 11.4104C9.25 11.4115 9.25 11.4127 9.25 11.4138C9.25 11.4149 9.25 11.4161 9.25 11.4172C9.25 11.4183 9.25 11.4195 9.25 11.4206C9.25 11.4217 9.25 11.4228 9.25 11.424C9.25 11.4251 9.25 11.4262 9.25 11.4273C9.25 11.4285 9.25 11.4296 9.25 11.4307C9.25 11.4318 9.25 11.433 9.25 11.4341C9.25 11.4352 9.25 11.4363 9.25 11.4374C9.25 11.4386 9.25 11.4397 9.25 11.4408C9.25 11.4419 9.25 11.443 9.25 11.4441C9.25 11.4453 9.25 11.4464 9.25 11.4475C9.25 11.4486 9.25 11.4497 9.25 11.4508C9.25 11.4519 9.25 11.453 9.25 11.4541C9.25 11.4553 9.25 11.4564 9.25 11.4575C9.25 11.4586 9.25 11.4597 9.25 11.4608C9.25 11.4619 9.25 11.463 9.25 11.4641C9.25 11.4652 9.25 11.4663 9.25 11.4674C9.25 11.4685 9.25 11.4696 9.25 11.4707C9.25 11.4718 9.25 11.4729 9.25 11.474C9.25 11.4751 9.25 11.4762 9.25 11.4773C9.25 11.4784 9.25 11.4795 9.25 11.4806C9.25 11.4817 9.25 11.4828 9.25 11.4839C9.25 11.485 9.25 11.4861 9.25 11.4872C9.25 11.4882 9.25 11.4893 9.25 11.4904C9.25 11.4915 9.25 11.4926 9.25 11.4937C9.25 11.4948 9.25 11.4959 9.25 11.4969C9.25 11.498 9.25 11.4991 9.25 11.5002C9.25 11.5013 9.25 11.5024 9.25 11.5034C9.25 11.5045 9.25 11.5056 9.25 11.5067C9.25 11.5078 9.25 11.5088 9.25 11.5099C9.25 11.511 9.25 11.5121 9.25 11.5131C9.25 11.5142 9.25 11.5153 9.25 11.5164C9.25 11.5174 9.25 11.5185 9.25 11.5196C9.25 11.5207 9.25 11.5217 9.25 11.5228C9.25 11.5239 9.25 11.5249 9.25 11.526C9.25 11.5271 9.25 11.5281 9.25 11.5292C9.25 11.5303 9.25 11.5313 9.25 11.5324C9.25 11.5335 9.25 11.5345 9.25 11.5356C9.25 11.5367 9.25 11.5377 9.25 11.5388C9.25 11.5398 9.25 11.5409 9.25 11.542C9.25 11.543 9.25 11.5441 9.25 11.5451C9.25 11.5462 9.25 11.5472 9.25 11.5483C9.25 11.5493 9.25 11.5504 9.25 11.5515C9.25 11.5525 9.25 11.5536 9.25 11.5546C9.25 11.5557 9.25 11.5567 9.25 11.5578C9.25 11.5588 9.25 11.5599 9.25 11.5609C9.25 11.5619 9.25 11.563 9.25 11.564C9.25 11.5651 9.25 11.5661 9.25 11.5672C9.25 11.5682 9.25 11.5693 9.25 11.5703C9.25 11.5713 9.25 11.5724 9.25 11.5734C9.25 11.5745 9.25 11.5755 9.25 11.5765C9.25 11.5776 9.25 11.5786 9.25 11.5796C9.25 11.5807 9.25 11.5817 9.25 11.5827C9.25 11.5838 9.25 11.5848 9.25 11.5858C9.25 11.5869 9.25 11.5879 9.25 11.5889C9.25 11.5899 9.25 11.591 9.25 11.592C9.25 11.593 9.25 11.5941 9.25 11.5951C9.25 11.5961 9.25 11.5971 9.25 11.5981C9.25 11.5992 9.25 11.6002 9.25 11.6012C9.25 11.6022 9.25 11.6033 9.25 11.6043C9.25 11.6053 9.25 11.6063 9.25 11.6073C9.25 11.6083 9.25 11.6094 9.25 11.6104C9.25 11.6114 9.25 11.6124 9.25 11.6134C9.25 11.6144 9.25 11.6154 9.25 11.6165C9.25 11.6175 9.25 11.6185 9.25 11.6195C9.25 11.6205 9.25 11.6215 9.25 11.6225C9.25 11.6235 9.25 11.6245 9.25 11.6255C9.25 11.6265 9.25 11.6275 9.25 11.6285C9.25 11.6295 9.25 11.6305 9.25 11.6315C9.25 11.6325 9.25 11.6335 9.25 11.6345C9.25 11.6355 9.25 11.6365 9.25 11.6375C9.25 11.6385 9.25 11.6395 9.25 11.6405C9.25 11.6415 9.25 11.6425 9.25 11.6435C9.25 11.6445 9.25 11.6455 9.25 11.6465C9.25 11.6475 9.25 11.6484 9.25 11.6494C9.25 11.6504 9.25 11.6514 9.25 11.6524C9.25 11.6534 9.25 11.6544 9.25 11.6554C9.25 11.6563 9.25 11.6573 9.25 11.6583C9.25 11.6593 9.25 11.6603 9.25 11.6612C9.25 11.6622 9.25 11.6632 9.25 11.6642C9.25 11.6652 9.25 11.6661 9.25 11.6671C9.25 11.6681 9.25 11.6691 9.25 11.67C9.25 11.671 9.25 11.672 9.25 11.673C9.25 11.6739 9.25 11.6749 9.25 11.6759C9.25 11.6768 9.25 11.6778 9.25 11.6788C9.25 11.6797 9.25 11.6807 9.25 11.6817C9.25 11.6826 9.25 11.6836 9.25 11.6846C9.25 11.6855 9.25 11.6865 9.25 11.6875C9.25 11.6884 9.25 11.6894 9.25 11.6903C9.25 11.6913 9.25 11.6923 9.25 11.6932C9.25 11.6942 9.25 11.6951 9.25 11.6961C9.25 11.697 9.25 11.698 9.25 11.6989C9.25 11.6999 9.25 11.7008 9.25 11.7018C9.25 11.7028 9.25 11.7037 9.25 11.7046C9.25 11.7056 9.25 11.7065 9.25 11.7075C9.25 11.7084 9.25 11.7094 9.25 11.7103C9.25 11.7113 9.25 11.7122 9.25 11.7132C9.25 11.7141 9.25 11.715 9.25 11.716C9.25 11.7169 9.25 11.7179 9.25 11.7188C9.25 11.7197 9.25 11.7207 9.25 11.7216C9.25 11.7225 9.25 11.7235 9.25 11.7244C9.25 11.7254 9.25 11.7263 9.25 11.7272C9.25 11.7281 9.25 11.7291 9.25 11.73C9.25 11.7309 9.25 11.7319 9.25 11.7328C9.25 11.7337 9.25 11.7346 9.25 11.7356C9.25 11.7365 9.25 11.7374 9.25 11.7383C9.25 11.7393 9.25 11.7402 9.25 11.7411C9.25 11.742 9.25 11.743 9.25 11.7439C9.25 11.7448 9.25 11.7457 9.25 11.7466C9.25 11.7475 9.25 11.7485 9.25 11.7494C9.25 11.7503 9.25 11.7512 9.25 11.7521C9.25 11.753 9.25 11.7539 9.25 11.7548C9.25 11.7558 9.25 11.7567 9.25 11.7576C9.25 11.7585 9.25 11.7594 9.25 11.7603C9.25 11.7612 9.25 11.7621 9.25 11.763C9.25 11.7639 9.25 11.7648 9.25 11.7657C9.25 11.7666 9.25 11.7675 9.25 11.7684C9.25 11.7693 9.25 11.7702 9.25 11.7711C9.25 11.772 9.25 11.7729 9.25 11.7738C9.25 11.7747 9.25 11.7756 9.25 11.7765C9.25 11.7774 9.25 11.7783 9.25 11.7792C9.25 11.7801 9.25 11.7809 9.25 11.7818C9.25 11.7827 9.25 11.7836 9.25 11.7845C9.25 11.7854 9.25 11.7863 9.25 11.7871C9.25 11.788 9.25 11.7889 9.25 11.7898C9.25 11.7907 9.25 11.7916 9.25 11.7924C9.25 11.7933 9.25 11.7942 9.25 11.7951C9.25 11.7959 9.25 11.7968 9.25 11.7977C9.25 11.7986 9.25 11.7994 9.25 11.8003C9.25 11.8012 9.25 11.8021 9.25 11.8029C9.25 11.8038 9.25 11.8047 9.25 11.8055C9.25 11.8064 9.25 11.8073 9.25 11.8081C9.25 11.809 9.25 11.8099 9.25 11.8107C9.25 11.8116 9.25 11.8125 9.25 11.8133C9.25 11.8142 9.25 11.8151 9.25 11.8159C9.25 11.8168 9.25 11.8176 9.25 11.8185C9.25 11.8193 9.25 11.8202 9.25 11.8211C9.25 11.8219 9.25 11.8228 9.25 11.8236C9.25 11.8245 9.25 11.8253 9.25 11.8262C9.25 11.827 9.25 11.8279 9.25 11.8287C9.25 11.8296 9.25 11.8304 9.25 11.8313C9.25 11.8321 9.25 11.833 9.25 11.8338C9.25 11.8346 9.25 11.8355 9.25 11.8363C9.25 11.8372 9.25 11.838 9.25 11.8388C9.25 11.8397 9.25 11.8405 9.25 11.8414C9.25 11.8422 9.25 11.843 9.25 11.8439C9.25 11.8447 9.25 11.8455 9.25 11.8464C9.25 11.8472 9.25 11.848 9.25 11.8489C9.25 11.8497 9.25 11.8505 9.25 11.8514C9.25 11.8522 9.25 11.853 9.25 11.8538C9.25 11.8547 9.25 11.8555 9.25 11.8563C9.25 11.8571 9.25 11.858 9.25 11.8588C9.25 11.8596 9.25 11.8604 9.25 11.8612C9.25 11.862 9.25 11.8629 9.25 11.8637C9.25 11.8645 9.25 11.8653 9.25 11.8661C9.25 11.8669 9.25 11.8678 9.25 11.8686C9.25 11.8694 9.25 11.8702 9.25 11.871C9.25 11.8718 9.25 11.8726 9.25 11.8734C9.25 11.8742 9.25 11.875 9.25 11.8758C9.25 11.8766 9.25 11.8775 9.25 11.8783C9.25 11.8791 9.25 11.8799 9.25 11.8807C9.25 11.8815 9.25 11.8823 9.25 11.8831C9.25 11.8839 9.25 11.8846 9.25 11.8854C9.25 11.8862 9.25 11.887 9.25 11.8878C9.25 11.8886 9.25 11.8894 9.25 11.8902C9.25 11.891 9.25 11.8918 9.25 11.8926C9.25 11.8934 9.25 11.8941 9.25 11.8949C9.25 11.8957 9.25 11.8965 9.25 11.8973C9.25 11.8981 9.25 11.8989 9.25 11.8996C9.25 11.9004 9.25 11.9012 9.25 11.902C9.25 11.9028 9.25 11.9035 9.25 11.9043C9.25 11.9051 9.25 11.9059 9.25 11.9066C9.25 11.9074 9.25 11.9082 9.25 11.909C9.25 11.9097 9.25 11.9105 9.25 11.9113C9.25 11.912 9.25 11.9128 9.25 11.9136C9.25 11.9143 9.25 11.9151 9.25 11.9159C9.25 11.9166 9.25 11.9174 9.25 11.9182C9.25 11.9189 9.25 11.9197 9.25 11.9205C9.25 11.9212 9.25 11.922 9.25 11.9227C9.25 11.9235 9.25 11.9242 9.25 11.925C9.25 11.9258 9.25 11.9265 9.25 11.9273C9.25 11.928 9.25 11.9288 9.25 11.9295C9.25 11.9303 9.25 11.931 9.25 11.9318C9.25 11.9325 9.25 11.9333 9.25 11.934C9.25 11.9348 9.25 11.9355 9.25 11.9362C9.25 11.937 9.25 11.9377 9.25 11.9385C9.25 11.9392 9.25 11.9399 9.25 11.9407C9.25 11.9414 9.25 11.9422 9.25 11.9429C9.25 11.9436 9.25 11.9444 9.25 11.9451C9.25 11.9458 9.25 11.9466 9.25 11.9473C9.25 11.948 9.25 11.9488 9.25 11.9495C9.25 11.9502 9.25 11.951 9.25 11.9517C9.25 11.9524 9.25 11.9531 9.25 11.9539C9.25 11.9546 9.25 11.9553 9.25 11.956C9.25 11.9567 9.25 11.9575 9.25 11.9582C9.25 11.9589 9.25 11.9596 9.25 11.9603C9.25 11.9611 9.25 11.9618 9.25 11.9625C9.25 11.9632 9.25 11.9639 9.25 11.9646C9.25 11.9653 9.25 11.966 9.25 11.9668C9.25 11.9675 9.25 11.9682 9.25 11.9689C9.25 11.9696 9.25 11.9703 9.25 11.971C9.25 11.9717 9.25 11.9724 9.25 11.9731C9.25 11.9738 9.25 11.9745 9.25 11.9752C9.25 11.9759 9.25 11.9766 9.25 11.9773C9.25 11.978 9.25 11.9787 9.25 11.9794C9.25 11.9801 9.25 11.9808 9.25 11.9815C9.25 11.9822 9.25 11.9829 9.25 11.9836C9.25 11.9842 9.25 11.9849 9.25 11.9856C9.25 11.9863 9.25 11.987 9.25 11.9877C9.25 11.9884 9.25 11.989 9.25 11.9897C9.25 11.9904 9.25 11.9911 9.25 11.9918C9.25 11.9925 9.25 11.9931 9.25 11.9938C9.25 11.9945 9.25 11.9952 9.25 11.9958C9.25 11.9965 9.25 11.9972 9.25 11.9979C9.25 11.9985 9.25 11.9992 9.25 11.9999C9.25 12.0005 9.25 12.0012 9.25 12.0019C9.25 12.0025 9.25 12.0032 9.25 12.0039C9.25 12.0045 9.25 12.0052 9.25 12.0059C9.25 12.0065 9.25 12.0072 9.25 12.0079C9.25 12.0085 9.25 12.0092 9.25 12.0098C9.25 12.0105 9.25 12.0111 9.25 12.0118C9.25 12.0125 9.25 12.0131 9.25 12.0138C9.25 12.0144 9.25 12.0151 9.25 12.0157C9.25 12.0164 9.25 12.017 9.25 12.0177C9.25 12.0183 9.25 12.019 9.25 12.0196C9.25 12.0202 9.25 12.0209 9.25 12.0215C9.25 12.0222 9.25 12.0228 9.25 12.0235C9.25 12.0241 9.25 12.0247 9.25 12.0254C9.25 12.026 9.25 12.0266 9.25 12.0273C9.25 12.0279 9.25 12.0285 9.25 12.0292C9.25 12.0298 9.25 12.0304 9.25 12.0311C9.25 12.0317 9.25 12.0323 9.25 12.033C9.25 12.0336 9.25 12.0342 9.25 12.0348C9.25 12.0355 9.25 12.0361 9.25 12.0367C9.25 12.0373 9.25 12.0379 9.25 12.0386C9.25 12.0392 9.25 12.0398 9.25 12.0404C9.25 12.041 9.25 12.0417 9.25 12.0423C9.25 12.0429 9.25 12.0435 9.25 12.0441C9.25 12.0447 9.25 12.0453 9.25 12.0459C9.25 12.0466 9.25 12.0472 9.25 12.0478C9.25 12.0484 9.25 12.049 9.25 12.0496C9.25 12.0502 9.25 12.0508 9.25 12.0514C9.25 12.052 9.25 12.0526 9.25 12.0532C9.25 12.0538 9.25 12.0544 9.25 12.055C9.25 12.0556 9.25 12.0562 9.25 12.0568C9.25 12.0574 9.25 12.058 9.25 12.0585C9.25 12.0591 9.25 12.0597 9.25 12.0603C9.25 12.0609 9.25 12.0615 9.25 12.0621C9.25 12.0627 9.25 12.0633 9.25 12.0638C9.25 12.0644 9.25 12.065 9.25 12.0656C9.25 12.0662 9.25 12.0667 9.25 12.0673C9.25 12.0679 9.25 12.0685 9.25 12.0691C9.25 12.0696 9.25 12.0702 9.25 12.0708C9.25 12.0713 9.25 12.0719 9.25 12.0725C9.25 12.0731 9.25 12.0736 9.25 12.0742C9.25 12.0748 9.25 12.0753 9.25 12.0759C9.25 12.0765 9.25 12.077 9.25 12.0776C9.25 12.0782 9.25 12.0787 9.25 12.0793C9.25 12.0798 9.25 12.0804 9.25 12.0809C9.25 12.0815 9.25 12.0821 9.25 12.0826C9.25 12.0832 9.25 12.0837 9.25 12.0843C9.25 12.0848 9.25 12.0854 9.25 12.0859C9.25 12.0865 9.25 12.087 9.25 12.0876C9.25 12.0881 9.25 12.0887 9.25 12.0892C9.25 12.0898 9.25 12.0903 9.25 12.0908C9.25 12.0914 9.25 12.0919 9.25 12.0925C9.25 12.093 9.25 12.0935 9.25 12.0941C9.25 12.0946 9.25 12.0951 9.25 12.0957C9.25 12.0962 9.25 12.0967 9.25 12.0973C9.25 12.0978 9.25 12.0983 9.25 12.0989C9.25 12.0994 9.25 12.0999 9.25 12.1004C9.25 12.101 9.25 12.1015 9.25 12.102C9.25 12.1025 9.25 12.1031 9.25 12.1036C9.25 12.1041 9.25 12.1046 9.25 12.1051C9.25 12.1056 9.25 12.1062 9.25 12.1067C9.25 12.1072 9.25 12.1077 9.25 12.1082C9.25 12.1087 9.25 12.1092 9.25 12.1098C9.25 12.1103 9.25 12.1108 9.25 12.1113C9.25 12.1118 9.25 12.1123 9.25 12.1128C9.25 12.1133 9.25 12.1138 9.25 12.1143C9.25 12.1148 9.25 12.1153 9.25 12.1158C9.25 12.1163 9.25 12.1168 9.25 12.1173C9.25 12.1178 9.25 12.1183 9.25 12.1188C9.25 12.1193 9.25 12.1198 9.25 12.1203C9.25 12.1207 9.25 12.1212 9.25 12.1217C9.25 12.1222 9.25 12.1227 9.25 12.1232C9.25 12.1237 9.25 12.1241 9.25 12.1246C9.25 12.1251 9.25 12.1256 9.25 12.1261C9.25 12.1266 9.25 12.127 9.25 12.1275C9.25 12.128 9.25 12.1285 9.25 12.1289C9.25 12.1294 9.25 12.1299 9.25 12.1304C9.25 12.1308 9.25 12.1313 9.25 12.1318C9.25 12.1322 9.25 12.1327 9.25 12.1332C9.25 12.1336 9.25 12.1341 9.25 12.1346C9.25 12.135 9.25 12.1355 9.25 12.1359C9.25 12.1364 9.25 12.1369 9.25 12.1373C9.25 12.1378 9.25 12.1382 9.25 12.1387C9.25 12.1391 9.25 12.1396 9.25 12.14C9.25 12.1405 9.25 12.141 9.25 12.1414C9.25 12.1419 9.25 12.1423 9.25 12.1427C9.25 12.1432 9.25 12.1436 9.25 12.1441C9.25 12.1445 9.25 12.145 9.25 12.1454C9.25 12.1459 9.25 12.1463 9.25 12.1467C9.25 12.1472 9.25 12.1476 9.25 12.148C9.25 12.1485 9.25 12.1489 9.25 12.1493C9.25 12.1498 9.25 12.1502 9.25 12.1506C9.25 12.1511 9.25 12.1515 9.25 12.1519C9.25 12.1523 9.25 12.1528 9.25 12.1532C9.25 12.1536 9.25 12.154 9.25 12.1545C9.25 12.1549 9.25 12.1553 9.25 12.1557C9.25 12.1561 9.25 12.1566 9.25 12.157C9.25 12.1574 9.25 12.1578 9.25 12.1582C9.25 12.1586 9.25 12.1591 9.25 12.1595C9.25 12.1599 9.25 12.1603 9.25 12.1607C9.25 12.1611 9.25 12.1615 9.25 12.1619C9.25 12.1623 9.25 12.1627 9.25 12.1631C9.25 12.1635 9.25 12.1639 9.25 12.1643C9.25 12.1647 9.25 12.1651 9.25 12.1655C9.25 12.1659 9.25 12.1663 9.25 12.1667C9.25 12.1671 9.25 12.1675 9.25 12.1679C9.25 12.1683 9.25 12.1687 9.25 12.169C9.25 12.1694 9.25 12.1698 9.25 12.1702C9.25 12.1706 9.25 12.171 9.25 12.1714C9.25 12.1717 9.25 12.1721 9.25 12.1725C9.25 12.1729 9.25 12.1733 9.25 12.1736C9.25 12.174 9.25 12.1744 9.25 12.1748C9.25 12.1751 9.25 12.1755 9.25 12.1759C9.25 12.1762 9.25 12.1766 9.25 12.177C9.25 12.1774 9.25 12.1777 9.25 12.1781C9.25 12.1784 9.25 12.1788 9.25 12.1792C9.25 12.1795 9.25 12.1799 9.25 12.1803C9.25 12.1806 9.25 12.181 9.25 12.1813C9.25 12.1817 9.25 12.182 9.25 12.1824C9.25 12.1828 9.25 12.1831 9.25 12.1835C9.25 12.1838 9.25 12.1842 9.25 12.1845C9.25 12.1849 9.25 12.1852 9.25 12.1855C9.25 12.1859 9.25 12.1862 9.25 12.1866C9.25 12.1869 9.25 12.1873 9.25 12.1876C9.25 12.1879 9.25 12.1883 9.25 12.1886C9.25 12.1889 9.25 12.1893 9.25 12.1896C9.25 12.1899 9.25 12.1903 9.25 12.1906C9.25 12.1909 9.25 12.1913 9.25 12.1916C9.25 12.1919 9.25 12.1923 9.25 12.1926C9.25 12.1929 9.25 12.1932 9.25 12.1936C9.25 12.1939 9.25 12.1942 9.25 12.1945C9.25 12.1948 9.25 12.1951 9.25 12.1955C9.25 12.1958 9.25 12.1961 9.25 12.1964C9.25 12.1967 9.25 12.197 9.25 12.1973C9.25 12.1977 9.25 12.198 9.25 12.1983C9.25 12.1986 9.25 12.1989 9.25 12.1992C9.25 12.1995 9.25 12.1998 9.25 12.2001C9.25 12.2004 9.25 12.2007 9.25 12.201C9.25 12.2013 9.25 12.2016 9.25 12.2019C9.25 12.2022 9.25 12.2025 9.25 12.2028C9.25 12.2031 9.25 12.2034 9.25 12.2036C9.25 12.2039 9.25 12.2042 9.25 12.2045C9.25 12.2048 9.25 12.2051 9.25 12.2054C9.25 12.2057 9.25 12.2059 9.25 12.2062C9.25 12.2065 9.25 12.2068 9.25 12.2071C9.25 12.2073 9.25 12.2076 9.25 12.2079C9.25 12.2082 9.25 12.2084 9.25 12.2087C9.25 12.209 9.25 12.2093 9.25 12.2095C9.25 12.2098 9.25 12.2101 9.25 12.2103C9.25 12.2106 9.25 12.2109 9.25 12.2111C9.25 12.2114 9.25 12.2116 9.25 12.2119C9.25 12.2122 9.25 12.2124 9.25 12.2127C9.25 12.2129 9.25 12.2132 9.25 12.2135C9.25 12.2137 9.25 12.214 9.25 12.2142C9.25 12.2145 9.25 12.2147 9.25 12.215C9.25 12.2152 9.25 12.2155 9.25 12.2157C9.25 12.2159 9.25 12.2162 9.25 12.2164C9.25 12.2167 9.25 12.2169 9.25 12.2172C9.25 12.2174 9.25 12.2176 9.25 12.2179C9.25 12.2181 9.25 12.2183 9.25 12.2186C9.25 12.2188 9.25 12.219 9.25 12.2193C9.25 12.2195 9.25 12.2197 9.25 12.22C9.25 12.2202 9.25 12.2204 9.25 12.2206C9.25 12.2209 9.25 12.2211 9.25 12.2213C9.25 12.2215 9.25 12.2217 9.25 12.222C9.25 12.2222 9.25 12.2224 9.25 12.2226C9.25 12.2228 9.25 12.223 9.25 12.2233C9.25 12.2235 9.25 12.2237 9.25 12.2239C9.25 12.2241 9.25 12.2243 9.25 12.2245C9.25 12.2247 9.25 12.2249 9.25 12.2251C9.25 12.2253 9.25 12.2255 9.25 12.2257C9.25 12.2259 9.25 12.2261 9.25 12.2263C9.25 12.2265 9.25 12.2267 9.25 12.2269C9.25 12.2271 9.25 12.2273 9.25 12.2275C9.25 12.2277 9.25 12.2279 9.25 12.2281C9.25 12.2283 9.25 12.2284 9.25 12.2286C9.25 12.2288 9.25 12.229 9.25 12.2292C9.25 12.2294 9.25 12.2295 9.25 12.2297C9.25 12.2299 9.25 12.2301 9.25 12.2303C9.25 12.2304 9.25 12.2306 9.25 12.2308C9.25 12.231 9.25 12.2311 9.25 12.2313C9.25 12.2315 9.25 12.2316 9.25 12.2318C9.25 12.232 9.25 12.2321 9.25 12.2323C9.25 12.2325 9.25 12.2326 9.25 12.2328C9.25 12.2329 9.25 12.2331 9.25 12.2333C9.25 12.2334 9.25 12.2336 9.25 12.2337C9.25 12.2339 9.25 12.234 9.25 12.2342C9.25 12.2343 9.25 12.2345 9.25 12.2346C9.25 12.2348 9.25 12.2349 9.25 12.2351C9.25 12.2352 9.25 12.2354 9.25 12.2355C9.25 12.2357 9.25 12.2358 9.25 12.2359C9.25 12.2361 9.25 12.2362 9.25 12.2363C9.25 12.2365 9.25 12.2366 9.25 12.2368C9.25 12.2369 9.25 12.237 9.25 12.2371C9.25 12.2373 9.25 12.2374 9.25 12.2375C9.25 12.2377 9.25 12.2378 9.25 12.2379C9.25 12.238 9.25 12.2382 9.25 12.2383C9.25 12.2384 9.25 12.2385 9.25 12.2386C9.25 12.2387 9.25 12.2389 9.25 12.239C9.25 12.2391 9.25 12.2392 9.25 12.2393C9.25 12.2394 9.25 12.2395 9.25 12.2396C9.25 12.2398 9.25 12.2399 9.25 12.24C9.25 12.2401 9.25 12.2402 9.25 12.2403C9.25 12.2404 9.25 12.2405 9.25 12.2406C9.25 12.2407 9.25 12.2408 9.25 12.2409C9.25 12.241 9.25 12.2411 9.25 12.2411C9.25 12.2412 9.25 12.2413 9.25 12.2414C9.25 12.2415 9.25 12.2416 9.25 12.2417C9.25 12.2418 9.25 12.2419 9.25 12.2419C9.25 12.242 9.25 12.2421 9.25 12.2422C9.25 12.2423 9.25 12.2423 9.25 12.2424C9.25 12.2425 9.25 12.2426 9.25 12.2426C9.25 12.2427 9.25 12.2428 9.25 12.2429C9.25 12.2429 9.25 12.243 9.25 12.2431C9.25 12.2431 9.25 12.2432 9.25 12.2433C9.25 12.2433 9.25 12.2434 9.25 12.2434C9.25 12.2435 9.25 12.2436 9.25 12.2436C9.25 12.2437 9.25 12.2437 9.25 12.2438C9.25 12.2438 9.25 12.2439 9.25 12.244C9.25 12.244 9.25 12.2441 9.25 12.2441C9.25 12.2442 9.25 12.2442 9.25 12.2442C9.25 12.2443 9.25 12.2443 9.25 12.2444C9.25 12.2444 9.25 12.2445 9.25 12.2445C9.25 12.2445 9.25 12.2446 9.25 12.2446C9.25 12.2446 9.25 12.2447 9.25 12.2447C9.25 12.2447 9.25 12.2448 9.25 12.2448C9.25 12.2448 9.25 12.2449 9.25 12.2449C9.25 12.2449 9.25 12.2449 9.25 12.245C9.25 12.245 9.25 12.245 9.25 12.245C9.25 12.245 9.25 12.2451 9.25 12.2451C9.25 12.2451 9.25 12.2451 9.25 12.2451C9.25 12.2451 9.25 12.2451 9.25 12.2451C9.25 12.2452 9.25 12.2452 9.25 12.2452C9.25 12.2452 9.25 12.2452 9.25 12.2452C9.25 12.2452 9.25 12.2452 10 12.2452ZM10.75 11.1858C10.75 10.6625 10.5395 10.1551 10.1166 9.78813C9.69938 9.42598 9.13515 9.25 8.5 9.25V10.75C8.86485 10.75 9.05062 10.8491 9.13338 10.9209C9.21053 10.9879 9.25 11.0734 9.25 11.1858H10.75ZM8.5 9.25H7V10.75H8.5V9.25ZM6.25 13.5V16H7.75V13.5H6.25ZM6.25 10V13.5H7.75V10H6.25ZM8.31045 13.7268L9.30107 16.272L10.6989 15.7279L9.70831 13.1828L8.31045 13.7268ZM11.6297 10V16H13.1297V10H11.6297ZM12.3797 10.75H13.094V9.25H12.3797V10.75ZM12.3969 10.2766L14.1826 14.7766L15.5768 14.2234L13.7911 9.72337L12.3969 10.2766ZM15.5768 14.7766L17.3626 10.2766L15.9683 9.72337L14.1826 14.2234L15.5768 14.7766ZM16.6654 10.75H17.3797V9.25H16.6654V10.75ZM16.6297 10V16H18.1297V10H16.6297Z" fill="black"/>
</svg>
