<svg xmlns="http://www.w3.org/2000/svg" width="20" height="20" fill="none" viewBox="0 0 20 20">
  <path fill="#A0A0A0" d="M4.772 10.04c0-.46-.312-.69-.83-.696-.275 0-.431.022-.513.036v1.38h.445c.564 0 .898-.282.898-.72zM7.642 11.057c0 .979.46 1.669 1.217 1.669.764 0 1.201-.728 1.201-1.699 0-.897-.43-1.669-1.209-1.669-.764 0-1.209.727-1.209 1.699z"/>
  <path fill="#A0A0A0" d="M17.735 7.154h-.48V4.836c0-.014-.003-.029-.005-.043a.384.384 0 00-.093-.254L13.301.134l-.003-.003a.39.39 0 00-.078-.065c-.008-.006-.017-.01-.026-.015a.408.408 0 00-.077-.033l-.021-.007a.39.39 0 00-.09-.011H3.529a.785.785 0 00-.784.784v6.37h-.48c-.62 0-1.121.501-1.121 1.12v5.83c0 .619.502 1.121 1.12 1.121h.48v3.99c0 .433.352.785.785.785H16.47a.785.785 0 00.785-.784v-3.99h.48c.619 0 1.12-.503 1.12-1.122v-5.83a1.12 1.12 0 00-1.12-1.12zM3.529.784h9.085v4.013c0 .217.175.392.392.392h3.464v1.965H3.53V.784zm7.725 10.206c0 1.64-.994 2.633-2.455 2.633-1.484 0-2.352-1.12-2.352-2.544 0-1.498.957-2.618 2.433-2.618 1.536 0 2.374 1.15 2.374 2.53zm-7.825.586v1.966H2.31V8.609c.363-.06.905-.104 1.506-.104.742 0 1.26.111 1.617.394.297.237.46.586.46 1.045 0 .638-.453 1.076-.883 1.231v.023c.349.14.542.475.668.934.156.564.311 1.217.408 1.41H4.927c-.081-.14-.2-.55-.348-1.165-.134-.623-.349-.793-.809-.8h-.34zm13.041 7.427H3.53v-3.778H16.47v3.778zm-.172-5.461l-.075-1.914a56.415 56.415 0 01-.044-2.055h-.022c-.156.638-.364 1.35-.557 1.936l-.609 1.951h-.882l-.534-1.936a22.892 22.892 0 01-.453-1.95h-.015c-.03.674-.052 1.446-.089 2.069l-.088 1.899h-1.047l.32-5h1.506l.489 1.67c.156.578.312 1.201.422 1.787h.023c.14-.578.311-1.239.475-1.795l.534-1.661h1.475l.275 4.999h-1.105z"/>
</svg>
