<svg width="24" height="24" viewBox="0 0 24 24" fill="none" xmlns="http://www.w3.org/2000/svg">
<path d="M11.1613 11.0453C10.9077 11.0453 10.7359 11.0698 10.6461 11.0944V12.722C10.7524 12.7465 10.8832 12.7546 11.0632 12.7546C11.7254 12.7546 12.1344 12.4195 12.1344 11.8549C12.1344 11.3483 11.7826 11.0453 11.1613 11.0453Z" fill="black"/>
<path d="M7.27629 11.7982C7.27629 11.2915 6.93297 11.0376 6.36053 11.0296C6.05799 11.0296 5.88643 11.0541 5.79641 11.0702V12.5914H6.287C6.90824 12.5914 7.27629 12.2805 7.27629 11.7982Z" fill="black"/>
<path d="M19.7352 9.15398H19.2549V6.83645C19.2549 6.822 19.2526 6.80743 19.2507 6.79277C19.2499 6.70079 19.2207 6.61041 19.1577 6.53877L15.3014 2.13413C15.3003 2.13301 15.2991 2.13261 15.2981 2.13144C15.2753 2.1057 15.2484 2.08435 15.2202 2.06598C15.2118 2.06024 15.2034 2.05552 15.1946 2.05065C15.17 2.03725 15.144 2.02614 15.117 2.01812C15.1097 2.01609 15.1034 2.01322 15.0961 2.01122C15.0672 2.00432 15.0366 2 15.0061 2H5.52948C5.09673 2 4.74517 2.35203 4.74517 2.78435V9.1538H4.26496C3.64601 9.1538 3.14401 9.65558 3.14401 10.2747V16.1043C3.14401 16.7231 3.64597 17.2252 4.26496 17.2252H4.74521V21.2157C4.74521 21.648 5.09677 22 5.52952 22H18.4706C18.903 22 19.255 21.648 19.255 21.2157V17.2254H19.7352C20.3541 17.2254 20.8561 16.7231 20.8561 16.1043V10.2749C20.8561 9.65558 20.354 9.15398 19.7352 9.15398ZM5.52948 2.78435H14.6142V6.79716C14.6142 7.01383 14.7899 7.18932 15.0063 7.18932H18.4706V9.15402H5.52948V2.78435ZM13.3684 11.8226C13.3684 12.3627 13.1888 12.8204 12.8617 13.1309C12.4362 13.5319 11.8069 13.7115 11.0711 13.7115C10.9076 13.7115 10.7605 13.7034 10.6457 13.6869V15.6573H9.41124V10.2203C9.79537 10.1544 10.3351 10.1054 11.0956 10.1054C11.864 10.1054 12.4118 10.2529 12.7798 10.5469C13.1313 10.825 13.3684 11.2826 13.3684 11.8226ZM4.56147 15.6573V10.2203C4.96205 10.1544 5.55889 10.1054 6.22123 10.1054C7.03895 10.1054 7.6115 10.2283 8.00384 10.5389C8.33089 10.8005 8.5107 11.1846 8.5107 11.692C8.5107 12.3952 8.0119 12.8774 7.53757 13.0493V13.0738C7.92188 13.2289 8.13459 13.5974 8.27344 14.104C8.44501 14.7256 8.6168 15.4448 8.72326 15.6573H7.44759C7.3578 15.5022 7.22671 15.0526 7.06346 14.3736C6.91611 13.6869 6.67908 13.4993 6.17203 13.4908H5.79596V15.6573L4.56147 15.6573ZM18.4706 21.0031H5.52948V17.2254H18.4706L18.4706 21.0031ZM18.7902 15.6573L18.7084 13.5483C18.6839 12.8858 18.6594 12.0843 18.6594 11.2826H18.6349C18.4631 11.9861 18.2343 12.7713 18.0217 13.417L17.3512 15.5673H16.3782L15.7894 13.4338C15.6096 12.7878 15.4216 12.0027 15.2906 11.2826H15.2744C15.2416 12.0272 15.2171 12.8774 15.1763 13.5644L15.0783 15.6573H13.9252L14.2768 10.1468H15.9368L16.4764 11.9861C16.6481 12.6243 16.8197 13.3109 16.9424 13.957H16.9669C17.1222 13.319 17.3103 12.5913 17.4903 11.9781L18.0789 10.1468H19.7059L20.0084 15.6573L18.7902 15.6573Z" fill="black"/>
</svg>
