<svg width="24" height="24" viewBox="0 0 24 24" fill="none" xmlns="http://www.w3.org/2000/svg">
<path d="M19.7352 9.15373H19.2549V6.83648C19.2549 6.82192 19.2526 6.80747 19.2507 6.79273C19.2499 6.70083 19.2205 6.61034 19.1577 6.53881L15.3014 2.13413C15.3004 2.1329 15.2993 2.1325 15.2985 2.13137C15.2755 2.1057 15.2487 2.08424 15.2204 2.06587C15.212 2.06024 15.2036 2.05552 15.1948 2.05054C15.1702 2.03725 15.1442 2.02603 15.1174 2.01801C15.1101 2.01609 15.1036 2.01311 15.0963 2.01118C15.0672 2.00432 15.037 2 15.0063 2H5.52948C5.09673 2 4.74517 2.35196 4.74517 2.78435V9.15373H4.26496C3.64601 9.15373 3.14401 9.65547 3.14401 10.2747V16.1043C3.14401 16.7229 3.64597 17.2252 4.26496 17.2252H4.74521V21.2157C4.74521 21.648 5.09677 22 5.52952 22H18.4706C18.903 22 19.255 21.648 19.255 21.2157V17.2252H19.7352C20.3541 17.2252 20.8561 16.7229 20.8561 16.1043V10.2747C20.8561 9.65547 20.354 9.15373 19.7352 9.15373ZM5.52948 2.78435H14.6142V6.79705C14.6142 7.01372 14.7899 7.18921 15.0063 7.18921H18.4706V9.15391H5.52948V2.78435ZM11.5748 13.4288C10.6132 13.0941 9.98691 12.5624 9.98691 11.7208C9.98691 10.7339 10.8108 9.97824 12.1758 9.97824C12.8278 9.97824 13.3083 10.1157 13.652 10.2698L13.3604 11.3259C13.1283 11.2144 12.7166 11.0512 12.1498 11.0512C11.5834 11.0512 11.3089 11.3087 11.3089 11.6092C11.3089 11.9785 11.6347 12.1413 12.3815 12.4247C13.4028 12.8021 13.8834 13.335 13.8834 14.1503C13.8834 15.1198 13.1369 15.9438 11.5486 15.9438C10.8881 15.9438 10.2355 15.7722 9.90946 15.5918L10.1755 14.5104C10.5273 14.6908 11.0681 14.8707 11.6261 14.8707C12.2268 14.8707 12.5442 14.6216 12.5442 14.2446C12.5443 13.8838 12.2701 13.6778 11.5748 13.4288ZM5.04339 15.8582V10.1498C5.46398 10.081 6.09063 10.0298 6.78587 10.0298C7.6444 10.0298 8.24497 10.1582 8.65703 10.4849C9.00045 10.759 9.18927 11.1628 9.18927 11.6947C9.18927 12.4336 8.66556 12.9396 8.16807 13.1198V13.1457C8.57115 13.3086 8.79432 13.6946 8.94043 14.2274C9.12043 14.8799 9.30042 15.6349 9.41236 15.8582H8.07341C7.979 15.6947 7.84182 15.2227 7.66985 14.5105C7.51531 13.789 7.26629 13.592 6.73438 13.5836H6.33924V15.8583L5.04339 15.8582ZM18.4706 21.0031H5.52948V17.2252H18.4706L18.4706 21.0031ZM16.1834 15.9438C15.5222 15.9438 14.8702 15.7722 14.5441 15.5918L14.8101 14.5104C15.1618 14.6908 15.7028 14.8707 16.2602 14.8707C16.8614 14.8707 17.1791 14.6216 17.1791 14.2446C17.1791 13.8838 16.9041 13.6778 16.209 13.4289C15.248 13.0942 14.6211 12.5624 14.6211 11.7209C14.6211 10.7339 15.4452 9.97827 16.8101 9.97827C17.4623 9.97827 17.9429 10.1157 18.2864 10.2698L17.9942 11.3259C17.7629 11.2144 17.351 11.0513 16.7841 11.0513C16.2179 11.0513 15.9431 11.3087 15.9431 11.6092C15.9431 11.9785 16.2693 12.1414 17.016 12.4247C18.0374 12.8022 18.5177 13.3351 18.5177 14.1504C18.5177 15.1198 17.7713 15.9438 16.1834 15.9438Z" fill="black"/>
<path d="M7.89296 11.807C7.89296 11.2748 7.53239 11.0085 6.93163 11.0001C6.61414 11.0001 6.43378 11.0258 6.3393 11.0431V12.6393H6.85455C7.50672 12.6393 7.89296 12.3134 7.89296 11.807Z" fill="black"/>
</svg>
