<svg width="24" height="24" viewBox="0 0 24 24" fill="none" xmlns="http://www.w3.org/2000/svg">
<path d="M19 20V20.75H19.75V20H19ZM5 20H4.25V20.75H5V20ZM5 4V3.25H4.25V4H5ZM16 4L16.5303 3.46967L16.3107 3.25H16V4ZM19 7L19.75 7V6.68934L19.5303 6.46967L19 7ZM7.5 13.5L7.54832 12.7516L7.52418 12.75H7.5V13.5ZM6 10V9.25C5.58579 9.25 5.25 9.58579 5.25 10H6ZM5.25 16C5.25 16.4142 5.58579 16.75 6 16.75C6.41421 16.75 6.75 16.4142 6.75 16H5.25ZM8.70831 13.1828C8.55806 12.7968 8.12335 12.6056 7.73734 12.7559C7.35134 12.9061 7.16021 13.3408 7.31045 13.7268L8.70831 13.1828ZM8.30107 16.272C8.45131 16.658 8.88603 16.8491 9.27203 16.6989C9.65804 16.5487 9.84917 16.1139 9.69893 15.7279L8.30107 16.272ZM14.0239 10.7605C14.4381 10.7605 14.7739 10.4247 14.7739 10.0105C14.7739 9.59624 14.4381 9.26045 14.0239 9.26045V10.7605ZM12.7824 10.0105L12.7287 9.26238L12.7824 10.0105ZM11.594 12.3664L12.1662 11.8814L11.594 12.3664ZM13.6483 13.364L13.2403 13.9933H13.2404L13.6483 13.364ZM12.7824 16V15.25H12.7824L12.7824 16ZM11.4637 15.25C11.0494 15.25 10.7137 15.5858 10.7137 16C10.7137 16.4142 11.0494 16.75 11.4637 16.75L11.4637 15.25ZM18.7324 10.7605C19.1466 10.7605 19.4824 10.4247 19.4824 10.0105C19.4824 9.59624 19.1466 9.26045 18.7324 9.26045V10.7605ZM17.4909 10.0105L17.4372 9.26238L17.4909 10.0105ZM16.3025 12.3664L16.8747 11.8814L16.3025 12.3664ZM18.3567 13.364L17.9488 13.9933H17.9488L18.3567 13.364ZM17.4909 16V15.25H17.4909L17.4909 16ZM16.1721 15.25C15.7579 15.25 15.4221 15.5858 15.4221 16C15.4221 16.4142 15.7579 16.75 16.1721 16.75L16.1721 15.25ZM19 19.25H5V20.75H19V19.25ZM5 4.75H16V3.25H5V4.75ZM15.4697 4.53033L18.4697 7.53033L19.5303 6.46967L16.5303 3.46967L15.4697 4.53033ZM5.75 8V4H4.25V8H5.75ZM5.75 20V18H4.25V20H5.75ZM18.25 7L18.25 8L19.75 8L19.75 7L18.25 7ZM18.25 18V20H19.75V18H18.25ZM6 14.25H7.5V12.75H6V14.25ZM7.5 13.5C7.45168 14.2484 7.45202 14.2485 7.45236 14.2485C7.45248 14.2485 7.45282 14.2485 7.45307 14.2485C7.45355 14.2486 7.45406 14.2486 7.4546 14.2486C7.45567 14.2487 7.45684 14.2488 7.4581 14.2488C7.46063 14.249 7.46354 14.2491 7.46683 14.2493C7.4734 14.2496 7.48148 14.25 7.49097 14.2503C7.50992 14.251 7.53463 14.2515 7.56431 14.2515C7.62339 14.2515 7.70363 14.2494 7.79836 14.2413C7.98345 14.2254 8.2458 14.185 8.52007 14.0791C8.79565 13.9728 9.11119 13.7891 9.35788 13.4716C9.61163 13.145 9.75 12.7311 9.75 12.2452H8.25C8.25 12.4351 8.20087 12.5159 8.17337 12.5513C8.13881 12.5958 8.07935 12.6414 7.97993 12.6798C7.8792 12.7187 7.76655 12.7385 7.67039 12.7467C7.62449 12.7507 7.58755 12.7515 7.5646 12.7515C7.55326 12.7515 7.54574 12.7513 7.54272 12.7512C7.54122 12.7512 7.54088 12.7511 7.54177 12.7512C7.54222 12.7512 7.54299 12.7512 7.54407 12.7513C7.54461 12.7513 7.54524 12.7514 7.54595 12.7514C7.5463 12.7514 7.54667 12.7515 7.54707 12.7515C7.54727 12.7515 7.54758 12.7515 7.54768 12.7515C7.548 12.7515 7.54832 12.7516 7.5 13.5ZM9 12.2452C9.75 12.2452 9.75 12.2452 9.75 12.2452C9.75 12.2452 9.75 12.2452 9.75 12.2452C9.75 12.2452 9.75 12.2452 9.75 12.2451C9.75 12.2451 9.75 12.2451 9.75 12.2451C9.75 12.2451 9.75 12.2451 9.75 12.2451C9.75 12.2451 9.75 12.245 9.75 12.245C9.75 12.245 9.75 12.245 9.75 12.245C9.75 12.2449 9.75 12.2449 9.75 12.2449C9.75 12.2449 9.75 12.2448 9.75 12.2448C9.75 12.2448 9.75 12.2447 9.75 12.2447C9.75 12.2447 9.75 12.2446 9.75 12.2446C9.75 12.2446 9.75 12.2445 9.75 12.2445C9.75 12.2445 9.75 12.2444 9.75 12.2444C9.75 12.2443 9.75 12.2443 9.75 12.2442C9.75 12.2442 9.75 12.2442 9.75 12.2441C9.75 12.2441 9.75 12.244 9.75 12.244C9.75 12.2439 9.75 12.2438 9.75 12.2438C9.75 12.2437 9.75 12.2437 9.75 12.2436C9.75 12.2436 9.75 12.2435 9.75 12.2434C9.75 12.2434 9.75 12.2433 9.75 12.2433C9.75 12.2432 9.75 12.2431 9.75 12.2431C9.75 12.243 9.75 12.2429 9.75 12.2429C9.75 12.2428 9.75 12.2427 9.75 12.2426C9.75 12.2426 9.75 12.2425 9.75 12.2424C9.75 12.2423 9.75 12.2423 9.75 12.2422C9.75 12.2421 9.75 12.242 9.75 12.2419C9.75 12.2419 9.75 12.2418 9.75 12.2417C9.75 12.2416 9.75 12.2415 9.75 12.2414C9.75 12.2413 9.75 12.2412 9.75 12.2411C9.75 12.2411 9.75 12.241 9.75 12.2409C9.75 12.2408 9.75 12.2407 9.75 12.2406C9.75 12.2405 9.75 12.2404 9.75 12.2403C9.75 12.2402 9.75 12.2401 9.75 12.24C9.75 12.2399 9.75 12.2398 9.75 12.2396C9.75 12.2395 9.75 12.2394 9.75 12.2393C9.75 12.2392 9.75 12.2391 9.75 12.239C9.75 12.2389 9.75 12.2387 9.75 12.2386C9.75 12.2385 9.75 12.2384 9.75 12.2383C9.75 12.2382 9.75 12.238 9.75 12.2379C9.75 12.2378 9.75 12.2377 9.75 12.2375C9.75 12.2374 9.75 12.2373 9.75 12.2371C9.75 12.237 9.75 12.2369 9.75 12.2368C9.75 12.2366 9.75 12.2365 9.75 12.2363C9.75 12.2362 9.75 12.2361 9.75 12.2359C9.75 12.2358 9.75 12.2357 9.75 12.2355C9.75 12.2354 9.75 12.2352 9.75 12.2351C9.75 12.2349 9.75 12.2348 9.75 12.2346C9.75 12.2345 9.75 12.2343 9.75 12.2342C9.75 12.234 9.75 12.2339 9.75 12.2337C9.75 12.2336 9.75 12.2334 9.75 12.2333C9.75 12.2331 9.75 12.2329 9.75 12.2328C9.75 12.2326 9.75 12.2325 9.75 12.2323C9.75 12.2321 9.75 12.232 9.75 12.2318C9.75 12.2316 9.75 12.2315 9.75 12.2313C9.75 12.2311 9.75 12.231 9.75 12.2308C9.75 12.2306 9.75 12.2304 9.75 12.2303C9.75 12.2301 9.75 12.2299 9.75 12.2297C9.75 12.2295 9.75 12.2294 9.75 12.2292C9.75 12.229 9.75 12.2288 9.75 12.2286C9.75 12.2284 9.75 12.2283 9.75 12.2281C9.75 12.2279 9.75 12.2277 9.75 12.2275C9.75 12.2273 9.75 12.2271 9.75 12.2269C9.75 12.2267 9.75 12.2265 9.75 12.2263C9.75 12.2261 9.75 12.2259 9.75 12.2257C9.75 12.2255 9.75 12.2253 9.75 12.2251C9.75 12.2249 9.75 12.2247 9.75 12.2245C9.75 12.2243 9.75 12.2241 9.75 12.2239C9.75 12.2237 9.75 12.2235 9.75 12.2233C9.75 12.223 9.75 12.2228 9.75 12.2226C9.75 12.2224 9.75 12.2222 9.75 12.222C9.75 12.2217 9.75 12.2215 9.75 12.2213C9.75 12.2211 9.75 12.2209 9.75 12.2206C9.75 12.2204 9.75 12.2202 9.75 12.22C9.75 12.2197 9.75 12.2195 9.75 12.2193C9.75 12.219 9.75 12.2188 9.75 12.2186C9.75 12.2183 9.75 12.2181 9.75 12.2179C9.75 12.2176 9.75 12.2174 9.75 12.2172C9.75 12.2169 9.75 12.2167 9.75 12.2164C9.75 12.2162 9.75 12.2159 9.75 12.2157C9.75 12.2155 9.75 12.2152 9.75 12.215C9.75 12.2147 9.75 12.2145 9.75 12.2142C9.75 12.214 9.75 12.2137 9.75 12.2135C9.75 12.2132 9.75 12.2129 9.75 12.2127C9.75 12.2124 9.75 12.2122 9.75 12.2119C9.75 12.2116 9.75 12.2114 9.75 12.2111C9.75 12.2109 9.75 12.2106 9.75 12.2103C9.75 12.2101 9.75 12.2098 9.75 12.2095C9.75 12.2093 9.75 12.209 9.75 12.2087C9.75 12.2084 9.75 12.2082 9.75 12.2079C9.75 12.2076 9.75 12.2073 9.75 12.2071C9.75 12.2068 9.75 12.2065 9.75 12.2062C9.75 12.2059 9.75 12.2057 9.75 12.2054C9.75 12.2051 9.75 12.2048 9.75 12.2045C9.75 12.2042 9.75 12.2039 9.75 12.2036C9.75 12.2034 9.75 12.2031 9.75 12.2028C9.75 12.2025 9.75 12.2022 9.75 12.2019C9.75 12.2016 9.75 12.2013 9.75 12.201C9.75 12.2007 9.75 12.2004 9.75 12.2001C9.75 12.1998 9.75 12.1995 9.75 12.1992C9.75 12.1989 9.75 12.1986 9.75 12.1983C9.75 12.198 9.75 12.1977 9.75 12.1973C9.75 12.197 9.75 12.1967 9.75 12.1964C9.75 12.1961 9.75 12.1958 9.75 12.1955C9.75 12.1951 9.75 12.1948 9.75 12.1945C9.75 12.1942 9.75 12.1939 9.75 12.1936C9.75 12.1932 9.75 12.1929 9.75 12.1926C9.75 12.1923 9.75 12.1919 9.75 12.1916C9.75 12.1913 9.75 12.1909 9.75 12.1906C9.75 12.1903 9.75 12.1899 9.75 12.1896C9.75 12.1893 9.75 12.1889 9.75 12.1886C9.75 12.1883 9.75 12.1879 9.75 12.1876C9.75 12.1873 9.75 12.1869 9.75 12.1866C9.75 12.1862 9.75 12.1859 9.75 12.1855C9.75 12.1852 9.75 12.1849 9.75 12.1845C9.75 12.1842 9.75 12.1838 9.75 12.1835C9.75 12.1831 9.75 12.1828 9.75 12.1824C9.75 12.182 9.75 12.1817 9.75 12.1813C9.75 12.181 9.75 12.1806 9.75 12.1803C9.75 12.1799 9.75 12.1795 9.75 12.1792C9.75 12.1788 9.75 12.1784 9.75 12.1781C9.75 12.1777 9.75 12.1774 9.75 12.177C9.75 12.1766 9.75 12.1762 9.75 12.1759C9.75 12.1755 9.75 12.1751 9.75 12.1748C9.75 12.1744 9.75 12.174 9.75 12.1736C9.75 12.1733 9.75 12.1729 9.75 12.1725C9.75 12.1721 9.75 12.1717 9.75 12.1714C9.75 12.171 9.75 12.1706 9.75 12.1702C9.75 12.1698 9.75 12.1694 9.75 12.169C9.75 12.1687 9.75 12.1683 9.75 12.1679C9.75 12.1675 9.75 12.1671 9.75 12.1667C9.75 12.1663 9.75 12.1659 9.75 12.1655C9.75 12.1651 9.75 12.1647 9.75 12.1643C9.75 12.1639 9.75 12.1635 9.75 12.1631C9.75 12.1627 9.75 12.1623 9.75 12.1619C9.75 12.1615 9.75 12.1611 9.75 12.1607C9.75 12.1603 9.75 12.1599 9.75 12.1595C9.75 12.1591 9.75 12.1586 9.75 12.1582C9.75 12.1578 9.75 12.1574 9.75 12.157C9.75 12.1566 9.75 12.1561 9.75 12.1557C9.75 12.1553 9.75 12.1549 9.75 12.1545C9.75 12.154 9.75 12.1536 9.75 12.1532C9.75 12.1528 9.75 12.1523 9.75 12.1519C9.75 12.1515 9.75 12.1511 9.75 12.1506C9.75 12.1502 9.75 12.1498 9.75 12.1493C9.75 12.1489 9.75 12.1485 9.75 12.148C9.75 12.1476 9.75 12.1472 9.75 12.1467C9.75 12.1463 9.75 12.1459 9.75 12.1454C9.75 12.145 9.75 12.1445 9.75 12.1441C9.75 12.1436 9.75 12.1432 9.75 12.1427C9.75 12.1423 9.75 12.1419 9.75 12.1414C9.75 12.141 9.75 12.1405 9.75 12.14C9.75 12.1396 9.75 12.1391 9.75 12.1387C9.75 12.1382 9.75 12.1378 9.75 12.1373C9.75 12.1369 9.75 12.1364 9.75 12.1359C9.75 12.1355 9.75 12.135 9.75 12.1346C9.75 12.1341 9.75 12.1336 9.75 12.1332C9.75 12.1327 9.75 12.1322 9.75 12.1318C9.75 12.1313 9.75 12.1308 9.75 12.1304C9.75 12.1299 9.75 12.1294 9.75 12.1289C9.75 12.1285 9.75 12.128 9.75 12.1275C9.75 12.127 9.75 12.1266 9.75 12.1261C9.75 12.1256 9.75 12.1251 9.75 12.1246C9.75 12.1241 9.75 12.1237 9.75 12.1232C9.75 12.1227 9.75 12.1222 9.75 12.1217C9.75 12.1212 9.75 12.1207 9.75 12.1203C9.75 12.1198 9.75 12.1193 9.75 12.1188C9.75 12.1183 9.75 12.1178 9.75 12.1173C9.75 12.1168 9.75 12.1163 9.75 12.1158C9.75 12.1153 9.75 12.1148 9.75 12.1143C9.75 12.1138 9.75 12.1133 9.75 12.1128C9.75 12.1123 9.75 12.1118 9.75 12.1113C9.75 12.1108 9.75 12.1103 9.75 12.1098C9.75 12.1092 9.75 12.1087 9.75 12.1082C9.75 12.1077 9.75 12.1072 9.75 12.1067C9.75 12.1062 9.75 12.1056 9.75 12.1051C9.75 12.1046 9.75 12.1041 9.75 12.1036C9.75 12.1031 9.75 12.1025 9.75 12.102C9.75 12.1015 9.75 12.101 9.75 12.1004C9.75 12.0999 9.75 12.0994 9.75 12.0989C9.75 12.0983 9.75 12.0978 9.75 12.0973C9.75 12.0967 9.75 12.0962 9.75 12.0957C9.75 12.0951 9.75 12.0946 9.75 12.0941C9.75 12.0935 9.75 12.093 9.75 12.0925C9.75 12.0919 9.75 12.0914 9.75 12.0908C9.75 12.0903 9.75 12.0898 9.75 12.0892C9.75 12.0887 9.75 12.0881 9.75 12.0876C9.75 12.087 9.75 12.0865 9.75 12.0859C9.75 12.0854 9.75 12.0848 9.75 12.0843C9.75 12.0837 9.75 12.0832 9.75 12.0826C9.75 12.0821 9.75 12.0815 9.75 12.0809C9.75 12.0804 9.75 12.0798 9.75 12.0793C9.75 12.0787 9.75 12.0782 9.75 12.0776C9.75 12.077 9.75 12.0765 9.75 12.0759C9.75 12.0753 9.75 12.0748 9.75 12.0742C9.75 12.0736 9.75 12.0731 9.75 12.0725C9.75 12.0719 9.75 12.0713 9.75 12.0708C9.75 12.0702 9.75 12.0696 9.75 12.0691C9.75 12.0685 9.75 12.0679 9.75 12.0673C9.75 12.0667 9.75 12.0662 9.75 12.0656C9.75 12.065 9.75 12.0644 9.75 12.0638C9.75 12.0633 9.75 12.0627 9.75 12.0621C9.75 12.0615 9.75 12.0609 9.75 12.0603C9.75 12.0597 9.75 12.0591 9.75 12.0585C9.75 12.058 9.75 12.0574 9.75 12.0568C9.75 12.0562 9.75 12.0556 9.75 12.055C9.75 12.0544 9.75 12.0538 9.75 12.0532C9.75 12.0526 9.75 12.052 9.75 12.0514C9.75 12.0508 9.75 12.0502 9.75 12.0496C9.75 12.049 9.75 12.0484 9.75 12.0478C9.75 12.0472 9.75 12.0466 9.75 12.0459C9.75 12.0453 9.75 12.0447 9.75 12.0441C9.75 12.0435 9.75 12.0429 9.75 12.0423C9.75 12.0417 9.75 12.041 9.75 12.0404C9.75 12.0398 9.75 12.0392 9.75 12.0386C9.75 12.0379 9.75 12.0373 9.75 12.0367C9.75 12.0361 9.75 12.0355 9.75 12.0348C9.75 12.0342 9.75 12.0336 9.75 12.033C9.75 12.0323 9.75 12.0317 9.75 12.0311C9.75 12.0304 9.75 12.0298 9.75 12.0292C9.75 12.0285 9.75 12.0279 9.75 12.0273C9.75 12.0266 9.75 12.026 9.75 12.0254C9.75 12.0247 9.75 12.0241 9.75 12.0235C9.75 12.0228 9.75 12.0222 9.75 12.0215C9.75 12.0209 9.75 12.0202 9.75 12.0196C9.75 12.019 9.75 12.0183 9.75 12.0177C9.75 12.017 9.75 12.0164 9.75 12.0157C9.75 12.0151 9.75 12.0144 9.75 12.0138C9.75 12.0131 9.75 12.0125 9.75 12.0118C9.75 12.0111 9.75 12.0105 9.75 12.0098C9.75 12.0092 9.75 12.0085 9.75 12.0079C9.75 12.0072 9.75 12.0065 9.75 12.0059C9.75 12.0052 9.75 12.0045 9.75 12.0039C9.75 12.0032 9.75 12.0025 9.75 12.0019C9.75 12.0012 9.75 12.0005 9.75 11.9999C9.75 11.9992 9.75 11.9985 9.75 11.9979C9.75 11.9972 9.75 11.9965 9.75 11.9958C9.75 11.9952 9.75 11.9945 9.75 11.9938C9.75 11.9931 9.75 11.9925 9.75 11.9918C9.75 11.9911 9.75 11.9904 9.75 11.9897C9.75 11.989 9.75 11.9884 9.75 11.9877C9.75 11.987 9.75 11.9863 9.75 11.9856C9.75 11.9849 9.75 11.9842 9.75 11.9836C9.75 11.9829 9.75 11.9822 9.75 11.9815C9.75 11.9808 9.75 11.9801 9.75 11.9794C9.75 11.9787 9.75 11.978 9.75 11.9773C9.75 11.9766 9.75 11.9759 9.75 11.9752C9.75 11.9745 9.75 11.9738 9.75 11.9731C9.75 11.9724 9.75 11.9717 9.75 11.971C9.75 11.9703 9.75 11.9696 9.75 11.9689C9.75 11.9682 9.75 11.9675 9.75 11.9668C9.75 11.966 9.75 11.9653 9.75 11.9646C9.75 11.9639 9.75 11.9632 9.75 11.9625C9.75 11.9618 9.75 11.9611 9.75 11.9603C9.75 11.9596 9.75 11.9589 9.75 11.9582C9.75 11.9575 9.75 11.9567 9.75 11.956C9.75 11.9553 9.75 11.9546 9.75 11.9539C9.75 11.9531 9.75 11.9524 9.75 11.9517C9.75 11.951 9.75 11.9502 9.75 11.9495C9.75 11.9488 9.75 11.948 9.75 11.9473C9.75 11.9466 9.75 11.9458 9.75 11.9451C9.75 11.9444 9.75 11.9436 9.75 11.9429C9.75 11.9422 9.75 11.9414 9.75 11.9407C9.75 11.9399 9.75 11.9392 9.75 11.9385C9.75 11.9377 9.75 11.937 9.75 11.9362C9.75 11.9355 9.75 11.9348 9.75 11.934C9.75 11.9333 9.75 11.9325 9.75 11.9318C9.75 11.931 9.75 11.9303 9.75 11.9295C9.75 11.9288 9.75 11.928 9.75 11.9273C9.75 11.9265 9.75 11.9258 9.75 11.925C9.75 11.9242 9.75 11.9235 9.75 11.9227C9.75 11.922 9.75 11.9212 9.75 11.9205C9.75 11.9197 9.75 11.9189 9.75 11.9182C9.75 11.9174 9.75 11.9166 9.75 11.9159C9.75 11.9151 9.75 11.9143 9.75 11.9136C9.75 11.9128 9.75 11.912 9.75 11.9113C9.75 11.9105 9.75 11.9097 9.75 11.909C9.75 11.9082 9.75 11.9074 9.75 11.9066C9.75 11.9059 9.75 11.9051 9.75 11.9043C9.75 11.9035 9.75 11.9028 9.75 11.902C9.75 11.9012 9.75 11.9004 9.75 11.8996C9.75 11.8989 9.75 11.8981 9.75 11.8973C9.75 11.8965 9.75 11.8957 9.75 11.8949C9.75 11.8941 9.75 11.8934 9.75 11.8926C9.75 11.8918 9.75 11.891 9.75 11.8902C9.75 11.8894 9.75 11.8886 9.75 11.8878C9.75 11.887 9.75 11.8862 9.75 11.8854C9.75 11.8846 9.75 11.8839 9.75 11.8831C9.75 11.8823 9.75 11.8815 9.75 11.8807C9.75 11.8799 9.75 11.8791 9.75 11.8783C9.75 11.8775 9.75 11.8766 9.75 11.8758C9.75 11.875 9.75 11.8742 9.75 11.8734C9.75 11.8726 9.75 11.8718 9.75 11.871C9.75 11.8702 9.75 11.8694 9.75 11.8686C9.75 11.8678 9.75 11.8669 9.75 11.8661C9.75 11.8653 9.75 11.8645 9.75 11.8637C9.75 11.8629 9.75 11.862 9.75 11.8612C9.75 11.8604 9.75 11.8596 9.75 11.8588C9.75 11.858 9.75 11.8571 9.75 11.8563C9.75 11.8555 9.75 11.8547 9.75 11.8538C9.75 11.853 9.75 11.8522 9.75 11.8514C9.75 11.8505 9.75 11.8497 9.75 11.8489C9.75 11.848 9.75 11.8472 9.75 11.8464C9.75 11.8455 9.75 11.8447 9.75 11.8439C9.75 11.843 9.75 11.8422 9.75 11.8414C9.75 11.8405 9.75 11.8397 9.75 11.8388C9.75 11.838 9.75 11.8372 9.75 11.8363C9.75 11.8355 9.75 11.8346 9.75 11.8338C9.75 11.833 9.75 11.8321 9.75 11.8313C9.75 11.8304 9.75 11.8296 9.75 11.8287C9.75 11.8279 9.75 11.827 9.75 11.8262C9.75 11.8253 9.75 11.8245 9.75 11.8236C9.75 11.8228 9.75 11.8219 9.75 11.8211C9.75 11.8202 9.75 11.8193 9.75 11.8185C9.75 11.8176 9.75 11.8168 9.75 11.8159C9.75 11.8151 9.75 11.8142 9.75 11.8133C9.75 11.8125 9.75 11.8116 9.75 11.8107C9.75 11.8099 9.75 11.809 9.75 11.8081C9.75 11.8073 9.75 11.8064 9.75 11.8055C9.75 11.8047 9.75 11.8038 9.75 11.8029C9.75 11.8021 9.75 11.8012 9.75 11.8003C9.75 11.7994 9.75 11.7986 9.75 11.7977C9.75 11.7968 9.75 11.7959 9.75 11.7951C9.75 11.7942 9.75 11.7933 9.75 11.7924C9.75 11.7916 9.75 11.7907 9.75 11.7898C9.75 11.7889 9.75 11.788 9.75 11.7871C9.75 11.7863 9.75 11.7854 9.75 11.7845C9.75 11.7836 9.75 11.7827 9.75 11.7818C9.75 11.7809 9.75 11.7801 9.75 11.7792C9.75 11.7783 9.75 11.7774 9.75 11.7765C9.75 11.7756 9.75 11.7747 9.75 11.7738C9.75 11.7729 9.75 11.772 9.75 11.7711C9.75 11.7702 9.75 11.7693 9.75 11.7684C9.75 11.7675 9.75 11.7666 9.75 11.7657C9.75 11.7648 9.75 11.7639 9.75 11.763C9.75 11.7621 9.75 11.7612 9.75 11.7603C9.75 11.7594 9.75 11.7585 9.75 11.7576C9.75 11.7567 9.75 11.7558 9.75 11.7548C9.75 11.7539 9.75 11.753 9.75 11.7521C9.75 11.7512 9.75 11.7503 9.75 11.7494C9.75 11.7485 9.75 11.7475 9.75 11.7466C9.75 11.7457 9.75 11.7448 9.75 11.7439C9.75 11.743 9.75 11.742 9.75 11.7411C9.75 11.7402 9.75 11.7393 9.75 11.7383C9.75 11.7374 9.75 11.7365 9.75 11.7356C9.75 11.7346 9.75 11.7337 9.75 11.7328C9.75 11.7319 9.75 11.7309 9.75 11.73C9.75 11.7291 9.75 11.7281 9.75 11.7272C9.75 11.7263 9.75 11.7254 9.75 11.7244C9.75 11.7235 9.75 11.7225 9.75 11.7216C9.75 11.7207 9.75 11.7197 9.75 11.7188C9.75 11.7179 9.75 11.7169 9.75 11.716C9.75 11.715 9.75 11.7141 9.75 11.7132C9.75 11.7122 9.75 11.7113 9.75 11.7103C9.75 11.7094 9.75 11.7084 9.75 11.7075C9.75 11.7065 9.75 11.7056 9.75 11.7046C9.75 11.7037 9.75 11.7028 9.75 11.7018C9.75 11.7008 9.75 11.6999 9.75 11.6989C9.75 11.698 9.75 11.697 9.75 11.6961C9.75 11.6951 9.75 11.6942 9.75 11.6932C9.75 11.6923 9.75 11.6913 9.75 11.6903C9.75 11.6894 9.75 11.6884 9.75 11.6875C9.75 11.6865 9.75 11.6855 9.75 11.6846C9.75 11.6836 9.75 11.6826 9.75 11.6817C9.75 11.6807 9.75 11.6797 9.75 11.6788C9.75 11.6778 9.75 11.6768 9.75 11.6759C9.75 11.6749 9.75 11.6739 9.75 11.673C9.75 11.672 9.75 11.671 9.75 11.67C9.75 11.6691 9.75 11.6681 9.75 11.6671C9.75 11.6661 9.75 11.6652 9.75 11.6642C9.75 11.6632 9.75 11.6622 9.75 11.6612C9.75 11.6603 9.75 11.6593 9.75 11.6583C9.75 11.6573 9.75 11.6563 9.75 11.6554C9.75 11.6544 9.75 11.6534 9.75 11.6524C9.75 11.6514 9.75 11.6504 9.75 11.6494C9.75 11.6484 9.75 11.6475 9.75 11.6465C9.75 11.6455 9.75 11.6445 9.75 11.6435C9.75 11.6425 9.75 11.6415 9.75 11.6405C9.75 11.6395 9.75 11.6385 9.75 11.6375C9.75 11.6365 9.75 11.6355 9.75 11.6345C9.75 11.6335 9.75 11.6325 9.75 11.6315C9.75 11.6305 9.75 11.6295 9.75 11.6285C9.75 11.6275 9.75 11.6265 9.75 11.6255C9.75 11.6245 9.75 11.6235 9.75 11.6225C9.75 11.6215 9.75 11.6205 9.75 11.6195C9.75 11.6185 9.75 11.6175 9.75 11.6165C9.75 11.6154 9.75 11.6144 9.75 11.6134C9.75 11.6124 9.75 11.6114 9.75 11.6104C9.75 11.6094 9.75 11.6083 9.75 11.6073C9.75 11.6063 9.75 11.6053 9.75 11.6043C9.75 11.6033 9.75 11.6022 9.75 11.6012C9.75 11.6002 9.75 11.5992 9.75 11.5981C9.75 11.5971 9.75 11.5961 9.75 11.5951C9.75 11.5941 9.75 11.593 9.75 11.592C9.75 11.591 9.75 11.5899 9.75 11.5889C9.75 11.5879 9.75 11.5869 9.75 11.5858C9.75 11.5848 9.75 11.5838 9.75 11.5827C9.75 11.5817 9.75 11.5807 9.75 11.5796C9.75 11.5786 9.75 11.5776 9.75 11.5765C9.75 11.5755 9.75 11.5745 9.75 11.5734C9.75 11.5724 9.75 11.5713 9.75 11.5703C9.75 11.5693 9.75 11.5682 9.75 11.5672C9.75 11.5661 9.75 11.5651 9.75 11.564C9.75 11.563 9.75 11.5619 9.75 11.5609C9.75 11.5599 9.75 11.5588 9.75 11.5578C9.75 11.5567 9.75 11.5557 9.75 11.5546C9.75 11.5536 9.75 11.5525 9.75 11.5515C9.75 11.5504 9.75 11.5493 9.75 11.5483C9.75 11.5472 9.75 11.5462 9.75 11.5451C9.75 11.5441 9.75 11.543 9.75 11.542C9.75 11.5409 9.75 11.5398 9.75 11.5388C9.75 11.5377 9.75 11.5367 9.75 11.5356C9.75 11.5345 9.75 11.5335 9.75 11.5324C9.75 11.5313 9.75 11.5303 9.75 11.5292C9.75 11.5281 9.75 11.5271 9.75 11.526C9.75 11.5249 9.75 11.5239 9.75 11.5228C9.75 11.5217 9.75 11.5207 9.75 11.5196C9.75 11.5185 9.75 11.5174 9.75 11.5164C9.75 11.5153 9.75 11.5142 9.75 11.5131C9.75 11.5121 9.75 11.511 9.75 11.5099C9.75 11.5088 9.75 11.5078 9.75 11.5067C9.75 11.5056 9.75 11.5045 9.75 11.5034C9.75 11.5024 9.75 11.5013 9.75 11.5002C9.75 11.4991 9.75 11.498 9.75 11.4969C9.75 11.4959 9.75 11.4948 9.75 11.4937C9.75 11.4926 9.75 11.4915 9.75 11.4904C9.75 11.4893 9.75 11.4882 9.75 11.4872C9.75 11.4861 9.75 11.485 9.75 11.4839C9.75 11.4828 9.75 11.4817 9.75 11.4806C9.75 11.4795 9.75 11.4784 9.75 11.4773C9.75 11.4762 9.75 11.4751 9.75 11.474C9.75 11.4729 9.75 11.4718 9.75 11.4707C9.75 11.4696 9.75 11.4685 9.75 11.4674C9.75 11.4663 9.75 11.4652 9.75 11.4641C9.75 11.463 9.75 11.4619 9.75 11.4608C9.75 11.4597 9.75 11.4586 9.75 11.4575C9.75 11.4564 9.75 11.4553 9.75 11.4541C9.75 11.453 9.75 11.4519 9.75 11.4508C9.75 11.4497 9.75 11.4486 9.75 11.4475C9.75 11.4464 9.75 11.4453 9.75 11.4441C9.75 11.443 9.75 11.4419 9.75 11.4408C9.75 11.4397 9.75 11.4386 9.75 11.4374C9.75 11.4363 9.75 11.4352 9.75 11.4341C9.75 11.433 9.75 11.4318 9.75 11.4307C9.75 11.4296 9.75 11.4285 9.75 11.4273C9.75 11.4262 9.75 11.4251 9.75 11.424C9.75 11.4228 9.75 11.4217 9.75 11.4206C9.75 11.4195 9.75 11.4183 9.75 11.4172C9.75 11.4161 9.75 11.4149 9.75 11.4138C9.75 11.4127 9.75 11.4115 9.75 11.4104C9.75 11.4093 9.75 11.4081 9.75 11.407C9.75 11.4059 9.75 11.4047 9.75 11.4036C9.75 11.4025 9.75 11.4013 9.75 11.4002C9.75 11.399 9.75 11.3979 9.75 11.3968C9.75 11.3956 9.75 11.3945 9.75 11.3933C9.75 11.3922 9.75 11.3911 9.75 11.3899C9.75 11.3888 9.75 11.3876 9.75 11.3865C9.75 11.3853 9.75 11.3842 9.75 11.383C9.75 11.3819 9.75 11.3807 9.75 11.3796C9.75 11.3784 9.75 11.3773 9.75 11.3761C9.75 11.375 9.75 11.3738 9.75 11.3727C9.75 11.3715 9.75 11.3704 9.75 11.3692C9.75 11.3681 9.75 11.3669 9.75 11.3658C9.75 11.3646 9.75 11.3634 9.75 11.3623C9.75 11.3611 9.75 11.36 9.75 11.3588C9.75 11.3576 9.75 11.3565 9.75 11.3553C9.75 11.3542 9.75 11.353 9.75 11.3518C9.75 11.3507 9.75 11.3495 9.75 11.3483C9.75 11.3472 9.75 11.346 9.75 11.3448C9.75 11.3437 9.75 11.3425 9.75 11.3413C9.75 11.3402 9.75 11.339 9.75 11.3378C9.75 11.3366 9.75 11.3355 9.75 11.3343C9.75 11.3331 9.75 11.332 9.75 11.3308C9.75 11.3296 9.75 11.3284 9.75 11.3273C9.75 11.3261 9.75 11.3249 9.75 11.3237C9.75 11.3226 9.75 11.3214 9.75 11.3202C9.75 11.319 9.75 11.3178 9.75 11.3167C9.75 11.3155 9.75 11.3143 9.75 11.3131C9.75 11.3119 9.75 11.3107 9.75 11.3096C9.75 11.3084 9.75 11.3072 9.75 11.306C9.75 11.3048 9.75 11.3036 9.75 11.3024C9.75 11.3012 9.75 11.3001 9.75 11.2989C9.75 11.2977 9.75 11.2965 9.75 11.2953C9.75 11.2941 9.75 11.2929 9.75 11.2917C9.75 11.2905 9.75 11.2893 9.75 11.2881C9.75 11.2869 9.75 11.2857 9.75 11.2845C9.75 11.2834 9.75 11.2822 9.75 11.281C9.75 11.2798 9.75 11.2786 9.75 11.2774C9.75 11.2762 9.75 11.275 9.75 11.2738C9.75 11.2726 9.75 11.2714 9.75 11.2701C9.75 11.2689 9.75 11.2677 9.75 11.2665C9.75 11.2653 9.75 11.2641 9.75 11.2629C9.75 11.2617 9.75 11.2605 9.75 11.2593C9.75 11.2581 9.75 11.2569 9.75 11.2557C9.75 11.2545 9.75 11.2532 9.75 11.252C9.75 11.2508 9.75 11.2496 9.75 11.2484C9.75 11.2472 9.75 11.246 9.75 11.2448C9.75 11.2435 9.75 11.2423 9.75 11.2411C9.75 11.2399 9.75 11.2387 9.75 11.2375C9.75 11.2362 9.75 11.235 9.75 11.2338C9.75 11.2326 9.75 11.2314 9.75 11.2301C9.75 11.2289 9.75 11.2277 9.75 11.2265C9.75 11.2252 9.75 11.224 9.75 11.2228C9.75 11.2216 9.75 11.2203 9.75 11.2191C9.75 11.2179 9.75 11.2167 9.75 11.2154C9.75 11.2142 9.75 11.213 9.75 11.2117C9.75 11.2105 9.75 11.2093 9.75 11.208C9.75 11.2068 9.75 11.2056 9.75 11.2043C9.75 11.2031 9.75 11.2019 9.75 11.2006C9.75 11.1994 9.75 11.1982 9.75 11.1969C9.75 11.1957 9.75 11.1945 9.75 11.1932C9.75 11.192 9.75 11.1907 9.75 11.1895C9.75 11.1883 9.75 11.187 9.75 11.1858H8.25C8.25 11.187 8.25 11.1883 8.25 11.1895C8.25 11.1907 8.25 11.192 8.25 11.1932C8.25 11.1945 8.25 11.1957 8.25 11.1969C8.25 11.1982 8.25 11.1994 8.25 11.2006C8.25 11.2019 8.25 11.2031 8.25 11.2043C8.25 11.2056 8.25 11.2068 8.25 11.208C8.25 11.2093 8.25 11.2105 8.25 11.2117C8.25 11.213 8.25 11.2142 8.25 11.2154C8.25 11.2167 8.25 11.2179 8.25 11.2191C8.25 11.2203 8.25 11.2216 8.25 11.2228C8.25 11.224 8.25 11.2252 8.25 11.2265C8.25 11.2277 8.25 11.2289 8.25 11.2301C8.25 11.2314 8.25 11.2326 8.25 11.2338C8.25 11.235 8.25 11.2362 8.25 11.2375C8.25 11.2387 8.25 11.2399 8.25 11.2411C8.25 11.2423 8.25 11.2435 8.25 11.2448C8.25 11.246 8.25 11.2472 8.25 11.2484C8.25 11.2496 8.25 11.2508 8.25 11.252C8.25 11.2532 8.25 11.2545 8.25 11.2557C8.25 11.2569 8.25 11.2581 8.25 11.2593C8.25 11.2605 8.25 11.2617 8.25 11.2629C8.25 11.2641 8.25 11.2653 8.25 11.2665C8.25 11.2677 8.25 11.2689 8.25 11.2701C8.25 11.2714 8.25 11.2726 8.25 11.2738C8.25 11.275 8.25 11.2762 8.25 11.2774C8.25 11.2786 8.25 11.2798 8.25 11.281C8.25 11.2822 8.25 11.2834 8.25 11.2845C8.25 11.2857 8.25 11.2869 8.25 11.2881C8.25 11.2893 8.25 11.2905 8.25 11.2917C8.25 11.2929 8.25 11.2941 8.25 11.2953C8.25 11.2965 8.25 11.2977 8.25 11.2989C8.25 11.3001 8.25 11.3012 8.25 11.3024C8.25 11.3036 8.25 11.3048 8.25 11.306C8.25 11.3072 8.25 11.3084 8.25 11.3096C8.25 11.3107 8.25 11.3119 8.25 11.3131C8.25 11.3143 8.25 11.3155 8.25 11.3167C8.25 11.3178 8.25 11.319 8.25 11.3202C8.25 11.3214 8.25 11.3226 8.25 11.3237C8.25 11.3249 8.25 11.3261 8.25 11.3273C8.25 11.3284 8.25 11.3296 8.25 11.3308C8.25 11.332 8.25 11.3331 8.25 11.3343C8.25 11.3355 8.25 11.3366 8.25 11.3378C8.25 11.339 8.25 11.3402 8.25 11.3413C8.25 11.3425 8.25 11.3437 8.25 11.3448C8.25 11.346 8.25 11.3472 8.25 11.3483C8.25 11.3495 8.25 11.3507 8.25 11.3518C8.25 11.353 8.25 11.3542 8.25 11.3553C8.25 11.3565 8.25 11.3576 8.25 11.3588C8.25 11.36 8.25 11.3611 8.25 11.3623C8.25 11.3634 8.25 11.3646 8.25 11.3658C8.25 11.3669 8.25 11.3681 8.25 11.3692C8.25 11.3704 8.25 11.3715 8.25 11.3727C8.25 11.3738 8.25 11.375 8.25 11.3761C8.25 11.3773 8.25 11.3784 8.25 11.3796C8.25 11.3807 8.25 11.3819 8.25 11.383C8.25 11.3842 8.25 11.3853 8.25 11.3865C8.25 11.3876 8.25 11.3888 8.25 11.3899C8.25 11.3911 8.25 11.3922 8.25 11.3933C8.25 11.3945 8.25 11.3956 8.25 11.3968C8.25 11.3979 8.25 11.399 8.25 11.4002C8.25 11.4013 8.25 11.4025 8.25 11.4036C8.25 11.4047 8.25 11.4059 8.25 11.407C8.25 11.4081 8.25 11.4093 8.25 11.4104C8.25 11.4115 8.25 11.4127 8.25 11.4138C8.25 11.4149 8.25 11.4161 8.25 11.4172C8.25 11.4183 8.25 11.4195 8.25 11.4206C8.25 11.4217 8.25 11.4228 8.25 11.424C8.25 11.4251 8.25 11.4262 8.25 11.4273C8.25 11.4285 8.25 11.4296 8.25 11.4307C8.25 11.4318 8.25 11.433 8.25 11.4341C8.25 11.4352 8.25 11.4363 8.25 11.4374C8.25 11.4386 8.25 11.4397 8.25 11.4408C8.25 11.4419 8.25 11.443 8.25 11.4441C8.25 11.4453 8.25 11.4464 8.25 11.4475C8.25 11.4486 8.25 11.4497 8.25 11.4508C8.25 11.4519 8.25 11.453 8.25 11.4541C8.25 11.4553 8.25 11.4564 8.25 11.4575C8.25 11.4586 8.25 11.4597 8.25 11.4608C8.25 11.4619 8.25 11.463 8.25 11.4641C8.25 11.4652 8.25 11.4663 8.25 11.4674C8.25 11.4685 8.25 11.4696 8.25 11.4707C8.25 11.4718 8.25 11.4729 8.25 11.474C8.25 11.4751 8.25 11.4762 8.25 11.4773C8.25 11.4784 8.25 11.4795 8.25 11.4806C8.25 11.4817 8.25 11.4828 8.25 11.4839C8.25 11.485 8.25 11.4861 8.25 11.4872C8.25 11.4882 8.25 11.4893 8.25 11.4904C8.25 11.4915 8.25 11.4926 8.25 11.4937C8.25 11.4948 8.25 11.4959 8.25 11.4969C8.25 11.498 8.25 11.4991 8.25 11.5002C8.25 11.5013 8.25 11.5024 8.25 11.5034C8.25 11.5045 8.25 11.5056 8.25 11.5067C8.25 11.5078 8.25 11.5088 8.25 11.5099C8.25 11.511 8.25 11.5121 8.25 11.5131C8.25 11.5142 8.25 11.5153 8.25 11.5164C8.25 11.5174 8.25 11.5185 8.25 11.5196C8.25 11.5207 8.25 11.5217 8.25 11.5228C8.25 11.5239 8.25 11.5249 8.25 11.526C8.25 11.5271 8.25 11.5281 8.25 11.5292C8.25 11.5303 8.25 11.5313 8.25 11.5324C8.25 11.5335 8.25 11.5345 8.25 11.5356C8.25 11.5367 8.25 11.5377 8.25 11.5388C8.25 11.5398 8.25 11.5409 8.25 11.542C8.25 11.543 8.25 11.5441 8.25 11.5451C8.25 11.5462 8.25 11.5472 8.25 11.5483C8.25 11.5493 8.25 11.5504 8.25 11.5515C8.25 11.5525 8.25 11.5536 8.25 11.5546C8.25 11.5557 8.25 11.5567 8.25 11.5578C8.25 11.5588 8.25 11.5599 8.25 11.5609C8.25 11.5619 8.25 11.563 8.25 11.564C8.25 11.5651 8.25 11.5661 8.25 11.5672C8.25 11.5682 8.25 11.5693 8.25 11.5703C8.25 11.5713 8.25 11.5724 8.25 11.5734C8.25 11.5745 8.25 11.5755 8.25 11.5765C8.25 11.5776 8.25 11.5786 8.25 11.5796C8.25 11.5807 8.25 11.5817 8.25 11.5827C8.25 11.5838 8.25 11.5848 8.25 11.5858C8.25 11.5869 8.25 11.5879 8.25 11.5889C8.25 11.5899 8.25 11.591 8.25 11.592C8.25 11.593 8.25 11.5941 8.25 11.5951C8.25 11.5961 8.25 11.5971 8.25 11.5981C8.25 11.5992 8.25 11.6002 8.25 11.6012C8.25 11.6022 8.25 11.6033 8.25 11.6043C8.25 11.6053 8.25 11.6063 8.25 11.6073C8.25 11.6083 8.25 11.6094 8.25 11.6104C8.25 11.6114 8.25 11.6124 8.25 11.6134C8.25 11.6144 8.25 11.6154 8.25 11.6165C8.25 11.6175 8.25 11.6185 8.25 11.6195C8.25 11.6205 8.25 11.6215 8.25 11.6225C8.25 11.6235 8.25 11.6245 8.25 11.6255C8.25 11.6265 8.25 11.6275 8.25 11.6285C8.25 11.6295 8.25 11.6305 8.25 11.6315C8.25 11.6325 8.25 11.6335 8.25 11.6345C8.25 11.6355 8.25 11.6365 8.25 11.6375C8.25 11.6385 8.25 11.6395 8.25 11.6405C8.25 11.6415 8.25 11.6425 8.25 11.6435C8.25 11.6445 8.25 11.6455 8.25 11.6465C8.25 11.6475 8.25 11.6484 8.25 11.6494C8.25 11.6504 8.25 11.6514 8.25 11.6524C8.25 11.6534 8.25 11.6544 8.25 11.6554C8.25 11.6563 8.25 11.6573 8.25 11.6583C8.25 11.6593 8.25 11.6603 8.25 11.6612C8.25 11.6622 8.25 11.6632 8.25 11.6642C8.25 11.6652 8.25 11.6661 8.25 11.6671C8.25 11.6681 8.25 11.6691 8.25 11.67C8.25 11.671 8.25 11.672 8.25 11.673C8.25 11.6739 8.25 11.6749 8.25 11.6759C8.25 11.6768 8.25 11.6778 8.25 11.6788C8.25 11.6797 8.25 11.6807 8.25 11.6817C8.25 11.6826 8.25 11.6836 8.25 11.6846C8.25 11.6855 8.25 11.6865 8.25 11.6875C8.25 11.6884 8.25 11.6894 8.25 11.6903C8.25 11.6913 8.25 11.6923 8.25 11.6932C8.25 11.6942 8.25 11.6951 8.25 11.6961C8.25 11.697 8.25 11.698 8.25 11.6989C8.25 11.6999 8.25 11.7008 8.25 11.7018C8.25 11.7028 8.25 11.7037 8.25 11.7046C8.25 11.7056 8.25 11.7065 8.25 11.7075C8.25 11.7084 8.25 11.7094 8.25 11.7103C8.25 11.7113 8.25 11.7122 8.25 11.7132C8.25 11.7141 8.25 11.715 8.25 11.716C8.25 11.7169 8.25 11.7179 8.25 11.7188C8.25 11.7197 8.25 11.7207 8.25 11.7216C8.25 11.7225 8.25 11.7235 8.25 11.7244C8.25 11.7254 8.25 11.7263 8.25 11.7272C8.25 11.7281 8.25 11.7291 8.25 11.73C8.25 11.7309 8.25 11.7319 8.25 11.7328C8.25 11.7337 8.25 11.7346 8.25 11.7356C8.25 11.7365 8.25 11.7374 8.25 11.7383C8.25 11.7393 8.25 11.7402 8.25 11.7411C8.25 11.742 8.25 11.743 8.25 11.7439C8.25 11.7448 8.25 11.7457 8.25 11.7466C8.25 11.7475 8.25 11.7485 8.25 11.7494C8.25 11.7503 8.25 11.7512 8.25 11.7521C8.25 11.753 8.25 11.7539 8.25 11.7548C8.25 11.7558 8.25 11.7567 8.25 11.7576C8.25 11.7585 8.25 11.7594 8.25 11.7603C8.25 11.7612 8.25 11.7621 8.25 11.763C8.25 11.7639 8.25 11.7648 8.25 11.7657C8.25 11.7666 8.25 11.7675 8.25 11.7684C8.25 11.7693 8.25 11.7702 8.25 11.7711C8.25 11.772 8.25 11.7729 8.25 11.7738C8.25 11.7747 8.25 11.7756 8.25 11.7765C8.25 11.7774 8.25 11.7783 8.25 11.7792C8.25 11.7801 8.25 11.7809 8.25 11.7818C8.25 11.7827 8.25 11.7836 8.25 11.7845C8.25 11.7854 8.25 11.7863 8.25 11.7871C8.25 11.788 8.25 11.7889 8.25 11.7898C8.25 11.7907 8.25 11.7916 8.25 11.7924C8.25 11.7933 8.25 11.7942 8.25 11.7951C8.25 11.7959 8.25 11.7968 8.25 11.7977C8.25 11.7986 8.25 11.7994 8.25 11.8003C8.25 11.8012 8.25 11.8021 8.25 11.8029C8.25 11.8038 8.25 11.8047 8.25 11.8055C8.25 11.8064 8.25 11.8073 8.25 11.8081C8.25 11.809 8.25 11.8099 8.25 11.8107C8.25 11.8116 8.25 11.8125 8.25 11.8133C8.25 11.8142 8.25 11.8151 8.25 11.8159C8.25 11.8168 8.25 11.8176 8.25 11.8185C8.25 11.8193 8.25 11.8202 8.25 11.8211C8.25 11.8219 8.25 11.8228 8.25 11.8236C8.25 11.8245 8.25 11.8253 8.25 11.8262C8.25 11.827 8.25 11.8279 8.25 11.8287C8.25 11.8296 8.25 11.8304 8.25 11.8313C8.25 11.8321 8.25 11.833 8.25 11.8338C8.25 11.8346 8.25 11.8355 8.25 11.8363C8.25 11.8372 8.25 11.838 8.25 11.8388C8.25 11.8397 8.25 11.8405 8.25 11.8414C8.25 11.8422 8.25 11.843 8.25 11.8439C8.25 11.8447 8.25 11.8455 8.25 11.8464C8.25 11.8472 8.25 11.848 8.25 11.8489C8.25 11.8497 8.25 11.8505 8.25 11.8514C8.25 11.8522 8.25 11.853 8.25 11.8538C8.25 11.8547 8.25 11.8555 8.25 11.8563C8.25 11.8571 8.25 11.858 8.25 11.8588C8.25 11.8596 8.25 11.8604 8.25 11.8612C8.25 11.862 8.25 11.8629 8.25 11.8637C8.25 11.8645 8.25 11.8653 8.25 11.8661C8.25 11.8669 8.25 11.8678 8.25 11.8686C8.25 11.8694 8.25 11.8702 8.25 11.871C8.25 11.8718 8.25 11.8726 8.25 11.8734C8.25 11.8742 8.25 11.875 8.25 11.8758C8.25 11.8766 8.25 11.8775 8.25 11.8783C8.25 11.8791 8.25 11.8799 8.25 11.8807C8.25 11.8815 8.25 11.8823 8.25 11.8831C8.25 11.8839 8.25 11.8846 8.25 11.8854C8.25 11.8862 8.25 11.887 8.25 11.8878C8.25 11.8886 8.25 11.8894 8.25 11.8902C8.25 11.891 8.25 11.8918 8.25 11.8926C8.25 11.8934 8.25 11.8941 8.25 11.8949C8.25 11.8957 8.25 11.8965 8.25 11.8973C8.25 11.8981 8.25 11.8989 8.25 11.8996C8.25 11.9004 8.25 11.9012 8.25 11.902C8.25 11.9028 8.25 11.9035 8.25 11.9043C8.25 11.9051 8.25 11.9059 8.25 11.9066C8.25 11.9074 8.25 11.9082 8.25 11.909C8.25 11.9097 8.25 11.9105 8.25 11.9113C8.25 11.912 8.25 11.9128 8.25 11.9136C8.25 11.9143 8.25 11.9151 8.25 11.9159C8.25 11.9166 8.25 11.9174 8.25 11.9182C8.25 11.9189 8.25 11.9197 8.25 11.9205C8.25 11.9212 8.25 11.922 8.25 11.9227C8.25 11.9235 8.25 11.9242 8.25 11.925C8.25 11.9258 8.25 11.9265 8.25 11.9273C8.25 11.928 8.25 11.9288 8.25 11.9295C8.25 11.9303 8.25 11.931 8.25 11.9318C8.25 11.9325 8.25 11.9333 8.25 11.934C8.25 11.9348 8.25 11.9355 8.25 11.9362C8.25 11.937 8.25 11.9377 8.25 11.9385C8.25 11.9392 8.25 11.9399 8.25 11.9407C8.25 11.9414 8.25 11.9422 8.25 11.9429C8.25 11.9436 8.25 11.9444 8.25 11.9451C8.25 11.9458 8.25 11.9466 8.25 11.9473C8.25 11.948 8.25 11.9488 8.25 11.9495C8.25 11.9502 8.25 11.951 8.25 11.9517C8.25 11.9524 8.25 11.9531 8.25 11.9539C8.25 11.9546 8.25 11.9553 8.25 11.956C8.25 11.9567 8.25 11.9575 8.25 11.9582C8.25 11.9589 8.25 11.9596 8.25 11.9603C8.25 11.9611 8.25 11.9618 8.25 11.9625C8.25 11.9632 8.25 11.9639 8.25 11.9646C8.25 11.9653 8.25 11.966 8.25 11.9668C8.25 11.9675 8.25 11.9682 8.25 11.9689C8.25 11.9696 8.25 11.9703 8.25 11.971C8.25 11.9717 8.25 11.9724 8.25 11.9731C8.25 11.9738 8.25 11.9745 8.25 11.9752C8.25 11.9759 8.25 11.9766 8.25 11.9773C8.25 11.978 8.25 11.9787 8.25 11.9794C8.25 11.9801 8.25 11.9808 8.25 11.9815C8.25 11.9822 8.25 11.9829 8.25 11.9836C8.25 11.9842 8.25 11.9849 8.25 11.9856C8.25 11.9863 8.25 11.987 8.25 11.9877C8.25 11.9884 8.25 11.989 8.25 11.9897C8.25 11.9904 8.25 11.9911 8.25 11.9918C8.25 11.9925 8.25 11.9931 8.25 11.9938C8.25 11.9945 8.25 11.9952 8.25 11.9958C8.25 11.9965 8.25 11.9972 8.25 11.9979C8.25 11.9985 8.25 11.9992 8.25 11.9999C8.25 12.0005 8.25 12.0012 8.25 12.0019C8.25 12.0025 8.25 12.0032 8.25 12.0039C8.25 12.0045 8.25 12.0052 8.25 12.0059C8.25 12.0065 8.25 12.0072 8.25 12.0079C8.25 12.0085 8.25 12.0092 8.25 12.0098C8.25 12.0105 8.25 12.0111 8.25 12.0118C8.25 12.0125 8.25 12.0131 8.25 12.0138C8.25 12.0144 8.25 12.0151 8.25 12.0157C8.25 12.0164 8.25 12.017 8.25 12.0177C8.25 12.0183 8.25 12.019 8.25 12.0196C8.25 12.0202 8.25 12.0209 8.25 12.0215C8.25 12.0222 8.25 12.0228 8.25 12.0235C8.25 12.0241 8.25 12.0247 8.25 12.0254C8.25 12.026 8.25 12.0266 8.25 12.0273C8.25 12.0279 8.25 12.0285 8.25 12.0292C8.25 12.0298 8.25 12.0304 8.25 12.0311C8.25 12.0317 8.25 12.0323 8.25 12.033C8.25 12.0336 8.25 12.0342 8.25 12.0348C8.25 12.0355 8.25 12.0361 8.25 12.0367C8.25 12.0373 8.25 12.0379 8.25 12.0386C8.25 12.0392 8.25 12.0398 8.25 12.0404C8.25 12.041 8.25 12.0417 8.25 12.0423C8.25 12.0429 8.25 12.0435 8.25 12.0441C8.25 12.0447 8.25 12.0453 8.25 12.0459C8.25 12.0466 8.25 12.0472 8.25 12.0478C8.25 12.0484 8.25 12.049 8.25 12.0496C8.25 12.0502 8.25 12.0508 8.25 12.0514C8.25 12.052 8.25 12.0526 8.25 12.0532C8.25 12.0538 8.25 12.0544 8.25 12.055C8.25 12.0556 8.25 12.0562 8.25 12.0568C8.25 12.0574 8.25 12.058 8.25 12.0585C8.25 12.0591 8.25 12.0597 8.25 12.0603C8.25 12.0609 8.25 12.0615 8.25 12.0621C8.25 12.0627 8.25 12.0633 8.25 12.0638C8.25 12.0644 8.25 12.065 8.25 12.0656C8.25 12.0662 8.25 12.0667 8.25 12.0673C8.25 12.0679 8.25 12.0685 8.25 12.0691C8.25 12.0696 8.25 12.0702 8.25 12.0708C8.25 12.0713 8.25 12.0719 8.25 12.0725C8.25 12.0731 8.25 12.0736 8.25 12.0742C8.25 12.0748 8.25 12.0753 8.25 12.0759C8.25 12.0765 8.25 12.077 8.25 12.0776C8.25 12.0782 8.25 12.0787 8.25 12.0793C8.25 12.0798 8.25 12.0804 8.25 12.0809C8.25 12.0815 8.25 12.0821 8.25 12.0826C8.25 12.0832 8.25 12.0837 8.25 12.0843C8.25 12.0848 8.25 12.0854 8.25 12.0859C8.25 12.0865 8.25 12.087 8.25 12.0876C8.25 12.0881 8.25 12.0887 8.25 12.0892C8.25 12.0898 8.25 12.0903 8.25 12.0908C8.25 12.0914 8.25 12.0919 8.25 12.0925C8.25 12.093 8.25 12.0935 8.25 12.0941C8.25 12.0946 8.25 12.0951 8.25 12.0957C8.25 12.0962 8.25 12.0967 8.25 12.0973C8.25 12.0978 8.25 12.0983 8.25 12.0989C8.25 12.0994 8.25 12.0999 8.25 12.1004C8.25 12.101 8.25 12.1015 8.25 12.102C8.25 12.1025 8.25 12.1031 8.25 12.1036C8.25 12.1041 8.25 12.1046 8.25 12.1051C8.25 12.1056 8.25 12.1062 8.25 12.1067C8.25 12.1072 8.25 12.1077 8.25 12.1082C8.25 12.1087 8.25 12.1092 8.25 12.1098C8.25 12.1103 8.25 12.1108 8.25 12.1113C8.25 12.1118 8.25 12.1123 8.25 12.1128C8.25 12.1133 8.25 12.1138 8.25 12.1143C8.25 12.1148 8.25 12.1153 8.25 12.1158C8.25 12.1163 8.25 12.1168 8.25 12.1173C8.25 12.1178 8.25 12.1183 8.25 12.1188C8.25 12.1193 8.25 12.1198 8.25 12.1203C8.25 12.1207 8.25 12.1212 8.25 12.1217C8.25 12.1222 8.25 12.1227 8.25 12.1232C8.25 12.1237 8.25 12.1241 8.25 12.1246C8.25 12.1251 8.25 12.1256 8.25 12.1261C8.25 12.1266 8.25 12.127 8.25 12.1275C8.25 12.128 8.25 12.1285 8.25 12.1289C8.25 12.1294 8.25 12.1299 8.25 12.1304C8.25 12.1308 8.25 12.1313 8.25 12.1318C8.25 12.1322 8.25 12.1327 8.25 12.1332C8.25 12.1336 8.25 12.1341 8.25 12.1346C8.25 12.135 8.25 12.1355 8.25 12.1359C8.25 12.1364 8.25 12.1369 8.25 12.1373C8.25 12.1378 8.25 12.1382 8.25 12.1387C8.25 12.1391 8.25 12.1396 8.25 12.14C8.25 12.1405 8.25 12.141 8.25 12.1414C8.25 12.1419 8.25 12.1423 8.25 12.1427C8.25 12.1432 8.25 12.1436 8.25 12.1441C8.25 12.1445 8.25 12.145 8.25 12.1454C8.25 12.1459 8.25 12.1463 8.25 12.1467C8.25 12.1472 8.25 12.1476 8.25 12.148C8.25 12.1485 8.25 12.1489 8.25 12.1493C8.25 12.1498 8.25 12.1502 8.25 12.1506C8.25 12.1511 8.25 12.1515 8.25 12.1519C8.25 12.1523 8.25 12.1528 8.25 12.1532C8.25 12.1536 8.25 12.154 8.25 12.1545C8.25 12.1549 8.25 12.1553 8.25 12.1557C8.25 12.1561 8.25 12.1566 8.25 12.157C8.25 12.1574 8.25 12.1578 8.25 12.1582C8.25 12.1586 8.25 12.1591 8.25 12.1595C8.25 12.1599 8.25 12.1603 8.25 12.1607C8.25 12.1611 8.25 12.1615 8.25 12.1619C8.25 12.1623 8.25 12.1627 8.25 12.1631C8.25 12.1635 8.25 12.1639 8.25 12.1643C8.25 12.1647 8.25 12.1651 8.25 12.1655C8.25 12.1659 8.25 12.1663 8.25 12.1667C8.25 12.1671 8.25 12.1675 8.25 12.1679C8.25 12.1683 8.25 12.1687 8.25 12.169C8.25 12.1694 8.25 12.1698 8.25 12.1702C8.25 12.1706 8.25 12.171 8.25 12.1714C8.25 12.1717 8.25 12.1721 8.25 12.1725C8.25 12.1729 8.25 12.1733 8.25 12.1736C8.25 12.174 8.25 12.1744 8.25 12.1748C8.25 12.1751 8.25 12.1755 8.25 12.1759C8.25 12.1762 8.25 12.1766 8.25 12.177C8.25 12.1774 8.25 12.1777 8.25 12.1781C8.25 12.1784 8.25 12.1788 8.25 12.1792C8.25 12.1795 8.25 12.1799 8.25 12.1803C8.25 12.1806 8.25 12.181 8.25 12.1813C8.25 12.1817 8.25 12.182 8.25 12.1824C8.25 12.1828 8.25 12.1831 8.25 12.1835C8.25 12.1838 8.25 12.1842 8.25 12.1845C8.25 12.1849 8.25 12.1852 8.25 12.1855C8.25 12.1859 8.25 12.1862 8.25 12.1866C8.25 12.1869 8.25 12.1873 8.25 12.1876C8.25 12.1879 8.25 12.1883 8.25 12.1886C8.25 12.1889 8.25 12.1893 8.25 12.1896C8.25 12.1899 8.25 12.1903 8.25 12.1906C8.25 12.1909 8.25 12.1913 8.25 12.1916C8.25 12.1919 8.25 12.1923 8.25 12.1926C8.25 12.1929 8.25 12.1932 8.25 12.1936C8.25 12.1939 8.25 12.1942 8.25 12.1945C8.25 12.1948 8.25 12.1951 8.25 12.1955C8.25 12.1958 8.25 12.1961 8.25 12.1964C8.25 12.1967 8.25 12.197 8.25 12.1973C8.25 12.1977 8.25 12.198 8.25 12.1983C8.25 12.1986 8.25 12.1989 8.25 12.1992C8.25 12.1995 8.25 12.1998 8.25 12.2001C8.25 12.2004 8.25 12.2007 8.25 12.201C8.25 12.2013 8.25 12.2016 8.25 12.2019C8.25 12.2022 8.25 12.2025 8.25 12.2028C8.25 12.2031 8.25 12.2034 8.25 12.2036C8.25 12.2039 8.25 12.2042 8.25 12.2045C8.25 12.2048 8.25 12.2051 8.25 12.2054C8.25 12.2057 8.25 12.2059 8.25 12.2062C8.25 12.2065 8.25 12.2068 8.25 12.2071C8.25 12.2073 8.25 12.2076 8.25 12.2079C8.25 12.2082 8.25 12.2084 8.25 12.2087C8.25 12.209 8.25 12.2093 8.25 12.2095C8.25 12.2098 8.25 12.2101 8.25 12.2103C8.25 12.2106 8.25 12.2109 8.25 12.2111C8.25 12.2114 8.25 12.2116 8.25 12.2119C8.25 12.2122 8.25 12.2124 8.25 12.2127C8.25 12.2129 8.25 12.2132 8.25 12.2135C8.25 12.2137 8.25 12.214 8.25 12.2142C8.25 12.2145 8.25 12.2147 8.25 12.215C8.25 12.2152 8.25 12.2155 8.25 12.2157C8.25 12.2159 8.25 12.2162 8.25 12.2164C8.25 12.2167 8.25 12.2169 8.25 12.2172C8.25 12.2174 8.25 12.2176 8.25 12.2179C8.25 12.2181 8.25 12.2183 8.25 12.2186C8.25 12.2188 8.25 12.219 8.25 12.2193C8.25 12.2195 8.25 12.2197 8.25 12.22C8.25 12.2202 8.25 12.2204 8.25 12.2206C8.25 12.2209 8.25 12.2211 8.25 12.2213C8.25 12.2215 8.25 12.2217 8.25 12.222C8.25 12.2222 8.25 12.2224 8.25 12.2226C8.25 12.2228 8.25 12.223 8.25 12.2233C8.25 12.2235 8.25 12.2237 8.25 12.2239C8.25 12.2241 8.25 12.2243 8.25 12.2245C8.25 12.2247 8.25 12.2249 8.25 12.2251C8.25 12.2253 8.25 12.2255 8.25 12.2257C8.25 12.2259 8.25 12.2261 8.25 12.2263C8.25 12.2265 8.25 12.2267 8.25 12.2269C8.25 12.2271 8.25 12.2273 8.25 12.2275C8.25 12.2277 8.25 12.2279 8.25 12.2281C8.25 12.2283 8.25 12.2284 8.25 12.2286C8.25 12.2288 8.25 12.229 8.25 12.2292C8.25 12.2294 8.25 12.2295 8.25 12.2297C8.25 12.2299 8.25 12.2301 8.25 12.2303C8.25 12.2304 8.25 12.2306 8.25 12.2308C8.25 12.231 8.25 12.2311 8.25 12.2313C8.25 12.2315 8.25 12.2316 8.25 12.2318C8.25 12.232 8.25 12.2321 8.25 12.2323C8.25 12.2325 8.25 12.2326 8.25 12.2328C8.25 12.2329 8.25 12.2331 8.25 12.2333C8.25 12.2334 8.25 12.2336 8.25 12.2337C8.25 12.2339 8.25 12.234 8.25 12.2342C8.25 12.2343 8.25 12.2345 8.25 12.2346C8.25 12.2348 8.25 12.2349 8.25 12.2351C8.25 12.2352 8.25 12.2354 8.25 12.2355C8.25 12.2357 8.25 12.2358 8.25 12.2359C8.25 12.2361 8.25 12.2362 8.25 12.2363C8.25 12.2365 8.25 12.2366 8.25 12.2368C8.25 12.2369 8.25 12.237 8.25 12.2371C8.25 12.2373 8.25 12.2374 8.25 12.2375C8.25 12.2377 8.25 12.2378 8.25 12.2379C8.25 12.238 8.25 12.2382 8.25 12.2383C8.25 12.2384 8.25 12.2385 8.25 12.2386C8.25 12.2387 8.25 12.2389 8.25 12.239C8.25 12.2391 8.25 12.2392 8.25 12.2393C8.25 12.2394 8.25 12.2395 8.25 12.2396C8.25 12.2398 8.25 12.2399 8.25 12.24C8.25 12.2401 8.25 12.2402 8.25 12.2403C8.25 12.2404 8.25 12.2405 8.25 12.2406C8.25 12.2407 8.25 12.2408 8.25 12.2409C8.25 12.241 8.25 12.2411 8.25 12.2411C8.25 12.2412 8.25 12.2413 8.25 12.2414C8.25 12.2415 8.25 12.2416 8.25 12.2417C8.25 12.2418 8.25 12.2419 8.25 12.2419C8.25 12.242 8.25 12.2421 8.25 12.2422C8.25 12.2423 8.25 12.2423 8.25 12.2424C8.25 12.2425 8.25 12.2426 8.25 12.2426C8.25 12.2427 8.25 12.2428 8.25 12.2429C8.25 12.2429 8.25 12.243 8.25 12.2431C8.25 12.2431 8.25 12.2432 8.25 12.2433C8.25 12.2433 8.25 12.2434 8.25 12.2434C8.25 12.2435 8.25 12.2436 8.25 12.2436C8.25 12.2437 8.25 12.2437 8.25 12.2438C8.25 12.2438 8.25 12.2439 8.25 12.244C8.25 12.244 8.25 12.2441 8.25 12.2441C8.25 12.2442 8.25 12.2442 8.25 12.2442C8.25 12.2443 8.25 12.2443 8.25 12.2444C8.25 12.2444 8.25 12.2445 8.25 12.2445C8.25 12.2445 8.25 12.2446 8.25 12.2446C8.25 12.2446 8.25 12.2447 8.25 12.2447C8.25 12.2447 8.25 12.2448 8.25 12.2448C8.25 12.2448 8.25 12.2449 8.25 12.2449C8.25 12.2449 8.25 12.2449 8.25 12.245C8.25 12.245 8.25 12.245 8.25 12.245C8.25 12.245 8.25 12.2451 8.25 12.2451C8.25 12.2451 8.25 12.2451 8.25 12.2451C8.25 12.2451 8.25 12.2451 8.25 12.2451C8.25 12.2452 8.25 12.2452 8.25 12.2452C8.25 12.2452 8.25 12.2452 8.25 12.2452C8.25 12.2452 8.25 12.2452 9 12.2452ZM9.75 11.1858C9.75 10.6625 9.53947 10.1551 9.11662 9.78813C8.69938 9.42598 8.13515 9.25 7.5 9.25V10.75C7.86485 10.75 8.05062 10.8491 8.13338 10.9209C8.21053 10.9879 8.25 11.0734 8.25 11.1858H9.75ZM7.5 9.25H6V10.75H7.5V9.25ZM5.25 13.5V16H6.75V13.5H5.25ZM5.25 10V13.5H6.75V10H5.25ZM7.31045 13.7268L8.30107 16.272L9.69893 15.7279L8.70831 13.1828L7.31045 13.7268ZM14.0239 9.26045C13.3201 9.26045 13.1007 9.25458 13.0196 9.25201C12.993 9.25117 12.9383 9.24836 12.877 9.25154C12.8481 9.25303 12.7848 9.25836 12.7287 9.26238L12.8361 10.7585C12.8797 10.7554 12.9097 10.753 12.9307 10.7514C12.9553 10.7495 12.9564 10.7494 12.9546 10.7495C12.9359 10.7505 12.9059 10.7492 12.972 10.7513C13.0762 10.7546 13.3137 10.7605 14.0239 10.7605V9.26045ZM12.7287 9.26238C11.6459 9.34011 10.9376 9.94467 10.6652 10.7309C10.4169 11.4477 10.547 12.291 11.0219 12.8513L12.1662 11.8814C12.065 11.7621 11.9915 11.4846 12.0825 11.222C12.1494 11.0289 12.3234 10.7953 12.8361 10.7585L12.7287 9.26238ZM11.0219 12.8513C11.4529 13.3598 11.9214 13.5219 12.3084 13.6313C12.6748 13.735 12.9219 13.787 13.2403 13.9933L14.0562 12.7346C13.5087 12.3798 13.0168 12.2729 12.7167 12.188C12.437 12.1088 12.3113 12.0527 12.1662 11.8814L11.0219 12.8513ZM13.2404 13.9933C13.4716 14.1432 13.5937 14.4619 13.5213 14.766C13.488 14.9055 13.4175 15.0184 13.3181 15.0973C13.2223 15.1733 13.0589 15.25 12.7824 15.25V16.75C13.9828 16.75 14.7641 16.0217 14.9804 15.1137C15.181 14.2717 14.8859 13.2724 14.0562 12.7346L13.2404 13.9933ZM12.7824 15.25L11.4637 15.25L11.4637 16.75L12.7824 16.75L12.7824 15.25ZM18.7324 9.26045C18.0286 9.26045 17.8092 9.25458 17.7281 9.25201C17.7015 9.25117 17.6468 9.24836 17.5855 9.25154C17.5566 9.25303 17.4933 9.25836 17.4372 9.26238L17.5446 10.7585C17.5882 10.7554 17.6182 10.753 17.6392 10.7514C17.6638 10.7495 17.6649 10.7494 17.6631 10.7495C17.6444 10.7505 17.6144 10.7492 17.6805 10.7513C17.7847 10.7546 18.0222 10.7605 18.7324 10.7605V9.26045ZM17.4372 9.26238C16.3544 9.34011 15.6461 9.94467 15.3737 10.7309C15.1253 11.4477 15.2555 12.291 15.7304 12.8513L16.8747 11.8814C16.7735 11.7621 16.7 11.4846 16.791 11.222C16.8579 11.0289 17.0319 10.7953 17.5446 10.7585L17.4372 9.26238ZM15.7304 12.8513C16.1613 13.3598 16.6299 13.5219 17.0168 13.6313C17.3833 13.735 17.6304 13.787 17.9488 13.9933L18.7646 12.7346C18.2172 12.3798 17.7253 12.2729 17.4251 12.188C17.1454 12.1088 17.0198 12.0527 16.8747 11.8814L15.7304 12.8513ZM17.9488 13.9933C18.18 14.1432 18.3022 14.4619 18.2297 14.766C18.1965 14.9055 18.126 15.0184 18.0266 15.0973C17.9307 15.1733 17.7674 15.25 17.4909 15.25V16.75C18.6912 16.75 19.4726 16.0217 19.6889 15.1137C19.8895 14.2717 19.5944 13.2724 18.7646 12.7346L17.9488 13.9933ZM17.4909 15.25L16.1721 15.25L16.1721 16.75L17.4909 16.75L17.4909 15.25Z" fill="black"/>
</svg>
