<svg width="24" height="24" viewBox="0 0 24 24" fill="none" xmlns="http://www.w3.org/2000/svg">
<path d="M19 20V20.75H19.75V20H19ZM5 20H4.25V20.75H5V20ZM5 4V3.25H4.25V4H5ZM16 4L16.5303 3.46967L16.3107 3.25H16V4ZM19 7L19.75 7V6.68934L19.5303 6.46967L19 7ZM6.5 13.5L6.54832 12.7516L6.52418 12.75H6.5V13.5ZM5 10V9.25C4.58579 9.25 4.25 9.58579 4.25 10H5ZM4.25 16C4.25 16.4142 4.58579 16.75 5 16.75C5.41421 16.75 5.75 16.4142 5.75 16H4.25ZM7.70831 13.1828C7.55806 12.7968 7.12335 12.6056 6.73735 12.7559C6.35134 12.9061 6.16021 13.3408 6.31045 13.7268L7.70831 13.1828ZM7.30107 16.272C7.45131 16.658 7.88603 16.8491 8.27203 16.6989C8.65804 16.5487 8.84917 16.1139 8.69893 15.7279L7.30107 16.272ZM11.25 16C11.25 16.4142 11.5858 16.75 12 16.75C12.4142 16.75 12.75 16.4142 12.75 16H11.25ZM10 9.25C9.58579 9.25 9.25 9.58579 9.25 10C9.25 10.4142 9.58579 10.75 10 10.75V9.25ZM14 10.75C14.4142 10.75 14.75 10.4142 14.75 10C14.75 9.58579 14.4142 9.25 14 9.25V10.75ZM16 10V9.25H15.25V10H16ZM15.25 16C15.25 16.4142 15.5858 16.75 16 16.75C16.4142 16.75 16.75 16.4142 16.75 16H15.25ZM19 10.75C19.4142 10.75 19.75 10.4142 19.75 10C19.75 9.58579 19.4142 9.25 19 9.25V10.75ZM18.5 13.75C18.9142 13.75 19.25 13.4142 19.25 13C19.25 12.5858 18.9142 12.25 18.5 12.25V13.75ZM19 19.25H5V20.75H19V19.25ZM5 4.75H16V3.25H5V4.75ZM15.4697 4.53033L18.4697 7.53033L19.5303 6.46967L16.5303 3.46967L15.4697 4.53033ZM5.75 8V4H4.25V8H5.75ZM5.75 20V18H4.25V20H5.75ZM18.25 7L18.25 8L19.75 8L19.75 7L18.25 7ZM18.25 18V20H19.75V18H18.25ZM5 14.25H6.5V12.75H5V14.25ZM6.5 13.5C6.45168 14.2484 6.45202 14.2485 6.45236 14.2485C6.45248 14.2485 6.45282 14.2485 6.45307 14.2485C6.45355 14.2486 6.45406 14.2486 6.4546 14.2486C6.45567 14.2487 6.45684 14.2488 6.4581 14.2488C6.46063 14.249 6.46354 14.2491 6.46683 14.2493C6.4734 14.2496 6.48148 14.25 6.49097 14.2503C6.50992 14.251 6.53463 14.2515 6.56431 14.2515C6.62339 14.2515 6.70363 14.2494 6.79836 14.2413C6.98345 14.2254 7.2458 14.185 7.52007 14.0791C7.79565 13.9728 8.11119 13.7891 8.35788 13.4716C8.61163 13.145 8.75 12.7311 8.75 12.2452H7.25C7.25 12.4351 7.20087 12.5159 7.17337 12.5513C7.13881 12.5958 7.07935 12.6414 6.97993 12.6798C6.8792 12.7187 6.76655 12.7385 6.67039 12.7467C6.62449 12.7507 6.58755 12.7515 6.5646 12.7515C6.55326 12.7515 6.54574 12.7513 6.54272 12.7512C6.54122 12.7512 6.54088 12.7511 6.54177 12.7512C6.54222 12.7512 6.54299 12.7512 6.54407 12.7513C6.54461 12.7513 6.54524 12.7514 6.54595 12.7514C6.5463 12.7514 6.54667 12.7515 6.54707 12.7515C6.54727 12.7515 6.54758 12.7515 6.54768 12.7515C6.548 12.7515 6.54832 12.7516 6.5 13.5ZM8 12.2452C8.75 12.2452 8.75 12.2452 8.75 12.2452C8.75 12.2452 8.75 12.2452 8.75 12.2452C8.75 12.2452 8.75 12.2452 8.75 12.2451C8.75 12.2451 8.75 12.2451 8.75 12.2451C8.75 12.2451 8.75 12.2451 8.75 12.2451C8.75 12.2451 8.75 12.245 8.75 12.245C8.75 12.245 8.75 12.245 8.75 12.245C8.75 12.2449 8.75 12.2449 8.75 12.2449C8.75 12.2449 8.75 12.2448 8.75 12.2448C8.75 12.2448 8.75 12.2447 8.75 12.2447C8.75 12.2447 8.75 12.2446 8.75 12.2446C8.75 12.2446 8.75 12.2445 8.75 12.2445C8.75 12.2445 8.75 12.2444 8.75 12.2444C8.75 12.2443 8.75 12.2443 8.75 12.2442C8.75 12.2442 8.75 12.2442 8.75 12.2441C8.75 12.2441 8.75 12.244 8.75 12.244C8.75 12.2439 8.75 12.2438 8.75 12.2438C8.75 12.2437 8.75 12.2437 8.75 12.2436C8.75 12.2436 8.75 12.2435 8.75 12.2434C8.75 12.2434 8.75 12.2433 8.75 12.2433C8.75 12.2432 8.75 12.2431 8.75 12.2431C8.75 12.243 8.75 12.2429 8.75 12.2429C8.75 12.2428 8.75 12.2427 8.75 12.2426C8.75 12.2426 8.75 12.2425 8.75 12.2424C8.75 12.2423 8.75 12.2423 8.75 12.2422C8.75 12.2421 8.75 12.242 8.75 12.2419C8.75 12.2419 8.75 12.2418 8.75 12.2417C8.75 12.2416 8.75 12.2415 8.75 12.2414C8.75 12.2413 8.75 12.2412 8.75 12.2411C8.75 12.2411 8.75 12.241 8.75 12.2409C8.75 12.2408 8.75 12.2407 8.75 12.2406C8.75 12.2405 8.75 12.2404 8.75 12.2403C8.75 12.2402 8.75 12.2401 8.75 12.24C8.75 12.2399 8.75 12.2398 8.75 12.2396C8.75 12.2395 8.75 12.2394 8.75 12.2393C8.75 12.2392 8.75 12.2391 8.75 12.239C8.75 12.2389 8.75 12.2387 8.75 12.2386C8.75 12.2385 8.75 12.2384 8.75 12.2383C8.75 12.2382 8.75 12.238 8.75 12.2379C8.75 12.2378 8.75 12.2377 8.75 12.2375C8.75 12.2374 8.75 12.2373 8.75 12.2371C8.75 12.237 8.75 12.2369 8.75 12.2368C8.75 12.2366 8.75 12.2365 8.75 12.2363C8.75 12.2362 8.75 12.2361 8.75 12.2359C8.75 12.2358 8.75 12.2357 8.75 12.2355C8.75 12.2354 8.75 12.2352 8.75 12.2351C8.75 12.2349 8.75 12.2348 8.75 12.2346C8.75 12.2345 8.75 12.2343 8.75 12.2342C8.75 12.234 8.75 12.2339 8.75 12.2337C8.75 12.2336 8.75 12.2334 8.75 12.2333C8.75 12.2331 8.75 12.2329 8.75 12.2328C8.75 12.2326 8.75 12.2325 8.75 12.2323C8.75 12.2321 8.75 12.232 8.75 12.2318C8.75 12.2316 8.75 12.2315 8.75 12.2313C8.75 12.2311 8.75 12.231 8.75 12.2308C8.75 12.2306 8.75 12.2304 8.75 12.2303C8.75 12.2301 8.75 12.2299 8.75 12.2297C8.75 12.2295 8.75 12.2294 8.75 12.2292C8.75 12.229 8.75 12.2288 8.75 12.2286C8.75 12.2284 8.75 12.2283 8.75 12.2281C8.75 12.2279 8.75 12.2277 8.75 12.2275C8.75 12.2273 8.75 12.2271 8.75 12.2269C8.75 12.2267 8.75 12.2265 8.75 12.2263C8.75 12.2261 8.75 12.2259 8.75 12.2257C8.75 12.2255 8.75 12.2253 8.75 12.2251C8.75 12.2249 8.75 12.2247 8.75 12.2245C8.75 12.2243 8.75 12.2241 8.75 12.2239C8.75 12.2237 8.75 12.2235 8.75 12.2233C8.75 12.223 8.75 12.2228 8.75 12.2226C8.75 12.2224 8.75 12.2222 8.75 12.222C8.75 12.2217 8.75 12.2215 8.75 12.2213C8.75 12.2211 8.75 12.2209 8.75 12.2206C8.75 12.2204 8.75 12.2202 8.75 12.22C8.75 12.2197 8.75 12.2195 8.75 12.2193C8.75 12.219 8.75 12.2188 8.75 12.2186C8.75 12.2183 8.75 12.2181 8.75 12.2179C8.75 12.2176 8.75 12.2174 8.75 12.2172C8.75 12.2169 8.75 12.2167 8.75 12.2164C8.75 12.2162 8.75 12.2159 8.75 12.2157C8.75 12.2155 8.75 12.2152 8.75 12.215C8.75 12.2147 8.75 12.2145 8.75 12.2142C8.75 12.214 8.75 12.2137 8.75 12.2135C8.75 12.2132 8.75 12.2129 8.75 12.2127C8.75 12.2124 8.75 12.2122 8.75 12.2119C8.75 12.2116 8.75 12.2114 8.75 12.2111C8.75 12.2109 8.75 12.2106 8.75 12.2103C8.75 12.2101 8.75 12.2098 8.75 12.2095C8.75 12.2093 8.75 12.209 8.75 12.2087C8.75 12.2084 8.75 12.2082 8.75 12.2079C8.75 12.2076 8.75 12.2073 8.75 12.2071C8.75 12.2068 8.75 12.2065 8.75 12.2062C8.75 12.2059 8.75 12.2057 8.75 12.2054C8.75 12.2051 8.75 12.2048 8.75 12.2045C8.75 12.2042 8.75 12.2039 8.75 12.2036C8.75 12.2034 8.75 12.2031 8.75 12.2028C8.75 12.2025 8.75 12.2022 8.75 12.2019C8.75 12.2016 8.75 12.2013 8.75 12.201C8.75 12.2007 8.75 12.2004 8.75 12.2001C8.75 12.1998 8.75 12.1995 8.75 12.1992C8.75 12.1989 8.75 12.1986 8.75 12.1983C8.75 12.198 8.75 12.1977 8.75 12.1973C8.75 12.197 8.75 12.1967 8.75 12.1964C8.75 12.1961 8.75 12.1958 8.75 12.1955C8.75 12.1951 8.75 12.1948 8.75 12.1945C8.75 12.1942 8.75 12.1939 8.75 12.1936C8.75 12.1932 8.75 12.1929 8.75 12.1926C8.75 12.1923 8.75 12.1919 8.75 12.1916C8.75 12.1913 8.75 12.1909 8.75 12.1906C8.75 12.1903 8.75 12.1899 8.75 12.1896C8.75 12.1893 8.75 12.1889 8.75 12.1886C8.75 12.1883 8.75 12.1879 8.75 12.1876C8.75 12.1873 8.75 12.1869 8.75 12.1866C8.75 12.1862 8.75 12.1859 8.75 12.1855C8.75 12.1852 8.75 12.1849 8.75 12.1845C8.75 12.1842 8.75 12.1838 8.75 12.1835C8.75 12.1831 8.75 12.1828 8.75 12.1824C8.75 12.182 8.75 12.1817 8.75 12.1813C8.75 12.181 8.75 12.1806 8.75 12.1803C8.75 12.1799 8.75 12.1795 8.75 12.1792C8.75 12.1788 8.75 12.1784 8.75 12.1781C8.75 12.1777 8.75 12.1774 8.75 12.177C8.75 12.1766 8.75 12.1762 8.75 12.1759C8.75 12.1755 8.75 12.1751 8.75 12.1748C8.75 12.1744 8.75 12.174 8.75 12.1736C8.75 12.1733 8.75 12.1729 8.75 12.1725C8.75 12.1721 8.75 12.1717 8.75 12.1714C8.75 12.171 8.75 12.1706 8.75 12.1702C8.75 12.1698 8.75 12.1694 8.75 12.169C8.75 12.1687 8.75 12.1683 8.75 12.1679C8.75 12.1675 8.75 12.1671 8.75 12.1667C8.75 12.1663 8.75 12.1659 8.75 12.1655C8.75 12.1651 8.75 12.1647 8.75 12.1643C8.75 12.1639 8.75 12.1635 8.75 12.1631C8.75 12.1627 8.75 12.1623 8.75 12.1619C8.75 12.1615 8.75 12.1611 8.75 12.1607C8.75 12.1603 8.75 12.1599 8.75 12.1595C8.75 12.1591 8.75 12.1586 8.75 12.1582C8.75 12.1578 8.75 12.1574 8.75 12.157C8.75 12.1566 8.75 12.1561 8.75 12.1557C8.75 12.1553 8.75 12.1549 8.75 12.1545C8.75 12.154 8.75 12.1536 8.75 12.1532C8.75 12.1528 8.75 12.1523 8.75 12.1519C8.75 12.1515 8.75 12.1511 8.75 12.1506C8.75 12.1502 8.75 12.1498 8.75 12.1493C8.75 12.1489 8.75 12.1485 8.75 12.148C8.75 12.1476 8.75 12.1472 8.75 12.1467C8.75 12.1463 8.75 12.1459 8.75 12.1454C8.75 12.145 8.75 12.1445 8.75 12.1441C8.75 12.1436 8.75 12.1432 8.75 12.1427C8.75 12.1423 8.75 12.1419 8.75 12.1414C8.75 12.141 8.75 12.1405 8.75 12.14C8.75 12.1396 8.75 12.1391 8.75 12.1387C8.75 12.1382 8.75 12.1378 8.75 12.1373C8.75 12.1369 8.75 12.1364 8.75 12.1359C8.75 12.1355 8.75 12.135 8.75 12.1346C8.75 12.1341 8.75 12.1336 8.75 12.1332C8.75 12.1327 8.75 12.1322 8.75 12.1318C8.75 12.1313 8.75 12.1308 8.75 12.1304C8.75 12.1299 8.75 12.1294 8.75 12.1289C8.75 12.1285 8.75 12.128 8.75 12.1275C8.75 12.127 8.75 12.1266 8.75 12.1261C8.75 12.1256 8.75 12.1251 8.75 12.1246C8.75 12.1241 8.75 12.1237 8.75 12.1232C8.75 12.1227 8.75 12.1222 8.75 12.1217C8.75 12.1212 8.75 12.1207 8.75 12.1203C8.75 12.1198 8.75 12.1193 8.75 12.1188C8.75 12.1183 8.75 12.1178 8.75 12.1173C8.75 12.1168 8.75 12.1163 8.75 12.1158C8.75 12.1153 8.75 12.1148 8.75 12.1143C8.75 12.1138 8.75 12.1133 8.75 12.1128C8.75 12.1123 8.75 12.1118 8.75 12.1113C8.75 12.1108 8.75 12.1103 8.75 12.1098C8.75 12.1092 8.75 12.1087 8.75 12.1082C8.75 12.1077 8.75 12.1072 8.75 12.1067C8.75 12.1062 8.75 12.1056 8.75 12.1051C8.75 12.1046 8.75 12.1041 8.75 12.1036C8.75 12.1031 8.75 12.1025 8.75 12.102C8.75 12.1015 8.75 12.101 8.75 12.1004C8.75 12.0999 8.75 12.0994 8.75 12.0989C8.75 12.0983 8.75 12.0978 8.75 12.0973C8.75 12.0967 8.75 12.0962 8.75 12.0957C8.75 12.0951 8.75 12.0946 8.75 12.0941C8.75 12.0935 8.75 12.093 8.75 12.0925C8.75 12.0919 8.75 12.0914 8.75 12.0908C8.75 12.0903 8.75 12.0898 8.75 12.0892C8.75 12.0887 8.75 12.0881 8.75 12.0876C8.75 12.087 8.75 12.0865 8.75 12.0859C8.75 12.0854 8.75 12.0848 8.75 12.0843C8.75 12.0837 8.75 12.0832 8.75 12.0826C8.75 12.0821 8.75 12.0815 8.75 12.0809C8.75 12.0804 8.75 12.0798 8.75 12.0793C8.75 12.0787 8.75 12.0782 8.75 12.0776C8.75 12.077 8.75 12.0765 8.75 12.0759C8.75 12.0753 8.75 12.0748 8.75 12.0742C8.75 12.0736 8.75 12.0731 8.75 12.0725C8.75 12.0719 8.75 12.0713 8.75 12.0708C8.75 12.0702 8.75 12.0696 8.75 12.0691C8.75 12.0685 8.75 12.0679 8.75 12.0673C8.75 12.0667 8.75 12.0662 8.75 12.0656C8.75 12.065 8.75 12.0644 8.75 12.0638C8.75 12.0633 8.75 12.0627 8.75 12.0621C8.75 12.0615 8.75 12.0609 8.75 12.0603C8.75 12.0597 8.75 12.0591 8.75 12.0585C8.75 12.058 8.75 12.0574 8.75 12.0568C8.75 12.0562 8.75 12.0556 8.75 12.055C8.75 12.0544 8.75 12.0538 8.75 12.0532C8.75 12.0526 8.75 12.052 8.75 12.0514C8.75 12.0508 8.75 12.0502 8.75 12.0496C8.75 12.049 8.75 12.0484 8.75 12.0478C8.75 12.0472 8.75 12.0466 8.75 12.0459C8.75 12.0453 8.75 12.0447 8.75 12.0441C8.75 12.0435 8.75 12.0429 8.75 12.0423C8.75 12.0417 8.75 12.041 8.75 12.0404C8.75 12.0398 8.75 12.0392 8.75 12.0386C8.75 12.0379 8.75 12.0373 8.75 12.0367C8.75 12.0361 8.75 12.0355 8.75 12.0348C8.75 12.0342 8.75 12.0336 8.75 12.033C8.75 12.0323 8.75 12.0317 8.75 12.0311C8.75 12.0304 8.75 12.0298 8.75 12.0292C8.75 12.0285 8.75 12.0279 8.75 12.0273C8.75 12.0266 8.75 12.026 8.75 12.0254C8.75 12.0247 8.75 12.0241 8.75 12.0235C8.75 12.0228 8.75 12.0222 8.75 12.0215C8.75 12.0209 8.75 12.0202 8.75 12.0196C8.75 12.019 8.75 12.0183 8.75 12.0177C8.75 12.017 8.75 12.0164 8.75 12.0157C8.75 12.0151 8.75 12.0144 8.75 12.0138C8.75 12.0131 8.75 12.0125 8.75 12.0118C8.75 12.0111 8.75 12.0105 8.75 12.0098C8.75 12.0092 8.75 12.0085 8.75 12.0079C8.75 12.0072 8.75 12.0065 8.75 12.0059C8.75 12.0052 8.75 12.0045 8.75 12.0039C8.75 12.0032 8.75 12.0025 8.75 12.0019C8.75 12.0012 8.75 12.0005 8.75 11.9999C8.75 11.9992 8.75 11.9985 8.75 11.9979C8.75 11.9972 8.75 11.9965 8.75 11.9958C8.75 11.9952 8.75 11.9945 8.75 11.9938C8.75 11.9931 8.75 11.9925 8.75 11.9918C8.75 11.9911 8.75 11.9904 8.75 11.9897C8.75 11.989 8.75 11.9884 8.75 11.9877C8.75 11.987 8.75 11.9863 8.75 11.9856C8.75 11.9849 8.75 11.9842 8.75 11.9836C8.75 11.9829 8.75 11.9822 8.75 11.9815C8.75 11.9808 8.75 11.9801 8.75 11.9794C8.75 11.9787 8.75 11.978 8.75 11.9773C8.75 11.9766 8.75 11.9759 8.75 11.9752C8.75 11.9745 8.75 11.9738 8.75 11.9731C8.75 11.9724 8.75 11.9717 8.75 11.971C8.75 11.9703 8.75 11.9696 8.75 11.9689C8.75 11.9682 8.75 11.9675 8.75 11.9668C8.75 11.966 8.75 11.9653 8.75 11.9646C8.75 11.9639 8.75 11.9632 8.75 11.9625C8.75 11.9618 8.75 11.9611 8.75 11.9603C8.75 11.9596 8.75 11.9589 8.75 11.9582C8.75 11.9575 8.75 11.9567 8.75 11.956C8.75 11.9553 8.75 11.9546 8.75 11.9539C8.75 11.9531 8.75 11.9524 8.75 11.9517C8.75 11.951 8.75 11.9502 8.75 11.9495C8.75 11.9488 8.75 11.948 8.75 11.9473C8.75 11.9466 8.75 11.9458 8.75 11.9451C8.75 11.9444 8.75 11.9436 8.75 11.9429C8.75 11.9422 8.75 11.9414 8.75 11.9407C8.75 11.9399 8.75 11.9392 8.75 11.9385C8.75 11.9377 8.75 11.937 8.75 11.9362C8.75 11.9355 8.75 11.9348 8.75 11.934C8.75 11.9333 8.75 11.9325 8.75 11.9318C8.75 11.931 8.75 11.9303 8.75 11.9295C8.75 11.9288 8.75 11.928 8.75 11.9273C8.75 11.9265 8.75 11.9258 8.75 11.925C8.75 11.9242 8.75 11.9235 8.75 11.9227C8.75 11.922 8.75 11.9212 8.75 11.9205C8.75 11.9197 8.75 11.9189 8.75 11.9182C8.75 11.9174 8.75 11.9166 8.75 11.9159C8.75 11.9151 8.75 11.9143 8.75 11.9136C8.75 11.9128 8.75 11.912 8.75 11.9113C8.75 11.9105 8.75 11.9097 8.75 11.909C8.75 11.9082 8.75 11.9074 8.75 11.9066C8.75 11.9059 8.75 11.9051 8.75 11.9043C8.75 11.9035 8.75 11.9028 8.75 11.902C8.75 11.9012 8.75 11.9004 8.75 11.8996C8.75 11.8989 8.75 11.8981 8.75 11.8973C8.75 11.8965 8.75 11.8957 8.75 11.8949C8.75 11.8941 8.75 11.8934 8.75 11.8926C8.75 11.8918 8.75 11.891 8.75 11.8902C8.75 11.8894 8.75 11.8886 8.75 11.8878C8.75 11.887 8.75 11.8862 8.75 11.8854C8.75 11.8846 8.75 11.8839 8.75 11.8831C8.75 11.8823 8.75 11.8815 8.75 11.8807C8.75 11.8799 8.75 11.8791 8.75 11.8783C8.75 11.8775 8.75 11.8766 8.75 11.8758C8.75 11.875 8.75 11.8742 8.75 11.8734C8.75 11.8726 8.75 11.8718 8.75 11.871C8.75 11.8702 8.75 11.8694 8.75 11.8686C8.75 11.8678 8.75 11.8669 8.75 11.8661C8.75 11.8653 8.75 11.8645 8.75 11.8637C8.75 11.8629 8.75 11.862 8.75 11.8612C8.75 11.8604 8.75 11.8596 8.75 11.8588C8.75 11.858 8.75 11.8571 8.75 11.8563C8.75 11.8555 8.75 11.8547 8.75 11.8538C8.75 11.853 8.75 11.8522 8.75 11.8514C8.75 11.8505 8.75 11.8497 8.75 11.8489C8.75 11.848 8.75 11.8472 8.75 11.8464C8.75 11.8455 8.75 11.8447 8.75 11.8439C8.75 11.843 8.75 11.8422 8.75 11.8414C8.75 11.8405 8.75 11.8397 8.75 11.8388C8.75 11.838 8.75 11.8372 8.75 11.8363C8.75 11.8355 8.75 11.8346 8.75 11.8338C8.75 11.833 8.75 11.8321 8.75 11.8313C8.75 11.8304 8.75 11.8296 8.75 11.8287C8.75 11.8279 8.75 11.827 8.75 11.8262C8.75 11.8253 8.75 11.8245 8.75 11.8236C8.75 11.8228 8.75 11.8219 8.75 11.8211C8.75 11.8202 8.75 11.8193 8.75 11.8185C8.75 11.8176 8.75 11.8168 8.75 11.8159C8.75 11.8151 8.75 11.8142 8.75 11.8133C8.75 11.8125 8.75 11.8116 8.75 11.8107C8.75 11.8099 8.75 11.809 8.75 11.8081C8.75 11.8073 8.75 11.8064 8.75 11.8055C8.75 11.8047 8.75 11.8038 8.75 11.8029C8.75 11.8021 8.75 11.8012 8.75 11.8003C8.75 11.7994 8.75 11.7986 8.75 11.7977C8.75 11.7968 8.75 11.7959 8.75 11.7951C8.75 11.7942 8.75 11.7933 8.75 11.7924C8.75 11.7916 8.75 11.7907 8.75 11.7898C8.75 11.7889 8.75 11.788 8.75 11.7871C8.75 11.7863 8.75 11.7854 8.75 11.7845C8.75 11.7836 8.75 11.7827 8.75 11.7818C8.75 11.7809 8.75 11.7801 8.75 11.7792C8.75 11.7783 8.75 11.7774 8.75 11.7765C8.75 11.7756 8.75 11.7747 8.75 11.7738C8.75 11.7729 8.75 11.772 8.75 11.7711C8.75 11.7702 8.75 11.7693 8.75 11.7684C8.75 11.7675 8.75 11.7666 8.75 11.7657C8.75 11.7648 8.75 11.7639 8.75 11.763C8.75 11.7621 8.75 11.7612 8.75 11.7603C8.75 11.7594 8.75 11.7585 8.75 11.7576C8.75 11.7567 8.75 11.7558 8.75 11.7548C8.75 11.7539 8.75 11.753 8.75 11.7521C8.75 11.7512 8.75 11.7503 8.75 11.7494C8.75 11.7485 8.75 11.7475 8.75 11.7466C8.75 11.7457 8.75 11.7448 8.75 11.7439C8.75 11.743 8.75 11.742 8.75 11.7411C8.75 11.7402 8.75 11.7393 8.75 11.7383C8.75 11.7374 8.75 11.7365 8.75 11.7356C8.75 11.7346 8.75 11.7337 8.75 11.7328C8.75 11.7319 8.75 11.7309 8.75 11.73C8.75 11.7291 8.75 11.7281 8.75 11.7272C8.75 11.7263 8.75 11.7254 8.75 11.7244C8.75 11.7235 8.75 11.7225 8.75 11.7216C8.75 11.7207 8.75 11.7197 8.75 11.7188C8.75 11.7179 8.75 11.7169 8.75 11.716C8.75 11.715 8.75 11.7141 8.75 11.7132C8.75 11.7122 8.75 11.7113 8.75 11.7103C8.75 11.7094 8.75 11.7084 8.75 11.7075C8.75 11.7065 8.75 11.7056 8.75 11.7046C8.75 11.7037 8.75 11.7028 8.75 11.7018C8.75 11.7008 8.75 11.6999 8.75 11.6989C8.75 11.698 8.75 11.697 8.75 11.6961C8.75 11.6951 8.75 11.6942 8.75 11.6932C8.75 11.6923 8.75 11.6913 8.75 11.6903C8.75 11.6894 8.75 11.6884 8.75 11.6875C8.75 11.6865 8.75 11.6855 8.75 11.6846C8.75 11.6836 8.75 11.6826 8.75 11.6817C8.75 11.6807 8.75 11.6797 8.75 11.6788C8.75 11.6778 8.75 11.6768 8.75 11.6759C8.75 11.6749 8.75 11.6739 8.75 11.673C8.75 11.672 8.75 11.671 8.75 11.67C8.75 11.6691 8.75 11.6681 8.75 11.6671C8.75 11.6661 8.75 11.6652 8.75 11.6642C8.75 11.6632 8.75 11.6622 8.75 11.6612C8.75 11.6603 8.75 11.6593 8.75 11.6583C8.75 11.6573 8.75 11.6563 8.75 11.6554C8.75 11.6544 8.75 11.6534 8.75 11.6524C8.75 11.6514 8.75 11.6504 8.75 11.6494C8.75 11.6484 8.75 11.6475 8.75 11.6465C8.75 11.6455 8.75 11.6445 8.75 11.6435C8.75 11.6425 8.75 11.6415 8.75 11.6405C8.75 11.6395 8.75 11.6385 8.75 11.6375C8.75 11.6365 8.75 11.6355 8.75 11.6345C8.75 11.6335 8.75 11.6325 8.75 11.6315C8.75 11.6305 8.75 11.6295 8.75 11.6285C8.75 11.6275 8.75 11.6265 8.75 11.6255C8.75 11.6245 8.75 11.6235 8.75 11.6225C8.75 11.6215 8.75 11.6205 8.75 11.6195C8.75 11.6185 8.75 11.6175 8.75 11.6165C8.75 11.6154 8.75 11.6144 8.75 11.6134C8.75 11.6124 8.75 11.6114 8.75 11.6104C8.75 11.6094 8.75 11.6083 8.75 11.6073C8.75 11.6063 8.75 11.6053 8.75 11.6043C8.75 11.6033 8.75 11.6022 8.75 11.6012C8.75 11.6002 8.75 11.5992 8.75 11.5981C8.75 11.5971 8.75 11.5961 8.75 11.5951C8.75 11.5941 8.75 11.593 8.75 11.592C8.75 11.591 8.75 11.5899 8.75 11.5889C8.75 11.5879 8.75 11.5869 8.75 11.5858C8.75 11.5848 8.75 11.5838 8.75 11.5827C8.75 11.5817 8.75 11.5807 8.75 11.5796C8.75 11.5786 8.75 11.5776 8.75 11.5765C8.75 11.5755 8.75 11.5745 8.75 11.5734C8.75 11.5724 8.75 11.5713 8.75 11.5703C8.75 11.5693 8.75 11.5682 8.75 11.5672C8.75 11.5661 8.75 11.5651 8.75 11.564C8.75 11.563 8.75 11.5619 8.75 11.5609C8.75 11.5599 8.75 11.5588 8.75 11.5578C8.75 11.5567 8.75 11.5557 8.75 11.5546C8.75 11.5536 8.75 11.5525 8.75 11.5515C8.75 11.5504 8.75 11.5493 8.75 11.5483C8.75 11.5472 8.75 11.5462 8.75 11.5451C8.75 11.5441 8.75 11.543 8.75 11.542C8.75 11.5409 8.75 11.5398 8.75 11.5388C8.75 11.5377 8.75 11.5367 8.75 11.5356C8.75 11.5345 8.75 11.5335 8.75 11.5324C8.75 11.5313 8.75 11.5303 8.75 11.5292C8.75 11.5281 8.75 11.5271 8.75 11.526C8.75 11.5249 8.75 11.5239 8.75 11.5228C8.75 11.5217 8.75 11.5207 8.75 11.5196C8.75 11.5185 8.75 11.5174 8.75 11.5164C8.75 11.5153 8.75 11.5142 8.75 11.5131C8.75 11.5121 8.75 11.511 8.75 11.5099C8.75 11.5088 8.75 11.5078 8.75 11.5067C8.75 11.5056 8.75 11.5045 8.75 11.5034C8.75 11.5024 8.75 11.5013 8.75 11.5002C8.75 11.4991 8.75 11.498 8.75 11.4969C8.75 11.4959 8.75 11.4948 8.75 11.4937C8.75 11.4926 8.75 11.4915 8.75 11.4904C8.75 11.4893 8.75 11.4882 8.75 11.4872C8.75 11.4861 8.75 11.485 8.75 11.4839C8.75 11.4828 8.75 11.4817 8.75 11.4806C8.75 11.4795 8.75 11.4784 8.75 11.4773C8.75 11.4762 8.75 11.4751 8.75 11.474C8.75 11.4729 8.75 11.4718 8.75 11.4707C8.75 11.4696 8.75 11.4685 8.75 11.4674C8.75 11.4663 8.75 11.4652 8.75 11.4641C8.75 11.463 8.75 11.4619 8.75 11.4608C8.75 11.4597 8.75 11.4586 8.75 11.4575C8.75 11.4564 8.75 11.4553 8.75 11.4541C8.75 11.453 8.75 11.4519 8.75 11.4508C8.75 11.4497 8.75 11.4486 8.75 11.4475C8.75 11.4464 8.75 11.4453 8.75 11.4441C8.75 11.443 8.75 11.4419 8.75 11.4408C8.75 11.4397 8.75 11.4386 8.75 11.4374C8.75 11.4363 8.75 11.4352 8.75 11.4341C8.75 11.433 8.75 11.4318 8.75 11.4307C8.75 11.4296 8.75 11.4285 8.75 11.4273C8.75 11.4262 8.75 11.4251 8.75 11.424C8.75 11.4228 8.75 11.4217 8.75 11.4206C8.75 11.4195 8.75 11.4183 8.75 11.4172C8.75 11.4161 8.75 11.4149 8.75 11.4138C8.75 11.4127 8.75 11.4115 8.75 11.4104C8.75 11.4093 8.75 11.4081 8.75 11.407C8.75 11.4059 8.75 11.4047 8.75 11.4036C8.75 11.4025 8.75 11.4013 8.75 11.4002C8.75 11.399 8.75 11.3979 8.75 11.3968C8.75 11.3956 8.75 11.3945 8.75 11.3933C8.75 11.3922 8.75 11.3911 8.75 11.3899C8.75 11.3888 8.75 11.3876 8.75 11.3865C8.75 11.3853 8.75 11.3842 8.75 11.383C8.75 11.3819 8.75 11.3807 8.75 11.3796C8.75 11.3784 8.75 11.3773 8.75 11.3761C8.75 11.375 8.75 11.3738 8.75 11.3727C8.75 11.3715 8.75 11.3704 8.75 11.3692C8.75 11.3681 8.75 11.3669 8.75 11.3658C8.75 11.3646 8.75 11.3634 8.75 11.3623C8.75 11.3611 8.75 11.36 8.75 11.3588C8.75 11.3576 8.75 11.3565 8.75 11.3553C8.75 11.3542 8.75 11.353 8.75 11.3518C8.75 11.3507 8.75 11.3495 8.75 11.3483C8.75 11.3472 8.75 11.346 8.75 11.3448C8.75 11.3437 8.75 11.3425 8.75 11.3413C8.75 11.3402 8.75 11.339 8.75 11.3378C8.75 11.3366 8.75 11.3355 8.75 11.3343C8.75 11.3331 8.75 11.332 8.75 11.3308C8.75 11.3296 8.75 11.3284 8.75 11.3273C8.75 11.3261 8.75 11.3249 8.75 11.3237C8.75 11.3226 8.75 11.3214 8.75 11.3202C8.75 11.319 8.75 11.3178 8.75 11.3167C8.75 11.3155 8.75 11.3143 8.75 11.3131C8.75 11.3119 8.75 11.3107 8.75 11.3096C8.75 11.3084 8.75 11.3072 8.75 11.306C8.75 11.3048 8.75 11.3036 8.75 11.3024C8.75 11.3012 8.75 11.3001 8.75 11.2989C8.75 11.2977 8.75 11.2965 8.75 11.2953C8.75 11.2941 8.75 11.2929 8.75 11.2917C8.75 11.2905 8.75 11.2893 8.75 11.2881C8.75 11.2869 8.75 11.2857 8.75 11.2845C8.75 11.2834 8.75 11.2822 8.75 11.281C8.75 11.2798 8.75 11.2786 8.75 11.2774C8.75 11.2762 8.75 11.275 8.75 11.2738C8.75 11.2726 8.75 11.2714 8.75 11.2701C8.75 11.2689 8.75 11.2677 8.75 11.2665C8.75 11.2653 8.75 11.2641 8.75 11.2629C8.75 11.2617 8.75 11.2605 8.75 11.2593C8.75 11.2581 8.75 11.2569 8.75 11.2557C8.75 11.2545 8.75 11.2532 8.75 11.252C8.75 11.2508 8.75 11.2496 8.75 11.2484C8.75 11.2472 8.75 11.246 8.75 11.2448C8.75 11.2435 8.75 11.2423 8.75 11.2411C8.75 11.2399 8.75 11.2387 8.75 11.2375C8.75 11.2362 8.75 11.235 8.75 11.2338C8.75 11.2326 8.75 11.2314 8.75 11.2301C8.75 11.2289 8.75 11.2277 8.75 11.2265C8.75 11.2252 8.75 11.224 8.75 11.2228C8.75 11.2216 8.75 11.2203 8.75 11.2191C8.75 11.2179 8.75 11.2167 8.75 11.2154C8.75 11.2142 8.75 11.213 8.75 11.2117C8.75 11.2105 8.75 11.2093 8.75 11.208C8.75 11.2068 8.75 11.2056 8.75 11.2043C8.75 11.2031 8.75 11.2019 8.75 11.2006C8.75 11.1994 8.75 11.1982 8.75 11.1969C8.75 11.1957 8.75 11.1945 8.75 11.1932C8.75 11.192 8.75 11.1907 8.75 11.1895C8.75 11.1883 8.75 11.187 8.75 11.1858H7.25C7.25 11.187 7.25 11.1883 7.25 11.1895C7.25 11.1907 7.25 11.192 7.25 11.1932C7.25 11.1945 7.25 11.1957 7.25 11.1969C7.25 11.1982 7.25 11.1994 7.25 11.2006C7.25 11.2019 7.25 11.2031 7.25 11.2043C7.25 11.2056 7.25 11.2068 7.25 11.208C7.25 11.2093 7.25 11.2105 7.25 11.2117C7.25 11.213 7.25 11.2142 7.25 11.2154C7.25 11.2167 7.25 11.2179 7.25 11.2191C7.25 11.2203 7.25 11.2216 7.25 11.2228C7.25 11.224 7.25 11.2252 7.25 11.2265C7.25 11.2277 7.25 11.2289 7.25 11.2301C7.25 11.2314 7.25 11.2326 7.25 11.2338C7.25 11.235 7.25 11.2362 7.25 11.2375C7.25 11.2387 7.25 11.2399 7.25 11.2411C7.25 11.2423 7.25 11.2435 7.25 11.2448C7.25 11.246 7.25 11.2472 7.25 11.2484C7.25 11.2496 7.25 11.2508 7.25 11.252C7.25 11.2532 7.25 11.2545 7.25 11.2557C7.25 11.2569 7.25 11.2581 7.25 11.2593C7.25 11.2605 7.25 11.2617 7.25 11.2629C7.25 11.2641 7.25 11.2653 7.25 11.2665C7.25 11.2677 7.25 11.2689 7.25 11.2701C7.25 11.2714 7.25 11.2726 7.25 11.2738C7.25 11.275 7.25 11.2762 7.25 11.2774C7.25 11.2786 7.25 11.2798 7.25 11.281C7.25 11.2822 7.25 11.2834 7.25 11.2845C7.25 11.2857 7.25 11.2869 7.25 11.2881C7.25 11.2893 7.25 11.2905 7.25 11.2917C7.25 11.2929 7.25 11.2941 7.25 11.2953C7.25 11.2965 7.25 11.2977 7.25 11.2989C7.25 11.3001 7.25 11.3012 7.25 11.3024C7.25 11.3036 7.25 11.3048 7.25 11.306C7.25 11.3072 7.25 11.3084 7.25 11.3096C7.25 11.3107 7.25 11.3119 7.25 11.3131C7.25 11.3143 7.25 11.3155 7.25 11.3167C7.25 11.3178 7.25 11.319 7.25 11.3202C7.25 11.3214 7.25 11.3226 7.25 11.3237C7.25 11.3249 7.25 11.3261 7.25 11.3273C7.25 11.3284 7.25 11.3296 7.25 11.3308C7.25 11.332 7.25 11.3331 7.25 11.3343C7.25 11.3355 7.25 11.3366 7.25 11.3378C7.25 11.339 7.25 11.3402 7.25 11.3413C7.25 11.3425 7.25 11.3437 7.25 11.3448C7.25 11.346 7.25 11.3472 7.25 11.3483C7.25 11.3495 7.25 11.3507 7.25 11.3518C7.25 11.353 7.25 11.3542 7.25 11.3553C7.25 11.3565 7.25 11.3576 7.25 11.3588C7.25 11.36 7.25 11.3611 7.25 11.3623C7.25 11.3634 7.25 11.3646 7.25 11.3658C7.25 11.3669 7.25 11.3681 7.25 11.3692C7.25 11.3704 7.25 11.3715 7.25 11.3727C7.25 11.3738 7.25 11.375 7.25 11.3761C7.25 11.3773 7.25 11.3784 7.25 11.3796C7.25 11.3807 7.25 11.3819 7.25 11.383C7.25 11.3842 7.25 11.3853 7.25 11.3865C7.25 11.3876 7.25 11.3888 7.25 11.3899C7.25 11.3911 7.25 11.3922 7.25 11.3933C7.25 11.3945 7.25 11.3956 7.25 11.3968C7.25 11.3979 7.25 11.399 7.25 11.4002C7.25 11.4013 7.25 11.4025 7.25 11.4036C7.25 11.4047 7.25 11.4059 7.25 11.407C7.25 11.4081 7.25 11.4093 7.25 11.4104C7.25 11.4115 7.25 11.4127 7.25 11.4138C7.25 11.4149 7.25 11.4161 7.25 11.4172C7.25 11.4183 7.25 11.4195 7.25 11.4206C7.25 11.4217 7.25 11.4228 7.25 11.424C7.25 11.4251 7.25 11.4262 7.25 11.4273C7.25 11.4285 7.25 11.4296 7.25 11.4307C7.25 11.4318 7.25 11.433 7.25 11.4341C7.25 11.4352 7.25 11.4363 7.25 11.4374C7.25 11.4386 7.25 11.4397 7.25 11.4408C7.25 11.4419 7.25 11.443 7.25 11.4441C7.25 11.4453 7.25 11.4464 7.25 11.4475C7.25 11.4486 7.25 11.4497 7.25 11.4508C7.25 11.4519 7.25 11.453 7.25 11.4541C7.25 11.4553 7.25 11.4564 7.25 11.4575C7.25 11.4586 7.25 11.4597 7.25 11.4608C7.25 11.4619 7.25 11.463 7.25 11.4641C7.25 11.4652 7.25 11.4663 7.25 11.4674C7.25 11.4685 7.25 11.4696 7.25 11.4707C7.25 11.4718 7.25 11.4729 7.25 11.474C7.25 11.4751 7.25 11.4762 7.25 11.4773C7.25 11.4784 7.25 11.4795 7.25 11.4806C7.25 11.4817 7.25 11.4828 7.25 11.4839C7.25 11.485 7.25 11.4861 7.25 11.4872C7.25 11.4882 7.25 11.4893 7.25 11.4904C7.25 11.4915 7.25 11.4926 7.25 11.4937C7.25 11.4948 7.25 11.4959 7.25 11.4969C7.25 11.498 7.25 11.4991 7.25 11.5002C7.25 11.5013 7.25 11.5024 7.25 11.5034C7.25 11.5045 7.25 11.5056 7.25 11.5067C7.25 11.5078 7.25 11.5088 7.25 11.5099C7.25 11.511 7.25 11.5121 7.25 11.5131C7.25 11.5142 7.25 11.5153 7.25 11.5164C7.25 11.5174 7.25 11.5185 7.25 11.5196C7.25 11.5207 7.25 11.5217 7.25 11.5228C7.25 11.5239 7.25 11.5249 7.25 11.526C7.25 11.5271 7.25 11.5281 7.25 11.5292C7.25 11.5303 7.25 11.5313 7.25 11.5324C7.25 11.5335 7.25 11.5345 7.25 11.5356C7.25 11.5367 7.25 11.5377 7.25 11.5388C7.25 11.5398 7.25 11.5409 7.25 11.542C7.25 11.543 7.25 11.5441 7.25 11.5451C7.25 11.5462 7.25 11.5472 7.25 11.5483C7.25 11.5493 7.25 11.5504 7.25 11.5515C7.25 11.5525 7.25 11.5536 7.25 11.5546C7.25 11.5557 7.25 11.5567 7.25 11.5578C7.25 11.5588 7.25 11.5599 7.25 11.5609C7.25 11.5619 7.25 11.563 7.25 11.564C7.25 11.5651 7.25 11.5661 7.25 11.5672C7.25 11.5682 7.25 11.5693 7.25 11.5703C7.25 11.5713 7.25 11.5724 7.25 11.5734C7.25 11.5745 7.25 11.5755 7.25 11.5765C7.25 11.5776 7.25 11.5786 7.25 11.5796C7.25 11.5807 7.25 11.5817 7.25 11.5827C7.25 11.5838 7.25 11.5848 7.25 11.5858C7.25 11.5869 7.25 11.5879 7.25 11.5889C7.25 11.5899 7.25 11.591 7.25 11.592C7.25 11.593 7.25 11.5941 7.25 11.5951C7.25 11.5961 7.25 11.5971 7.25 11.5981C7.25 11.5992 7.25 11.6002 7.25 11.6012C7.25 11.6022 7.25 11.6033 7.25 11.6043C7.25 11.6053 7.25 11.6063 7.25 11.6073C7.25 11.6083 7.25 11.6094 7.25 11.6104C7.25 11.6114 7.25 11.6124 7.25 11.6134C7.25 11.6144 7.25 11.6154 7.25 11.6165C7.25 11.6175 7.25 11.6185 7.25 11.6195C7.25 11.6205 7.25 11.6215 7.25 11.6225C7.25 11.6235 7.25 11.6245 7.25 11.6255C7.25 11.6265 7.25 11.6275 7.25 11.6285C7.25 11.6295 7.25 11.6305 7.25 11.6315C7.25 11.6325 7.25 11.6335 7.25 11.6345C7.25 11.6355 7.25 11.6365 7.25 11.6375C7.25 11.6385 7.25 11.6395 7.25 11.6405C7.25 11.6415 7.25 11.6425 7.25 11.6435C7.25 11.6445 7.25 11.6455 7.25 11.6465C7.25 11.6475 7.25 11.6484 7.25 11.6494C7.25 11.6504 7.25 11.6514 7.25 11.6524C7.25 11.6534 7.25 11.6544 7.25 11.6554C7.25 11.6563 7.25 11.6573 7.25 11.6583C7.25 11.6593 7.25 11.6603 7.25 11.6612C7.25 11.6622 7.25 11.6632 7.25 11.6642C7.25 11.6652 7.25 11.6661 7.25 11.6671C7.25 11.6681 7.25 11.6691 7.25 11.67C7.25 11.671 7.25 11.672 7.25 11.673C7.25 11.6739 7.25 11.6749 7.25 11.6759C7.25 11.6768 7.25 11.6778 7.25 11.6788C7.25 11.6797 7.25 11.6807 7.25 11.6817C7.25 11.6826 7.25 11.6836 7.25 11.6846C7.25 11.6855 7.25 11.6865 7.25 11.6875C7.25 11.6884 7.25 11.6894 7.25 11.6903C7.25 11.6913 7.25 11.6923 7.25 11.6932C7.25 11.6942 7.25 11.6951 7.25 11.6961C7.25 11.697 7.25 11.698 7.25 11.6989C7.25 11.6999 7.25 11.7008 7.25 11.7018C7.25 11.7028 7.25 11.7037 7.25 11.7046C7.25 11.7056 7.25 11.7065 7.25 11.7075C7.25 11.7084 7.25 11.7094 7.25 11.7103C7.25 11.7113 7.25 11.7122 7.25 11.7132C7.25 11.7141 7.25 11.715 7.25 11.716C7.25 11.7169 7.25 11.7179 7.25 11.7188C7.25 11.7197 7.25 11.7207 7.25 11.7216C7.25 11.7225 7.25 11.7235 7.25 11.7244C7.25 11.7254 7.25 11.7263 7.25 11.7272C7.25 11.7281 7.25 11.7291 7.25 11.73C7.25 11.7309 7.25 11.7319 7.25 11.7328C7.25 11.7337 7.25 11.7346 7.25 11.7356C7.25 11.7365 7.25 11.7374 7.25 11.7383C7.25 11.7393 7.25 11.7402 7.25 11.7411C7.25 11.742 7.25 11.743 7.25 11.7439C7.25 11.7448 7.25 11.7457 7.25 11.7466C7.25 11.7475 7.25 11.7485 7.25 11.7494C7.25 11.7503 7.25 11.7512 7.25 11.7521C7.25 11.753 7.25 11.7539 7.25 11.7548C7.25 11.7558 7.25 11.7567 7.25 11.7576C7.25 11.7585 7.25 11.7594 7.25 11.7603C7.25 11.7612 7.25 11.7621 7.25 11.763C7.25 11.7639 7.25 11.7648 7.25 11.7657C7.25 11.7666 7.25 11.7675 7.25 11.7684C7.25 11.7693 7.25 11.7702 7.25 11.7711C7.25 11.772 7.25 11.7729 7.25 11.7738C7.25 11.7747 7.25 11.7756 7.25 11.7765C7.25 11.7774 7.25 11.7783 7.25 11.7792C7.25 11.7801 7.25 11.7809 7.25 11.7818C7.25 11.7827 7.25 11.7836 7.25 11.7845C7.25 11.7854 7.25 11.7863 7.25 11.7871C7.25 11.788 7.25 11.7889 7.25 11.7898C7.25 11.7907 7.25 11.7916 7.25 11.7924C7.25 11.7933 7.25 11.7942 7.25 11.7951C7.25 11.7959 7.25 11.7968 7.25 11.7977C7.25 11.7986 7.25 11.7994 7.25 11.8003C7.25 11.8012 7.25 11.8021 7.25 11.8029C7.25 11.8038 7.25 11.8047 7.25 11.8055C7.25 11.8064 7.25 11.8073 7.25 11.8081C7.25 11.809 7.25 11.8099 7.25 11.8107C7.25 11.8116 7.25 11.8125 7.25 11.8133C7.25 11.8142 7.25 11.8151 7.25 11.8159C7.25 11.8168 7.25 11.8176 7.25 11.8185C7.25 11.8193 7.25 11.8202 7.25 11.8211C7.25 11.8219 7.25 11.8228 7.25 11.8236C7.25 11.8245 7.25 11.8253 7.25 11.8262C7.25 11.827 7.25 11.8279 7.25 11.8287C7.25 11.8296 7.25 11.8304 7.25 11.8313C7.25 11.8321 7.25 11.833 7.25 11.8338C7.25 11.8346 7.25 11.8355 7.25 11.8363C7.25 11.8372 7.25 11.838 7.25 11.8388C7.25 11.8397 7.25 11.8405 7.25 11.8414C7.25 11.8422 7.25 11.843 7.25 11.8439C7.25 11.8447 7.25 11.8455 7.25 11.8464C7.25 11.8472 7.25 11.848 7.25 11.8489C7.25 11.8497 7.25 11.8505 7.25 11.8514C7.25 11.8522 7.25 11.853 7.25 11.8538C7.25 11.8547 7.25 11.8555 7.25 11.8563C7.25 11.8571 7.25 11.858 7.25 11.8588C7.25 11.8596 7.25 11.8604 7.25 11.8612C7.25 11.862 7.25 11.8629 7.25 11.8637C7.25 11.8645 7.25 11.8653 7.25 11.8661C7.25 11.8669 7.25 11.8678 7.25 11.8686C7.25 11.8694 7.25 11.8702 7.25 11.871C7.25 11.8718 7.25 11.8726 7.25 11.8734C7.25 11.8742 7.25 11.875 7.25 11.8758C7.25 11.8766 7.25 11.8775 7.25 11.8783C7.25 11.8791 7.25 11.8799 7.25 11.8807C7.25 11.8815 7.25 11.8823 7.25 11.8831C7.25 11.8839 7.25 11.8846 7.25 11.8854C7.25 11.8862 7.25 11.887 7.25 11.8878C7.25 11.8886 7.25 11.8894 7.25 11.8902C7.25 11.891 7.25 11.8918 7.25 11.8926C7.25 11.8934 7.25 11.8941 7.25 11.8949C7.25 11.8957 7.25 11.8965 7.25 11.8973C7.25 11.8981 7.25 11.8989 7.25 11.8996C7.25 11.9004 7.25 11.9012 7.25 11.902C7.25 11.9028 7.25 11.9035 7.25 11.9043C7.25 11.9051 7.25 11.9059 7.25 11.9066C7.25 11.9074 7.25 11.9082 7.25 11.909C7.25 11.9097 7.25 11.9105 7.25 11.9113C7.25 11.912 7.25 11.9128 7.25 11.9136C7.25 11.9143 7.25 11.9151 7.25 11.9159C7.25 11.9166 7.25 11.9174 7.25 11.9182C7.25 11.9189 7.25 11.9197 7.25 11.9205C7.25 11.9212 7.25 11.922 7.25 11.9227C7.25 11.9235 7.25 11.9242 7.25 11.925C7.25 11.9258 7.25 11.9265 7.25 11.9273C7.25 11.928 7.25 11.9288 7.25 11.9295C7.25 11.9303 7.25 11.931 7.25 11.9318C7.25 11.9325 7.25 11.9333 7.25 11.934C7.25 11.9348 7.25 11.9355 7.25 11.9362C7.25 11.937 7.25 11.9377 7.25 11.9385C7.25 11.9392 7.25 11.9399 7.25 11.9407C7.25 11.9414 7.25 11.9422 7.25 11.9429C7.25 11.9436 7.25 11.9444 7.25 11.9451C7.25 11.9458 7.25 11.9466 7.25 11.9473C7.25 11.948 7.25 11.9488 7.25 11.9495C7.25 11.9502 7.25 11.951 7.25 11.9517C7.25 11.9524 7.25 11.9531 7.25 11.9539C7.25 11.9546 7.25 11.9553 7.25 11.956C7.25 11.9567 7.25 11.9575 7.25 11.9582C7.25 11.9589 7.25 11.9596 7.25 11.9603C7.25 11.9611 7.25 11.9618 7.25 11.9625C7.25 11.9632 7.25 11.9639 7.25 11.9646C7.25 11.9653 7.25 11.966 7.25 11.9668C7.25 11.9675 7.25 11.9682 7.25 11.9689C7.25 11.9696 7.25 11.9703 7.25 11.971C7.25 11.9717 7.25 11.9724 7.25 11.9731C7.25 11.9738 7.25 11.9745 7.25 11.9752C7.25 11.9759 7.25 11.9766 7.25 11.9773C7.25 11.978 7.25 11.9787 7.25 11.9794C7.25 11.9801 7.25 11.9808 7.25 11.9815C7.25 11.9822 7.25 11.9829 7.25 11.9836C7.25 11.9842 7.25 11.9849 7.25 11.9856C7.25 11.9863 7.25 11.987 7.25 11.9877C7.25 11.9884 7.25 11.989 7.25 11.9897C7.25 11.9904 7.25 11.9911 7.25 11.9918C7.25 11.9925 7.25 11.9931 7.25 11.9938C7.25 11.9945 7.25 11.9952 7.25 11.9958C7.25 11.9965 7.25 11.9972 7.25 11.9979C7.25 11.9985 7.25 11.9992 7.25 11.9999C7.25 12.0005 7.25 12.0012 7.25 12.0019C7.25 12.0025 7.25 12.0032 7.25 12.0039C7.25 12.0045 7.25 12.0052 7.25 12.0059C7.25 12.0065 7.25 12.0072 7.25 12.0079C7.25 12.0085 7.25 12.0092 7.25 12.0098C7.25 12.0105 7.25 12.0111 7.25 12.0118C7.25 12.0125 7.25 12.0131 7.25 12.0138C7.25 12.0144 7.25 12.0151 7.25 12.0157C7.25 12.0164 7.25 12.017 7.25 12.0177C7.25 12.0183 7.25 12.019 7.25 12.0196C7.25 12.0202 7.25 12.0209 7.25 12.0215C7.25 12.0222 7.25 12.0228 7.25 12.0235C7.25 12.0241 7.25 12.0247 7.25 12.0254C7.25 12.026 7.25 12.0266 7.25 12.0273C7.25 12.0279 7.25 12.0285 7.25 12.0292C7.25 12.0298 7.25 12.0304 7.25 12.0311C7.25 12.0317 7.25 12.0323 7.25 12.033C7.25 12.0336 7.25 12.0342 7.25 12.0348C7.25 12.0355 7.25 12.0361 7.25 12.0367C7.25 12.0373 7.25 12.0379 7.25 12.0386C7.25 12.0392 7.25 12.0398 7.25 12.0404C7.25 12.041 7.25 12.0417 7.25 12.0423C7.25 12.0429 7.25 12.0435 7.25 12.0441C7.25 12.0447 7.25 12.0453 7.25 12.0459C7.25 12.0466 7.25 12.0472 7.25 12.0478C7.25 12.0484 7.25 12.049 7.25 12.0496C7.25 12.0502 7.25 12.0508 7.25 12.0514C7.25 12.052 7.25 12.0526 7.25 12.0532C7.25 12.0538 7.25 12.0544 7.25 12.055C7.25 12.0556 7.25 12.0562 7.25 12.0568C7.25 12.0574 7.25 12.058 7.25 12.0585C7.25 12.0591 7.25 12.0597 7.25 12.0603C7.25 12.0609 7.25 12.0615 7.25 12.0621C7.25 12.0627 7.25 12.0633 7.25 12.0638C7.25 12.0644 7.25 12.065 7.25 12.0656C7.25 12.0662 7.25 12.0667 7.25 12.0673C7.25 12.0679 7.25 12.0685 7.25 12.0691C7.25 12.0696 7.25 12.0702 7.25 12.0708C7.25 12.0713 7.25 12.0719 7.25 12.0725C7.25 12.0731 7.25 12.0736 7.25 12.0742C7.25 12.0748 7.25 12.0753 7.25 12.0759C7.25 12.0765 7.25 12.077 7.25 12.0776C7.25 12.0782 7.25 12.0787 7.25 12.0793C7.25 12.0798 7.25 12.0804 7.25 12.0809C7.25 12.0815 7.25 12.0821 7.25 12.0826C7.25 12.0832 7.25 12.0837 7.25 12.0843C7.25 12.0848 7.25 12.0854 7.25 12.0859C7.25 12.0865 7.25 12.087 7.25 12.0876C7.25 12.0881 7.25 12.0887 7.25 12.0892C7.25 12.0898 7.25 12.0903 7.25 12.0908C7.25 12.0914 7.25 12.0919 7.25 12.0925C7.25 12.093 7.25 12.0935 7.25 12.0941C7.25 12.0946 7.25 12.0951 7.25 12.0957C7.25 12.0962 7.25 12.0967 7.25 12.0973C7.25 12.0978 7.25 12.0983 7.25 12.0989C7.25 12.0994 7.25 12.0999 7.25 12.1004C7.25 12.101 7.25 12.1015 7.25 12.102C7.25 12.1025 7.25 12.1031 7.25 12.1036C7.25 12.1041 7.25 12.1046 7.25 12.1051C7.25 12.1056 7.25 12.1062 7.25 12.1067C7.25 12.1072 7.25 12.1077 7.25 12.1082C7.25 12.1087 7.25 12.1092 7.25 12.1098C7.25 12.1103 7.25 12.1108 7.25 12.1113C7.25 12.1118 7.25 12.1123 7.25 12.1128C7.25 12.1133 7.25 12.1138 7.25 12.1143C7.25 12.1148 7.25 12.1153 7.25 12.1158C7.25 12.1163 7.25 12.1168 7.25 12.1173C7.25 12.1178 7.25 12.1183 7.25 12.1188C7.25 12.1193 7.25 12.1198 7.25 12.1203C7.25 12.1207 7.25 12.1212 7.25 12.1217C7.25 12.1222 7.25 12.1227 7.25 12.1232C7.25 12.1237 7.25 12.1241 7.25 12.1246C7.25 12.1251 7.25 12.1256 7.25 12.1261C7.25 12.1266 7.25 12.127 7.25 12.1275C7.25 12.128 7.25 12.1285 7.25 12.1289C7.25 12.1294 7.25 12.1299 7.25 12.1304C7.25 12.1308 7.25 12.1313 7.25 12.1318C7.25 12.1322 7.25 12.1327 7.25 12.1332C7.25 12.1336 7.25 12.1341 7.25 12.1346C7.25 12.135 7.25 12.1355 7.25 12.1359C7.25 12.1364 7.25 12.1369 7.25 12.1373C7.25 12.1378 7.25 12.1382 7.25 12.1387C7.25 12.1391 7.25 12.1396 7.25 12.14C7.25 12.1405 7.25 12.141 7.25 12.1414C7.25 12.1419 7.25 12.1423 7.25 12.1427C7.25 12.1432 7.25 12.1436 7.25 12.1441C7.25 12.1445 7.25 12.145 7.25 12.1454C7.25 12.1459 7.25 12.1463 7.25 12.1467C7.25 12.1472 7.25 12.1476 7.25 12.148C7.25 12.1485 7.25 12.1489 7.25 12.1493C7.25 12.1498 7.25 12.1502 7.25 12.1506C7.25 12.1511 7.25 12.1515 7.25 12.1519C7.25 12.1523 7.25 12.1528 7.25 12.1532C7.25 12.1536 7.25 12.154 7.25 12.1545C7.25 12.1549 7.25 12.1553 7.25 12.1557C7.25 12.1561 7.25 12.1566 7.25 12.157C7.25 12.1574 7.25 12.1578 7.25 12.1582C7.25 12.1586 7.25 12.1591 7.25 12.1595C7.25 12.1599 7.25 12.1603 7.25 12.1607C7.25 12.1611 7.25 12.1615 7.25 12.1619C7.25 12.1623 7.25 12.1627 7.25 12.1631C7.25 12.1635 7.25 12.1639 7.25 12.1643C7.25 12.1647 7.25 12.1651 7.25 12.1655C7.25 12.1659 7.25 12.1663 7.25 12.1667C7.25 12.1671 7.25 12.1675 7.25 12.1679C7.25 12.1683 7.25 12.1687 7.25 12.169C7.25 12.1694 7.25 12.1698 7.25 12.1702C7.25 12.1706 7.25 12.171 7.25 12.1714C7.25 12.1717 7.25 12.1721 7.25 12.1725C7.25 12.1729 7.25 12.1733 7.25 12.1736C7.25 12.174 7.25 12.1744 7.25 12.1748C7.25 12.1751 7.25 12.1755 7.25 12.1759C7.25 12.1762 7.25 12.1766 7.25 12.177C7.25 12.1774 7.25 12.1777 7.25 12.1781C7.25 12.1784 7.25 12.1788 7.25 12.1792C7.25 12.1795 7.25 12.1799 7.25 12.1803C7.25 12.1806 7.25 12.181 7.25 12.1813C7.25 12.1817 7.25 12.182 7.25 12.1824C7.25 12.1828 7.25 12.1831 7.25 12.1835C7.25 12.1838 7.25 12.1842 7.25 12.1845C7.25 12.1849 7.25 12.1852 7.25 12.1855C7.25 12.1859 7.25 12.1862 7.25 12.1866C7.25 12.1869 7.25 12.1873 7.25 12.1876C7.25 12.1879 7.25 12.1883 7.25 12.1886C7.25 12.1889 7.25 12.1893 7.25 12.1896C7.25 12.1899 7.25 12.1903 7.25 12.1906C7.25 12.1909 7.25 12.1913 7.25 12.1916C7.25 12.1919 7.25 12.1923 7.25 12.1926C7.25 12.1929 7.25 12.1932 7.25 12.1936C7.25 12.1939 7.25 12.1942 7.25 12.1945C7.25 12.1948 7.25 12.1951 7.25 12.1955C7.25 12.1958 7.25 12.1961 7.25 12.1964C7.25 12.1967 7.25 12.197 7.25 12.1973C7.25 12.1977 7.25 12.198 7.25 12.1983C7.25 12.1986 7.25 12.1989 7.25 12.1992C7.25 12.1995 7.25 12.1998 7.25 12.2001C7.25 12.2004 7.25 12.2007 7.25 12.201C7.25 12.2013 7.25 12.2016 7.25 12.2019C7.25 12.2022 7.25 12.2025 7.25 12.2028C7.25 12.2031 7.25 12.2034 7.25 12.2036C7.25 12.2039 7.25 12.2042 7.25 12.2045C7.25 12.2048 7.25 12.2051 7.25 12.2054C7.25 12.2057 7.25 12.2059 7.25 12.2062C7.25 12.2065 7.25 12.2068 7.25 12.2071C7.25 12.2073 7.25 12.2076 7.25 12.2079C7.25 12.2082 7.25 12.2084 7.25 12.2087C7.25 12.209 7.25 12.2093 7.25 12.2095C7.25 12.2098 7.25 12.2101 7.25 12.2103C7.25 12.2106 7.25 12.2109 7.25 12.2111C7.25 12.2114 7.25 12.2116 7.25 12.2119C7.25 12.2122 7.25 12.2124 7.25 12.2127C7.25 12.2129 7.25 12.2132 7.25 12.2135C7.25 12.2137 7.25 12.214 7.25 12.2142C7.25 12.2145 7.25 12.2147 7.25 12.215C7.25 12.2152 7.25 12.2155 7.25 12.2157C7.25 12.2159 7.25 12.2162 7.25 12.2164C7.25 12.2167 7.25 12.2169 7.25 12.2172C7.25 12.2174 7.25 12.2176 7.25 12.2179C7.25 12.2181 7.25 12.2183 7.25 12.2186C7.25 12.2188 7.25 12.219 7.25 12.2193C7.25 12.2195 7.25 12.2197 7.25 12.22C7.25 12.2202 7.25 12.2204 7.25 12.2206C7.25 12.2209 7.25 12.2211 7.25 12.2213C7.25 12.2215 7.25 12.2217 7.25 12.222C7.25 12.2222 7.25 12.2224 7.25 12.2226C7.25 12.2228 7.25 12.223 7.25 12.2233C7.25 12.2235 7.25 12.2237 7.25 12.2239C7.25 12.2241 7.25 12.2243 7.25 12.2245C7.25 12.2247 7.25 12.2249 7.25 12.2251C7.25 12.2253 7.25 12.2255 7.25 12.2257C7.25 12.2259 7.25 12.2261 7.25 12.2263C7.25 12.2265 7.25 12.2267 7.25 12.2269C7.25 12.2271 7.25 12.2273 7.25 12.2275C7.25 12.2277 7.25 12.2279 7.25 12.2281C7.25 12.2283 7.25 12.2284 7.25 12.2286C7.25 12.2288 7.25 12.229 7.25 12.2292C7.25 12.2294 7.25 12.2295 7.25 12.2297C7.25 12.2299 7.25 12.2301 7.25 12.2303C7.25 12.2304 7.25 12.2306 7.25 12.2308C7.25 12.231 7.25 12.2311 7.25 12.2313C7.25 12.2315 7.25 12.2316 7.25 12.2318C7.25 12.232 7.25 12.2321 7.25 12.2323C7.25 12.2325 7.25 12.2326 7.25 12.2328C7.25 12.2329 7.25 12.2331 7.25 12.2333C7.25 12.2334 7.25 12.2336 7.25 12.2337C7.25 12.2339 7.25 12.234 7.25 12.2342C7.25 12.2343 7.25 12.2345 7.25 12.2346C7.25 12.2348 7.25 12.2349 7.25 12.2351C7.25 12.2352 7.25 12.2354 7.25 12.2355C7.25 12.2357 7.25 12.2358 7.25 12.2359C7.25 12.2361 7.25 12.2362 7.25 12.2363C7.25 12.2365 7.25 12.2366 7.25 12.2368C7.25 12.2369 7.25 12.237 7.25 12.2371C7.25 12.2373 7.25 12.2374 7.25 12.2375C7.25 12.2377 7.25 12.2378 7.25 12.2379C7.25 12.238 7.25 12.2382 7.25 12.2383C7.25 12.2384 7.25 12.2385 7.25 12.2386C7.25 12.2387 7.25 12.2389 7.25 12.239C7.25 12.2391 7.25 12.2392 7.25 12.2393C7.25 12.2394 7.25 12.2395 7.25 12.2396C7.25 12.2398 7.25 12.2399 7.25 12.24C7.25 12.2401 7.25 12.2402 7.25 12.2403C7.25 12.2404 7.25 12.2405 7.25 12.2406C7.25 12.2407 7.25 12.2408 7.25 12.2409C7.25 12.241 7.25 12.2411 7.25 12.2411C7.25 12.2412 7.25 12.2413 7.25 12.2414C7.25 12.2415 7.25 12.2416 7.25 12.2417C7.25 12.2418 7.25 12.2419 7.25 12.2419C7.25 12.242 7.25 12.2421 7.25 12.2422C7.25 12.2423 7.25 12.2423 7.25 12.2424C7.25 12.2425 7.25 12.2426 7.25 12.2426C7.25 12.2427 7.25 12.2428 7.25 12.2429C7.25 12.2429 7.25 12.243 7.25 12.2431C7.25 12.2431 7.25 12.2432 7.25 12.2433C7.25 12.2433 7.25 12.2434 7.25 12.2434C7.25 12.2435 7.25 12.2436 7.25 12.2436C7.25 12.2437 7.25 12.2437 7.25 12.2438C7.25 12.2438 7.25 12.2439 7.25 12.244C7.25 12.244 7.25 12.2441 7.25 12.2441C7.25 12.2442 7.25 12.2442 7.25 12.2442C7.25 12.2443 7.25 12.2443 7.25 12.2444C7.25 12.2444 7.25 12.2445 7.25 12.2445C7.25 12.2445 7.25 12.2446 7.25 12.2446C7.25 12.2446 7.25 12.2447 7.25 12.2447C7.25 12.2447 7.25 12.2448 7.25 12.2448C7.25 12.2448 7.25 12.2449 7.25 12.2449C7.25 12.2449 7.25 12.2449 7.25 12.245C7.25 12.245 7.25 12.245 7.25 12.245C7.25 12.245 7.25 12.2451 7.25 12.2451C7.25 12.2451 7.25 12.2451 7.25 12.2451C7.25 12.2451 7.25 12.2451 7.25 12.2451C7.25 12.2452 7.25 12.2452 7.25 12.2452C7.25 12.2452 7.25 12.2452 7.25 12.2452C7.25 12.2452 7.25 12.2452 8 12.2452ZM8.75 11.1858C8.75 10.6625 8.53947 10.1551 8.11662 9.78813C7.69938 9.42598 7.13515 9.25 6.5 9.25V10.75C6.86485 10.75 7.05062 10.8491 7.13338 10.9209C7.21053 10.9879 7.25 11.0734 7.25 11.1858H8.75ZM6.5 9.25H5V10.75H6.5V9.25ZM4.25 13.5V16H5.75V13.5H4.25ZM4.25 10V13.5H5.75V10H4.25ZM6.31045 13.7268L7.30107 16.272L8.69893 15.7279L7.70831 13.1828L6.31045 13.7268ZM11.25 10V16H12.75V10H11.25ZM10 10.75H12V9.25H10V10.75ZM12 10.75H14V9.25H12V10.75ZM15.25 10V13H16.75V10H15.25ZM15.25 13V16H16.75V13H15.25ZM16 10.75H19V9.25H16V10.75ZM16 13.75H18.5V12.25H16V13.75Z" fill="black"/>
</svg>
