<svg width="24" height="24" viewBox="0 0 24 24" fill="none" xmlns="http://www.w3.org/2000/svg">
<path d="M19 20V20.75H19.75V20H19ZM5 20H4.25V20.75H5V20ZM5 4V3.25H4.25V4H5ZM16 4L16.5303 3.46967L16.3107 3.25H16V4ZM19 7L19.75 7V6.68934L19.5303 6.46967L19 7ZM7.73236 10.7605C8.14657 10.7605 8.48236 10.4247 8.48236 10.0105C8.48236 9.59624 8.14657 9.26045 7.73236 9.26045V10.7605ZM6.49091 10.0105L6.43721 9.26238L6.49091 10.0105ZM5.30253 12.3664L5.87467 11.8814H5.87467L5.30253 12.3664ZM7.35674 13.364L6.94883 13.9933H6.94883L7.35674 13.364ZM6.49091 16V15.25H6.49091L6.49091 16ZM9.27239 15.8181C9.17193 16.2199 9.41625 16.6271 9.8181 16.7276C10.2199 16.8281 10.6271 16.5837 10.7276 16.1819L9.27239 15.8181ZM11.5 10V9.25C11.1558 9.25 10.8559 9.48422 10.7724 9.8181L11.5 10ZM12.5 10L13.2276 9.8181C13.1441 9.48422 12.8442 9.25 12.5 9.25V10ZM13.2724 16.1819C13.3729 16.5837 13.7801 16.8281 14.1819 16.7276C14.5837 16.6271 14.8281 16.2199 14.7276 15.8181L13.2724 16.1819ZM15.7115 9.76283C15.5805 9.36987 15.1558 9.1575 14.7628 9.28849C14.3699 9.41947 14.1575 9.84421 14.2885 10.2372L15.7115 9.76283ZM17 16L16.2885 16.2372C16.3906 16.5434 16.6772 16.75 17 16.75C17.3228 16.75 17.6094 16.5434 17.7115 16.2372L17 16ZM19.7115 10.2372C19.8425 9.84421 19.6301 9.41947 19.2372 9.28849C18.8442 9.1575 18.4195 9.36987 18.2885 9.76283L19.7115 10.2372ZM19 19.25H5V20.75H19V19.25ZM5 4.75H16V3.25H5V4.75ZM15.4697 4.53033L18.4697 7.53033L19.5303 6.46967L16.5303 3.46967L15.4697 4.53033ZM5.75 8V4H4.25V8H5.75ZM5.75 20V18H4.25V20H5.75ZM18.25 7L18.25 8L19.75 8L19.75 7L18.25 7ZM18.25 18V20H19.75V18H18.25ZM7.73236 9.26045C7.02862 9.26045 6.8092 9.25458 6.72808 9.25201C6.70151 9.25117 6.6468 9.24836 6.58548 9.25154C6.55661 9.25303 6.49325 9.25836 6.43721 9.26238L6.54461 10.7585C6.58816 10.7554 6.61822 10.753 6.63915 10.7514C6.66383 10.7495 6.66486 10.7494 6.66311 10.7495C6.64436 10.7505 6.61443 10.7492 6.68052 10.7513C6.78471 10.7546 7.02218 10.7605 7.73236 10.7605V9.26045ZM6.43721 9.26238C5.3544 9.34011 4.64609 9.94467 4.37367 10.7309C4.12534 11.4477 4.25546 12.291 4.73038 12.8513L5.87467 11.8814C5.77348 11.7621 5.70002 11.4846 5.79102 11.222C5.85793 11.0289 6.03187 10.7953 6.54461 10.7585L6.43721 9.26238ZM4.73038 12.8513C5.16134 13.3598 5.6299 13.5219 6.01683 13.6313C6.38327 13.735 6.63042 13.787 6.94883 13.9933L7.76464 12.7346C7.21723 12.3798 6.72532 12.2729 6.42514 12.188C6.14545 12.1088 6.01982 12.0527 5.87467 11.8814L4.73038 12.8513ZM6.94883 13.9933C7.18004 14.1432 7.30219 14.4619 7.22974 14.766C7.19651 14.9055 7.12599 15.0184 7.02657 15.0973C6.93074 15.1733 6.76739 15.25 6.49091 15.25V16.75C7.69123 16.75 8.47256 16.0217 8.68889 15.1137C8.8895 14.2717 8.59438 13.2724 7.76464 12.7346L6.94883 13.9933ZM6.49091 15.25L5.17214 15.25L5.17214 16.75L6.49091 16.75L6.49091 15.25ZM10.7276 16.1819L11.2276 14.1819L9.77239 13.8181L9.27239 15.8181L10.7276 16.1819ZM11.2276 14.1819L12.2276 10.1819L10.7724 9.8181L9.77239 13.8181L11.2276 14.1819ZM11.5 10.75H12.5V9.25H11.5V10.75ZM11.7724 10.1819L12.7724 14.1819L14.2276 13.8181L13.2276 9.8181L11.7724 10.1819ZM12.7724 14.1819L13.2724 16.1819L14.7276 15.8181L14.2276 13.8181L12.7724 14.1819ZM10.5 14.75H13.5V13.25H10.5V14.75ZM14.2885 10.2372L16.2885 16.2372L17.7115 15.7628L15.7115 9.76283L14.2885 10.2372ZM17.7115 16.2372L19.7115 10.2372L18.2885 9.76283L16.2885 15.7628L17.7115 16.2372Z" fill="black"/>
</svg>
