<svg width="24" height="24" viewBox="0 0 24 24" fill="none" xmlns="http://www.w3.org/2000/svg">
<path d="M12.1022 12.4605C12.0042 12.1342 11.9065 11.7262 11.8246 11.4003H11.8085C11.7273 11.7262 11.6453 12.1426 11.5553 12.4605L11.2295 13.6262H12.4451L12.1022 12.4605Z" fill="black"/>
<path d="M19.7352 9.15373H19.255V6.83648C19.255 6.82192 19.2527 6.80747 19.2507 6.79273C19.25 6.70083 19.2207 6.61041 19.1577 6.53881L15.3016 2.13413C15.3005 2.13301 15.2993 2.1325 15.2985 2.13137C15.2756 2.1057 15.2488 2.08435 15.2204 2.06587C15.212 2.06024 15.2036 2.05552 15.1948 2.05054C15.1703 2.03725 15.1442 2.02603 15.1174 2.01801C15.1101 2.01609 15.1036 2.01311 15.0963 2.01118C15.0672 2.00432 15.037 2 15.0063 2H5.52952C5.09677 2 4.74521 2.35196 4.74521 2.78435V9.15373H4.26507C3.64619 9.15373 3.14401 9.65547 3.14401 10.2747V16.1043C3.14401 16.7229 3.64619 17.2252 4.26507 17.2252H4.74521V21.2157C4.74521 21.648 5.09677 22 5.52952 22H18.4706C18.903 22 19.255 21.648 19.255 21.2157V17.2252H19.7352C20.3545 17.2252 20.8561 16.7229 20.8561 16.1043V10.2747C20.8561 9.65547 20.3544 9.15373 19.7352 9.15373ZM5.52952 2.78435H14.6142V6.79705C14.6142 7.01383 14.79 7.18921 15.0064 7.18921H18.4706V9.15391H5.52952V2.78435ZM12.6817 10.4704L14.3861 15.9671H13.0486L12.6247 14.5559H11.0507L10.6589 15.9671H9.37024L11.0507 10.4704H12.6817ZM5.15497 15.7144L5.40773 14.6867C5.74168 14.8579 6.25562 15.029 6.78601 15.029C7.35652 15.029 7.6583 14.7926 7.6583 14.4337C7.6583 14.0915 7.39748 13.8957 6.73699 13.659C5.82363 13.3413 5.22774 12.8356 5.22774 12.0363C5.22774 11.0982 6.01089 10.3804 7.30801 10.3804C7.92755 10.3804 8.38365 10.5113 8.7107 10.6579L8.43306 11.6608C8.21288 11.5549 7.82148 11.3999 7.28303 11.3999C6.74509 11.3999 6.48387 11.6441 6.48387 11.93C6.48387 12.2807 6.79371 12.4358 7.50362 12.7046C8.47406 13.0635 8.93092 13.5695 8.93092 14.3439C8.93092 15.2656 8.2213 16.0483 6.71252 16.0483C6.08442 16.0483 5.46477 15.8856 5.15497 15.7144ZM18.4706 21.0031H5.52952V17.2252H18.4706V21.0031ZM17.3861 15.9671H15.9347L14.1736 10.4704H15.5354L16.2039 12.7946C16.3915 13.4468 16.5627 14.0751 16.6929 14.76H16.7175C16.8565 14.0994 17.0277 13.4468 17.2153 12.8192L17.9165 10.4704H19.2381L17.3861 15.9671Z" fill="black"/>
</svg>
