<svg width="24" height="24" viewBox="0 0 24 24" fill="none" xmlns="http://www.w3.org/2000/svg">
<path d="M11.5245 11.2015C11.2422 11.2015 11.0592 11.2264 10.9505 11.2513V14.9167C11.0592 14.9416 11.233 14.9416 11.3913 14.9416C12.5386 14.95 13.2867 14.3179 13.2867 12.98C13.2948 11.8163 12.6135 11.2015 11.5245 11.2015Z" fill="black"/>
<path d="M19.7352 9.15373H19.2549V6.83648C19.2549 6.82192 19.2526 6.80747 19.2507 6.79273C19.25 6.70072 19.2207 6.61034 19.1577 6.53881L15.3016 2.13413C15.3004 2.1329 15.2993 2.1325 15.2985 2.13137C15.2755 2.1057 15.2487 2.08424 15.2204 2.06587C15.212 2.06013 15.2036 2.05545 15.1948 2.05054C15.1702 2.03725 15.1442 2.02603 15.1174 2.01801C15.1101 2.01609 15.1036 2.01311 15.0963 2.01111C15.0672 2.00432 15.037 2 15.0063 2H5.52949C5.09674 2 4.74518 2.35196 4.74518 2.78435V9.15373H4.26505C3.64599 9.15373 3.14403 9.65547 3.14403 10.2746V16.104C3.14403 16.7229 3.64599 17.2252 4.26505 17.2252H4.74522V21.2157C4.74522 21.648 5.09678 22 5.52953 22H18.4707C18.903 22 19.255 21.648 19.255 21.2157V17.2252H19.7352C20.3541 17.2252 20.8562 16.7231 20.8562 16.1043V10.2749C20.8561 9.65547 20.3541 9.15373 19.7352 9.15373ZM5.52949 2.78435H14.6142V6.79705C14.6142 7.01372 14.79 7.18921 15.0063 7.18921H18.4706V9.15391H5.52949V2.78435ZM14.6329 12.9379C14.6329 14.0103 14.2427 14.7501 13.7023 15.2073C13.1122 15.6971 12.2145 15.9301 11.1171 15.9301C10.4609 15.9301 9.99506 15.8888 9.6797 15.8474V10.3455C10.1446 10.2704 10.7519 10.2286 11.3915 10.2286C12.4553 10.2286 13.1452 10.4202 13.6855 10.8273C14.2672 11.2595 14.6329 11.9491 14.6329 12.9379ZM4.9742 15.6148L5.23193 14.5672C5.57285 14.742 6.09656 14.9164 6.63635 14.9164C7.21816 14.9164 7.5256 14.6754 7.5256 14.3096C7.5256 13.9605 7.25974 13.7608 6.58639 13.5201C5.65578 13.1958 5.049 12.6807 5.049 11.8657C5.049 10.9098 5.847 10.179 7.16823 10.179C7.80051 10.179 8.26543 10.3119 8.59775 10.4612L8.3158 11.4837C8.09111 11.3757 7.69216 11.2176 7.14343 11.2176C6.59521 11.2176 6.32935 11.4668 6.32935 11.7579C6.32935 12.1153 6.645 12.273 7.36841 12.5476C8.35704 12.9133 8.82291 13.4284 8.82291 14.2181C8.82291 15.1568 8.09978 15.9552 6.56228 15.9552C5.92187 15.9555 5.28999 15.789 4.9742 15.6148ZM18.4707 21.0031H5.52949V17.2252H18.4706L18.4707 21.0031ZM18.8896 11.3094H16.737V12.5892H18.7487V13.6197H16.737V15.8719H15.4655V10.2704H18.8896V11.3094Z" fill="black"/>
</svg>
