<svg width="24" height="24" viewBox="0 0 24 24" fill="none" xmlns="http://www.w3.org/2000/svg">
<path d="M19.7349 9.15401H19.2546V6.83648C19.2546 6.82204 19.2523 6.80748 19.2504 6.79286C19.2496 6.70082 19.2203 6.61047 19.1573 6.53887L15.3011 2.13413C15.2999 2.133 15.2988 2.13259 15.2978 2.13146C15.275 2.10567 15.248 2.08433 15.2198 2.06599C15.2114 2.06026 15.203 2.05555 15.1942 2.05063C15.1697 2.03728 15.1436 2.02615 15.1167 2.01809C15.1094 2.01609 15.103 2.0132 15.0958 2.01123C15.0669 2.0043 15.0362 2 15.0058 2H5.5291C5.09637 2 4.74481 2.35204 4.74481 2.78433V9.15379H4.26455C3.64561 9.15379 3.14365 9.65557 3.14365 10.2747V16.1042C3.14365 16.7231 3.64561 17.2252 4.26455 17.2252H4.74481V21.2157C4.74481 21.6481 5.09637 22 5.5291 22H18.4703C18.9026 22 19.2546 21.6481 19.2546 21.2157V17.2254H19.7348C20.3537 17.2254 20.8557 16.7231 20.8557 16.1042V10.2749C20.8558 9.65557 20.3537 9.15401 19.7349 9.15401ZM5.5291 2.78433H14.6139V6.79712C14.6139 7.01376 14.7896 7.18925 15.006 7.18925H18.4703V9.15394H5.5291V2.78433ZM10.6335 11.4756V10.4289H14.869V11.4756H13.3646V15.9403H12.1134V11.4756H10.6335ZM9.97084 10.4291V15.9403H8.71986V10.4291H9.97084ZM4.09106 15.6868L4.34458 14.6567C4.67969 14.8282 5.19493 14.9998 5.72633 14.9998C6.29866 14.9998 6.60123 14.7627 6.60123 14.4031C6.60123 14.0596 6.33966 13.8631 5.67731 13.6261C4.76144 13.3075 4.1646 12.8002 4.1646 11.9987C4.1646 11.0589 4.94948 10.3389 6.24967 10.3389C6.87113 10.3389 7.32913 10.4698 7.656 10.6169L7.37816 11.6226C7.1574 11.5165 6.76501 11.361 6.22515 11.361C5.6854 11.361 5.42379 11.6065 5.42379 11.8926C5.42379 12.2438 5.73439 12.3996 6.44595 12.6693C7.41894 13.0289 7.87698 13.5364 7.87698 14.3127C7.87698 15.2368 7.16564 16.0219 5.65283 16.0219C5.0232 16.0219 4.40167 15.8584 4.09106 15.6868ZM18.4703 21.0031H5.5291V17.2254H18.4703V21.0031H18.4703ZM18.5817 15.9403L18.0831 14.9427C17.8786 14.5586 17.7476 14.2725 17.5925 13.9531H17.5761C17.4615 14.2725 17.3225 14.5586 17.151 14.9427L16.6929 15.9403H15.2702L16.8645 13.1523L15.3272 10.4288H16.7584L17.2405 11.4345C17.4045 11.7696 17.527 12.0396 17.6576 12.3506H17.6741C17.805 11.9986 17.9111 11.7535 18.0502 11.4345L18.5162 10.4288H19.9392L18.3856 13.1188L20.0209 15.9403H18.5817Z" fill="black"/>
</svg>
