<svg width="24" height="24" viewBox="0 0 24 24" fill="none" xmlns="http://www.w3.org/2000/svg">
<path d="M19 20V20.75H19.75V20H19ZM5 20H4.25V20.75H5V20ZM5 4V3.25H4.25V4H5ZM16 4L16.5303 3.46967L16.3107 3.25H16V4ZM19 7L19.75 7V6.68934L19.5303 6.46967L19 7ZM6.73236 10.7605C7.14657 10.7605 7.48236 10.4247 7.48236 10.0105C7.48236 9.59624 7.14657 9.26045 6.73236 9.26045V10.7605ZM5.49091 10.0105L5.43721 9.26238L5.49091 10.0105ZM4.30253 12.3664L4.87467 11.8814H4.87467L4.30253 12.3664ZM6.35674 13.364L5.94883 13.9933H5.94883L6.35674 13.364ZM5.49091 16V15.25H5.49091L5.49091 16ZM4.17214 15.25C3.75792 15.25 3.42214 15.5858 3.42214 16C3.42214 16.4142 3.75792 16.75 4.17214 16.75L4.17214 15.25ZM9.75 10C9.75 9.58579 9.41421 9.25 9 9.25C8.58579 9.25 8.25 9.58579 8.25 10H9.75ZM8.25 16C8.25 16.4142 8.58579 16.75 9 16.75C9.41421 16.75 9.75 16.4142 9.75 16H8.25ZM12.25 16C12.25 16.4142 12.5858 16.75 13 16.75C13.4142 16.75 13.75 16.4142 13.75 16H12.25ZM11 9.25C10.5858 9.25 10.25 9.58579 10.25 10C10.25 10.4142 10.5858 10.75 11 10.75V9.25ZM15 10.75C15.4142 10.75 15.75 10.4142 15.75 10C15.75 9.58579 15.4142 9.25 15 9.25V10.75ZM17.6708 9.66459C17.4856 9.29411 17.0351 9.14394 16.6646 9.32918C16.2941 9.51442 16.1439 9.96493 16.3292 10.3354L17.6708 9.66459ZM19.3292 16.3354C19.5144 16.7059 19.9649 16.8561 20.3354 16.6708C20.7059 16.4856 20.8561 16.0351 20.6708 15.6646L19.3292 16.3354ZM20.6708 10.3354C20.8561 9.96493 20.7059 9.51442 20.3354 9.32918C19.9649 9.14394 19.5144 9.29411 19.3292 9.66459L20.6708 10.3354ZM16.3292 15.6646C16.1439 16.0351 16.2941 16.4856 16.6646 16.6708C17.0351 16.8561 17.4856 16.7059 17.6708 16.3354L16.3292 15.6646ZM19 19.25H5V20.75H19V19.25ZM5 4.75H16V3.25H5V4.75ZM15.4697 4.53033L18.4697 7.53033L19.5303 6.46967L16.5303 3.46967L15.4697 4.53033ZM5.75 8V4H4.25V8H5.75ZM5.75 20V18H4.25V20H5.75ZM18.25 7L18.25 8L19.75 8L19.75 7L18.25 7ZM18.25 18V20H19.75V18H18.25ZM6.73236 9.26045C6.02862 9.26045 5.8092 9.25458 5.72808 9.25201C5.70151 9.25117 5.6468 9.24836 5.58548 9.25154C5.55661 9.25303 5.49325 9.25836 5.43721 9.26238L5.54461 10.7585C5.58816 10.7554 5.61822 10.753 5.63915 10.7514C5.66383 10.7495 5.66486 10.7494 5.66311 10.7495C5.64436 10.7505 5.61443 10.7492 5.68052 10.7513C5.78471 10.7546 6.02218 10.7605 6.73236 10.7605V9.26045ZM5.43721 9.26238C4.3544 9.34011 3.64609 9.94467 3.37367 10.7309C3.12534 11.4477 3.25546 12.291 3.73038 12.8513L4.87467 11.8814C4.77348 11.7621 4.70002 11.4846 4.79102 11.222C4.85793 11.0289 5.03187 10.7953 5.54461 10.7585L5.43721 9.26238ZM3.73038 12.8513C4.16134 13.3598 4.6299 13.5219 5.01683 13.6313C5.38327 13.735 5.63042 13.787 5.94883 13.9933L6.76464 12.7346C6.21723 12.3798 5.72532 12.2729 5.42514 12.188C5.14545 12.1088 5.01982 12.0527 4.87467 11.8814L3.73038 12.8513ZM5.94883 13.9933C6.18004 14.1432 6.30219 14.4619 6.22974 14.766C6.19651 14.9055 6.12599 15.0184 6.02657 15.0973C5.93074 15.1733 5.76739 15.25 5.49091 15.25V16.75C6.69123 16.75 7.47256 16.0217 7.68889 15.1137C7.8895 14.2717 7.59438 13.2724 6.76464 12.7346L5.94883 13.9933ZM5.49091 15.25L4.17214 15.25L4.17214 16.75L5.49091 16.75L5.49091 15.25ZM8.25 10V16H9.75V10H8.25ZM12.25 10V16H13.75V10H12.25ZM11 10.75H13V9.25H11V10.75ZM13 10.75H15V9.25H13V10.75ZM16.3292 10.3354L17.8292 13.3354L19.1708 12.6646L17.6708 9.66459L16.3292 10.3354ZM17.8292 13.3354L19.3292 16.3354L20.6708 15.6646L19.1708 12.6646L17.8292 13.3354ZM19.3292 9.66459L17.8292 12.6646L19.1708 13.3354L20.6708 10.3354L19.3292 9.66459ZM17.8292 12.6646L16.3292 15.6646L17.6708 16.3354L19.1708 13.3354L17.8292 12.6646Z" fill="black"/>
</svg>
