<svg xmlns="http://www.w3.org/2000/svg" width="20" height="20" fill="none" viewBox="0 0 20 20">
  <path fill="#A0A0A0" d="M17.735 7.154h-.48V4.836c0-.014-.003-.029-.005-.043a.385.385 0 00-.093-.254L13.301.134l-.003-.003a.376.376 0 00-.104-.08.404.404 0 00-.077-.033l-.021-.007a.39.39 0 00-.09-.011H3.529a.785.785 0 00-.784.784v6.37h-.48c-.62 0-1.121.502-1.121 1.12v5.83c0 .62.502 1.121 1.12 1.121h.48v3.99c0 .433.352.785.785.785H16.47a.785.785 0 00.785-.784v-3.99h.48c.619 0 1.12-.503 1.12-1.122V8.275c0-.62-.501-1.121-1.12-1.121zM3.529.784h9.085v4.013c0 .217.175.392.392.392h3.464v1.965H3.53V.784zm5.104 8.692V8.429h4.236v1.047h-1.505v4.464h-1.25V9.476h-1.48zm-.662-1.047v5.511H6.72V8.43h1.25zm-5.88 5.258l.253-1.03c.336.171.85.343 1.382.343.573 0 .875-.237.875-.597 0-.343-.261-.54-.924-.777-.916-.319-1.512-.826-1.512-1.627 0-.94.784-1.66 2.085-1.66.621 0 1.079.13 1.406.278l-.278 1.006a2.622 2.622 0 00-1.153-.262c-.54 0-.801.245-.801.532 0 .35.31.507 1.022.776.973.36 1.43.867 1.43 1.644 0 .924-.71 1.709-2.223 1.709-.63 0-1.251-.164-1.562-.335zm14.38 5.316H3.528v-3.778H16.47v3.778zm.11-5.063l-.498-.997c-.204-.384-.335-.67-.49-.99h-.017c-.115.32-.254.606-.425.99l-.458.997H13.27l1.594-2.788-1.537-2.723h1.431l.482 1.006c.164.335.287.605.418.916h.016c.131-.352.237-.597.376-.916l.466-1.006h1.423l-1.553 2.69 1.635 2.821h-1.44z"/>
</svg>
