<svg width="24" height="24" viewBox="0 0 24 24" fill="none" xmlns="http://www.w3.org/2000/svg">
<path d="M19 20V20.75H19.75V20H19ZM5 20H4.25V20.75H5V20ZM5 4V3.25H4.25V4H5ZM16 4L16.5303 3.46967L16.3107 3.25H16V4ZM19 7L19.75 7V6.68934L19.5303 6.46967L19 7ZM7.73236 10.7605C8.14657 10.7605 8.48236 10.4247 8.48236 10.0105C8.48236 9.59624 8.14657 9.26045 7.73236 9.26045V10.7605ZM6.49091 10.0105L6.43721 9.26238L6.49091 10.0105ZM5.30253 12.3664L5.87467 11.8814H5.87467L5.30253 12.3664ZM7.35674 13.364L6.94883 13.9933H6.94883L7.35674 13.364ZM6.49091 16V15.25H6.49091L6.49091 16ZM5.17214 15.25C4.75792 15.25 4.42214 15.5858 4.42214 16C4.42214 16.4142 4.75792 16.75 5.17214 16.75L5.17214 15.25ZM14.4949 14.5204C14.23 14.202 13.7572 14.1585 13.4387 14.4234C13.1202 14.6882 13.0768 15.1611 13.3417 15.4796L14.4949 14.5204ZM14.1734 16.4796C14.4382 16.798 14.9111 16.8415 15.2296 16.5766C15.548 16.3118 15.5915 15.8389 15.3266 15.5204L14.1734 16.4796ZM17.75 10C17.75 9.58579 17.4142 9.25 17 9.25C16.5858 9.25 16.25 9.58579 16.25 10H17.75ZM17 16H16.25V16.75H17V16ZM20 16.75C20.4142 16.75 20.75 16.4142 20.75 16C20.75 15.5858 20.4142 15.25 20 15.25V16.75ZM19 19.25H5V20.75H19V19.25ZM5 4.75H16V3.25H5V4.75ZM15.4697 4.53033L18.4697 7.53033L19.5303 6.46967L16.5303 3.46967L15.4697 4.53033ZM5.75 8V4H4.25V8H5.75ZM5.75 20V18H4.25V20H5.75ZM18.25 7L18.25 8L19.75 8L19.75 7L18.25 7ZM18.25 18V20H19.75V18H18.25ZM7.73236 9.26045C7.02862 9.26045 6.8092 9.25458 6.72808 9.25201C6.70151 9.25117 6.6468 9.24836 6.58548 9.25154C6.55661 9.25303 6.49325 9.25836 6.43721 9.26238L6.54461 10.7585C6.58816 10.7554 6.61822 10.753 6.63915 10.7514C6.66383 10.7495 6.66486 10.7494 6.66311 10.7495C6.64436 10.7505 6.61443 10.7492 6.68052 10.7513C6.78471 10.7546 7.02218 10.7605 7.73236 10.7605V9.26045ZM6.43721 9.26238C5.3544 9.34011 4.64609 9.94467 4.37367 10.7309C4.12534 11.4477 4.25546 12.291 4.73038 12.8513L5.87467 11.8814C5.77348 11.7621 5.70002 11.4846 5.79102 11.222C5.85793 11.0289 6.03187 10.7953 6.54461 10.7585L6.43721 9.26238ZM4.73038 12.8513C5.16134 13.3598 5.6299 13.5219 6.01683 13.6313C6.38327 13.735 6.63042 13.787 6.94883 13.9933L7.76464 12.7346C7.21723 12.3798 6.72532 12.2729 6.42514 12.188C6.14545 12.1088 6.01982 12.0527 5.87467 11.8814L4.73038 12.8513ZM6.94883 13.9933C7.18004 14.1432 7.30219 14.4619 7.22974 14.766C7.19651 14.9055 7.12599 15.0184 7.02657 15.0973C6.93074 15.1733 6.76739 15.25 6.49091 15.25V16.75C7.69123 16.75 8.47256 16.0217 8.68889 15.1137C8.8895 14.2717 8.59438 13.2724 7.76464 12.7346L6.94883 13.9933ZM6.49091 15.25L5.17214 15.25L5.17214 16.75L6.49091 16.75L6.49091 15.25ZM13.5 12.312V13.688H15V12.312H13.5ZM11 13.688V12.312H9.5V13.688H11ZM12.25 15.25C11.5969 15.25 11 14.6771 11 13.688H9.5C9.5 15.2526 10.5364 16.75 12.25 16.75V15.25ZM13.5 13.688C13.5 14.6771 12.9031 15.25 12.25 15.25V16.75C13.9636 16.75 15 15.2526 15 13.688H13.5ZM12.25 10.75C12.9031 10.75 13.5 11.3229 13.5 12.312H15C15 10.7474 13.9636 9.25 12.25 9.25V10.75ZM12.25 9.25C10.5364 9.25 9.5 10.7474 9.5 12.312H11C11 11.3229 11.5969 10.75 12.25 10.75V9.25ZM13.3417 15.4796L14.1734 16.4796L15.3266 15.5204L14.4949 14.5204L13.3417 15.4796ZM16.25 10V16H17.75V10H16.25ZM17 16.75H20V15.25H17V16.75Z" fill="black"/>
</svg>
