<svg width="24" height="24" viewBox="0 0 24 24" fill="none" xmlns="http://www.w3.org/2000/svg">
<path d="M12.0685 10.9084C11.1721 10.9084 10.6554 11.787 10.6554 12.8732C10.6466 13.9758 11.1809 14.8204 12.0597 14.8204C12.9469 14.8204 13.4645 13.9843 13.4645 12.8473C13.4645 11.787 12.9644 10.9084 12.0685 10.9084Z" fill="black"/>
<path d="M19.7348 9.15372H19.2546V6.83648C19.2546 6.82193 19.2523 6.80748 19.2504 6.79271C19.2496 6.70079 19.2203 6.61044 19.1573 6.53883L15.3012 2.13413C15.3001 2.133 15.2989 2.13252 15.2981 2.13139C15.2752 2.10571 15.2484 2.08433 15.22 2.06588C15.2116 2.06026 15.2032 2.05555 15.1943 2.05059C15.1698 2.03728 15.1438 2.02608 15.117 2.01802C15.1097 2.01612 15.1032 2.01313 15.096 2.01123C15.0668 2.0043 15.0365 2 15.006 2H5.52907C5.09631 2 4.74478 2.35197 4.74478 2.78433V9.15368H4.26463C3.64573 9.15368 3.14359 9.65546 3.14359 10.2747V16.1042C3.14359 16.7229 3.64573 17.2252 4.26463 17.2252H4.74478V21.2157C4.74478 21.6481 5.09631 22 5.52907 22H18.4703C18.9026 22 19.2546 21.6481 19.2546 21.2157V17.2252H19.7348C20.354 17.2252 20.8557 16.7229 20.8557 16.1042V10.2748C20.8557 9.6555 20.354 9.15372 19.7348 9.15372ZM5.52907 2.78433H14.6138V6.79701C14.6138 7.0138 14.7895 7.18918 15.0059 7.18918H18.4703V9.15387H5.52907V2.78433ZM14.8772 15.7504L14.4981 16.7675C13.6713 16.526 12.9819 16.2758 12.2063 15.9488C12.0777 15.897 11.9394 15.871 11.8017 15.8626C10.4918 15.7768 9.26836 14.8114 9.26836 12.9161C9.26836 11.1757 10.3713 9.86575 12.103 9.86575C13.8785 9.86575 14.8516 11.2101 14.8516 12.7955C14.8516 14.1138 14.24 15.0438 13.4733 15.3887V15.4231C13.9214 15.5522 14.4208 15.6558 14.8772 15.7504ZM4.65928 15.5007L4.92658 14.415C5.28004 14.5959 5.82224 14.7767 6.38263 14.7767C6.98541 14.7767 7.30444 14.5272 7.30444 14.1483C7.30444 13.7861 7.02868 13.5793 6.33083 13.3296C5.36576 12.9934 4.73694 12.4594 4.73694 11.6147C4.73694 10.6239 5.56423 9.86571 6.93398 9.86571C7.58889 9.86571 8.07148 10.004 8.41579 10.1586L8.1232 11.2187C7.89066 11.1065 7.47716 10.9428 6.90852 10.9428C6.33952 10.9428 6.0636 11.201 6.0636 11.5029C6.0636 11.8732 6.39106 12.0372 7.14088 12.3217C8.16617 12.7009 8.64855 13.2345 8.64855 14.0531C8.64855 15.027 7.89869 15.8538 6.30479 15.8538C5.64167 15.8534 4.9871 15.6811 4.65928 15.5007ZM18.4703 21.0031H5.52907V17.2252H18.4703V21.0031ZM19.3403 15.7674H15.7125V9.96041H17.0315V14.6648H19.3403V15.7674Z" fill="black"/>
</svg>
