<svg width="24" height="24" viewBox="0 0 24 24" fill="none" xmlns="http://www.w3.org/2000/svg">
<path d="M19 20V20.75H19.75V20H19ZM5 20H4.25V20.75H5V20ZM5 4V3.25H4.25V4H5ZM16 4L16.5303 3.46967L16.3107 3.25H16V4ZM19 7L19.75 7V6.68934L19.5303 6.46967L19 7ZM7.73236 10.7605C8.14657 10.7605 8.48236 10.4247 8.48236 10.0105C8.48236 9.59624 8.14657 9.26045 7.73236 9.26045V10.7605ZM6.49091 10.0105L6.43721 9.26238L6.49091 10.0105ZM5.30253 12.3664L5.87467 11.8814H5.87467L5.30253 12.3664ZM7.35674 13.364L6.94883 13.9933H6.94883L7.35674 13.364ZM6.49091 16V15.25H6.49091L6.49091 16ZM5.17214 15.25C4.75792 15.25 4.42214 15.5858 4.42214 16C4.42214 16.4142 4.75792 16.75 5.17214 16.75L5.17214 15.25ZM11.6922 13.5L11.7405 12.7516L11.7164 12.75H11.6922V13.5ZM10.1922 10V9.25C9.77798 9.25 9.44219 9.58579 9.44219 10H10.1922ZM9.44219 16C9.44219 16.4142 9.77798 16.75 10.1922 16.75C10.6064 16.75 10.9422 16.4142 10.9422 16H9.44219ZM12.9005 13.1828C12.7503 12.7968 12.3155 12.6056 11.9295 12.7559C11.5435 12.9061 11.3524 13.3408 11.5026 13.7268L12.9005 13.1828ZM12.4933 16.272C12.6435 16.658 13.0782 16.8491 13.4642 16.6989C13.8502 16.5487 14.0414 16.1139 13.8911 15.7279L12.4933 16.272ZM16.25 16C16.25 16.4142 16.5858 16.75 17 16.75C17.4142 16.75 17.75 16.4142 17.75 16H16.25ZM15 9.25C14.5858 9.25 14.25 9.58579 14.25 10C14.25 10.4142 14.5858 10.75 15 10.75V9.25ZM19 10.75C19.4142 10.75 19.75 10.4142 19.75 10C19.75 9.58579 19.4142 9.25 19 9.25V10.75ZM19 19.25H5V20.75H19V19.25ZM5 4.75H16V3.25H5V4.75ZM15.4697 4.53033L18.4697 7.53033L19.5303 6.46967L16.5303 3.46967L15.4697 4.53033ZM5.75 8V4H4.25V8H5.75ZM5.75 20V18H4.25V20H5.75ZM18.25 7L18.25 8L19.75 8L19.75 7L18.25 7ZM18.25 18V20H19.75V18H18.25ZM7.73236 9.26045C7.02862 9.26045 6.8092 9.25458 6.72808 9.25201C6.70151 9.25117 6.6468 9.24836 6.58548 9.25154C6.55661 9.25303 6.49325 9.25836 6.43721 9.26238L6.54461 10.7585C6.58816 10.7554 6.61822 10.753 6.63915 10.7514C6.66383 10.7495 6.66486 10.7494 6.66311 10.7495C6.64436 10.7505 6.61443 10.7492 6.68052 10.7513C6.78471 10.7546 7.02218 10.7605 7.73236 10.7605V9.26045ZM6.43721 9.26238C5.3544 9.34011 4.64609 9.94467 4.37367 10.7309C4.12534 11.4477 4.25546 12.291 4.73038 12.8513L5.87467 11.8814C5.77348 11.7621 5.70002 11.4846 5.79102 11.222C5.85793 11.0289 6.03187 10.7953 6.54461 10.7585L6.43721 9.26238ZM4.73038 12.8513C5.16134 13.3598 5.6299 13.5219 6.01683 13.6313C6.38327 13.735 6.63042 13.787 6.94883 13.9933L7.76464 12.7346C7.21723 12.3798 6.72532 12.2729 6.42514 12.188C6.14545 12.1088 6.01982 12.0527 5.87467 11.8814L4.73038 12.8513ZM6.94883 13.9933C7.18004 14.1432 7.30219 14.4619 7.22974 14.766C7.19651 14.9055 7.12599 15.0184 7.02657 15.0973C6.93074 15.1733 6.76739 15.25 6.49091 15.25V16.75C7.69123 16.75 8.47256 16.0217 8.68889 15.1137C8.8895 14.2717 8.59438 13.2724 7.76464 12.7346L6.94883 13.9933ZM6.49091 15.25L5.17214 15.25L5.17214 16.75L6.49091 16.75L6.49091 15.25ZM10.1922 14.25H11.6922V12.75H10.1922V14.25ZM11.6922 13.5C11.6439 14.2484 11.6442 14.2485 11.6445 14.2485C11.6447 14.2485 11.645 14.2485 11.6453 14.2485C11.6457 14.2486 11.6463 14.2486 11.6468 14.2486C11.6479 14.2487 11.649 14.2488 11.6503 14.2488C11.6528 14.249 11.6557 14.2491 11.659 14.2493C11.6656 14.2496 11.6737 14.25 11.6832 14.2503C11.7021 14.251 11.7268 14.2515 11.7565 14.2515C11.8156 14.2515 11.8958 14.2494 11.9906 14.2413C12.1756 14.2254 12.438 14.185 12.7123 14.0791C12.9878 13.9728 13.3034 13.7891 13.5501 13.4716C13.8038 13.145 13.9422 12.7311 13.9422 12.2452H12.4422C12.4422 12.4351 12.3931 12.5159 12.3656 12.5513C12.331 12.5958 12.2715 12.6414 12.1721 12.6798C12.0714 12.7187 11.9587 12.7385 11.8626 12.7467C11.8167 12.7507 11.7797 12.7515 11.7568 12.7515C11.7455 12.7515 11.7379 12.7513 11.7349 12.7512C11.7334 12.7512 11.7331 12.7511 11.734 12.7512C11.7344 12.7512 11.7352 12.7512 11.7363 12.7513C11.7368 12.7513 11.7374 12.7514 11.7381 12.7514C11.7385 12.7514 11.7389 12.7515 11.7393 12.7515C11.7395 12.7515 11.7398 12.7515 11.7399 12.7515C11.7402 12.7515 11.7405 12.7516 11.6922 13.5ZM13.1922 12.2452C13.9422 12.2452 13.9422 12.2452 13.9422 12.2452C13.9422 12.2452 13.9422 12.2452 13.9422 12.2452C13.9422 12.2452 13.9422 12.2452 13.9422 12.2451C13.9422 12.2451 13.9422 12.2451 13.9422 12.2451C13.9422 12.2451 13.9422 12.2451 13.9422 12.2451C13.9422 12.2451 13.9422 12.245 13.9422 12.245C13.9422 12.245 13.9422 12.245 13.9422 12.245C13.9422 12.2449 13.9422 12.2449 13.9422 12.2449C13.9422 12.2449 13.9422 12.2448 13.9422 12.2448C13.9422 12.2448 13.9422 12.2447 13.9422 12.2447C13.9422 12.2447 13.9422 12.2446 13.9422 12.2446C13.9422 12.2446 13.9422 12.2445 13.9422 12.2445C13.9422 12.2445 13.9422 12.2444 13.9422 12.2444C13.9422 12.2443 13.9422 12.2443 13.9422 12.2442C13.9422 12.2442 13.9422 12.2442 13.9422 12.2441C13.9422 12.2441 13.9422 12.244 13.9422 12.244C13.9422 12.2439 13.9422 12.2438 13.9422 12.2438C13.9422 12.2437 13.9422 12.2437 13.9422 12.2436C13.9422 12.2436 13.9422 12.2435 13.9422 12.2434C13.9422 12.2434 13.9422 12.2433 13.9422 12.2433C13.9422 12.2432 13.9422 12.2431 13.9422 12.2431C13.9422 12.243 13.9422 12.2429 13.9422 12.2429C13.9422 12.2428 13.9422 12.2427 13.9422 12.2426C13.9422 12.2426 13.9422 12.2425 13.9422 12.2424C13.9422 12.2423 13.9422 12.2423 13.9422 12.2422C13.9422 12.2421 13.9422 12.242 13.9422 12.2419C13.9422 12.2419 13.9422 12.2418 13.9422 12.2417C13.9422 12.2416 13.9422 12.2415 13.9422 12.2414C13.9422 12.2413 13.9422 12.2412 13.9422 12.2411C13.9422 12.2411 13.9422 12.241 13.9422 12.2409C13.9422 12.2408 13.9422 12.2407 13.9422 12.2406C13.9422 12.2405 13.9422 12.2404 13.9422 12.2403C13.9422 12.2402 13.9422 12.2401 13.9422 12.24C13.9422 12.2399 13.9422 12.2398 13.9422 12.2396C13.9422 12.2395 13.9422 12.2394 13.9422 12.2393C13.9422 12.2392 13.9422 12.2391 13.9422 12.239C13.9422 12.2389 13.9422 12.2387 13.9422 12.2386C13.9422 12.2385 13.9422 12.2384 13.9422 12.2383C13.9422 12.2382 13.9422 12.238 13.9422 12.2379C13.9422 12.2378 13.9422 12.2377 13.9422 12.2375C13.9422 12.2374 13.9422 12.2373 13.9422 12.2371C13.9422 12.237 13.9422 12.2369 13.9422 12.2368C13.9422 12.2366 13.9422 12.2365 13.9422 12.2363C13.9422 12.2362 13.9422 12.2361 13.9422 12.2359C13.9422 12.2358 13.9422 12.2357 13.9422 12.2355C13.9422 12.2354 13.9422 12.2352 13.9422 12.2351C13.9422 12.2349 13.9422 12.2348 13.9422 12.2346C13.9422 12.2345 13.9422 12.2343 13.9422 12.2342C13.9422 12.234 13.9422 12.2339 13.9422 12.2337C13.9422 12.2336 13.9422 12.2334 13.9422 12.2333C13.9422 12.2331 13.9422 12.2329 13.9422 12.2328C13.9422 12.2326 13.9422 12.2325 13.9422 12.2323C13.9422 12.2321 13.9422 12.232 13.9422 12.2318C13.9422 12.2316 13.9422 12.2315 13.9422 12.2313C13.9422 12.2311 13.9422 12.231 13.9422 12.2308C13.9422 12.2306 13.9422 12.2304 13.9422 12.2303C13.9422 12.2301 13.9422 12.2299 13.9422 12.2297C13.9422 12.2295 13.9422 12.2294 13.9422 12.2292C13.9422 12.229 13.9422 12.2288 13.9422 12.2286C13.9422 12.2284 13.9422 12.2283 13.9422 12.2281C13.9422 12.2279 13.9422 12.2277 13.9422 12.2275C13.9422 12.2273 13.9422 12.2271 13.9422 12.2269C13.9422 12.2267 13.9422 12.2265 13.9422 12.2263C13.9422 12.2261 13.9422 12.2259 13.9422 12.2257C13.9422 12.2255 13.9422 12.2253 13.9422 12.2251C13.9422 12.2249 13.9422 12.2247 13.9422 12.2245C13.9422 12.2243 13.9422 12.2241 13.9422 12.2239C13.9422 12.2237 13.9422 12.2235 13.9422 12.2233C13.9422 12.223 13.9422 12.2228 13.9422 12.2226C13.9422 12.2224 13.9422 12.2222 13.9422 12.222C13.9422 12.2217 13.9422 12.2215 13.9422 12.2213C13.9422 12.2211 13.9422 12.2209 13.9422 12.2206C13.9422 12.2204 13.9422 12.2202 13.9422 12.22C13.9422 12.2197 13.9422 12.2195 13.9422 12.2193C13.9422 12.219 13.9422 12.2188 13.9422 12.2186C13.9422 12.2183 13.9422 12.2181 13.9422 12.2179C13.9422 12.2176 13.9422 12.2174 13.9422 12.2172C13.9422 12.2169 13.9422 12.2167 13.9422 12.2164C13.9422 12.2162 13.9422 12.2159 13.9422 12.2157C13.9422 12.2155 13.9422 12.2152 13.9422 12.215C13.9422 12.2147 13.9422 12.2145 13.9422 12.2142C13.9422 12.214 13.9422 12.2137 13.9422 12.2135C13.9422 12.2132 13.9422 12.2129 13.9422 12.2127C13.9422 12.2124 13.9422 12.2122 13.9422 12.2119C13.9422 12.2116 13.9422 12.2114 13.9422 12.2111C13.9422 12.2109 13.9422 12.2106 13.9422 12.2103C13.9422 12.2101 13.9422 12.2098 13.9422 12.2095C13.9422 12.2093 13.9422 12.209 13.9422 12.2087C13.9422 12.2084 13.9422 12.2082 13.9422 12.2079C13.9422 12.2076 13.9422 12.2073 13.9422 12.2071C13.9422 12.2068 13.9422 12.2065 13.9422 12.2062C13.9422 12.2059 13.9422 12.2057 13.9422 12.2054C13.9422 12.2051 13.9422 12.2048 13.9422 12.2045C13.9422 12.2042 13.9422 12.2039 13.9422 12.2036C13.9422 12.2034 13.9422 12.2031 13.9422 12.2028C13.9422 12.2025 13.9422 12.2022 13.9422 12.2019C13.9422 12.2016 13.9422 12.2013 13.9422 12.201C13.9422 12.2007 13.9422 12.2004 13.9422 12.2001C13.9422 12.1998 13.9422 12.1995 13.9422 12.1992C13.9422 12.1989 13.9422 12.1986 13.9422 12.1983C13.9422 12.198 13.9422 12.1977 13.9422 12.1973C13.9422 12.197 13.9422 12.1967 13.9422 12.1964C13.9422 12.1961 13.9422 12.1958 13.9422 12.1955C13.9422 12.1951 13.9422 12.1948 13.9422 12.1945C13.9422 12.1942 13.9422 12.1939 13.9422 12.1936C13.9422 12.1932 13.9422 12.1929 13.9422 12.1926C13.9422 12.1923 13.9422 12.1919 13.9422 12.1916C13.9422 12.1913 13.9422 12.1909 13.9422 12.1906C13.9422 12.1903 13.9422 12.1899 13.9422 12.1896C13.9422 12.1893 13.9422 12.1889 13.9422 12.1886C13.9422 12.1883 13.9422 12.1879 13.9422 12.1876C13.9422 12.1873 13.9422 12.1869 13.9422 12.1866C13.9422 12.1862 13.9422 12.1859 13.9422 12.1855C13.9422 12.1852 13.9422 12.1849 13.9422 12.1845C13.9422 12.1842 13.9422 12.1838 13.9422 12.1835C13.9422 12.1831 13.9422 12.1828 13.9422 12.1824C13.9422 12.182 13.9422 12.1817 13.9422 12.1813C13.9422 12.181 13.9422 12.1806 13.9422 12.1803C13.9422 12.1799 13.9422 12.1795 13.9422 12.1792C13.9422 12.1788 13.9422 12.1784 13.9422 12.1781C13.9422 12.1777 13.9422 12.1774 13.9422 12.177C13.9422 12.1766 13.9422 12.1762 13.9422 12.1759C13.9422 12.1755 13.9422 12.1751 13.9422 12.1748C13.9422 12.1744 13.9422 12.174 13.9422 12.1736C13.9422 12.1733 13.9422 12.1729 13.9422 12.1725C13.9422 12.1721 13.9422 12.1717 13.9422 12.1714C13.9422 12.171 13.9422 12.1706 13.9422 12.1702C13.9422 12.1698 13.9422 12.1694 13.9422 12.169C13.9422 12.1687 13.9422 12.1683 13.9422 12.1679C13.9422 12.1675 13.9422 12.1671 13.9422 12.1667C13.9422 12.1663 13.9422 12.1659 13.9422 12.1655C13.9422 12.1651 13.9422 12.1647 13.9422 12.1643C13.9422 12.1639 13.9422 12.1635 13.9422 12.1631C13.9422 12.1627 13.9422 12.1623 13.9422 12.1619C13.9422 12.1615 13.9422 12.1611 13.9422 12.1607C13.9422 12.1603 13.9422 12.1599 13.9422 12.1595C13.9422 12.1591 13.9422 12.1586 13.9422 12.1582C13.9422 12.1578 13.9422 12.1574 13.9422 12.157C13.9422 12.1566 13.9422 12.1561 13.9422 12.1557C13.9422 12.1553 13.9422 12.1549 13.9422 12.1545C13.9422 12.154 13.9422 12.1536 13.9422 12.1532C13.9422 12.1528 13.9422 12.1523 13.9422 12.1519C13.9422 12.1515 13.9422 12.1511 13.9422 12.1506C13.9422 12.1502 13.9422 12.1498 13.9422 12.1493C13.9422 12.1489 13.9422 12.1485 13.9422 12.148C13.9422 12.1476 13.9422 12.1472 13.9422 12.1467C13.9422 12.1463 13.9422 12.1459 13.9422 12.1454C13.9422 12.145 13.9422 12.1445 13.9422 12.1441C13.9422 12.1436 13.9422 12.1432 13.9422 12.1427C13.9422 12.1423 13.9422 12.1419 13.9422 12.1414C13.9422 12.141 13.9422 12.1405 13.9422 12.14C13.9422 12.1396 13.9422 12.1391 13.9422 12.1387C13.9422 12.1382 13.9422 12.1378 13.9422 12.1373C13.9422 12.1369 13.9422 12.1364 13.9422 12.1359C13.9422 12.1355 13.9422 12.135 13.9422 12.1346C13.9422 12.1341 13.9422 12.1336 13.9422 12.1332C13.9422 12.1327 13.9422 12.1322 13.9422 12.1318C13.9422 12.1313 13.9422 12.1308 13.9422 12.1304C13.9422 12.1299 13.9422 12.1294 13.9422 12.1289C13.9422 12.1285 13.9422 12.128 13.9422 12.1275C13.9422 12.127 13.9422 12.1266 13.9422 12.1261C13.9422 12.1256 13.9422 12.1251 13.9422 12.1246C13.9422 12.1241 13.9422 12.1237 13.9422 12.1232C13.9422 12.1227 13.9422 12.1222 13.9422 12.1217C13.9422 12.1212 13.9422 12.1207 13.9422 12.1203C13.9422 12.1198 13.9422 12.1193 13.9422 12.1188C13.9422 12.1183 13.9422 12.1178 13.9422 12.1173C13.9422 12.1168 13.9422 12.1163 13.9422 12.1158C13.9422 12.1153 13.9422 12.1148 13.9422 12.1143C13.9422 12.1138 13.9422 12.1133 13.9422 12.1128C13.9422 12.1123 13.9422 12.1118 13.9422 12.1113C13.9422 12.1108 13.9422 12.1103 13.9422 12.1098C13.9422 12.1092 13.9422 12.1087 13.9422 12.1082C13.9422 12.1077 13.9422 12.1072 13.9422 12.1067C13.9422 12.1062 13.9422 12.1056 13.9422 12.1051C13.9422 12.1046 13.9422 12.1041 13.9422 12.1036C13.9422 12.1031 13.9422 12.1025 13.9422 12.102C13.9422 12.1015 13.9422 12.101 13.9422 12.1004C13.9422 12.0999 13.9422 12.0994 13.9422 12.0989C13.9422 12.0983 13.9422 12.0978 13.9422 12.0973C13.9422 12.0967 13.9422 12.0962 13.9422 12.0957C13.9422 12.0951 13.9422 12.0946 13.9422 12.0941C13.9422 12.0935 13.9422 12.093 13.9422 12.0925C13.9422 12.0919 13.9422 12.0914 13.9422 12.0908C13.9422 12.0903 13.9422 12.0898 13.9422 12.0892C13.9422 12.0887 13.9422 12.0881 13.9422 12.0876C13.9422 12.087 13.9422 12.0865 13.9422 12.0859C13.9422 12.0854 13.9422 12.0848 13.9422 12.0843C13.9422 12.0837 13.9422 12.0832 13.9422 12.0826C13.9422 12.0821 13.9422 12.0815 13.9422 12.0809C13.9422 12.0804 13.9422 12.0798 13.9422 12.0793C13.9422 12.0787 13.9422 12.0782 13.9422 12.0776C13.9422 12.077 13.9422 12.0765 13.9422 12.0759C13.9422 12.0753 13.9422 12.0748 13.9422 12.0742C13.9422 12.0736 13.9422 12.0731 13.9422 12.0725C13.9422 12.0719 13.9422 12.0713 13.9422 12.0708C13.9422 12.0702 13.9422 12.0696 13.9422 12.0691C13.9422 12.0685 13.9422 12.0679 13.9422 12.0673C13.9422 12.0667 13.9422 12.0662 13.9422 12.0656C13.9422 12.065 13.9422 12.0644 13.9422 12.0638C13.9422 12.0633 13.9422 12.0627 13.9422 12.0621C13.9422 12.0615 13.9422 12.0609 13.9422 12.0603C13.9422 12.0597 13.9422 12.0591 13.9422 12.0585C13.9422 12.058 13.9422 12.0574 13.9422 12.0568C13.9422 12.0562 13.9422 12.0556 13.9422 12.055C13.9422 12.0544 13.9422 12.0538 13.9422 12.0532C13.9422 12.0526 13.9422 12.052 13.9422 12.0514C13.9422 12.0508 13.9422 12.0502 13.9422 12.0496C13.9422 12.049 13.9422 12.0484 13.9422 12.0478C13.9422 12.0472 13.9422 12.0466 13.9422 12.0459C13.9422 12.0453 13.9422 12.0447 13.9422 12.0441C13.9422 12.0435 13.9422 12.0429 13.9422 12.0423C13.9422 12.0417 13.9422 12.041 13.9422 12.0404C13.9422 12.0398 13.9422 12.0392 13.9422 12.0386C13.9422 12.0379 13.9422 12.0373 13.9422 12.0367C13.9422 12.0361 13.9422 12.0355 13.9422 12.0348C13.9422 12.0342 13.9422 12.0336 13.9422 12.033C13.9422 12.0323 13.9422 12.0317 13.9422 12.0311C13.9422 12.0304 13.9422 12.0298 13.9422 12.0292C13.9422 12.0285 13.9422 12.0279 13.9422 12.0273C13.9422 12.0266 13.9422 12.026 13.9422 12.0254C13.9422 12.0247 13.9422 12.0241 13.9422 12.0235C13.9422 12.0228 13.9422 12.0222 13.9422 12.0215C13.9422 12.0209 13.9422 12.0202 13.9422 12.0196C13.9422 12.019 13.9422 12.0183 13.9422 12.0177C13.9422 12.017 13.9422 12.0164 13.9422 12.0157C13.9422 12.0151 13.9422 12.0144 13.9422 12.0138C13.9422 12.0131 13.9422 12.0125 13.9422 12.0118C13.9422 12.0111 13.9422 12.0105 13.9422 12.0098C13.9422 12.0092 13.9422 12.0085 13.9422 12.0079C13.9422 12.0072 13.9422 12.0065 13.9422 12.0059C13.9422 12.0052 13.9422 12.0045 13.9422 12.0039C13.9422 12.0032 13.9422 12.0025 13.9422 12.0019C13.9422 12.0012 13.9422 12.0005 13.9422 11.9999C13.9422 11.9992 13.9422 11.9985 13.9422 11.9979C13.9422 11.9972 13.9422 11.9965 13.9422 11.9958C13.9422 11.9952 13.9422 11.9945 13.9422 11.9938C13.9422 11.9931 13.9422 11.9925 13.9422 11.9918C13.9422 11.9911 13.9422 11.9904 13.9422 11.9897C13.9422 11.989 13.9422 11.9884 13.9422 11.9877C13.9422 11.987 13.9422 11.9863 13.9422 11.9856C13.9422 11.9849 13.9422 11.9842 13.9422 11.9836C13.9422 11.9829 13.9422 11.9822 13.9422 11.9815C13.9422 11.9808 13.9422 11.9801 13.9422 11.9794C13.9422 11.9787 13.9422 11.978 13.9422 11.9773C13.9422 11.9766 13.9422 11.9759 13.9422 11.9752C13.9422 11.9745 13.9422 11.9738 13.9422 11.9731C13.9422 11.9724 13.9422 11.9717 13.9422 11.971C13.9422 11.9703 13.9422 11.9696 13.9422 11.9689C13.9422 11.9682 13.9422 11.9675 13.9422 11.9668C13.9422 11.966 13.9422 11.9653 13.9422 11.9646C13.9422 11.9639 13.9422 11.9632 13.9422 11.9625C13.9422 11.9618 13.9422 11.9611 13.9422 11.9603C13.9422 11.9596 13.9422 11.9589 13.9422 11.9582C13.9422 11.9575 13.9422 11.9567 13.9422 11.956C13.9422 11.9553 13.9422 11.9546 13.9422 11.9539C13.9422 11.9531 13.9422 11.9524 13.9422 11.9517C13.9422 11.951 13.9422 11.9502 13.9422 11.9495C13.9422 11.9488 13.9422 11.948 13.9422 11.9473C13.9422 11.9466 13.9422 11.9458 13.9422 11.9451C13.9422 11.9444 13.9422 11.9436 13.9422 11.9429C13.9422 11.9422 13.9422 11.9414 13.9422 11.9407C13.9422 11.9399 13.9422 11.9392 13.9422 11.9385C13.9422 11.9377 13.9422 11.937 13.9422 11.9362C13.9422 11.9355 13.9422 11.9348 13.9422 11.934C13.9422 11.9333 13.9422 11.9325 13.9422 11.9318C13.9422 11.931 13.9422 11.9303 13.9422 11.9295C13.9422 11.9288 13.9422 11.928 13.9422 11.9273C13.9422 11.9265 13.9422 11.9258 13.9422 11.925C13.9422 11.9242 13.9422 11.9235 13.9422 11.9227C13.9422 11.922 13.9422 11.9212 13.9422 11.9205C13.9422 11.9197 13.9422 11.9189 13.9422 11.9182C13.9422 11.9174 13.9422 11.9166 13.9422 11.9159C13.9422 11.9151 13.9422 11.9143 13.9422 11.9136C13.9422 11.9128 13.9422 11.912 13.9422 11.9113C13.9422 11.9105 13.9422 11.9097 13.9422 11.909C13.9422 11.9082 13.9422 11.9074 13.9422 11.9066C13.9422 11.9059 13.9422 11.9051 13.9422 11.9043C13.9422 11.9035 13.9422 11.9028 13.9422 11.902C13.9422 11.9012 13.9422 11.9004 13.9422 11.8996C13.9422 11.8989 13.9422 11.8981 13.9422 11.8973C13.9422 11.8965 13.9422 11.8957 13.9422 11.8949C13.9422 11.8941 13.9422 11.8934 13.9422 11.8926C13.9422 11.8918 13.9422 11.891 13.9422 11.8902C13.9422 11.8894 13.9422 11.8886 13.9422 11.8878C13.9422 11.887 13.9422 11.8862 13.9422 11.8854C13.9422 11.8846 13.9422 11.8839 13.9422 11.8831C13.9422 11.8823 13.9422 11.8815 13.9422 11.8807C13.9422 11.8799 13.9422 11.8791 13.9422 11.8783C13.9422 11.8775 13.9422 11.8766 13.9422 11.8758C13.9422 11.875 13.9422 11.8742 13.9422 11.8734C13.9422 11.8726 13.9422 11.8718 13.9422 11.871C13.9422 11.8702 13.9422 11.8694 13.9422 11.8686C13.9422 11.8678 13.9422 11.8669 13.9422 11.8661C13.9422 11.8653 13.9422 11.8645 13.9422 11.8637C13.9422 11.8629 13.9422 11.862 13.9422 11.8612C13.9422 11.8604 13.9422 11.8596 13.9422 11.8588C13.9422 11.858 13.9422 11.8571 13.9422 11.8563C13.9422 11.8555 13.9422 11.8547 13.9422 11.8538C13.9422 11.853 13.9422 11.8522 13.9422 11.8514C13.9422 11.8505 13.9422 11.8497 13.9422 11.8489C13.9422 11.848 13.9422 11.8472 13.9422 11.8464C13.9422 11.8455 13.9422 11.8447 13.9422 11.8439C13.9422 11.843 13.9422 11.8422 13.9422 11.8414C13.9422 11.8405 13.9422 11.8397 13.9422 11.8388C13.9422 11.838 13.9422 11.8372 13.9422 11.8363C13.9422 11.8355 13.9422 11.8346 13.9422 11.8338C13.9422 11.833 13.9422 11.8321 13.9422 11.8313C13.9422 11.8304 13.9422 11.8296 13.9422 11.8287C13.9422 11.8279 13.9422 11.827 13.9422 11.8262C13.9422 11.8253 13.9422 11.8245 13.9422 11.8236C13.9422 11.8228 13.9422 11.8219 13.9422 11.8211C13.9422 11.8202 13.9422 11.8193 13.9422 11.8185C13.9422 11.8176 13.9422 11.8168 13.9422 11.8159C13.9422 11.8151 13.9422 11.8142 13.9422 11.8133C13.9422 11.8125 13.9422 11.8116 13.9422 11.8107C13.9422 11.8099 13.9422 11.809 13.9422 11.8081C13.9422 11.8073 13.9422 11.8064 13.9422 11.8055C13.9422 11.8047 13.9422 11.8038 13.9422 11.8029C13.9422 11.8021 13.9422 11.8012 13.9422 11.8003C13.9422 11.7994 13.9422 11.7986 13.9422 11.7977C13.9422 11.7968 13.9422 11.7959 13.9422 11.7951C13.9422 11.7942 13.9422 11.7933 13.9422 11.7924C13.9422 11.7916 13.9422 11.7907 13.9422 11.7898C13.9422 11.7889 13.9422 11.788 13.9422 11.7871C13.9422 11.7863 13.9422 11.7854 13.9422 11.7845C13.9422 11.7836 13.9422 11.7827 13.9422 11.7818C13.9422 11.7809 13.9422 11.7801 13.9422 11.7792C13.9422 11.7783 13.9422 11.7774 13.9422 11.7765C13.9422 11.7756 13.9422 11.7747 13.9422 11.7738C13.9422 11.7729 13.9422 11.772 13.9422 11.7711C13.9422 11.7702 13.9422 11.7693 13.9422 11.7684C13.9422 11.7675 13.9422 11.7666 13.9422 11.7657C13.9422 11.7648 13.9422 11.7639 13.9422 11.763C13.9422 11.7621 13.9422 11.7612 13.9422 11.7603C13.9422 11.7594 13.9422 11.7585 13.9422 11.7576C13.9422 11.7567 13.9422 11.7558 13.9422 11.7548C13.9422 11.7539 13.9422 11.753 13.9422 11.7521C13.9422 11.7512 13.9422 11.7503 13.9422 11.7494C13.9422 11.7485 13.9422 11.7475 13.9422 11.7466C13.9422 11.7457 13.9422 11.7448 13.9422 11.7439C13.9422 11.743 13.9422 11.742 13.9422 11.7411C13.9422 11.7402 13.9422 11.7393 13.9422 11.7383C13.9422 11.7374 13.9422 11.7365 13.9422 11.7356C13.9422 11.7346 13.9422 11.7337 13.9422 11.7328C13.9422 11.7319 13.9422 11.7309 13.9422 11.73C13.9422 11.7291 13.9422 11.7281 13.9422 11.7272C13.9422 11.7263 13.9422 11.7254 13.9422 11.7244C13.9422 11.7235 13.9422 11.7225 13.9422 11.7216C13.9422 11.7207 13.9422 11.7197 13.9422 11.7188C13.9422 11.7179 13.9422 11.7169 13.9422 11.716C13.9422 11.715 13.9422 11.7141 13.9422 11.7132C13.9422 11.7122 13.9422 11.7113 13.9422 11.7103C13.9422 11.7094 13.9422 11.7084 13.9422 11.7075C13.9422 11.7065 13.9422 11.7056 13.9422 11.7046C13.9422 11.7037 13.9422 11.7028 13.9422 11.7018C13.9422 11.7008 13.9422 11.6999 13.9422 11.6989C13.9422 11.698 13.9422 11.697 13.9422 11.6961C13.9422 11.6951 13.9422 11.6942 13.9422 11.6932C13.9422 11.6923 13.9422 11.6913 13.9422 11.6903C13.9422 11.6894 13.9422 11.6884 13.9422 11.6875C13.9422 11.6865 13.9422 11.6855 13.9422 11.6846C13.9422 11.6836 13.9422 11.6826 13.9422 11.6817C13.9422 11.6807 13.9422 11.6797 13.9422 11.6788C13.9422 11.6778 13.9422 11.6768 13.9422 11.6759C13.9422 11.6749 13.9422 11.6739 13.9422 11.673C13.9422 11.672 13.9422 11.671 13.9422 11.67C13.9422 11.6691 13.9422 11.6681 13.9422 11.6671C13.9422 11.6661 13.9422 11.6652 13.9422 11.6642C13.9422 11.6632 13.9422 11.6622 13.9422 11.6612C13.9422 11.6603 13.9422 11.6593 13.9422 11.6583C13.9422 11.6573 13.9422 11.6563 13.9422 11.6554C13.9422 11.6544 13.9422 11.6534 13.9422 11.6524C13.9422 11.6514 13.9422 11.6504 13.9422 11.6494C13.9422 11.6484 13.9422 11.6475 13.9422 11.6465C13.9422 11.6455 13.9422 11.6445 13.9422 11.6435C13.9422 11.6425 13.9422 11.6415 13.9422 11.6405C13.9422 11.6395 13.9422 11.6385 13.9422 11.6375C13.9422 11.6365 13.9422 11.6355 13.9422 11.6345C13.9422 11.6335 13.9422 11.6325 13.9422 11.6315C13.9422 11.6305 13.9422 11.6295 13.9422 11.6285C13.9422 11.6275 13.9422 11.6265 13.9422 11.6255C13.9422 11.6245 13.9422 11.6235 13.9422 11.6225C13.9422 11.6215 13.9422 11.6205 13.9422 11.6195C13.9422 11.6185 13.9422 11.6175 13.9422 11.6165C13.9422 11.6154 13.9422 11.6144 13.9422 11.6134C13.9422 11.6124 13.9422 11.6114 13.9422 11.6104C13.9422 11.6094 13.9422 11.6083 13.9422 11.6073C13.9422 11.6063 13.9422 11.6053 13.9422 11.6043C13.9422 11.6033 13.9422 11.6022 13.9422 11.6012C13.9422 11.6002 13.9422 11.5992 13.9422 11.5981C13.9422 11.5971 13.9422 11.5961 13.9422 11.5951C13.9422 11.5941 13.9422 11.593 13.9422 11.592C13.9422 11.591 13.9422 11.5899 13.9422 11.5889C13.9422 11.5879 13.9422 11.5869 13.9422 11.5858C13.9422 11.5848 13.9422 11.5838 13.9422 11.5827C13.9422 11.5817 13.9422 11.5807 13.9422 11.5796C13.9422 11.5786 13.9422 11.5776 13.9422 11.5765C13.9422 11.5755 13.9422 11.5745 13.9422 11.5734C13.9422 11.5724 13.9422 11.5713 13.9422 11.5703C13.9422 11.5693 13.9422 11.5682 13.9422 11.5672C13.9422 11.5661 13.9422 11.5651 13.9422 11.564C13.9422 11.563 13.9422 11.5619 13.9422 11.5609C13.9422 11.5599 13.9422 11.5588 13.9422 11.5578C13.9422 11.5567 13.9422 11.5557 13.9422 11.5546C13.9422 11.5536 13.9422 11.5525 13.9422 11.5515C13.9422 11.5504 13.9422 11.5493 13.9422 11.5483C13.9422 11.5472 13.9422 11.5462 13.9422 11.5451C13.9422 11.5441 13.9422 11.543 13.9422 11.542C13.9422 11.5409 13.9422 11.5398 13.9422 11.5388C13.9422 11.5377 13.9422 11.5367 13.9422 11.5356C13.9422 11.5345 13.9422 11.5335 13.9422 11.5324C13.9422 11.5313 13.9422 11.5303 13.9422 11.5292C13.9422 11.5281 13.9422 11.5271 13.9422 11.526C13.9422 11.5249 13.9422 11.5239 13.9422 11.5228C13.9422 11.5217 13.9422 11.5207 13.9422 11.5196C13.9422 11.5185 13.9422 11.5174 13.9422 11.5164C13.9422 11.5153 13.9422 11.5142 13.9422 11.5131C13.9422 11.5121 13.9422 11.511 13.9422 11.5099C13.9422 11.5088 13.9422 11.5078 13.9422 11.5067C13.9422 11.5056 13.9422 11.5045 13.9422 11.5034C13.9422 11.5024 13.9422 11.5013 13.9422 11.5002C13.9422 11.4991 13.9422 11.498 13.9422 11.4969C13.9422 11.4959 13.9422 11.4948 13.9422 11.4937C13.9422 11.4926 13.9422 11.4915 13.9422 11.4904C13.9422 11.4893 13.9422 11.4882 13.9422 11.4872C13.9422 11.4861 13.9422 11.485 13.9422 11.4839C13.9422 11.4828 13.9422 11.4817 13.9422 11.4806C13.9422 11.4795 13.9422 11.4784 13.9422 11.4773C13.9422 11.4762 13.9422 11.4751 13.9422 11.474C13.9422 11.4729 13.9422 11.4718 13.9422 11.4707C13.9422 11.4696 13.9422 11.4685 13.9422 11.4674C13.9422 11.4663 13.9422 11.4652 13.9422 11.4641C13.9422 11.463 13.9422 11.4619 13.9422 11.4608C13.9422 11.4597 13.9422 11.4586 13.9422 11.4575C13.9422 11.4564 13.9422 11.4553 13.9422 11.4541C13.9422 11.453 13.9422 11.4519 13.9422 11.4508C13.9422 11.4497 13.9422 11.4486 13.9422 11.4475C13.9422 11.4464 13.9422 11.4453 13.9422 11.4441C13.9422 11.443 13.9422 11.4419 13.9422 11.4408C13.9422 11.4397 13.9422 11.4386 13.9422 11.4374C13.9422 11.4363 13.9422 11.4352 13.9422 11.4341C13.9422 11.433 13.9422 11.4318 13.9422 11.4307C13.9422 11.4296 13.9422 11.4285 13.9422 11.4273C13.9422 11.4262 13.9422 11.4251 13.9422 11.424C13.9422 11.4228 13.9422 11.4217 13.9422 11.4206C13.9422 11.4195 13.9422 11.4183 13.9422 11.4172C13.9422 11.4161 13.9422 11.4149 13.9422 11.4138C13.9422 11.4127 13.9422 11.4115 13.9422 11.4104C13.9422 11.4093 13.9422 11.4081 13.9422 11.407C13.9422 11.4059 13.9422 11.4047 13.9422 11.4036C13.9422 11.4025 13.9422 11.4013 13.9422 11.4002C13.9422 11.399 13.9422 11.3979 13.9422 11.3968C13.9422 11.3956 13.9422 11.3945 13.9422 11.3933C13.9422 11.3922 13.9422 11.3911 13.9422 11.3899C13.9422 11.3888 13.9422 11.3876 13.9422 11.3865C13.9422 11.3853 13.9422 11.3842 13.9422 11.383C13.9422 11.3819 13.9422 11.3807 13.9422 11.3796C13.9422 11.3784 13.9422 11.3773 13.9422 11.3761C13.9422 11.375 13.9422 11.3738 13.9422 11.3727C13.9422 11.3715 13.9422 11.3704 13.9422 11.3692C13.9422 11.3681 13.9422 11.3669 13.9422 11.3658C13.9422 11.3646 13.9422 11.3634 13.9422 11.3623C13.9422 11.3611 13.9422 11.36 13.9422 11.3588C13.9422 11.3576 13.9422 11.3565 13.9422 11.3553C13.9422 11.3542 13.9422 11.353 13.9422 11.3518C13.9422 11.3507 13.9422 11.3495 13.9422 11.3483C13.9422 11.3472 13.9422 11.346 13.9422 11.3448C13.9422 11.3437 13.9422 11.3425 13.9422 11.3413C13.9422 11.3402 13.9422 11.339 13.9422 11.3378C13.9422 11.3366 13.9422 11.3355 13.9422 11.3343C13.9422 11.3331 13.9422 11.332 13.9422 11.3308C13.9422 11.3296 13.9422 11.3284 13.9422 11.3273C13.9422 11.3261 13.9422 11.3249 13.9422 11.3237C13.9422 11.3226 13.9422 11.3214 13.9422 11.3202C13.9422 11.319 13.9422 11.3178 13.9422 11.3167C13.9422 11.3155 13.9422 11.3143 13.9422 11.3131C13.9422 11.3119 13.9422 11.3107 13.9422 11.3096C13.9422 11.3084 13.9422 11.3072 13.9422 11.306C13.9422 11.3048 13.9422 11.3036 13.9422 11.3024C13.9422 11.3012 13.9422 11.3001 13.9422 11.2989C13.9422 11.2977 13.9422 11.2965 13.9422 11.2953C13.9422 11.2941 13.9422 11.2929 13.9422 11.2917C13.9422 11.2905 13.9422 11.2893 13.9422 11.2881C13.9422 11.2869 13.9422 11.2857 13.9422 11.2845C13.9422 11.2834 13.9422 11.2822 13.9422 11.281C13.9422 11.2798 13.9422 11.2786 13.9422 11.2774C13.9422 11.2762 13.9422 11.275 13.9422 11.2738C13.9422 11.2726 13.9422 11.2714 13.9422 11.2701C13.9422 11.2689 13.9422 11.2677 13.9422 11.2665C13.9422 11.2653 13.9422 11.2641 13.9422 11.2629C13.9422 11.2617 13.9422 11.2605 13.9422 11.2593C13.9422 11.2581 13.9422 11.2569 13.9422 11.2557C13.9422 11.2545 13.9422 11.2532 13.9422 11.252C13.9422 11.2508 13.9422 11.2496 13.9422 11.2484C13.9422 11.2472 13.9422 11.246 13.9422 11.2448C13.9422 11.2435 13.9422 11.2423 13.9422 11.2411C13.9422 11.2399 13.9422 11.2387 13.9422 11.2375C13.9422 11.2362 13.9422 11.235 13.9422 11.2338C13.9422 11.2326 13.9422 11.2314 13.9422 11.2301C13.9422 11.2289 13.9422 11.2277 13.9422 11.2265C13.9422 11.2252 13.9422 11.224 13.9422 11.2228C13.9422 11.2216 13.9422 11.2203 13.9422 11.2191C13.9422 11.2179 13.9422 11.2167 13.9422 11.2154C13.9422 11.2142 13.9422 11.213 13.9422 11.2117C13.9422 11.2105 13.9422 11.2093 13.9422 11.208C13.9422 11.2068 13.9422 11.2056 13.9422 11.2043C13.9422 11.2031 13.9422 11.2019 13.9422 11.2006C13.9422 11.1994 13.9422 11.1982 13.9422 11.1969C13.9422 11.1957 13.9422 11.1945 13.9422 11.1932C13.9422 11.192 13.9422 11.1907 13.9422 11.1895C13.9422 11.1883 13.9422 11.187 13.9422 11.1858H12.4422C12.4422 11.187 12.4422 11.1883 12.4422 11.1895C12.4422 11.1907 12.4422 11.192 12.4422 11.1932C12.4422 11.1945 12.4422 11.1957 12.4422 11.1969C12.4422 11.1982 12.4422 11.1994 12.4422 11.2006C12.4422 11.2019 12.4422 11.2031 12.4422 11.2043C12.4422 11.2056 12.4422 11.2068 12.4422 11.208C12.4422 11.2093 12.4422 11.2105 12.4422 11.2117C12.4422 11.213 12.4422 11.2142 12.4422 11.2154C12.4422 11.2167 12.4422 11.2179 12.4422 11.2191C12.4422 11.2203 12.4422 11.2216 12.4422 11.2228C12.4422 11.224 12.4422 11.2252 12.4422 11.2265C12.4422 11.2277 12.4422 11.2289 12.4422 11.2301C12.4422 11.2314 12.4422 11.2326 12.4422 11.2338C12.4422 11.235 12.4422 11.2362 12.4422 11.2375C12.4422 11.2387 12.4422 11.2399 12.4422 11.2411C12.4422 11.2423 12.4422 11.2435 12.4422 11.2448C12.4422 11.246 12.4422 11.2472 12.4422 11.2484C12.4422 11.2496 12.4422 11.2508 12.4422 11.252C12.4422 11.2532 12.4422 11.2545 12.4422 11.2557C12.4422 11.2569 12.4422 11.2581 12.4422 11.2593C12.4422 11.2605 12.4422 11.2617 12.4422 11.2629C12.4422 11.2641 12.4422 11.2653 12.4422 11.2665C12.4422 11.2677 12.4422 11.2689 12.4422 11.2701C12.4422 11.2714 12.4422 11.2726 12.4422 11.2738C12.4422 11.275 12.4422 11.2762 12.4422 11.2774C12.4422 11.2786 12.4422 11.2798 12.4422 11.281C12.4422 11.2822 12.4422 11.2834 12.4422 11.2845C12.4422 11.2857 12.4422 11.2869 12.4422 11.2881C12.4422 11.2893 12.4422 11.2905 12.4422 11.2917C12.4422 11.2929 12.4422 11.2941 12.4422 11.2953C12.4422 11.2965 12.4422 11.2977 12.4422 11.2989C12.4422 11.3001 12.4422 11.3012 12.4422 11.3024C12.4422 11.3036 12.4422 11.3048 12.4422 11.306C12.4422 11.3072 12.4422 11.3084 12.4422 11.3096C12.4422 11.3107 12.4422 11.3119 12.4422 11.3131C12.4422 11.3143 12.4422 11.3155 12.4422 11.3167C12.4422 11.3178 12.4422 11.319 12.4422 11.3202C12.4422 11.3214 12.4422 11.3226 12.4422 11.3237C12.4422 11.3249 12.4422 11.3261 12.4422 11.3273C12.4422 11.3284 12.4422 11.3296 12.4422 11.3308C12.4422 11.332 12.4422 11.3331 12.4422 11.3343C12.4422 11.3355 12.4422 11.3366 12.4422 11.3378C12.4422 11.339 12.4422 11.3402 12.4422 11.3413C12.4422 11.3425 12.4422 11.3437 12.4422 11.3448C12.4422 11.346 12.4422 11.3472 12.4422 11.3483C12.4422 11.3495 12.4422 11.3507 12.4422 11.3518C12.4422 11.353 12.4422 11.3542 12.4422 11.3553C12.4422 11.3565 12.4422 11.3576 12.4422 11.3588C12.4422 11.36 12.4422 11.3611 12.4422 11.3623C12.4422 11.3634 12.4422 11.3646 12.4422 11.3658C12.4422 11.3669 12.4422 11.3681 12.4422 11.3692C12.4422 11.3704 12.4422 11.3715 12.4422 11.3727C12.4422 11.3738 12.4422 11.375 12.4422 11.3761C12.4422 11.3773 12.4422 11.3784 12.4422 11.3796C12.4422 11.3807 12.4422 11.3819 12.4422 11.383C12.4422 11.3842 12.4422 11.3853 12.4422 11.3865C12.4422 11.3876 12.4422 11.3888 12.4422 11.3899C12.4422 11.3911 12.4422 11.3922 12.4422 11.3933C12.4422 11.3945 12.4422 11.3956 12.4422 11.3968C12.4422 11.3979 12.4422 11.399 12.4422 11.4002C12.4422 11.4013 12.4422 11.4025 12.4422 11.4036C12.4422 11.4047 12.4422 11.4059 12.4422 11.407C12.4422 11.4081 12.4422 11.4093 12.4422 11.4104C12.4422 11.4115 12.4422 11.4127 12.4422 11.4138C12.4422 11.4149 12.4422 11.4161 12.4422 11.4172C12.4422 11.4183 12.4422 11.4195 12.4422 11.4206C12.4422 11.4217 12.4422 11.4228 12.4422 11.424C12.4422 11.4251 12.4422 11.4262 12.4422 11.4273C12.4422 11.4285 12.4422 11.4296 12.4422 11.4307C12.4422 11.4318 12.4422 11.433 12.4422 11.4341C12.4422 11.4352 12.4422 11.4363 12.4422 11.4374C12.4422 11.4386 12.4422 11.4397 12.4422 11.4408C12.4422 11.4419 12.4422 11.443 12.4422 11.4441C12.4422 11.4453 12.4422 11.4464 12.4422 11.4475C12.4422 11.4486 12.4422 11.4497 12.4422 11.4508C12.4422 11.4519 12.4422 11.453 12.4422 11.4541C12.4422 11.4553 12.4422 11.4564 12.4422 11.4575C12.4422 11.4586 12.4422 11.4597 12.4422 11.4608C12.4422 11.4619 12.4422 11.463 12.4422 11.4641C12.4422 11.4652 12.4422 11.4663 12.4422 11.4674C12.4422 11.4685 12.4422 11.4696 12.4422 11.4707C12.4422 11.4718 12.4422 11.4729 12.4422 11.474C12.4422 11.4751 12.4422 11.4762 12.4422 11.4773C12.4422 11.4784 12.4422 11.4795 12.4422 11.4806C12.4422 11.4817 12.4422 11.4828 12.4422 11.4839C12.4422 11.485 12.4422 11.4861 12.4422 11.4872C12.4422 11.4882 12.4422 11.4893 12.4422 11.4904C12.4422 11.4915 12.4422 11.4926 12.4422 11.4937C12.4422 11.4948 12.4422 11.4959 12.4422 11.4969C12.4422 11.498 12.4422 11.4991 12.4422 11.5002C12.4422 11.5013 12.4422 11.5024 12.4422 11.5034C12.4422 11.5045 12.4422 11.5056 12.4422 11.5067C12.4422 11.5078 12.4422 11.5088 12.4422 11.5099C12.4422 11.511 12.4422 11.5121 12.4422 11.5131C12.4422 11.5142 12.4422 11.5153 12.4422 11.5164C12.4422 11.5174 12.4422 11.5185 12.4422 11.5196C12.4422 11.5207 12.4422 11.5217 12.4422 11.5228C12.4422 11.5239 12.4422 11.5249 12.4422 11.526C12.4422 11.5271 12.4422 11.5281 12.4422 11.5292C12.4422 11.5303 12.4422 11.5313 12.4422 11.5324C12.4422 11.5335 12.4422 11.5345 12.4422 11.5356C12.4422 11.5367 12.4422 11.5377 12.4422 11.5388C12.4422 11.5398 12.4422 11.5409 12.4422 11.542C12.4422 11.543 12.4422 11.5441 12.4422 11.5451C12.4422 11.5462 12.4422 11.5472 12.4422 11.5483C12.4422 11.5493 12.4422 11.5504 12.4422 11.5515C12.4422 11.5525 12.4422 11.5536 12.4422 11.5546C12.4422 11.5557 12.4422 11.5567 12.4422 11.5578C12.4422 11.5588 12.4422 11.5599 12.4422 11.5609C12.4422 11.5619 12.4422 11.563 12.4422 11.564C12.4422 11.5651 12.4422 11.5661 12.4422 11.5672C12.4422 11.5682 12.4422 11.5693 12.4422 11.5703C12.4422 11.5713 12.4422 11.5724 12.4422 11.5734C12.4422 11.5745 12.4422 11.5755 12.4422 11.5765C12.4422 11.5776 12.4422 11.5786 12.4422 11.5796C12.4422 11.5807 12.4422 11.5817 12.4422 11.5827C12.4422 11.5838 12.4422 11.5848 12.4422 11.5858C12.4422 11.5869 12.4422 11.5879 12.4422 11.5889C12.4422 11.5899 12.4422 11.591 12.4422 11.592C12.4422 11.593 12.4422 11.5941 12.4422 11.5951C12.4422 11.5961 12.4422 11.5971 12.4422 11.5981C12.4422 11.5992 12.4422 11.6002 12.4422 11.6012C12.4422 11.6022 12.4422 11.6033 12.4422 11.6043C12.4422 11.6053 12.4422 11.6063 12.4422 11.6073C12.4422 11.6083 12.4422 11.6094 12.4422 11.6104C12.4422 11.6114 12.4422 11.6124 12.4422 11.6134C12.4422 11.6144 12.4422 11.6154 12.4422 11.6165C12.4422 11.6175 12.4422 11.6185 12.4422 11.6195C12.4422 11.6205 12.4422 11.6215 12.4422 11.6225C12.4422 11.6235 12.4422 11.6245 12.4422 11.6255C12.4422 11.6265 12.4422 11.6275 12.4422 11.6285C12.4422 11.6295 12.4422 11.6305 12.4422 11.6315C12.4422 11.6325 12.4422 11.6335 12.4422 11.6345C12.4422 11.6355 12.4422 11.6365 12.4422 11.6375C12.4422 11.6385 12.4422 11.6395 12.4422 11.6405C12.4422 11.6415 12.4422 11.6425 12.4422 11.6435C12.4422 11.6445 12.4422 11.6455 12.4422 11.6465C12.4422 11.6475 12.4422 11.6484 12.4422 11.6494C12.4422 11.6504 12.4422 11.6514 12.4422 11.6524C12.4422 11.6534 12.4422 11.6544 12.4422 11.6554C12.4422 11.6563 12.4422 11.6573 12.4422 11.6583C12.4422 11.6593 12.4422 11.6603 12.4422 11.6612C12.4422 11.6622 12.4422 11.6632 12.4422 11.6642C12.4422 11.6652 12.4422 11.6661 12.4422 11.6671C12.4422 11.6681 12.4422 11.6691 12.4422 11.67C12.4422 11.671 12.4422 11.672 12.4422 11.673C12.4422 11.6739 12.4422 11.6749 12.4422 11.6759C12.4422 11.6768 12.4422 11.6778 12.4422 11.6788C12.4422 11.6797 12.4422 11.6807 12.4422 11.6817C12.4422 11.6826 12.4422 11.6836 12.4422 11.6846C12.4422 11.6855 12.4422 11.6865 12.4422 11.6875C12.4422 11.6884 12.4422 11.6894 12.4422 11.6903C12.4422 11.6913 12.4422 11.6923 12.4422 11.6932C12.4422 11.6942 12.4422 11.6951 12.4422 11.6961C12.4422 11.697 12.4422 11.698 12.4422 11.6989C12.4422 11.6999 12.4422 11.7008 12.4422 11.7018C12.4422 11.7028 12.4422 11.7037 12.4422 11.7046C12.4422 11.7056 12.4422 11.7065 12.4422 11.7075C12.4422 11.7084 12.4422 11.7094 12.4422 11.7103C12.4422 11.7113 12.4422 11.7122 12.4422 11.7132C12.4422 11.7141 12.4422 11.715 12.4422 11.716C12.4422 11.7169 12.4422 11.7179 12.4422 11.7188C12.4422 11.7197 12.4422 11.7207 12.4422 11.7216C12.4422 11.7225 12.4422 11.7235 12.4422 11.7244C12.4422 11.7254 12.4422 11.7263 12.4422 11.7272C12.4422 11.7281 12.4422 11.7291 12.4422 11.73C12.4422 11.7309 12.4422 11.7319 12.4422 11.7328C12.4422 11.7337 12.4422 11.7346 12.4422 11.7356C12.4422 11.7365 12.4422 11.7374 12.4422 11.7383C12.4422 11.7393 12.4422 11.7402 12.4422 11.7411C12.4422 11.742 12.4422 11.743 12.4422 11.7439C12.4422 11.7448 12.4422 11.7457 12.4422 11.7466C12.4422 11.7475 12.4422 11.7485 12.4422 11.7494C12.4422 11.7503 12.4422 11.7512 12.4422 11.7521C12.4422 11.753 12.4422 11.7539 12.4422 11.7548C12.4422 11.7558 12.4422 11.7567 12.4422 11.7576C12.4422 11.7585 12.4422 11.7594 12.4422 11.7603C12.4422 11.7612 12.4422 11.7621 12.4422 11.763C12.4422 11.7639 12.4422 11.7648 12.4422 11.7657C12.4422 11.7666 12.4422 11.7675 12.4422 11.7684C12.4422 11.7693 12.4422 11.7702 12.4422 11.7711C12.4422 11.772 12.4422 11.7729 12.4422 11.7738C12.4422 11.7747 12.4422 11.7756 12.4422 11.7765C12.4422 11.7774 12.4422 11.7783 12.4422 11.7792C12.4422 11.7801 12.4422 11.7809 12.4422 11.7818C12.4422 11.7827 12.4422 11.7836 12.4422 11.7845C12.4422 11.7854 12.4422 11.7863 12.4422 11.7871C12.4422 11.788 12.4422 11.7889 12.4422 11.7898C12.4422 11.7907 12.4422 11.7916 12.4422 11.7924C12.4422 11.7933 12.4422 11.7942 12.4422 11.7951C12.4422 11.7959 12.4422 11.7968 12.4422 11.7977C12.4422 11.7986 12.4422 11.7994 12.4422 11.8003C12.4422 11.8012 12.4422 11.8021 12.4422 11.8029C12.4422 11.8038 12.4422 11.8047 12.4422 11.8055C12.4422 11.8064 12.4422 11.8073 12.4422 11.8081C12.4422 11.809 12.4422 11.8099 12.4422 11.8107C12.4422 11.8116 12.4422 11.8125 12.4422 11.8133C12.4422 11.8142 12.4422 11.8151 12.4422 11.8159C12.4422 11.8168 12.4422 11.8176 12.4422 11.8185C12.4422 11.8193 12.4422 11.8202 12.4422 11.8211C12.4422 11.8219 12.4422 11.8228 12.4422 11.8236C12.4422 11.8245 12.4422 11.8253 12.4422 11.8262C12.4422 11.827 12.4422 11.8279 12.4422 11.8287C12.4422 11.8296 12.4422 11.8304 12.4422 11.8313C12.4422 11.8321 12.4422 11.833 12.4422 11.8338C12.4422 11.8346 12.4422 11.8355 12.4422 11.8363C12.4422 11.8372 12.4422 11.838 12.4422 11.8388C12.4422 11.8397 12.4422 11.8405 12.4422 11.8414C12.4422 11.8422 12.4422 11.843 12.4422 11.8439C12.4422 11.8447 12.4422 11.8455 12.4422 11.8464C12.4422 11.8472 12.4422 11.848 12.4422 11.8489C12.4422 11.8497 12.4422 11.8505 12.4422 11.8514C12.4422 11.8522 12.4422 11.853 12.4422 11.8538C12.4422 11.8547 12.4422 11.8555 12.4422 11.8563C12.4422 11.8571 12.4422 11.858 12.4422 11.8588C12.4422 11.8596 12.4422 11.8604 12.4422 11.8612C12.4422 11.862 12.4422 11.8629 12.4422 11.8637C12.4422 11.8645 12.4422 11.8653 12.4422 11.8661C12.4422 11.8669 12.4422 11.8678 12.4422 11.8686C12.4422 11.8694 12.4422 11.8702 12.4422 11.871C12.4422 11.8718 12.4422 11.8726 12.4422 11.8734C12.4422 11.8742 12.4422 11.875 12.4422 11.8758C12.4422 11.8766 12.4422 11.8775 12.4422 11.8783C12.4422 11.8791 12.4422 11.8799 12.4422 11.8807C12.4422 11.8815 12.4422 11.8823 12.4422 11.8831C12.4422 11.8839 12.4422 11.8846 12.4422 11.8854C12.4422 11.8862 12.4422 11.887 12.4422 11.8878C12.4422 11.8886 12.4422 11.8894 12.4422 11.8902C12.4422 11.891 12.4422 11.8918 12.4422 11.8926C12.4422 11.8934 12.4422 11.8941 12.4422 11.8949C12.4422 11.8957 12.4422 11.8965 12.4422 11.8973C12.4422 11.8981 12.4422 11.8989 12.4422 11.8996C12.4422 11.9004 12.4422 11.9012 12.4422 11.902C12.4422 11.9028 12.4422 11.9035 12.4422 11.9043C12.4422 11.9051 12.4422 11.9059 12.4422 11.9066C12.4422 11.9074 12.4422 11.9082 12.4422 11.909C12.4422 11.9097 12.4422 11.9105 12.4422 11.9113C12.4422 11.912 12.4422 11.9128 12.4422 11.9136C12.4422 11.9143 12.4422 11.9151 12.4422 11.9159C12.4422 11.9166 12.4422 11.9174 12.4422 11.9182C12.4422 11.9189 12.4422 11.9197 12.4422 11.9205C12.4422 11.9212 12.4422 11.922 12.4422 11.9227C12.4422 11.9235 12.4422 11.9242 12.4422 11.925C12.4422 11.9258 12.4422 11.9265 12.4422 11.9273C12.4422 11.928 12.4422 11.9288 12.4422 11.9295C12.4422 11.9303 12.4422 11.931 12.4422 11.9318C12.4422 11.9325 12.4422 11.9333 12.4422 11.934C12.4422 11.9348 12.4422 11.9355 12.4422 11.9362C12.4422 11.937 12.4422 11.9377 12.4422 11.9385C12.4422 11.9392 12.4422 11.9399 12.4422 11.9407C12.4422 11.9414 12.4422 11.9422 12.4422 11.9429C12.4422 11.9436 12.4422 11.9444 12.4422 11.9451C12.4422 11.9458 12.4422 11.9466 12.4422 11.9473C12.4422 11.948 12.4422 11.9488 12.4422 11.9495C12.4422 11.9502 12.4422 11.951 12.4422 11.9517C12.4422 11.9524 12.4422 11.9531 12.4422 11.9539C12.4422 11.9546 12.4422 11.9553 12.4422 11.956C12.4422 11.9567 12.4422 11.9575 12.4422 11.9582C12.4422 11.9589 12.4422 11.9596 12.4422 11.9603C12.4422 11.9611 12.4422 11.9618 12.4422 11.9625C12.4422 11.9632 12.4422 11.9639 12.4422 11.9646C12.4422 11.9653 12.4422 11.966 12.4422 11.9668C12.4422 11.9675 12.4422 11.9682 12.4422 11.9689C12.4422 11.9696 12.4422 11.9703 12.4422 11.971C12.4422 11.9717 12.4422 11.9724 12.4422 11.9731C12.4422 11.9738 12.4422 11.9745 12.4422 11.9752C12.4422 11.9759 12.4422 11.9766 12.4422 11.9773C12.4422 11.978 12.4422 11.9787 12.4422 11.9794C12.4422 11.9801 12.4422 11.9808 12.4422 11.9815C12.4422 11.9822 12.4422 11.9829 12.4422 11.9836C12.4422 11.9842 12.4422 11.9849 12.4422 11.9856C12.4422 11.9863 12.4422 11.987 12.4422 11.9877C12.4422 11.9884 12.4422 11.989 12.4422 11.9897C12.4422 11.9904 12.4422 11.9911 12.4422 11.9918C12.4422 11.9925 12.4422 11.9931 12.4422 11.9938C12.4422 11.9945 12.4422 11.9952 12.4422 11.9958C12.4422 11.9965 12.4422 11.9972 12.4422 11.9979C12.4422 11.9985 12.4422 11.9992 12.4422 11.9999C12.4422 12.0005 12.4422 12.0012 12.4422 12.0019C12.4422 12.0025 12.4422 12.0032 12.4422 12.0039C12.4422 12.0045 12.4422 12.0052 12.4422 12.0059C12.4422 12.0065 12.4422 12.0072 12.4422 12.0079C12.4422 12.0085 12.4422 12.0092 12.4422 12.0098C12.4422 12.0105 12.4422 12.0111 12.4422 12.0118C12.4422 12.0125 12.4422 12.0131 12.4422 12.0138C12.4422 12.0144 12.4422 12.0151 12.4422 12.0157C12.4422 12.0164 12.4422 12.017 12.4422 12.0177C12.4422 12.0183 12.4422 12.019 12.4422 12.0196C12.4422 12.0202 12.4422 12.0209 12.4422 12.0215C12.4422 12.0222 12.4422 12.0228 12.4422 12.0235C12.4422 12.0241 12.4422 12.0247 12.4422 12.0254C12.4422 12.026 12.4422 12.0266 12.4422 12.0273C12.4422 12.0279 12.4422 12.0285 12.4422 12.0292C12.4422 12.0298 12.4422 12.0304 12.4422 12.0311C12.4422 12.0317 12.4422 12.0323 12.4422 12.033C12.4422 12.0336 12.4422 12.0342 12.4422 12.0348C12.4422 12.0355 12.4422 12.0361 12.4422 12.0367C12.4422 12.0373 12.4422 12.0379 12.4422 12.0386C12.4422 12.0392 12.4422 12.0398 12.4422 12.0404C12.4422 12.041 12.4422 12.0417 12.4422 12.0423C12.4422 12.0429 12.4422 12.0435 12.4422 12.0441C12.4422 12.0447 12.4422 12.0453 12.4422 12.0459C12.4422 12.0466 12.4422 12.0472 12.4422 12.0478C12.4422 12.0484 12.4422 12.049 12.4422 12.0496C12.4422 12.0502 12.4422 12.0508 12.4422 12.0514C12.4422 12.052 12.4422 12.0526 12.4422 12.0532C12.4422 12.0538 12.4422 12.0544 12.4422 12.055C12.4422 12.0556 12.4422 12.0562 12.4422 12.0568C12.4422 12.0574 12.4422 12.058 12.4422 12.0585C12.4422 12.0591 12.4422 12.0597 12.4422 12.0603C12.4422 12.0609 12.4422 12.0615 12.4422 12.0621C12.4422 12.0627 12.4422 12.0633 12.4422 12.0638C12.4422 12.0644 12.4422 12.065 12.4422 12.0656C12.4422 12.0662 12.4422 12.0667 12.4422 12.0673C12.4422 12.0679 12.4422 12.0685 12.4422 12.0691C12.4422 12.0696 12.4422 12.0702 12.4422 12.0708C12.4422 12.0713 12.4422 12.0719 12.4422 12.0725C12.4422 12.0731 12.4422 12.0736 12.4422 12.0742C12.4422 12.0748 12.4422 12.0753 12.4422 12.0759C12.4422 12.0765 12.4422 12.077 12.4422 12.0776C12.4422 12.0782 12.4422 12.0787 12.4422 12.0793C12.4422 12.0798 12.4422 12.0804 12.4422 12.0809C12.4422 12.0815 12.4422 12.0821 12.4422 12.0826C12.4422 12.0832 12.4422 12.0837 12.4422 12.0843C12.4422 12.0848 12.4422 12.0854 12.4422 12.0859C12.4422 12.0865 12.4422 12.087 12.4422 12.0876C12.4422 12.0881 12.4422 12.0887 12.4422 12.0892C12.4422 12.0898 12.4422 12.0903 12.4422 12.0908C12.4422 12.0914 12.4422 12.0919 12.4422 12.0925C12.4422 12.093 12.4422 12.0935 12.4422 12.0941C12.4422 12.0946 12.4422 12.0951 12.4422 12.0957C12.4422 12.0962 12.4422 12.0967 12.4422 12.0973C12.4422 12.0978 12.4422 12.0983 12.4422 12.0989C12.4422 12.0994 12.4422 12.0999 12.4422 12.1004C12.4422 12.101 12.4422 12.1015 12.4422 12.102C12.4422 12.1025 12.4422 12.1031 12.4422 12.1036C12.4422 12.1041 12.4422 12.1046 12.4422 12.1051C12.4422 12.1056 12.4422 12.1062 12.4422 12.1067C12.4422 12.1072 12.4422 12.1077 12.4422 12.1082C12.4422 12.1087 12.4422 12.1092 12.4422 12.1098C12.4422 12.1103 12.4422 12.1108 12.4422 12.1113C12.4422 12.1118 12.4422 12.1123 12.4422 12.1128C12.4422 12.1133 12.4422 12.1138 12.4422 12.1143C12.4422 12.1148 12.4422 12.1153 12.4422 12.1158C12.4422 12.1163 12.4422 12.1168 12.4422 12.1173C12.4422 12.1178 12.4422 12.1183 12.4422 12.1188C12.4422 12.1193 12.4422 12.1198 12.4422 12.1203C12.4422 12.1207 12.4422 12.1212 12.4422 12.1217C12.4422 12.1222 12.4422 12.1227 12.4422 12.1232C12.4422 12.1237 12.4422 12.1241 12.4422 12.1246C12.4422 12.1251 12.4422 12.1256 12.4422 12.1261C12.4422 12.1266 12.4422 12.127 12.4422 12.1275C12.4422 12.128 12.4422 12.1285 12.4422 12.1289C12.4422 12.1294 12.4422 12.1299 12.4422 12.1304C12.4422 12.1308 12.4422 12.1313 12.4422 12.1318C12.4422 12.1322 12.4422 12.1327 12.4422 12.1332C12.4422 12.1336 12.4422 12.1341 12.4422 12.1346C12.4422 12.135 12.4422 12.1355 12.4422 12.1359C12.4422 12.1364 12.4422 12.1369 12.4422 12.1373C12.4422 12.1378 12.4422 12.1382 12.4422 12.1387C12.4422 12.1391 12.4422 12.1396 12.4422 12.14C12.4422 12.1405 12.4422 12.141 12.4422 12.1414C12.4422 12.1419 12.4422 12.1423 12.4422 12.1427C12.4422 12.1432 12.4422 12.1436 12.4422 12.1441C12.4422 12.1445 12.4422 12.145 12.4422 12.1454C12.4422 12.1459 12.4422 12.1463 12.4422 12.1467C12.4422 12.1472 12.4422 12.1476 12.4422 12.148C12.4422 12.1485 12.4422 12.1489 12.4422 12.1493C12.4422 12.1498 12.4422 12.1502 12.4422 12.1506C12.4422 12.1511 12.4422 12.1515 12.4422 12.1519C12.4422 12.1523 12.4422 12.1528 12.4422 12.1532C12.4422 12.1536 12.4422 12.154 12.4422 12.1545C12.4422 12.1549 12.4422 12.1553 12.4422 12.1557C12.4422 12.1561 12.4422 12.1566 12.4422 12.157C12.4422 12.1574 12.4422 12.1578 12.4422 12.1582C12.4422 12.1586 12.4422 12.1591 12.4422 12.1595C12.4422 12.1599 12.4422 12.1603 12.4422 12.1607C12.4422 12.1611 12.4422 12.1615 12.4422 12.1619C12.4422 12.1623 12.4422 12.1627 12.4422 12.1631C12.4422 12.1635 12.4422 12.1639 12.4422 12.1643C12.4422 12.1647 12.4422 12.1651 12.4422 12.1655C12.4422 12.1659 12.4422 12.1663 12.4422 12.1667C12.4422 12.1671 12.4422 12.1675 12.4422 12.1679C12.4422 12.1683 12.4422 12.1687 12.4422 12.169C12.4422 12.1694 12.4422 12.1698 12.4422 12.1702C12.4422 12.1706 12.4422 12.171 12.4422 12.1714C12.4422 12.1717 12.4422 12.1721 12.4422 12.1725C12.4422 12.1729 12.4422 12.1733 12.4422 12.1736C12.4422 12.174 12.4422 12.1744 12.4422 12.1748C12.4422 12.1751 12.4422 12.1755 12.4422 12.1759C12.4422 12.1762 12.4422 12.1766 12.4422 12.177C12.4422 12.1774 12.4422 12.1777 12.4422 12.1781C12.4422 12.1784 12.4422 12.1788 12.4422 12.1792C12.4422 12.1795 12.4422 12.1799 12.4422 12.1803C12.4422 12.1806 12.4422 12.181 12.4422 12.1813C12.4422 12.1817 12.4422 12.182 12.4422 12.1824C12.4422 12.1828 12.4422 12.1831 12.4422 12.1835C12.4422 12.1838 12.4422 12.1842 12.4422 12.1845C12.4422 12.1849 12.4422 12.1852 12.4422 12.1855C12.4422 12.1859 12.4422 12.1862 12.4422 12.1866C12.4422 12.1869 12.4422 12.1873 12.4422 12.1876C12.4422 12.1879 12.4422 12.1883 12.4422 12.1886C12.4422 12.1889 12.4422 12.1893 12.4422 12.1896C12.4422 12.1899 12.4422 12.1903 12.4422 12.1906C12.4422 12.1909 12.4422 12.1913 12.4422 12.1916C12.4422 12.1919 12.4422 12.1923 12.4422 12.1926C12.4422 12.1929 12.4422 12.1932 12.4422 12.1936C12.4422 12.1939 12.4422 12.1942 12.4422 12.1945C12.4422 12.1948 12.4422 12.1951 12.4422 12.1955C12.4422 12.1958 12.4422 12.1961 12.4422 12.1964C12.4422 12.1967 12.4422 12.197 12.4422 12.1973C12.4422 12.1977 12.4422 12.198 12.4422 12.1983C12.4422 12.1986 12.4422 12.1989 12.4422 12.1992C12.4422 12.1995 12.4422 12.1998 12.4422 12.2001C12.4422 12.2004 12.4422 12.2007 12.4422 12.201C12.4422 12.2013 12.4422 12.2016 12.4422 12.2019C12.4422 12.2022 12.4422 12.2025 12.4422 12.2028C12.4422 12.2031 12.4422 12.2034 12.4422 12.2036C12.4422 12.2039 12.4422 12.2042 12.4422 12.2045C12.4422 12.2048 12.4422 12.2051 12.4422 12.2054C12.4422 12.2057 12.4422 12.2059 12.4422 12.2062C12.4422 12.2065 12.4422 12.2068 12.4422 12.2071C12.4422 12.2073 12.4422 12.2076 12.4422 12.2079C12.4422 12.2082 12.4422 12.2084 12.4422 12.2087C12.4422 12.209 12.4422 12.2093 12.4422 12.2095C12.4422 12.2098 12.4422 12.2101 12.4422 12.2103C12.4422 12.2106 12.4422 12.2109 12.4422 12.2111C12.4422 12.2114 12.4422 12.2116 12.4422 12.2119C12.4422 12.2122 12.4422 12.2124 12.4422 12.2127C12.4422 12.2129 12.4422 12.2132 12.4422 12.2135C12.4422 12.2137 12.4422 12.214 12.4422 12.2142C12.4422 12.2145 12.4422 12.2147 12.4422 12.215C12.4422 12.2152 12.4422 12.2155 12.4422 12.2157C12.4422 12.2159 12.4422 12.2162 12.4422 12.2164C12.4422 12.2167 12.4422 12.2169 12.4422 12.2172C12.4422 12.2174 12.4422 12.2176 12.4422 12.2179C12.4422 12.2181 12.4422 12.2183 12.4422 12.2186C12.4422 12.2188 12.4422 12.219 12.4422 12.2193C12.4422 12.2195 12.4422 12.2197 12.4422 12.22C12.4422 12.2202 12.4422 12.2204 12.4422 12.2206C12.4422 12.2209 12.4422 12.2211 12.4422 12.2213C12.4422 12.2215 12.4422 12.2217 12.4422 12.222C12.4422 12.2222 12.4422 12.2224 12.4422 12.2226C12.4422 12.2228 12.4422 12.223 12.4422 12.2233C12.4422 12.2235 12.4422 12.2237 12.4422 12.2239C12.4422 12.2241 12.4422 12.2243 12.4422 12.2245C12.4422 12.2247 12.4422 12.2249 12.4422 12.2251C12.4422 12.2253 12.4422 12.2255 12.4422 12.2257C12.4422 12.2259 12.4422 12.2261 12.4422 12.2263C12.4422 12.2265 12.4422 12.2267 12.4422 12.2269C12.4422 12.2271 12.4422 12.2273 12.4422 12.2275C12.4422 12.2277 12.4422 12.2279 12.4422 12.2281C12.4422 12.2283 12.4422 12.2284 12.4422 12.2286C12.4422 12.2288 12.4422 12.229 12.4422 12.2292C12.4422 12.2294 12.4422 12.2295 12.4422 12.2297C12.4422 12.2299 12.4422 12.2301 12.4422 12.2303C12.4422 12.2304 12.4422 12.2306 12.4422 12.2308C12.4422 12.231 12.4422 12.2311 12.4422 12.2313C12.4422 12.2315 12.4422 12.2316 12.4422 12.2318C12.4422 12.232 12.4422 12.2321 12.4422 12.2323C12.4422 12.2325 12.4422 12.2326 12.4422 12.2328C12.4422 12.2329 12.4422 12.2331 12.4422 12.2333C12.4422 12.2334 12.4422 12.2336 12.4422 12.2337C12.4422 12.2339 12.4422 12.234 12.4422 12.2342C12.4422 12.2343 12.4422 12.2345 12.4422 12.2346C12.4422 12.2348 12.4422 12.2349 12.4422 12.2351C12.4422 12.2352 12.4422 12.2354 12.4422 12.2355C12.4422 12.2357 12.4422 12.2358 12.4422 12.2359C12.4422 12.2361 12.4422 12.2362 12.4422 12.2363C12.4422 12.2365 12.4422 12.2366 12.4422 12.2368C12.4422 12.2369 12.4422 12.237 12.4422 12.2371C12.4422 12.2373 12.4422 12.2374 12.4422 12.2375C12.4422 12.2377 12.4422 12.2378 12.4422 12.2379C12.4422 12.238 12.4422 12.2382 12.4422 12.2383C12.4422 12.2384 12.4422 12.2385 12.4422 12.2386C12.4422 12.2387 12.4422 12.2389 12.4422 12.239C12.4422 12.2391 12.4422 12.2392 12.4422 12.2393C12.4422 12.2394 12.4422 12.2395 12.4422 12.2396C12.4422 12.2398 12.4422 12.2399 12.4422 12.24C12.4422 12.2401 12.4422 12.2402 12.4422 12.2403C12.4422 12.2404 12.4422 12.2405 12.4422 12.2406C12.4422 12.2407 12.4422 12.2408 12.4422 12.2409C12.4422 12.241 12.4422 12.2411 12.4422 12.2411C12.4422 12.2412 12.4422 12.2413 12.4422 12.2414C12.4422 12.2415 12.4422 12.2416 12.4422 12.2417C12.4422 12.2418 12.4422 12.2419 12.4422 12.2419C12.4422 12.242 12.4422 12.2421 12.4422 12.2422C12.4422 12.2423 12.4422 12.2423 12.4422 12.2424C12.4422 12.2425 12.4422 12.2426 12.4422 12.2426C12.4422 12.2427 12.4422 12.2428 12.4422 12.2429C12.4422 12.2429 12.4422 12.243 12.4422 12.2431C12.4422 12.2431 12.4422 12.2432 12.4422 12.2433C12.4422 12.2433 12.4422 12.2434 12.4422 12.2434C12.4422 12.2435 12.4422 12.2436 12.4422 12.2436C12.4422 12.2437 12.4422 12.2437 12.4422 12.2438C12.4422 12.2438 12.4422 12.2439 12.4422 12.244C12.4422 12.244 12.4422 12.2441 12.4422 12.2441C12.4422 12.2442 12.4422 12.2442 12.4422 12.2442C12.4422 12.2443 12.4422 12.2443 12.4422 12.2444C12.4422 12.2444 12.4422 12.2445 12.4422 12.2445C12.4422 12.2445 12.4422 12.2446 12.4422 12.2446C12.4422 12.2446 12.4422 12.2447 12.4422 12.2447C12.4422 12.2447 12.4422 12.2448 12.4422 12.2448C12.4422 12.2448 12.4422 12.2449 12.4422 12.2449C12.4422 12.2449 12.4422 12.2449 12.4422 12.245C12.4422 12.245 12.4422 12.245 12.4422 12.245C12.4422 12.245 12.4422 12.2451 12.4422 12.2451C12.4422 12.2451 12.4422 12.2451 12.4422 12.2451C12.4422 12.2451 12.4422 12.2451 12.4422 12.2451C12.4422 12.2452 12.4422 12.2452 12.4422 12.2452C12.4422 12.2452 12.4422 12.2452 12.4422 12.2452C12.4422 12.2452 12.4422 12.2452 13.1922 12.2452ZM13.9422 11.1858C13.9422 10.6625 13.7317 10.1551 13.3088 9.78813C12.8916 9.42598 12.3273 9.25 11.6922 9.25V10.75C12.057 10.75 12.2428 10.8491 12.3256 10.9209C12.4027 10.9879 12.4422 11.0734 12.4422 11.1858H13.9422ZM11.6922 9.25H10.1922V10.75H11.6922V9.25ZM9.44219 13.5V16H10.9422V13.5H9.44219ZM9.44219 10V13.5H10.9422V10H9.44219ZM11.5026 13.7268L12.4933 16.272L13.8911 15.7279L12.9005 13.1828L11.5026 13.7268ZM16.25 10V16H17.75V10H16.25ZM15 10.75H17V9.25H15V10.75ZM17 10.75H19V9.25H17V10.75Z" fill="black"/>
</svg>
