<svg width="24" height="24" viewBox="0 0 24 24" fill="none" xmlns="http://www.w3.org/2000/svg">
<path d="M19.7352 9.15373H19.2549V6.83648C19.2549 6.82192 19.2526 6.80747 19.2507 6.79273C19.25 6.70072 19.2207 6.61034 19.1577 6.53881L15.3016 2.13413C15.3004 2.1329 15.2993 2.1325 15.2985 2.13137C15.2755 2.1057 15.2487 2.08424 15.2204 2.06587C15.212 2.06013 15.2036 2.05545 15.1948 2.05054C15.1702 2.03725 15.1442 2.02603 15.1174 2.01801C15.1101 2.01609 15.1036 2.01311 15.0963 2.01111C15.0672 2.00432 15.037 2 15.0063 2H5.52949C5.09674 2 4.74518 2.35196 4.74518 2.78435V9.15373H4.26504C3.64598 9.15373 3.14402 9.65547 3.14402 10.2746V16.104C3.14402 16.7229 3.64598 17.2252 4.26504 17.2252H4.74522V21.2157C4.74522 21.648 5.09678 22 5.52953 22H18.4707C18.903 22 19.255 21.648 19.255 21.2157V17.2252H19.7352C20.3541 17.2252 20.8562 16.7231 20.8562 16.1043V10.2749C20.8561 9.65547 20.3541 9.15373 19.7352 9.15373ZM5.52949 2.78435H14.6142V6.79705C14.6142 7.01372 14.79 7.18921 15.0063 7.18921H18.4706V9.15391H5.52949V2.78435ZM13.7686 14.4096C13.949 15.0626 14.1295 15.8182 14.2412 16.0414H12.9012C12.8068 15.8783 12.6693 15.4061 12.4974 14.6934C12.3428 13.9713 12.0938 13.7741 11.5615 13.7654H11.1662V16.0414H9.86935V10.3302C10.2901 10.2611 10.9173 10.21 11.6131 10.21C12.4719 10.21 13.0731 10.3386 13.4854 10.6649C13.8289 10.9393 14.0177 11.3435 14.0177 11.8758C14.0177 12.6147 13.494 13.1213 12.9957 13.3015V13.3274C13.3994 13.4909 13.6229 13.8773 13.7686 14.4096ZM5.00894 15.7752L5.27521 14.6934C5.62735 14.8734 6.16838 15.0538 6.72655 15.0538C7.32782 15.0538 7.64557 14.8047 7.64557 14.4268C7.64557 14.0661 7.37088 13.8601 6.67524 13.6111C5.71322 13.276 5.08643 12.7433 5.08643 11.9015C5.08643 10.9143 5.91097 10.1582 7.2764 10.1582C7.92916 10.1582 8.41016 10.2956 8.7537 10.4503L8.46169 11.5066C8.22992 11.3953 7.81736 11.2321 7.25076 11.2321C6.68388 11.2321 6.40901 11.4896 6.40901 11.7901C6.40901 12.1597 6.73548 12.3228 7.48246 12.6062C8.50446 12.9838 8.98558 13.5165 8.98558 14.3322C8.98558 15.303 8.23841 16.1272 6.6496 16.1272C5.9882 16.1272 5.33541 15.9556 5.00894 15.7752ZM18.4707 21.0031H5.52949V17.2252H18.4706L18.4707 21.0031ZM18.9727 11.3519H17.3922V16.0414H16.0782V11.3519H14.5236V10.2529H18.9723L18.9727 11.3519Z" fill="black"/>
<path d="M11.7594 11.1802C11.4416 11.1802 11.2613 11.2059 11.1668 11.2232V12.8205H11.6823C12.3349 12.8205 12.7216 12.4943 12.7216 11.9871C12.7216 11.4552 12.3609 11.1887 11.7594 11.1802Z" fill="black"/>
</svg>
