<svg width="24" height="24" viewBox="0 0 24 24" fill="none" xmlns="http://www.w3.org/2000/svg">
<path d="M19.7352 9.15391H19.2549V6.8367C19.2549 6.82225 19.2526 6.80769 19.2507 6.79306C19.25 6.70104 19.2207 6.61067 19.1577 6.53906L15.3016 2.13413C15.3004 2.13301 15.2993 2.13261 15.2985 2.13137C15.2755 2.1057 15.2487 2.08435 15.2204 2.06587C15.212 2.06024 15.2036 2.05552 15.1948 2.05065C15.1702 2.03725 15.1442 2.02614 15.1174 2.01812C15.1101 2.01609 15.1036 2.01311 15.0963 2.01122C15.0672 2.00432 15.037 2 15.0063 2H5.52949C5.09674 2 4.74518 2.35196 4.74518 2.78435V9.15373H4.26504C3.64598 9.15373 3.14402 9.65547 3.14402 10.2747V16.1043C3.14402 16.7231 3.64598 17.2252 4.26504 17.2252H4.74522V21.2157C4.74522 21.648 5.09678 22 5.52953 22H18.4707C18.903 22 19.255 21.648 19.255 21.2157V17.2252H19.7352C20.3541 17.2252 20.8562 16.7231 20.8562 16.1043V10.2749C20.8561 9.65569 20.3541 9.15391 19.7352 9.15391ZM5.52949 2.78449H14.6142V6.7973C14.6142 7.01397 14.79 7.18946 15.0063 7.18946H18.4706V9.15416H5.52949V2.78449ZM14.3047 10.1943L12.3321 16.0508H10.7856L8.90871 10.1943H10.3599L11.0722 12.6706C11.2722 13.3657 11.4546 14.0347 11.5937 14.7646H11.6197C11.7672 14.0607 11.9497 13.3657 12.1495 12.6966L12.897 10.1941H14.3048V10.1943H14.3047ZM4.48585 15.7814L4.75509 14.6865C5.11134 14.8688 5.65879 15.0515 6.22346 15.0515C6.8317 15.0515 7.15327 14.7996 7.15327 14.4173C7.15327 14.0523 6.87506 13.8438 6.17106 13.5918C5.19794 13.2531 4.56384 12.7143 4.56384 11.863C4.56384 10.8636 5.39794 10.0991 6.7793 10.0991C7.43972 10.0991 7.9264 10.2379 8.27382 10.3943L7.97876 11.4632C7.74401 11.3501 7.32716 11.1852 6.75345 11.1852C6.18007 11.1852 5.90182 11.446 5.90182 11.7499C5.90182 12.1237 6.23185 12.2888 6.98813 12.5753C8.02182 12.9578 8.50849 13.4963 8.50849 14.3216C8.50849 15.3035 7.75279 16.1376 6.14503 16.1376C5.47615 16.1376 4.81555 15.9641 4.48585 15.7814ZM18.4707 21.0033H5.52949V17.2252H18.4706V21.0033H18.4707ZM19.7528 15.7814C19.3445 15.9202 18.5713 16.1119 17.7981 16.1119C16.7293 16.1119 15.9561 15.8423 15.4173 15.3211C14.8784 14.8173 14.5832 14.0523 14.5916 13.1924C14.6008 11.246 16.017 10.1338 17.9372 10.1338C18.6928 10.1338 19.2753 10.2816 19.5617 10.4205L19.2837 11.4808C18.962 11.3418 18.563 11.2285 17.9196 11.2285C16.8159 11.2285 15.9822 11.8542 15.9822 13.1229C15.9822 14.3308 16.7378 15.0431 17.8242 15.0431C18.1283 15.0431 18.3715 15.0082 18.4756 14.9561V13.7308H17.5724V12.697H19.7528V15.7814H19.7528Z" fill="black"/>
</svg>
