<svg width="24" height="24" viewBox="0 0 24 24" fill="none" xmlns="http://www.w3.org/2000/svg">
<path d="M18 10V9.25H17.25V10H18ZM17.25 16C17.25 16.4142 17.5858 16.75 18 16.75C18.4142 16.75 18.75 16.4142 18.75 16H17.25ZM21 10.75C21.4142 10.75 21.75 10.4142 21.75 10C21.75 9.58579 21.4142 9.25 21 9.25V10.75ZM20.5 13.75C20.9142 13.75 21.25 13.4142 21.25 13C21.25 12.5858 20.9142 12.25 20.5 12.25V13.75ZM6.73236 10.7605C7.14657 10.7605 7.48236 10.4247 7.48236 10.0105C7.48236 9.59624 7.14657 9.26045 6.73236 9.26045V10.7605ZM5.49091 10.0105L5.43721 9.26238L5.49091 10.0105ZM4.30253 12.3664L4.87467 11.8814H4.87467L4.30253 12.3664ZM6.35674 13.364L5.94883 13.9933H5.94883L6.35674 13.364ZM5.49091 16V15.25H5.49091L5.49091 16ZM4.17214 15.25C3.75792 15.25 3.42214 15.5858 3.42214 16C3.42214 16.4142 3.75792 16.75 4.17214 16.75L4.17214 15.25ZM9.56032 9.8181C9.45986 9.41625 9.05265 9.17193 8.65081 9.27239C8.24896 9.37285 8.00464 9.78006 8.1051 10.1819L9.56032 9.8181ZM10.3327 16L9.6051 16.1819C9.68598 16.5054 9.97072 16.7367 10.3039 16.7494C10.6371 16.7622 10.9388 16.5535 11.0442 16.2372L10.3327 16ZM12.3327 10L13.0442 9.76283C12.9421 9.45657 12.6555 9.25 12.3327 9.25C12.0099 9.25 11.7233 9.45657 11.6212 9.76283L12.3327 10ZM14.3327 16L13.6212 16.2372C13.7266 16.5535 14.0283 16.7622 14.3615 16.7494C14.6947 16.7367 14.9794 16.5054 15.0603 16.1819L14.3327 16ZM16.5603 10.1819C16.6608 9.78006 16.4165 9.37285 16.0146 9.27239C15.6128 9.17193 15.2056 9.41625 15.1051 9.8181L16.5603 10.1819ZM19 20V20.75H19.75V20H19ZM5 20H4.25V20.75H5V20ZM5 4V3.25H4.25V4H5ZM16 4L16.5303 3.46967L16.3107 3.25H16V4ZM19 7L19.75 7V6.68934L19.5303 6.46967L19 7ZM17.25 10V13H18.75V10H17.25ZM17.25 13V16H18.75V13H17.25ZM18 10.75H21V9.25H18V10.75ZM18 13.75H20.5V12.25H18V13.75ZM6.73236 9.26045C6.02862 9.26045 5.8092 9.25458 5.72808 9.25201C5.70151 9.25117 5.6468 9.24836 5.58548 9.25154C5.55661 9.25303 5.49325 9.25836 5.43721 9.26238L5.54461 10.7585C5.58816 10.7554 5.61822 10.753 5.63915 10.7514C5.66383 10.7495 5.66486 10.7494 5.66311 10.7495C5.64436 10.7505 5.61443 10.7492 5.68052 10.7513C5.78471 10.7546 6.02218 10.7605 6.73236 10.7605V9.26045ZM5.43721 9.26238C4.3544 9.34011 3.64609 9.94467 3.37367 10.7309C3.12534 11.4477 3.25546 12.291 3.73038 12.8513L4.87467 11.8814C4.77348 11.7621 4.70002 11.4846 4.79102 11.222C4.85793 11.0289 5.03187 10.7953 5.54461 10.7585L5.43721 9.26238ZM3.73038 12.8513C4.16134 13.3598 4.6299 13.5219 5.01683 13.6313C5.38327 13.735 5.63042 13.787 5.94883 13.9933L6.76464 12.7346C6.21723 12.3798 5.72532 12.2729 5.42514 12.188C5.14545 12.1088 5.01982 12.0527 4.87467 11.8814L3.73038 12.8513ZM5.94883 13.9933C6.18004 14.1432 6.30219 14.4619 6.22974 14.766C6.19651 14.9055 6.12599 15.0184 6.02657 15.0973C5.93074 15.1733 5.76739 15.25 5.49091 15.25V16.75C6.69123 16.75 7.47256 16.0217 7.68889 15.1137C7.8895 14.2717 7.59438 13.2724 6.76464 12.7346L5.94883 13.9933ZM5.49091 15.25L4.17214 15.25L4.17214 16.75L5.49091 16.75L5.49091 15.25ZM8.1051 10.1819L9.6051 16.1819L11.0603 15.8181L9.56032 9.8181L8.1051 10.1819ZM11.0442 16.2372L13.0442 10.2372L11.6212 9.76283L9.6212 15.7628L11.0442 16.2372ZM11.6212 10.2372L13.6212 16.2372L15.0442 15.7628L13.0442 9.76283L11.6212 10.2372ZM15.0603 16.1819L16.5603 10.1819L15.1051 9.8181L13.6051 15.8181L15.0603 16.1819ZM19 19.25H5V20.75H19V19.25ZM5 4.75H16V3.25H5V4.75ZM15.4697 4.53033L18.4697 7.53033L19.5303 6.46967L16.5303 3.46967L15.4697 4.53033ZM5.75 8V4H4.25V8H5.75ZM5.75 20V18H4.25V20H5.75ZM18.25 7L18.25 8L19.75 8L19.75 7L18.25 7ZM18.25 18V20H19.75V18H18.25Z" fill="black"/>
</svg>
