<svg width="24" height="24" viewBox="0 0 24 24" fill="none" xmlns="http://www.w3.org/2000/svg">
<path d="M19 20V20.75H19.75V20H19ZM5 20H4.25V20.75H5V20ZM5 4V3.25H4.25V4H5ZM16 4L16.5303 3.46967L16.3107 3.25H16V4ZM19 7L19.75 7V6.68934L19.5303 6.46967L19 7ZM7.73236 10.7605C8.14657 10.7605 8.48236 10.4247 8.48236 10.0105C8.48236 9.59624 8.14657 9.26045 7.73236 9.26045V10.7605ZM6.49091 10.0105L6.43721 9.26238L6.49091 10.0105ZM5.30253 12.3664L5.87467 11.8814H5.87467L5.30253 12.3664ZM7.35674 13.364L6.94883 13.9933H6.94883L7.35674 13.364ZM6.49091 16V15.25H6.49091L6.49091 16ZM5.17214 15.25C4.75792 15.25 4.42214 15.5858 4.42214 16C4.42214 16.4142 4.75792 16.75 5.17214 16.75L5.17214 15.25ZM18.7324 10.7605C19.1466 10.7605 19.4824 10.4247 19.4824 10.0105C19.4824 9.59624 19.1466 9.26045 18.7324 9.26045V10.7605ZM17.4909 10.0105L17.4372 9.26238L17.4909 10.0105ZM16.3025 12.3664L16.8747 11.8814L16.3025 12.3664ZM18.3567 13.364L17.9488 13.9933H17.9488L18.3567 13.364ZM17.4909 16V15.25H17.4909L17.4909 16ZM16.1721 15.25C15.7579 15.25 15.4221 15.5858 15.4221 16C15.4221 16.4142 15.7579 16.75 16.1721 16.75L16.1721 15.25ZM10.6708 9.66459C10.4856 9.29411 10.0351 9.14394 9.66459 9.32918C9.29411 9.51442 9.14394 9.96493 9.32918 10.3354L10.6708 9.66459ZM14.6708 10.3354C14.8561 9.96493 14.7059 9.51442 14.3354 9.32918C13.9649 9.14394 13.5144 9.29411 13.3292 9.66459L14.6708 10.3354ZM11.25 16C11.25 16.4142 11.5858 16.75 12 16.75C12.4142 16.75 12.75 16.4142 12.75 16H11.25ZM19 19.25H5V20.75H19V19.25ZM5 4.75H16V3.25H5V4.75ZM15.4697 4.53033L18.4697 7.53033L19.5303 6.46967L16.5303 3.46967L15.4697 4.53033ZM5.75 8V4H4.25V8H5.75ZM5.75 20V18H4.25V20H5.75ZM18.25 7L18.25 8L19.75 8L19.75 7L18.25 7ZM18.25 18V20H19.75V18H18.25ZM7.73236 9.26045C7.02862 9.26045 6.8092 9.25458 6.72808 9.25201C6.70151 9.25117 6.6468 9.24836 6.58548 9.25154C6.55661 9.25303 6.49325 9.25836 6.43721 9.26238L6.54461 10.7585C6.58816 10.7554 6.61822 10.753 6.63915 10.7514C6.66383 10.7495 6.66486 10.7494 6.66311 10.7495C6.64436 10.7505 6.61443 10.7492 6.68052 10.7513C6.78471 10.7546 7.02218 10.7605 7.73236 10.7605V9.26045ZM6.43721 9.26238C5.3544 9.34011 4.64609 9.94467 4.37367 10.7309C4.12534 11.4477 4.25546 12.291 4.73038 12.8513L5.87467 11.8814C5.77348 11.7621 5.70002 11.4846 5.79102 11.222C5.85793 11.0289 6.03187 10.7953 6.54461 10.7585L6.43721 9.26238ZM4.73038 12.8513C5.16134 13.3598 5.6299 13.5219 6.01683 13.6313C6.38327 13.735 6.63042 13.787 6.94883 13.9933L7.76464 12.7346C7.21723 12.3798 6.72532 12.2729 6.42514 12.188C6.14545 12.1088 6.01982 12.0527 5.87467 11.8814L4.73038 12.8513ZM6.94883 13.9933C7.18004 14.1432 7.30219 14.4619 7.22974 14.766C7.19651 14.9055 7.12599 15.0184 7.02657 15.0973C6.93074 15.1733 6.76739 15.25 6.49091 15.25V16.75C7.69123 16.75 8.47256 16.0217 8.68889 15.1137C8.8895 14.2717 8.59438 13.2724 7.76464 12.7346L6.94883 13.9933ZM6.49091 15.25L5.17214 15.25L5.17214 16.75L6.49091 16.75L6.49091 15.25ZM18.7324 9.26045C18.0286 9.26045 17.8092 9.25458 17.7281 9.25201C17.7015 9.25117 17.6468 9.24836 17.5855 9.25154C17.5566 9.25303 17.4933 9.25836 17.4372 9.26238L17.5446 10.7585C17.5882 10.7554 17.6182 10.753 17.6392 10.7514C17.6638 10.7495 17.6649 10.7494 17.6631 10.7495C17.6444 10.7505 17.6144 10.7492 17.6805 10.7513C17.7847 10.7546 18.0222 10.7605 18.7324 10.7605V9.26045ZM17.4372 9.26238C16.3544 9.34011 15.6461 9.94467 15.3737 10.7309C15.1253 11.4477 15.2555 12.291 15.7304 12.8513L16.8747 11.8814C16.7735 11.7621 16.7 11.4846 16.791 11.222C16.8579 11.0289 17.0319 10.7953 17.5446 10.7585L17.4372 9.26238ZM15.7304 12.8513C16.1613 13.3598 16.6299 13.5219 17.0168 13.6313C17.3833 13.735 17.6304 13.787 17.9488 13.9933L18.7646 12.7346C18.2172 12.3798 17.7253 12.2729 17.4251 12.188C17.1454 12.1088 17.0198 12.0527 16.8747 11.8814L15.7304 12.8513ZM17.9488 13.9933C18.18 14.1432 18.3022 14.4619 18.2297 14.766C18.1965 14.9055 18.126 15.0184 18.0266 15.0973C17.9307 15.1733 17.7674 15.25 17.4909 15.25V16.75C18.6912 16.75 19.4726 16.0217 19.6889 15.1137C19.8895 14.2717 19.5944 13.2724 18.7646 12.7346L17.9488 13.9933ZM17.4909 15.25L16.1721 15.25L16.1721 16.75L17.4909 16.75L17.4909 15.25ZM9.32918 10.3354L11.3292 14.3354L12.6708 13.6646L10.6708 9.66459L9.32918 10.3354ZM12.6708 14.3354L14.6708 10.3354L13.3292 9.66459L11.3292 13.6646L12.6708 14.3354ZM11.25 14V16H12.75V14H11.25Z" fill="black"/>
</svg>
