<svg width="24" height="24" viewBox="0 0 24 24" fill="none" xmlns="http://www.w3.org/2000/svg">
<path d="M19.7352 9.15391H19.255V6.8367C19.255 6.82214 19.2527 6.80769 19.2507 6.79295C19.25 6.70104 19.2205 6.61063 19.1577 6.53906L15.3014 2.13413C15.3005 2.13301 15.2993 2.1325 15.2985 2.13137C15.2756 2.1057 15.2488 2.08435 15.2204 2.06587C15.212 2.06024 15.2036 2.05545 15.1948 2.05054C15.1703 2.03725 15.1442 2.02603 15.1174 2.01801C15.1101 2.01609 15.1036 2.01311 15.0963 2.01118C15.0672 2.00432 15.037 2 15.0063 2H5.52952C5.09677 2 4.74521 2.35196 4.74521 2.78435V9.15373H4.26496C3.64601 9.15373 3.14401 9.65547 3.14401 10.2747V16.1043C3.14401 16.7229 3.64597 17.2252 4.26496 17.2252H4.74521V21.2157C4.74521 21.648 5.09677 22 5.52952 22H18.4706C18.903 22 19.255 21.648 19.255 21.2157V17.2252H19.7352C20.3541 17.2252 20.8561 16.7231 20.8561 16.1043V10.2749C20.8561 9.65547 20.3541 9.15391 19.7352 9.15391ZM5.52952 2.78449H14.6142V6.7972C14.6142 7.01386 14.79 7.18935 15.0064 7.18935H18.4706V9.15405H5.52952V2.78449ZM9.75303 10.3369H11.1759L11.74 11.6612C11.9116 12.0617 12.0261 12.3558 12.1651 12.7162H12.1818C12.3043 12.3726 12.4349 12.0536 12.5984 11.6612L13.1545 10.3369H14.5529L12.7377 13.5502V15.8478H11.4946V13.5908L9.75303 10.3369ZM7.17671 13.5338C6.26085 13.2148 5.66383 12.7077 5.66383 11.9067C5.66383 10.9661 6.44868 10.2469 7.74908 10.2469C8.37043 10.2469 8.82845 10.3775 9.15532 10.5245L8.87751 11.5306C8.65652 11.4241 8.26436 11.269 7.72461 11.269C7.18463 11.269 6.92305 11.5141 6.92305 11.8002C6.92305 12.1517 7.23383 12.3067 7.94516 12.5771C8.91828 12.9367 9.37642 13.4437 9.37642 14.2204C9.37642 15.1447 8.66476 15.9297 7.15228 15.9297C6.52247 15.9297 5.90094 15.7662 5.59034 15.5946L5.84386 14.5641C6.17911 14.7357 6.6944 14.9076 7.22577 14.9076C7.7981 14.9076 8.10064 14.6706 8.10064 14.3106C8.10064 13.9669 7.83909 13.7708 7.17671 13.5338ZM18.4706 21.0033H5.52952V17.2252H18.4706V21.0033ZM16.2624 15.9298C15.6329 15.9298 15.0113 15.7663 14.7007 15.5947L14.9542 14.5641C15.2894 14.7357 15.8044 14.9076 16.336 14.9076C16.9085 14.9076 17.2111 14.6706 17.2111 14.3106C17.2111 13.9669 16.9491 13.7708 16.287 13.5337C15.3709 13.2148 14.7743 12.7077 14.7743 11.9066C14.7743 10.9661 15.559 10.2469 16.8595 10.2469C17.4809 10.2469 17.9387 10.3775 18.266 10.5245L17.9877 11.5306C17.7672 11.4241 17.3746 11.269 16.835 11.269C16.295 11.269 16.0335 11.5141 16.0335 11.8001C16.0335 12.1516 16.3441 12.3067 17.0556 12.5771C18.0287 12.9367 18.4865 13.4437 18.4865 14.2203C18.4865 15.1447 17.7752 15.9298 16.2624 15.9298Z" fill="black"/>
</svg>
