<svg width="24" height="24" viewBox="0 0 24 24" fill="none" xmlns="http://www.w3.org/2000/svg">
<path d="M19.7352 9.15391H19.2549V6.8367C19.2549 6.82214 19.2526 6.80769 19.2507 6.79295C19.2499 6.70094 19.2207 6.61056 19.1577 6.53906L15.3016 2.13402C15.3004 2.1329 15.2993 2.1325 15.2985 2.13137C15.2755 2.1057 15.2487 2.08424 15.2204 2.06587C15.212 2.06013 15.2036 2.05545 15.1948 2.05054C15.1702 2.03725 15.1442 2.02603 15.1174 2.01801C15.1101 2.01609 15.1036 2.01311 15.0963 2.01111C15.0672 2.00432 15.037 2 15.0063 2H5.52948C5.09673 2 4.74517 2.35196 4.74517 2.78435V9.15373H4.26503C3.64597 9.15373 3.14401 9.65547 3.14401 10.2746V16.104C3.14401 16.7229 3.64597 17.2252 4.26503 17.2252H4.74521V21.2157C4.74521 21.648 5.09677 22 5.52952 22H18.4706C18.903 22 19.255 21.648 19.255 21.2157V17.2252H19.7352C20.3541 17.2252 20.8561 16.7231 20.8561 16.1043V10.2749C20.8561 9.65569 20.354 9.15391 19.7352 9.15391ZM5.52948 2.78449H14.6142V6.7972C14.6142 7.01386 14.7899 7.18935 15.0063 7.18935H18.4706V9.15405H5.52948V2.78449ZM14.2121 16.1552H12.7866L12.3351 14.652H10.6581L10.2409 16.1552H8.86792L10.6581 10.2992H12.3956L14.2121 16.1552ZM4.71485 11.4113V10.2992H9.21581V11.4113H7.61716V16.1552H6.28761V11.4113H4.71485ZM18.4706 21.0033H5.52948V17.2252H18.4706L18.4706 21.0033ZM18.0616 16.1552C17.9663 15.9899 17.8273 15.5118 17.6534 14.791C17.4968 14.0613 17.2449 13.8616 16.7061 13.8524H16.3065V16.1552H14.995V10.3772C15.4207 10.3077 16.0545 10.2551 16.7584 10.2551C17.6275 10.2551 18.2355 10.3856 18.6529 10.7158C19.0002 10.9938 19.1913 11.4021 19.1913 11.9409C19.1913 12.6885 18.6613 13.201 18.1575 13.3831V13.4093C18.5658 13.5748 18.7919 13.9657 18.9393 14.5046C19.122 15.1642 19.3043 15.9292 19.4171 16.1552H18.0616Z" fill="black"/>
<path d="M16.9055 11.2369C16.5842 11.2369 16.4018 11.2629 16.3058 11.2807V12.8968H16.8272C17.4878 12.8968 17.8786 12.5664 17.8786 12.0539C17.8788 11.5153 17.5139 11.2457 16.9055 11.2369Z" fill="black"/>
<path d="M11.7789 12.4183C11.6748 12.0712 11.5705 11.6368 11.4838 11.2894H11.4664C11.3798 11.6366 11.2923 12.08 11.1972 12.4183L10.8494 13.6614H12.1441L11.7789 12.4183Z" fill="black"/>
</svg>
