<svg xmlns="http://www.w3.org/2000/svg" width="20" height="20" fill="none" viewBox="0 0 20 20">
  <path fill="#A0A0A0" d="M17.735 7.154h-.48V4.837c0-.015-.002-.03-.004-.044a.384.384 0 00-.093-.254L13.302.134l-.003-.003a.381.381 0 00-.104-.08.41.41 0 00-.078-.033l-.02-.007a.398.398 0 00-.09-.011H3.53a.785.785 0 00-.785.784v6.37h-.48a1.12 1.12 0 00-1.121 1.12v5.83c0 .619.502 1.121 1.121 1.121h.48v3.99c0 .433.352.785.785.785h12.94a.785.785 0 00.785-.784v-3.99h.48c.62 0 1.121-.503 1.121-1.122v-5.83c0-.618-.502-1.12-1.12-1.12zM3.53.784h9.084v4.013c0 .217.176.392.392.392h3.465v1.965H3.53V.784zm8.682 13.371h-1.425l-.452-1.503H8.658l-.417 1.503H6.868L8.658 8.3h1.738l1.816 5.856zM2.715 9.411V8.3h4.5v1.112H5.618v4.744h-1.33V9.411H2.716zm13.756 9.592H3.53v-3.778h12.94v3.778zm-.41-4.848c-.095-.165-.234-.643-.408-1.364-.156-.73-.408-.93-.947-.939h-.4v2.303h-1.31V8.377c.425-.07 1.059-.122 1.762-.122.87 0 1.477.13 1.895.46.347.279.538.687.538 1.226 0 .747-.53 1.26-1.033 1.442v.026c.408.166.634.557.781 1.096.183.66.365 1.424.478 1.65h-1.355z"/>
  <path fill="#A0A0A0" d="M14.905 9.237a3.27 3.27 0 00-.6.044v1.616h.522c.66 0 1.052-.33 1.052-.843 0-.539-.365-.808-.974-.817zM9.78 10.418c-.105-.347-.21-.781-.296-1.129h-.017c-.087.348-.175.791-.27 1.13L8.85 11.66h1.294l-.365-1.243z"/>
</svg>
