<svg width="24" height="24" viewBox="0 0 24 24" fill="none" xmlns="http://www.w3.org/2000/svg">
<path d="M19.7352 9.15398H19.2549V6.83645C19.2549 6.822 19.2526 6.80744 19.2507 6.79277C19.25 6.70079 19.2207 6.61041 19.1577 6.53877L15.3016 2.13413C15.3004 2.13301 15.2993 2.13261 15.2985 2.13144C15.2755 2.1057 15.2487 2.08435 15.2204 2.06598C15.212 2.06024 15.2036 2.05552 15.1948 2.05065C15.1702 2.03725 15.1442 2.02614 15.1174 2.01812C15.1101 2.01609 15.1036 2.01311 15.0963 2.01122C15.0672 2.00432 15.037 2 15.0063 2H5.52949C5.09674 2 4.74518 2.35203 4.74518 2.78435V9.15373H4.26505C3.64599 9.15373 3.14403 9.65547 3.14403 10.2747V16.1043C3.14403 16.7231 3.64599 17.2252 4.26505 17.2252H4.74522V21.2157C4.74522 21.648 5.09678 22 5.52953 22H18.4707C18.903 22 19.255 21.648 19.255 21.2157V17.2252H19.7352C20.3541 17.2252 20.8562 16.7231 20.8562 16.1043V10.2749C20.8561 9.65547 20.3541 9.15398 19.7352 9.15398ZM5.17401 11.4061V10.3967H9.25871V11.4061H7.80777V15.7117H6.60153V11.4061H5.17401ZM18.4707 21.0031H5.52949V17.2252H18.4706V21.0031H18.4707ZM13.0607 12.4864V13.4641H11.105V14.7262H13.2893V15.7117H9.89876V10.3967H13.1788V11.3824H11.105V12.4864H13.0607ZM13.7713 10.3967H15.1511L15.6164 11.3666C15.7744 11.6898 15.8925 11.9504 16.0187 12.2497H16.0346C16.1606 11.9108 16.2633 11.6742 16.3973 11.3666L16.8465 10.3967H18.219L16.7207 12.9911L18.2977 15.7117H16.9097L16.4289 14.7497C16.2318 14.3786 16.1055 14.1029 15.9555 13.7955H15.94C15.8297 14.1029 15.6953 14.379 15.5296 14.7497L15.0879 15.7117H13.7161L15.2541 13.0225L13.7713 10.3967ZM18.4707 9.15398H5.52949V2.78435H14.6142V6.79716C14.6142 7.01383 14.79 7.18932 15.0063 7.18932H18.4706V9.15398H18.4707Z" fill="black"/>
</svg>
