<svg width="24" height="24" viewBox="0 0 24 24" fill="none" xmlns="http://www.w3.org/2000/svg">
<path d="M19 20V20.75H19.75V20H19ZM5 20H4.25V20.75H5V20ZM5 4V3.25H4.25V4H5ZM16 4L16.5303 3.46967L16.3107 3.25H16V4ZM19 7L19.75 7V6.68934L19.5303 6.46967L19 7ZM6.25 16C6.25 16.4142 6.58579 16.75 7 16.75C7.41421 16.75 7.75 16.4142 7.75 16H6.25ZM5 9.25C4.58579 9.25 4.25 9.58579 4.25 10C4.25 10.4142 4.58579 10.75 5 10.75V9.25ZM9 10.75C9.41421 10.75 9.75 10.4142 9.75 10C9.75 9.58579 9.41421 9.25 9 9.25V10.75ZM11 10V9.25H10.25V10H11ZM11 16H10.25V16.75H11V16ZM14 10.75C14.4142 10.75 14.75 10.4142 14.75 10C14.75 9.58579 14.4142 9.25 14 9.25V10.75ZM13.5 13.75C13.9142 13.75 14.25 13.4142 14.25 13C14.25 12.5858 13.9142 12.25 13.5 12.25V13.75ZM14 16.75C14.4142 16.75 14.75 16.4142 14.75 16C14.75 15.5858 14.4142 15.25 14 15.25V16.75ZM16.6708 9.66459C16.4856 9.29411 16.0351 9.14394 15.6646 9.32918C15.2941 9.51442 15.1439 9.96493 15.3292 10.3354L16.6708 9.66459ZM18.3292 16.3354C18.5144 16.7059 18.9649 16.8561 19.3354 16.6708C19.7059 16.4856 19.8561 16.0351 19.6708 15.6646L18.3292 16.3354ZM19.6708 10.3354C19.8561 9.96493 19.7059 9.51442 19.3354 9.32918C18.9649 9.14394 18.5144 9.29411 18.3292 9.66459L19.6708 10.3354ZM15.3292 15.6646C15.1439 16.0351 15.2941 16.4856 15.6646 16.6708C16.0351 16.8561 16.4856 16.7059 16.6708 16.3354L15.3292 15.6646ZM19 19.25H5V20.75H19V19.25ZM5 4.75H16V3.25H5V4.75ZM15.4697 4.53033L18.4697 7.53033L19.5303 6.46967L16.5303 3.46967L15.4697 4.53033ZM5.75 8V4H4.25V8H5.75ZM5.75 20V18H4.25V20H5.75ZM18.25 7L18.25 8L19.75 8L19.75 7L18.25 7ZM18.25 18V20H19.75V18H18.25ZM6.25 10V16H7.75V10H6.25ZM5 10.75H7V9.25H5V10.75ZM7 10.75H9V9.25H7V10.75ZM10.25 10V13H11.75V10H10.25ZM10.25 13V16H11.75V13H10.25ZM11 10.75H14V9.25H11V10.75ZM11 13.75H13.5V12.25H11V13.75ZM11 16.75H14V15.25H11V16.75ZM15.3292 10.3354L16.8292 13.3354L18.1708 12.6646L16.6708 9.66459L15.3292 10.3354ZM16.8292 13.3354L18.3292 16.3354L19.6708 15.6646L18.1708 12.6646L16.8292 13.3354ZM18.3292 9.66459L16.8292 12.6646L18.1708 13.3354L19.6708 10.3354L18.3292 9.66459ZM16.8292 12.6646L15.3292 15.6646L16.6708 16.3354L18.1708 13.3354L16.8292 12.6646Z" fill="black"/>
</svg>
