<svg width="24" height="24" viewBox="0 0 24 24" fill="none" xmlns="http://www.w3.org/2000/svg">
<path d="M19.735 9.1539H19.2547V6.8367C19.2547 6.82226 19.2525 6.8077 19.2508 6.79293C19.25 6.70101 19.2205 6.61065 19.1575 6.53905L15.3013 2.13413C15.3 2.133 15.2989 2.13259 15.2982 2.13139C15.2752 2.10571 15.2484 2.08433 15.22 2.06588C15.2116 2.06026 15.2032 2.05555 15.1944 2.05059C15.1699 2.03728 15.1438 2.02608 15.117 2.01802C15.1097 2.01612 15.1032 2.01313 15.096 2.01123C15.0668 2.0043 15.0366 2 15.006 2H5.52907C5.09634 2 4.74478 2.35197 4.74478 2.78433V9.15368H4.2646C3.64554 9.15368 3.14359 9.65546 3.14359 10.2747V16.1042C3.14359 16.7229 3.64554 17.2252 4.2646 17.2252H4.74478V21.2157C4.74478 21.6481 5.09634 22 5.52907 22H18.4702C18.9026 22 19.2545 21.6481 19.2545 21.2157V17.2252H19.7348C20.3536 17.2252 20.8557 16.7231 20.8557 16.1042V10.2749C20.8557 9.6555 20.354 9.1539 19.735 9.1539ZM5.52907 2.78433H14.6138V6.79701C14.6138 7.01369 14.7895 7.18918 15.006 7.18918H18.4703V9.15387H5.52907V2.78433ZM12.1263 14.8807C12.4202 14.8807 12.6553 14.847 12.756 14.7968V13.6127H11.8828V12.6133H13.9905V15.5944C13.5959 15.7286 12.8485 15.9134 12.101 15.9134C11.0683 15.9134 10.3208 15.6529 9.80031 15.1496C9.27982 14.6624 8.99413 13.9233 9.00255 13.0923C9.0108 11.2111 10.3797 10.1366 12.2353 10.1366C12.9659 10.1366 13.5284 10.2795 13.8057 10.4135L13.5368 11.4379C13.2263 11.3037 12.8401 11.1948 12.2187 11.1948C11.1524 11.1948 10.3461 11.7991 10.3461 13.0248C10.3461 14.1921 11.0765 14.8807 12.1263 14.8807ZM4.477 11.27V10.1951H8.82652V11.27H7.28146V15.8549H5.99678V11.27H4.477ZM18.4703 21.0033H5.52907V17.2252H18.4702L18.4703 21.0033ZM18.3649 15.8549L17.9283 14.402H16.3076L15.9045 15.8549H14.5778L16.3076 10.1951H17.9869L19.7417 15.8549H18.3649Z" fill="black"/>
<path d="M17.1054 11.1522H17.0886C17.0045 11.4881 16.9207 11.9161 16.8281 12.2439L16.4923 13.4445H17.7435L17.3907 12.2439C17.2902 11.9083 17.1895 11.4881 17.1054 11.1522Z" fill="black"/>
</svg>
