<svg width="24" height="24" viewBox="0 0 24 24" fill="none" xmlns="http://www.w3.org/2000/svg">
<path d="M19 20V20.75H19.75V20H19ZM5.00003 20H4.25003V20.75H5.00003V20ZM5.00003 4V3.25H4.25003V4H5.00003ZM16 4L16.5304 3.46967L16.3107 3.25H16V4ZM19 7H19.75V6.68934L19.5304 6.46967L19 7ZM5.5 16C5.5 16.4142 5.83579 16.75 6.25 16.75C6.66421 16.75 7 16.4142 7 16H5.5ZM4.25 9.25C3.83579 9.25 3.5 9.58579 3.5 10C3.5 10.4142 3.83579 10.75 4.25 10.75V9.25ZM8.25 10.75C8.66421 10.75 9 10.4142 9 10C9 9.58579 8.66421 9.25 8.25 9.25V10.75ZM10.0102 11.6364H10.7602V11.6363L10.0102 11.6364ZM13.5102 13.2727H14.2602V12.5227H13.5102V13.2727ZM12 12.5227C11.5858 12.5227 11.25 12.8585 11.25 13.2727C11.25 13.6869 11.5858 14.0227 12 14.0227V12.5227ZM12.7602 11.6364C12.7602 12.0506 13.096 12.3864 13.5102 12.3864C13.9245 12.3864 14.2602 12.0506 14.2602 11.6364H12.7602ZM15.0225 15.8181C14.922 16.2199 15.1663 16.6271 15.5682 16.7276C15.97 16.8281 16.3772 16.5837 16.4777 16.1819L15.0225 15.8181ZM17.2501 10V9.25C16.9059 9.25 16.6059 9.48422 16.5225 9.8181L17.2501 10ZM18.2501 10L18.9777 9.8181C18.8942 9.48422 18.5942 9.25 18.2501 9.25V10ZM19.0225 16.1819C19.1229 16.5837 19.5301 16.8281 19.932 16.7276C20.3338 16.6271 20.5781 16.2199 20.4777 15.8181L19.0225 16.1819ZM19 19.25H5.00003V20.75H19V19.25ZM5.00003 4.75H16V3.25H5.00003V4.75ZM15.4697 4.53033L18.4697 7.53033L19.5304 6.46967L16.5304 3.46967L15.4697 4.53033ZM5.75003 8V4H4.25003V8H5.75003ZM5.75003 20V18H4.25003V20H5.75003ZM18.25 7V8H19.75V7H18.25ZM18.25 18V20H19.75V18H18.25ZM5.5 10V16H7V10H5.5ZM4.25 10.75H6.25V9.25H4.25V10.75ZM6.25 10.75H8.25V9.25H6.25V10.75ZM11.7091 9.25C10.8082 9.25 10.1704 9.66113 9.77848 10.1769C9.41228 10.6588 9.26021 11.2286 9.26025 11.6364L10.7602 11.6363C10.7602 11.5441 10.8122 11.2957 10.9728 11.0845C11.1076 10.907 11.3192 10.75 11.7091 10.75V9.25ZM9.26025 11.6364V14.2149H10.7602V11.6364H9.26025ZM9.26025 14.2149C9.26025 15.5947 10.2613 16.7227 11.7091 16.7227V15.2227C11.1568 15.2227 10.7602 14.835 10.7602 14.2149H9.26025ZM14.2602 14.3636V13.2727H12.7602V14.3636H14.2602ZM13.5102 12.5227H12V14.0227H13.5102V12.5227ZM14.2602 11.6364C14.2602 10.9132 13.9699 10.2948 13.4751 9.86709C12.9917 9.44921 12.358 9.25 11.7091 9.25V10.75C12.0601 10.75 12.327 10.8574 12.4942 11.0019C12.65 11.1366 12.7602 11.3364 12.7602 11.6364H14.2602ZM11.7091 16.7227C12.3285 16.7227 12.9638 16.563 13.4594 16.1579C13.9761 15.7355 14.2602 15.1109 14.2602 14.3636H12.7602C12.7602 14.7073 12.6438 14.8872 12.51 14.9966C12.355 15.1233 12.0897 15.2227 11.7091 15.2227V16.7227ZM16.4777 16.1819L16.9777 14.1819L15.5225 13.8181L15.0225 15.8181L16.4777 16.1819ZM16.9777 14.1819L17.9777 10.1819L16.5225 9.8181L15.5225 13.8181L16.9777 14.1819ZM17.2501 10.75H18.2501V9.25H17.2501V10.75ZM17.5225 10.1819L18.5225 14.1819L19.9777 13.8181L18.9777 9.8181L17.5225 10.1819ZM18.5225 14.1819L19.0225 16.1819L20.4777 15.8181L19.9777 13.8181L18.5225 14.1819ZM16.2501 14.75H19.2501V13.25H16.2501V14.75Z" fill="black"/>
</svg>
