<svg width="24" height="24" viewBox="0 0 24 24" fill="none" xmlns="http://www.w3.org/2000/svg">
<path d="M19 20V20.75H19.75V20H19ZM5 20H4.25V20.75H5V20ZM5 4V3.25H4.25V4H5ZM16 4L16.5303 3.46967L16.3107 3.25H16V4ZM19 7H19.75V6.68934L19.5303 6.46967L19 7ZM4.25 16C4.25 16.4142 4.58579 16.75 5 16.75C5.41421 16.75 5.75 16.4142 5.75 16H4.25ZM3 9.25C2.58579 9.25 2.25 9.58579 2.25 10C2.25 10.4142 2.58579 10.75 3 10.75V9.25ZM7 10.75C7.41421 10.75 7.75 10.4142 7.75 10C7.75 9.58579 7.41421 9.25 7 9.25V10.75ZM9.99517 10C9.99517 9.58579 9.65938 9.25 9.24517 9.25C8.83096 9.25 8.49517 9.58579 8.49517 10H9.99517ZM8.49517 16C8.49517 16.4142 8.83096 16.75 9.24517 16.75C9.65938 16.75 9.99517 16.4142 9.99517 16H8.49517ZM12.9952 10C12.9952 9.58579 12.6594 9.25 12.2452 9.25C11.831 9.25 11.4952 9.58579 11.4952 10H12.9952ZM11.4952 16C11.4952 16.4142 11.831 16.75 12.2452 16.75C12.6594 16.75 12.9952 16.4142 12.9952 16H11.4952ZM15 10V9.25C14.5858 9.25 14.25 9.58579 14.25 10H15ZM14.25 16C14.25 16.4142 14.5858 16.75 15 16.75C15.4142 16.75 15.75 16.4142 15.75 16H14.25ZM15.7143 10L16.4114 9.72337C16.298 9.43761 16.0217 9.25 15.7143 9.25V10ZM17.5 14.5L16.8029 14.7766C16.9163 15.0624 17.1926 15.25 17.5 15.25C17.8074 15.25 18.0837 15.0624 18.1971 14.7766L17.5 14.5ZM19.2857 10V9.25C18.9783 9.25 18.702 9.43761 18.5886 9.72337L19.2857 10ZM20 10H20.75C20.75 9.58579 20.4142 9.25 20 9.25V10ZM19.25 16C19.25 16.4142 19.5858 16.75 20 16.75C20.4142 16.75 20.75 16.4142 20.75 16H19.25ZM19 19.25H5V20.75H19V19.25ZM5 4.75H16V3.25H5V4.75ZM15.4697 4.53033L18.4697 7.53033L19.5303 6.46967L16.5303 3.46967L15.4697 4.53033ZM5.75 8V4H4.25V8H5.75ZM5.75 20V18H4.25V20H5.75ZM18.25 7V8H19.75V7H18.25ZM18.25 18V20H19.75V18H18.25ZM4.25 10V16H5.75V10H4.25ZM3 10.75H5V9.25H3V10.75ZM5 10.75H7V9.25H5V10.75ZM8.49517 10V13H9.99517V10H8.49517ZM8.49517 13V16H9.99517V13H8.49517ZM11.4952 10V13H12.9952V10H11.4952ZM11.4952 13V16H12.9952V13H11.4952ZM9.24517 13.75H12.2452V12.25H9.24517V13.75ZM14.25 10V16H15.75V10H14.25ZM15 10.75H15.7143V9.25H15V10.75ZM15.0172 10.2766L16.8029 14.7766L18.1971 14.2234L16.4114 9.72337L15.0172 10.2766ZM18.1971 14.7766L19.9828 10.2766L18.5886 9.72337L16.8029 14.2234L18.1971 14.7766ZM19.2857 10.75H20V9.25H19.2857V10.75ZM19.25 10V16H20.75V10H19.25Z" fill="black"/>
</svg>
