<svg width="24" height="24" viewBox="0 0 24 24" fill="none" xmlns="http://www.w3.org/2000/svg">
<path d="M19.7352 9.15391H19.255V6.8367C19.255 6.82214 19.2527 6.80769 19.2507 6.79295C19.25 6.70094 19.2207 6.61056 19.1577 6.53906L15.3016 2.13402C15.3005 2.1329 15.2993 2.1325 15.2985 2.13137C15.2756 2.1057 15.2488 2.08424 15.2204 2.06587C15.212 2.06013 15.2036 2.05545 15.1948 2.05054C15.1703 2.03725 15.1442 2.02603 15.1174 2.01801C15.1102 2.01609 15.1036 2.01311 15.0964 2.01111C15.0672 2.00432 15.037 2 15.0063 2H5.52951C5.09676 2 4.7452 2.35196 4.7452 2.78435V9.15373H4.26506C3.646 9.15373 3.14404 9.65547 3.14404 10.2746V16.104C3.14404 16.7229 3.646 17.2252 4.26506 17.2252H4.74524V21.2157C4.74524 21.648 5.0968 22 5.52955 22H18.4707C18.903 22 19.255 21.648 19.255 21.2157V17.2252H19.7352C20.3541 17.2252 20.8562 16.7231 20.8562 16.1043V10.2749C20.8561 9.65569 20.3541 9.15391 19.7352 9.15391ZM5.52951 2.78449H14.6142V6.7972C14.6142 7.01386 14.79 7.18935 15.0063 7.18935H18.4706V9.15405H5.52951V2.78449ZM15.2059 12.5547V13.6318H13.1034V15.9868H11.774V10.1306H15.3537V11.2168H13.1034V12.5549H15.2059V12.5547ZM10.6268 10.1306V15.987H9.29722V10.1306H10.6268ZM4.09255 11.2427V10.1306H8.59304V11.2427H6.99447V15.987H5.66531V11.2427H4.09255ZM18.4707 21.0033H5.52951V17.2252H18.4706V21.0033H18.4707ZM19.9334 11.2168H17.6825V12.5549H19.7854V13.6322H17.6825V15.9871H16.3536V10.1306H19.9334V11.2168Z" fill="black"/>
</svg>
