<svg width="24" height="24" viewBox="0 0 24 24" fill="none" xmlns="http://www.w3.org/2000/svg">
<path d="M17.4644 11.5025C17.2254 11.5025 17.0638 11.5254 16.9788 11.5487V13.0817C17.0791 13.1047 17.2024 13.1124 17.3717 13.1124C17.9959 13.1124 18.381 12.7968 18.381 12.2653C18.3812 11.7878 18.0499 11.5025 17.4644 11.5025Z" fill="black"/>
<path d="M19.7352 9.15398H19.2549V6.83645C19.2549 6.822 19.2526 6.80743 19.2507 6.79277C19.2499 6.70079 19.2207 6.61041 19.1577 6.53877L15.3014 2.13413C15.3003 2.13301 15.2991 2.13261 15.2981 2.13144C15.2753 2.1057 15.2484 2.08435 15.2202 2.06598C15.2118 2.06024 15.2034 2.05552 15.1946 2.05065C15.17 2.03725 15.144 2.02614 15.117 2.01812C15.1097 2.01609 15.1034 2.01322 15.0961 2.01122C15.0672 2.00432 15.0366 2 15.0061 2H5.52948C5.09673 2 4.74517 2.35203 4.74517 2.78435V9.1538H4.26496C3.64601 9.1538 3.14401 9.65558 3.14401 10.2747V16.1043C3.14401 16.7231 3.64597 17.2252 4.26496 17.2252H4.74521V21.2157C4.74521 21.648 5.09677 22 5.52952 22H18.4706C18.903 22 19.255 21.648 19.255 21.2157V17.2254H19.7352C20.3541 17.2254 20.8561 16.7231 20.8561 16.1043V10.2749C20.8561 9.65558 20.354 9.15398 19.7352 9.15398ZM5.52948 2.78435H14.6142V6.79716C14.6142 7.01383 14.7899 7.18932 15.0063 7.18932H18.4706V9.15402H5.52948V2.78435ZM14.9133 15.8473H13.7655L13.6886 13.8597C13.6656 13.2362 13.6424 12.4814 13.6424 11.7257H13.6194C13.4576 12.3883 13.242 13.1282 13.0417 13.7367L12.41 15.7626H11.4934L10.9387 13.7524C10.7691 13.1435 10.592 12.404 10.4689 11.7257H10.4534C10.4227 12.427 10.3995 13.2282 10.3611 13.8754L10.2685 15.8473H9.18219L9.51338 10.6553H11.0773L11.5858 12.3883C11.7475 12.9896 11.9093 13.6368 12.0246 14.245H12.0479C12.1942 13.6445 12.3711 12.9589 12.5408 12.3807L13.0955 10.6553H14.6283L14.9133 15.8473ZM4.71376 11.6416V10.6555H8.70416V11.6416H7.2867V15.8473H6.10831V11.6416H4.71376ZM18.4706 21.0031H5.52948V17.2254H18.4706L18.4706 21.0031ZM19.0665 13.4673C18.666 13.8449 18.0731 14.014 17.3796 14.014C17.2252 14.014 17.0866 14.0066 16.9786 13.9912V15.8475H15.8155V10.7247C16.1774 10.6628 16.686 10.6167 17.4026 10.6167C18.1265 10.6167 18.6426 10.7558 18.9896 11.033C19.3204 11.2946 19.5441 11.7257 19.5441 12.2348C19.5441 12.7429 19.3744 13.1743 19.0665 13.4673Z" fill="black"/>
</svg>
