<svg width="24" height="24" viewBox="0 0 24 24" fill="none" xmlns="http://www.w3.org/2000/svg">
<path d="M19 20V20.75H19.75V20H19ZM5 20H4.25V20.75H5V20ZM5 4V3.25H4.25V4H5ZM16 4L16.5303 3.46967L16.3107 3.25H16V4ZM19 7H19.75V6.68934L19.5303 6.46967L19 7ZM4.25 16C4.25 16.4142 4.58579 16.75 5 16.75C5.41421 16.75 5.75 16.4142 5.75 16H4.25ZM3 9.25C2.58579 9.25 2.25 9.58579 2.25 10C2.25 10.4142 2.58579 10.75 3 10.75V9.25ZM7 10.75C7.41421 10.75 7.75 10.4142 7.75 10C7.75 9.58579 7.41421 9.25 7 9.25V10.75ZM17 10V9.25H16.25V10H17ZM9.24652 10V9.25C8.83231 9.25 8.49652 9.58579 8.49652 10H9.24652ZM8.49652 16C8.49652 16.4142 8.83231 16.75 9.24652 16.75C9.66073 16.75 9.99652 16.4142 9.99652 16H8.49652ZM9.96081 10L10.6579 9.72337C10.5445 9.43761 10.2682 9.25 9.96081 9.25V10ZM11.7465 14.5L11.0494 14.7766C11.1628 15.0624 11.4391 15.25 11.7465 15.25C12.0539 15.25 12.3302 15.0624 12.4436 14.7766L11.7465 14.5ZM13.5322 10V9.25C13.2248 9.25 12.9485 9.43761 12.8351 9.72337L13.5322 10ZM14.2465 10H14.9965C14.9965 9.58579 14.6607 9.25 14.2465 9.25V10ZM13.4965 16C13.4965 16.4142 13.8323 16.75 14.2465 16.75C14.6607 16.75 14.9965 16.4142 14.9965 16H13.4965ZM16.25 16C16.25 16.4142 16.5858 16.75 17 16.75C17.4142 16.75 17.75 16.4142 17.75 16H16.25ZM19 19.25H5V20.75H19V19.25ZM5 4.75H16V3.25H5V4.75ZM15.4697 4.53033L18.4697 7.53033L19.5303 6.46967L16.5303 3.46967L15.4697 4.53033ZM5.75 8V4H4.25V8H5.75ZM5.75 20V18H4.25V20H5.75ZM18.25 7V8H19.75V7H18.25ZM18.25 18V20H19.75V18H18.25ZM4.25 10V16H5.75V10H4.25ZM3 10.75H5V9.25H3V10.75ZM5 10.75H7V9.25H5V10.75ZM18.5 12.8525H17V14.3525H18.5V12.8525ZM17.75 13.6025V10H16.25V13.6025H17.75ZM17 10.75H18.5V9.25H17V10.75ZM18.5 10.75C18.8719 10.75 19.0222 10.8472 19.0861 10.9132C19.1542 10.9836 19.25 11.1488 19.25 11.5332H20.75C20.75 10.9176 20.5958 10.3162 20.1639 9.86997C19.7278 9.41939 19.1281 9.25 18.5 9.25V10.75ZM19.25 11.5332V12.1378H20.75V11.5332H19.25ZM19.25 12.1378C19.25 12.3308 19.2106 12.4505 19.1718 12.5244C19.1328 12.5987 19.0792 12.6561 19.0108 12.7034C18.8582 12.8089 18.6457 12.8525 18.5 12.8525V14.3525C18.8543 14.3525 19.3918 14.2637 19.8642 13.9369C20.3788 13.5809 20.75 12.9844 20.75 12.1378H19.25ZM8.49652 10V16H9.99652V10H8.49652ZM9.24652 10.75H9.96081V9.25H9.24652V10.75ZM9.26369 10.2766L11.0494 14.7766L12.4436 14.2234L10.6579 9.72337L9.26369 10.2766ZM12.4436 14.7766L14.2294 10.2766L12.8351 9.72337L11.0494 14.2234L12.4436 14.7766ZM13.5322 10.75H14.2465V9.25H13.5322V10.75ZM13.4965 10V16H14.9965V10H13.4965ZM16.25 13.6025V16H17.75V13.6025H16.25Z" fill="black"/>
</svg>
