<svg width="24" height="24" viewBox="0 0 24 24" fill="none" xmlns="http://www.w3.org/2000/svg">
<path d="M9.70492 11.9044C9.54574 11.9044 9.44396 11.9185 9.39512 11.9334V12.967H9.69336C10.032 12.967 10.2447 12.7531 10.2447 12.4286C10.2447 12.069 10.032 11.9044 9.70492 11.9044Z" fill="black"/>
<path d="M6.40779 13.1274C6.40779 13.7932 6.68958 14.3219 7.17173 14.3219C7.65782 14.3219 7.93154 13.788 7.93154 13.1033C7.93154 12.4865 7.67391 11.9047 7.17173 11.9047C6.67349 11.9045 6.40779 12.4528 6.40779 13.1274Z" fill="black"/>
<path d="M12.0301 11.9044C11.8707 11.9044 11.7694 11.9185 11.7203 11.9334V12.967H12.018C12.3573 12.967 12.5699 12.7531 12.5699 12.4286C12.5698 12.069 12.3573 11.9044 12.0301 11.9044Z" fill="black"/>
<path d="M19.735 9.1539H19.2546V6.8367C19.2546 6.82226 19.2525 6.8077 19.2506 6.79293C19.2497 6.70101 19.2204 6.61065 19.1574 6.53905L15.3015 2.13413C15.3001 2.133 15.2992 2.13259 15.2984 2.13139C15.2754 2.10571 15.2487 2.08433 15.2202 2.06588C15.2117 2.06026 15.2034 2.05555 15.1946 2.05059C15.1701 2.03728 15.144 2.02608 15.1169 2.01802C15.11 2.01612 15.1035 2.01313 15.0962 2.01123C15.067 2.0043 15.0368 2 15.006 2H5.52913C5.09655 2 4.74484 2.35197 4.74484 2.78433V9.15368H4.26437C3.64542 9.15368 3.14346 9.65546 3.14346 10.2747V16.1042C3.14346 16.7229 3.64542 17.2252 4.26437 17.2252H4.74462V21.2157C4.74462 21.6481 5.09637 22 5.52892 22H18.4701C18.9025 22 19.2544 21.6481 19.2544 21.2157V17.2252H19.7346C20.3535 17.2252 20.8557 16.7231 20.8557 16.1042V10.2749C20.856 9.6555 20.3539 9.1539 19.735 9.1539ZM5.52913 2.78433H14.6139V6.79701C14.6139 7.01369 14.7898 7.18918 15.0061 7.18918H18.4703V9.15387H5.52913V2.78433ZM16.1124 13.5786V14.7493H15.6508V11.4767H16.223L16.9334 12.8801C17.1174 13.2439 17.2761 13.6226 17.4026 13.9771H17.4109C17.3786 13.5399 17.3664 13.1181 17.3664 12.6181V11.4767H17.8321V14.7493H17.3134L16.5944 13.312C16.4186 12.9525 16.2356 12.5499 16.1006 12.1808L16.0877 12.1853C16.1084 12.6082 16.1124 13.0398 16.1124 13.5786ZM15.0866 12.8119V13.2974H14.0492V14.2587H15.2088V14.7493H13.5461V11.4767H15.1477V11.9673H14.0488V12.8123L15.0866 12.8119ZM12.9535 13.8359C13.0389 14.2441 13.1128 14.6232 13.1699 14.7493H12.6513C12.6104 14.652 12.5453 14.3849 12.4671 13.9771C12.3898 13.5499 12.2592 13.4141 11.973 13.4042H11.7203V14.7493H11.2216V11.5202C11.4097 11.4819 11.6912 11.4527 11.9814 11.4527C12.3776 11.4527 12.6468 11.5304 12.831 11.7147C12.9818 11.8653 13.0676 12.0934 13.0676 12.3699C13.0676 12.7923 12.8266 13.0788 12.5698 13.1906V13.2051C12.7654 13.2925 12.884 13.5208 12.9535 13.8359ZM10.6285 13.8359C10.714 14.2441 10.7875 14.6232 10.845 14.7493H10.3262C10.2856 14.652 10.2201 14.3849 10.1422 13.9771C10.0648 13.5499 9.93403 13.4141 9.64812 13.4042H9.39497V14.7493H8.89673V11.5202C9.08441 11.4819 9.36652 11.4527 9.65637 11.4527C10.0526 11.4527 10.3222 11.5304 10.5058 11.7147C10.6567 11.8653 10.7427 12.0934 10.7427 12.3699C10.7427 12.7923 10.5015 13.0788 10.2446 13.1906V13.2051C10.4405 13.2925 10.5585 13.5208 10.6285 13.8359ZM8.46207 13.0788C8.46207 14.1756 7.90229 14.8022 7.1427 14.8022C6.36679 14.8022 5.87698 14.0982 5.87698 13.1374C5.87698 12.1317 6.40736 11.423 7.18366 11.423C7.98838 11.423 8.46207 12.1465 8.46207 13.0788ZM5.01751 11.9763V14.7493H4.51562V11.9763H3.73129V11.4765H5.80986V11.9763H5.01751ZM18.4703 21.0033H5.52913V17.2252H18.4703V21.0033ZM20.235 11.9763H19.4428V14.7493H18.9404V11.9763H18.1561V11.4765H20.235V11.9763Z" fill="black"/>
</svg>
