<svg width="24" height="24" viewBox="0 0 24 24" fill="none" xmlns="http://www.w3.org/2000/svg">
<path d="M19.7352 9.15391H19.255V6.8367C19.255 6.82214 19.2527 6.80769 19.2507 6.79295C19.25 6.70104 19.2205 6.61063 19.1577 6.53906L15.3016 2.13413C15.3005 2.13301 15.2993 2.1325 15.2985 2.13137C15.2756 2.1057 15.2488 2.08435 15.2204 2.06587C15.212 2.06024 15.2036 2.05545 15.1948 2.05054C15.1703 2.03725 15.1442 2.02603 15.1174 2.01801C15.1101 2.01609 15.1036 2.01311 15.0963 2.01118C15.0672 2.00432 15.037 2 15.0063 2H5.52952C5.09677 2 4.74521 2.35196 4.74521 2.78435V9.15373H4.26496C3.64619 9.15373 3.14401 9.65547 3.14401 10.2747V16.1043C3.14401 16.7229 3.64619 17.2252 4.26496 17.2252H4.74521V21.2157C4.74521 21.648 5.09677 22 5.52952 22H18.4706C18.903 22 19.255 21.648 19.255 21.2157V17.2252H19.7352C20.3545 17.2252 20.8561 16.7231 20.8561 16.1043V10.2749C20.8561 9.65547 20.3544 9.15391 19.7352 9.15391ZM5.52952 2.78449H14.6142V6.7972C14.6142 7.01386 14.79 7.18935 15.0064 7.18935H18.4706V9.15405H5.52952V2.78449ZM10.4234 11.4905V10.4439H14.659V11.4905H13.1547V15.9549H11.9035V11.4905H10.4234ZM5.76245 11.4905V10.4439H9.99813V11.4905H8.49338V15.9549H7.24222V11.4905H5.76245ZM18.4706 21.0033H5.52952V17.2252H18.4706V21.0033ZM18.6908 11.466H16.573V12.7249H18.5518V13.739H16.573V15.9549H15.3219V10.4439H18.6908V11.466Z" fill="black"/>
</svg>
