<svg width="24" height="24" viewBox="0 0 24 24" fill="none" xmlns="http://www.w3.org/2000/svg">
<path d="M19.7349 9.15401H19.2546V6.83648C19.2546 6.82204 19.2523 6.80748 19.2504 6.79286C19.2496 6.70082 19.2203 6.61047 19.1573 6.53887L15.3013 2.13413C15.3001 2.133 15.299 2.13259 15.2982 2.13139C15.2752 2.10571 15.2484 2.08433 15.22 2.06588C15.2117 2.06026 15.2032 2.05555 15.1944 2.05063C15.1699 2.03728 15.1438 2.02615 15.1171 2.01809C15.1098 2.01609 15.1032 2.0132 15.096 2.01123C15.0669 2.0043 15.0366 2 15.006 2H5.5291C5.09637 2 4.74481 2.35197 4.74481 2.78433V9.15379H4.26455C3.64561 9.15379 3.14365 9.65546 3.14365 10.2747V16.1042C3.14365 16.7229 3.64561 17.2252 4.26455 17.2252H4.74481V21.2157C4.74481 21.6481 5.09637 22 5.5291 22H18.4703C18.9026 22 19.2546 21.6481 19.2546 21.2157V17.2252H19.7348C20.3537 17.2252 20.8557 16.7231 20.8557 16.1042V10.2749C20.8558 9.6555 20.3537 9.15401 19.7349 9.15401ZM5.5291 2.78433H14.6139V6.79701C14.6139 7.0138 14.7896 7.18918 15.006 7.18918H18.4703V9.15398H5.5291V2.78433ZM9.39775 10.2089H10.9181L11.4311 11.2776C11.6046 11.6335 11.7352 11.9204 11.8742 12.2507H11.8917C12.0302 11.8771 12.1434 11.6163 12.2911 11.2776L12.7867 10.2089H14.2987L12.6477 13.0673L14.3854 16.0652H12.856L12.3262 15.0051C12.1089 14.5967 11.9697 14.2928 11.8046 13.9537H11.7871C11.6655 14.2928 11.5179 14.5967 11.3355 15.0051L10.8491 16.0652H9.3369L11.0314 13.1024L9.39775 10.2089ZM4.41009 11.321V10.2089H8.9107V11.321H7.31199V16.0648H5.98298V11.321H4.41009ZM18.4703 21.0031H5.5291V17.2252H18.4703V21.0031H18.4703ZM19.2082 11.321H17.6094V16.0648H16.2801V11.321H14.7073V10.2089H19.2083V11.321H19.2082Z" fill="black"/>
</svg>
