<svg width="24" height="24" viewBox="0 0 24 24" fill="none" xmlns="http://www.w3.org/2000/svg">
<path d="M19 20V20.75H19.75V20H19ZM5 20H4.25V20.75H5V20ZM5 4V3.25H4.25V4H5ZM16 4L16.5303 3.46967L16.3107 3.25H16V4ZM19 7L19.75 7V6.68934L19.5303 6.46967L19 7ZM6.25 16C6.25 16.4142 6.58579 16.75 7 16.75C7.41421 16.75 7.75 16.4142 7.75 16H6.25ZM5 9.25C4.58579 9.25 4.25 9.58579 4.25 10C4.25 10.4142 4.58579 10.75 5 10.75V9.25ZM9 10.75C9.41421 10.75 9.75 10.4142 9.75 10C9.75 9.58579 9.41421 9.25 9 9.25V10.75ZM17.25 16C17.25 16.4142 17.5858 16.75 18 16.75C18.4142 16.75 18.75 16.4142 18.75 16H17.25ZM16 9.25C15.5858 9.25 15.25 9.58579 15.25 10C15.25 10.4142 15.5858 10.75 16 10.75V9.25ZM20 10.75C20.4142 10.75 20.75 10.4142 20.75 10C20.75 9.58579 20.4142 9.25 20 9.25V10.75ZM11.6708 9.66459C11.4856 9.29411 11.0351 9.14394 10.6646 9.32918C10.2941 9.51442 10.1439 9.96493 10.3292 10.3354L11.6708 9.66459ZM13.3292 16.3354C13.5144 16.7059 13.9649 16.8561 14.3354 16.6708C14.7059 16.4856 14.8561 16.0351 14.6708 15.6646L13.3292 16.3354ZM14.6708 10.3354C14.8561 9.96493 14.7059 9.51442 14.3354 9.32918C13.9649 9.14394 13.5144 9.29411 13.3292 9.66459L14.6708 10.3354ZM10.3292 15.6646C10.1439 16.0351 10.2941 16.4856 10.6646 16.6708C11.0351 16.8561 11.4856 16.7059 11.6708 16.3354L10.3292 15.6646ZM19 19.25H5V20.75H19V19.25ZM5 4.75H16V3.25H5V4.75ZM15.4697 4.53033L18.4697 7.53033L19.5303 6.46967L16.5303 3.46967L15.4697 4.53033ZM5.75 8V4H4.25V8H5.75ZM5.75 20V18H4.25V20H5.75ZM18.25 7L18.25 8L19.75 8L19.75 7L18.25 7ZM18.25 18V20H19.75V18H18.25ZM6.25 10V16H7.75V10H6.25ZM5 10.75H7V9.25H5V10.75ZM7 10.75H9V9.25H7V10.75ZM17.25 10V16H18.75V10H17.25ZM16 10.75H18V9.25H16V10.75ZM18 10.75H20V9.25H18V10.75ZM10.3292 10.3354L11.8292 13.3354L13.1708 12.6646L11.6708 9.66459L10.3292 10.3354ZM11.8292 13.3354L13.3292 16.3354L14.6708 15.6646L13.1708 12.6646L11.8292 13.3354ZM13.3292 9.66459L11.8292 12.6646L13.1708 13.3354L14.6708 10.3354L13.3292 9.66459ZM11.8292 12.6646L10.3292 15.6646L11.6708 16.3354L13.1708 13.3354L11.8292 12.6646Z" fill="black"/>
</svg>
