<svg width="24" height="24" viewBox="0 0 24 24" fill="none" xmlns="http://www.w3.org/2000/svg">
<path d="M19 20V20.75H19.75V20H19ZM5 20H4.25V20.75H5V20ZM5 4V3.25H4.25V4H5ZM16 4L16.5303 3.46967L16.3107 3.25H16V4ZM19 7L19.75 7V6.68934L19.5303 6.46967L19 7ZM9.25 10C9.25 9.58579 8.91421 9.25 8.5 9.25C8.08579 9.25 7.75 9.58579 7.75 10H9.25ZM5.75 10C5.75 9.58579 5.41421 9.25 5 9.25C4.58579 9.25 4.25 9.58579 4.25 10H5.75ZM15.25 10C15.25 9.58579 14.9142 9.25 14.5 9.25C14.0858 9.25 13.75 9.58579 13.75 10H15.25ZM11.75 10C11.75 9.58579 11.4142 9.25 11 9.25C10.5858 9.25 10.25 9.58579 10.25 10H11.75ZM17 10V9.25H16.25V10H17ZM17 16H16.25V16.75H17V16ZM20 10.75C20.4142 10.75 20.75 10.4142 20.75 10C20.75 9.58579 20.4142 9.25 20 9.25V10.75ZM19.5 13.75C19.9142 13.75 20.25 13.4142 20.25 13C20.25 12.5858 19.9142 12.25 19.5 12.25V13.75ZM20 16.75C20.4142 16.75 20.75 16.4142 20.75 16C20.75 15.5858 20.4142 15.25 20 15.25V16.75ZM19 19.25H5V20.75H19V19.25ZM5 4.75H16V3.25H5V4.75ZM15.4697 4.53033L18.4697 7.53033L19.5303 6.46967L16.5303 3.46967L15.4697 4.53033ZM5.75 8V4H4.25V8H5.75ZM5.75 20V18H4.25V20H5.75ZM18.25 7L18.25 8L19.75 8L19.75 7L18.25 7ZM18.25 18V20H19.75V18H18.25ZM7.75 10V13.6833H9.25V10H7.75ZM5.75 13.6833V10H4.25V13.6833H5.75ZM6.72495 15.25C6.39107 15.25 6.1891 15.1206 6.04037 14.9003C5.86843 14.6456 5.75 14.2302 5.75 13.6833H4.25C4.25 14.4118 4.40238 15.1547 4.79708 15.7395C5.21499 16.3586 5.8755 16.75 6.72495 16.75V15.25ZM7.75 13.6833C7.75 14.218 7.62413 14.6311 7.44319 14.8878C7.28209 15.1164 7.06291 15.25 6.72495 15.25V16.75C7.57033 16.75 8.23868 16.3629 8.66927 15.752C9.08001 15.1692 9.25 14.4239 9.25 13.6833H7.75ZM13.75 10V13.6833H15.25V10H13.75ZM11.75 13.6833V10H10.25V13.6833H11.75ZM12.725 15.25C12.3911 15.25 12.1891 15.1206 12.0404 14.9003C11.8684 14.6456 11.75 14.2302 11.75 13.6833H10.25C10.25 14.4118 10.4024 15.1547 10.7971 15.7395C11.215 16.3586 11.8755 16.75 12.725 16.75V15.25ZM13.75 13.6833C13.75 14.218 13.6241 14.6311 13.4432 14.8878C13.2821 15.1164 13.0629 15.25 12.725 15.25V16.75C13.5703 16.75 14.2387 16.3629 14.6693 15.752C15.08 15.1692 15.25 14.4239 15.25 13.6833H13.75ZM16.25 10V13H17.75V10H16.25ZM16.25 13V16H17.75V13H16.25ZM17 10.75H20V9.25H17V10.75ZM17 13.75H19.5V12.25H17V13.75ZM17 16.75H20V15.25H17V16.75Z" fill="black"/>
</svg>
