<svg width="24" height="24" viewBox="0 0 24 24" fill="none" xmlns="http://www.w3.org/2000/svg">
<path d="M19.7348 9.1539H19.2546V6.8367C19.2546 6.82215 19.2522 6.8077 19.2504 6.79293C19.2496 6.70101 19.2201 6.61065 19.1573 6.53905L15.3012 2.13413C15.3001 2.133 15.2989 2.13252 15.2981 2.13139C15.2752 2.10571 15.2484 2.08433 15.22 2.06588C15.2116 2.06026 15.2032 2.05545 15.1943 2.05059C15.1698 2.03728 15.1438 2.02608 15.117 2.01802C15.1097 2.01612 15.1032 2.01313 15.096 2.01123C15.0668 2.0043 15.0365 2 15.006 2H5.52908C5.09632 2 4.74479 2.35197 4.74479 2.78433V9.15368H4.26454C3.64578 9.15368 3.14364 9.65546 3.14364 10.2747V16.1042C3.14364 16.7229 3.64578 17.2252 4.26454 17.2252H4.74479V21.2157C4.74479 21.6481 5.09632 22 5.52908 22H18.4703C18.9026 22 19.2546 21.6481 19.2546 21.2157V17.2252H19.7348C20.354 17.2252 20.8557 16.7231 20.8557 16.1042V10.2749C20.8557 9.6555 20.354 9.1539 19.7348 9.1539ZM5.52908 2.78451H14.6138V6.7972C14.6138 7.01387 14.7895 7.18936 15.0059 7.18936H18.4703V9.15405H5.52908V2.78451ZM12.6936 15.0756C13.3477 15.0756 13.7077 14.6172 13.7077 13.6439V10.4714H14.9504V13.5623C14.9504 15.2632 14.0918 16.0732 12.653 16.0732C11.2624 16.0732 10.4452 15.3042 10.4452 13.5458V10.4714H11.6959V13.6439C11.6959 14.5927 12.0555 15.0756 12.6936 15.0756ZM4.86768 13.5458V10.4714H6.11848V13.6439C6.11848 14.5927 6.47807 15.0756 7.11612 15.0756C7.7707 15.0756 8.13033 14.6172 8.13033 13.6439V10.4714H9.37302V13.5623C9.37302 15.2632 8.51439 16.0732 7.07556 16.0732C5.68535 16.0732 4.86768 15.3042 4.86768 13.5458ZM18.4703 21.0033H5.52908V17.2252H18.4703V21.0033ZM19.5464 15.9832H16.0303V10.4716H19.4318V11.4937H17.2815V12.6384H19.3093V13.6525H17.2815V14.9611H19.5464V15.9832Z" fill="black"/>
</svg>
