<svg width="24" height="24" viewBox="0 0 24 24" fill="none" xmlns="http://www.w3.org/2000/svg">
<path d="M19.7354 9.15373H19.2551V6.83648C19.2551 6.82192 19.2529 6.80747 19.2511 6.79273C19.2504 6.70083 19.2209 6.61041 19.1579 6.53881L15.3016 2.13413L15.2985 2.13137C15.2756 2.1057 15.2488 2.08435 15.2204 2.06587C15.212 2.06024 15.2036 2.05552 15.1948 2.05054C15.1703 2.03725 15.1442 2.02603 15.1174 2.01801C15.1101 2.01609 15.1036 2.01311 15.0963 2.01118C15.0672 2.00432 15.037 2 15.0063 2H5.52952C5.09677 2 4.74521 2.35196 4.74521 2.78435V9.15373H4.26507C3.64601 9.15373 3.14401 9.65547 3.14401 10.2747V16.1043C3.14401 16.7229 3.64597 17.2252 4.26507 17.2252H4.74521V21.2157C4.74521 21.648 5.09677 22 5.52952 22H18.4706C18.903 22 19.255 21.648 19.255 21.2157V17.2252H19.7352C20.3541 17.2252 20.8561 16.7229 20.8561 16.1043V10.2747C20.8561 9.65547 20.3544 9.15373 19.7354 9.15373ZM18.4706 21.0031H5.52952V17.2252H18.4706V21.0031ZM6.86462 10.0976H8.34871L9.07758 12.6306C9.28208 13.3417 9.46828 14.0261 9.61066 14.7731H9.63756C9.78836 14.0531 9.97496 13.3417 10.1798 12.6576L10.9439 10.0976H12.3836L10.3661 16.0881H8.78441L6.86462 10.0976ZM17.4671 14.3371C17.4671 14.8795 17.2182 15.3058 16.8448 15.6079C16.4091 15.9547 15.6807 16.1504 14.4893 16.1504C13.8232 16.1504 13.3251 16.1054 13.023 16.0615V10.1777C13.3785 10.1069 14.0983 10.0536 14.7739 10.0536C15.6005 10.0536 16.1066 10.1331 16.5424 10.391C16.96 10.6132 17.2622 11.0222 17.2622 11.5643C17.2622 12.0974 16.951 12.5953 16.2758 12.8436V12.8616C16.9602 13.0489 17.4671 13.564 17.4671 14.3371ZM18.4706 9.15373H5.52952V2.78435H14.6142V6.79705C14.6142 7.01383 14.79 7.18921 15.0064 7.18921H18.4706V9.15373Z" fill="black"/>
<path d="M14.8276 13.4393H14.3658V15.1282C14.4987 15.1458 14.6591 15.1458 14.89 15.1458C15.5033 15.1458 16.0451 14.9149 16.0451 14.284C16.0449 13.6792 15.5033 13.4393 14.8276 13.4393Z" fill="black"/>
<path d="M15.9027 11.7332C15.9027 11.28 15.5561 11.0404 14.943 11.0404C14.6497 11.0404 14.4809 11.0581 14.3651 11.0757V12.4712H14.8093C15.5205 12.4708 15.9027 12.1777 15.9027 11.7332Z" fill="black"/>
</svg>
