<svg width="24" height="24" viewBox="0 0 24 24" fill="none" xmlns="http://www.w3.org/2000/svg">
<path d="M19 20V20.75H19.75V20H19ZM5 20H4.25V20.75H5V20ZM5 4V3.25H4.25V4H5ZM16 4L16.5303 3.46967L16.3107 3.25H16V4ZM19 7L19.75 7V6.68934L19.5303 6.46967L19 7ZM5.71151 9.76283C5.58053 9.36987 5.15579 9.1575 4.76283 9.28849C4.36987 9.41947 4.1575 9.84421 4.28849 10.2372L5.71151 9.76283ZM7 16L6.28849 16.2372C6.39057 16.5434 6.67718 16.75 7 16.75C7.32282 16.75 7.60943 16.5434 7.71151 16.2372L7 16ZM9.71151 10.2372C9.8425 9.84421 9.63013 9.41947 9.23717 9.28849C8.84421 9.1575 8.41947 9.36987 8.28849 9.76283L9.71151 10.2372ZM16 16H15.25V16.75H16V16ZM16 10V9.25L15.25 9.25V10H16ZM17.9 10V9.25V10ZM19 19.25H5V20.75H19V19.25ZM5 4.75H16V3.25H5V4.75ZM15.4697 4.53033L18.4697 7.53033L19.5303 6.46967L16.5303 3.46967L15.4697 4.53033ZM5.75 8V4H4.25V8H5.75ZM5.75 20V18H4.25V20H5.75ZM18.25 7L18.25 8L19.75 8L19.75 7L18.25 7ZM18.25 18V20H19.75V18H18.25ZM4.28849 10.2372L6.28849 16.2372L7.71151 15.7628L5.71151 9.76283L4.28849 10.2372ZM7.71151 16.2372L9.71151 10.2372L8.28849 9.76283L6.28849 15.7628L7.71151 16.2372ZM16.75 16V10H15.25V16H16.75ZM16 10.75L17.9 10.75V9.25L16 9.25V10.75ZM17.9 10.75C18.056 10.75 18.2997 10.7997 18.4804 10.9216C18.621 11.0165 18.75 11.1655 18.75 11.5H20.25C20.25 10.6345 19.8457 10.0335 19.3196 9.67836C18.8336 9.35032 18.2773 9.25 17.9 9.25V10.75ZM18.75 11.5V14.5H20.25V11.5H18.75ZM18.75 14.5C18.75 14.6198 18.7051 14.8245 18.5852 14.9807C18.4922 15.1018 18.3153 15.25 17.9 15.25V16.75C18.7647 16.75 19.3878 16.3982 19.7748 15.8943C20.1349 15.4255 20.25 14.8802 20.25 14.5H18.75ZM17.9 15.25H16V16.75H17.9V15.25ZM12.3758 9.25C11.2518 9.25 10.1258 10.174 10.1258 11.5H11.6258C11.6258 11.0806 11.9999 10.75 12.3758 10.75V9.25ZM10.1258 11.5V14.5H11.6258V11.5H10.1258ZM10.1258 14.5C10.1258 15.2035 10.3971 15.7863 10.8463 16.1856C11.2817 16.5726 11.841 16.75 12.3758 16.75V15.25C12.1606 15.25 11.97 15.1774 11.8429 15.0644C11.7296 14.9637 11.6258 14.7965 11.6258 14.5H10.1258ZM14.6258 11.6364C14.6258 10.9091 14.3706 10.2987 13.9292 9.87067C13.4966 9.45119 12.9293 9.25 12.3758 9.25V10.75C12.5724 10.75 12.7551 10.8215 12.885 10.9475C13.0061 11.065 13.1258 11.2727 13.1258 11.6364H14.6258ZM12.3758 16.75C12.9293 16.75 13.4966 16.5488 13.9292 16.1293C14.3706 15.7013 14.6258 15.0909 14.6258 14.3636H13.1258C13.1258 14.7273 13.0061 14.935 12.885 15.0525C12.7551 15.1785 12.5724 15.25 12.3758 15.25V16.75Z" fill="black"/>
</svg>
