<svg width="24" height="24" viewBox="0 0 24 24" fill="none" xmlns="http://www.w3.org/2000/svg">
<path d="M19.7352 9.15398H19.2549V6.83645C19.2549 6.822 19.2526 6.80743 19.2507 6.79277C19.2499 6.70079 19.2207 6.61041 19.1577 6.53877L15.3016 2.13413C15.3004 2.13301 15.2993 2.13261 15.2985 2.13144C15.2755 2.1057 15.2487 2.08435 15.2204 2.06598C15.212 2.06024 15.2036 2.05552 15.1948 2.05065C15.1702 2.03725 15.1442 2.02614 15.1174 2.01812C15.1101 2.01609 15.1036 2.01322 15.0963 2.01122C15.0672 2.00432 15.037 2 15.0063 2H5.52948C5.09673 2 4.74517 2.35203 4.74517 2.78435V9.1538H4.26496C3.64619 9.1538 3.14401 9.65558 3.14401 10.2747V16.1043C3.14401 16.7231 3.64619 17.2252 4.26496 17.2252H4.74521V21.2157C4.74521 21.648 5.09677 22 5.52952 22H18.4706C18.903 22 19.255 21.648 19.255 21.2157V17.2254H19.7352C20.3545 17.2254 20.8561 16.7231 20.8561 16.1043V10.2749C20.8561 9.65558 20.3544 9.15398 19.7352 9.15398ZM5.52948 2.78435H14.6142V6.79716C14.6142 7.01383 14.7899 7.18932 15.0063 7.18932H18.4706V9.15402H5.52948V2.78435ZM12.915 15.1677C13.291 15.1677 13.7077 15.0853 13.9536 14.9873L14.1412 15.9604C13.9126 16.0749 13.3971 16.1975 12.7269 16.1975C10.8216 16.1975 9.84047 15.0118 9.84047 13.4418C9.84047 11.5612 11.1813 10.5145 12.8495 10.5145C13.4952 10.5145 13.9862 10.6455 14.2068 10.7604L13.9536 11.7492C13.7001 11.6431 13.3481 11.5451 12.9069 11.5451C11.9174 11.5451 11.1488 12.142 11.1488 13.3683C11.1487 14.4726 11.8028 15.1677 12.915 15.1677ZM4.49205 10.6046H5.85769L6.52824 12.9348C6.71637 13.5893 6.88794 14.219 7.01844 14.9057H7.04295C7.18205 14.2436 7.35398 13.5893 7.54164 12.9597L8.24516 10.6045H9.56981L7.71397 16.1161H6.25784L4.49205 10.6046ZM18.4706 21.0031H5.52948V17.2254H18.4706L18.4706 21.0031ZM18.9172 15.4618C18.3366 15.9443 17.4534 16.173 16.3743 16.173C15.7282 16.173 15.27 16.132 14.9594 16.0918V10.6781C15.4171 10.6046 16.0143 10.5636 16.6443 10.5636C17.6909 10.5636 18.3691 10.7517 18.901 11.1526C19.4732 11.5777 19.8332 12.2566 19.8332 13.2293C19.8332 14.2845 19.4487 15.0118 18.9172 15.4618Z" fill="black"/>
<path d="M16.7745 11.5206C16.4965 11.5206 16.3165 11.5451 16.2104 11.5696V15.1757C16.3165 15.2002 16.488 15.2002 16.6439 15.2002C17.7721 15.2087 18.5078 14.5867 18.5078 13.2703C18.5162 12.1256 17.8457 11.5206 16.7745 11.5206Z" fill="black"/>
</svg>
