<svg xmlns="http://www.w3.org/2000/svg" width="20" height="20" fill="none" viewBox="0 0 20 20">
  <path fill="#A0A0A0" d="M17.735 7.154h-.48V4.836c0-.014-.003-.029-.005-.043a.384.384 0 00-.093-.254L13.301.134l-.003-.003a.384.384 0 00-.104-.08.41.41 0 00-.077-.033l-.021-.007a.393.393 0 00-.09-.011H3.529a.785.785 0 00-.784.784v6.37h-.48c-.62 0-1.121.501-1.121 1.12v5.83c0 .619.502 1.121 1.12 1.121h.48v3.99c0 .433.352.785.785.785H16.47a.785.785 0 00.785-.784v-3.99h.48c.619 0 1.12-.503 1.12-1.122V8.275a1.12 1.12 0 00-1.12-1.121zM3.529.784h9.085v4.013c0 .217.175.392.392.392h3.464v1.965H3.53V.784zm7.94 12.137a2.99 2.99 0 001.002-.173l.181.938c-.22.11-.717.229-1.363.229-1.838 0-2.784-1.144-2.784-2.657 0-1.814 1.293-2.824 2.902-2.824.623 0 1.096.126 1.309.237l-.244.954a2.597 2.597 0 00-1.01-.197c-.954 0-1.695.576-1.695 1.758 0 1.065.63 1.735 1.703 1.735zm-8.123-4.4h1.318l.646 2.247c.182.631.347 1.238.473 1.9h.024c.134-.638.3-1.269.481-1.876l.678-2.27h1.278l-1.79 5.314H5.05L3.346 8.52zM16.47 19.003H3.53v-3.778H16.47v3.778zm.221-9.496h-2.042v1.214h1.908v.978H14.65v2.137h-1.206V8.52h3.248v.986z"/>
</svg>
