<svg width="24" height="24" viewBox="0 0 24 24" fill="none" xmlns="http://www.w3.org/2000/svg">
<path d="M19 20V20.75H19.75V20H19ZM5.00001 20H4.25001V20.75H5.00001V20ZM5.00001 4V3.25H4.25001L4.25001 4L5.00001 4ZM16 4L16.5303 3.46967L16.3107 3.25H16V4ZM19 7L19.75 7V6.68934L19.5303 6.46967L19 7ZM5.71152 9.76283C5.58054 9.36987 5.1558 9.1575 4.76284 9.28849C4.36988 9.41947 4.15751 9.84421 4.2885 10.2372L5.71152 9.76283ZM7.00001 16L6.2885 16.2372C6.39058 16.5434 6.67719 16.75 7.00001 16.75C7.32283 16.75 7.60944 16.5434 7.71152 16.2372L7.00001 16ZM9.71152 10.2372C9.84251 9.84421 9.63014 9.41947 9.23718 9.28849C8.84422 9.1575 8.41948 9.36987 8.2885 9.76283L9.71152 10.2372ZM16 10V9.25H15.25V10H16ZM15.25 16C15.25 16.4142 15.5858 16.75 16 16.75C16.4142 16.75 16.75 16.4142 16.75 16H15.25ZM19 10.75C19.4142 10.75 19.75 10.4142 19.75 10C19.75 9.58579 19.4142 9.25 19 9.25V10.75ZM18.5 13.75C18.9142 13.75 19.25 13.4142 19.25 13C19.25 12.5858 18.9142 12.25 18.5 12.25V13.75ZM19 19.25H5.00001V20.75H19V19.25ZM5.00001 4.75H16V3.25H5.00001V4.75ZM15.4697 4.53033L18.4697 7.53033L19.5303 6.46967L16.5303 3.46967L15.4697 4.53033ZM5.75 8L5.75001 4L4.25001 4L4.25 8L5.75 8ZM5.75001 20V18H4.25001V20H5.75001ZM18.25 7L18.25 8L19.75 8L19.75 7L18.25 7ZM18.25 18V20H19.75V18H18.25ZM4.2885 10.2372L6.2885 16.2372L7.71152 15.7628L5.71152 9.76283L4.2885 10.2372ZM7.71152 16.2372L9.71152 10.2372L8.2885 9.76283L6.2885 15.7628L7.71152 16.2372ZM12.3119 9.25C11.1879 9.25 10.0619 10.174 10.0619 11.5H11.5619C11.5619 11.0806 11.9359 10.75 12.3119 10.75V9.25ZM10.0619 11.5V14.5H11.5619V11.5H10.0619ZM10.0619 14.5C10.0619 15.2035 10.3332 15.7863 10.7824 16.1856C11.2178 16.5726 11.7771 16.75 12.3119 16.75V15.25C12.0967 15.25 11.906 15.1774 11.7789 15.0644C11.6656 14.9637 11.5619 14.7965 11.5619 14.5H10.0619ZM14.5619 11.6364C14.5619 10.9091 14.3067 10.2987 13.8653 9.87067C13.4327 9.45119 12.8654 9.25 12.3119 9.25V10.75C12.5085 10.75 12.6911 10.8215 12.8211 10.9475C12.9422 11.065 13.0619 11.2727 13.0619 11.6364H14.5619ZM12.3119 16.75C12.8654 16.75 13.4327 16.5488 13.8653 16.1293C14.3067 15.7013 14.5619 15.0909 14.5619 14.3636H13.0619C13.0619 14.7273 12.9422 14.935 12.8211 15.0525C12.6911 15.1785 12.5085 15.25 12.3119 15.25V16.75ZM15.25 10V13H16.75V10H15.25ZM15.25 13V16H16.75V13H15.25ZM16 10.75H19V9.25H16V10.75ZM16 13.75H18.5V12.25H16V13.75Z" fill="black"/>
</svg>
