<svg width="24" height="24" viewBox="0 0 24 24" fill="none" xmlns="http://www.w3.org/2000/svg">
<path d="M17.0735 13.3548H16.6599V14.8641C16.7792 14.8802 16.9226 14.8802 17.1292 14.8802C17.6772 14.8802 18.1622 14.6736 18.1622 14.1094C18.1623 13.5689 17.677 13.3548 17.0735 13.3548Z" fill="black"/>
<path d="M19.7352 9.15373H19.2549V6.83648C19.2549 6.82192 19.2526 6.80747 19.2507 6.79273C19.25 6.70072 19.2207 6.61034 19.1577 6.53881L15.3016 2.13413C15.3004 2.1329 15.2993 2.1325 15.2985 2.13137C15.2755 2.1057 15.2487 2.08424 15.2204 2.06587C15.212 2.06013 15.2036 2.05545 15.1948 2.05054C15.1702 2.03725 15.1442 2.02603 15.1174 2.01801C15.1101 2.01609 15.1036 2.01311 15.0963 2.01111C15.0672 2.00432 15.037 2 15.0063 2H5.52949C5.09674 2 4.74518 2.35196 4.74518 2.78435V9.15373H4.26505C3.64599 9.15373 3.14403 9.65547 3.14403 10.2746V16.104C3.14403 16.7229 3.64599 17.2252 4.26505 17.2252H4.74522V21.2157C4.74522 21.648 5.09678 22 5.52953 22H18.4707C18.903 22 19.255 21.648 19.255 21.2157V17.2252H19.7352C20.3541 17.2252 20.8562 16.7231 20.8562 16.1043V10.2749C20.8561 9.65547 20.3541 9.15373 19.7352 9.15373ZM5.52949 2.78435H14.6142V6.79705C14.6142 7.01372 14.79 7.18921 15.0063 7.18921H18.4706V9.15391H5.52949V2.78435ZM14.6659 12.9888C14.6659 14.7455 13.6013 15.8101 12.0358 15.8101C10.4465 15.8101 9.51692 14.6103 9.51692 13.0845C9.51692 11.4795 10.5422 10.2794 12.123 10.2794C13.7682 10.2794 14.6659 11.5109 14.6659 12.9888ZM4.32049 10.3667H5.64754L6.29935 12.6315C6.48211 13.2672 6.6487 13.8792 6.77622 14.5467H6.79968C6.93497 13.9031 7.10182 13.2674 7.28461 12.6554L7.9679 10.3668H9.25515L7.45127 15.7228H6.03679L4.32049 10.3667ZM18.4707 21.0031H5.52949V17.2252H18.4706L18.4707 21.0031ZM18.877 15.2935C18.4875 15.6033 17.8357 15.7784 16.7708 15.7784C16.175 15.7784 15.7297 15.7385 15.4598 15.6991V10.4385C15.7776 10.3753 16.4214 10.3274 17.0254 10.3274C17.7641 10.3274 18.2171 10.399 18.6066 10.6295C18.98 10.8284 19.25 11.1937 19.25 11.6782C19.25 12.1555 18.972 12.6001 18.368 12.8226V12.8383C18.98 13.0057 19.433 13.466 19.433 14.1576C19.4332 14.6417 19.2105 15.0235 18.877 15.2935Z" fill="black"/>
<path d="M18.0348 11.8287C18.0348 11.4241 17.7249 11.2091 17.1767 11.2091C16.9142 11.2091 16.7635 11.2252 16.6599 11.2409V12.4882H17.0573C17.6932 12.4882 18.0348 12.2263 18.0348 11.8287Z" fill="black"/>
<path d="M10.7961 13.0603C10.7961 14.1096 11.2888 14.8484 12.0992 14.8484C12.9175 14.8484 13.3864 14.0696 13.3864 13.0289C13.3864 12.0677 12.9256 11.2409 12.0911 11.2409C11.2727 11.2409 10.7961 12.0194 10.7961 13.0603Z" fill="black"/>
</svg>
