<svg xmlns="http://www.w3.org/2000/svg" width="20" height="20" fill="none" viewBox="0 0 20 20">
  <path fill="#A0A0A0" d="M15.073 11.355h-.413v1.51c.119.015.262.015.469.015.548 0 1.033-.206 1.033-.77 0-.541-.485-.755-1.089-.755z"/>
  <path fill="#A0A0A0" d="M17.735 7.154h-.48V4.836c0-.014-.002-.029-.004-.043a.384.384 0 00-.093-.254L13.302.134l-.003-.003a.381.381 0 00-.104-.08.41.41 0 00-.078-.033l-.02-.007a.398.398 0 00-.09-.011H3.53a.785.785 0 00-.785.784v6.37h-.48a1.12 1.12 0 00-1.121 1.12v5.83c0 .619.502 1.121 1.121 1.121h.48v3.99c0 .433.352.785.785.785h12.94a.785.785 0 00.785-.784v-3.99h.48c.62 0 1.121-.503 1.121-1.122v-5.83c0-.619-.502-1.12-1.12-1.12zM3.53.784h9.084v4.013c0 .217.176.392.392.392h3.465v1.965H3.53V.784zm9.136 10.205c0 1.756-1.065 2.821-2.63 2.821-1.59 0-2.52-1.2-2.52-2.726 0-1.604 1.026-2.805 2.607-2.805 1.645 0 2.543 1.232 2.543 2.71zM2.32 8.367h1.327l.651 2.264c.183.636.35 1.248.477 1.916H4.8c.135-.644.302-1.28.485-1.892l.683-2.288h1.287l-1.804 5.356H4.037L2.32 8.367zm14.15 10.636H3.53v-3.778h12.94v3.778zm.406-5.71c-.39.31-1.041.485-2.106.485-.596 0-1.041-.04-1.311-.079V8.44c.318-.064.961-.112 1.565-.112.74 0 1.192.072 1.582.303.373.198.643.564.643 1.048 0 .477-.278.922-.882 1.145v.015c.612.168 1.065.628 1.065 1.32 0 .484-.223.866-.556 1.136z"/>
  <path fill="#A0A0A0" d="M16.035 9.829c0-.405-.31-.62-.858-.62-.263 0-.413.016-.517.032v1.247h.397c.636 0 .978-.262.978-.66zM8.796 11.06c0 1.05.493 1.788 1.303 1.788.818 0 1.287-.778 1.287-1.82 0-.96-.46-1.787-1.295-1.787-.818 0-1.295.778-1.295 1.82z"/>
</svg>
