<svg width="24" height="24" viewBox="0 0 24 24" fill="none" xmlns="http://www.w3.org/2000/svg">
<path d="M19 20V20.75H19.75V20H19ZM5 20H4.25V20.75H5V20ZM5 4V3.25H4.25V4H5ZM16 4L16.5303 3.46967L16.3107 3.25H16V4ZM19 7L19.75 7V6.68934L19.5303 6.46967L19 7ZM4.71151 9.76283C4.58053 9.36987 4.15579 9.1575 3.76283 9.28849C3.36987 9.41947 3.1575 9.84421 3.28849 10.2372L4.71151 9.76283ZM6 16L5.28849 16.2372C5.39057 16.5434 5.67718 16.75 6 16.75C6.32282 16.75 6.60943 16.5434 6.71151 16.2372L6 16ZM8.71151 10.2372C8.8425 9.84421 8.63013 9.41947 8.23717 9.28849C7.84421 9.1575 7.41947 9.36987 7.28849 9.76283L8.71151 10.2372ZM16 10V9.25H15.25V10H16ZM16 16H15.25V16.75H16V16ZM17.5198 16V15.25V16ZM19 19.25H5V20.75H19V19.25ZM5 4.75H16V3.25H5V4.75ZM15.4697 4.53033L18.4697 7.53033L19.5303 6.46967L16.5303 3.46967L15.4697 4.53033ZM5.75 8V4H4.25V8H5.75ZM5.75 20V18H4.25V20H5.75ZM18.25 7L18.25 8L19.75 8L19.75 7L18.25 7ZM18.25 18V20H19.75V18H18.25ZM3.28849 10.2372L5.28849 16.2372L6.71151 15.7628L4.71151 9.76283L3.28849 10.2372ZM6.71151 16.2372L8.71151 10.2372L7.28849 9.76283L5.28849 15.7628L6.71151 16.2372ZM13.0094 12.312V13.688H14.5094V12.312H13.0094ZM10.5094 13.688V12.312H9.0094V13.688H10.5094ZM11.7594 15.25C11.1063 15.25 10.5094 14.6771 10.5094 13.688H9.0094C9.0094 15.2526 10.0458 16.75 11.7594 16.75V15.25ZM13.0094 13.688C13.0094 14.6771 12.4125 15.25 11.7594 15.25V16.75C13.473 16.75 14.5094 15.2526 14.5094 13.688H13.0094ZM11.7594 10.75C12.4125 10.75 13.0094 11.3229 13.0094 12.312H14.5094C14.5094 10.7474 13.473 9.25 11.7594 9.25V10.75ZM11.7594 9.25C10.0458 9.25 9.0094 10.7474 9.0094 12.312H10.5094C10.5094 11.3229 11.1063 10.75 11.7594 10.75V9.25ZM16 10.75H17.5204V9.25H16V10.75ZM17.5204 10.75C17.7435 10.75 17.9326 10.8237 18.0563 10.9342C18.1668 11.0329 18.2704 11.1996 18.2704 11.5H19.7704C19.7704 10.8004 19.5049 10.2171 19.0558 9.81576C18.62 9.42632 18.0592 9.25 17.5204 9.25V10.75ZM18.2704 11.5C18.2704 11.8004 18.1668 11.9671 18.0563 12.0658C17.9326 12.1763 17.7435 12.25 17.5204 12.25V13.75C18.0592 13.75 18.62 13.5737 19.0558 13.1842C19.5049 12.7829 19.7704 12.1996 19.7704 11.5H18.2704ZM15.25 10V13H16.75V10H15.25ZM15.25 13V16H16.75V13H15.25ZM17.5204 12.25H16V13.75H17.5204V12.25ZM16 16.75H17.5198V15.25H16V16.75ZM17.5198 16.75C18.0466 16.75 18.6031 16.5704 19.0377 16.1882C19.4872 15.793 19.7704 15.2113 19.7704 14.5H18.2704C18.2704 14.7887 18.1664 14.957 18.0473 15.0618C17.9132 15.1796 17.7194 15.25 17.5198 15.25V16.75ZM19.7704 14.5C19.7704 13.7912 19.4911 13.2092 19.0417 12.8127C18.6069 12.4289 18.0497 12.25 17.5204 12.25V13.75C17.7247 13.75 17.9175 13.8211 18.0492 13.9373C18.1665 14.0408 18.2704 14.2088 18.2704 14.5H19.7704Z" fill="black"/>
</svg>
