<svg width="24" height="24" viewBox="0 0 24 24" fill="none" xmlns="http://www.w3.org/2000/svg">
<path d="M13.0591 12.2639C12.9698 11.9673 12.8808 11.5969 12.8067 11.3002H12.7918C12.7177 11.5967 12.6436 11.9747 12.562 12.2639L12.2648 13.3247H13.3702L13.0591 12.2639Z" fill="black"/>
<path d="M19.7352 9.15391H19.2549V6.8367C19.2549 6.82214 19.2526 6.80769 19.2507 6.79295C19.25 6.70094 19.2207 6.61056 19.1577 6.53906L15.3016 2.13402C15.3004 2.1329 15.2993 2.1325 15.2985 2.13137C15.2755 2.1057 15.2487 2.08424 15.2204 2.06587C15.212 2.06013 15.2036 2.05545 15.1948 2.05054C15.1702 2.03725 15.1442 2.02603 15.1174 2.01801C15.1101 2.01609 15.1036 2.01311 15.0963 2.01111C15.0672 2.00432 15.037 2 15.0063 2H5.52949C5.09674 2 4.74518 2.35196 4.74518 2.78435V9.15373H4.26505C3.64599 9.15373 3.14403 9.65547 3.14403 10.2746V16.104C3.14403 16.7229 3.64599 17.2252 4.26505 17.2252H4.74522V21.2157C4.74522 21.648 5.09678 22 5.52953 22H18.4707C18.903 22 19.255 21.648 19.255 21.2157V17.2252H19.7352C20.3541 17.2252 20.8562 16.7231 20.8562 16.1043V10.2749C20.8561 9.65569 20.3541 9.15391 19.7352 9.15391ZM5.52949 2.78449H14.6142V6.7972C14.6142 7.01386 14.79 7.18935 15.0063 7.18935H18.4706V9.15405H5.52949V2.78449ZM13.5852 10.4543L15.1354 15.4528H13.9189L13.5333 14.1699H12.1018L11.746 15.4528H10.5744L12.1018 10.4543H13.5852ZM4.37409 10.4543H5.58284L5.96094 12.5161C6.07209 13.1091 6.17604 13.7544 6.25763 14.2591H6.27267C6.35426 13.7178 6.47267 13.1168 6.59895 12.5011L7.02136 10.4543H8.22309L8.62327 12.5607C8.73446 13.1464 8.81601 13.6804 8.89012 14.2369H8.90526C8.97919 13.6804 9.09034 13.0947 9.1943 12.5011L9.60243 10.4542H10.7519L9.46147 15.4528H8.23755L7.81482 13.3022C7.71852 12.7977 7.63693 12.3304 7.57778 11.7592H7.56304C7.47382 12.3228 7.39223 12.7973 7.27342 13.3022L6.79928 15.4528H5.56072L4.37409 10.4543ZM18.4707 21.0033H5.52949V17.2252H18.4706L18.4707 21.0033ZM17.8652 15.4528H16.5451L14.9432 10.4545H16.182L16.7898 12.5679C16.9606 13.1612 17.1161 13.7325 17.235 14.3554H17.257C17.3834 13.7548 17.5389 13.1612 17.7097 12.5902L18.3475 10.4545H19.5488L17.8652 15.4528Z" fill="black"/>
</svg>
