<svg width="24" height="24" viewBox="0 0 24 24" fill="none" xmlns="http://www.w3.org/2000/svg">
<path d="M19 20V20.75H19.75V20H19ZM5 20H4.25V20.75H5V20ZM5 4V3.25H4.25V4H5ZM16 4L16.5303 3.46967L16.3107 3.25H16V4ZM19 7H19.75V6.68934L19.5303 6.46967L19 7ZM3.72761 9.8181C3.62715 9.41625 3.21994 9.17193 2.8181 9.27239C2.41625 9.37285 2.17193 9.78006 2.27239 10.1819L3.72761 9.8181ZM4.5 16L3.77239 16.1819C3.85327 16.5054 4.13801 16.7367 4.47122 16.7494C4.80442 16.7622 5.10607 16.5535 5.21151 16.2372L4.5 16ZM6.5 10L7.21151 9.76283C7.10943 9.45657 6.82282 9.25 6.5 9.25C6.17718 9.25 5.89057 9.45657 5.78849 9.76283L6.5 10ZM8.5 16L7.78849 16.2372C7.89393 16.5535 8.19558 16.7622 8.52878 16.7494C8.86199 16.7367 9.14673 16.5054 9.22761 16.1819L8.5 16ZM10.7276 10.1819C10.8281 9.78006 10.5837 9.37285 10.1819 9.27239C9.78006 9.17193 9.37285 9.41625 9.27239 9.8181L10.7276 10.1819ZM10.2724 15.8181C10.1719 16.2199 10.4163 16.6271 10.8181 16.7276C11.2199 16.8281 11.6271 16.5837 11.7276 16.1819L10.2724 15.8181ZM12.5 10V9.25C12.1558 9.25 11.8559 9.48422 11.7724 9.8181L12.5 10ZM13.5 10L14.2276 9.8181C14.1441 9.48422 13.8442 9.25 13.5 9.25V10ZM14.2724 16.1819C14.3729 16.5837 14.7801 16.8281 15.1819 16.7276C15.5837 16.6271 15.8281 16.2199 15.7276 15.8181L14.2724 16.1819ZM16.7115 9.76283C16.5805 9.36987 16.1558 9.1575 15.7628 9.28849C15.3699 9.41947 15.1575 9.84421 15.2885 10.2372L16.7115 9.76283ZM18 16L17.2885 16.2372C17.3906 16.5434 17.6772 16.75 18 16.75C18.3228 16.75 18.6094 16.5434 18.7115 16.2372L18 16ZM20.7115 10.2372C20.8425 9.84421 20.6301 9.41947 20.2372 9.28849C19.8442 9.1575 19.4195 9.36987 19.2885 9.76283L20.7115 10.2372ZM19 19.25H5V20.75H19V19.25ZM5 4.75H16V3.25H5V4.75ZM15.4697 4.53033L18.4697 7.53033L19.5303 6.46967L16.5303 3.46967L15.4697 4.53033ZM5.75 8V4H4.25V8H5.75ZM5.75 20V18H4.25V20H5.75ZM18.25 7V8H19.75V7H18.25ZM18.25 18V20H19.75V18H18.25ZM2.27239 10.1819L3.77239 16.1819L5.22761 15.8181L3.72761 9.8181L2.27239 10.1819ZM5.21151 16.2372L7.21151 10.2372L5.78849 9.76283L3.78849 15.7628L5.21151 16.2372ZM5.78849 10.2372L7.78849 16.2372L9.21151 15.7628L7.21151 9.76283L5.78849 10.2372ZM9.22761 16.1819L10.7276 10.1819L9.27239 9.8181L7.77239 15.8181L9.22761 16.1819ZM11.7276 16.1819L12.2276 14.1819L10.7724 13.8181L10.2724 15.8181L11.7276 16.1819ZM12.2276 14.1819L13.2276 10.1819L11.7724 9.8181L10.7724 13.8181L12.2276 14.1819ZM12.5 10.75H13.5V9.25H12.5V10.75ZM12.7724 10.1819L13.7724 14.1819L15.2276 13.8181L14.2276 9.8181L12.7724 10.1819ZM13.7724 14.1819L14.2724 16.1819L15.7276 15.8181L15.2276 13.8181L13.7724 14.1819ZM11.5 14.75H14.5V13.25H11.5V14.75ZM15.2885 10.2372L17.2885 16.2372L18.7115 15.7628L16.7115 9.76283L15.2885 10.2372ZM18.7115 16.2372L20.7115 10.2372L19.2885 9.76283L17.2885 15.7628L18.7115 16.2372Z" fill="black"/>
</svg>
