<svg xmlns="http://www.w3.org/2000/svg" width="20" height="20" fill="none" viewBox="0 0 20 20">
  <path fill="#A0A0A0" d="M15.714 9.39h-.013c-.069.273-.137.622-.212.89l-.274.977h1.02l-.288-.978c-.082-.273-.164-.616-.233-.889z"/>
  <path fill="#A0A0A0" d="M17.735 7.154h-.48V4.837c0-.015-.002-.03-.004-.044a.385.385 0 00-.093-.254L13.302.134c-.002-.001-.003-.001-.003-.003a.385.385 0 00-.182-.113l-.02-.007a.392.392 0 00-.09-.011H3.53a.785.785 0 00-.785.784v6.37h-.48c-.619 0-1.121.501-1.121 1.12v5.83c0 .62.502 1.121 1.121 1.121h.48v3.99c0 .433.352.785.785.785h12.94a.785.785 0 00.785-.784v-3.99h.48c.62 0 1.121-.503 1.121-1.122v-5.83c0-.618-.502-1.12-1.12-1.12zM3.53.784h9.084v4.013c0 .217.176.392.392.392h3.465v1.965H3.53V.784zM13.21 13.22h-1.018l-.069-1.765a50.984 50.984 0 01-.041-1.894h-.02a24.815 24.815 0 01-.513 1.785l-.56 1.798h-.815l-.492-1.784c-.15-.54-.308-1.197-.417-1.799h-.014c-.027.622-.048 1.334-.082 1.908l-.082 1.75h-.964l.294-4.609h1.388l.451 1.539c.144.533.287 1.108.39 1.648h.02c.13-.533.288-1.142.438-1.655l.492-1.532h1.361l.253 4.61zm-10.312 0L1.804 8.61H2.92l.349 1.902c.102.546.198 1.142.274 1.607h.013c.076-.5.184-1.054.3-1.621l.39-1.888h1.109l.369 1.943c.102.54.177 1.032.246 1.545h.013c.069-.513.172-1.053.267-1.6l.376-1.888h1.06l-1.19 4.61H5.367l-.39-1.984a15.84 15.84 0 01-.218-1.422h-.014c-.082.52-.158.957-.267 1.422l-.437 1.984H2.899zm13.572 5.783H3.53v-3.778h12.94v3.778zm.27-5.783l-.356-1.183h-1.32l-.328 1.183h-1.08l1.408-4.61h1.368l1.43 4.61H16.74z"/>
</svg>
