<svg width="24" height="24" viewBox="0 0 24 24" fill="none" xmlns="http://www.w3.org/2000/svg">
<path d="M19 20V20.75H19.75V20H19ZM5 20H4.25V20.75H5V20ZM5 4V3.25H4.25V4H5ZM16 4L16.5303 3.46967L16.3107 3.25H16V4ZM19 7H19.75V6.68934L19.5303 6.46967L19 7ZM2.72761 9.8181C2.62715 9.41625 2.21994 9.17193 1.8181 9.27239C1.41625 9.37285 1.17193 9.78006 1.27239 10.1819L2.72761 9.8181ZM3.5 16L2.77239 16.1819C2.85327 16.5054 3.13801 16.7367 3.47122 16.7494C3.80442 16.7622 4.10607 16.5535 4.21151 16.2372L3.5 16ZM5.5 10L6.21151 9.76283C6.10943 9.45657 5.82282 9.25 5.5 9.25C5.17718 9.25 4.89057 9.45657 4.78849 9.76283L5.5 10ZM7.5 16L6.78849 16.2372C6.89393 16.5535 7.19558 16.7622 7.52878 16.7494C7.86199 16.7367 8.14673 16.5054 8.22761 16.1819L7.5 16ZM9.72761 10.1819C9.82807 9.78006 9.58375 9.37285 9.1819 9.27239C8.78006 9.17193 8.37285 9.41625 8.27239 9.8181L9.72761 10.1819ZM17.2724 15.8181C17.1719 16.2199 17.4163 16.6271 17.8181 16.7276C18.2199 16.8281 18.6271 16.5837 18.7276 16.1819L17.2724 15.8181ZM19.5 10V9.25C19.1558 9.25 18.8559 9.48422 18.7724 9.8181L19.5 10ZM20.5 10L21.2276 9.8181C21.1441 9.48422 20.8442 9.25 20.5 9.25V10ZM21.2724 16.1819C21.3729 16.5837 21.7801 16.8281 22.1819 16.7276C22.5837 16.6271 22.8281 16.2199 22.7276 15.8181L21.2724 16.1819ZM11 10V9.25C10.5858 9.25 10.25 9.58579 10.25 10H11ZM10.25 16C10.25 16.4142 10.5858 16.75 11 16.75C11.4142 16.75 11.75 16.4142 11.75 16H10.25ZM11.7143 10L12.4114 9.72337C12.298 9.43761 12.0217 9.25 11.7143 9.25V10ZM13.5 14.5L12.8029 14.7766C12.9163 15.0624 13.1926 15.25 13.5 15.25C13.8074 15.25 14.0837 15.0624 14.1971 14.7766L13.5 14.5ZM15.2857 10V9.25C14.9783 9.25 14.702 9.43761 14.5886 9.72337L15.2857 10ZM16 10H16.75C16.75 9.58579 16.4142 9.25 16 9.25V10ZM15.25 16C15.25 16.4142 15.5858 16.75 16 16.75C16.4142 16.75 16.75 16.4142 16.75 16H15.25ZM19 19.25H5V20.75H19V19.25ZM5 4.75H16V3.25H5V4.75ZM15.4697 4.53033L18.4697 7.53033L19.5303 6.46967L16.5303 3.46967L15.4697 4.53033ZM5.75 8V4H4.25V8H5.75ZM5.75 20V18H4.25V20H5.75ZM18.25 7V8H19.75V7H18.25ZM18.25 18V20H19.75V18H18.25ZM1.27239 10.1819L2.77239 16.1819L4.22761 15.8181L2.72761 9.8181L1.27239 10.1819ZM4.21151 16.2372L6.21151 10.2372L4.78849 9.76283L2.78849 15.7628L4.21151 16.2372ZM4.78849 10.2372L6.78849 16.2372L8.21151 15.7628L6.21151 9.76283L4.78849 10.2372ZM8.22761 16.1819L9.72761 10.1819L8.27239 9.8181L6.77239 15.8181L8.22761 16.1819ZM18.7276 16.1819L19.2276 14.1819L17.7724 13.8181L17.2724 15.8181L18.7276 16.1819ZM19.2276 14.1819L20.2276 10.1819L18.7724 9.8181L17.7724 13.8181L19.2276 14.1819ZM19.5 10.75H20.5V9.25H19.5V10.75ZM19.7724 10.1819L20.7724 14.1819L22.2276 13.8181L21.2276 9.8181L19.7724 10.1819ZM20.7724 14.1819L21.2724 16.1819L22.7276 15.8181L22.2276 13.8181L20.7724 14.1819ZM18.5 14.75H21.5V13.25H18.5V14.75ZM10.25 10V16H11.75V10H10.25ZM11 10.75H11.7143V9.25H11V10.75ZM11.0172 10.2766L12.8029 14.7766L14.1971 14.2234L12.4114 9.72337L11.0172 10.2766ZM14.1971 14.7766L15.9828 10.2766L14.5886 9.72337L12.8029 14.2234L14.1971 14.7766ZM15.2857 10.75H16V9.25H15.2857V10.75ZM15.25 10V16H16.75V10H15.25Z" fill="black"/>
</svg>
