<svg width="24" height="24" viewBox="0 0 24 24" fill="none" xmlns="http://www.w3.org/2000/svg">
<path d="M17.7145 11.39H17.7009C17.6325 11.6635 17.5642 12.0122 17.4891 12.2791L17.2155 13.257H18.2346L17.9475 12.2791C17.865 12.0057 17.7835 11.6635 17.7145 11.39Z" fill="black"/>
<path d="M19.7352 9.15391H19.2549V6.8367C19.2549 6.82225 19.2526 6.80769 19.2507 6.79306C19.25 6.70104 19.2207 6.61067 19.1577 6.53906L15.3016 2.13413C15.3004 2.13301 15.2993 2.13261 15.2985 2.13137C15.2755 2.1057 15.2487 2.08435 15.2204 2.06587C15.212 2.06024 15.2036 2.05552 15.1948 2.05065C15.1702 2.03725 15.1442 2.02614 15.1174 2.01812C15.1101 2.01609 15.1036 2.01311 15.0963 2.01122C15.0672 2.00432 15.037 2 15.0063 2H5.52949C5.09674 2 4.74518 2.35196 4.74518 2.78435V9.15373H4.26505C3.64599 9.15373 3.14403 9.65547 3.14403 10.2747V16.1043C3.14403 16.7231 3.64599 17.2252 4.26505 17.2252H4.74522V21.2157C4.74522 21.648 5.09678 22 5.52953 22H18.4707C18.903 22 19.255 21.648 19.255 21.2157V17.2252H19.7352C20.3541 17.2252 20.8562 16.7231 20.8562 16.1043V10.2749C20.8561 9.65569 20.3541 9.15391 19.7352 9.15391ZM5.52949 2.78449H14.6142V6.7973C14.6142 7.01397 14.79 7.18946 15.0063 7.18946H18.4706V9.15416H5.52949V2.78449ZM15.2112 15.2196H14.1925L14.1242 13.4552C14.1033 12.9015 14.083 12.2309 14.083 11.561H14.0623C13.9193 12.149 13.7276 12.8054 13.5501 13.3457L12.9891 15.1441H12.1754L11.6832 13.3595C11.5326 12.8196 11.3753 12.1628 11.2659 11.561H11.2522C11.2248 12.1834 11.2042 12.8946 11.1703 13.4689L11.0881 15.2194H10.1238L10.4176 10.6102H11.806L12.2574 12.149C12.401 12.6821 12.5442 13.2567 12.6473 13.7969H12.6676C12.7974 13.2638 12.9546 12.6549 13.1053 12.1425L13.5974 10.6104H14.9581L15.2112 15.2196ZM4.89878 15.2196L3.80445 10.6104H4.91918L5.26777 12.5116C5.37013 13.0585 5.46602 13.6536 5.54151 14.1186H5.55502C5.63058 13.6192 5.73941 13.0654 5.85586 12.4978L6.24561 10.6104H7.35353L7.7227 12.5526C7.82484 13.093 7.9004 13.5851 7.96874 14.0981H7.98235C8.05069 13.5851 8.15352 13.0447 8.2492 12.4978L8.62545 10.6104H9.68529L8.49524 15.2196H7.36703L6.97728 13.2362C6.88824 12.7713 6.81308 12.3409 6.75861 11.8144H6.74492C6.66297 12.334 6.58744 12.7713 6.47818 13.2362L6.04075 15.2196L4.89878 15.2196ZM18.4707 21.0033H5.52949V17.2252H18.4706L18.4707 21.0033ZM18.7406 15.2196L18.3852 14.0366H17.0652L16.737 15.2196H15.6563L17.0652 10.6104H18.4328L19.8623 15.2196H18.7406Z" fill="black"/>
</svg>
