<svg width="24" height="24" viewBox="0 0 24 24" fill="none" xmlns="http://www.w3.org/2000/svg">
<path d="M19.7352 9.15391H19.2549V6.8367C19.2549 6.82214 19.2526 6.80769 19.2507 6.79295C19.25 6.70094 19.2207 6.61056 19.1577 6.53906L15.3016 2.13402C15.3004 2.1329 15.2993 2.1325 15.2985 2.13137C15.2755 2.1057 15.2487 2.08424 15.2204 2.06587C15.212 2.06013 15.2036 2.05545 15.1948 2.05054C15.1702 2.03725 15.1442 2.02603 15.1174 2.01801C15.1101 2.01609 15.1036 2.01311 15.0963 2.01111C15.0672 2.00432 15.037 2 15.0063 2H5.52949C5.09674 2 4.74518 2.35196 4.74518 2.78435V9.15373H4.26505C3.64599 9.15373 3.14403 9.65547 3.14403 10.2746V16.104C3.14403 16.7229 3.64599 17.2252 4.26505 17.2252H4.74522V21.2157C4.74522 21.648 5.09678 22 5.52953 22H18.4707C18.903 22 19.255 21.648 19.255 21.2157V17.2252H19.7352C20.3541 17.2252 20.8562 16.7231 20.8562 16.1043V10.2749C20.8561 9.65569 20.3541 9.15391 19.7352 9.15391ZM5.52949 2.78449H14.6142V6.7972C14.6142 7.01386 14.79 7.18935 15.0063 7.18935H18.4706V9.15405H5.52949V2.78449ZM15.5727 15.2567H14.6197L14.5554 13.6062C14.5361 13.088 14.5177 12.4605 14.5177 11.8335H14.498C14.3634 12.3839 14.1845 12.9984 14.0181 13.5039L13.4935 15.1869H12.7319L12.2712 13.5166C12.1305 13.0107 11.9834 12.3972 11.8813 11.8335H11.868C11.8427 12.4157 11.8231 13.0813 11.7917 13.6188L11.7146 15.2567H10.8123L11.0876 10.9445H12.3861L12.8082 12.3839C12.9426 12.8829 13.077 13.4204 13.1731 13.9259H13.1919C13.3137 13.427 13.4611 12.8575 13.6017 12.3776L14.0624 10.9446H15.3357L15.5727 15.2567ZM4.9003 10.9445H5.94271L6.26889 12.723C6.365 13.2347 6.45462 13.7917 6.52521 14.2266H6.53813C6.60774 13.7597 6.71094 13.2412 6.81932 12.7104L7.18417 10.9445H8.22088L8.56641 12.7617C8.66206 13.2672 8.73224 13.7279 8.79659 14.2076H8.80915C8.87346 13.7279 8.96873 13.2224 9.05911 12.7104L9.41067 10.9445H10.4023L9.28899 15.2567H8.23308L7.86859 13.4017C7.78512 12.966 7.7154 12.5631 7.66409 12.0705H7.65153C7.57444 12.5567 7.50371 12.966 7.40193 13.4017L6.99256 15.2567H5.92368L4.9003 10.9445ZM18.4707 21.0033H5.52949V17.2252H18.4706V21.0033H18.4707ZM18.4783 15.2567H17.3394L15.9576 10.9446H17.0261L17.5504 12.768C17.6975 13.2795 17.8318 13.7727 17.9341 14.3101H17.954C18.0624 13.7917 18.1968 13.2795 18.3439 12.787L18.8942 10.9447H19.9305L18.4783 15.2567Z" fill="black"/>
</svg>
