<svg width="24" height="24" viewBox="0 0 24 24" fill="none" xmlns="http://www.w3.org/2000/svg">
<path d="M12.7618 11.5344C12.5383 11.5344 12.3872 11.5563 12.308 11.5778V13.011C12.4018 13.0326 12.5167 13.0395 12.6752 13.0395C13.2589 13.0395 13.6189 12.7446 13.6189 12.2475C13.6189 11.8011 13.3086 11.5344 12.7618 11.5344Z" fill="black"/>
<path d="M17.0038 11.5491C16.7587 11.5491 16.6002 11.5704 16.5063 11.5925V14.7679C16.6003 14.7896 16.7511 14.7896 16.8886 14.7896C17.8822 14.7968 18.5303 14.2492 18.5303 13.09C18.5376 12.0816 17.9469 11.5491 17.0038 11.5491Z" fill="black"/>
<path d="M19.7348 9.15401H19.2545V6.83648C19.2545 6.82204 19.2523 6.80748 19.2503 6.79286C19.2496 6.70082 19.2202 6.61047 19.1572 6.53887L15.3012 2.13413C15.3 2.133 15.2989 2.13259 15.2981 2.13146C15.2751 2.10567 15.2484 2.08433 15.22 2.06599C15.2116 2.06026 15.2031 2.05555 15.1943 2.05063C15.1698 2.03728 15.1438 2.02615 15.117 2.01809C15.1097 2.01609 15.1032 2.01313 15.0959 2.01123C15.0668 2.0043 15.0365 2 15.0059 2H5.52904C5.09631 2 4.74475 2.35204 4.74475 2.78433V9.15368H4.26457C3.64551 9.15368 3.14355 9.65546 3.14355 10.2747V16.1042C3.14355 16.7231 3.64551 17.2252 4.26457 17.2252H4.74475V21.2157C4.74475 21.6481 5.09631 22 5.52904 22H18.4702C18.9026 22 19.2545 21.6481 19.2545 21.2157V17.2252H19.7347C20.3536 17.2252 20.8556 16.7231 20.8556 16.1042V10.2749C20.8557 9.6555 20.3536 9.15401 19.7348 9.15401ZM5.52904 2.78433H14.6138V6.79712C14.6138 7.01376 14.7895 7.18925 15.0059 7.18925H18.4702V9.15394H5.52904V2.78433ZM14.7057 12.2185C14.7057 12.6941 14.5473 13.0972 14.2591 13.3712C13.8846 13.7239 13.33 13.8823 12.6825 13.8823C12.5381 13.8823 12.4084 13.875 12.3076 13.8607V15.5965H11.2202V10.8071C11.5589 10.7493 12.034 10.7063 12.7033 10.7063C13.3804 10.7063 13.8632 10.8357 14.1871 11.095C14.4966 11.3399 14.7057 11.7435 14.7057 12.2185ZM4.45673 10.7424H5.63045L5.9977 12.7445C6.10567 13.3206 6.20649 13.9466 6.28586 14.4364H6.30042C6.37961 13.911 6.49459 13.3274 6.61664 12.7299L7.02784 10.7424H8.19416L8.58318 12.7874C8.69116 13.3565 8.77024 13.875 8.84232 14.415H8.85651C8.9284 13.875 9.03652 13.3062 9.13753 12.7299L9.53348 10.7424H10.6494L9.39669 15.5961H8.20809L7.79791 13.5077C7.70398 13.0179 7.6249 12.5641 7.56726 12.0096H7.55318C7.46644 12.5572 7.38725 13.0179 7.2722 13.5077L6.81102 15.5961H5.60834L4.45673 10.7424ZM18.4702 21.0031H5.52904V17.2252H18.4702L18.4702 21.0031ZM18.8903 15.0202C18.3793 15.445 17.6013 15.6462 16.6507 15.6462C16.0819 15.6462 15.6788 15.6106 15.4048 15.5746V10.8071C15.8086 10.7424 16.3341 10.7063 16.8886 10.7063C17.81 10.7063 18.4078 10.8718 18.8761 11.225C19.3801 11.5994 19.6972 12.1968 19.6972 13.0539C19.6972 13.9832 19.3585 14.6237 18.8903 15.0202Z" fill="black"/>
</svg>
