<svg width="24" height="24" viewBox="0 0 24 24" fill="none" xmlns="http://www.w3.org/2000/svg">
<path d="M19 20V20.75H19.75V20H19ZM5 20H4.25V20.75H5V20ZM5 4V3.25H4.25V4H5ZM16 4L16.5303 3.46967L16.3107 3.25H16V4ZM19 7H19.75V6.68934L19.5303 6.46967L19 7ZM3.72761 9.8181C3.62715 9.41625 3.21994 9.17193 2.8181 9.27239C2.41625 9.37285 2.17193 9.78006 2.27239 10.1819L3.72761 9.8181ZM4.5 16L3.77239 16.1819C3.85327 16.5054 4.13801 16.7367 4.47122 16.7494C4.80442 16.7622 5.10607 16.5535 5.21151 16.2372L4.5 16ZM6.5 10L7.21151 9.76283C7.10943 9.45657 6.82282 9.25 6.5 9.25C6.17718 9.25 5.89057 9.45657 5.78849 9.76283L6.5 10ZM8.5 16L7.78849 16.2372C7.89393 16.5535 8.19558 16.7622 8.52878 16.7494C8.86199 16.7367 9.14673 16.5054 9.22761 16.1819L8.5 16ZM10.7276 10.1819C10.8281 9.78006 10.5837 9.37285 10.1819 9.27239C9.78006 9.17193 9.37285 9.41625 9.27239 9.8181L10.7276 10.1819ZM12 10V9.25H11.25V10H12ZM19.7324 10.7605C20.1466 10.7605 20.4824 10.4247 20.4824 10.0105C20.4824 9.59624 20.1466 9.26045 19.7324 9.26045V10.7605ZM18.4909 10.0105L18.4372 9.26238L18.4909 10.0105ZM17.3025 12.3664L17.8747 11.8814L17.3025 12.3664ZM19.3567 13.364L18.9488 13.9933H18.9488L19.3567 13.364ZM18.4909 16V15.25H18.4909L18.4909 16ZM17.1721 15.25C16.7579 15.25 16.4221 15.5858 16.4221 16C16.4221 16.4142 16.7579 16.75 17.1721 16.75L17.1721 15.25ZM11.25 16C11.25 16.4142 11.5858 16.75 12 16.75C12.4142 16.75 12.75 16.4142 12.75 16H11.25ZM19 19.25H5V20.75H19V19.25ZM5 4.75H16V3.25H5V4.75ZM15.4697 4.53033L18.4697 7.53033L19.5303 6.46967L16.5303 3.46967L15.4697 4.53033ZM5.75 8V4H4.25V8H5.75ZM5.75 20V18H4.25V20H5.75ZM18.25 7V8H19.75V7H18.25ZM18.25 18V20H19.75V18H18.25ZM2.27239 10.1819L3.77239 16.1819L5.22761 15.8181L3.72761 9.8181L2.27239 10.1819ZM5.21151 16.2372L7.21151 10.2372L5.78849 9.76283L3.78849 15.7628L5.21151 16.2372ZM5.78849 10.2372L7.78849 16.2372L9.21151 15.7628L7.21151 9.76283L5.78849 10.2372ZM9.22761 16.1819L10.7276 10.1819L9.27239 9.8181L7.77239 15.8181L9.22761 16.1819ZM13.5 12.8525H12V14.3525H13.5V12.8525ZM12.75 13.6025V10H11.25V13.6025H12.75ZM12 10.75H13.5V9.25H12V10.75ZM13.5 10.75C13.8719 10.75 14.0222 10.8472 14.0861 10.9132C14.1542 10.9836 14.25 11.1488 14.25 11.5332H15.75C15.75 10.9176 15.5958 10.3162 15.1639 9.86997C14.7278 9.41939 14.1281 9.25 13.5 9.25V10.75ZM14.25 11.5332V12.1378H15.75V11.5332H14.25ZM14.25 12.1378C14.25 12.3308 14.2106 12.4505 14.1718 12.5244C14.1328 12.5987 14.0792 12.6561 14.0108 12.7034C13.8582 12.8089 13.6457 12.8525 13.5 12.8525V14.3525C13.8543 14.3525 14.3918 14.2637 14.8642 13.9369C15.3788 13.5809 15.75 12.9844 15.75 12.1378H14.25ZM19.7324 9.26045C19.0286 9.26045 18.8092 9.25458 18.7281 9.25201C18.7015 9.25117 18.6468 9.24836 18.5855 9.25154C18.5566 9.25303 18.4933 9.25836 18.4372 9.26238L18.5446 10.7585C18.5882 10.7554 18.6182 10.753 18.6392 10.7514C18.6638 10.7495 18.6649 10.7494 18.6631 10.7495C18.6444 10.7505 18.6144 10.7492 18.6805 10.7513C18.7847 10.7546 19.0222 10.7605 19.7324 10.7605V9.26045ZM18.4372 9.26238C17.3544 9.34011 16.6461 9.94467 16.3737 10.7309C16.1253 11.4477 16.2555 12.291 16.7304 12.8513L17.8747 11.8814C17.7735 11.7621 17.7 11.4846 17.791 11.222C17.8579 11.0289 18.0319 10.7953 18.5446 10.7585L18.4372 9.26238ZM16.7304 12.8513C17.1613 13.3598 17.6299 13.5219 18.0168 13.6313C18.3833 13.735 18.6304 13.787 18.9488 13.9933L19.7646 12.7346C19.2172 12.3798 18.7253 12.2729 18.4251 12.188C18.1454 12.1088 18.0198 12.0527 17.8747 11.8814L16.7304 12.8513ZM18.9488 13.9933C19.18 14.1432 19.3022 14.4619 19.2297 14.766C19.1965 14.9055 19.126 15.0184 19.0266 15.0973C18.9307 15.1733 18.7674 15.25 18.4909 15.25V16.75C19.6912 16.75 20.4726 16.0217 20.6889 15.1137C20.8895 14.2717 20.5944 13.2724 19.7646 12.7346L18.9488 13.9933ZM18.4909 15.25L17.1721 15.25L17.1721 16.75L18.4909 16.75L18.4909 15.25ZM11.25 13.6025V16H12.75V13.6025H11.25Z" fill="black"/>
</svg>
