<svg width="24" height="24" viewBox="0 0 24 24" fill="none" xmlns="http://www.w3.org/2000/svg">
<path d="M19.7352 9.15398H19.255V6.83645C19.255 6.822 19.2527 6.80743 19.2507 6.79277C19.25 6.70079 19.2207 6.61041 19.1577 6.53877L15.3016 2.13413C15.3005 2.13301 15.2993 2.13261 15.2985 2.13144C15.2756 2.1057 15.2488 2.08435 15.2204 2.06598C15.212 2.06024 15.2036 2.05552 15.1948 2.05065C15.1703 2.03725 15.1442 2.02614 15.1174 2.01812C15.1102 2.01609 15.1036 2.01311 15.0964 2.01122C15.0672 2.00432 15.037 2 15.0063 2H5.52951C5.09676 2 4.7452 2.35203 4.7452 2.78435V9.15373H4.26506C3.646 9.15373 3.14404 9.65547 3.14404 10.2747V16.1043C3.14404 16.7231 3.646 17.2252 4.26506 17.2252H4.74524V21.2157C4.74524 21.648 5.0968 22 5.52955 22H18.4707C18.903 22 19.255 21.648 19.255 21.2157V17.2252H19.7352C20.3541 17.2252 20.8562 16.7231 20.8562 16.1043V10.2749C20.8561 9.65547 20.3541 9.15398 19.7352 9.15398ZM5.52951 2.78435H14.6142V6.79716C14.6142 7.01383 14.79 7.18932 15.0063 7.18932H18.4706V9.15402H5.52951V2.78435ZM15.4954 12.1976C15.4954 12.7185 15.3219 13.16 15.0065 13.4597C14.5964 13.8461 13.9892 14.0194 13.2796 14.0194C13.1221 14.0194 12.9797 14.0117 12.8694 13.996V15.8963H11.6789V10.6523C12.0495 10.5892 12.5701 10.5417 13.3029 10.5417C14.0447 10.5417 14.5728 10.6839 14.9278 10.9681C15.2668 11.2357 15.4954 11.6776 15.4954 12.1976ZM4.27272 10.5816H5.55798L5.96019 12.7738C6.07864 13.4045 6.1888 14.0908 6.27548 14.6267H6.29156C6.3782 14.0511 6.50413 13.4126 6.63822 12.758L7.08804 10.5816H8.36559L8.79137 12.8207C8.90982 13.444 8.99645 14.0117 9.07503 14.603H9.09075C9.17013 14.0117 9.28854 13.3888 9.39874 12.758L9.83254 10.5816H11.0545L9.68251 15.8963H8.38092L7.93168 13.6096C7.82896 13.0734 7.7421 12.5763 7.67892 11.969H7.66353C7.56875 12.5687 7.4819 13.0734 7.35619 13.6096L6.85136 15.8963H5.53441L4.27272 10.5816ZM18.4707 21.0031H5.52951V17.2252H18.4706L18.4707 21.0031ZM17.5623 15.9752C16.9553 15.9752 16.3557 15.8174 16.0565 15.6522L16.3004 14.6586C16.624 14.824 17.1211 14.9896 17.6335 14.9896C18.1853 14.9896 18.4774 14.761 18.4774 14.4138C18.4774 14.0828 18.2246 13.8936 17.5864 13.665C16.7029 13.3576 16.1271 12.8682 16.1271 12.0956C16.1271 11.1887 16.8844 10.4948 18.1386 10.4948C18.7378 10.4948 19.1791 10.6213 19.4943 10.7628L19.2266 11.7328C19.0137 11.6303 18.6348 11.4804 18.1145 11.4804C17.5941 11.4804 17.3419 11.7171 17.3419 11.9932C17.3419 12.3323 17.6416 12.4818 18.3275 12.7422C19.2657 13.0892 19.7077 13.5779 19.7077 14.3273C19.7076 15.218 19.0214 15.9752 17.5623 15.9752Z" fill="black"/>
<path d="M13.3666 11.4486C13.1223 11.4486 12.9563 11.4723 12.8696 11.4961V13.0654C12.9724 13.0891 13.0982 13.0968 13.2717 13.0968C13.9107 13.0968 14.3053 12.7737 14.3053 12.2293C14.3051 11.7404 13.9656 11.4486 13.3666 11.4486Z" fill="black"/>
</svg>
