<svg width="24" height="24" viewBox="0 0 24 24" fill="none" xmlns="http://www.w3.org/2000/svg">
<path d="M19 20V20.75H19.75V20H19ZM5 20H4.25V20.75H5V20ZM5 4V3.25H4.25V4H5ZM16 4L16.5303 3.46967L16.3107 3.25H16V4ZM19 7H19.75V6.68934L19.5303 6.46967L19 7ZM3.72761 9.8181C3.62715 9.41625 3.21994 9.17193 2.8181 9.27239C2.41625 9.37285 2.17193 9.78006 2.27239 10.1819L3.72761 9.8181ZM4.5 16L3.77239 16.1819C3.85327 16.5054 4.13801 16.7367 4.47122 16.7494C4.80442 16.7622 5.10607 16.5535 5.21151 16.2372L4.5 16ZM6.5 10L7.21151 9.76283C7.10943 9.45657 6.82282 9.25 6.5 9.25C6.17718 9.25 5.89057 9.45657 5.78849 9.76283L6.5 10ZM8.5 16L7.78849 16.2372C7.89393 16.5535 8.19558 16.7622 8.52878 16.7494C8.86199 16.7367 9.14673 16.5054 9.22761 16.1819L8.5 16ZM10.7276 10.1819C10.8281 9.78006 10.5837 9.37285 10.1819 9.27239C9.78006 9.17193 9.37285 9.41625 9.27239 9.8181L10.7276 10.1819ZM14.7324 10.7605C15.1466 10.7605 15.4824 10.4247 15.4824 10.0105C15.4824 9.59624 15.1466 9.26045 14.7324 9.26045V10.7605ZM13.4909 10.0105L13.4372 9.26238L13.4909 10.0105ZM12.3025 12.3664L12.8747 11.8814L12.3025 12.3664ZM14.3567 13.364L13.9488 13.9933H13.9488L14.3567 13.364ZM13.4909 16V15.25H13.4909L13.4909 16ZM12.1721 15.25C11.7579 15.25 11.4221 15.5858 11.4221 16C11.4221 16.4142 11.7579 16.75 12.1721 16.75L12.1721 15.25ZM17 10V9.25H16.25V10H17ZM16.25 16C16.25 16.4142 16.5858 16.75 17 16.75C17.4142 16.75 17.75 16.4142 17.75 16H16.25ZM20 10.75C20.4142 10.75 20.75 10.4142 20.75 10C20.75 9.58579 20.4142 9.25 20 9.25V10.75ZM19.5 13.75C19.9142 13.75 20.25 13.4142 20.25 13C20.25 12.5858 19.9142 12.25 19.5 12.25V13.75ZM19 19.25H5V20.75H19V19.25ZM5 4.75H16V3.25H5V4.75ZM15.4697 4.53033L18.4697 7.53033L19.5303 6.46967L16.5303 3.46967L15.4697 4.53033ZM5.75 8V4H4.25V8H5.75ZM5.75 20V18H4.25V20H5.75ZM18.25 7V8H19.75V7H18.25ZM18.25 18V20H19.75V18H18.25ZM2.27239 10.1819L3.77239 16.1819L5.22761 15.8181L3.72761 9.8181L2.27239 10.1819ZM5.21151 16.2372L7.21151 10.2372L5.78849 9.76283L3.78849 15.7628L5.21151 16.2372ZM5.78849 10.2372L7.78849 16.2372L9.21151 15.7628L7.21151 9.76283L5.78849 10.2372ZM9.22761 16.1819L10.7276 10.1819L9.27239 9.8181L7.77239 15.8181L9.22761 16.1819ZM14.7324 9.26045C14.0286 9.26045 13.8092 9.25458 13.7281 9.25201C13.7015 9.25117 13.6468 9.24836 13.5855 9.25154C13.5566 9.25303 13.4933 9.25836 13.4372 9.26238L13.5446 10.7585C13.5882 10.7554 13.6182 10.753 13.6392 10.7514C13.6638 10.7495 13.6649 10.7494 13.6631 10.7495C13.6444 10.7505 13.6144 10.7492 13.6805 10.7513C13.7847 10.7546 14.0222 10.7605 14.7324 10.7605V9.26045ZM13.4372 9.26238C12.3544 9.34011 11.6461 9.94467 11.3737 10.7309C11.1253 11.4477 11.2555 12.291 11.7304 12.8513L12.8747 11.8814C12.7735 11.7621 12.7 11.4846 12.791 11.222C12.8579 11.0289 13.0319 10.7953 13.5446 10.7585L13.4372 9.26238ZM11.7304 12.8513C12.1613 13.3598 12.6299 13.5219 13.0168 13.6313C13.3833 13.735 13.6304 13.787 13.9488 13.9933L14.7646 12.7346C14.2172 12.3798 13.7253 12.2729 13.4251 12.188C13.1454 12.1088 13.0198 12.0527 12.8747 11.8814L11.7304 12.8513ZM13.9488 13.9933C14.18 14.1432 14.3022 14.4619 14.2297 14.766C14.1965 14.9055 14.126 15.0184 14.0266 15.0973C13.9307 15.1733 13.7674 15.25 13.4909 15.25V16.75C14.6912 16.75 15.4726 16.0217 15.6889 15.1137C15.8895 14.2717 15.5944 13.2724 14.7646 12.7346L13.9488 13.9933ZM13.4909 15.25L12.1721 15.25L12.1721 16.75L13.4909 16.75L13.4909 15.25ZM16.25 10V13H17.75V10H16.25ZM16.25 13V16H17.75V13H16.25ZM17 10.75H20V9.25H17V10.75ZM17 13.75H19.5V12.25H17V13.75Z" fill="black"/>
</svg>
