<svg width="24" height="24" viewBox="0 0 24 24" fill="none" xmlns="http://www.w3.org/2000/svg">
<path d="M19.735 9.15372H19.2547V6.83648C19.2547 6.82193 19.2524 6.80748 19.2507 6.79271C19.25 6.70079 19.2205 6.61044 19.1575 6.53883L15.3012 2.13413C15.3001 2.133 15.2989 2.13252 15.2981 2.13139C15.2752 2.10571 15.2484 2.08433 15.22 2.06588C15.2116 2.06026 15.2032 2.05555 15.1943 2.05059C15.1698 2.03728 15.1438 2.02608 15.117 2.01802C15.1097 2.01612 15.1032 2.01313 15.096 2.01123C15.0668 2.0043 15.0365 2 15.006 2H5.52907C5.0963 2 4.74477 2.35197 4.74477 2.78433V9.15368H4.26463C3.64554 9.15368 3.14358 9.65546 3.14358 10.2747V16.1042C3.14358 16.7229 3.64554 17.2252 4.26463 17.2252H4.74477V21.2157C4.74477 21.6481 5.0963 22 5.52907 22H18.4703C18.9026 22 19.2546 21.6481 19.2546 21.2157V17.2252H19.7348C20.3536 17.2252 20.8557 16.7229 20.8557 16.1042V10.2748C20.8557 9.6555 20.354 9.15372 19.735 9.15372ZM5.52907 2.78433H14.6138V6.79701C14.6138 7.0138 14.7895 7.18918 15.0059 7.18918H18.4703V9.15387H5.52907V2.78433ZM13.1964 13.5937C12.344 13.2969 11.7879 12.8251 11.7879 12.0788C11.7879 11.2035 12.5186 10.5341 13.7291 10.5341C14.307 10.5341 14.7336 10.6559 15.0379 10.793L14.7792 11.7289C14.5737 11.6301 14.2086 11.4853 13.7059 11.4853C13.2036 11.4853 12.9601 11.7135 12.9601 11.98C12.9601 12.3072 13.2494 12.4519 13.9116 12.7031C14.8171 13.0379 15.2434 13.5096 15.2434 14.233C15.2434 15.0932 14.5814 15.8235 13.1731 15.8235C12.5873 15.8235 12.0088 15.6715 11.7197 15.5114L11.9553 14.5525C12.2676 14.7123 12.7472 14.8723 13.2418 14.8723C13.7747 14.8723 14.056 14.6516 14.056 14.3166C14.0561 13.9972 13.8128 13.8143 13.1964 13.5937ZM4.83206 10.6177H6.07279L6.46083 12.734C6.57515 13.3427 6.68163 14.0045 6.7652 14.5224H6.78074C6.8642 13.9663 6.98618 13.3499 7.11534 12.7187L7.54953 10.6177H8.78267L9.19362 12.7793C9.30794 13.3802 9.3915 13.9286 9.46771 14.4992H9.48266C9.55897 13.9286 9.67325 13.3269 9.77991 12.7184L10.1979 10.6175H11.3777L10.0534 15.7473H8.79788L8.36398 13.5403C8.26499 13.0223 8.18142 12.543 8.1205 11.9571H8.10522C8.01395 12.5358 7.93049 13.0225 7.80851 13.5403L7.32129 15.7473H6.04974L4.83206 10.6177ZM18.4703 21.0031H5.52907V17.2252H18.4703V21.0031ZM19.163 11.5691H17.1915V12.7414H19.0336V13.6851H17.1915V15.748H16.0273V10.6177H19.163V11.5691Z" fill="black"/>
</svg>
