<svg xmlns="http://www.w3.org/2000/svg" width="20" height="20" fill="none" viewBox="0 0 20 20">
  <path fill="#A0A0A0" d="M17.735 7.154h-.48V4.836c0-.014-.002-.029-.004-.043a.385.385 0 00-.093-.254L13.3.134 13.3.131a.381.381 0 00-.079-.065c-.008-.006-.016-.01-.025-.015a.41.41 0 00-.078-.033l-.02-.007a.394.394 0 00-.09-.011H3.53a.785.785 0 00-.785.784v6.37h-.48c-.619 0-1.121.501-1.121 1.12v5.83c0 .619.502 1.121 1.121 1.121h.48v3.99c0 .433.352.785.785.785h12.94a.785.785 0 00.785-.784v-3.99h.48c.62 0 1.121-.503 1.121-1.122v-5.83c0-.619-.502-1.12-1.12-1.12zM3.53.784h9.084v4.013c0 .217.176.392.392.392h3.465v1.965H3.53V.784zm11.743 11.994h-.723l-.049-1.253a37.06 37.06 0 01-.029-1.345h-.014c-.103.417-.238.883-.364 1.267l-.399 1.277h-.577l-.35-1.267c-.107-.384-.219-.85-.296-1.277h-.01c-.02.442-.034.947-.058 1.355l-.058 1.243h-.685l.209-3.273h.986l.32 1.092c.102.38.204.787.277 1.17h.014c.093-.378.204-.81.311-1.175l.35-1.087h.966l.18 3.273zm-6.428-2.652v-.621h2.515v.621h-.893v2.652h-.743v-2.652h-.879zm-2.354 1.282v1.37h-.743V9.505h.743v1.257h1.218V9.505h.739v3.273h-.739v-1.37H6.491zm-3.117 1.37h-.845l.947-1.656-.913-1.617h.85l.286.597c.097.2.17.36.248.544h.01c.077-.209.14-.355.222-.544l.277-.597h.845l-.922 1.597.97 1.676h-.854l-.296-.593c-.122-.228-.2-.398-.292-.588h-.01c-.067.19-.15.36-.252.588l-.271.593zm13.097 6.225H3.53v-3.778h12.94v3.778zm1.414-6.225H15.84V9.505h.743v2.651h1.3v.622z"/>
</svg>
