<svg width="24" height="24" viewBox="0 0 24 24" fill="none" xmlns="http://www.w3.org/2000/svg">
<path d="M19 20V20.75H19.75V20H19ZM5 20H4.25L4.25 20.75H5V20ZM5 4V3.25H4.25L4.25 4L5 4ZM16 4L16.5303 3.46967L16.3107 3.25H16V4ZM19 7H19.75V6.68934L19.5303 6.46967L19 7ZM14.482 10.5925V9.84249C14.0678 9.84249 13.732 10.1783 13.732 10.5925H14.482ZM13.732 15.4042C13.732 15.8184 14.0678 16.1542 14.482 16.1542C14.8962 16.1542 15.232 15.8184 15.232 15.4042H13.732ZM15.0549 10.5925L15.752 10.3159C15.6386 10.0301 15.3623 9.84249 15.0549 9.84249V10.5925ZM16.4869 14.2013L15.7898 14.4779C15.9032 14.7637 16.1795 14.9513 16.4869 14.9513C16.7944 14.9513 17.0706 14.7637 17.184 14.4779L16.4869 14.2013ZM17.919 10.5925V9.84249C17.6116 9.84249 17.3353 10.0301 17.2219 10.3159L17.919 10.5925ZM18.4918 10.5925H19.2418C19.2418 10.1783 18.906 9.84249 18.4918 9.84249V10.5925ZM17.7418 15.4042C17.7418 15.8184 18.0776 16.1542 18.4918 16.1542C18.906 16.1542 19.2418 15.8184 19.2418 15.4042H17.7418ZM21.0944 10.5925C21.0944 10.1783 20.7586 9.84249 20.3444 9.84249C19.9302 9.84249 19.5944 10.1783 19.5944 10.5925H21.0944ZM20.3444 15.4042H19.5944V16.1542H20.3444V15.4042ZM22.3493 16.1542C22.7635 16.1542 23.0993 15.8184 23.0993 15.4042C23.0993 14.99 22.7635 14.6542 22.3493 14.6542V16.1542ZM6.41051 10.5925C6.41051 10.1783 6.07473 9.84249 5.66051 9.84249C5.2463 9.84249 4.91051 10.1783 4.91051 10.5925H6.41051ZM4.91051 15.4042C4.91051 15.8184 5.2463 16.1542 5.66051 16.1542C6.07473 16.1542 6.41051 15.8184 6.41051 15.4042H4.91051ZM8.81638 10.5925C8.81638 10.1783 8.4806 9.84249 8.06638 9.84249C7.65217 9.84249 7.31638 10.1783 7.31638 10.5925H8.81638ZM7.31638 15.4042C7.31638 15.8184 7.65217 16.1542 8.06638 16.1542C8.4806 16.1542 8.81638 15.8184 8.81638 15.4042H7.31638ZM10.5242 15.4042C10.5242 15.8184 10.86 16.1542 11.2742 16.1542C11.6884 16.1542 12.0242 15.8184 12.0242 15.4042H10.5242ZM9.6703 9.84249C9.25608 9.84249 8.9203 10.1783 8.9203 10.5925C8.9203 11.0067 9.25608 11.3425 9.6703 11.3425V9.84249ZM12.8781 11.3425C13.2923 11.3425 13.6281 11.0067 13.6281 10.5925C13.6281 10.1783 13.2923 9.84249 12.8781 9.84249V11.3425ZM2.32155 10.2571C2.13631 9.8866 1.68581 9.73643 1.31532 9.92167C0.94484 10.1069 0.794672 10.5574 0.979914 10.9279L2.32155 10.2571ZM3.38578 15.7396C3.57102 16.1101 4.02153 16.2603 4.39201 16.0751C4.7625 15.8898 4.91266 15.4393 4.72742 15.0688L3.38578 15.7396ZM4.72742 10.9279C4.91266 10.5574 4.7625 10.1069 4.39201 9.92167C4.02153 9.73643 3.57102 9.8866 3.38578 10.2571L4.72742 10.9279ZM0.979914 15.0688C0.794672 15.4393 0.94484 15.8898 1.31532 16.0751C1.68581 16.2603 2.13631 16.1101 2.32155 15.7396L0.979914 15.0688ZM19 19.25H5V20.75H19V19.25ZM5 4.75H16V3.25H5V4.75ZM15.4697 4.53033L18.4697 7.53033L19.5303 6.46967L16.5303 3.46967L15.4697 4.53033ZM5.75 8L5.75 4L4.25 4L4.25 8L5.75 8ZM5.75 20L5.75 18L4.25 18L4.25 20L5.75 20ZM18.25 7V8H19.75V7H18.25ZM18.25 18V20H19.75V18H18.25ZM13.732 10.5925V15.4042H15.232V10.5925H13.732ZM14.482 11.3425H15.0549V9.84249H14.482V11.3425ZM14.3577 10.8691L15.7898 14.4779L17.184 13.9247L15.752 10.3159L14.3577 10.8691ZM17.184 14.4779L18.6161 10.8691L17.2219 10.3159L15.7898 13.9247L17.184 14.4779ZM17.919 11.3425H18.4918V9.84249H17.919V11.3425ZM17.7418 10.5925V15.4042H19.2418V10.5925H17.7418ZM19.5944 10.5925V15.4042H21.0944V10.5925H19.5944ZM20.3444 16.1542H22.3493V14.6542H20.3444V16.1542ZM4.91051 10.5925V12.9984H6.41051V10.5925H4.91051ZM4.91051 12.9984V15.4042H6.41051V12.9984H4.91051ZM7.31638 10.5925V12.9984H8.81638V10.5925H7.31638ZM7.31638 12.9984V15.4042H8.81638V12.9984H7.31638ZM5.66051 13.7484H8.06638V12.2484H5.66051V13.7484ZM10.5242 10.5925V15.4042H12.0242V10.5925H10.5242ZM9.6703 11.3425H11.2742V9.84249H9.6703V11.3425ZM11.2742 11.3425H12.8781V9.84249H11.2742V11.3425ZM0.979914 10.9279L2.18285 13.3338L3.52449 12.663L2.32155 10.2571L0.979914 10.9279ZM2.18285 13.3338L3.38578 15.7396L4.72742 15.0688L3.52449 12.663L2.18285 13.3338ZM3.38578 10.2571L2.18285 12.663L3.52449 13.3338L4.72742 10.9279L3.38578 10.2571ZM2.18285 12.663L0.979914 15.0688L2.32155 15.7396L3.52449 13.3338L2.18285 12.663Z" fill="black"/>
</svg>
