<svg width="24" height="24" viewBox="0 0 24 24" fill="none" xmlns="http://www.w3.org/2000/svg">
<path d="M19.7352 9.15373H19.2549V6.83648C19.2549 6.82192 19.2526 6.80747 19.2507 6.79273C19.2499 6.70083 19.2205 6.61034 19.1577 6.53881L15.3014 2.13413C15.3004 2.1329 15.2993 2.1325 15.2985 2.13137C15.2755 2.1057 15.2487 2.08424 15.2204 2.06587C15.212 2.06024 15.2036 2.05552 15.1948 2.05054C15.1702 2.03725 15.1442 2.02603 15.1174 2.01801C15.1101 2.01609 15.1036 2.01311 15.0963 2.01118C15.0672 2.00432 15.037 2 15.0063 2H5.52948C5.09673 2 4.74517 2.35196 4.74517 2.78435V9.15373H4.26496C3.64601 9.15373 3.14401 9.65547 3.14401 10.2747V16.1043C3.14401 16.7229 3.64597 17.2252 4.26496 17.2252H4.74521V21.2157C4.74521 21.648 5.09677 22 5.52952 22H18.4706C18.903 22 19.255 21.648 19.255 21.2157V17.2252H19.7352C20.3541 17.2252 20.8561 16.7229 20.8561 16.1043V10.2747C20.8561 9.65547 20.354 9.15373 19.7352 9.15373ZM5.52948 2.78435H14.6142V6.79705C14.6142 7.01372 14.7899 7.18921 15.0063 7.18921H18.4706V9.15391H5.52948V2.78435ZM17.2731 14.7776H16.5497L16.501 13.525C16.4865 13.1316 16.4723 12.6554 16.4723 12.18H16.4578C16.3555 12.5974 16.2199 13.0635 16.0936 13.4472L15.6951 14.7244H15.1178L14.7678 13.4572C14.6613 13.0731 14.5495 12.6074 14.4717 12.18H14.4621C14.4426 12.6219 14.4282 13.1267 14.4037 13.5349L14.3457 14.7776H13.661L13.8699 11.5049H14.8555L15.176 12.5974C15.2781 12.9762 15.3797 13.384 15.4529 13.7677H15.4674C15.5597 13.3886 15.6712 12.9566 15.778 12.5924L16.1277 11.5049H17.0939L17.2731 14.7776ZM10.8449 12.1264V11.5049H13.3604V12.1264H12.4667V14.7776H11.7238V12.1264H10.8449ZM8.49065 13.4082V14.7776H7.74788V11.5049H8.49065V12.7625H9.70924V11.5049H10.4475V14.7776H9.70924V13.4082H8.49065ZM5.37382 14.7776H4.52908L5.47596 13.1217L4.56296 11.5049H5.41256L5.69901 12.1023C5.79611 12.3016 5.86906 12.4619 5.94651 12.6461H5.95628C6.03373 12.4374 6.09709 12.2914 6.17944 12.1023L6.45631 11.5049H7.30122L6.37864 13.1022L7.34955 14.7776H6.49505L6.19883 14.1852C6.07744 13.957 5.99959 13.7869 5.9074 13.5974H5.89782C5.82973 13.787 5.74724 13.957 5.64524 14.1852L5.37382 14.7776ZM18.4706 21.0031H5.52948V17.2252H18.4706V21.0031H18.4706ZM19.8847 14.7776H17.8408V11.5049H18.5836V14.1561H19.8847V14.7776Z" fill="black"/>
</svg>
