<svg xmlns="http://www.w3.org/2000/svg" width="20" height="20" fill="none" viewBox="0 0 20 20">
  <path fill="#A0A0A0" d="M17.735 7.154h-.48V4.836c0-.014-.002-.029-.004-.043a.385.385 0 00-.093-.254L13.302.134l-.003-.003a.39.39 0 00-.079-.065c-.008-.006-.016-.01-.025-.015a.41.41 0 00-.078-.033l-.02-.007a.393.393 0 00-.09-.011H3.53a.785.785 0 00-.785.784v6.37h-.48c-.619 0-1.121.501-1.121 1.12v5.83c0 .619.502 1.121 1.121 1.121h.48v3.99c0 .433.352.785.785.785h12.94a.785.785 0 00.785-.784v-3.99h.48c.62 0 1.121-.503 1.121-1.122v-5.83a1.12 1.12 0 00-1.12-1.12zM3.53.784h9.084v4.013c0 .217.176.392.392.392h3.465v1.965H3.53V.784zm8.685 12.162v1.108H8.57V8.22h1.324v4.726h2.32zm-9.381 1.108l1.687-2.951L2.894 8.22H4.41l.51 1.064c.174.355.303.64.442.97h.017c.138-.372.251-.632.398-.97l.493-1.064h1.506l-1.644 2.847 1.731 2.986H6.34l-.528-1.056c-.216-.407-.355-.71-.52-1.047h-.017c-.12.337-.267.64-.45 1.047l-.484 1.056H2.834zm13.637 4.95H3.53v-3.779h12.94v3.778zm-.422-4.95c-.096-.165-.234-.64-.407-1.359-.156-.727-.406-.926-.943-.935H14.3v2.294h-1.307V8.299c.425-.07 1.056-.122 1.757-.122.866 0 1.472.13 1.887.46.347.276.537.683.537 1.22 0 .744-.528 1.254-1.03 1.436v.026c.406.164.632.554.779 1.09.181.658.363 1.42.476 1.645h-1.35z"/>
  <path fill="#A0A0A0" d="M14.897 9.155c-.32 0-.502.026-.597.044v1.61h.52c.657 0 1.046-.33 1.046-.84 0-.537-.363-.805-.969-.814z"/>
</svg>
