<svg width="24" height="24" viewBox="0 0 24 24" fill="none" xmlns="http://www.w3.org/2000/svg">
<path d="M19 20V20.75H19.75V20H19ZM5 20H4.25V20.75H5V20ZM5 4V3.25H4.25V4H5ZM16 4L16.5303 3.46967L16.3107 3.25H16V4ZM19 7L19.75 7V6.68934L19.5303 6.46967L19 7ZM5.67082 9.66459C5.48558 9.29411 5.03507 9.14394 4.66459 9.32918C4.29411 9.51442 4.14394 9.96493 4.32918 10.3354L5.67082 9.66459ZM7.32918 16.3354C7.51442 16.7059 7.96493 16.8561 8.33541 16.6708C8.70589 16.4856 8.85606 16.0351 8.67082 15.6646L7.32918 16.3354ZM8.67082 10.3354C8.85606 9.96493 8.70589 9.51442 8.33541 9.32918C7.96493 9.14394 7.51442 9.29411 7.32918 9.66459L8.67082 10.3354ZM4.32918 15.6646C4.14394 16.0351 4.29411 16.4856 4.66459 16.6708C5.03507 16.8561 5.48558 16.7059 5.67082 16.3354L4.32918 15.6646ZM11.508 10C11.508 9.58579 11.1722 9.25 10.758 9.25C10.3438 9.25 10.008 9.58579 10.008 10H11.508ZM10.758 16H10.008V16.75H10.758V16ZM13.758 16.75C14.1722 16.75 14.508 16.4142 14.508 16C14.508 15.5858 14.1722 15.25 13.758 15.25V16.75ZM18.7324 10.7605C19.1466 10.7605 19.4824 10.4247 19.4824 10.0105C19.4824 9.59624 19.1466 9.26045 18.7324 9.26045V10.7605ZM17.4909 10.0105L17.4372 9.26238L17.4909 10.0105ZM16.3025 12.3664L16.8747 11.8814L16.3025 12.3664ZM18.3567 13.364L17.9488 13.9933H17.9488L18.3567 13.364ZM17.4909 16V15.25H17.4909L17.4909 16ZM16.1721 15.25C15.7579 15.25 15.4221 15.5858 15.4221 16C15.4221 16.4142 15.7579 16.75 16.1721 16.75L16.1721 15.25ZM19 19.25H5V20.75H19V19.25ZM5 4.75H16V3.25H5V4.75ZM15.4697 4.53033L18.4697 7.53033L19.5303 6.46967L16.5303 3.46967L15.4697 4.53033ZM5.75 8V4H4.25V8H5.75ZM5.75 20V18H4.25V20H5.75ZM18.25 7L18.25 8L19.75 8L19.75 7L18.25 7ZM18.25 18V20H19.75V18H18.25ZM4.32918 10.3354L5.82918 13.3354L7.17082 12.6646L5.67082 9.66459L4.32918 10.3354ZM5.82918 13.3354L7.32918 16.3354L8.67082 15.6646L7.17082 12.6646L5.82918 13.3354ZM7.32918 9.66459L5.82918 12.6646L7.17082 13.3354L8.67082 10.3354L7.32918 9.66459ZM5.82918 12.6646L4.32918 15.6646L5.67082 16.3354L7.17082 13.3354L5.82918 12.6646ZM10.008 10V16H11.508V10H10.008ZM10.758 16.75H13.758V15.25H10.758V16.75ZM18.7324 9.26045C18.0286 9.26045 17.8092 9.25458 17.7281 9.25201C17.7015 9.25117 17.6468 9.24836 17.5855 9.25154C17.5566 9.25303 17.4933 9.25836 17.4372 9.26238L17.5446 10.7585C17.5882 10.7554 17.6182 10.753 17.6392 10.7514C17.6638 10.7495 17.6649 10.7494 17.6631 10.7495C17.6444 10.7505 17.6144 10.7492 17.6805 10.7513C17.7847 10.7546 18.0222 10.7605 18.7324 10.7605V9.26045ZM17.4372 9.26238C16.3544 9.34011 15.6461 9.94467 15.3737 10.7309C15.1253 11.4477 15.2555 12.291 15.7304 12.8513L16.8747 11.8814C16.7735 11.7621 16.7 11.4846 16.791 11.222C16.8579 11.0289 17.0319 10.7953 17.5446 10.7585L17.4372 9.26238ZM15.7304 12.8513C16.1613 13.3598 16.6299 13.5219 17.0168 13.6313C17.3833 13.735 17.6304 13.787 17.9488 13.9933L18.7646 12.7346C18.2172 12.3798 17.7253 12.2729 17.4251 12.188C17.1454 12.1088 17.0198 12.0527 16.8747 11.8814L15.7304 12.8513ZM17.9488 13.9933C18.18 14.1432 18.3022 14.4619 18.2297 14.766C18.1965 14.9055 18.126 15.0184 18.0266 15.0973C17.9307 15.1733 17.7674 15.25 17.4909 15.25V16.75C18.6912 16.75 19.4726 16.0217 19.6889 15.1137C19.8895 14.2717 19.5944 13.2724 18.7646 12.7346L17.9488 13.9933ZM17.4909 15.25L16.1721 15.25L16.1721 16.75L17.4909 16.75L17.4909 15.25Z" fill="black"/>
</svg>
