<svg width="24" height="24" viewBox="0 0 24 24" fill="none" xmlns="http://www.w3.org/2000/svg">
<path d="M19.7354 9.15391H19.2551V6.8367C19.2551 6.82225 19.2529 6.80769 19.2511 6.79295C19.2504 6.70104 19.2209 6.61063 19.1579 6.53906L15.3016 2.13413C15.3004 2.13301 15.2993 2.13261 15.2985 2.13137C15.2755 2.1057 15.2487 2.08435 15.2204 2.06587C15.212 2.06024 15.2036 2.05552 15.1948 2.05054C15.1702 2.03725 15.1442 2.02603 15.1174 2.01801C15.1101 2.01609 15.1036 2.01311 15.0963 2.01118C15.0672 2.00432 15.037 2 15.0063 2H5.52949C5.09674 2 4.74518 2.35196 4.74518 2.78435V9.15373H4.26504C3.64598 9.15373 3.14402 9.65547 3.14402 10.2747V16.1043C3.14402 16.7229 3.64598 17.2252 4.26504 17.2252H4.74522V21.2157C4.74522 21.648 5.09678 22 5.52953 22H18.4707C18.903 22 19.255 21.648 19.255 21.2157V17.2252H19.7352C20.3541 17.2252 20.8562 16.7231 20.8562 16.1043V10.2749C20.8561 9.65547 20.3544 9.15391 19.7354 9.15391ZM5.52949 2.78435H14.6142V6.79705C14.6142 7.01372 14.79 7.18921 15.0063 7.18921H18.4706V9.15391H5.52949V2.78435ZM14.3298 14.8665V16.0039H10.5879V10.0139H11.9481V14.8665H14.3298ZM4.69616 16.0037L6.42927 12.9733L4.75829 10.0139H6.31358L6.83787 11.1068C7.01576 11.471 7.14913 11.7647 7.2914 12.1023H7.30893C7.45149 11.72 7.56677 11.4533 7.71775 11.1068L8.22443 10.0139H9.77083L8.08206 12.9379L9.85987 16.0039H8.29557L7.75348 14.9197C7.53145 14.5019 7.38907 14.1909 7.2203 13.8443H7.20251C7.07792 14.1911 6.92716 14.5023 6.74056 14.9197L6.24271 16.0039H4.69616V16.0037ZM18.4707 21.0033H5.52949V17.2252H18.4706V21.0033H18.4707ZM16.5956 16.0931C15.9117 16.0931 15.236 15.915 14.8986 15.7286L15.1737 14.6088C15.5383 14.7953 16.0982 14.9821 16.6761 14.9821C17.2984 14.9821 17.627 14.7244 17.627 14.3334C17.627 13.96 17.3426 13.7467 16.6227 13.4889C15.6273 13.1422 14.9784 12.5913 14.9784 11.72C14.9784 10.6978 15.8317 9.91589 17.2452 9.91589C17.9204 9.91589 18.4182 10.0585 18.7736 10.2181L18.4715 11.3113C18.2316 11.1957 17.8048 11.0269 17.2184 11.0269C16.6319 11.0269 16.3476 11.2933 16.3476 11.6047C16.3476 11.9869 16.6849 12.1559 17.4584 12.4492C18.5159 12.8402 19.0138 13.391 19.0138 14.2354C19.0133 15.2399 18.2403 16.0931 16.5956 16.0931Z" fill="black"/>
</svg>
