<svg width="24" height="24" viewBox="0 0 24 24" fill="none" xmlns="http://www.w3.org/2000/svg">
<path d="M19.735 9.1539H19.2547V6.8367C19.2547 6.82226 19.2525 6.8077 19.2508 6.79293C19.25 6.70101 19.2205 6.61065 19.1575 6.53905L15.3013 2.13413C15.3 2.133 15.2989 2.13259 15.2982 2.13139C15.2752 2.10571 15.2484 2.08433 15.22 2.06588C15.2116 2.06026 15.2032 2.05555 15.1944 2.05059C15.1699 2.03728 15.1438 2.02608 15.117 2.01802C15.1097 2.01612 15.1032 2.01313 15.096 2.01123C15.0668 2.0043 15.0366 2 15.006 2H5.52907C5.09634 2 4.74478 2.35197 4.74478 2.78433V9.15368H4.2646C3.64554 9.15368 3.14359 9.65546 3.14359 10.2747V16.1042C3.14359 16.7229 3.64554 17.2252 4.2646 17.2252H4.74478V21.2157C4.74478 21.6481 5.09634 22 5.52907 22H18.4702C18.9026 22 19.2545 21.6481 19.2545 21.2157V17.2252H19.7348C20.3536 17.2252 20.8557 16.7231 20.8557 16.1042V10.2749C20.8557 9.6555 20.354 9.1539 19.735 9.1539ZM5.52907 2.78433H14.6138V6.79701C14.6138 7.01369 14.7895 7.18918 15.006 7.18918H18.4703V9.15387H5.52907V2.78433ZM13.4745 13.4779C12.7039 13.2094 12.2011 12.7832 12.2011 12.1084C12.2011 11.3169 12.8617 10.7114 13.9562 10.7114C14.479 10.7114 14.8646 10.8214 15.1396 10.9454L14.9058 11.7916C14.7201 11.7024 14.3898 11.5714 13.9356 11.5714C13.4813 11.5714 13.2612 11.7779 13.2612 12.0188C13.2612 12.3149 13.5227 12.4455 14.1213 12.6725C14.9401 12.9755 15.3255 13.4021 15.3255 14.0558C15.3255 14.8336 14.7267 15.4943 13.4536 15.4943C12.9238 15.4943 12.4008 15.3568 12.1393 15.212L12.3524 14.345C12.6347 14.4894 13.0684 14.6341 13.5155 14.6341C13.9976 14.6341 14.2519 14.4346 14.2519 14.1317C14.2521 13.8429 14.0319 13.6774 13.4745 13.4779ZM11.6995 14.5444V15.4256H8.80182V10.7866H9.85517V14.5444H11.6995ZM5.43715 15.4256H4.23975L5.58167 13.0782L4.28772 10.7865H5.49223L5.89804 11.6331C6.0357 11.9153 6.139 12.1421 6.24924 12.404H6.26262C6.37304 12.108 6.46241 11.9016 6.57906 11.6331L6.97141 10.7865H8.16884L6.86121 13.0504L8.23785 15.4252H7.02674L6.60671 14.5854C6.43494 14.2624 6.32474 14.0213 6.19394 13.7529H6.18026C6.08378 14.0213 5.96705 14.2624 5.82238 14.5854L5.43715 15.4256ZM18.4703 21.0033H5.52907V17.2252H18.4702L18.4703 21.0033ZM18.4773 15.4256L18.0574 14.5858C17.8854 14.2625 17.7753 14.0217 17.6445 13.7532H17.6312C17.5347 14.0217 17.4175 14.2625 17.2727 14.5858L16.8879 15.4256H15.6901L17.032 13.0782L15.7381 10.7865H16.9426L17.3489 11.6331C17.4864 11.9153 17.5894 12.1421 17.6998 12.404H17.7135C17.8234 12.108 17.9126 11.9016 18.0298 11.6331L18.422 10.7865H19.6197L18.3121 13.0504L19.6884 15.4252L18.4773 15.4256Z" fill="black"/>
</svg>
