<svg width="24" height="24" viewBox="0 0 24 24" fill="none" xmlns="http://www.w3.org/2000/svg">
<path d="M19 20V20.75H19.75V20H19ZM5 20H4.25V20.75H5V20ZM5 4V3.25H4.25V4H5ZM16 4L16.5303 3.46967L16.3107 3.25H16V4ZM19 7H19.75V6.68934L19.5303 6.46967L19 7ZM9.23086 10C9.23086 9.58579 8.89508 9.25 8.48086 9.25C8.06665 9.25 7.73086 9.58579 7.73086 10H9.23086ZM8.48086 16H7.73086V16.75H8.48086V16ZM11.1865 16.75C11.6007 16.75 11.9365 16.4142 11.9365 16C11.9365 15.5858 11.6007 15.25 11.1865 15.25V16.75ZM15.7324 10.7605C16.1466 10.7605 16.4824 10.4247 16.4824 10.0105C16.4824 9.59624 16.1466 9.26045 15.7324 9.26045V10.7605ZM14.4909 10.0105L14.4372 9.26238L14.4909 10.0105ZM13.3025 12.3664L13.8747 11.8814L13.3025 12.3664ZM15.3567 13.364L14.9488 13.9933H14.9488L15.3567 13.364ZM14.4909 16V15.25H14.4909L14.4909 16ZM13.1721 15.25C12.7579 15.25 12.4221 15.5858 12.4221 16C12.4221 16.4142 12.7579 16.75 13.1721 16.75L13.1721 15.25ZM3.67082 9.66459C3.48558 9.29411 3.03507 9.14394 2.66459 9.32918C2.29411 9.51442 2.14394 9.96493 2.32918 10.3354L3.67082 9.66459ZM5.32918 16.3354C5.51442 16.7059 5.96493 16.8561 6.33541 16.6708C6.70589 16.4856 6.85606 16.0351 6.67082 15.6646L5.32918 16.3354ZM6.67082 10.3354C6.85606 9.96493 6.70589 9.51442 6.33541 9.32918C5.96493 9.14394 5.51442 9.29411 5.32918 9.66459L6.67082 10.3354ZM2.32918 15.6646C2.14394 16.0351 2.29411 16.4856 2.66459 16.6708C3.03507 16.8561 3.48558 16.7059 3.67082 16.3354L2.32918 15.6646ZM18.6708 9.66459C18.4856 9.29411 18.0351 9.14394 17.6646 9.32918C17.2941 9.51442 17.1439 9.96493 17.3292 10.3354L18.6708 9.66459ZM20.3292 16.3354C20.5144 16.7059 20.9649 16.8561 21.3354 16.6708C21.7059 16.4856 21.8561 16.0351 21.6708 15.6646L20.3292 16.3354ZM21.6708 10.3354C21.8561 9.96493 21.7059 9.51442 21.3354 9.32918C20.9649 9.14394 20.5144 9.29411 20.3292 9.66459L21.6708 10.3354ZM17.3292 15.6646C17.1439 16.0351 17.2941 16.4856 17.6646 16.6708C18.0351 16.8561 18.4856 16.7059 18.6708 16.3354L17.3292 15.6646ZM19 19.25H5V20.75H19V19.25ZM5 4.75H16V3.25H5V4.75ZM15.4697 4.53033L18.4697 7.53033L19.5303 6.46967L16.5303 3.46967L15.4697 4.53033ZM5.75 8V4H4.25V8H5.75ZM5.75 20V18H4.25V20H5.75ZM18.25 7V8H19.75V7H18.25ZM18.25 18V20H19.75V18H18.25ZM7.73086 10V16H9.23086V10H7.73086ZM8.48086 16.75H11.1865V15.25H8.48086V16.75ZM15.7324 9.26045C15.0286 9.26045 14.8092 9.25458 14.7281 9.25201C14.7015 9.25117 14.6468 9.24836 14.5855 9.25154C14.5566 9.25303 14.4933 9.25836 14.4372 9.26238L14.5446 10.7585C14.5882 10.7554 14.6182 10.753 14.6392 10.7514C14.6638 10.7495 14.6649 10.7494 14.6631 10.7495C14.6444 10.7505 14.6144 10.7492 14.6805 10.7513C14.7847 10.7546 15.0222 10.7605 15.7324 10.7605V9.26045ZM14.4372 9.26238C13.3544 9.34011 12.6461 9.94467 12.3737 10.7309C12.1253 11.4477 12.2555 12.291 12.7304 12.8513L13.8747 11.8814C13.7735 11.7621 13.7 11.4846 13.791 11.222C13.8579 11.0289 14.0319 10.7953 14.5446 10.7585L14.4372 9.26238ZM12.7304 12.8513C13.1613 13.3598 13.6299 13.5219 14.0168 13.6313C14.3833 13.735 14.6304 13.787 14.9488 13.9933L15.7646 12.7346C15.2172 12.3798 14.7253 12.2729 14.4251 12.188C14.1454 12.1088 14.0198 12.0527 13.8747 11.8814L12.7304 12.8513ZM14.9488 13.9933C15.18 14.1432 15.3022 14.4619 15.2297 14.766C15.1965 14.9055 15.126 15.0184 15.0266 15.0973C14.9307 15.1733 14.7674 15.25 14.4909 15.25V16.75C15.6912 16.75 16.4726 16.0217 16.6889 15.1137C16.8895 14.2717 16.5944 13.2724 15.7646 12.7346L14.9488 13.9933ZM14.4909 15.25L13.1721 15.25L13.1721 16.75L14.4909 16.75L14.4909 15.25ZM2.32918 10.3354L3.82918 13.3354L5.17082 12.6646L3.67082 9.66459L2.32918 10.3354ZM3.82918 13.3354L5.32918 16.3354L6.67082 15.6646L5.17082 12.6646L3.82918 13.3354ZM5.32918 9.66459L3.82918 12.6646L5.17082 13.3354L6.67082 10.3354L5.32918 9.66459ZM3.82918 12.6646L2.32918 15.6646L3.67082 16.3354L5.17082 13.3354L3.82918 12.6646ZM17.3292 10.3354L18.8292 13.3354L20.1708 12.6646L18.6708 9.66459L17.3292 10.3354ZM18.8292 13.3354L20.3292 16.3354L21.6708 15.6646L20.1708 12.6646L18.8292 13.3354ZM20.3292 9.66459L18.8292 12.6646L20.1708 13.3354L21.6708 10.3354L20.3292 9.66459ZM18.8292 12.6646L17.3292 15.6646L18.6708 16.3354L20.1708 13.3354L18.8292 12.6646Z" fill="black"/>
</svg>
