<svg width="24" height="24" viewBox="0 0 24 24" fill="none" xmlns="http://www.w3.org/2000/svg">
<path d="M19 20V20.75H19.75V20H19ZM5 20H4.25V20.75H5V20ZM5 4V3.25H4.25V4H5ZM16 4L16.5303 3.46967L16.3107 3.25H16V4ZM19 7L19.75 7V6.68934L19.5303 6.46967L19 7ZM5.67082 9.66459C5.48558 9.29411 5.03507 9.14394 4.66459 9.32918C4.29411 9.51442 4.14394 9.96493 4.32918 10.3354L5.67082 9.66459ZM7.32918 16.3354C7.51442 16.7059 7.96493 16.8561 8.33541 16.6708C8.70589 16.4856 8.85606 16.0351 8.67082 15.6646L7.32918 16.3354ZM8.67082 10.3354C8.85606 9.96493 8.70589 9.51442 8.33541 9.32918C7.96493 9.14394 7.51442 9.29411 7.32918 9.66459L8.67082 10.3354ZM4.32918 15.6646C4.14394 16.0351 4.29411 16.4856 4.66459 16.6708C5.03507 16.8561 5.48558 16.7059 5.67082 16.3354L4.32918 15.6646ZM10 10V9.25C9.58579 9.25 9.25 9.58579 9.25 10H10ZM9.25 16C9.25 16.4142 9.58579 16.75 10 16.75C10.4142 16.75 10.75 16.4142 10.75 16H9.25ZM10.7143 10L11.4114 9.72337C11.298 9.43761 11.0217 9.25 10.7143 9.25V10ZM12.5 14.5L11.8029 14.7766C11.9163 15.0624 12.1926 15.25 12.5 15.25C12.8074 15.25 13.0837 15.0624 13.1971 14.7766L12.5 14.5ZM14.2857 10V9.25C13.9783 9.25 13.702 9.43761 13.5886 9.72337L14.2857 10ZM15 10H15.75C15.75 9.58579 15.4142 9.25 15 9.25V10ZM14.25 16C14.25 16.4142 14.5858 16.75 15 16.75C15.4142 16.75 15.75 16.4142 15.75 16H14.25ZM18.25 10C18.25 9.58579 17.9142 9.25 17.5 9.25C17.0858 9.25 16.75 9.58579 16.75 10H18.25ZM17.5 16H16.75V16.75H17.5V16ZM20.5 16.75C20.9142 16.75 21.25 16.4142 21.25 16C21.25 15.5858 20.9142 15.25 20.5 15.25V16.75ZM19 19.25H5V20.75H19V19.25ZM5 4.75H16V3.25H5V4.75ZM15.4697 4.53033L18.4697 7.53033L19.5303 6.46967L16.5303 3.46967L15.4697 4.53033ZM5.75 8V4H4.25V8H5.75ZM5.75 20V18H4.25V20H5.75ZM18.25 7L18.25 8L19.75 8L19.75 7L18.25 7ZM18.25 18V20H19.75V18H18.25ZM4.32918 10.3354L5.82918 13.3354L7.17082 12.6646L5.67082 9.66459L4.32918 10.3354ZM5.82918 13.3354L7.32918 16.3354L8.67082 15.6646L7.17082 12.6646L5.82918 13.3354ZM7.32918 9.66459L5.82918 12.6646L7.17082 13.3354L8.67082 10.3354L7.32918 9.66459ZM5.82918 12.6646L4.32918 15.6646L5.67082 16.3354L7.17082 13.3354L5.82918 12.6646ZM9.25 10V16H10.75V10H9.25ZM10 10.75H10.7143V9.25H10V10.75ZM10.0172 10.2766L11.8029 14.7766L13.1971 14.2234L11.4114 9.72337L10.0172 10.2766ZM13.1971 14.7766L14.9828 10.2766L13.5886 9.72337L11.8029 14.2234L13.1971 14.7766ZM14.2857 10.75H15V9.25H14.2857V10.75ZM14.25 10V16H15.75V10H14.25ZM16.75 10V16H18.25V10H16.75ZM17.5 16.75H20.5V15.25H17.5V16.75Z" fill="black"/>
</svg>
