<svg width="24" height="24" viewBox="0 0 24 24" fill="none" xmlns="http://www.w3.org/2000/svg">
<path d="M19.735 9.15372H19.2547V6.83648C19.2547 6.82193 19.2524 6.80748 19.2507 6.79271C19.25 6.70079 19.2205 6.61044 19.1575 6.53883L15.3012 2.13413C15.3001 2.133 15.2989 2.13252 15.2981 2.13139C15.2752 2.10571 15.2484 2.08433 15.22 2.06588C15.2116 2.06026 15.2032 2.05555 15.1943 2.05059C15.1698 2.03728 15.1438 2.02608 15.117 2.01802C15.1097 2.01612 15.1032 2.01313 15.096 2.01123C15.0668 2.0043 15.0365 2 15.006 2H5.52907C5.09631 2 4.74478 2.35197 4.74478 2.78433V9.15368H4.26463C3.64554 9.15368 3.14359 9.65546 3.14359 10.2747V16.1042C3.14359 16.7229 3.64554 17.2252 4.26463 17.2252H4.74478V21.2157C4.74478 21.6481 5.09631 22 5.52907 22H18.4703C18.9026 22 19.2546 21.6481 19.2546 21.2157V17.2252H19.7348C20.3536 17.2252 20.8557 16.7229 20.8557 16.1042V10.2748C20.8557 9.6555 20.354 9.15372 19.735 9.15372ZM5.52907 2.78433H14.6138V6.79701C14.6138 7.0138 14.7895 7.18918 15.0059 7.18918H18.4703V9.15387H5.52907V2.78433ZM11.8756 14.9535C12.509 14.9535 12.8575 14.5104 12.8575 13.5681V10.4956H14.0611V13.4888C14.0611 15.1359 13.2297 15.9199 11.8361 15.9199C10.4899 15.9199 9.69813 15.1752 9.69813 13.4729V10.4956H10.9095V13.5681C10.9095 14.4866 11.258 14.9535 11.8756 14.9535ZM4.47966 10.4955H5.85776L6.40397 11.7781C6.57027 12.1662 6.68123 12.4515 6.81576 12.7998H6.83166C6.95047 12.467 7.07715 12.1585 7.23557 11.7781L7.77423 10.4955H9.12807L7.37032 13.6071V15.8325H6.16658V13.6468L4.47966 10.4955ZM18.4703 21.0031H5.52907V17.2252H18.4703V21.0031ZM17.7744 15.8325H16.3651L14.6545 10.4955H15.9771L16.6263 12.7519C16.8085 13.3855 16.9748 13.9956 17.1015 14.6604H17.1252C17.2601 14.0191 17.4262 13.3855 17.6086 12.776L18.2895 10.4955H19.5722L17.7744 15.8325Z" fill="black"/>
</svg>
