<svg width="24" height="24" viewBox="0 0 24 24" fill="none" xmlns="http://www.w3.org/2000/svg">
<path d="M19 20V20.75H19.75V20H19ZM5 20H4.25V20.75H5V20ZM5 4V3.25H4.25V4H5ZM16 4L16.5303 3.46967L16.3107 3.25H16V4ZM19 7L19.75 7V6.68934L19.5303 6.46967L19 7ZM4.67082 9.66459C4.48558 9.29411 4.03507 9.14394 3.66459 9.32918C3.29411 9.51442 3.14394 9.96493 3.32918 10.3354L4.67082 9.66459ZM8.67082 10.3354C8.85606 9.96493 8.70589 9.51442 8.33541 9.32918C7.96493 9.14394 7.51442 9.29411 7.32918 9.66459L8.67082 10.3354ZM5.25 16C5.25 16.4142 5.58579 16.75 6 16.75C6.41421 16.75 6.75 16.4142 6.75 16H5.25ZM16.7115 9.76283C16.5805 9.36987 16.1558 9.1575 15.7628 9.28849C15.3699 9.41947 15.1575 9.84421 15.2885 10.2372L16.7115 9.76283ZM18 16L17.2885 16.2372C17.3906 16.5434 17.6772 16.75 18 16.75C18.3228 16.75 18.6094 16.5434 18.7115 16.2372L18 16ZM20.7115 10.2372C20.8425 9.84421 20.6301 9.41947 20.2372 9.28849C19.8442 9.1575 19.4195 9.36987 19.2885 9.76283L20.7115 10.2372ZM14.5 10C14.5 9.58579 14.1642 9.25 13.75 9.25C13.3358 9.25 13 9.58579 13 10H14.5ZM11 10C11 9.58579 10.6642 9.25 10.25 9.25C9.83579 9.25 9.5 9.58579 9.5 10H11ZM19 19.25H5V20.75H19V19.25ZM5 4.75H16V3.25H5V4.75ZM15.4697 4.53033L18.4697 7.53033L19.5303 6.46967L16.5303 3.46967L15.4697 4.53033ZM5.75 8V4H4.25V8H5.75ZM5.75 20V18H4.25V20H5.75ZM18.25 7L18.25 8L19.75 8L19.75 7L18.25 7ZM18.25 18V20H19.75V18H18.25ZM3.32918 10.3354L5.32918 14.3354L6.67082 13.6646L4.67082 9.66459L3.32918 10.3354ZM6.67082 14.3354L8.67082 10.3354L7.32918 9.66459L5.32918 13.6646L6.67082 14.3354ZM5.25 14V16H6.75V14H5.25ZM15.2885 10.2372L17.2885 16.2372L18.7115 15.7628L16.7115 9.76283L15.2885 10.2372ZM18.7115 16.2372L20.7115 10.2372L19.2885 9.76283L17.2885 15.7628L18.7115 16.2372ZM13 10V13.6833H14.5V10H13ZM11 13.6833V10H9.5V13.6833H11ZM11.975 15.25C11.6411 15.25 11.4391 15.1206 11.2904 14.9003C11.1184 14.6456 11 14.2302 11 13.6833H9.5C9.5 14.4118 9.65238 15.1547 10.0471 15.7395C10.465 16.3586 11.1255 16.75 11.975 16.75V15.25ZM13 13.6833C13 14.218 12.8741 14.6311 12.6932 14.8878C12.5321 15.1164 12.3129 15.25 11.975 15.25V16.75C12.8203 16.75 13.4887 16.3629 13.9193 15.752C14.33 15.1692 14.5 14.4239 14.5 13.6833H13Z" fill="black"/>
</svg>
