<svg width="24" height="24" viewBox="0 0 24 24" fill="none" xmlns="http://www.w3.org/2000/svg">
<path d="M19.7348 9.1539H19.2546V6.8367C19.2546 6.82226 19.2523 6.8077 19.2504 6.79308C19.2496 6.70104 19.2203 6.61069 19.1573 6.53905L15.3013 2.13413C15.3 2.133 15.2989 2.13259 15.2982 2.13139C15.2752 2.10571 15.2484 2.08433 15.22 2.06588C15.2116 2.06026 15.2032 2.05555 15.1944 2.05063C15.1699 2.03728 15.1438 2.02615 15.117 2.01809C15.1097 2.01609 15.1032 2.01313 15.096 2.01123C15.0668 2.0043 15.0366 2 15.006 2H5.52907C5.09634 2 4.74478 2.35197 4.74478 2.78433V9.15368H4.2646C3.64554 9.15368 3.14359 9.65546 3.14359 10.2747V16.1042C3.14359 16.7231 3.64554 17.2252 4.2646 17.2252H4.74478V21.2157C4.74478 21.6481 5.09634 22 5.52907 22H18.4702C18.9026 22 19.2545 21.6481 19.2545 21.2157V17.2252H19.7348C20.3536 17.2252 20.8557 16.7231 20.8557 16.1042V10.2749C20.8557 9.65568 20.3537 9.1539 19.7348 9.1539ZM5.52907 2.78451H14.6138V6.79734C14.6138 7.01398 14.7895 7.18947 15.006 7.18947H18.4703V9.15416H5.52907V2.78451ZM13.7931 10.1576V16.0138H12.4636V10.1576H13.7931ZM7.33658 11.2523V10.1576H11.5852V10.9225L8.85712 14.8845V14.9189H11.6288V16.0138H7.07599V15.3012L9.8652 11.2873V11.2523H7.33658ZM18.4703 21.0033H5.52907V17.2252H18.4702L18.4703 21.0033ZM18.6068 13.3292C18.155 13.755 17.486 13.9458 16.704 13.9458C16.5298 13.9458 16.3739 13.9374 16.2521 13.9199V16.0138H14.9402V10.2358C15.3485 10.166 15.9218 10.1142 16.7298 10.1142C17.5469 10.1142 18.1287 10.2704 18.52 10.5833C18.8934 10.8786 19.1454 11.3653 19.1454 11.9388C19.1456 12.5122 18.9543 12.9988 18.6068 13.3292Z" fill="black"/>
<path d="M16.7995 11.1134C16.5295 11.1134 16.347 11.1396 16.2518 11.1658V12.8947C16.3644 12.9208 16.5038 12.9296 16.6951 12.9296C17.3986 12.9296 17.8333 12.573 17.8333 11.9739C17.8334 11.4351 17.4597 11.1134 16.7995 11.1134Z" fill="black"/>
</svg>
