<svg width="24" height="24" viewBox="0 0 24 24" fill="none" xmlns="http://www.w3.org/2000/svg">
<path d="M19 20V20.75H19.75V20H19ZM5 20H4.25V20.75H5V20ZM5 4V3.25H4.25V4H5ZM16 4L16.5303 3.46967L16.3107 3.25H16V4ZM19 7L19.75 7V6.68934L19.5303 6.46967L19 7ZM6 9.25C5.58579 9.25 5.25 9.58579 5.25 10C5.25 10.4142 5.58579 10.75 6 10.75V9.25ZM9.32894 10H10.0789V9.25H9.32894V10ZM9.32894 10.2341L9.97144 10.6209L10.0789 10.4424V10.2341H9.32894ZM6 15.7623L5.35749 15.3754L5.25 15.554V15.7623H6ZM6 16H5.25V16.75H6V16ZM9.5 16.75C9.91421 16.75 10.25 16.4142 10.25 16C10.25 15.5858 9.91421 15.25 9.5 15.25V16.75ZM12.75 10C12.75 9.58579 12.4142 9.25 12 9.25C11.5858 9.25 11.25 9.58579 11.25 10H12.75ZM11.25 16C11.25 16.4142 11.5858 16.75 12 16.75C12.4142 16.75 12.75 16.4142 12.75 16H11.25ZM15 10V9.25H14.25V10H15ZM14.25 16C14.25 16.4142 14.5858 16.75 15 16.75C15.4142 16.75 15.75 16.4142 15.75 16H14.25ZM19 19.25H5V20.75H19V19.25ZM5 4.75H16V3.25H5V4.75ZM15.4697 4.53033L18.4697 7.53033L19.5303 6.46967L16.5303 3.46967L15.4697 4.53033ZM5.75 8V4H4.25V8H5.75ZM5.75 20V18H4.25V20H5.75ZM18.25 7L18.25 8L19.75 8L19.75 7L18.25 7ZM18.25 18V20H19.75V18H18.25ZM6 10.75H9.32894V9.25H6V10.75ZM8.57894 10V10.2341H10.0789V10H8.57894ZM8.68643 9.84716L5.35749 15.3754L6.64251 16.1492L9.97144 10.6209L8.68643 9.84716ZM5.25 15.7623V16H6.75V15.7623H5.25ZM6 16.75H9.5V15.25H6V16.75ZM11.25 10V16H12.75V10H11.25ZM16.5 12.8525H15V14.3525H16.5V12.8525ZM15.75 13.6025V10H14.25V13.6025H15.75ZM15 10.75H16.5V9.25H15V10.75ZM16.5 10.75C16.8719 10.75 17.0222 10.8472 17.0861 10.9132C17.1542 10.9836 17.25 11.1488 17.25 11.5332H18.75C18.75 10.9176 18.5958 10.3162 18.1639 9.86997C17.7278 9.41939 17.1281 9.25 16.5 9.25V10.75ZM17.25 11.5332V12.1378H18.75V11.5332H17.25ZM17.25 12.1378C17.25 12.3308 17.2106 12.4505 17.1718 12.5244C17.1328 12.5987 17.0792 12.6561 17.0108 12.7034C16.8582 12.8089 16.6457 12.8525 16.5 12.8525V14.3525C16.8543 14.3525 17.3918 14.2637 17.8642 13.9369C18.3788 13.5809 18.75 12.9844 18.75 12.1378H17.25ZM14.25 13.6025V16H15.75V13.6025H14.25Z" fill="black"/>
</svg>
