<svg xmlns="http://www.w3.org/2000/svg" width="20" height="20" fill="none" viewBox="0 0 20 20">
  <path fill="#A0A0A0" d="M9.893 9.445c-.274 0-.45.024-.554.048v3.54c.104.023.273.023.425.023 1.108.009 1.83-.602 1.83-1.894.008-1.124-.65-1.717-1.701-1.717z"/>
  <path fill="#A0A0A0" d="M17.735 7.154h-.48V4.836c0-.014-.003-.029-.005-.043a.384.384 0 00-.093-.254L13.301.134l-.003-.003a.384.384 0 00-.104-.08.41.41 0 00-.077-.033l-.021-.007a.393.393 0 00-.09-.011H3.529a.785.785 0 00-.784.784v6.37h-.48c-.62 0-1.121.501-1.121 1.12v5.83c0 .619.502 1.121 1.12 1.121h.48v3.99c0 .433.352.785.785.785H16.47a.785.785 0 00.785-.784v-3.99h.48c.619 0 1.12-.503 1.12-1.122V8.275a1.12 1.12 0 00-1.12-1.121zM3.529.784h9.085v4.013c0 .217.175.392.392.392h3.464v1.965H3.53V.784zm9.365 10.338c0 1.035-.377 1.75-.898 2.191-.57.474-1.437.698-2.497.698-.633 0-1.083-.04-1.388-.08V8.618c.45-.072 1.036-.112 1.653-.112 1.027 0 1.694.184 2.216.577.561.418.914 1.084.914 2.039zM3.316 13.82l.264-.973c.23.12.76.342 1.289.342.674 0 1.015-.325 1.015-.742 0-.547-.546-.795-1.118-.795h-.529v-.93h.503c.436-.008.99-.17.99-.64 0-.332-.273-.58-.819-.58-.452 0-.93.197-1.16.333l-.265-.938c.333-.214.999-.419 1.715-.419 1.186 0 1.843.623 1.843 1.383 0 .589-.332 1.05-1.015 1.288v.017c.665.12 1.203.623 1.203 1.348 0 .981-.862 1.698-2.27 1.698-.716 0-1.322-.187-1.646-.392zm13.154 5.182H3.53v-3.778H16.47v3.778zm-1.45-4.967c-.617 0-1.227-.16-1.532-.33l.249-1.01c.33.168.835.336 1.357.336.561 0 .858-.233.858-.586 0-.337-.257-.53-.907-.762-.898-.313-1.485-.81-1.485-1.598 0-.922.771-1.629 2.047-1.629.61 0 1.06.129 1.38.273l-.272.987a2.574 2.574 0 00-1.132-.257c-.53 0-.786.241-.786.522 0 .345.304.498 1.002.763.956.353 1.405.85 1.405 1.613 0 .907-.698 1.678-2.183 1.678z"/>
</svg>
