<svg xmlns="http://www.w3.org/2000/svg" width="20" height="20" fill="none" viewBox="0 0 20 20">
  <path fill="#A0A0A0" d="M5.823 10.195c-.095-.318-.19-.715-.27-1.032h-.016c-.08.317-.159.722-.246 1.032l-.317 1.135h1.182l-.333-1.135z"/>
  <path fill="#A0A0A0" d="M17.735 7.154h-.48V4.837c0-.015-.002-.03-.004-.044a.384.384 0 00-.093-.254L13.302.134l-.003-.003a.381.381 0 00-.104-.08.41.41 0 00-.078-.033l-.02-.007a.398.398 0 00-.09-.011H3.53a.785.785 0 00-.785.784v6.37h-.48a1.12 1.12 0 00-1.121 1.12v5.83c0 .619.502 1.121 1.121 1.121h.48v3.99c0 .433.352.785.785.785h12.94a.785.785 0 00.785-.784v-3.99h.48c.62 0 1.121-.503 1.121-1.122v-5.83c0-.618-.502-1.12-1.12-1.12zM3.53.784h9.084v4.013c0 .217.176.392.392.392h3.465v1.965H3.53V.784zm9.726 12.825h-1.302l-.413-1.374H10.01l-.381 1.374H8.373l1.636-5.351h1.588l1.66 5.351zm-10.092 0l1.635-5.351h1.588l1.66 5.351H6.744l-.412-1.374H4.799l-.38 1.374H3.163zm13.307 5.394H3.53v-3.778h12.94v3.778zm1.05-9.634a2.617 2.617 0 00-1.016-.198c-.96 0-1.708.58-1.708 1.77 0 1.072.636 1.747 1.716 1.747.365 0 .77-.08 1.008-.175l.182.945c-.222.111-.722.23-1.373.23-1.85 0-2.803-1.15-2.803-2.675 0-1.827 1.302-2.843 2.922-2.843.627 0 1.104.127 1.318.239l-.246.96z"/>
  <path fill="#A0A0A0" d="M11.033 10.195c-.095-.318-.19-.715-.27-1.032h-.016c-.08.317-.159.722-.246 1.032l-.317 1.135h1.183l-.334-1.135z"/>
</svg>
