<svg xmlns="http://www.w3.org/2000/svg" width="20" height="20" fill="none" viewBox="0 0 20 20">
  <path fill="#A0A0A0" d="M17.735 7.154h-.48V4.837c0-.015-.003-.03-.005-.044a.384.384 0 00-.093-.254L13.301.134l-.003-.003a.383.383 0 00-.104-.08.408.408 0 00-.077-.033l-.021-.007a.394.394 0 00-.09-.011H3.529a.785.785 0 00-.784.784v6.37h-.48c-.62 0-1.121.501-1.121 1.12v5.83c0 .619.502 1.121 1.12 1.121h.48v3.99c0 .433.352.785.785.785H16.47a.785.785 0 00.785-.784v-3.99h.48c.619 0 1.12-.503 1.12-1.122v-5.83c0-.618-.501-1.12-1.12-1.12zm-14.6 7.152l1.949-6.372h1.89l1.977 6.372H7.4l-.491-1.635H5.084l-.454 1.636H3.136zm13.335 4.697H3.53v-3.778H16.47v3.778zM9.8 14.306V7.934h1.447v6.372H9.801zm6.43-3.734v1.172H13.94v2.563h-1.446V7.933h3.895v1.182h-2.449v1.456h2.289zm.24-3.418H3.53V.784h9.085v4.013c0 .217.175.392.392.392h3.464v1.965z"/>
  <path fill="#A0A0A0" d="M6.303 10.24c-.114-.378-.227-.85-.322-1.229h-.019c-.094.379-.189.86-.293 1.23l-.378 1.352H6.7l-.397-1.352z"/>
</svg>
