<svg xmlns="http://www.w3.org/2000/svg" width="20" height="20" fill="none" viewBox="0 0 20 20">
  <path fill="#A0A0A0" d="M4.943 10.254c-.1-.334-.2-.75-.283-1.083h-.017c-.083.333-.167.758-.258 1.083l-.334 1.192h1.242l-.35-1.192zM9.81 9.137c-.258 0-.433.025-.525.05v1.659c.109.024.242.033.425.033.676 0 1.092-.342 1.092-.917 0-.517-.358-.825-.992-.825z"/>
  <path fill="#A0A0A0" d="M17.735 7.154h-.48V4.836c0-.014-.002-.029-.004-.043a.385.385 0 00-.093-.254L13.302.134l-.003-.003a.384.384 0 00-.104-.08.41.41 0 00-.078-.033l-.02-.007a.397.397 0 00-.09-.011H3.53a.785.785 0 00-.785.784v6.37h-.48c-.619 0-1.121.501-1.121 1.12v5.83c0 .619.502 1.121 1.121 1.121h.48v3.99c0 .433.352.785.785.785h12.94a.785.785 0 00.785-.784v-3.99h.48c.62 0 1.121-.503 1.121-1.122v-5.83c0-.619-.502-1.12-1.12-1.12zM3.53.784h9.084v4.013c0 .217.176.392.392.392h3.465v1.965H3.53V.784zm8.53 9.145c0 .55-.183 1.016-.516 1.333-.434.409-1.075.592-1.825.592-.167 0-.317-.008-.434-.025v2.008H8.027V8.295c.392-.066.942-.116 1.717-.116.784 0 1.341.15 1.717.45.358.283.6.75.6 1.3zm-8.592 3.908H2.152L3.868 8.22h1.667l1.741 5.617H5.91l-.434-1.441H3.868l-.4 1.441zm13.003 5.166H3.53v-3.778h12.94v3.778zm-.485-5.166l-1.375-2.425-.483.592v1.833h-1.259V8.22h1.259v2.484h.025c.124-.217.258-.417.383-.617l1.275-1.867h1.558l-1.858 2.392 1.958 3.225h-1.483z"/>
</svg>
