<svg xmlns="http://www.w3.org/2000/svg" width="20" height="20" fill="none" viewBox="0 0 20 20">
  <path fill="#A0A0A0" d="M4.788 10.071c-.105-.351-.21-.79-.298-1.14h-.018c-.088.35-.176.798-.272 1.14l-.351 1.255h1.307l-.368-1.255zM14.651 8.896c-.272 0-.456.026-.553.053v1.746c.114.027.254.035.448.035.71 0 1.15-.36 1.15-.965 0-.545-.378-.87-1.045-.87z"/>
  <path fill="#A0A0A0" d="M17.735 7.154h-.48V4.837c0-.015-.002-.03-.004-.044a.386.386 0 00-.093-.254L13.3.134 13.3.131a.39.39 0 00-.182-.113l-.02-.007a.393.393 0 00-.09-.011H3.53a.785.785 0 00-.785.784v6.37h-.48c-.619 0-1.121.501-1.121 1.12v5.83c0 .619.502 1.121 1.121 1.121h.48v3.99c0 .433.352.785.785.785h12.94a.785.785 0 00.785-.784v-3.99h.48c.62 0 1.121-.503 1.121-1.122v-5.83c0-.619-.502-1.12-1.12-1.12zM3.53.784h9.084v4.013c0 .217.176.392.392.392h3.465v1.965H3.53V.784zm5.979 10.577c-.983-.342-1.624-.886-1.624-1.746 0-1.01.842-1.782 2.238-1.782.667 0 1.159.141 1.51.299l-.299 1.08a2.814 2.814 0 00-1.237-.282c-.58 0-.86.264-.86.57 0 .378.333.545 1.097.835 1.044.386 1.536.93 1.536 1.763 0 .993-.764 1.835-2.388 1.835-.675 0-1.343-.176-1.676-.36l.272-1.106c.36.185.913.369 1.483.369.614 0 .94-.255.94-.641 0-.368-.281-.58-.992-.834zm-6.275 2.484H1.848L3.655 7.93h1.756l1.834 5.915h-1.44l-.456-1.518H3.655l-.42 1.518zm13.237 5.158H3.53v-3.778h12.94v3.778zm.005-7.87c-.456.43-1.132.623-1.922.623-.175 0-.333-.008-.456-.026v2.115h-1.325V8.01c.412-.07.991-.123 1.808-.123.825 0 1.413.158 1.808.474.377.298.631.79.631 1.369 0 .58-.192 1.07-.544 1.405z"/>
</svg>
