<svg xmlns="http://www.w3.org/2000/svg" width="20" height="20" fill="none" viewBox="0 0 20 20">
  <path fill="#A0A0A0" d="M5.606 12.022c0-.508-.456-.71-1.024-.71h-.39v1.421c.113.015.248.015.442.015.516 0 .972-.194.972-.726z"/>
  <path fill="#A0A0A0" d="M17.735 7.154h-.48V4.836c0-.014-.002-.029-.004-.043a.384.384 0 00-.093-.254L13.302.134l-.003-.003a.381.381 0 00-.104-.08.41.41 0 00-.078-.033l-.02-.007a.398.398 0 00-.09-.011H3.53a.785.785 0 00-.785.784v6.37h-.48a1.12 1.12 0 00-1.121 1.12v5.83c0 .619.502 1.121 1.121 1.121h.48v3.99c0 .433.352.785.785.785h12.94a.785.785 0 00.785-.784v-3.99h.48c.62 0 1.121-.503 1.121-1.122v-5.83c0-.619-.502-1.12-1.12-1.12zM3.53.784h9.084v4.013c0 .217.176.392.392.392h3.465v1.965H3.53V.784zm9.504 12.757h-1.115l-.075-1.93a57.24 57.24 0 01-.045-2.072h-.022c-.157.643-.367 1.361-.561 1.953l-.614 1.966h-.89l-.538-1.952a23.056 23.056 0 01-.456-1.967h-.015c-.03.68-.053 1.459-.09 2.087l-.09 1.915H7.47L7.79 8.5H9.31l.494 1.683c.157.583.314 1.211.426 1.802h.023c.142-.583.314-1.249.478-1.81l.539-1.675h1.488l.277 5.041zm-9.97-.023V8.567c.298-.06.904-.105 1.473-.105.695 0 1.122.067 1.488.284.352.187.606.531.606.988 0 .448-.261.867-.83 1.076v.015c.576.158 1.002.591 1.002 1.242 0 .457-.209.815-.523 1.07-.367.292-.98.456-1.982.456-.562 0-.98-.037-1.235-.075zm13.407 5.485H3.53v-3.778h12.94v3.778zm.594-7.773c-.389.366-.965.53-1.638.53-.15 0-.284-.007-.388-.021v1.802h-1.13V8.567c.351-.06.845-.105 1.54-.105.703 0 1.205.135 1.541.404.322.254.54.673.54 1.167s-.165.912-.465 1.197z"/>
  <path fill="#A0A0A0" d="M15.51 9.322c-.233 0-.39.023-.472.045v1.488c.097.023.217.03.381.03.606 0 .98-.306.98-.822 0-.464-.321-.74-.89-.74zM5.487 9.875c0-.381-.292-.583-.808-.583-.247 0-.39.014-.486.03v1.174h.374c.598 0 .92-.246.92-.62z"/>
</svg>
