<svg xmlns="http://www.w3.org/2000/svg" width="20" height="20" fill="none" viewBox="0 0 20 20">
  <path fill="#A0A0A0" d="M17.735 7.154h-.48V4.837c0-.015-.002-.03-.004-.044a.386.386 0 00-.093-.254L13.302.134l-.003-.003a.39.39 0 00-.182-.113l-.02-.007a.393.393 0 00-.09-.011H3.53a.785.785 0 00-.785.784v6.37h-.48c-.619 0-1.121.501-1.121 1.12v5.83c0 .619.502 1.121 1.121 1.121h.48v3.99c0 .433.352.785.785.785h12.94a.785.785 0 00.785-.784v-3.99h.48c.62 0 1.121-.503 1.121-1.122v-5.83a1.12 1.12 0 00-1.12-1.12zM3.53.784h9.084v4.013c0 .217.176.392.392.392h3.465v1.965H3.53V.784zm8.025 9.655v1.114H9.328v1.436h2.488v1.123H7.954V8.06h3.736v1.122H9.328v1.257h2.227zm-9.222.737c0-2.066 1.474-3.216 3.306-3.216.709 0 1.247.144 1.49.27L6.85 9.317a2.952 2.952 0 00-1.15-.225c-1.086 0-1.93.656-1.93 2.002 0 1.213.718 1.976 1.94 1.976.412 0 .87-.09 1.14-.198l.206 1.07c-.251.125-.818.26-1.553.26-2.092 0-3.17-1.302-3.17-3.026zm14.138 7.827H3.53v-3.778h12.94v3.778zm-.552-4.891c-.099-.17-.242-.665-.422-1.41-.162-.755-.422-.961-.979-.97h-.413v2.38H12.75V8.14c.44-.072 1.096-.126 1.823-.126.898 0 1.526.135 1.957.476.36.288.557.71.557 1.266 0 .772-.547 1.302-1.068 1.49v.028c.422.17.656.575.808 1.131.189.683.377 1.473.494 1.707H15.92z"/>
  <path fill="#A0A0A0" d="M14.724 9.028c-.332 0-.52.027-.62.046v1.67h.539c.683 0 1.087-.341 1.087-.871 0-.557-.377-.836-1.006-.845z"/>
</svg>
