<svg xmlns="http://www.w3.org/2000/svg" width="20" height="20" fill="none" viewBox="0 0 20 20">
  <path fill="#A0A0A0" d="M17.735 7.154h-.48V4.837c0-.015-.002-.03-.004-.044a.386.386 0 00-.093-.254L13.302.134l-.003-.003a.39.39 0 00-.182-.113l-.02-.007a.393.393 0 00-.09-.011H3.53a.785.785 0 00-.785.784v6.37h-.48c-.619 0-1.121.501-1.121 1.12v5.83c0 .619.502 1.121 1.121 1.121h.48v3.99c0 .433.352.785.785.785h12.94a.785.785 0 00.785-.784v-3.99h.48c.62 0 1.121-.503 1.121-1.122v-5.83a1.12 1.12 0 00-1.12-1.12zM3.53.784h9.084v4.013c0 .217.176.392.392.392h3.465v1.965H3.53V.784zm7.203 9.778v1.044H8.695v2.281H7.408V8.214h3.468v1.051h-2.18v1.297h2.037zm-8.594.572c0-1.936 1.38-3.014 3.097-3.014.666 0 1.17.135 1.398.254L6.373 9.39a2.775 2.775 0 00-1.077-.21c-1.019 0-1.81.615-1.81 1.878 0 1.136.673 1.852 1.818 1.852a3.2 3.2 0 001.069-.186l.193 1.002c-.235.118-.766.244-1.456.244-1.96 0-2.971-1.22-2.971-2.837zm14.332 7.87H3.53v-3.779h12.94v3.778zm.137-5.117l-.085-2.172a62.628 62.628 0 01-.05-2.332h-.025a30.747 30.747 0 01-.632 2.197l-.69 2.214h-1.002l-.606-2.197a25.719 25.719 0 01-.513-2.214h-.017c-.034.766-.059 1.641-.1 2.349l-.102 2.155h-1.187l.362-5.673h1.709l.555 1.893c.177.657.354 1.364.48 2.029h.025c.16-.657.354-1.406.54-2.037l.605-1.885h1.675l.312 5.673h-1.254z"/>
</svg>
