<svg xmlns="http://www.w3.org/2000/svg" width="20" height="20" fill="none" viewBox="0 0 20 20">
  <path fill="#A0A0A0" d="M7.6 11.01c0 1.004.47 1.711 1.246 1.711.783 0 1.232-.745 1.232-1.741 0-.92-.441-1.711-1.24-1.711-.783 0-1.239.745-1.239 1.74z"/>
  <path fill="#A0A0A0" d="M17.735 7.154h-.48V4.836c0-.014-.002-.029-.004-.043a.385.385 0 00-.093-.254L13.302.134l-.003-.003a.39.39 0 00-.079-.065c-.008-.006-.016-.01-.025-.015a.41.41 0 00-.078-.033l-.02-.007a.393.393 0 00-.09-.011H3.53a.785.785 0 00-.785.784v6.37h-.48c-.619 0-1.121.501-1.121 1.12v5.83c0 .619.502 1.121 1.121 1.121h.48v3.99c0 .433.352.785.785.785h12.94a.785.785 0 00.785-.784v-3.99h.48c.62 0 1.121-.503 1.121-1.122v-5.83a1.12 1.12 0 00-1.12-1.12zM3.53.784h9.084v4.013c0 .217.176.392.392.392h3.465v1.965H3.53V.784zM11.3 10.942c0 1.68-1.018 2.7-2.516 2.7-1.52 0-2.41-1.149-2.41-2.608 0-1.536.98-2.684 2.493-2.684 1.574 0 2.433 1.178 2.433 2.592zm-9.222.13c0-1.75 1.247-2.723 2.798-2.723.6 0 1.057.122 1.262.228l-.236.92c-.235-.099-.563-.19-.973-.19-.92 0-1.635.555-1.635 1.696 0 1.026.609 1.672 1.643 1.672.35 0 .737-.076.965-.167l.175.905c-.213.106-.692.22-1.315.22-1.772 0-2.684-1.102-2.684-2.562zm14.392 7.931H3.53v-3.778h12.94v3.778zm0-5.445l-.076-1.962a57.25 57.25 0 01-.045-2.106h-.023a27.74 27.74 0 01-.57 1.984l-.624 2h-.905l-.547-1.984c-.167-.6-.342-1.331-.463-2h-.016c-.03.692-.053 1.482-.091 2.121l-.091 1.947h-1.073l.327-5.125h1.544l.502 1.71c.16.594.32 1.233.433 1.833h.022c.145-.593.32-1.27.487-1.84l.547-1.703h1.514l.281 5.125h-1.133z"/>
</svg>
