<svg xmlns="http://www.w3.org/2000/svg" width="20" height="20" fill="none" viewBox="0 0 20 20">
  <path fill="#A0A0A0" d="M17.735 7.154h-.48V4.837c0-.015-.002-.03-.004-.044a.386.386 0 00-.093-.254L13.302.134l-.003-.003a.39.39 0 00-.182-.113l-.02-.007a.393.393 0 00-.09-.011H3.53a.785.785 0 00-.785.784v6.37h-.48c-.619 0-1.121.501-1.121 1.12v5.83c0 .619.502 1.121 1.121 1.121h.48v3.99c0 .433.352.785.785.785h12.94a.785.785 0 00.785-.784v-3.99h.48c.62 0 1.121-.503 1.121-1.122v-5.83a1.12 1.12 0 00-1.12-1.12zM3.53.784h9.084v4.013c0 .217.176.392.392.392h3.465v1.965H3.53V.784zm5.815 10.572c-.997-.348-1.647-.9-1.647-1.771 0-1.024.854-1.807 2.27-1.807.676 0 1.174.143 1.53.303l-.303 1.094a2.847 2.847 0 00-1.254-.285c-.588 0-.872.267-.872.579 0 .383.338.551 1.112.845 1.059.392 1.557.944 1.557 1.79 0 1.005-.774 1.859-2.42 1.859-.686 0-1.362-.178-1.7-.365l.276-1.122c.364.188.926.374 1.504.374.623 0 .952-.257.952-.649 0-.374-.285-.588-1.005-.845zm-7.066-.392c0-2.047 1.46-3.186 3.275-3.186.703 0 1.237.143 1.477.267l-.276 1.077A2.926 2.926 0 005.617 8.9c-1.077 0-1.914.649-1.914 1.983 0 1.202.712 1.959 1.922 1.959.41 0 .864-.09 1.13-.197l.205 1.06c-.249.125-.81.258-1.54.258-2.072 0-3.14-1.29-3.14-3zm14.192 8.04H3.53v-3.779h12.94v3.778zm-.675-5.13c-.098-.17-.24-.659-.42-1.398-.159-.747-.417-.951-.97-.96h-.408v2.358h-1.344V7.956a11.92 11.92 0 011.807-.125c.89 0 1.513.134 1.94.472.356.285.552.703.552 1.255 0 .765-.544 1.29-1.06 1.477v.027c.419.169.65.569.802 1.12.186.677.373 1.46.489 1.692h-1.389z"/>
  <path fill="#A0A0A0" d="M14.612 8.838c-.33 0-.516.026-.614.044v1.655h.534c.676 0 1.076-.339 1.076-.864 0-.551-.373-.827-.996-.835z"/>
</svg>
