<svg xmlns="http://www.w3.org/2000/svg" width="20" height="20" fill="none" viewBox="0 0 20 20">
  <path fill="#A0A0A0" d="M17.735 7.154h-.48V4.837c0-.015-.002-.03-.004-.044a.384.384 0 00-.093-.254L13.302.134c-.002-.001-.003-.001-.003-.003a.385.385 0 00-.182-.113l-.02-.007a.392.392 0 00-.09-.011H3.53a.785.785 0 00-.785.784v6.37h-.48a1.12 1.12 0 00-1.121 1.12v5.83c0 .619.502 1.121 1.121 1.121h.48v3.99c0 .433.352.785.785.785h12.94a.785.785 0 00.785-.784v-3.99h.48c.62 0 1.121-.503 1.121-1.122v-5.83c0-.618-.502-1.12-1.12-1.12zM3.53.784h9.084v4.013c0 .217.176.392.392.392h3.465v1.965H3.53V.784zm6.041 10.77c-.973-.34-1.607-.878-1.607-1.73 0-.999.834-1.763 2.216-1.763.66 0 1.146.139 1.494.295l-.295 1.07a2.78 2.78 0 00-1.226-.28c-.573 0-.851.262-.851.566 0 .373.33.539 1.086.825 1.034.383 1.52.921 1.52 1.747 0 .982-.755 1.816-2.363 1.816-.669 0-1.33-.175-1.66-.357l.27-1.094a3.38 3.38 0 001.469.364c.608 0 .93-.251.93-.634 0-.365-.279-.573-.983-.825zm-6.9-.383c0-1.998 1.426-3.11 3.198-3.11.687 0 1.208.139 1.443.26l-.27 1.052a2.868 2.868 0 00-1.112-.217c-1.051 0-1.868.634-1.868 1.937 0 1.173.695 1.912 1.877 1.912.4 0 .843-.087 1.103-.192l.2 1.034c-.243.122-.79.252-1.503.252-2.024 0-3.067-1.26-3.067-2.928zm13.8 7.832H3.53v-3.778h12.94v3.778zM14.238 14.1c-.67 0-1.33-.175-1.66-.357l.27-1.095c.356.183.903.365 1.468.365.608 0 .93-.252.93-.634 0-.365-.278-.573-.982-.825-.973-.34-1.608-.878-1.608-1.73 0-.999.835-1.763 2.216-1.763.66 0 1.147.139 1.495.295l-.296 1.07a2.775 2.775 0 00-1.225-.28c-.573 0-.851.262-.851.566 0 .373.33.539 1.086.825 1.034.383 1.52.921 1.52 1.747 0 .981-.756 1.816-2.363 1.816z"/>
</svg>
