<svg xmlns="http://www.w3.org/2000/svg" width="20" height="20" fill="none" viewBox="0 0 20 20">
  <path fill="#A0A0A0" d="M17.735 7.154h-.48V4.836c0-.014-.003-.029-.005-.043a.384.384 0 00-.093-.254L13.301.134l-.003-.003a.383.383 0 00-.104-.08.408.408 0 00-.077-.033l-.021-.007a.394.394 0 00-.09-.011H3.529a.785.785 0 00-.784.784v6.37h-.48c-.62 0-1.121.501-1.121 1.12v5.83c0 .619.502 1.121 1.12 1.121h.48v3.99c0 .433.352.785.785.785H16.47a.785.785 0 00.785-.784v-3.99h.48c.619 0 1.12-.503 1.12-1.122v-5.83c0-.618-.501-1.12-1.12-1.12zM3.529.784h9.085v4.013c0 .217.175.392.392.392h3.464v1.965H3.53V.784zm5.904 10.64c-.973-.339-1.607-.877-1.607-1.729 0-1 .834-1.764 2.215-1.764.66 0 1.147.139 1.495.296l-.295 1.068a2.777 2.777 0 00-1.226-.278c-.573 0-.851.26-.851.565 0 .374.33.539 1.086.825 1.034.383 1.52.921 1.52 1.747 0 .981-.755 1.816-2.363 1.816-.669 0-1.33-.174-1.66-.357l.27-1.095c.356.183.904.365 1.469.365.608 0 .93-.251.93-.634 0-.365-.28-.574-.983-.825zm-6.9-.383c0-1.998 1.426-3.11 3.198-3.11.687 0 1.208.139 1.443.26l-.27 1.052a2.87 2.87 0 00-1.112-.217c-1.051 0-1.868.634-1.868 1.937 0 1.173.695 1.912 1.877 1.912.4 0 .843-.087 1.103-.192l.2 1.034c-.243.122-.79.253-1.503.253-2.024 0-3.067-1.26-3.067-2.929zm13.937 7.962H3.53v-3.778H16.47v3.778zm-.876-5.12h-1.546L12.17 8.027h1.451l.712 2.476c.2.695.383 1.364.522 2.094h.026c.148-.704.33-1.4.53-2.068l.747-2.502h1.408l-1.973 5.856z"/>
</svg>
