<svg xmlns="http://www.w3.org/2000/svg" width="20" height="20" fill="none" viewBox="0 0 20 20">
  <path fill="#A0A0A0" d="M17.735 7.154h-.48V4.836c0-.014-.002-.029-.004-.043a.385.385 0 00-.093-.254L13.302.134c-.002-.001-.003-.001-.003-.003a.379.379 0 00-.104-.08.403.403 0 00-.078-.033l-.02-.007a.392.392 0 00-.09-.011H3.53a.785.785 0 00-.785.784v6.37h-.48c-.619 0-1.121.502-1.121 1.12v5.83c0 .62.502 1.121 1.121 1.121h.48v3.99c0 .433.352.785.785.785h12.94a.785.785 0 00.785-.784v-3.99h.48c.62 0 1.121-.503 1.121-1.122v-5.83c0-.618-.502-1.12-1.12-1.12zM3.53.784h9.084v4.013c0 .217.176.392.392.392h3.465v1.965H3.53V.784zm6.642 12.167c.654 0 1.014-.458 1.014-1.431V8.348h1.244v3.09c0 1.701-.859 2.511-2.299 2.511-1.39 0-2.207-.769-2.207-2.527V8.348h1.251v3.172c0 .948.36 1.431.997 1.431zm-7.36-1.767c0-1.88 1.342-2.926 3.01-2.926.646 0 1.136.13 1.357.245l-.253.99a2.695 2.695 0 00-1.047-.205c-.99 0-1.758.597-1.758 1.823 0 1.104.654 1.8 1.766 1.8.376 0 .794-.083 1.039-.18l.188.972c-.23.115-.744.237-1.415.237-1.905 0-2.886-1.185-2.886-2.755zm13.659 7.82H3.53v-3.779h12.94v3.778zm.555-5.145H13.51V8.348h3.401V9.37h-2.15v1.145h2.027v1.014H14.76v1.308h2.266v1.022z"/>
</svg>
