<svg xmlns="http://www.w3.org/2000/svg" width="20" height="20" fill="none" viewBox="0 0 20 20">
  <path fill="#A0A0A0" d="M17.735 7.154h-.48V4.837c0-.015-.003-.03-.005-.044a.386.386 0 00-.093-.254L13.301.134l-.003-.003a.384.384 0 00-.104-.08.414.414 0 00-.077-.033l-.021-.007a.39.39 0 00-.09-.011H3.529a.785.785 0 00-.784.784v6.37h-.48c-.62 0-1.121.501-1.121 1.12v5.83c0 .619.502 1.121 1.12 1.121h.48v3.99c0 .433.352.785.785.785H16.47a.785.785 0 00.785-.784v-3.99h.48c.619 0 1.12-.503 1.12-1.122V8.275a1.12 1.12 0 00-1.12-1.121zM3.529.784h9.085v4.013c0 .217.175.392.392.392h3.464v1.965H3.53V.784zm6.267 12.263c.655 0 1.014-.458 1.014-1.43V8.443h1.243v3.09c0 1.701-.859 2.51-2.297 2.51-1.39 0-2.208-.768-2.208-2.526V8.444h1.251v3.172c0 .949.36 1.431.997 1.431zm-7.36-1.766c0-1.88 1.342-2.927 3.01-2.927.646 0 1.136.13 1.357.245l-.253.99a2.698 2.698 0 00-1.047-.205c-.99 0-1.758.597-1.758 1.823 0 1.105.654 1.8 1.766 1.8.376 0 .793-.082 1.039-.18l.188.972c-.229.115-.744.238-1.415.238-1.905 0-2.886-1.186-2.886-2.756zm14.034 7.722H3.53v-3.778H16.47v3.778zm-.45-5.048c-.09-.156-.22-.605-.384-1.284-.147-.687-.384-.875-.892-.883h-.376v2.167h-1.234V8.517c.4-.065.997-.114 1.66-.114.817 0 1.39.123 1.782.433.327.262.507.646.507 1.153 0 .703-.499 1.185-.973 1.357v.025c.384.155.597.524.736 1.03.171.622.343 1.341.45 1.554H16.02z"/>
  <path fill="#A0A0A0" d="M14.932 9.327c-.302 0-.474.025-.564.041v1.521h.49c.622 0 .99-.31.99-.793 0-.507-.343-.76-.916-.769z"/>
</svg>
