<svg xmlns="http://www.w3.org/2000/svg" width="20" height="20" fill="none" viewBox="0 0 20 20">
  <path fill="#A0A0A0" d="M12.673 11.379h-.452v1.65c.13.018.286.018.512.018.6 0 1.13-.226 1.13-.843 0-.59-.53-.825-1.19-.825zM13.724 9.711c0-.443-.34-.678-.938-.678-.287 0-.452.017-.565.035v1.364h.434c.695 0 1.069-.287 1.069-.721z"/>
  <path fill="#A0A0A0" d="M17.735 7.154h-.48V4.836c0-.014-.002-.029-.004-.043a.385.385 0 00-.093-.254L13.302.134l-.003-.003a.384.384 0 00-.104-.08.41.41 0 00-.078-.033l-.02-.007a.397.397 0 00-.09-.011H3.53a.785.785 0 00-.785.784v6.37h-.48c-.619 0-1.121.501-1.121 1.12v5.83c0 .619.502 1.121 1.121 1.121h.48v3.99c0 .433.352.785.785.785h12.94a.785.785 0 00.785-.784v-3.99h.48c.62 0 1.121-.503 1.121-1.122v-5.83c0-.619-.502-1.12-1.12-1.12zm-1.264 11.85H3.53v-3.779h12.94v3.778zM4.86 13.941V8.19c.486-.078 1.12-.122 1.79-.122 1.112 0 1.832.2 2.397.626.608.452.99 1.173.99 2.207 0 1.12-.408 1.894-.972 2.372-.617.512-1.556.756-2.703.756-.686 0-1.173-.043-1.503-.087zm10.392-1.686c0 .53-.243.947-.608 1.243-.427.339-1.139.53-2.303.53-.652 0-1.138-.043-1.434-.087V8.19c.348-.07 1.052-.122 1.712-.122.808 0 1.304.078 1.729.33.409.218.704.617.704 1.148 0 .52-.304 1.007-.964 1.25v.018c.669.182 1.164.687 1.164 1.442zm1.218-5.102H3.53V.784h9.084v4.013c0 .217.176.392.392.392h3.465v1.965z"/>
  <path fill="#A0A0A0" d="M6.79 9.085c-.296 0-.487.026-.6.052v3.832c.113.026.295.026.46.026 1.2.009 1.981-.652 1.981-2.05.01-1.217-.703-1.86-1.842-1.86z"/>
</svg>
