<svg xmlns="http://www.w3.org/2000/svg" width="20" height="20" fill="none" viewBox="0 0 20 20">
  <path fill="#A0A0A0" d="M11.48 9.619c0-.415-.318-.634-.879-.634a3.42 3.42 0 00-.528.032v1.277h.406c.651 0 1-.269 1-.675zM6.715 10.774c.008-1.139-.659-1.74-1.724-1.74-.276 0-.455.024-.56.048v3.586c.105.025.276.025.43.025 1.122.008 1.854-.61 1.854-1.92zM10.496 11.18h-.423v1.545c.122.016.269.016.48.016.56 0 1.057-.21 1.057-.788 0-.553-.496-.773-1.114-.773z"/>
  <path fill="#A0A0A0" d="M17.735 7.154h-.48V4.836c0-.014-.003-.029-.004-.043a.385.385 0 00-.094-.254L13.301.134l-.003-.003a.39.39 0 00-.078-.065c-.008-.006-.017-.01-.026-.015a.408.408 0 00-.077-.033l-.021-.007a.39.39 0 00-.09-.011H3.529a.785.785 0 00-.784.784v6.37h-.48c-.62 0-1.121.501-1.121 1.12v5.83c0 .619.502 1.121 1.12 1.121h.48v3.99c0 .433.352.785.785.785H16.47a.785.785 0 00.785-.784v-3.99h.48c.619 0 1.12-.503 1.12-1.122v-5.83a1.12 1.12 0 00-1.12-1.12zM3.529.784h9.085v4.013c0 .217.175.392.392.392h3.464v1.965H3.53V.784zm9.382 11.217c0 .497-.228.886-.57 1.163-.398.317-1.065.496-2.154.496-.61 0-1.066-.04-1.342-.081V8.196c.326-.065.984-.113 1.602-.113.756 0 1.22.072 1.618.308.382.204.659.578.659 1.074 0 .487-.285.943-.903 1.17v.017c.626.17 1.09.642 1.09 1.35zM3.186 13.58V8.196c.456-.073 1.05-.113 1.675-.113 1.041 0 1.716.186 2.245.585.569.422.926 1.097.926 2.065 0 1.049-.382 1.773-.91 2.22-.578.48-1.456.707-2.529.707-.643 0-1.097-.04-1.407-.081zm13.284 5.424H3.53v-3.778H16.47v3.778zm.636-9.864H15v1.253h1.968V11.4H15v2.203h-1.244v-5.48h3.35v1.016z"/>
</svg>
