<svg xmlns="http://www.w3.org/2000/svg" width="20" height="20" fill="none" viewBox="0 0 20 20">
  <path fill="#A0A0A0" d="M17.735 7.154h-.48V4.837c0-.015-.003-.03-.005-.044a.384.384 0 00-.093-.254L13.301.134l-.003-.003a.384.384 0 00-.104-.08.41.41 0 00-.077-.033l-.021-.007a.393.393 0 00-.09-.011H3.529a.785.785 0 00-.784.784v6.37h-.48c-.62 0-1.121.501-1.121 1.12v5.83c0 .619.502 1.121 1.12 1.121h.48v3.99c0 .433.352.785.785.785H16.47a.785.785 0 00.785-.784v-3.99h.48c.619 0 1.12-.503 1.12-1.122v-5.83c0-.618-.501-1.12-1.12-1.12zM3.529.784h9.085v4.013c0 .217.175.392.392.392h3.464v1.965H3.53V.784zm9.878 11.467c.286 0 .603-.062.79-.137l.143.74c-.174.087-.566.18-1.076.18-1.45 0-2.196-.902-2.196-2.096 0-1.43 1.02-2.227 2.29-2.227.49 0 .864.1 1.032.187l-.193.753a2.042 2.042 0 00-.796-.156c-.753 0-1.338.454-1.338 1.387 0 .84.498 1.369 1.344 1.369zm-2.769-1.418c0 1.374-.834 2.208-2.059 2.208-1.244 0-1.972-.94-1.972-2.134 0-1.256.802-2.196 2.04-2.196 1.289 0 1.991.964 1.991 2.122zm-8.168 2.12V8.836A8.483 8.483 0 013.75 8.75c.797 0 1.313.143 1.717.448.435.323.71.84.71 1.58 0 .802-.293 1.356-.698 1.698-.441.367-1.113.541-1.934.541-.491 0-.84-.031-1.076-.062zm14 6.05H3.53v-3.778H16.47v3.778zm.72-6.03l-.38-.76c-.156-.292-.255-.51-.374-.752h-.012c-.087.242-.193.46-.323.752l-.349.76H14.67l1.213-2.122-1.17-2.072h1.09l.366.766c.125.254.218.46.317.696h.013c.1-.267.18-.454.286-.696l.354-.766h1.083l-1.182 2.047 1.244 2.146h-1.095z"/>
  <path fill="#A0A0A0" d="M5.17 10.807c.005-.87-.504-1.331-1.32-1.331-.211 0-.348.019-.429.037v2.743c.082.019.212.019.33.019.859.006 1.418-.466 1.418-1.468zM7.609 10.888c0 .821.386 1.4 1.02 1.4.64 0 1.008-.61 1.008-1.425 0-.753-.361-1.4-1.015-1.4-.64 0-1.013.61-1.013 1.425z"/>
</svg>
