<svg xmlns="http://www.w3.org/2000/svg" width="20" height="20" fill="none" viewBox="0 0 20 20">
  <path fill="#A0A0A0" d="M10.118 9.228c-.302 0-.474.025-.564.041v1.521h.49c.622 0 .99-.31.99-.793 0-.507-.343-.76-.916-.769z"/>
  <path fill="#A0A0A0" d="M17.735 7.154h-.48V4.836c0-.014-.002-.029-.004-.043a.385.385 0 00-.093-.254L13.3.134 13.3.131a.381.381 0 00-.079-.065c-.008-.006-.016-.01-.025-.015a.41.41 0 00-.078-.033l-.02-.007a.394.394 0 00-.09-.011H3.53a.785.785 0 00-.785.784v6.37h-.48c-.619 0-1.121.501-1.121 1.12v5.83c0 .619.502 1.121 1.121 1.121h.48v3.99c0 .433.352.785.785.785h12.94a.785.785 0 00.785-.784v-3.99h.48c.62 0 1.121-.503 1.121-1.122v-5.83c0-.619-.502-1.12-1.12-1.12zM3.53.784h9.084v4.013c0 .217.176.392.392.392h3.465v1.965H3.53V.784zm8.502 11.52c.171.62.343 1.34.45 1.553h-1.276c-.09-.156-.22-.605-.384-1.284-.147-.687-.385-.875-.892-.883h-.376v2.167H8.32V8.419c.401-.065.998-.114 1.66-.114.818 0 1.39.122 1.783.434.327.261.507.645.507 1.152 0 .704-.499 1.186-.973 1.358v.024c.384.155.597.523.736 1.03zm-9.404 1.528V8.42a11.135 11.135 0 011.684-.114c1.047 0 1.725.188 2.257.589.572.425.932 1.103.932 2.076 0 1.056-.384 1.783-.916 2.233-.58.482-1.464.711-2.543.711-.646 0-1.104-.041-1.414-.082zm13.843 5.171H3.53v-3.778h12.94v3.778zm-.596-5.146H14.42l-1.766-5.511h1.365l.67 2.33c.189.655.36 1.284.492 1.97h.024c.139-.662.31-1.315.499-1.946l.703-2.354h1.324l-1.856 5.51z"/>
  <path fill="#A0A0A0" d="M6.177 11.011c.008-1.145-.663-1.75-1.734-1.75-.278 0-.458.025-.564.05v3.605c.106.024.278.024.433.024 1.129.009 1.865-.613 1.865-1.929z"/>
</svg>
