<svg xmlns="http://www.w3.org/2000/svg" width="20" height="20" fill="none" viewBox="0 0 20 20">
  <path fill="#A0A0A0" d="M17.735 7.154h-.48V4.837c0-.015-.003-.03-.005-.044a.384.384 0 00-.093-.254L13.301.134l-.003-.003a.384.384 0 00-.104-.08.41.41 0 00-.077-.033l-.021-.007a.393.393 0 00-.09-.011H3.529a.785.785 0 00-.784.784v6.37h-.48c-.62 0-1.121.501-1.121 1.12v5.83c0 .619.502 1.121 1.12 1.121h.48v3.99c0 .433.352.785.785.785H16.47a.785.785 0 00.785-.784v-3.99h.48c.619 0 1.12-.503 1.12-1.122v-5.83c0-.618-.501-1.12-1.12-1.12zM3.529.784h9.085v4.013c0 .217.175.392.392.392h3.464v1.965H3.53V.784zm8.633 12.006v1.112H8.504V8.046h1.33v4.744h2.328zm-4.814-2.441v1.077H5.193v1.39H7.6v1.086H3.864V8.046h3.614v1.086H5.193v1.217h2.155zm9.122 8.654H3.53v-3.778H16.47v3.778zm.055-9.871h-2.251v1.338h2.103v1.077h-2.103v2.355h-1.33V8.046h3.58v1.086z"/>
</svg>
