<svg xmlns="http://www.w3.org/2000/svg" width="20" height="20" fill="none" viewBox="0 0 20 20">
  <path fill="#A0A0A0" d="M17.735 7.154h-.48V4.836c0-.014-.002-.029-.004-.043a.385.385 0 00-.093-.254L13.302.134c-.002-.001-.003-.001-.003-.003a.39.39 0 00-.182-.113l-.02-.007a.391.391 0 00-.09-.011H3.53a.785.785 0 00-.785.784v6.37h-.48a1.12 1.12 0 00-1.121 1.12v5.83c0 .619.502 1.121 1.121 1.121h.48v3.99c0 .433.352.785.785.785h12.94a.785.785 0 00.785-.784v-3.99h.48c.62 0 1.121-.503 1.121-1.122v-5.83c0-.619-.502-1.12-1.12-1.12zM3.53.784h9.084v4.013c0 .217.176.392.392.392h3.465v1.965H3.53V.784zm3.799 7.5h1.52l.513 1.07c.174.355.304.642.443.972h.017c.14-.373.252-.634.4-.973l.495-1.069h1.512l-1.65 2.859 1.737 2.998h-1.529l-.53-1.06c-.217-.409-.356-.713-.521-1.052h-.018c-.121.34-.27.643-.452 1.051l-.486 1.06H7.268l1.694-2.962L7.33 8.284zm-4.267 5.857V8.284h3.615V9.37H4.39v1.217h2.155v1.077H4.391v1.39h2.407v1.087H3.062zm13.409 4.862H3.53v-3.778h12.94v3.778zm.295-4.862H13.03V8.284h3.614V9.37h-2.286v1.217h2.156v1.077h-2.156v1.39h2.408v1.087z"/>
</svg>
