<svg xmlns="http://www.w3.org/2000/svg" width="20" height="20" fill="none" viewBox="0 0 20 20">
  <path fill="#A0A0A0" d="M17.735 7.154h-.48V4.836c0-.014-.003-.029-.005-.043a.385.385 0 00-.093-.254L13.301.134l-.003-.003a.38.38 0 00-.078-.065c-.008-.006-.017-.01-.026-.015a.408.408 0 00-.077-.033l-.021-.007a.39.39 0 00-.09-.011H3.529a.785.785 0 00-.784.784v6.37h-.48c-.62 0-1.121.501-1.121 1.12v5.83c0 .62.502 1.121 1.12 1.121h.48v3.99c0 .433.352.785.785.785H16.47a.785.785 0 00.785-.784v-3.99h.48c.619 0 1.12-.503 1.12-1.122V8.275c0-.62-.501-1.121-1.12-1.121zM3.529.784h9.085v4.013c0 .217.175.392.392.392h3.464v1.965H3.53V.784zm8.152 11.995v1.112H8.023V8.035h1.33v4.744h2.328zm-8.238 1.112V8.035h3.58v1.086h-2.25v1.339h2.103v1.077H4.773v2.354h-1.33zm13.027 5.112H3.53v-3.778H16.47v3.778zm-.462-5.112l-.452-1.503H13.88l-.416 1.503H12.09l1.79-5.856h1.737l1.816 5.856h-1.425z"/>
  <path fill="#A0A0A0" d="M14.704 9.026h-.017c-.087.347-.174.79-.27 1.13l-.347 1.242h1.295L15 10.155c-.104-.348-.209-.782-.296-1.13z"/>
</svg>
