<svg xmlns="http://www.w3.org/2000/svg" width="20" height="20" fill="none" viewBox="0 0 20 20">
  <path fill="#A0A0A0" d="M17.735 7.154h-.48V4.837c0-.015-.002-.03-.004-.044a.385.385 0 00-.093-.254L13.302.134c-.002-.001-.003-.001-.003-.003a.39.39 0 00-.182-.113l-.02-.007a.391.391 0 00-.09-.011H3.53a.785.785 0 00-.785.784v6.37h-.48a1.12 1.12 0 00-1.121 1.12v5.83c0 .619.502 1.121 1.121 1.121h.48v3.99c0 .433.352.785.785.785h12.94a.785.785 0 00.785-.784v-3.99h.48c.62 0 1.121-.503 1.121-1.122v-5.83c0-.618-.502-1.12-1.12-1.12zM3.53.784h9.084v4.013c0 .217.176.392.392.392h3.465v1.965H3.53V.784zm8.185 11.991v1.113H8.057V8.03h1.33v4.744h2.328zm-8.237 1.113V8.03h3.58v1.086h-2.25v1.338H6.91v1.078H4.807v2.355H3.478zm12.993 5.115H3.53v-3.778h12.94v3.778zm-1.61-5.115h-1.546L11.438 8.03h1.451l.713 2.477c.2.695.382 1.364.52 2.094h.027c.148-.704.33-1.4.53-2.068l.747-2.503h1.408l-1.973 5.857z"/>
</svg>
