<svg xmlns="http://www.w3.org/2000/svg" width="20" height="20" fill="none" viewBox="0 0 20 20">
  <path fill="#A0A0A0" d="M10.916 9.633c0-.402-.307-.615-.851-.615-.26 0-.41.016-.513.032v1.238h.395c.63 0 .97-.26.97-.655zM14.86 9.034c-.292 0-.457.024-.544.04v1.466h.473c.6 0 .954-.3.954-.765 0-.488-.331-.733-.883-.74z"/>
  <path fill="#A0A0A0" d="M17.735 7.154h-.48V4.837c0-.015-.003-.03-.005-.044a.384.384 0 00-.093-.254L13.301.134l-.003-.003a.383.383 0 00-.104-.08.408.408 0 00-.077-.033l-.021-.007a.394.394 0 00-.09-.011H3.529a.785.785 0 00-.784.784v6.37h-.48c-.62 0-1.121.501-1.121 1.12v5.83c0 .619.502 1.121 1.12 1.121h.48v3.99c0 .433.352.785.785.785H16.47a.785.785 0 00.785-.784v-3.99h.48c.619 0 1.12-.503 1.12-1.122v-5.83c0-.618-.501-1.12-1.12-1.12zM3.529.784h9.085v4.013c0 .217.175.392.392.392h3.464v1.965H3.53V.784zm8.775 11.16c0 .481-.22.86-.552 1.128-.386.307-1.033.48-2.09.48-.591 0-1.033-.038-1.3-.078v-5.22c.315-.064.953-.111 1.553-.111.733 0 1.183.07 1.569.3.37.197.639.56.639 1.04 0 .474-.276.915-.876 1.136v.016c.607.166 1.057.623 1.057 1.31zm-8.817.891c-.49-.457-.757-1.15-.75-1.932.009-1.767 1.294-2.776 3.037-2.776.686 0 1.214.135 1.474.26l-.252.963c-.292-.127-.655-.229-1.238-.229C4.757 9.121 4 9.69 4 10.84c0 1.096.686 1.743 1.671 1.743.276 0 .497-.031.592-.079v-1.111h-.82v-.94h1.979v2.8c-.37.127-1.073.3-1.775.3-.97 0-1.671-.245-2.16-.718zm12.983 6.168H3.53v-3.778H16.47v3.778zm-.561-5.505c-.087-.15-.213-.584-.37-1.238-.143-.663-.372-.844-.86-.852h-.363v2.09h-1.191V8.253c.386-.063.962-.11 1.6-.11.79 0 1.341.118 1.72.418.315.252.489.623.489 1.112 0 .678-.481 1.143-.939 1.309v.024c.371.15.576.504.71.993.166.6.331 1.293.434 1.499h-1.23z"/>
  <path fill="#A0A0A0" d="M9.962 11.148h-.41v1.498c.119.016.26.016.466.016.544 0 1.025-.205 1.025-.765 0-.536-.481-.75-1.08-.75z"/>
</svg>
