<svg xmlns="http://www.w3.org/2000/svg" width="20" height="20" fill="none" viewBox="0 0 20 20">
  <path fill="#A0A0A0" d="M17.735 7.154h-.48V4.837c0-.015-.002-.03-.004-.044a.384.384 0 00-.093-.254L13.302.134l-.003-.003a.381.381 0 00-.104-.08.41.41 0 00-.078-.033l-.02-.007a.398.398 0 00-.09-.011H3.53a.785.785 0 00-.785.784v6.37h-.48a1.12 1.12 0 00-1.121 1.12v5.83c0 .619.502 1.121 1.121 1.121h.48v3.99c0 .433.352.785.785.785h12.94a.785.785 0 00.785-.784v-3.99h.48c.62 0 1.121-.503 1.121-1.122v-5.83c0-.618-.502-1.12-1.12-1.12zm-1.264 11.85H3.53v-3.779h12.94v3.778zM7.039 13.18c.304 0 .547-.034.651-.087V11.87h-.903v-1.034h2.18v3.085a6.557 6.557 0 01-1.955.33c-1.068 0-1.842-.27-2.38-.79-.54-.505-.835-1.27-.826-2.13.009-1.946 1.425-3.058 3.346-3.058.755 0 1.337.148 1.624.287l-.278 1.06c-.321-.14-.721-.252-1.365-.252-1.102 0-1.937.626-1.937 1.894 0 1.208.757 1.92 1.843 1.92zm2.963 1.008V8.333h1.33v5.856h-1.33zm5.909-3.432v1.077h-2.103v2.355h-1.33V8.333h3.58V9.42h-2.25v1.338h2.103zm.56-3.603H3.53V.784h9.084v4.013c0 .217.176.392.392.392h3.465v1.965z"/>
</svg>
