<svg xmlns="http://www.w3.org/2000/svg" width="20" height="20" fill="none" viewBox="0 0 20 20">
  <path fill="#A0A0A0" d="M17.735 7.154h-.48V4.836c0-.014-.002-.029-.004-.043a.385.385 0 00-.093-.254L13.3.134 13.3.131a.381.381 0 00-.079-.065c-.008-.006-.016-.01-.025-.015a.41.41 0 00-.078-.033l-.02-.007a.394.394 0 00-.09-.011H3.53a.785.785 0 00-.785.784v6.37h-.48c-.619 0-1.121.501-1.121 1.12v5.83c0 .619.502 1.121 1.121 1.121h.48v3.99c0 .433.352.785.785.785h12.94a.785.785 0 00.785-.784v-3.99h.48c.62 0 1.121-.503 1.121-1.122v-5.83c0-.619-.502-1.12-1.12-1.12zM3.53.784h9.084v4.013c0 .217.176.392.392.392h3.465v1.965H3.53V.784zm8.713 9.137c0 .496-.165.917-.466 1.202-.391.369-.97.534-1.646.534a2.87 2.87 0 01-.391-.022v1.812H8.605v-5c.353-.06.849-.105 1.548-.105.707 0 1.21.135 1.549.406.323.256.541.676.541 1.173zm-8.998 1.052C3.253 9.29 4.478 8.327 6.14 8.327c.653 0 1.157.128 1.405.248l-.24.917c-.278-.12-.624-.218-1.18-.218-.955 0-1.677.541-1.677 1.64 0 1.044.654 1.66 1.594 1.66.263 0 .473-.03.564-.075v-1.06h-.782v-.894H7.71v2.668a5.66 5.66 0 01-1.692.286c-.924 0-1.593-.233-2.06-.684-.466-.436-.721-1.098-.714-1.842zm13.226 8.03H3.53v-3.778h12.94v3.778zm-1.041-5.556l-.459-.918c-.188-.353-.308-.617-.45-.91h-.016c-.105.293-.233.557-.39.91l-.422.918h-1.308l1.466-2.564-1.413-2.503h1.316l.443.924c.15.309.263.557.383.842h.016c.12-.323.218-.549.345-.842l.429-.924h1.308l-1.429 2.473 1.504 2.594H15.43z"/>
  <path fill="#A0A0A0" d="M10.214 9.206c-.233 0-.391.023-.474.046v1.495c.098.023.218.03.384.03.608 0 .984-.308.984-.826 0-.466-.323-.745-.894-.745z"/>
</svg>
