<svg xmlns="http://www.w3.org/2000/svg" width="20" height="20" fill="none" viewBox="0 0 20 20">
  <path fill="#A0A0A0" d="M17.735 7.154h-.48V4.837c0-.015-.002-.03-.004-.044a.384.384 0 00-.093-.254L13.3.134l-.003-.003a.39.39 0 00-.181-.113l-.02-.007a.392.392 0 00-.09-.011H3.53a.785.785 0 00-.785.784v6.37h-.48a1.12 1.12 0 00-1.121 1.12v5.83c0 .619.502 1.121 1.121 1.121h.48v3.99c0 .433.352.785.785.785h12.94a.785.785 0 00.785-.784v-3.99h.48c.62 0 1.121-.503 1.121-1.122v-5.83c0-.618-.502-1.12-1.12-1.12zm-1.264 11.85H3.53v-3.779h12.94v3.778zm-9.124-6.11c.286 0 .515-.033.613-.082v-1.153h-.85v-.973h2.052v2.903c-.385.13-1.112.31-1.84.31-1.006 0-1.734-.253-2.24-.744-.507-.474-.785-1.194-.777-2.003.008-1.832 1.34-2.878 3.148-2.878.711 0 1.259.139 1.529.27l-.262.997c-.302-.13-.678-.237-1.283-.237-1.039 0-1.824.588-1.824 1.782 0 1.137.711 1.807 1.734 1.807zm2.682-3.533v-1.03h3.999v.72l-2.568 3.728v.033h2.608v1.03H9.785v-.67l2.625-3.778V9.36h-2.38zm6.442-2.207H3.53V.784h9.084v4.013c0 .217.176.392.392.392h3.465v1.965z"/>
</svg>
