<svg xmlns="http://www.w3.org/2000/svg" width="20" height="20" fill="none" viewBox="0 0 20 20">
  <path fill="#A0A0A0" d="M17.735 7.154h-.48V4.837c0-.015-.002-.03-.004-.044a.386.386 0 00-.093-.254L13.302.134l-.003-.003a.39.39 0 00-.182-.113l-.02-.007a.393.393 0 00-.09-.011H3.53a.785.785 0 00-.785.784v6.37h-.48c-.619 0-1.121.501-1.121 1.12v5.83c0 .619.502 1.121 1.121 1.121h.48v3.99c0 .433.352.785.785.785h12.94a.785.785 0 00.785-.784v-3.99h.48c.62 0 1.121-.503 1.121-1.122v-5.83a1.12 1.12 0 00-1.12-1.12zM3.53.784h9.084v4.013c0 .217.176.392.392.392h3.465v1.965H3.53V.784zm9.682 13.06l-.36.964a18.865 18.865 0 01-2.176-.777 1.238 1.238 0 00-.384-.082c-1.242-.081-2.404-.997-2.404-2.796 0-1.652 1.047-2.895 2.69-2.895 1.685 0 2.609 1.276 2.609 2.78 0 1.252-.58 2.134-1.308 2.462v.033c.425.122.899.22 1.333.31zm-10.705.016V8.349h1.251v2.117H5.81V8.35h1.243v5.51H5.81v-2.306H3.758v2.306H2.507zm13.964 5.143H3.53v-3.778h12.94v3.778zm1.467-5.143h-4.284v-.671l2.624-3.778V9.38h-2.38v-1.03h4v.719l-2.568 3.729v.032h2.608v1.03z"/>
  <path fill="#A0A0A0" d="M10.546 9.248c-.85 0-1.341.835-1.341 1.865-.008 1.047.498 1.848 1.332 1.848.843 0 1.333-.793 1.333-1.873 0-1.006-.474-1.84-1.324-1.84z"/>
</svg>
