<svg xmlns="http://www.w3.org/2000/svg" width="20" height="20" fill="none" viewBox="0 0 20 20">
  <path fill="#A0A0A0" d="M17.735 7.154h-.48V4.837c0-.015-.002-.03-.004-.044a.384.384 0 00-.093-.254L13.302.134l-.003-.003a.381.381 0 00-.104-.08.41.41 0 00-.078-.033l-.02-.007a.398.398 0 00-.09-.011H3.53a.785.785 0 00-.785.784v6.37h-.48a1.12 1.12 0 00-1.121 1.12v5.83c0 .619.502 1.121 1.121 1.121h.48v3.99c0 .433.352.785.785.785h12.94a.785.785 0 00.785-.784v-3.99h.48c.62 0 1.121-.503 1.121-1.122v-5.83c0-.618-.502-1.12-1.12-1.12zM3.53.784h9.084v4.013c0 .217.176.392.392.392h3.465v1.965H3.53V.784zm11.23 12.432h-.949l-.063-1.687a50.71 50.71 0 01-.038-1.811h-.02c-.133.562-.311 1.19-.477 1.707l-.521 1.72h-.758l-.458-1.707a20.718 20.718 0 01-.388-1.72h-.013c-.026.595-.045 1.275-.076 1.825l-.077 1.674h-.897l.273-4.408h1.292l.42 1.471c.134.51.268 1.06.363 1.577h.02c.12-.51.266-1.092.407-1.583l.458-1.465h1.266l.235 4.408zm-8.426-3.57v-.838H9.63v.838H8.46v3.57h-.975v-3.57h-1.15zm-3.088 1.726v1.845h-.973V8.808h.973v1.694h1.598V8.808h.968v4.409h-.968v-1.845H3.246zm13.225 7.631H3.53v-3.778h12.94v3.778zm1.713-5.787h-2.68V8.808h.974v3.571h1.706v.838z"/>
</svg>
