<svg xmlns="http://www.w3.org/2000/svg" width="20" height="20" fill="none" viewBox="0 0 20 20">
  <path fill="#A0A0A0" d="M10.518 11.135c0 .64.3 1.09.795 1.09.499 0 .785-.474.785-1.11 0-.585-.28-1.09-.79-1.09-.5 0-.79.475-.79 1.11zM5.132 11.775c0-.33-.296-.46-.664-.46h-.252v.92c.073.01.16.01.286.01.334 0 .63-.126.63-.47zM7.042 11.135c0 .64.3 1.09.795 1.09.499 0 .785-.474.785-1.11 0-.585-.281-1.09-.79-1.09-.5 0-.79.475-.79 1.11z"/>
  <path fill="#A0A0A0" d="M17.735 7.154h-.48V4.836c0-.014-.002-.029-.004-.043a.384.384 0 00-.093-.254L13.302.134l-.003-.003a.381.381 0 00-.104-.08.41.41 0 00-.078-.033l-.02-.007a.398.398 0 00-.09-.011H3.53a.785.785 0 00-.785.784v6.37h-.48a1.12 1.12 0 00-1.121 1.12v5.83c0 .619.502 1.121 1.121 1.121h.48v3.99c0 .433.352.785.785.785h12.94a.785.785 0 00.785-.784v-3.99h.48c.62 0 1.121-.503 1.121-1.122v-5.83c0-.619-.502-1.12-1.12-1.12zM2.844 12.759h-.741V9.493h.74v3.266zM3.53.784h9.084v4.013c0 .217.176.392.392.392h3.465v1.965H3.53V.784zm10.579 10.153c.073-.126.15-.242.223-.36l.741-1.084h.907l-1.081 1.39 1.139 1.876h-.863l-.8-1.41-.28.344v1.066h-.732V9.493h.732v1.444h.014zm-1.232.154c0 1.072-.649 1.721-1.604 1.721-.969 0-1.536-.731-1.536-1.662 0-.98.625-1.71 1.59-1.71 1.003 0 1.55.75 1.55 1.651zm-3.475 0c0 1.072-.65 1.721-1.604 1.721-.97 0-1.537-.731-1.537-1.662 0-.98.626-1.71 1.59-1.71 1.003 0 1.55.75 1.55 1.651zm-5.918 1.654V9.536c.194-.039.586-.068.955-.068.45 0 .727.044.964.185a.71.71 0 01.392.64c0 .29-.169.561-.537.697V11c.373.102.649.383.649.804a.87.87 0 01-.34.693c-.237.19-.634.296-1.284.296-.363 0-.634-.024-.8-.048zm12.987 6.258H3.53v-3.778h12.94v3.778zm.668-6.196c-.373 0-.742-.096-.926-.198l.15-.611c.199.102.504.204.82.204.339 0 .518-.14.518-.354 0-.204-.155-.32-.548-.46-.543-.19-.896-.49-.896-.965 0-.558.465-.984 1.236-.984.368 0 .64.077.833.165l-.165.596a1.554 1.554 0 00-.683-.155c-.32 0-.475.146-.475.315 0 .208.184.3.606.46.577.214.848.514.848.974 0 .548-.422 1.013-1.319 1.013z"/>
  <path fill="#A0A0A0" d="M5.054 10.384c0-.247-.189-.378-.523-.378-.16 0-.252.01-.315.02v.76h.242c.388 0 .596-.16.596-.402z"/>
</svg>
