<svg xmlns="http://www.w3.org/2000/svg" width="20" height="20" fill="none" viewBox="0 0 20 20">
  <path fill="#A0A0A0" d="M13.975 9.184c-.895 0-1.416.851-1.416 1.99 0 1.146.538 1.955 1.425 1.955.895 0 1.407-.852 1.407-1.99 0-1.051-.504-1.955-1.416-1.955z"/>
  <path fill="#A0A0A0" d="M17.735 7.154h-.48V4.837c0-.015-.003-.03-.005-.044a.385.385 0 00-.093-.254L13.301.134l-.003-.003a.386.386 0 00-.078-.065c-.008-.006-.017-.01-.026-.015a.408.408 0 00-.077-.033l-.021-.007a.39.39 0 00-.09-.011H3.529a.785.785 0 00-.784.784v6.37h-.48c-.62 0-1.121.501-1.121 1.12v5.83c0 .62.502 1.121 1.12 1.121h.48v3.99c0 .433.352.785.785.785H16.47a.785.785 0 00.785-.784v-3.99h.48c.619 0 1.12-.503 1.12-1.122V8.275a1.12 1.12 0 00-1.12-1.121zM3.529.784h9.085v4.013c0 .217.175.392.392.392h3.464v1.965H3.53V.784zm4.668 10.841c-.974-.339-1.608-.877-1.608-1.729 0-1 .834-1.764 2.216-1.764.66 0 1.147.14 1.494.296l-.295 1.069a2.778 2.778 0 00-1.225-.279c-.574 0-.852.261-.852.565 0 .374.33.539 1.086.826 1.034.382 1.521.92 1.521 1.746 0 .982-.756 1.816-2.363 1.816-.67 0-1.33-.174-1.66-.356l.27-1.095c.355.182.903.365 1.467.365.609 0 .93-.252.93-.634 0-.365-.278-.574-.981-.826zM5.589 8.228v5.856H4.26V8.228h1.33zM16.47 19.003H3.53v-3.778H16.47v3.778zm-2.556-4.823c-1.738 0-2.754-1.313-2.754-2.98 0-1.756 1.121-3.068 2.85-3.068 1.798 0 2.78 1.347 2.78 2.963 0 1.92-1.164 3.085-2.876 3.085z"/>
</svg>
