<svg xmlns="http://www.w3.org/2000/svg" width="20" height="20" fill="none" viewBox="0 0 20 20">
  <path fill="#A0A0A0" d="M14.982 11.236c0-.99-.474-1.84-1.332-1.84-.843 0-1.333.801-1.333 1.873 0 1.079.507 1.84 1.34 1.84.843 0 1.325-.802 1.325-1.873z"/>
  <path fill="#A0A0A0" d="M17.735 7.154h-.48V4.836c0-.014-.002-.029-.004-.043a.385.385 0 00-.093-.254L13.302.134c-.002-.001-.003-.001-.003-.003a.379.379 0 00-.104-.08.403.403 0 00-.078-.033l-.02-.007a.392.392 0 00-.09-.011H3.53a.785.785 0 00-.785.784v6.37h-.48c-.619 0-1.121.502-1.121 1.12v5.83c0 .62.502 1.121 1.121 1.121h.48v3.99c0 .433.352.785.785.785h12.94a.785.785 0 00.785-.784v-3.99h.48c.62 0 1.121-.503 1.121-1.122v-5.83c0-.618-.502-1.12-1.12-1.12zm-1.264 11.85H3.53v-3.779h12.94v3.778zM4.506 14.006v-5.51h1.251v5.51h-1.25zm3.704-2.313c-.915-.32-1.512-.826-1.512-1.627 0-.94.785-1.66 2.085-1.66.622 0 1.08.13 1.406.277l-.278 1.007a2.609 2.609 0 00-1.152-.262c-.54 0-.802.245-.802.531 0 .352.31.507 1.022.777.973.36 1.43.866 1.43 1.643 0 .925-.71 1.71-2.223 1.71-.63 0-1.251-.164-1.562-.336l.254-1.03c.335.172.85.344 1.382.344.572 0 .875-.238.875-.598 0-.343-.262-.54-.925-.777zm2.79-.401c0-1.651 1.054-2.887 2.681-2.887 1.693 0 2.617 1.268 2.617 2.789 0 1.807-1.095 2.903-2.706 2.903-1.636 0-2.593-1.235-2.593-2.805zm5.47-4.139H3.53V.784h9.084v4.013c0 .217.176.392.392.392h3.465v1.965z"/>
</svg>
