<svg xmlns="http://www.w3.org/2000/svg" width="20" height="20" fill="none" viewBox="0 0 20 20">
  <g clip-path="url(#clip0)">
    <path fill="#A0A0A0" d="M17.251 4.793a.386.386 0 00-.093-.254L13.302.134l-.003-.003a.39.39 0 00-.078-.065c-.008-.006-.017-.01-.026-.015a.41.41 0 00-.077-.033l-.021-.007a.393.393 0 00-.09-.011H3.53a.785.785 0 00-.784.784v18.432c0 .432.351.784.784.784H16.47a.785.785 0 00.784-.784V4.836c0-.014-.002-.029-.004-.043zM7.41 18.923c-.252 0-.583-.043-.799-.115l.123-.885c.15.05.345.087.56.087.46 0 .748-.21.748-.965v-3.05h1.094v3.065c0 1.381-.661 1.863-1.726 1.863zm3.827-.007c-.554 0-1.1-.144-1.374-.295l.223-.907c.295.152.748.303 1.216.303.504 0 .77-.209.77-.526 0-.302-.23-.474-.813-.683-.806-.28-1.331-.726-1.331-1.431 0-.827.69-1.46 1.834-1.46.547 0 .95.114 1.237.244l-.244.885a2.308 2.308 0 00-1.014-.23c-.475 0-.705.216-.705.467 0 .31.274.447.9.684.855.316 1.258.762 1.258 1.445 0 .813-.627 1.504-1.957 1.504zm5.234-5.6H3.53V.785h9.085v4.013c0 .217.175.392.392.392h3.464v8.128zM12.985 8.38c.09.188.13.377.13.62 0 .38-.12.683-.362.917-.228.222-.523.352-.915.407a2.97 2.97 0 01-.625 0c-.624-.083-1.086-.375-1.381-.872-.038-.062-.046-.083-.036-.091.016-.015.755-.441.764-.441.004 0 .032.036.063.081.227.336.51.492.889.492.224 0 .404-.061.52-.177a.515.515 0 00.086-.115.45.45 0 00-.077-.485c-.096-.103-.247-.186-.652-.36a5.194 5.194 0 01-.595-.286c-.497-.3-.72-.68-.72-1.222 0-.362.113-.647.35-.881.229-.228.537-.36.904-.389.139-.01.158-.01.306.001.301.022.53.095.743.237a1.65 1.65 0 01.457.518c0 .007-.707.463-.732.474-.008.003-.03-.023-.06-.071a1.015 1.015 0 00-.127-.153.544.544 0 00-.432-.173c-.165-.001-.272.04-.364.14a.362.362 0 00-.1.245.419.419 0 00.113.329c.088.094.222.168.622.34.53.227.795.384 1 .592.107.109.169.195.23.323zM8.783 5.627h.476v1.722c0 1.142-.004 1.75-.01 1.803-.067.538-.32.899-.753 1.074-.36.145-.852.157-1.234.03a1.452 1.452 0 01-.838-.73l-.029-.059.384-.233.39-.235a.463.463 0 01.057.084c.173.297.323.403.573.402.175-.001.28-.035.361-.117a.455.455 0 00.12-.227l.02-.08.004-1.718.004-1.716h.475z"/>
  </g>
  <defs>
    <clipPath id="clip0">
      <path fill="#fff" d="M0 0h20v20H0z"/>
    </clipPath>
  </defs>
</svg>
