<svg xmlns="http://www.w3.org/2000/svg" width="20" height="20" fill="none" viewBox="0 0 20 20">
  <path fill="#A0A0A0" d="M17.735 7.154h-.48V4.836c0-.014-.003-.029-.005-.043a.384.384 0 00-.093-.254L13.301.134l-.003-.003a.384.384 0 00-.104-.08.41.41 0 00-.077-.033l-.021-.007a.393.393 0 00-.09-.011H3.529a.785.785 0 00-.784.784v6.37h-.48c-.62 0-1.121.501-1.121 1.12v5.83c0 .619.502 1.121 1.12 1.121h.48v3.99c0 .433.352.785.785.785H16.47a.785.785 0 00.785-.784v-3.99h.48c.619 0 1.12-.503 1.12-1.122V8.275a1.12 1.12 0 00-1.12-1.121zM3.529.784h9.085v4.013c0 .217.175.392.392.392h3.464v1.965H3.53V.784zm7.936 9.765v.978H9.51v1.262h2.185v.986H8.303V8.46h3.28v.985H9.51v1.105h1.956zM3.46 13.776V8.46h1.19v2.35h.024c.119-.205.245-.395.363-.584L6.244 8.46h1.474L5.96 10.723l1.853 3.052H6.409L5.108 11.48l-.457.56v1.735H3.46zm13.01 5.228H3.53v-3.778H16.47v3.778zm-1.526-7.444v2.216h-1.199v-2.177l-1.68-3.138h1.373l.543 1.277c.166.387.277.67.41 1.018h.017c.118-.332.244-.639.402-1.018l.536-1.277h1.348l-1.75 3.099z"/>
</svg>
