<svg xmlns="http://www.w3.org/2000/svg" width="20" height="20" fill="none" viewBox="0 0 20 20">
  <path fill="#A0A0A0" d="M17.735 7.154h-.48V4.837c0-.015-.002-.03-.004-.044a.385.385 0 00-.093-.254L13.3.134c0-.001-.002-.001-.002-.003a.385.385 0 00-.104-.08.411.411 0 00-.078-.033l-.02-.007a.39.39 0 00-.09-.011H3.53a.785.785 0 00-.785.784v6.37h-.48c-.619 0-1.121.501-1.121 1.12v5.83c0 .619.502 1.121 1.121 1.121h.48v3.99c0 .433.352.785.785.785h12.94a.785.785 0 00.785-.784v-3.99h.48c.62 0 1.121-.503 1.121-1.122v-5.83a1.12 1.12 0 00-1.12-1.12zM3.53.784h9.084v4.013c0 .217.176.392.392.392h3.465v1.965H3.53V.784zm9.953 12.642h-1.11l-.074-1.921a56.768 56.768 0 01-.044-2.062h-.023c-.156.64-.364 1.355-.558 1.943l-.61 1.958h-.887L9.64 11.4a23.017 23.017 0 01-.454-1.957h-.015c-.03.677-.052 1.451-.09 2.077l-.089 1.906h-1.05l.32-5.018h1.512l.491 1.675c.157.58.313 1.206.425 1.794h.022c.142-.58.313-1.244.477-1.802l.536-1.667h1.481l.276 5.018zm-9.999 0V8.408H4.61v2.218h.022c.112-.193.23-.372.342-.55l1.14-1.668h1.392l-1.66 2.136 1.749 2.882H6.269L5.04 11.259l-.432.529v1.638H3.484zm12.987 5.577H3.53v-3.778h12.94v3.778zm1.017-5.577h-3.135V8.408h1.14v4.065h1.995v.953z"/>
</svg>
