<svg xmlns="http://www.w3.org/2000/svg" width="20" height="20" fill="none" viewBox="0 0 20 20">
  <path fill="#A0A0A0" d="M17.735 7.154h-.48V4.837c0-.015-.002-.03-.004-.044a.386.386 0 00-.093-.254L13.302.134l-.003-.003a.39.39 0 00-.182-.113l-.02-.007a.393.393 0 00-.09-.011H3.53a.785.785 0 00-.785.784v6.37h-.48c-.619 0-1.121.501-1.121 1.12v5.83c0 .619.502 1.121 1.121 1.121h.48v3.99c0 .433.352.785.785.785h12.94a.785.785 0 00.785-.784v-3.99h.48c.62 0 1.121-.503 1.121-1.122v-5.83a1.12 1.12 0 00-1.12-1.12zM3.53.784h9.084v4.013c0 .217.176.392.392.392h3.465v1.965H3.53V.784zm5.655 12.107c.66 0 1.024-.463 1.024-1.447V8.238h1.257v3.125c0 1.72-.868 2.538-2.323 2.538-1.405 0-2.232-.777-2.232-2.555V8.237h1.265v3.207c0 .96.364 1.447 1.009 1.447zm-6.233.918V8.237h1.264v4.514h2.216v1.058h-3.48zm13.519 5.194H3.53v-3.778h12.94v3.778zm-.838-5.194l-.43-1.43h-1.595l-.397 1.43h-1.307l1.704-5.572h1.653l1.728 5.572h-1.356z"/>
  <path fill="#A0A0A0" d="M14.393 9.18h-.017c-.083.33-.165.752-.256 1.074l-.33 1.183h1.23l-.346-1.183c-.1-.33-.199-.744-.281-1.074z"/>
</svg>
