<svg xmlns="http://www.w3.org/2000/svg" width="20" height="20" fill="none" viewBox="0 0 20 20">
  <path fill="#A0A0A0" d="M10.998 10.579c0-.298.015-.603.038-.924h-.03c-.16.32-.29.61-.458.924l-.664 1.084v.015h1.114v-1.1zM15.288 9.457h-.016c-.076.305-.152.695-.236.992l-.306 1.092h1.138l-.32-1.091c-.092-.306-.184-.688-.26-.993z"/>
  <path fill="#A0A0A0" d="M17.735 7.154h-.48V4.836c0-.014-.002-.029-.004-.043a.384.384 0 00-.093-.254L13.302.134l-.003-.003a.381.381 0 00-.104-.08.41.41 0 00-.078-.033l-.02-.007a.398.398 0 00-.09-.011H3.53a.785.785 0 00-.785.784v6.37h-.48a1.12 1.12 0 00-1.121 1.12v5.83c0 .619.502 1.121 1.121 1.121h.48v3.99c0 .433.352.785.785.785h12.94a.785.785 0 00.785-.784v-3.99h.48c.62 0 1.121-.503 1.121-1.122v-5.83c0-.619-.502-1.12-1.12-1.12zM3.53.784h9.084v4.013c0 .217.176.392.392.392h3.465v1.965H3.53V.784zM8.8 12.548v-.755l1.878-3.023h1.42v2.908h.595v.87h-.595v1.183h-1.1V12.55H8.8zm-6.243 1.183l.328-5.144h1.55l.504 1.717c.16.596.32 1.237.435 1.84h.023c.145-.595.32-1.275.488-1.847l.55-1.71h1.519l.282 5.144H7.1l-.077-1.969a57.955 57.955 0 01-.045-2.115h-.023c-.16.657-.374 1.39-.572 1.993l-.627 2.008h-.908l-.55-1.992a23.538 23.538 0 01-.465-2.008h-.016c-.03.694-.053 1.489-.091 2.13l-.092 1.954H2.557zm13.914 5.272H3.53v-3.778h12.94v3.778zm-.038-5.272l-.397-1.32h-1.473l-.367 1.32H12.99l1.573-5.144h1.527l1.595 5.144h-1.252z"/>
</svg>
