<svg xmlns="http://www.w3.org/2000/svg" width="20" height="20" fill="none" viewBox="0 0 20 20">
  <path fill="#A0A0A0" d="M6.903 11.044c-.052-.174-.104-.392-.148-.566h-.009c-.044.174-.087.396-.135.566l-.174.624h.65l-.184-.624z"/>
  <path fill="#A0A0A0" d="M17.735 7.154h-.48V4.837c0-.015-.002-.03-.004-.044a.384.384 0 00-.093-.254L13.302.134l-.003-.003a.381.381 0 00-.104-.08.41.41 0 00-.078-.033l-.02-.007a.398.398 0 00-.09-.011H3.53a.785.785 0 00-.785.784v6.37h-.48a1.12 1.12 0 00-1.121 1.12v5.83c0 .619.502 1.121 1.121 1.121h.48v3.99c0 .433.352.785.785.785h12.94a.785.785 0 00.785-.784v-3.99h.48c.62 0 1.121-.503 1.121-1.122v-5.83c0-.618-.502-1.12-1.12-1.12zM3.53.784h9.084v4.013c0 .217.176.392.392.392h3.465v1.965H3.53V.784zm11.46 10.77v.44H13.85v-.44h1.142zm-3.321.135v1.23h-.667V9.98h.667v1.129h1.094V9.981h.663v2.938h-.663v-1.23H11.67zm-1.757.724c.2 0 .423-.043.553-.096l.1.519c-.121.061-.396.126-.754.126-1.015 0-1.538-.632-1.538-1.468 0-1.003.715-1.56 1.604-1.56.344 0 .606.069.724.13l-.136.527a1.437 1.437 0 00-.558-.109c-.527 0-.937.318-.937.972 0 .588.349.959.942.959zm-1.788.506h-.715l-.226-.755H6.34l-.209.755h-.689l.899-2.938h.871l.91 2.938zm-4.9-.048l-.314-1.138a13.465 13.465 0 01-.266-1.146h-.008c-.018.396-.031.85-.053 1.216l-.052 1.115h-.615l.188-2.937h.885l.287.98c.092.34.183.706.249 1.051h.013c.083-.34.183-.728.279-1.055l.314-.976h.867l.16 2.937h-.648l-.044-1.125c-.013-.352-.026-.78-.026-1.207h-.013c-.091.375-.213.794-.327 1.138l-.357 1.146h-.52zm13.247 6.132H3.53v-3.778h12.94v3.778zm.238-6.036c-.872 0-1.382-.658-1.382-1.495 0-.88.562-1.539 1.43-1.539.902 0 1.394.675 1.394 1.486 0 .963-.584 1.548-1.442 1.548z"/>
  <path fill="#A0A0A0" d="M16.74 10.46c-.45 0-.711.427-.711.998 0 .576.27.981.715.981.449 0 .706-.427.706-.998 0-.528-.253-.98-.71-.98z"/>
</svg>
