<svg xmlns="http://www.w3.org/2000/svg" width="20" height="20" fill="none" viewBox="0 0 20 20">
  <path fill="#A0A0A0" d="M10.326 9.238c-.238 0-.393.02-.484.042v3.091c.091.022.239.022.372.022.967.006 1.598-.527 1.598-1.655.007-.982-.568-1.5-1.486-1.5z"/>
  <path fill="#A0A0A0" d="M17.735 7.154h-.48V4.836c0-.014-.003-.029-.004-.043a.385.385 0 00-.094-.254L13.301.134l-.003-.003a.39.39 0 00-.078-.065c-.008-.006-.017-.01-.026-.015a.408.408 0 00-.077-.033l-.021-.007a.39.39 0 00-.09-.011H3.529a.785.785 0 00-.784.784v6.37h-.48c-.62 0-1.121.501-1.121 1.12v5.83c0 .619.502 1.121 1.12 1.121h.48v3.99c0 .433.352.785.785.785H16.47a.785.785 0 00.785-.784v-3.99h.48c.619 0 1.12-.503 1.12-1.122v-5.83a1.12 1.12 0 00-1.12-1.12zM3.529.784h9.085v4.013c0 .217.175.392.392.392h3.464v1.965H3.53V.784zm9.42 9.919c0 .904-.33 1.528-.786 1.914-.498.413-1.255.61-2.18.61-.554 0-.947-.036-1.213-.07V8.516a9.531 9.531 0 011.444-.098c.897 0 1.48.16 1.935.504.491.365.8.946.8 1.78zM2.733 13.178l.301-4.726H4.46l.462 1.578c.147.546.295 1.135.4 1.69h.02c.134-.548.295-1.172.45-1.697l.504-1.57h1.396l.259 4.725H6.905l-.07-1.81a53.031 53.031 0 01-.042-1.941h-.02a25.594 25.594 0 01-.527 1.83L5.672 13.1h-.835l-.504-1.83a21.731 21.731 0 01-.428-1.843H3.89c-.028.638-.05 1.367-.084 1.956l-.084 1.795h-.989zm13.736 5.825H3.53v-3.778H16.47v3.778zm.194-6.204c-.344.273-.919.428-1.858.428-.526 0-.919-.036-1.157-.07V8.516c.28-.056.848-.098 1.381-.098.652 0 1.052.062 1.395.266.33.175.568.497.568.925 0 .42-.245.814-.778 1.01v.014c.54.147.94.553.94 1.164 0 .427-.197.764-.491 1.002z"/>
  <path fill="#A0A0A0" d="M15.92 9.742c0-.357-.273-.547-.757-.547-.231 0-.364.014-.456.029v1.1h.35c.562 0 .863-.231.863-.582zM15.072 11.089h-.364v1.332c.105.013.23.013.413.013.484 0 .911-.182.911-.68 0-.476-.427-.665-.96-.665z"/>
</svg>
