<svg xmlns="http://www.w3.org/2000/svg" width="20" height="20" fill="none" viewBox="0 0 20 20">
  <path fill="#A0A0A0" d="M17.735 7.154h-.48V4.837c0-.015-.002-.03-.004-.044a.386.386 0 00-.093-.254L13.302.134l-.003-.003a.39.39 0 00-.182-.113l-.02-.007a.393.393 0 00-.09-.011H3.53a.785.785 0 00-.785.784v6.37h-.48c-.619 0-1.121.501-1.121 1.12v5.83c0 .619.502 1.121 1.121 1.121h.48v3.99c0 .433.352.785.785.785h12.94a.785.785 0 00.785-.784v-3.99h.48c.62 0 1.121-.503 1.121-1.122v-5.83a1.12 1.12 0 00-1.12-1.12zM3.53.784h9.084v4.013c0 .217.176.392.392.392h3.465v1.965H3.53V.784zm7.001 7.532v5.511H9.28v-5.51h1.251zm-7.04 3.418l-.1 2.093H2.24l.351-5.51h1.66l.54 1.84c.172.637.343 1.324.466 1.97h.024a45.71 45.71 0 01.524-1.979l.589-1.832H8.02l.302 5.511H7.104l-.082-2.109a62.1 62.1 0 01-.049-2.265H6.95a29.795 29.795 0 01-.614 2.134l-.67 2.15h-.973l-.589-2.133a25.09 25.09 0 01-.498-2.151h-.017c-.032.744-.058 1.594-.098 2.28zm12.98 7.27H3.53v-3.779h12.94v3.778zm-.118-5.177l-.082-2.109a62.126 62.126 0 01-.049-2.265h-.024c-.172.703-.4 1.488-.614 2.134l-.67 2.15h-.973l-.589-2.133a25.209 25.209 0 01-.498-2.151h-.017c-.032.744-.057 1.594-.098 2.28l-.098 2.094h-1.153l.351-5.51h1.66l.54 1.84c.172.637.343 1.324.466 1.97h.025c.155-.638.343-1.366.523-1.979l.589-1.832h1.627l.302 5.511h-1.218z"/>
</svg>
