<svg xmlns="http://www.w3.org/2000/svg" width="20" height="20" fill="none" viewBox="0 0 20 20">
  <path fill="#A0A0A0" d="M9.526 10.837c0 .955.449 1.628 1.187 1.628.745 0 1.172-.709 1.172-1.656 0-.875-.42-1.628-1.18-1.628-.744 0-1.179.71-1.179 1.656z"/>
  <path fill="#A0A0A0" d="M17.735 7.154h-.48V4.837c0-.015-.003-.03-.005-.044a.384.384 0 00-.093-.254L13.301.134l-.003-.003a.384.384 0 00-.104-.08.41.41 0 00-.077-.033l-.021-.007a.393.393 0 00-.09-.011H3.529a.785.785 0 00-.784.784v6.37h-.48c-.62 0-1.121.501-1.121 1.12v5.83c0 .619.502 1.121 1.12 1.121h.48v3.99c0 .433.352.785.785.785H16.47a.785.785 0 00.785-.784v-3.99h.48c.619 0 1.12-.503 1.12-1.122v-5.83c0-.618-.501-1.12-1.12-1.12zM3.529.784h9.085v4.013c0 .217.175.392.392.392h3.464v1.965H3.53V.784zm9.52 9.989c0 1.598-.969 2.568-2.393 2.568-1.447 0-2.294-1.093-2.294-2.481 0-1.462.933-2.554 2.373-2.554 1.497 0 2.315 1.122 2.315 2.467zm-9.585.636l-.086 1.852h-1.02l.311-4.875h1.468l.478 1.627c.152.565.304 1.172.412 1.744h.021c.138-.565.305-1.208.463-1.75l.521-1.621h1.44l.267 4.875H6.662l-.073-1.866a55.014 55.014 0 01-.043-2.004h-.022a26.685 26.685 0 01-.542 1.889l-.593 1.902h-.861l-.52-1.889a22.126 22.126 0 01-.442-1.902H3.55c-.029.658-.05 1.41-.087 2.018zm13.006 7.594H3.53v-3.778H16.47v3.778zm-.31-5.742h-1.287l-1.562-4.875h1.208l.593 2.061c.166.579.318 1.136.434 1.744h.022c.123-.586.274-1.165.44-1.722l.623-2.083h1.172l-1.642 4.875z"/>
</svg>
