<svg xmlns="http://www.w3.org/2000/svg" width="20" height="20" fill="none" viewBox="0 0 20 20">
  <path fill="#A0A0A0" d="M15.31 10.55l-.712 1.16v.017h1.193V10.55c0-.319.017-.646.041-.99H15.8c-.172.344-.31.654-.49.99z"/>
  <path fill="#A0A0A0" d="M17.735 7.154h-.48V4.837c0-.015-.002-.03-.004-.044a.385.385 0 00-.093-.254L13.302.134c-.002-.001-.003-.001-.003-.003a.385.385 0 00-.182-.113l-.02-.007a.392.392 0 00-.09-.011H3.53a.785.785 0 00-.785.784v6.37h-.48c-.619 0-1.121.501-1.121 1.12v5.83c0 .62.502 1.121 1.121 1.121h.48v3.99c0 .433.352.785.785.785h12.94a.785.785 0 00.785-.784v-3.99h.48c.62 0 1.121-.503 1.121-1.122v-5.83c0-.618-.502-1.12-1.12-1.12zM3.53.784h9.084v4.013c0 .217.176.392.392.392h3.465v1.965H3.53V.784zm9.465 9.308c0 .54-.18.997-.506 1.307-.426.401-1.055.58-1.79.58-.164 0-.311-.007-.425-.024v1.97H9.039V8.489c.384-.065.923-.114 1.684-.114.768 0 1.316.147 1.684.442.351.277.588.735.588 1.275zm-9.63-.54h-.017c-.032.744-.056 1.594-.098 2.28l-.097 2.093H2l.351-5.509h1.66l.54 1.84c.17.637.342 1.324.465 1.97h.025c.155-.638.343-1.366.523-1.979l.589-1.83h1.626l.303 5.508H6.864l-.082-2.109a61.117 61.117 0 01-.049-2.264h-.024a29.71 29.71 0 01-.614 2.134l-.67 2.15h-.973l-.588-2.134a25.24 25.24 0 01-.499-2.15zm13.106 9.451H3.53v-3.778h12.94v3.778zm1.136-6.345h-.638v1.267h-1.177v-1.267h-2.354v-.809l2.01-3.237h1.52v3.115h.639v.931z"/>
  <path fill="#A0A0A0" d="M10.788 9.315a2.13 2.13 0 00-.514.049v1.627c.106.024.237.033.417.033.662 0 1.07-.335 1.07-.9 0-.506-.351-.809-.973-.809z"/>
</svg>
