<svg xmlns="http://www.w3.org/2000/svg" width="20" height="20" fill="none" viewBox="0 0 20 20">
  <path fill="#A0A0A0" d="M17.735 7.154h-.48V4.837c0-.015-.003-.03-.005-.044a.385.385 0 00-.093-.254L13.301.134l-.003-.003a.385.385 0 00-.181-.113l-.021-.007a.391.391 0 00-.09-.011H3.529a.785.785 0 00-.784.784v6.37h-.48c-.62 0-1.121.501-1.121 1.12v5.83c0 .62.502 1.121 1.12 1.121h.48v3.99c0 .433.352.785.785.785H16.47a.785.785 0 00.785-.784v-3.99h.48c.619 0 1.12-.503 1.12-1.122v-5.83c0-.618-.501-1.12-1.12-1.12zM3.529.784h9.085v4.013c0 .217.175.392.392.392h3.464v1.965H3.53V.784zm9.142 9.13c0 .505-.168.932-.474 1.223-.397.374-.984.542-1.672.542a2.9 2.9 0 01-.397-.023v1.84H8.975V8.418c.359-.06.863-.107 1.573-.107.718 0 1.23.138 1.573.413.328.26.55.687.55 1.19zm-9.195 3.582H2.4l.329-5.146h1.55l.504 1.718c.16.595.32 1.237.435 1.84h.023c.145-.596.32-1.275.489-1.848l.55-1.71h1.519l.283 5.147H6.943l-.077-1.97a57.594 57.594 0 01-.045-2.116h-.023c-.16.656-.374 1.39-.573 1.993L5.6 13.412H4.69l-.55-1.993a23.61 23.61 0 01-.465-2.008h-.016c-.03.695-.053 1.489-.091 2.13l-.092 1.955zm12.994 5.507H3.53v-3.778H16.47v3.778zm1.241-5.743c-.359.122-1.038.29-1.718.29-.939 0-1.618-.237-2.093-.695-.473-.443-.732-1.115-.725-1.87.008-1.711 1.253-2.689 2.94-2.689.664 0 1.176.13 1.428.252l-.244.932c-.283-.123-.634-.222-1.199-.222-.97 0-1.703.55-1.703 1.665 0 1.062.665 1.688 1.619 1.688.267 0 .48-.031.573-.077v-1.077h-.794v-.908h1.916v2.71z"/>
  <path fill="#A0A0A0" d="M10.61 9.19c-.237 0-.397.022-.481.046v1.52c.099.022.221.03.39.03.618 0 1-.314 1-.84 0-.474-.33-.756-.91-.756z"/>
</svg>
