<svg xmlns="http://www.w3.org/2000/svg" width="20" height="20" fill="none" viewBox="0 0 20 20">
  <path fill="#A0A0A0" d="M17.735 7.154h-.48V4.836c0-.014-.003-.029-.005-.043a.385.385 0 00-.093-.254L13.301.134l-.003-.003a.383.383 0 00-.104-.08.4.4 0 00-.078-.033l-.02-.007a.391.391 0 00-.09-.011H3.529a.785.785 0 00-.784.784v6.37h-.48c-.62 0-1.121.502-1.121 1.12v5.83c0 .62.502 1.121 1.12 1.121h.48v3.99c0 .433.352.785.785.785H16.47a.785.785 0 00.785-.784v-3.99h.48c.619 0 1.12-.503 1.12-1.122v-5.83c0-.618-.501-1.12-1.12-1.12zm-1.265 11.85H3.53v-3.779H16.47v3.778zM3.653 13.675l.351-5.51h1.66l.54 1.839c.172.638.343 1.324.466 1.97h.025c.155-.637.343-1.365.523-1.978l.588-1.832h1.628l.302 5.511H8.518l-.082-2.11a62.07 62.07 0 01-.049-2.264h-.024c-.172.703-.401 1.488-.614 2.134l-.67 2.15h-.973l-.589-2.134a25.244 25.244 0 01-.499-2.15h-.016c-.033.744-.057 1.594-.098 2.281l-.098 2.094H3.653zm8.415-2.314c-.916-.319-1.513-.825-1.513-1.627 0-.94.785-1.66 2.085-1.66.622 0 1.08.131 1.406.278L13.77 9.36a2.626 2.626 0 00-1.154-.262c-.54 0-.8.246-.8.532 0 .351.31.507 1.021.777.974.36 1.431.867 1.431 1.643 0 .924-.711 1.71-2.224 1.71-.63 0-1.25-.164-1.561-.336l.253-1.03c.335.171.85.343 1.382.343.572 0 .875-.237.875-.597 0-.343-.262-.54-.924-.777zm3.042 2.314v-5.51h1.251v5.51H15.11zm1.36-6.522H3.53V.784h9.085v4.013c0 .217.175.392.392.392h3.464v1.965z"/>
</svg>
