<svg xmlns="http://www.w3.org/2000/svg" width="20" height="20" fill="none" viewBox="0 0 20 20">
  <path fill="#A0A0A0" d="M15.05 11.31h-.395v1.444c.114.016.251.016.449.016.524 0 .987-.197.987-.737 0-.517-.463-.722-1.04-.722zM15.97 9.852c0-.388-.296-.593-.82-.593-.252 0-.396.016-.495.03v1.194h.38c.608 0 .935-.25.935-.63zM9.905 9.305c-.258 0-.425.023-.524.046v3.35c.098.024.259.024.403.024 1.049.007 1.732-.57 1.732-1.794.008-1.064-.616-1.626-1.61-1.626zM6.234 11c0-.92-.44-1.71-1.238-1.71-.783 0-1.239.745-1.239 1.74 0 1.003.471 1.71 1.247 1.71.782 0 1.23-.745 1.23-1.74z"/>
  <path fill="#A0A0A0" d="M17.735 7.154h-.48V4.836c0-.014-.002-.029-.004-.043a.385.385 0 00-.093-.254L13.3.134l-.003-.003a.386.386 0 00-.181-.113l-.02-.007a.398.398 0 00-.09-.011H3.53a.785.785 0 00-.785.784v6.37h-.48c-.619 0-1.121.501-1.121 1.12v5.83c0 .619.502 1.121 1.121 1.121h.48v3.99c0 .433.352.785.785.785h12.94a.785.785 0 00.785-.784v-3.99h.48c.62 0 1.121-.503 1.121-1.122v-5.83c0-.619-.502-1.12-1.12-1.12zM3.53.784h9.084v4.013c0 .217.176.392.392.392h3.465v1.965H3.53V.784zm9.217 10.109c0 .98-.357 1.657-.85 2.075-.54.448-1.36.66-2.364.66-.6 0-1.026-.037-1.315-.075v-5.03c.426-.07.98-.107 1.566-.107.972 0 1.603.175 2.097.547.532.395.866 1.026.866 1.93zm-10.213.16c0-1.536.98-2.683 2.492-2.683 1.573 0 2.432 1.178 2.432 2.592 0 1.679-1.018 2.697-2.516 2.697-1.52 0-2.408-1.148-2.408-2.607zm13.937 7.95H3.53v-3.778h12.94v3.778zm.304-5.838c-.372.297-.995.464-2.014.464-.57 0-.995-.038-1.253-.076v-5.03c.304-.061.919-.107 1.496-.107.707 0 1.14.069 1.513.288.357.19.615.54.615 1.004 0 .455-.266.88-.843 1.094v.015c.585.16 1.018.6 1.018 1.261 0 .464-.212.829-.532 1.087z"/>
</svg>
