<svg xmlns="http://www.w3.org/2000/svg" width="20" height="20" fill="none" viewBox="0 0 20 20">
  <path fill="#A0A0A0" d="M6.225 11.083c0-1-.48-1.86-1.347-1.86-.851 0-1.347.81-1.347 1.892 0 1.091.512 1.86 1.355 1.86.852 0 1.339-.81 1.339-1.892z"/>
  <path fill="#A0A0A0" d="M17.735 7.154h-.48V4.836c0-.014-.003-.029-.005-.043a.385.385 0 00-.093-.254L13.301.134l-.003-.003a.38.38 0 00-.078-.065c-.008-.006-.017-.01-.026-.015a.408.408 0 00-.077-.033l-.021-.007a.39.39 0 00-.09-.011H3.529a.785.785 0 00-.784.784v6.37h-.48c-.62 0-1.121.501-1.121 1.12v5.83c0 .62.502 1.121 1.12 1.121h.48v3.99c0 .433.352.785.785.785H16.47a.785.785 0 00.785-.784v-3.99h.48c.619 0 1.12-.503 1.12-1.122V8.275c0-.62-.501-1.121-1.12-1.121zM3.529.784h9.085v4.013c0 .217.175.392.392.392h3.464v1.965H3.53V.784zm9.78 10.183c0 1.066-.389 1.801-.927 2.256-.586.487-1.479.719-2.57.719-.652 0-1.115-.041-1.43-.083V8.39a11.185 11.185 0 011.703-.117c1.058 0 1.744.19 2.281.595.578.43.942 1.116.942 2.1zm-11.11.173c0-1.67 1.067-2.917 2.711-2.917 1.711 0 2.645 1.281 2.645 2.818 0 1.826-1.107 2.934-2.736 2.934-1.653 0-2.62-1.248-2.62-2.835zm14.271 7.863H3.53v-3.778H16.47v3.778zm1.07-9.657H15.4v1.274h2v1.025h-2v2.24h-1.264V8.313h3.405v1.032z"/>
  <path fill="#A0A0A0" d="M10.217 9.24c-.28 0-.463.024-.57.049v3.645c.107.024.281.024.438.024 1.14.009 1.884-.62 1.884-1.95.008-1.157-.669-1.769-1.752-1.769z"/>
</svg>
