<svg xmlns="http://www.w3.org/2000/svg" width="20" height="20" fill="none" viewBox="0 0 20 20">
  <path fill="#A0A0A0" d="M10.306 9.285c-.275 0-.454.025-.559.05v3.576c.105.025.275.025.43.025 1.119.008 1.848-.61 1.848-1.915.01-1.136-.656-1.736-1.719-1.736zM15.887 9.27c-.251 0-.422.024-.511.048v1.614c.106.025.235.032.414.032.657 0 1.063-.332 1.063-.892 0-.503-.35-.803-.966-.803z"/>
  <path fill="#A0A0A0" d="M17.735 7.154h-.48V4.836c0-.014-.003-.029-.005-.043a.385.385 0 00-.093-.254L13.301.134l-.003-.003a.379.379 0 00-.104-.08.403.403 0 00-.077-.033l-.021-.007a.391.391 0 00-.09-.011H3.529a.785.785 0 00-.784.784v6.37h-.48c-.62 0-1.121.501-1.121 1.12v5.83c0 .62.502 1.121 1.12 1.121h.48v3.99c0 .433.352.785.785.785H16.47a.785.785 0 00.785-.784v-3.99h.48c.619 0 1.12-.503 1.12-1.122v-5.83c0-.619-.501-1.12-1.12-1.12zM3.529.784h9.085v4.013c0 .217.175.392.392.392h3.464v1.965H3.53V.784zm9.81 10.197c0 1.046-.38 1.768-.908 2.213-.576.479-1.451.706-2.522.706a10.6 10.6 0 01-1.403-.081V8.45a11.014 11.014 0 011.67-.113c1.039 0 1.712.186 2.24.584.567.421.924 1.095.924 2.06zm-10.9.17c0-1.638 1.046-2.863 2.66-2.863 1.679 0 2.595 1.257 2.595 2.766 0 1.792-1.087 2.878-2.685 2.878-1.621 0-2.57-1.224-2.57-2.781zm14.031 7.852H3.53v-3.778H16.47v3.778zm1.104-7.665c-.422.397-1.046.575-1.776.575-.162 0-.309-.008-.422-.024v1.955h-1.224V8.45c.38-.065.916-.113 1.67-.113.763 0 1.306.146 1.671.438.349.275.584.73.584 1.265 0 .535-.179.99-.503 1.298z"/>
  <path fill="#A0A0A0" d="M6.389 11.094c0-.982-.47-1.825-1.322-1.825-.835 0-1.322.795-1.322 1.857 0 1.071.503 1.825 1.33 1.825.835 0 1.314-.795 1.314-1.857z"/>
</svg>
