<svg xmlns="http://www.w3.org/2000/svg" width="20" height="20" fill="none" viewBox="0 0 20 20">
  <path fill="#A0A0A0" d="M10.301 9.297c-.276 0-.454.024-.56.048v3.58c.106.025.276.025.43.025 1.12.008 1.851-.61 1.851-1.916.008-1.137-.657-1.737-1.72-1.737z"/>
  <path fill="#A0A0A0" d="M17.735 7.154h-.48V4.836c0-.014-.003-.029-.005-.043a.385.385 0 00-.093-.254L13.301.134l-.003-.003a.38.38 0 00-.078-.065c-.008-.006-.017-.01-.026-.015a.408.408 0 00-.077-.033l-.021-.007a.39.39 0 00-.09-.011H3.529a.785.785 0 00-.784.784v6.37h-.48c-.62 0-1.121.501-1.121 1.12v5.83c0 .62.502 1.121 1.12 1.121h.48v3.99c0 .433.352.785.785.785H16.47a.785.785 0 00.785-.784v-3.99h.48c.619 0 1.12-.503 1.12-1.122V8.275c0-.62-.501-1.121-1.12-1.121zM3.529.784h9.085v4.013c0 .217.175.392.392.392h3.464v1.965H3.53V.784zm9.808 10.21c0 1.047-.381 1.77-.909 2.215-.576.48-1.453.707-2.525.707-.641 0-1.096-.04-1.404-.082V8.46a11.034 11.034 0 011.672-.114c1.039 0 1.713.187 2.24.585.57.422.926 1.096.926 2.062zm-10.912.17c0-1.64 1.048-2.867 2.663-2.867 1.681 0 2.598 1.26 2.598 2.77 0 1.793-1.087 2.881-2.687 2.881-1.623 0-2.573-1.226-2.573-2.784zm14.045 7.84H3.53v-3.779H16.47v3.778zm1.244-9.578H16.22v4.433h-1.242V9.426h-1.47V8.387h4.206v1.04z"/>
  <path fill="#A0A0A0" d="M6.38 11.107c0-.983-.47-1.827-1.323-1.827-.836 0-1.324.796-1.324 1.86 0 1.07.504 1.826 1.332 1.826.836 0 1.315-.796 1.315-1.86z"/>
</svg>
