<svg xmlns="http://www.w3.org/2000/svg" width="20" height="20" fill="none" viewBox="0 0 20 20">
  <path fill="#A0A0A0" d="M17.735 7.154h-.48V4.837c0-.015-.003-.03-.005-.044a.385.385 0 00-.093-.254L13.301.134l-.003-.003a.381.381 0 00-.078-.065c-.008-.006-.017-.01-.026-.015a.41.41 0 00-.077-.033l-.021-.007a.397.397 0 00-.09-.011H3.529a.785.785 0 00-.784.784v6.37h-.48a1.12 1.12 0 00-1.121 1.12v5.83c0 .619.502 1.121 1.12 1.121h.48v3.99c0 .433.352.785.785.785H16.47a.785.785 0 00.785-.784v-3.99h.48c.619 0 1.12-.503 1.12-1.122v-5.83c0-.618-.501-1.12-1.12-1.12zM3.529.784h9.085v4.013c0 .217.175.392.392.392h3.464v1.965H3.53V.784zm9.758 10.25c0 1.063-.386 1.796-.922 2.248-.584.486-1.473.717-2.56.717-.651 0-1.113-.04-1.426-.082V8.465a11.225 11.225 0 011.697-.115c1.054 0 1.737.19 2.272.593.577.428.94 1.111.94 2.092zm-11.068.173C2.219 9.544 3.28 8.3 4.92 8.3c1.705 0 2.635 1.277 2.635 2.809 0 1.82-1.103 2.923-2.726 2.923-1.646 0-2.61-1.243-2.61-2.825zm14.251 7.796H3.53v-3.778H16.47v3.778zm1.257-9.558h-1.515v4.497h-1.26V9.445H13.46V8.391h4.266v1.054z"/>
  <path fill="#A0A0A0" d="M6.23 11.15c0-.997-.478-1.853-1.343-1.853-.848 0-1.342.807-1.342 1.885 0 1.088.51 1.853 1.35 1.853.85 0 1.335-.807 1.335-1.886zM10.208 9.313c-.28 0-.462.025-.568.05v3.631c.107.026.28.026.436.026 1.137.008 1.877-.619 1.877-1.944.009-1.153-.666-1.763-1.745-1.763z"/>
</svg>
