<svg xmlns="http://www.w3.org/2000/svg" width="20" height="20" fill="none" viewBox="0 0 20 20">
  <path fill="#A0A0A0" d="M17.735 7.154h-.48V4.837c0-.015-.002-.03-.004-.044a.386.386 0 00-.093-.254L13.302.134l-.003-.003a.39.39 0 00-.182-.113l-.02-.007a.393.393 0 00-.09-.011H3.53a.785.785 0 00-.785.784v6.37h-.48c-.619 0-1.121.501-1.121 1.12v5.83c0 .619.502 1.121 1.121 1.121h.48v3.99c0 .433.352.785.785.785h12.94a.785.785 0 00.785-.784v-3.99h.48c.62 0 1.121-.503 1.121-1.122v-5.83a1.12 1.12 0 00-1.12-1.12zM3.53.784h9.084v4.013c0 .217.176.392.392.392h3.465v1.965H3.53V.784zm4.928 8.631V8.368h4.236v1.047h-1.505v4.465h-1.25V9.415H8.457zm-5.471 1.75c0-1.652 1.055-2.887 2.682-2.887 1.693 0 2.617 1.268 2.617 2.789 0 1.807-1.096 2.903-2.707 2.903-1.636 0-2.592-1.235-2.592-2.805zm13.484 7.838H3.53v-3.778h12.94v3.778zm.254-9.612h-2.118v1.259h1.98v1.014h-1.98v2.216h-1.25V8.368h3.368v1.023z"/>
  <path fill="#A0A0A0" d="M5.644 12.98c.843 0 1.325-.801 1.325-1.872 0-.99-.474-1.84-1.333-1.84-.842 0-1.333.801-1.333 1.872 0 1.08.508 1.84 1.341 1.84z"/>
</svg>
