<svg xmlns="http://www.w3.org/2000/svg" width="20" height="20" fill="none" viewBox="0 0 20 20">
  <path fill="#A0A0A0" d="M5.824 10.248c0-.539-.374-.86-1.034-.86-.27 0-.452.026-.547.052v1.73c.113.025.252.034.442.034.704 0 1.139-.357 1.139-.956zM9.909 9.405c-.296 0-.487.026-.6.052v3.832c.113.026.296.026.46.026 1.2.009 1.982-.651 1.982-2.05.009-1.217-.704-1.86-1.842-1.86z"/>
  <path fill="#A0A0A0" d="M17.735 7.154h-.48V4.837c0-.015-.002-.03-.004-.044a.385.385 0 00-.093-.254L13.302.134c-.002-.001-.003-.001-.003-.003a.385.385 0 00-.182-.113l-.02-.007a.392.392 0 00-.09-.011H3.53a.785.785 0 00-.785.784v6.37h-.48c-.619 0-1.121.501-1.121 1.12v5.83c0 .62.502 1.121 1.121 1.121h.48v3.99c0 .433.352.785.785.785h12.94a.785.785 0 00.785-.784v-3.99h.48c.62 0 1.121-.503 1.121-1.122v-5.83c0-.618-.502-1.12-1.12-1.12zM3.53.784h9.084v4.013c0 .217.176.392.392.392h3.465v1.965H3.53V.784zm9.628 10.437c0 1.121-.409 1.894-.974 2.372-.616.513-1.555.756-2.702.756a11.51 11.51 0 01-1.503-.087V8.51a11.85 11.85 0 011.79-.122c1.112 0 1.833.2 2.398.626.608.452.99 1.173.99 2.207zM2.93 14.288V8.51c.409-.07.982-.122 1.79-.122.817 0 1.4.157 1.79.47.374.295.625.782.625 1.355 0 .574-.19 1.06-.538 1.39-.452.426-1.121.618-1.903.618-.174 0-.33-.01-.452-.027v2.094H2.93zm13.54 4.715H3.53v-3.778h12.94v3.778zm1.137-9.485h-2.25v1.338h2.102v1.078h-2.103v2.354h-1.329V8.432h3.58v1.086z"/>
</svg>
