<svg xmlns="http://www.w3.org/2000/svg" width="20" height="20" fill="none" viewBox="0 0 20 20">
  <path fill="#A0A0A0" d="M10.197 9.162c-.27 0-.452.026-.548.052v1.729c.114.026.253.035.444.035.704 0 1.138-.357 1.138-.956 0-.539-.374-.86-1.034-.86zM6.182 10.022c0-.539-.374-.86-1.034-.86-.27 0-.452.026-.547.052v1.729c.113.026.252.035.443.035.704 0 1.138-.357 1.138-.956z"/>
  <path fill="#A0A0A0" d="M17.735 7.154h-.48V4.837c0-.015-.002-.03-.004-.044a.385.385 0 00-.093-.254L13.302.134c-.002-.001-.003-.001-.003-.003a.385.385 0 00-.182-.113l-.02-.007a.392.392 0 00-.09-.011H3.53a.785.785 0 00-.785.784v6.37h-.48c-.619 0-1.121.501-1.121 1.12v5.83c0 .62.502 1.121 1.121 1.121h.48v3.99c0 .433.352.785.785.785h12.94a.785.785 0 00.785-.784v-3.99h.48c.62 0 1.121-.503 1.121-1.122v-5.83c0-.618-.502-1.12-1.12-1.12zM3.53.784h9.084v4.013c0 .217.176.392.392.392h3.465v1.965H3.53V.784zm9.013 9.203c0 .574-.191 1.06-.538 1.39-.453.426-1.122.617-1.904.617-.173 0-.33-.009-.452-.026v2.094H8.338V8.284c.409-.07.983-.122 1.79-.122.817 0 1.4.157 1.79.47.374.295.626.782.626 1.355zm-9.254 4.075V8.284c.408-.07.982-.122 1.79-.122.816 0 1.399.157 1.79.47.373.295.625.782.625 1.355 0 .574-.19 1.06-.538 1.39-.453.426-1.122.617-1.904.617-.173 0-.33-.009-.452-.026v2.094H3.29zm13.182 4.941H3.53v-3.778h12.94v3.778zm.973-9.685h-1.599v4.744h-1.329V9.318h-1.573V8.206h4.501v1.112z"/>
</svg>
