<svg xmlns="http://www.w3.org/2000/svg" width="20" height="20" fill="none" viewBox="0 0 20 20">
  <path fill="#A0A0A0" d="M7.494 8.87c-.307 0-.48.025-.571.042v1.538h.496c.629 0 1-.314 1-.802 0-.513-.347-.77-.925-.778zM13.016 9.995c-.1-.33-.199-.744-.281-1.075h-.016c-.084.331-.166.753-.257 1.075l-.331 1.183h1.232l-.347-1.183z"/>
  <path fill="#A0A0A0" d="M17.735 7.154h-.48V4.836c0-.014-.003-.029-.005-.043a.384.384 0 00-.093-.254L13.301.134l-.003-.003a.384.384 0 00-.104-.08.41.41 0 00-.077-.033l-.021-.007a.393.393 0 00-.09-.011H3.529a.785.785 0 00-.784.784v6.37h-.48c-.62 0-1.121.501-1.121 1.12v5.83c0 .619.502 1.121 1.12 1.121h.48v3.99c0 .433.352.785.785.785H16.47a.785.785 0 00.785-.784v-3.99h.48c.619 0 1.12-.503 1.12-1.122V8.275a1.12 1.12 0 00-1.12-1.121zm-1.265 11.85H3.53v-3.779H16.47v3.778zM9.43 11.98c.173.628.347 1.356.455 1.571h-1.29c-.092-.157-.224-.612-.39-1.298-.148-.695-.387-.885-.9-.893h-.381v2.191H5.674v-5.5a11.065 11.065 0 011.679-.115c.827 0 1.406.124 1.803.438.33.265.512.654.512 1.166 0 .712-.504 1.2-.984 1.373v.025c.39.157.604.53.745 1.042zm.818 1.571l1.703-5.574h1.655l1.727 5.574h-1.356l-.43-1.43H11.95l-.397 1.43h-1.306zm6.223-6.397H3.53V.784h9.085v4.013c0 .217.175.392.392.392h3.464v1.965z"/>
</svg>
