<svg xmlns="http://www.w3.org/2000/svg" width="20" height="20" fill="none" viewBox="0 0 20 20">
  <path fill="#A0A0A0" d="M9.85 10.252c-.104-.348-.208-.782-.295-1.13h-.017c-.087.348-.174.791-.27 1.13l-.347 1.242h1.295l-.365-1.242z"/>
  <path fill="#A0A0A0" d="M17.735 7.154h-.48V4.837c0-.015-.003-.03-.005-.044a.385.385 0 00-.093-.254L13.301.134l-.003-.003a.386.386 0 00-.078-.065c-.008-.006-.017-.01-.026-.015a.408.408 0 00-.077-.033l-.021-.007a.39.39 0 00-.09-.011H3.529a.785.785 0 00-.784.784v6.37h-.48c-.62 0-1.121.501-1.121 1.12v5.83c0 .62.502 1.121 1.12 1.121h.48v3.99c0 .433.352.785.785.785H16.47a.785.785 0 00.785-.784v-3.99h.48c.619 0 1.12-.503 1.12-1.122V8.275a1.12 1.12 0 00-1.12-1.121zM3.529.784h9.085v4.013c0 .217.175.392.392.392h3.464v1.965H3.53V.784zm8.755 13.204h-1.425l-.452-1.503H8.73l-.417 1.503H6.94l1.79-5.856h1.738l1.816 5.856zm-8.837-2.303v2.303H2.135V8.21A11.6 11.6 0 013.9 8.088c.869 0 1.477.13 1.894.46.347.279.539.687.539 1.226 0 .747-.53 1.26-1.034 1.442v.026c.409.165.634.556.782 1.095.182.66.365 1.425.478 1.65H5.203c-.096-.164-.235-.642-.409-1.363-.156-.73-.408-.93-.947-.939h-.4zm13.023 7.318H3.53v-3.778H16.47v3.778zm-.336-5.015c-.096-.165-.235-.643-.409-1.364-.156-.73-.408-.93-.946-.939h-.4v2.303h-1.312V8.21c.426-.07 1.06-.122 1.763-.122.87 0 1.478.13 1.895.46.347.279.539.687.539 1.226 0 .747-.53 1.26-1.035 1.442v.026c.409.165.635.556.782 1.095.183.66.365 1.425.479 1.65h-1.356z"/>
  <path fill="#A0A0A0" d="M5.02 9.887c0-.539-.365-.808-.973-.817-.321 0-.504.026-.6.043v1.616h.522c.66 0 1.051-.33 1.051-.842zM14.979 9.07c-.322 0-.504.026-.6.044v1.616h.521c.66 0 1.052-.33 1.052-.843 0-.539-.365-.808-.973-.817z"/>
</svg>
