<svg xmlns="http://www.w3.org/2000/svg" width="20" height="20" fill="none" viewBox="0 0 20 20">
  <path fill="#A0A0A0" d="M6.038 8.7c-.35 0-.548.03-.652.048v1.759h.567c.719 0 1.144-.36 1.144-.917 0-.587-.397-.88-1.059-.89z"/>
  <path fill="#A0A0A0" d="M17.735 7.154h-.48V4.836c0-.014-.003-.029-.005-.043a.384.384 0 00-.093-.254L13.301.134l-.003-.003a.384.384 0 00-.104-.08.41.41 0 00-.077-.033l-.021-.007a.393.393 0 00-.09-.011H3.529a.785.785 0 00-.784.784v6.37h-.48c-.62 0-1.121.501-1.121 1.12v5.83c0 .619.502 1.121 1.12 1.121h.48v3.99c0 .433.352.785.785.785H16.47a.785.785 0 00.785-.784v-3.99h.48c.619 0 1.12-.503 1.12-1.122V8.275a1.12 1.12 0 00-1.12-1.121zm-1.265 11.85H3.53v-3.779H16.47v3.778zm-8.22-6.748c.2.719.398 1.55.52 1.797H7.297c-.104-.18-.256-.7-.445-1.485-.17-.794-.444-1.011-1.03-1.021h-.435v2.506H3.958V7.765a12.62 12.62 0 011.92-.133c.945 0 1.607.142 2.06.502.379.302.587.747.587 1.333 0 .813-.577 1.37-1.125 1.57v.028c.444.18.69.605.85 1.191zm1.172 1.797L9.83 7.68h1.92l.623 2.127c.199.737.397 1.532.54 2.279h.028c.18-.738.397-1.579.605-2.288l.68-2.118h1.882l.35 6.373h-1.41l-.094-2.44a71.868 71.868 0 01-.056-2.619h-.029c-.198.813-.463 1.72-.709 2.468l-.775 2.487h-1.125l-.68-2.468A29.062 29.062 0 0111 8.994h-.019c-.037.86-.066 1.844-.113 2.638l-.113 2.42H9.422zm7.048-6.9H3.53V.785h9.085v4.013c0 .217.175.392.392.392h3.464v1.965z"/>
</svg>
