<svg xmlns="http://www.w3.org/2000/svg" width="20" height="20" fill="none" viewBox="0 0 20 20">
  <path fill="#A0A0A0" d="M17.735 7.154h-.48V4.836c0-.014-.002-.029-.004-.043a.385.385 0 00-.093-.254L13.3.134 13.3.131a.381.381 0 00-.079-.065c-.008-.006-.016-.01-.025-.015a.41.41 0 00-.078-.033l-.02-.007a.394.394 0 00-.09-.011H3.53a.785.785 0 00-.785.784v6.37h-.48c-.619 0-1.121.501-1.121 1.12v5.83c0 .619.502 1.121 1.121 1.121h.48v3.99c0 .433.352.785.785.785h12.94a.785.785 0 00.785-.784v-3.99h.48c.62 0 1.121-.503 1.121-1.122v-5.83c0-.619-.502-1.12-1.12-1.12zM3.53.784h9.084v4.013c0 .217.176.392.392.392h3.465v1.965H3.53V.784zM9.575 11.43c-.962-.335-1.588-.867-1.588-1.708 0-.987.824-1.743 2.189-1.743.652 0 1.132.138 1.476.292l-.292 1.056a2.753 2.753 0 00-1.21-.275c-.567 0-.841.258-.841.558 0 .37.326.532 1.073.816 1.02.377 1.502.91 1.502 1.725 0 .97-.747 1.794-2.335 1.794-.66 0-1.313-.172-1.64-.352l.267-1.082c.351.18.892.36 1.45.36.6 0 .918-.248.918-.625 0-.361-.274-.567-.97-.816zm-6.532 2.43v-5.71c.421-.068 1.048-.12 1.743-.12.858 0 1.459.13 1.871.456.343.274.532.678.532 1.21 0 .739-.523 1.245-1.02 1.425v.026c.402.163.625.549.771 1.081.18.653.36 1.408.472 1.631H6.073c-.094-.163-.231-.635-.403-1.348-.155-.721-.404-.918-.936-.926H4.34v2.274H3.043zm13.428 5.144H3.53v-3.778h12.94v3.778zm-2.288-5.06c-.66 0-1.313-.17-1.639-.351l.266-1.082c.352.18.893.36 1.45.36.601 0 .92-.248.92-.625 0-.361-.276-.567-.97-.816-.962-.335-1.589-.867-1.589-1.708 0-.987.824-1.743 2.19-1.743.651 0 1.132.138 1.476.292l-.293 1.056a2.748 2.748 0 00-1.21-.275c-.566 0-.84.258-.84.558 0 .37.325.532 1.072.816 1.021.377 1.502.91 1.502 1.725 0 .97-.747 1.794-2.335 1.794z"/>
  <path fill="#A0A0A0" d="M5.893 9.807c0-.532-.36-.798-.961-.807a3.25 3.25 0 00-.593.043v1.596h.516c.652 0 1.038-.326 1.038-.832z"/>
</svg>
