<svg xmlns="http://www.w3.org/2000/svg" width="20" height="20" fill="none" viewBox="0 0 20 20">
  <path fill="#A0A0A0" d="M9.525 9.202c-.283 0-.466.024-.574.05v3.665c.108.025.282.025.44.025 1.148.008 1.896-.624 1.896-1.962.008-1.164-.673-1.778-1.762-1.778z"/>
  <path fill="#A0A0A0" d="M17.735 7.154h-.48V4.836c0-.014-.002-.029-.004-.043a.384.384 0 00-.093-.254L13.302.134l-.003-.003a.381.381 0 00-.104-.08.41.41 0 00-.078-.033l-.02-.007a.398.398 0 00-.09-.011H3.53a.785.785 0 00-.785.784v6.37h-.48a1.12 1.12 0 00-1.121 1.12v5.83c0 .619.502 1.121 1.121 1.121h.48v3.99c0 .433.352.785.785.785h12.94a.785.785 0 00.785-.784v-3.99h.48c.62 0 1.121-.503 1.121-1.122v-5.83c0-.619-.502-1.12-1.12-1.12zM3.53.784h9.084v4.013c0 .217.176.392.392.392h3.465v1.965H3.53V.784zm9.103 10.154c0 1.072-.39 1.812-.93 2.27-.59.49-1.489.722-2.586.722-.656 0-1.122-.041-1.437-.083V8.345A11.254 11.254 0 019.39 8.23c1.064 0 1.754.191 2.294.598.582.433.948 1.122.948 2.11zm-9.659 2.677l.258-1.048c.34.175.865.35 1.404.35.582 0 .89-.242.89-.607 0-.35-.266-.55-.94-.79-.93-.324-1.537-.84-1.537-1.654 0-.956.798-1.687 2.12-1.687.632 0 1.096.133 1.429.282l-.282 1.023a2.666 2.666 0 00-1.173-.266c-.548 0-.814.249-.814.54 0 .357.316.515 1.04.79.988.365 1.454.88 1.454 1.67 0 .939-.723 1.737-2.26 1.737-.641 0-1.273-.166-1.589-.34zm13.497 5.388H3.53v-3.778h12.94v3.778zm.419-9.694h-2.153v1.28h2.012v1.03h-2.012v2.253h-1.271V8.27h3.424v1.04z"/>
</svg>
