<svg xmlns="http://www.w3.org/2000/svg" width="20" height="20" fill="none" viewBox="0 0 20 20">
  <path fill="#A0A0A0" d="M17.735 7.154h-.48V4.836c0-.014-.003-.029-.005-.043a.385.385 0 00-.093-.254L13.301.134l-.003-.003a.381.381 0 00-.078-.065c-.008-.006-.017-.01-.026-.015a.41.41 0 00-.077-.033l-.021-.007a.397.397 0 00-.09-.011H3.529a.785.785 0 00-.784.784v6.37h-.48a1.12 1.12 0 00-1.121 1.12v5.83c0 .619.502 1.121 1.12 1.121h.48v3.99c0 .433.352.785.785.785H16.47a.785.785 0 00.785-.784v-3.99h.48c.619 0 1.12-.503 1.12-1.122v-5.83c0-.619-.501-1.12-1.12-1.12zM3.529.784h9.085v4.013c0 .217.175.392.392.392h3.464v1.965H3.53V.784zm8.24 11.626c.18.653.36 1.408.472 1.631H10.9c-.095-.163-.232-.635-.404-1.348-.155-.722-.404-.919-.936-.928h-.395v2.276H7.869v-5.71c.42-.07 1.048-.121 1.744-.121.858 0 1.46.129 1.872.455.343.274.532.678.532 1.21 0 .74-.524 1.246-1.022 1.427v.025c.404.164.627.55.773 1.083zm-8.76 1.365l.266-1.082c.352.18.893.36 1.451.36.601 0 .92-.248.92-.626 0-.36-.276-.567-.971-.816-.962-.335-1.589-.868-1.589-1.71 0-.987.825-1.743 2.19-1.743.653 0 1.134.138 1.477.292l-.292 1.057a2.757 2.757 0 00-1.21-.275c-.568 0-.842.258-.842.558 0 .37.326.533 1.073.816 1.022.378 1.503.91 1.503 1.726 0 .971-.747 1.795-2.336 1.795-.661 0-1.314-.171-1.64-.352zm13.461 5.228H3.53v-3.778H16.47v3.778zm.502-9.651h-1.58v4.69h-1.314v-4.69h-1.555v-1.1h4.449v1.1z"/>
  <path fill="#A0A0A0" d="M9.759 9.18c-.318 0-.498.026-.593.043v1.597h.515c.653 0 1.04-.326 1.04-.833 0-.532-.36-.798-.962-.807z"/>
</svg>
