<svg xmlns="http://www.w3.org/2000/svg" width="20" height="20" fill="none" viewBox="0 0 20 20">
  <path fill="#A0A0A0" d="M17.735 7.154h-.48V4.837c0-.015-.003-.03-.005-.044a.385.385 0 00-.093-.254L13.301.134l-.003-.003a.385.385 0 00-.181-.113l-.021-.007a.391.391 0 00-.09-.011H3.529a.785.785 0 00-.784.784v6.37h-.48c-.62 0-1.121.501-1.121 1.12v5.83c0 .62.502 1.121 1.12 1.121h.48v3.99c0 .433.352.785.785.785H16.47a.785.785 0 00.785-.784v-3.99h.48c.619 0 1.12-.503 1.12-1.122v-5.83c0-.618-.501-1.12-1.12-1.12zM3.529.784h9.085v4.013c0 .217.175.392.392.392h3.464v1.965H3.53V.784zm8.775 7.41l-1.972 5.857H8.785L6.908 8.194H8.36l.713 2.477c.2.695.382 1.364.521 2.094h.026c.148-.704.33-1.4.53-2.068l.748-2.503h1.407zm-9.819 5.587l.27-1.095c.356.183.903.366 1.468.366.608 0 .93-.252.93-.635 0-.365-.278-.573-.982-.825-.974-.339-1.608-.878-1.608-1.729 0-1 .834-1.764 2.216-1.764.66 0 1.147.139 1.494.295l-.295 1.07a2.782 2.782 0 00-1.225-.279c-.573 0-.852.261-.852.565 0 .374.33.539 1.087.825 1.033.383 1.52.921 1.52 1.747 0 .982-.756 1.816-2.363 1.816-.67 0-1.33-.174-1.66-.357zm13.985 5.222H3.53v-3.778H16.47v3.778zm1.282-5.222a6.556 6.556 0 01-1.954.33c-1.07 0-1.842-.269-2.381-.79-.539-.504-.834-1.269-.826-2.129.01-1.946 1.426-3.058 3.346-3.058.755 0 1.338.148 1.624.286l-.278 1.06c-.322-.138-.72-.252-1.364-.252-1.104 0-1.937.626-1.937 1.895 0 1.208.755 1.92 1.842 1.92.304 0 .547-.035.651-.087v-1.225h-.903v-1.034h2.18v3.084z"/>
</svg>
