<svg xmlns="http://www.w3.org/2000/svg" width="20" height="20" fill="none" viewBox="0 0 20 20">
  <path fill="#A0A0A0" d="M17.735 7.154h-.48V4.837c0-.015-.002-.03-.004-.044a.386.386 0 00-.093-.254L13.3.134 13.3.131a.39.39 0 00-.182-.113l-.02-.007a.393.393 0 00-.09-.011H3.53a.785.785 0 00-.785.784v6.37h-.48c-.619 0-1.121.501-1.121 1.12v5.83c0 .619.502 1.121 1.121 1.121h.48v3.99c0 .433.352.785.785.785h12.94a.785.785 0 00.785-.784v-3.99h.48c.62 0 1.121-.503 1.121-1.122v-5.83c0-.619-.502-1.12-1.12-1.12zM3.53.784h9.084v4.013c0 .217.176.392.392.392h3.465v1.965H3.53V.784zm4.223 7.553h1.423L9.74 9.66c.172.4.286.695.425 1.055h.017c.122-.343.253-.662.416-1.055l.556-1.324h1.399l-1.815 3.213v2.298H9.495V11.59L7.753 8.337zm-2.576 3.197c-.916-.32-1.513-.826-1.513-1.627 0-.94.785-1.66 2.085-1.66.621 0 1.08.13 1.406.278L6.878 9.53a2.618 2.618 0 00-1.153-.262c-.54 0-.802.245-.802.531 0 .352.31.507 1.022.777.973.36 1.431.867 1.431 1.643 0 .925-.711 1.71-2.224 1.71-.63 0-1.251-.164-1.562-.335l.254-1.03c.335.17.85.343 1.382.343.572 0 .875-.237.875-.597 0-.344-.262-.54-.924-.777zm11.294 7.47H3.53v-3.779h12.94v3.778zm-2.209-5.074c-.63 0-1.25-.164-1.561-.335l.253-1.03c.335.17.85.343 1.382.343.573 0 .875-.237.875-.597 0-.344-.262-.54-.924-.777-.916-.32-1.513-.826-1.513-1.627 0-.94.785-1.66 2.086-1.66.62 0 1.079.13 1.406.277l-.278 1.007a2.616 2.616 0 00-1.153-.262c-.54 0-.802.245-.802.531 0 .352.311.507 1.023.777.973.36 1.43.867 1.43 1.643 0 .925-.71 1.71-2.224 1.71z"/>
</svg>
