<svg xmlns="http://www.w3.org/2000/svg" width="20" height="20" fill="none" viewBox="0 0 20 20">
  <path fill="#A0A0A0" d="M17.735 7.154h-.48V4.836c0-.014-.002-.029-.004-.043a.385.385 0 00-.093-.254L13.302.134c-.002-.001-.003-.001-.003-.003a.379.379 0 00-.104-.08.403.403 0 00-.078-.033l-.02-.007a.392.392 0 00-.09-.011H3.53a.785.785 0 00-.785.784v6.37h-.48c-.619 0-1.121.501-1.121 1.12v5.83c0 .62.502 1.121 1.121 1.121h.48v3.99c0 .433.352.785.785.785h12.94a.785.785 0 00.785-.784v-3.99h.48c.62 0 1.121-.503 1.121-1.122v-5.83c0-.619-.502-1.12-1.12-1.12zM3.174 9.406v-1.01h4.085v1.01H5.808v4.306H4.602V9.406H3.174zm13.297 9.597H3.53v-3.778h12.94v3.778zm-5.41-8.517v.978H9.105v1.262h2.184v.986H7.9V8.397h3.28v.985H9.105v1.104h1.956zm.71-2.09h1.38l.465.97c.158.324.277.584.403.884h.016c.126-.34.228-.576.362-.883l.45-.97h1.372l-1.498 2.594 1.577 2.72H14.91l-.481-.961c-.197-.371-.324-.647-.473-.954h-.016c-.11.307-.245.583-.41.954l-.442.962h-1.372l1.538-2.69-1.483-2.625zm4.7-1.242H3.53V.784h9.084v4.013c0 .217.176.392.392.392h3.465v1.965z"/>
</svg>
