<svg xmlns="http://www.w3.org/2000/svg" width="20" height="20" fill="none" viewBox="0 0 20 20">
  <path fill="#A0A0A0" d="M17.735 7.154h-.48V4.837c0-.015-.002-.03-.004-.044a.384.384 0 00-.093-.254L13.302.134l-.003-.003a.381.381 0 00-.104-.08.41.41 0 00-.078-.033l-.02-.007a.398.398 0 00-.09-.011H3.53a.785.785 0 00-.785.784v6.37h-.48a1.12 1.12 0 00-1.121 1.12v5.83c0 .619.502 1.121 1.121 1.121h.48v3.99c0 .433.352.785.785.785h12.94a.785.785 0 00.785-.784v-3.99h.48c.62 0 1.121-.503 1.121-1.122v-5.83c0-.618-.502-1.12-1.12-1.12zM3.53.784h9.084v4.013c0 .217.176.392.392.392h3.465v1.965H3.53V.784zm9.676 9.77v1.078h-2.103v2.355H9.774V8.13h3.58v1.086h-2.25v1.338h2.102zm-4.58-2.423v5.856H7.298V8.131h1.33zM2.094 9.243V8.13h4.5v1.112H4.994v4.744H3.665V9.243H2.093zm14.378 9.76H3.53v-3.778h12.94v3.778zm1.462-9.786h-2.25v1.338h2.102v1.077h-2.103v2.355h-1.328V8.131h3.58v1.086z"/>
</svg>
