<svg xmlns="http://www.w3.org/2000/svg" width="20" height="20" fill="none" viewBox="0 0 20 20">
  <path fill="#A0A0A0" d="M15.465 9.502c-.24 0-.401.023-.486.047v1.533c.1.023.224.03.393.03.624 0 1.01-.315 1.01-.847 0-.477-.332-.763-.917-.763z"/>
  <path fill="#A0A0A0" d="M17.735 7.154h-.48V4.836c0-.014-.002-.029-.004-.043a.385.385 0 00-.093-.254L13.3.134l-.003-.003a.383.383 0 00-.103-.08.4.4 0 00-.078-.033l-.02-.007a.392.392 0 00-.09-.011H3.53a.785.785 0 00-.785.784v6.37h-.48c-.619 0-1.121.502-1.121 1.12v5.83c0 .62.502 1.121 1.121 1.121h.48v3.99c0 .433.352.785.785.785h12.94a.785.785 0 00.785-.784v-3.99h.48c.62 0 1.121-.503 1.121-1.122v-5.83c0-.618-.502-1.12-1.12-1.12zM3.53.784h9.084v4.013c0 .217.176.392.392.392h3.465v1.965H3.53V.784zm9.383 13.063h-1.147l-.077-1.987a58.616 58.616 0 01-.047-2.134h-.022a28.15 28.15 0 01-.578 2.01l-.632 2.027h-.917l-.554-2.01a23.671 23.671 0 01-.47-2.027h-.016c-.03.701-.053 1.502-.092 2.15l-.092 1.971H7.182l.331-5.192h1.564l.509 1.733c.162.602.323 1.249.439 1.857h.023c.146-.6.323-1.286.493-1.864l.554-1.726h1.533l.285 5.192zm-10.2-4.205v-.986h3.991v.986H5.287v4.205H4.108V9.642H2.714zm13.758 9.361H3.53v-3.778h12.94v3.778zm.596-7.536c-.401.378-.994.547-1.687.547a2.97 2.97 0 01-.401-.023v1.857h-1.163V8.724c.361-.062.87-.108 1.587-.108.724 0 1.24.139 1.587.416.33.262.554.693.554 1.202 0 .508-.17.94-.477 1.232z"/>
</svg>
