<svg xmlns="http://www.w3.org/2000/svg" width="20" height="20" fill="none" viewBox="0 0 20 20">
  <path fill="#A0A0A0" d="M17.735 7.154h-.48V4.837c0-.015-.002-.03-.004-.044a.386.386 0 00-.093-.254L13.302.134l-.003-.003a.39.39 0 00-.182-.113l-.02-.007a.393.393 0 00-.09-.011H3.53a.785.785 0 00-.785.784v6.37h-.48c-.619 0-1.121.501-1.121 1.12v5.83c0 .619.502 1.121 1.121 1.121h.48v3.99c0 .433.352.785.785.785h12.94a.785.785 0 00.785-.784v-3.99h.48c.62 0 1.121-.503 1.121-1.122v-5.83a1.12 1.12 0 00-1.12-1.12zM3.53.784h9.084v4.013c0 .217.176.392.392.392h3.465v1.965H3.53V.784zm4.893 8.707V8.444h4.236V9.49h-1.504v4.464H9.904V9.49h-1.48zm-4.66 0V8.444h4.235V9.49H6.493v4.464h-1.25V9.49h-1.48zm12.708 9.512H3.53v-3.778h12.94v3.778zm.22-9.537h-2.118v1.259h1.979v1.014h-1.979v2.216h-1.251V8.444h3.369v1.022z"/>
</svg>
