<svg xmlns="http://www.w3.org/2000/svg" width="20" height="20" fill="none" viewBox="0 0 20 20">
  <path fill="#A0A0A0" d="M17.735 7.154h-.48V4.836c0-.014-.003-.029-.004-.043a.385.385 0 00-.094-.254L13.301.134l-.003-.003a.39.39 0 00-.078-.065c-.008-.006-.017-.01-.026-.015a.41.41 0 00-.077-.033l-.021-.007a.393.393 0 00-.09-.011H3.529a.785.785 0 00-.784.784v6.37h-.48c-.62 0-1.121.501-1.121 1.12v5.83c0 .619.502 1.121 1.12 1.121h.48v3.99c0 .433.352.785.785.785H16.47a.785.785 0 00.785-.784v-3.99h.48c.619 0 1.12-.503 1.12-1.122v-5.83a1.12 1.12 0 00-1.12-1.12zm-1.265 11.85H3.53v-3.779h12.94v3.778zM4.864 8.097h1.484l.73 2.533c.204.71.39 1.395.532 2.142h.027c.15-.72.338-1.431.542-2.115l.764-2.56h1.44l-2.017 5.99H6.784l-1.92-5.99zm10.603 4.24c0 .542-.25.968-.623 1.27-.435.347-1.164.542-2.355.542-.666 0-1.164-.045-1.466-.088V8.178c.355-.071 1.075-.124 1.75-.124.827 0 1.333.08 1.769.337.418.222.72.631.72 1.173 0 .533-.311 1.031-.987 1.28v.018c.685.187 1.192.702 1.192 1.475zm1.003-5.184H3.53V.784h9.084v4.013c0 .217.175.392.392.392h3.464v1.965z"/>
  <path fill="#A0A0A0" d="M12.827 11.44h-.462v1.688c.133.018.294.018.524.018.614 0 1.155-.231 1.155-.862 0-.605-.541-.845-1.217-.845zM13.902 9.733c0-.453-.347-.693-.96-.693-.293 0-.462.018-.578.036v1.395h.444c.712 0 1.094-.293 1.094-.738z"/>
</svg>
