<svg xmlns="http://www.w3.org/2000/svg" width="20" height="20" fill="none" viewBox="0 0 20 20">
  <path fill="#A0A0A0" d="M17.735 7.154h-.48V4.837c0-.015-.002-.03-.004-.044a.384.384 0 00-.093-.254L13.302.134l-.003-.003a.381.381 0 00-.104-.08.41.41 0 00-.078-.033l-.02-.007a.398.398 0 00-.09-.011H3.53a.785.785 0 00-.785.784v6.37h-.48a1.12 1.12 0 00-1.121 1.12v5.83c0 .619.502 1.121 1.121 1.121h.48v3.99c0 .433.352.785.785.785h12.94a.785.785 0 00.785-.784v-3.99h.48c.62 0 1.121-.503 1.121-1.122v-5.83c0-.618-.502-1.12-1.12-1.12zM3.53.784h9.084v4.013c0 .217.176.392.392.392h3.465v1.965H3.53V.784zm10.043 12.473h-.953l-.065-1.65a48.399 48.399 0 01-.037-1.773h-.02c-.135.55-.313 1.164-.48 1.67l-.525 1.683h-.761l-.46-1.67c-.142-.506-.289-1.12-.39-1.683h-.014c-.025.582-.045 1.247-.076 1.785l-.077 1.638h-.903l.276-4.313h1.298l.422 1.44c.135.499.269 1.036.365 1.542h.019c.122-.499.27-1.069.41-1.548l.46-1.433h1.274l.237 4.312zM2.9 8.944h1.043l.326 1.779c.096.512.186 1.069.256 1.504h.013c.07-.467.173-.986.281-1.517l.365-1.766h1.037l.345 1.818c.096.505.166.966.23 1.446h.013c.064-.48.16-.986.25-1.498l.352-1.766h.991L7.29 13.257H6.233l-.364-1.855a14.944 14.944 0 01-.205-1.332h-.012c-.078.487-.148.896-.25 1.332l-.41 1.855H3.925L2.9 8.944zm13.57 10.06H3.53v-3.779h12.94v3.778zm.008-5.747H15.34l-1.381-4.312h1.068l.524 1.823c.147.511.282 1.005.384 1.542h.02c.108-.518.243-1.03.39-1.523l.55-1.842h1.037l-1.453 4.312z"/>
</svg>
