<svg xmlns="http://www.w3.org/2000/svg" width="20" height="20" fill="none" viewBox="0 0 20 20">
  <path fill="#A0A0A0" d="M17.735 7.154h-.48V4.836c0-.014-.003-.029-.004-.043a.385.385 0 00-.094-.254L13.301.134l-.003-.003a.39.39 0 00-.078-.065c-.008-.006-.017-.01-.026-.015a.408.408 0 00-.077-.033l-.021-.007a.39.39 0 00-.09-.011H3.529a.785.785 0 00-.784.784v6.37h-.48c-.62 0-1.121.501-1.121 1.12v5.83c0 .619.502 1.121 1.12 1.121h.48v3.99c0 .433.352.785.785.785H16.47a.785.785 0 00.785-.784v-3.99h.48c.619 0 1.12-.503 1.12-1.122v-5.83a1.12 1.12 0 00-1.12-1.12zM3.529.784h9.085v4.013c0 .217.175.392.392.392h3.464v1.965H3.53V.784zm7.667 10.81c-.852-.297-1.408-.769-1.408-1.515 0-.875.73-1.545 1.941-1.545.578 0 1.005.122 1.309.259l-.259.936a2.44 2.44 0 00-1.073-.244c-.502 0-.746.229-.746.495 0 .327.29.472.952.723.905.335 1.331.807 1.331 1.53 0 .86-.662 1.59-2.07 1.59-.586 0-1.164-.152-1.453-.312l.235-.958c.313.16.792.32 1.287.32.533 0 .814-.221.814-.556 0-.32-.243-.503-.86-.723zM2.832 8.618h1.24l.389 2.116c.114.609.22 1.27.304 1.788h.016c.083-.556.205-1.172.334-1.803l.434-2.101h1.234l.41 2.161c.115.601.198 1.15.275 1.72h.015c.076-.57.19-1.172.297-1.78l.418-2.102h1.18l-1.325 5.13H6.798l-.434-2.207a17.828 17.828 0 01-.244-1.583h-.015a20.885 20.885 0 01-.297 1.583l-.487 2.207H4.05l-1.218-5.13zM16.47 19.003H3.53v-3.778H16.47v3.778zm.693-9.434h-1.972v1.172h1.842v.944h-1.842v2.063h-1.164v-5.13h3.136v.951z"/>
</svg>
