<svg xmlns="http://www.w3.org/2000/svg" width="20" height="20" fill="none" viewBox="0 0 20 20">
  <path fill="#A0A0A0" d="M17.735 7.154h-.48V4.837c0-.015-.002-.03-.004-.044a.384.384 0 00-.093-.254L13.302.134l-.003-.003a.381.381 0 00-.104-.08.41.41 0 00-.078-.033l-.02-.007a.398.398 0 00-.09-.011H3.53a.785.785 0 00-.785.784v6.37h-.48a1.12 1.12 0 00-1.121 1.12v5.83c0 .619.502 1.121 1.121 1.121h.48v3.99c0 .433.352.785.785.785h12.94a.785.785 0 00.785-.784v-3.99h.48c.62 0 1.121-.503 1.121-1.122v-5.83c0-.618-.502-1.12-1.12-1.12zM3.53.784h9.084v4.013c0 .217.176.392.392.392h3.465v1.965H3.53V.784zM13.418 13.6h-1.164l-.078-2.016a59.32 59.32 0 01-.047-2.165h-.023a28.414 28.414 0 01-.586 2.04l-.641 2.055h-.93l-.563-2.04A24.327 24.327 0 018.91 9.42h-.016c-.031.711-.055 1.524-.094 2.18l-.093 2H7.605l.336-5.266h1.586l.516 1.758c.164.61.328 1.266.445 1.883h.024c.148-.61.328-1.305.5-1.89l.562-1.75h1.555l.289 5.266zm-10.876 0l1.523-2.665-1.469-2.602h1.368l.46.961c.157.32.274.578.4.875h.015c.125-.336.226-.57.359-.875l.446-.96h1.359l-1.485 2.57L7.081 13.6H5.706l-.477-.954c-.195-.367-.32-.64-.468-.946h-.016c-.11.306-.242.579-.406.946L3.9 13.6h-1.36zm13.929 5.403H3.53v-3.778h12.94v3.778zm1.152-5.403h-3.29V8.332h1.195V12.6h2.095v1z"/>
</svg>
