<svg width="24" height="24" viewBox="0 0 24 24" fill="none" xmlns="http://www.w3.org/2000/svg">
<path d="M12.0001 3.00005C7.94374 3.00005 4.47957 5.56114 3.10577 9.16989C3.03818 9.34743 3.0845 9.54711 3.21797 9.68231L3.25685 9.7217C3.41828 9.88522 3.66975 9.91693 3.87061 9.80533C6.121 8.55498 8.94019 7.81143 12.0001 7.81143C15.06 7.81143 17.8792 8.55498 20.1295 9.80533C20.3304 9.91693 20.5819 9.88522 20.7433 9.7217L20.7822 9.68231C20.9157 9.54711 20.962 9.34743 20.8944 9.16989C19.5206 5.56114 16.0564 3.00005 12.0001 3.00005Z" fill="black"/>
<path d="M12.0001 21.0001C7.94374 21.0001 4.47957 18.439 3.10577 14.8302C3.03818 14.6527 3.0845 14.453 3.21797 14.3178L3.25685 14.2784C3.41828 14.1149 3.66975 14.0832 3.87061 14.1948C6.121 15.4451 8.94019 16.1887 12.0001 16.1887C15.06 16.1887 17.8792 15.4451 20.1295 14.1948C20.3304 14.0832 20.5819 14.1149 20.7433 14.2784L20.7822 14.3178C20.9157 14.453 20.962 14.6527 20.8944 14.8302C19.5206 18.439 16.0564 21.0001 12.0001 21.0001Z" fill="black"/>
</svg>
